0, 0, Header, 1, 27, 384
1, 0, Start_track
1, 0, Tempo, 535710
1, 0, Time_signature, 4, 2, 24, 8
1, 49152, Tempo, 545450
1, 52224, Tempo, 535710
1, 110592, Tempo, 540540
1, 147456, End_track
2, 0, Start_track
2, 0, Title_t, "BassGuitar"
2, 648, Control_c, 0, 121, 0
2, 720, Program_c, 0, 33
2, 768, Control_c, 0, 0, 0
2, 840, Control_c, 0, 32, 0
2, 864, Control_c, 0, 7, 127
2, 888, Control_c, 0, 11, 127
2, 936, Control_c, 0, 10, 64
2, 1008, Control_c, 0, 1, 0
2, 1104, Control_c, 0, 91, 127
2, 1200, Control_c, 0, 93, 0
2, 1296, Control_c, 0, 2, 0
2, 7680, Note_on_c, 0, 38, 127
2, 9024, Note_off_c, 0, 38, 50
2, 9024, Note_on_c, 0, 33, 127
2, 9216, Note_off_c, 0, 33, 77
2, 9216, Note_on_c, 0, 36, 127
2, 9792, Note_off_c, 0, 36, 66
2, 9792, Note_on_c, 0, 35, 127
2, 10368, Note_off_c, 0, 35, 76
2, 10368, Note_on_c, 0, 31, 127
2, 10752, Note_off_c, 0, 31, 127
2, 10752, Note_on_c, 0, 38, 127
2, 12096, Note_off_c, 0, 38, 50
2, 12096, Note_on_c, 0, 33, 127
2, 12288, Note_off_c, 0, 33, 77
2, 12288, Note_on_c, 0, 36, 127
2, 12864, Note_off_c, 0, 36, 66
2, 12864, Note_on_c, 0, 35, 127
2, 13440, Note_off_c, 0, 35, 76
2, 13440, Note_on_c, 0, 31, 127
2, 13824, Note_off_c, 0, 31, 127
2, 13824, Note_on_c, 0, 38, 127
2, 14784, Note_off_c, 0, 38, 83
2, 14784, Note_on_c, 0, 33, 127
2, 14976, Note_off_c, 0, 33, 70
2, 14976, Note_on_c, 0, 38, 127
2, 15072, Note_off_c, 0, 38, 65
2, 15072, Note_on_c, 0, 33, 127
2, 15168, Note_off_c, 0, 33, 64
2, 15168, Note_on_c, 0, 38, 127
2, 15360, Note_off_c, 0, 38, 57
2, 15360, Note_on_c, 0, 36, 127
2, 15936, Note_off_c, 0, 36, 60
2, 15936, Note_on_c, 0, 35, 127
2, 16512, Note_off_c, 0, 35, 67
2, 16512, Note_on_c, 0, 31, 127
2, 16896, Note_off_c, 0, 31, 127
2, 16896, Note_on_c, 0, 38, 127
2, 17856, Note_off_c, 0, 38, 83
2, 17856, Note_on_c, 0, 38, 127
2, 18048, Note_off_c, 0, 38, 70
2, 18048, Note_on_c, 0, 45, 127
2, 18144, Note_off_c, 0, 45, 65
2, 18144, Note_on_c, 0, 38, 127
2, 18240, Note_off_c, 0, 38, 64
2, 18240, Note_on_c, 0, 33, 127
2, 18432, Note_off_c, 0, 33, 57
2, 18432, Note_on_c, 0, 36, 127
2, 19008, Note_off_c, 0, 36, 60
2, 19008, Note_on_c, 0, 35, 127
2, 19584, Note_off_c, 0, 35, 67
2, 19584, Note_on_c, 0, 31, 127
2, 19968, Note_off_c, 0, 31, 127
2, 19968, Note_on_c, 0, 38, 127
2, 20928, Note_off_c, 0, 38, 83
2, 20928, Note_on_c, 0, 38, 127
2, 21120, Note_off_c, 0, 38, 70
2, 21120, Note_on_c, 0, 38, 127
2, 21216, Note_off_c, 0, 38, 65
2, 21216, Note_on_c, 0, 40, 127
2, 21312, Note_off_c, 0, 40, 64
2, 21312, Note_on_c, 0, 38, 127
2, 21504, Note_off_c, 0, 38, 57
2, 21504, Note_on_c, 0, 36, 127
2, 22080, Note_off_c, 0, 36, 60
2, 22080, Note_on_c, 0, 35, 127
2, 22656, Note_off_c, 0, 35, 67
2, 22656, Note_on_c, 0, 31, 127
2, 23040, Note_off_c, 0, 31, 127
2, 23040, Note_on_c, 0, 38, 127
2, 24000, Note_off_c, 0, 38, 83
2, 24000, Note_on_c, 0, 33, 127
2, 24192, Note_off_c, 0, 33, 70
2, 24192, Note_on_c, 0, 38, 127
2, 24288, Note_off_c, 0, 38, 65
2, 24288, Note_on_c, 0, 33, 127
2, 24384, Note_off_c, 0, 33, 64
2, 24384, Note_on_c, 0, 38, 127
2, 24576, Note_off_c, 0, 38, 57
2, 24576, Note_on_c, 0, 36, 127
2, 26112, Note_off_c, 0, 36, 60
2, 26112, Note_on_c, 0, 35, 127
2, 27648, Note_off_c, 0, 35, 60
2, 27648, Note_on_c, 0, 45, 127
2, 28032, Note_off_c, 0, 45, 80
2, 28032, Note_on_c, 0, 45, 127
2, 28128, Note_off_c, 0, 45, 43
2, 28128, Note_on_c, 0, 43, 127
2, 28224, Note_off_c, 0, 43, 76
2, 28224, Note_on_c, 0, 40, 127
2, 28416, Note_off_c, 0, 40, 62
2, 28416, Note_on_c, 0, 43, 127
2, 28800, Note_off_c, 0, 43, 91
2, 28800, Note_on_c, 0, 45, 127
2, 28896, Note_off_c, 0, 45, 85
2, 28896, Note_on_c, 0, 43, 127
2, 28992, Note_off_c, 0, 43, 73
2, 28992, Note_on_c, 0, 40, 127
2, 29184, Note_off_c, 0, 40, 55
2, 29184, Note_on_c, 0, 38, 127
2, 29760, Note_off_c, 0, 38, 63
2, 29760, Note_on_c, 0, 38, 127
2, 29952, Note_on_c, 0, 45, 120
2, 30048, Note_off_c, 0, 38, 77
2, 30144, Note_off_c, 0, 45, 69
2, 30144, Note_on_c, 0, 38, 127
2, 30336, Note_on_c, 0, 45, 122
2, 30432, Note_off_c, 0, 38, 31
2, 30528, Note_off_c, 0, 45, 66
2, 30528, Note_on_c, 0, 33, 127
2, 30720, Note_off_c, 0, 33, 57
2, 30720, Note_on_c, 0, 31, 127
2, 31104, Note_off_c, 0, 31, 82
2, 31104, Note_on_c, 0, 31, 127
2, 31296, Note_off_c, 0, 31, 83
2, 31296, Note_on_c, 0, 31, 127
2, 31392, Control_c, 0, 84, 31
2, 31480, Note_on_c, 0, 36, 127
2, 31488, Note_off_c, 0, 31, 83
2, 31534, Note_off_c, 0, 36, 84
2, 31680, Note_on_c, 0, 36, 127
2, 31776, Note_off_c, 0, 36, 85
2, 31872, Note_on_c, 0, 36, 127
2, 32160, Note_off_c, 0, 36, 72
2, 32256, Note_on_c, 0, 40, 127
2, 32448, Note_off_c, 0, 40, 76
2, 32544, Note_on_c, 0, 35, 123
2, 32640, Note_off_c, 0, 35, 64
2, 32640, Note_on_c, 0, 40, 127
2, 32736, Note_off_c, 0, 40, 96
2, 32832, Note_on_c, 0, 40, 127
2, 33024, Note_off_c, 0, 40, 72
2, 33120, Note_on_c, 0, 36, 127
2, 33216, Note_off_c, 0, 36, 76
2, 33216, Note_on_c, 0, 38, 127
2, 33312, Note_off_c, 0, 38, 76
2, 33312, Note_on_c, 0, 38, 127
2, 33408, Note_off_c, 0, 38, 76
2, 33408, Note_on_c, 0, 38, 127
2, 33600, Note_off_c, 0, 38, 76
2, 33616, Note_on_c, 0, 36, 127
2, 33792, Note_on_c, 0, 31, 127
2, 33808, Note_off_c, 0, 36, 72
2, 34176, Note_off_c, 0, 31, 82
2, 34176, Note_on_c, 0, 31, 127
2, 34368, Note_off_c, 0, 31, 83
2, 34368, Note_on_c, 0, 31, 127
2, 34464, Control_c, 0, 84, 31
2, 34552, Note_on_c, 0, 36, 127
2, 34560, Note_off_c, 0, 31, 83
2, 34606, Note_off_c, 0, 36, 84
2, 34752, Note_on_c, 0, 36, 127
2, 34848, Note_off_c, 0, 36, 85
2, 34944, Note_on_c, 0, 36, 127
2, 35232, Note_off_c, 0, 36, 72
2, 35328, Note_on_c, 0, 40, 127
2, 35520, Note_off_c, 0, 40, 76
2, 35616, Note_on_c, 0, 35, 123
2, 35712, Note_off_c, 0, 35, 64
2, 35712, Note_on_c, 0, 40, 127
2, 35808, Note_off_c, 0, 40, 96
2, 35904, Note_on_c, 0, 40, 127
2, 36096, Note_off_c, 0, 40, 72
2, 36192, Note_on_c, 0, 36, 127
2, 36288, Note_off_c, 0, 36, 76
2, 36288, Note_on_c, 0, 38, 127
2, 36384, Note_off_c, 0, 38, 76
2, 36384, Note_on_c, 0, 38, 127
2, 36480, Note_off_c, 0, 38, 76
2, 36480, Note_on_c, 0, 38, 127
2, 36672, Note_off_c, 0, 38, 76
2, 36672, Note_on_c, 0, 36, 127
2, 36864, Note_off_c, 0, 36, 72
2, 36864, Note_on_c, 0, 31, 127
2, 37248, Note_off_c, 0, 31, 82
2, 37248, Note_on_c, 0, 31, 127
2, 37440, Note_off_c, 0, 31, 83
2, 37440, Note_on_c, 0, 31, 127
2, 37536, Control_c, 0, 84, 31
2, 37624, Note_on_c, 0, 36, 127
2, 37632, Note_off_c, 0, 31, 83
2, 37678, Note_off_c, 0, 36, 84
2, 37824, Note_on_c, 0, 36, 127
2, 37920, Note_off_c, 0, 36, 85
2, 38016, Note_on_c, 0, 36, 127
2, 38304, Note_off_c, 0, 36, 72
2, 38400, Note_on_c, 0, 40, 127
2, 38592, Note_off_c, 0, 40, 76
2, 38688, Note_on_c, 0, 35, 123
2, 38784, Note_off_c, 0, 35, 64
2, 38784, Note_on_c, 0, 40, 127
2, 38880, Note_off_c, 0, 40, 96
2, 38976, Note_on_c, 0, 40, 127
2, 39168, Note_off_c, 0, 40, 72
2, 39264, Note_on_c, 0, 36, 127
2, 39360, Note_off_c, 0, 36, 76
2, 39360, Note_on_c, 0, 38, 127
2, 39456, Note_off_c, 0, 38, 76
2, 39456, Note_on_c, 0, 38, 127
2, 39552, Note_off_c, 0, 38, 76
2, 39552, Note_on_c, 0, 38, 127
2, 39744, Note_off_c, 0, 38, 76
2, 39744, Note_on_c, 0, 29, 127
2, 39936, Note_off_c, 0, 29, 72
2, 39936, Note_on_c, 0, 31, 127
2, 40320, Note_off_c, 0, 31, 82
2, 40320, Note_on_c, 0, 31, 127
2, 40512, Note_off_c, 0, 31, 83
2, 40512, Note_on_c, 0, 31, 127
2, 40608, Control_c, 0, 84, 31
2, 40696, Note_on_c, 0, 36, 127
2, 40704, Note_off_c, 0, 31, 83
2, 40750, Note_off_c, 0, 36, 84
2, 40896, Note_on_c, 0, 36, 127
2, 40992, Note_off_c, 0, 36, 85
2, 41088, Note_on_c, 0, 36, 127
2, 41376, Note_off_c, 0, 36, 72
2, 41472, Note_on_c, 0, 40, 127
2, 41664, Note_off_c, 0, 40, 76
2, 41760, Note_on_c, 0, 35, 123
2, 41856, Note_off_c, 0, 35, 64
2, 41856, Note_on_c, 0, 40, 127
2, 41952, Note_off_c, 0, 40, 96
2, 42048, Note_on_c, 0, 40, 127
2, 42240, Note_off_c, 0, 40, 72
2, 42336, Note_on_c, 0, 36, 127
2, 42432, Note_off_c, 0, 36, 76
2, 42432, Note_on_c, 0, 38, 127
2, 42528, Note_off_c, 0, 38, 76
2, 42528, Note_on_c, 0, 38, 127
2, 42624, Note_off_c, 0, 38, 76
2, 42624, Note_on_c, 0, 38, 127
2, 42816, Note_off_c, 0, 38, 76
2, 42816, Note_on_c, 0, 29, 127
2, 43008, Note_off_c, 0, 29, 72
2, 43008, Note_on_c, 0, 31, 127
2, 43392, Note_off_c, 0, 31, 82
2, 43392, Note_on_c, 0, 31, 127
2, 43584, Note_off_c, 0, 31, 83
2, 43584, Note_on_c, 0, 31, 127
2, 43680, Control_c, 0, 84, 31
2, 43768, Note_on_c, 0, 36, 127
2, 43776, Note_off_c, 0, 31, 83
2, 43822, Note_off_c, 0, 36, 84
2, 43968, Note_on_c, 0, 36, 127
2, 44064, Note_off_c, 0, 36, 85
2, 44160, Note_on_c, 0, 36, 127
2, 44448, Note_off_c, 0, 36, 72
2, 44544, Note_on_c, 0, 40, 127
2, 44736, Note_off_c, 0, 40, 76
2, 44832, Note_on_c, 0, 35, 123
2, 44928, Note_off_c, 0, 35, 64
2, 44928, Note_on_c, 0, 40, 127
2, 45024, Note_off_c, 0, 40, 96
2, 45120, Note_on_c, 0, 40, 127
2, 45312, Note_off_c, 0, 40, 72
2, 45408, Note_on_c, 0, 36, 127
2, 45504, Note_off_c, 0, 36, 76
2, 45504, Note_on_c, 0, 38, 127
2, 45600, Note_off_c, 0, 38, 76
2, 45600, Note_on_c, 0, 38, 127
2, 45696, Note_off_c, 0, 38, 76
2, 45696, Note_on_c, 0, 38, 127
2, 45888, Note_off_c, 0, 38, 76
2, 45888, Note_on_c, 0, 29, 127
2, 46080, Note_off_c, 0, 29, 72
2, 46080, Note_on_c, 0, 31, 127
2, 46464, Note_off_c, 0, 31, 82
2, 46464, Note_on_c, 0, 31, 127
2, 46656, Note_off_c, 0, 31, 83
2, 46656, Note_on_c, 0, 31, 127
2, 46840, Note_on_c, 0, 36, 127
2, 46848, Note_off_c, 0, 31, 83
2, 46894, Note_off_c, 0, 36, 84
2, 47040, Note_on_c, 0, 36, 127
2, 47136, Note_off_c, 0, 36, 85
2, 47232, Note_on_c, 0, 36, 127
2, 47520, Note_off_c, 0, 36, 72
2, 47616, Note_on_c, 0, 39, 127
2, 49152, Note_off_c, 0, 39, 65
2, 49152, Note_on_c, 0, 28, 120
2, 49536, Note_off_c, 0, 28, 66
2, 49536, Note_on_c, 0, 40, 120
2, 49824, Note_off_c, 0, 40, 66
2, 49824, Note_on_c, 0, 40, 120
2, 49920, Note_off_c, 0, 40, 80
2, 49920, Note_on_c, 0, 42, 122
2, 50112, Note_off_c, 0, 42, 48
2, 50112, Note_on_c, 0, 40, 122
2, 50304, Note_off_c, 0, 40, 72
2, 50304, Note_on_c, 0, 42, 124
2, 50496, Note_off_c, 0, 42, 64
2, 50496, Note_on_c, 0, 40, 125
2, 50688, Note_off_c, 0, 40, 90
2, 50688, Note_on_c, 0, 33, 127
2, 50880, Note_off_c, 0, 33, 127
2, 50880, Note_on_c, 0, 45, 127
2, 51264, Note_off_c, 0, 45, 81
2, 51264, Note_on_c, 0, 47, 127
2, 51648, Note_off_c, 0, 47, 70
2, 51648, Note_on_c, 0, 42, 127
2, 51840, Note_off_c, 0, 42, 101
2, 51840, Note_on_c, 0, 45, 127
2, 51936, Note_off_c, 0, 45, 96
2, 51936, Note_on_c, 0, 42, 127
2, 52032, Note_off_c, 0, 42, 79
2, 52032, Note_on_c, 0, 45, 127
2, 52224, Note_off_c, 0, 45, 81
2, 52224, Note_on_c, 0, 47, 127
2, 52416, Note_off_c, 0, 47, 81
2, 52416, Note_on_c, 0, 47, 127
2, 52608, Note_off_c, 0, 47, 85
2, 52608, Note_on_c, 0, 47, 127
2, 52800, Note_off_c, 0, 47, 83
2, 52800, Note_on_c, 0, 47, 127
2, 52992, Note_off_c, 0, 47, 73
2, 52992, Note_on_c, 0, 45, 127
2, 53184, Note_off_c, 0, 45, 79
2, 53184, Note_on_c, 0, 45, 127
2, 53376, Note_off_c, 0, 45, 77
2, 53376, Note_on_c, 0, 45, 127
2, 53568, Note_off_c, 0, 45, 76
2, 53568, Note_on_c, 0, 45, 127
2, 53760, Note_off_c, 0, 45, 17
2, 53760, Note_on_c, 0, 43, 127
2, 53952, Note_off_c, 0, 43, 76
2, 53952, Note_on_c, 0, 43, 127
2, 54144, Note_off_c, 0, 43, 77
2, 54144, Note_on_c, 0, 43, 127
2, 54336, Note_off_c, 0, 43, 75
2, 54336, Note_on_c, 0, 43, 127
2, 54528, Note_off_c, 0, 43, 82
2, 54528, Note_on_c, 0, 42, 127
2, 54720, Note_off_c, 0, 42, 77
2, 54720, Note_on_c, 0, 42, 127
2, 54912, Note_off_c, 0, 42, 77
2, 54912, Note_on_c, 0, 42, 127
2, 55104, Note_off_c, 0, 42, 87
2, 55104, Note_on_c, 0, 42, 127
2, 55296, Note_off_c, 0, 42, 83
2, 55296, Note_on_c, 0, 45, 127
2, 55488, Note_off_c, 0, 45, 82
2, 55488, Note_on_c, 0, 45, 127
2, 55680, Note_off_c, 0, 45, 76
2, 55680, Note_on_c, 0, 45, 127
2, 55872, Note_off_c, 0, 45, 76
2, 55872, Note_on_c, 0, 45, 127
2, 56064, Note_off_c, 0, 45, 84
2, 56064, Note_on_c, 0, 45, 127
2, 56256, Note_off_c, 0, 45, 78
2, 56256, Note_on_c, 0, 45, 127
2, 56448, Note_off_c, 0, 45, 78
2, 56448, Note_on_c, 0, 45, 127
2, 56640, Note_off_c, 0, 45, 77
2, 56640, Note_on_c, 0, 42, 127
2, 56736, Note_off_c, 0, 42, 62
2, 56736, Note_on_c, 0, 40, 127
2, 56832, Note_off_c, 0, 40, 70
2, 56832, Note_on_c, 0, 33, 127
2, 57024, Note_off_c, 0, 33, 66
2, 57024, Note_on_c, 0, 33, 127
2, 57216, Note_off_c, 0, 33, 78
2, 57216, Note_on_c, 0, 33, 127
2, 57408, Note_off_c, 0, 33, 76
2, 57408, Note_on_c, 0, 33, 127
2, 57600, Note_off_c, 0, 33, 72
2, 57600, Note_on_c, 0, 33, 127
2, 57792, Note_off_c, 0, 33, 69
2, 57792, Note_on_c, 0, 33, 127
2, 57984, Note_off_c, 0, 33, 44
2, 57984, Note_on_c, 0, 45, 127
2, 58080, Note_off_c, 0, 45, 85
2, 58080, Note_on_c, 0, 42, 127
2, 58176, Note_off_c, 0, 42, 64
2, 58176, Note_on_c, 0, 40, 127
2, 58272, Note_off_c, 0, 40, 72
2, 58272, Note_on_c, 0, 33, 127
2, 58368, Note_off_c, 0, 33, 127
2, 58368, Note_on_c, 0, 38, 127
2, 58848, Note_off_c, 0, 38, 76
2, 58944, Note_on_c, 0, 38, 127
2, 59136, Note_off_c, 0, 38, 70
2, 59136, Note_on_c, 0, 43, 127
2, 59184, Note_off_c, 0, 43, 81
2, 59232, Note_on_c, 0, 31, 127
2, 59328, Note_off_c, 0, 31, 81
2, 59328, Note_on_c, 0, 31, 127
2, 59424, Note_off_c, 0, 31, 101
2, 59520, Note_on_c, 0, 31, 127
2, 59904, Note_off_c, 0, 31, 85
2, 59904, Note_on_c, 0, 30, 127
2, 60096, Note_off_c, 0, 30, 83
2, 60192, Note_on_c, 0, 30, 127
2, 60288, Note_off_c, 0, 30, 92
2, 60288, Note_on_c, 0, 30, 127
2, 60384, Note_off_c, 0, 30, 87
2, 60480, Note_on_c, 0, 30, 127
2, 60768, Note_off_c, 0, 30, 57
2, 60864, Note_on_c, 0, 28, 127
2, 60960, Note_off_c, 0, 28, 90
2, 61056, Note_on_c, 0, 28, 127
2, 61344, Note_off_c, 0, 28, 70
2, 61440, Note_on_c, 0, 38, 127
2, 61824, Note_off_c, 0, 38, 64
2, 62016, Note_on_c, 0, 38, 127
2, 62208, Note_off_c, 0, 38, 70
2, 62208, Note_on_c, 0, 43, 127
2, 62496, Note_off_c, 0, 43, 76
2, 62496, Note_on_c, 0, 38, 127
2, 62592, Note_off_c, 0, 38, 75
2, 62592, Note_on_c, 0, 43, 127
2, 62976, Note_off_c, 0, 43, 83
2, 62976, Note_on_c, 0, 42, 127
2, 63264, Note_off_c, 0, 42, 83
2, 63360, Note_on_c, 0, 42, 127
2, 63456, Note_off_c, 0, 42, 60
2, 63552, Note_on_c, 0, 33, 127
2, 64032, Note_off_c, 0, 33, 127
2, 64128, Note_on_c, 0, 45, 124
2, 64224, Note_on_c, 0, 43, 127
2, 64273, Note_off_c, 0, 45, 76
2, 64320, Note_on_c, 0, 42, 127
2, 64347, Note_off_c, 0, 43, 86
2, 64416, Note_on_c, 0, 40, 123
2, 64434, Note_off_c, 0, 42, 103
2, 64481, Note_off_c, 0, 40, 76
2, 64512, Note_on_c, 0, 38, 127
2, 64784, Note_off_c, 0, 38, 88
2, 64896, Note_on_c, 0, 38, 127
2, 65289, Note_off_c, 0, 38, 93
2, 65472, Note_on_c, 0, 31, 127
2, 65574, Note_off_c, 0, 31, 77
2, 65664, Note_on_c, 0, 31, 127
2, 65889, Note_off_c, 0, 31, 85
2, 66048, Note_on_c, 0, 35, 127
2, 66225, Note_off_c, 0, 35, 82
2, 66336, Note_on_c, 0, 35, 123
2, 66386, Note_off_c, 0, 35, 94
2, 66432, Note_on_c, 0, 35, 127
2, 66519, Note_off_c, 0, 35, 94
2, 66624, Note_on_c, 0, 35, 127
2, 66911, Note_off_c, 0, 35, 80
2, 67008, Note_on_c, 0, 37, 127
2, 67120, Note_off_c, 0, 37, 79
2, 67200, Note_on_c, 0, 37, 127
2, 67349, Note_off_c, 0, 37, 56
2, 67392, Note_on_c, 0, 33, 127
2, 67544, Note_off_c, 0, 33, 57
2, 67584, Note_on_c, 0, 38, 127
2, 67968, Note_off_c, 0, 38, 88
2, 67968, Note_on_c, 0, 38, 127
2, 68123, Note_off_c, 0, 38, 63
2, 68160, Note_on_c, 0, 33, 127
2, 68352, Note_off_c, 0, 33, 48
2, 68352, Note_on_c, 0, 35, 127
2, 68736, Note_off_c, 0, 35, 57
2, 68736, Note_on_c, 0, 35, 127
2, 68832, Note_off_c, 0, 35, 86
2, 68928, Note_on_c, 0, 26, 127
2, 69120, Note_on_c, 0, 28, 127
2, 69141, Note_off_c, 0, 26, 83
2, 69504, Note_off_c, 0, 28, 62
2, 69504, Note_on_c, 0, 28, 127
2, 69588, Note_off_c, 0, 28, 94
2, 69696, Note_on_c, 0, 26, 127
2, 69888, Note_off_c, 0, 26, 92
2, 69888, Note_on_c, 0, 33, 127
2, 70272, Note_off_c, 0, 33, 75
2, 70272, Note_on_c, 0, 37, 127
2, 70464, Note_off_c, 0, 37, 55
2, 70464, Note_on_c, 0, 38, 127
2, 70656, Note_off_c, 0, 38, 73
2, 70656, Note_on_c, 0, 31, 123
2, 71040, Note_off_c, 0, 31, 84
2, 71040, Note_on_c, 0, 31, 127
2, 71168, Note_off_c, 0, 31, 64
2, 71232, Note_on_c, 0, 43, 127
2, 71616, Note_off_c, 0, 43, 127
2, 71616, Note_on_c, 0, 43, 127
2, 71808, Note_off_c, 0, 43, 64
2, 71808, Note_on_c, 0, 43, 127
2, 72000, Note_off_c, 0, 43, 64
2, 72000, Note_on_c, 0, 43, 127
2, 72192, Note_off_c, 0, 43, 64
2, 72192, Note_on_c, 0, 31, 127
2, 72768, Note_off_c, 0, 31, 64
2, 72768, Note_on_c, 0, 30, 127
2, 73344, Note_off_c, 0, 30, 64
2, 73344, Note_on_c, 0, 28, 127
2, 73728, Note_off_c, 0, 28, 64
2, 73728, Note_on_c, 0, 26, 127
2, 79872, Note_off_c, 0, 26, 64
2, 90624, Note_on_c, 0, 38, 106
2, 90706, Note_off_c, 0, 38, 68
2, 90816, Note_on_c, 0, 38, 107
2, 90896, Note_off_c, 0, 38, 70
2, 91008, Note_on_c, 0, 38, 127
2, 91078, Note_off_c, 0, 38, 86
2, 91200, Note_on_c, 0, 38, 127
2, 91274, Note_off_c, 0, 38, 82
2, 91392, Note_on_c, 0, 38, 127
2, 91478, Note_off_c, 0, 38, 94
2, 91584, Note_on_c, 0, 38, 127
2, 91670, Note_off_c, 0, 38, 102
2, 91776, Note_on_c, 0, 38, 127
2, 91863, Note_off_c, 0, 38, 106
2, 91968, Note_on_c, 0, 38, 127
2, 92065, Note_off_c, 0, 38, 101
2, 92160, Note_on_c, 0, 36, 127
2, 92239, Note_off_c, 0, 36, 101
2, 92352, Note_on_c, 0, 36, 127
2, 92423, Note_off_c, 0, 36, 93
2, 92544, Note_on_c, 0, 36, 127
2, 92627, Note_off_c, 0, 36, 97
2, 92736, Note_on_c, 0, 35, 127
2, 92816, Note_off_c, 0, 35, 104
2, 92928, Note_on_c, 0, 35, 127
2, 92998, Note_off_c, 0, 35, 112
2, 93120, Note_on_c, 0, 35, 127
2, 93211, Note_off_c, 0, 35, 101
2, 93312, Note_on_c, 0, 36, 127
2, 93594, Note_off_c, 0, 36, 127
2, 93696, Note_on_c, 0, 38, 127
2, 94272, Note_off_c, 0, 38, 70
2, 94272, Note_on_c, 0, 38, 127
2, 94656, Note_off_c, 0, 38, 70
2, 94656, Note_on_c, 0, 33, 127
2, 94848, Note_off_c, 0, 33, 78
2, 94848, Note_on_c, 0, 38, 127
2, 94944, Note_off_c, 0, 38, 97
2, 94944, Note_on_c, 0, 33, 127
2, 95040, Note_off_c, 0, 33, 85
2, 95040, Note_on_c, 0, 38, 127
2, 95232, Note_off_c, 0, 38, 79
2, 95232, Note_on_c, 0, 36, 127
2, 95808, Note_off_c, 0, 36, 68
2, 95808, Note_on_c, 0, 35, 127
2, 96384, Note_off_c, 0, 35, 66
2, 96384, Note_on_c, 0, 36, 127
2, 96768, Note_off_c, 0, 36, 72
2, 96768, Note_on_c, 0, 38, 127
2, 97248, Note_off_c, 0, 38, 72
2, 97344, Note_on_c, 0, 38, 127
2, 97632, Note_off_c, 0, 38, 69
2, 97632, Note_on_c, 0, 33, 126
2, 97728, Note_off_c, 0, 33, 90
2, 97728, Note_on_c, 0, 38, 127
2, 97920, Note_off_c, 0, 38, 96
2, 97920, Note_on_c, 0, 33, 127
2, 98112, Note_off_c, 0, 33, 44
2, 98112, Note_on_c, 0, 35, 127
2, 98304, Note_off_c, 0, 35, 64
2, 98304, Note_on_c, 0, 36, 127
2, 98880, Note_off_c, 0, 36, 76
2, 98880, Note_on_c, 0, 35, 127
2, 99264, Note_off_c, 0, 35, 63
2, 99264, Note_on_c, 0, 35, 127
2, 99456, Note_off_c, 0, 35, 63
2, 99456, Note_on_c, 0, 36, 127
2, 99552, Note_off_c, 0, 36, 63
2, 99552, Note_on_c, 0, 35, 127
2, 99648, Note_off_c, 0, 35, 63
2, 99648, Note_on_c, 0, 31, 127
2, 99840, Note_off_c, 0, 31, 63
2, 99840, Note_on_c, 0, 38, 127
2, 100032, Note_off_c, 0, 38, 96
2, 100128, Note_on_c, 0, 33, 127
2, 100224, Note_off_c, 0, 33, 57
2, 100224, Note_on_c, 0, 38, 127
2, 100320, Note_off_c, 0, 38, 77
2, 100416, Note_on_c, 0, 43, 126
2, 100800, Note_off_c, 0, 43, 62
2, 100800, Note_on_c, 0, 42, 127
2, 100992, Note_off_c, 0, 42, 67
2, 100992, Note_on_c, 0, 40, 127
2, 101088, Note_off_c, 0, 40, 76
2, 101088, Note_on_c, 0, 42, 127
2, 101184, Note_off_c, 0, 42, 87
2, 101184, Note_on_c, 0, 38, 127
2, 101376, Note_off_c, 0, 38, 127
2, 101376, Note_on_c, 0, 36, 127
2, 101952, Note_off_c, 0, 36, 91
2, 101952, Note_on_c, 0, 35, 127
2, 102336, Note_off_c, 0, 35, 58
2, 102336, Note_on_c, 0, 35, 127
2, 102528, Note_off_c, 0, 35, 58
2, 102528, Note_on_c, 0, 36, 127
2, 102624, Note_off_c, 0, 36, 65
2, 102624, Note_on_c, 0, 35, 127
2, 102720, Note_off_c, 0, 35, 65
2, 102720, Note_on_c, 0, 36, 127
2, 102912, Note_off_c, 0, 36, 65
2, 102912, Note_on_c, 0, 38, 127
2, 103296, Note_off_c, 0, 38, 68
2, 103488, Note_on_c, 0, 38, 127
2, 103776, Note_off_c, 0, 38, 96
2, 103776, Note_on_c, 0, 33, 127
2, 103872, Note_off_c, 0, 33, 77
2, 103872, Note_on_c, 0, 38, 127
2, 104064, Note_off_c, 0, 38, 77
2, 104064, Note_on_c, 0, 33, 127
2, 104256, Note_off_c, 0, 33, 127
2, 104256, Note_on_c, 0, 35, 127
2, 104448, Note_off_c, 0, 35, 102
2, 104448, Note_on_c, 0, 36, 127
2, 105984, Note_on_c, 0, 35, 127
2, 106000, Note_off_c, 0, 36, 64
2, 107520, Note_on_c, 0, 33, 127
2, 107520, Note_on_c, 0, 30, 116
2, 107536, Note_off_c, 0, 35, 64
2, 107648, Note_off_c, 0, 30, 99
2, 108288, Note_off_c, 0, 33, 80
2, 108288, Note_on_c, 0, 31, 127
2, 108576, Note_off_c, 0, 31, 91
2, 108672, Note_on_c, 0, 35, 127
2, 108864, Note_off_c, 0, 35, 55
2, 108864, Note_on_c, 0, 36, 127
2, 109056, Note_off_c, 0, 36, 55
2, 109056, Note_on_c, 0, 38, 127
2, 109139, Note_off_c, 0, 38, 83
2, 109248, Note_on_c, 0, 38, 127
2, 109323, Note_off_c, 0, 38, 84
2, 109440, Note_on_c, 0, 38, 127
2, 109517, Note_off_c, 0, 38, 83
2, 109632, Note_on_c, 0, 38, 127
2, 109705, Note_off_c, 0, 38, 86
2, 109824, Note_on_c, 0, 38, 127
2, 109900, Note_off_c, 0, 38, 86
2, 109920, Note_on_c, 0, 33, 102
2, 109994, Note_off_c, 0, 33, 80
2, 110016, Note_on_c, 0, 38, 127
2, 110087, Note_off_c, 0, 38, 88
2, 110208, Note_on_c, 0, 38, 127
2, 110279, Note_off_c, 0, 38, 88
2, 110400, Note_on_c, 0, 38, 127
2, 110517, Note_off_c, 0, 38, 65
2, 110592, Note_on_c, 0, 45, 116
2, 110688, Note_on_c, 0, 38, 126
2, 110717, Note_off_c, 0, 45, 79
2, 110770, Note_off_c, 0, 38, 88
2, 110880, Note_on_c, 0, 38, 127
2, 110975, Note_off_c, 0, 38, 85
2, 110976, Note_on_c, 0, 45, 116
2, 111072, Note_on_c, 0, 38, 123
2, 111088, Note_off_c, 0, 45, 80
2, 111152, Note_off_c, 0, 38, 85
2, 111264, Note_on_c, 0, 38, 124
2, 111347, Note_off_c, 0, 38, 80
2, 111360, Note_on_c, 0, 45, 116
2, 111456, Note_on_c, 0, 38, 121
2, 111477, Note_off_c, 0, 45, 59
2, 111538, Note_off_c, 0, 38, 85
2, 111648, Note_on_c, 0, 38, 120
2, 111732, Note_off_c, 0, 38, 82
2, 111744, Note_on_c, 0, 45, 116
2, 111840, Note_on_c, 0, 38, 123
2, 111852, Note_off_c, 0, 45, 90
2, 111936, Note_off_c, 0, 38, 91
2, 111936, Note_on_c, 0, 33, 124
2, 112032, Note_on_c, 0, 30, 127
2, 112067, Note_off_c, 0, 33, 71
2, 112095, Note_off_c, 0, 30, 105
2, 112128, Note_on_c, 0, 31, 127
2, 112512, Note_off_c, 0, 31, 82
2, 112512, Note_on_c, 0, 31, 127
2, 112704, Note_off_c, 0, 31, 83
2, 112704, Note_on_c, 0, 31, 127
2, 112800, Control_c, 0, 84, 31
2, 112888, Note_on_c, 0, 36, 127
2, 112896, Note_off_c, 0, 31, 83
2, 112942, Note_off_c, 0, 36, 84
2, 113088, Note_on_c, 0, 36, 127
2, 113184, Note_off_c, 0, 36, 85
2, 113280, Note_on_c, 0, 36, 127
2, 113568, Note_off_c, 0, 36, 72
2, 113664, Note_on_c, 0, 40, 127
2, 113856, Note_off_c, 0, 40, 76
2, 113952, Note_on_c, 0, 35, 123
2, 114048, Note_off_c, 0, 35, 64
2, 114048, Note_on_c, 0, 40, 127
2, 114144, Note_off_c, 0, 40, 96
2, 114240, Note_on_c, 0, 40, 127
2, 114432, Note_off_c, 0, 40, 72
2, 114528, Note_on_c, 0, 36, 127
2, 114624, Note_off_c, 0, 36, 76
2, 114624, Note_on_c, 0, 38, 127
2, 114720, Note_off_c, 0, 38, 76
2, 114720, Note_on_c, 0, 38, 127
2, 114816, Note_off_c, 0, 38, 76
2, 114816, Note_on_c, 0, 38, 127
2, 115008, Note_off_c, 0, 38, 76
2, 115008, Note_on_c, 0, 36, 127
2, 115200, Note_off_c, 0, 36, 72
2, 115200, Note_on_c, 0, 31, 127
2, 115584, Note_off_c, 0, 31, 82
2, 115584, Note_on_c, 0, 31, 127
2, 115776, Note_off_c, 0, 31, 83
2, 115776, Note_on_c, 0, 31, 127
2, 115872, Control_c, 0, 84, 31
2, 115960, Note_on_c, 0, 36, 127
2, 115968, Note_off_c, 0, 31, 83
2, 116014, Note_off_c, 0, 36, 84
2, 116160, Note_on_c, 0, 36, 127
2, 116256, Note_off_c, 0, 36, 85
2, 116352, Note_on_c, 0, 36, 127
2, 116640, Note_off_c, 0, 36, 72
2, 116736, Note_on_c, 0, 40, 127
2, 116928, Note_off_c, 0, 40, 76
2, 117024, Note_on_c, 0, 35, 123
2, 117120, Note_off_c, 0, 35, 64
2, 117120, Note_on_c, 0, 40, 127
2, 117216, Note_off_c, 0, 40, 96
2, 117312, Note_on_c, 0, 40, 127
2, 117504, Note_off_c, 0, 40, 72
2, 117600, Note_on_c, 0, 36, 127
2, 117696, Note_off_c, 0, 36, 76
2, 117696, Note_on_c, 0, 38, 127
2, 117792, Note_off_c, 0, 38, 76
2, 117792, Note_on_c, 0, 38, 127
2, 117888, Note_off_c, 0, 38, 76
2, 117888, Note_on_c, 0, 38, 127
2, 118080, Note_off_c, 0, 38, 76
2, 118080, Note_on_c, 0, 36, 127
2, 118272, Note_off_c, 0, 36, 72
2, 118272, Note_on_c, 0, 31, 127
2, 118656, Note_off_c, 0, 31, 82
2, 118656, Note_on_c, 0, 31, 127
2, 118848, Note_off_c, 0, 31, 83
2, 118848, Note_on_c, 0, 31, 127
2, 118944, Control_c, 0, 84, 31
2, 119032, Note_on_c, 0, 36, 127
2, 119040, Note_off_c, 0, 31, 83
2, 119086, Note_off_c, 0, 36, 84
2, 119232, Note_on_c, 0, 36, 127
2, 119328, Note_off_c, 0, 36, 85
2, 119424, Note_on_c, 0, 36, 127
2, 119712, Note_off_c, 0, 36, 72
2, 119808, Note_on_c, 0, 40, 127
2, 120000, Note_off_c, 0, 40, 76
2, 120096, Note_on_c, 0, 35, 123
2, 120192, Note_off_c, 0, 35, 64
2, 120192, Note_on_c, 0, 40, 127
2, 120288, Note_off_c, 0, 40, 96
2, 120384, Note_on_c, 0, 40, 127
2, 120576, Note_off_c, 0, 40, 72
2, 120672, Note_on_c, 0, 36, 127
2, 120768, Note_off_c, 0, 36, 76
2, 120768, Note_on_c, 0, 38, 127
2, 120864, Note_off_c, 0, 38, 76
2, 120864, Note_on_c, 0, 38, 127
2, 120960, Note_off_c, 0, 38, 76
2, 120960, Note_on_c, 0, 38, 127
2, 121152, Note_off_c, 0, 38, 76
2, 121152, Note_on_c, 0, 30, 127
2, 121344, Note_off_c, 0, 30, 72
2, 121344, Note_on_c, 0, 31, 127
2, 121728, Note_off_c, 0, 31, 82
2, 121728, Note_on_c, 0, 31, 127
2, 121920, Note_off_c, 0, 31, 83
2, 121920, Note_on_c, 0, 31, 127
2, 122016, Control_c, 0, 84, 31
2, 122104, Note_on_c, 0, 36, 127
2, 122112, Note_off_c, 0, 31, 83
2, 122158, Note_off_c, 0, 36, 84
2, 122304, Note_on_c, 0, 36, 127
2, 122400, Note_off_c, 0, 36, 85
2, 122496, Note_on_c, 0, 36, 127
2, 122784, Note_off_c, 0, 36, 72
2, 122880, Note_on_c, 0, 40, 127
2, 123072, Note_off_c, 0, 40, 76
2, 123168, Note_on_c, 0, 35, 123
2, 123264, Note_off_c, 0, 35, 64
2, 123264, Note_on_c, 0, 40, 127
2, 123360, Note_off_c, 0, 40, 96
2, 123456, Note_on_c, 0, 40, 127
2, 123648, Note_off_c, 0, 40, 72
2, 123744, Note_on_c, 0, 36, 127
2, 123840, Note_off_c, 0, 36, 76
2, 123840, Note_on_c, 0, 38, 127
2, 123936, Note_off_c, 0, 38, 76
2, 123936, Note_on_c, 0, 38, 127
2, 124032, Note_off_c, 0, 38, 76
2, 124032, Note_on_c, 0, 38, 127
2, 124224, Note_off_c, 0, 38, 76
2, 124224, Note_on_c, 0, 30, 127
2, 124416, Note_off_c, 0, 30, 72
2, 124416, Note_on_c, 0, 31, 127
2, 124800, Note_off_c, 0, 31, 82
2, 124800, Note_on_c, 0, 31, 127
2, 124992, Note_off_c, 0, 31, 83
2, 124992, Note_on_c, 0, 31, 127
2, 125088, Control_c, 0, 84, 31
2, 125176, Note_on_c, 0, 36, 127
2, 125184, Note_off_c, 0, 31, 83
2, 125230, Note_off_c, 0, 36, 84
2, 125376, Note_on_c, 0, 36, 127
2, 125472, Note_off_c, 0, 36, 85
2, 125568, Note_on_c, 0, 36, 127
2, 125856, Note_off_c, 0, 36, 72
2, 125952, Note_on_c, 0, 40, 127
2, 126144, Note_off_c, 0, 40, 76
2, 126240, Note_on_c, 0, 35, 123
2, 126336, Note_off_c, 0, 35, 64
2, 126336, Note_on_c, 0, 40, 127
2, 126432, Note_off_c, 0, 40, 96
2, 126528, Note_on_c, 0, 40, 127
2, 126720, Note_off_c, 0, 40, 72
2, 126816, Note_on_c, 0, 36, 127
2, 126912, Note_off_c, 0, 36, 76
2, 126912, Note_on_c, 0, 38, 127
2, 127008, Note_off_c, 0, 38, 76
2, 127008, Note_on_c, 0, 38, 127
2, 127104, Note_off_c, 0, 38, 76
2, 127104, Note_on_c, 0, 38, 127
2, 127296, Note_off_c, 0, 38, 76
2, 127296, Note_on_c, 0, 36, 127
2, 127488, Note_off_c, 0, 36, 72
2, 127488, Note_on_c, 0, 31, 127
2, 127872, Note_off_c, 0, 31, 82
2, 127872, Note_on_c, 0, 31, 127
2, 128064, Note_off_c, 0, 31, 83
2, 128064, Note_on_c, 0, 31, 127
2, 128160, Control_c, 0, 84, 31
2, 128248, Note_on_c, 0, 36, 127
2, 128256, Note_off_c, 0, 31, 83
2, 128302, Note_off_c, 0, 36, 84
2, 128448, Note_on_c, 0, 36, 127
2, 128544, Note_off_c, 0, 36, 85
2, 128640, Note_on_c, 0, 36, 127
2, 128928, Note_off_c, 0, 36, 72
2, 129024, Note_on_c, 0, 40, 127
2, 129216, Note_off_c, 0, 40, 76
2, 129312, Note_on_c, 0, 35, 123
2, 129408, Note_off_c, 0, 35, 64
2, 129408, Note_on_c, 0, 40, 127
2, 129504, Note_off_c, 0, 40, 96
2, 129600, Note_on_c, 0, 40, 127
2, 129792, Note_off_c, 0, 40, 72
2, 129984, Note_on_c, 0, 38, 127
2, 130176, Note_off_c, 0, 38, 76
2, 130272, Note_on_c, 0, 38, 127
2, 130464, Note_off_c, 0, 38, 76
2, 130560, Note_on_c, 0, 31, 127
2, 130944, Note_off_c, 0, 31, 82
2, 130944, Note_on_c, 0, 31, 127
2, 131136, Note_off_c, 0, 31, 83
2, 131136, Note_on_c, 0, 31, 127
2, 131232, Control_c, 0, 84, 31
2, 131320, Note_on_c, 0, 36, 127
2, 131328, Note_off_c, 0, 31, 83
2, 131374, Note_off_c, 0, 36, 84
2, 131520, Note_on_c, 0, 36, 127
2, 131616, Note_off_c, 0, 36, 85
2, 131712, Note_on_c, 0, 36, 127
2, 132000, Note_off_c, 0, 36, 72
2, 132096, Note_on_c, 0, 40, 127
2, 132288, Note_off_c, 0, 40, 76
2, 132384, Note_on_c, 0, 35, 123
2, 132480, Note_off_c, 0, 35, 64
2, 132480, Note_on_c, 0, 40, 127
2, 132576, Note_off_c, 0, 40, 96
2, 132672, Note_on_c, 0, 40, 127
2, 132864, Note_off_c, 0, 40, 72
2, 132960, Note_on_c, 0, 36, 127
2, 133056, Note_off_c, 0, 36, 76
2, 133056, Note_on_c, 0, 38, 127
2, 133152, Note_off_c, 0, 38, 76
2, 133152, Note_on_c, 0, 38, 127
2, 133248, Note_off_c, 0, 38, 76
2, 133248, Note_on_c, 0, 38, 127
2, 133440, Note_off_c, 0, 38, 76
2, 133440, Note_on_c, 0, 38, 108
2, 133536, Note_off_c, 0, 38, 64
2, 133632, Note_on_c, 0, 31, 127
2, 134016, Note_off_c, 0, 31, 82
2, 134016, Note_on_c, 0, 31, 127
2, 134208, Note_off_c, 0, 31, 83
2, 134208, Note_on_c, 0, 31, 127
2, 134304, Control_c, 0, 84, 31
2, 134392, Note_on_c, 0, 36, 127
2, 134400, Note_off_c, 0, 31, 83
2, 134446, Note_off_c, 0, 36, 84
2, 134592, Note_on_c, 0, 36, 127
2, 134688, Note_off_c, 0, 36, 85
2, 134784, Note_on_c, 0, 36, 127
2, 135072, Note_off_c, 0, 36, 72
2, 135168, Note_on_c, 0, 40, 127
2, 135216, Control_c, 0, 11, 120
2, 135360, Note_off_c, 0, 40, 76
2, 135456, Note_on_c, 0, 35, 123
2, 135544, Control_c, 0, 11, 115
2, 135552, Note_off_c, 0, 35, 64
2, 135552, Note_on_c, 0, 40, 127
2, 135648, Note_off_c, 0, 40, 96
2, 135744, Note_on_c, 0, 40, 127
2, 135936, Control_c, 0, 11, 110
2, 136032, Note_off_c, 0, 40, 72
2, 136128, Note_on_c, 0, 38, 127
2, 136312, Control_c, 0, 11, 105
2, 136416, Note_off_c, 0, 38, 76
2, 136512, Note_on_c, 0, 36, 127
2, 136704, Note_off_c, 0, 36, 72
2, 136704, Note_on_c, 0, 31, 127
2, 136704, Control_c, 0, 11, 100
2, 137088, Note_off_c, 0, 31, 82
2, 137088, Note_on_c, 0, 31, 127
2, 137088, Control_c, 0, 11, 95
2, 137280, Note_off_c, 0, 31, 83
2, 137280, Note_on_c, 0, 31, 127
2, 137376, Control_c, 0, 84, 31
2, 137464, Note_on_c, 0, 36, 127
2, 137464, Control_c, 0, 11, 90
2, 137472, Note_off_c, 0, 31, 83
2, 137518, Note_off_c, 0, 36, 84
2, 137664, Note_on_c, 0, 36, 127
2, 137760, Note_off_c, 0, 36, 85
2, 137856, Note_on_c, 0, 36, 127
2, 137864, Control_c, 0, 11, 85
2, 138144, Note_off_c, 0, 36, 72
2, 138240, Note_on_c, 0, 28, 127
2, 138248, Control_c, 0, 11, 80
2, 138432, Note_off_c, 0, 28, 76
2, 138528, Note_on_c, 0, 28, 123
2, 138616, Control_c, 0, 11, 75
2, 138624, Note_off_c, 0, 28, 64
2, 138624, Note_on_c, 0, 28, 127
2, 138720, Note_off_c, 0, 28, 96
2, 138816, Note_on_c, 0, 28, 127
2, 139000, Control_c, 0, 11, 70
2, 139008, Note_off_c, 0, 28, 72
2, 139104, Note_on_c, 0, 26, 127
2, 139200, Note_off_c, 0, 26, 76
2, 139200, Note_on_c, 0, 26, 127
2, 139296, Note_off_c, 0, 26, 76
2, 139296, Note_on_c, 0, 26, 127
2, 139392, Note_off_c, 0, 26, 76
2, 139392, Note_on_c, 0, 26, 127
2, 139392, Control_c, 0, 11, 65
2, 139584, Note_off_c, 0, 26, 76
2, 139584, Note_on_c, 0, 28, 127
2, 139776, Note_off_c, 0, 28, 72
2, 139776, Note_on_c, 0, 31, 127
2, 139784, Control_c, 0, 11, 60
2, 140160, Note_off_c, 0, 31, 82
2, 140160, Note_on_c, 0, 31, 127
2, 140160, Control_c, 0, 11, 55
2, 140352, Note_off_c, 0, 31, 83
2, 140352, Note_on_c, 0, 31, 127
2, 140448, Control_c, 0, 84, 31
2, 140536, Note_on_c, 0, 36, 127
2, 140536, Control_c, 0, 11, 50
2, 140544, Note_off_c, 0, 31, 83
2, 140590, Note_off_c, 0, 36, 84
2, 140736, Note_on_c, 0, 36, 127
2, 140832, Note_off_c, 0, 36, 85
2, 140928, Note_on_c, 0, 36, 127
2, 140936, Control_c, 0, 11, 45
2, 141216, Note_off_c, 0, 36, 72
2, 141312, Note_on_c, 0, 28, 127
2, 141312, Control_c, 0, 11, 40
2, 141504, Note_off_c, 0, 28, 76
2, 141600, Note_on_c, 0, 28, 123
2, 141696, Note_off_c, 0, 28, 64
2, 141696, Note_on_c, 0, 28, 127
2, 141696, Control_c, 0, 11, 35
2, 141792, Note_off_c, 0, 28, 96
2, 141888, Note_on_c, 0, 28, 127
2, 142072, Control_c, 0, 11, 30
2, 142080, Note_off_c, 0, 28, 72
2, 142176, Note_on_c, 0, 26, 127
2, 142272, Note_off_c, 0, 26, 76
2, 142272, Note_on_c, 0, 26, 127
2, 142368, Note_off_c, 0, 26, 76
2, 142368, Note_on_c, 0, 26, 127
2, 142464, Note_off_c, 0, 26, 76
2, 142464, Note_on_c, 0, 26, 127
2, 142472, Control_c, 0, 11, 25
2, 142656, Note_off_c, 0, 26, 76
2, 142656, Note_on_c, 0, 26, 127
2, 142840, Control_c, 0, 11, 20
2, 142848, Note_off_c, 0, 26, 72
2, 142848, Note_on_c, 0, 31, 127
2, 143232, Note_off_c, 0, 31, 82
2, 143232, Note_on_c, 0, 31, 127
2, 143232, Control_c, 0, 11, 15
2, 143424, Note_off_c, 0, 31, 83
2, 143424, Note_on_c, 0, 31, 127
2, 143520, Control_c, 0, 84, 31
2, 143608, Note_on_c, 0, 36, 127
2, 143616, Note_off_c, 0, 31, 83
2, 143616, Control_c, 0, 11, 10
2, 143662, Note_off_c, 0, 36, 84
2, 143808, Note_on_c, 0, 36, 127
2, 143904, Note_off_c, 0, 36, 85
2, 143992, Control_c, 0, 11, 5
2, 144344, Control_c, 0, 11, 0
2, 144384, Control_c, 0, 11, 127
2, 145920, End_track
3, 0, Start_track
3, 0, Title_t, "12String"
3, 616, Control_c, 1, 121, 0
3, 688, Control_c, 1, 0, 8
3, 768, Program_c, 1, 25
3, 840, Control_c, 1, 32, 0
3, 888, Control_c, 1, 7, 127
3, 936, Control_c, 1, 10, 64
3, 1008, Control_c, 1, 1, 0
3, 1104, Control_c, 1, 91, 127
3, 1200, Control_c, 1, 93, 50
3, 1296, Control_c, 1, 2, 0
3, 1536, Note_on_c, 1, 50, 107
3, 1728, Note_on_c, 1, 62, 107
3, 1920, Note_on_c, 1, 57, 107
3, 2112, Note_off_c, 1, 62, 43
3, 2112, Note_on_c, 1, 67, 107
3, 2496, Note_off_c, 1, 67, 36
3, 2496, Note_off_c, 1, 57, 57
3, 2496, Note_on_c, 1, 66, 107
3, 2688, Note_on_c, 1, 62, 107
3, 2880, Note_off_c, 1, 66, 47
3, 2880, Note_off_c, 1, 50, 55
3, 2880, Note_on_c, 1, 45, 105
3, 3072, Note_off_c, 1, 45, 63
3, 3072, Note_off_c, 1, 62, 48
3, 3072, Note_on_c, 1, 48, 105
3, 3264, Note_on_c, 1, 55, 107
3, 3456, Note_on_c, 1, 62, 107
3, 3648, Note_off_c, 1, 55, 53
3, 3648, Note_off_c, 1, 48, 26
3, 3648, Note_on_c, 1, 47, 109
3, 3840, Note_off_c, 1, 62, 54
3, 3840, Note_on_c, 1, 55, 110
3, 4032, Note_on_c, 1, 62, 112
3, 4224, Note_off_c, 1, 55, 45
3, 4224, Note_off_c, 1, 47, 61
3, 4224, Note_on_c, 1, 43, 114
3, 4416, Note_off_c, 1, 62, 70
3, 4416, Note_on_c, 1, 62, 112
3, 4512, Note_off_c, 1, 43, 72
3, 4608, Note_off_c, 1, 62, 72
3, 4608, Note_on_c, 1, 50, 107
3, 4800, Note_on_c, 1, 62, 107
3, 4992, Note_on_c, 1, 57, 107
3, 5184, Note_off_c, 1, 62, 43
3, 5184, Note_on_c, 1, 67, 107
3, 5568, Note_off_c, 1, 67, 36
3, 5568, Note_off_c, 1, 57, 57
3, 5568, Note_on_c, 1, 66, 107
3, 5760, Note_on_c, 1, 62, 107
3, 5952, Note_off_c, 1, 66, 47
3, 5952, Note_off_c, 1, 50, 55
3, 5952, Note_on_c, 1, 45, 105
3, 6144, Note_off_c, 1, 45, 63
3, 6144, Note_off_c, 1, 62, 48
3, 6144, Note_on_c, 1, 48, 105
3, 6336, Note_on_c, 1, 55, 107
3, 6528, Note_on_c, 1, 62, 107
3, 6720, Note_off_c, 1, 55, 53
3, 6720, Note_off_c, 1, 48, 26
3, 6720, Note_on_c, 1, 47, 109
3, 6912, Note_off_c, 1, 62, 54
3, 6912, Note_on_c, 1, 55, 110
3, 7104, Note_on_c, 1, 62, 112
3, 7296, Note_off_c, 1, 55, 45
3, 7296, Note_off_c, 1, 47, 61
3, 7296, Note_on_c, 1, 43, 114
3, 7488, Note_off_c, 1, 62, 70
3, 7488, Note_on_c, 1, 62, 112
3, 7584, Note_off_c, 1, 43, 72
3, 7680, Note_off_c, 1, 62, 72
3, 7680, Note_on_c, 1, 50, 107
3, 7872, Note_on_c, 1, 62, 107
3, 8064, Note_on_c, 1, 57, 107
3, 8256, Note_off_c, 1, 62, 43
3, 8256, Note_on_c, 1, 67, 107
3, 8640, Note_off_c, 1, 67, 36
3, 8640, Note_off_c, 1, 57, 57
3, 8640, Note_on_c, 1, 66, 107
3, 8832, Note_on_c, 1, 62, 107
3, 9024, Note_off_c, 1, 66, 47
3, 9024, Note_off_c, 1, 50, 55
3, 9024, Note_on_c, 1, 45, 105
3, 9216, Note_off_c, 1, 45, 63
3, 9216, Note_off_c, 1, 62, 48
3, 9216, Note_on_c, 1, 48, 105
3, 9408, Note_on_c, 1, 55, 107
3, 9600, Note_on_c, 1, 62, 107
3, 9792, Note_off_c, 1, 55, 53
3, 9792, Note_off_c, 1, 48, 26
3, 9792, Note_on_c, 1, 47, 109
3, 9984, Note_off_c, 1, 62, 54
3, 9984, Note_on_c, 1, 55, 110
3, 10176, Note_on_c, 1, 62, 112
3, 10368, Note_off_c, 1, 55, 45
3, 10368, Note_off_c, 1, 47, 61
3, 10368, Note_on_c, 1, 43, 114
3, 10560, Note_off_c, 1, 62, 70
3, 10560, Note_on_c, 1, 62, 112
3, 10656, Note_off_c, 1, 43, 72
3, 10752, Note_off_c, 1, 62, 72
3, 10752, Note_on_c, 1, 50, 107
3, 10944, Note_on_c, 1, 62, 107
3, 11136, Note_on_c, 1, 57, 107
3, 11328, Note_off_c, 1, 62, 43
3, 11328, Note_on_c, 1, 67, 107
3, 11712, Note_off_c, 1, 67, 36
3, 11712, Note_off_c, 1, 57, 57
3, 11712, Note_on_c, 1, 66, 107
3, 11904, Note_on_c, 1, 62, 107
3, 12096, Note_off_c, 1, 66, 47
3, 12096, Note_off_c, 1, 50, 55
3, 12096, Note_on_c, 1, 45, 105
3, 12288, Note_off_c, 1, 45, 63
3, 12288, Note_off_c, 1, 62, 48
3, 12288, Note_on_c, 1, 48, 105
3, 12480, Note_on_c, 1, 55, 107
3, 12672, Note_on_c, 1, 62, 107
3, 12864, Note_off_c, 1, 55, 53
3, 12864, Note_off_c, 1, 48, 26
3, 12864, Note_on_c, 1, 47, 109
3, 13056, Note_off_c, 1, 62, 54
3, 13056, Note_on_c, 1, 55, 110
3, 13248, Note_on_c, 1, 62, 112
3, 13440, Note_off_c, 1, 55, 45
3, 13440, Note_off_c, 1, 47, 61
3, 13440, Note_on_c, 1, 43, 114
3, 13632, Note_off_c, 1, 62, 70
3, 13632, Note_on_c, 1, 62, 112
3, 13728, Note_off_c, 1, 43, 72
3, 13824, Note_off_c, 1, 62, 72
3, 13824, Note_on_c, 1, 50, 107
3, 14016, Note_on_c, 1, 62, 107
3, 14208, Note_on_c, 1, 57, 107
3, 14400, Note_off_c, 1, 62, 43
3, 14400, Note_on_c, 1, 67, 107
3, 14784, Note_off_c, 1, 67, 36
3, 14784, Note_off_c, 1, 57, 57
3, 14784, Note_on_c, 1, 66, 107
3, 14976, Note_on_c, 1, 62, 107
3, 15168, Note_off_c, 1, 66, 47
3, 15168, Note_off_c, 1, 50, 55
3, 15168, Note_on_c, 1, 45, 105
3, 15360, Note_off_c, 1, 45, 63
3, 15360, Note_off_c, 1, 62, 48
3, 15360, Note_on_c, 1, 48, 105
3, 15552, Note_on_c, 1, 55, 107
3, 15744, Note_on_c, 1, 62, 107
3, 15936, Note_off_c, 1, 55, 53
3, 15936, Note_off_c, 1, 48, 26
3, 15936, Note_on_c, 1, 47, 109
3, 16128, Note_off_c, 1, 62, 54
3, 16128, Note_on_c, 1, 55, 110
3, 16320, Note_on_c, 1, 62, 112
3, 16512, Note_off_c, 1, 55, 45
3, 16512, Note_off_c, 1, 47, 61
3, 16512, Note_on_c, 1, 43, 114
3, 16704, Note_off_c, 1, 62, 70
3, 16704, Note_on_c, 1, 62, 112
3, 16800, Note_off_c, 1, 43, 72
3, 16896, Note_off_c, 1, 62, 72
3, 16896, Note_on_c, 1, 50, 107
3, 17088, Note_on_c, 1, 62, 107
3, 17280, Note_on_c, 1, 57, 107
3, 17472, Note_off_c, 1, 62, 43
3, 17472, Note_on_c, 1, 67, 107
3, 17856, Note_off_c, 1, 67, 36
3, 17856, Note_off_c, 1, 57, 57
3, 17856, Note_on_c, 1, 66, 107
3, 18048, Note_on_c, 1, 62, 107
3, 18240, Note_off_c, 1, 66, 47
3, 18240, Note_off_c, 1, 50, 55
3, 18240, Note_on_c, 1, 45, 105
3, 18432, Note_off_c, 1, 45, 63
3, 18432, Note_off_c, 1, 62, 48
3, 18432, Note_on_c, 1, 48, 105
3, 18624, Note_on_c, 1, 55, 107
3, 18816, Note_on_c, 1, 62, 107
3, 19008, Note_off_c, 1, 55, 53
3, 19008, Note_off_c, 1, 48, 26
3, 19008, Note_on_c, 1, 47, 109
3, 19200, Note_off_c, 1, 62, 54
3, 19200, Note_on_c, 1, 55, 110
3, 19392, Note_on_c, 1, 62, 112
3, 19584, Note_off_c, 1, 55, 45
3, 19584, Note_off_c, 1, 47, 61
3, 19584, Note_on_c, 1, 43, 114
3, 19776, Note_off_c, 1, 62, 70
3, 19776, Note_on_c, 1, 62, 112
3, 19872, Note_off_c, 1, 43, 72
3, 19968, Note_off_c, 1, 62, 72
3, 19968, Note_on_c, 1, 50, 107
3, 20160, Note_on_c, 1, 62, 107
3, 20352, Note_on_c, 1, 57, 107
3, 20544, Note_off_c, 1, 62, 43
3, 20544, Note_on_c, 1, 67, 107
3, 20928, Note_off_c, 1, 67, 36
3, 20928, Note_off_c, 1, 57, 57
3, 20928, Note_on_c, 1, 66, 107
3, 21120, Note_on_c, 1, 62, 107
3, 21312, Note_off_c, 1, 66, 47
3, 21312, Note_off_c, 1, 50, 55
3, 21312, Note_on_c, 1, 45, 105
3, 21504, Note_off_c, 1, 45, 63
3, 21504, Note_off_c, 1, 62, 48
3, 21504, Note_on_c, 1, 48, 105
3, 21696, Note_on_c, 1, 55, 107
3, 21888, Note_on_c, 1, 62, 107
3, 22080, Note_off_c, 1, 55, 53
3, 22080, Note_off_c, 1, 48, 26
3, 22080, Note_on_c, 1, 47, 109
3, 22272, Note_off_c, 1, 62, 54
3, 22272, Note_on_c, 1, 55, 110
3, 22464, Note_on_c, 1, 62, 112
3, 22656, Note_off_c, 1, 55, 45
3, 22656, Note_off_c, 1, 47, 61
3, 22656, Note_on_c, 1, 43, 114
3, 22848, Note_off_c, 1, 62, 70
3, 22848, Note_on_c, 1, 62, 112
3, 22944, Note_off_c, 1, 43, 72
3, 23040, Note_off_c, 1, 62, 72
3, 23040, Note_on_c, 1, 50, 107
3, 23232, Note_on_c, 1, 62, 107
3, 23424, Note_on_c, 1, 57, 107
3, 23616, Note_off_c, 1, 62, 43
3, 23616, Note_on_c, 1, 67, 107
3, 24000, Note_off_c, 1, 67, 36
3, 24000, Note_off_c, 1, 57, 57
3, 24000, Note_on_c, 1, 66, 107
3, 24192, Note_on_c, 1, 62, 107
3, 24384, Note_off_c, 1, 66, 47
3, 24384, Note_off_c, 1, 50, 55
3, 24384, Note_on_c, 1, 45, 105
3, 24576, Note_off_c, 1, 45, 63
3, 24576, Note_off_c, 1, 62, 48
3, 24576, Note_on_c, 1, 48, 105
3, 24768, Note_on_c, 1, 64, 107
3, 24960, Note_on_c, 1, 62, 107
3, 25152, Note_off_c, 1, 64, 53
3, 25152, Note_off_c, 1, 48, 26
3, 25152, Note_on_c, 1, 55, 109
3, 25344, Note_off_c, 1, 62, 54
3, 25344, Note_on_c, 1, 64, 110
3, 25536, Note_on_c, 1, 62, 112
3, 25728, Note_off_c, 1, 64, 45
3, 25728, Note_off_c, 1, 55, 61
3, 25728, Note_on_c, 1, 55, 114
3, 25920, Note_off_c, 1, 62, 70
3, 25920, Note_on_c, 1, 64, 112
3, 26016, Note_off_c, 1, 55, 72
3, 26112, Note_off_c, 1, 64, 72
3, 26112, Note_on_c, 1, 47, 105
3, 26304, Note_on_c, 1, 59, 107
3, 26496, Note_on_c, 1, 62, 107
3, 26688, Note_off_c, 1, 59, 53
3, 26688, Note_off_c, 1, 47, 26
3, 26688, Note_on_c, 1, 59, 109
3, 26880, Note_off_c, 1, 62, 54
3, 26880, Note_on_c, 1, 67, 110
3, 27072, Note_on_c, 1, 62, 112
3, 27264, Note_off_c, 1, 67, 45
3, 27264, Note_off_c, 1, 59, 61
3, 27264, Note_on_c, 1, 59, 114
3, 27456, Note_off_c, 1, 62, 70
3, 27456, Note_on_c, 1, 55, 112
3, 27552, Note_off_c, 1, 59, 72
3, 27648, Note_off_c, 1, 55, 72
3, 73728, Note_on_c, 1, 50, 47
3, 73920, Note_on_c, 1, 62, 47
3, 74112, Note_on_c, 1, 57, 50
3, 74304, Note_off_c, 1, 62, 43
3, 74304, Note_on_c, 1, 62, 52
3, 74496, Note_off_c, 1, 62, 43
3, 74496, Note_on_c, 1, 62, 54
3, 74688, Note_off_c, 1, 57, 57
3, 74688, Note_on_c, 1, 57, 54
3, 74880, Note_off_c, 1, 62, 48
3, 74880, Note_on_c, 1, 62, 54
3, 75072, Note_off_c, 1, 62, 43
3, 75072, Note_on_c, 1, 62, 54
3, 75264, Note_off_c, 1, 50, 55
3, 75264, Note_on_c, 1, 50, 54
3, 75456, Note_off_c, 1, 62, 48
3, 75456, Note_on_c, 1, 62, 57
3, 75648, Note_off_c, 1, 57, 57
3, 75648, Note_on_c, 1, 57, 59
3, 75840, Note_off_c, 1, 62, 43
3, 75840, Note_on_c, 1, 62, 61
3, 76032, Note_off_c, 1, 62, 43
3, 76032, Note_on_c, 1, 62, 66
3, 76224, Note_off_c, 1, 57, 57
3, 76224, Note_on_c, 1, 57, 66
3, 76416, Note_off_c, 1, 62, 48
3, 76416, Note_on_c, 1, 62, 68
3, 76608, Note_off_c, 1, 62, 43
3, 76608, Note_on_c, 1, 62, 71
3, 76800, Note_off_c, 1, 57, 57
3, 76800, Note_off_c, 1, 50, 55
3, 76800, Note_on_c, 1, 48, 71
3, 76992, Note_on_c, 1, 55, 73
3, 77184, Note_off_c, 1, 62, 48
3, 77184, Note_on_c, 1, 62, 73
3, 77376, Note_off_c, 1, 48, 26
3, 77376, Note_on_c, 1, 47, 75
3, 77568, Note_off_c, 1, 55, 53
3, 77568, Note_on_c, 1, 55, 78
3, 77760, Note_off_c, 1, 62, 54
3, 77760, Note_on_c, 1, 62, 78
3, 77952, Note_off_c, 1, 47, 61
3, 77952, Note_on_c, 1, 43, 80
3, 78144, Note_off_c, 1, 62, 70
3, 78144, Note_on_c, 1, 62, 84
3, 78240, Note_off_c, 1, 43, 72
3, 78336, Note_off_c, 1, 55, 45
3, 78336, Note_on_c, 1, 50, 84
3, 78528, Note_off_c, 1, 62, 72
3, 78528, Note_on_c, 1, 62, 85
3, 78720, Note_on_c, 1, 57, 87
3, 78912, Note_off_c, 1, 62, 43
3, 78912, Note_on_c, 1, 62, 87
3, 79104, Note_off_c, 1, 62, 43
3, 79104, Note_on_c, 1, 62, 92
3, 79296, Note_off_c, 1, 57, 57
3, 79296, Note_on_c, 1, 57, 92
3, 79488, Note_off_c, 1, 62, 48
3, 79488, Note_on_c, 1, 62, 94
3, 79680, Note_off_c, 1, 62, 43
3, 79680, Note_on_c, 1, 62, 96
3, 79872, Note_off_c, 1, 57, 57
3, 79872, Note_off_c, 1, 50, 55
3, 79872, Note_on_c, 1, 48, 99
3, 80064, Note_on_c, 1, 55, 101
3, 80256, Note_off_c, 1, 62, 48
3, 80256, Note_on_c, 1, 62, 103
3, 80448, Note_off_c, 1, 48, 26
3, 80448, Note_on_c, 1, 47, 106
3, 80640, Note_off_c, 1, 55, 53
3, 80640, Note_on_c, 1, 55, 108
3, 80832, Note_off_c, 1, 62, 54
3, 80832, Note_on_c, 1, 62, 108
3, 81024, Note_off_c, 1, 47, 61
3, 81024, Note_on_c, 1, 43, 108
3, 81216, Note_off_c, 1, 62, 70
3, 81216, Note_on_c, 1, 62, 113
3, 81312, Note_off_c, 1, 43, 72
3, 81408, Note_off_c, 1, 62, 72
3, 81408, Note_off_c, 1, 55, 45
3, 81408, Note_on_c, 1, 50, 107
3, 81600, Note_on_c, 1, 62, 107
3, 81792, Note_on_c, 1, 57, 107
3, 81984, Note_off_c, 1, 62, 43
3, 81984, Note_on_c, 1, 67, 107
3, 82368, Note_off_c, 1, 67, 36
3, 82368, Note_off_c, 1, 57, 57
3, 82368, Note_on_c, 1, 66, 107
3, 82560, Note_on_c, 1, 62, 107
3, 82752, Note_off_c, 1, 66, 47
3, 82752, Note_off_c, 1, 50, 55
3, 82752, Note_on_c, 1, 45, 105
3, 82944, Note_off_c, 1, 45, 63
3, 82944, Note_off_c, 1, 62, 48
3, 82944, Note_on_c, 1, 48, 105
3, 83136, Note_on_c, 1, 55, 107
3, 83328, Note_on_c, 1, 62, 107
3, 83520, Note_off_c, 1, 55, 53
3, 83520, Note_off_c, 1, 48, 26
3, 83520, Note_on_c, 1, 47, 109
3, 83712, Note_off_c, 1, 62, 54
3, 83712, Note_on_c, 1, 55, 110
3, 83904, Note_on_c, 1, 62, 112
3, 84096, Note_off_c, 1, 55, 45
3, 84096, Note_off_c, 1, 47, 61
3, 84096, Note_on_c, 1, 43, 114
3, 84288, Note_off_c, 1, 62, 70
3, 84288, Note_on_c, 1, 62, 112
3, 84384, Note_off_c, 1, 43, 72
3, 84480, Note_off_c, 1, 62, 72
3, 84480, Note_on_c, 1, 50, 107
3, 84672, Note_on_c, 1, 62, 107
3, 84864, Note_on_c, 1, 57, 107
3, 85056, Note_off_c, 1, 62, 43
3, 85056, Note_on_c, 1, 67, 107
3, 85440, Note_off_c, 1, 67, 36
3, 85440, Note_off_c, 1, 57, 57
3, 85440, Note_on_c, 1, 66, 107
3, 85632, Note_on_c, 1, 62, 107
3, 85824, Note_off_c, 1, 66, 47
3, 85824, Note_off_c, 1, 50, 55
3, 85824, Note_on_c, 1, 45, 105
3, 86016, Note_off_c, 1, 45, 63
3, 86016, Note_off_c, 1, 62, 48
3, 86016, Note_on_c, 1, 48, 105
3, 86208, Note_on_c, 1, 55, 107
3, 86400, Note_on_c, 1, 62, 107
3, 86592, Note_off_c, 1, 55, 53
3, 86592, Note_off_c, 1, 48, 26
3, 86592, Note_on_c, 1, 47, 109
3, 86784, Note_off_c, 1, 62, 54
3, 86784, Note_on_c, 1, 55, 110
3, 86976, Note_on_c, 1, 62, 112
3, 87168, Note_off_c, 1, 55, 45
3, 87168, Note_off_c, 1, 47, 61
3, 87168, Note_on_c, 1, 43, 114
3, 87360, Note_off_c, 1, 62, 70
3, 87360, Note_on_c, 1, 62, 112
3, 87456, Note_off_c, 1, 43, 72
3, 87552, Note_off_c, 1, 62, 72
3, 87552, Note_on_c, 1, 50, 107
3, 87744, Note_on_c, 1, 62, 107
3, 87936, Note_on_c, 1, 57, 107
3, 88128, Note_off_c, 1, 62, 43
3, 88128, Note_on_c, 1, 67, 107
3, 88512, Note_off_c, 1, 67, 36
3, 88512, Note_off_c, 1, 57, 57
3, 88512, Note_on_c, 1, 66, 107
3, 88704, Note_on_c, 1, 62, 107
3, 88896, Note_off_c, 1, 66, 47
3, 88896, Note_off_c, 1, 50, 55
3, 88896, Note_on_c, 1, 45, 105
3, 89088, Note_off_c, 1, 45, 63
3, 89088, Note_off_c, 1, 62, 48
3, 89088, Note_on_c, 1, 48, 105
3, 89280, Note_on_c, 1, 55, 107
3, 89472, Note_on_c, 1, 62, 107
3, 89664, Note_off_c, 1, 55, 53
3, 89664, Note_off_c, 1, 48, 26
3, 89664, Note_on_c, 1, 47, 109
3, 89856, Note_off_c, 1, 62, 54
3, 89856, Note_on_c, 1, 55, 110
3, 90048, Note_on_c, 1, 62, 112
3, 90240, Note_off_c, 1, 55, 45
3, 90240, Note_off_c, 1, 47, 61
3, 90240, Note_on_c, 1, 43, 114
3, 90432, Note_off_c, 1, 62, 70
3, 90432, Note_on_c, 1, 62, 112
3, 90528, Note_off_c, 1, 43, 72
3, 90624, Note_off_c, 1, 62, 72
3, 90624, Note_on_c, 1, 50, 107
3, 90816, Note_on_c, 1, 62, 107
3, 91008, Note_on_c, 1, 57, 107
3, 91200, Note_off_c, 1, 62, 43
3, 91200, Note_on_c, 1, 67, 107
3, 91584, Note_off_c, 1, 67, 36
3, 91584, Note_off_c, 1, 57, 57
3, 91584, Note_on_c, 1, 66, 107
3, 91776, Note_on_c, 1, 62, 107
3, 91968, Note_off_c, 1, 66, 47
3, 91968, Note_off_c, 1, 50, 55
3, 91968, Note_on_c, 1, 45, 105
3, 92160, Note_off_c, 1, 45, 63
3, 92160, Note_off_c, 1, 62, 48
3, 92160, Note_on_c, 1, 48, 105
3, 92352, Note_on_c, 1, 55, 107
3, 92544, Note_on_c, 1, 62, 107
3, 92736, Note_off_c, 1, 55, 53
3, 92736, Note_off_c, 1, 48, 26
3, 92736, Note_on_c, 1, 47, 109
3, 92928, Note_off_c, 1, 62, 54
3, 92928, Note_on_c, 1, 55, 110
3, 93120, Note_on_c, 1, 62, 112
3, 93312, Note_off_c, 1, 55, 45
3, 93312, Note_off_c, 1, 47, 61
3, 93312, Note_on_c, 1, 43, 114
3, 93504, Note_off_c, 1, 62, 70
3, 93504, Note_on_c, 1, 62, 112
3, 93600, Note_off_c, 1, 43, 72
3, 93696, Note_off_c, 1, 62, 72
3, 93696, End_track
4, 0, Start_track
4, 0, Title_t, "CleanGuitr"
4, 648, Control_c, 2, 121, 0
4, 720, Program_c, 2, 27
4, 768, Control_c, 2, 0, 8
4, 840, Control_c, 2, 32, 0
4, 888, Control_c, 2, 7, 127
4, 936, Control_c, 2, 10, 64
4, 1008, Control_c, 2, 1, 0
4, 1104, Control_c, 2, 91, 127
4, 1200, Control_c, 2, 93, 50
4, 1296, Control_c, 2, 2, 0
4, 12288, Note_on_c, 2, 62, 73
4, 12288, Note_on_c, 2, 52, 73
4, 12296, Note_on_c, 2, 57, 73
4, 12320, Note_on_c, 2, 64, 87
4, 12834, Note_off_c, 2, 52, 26
4, 12834, Note_off_c, 2, 62, 26
4, 12842, Note_off_c, 2, 57, 26
4, 12866, Note_off_c, 2, 64, 26
4, 12880, Note_on_c, 2, 50, 68
4, 12884, Note_on_c, 2, 55, 81
4, 12889, Note_on_c, 2, 59, 68
4, 12896, Note_on_c, 2, 62, 81
4, 13434, Note_off_c, 2, 50, 44
4, 13438, Note_off_c, 2, 55, 44
4, 13440, Note_on_c, 2, 45, 64
4, 13443, Note_off_c, 2, 59, 44
4, 13448, Note_on_c, 2, 50, 64
4, 13450, Note_off_c, 2, 62, 44
4, 13464, Note_on_c, 2, 54, 64
4, 13480, Note_on_c, 2, 57, 75
4, 13650, Note_off_c, 2, 45, 58
4, 13658, Note_off_c, 2, 50, 58
4, 13674, Note_off_c, 2, 54, 58
4, 13690, Note_off_c, 2, 57, 58
4, 13824, Note_on_c, 2, 54, 60
4, 13830, Note_on_c, 2, 57, 60
4, 13834, Note_on_c, 2, 62, 73
4, 13842, Note_on_c, 2, 66, 85
4, 15210, Note_off_c, 2, 54, 73
4, 15216, Note_off_c, 2, 57, 73
4, 15220, Note_off_c, 2, 62, 73
4, 15314, Note_off_c, 2, 66, 73
4, 15352, Note_on_c, 2, 52, 73
4, 15360, Note_on_c, 2, 57, 73
4, 15398, Note_on_c, 2, 62, 73
4, 15400, Note_on_c, 2, 64, 87
4, 15898, Note_off_c, 2, 52, 26
4, 15906, Note_off_c, 2, 57, 26
4, 15944, Note_off_c, 2, 62, 26
4, 15944, Note_on_c, 2, 50, 68
4, 15946, Note_off_c, 2, 64, 26
4, 15948, Note_on_c, 2, 55, 81
4, 15953, Note_on_c, 2, 59, 68
4, 15960, Note_on_c, 2, 62, 81
4, 16498, Note_off_c, 2, 50, 44
4, 16502, Note_off_c, 2, 55, 44
4, 16504, Note_on_c, 2, 45, 64
4, 16507, Note_off_c, 2, 59, 44
4, 16512, Note_on_c, 2, 50, 64
4, 16514, Note_off_c, 2, 62, 44
4, 16528, Note_on_c, 2, 54, 64
4, 16544, Note_on_c, 2, 57, 75
4, 16714, Note_off_c, 2, 45, 58
4, 16722, Note_off_c, 2, 50, 58
4, 16738, Note_off_c, 2, 54, 58
4, 16754, Note_off_c, 2, 57, 58
4, 16896, Note_on_c, 2, 54, 73
4, 16904, Note_on_c, 2, 57, 73
4, 16920, Note_on_c, 2, 62, 73
4, 16928, Note_on_c, 2, 66, 79
4, 18282, Note_off_c, 2, 54, 73
4, 18290, Note_off_c, 2, 57, 73
4, 18306, Note_off_c, 2, 62, 73
4, 18384, Note_off_c, 2, 66, 73
4, 18432, Note_on_c, 2, 52, 73
4, 18440, Note_on_c, 2, 57, 73
4, 18462, Note_on_c, 2, 62, 73
4, 18480, Note_on_c, 2, 64, 87
4, 18978, Note_off_c, 2, 52, 26
4, 18986, Note_off_c, 2, 57, 26
4, 19008, Note_off_c, 2, 62, 26
4, 19024, Note_on_c, 2, 50, 68
4, 19026, Note_off_c, 2, 64, 26
4, 19028, Note_on_c, 2, 55, 81
4, 19033, Note_on_c, 2, 59, 68
4, 19040, Note_on_c, 2, 62, 81
4, 19578, Note_off_c, 2, 50, 44
4, 19582, Note_off_c, 2, 55, 44
4, 19584, Note_on_c, 2, 45, 64
4, 19587, Note_off_c, 2, 59, 44
4, 19592, Note_on_c, 2, 50, 64
4, 19594, Note_off_c, 2, 62, 44
4, 19608, Note_on_c, 2, 54, 64
4, 19624, Note_on_c, 2, 57, 75
4, 19794, Note_off_c, 2, 45, 58
4, 19802, Note_off_c, 2, 50, 58
4, 19818, Note_off_c, 2, 54, 58
4, 19834, Note_off_c, 2, 57, 58
4, 19976, Note_on_c, 2, 54, 73
4, 19984, Note_on_c, 2, 57, 73
4, 20000, Note_on_c, 2, 62, 73
4, 20008, Note_on_c, 2, 66, 79
4, 21362, Note_off_c, 2, 54, 73
4, 21370, Note_off_c, 2, 57, 73
4, 21386, Note_off_c, 2, 62, 73
4, 21464, Note_off_c, 2, 66, 73
4, 21504, Note_on_c, 2, 52, 73
4, 21512, Note_on_c, 2, 57, 73
4, 21536, Note_on_c, 2, 62, 73
4, 21552, Note_on_c, 2, 64, 87
4, 22050, Note_off_c, 2, 52, 26
4, 22058, Note_off_c, 2, 57, 26
4, 22082, Note_off_c, 2, 62, 26
4, 22096, Note_on_c, 2, 50, 68
4, 22098, Note_off_c, 2, 64, 26
4, 22100, Note_on_c, 2, 55, 81
4, 22105, Note_on_c, 2, 59, 68
4, 22112, Note_on_c, 2, 62, 81
4, 22650, Note_off_c, 2, 50, 44
4, 22654, Note_off_c, 2, 55, 44
4, 22656, Note_on_c, 2, 45, 64
4, 22659, Note_off_c, 2, 59, 44
4, 22664, Note_on_c, 2, 50, 64
4, 22666, Note_off_c, 2, 62, 44
4, 22680, Note_on_c, 2, 54, 64
4, 22696, Note_on_c, 2, 57, 75
4, 22866, Note_off_c, 2, 45, 58
4, 22874, Note_off_c, 2, 50, 58
4, 22890, Note_off_c, 2, 54, 58
4, 22906, Note_off_c, 2, 57, 58
4, 23048, Note_on_c, 2, 54, 73
4, 23056, Note_on_c, 2, 57, 73
4, 23072, Note_on_c, 2, 62, 73
4, 23080, Note_on_c, 2, 66, 79
4, 24434, Note_off_c, 2, 54, 73
4, 24442, Note_off_c, 2, 57, 73
4, 24458, Note_off_c, 2, 62, 73
4, 24536, Note_off_c, 2, 66, 73
4, 24576, Note_on_c, 2, 48, 64
4, 24592, Note_on_c, 2, 55, 64
4, 24608, Note_on_c, 2, 62, 64
4, 24616, Note_on_c, 2, 64, 73
4, 25992, Note_off_c, 2, 48, 26
4, 26024, Note_off_c, 2, 55, 61
4, 26040, Note_off_c, 2, 62, 54
4, 26088, Note_off_c, 2, 64, 53
4, 26112, Note_on_c, 2, 47, 66
4, 26136, Note_on_c, 2, 55, 66
4, 26144, Note_on_c, 2, 59, 66
4, 26160, Note_on_c, 2, 62, 77
4, 27512, Note_off_c, 2, 47, 26
4, 27520, Note_off_c, 2, 55, 45
4, 27544, Note_off_c, 2, 59, 53
4, 27608, Note_off_c, 2, 62, 54
4, 49152, Note_on_c, 2, 52, 83
4, 49162, Note_on_c, 2, 55, 96
4, 49172, Note_on_c, 2, 59, 91
4, 49182, Note_on_c, 2, 62, 100
4, 49192, Note_on_c, 2, 64, 80
4, 50100, Note_off_c, 2, 52, 120
4, 50108, Note_off_c, 2, 59, 44
4, 50110, Note_off_c, 2, 55, 50
4, 50112, Note_off_c, 2, 62, 36
4, 50112, Note_on_c, 2, 64, 80
4, 50112, Note_on_c, 2, 62, 100
4, 50112, Note_on_c, 2, 59, 91
4, 50112, Note_on_c, 2, 55, 96
4, 50112, Note_on_c, 2, 52, 83
4, 50116, Note_off_c, 2, 64, 117
4, 50688, Note_off_c, 2, 52, 120
4, 50688, Note_off_c, 2, 55, 50
4, 50688, Note_off_c, 2, 59, 44
4, 50688, Note_off_c, 2, 62, 36
4, 50688, Note_off_c, 2, 64, 117
4, 50688, Note_on_c, 2, 64, 80
4, 50688, Note_on_c, 2, 62, 102
4, 50688, Note_on_c, 2, 59, 91
4, 50688, Note_on_c, 2, 55, 96
4, 50688, Note_on_c, 2, 52, 83
4, 50880, Note_off_c, 2, 52, 120
4, 50880, Note_off_c, 2, 55, 50
4, 50880, Note_off_c, 2, 59, 44
4, 50880, Note_off_c, 2, 62, 36
4, 50880, Note_off_c, 2, 64, 117
4, 50880, Note_on_c, 2, 64, 80
4, 50880, Note_on_c, 2, 61, 101
4, 50880, Note_on_c, 2, 59, 91
4, 50880, Note_on_c, 2, 55, 96
4, 50880, Note_on_c, 2, 52, 83
4, 51264, Note_off_c, 2, 52, 120
4, 51264, Note_off_c, 2, 55, 50
4, 51264, Note_off_c, 2, 59, 44
4, 51264, Note_off_c, 2, 61, 36
4, 51264, Note_off_c, 2, 64, 117
4, 51264, Note_on_c, 2, 64, 80
4, 51264, Note_on_c, 2, 59, 100
4, 51264, Note_on_c, 2, 55, 96
4, 51264, Note_on_c, 2, 52, 83
4, 51648, Note_off_c, 2, 52, 120
4, 51648, Note_off_c, 2, 55, 50
4, 51648, Note_off_c, 2, 59, 44
4, 51648, Note_off_c, 2, 64, 117
4, 51648, Note_on_c, 2, 64, 96
4, 51648, Note_on_c, 2, 59, 96
4, 51648, Note_on_c, 2, 61, 96
4, 51648, Note_on_c, 2, 55, 96
4, 51648, Note_on_c, 2, 52, 96
4, 52128, Note_off_c, 2, 52, 120
4, 52128, Note_off_c, 2, 55, 50
4, 52128, Note_off_c, 2, 61, 36
4, 52128, Note_off_c, 2, 59, 44
4, 52128, Note_off_c, 2, 64, 117
4, 52224, Note_on_c, 2, 47, 79
4, 52224, Note_on_c, 2, 54, 79
4, 52224, Note_on_c, 2, 50, 79
4, 52224, Note_on_c, 2, 59, 79
4, 52992, Note_off_c, 2, 59, 81
4, 52992, Note_off_c, 2, 50, 81
4, 52992, Note_off_c, 2, 54, 81
4, 52992, Note_off_c, 2, 47, 81
4, 52992, Note_on_c, 2, 45, 71
4, 52992, Note_on_c, 2, 54, 71
4, 52992, Note_on_c, 2, 50, 71
4, 52992, Note_on_c, 2, 57, 71
4, 53760, Note_off_c, 2, 57, 81
4, 53760, Note_off_c, 2, 50, 81
4, 53760, Note_off_c, 2, 54, 81
4, 53760, Note_off_c, 2, 45, 81
4, 53760, Note_on_c, 2, 47, 69
4, 53760, Note_on_c, 2, 43, 69
4, 53760, Note_on_c, 2, 50, 69
4, 53760, Note_on_c, 2, 55, 69
4, 54528, Note_off_c, 2, 55, 81
4, 54528, Note_off_c, 2, 50, 81
4, 54528, Note_off_c, 2, 43, 81
4, 54528, Note_off_c, 2, 47, 81
4, 54528, Note_on_c, 2, 45, 67
4, 54528, Note_on_c, 2, 50, 67
4, 54528, Note_on_c, 2, 54, 67
4, 54528, Note_on_c, 2, 42, 67
4, 55296, Note_off_c, 2, 42, 81
4, 55296, Note_off_c, 2, 54, 81
4, 55296, Note_off_c, 2, 50, 81
4, 55296, Note_off_c, 2, 45, 81
4, 58368, End_track
5, 0, Start_track
5, 0, Title_t, "OverDrive"
5, 648, Control_c, 3, 121, 0
5, 720, Program_c, 3, 29
5, 768, Control_c, 3, 0, 0
5, 840, Control_c, 3, 32, 0
5, 888, Control_c, 3, 7, 127
5, 936, Control_c, 3, 10, 64
5, 1008, Control_c, 3, 1, 0
5, 1104, Control_c, 3, 91, 127
5, 1200, Control_c, 3, 93, 0
5, 1296, Control_c, 3, 2, 0
5, 30720, Note_on_c, 3, 47, 74
5, 30720, Note_on_c, 3, 43, 89
5, 31008, Note_off_c, 3, 43, 72
5, 31008, Note_off_c, 3, 47, 72
5, 31104, Note_on_c, 3, 47, 77
5, 31104, Note_on_c, 3, 43, 92
5, 31296, Note_off_c, 3, 43, 123
5, 31296, Note_off_c, 3, 47, 123
5, 31296, Note_on_c, 3, 47, 77
5, 31296, Note_on_c, 3, 43, 92
5, 31488, Note_off_c, 3, 43, 123
5, 31488, Note_off_c, 3, 47, 123
5, 31680, Note_on_c, 3, 48, 92
5, 31680, Note_on_c, 3, 52, 77
5, 31776, Note_off_c, 3, 52, 75
5, 31776, Note_off_c, 3, 48, 75
5, 31872, Note_on_c, 3, 48, 92
5, 31872, Note_on_c, 3, 52, 77
5, 32160, Note_off_c, 3, 52, 68
5, 32160, Note_off_c, 3, 48, 68
5, 32256, Note_on_c, 3, 52, 92
5, 32256, Note_on_c, 3, 55, 77
5, 32448, Note_off_c, 3, 55, 76
5, 32448, Note_off_c, 3, 52, 76
5, 32544, Note_on_c, 3, 52, 90
5, 32544, Note_on_c, 3, 55, 77
5, 32640, Note_off_c, 3, 55, 74
5, 32640, Note_off_c, 3, 52, 74
5, 32640, Note_on_c, 3, 52, 90
5, 32640, Note_on_c, 3, 55, 77
5, 32736, Note_off_c, 3, 55, 79
5, 32736, Note_off_c, 3, 52, 79
5, 32832, Note_on_c, 3, 52, 89
5, 32832, Note_on_c, 3, 55, 77
5, 33024, Note_off_c, 3, 55, 93
5, 33024, Note_off_c, 3, 52, 93
5, 33216, Note_on_c, 3, 50, 89
5, 33216, Note_on_c, 3, 54, 77
5, 33312, Note_off_c, 3, 54, 72
5, 33312, Note_off_c, 3, 50, 72
5, 33408, Note_on_c, 3, 50, 90
5, 33408, Note_on_c, 3, 54, 77
5, 33600, Note_off_c, 3, 54, 74
5, 33600, Note_off_c, 3, 50, 74
5, 33600, Note_on_c, 3, 45, 77
5, 33600, Note_on_c, 3, 42, 92
5, 33792, Note_off_c, 3, 42, 72
5, 33792, Note_off_c, 3, 45, 72
5, 33792, Note_on_c, 3, 47, 74
5, 33792, Note_on_c, 3, 43, 89
5, 34080, Note_off_c, 3, 43, 72
5, 34080, Note_off_c, 3, 47, 72
5, 34176, Note_on_c, 3, 47, 77
5, 34176, Note_on_c, 3, 43, 92
5, 34368, Note_off_c, 3, 43, 123
5, 34368, Note_off_c, 3, 47, 123
5, 34368, Note_on_c, 3, 47, 77
5, 34368, Note_on_c, 3, 43, 92
5, 34560, Note_off_c, 3, 43, 123
5, 34560, Note_off_c, 3, 47, 123
5, 34752, Note_on_c, 3, 48, 92
5, 34752, Note_on_c, 3, 52, 77
5, 34848, Note_off_c, 3, 52, 75
5, 34848, Note_off_c, 3, 48, 75
5, 34944, Note_on_c, 3, 48, 92
5, 34944, Note_on_c, 3, 52, 77
5, 35232, Note_off_c, 3, 52, 68
5, 35232, Note_off_c, 3, 48, 68
5, 35328, Note_on_c, 3, 52, 92
5, 35328, Note_on_c, 3, 55, 77
5, 35520, Note_off_c, 3, 55, 76
5, 35520, Note_off_c, 3, 52, 76
5, 35616, Note_on_c, 3, 52, 90
5, 35616, Note_on_c, 3, 55, 77
5, 35712, Note_off_c, 3, 55, 74
5, 35712, Note_off_c, 3, 52, 74
5, 35712, Note_on_c, 3, 52, 90
5, 35712, Note_on_c, 3, 55, 77
5, 35808, Note_off_c, 3, 55, 79
5, 35808, Note_off_c, 3, 52, 79
5, 35904, Note_on_c, 3, 52, 89
5, 35904, Note_on_c, 3, 55, 77
5, 36096, Note_off_c, 3, 55, 93
5, 36096, Note_off_c, 3, 52, 93
5, 36288, Note_on_c, 3, 50, 89
5, 36288, Note_on_c, 3, 54, 77
5, 36384, Note_off_c, 3, 54, 72
5, 36384, Note_off_c, 3, 50, 72
5, 36480, Note_on_c, 3, 50, 90
5, 36480, Note_on_c, 3, 54, 77
5, 36672, Note_off_c, 3, 54, 74
5, 36672, Note_off_c, 3, 50, 74
5, 36672, Note_on_c, 3, 45, 77
5, 36672, Note_on_c, 3, 42, 92
5, 36864, Note_off_c, 3, 42, 72
5, 36864, Note_off_c, 3, 45, 72
5, 36864, Note_on_c, 3, 47, 74
5, 36864, Note_on_c, 3, 43, 89
5, 37152, Note_off_c, 3, 43, 72
5, 37152, Note_off_c, 3, 47, 72
5, 37248, Note_on_c, 3, 47, 77
5, 37248, Note_on_c, 3, 43, 92
5, 37440, Note_off_c, 3, 43, 123
5, 37440, Note_off_c, 3, 47, 123
5, 37440, Note_on_c, 3, 47, 77
5, 37440, Note_on_c, 3, 43, 92
5, 37632, Note_off_c, 3, 43, 123
5, 37632, Note_off_c, 3, 47, 123
5, 37824, Note_on_c, 3, 48, 92
5, 37824, Note_on_c, 3, 52, 77
5, 37920, Note_off_c, 3, 52, 75
5, 37920, Note_off_c, 3, 48, 75
5, 38016, Note_on_c, 3, 48, 92
5, 38016, Note_on_c, 3, 52, 77
5, 38304, Note_off_c, 3, 52, 68
5, 38304, Note_off_c, 3, 48, 68
5, 38400, Note_on_c, 3, 52, 92
5, 38400, Note_on_c, 3, 55, 77
5, 38592, Note_off_c, 3, 55, 76
5, 38592, Note_off_c, 3, 52, 76
5, 38688, Note_on_c, 3, 52, 90
5, 38688, Note_on_c, 3, 55, 77
5, 38784, Note_off_c, 3, 55, 74
5, 38784, Note_off_c, 3, 52, 74
5, 38784, Note_on_c, 3, 52, 90
5, 38784, Note_on_c, 3, 55, 77
5, 38880, Note_off_c, 3, 55, 79
5, 38880, Note_off_c, 3, 52, 79
5, 38976, Note_on_c, 3, 52, 89
5, 38976, Note_on_c, 3, 55, 77
5, 39168, Note_off_c, 3, 55, 93
5, 39168, Note_off_c, 3, 52, 93
5, 39360, Note_on_c, 3, 50, 89
5, 39360, Note_on_c, 3, 54, 77
5, 39456, Note_off_c, 3, 54, 72
5, 39456, Note_off_c, 3, 50, 72
5, 39552, Note_on_c, 3, 50, 90
5, 39552, Note_on_c, 3, 54, 77
5, 39744, Note_off_c, 3, 54, 74
5, 39744, Note_off_c, 3, 50, 74
5, 39744, Note_on_c, 3, 45, 77
5, 39744, Note_on_c, 3, 42, 92
5, 39936, Note_off_c, 3, 42, 72
5, 39936, Note_off_c, 3, 45, 72
5, 39936, Note_on_c, 3, 47, 74
5, 39936, Note_on_c, 3, 43, 89
5, 40224, Note_off_c, 3, 43, 72
5, 40224, Note_off_c, 3, 47, 72
5, 40320, Note_on_c, 3, 47, 77
5, 40320, Note_on_c, 3, 43, 92
5, 40512, Note_off_c, 3, 43, 123
5, 40512, Note_off_c, 3, 47, 123
5, 40512, Note_on_c, 3, 47, 77
5, 40512, Note_on_c, 3, 43, 92
5, 40704, Note_off_c, 3, 43, 123
5, 40704, Note_off_c, 3, 47, 123
5, 40896, Note_on_c, 3, 48, 92
5, 40896, Note_on_c, 3, 52, 77
5, 40992, Note_off_c, 3, 52, 75
5, 40992, Note_off_c, 3, 48, 75
5, 41088, Note_on_c, 3, 48, 92
5, 41088, Note_on_c, 3, 52, 77
5, 41376, Note_off_c, 3, 52, 68
5, 41376, Note_off_c, 3, 48, 68
5, 41472, Note_on_c, 3, 52, 92
5, 41472, Note_on_c, 3, 55, 77
5, 41664, Note_off_c, 3, 55, 76
5, 41664, Note_off_c, 3, 52, 76
5, 41760, Note_on_c, 3, 52, 90
5, 41760, Note_on_c, 3, 55, 77
5, 41856, Note_off_c, 3, 55, 74
5, 41856, Note_off_c, 3, 52, 74
5, 41856, Note_on_c, 3, 52, 90
5, 41856, Note_on_c, 3, 55, 77
5, 41952, Note_off_c, 3, 55, 79
5, 41952, Note_off_c, 3, 52, 79
5, 42048, Note_on_c, 3, 52, 89
5, 42048, Note_on_c, 3, 55, 77
5, 42240, Note_off_c, 3, 55, 93
5, 42240, Note_off_c, 3, 52, 93
5, 42432, Note_on_c, 3, 50, 89
5, 42432, Note_on_c, 3, 54, 77
5, 42528, Note_off_c, 3, 54, 72
5, 42528, Note_off_c, 3, 50, 72
5, 42624, Note_on_c, 3, 50, 90
5, 42624, Note_on_c, 3, 54, 77
5, 42816, Note_off_c, 3, 54, 74
5, 42816, Note_off_c, 3, 50, 74
5, 42816, Note_on_c, 3, 45, 77
5, 42816, Note_on_c, 3, 42, 92
5, 43008, Note_off_c, 3, 42, 72
5, 43008, Note_off_c, 3, 45, 72
5, 43008, Note_on_c, 3, 47, 74
5, 43008, Note_on_c, 3, 43, 89
5, 43296, Note_off_c, 3, 43, 72
5, 43296, Note_off_c, 3, 47, 72
5, 43392, Note_on_c, 3, 47, 77
5, 43392, Note_on_c, 3, 43, 92
5, 43584, Note_off_c, 3, 43, 123
5, 43584, Note_off_c, 3, 47, 123
5, 43584, Note_on_c, 3, 47, 77
5, 43584, Note_on_c, 3, 43, 92
5, 43776, Note_off_c, 3, 43, 123
5, 43776, Note_off_c, 3, 47, 123
5, 43968, Note_on_c, 3, 48, 92
5, 43968, Note_on_c, 3, 52, 77
5, 44064, Note_off_c, 3, 52, 75
5, 44064, Note_off_c, 3, 48, 75
5, 44160, Note_on_c, 3, 48, 92
5, 44160, Note_on_c, 3, 52, 77
5, 44448, Note_off_c, 3, 52, 68
5, 44448, Note_off_c, 3, 48, 68
5, 44544, Note_on_c, 3, 52, 92
5, 44544, Note_on_c, 3, 55, 77
5, 44736, Note_off_c, 3, 55, 76
5, 44736, Note_off_c, 3, 52, 76
5, 44832, Note_on_c, 3, 52, 90
5, 44832, Note_on_c, 3, 55, 77
5, 44928, Note_off_c, 3, 55, 74
5, 44928, Note_off_c, 3, 52, 74
5, 44928, Note_on_c, 3, 52, 90
5, 44928, Note_on_c, 3, 55, 77
5, 45024, Note_off_c, 3, 55, 79
5, 45024, Note_off_c, 3, 52, 79
5, 45120, Note_on_c, 3, 52, 89
5, 45120, Note_on_c, 3, 55, 77
5, 45312, Note_off_c, 3, 55, 93
5, 45312, Note_off_c, 3, 52, 93
5, 45504, Note_on_c, 3, 50, 89
5, 45504, Note_on_c, 3, 54, 77
5, 45600, Note_off_c, 3, 54, 72
5, 45600, Note_off_c, 3, 50, 72
5, 45696, Note_on_c, 3, 50, 90
5, 45696, Note_on_c, 3, 54, 77
5, 45888, Note_off_c, 3, 54, 74
5, 45888, Note_off_c, 3, 50, 74
5, 45888, Note_on_c, 3, 45, 77
5, 45888, Note_on_c, 3, 42, 92
5, 46080, Note_off_c, 3, 42, 72
5, 46080, Note_off_c, 3, 45, 72
5, 46080, Note_on_c, 3, 47, 74
5, 46080, Note_on_c, 3, 43, 89
5, 46368, Note_off_c, 3, 43, 72
5, 46368, Note_off_c, 3, 47, 72
5, 46464, Note_on_c, 3, 47, 77
5, 46464, Note_on_c, 3, 43, 92
5, 46656, Note_off_c, 3, 43, 123
5, 46656, Note_off_c, 3, 47, 123
5, 46656, Note_on_c, 3, 47, 77
5, 46656, Note_on_c, 3, 43, 92
5, 46848, Note_off_c, 3, 43, 123
5, 46848, Note_off_c, 3, 47, 123
5, 47040, Note_on_c, 3, 48, 92
5, 47040, Note_on_c, 3, 52, 77
5, 47136, Note_off_c, 3, 52, 75
5, 47136, Note_off_c, 3, 48, 75
5, 47232, Note_on_c, 3, 48, 92
5, 47232, Note_on_c, 3, 52, 77
5, 47520, Note_off_c, 3, 52, 68
5, 47520, Note_off_c, 3, 48, 68
5, 47616, Note_on_c, 3, 55, 88
5, 47616, Note_on_c, 3, 58, 88
5, 47616, Note_on_c, 3, 63, 88
5, 49152, Note_off_c, 3, 63, 76
5, 49152, Note_off_c, 3, 58, 76
5, 49152, Note_off_c, 3, 55, 76
5, 52224, Note_on_c, 3, 59, 64
5, 52224, Note_on_c, 3, 50, 64
5, 52224, Note_on_c, 3, 54, 64
5, 52224, Note_on_c, 3, 47, 64
5, 52416, Note_off_c, 3, 47, 81
5, 52416, Note_off_c, 3, 54, 81
5, 52416, Note_off_c, 3, 50, 81
5, 52416, Note_off_c, 3, 59, 81
5, 52416, Note_on_c, 3, 59, 64
5, 52416, Note_on_c, 3, 50, 64
5, 52416, Note_on_c, 3, 54, 64
5, 52416, Note_on_c, 3, 47, 64
5, 52608, Note_off_c, 3, 47, 81
5, 52608, Note_off_c, 3, 54, 81
5, 52608, Note_off_c, 3, 50, 81
5, 52608, Note_off_c, 3, 59, 81
5, 52608, Note_on_c, 3, 59, 66
5, 52608, Note_on_c, 3, 50, 66
5, 52608, Note_on_c, 3, 54, 66
5, 52608, Note_on_c, 3, 47, 66
5, 52800, Note_off_c, 3, 47, 81
5, 52800, Note_off_c, 3, 54, 81
5, 52800, Note_off_c, 3, 50, 81
5, 52800, Note_off_c, 3, 59, 81
5, 52800, Note_on_c, 3, 59, 68
5, 52800, Note_on_c, 3, 50, 68
5, 52800, Note_on_c, 3, 54, 68
5, 52800, Note_on_c, 3, 47, 68
5, 52992, Note_off_c, 3, 47, 81
5, 52992, Note_off_c, 3, 54, 81
5, 52992, Note_off_c, 3, 50, 81
5, 52992, Note_off_c, 3, 59, 81
5, 52992, Note_on_c, 3, 57, 70
5, 52992, Note_on_c, 3, 50, 70
5, 52992, Note_on_c, 3, 54, 70
5, 52992, Note_on_c, 3, 45, 70
5, 53184, Note_off_c, 3, 45, 81
5, 53184, Note_off_c, 3, 54, 81
5, 53184, Note_off_c, 3, 50, 81
5, 53184, Note_off_c, 3, 57, 81
5, 53184, Note_on_c, 3, 57, 73
5, 53184, Note_on_c, 3, 50, 73
5, 53184, Note_on_c, 3, 54, 73
5, 53184, Note_on_c, 3, 45, 73
5, 53376, Note_off_c, 3, 45, 81
5, 53376, Note_off_c, 3, 54, 81
5, 53376, Note_off_c, 3, 50, 81
5, 53376, Note_off_c, 3, 57, 81
5, 53376, Note_on_c, 3, 57, 73
5, 53376, Note_on_c, 3, 50, 73
5, 53376, Note_on_c, 3, 54, 73
5, 53376, Note_on_c, 3, 45, 73
5, 53568, Note_off_c, 3, 45, 81
5, 53568, Note_off_c, 3, 54, 81
5, 53568, Note_off_c, 3, 50, 81
5, 53568, Note_off_c, 3, 57, 81
5, 53568, Note_on_c, 3, 57, 73
5, 53568, Note_on_c, 3, 50, 73
5, 53568, Note_on_c, 3, 54, 73
5, 53568, Note_on_c, 3, 45, 73
5, 53760, Note_off_c, 3, 45, 81
5, 53760, Note_off_c, 3, 54, 81
5, 53760, Note_off_c, 3, 50, 81
5, 53760, Note_off_c, 3, 57, 81
5, 53760, Note_on_c, 3, 55, 73
5, 53760, Note_on_c, 3, 50, 73
5, 53760, Note_on_c, 3, 43, 73
5, 53760, Note_on_c, 3, 47, 73
5, 53952, Note_off_c, 3, 47, 81
5, 53952, Note_off_c, 3, 43, 81
5, 53952, Note_off_c, 3, 50, 81
5, 53952, Note_off_c, 3, 55, 81
5, 53952, Note_on_c, 3, 55, 70
5, 53952, Note_on_c, 3, 50, 70
5, 53952, Note_on_c, 3, 43, 70
5, 53952, Note_on_c, 3, 47, 70
5, 54144, Note_off_c, 3, 47, 81
5, 54144, Note_off_c, 3, 43, 81
5, 54144, Note_off_c, 3, 50, 81
5, 54144, Note_off_c, 3, 55, 81
5, 54144, Note_on_c, 3, 55, 73
5, 54144, Note_on_c, 3, 50, 73
5, 54144, Note_on_c, 3, 43, 73
5, 54144, Note_on_c, 3, 47, 73
5, 54336, Note_off_c, 3, 47, 81
5, 54336, Note_off_c, 3, 43, 81
5, 54336, Note_off_c, 3, 50, 81
5, 54336, Note_off_c, 3, 55, 81
5, 54336, Note_on_c, 3, 55, 75
5, 54336, Note_on_c, 3, 50, 75
5, 54336, Note_on_c, 3, 43, 75
5, 54336, Note_on_c, 3, 47, 75
5, 54528, Note_off_c, 3, 47, 81
5, 54528, Note_off_c, 3, 43, 81
5, 54528, Note_off_c, 3, 50, 81
5, 54528, Note_off_c, 3, 55, 81
5, 54528, Note_on_c, 3, 42, 75
5, 54528, Note_on_c, 3, 54, 75
5, 54528, Note_on_c, 3, 50, 75
5, 54528, Note_on_c, 3, 45, 75
5, 54720, Note_off_c, 3, 45, 81
5, 54720, Note_off_c, 3, 50, 81
5, 54720, Note_off_c, 3, 54, 81
5, 54720, Note_off_c, 3, 42, 81
5, 54720, Note_on_c, 3, 42, 77
5, 54720, Note_on_c, 3, 54, 77
5, 54720, Note_on_c, 3, 50, 77
5, 54720, Note_on_c, 3, 45, 77
5, 54912, Note_off_c, 3, 45, 81
5, 54912, Note_off_c, 3, 50, 81
5, 54912, Note_off_c, 3, 54, 81
5, 54912, Note_off_c, 3, 42, 81
5, 54912, Note_on_c, 3, 42, 77
5, 54912, Note_on_c, 3, 54, 77
5, 54912, Note_on_c, 3, 50, 77
5, 54912, Note_on_c, 3, 45, 77
5, 55104, Note_off_c, 3, 45, 81
5, 55104, Note_off_c, 3, 50, 81
5, 55104, Note_off_c, 3, 54, 81
5, 55104, Note_off_c, 3, 42, 81
5, 55104, Note_on_c, 3, 42, 83
5, 55104, Note_on_c, 3, 54, 83
5, 55104, Note_on_c, 3, 50, 83
5, 55104, Note_on_c, 3, 45, 83
5, 55296, Note_off_c, 3, 45, 81
5, 55296, Note_off_c, 3, 50, 81
5, 55296, Note_off_c, 3, 54, 81
5, 55296, Note_off_c, 3, 42, 81
5, 55296, Note_on_c, 3, 49, 83
5, 55296, Note_on_c, 3, 45, 83
5, 55296, Note_on_c, 3, 52, 83
5, 55296, Note_on_c, 3, 57, 83
5, 56448, Note_off_c, 3, 57, 83
5, 56448, Note_off_c, 3, 52, 83
5, 56448, Note_off_c, 3, 45, 83
5, 56448, Note_off_c, 3, 49, 83
5, 56448, Note_on_c, 3, 45, 83
5, 56448, Note_on_c, 3, 49, 83
5, 56448, Note_on_c, 3, 52, 83
5, 56448, Note_on_c, 3, 57, 83
5, 56832, Note_off_c, 3, 57, 64
5, 56832, Note_off_c, 3, 52, 64
5, 56832, Note_off_c, 3, 49, 64
5, 56832, Note_off_c, 3, 45, 64
5, 56832, Note_on_c, 3, 49, 82
5, 56832, Note_on_c, 3, 45, 82
5, 56832, Note_on_c, 3, 52, 82
5, 56832, Note_on_c, 3, 57, 82
5, 58368, Note_off_c, 3, 57, 83
5, 58368, Note_off_c, 3, 52, 83
5, 58368, Note_off_c, 3, 45, 83
5, 58368, Note_off_c, 3, 49, 83
5, 58368, Note_on_c, 3, 54, 82
5, 58368, Note_on_c, 3, 57, 82
5, 58368, Note_on_c, 3, 62, 82
5, 59136, Note_off_c, 3, 62, 36
5, 59136, Note_off_c, 3, 57, 36
5, 59136, Note_off_c, 3, 54, 36
5, 59136, Note_on_c, 3, 47, 85
5, 59136, Note_on_c, 3, 50, 85
5, 59136, Note_on_c, 3, 55, 85
5, 59904, Note_off_c, 3, 55, 126
5, 59904, Note_off_c, 3, 50, 126
5, 59904, Note_off_c, 3, 47, 126
5, 59904, Note_on_c, 3, 50, 89
5, 59904, Note_on_c, 3, 45, 89
5, 59904, Note_on_c, 3, 54, 89
5, 60672, Note_off_c, 3, 54, 46
5, 60672, Note_off_c, 3, 45, 46
5, 60672, Note_off_c, 3, 50, 46
5, 60672, Note_on_c, 3, 49, 85
5, 60672, Note_on_c, 3, 45, 85
5, 60672, Note_on_c, 3, 52, 85
5, 61440, Note_off_c, 3, 52, 127
5, 61440, Note_off_c, 3, 45, 127
5, 61440, Note_off_c, 3, 49, 127
5, 61440, Note_on_c, 3, 54, 84
5, 61440, Note_on_c, 3, 57, 84
5, 61440, Note_on_c, 3, 62, 84
5, 62208, Note_off_c, 3, 62, 48
5, 62208, Note_off_c, 3, 57, 48
5, 62208, Note_off_c, 3, 54, 48
5, 62208, Note_on_c, 3, 47, 84
5, 62208, Note_on_c, 3, 50, 84
5, 62208, Note_on_c, 3, 55, 84
5, 62976, Note_off_c, 3, 55, 127
5, 62976, Note_off_c, 3, 50, 127
5, 62976, Note_off_c, 3, 47, 127
5, 62976, Note_on_c, 3, 45, 84
5, 62976, Note_on_c, 3, 50, 84
5, 62976, Note_on_c, 3, 54, 84
5, 63552, Note_off_c, 3, 54, 45
5, 63552, Note_off_c, 3, 50, 45
5, 63552, Note_off_c, 3, 45, 45
5, 63552, Note_on_c, 3, 49, 85
5, 63552, Note_on_c, 3, 52, 85
5, 63552, Note_on_c, 3, 57, 85
5, 64416, Note_off_c, 3, 57, 58
5, 64416, Note_off_c, 3, 52, 58
5, 64416, Note_off_c, 3, 49, 58
5, 64512, Note_on_c, 3, 54, 90
5, 64512, Note_on_c, 3, 57, 90
5, 64512, Note_on_c, 3, 62, 90
5, 65280, Note_off_c, 3, 62, 36
5, 65280, Note_off_c, 3, 57, 36
5, 65280, Note_off_c, 3, 54, 36
5, 65280, Note_on_c, 3, 47, 92
5, 65280, Note_on_c, 3, 50, 92
5, 65280, Note_on_c, 3, 55, 92
5, 66048, Note_off_c, 3, 55, 126
5, 66048, Note_off_c, 3, 50, 126
5, 66048, Note_off_c, 3, 47, 126
5, 66048, Note_on_c, 3, 50, 92
5, 66048, Note_on_c, 3, 54, 92
5, 66048, Note_on_c, 3, 59, 92
5, 67008, Note_off_c, 3, 59, 46
5, 67008, Note_off_c, 3, 54, 46
5, 67008, Note_off_c, 3, 50, 46
5, 67008, Note_on_c, 3, 52, 94
5, 67008, Note_on_c, 3, 57, 94
5, 67008, Note_on_c, 3, 61, 94
5, 67584, Note_off_c, 3, 61, 127
5, 67584, Note_off_c, 3, 57, 127
5, 67584, Note_off_c, 3, 52, 127
5, 67584, Note_on_c, 3, 54, 94
5, 67584, Note_on_c, 3, 57, 94
5, 67584, Note_on_c, 3, 62, 94
5, 68160, Note_off_c, 3, 62, 48
5, 68160, Note_off_c, 3, 57, 48
5, 68160, Note_off_c, 3, 54, 48
5, 68160, Note_on_c, 3, 50, 94
5, 68160, Note_on_c, 3, 54, 94
5, 68160, Note_on_c, 3, 57, 94
5, 68352, Note_off_c, 3, 57, 48
5, 68352, Note_off_c, 3, 54, 48
5, 68352, Note_off_c, 3, 50, 48
5, 68352, Note_on_c, 3, 54, 92
5, 68352, Note_on_c, 3, 50, 92
5, 68352, Note_on_c, 3, 59, 92
5, 68928, Note_off_c, 3, 59, 127
5, 68928, Note_off_c, 3, 50, 127
5, 68928, Note_off_c, 3, 54, 127
5, 68928, Note_on_c, 3, 54, 90
5, 68928, Note_on_c, 3, 47, 90
5, 68928, Note_on_c, 3, 50, 90
5, 69120, Note_off_c, 3, 50, 58
5, 69120, Note_off_c, 3, 47, 58
5, 69120, Note_off_c, 3, 54, 48
5, 69120, Note_on_c, 3, 43, 90
5, 69120, Note_on_c, 3, 47, 90
5, 69120, Note_on_c, 3, 52, 90
5, 69696, Note_off_c, 3, 52, 45
5, 69696, Note_off_c, 3, 47, 45
5, 69696, Note_off_c, 3, 43, 45
5, 69696, Note_on_c, 3, 47, 90
5, 69696, Note_on_c, 3, 42, 90
5, 69696, Note_on_c, 3, 50, 90
5, 69888, Note_off_c, 3, 50, 58
5, 69888, Note_off_c, 3, 42, 48
5, 69888, Note_off_c, 3, 47, 58
5, 69888, Note_on_c, 3, 49, 90
5, 69888, Note_on_c, 3, 52, 90
5, 69888, Note_on_c, 3, 57, 90
5, 70656, Note_off_c, 3, 57, 58
5, 70656, Note_off_c, 3, 52, 58
5, 70656, Note_off_c, 3, 49, 58
5, 70656, Note_on_c, 3, 47, 90
5, 70656, Note_on_c, 3, 50, 90
5, 70656, Note_on_c, 3, 55, 90
5, 71232, Note_off_c, 3, 55, 36
5, 71232, Note_off_c, 3, 50, 36
5, 71232, Note_off_c, 3, 47, 36
5, 71232, Note_on_c, 3, 47, 90
5, 71232, Note_on_c, 3, 50, 90
5, 71232, Note_on_c, 3, 55, 90
5, 72192, Note_off_c, 3, 55, 126
5, 72192, Note_off_c, 3, 50, 126
5, 72192, Note_off_c, 3, 47, 126
5, 72192, Note_on_c, 3, 47, 92
5, 72192, Note_on_c, 3, 50, 92
5, 72192, Note_on_c, 3, 55, 92
5, 72768, Note_off_c, 3, 55, 46
5, 72768, Note_off_c, 3, 50, 46
5, 72768, Note_off_c, 3, 47, 46
5, 72768, Note_on_c, 3, 45, 89
5, 72768, Note_on_c, 3, 50, 89
5, 72768, Note_on_c, 3, 54, 89
5, 73344, Note_off_c, 3, 54, 46
5, 73344, Note_off_c, 3, 50, 46
5, 73344, Note_off_c, 3, 45, 44
5, 73344, Note_on_c, 3, 43, 90
5, 73344, Note_on_c, 3, 47, 90
5, 73344, Note_on_c, 3, 52, 90
5, 73728, Note_off_c, 3, 52, 46
5, 73728, Note_off_c, 3, 47, 46
5, 73728, Note_off_c, 3, 43, 46
5, 73728, Note_on_c, 3, 50, 76
5, 73728, Note_on_c, 3, 45, 76
5, 73728, Note_on_c, 3, 42, 76
5, 75680, Control_c, 3, 11, 120
5, 76384, Control_c, 3, 11, 110
5, 77152, Control_c, 3, 11, 100
5, 77568, Control_c, 3, 11, 90
5, 77920, Control_c, 3, 11, 80
5, 78272, Control_c, 3, 11, 70
5, 78656, Control_c, 3, 11, 60
5, 79040, Control_c, 3, 11, 40
5, 79456, Control_c, 3, 11, 10
5, 79680, Note_off_c, 3, 42, 46
5, 79680, Note_off_c, 3, 45, 46
5, 79680, Note_off_c, 3, 50, 46
5, 79776, Control_c, 3, 11, 127
5, 90624, Note_on_c, 3, 54, 67
5, 90624, Note_on_c, 3, 50, 67
5, 90706, Note_off_c, 3, 50, 68
5, 90706, Note_off_c, 3, 54, 68
5, 90816, Note_on_c, 3, 54, 65
5, 90816, Note_on_c, 3, 50, 65
5, 90896, Note_off_c, 3, 50, 70
5, 90896, Note_off_c, 3, 54, 70
5, 91008, Note_on_c, 3, 54, 67
5, 91008, Note_on_c, 3, 50, 67
5, 91078, Note_off_c, 3, 50, 86
5, 91078, Note_off_c, 3, 54, 86
5, 91200, Note_on_c, 3, 54, 70
5, 91200, Note_on_c, 3, 50, 70
5, 91274, Note_off_c, 3, 50, 82
5, 91274, Note_off_c, 3, 54, 82
5, 91392, Note_on_c, 3, 54, 70
5, 91392, Note_on_c, 3, 50, 70
5, 91478, Note_off_c, 3, 50, 94
5, 91478, Note_off_c, 3, 54, 94
5, 91584, Note_on_c, 3, 54, 70
5, 91584, Note_on_c, 3, 50, 70
5, 91670, Note_off_c, 3, 50, 102
5, 91670, Note_off_c, 3, 54, 102
5, 91776, Note_on_c, 3, 54, 70
5, 91776, Note_on_c, 3, 50, 70
5, 91863, Note_off_c, 3, 50, 106
5, 91863, Note_off_c, 3, 54, 106
5, 91968, Note_on_c, 3, 54, 67
5, 91968, Note_on_c, 3, 50, 67
5, 92065, Note_off_c, 3, 50, 101
5, 92065, Note_off_c, 3, 54, 101
5, 92160, Note_on_c, 3, 52, 67
5, 92160, Note_on_c, 3, 48, 67
5, 92256, Note_off_c, 3, 48, 102
5, 92256, Note_off_c, 3, 52, 102
5, 92352, Note_on_c, 3, 52, 67
5, 92352, Note_on_c, 3, 48, 67
5, 92448, Note_off_c, 3, 48, 106
5, 92448, Note_off_c, 3, 52, 106
5, 92544, Note_on_c, 3, 52, 67
5, 92544, Note_on_c, 3, 48, 67
5, 92640, Note_off_c, 3, 52, 101
5, 92641, Note_off_c, 3, 48, 101
5, 92736, Note_on_c, 3, 50, 67
5, 92736, Note_on_c, 3, 47, 67
5, 93312, Note_off_c, 3, 47, 104
5, 93312, Note_off_c, 3, 50, 104
5, 93312, Note_on_c, 3, 52, 72
5, 93312, Note_on_c, 3, 48, 72
5, 93696, Note_off_c, 3, 48, 127
5, 93696, Note_off_c, 3, 52, 127
5, 99840, Note_on_c, 3, 54, 90
5, 99840, Note_on_c, 3, 50, 90
5, 101376, Note_off_c, 3, 50, 67
5, 101376, Note_off_c, 3, 54, 67
5, 101376, Note_on_c, 3, 52, 90
5, 101376, Note_on_c, 3, 48, 90
5, 101952, Note_off_c, 3, 48, 62
5, 101952, Note_off_c, 3, 52, 62
5, 101952, Note_on_c, 3, 50, 90
5, 101952, Note_on_c, 3, 47, 90
5, 102528, Note_off_c, 3, 47, 41
5, 102528, Note_off_c, 3, 50, 41
5, 102528, Note_on_c, 3, 52, 90
5, 102528, Note_on_c, 3, 48, 90
5, 102912, Note_off_c, 3, 48, 70
5, 102912, Note_off_c, 3, 52, 70
5, 102912, Note_on_c, 3, 54, 90
5, 102912, Note_on_c, 3, 50, 90
5, 104064, Note_off_c, 3, 50, 63
5, 104064, Note_off_c, 3, 54, 63
5, 104064, Note_on_c, 3, 45, 90
5, 104256, Note_off_c, 3, 45, 57
5, 104256, Note_on_c, 3, 47, 90
5, 104448, Note_off_c, 3, 47, 58
5, 104448, Note_on_c, 3, 52, 105
5, 104448, Note_on_c, 3, 48, 105
5, 105984, Note_off_c, 3, 48, 64
5, 105984, Note_off_c, 3, 52, 64
5, 105984, Note_on_c, 3, 43, 105
5, 105984, Note_on_c, 3, 47, 105
5, 107520, Note_off_c, 3, 47, 64
5, 107520, Note_off_c, 3, 43, 64
5, 112128, Note_on_c, 3, 47, 74
5, 112128, Note_on_c, 3, 43, 89
5, 112416, Note_off_c, 3, 43, 72
5, 112416, Note_off_c, 3, 47, 72
5, 112512, Note_on_c, 3, 47, 77
5, 112512, Note_on_c, 3, 43, 92
5, 112704, Note_off_c, 3, 43, 123
5, 112704, Note_off_c, 3, 47, 123
5, 112704, Note_on_c, 3, 47, 77
5, 112704, Note_on_c, 3, 43, 92
5, 112896, Note_off_c, 3, 43, 123
5, 112896, Note_off_c, 3, 47, 123
5, 113088, Note_on_c, 3, 48, 92
5, 113088, Note_on_c, 3, 52, 77
5, 113184, Note_off_c, 3, 52, 75
5, 113184, Note_off_c, 3, 48, 75
5, 113280, Note_on_c, 3, 48, 92
5, 113280, Note_on_c, 3, 52, 77
5, 113568, Note_off_c, 3, 52, 68
5, 113568, Note_off_c, 3, 48, 68
5, 113664, Note_on_c, 3, 52, 92
5, 113664, Note_on_c, 3, 55, 77
5, 113856, Note_off_c, 3, 55, 76
5, 113856, Note_off_c, 3, 52, 76
5, 113952, Note_on_c, 3, 52, 90
5, 113952, Note_on_c, 3, 55, 77
5, 114048, Note_off_c, 3, 55, 74
5, 114048, Note_off_c, 3, 52, 74
5, 114048, Note_on_c, 3, 52, 90
5, 114048, Note_on_c, 3, 55, 77
5, 114144, Note_off_c, 3, 55, 79
5, 114144, Note_off_c, 3, 52, 79
5, 114240, Note_on_c, 3, 52, 89
5, 114240, Note_on_c, 3, 55, 77
5, 114432, Note_off_c, 3, 55, 93
5, 114432, Note_off_c, 3, 52, 93
5, 114624, Note_on_c, 3, 50, 89
5, 114624, Note_on_c, 3, 54, 77
5, 114720, Note_off_c, 3, 54, 72
5, 114720, Note_off_c, 3, 50, 72
5, 114816, Note_on_c, 3, 50, 90
5, 114816, Note_on_c, 3, 54, 77
5, 115008, Note_off_c, 3, 54, 74
5, 115008, Note_off_c, 3, 50, 74
5, 115008, Note_on_c, 3, 45, 77
5, 115008, Note_on_c, 3, 42, 92
5, 115200, Note_off_c, 3, 42, 72
5, 115200, Note_off_c, 3, 45, 72
5, 115200, Note_on_c, 3, 47, 74
5, 115200, Note_on_c, 3, 43, 89
5, 115488, Note_off_c, 3, 43, 72
5, 115488, Note_off_c, 3, 47, 72
5, 115584, Note_on_c, 3, 47, 77
5, 115584, Note_on_c, 3, 43, 92
5, 115776, Note_off_c, 3, 43, 123
5, 115776, Note_off_c, 3, 47, 123
5, 115776, Note_on_c, 3, 47, 77
5, 115776, Note_on_c, 3, 43, 92
5, 115968, Note_off_c, 3, 43, 123
5, 115968, Note_off_c, 3, 47, 123
5, 116160, Note_on_c, 3, 48, 92
5, 116160, Note_on_c, 3, 52, 77
5, 116256, Note_off_c, 3, 52, 75
5, 116256, Note_off_c, 3, 48, 75
5, 116352, Note_on_c, 3, 48, 92
5, 116352, Note_on_c, 3, 52, 77
5, 116640, Note_off_c, 3, 52, 68
5, 116640, Note_off_c, 3, 48, 68
5, 116736, Note_on_c, 3, 52, 92
5, 116736, Note_on_c, 3, 55, 77
5, 116928, Note_off_c, 3, 55, 76
5, 116928, Note_off_c, 3, 52, 76
5, 117024, Note_on_c, 3, 52, 90
5, 117024, Note_on_c, 3, 55, 77
5, 117120, Note_off_c, 3, 55, 74
5, 117120, Note_off_c, 3, 52, 74
5, 117120, Note_on_c, 3, 52, 90
5, 117120, Note_on_c, 3, 55, 77
5, 117216, Note_off_c, 3, 55, 79
5, 117216, Note_off_c, 3, 52, 79
5, 117312, Note_on_c, 3, 52, 89
5, 117312, Note_on_c, 3, 55, 77
5, 117504, Note_off_c, 3, 55, 93
5, 117504, Note_off_c, 3, 52, 93
5, 117696, Note_on_c, 3, 50, 89
5, 117696, Note_on_c, 3, 54, 77
5, 117792, Note_off_c, 3, 54, 72
5, 117792, Note_off_c, 3, 50, 72
5, 117888, Note_on_c, 3, 50, 90
5, 117888, Note_on_c, 3, 54, 77
5, 118080, Note_off_c, 3, 54, 74
5, 118080, Note_off_c, 3, 50, 74
5, 118080, Note_on_c, 3, 45, 77
5, 118080, Note_on_c, 3, 42, 92
5, 118272, Note_off_c, 3, 42, 72
5, 118272, Note_off_c, 3, 45, 72
5, 118272, Note_on_c, 3, 47, 74
5, 118272, Note_on_c, 3, 43, 89
5, 118560, Note_off_c, 3, 43, 72
5, 118560, Note_off_c, 3, 47, 72
5, 118656, Note_on_c, 3, 47, 77
5, 118656, Note_on_c, 3, 43, 92
5, 118848, Note_off_c, 3, 43, 123
5, 118848, Note_off_c, 3, 47, 123
5, 118848, Note_on_c, 3, 47, 77
5, 118848, Note_on_c, 3, 43, 92
5, 119040, Note_off_c, 3, 43, 123
5, 119040, Note_off_c, 3, 47, 123
5, 119232, Note_on_c, 3, 48, 92
5, 119232, Note_on_c, 3, 52, 77
5, 119328, Note_off_c, 3, 52, 75
5, 119328, Note_off_c, 3, 48, 75
5, 119424, Note_on_c, 3, 48, 92
5, 119424, Note_on_c, 3, 52, 77
5, 119712, Note_off_c, 3, 52, 68
5, 119712, Note_off_c, 3, 48, 68
5, 119808, Note_on_c, 3, 52, 92
5, 119808, Note_on_c, 3, 55, 77
5, 120000, Note_off_c, 3, 55, 76
5, 120000, Note_off_c, 3, 52, 76
5, 120096, Note_on_c, 3, 52, 90
5, 120096, Note_on_c, 3, 55, 77
5, 120192, Note_off_c, 3, 55, 74
5, 120192, Note_off_c, 3, 52, 74
5, 120192, Note_on_c, 3, 52, 90
5, 120192, Note_on_c, 3, 55, 77
5, 120288, Note_off_c, 3, 55, 79
5, 120288, Note_off_c, 3, 52, 79
5, 120384, Note_on_c, 3, 52, 89
5, 120384, Note_on_c, 3, 55, 77
5, 120576, Note_off_c, 3, 55, 93
5, 120576, Note_off_c, 3, 52, 93
5, 120768, Note_on_c, 3, 50, 89
5, 120768, Note_on_c, 3, 54, 77
5, 120864, Note_off_c, 3, 54, 72
5, 120864, Note_off_c, 3, 50, 72
5, 120960, Note_on_c, 3, 50, 90
5, 120960, Note_on_c, 3, 54, 77
5, 121152, Note_off_c, 3, 54, 74
5, 121152, Note_off_c, 3, 50, 74
5, 121152, Note_on_c, 3, 45, 77
5, 121152, Note_on_c, 3, 42, 92
5, 121344, Note_off_c, 3, 42, 72
5, 121344, Note_off_c, 3, 45, 72
5, 121344, Note_on_c, 3, 47, 74
5, 121344, Note_on_c, 3, 43, 89
5, 121632, Note_off_c, 3, 43, 72
5, 121632, Note_off_c, 3, 47, 72
5, 121728, Note_on_c, 3, 47, 77
5, 121728, Note_on_c, 3, 43, 92
5, 121920, Note_off_c, 3, 43, 123
5, 121920, Note_off_c, 3, 47, 123
5, 121920, Note_on_c, 3, 47, 77
5, 121920, Note_on_c, 3, 43, 92
5, 122112, Note_off_c, 3, 43, 123
5, 122112, Note_off_c, 3, 47, 123
5, 122304, Note_on_c, 3, 48, 92
5, 122304, Note_on_c, 3, 52, 77
5, 122400, Note_off_c, 3, 52, 75
5, 122400, Note_off_c, 3, 48, 75
5, 122496, Note_on_c, 3, 48, 92
5, 122496, Note_on_c, 3, 52, 77
5, 122784, Note_off_c, 3, 52, 68
5, 122784, Note_off_c, 3, 48, 68
5, 122880, Note_on_c, 3, 52, 92
5, 122880, Note_on_c, 3, 55, 77
5, 123072, Note_off_c, 3, 55, 76
5, 123072, Note_off_c, 3, 52, 76
5, 123168, Note_on_c, 3, 52, 90
5, 123168, Note_on_c, 3, 55, 77
5, 123264, Note_off_c, 3, 55, 74
5, 123264, Note_off_c, 3, 52, 74
5, 123264, Note_on_c, 3, 52, 90
5, 123264, Note_on_c, 3, 55, 77
5, 123360, Note_off_c, 3, 55, 79
5, 123360, Note_off_c, 3, 52, 79
5, 123456, Note_on_c, 3, 52, 89
5, 123456, Note_on_c, 3, 55, 77
5, 123648, Note_off_c, 3, 55, 93
5, 123648, Note_off_c, 3, 52, 93
5, 123840, Note_on_c, 3, 50, 89
5, 123840, Note_on_c, 3, 54, 77
5, 123936, Note_off_c, 3, 54, 72
5, 123936, Note_off_c, 3, 50, 72
5, 124032, Note_on_c, 3, 50, 90
5, 124032, Note_on_c, 3, 54, 77
5, 124224, Note_off_c, 3, 54, 74
5, 124224, Note_off_c, 3, 50, 74
5, 124224, Note_on_c, 3, 45, 77
5, 124224, Note_on_c, 3, 42, 92
5, 124416, Note_off_c, 3, 42, 72
5, 124416, Note_off_c, 3, 45, 72
5, 124416, Note_on_c, 3, 47, 74
5, 124416, Note_on_c, 3, 43, 89
5, 124704, Note_off_c, 3, 43, 72
5, 124704, Note_off_c, 3, 47, 72
5, 124800, Note_on_c, 3, 47, 77
5, 124800, Note_on_c, 3, 43, 92
5, 124992, Note_off_c, 3, 43, 123
5, 124992, Note_off_c, 3, 47, 123
5, 124992, Note_on_c, 3, 47, 77
5, 124992, Note_on_c, 3, 43, 92
5, 125184, Note_off_c, 3, 43, 123
5, 125184, Note_off_c, 3, 47, 123
5, 125376, Note_on_c, 3, 48, 92
5, 125376, Note_on_c, 3, 52, 77
5, 125472, Note_off_c, 3, 52, 75
5, 125472, Note_off_c, 3, 48, 75
5, 125568, Note_on_c, 3, 48, 92
5, 125568, Note_on_c, 3, 52, 77
5, 125856, Note_off_c, 3, 52, 68
5, 125856, Note_off_c, 3, 48, 68
5, 125952, Note_on_c, 3, 52, 92
5, 125952, Note_on_c, 3, 55, 77
5, 126144, Note_off_c, 3, 55, 76
5, 126144, Note_off_c, 3, 52, 76
5, 126240, Note_on_c, 3, 52, 90
5, 126240, Note_on_c, 3, 55, 77
5, 126336, Note_off_c, 3, 55, 74
5, 126336, Note_off_c, 3, 52, 74
5, 126336, Note_on_c, 3, 52, 90
5, 126336, Note_on_c, 3, 55, 77
5, 126432, Note_off_c, 3, 55, 79
5, 126432, Note_off_c, 3, 52, 79
5, 126528, Note_on_c, 3, 52, 89
5, 126528, Note_on_c, 3, 55, 77
5, 126720, Note_off_c, 3, 55, 93
5, 126720, Note_off_c, 3, 52, 93
5, 126912, Note_on_c, 3, 50, 89
5, 126912, Note_on_c, 3, 54, 77
5, 127008, Note_off_c, 3, 54, 72
5, 127008, Note_off_c, 3, 50, 72
5, 127104, Note_on_c, 3, 50, 90
5, 127104, Note_on_c, 3, 54, 77
5, 127296, Note_off_c, 3, 54, 74
5, 127296, Note_off_c, 3, 50, 74
5, 127296, Note_on_c, 3, 45, 77
5, 127296, Note_on_c, 3, 42, 92
5, 127488, Note_off_c, 3, 42, 72
5, 127488, Note_off_c, 3, 45, 72
5, 127488, Note_on_c, 3, 47, 74
5, 127488, Note_on_c, 3, 43, 89
5, 127776, Note_off_c, 3, 43, 72
5, 127776, Note_off_c, 3, 47, 72
5, 127872, Note_on_c, 3, 47, 77
5, 127872, Note_on_c, 3, 43, 92
5, 128064, Note_off_c, 3, 43, 123
5, 128064, Note_off_c, 3, 47, 123
5, 128064, Note_on_c, 3, 47, 77
5, 128064, Note_on_c, 3, 43, 92
5, 128256, Note_off_c, 3, 43, 123
5, 128256, Note_off_c, 3, 47, 123
5, 128448, Note_on_c, 3, 48, 92
5, 128448, Note_on_c, 3, 52, 77
5, 128544, Note_off_c, 3, 52, 75
5, 128544, Note_off_c, 3, 48, 75
5, 128640, Note_on_c, 3, 48, 92
5, 128640, Note_on_c, 3, 52, 77
5, 128928, Note_off_c, 3, 52, 68
5, 128928, Note_off_c, 3, 48, 68
5, 129024, Note_on_c, 3, 52, 92
5, 129024, Note_on_c, 3, 55, 77
5, 129216, Note_off_c, 3, 55, 76
5, 129216, Note_off_c, 3, 52, 76
5, 129312, Note_on_c, 3, 52, 90
5, 129312, Note_on_c, 3, 55, 77
5, 129408, Note_off_c, 3, 55, 74
5, 129408, Note_off_c, 3, 52, 74
5, 129408, Note_on_c, 3, 52, 90
5, 129408, Note_on_c, 3, 55, 77
5, 129504, Note_off_c, 3, 55, 79
5, 129504, Note_off_c, 3, 52, 79
5, 129600, Note_on_c, 3, 52, 89
5, 129600, Note_on_c, 3, 55, 77
5, 129792, Note_off_c, 3, 55, 93
5, 129792, Note_off_c, 3, 52, 93
5, 129984, Note_on_c, 3, 50, 89
5, 129984, Note_on_c, 3, 54, 77
5, 130080, Note_off_c, 3, 54, 72
5, 130080, Note_off_c, 3, 50, 72
5, 130176, Note_on_c, 3, 50, 90
5, 130176, Note_on_c, 3, 54, 77
5, 130368, Note_off_c, 3, 54, 74
5, 130368, Note_off_c, 3, 50, 74
5, 130368, Note_on_c, 3, 45, 77
5, 130368, Note_on_c, 3, 42, 92
5, 130560, Note_off_c, 3, 42, 72
5, 130560, Note_off_c, 3, 45, 72
5, 130560, Note_on_c, 3, 47, 74
5, 130560, Note_on_c, 3, 43, 89
5, 130848, Note_off_c, 3, 43, 72
5, 130848, Note_off_c, 3, 47, 72
5, 130944, Note_on_c, 3, 47, 77
5, 130944, Note_on_c, 3, 43, 92
5, 131136, Note_off_c, 3, 43, 123
5, 131136, Note_off_c, 3, 47, 123
5, 131136, Note_on_c, 3, 47, 77
5, 131136, Note_on_c, 3, 43, 92
5, 131328, Note_off_c, 3, 43, 123
5, 131328, Note_off_c, 3, 47, 123
5, 131520, Note_on_c, 3, 48, 92
5, 131520, Note_on_c, 3, 52, 77
5, 131616, Note_off_c, 3, 52, 75
5, 131616, Note_off_c, 3, 48, 75
5, 131712, Note_on_c, 3, 48, 92
5, 131712, Note_on_c, 3, 52, 77
5, 132000, Note_off_c, 3, 52, 68
5, 132000, Note_off_c, 3, 48, 68
5, 132096, Note_on_c, 3, 52, 92
5, 132096, Note_on_c, 3, 55, 77
5, 132288, Note_off_c, 3, 55, 76
5, 132288, Note_off_c, 3, 52, 76
5, 132384, Note_on_c, 3, 52, 90
5, 132384, Note_on_c, 3, 55, 77
5, 132480, Note_off_c, 3, 55, 74
5, 132480, Note_off_c, 3, 52, 74
5, 132480, Note_on_c, 3, 52, 90
5, 132480, Note_on_c, 3, 55, 77
5, 132576, Note_off_c, 3, 55, 79
5, 132576, Note_off_c, 3, 52, 79
5, 132672, Note_on_c, 3, 52, 89
5, 132672, Note_on_c, 3, 55, 77
5, 132864, Note_off_c, 3, 55, 93
5, 132864, Note_off_c, 3, 52, 93
5, 133056, Note_on_c, 3, 50, 89
5, 133056, Note_on_c, 3, 54, 77
5, 133152, Note_off_c, 3, 54, 72
5, 133152, Note_off_c, 3, 50, 72
5, 133248, Note_on_c, 3, 50, 90
5, 133248, Note_on_c, 3, 54, 77
5, 133440, Note_off_c, 3, 54, 74
5, 133440, Note_off_c, 3, 50, 74
5, 133440, Note_on_c, 3, 45, 77
5, 133440, Note_on_c, 3, 42, 92
5, 133632, Note_off_c, 3, 42, 72
5, 133632, Note_off_c, 3, 45, 72
5, 133632, Note_on_c, 3, 47, 74
5, 133632, Note_on_c, 3, 43, 89
5, 133920, Note_off_c, 3, 43, 72
5, 133920, Note_off_c, 3, 47, 72
5, 134016, Note_on_c, 3, 47, 77
5, 134016, Note_on_c, 3, 43, 92
5, 134208, Note_off_c, 3, 43, 123
5, 134208, Note_off_c, 3, 47, 123
5, 134208, Note_on_c, 3, 47, 77
5, 134208, Note_on_c, 3, 43, 92
5, 134400, Note_off_c, 3, 43, 123
5, 134400, Note_off_c, 3, 47, 123
5, 134592, Note_on_c, 3, 48, 92
5, 134592, Note_on_c, 3, 52, 77
5, 134688, Note_off_c, 3, 52, 75
5, 134688, Note_off_c, 3, 48, 75
5, 134784, Note_on_c, 3, 48, 92
5, 134784, Note_on_c, 3, 52, 77
5, 135072, Note_off_c, 3, 52, 68
5, 135072, Note_off_c, 3, 48, 68
5, 135168, Note_on_c, 3, 52, 92
5, 135168, Note_on_c, 3, 55, 77
5, 135216, Control_c, 3, 11, 120
5, 135360, Note_off_c, 3, 55, 76
5, 135360, Note_off_c, 3, 52, 76
5, 135456, Note_on_c, 3, 52, 90
5, 135456, Note_on_c, 3, 55, 77
5, 135544, Control_c, 3, 11, 115
5, 135552, Note_off_c, 3, 55, 74
5, 135552, Note_off_c, 3, 52, 74
5, 135552, Note_on_c, 3, 52, 90
5, 135552, Note_on_c, 3, 55, 77
5, 135648, Note_off_c, 3, 55, 79
5, 135648, Note_off_c, 3, 52, 79
5, 135744, Note_on_c, 3, 52, 89
5, 135744, Note_on_c, 3, 55, 77
5, 135936, Note_off_c, 3, 55, 93
5, 135936, Note_off_c, 3, 52, 93
5, 135936, Control_c, 3, 11, 110
5, 136128, Note_on_c, 3, 50, 89
5, 136128, Note_on_c, 3, 54, 77
5, 136224, Note_off_c, 3, 54, 72
5, 136224, Note_off_c, 3, 50, 72
5, 136312, Control_c, 3, 11, 105
5, 136320, Note_on_c, 3, 50, 90
5, 136320, Note_on_c, 3, 54, 77
5, 136512, Note_off_c, 3, 54, 74
5, 136512, Note_off_c, 3, 50, 74
5, 136512, Note_on_c, 3, 45, 77
5, 136512, Note_on_c, 3, 42, 92
5, 136704, Note_off_c, 3, 42, 72
5, 136704, Note_off_c, 3, 45, 72
5, 136704, Note_on_c, 3, 47, 74
5, 136704, Note_on_c, 3, 43, 89
5, 136704, Control_c, 3, 11, 100
5, 136992, Note_off_c, 3, 43, 72
5, 136992, Note_off_c, 3, 47, 72
5, 137088, Note_on_c, 3, 47, 77
5, 137088, Note_on_c, 3, 43, 92
5, 137088, Control_c, 3, 11, 95
5, 137280, Note_off_c, 3, 43, 123
5, 137280, Note_off_c, 3, 47, 123
5, 137280, Note_on_c, 3, 47, 77
5, 137280, Note_on_c, 3, 43, 92
5, 137464, Control_c, 3, 11, 90
5, 137472, Note_off_c, 3, 43, 123
5, 137472, Note_off_c, 3, 47, 123
5, 137664, Note_on_c, 3, 48, 92
5, 137664, Note_on_c, 3, 52, 77
5, 137760, Note_off_c, 3, 52, 75
5, 137760, Note_off_c, 3, 48, 75
5, 137856, Note_on_c, 3, 48, 92
5, 137856, Note_on_c, 3, 52, 77
5, 137864, Control_c, 3, 11, 85
5, 138144, Note_off_c, 3, 52, 68
5, 138144, Note_off_c, 3, 48, 68
5, 138240, Note_on_c, 3, 52, 92
5, 138240, Note_on_c, 3, 55, 77
5, 138248, Control_c, 3, 11, 80
5, 138432, Note_off_c, 3, 55, 76
5, 138432, Note_off_c, 3, 52, 76
5, 138528, Note_on_c, 3, 52, 90
5, 138528, Note_on_c, 3, 55, 77
5, 138616, Control_c, 3, 11, 75
5, 138624, Note_off_c, 3, 55, 74
5, 138624, Note_off_c, 3, 52, 74
5, 138624, Note_on_c, 3, 52, 90
5, 138624, Note_on_c, 3, 55, 77
5, 138720, Note_off_c, 3, 55, 79
5, 138720, Note_off_c, 3, 52, 79
5, 138816, Note_on_c, 3, 52, 89
5, 138816, Note_on_c, 3, 55, 77
5, 139000, Control_c, 3, 11, 70
5, 139008, Note_off_c, 3, 55, 93
5, 139008, Note_off_c, 3, 52, 93
5, 139200, Note_on_c, 3, 50, 89
5, 139200, Note_on_c, 3, 54, 77
5, 139296, Note_off_c, 3, 54, 72
5, 139296, Note_off_c, 3, 50, 72
5, 139392, Note_on_c, 3, 50, 90
5, 139392, Note_on_c, 3, 54, 77
5, 139392, Control_c, 3, 11, 65
5, 139584, Note_off_c, 3, 54, 74
5, 139584, Note_off_c, 3, 50, 74
5, 139584, Note_on_c, 3, 45, 77
5, 139584, Note_on_c, 3, 42, 92
5, 139776, Note_off_c, 3, 42, 72
5, 139776, Note_off_c, 3, 45, 72
5, 139776, Note_on_c, 3, 47, 74
5, 139776, Note_on_c, 3, 43, 89
5, 139784, Control_c, 3, 11, 60
5, 140064, Note_off_c, 3, 43, 72
5, 140064, Note_off_c, 3, 47, 72
5, 140160, Note_on_c, 3, 47, 77
5, 140160, Note_on_c, 3, 43, 92
5, 140160, Control_c, 3, 11, 55
5, 140352, Note_off_c, 3, 43, 123
5, 140352, Note_off_c, 3, 47, 123
5, 140352, Note_on_c, 3, 47, 77
5, 140352, Note_on_c, 3, 43, 92
5, 140536, Control_c, 3, 11, 50
5, 140544, Note_off_c, 3, 43, 123
5, 140544, Note_off_c, 3, 47, 123
5, 140736, Note_on_c, 3, 48, 92
5, 140736, Note_on_c, 3, 52, 77
5, 140832, Note_off_c, 3, 52, 75
5, 140832, Note_off_c, 3, 48, 75
5, 140928, Note_on_c, 3, 48, 92
5, 140928, Note_on_c, 3, 52, 77
5, 140936, Control_c, 3, 11, 45
5, 141216, Note_off_c, 3, 52, 68
5, 141216, Note_off_c, 3, 48, 68
5, 141312, Note_on_c, 3, 52, 92
5, 141312, Note_on_c, 3, 55, 77
5, 141312, Control_c, 3, 11, 40
5, 141504, Note_off_c, 3, 55, 76
5, 141504, Note_off_c, 3, 52, 76
5, 141600, Note_on_c, 3, 52, 90
5, 141600, Note_on_c, 3, 55, 77
5, 141696, Note_off_c, 3, 55, 74
5, 141696, Note_off_c, 3, 52, 74
5, 141696, Note_on_c, 3, 52, 90
5, 141696, Note_on_c, 3, 55, 77
5, 141696, Control_c, 3, 11, 35
5, 141792, Note_off_c, 3, 55, 79
5, 141792, Note_off_c, 3, 52, 79
5, 141888, Note_on_c, 3, 52, 89
5, 141888, Note_on_c, 3, 55, 77
5, 142072, Control_c, 3, 11, 30
5, 142080, Note_off_c, 3, 55, 93
5, 142080, Note_off_c, 3, 52, 93
5, 142272, Note_on_c, 3, 50, 89
5, 142272, Note_on_c, 3, 54, 77
5, 142368, Note_off_c, 3, 54, 72
5, 142368, Note_off_c, 3, 50, 72
5, 142464, Note_on_c, 3, 50, 90
5, 142464, Note_on_c, 3, 54, 77
5, 142472, Control_c, 3, 11, 25
5, 142656, Note_off_c, 3, 54, 74
5, 142656, Note_off_c, 3, 50, 74
5, 142656, Note_on_c, 3, 45, 77
5, 142656, Note_on_c, 3, 42, 92
5, 142840, Control_c, 3, 11, 20
5, 142848, Note_off_c, 3, 42, 72
5, 142848, Note_off_c, 3, 45, 72
5, 142848, Note_on_c, 3, 47, 74
5, 142848, Note_on_c, 3, 43, 89
5, 143136, Note_off_c, 3, 43, 72
5, 143136, Note_off_c, 3, 47, 72
5, 143232, Note_on_c, 3, 47, 77
5, 143232, Note_on_c, 3, 43, 92
5, 143232, Control_c, 3, 11, 15
5, 143424, Note_off_c, 3, 43, 123
5, 143424, Note_off_c, 3, 47, 123
5, 143424, Note_on_c, 3, 47, 77
5, 143424, Note_on_c, 3, 43, 92
5, 143616, Note_off_c, 3, 43, 123
5, 143616, Note_off_c, 3, 47, 123
5, 143616, Control_c, 3, 11, 10
5, 143808, Note_on_c, 3, 48, 92
5, 143808, Note_on_c, 3, 52, 77
5, 143904, Note_off_c, 3, 52, 75
5, 143904, Note_off_c, 3, 48, 75
5, 143992, Control_c, 3, 11, 5
5, 144000, Note_on_c, 3, 48, 92
5, 144000, Note_on_c, 3, 52, 77
5, 144288, Note_off_c, 3, 52, 68
5, 144288, Note_off_c, 3, 48, 68
5, 144344, Control_c, 3, 11, 0
5, 144384, Control_c, 3, 11, 127
5, 145920, End_track
6, 0, Start_track
6, 0, Title_t, "RockRythm1"
6, 648, Control_c, 4, 121, 0
6, 712, Control_c, 4, 0, 16
6, 768, Program_c, 4, 30
6, 840, Control_c, 4, 32, 0
6, 888, Control_c, 4, 7, 127
6, 936, Control_c, 4, 10, 64
6, 1008, Control_c, 4, 1, 0
6, 1104, Control_c, 4, 91, 127
6, 1200, Control_c, 4, 93, 0
6, 1296, Control_c, 4, 2, 0
6, 30720, Note_on_c, 4, 43, 95
6, 31008, Note_off_c, 4, 43, 72
6, 31104, Note_on_c, 4, 43, 95
6, 31296, Note_off_c, 4, 43, 123
6, 31296, Note_on_c, 4, 43, 95
6, 31494, Note_off_c, 4, 43, 123
6, 31680, Note_on_c, 4, 48, 95
6, 31776, Note_off_c, 4, 48, 75
6, 31872, Note_on_c, 4, 48, 95
6, 32160, Note_off_c, 4, 48, 68
6, 32256, Note_on_c, 4, 52, 95
6, 32448, Note_off_c, 4, 52, 76
6, 32544, Note_on_c, 4, 52, 95
6, 32640, Note_off_c, 4, 52, 74
6, 32640, Note_on_c, 4, 52, 95
6, 32736, Note_off_c, 4, 52, 79
6, 32832, Note_on_c, 4, 52, 95
6, 33120, Note_off_c, 4, 52, 93
6, 33216, Note_on_c, 4, 50, 95
6, 33390, Note_off_c, 4, 50, 72
6, 33408, Note_on_c, 4, 50, 95
6, 33600, Note_on_c, 4, 48, 95
6, 33606, Note_off_c, 4, 50, 72
6, 33792, Note_off_c, 4, 48, 72
6, 33792, Note_on_c, 4, 43, 95
6, 34080, Note_off_c, 4, 43, 72
6, 34176, Note_on_c, 4, 43, 95
6, 34368, Note_off_c, 4, 43, 123
6, 34368, Note_on_c, 4, 43, 95
6, 34566, Note_off_c, 4, 43, 123
6, 34752, Note_on_c, 4, 48, 95
6, 34848, Note_off_c, 4, 48, 75
6, 34944, Note_on_c, 4, 48, 95
6, 35232, Note_off_c, 4, 48, 68
6, 35328, Note_on_c, 4, 52, 95
6, 35520, Note_off_c, 4, 52, 76
6, 35616, Note_on_c, 4, 52, 95
6, 35712, Note_off_c, 4, 52, 74
6, 35712, Note_on_c, 4, 52, 95
6, 35808, Note_off_c, 4, 52, 79
6, 35904, Note_on_c, 4, 52, 95
6, 36192, Note_off_c, 4, 52, 93
6, 36288, Note_on_c, 4, 50, 95
6, 36462, Note_off_c, 4, 50, 72
6, 36480, Note_on_c, 4, 50, 95
6, 36672, Note_on_c, 4, 48, 95
6, 36678, Note_off_c, 4, 50, 72
6, 36864, Note_off_c, 4, 48, 72
6, 36864, Note_on_c, 4, 43, 95
6, 37152, Note_off_c, 4, 43, 72
6, 37248, Note_on_c, 4, 43, 95
6, 37440, Note_off_c, 4, 43, 123
6, 37440, Note_on_c, 4, 43, 95
6, 37638, Note_off_c, 4, 43, 123
6, 37824, Note_on_c, 4, 48, 95
6, 37920, Note_off_c, 4, 48, 75
6, 38016, Note_on_c, 4, 48, 95
6, 38304, Note_off_c, 4, 48, 68
6, 38400, Note_on_c, 4, 52, 95
6, 38592, Note_off_c, 4, 52, 76
6, 38688, Note_on_c, 4, 52, 95
6, 38784, Note_off_c, 4, 52, 74
6, 38784, Note_on_c, 4, 52, 95
6, 38880, Note_off_c, 4, 52, 79
6, 38976, Note_on_c, 4, 52, 95
6, 39264, Note_off_c, 4, 52, 93
6, 39360, Note_on_c, 4, 50, 95
6, 39534, Note_off_c, 4, 50, 72
6, 39552, Note_on_c, 4, 50, 95
6, 39744, Note_on_c, 4, 48, 95
6, 39750, Note_off_c, 4, 50, 72
6, 39936, Note_off_c, 4, 48, 72
6, 39936, Note_on_c, 4, 43, 95
6, 40224, Note_off_c, 4, 43, 72
6, 40320, Note_on_c, 4, 43, 95
6, 40512, Note_off_c, 4, 43, 123
6, 40512, Note_on_c, 4, 43, 95
6, 40710, Note_off_c, 4, 43, 123
6, 40896, Note_on_c, 4, 48, 95
6, 40992, Note_off_c, 4, 48, 75
6, 41088, Note_on_c, 4, 48, 95
6, 41376, Note_off_c, 4, 48, 68
6, 41472, Note_on_c, 4, 52, 95
6, 41664, Note_off_c, 4, 52, 76
6, 41760, Note_on_c, 4, 52, 95
6, 41856, Note_off_c, 4, 52, 74
6, 41856, Note_on_c, 4, 52, 95
6, 41952, Note_off_c, 4, 52, 79
6, 42048, Note_on_c, 4, 52, 95
6, 42336, Note_off_c, 4, 52, 93
6, 42432, Note_on_c, 4, 50, 95
6, 42606, Note_off_c, 4, 50, 72
6, 42624, Note_on_c, 4, 50, 95
6, 42816, Note_on_c, 4, 48, 95
6, 42822, Note_off_c, 4, 50, 72
6, 43008, Note_off_c, 4, 48, 72
6, 43008, Note_on_c, 4, 43, 95
6, 43296, Note_off_c, 4, 43, 72
6, 43392, Note_on_c, 4, 43, 95
6, 43584, Note_off_c, 4, 43, 123
6, 43584, Note_on_c, 4, 43, 95
6, 43782, Note_off_c, 4, 43, 123
6, 43968, Note_on_c, 4, 48, 95
6, 44064, Note_off_c, 4, 48, 75
6, 44160, Note_on_c, 4, 48, 95
6, 44448, Note_off_c, 4, 48, 68
6, 44544, Note_on_c, 4, 52, 95
6, 44736, Note_off_c, 4, 52, 76
6, 44832, Note_on_c, 4, 52, 95
6, 44928, Note_off_c, 4, 52, 74
6, 44928, Note_on_c, 4, 52, 95
6, 45024, Note_off_c, 4, 52, 79
6, 45120, Note_on_c, 4, 52, 95
6, 45408, Note_off_c, 4, 52, 93
6, 45504, Note_on_c, 4, 50, 95
6, 45678, Note_off_c, 4, 50, 72
6, 45696, Note_on_c, 4, 50, 95
6, 45888, Note_on_c, 4, 48, 95
6, 45894, Note_off_c, 4, 50, 72
6, 46080, Note_off_c, 4, 48, 72
6, 46080, Note_on_c, 4, 43, 95
6, 46368, Note_off_c, 4, 43, 72
6, 46464, Note_on_c, 4, 43, 95
6, 46656, Note_off_c, 4, 43, 123
6, 46656, Note_on_c, 4, 43, 95
6, 46854, Note_off_c, 4, 43, 123
6, 47040, Note_on_c, 4, 48, 95
6, 47136, Note_off_c, 4, 48, 75
6, 47232, Note_on_c, 4, 48, 95
6, 47520, Note_off_c, 4, 48, 68
6, 47616, Note_on_c, 4, 51, 100
6, 49152, Note_off_c, 4, 51, 72
6, 54528, Note_on_c, 4, 45, 91
6, 55296, Note_off_c, 4, 45, 82
6, 55296, Note_on_c, 4, 45, 116
6, 56448, Note_off_c, 4, 45, 82
6, 56448, Note_on_c, 4, 45, 118
6, 56832, Note_off_c, 4, 45, 64
6, 56832, Note_on_c, 4, 45, 123
6, 58368, Note_off_c, 4, 45, 66
6, 58368, Note_on_c, 4, 50, 104
6, 59136, Note_off_c, 4, 50, 36
6, 59136, Note_on_c, 4, 43, 107
6, 59904, Note_off_c, 4, 43, 126
6, 59904, Note_on_c, 4, 42, 108
6, 60672, Note_off_c, 4, 42, 46
6, 60672, Note_on_c, 4, 40, 109
6, 61440, Note_off_c, 4, 40, 127
6, 61440, Note_on_c, 4, 50, 110
6, 62208, Note_off_c, 4, 50, 48
6, 62208, Note_on_c, 4, 43, 111
6, 62976, Note_off_c, 4, 43, 127
6, 62976, Note_on_c, 4, 42, 104
6, 63552, Note_off_c, 4, 42, 45
6, 63552, Note_on_c, 4, 45, 105
6, 64416, Note_off_c, 4, 45, 58
6, 64512, Note_on_c, 4, 50, 109
6, 65280, Note_off_c, 4, 50, 36
6, 65280, Note_on_c, 4, 43, 107
6, 66048, Note_off_c, 4, 43, 126
6, 66048, Note_on_c, 4, 47, 109
6, 67008, Note_off_c, 4, 47, 46
6, 67008, Note_on_c, 4, 49, 112
6, 67584, Note_off_c, 4, 49, 127
6, 67584, Note_on_c, 4, 50, 115
6, 68160, Note_off_c, 4, 50, 48
6, 68160, Note_on_c, 4, 45, 115
6, 68352, Note_off_c, 4, 45, 48
6, 68352, Note_on_c, 4, 47, 115
6, 68928, Note_off_c, 4, 47, 127
6, 68928, Note_on_c, 4, 38, 115
6, 69120, Note_off_c, 4, 38, 48
6, 69120, Note_on_c, 4, 40, 115
6, 69696, Note_off_c, 4, 40, 45
6, 69696, Note_on_c, 4, 38, 115
6, 69888, Note_off_c, 4, 38, 58
6, 69888, Note_on_c, 4, 45, 115
6, 70656, Note_off_c, 4, 45, 58
6, 70656, Note_on_c, 4, 43, 115
6, 71232, Note_off_c, 4, 43, 36
6, 71232, Note_on_c, 4, 43, 115
6, 72192, Note_off_c, 4, 43, 126
6, 72192, Note_on_c, 4, 43, 117
6, 72768, Note_off_c, 4, 43, 46
6, 72768, Note_on_c, 4, 42, 115
6, 73344, Note_off_c, 4, 42, 46
6, 73344, Note_on_c, 4, 40, 115
6, 73728, Note_off_c, 4, 40, 46
6, 73728, Note_on_c, 4, 38, 115
6, 75680, Control_c, 4, 11, 120
6, 76384, Control_c, 4, 11, 110
6, 77152, Control_c, 4, 11, 100
6, 77568, Control_c, 4, 11, 90
6, 77920, Control_c, 4, 11, 80
6, 78272, Control_c, 4, 11, 70
6, 78656, Control_c, 4, 11, 60
6, 79040, Control_c, 4, 11, 40
6, 79456, Control_c, 4, 11, 10
6, 79680, Note_off_c, 4, 38, 46
6, 79776, Control_c, 4, 11, 127
6, 90624, Note_on_c, 4, 50, 75
6, 90706, Note_off_c, 4, 50, 68
6, 90816, Note_on_c, 4, 50, 75
6, 90896, Note_off_c, 4, 50, 70
6, 91008, Note_on_c, 4, 50, 77
6, 91078, Note_off_c, 4, 50, 86
6, 91200, Note_on_c, 4, 50, 80
6, 91274, Note_off_c, 4, 50, 82
6, 91392, Note_on_c, 4, 50, 82
6, 91478, Note_off_c, 4, 50, 94
6, 91584, Note_on_c, 4, 50, 84
6, 91670, Note_off_c, 4, 50, 102
6, 91776, Note_on_c, 4, 50, 87
6, 91863, Note_off_c, 4, 50, 106
6, 91968, Note_on_c, 4, 50, 89
6, 92065, Note_off_c, 4, 50, 101
6, 92160, Note_on_c, 4, 48, 97
6, 92352, Note_off_c, 4, 48, 102
6, 92352, Note_on_c, 4, 48, 102
6, 92544, Note_off_c, 4, 48, 106
6, 92544, Note_on_c, 4, 48, 105
6, 92736, Note_off_c, 4, 48, 101
6, 92736, Note_on_c, 4, 47, 115
6, 93312, Note_off_c, 4, 47, 104
6, 93312, Note_on_c, 4, 48, 120
6, 93696, Note_off_c, 4, 48, 127
6, 93696, Note_on_c, 4, 50, 125
6, 95232, Note_off_c, 4, 50, 54
6, 95232, Note_on_c, 4, 48, 123
6, 95808, Note_off_c, 4, 48, 74
6, 95808, Note_on_c, 4, 47, 122
6, 96384, Note_off_c, 4, 47, 52
6, 96384, Note_on_c, 4, 48, 122
6, 96768, Note_off_c, 4, 48, 63
6, 96768, Note_on_c, 4, 50, 122
6, 97920, Note_off_c, 4, 50, 64
6, 97920, Note_on_c, 4, 45, 122
6, 98112, Note_off_c, 4, 45, 52
6, 98112, Note_on_c, 4, 47, 122
6, 98304, Note_off_c, 4, 47, 57
6, 98304, Note_on_c, 4, 48, 122
6, 98880, Note_off_c, 4, 48, 46
6, 98880, Note_on_c, 4, 47, 122
6, 99456, Note_on_c, 4, 48, 122
6, 99552, Note_off_c, 4, 47, 72
6, 99840, Note_off_c, 4, 48, 127
6, 99840, Note_on_c, 4, 50, 125
6, 101376, Note_off_c, 4, 50, 67
6, 101376, Note_on_c, 4, 48, 120
6, 101952, Note_off_c, 4, 48, 62
6, 101952, Note_on_c, 4, 47, 125
6, 102528, Note_off_c, 4, 47, 41
6, 102528, Note_on_c, 4, 48, 122
6, 102912, Note_off_c, 4, 48, 70
6, 102912, Note_on_c, 4, 50, 120
6, 104064, Note_off_c, 4, 50, 63
6, 104064, Note_on_c, 4, 45, 120
6, 104256, Note_off_c, 4, 45, 57
6, 104256, Note_on_c, 4, 47, 120
6, 104448, Note_off_c, 4, 47, 58
6, 104448, Note_on_c, 4, 48, 123
6, 105984, Note_off_c, 4, 48, 64
6, 105984, Note_on_c, 4, 47, 123
6, 107520, Note_off_c, 4, 47, 64
6, 107520, Note_on_c, 4, 45, 122
6, 108288, Note_off_c, 4, 45, 64
6, 108288, Note_on_c, 4, 43, 122
6, 108672, Note_off_c, 4, 43, 64
6, 108672, Note_on_c, 4, 47, 123
6, 108864, Note_off_c, 4, 47, 64
6, 108864, Note_on_c, 4, 48, 125
6, 109056, Note_off_c, 4, 48, 64
6, 109056, Note_on_c, 4, 50, 114
6, 110592, Note_off_c, 4, 50, 64
6, 110592, Note_on_c, 4, 50, 118
6, 112128, Note_off_c, 4, 50, 64
6, 112128, Note_on_c, 4, 43, 100
6, 112416, Note_off_c, 4, 43, 72
6, 112512, Note_on_c, 4, 43, 100
6, 112704, Note_off_c, 4, 43, 123
6, 112704, Note_on_c, 4, 43, 100
6, 112902, Note_off_c, 4, 43, 123
6, 113088, Note_on_c, 4, 48, 100
6, 113184, Note_off_c, 4, 48, 75
6, 113280, Note_on_c, 4, 48, 100
6, 113568, Note_off_c, 4, 48, 68
6, 113664, Note_on_c, 4, 52, 100
6, 113856, Note_off_c, 4, 52, 76
6, 113952, Note_on_c, 4, 52, 100
6, 114048, Note_off_c, 4, 52, 74
6, 114048, Note_on_c, 4, 52, 100
6, 114144, Note_off_c, 4, 52, 79
6, 114240, Note_on_c, 4, 52, 100
6, 114528, Note_off_c, 4, 52, 93
6, 114624, Note_on_c, 4, 50, 100
6, 114798, Note_off_c, 4, 50, 72
6, 114816, Note_on_c, 4, 50, 100
6, 115008, Note_on_c, 4, 48, 100
6, 115014, Note_off_c, 4, 50, 72
6, 115200, Note_off_c, 4, 48, 72
6, 115200, Note_on_c, 4, 43, 100
6, 115488, Note_off_c, 4, 43, 72
6, 115584, Note_on_c, 4, 43, 100
6, 115776, Note_off_c, 4, 43, 123
6, 115776, Note_on_c, 4, 43, 100
6, 115974, Note_off_c, 4, 43, 123
6, 116160, Note_on_c, 4, 48, 100
6, 116256, Note_off_c, 4, 48, 75
6, 116352, Note_on_c, 4, 48, 100
6, 116640, Note_off_c, 4, 48, 68
6, 116736, Note_on_c, 4, 52, 100
6, 116928, Note_off_c, 4, 52, 76
6, 117024, Note_on_c, 4, 52, 100
6, 117120, Note_off_c, 4, 52, 74
6, 117120, Note_on_c, 4, 52, 100
6, 117216, Note_off_c, 4, 52, 79
6, 117312, Note_on_c, 4, 52, 100
6, 117600, Note_off_c, 4, 52, 93
6, 117696, Note_on_c, 4, 50, 100
6, 117870, Note_off_c, 4, 50, 72
6, 117888, Note_on_c, 4, 50, 100
6, 118080, Note_on_c, 4, 48, 100
6, 118086, Note_off_c, 4, 50, 72
6, 118272, Note_off_c, 4, 48, 72
6, 118272, Note_on_c, 4, 43, 100
6, 118560, Note_off_c, 4, 43, 72
6, 118656, Note_on_c, 4, 43, 100
6, 118848, Note_off_c, 4, 43, 123
6, 118848, Note_on_c, 4, 43, 100
6, 119046, Note_off_c, 4, 43, 123
6, 119232, Note_on_c, 4, 48, 100
6, 119328, Note_off_c, 4, 48, 75
6, 119424, Note_on_c, 4, 48, 100
6, 119712, Note_off_c, 4, 48, 68
6, 119808, Note_on_c, 4, 52, 100
6, 120000, Note_off_c, 4, 52, 76
6, 120096, Note_on_c, 4, 52, 100
6, 120192, Note_off_c, 4, 52, 74
6, 120192, Note_on_c, 4, 52, 100
6, 120288, Note_off_c, 4, 52, 79
6, 120384, Note_on_c, 4, 52, 100
6, 120672, Note_off_c, 4, 52, 93
6, 120768, Note_on_c, 4, 50, 100
6, 120942, Note_off_c, 4, 50, 72
6, 120960, Note_on_c, 4, 50, 100
6, 121152, Note_on_c, 4, 48, 100
6, 121158, Note_off_c, 4, 50, 72
6, 121344, Note_off_c, 4, 48, 72
6, 121344, Note_on_c, 4, 43, 100
6, 121632, Note_off_c, 4, 43, 72
6, 121728, Note_on_c, 4, 43, 100
6, 121920, Note_off_c, 4, 43, 123
6, 121920, Note_on_c, 4, 43, 100
6, 122118, Note_off_c, 4, 43, 123
6, 122304, Note_on_c, 4, 48, 100
6, 122400, Note_off_c, 4, 48, 75
6, 122496, Note_on_c, 4, 48, 100
6, 122784, Note_off_c, 4, 48, 68
6, 122880, Note_on_c, 4, 52, 100
6, 123072, Note_off_c, 4, 52, 76
6, 123168, Note_on_c, 4, 52, 100
6, 123264, Note_off_c, 4, 52, 74
6, 123264, Note_on_c, 4, 52, 100
6, 123360, Note_off_c, 4, 52, 79
6, 123456, Note_on_c, 4, 52, 100
6, 123744, Note_off_c, 4, 52, 93
6, 123840, Note_on_c, 4, 50, 100
6, 124014, Note_off_c, 4, 50, 72
6, 124032, Note_on_c, 4, 50, 100
6, 124224, Note_on_c, 4, 48, 100
6, 124230, Note_off_c, 4, 50, 72
6, 124416, Note_off_c, 4, 48, 72
6, 124416, Note_on_c, 4, 43, 100
6, 124704, Note_off_c, 4, 43, 72
6, 124800, Note_on_c, 4, 43, 100
6, 124992, Note_off_c, 4, 43, 123
6, 124992, Note_on_c, 4, 43, 100
6, 125190, Note_off_c, 4, 43, 123
6, 125376, Note_on_c, 4, 48, 100
6, 125472, Note_off_c, 4, 48, 75
6, 125568, Note_on_c, 4, 48, 100
6, 125856, Note_off_c, 4, 48, 68
6, 125952, Note_on_c, 4, 52, 100
6, 126144, Note_off_c, 4, 52, 76
6, 126240, Note_on_c, 4, 52, 100
6, 126336, Note_off_c, 4, 52, 74
6, 126336, Note_on_c, 4, 52, 100
6, 126432, Note_off_c, 4, 52, 79
6, 126528, Note_on_c, 4, 52, 100
6, 126816, Note_off_c, 4, 52, 93
6, 126912, Note_on_c, 4, 50, 100
6, 127086, Note_off_c, 4, 50, 72
6, 127104, Note_on_c, 4, 50, 100
6, 127296, Note_on_c, 4, 48, 100
6, 127302, Note_off_c, 4, 50, 72
6, 127488, Note_off_c, 4, 48, 72
6, 127488, Note_on_c, 4, 43, 100
6, 127776, Note_off_c, 4, 43, 72
6, 127872, Note_on_c, 4, 43, 100
6, 128064, Note_off_c, 4, 43, 123
6, 128064, Note_on_c, 4, 43, 100
6, 128262, Note_off_c, 4, 43, 123
6, 128448, Note_on_c, 4, 48, 100
6, 128544, Note_off_c, 4, 48, 75
6, 128640, Note_on_c, 4, 48, 100
6, 128928, Note_off_c, 4, 48, 68
6, 129024, Note_on_c, 4, 52, 100
6, 129216, Note_off_c, 4, 52, 76
6, 129312, Note_on_c, 4, 52, 100
6, 129408, Note_off_c, 4, 52, 74
6, 129408, Note_on_c, 4, 52, 100
6, 129504, Note_off_c, 4, 52, 79
6, 129600, Note_on_c, 4, 52, 100
6, 129888, Note_off_c, 4, 52, 93
6, 129984, Note_on_c, 4, 50, 100
6, 130158, Note_off_c, 4, 50, 72
6, 130176, Note_on_c, 4, 50, 100
6, 130368, Note_on_c, 4, 48, 100
6, 130374, Note_off_c, 4, 50, 72
6, 130560, Note_off_c, 4, 48, 72
6, 130560, Note_on_c, 4, 43, 95
6, 130848, Note_off_c, 4, 43, 72
6, 130944, Note_on_c, 4, 43, 95
6, 131136, Note_off_c, 4, 43, 123
6, 131136, Note_on_c, 4, 43, 95
6, 131334, Note_off_c, 4, 43, 123
6, 131520, Note_on_c, 4, 48, 95
6, 131616, Note_off_c, 4, 48, 75
6, 131712, Note_on_c, 4, 48, 95
6, 132000, Note_off_c, 4, 48, 68
6, 132096, Note_on_c, 4, 52, 95
6, 132288, Note_off_c, 4, 52, 76
6, 132384, Note_on_c, 4, 52, 95
6, 132480, Note_off_c, 4, 52, 74
6, 132480, Note_on_c, 4, 52, 95
6, 132576, Note_off_c, 4, 52, 79
6, 132672, Note_on_c, 4, 52, 95
6, 132960, Note_off_c, 4, 52, 93
6, 133056, Note_on_c, 4, 50, 95
6, 133230, Note_off_c, 4, 50, 72
6, 133248, Note_on_c, 4, 50, 95
6, 133440, Note_on_c, 4, 48, 95
6, 133446, Note_off_c, 4, 50, 72
6, 133632, Note_off_c, 4, 48, 72
6, 133632, Note_on_c, 4, 43, 95
6, 133920, Note_off_c, 4, 43, 72
6, 134016, Note_on_c, 4, 43, 95
6, 134208, Note_off_c, 4, 43, 123
6, 134208, Note_on_c, 4, 43, 95
6, 134406, Note_off_c, 4, 43, 123
6, 134592, Note_on_c, 4, 48, 95
6, 134688, Note_off_c, 4, 48, 75
6, 134784, Note_on_c, 4, 48, 95
6, 135072, Note_off_c, 4, 48, 68
6, 135168, Note_on_c, 4, 52, 95
6, 135216, Control_c, 4, 11, 120
6, 135360, Note_off_c, 4, 52, 76
6, 135456, Note_on_c, 4, 52, 95
6, 135544, Control_c, 4, 11, 115
6, 135552, Note_off_c, 4, 52, 74
6, 135552, Note_on_c, 4, 52, 95
6, 135648, Note_off_c, 4, 52, 79
6, 135744, Note_on_c, 4, 52, 95
6, 135936, Control_c, 4, 11, 110
6, 136032, Note_off_c, 4, 52, 93
6, 136128, Note_on_c, 4, 50, 95
6, 136302, Note_off_c, 4, 50, 72
6, 136312, Control_c, 4, 11, 105
6, 136320, Note_on_c, 4, 50, 95
6, 136512, Note_on_c, 4, 48, 95
6, 136518, Note_off_c, 4, 50, 72
6, 136704, Note_off_c, 4, 48, 72
6, 136704, Note_on_c, 4, 43, 95
6, 136704, Control_c, 4, 11, 100
6, 136992, Note_off_c, 4, 43, 72
6, 137088, Note_on_c, 4, 43, 95
6, 137088, Control_c, 4, 11, 95
6, 137280, Note_off_c, 4, 43, 123
6, 137280, Note_on_c, 4, 43, 95
6, 137464, Control_c, 4, 11, 90
6, 137478, Note_off_c, 4, 43, 123
6, 137664, Note_on_c, 4, 48, 95
6, 137760, Note_off_c, 4, 48, 75
6, 137856, Note_on_c, 4, 48, 95
6, 137864, Control_c, 4, 11, 85
6, 138144, Note_off_c, 4, 48, 68
6, 138240, Note_on_c, 4, 52, 95
6, 138248, Control_c, 4, 11, 80
6, 138432, Note_off_c, 4, 52, 76
6, 138528, Note_on_c, 4, 52, 95
6, 138616, Control_c, 4, 11, 75
6, 138624, Note_off_c, 4, 52, 74
6, 138624, Note_on_c, 4, 52, 95
6, 138720, Note_off_c, 4, 52, 79
6, 138816, Note_on_c, 4, 52, 95
6, 139000, Control_c, 4, 11, 70
6, 139104, Note_off_c, 4, 52, 93
6, 139200, Note_on_c, 4, 50, 95
6, 139374, Note_off_c, 4, 50, 72
6, 139392, Note_on_c, 4, 50, 95
6, 139392, Control_c, 4, 11, 65
6, 139584, Note_on_c, 4, 48, 95
6, 139590, Note_off_c, 4, 50, 72
6, 139776, Note_off_c, 4, 48, 72
6, 139776, Note_on_c, 4, 43, 95
6, 139784, Control_c, 4, 11, 60
6, 140064, Note_off_c, 4, 43, 72
6, 140160, Note_on_c, 4, 43, 95
6, 140160, Control_c, 4, 11, 55
6, 140352, Note_off_c, 4, 43, 123
6, 140352, Note_on_c, 4, 43, 95
6, 140536, Control_c, 4, 11, 50
6, 140550, Note_off_c, 4, 43, 123
6, 140736, Note_on_c, 4, 48, 95
6, 140832, Note_off_c, 4, 48, 75
6, 140928, Note_on_c, 4, 48, 95
6, 140936, Control_c, 4, 11, 45
6, 141216, Note_off_c, 4, 48, 68
6, 141312, Note_on_c, 4, 52, 95
6, 141312, Control_c, 4, 11, 40
6, 141504, Note_off_c, 4, 52, 76
6, 141600, Note_on_c, 4, 52, 95
6, 141696, Note_off_c, 4, 52, 74
6, 141696, Note_on_c, 4, 52, 95
6, 141696, Control_c, 4, 11, 35
6, 141792, Note_off_c, 4, 52, 79
6, 141888, Note_on_c, 4, 52, 95
6, 142072, Control_c, 4, 11, 30
6, 142176, Note_off_c, 4, 52, 93
6, 142272, Note_on_c, 4, 50, 95
6, 142446, Note_off_c, 4, 50, 72
6, 142464, Note_on_c, 4, 50, 95
6, 142472, Control_c, 4, 11, 25
6, 142656, Note_on_c, 4, 48, 95
6, 142662, Note_off_c, 4, 50, 72
6, 142840, Control_c, 4, 11, 20
6, 142848, Note_off_c, 4, 48, 72
6, 142848, Note_on_c, 4, 43, 95
6, 143136, Note_off_c, 4, 43, 72
6, 143232, Note_on_c, 4, 43, 95
6, 143232, Control_c, 4, 11, 15
6, 143424, Note_off_c, 4, 43, 123
6, 143424, Note_on_c, 4, 43, 95
6, 143616, Control_c, 4, 11, 10
6, 143622, Note_off_c, 4, 43, 123
6, 143808, Note_on_c, 4, 48, 95
6, 143904, Note_off_c, 4, 48, 75
6, 143992, Control_c, 4, 11, 5
6, 144000, Note_on_c, 4, 48, 95
6, 144288, Note_off_c, 4, 48, 68
6, 144344, Control_c, 4, 11, 0
6, 144384, Control_c, 4, 11, 127
6, 145920, End_track
7, 0, Start_track
7, 0, Title_t, "Lead 1"
7, 648, Control_c, 5, 121, 0
7, 720, Program_c, 5, 30
7, 768, Control_c, 5, 0, 8
7, 840, Control_c, 5, 32, 0
7, 888, Control_c, 5, 7, 127
7, 936, Control_c, 5, 10, 64
7, 1008, Control_c, 5, 1, 0
7, 1104, Control_c, 5, 91, 127
7, 1200, Control_c, 5, 93, 0
7, 1280, Control_c, 5, 2, 0
7, 27648, Note_on_c, 5, 72, 117
7, 27840, Control_c, 5, 1, 2
7, 27861, Control_c, 5, 1, 1
7, 27866, Control_c, 5, 1, 8
7, 27866, Control_c, 5, 1, 5
7, 27871, Control_c, 5, 1, 11
7, 27872, Control_c, 5, 1, 13
7, 27879, Control_c, 5, 1, 16
7, 27880, Control_c, 5, 1, 19
7, 27884, Control_c, 5, 1, 22
7, 27886, Control_c, 5, 1, 26
7, 27890, Control_c, 5, 1, 28
7, 27892, Control_c, 5, 1, 30
7, 27896, Control_c, 5, 1, 34
7, 27897, Control_c, 5, 1, 37
7, 27902, Control_c, 5, 1, 41
7, 27902, Control_c, 5, 1, 39
7, 27907, Control_c, 5, 1, 42
7, 27908, Control_c, 5, 1, 44
7, 27913, Control_c, 5, 1, 45
7, 27914, Control_c, 5, 1, 46
7, 27920, Control_c, 5, 1, 49
7, 27920, Control_c, 5, 1, 47
7, 27926, Control_c, 5, 1, 51
7, 27926, Control_c, 5, 1, 50
7, 27932, Control_c, 5, 1, 54
7, 27932, Control_c, 5, 1, 53
7, 27937, Control_c, 5, 1, 56
7, 27939, Control_c, 5, 1, 57
7, 27943, Control_c, 5, 1, 58
7, 27945, Control_c, 5, 1, 60
7, 27949, Control_c, 5, 1, 62
7, 27950, Control_c, 5, 1, 63
7, 27956, Control_c, 5, 1, 65
7, 27956, Control_c, 5, 1, 64
7, 27962, Control_c, 5, 1, 66
7, 27967, Control_c, 5, 1, 68
7, 27967, Control_c, 5, 1, 67
7, 27973, Control_c, 5, 1, 70
7, 27973, Control_c, 5, 1, 69
7, 27979, Control_c, 5, 1, 71
7, 27991, Control_c, 5, 1, 72
7, 28002, Control_c, 5, 1, 73
7, 28003, Control_c, 5, 1, 74
7, 28014, Control_c, 5, 1, 75
7, 28016, Control_c, 5, 1, 76
7, 28026, Control_c, 5, 1, 77
7, 28027, Control_c, 5, 1, 78
7, 28032, Control_c, 5, 1, 79
7, 28051, Control_c, 5, 1, 80
7, 28062, Control_c, 5, 1, 81
7, 28075, Control_c, 5, 1, 82
7, 28079, Control_c, 5, 1, 83
7, 28091, Control_c, 5, 1, 84
7, 28104, Control_c, 5, 1, 85
7, 28127, Control_c, 5, 1, 84
7, 28138, Control_c, 5, 1, 83
7, 28145, Control_c, 5, 1, 82
7, 28151, Control_c, 5, 1, 81
7, 28158, Control_c, 5, 1, 80
7, 28164, Control_c, 5, 1, 79
7, 28168, Control_c, 5, 1, 78
7, 28174, Control_c, 5, 1, 77
7, 28175, Control_c, 5, 1, 76
7, 28181, Control_c, 5, 1, 73
7, 28181, Control_c, 5, 1, 74
7, 28187, Control_c, 5, 1, 70
7, 28187, Control_c, 5, 1, 71
7, 28193, Control_c, 5, 1, 67
7, 28193, Control_c, 5, 1, 68
7, 28198, Control_c, 5, 1, 66
7, 28200, Control_c, 5, 1, 65
7, 28216, Control_c, 5, 1, 62
7, 28216, Control_c, 5, 1, 63
7, 28221, Control_c, 5, 1, 60
7, 28222, Control_c, 5, 1, 58
7, 28226, Control_c, 5, 1, 54
7, 28226, Control_c, 5, 1, 56
7, 28234, Control_c, 5, 1, 52
7, 28236, Control_c, 5, 1, 50
7, 28238, Control_c, 5, 1, 47
7, 28240, Control_c, 5, 1, 45
7, 28245, Control_c, 5, 1, 41
7, 28247, Control_c, 5, 1, 38
7, 28252, Control_c, 5, 1, 29
7, 28252, Control_c, 5, 1, 34
7, 28257, Control_c, 5, 1, 26
7, 28258, Control_c, 5, 1, 23
7, 28264, Control_c, 5, 1, 11
7, 28264, Control_c, 5, 1, 17
7, 28270, Control_c, 5, 1, 0
7, 28270, Control_c, 5, 1, 4
7, 28416, Note_off_c, 5, 72, 84
7, 28416, Note_on_c, 5, 71, 127
7, 28795, Pitch_bend_c, 5, 9220
7, 28800, Pitch_bend_c, 5, 10280
7, 28805, Pitch_bend_c, 5, 8770
7, 28806, Pitch_bend_c, 5, 10762
7, 28810, Pitch_bend_c, 5, 10248
7, 28812, Pitch_bend_c, 5, 11083
7, 28816, Pitch_bend_c, 5, 10440
7, 28819, Pitch_bend_c, 5, 11211
7, 28823, Pitch_bend_c, 5, 11276
7, 28823, Pitch_bend_c, 5, 10665
7, 28828, Pitch_bend_c, 5, 10794
7, 28831, Pitch_bend_c, 5, 11404
7, 28833, Pitch_bend_c, 5, 10986
7, 28836, Pitch_bend_c, 5, 11468
7, 28841, Pitch_bend_c, 5, 11147
7, 28842, Pitch_bend_c, 5, 11533
7, 28846, Pitch_bend_c, 5, 11276
7, 28847, Pitch_bend_c, 5, 11565
7, 28852, Pitch_bend_c, 5, 11404
7, 28853, Pitch_bend_c, 5, 11597
7, 28858, Pitch_bend_c, 5, 11500
7, 28861, Pitch_bend_c, 5, 11629
7, 28863, Pitch_bend_c, 5, 11565
7, 28866, Pitch_bend_c, 5, 11693
7, 28871, Pitch_bend_c, 5, 11725
7, 28871, Pitch_bend_c, 5, 11597
7, 28876, Pitch_bend_c, 5, 11629
7, 28877, Pitch_bend_c, 5, 11757
7, 28882, Pitch_bend_c, 5, 11661
7, 28884, Pitch_bend_c, 5, 11790
7, 28889, Pitch_bend_c, 5, 11822
7, 28894, Pitch_bend_c, 5, 11693
7, 28899, Pitch_bend_c, 5, 11725
7, 28902, Pitch_bend_c, 5, 11854
7, 28905, Pitch_bend_c, 5, 11757
7, 28908, Pitch_bend_c, 5, 11886
7, 28918, Pitch_bend_c, 5, 11790
7, 28919, Pitch_bend_c, 5, 11918
7, 28924, Pitch_bend_c, 5, 11822
7, 28935, Pitch_bend_c, 5, 11854
7, 28948, Pitch_bend_c, 5, 11886
7, 28961, Pitch_bend_c, 5, 11854
7, 28964, Pitch_bend_c, 5, 11822
7, 28967, Pitch_bend_c, 5, 11822
7, 28971, Pitch_bend_c, 5, 11757
7, 28972, Pitch_bend_c, 5, 11725
7, 28977, Pitch_bend_c, 5, 11693
7, 28978, Pitch_bend_c, 5, 11597
7, 28981, Pitch_bend_c, 5, 11597
7, 28983, Pitch_bend_c, 5, 11404
7, 28988, Pitch_bend_c, 5, 11533
7, 28990, Pitch_bend_c, 5, 10890
7, 28993, Pitch_bend_c, 5, 11340
7, 28995, Pitch_bend_c, 5, 9991
7, 29000, Pitch_bend_c, 5, 10986
7, 29003, Pitch_bend_c, 5, 8738
7, 29007, Pitch_bend_c, 5, 10376
7, 29008, Pitch_bend_c, 5, 8192
7, 29013, Pitch_bend_c, 5, 9220
7, 29018, Pitch_bend_c, 5, 8192
7, 29184, Note_off_c, 5, 71, 84
7, 29184, Note_on_c, 5, 69, 126
7, 29930, Note_off_c, 5, 69, 88
7, 29952, Note_on_c, 5, 72, 127
7, 30144, Note_off_c, 5, 72, 77
7, 30144, Note_on_c, 5, 71, 127
7, 30336, Note_off_c, 5, 71, 93
7, 30336, Note_on_c, 5, 69, 127
7, 30399, Pitch_bend_c, 5, 8866
7, 30405, Pitch_bend_c, 5, 12047
7, 30409, Pitch_bend_c, 5, 8834
7, 30410, Pitch_bend_c, 5, 16383
7, 30415, Pitch_bend_c, 5, 10440
7, 30420, Pitch_bend_c, 5, 12014
7, 30426, Pitch_bend_c, 5, 13621
7, 30431, Pitch_bend_c, 5, 16383
7, 30509, Pitch_bend_c, 5, 15580
7, 30515, Pitch_bend_c, 5, 12882
7, 30516, Pitch_bend_c, 5, 13332
7, 30521, Pitch_bend_c, 5, 9926
7, 30522, Pitch_bend_c, 5, 11276
7, 30526, Pitch_bend_c, 5, 8192
7, 30528, Pitch_bend_c, 5, 9252
7, 30535, Pitch_bend_c, 5, 8192
7, 30717, Note_off_c, 5, 69, 127
7, 30720, Note_on_c, 5, 67, 112
7, 32265, Control_c, 5, 1, 1
7, 32276, Control_c, 5, 1, 2
7, 32300, Control_c, 5, 1, 4
7, 32300, Control_c, 5, 1, 3
7, 32312, Control_c, 5, 1, 5
7, 32318, Control_c, 5, 1, 6
7, 32324, Control_c, 5, 1, 7
7, 32337, Control_c, 5, 1, 8
7, 32341, Control_c, 5, 1, 9
7, 32347, Control_c, 5, 1, 10
7, 32352, Control_c, 5, 1, 11
7, 32365, Control_c, 5, 1, 13
7, 32365, Control_c, 5, 1, 12
7, 32378, Control_c, 5, 1, 14
7, 32401, Control_c, 5, 1, 15
7, 32407, Control_c, 5, 1, 16
7, 32420, Control_c, 5, 1, 17
7, 32426, Control_c, 5, 1, 18
7, 32430, Control_c, 5, 1, 19
7, 32431, Control_c, 5, 1, 20
7, 32436, Control_c, 5, 1, 21
7, 32441, Control_c, 5, 1, 22
7, 32442, Control_c, 5, 1, 23
7, 32449, Control_c, 5, 1, 24
7, 32454, Control_c, 5, 1, 25
7, 32466, Control_c, 5, 1, 26
7, 32471, Control_c, 5, 1, 27
7, 32473, Control_c, 5, 1, 28
7, 32477, Control_c, 5, 1, 29
7, 32479, Control_c, 5, 1, 30
7, 32484, Control_c, 5, 1, 31
7, 32496, Control_c, 5, 1, 32
7, 32507, Control_c, 5, 1, 33
7, 32519, Control_c, 5, 1, 34
7, 32530, Control_c, 5, 1, 35
7, 32555, Control_c, 5, 1, 36
7, 32596, Control_c, 5, 1, 37
7, 32613, Control_c, 5, 1, 38
7, 32649, Control_c, 5, 1, 39
7, 32672, Control_c, 5, 1, 40
7, 32684, Control_c, 5, 1, 41
7, 32695, Control_c, 5, 1, 42
7, 32704, Control_c, 5, 1, 43
7, 32721, Control_c, 5, 1, 44
7, 32732, Control_c, 5, 1, 45
7, 32768, Control_c, 5, 1, 46
7, 32797, Control_c, 5, 1, 47
7, 32804, Control_c, 5, 1, 48
7, 32820, Control_c, 5, 1, 49
7, 32856, Control_c, 5, 1, 50
7, 32863, Control_c, 5, 1, 51
7, 32874, Control_c, 5, 1, 52
7, 32887, Control_c, 5, 1, 53
7, 32899, Control_c, 5, 1, 54
7, 32935, Control_c, 5, 1, 55
7, 32965, Control_c, 5, 1, 56
7, 32982, Control_c, 5, 1, 57
7, 33059, Control_c, 5, 1, 58
7, 33088, Control_c, 5, 1, 59
7, 33183, Control_c, 5, 1, 60
7, 33253, Control_c, 5, 1, 61
7, 33491, Control_c, 5, 1, 62
7, 33550, Control_c, 5, 1, 63
7, 33775, Control_c, 5, 1, 64
7, 33894, Control_c, 5, 1, 65
7, 34077, Control_c, 5, 1, 64
7, 34099, Control_c, 5, 1, 65
7, 34236, Control_c, 5, 1, 66
7, 34272, Control_c, 5, 1, 65
7, 34509, Control_c, 5, 1, 66
7, 34556, Control_c, 5, 1, 67
7, 34745, Control_c, 5, 1, 68
7, 34792, Control_c, 5, 1, 67
7, 34834, Control_c, 5, 1, 68
7, 34940, Control_c, 5, 1, 67
7, 35010, Control_c, 5, 1, 66
7, 35016, Control_c, 5, 1, 65
7, 35018, Control_c, 5, 1, 64
7, 35023, Control_c, 5, 1, 63
7, 35028, Control_c, 5, 1, 62
7, 35033, Control_c, 5, 1, 61
7, 35034, Control_c, 5, 1, 60
7, 35040, Control_c, 5, 1, 58
7, 35040, Control_c, 5, 1, 59
7, 35046, Control_c, 5, 1, 57
7, 35052, Control_c, 5, 1, 56
7, 35058, Control_c, 5, 1, 55
7, 35059, Control_c, 5, 1, 54
7, 35063, Control_c, 5, 1, 53
7, 35069, Control_c, 5, 1, 52
7, 35076, Control_c, 5, 1, 50
7, 35076, Control_c, 5, 1, 51
7, 35082, Control_c, 5, 1, 48
7, 35082, Control_c, 5, 1, 49
7, 35086, Control_c, 5, 1, 47
7, 35094, Control_c, 5, 1, 45
7, 35094, Control_c, 5, 1, 46
7, 35101, Control_c, 5, 1, 44
7, 35106, Control_c, 5, 1, 43
7, 35111, Control_c, 5, 1, 42
7, 35116, Control_c, 5, 1, 41
7, 35117, Control_c, 5, 1, 39
7, 35122, Control_c, 5, 1, 38
7, 35128, Control_c, 5, 1, 37
7, 35129, Control_c, 5, 1, 36
7, 35135, Control_c, 5, 1, 35
7, 35137, Control_c, 5, 1, 34
7, 35139, Control_c, 5, 1, 33
7, 35142, Control_c, 5, 1, 32
7, 35147, Control_c, 5, 1, 31
7, 35152, Control_c, 5, 1, 30
7, 35190, Control_c, 5, 1, 29
7, 35194, Control_c, 5, 1, 27
7, 35194, Control_c, 5, 1, 28
7, 35207, Control_c, 5, 1, 25
7, 35207, Control_c, 5, 1, 26
7, 35213, Control_c, 5, 1, 24
7, 35218, Control_c, 5, 1, 22
7, 35218, Control_c, 5, 1, 23
7, 35225, Control_c, 5, 1, 21
7, 35231, Control_c, 5, 1, 20
7, 35264, Control_c, 5, 1, 19
7, 35265, Control_c, 5, 1, 16
7, 35265, Control_c, 5, 1, 17
7, 35277, Control_c, 5, 1, 12
7, 35277, Control_c, 5, 1, 14
7, 35283, Control_c, 5, 1, 10
7, 35284, Control_c, 5, 1, 9
7, 35288, Control_c, 5, 1, 8
7, 35294, Control_c, 5, 1, 7
7, 35295, Control_c, 5, 1, 6
7, 35301, Control_c, 5, 1, 5
7, 35306, Control_c, 5, 1, 4
7, 35354, Control_c, 5, 1, 3
7, 35360, Control_c, 5, 1, 2
7, 35366, Control_c, 5, 1, 1
7, 35372, Control_c, 5, 1, 0
7, 35726, Control_c, 5, 11, 120
7, 36094, Control_c, 5, 11, 110
7, 36494, Control_c, 5, 11, 100
7, 36878, Control_c, 5, 11, 90
7, 37230, Control_c, 5, 11, 80
7, 37550, Control_c, 5, 11, 60
7, 37806, Control_c, 5, 11, 40
7, 37998, Control_c, 5, 11, 20
7, 38304, Note_off_c, 5, 67, 64
7, 38366, Control_c, 5, 11, 127
7, 57216, Note_on_c, 5, 61, 119
7, 57600, Note_off_c, 5, 61, 64
7, 57600, Note_on_c, 5, 62, 119
7, 57984, Note_off_c, 5, 62, 64
7, 57984, Note_on_c, 5, 64, 119
7, 58368, Note_off_c, 5, 64, 64
7, 58368, Note_on_c, 5, 66, 119
7, 58589, Control_c, 5, 1, 1
7, 58593, Control_c, 5, 1, 3
7, 58595, Control_c, 5, 1, 4
7, 58599, Control_c, 5, 1, 6
7, 58600, Control_c, 5, 1, 9
7, 58605, Control_c, 5, 1, 14
7, 58605, Control_c, 5, 1, 11
7, 58610, Control_c, 5, 1, 17
7, 58612, Control_c, 5, 1, 20
7, 58617, Control_c, 5, 1, 24
7, 58617, Control_c, 5, 1, 22
7, 58623, Control_c, 5, 1, 28
7, 58623, Control_c, 5, 1, 26
7, 58629, Control_c, 5, 1, 30
7, 58630, Control_c, 5, 1, 32
7, 58633, Control_c, 5, 1, 34
7, 58636, Control_c, 5, 1, 36
7, 58640, Control_c, 5, 1, 38
7, 58641, Control_c, 5, 1, 41
7, 58646, Control_c, 5, 1, 43
7, 58647, Control_c, 5, 1, 45
7, 58652, Control_c, 5, 1, 47
7, 58653, Control_c, 5, 1, 50
7, 58662, Control_c, 5, 1, 54
7, 58662, Control_c, 5, 1, 52
7, 58663, Control_c, 5, 1, 57
7, 58663, Control_c, 5, 1, 56
7, 58671, Control_c, 5, 1, 61
7, 58671, Control_c, 5, 1, 59
7, 58676, Control_c, 5, 1, 63
7, 58678, Control_c, 5, 1, 65
7, 58682, Control_c, 5, 1, 69
7, 58682, Control_c, 5, 1, 67
7, 58688, Control_c, 5, 1, 73
7, 58688, Control_c, 5, 1, 71
7, 58695, Control_c, 5, 1, 75
7, 58695, Control_c, 5, 1, 74
7, 58701, Control_c, 5, 1, 78
7, 58701, Control_c, 5, 1, 77
7, 58706, Control_c, 5, 1, 81
7, 58706, Control_c, 5, 1, 79
7, 58712, Control_c, 5, 1, 83
7, 58714, Control_c, 5, 1, 84
7, 58718, Control_c, 5, 1, 87
7, 58718, Control_c, 5, 1, 85
7, 58724, Control_c, 5, 1, 91
7, 58724, Control_c, 5, 1, 89
7, 58729, Control_c, 5, 1, 93
7, 58730, Control_c, 5, 1, 97
7, 58735, Control_c, 5, 1, 101
7, 58736, Control_c, 5, 1, 105
7, 58741, Control_c, 5, 1, 111
7, 58741, Control_c, 5, 1, 107
7, 58748, Control_c, 5, 1, 117
7, 58748, Control_c, 5, 1, 115
7, 58754, Control_c, 5, 1, 119
7, 58755, Control_c, 5, 1, 121
7, 58759, Control_c, 5, 1, 123
7, 58761, Control_c, 5, 1, 125
7, 58765, Control_c, 5, 1, 127
7, 58886, Control_c, 5, 1, 117
7, 58888, Control_c, 5, 1, 105
7, 58890, Control_c, 5, 1, 91
7, 58896, Control_c, 5, 1, 80
7, 58897, Control_c, 5, 1, 70
7, 58901, Control_c, 5, 1, 57
7, 58903, Control_c, 5, 1, 43
7, 58907, Control_c, 5, 1, 28
7, 58908, Control_c, 5, 1, 13
7, 58914, Control_c, 5, 1, 0
7, 58914, Control_c, 5, 1, 4
7, 58944, Note_off_c, 5, 66, 64
7, 58944, Note_on_c, 5, 66, 119
7, 59136, Note_off_c, 5, 66, 64
7, 59136, Note_on_c, 5, 67, 119
7, 59328, Note_off_c, 5, 67, 64
7, 59328, Note_on_c, 5, 66, 117
7, 59340, Control_c, 5, 84, 66
7, 59396, Pitch_bend_c, 5, 9316
7, 59400, Pitch_bend_c, 5, 13203
7, 59408, Pitch_bend_c, 5, 13299
7, 59412, Pitch_bend_c, 5, 13460
7, 59420, Pitch_bend_c, 5, 13524
7, 59424, Pitch_bend_c, 5, 11790
7, 59432, Pitch_bend_c, 5, 7677
7, 59436, Pitch_bend_c, 5, 6585
7, 59444, Pitch_bend_c, 5, 8192
7, 59520, Note_off_c, 5, 66, 64
7, 59520, Note_on_c, 5, 64, 119
7, 59712, Note_off_c, 5, 64, 64
7, 59712, Note_on_c, 5, 62, 119
7, 59904, Note_off_c, 5, 62, 64
7, 59904, Note_on_c, 5, 69, 124
7, 59962, Control_c, 5, 1, 3
7, 59966, Control_c, 5, 1, 4
7, 59968, Control_c, 5, 1, 5
7, 59972, Control_c, 5, 1, 9
7, 59972, Control_c, 5, 1, 7
7, 59978, Control_c, 5, 1, 11
7, 59979, Control_c, 5, 1, 14
7, 59984, Control_c, 5, 1, 17
7, 59985, Control_c, 5, 1, 20
7, 59991, Control_c, 5, 1, 25
7, 59991, Control_c, 5, 1, 23
7, 59997, Control_c, 5, 1, 28
7, 59998, Control_c, 5, 1, 31
7, 60002, Control_c, 5, 1, 33
7, 60004, Control_c, 5, 1, 36
7, 60008, Control_c, 5, 1, 39
7, 60009, Control_c, 5, 1, 42
7, 60014, Control_c, 5, 1, 45
7, 60015, Control_c, 5, 1, 47
7, 60020, Control_c, 5, 1, 52
7, 60020, Control_c, 5, 1, 50
7, 60025, Control_c, 5, 1, 54
7, 60026, Control_c, 5, 1, 56
7, 60031, Control_c, 5, 1, 58
7, 60034, Control_c, 5, 1, 61
7, 60037, Control_c, 5, 1, 63
7, 60038, Control_c, 5, 1, 66
7, 60044, Control_c, 5, 1, 70
7, 60044, Control_c, 5, 1, 68
7, 60050, Control_c, 5, 1, 74
7, 60050, Control_c, 5, 1, 72
7, 60055, Control_c, 5, 1, 78
7, 60055, Control_c, 5, 1, 76
7, 60062, Control_c, 5, 1, 82
7, 60062, Control_c, 5, 1, 80
7, 60068, Control_c, 5, 1, 85
7, 60068, Control_c, 5, 1, 84
7, 60074, Control_c, 5, 1, 89
7, 60074, Control_c, 5, 1, 87
7, 60080, Control_c, 5, 1, 95
7, 60080, Control_c, 5, 1, 91
7, 60085, Control_c, 5, 1, 97
7, 60087, Control_c, 5, 1, 99
7, 60091, Control_c, 5, 1, 103
7, 60093, Control_c, 5, 1, 105
7, 60097, Control_c, 5, 1, 109
7, 60098, Control_c, 5, 1, 111
7, 60104, Control_c, 5, 1, 117
7, 60104, Control_c, 5, 1, 115
7, 60110, Control_c, 5, 1, 121
7, 60110, Control_c, 5, 1, 119
7, 60114, Control_c, 5, 1, 123
7, 60116, Control_c, 5, 1, 125
7, 60121, Control_c, 5, 1, 127
7, 60299, Control_c, 5, 1, 123
7, 60303, Control_c, 5, 1, 107
7, 60304, Control_c, 5, 1, 93
7, 60311, Control_c, 5, 1, 67
7, 60311, Control_c, 5, 1, 79
7, 60316, Control_c, 5, 1, 52
7, 60318, Control_c, 5, 1, 35
7, 60322, Control_c, 5, 1, 21
7, 60323, Control_c, 5, 1, 8
7, 60328, Control_c, 5, 1, 0
7, 60328, Control_c, 5, 1, 1
7, 60479, Note_off_c, 5, 69, 80
7, 60480, Note_on_c, 5, 62, 119
7, 60672, Note_off_c, 5, 62, 64
7, 60672, Note_on_c, 5, 67, 119
7, 60864, Note_off_c, 5, 67, 64
7, 60864, Note_on_c, 5, 66, 119
7, 61056, Note_off_c, 5, 66, 64
7, 61056, Note_on_c, 5, 64, 119
7, 61114, Pitch_bend_c, 5, 8513
7, 61118, Pitch_bend_c, 5, 12753
7, 61126, Pitch_bend_c, 5, 16383
7, 61162, Pitch_bend_c, 5, 8192
7, 61166, Pitch_bend_c, 5, 3308
7, 61170, Pitch_bend_c, 5, 8192
7, 61178, Pitch_bend_c, 5, 9477
7, 61186, Pitch_bend_c, 5, 8192
7, 61248, Note_off_c, 5, 64, 64
7, 61248, Note_on_c, 5, 62, 119
7, 61440, Note_off_c, 5, 62, 64
7, 61440, Note_on_c, 5, 64, 119
7, 61632, Note_off_c, 5, 64, 64
7, 61632, Note_on_c, 5, 66, 119
7, 62016, Note_off_c, 5, 66, 64
7, 62016, Note_on_c, 5, 62, 119
7, 62208, Note_off_c, 5, 62, 64
7, 62208, Note_on_c, 5, 67, 119
7, 62400, Note_on_c, 5, 66, 119
7, 62406, Note_off_c, 5, 67, 64
7, 62472, Pitch_bend_c, 5, 11854
7, 62480, Pitch_bend_c, 5, 13492
7, 62488, Pitch_bend_c, 5, 13717
7, 62492, Pitch_bend_c, 5, 13364
7, 62496, Pitch_bend_c, 5, 8192
7, 62504, Pitch_bend_c, 5, 5172
7, 62508, Pitch_bend_c, 5, 8192
7, 62592, Note_off_c, 5, 66, 64
7, 62592, Note_on_c, 5, 64, 119
7, 62784, Note_off_c, 5, 64, 64
7, 62784, Note_on_c, 5, 62, 119
7, 62976, Note_off_c, 5, 62, 64
7, 62976, Note_on_c, 5, 64, 111
7, 63007, Pitch_bend_c, 5, 12657
7, 63013, Pitch_bend_c, 5, 16383
7, 63138, Pitch_bend_c, 5, 14424
7, 63143, Pitch_bend_c, 5, 12143
7, 63149, Pitch_bend_c, 5, 9894
7, 63155, Pitch_bend_c, 5, 8192
7, 63168, Note_off_c, 5, 64, 91
7, 63168, Note_on_c, 5, 64, 119
7, 63360, Note_off_c, 5, 64, 64
7, 63360, Note_on_c, 5, 62, 119
7, 63552, Note_off_c, 5, 62, 64
7, 63552, Note_on_c, 5, 61, 119
7, 63936, Note_off_c, 5, 61, 64
7, 63936, Note_on_c, 5, 57, 119
7, 64320, Note_off_c, 5, 57, 64
7, 64320, Note_on_c, 5, 64, 119
7, 64512, Note_off_c, 5, 64, 64
7, 64512, Note_on_c, 5, 66, 119
7, 64653, Control_c, 5, 1, 1
7, 64654, Control_c, 5, 1, 2
7, 64659, Control_c, 5, 1, 4
7, 64660, Control_c, 5, 1, 6
7, 64664, Control_c, 5, 1, 8
7, 64665, Control_c, 5, 1, 10
7, 64670, Control_c, 5, 1, 12
7, 64671, Control_c, 5, 1, 14
7, 64676, Control_c, 5, 1, 17
7, 64677, Control_c, 5, 1, 19
7, 64682, Control_c, 5, 1, 21
7, 64683, Control_c, 5, 1, 23
7, 64689, Control_c, 5, 1, 27
7, 64689, Control_c, 5, 1, 25
7, 64694, Control_c, 5, 1, 29
7, 64696, Control_c, 5, 1, 30
7, 64699, Control_c, 5, 1, 32
7, 64702, Control_c, 5, 1, 34
7, 64707, Control_c, 5, 1, 38
7, 64707, Control_c, 5, 1, 36
7, 64712, Control_c, 5, 1, 42
7, 64712, Control_c, 5, 1, 40
7, 64717, Control_c, 5, 1, 44
7, 64719, Control_c, 5, 1, 46
7, 64725, Control_c, 5, 1, 50
7, 64725, Control_c, 5, 1, 48
7, 64730, Control_c, 5, 1, 54
7, 64730, Control_c, 5, 1, 52
7, 64736, Control_c, 5, 1, 56
7, 64738, Control_c, 5, 1, 58
7, 64742, Control_c, 5, 1, 61
7, 64743, Control_c, 5, 1, 63
7, 64748, Control_c, 5, 1, 67
7, 64748, Control_c, 5, 1, 65
7, 64753, Control_c, 5, 1, 69
7, 64754, Control_c, 5, 1, 71
7, 64760, Control_c, 5, 1, 75
7, 64760, Control_c, 5, 1, 73
7, 64766, Control_c, 5, 1, 79
7, 64766, Control_c, 5, 1, 77
7, 64770, Control_c, 5, 1, 81
7, 64773, Control_c, 5, 1, 83
7, 64776, Control_c, 5, 1, 85
7, 64779, Control_c, 5, 1, 86
7, 64783, Control_c, 5, 1, 87
7, 64785, Control_c, 5, 1, 89
7, 64789, Control_c, 5, 1, 93
7, 64790, Control_c, 5, 1, 95
7, 64796, Control_c, 5, 1, 101
7, 64796, Control_c, 5, 1, 99
7, 64801, Control_c, 5, 1, 105
7, 64802, Control_c, 5, 1, 107
7, 64808, Control_c, 5, 1, 113
7, 64808, Control_c, 5, 1, 109
7, 64813, Control_c, 5, 1, 119
7, 64813, Control_c, 5, 1, 117
7, 64819, Control_c, 5, 1, 121
7, 64821, Control_c, 5, 1, 123
7, 64825, Control_c, 5, 1, 127
7, 64825, Control_c, 5, 1, 125
7, 64986, Control_c, 5, 1, 115
7, 64990, Control_c, 5, 1, 95
7, 64991, Control_c, 5, 1, 81
7, 64997, Control_c, 5, 1, 57
7, 64997, Control_c, 5, 1, 69
7, 65003, Control_c, 5, 1, 41
7, 65004, Control_c, 5, 1, 26
7, 65007, Control_c, 5, 1, 15
7, 65010, Control_c, 5, 1, 4
7, 65014, Control_c, 5, 1, 0
7, 65088, Note_off_c, 5, 66, 64
7, 65088, Note_on_c, 5, 66, 119
7, 65280, Note_off_c, 5, 66, 64
7, 65280, Note_on_c, 5, 67, 119
7, 65472, Note_off_c, 5, 67, 64
7, 65472, Note_on_c, 5, 66, 117
7, 65524, Pitch_bend_c, 5, 9509
7, 65528, Pitch_bend_c, 5, 12207
7, 65536, Pitch_bend_c, 5, 12689
7, 65548, Pitch_bend_c, 5, 12721
7, 65560, Pitch_bend_c, 5, 12593
7, 65564, Pitch_bend_c, 5, 11565
7, 65572, Pitch_bend_c, 5, 8192
7, 65576, Pitch_bend_c, 5, 7067
7, 65580, Pitch_bend_c, 5, 8192
7, 65664, Note_off_c, 5, 66, 64
7, 65664, Note_on_c, 5, 64, 119
7, 65856, Note_off_c, 5, 64, 64
7, 65856, Note_on_c, 5, 62, 119
7, 66048, Note_off_c, 5, 62, 64
7, 66048, Note_on_c, 5, 71, 119
7, 66253, Control_c, 5, 1, 2
7, 66257, Control_c, 5, 1, 3
7, 66259, Control_c, 5, 1, 4
7, 66263, Control_c, 5, 1, 6
7, 66264, Control_c, 5, 1, 8
7, 66269, Control_c, 5, 1, 12
7, 66269, Control_c, 5, 1, 10
7, 66274, Control_c, 5, 1, 14
7, 66275, Control_c, 5, 1, 16
7, 66280, Control_c, 5, 1, 18
7, 66281, Control_c, 5, 1, 21
7, 66287, Control_c, 5, 1, 23
7, 66289, Control_c, 5, 1, 25
7, 66292, Control_c, 5, 1, 27
7, 66294, Control_c, 5, 1, 29
7, 66298, Control_c, 5, 1, 31
7, 66300, Control_c, 5, 1, 33
7, 66304, Control_c, 5, 1, 34
7, 66305, Control_c, 5, 1, 36
7, 66310, Control_c, 5, 1, 39
7, 66311, Control_c, 5, 1, 41
7, 66316, Control_c, 5, 1, 43
7, 66317, Control_c, 5, 1, 45
7, 66323, Control_c, 5, 1, 49
7, 66323, Control_c, 5, 1, 47
7, 66329, Control_c, 5, 1, 53
7, 66329, Control_c, 5, 1, 51
7, 66335, Control_c, 5, 1, 58
7, 66335, Control_c, 5, 1, 56
7, 66340, Control_c, 5, 1, 60
7, 66342, Control_c, 5, 1, 62
7, 66346, Control_c, 5, 1, 65
7, 66347, Control_c, 5, 1, 67
7, 66352, Control_c, 5, 1, 69
7, 66353, Control_c, 5, 1, 71
7, 66357, Control_c, 5, 1, 73
7, 66359, Control_c, 5, 1, 75
7, 66365, Control_c, 5, 1, 78
7, 66365, Control_c, 5, 1, 77
7, 66370, Control_c, 5, 1, 83
7, 66370, Control_c, 5, 1, 80
7, 66375, Control_c, 5, 1, 85
7, 66376, Control_c, 5, 1, 87
7, 66382, Control_c, 5, 1, 93
7, 66382, Control_c, 5, 1, 89
7, 66388, Control_c, 5, 1, 97
7, 66389, Control_c, 5, 1, 99
7, 66393, Control_c, 5, 1, 103
7, 66395, Control_c, 5, 1, 107
7, 66399, Control_c, 5, 1, 109
7, 66400, Control_c, 5, 1, 113
7, 66406, Control_c, 5, 1, 117
7, 66406, Control_c, 5, 1, 115
7, 66412, Control_c, 5, 1, 123
7, 66412, Control_c, 5, 1, 121
7, 66418, Control_c, 5, 1, 127
7, 66703, Control_c, 5, 1, 117
7, 66707, Control_c, 5, 1, 93
7, 66709, Control_c, 5, 1, 78
7, 66713, Control_c, 5, 1, 63
7, 66714, Control_c, 5, 1, 49
7, 66719, Control_c, 5, 1, 18
7, 66719, Control_c, 5, 1, 33
7, 66724, Control_c, 5, 1, 8
7, 66726, Control_c, 5, 1, 0
7, 66816, Note_off_c, 5, 71, 64
7, 66816, Note_on_c, 5, 69, 119
7, 67008, Note_off_c, 5, 69, 64
7, 67008, Note_on_c, 5, 67, 119
7, 67200, Note_off_c, 5, 67, 64
7, 67200, Note_on_c, 5, 66, 119
7, 67244, Pitch_bend_c, 5, 9252
7, 67252, Pitch_bend_c, 5, 11597
7, 67256, Pitch_bend_c, 5, 11725
7, 67264, Pitch_bend_c, 5, 11950
7, 67268, Pitch_bend_c, 5, 11982
7, 67276, Pitch_bend_c, 5, 11950
7, 67280, Pitch_bend_c, 5, 10248
7, 67288, Pitch_bend_c, 5, 7613
7, 67292, Pitch_bend_c, 5, 8192
7, 67392, Note_off_c, 5, 66, 64
7, 67392, Note_on_c, 5, 64, 119
7, 67584, Note_off_c, 5, 64, 64
7, 67584, Note_on_c, 5, 66, 119
7, 68160, Note_off_c, 5, 66, 64
7, 68160, Note_on_c, 5, 62, 119
7, 68352, Note_off_c, 5, 62, 64
7, 68352, Note_on_c, 5, 67, 119
7, 68544, Note_off_c, 5, 67, 64
7, 68544, Note_on_c, 5, 66, 119
7, 68736, Note_off_c, 5, 66, 64
7, 68736, Note_on_c, 5, 64, 119
7, 68795, Pitch_bend_c, 5, 9766
7, 68803, Pitch_bend_c, 5, 13299
7, 68807, Pitch_bend_c, 5, 16383
7, 68843, Pitch_bend_c, 5, 12625
7, 68847, Pitch_bend_c, 5, 6360
7, 68855, Pitch_bend_c, 5, 4754
7, 68859, Pitch_bend_c, 5, 8192
7, 68871, Pitch_bend_c, 5, 7420
7, 68879, Pitch_bend_c, 5, 8192
7, 68928, Note_off_c, 5, 64, 64
7, 68928, Note_on_c, 5, 62, 119
7, 69120, Note_off_c, 5, 62, 64
7, 69120, Note_on_c, 5, 64, 119
7, 69696, Note_off_c, 5, 64, 64
7, 69696, Note_on_c, 5, 62, 119
7, 69760, Control_c, 5, 84, 62
7, 69888, Note_off_c, 5, 62, 64
7, 69888, Note_on_c, 5, 66, 119
7, 70080, Note_on_c, 5, 64, 119
7, 70092, Note_off_c, 5, 66, 64
7, 70143, Pitch_bend_c, 5, 9926
7, 70147, Pitch_bend_c, 5, 13010
7, 70155, Pitch_bend_c, 5, 16383
7, 70195, Pitch_bend_c, 5, 15131
7, 70203, Pitch_bend_c, 5, 8192
7, 70207, Pitch_bend_c, 5, 3598
7, 70211, Pitch_bend_c, 5, 8192
7, 70219, Pitch_bend_c, 5, 7453
7, 70223, Pitch_bend_c, 5, 7999
7, 70231, Pitch_bend_c, 5, 8192
7, 70272, Note_off_c, 5, 64, 64
7, 70272, Note_on_c, 5, 62, 119
7, 70464, Note_off_c, 5, 62, 64
7, 70464, Note_on_c, 5, 61, 119
7, 70656, Note_off_c, 5, 61, 64
7, 70656, Note_on_c, 5, 62, 119
7, 71040, Note_off_c, 5, 62, 64
7, 71040, Note_on_c, 5, 74, 119
7, 71136, Note_off_c, 5, 74, 64
7, 71136, Note_on_c, 5, 73, 119
7, 71232, Note_off_c, 5, 73, 64
7, 71232, Note_on_c, 5, 71, 119
7, 71392, Pitch_bend_c, 5, 7228
7, 71397, Pitch_bend_c, 5, 6264
7, 71403, Pitch_bend_c, 5, 5364
7, 71409, Pitch_bend_c, 5, 4561
7, 71415, Pitch_bend_c, 5, 4047
7, 71421, Pitch_bend_c, 5, 3598
7, 71424, Note_off_c, 5, 71, 64
7, 71424, Note_on_c, 5, 71, 119
7, 71427, Pitch_bend_c, 5, 3405
7, 71432, Pitch_bend_c, 5, 3533
7, 71440, Pitch_bend_c, 5, 3983
7, 71445, Pitch_bend_c, 5, 4754
7, 71451, Pitch_bend_c, 5, 5846
7, 71455, Pitch_bend_c, 5, 7099
7, 71463, Pitch_bend_c, 5, 8192
7, 71602, Control_c, 5, 1, 2
7, 71606, Control_c, 5, 1, 3
7, 71607, Control_c, 5, 1, 5
7, 71612, Control_c, 5, 1, 9
7, 71612, Control_c, 5, 1, 7
7, 71619, Control_c, 5, 1, 14
7, 71619, Control_c, 5, 1, 12
7, 71625, Control_c, 5, 1, 19
7, 71625, Control_c, 5, 1, 17
7, 71630, Control_c, 5, 1, 24
7, 71630, Control_c, 5, 1, 21
7, 71636, Control_c, 5, 1, 28
7, 71636, Control_c, 5, 1, 26
7, 71642, Control_c, 5, 1, 30
7, 71643, Control_c, 5, 1, 32
7, 71647, Control_c, 5, 1, 34
7, 71649, Control_c, 5, 1, 36
7, 71653, Control_c, 5, 1, 38
7, 71654, Control_c, 5, 1, 40
7, 71659, Control_c, 5, 1, 43
7, 71660, Control_c, 5, 1, 45
7, 71665, Control_c, 5, 1, 50
7, 71665, Control_c, 5, 1, 47
7, 71672, Control_c, 5, 1, 55
7, 71672, Control_c, 5, 1, 52
7, 71677, Control_c, 5, 1, 58
7, 71678, Control_c, 5, 1, 60
7, 71683, Control_c, 5, 1, 65
7, 71683, Control_c, 5, 1, 63
7, 71689, Control_c, 5, 1, 67
7, 71690, Control_c, 5, 1, 69
7, 71695, Control_c, 5, 1, 72
7, 71695, Control_c, 5, 1, 71
7, 71701, Control_c, 5, 1, 77
7, 71701, Control_c, 5, 1, 74
7, 71706, Control_c, 5, 1, 80
7, 71706, Control_c, 5, 1, 78
7, 71713, Control_c, 5, 1, 83
7, 71713, Control_c, 5, 1, 81
7, 71719, Control_c, 5, 1, 87
7, 71719, Control_c, 5, 1, 85
7, 71725, Control_c, 5, 1, 95
7, 71725, Control_c, 5, 1, 91
7, 71731, Control_c, 5, 1, 101
7, 71731, Control_c, 5, 1, 99
7, 71736, Control_c, 5, 1, 105
7, 71738, Control_c, 5, 1, 107
7, 71742, Control_c, 5, 1, 111
7, 71744, Control_c, 5, 1, 113
7, 71748, Control_c, 5, 1, 115
7, 71749, Control_c, 5, 1, 117
7, 71755, Control_c, 5, 1, 123
7, 71755, Control_c, 5, 1, 121
7, 71761, Control_c, 5, 1, 127
7, 71761, Control_c, 5, 1, 125
7, 72080, Control_c, 5, 1, 85
7, 72080, Control_c, 5, 1, 107
7, 72086, Control_c, 5, 1, 57
7, 72086, Control_c, 5, 1, 71
7, 72090, Control_c, 5, 1, 32
7, 72093, Control_c, 5, 1, 9
7, 72098, Control_c, 5, 1, 2
7, 72099, Control_c, 5, 1, 0
7, 72192, Note_off_c, 5, 71, 64
7, 95717, Pitch_bend_c, 5, 8031
7, 95723, Pitch_bend_c, 5, 7902
7, 95729, Pitch_bend_c, 5, 7742
7, 95736, Pitch_bend_c, 5, 7645
7, 95740, Pitch_bend_c, 5, 7613
7, 95764, Pitch_bend_c, 5, 7581
7, 95770, Pitch_bend_c, 5, 7549
7, 95777, Pitch_bend_c, 5, 7517
7, 95783, Pitch_bend_c, 5, 7485
7, 95789, Pitch_bend_c, 5, 7453
7, 95795, Pitch_bend_c, 5, 7420
7, 95808, Note_on_c, 5, 66, 106
7, 95848, Pitch_bend_c, 5, 7388
7, 95870, Pitch_bend_c, 5, 7356
7, 95883, Pitch_bend_c, 5, 7324
7, 95889, Pitch_bend_c, 5, 7356
7, 95942, Pitch_bend_c, 5, 7324
7, 95980, Note_off_c, 5, 66, 76
7, 96001, Pitch_bend_c, 5, 7356
7, 96007, Pitch_bend_c, 5, 7324
7, 96055, Pitch_bend_c, 5, 7292
7, 96066, Pitch_bend_c, 5, 7260
7, 96078, Pitch_bend_c, 5, 7228
7, 96090, Pitch_bend_c, 5, 7163
7, 96096, Pitch_bend_c, 5, 7131
7, 96101, Pitch_bend_c, 5, 7099
7, 96107, Pitch_bend_c, 5, 7035
7, 96120, Pitch_bend_c, 5, 6971
7, 96125, Note_on_c, 5, 66, 110
7, 96131, Pitch_bend_c, 5, 6939
7, 96137, Pitch_bend_c, 5, 6874
7, 96162, Pitch_bend_c, 5, 6842
7, 96179, Pitch_bend_c, 5, 6810
7, 96184, Pitch_bend_c, 5, 6778
7, 96190, Pitch_bend_c, 5, 6746
7, 96197, Pitch_bend_c, 5, 6714
7, 96202, Pitch_bend_c, 5, 6649
7, 96209, Pitch_bend_c, 5, 6617
7, 96213, Pitch_bend_c, 5, 6585
7, 96220, Pitch_bend_c, 5, 6521
7, 96226, Pitch_bend_c, 5, 6457
7, 96232, Pitch_bend_c, 5, 6425
7, 96237, Pitch_bend_c, 5, 6392
7, 96243, Pitch_bend_c, 5, 6360
7, 96249, Pitch_bend_c, 5, 6328
7, 96259, Note_off_c, 5, 66, 68
7, 96262, Pitch_bend_c, 5, 6296
7, 96298, Pitch_bend_c, 5, 6264
7, 96309, Pitch_bend_c, 5, 6232
7, 96315, Pitch_bend_c, 5, 6200
7, 96321, Pitch_bend_c, 5, 6168
7, 96379, Pitch_bend_c, 5, 6135
7, 96384, Note_on_c, 5, 66, 115
7, 96392, Pitch_bend_c, 5, 6103
7, 96398, Pitch_bend_c, 5, 6071
7, 96403, Pitch_bend_c, 5, 6039
7, 96428, Pitch_bend_c, 5, 6007
7, 96434, Pitch_bend_c, 5, 6039
7, 96440, Pitch_bend_c, 5, 6007
7, 96445, Pitch_bend_c, 5, 5975
7, 96451, Pitch_bend_c, 5, 5878
7, 96457, Pitch_bend_c, 5, 5814
7, 96464, Pitch_bend_c, 5, 5718
7, 96470, Pitch_bend_c, 5, 5654
7, 96475, Pitch_bend_c, 5, 5525
7, 96480, Pitch_bend_c, 5, 5429
7, 96487, Pitch_bend_c, 5, 5364
7, 96493, Pitch_bend_c, 5, 5204
7, 96498, Pitch_bend_c, 5, 5075
7, 96504, Pitch_bend_c, 5, 4947
7, 96511, Pitch_bend_c, 5, 4850
7, 96517, Pitch_bend_c, 5, 4786
7, 96523, Pitch_bend_c, 5, 4690
7, 96529, Pitch_bend_c, 5, 4593
7, 96534, Pitch_bend_c, 5, 4465
7, 96540, Pitch_bend_c, 5, 4369
7, 96546, Pitch_bend_c, 5, 4272
7, 96551, Pitch_bend_c, 5, 4176
7, 96557, Pitch_bend_c, 5, 4047
7, 96564, Pitch_bend_c, 5, 3822
7, 96570, Pitch_bend_c, 5, 3630
7, 96576, Pitch_bend_c, 5, 3437
7, 96582, Pitch_bend_c, 5, 3308
7, 96587, Pitch_bend_c, 5, 3084
7, 96593, Pitch_bend_c, 5, 2955
7, 96600, Pitch_bend_c, 5, 2859
7, 96606, Pitch_bend_c, 5, 2602
7, 96611, Pitch_bend_c, 5, 2345
7, 96617, Pitch_bend_c, 5, 2152
7, 96623, Pitch_bend_c, 5, 2023
7, 96629, Pitch_bend_c, 5, 1895
7, 96635, Pitch_bend_c, 5, 1831
7, 96648, Pitch_bend_c, 5, 1895
7, 96653, Pitch_bend_c, 5, 1959
7, 96659, Pitch_bend_c, 5, 2023
7, 96665, Pitch_bend_c, 5, 2216
7, 96670, Pitch_bend_c, 5, 2409
7, 96676, Pitch_bend_c, 5, 2730
7, 96682, Pitch_bend_c, 5, 2955
7, 96688, Pitch_bend_c, 5, 3116
7, 96693, Pitch_bend_c, 5, 3373
7, 96701, Pitch_bend_c, 5, 3630
7, 96706, Pitch_bend_c, 5, 3822
7, 96711, Pitch_bend_c, 5, 4079
7, 96718, Pitch_bend_c, 5, 4272
7, 96725, Pitch_bend_c, 5, 4401
7, 96731, Pitch_bend_c, 5, 4561
7, 96736, Pitch_bend_c, 5, 4722
7, 96742, Pitch_bend_c, 5, 4786
7, 96747, Pitch_bend_c, 5, 4915
7, 96754, Pitch_bend_c, 5, 5075
7, 96759, Pitch_bend_c, 5, 5172
7, 96765, Pitch_bend_c, 5, 5332
7, 96769, Pitch_bend_c, 5, 5397
7, 96777, Pitch_bend_c, 5, 5461
7, 96784, Pitch_bend_c, 5, 5557
7, 96789, Pitch_bend_c, 5, 5686
7, 96795, Pitch_bend_c, 5, 5911
7, 96801, Pitch_bend_c, 5, 6232
7, 96807, Pitch_bend_c, 5, 6457
7, 96812, Pitch_bend_c, 5, 6842
7, 96818, Pitch_bend_c, 5, 7131
7, 96824, Pitch_bend_c, 5, 7420
7, 96830, Pitch_bend_c, 5, 7677
7, 96837, Pitch_bend_c, 5, 7934
7, 96842, Pitch_bend_c, 5, 8192
7, 97138, Control_c, 5, 1, 1
7, 97144, Control_c, 5, 1, 2
7, 97149, Control_c, 5, 1, 5
7, 97149, Control_c, 5, 1, 3
7, 97157, Control_c, 5, 1, 6
7, 97161, Control_c, 5, 1, 7
7, 97162, Control_c, 5, 1, 8
7, 97167, Control_c, 5, 1, 9
7, 97172, Control_c, 5, 1, 10
7, 97173, Control_c, 5, 1, 11
7, 97178, Control_c, 5, 1, 12
7, 97185, Control_c, 5, 1, 14
7, 97185, Control_c, 5, 1, 13
7, 97191, Control_c, 5, 1, 16
7, 97191, Control_c, 5, 1, 15
7, 97197, Control_c, 5, 1, 19
7, 97197, Control_c, 5, 1, 18
7, 97203, Control_c, 5, 1, 21
7, 97204, Control_c, 5, 1, 22
7, 97209, Control_c, 5, 1, 24
7, 97209, Control_c, 5, 1, 23
7, 97214, Control_c, 5, 1, 26
7, 97215, Control_c, 5, 1, 27
7, 97221, Control_c, 5, 1, 28
7, 97227, Control_c, 5, 1, 30
7, 97227, Control_c, 5, 1, 29
7, 97233, Control_c, 5, 1, 32
7, 97233, Control_c, 5, 1, 31
7, 97238, Control_c, 5, 1, 36
7, 97238, Control_c, 5, 1, 34
7, 97244, Control_c, 5, 1, 38
7, 97246, Control_c, 5, 1, 40
7, 97250, Control_c, 5, 1, 44
7, 97250, Control_c, 5, 1, 42
7, 97256, Control_c, 5, 1, 46
7, 97257, Control_c, 5, 1, 48
7, 97261, Control_c, 5, 1, 50
7, 97263, Control_c, 5, 1, 51
7, 97268, Control_c, 5, 1, 54
7, 97268, Control_c, 5, 1, 53
7, 97273, Control_c, 5, 1, 55
7, 97274, Control_c, 5, 1, 56
7, 97280, Control_c, 5, 1, 57
7, 97281, Control_c, 5, 1, 58
7, 97286, Control_c, 5, 1, 59
7, 97287, Control_c, 5, 1, 60
7, 97291, Control_c, 5, 1, 61
7, 97293, Control_c, 5, 1, 63
7, 97297, Control_c, 5, 1, 64
7, 97299, Control_c, 5, 1, 65
7, 97303, Control_c, 5, 1, 66
7, 97304, Control_c, 5, 1, 67
7, 97309, Control_c, 5, 1, 70
7, 97309, Control_c, 5, 1, 69
7, 97316, Control_c, 5, 1, 71
7, 97317, Control_c, 5, 1, 72
7, 97322, Control_c, 5, 1, 74
7, 97323, Control_c, 5, 1, 75
7, 97327, Control_c, 5, 1, 76
7, 97329, Control_c, 5, 1, 77
7, 97333, Control_c, 5, 1, 78
7, 97334, Control_c, 5, 1, 79
7, 97339, Control_c, 5, 1, 80
7, 97340, Control_c, 5, 1, 82
7, 97344, Control_c, 5, 1, 83
7, 97349, Control_c, 5, 1, 85
7, 97352, Control_c, 5, 1, 87
7, 97357, Control_c, 5, 1, 91
7, 97357, Control_c, 5, 1, 89
7, 97363, Control_c, 5, 1, 97
7, 97363, Control_c, 5, 1, 93
7, 97369, Control_c, 5, 1, 101
7, 97369, Control_c, 5, 1, 99
7, 97375, Control_c, 5, 1, 107
7, 97375, Control_c, 5, 1, 103
7, 97380, Control_c, 5, 1, 109
7, 97382, Control_c, 5, 1, 111
7, 97387, Control_c, 5, 1, 115
7, 97387, Control_c, 5, 1, 113
7, 97393, Control_c, 5, 1, 119
7, 97393, Control_c, 5, 1, 117
7, 97399, Control_c, 5, 1, 121
7, 97405, Control_c, 5, 1, 123
7, 97406, Control_c, 5, 1, 125
7, 97410, Control_c, 5, 1, 127
7, 97855, Control_c, 5, 1, 119
7, 97861, Control_c, 5, 1, 73
7, 97861, Control_c, 5, 1, 89
7, 97866, Control_c, 5, 1, 53
7, 97868, Control_c, 5, 1, 33
7, 97872, Control_c, 5, 1, 18
7, 97873, Control_c, 5, 1, 4
7, 97878, Control_c, 5, 1, 0
7, 97915, Note_off_c, 5, 66, 84
7, 98496, Note_on_c, 5, 71, 113
7, 98514, Pitch_bend_c, 5, 96
7, 98519, Pitch_bend_c, 5, 931
7, 98525, Pitch_bend_c, 5, 2280
7, 98531, Pitch_bend_c, 5, 3212
7, 98538, Pitch_bend_c, 5, 4112
7, 98544, Pitch_bend_c, 5, 5107
7, 98550, Pitch_bend_c, 5, 6296
7, 98556, Pitch_bend_c, 5, 7613
7, 98561, Pitch_bend_c, 5, 8192
7, 98831, Control_c, 5, 1, 1
7, 98835, Control_c, 5, 1, 2
7, 98836, Control_c, 5, 1, 3
7, 98841, Control_c, 5, 1, 4
7, 98843, Control_c, 5, 1, 5
7, 98848, Control_c, 5, 1, 7
7, 98850, Control_c, 5, 1, 8
7, 98854, Control_c, 5, 1, 11
7, 98854, Control_c, 5, 1, 10
7, 98860, Control_c, 5, 1, 13
7, 98860, Control_c, 5, 1, 12
7, 98865, Control_c, 5, 1, 14
7, 98866, Control_c, 5, 1, 15
7, 98871, Control_c, 5, 1, 17
7, 98871, Control_c, 5, 1, 16
7, 98878, Control_c, 5, 1, 20
7, 98878, Control_c, 5, 1, 19
7, 98881, Control_c, 5, 1, 23
7, 98881, Control_c, 5, 1, 22
7, 98890, Control_c, 5, 1, 24
7, 98891, Control_c, 5, 1, 25
7, 98900, Control_c, 5, 1, 26
7, 98901, Control_c, 5, 1, 30
7, 98901, Control_c, 5, 1, 29
7, 98901, Control_c, 5, 1, 28
7, 98907, Control_c, 5, 1, 31
7, 98908, Control_c, 5, 1, 32
7, 98914, Control_c, 5, 1, 34
7, 98914, Control_c, 5, 1, 33
7, 98919, Control_c, 5, 1, 37
7, 98919, Control_c, 5, 1, 35
7, 98924, Control_c, 5, 1, 38
7, 98926, Control_c, 5, 1, 39
7, 98931, Control_c, 5, 1, 42
7, 98931, Control_c, 5, 1, 41
7, 98936, Control_c, 5, 1, 43
7, 98939, Control_c, 5, 1, 45
7, 98943, Control_c, 5, 1, 47
7, 98943, Control_c, 5, 1, 46
7, 98949, Control_c, 5, 1, 49
7, 98950, Control_c, 5, 1, 51
7, 98955, Control_c, 5, 1, 54
7, 98955, Control_c, 5, 1, 53
7, 98960, Control_c, 5, 1, 56
7, 98962, Control_c, 5, 1, 57
7, 98967, Control_c, 5, 1, 59
7, 98967, Control_c, 5, 1, 58
7, 98973, Control_c, 5, 1, 62
7, 98973, Control_c, 5, 1, 60
7, 98979, Control_c, 5, 1, 63
7, 98980, Control_c, 5, 1, 64
7, 98984, Control_c, 5, 1, 65
7, 98986, Control_c, 5, 1, 66
7, 98990, Control_c, 5, 1, 67
7, 98992, Control_c, 5, 1, 68
7, 98997, Control_c, 5, 1, 70
7, 98997, Control_c, 5, 1, 69
7, 99002, Control_c, 5, 1, 71
7, 99009, Control_c, 5, 1, 74
7, 99009, Control_c, 5, 1, 73
7, 99015, Control_c, 5, 1, 77
7, 99015, Control_c, 5, 1, 76
7, 99020, Control_c, 5, 1, 78
7, 99026, Control_c, 5, 1, 79
7, 99027, Control_c, 5, 1, 80
7, 99032, Control_c, 5, 1, 81
7, 99033, Control_c, 5, 1, 82
7, 99038, Control_c, 5, 1, 83
7, 99039, Control_c, 5, 1, 84
7, 99043, Control_c, 5, 1, 85
7, 99044, Control_c, 5, 1, 86
7, 99050, Control_c, 5, 1, 91
7, 99050, Control_c, 5, 1, 89
7, 99056, Control_c, 5, 1, 95
7, 99056, Control_c, 5, 1, 93
7, 99062, Control_c, 5, 1, 97
7, 99068, Control_c, 5, 1, 99
7, 99069, Control_c, 5, 1, 101
7, 99073, Control_c, 5, 1, 105
7, 99073, Control_c, 5, 1, 103
7, 99079, Control_c, 5, 1, 107
7, 99085, Control_c, 5, 1, 109
7, 99086, Control_c, 5, 1, 111
7, 99092, Control_c, 5, 1, 113
7, 99096, Control_c, 5, 1, 115
7, 99097, Control_c, 5, 1, 117
7, 99109, Control_c, 5, 1, 121
7, 99109, Control_c, 5, 1, 119
7, 99115, Control_c, 5, 1, 123
7, 99121, Control_c, 5, 1, 127
7, 99121, Control_c, 5, 1, 125
7, 99376, Control_c, 5, 1, 107
7, 99376, Control_c, 5, 1, 121
7, 99382, Control_c, 5, 1, 79
7, 99382, Control_c, 5, 1, 89
7, 99387, Control_c, 5, 1, 69
7, 99389, Control_c, 5, 1, 59
7, 99393, Control_c, 5, 1, 48
7, 99394, Control_c, 5, 1, 38
7, 99399, Control_c, 5, 1, 28
7, 99400, Control_c, 5, 1, 19
7, 99405, Control_c, 5, 1, 7
7, 99405, Control_c, 5, 1, 13
7, 99410, Control_c, 5, 1, 2
7, 99411, Control_c, 5, 1, 0
7, 99488, Note_off_c, 5, 71, 91
7, 107520, Note_on_c, 5, 72, 115
7, 107765, Control_c, 5, 1, 1
7, 107771, Control_c, 5, 1, 3
7, 107771, Control_c, 5, 1, 2
7, 107776, Control_c, 5, 1, 5
7, 107776, Control_c, 5, 1, 4
7, 107782, Control_c, 5, 1, 7
7, 107782, Control_c, 5, 1, 6
7, 107788, Control_c, 5, 1, 8
7, 107789, Control_c, 5, 1, 9
7, 107794, Control_c, 5, 1, 11
7, 107794, Control_c, 5, 1, 10
7, 107799, Control_c, 5, 1, 12
7, 107801, Control_c, 5, 1, 13
7, 107807, Control_c, 5, 1, 16
7, 107807, Control_c, 5, 1, 14
7, 107812, Control_c, 5, 1, 19
7, 107812, Control_c, 5, 1, 17
7, 107818, Control_c, 5, 1, 22
7, 107818, Control_c, 5, 1, 20
7, 107824, Control_c, 5, 1, 24
7, 107825, Control_c, 5, 1, 25
7, 107830, Control_c, 5, 1, 26
7, 107831, Control_c, 5, 1, 28
7, 107835, Control_c, 5, 1, 29
7, 107837, Control_c, 5, 1, 30
7, 107841, Control_c, 5, 1, 33
7, 107841, Control_c, 5, 1, 31
7, 107847, Control_c, 5, 1, 36
7, 107847, Control_c, 5, 1, 34
7, 107852, Control_c, 5, 1, 37
7, 107853, Control_c, 5, 1, 39
7, 107860, Control_c, 5, 1, 40
7, 107861, Control_c, 5, 1, 41
7, 107865, Control_c, 5, 1, 44
7, 107865, Control_c, 5, 1, 42
7, 107871, Control_c, 5, 1, 46
7, 107871, Control_c, 5, 1, 45
7, 107877, Control_c, 5, 1, 49
7, 107877, Control_c, 5, 1, 47
7, 107883, Control_c, 5, 1, 50
7, 107884, Control_c, 5, 1, 52
7, 107888, Control_c, 5, 1, 54
7, 107890, Control_c, 5, 1, 55
7, 107895, Control_c, 5, 1, 57
7, 107895, Control_c, 5, 1, 56
7, 107901, Control_c, 5, 1, 60
7, 107901, Control_c, 5, 1, 59
7, 107907, Control_c, 5, 1, 61
7, 107913, Control_c, 5, 1, 64
7, 107913, Control_c, 5, 1, 63
7, 107918, Control_c, 5, 1, 65
7, 107920, Control_c, 5, 1, 66
7, 107924, Control_c, 5, 1, 67
7, 107926, Control_c, 5, 1, 68
7, 107930, Control_c, 5, 1, 69
7, 107931, Control_c, 5, 1, 70
7, 107937, Control_c, 5, 1, 72
7, 107937, Control_c, 5, 1, 71
7, 107943, Control_c, 5, 1, 73
7, 107949, Control_c, 5, 1, 75
7, 107949, Control_c, 5, 1, 74
7, 107954, Control_c, 5, 1, 76
7, 107960, Control_c, 5, 1, 77
7, 107961, Control_c, 5, 1, 78
7, 107966, Control_c, 5, 1, 79
7, 107973, Control_c, 5, 1, 80
7, 107977, Control_c, 5, 1, 81
7, 107983, Control_c, 5, 1, 82
7, 107990, Control_c, 5, 1, 83
7, 107996, Control_c, 5, 1, 84
7, 108009, Control_c, 5, 1, 85
7, 108013, Control_c, 5, 1, 86
7, 108014, Control_c, 5, 1, 87
7, 108024, Control_c, 5, 1, 89
7, 108025, Control_c, 5, 1, 91
7, 108032, Control_c, 5, 1, 93
7, 108043, Control_c, 5, 1, 95
7, 108055, Control_c, 5, 1, 97
7, 108060, Control_c, 5, 1, 99
7, 108078, Control_c, 5, 1, 103
7, 108078, Control_c, 5, 1, 101
7, 108085, Control_c, 5, 1, 105
7, 108098, Control_c, 5, 1, 107
7, 108113, Control_c, 5, 1, 109
7, 108137, Control_c, 5, 1, 111
7, 108149, Control_c, 5, 1, 113
7, 108155, Control_c, 5, 1, 115
7, 108166, Control_c, 5, 1, 113
7, 108167, Control_c, 5, 1, 111
7, 108174, Control_c, 5, 1, 103
7, 108174, Control_c, 5, 1, 107
7, 108179, Control_c, 5, 1, 97
7, 108181, Control_c, 5, 1, 89
7, 108185, Control_c, 5, 1, 82
7, 108186, Control_c, 5, 1, 76
7, 108191, Control_c, 5, 1, 57
7, 108191, Control_c, 5, 1, 67
7, 108197, Control_c, 5, 1, 32
7, 108197, Control_c, 5, 1, 44
7, 108202, Control_c, 5, 1, 19
7, 108203, Control_c, 5, 1, 7
7, 108209, Control_c, 5, 1, 0
7, 108209, Control_c, 5, 1, 2
7, 108280, Note_off_c, 5, 72, 55
7, 108288, Note_on_c, 5, 71, 120
7, 108686, Pitch_bend_c, 5, 8706
7, 108692, Pitch_bend_c, 5, 9605
7, 108697, Pitch_bend_c, 5, 10472
7, 108703, Pitch_bend_c, 5, 11179
7, 108710, Pitch_bend_c, 5, 11500
7, 108715, Pitch_bend_c, 5, 11533
7, 108722, Pitch_bend_c, 5, 11565
7, 108727, Pitch_bend_c, 5, 11597
7, 108733, Pitch_bend_c, 5, 11661
7, 108739, Pitch_bend_c, 5, 11693
7, 108745, Pitch_bend_c, 5, 11725
7, 108752, Pitch_bend_c, 5, 11757
7, 108758, Pitch_bend_c, 5, 11822
7, 108763, Pitch_bend_c, 5, 11854
7, 108768, Pitch_bend_c, 5, 11918
7, 108775, Pitch_bend_c, 5, 11950
7, 108780, Pitch_bend_c, 5, 11982
7, 108793, Pitch_bend_c, 5, 12014
7, 108805, Pitch_bend_c, 5, 11982
7, 108811, Pitch_bend_c, 5, 12014
7, 108816, Pitch_bend_c, 5, 11982
7, 108822, Pitch_bend_c, 5, 11950
7, 108828, Pitch_bend_c, 5, 11918
7, 108835, Pitch_bend_c, 5, 11854
7, 108841, Pitch_bend_c, 5, 11757
7, 108846, Pitch_bend_c, 5, 11565
7, 108852, Pitch_bend_c, 5, 11115
7, 108858, Pitch_bend_c, 5, 10376
7, 108862, Pitch_bend_c, 5, 9573
7, 108869, Pitch_bend_c, 5, 8866
7, 108875, Pitch_bend_c, 5, 7999
7, 108881, Pitch_bend_c, 5, 8192
7, 109048, Note_off_c, 5, 71, 57
7, 109056, Note_on_c, 5, 69, 122
7, 109240, Control_c, 5, 1, 1
7, 109244, Control_c, 5, 1, 3
7, 109246, Control_c, 5, 1, 4
7, 109251, Control_c, 5, 1, 6
7, 109252, Control_c, 5, 1, 7
7, 109257, Control_c, 5, 1, 10
7, 109257, Control_c, 5, 1, 8
7, 109263, Control_c, 5, 1, 13
7, 109263, Control_c, 5, 1, 12
7, 109271, Control_c, 5, 1, 17
7, 109271, Control_c, 5, 1, 15
7, 109276, Control_c, 5, 1, 19
7, 109276, Control_c, 5, 1, 18
7, 109281, Control_c, 5, 1, 22
7, 109281, Control_c, 5, 1, 21
7, 109286, Control_c, 5, 1, 24
7, 109289, Control_c, 5, 1, 25
7, 109293, Control_c, 5, 1, 27
7, 109294, Control_c, 5, 1, 28
7, 109297, Control_c, 5, 1, 29
7, 109300, Control_c, 5, 1, 31
7, 109304, Control_c, 5, 1, 33
7, 109305, Control_c, 5, 1, 34
7, 109310, Control_c, 5, 1, 36
7, 109311, Control_c, 5, 1, 37
7, 109316, Control_c, 5, 1, 39
7, 109316, Control_c, 5, 1, 38
7, 109323, Control_c, 5, 1, 41
7, 109323, Control_c, 5, 1, 40
7, 109329, Control_c, 5, 1, 43
7, 109329, Control_c, 5, 1, 42
7, 109334, Control_c, 5, 1, 44
7, 109336, Control_c, 5, 1, 45
7, 109340, Control_c, 5, 1, 46
7, 109342, Control_c, 5, 1, 47
7, 109346, Control_c, 5, 1, 48
7, 109347, Control_c, 5, 1, 50
7, 109352, Control_c, 5, 1, 51
7, 109353, Control_c, 5, 1, 52
7, 109359, Control_c, 5, 1, 54
7, 109359, Control_c, 5, 1, 53
7, 109365, Control_c, 5, 1, 55
7, 109370, Control_c, 5, 1, 57
7, 109370, Control_c, 5, 1, 56
7, 109377, Control_c, 5, 1, 58
7, 109382, Control_c, 5, 1, 59
7, 109389, Control_c, 5, 1, 60
7, 109393, Control_c, 5, 1, 61
7, 109394, Control_c, 5, 1, 62
7, 109400, Control_c, 5, 1, 63
7, 109406, Control_c, 5, 1, 64
7, 109412, Control_c, 5, 1, 66
7, 109412, Control_c, 5, 1, 65
7, 109418, Control_c, 5, 1, 67
7, 109425, Control_c, 5, 1, 68
7, 109429, Control_c, 5, 1, 69
7, 109435, Control_c, 5, 1, 70
7, 109440, Control_c, 5, 1, 71
7, 109448, Control_c, 5, 1, 73
7, 109448, Control_c, 5, 1, 72
7, 109453, Control_c, 5, 1, 74
7, 109459, Control_c, 5, 1, 76
7, 109459, Control_c, 5, 1, 75
7, 109471, Control_c, 5, 1, 77
7, 109472, Control_c, 5, 1, 78
7, 109478, Control_c, 5, 1, 79
7, 109489, Control_c, 5, 1, 80
7, 109501, Control_c, 5, 1, 81
7, 109512, Control_c, 5, 1, 82
7, 109524, Control_c, 5, 1, 83
7, 109529, Control_c, 5, 1, 84
7, 109537, Control_c, 5, 1, 85
7, 109554, Control_c, 5, 1, 86
7, 109571, Control_c, 5, 1, 87
7, 109590, Control_c, 5, 1, 89
7, 109635, Control_c, 5, 1, 91
7, 109661, Control_c, 5, 1, 93
7, 109696, Control_c, 5, 1, 95
7, 109749, Control_c, 5, 1, 97
7, 109820, Control_c, 5, 1, 99
7, 109939, Control_c, 5, 1, 101
7, 109945, Control_c, 5, 1, 103
7, 109974, Control_c, 5, 1, 105
7, 109998, Control_c, 5, 1, 103
7, 110017, Control_c, 5, 1, 105
7, 110034, Control_c, 5, 1, 107
7, 110076, Control_c, 5, 1, 105
7, 110094, Control_c, 5, 1, 107
7, 110111, Control_c, 5, 1, 109
7, 110189, Control_c, 5, 1, 111
7, 110206, Control_c, 5, 1, 109
7, 110212, Control_c, 5, 1, 105
7, 110212, Control_c, 5, 1, 107
7, 110216, Control_c, 5, 1, 103
7, 110217, Control_c, 5, 1, 101
7, 110222, Control_c, 5, 1, 99
7, 110223, Control_c, 5, 1, 95
7, 110229, Control_c, 5, 1, 91
7, 110230, Control_c, 5, 1, 86
7, 110234, Control_c, 5, 1, 83
7, 110236, Control_c, 5, 1, 79
7, 110240, Control_c, 5, 1, 74
7, 110242, Control_c, 5, 1, 70
7, 110245, Control_c, 5, 1, 64
7, 110246, Control_c, 5, 1, 59
7, 110252, Control_c, 5, 1, 52
7, 110253, Control_c, 5, 1, 45
7, 110258, Control_c, 5, 1, 29
7, 110258, Control_c, 5, 1, 37
7, 110265, Control_c, 5, 1, 2
7, 110265, Control_c, 5, 1, 15
7, 110271, Control_c, 5, 1, 0
7, 110400, Note_off_c, 5, 69, 83
7, 110400, Note_on_c, 5, 69, 122
7, 110496, Pitch_bend_c, 5, 9252
7, 110500, Pitch_bend_c, 5, 11179
7, 110507, Pitch_bend_c, 5, 13139
7, 110513, Pitch_bend_c, 5, 16159
7, 110519, Pitch_bend_c, 5, 16383
7, 110589, Pitch_bend_c, 5, 15259
7, 110596, Pitch_bend_c, 5, 13203
7, 110602, Pitch_bend_c, 5, 11693
7, 110607, Pitch_bend_c, 5, 10248
7, 110613, Pitch_bend_c, 5, 8995
7, 110618, Pitch_bend_c, 5, 8192
7, 110761, Control_c, 5, 1, 1
7, 110766, Control_c, 5, 1, 3
7, 110766, Control_c, 5, 1, 2
7, 110772, Control_c, 5, 1, 5
7, 110772, Control_c, 5, 1, 4
7, 110778, Control_c, 5, 1, 7
7, 110778, Control_c, 5, 1, 6
7, 110783, Control_c, 5, 1, 8
7, 110789, Control_c, 5, 1, 9
7, 110791, Control_c, 5, 1, 10
7, 110795, Control_c, 5, 1, 13
7, 110795, Control_c, 5, 1, 12
7, 110801, Control_c, 5, 1, 15
7, 110801, Control_c, 5, 1, 14
7, 110807, Control_c, 5, 1, 17
7, 110807, Control_c, 5, 1, 16
7, 110813, Control_c, 5, 1, 20
7, 110813, Control_c, 5, 1, 18
7, 110819, Control_c, 5, 1, 23
7, 110819, Control_c, 5, 1, 22
7, 110825, Control_c, 5, 1, 26
7, 110825, Control_c, 5, 1, 24
7, 110830, Control_c, 5, 1, 27
7, 110832, Control_c, 5, 1, 29
7, 110836, Control_c, 5, 1, 31
7, 110837, Control_c, 5, 1, 33
7, 110842, Control_c, 5, 1, 34
7, 110843, Control_c, 5, 1, 36
7, 110847, Control_c, 5, 1, 37
7, 110848, Control_c, 5, 1, 38
7, 110853, Control_c, 5, 1, 39
7, 110854, Control_c, 5, 1, 41
7, 110859, Control_c, 5, 1, 43
7, 110859, Control_c, 5, 1, 42
7, 110866, Control_c, 5, 1, 45
7, 110867, Control_c, 5, 1, 46
7, 110872, Control_c, 5, 1, 47
7, 110873, Control_c, 5, 1, 49
7, 110876, Control_c, 5, 1, 50
7, 110879, Control_c, 5, 1, 52
7, 110883, Control_c, 5, 1, 53
7, 110884, Control_c, 5, 1, 55
7, 110889, Control_c, 5, 1, 57
7, 110889, Control_c, 5, 1, 56
7, 110894, Control_c, 5, 1, 58
7, 110895, Control_c, 5, 1, 59
7, 110900, Control_c, 5, 1, 60
7, 110907, Control_c, 5, 1, 61
7, 110909, Control_c, 5, 1, 62
7, 110913, Control_c, 5, 1, 63
7, 110914, Control_c, 5, 1, 64
7, 110917, Control_c, 5, 1, 65
7, 110920, Control_c, 5, 1, 66
7, 110925, Control_c, 5, 1, 69
7, 110925, Control_c, 5, 1, 68
7, 110931, Control_c, 5, 1, 71
7, 110931, Control_c, 5, 1, 70
7, 110936, Control_c, 5, 1, 73
7, 110936, Control_c, 5, 1, 72
7, 110943, Control_c, 5, 1, 75
7, 110943, Control_c, 5, 1, 74
7, 110950, Control_c, 5, 1, 76
7, 110954, Control_c, 5, 1, 77
7, 110960, Control_c, 5, 1, 78
7, 110961, Control_c, 5, 1, 79
7, 110967, Control_c, 5, 1, 80
7, 110976, Control_c, 5, 1, 81
7, 110989, Control_c, 5, 1, 82
7, 110995, Control_c, 5, 1, 83
7, 111001, Control_c, 5, 1, 85
7, 111001, Control_c, 5, 1, 84
7, 111014, Control_c, 5, 1, 86
7, 111025, Control_c, 5, 1, 87
7, 111036, Control_c, 5, 1, 89
7, 111048, Control_c, 5, 1, 91
7, 111055, Control_c, 5, 1, 93
7, 111072, Control_c, 5, 1, 95
7, 111100, Control_c, 5, 1, 97
7, 111124, Control_c, 5, 1, 99
7, 111137, Control_c, 5, 1, 101
7, 111153, Control_c, 5, 1, 103
7, 111177, Control_c, 5, 1, 105
7, 111195, Control_c, 5, 1, 103
7, 111201, Control_c, 5, 1, 101
7, 111205, Control_c, 5, 1, 99
7, 111206, Control_c, 5, 1, 97
7, 111211, Control_c, 5, 1, 91
7, 111212, Control_c, 5, 1, 86
7, 111217, Control_c, 5, 1, 82
7, 111218, Control_c, 5, 1, 77
7, 111224, Control_c, 5, 1, 72
7, 111225, Control_c, 5, 1, 66
7, 111228, Control_c, 5, 1, 58
7, 111230, Control_c, 5, 1, 51
7, 111235, Control_c, 5, 1, 41
7, 111236, Control_c, 5, 1, 32
7, 111241, Control_c, 5, 1, 21
7, 111242, Control_c, 5, 1, 10
7, 111248, Control_c, 5, 1, 0
7, 111248, Control_c, 5, 1, 3
7, 111360, Note_on_c, 5, 72, 120
7, 111409, Note_off_c, 5, 69, 72
7, 111552, Note_off_c, 5, 72, 67
7, 111552, Note_on_c, 5, 71, 120
7, 111744, Note_on_c, 5, 69, 120
7, 111778, Note_off_c, 5, 71, 72
7, 111825, Pitch_bend_c, 5, 9734
7, 111831, Pitch_bend_c, 5, 11629
7, 111837, Pitch_bend_c, 5, 13332
7, 111843, Pitch_bend_c, 5, 15837
7, 111848, Pitch_bend_c, 5, 16383
7, 111919, Pitch_bend_c, 5, 15580
7, 111925, Pitch_bend_c, 5, 13621
7, 111931, Pitch_bend_c, 5, 12496
7, 111936, Pitch_bend_c, 5, 11211
7, 111942, Pitch_bend_c, 5, 9862
7, 111949, Pitch_bend_c, 5, 8706
7, 111955, Pitch_bend_c, 5, 8192
7, 112128, Note_on_c, 5, 67, 119
7, 112139, Note_off_c, 5, 69, 99
7, 113673, Control_c, 5, 1, 1
7, 113684, Control_c, 5, 1, 2
7, 113708, Control_c, 5, 1, 4
7, 113708, Control_c, 5, 1, 3
7, 113720, Control_c, 5, 1, 5
7, 113726, Control_c, 5, 1, 6
7, 113732, Control_c, 5, 1, 7
7, 113745, Control_c, 5, 1, 8
7, 113749, Control_c, 5, 1, 9
7, 113755, Control_c, 5, 1, 10
7, 113760, Control_c, 5, 1, 11
7, 113773, Control_c, 5, 1, 13
7, 113773, Control_c, 5, 1, 12
7, 113786, Control_c, 5, 1, 14
7, 113809, Control_c, 5, 1, 15
7, 113815, Control_c, 5, 1, 16
7, 113828, Control_c, 5, 1, 17
7, 113834, Control_c, 5, 1, 18
7, 113838, Control_c, 5, 1, 19
7, 113839, Control_c, 5, 1, 20
7, 113844, Control_c, 5, 1, 21
7, 113849, Control_c, 5, 1, 22
7, 113850, Control_c, 5, 1, 23
7, 113857, Control_c, 5, 1, 24
7, 113862, Control_c, 5, 1, 25
7, 113874, Control_c, 5, 1, 26
7, 113879, Control_c, 5, 1, 27
7, 113881, Control_c, 5, 1, 28
7, 113885, Control_c, 5, 1, 29
7, 113887, Control_c, 5, 1, 30
7, 113892, Control_c, 5, 1, 31
7, 113904, Control_c, 5, 1, 32
7, 113915, Control_c, 5, 1, 33
7, 113927, Control_c, 5, 1, 34
7, 113938, Control_c, 5, 1, 35
7, 113963, Control_c, 5, 1, 36
7, 114004, Control_c, 5, 1, 37
7, 114021, Control_c, 5, 1, 38
7, 114057, Control_c, 5, 1, 39
7, 114080, Control_c, 5, 1, 40
7, 114092, Control_c, 5, 1, 41
7, 114103, Control_c, 5, 1, 42
7, 114112, Control_c, 5, 1, 43
7, 114129, Control_c, 5, 1, 44
7, 114140, Control_c, 5, 1, 45
7, 114176, Control_c, 5, 1, 46
7, 114205, Control_c, 5, 1, 47
7, 114212, Control_c, 5, 1, 48
7, 114228, Control_c, 5, 1, 49
7, 114264, Control_c, 5, 1, 50
7, 114271, Control_c, 5, 1, 51
7, 114282, Control_c, 5, 1, 52
7, 114295, Control_c, 5, 1, 53
7, 114307, Control_c, 5, 1, 54
7, 114343, Control_c, 5, 1, 55
7, 114373, Control_c, 5, 1, 56
7, 114390, Control_c, 5, 1, 57
7, 114467, Control_c, 5, 1, 58
7, 114496, Control_c, 5, 1, 59
7, 114591, Control_c, 5, 1, 60
7, 114661, Control_c, 5, 1, 61
7, 114899, Control_c, 5, 1, 62
7, 114958, Control_c, 5, 1, 63
7, 115183, Control_c, 5, 1, 64
7, 115302, Control_c, 5, 1, 65
7, 115485, Control_c, 5, 1, 64
7, 115507, Control_c, 5, 1, 65
7, 115644, Control_c, 5, 1, 66
7, 115680, Control_c, 5, 1, 65
7, 115917, Control_c, 5, 1, 66
7, 115964, Control_c, 5, 1, 67
7, 116153, Control_c, 5, 1, 68
7, 116200, Control_c, 5, 1, 67
7, 116242, Control_c, 5, 1, 68
7, 116348, Control_c, 5, 1, 67
7, 116418, Control_c, 5, 1, 66
7, 116424, Control_c, 5, 1, 65
7, 116426, Control_c, 5, 1, 64
7, 116431, Control_c, 5, 1, 63
7, 116436, Control_c, 5, 1, 62
7, 116441, Control_c, 5, 1, 61
7, 116442, Control_c, 5, 1, 60
7, 116448, Control_c, 5, 1, 58
7, 116448, Control_c, 5, 1, 59
7, 116454, Control_c, 5, 1, 57
7, 116460, Control_c, 5, 1, 56
7, 116466, Control_c, 5, 1, 55
7, 116467, Control_c, 5, 1, 54
7, 116471, Control_c, 5, 1, 53
7, 116477, Control_c, 5, 1, 52
7, 116484, Control_c, 5, 1, 50
7, 116484, Control_c, 5, 1, 51
7, 116490, Control_c, 5, 1, 48
7, 116490, Control_c, 5, 1, 49
7, 116494, Control_c, 5, 1, 47
7, 116502, Control_c, 5, 1, 45
7, 116502, Control_c, 5, 1, 46
7, 116509, Control_c, 5, 1, 44
7, 116514, Control_c, 5, 1, 43
7, 116519, Control_c, 5, 1, 42
7, 116524, Control_c, 5, 1, 41
7, 116525, Control_c, 5, 1, 39
7, 116530, Control_c, 5, 1, 38
7, 116536, Control_c, 5, 1, 37
7, 116537, Control_c, 5, 1, 36
7, 116543, Control_c, 5, 1, 35
7, 116545, Control_c, 5, 1, 34
7, 116547, Control_c, 5, 1, 33
7, 116550, Control_c, 5, 1, 32
7, 116555, Control_c, 5, 1, 31
7, 116560, Control_c, 5, 1, 30
7, 116598, Control_c, 5, 1, 29
7, 116602, Control_c, 5, 1, 27
7, 116602, Control_c, 5, 1, 28
7, 116615, Control_c, 5, 1, 25
7, 116615, Control_c, 5, 1, 26
7, 116621, Control_c, 5, 1, 24
7, 116626, Control_c, 5, 1, 22
7, 116626, Control_c, 5, 1, 23
7, 116633, Control_c, 5, 1, 21
7, 116639, Control_c, 5, 1, 20
7, 116672, Control_c, 5, 1, 19
7, 116673, Control_c, 5, 1, 16
7, 116673, Control_c, 5, 1, 17
7, 116685, Control_c, 5, 1, 12
7, 116685, Control_c, 5, 1, 14
7, 116691, Control_c, 5, 1, 10
7, 116692, Control_c, 5, 1, 9
7, 116696, Control_c, 5, 1, 8
7, 116702, Control_c, 5, 1, 7
7, 116703, Control_c, 5, 1, 6
7, 116709, Control_c, 5, 1, 5
7, 116714, Control_c, 5, 1, 4
7, 116762, Control_c, 5, 1, 3
7, 116768, Control_c, 5, 1, 2
7, 116774, Control_c, 5, 1, 1
7, 116780, Control_c, 5, 1, 0
7, 117142, Control_c, 5, 11, 120
7, 117510, Control_c, 5, 11, 110
7, 117910, Control_c, 5, 11, 100
7, 118294, Control_c, 5, 11, 90
7, 118646, Control_c, 5, 11, 80
7, 118966, Control_c, 5, 11, 60
7, 119222, Control_c, 5, 11, 40
7, 119414, Control_c, 5, 11, 20
7, 119520, Note_off_c, 5, 67, 64
7, 119646, Control_c, 5, 11, 127
7, 124416, End_track
8, 0, Start_track
8, 0, Title_t, "Lead 2"
8, 648, Control_c, 6, 121, 0
8, 720, Program_c, 6, 30
8, 768, Control_c, 6, 0, 0
8, 840, Control_c, 6, 32, 0
8, 888, Control_c, 6, 7, 127
8, 936, Control_c, 6, 10, 64
8, 1008, Control_c, 6, 1, 0
8, 1104, Control_c, 6, 91, 127
8, 1200, Control_c, 6, 93, 0
8, 1296, Control_c, 6, 2, 0
8, 27648, Note_on_c, 6, 72, 117
8, 28416, Note_off_c, 6, 72, 84
8, 28416, Note_on_c, 6, 71, 127
8, 28806, Pitch_bend_c, 6, 8802
8, 28812, Pitch_bend_c, 6, 10183
8, 28818, Pitch_bend_c, 6, 10890
8, 28823, Pitch_bend_c, 6, 11019
8, 28829, Pitch_bend_c, 6, 11147
8, 28835, Pitch_bend_c, 6, 11179
8, 28841, Pitch_bend_c, 6, 11243
8, 28848, Pitch_bend_c, 6, 11276
8, 28859, Pitch_bend_c, 6, 11308
8, 28884, Pitch_bend_c, 6, 11340
8, 28899, Pitch_bend_c, 6, 11372
8, 28925, Pitch_bend_c, 6, 11404
8, 28937, Pitch_bend_c, 6, 11372
8, 28948, Pitch_bend_c, 6, 11404
8, 28965, Pitch_bend_c, 6, 11372
8, 28978, Pitch_bend_c, 6, 11308
8, 28984, Pitch_bend_c, 6, 11211
8, 28989, Pitch_bend_c, 6, 10826
8, 28996, Pitch_bend_c, 6, 9991
8, 29001, Pitch_bend_c, 6, 8802
8, 29007, Pitch_bend_c, 6, 8192
8, 29184, Note_off_c, 6, 71, 84
8, 29184, Note_on_c, 6, 69, 126
8, 29930, Note_off_c, 6, 69, 88
8, 29952, Note_on_c, 6, 76, 97
8, 30144, Note_off_c, 6, 76, 77
8, 30144, Note_on_c, 6, 74, 99
8, 30336, Note_off_c, 6, 74, 93
8, 30336, Note_on_c, 6, 72, 100
8, 30399, Pitch_bend_c, 6, 8866
8, 30405, Pitch_bend_c, 6, 12047
8, 30409, Pitch_bend_c, 6, 8834
8, 30410, Pitch_bend_c, 6, 16383
8, 30415, Pitch_bend_c, 6, 10440
8, 30420, Pitch_bend_c, 6, 12014
8, 30426, Pitch_bend_c, 6, 13621
8, 30431, Pitch_bend_c, 6, 16383
8, 30509, Pitch_bend_c, 6, 15580
8, 30515, Pitch_bend_c, 6, 12882
8, 30516, Pitch_bend_c, 6, 13332
8, 30521, Pitch_bend_c, 6, 9926
8, 30522, Pitch_bend_c, 6, 11276
8, 30526, Pitch_bend_c, 6, 8192
8, 30528, Pitch_bend_c, 6, 9252
8, 30535, Pitch_bend_c, 6, 8192
8, 30717, Note_off_c, 6, 72, 127
8, 62016, Note_on_c, 6, 62, 109
8, 62208, Note_off_c, 6, 62, 64
8, 62208, Note_on_c, 6, 71, 109
8, 62400, Note_on_c, 6, 69, 109
8, 62406, Note_off_c, 6, 71, 64
8, 62480, Pitch_bend_c, 6, 8352
8, 62488, Pitch_bend_c, 6, 11276
8, 62492, Pitch_bend_c, 6, 15645
8, 62500, Pitch_bend_c, 6, 16383
8, 62520, Pitch_bend_c, 6, 14167
8, 62528, Pitch_bend_c, 6, 7677
8, 62536, Pitch_bend_c, 6, 4047
8, 62540, Pitch_bend_c, 6, 8192
8, 62544, Pitch_bend_c, 6, 7774
8, 62552, Pitch_bend_c, 6, 7710
8, 62560, Pitch_bend_c, 6, 8192
8, 62592, Note_off_c, 6, 69, 64
8, 62592, Note_on_c, 6, 67, 109
8, 62784, Note_off_c, 6, 67, 64
8, 62784, Note_on_c, 6, 66, 109
8, 62976, Note_off_c, 6, 66, 64
8, 62976, Note_on_c, 6, 67, 101
8, 63007, Pitch_bend_c, 6, 12657
8, 63013, Pitch_bend_c, 6, 16383
8, 63138, Pitch_bend_c, 6, 14424
8, 63143, Pitch_bend_c, 6, 12143
8, 63149, Pitch_bend_c, 6, 9894
8, 63155, Pitch_bend_c, 6, 8192
8, 63168, Note_off_c, 6, 67, 91
8, 63168, Note_on_c, 6, 67, 109
8, 63360, Note_off_c, 6, 67, 64
8, 63360, Note_on_c, 6, 66, 109
8, 63552, Note_off_c, 6, 66, 64
8, 63552, Note_on_c, 6, 64, 109
8, 63936, Note_off_c, 6, 64, 64
8, 63936, Note_on_c, 6, 61, 109
8, 64320, Note_off_c, 6, 61, 64
8, 64320, Note_on_c, 6, 67, 109
8, 64512, Note_off_c, 6, 67, 64
8, 66048, Note_on_c, 6, 74, 109
8, 66357, Control_c, 6, 1, 1
8, 66363, Control_c, 6, 1, 2
8, 66364, Control_c, 6, 1, 4
8, 66368, Control_c, 6, 1, 7
8, 66370, Control_c, 6, 1, 9
8, 66374, Control_c, 6, 1, 12
8, 66375, Control_c, 6, 1, 14
8, 66380, Control_c, 6, 1, 18
8, 66380, Control_c, 6, 1, 16
8, 66386, Control_c, 6, 1, 22
8, 66386, Control_c, 6, 1, 20
8, 66391, Control_c, 6, 1, 23
8, 66392, Control_c, 6, 1, 25
8, 66398, Control_c, 6, 1, 29
8, 66398, Control_c, 6, 1, 27
8, 66404, Control_c, 6, 1, 32
8, 66404, Control_c, 6, 1, 31
8, 66408, Control_c, 6, 1, 34
8, 66409, Control_c, 6, 1, 36
8, 66416, Control_c, 6, 1, 39
8, 66416, Control_c, 6, 1, 37
8, 66421, Control_c, 6, 1, 40
8, 66422, Control_c, 6, 1, 42
8, 66427, Control_c, 6, 1, 44
8, 66428, Control_c, 6, 1, 46
8, 66434, Control_c, 6, 1, 49
8, 66434, Control_c, 6, 1, 47
8, 66440, Control_c, 6, 1, 53
8, 66440, Control_c, 6, 1, 51
8, 66446, Control_c, 6, 1, 56
8, 66446, Control_c, 6, 1, 55
8, 66451, Control_c, 6, 1, 58
8, 66453, Control_c, 6, 1, 59
8, 66457, Control_c, 6, 1, 63
8, 66459, Control_c, 6, 1, 66
8, 66463, Control_c, 6, 1, 68
8, 66464, Control_c, 6, 1, 70
8, 66469, Control_c, 6, 1, 72
8, 66470, Control_c, 6, 1, 74
8, 66476, Control_c, 6, 1, 77
8, 66476, Control_c, 6, 1, 76
8, 66480, Control_c, 6, 1, 79
8, 66481, Control_c, 6, 1, 81
8, 66487, Control_c, 6, 1, 82
8, 66489, Control_c, 6, 1, 84
8, 66493, Control_c, 6, 1, 85
8, 66494, Control_c, 6, 1, 86
8, 66499, Control_c, 6, 1, 87
8, 66500, Control_c, 6, 1, 89
8, 66505, Control_c, 6, 1, 95
8, 66505, Control_c, 6, 1, 93
8, 66510, Control_c, 6, 1, 97
8, 66511, Control_c, 6, 1, 99
8, 66516, Control_c, 6, 1, 101
8, 66517, Control_c, 6, 1, 103
8, 66522, Control_c, 6, 1, 109
8, 66522, Control_c, 6, 1, 107
8, 66529, Control_c, 6, 1, 113
8, 66529, Control_c, 6, 1, 111
8, 66535, Control_c, 6, 1, 117
8, 66535, Control_c, 6, 1, 115
8, 66540, Control_c, 6, 1, 119
8, 66542, Control_c, 6, 1, 121
8, 66552, Control_c, 6, 1, 125
8, 66552, Control_c, 6, 1, 123
8, 66559, Control_c, 6, 1, 127
8, 66712, Control_c, 6, 1, 109
8, 66712, Control_c, 6, 1, 119
8, 66718, Control_c, 6, 1, 91
8, 66720, Control_c, 6, 1, 80
8, 66723, Control_c, 6, 1, 68
8, 66725, Control_c, 6, 1, 55
8, 66729, Control_c, 6, 1, 40
8, 66731, Control_c, 6, 1, 26
8, 66740, Control_c, 6, 1, 14
8, 66741, Control_c, 6, 1, 0
8, 66816, Note_off_c, 6, 74, 64
8, 66816, Note_on_c, 6, 73, 109
8, 67008, Note_off_c, 6, 73, 64
8, 67008, Note_on_c, 6, 71, 109
8, 67200, Note_off_c, 6, 71, 64
8, 67200, Note_on_c, 6, 69, 109
8, 67266, Pitch_bend_c, 6, 9412
8, 67270, Pitch_bend_c, 6, 12239
8, 67278, Pitch_bend_c, 6, 15902
8, 67282, Pitch_bend_c, 6, 16383
8, 67310, Pitch_bend_c, 6, 14681
8, 67318, Pitch_bend_c, 6, 8192
8, 67322, Pitch_bend_c, 6, 3951
8, 67330, Pitch_bend_c, 6, 8192
8, 67334, Pitch_bend_c, 6, 7710
8, 67342, Pitch_bend_c, 6, 7838
8, 67346, Pitch_bend_c, 6, 8192
8, 67392, Note_off_c, 6, 69, 64
8, 67392, Note_on_c, 6, 67, 109
8, 67584, Note_off_c, 6, 67, 64
8, 71040, Note_on_c, 6, 78, 109
8, 71136, Note_off_c, 6, 78, 64
8, 71136, Note_on_c, 6, 76, 109
8, 71232, Note_off_c, 6, 76, 64
8, 71232, Note_on_c, 6, 74, 109
8, 71392, Pitch_bend_c, 6, 7228
8, 71397, Pitch_bend_c, 6, 6264
8, 71403, Pitch_bend_c, 6, 5364
8, 71409, Pitch_bend_c, 6, 4561
8, 71415, Pitch_bend_c, 6, 4047
8, 71421, Pitch_bend_c, 6, 3598
8, 71424, Note_off_c, 6, 74, 64
8, 71424, Note_on_c, 6, 74, 109
8, 71427, Pitch_bend_c, 6, 3405
8, 71432, Pitch_bend_c, 6, 3533
8, 71440, Pitch_bend_c, 6, 3983
8, 71445, Pitch_bend_c, 6, 4754
8, 71451, Pitch_bend_c, 6, 5846
8, 71455, Pitch_bend_c, 6, 7099
8, 71463, Pitch_bend_c, 6, 8192
8, 71600, Control_c, 6, 1, 2
8, 71600, Control_c, 6, 1, 1
8, 71604, Control_c, 6, 1, 3
8, 71605, Control_c, 6, 1, 4
8, 71611, Control_c, 6, 1, 7
8, 71611, Control_c, 6, 1, 5
8, 71617, Control_c, 6, 1, 8
8, 71618, Control_c, 6, 1, 10
8, 71622, Control_c, 6, 1, 11
8, 71624, Control_c, 6, 1, 13
8, 71628, Control_c, 6, 1, 16
8, 71628, Control_c, 6, 1, 14
8, 71634, Control_c, 6, 1, 17
8, 71635, Control_c, 6, 1, 19
8, 71640, Control_c, 6, 1, 23
8, 71640, Control_c, 6, 1, 21
8, 71645, Control_c, 6, 1, 24
8, 71646, Control_c, 6, 1, 26
8, 71653, Control_c, 6, 1, 30
8, 71653, Control_c, 6, 1, 28
8, 71657, Control_c, 6, 1, 31
8, 71658, Control_c, 6, 1, 33
8, 71664, Control_c, 6, 1, 35
8, 71664, Control_c, 6, 1, 34
8, 71670, Control_c, 6, 1, 36
8, 71675, Control_c, 6, 1, 37
8, 71677, Control_c, 6, 1, 38
8, 71682, Control_c, 6, 1, 40
8, 71682, Control_c, 6, 1, 39
8, 71687, Control_c, 6, 1, 41
8, 71688, Control_c, 6, 1, 42
8, 71694, Control_c, 6, 1, 44
8, 71694, Control_c, 6, 1, 43
8, 71700, Control_c, 6, 1, 46
8, 71700, Control_c, 6, 1, 45
8, 71706, Control_c, 6, 1, 48
8, 71706, Control_c, 6, 1, 47
8, 71711, Control_c, 6, 1, 49
8, 71717, Control_c, 6, 1, 50
8, 71723, Control_c, 6, 1, 51
8, 71724, Control_c, 6, 1, 52
8, 71729, Control_c, 6, 1, 54
8, 71729, Control_c, 6, 1, 53
8, 71736, Control_c, 6, 1, 57
8, 71736, Control_c, 6, 1, 56
8, 71741, Control_c, 6, 1, 59
8, 71741, Control_c, 6, 1, 58
8, 71747, Control_c, 6, 1, 63
8, 71747, Control_c, 6, 1, 61
8, 71753, Control_c, 6, 1, 64
8, 71754, Control_c, 6, 1, 65
8, 71759, Control_c, 6, 1, 66
8, 71760, Control_c, 6, 1, 68
8, 71764, Control_c, 6, 1, 69
8, 71766, Control_c, 6, 1, 70
8, 71770, Control_c, 6, 1, 71
8, 71772, Control_c, 6, 1, 72
8, 71777, Control_c, 6, 1, 73
8, 71783, Control_c, 6, 1, 75
8, 71783, Control_c, 6, 1, 74
8, 71789, Control_c, 6, 1, 77
8, 71789, Control_c, 6, 1, 76
8, 71794, Control_c, 6, 1, 79
8, 71796, Control_c, 6, 1, 80
8, 71800, Control_c, 6, 1, 81
8, 71802, Control_c, 6, 1, 82
8, 71806, Control_c, 6, 1, 83
8, 71812, Control_c, 6, 1, 86
8, 71812, Control_c, 6, 1, 85
8, 71819, Control_c, 6, 1, 87
8, 71825, Control_c, 6, 1, 93
8, 71825, Control_c, 6, 1, 91
8, 71832, Control_c, 6, 1, 95
8, 71836, Control_c, 6, 1, 97
8, 71837, Control_c, 6, 1, 99
8, 71842, Control_c, 6, 1, 101
8, 71848, Control_c, 6, 1, 103
8, 71849, Control_c, 6, 1, 105
8, 71853, Control_c, 6, 1, 107
8, 71854, Control_c, 6, 1, 109
8, 71859, Control_c, 6, 1, 111
8, 71866, Control_c, 6, 1, 117
8, 71866, Control_c, 6, 1, 115
8, 71872, Control_c, 6, 1, 119
8, 71878, Control_c, 6, 1, 123
8, 71878, Control_c, 6, 1, 121
8, 71883, Control_c, 6, 1, 127
8, 71883, Control_c, 6, 1, 125
8, 72116, Control_c, 6, 1, 125
8, 72120, Control_c, 6, 1, 109
8, 72121, Control_c, 6, 1, 0
8, 72192, Note_off_c, 6, 74, 64
8, 107520, Note_on_c, 6, 76, 115
8, 107638, Control_c, 6, 1, 1
8, 107640, Control_c, 6, 1, 2
8, 107645, Control_c, 6, 1, 4
8, 107645, Control_c, 6, 1, 3
8, 107650, Control_c, 6, 1, 6
8, 107650, Control_c, 6, 1, 5
8, 107657, Control_c, 6, 1, 8
8, 107657, Control_c, 6, 1, 7
8, 107663, Control_c, 6, 1, 10
8, 107663, Control_c, 6, 1, 9
8, 107668, Control_c, 6, 1, 12
8, 107668, Control_c, 6, 1, 11
8, 107674, Control_c, 6, 1, 13
8, 107676, Control_c, 6, 1, 14
8, 107680, Control_c, 6, 1, 15
8, 107681, Control_c, 6, 1, 16
8, 107686, Control_c, 6, 1, 17
8, 107687, Control_c, 6, 1, 18
8, 107691, Control_c, 6, 1, 19
8, 107693, Control_c, 6, 1, 20
8, 107699, Control_c, 6, 1, 21
8, 107704, Control_c, 6, 1, 22
8, 107710, Control_c, 6, 1, 24
8, 107710, Control_c, 6, 1, 23
8, 107716, Control_c, 6, 1, 27
8, 107716, Control_c, 6, 1, 26
8, 107721, Control_c, 6, 1, 28
8, 107723, Control_c, 6, 1, 29
8, 107727, Control_c, 6, 1, 32
8, 107727, Control_c, 6, 1, 31
8, 107733, Control_c, 6, 1, 35
8, 107733, Control_c, 6, 1, 33
8, 107740, Control_c, 6, 1, 37
8, 107740, Control_c, 6, 1, 36
8, 107746, Control_c, 6, 1, 40
8, 107746, Control_c, 6, 1, 39
8, 107752, Control_c, 6, 1, 42
8, 107752, Control_c, 6, 1, 41
8, 107757, Control_c, 6, 1, 43
8, 107759, Control_c, 6, 1, 44
8, 107763, Control_c, 6, 1, 45
8, 107764, Control_c, 6, 1, 46
8, 107769, Control_c, 6, 1, 47
8, 107776, Control_c, 6, 1, 49
8, 107776, Control_c, 6, 1, 48
8, 107783, Control_c, 6, 1, 50
8, 107787, Control_c, 6, 1, 52
8, 107787, Control_c, 6, 1, 51
8, 107793, Control_c, 6, 1, 54
8, 107795, Control_c, 6, 1, 55
8, 107799, Control_c, 6, 1, 56
8, 107800, Control_c, 6, 1, 57
8, 107805, Control_c, 6, 1, 59
8, 107806, Control_c, 6, 1, 60
8, 107810, Control_c, 6, 1, 61
8, 107812, Control_c, 6, 1, 62
8, 107816, Control_c, 6, 1, 63
8, 107817, Control_c, 6, 1, 64
8, 107822, Control_c, 6, 1, 65
8, 107823, Control_c, 6, 1, 66
8, 107828, Control_c, 6, 1, 67
8, 107835, Control_c, 6, 1, 69
8, 107835, Control_c, 6, 1, 68
8, 107840, Control_c, 6, 1, 70
8, 107846, Control_c, 6, 1, 71
8, 107852, Control_c, 6, 1, 72
8, 107858, Control_c, 6, 1, 73
8, 107863, Control_c, 6, 1, 74
8, 107864, Control_c, 6, 1, 75
8, 107871, Control_c, 6, 1, 76
8, 107883, Control_c, 6, 1, 77
8, 107899, Control_c, 6, 1, 78
8, 107906, Control_c, 6, 1, 79
8, 107916, Control_c, 6, 1, 80
8, 107917, Control_c, 6, 1, 81
8, 107929, Control_c, 6, 1, 82
8, 107942, Control_c, 6, 1, 83
8, 107958, Control_c, 6, 1, 84
8, 107971, Control_c, 6, 1, 85
8, 107990, Control_c, 6, 1, 86
8, 108018, Control_c, 6, 1, 87
8, 108043, Control_c, 6, 1, 89
8, 108060, Control_c, 6, 1, 91
8, 108071, Control_c, 6, 1, 93
8, 108083, Control_c, 6, 1, 91
8, 108107, Control_c, 6, 1, 89
8, 108114, Control_c, 6, 1, 87
8, 108119, Control_c, 6, 1, 86
8, 108124, Control_c, 6, 1, 85
8, 108126, Control_c, 6, 1, 84
8, 108130, Control_c, 6, 1, 82
8, 108131, Control_c, 6, 1, 80
8, 108137, Control_c, 6, 1, 74
8, 108137, Control_c, 6, 1, 77
8, 108143, Control_c, 6, 1, 68
8, 108143, Control_c, 6, 1, 71
8, 108149, Control_c, 6, 1, 58
8, 108149, Control_c, 6, 1, 63
8, 108154, Control_c, 6, 1, 53
8, 108156, Control_c, 6, 1, 46
8, 108160, Control_c, 6, 1, 31
8, 108160, Control_c, 6, 1, 38
8, 108165, Control_c, 6, 1, 23
8, 108167, Control_c, 6, 1, 14
8, 108172, Control_c, 6, 1, 1
8, 108172, Control_c, 6, 1, 8
8, 108177, Control_c, 6, 1, 0
8, 108288, Note_off_c, 6, 76, 31
8, 108288, Note_on_c, 6, 74, 117
8, 108643, Pitch_bend_c, 6, 9991
8, 108648, Pitch_bend_c, 6, 12368
8, 108653, Pitch_bend_c, 6, 15966
8, 108660, Pitch_bend_c, 6, 16383
8, 108844, Pitch_bend_c, 6, 15259
8, 108850, Pitch_bend_c, 6, 12593
8, 108856, Pitch_bend_c, 6, 10376
8, 108863, Pitch_bend_c, 6, 7967
8, 108869, Pitch_bend_c, 6, 8192
8, 109056, Note_off_c, 6, 74, 72
8, 109056, Note_on_c, 6, 72, 117
8, 109339, Control_c, 6, 1, 1
8, 109344, Control_c, 6, 1, 2
8, 109349, Control_c, 6, 1, 3
8, 109350, Control_c, 6, 1, 4
8, 109356, Control_c, 6, 1, 6
8, 109356, Control_c, 6, 1, 5
8, 109361, Control_c, 6, 1, 7
8, 109367, Control_c, 6, 1, 9
8, 109367, Control_c, 6, 1, 8
8, 109373, Control_c, 6, 1, 11
8, 109373, Control_c, 6, 1, 10
8, 109379, Control_c, 6, 1, 12
8, 109380, Control_c, 6, 1, 14
8, 109384, Control_c, 6, 1, 15
8, 109386, Control_c, 6, 1, 16
8, 109390, Control_c, 6, 1, 17
8, 109392, Control_c, 6, 1, 18
8, 109397, Control_c, 6, 1, 20
8, 109397, Control_c, 6, 1, 19
8, 109403, Control_c, 6, 1, 23
8, 109403, Control_c, 6, 1, 21
8, 109409, Control_c, 6, 1, 25
8, 109409, Control_c, 6, 1, 24
8, 109413, Control_c, 6, 1, 26
8, 109416, Control_c, 6, 1, 27
8, 109420, Control_c, 6, 1, 28
8, 109422, Control_c, 6, 1, 29
8, 109426, Control_c, 6, 1, 30
8, 109427, Control_c, 6, 1, 32
8, 109432, Control_c, 6, 1, 34
8, 109432, Control_c, 6, 1, 33
8, 109437, Control_c, 6, 1, 35
8, 109438, Control_c, 6, 1, 36
8, 109445, Control_c, 6, 1, 38
8, 109445, Control_c, 6, 1, 37
8, 109450, Control_c, 6, 1, 40
8, 109450, Control_c, 6, 1, 39
8, 109456, Control_c, 6, 1, 42
8, 109456, Control_c, 6, 1, 41
8, 109462, Control_c, 6, 1, 43
8, 109466, Control_c, 6, 1, 44
8, 109469, Control_c, 6, 1, 45
8, 109475, Control_c, 6, 1, 46
8, 109479, Control_c, 6, 1, 47
8, 109480, Control_c, 6, 1, 48
8, 109486, Control_c, 6, 1, 49
8, 109492, Control_c, 6, 1, 50
8, 109498, Control_c, 6, 1, 51
8, 109503, Control_c, 6, 1, 52
8, 109505, Control_c, 6, 1, 53
8, 109509, Control_c, 6, 1, 54
8, 109511, Control_c, 6, 1, 55
8, 109515, Control_c, 6, 1, 56
8, 109516, Control_c, 6, 1, 57
8, 109522, Control_c, 6, 1, 58
8, 109528, Control_c, 6, 1, 59
8, 109534, Control_c, 6, 1, 61
8, 109534, Control_c, 6, 1, 60
8, 109545, Control_c, 6, 1, 62
8, 109546, Control_c, 6, 1, 63
8, 109551, Control_c, 6, 1, 64
8, 109552, Control_c, 6, 1, 65
8, 109558, Control_c, 6, 1, 66
8, 109562, Control_c, 6, 1, 67
8, 109568, Control_c, 6, 1, 68
8, 109575, Control_c, 6, 1, 69
8, 109581, Control_c, 6, 1, 70
8, 109588, Control_c, 6, 1, 71
8, 109598, Control_c, 6, 1, 72
8, 109599, Control_c, 6, 1, 73
8, 109611, Control_c, 6, 1, 75
8, 109611, Control_c, 6, 1, 74
8, 109617, Control_c, 6, 1, 76
8, 109622, Control_c, 6, 1, 77
8, 109628, Control_c, 6, 1, 78
8, 109635, Control_c, 6, 1, 79
8, 109641, Control_c, 6, 1, 80
8, 109653, Control_c, 6, 1, 81
8, 109665, Control_c, 6, 1, 82
8, 109671, Control_c, 6, 1, 83
8, 109683, Control_c, 6, 1, 84
8, 109700, Control_c, 6, 1, 85
8, 109711, Control_c, 6, 1, 86
8, 109730, Control_c, 6, 1, 87
8, 109746, Control_c, 6, 1, 89
8, 109759, Control_c, 6, 1, 91
8, 109782, Control_c, 6, 1, 93
8, 109813, Control_c, 6, 1, 95
8, 109835, Control_c, 6, 1, 97
8, 109853, Control_c, 6, 1, 99
8, 109895, Control_c, 6, 1, 101
8, 109949, Control_c, 6, 1, 103
8, 110014, Control_c, 6, 1, 105
8, 110097, Control_c, 6, 1, 103
8, 110103, Control_c, 6, 1, 101
8, 110108, Control_c, 6, 1, 97
8, 110108, Control_c, 6, 1, 99
8, 110114, Control_c, 6, 1, 89
8, 110114, Control_c, 6, 1, 93
8, 110120, Control_c, 6, 1, 81
8, 110120, Control_c, 6, 1, 85
8, 110126, Control_c, 6, 1, 76
8, 110127, Control_c, 6, 1, 71
8, 110131, Control_c, 6, 1, 57
8, 110131, Control_c, 6, 1, 65
8, 110136, Control_c, 6, 1, 47
8, 110139, Control_c, 6, 1, 37
8, 110143, Control_c, 6, 1, 26
8, 110144, Control_c, 6, 1, 15
8, 110149, Control_c, 6, 1, 0
8, 110149, Control_c, 6, 1, 7
8, 110400, Note_off_c, 6, 72, 88
8, 110400, Note_on_c, 6, 72, 122
8, 110484, Pitch_bend_c, 6, 9541
8, 110488, Pitch_bend_c, 6, 10794
8, 110494, Pitch_bend_c, 6, 11982
8, 110501, Pitch_bend_c, 6, 13010
8, 110506, Pitch_bend_c, 6, 14038
8, 110512, Pitch_bend_c, 6, 15645
8, 110518, Pitch_bend_c, 6, 16383
8, 110595, Pitch_bend_c, 6, 14552
8, 110601, Pitch_bend_c, 6, 12689
8, 110607, Pitch_bend_c, 6, 11083
8, 110613, Pitch_bend_c, 6, 9380
8, 110618, Pitch_bend_c, 6, 8192
8, 110728, Control_c, 6, 1, 2
8, 110728, Control_c, 6, 1, 1
8, 110734, Control_c, 6, 1, 4
8, 110734, Control_c, 6, 1, 3
8, 110739, Control_c, 6, 1, 5
8, 110741, Control_c, 6, 1, 6
8, 110745, Control_c, 6, 1, 7
8, 110746, Control_c, 6, 1, 8
8, 110751, Control_c, 6, 1, 9
8, 110752, Control_c, 6, 1, 10
8, 110758, Control_c, 6, 1, 12
8, 110758, Control_c, 6, 1, 11
8, 110763, Control_c, 6, 1, 15
8, 110763, Control_c, 6, 1, 14
8, 110769, Control_c, 6, 1, 17
8, 110769, Control_c, 6, 1, 16
8, 110773, Control_c, 6, 1, 19
8, 110776, Control_c, 6, 1, 21
8, 110780, Control_c, 6, 1, 23
8, 110782, Control_c, 6, 1, 25
8, 110786, Control_c, 6, 1, 27
8, 110788, Control_c, 6, 1, 28
8, 110793, Control_c, 6, 1, 32
8, 110793, Control_c, 6, 1, 30
8, 110798, Control_c, 6, 1, 34
8, 110798, Control_c, 6, 1, 33
8, 110803, Control_c, 6, 1, 35
8, 110804, Control_c, 6, 1, 37
8, 110810, Control_c, 6, 1, 39
8, 110812, Control_c, 6, 1, 41
8, 110816, Control_c, 6, 1, 42
8, 110817, Control_c, 6, 1, 43
8, 110822, Control_c, 6, 1, 45
8, 110823, Control_c, 6, 1, 46
8, 110827, Control_c, 6, 1, 47
8, 110829, Control_c, 6, 1, 48
8, 110834, Control_c, 6, 1, 51
8, 110834, Control_c, 6, 1, 50
8, 110839, Control_c, 6, 1, 53
8, 110839, Control_c, 6, 1, 52
8, 110846, Control_c, 6, 1, 56
8, 110846, Control_c, 6, 1, 54
8, 110852, Control_c, 6, 1, 57
8, 110857, Control_c, 6, 1, 59
8, 110857, Control_c, 6, 1, 58
8, 110863, Control_c, 6, 1, 61
8, 110863, Control_c, 6, 1, 60
8, 110870, Control_c, 6, 1, 62
8, 110875, Control_c, 6, 1, 64
8, 110875, Control_c, 6, 1, 63
8, 110883, Control_c, 6, 1, 65
8, 110886, Control_c, 6, 1, 67
8, 110886, Control_c, 6, 1, 66
8, 110893, Control_c, 6, 1, 69
8, 110893, Control_c, 6, 1, 68
8, 110898, Control_c, 6, 1, 70
8, 110903, Control_c, 6, 1, 71
8, 110904, Control_c, 6, 1, 72
8, 110911, Control_c, 6, 1, 73
8, 110917, Control_c, 6, 1, 74
8, 110921, Control_c, 6, 1, 75
8, 110927, Control_c, 6, 1, 76
8, 110940, Control_c, 6, 1, 78
8, 110940, Control_c, 6, 1, 77
8, 110952, Control_c, 6, 1, 79
8, 110957, Control_c, 6, 1, 80
8, 110962, Control_c, 6, 1, 81
8, 110969, Control_c, 6, 1, 82
8, 110975, Control_c, 6, 1, 83
8, 110987, Control_c, 6, 1, 84
8, 110992, Control_c, 6, 1, 85
8, 111004, Control_c, 6, 1, 86
8, 111022, Control_c, 6, 1, 87
8, 111033, Control_c, 6, 1, 89
8, 111039, Control_c, 6, 1, 91
8, 111050, Control_c, 6, 1, 93
8, 111062, Control_c, 6, 1, 95
8, 111075, Control_c, 6, 1, 97
8, 111092, Control_c, 6, 1, 99
8, 111110, Control_c, 6, 1, 101
8, 111150, Control_c, 6, 1, 103
8, 111163, Control_c, 6, 1, 105
8, 111198, Control_c, 6, 1, 103
8, 111204, Control_c, 6, 1, 101
8, 111208, Control_c, 6, 1, 97
8, 111209, Control_c, 6, 1, 93
8, 111215, Control_c, 6, 1, 87
8, 111217, Control_c, 6, 1, 83
8, 111220, Control_c, 6, 1, 79
8, 111222, Control_c, 6, 1, 74
8, 111226, Control_c, 6, 1, 67
8, 111228, Control_c, 6, 1, 60
8, 111232, Control_c, 6, 1, 44
8, 111232, Control_c, 6, 1, 52
8, 111238, Control_c, 6, 1, 37
8, 111239, Control_c, 6, 1, 30
8, 111244, Control_c, 6, 1, 14
8, 111244, Control_c, 6, 1, 22
8, 111251, Control_c, 6, 1, 4
8, 111251, Control_c, 6, 1, 9
8, 111256, Control_c, 6, 1, 0
8, 111360, Note_off_c, 6, 72, 54
8, 111360, Note_on_c, 6, 76, 124
8, 111552, Note_off_c, 6, 76, 63
8, 111552, Note_on_c, 6, 74, 124
8, 111744, Note_off_c, 6, 74, 70
8, 111744, Note_on_c, 6, 72, 122
8, 111832, Pitch_bend_c, 6, 8481
8, 111836, Pitch_bend_c, 6, 10183
8, 111843, Pitch_bend_c, 6, 12111
8, 111849, Pitch_bend_c, 6, 13589
8, 111855, Pitch_bend_c, 6, 16094
8, 111860, Pitch_bend_c, 6, 16383
8, 111924, Pitch_bend_c, 6, 14938
8, 111930, Pitch_bend_c, 6, 12882
8, 111937, Pitch_bend_c, 6, 11147
8, 111941, Pitch_bend_c, 6, 9316
8, 111949, Pitch_bend_c, 6, 8192
8, 112128, Note_off_c, 6, 72, 99
8, 112128, Note_on_c, 6, 71, 121
8, 113673, Control_c, 6, 1, 1
8, 113684, Control_c, 6, 1, 2
8, 113708, Control_c, 6, 1, 4
8, 113708, Control_c, 6, 1, 3
8, 113720, Control_c, 6, 1, 5
8, 113726, Control_c, 6, 1, 6
8, 113732, Control_c, 6, 1, 7
8, 113745, Control_c, 6, 1, 8
8, 113749, Control_c, 6, 1, 9
8, 113755, Control_c, 6, 1, 10
8, 113760, Control_c, 6, 1, 11
8, 113773, Control_c, 6, 1, 13
8, 113773, Control_c, 6, 1, 12
8, 113786, Control_c, 6, 1, 14
8, 113809, Control_c, 6, 1, 15
8, 113815, Control_c, 6, 1, 16
8, 113828, Control_c, 6, 1, 17
8, 113834, Control_c, 6, 1, 18
8, 113838, Control_c, 6, 1, 19
8, 113839, Control_c, 6, 1, 20
8, 113844, Control_c, 6, 1, 21
8, 113849, Control_c, 6, 1, 22
8, 113850, Control_c, 6, 1, 23
8, 113857, Control_c, 6, 1, 24
8, 113862, Control_c, 6, 1, 25
8, 113874, Control_c, 6, 1, 26
8, 113879, Control_c, 6, 1, 27
8, 113881, Control_c, 6, 1, 28
8, 113885, Control_c, 6, 1, 29
8, 113887, Control_c, 6, 1, 30
8, 113892, Control_c, 6, 1, 31
8, 113904, Control_c, 6, 1, 32
8, 113915, Control_c, 6, 1, 33
8, 113927, Control_c, 6, 1, 34
8, 113938, Control_c, 6, 1, 35
8, 113963, Control_c, 6, 1, 36
8, 114004, Control_c, 6, 1, 37
8, 114021, Control_c, 6, 1, 38
8, 114057, Control_c, 6, 1, 39
8, 114080, Control_c, 6, 1, 40
8, 114092, Control_c, 6, 1, 41
8, 114103, Control_c, 6, 1, 42
8, 114112, Control_c, 6, 1, 43
8, 114129, Control_c, 6, 1, 44
8, 114140, Control_c, 6, 1, 45
8, 114176, Control_c, 6, 1, 46
8, 114205, Control_c, 6, 1, 47
8, 114212, Control_c, 6, 1, 48
8, 114228, Control_c, 6, 1, 49
8, 114264, Control_c, 6, 1, 50
8, 114271, Control_c, 6, 1, 51
8, 114282, Control_c, 6, 1, 52
8, 114295, Control_c, 6, 1, 53
8, 114307, Control_c, 6, 1, 54
8, 114343, Control_c, 6, 1, 55
8, 114373, Control_c, 6, 1, 56
8, 114390, Control_c, 6, 1, 57
8, 114467, Control_c, 6, 1, 58
8, 114496, Control_c, 6, 1, 59
8, 114591, Control_c, 6, 1, 60
8, 114661, Control_c, 6, 1, 61
8, 114899, Control_c, 6, 1, 62
8, 114958, Control_c, 6, 1, 63
8, 115183, Control_c, 6, 1, 64
8, 115302, Control_c, 6, 1, 65
8, 115485, Control_c, 6, 1, 64
8, 115507, Control_c, 6, 1, 65
8, 115644, Control_c, 6, 1, 66
8, 115680, Control_c, 6, 1, 65
8, 115917, Control_c, 6, 1, 66
8, 115964, Control_c, 6, 1, 67
8, 116153, Control_c, 6, 1, 68
8, 116200, Control_c, 6, 1, 67
8, 116242, Control_c, 6, 1, 68
8, 116348, Control_c, 6, 1, 67
8, 116418, Control_c, 6, 1, 66
8, 116424, Control_c, 6, 1, 65
8, 116426, Control_c, 6, 1, 64
8, 116431, Control_c, 6, 1, 63
8, 116436, Control_c, 6, 1, 62
8, 116441, Control_c, 6, 1, 61
8, 116442, Control_c, 6, 1, 60
8, 116448, Control_c, 6, 1, 58
8, 116448, Control_c, 6, 1, 59
8, 116454, Control_c, 6, 1, 57
8, 116460, Control_c, 6, 1, 56
8, 116466, Control_c, 6, 1, 55
8, 116467, Control_c, 6, 1, 54
8, 116471, Control_c, 6, 1, 53
8, 116477, Control_c, 6, 1, 52
8, 116484, Control_c, 6, 1, 50
8, 116484, Control_c, 6, 1, 51
8, 116490, Control_c, 6, 1, 48
8, 116490, Control_c, 6, 1, 49
8, 116494, Control_c, 6, 1, 47
8, 116502, Control_c, 6, 1, 45
8, 116502, Control_c, 6, 1, 46
8, 116509, Control_c, 6, 1, 44
8, 116514, Control_c, 6, 1, 43
8, 116519, Control_c, 6, 1, 42
8, 116524, Control_c, 6, 1, 41
8, 116525, Control_c, 6, 1, 39
8, 116530, Control_c, 6, 1, 38
8, 116536, Control_c, 6, 1, 37
8, 116537, Control_c, 6, 1, 36
8, 116543, Control_c, 6, 1, 35
8, 116545, Control_c, 6, 1, 34
8, 116547, Control_c, 6, 1, 33
8, 116550, Control_c, 6, 1, 32
8, 116555, Control_c, 6, 1, 31
8, 116560, Control_c, 6, 1, 30
8, 116598, Control_c, 6, 1, 29
8, 116602, Control_c, 6, 1, 27
8, 116602, Control_c, 6, 1, 28
8, 116615, Control_c, 6, 1, 25
8, 116615, Control_c, 6, 1, 26
8, 116621, Control_c, 6, 1, 24
8, 116626, Control_c, 6, 1, 22
8, 116626, Control_c, 6, 1, 23
8, 116633, Control_c, 6, 1, 21
8, 116639, Control_c, 6, 1, 20
8, 116672, Control_c, 6, 1, 19
8, 116673, Control_c, 6, 1, 16
8, 116673, Control_c, 6, 1, 17
8, 116685, Control_c, 6, 1, 12
8, 116685, Control_c, 6, 1, 14
8, 116691, Control_c, 6, 1, 10
8, 116692, Control_c, 6, 1, 9
8, 116696, Control_c, 6, 1, 8
8, 116702, Control_c, 6, 1, 7
8, 116703, Control_c, 6, 1, 6
8, 116709, Control_c, 6, 1, 5
8, 116714, Control_c, 6, 1, 4
8, 116762, Control_c, 6, 1, 3
8, 116768, Control_c, 6, 1, 2
8, 116774, Control_c, 6, 1, 1
8, 116780, Control_c, 6, 1, 0
8, 117134, Control_c, 6, 11, 120
8, 117502, Control_c, 6, 11, 110
8, 117902, Control_c, 6, 11, 100
8, 118286, Control_c, 6, 11, 90
8, 118638, Control_c, 6, 11, 80
8, 118958, Control_c, 6, 11, 60
8, 119214, Control_c, 6, 11, 40
8, 119406, Control_c, 6, 11, 20
8, 119712, Note_off_c, 6, 71, 64
8, 119774, Control_c, 6, 11, 127
8, 119808, End_track
9, 0, Start_track
9, 0, Title_t, "Harmonics"
9, 648, Control_c, 7, 121, 0
9, 712, Control_c, 7, 0, 0
9, 768, Program_c, 7, 31
9, 840, Control_c, 7, 32, 0
9, 888, Control_c, 7, 7, 127
9, 936, Control_c, 7, 10, 64
9, 1008, Control_c, 7, 1, 0
9, 1104, Control_c, 7, 91, 127
9, 1200, Control_c, 7, 93, 0
9, 1296, Control_c, 7, 2, 0
9, 7680, Note_on_c, 7, 54, 58
9, 9144, Note_off_c, 7, 54, 73
9, 9222, Note_on_c, 7, 52, 58
9, 9768, Note_off_c, 7, 52, 26
9, 9824, Note_on_c, 7, 50, 58
9, 10368, Note_on_c, 7, 45, 58
9, 10378, Note_off_c, 7, 50, 44
9, 10752, Note_off_c, 7, 45, 44
9, 10752, Note_on_c, 7, 54, 59
9, 12216, Note_off_c, 7, 54, 73
9, 78344, Note_on_c, 7, 54, 50
9, 79730, Note_off_c, 7, 54, 73
9, 79872, Note_on_c, 7, 52, 50
9, 80418, Note_off_c, 7, 52, 26
9, 80464, Note_on_c, 7, 50, 50
9, 81018, Note_off_c, 7, 50, 44
9, 81024, Note_on_c, 7, 45, 50
9, 81234, Note_off_c, 7, 45, 58
9, 81416, Note_on_c, 7, 54, 50
9, 82802, Note_off_c, 7, 54, 73
9, 82944, Note_on_c, 7, 52, 50
9, 83490, Note_off_c, 7, 52, 26
9, 83536, Note_on_c, 7, 50, 50
9, 84090, Note_off_c, 7, 50, 44
9, 84096, Note_on_c, 7, 45, 50
9, 84306, Note_off_c, 7, 45, 58
9, 84480, Note_on_c, 7, 54, 50
9, 85866, Note_off_c, 7, 54, 73
9, 86008, Note_on_c, 7, 52, 50
9, 86554, Note_off_c, 7, 52, 26
9, 86600, Note_on_c, 7, 50, 50
9, 87154, Note_off_c, 7, 50, 44
9, 87160, Note_on_c, 7, 45, 50
9, 87370, Note_off_c, 7, 45, 58
9, 87552, Note_on_c, 7, 54, 50
9, 88938, Note_off_c, 7, 54, 73
9, 89088, Note_on_c, 7, 52, 50
9, 89634, Note_off_c, 7, 52, 26
9, 89680, Note_on_c, 7, 50, 50
9, 90234, Note_off_c, 7, 50, 44
9, 90240, Note_on_c, 7, 45, 50
9, 90450, Note_off_c, 7, 45, 58
9, 90624, End_track
10, 0, Start_track
10, 0, Title_t, "Drums"
10, 648, Control_c, 9, 121, 0
10, 720, Program_c, 9, 0
10, 768, Control_c, 9, 0, 0
10, 840, Control_c, 9, 32, 0
10, 888, Control_c, 9, 7, 127
10, 936, Control_c, 9, 10, 64
10, 1008, Control_c, 9, 1, 0
10, 1104, Control_c, 9, 91, 127
10, 1200, Control_c, 9, 93, 0
10, 1296, Control_c, 9, 2, 0
10, 12294, Note_on_c, 9, 38, 119
10, 12342, Note_off_c, 9, 38, 64
10, 12476, Note_on_c, 9, 45, 105
10, 12524, Note_off_c, 9, 45, 64
10, 12668, Note_on_c, 9, 41, 89
10, 12716, Note_off_c, 9, 41, 64
10, 12860, Note_on_c, 9, 38, 95
10, 12908, Note_off_c, 9, 38, 64
10, 12956, Note_on_c, 9, 38, 107
10, 13004, Note_off_c, 9, 38, 64
10, 13052, Note_on_c, 9, 38, 114
10, 13100, Note_off_c, 9, 38, 64
10, 13148, Note_on_c, 9, 38, 115
10, 13196, Note_off_c, 9, 38, 64
10, 13244, Note_on_c, 9, 45, 105
10, 13292, Note_off_c, 9, 45, 64
10, 13340, Note_on_c, 9, 45, 105
10, 13388, Note_off_c, 9, 45, 64
10, 13436, Note_on_c, 9, 43, 102
10, 13484, Note_off_c, 9, 43, 64
10, 13532, Note_on_c, 9, 43, 102
10, 13580, Note_off_c, 9, 43, 64
10, 13628, Note_on_c, 9, 41, 100
10, 13676, Note_off_c, 9, 41, 64
10, 13724, Note_on_c, 9, 41, 99
10, 13772, Note_off_c, 9, 41, 64
10, 13820, Note_on_c, 9, 49, 115
10, 13820, Note_on_c, 9, 35, 127
10, 13868, Note_off_c, 9, 35, 64
10, 13868, Note_off_c, 9, 49, 64
10, 14204, Note_on_c, 9, 37, 115
10, 14204, Note_on_c, 9, 42, 90
10, 14252, Note_off_c, 9, 42, 64
10, 14252, Note_off_c, 9, 37, 64
10, 14396, Note_on_c, 9, 42, 72
10, 14396, Note_on_c, 9, 35, 127
10, 14444, Note_off_c, 9, 35, 64
10, 14444, Note_off_c, 9, 42, 64
10, 14588, Note_on_c, 9, 42, 90
10, 14636, Note_off_c, 9, 42, 64
10, 14780, Note_on_c, 9, 42, 72
10, 14780, Note_on_c, 9, 35, 127
10, 14828, Note_off_c, 9, 35, 64
10, 14828, Note_off_c, 9, 42, 64
10, 14972, Note_on_c, 9, 37, 116
10, 14972, Note_on_c, 9, 42, 90
10, 15020, Note_off_c, 9, 42, 64
10, 15020, Note_off_c, 9, 37, 64
10, 15164, Note_on_c, 9, 42, 72
10, 15212, Note_off_c, 9, 42, 64
10, 15356, Note_on_c, 9, 35, 127
10, 15356, Note_on_c, 9, 42, 90
10, 15404, Note_off_c, 9, 42, 64
10, 15404, Note_off_c, 9, 35, 64
10, 15548, Note_on_c, 9, 42, 72
10, 15596, Note_off_c, 9, 42, 64
10, 15740, Note_on_c, 9, 37, 115
10, 15740, Note_on_c, 9, 42, 90
10, 15788, Note_off_c, 9, 42, 64
10, 15788, Note_off_c, 9, 37, 64
10, 15932, Note_on_c, 9, 42, 74
10, 15932, Note_on_c, 9, 35, 127
10, 15980, Note_off_c, 9, 35, 64
10, 15980, Note_off_c, 9, 42, 64
10, 16124, Note_on_c, 9, 42, 90
10, 16172, Note_off_c, 9, 42, 64
10, 16316, Note_on_c, 9, 42, 72
10, 16316, Note_on_c, 9, 35, 127
10, 16364, Note_off_c, 9, 35, 64
10, 16364, Note_off_c, 9, 42, 64
10, 16508, Note_on_c, 9, 37, 116
10, 16508, Note_on_c, 9, 42, 90
10, 16556, Note_off_c, 9, 42, 64
10, 16556, Note_off_c, 9, 37, 64
10, 16700, Note_on_c, 9, 42, 72
10, 16748, Note_off_c, 9, 42, 64
10, 16892, Note_on_c, 9, 35, 127
10, 16892, Note_on_c, 9, 42, 90
10, 16940, Note_off_c, 9, 42, 64
10, 16940, Note_off_c, 9, 35, 64
10, 17084, Note_on_c, 9, 42, 72
10, 17132, Note_off_c, 9, 42, 64
10, 17276, Note_on_c, 9, 37, 115
10, 17276, Note_on_c, 9, 42, 90
10, 17324, Note_off_c, 9, 42, 64
10, 17324, Note_off_c, 9, 37, 64
10, 17468, Note_on_c, 9, 42, 67
10, 17468, Note_on_c, 9, 35, 127
10, 17516, Note_off_c, 9, 35, 64
10, 17516, Note_off_c, 9, 42, 64
10, 17660, Note_on_c, 9, 42, 90
10, 17708, Note_off_c, 9, 42, 64
10, 17852, Note_on_c, 9, 42, 69
10, 17852, Note_on_c, 9, 35, 127
10, 17900, Note_off_c, 9, 35, 64
10, 17900, Note_off_c, 9, 42, 64
10, 18044, Note_on_c, 9, 37, 116
10, 18044, Note_on_c, 9, 42, 90
10, 18092, Note_off_c, 9, 42, 64
10, 18092, Note_off_c, 9, 37, 64
10, 18236, Note_on_c, 9, 42, 69
10, 18284, Note_off_c, 9, 42, 64
10, 18428, Note_on_c, 9, 35, 127
10, 18428, Note_on_c, 9, 42, 90
10, 18476, Note_off_c, 9, 42, 64
10, 18476, Note_off_c, 9, 35, 64
10, 18620, Note_on_c, 9, 42, 69
10, 18668, Note_off_c, 9, 42, 64
10, 18812, Note_on_c, 9, 37, 115
10, 18812, Note_on_c, 9, 42, 90
10, 18860, Note_off_c, 9, 42, 64
10, 18860, Note_off_c, 9, 37, 64
10, 19004, Note_on_c, 9, 42, 67
10, 19004, Note_on_c, 9, 35, 127
10, 19052, Note_off_c, 9, 35, 64
10, 19052, Note_off_c, 9, 42, 64
10, 19196, Note_on_c, 9, 42, 90
10, 19244, Note_off_c, 9, 42, 64
10, 19388, Note_on_c, 9, 42, 71
10, 19388, Note_on_c, 9, 35, 127
10, 19436, Note_off_c, 9, 35, 64
10, 19436, Note_off_c, 9, 42, 64
10, 19580, Note_on_c, 9, 37, 116
10, 19580, Note_on_c, 9, 42, 90
10, 19628, Note_off_c, 9, 42, 64
10, 19628, Note_off_c, 9, 37, 64
10, 19772, Note_on_c, 9, 42, 71
10, 19820, Note_off_c, 9, 42, 64
10, 19964, Note_on_c, 9, 35, 127
10, 19964, Note_on_c, 9, 42, 90
10, 20012, Note_off_c, 9, 42, 64
10, 20012, Note_off_c, 9, 35, 64
10, 20156, Note_on_c, 9, 42, 71
10, 20204, Note_off_c, 9, 42, 64
10, 20348, Note_on_c, 9, 37, 115
10, 20348, Note_on_c, 9, 42, 90
10, 20396, Note_off_c, 9, 42, 64
10, 20396, Note_off_c, 9, 37, 64
10, 20540, Note_on_c, 9, 42, 69
10, 20540, Note_on_c, 9, 35, 127
10, 20588, Note_off_c, 9, 35, 64
10, 20588, Note_off_c, 9, 42, 64
10, 20732, Note_on_c, 9, 42, 90
10, 20780, Note_off_c, 9, 42, 64
10, 20924, Note_on_c, 9, 42, 66
10, 20924, Note_on_c, 9, 35, 127
10, 20972, Note_off_c, 9, 35, 64
10, 20972, Note_off_c, 9, 42, 64
10, 21116, Note_on_c, 9, 37, 116
10, 21116, Note_on_c, 9, 42, 90
10, 21164, Note_off_c, 9, 42, 64
10, 21164, Note_off_c, 9, 37, 64
10, 21308, Note_on_c, 9, 42, 90
10, 21356, Note_off_c, 9, 42, 64
10, 21500, Note_on_c, 9, 35, 127
10, 21500, Note_on_c, 9, 42, 90
10, 21548, Note_off_c, 9, 42, 64
10, 21548, Note_off_c, 9, 35, 64
10, 21692, Note_on_c, 9, 42, 72
10, 21740, Note_off_c, 9, 42, 64
10, 21884, Note_on_c, 9, 37, 115
10, 21884, Note_on_c, 9, 42, 90
10, 21932, Note_off_c, 9, 42, 64
10, 21932, Note_off_c, 9, 37, 64
10, 22076, Note_on_c, 9, 42, 71
10, 22076, Note_on_c, 9, 35, 127
10, 22124, Note_off_c, 9, 35, 64
10, 22124, Note_off_c, 9, 42, 64
10, 22268, Note_on_c, 9, 42, 90
10, 22316, Note_off_c, 9, 42, 64
10, 22460, Note_on_c, 9, 42, 72
10, 22460, Note_on_c, 9, 35, 127
10, 22508, Note_off_c, 9, 35, 64
10, 22508, Note_off_c, 9, 42, 64
10, 22652, Note_on_c, 9, 37, 116
10, 22652, Note_on_c, 9, 42, 90
10, 22700, Note_off_c, 9, 42, 64
10, 22700, Note_off_c, 9, 37, 64
10, 22844, Note_on_c, 9, 42, 71
10, 22892, Note_off_c, 9, 42, 64
10, 23036, Note_on_c, 9, 35, 127
10, 23036, Note_on_c, 9, 42, 90
10, 23084, Note_off_c, 9, 42, 64
10, 23084, Note_off_c, 9, 35, 64
10, 23228, Note_on_c, 9, 42, 72
10, 23276, Note_off_c, 9, 42, 64
10, 23420, Note_on_c, 9, 37, 115
10, 23420, Note_on_c, 9, 42, 90
10, 23468, Note_off_c, 9, 42, 64
10, 23468, Note_off_c, 9, 37, 64
10, 23612, Note_on_c, 9, 42, 72
10, 23612, Note_on_c, 9, 35, 127
10, 23660, Note_off_c, 9, 35, 64
10, 23660, Note_off_c, 9, 42, 64
10, 23804, Note_on_c, 9, 42, 90
10, 23852, Note_off_c, 9, 42, 64
10, 23996, Note_on_c, 9, 42, 72
10, 23996, Note_on_c, 9, 35, 127
10, 24044, Note_off_c, 9, 35, 64
10, 24044, Note_off_c, 9, 42, 64
10, 24188, Note_on_c, 9, 37, 116
10, 24188, Note_on_c, 9, 42, 90
10, 24236, Note_off_c, 9, 42, 64
10, 24236, Note_off_c, 9, 37, 64
10, 24380, Note_on_c, 9, 42, 74
10, 24428, Note_off_c, 9, 42, 64
10, 24572, Note_on_c, 9, 35, 127
10, 24572, Note_on_c, 9, 49, 115
10, 24620, Note_off_c, 9, 49, 64
10, 24620, Note_off_c, 9, 35, 64
10, 26108, Note_on_c, 9, 49, 115
10, 26108, Note_on_c, 9, 35, 127
10, 26156, Note_off_c, 9, 35, 64
10, 26156, Note_off_c, 9, 49, 64
10, 26864, Note_on_c, 9, 38, 103
10, 26888, Note_on_c, 9, 38, 121
10, 26912, Note_off_c, 9, 38, 64
10, 26936, Note_off_c, 9, 38, 64
10, 27068, Note_on_c, 9, 47, 106
10, 27116, Note_off_c, 9, 47, 64
10, 27260, Note_on_c, 9, 43, 105
10, 27308, Note_off_c, 9, 43, 64
10, 27356, Note_on_c, 9, 43, 103
10, 27404, Note_off_c, 9, 43, 64
10, 27452, Note_on_c, 9, 41, 106
10, 27500, Note_off_c, 9, 41, 64
10, 27644, Note_on_c, 9, 35, 127
10, 27644, Note_on_c, 9, 49, 111
10, 27692, Note_off_c, 9, 49, 64
10, 27692, Note_off_c, 9, 35, 64
10, 27836, Note_on_c, 9, 35, 127
10, 27884, Note_off_c, 9, 35, 64
10, 28028, Note_on_c, 9, 38, 121
10, 28028, Note_on_c, 9, 51, 104
10, 28076, Note_off_c, 9, 51, 64
10, 28076, Note_off_c, 9, 38, 64
10, 28220, Note_on_c, 9, 35, 127
10, 28220, Note_on_c, 9, 51, 88
10, 28268, Note_off_c, 9, 51, 64
10, 28268, Note_off_c, 9, 35, 64
10, 28412, Note_on_c, 9, 35, 127
10, 28412, Note_on_c, 9, 51, 104
10, 28460, Note_off_c, 9, 51, 64
10, 28460, Note_off_c, 9, 35, 64
10, 28604, Note_on_c, 9, 51, 87
10, 28652, Note_off_c, 9, 51, 64
10, 28700, Note_on_c, 9, 35, 127
10, 28748, Note_off_c, 9, 35, 64
10, 28796, Note_on_c, 9, 38, 119
10, 28796, Note_on_c, 9, 51, 104
10, 28844, Note_off_c, 9, 51, 64
10, 28844, Note_off_c, 9, 38, 64
10, 28988, Note_on_c, 9, 51, 84
10, 29036, Note_off_c, 9, 51, 64
10, 29180, Note_on_c, 9, 35, 127
10, 29180, Note_on_c, 9, 51, 104
10, 29228, Note_off_c, 9, 51, 64
10, 29228, Note_off_c, 9, 35, 64
10, 29372, Note_on_c, 9, 35, 127
10, 29372, Note_on_c, 9, 51, 85
10, 29420, Note_off_c, 9, 51, 64
10, 29420, Note_off_c, 9, 35, 64
10, 29564, Note_on_c, 9, 35, 127
10, 29564, Note_on_c, 9, 38, 119
10, 29564, Note_on_c, 9, 51, 104
10, 29612, Note_off_c, 9, 51, 64
10, 29612, Note_off_c, 9, 38, 64
10, 29612, Note_off_c, 9, 35, 64
10, 29756, Note_on_c, 9, 35, 127
10, 29756, Note_on_c, 9, 51, 84
10, 29804, Note_off_c, 9, 51, 64
10, 29804, Note_off_c, 9, 35, 64
10, 29948, Note_on_c, 9, 35, 127
10, 29948, Note_on_c, 9, 38, 121
10, 29948, Note_on_c, 9, 51, 104
10, 29996, Note_off_c, 9, 51, 64
10, 29996, Note_off_c, 9, 38, 64
10, 29996, Note_off_c, 9, 35, 64
10, 30140, Note_on_c, 9, 35, 127
10, 30140, Note_on_c, 9, 51, 91
10, 30188, Note_off_c, 9, 51, 64
10, 30188, Note_off_c, 9, 35, 64
10, 30332, Note_on_c, 9, 35, 127
10, 30332, Note_on_c, 9, 38, 121
10, 30380, Note_off_c, 9, 38, 64
10, 30380, Note_off_c, 9, 35, 64
10, 30428, Note_on_c, 9, 38, 121
10, 30476, Note_off_c, 9, 38, 64
10, 30524, Note_on_c, 9, 35, 127
10, 30524, Note_on_c, 9, 38, 120
10, 30572, Note_off_c, 9, 38, 64
10, 30572, Note_off_c, 9, 35, 64
10, 30620, Note_on_c, 9, 38, 124
10, 30668, Note_off_c, 9, 38, 64
10, 30716, Note_on_c, 9, 49, 125
10, 30716, Note_on_c, 9, 35, 127
10, 30716, Note_on_c, 9, 39, 70
10, 30764, Note_off_c, 9, 39, 64
10, 30764, Note_off_c, 9, 35, 64
10, 30764, Note_off_c, 9, 49, 64
10, 31100, Note_on_c, 9, 38, 122
10, 31100, Note_on_c, 9, 42, 90
10, 31100, Note_on_c, 9, 39, 70
10, 31148, Note_off_c, 9, 39, 64
10, 31148, Note_off_c, 9, 42, 64
10, 31148, Note_off_c, 9, 38, 64
10, 31292, Note_on_c, 9, 42, 77
10, 31340, Note_off_c, 9, 42, 64
10, 31484, Note_on_c, 9, 35, 127
10, 31484, Note_on_c, 9, 42, 90
10, 31484, Note_on_c, 9, 39, 71
10, 31532, Note_off_c, 9, 39, 64
10, 31532, Note_off_c, 9, 42, 64
10, 31532, Note_off_c, 9, 35, 64
10, 31676, Note_on_c, 9, 35, 127
10, 31676, Note_on_c, 9, 42, 77
10, 31724, Note_off_c, 9, 42, 64
10, 31724, Note_off_c, 9, 35, 64
10, 31868, Note_on_c, 9, 38, 122
10, 31868, Note_on_c, 9, 42, 90
10, 31868, Note_on_c, 9, 39, 70
10, 31916, Note_off_c, 9, 39, 64
10, 31916, Note_off_c, 9, 42, 64
10, 31916, Note_off_c, 9, 38, 64
10, 32060, Note_on_c, 9, 42, 77
10, 32108, Note_off_c, 9, 42, 64
10, 32252, Note_on_c, 9, 35, 127
10, 32252, Note_on_c, 9, 42, 90
10, 32252, Note_on_c, 9, 39, 70
10, 32300, Note_off_c, 9, 39, 64
10, 32300, Note_off_c, 9, 42, 64
10, 32300, Note_off_c, 9, 35, 64
10, 32444, Note_on_c, 9, 42, 77
10, 32492, Note_off_c, 9, 42, 64
10, 32540, Note_on_c, 9, 35, 127
10, 32588, Note_off_c, 9, 35, 64
10, 32636, Note_on_c, 9, 38, 122
10, 32636, Note_on_c, 9, 42, 90
10, 32636, Note_on_c, 9, 39, 71
10, 32684, Note_off_c, 9, 39, 64
10, 32684, Note_off_c, 9, 42, 64
10, 32684, Note_off_c, 9, 38, 64
10, 32828, Note_on_c, 9, 35, 127
10, 32828, Note_on_c, 9, 42, 74
10, 32876, Note_off_c, 9, 42, 64
10, 32876, Note_off_c, 9, 35, 64
10, 33020, Note_on_c, 9, 38, 122
10, 33020, Note_on_c, 9, 42, 90
10, 33020, Note_on_c, 9, 39, 68
10, 33068, Note_off_c, 9, 39, 64
10, 33068, Note_off_c, 9, 42, 64
10, 33068, Note_off_c, 9, 38, 64
10, 33212, Note_on_c, 9, 35, 127
10, 33212, Note_on_c, 9, 42, 72
10, 33260, Note_off_c, 9, 42, 64
10, 33260, Note_off_c, 9, 35, 64
10, 33308, Note_on_c, 9, 35, 127
10, 33356, Note_off_c, 9, 35, 64
10, 33404, Note_on_c, 9, 38, 122
10, 33404, Note_on_c, 9, 42, 90
10, 33404, Note_on_c, 9, 39, 70
10, 33452, Note_off_c, 9, 39, 64
10, 33452, Note_off_c, 9, 42, 64
10, 33452, Note_off_c, 9, 38, 64
10, 33596, Note_on_c, 9, 35, 127
10, 33596, Note_on_c, 9, 42, 74
10, 33644, Note_off_c, 9, 42, 64
10, 33644, Note_off_c, 9, 35, 64
10, 33788, Note_on_c, 9, 35, 127
10, 33788, Note_on_c, 9, 42, 90
10, 33788, Note_on_c, 9, 39, 70
10, 33836, Note_off_c, 9, 39, 64
10, 33836, Note_off_c, 9, 42, 64
10, 33836, Note_off_c, 9, 35, 64
10, 33980, Note_on_c, 9, 42, 72
10, 34028, Note_off_c, 9, 42, 64
10, 34172, Note_on_c, 9, 42, 90
10, 34172, Note_on_c, 9, 38, 122
10, 34172, Note_on_c, 9, 39, 70
10, 34220, Note_off_c, 9, 39, 64
10, 34220, Note_off_c, 9, 38, 64
10, 34220, Note_off_c, 9, 42, 64
10, 34364, Note_on_c, 9, 42, 71
10, 34412, Note_off_c, 9, 42, 64
10, 34556, Note_on_c, 9, 42, 90
10, 34556, Note_on_c, 9, 35, 127
10, 34556, Note_on_c, 9, 39, 70
10, 34604, Note_off_c, 9, 39, 64
10, 34604, Note_off_c, 9, 35, 64
10, 34604, Note_off_c, 9, 42, 64
10, 34748, Note_on_c, 9, 42, 71
10, 34748, Note_on_c, 9, 35, 127
10, 34796, Note_off_c, 9, 35, 64
10, 34796, Note_off_c, 9, 42, 64
10, 34940, Note_on_c, 9, 42, 90
10, 34940, Note_on_c, 9, 38, 122
10, 34940, Note_on_c, 9, 39, 71
10, 34988, Note_off_c, 9, 39, 64
10, 34988, Note_off_c, 9, 38, 64
10, 34988, Note_off_c, 9, 42, 64
10, 35132, Note_on_c, 9, 42, 71
10, 35180, Note_off_c, 9, 42, 64
10, 35324, Note_on_c, 9, 42, 90
10, 35324, Note_on_c, 9, 35, 127
10, 35324, Note_on_c, 9, 39, 68
10, 35372, Note_off_c, 9, 39, 64
10, 35372, Note_off_c, 9, 35, 64
10, 35372, Note_off_c, 9, 42, 64
10, 35516, Note_on_c, 9, 42, 69
10, 35564, Note_off_c, 9, 42, 64
10, 35612, Note_on_c, 9, 35, 127
10, 35660, Note_off_c, 9, 35, 64
10, 35708, Note_on_c, 9, 42, 90
10, 35708, Note_on_c, 9, 38, 122
10, 35708, Note_on_c, 9, 39, 70
10, 35756, Note_off_c, 9, 39, 64
10, 35756, Note_off_c, 9, 38, 64
10, 35756, Note_off_c, 9, 42, 64
10, 35900, Note_on_c, 9, 42, 71
10, 35900, Note_on_c, 9, 35, 127
10, 35948, Note_off_c, 9, 35, 64
10, 35948, Note_off_c, 9, 42, 64
10, 36092, Note_on_c, 9, 38, 122
10, 36092, Note_on_c, 9, 39, 70
10, 36140, Note_off_c, 9, 39, 64
10, 36140, Note_off_c, 9, 38, 64
10, 36188, Note_on_c, 9, 38, 124
10, 36236, Note_off_c, 9, 38, 64
10, 36284, Note_on_c, 9, 35, 127
10, 36332, Note_off_c, 9, 35, 64
10, 36476, Note_on_c, 9, 38, 122
10, 36476, Note_on_c, 9, 39, 70
10, 36524, Note_off_c, 9, 39, 64
10, 36524, Note_off_c, 9, 38, 64
10, 36572, Note_on_c, 9, 38, 124
10, 36620, Note_off_c, 9, 38, 64
10, 36668, Note_on_c, 9, 38, 122
10, 36716, Note_off_c, 9, 38, 64
10, 36764, Note_on_c, 9, 38, 124
10, 36812, Note_off_c, 9, 38, 64
10, 36860, Note_on_c, 9, 49, 125
10, 36860, Note_on_c, 9, 35, 127
10, 36860, Note_on_c, 9, 39, 70
10, 36908, Note_off_c, 9, 39, 64
10, 36908, Note_off_c, 9, 35, 64
10, 36908, Note_off_c, 9, 49, 64
10, 37244, Note_on_c, 9, 38, 122
10, 37244, Note_on_c, 9, 42, 90
10, 37244, Note_on_c, 9, 39, 70
10, 37292, Note_off_c, 9, 39, 64
10, 37292, Note_off_c, 9, 42, 64
10, 37292, Note_off_c, 9, 38, 64
10, 37436, Note_on_c, 9, 42, 72
10, 37484, Note_off_c, 9, 42, 64
10, 37628, Note_on_c, 9, 35, 127
10, 37628, Note_on_c, 9, 42, 90
10, 37628, Note_on_c, 9, 39, 71
10, 37676, Note_off_c, 9, 39, 64
10, 37676, Note_off_c, 9, 42, 64
10, 37676, Note_off_c, 9, 35, 64
10, 37820, Note_on_c, 9, 35, 127
10, 37820, Note_on_c, 9, 42, 75
10, 37868, Note_off_c, 9, 42, 64
10, 37868, Note_off_c, 9, 35, 64
10, 38012, Note_on_c, 9, 38, 122
10, 38012, Note_on_c, 9, 42, 90
10, 38012, Note_on_c, 9, 39, 68
10, 38060, Note_off_c, 9, 39, 64
10, 38060, Note_off_c, 9, 42, 64
10, 38060, Note_off_c, 9, 38, 64
10, 38204, Note_on_c, 9, 42, 75
10, 38252, Note_off_c, 9, 42, 64
10, 38396, Note_on_c, 9, 35, 127
10, 38396, Note_on_c, 9, 42, 90
10, 38396, Note_on_c, 9, 39, 70
10, 38444, Note_off_c, 9, 39, 64
10, 38444, Note_off_c, 9, 42, 64
10, 38444, Note_off_c, 9, 35, 64
10, 38588, Note_on_c, 9, 42, 77
10, 38636, Note_off_c, 9, 42, 64
10, 38684, Note_on_c, 9, 35, 127
10, 38732, Note_off_c, 9, 35, 64
10, 38780, Note_on_c, 9, 38, 122
10, 38780, Note_on_c, 9, 42, 90
10, 38780, Note_on_c, 9, 39, 70
10, 38828, Note_off_c, 9, 39, 64
10, 38828, Note_off_c, 9, 42, 64
10, 38828, Note_off_c, 9, 38, 64
10, 38972, Note_on_c, 9, 35, 127
10, 38972, Note_on_c, 9, 42, 75
10, 39020, Note_off_c, 9, 42, 64
10, 39020, Note_off_c, 9, 35, 64
10, 39164, Note_on_c, 9, 38, 122
10, 39164, Note_on_c, 9, 42, 90
10, 39164, Note_on_c, 9, 39, 71
10, 39212, Note_off_c, 9, 39, 64
10, 39212, Note_off_c, 9, 42, 64
10, 39212, Note_off_c, 9, 38, 64
10, 39356, Note_on_c, 9, 35, 127
10, 39356, Note_on_c, 9, 42, 77
10, 39404, Note_off_c, 9, 42, 64
10, 39404, Note_off_c, 9, 35, 64
10, 39452, Note_on_c, 9, 35, 127
10, 39500, Note_off_c, 9, 35, 64
10, 39548, Note_on_c, 9, 38, 122
10, 39548, Note_on_c, 9, 42, 90
10, 39548, Note_on_c, 9, 39, 68
10, 39596, Note_off_c, 9, 39, 64
10, 39596, Note_off_c, 9, 42, 64
10, 39596, Note_off_c, 9, 38, 64
10, 39740, Note_on_c, 9, 35, 127
10, 39740, Note_on_c, 9, 42, 74
10, 39788, Note_off_c, 9, 42, 64
10, 39788, Note_off_c, 9, 35, 64
10, 39932, Note_on_c, 9, 35, 127
10, 39932, Note_on_c, 9, 42, 90
10, 39932, Note_on_c, 9, 39, 69
10, 39980, Note_off_c, 9, 39, 64
10, 39980, Note_off_c, 9, 42, 64
10, 39980, Note_off_c, 9, 35, 64
10, 40124, Note_on_c, 9, 42, 75
10, 40172, Note_off_c, 9, 42, 64
10, 40316, Note_on_c, 9, 42, 90
10, 40316, Note_on_c, 9, 38, 122
10, 40316, Note_on_c, 9, 39, 71
10, 40364, Note_off_c, 9, 39, 64
10, 40364, Note_off_c, 9, 38, 64
10, 40364, Note_off_c, 9, 42, 64
10, 40508, Note_on_c, 9, 42, 75
10, 40556, Note_off_c, 9, 42, 64
10, 40700, Note_on_c, 9, 42, 90
10, 40700, Note_on_c, 9, 35, 127
10, 40700, Note_on_c, 9, 39, 69
10, 40748, Note_off_c, 9, 39, 64
10, 40748, Note_off_c, 9, 35, 64
10, 40748, Note_off_c, 9, 42, 64
10, 40892, Note_on_c, 9, 42, 75
10, 40892, Note_on_c, 9, 35, 127
10, 40940, Note_off_c, 9, 35, 64
10, 40940, Note_off_c, 9, 42, 64
10, 41084, Note_on_c, 9, 42, 90
10, 41084, Note_on_c, 9, 38, 122
10, 41084, Note_on_c, 9, 39, 69
10, 41132, Note_off_c, 9, 39, 64
10, 41132, Note_off_c, 9, 38, 64
10, 41132, Note_off_c, 9, 42, 64
10, 41276, Note_on_c, 9, 42, 74
10, 41324, Note_off_c, 9, 42, 64
10, 41468, Note_on_c, 9, 42, 90
10, 41468, Note_on_c, 9, 35, 127
10, 41468, Note_on_c, 9, 39, 69
10, 41516, Note_off_c, 9, 39, 64
10, 41516, Note_off_c, 9, 35, 64
10, 41516, Note_off_c, 9, 42, 64
10, 41660, Note_on_c, 9, 42, 72
10, 41708, Note_off_c, 9, 42, 64
10, 41756, Note_on_c, 9, 35, 127
10, 41804, Note_off_c, 9, 35, 64
10, 41852, Note_on_c, 9, 42, 90
10, 41852, Note_on_c, 9, 38, 122
10, 41852, Note_on_c, 9, 39, 73
10, 41900, Note_off_c, 9, 39, 64
10, 41900, Note_off_c, 9, 38, 64
10, 41900, Note_off_c, 9, 42, 64
10, 42044, Note_on_c, 9, 42, 72
10, 42044, Note_on_c, 9, 35, 127
10, 42092, Note_off_c, 9, 35, 64
10, 42092, Note_off_c, 9, 42, 64
10, 42140, Note_on_c, 9, 35, 127
10, 42188, Note_off_c, 9, 35, 64
10, 42236, Note_on_c, 9, 38, 120
10, 42236, Note_on_c, 9, 42, 90
10, 42236, Note_on_c, 9, 39, 70
10, 42284, Note_off_c, 9, 39, 64
10, 42284, Note_off_c, 9, 42, 64
10, 42284, Note_off_c, 9, 38, 64
10, 42428, Note_on_c, 9, 35, 127
10, 42428, Note_on_c, 9, 42, 69
10, 42476, Note_off_c, 9, 42, 64
10, 42476, Note_off_c, 9, 35, 64
10, 42620, Note_on_c, 9, 38, 121
10, 42620, Note_on_c, 9, 42, 90
10, 42620, Note_on_c, 9, 39, 70
10, 42668, Note_off_c, 9, 39, 64
10, 42668, Note_off_c, 9, 42, 64
10, 42668, Note_off_c, 9, 38, 64
10, 42812, Note_on_c, 9, 35, 127
10, 42812, Note_on_c, 9, 42, 72
10, 42860, Note_off_c, 9, 42, 64
10, 42860, Note_off_c, 9, 35, 64
10, 43004, Note_on_c, 9, 49, 98
10, 43004, Note_on_c, 9, 35, 127
10, 43004, Note_on_c, 9, 39, 71
10, 43052, Note_off_c, 9, 39, 64
10, 43052, Note_off_c, 9, 35, 64
10, 43052, Note_off_c, 9, 49, 64
10, 43388, Note_on_c, 9, 38, 122
10, 43388, Note_on_c, 9, 42, 90
10, 43388, Note_on_c, 9, 39, 68
10, 43436, Note_off_c, 9, 39, 64
10, 43436, Note_off_c, 9, 42, 64
10, 43436, Note_off_c, 9, 38, 64
10, 43580, Note_on_c, 9, 42, 71
10, 43628, Note_off_c, 9, 42, 64
10, 43772, Note_on_c, 9, 35, 127
10, 43772, Note_on_c, 9, 42, 90
10, 43772, Note_on_c, 9, 39, 69
10, 43820, Note_off_c, 9, 39, 64
10, 43820, Note_off_c, 9, 42, 64
10, 43820, Note_off_c, 9, 35, 64
10, 43964, Note_on_c, 9, 35, 127
10, 43964, Note_on_c, 9, 42, 74
10, 44012, Note_off_c, 9, 42, 64
10, 44012, Note_off_c, 9, 35, 64
10, 44156, Note_on_c, 9, 38, 122
10, 44156, Note_on_c, 9, 42, 90
10, 44156, Note_on_c, 9, 39, 71
10, 44204, Note_off_c, 9, 39, 64
10, 44204, Note_off_c, 9, 42, 64
10, 44204, Note_off_c, 9, 38, 64
10, 44348, Note_on_c, 9, 42, 71
10, 44396, Note_off_c, 9, 42, 64
10, 44540, Note_on_c, 9, 35, 127
10, 44540, Note_on_c, 9, 42, 90
10, 44540, Note_on_c, 9, 39, 69
10, 44588, Note_off_c, 9, 39, 64
10, 44588, Note_off_c, 9, 42, 64
10, 44588, Note_off_c, 9, 35, 64
10, 44732, Note_on_c, 9, 42, 72
10, 44780, Note_off_c, 9, 42, 64
10, 44828, Note_on_c, 9, 35, 127
10, 44876, Note_off_c, 9, 35, 64
10, 44924, Note_on_c, 9, 38, 122
10, 44924, Note_on_c, 9, 42, 90
10, 44924, Note_on_c, 9, 39, 69
10, 44972, Note_off_c, 9, 39, 64
10, 44972, Note_off_c, 9, 42, 64
10, 44972, Note_off_c, 9, 38, 64
10, 45116, Note_on_c, 9, 35, 127
10, 45116, Note_on_c, 9, 42, 74
10, 45164, Note_off_c, 9, 42, 64
10, 45164, Note_off_c, 9, 35, 64
10, 45308, Note_on_c, 9, 38, 122
10, 45308, Note_on_c, 9, 42, 90
10, 45308, Note_on_c, 9, 39, 69
10, 45356, Note_off_c, 9, 39, 64
10, 45356, Note_off_c, 9, 42, 64
10, 45356, Note_off_c, 9, 38, 64
10, 45500, Note_on_c, 9, 35, 127
10, 45500, Note_on_c, 9, 42, 74
10, 45548, Note_off_c, 9, 42, 64
10, 45548, Note_off_c, 9, 35, 64
10, 45596, Note_on_c, 9, 35, 127
10, 45644, Note_off_c, 9, 35, 64
10, 45692, Note_on_c, 9, 38, 122
10, 45692, Note_on_c, 9, 42, 90
10, 45692, Note_on_c, 9, 39, 73
10, 45740, Note_off_c, 9, 39, 64
10, 45740, Note_off_c, 9, 42, 64
10, 45740, Note_off_c, 9, 38, 64
10, 45884, Note_on_c, 9, 35, 127
10, 45884, Note_on_c, 9, 42, 74
10, 45932, Note_off_c, 9, 42, 64
10, 45932, Note_off_c, 9, 35, 64
10, 46076, Note_on_c, 9, 35, 127
10, 46076, Note_on_c, 9, 42, 90
10, 46076, Note_on_c, 9, 39, 70
10, 46124, Note_off_c, 9, 39, 64
10, 46124, Note_off_c, 9, 42, 64
10, 46124, Note_off_c, 9, 35, 64
10, 46268, Note_on_c, 9, 42, 69
10, 46316, Note_off_c, 9, 42, 64
10, 46460, Note_on_c, 9, 42, 90
10, 46460, Note_on_c, 9, 38, 122
10, 46460, Note_on_c, 9, 39, 70
10, 46508, Note_off_c, 9, 39, 64
10, 46508, Note_off_c, 9, 38, 64
10, 46508, Note_off_c, 9, 42, 64
10, 46652, Note_on_c, 9, 42, 77
10, 46700, Note_off_c, 9, 42, 64
10, 46844, Note_on_c, 9, 42, 90
10, 46844, Note_on_c, 9, 35, 127
10, 46844, Note_on_c, 9, 39, 71
10, 46892, Note_off_c, 9, 39, 64
10, 46892, Note_off_c, 9, 35, 64
10, 46892, Note_off_c, 9, 42, 64
10, 47036, Note_on_c, 9, 42, 77
10, 47036, Note_on_c, 9, 35, 127
10, 47084, Note_off_c, 9, 35, 64
10, 47084, Note_off_c, 9, 42, 64
10, 47228, Note_on_c, 9, 42, 90
10, 47228, Note_on_c, 9, 38, 122
10, 47228, Note_on_c, 9, 39, 68
10, 47276, Note_off_c, 9, 39, 64
10, 47276, Note_off_c, 9, 38, 64
10, 47276, Note_off_c, 9, 42, 64
10, 47420, Note_on_c, 9, 42, 75
10, 47468, Note_off_c, 9, 42, 64
10, 47612, Note_on_c, 9, 35, 127
10, 47612, Note_on_c, 9, 49, 110
10, 47660, Note_off_c, 9, 49, 64
10, 47660, Note_off_c, 9, 35, 64
10, 48572, Note_on_c, 9, 38, 121
10, 48620, Note_off_c, 9, 38, 64
10, 48764, Note_on_c, 9, 43, 92
10, 48812, Note_off_c, 9, 43, 64
10, 48956, Note_on_c, 9, 41, 91
10, 49004, Note_off_c, 9, 41, 64
10, 49148, Note_on_c, 9, 35, 127
10, 49148, Note_on_c, 9, 49, 90
10, 49196, Note_off_c, 9, 49, 64
10, 49196, Note_off_c, 9, 35, 64
10, 49340, Note_on_c, 9, 51, 75
10, 49388, Note_off_c, 9, 51, 64
10, 49532, Note_on_c, 9, 37, 103
10, 49532, Note_on_c, 9, 51, 88
10, 49580, Note_off_c, 9, 51, 64
10, 49580, Note_off_c, 9, 37, 64
10, 49724, Note_on_c, 9, 51, 79
10, 49772, Note_off_c, 9, 51, 64
10, 49916, Note_on_c, 9, 35, 127
10, 49916, Note_on_c, 9, 51, 88
10, 49964, Note_off_c, 9, 51, 64
10, 49964, Note_off_c, 9, 35, 64
10, 50108, Note_on_c, 9, 35, 127
10, 50108, Note_on_c, 9, 51, 74
10, 50156, Note_off_c, 9, 51, 64
10, 50156, Note_off_c, 9, 35, 64
10, 50300, Note_on_c, 9, 37, 102
10, 50300, Note_on_c, 9, 51, 88
10, 50348, Note_off_c, 9, 51, 64
10, 50348, Note_off_c, 9, 37, 64
10, 50492, Note_on_c, 9, 51, 71
10, 50540, Note_off_c, 9, 51, 64
10, 50684, Note_on_c, 9, 35, 127
10, 50684, Note_on_c, 9, 51, 87
10, 50732, Note_off_c, 9, 51, 64
10, 50732, Note_off_c, 9, 35, 64
10, 50876, Note_on_c, 9, 35, 127
10, 50876, Note_on_c, 9, 51, 74
10, 50924, Note_off_c, 9, 51, 64
10, 50924, Note_off_c, 9, 35, 64
10, 51068, Note_on_c, 9, 37, 102
10, 51068, Note_on_c, 9, 51, 88
10, 51116, Note_off_c, 9, 51, 64
10, 51116, Note_off_c, 9, 37, 64
10, 51260, Note_on_c, 9, 35, 127
10, 51260, Note_on_c, 9, 51, 74
10, 51308, Note_off_c, 9, 51, 64
10, 51308, Note_off_c, 9, 35, 64
10, 51452, Note_on_c, 9, 51, 90
10, 51500, Note_off_c, 9, 51, 64
10, 51644, Note_on_c, 9, 35, 127
10, 51644, Note_on_c, 9, 51, 75
10, 51692, Note_off_c, 9, 51, 64
10, 51692, Note_off_c, 9, 35, 64
10, 51836, Note_on_c, 9, 37, 103
10, 51836, Note_on_c, 9, 51, 90
10, 51884, Note_off_c, 9, 51, 64
10, 51884, Note_off_c, 9, 37, 64
10, 52028, Note_on_c, 9, 51, 75
10, 52076, Note_off_c, 9, 51, 64
10, 52220, Note_on_c, 9, 35, 127
10, 52220, Note_on_c, 9, 51, 90
10, 52268, Note_off_c, 9, 51, 64
10, 52268, Note_off_c, 9, 35, 64
10, 52412, Note_on_c, 9, 35, 127
10, 52412, Note_on_c, 9, 51, 77
10, 52460, Note_off_c, 9, 51, 64
10, 52460, Note_off_c, 9, 35, 64
10, 52604, Note_on_c, 9, 38, 100
10, 52604, Note_on_c, 9, 51, 90
10, 52652, Note_off_c, 9, 51, 64
10, 52652, Note_off_c, 9, 38, 64
10, 52796, Note_on_c, 9, 51, 75
10, 52844, Note_off_c, 9, 51, 64
10, 52988, Note_on_c, 9, 35, 127
10, 52988, Note_on_c, 9, 51, 90
10, 53036, Note_off_c, 9, 51, 64
10, 53036, Note_off_c, 9, 35, 64
10, 53180, Note_on_c, 9, 35, 127
10, 53180, Note_on_c, 9, 51, 75
10, 53228, Note_off_c, 9, 51, 64
10, 53228, Note_off_c, 9, 35, 64
10, 53372, Note_on_c, 9, 38, 108
10, 53372, Note_on_c, 9, 51, 90
10, 53420, Note_off_c, 9, 51, 64
10, 53420, Note_off_c, 9, 38, 64
10, 53564, Note_on_c, 9, 51, 74
10, 53612, Note_off_c, 9, 51, 64
10, 53756, Note_on_c, 9, 35, 127
10, 53756, Note_on_c, 9, 51, 90
10, 53804, Note_off_c, 9, 51, 64
10, 53804, Note_off_c, 9, 35, 64
10, 53948, Note_on_c, 9, 35, 127
10, 53948, Note_on_c, 9, 51, 72
10, 53996, Note_off_c, 9, 51, 64
10, 53996, Note_off_c, 9, 35, 64
10, 54140, Note_on_c, 9, 38, 114
10, 54140, Note_on_c, 9, 51, 90
10, 54188, Note_off_c, 9, 51, 64
10, 54188, Note_off_c, 9, 38, 64
10, 54332, Note_on_c, 9, 51, 75
10, 54380, Note_off_c, 9, 51, 64
10, 54524, Note_on_c, 9, 35, 127
10, 54524, Note_on_c, 9, 51, 90
10, 54572, Note_off_c, 9, 51, 64
10, 54572, Note_off_c, 9, 35, 64
10, 54716, Note_on_c, 9, 35, 127
10, 54716, Note_on_c, 9, 51, 75
10, 54764, Note_off_c, 9, 51, 64
10, 54764, Note_off_c, 9, 35, 64
10, 54908, Note_on_c, 9, 38, 120
10, 54908, Note_on_c, 9, 51, 90
10, 54956, Note_off_c, 9, 51, 64
10, 54956, Note_off_c, 9, 38, 64
10, 55100, Note_on_c, 9, 51, 79
10, 55148, Note_off_c, 9, 51, 64
10, 55292, Note_on_c, 9, 35, 127
10, 55292, Note_on_c, 9, 49, 90
10, 55340, Note_off_c, 9, 49, 64
10, 55340, Note_off_c, 9, 35, 64
10, 55484, Note_on_c, 9, 35, 127
10, 55484, Note_on_c, 9, 51, 77
10, 55532, Note_off_c, 9, 51, 64
10, 55532, Note_off_c, 9, 35, 64
10, 55676, Note_on_c, 9, 38, 120
10, 55676, Note_on_c, 9, 51, 90
10, 55724, Note_off_c, 9, 51, 64
10, 55724, Note_off_c, 9, 38, 64
10, 55868, Note_on_c, 9, 51, 75
10, 55916, Note_off_c, 9, 51, 64
10, 56060, Note_on_c, 9, 35, 127
10, 56060, Note_on_c, 9, 38, 126
10, 56060, Note_on_c, 9, 51, 90
10, 56108, Note_off_c, 9, 51, 64
10, 56108, Note_off_c, 9, 38, 64
10, 56108, Note_off_c, 9, 35, 64
10, 56252, Note_on_c, 9, 35, 127
10, 56252, Note_on_c, 9, 51, 74
10, 56300, Note_off_c, 9, 51, 64
10, 56300, Note_off_c, 9, 35, 64
10, 56444, Note_on_c, 9, 38, 126
10, 56444, Note_on_c, 9, 51, 90
10, 56492, Note_off_c, 9, 51, 64
10, 56492, Note_off_c, 9, 38, 64
10, 56636, Note_on_c, 9, 51, 74
10, 56684, Note_off_c, 9, 51, 64
10, 56828, Note_on_c, 9, 35, 127
10, 56828, Note_on_c, 9, 38, 125
10, 56828, Note_on_c, 9, 51, 90
10, 56876, Note_off_c, 9, 51, 64
10, 56876, Note_off_c, 9, 38, 64
10, 56876, Note_off_c, 9, 35, 64
10, 57020, Note_on_c, 9, 35, 127
10, 57020, Note_on_c, 9, 51, 74
10, 57068, Note_off_c, 9, 51, 64
10, 57068, Note_off_c, 9, 35, 64
10, 57212, Note_on_c, 9, 38, 125
10, 57212, Note_on_c, 9, 51, 90
10, 57260, Note_off_c, 9, 51, 64
10, 57260, Note_off_c, 9, 38, 64
10, 57308, Note_on_c, 9, 38, 126
10, 57356, Note_off_c, 9, 38, 64
10, 57404, Note_on_c, 9, 35, 127
10, 57404, Note_on_c, 9, 51, 72
10, 57452, Note_off_c, 9, 51, 64
10, 57452, Note_off_c, 9, 35, 64
10, 57596, Note_on_c, 9, 38, 125
10, 57596, Note_on_c, 9, 51, 90
10, 57644, Note_off_c, 9, 51, 64
10, 57644, Note_off_c, 9, 38, 64
10, 57788, Note_on_c, 9, 38, 125
10, 57836, Note_off_c, 9, 38, 64
10, 57980, Note_on_c, 9, 38, 125
10, 58028, Note_off_c, 9, 38, 64
10, 58076, Note_on_c, 9, 38, 124
10, 58124, Note_off_c, 9, 38, 64
10, 58172, Note_on_c, 9, 43, 102
10, 58220, Note_off_c, 9, 43, 64
10, 58268, Note_on_c, 9, 43, 103
10, 58316, Note_off_c, 9, 43, 64
10, 58364, Note_on_c, 9, 49, 90
10, 58364, Note_on_c, 9, 35, 127
10, 58412, Note_off_c, 9, 35, 64
10, 58412, Note_off_c, 9, 49, 64
10, 58556, Note_on_c, 9, 51, 75
10, 58604, Note_off_c, 9, 51, 64
10, 58748, Note_on_c, 9, 38, 115
10, 58748, Note_on_c, 9, 51, 96
10, 58796, Note_off_c, 9, 51, 64
10, 58796, Note_off_c, 9, 38, 64
10, 58940, Note_on_c, 9, 51, 79
10, 58988, Note_off_c, 9, 51, 64
10, 59132, Note_on_c, 9, 35, 127
10, 59132, Note_on_c, 9, 51, 96
10, 59180, Note_off_c, 9, 51, 64
10, 59180, Note_off_c, 9, 35, 64
10, 59324, Note_on_c, 9, 35, 127
10, 59324, Note_on_c, 9, 51, 77
10, 59372, Note_off_c, 9, 51, 64
10, 59372, Note_off_c, 9, 35, 64
10, 59516, Note_on_c, 9, 38, 114
10, 59516, Note_on_c, 9, 51, 96
10, 59564, Note_off_c, 9, 51, 64
10, 59564, Note_off_c, 9, 38, 64
10, 59708, Note_on_c, 9, 51, 77
10, 59756, Note_off_c, 9, 51, 64
10, 59900, Note_on_c, 9, 35, 127
10, 59900, Note_on_c, 9, 51, 95
10, 59948, Note_off_c, 9, 51, 64
10, 59948, Note_off_c, 9, 35, 64
10, 60092, Note_on_c, 9, 35, 127
10, 60092, Note_on_c, 9, 51, 72
10, 60140, Note_off_c, 9, 51, 64
10, 60140, Note_off_c, 9, 35, 64
10, 60284, Note_on_c, 9, 38, 113
10, 60284, Note_on_c, 9, 51, 90
10, 60332, Note_off_c, 9, 51, 64
10, 60332, Note_off_c, 9, 38, 64
10, 60476, Note_on_c, 9, 51, 77
10, 60524, Note_off_c, 9, 51, 64
10, 60668, Note_on_c, 9, 35, 127
10, 60668, Note_on_c, 9, 51, 90
10, 60716, Note_off_c, 9, 51, 64
10, 60716, Note_off_c, 9, 35, 64
10, 60860, Note_on_c, 9, 35, 127
10, 60860, Note_on_c, 9, 51, 80
10, 60908, Note_off_c, 9, 51, 64
10, 60908, Note_off_c, 9, 35, 64
10, 61052, Note_on_c, 9, 38, 110
10, 61052, Note_on_c, 9, 51, 90
10, 61100, Note_off_c, 9, 51, 64
10, 61100, Note_off_c, 9, 38, 64
10, 61244, Note_on_c, 9, 51, 77
10, 61292, Note_off_c, 9, 51, 64
10, 61436, Note_on_c, 9, 35, 127
10, 61436, Note_on_c, 9, 51, 90
10, 61484, Note_off_c, 9, 51, 64
10, 61484, Note_off_c, 9, 35, 64
10, 61628, Note_on_c, 9, 51, 75
10, 61676, Note_off_c, 9, 51, 64
10, 61820, Note_on_c, 9, 38, 114
10, 61820, Note_on_c, 9, 51, 90
10, 61868, Note_off_c, 9, 51, 64
10, 61868, Note_off_c, 9, 38, 64
10, 62012, Note_on_c, 9, 51, 74
10, 62060, Note_off_c, 9, 51, 64
10, 62204, Note_on_c, 9, 35, 127
10, 62204, Note_on_c, 9, 51, 90
10, 62252, Note_off_c, 9, 51, 64
10, 62252, Note_off_c, 9, 35, 64
10, 62396, Note_on_c, 9, 35, 127
10, 62396, Note_on_c, 9, 51, 74
10, 62444, Note_off_c, 9, 51, 64
10, 62444, Note_off_c, 9, 35, 64
10, 62588, Note_on_c, 9, 38, 113
10, 62588, Note_on_c, 9, 51, 90
10, 62636, Note_off_c, 9, 51, 64
10, 62636, Note_off_c, 9, 38, 64
10, 62780, Note_on_c, 9, 51, 77
10, 62828, Note_off_c, 9, 51, 64
10, 62972, Note_on_c, 9, 35, 127
10, 62972, Note_on_c, 9, 51, 90
10, 63020, Note_off_c, 9, 51, 64
10, 63020, Note_off_c, 9, 35, 64
10, 63164, Note_on_c, 9, 35, 127
10, 63164, Note_on_c, 9, 51, 74
10, 63212, Note_off_c, 9, 51, 64
10, 63212, Note_off_c, 9, 35, 64
10, 63356, Note_on_c, 9, 38, 110
10, 63356, Note_on_c, 9, 51, 90
10, 63404, Note_off_c, 9, 51, 64
10, 63404, Note_off_c, 9, 38, 64
10, 63548, Note_on_c, 9, 35, 127
10, 63548, Note_on_c, 9, 51, 80
10, 63596, Note_off_c, 9, 51, 64
10, 63596, Note_off_c, 9, 35, 64
10, 63740, Note_on_c, 9, 51, 90
10, 63788, Note_off_c, 9, 51, 64
10, 63932, Note_on_c, 9, 35, 127
10, 63932, Note_on_c, 9, 51, 80
10, 63980, Note_off_c, 9, 51, 64
10, 63980, Note_off_c, 9, 35, 64
10, 64124, Note_on_c, 9, 38, 110
10, 64172, Note_off_c, 9, 38, 64
10, 64220, Note_on_c, 9, 38, 110
10, 64268, Note_off_c, 9, 38, 64
10, 64316, Note_on_c, 9, 38, 110
10, 64364, Note_off_c, 9, 38, 64
10, 64412, Note_on_c, 9, 38, 115
10, 64460, Note_off_c, 9, 38, 64
10, 64508, Note_on_c, 9, 49, 90
10, 64508, Note_on_c, 9, 35, 127
10, 64556, Note_off_c, 9, 35, 64
10, 64556, Note_off_c, 9, 49, 64
10, 64700, Note_on_c, 9, 51, 77
10, 64748, Note_off_c, 9, 51, 64
10, 64892, Note_on_c, 9, 38, 115
10, 64892, Note_on_c, 9, 51, 90
10, 64940, Note_off_c, 9, 51, 64
10, 64940, Note_off_c, 9, 38, 64
10, 65084, Note_on_c, 9, 51, 74
10, 65132, Note_off_c, 9, 51, 64
10, 65276, Note_on_c, 9, 35, 127
10, 65276, Note_on_c, 9, 51, 90
10, 65324, Note_off_c, 9, 51, 64
10, 65324, Note_off_c, 9, 35, 64
10, 65468, Note_on_c, 9, 35, 127
10, 65468, Note_on_c, 9, 51, 72
10, 65516, Note_off_c, 9, 51, 64
10, 65516, Note_off_c, 9, 35, 64
10, 65660, Note_on_c, 9, 38, 114
10, 65660, Note_on_c, 9, 51, 90
10, 65708, Note_off_c, 9, 51, 64
10, 65708, Note_off_c, 9, 38, 64
10, 65852, Note_on_c, 9, 51, 69
10, 65900, Note_off_c, 9, 51, 64
10, 66044, Note_on_c, 9, 35, 127
10, 66044, Note_on_c, 9, 51, 90
10, 66092, Note_off_c, 9, 51, 64
10, 66092, Note_off_c, 9, 35, 64
10, 66236, Note_on_c, 9, 35, 127
10, 66236, Note_on_c, 9, 51, 74
10, 66284, Note_off_c, 9, 51, 64
10, 66284, Note_off_c, 9, 35, 64
10, 66428, Note_on_c, 9, 38, 113
10, 66428, Note_on_c, 9, 51, 90
10, 66476, Note_off_c, 9, 51, 64
10, 66476, Note_off_c, 9, 38, 64
10, 66620, Note_on_c, 9, 51, 72
10, 66620, Note_on_c, 9, 35, 127
10, 66668, Note_off_c, 9, 35, 64
10, 66668, Note_off_c, 9, 51, 64
10, 66812, Note_on_c, 9, 51, 90
10, 66860, Note_off_c, 9, 51, 64
10, 67004, Note_on_c, 9, 35, 127
10, 67004, Note_on_c, 9, 51, 72
10, 67052, Note_off_c, 9, 51, 64
10, 67052, Note_off_c, 9, 35, 64
10, 67196, Note_on_c, 9, 38, 110
10, 67196, Note_on_c, 9, 51, 90
10, 67244, Note_off_c, 9, 51, 64
10, 67244, Note_off_c, 9, 38, 64
10, 67388, Note_on_c, 9, 51, 71
10, 67388, Note_on_c, 9, 35, 127
10, 67436, Note_off_c, 9, 35, 64
10, 67436, Note_off_c, 9, 51, 64
10, 67580, Note_on_c, 9, 35, 127
10, 67580, Note_on_c, 9, 51, 90
10, 67628, Note_off_c, 9, 51, 64
10, 67628, Note_off_c, 9, 35, 64
10, 67772, Note_on_c, 9, 51, 74
10, 67820, Note_off_c, 9, 51, 64
10, 67964, Note_on_c, 9, 38, 114
10, 67964, Note_on_c, 9, 51, 90
10, 68012, Note_off_c, 9, 51, 64
10, 68012, Note_off_c, 9, 38, 64
10, 68156, Note_on_c, 9, 51, 72
10, 68204, Note_off_c, 9, 51, 64
10, 68348, Note_on_c, 9, 35, 127
10, 68348, Note_on_c, 9, 51, 90
10, 68396, Note_off_c, 9, 51, 64
10, 68396, Note_off_c, 9, 35, 64
10, 68540, Note_on_c, 9, 35, 127
10, 68540, Note_on_c, 9, 51, 75
10, 68588, Note_off_c, 9, 51, 64
10, 68588, Note_off_c, 9, 35, 64
10, 68732, Note_on_c, 9, 38, 113
10, 68732, Note_on_c, 9, 51, 90
10, 68780, Note_off_c, 9, 51, 64
10, 68780, Note_off_c, 9, 38, 64
10, 68924, Note_on_c, 9, 51, 72
10, 68924, Note_on_c, 9, 35, 127
10, 68972, Note_off_c, 9, 35, 64
10, 68972, Note_off_c, 9, 51, 64
10, 69116, Note_on_c, 9, 35, 127
10, 69116, Note_on_c, 9, 51, 90
10, 69164, Note_off_c, 9, 51, 64
10, 69164, Note_off_c, 9, 35, 64
10, 69308, Note_on_c, 9, 51, 72
10, 69356, Note_off_c, 9, 51, 64
10, 69500, Note_on_c, 9, 38, 110
10, 69500, Note_on_c, 9, 51, 90
10, 69548, Note_off_c, 9, 51, 64
10, 69548, Note_off_c, 9, 38, 64
10, 69692, Note_on_c, 9, 51, 75
10, 69740, Note_off_c, 9, 51, 64
10, 69884, Note_on_c, 9, 35, 127
10, 69884, Note_on_c, 9, 51, 90
10, 69932, Note_off_c, 9, 51, 64
10, 69932, Note_off_c, 9, 35, 64
10, 70076, Note_on_c, 9, 51, 77
10, 70076, Note_on_c, 9, 35, 127
10, 70124, Note_off_c, 9, 35, 64
10, 70124, Note_off_c, 9, 51, 64
10, 70268, Note_on_c, 9, 38, 114
10, 70268, Note_on_c, 9, 51, 90
10, 70316, Note_off_c, 9, 51, 64
10, 70316, Note_off_c, 9, 38, 64
10, 70460, Note_on_c, 9, 51, 77
10, 70460, Note_on_c, 9, 35, 127
10, 70508, Note_off_c, 9, 35, 64
10, 70508, Note_off_c, 9, 51, 64
10, 70652, Note_on_c, 9, 35, 127
10, 70652, Note_on_c, 9, 51, 90
10, 70700, Note_off_c, 9, 51, 64
10, 70700, Note_off_c, 9, 35, 64
10, 70844, Note_on_c, 9, 51, 72
10, 70892, Note_off_c, 9, 51, 64
10, 71036, Note_on_c, 9, 38, 113
10, 71036, Note_on_c, 9, 51, 90
10, 71084, Note_off_c, 9, 51, 64
10, 71084, Note_off_c, 9, 38, 64
10, 71228, Note_on_c, 9, 51, 72
10, 71228, Note_on_c, 9, 35, 127
10, 71276, Note_off_c, 9, 35, 64
10, 71276, Note_off_c, 9, 51, 64
10, 71420, Note_on_c, 9, 51, 90
10, 71468, Note_off_c, 9, 51, 64
10, 71612, Note_on_c, 9, 51, 72
10, 71612, Note_on_c, 9, 35, 127
10, 71660, Note_off_c, 9, 35, 64
10, 71660, Note_off_c, 9, 51, 64
10, 71804, Note_on_c, 9, 51, 90
10, 71804, Note_on_c, 9, 38, 100
10, 71852, Note_off_c, 9, 38, 64
10, 71852, Note_off_c, 9, 51, 64
10, 71996, Note_on_c, 9, 51, 74
10, 71996, Note_on_c, 9, 35, 127
10, 72044, Note_off_c, 9, 35, 64
10, 72044, Note_off_c, 9, 51, 64
10, 72188, Note_on_c, 9, 35, 127
10, 72188, Note_on_c, 9, 49, 90
10, 72236, Note_off_c, 9, 49, 64
10, 72236, Note_off_c, 9, 35, 64
10, 72380, Note_on_c, 9, 51, 74
10, 72380, Note_on_c, 9, 35, 127
10, 72428, Note_off_c, 9, 35, 64
10, 72428, Note_off_c, 9, 51, 64
10, 72572, Note_on_c, 9, 51, 90
10, 72572, Note_on_c, 9, 38, 100
10, 72620, Note_off_c, 9, 38, 64
10, 72620, Note_off_c, 9, 51, 64
10, 72764, Note_on_c, 9, 51, 72
10, 72764, Note_on_c, 9, 35, 127
10, 72812, Note_off_c, 9, 35, 64
10, 72812, Note_off_c, 9, 51, 64
10, 72956, Note_on_c, 9, 51, 90
10, 73004, Note_off_c, 9, 51, 64
10, 73148, Note_on_c, 9, 51, 71
10, 73148, Note_on_c, 9, 35, 127
10, 73196, Note_off_c, 9, 35, 64
10, 73196, Note_off_c, 9, 51, 64
10, 73340, Note_on_c, 9, 51, 90
10, 73340, Note_on_c, 9, 38, 100
10, 73388, Note_off_c, 9, 38, 64
10, 73388, Note_off_c, 9, 51, 64
10, 73532, Note_on_c, 9, 51, 74
10, 73580, Note_off_c, 9, 51, 64
10, 73724, Note_on_c, 9, 35, 127
10, 73724, Note_on_c, 9, 49, 90
10, 73772, Note_off_c, 9, 49, 64
10, 73772, Note_off_c, 9, 35, 64
10, 90620, Note_on_c, 9, 38, 72
10, 90620, Note_on_c, 9, 41, 79
10, 90620, Note_on_c, 9, 35, 74
10, 90668, Note_off_c, 9, 35, 64
10, 90668, Note_off_c, 9, 41, 64
10, 90668, Note_off_c, 9, 38, 64
10, 90812, Note_on_c, 9, 38, 72
10, 90812, Note_on_c, 9, 41, 79
10, 90812, Note_on_c, 9, 35, 85
10, 90860, Note_off_c, 9, 35, 64
10, 90860, Note_off_c, 9, 41, 64
10, 90860, Note_off_c, 9, 38, 64
10, 91004, Note_on_c, 9, 38, 75
10, 91004, Note_on_c, 9, 41, 85
10, 91004, Note_on_c, 9, 35, 85
10, 91052, Note_off_c, 9, 35, 64
10, 91052, Note_off_c, 9, 41, 64
10, 91052, Note_off_c, 9, 38, 64
10, 91196, Note_on_c, 9, 38, 75
10, 91196, Note_on_c, 9, 41, 85
10, 91196, Note_on_c, 9, 35, 96
10, 91244, Note_off_c, 9, 35, 64
10, 91244, Note_off_c, 9, 41, 64
10, 91244, Note_off_c, 9, 38, 64
10, 91388, Note_on_c, 9, 38, 75
10, 91388, Note_on_c, 9, 41, 85
10, 91388, Note_on_c, 9, 35, 99
10, 91436, Note_off_c, 9, 35, 64
10, 91436, Note_off_c, 9, 41, 64
10, 91436, Note_off_c, 9, 38, 64
10, 91580, Note_on_c, 9, 38, 75
10, 91580, Note_on_c, 9, 41, 88
10, 91580, Note_on_c, 9, 35, 105
10, 91628, Note_off_c, 9, 35, 64
10, 91628, Note_off_c, 9, 41, 64
10, 91628, Note_off_c, 9, 38, 64
10, 91772, Note_on_c, 9, 38, 78
10, 91772, Note_on_c, 9, 41, 91
10, 91772, Note_on_c, 9, 35, 105
10, 91820, Note_off_c, 9, 35, 64
10, 91820, Note_off_c, 9, 41, 64
10, 91820, Note_off_c, 9, 38, 64
10, 91964, Note_on_c, 9, 38, 81
10, 91964, Note_on_c, 9, 41, 93
10, 91964, Note_on_c, 9, 35, 113
10, 92012, Note_off_c, 9, 35, 64
10, 92012, Note_off_c, 9, 41, 64
10, 92012, Note_off_c, 9, 38, 64
10, 92156, Note_on_c, 9, 38, 84
10, 92156, Note_on_c, 9, 41, 96
10, 92156, Note_on_c, 9, 35, 113
10, 92204, Note_off_c, 9, 35, 64
10, 92204, Note_off_c, 9, 41, 64
10, 92204, Note_off_c, 9, 38, 64
10, 92348, Note_on_c, 9, 38, 89
10, 92348, Note_on_c, 9, 41, 96
10, 92348, Note_on_c, 9, 35, 127
10, 92396, Note_off_c, 9, 35, 64
10, 92396, Note_off_c, 9, 41, 64
10, 92396, Note_off_c, 9, 38, 64
10, 92540, Note_on_c, 9, 38, 103
10, 92540, Note_on_c, 9, 41, 96
10, 92540, Note_on_c, 9, 35, 127
10, 92588, Note_off_c, 9, 35, 64
10, 92588, Note_off_c, 9, 41, 64
10, 92588, Note_off_c, 9, 38, 64
10, 92732, Note_on_c, 9, 38, 109
10, 92732, Note_on_c, 9, 41, 93
10, 92732, Note_on_c, 9, 35, 127
10, 92780, Note_off_c, 9, 35, 64
10, 92780, Note_off_c, 9, 41, 64
10, 92780, Note_off_c, 9, 38, 64
10, 92924, Note_on_c, 9, 38, 121
10, 92924, Note_on_c, 9, 41, 93
10, 92924, Note_on_c, 9, 35, 127
10, 92972, Note_off_c, 9, 35, 64
10, 92972, Note_off_c, 9, 41, 64
10, 92972, Note_off_c, 9, 38, 64
10, 93116, Note_on_c, 9, 38, 121
10, 93116, Note_on_c, 9, 41, 96
10, 93116, Note_on_c, 9, 35, 127
10, 93164, Note_off_c, 9, 35, 64
10, 93164, Note_off_c, 9, 41, 64
10, 93164, Note_off_c, 9, 38, 64
10, 93308, Note_on_c, 9, 41, 127
10, 93356, Note_off_c, 9, 41, 64
10, 93404, Note_on_c, 9, 41, 127
10, 93452, Note_off_c, 9, 41, 64
10, 93500, Note_on_c, 9, 41, 127
10, 93548, Note_off_c, 9, 41, 64
10, 93596, Note_on_c, 9, 41, 127
10, 93644, Note_off_c, 9, 41, 64
10, 93692, Note_on_c, 9, 44, 127
10, 93692, Note_on_c, 9, 35, 127
10, 93692, Note_on_c, 9, 49, 127
10, 93740, Note_off_c, 9, 49, 64
10, 93865, Note_off_c, 9, 44, 37
10, 93884, Note_on_c, 9, 51, 84
10, 93945, Note_off_c, 9, 51, 50
10, 94016, Note_off_c, 9, 35, 74
10, 94076, Note_on_c, 9, 44, 70
10, 94076, Note_on_c, 9, 38, 115
10, 94076, Note_on_c, 9, 51, 99
10, 94139, Note_off_c, 9, 51, 65
10, 94237, Note_off_c, 9, 38, 54
10, 94238, Note_off_c, 9, 44, 34
10, 94268, Note_on_c, 9, 51, 85
10, 94268, Note_on_c, 9, 35, 127
10, 94341, Note_off_c, 9, 51, 66
10, 94460, Note_on_c, 9, 51, 99
10, 94460, Note_on_c, 9, 44, 70
10, 94502, Note_off_c, 9, 35, 82
10, 94540, Note_off_c, 9, 51, 57
10, 94631, Note_off_c, 9, 44, 45
10, 94652, Note_on_c, 9, 35, 127
10, 94652, Note_on_c, 9, 51, 84
10, 94729, Note_off_c, 9, 51, 64
10, 94823, Note_off_c, 9, 35, 50
10, 94844, Note_on_c, 9, 38, 115
10, 94844, Note_on_c, 9, 44, 70
10, 94844, Note_on_c, 9, 51, 99
10, 94919, Note_off_c, 9, 51, 66
10, 95036, Note_on_c, 9, 51, 82
10, 95038, Note_off_c, 9, 44, 40
10, 95101, Note_off_c, 9, 51, 68
10, 95127, Note_off_c, 9, 38, 52
10, 95228, Note_on_c, 9, 44, 70
10, 95228, Note_on_c, 9, 51, 98
10, 95228, Note_on_c, 9, 35, 127
10, 95295, Note_off_c, 9, 51, 63
10, 95394, Note_off_c, 9, 44, 42
10, 95420, Note_on_c, 9, 51, 80
10, 95478, Note_off_c, 9, 51, 63
10, 95546, Note_off_c, 9, 35, 57
10, 95612, Note_on_c, 9, 38, 115
10, 95612, Note_on_c, 9, 44, 70
10, 95612, Note_on_c, 9, 51, 99
10, 95682, Note_off_c, 9, 51, 64
10, 95771, Note_off_c, 9, 38, 66
10, 95799, Note_off_c, 9, 44, 32
10, 95804, Note_on_c, 9, 35, 127
10, 95804, Note_on_c, 9, 51, 82
10, 95868, Note_off_c, 9, 51, 66
10, 95996, Note_on_c, 9, 44, 70
10, 95996, Note_on_c, 9, 51, 98
10, 96039, Note_off_c, 9, 35, 77
10, 96068, Note_off_c, 9, 51, 67
10, 96181, Note_off_c, 9, 44, 34
10, 96188, Note_on_c, 9, 35, 127
10, 96188, Note_on_c, 9, 51, 79
10, 96258, Note_off_c, 9, 51, 66
10, 96380, Note_on_c, 9, 38, 115
10, 96380, Note_on_c, 9, 44, 70
10, 96380, Note_on_c, 9, 51, 98
10, 96395, Note_off_c, 9, 35, 68
10, 96450, Note_off_c, 9, 51, 68
10, 96559, Note_off_c, 9, 44, 36
10, 96572, Note_on_c, 9, 51, 79
10, 96620, Note_off_c, 9, 38, 60
10, 96636, Note_off_c, 9, 51, 64
10, 96764, Note_on_c, 9, 44, 70
10, 96764, Note_on_c, 9, 35, 127
10, 96764, Note_on_c, 9, 51, 98
10, 96827, Note_off_c, 9, 51, 67
10, 96948, Note_off_c, 9, 44, 40
10, 96956, Note_on_c, 9, 51, 80
10, 97018, Note_off_c, 9, 51, 67
10, 97102, Note_off_c, 9, 35, 66
10, 97148, Note_on_c, 9, 51, 100
10, 97148, Note_on_c, 9, 44, 70
10, 97148, Note_on_c, 9, 38, 115
10, 97213, Note_off_c, 9, 51, 71
10, 97317, Note_off_c, 9, 38, 60
10, 97340, Note_on_c, 9, 51, 77
10, 97340, Note_on_c, 9, 35, 127
10, 97349, Note_off_c, 9, 44, 40
10, 97406, Note_off_c, 9, 51, 74
10, 97532, Note_on_c, 9, 44, 70
10, 97532, Note_on_c, 9, 51, 100
10, 97586, Note_off_c, 9, 51, 70
10, 97608, Note_off_c, 9, 35, 70
10, 97724, Note_on_c, 9, 51, 77
10, 97724, Note_on_c, 9, 35, 127
10, 97768, Note_off_c, 9, 44, 53
10, 97781, Note_off_c, 9, 35, 85
10, 97788, Note_off_c, 9, 51, 64
10, 97916, Note_on_c, 9, 44, 70
10, 97916, Note_on_c, 9, 35, 127
10, 97916, Note_on_c, 9, 49, 90
10, 97920, Note_on_c, 9, 57, 90
10, 97964, Note_off_c, 9, 49, 64
10, 97968, Note_off_c, 9, 57, 64
10, 97989, Note_off_c, 9, 35, 96
10, 98099, Note_off_c, 9, 44, 48
10, 98108, Note_on_c, 9, 35, 127
10, 98108, Note_on_c, 9, 49, 90
10, 98112, Note_on_c, 9, 57, 90
10, 98156, Note_off_c, 9, 49, 64
10, 98160, Note_off_c, 9, 57, 64
10, 98186, Note_off_c, 9, 35, 76
10, 98300, Note_on_c, 9, 35, 127
10, 98300, Note_on_c, 9, 44, 70
10, 98304, Note_on_c, 9, 49, 90
10, 98304, Note_on_c, 9, 57, 90
10, 98352, Note_off_c, 9, 57, 64
10, 98352, Note_off_c, 9, 49, 64
10, 98485, Note_off_c, 9, 44, 46
10, 98572, Note_off_c, 9, 35, 66
10, 98684, Note_on_c, 9, 38, 115
10, 98684, Note_on_c, 9, 51, 100
10, 98684, Note_on_c, 9, 44, 70
10, 98750, Note_off_c, 9, 51, 62
10, 98807, Note_off_c, 9, 38, 71
10, 98858, Note_off_c, 9, 44, 39
10, 98876, Note_on_c, 9, 35, 127
10, 98876, Note_on_c, 9, 51, 84
10, 98941, Note_off_c, 9, 51, 62
10, 99068, Note_on_c, 9, 44, 70
10, 99068, Note_on_c, 9, 51, 100
10, 99077, Note_off_c, 9, 35, 74
10, 99136, Note_off_c, 9, 51, 65
10, 99250, Note_off_c, 9, 44, 43
10, 99260, Note_on_c, 9, 35, 127
10, 99260, Note_on_c, 9, 51, 84
10, 99326, Note_off_c, 9, 51, 61
10, 99430, Note_off_c, 9, 35, 62
10, 99452, Note_on_c, 9, 38, 115
10, 99452, Note_on_c, 9, 44, 70
10, 99452, Note_on_c, 9, 51, 100
10, 99524, Note_off_c, 9, 51, 67
10, 99644, Note_on_c, 9, 51, 82
10, 99666, Note_off_c, 9, 44, 40
10, 99707, Note_off_c, 9, 51, 67
10, 99707, Note_off_c, 9, 38, 64
10, 99836, Note_on_c, 9, 35, 127
10, 99836, Note_on_c, 9, 51, 100
10, 99836, Note_on_c, 9, 44, 70
10, 99902, Note_off_c, 9, 51, 62
10, 100028, Note_on_c, 9, 51, 87
10, 100035, Note_off_c, 9, 35, 86
10, 100040, Note_off_c, 9, 44, 41
10, 100081, Note_off_c, 9, 51, 62
10, 100124, Note_on_c, 9, 35, 127
10, 100172, Note_off_c, 9, 35, 64
10, 100220, Note_on_c, 9, 38, 115
10, 100220, Note_on_c, 9, 44, 70
10, 100220, Note_on_c, 9, 51, 100
10, 100287, Note_off_c, 9, 51, 67
10, 100386, Note_off_c, 9, 38, 68
10, 100412, Note_on_c, 9, 35, 127
10, 100412, Note_on_c, 9, 51, 87
10, 100422, Note_off_c, 9, 44, 43
10, 100468, Note_off_c, 9, 51, 62
10, 100604, Note_on_c, 9, 51, 100
10, 100604, Note_on_c, 9, 44, 70
10, 100653, Note_off_c, 9, 35, 78
10, 100665, Note_off_c, 9, 51, 64
10, 100796, Note_on_c, 9, 35, 127
10, 100796, Note_on_c, 9, 51, 84
10, 100799, Note_off_c, 9, 44, 55
10, 100862, Note_off_c, 9, 51, 64
10, 100951, Note_off_c, 9, 35, 68
10, 100988, Note_on_c, 9, 38, 115
10, 100988, Note_on_c, 9, 44, 70
10, 100988, Note_on_c, 9, 51, 100
10, 101059, Note_off_c, 9, 51, 62
10, 101180, Note_on_c, 9, 51, 84
10, 101200, Note_off_c, 9, 44, 48
10, 101246, Note_off_c, 9, 51, 64
10, 101276, Note_off_c, 9, 38, 65
10, 101372, Note_on_c, 9, 35, 127
10, 101372, Note_on_c, 9, 44, 70
10, 101372, Note_on_c, 9, 51, 100
10, 101438, Note_off_c, 9, 51, 64
10, 101564, Note_on_c, 9, 51, 84
10, 101606, Note_off_c, 9, 44, 43
10, 101630, Note_off_c, 9, 51, 67
10, 101689, Note_off_c, 9, 35, 52
10, 101756, Note_on_c, 9, 38, 115
10, 101756, Note_on_c, 9, 51, 100
10, 101756, Note_on_c, 9, 44, 70
10, 101820, Note_off_c, 9, 51, 68
10, 101894, Note_off_c, 9, 38, 66
10, 101942, Note_off_c, 9, 44, 49
10, 101948, Note_on_c, 9, 35, 127
10, 101948, Note_on_c, 9, 51, 84
10, 102014, Note_off_c, 9, 51, 62
10, 102140, Note_on_c, 9, 51, 100
10, 102140, Note_on_c, 9, 44, 70
10, 102193, Note_off_c, 9, 35, 63
10, 102210, Note_off_c, 9, 51, 67
10, 102329, Note_off_c, 9, 44, 50
10, 102332, Note_on_c, 9, 51, 80
10, 102332, Note_on_c, 9, 35, 127
10, 102398, Note_off_c, 9, 51, 67
10, 102500, Note_off_c, 9, 35, 62
10, 102524, Note_on_c, 9, 51, 100
10, 102524, Note_on_c, 9, 44, 70
10, 102524, Note_on_c, 9, 38, 115
10, 102586, Note_off_c, 9, 51, 68
10, 102706, Note_off_c, 9, 44, 53
10, 102716, Note_on_c, 9, 51, 84
10, 102777, Note_off_c, 9, 51, 67
10, 102806, Note_off_c, 9, 38, 48
10, 102908, Note_on_c, 9, 51, 100
10, 102908, Note_on_c, 9, 35, 127
10, 102908, Note_on_c, 9, 44, 70
10, 102973, Note_off_c, 9, 51, 67
10, 103100, Note_on_c, 9, 51, 80
10, 103104, Note_off_c, 9, 44, 42
10, 103155, Note_off_c, 9, 51, 68
10, 103252, Note_off_c, 9, 35, 70
10, 103292, Note_on_c, 9, 38, 115
10, 103292, Note_on_c, 9, 44, 70
10, 103292, Note_on_c, 9, 51, 100
10, 103353, Note_off_c, 9, 51, 70
10, 103477, Note_off_c, 9, 38, 62
10, 103484, Note_on_c, 9, 35, 127
10, 103484, Note_on_c, 9, 51, 79
10, 103490, Note_off_c, 9, 44, 55
10, 103550, Note_off_c, 9, 51, 67
10, 103676, Note_on_c, 9, 51, 100
10, 103676, Note_on_c, 9, 44, 70
10, 103735, Note_off_c, 9, 35, 81
10, 103743, Note_off_c, 9, 51, 66
10, 103868, Note_on_c, 9, 35, 127
10, 103868, Note_on_c, 9, 51, 77
10, 103870, Note_off_c, 9, 44, 55
10, 103916, Note_off_c, 9, 51, 66
10, 103974, Note_off_c, 9, 35, 90
10, 104060, Note_on_c, 9, 35, 127
10, 104060, Note_on_c, 9, 49, 90
10, 104108, Note_off_c, 9, 49, 64
10, 104143, Note_off_c, 9, 35, 97
10, 104252, Note_on_c, 9, 35, 127
10, 104252, Note_on_c, 9, 49, 90
10, 104300, Note_off_c, 9, 49, 64
10, 104343, Note_off_c, 9, 35, 97
10, 104444, Note_on_c, 9, 35, 127
10, 104444, Note_on_c, 9, 49, 90
10, 104492, Note_off_c, 9, 49, 64
10, 104492, Note_off_c, 9, 35, 64
10, 105212, Note_on_c, 9, 38, 100
10, 105236, Note_on_c, 9, 38, 123
10, 105260, Note_off_c, 9, 38, 64
10, 105284, Note_off_c, 9, 38, 64
10, 105308, Note_on_c, 9, 35, 127
10, 105356, Note_off_c, 9, 35, 64
10, 105500, Note_on_c, 9, 35, 127
10, 105548, Note_off_c, 9, 35, 64
10, 105692, Note_on_c, 9, 35, 127
10, 105740, Note_off_c, 9, 35, 64
10, 105788, Note_on_c, 9, 38, 100
10, 105812, Note_on_c, 9, 38, 121
10, 105836, Note_off_c, 9, 38, 64
10, 105860, Note_off_c, 9, 38, 64
10, 105980, Note_on_c, 9, 35, 127
10, 105980, Note_on_c, 9, 57, 90
10, 106028, Note_off_c, 9, 57, 64
10, 106028, Note_off_c, 9, 35, 64
10, 106364, Note_on_c, 9, 38, 121
10, 106412, Note_off_c, 9, 38, 64
10, 106460, Note_on_c, 9, 38, 121
10, 106508, Note_off_c, 9, 38, 64
10, 106556, Note_on_c, 9, 45, 101
10, 106604, Note_off_c, 9, 45, 64
10, 106652, Note_on_c, 9, 38, 121
10, 106700, Note_off_c, 9, 38, 64
10, 106748, Note_on_c, 9, 38, 121
10, 106796, Note_off_c, 9, 38, 64
10, 106844, Note_on_c, 9, 38, 121
10, 106892, Note_off_c, 9, 38, 64
10, 106940, Note_on_c, 9, 38, 121
10, 106988, Note_off_c, 9, 38, 64
10, 107036, Note_on_c, 9, 38, 118
10, 107084, Note_off_c, 9, 38, 64
10, 107132, Note_on_c, 9, 43, 111
10, 107180, Note_off_c, 9, 43, 64
10, 107228, Note_on_c, 9, 43, 108
10, 107276, Note_off_c, 9, 43, 64
10, 107324, Note_on_c, 9, 41, 113
10, 107372, Note_off_c, 9, 41, 64
10, 107420, Note_on_c, 9, 41, 108
10, 107468, Note_off_c, 9, 41, 64
10, 107516, Note_on_c, 9, 35, 127
10, 107516, Note_on_c, 9, 49, 111
10, 107516, Note_on_c, 9, 44, 70
10, 107564, Note_off_c, 9, 44, 64
10, 107564, Note_off_c, 9, 49, 64
10, 107564, Note_off_c, 9, 35, 64
10, 107708, Note_on_c, 9, 35, 127
10, 107756, Note_off_c, 9, 35, 64
10, 107900, Note_on_c, 9, 38, 121
10, 107900, Note_on_c, 9, 51, 104
10, 107900, Note_on_c, 9, 44, 70
10, 107948, Note_off_c, 9, 51, 64
10, 107948, Note_off_c, 9, 38, 64
10, 108014, Note_off_c, 9, 44, 45
10, 108092, Note_on_c, 9, 51, 84
10, 108140, Note_off_c, 9, 51, 64
10, 108284, Note_on_c, 9, 35, 127
10, 108284, Note_on_c, 9, 51, 104
10, 108284, Note_on_c, 9, 44, 70
10, 108332, Note_off_c, 9, 51, 64
10, 108332, Note_off_c, 9, 35, 64
10, 108385, Note_off_c, 9, 44, 58
10, 108476, Note_on_c, 9, 51, 85
10, 108476, Note_on_c, 9, 35, 127
10, 108524, Note_off_c, 9, 35, 64
10, 108524, Note_off_c, 9, 51, 64
10, 108668, Note_on_c, 9, 38, 119
10, 108668, Note_on_c, 9, 51, 104
10, 108668, Note_on_c, 9, 44, 70
10, 108716, Note_off_c, 9, 51, 64
10, 108716, Note_off_c, 9, 38, 64
10, 108784, Note_off_c, 9, 44, 52
10, 108860, Note_on_c, 9, 51, 85
10, 108908, Note_off_c, 9, 51, 64
10, 109052, Note_on_c, 9, 35, 127
10, 109052, Note_on_c, 9, 51, 104
10, 109052, Note_on_c, 9, 44, 70
10, 109100, Note_off_c, 9, 51, 64
10, 109100, Note_off_c, 9, 35, 64
10, 109151, Note_off_c, 9, 44, 60
10, 109244, Note_on_c, 9, 35, 127
10, 109244, Note_on_c, 9, 51, 84
10, 109292, Note_off_c, 9, 51, 64
10, 109292, Note_off_c, 9, 35, 64
10, 109436, Note_on_c, 9, 38, 119
10, 109436, Note_on_c, 9, 51, 104
10, 109436, Note_on_c, 9, 44, 70
10, 109484, Note_off_c, 9, 51, 64
10, 109484, Note_off_c, 9, 38, 64
10, 109554, Note_off_c, 9, 44, 49
10, 109628, Note_on_c, 9, 35, 127
10, 109628, Note_on_c, 9, 51, 85
10, 109676, Note_off_c, 9, 51, 64
10, 109676, Note_off_c, 9, 35, 64
10, 109820, Note_on_c, 9, 38, 121
10, 109820, Note_on_c, 9, 51, 104
10, 109820, Note_on_c, 9, 44, 70
10, 109868, Note_off_c, 9, 51, 64
10, 109868, Note_off_c, 9, 38, 64
10, 109932, Note_off_c, 9, 44, 60
10, 110012, Note_on_c, 9, 35, 127
10, 110012, Note_on_c, 9, 51, 88
10, 110060, Note_off_c, 9, 51, 64
10, 110060, Note_off_c, 9, 35, 64
10, 110204, Note_on_c, 9, 38, 121
10, 110204, Note_on_c, 9, 51, 104
10, 110204, Note_on_c, 9, 44, 70
10, 110252, Note_off_c, 9, 51, 64
10, 110252, Note_off_c, 9, 38, 64
10, 110337, Note_off_c, 9, 44, 55
10, 110396, Note_on_c, 9, 35, 127
10, 110396, Note_on_c, 9, 51, 88
10, 110444, Note_off_c, 9, 51, 64
10, 110444, Note_off_c, 9, 35, 64
10, 110588, Note_on_c, 9, 38, 121
10, 110588, Note_on_c, 9, 51, 104
10, 110588, Note_on_c, 9, 44, 70
10, 110636, Note_off_c, 9, 51, 64
10, 110636, Note_off_c, 9, 38, 64
10, 110684, Note_on_c, 9, 35, 127
10, 110692, Note_off_c, 9, 44, 59
10, 110732, Note_off_c, 9, 35, 64
10, 110780, Note_on_c, 9, 51, 90
10, 110828, Note_off_c, 9, 51, 64
10, 110876, Note_on_c, 9, 35, 127
10, 110924, Note_off_c, 9, 35, 64
10, 110972, Note_on_c, 9, 38, 118
10, 110972, Note_on_c, 9, 51, 104
10, 110972, Note_on_c, 9, 44, 70
10, 111020, Note_off_c, 9, 51, 64
10, 111020, Note_off_c, 9, 38, 64
10, 111068, Note_on_c, 9, 35, 127
10, 111071, Note_off_c, 9, 44, 58
10, 111116, Note_off_c, 9, 35, 64
10, 111164, Note_on_c, 9, 51, 84
10, 111212, Note_off_c, 9, 51, 64
10, 111260, Note_on_c, 9, 35, 127
10, 111308, Note_off_c, 9, 35, 64
10, 111356, Note_on_c, 9, 38, 118
10, 111356, Note_on_c, 9, 51, 104
10, 111356, Note_on_c, 9, 44, 70
10, 111404, Note_off_c, 9, 51, 64
10, 111404, Note_off_c, 9, 38, 64
10, 111452, Note_on_c, 9, 35, 127
10, 111463, Note_off_c, 9, 44, 53
10, 111500, Note_off_c, 9, 35, 64
10, 111548, Note_on_c, 9, 51, 82
10, 111596, Note_off_c, 9, 51, 64
10, 111644, Note_on_c, 9, 35, 127
10, 111692, Note_off_c, 9, 35, 64
10, 111740, Note_on_c, 9, 38, 118
10, 111740, Note_on_c, 9, 44, 70
10, 111788, Note_off_c, 9, 38, 64
10, 111833, Note_off_c, 9, 44, 56
10, 111836, Note_on_c, 9, 38, 106
10, 111884, Note_off_c, 9, 38, 64
10, 111932, Note_on_c, 9, 38, 121
10, 111980, Note_off_c, 9, 38, 64
10, 112028, Note_on_c, 9, 38, 112
10, 112076, Note_off_c, 9, 38, 64
10, 112124, Note_on_c, 9, 49, 125
10, 112124, Note_on_c, 9, 35, 127
10, 112124, Note_on_c, 9, 39, 70
10, 112172, Note_off_c, 9, 39, 64
10, 112172, Note_off_c, 9, 35, 64
10, 112172, Note_off_c, 9, 49, 64
10, 112508, Note_on_c, 9, 38, 122
10, 112508, Note_on_c, 9, 39, 70
10, 112508, Note_on_c, 9, 51, 95
10, 112508, Note_on_c, 9, 44, 70
10, 112556, Note_off_c, 9, 44, 64
10, 112556, Note_off_c, 9, 51, 64
10, 112556, Note_off_c, 9, 39, 64
10, 112556, Note_off_c, 9, 38, 64
10, 112700, Note_on_c, 9, 51, 80
10, 112748, Note_off_c, 9, 51, 64
10, 112892, Note_on_c, 9, 35, 127
10, 112892, Note_on_c, 9, 39, 71
10, 112892, Note_on_c, 9, 51, 95
10, 112892, Note_on_c, 9, 44, 71
10, 112940, Note_off_c, 9, 44, 64
10, 112940, Note_off_c, 9, 51, 64
10, 112940, Note_off_c, 9, 39, 64
10, 112940, Note_off_c, 9, 35, 64
10, 113084, Note_on_c, 9, 35, 127
10, 113084, Note_on_c, 9, 51, 77
10, 113132, Note_off_c, 9, 51, 64
10, 113132, Note_off_c, 9, 35, 64
10, 113276, Note_on_c, 9, 38, 122
10, 113276, Note_on_c, 9, 39, 70
10, 113276, Note_on_c, 9, 51, 90
10, 113276, Note_on_c, 9, 44, 70
10, 113324, Note_off_c, 9, 44, 64
10, 113324, Note_off_c, 9, 51, 64
10, 113324, Note_off_c, 9, 39, 64
10, 113324, Note_off_c, 9, 38, 64
10, 113468, Note_on_c, 9, 51, 75
10, 113516, Note_off_c, 9, 51, 64
10, 113660, Note_on_c, 9, 35, 127
10, 113660, Note_on_c, 9, 39, 70
10, 113660, Note_on_c, 9, 51, 90
10, 113660, Note_on_c, 9, 44, 70
10, 113708, Note_off_c, 9, 44, 64
10, 113708, Note_off_c, 9, 51, 64
10, 113708, Note_off_c, 9, 39, 64
10, 113708, Note_off_c, 9, 35, 64
10, 113852, Note_on_c, 9, 51, 77
10, 113900, Note_off_c, 9, 51, 64
10, 113948, Note_on_c, 9, 35, 127
10, 113996, Note_off_c, 9, 35, 64
10, 114044, Note_on_c, 9, 38, 122
10, 114044, Note_on_c, 9, 39, 71
10, 114044, Note_on_c, 9, 51, 90
10, 114044, Note_on_c, 9, 44, 71
10, 114092, Note_off_c, 9, 44, 64
10, 114092, Note_off_c, 9, 51, 64
10, 114092, Note_off_c, 9, 39, 64
10, 114092, Note_off_c, 9, 38, 64
10, 114236, Note_on_c, 9, 35, 127
10, 114236, Note_on_c, 9, 51, 75
10, 114284, Note_off_c, 9, 51, 64
10, 114284, Note_off_c, 9, 35, 64
10, 114428, Note_on_c, 9, 38, 122
10, 114428, Note_on_c, 9, 39, 68
10, 114428, Note_on_c, 9, 51, 90
10, 114428, Note_on_c, 9, 44, 68
10, 114476, Note_off_c, 9, 44, 64
10, 114476, Note_off_c, 9, 51, 64
10, 114476, Note_off_c, 9, 39, 64
10, 114476, Note_off_c, 9, 38, 64
10, 114620, Note_on_c, 9, 35, 127
10, 114620, Note_on_c, 9, 51, 75
10, 114668, Note_off_c, 9, 51, 64
10, 114668, Note_off_c, 9, 35, 64
10, 114716, Note_on_c, 9, 35, 127
10, 114764, Note_off_c, 9, 35, 64
10, 114812, Note_on_c, 9, 38, 122
10, 114812, Note_on_c, 9, 39, 70
10, 114812, Note_on_c, 9, 51, 90
10, 114812, Note_on_c, 9, 44, 70
10, 114860, Note_off_c, 9, 44, 64
10, 114860, Note_off_c, 9, 51, 64
10, 114860, Note_off_c, 9, 39, 64
10, 114860, Note_off_c, 9, 38, 64
10, 115004, Note_on_c, 9, 35, 127
10, 115004, Note_on_c, 9, 51, 74
10, 115052, Note_off_c, 9, 51, 64
10, 115052, Note_off_c, 9, 35, 64
10, 115196, Note_on_c, 9, 35, 127
10, 115196, Note_on_c, 9, 39, 70
10, 115196, Note_on_c, 9, 51, 90
10, 115196, Note_on_c, 9, 44, 70
10, 115196, Note_on_c, 9, 49, 90
10, 115244, Note_off_c, 9, 49, 64
10, 115244, Note_off_c, 9, 44, 64
10, 115244, Note_off_c, 9, 51, 64
10, 115244, Note_off_c, 9, 39, 64
10, 115244, Note_off_c, 9, 35, 64
10, 115388, Note_on_c, 9, 51, 75
10, 115436, Note_off_c, 9, 51, 64
10, 115580, Note_on_c, 9, 38, 122
10, 115580, Note_on_c, 9, 39, 70
10, 115580, Note_on_c, 9, 51, 90
10, 115580, Note_on_c, 9, 44, 70
10, 115628, Note_off_c, 9, 44, 64
10, 115628, Note_off_c, 9, 51, 64
10, 115628, Note_off_c, 9, 39, 64
10, 115628, Note_off_c, 9, 38, 64
10, 115772, Note_on_c, 9, 51, 74
10, 115820, Note_off_c, 9, 51, 64
10, 115964, Note_on_c, 9, 35, 127
10, 115964, Note_on_c, 9, 39, 70
10, 115964, Note_on_c, 9, 51, 90
10, 115964, Note_on_c, 9, 44, 70
10, 116012, Note_off_c, 9, 44, 64
10, 116012, Note_off_c, 9, 51, 64
10, 116012, Note_off_c, 9, 39, 64
10, 116012, Note_off_c, 9, 35, 64
10, 116156, Note_on_c, 9, 35, 127
10, 116156, Note_on_c, 9, 51, 74
10, 116204, Note_off_c, 9, 51, 64
10, 116204, Note_off_c, 9, 35, 64
10, 116348, Note_on_c, 9, 38, 122
10, 116348, Note_on_c, 9, 39, 71
10, 116348, Note_on_c, 9, 51, 90
10, 116348, Note_on_c, 9, 44, 71
10, 116396, Note_off_c, 9, 44, 64
10, 116396, Note_off_c, 9, 51, 64
10, 116396, Note_off_c, 9, 39, 64
10, 116396, Note_off_c, 9, 38, 64
10, 116540, Note_on_c, 9, 51, 74
10, 116588, Note_off_c, 9, 51, 64
10, 116732, Note_on_c, 9, 35, 127
10, 116732, Note_on_c, 9, 39, 68
10, 116732, Note_on_c, 9, 51, 90
10, 116732, Note_on_c, 9, 44, 68
10, 116780, Note_off_c, 9, 44, 64
10, 116780, Note_off_c, 9, 51, 64
10, 116780, Note_off_c, 9, 39, 64
10, 116780, Note_off_c, 9, 35, 64
10, 116924, Note_on_c, 9, 51, 74
10, 116972, Note_off_c, 9, 51, 64
10, 117020, Note_on_c, 9, 35, 127
10, 117068, Note_off_c, 9, 35, 64
10, 117116, Note_on_c, 9, 38, 122
10, 117116, Note_on_c, 9, 39, 70
10, 117116, Note_on_c, 9, 51, 90
10, 117116, Note_on_c, 9, 44, 70
10, 117164, Note_off_c, 9, 44, 64
10, 117164, Note_off_c, 9, 51, 64
10, 117164, Note_off_c, 9, 39, 64
10, 117164, Note_off_c, 9, 38, 64
10, 117308, Note_on_c, 9, 35, 127
10, 117308, Note_on_c, 9, 51, 75
10, 117356, Note_off_c, 9, 51, 64
10, 117356, Note_off_c, 9, 35, 64
10, 117500, Note_on_c, 9, 38, 122
10, 117500, Note_on_c, 9, 39, 70
10, 117500, Note_on_c, 9, 44, 70
10, 117548, Note_off_c, 9, 44, 64
10, 117548, Note_off_c, 9, 39, 64
10, 117548, Note_off_c, 9, 38, 64
10, 117596, Note_on_c, 9, 38, 124
10, 117644, Note_off_c, 9, 38, 64
10, 117692, Note_on_c, 9, 35, 127
10, 117740, Note_off_c, 9, 35, 64
10, 117884, Note_on_c, 9, 38, 122
10, 117884, Note_on_c, 9, 39, 70
10, 117884, Note_on_c, 9, 44, 70
10, 117932, Note_off_c, 9, 44, 64
10, 117932, Note_off_c, 9, 39, 64
10, 117932, Note_off_c, 9, 38, 64
10, 117980, Note_on_c, 9, 38, 124
10, 118028, Note_off_c, 9, 38, 64
10, 118076, Note_on_c, 9, 38, 122
10, 118124, Note_off_c, 9, 38, 64
10, 118172, Note_on_c, 9, 38, 124
10, 118220, Note_off_c, 9, 38, 64
10, 118268, Note_on_c, 9, 35, 127
10, 118268, Note_on_c, 9, 39, 70
10, 118268, Note_on_c, 9, 44, 70
10, 118268, Note_on_c, 9, 57, 90
10, 118316, Note_off_c, 9, 57, 64
10, 118316, Note_off_c, 9, 44, 64
10, 118316, Note_off_c, 9, 39, 64
10, 118316, Note_off_c, 9, 35, 64
10, 118652, Note_on_c, 9, 38, 122
10, 118652, Note_on_c, 9, 39, 70
10, 118652, Note_on_c, 9, 51, 90
10, 118652, Note_on_c, 9, 44, 70
10, 118700, Note_off_c, 9, 44, 64
10, 118700, Note_off_c, 9, 51, 64
10, 118700, Note_off_c, 9, 39, 64
10, 118700, Note_off_c, 9, 38, 64
10, 118844, Note_on_c, 9, 51, 79
10, 118892, Note_off_c, 9, 51, 64
10, 119036, Note_on_c, 9, 35, 127
10, 119036, Note_on_c, 9, 39, 71
10, 119036, Note_on_c, 9, 51, 90
10, 119036, Note_on_c, 9, 44, 71
10, 119084, Note_off_c, 9, 44, 64
10, 119084, Note_off_c, 9, 51, 64
10, 119084, Note_off_c, 9, 39, 64
10, 119084, Note_off_c, 9, 35, 64
10, 119228, Note_on_c, 9, 35, 127
10, 119228, Note_on_c, 9, 51, 77
10, 119276, Note_off_c, 9, 51, 64
10, 119276, Note_off_c, 9, 35, 64
10, 119420, Note_on_c, 9, 38, 122
10, 119420, Note_on_c, 9, 39, 68
10, 119420, Note_on_c, 9, 51, 90
10, 119420, Note_on_c, 9, 44, 68
10, 119468, Note_off_c, 9, 44, 64
10, 119468, Note_off_c, 9, 51, 64
10, 119468, Note_off_c, 9, 39, 64
10, 119468, Note_off_c, 9, 38, 64
10, 119612, Note_on_c, 9, 51, 77
10, 119660, Note_off_c, 9, 51, 64
10, 119804, Note_on_c, 9, 35, 127
10, 119804, Note_on_c, 9, 39, 70
10, 119804, Note_on_c, 9, 51, 90
10, 119804, Note_on_c, 9, 44, 70
10, 119852, Note_off_c, 9, 44, 64
10, 119852, Note_off_c, 9, 51, 64
10, 119852, Note_off_c, 9, 39, 64
10, 119852, Note_off_c, 9, 35, 64
10, 119996, Note_on_c, 9, 51, 74
10, 120044, Note_off_c, 9, 51, 64
10, 120092, Note_on_c, 9, 35, 127
10, 120140, Note_off_c, 9, 35, 64
10, 120188, Note_on_c, 9, 38, 122
10, 120188, Note_on_c, 9, 39, 70
10, 120188, Note_on_c, 9, 51, 90
10, 120188, Note_on_c, 9, 44, 70
10, 120236, Note_off_c, 9, 44, 64
10, 120236, Note_off_c, 9, 51, 64
10, 120236, Note_off_c, 9, 39, 64
10, 120236, Note_off_c, 9, 38, 64
10, 120380, Note_on_c, 9, 35, 127
10, 120380, Note_on_c, 9, 51, 74
10, 120428, Note_off_c, 9, 51, 64
10, 120428, Note_off_c, 9, 35, 64
10, 120572, Note_on_c, 9, 38, 122
10, 120572, Note_on_c, 9, 39, 71
10, 120572, Note_on_c, 9, 51, 90
10, 120572, Note_on_c, 9, 44, 71
10, 120620, Note_off_c, 9, 44, 64
10, 120620, Note_off_c, 9, 51, 64
10, 120620, Note_off_c, 9, 39, 64
10, 120620, Note_off_c, 9, 38, 64
10, 120764, Note_on_c, 9, 35, 127
10, 120764, Note_on_c, 9, 51, 69
10, 120812, Note_off_c, 9, 51, 64
10, 120812, Note_off_c, 9, 35, 64
10, 120860, Note_on_c, 9, 35, 127
10, 120908, Note_off_c, 9, 35, 64
10, 120956, Note_on_c, 9, 38, 122
10, 120956, Note_on_c, 9, 39, 68
10, 120956, Note_on_c, 9, 51, 90
10, 120956, Note_on_c, 9, 44, 68
10, 121004, Note_off_c, 9, 44, 64
10, 121004, Note_off_c, 9, 51, 64
10, 121004, Note_off_c, 9, 39, 64
10, 121004, Note_off_c, 9, 38, 64
10, 121148, Note_on_c, 9, 35, 127
10, 121148, Note_on_c, 9, 51, 79
10, 121196, Note_off_c, 9, 51, 64
10, 121196, Note_off_c, 9, 35, 64
10, 121340, Note_on_c, 9, 35, 127
10, 121340, Note_on_c, 9, 39, 69
10, 121340, Note_on_c, 9, 51, 90
10, 121340, Note_on_c, 9, 44, 69
10, 121388, Note_off_c, 9, 44, 64
10, 121388, Note_off_c, 9, 51, 64
10, 121388, Note_off_c, 9, 39, 64
10, 121388, Note_off_c, 9, 35, 64
10, 121532, Note_on_c, 9, 51, 77
10, 121580, Note_off_c, 9, 51, 64
10, 121724, Note_on_c, 9, 38, 122
10, 121724, Note_on_c, 9, 39, 71
10, 121724, Note_on_c, 9, 51, 87
10, 121724, Note_on_c, 9, 44, 71
10, 121772, Note_off_c, 9, 44, 64
10, 121772, Note_off_c, 9, 51, 64
10, 121772, Note_off_c, 9, 39, 64
10, 121772, Note_off_c, 9, 38, 64
10, 121916, Note_on_c, 9, 51, 77
10, 121964, Note_off_c, 9, 51, 64
10, 122108, Note_on_c, 9, 35, 127
10, 122108, Note_on_c, 9, 39, 69
10, 122108, Note_on_c, 9, 51, 90
10, 122108, Note_on_c, 9, 44, 69
10, 122156, Note_off_c, 9, 44, 64
10, 122156, Note_off_c, 9, 51, 64
10, 122156, Note_off_c, 9, 39, 64
10, 122156, Note_off_c, 9, 35, 64
10, 122300, Note_on_c, 9, 35, 127
10, 122300, Note_on_c, 9, 51, 80
10, 122348, Note_off_c, 9, 51, 64
10, 122348, Note_off_c, 9, 35, 64
10, 122492, Note_on_c, 9, 38, 122
10, 122492, Note_on_c, 9, 39, 69
10, 122492, Note_on_c, 9, 51, 90
10, 122492, Note_on_c, 9, 44, 69
10, 122540, Note_off_c, 9, 44, 64
10, 122540, Note_off_c, 9, 51, 64
10, 122540, Note_off_c, 9, 39, 64
10, 122540, Note_off_c, 9, 38, 64
10, 122684, Note_on_c, 9, 51, 72
10, 122732, Note_off_c, 9, 51, 64
10, 122876, Note_on_c, 9, 35, 127
10, 122876, Note_on_c, 9, 39, 69
10, 122876, Note_on_c, 9, 51, 90
10, 122876, Note_on_c, 9, 44, 69
10, 122924, Note_off_c, 9, 44, 64
10, 122924, Note_off_c, 9, 51, 64
10, 122924, Note_off_c, 9, 39, 64
10, 122924, Note_off_c, 9, 35, 64
10, 123068, Note_on_c, 9, 51, 90
10, 123116, Note_off_c, 9, 51, 64
10, 123164, Note_on_c, 9, 35, 127
10, 123212, Note_off_c, 9, 35, 64
10, 123260, Note_on_c, 9, 38, 122
10, 123260, Note_on_c, 9, 39, 73
10, 123260, Note_on_c, 9, 51, 90
10, 123260, Note_on_c, 9, 44, 73
10, 123308, Note_off_c, 9, 44, 64
10, 123308, Note_off_c, 9, 51, 64
10, 123308, Note_off_c, 9, 39, 64
10, 123308, Note_off_c, 9, 38, 64
10, 123452, Note_on_c, 9, 35, 127
10, 123452, Note_on_c, 9, 51, 74
10, 123500, Note_off_c, 9, 51, 64
10, 123500, Note_off_c, 9, 35, 64
10, 123548, Note_on_c, 9, 35, 127
10, 123596, Note_off_c, 9, 35, 64
10, 123644, Note_on_c, 9, 38, 120
10, 123644, Note_on_c, 9, 39, 70
10, 123644, Note_on_c, 9, 51, 90
10, 123644, Note_on_c, 9, 44, 70
10, 123692, Note_off_c, 9, 44, 64
10, 123692, Note_off_c, 9, 51, 64
10, 123692, Note_off_c, 9, 39, 64
10, 123692, Note_off_c, 9, 38, 64
10, 123836, Note_on_c, 9, 35, 127
10, 123836, Note_on_c, 9, 51, 74
10, 123884, Note_off_c, 9, 51, 64
10, 123884, Note_off_c, 9, 35, 64
10, 124028, Note_on_c, 9, 38, 121
10, 124028, Note_on_c, 9, 39, 70
10, 124028, Note_on_c, 9, 51, 90
10, 124028, Note_on_c, 9, 44, 70
10, 124076, Note_off_c, 9, 44, 64
10, 124076, Note_off_c, 9, 51, 64
10, 124076, Note_off_c, 9, 39, 64
10, 124076, Note_off_c, 9, 38, 64
10, 124220, Note_on_c, 9, 35, 127
10, 124220, Note_on_c, 9, 51, 77
10, 124268, Note_off_c, 9, 51, 64
10, 124268, Note_off_c, 9, 35, 64
10, 124412, Note_on_c, 9, 49, 98
10, 124412, Note_on_c, 9, 35, 127
10, 124412, Note_on_c, 9, 39, 71
10, 124412, Note_on_c, 9, 44, 71
10, 124460, Note_off_c, 9, 44, 64
10, 124460, Note_off_c, 9, 39, 64
10, 124460, Note_off_c, 9, 35, 64
10, 124460, Note_off_c, 9, 49, 64
10, 124796, Note_on_c, 9, 38, 122
10, 124796, Note_on_c, 9, 39, 68
10, 124796, Note_on_c, 9, 51, 90
10, 124796, Note_on_c, 9, 44, 68
10, 124844, Note_off_c, 9, 44, 64
10, 124844, Note_off_c, 9, 51, 64
10, 124844, Note_off_c, 9, 39, 64
10, 124844, Note_off_c, 9, 38, 64
10, 124988, Note_on_c, 9, 51, 77
10, 125036, Note_off_c, 9, 51, 64
10, 125180, Note_on_c, 9, 35, 127
10, 125180, Note_on_c, 9, 39, 69
10, 125180, Note_on_c, 9, 51, 90
10, 125180, Note_on_c, 9, 44, 69
10, 125228, Note_off_c, 9, 44, 64
10, 125228, Note_off_c, 9, 51, 64
10, 125228, Note_off_c, 9, 39, 64
10, 125228, Note_off_c, 9, 35, 64
10, 125372, Note_on_c, 9, 35, 127
10, 125372, Note_on_c, 9, 51, 77
10, 125420, Note_off_c, 9, 51, 64
10, 125420, Note_off_c, 9, 35, 64
10, 125564, Note_on_c, 9, 38, 122
10, 125564, Note_on_c, 9, 39, 71
10, 125564, Note_on_c, 9, 51, 90
10, 125564, Note_on_c, 9, 44, 71
10, 125612, Note_off_c, 9, 44, 64
10, 125612, Note_off_c, 9, 51, 64
10, 125612, Note_off_c, 9, 39, 64
10, 125612, Note_off_c, 9, 38, 64
10, 125756, Note_on_c, 9, 51, 77
10, 125804, Note_off_c, 9, 51, 64
10, 125948, Note_on_c, 9, 35, 127
10, 125948, Note_on_c, 9, 39, 69
10, 125948, Note_on_c, 9, 51, 90
10, 125948, Note_on_c, 9, 44, 69
10, 125996, Note_off_c, 9, 44, 64
10, 125996, Note_off_c, 9, 51, 64
10, 125996, Note_off_c, 9, 39, 64
10, 125996, Note_off_c, 9, 35, 64
10, 126140, Note_on_c, 9, 51, 79
10, 126188, Note_off_c, 9, 51, 64
10, 126236, Note_on_c, 9, 35, 127
10, 126284, Note_off_c, 9, 35, 64
10, 126332, Note_on_c, 9, 38, 122
10, 126332, Note_on_c, 9, 39, 69
10, 126332, Note_on_c, 9, 51, 90
10, 126332, Note_on_c, 9, 44, 69
10, 126380, Note_off_c, 9, 44, 64
10, 126380, Note_off_c, 9, 51, 64
10, 126380, Note_off_c, 9, 39, 64
10, 126380, Note_off_c, 9, 38, 64
10, 126524, Note_on_c, 9, 35, 127
10, 126524, Note_on_c, 9, 51, 74
10, 126572, Note_off_c, 9, 51, 64
10, 126572, Note_off_c, 9, 35, 64
10, 126716, Note_on_c, 9, 38, 122
10, 126716, Note_on_c, 9, 39, 69
10, 126716, Note_on_c, 9, 51, 90
10, 126716, Note_on_c, 9, 44, 69
10, 126764, Note_off_c, 9, 44, 64
10, 126764, Note_off_c, 9, 51, 64
10, 126764, Note_off_c, 9, 39, 64
10, 126764, Note_off_c, 9, 38, 64
10, 126908, Note_on_c, 9, 35, 127
10, 126908, Note_on_c, 9, 51, 74
10, 126956, Note_off_c, 9, 51, 64
10, 126956, Note_off_c, 9, 35, 64
10, 127004, Note_on_c, 9, 35, 127
10, 127052, Note_off_c, 9, 35, 64
10, 127100, Note_on_c, 9, 38, 122
10, 127100, Note_on_c, 9, 39, 73
10, 127100, Note_on_c, 9, 51, 90
10, 127100, Note_on_c, 9, 44, 73
10, 127148, Note_off_c, 9, 44, 64
10, 127148, Note_off_c, 9, 51, 64
10, 127148, Note_off_c, 9, 39, 64
10, 127148, Note_off_c, 9, 38, 64
10, 127292, Note_on_c, 9, 35, 127
10, 127292, Note_on_c, 9, 51, 79
10, 127340, Note_off_c, 9, 51, 64
10, 127340, Note_off_c, 9, 35, 64
10, 127484, Note_on_c, 9, 35, 127
10, 127484, Note_on_c, 9, 39, 71
10, 127484, Note_on_c, 9, 44, 71
10, 127484, Note_on_c, 9, 51, 90
10, 127532, Note_off_c, 9, 51, 64
10, 127532, Note_off_c, 9, 44, 64
10, 127532, Note_off_c, 9, 39, 64
10, 127532, Note_off_c, 9, 35, 64
10, 127676, Note_on_c, 9, 51, 75
10, 127724, Note_off_c, 9, 51, 64
10, 127868, Note_on_c, 9, 38, 122
10, 127868, Note_on_c, 9, 39, 68
10, 127868, Note_on_c, 9, 51, 90
10, 127868, Note_on_c, 9, 44, 68
10, 127916, Note_off_c, 9, 44, 64
10, 127916, Note_off_c, 9, 51, 64
10, 127916, Note_off_c, 9, 39, 64
10, 127916, Note_off_c, 9, 38, 64
10, 128060, Note_on_c, 9, 51, 74
10, 128108, Note_off_c, 9, 51, 64
10, 128252, Note_on_c, 9, 35, 127
10, 128252, Note_on_c, 9, 39, 69
10, 128252, Note_on_c, 9, 51, 90
10, 128252, Note_on_c, 9, 44, 69
10, 128300, Note_off_c, 9, 44, 64
10, 128300, Note_off_c, 9, 51, 64
10, 128300, Note_off_c, 9, 39, 64
10, 128300, Note_off_c, 9, 35, 64
10, 128444, Note_on_c, 9, 35, 127
10, 128444, Note_on_c, 9, 51, 75
10, 128492, Note_off_c, 9, 51, 64
10, 128492, Note_off_c, 9, 35, 64
10, 128636, Note_on_c, 9, 38, 122
10, 128636, Note_on_c, 9, 39, 71
10, 128636, Note_on_c, 9, 51, 90
10, 128636, Note_on_c, 9, 44, 71
10, 128684, Note_off_c, 9, 44, 64
10, 128684, Note_off_c, 9, 51, 64
10, 128684, Note_off_c, 9, 39, 64
10, 128684, Note_off_c, 9, 38, 64
10, 128828, Note_on_c, 9, 51, 75
10, 128876, Note_off_c, 9, 51, 64
10, 129020, Note_on_c, 9, 35, 127
10, 129020, Note_on_c, 9, 39, 69
10, 129020, Note_on_c, 9, 51, 90
10, 129020, Note_on_c, 9, 44, 69
10, 129068, Note_off_c, 9, 44, 64
10, 129068, Note_off_c, 9, 51, 64
10, 129068, Note_off_c, 9, 39, 64
10, 129068, Note_off_c, 9, 35, 64
10, 129212, Note_on_c, 9, 51, 74
10, 129260, Note_off_c, 9, 51, 64
10, 129308, Note_on_c, 9, 35, 127
10, 129356, Note_off_c, 9, 35, 64
10, 129404, Note_on_c, 9, 38, 122
10, 129404, Note_on_c, 9, 39, 69
10, 129404, Note_on_c, 9, 51, 90
10, 129404, Note_on_c, 9, 44, 69
10, 129452, Note_off_c, 9, 44, 64
10, 129452, Note_off_c, 9, 51, 64
10, 129452, Note_off_c, 9, 39, 64
10, 129452, Note_off_c, 9, 38, 64
10, 129596, Note_on_c, 9, 35, 127
10, 129596, Note_on_c, 9, 51, 75
10, 129644, Note_off_c, 9, 51, 64
10, 129644, Note_off_c, 9, 35, 64
10, 129788, Note_on_c, 9, 38, 122
10, 129788, Note_on_c, 9, 39, 69
10, 129788, Note_on_c, 9, 44, 69
10, 129836, Note_off_c, 9, 44, 64
10, 129836, Note_off_c, 9, 39, 64
10, 129836, Note_off_c, 9, 38, 64
10, 129884, Note_on_c, 9, 38, 112
10, 129932, Note_off_c, 9, 38, 64
10, 129980, Note_on_c, 9, 35, 127
10, 129980, Note_on_c, 9, 49, 90
10, 130028, Note_off_c, 9, 49, 64
10, 130028, Note_off_c, 9, 35, 64
10, 130172, Note_on_c, 9, 39, 73
10, 130172, Note_on_c, 9, 44, 73
10, 130172, Note_on_c, 9, 38, 121
10, 130220, Note_off_c, 9, 38, 64
10, 130220, Note_off_c, 9, 44, 64
10, 130220, Note_off_c, 9, 39, 64
10, 130268, Note_on_c, 9, 35, 127
10, 130268, Note_on_c, 9, 57, 90
10, 130316, Note_off_c, 9, 57, 64
10, 130316, Note_off_c, 9, 35, 64
10, 130460, Note_on_c, 9, 38, 121
10, 130508, Note_off_c, 9, 38, 64
10, 130556, Note_on_c, 9, 49, 125
10, 130556, Note_on_c, 9, 35, 127
10, 130556, Note_on_c, 9, 39, 70
10, 130604, Note_off_c, 9, 39, 64
10, 130604, Note_off_c, 9, 35, 64
10, 130604, Note_off_c, 9, 49, 64
10, 130940, Note_on_c, 9, 38, 122
10, 130940, Note_on_c, 9, 39, 70
10, 130940, Note_on_c, 9, 51, 90
10, 130940, Note_on_c, 9, 44, 70
10, 130988, Note_off_c, 9, 44, 64
10, 130988, Note_off_c, 9, 51, 64
10, 130988, Note_off_c, 9, 39, 64
10, 130988, Note_off_c, 9, 38, 64
10, 131132, Note_on_c, 9, 51, 77
10, 131180, Note_off_c, 9, 51, 64
10, 131324, Note_on_c, 9, 35, 127
10, 131324, Note_on_c, 9, 39, 71
10, 131324, Note_on_c, 9, 51, 90
10, 131324, Note_on_c, 9, 44, 71
10, 131372, Note_off_c, 9, 44, 64
10, 131372, Note_off_c, 9, 51, 64
10, 131372, Note_off_c, 9, 39, 64
10, 131372, Note_off_c, 9, 35, 64
10, 131516, Note_on_c, 9, 35, 127
10, 131516, Note_on_c, 9, 51, 72
10, 131564, Note_off_c, 9, 51, 64
10, 131564, Note_off_c, 9, 35, 64
10, 131708, Note_on_c, 9, 38, 122
10, 131708, Note_on_c, 9, 39, 70
10, 131708, Note_on_c, 9, 51, 90
10, 131708, Note_on_c, 9, 44, 70
10, 131756, Note_off_c, 9, 44, 64
10, 131756, Note_off_c, 9, 51, 64
10, 131756, Note_off_c, 9, 39, 64
10, 131756, Note_off_c, 9, 38, 64
10, 131900, Note_on_c, 9, 51, 74
10, 131948, Note_off_c, 9, 51, 64
10, 132092, Note_on_c, 9, 35, 127
10, 132092, Note_on_c, 9, 39, 70
10, 132092, Note_on_c, 9, 51, 90
10, 132092, Note_on_c, 9, 44, 70
10, 132140, Note_off_c, 9, 44, 64
10, 132140, Note_off_c, 9, 51, 64
10, 132140, Note_off_c, 9, 39, 64
10, 132140, Note_off_c, 9, 35, 64
10, 132284, Note_on_c, 9, 51, 74
10, 132332, Note_off_c, 9, 51, 64
10, 132380, Note_on_c, 9, 35, 127
10, 132428, Note_off_c, 9, 35, 64
10, 132476, Note_on_c, 9, 38, 122
10, 132476, Note_on_c, 9, 39, 71
10, 132476, Note_on_c, 9, 51, 90
10, 132476, Note_on_c, 9, 44, 71
10, 132524, Note_off_c, 9, 44, 64
10, 132524, Note_off_c, 9, 51, 64
10, 132524, Note_off_c, 9, 39, 64
10, 132524, Note_off_c, 9, 38, 64
10, 132668, Note_on_c, 9, 35, 127
10, 132668, Note_on_c, 9, 51, 74
10, 132716, Note_off_c, 9, 51, 64
10, 132716, Note_off_c, 9, 35, 64
10, 132860, Note_on_c, 9, 38, 122
10, 132860, Note_on_c, 9, 39, 68
10, 132860, Note_on_c, 9, 51, 90
10, 132860, Note_on_c, 9, 44, 68
10, 132908, Note_off_c, 9, 44, 64
10, 132908, Note_off_c, 9, 51, 64
10, 132908, Note_off_c, 9, 39, 64
10, 132908, Note_off_c, 9, 38, 64
10, 133052, Note_on_c, 9, 35, 127
10, 133052, Note_on_c, 9, 51, 74
10, 133100, Note_off_c, 9, 51, 64
10, 133100, Note_off_c, 9, 35, 64
10, 133148, Note_on_c, 9, 35, 127
10, 133196, Note_off_c, 9, 35, 64
10, 133244, Note_on_c, 9, 38, 122
10, 133244, Note_on_c, 9, 39, 70
10, 133244, Note_on_c, 9, 51, 90
10, 133244, Note_on_c, 9, 44, 70
10, 133292, Note_off_c, 9, 44, 64
10, 133292, Note_off_c, 9, 51, 64
10, 133292, Note_off_c, 9, 39, 64
10, 133292, Note_off_c, 9, 38, 64
10, 133436, Note_on_c, 9, 35, 127
10, 133436, Note_on_c, 9, 51, 71
10, 133484, Note_off_c, 9, 51, 64
10, 133484, Note_off_c, 9, 35, 64
10, 133628, Note_on_c, 9, 35, 127
10, 133628, Note_on_c, 9, 39, 70
10, 133628, Note_on_c, 9, 51, 90
10, 133628, Note_on_c, 9, 44, 70
10, 133676, Note_off_c, 9, 44, 64
10, 133676, Note_off_c, 9, 51, 64
10, 133676, Note_off_c, 9, 39, 64
10, 133676, Note_off_c, 9, 35, 64
10, 133820, Note_on_c, 9, 51, 72
10, 133868, Note_off_c, 9, 51, 64
10, 134012, Note_on_c, 9, 38, 122
10, 134012, Note_on_c, 9, 39, 70
10, 134012, Note_on_c, 9, 51, 90
10, 134012, Note_on_c, 9, 44, 70
10, 134060, Note_off_c, 9, 44, 64
10, 134060, Note_off_c, 9, 51, 64
10, 134060, Note_off_c, 9, 39, 64
10, 134060, Note_off_c, 9, 38, 64
10, 134204, Note_on_c, 9, 51, 71
10, 134252, Note_off_c, 9, 51, 64
10, 134396, Note_on_c, 9, 35, 127
10, 134396, Note_on_c, 9, 39, 70
10, 134396, Note_on_c, 9, 51, 90
10, 134396, Note_on_c, 9, 44, 70
10, 134444, Note_off_c, 9, 44, 64
10, 134444, Note_off_c, 9, 51, 64
10, 134444, Note_off_c, 9, 39, 64
10, 134444, Note_off_c, 9, 35, 64
10, 134588, Note_on_c, 9, 35, 127
10, 134588, Note_on_c, 9, 51, 71
10, 134636, Note_off_c, 9, 51, 64
10, 134636, Note_off_c, 9, 35, 64
10, 134780, Note_on_c, 9, 38, 122
10, 134780, Note_on_c, 9, 39, 71
10, 134780, Note_on_c, 9, 51, 90
10, 134780, Note_on_c, 9, 44, 71
10, 134828, Note_off_c, 9, 44, 64
10, 134828, Note_off_c, 9, 51, 64
10, 134828, Note_off_c, 9, 39, 64
10, 134828, Note_off_c, 9, 38, 64
10, 134972, Note_on_c, 9, 51, 66
10, 135020, Note_off_c, 9, 51, 64
10, 135164, Note_on_c, 9, 35, 127
10, 135164, Note_on_c, 9, 39, 68
10, 135164, Note_on_c, 9, 51, 90
10, 135164, Note_on_c, 9, 44, 68
10, 135212, Note_off_c, 9, 44, 64
10, 135212, Note_off_c, 9, 51, 64
10, 135212, Note_off_c, 9, 39, 64
10, 135212, Note_off_c, 9, 35, 64
10, 135216, Control_c, 9, 11, 120
10, 135356, Note_on_c, 9, 51, 71
10, 135404, Note_off_c, 9, 51, 64
10, 135452, Note_on_c, 9, 35, 127
10, 135500, Note_off_c, 9, 35, 64
10, 135544, Control_c, 9, 11, 115
10, 135548, Note_on_c, 9, 38, 122
10, 135548, Note_on_c, 9, 39, 70
10, 135548, Note_on_c, 9, 51, 88
10, 135548, Note_on_c, 9, 44, 70
10, 135596, Note_off_c, 9, 44, 64
10, 135596, Note_off_c, 9, 51, 64
10, 135596, Note_off_c, 9, 39, 64
10, 135596, Note_off_c, 9, 38, 64
10, 135740, Note_on_c, 9, 35, 127
10, 135740, Note_on_c, 9, 51, 79
10, 135788, Note_off_c, 9, 51, 64
10, 135788, Note_off_c, 9, 35, 64
10, 135932, Note_on_c, 9, 38, 122
10, 135932, Note_on_c, 9, 39, 70
10, 135932, Note_on_c, 9, 44, 70
10, 135936, Control_c, 9, 11, 110
10, 135980, Note_off_c, 9, 44, 64
10, 135980, Note_off_c, 9, 39, 64
10, 135980, Note_off_c, 9, 38, 64
10, 136028, Note_on_c, 9, 38, 124
10, 136076, Note_off_c, 9, 38, 64
10, 136124, Note_on_c, 9, 35, 127
10, 136124, Note_on_c, 9, 49, 90
10, 136172, Note_off_c, 9, 49, 64
10, 136172, Note_off_c, 9, 35, 64
10, 136312, Control_c, 9, 11, 105
10, 136316, Note_on_c, 9, 38, 122
10, 136316, Note_on_c, 9, 39, 70
10, 136316, Note_on_c, 9, 44, 70
10, 136364, Note_off_c, 9, 44, 64
10, 136364, Note_off_c, 9, 39, 64
10, 136364, Note_off_c, 9, 38, 64
10, 136412, Note_on_c, 9, 38, 124
10, 136460, Note_off_c, 9, 38, 64
10, 136508, Note_on_c, 9, 35, 127
10, 136508, Note_on_c, 9, 57, 90
10, 136556, Note_off_c, 9, 57, 64
10, 136556, Note_off_c, 9, 35, 64
10, 136700, Note_on_c, 9, 35, 127
10, 136700, Note_on_c, 9, 39, 70
10, 136700, Note_on_c, 9, 44, 70
10, 136700, Note_on_c, 9, 49, 90
10, 136704, Control_c, 9, 11, 100
10, 136748, Note_off_c, 9, 49, 64
10, 136748, Note_off_c, 9, 44, 64
10, 136748, Note_off_c, 9, 39, 64
10, 136748, Note_off_c, 9, 35, 64
10, 137084, Note_on_c, 9, 38, 122
10, 137084, Note_on_c, 9, 39, 70
10, 137084, Note_on_c, 9, 51, 90
10, 137084, Note_on_c, 9, 44, 70
10, 137088, Control_c, 9, 11, 95
10, 137132, Note_off_c, 9, 44, 64
10, 137132, Note_off_c, 9, 51, 64
10, 137132, Note_off_c, 9, 39, 64
10, 137132, Note_off_c, 9, 38, 64
10, 137276, Note_on_c, 9, 51, 75
10, 137324, Note_off_c, 9, 51, 64
10, 137464, Control_c, 9, 11, 90
10, 137468, Note_on_c, 9, 35, 127
10, 137468, Note_on_c, 9, 39, 71
10, 137468, Note_on_c, 9, 51, 90
10, 137468, Note_on_c, 9, 44, 71
10, 137516, Note_off_c, 9, 44, 64
10, 137516, Note_off_c, 9, 51, 64
10, 137516, Note_off_c, 9, 39, 64
10, 137516, Note_off_c, 9, 35, 64
10, 137660, Note_on_c, 9, 35, 127
10, 137660, Note_on_c, 9, 51, 69
10, 137708, Note_off_c, 9, 51, 64
10, 137708, Note_off_c, 9, 35, 64
10, 137852, Note_on_c, 9, 38, 122
10, 137852, Note_on_c, 9, 39, 68
10, 137852, Note_on_c, 9, 51, 90
10, 137852, Note_on_c, 9, 44, 68
10, 137864, Control_c, 9, 11, 85
10, 137900, Note_off_c, 9, 44, 64
10, 137900, Note_off_c, 9, 51, 64
10, 137900, Note_off_c, 9, 39, 64
10, 137900, Note_off_c, 9, 38, 64
10, 138044, Note_on_c, 9, 51, 69
10, 138092, Note_off_c, 9, 51, 64
10, 138236, Note_on_c, 9, 35, 127
10, 138236, Note_on_c, 9, 39, 70
10, 138236, Note_on_c, 9, 51, 90
10, 138236, Note_on_c, 9, 44, 70
10, 138248, Control_c, 9, 11, 80
10, 138284, Note_off_c, 9, 44, 64
10, 138284, Note_off_c, 9, 51, 64
10, 138284, Note_off_c, 9, 39, 64
10, 138284, Note_off_c, 9, 35, 64
10, 138428, Note_on_c, 9, 51, 71
10, 138476, Note_off_c, 9, 51, 64
10, 138524, Note_on_c, 9, 35, 127
10, 138572, Note_off_c, 9, 35, 64
10, 138616, Control_c, 9, 11, 75
10, 138620, Note_on_c, 9, 38, 122
10, 138620, Note_on_c, 9, 39, 70
10, 138620, Note_on_c, 9, 51, 90
10, 138620, Note_on_c, 9, 44, 70
10, 138668, Note_off_c, 9, 44, 64
10, 138668, Note_off_c, 9, 51, 64
10, 138668, Note_off_c, 9, 39, 64
10, 138668, Note_off_c, 9, 38, 64
10, 138812, Note_on_c, 9, 35, 127
10, 138812, Note_on_c, 9, 51, 71
10, 138860, Note_off_c, 9, 51, 64
10, 138860, Note_off_c, 9, 35, 64
10, 139000, Control_c, 9, 11, 70
10, 139004, Note_on_c, 9, 38, 122
10, 139004, Note_on_c, 9, 39, 71
10, 139004, Note_on_c, 9, 51, 90
10, 139004, Note_on_c, 9, 44, 71
10, 139052, Note_off_c, 9, 44, 64
10, 139052, Note_off_c, 9, 51, 64
10, 139052, Note_off_c, 9, 39, 64
10, 139052, Note_off_c, 9, 38, 64
10, 139196, Note_on_c, 9, 35, 127
10, 139196, Note_on_c, 9, 51, 72
10, 139244, Note_off_c, 9, 51, 64
10, 139244, Note_off_c, 9, 35, 64
10, 139292, Note_on_c, 9, 35, 127
10, 139340, Note_off_c, 9, 35, 64
10, 139388, Note_on_c, 9, 38, 122
10, 139388, Note_on_c, 9, 39, 68
10, 139388, Note_on_c, 9, 51, 90
10, 139388, Note_on_c, 9, 44, 68
10, 139392, Control_c, 9, 11, 65
10, 139436, Note_off_c, 9, 44, 64
10, 139436, Note_off_c, 9, 51, 64
10, 139436, Note_off_c, 9, 39, 64
10, 139436, Note_off_c, 9, 38, 64
10, 139580, Note_on_c, 9, 35, 127
10, 139580, Note_on_c, 9, 51, 74
10, 139628, Note_off_c, 9, 51, 64
10, 139628, Note_off_c, 9, 35, 64
10, 139772, Note_on_c, 9, 35, 127
10, 139772, Note_on_c, 9, 39, 69
10, 139772, Note_on_c, 9, 51, 90
10, 139772, Note_on_c, 9, 44, 69
10, 139784, Control_c, 9, 11, 60
10, 139820, Note_off_c, 9, 44, 64
10, 139820, Note_off_c, 9, 51, 64
10, 139820, Note_off_c, 9, 39, 64
10, 139820, Note_off_c, 9, 35, 64
10, 139964, Note_on_c, 9, 51, 71
10, 140012, Note_off_c, 9, 51, 64
10, 140156, Note_on_c, 9, 38, 122
10, 140156, Note_on_c, 9, 39, 71
10, 140156, Note_on_c, 9, 51, 90
10, 140156, Note_on_c, 9, 44, 71
10, 140160, Control_c, 9, 11, 55
10, 140204, Note_off_c, 9, 44, 64
10, 140204, Note_off_c, 9, 51, 64
10, 140204, Note_off_c, 9, 39, 64
10, 140204, Note_off_c, 9, 38, 64
10, 140348, Note_on_c, 9, 51, 72
10, 140396, Note_off_c, 9, 51, 64
10, 140536, Control_c, 9, 11, 50
10, 140540, Note_on_c, 9, 35, 127
10, 140540, Note_on_c, 9, 39, 69
10, 140540, Note_on_c, 9, 51, 90
10, 140540, Note_on_c, 9, 44, 69
10, 140588, Note_off_c, 9, 44, 64
10, 140588, Note_off_c, 9, 51, 64
10, 140588, Note_off_c, 9, 39, 64
10, 140588, Note_off_c, 9, 35, 64
10, 140732, Note_on_c, 9, 35, 127
10, 140732, Note_on_c, 9, 51, 72
10, 140780, Note_off_c, 9, 51, 64
10, 140780, Note_off_c, 9, 35, 64
10, 140924, Note_on_c, 9, 38, 122
10, 140924, Note_on_c, 9, 39, 69
10, 140924, Note_on_c, 9, 51, 90
10, 140924, Note_on_c, 9, 44, 69
10, 140936, Control_c, 9, 11, 45
10, 140972, Note_off_c, 9, 44, 64
10, 140972, Note_off_c, 9, 51, 64
10, 140972, Note_off_c, 9, 39, 64
10, 140972, Note_off_c, 9, 38, 64
10, 141116, Note_on_c, 9, 51, 74
10, 141164, Note_off_c, 9, 51, 64
10, 141308, Note_on_c, 9, 35, 127
10, 141308, Note_on_c, 9, 39, 69
10, 141308, Note_on_c, 9, 51, 90
10, 141308, Note_on_c, 9, 44, 69
10, 141312, Control_c, 9, 11, 40
10, 141356, Note_off_c, 9, 44, 64
10, 141356, Note_off_c, 9, 51, 64
10, 141356, Note_off_c, 9, 39, 64
10, 141356, Note_off_c, 9, 35, 64
10, 141500, Note_on_c, 9, 51, 79
10, 141548, Note_off_c, 9, 51, 64
10, 141596, Note_on_c, 9, 35, 127
10, 141644, Note_off_c, 9, 35, 64
10, 141692, Note_on_c, 9, 38, 122
10, 141692, Note_on_c, 9, 39, 73
10, 141692, Note_on_c, 9, 51, 91
10, 141692, Note_on_c, 9, 44, 73
10, 141696, Control_c, 9, 11, 35
10, 141740, Note_off_c, 9, 44, 64
10, 141740, Note_off_c, 9, 51, 64
10, 141740, Note_off_c, 9, 39, 64
10, 141740, Note_off_c, 9, 38, 64
10, 141884, Note_on_c, 9, 35, 127
10, 141884, Note_on_c, 9, 51, 82
10, 141932, Note_off_c, 9, 51, 64
10, 141932, Note_off_c, 9, 35, 64
10, 142072, Control_c, 9, 11, 30
10, 142076, Note_on_c, 9, 38, 120
10, 142076, Note_on_c, 9, 39, 70
10, 142076, Note_on_c, 9, 44, 70
10, 142124, Note_off_c, 9, 44, 64
10, 142124, Note_off_c, 9, 39, 64
10, 142124, Note_off_c, 9, 38, 64
10, 142172, Note_on_c, 9, 38, 115
10, 142220, Note_off_c, 9, 38, 64
10, 142268, Note_on_c, 9, 35, 127
10, 142268, Note_on_c, 9, 49, 90
10, 142316, Note_off_c, 9, 49, 64
10, 142316, Note_off_c, 9, 35, 64
10, 142460, Note_on_c, 9, 38, 121
10, 142460, Note_on_c, 9, 39, 70
10, 142460, Note_on_c, 9, 44, 70
10, 142472, Control_c, 9, 11, 25
10, 142508, Note_off_c, 9, 44, 64
10, 142508, Note_off_c, 9, 39, 64
10, 142508, Note_off_c, 9, 38, 64
10, 142556, Note_on_c, 9, 38, 112
10, 142604, Note_off_c, 9, 38, 64
10, 142652, Note_on_c, 9, 35, 127
10, 142652, Note_on_c, 9, 57, 90
10, 142700, Note_off_c, 9, 57, 64
10, 142700, Note_off_c, 9, 35, 64
10, 142840, Control_c, 9, 11, 20
10, 142844, Note_on_c, 9, 49, 98
10, 142844, Note_on_c, 9, 35, 127
10, 142844, Note_on_c, 9, 39, 71
10, 142844, Note_on_c, 9, 44, 71
10, 142892, Note_off_c, 9, 44, 64
10, 142892, Note_off_c, 9, 39, 64
10, 142892, Note_off_c, 9, 35, 64
10, 142892, Note_off_c, 9, 49, 64
10, 143228, Note_on_c, 9, 38, 122
10, 143228, Note_on_c, 9, 39, 68
10, 143228, Note_on_c, 9, 51, 61
10, 143228, Note_on_c, 9, 44, 68
10, 143232, Control_c, 9, 11, 15
10, 143276, Note_off_c, 9, 44, 64
10, 143276, Note_off_c, 9, 51, 64
10, 143276, Note_off_c, 9, 39, 64
10, 143276, Note_off_c, 9, 38, 64
10, 143420, Note_on_c, 9, 51, 55
10, 143468, Note_off_c, 9, 51, 64
10, 143612, Note_on_c, 9, 35, 127
10, 143612, Note_on_c, 9, 39, 69
10, 143612, Note_on_c, 9, 44, 90
10, 143616, Control_c, 9, 11, 10
10, 143660, Note_off_c, 9, 44, 64
10, 143660, Note_off_c, 9, 39, 64
10, 143660, Note_off_c, 9, 35, 64
10, 143804, Note_on_c, 9, 35, 127
10, 143852, Note_off_c, 9, 35, 64
10, 143992, Control_c, 9, 11, 5
10, 143996, Note_on_c, 9, 38, 122
10, 143996, Note_on_c, 9, 39, 71
10, 143996, Note_on_c, 9, 44, 90
10, 144044, Note_off_c, 9, 44, 64
10, 144044, Note_off_c, 9, 39, 64
10, 144044, Note_off_c, 9, 38, 64
10, 144344, Control_c, 9, 11, 0
10, 144384, Control_c, 9, 11, 127
10, 145920, End_track
11, 0, Start_track
11, 0, Title_t, "GuitSlide"
11, 648, Control_c, 10, 121, 0
11, 720, Program_c, 10, 120
11, 768, Control_c, 10, 0, 6
11, 840, Control_c, 10, 32, 0
11, 888, Control_c, 10, 7, 100
11, 936, Control_c, 10, 10, 64
11, 1008, Control_c, 10, 1, 0
11, 1104, Control_c, 10, 91, 127
11, 1200, Control_c, 10, 93, 0
11, 1296, Control_c, 10, 2, 0
11, 29952, Note_on_c, 10, 59, 75
11, 30720, Note_off_c, 10, 59, 64
11, 99456, Note_on_c, 10, 52, 80
11, 100064, Note_off_c, 10, 52, 64
11, 100096, End_track
12, 0, Start_track
12, 0, Title_t, "GuitrFdBk"
12, 648, Control_c, 11, 121, 0
12, 720, Program_c, 11, 26
12, 768, Control_c, 11, 0, 8
12, 840, Control_c, 11, 32, 0
12, 888, Control_c, 11, 7, 100
12, 936, Control_c, 11, 10, 64
12, 1008, Control_c, 11, 1, 0
12, 1104, Control_c, 11, 91, 127
12, 1200, Control_c, 11, 93, 0
12, 1296, Control_c, 11, 2, 0
12, 72192, Note_on_c, 11, 62, 57
12, 72192, Note_on_c, 11, 67, 57
12, 72192, Note_on_c, 11, 55, 57
12, 72768, Note_off_c, 11, 55, 81
12, 72768, Note_off_c, 11, 67, 81
12, 72768, Note_off_c, 11, 62, 81
12, 72768, Note_on_c, 11, 61, 56
12, 72768, Note_on_c, 11, 66, 56
12, 72768, Note_on_c, 11, 54, 56
12, 73344, Note_off_c, 11, 54, 81
12, 73344, Note_off_c, 11, 66, 81
12, 73344, Note_off_c, 11, 61, 81
12, 73344, Note_on_c, 11, 59, 56
12, 73344, Note_on_c, 11, 64, 56
12, 73344, Note_on_c, 11, 52, 56
12, 73728, Note_off_c, 11, 52, 81
12, 73728, Note_off_c, 11, 64, 81
12, 73728, Note_off_c, 11, 59, 81
12, 73728, Note_on_c, 11, 54, 56
12, 73728, Note_on_c, 11, 57, 56
12, 73728, Note_on_c, 11, 62, 56
12, 73728, Note_on_c, 11, 50, 56
12, 78720, Note_off_c, 11, 50, 81
12, 78976, Note_off_c, 11, 54, 81
12, 79360, Note_off_c, 11, 57, 81
12, 81408, Note_off_c, 11, 62, 81
12, 81408, End_track
13, 0, Start_track
13, 0, Title_t, "B Vocals 1"
13, 648, Control_c, 13, 121, 0
13, 720, Program_c, 13, 65
13, 768, Control_c, 13, 0, 0
13, 840, Control_c, 13, 32, 0
13, 888, Control_c, 13, 7, 100
13, 936, Control_c, 13, 10, 60
13, 1008, Control_c, 13, 1, 0
13, 1104, Control_c, 13, 91, 127
13, 1200, Control_c, 13, 93, 0
13, 1296, Control_c, 13, 2, 0
13, 38400, Note_on_c, 13, 64, 120
13, 38400, Note_on_c, 13, 67, 120
13, 38586, Note_off_c, 13, 67, 90
13, 38586, Note_off_c, 13, 64, 90
13, 38592, Note_on_c, 13, 64, 120
13, 38592, Note_on_c, 13, 67, 120
13, 38775, Note_off_c, 13, 67, 73
13, 38775, Note_off_c, 13, 64, 73
13, 38784, Note_on_c, 13, 64, 120
13, 38784, Note_on_c, 13, 67, 120
13, 38967, Note_off_c, 13, 67, 91
13, 38967, Note_off_c, 13, 64, 91
13, 38976, Note_on_c, 13, 64, 120
13, 38976, Note_on_c, 13, 67, 120
13, 39360, Note_off_c, 13, 67, 94
13, 39360, Note_off_c, 13, 64, 94
13, 39360, Note_on_c, 13, 64, 120
13, 39360, Note_on_c, 13, 67, 120
13, 39537, Pitch_bend_c, 13, 10729
13, 39543, Pitch_bend_c, 13, 13974
13, 39550, Pitch_bend_c, 13, 16383
13, 39832, Pitch_bend_c, 13, 8192
13, 39837, Pitch_bend_c, 13, 2987
13, 39840, Note_off_c, 13, 67, 127
13, 39840, Note_off_c, 13, 64, 127
13, 39844, Pitch_bend_c, 13, 8192
13, 39849, Pitch_bend_c, 13, 9958
13, 39855, Pitch_bend_c, 13, 8192
13, 39861, Pitch_bend_c, 13, 7356
13, 39868, Pitch_bend_c, 13, 8192
13, 41472, Note_on_c, 13, 64, 120
13, 41472, Note_on_c, 13, 67, 120
13, 41658, Note_off_c, 13, 67, 90
13, 41658, Note_off_c, 13, 64, 90
13, 41664, Note_on_c, 13, 64, 120
13, 41664, Note_on_c, 13, 67, 120
13, 41847, Note_off_c, 13, 67, 73
13, 41847, Note_off_c, 13, 64, 73
13, 41856, Note_on_c, 13, 64, 120
13, 41856, Note_on_c, 13, 67, 120
13, 42039, Note_off_c, 13, 67, 91
13, 42039, Note_off_c, 13, 64, 91
13, 42048, Note_on_c, 13, 64, 120
13, 42048, Note_on_c, 13, 67, 120
13, 42432, Note_off_c, 13, 67, 94
13, 42432, Note_off_c, 13, 64, 94
13, 42432, Note_on_c, 13, 64, 120
13, 42432, Note_on_c, 13, 67, 120
13, 42609, Pitch_bend_c, 13, 10729
13, 42615, Pitch_bend_c, 13, 13974
13, 42622, Pitch_bend_c, 13, 16383
13, 42904, Pitch_bend_c, 13, 8192
13, 42909, Pitch_bend_c, 13, 2987
13, 42912, Note_off_c, 13, 67, 127
13, 42912, Note_off_c, 13, 64, 127
13, 42916, Pitch_bend_c, 13, 8192
13, 42921, Pitch_bend_c, 13, 9958
13, 42927, Pitch_bend_c, 13, 8192
13, 42933, Pitch_bend_c, 13, 7356
13, 42940, Pitch_bend_c, 13, 8192
13, 44544, Note_on_c, 13, 64, 120
13, 44544, Note_on_c, 13, 67, 120
13, 44730, Note_off_c, 13, 67, 90
13, 44730, Note_off_c, 13, 64, 90
13, 44736, Note_on_c, 13, 64, 120
13, 44736, Note_on_c, 13, 67, 120
13, 44919, Note_off_c, 13, 67, 73
13, 44919, Note_off_c, 13, 64, 73
13, 44928, Note_on_c, 13, 64, 120
13, 44928, Note_on_c, 13, 67, 120
13, 45111, Note_off_c, 13, 67, 91
13, 45111, Note_off_c, 13, 64, 91
13, 45120, Note_on_c, 13, 64, 120
13, 45120, Note_on_c, 13, 67, 120
13, 45504, Note_off_c, 13, 67, 94
13, 45504, Note_off_c, 13, 64, 94
13, 45504, Note_on_c, 13, 64, 120
13, 45504, Note_on_c, 13, 67, 120
13, 45681, Pitch_bend_c, 13, 10729
13, 45687, Pitch_bend_c, 13, 13974
13, 45694, Pitch_bend_c, 13, 16383
13, 45976, Pitch_bend_c, 13, 8192
13, 45981, Pitch_bend_c, 13, 2987
13, 45984, Note_off_c, 13, 67, 127
13, 45984, Note_off_c, 13, 64, 127
13, 45988, Pitch_bend_c, 13, 8192
13, 45993, Pitch_bend_c, 13, 9958
13, 45999, Pitch_bend_c, 13, 8192
13, 46005, Pitch_bend_c, 13, 7356
13, 46012, Pitch_bend_c, 13, 8192
13, 46080, Note_on_c, 13, 67, 120
13, 46080, Note_on_c, 13, 71, 120
13, 47616, Note_off_c, 13, 71, 127
13, 47616, Note_on_c, 13, 70, 120
13, 49152, Note_off_c, 13, 70, 127
13, 49152, Note_off_c, 13, 67, 127
13, 102912, Note_on_c, 13, 81, 102
13, 102912, Note_on_c, 13, 74, 102
13, 103644, Control_c, 13, 1, 1
13, 103668, Control_c, 13, 1, 2
13, 103678, Control_c, 13, 1, 3
13, 103697, Control_c, 13, 1, 4
13, 103704, Control_c, 13, 1, 5
13, 103716, Control_c, 13, 1, 6
13, 103728, Control_c, 13, 1, 7
13, 103740, Control_c, 13, 1, 8
13, 103751, Control_c, 13, 1, 9
13, 103756, Control_c, 13, 1, 10
13, 103763, Control_c, 13, 1, 11
13, 103773, Control_c, 13, 1, 12
13, 103782, Control_c, 13, 1, 13
13, 103793, Control_c, 13, 1, 14
13, 103797, Control_c, 13, 1, 15
13, 103803, Control_c, 13, 1, 16
13, 103816, Control_c, 13, 1, 18
13, 103816, Control_c, 13, 1, 17
13, 103829, Control_c, 13, 1, 19
13, 103840, Control_c, 13, 1, 20
13, 103852, Control_c, 13, 1, 22
13, 103852, Control_c, 13, 1, 21
13, 103863, Control_c, 13, 1, 23
13, 103870, Control_c, 13, 1, 24
13, 103882, Control_c, 13, 1, 25
13, 103886, Control_c, 13, 1, 26
13, 103899, Control_c, 13, 1, 27
13, 103911, Control_c, 13, 1, 28
13, 103918, Control_c, 13, 1, 29
13, 103928, Control_c, 13, 1, 30
13, 103935, Control_c, 13, 1, 31
13, 103945, Control_c, 13, 1, 32
13, 103946, Control_c, 13, 1, 33
13, 103952, Control_c, 13, 1, 34
13, 103958, Control_c, 13, 1, 35
13, 103969, Control_c, 13, 1, 36
13, 103977, Control_c, 13, 1, 37
13, 103981, Control_c, 13, 1, 38
13, 103988, Control_c, 13, 1, 40
13, 103988, Control_c, 13, 1, 39
13, 103994, Control_c, 13, 1, 41
13, 104001, Control_c, 13, 1, 42
13, 104005, Control_c, 13, 1, 43
13, 104007, Control_c, 13, 1, 44
13, 104012, Control_c, 13, 1, 45
13, 104017, Control_c, 13, 1, 46
13, 104022, Control_c, 13, 1, 47
13, 104028, Control_c, 13, 1, 48
13, 104035, Control_c, 13, 1, 50
13, 104035, Control_c, 13, 1, 49
13, 104042, Control_c, 13, 1, 51
13, 104048, Control_c, 13, 1, 52
13, 104052, Control_c, 13, 1, 53
13, 104054, Control_c, 13, 1, 54
13, 104060, Control_c, 13, 1, 55
13, 104063, Control_c, 13, 1, 57
13, 104063, Control_c, 13, 1, 56
13, 104067, Control_c, 13, 1, 58
13, 104068, Control_c, 13, 1, 59
13, 104077, Control_c, 13, 1, 61
13, 104077, Control_c, 13, 1, 60
13, 104083, Control_c, 13, 1, 62
13, 104084, Control_c, 13, 1, 63
13, 104088, Control_c, 13, 1, 64
13, 104094, Control_c, 13, 1, 65
13, 104095, Control_c, 13, 1, 66
13, 104106, Control_c, 13, 1, 67
13, 104111, Control_c, 13, 1, 68
13, 104112, Control_c, 13, 1, 69
13, 104117, Control_c, 13, 1, 70
13, 104123, Control_c, 13, 1, 71
13, 104129, Control_c, 13, 1, 72
13, 104136, Control_c, 13, 1, 73
13, 104137, Control_c, 13, 1, 74
13, 104143, Control_c, 13, 1, 75
13, 104149, Control_c, 13, 1, 76
13, 104154, Control_c, 13, 1, 77
13, 104166, Control_c, 13, 1, 79
13, 104166, Control_c, 13, 1, 78
13, 104171, Control_c, 13, 1, 80
13, 104184, Control_c, 13, 1, 81
13, 104196, Control_c, 13, 1, 82
13, 104219, Control_c, 13, 1, 83
13, 104231, Control_c, 13, 1, 84
13, 104255, Control_c, 13, 1, 85
13, 104266, Control_c, 13, 1, 86
13, 104285, Control_c, 13, 1, 87
13, 104302, Control_c, 13, 1, 89
13, 104319, Control_c, 13, 1, 91
13, 104338, Control_c, 13, 1, 93
13, 104355, Control_c, 13, 1, 95
13, 104379, Control_c, 13, 1, 97
13, 104408, Control_c, 13, 1, 99
13, 104432, Control_c, 13, 1, 101
13, 104449, Control_c, 13, 1, 103
13, 104504, Control_c, 13, 1, 105
13, 104556, Control_c, 13, 1, 107
13, 104616, Control_c, 13, 1, 109
13, 104688, Control_c, 13, 1, 111
13, 104818, Control_c, 13, 1, 113
13, 104907, Control_c, 13, 1, 115
13, 105055, Control_c, 13, 1, 117
13, 105463, Control_c, 13, 1, 119
13, 105546, Control_c, 13, 1, 121
13, 105617, Control_c, 13, 1, 123
13, 105634, Control_c, 13, 1, 121
13, 105681, Control_c, 13, 1, 123
13, 105721, Control_c, 13, 1, 121
13, 105727, Control_c, 13, 1, 119
13, 105728, Control_c, 13, 1, 117
13, 105734, Control_c, 13, 1, 115
13, 105740, Control_c, 13, 1, 111
13, 105740, Control_c, 13, 1, 113
13, 105746, Control_c, 13, 1, 109
13, 105747, Control_c, 13, 1, 107
13, 105751, Control_c, 13, 1, 105
13, 105753, Control_c, 13, 1, 103
13, 105757, Control_c, 13, 1, 99
13, 105757, Control_c, 13, 1, 101
13, 105769, Control_c, 13, 1, 84
13, 105769, Control_c, 13, 1, 87
13, 105769, Control_c, 13, 1, 93
13, 105769, Control_c, 13, 1, 95
13, 105775, Control_c, 13, 1, 80
13, 105776, Control_c, 13, 1, 76
13, 105781, Control_c, 13, 1, 64
13, 105781, Control_c, 13, 1, 70
13, 105787, Control_c, 13, 1, 58
13, 105789, Control_c, 13, 1, 51
13, 105793, Control_c, 13, 1, 36
13, 105793, Control_c, 13, 1, 43
13, 105799, Control_c, 13, 1, 23
13, 105799, Control_c, 13, 1, 30
13, 105804, Control_c, 13, 1, 14
13, 105805, Control_c, 13, 1, 5
13, 105812, Control_c, 13, 1, 0
13, 105983, Note_off_c, 13, 74, 88
13, 105983, Note_off_c, 13, 81, 88
13, 105984, Note_on_c, 13, 83, 117
13, 105984, Note_on_c, 13, 71, 117
13, 106084, Control_c, 13, 1, 2
13, 106090, Control_c, 13, 1, 6
13, 106090, Control_c, 13, 1, 3
13, 106095, Control_c, 13, 1, 12
13, 106095, Control_c, 13, 1, 9
13, 106100, Control_c, 13, 1, 15
13, 106103, Control_c, 13, 1, 18
13, 106107, Control_c, 13, 1, 21
13, 106108, Control_c, 13, 1, 24
13, 106112, Control_c, 13, 1, 27
13, 106113, Control_c, 13, 1, 29
13, 106118, Control_c, 13, 1, 32
13, 106119, Control_c, 13, 1, 34
13, 106124, Control_c, 13, 1, 37
13, 106125, Control_c, 13, 1, 40
13, 106130, Control_c, 13, 1, 45
13, 106130, Control_c, 13, 1, 43
13, 106137, Control_c, 13, 1, 50
13, 106143, Control_c, 13, 1, 53
13, 106143, Control_c, 13, 1, 51
13, 106148, Control_c, 13, 1, 56
13, 106148, Control_c, 13, 1, 55
13, 106154, Control_c, 13, 1, 57
13, 106156, Control_c, 13, 1, 59
13, 106161, Control_c, 13, 1, 61
13, 106161, Control_c, 13, 1, 60
13, 106166, Control_c, 13, 1, 63
13, 106166, Control_c, 13, 1, 62
13, 106173, Control_c, 13, 1, 65
13, 106173, Control_c, 13, 1, 64
13, 106179, Control_c, 13, 1, 67
13, 106179, Control_c, 13, 1, 66
13, 106184, Control_c, 13, 1, 68
13, 106190, Control_c, 13, 1, 69
13, 106196, Control_c, 13, 1, 70
13, 106197, Control_c, 13, 1, 71
13, 106203, Control_c, 13, 1, 72
13, 106214, Control_c, 13, 1, 73
13, 106219, Control_c, 13, 1, 74
13, 106226, Control_c, 13, 1, 75
13, 106237, Control_c, 13, 1, 76
13, 106243, Control_c, 13, 1, 77
13, 106250, Control_c, 13, 1, 78
13, 106256, Control_c, 13, 1, 79
13, 106262, Control_c, 13, 1, 80
13, 106272, Control_c, 13, 1, 81
13, 106285, Control_c, 13, 1, 82
13, 106302, Control_c, 13, 1, 83
13, 106313, Control_c, 13, 1, 84
13, 106326, Control_c, 13, 1, 85
13, 106333, Control_c, 13, 1, 86
13, 106345, Control_c, 13, 1, 87
13, 106362, Control_c, 13, 1, 89
13, 106386, Control_c, 13, 1, 91
13, 106411, Control_c, 13, 1, 93
13, 106434, Control_c, 13, 1, 95
13, 106470, Control_c, 13, 1, 97
13, 106492, Control_c, 13, 1, 99
13, 106523, Control_c, 13, 1, 101
13, 106534, Control_c, 13, 1, 103
13, 106546, Control_c, 13, 1, 105
13, 106564, Control_c, 13, 1, 107
13, 106591, Control_c, 13, 1, 109
13, 106610, Control_c, 13, 1, 111
13, 106623, Control_c, 13, 1, 113
13, 106647, Control_c, 13, 1, 115
13, 106670, Control_c, 13, 1, 117
13, 106700, Control_c, 13, 1, 119
13, 106723, Control_c, 13, 1, 121
13, 106776, Control_c, 13, 1, 123
13, 106794, Control_c, 13, 1, 125
13, 106812, Control_c, 13, 1, 127
13, 107363, Control_c, 13, 1, 109
13, 107363, Control_c, 13, 1, 119
13, 107367, Control_c, 13, 1, 95
13, 107368, Control_c, 13, 1, 85
13, 107374, Control_c, 13, 1, 58
13, 107374, Control_c, 13, 1, 73
13, 107379, Control_c, 13, 1, 25
13, 107380, Control_c, 13, 1, 0
13, 107520, Note_off_c, 13, 71, 127
13, 107520, Note_off_c, 13, 83, 127
13, 119808, Note_on_c, 13, 64, 120
13, 119808, Note_on_c, 13, 67, 120
13, 119994, Note_off_c, 13, 67, 90
13, 119994, Note_off_c, 13, 64, 90
13, 120000, Note_on_c, 13, 64, 120
13, 120000, Note_on_c, 13, 67, 120
13, 120183, Note_off_c, 13, 67, 73
13, 120183, Note_off_c, 13, 64, 73
13, 120192, Note_on_c, 13, 64, 120
13, 120192, Note_on_c, 13, 67, 120
13, 120375, Note_off_c, 13, 67, 91
13, 120375, Note_off_c, 13, 64, 91
13, 120384, Note_on_c, 13, 64, 120
13, 120384, Note_on_c, 13, 67, 120
13, 120768, Note_off_c, 13, 67, 94
13, 120768, Note_off_c, 13, 64, 94
13, 120768, Note_on_c, 13, 64, 120
13, 120768, Note_on_c, 13, 67, 120
13, 120945, Pitch_bend_c, 13, 10729
13, 120951, Pitch_bend_c, 13, 13974
13, 120958, Pitch_bend_c, 13, 16383
13, 121240, Pitch_bend_c, 13, 8192
13, 121245, Pitch_bend_c, 13, 2987
13, 121248, Note_off_c, 13, 67, 127
13, 121248, Note_off_c, 13, 64, 127
13, 121252, Pitch_bend_c, 13, 8192
13, 121257, Pitch_bend_c, 13, 9958
13, 121263, Pitch_bend_c, 13, 8192
13, 121269, Pitch_bend_c, 13, 7356
13, 121276, Pitch_bend_c, 13, 8192
13, 122880, Note_on_c, 13, 64, 120
13, 122880, Note_on_c, 13, 67, 120
13, 123066, Note_off_c, 13, 67, 90
13, 123066, Note_off_c, 13, 64, 90
13, 123072, Note_on_c, 13, 64, 120
13, 123072, Note_on_c, 13, 67, 120
13, 123255, Note_off_c, 13, 67, 73
13, 123255, Note_off_c, 13, 64, 73
13, 123264, Note_on_c, 13, 64, 120
13, 123264, Note_on_c, 13, 67, 120
13, 123447, Note_off_c, 13, 67, 91
13, 123447, Note_off_c, 13, 64, 91
13, 123456, Note_on_c, 13, 64, 120
13, 123456, Note_on_c, 13, 67, 120
13, 123840, Note_on_c, 13, 64, 120
13, 123840, Note_on_c, 13, 67, 120
13, 123936, Note_off_c, 13, 67, 94
13, 123936, Note_off_c, 13, 64, 94
13, 124017, Pitch_bend_c, 13, 10729
13, 124023, Pitch_bend_c, 13, 13974
13, 124030, Pitch_bend_c, 13, 16383
13, 124312, Pitch_bend_c, 13, 8192
13, 124317, Pitch_bend_c, 13, 2987
13, 124320, Note_off_c, 13, 67, 127
13, 124320, Note_off_c, 13, 64, 127
13, 124324, Pitch_bend_c, 13, 8192
13, 124329, Pitch_bend_c, 13, 9958
13, 124335, Pitch_bend_c, 13, 8192
13, 124341, Pitch_bend_c, 13, 7356
13, 124348, Pitch_bend_c, 13, 8192
13, 125952, Note_on_c, 13, 64, 120
13, 125952, Note_on_c, 13, 67, 120
13, 126138, Note_off_c, 13, 67, 90
13, 126138, Note_off_c, 13, 64, 90
13, 126144, Note_on_c, 13, 64, 120
13, 126144, Note_on_c, 13, 67, 120
13, 126327, Note_off_c, 13, 67, 73
13, 126327, Note_off_c, 13, 64, 73
13, 126336, Note_on_c, 13, 64, 120
13, 126336, Note_on_c, 13, 67, 120
13, 126519, Note_off_c, 13, 67, 91
13, 126519, Note_off_c, 13, 64, 91
13, 126528, Note_on_c, 13, 64, 120
13, 126528, Note_on_c, 13, 67, 120
13, 126912, Note_off_c, 13, 67, 94
13, 126912, Note_off_c, 13, 64, 94
13, 126912, Note_on_c, 13, 64, 120
13, 126912, Note_on_c, 13, 67, 120
13, 127089, Pitch_bend_c, 13, 10729
13, 127095, Pitch_bend_c, 13, 13974
13, 127102, Pitch_bend_c, 13, 16383
13, 127464, Pitch_bend_c, 13, 8192
13, 127465, Pitch_bend_c, 13, 8192
13, 127466, Pitch_bend_c, 13, 2987
13, 127466, Pitch_bend_c, 13, 9958
13, 127467, Pitch_bend_c, 13, 8192
13, 127468, Pitch_bend_c, 13, 7356
13, 127469, Pitch_bend_c, 13, 8192
13, 127480, Note_off_c, 13, 67, 127
13, 127480, Note_off_c, 13, 64, 127
13, 127488, Note_on_c, 13, 67, 116
13, 127488, Note_on_c, 13, 71, 116
13, 129925, Control_c, 13, 1, 1
13, 129929, Control_c, 13, 1, 2
13, 129936, Control_c, 13, 1, 3
13, 129942, Control_c, 13, 1, 4
13, 129947, Control_c, 13, 1, 5
13, 129953, Control_c, 13, 1, 6
13, 129964, Control_c, 13, 1, 7
13, 129970, Control_c, 13, 1, 8
13, 129982, Control_c, 13, 1, 9
13, 129983, Control_c, 13, 1, 10
13, 130000, Control_c, 13, 1, 11
13, 130013, Control_c, 13, 1, 12
13, 130024, Control_c, 13, 1, 13
13, 130030, Control_c, 13, 1, 14
13, 130047, Control_c, 13, 1, 15
13, 130070, Control_c, 13, 1, 16
13, 130141, Control_c, 13, 1, 17
13, 130229, Control_c, 13, 1, 18
13, 130277, Control_c, 13, 1, 19
13, 130440, Control_c, 13, 1, 20
13, 130529, Control_c, 13, 1, 21
13, 130561, Control_c, 13, 1, 20
13, 130652, Control_c, 13, 1, 21
13, 130673, Control_c, 13, 1, 19
13, 130676, Control_c, 13, 1, 17
13, 130682, Control_c, 13, 1, 18
13, 130705, Control_c, 13, 1, 19
13, 130716, Control_c, 13, 1, 20
13, 130781, Control_c, 13, 1, 21
13, 130809, Control_c, 13, 1, 22
13, 130864, Control_c, 13, 1, 23
13, 130952, Control_c, 13, 1, 24
13, 131239, Control_c, 13, 1, 25
13, 131321, Control_c, 13, 1, 26
13, 131426, Control_c, 13, 1, 25
13, 131515, Control_c, 13, 1, 26
13, 131597, Control_c, 13, 1, 27
13, 131674, Control_c, 13, 1, 28
13, 131854, Control_c, 13, 1, 29
13, 131942, Control_c, 13, 1, 30
13, 132090, Control_c, 13, 1, 31
13, 132407, Control_c, 13, 1, 32
13, 132752, Control_c, 13, 1, 33
13, 133181, Control_c, 13, 1, 34
13, 133292, Control_c, 13, 1, 35
13, 133380, Control_c, 13, 1, 36
13, 133433, Control_c, 13, 1, 37
13, 133633, Control_c, 13, 1, 38
13, 133819, Control_c, 13, 1, 39
13, 134048, Control_c, 13, 1, 38
13, 134083, Control_c, 13, 1, 39
13, 134242, Control_c, 13, 1, 40
13, 134424, Control_c, 13, 1, 41
13, 134535, Control_c, 13, 1, 40
13, 134653, Control_c, 13, 1, 41
13, 134852, Control_c, 13, 1, 42
13, 135216, Control_c, 13, 11, 120
13, 135351, Control_c, 13, 1, 43
13, 135544, Control_c, 13, 11, 115
13, 135709, Control_c, 13, 1, 44
13, 135784, Control_c, 13, 1, 43
13, 135936, Control_c, 13, 11, 110
13, 135995, Control_c, 13, 1, 44
13, 136243, Control_c, 13, 1, 45
13, 136312, Control_c, 13, 11, 105
13, 136431, Control_c, 13, 1, 44
13, 136499, Control_c, 13, 1, 45
13, 136704, Control_c, 13, 11, 100
13, 136757, Control_c, 13, 1, 46
13, 136853, Control_c, 13, 1, 45
13, 137088, Control_c, 13, 11, 95
13, 137104, Control_c, 13, 1, 46
13, 137397, Control_c, 13, 1, 45
13, 137432, Control_c, 13, 1, 46
13, 137464, Control_c, 13, 11, 90
13, 137864, Control_c, 13, 11, 85
13, 137867, Control_c, 13, 1, 47
13, 138248, Control_c, 13, 11, 80
13, 138494, Control_c, 13, 1, 48
13, 138616, Control_c, 13, 11, 75
13, 139000, Control_c, 13, 11, 70
13, 139210, Control_c, 13, 1, 49
13, 139316, Control_c, 13, 1, 50
13, 139392, Control_c, 13, 11, 65
13, 139532, Control_c, 13, 1, 51
13, 139697, Control_c, 13, 1, 52
13, 139784, Control_c, 13, 11, 60
13, 139995, Control_c, 13, 1, 53
13, 140160, Control_c, 13, 11, 55
13, 140183, Control_c, 13, 1, 54
13, 140282, Control_c, 13, 1, 55
13, 140458, Control_c, 13, 1, 56
13, 140536, Control_c, 13, 11, 50
13, 140851, Control_c, 13, 1, 57
13, 140936, Control_c, 13, 11, 45
13, 140946, Control_c, 13, 1, 56
13, 141267, Control_c, 13, 1, 57
13, 141312, Control_c, 13, 11, 40
13, 141321, Control_c, 13, 1, 58
13, 141514, Control_c, 13, 1, 59
13, 141696, Control_c, 13, 11, 35
13, 142072, Control_c, 13, 11, 30
13, 142159, Control_c, 13, 1, 60
13, 142358, Control_c, 13, 1, 61
13, 142472, Control_c, 13, 11, 25
13, 142570, Control_c, 13, 1, 60
13, 142575, Control_c, 13, 1, 59
13, 142593, Control_c, 13, 1, 60
13, 142604, Control_c, 13, 1, 59
13, 142610, Control_c, 13, 1, 56
13, 142611, Control_c, 13, 1, 54
13, 142615, Control_c, 13, 1, 49
13, 142617, Control_c, 13, 1, 45
13, 142620, Control_c, 13, 1, 40
13, 142622, Control_c, 13, 1, 35
13, 142627, Control_c, 13, 1, 26
13, 142627, Control_c, 13, 1, 31
13, 142632, Control_c, 13, 1, 21
13, 142633, Control_c, 13, 1, 13
13, 142638, Control_c, 13, 1, 4
13, 142639, Control_c, 13, 1, 0
13, 142840, Control_c, 13, 11, 20
13, 143232, Control_c, 13, 11, 15
13, 143616, Control_c, 13, 11, 10
13, 143992, Control_c, 13, 11, 5
13, 144096, Note_off_c, 13, 71, 127
13, 144096, Note_off_c, 13, 67, 127
13, 144344, Control_c, 13, 11, 0
13, 144384, Control_c, 13, 11, 127
13, 145920, End_track
14, 0, Start_track
14, 0, Title_t, "B Vocals 2"
14, 648, Control_c, 14, 121, 0
14, 720, Program_c, 14, 65
14, 768, Control_c, 14, 0, 0
14, 840, Control_c, 14, 32, 0
14, 888, Control_c, 14, 7, 100
14, 936, Control_c, 14, 10, 60
14, 1008, Control_c, 14, 1, 0
14, 1104, Control_c, 14, 91, 127
14, 1200, Control_c, 14, 93, 0
14, 1296, Control_c, 14, 2, 0
14, 38400, Note_on_c, 14, 59, 120
14, 38586, Note_off_c, 14, 59, 90
14, 38592, Note_on_c, 14, 59, 120
14, 38775, Note_off_c, 14, 59, 73
14, 38784, Note_on_c, 14, 59, 120
14, 38967, Note_off_c, 14, 59, 91
14, 38976, Note_on_c, 14, 59, 120
14, 39360, Note_off_c, 14, 59, 94
14, 39360, Note_on_c, 14, 59, 120
14, 39526, Pitch_bend_c, 14, 7838
14, 39532, Pitch_bend_c, 14, 6874
14, 39539, Pitch_bend_c, 14, 5654
14, 39545, Pitch_bend_c, 14, 4336
14, 39549, Pitch_bend_c, 14, 2955
14, 39556, Pitch_bend_c, 14, 224
14, 39562, Pitch_bend_c, 14, 0
14, 39840, Note_off_c, 14, 59, 127
14, 39856, Pitch_bend_c, 14, 6296
14, 39860, Pitch_bend_c, 14, 11115
14, 39867, Pitch_bend_c, 14, 7967
14, 39873, Pitch_bend_c, 14, 6071
14, 39877, Pitch_bend_c, 14, 8192
14, 41472, Note_on_c, 14, 59, 120
14, 41658, Note_off_c, 14, 59, 90
14, 41664, Note_on_c, 14, 59, 120
14, 41847, Note_off_c, 14, 59, 73
14, 41856, Note_on_c, 14, 59, 120
14, 42039, Note_off_c, 14, 59, 91
14, 42048, Note_on_c, 14, 59, 120
14, 42432, Note_off_c, 14, 59, 94
14, 42432, Note_on_c, 14, 59, 120
14, 42598, Pitch_bend_c, 14, 7838
14, 42604, Pitch_bend_c, 14, 6874
14, 42611, Pitch_bend_c, 14, 5654
14, 42617, Pitch_bend_c, 14, 4336
14, 42621, Pitch_bend_c, 14, 2955
14, 42628, Pitch_bend_c, 14, 224
14, 42634, Pitch_bend_c, 14, 0
14, 42912, Note_off_c, 14, 59, 127
14, 42928, Pitch_bend_c, 14, 6296
14, 42932, Pitch_bend_c, 14, 11115
14, 42939, Pitch_bend_c, 14, 7967
14, 42945, Pitch_bend_c, 14, 6071
14, 42949, Pitch_bend_c, 14, 8192
14, 44544, Note_on_c, 14, 59, 120
14, 44730, Note_off_c, 14, 59, 90
14, 44736, Note_on_c, 14, 59, 120
14, 44919, Note_off_c, 14, 59, 73
14, 44928, Note_on_c, 14, 59, 120
14, 45111, Note_off_c, 14, 59, 91
14, 45120, Note_on_c, 14, 59, 120
14, 45504, Note_off_c, 14, 59, 94
14, 45504, Note_on_c, 14, 59, 120
14, 45670, Pitch_bend_c, 14, 7838
14, 45676, Pitch_bend_c, 14, 6874
14, 45683, Pitch_bend_c, 14, 5654
14, 45689, Pitch_bend_c, 14, 4336
14, 45693, Pitch_bend_c, 14, 2955
14, 45700, Pitch_bend_c, 14, 224
14, 45706, Pitch_bend_c, 14, 0
14, 45984, Note_off_c, 14, 59, 127
14, 46000, Pitch_bend_c, 14, 6296
14, 46004, Pitch_bend_c, 14, 11115
14, 46011, Pitch_bend_c, 14, 7967
14, 46017, Pitch_bend_c, 14, 6071
14, 46021, Pitch_bend_c, 14, 8192
14, 46080, Note_on_c, 14, 55, 120
14, 47616, Note_off_c, 14, 55, 64
14, 47616, Note_on_c, 14, 58, 120
14, 49152, Note_off_c, 14, 58, 64
14, 119808, Note_on_c, 14, 59, 120
14, 119994, Note_off_c, 14, 59, 90
14, 120000, Note_on_c, 14, 59, 120
14, 120183, Note_off_c, 14, 59, 73
14, 120192, Note_on_c, 14, 59, 120
14, 120375, Note_off_c, 14, 59, 91
14, 120384, Note_on_c, 14, 59, 120
14, 120768, Note_off_c, 14, 59, 94
14, 120768, Note_on_c, 14, 59, 120
14, 120934, Pitch_bend_c, 14, 7838
14, 120940, Pitch_bend_c, 14, 6874
14, 120947, Pitch_bend_c, 14, 5654
14, 120953, Pitch_bend_c, 14, 4336
14, 120957, Pitch_bend_c, 14, 2955
14, 120964, Pitch_bend_c, 14, 224
14, 120970, Pitch_bend_c, 14, 0
14, 121248, Note_off_c, 14, 59, 127
14, 121264, Pitch_bend_c, 14, 6296
14, 121268, Pitch_bend_c, 14, 11115
14, 121275, Pitch_bend_c, 14, 7967
14, 121281, Pitch_bend_c, 14, 6071
14, 121285, Pitch_bend_c, 14, 8192
14, 122880, Note_on_c, 14, 59, 120
14, 123066, Note_off_c, 14, 59, 90
14, 123072, Note_on_c, 14, 59, 120
14, 123255, Note_off_c, 14, 59, 73
14, 123264, Note_on_c, 14, 59, 120
14, 123447, Note_off_c, 14, 59, 91
14, 123456, Note_on_c, 14, 59, 120
14, 123840, Note_off_c, 14, 59, 94
14, 123840, Note_on_c, 14, 59, 120
14, 124006, Pitch_bend_c, 14, 7838
14, 124012, Pitch_bend_c, 14, 6874
14, 124019, Pitch_bend_c, 14, 5654
14, 124025, Pitch_bend_c, 14, 4336
14, 124029, Pitch_bend_c, 14, 2955
14, 124036, Pitch_bend_c, 14, 224
14, 124042, Pitch_bend_c, 14, 0
14, 124320, Note_off_c, 14, 59, 127
14, 124336, Pitch_bend_c, 14, 6296
14, 124340, Pitch_bend_c, 14, 11115
14, 124347, Pitch_bend_c, 14, 7967
14, 124353, Pitch_bend_c, 14, 6071
14, 124357, Pitch_bend_c, 14, 8192
14, 125952, Note_on_c, 14, 59, 120
14, 126138, Note_off_c, 14, 59, 90
14, 126144, Note_on_c, 14, 59, 120
14, 126327, Note_off_c, 14, 59, 73
14, 126336, Note_on_c, 14, 59, 120
14, 126519, Note_off_c, 14, 59, 91
14, 126528, Note_on_c, 14, 59, 120
14, 126912, Note_off_c, 14, 59, 94
14, 126912, Note_on_c, 14, 59, 120
14, 127078, Pitch_bend_c, 14, 7838
14, 127084, Pitch_bend_c, 14, 6874
14, 127091, Pitch_bend_c, 14, 5654
14, 127097, Pitch_bend_c, 14, 4336
14, 127101, Pitch_bend_c, 14, 2955
14, 127108, Pitch_bend_c, 14, 224
14, 127114, Pitch_bend_c, 14, 0
14, 127464, Pitch_bend_c, 14, 6296
14, 127465, Pitch_bend_c, 14, 11115
14, 127466, Pitch_bend_c, 14, 7967
14, 127467, Pitch_bend_c, 14, 6071
14, 127468, Pitch_bend_c, 14, 8192
14, 127472, Note_off_c, 14, 59, 127
14, 127488, Note_on_c, 14, 59, 114
14, 128778, Control_c, 14, 1, 1
14, 128800, Control_c, 14, 1, 2
14, 128812, Control_c, 14, 1, 3
14, 128830, Control_c, 14, 1, 4
14, 128859, Control_c, 14, 1, 5
14, 128871, Control_c, 14, 1, 6
14, 128876, Control_c, 14, 1, 7
14, 128883, Control_c, 14, 1, 8
14, 128900, Control_c, 14, 1, 9
14, 128971, Control_c, 14, 1, 10
14, 129087, Control_c, 14, 1, 11
14, 129158, Control_c, 14, 1, 12
14, 129288, Control_c, 14, 1, 13
14, 129352, Control_c, 14, 1, 14
14, 129633, Control_c, 14, 1, 15
14, 129732, Control_c, 14, 1, 16
14, 129845, Control_c, 14, 1, 17
14, 129944, Control_c, 14, 1, 18
14, 129991, Control_c, 14, 1, 19
14, 130124, Control_c, 14, 1, 20
14, 130196, Control_c, 14, 1, 21
14, 130312, Control_c, 14, 1, 22
14, 130355, Control_c, 14, 1, 23
14, 130437, Control_c, 14, 1, 24
14, 130664, Control_c, 14, 1, 25
14, 130747, Control_c, 14, 1, 26
14, 130946, Control_c, 14, 1, 27
14, 131369, Control_c, 14, 1, 28
14, 131443, Control_c, 14, 1, 29
14, 131504, Control_c, 14, 1, 30
14, 131632, Control_c, 14, 1, 31
14, 131739, Control_c, 14, 1, 32
14, 131861, Control_c, 14, 1, 33
14, 131960, Control_c, 14, 1, 34
14, 132084, Control_c, 14, 1, 35
14, 132276, Control_c, 14, 1, 36
14, 132540, Control_c, 14, 1, 37
14, 133091, Control_c, 14, 1, 36
14, 133134, Control_c, 14, 1, 37
14, 133284, Control_c, 14, 1, 38
14, 133730, Control_c, 14, 1, 39
14, 133948, Control_c, 14, 1, 40
14, 134300, Control_c, 14, 1, 41
14, 134739, Control_c, 14, 1, 42
14, 135033, Control_c, 14, 1, 43
14, 135216, Control_c, 14, 11, 120
14, 135521, Control_c, 14, 1, 44
14, 135544, Control_c, 14, 11, 115
14, 135630, Control_c, 14, 1, 45
14, 135936, Control_c, 14, 11, 110
14, 136018, Control_c, 14, 1, 46
14, 136312, Control_c, 14, 11, 105
14, 136358, Control_c, 14, 1, 47
14, 136528, Control_c, 14, 1, 48
14, 136704, Control_c, 14, 11, 100
14, 137088, Control_c, 14, 11, 95
14, 137120, Control_c, 14, 1, 49
14, 137436, Control_c, 14, 1, 50
14, 137464, Control_c, 14, 11, 90
14, 137760, Control_c, 14, 1, 51
14, 137864, Control_c, 14, 11, 85
14, 138248, Control_c, 14, 11, 80
14, 138358, Control_c, 14, 1, 52
14, 138616, Control_c, 14, 11, 75
14, 138645, Control_c, 14, 1, 53
14, 139000, Control_c, 14, 11, 70
14, 139237, Control_c, 14, 1, 54
14, 139392, Control_c, 14, 11, 65
14, 139483, Control_c, 14, 1, 55
14, 139784, Control_c, 14, 11, 60
14, 139817, Control_c, 14, 1, 56
14, 139912, Control_c, 14, 1, 55
14, 140160, Control_c, 14, 11, 55
14, 140175, Control_c, 14, 1, 56
14, 140536, Control_c, 14, 11, 50
14, 140936, Control_c, 14, 11, 45
14, 140955, Control_c, 14, 1, 57
14, 141312, Control_c, 14, 11, 40
14, 141435, Control_c, 14, 1, 58
14, 141624, Control_c, 14, 1, 59
14, 141696, Control_c, 14, 11, 35
14, 141870, Control_c, 14, 1, 58
14, 141975, Control_c, 14, 1, 59
14, 142072, Control_c, 14, 11, 30
14, 142075, Control_c, 14, 1, 60
14, 142099, Control_c, 14, 1, 61
14, 142146, Control_c, 14, 1, 62
14, 142187, Control_c, 14, 1, 63
14, 142221, Control_c, 14, 1, 64
14, 142245, Control_c, 14, 1, 65
14, 142275, Control_c, 14, 1, 66
14, 142315, Control_c, 14, 1, 67
14, 142339, Control_c, 14, 1, 68
14, 142427, Control_c, 14, 1, 69
14, 142450, Control_c, 14, 1, 70
14, 142472, Control_c, 14, 11, 25
14, 142491, Control_c, 14, 1, 71
14, 142544, Control_c, 14, 1, 72
14, 142592, Control_c, 14, 1, 71
14, 142603, Control_c, 14, 1, 70
14, 142616, Control_c, 14, 1, 69
14, 142626, Control_c, 14, 1, 68
14, 142632, Control_c, 14, 1, 67
14, 142637, Control_c, 14, 1, 66
14, 142638, Control_c, 14, 1, 65
14, 142645, Control_c, 14, 1, 63
14, 142645, Control_c, 14, 1, 64
14, 142650, Control_c, 14, 1, 59
14, 142650, Control_c, 14, 1, 61
14, 142655, Control_c, 14, 1, 54
14, 142655, Control_c, 14, 1, 56
14, 142657, Control_c, 14, 1, 47
14, 142657, Control_c, 14, 1, 51
14, 142667, Control_c, 14, 1, 41
14, 142667, Control_c, 14, 1, 44
14, 142673, Control_c, 14, 1, 37
14, 142674, Control_c, 14, 1, 33
14, 142680, Control_c, 14, 1, 23
14, 142680, Control_c, 14, 1, 28
14, 142684, Control_c, 14, 1, 17
14, 142686, Control_c, 14, 1, 11
14, 142691, Control_c, 14, 1, 2
14, 142691, Control_c, 14, 1, 7
14, 142697, Control_c, 14, 1, 0
14, 142840, Control_c, 14, 11, 20
14, 143232, Control_c, 14, 11, 15
14, 143616, Control_c, 14, 11, 10
14, 143992, Control_c, 14, 11, 5
14, 144096, Note_off_c, 14, 59, 64
14, 144344, Control_c, 14, 11, 0
14, 144384, Control_c, 14, 11, 127
14, 145920, End_track
15, 0, Start_track
15, 0, Title_t, "Melody"
15, 648, Control_c, 15, 121, 0
15, 720, Program_c, 15, 65
15, 768, Control_c, 15, 0, 0
15, 840, Control_c, 15, 32, 0
15, 888, Control_c, 15, 7, 127
15, 936, Control_c, 15, 10, 60
15, 1008, Control_c, 15, 1, 0
15, 1104, Control_c, 15, 91, 127
15, 1200, Control_c, 15, 93, 0
15, 1288, Control_c, 15, 2, 0
15, 13632, Note_on_c, 15, 66, 120
15, 13824, Note_on_c, 15, 69, 118
15, 13831, Note_off_c, 15, 66, 56
15, 13920, Note_off_c, 15, 69, 83
15, 14016, Note_on_c, 15, 69, 117
15, 14104, Note_off_c, 15, 69, 93
15, 14208, Note_on_c, 15, 69, 116
15, 14417, Pitch_bend_c, 15, 11404
15, 14422, Pitch_bend_c, 15, 16383
15, 14748, Pitch_bend_c, 15, 14295
15, 14754, Pitch_bend_c, 15, 11276
15, 14759, Pitch_bend_c, 15, 8192
15, 15136, Note_off_c, 15, 69, 102
15, 15168, Note_on_c, 15, 69, 115
15, 15328, Note_off_c, 15, 69, 97
15, 15360, Note_on_c, 15, 69, 115
15, 15552, Note_off_c, 15, 69, 76
15, 15552, Note_on_c, 15, 67, 115
15, 15744, Note_off_c, 15, 67, 67
15, 15744, Note_on_c, 15, 66, 113
15, 15936, Note_off_c, 15, 66, 52
15, 15936, Note_on_c, 15, 62, 111
15, 16536, Note_off_c, 15, 62, 127
15, 16896, Note_on_c, 15, 69, 109
15, 16992, Note_off_c, 15, 69, 94
15, 17088, Note_on_c, 15, 69, 108
15, 17184, Note_off_c, 15, 69, 90
15, 17280, Note_on_c, 15, 69, 106
15, 17477, Pitch_bend_c, 15, 11276
15, 17483, Pitch_bend_c, 15, 15580
15, 17489, Pitch_bend_c, 15, 16383
15, 17850, Pitch_bend_c, 15, 13492
15, 17856, Pitch_bend_c, 15, 10440
15, 17857, Pitch_bend_c, 15, 8192
15, 18240, Note_off_c, 15, 69, 69
15, 18240, Note_on_c, 15, 71, 115
15, 18432, Note_off_c, 15, 71, 74
15, 18432, Note_on_c, 15, 72, 115
15, 18640, Pitch_bend_c, 15, 10055
15, 18645, Pitch_bend_c, 15, 12561
15, 18651, Pitch_bend_c, 15, 16383
15, 18981, Pitch_bend_c, 15, 14360
15, 18984, Note_off_c, 15, 72, 86
15, 18990, Pitch_bend_c, 15, 11661
15, 18994, Pitch_bend_c, 15, 8192
15, 18995, Pitch_bend_c, 15, 8192
15, 18997, Pitch_bend_c, 15, 7934
15, 19008, Note_on_c, 15, 71, 110
15, 19584, Note_off_c, 15, 71, 127
15, 19776, Note_on_c, 15, 66, 110
15, 19776, Note_on_c, 15, 66, 110
15, 19968, Note_on_c, 15, 69, 110
15, 19984, Note_off_c, 15, 66, 52
15, 20012, Note_off_c, 15, 66, 80
15, 20085, Note_off_c, 15, 69, 60
15, 20160, Note_on_c, 15, 69, 111
15, 20530, Pitch_bend_c, 15, 9798
15, 20534, Pitch_bend_c, 15, 11276
15, 20541, Pitch_bend_c, 15, 13235
15, 20545, Pitch_bend_c, 15, 16383
15, 20916, Note_off_c, 15, 69, 72
15, 20928, Note_on_c, 15, 67, 116
15, 21311, Pitch_bend_c, 15, 13974
15, 21317, Pitch_bend_c, 15, 12175
15, 21322, Pitch_bend_c, 15, 10440
15, 21328, Pitch_bend_c, 15, 8192
15, 21512, Pitch_bend_c, 15, 8384
15, 21517, Pitch_bend_c, 15, 10376
15, 21523, Pitch_bend_c, 15, 13107
15, 21529, Pitch_bend_c, 15, 16383
15, 21694, Pitch_bend_c, 15, 14488
15, 21701, Pitch_bend_c, 15, 12528
15, 21707, Pitch_bend_c, 15, 10826
15, 21714, Pitch_bend_c, 15, 8192
15, 22080, Note_off_c, 15, 67, 127
15, 22656, Note_on_c, 15, 67, 116
15, 23040, Note_off_c, 15, 67, 83
15, 23040, Note_on_c, 15, 66, 116
15, 23232, Note_off_c, 15, 66, 53
15, 23232, Note_on_c, 15, 67, 116
15, 23346, Pitch_bend_c, 15, 10472
15, 23351, Pitch_bend_c, 15, 16030
15, 23357, Pitch_bend_c, 15, 16383
15, 23616, Note_off_c, 15, 67, 84
15, 23616, Note_on_c, 15, 74, 118
15, 23617, Pitch_bend_c, 15, 11468
15, 23623, Pitch_bend_c, 15, 6778
15, 23635, Pitch_bend_c, 15, 8384
15, 23639, Pitch_bend_c, 15, 8192
15, 24000, Note_off_c, 15, 74, 67
15, 24000, Note_on_c, 15, 69, 120
15, 24384, Note_off_c, 15, 69, 91
15, 24384, Note_on_c, 15, 67, 123
15, 24576, Note_off_c, 15, 67, 76
15, 24576, Note_on_c, 15, 66, 125
15, 24768, Note_off_c, 15, 66, 64
15, 24768, Note_on_c, 15, 67, 127
15, 24878, Pitch_bend_c, 15, 8416
15, 24883, Pitch_bend_c, 15, 9991
15, 24890, Pitch_bend_c, 15, 12239
15, 24895, Pitch_bend_c, 15, 16159
15, 24901, Pitch_bend_c, 15, 16383
15, 25139, Pitch_bend_c, 15, 13075
15, 25145, Pitch_bend_c, 15, 7228
15, 25150, Pitch_bend_c, 15, 4754
15, 25152, Note_off_c, 15, 67, 65
15, 25152, Note_on_c, 15, 71, 127
15, 25156, Pitch_bend_c, 15, 8192
15, 25168, Pitch_bend_c, 15, 7549
15, 25173, Pitch_bend_c, 15, 8192
15, 27264, Note_off_c, 15, 71, 127
15, 36672, Note_on_c, 15, 55, 113
15, 36864, Note_off_c, 15, 55, 52
15, 36864, Note_on_c, 15, 67, 127
15, 37056, Note_off_c, 15, 67, 94
15, 37056, Note_on_c, 15, 67, 127
15, 37248, Note_off_c, 15, 67, 96
15, 37248, Note_on_c, 15, 67, 127
15, 37440, Note_off_c, 15, 67, 68
15, 37440, Note_on_c, 15, 66, 127
15, 37824, Note_off_c, 15, 66, 83
15, 37824, Note_on_c, 15, 67, 127
15, 39264, Note_off_c, 15, 67, 93
15, 39360, Note_on_c, 15, 67, 127
15, 39552, Note_off_c, 15, 67, 64
15, 39552, Note_on_c, 15, 69, 127
15, 39894, Note_off_c, 15, 69, 64
15, 39936, Note_on_c, 15, 71, 127
15, 40250, Pitch_bend_c, 15, 10087
15, 40255, Pitch_bend_c, 15, 11597
15, 40261, Pitch_bend_c, 15, 11693
15, 40267, Pitch_bend_c, 15, 11886
15, 40273, Pitch_bend_c, 15, 11950
15, 40278, Pitch_bend_c, 15, 12047
15, 40291, Pitch_bend_c, 15, 12079
15, 40320, Pitch_bend_c, 15, 12047
15, 40338, Pitch_bend_c, 15, 12079
15, 40344, Pitch_bend_c, 15, 12047
15, 40361, Pitch_bend_c, 15, 12079
15, 40367, Pitch_bend_c, 15, 12111
15, 40374, Pitch_bend_c, 15, 12143
15, 40391, Pitch_bend_c, 15, 12175
15, 40480, Pitch_bend_c, 15, 12143
15, 40492, Pitch_bend_c, 15, 12047
15, 40498, Pitch_bend_c, 15, 11950
15, 40503, Pitch_bend_c, 15, 11757
15, 40509, Pitch_bend_c, 15, 11115
15, 40513, Pitch_bend_c, 15, 9830
15, 40522, Pitch_bend_c, 15, 7999
15, 40526, Pitch_bend_c, 15, 8192
15, 40673, Pitch_bend_c, 15, 5621
15, 40678, Pitch_bend_c, 15, 2666
15, 40684, Pitch_bend_c, 15, 0
15, 40688, Note_off_c, 15, 71, 70
15, 40704, Note_on_c, 15, 71, 127
15, 41070, Pitch_bend_c, 15, 8192
15, 41074, Pitch_bend_c, 15, 0
15, 41087, Pitch_bend_c, 15, 7067
15, 41088, Note_off_c, 15, 71, 70
15, 41088, Note_on_c, 15, 67, 120
15, 41089, Pitch_bend_c, 15, 8192
15, 41894, Control_c, 15, 1, 1
15, 41899, Control_c, 15, 1, 2
15, 41904, Control_c, 15, 1, 3
15, 41911, Control_c, 15, 1, 5
15, 41911, Control_c, 15, 1, 4
15, 41917, Control_c, 15, 1, 7
15, 41917, Control_c, 15, 1, 6
15, 41922, Control_c, 15, 1, 8
15, 41929, Control_c, 15, 1, 9
15, 41941, Control_c, 15, 1, 11
15, 41941, Control_c, 15, 1, 10
15, 41947, Control_c, 15, 1, 12
15, 41951, Control_c, 15, 1, 13
15, 41957, Control_c, 15, 1, 14
15, 41964, Control_c, 15, 1, 15
15, 41965, Control_c, 15, 1, 16
15, 41976, Control_c, 15, 1, 18
15, 41976, Control_c, 15, 1, 17
15, 41987, Control_c, 15, 1, 19
15, 41988, Control_c, 15, 1, 20
15, 41994, Control_c, 15, 1, 22
15, 41995, Control_c, 15, 1, 23
15, 42001, Control_c, 15, 1, 24
15, 42005, Control_c, 15, 1, 26
15, 42007, Control_c, 15, 1, 27
15, 42011, Control_c, 15, 1, 28
15, 42017, Control_c, 15, 1, 29
15, 42018, Control_c, 15, 1, 30
15, 42024, Control_c, 15, 1, 31
15, 42030, Control_c, 15, 1, 32
15, 42036, Control_c, 15, 1, 33
15, 42041, Control_c, 15, 1, 34
15, 42047, Control_c, 15, 1, 35
15, 42049, Control_c, 15, 1, 39
15, 42049, Control_c, 15, 1, 38
15, 42049, Control_c, 15, 1, 36
15, 42058, Control_c, 15, 1, 40
15, 42064, Control_c, 15, 1, 41
15, 42065, Control_c, 15, 1, 42
15, 42071, Control_c, 15, 1, 43
15, 42076, Control_c, 15, 1, 44
15, 42083, Control_c, 15, 1, 46
15, 42083, Control_c, 15, 1, 45
15, 42090, Control_c, 15, 1, 47
15, 42101, Control_c, 15, 1, 48
15, 42106, Control_c, 15, 1, 49
15, 42113, Control_c, 15, 1, 50
15, 42124, Control_c, 15, 1, 51
15, 42142, Control_c, 15, 1, 52
15, 42153, Control_c, 15, 1, 53
15, 42154, Control_c, 15, 1, 54
15, 42166, Control_c, 15, 1, 55
15, 42177, Control_c, 15, 1, 56
15, 42185, Control_c, 15, 1, 57
15, 42196, Control_c, 15, 1, 58
15, 42206, Control_c, 15, 1, 59
15, 42213, Control_c, 15, 1, 60
15, 42224, Control_c, 15, 1, 61
15, 42238, Control_c, 15, 1, 62
15, 42249, Control_c, 15, 1, 63
15, 42266, Control_c, 15, 1, 64
15, 42285, Control_c, 15, 1, 65
15, 42302, Control_c, 15, 1, 66
15, 42331, Control_c, 15, 1, 67
15, 42355, Control_c, 15, 1, 68
15, 42421, Control_c, 15, 1, 69
15, 42444, Control_c, 15, 1, 68
15, 42451, Control_c, 15, 1, 67
15, 42456, Control_c, 15, 1, 65
15, 42457, Control_c, 15, 1, 63
15, 42462, Control_c, 15, 1, 60
15, 42462, Control_c, 15, 1, 62
15, 42467, Control_c, 15, 1, 58
15, 42468, Control_c, 15, 1, 57
15, 42473, Control_c, 15, 1, 55
15, 42474, Control_c, 15, 1, 52
15, 42479, Control_c, 15, 1, 48
15, 42479, Control_c, 15, 1, 50
15, 42486, Control_c, 15, 1, 43
15, 42486, Control_c, 15, 1, 45
15, 42491, Control_c, 15, 1, 39
15, 42491, Control_c, 15, 1, 41
15, 42497, Control_c, 15, 1, 37
15, 42497, Control_c, 15, 1, 38
15, 42503, Control_c, 15, 1, 36
15, 42514, Control_c, 15, 1, 35
15, 42522, Control_c, 15, 1, 32
15, 42522, Control_c, 15, 1, 33
15, 42527, Control_c, 15, 1, 25
15, 42527, Control_c, 15, 1, 28
15, 42533, Control_c, 15, 1, 12
15, 42533, Control_c, 15, 1, 19
15, 42539, Control_c, 15, 1, 6
15, 42540, Control_c, 15, 1, 0
15, 42641, Note_off_c, 15, 67, 127
15, 42816, Note_on_c, 15, 55, 113
15, 43008, Note_off_c, 15, 55, 52
15, 43008, Note_on_c, 15, 67, 127
15, 43200, Note_off_c, 15, 67, 94
15, 43200, Note_on_c, 15, 67, 127
15, 43392, Note_off_c, 15, 67, 96
15, 43392, Note_on_c, 15, 67, 127
15, 43584, Note_off_c, 15, 67, 68
15, 43584, Note_on_c, 15, 66, 127
15, 43968, Note_off_c, 15, 66, 83
15, 43968, Note_on_c, 15, 67, 127
15, 45408, Note_off_c, 15, 67, 93
15, 45504, Note_on_c, 15, 67, 127
15, 45696, Note_off_c, 15, 67, 64
15, 45696, Note_on_c, 15, 69, 127
15, 45984, Note_off_c, 15, 69, 64
15, 46080, Note_on_c, 15, 71, 127
15, 46394, Pitch_bend_c, 15, 10087
15, 46399, Pitch_bend_c, 15, 11597
15, 46405, Pitch_bend_c, 15, 11693
15, 46411, Pitch_bend_c, 15, 11886
15, 46417, Pitch_bend_c, 15, 11950
15, 46422, Pitch_bend_c, 15, 12047
15, 46435, Pitch_bend_c, 15, 12079
15, 46464, Pitch_bend_c, 15, 12047
15, 46482, Pitch_bend_c, 15, 12079
15, 46488, Pitch_bend_c, 15, 12047
15, 46505, Pitch_bend_c, 15, 12079
15, 46511, Pitch_bend_c, 15, 12111
15, 46518, Pitch_bend_c, 15, 12143
15, 46535, Pitch_bend_c, 15, 12175
15, 46624, Pitch_bend_c, 15, 12143
15, 46636, Pitch_bend_c, 15, 12047
15, 46642, Pitch_bend_c, 15, 11950
15, 46647, Pitch_bend_c, 15, 11757
15, 46653, Pitch_bend_c, 15, 11115
15, 46657, Pitch_bend_c, 15, 9830
15, 46666, Pitch_bend_c, 15, 7999
15, 46670, Pitch_bend_c, 15, 8192
15, 46817, Pitch_bend_c, 15, 5621
15, 46822, Pitch_bend_c, 15, 2666
15, 46828, Pitch_bend_c, 15, 0
15, 46832, Note_off_c, 15, 71, 70
15, 46848, Note_on_c, 15, 71, 127
15, 47231, Pitch_bend_c, 15, 7067
15, 47232, Note_off_c, 15, 71, 70
15, 47232, Note_on_c, 15, 67, 127
15, 47233, Pitch_bend_c, 15, 8192
15, 47403, Pitch_bend_c, 15, 8449
15, 47409, Pitch_bend_c, 15, 9669
15, 47414, Pitch_bend_c, 15, 10922
15, 47420, Pitch_bend_c, 15, 12143
15, 47426, Pitch_bend_c, 15, 13267
15, 47431, Pitch_bend_c, 15, 14809
15, 47437, Pitch_bend_c, 15, 16383
15, 47592, Pitch_bend_c, 15, 15195
15, 47597, Pitch_bend_c, 15, 13107
15, 47603, Pitch_bend_c, 15, 11533
15, 47610, Pitch_bend_c, 15, 9798
15, 47616, Pitch_bend_c, 15, 8192
15, 48038, Control_c, 15, 1, 1
15, 48043, Control_c, 15, 1, 2
15, 48048, Control_c, 15, 1, 3
15, 48055, Control_c, 15, 1, 5
15, 48055, Control_c, 15, 1, 4
15, 48061, Control_c, 15, 1, 7
15, 48061, Control_c, 15, 1, 6
15, 48066, Control_c, 15, 1, 8
15, 48073, Control_c, 15, 1, 9
15, 48085, Control_c, 15, 1, 11
15, 48085, Control_c, 15, 1, 10
15, 48091, Control_c, 15, 1, 12
15, 48095, Control_c, 15, 1, 13
15, 48101, Control_c, 15, 1, 14
15, 48108, Control_c, 15, 1, 15
15, 48109, Control_c, 15, 1, 16
15, 48120, Control_c, 15, 1, 18
15, 48120, Control_c, 15, 1, 17
15, 48131, Control_c, 15, 1, 19
15, 48132, Control_c, 15, 1, 20
15, 48138, Control_c, 15, 1, 22
15, 48139, Control_c, 15, 1, 23
15, 48145, Control_c, 15, 1, 24
15, 48149, Control_c, 15, 1, 26
15, 48151, Control_c, 15, 1, 27
15, 48155, Control_c, 15, 1, 28
15, 48161, Control_c, 15, 1, 29
15, 48162, Control_c, 15, 1, 30
15, 48168, Control_c, 15, 1, 31
15, 48174, Control_c, 15, 1, 32
15, 48180, Control_c, 15, 1, 33
15, 48185, Control_c, 15, 1, 34
15, 48191, Control_c, 15, 1, 35
15, 48193, Control_c, 15, 1, 39
15, 48193, Control_c, 15, 1, 38
15, 48193, Control_c, 15, 1, 36
15, 48202, Control_c, 15, 1, 40
15, 48208, Control_c, 15, 1, 41
15, 48209, Control_c, 15, 1, 42
15, 48215, Control_c, 15, 1, 43
15, 48220, Control_c, 15, 1, 44
15, 48227, Control_c, 15, 1, 46
15, 48227, Control_c, 15, 1, 45
15, 48234, Control_c, 15, 1, 47
15, 48245, Control_c, 15, 1, 48
15, 48250, Control_c, 15, 1, 49
15, 48257, Control_c, 15, 1, 50
15, 48268, Control_c, 15, 1, 51
15, 48286, Control_c, 15, 1, 52
15, 48297, Control_c, 15, 1, 53
15, 48298, Control_c, 15, 1, 54
15, 48310, Control_c, 15, 1, 55
15, 48321, Control_c, 15, 1, 56
15, 48329, Control_c, 15, 1, 57
15, 48340, Control_c, 15, 1, 58
15, 48350, Control_c, 15, 1, 59
15, 48357, Control_c, 15, 1, 60
15, 48368, Control_c, 15, 1, 61
15, 48382, Control_c, 15, 1, 62
15, 48393, Control_c, 15, 1, 63
15, 48410, Control_c, 15, 1, 64
15, 48429, Control_c, 15, 1, 65
15, 48446, Control_c, 15, 1, 66
15, 48475, Control_c, 15, 1, 67
15, 48499, Control_c, 15, 1, 68
15, 48565, Control_c, 15, 1, 69
15, 48588, Control_c, 15, 1, 68
15, 48595, Control_c, 15, 1, 67
15, 48600, Control_c, 15, 1, 65
15, 48601, Control_c, 15, 1, 63
15, 48606, Control_c, 15, 1, 60
15, 48606, Control_c, 15, 1, 62
15, 48611, Control_c, 15, 1, 58
15, 48612, Control_c, 15, 1, 57
15, 48617, Control_c, 15, 1, 55
15, 48618, Control_c, 15, 1, 52
15, 48623, Control_c, 15, 1, 48
15, 48623, Control_c, 15, 1, 50
15, 48630, Control_c, 15, 1, 43
15, 48630, Control_c, 15, 1, 45
15, 48635, Control_c, 15, 1, 39
15, 48635, Control_c, 15, 1, 41
15, 48641, Control_c, 15, 1, 37
15, 48641, Control_c, 15, 1, 38
15, 48647, Control_c, 15, 1, 36
15, 48658, Control_c, 15, 1, 35
15, 48666, Control_c, 15, 1, 32
15, 48666, Control_c, 15, 1, 33
15, 48671, Control_c, 15, 1, 25
15, 48671, Control_c, 15, 1, 28
15, 48677, Control_c, 15, 1, 12
15, 48677, Control_c, 15, 1, 19
15, 48683, Control_c, 15, 1, 6
15, 48684, Control_c, 15, 1, 0
15, 49184, Note_off_c, 15, 67, 127
15, 49824, Note_on_c, 15, 54, 93
15, 49920, Note_on_c, 15, 66, 123
15, 49936, Note_off_c, 15, 54, 60
15, 50113, Pitch_bend_c, 15, 12207
15, 50113, Pitch_bend_c, 15, 11147
15, 50125, Pitch_bend_c, 15, 12271
15, 50131, Pitch_bend_c, 15, 12400
15, 50138, Pitch_bend_c, 15, 12432
15, 50143, Pitch_bend_c, 15, 12464
15, 50171, Pitch_bend_c, 15, 12432
15, 50179, Pitch_bend_c, 15, 12464
15, 50184, Pitch_bend_c, 15, 12432
15, 50195, Pitch_bend_c, 15, 12464
15, 50236, Pitch_bend_c, 15, 12496
15, 50277, Pitch_bend_c, 15, 12528
15, 50288, Pitch_bend_c, 15, 12561
15, 50294, Pitch_bend_c, 15, 12528
15, 50300, Pitch_bend_c, 15, 12561
15, 50346, Pitch_bend_c, 15, 12593
15, 50370, Pitch_bend_c, 15, 12625
15, 50387, Pitch_bend_c, 15, 12657
15, 50428, Pitch_bend_c, 15, 12689
15, 50457, Pitch_bend_c, 15, 12721
15, 50463, Pitch_bend_c, 15, 12689
15, 50474, Pitch_bend_c, 15, 12593
15, 50480, Pitch_bend_c, 15, 12464
15, 50485, Pitch_bend_c, 15, 12014
15, 50493, Pitch_bend_c, 15, 10762
15, 50497, Pitch_bend_c, 15, 9059
15, 50504, Pitch_bend_c, 15, 8192
15, 50880, Note_off_c, 15, 66, 56
15, 50880, Note_on_c, 15, 64, 108
15, 51040, Note_off_c, 15, 64, 77
15, 51072, Note_on_c, 15, 64, 123
15, 51462, Pitch_bend_c, 15, 8673
15, 51466, Pitch_bend_c, 15, 12496
15, 51473, Pitch_bend_c, 15, 16383
15, 51630, Pitch_bend_c, 15, 14874
15, 51635, Pitch_bend_c, 15, 11083
15, 51641, Pitch_bend_c, 15, 8192
15, 51840, Note_on_c, 15, 62, 123
15, 51856, Note_off_c, 15, 64, 68
15, 51968, Note_off_c, 15, 62, 93
15, 52032, Note_on_c, 15, 62, 127
15, 53000, Control_c, 15, 1, 1
15, 53023, Control_c, 15, 1, 2
15, 53048, Control_c, 15, 1, 3
15, 53078, Control_c, 15, 1, 4
15, 53124, Control_c, 15, 1, 5
15, 53182, Control_c, 15, 1, 4
15, 53201, Control_c, 15, 1, 3
15, 53212, Control_c, 15, 1, 2
15, 53225, Control_c, 15, 1, 1
15, 53235, Control_c, 15, 1, 0
15, 53568, Control_c, 15, 5, 62
15, 53608, Control_c, 15, 84, 72
15, 53696, Note_on_c, 15, 74, 127
15, 53760, Note_off_c, 15, 62, 85
15, 56206, Control_c, 15, 1, 1
15, 56230, Control_c, 15, 1, 2
15, 56255, Control_c, 15, 1, 3
15, 56291, Control_c, 15, 1, 4
15, 56414, Control_c, 15, 1, 3
15, 56415, Control_c, 15, 1, 2
15, 56427, Control_c, 15, 1, 1
15, 56444, Control_c, 15, 1, 0
15, 56804, Pitch_bend_c, 15, 8770
15, 56810, Pitch_bend_c, 15, 9862
15, 56815, Pitch_bend_c, 15, 10729
15, 56821, Pitch_bend_c, 15, 11597
15, 56827, Pitch_bend_c, 15, 12336
15, 56831, Pitch_bend_c, 15, 13010
15, 56833, Pitch_bend_c, 15, 13524
15, 56844, Pitch_bend_c, 15, 14488
15, 56851, Pitch_bend_c, 15, 15773
15, 56855, Pitch_bend_c, 15, 16383
15, 58160, Note_off_c, 15, 74, 127
15, 58219, Pitch_bend_c, 15, 6649
15, 58224, Pitch_bend_c, 15, 5107
15, 58230, Pitch_bend_c, 15, 6906
15, 58236, Pitch_bend_c, 15, 8930
15, 58242, Pitch_bend_c, 15, 8192
15, 58247, Pitch_bend_c, 15, 7485
15, 58253, Pitch_bend_c, 15, 8192
15, 81415, Note_on_c, 15, 57, 103
15, 81498, Note_off_c, 15, 57, 96
15, 81615, Note_on_c, 15, 57, 123
15, 81778, Note_off_c, 15, 57, 78
15, 81930, Note_on_c, 15, 57, 126
15, 81973, Pitch_bend_c, 15, 9798
15, 81979, Pitch_bend_c, 15, 11790
15, 81986, Pitch_bend_c, 15, 13139
15, 81992, Pitch_bend_c, 15, 14167
15, 81996, Pitch_bend_c, 15, 15580
15, 82003, Pitch_bend_c, 15, 16383
15, 82520, Pitch_bend_c, 15, 15645
15, 82526, Pitch_bend_c, 15, 14103
15, 82531, Pitch_bend_c, 15, 12978
15, 82537, Pitch_bend_c, 15, 11950
15, 82543, Pitch_bend_c, 15, 10440
15, 82549, Pitch_bend_c, 15, 8192
15, 82698, Note_off_c, 15, 57, 46
15, 82710, Note_on_c, 15, 55, 116
15, 82829, Note_on_c, 15, 54, 121
15, 82849, Note_off_c, 15, 55, 59
15, 82948, Note_off_c, 15, 54, 50
15, 82981, Note_on_c, 15, 55, 127
15, 83361, Note_off_c, 15, 55, 127
15, 84274, Note_on_c, 15, 50, 115
15, 84474, Note_off_c, 15, 50, 58
15, 84483, Note_on_c, 15, 57, 121
15, 84567, Note_off_c, 15, 57, 97
15, 84668, Note_on_c, 15, 57, 121
15, 84754, Note_off_c, 15, 57, 97
15, 84850, Note_on_c, 15, 57, 121
15, 85054, Pitch_bend_c, 15, 8706
15, 85060, Pitch_bend_c, 15, 11083
15, 85066, Pitch_bend_c, 15, 13846
15, 85071, Pitch_bend_c, 15, 16383
15, 85397, Pitch_bend_c, 15, 14938
15, 85404, Pitch_bend_c, 15, 12143
15, 85410, Pitch_bend_c, 15, 9380
15, 85415, Pitch_bend_c, 15, 8192
15, 85810, Note_off_c, 15, 57, 33
15, 85820, Note_on_c, 15, 59, 121
15, 86002, Note_on_c, 15, 60, 125
15, 86038, Note_off_c, 15, 59, 74
15, 86225, Pitch_bend_c, 15, 9348
15, 86231, Pitch_bend_c, 15, 11822
15, 86237, Pitch_bend_c, 15, 15323
15, 86243, Pitch_bend_c, 15, 16383
15, 86579, Note_on_c, 15, 57, 126
15, 86582, Note_off_c, 15, 60, 75
15, 87055, Note_off_c, 15, 57, 127
15, 87060, Pitch_bend_c, 15, 13524
15, 87065, Pitch_bend_c, 15, 10954
15, 87071, Pitch_bend_c, 15, 8192
15, 87078, Pitch_bend_c, 15, 7645
15, 87084, Pitch_bend_c, 15, 8192
15, 87367, Note_on_c, 15, 54, 127
15, 87559, Note_off_c, 15, 54, 55
15, 87572, Note_on_c, 15, 57, 127
15, 87732, Note_off_c, 15, 57, 99
15, 87759, Note_on_c, 15, 57, 127
15, 87919, Note_off_c, 15, 57, 93
15, 87936, Note_on_c, 15, 57, 126
15, 88116, Pitch_bend_c, 15, 9027
15, 88122, Pitch_bend_c, 15, 10055
15, 88128, Pitch_bend_c, 15, 11179
15, 88134, Pitch_bend_c, 15, 12175
15, 88141, Pitch_bend_c, 15, 13075
15, 88147, Pitch_bend_c, 15, 14038
15, 88152, Pitch_bend_c, 15, 15323
15, 88158, Pitch_bend_c, 15, 16383
15, 88512, Note_off_c, 15, 57, 97
15, 88832, Pitch_bend_c, 15, 15773
15, 88839, Pitch_bend_c, 15, 13428
15, 88845, Pitch_bend_c, 15, 11500
15, 88850, Pitch_bend_c, 15, 7967
15, 88856, Pitch_bend_c, 15, 8192
15, 88865, Note_on_c, 15, 57, 125
15, 89072, Note_on_c, 15, 55, 123
15, 89113, Note_off_c, 15, 57, 70
15, 89274, Note_on_c, 15, 57, 123
15, 89278, Note_off_c, 15, 55, 63
15, 89460, Note_on_c, 15, 55, 121
15, 89470, Note_off_c, 15, 57, 76
15, 89856, Note_off_c, 15, 55, 127
15, 90432, Note_on_c, 15, 62, 123
15, 90624, Note_off_c, 15, 62, 59
15, 90624, Note_on_c, 15, 66, 127
15, 90816, Note_off_c, 15, 66, 37
15, 90816, Note_on_c, 15, 67, 127
15, 90935, Pitch_bend_c, 15, 9573
15, 90941, Pitch_bend_c, 15, 12239
15, 90947, Pitch_bend_c, 15, 15902
15, 90953, Pitch_bend_c, 15, 16383
15, 91200, Note_off_c, 15, 67, 84
15, 91200, Note_on_c, 15, 74, 127
15, 91207, Pitch_bend_c, 15, 8192
15, 91211, Pitch_bend_c, 15, 3501
15, 91219, Pitch_bend_c, 15, 8192
15, 91224, Pitch_bend_c, 15, 9509
15, 91230, Pitch_bend_c, 15, 8192
15, 91584, Note_off_c, 15, 74, 66
15, 91584, Note_on_c, 15, 67, 127
15, 91968, Note_off_c, 15, 67, 76
15, 91968, Note_on_c, 15, 66, 127
15, 92160, Note_off_c, 15, 66, 67
15, 92160, Note_on_c, 15, 67, 127
15, 92352, Note_off_c, 15, 67, 88
15, 92352, Note_on_c, 15, 66, 127
15, 92736, Note_off_c, 15, 66, 60
15, 92736, Note_on_c, 15, 67, 127
15, 94656, Note_off_c, 15, 67, 120
15, 94656, Note_on_c, 15, 66, 127
15, 94848, Note_off_c, 15, 66, 86
15, 94848, Note_on_c, 15, 64, 127
15, 95040, Note_off_c, 15, 64, 17
15, 95040, Note_on_c, 15, 62, 127
15, 95808, Note_off_c, 15, 62, 127
15, 98880, Note_on_c, 15, 62, 127
15, 99072, Note_off_c, 15, 62, 50
15, 99072, Note_on_c, 15, 66, 127
15, 99264, Note_off_c, 15, 66, 56
15, 99264, Note_on_c, 15, 67, 127
15, 99456, Note_off_c, 15, 67, 70
15, 99456, Note_on_c, 15, 69, 127
15, 99840, Note_off_c, 15, 69, 76
15, 99840, Note_on_c, 15, 74, 127
15, 102528, Note_off_c, 15, 74, 127
15, 102543, Note_on_c, 15, 69, 127
15, 102913, Note_on_c, 15, 78, 127
15, 102927, Note_off_c, 15, 69, 59
15, 103812, Control_c, 15, 1, 1
15, 103823, Control_c, 15, 1, 2
15, 103828, Control_c, 15, 1, 3
15, 103829, Control_c, 15, 1, 4
15, 103833, Control_c, 15, 1, 5
15, 103835, Control_c, 15, 1, 6
15, 103839, Control_c, 15, 1, 7
15, 103846, Control_c, 15, 1, 8
15, 103852, Control_c, 15, 1, 10
15, 103852, Control_c, 15, 1, 9
15, 103858, Control_c, 15, 1, 11
15, 103863, Control_c, 15, 1, 13
15, 103863, Control_c, 15, 1, 12
15, 103869, Control_c, 15, 1, 14
15, 103870, Control_c, 15, 1, 15
15, 103873, Control_c, 15, 1, 16
15, 103882, Control_c, 15, 1, 17
15, 103886, Control_c, 15, 1, 18
15, 103892, Control_c, 15, 1, 19
15, 103899, Control_c, 15, 1, 21
15, 103899, Control_c, 15, 1, 20
15, 103905, Control_c, 15, 1, 22
15, 103911, Control_c, 15, 1, 23
15, 103912, Control_c, 15, 1, 24
15, 103918, Control_c, 15, 1, 25
15, 103922, Control_c, 15, 1, 26
15, 103928, Control_c, 15, 1, 27
15, 103935, Control_c, 15, 1, 29
15, 103935, Control_c, 15, 1, 28
15, 103941, Control_c, 15, 1, 30
15, 103947, Control_c, 15, 1, 31
15, 103952, Control_c, 15, 1, 32
15, 103955, Control_c, 15, 1, 33
15, 103958, Control_c, 15, 1, 34
15, 103965, Control_c, 15, 1, 35
15, 103970, Control_c, 15, 1, 37
15, 103970, Control_c, 15, 1, 36
15, 103977, Control_c, 15, 1, 38
15, 103982, Control_c, 15, 1, 39
15, 103988, Control_c, 15, 1, 40
15, 103994, Control_c, 15, 1, 41
15, 104000, Control_c, 15, 1, 42
15, 104005, Control_c, 15, 1, 43
15, 104011, Control_c, 15, 1, 44
15, 104012, Control_c, 15, 1, 45
15, 104018, Control_c, 15, 1, 46
15, 104024, Control_c, 15, 1, 47
15, 104037, Control_c, 15, 1, 48
15, 104053, Control_c, 15, 1, 49
15, 104063, Control_c, 15, 1, 51
15, 104063, Control_c, 15, 1, 50
15, 104065, Control_c, 15, 1, 52
15, 104094, Control_c, 15, 1, 53
15, 104113, Control_c, 15, 1, 54
15, 104147, Control_c, 15, 1, 55
15, 104189, Control_c, 15, 1, 56
15, 104236, Control_c, 15, 1, 57
15, 104291, Control_c, 15, 1, 58
15, 104332, Control_c, 15, 1, 59
15, 104384, Control_c, 15, 1, 60
15, 104408, Control_c, 15, 1, 61
15, 104438, Control_c, 15, 1, 62
15, 104463, Control_c, 15, 1, 63
15, 104497, Control_c, 15, 1, 64
15, 104527, Control_c, 15, 1, 65
15, 104575, Control_c, 15, 1, 66
15, 104597, Control_c, 15, 1, 67
15, 104620, Control_c, 15, 1, 68
15, 104651, Control_c, 15, 1, 69
15, 104675, Control_c, 15, 1, 70
15, 104769, Control_c, 15, 1, 71
15, 104805, Control_c, 15, 1, 72
15, 104841, Control_c, 15, 1, 73
15, 104876, Control_c, 15, 1, 74
15, 104911, Control_c, 15, 1, 75
15, 104934, Control_c, 15, 1, 76
15, 104952, Control_c, 15, 1, 77
15, 104993, Control_c, 15, 1, 78
15, 105095, Control_c, 15, 1, 79
15, 105214, Control_c, 15, 1, 80
15, 105309, Control_c, 15, 1, 81
15, 105426, Control_c, 15, 1, 82
15, 105568, Control_c, 15, 1, 83
15, 105693, Control_c, 15, 1, 82
15, 105704, Control_c, 15, 1, 83
15, 105723, Control_c, 15, 1, 81
15, 105729, Control_c, 15, 1, 77
15, 105729, Control_c, 15, 1, 79
15, 105734, Control_c, 15, 1, 74
15, 105735, Control_c, 15, 1, 71
15, 105740, Control_c, 15, 1, 63
15, 105740, Control_c, 15, 1, 67
15, 105746, Control_c, 15, 1, 57
15, 105747, Control_c, 15, 1, 50
15, 105752, Control_c, 15, 1, 20
15, 105752, Control_c, 15, 1, 28
15, 105752, Control_c, 15, 1, 36
15, 105752, Control_c, 15, 1, 43
15, 105759, Control_c, 15, 1, 2
15, 105759, Control_c, 15, 1, 11
15, 105770, Control_c, 15, 1, 0
15, 105984, Note_off_c, 15, 78, 88
15, 105984, Note_on_c, 15, 79, 127
15, 106032, Control_c, 15, 1, 2
15, 106035, Control_c, 15, 1, 3
15, 106036, Control_c, 15, 1, 5
15, 106043, Control_c, 15, 1, 8
15, 106043, Control_c, 15, 1, 7
15, 106048, Control_c, 15, 1, 14
15, 106048, Control_c, 15, 1, 11
15, 106054, Control_c, 15, 1, 18
15, 106054, Control_c, 15, 1, 16
15, 106060, Control_c, 15, 1, 20
15, 106061, Control_c, 15, 1, 22
15, 106065, Control_c, 15, 1, 24
15, 106067, Control_c, 15, 1, 26
15, 106071, Control_c, 15, 1, 28
15, 106073, Control_c, 15, 1, 30
15, 106078, Control_c, 15, 1, 33
15, 106078, Control_c, 15, 1, 32
15, 106083, Control_c, 15, 1, 37
15, 106083, Control_c, 15, 1, 35
15, 106090, Control_c, 15, 1, 41
15, 106090, Control_c, 15, 1, 39
15, 106096, Control_c, 15, 1, 42
15, 106097, Control_c, 15, 1, 44
15, 106101, Control_c, 15, 1, 46
15, 106103, Control_c, 15, 1, 48
15, 106107, Control_c, 15, 1, 49
15, 106108, Control_c, 15, 1, 51
15, 106112, Control_c, 15, 1, 53
15, 106112, Control_c, 15, 1, 52
15, 106119, Control_c, 15, 1, 55
15, 106119, Control_c, 15, 1, 54
15, 106124, Control_c, 15, 1, 56
15, 106125, Control_c, 15, 1, 57
15, 106130, Control_c, 15, 1, 58
15, 106131, Control_c, 15, 1, 59
15, 106137, Control_c, 15, 1, 60
15, 106143, Control_c, 15, 1, 61
15, 106144, Control_c, 15, 1, 62
15, 106146, Control_c, 15, 1, 63
15, 106154, Control_c, 15, 1, 64
15, 106160, Control_c, 15, 1, 65
15, 106166, Control_c, 15, 1, 66
15, 106173, Control_c, 15, 1, 67
15, 106179, Control_c, 15, 1, 68
15, 106183, Control_c, 15, 1, 69
15, 106190, Control_c, 15, 1, 70
15, 106196, Control_c, 15, 1, 71
15, 106202, Control_c, 15, 1, 72
15, 106213, Control_c, 15, 1, 73
15, 106226, Control_c, 15, 1, 74
15, 106233, Control_c, 15, 1, 75
15, 106249, Control_c, 15, 1, 76
15, 106268, Control_c, 15, 1, 77
15, 106287, Control_c, 15, 1, 78
15, 106315, Control_c, 15, 1, 79
15, 106362, Control_c, 15, 1, 80
15, 106451, Control_c, 15, 1, 81
15, 106504, Control_c, 15, 1, 82
15, 106582, Control_c, 15, 1, 83
15, 106635, Control_c, 15, 1, 84
15, 106659, Control_c, 15, 1, 85
15, 106682, Control_c, 15, 1, 86
15, 106742, Control_c, 15, 1, 87
15, 106807, Control_c, 15, 1, 89
15, 106841, Control_c, 15, 1, 91
15, 106901, Control_c, 15, 1, 93
15, 106954, Control_c, 15, 1, 95
15, 107168, Control_c, 15, 1, 97
15, 107257, Control_c, 15, 1, 95
15, 107297, Control_c, 15, 1, 97
15, 107310, Control_c, 15, 1, 99
15, 107326, Control_c, 15, 1, 101
15, 107404, Control_c, 15, 1, 103
15, 107414, Control_c, 15, 1, 99
15, 107415, Control_c, 15, 1, 95
15, 107420, Control_c, 15, 1, 86
15, 107420, Control_c, 15, 1, 91
15, 107427, Control_c, 15, 1, 74
15, 107427, Control_c, 15, 1, 80
15, 107433, Control_c, 15, 1, 59
15, 107433, Control_c, 15, 1, 67
15, 107439, Control_c, 15, 1, 40
15, 107439, Control_c, 15, 1, 49
15, 107445, Control_c, 15, 1, 32
15, 107446, Control_c, 15, 1, 25
15, 107450, Control_c, 15, 1, 15
15, 107452, Control_c, 15, 1, 3
15, 107456, Control_c, 15, 1, 0
15, 107520, Note_off_c, 15, 79, 127
15, 118080, Note_on_c, 15, 55, 126
15, 118272, Note_off_c, 15, 55, 52
15, 118272, Note_on_c, 15, 67, 127
15, 118464, Note_off_c, 15, 67, 94
15, 118464, Note_on_c, 15, 67, 127
15, 118656, Note_off_c, 15, 67, 96
15, 118656, Note_on_c, 15, 67, 127
15, 118848, Note_off_c, 15, 67, 68
15, 118848, Note_on_c, 15, 66, 127
15, 119232, Note_off_c, 15, 66, 83
15, 119232, Note_on_c, 15, 67, 127
15, 120672, Note_off_c, 15, 67, 93
15, 120768, Note_on_c, 15, 67, 127
15, 120960, Note_off_c, 15, 67, 64
15, 120960, Note_on_c, 15, 69, 127
15, 121302, Note_off_c, 15, 69, 64
15, 121344, Note_on_c, 15, 71, 127
15, 121658, Pitch_bend_c, 15, 10087
15, 121663, Pitch_bend_c, 15, 11597
15, 121669, Pitch_bend_c, 15, 11693
15, 121675, Pitch_bend_c, 15, 11886
15, 121681, Pitch_bend_c, 15, 11950
15, 121686, Pitch_bend_c, 15, 12047
15, 121699, Pitch_bend_c, 15, 12079
15, 121728, Pitch_bend_c, 15, 12047
15, 121746, Pitch_bend_c, 15, 12079
15, 121752, Pitch_bend_c, 15, 12047
15, 121769, Pitch_bend_c, 15, 12079
15, 121775, Pitch_bend_c, 15, 12111
15, 121782, Pitch_bend_c, 15, 12143
15, 121799, Pitch_bend_c, 15, 12175
15, 121888, Pitch_bend_c, 15, 12143
15, 121900, Pitch_bend_c, 15, 12047
15, 121906, Pitch_bend_c, 15, 11950
15, 121911, Pitch_bend_c, 15, 11757
15, 121917, Pitch_bend_c, 15, 11115
15, 121921, Pitch_bend_c, 15, 9830
15, 121930, Pitch_bend_c, 15, 7999
15, 121934, Pitch_bend_c, 15, 8192
15, 122081, Pitch_bend_c, 15, 5621
15, 122086, Pitch_bend_c, 15, 2666
15, 122092, Pitch_bend_c, 15, 0
15, 122096, Note_off_c, 15, 71, 70
15, 122112, Note_on_c, 15, 71, 127
15, 122480, Note_on_c, 15, 67, 127
15, 122495, Pitch_bend_c, 15, 2795
15, 122496, Note_off_c, 15, 71, 70
15, 122497, Pitch_bend_c, 15, 8192
15, 123302, Control_c, 15, 1, 1
15, 123307, Control_c, 15, 1, 2
15, 123312, Control_c, 15, 1, 3
15, 123319, Control_c, 15, 1, 5
15, 123319, Control_c, 15, 1, 4
15, 123325, Control_c, 15, 1, 7
15, 123325, Control_c, 15, 1, 6
15, 123330, Control_c, 15, 1, 8
15, 123337, Control_c, 15, 1, 9
15, 123349, Control_c, 15, 1, 11
15, 123349, Control_c, 15, 1, 10
15, 123355, Control_c, 15, 1, 12
15, 123359, Control_c, 15, 1, 13
15, 123365, Control_c, 15, 1, 14
15, 123372, Control_c, 15, 1, 15
15, 123373, Control_c, 15, 1, 16
15, 123384, Control_c, 15, 1, 18
15, 123384, Control_c, 15, 1, 17
15, 123395, Control_c, 15, 1, 19
15, 123396, Control_c, 15, 1, 20
15, 123402, Control_c, 15, 1, 22
15, 123403, Control_c, 15, 1, 23
15, 123409, Control_c, 15, 1, 24
15, 123413, Control_c, 15, 1, 26
15, 123415, Control_c, 15, 1, 27
15, 123419, Control_c, 15, 1, 28
15, 123425, Control_c, 15, 1, 29
15, 123426, Control_c, 15, 1, 30
15, 123432, Control_c, 15, 1, 31
15, 123438, Control_c, 15, 1, 32
15, 123444, Control_c, 15, 1, 33
15, 123449, Control_c, 15, 1, 34
15, 123455, Control_c, 15, 1, 35
15, 123457, Control_c, 15, 1, 39
15, 123457, Control_c, 15, 1, 38
15, 123457, Control_c, 15, 1, 36
15, 123466, Control_c, 15, 1, 40
15, 123472, Control_c, 15, 1, 41
15, 123473, Control_c, 15, 1, 42
15, 123479, Control_c, 15, 1, 43
15, 123484, Control_c, 15, 1, 44
15, 123491, Control_c, 15, 1, 46
15, 123491, Control_c, 15, 1, 45
15, 123498, Control_c, 15, 1, 47
15, 123509, Control_c, 15, 1, 48
15, 123514, Control_c, 15, 1, 49
15, 123521, Control_c, 15, 1, 50
15, 123532, Control_c, 15, 1, 51
15, 123550, Control_c, 15, 1, 52
15, 123561, Control_c, 15, 1, 53
15, 123562, Control_c, 15, 1, 54
15, 123574, Control_c, 15, 1, 55
15, 123585, Control_c, 15, 1, 56
15, 123593, Control_c, 15, 1, 57
15, 123604, Control_c, 15, 1, 58
15, 123614, Control_c, 15, 1, 59
15, 123621, Control_c, 15, 1, 60
15, 123632, Control_c, 15, 1, 61
15, 123646, Control_c, 15, 1, 62
15, 123657, Control_c, 15, 1, 63
15, 123674, Control_c, 15, 1, 64
15, 123693, Control_c, 15, 1, 65
15, 123710, Control_c, 15, 1, 66
15, 123739, Control_c, 15, 1, 67
15, 123763, Control_c, 15, 1, 68
15, 123829, Control_c, 15, 1, 69
15, 123852, Control_c, 15, 1, 68
15, 123859, Control_c, 15, 1, 67
15, 123864, Control_c, 15, 1, 65
15, 123865, Control_c, 15, 1, 63
15, 123870, Control_c, 15, 1, 60
15, 123870, Control_c, 15, 1, 62
15, 123875, Control_c, 15, 1, 58
15, 123876, Control_c, 15, 1, 57
15, 123881, Control_c, 15, 1, 55
15, 123882, Control_c, 15, 1, 52
15, 123887, Control_c, 15, 1, 48
15, 123887, Control_c, 15, 1, 50
15, 123894, Control_c, 15, 1, 43
15, 123894, Control_c, 15, 1, 45
15, 123899, Control_c, 15, 1, 39
15, 123899, Control_c, 15, 1, 41
15, 123905, Control_c, 15, 1, 37
15, 123905, Control_c, 15, 1, 38
15, 123911, Control_c, 15, 1, 36
15, 123922, Control_c, 15, 1, 35
15, 123930, Control_c, 15, 1, 32
15, 123930, Control_c, 15, 1, 33
15, 123935, Control_c, 15, 1, 25
15, 123935, Control_c, 15, 1, 28
15, 123941, Control_c, 15, 1, 12
15, 123941, Control_c, 15, 1, 19
15, 123947, Control_c, 15, 1, 6
15, 123948, Control_c, 15, 1, 0
15, 124224, Note_off_c, 15, 67, 127
15, 124224, Note_on_c, 15, 55, 126
15, 124416, Note_off_c, 15, 55, 52
15, 124416, Note_on_c, 15, 67, 127
15, 124608, Note_off_c, 15, 67, 94
15, 124608, Note_on_c, 15, 67, 127
15, 124800, Note_off_c, 15, 67, 96
15, 124800, Note_on_c, 15, 67, 127
15, 124992, Note_off_c, 15, 67, 68
15, 124992, Note_on_c, 15, 66, 127
15, 125376, Note_off_c, 15, 66, 83
15, 125376, Note_on_c, 15, 67, 127
15, 126816, Note_off_c, 15, 67, 93
15, 126912, Note_on_c, 15, 67, 127
15, 127104, Note_off_c, 15, 67, 64
15, 127104, Note_on_c, 15, 69, 127
15, 127392, Note_off_c, 15, 69, 64
15, 127488, Note_on_c, 15, 71, 127
15, 127802, Pitch_bend_c, 15, 10087
15, 127807, Pitch_bend_c, 15, 11597
15, 127813, Pitch_bend_c, 15, 11693
15, 127819, Pitch_bend_c, 15, 11886
15, 127825, Pitch_bend_c, 15, 11950
15, 127830, Pitch_bend_c, 15, 12047
15, 127843, Pitch_bend_c, 15, 12079
15, 127872, Pitch_bend_c, 15, 12047
15, 127890, Pitch_bend_c, 15, 12079
15, 127896, Pitch_bend_c, 15, 12047
15, 127913, Pitch_bend_c, 15, 12079
15, 127919, Pitch_bend_c, 15, 12111
15, 127926, Pitch_bend_c, 15, 12143
15, 127943, Pitch_bend_c, 15, 12175
15, 128032, Pitch_bend_c, 15, 12143
15, 128044, Pitch_bend_c, 15, 12047
15, 128050, Pitch_bend_c, 15, 11950
15, 128055, Pitch_bend_c, 15, 11757
15, 128061, Pitch_bend_c, 15, 11115
15, 128065, Pitch_bend_c, 15, 9830
15, 128074, Pitch_bend_c, 15, 7999
15, 128078, Pitch_bend_c, 15, 8192
15, 128225, Pitch_bend_c, 15, 5621
15, 128230, Pitch_bend_c, 15, 2666
15, 128236, Pitch_bend_c, 15, 0
15, 128240, Note_off_c, 15, 71, 70
15, 128256, Note_on_c, 15, 71, 127
15, 128622, Pitch_bend_c, 15, 8192
15, 128624, Note_on_c, 15, 67, 121
15, 128626, Pitch_bend_c, 15, 11211
15, 128633, Pitch_bend_c, 15, 8192
15, 128639, Pitch_bend_c, 15, 7067
15, 128640, Note_off_c, 15, 71, 70
15, 128641, Pitch_bend_c, 15, 8192
15, 128837, Pitch_bend_c, 15, 9926
15, 128842, Pitch_bend_c, 15, 11725
15, 128848, Pitch_bend_c, 15, 13364
15, 128852, Pitch_bend_c, 15, 15966
15, 128859, Pitch_bend_c, 15, 16383
15, 129013, Pitch_bend_c, 15, 16223
15, 129017, Pitch_bend_c, 15, 14938
15, 129025, Pitch_bend_c, 15, 12721
15, 129025, Pitch_bend_c, 15, 13524
15, 129035, Pitch_bend_c, 15, 11725
15, 129041, Pitch_bend_c, 15, 10537
15, 129047, Pitch_bend_c, 15, 9380
15, 129052, Pitch_bend_c, 15, 8192
15, 131192, Control_c, 15, 1, 1
15, 131215, Control_c, 15, 1, 2
15, 131233, Control_c, 15, 1, 3
15, 131245, Control_c, 15, 1, 4
15, 131263, Control_c, 15, 1, 5
15, 131275, Control_c, 15, 1, 6
15, 131299, Control_c, 15, 1, 7
15, 131321, Control_c, 15, 1, 8
15, 131340, Control_c, 15, 1, 9
15, 131363, Control_c, 15, 1, 10
15, 131374, Control_c, 15, 1, 11
15, 131397, Control_c, 15, 1, 12
15, 131425, Control_c, 15, 1, 13
15, 131432, Control_c, 15, 1, 14
15, 131445, Control_c, 15, 1, 15
15, 131456, Control_c, 15, 1, 16
15, 131468, Control_c, 15, 1, 17
15, 131473, Control_c, 15, 1, 18
15, 131481, Control_c, 15, 1, 19
15, 131492, Control_c, 15, 1, 20
15, 131510, Control_c, 15, 1, 21
15, 131520, Control_c, 15, 1, 22
15, 131533, Control_c, 15, 1, 23
15, 131537, Control_c, 15, 1, 24
15, 131567, Control_c, 15, 1, 25
15, 131580, Control_c, 15, 1, 26
15, 131596, Control_c, 15, 1, 27
15, 131625, Control_c, 15, 1, 28
15, 131644, Control_c, 15, 1, 29
15, 131678, Control_c, 15, 1, 30
15, 131702, Control_c, 15, 1, 31
15, 131719, Control_c, 15, 1, 32
15, 131743, Control_c, 15, 1, 33
15, 131766, Control_c, 15, 1, 34
15, 131796, Control_c, 15, 1, 35
15, 131837, Control_c, 15, 1, 36
15, 131907, Control_c, 15, 1, 37
15, 131999, Control_c, 15, 1, 38
15, 132136, Control_c, 15, 1, 39
15, 132165, Control_c, 15, 1, 38
15, 132295, Control_c, 15, 1, 39
15, 132523, Control_c, 15, 1, 38
15, 132540, Control_c, 15, 1, 39
15, 132565, Control_c, 15, 1, 40
15, 132634, Control_c, 15, 1, 41
15, 132816, Control_c, 15, 1, 42
15, 132904, Control_c, 15, 1, 43
15, 133022, Control_c, 15, 1, 44
15, 133062, Control_c, 15, 1, 43
15, 133232, Control_c, 15, 1, 44
15, 133298, Control_c, 15, 1, 45
15, 133703, Control_c, 15, 1, 46
15, 133872, Control_c, 15, 1, 47
15, 134176, Control_c, 15, 1, 48
15, 134312, Control_c, 15, 1, 47
15, 134376, Control_c, 15, 1, 46
15, 134417, Control_c, 15, 1, 47
15, 134500, Control_c, 15, 1, 48
15, 134611, Control_c, 15, 1, 47
15, 134669, Control_c, 15, 1, 46
15, 134963, Control_c, 15, 1, 47
15, 135145, Control_c, 15, 1, 46
15, 135216, Control_c, 15, 11, 120
15, 135359, Control_c, 15, 1, 47
15, 135490, Control_c, 15, 1, 48
15, 135544, Control_c, 15, 11, 115
15, 135713, Control_c, 15, 1, 47
15, 135771, Control_c, 15, 1, 46
15, 135796, Control_c, 15, 1, 45
15, 135814, Control_c, 15, 1, 47
15, 135814, Control_c, 15, 1, 46
15, 135901, Control_c, 15, 1, 48
15, 135936, Control_c, 15, 11, 110
15, 135942, Control_c, 15, 1, 47
15, 135960, Control_c, 15, 1, 48
15, 136124, Control_c, 15, 1, 49
15, 136312, Control_c, 15, 11, 105
15, 136429, Control_c, 15, 1, 50
15, 136587, Control_c, 15, 1, 51
15, 136704, Control_c, 15, 11, 100
15, 136956, Control_c, 15, 1, 52
15, 137088, Control_c, 15, 11, 95
15, 137133, Control_c, 15, 1, 51
15, 137150, Control_c, 15, 1, 50
15, 137233, Control_c, 15, 1, 51
15, 137361, Control_c, 15, 1, 52
15, 137464, Control_c, 15, 11, 90
15, 137678, Control_c, 15, 1, 51
15, 137680, Control_c, 15, 1, 50
15, 137702, Control_c, 15, 1, 51
15, 137755, Control_c, 15, 1, 52
15, 137864, Control_c, 15, 11, 85
15, 138248, Control_c, 15, 11, 80
15, 138465, Control_c, 15, 1, 51
15, 138565, Control_c, 15, 1, 52
15, 138616, Control_c, 15, 11, 75
15, 138863, Control_c, 15, 1, 53
15, 139000, Control_c, 15, 11, 70
15, 139080, Control_c, 15, 1, 52
15, 139090, Control_c, 15, 1, 51
15, 139103, Control_c, 15, 1, 50
15, 139126, Control_c, 15, 1, 51
15, 139197, Control_c, 15, 1, 52
15, 139392, Control_c, 15, 11, 65
15, 139484, Control_c, 15, 1, 51
15, 139525, Control_c, 15, 1, 52
15, 139743, Control_c, 15, 1, 53
15, 139784, Control_c, 15, 11, 60
15, 139795, Control_c, 15, 1, 52
15, 139924, Control_c, 15, 1, 53
15, 139964, Control_c, 15, 1, 52
15, 140105, Control_c, 15, 1, 53
15, 140160, Control_c, 15, 11, 55
15, 140311, Control_c, 15, 1, 52
15, 140440, Control_c, 15, 1, 51
15, 140447, Control_c, 15, 1, 50
15, 140498, Control_c, 15, 1, 51
15, 140536, Control_c, 15, 11, 50
15, 140721, Control_c, 15, 1, 50
15, 140733, Control_c, 15, 1, 49
15, 140751, Control_c, 15, 1, 48
15, 140831, Control_c, 15, 1, 49
15, 140898, Control_c, 15, 1, 50
15, 140936, Control_c, 15, 11, 45
15, 140956, Control_c, 15, 1, 51
15, 141121, Control_c, 15, 1, 52
15, 141214, Control_c, 15, 1, 51
15, 141260, Control_c, 15, 1, 50
15, 141278, Control_c, 15, 1, 49
15, 141308, Control_c, 15, 1, 48
15, 141312, Control_c, 15, 11, 40
15, 141314, Control_c, 15, 1, 47
15, 141325, Control_c, 15, 1, 46
15, 141327, Control_c, 15, 1, 45
15, 141331, Control_c, 15, 1, 44
15, 141337, Control_c, 15, 1, 43
15, 141374, Control_c, 15, 1, 44
15, 141389, Control_c, 15, 1, 43
15, 141390, Control_c, 15, 1, 42
15, 141396, Control_c, 15, 1, 41
15, 141402, Control_c, 15, 1, 40
15, 141443, Control_c, 15, 1, 41
15, 141460, Control_c, 15, 1, 42
15, 141496, Control_c, 15, 1, 41
15, 141541, Control_c, 15, 1, 40
15, 141554, Control_c, 15, 1, 39
15, 141567, Control_c, 15, 1, 40
15, 141601, Control_c, 15, 1, 39
15, 141618, Control_c, 15, 1, 38
15, 141644, Control_c, 15, 1, 39
15, 141671, Control_c, 15, 1, 37
15, 141671, Control_c, 15, 1, 38
15, 141678, Control_c, 15, 1, 36
15, 141683, Control_c, 15, 1, 35
15, 141696, Control_c, 15, 11, 35
15, 141707, Control_c, 15, 1, 36
15, 141723, Control_c, 15, 1, 37
15, 141742, Control_c, 15, 1, 36
15, 141747, Control_c, 15, 1, 35
15, 141753, Control_c, 15, 1, 34
15, 141754, Control_c, 15, 1, 33
15, 141813, Control_c, 15, 1, 34
15, 141872, Control_c, 15, 1, 33
15, 141894, Control_c, 15, 1, 34
15, 141931, Control_c, 15, 1, 33
15, 141936, Control_c, 15, 1, 32
15, 141942, Control_c, 15, 1, 31
15, 141959, Control_c, 15, 1, 33
15, 141959, Control_c, 15, 1, 32
15, 141976, Control_c, 15, 1, 34
15, 142006, Control_c, 15, 1, 35
15, 142060, Control_c, 15, 1, 36
15, 142072, Control_c, 15, 11, 30
15, 142158, Control_c, 15, 1, 35
15, 142164, Control_c, 15, 1, 34
15, 142176, Control_c, 15, 1, 33
15, 142188, Control_c, 15, 1, 32
15, 142189, Control_c, 15, 1, 31
15, 142206, Control_c, 15, 1, 30
15, 142210, Control_c, 15, 1, 29
15, 142246, Control_c, 15, 1, 30
15, 142264, Control_c, 15, 1, 32
15, 142264, Control_c, 15, 1, 31
15, 142277, Control_c, 15, 1, 33
15, 142287, Control_c, 15, 1, 34
15, 142347, Control_c, 15, 1, 35
15, 142411, Control_c, 15, 1, 34
15, 142452, Control_c, 15, 1, 33
15, 142465, Control_c, 15, 1, 32
15, 142472, Control_c, 15, 11, 25
15, 142475, Control_c, 15, 1, 31
15, 142529, Control_c, 15, 1, 30
15, 142533, Control_c, 15, 1, 29
15, 142534, Control_c, 15, 1, 28
15, 142539, Control_c, 15, 1, 27
15, 142541, Control_c, 15, 1, 26
15, 142545, Control_c, 15, 1, 25
15, 142546, Control_c, 15, 1, 24
15, 142551, Control_c, 15, 1, 23
15, 142553, Control_c, 15, 1, 22
15, 142559, Control_c, 15, 1, 21
15, 142563, Control_c, 15, 1, 20
15, 142568, Control_c, 15, 1, 19
15, 142576, Control_c, 15, 1, 18
15, 142587, Control_c, 15, 1, 19
15, 142597, Control_c, 15, 1, 20
15, 142617, Control_c, 15, 1, 21
15, 142634, Control_c, 15, 1, 18
15, 142634, Control_c, 15, 1, 19
15, 142639, Control_c, 15, 1, 15
15, 142639, Control_c, 15, 1, 17
15, 142645, Control_c, 15, 1, 14
15, 142647, Control_c, 15, 1, 13
15, 142650, Control_c, 15, 1, 11
15, 142652, Control_c, 15, 1, 10
15, 142655, Control_c, 15, 1, 9
15, 142656, Control_c, 15, 1, 7
15, 142657, Control_c, 15, 1, 5
15, 142657, Control_c, 15, 1, 6
15, 142660, Control_c, 15, 1, 3
15, 142661, Control_c, 15, 1, 1
15, 142675, Control_c, 15, 1, 0
15, 142840, Control_c, 15, 11, 20
15, 142848, Note_off_c, 15, 67, 127
15, 143232, Control_c, 15, 11, 15
15, 143616, Control_c, 15, 11, 10
15, 143992, Control_c, 15, 11, 5
15, 144344, Control_c, 15, 11, 0
15, 144384, Control_c, 15, 11, 127
15, 145920, End_track
16, 0, Start_track
16, 0, Title_t, "GMReset"
16, 16, System_exclusive, 5, 126, 127, 9, 1, 247
16, 1536, End_track
17, 0, Start_track
17, 0, Title_t, "a feeling,"
17, 145920, Control_c, 3, 7, 127
17, 145932, Control_c, 3, 11, 127
17, 147456, End_track
18, 0, Start_track
18, 0, Title_t, "By Boston."
18, 145920, Control_c, 4, 7, 127
18, 145932, Control_c, 4, 11, 127
18, 147456, End_track
19, 0, Start_track
19, 0, Title_t, "Sequenced"
19, 145920, Control_c, 5, 7, 127
19, 145932, Control_c, 5, 11, 127
19, 147456, End_track
20, 0, Start_track
20, 0, Title_t, "by"
20, 145920, Control_c, 6, 7, 127
20, 145932, Control_c, 6, 11, 127
20, 147456, End_track
21, 0, Start_track
21, 0, Title_t, "Stuart"
21, 145920, Control_c, 7, 7, 127
21, 145932, Control_c, 7, 11, 127
21, 147456, End_track
22, 0, Start_track
22, 0, Title_t, "Wright."
22, 145920, Control_c, 8, 7, 127
22, 145932, Control_c, 8, 11, 127
22, 147456, End_track
23, 0, Start_track
23, 0, Title_t, "Please"
23, 145920, Control_c, 9, 7, 127
23, 145932, Control_c, 9, 11, 127
23, 147456, End_track
24, 0, Start_track
24, 0, Title_t, "contact"
24, 145920, Control_c, 10, 7, 127
24, 145932, Control_c, 10, 11, 127
24, 147456, End_track
25, 0, Start_track
25, 0, Title_t, "stu-w@"
25, 145920, Control_c, 11, 7, 127
25, 145932, Control_c, 11, 11, 127
25, 147456, End_track
26, 0, Start_track
26, 0, Title_t, "usa.net"
26, 145920, Control_c, 12, 7, 127
26, 145932, Control_c, 12, 11, 127
26, 147456, End_track
27, 0, Start_track
27, 0, Title_t, "Thanks!"
27, 145920, Control_c, 13, 7, 127
27, 145932, Control_c, 13, 11, 127
27, 147456, End_track
0, 0, End_of_file
