0, 0, Header, 1, 12, 120
1, 0, Start_track
1, 0, Title_t, " "
1, 0, Copyright_t, "Copyright © 1997 by Path B Guy"
1, 0, Text_t, "J Aldridge\012"
1, 0, SMPTE_offset, 96, 0, 3, 0, 0
1, 0, Time_signature, 4, 2, 24, 8
1, 0, Key_signature, 4, "major"
1, 0, Tempo, 517241
1, 0, Marker_t, "Intro"
1, 2880, Marker_t, "Intro Solo"
1, 4800, Marker_t, "1st Verse"
1, 12480, Marker_t, "Solo 1"
1, 16320, Marker_t, "2nd Verse"
1, 39360, Marker_t, "3rd Verse"
1, 47040, Marker_t, "Outro"
1, 47040, End_track
2, 0, Start_track
2, 0, MIDI_port, 0
2, 0, Title_t, "Dave Mason"
2, 0, Program_c, 0, 25
2, 0, Control_c, 0, 7, 80
2, 0, Control_c, 0, 10, 10
2, 773, Note_on_c, 0, 66, 100
2, 776, Note_on_c, 0, 63, 100
2, 780, Note_on_c, 0, 47, 100
2, 780, Note_on_c, 0, 54, 100
2, 780, Note_on_c, 0, 59, 100
2, 780, Note_on_c, 0, 71, 100
2, 833, Note_on_c, 0, 66, 0
2, 836, Note_on_c, 0, 63, 0
2, 840, Note_on_c, 0, 59, 0
2, 840, Note_on_c, 0, 54, 0
2, 840, Note_on_c, 0, 71, 0
2, 840, Note_on_c, 0, 47, 0
2, 840, Note_on_c, 0, 47, 100
2, 840, Note_on_c, 0, 54, 100
2, 840, Note_on_c, 0, 59, 100
2, 840, Note_on_c, 0, 63, 100
2, 840, Note_on_c, 0, 66, 100
2, 840, Note_on_c, 0, 71, 100
2, 900, Note_on_c, 0, 71, 0
2, 900, Note_on_c, 0, 54, 0
2, 900, Note_on_c, 0, 59, 0
2, 900, Note_on_c, 0, 47, 0
2, 900, Note_on_c, 0, 66, 0
2, 900, Note_on_c, 0, 63, 0
2, 900, Note_on_c, 0, 49, 100
2, 900, Note_on_c, 0, 56, 100
2, 900, Note_on_c, 0, 61, 100
2, 900, Note_on_c, 0, 64, 100
2, 900, Note_on_c, 0, 68, 100
2, 900, Note_on_c, 0, 73, 100
2, 960, Note_on_c, 0, 73, 0
2, 960, Note_on_c, 0, 56, 0
2, 960, Note_on_c, 0, 61, 0
2, 960, Note_on_c, 0, 49, 0
2, 960, Note_on_c, 0, 68, 0
2, 960, Note_on_c, 0, 64, 0
2, 960, Note_on_c, 0, 49, 120
2, 960, Note_on_c, 0, 56, 120
2, 960, Note_on_c, 0, 61, 120
2, 960, Note_on_c, 0, 64, 120
2, 960, Note_on_c, 0, 68, 120
2, 960, Note_on_c, 0, 73, 120
2, 1020, Note_on_c, 0, 73, 0
2, 1020, Note_on_c, 0, 56, 0
2, 1020, Note_on_c, 0, 61, 0
2, 1020, Note_on_c, 0, 49, 0
2, 1020, Note_on_c, 0, 68, 0
2, 1020, Note_on_c, 0, 64, 0
2, 1020, Note_on_c, 0, 49, 120
2, 1020, Note_on_c, 0, 56, 120
2, 1020, Note_on_c, 0, 61, 120
2, 1020, Note_on_c, 0, 64, 120
2, 1020, Note_on_c, 0, 68, 120
2, 1020, Note_on_c, 0, 73, 120
2, 1080, Note_on_c, 0, 73, 0
2, 1080, Note_on_c, 0, 56, 0
2, 1080, Note_on_c, 0, 61, 0
2, 1080, Note_on_c, 0, 49, 0
2, 1080, Note_on_c, 0, 68, 0
2, 1080, Note_on_c, 0, 64, 0
2, 1080, Note_on_c, 0, 49, 120
2, 1080, Note_on_c, 0, 56, 120
2, 1080, Note_on_c, 0, 61, 120
2, 1080, Note_on_c, 0, 64, 120
2, 1080, Note_on_c, 0, 68, 120
2, 1080, Note_on_c, 0, 73, 120
2, 1200, Note_on_c, 0, 73, 0
2, 1200, Note_on_c, 0, 56, 0
2, 1200, Note_on_c, 0, 61, 0
2, 1200, Note_on_c, 0, 49, 0
2, 1200, Note_on_c, 0, 68, 0
2, 1200, Note_on_c, 0, 64, 0
2, 1260, Note_on_c, 0, 47, 100
2, 1260, Note_on_c, 0, 54, 100
2, 1260, Note_on_c, 0, 59, 100
2, 1260, Note_on_c, 0, 63, 100
2, 1260, Note_on_c, 0, 66, 100
2, 1260, Note_on_c, 0, 71, 100
2, 1320, Note_on_c, 0, 71, 0
2, 1320, Note_on_c, 0, 54, 0
2, 1320, Note_on_c, 0, 59, 0
2, 1320, Note_on_c, 0, 47, 0
2, 1320, Note_on_c, 0, 66, 0
2, 1320, Note_on_c, 0, 63, 0
2, 1320, Note_on_c, 0, 71, 100
2, 1320, Note_on_c, 0, 66, 100
2, 1320, Note_on_c, 0, 63, 100
2, 1320, Note_on_c, 0, 59, 100
2, 1320, Note_on_c, 0, 54, 100
2, 1320, Note_on_c, 0, 47, 100
2, 1380, Note_on_c, 0, 47, 0
2, 1380, Note_on_c, 0, 66, 0
2, 1380, Note_on_c, 0, 63, 0
2, 1380, Note_on_c, 0, 71, 0
2, 1380, Note_on_c, 0, 54, 0
2, 1380, Note_on_c, 0, 59, 0
2, 1380, Note_on_c, 0, 45, 100
2, 1380, Note_on_c, 0, 52, 100
2, 1380, Note_on_c, 0, 57, 100
2, 1380, Note_on_c, 0, 61, 100
2, 1380, Note_on_c, 0, 64, 100
2, 1380, Note_on_c, 0, 69, 100
2, 1440, Note_on_c, 0, 69, 0
2, 1440, Note_on_c, 0, 52, 0
2, 1440, Note_on_c, 0, 57, 0
2, 1440, Note_on_c, 0, 45, 0
2, 1440, Note_on_c, 0, 64, 0
2, 1440, Note_on_c, 0, 61, 0
2, 1440, Note_on_c, 0, 45, 120
2, 1440, Note_on_c, 0, 52, 120
2, 1440, Note_on_c, 0, 57, 120
2, 1440, Note_on_c, 0, 61, 120
2, 1440, Note_on_c, 0, 64, 120
2, 1440, Note_on_c, 0, 69, 120
2, 1500, Note_on_c, 0, 69, 0
2, 1500, Note_on_c, 0, 52, 0
2, 1500, Note_on_c, 0, 57, 0
2, 1500, Note_on_c, 0, 45, 0
2, 1500, Note_on_c, 0, 64, 0
2, 1500, Note_on_c, 0, 61, 0
2, 1500, Note_on_c, 0, 69, 120
2, 1500, Note_on_c, 0, 64, 120
2, 1500, Note_on_c, 0, 61, 120
2, 1500, Note_on_c, 0, 57, 120
2, 1500, Note_on_c, 0, 52, 120
2, 1500, Note_on_c, 0, 45, 120
2, 1560, Note_on_c, 0, 45, 0
2, 1560, Note_on_c, 0, 64, 0
2, 1560, Note_on_c, 0, 61, 0
2, 1560, Note_on_c, 0, 69, 0
2, 1560, Note_on_c, 0, 52, 0
2, 1560, Note_on_c, 0, 57, 0
2, 1560, Note_on_c, 0, 45, 120
2, 1560, Note_on_c, 0, 52, 120
2, 1560, Note_on_c, 0, 57, 120
2, 1560, Note_on_c, 0, 61, 120
2, 1560, Note_on_c, 0, 64, 120
2, 1560, Note_on_c, 0, 69, 120
2, 1680, Note_on_c, 0, 69, 0
2, 1680, Note_on_c, 0, 52, 0
2, 1680, Note_on_c, 0, 57, 0
2, 1680, Note_on_c, 0, 45, 0
2, 1680, Note_on_c, 0, 64, 0
2, 1680, Note_on_c, 0, 61, 0
2, 1733, Note_on_c, 0, 66, 100
2, 1736, Note_on_c, 0, 63, 100
2, 1740, Note_on_c, 0, 47, 100
2, 1740, Note_on_c, 0, 54, 100
2, 1740, Note_on_c, 0, 59, 100
2, 1740, Note_on_c, 0, 71, 100
2, 1793, Note_on_c, 0, 66, 0
2, 1796, Note_on_c, 0, 63, 0
2, 1800, Note_on_c, 0, 59, 0
2, 1800, Note_on_c, 0, 54, 0
2, 1800, Note_on_c, 0, 71, 0
2, 1800, Note_on_c, 0, 47, 0
2, 1800, Note_on_c, 0, 47, 100
2, 1800, Note_on_c, 0, 54, 100
2, 1800, Note_on_c, 0, 59, 100
2, 1800, Note_on_c, 0, 63, 100
2, 1800, Note_on_c, 0, 66, 100
2, 1800, Note_on_c, 0, 71, 100
2, 1860, Note_on_c, 0, 71, 0
2, 1860, Note_on_c, 0, 54, 0
2, 1860, Note_on_c, 0, 59, 0
2, 1860, Note_on_c, 0, 47, 0
2, 1860, Note_on_c, 0, 66, 0
2, 1860, Note_on_c, 0, 63, 0
2, 1860, Note_on_c, 0, 49, 100
2, 1860, Note_on_c, 0, 56, 100
2, 1860, Note_on_c, 0, 61, 100
2, 1860, Note_on_c, 0, 64, 100
2, 1860, Note_on_c, 0, 68, 100
2, 1860, Note_on_c, 0, 73, 100
2, 1920, Note_on_c, 0, 73, 0
2, 1920, Note_on_c, 0, 56, 0
2, 1920, Note_on_c, 0, 61, 0
2, 1920, Note_on_c, 0, 49, 0
2, 1920, Note_on_c, 0, 68, 0
2, 1920, Note_on_c, 0, 64, 0
2, 1920, Note_on_c, 0, 49, 120
2, 1920, Note_on_c, 0, 56, 120
2, 1920, Note_on_c, 0, 61, 120
2, 1920, Note_on_c, 0, 64, 120
2, 1920, Note_on_c, 0, 68, 120
2, 1920, Note_on_c, 0, 73, 120
2, 1980, Note_on_c, 0, 73, 0
2, 1980, Note_on_c, 0, 56, 0
2, 1980, Note_on_c, 0, 61, 0
2, 1980, Note_on_c, 0, 49, 0
2, 1980, Note_on_c, 0, 68, 0
2, 1980, Note_on_c, 0, 64, 0
2, 1980, Note_on_c, 0, 49, 120
2, 1980, Note_on_c, 0, 56, 120
2, 1980, Note_on_c, 0, 61, 120
2, 1980, Note_on_c, 0, 64, 120
2, 1980, Note_on_c, 0, 68, 120
2, 1980, Note_on_c, 0, 73, 120
2, 2040, Note_on_c, 0, 73, 0
2, 2040, Note_on_c, 0, 56, 0
2, 2040, Note_on_c, 0, 61, 0
2, 2040, Note_on_c, 0, 49, 0
2, 2040, Note_on_c, 0, 68, 0
2, 2040, Note_on_c, 0, 64, 0
2, 2040, Note_on_c, 0, 49, 120
2, 2040, Note_on_c, 0, 56, 120
2, 2040, Note_on_c, 0, 61, 120
2, 2040, Note_on_c, 0, 64, 120
2, 2040, Note_on_c, 0, 68, 120
2, 2040, Note_on_c, 0, 73, 120
2, 2160, Note_on_c, 0, 73, 0
2, 2160, Note_on_c, 0, 56, 0
2, 2160, Note_on_c, 0, 61, 0
2, 2160, Note_on_c, 0, 49, 0
2, 2160, Note_on_c, 0, 68, 0
2, 2160, Note_on_c, 0, 64, 0
2, 2220, Note_on_c, 0, 47, 100
2, 2220, Note_on_c, 0, 54, 100
2, 2220, Note_on_c, 0, 59, 100
2, 2220, Note_on_c, 0, 63, 100
2, 2220, Note_on_c, 0, 66, 100
2, 2220, Note_on_c, 0, 71, 100
2, 2280, Note_on_c, 0, 71, 0
2, 2280, Note_on_c, 0, 54, 0
2, 2280, Note_on_c, 0, 59, 0
2, 2280, Note_on_c, 0, 47, 0
2, 2280, Note_on_c, 0, 66, 0
2, 2280, Note_on_c, 0, 63, 0
2, 2280, Note_on_c, 0, 71, 100
2, 2280, Note_on_c, 0, 66, 100
2, 2280, Note_on_c, 0, 63, 100
2, 2280, Note_on_c, 0, 59, 100
2, 2280, Note_on_c, 0, 54, 100
2, 2280, Note_on_c, 0, 47, 100
2, 2340, Note_on_c, 0, 47, 0
2, 2340, Note_on_c, 0, 66, 0
2, 2340, Note_on_c, 0, 63, 0
2, 2340, Note_on_c, 0, 71, 0
2, 2340, Note_on_c, 0, 54, 0
2, 2340, Note_on_c, 0, 59, 0
2, 2340, Note_on_c, 0, 45, 100
2, 2340, Note_on_c, 0, 52, 100
2, 2340, Note_on_c, 0, 57, 100
2, 2340, Note_on_c, 0, 61, 100
2, 2340, Note_on_c, 0, 64, 100
2, 2340, Note_on_c, 0, 69, 100
2, 2400, Note_on_c, 0, 69, 0
2, 2400, Note_on_c, 0, 52, 0
2, 2400, Note_on_c, 0, 57, 0
2, 2400, Note_on_c, 0, 45, 0
2, 2400, Note_on_c, 0, 64, 0
2, 2400, Note_on_c, 0, 61, 0
2, 2400, Note_on_c, 0, 45, 120
2, 2400, Note_on_c, 0, 52, 120
2, 2400, Note_on_c, 0, 57, 120
2, 2400, Note_on_c, 0, 61, 120
2, 2400, Note_on_c, 0, 64, 120
2, 2400, Note_on_c, 0, 69, 120
2, 2460, Note_on_c, 0, 69, 0
2, 2460, Note_on_c, 0, 52, 0
2, 2460, Note_on_c, 0, 57, 0
2, 2460, Note_on_c, 0, 45, 0
2, 2460, Note_on_c, 0, 64, 0
2, 2460, Note_on_c, 0, 61, 0
2, 2460, Note_on_c, 0, 69, 120
2, 2460, Note_on_c, 0, 64, 120
2, 2460, Note_on_c, 0, 61, 120
2, 2460, Note_on_c, 0, 57, 120
2, 2460, Note_on_c, 0, 52, 120
2, 2460, Note_on_c, 0, 45, 120
2, 2520, Note_on_c, 0, 45, 0
2, 2520, Note_on_c, 0, 64, 0
2, 2520, Note_on_c, 0, 61, 0
2, 2520, Note_on_c, 0, 69, 0
2, 2520, Note_on_c, 0, 52, 0
2, 2520, Note_on_c, 0, 57, 0
2, 2520, Note_on_c, 0, 45, 120
2, 2520, Note_on_c, 0, 52, 120
2, 2520, Note_on_c, 0, 57, 120
2, 2520, Note_on_c, 0, 61, 120
2, 2520, Note_on_c, 0, 64, 120
2, 2520, Note_on_c, 0, 69, 120
2, 2580, Note_on_c, 0, 69, 0
2, 2580, Note_on_c, 0, 52, 0
2, 2580, Note_on_c, 0, 57, 0
2, 2580, Note_on_c, 0, 45, 0
2, 2580, Note_on_c, 0, 64, 0
2, 2580, Note_on_c, 0, 61, 0
2, 2580, Note_on_c, 0, 45, 120
2, 2580, Note_on_c, 0, 52, 120
2, 2580, Note_on_c, 0, 57, 120
2, 2580, Note_on_c, 0, 61, 120
2, 2580, Note_on_c, 0, 64, 120
2, 2580, Note_on_c, 0, 69, 120
2, 2610, Note_on_c, 0, 69, 0
2, 2610, Note_on_c, 0, 52, 0
2, 2610, Note_on_c, 0, 57, 0
2, 2610, Note_on_c, 0, 45, 0
2, 2610, Note_on_c, 0, 64, 0
2, 2610, Note_on_c, 0, 61, 0
2, 2610, Note_on_c, 0, 45, 120
2, 2610, Note_on_c, 0, 52, 120
2, 2610, Note_on_c, 0, 57, 120
2, 2610, Note_on_c, 0, 61, 120
2, 2610, Note_on_c, 0, 64, 120
2, 2610, Note_on_c, 0, 69, 120
2, 2640, Note_on_c, 0, 69, 0
2, 2640, Note_on_c, 0, 52, 0
2, 2640, Note_on_c, 0, 57, 0
2, 2640, Note_on_c, 0, 45, 0
2, 2640, Note_on_c, 0, 64, 0
2, 2640, Note_on_c, 0, 61, 0
2, 2640, Note_on_c, 0, 45, 120
2, 2640, Note_on_c, 0, 52, 120
2, 2640, Note_on_c, 0, 57, 120
2, 2640, Note_on_c, 0, 61, 120
2, 2640, Note_on_c, 0, 64, 120
2, 2640, Note_on_c, 0, 69, 100
2, 2670, Note_on_c, 0, 69, 0
2, 2670, Note_on_c, 0, 52, 0
2, 2670, Note_on_c, 0, 57, 0
2, 2670, Note_on_c, 0, 45, 0
2, 2670, Note_on_c, 0, 64, 0
2, 2670, Note_on_c, 0, 61, 0
2, 2670, Note_on_c, 0, 52, 120
2, 2670, Note_on_c, 0, 57, 120
2, 2670, Note_on_c, 0, 61, 120
2, 2670, Note_on_c, 0, 64, 120
2, 2670, Note_on_c, 0, 45, 120
2, 2670, Note_on_c, 0, 69, 120
2, 2700, Note_on_c, 0, 69, 0
2, 2700, Note_on_c, 0, 57, 0
2, 2700, Note_on_c, 0, 61, 0
2, 2700, Note_on_c, 0, 52, 0
2, 2700, Note_on_c, 0, 45, 0
2, 2700, Note_on_c, 0, 64, 0
2, 2700, Note_on_c, 0, 47, 120
2, 2700, Note_on_c, 0, 54, 120
2, 2700, Note_on_c, 0, 59, 120
2, 2700, Note_on_c, 0, 63, 120
2, 2700, Note_on_c, 0, 66, 120
2, 2700, Note_on_c, 0, 71, 120
2, 2760, Note_on_c, 0, 71, 0
2, 2760, Note_on_c, 0, 54, 0
2, 2760, Note_on_c, 0, 59, 0
2, 2760, Note_on_c, 0, 47, 0
2, 2760, Note_on_c, 0, 66, 0
2, 2760, Note_on_c, 0, 63, 0
2, 2760, Note_on_c, 0, 71, 120
2, 2760, Note_on_c, 0, 47, 120
2, 2760, Note_on_c, 0, 54, 120
2, 2760, Note_on_c, 0, 59, 120
2, 2760, Note_on_c, 0, 63, 120
2, 2760, Note_on_c, 0, 66, 120
2, 2820, Note_on_c, 0, 66, 0
2, 2820, Note_on_c, 0, 47, 0
2, 2820, Note_on_c, 0, 54, 0
2, 2820, Note_on_c, 0, 71, 0
2, 2820, Note_on_c, 0, 63, 0
2, 2820, Note_on_c, 0, 59, 0
2, 2820, Pitch_bend_c, 0, 4224
2, 2820, Note_on_c, 0, 48, 120
2, 2820, Note_on_c, 0, 55, 120
2, 2820, Note_on_c, 0, 60, 120
2, 2820, Note_on_c, 0, 64, 120
2, 2820, Note_on_c, 0, 67, 120
2, 2820, Note_on_c, 0, 72, 120
2, 2821, Pitch_bend_c, 0, 4352
2, 2823, Pitch_bend_c, 0, 4608
2, 2825, Pitch_bend_c, 0, 4736
2, 2826, Pitch_bend_c, 0, 4992
2, 2828, Pitch_bend_c, 0, 5120
2, 2830, Pitch_bend_c, 0, 5376
2, 2831, Pitch_bend_c, 0, 5504
2, 2833, Pitch_bend_c, 0, 5760
2, 2835, Pitch_bend_c, 0, 5888
2, 2836, Pitch_bend_c, 0, 6144
2, 2838, Pitch_bend_c, 0, 6400
2, 2840, Pitch_bend_c, 0, 6528
2, 2841, Pitch_bend_c, 0, 6784
2, 2843, Pitch_bend_c, 0, 6912
2, 2845, Pitch_bend_c, 0, 7168
2, 2846, Pitch_bend_c, 0, 7296
2, 2848, Pitch_bend_c, 0, 7552
2, 2850, Pitch_bend_c, 0, 7680
2, 2851, Pitch_bend_c, 0, 7936
2, 2853, Pitch_bend_c, 0, 8192
2, 2880, Note_on_c, 0, 72, 0
2, 2880, Note_on_c, 0, 55, 0
2, 2880, Note_on_c, 0, 60, 0
2, 2880, Note_on_c, 0, 48, 0
2, 2880, Note_on_c, 0, 67, 0
2, 2880, Note_on_c, 0, 64, 0
2, 2880, Note_on_c, 0, 49, 120
2, 2880, Note_on_c, 0, 56, 120
2, 2880, Note_on_c, 0, 61, 120
2, 2880, Note_on_c, 0, 64, 120
2, 2880, Note_on_c, 0, 68, 120
2, 2880, Note_on_c, 0, 73, 100
2, 2940, Note_on_c, 0, 73, 0
2, 2940, Note_on_c, 0, 56, 0
2, 2940, Note_on_c, 0, 61, 0
2, 2940, Note_on_c, 0, 49, 0
2, 2940, Note_on_c, 0, 68, 0
2, 2940, Note_on_c, 0, 64, 0
2, 2940, Note_on_c, 0, 49, 120
2, 2940, Note_on_c, 0, 56, 120
2, 2940, Note_on_c, 0, 61, 120
2, 2940, Note_on_c, 0, 64, 120
2, 2940, Note_on_c, 0, 68, 120
2, 2940, Note_on_c, 0, 73, 120
2, 3000, Note_on_c, 0, 73, 0
2, 3000, Note_on_c, 0, 56, 0
2, 3000, Note_on_c, 0, 61, 0
2, 3000, Note_on_c, 0, 49, 0
2, 3000, Note_on_c, 0, 68, 0
2, 3000, Note_on_c, 0, 64, 0
2, 3000, Note_on_c, 0, 49, 120
2, 3000, Note_on_c, 0, 56, 120
2, 3000, Note_on_c, 0, 61, 120
2, 3000, Note_on_c, 0, 64, 120
2, 3000, Note_on_c, 0, 68, 120
2, 3000, Note_on_c, 0, 73, 120
2, 3060, Note_on_c, 0, 73, 0
2, 3060, Note_on_c, 0, 56, 0
2, 3060, Note_on_c, 0, 61, 0
2, 3060, Note_on_c, 0, 49, 0
2, 3060, Note_on_c, 0, 68, 0
2, 3060, Note_on_c, 0, 64, 0
2, 3060, Note_on_c, 0, 61, 120
2, 3060, Note_on_c, 0, 49, 120
2, 3090, Note_on_c, 0, 49, 0
2, 3090, Note_on_c, 0, 61, 0
2, 3090, Note_on_c, 0, 54, 120
2, 3090, Note_on_c, 0, 59, 120
2, 3090, Note_on_c, 0, 63, 120
2, 3090, Note_on_c, 0, 66, 120
2, 3090, Note_on_c, 0, 71, 120
2, 3090, Note_on_c, 0, 47, 120
2, 3120, Note_on_c, 0, 47, 0
2, 3120, Note_on_c, 0, 59, 0
2, 3120, Note_on_c, 0, 63, 0
2, 3120, Note_on_c, 0, 54, 0
2, 3120, Note_on_c, 0, 71, 0
2, 3120, Note_on_c, 0, 66, 0
2, 3120, Note_on_c, 0, 47, 120
2, 3120, Note_on_c, 0, 54, 120
2, 3120, Note_on_c, 0, 59, 120
2, 3120, Note_on_c, 0, 63, 120
2, 3120, Note_on_c, 0, 66, 120
2, 3120, Note_on_c, 0, 71, 120
2, 3180, Note_on_c, 0, 71, 0
2, 3180, Note_on_c, 0, 54, 0
2, 3180, Note_on_c, 0, 59, 0
2, 3180, Note_on_c, 0, 47, 0
2, 3180, Note_on_c, 0, 66, 0
2, 3180, Note_on_c, 0, 63, 0
2, 3180, Note_on_c, 0, 63, 120
2, 3180, Note_on_c, 0, 59, 120
2, 3180, Note_on_c, 0, 54, 120
2, 3180, Note_on_c, 0, 47, 120
2, 3180, Note_on_c, 0, 66, 120
2, 3180, Note_on_c, 0, 71, 120
2, 3240, Note_on_c, 0, 71, 0
2, 3240, Note_on_c, 0, 59, 0
2, 3240, Note_on_c, 0, 54, 0
2, 3240, Note_on_c, 0, 63, 0
2, 3240, Note_on_c, 0, 66, 0
2, 3240, Note_on_c, 0, 47, 0
2, 3240, Note_on_c, 0, 63, 120
2, 3240, Note_on_c, 0, 59, 120
2, 3240, Note_on_c, 0, 54, 120
2, 3240, Note_on_c, 0, 47, 120
2, 3240, Note_on_c, 0, 66, 120
2, 3240, Note_on_c, 0, 71, 120
2, 3300, Note_on_c, 0, 71, 0
2, 3300, Note_on_c, 0, 59, 0
2, 3300, Note_on_c, 0, 54, 0
2, 3300, Note_on_c, 0, 63, 0
2, 3300, Note_on_c, 0, 66, 0
2, 3300, Note_on_c, 0, 47, 0
2, 3300, Note_on_c, 0, 59, 120
2, 3300, Note_on_c, 0, 47, 120
2, 3330, Note_on_c, 0, 47, 0
2, 3330, Note_on_c, 0, 59, 0
2, 3330, Note_on_c, 0, 59, 120
2, 3330, Note_on_c, 0, 47, 120
2, 3360, Note_on_c, 0, 47, 0
2, 3360, Note_on_c, 0, 59, 0
2, 3360, Note_on_c, 0, 45, 100
2, 3360, Note_on_c, 0, 52, 100
2, 3360, Note_on_c, 0, 57, 100
2, 3360, Note_on_c, 0, 61, 100
2, 3360, Note_on_c, 0, 64, 100
2, 3360, Note_on_c, 0, 69, 100
2, 3420, Note_on_c, 0, 69, 0
2, 3420, Note_on_c, 0, 52, 0
2, 3420, Note_on_c, 0, 57, 0
2, 3420, Note_on_c, 0, 45, 0
2, 3420, Note_on_c, 0, 64, 0
2, 3420, Note_on_c, 0, 61, 0
2, 3420, Note_on_c, 0, 61, 100
2, 3420, Note_on_c, 0, 57, 100
2, 3420, Note_on_c, 0, 52, 100
2, 3420, Note_on_c, 0, 45, 100
2, 3420, Note_on_c, 0, 64, 100
2, 3420, Note_on_c, 0, 69, 100
2, 3480, Note_on_c, 0, 69, 0
2, 3480, Note_on_c, 0, 57, 0
2, 3480, Note_on_c, 0, 52, 0
2, 3480, Note_on_c, 0, 61, 0
2, 3480, Note_on_c, 0, 64, 0
2, 3480, Note_on_c, 0, 45, 0
2, 3480, Note_on_c, 0, 45, 100
2, 3480, Note_on_c, 0, 52, 100
2, 3480, Note_on_c, 0, 57, 100
2, 3480, Note_on_c, 0, 61, 100
2, 3480, Note_on_c, 0, 64, 100
2, 3480, Note_on_c, 0, 69, 100
2, 3570, Note_on_c, 0, 69, 0
2, 3570, Note_on_c, 0, 52, 0
2, 3570, Note_on_c, 0, 57, 0
2, 3570, Note_on_c, 0, 45, 0
2, 3570, Note_on_c, 0, 64, 0
2, 3570, Note_on_c, 0, 61, 0
2, 3570, Note_on_c, 0, 57, 120
2, 3570, Note_on_c, 0, 45, 100
2, 3600, Note_on_c, 0, 45, 0
2, 3600, Note_on_c, 0, 57, 0
2, 3600, Note_on_c, 0, 47, 100
2, 3600, Note_on_c, 0, 54, 100
2, 3600, Note_on_c, 0, 59, 100
2, 3600, Note_on_c, 0, 63, 100
2, 3600, Note_on_c, 0, 66, 100
2, 3600, Note_on_c, 0, 71, 100
2, 3660, Note_on_c, 0, 71, 0
2, 3660, Note_on_c, 0, 54, 0
2, 3660, Note_on_c, 0, 59, 0
2, 3660, Note_on_c, 0, 47, 0
2, 3660, Note_on_c, 0, 66, 0
2, 3660, Note_on_c, 0, 63, 0
2, 3660, Note_on_c, 0, 47, 100
2, 3660, Note_on_c, 0, 54, 100
2, 3660, Note_on_c, 0, 59, 100
2, 3660, Note_on_c, 0, 63, 100
2, 3660, Note_on_c, 0, 66, 100
2, 3660, Note_on_c, 0, 71, 100
2, 3720, Note_on_c, 0, 71, 0
2, 3720, Note_on_c, 0, 54, 0
2, 3720, Note_on_c, 0, 59, 0
2, 3720, Note_on_c, 0, 47, 0
2, 3720, Note_on_c, 0, 66, 0
2, 3720, Note_on_c, 0, 63, 0
2, 3720, Note_on_c, 0, 59, 100
2, 3720, Note_on_c, 0, 54, 100
2, 3720, Note_on_c, 0, 47, 100
2, 3720, Note_on_c, 0, 63, 100
2, 3720, Note_on_c, 0, 66, 100
2, 3720, Note_on_c, 0, 71, 100
2, 3780, Note_on_c, 0, 71, 0
2, 3780, Note_on_c, 0, 54, 0
2, 3780, Note_on_c, 0, 47, 0
2, 3780, Note_on_c, 0, 59, 0
2, 3780, Note_on_c, 0, 66, 0
2, 3780, Note_on_c, 0, 63, 0
2, 3780, Note_on_c, 0, 59, 120
2, 3780, Note_on_c, 0, 47, 100
2, 3810, Note_on_c, 0, 47, 0
2, 3810, Note_on_c, 0, 59, 0
2, 3810, Note_on_c, 0, 59, 120
2, 3810, Note_on_c, 0, 47, 100
2, 3840, Note_on_c, 0, 47, 0
2, 3840, Note_on_c, 0, 59, 0
2, 3840, Note_on_c, 0, 49, 100
2, 3840, Note_on_c, 0, 56, 100
2, 3840, Note_on_c, 0, 61, 100
2, 3840, Note_on_c, 0, 64, 100
2, 3840, Note_on_c, 0, 68, 100
2, 3840, Note_on_c, 0, 73, 100
2, 3900, Note_on_c, 0, 73, 0
2, 3900, Note_on_c, 0, 56, 0
2, 3900, Note_on_c, 0, 61, 0
2, 3900, Note_on_c, 0, 49, 0
2, 3900, Note_on_c, 0, 68, 0
2, 3900, Note_on_c, 0, 64, 0
2, 3900, Note_on_c, 0, 73, 100
2, 3900, Note_on_c, 0, 49, 100
2, 3900, Note_on_c, 0, 56, 100
2, 3900, Note_on_c, 0, 61, 100
2, 3900, Note_on_c, 0, 64, 100
2, 3900, Note_on_c, 0, 68, 100
2, 3900, Note_on_c, 0, 73, 100
2, 3960, Note_on_c, 0, 73, 0
2, 3960, Note_on_c, 0, 64, 0
2, 3960, Note_on_c, 0, 49, 0
2, 3960, Note_on_c, 0, 56, 0
2, 3960, Note_on_c, 0, 73, 0
2, 3960, Note_on_c, 0, 68, 0
2, 3960, Note_on_c, 0, 61, 0
2, 3960, Note_on_c, 0, 49, 100
2, 3960, Note_on_c, 0, 56, 100
2, 3960, Note_on_c, 0, 61, 100
2, 3960, Note_on_c, 0, 64, 100
2, 3960, Note_on_c, 0, 68, 100
2, 3960, Note_on_c, 0, 73, 100
2, 4020, Note_on_c, 0, 73, 0
2, 4020, Note_on_c, 0, 56, 0
2, 4020, Note_on_c, 0, 61, 0
2, 4020, Note_on_c, 0, 49, 0
2, 4020, Note_on_c, 0, 68, 0
2, 4020, Note_on_c, 0, 64, 0
2, 4020, Note_on_c, 0, 61, 100
2, 4020, Note_on_c, 0, 49, 100
2, 4050, Note_on_c, 0, 49, 0
2, 4050, Note_on_c, 0, 61, 0
2, 4050, Note_on_c, 0, 54, 100
2, 4050, Note_on_c, 0, 59, 100
2, 4050, Note_on_c, 0, 63, 100
2, 4050, Note_on_c, 0, 66, 100
2, 4050, Note_on_c, 0, 71, 100
2, 4050, Note_on_c, 0, 47, 100
2, 4080, Note_on_c, 0, 47, 0
2, 4080, Note_on_c, 0, 59, 0
2, 4080, Note_on_c, 0, 63, 0
2, 4080, Note_on_c, 0, 54, 0
2, 4080, Note_on_c, 0, 71, 0
2, 4080, Note_on_c, 0, 66, 0
2, 4080, Note_on_c, 0, 47, 100
2, 4080, Note_on_c, 0, 54, 100
2, 4080, Note_on_c, 0, 59, 100
2, 4080, Note_on_c, 0, 63, 100
2, 4080, Note_on_c, 0, 66, 100
2, 4080, Note_on_c, 0, 71, 100
2, 4110, Note_on_c, 0, 71, 0
2, 4110, Note_on_c, 0, 54, 0
2, 4110, Note_on_c, 0, 59, 0
2, 4110, Note_on_c, 0, 47, 0
2, 4110, Note_on_c, 0, 66, 0
2, 4110, Note_on_c, 0, 63, 0
2, 4110, Note_on_c, 0, 63, 100
2, 4110, Note_on_c, 0, 59, 100
2, 4110, Note_on_c, 0, 54, 100
2, 4110, Note_on_c, 0, 47, 100
2, 4110, Note_on_c, 0, 66, 100
2, 4110, Note_on_c, 0, 71, 100
2, 4140, Note_on_c, 0, 71, 0
2, 4140, Note_on_c, 0, 59, 0
2, 4140, Note_on_c, 0, 54, 0
2, 4140, Note_on_c, 0, 63, 0
2, 4140, Note_on_c, 0, 66, 0
2, 4140, Note_on_c, 0, 47, 0
2, 4140, Note_on_c, 0, 47, 100
2, 4140, Note_on_c, 0, 54, 100
2, 4140, Note_on_c, 0, 59, 100
2, 4140, Note_on_c, 0, 63, 100
2, 4140, Note_on_c, 0, 66, 100
2, 4140, Note_on_c, 0, 71, 100
2, 4200, Note_on_c, 0, 71, 0
2, 4200, Note_on_c, 0, 54, 0
2, 4200, Note_on_c, 0, 59, 0
2, 4200, Note_on_c, 0, 47, 0
2, 4200, Note_on_c, 0, 66, 0
2, 4200, Note_on_c, 0, 63, 0
2, 4200, Note_on_c, 0, 47, 100
2, 4200, Note_on_c, 0, 54, 100
2, 4200, Note_on_c, 0, 59, 100
2, 4200, Note_on_c, 0, 63, 100
2, 4200, Note_on_c, 0, 66, 100
2, 4200, Note_on_c, 0, 71, 100
2, 4260, Note_on_c, 0, 71, 0
2, 4260, Note_on_c, 0, 54, 0
2, 4260, Note_on_c, 0, 59, 0
2, 4260, Note_on_c, 0, 47, 0
2, 4260, Note_on_c, 0, 66, 0
2, 4260, Note_on_c, 0, 63, 0
2, 4260, Note_on_c, 0, 59, 100
2, 4260, Note_on_c, 0, 47, 100
2, 4320, Note_on_c, 0, 47, 0
2, 4320, Note_on_c, 0, 59, 0
2, 4320, Note_on_c, 0, 45, 100
2, 4320, Note_on_c, 0, 52, 100
2, 4320, Note_on_c, 0, 57, 100
2, 4320, Note_on_c, 0, 61, 100
2, 4320, Note_on_c, 0, 64, 100
2, 4320, Note_on_c, 0, 69, 100
2, 4380, Note_on_c, 0, 69, 0
2, 4380, Note_on_c, 0, 52, 0
2, 4380, Note_on_c, 0, 57, 0
2, 4380, Note_on_c, 0, 45, 0
2, 4380, Note_on_c, 0, 64, 0
2, 4380, Note_on_c, 0, 61, 0
2, 4380, Note_on_c, 0, 52, 100
2, 4380, Note_on_c, 0, 45, 100
2, 4380, Note_on_c, 0, 57, 100
2, 4380, Note_on_c, 0, 61, 100
2, 4380, Note_on_c, 0, 64, 100
2, 4380, Note_on_c, 0, 69, 100
2, 4440, Note_on_c, 0, 69, 0
2, 4440, Note_on_c, 0, 45, 0
2, 4440, Note_on_c, 0, 57, 0
2, 4440, Note_on_c, 0, 52, 0
2, 4440, Note_on_c, 0, 64, 0
2, 4440, Note_on_c, 0, 61, 0
2, 4440, Note_on_c, 0, 52, 100
2, 4440, Note_on_c, 0, 45, 100
2, 4440, Note_on_c, 0, 57, 100
2, 4440, Note_on_c, 0, 61, 100
2, 4440, Note_on_c, 0, 64, 100
2, 4440, Note_on_c, 0, 69, 100
2, 4500, Note_on_c, 0, 69, 0
2, 4500, Note_on_c, 0, 45, 0
2, 4500, Note_on_c, 0, 57, 0
2, 4500, Note_on_c, 0, 52, 0
2, 4500, Note_on_c, 0, 64, 0
2, 4500, Note_on_c, 0, 61, 0
2, 4500, Note_on_c, 0, 57, 100
2, 4500, Note_on_c, 0, 45, 100
2, 4530, Note_on_c, 0, 45, 0
2, 4530, Note_on_c, 0, 57, 0
2, 4530, Note_on_c, 0, 54, 100
2, 4530, Note_on_c, 0, 59, 100
2, 4530, Note_on_c, 0, 63, 100
2, 4530, Note_on_c, 0, 66, 100
2, 4530, Note_on_c, 0, 71, 100
2, 4530, Note_on_c, 0, 47, 100
2, 4560, Note_on_c, 0, 47, 0
2, 4560, Note_on_c, 0, 59, 0
2, 4560, Note_on_c, 0, 63, 0
2, 4560, Note_on_c, 0, 54, 0
2, 4560, Note_on_c, 0, 71, 0
2, 4560, Note_on_c, 0, 66, 0
2, 4560, Note_on_c, 0, 47, 100
2, 4560, Note_on_c, 0, 54, 100
2, 4560, Note_on_c, 0, 59, 100
2, 4560, Note_on_c, 0, 63, 100
2, 4560, Note_on_c, 0, 66, 100
2, 4560, Note_on_c, 0, 71, 100
2, 4590, Note_on_c, 0, 71, 0
2, 4590, Note_on_c, 0, 54, 0
2, 4590, Note_on_c, 0, 59, 0
2, 4590, Note_on_c, 0, 47, 0
2, 4590, Note_on_c, 0, 66, 0
2, 4590, Note_on_c, 0, 63, 0
2, 4590, Note_on_c, 0, 63, 100
2, 4590, Note_on_c, 0, 59, 100
2, 4590, Note_on_c, 0, 54, 100
2, 4590, Note_on_c, 0, 47, 100
2, 4590, Note_on_c, 0, 66, 100
2, 4590, Note_on_c, 0, 71, 100
2, 4620, Note_on_c, 0, 71, 0
2, 4620, Note_on_c, 0, 59, 0
2, 4620, Note_on_c, 0, 54, 0
2, 4620, Note_on_c, 0, 63, 0
2, 4620, Note_on_c, 0, 66, 0
2, 4620, Note_on_c, 0, 47, 0
2, 4620, Note_on_c, 0, 47, 100
2, 4620, Note_on_c, 0, 54, 100
2, 4620, Note_on_c, 0, 59, 100
2, 4620, Note_on_c, 0, 63, 100
2, 4620, Note_on_c, 0, 66, 100
2, 4620, Note_on_c, 0, 71, 100
2, 4680, Note_on_c, 0, 71, 0
2, 4680, Note_on_c, 0, 54, 0
2, 4680, Note_on_c, 0, 59, 0
2, 4680, Note_on_c, 0, 47, 0
2, 4680, Note_on_c, 0, 66, 0
2, 4680, Note_on_c, 0, 63, 0
2, 4680, Note_on_c, 0, 66, 100
2, 4680, Note_on_c, 0, 63, 100
2, 4680, Note_on_c, 0, 59, 100
2, 4680, Note_on_c, 0, 54, 100
2, 4680, Note_on_c, 0, 47, 100
2, 4680, Note_on_c, 0, 71, 100
2, 4740, Note_on_c, 0, 71, 0
2, 4740, Note_on_c, 0, 63, 0
2, 4740, Note_on_c, 0, 59, 0
2, 4740, Note_on_c, 0, 66, 0
2, 4740, Note_on_c, 0, 47, 0
2, 4740, Note_on_c, 0, 54, 0
2, 4740, Note_on_c, 0, 48, 100
2, 4740, Note_on_c, 0, 55, 100
2, 4740, Note_on_c, 0, 60, 100
2, 4740, Note_on_c, 0, 64, 100
2, 4740, Note_on_c, 0, 67, 100
2, 4740, Note_on_c, 0, 72, 100
2, 4800, Note_on_c, 0, 72, 0
2, 4800, Note_on_c, 0, 55, 0
2, 4800, Note_on_c, 0, 60, 0
2, 4800, Note_on_c, 0, 48, 0
2, 4800, Note_on_c, 0, 67, 0
2, 4800, Note_on_c, 0, 64, 0
2, 4800, Note_on_c, 0, 61, 100
2, 4800, Note_on_c, 0, 68, 100
2, 4802, Note_on_c, 0, 52, 100
2, 4803, Note_on_c, 0, 49, 100
2, 4804, Note_on_c, 0, 56, 100
2, 4805, Note_on_c, 0, 64, 100
2, 5040, Note_on_c, 0, 68, 0
2, 5040, Note_on_c, 0, 61, 0
2, 5040, Note_on_c, 0, 47, 100
2, 5040, Note_on_c, 0, 51, 100
2, 5040, Note_on_c, 0, 54, 100
2, 5040, Note_on_c, 0, 59, 100
2, 5040, Note_on_c, 0, 63, 100
2, 5040, Note_on_c, 0, 66, 100
2, 5042, Note_on_c, 0, 52, 0
2, 5043, Note_on_c, 0, 49, 0
2, 5044, Note_on_c, 0, 56, 0
2, 5045, Note_on_c, 0, 64, 0
2, 5220, Note_on_c, 0, 54, 0
2, 5220, Note_on_c, 0, 51, 0
2, 5220, Note_on_c, 0, 66, 0
2, 5220, Note_on_c, 0, 47, 0
2, 5220, Note_on_c, 0, 63, 0
2, 5220, Note_on_c, 0, 59, 0
2, 5220, Note_on_c, 0, 59, 100
2, 5220, Note_on_c, 0, 47, 100
2, 5280, Note_on_c, 0, 47, 0
2, 5280, Note_on_c, 0, 59, 0
2, 5280, Note_on_c, 0, 49, 100
2, 5280, Note_on_c, 0, 52, 100
2, 5280, Note_on_c, 0, 61, 100
2, 5281, Note_on_c, 0, 57, 100
2, 5283, Note_on_c, 0, 69, 100
2, 5284, Note_on_c, 0, 64, 100
2, 5520, Note_on_c, 0, 61, 0
2, 5520, Note_on_c, 0, 49, 0
2, 5520, Note_on_c, 0, 52, 0
2, 5521, Note_on_c, 0, 57, 0
2, 5523, Note_on_c, 0, 69, 0
2, 5524, Note_on_c, 0, 64, 0
2, 5580, Note_on_c, 0, 47, 100
2, 5580, Note_on_c, 0, 51, 100
2, 5580, Note_on_c, 0, 54, 100
2, 5580, Note_on_c, 0, 59, 100
2, 5580, Note_on_c, 0, 63, 100
2, 5580, Note_on_c, 0, 66, 100
2, 5640, Note_on_c, 0, 66, 0
2, 5640, Note_on_c, 0, 51, 0
2, 5640, Note_on_c, 0, 54, 0
2, 5640, Note_on_c, 0, 47, 0
2, 5640, Note_on_c, 0, 63, 0
2, 5640, Note_on_c, 0, 59, 0
2, 5640, Note_on_c, 0, 47, 100
2, 5640, Note_on_c, 0, 51, 100
2, 5640, Note_on_c, 0, 54, 100
2, 5640, Note_on_c, 0, 59, 100
2, 5640, Note_on_c, 0, 63, 100
2, 5640, Note_on_c, 0, 66, 100
2, 5700, Note_on_c, 0, 66, 0
2, 5700, Note_on_c, 0, 51, 0
2, 5700, Note_on_c, 0, 54, 0
2, 5700, Note_on_c, 0, 47, 0
2, 5700, Note_on_c, 0, 63, 0
2, 5700, Note_on_c, 0, 59, 0
2, 5700, Note_on_c, 0, 49, 100
2, 5700, Note_on_c, 0, 52, 100
2, 5700, Note_on_c, 0, 56, 100
2, 5700, Note_on_c, 0, 61, 100
2, 5700, Note_on_c, 0, 64, 100
2, 5700, Note_on_c, 0, 68, 100
2, 5760, Note_on_c, 0, 68, 0
2, 5760, Note_on_c, 0, 52, 0
2, 5760, Note_on_c, 0, 56, 0
2, 5760, Note_on_c, 0, 49, 0
2, 5760, Note_on_c, 0, 64, 0
2, 5760, Note_on_c, 0, 61, 0
2, 5760, Note_on_c, 0, 49, 100
2, 5760, Note_on_c, 0, 52, 100
2, 5760, Note_on_c, 0, 56, 100
2, 5760, Note_on_c, 0, 61, 100
2, 5760, Note_on_c, 0, 64, 100
2, 5760, Note_on_c, 0, 68, 100
2, 6000, Note_on_c, 0, 68, 0
2, 6000, Note_on_c, 0, 52, 0
2, 6000, Note_on_c, 0, 56, 0
2, 6000, Note_on_c, 0, 49, 0
2, 6000, Note_on_c, 0, 64, 0
2, 6000, Note_on_c, 0, 61, 0
2, 6000, Note_on_c, 0, 47, 100
2, 6000, Note_on_c, 0, 51, 100
2, 6000, Note_on_c, 0, 54, 100
2, 6000, Note_on_c, 0, 59, 100
2, 6000, Note_on_c, 0, 63, 100
2, 6000, Note_on_c, 0, 66, 100
2, 6240, Note_on_c, 0, 66, 0
2, 6240, Note_on_c, 0, 51, 0
2, 6240, Note_on_c, 0, 54, 0
2, 6240, Note_on_c, 0, 47, 0
2, 6240, Note_on_c, 0, 63, 0
2, 6240, Note_on_c, 0, 59, 0
2, 6240, Note_on_c, 0, 49, 100
2, 6240, Note_on_c, 0, 52, 100
2, 6240, Note_on_c, 0, 57, 100
2, 6240, Note_on_c, 0, 61, 100
2, 6240, Note_on_c, 0, 64, 100
2, 6240, Note_on_c, 0, 69, 100
2, 6480, Note_on_c, 0, 69, 0
2, 6480, Note_on_c, 0, 52, 0
2, 6480, Note_on_c, 0, 57, 0
2, 6480, Note_on_c, 0, 49, 0
2, 6480, Note_on_c, 0, 64, 0
2, 6480, Note_on_c, 0, 61, 0
2, 6540, Note_on_c, 0, 47, 100
2, 6540, Note_on_c, 0, 51, 100
2, 6540, Note_on_c, 0, 54, 100
2, 6540, Note_on_c, 0, 59, 100
2, 6540, Note_on_c, 0, 64, 120
2, 6600, Note_on_c, 0, 64, 0
2, 6600, Note_on_c, 0, 54, 0
2, 6600, Note_on_c, 0, 47, 0
2, 6600, Note_on_c, 0, 51, 0
2, 6600, Note_on_c, 0, 59, 0
2, 6600, Note_on_c, 0, 47, 100
2, 6600, Note_on_c, 0, 51, 100
2, 6600, Note_on_c, 0, 54, 100
2, 6600, Note_on_c, 0, 59, 100
2, 6600, Note_on_c, 0, 64, 120
2, 6660, Note_on_c, 0, 64, 0
2, 6660, Note_on_c, 0, 54, 0
2, 6660, Note_on_c, 0, 47, 0
2, 6660, Note_on_c, 0, 51, 0
2, 6660, Note_on_c, 0, 59, 0
2, 6660, Note_on_c, 0, 47, 100
2, 6660, Note_on_c, 0, 59, 100
2, 6720, Note_on_c, 0, 59, 0
2, 6720, Note_on_c, 0, 47, 0
2, 6720, Note_on_c, 0, 49, 100
2, 6720, Note_on_c, 0, 52, 100
2, 6720, Note_on_c, 0, 56, 100
2, 6720, Note_on_c, 0, 61, 100
2, 6720, Note_on_c, 0, 64, 100
2, 6720, Note_on_c, 0, 68, 100
2, 6960, Note_on_c, 0, 68, 0
2, 6960, Note_on_c, 0, 52, 0
2, 6960, Note_on_c, 0, 56, 0
2, 6960, Note_on_c, 0, 49, 0
2, 6960, Note_on_c, 0, 64, 0
2, 6960, Note_on_c, 0, 61, 0
2, 6960, Note_on_c, 0, 47, 100
2, 6960, Note_on_c, 0, 51, 100
2, 6960, Note_on_c, 0, 54, 100
2, 6960, Note_on_c, 0, 59, 100
2, 6960, Note_on_c, 0, 63, 100
2, 6960, Note_on_c, 0, 66, 100
2, 7200, Note_on_c, 0, 66, 0
2, 7200, Note_on_c, 0, 51, 0
2, 7200, Note_on_c, 0, 54, 0
2, 7200, Note_on_c, 0, 47, 0
2, 7200, Note_on_c, 0, 63, 0
2, 7200, Note_on_c, 0, 59, 0
2, 7200, Note_on_c, 0, 49, 100
2, 7200, Note_on_c, 0, 52, 100
2, 7200, Note_on_c, 0, 57, 100
2, 7200, Note_on_c, 0, 61, 100
2, 7200, Note_on_c, 0, 64, 100
2, 7200, Note_on_c, 0, 69, 100
2, 7440, Note_on_c, 0, 69, 0
2, 7440, Note_on_c, 0, 52, 0
2, 7440, Note_on_c, 0, 57, 0
2, 7440, Note_on_c, 0, 49, 0
2, 7440, Note_on_c, 0, 64, 0
2, 7440, Note_on_c, 0, 61, 0
2, 7440, Note_on_c, 0, 57, 100
2, 7440, Note_on_c, 0, 45, 100
2, 7470, Note_on_c, 0, 45, 0
2, 7470, Note_on_c, 0, 57, 0
2, 7470, Note_on_c, 0, 57, 100
2, 7470, Note_on_c, 0, 45, 100
2, 7500, Note_on_c, 0, 45, 0
2, 7500, Note_on_c, 0, 57, 0
2, 7500, Note_on_c, 0, 47, 100
2, 7500, Note_on_c, 0, 51, 100
2, 7500, Note_on_c, 0, 54, 100
2, 7500, Note_on_c, 0, 59, 100
2, 7500, Note_on_c, 0, 63, 100
2, 7500, Note_on_c, 0, 66, 100
2, 7560, Note_on_c, 0, 66, 0
2, 7560, Note_on_c, 0, 51, 0
2, 7560, Note_on_c, 0, 54, 0
2, 7560, Note_on_c, 0, 47, 0
2, 7560, Note_on_c, 0, 63, 0
2, 7560, Note_on_c, 0, 59, 0
2, 7560, Note_on_c, 0, 47, 100
2, 7560, Note_on_c, 0, 51, 100
2, 7560, Note_on_c, 0, 54, 100
2, 7560, Note_on_c, 0, 59, 100
2, 7560, Note_on_c, 0, 63, 100
2, 7560, Note_on_c, 0, 66, 100
2, 7620, Note_on_c, 0, 66, 0
2, 7620, Note_on_c, 0, 51, 0
2, 7620, Note_on_c, 0, 54, 0
2, 7620, Note_on_c, 0, 47, 0
2, 7620, Note_on_c, 0, 63, 0
2, 7620, Note_on_c, 0, 59, 0
2, 7620, Note_on_c, 0, 49, 100
2, 7620, Note_on_c, 0, 52, 100
2, 7620, Note_on_c, 0, 56, 100
2, 7620, Note_on_c, 0, 61, 100
2, 7620, Note_on_c, 0, 64, 100
2, 7620, Note_on_c, 0, 68, 100
2, 7680, Note_on_c, 0, 68, 0
2, 7680, Note_on_c, 0, 52, 0
2, 7680, Note_on_c, 0, 56, 0
2, 7680, Note_on_c, 0, 49, 0
2, 7680, Note_on_c, 0, 64, 0
2, 7680, Note_on_c, 0, 61, 0
2, 7680, Note_on_c, 0, 49, 100
2, 7680, Note_on_c, 0, 52, 100
2, 7680, Note_on_c, 0, 56, 100
2, 7680, Note_on_c, 0, 61, 100
2, 7680, Note_on_c, 0, 64, 100
2, 7680, Note_on_c, 0, 68, 100
2, 7920, Note_on_c, 0, 68, 0
2, 7920, Note_on_c, 0, 52, 0
2, 7920, Note_on_c, 0, 56, 0
2, 7920, Note_on_c, 0, 49, 0
2, 7920, Note_on_c, 0, 64, 0
2, 7920, Note_on_c, 0, 61, 0
2, 7980, Note_on_c, 0, 47, 100
2, 7980, Note_on_c, 0, 51, 100
2, 7980, Note_on_c, 0, 54, 100
2, 7980, Note_on_c, 0, 59, 100
2, 7980, Note_on_c, 0, 63, 100
2, 7980, Note_on_c, 0, 66, 100
2, 8040, Note_on_c, 0, 66, 0
2, 8040, Note_on_c, 0, 51, 0
2, 8040, Note_on_c, 0, 54, 0
2, 8040, Note_on_c, 0, 47, 0
2, 8040, Note_on_c, 0, 63, 0
2, 8040, Note_on_c, 0, 59, 0
2, 8040, Note_on_c, 0, 47, 100
2, 8040, Note_on_c, 0, 51, 100
2, 8040, Note_on_c, 0, 54, 100
2, 8040, Note_on_c, 0, 59, 100
2, 8040, Note_on_c, 0, 63, 100
2, 8040, Note_on_c, 0, 66, 100
2, 8100, Note_on_c, 0, 66, 0
2, 8100, Note_on_c, 0, 51, 0
2, 8100, Note_on_c, 0, 54, 0
2, 8100, Note_on_c, 0, 47, 0
2, 8100, Note_on_c, 0, 63, 0
2, 8100, Note_on_c, 0, 59, 0
2, 8100, Note_on_c, 0, 49, 100
2, 8100, Note_on_c, 0, 52, 100
2, 8100, Note_on_c, 0, 57, 100
2, 8100, Note_on_c, 0, 61, 100
2, 8100, Note_on_c, 0, 64, 100
2, 8100, Note_on_c, 0, 69, 100
2, 8130, Note_on_c, 0, 69, 0
2, 8130, Note_on_c, 0, 52, 0
2, 8130, Note_on_c, 0, 57, 0
2, 8130, Note_on_c, 0, 49, 0
2, 8130, Note_on_c, 0, 64, 0
2, 8130, Note_on_c, 0, 61, 0
2, 8130, Note_on_c, 0, 49, 100
2, 8130, Note_on_c, 0, 52, 100
2, 8130, Note_on_c, 0, 57, 100
2, 8130, Note_on_c, 0, 61, 100
2, 8130, Note_on_c, 0, 64, 100
2, 8130, Note_on_c, 0, 69, 100
2, 8160, Note_on_c, 0, 69, 0
2, 8160, Note_on_c, 0, 52, 0
2, 8160, Note_on_c, 0, 57, 0
2, 8160, Note_on_c, 0, 49, 0
2, 8160, Note_on_c, 0, 64, 0
2, 8160, Note_on_c, 0, 61, 0
2, 8160, Note_on_c, 0, 49, 100
2, 8160, Note_on_c, 0, 52, 100
2, 8160, Note_on_c, 0, 57, 100
2, 8160, Note_on_c, 0, 61, 100
2, 8160, Note_on_c, 0, 64, 100
2, 8160, Note_on_c, 0, 69, 100
2, 8400, Note_on_c, 0, 69, 0
2, 8400, Note_on_c, 0, 52, 0
2, 8400, Note_on_c, 0, 57, 0
2, 8400, Note_on_c, 0, 49, 0
2, 8400, Note_on_c, 0, 64, 0
2, 8400, Note_on_c, 0, 61, 0
2, 8460, Note_on_c, 0, 59, 120
2, 8460, Note_on_c, 0, 64, 120
2, 8520, Note_on_c, 0, 64, 0
2, 8520, Note_on_c, 0, 59, 0
2, 8520, Note_on_c, 0, 54, 120
2, 8550, Note_on_c, 0, 54, 0
2, 8550, Note_on_c, 0, 56, 120
2, 8580, Note_on_c, 0, 56, 0
2, 8580, Note_on_c, 0, 59, 120
2, 8580, Note_on_c, 0, 64, 127
2, 8640, Note_on_c, 0, 64, 0
2, 8640, Note_on_c, 0, 59, 0
2, 8640, Note_on_c, 0, 49, 100
2, 8640, Note_on_c, 0, 52, 100
2, 8640, Note_on_c, 0, 56, 100
2, 8640, Note_on_c, 0, 61, 100
2, 8640, Note_on_c, 0, 64, 100
2, 8640, Note_on_c, 0, 68, 100
2, 8880, Note_on_c, 0, 68, 0
2, 8880, Note_on_c, 0, 52, 0
2, 8880, Note_on_c, 0, 56, 0
2, 8880, Note_on_c, 0, 49, 0
2, 8880, Note_on_c, 0, 64, 0
2, 8880, Note_on_c, 0, 61, 0
2, 8880, Note_on_c, 0, 47, 100
2, 8880, Note_on_c, 0, 51, 100
2, 8880, Note_on_c, 0, 54, 100
2, 8880, Note_on_c, 0, 59, 100
2, 8880, Note_on_c, 0, 63, 100
2, 8880, Note_on_c, 0, 66, 100
2, 9120, Note_on_c, 0, 66, 0
2, 9120, Note_on_c, 0, 51, 0
2, 9120, Note_on_c, 0, 54, 0
2, 9120, Note_on_c, 0, 47, 0
2, 9120, Note_on_c, 0, 63, 0
2, 9120, Note_on_c, 0, 59, 0
2, 9120, Note_on_c, 0, 49, 100
2, 9120, Note_on_c, 0, 52, 100
2, 9120, Note_on_c, 0, 57, 100
2, 9120, Note_on_c, 0, 61, 100
2, 9120, Note_on_c, 0, 64, 100
2, 9120, Note_on_c, 0, 69, 100
2, 9360, Note_on_c, 0, 69, 0
2, 9360, Note_on_c, 0, 52, 0
2, 9360, Note_on_c, 0, 57, 0
2, 9360, Note_on_c, 0, 49, 0
2, 9360, Note_on_c, 0, 64, 0
2, 9360, Note_on_c, 0, 61, 0
2, 9360, Note_on_c, 0, 49, 100
2, 9360, Note_on_c, 0, 61, 100
2, 9390, Note_on_c, 0, 61, 0
2, 9390, Note_on_c, 0, 49, 0
2, 9390, Note_on_c, 0, 49, 100
2, 9390, Note_on_c, 0, 61, 100
2, 9420, Note_on_c, 0, 61, 0
2, 9420, Note_on_c, 0, 49, 0
2, 9420, Note_on_c, 0, 47, 100
2, 9420, Note_on_c, 0, 51, 100
2, 9420, Note_on_c, 0, 54, 100
2, 9420, Note_on_c, 0, 59, 100
2, 9420, Note_on_c, 0, 63, 100
2, 9420, Note_on_c, 0, 66, 100
2, 9480, Note_on_c, 0, 66, 0
2, 9480, Note_on_c, 0, 51, 0
2, 9480, Note_on_c, 0, 54, 0
2, 9480, Note_on_c, 0, 47, 0
2, 9480, Note_on_c, 0, 63, 0
2, 9480, Note_on_c, 0, 59, 0
2, 9480, Note_on_c, 0, 47, 100
2, 9480, Note_on_c, 0, 51, 100
2, 9480, Note_on_c, 0, 54, 100
2, 9480, Note_on_c, 0, 59, 100
2, 9480, Note_on_c, 0, 63, 100
2, 9480, Note_on_c, 0, 66, 100
2, 9540, Note_on_c, 0, 66, 0
2, 9540, Note_on_c, 0, 51, 0
2, 9540, Note_on_c, 0, 54, 0
2, 9540, Note_on_c, 0, 47, 0
2, 9540, Note_on_c, 0, 63, 0
2, 9540, Note_on_c, 0, 59, 0
2, 9540, Note_on_c, 0, 49, 100
2, 9540, Note_on_c, 0, 52, 100
2, 9540, Note_on_c, 0, 56, 100
2, 9540, Note_on_c, 0, 61, 100
2, 9540, Note_on_c, 0, 64, 100
2, 9540, Note_on_c, 0, 68, 100
2, 9570, Note_on_c, 0, 68, 0
2, 9570, Note_on_c, 0, 52, 0
2, 9570, Note_on_c, 0, 56, 0
2, 9570, Note_on_c, 0, 49, 0
2, 9570, Note_on_c, 0, 64, 0
2, 9570, Note_on_c, 0, 61, 0
2, 9570, Note_on_c, 0, 68, 100
2, 9570, Note_on_c, 0, 64, 100
2, 9570, Note_on_c, 0, 61, 100
2, 9570, Note_on_c, 0, 56, 100
2, 9570, Note_on_c, 0, 52, 100
2, 9570, Note_on_c, 0, 49, 100
2, 9600, Note_on_c, 0, 49, 0
2, 9600, Note_on_c, 0, 64, 0
2, 9600, Note_on_c, 0, 61, 0
2, 9600, Note_on_c, 0, 68, 0
2, 9600, Note_on_c, 0, 52, 0
2, 9600, Note_on_c, 0, 56, 0
2, 9600, Note_on_c, 0, 68, 100
2, 9600, Note_on_c, 0, 49, 100
2, 9600, Note_on_c, 0, 52, 100
2, 9600, Note_on_c, 0, 56, 100
2, 9600, Note_on_c, 0, 61, 100
2, 9600, Note_on_c, 0, 64, 100
2, 9600, Note_on_c, 0, 68, 100
2, 9840, Note_on_c, 0, 68, 0
2, 9840, Note_on_c, 0, 61, 0
2, 9840, Note_on_c, 0, 49, 0
2, 9840, Note_on_c, 0, 52, 0
2, 9840, Note_on_c, 0, 68, 0
2, 9840, Note_on_c, 0, 64, 0
2, 9840, Note_on_c, 0, 56, 0
2, 9840, Note_on_c, 0, 47, 100
2, 9840, Note_on_c, 0, 51, 100
2, 9840, Note_on_c, 0, 54, 100
2, 9840, Note_on_c, 0, 59, 100
2, 9840, Note_on_c, 0, 63, 100
2, 9840, Note_on_c, 0, 66, 100
2, 10080, Note_on_c, 0, 66, 0
2, 10080, Note_on_c, 0, 51, 0
2, 10080, Note_on_c, 0, 54, 0
2, 10080, Note_on_c, 0, 47, 0
2, 10080, Note_on_c, 0, 63, 0
2, 10080, Note_on_c, 0, 59, 0
2, 10080, Note_on_c, 0, 49, 100
2, 10080, Note_on_c, 0, 52, 100
2, 10080, Note_on_c, 0, 57, 100
2, 10080, Note_on_c, 0, 61, 100
2, 10080, Note_on_c, 0, 64, 100
2, 10080, Note_on_c, 0, 69, 100
2, 10320, Note_on_c, 0, 69, 0
2, 10320, Note_on_c, 0, 52, 0
2, 10320, Note_on_c, 0, 57, 0
2, 10320, Note_on_c, 0, 49, 0
2, 10320, Note_on_c, 0, 64, 0
2, 10320, Note_on_c, 0, 61, 0
2, 10380, Note_on_c, 0, 47, 100
2, 10380, Note_on_c, 0, 51, 100
2, 10380, Note_on_c, 0, 54, 100
2, 10380, Note_on_c, 0, 59, 100
2, 10380, Note_on_c, 0, 63, 100
2, 10380, Note_on_c, 0, 66, 100
2, 10440, Note_on_c, 0, 66, 0
2, 10440, Note_on_c, 0, 51, 0
2, 10440, Note_on_c, 0, 54, 0
2, 10440, Note_on_c, 0, 47, 0
2, 10440, Note_on_c, 0, 63, 0
2, 10440, Note_on_c, 0, 59, 0
2, 10440, Note_on_c, 0, 47, 100
2, 10440, Note_on_c, 0, 51, 100
2, 10440, Note_on_c, 0, 54, 100
2, 10440, Note_on_c, 0, 59, 100
2, 10440, Note_on_c, 0, 63, 100
2, 10440, Note_on_c, 0, 66, 100
2, 10500, Note_on_c, 0, 66, 0
2, 10500, Note_on_c, 0, 51, 0
2, 10500, Note_on_c, 0, 54, 0
2, 10500, Note_on_c, 0, 47, 0
2, 10500, Note_on_c, 0, 63, 0
2, 10500, Note_on_c, 0, 59, 0
2, 10500, Note_on_c, 0, 59, 100
2, 10500, Note_on_c, 0, 47, 100
2, 10530, Note_on_c, 0, 47, 0
2, 10530, Note_on_c, 0, 59, 0
2, 10530, Note_on_c, 0, 59, 100
2, 10530, Note_on_c, 0, 47, 100
2, 10560, Note_on_c, 0, 47, 0
2, 10560, Note_on_c, 0, 59, 0
2, 10560, Note_on_c, 0, 68, 100
2, 10560, Note_on_c, 0, 49, 100
2, 10560, Note_on_c, 0, 52, 100
2, 10560, Note_on_c, 0, 56, 100
2, 10560, Note_on_c, 0, 61, 100
2, 10560, Note_on_c, 0, 64, 100
2, 10560, Note_on_c, 0, 68, 100
2, 10800, Note_on_c, 0, 68, 0
2, 10800, Note_on_c, 0, 61, 0
2, 10800, Note_on_c, 0, 49, 0
2, 10800, Note_on_c, 0, 52, 0
2, 10800, Note_on_c, 0, 68, 0
2, 10800, Note_on_c, 0, 64, 0
2, 10800, Note_on_c, 0, 56, 0
2, 10800, Note_on_c, 0, 47, 100
2, 10800, Note_on_c, 0, 51, 100
2, 10800, Note_on_c, 0, 54, 100
2, 10800, Note_on_c, 0, 59, 100
2, 10800, Note_on_c, 0, 63, 100
2, 10800, Note_on_c, 0, 66, 100
2, 11040, Note_on_c, 0, 66, 0
2, 11040, Note_on_c, 0, 51, 0
2, 11040, Note_on_c, 0, 54, 0
2, 11040, Note_on_c, 0, 47, 0
2, 11040, Note_on_c, 0, 63, 0
2, 11040, Note_on_c, 0, 59, 0
2, 11040, Note_on_c, 0, 49, 100
2, 11040, Note_on_c, 0, 52, 100
2, 11040, Note_on_c, 0, 57, 100
2, 11040, Note_on_c, 0, 61, 100
2, 11040, Note_on_c, 0, 64, 100
2, 11040, Note_on_c, 0, 69, 100
2, 11160, Note_on_c, 0, 69, 0
2, 11160, Note_on_c, 0, 52, 0
2, 11160, Note_on_c, 0, 57, 0
2, 11160, Note_on_c, 0, 49, 0
2, 11160, Note_on_c, 0, 64, 0
2, 11160, Note_on_c, 0, 61, 0
2, 11160, Note_on_c, 0, 49, 100
2, 11160, Note_on_c, 0, 52, 100
2, 11160, Note_on_c, 0, 57, 100
2, 11160, Note_on_c, 0, 61, 100
2, 11160, Note_on_c, 0, 64, 100
2, 11160, Note_on_c, 0, 69, 100
2, 11190, Note_on_c, 0, 69, 0
2, 11190, Note_on_c, 0, 52, 0
2, 11190, Note_on_c, 0, 57, 0
2, 11190, Note_on_c, 0, 49, 0
2, 11190, Note_on_c, 0, 64, 0
2, 11190, Note_on_c, 0, 61, 0
2, 11190, Note_on_c, 0, 49, 100
2, 11190, Note_on_c, 0, 52, 100
2, 11190, Note_on_c, 0, 57, 100
2, 11190, Note_on_c, 0, 61, 100
2, 11190, Note_on_c, 0, 64, 100
2, 11190, Note_on_c, 0, 69, 100
2, 11280, Note_on_c, 0, 69, 0
2, 11280, Note_on_c, 0, 52, 0
2, 11280, Note_on_c, 0, 57, 0
2, 11280, Note_on_c, 0, 49, 0
2, 11280, Note_on_c, 0, 64, 0
2, 11280, Note_on_c, 0, 61, 0
2, 11340, Note_on_c, 0, 47, 120
2, 11340, Note_on_c, 0, 51, 120
2, 11340, Note_on_c, 0, 54, 120
2, 11340, Note_on_c, 0, 59, 120
2, 11340, Note_on_c, 0, 63, 120
2, 11340, Note_on_c, 0, 66, 120
2, 11400, Note_on_c, 0, 66, 0
2, 11400, Note_on_c, 0, 51, 0
2, 11400, Note_on_c, 0, 54, 0
2, 11400, Note_on_c, 0, 47, 0
2, 11400, Note_on_c, 0, 63, 0
2, 11400, Note_on_c, 0, 59, 0
2, 11400, Note_on_c, 0, 47, 100
2, 11400, Note_on_c, 0, 51, 100
2, 11400, Note_on_c, 0, 54, 100
2, 11400, Note_on_c, 0, 59, 100
2, 11400, Note_on_c, 0, 63, 100
2, 11400, Note_on_c, 0, 66, 100
2, 11430, Note_on_c, 0, 66, 0
2, 11430, Note_on_c, 0, 51, 0
2, 11430, Note_on_c, 0, 54, 0
2, 11430, Note_on_c, 0, 47, 0
2, 11430, Note_on_c, 0, 63, 0
2, 11430, Note_on_c, 0, 59, 0
2, 11430, Note_on_c, 0, 54, 100
2, 11430, Note_on_c, 0, 51, 100
2, 11430, Note_on_c, 0, 47, 100
2, 11430, Note_on_c, 0, 59, 100
2, 11430, Note_on_c, 0, 63, 100
2, 11430, Note_on_c, 0, 66, 100
2, 11460, Note_on_c, 0, 66, 0
2, 11460, Note_on_c, 0, 51, 0
2, 11460, Note_on_c, 0, 47, 0
2, 11460, Note_on_c, 0, 54, 0
2, 11460, Note_on_c, 0, 63, 0
2, 11460, Note_on_c, 0, 59, 0
2, 11460, Note_on_c, 0, 47, 100
2, 11460, Note_on_c, 0, 51, 100
2, 11460, Note_on_c, 0, 54, 100
2, 11460, Note_on_c, 0, 59, 100
2, 11460, Note_on_c, 0, 63, 100
2, 11460, Note_on_c, 0, 66, 100
2, 11520, Note_on_c, 0, 66, 0
2, 11520, Note_on_c, 0, 51, 0
2, 11520, Note_on_c, 0, 54, 0
2, 11520, Note_on_c, 0, 47, 0
2, 11520, Note_on_c, 0, 63, 0
2, 11520, Note_on_c, 0, 59, 0
2, 11520, Note_on_c, 0, 49, 100
2, 11520, Note_on_c, 0, 52, 100
2, 11520, Note_on_c, 0, 56, 100
2, 11520, Note_on_c, 0, 61, 100
2, 11520, Note_on_c, 0, 64, 100
2, 11520, Note_on_c, 0, 68, 100
2, 11760, Note_on_c, 0, 68, 0
2, 11760, Note_on_c, 0, 52, 0
2, 11760, Note_on_c, 0, 56, 0
2, 11760, Note_on_c, 0, 49, 0
2, 11760, Note_on_c, 0, 64, 0
2, 11760, Note_on_c, 0, 61, 0
2, 11760, Note_on_c, 0, 47, 100
2, 11760, Note_on_c, 0, 51, 100
2, 11760, Note_on_c, 0, 54, 100
2, 11760, Note_on_c, 0, 59, 100
2, 11760, Note_on_c, 0, 63, 100
2, 11760, Note_on_c, 0, 66, 100
2, 11880, Note_on_c, 0, 66, 0
2, 11880, Note_on_c, 0, 51, 0
2, 11880, Note_on_c, 0, 54, 0
2, 11880, Note_on_c, 0, 47, 0
2, 11880, Note_on_c, 0, 63, 0
2, 11880, Note_on_c, 0, 59, 0
2, 11880, Note_on_c, 0, 47, 100
2, 11880, Note_on_c, 0, 51, 100
2, 11880, Note_on_c, 0, 54, 100
2, 11880, Note_on_c, 0, 59, 100
2, 11880, Note_on_c, 0, 63, 100
2, 11880, Note_on_c, 0, 66, 100
2, 11940, Note_on_c, 0, 66, 0
2, 11940, Note_on_c, 0, 51, 0
2, 11940, Note_on_c, 0, 54, 0
2, 11940, Note_on_c, 0, 47, 0
2, 11940, Note_on_c, 0, 63, 0
2, 11940, Note_on_c, 0, 59, 0
2, 11940, Note_on_c, 0, 49, 100
2, 11940, Note_on_c, 0, 52, 100
2, 11940, Note_on_c, 0, 57, 100
2, 11940, Note_on_c, 0, 61, 100
2, 11940, Note_on_c, 0, 69, 100
2, 11940, Note_on_c, 0, 64, 100
2, 12000, Note_on_c, 0, 64, 0
2, 12000, Note_on_c, 0, 52, 0
2, 12000, Note_on_c, 0, 57, 0
2, 12000, Note_on_c, 0, 49, 0
2, 12000, Note_on_c, 0, 69, 0
2, 12000, Note_on_c, 0, 61, 0
2, 12000, Note_on_c, 0, 61, 100
2, 12000, Note_on_c, 0, 49, 100
2, 12030, Note_on_c, 0, 49, 0
2, 12030, Note_on_c, 0, 61, 0
2, 12030, Note_on_c, 0, 69, 100
2, 12030, Note_on_c, 0, 64, 100
2, 12030, Note_on_c, 0, 61, 100
2, 12030, Note_on_c, 0, 57, 100
2, 12030, Note_on_c, 0, 52, 100
2, 12030, Note_on_c, 0, 49, 100
2, 12060, Note_on_c, 0, 49, 0
2, 12060, Note_on_c, 0, 64, 0
2, 12060, Note_on_c, 0, 61, 0
2, 12060, Note_on_c, 0, 69, 0
2, 12060, Note_on_c, 0, 52, 0
2, 12060, Note_on_c, 0, 57, 0
2, 12060, Note_on_c, 0, 61, 100
2, 12060, Note_on_c, 0, 49, 100
2, 12090, Note_on_c, 0, 49, 0
2, 12090, Note_on_c, 0, 61, 0
2, 12090, Note_on_c, 0, 61, 100
2, 12090, Note_on_c, 0, 49, 100
2, 12120, Note_on_c, 0, 49, 0
2, 12120, Note_on_c, 0, 61, 0
2, 12120, Note_on_c, 0, 69, 100
2, 12120, Note_on_c, 0, 64, 100
2, 12120, Note_on_c, 0, 61, 100
2, 12120, Note_on_c, 0, 57, 100
2, 12120, Note_on_c, 0, 52, 100
2, 12120, Note_on_c, 0, 49, 100
2, 12150, Note_on_c, 0, 49, 0
2, 12150, Note_on_c, 0, 64, 0
2, 12150, Note_on_c, 0, 61, 0
2, 12150, Note_on_c, 0, 69, 0
2, 12150, Note_on_c, 0, 52, 0
2, 12150, Note_on_c, 0, 57, 0
2, 12150, Note_on_c, 0, 61, 100
2, 12150, Note_on_c, 0, 49, 100
2, 12180, Note_on_c, 0, 49, 0
2, 12180, Note_on_c, 0, 61, 0
2, 12180, Note_on_c, 0, 61, 100
2, 12180, Note_on_c, 0, 49, 100
2, 12210, Note_on_c, 0, 49, 0
2, 12210, Note_on_c, 0, 61, 0
2, 12210, Note_on_c, 0, 57, 100
2, 12210, Note_on_c, 0, 61, 100
2, 12210, Note_on_c, 0, 64, 100
2, 12210, Note_on_c, 0, 69, 100
2, 12210, Note_on_c, 0, 52, 100
2, 12210, Note_on_c, 0, 49, 100
2, 12240, Note_on_c, 0, 49, 0
2, 12240, Note_on_c, 0, 61, 0
2, 12240, Note_on_c, 0, 64, 0
2, 12240, Note_on_c, 0, 57, 0
2, 12240, Note_on_c, 0, 52, 0
2, 12240, Note_on_c, 0, 69, 0
2, 12270, Note_on_c, 0, 47, 100
2, 12270, Note_on_c, 0, 51, 100
2, 12270, Note_on_c, 0, 54, 100
2, 12270, Note_on_c, 0, 59, 100
2, 12270, Note_on_c, 0, 63, 100
2, 12270, Note_on_c, 0, 66, 100
2, 12300, Note_on_c, 0, 66, 0
2, 12300, Note_on_c, 0, 51, 0
2, 12300, Note_on_c, 0, 54, 0
2, 12300, Note_on_c, 0, 47, 0
2, 12300, Note_on_c, 0, 63, 0
2, 12300, Note_on_c, 0, 59, 0
2, 12300, Note_on_c, 0, 47, 100
2, 12300, Note_on_c, 0, 51, 100
2, 12300, Note_on_c, 0, 54, 100
2, 12300, Note_on_c, 0, 59, 100
2, 12300, Note_on_c, 0, 63, 100
2, 12300, Note_on_c, 0, 66, 100
2, 12360, Note_on_c, 0, 66, 0
2, 12360, Note_on_c, 0, 51, 0
2, 12360, Note_on_c, 0, 54, 0
2, 12360, Note_on_c, 0, 47, 0
2, 12360, Note_on_c, 0, 63, 0
2, 12360, Note_on_c, 0, 59, 0
2, 12360, Note_on_c, 0, 47, 100
2, 12360, Note_on_c, 0, 51, 100
2, 12360, Note_on_c, 0, 54, 100
2, 12360, Note_on_c, 0, 59, 100
2, 12360, Note_on_c, 0, 63, 100
2, 12360, Note_on_c, 0, 66, 100
2, 12390, Note_on_c, 0, 66, 0
2, 12390, Note_on_c, 0, 51, 0
2, 12390, Note_on_c, 0, 54, 0
2, 12390, Note_on_c, 0, 47, 0
2, 12390, Note_on_c, 0, 63, 0
2, 12390, Note_on_c, 0, 59, 0
2, 12390, Note_on_c, 0, 54, 100
2, 12390, Note_on_c, 0, 51, 100
2, 12390, Note_on_c, 0, 47, 100
2, 12390, Note_on_c, 0, 63, 100
2, 12390, Note_on_c, 0, 59, 100
2, 12390, Note_on_c, 0, 66, 100
2, 12420, Note_on_c, 0, 66, 0
2, 12420, Note_on_c, 0, 51, 0
2, 12420, Note_on_c, 0, 47, 0
2, 12420, Note_on_c, 0, 54, 0
2, 12420, Note_on_c, 0, 59, 0
2, 12420, Note_on_c, 0, 63, 0
2, 12420, Note_on_c, 0, 47, 100
2, 12420, Note_on_c, 0, 51, 100
2, 12420, Note_on_c, 0, 54, 100
2, 12420, Note_on_c, 0, 59, 100
2, 12420, Note_on_c, 0, 63, 100
2, 12420, Note_on_c, 0, 66, 100
2, 12480, Note_on_c, 0, 66, 0
2, 12480, Note_on_c, 0, 51, 0
2, 12480, Note_on_c, 0, 54, 0
2, 12480, Note_on_c, 0, 47, 0
2, 12480, Note_on_c, 0, 63, 0
2, 12480, Note_on_c, 0, 59, 0
2, 12480, Note_on_c, 0, 49, 100
2, 12480, Note_on_c, 0, 52, 100
2, 12480, Note_on_c, 0, 56, 100
2, 12480, Note_on_c, 0, 61, 100
2, 12480, Note_on_c, 0, 64, 100
2, 12480, Note_on_c, 0, 68, 100
2, 12540, Note_on_c, 0, 68, 0
2, 12540, Note_on_c, 0, 52, 0
2, 12540, Note_on_c, 0, 56, 0
2, 12540, Note_on_c, 0, 49, 0
2, 12540, Note_on_c, 0, 64, 0
2, 12540, Note_on_c, 0, 61, 0
2, 12540, Note_on_c, 0, 49, 100
2, 12540, Note_on_c, 0, 52, 100
2, 12540, Note_on_c, 0, 56, 100
2, 12540, Note_on_c, 0, 61, 100
2, 12540, Note_on_c, 0, 64, 100
2, 12540, Note_on_c, 0, 68, 100
2, 12600, Note_on_c, 0, 68, 0
2, 12600, Note_on_c, 0, 52, 0
2, 12600, Note_on_c, 0, 56, 0
2, 12600, Note_on_c, 0, 49, 0
2, 12600, Note_on_c, 0, 64, 0
2, 12600, Note_on_c, 0, 61, 0
2, 12600, Note_on_c, 0, 56, 100
2, 12600, Note_on_c, 0, 52, 100
2, 12600, Note_on_c, 0, 49, 100
2, 12600, Note_on_c, 0, 61, 100
2, 12600, Note_on_c, 0, 64, 100
2, 12600, Note_on_c, 0, 68, 100
2, 12660, Note_on_c, 0, 68, 0
2, 12660, Note_on_c, 0, 52, 0
2, 12660, Note_on_c, 0, 49, 0
2, 12660, Note_on_c, 0, 56, 0
2, 12660, Note_on_c, 0, 64, 0
2, 12660, Note_on_c, 0, 61, 0
2, 12660, Note_on_c, 0, 52, 100
2, 12660, Note_on_c, 0, 49, 100
2, 12660, Note_on_c, 0, 56, 100
2, 12660, Note_on_c, 0, 61, 100
2, 12660, Note_on_c, 0, 64, 100
2, 12660, Note_on_c, 0, 68, 100
2, 12690, Note_on_c, 0, 68, 0
2, 12690, Note_on_c, 0, 49, 0
2, 12690, Note_on_c, 0, 56, 0
2, 12690, Note_on_c, 0, 52, 0
2, 12690, Note_on_c, 0, 64, 0
2, 12690, Note_on_c, 0, 61, 0
2, 12690, Note_on_c, 0, 56, 100
2, 12690, Note_on_c, 0, 52, 100
2, 12690, Note_on_c, 0, 49, 100
2, 12690, Note_on_c, 0, 61, 100
2, 12690, Note_on_c, 0, 64, 100
2, 12690, Note_on_c, 0, 68, 100
2, 12720, Note_on_c, 0, 68, 0
2, 12720, Note_on_c, 0, 52, 0
2, 12720, Note_on_c, 0, 49, 0
2, 12720, Note_on_c, 0, 56, 0
2, 12720, Note_on_c, 0, 64, 0
2, 12720, Note_on_c, 0, 61, 0
2, 12720, Note_on_c, 0, 47, 100
2, 12720, Note_on_c, 0, 51, 100
2, 12720, Note_on_c, 0, 54, 100
2, 12720, Note_on_c, 0, 59, 100
2, 12720, Note_on_c, 0, 63, 100
2, 12720, Note_on_c, 0, 66, 100
2, 12780, Note_on_c, 0, 66, 0
2, 12780, Note_on_c, 0, 51, 0
2, 12780, Note_on_c, 0, 54, 0
2, 12780, Note_on_c, 0, 47, 0
2, 12780, Note_on_c, 0, 63, 0
2, 12780, Note_on_c, 0, 59, 0
2, 12780, Note_on_c, 0, 66, 100
2, 12780, Note_on_c, 0, 63, 100
2, 12780, Note_on_c, 0, 59, 100
2, 12780, Note_on_c, 0, 54, 100
2, 12780, Note_on_c, 0, 51, 100
2, 12780, Note_on_c, 0, 47, 100
2, 12840, Note_on_c, 0, 47, 0
2, 12840, Note_on_c, 0, 63, 0
2, 12840, Note_on_c, 0, 59, 0
2, 12840, Note_on_c, 0, 66, 0
2, 12840, Note_on_c, 0, 51, 0
2, 12840, Note_on_c, 0, 54, 0
2, 12840, Note_on_c, 0, 47, 100
2, 12840, Note_on_c, 0, 51, 100
2, 12840, Note_on_c, 0, 54, 100
2, 12840, Note_on_c, 0, 59, 100
2, 12840, Note_on_c, 0, 63, 100
2, 12840, Note_on_c, 0, 66, 100
2, 12900, Note_on_c, 0, 66, 0
2, 12900, Note_on_c, 0, 51, 0
2, 12900, Note_on_c, 0, 54, 0
2, 12900, Note_on_c, 0, 47, 0
2, 12900, Note_on_c, 0, 63, 0
2, 12900, Note_on_c, 0, 59, 0
2, 12900, Note_on_c, 0, 59, 100
2, 12900, Note_on_c, 0, 47, 100
2, 12930, Note_on_c, 0, 47, 0
2, 12930, Note_on_c, 0, 59, 0
2, 12930, Note_on_c, 0, 59, 100
2, 12930, Note_on_c, 0, 47, 100
2, 12960, Note_on_c, 0, 47, 0
2, 12960, Note_on_c, 0, 59, 0
2, 12960, Note_on_c, 0, 49, 100
2, 12960, Note_on_c, 0, 52, 100
2, 12960, Note_on_c, 0, 57, 100
2, 12960, Note_on_c, 0, 61, 100
2, 12960, Note_on_c, 0, 64, 100
2, 12960, Note_on_c, 0, 69, 100
2, 13080, Note_on_c, 0, 69, 0
2, 13080, Note_on_c, 0, 52, 0
2, 13080, Note_on_c, 0, 57, 0
2, 13080, Note_on_c, 0, 49, 0
2, 13080, Note_on_c, 0, 64, 0
2, 13080, Note_on_c, 0, 61, 0
2, 13080, Note_on_c, 0, 49, 100
2, 13080, Note_on_c, 0, 52, 100
2, 13080, Note_on_c, 0, 57, 100
2, 13080, Note_on_c, 0, 61, 100
2, 13080, Note_on_c, 0, 64, 100
2, 13080, Note_on_c, 0, 69, 100
2, 13140, Note_on_c, 0, 69, 0
2, 13140, Note_on_c, 0, 52, 0
2, 13140, Note_on_c, 0, 57, 0
2, 13140, Note_on_c, 0, 49, 0
2, 13140, Note_on_c, 0, 64, 0
2, 13140, Note_on_c, 0, 61, 0
2, 13140, Note_on_c, 0, 57, 100
2, 13140, Note_on_c, 0, 69, 100
2, 13170, Note_on_c, 0, 69, 0
2, 13170, Note_on_c, 0, 57, 0
2, 13170, Note_on_c, 0, 57, 100
2, 13170, Note_on_c, 0, 69, 100
2, 13200, Note_on_c, 0, 69, 0
2, 13200, Note_on_c, 0, 57, 0
2, 13200, Note_on_c, 0, 47, 100
2, 13200, Note_on_c, 0, 51, 100
2, 13200, Note_on_c, 0, 54, 100
2, 13200, Note_on_c, 0, 59, 100
2, 13200, Note_on_c, 0, 63, 100
2, 13200, Note_on_c, 0, 66, 100
2, 13230, Note_on_c, 0, 66, 0
2, 13230, Note_on_c, 0, 51, 0
2, 13230, Note_on_c, 0, 54, 0
2, 13230, Note_on_c, 0, 47, 0
2, 13230, Note_on_c, 0, 63, 0
2, 13230, Note_on_c, 0, 59, 0
2, 13230, Note_on_c, 0, 47, 100
2, 13230, Note_on_c, 0, 51, 100
2, 13230, Note_on_c, 0, 54, 100
2, 13230, Note_on_c, 0, 59, 100
2, 13230, Note_on_c, 0, 63, 100
2, 13230, Note_on_c, 0, 66, 100
2, 13260, Note_on_c, 0, 66, 0
2, 13260, Note_on_c, 0, 51, 0
2, 13260, Note_on_c, 0, 54, 0
2, 13260, Note_on_c, 0, 47, 0
2, 13260, Note_on_c, 0, 63, 0
2, 13260, Note_on_c, 0, 59, 0
2, 13260, Note_on_c, 0, 47, 100
2, 13260, Note_on_c, 0, 51, 100
2, 13260, Note_on_c, 0, 54, 100
2, 13260, Note_on_c, 0, 59, 100
2, 13260, Note_on_c, 0, 63, 100
2, 13260, Note_on_c, 0, 66, 100
2, 13320, Note_on_c, 0, 66, 0
2, 13320, Note_on_c, 0, 51, 0
2, 13320, Note_on_c, 0, 54, 0
2, 13320, Note_on_c, 0, 47, 0
2, 13320, Note_on_c, 0, 63, 0
2, 13320, Note_on_c, 0, 59, 0
2, 13320, Note_on_c, 0, 47, 100
2, 13320, Note_on_c, 0, 51, 100
2, 13320, Note_on_c, 0, 54, 100
2, 13320, Note_on_c, 0, 59, 100
2, 13320, Note_on_c, 0, 63, 100
2, 13320, Note_on_c, 0, 66, 100
2, 13380, Note_on_c, 0, 66, 0
2, 13380, Note_on_c, 0, 51, 0
2, 13380, Note_on_c, 0, 54, 0
2, 13380, Note_on_c, 0, 47, 0
2, 13380, Note_on_c, 0, 63, 0
2, 13380, Note_on_c, 0, 59, 0
2, 13380, Note_on_c, 0, 49, 100
2, 13380, Note_on_c, 0, 52, 100
2, 13380, Note_on_c, 0, 56, 100
2, 13380, Note_on_c, 0, 61, 100
2, 13380, Note_on_c, 0, 64, 100
2, 13380, Note_on_c, 0, 68, 100
2, 13410, Note_on_c, 0, 68, 0
2, 13410, Note_on_c, 0, 52, 0
2, 13410, Note_on_c, 0, 56, 0
2, 13410, Note_on_c, 0, 49, 0
2, 13410, Note_on_c, 0, 64, 0
2, 13410, Note_on_c, 0, 61, 0
2, 13410, Note_on_c, 0, 49, 100
2, 13410, Note_on_c, 0, 52, 100
2, 13410, Note_on_c, 0, 56, 100
2, 13410, Note_on_c, 0, 61, 100
2, 13410, Note_on_c, 0, 64, 100
2, 13410, Note_on_c, 0, 68, 100
2, 13440, Note_on_c, 0, 68, 0
2, 13440, Note_on_c, 0, 52, 0
2, 13440, Note_on_c, 0, 56, 0
2, 13440, Note_on_c, 0, 49, 0
2, 13440, Note_on_c, 0, 64, 0
2, 13440, Note_on_c, 0, 61, 0
2, 13440, Note_on_c, 0, 49, 100
2, 13440, Note_on_c, 0, 52, 100
2, 13440, Note_on_c, 0, 56, 100
2, 13440, Note_on_c, 0, 61, 100
2, 13440, Note_on_c, 0, 64, 100
2, 13440, Note_on_c, 0, 68, 100
2, 13560, Note_on_c, 0, 68, 0
2, 13560, Note_on_c, 0, 52, 0
2, 13560, Note_on_c, 0, 56, 0
2, 13560, Note_on_c, 0, 49, 0
2, 13560, Note_on_c, 0, 64, 0
2, 13560, Note_on_c, 0, 61, 0
2, 13560, Note_on_c, 0, 49, 100
2, 13560, Note_on_c, 0, 52, 100
2, 13560, Note_on_c, 0, 56, 100
2, 13560, Note_on_c, 0, 61, 100
2, 13560, Note_on_c, 0, 64, 100
2, 13560, Note_on_c, 0, 68, 100
2, 13620, Note_on_c, 0, 68, 0
2, 13620, Note_on_c, 0, 52, 0
2, 13620, Note_on_c, 0, 56, 0
2, 13620, Note_on_c, 0, 49, 0
2, 13620, Note_on_c, 0, 64, 0
2, 13620, Note_on_c, 0, 61, 0
2, 13620, Note_on_c, 0, 49, 100
2, 13620, Note_on_c, 0, 52, 100
2, 13620, Note_on_c, 0, 56, 100
2, 13620, Note_on_c, 0, 61, 100
2, 13620, Note_on_c, 0, 64, 100
2, 13620, Note_on_c, 0, 68, 100
2, 13650, Note_on_c, 0, 68, 0
2, 13650, Note_on_c, 0, 52, 0
2, 13650, Note_on_c, 0, 56, 0
2, 13650, Note_on_c, 0, 49, 0
2, 13650, Note_on_c, 0, 64, 0
2, 13650, Note_on_c, 0, 61, 0
2, 13650, Note_on_c, 0, 49, 100
2, 13650, Note_on_c, 0, 52, 100
2, 13650, Note_on_c, 0, 56, 100
2, 13650, Note_on_c, 0, 61, 100
2, 13650, Note_on_c, 0, 64, 100
2, 13650, Note_on_c, 0, 68, 100
2, 13680, Note_on_c, 0, 68, 0
2, 13680, Note_on_c, 0, 52, 0
2, 13680, Note_on_c, 0, 56, 0
2, 13680, Note_on_c, 0, 49, 0
2, 13680, Note_on_c, 0, 64, 0
2, 13680, Note_on_c, 0, 61, 0
2, 13680, Note_on_c, 0, 47, 100
2, 13680, Note_on_c, 0, 51, 100
2, 13680, Note_on_c, 0, 54, 100
2, 13680, Note_on_c, 0, 59, 100
2, 13680, Note_on_c, 0, 63, 100
2, 13680, Note_on_c, 0, 66, 100
2, 13710, Note_on_c, 0, 66, 0
2, 13710, Note_on_c, 0, 51, 0
2, 13710, Note_on_c, 0, 54, 0
2, 13710, Note_on_c, 0, 47, 0
2, 13710, Note_on_c, 0, 63, 0
2, 13710, Note_on_c, 0, 59, 0
2, 13710, Note_on_c, 0, 47, 100
2, 13710, Note_on_c, 0, 51, 100
2, 13710, Note_on_c, 0, 54, 100
2, 13710, Note_on_c, 0, 59, 100
2, 13710, Note_on_c, 0, 63, 100
2, 13710, Note_on_c, 0, 66, 100
2, 13740, Note_on_c, 0, 66, 0
2, 13740, Note_on_c, 0, 51, 0
2, 13740, Note_on_c, 0, 54, 0
2, 13740, Note_on_c, 0, 47, 0
2, 13740, Note_on_c, 0, 63, 0
2, 13740, Note_on_c, 0, 59, 0
2, 13740, Note_on_c, 0, 47, 100
2, 13740, Note_on_c, 0, 51, 100
2, 13740, Note_on_c, 0, 54, 100
2, 13740, Note_on_c, 0, 59, 100
2, 13740, Note_on_c, 0, 63, 100
2, 13740, Note_on_c, 0, 66, 100
2, 13800, Note_on_c, 0, 66, 0
2, 13800, Note_on_c, 0, 51, 0
2, 13800, Note_on_c, 0, 54, 0
2, 13800, Note_on_c, 0, 47, 0
2, 13800, Note_on_c, 0, 63, 0
2, 13800, Note_on_c, 0, 59, 0
2, 13800, Note_on_c, 0, 47, 100
2, 13800, Note_on_c, 0, 51, 100
2, 13800, Note_on_c, 0, 54, 100
2, 13800, Note_on_c, 0, 59, 100
2, 13800, Note_on_c, 0, 63, 100
2, 13800, Note_on_c, 0, 66, 100
2, 13860, Note_on_c, 0, 66, 0
2, 13860, Note_on_c, 0, 51, 0
2, 13860, Note_on_c, 0, 54, 0
2, 13860, Note_on_c, 0, 47, 0
2, 13860, Note_on_c, 0, 63, 0
2, 13860, Note_on_c, 0, 59, 0
2, 13860, Note_on_c, 0, 45, 100
2, 13860, Note_on_c, 0, 49, 100
2, 13860, Note_on_c, 0, 52, 100
2, 13860, Note_on_c, 0, 57, 100
2, 13860, Note_on_c, 0, 61, 100
2, 13860, Note_on_c, 0, 64, 100
2, 13890, Note_on_c, 0, 64, 0
2, 13890, Note_on_c, 0, 49, 0
2, 13890, Note_on_c, 0, 52, 0
2, 13890, Note_on_c, 0, 45, 0
2, 13890, Note_on_c, 0, 61, 0
2, 13890, Note_on_c, 0, 57, 0
2, 13890, Note_on_c, 0, 64, 100
2, 13890, Note_on_c, 0, 61, 100
2, 13890, Note_on_c, 0, 57, 100
2, 13890, Note_on_c, 0, 52, 100
2, 13890, Note_on_c, 0, 49, 100
2, 13890, Note_on_c, 0, 45, 100
2, 13920, Note_on_c, 0, 45, 0
2, 13920, Note_on_c, 0, 61, 0
2, 13920, Note_on_c, 0, 57, 0
2, 13920, Note_on_c, 0, 64, 0
2, 13920, Note_on_c, 0, 49, 0
2, 13920, Note_on_c, 0, 52, 0
2, 13920, Note_on_c, 0, 49, 100
2, 13920, Note_on_c, 0, 52, 100
2, 13920, Note_on_c, 0, 57, 100
2, 13920, Note_on_c, 0, 61, 100
2, 13920, Note_on_c, 0, 64, 100
2, 13920, Note_on_c, 0, 69, 100
2, 14040, Note_on_c, 0, 69, 0
2, 14040, Note_on_c, 0, 52, 0
2, 14040, Note_on_c, 0, 57, 0
2, 14040, Note_on_c, 0, 49, 0
2, 14040, Note_on_c, 0, 64, 0
2, 14040, Note_on_c, 0, 61, 0
2, 14040, Note_on_c, 0, 49, 100
2, 14040, Note_on_c, 0, 52, 100
2, 14040, Note_on_c, 0, 57, 100
2, 14040, Note_on_c, 0, 61, 100
2, 14040, Note_on_c, 0, 64, 100
2, 14040, Note_on_c, 0, 69, 100
2, 14100, Note_on_c, 0, 69, 0
2, 14100, Note_on_c, 0, 52, 0
2, 14100, Note_on_c, 0, 57, 0
2, 14100, Note_on_c, 0, 49, 0
2, 14100, Note_on_c, 0, 64, 0
2, 14100, Note_on_c, 0, 61, 0
2, 14100, Note_on_c, 0, 49, 100
2, 14100, Note_on_c, 0, 52, 100
2, 14100, Note_on_c, 0, 57, 100
2, 14100, Note_on_c, 0, 61, 100
2, 14100, Note_on_c, 0, 64, 100
2, 14100, Note_on_c, 0, 69, 100
2, 14130, Note_on_c, 0, 69, 0
2, 14130, Note_on_c, 0, 52, 0
2, 14130, Note_on_c, 0, 57, 0
2, 14130, Note_on_c, 0, 49, 0
2, 14130, Note_on_c, 0, 64, 0
2, 14130, Note_on_c, 0, 61, 0
2, 14130, Note_on_c, 0, 49, 100
2, 14130, Note_on_c, 0, 52, 100
2, 14130, Note_on_c, 0, 57, 100
2, 14130, Note_on_c, 0, 61, 100
2, 14130, Note_on_c, 0, 64, 100
2, 14130, Note_on_c, 0, 69, 100
2, 14160, Note_on_c, 0, 69, 0
2, 14160, Note_on_c, 0, 52, 0
2, 14160, Note_on_c, 0, 57, 0
2, 14160, Note_on_c, 0, 49, 0
2, 14160, Note_on_c, 0, 64, 0
2, 14160, Note_on_c, 0, 61, 0
2, 14160, Note_on_c, 0, 47, 100
2, 14160, Note_on_c, 0, 51, 100
2, 14160, Note_on_c, 0, 54, 100
2, 14160, Note_on_c, 0, 59, 100
2, 14160, Note_on_c, 0, 63, 100
2, 14160, Note_on_c, 0, 66, 100
2, 14190, Note_on_c, 0, 66, 0
2, 14190, Note_on_c, 0, 51, 0
2, 14190, Note_on_c, 0, 54, 0
2, 14190, Note_on_c, 0, 47, 0
2, 14190, Note_on_c, 0, 63, 0
2, 14190, Note_on_c, 0, 59, 0
2, 14190, Note_on_c, 0, 47, 100
2, 14190, Note_on_c, 0, 51, 100
2, 14190, Note_on_c, 0, 54, 100
2, 14190, Note_on_c, 0, 59, 100
2, 14190, Note_on_c, 0, 63, 100
2, 14190, Note_on_c, 0, 66, 100
2, 14220, Note_on_c, 0, 66, 0
2, 14220, Note_on_c, 0, 51, 0
2, 14220, Note_on_c, 0, 54, 0
2, 14220, Note_on_c, 0, 47, 0
2, 14220, Note_on_c, 0, 63, 0
2, 14220, Note_on_c, 0, 59, 0
2, 14220, Note_on_c, 0, 47, 100
2, 14220, Note_on_c, 0, 51, 100
2, 14220, Note_on_c, 0, 54, 100
2, 14220, Note_on_c, 0, 59, 100
2, 14220, Note_on_c, 0, 63, 100
2, 14220, Note_on_c, 0, 66, 100
2, 14250, Note_on_c, 0, 66, 0
2, 14250, Note_on_c, 0, 51, 0
2, 14250, Note_on_c, 0, 54, 0
2, 14250, Note_on_c, 0, 47, 0
2, 14250, Note_on_c, 0, 63, 0
2, 14250, Note_on_c, 0, 59, 0
2, 14250, Note_on_c, 0, 47, 100
2, 14250, Note_on_c, 0, 51, 100
2, 14250, Note_on_c, 0, 54, 100
2, 14250, Note_on_c, 0, 59, 100
2, 14250, Note_on_c, 0, 63, 100
2, 14250, Note_on_c, 0, 66, 100
2, 14280, Note_on_c, 0, 66, 0
2, 14280, Note_on_c, 0, 51, 0
2, 14280, Note_on_c, 0, 54, 0
2, 14280, Note_on_c, 0, 47, 0
2, 14280, Note_on_c, 0, 63, 0
2, 14280, Note_on_c, 0, 59, 0
2, 14280, Note_on_c, 0, 47, 100
2, 14280, Note_on_c, 0, 51, 100
2, 14280, Note_on_c, 0, 54, 100
2, 14280, Note_on_c, 0, 59, 100
2, 14280, Note_on_c, 0, 63, 100
2, 14280, Note_on_c, 0, 66, 100
2, 14340, Note_on_c, 0, 66, 0
2, 14340, Note_on_c, 0, 51, 0
2, 14340, Note_on_c, 0, 54, 0
2, 14340, Note_on_c, 0, 47, 0
2, 14340, Note_on_c, 0, 63, 0
2, 14340, Note_on_c, 0, 59, 0
2, 14340, Note_on_c, 0, 49, 100
2, 14340, Note_on_c, 0, 61, 100
2, 14370, Note_on_c, 0, 61, 0
2, 14370, Note_on_c, 0, 49, 0
2, 14370, Note_on_c, 0, 49, 100
2, 14370, Note_on_c, 0, 52, 100
2, 14370, Note_on_c, 0, 56, 100
2, 14370, Note_on_c, 0, 61, 100
2, 14370, Note_on_c, 0, 64, 100
2, 14370, Note_on_c, 0, 68, 100
2, 14400, Note_on_c, 0, 68, 0
2, 14400, Note_on_c, 0, 52, 0
2, 14400, Note_on_c, 0, 56, 0
2, 14400, Note_on_c, 0, 49, 0
2, 14400, Note_on_c, 0, 64, 0
2, 14400, Note_on_c, 0, 61, 0
2, 14400, Note_on_c, 0, 49, 100
2, 14400, Note_on_c, 0, 52, 100
2, 14400, Note_on_c, 0, 56, 100
2, 14400, Note_on_c, 0, 61, 100
2, 14400, Note_on_c, 0, 64, 100
2, 14400, Note_on_c, 0, 68, 100
2, 14460, Note_on_c, 0, 68, 0
2, 14460, Note_on_c, 0, 52, 0
2, 14460, Note_on_c, 0, 56, 0
2, 14460, Note_on_c, 0, 49, 0
2, 14460, Note_on_c, 0, 64, 0
2, 14460, Note_on_c, 0, 61, 0
2, 14460, Note_on_c, 0, 49, 100
2, 14460, Note_on_c, 0, 52, 100
2, 14460, Note_on_c, 0, 56, 100
2, 14460, Note_on_c, 0, 61, 100
2, 14460, Note_on_c, 0, 64, 100
2, 14460, Note_on_c, 0, 68, 100
2, 14520, Note_on_c, 0, 68, 0
2, 14520, Note_on_c, 0, 52, 0
2, 14520, Note_on_c, 0, 56, 0
2, 14520, Note_on_c, 0, 49, 0
2, 14520, Note_on_c, 0, 64, 0
2, 14520, Note_on_c, 0, 61, 0
2, 14520, Note_on_c, 0, 49, 100
2, 14520, Note_on_c, 0, 52, 100
2, 14520, Note_on_c, 0, 56, 100
2, 14520, Note_on_c, 0, 61, 100
2, 14520, Note_on_c, 0, 64, 100
2, 14520, Note_on_c, 0, 68, 100
2, 14580, Note_on_c, 0, 68, 0
2, 14580, Note_on_c, 0, 52, 0
2, 14580, Note_on_c, 0, 56, 0
2, 14580, Note_on_c, 0, 49, 0
2, 14580, Note_on_c, 0, 64, 0
2, 14580, Note_on_c, 0, 61, 0
2, 14580, Note_on_c, 0, 49, 100
2, 14580, Note_on_c, 0, 61, 100
2, 14610, Note_on_c, 0, 61, 0
2, 14610, Note_on_c, 0, 49, 0
2, 14610, Note_on_c, 0, 49, 100
2, 14610, Note_on_c, 0, 61, 100
2, 14640, Note_on_c, 0, 61, 0
2, 14640, Note_on_c, 0, 49, 0
2, 14640, Note_on_c, 0, 47, 100
2, 14640, Note_on_c, 0, 51, 100
2, 14640, Note_on_c, 0, 54, 100
2, 14640, Note_on_c, 0, 59, 100
2, 14640, Note_on_c, 0, 63, 100
2, 14640, Note_on_c, 0, 66, 100
2, 14670, Note_on_c, 0, 66, 0
2, 14670, Note_on_c, 0, 51, 0
2, 14670, Note_on_c, 0, 54, 0
2, 14670, Note_on_c, 0, 47, 0
2, 14670, Note_on_c, 0, 63, 0
2, 14670, Note_on_c, 0, 59, 0
2, 14670, Note_on_c, 0, 63, 100
2, 14670, Note_on_c, 0, 59, 100
2, 14670, Note_on_c, 0, 54, 100
2, 14670, Note_on_c, 0, 51, 100
2, 14670, Note_on_c, 0, 47, 100
2, 14670, Note_on_c, 0, 66, 100
2, 14700, Note_on_c, 0, 66, 0
2, 14700, Note_on_c, 0, 59, 0
2, 14700, Note_on_c, 0, 54, 0
2, 14700, Note_on_c, 0, 63, 0
2, 14700, Note_on_c, 0, 47, 0
2, 14700, Note_on_c, 0, 51, 0
2, 14700, Note_on_c, 0, 47, 100
2, 14700, Note_on_c, 0, 51, 100
2, 14700, Note_on_c, 0, 54, 100
2, 14700, Note_on_c, 0, 59, 100
2, 14700, Note_on_c, 0, 63, 100
2, 14700, Note_on_c, 0, 66, 100
2, 14760, Note_on_c, 0, 66, 0
2, 14760, Note_on_c, 0, 51, 0
2, 14760, Note_on_c, 0, 54, 0
2, 14760, Note_on_c, 0, 47, 0
2, 14760, Note_on_c, 0, 63, 0
2, 14760, Note_on_c, 0, 59, 0
2, 14760, Note_on_c, 0, 54, 100
2, 14760, Note_on_c, 0, 51, 100
2, 14760, Note_on_c, 0, 47, 100
2, 14760, Note_on_c, 0, 63, 100
2, 14760, Note_on_c, 0, 59, 100
2, 14760, Note_on_c, 0, 66, 100
2, 14820, Note_on_c, 0, 66, 0
2, 14820, Note_on_c, 0, 51, 0
2, 14820, Note_on_c, 0, 47, 0
2, 14820, Note_on_c, 0, 54, 0
2, 14820, Note_on_c, 0, 59, 0
2, 14820, Note_on_c, 0, 63, 0
2, 14820, Note_on_c, 0, 47, 100
2, 14820, Note_on_c, 0, 51, 100
2, 14820, Note_on_c, 0, 54, 100
2, 14820, Note_on_c, 0, 59, 100
2, 14820, Note_on_c, 0, 63, 100
2, 14820, Note_on_c, 0, 66, 100
2, 14850, Note_on_c, 0, 66, 0
2, 14850, Note_on_c, 0, 51, 0
2, 14850, Note_on_c, 0, 54, 0
2, 14850, Note_on_c, 0, 47, 0
2, 14850, Note_on_c, 0, 63, 0
2, 14850, Note_on_c, 0, 59, 0
2, 14850, Note_on_c, 0, 47, 100
2, 14850, Note_on_c, 0, 51, 100
2, 14850, Note_on_c, 0, 54, 100
2, 14850, Note_on_c, 0, 59, 100
2, 14850, Note_on_c, 0, 63, 100
2, 14850, Note_on_c, 0, 66, 100
2, 14880, Note_on_c, 0, 66, 0
2, 14880, Note_on_c, 0, 51, 0
2, 14880, Note_on_c, 0, 54, 0
2, 14880, Note_on_c, 0, 47, 0
2, 14880, Note_on_c, 0, 63, 0
2, 14880, Note_on_c, 0, 59, 0
2, 14880, Note_on_c, 0, 45, 100
2, 14880, Note_on_c, 0, 49, 100
2, 14880, Note_on_c, 0, 52, 100
2, 14880, Note_on_c, 0, 57, 100
2, 14880, Note_on_c, 0, 61, 100
2, 14880, Note_on_c, 0, 64, 100
2, 14940, Note_on_c, 0, 64, 0
2, 14940, Note_on_c, 0, 49, 0
2, 14940, Note_on_c, 0, 52, 0
2, 14940, Note_on_c, 0, 45, 0
2, 14940, Note_on_c, 0, 61, 0
2, 14940, Note_on_c, 0, 57, 0
2, 14940, Note_on_c, 0, 45, 100
2, 14940, Note_on_c, 0, 49, 100
2, 14940, Note_on_c, 0, 52, 100
2, 14940, Note_on_c, 0, 57, 100
2, 14940, Note_on_c, 0, 61, 100
2, 14940, Note_on_c, 0, 64, 100
2, 15000, Note_on_c, 0, 64, 0
2, 15000, Note_on_c, 0, 49, 0
2, 15000, Note_on_c, 0, 52, 0
2, 15000, Note_on_c, 0, 45, 0
2, 15000, Note_on_c, 0, 61, 0
2, 15000, Note_on_c, 0, 57, 0
2, 15000, Note_on_c, 0, 45, 100
2, 15000, Note_on_c, 0, 49, 100
2, 15000, Note_on_c, 0, 52, 100
2, 15000, Note_on_c, 0, 57, 100
2, 15000, Note_on_c, 0, 61, 100
2, 15000, Note_on_c, 0, 64, 100
2, 15060, Note_on_c, 0, 64, 0
2, 15060, Note_on_c, 0, 49, 0
2, 15060, Note_on_c, 0, 52, 0
2, 15060, Note_on_c, 0, 45, 0
2, 15060, Note_on_c, 0, 61, 0
2, 15060, Note_on_c, 0, 57, 0
2, 15060, Note_on_c, 0, 45, 100
2, 15060, Note_on_c, 0, 57, 100
2, 15090, Note_on_c, 0, 57, 0
2, 15090, Note_on_c, 0, 45, 0
2, 15090, Note_on_c, 0, 45, 100
2, 15090, Note_on_c, 0, 57, 100
2, 15120, Note_on_c, 0, 57, 0
2, 15120, Note_on_c, 0, 45, 0
2, 15120, Note_on_c, 0, 47, 100
2, 15120, Note_on_c, 0, 51, 100
2, 15120, Note_on_c, 0, 54, 100
2, 15120, Note_on_c, 0, 59, 100
2, 15120, Note_on_c, 0, 63, 100
2, 15120, Note_on_c, 0, 66, 100
2, 15150, Note_on_c, 0, 66, 0
2, 15150, Note_on_c, 0, 51, 0
2, 15150, Note_on_c, 0, 54, 0
2, 15150, Note_on_c, 0, 47, 0
2, 15150, Note_on_c, 0, 63, 0
2, 15150, Note_on_c, 0, 59, 0
2, 15150, Note_on_c, 0, 47, 100
2, 15150, Note_on_c, 0, 51, 100
2, 15150, Note_on_c, 0, 54, 100
2, 15150, Note_on_c, 0, 59, 100
2, 15150, Note_on_c, 0, 63, 100
2, 15150, Note_on_c, 0, 66, 100
2, 15180, Note_on_c, 0, 66, 0
2, 15180, Note_on_c, 0, 51, 0
2, 15180, Note_on_c, 0, 54, 0
2, 15180, Note_on_c, 0, 47, 0
2, 15180, Note_on_c, 0, 63, 0
2, 15180, Note_on_c, 0, 59, 0
2, 15180, Note_on_c, 0, 47, 100
2, 15180, Note_on_c, 0, 51, 100
2, 15180, Note_on_c, 0, 54, 100
2, 15180, Note_on_c, 0, 59, 100
2, 15180, Note_on_c, 0, 63, 100
2, 15180, Note_on_c, 0, 66, 100
2, 15240, Note_on_c, 0, 66, 0
2, 15240, Note_on_c, 0, 51, 0
2, 15240, Note_on_c, 0, 54, 0
2, 15240, Note_on_c, 0, 47, 0
2, 15240, Note_on_c, 0, 63, 0
2, 15240, Note_on_c, 0, 59, 0
2, 15240, Note_on_c, 0, 47, 100
2, 15240, Note_on_c, 0, 51, 100
2, 15240, Note_on_c, 0, 54, 100
2, 15240, Note_on_c, 0, 59, 100
2, 15240, Note_on_c, 0, 63, 100
2, 15240, Note_on_c, 0, 66, 100
2, 15300, Note_on_c, 0, 66, 0
2, 15300, Note_on_c, 0, 51, 0
2, 15300, Note_on_c, 0, 54, 0
2, 15300, Note_on_c, 0, 47, 0
2, 15300, Note_on_c, 0, 63, 0
2, 15300, Note_on_c, 0, 59, 0
2, 15300, Note_on_c, 0, 49, 100
2, 15300, Note_on_c, 0, 61, 100
2, 15330, Note_on_c, 0, 61, 0
2, 15330, Note_on_c, 0, 49, 0
2, 15330, Note_on_c, 0, 49, 100
2, 15330, Note_on_c, 0, 52, 100
2, 15330, Note_on_c, 0, 56, 100
2, 15330, Note_on_c, 0, 61, 100
2, 15330, Note_on_c, 0, 64, 100
2, 15330, Note_on_c, 0, 68, 100
2, 15360, Note_on_c, 0, 68, 0
2, 15360, Note_on_c, 0, 52, 0
2, 15360, Note_on_c, 0, 56, 0
2, 15360, Note_on_c, 0, 49, 0
2, 15360, Note_on_c, 0, 64, 0
2, 15360, Note_on_c, 0, 61, 0
2, 15360, Note_on_c, 0, 49, 100
2, 15360, Note_on_c, 0, 52, 100
2, 15360, Note_on_c, 0, 56, 100
2, 15360, Note_on_c, 0, 61, 100
2, 15360, Note_on_c, 0, 64, 100
2, 15360, Note_on_c, 0, 68, 100
2, 15420, Note_on_c, 0, 68, 0
2, 15420, Note_on_c, 0, 52, 0
2, 15420, Note_on_c, 0, 56, 0
2, 15420, Note_on_c, 0, 49, 0
2, 15420, Note_on_c, 0, 64, 0
2, 15420, Note_on_c, 0, 61, 0
2, 15420, Note_on_c, 0, 49, 100
2, 15420, Note_on_c, 0, 52, 100
2, 15420, Note_on_c, 0, 56, 100
2, 15420, Note_on_c, 0, 61, 100
2, 15420, Note_on_c, 0, 64, 100
2, 15420, Note_on_c, 0, 68, 100
2, 15480, Note_on_c, 0, 68, 0
2, 15480, Note_on_c, 0, 52, 0
2, 15480, Note_on_c, 0, 56, 0
2, 15480, Note_on_c, 0, 49, 0
2, 15480, Note_on_c, 0, 64, 0
2, 15480, Note_on_c, 0, 61, 0
2, 15480, Note_on_c, 0, 56, 100
2, 15480, Note_on_c, 0, 52, 100
2, 15480, Note_on_c, 0, 49, 100
2, 15480, Note_on_c, 0, 61, 100
2, 15480, Note_on_c, 0, 64, 100
2, 15480, Note_on_c, 0, 68, 100
2, 15540, Note_on_c, 0, 68, 0
2, 15540, Note_on_c, 0, 52, 0
2, 15540, Note_on_c, 0, 49, 0
2, 15540, Note_on_c, 0, 56, 0
2, 15540, Note_on_c, 0, 64, 0
2, 15540, Note_on_c, 0, 61, 0
2, 15540, Note_on_c, 0, 49, 100
2, 15540, Note_on_c, 0, 61, 100
2, 15570, Note_on_c, 0, 61, 0
2, 15570, Note_on_c, 0, 49, 0
2, 15570, Note_on_c, 0, 49, 100
2, 15570, Note_on_c, 0, 61, 100
2, 15600, Note_on_c, 0, 61, 0
2, 15600, Note_on_c, 0, 49, 0
2, 15600, Note_on_c, 0, 49, 100
2, 15600, Note_on_c, 0, 61, 100
2, 15660, Note_on_c, 0, 61, 0
2, 15660, Note_on_c, 0, 49, 0
2, 15660, Note_on_c, 0, 47, 100
2, 15660, Note_on_c, 0, 51, 100
2, 15660, Note_on_c, 0, 54, 100
2, 15660, Note_on_c, 0, 59, 100
2, 15660, Note_on_c, 0, 63, 100
2, 15660, Note_on_c, 0, 66, 100
2, 15720, Note_on_c, 0, 66, 0
2, 15720, Note_on_c, 0, 51, 0
2, 15720, Note_on_c, 0, 54, 0
2, 15720, Note_on_c, 0, 47, 0
2, 15720, Note_on_c, 0, 63, 0
2, 15720, Note_on_c, 0, 59, 0
2, 15720, Note_on_c, 0, 47, 100
2, 15720, Note_on_c, 0, 51, 100
2, 15720, Note_on_c, 0, 54, 100
2, 15720, Note_on_c, 0, 59, 100
2, 15720, Note_on_c, 0, 63, 100
2, 15720, Note_on_c, 0, 66, 100
2, 15780, Note_on_c, 0, 66, 0
2, 15780, Note_on_c, 0, 51, 0
2, 15780, Note_on_c, 0, 54, 0
2, 15780, Note_on_c, 0, 47, 0
2, 15780, Note_on_c, 0, 63, 0
2, 15780, Note_on_c, 0, 59, 0
2, 15780, Note_on_c, 0, 47, 100
2, 15780, Note_on_c, 0, 59, 100
2, 15810, Note_on_c, 0, 59, 0
2, 15810, Note_on_c, 0, 47, 0
2, 15810, Note_on_c, 0, 47, 100
2, 15810, Note_on_c, 0, 59, 100
2, 15840, Note_on_c, 0, 59, 0
2, 15840, Note_on_c, 0, 47, 0
2, 15840, Note_on_c, 0, 49, 100
2, 15840, Note_on_c, 0, 52, 100
2, 15840, Note_on_c, 0, 57, 100
2, 15840, Note_on_c, 0, 61, 100
2, 15840, Note_on_c, 0, 64, 100
2, 15840, Note_on_c, 0, 69, 100
2, 15960, Note_on_c, 0, 69, 0
2, 15960, Note_on_c, 0, 52, 0
2, 15960, Note_on_c, 0, 57, 0
2, 15960, Note_on_c, 0, 49, 0
2, 15960, Note_on_c, 0, 64, 0
2, 15960, Note_on_c, 0, 61, 0
2, 15960, Note_on_c, 0, 49, 100
2, 15960, Note_on_c, 0, 52, 100
2, 15960, Note_on_c, 0, 57, 100
2, 15960, Note_on_c, 0, 61, 100
2, 15960, Note_on_c, 0, 64, 100
2, 15960, Note_on_c, 0, 69, 100
2, 16020, Note_on_c, 0, 69, 0
2, 16020, Note_on_c, 0, 52, 0
2, 16020, Note_on_c, 0, 57, 0
2, 16020, Note_on_c, 0, 49, 0
2, 16020, Note_on_c, 0, 64, 0
2, 16020, Note_on_c, 0, 61, 0
2, 16020, Note_on_c, 0, 57, 100
2, 16020, Note_on_c, 0, 49, 100
2, 16050, Note_on_c, 0, 49, 0
2, 16050, Note_on_c, 0, 57, 0
2, 16050, Note_on_c, 0, 47, 100
2, 16050, Note_on_c, 0, 51, 100
2, 16050, Note_on_c, 0, 54, 100
2, 16050, Note_on_c, 0, 59, 100
2, 16050, Note_on_c, 0, 63, 100
2, 16050, Note_on_c, 0, 66, 100
2, 16080, Note_on_c, 0, 66, 0
2, 16080, Note_on_c, 0, 51, 0
2, 16080, Note_on_c, 0, 54, 0
2, 16080, Note_on_c, 0, 47, 0
2, 16080, Note_on_c, 0, 63, 0
2, 16080, Note_on_c, 0, 59, 0
2, 16080, Note_on_c, 0, 47, 100
2, 16080, Note_on_c, 0, 51, 100
2, 16080, Note_on_c, 0, 54, 100
2, 16080, Note_on_c, 0, 59, 100
2, 16080, Note_on_c, 0, 63, 100
2, 16080, Note_on_c, 0, 66, 100
2, 16140, Note_on_c, 0, 66, 0
2, 16140, Note_on_c, 0, 51, 0
2, 16140, Note_on_c, 0, 54, 0
2, 16140, Note_on_c, 0, 47, 0
2, 16140, Note_on_c, 0, 63, 0
2, 16140, Note_on_c, 0, 59, 0
2, 16140, Note_on_c, 0, 63, 100
2, 16140, Note_on_c, 0, 59, 100
2, 16140, Note_on_c, 0, 54, 100
2, 16140, Note_on_c, 0, 51, 100
2, 16140, Note_on_c, 0, 47, 100
2, 16140, Note_on_c, 0, 66, 100
2, 16200, Note_on_c, 0, 66, 0
2, 16200, Note_on_c, 0, 59, 0
2, 16200, Note_on_c, 0, 54, 0
2, 16200, Note_on_c, 0, 63, 0
2, 16200, Note_on_c, 0, 47, 0
2, 16200, Note_on_c, 0, 51, 0
2, 16200, Note_on_c, 0, 47, 100
2, 16200, Note_on_c, 0, 51, 100
2, 16200, Note_on_c, 0, 54, 100
2, 16200, Note_on_c, 0, 59, 100
2, 16200, Note_on_c, 0, 63, 100
2, 16200, Note_on_c, 0, 66, 100
2, 16230, Note_on_c, 0, 66, 0
2, 16230, Note_on_c, 0, 51, 0
2, 16230, Note_on_c, 0, 54, 0
2, 16230, Note_on_c, 0, 47, 0
2, 16230, Note_on_c, 0, 63, 0
2, 16230, Note_on_c, 0, 59, 0
2, 16230, Note_on_c, 0, 47, 100
2, 16230, Note_on_c, 0, 51, 100
2, 16230, Note_on_c, 0, 54, 100
2, 16230, Note_on_c, 0, 59, 100
2, 16230, Note_on_c, 0, 63, 100
2, 16230, Note_on_c, 0, 66, 100
2, 16260, Note_on_c, 0, 66, 0
2, 16260, Note_on_c, 0, 51, 0
2, 16260, Note_on_c, 0, 54, 0
2, 16260, Note_on_c, 0, 47, 0
2, 16260, Note_on_c, 0, 63, 0
2, 16260, Note_on_c, 0, 59, 0
2, 16260, Note_on_c, 0, 47, 100
2, 16260, Note_on_c, 0, 51, 100
2, 16260, Note_on_c, 0, 54, 100
2, 16260, Note_on_c, 0, 59, 100
2, 16260, Note_on_c, 0, 63, 100
2, 16260, Note_on_c, 0, 66, 100
2, 16320, Note_on_c, 0, 66, 0
2, 16320, Note_on_c, 0, 51, 0
2, 16320, Note_on_c, 0, 54, 0
2, 16320, Note_on_c, 0, 47, 0
2, 16320, Note_on_c, 0, 63, 0
2, 16320, Note_on_c, 0, 59, 0
2, 16320, Note_on_c, 0, 68, 100
2, 16320, Note_on_c, 0, 49, 100
2, 16320, Note_on_c, 0, 52, 100
2, 16320, Note_on_c, 0, 56, 100
2, 16320, Note_on_c, 0, 61, 100
2, 16320, Note_on_c, 0, 64, 100
2, 16320, Note_on_c, 0, 68, 100
2, 16560, Note_on_c, 0, 68, 0
2, 16560, Note_on_c, 0, 61, 0
2, 16560, Note_on_c, 0, 49, 0
2, 16560, Note_on_c, 0, 52, 0
2, 16560, Note_on_c, 0, 68, 0
2, 16560, Note_on_c, 0, 64, 0
2, 16560, Note_on_c, 0, 56, 0
2, 16560, Note_on_c, 0, 47, 100
2, 16560, Note_on_c, 0, 51, 100
2, 16560, Note_on_c, 0, 54, 100
2, 16560, Note_on_c, 0, 59, 100
2, 16560, Note_on_c, 0, 63, 100
2, 16560, Note_on_c, 0, 66, 100
2, 16800, Note_on_c, 0, 66, 0
2, 16800, Note_on_c, 0, 51, 0
2, 16800, Note_on_c, 0, 54, 0
2, 16800, Note_on_c, 0, 47, 0
2, 16800, Note_on_c, 0, 63, 0
2, 16800, Note_on_c, 0, 59, 0
2, 16800, Note_on_c, 0, 49, 100
2, 16800, Note_on_c, 0, 52, 100
2, 16800, Note_on_c, 0, 57, 100
2, 16800, Note_on_c, 0, 61, 100
2, 16800, Note_on_c, 0, 64, 100
2, 16800, Note_on_c, 0, 69, 100
2, 17040, Note_on_c, 0, 69, 0
2, 17040, Note_on_c, 0, 52, 0
2, 17040, Note_on_c, 0, 57, 0
2, 17040, Note_on_c, 0, 49, 0
2, 17040, Note_on_c, 0, 64, 0
2, 17040, Note_on_c, 0, 61, 0
2, 17100, Note_on_c, 0, 47, 100
2, 17100, Note_on_c, 0, 51, 100
2, 17100, Note_on_c, 0, 54, 100
2, 17100, Note_on_c, 0, 59, 100
2, 17100, Note_on_c, 0, 63, 100
2, 17100, Note_on_c, 0, 66, 100
2, 17160, Note_on_c, 0, 66, 0
2, 17160, Note_on_c, 0, 51, 0
2, 17160, Note_on_c, 0, 54, 0
2, 17160, Note_on_c, 0, 47, 0
2, 17160, Note_on_c, 0, 63, 0
2, 17160, Note_on_c, 0, 59, 0
2, 17160, Note_on_c, 0, 47, 100
2, 17160, Note_on_c, 0, 51, 100
2, 17160, Note_on_c, 0, 54, 100
2, 17160, Note_on_c, 0, 59, 100
2, 17160, Note_on_c, 0, 63, 100
2, 17160, Note_on_c, 0, 66, 100
2, 17220, Note_on_c, 0, 66, 0
2, 17220, Note_on_c, 0, 51, 0
2, 17220, Note_on_c, 0, 54, 0
2, 17220, Note_on_c, 0, 47, 0
2, 17220, Note_on_c, 0, 63, 0
2, 17220, Note_on_c, 0, 59, 0
2, 17220, Note_on_c, 0, 59, 100
2, 17220, Note_on_c, 0, 47, 100
2, 17250, Note_on_c, 0, 47, 0
2, 17250, Note_on_c, 0, 59, 0
2, 17250, Note_on_c, 0, 59, 100
2, 17250, Note_on_c, 0, 47, 100
2, 17280, Note_on_c, 0, 47, 0
2, 17280, Note_on_c, 0, 59, 0
2, 17280, Note_on_c, 0, 68, 100
2, 17280, Note_on_c, 0, 49, 100
2, 17280, Note_on_c, 0, 52, 100
2, 17280, Note_on_c, 0, 56, 100
2, 17280, Note_on_c, 0, 61, 100
2, 17280, Note_on_c, 0, 64, 100
2, 17280, Note_on_c, 0, 68, 100
2, 17520, Note_on_c, 0, 68, 0
2, 17520, Note_on_c, 0, 61, 0
2, 17520, Note_on_c, 0, 49, 0
2, 17520, Note_on_c, 0, 52, 0
2, 17520, Note_on_c, 0, 68, 0
2, 17520, Note_on_c, 0, 64, 0
2, 17520, Note_on_c, 0, 56, 0
2, 17520, Note_on_c, 0, 47, 100
2, 17520, Note_on_c, 0, 51, 100
2, 17520, Note_on_c, 0, 54, 100
2, 17520, Note_on_c, 0, 59, 100
2, 17520, Note_on_c, 0, 63, 100
2, 17520, Note_on_c, 0, 66, 100
2, 17760, Note_on_c, 0, 66, 0
2, 17760, Note_on_c, 0, 51, 0
2, 17760, Note_on_c, 0, 54, 0
2, 17760, Note_on_c, 0, 47, 0
2, 17760, Note_on_c, 0, 63, 0
2, 17760, Note_on_c, 0, 59, 0
2, 17760, Note_on_c, 0, 49, 100
2, 17760, Note_on_c, 0, 52, 100
2, 17760, Note_on_c, 0, 57, 100
2, 17760, Note_on_c, 0, 61, 100
2, 17760, Note_on_c, 0, 64, 100
2, 17760, Note_on_c, 0, 69, 100
2, 17880, Note_on_c, 0, 69, 0
2, 17880, Note_on_c, 0, 52, 0
2, 17880, Note_on_c, 0, 57, 0
2, 17880, Note_on_c, 0, 49, 0
2, 17880, Note_on_c, 0, 64, 0
2, 17880, Note_on_c, 0, 61, 0
2, 17880, Note_on_c, 0, 49, 100
2, 17880, Note_on_c, 0, 52, 100
2, 17880, Note_on_c, 0, 57, 100
2, 17880, Note_on_c, 0, 61, 100
2, 17880, Note_on_c, 0, 64, 100
2, 17880, Note_on_c, 0, 69, 100
2, 17910, Note_on_c, 0, 69, 0
2, 17910, Note_on_c, 0, 52, 0
2, 17910, Note_on_c, 0, 57, 0
2, 17910, Note_on_c, 0, 49, 0
2, 17910, Note_on_c, 0, 64, 0
2, 17910, Note_on_c, 0, 61, 0
2, 17910, Note_on_c, 0, 49, 100
2, 17910, Note_on_c, 0, 52, 100
2, 17910, Note_on_c, 0, 57, 100
2, 17910, Note_on_c, 0, 61, 100
2, 17910, Note_on_c, 0, 64, 100
2, 17910, Note_on_c, 0, 69, 100
2, 18000, Note_on_c, 0, 69, 0
2, 18000, Note_on_c, 0, 52, 0
2, 18000, Note_on_c, 0, 57, 0
2, 18000, Note_on_c, 0, 49, 0
2, 18000, Note_on_c, 0, 64, 0
2, 18000, Note_on_c, 0, 61, 0
2, 18060, Note_on_c, 0, 47, 120
2, 18060, Note_on_c, 0, 51, 120
2, 18060, Note_on_c, 0, 54, 120
2, 18060, Note_on_c, 0, 59, 120
2, 18060, Note_on_c, 0, 63, 120
2, 18060, Note_on_c, 0, 66, 120
2, 18120, Note_on_c, 0, 66, 0
2, 18120, Note_on_c, 0, 51, 0
2, 18120, Note_on_c, 0, 54, 0
2, 18120, Note_on_c, 0, 47, 0
2, 18120, Note_on_c, 0, 63, 0
2, 18120, Note_on_c, 0, 59, 0
2, 18120, Note_on_c, 0, 47, 100
2, 18120, Note_on_c, 0, 51, 100
2, 18120, Note_on_c, 0, 54, 100
2, 18120, Note_on_c, 0, 59, 100
2, 18120, Note_on_c, 0, 63, 100
2, 18120, Note_on_c, 0, 66, 100
2, 18150, Note_on_c, 0, 66, 0
2, 18150, Note_on_c, 0, 51, 0
2, 18150, Note_on_c, 0, 54, 0
2, 18150, Note_on_c, 0, 47, 0
2, 18150, Note_on_c, 0, 63, 0
2, 18150, Note_on_c, 0, 59, 0
2, 18150, Note_on_c, 0, 54, 100
2, 18150, Note_on_c, 0, 51, 100
2, 18150, Note_on_c, 0, 47, 100
2, 18150, Note_on_c, 0, 59, 100
2, 18150, Note_on_c, 0, 63, 100
2, 18150, Note_on_c, 0, 66, 100
2, 18180, Note_on_c, 0, 66, 0
2, 18180, Note_on_c, 0, 51, 0
2, 18180, Note_on_c, 0, 47, 0
2, 18180, Note_on_c, 0, 54, 0
2, 18180, Note_on_c, 0, 63, 0
2, 18180, Note_on_c, 0, 59, 0
2, 18180, Note_on_c, 0, 47, 100
2, 18180, Note_on_c, 0, 51, 100
2, 18180, Note_on_c, 0, 54, 100
2, 18180, Note_on_c, 0, 59, 100
2, 18180, Note_on_c, 0, 63, 100
2, 18180, Note_on_c, 0, 66, 100
2, 18240, Note_on_c, 0, 66, 0
2, 18240, Note_on_c, 0, 51, 0
2, 18240, Note_on_c, 0, 54, 0
2, 18240, Note_on_c, 0, 47, 0
2, 18240, Note_on_c, 0, 63, 0
2, 18240, Note_on_c, 0, 59, 0
2, 18240, Note_on_c, 0, 68, 100
2, 18240, Note_on_c, 0, 49, 100
2, 18240, Note_on_c, 0, 52, 100
2, 18240, Note_on_c, 0, 56, 100
2, 18240, Note_on_c, 0, 61, 100
2, 18240, Note_on_c, 0, 64, 100
2, 18240, Note_on_c, 0, 68, 100
2, 18480, Note_on_c, 0, 68, 0
2, 18480, Note_on_c, 0, 61, 0
2, 18480, Note_on_c, 0, 49, 0
2, 18480, Note_on_c, 0, 52, 0
2, 18480, Note_on_c, 0, 68, 0
2, 18480, Note_on_c, 0, 64, 0
2, 18480, Note_on_c, 0, 56, 0
2, 18480, Note_on_c, 0, 47, 100
2, 18480, Note_on_c, 0, 51, 100
2, 18480, Note_on_c, 0, 54, 100
2, 18480, Note_on_c, 0, 59, 100
2, 18480, Note_on_c, 0, 63, 100
2, 18480, Note_on_c, 0, 66, 100
2, 18720, Note_on_c, 0, 66, 0
2, 18720, Note_on_c, 0, 51, 0
2, 18720, Note_on_c, 0, 54, 0
2, 18720, Note_on_c, 0, 47, 0
2, 18720, Note_on_c, 0, 63, 0
2, 18720, Note_on_c, 0, 59, 0
2, 18720, Note_on_c, 0, 49, 100
2, 18720, Note_on_c, 0, 52, 100
2, 18720, Note_on_c, 0, 57, 100
2, 18720, Note_on_c, 0, 61, 100
2, 18720, Note_on_c, 0, 64, 100
2, 18720, Note_on_c, 0, 69, 100
2, 18960, Note_on_c, 0, 69, 0
2, 18960, Note_on_c, 0, 52, 0
2, 18960, Note_on_c, 0, 57, 0
2, 18960, Note_on_c, 0, 49, 0
2, 18960, Note_on_c, 0, 64, 0
2, 18960, Note_on_c, 0, 61, 0
2, 19020, Note_on_c, 0, 47, 100
2, 19020, Note_on_c, 0, 51, 100
2, 19020, Note_on_c, 0, 54, 100
2, 19020, Note_on_c, 0, 59, 100
2, 19020, Note_on_c, 0, 63, 100
2, 19020, Note_on_c, 0, 66, 100
2, 19080, Note_on_c, 0, 66, 0
2, 19080, Note_on_c, 0, 51, 0
2, 19080, Note_on_c, 0, 54, 0
2, 19080, Note_on_c, 0, 47, 0
2, 19080, Note_on_c, 0, 63, 0
2, 19080, Note_on_c, 0, 59, 0
2, 19080, Note_on_c, 0, 47, 100
2, 19080, Note_on_c, 0, 51, 100
2, 19080, Note_on_c, 0, 54, 100
2, 19080, Note_on_c, 0, 59, 100
2, 19080, Note_on_c, 0, 63, 100
2, 19080, Note_on_c, 0, 66, 100
2, 19140, Note_on_c, 0, 66, 0
2, 19140, Note_on_c, 0, 51, 0
2, 19140, Note_on_c, 0, 54, 0
2, 19140, Note_on_c, 0, 47, 0
2, 19140, Note_on_c, 0, 63, 0
2, 19140, Note_on_c, 0, 59, 0
2, 19140, Note_on_c, 0, 59, 100
2, 19140, Note_on_c, 0, 47, 100
2, 19170, Note_on_c, 0, 47, 0
2, 19170, Note_on_c, 0, 59, 0
2, 19170, Note_on_c, 0, 59, 100
2, 19170, Note_on_c, 0, 47, 100
2, 19200, Note_on_c, 0, 47, 0
2, 19200, Note_on_c, 0, 59, 0
2, 19200, Note_on_c, 0, 68, 100
2, 19200, Note_on_c, 0, 49, 100
2, 19200, Note_on_c, 0, 52, 100
2, 19200, Note_on_c, 0, 56, 100
2, 19200, Note_on_c, 0, 61, 100
2, 19200, Note_on_c, 0, 64, 100
2, 19200, Note_on_c, 0, 68, 100
2, 19440, Note_on_c, 0, 68, 0
2, 19440, Note_on_c, 0, 61, 0
2, 19440, Note_on_c, 0, 49, 0
2, 19440, Note_on_c, 0, 52, 0
2, 19440, Note_on_c, 0, 68, 0
2, 19440, Note_on_c, 0, 64, 0
2, 19440, Note_on_c, 0, 56, 0
2, 19440, Note_on_c, 0, 47, 100
2, 19440, Note_on_c, 0, 51, 100
2, 19440, Note_on_c, 0, 54, 100
2, 19440, Note_on_c, 0, 59, 100
2, 19440, Note_on_c, 0, 63, 100
2, 19440, Note_on_c, 0, 66, 100
2, 19680, Note_on_c, 0, 66, 0
2, 19680, Note_on_c, 0, 51, 0
2, 19680, Note_on_c, 0, 54, 0
2, 19680, Note_on_c, 0, 47, 0
2, 19680, Note_on_c, 0, 63, 0
2, 19680, Note_on_c, 0, 59, 0
2, 19680, Note_on_c, 0, 49, 100
2, 19680, Note_on_c, 0, 52, 100
2, 19680, Note_on_c, 0, 57, 100
2, 19680, Note_on_c, 0, 61, 100
2, 19680, Note_on_c, 0, 64, 100
2, 19680, Note_on_c, 0, 69, 100
2, 19800, Note_on_c, 0, 69, 0
2, 19800, Note_on_c, 0, 52, 0
2, 19800, Note_on_c, 0, 57, 0
2, 19800, Note_on_c, 0, 49, 0
2, 19800, Note_on_c, 0, 64, 0
2, 19800, Note_on_c, 0, 61, 0
2, 19800, Note_on_c, 0, 49, 100
2, 19800, Note_on_c, 0, 52, 100
2, 19800, Note_on_c, 0, 57, 100
2, 19800, Note_on_c, 0, 61, 100
2, 19800, Note_on_c, 0, 64, 100
2, 19800, Note_on_c, 0, 69, 100
2, 19830, Note_on_c, 0, 69, 0
2, 19830, Note_on_c, 0, 52, 0
2, 19830, Note_on_c, 0, 57, 0
2, 19830, Note_on_c, 0, 49, 0
2, 19830, Note_on_c, 0, 64, 0
2, 19830, Note_on_c, 0, 61, 0
2, 19830, Note_on_c, 0, 49, 100
2, 19830, Note_on_c, 0, 52, 100
2, 19830, Note_on_c, 0, 57, 100
2, 19830, Note_on_c, 0, 61, 100
2, 19830, Note_on_c, 0, 64, 100
2, 19830, Note_on_c, 0, 69, 100
2, 19920, Note_on_c, 0, 69, 0
2, 19920, Note_on_c, 0, 52, 0
2, 19920, Note_on_c, 0, 57, 0
2, 19920, Note_on_c, 0, 49, 0
2, 19920, Note_on_c, 0, 64, 0
2, 19920, Note_on_c, 0, 61, 0
2, 19980, Note_on_c, 0, 47, 120
2, 19980, Note_on_c, 0, 51, 120
2, 19980, Note_on_c, 0, 54, 120
2, 19980, Note_on_c, 0, 59, 120
2, 19980, Note_on_c, 0, 63, 120
2, 19980, Note_on_c, 0, 66, 120
2, 20040, Note_on_c, 0, 66, 0
2, 20040, Note_on_c, 0, 51, 0
2, 20040, Note_on_c, 0, 54, 0
2, 20040, Note_on_c, 0, 47, 0
2, 20040, Note_on_c, 0, 63, 0
2, 20040, Note_on_c, 0, 59, 0
2, 20040, Note_on_c, 0, 47, 100
2, 20040, Note_on_c, 0, 51, 100
2, 20040, Note_on_c, 0, 54, 100
2, 20040, Note_on_c, 0, 59, 100
2, 20040, Note_on_c, 0, 63, 100
2, 20040, Note_on_c, 0, 66, 100
2, 20070, Note_on_c, 0, 66, 0
2, 20070, Note_on_c, 0, 51, 0
2, 20070, Note_on_c, 0, 54, 0
2, 20070, Note_on_c, 0, 47, 0
2, 20070, Note_on_c, 0, 63, 0
2, 20070, Note_on_c, 0, 59, 0
2, 20070, Note_on_c, 0, 54, 100
2, 20070, Note_on_c, 0, 51, 100
2, 20070, Note_on_c, 0, 47, 100
2, 20070, Note_on_c, 0, 59, 100
2, 20070, Note_on_c, 0, 63, 100
2, 20070, Note_on_c, 0, 66, 100
2, 20100, Note_on_c, 0, 66, 0
2, 20100, Note_on_c, 0, 51, 0
2, 20100, Note_on_c, 0, 47, 0
2, 20100, Note_on_c, 0, 54, 0
2, 20100, Note_on_c, 0, 63, 0
2, 20100, Note_on_c, 0, 59, 0
2, 20100, Note_on_c, 0, 47, 100
2, 20100, Note_on_c, 0, 51, 100
2, 20100, Note_on_c, 0, 54, 100
2, 20100, Note_on_c, 0, 59, 100
2, 20100, Note_on_c, 0, 63, 100
2, 20100, Note_on_c, 0, 66, 100
2, 20160, Note_on_c, 0, 66, 0
2, 20160, Note_on_c, 0, 51, 0
2, 20160, Note_on_c, 0, 54, 0
2, 20160, Note_on_c, 0, 47, 0
2, 20160, Note_on_c, 0, 63, 0
2, 20160, Note_on_c, 0, 59, 0
2, 20160, Note_on_c, 0, 68, 100
2, 20160, Note_on_c, 0, 49, 100
2, 20160, Note_on_c, 0, 52, 100
2, 20160, Note_on_c, 0, 56, 100
2, 20160, Note_on_c, 0, 61, 100
2, 20160, Note_on_c, 0, 64, 100
2, 20160, Note_on_c, 0, 68, 100
2, 20400, Note_on_c, 0, 68, 0
2, 20400, Note_on_c, 0, 61, 0
2, 20400, Note_on_c, 0, 49, 0
2, 20400, Note_on_c, 0, 52, 0
2, 20400, Note_on_c, 0, 68, 0
2, 20400, Note_on_c, 0, 64, 0
2, 20400, Note_on_c, 0, 56, 0
2, 20400, Note_on_c, 0, 47, 100
2, 20400, Note_on_c, 0, 51, 100
2, 20400, Note_on_c, 0, 54, 100
2, 20400, Note_on_c, 0, 59, 100
2, 20400, Note_on_c, 0, 63, 100
2, 20400, Note_on_c, 0, 66, 100
2, 20640, Note_on_c, 0, 66, 0
2, 20640, Note_on_c, 0, 51, 0
2, 20640, Note_on_c, 0, 54, 0
2, 20640, Note_on_c, 0, 47, 0
2, 20640, Note_on_c, 0, 63, 0
2, 20640, Note_on_c, 0, 59, 0
2, 20640, Note_on_c, 0, 49, 100
2, 20640, Note_on_c, 0, 52, 100
2, 20640, Note_on_c, 0, 57, 100
2, 20640, Note_on_c, 0, 61, 100
2, 20640, Note_on_c, 0, 64, 100
2, 20640, Note_on_c, 0, 69, 100
2, 20880, Note_on_c, 0, 69, 0
2, 20880, Note_on_c, 0, 52, 0
2, 20880, Note_on_c, 0, 57, 0
2, 20880, Note_on_c, 0, 49, 0
2, 20880, Note_on_c, 0, 64, 0
2, 20880, Note_on_c, 0, 61, 0
2, 20940, Note_on_c, 0, 47, 100
2, 20940, Note_on_c, 0, 51, 100
2, 20940, Note_on_c, 0, 54, 100
2, 20940, Note_on_c, 0, 59, 100
2, 20940, Note_on_c, 0, 63, 100
2, 20940, Note_on_c, 0, 66, 100
2, 21000, Note_on_c, 0, 66, 0
2, 21000, Note_on_c, 0, 51, 0
2, 21000, Note_on_c, 0, 54, 0
2, 21000, Note_on_c, 0, 47, 0
2, 21000, Note_on_c, 0, 63, 0
2, 21000, Note_on_c, 0, 59, 0
2, 21000, Note_on_c, 0, 47, 100
2, 21000, Note_on_c, 0, 51, 100
2, 21000, Note_on_c, 0, 54, 100
2, 21000, Note_on_c, 0, 59, 100
2, 21000, Note_on_c, 0, 63, 100
2, 21000, Note_on_c, 0, 66, 100
2, 21060, Note_on_c, 0, 66, 0
2, 21060, Note_on_c, 0, 51, 0
2, 21060, Note_on_c, 0, 54, 0
2, 21060, Note_on_c, 0, 47, 0
2, 21060, Note_on_c, 0, 63, 0
2, 21060, Note_on_c, 0, 59, 0
2, 21060, Note_on_c, 0, 59, 100
2, 21060, Note_on_c, 0, 47, 100
2, 21090, Note_on_c, 0, 47, 0
2, 21090, Note_on_c, 0, 59, 0
2, 21090, Note_on_c, 0, 59, 100
2, 21090, Note_on_c, 0, 47, 100
2, 21120, Note_on_c, 0, 47, 0
2, 21120, Note_on_c, 0, 59, 0
2, 21120, Note_on_c, 0, 68, 100
2, 21120, Note_on_c, 0, 49, 100
2, 21120, Note_on_c, 0, 52, 100
2, 21120, Note_on_c, 0, 56, 100
2, 21120, Note_on_c, 0, 61, 100
2, 21120, Note_on_c, 0, 64, 100
2, 21120, Note_on_c, 0, 68, 100
2, 21360, Note_on_c, 0, 68, 0
2, 21360, Note_on_c, 0, 61, 0
2, 21360, Note_on_c, 0, 49, 0
2, 21360, Note_on_c, 0, 52, 0
2, 21360, Note_on_c, 0, 68, 0
2, 21360, Note_on_c, 0, 64, 0
2, 21360, Note_on_c, 0, 56, 0
2, 21360, Note_on_c, 0, 47, 100
2, 21360, Note_on_c, 0, 51, 100
2, 21360, Note_on_c, 0, 54, 100
2, 21360, Note_on_c, 0, 59, 100
2, 21360, Note_on_c, 0, 63, 100
2, 21360, Note_on_c, 0, 66, 100
2, 21600, Note_on_c, 0, 66, 0
2, 21600, Note_on_c, 0, 51, 0
2, 21600, Note_on_c, 0, 54, 0
2, 21600, Note_on_c, 0, 47, 0
2, 21600, Note_on_c, 0, 63, 0
2, 21600, Note_on_c, 0, 59, 0
2, 21600, Note_on_c, 0, 49, 100
2, 21600, Note_on_c, 0, 52, 100
2, 21600, Note_on_c, 0, 57, 100
2, 21600, Note_on_c, 0, 61, 100
2, 21600, Note_on_c, 0, 64, 100
2, 21600, Note_on_c, 0, 69, 100
2, 21720, Note_on_c, 0, 69, 0
2, 21720, Note_on_c, 0, 52, 0
2, 21720, Note_on_c, 0, 57, 0
2, 21720, Note_on_c, 0, 49, 0
2, 21720, Note_on_c, 0, 64, 0
2, 21720, Note_on_c, 0, 61, 0
2, 21720, Note_on_c, 0, 49, 100
2, 21720, Note_on_c, 0, 52, 100
2, 21720, Note_on_c, 0, 57, 100
2, 21720, Note_on_c, 0, 61, 100
2, 21720, Note_on_c, 0, 64, 100
2, 21720, Note_on_c, 0, 69, 100
2, 21750, Note_on_c, 0, 69, 0
2, 21750, Note_on_c, 0, 52, 0
2, 21750, Note_on_c, 0, 57, 0
2, 21750, Note_on_c, 0, 49, 0
2, 21750, Note_on_c, 0, 64, 0
2, 21750, Note_on_c, 0, 61, 0
2, 21750, Note_on_c, 0, 49, 100
2, 21750, Note_on_c, 0, 52, 100
2, 21750, Note_on_c, 0, 57, 100
2, 21750, Note_on_c, 0, 61, 100
2, 21750, Note_on_c, 0, 64, 100
2, 21750, Note_on_c, 0, 69, 100
2, 21840, Note_on_c, 0, 69, 0
2, 21840, Note_on_c, 0, 52, 0
2, 21840, Note_on_c, 0, 57, 0
2, 21840, Note_on_c, 0, 49, 0
2, 21840, Note_on_c, 0, 64, 0
2, 21840, Note_on_c, 0, 61, 0
2, 21900, Note_on_c, 0, 47, 120
2, 21900, Note_on_c, 0, 51, 120
2, 21900, Note_on_c, 0, 54, 120
2, 21900, Note_on_c, 0, 59, 120
2, 21900, Note_on_c, 0, 63, 120
2, 21900, Note_on_c, 0, 66, 120
2, 21960, Note_on_c, 0, 66, 0
2, 21960, Note_on_c, 0, 51, 0
2, 21960, Note_on_c, 0, 54, 0
2, 21960, Note_on_c, 0, 47, 0
2, 21960, Note_on_c, 0, 63, 0
2, 21960, Note_on_c, 0, 59, 0
2, 21960, Note_on_c, 0, 47, 100
2, 21960, Note_on_c, 0, 51, 100
2, 21960, Note_on_c, 0, 54, 100
2, 21960, Note_on_c, 0, 59, 100
2, 21960, Note_on_c, 0, 63, 100
2, 21960, Note_on_c, 0, 66, 100
2, 21990, Note_on_c, 0, 66, 0
2, 21990, Note_on_c, 0, 51, 0
2, 21990, Note_on_c, 0, 54, 0
2, 21990, Note_on_c, 0, 47, 0
2, 21990, Note_on_c, 0, 63, 0
2, 21990, Note_on_c, 0, 59, 0
2, 21990, Note_on_c, 0, 54, 100
2, 21990, Note_on_c, 0, 51, 100
2, 21990, Note_on_c, 0, 47, 100
2, 21990, Note_on_c, 0, 59, 100
2, 21990, Note_on_c, 0, 63, 100
2, 21990, Note_on_c, 0, 66, 100
2, 22020, Note_on_c, 0, 66, 0
2, 22020, Note_on_c, 0, 51, 0
2, 22020, Note_on_c, 0, 47, 0
2, 22020, Note_on_c, 0, 54, 0
2, 22020, Note_on_c, 0, 63, 0
2, 22020, Note_on_c, 0, 59, 0
2, 22020, Note_on_c, 0, 47, 100
2, 22020, Note_on_c, 0, 51, 100
2, 22020, Note_on_c, 0, 54, 100
2, 22020, Note_on_c, 0, 59, 100
2, 22020, Note_on_c, 0, 63, 100
2, 22020, Note_on_c, 0, 66, 100
2, 22080, Note_on_c, 0, 66, 0
2, 22080, Note_on_c, 0, 51, 0
2, 22080, Note_on_c, 0, 54, 0
2, 22080, Note_on_c, 0, 47, 0
2, 22080, Note_on_c, 0, 63, 0
2, 22080, Note_on_c, 0, 59, 0
2, 22080, Note_on_c, 0, 68, 100
2, 22080, Note_on_c, 0, 49, 100
2, 22080, Note_on_c, 0, 52, 100
2, 22080, Note_on_c, 0, 56, 100
2, 22080, Note_on_c, 0, 61, 100
2, 22080, Note_on_c, 0, 64, 100
2, 22080, Note_on_c, 0, 68, 100
2, 22320, Note_on_c, 0, 68, 0
2, 22320, Note_on_c, 0, 61, 0
2, 22320, Note_on_c, 0, 49, 0
2, 22320, Note_on_c, 0, 52, 0
2, 22320, Note_on_c, 0, 68, 0
2, 22320, Note_on_c, 0, 64, 0
2, 22320, Note_on_c, 0, 56, 0
2, 22320, Note_on_c, 0, 47, 100
2, 22320, Note_on_c, 0, 51, 100
2, 22320, Note_on_c, 0, 54, 100
2, 22320, Note_on_c, 0, 59, 100
2, 22320, Note_on_c, 0, 63, 100
2, 22320, Note_on_c, 0, 66, 100
2, 22560, Note_on_c, 0, 66, 0
2, 22560, Note_on_c, 0, 51, 0
2, 22560, Note_on_c, 0, 54, 0
2, 22560, Note_on_c, 0, 47, 0
2, 22560, Note_on_c, 0, 63, 0
2, 22560, Note_on_c, 0, 59, 0
2, 22560, Note_on_c, 0, 49, 100
2, 22560, Note_on_c, 0, 52, 100
2, 22560, Note_on_c, 0, 57, 100
2, 22560, Note_on_c, 0, 61, 100
2, 22560, Note_on_c, 0, 64, 100
2, 22560, Note_on_c, 0, 69, 100
2, 22680, Note_on_c, 0, 69, 0
2, 22680, Note_on_c, 0, 52, 0
2, 22680, Note_on_c, 0, 57, 0
2, 22680, Note_on_c, 0, 49, 0
2, 22680, Note_on_c, 0, 64, 0
2, 22680, Note_on_c, 0, 61, 0
2, 22680, Note_on_c, 0, 49, 100
2, 22680, Note_on_c, 0, 52, 100
2, 22680, Note_on_c, 0, 57, 100
2, 22680, Note_on_c, 0, 61, 100
2, 22680, Note_on_c, 0, 64, 100
2, 22680, Note_on_c, 0, 69, 100
2, 22710, Note_on_c, 0, 69, 0
2, 22710, Note_on_c, 0, 52, 0
2, 22710, Note_on_c, 0, 57, 0
2, 22710, Note_on_c, 0, 49, 0
2, 22710, Note_on_c, 0, 64, 0
2, 22710, Note_on_c, 0, 61, 0
2, 22710, Note_on_c, 0, 49, 100
2, 22710, Note_on_c, 0, 52, 100
2, 22710, Note_on_c, 0, 57, 100
2, 22710, Note_on_c, 0, 61, 100
2, 22710, Note_on_c, 0, 64, 100
2, 22710, Note_on_c, 0, 69, 100
2, 22800, Note_on_c, 0, 69, 0
2, 22800, Note_on_c, 0, 52, 0
2, 22800, Note_on_c, 0, 57, 0
2, 22800, Note_on_c, 0, 49, 0
2, 22800, Note_on_c, 0, 64, 0
2, 22800, Note_on_c, 0, 61, 0
2, 22860, Note_on_c, 0, 47, 120
2, 22860, Note_on_c, 0, 51, 120
2, 22860, Note_on_c, 0, 54, 120
2, 22860, Note_on_c, 0, 59, 120
2, 22860, Note_on_c, 0, 63, 120
2, 22860, Note_on_c, 0, 66, 120
2, 22920, Note_on_c, 0, 66, 0
2, 22920, Note_on_c, 0, 51, 0
2, 22920, Note_on_c, 0, 54, 0
2, 22920, Note_on_c, 0, 47, 0
2, 22920, Note_on_c, 0, 63, 0
2, 22920, Note_on_c, 0, 59, 0
2, 22920, Note_on_c, 0, 47, 100
2, 22920, Note_on_c, 0, 51, 100
2, 22920, Note_on_c, 0, 54, 100
2, 22920, Note_on_c, 0, 59, 100
2, 22920, Note_on_c, 0, 63, 100
2, 22920, Note_on_c, 0, 66, 100
2, 22950, Note_on_c, 0, 66, 0
2, 22950, Note_on_c, 0, 51, 0
2, 22950, Note_on_c, 0, 54, 0
2, 22950, Note_on_c, 0, 47, 0
2, 22950, Note_on_c, 0, 63, 0
2, 22950, Note_on_c, 0, 59, 0
2, 22950, Note_on_c, 0, 54, 100
2, 22950, Note_on_c, 0, 51, 100
2, 22950, Note_on_c, 0, 47, 100
2, 22950, Note_on_c, 0, 59, 100
2, 22950, Note_on_c, 0, 63, 100
2, 22950, Note_on_c, 0, 66, 100
2, 22980, Note_on_c, 0, 66, 0
2, 22980, Note_on_c, 0, 51, 0
2, 22980, Note_on_c, 0, 47, 0
2, 22980, Note_on_c, 0, 54, 0
2, 22980, Note_on_c, 0, 63, 0
2, 22980, Note_on_c, 0, 59, 0
2, 22980, Note_on_c, 0, 47, 100
2, 22980, Note_on_c, 0, 51, 100
2, 22980, Note_on_c, 0, 54, 100
2, 22980, Note_on_c, 0, 59, 100
2, 22980, Note_on_c, 0, 63, 100
2, 22980, Note_on_c, 0, 66, 100
2, 23040, Note_on_c, 0, 66, 0
2, 23040, Note_on_c, 0, 51, 0
2, 23040, Note_on_c, 0, 54, 0
2, 23040, Note_on_c, 0, 47, 0
2, 23040, Note_on_c, 0, 63, 0
2, 23040, Note_on_c, 0, 59, 0
2, 23040, Note_on_c, 0, 68, 100
2, 23040, Note_on_c, 0, 49, 100
2, 23040, Note_on_c, 0, 52, 100
2, 23040, Note_on_c, 0, 56, 100
2, 23040, Note_on_c, 0, 61, 100
2, 23040, Note_on_c, 0, 64, 100
2, 23040, Note_on_c, 0, 68, 100
2, 23280, Note_on_c, 0, 68, 0
2, 23280, Note_on_c, 0, 61, 0
2, 23280, Note_on_c, 0, 49, 0
2, 23280, Note_on_c, 0, 52, 0
2, 23280, Note_on_c, 0, 68, 0
2, 23280, Note_on_c, 0, 64, 0
2, 23280, Note_on_c, 0, 56, 0
2, 23280, Note_on_c, 0, 47, 100
2, 23280, Note_on_c, 0, 51, 100
2, 23280, Note_on_c, 0, 54, 100
2, 23280, Note_on_c, 0, 59, 100
2, 23280, Note_on_c, 0, 63, 100
2, 23280, Note_on_c, 0, 66, 100
2, 23490, Note_on_c, 0, 45, 100
2, 23490, Note_on_c, 0, 49, 100
2, 23490, Note_on_c, 0, 52, 100
2, 23490, Note_on_c, 0, 57, 100
2, 23490, Note_on_c, 0, 61, 100
2, 23490, Note_on_c, 0, 64, 100
2, 23490, Note_on_c, 0, 69, 100
2, 23520, Note_on_c, 0, 69, 0
2, 23520, Note_on_c, 0, 66, 0
2, 23520, Note_on_c, 0, 51, 0
2, 23520, Note_on_c, 0, 49, 0
2, 23520, Note_on_c, 0, 54, 0
2, 23520, Note_on_c, 0, 59, 0
2, 23520, Note_on_c, 0, 47, 0
2, 23520, Note_on_c, 0, 63, 0
2, 23520, Note_on_c, 0, 61, 0
2, 23520, Note_on_c, 0, 52, 0
2, 23520, Note_on_c, 0, 45, 0
2, 23520, Note_on_c, 0, 64, 0
2, 23520, Note_on_c, 0, 57, 0
2, 23520, Note_on_c, 0, 45, 100
2, 23520, Note_on_c, 0, 49, 100
2, 23520, Note_on_c, 0, 52, 100
2, 23520, Note_on_c, 0, 57, 100
2, 23520, Note_on_c, 0, 61, 100
2, 23550, Note_on_c, 0, 61, 0
2, 23550, Note_on_c, 0, 52, 0
2, 23550, Note_on_c, 0, 45, 0
2, 23550, Note_on_c, 0, 49, 0
2, 23550, Note_on_c, 0, 57, 0
2, 23550, Note_on_c, 0, 45, 100
2, 23550, Note_on_c, 0, 49, 100
2, 23550, Note_on_c, 0, 52, 100
2, 23550, Note_on_c, 0, 57, 100
2, 23550, Note_on_c, 0, 61, 100
2, 23580, Note_on_c, 0, 61, 0
2, 23580, Note_on_c, 0, 52, 0
2, 23580, Note_on_c, 0, 45, 0
2, 23580, Note_on_c, 0, 49, 0
2, 23580, Note_on_c, 0, 57, 0
2, 23580, Note_on_c, 0, 45, 100
2, 23580, Note_on_c, 0, 49, 100
2, 23580, Note_on_c, 0, 52, 100
2, 23580, Note_on_c, 0, 57, 100
2, 23580, Note_on_c, 0, 61, 100
2, 23610, Note_on_c, 0, 61, 0
2, 23610, Note_on_c, 0, 52, 0
2, 23610, Note_on_c, 0, 45, 0
2, 23610, Note_on_c, 0, 49, 0
2, 23610, Note_on_c, 0, 57, 0
2, 23610, Note_on_c, 0, 45, 100
2, 23610, Note_on_c, 0, 49, 100
2, 23610, Note_on_c, 0, 52, 100
2, 23610, Note_on_c, 0, 57, 100
2, 23610, Note_on_c, 0, 61, 100
2, 23640, Note_on_c, 0, 61, 0
2, 23640, Note_on_c, 0, 52, 0
2, 23640, Note_on_c, 0, 45, 0
2, 23640, Note_on_c, 0, 49, 0
2, 23640, Note_on_c, 0, 57, 0
2, 23640, Note_on_c, 0, 45, 100
2, 23640, Note_on_c, 0, 49, 100
2, 23640, Note_on_c, 0, 52, 100
2, 23640, Note_on_c, 0, 57, 100
2, 23640, Note_on_c, 0, 61, 100
2, 23760, Note_on_c, 0, 61, 0
2, 23760, Note_on_c, 0, 52, 0
2, 23760, Note_on_c, 0, 45, 0
2, 23760, Note_on_c, 0, 49, 0
2, 23760, Note_on_c, 0, 57, 0
2, 23760, Note_on_c, 0, 47, 100
2, 23760, Note_on_c, 0, 51, 100
2, 23760, Note_on_c, 0, 54, 100
2, 23760, Note_on_c, 0, 59, 100
2, 23790, Note_on_c, 0, 59, 0
2, 23790, Note_on_c, 0, 47, 0
2, 23790, Note_on_c, 0, 51, 0
2, 23790, Note_on_c, 0, 54, 0
2, 23790, Note_on_c, 0, 47, 100
2, 23790, Note_on_c, 0, 51, 100
2, 23790, Note_on_c, 0, 54, 100
2, 23790, Note_on_c, 0, 59, 100
2, 23820, Note_on_c, 0, 59, 0
2, 23820, Note_on_c, 0, 47, 0
2, 23820, Note_on_c, 0, 51, 0
2, 23820, Note_on_c, 0, 54, 0
2, 23820, Note_on_c, 0, 47, 100
2, 23820, Note_on_c, 0, 51, 100
2, 23820, Note_on_c, 0, 54, 100
2, 23820, Note_on_c, 0, 59, 100
2, 23850, Note_on_c, 0, 59, 0
2, 23850, Note_on_c, 0, 47, 0
2, 23850, Note_on_c, 0, 51, 0
2, 23850, Note_on_c, 0, 54, 0
2, 23850, Note_on_c, 0, 47, 100
2, 23850, Note_on_c, 0, 51, 100
2, 23850, Note_on_c, 0, 54, 100
2, 23850, Note_on_c, 0, 59, 100
2, 23880, Note_on_c, 0, 59, 0
2, 23880, Note_on_c, 0, 47, 0
2, 23880, Note_on_c, 0, 51, 0
2, 23880, Note_on_c, 0, 54, 0
2, 23880, Note_on_c, 0, 47, 100
2, 23880, Note_on_c, 0, 51, 100
2, 23880, Note_on_c, 0, 54, 100
2, 23880, Note_on_c, 0, 59, 100
2, 23940, Note_on_c, 0, 59, 0
2, 23940, Note_on_c, 0, 47, 0
2, 23940, Note_on_c, 0, 51, 0
2, 23940, Note_on_c, 0, 54, 0
2, 23940, Note_on_c, 0, 45, 100
2, 23940, Note_on_c, 0, 49, 100
2, 23940, Note_on_c, 0, 52, 100
2, 23940, Note_on_c, 0, 57, 100
2, 23940, Note_on_c, 0, 61, 100
2, 24000, Note_on_c, 0, 61, 0
2, 24000, Note_on_c, 0, 52, 0
2, 24000, Note_on_c, 0, 45, 0
2, 24000, Note_on_c, 0, 49, 0
2, 24000, Note_on_c, 0, 57, 0
2, 24000, Note_on_c, 0, 49, 100
2, 24000, Note_on_c, 0, 52, 100
2, 24000, Note_on_c, 0, 56, 100
2, 24000, Note_on_c, 0, 61, 100
2, 24030, Note_on_c, 0, 61, 0
2, 24030, Note_on_c, 0, 49, 0
2, 24030, Note_on_c, 0, 52, 0
2, 24030, Note_on_c, 0, 56, 0
2, 24030, Note_on_c, 0, 49, 100
2, 24030, Note_on_c, 0, 52, 100
2, 24030, Note_on_c, 0, 56, 100
2, 24030, Note_on_c, 0, 61, 100
2, 24060, Note_on_c, 0, 61, 0
2, 24060, Note_on_c, 0, 49, 0
2, 24060, Note_on_c, 0, 52, 0
2, 24060, Note_on_c, 0, 56, 0
2, 24060, Note_on_c, 0, 56, 100
2, 24060, Note_on_c, 0, 52, 100
2, 24060, Note_on_c, 0, 49, 100
2, 24060, Note_on_c, 0, 61, 100
2, 24090, Note_on_c, 0, 61, 0
2, 24090, Note_on_c, 0, 56, 0
2, 24090, Note_on_c, 0, 52, 0
2, 24090, Note_on_c, 0, 49, 0
2, 24090, Note_on_c, 0, 49, 100
2, 24090, Note_on_c, 0, 52, 100
2, 24090, Note_on_c, 0, 56, 100
2, 24090, Note_on_c, 0, 61, 100
2, 24120, Note_on_c, 0, 61, 0
2, 24120, Note_on_c, 0, 49, 0
2, 24120, Note_on_c, 0, 52, 0
2, 24120, Note_on_c, 0, 56, 0
2, 24120, Note_on_c, 0, 49, 100
2, 24120, Note_on_c, 0, 52, 100
2, 24120, Note_on_c, 0, 56, 100
2, 24120, Note_on_c, 0, 61, 100
2, 24180, Note_on_c, 0, 61, 0
2, 24180, Note_on_c, 0, 49, 0
2, 24180, Note_on_c, 0, 52, 0
2, 24180, Note_on_c, 0, 56, 0
2, 24180, Note_on_c, 0, 49, 100
2, 24180, Note_on_c, 0, 52, 100
2, 24180, Note_on_c, 0, 56, 100
2, 24180, Note_on_c, 0, 61, 100
2, 24210, Note_on_c, 0, 61, 0
2, 24210, Note_on_c, 0, 49, 0
2, 24210, Note_on_c, 0, 52, 0
2, 24210, Note_on_c, 0, 56, 0
2, 24210, Note_on_c, 0, 56, 100
2, 24210, Note_on_c, 0, 52, 100
2, 24210, Note_on_c, 0, 49, 100
2, 24210, Note_on_c, 0, 61, 100
2, 24240, Note_on_c, 0, 61, 0
2, 24240, Note_on_c, 0, 56, 0
2, 24240, Note_on_c, 0, 52, 0
2, 24240, Note_on_c, 0, 49, 0
2, 24240, Note_on_c, 0, 47, 100
2, 24240, Note_on_c, 0, 51, 100
2, 24240, Note_on_c, 0, 54, 100
2, 24240, Note_on_c, 0, 59, 100
2, 24270, Note_on_c, 0, 59, 0
2, 24270, Note_on_c, 0, 47, 0
2, 24270, Note_on_c, 0, 51, 0
2, 24270, Note_on_c, 0, 54, 0
2, 24270, Note_on_c, 0, 47, 100
2, 24270, Note_on_c, 0, 51, 100
2, 24270, Note_on_c, 0, 54, 100
2, 24270, Note_on_c, 0, 59, 100
2, 24300, Note_on_c, 0, 59, 0
2, 24300, Note_on_c, 0, 47, 0
2, 24300, Note_on_c, 0, 51, 0
2, 24300, Note_on_c, 0, 54, 0
2, 24300, Note_on_c, 0, 54, 100
2, 24300, Note_on_c, 0, 51, 100
2, 24300, Note_on_c, 0, 47, 100
2, 24300, Note_on_c, 0, 59, 100
2, 24330, Note_on_c, 0, 59, 0
2, 24330, Note_on_c, 0, 54, 0
2, 24330, Note_on_c, 0, 51, 0
2, 24330, Note_on_c, 0, 47, 0
2, 24330, Note_on_c, 0, 47, 100
2, 24330, Note_on_c, 0, 51, 100
2, 24330, Note_on_c, 0, 54, 100
2, 24330, Note_on_c, 0, 59, 100
2, 24360, Note_on_c, 0, 59, 0
2, 24360, Note_on_c, 0, 47, 0
2, 24360, Note_on_c, 0, 51, 0
2, 24360, Note_on_c, 0, 54, 0
2, 24360, Note_on_c, 0, 47, 100
2, 24360, Note_on_c, 0, 51, 100
2, 24360, Note_on_c, 0, 54, 100
2, 24360, Note_on_c, 0, 59, 100
2, 24420, Note_on_c, 0, 59, 0
2, 24420, Note_on_c, 0, 47, 0
2, 24420, Note_on_c, 0, 51, 0
2, 24420, Note_on_c, 0, 54, 0
2, 24420, Note_on_c, 0, 47, 100
2, 24420, Note_on_c, 0, 51, 100
2, 24420, Note_on_c, 0, 54, 100
2, 24420, Note_on_c, 0, 59, 100
2, 24450, Note_on_c, 0, 59, 0
2, 24450, Note_on_c, 0, 47, 0
2, 24450, Note_on_c, 0, 51, 0
2, 24450, Note_on_c, 0, 54, 0
2, 24450, Note_on_c, 0, 54, 100
2, 24450, Note_on_c, 0, 51, 100
2, 24450, Note_on_c, 0, 47, 100
2, 24450, Note_on_c, 0, 59, 100
2, 24480, Note_on_c, 0, 59, 0
2, 24480, Note_on_c, 0, 54, 0
2, 24480, Note_on_c, 0, 51, 0
2, 24480, Note_on_c, 0, 47, 0
2, 24480, Note_on_c, 0, 49, 100
2, 24480, Note_on_c, 0, 52, 100
2, 24480, Note_on_c, 0, 57, 100
2, 24480, Note_on_c, 0, 61, 100
2, 24510, Note_on_c, 0, 61, 0
2, 24510, Note_on_c, 0, 49, 0
2, 24510, Note_on_c, 0, 52, 0
2, 24510, Note_on_c, 0, 57, 0
2, 24510, Note_on_c, 0, 49, 100
2, 24510, Note_on_c, 0, 52, 100
2, 24510, Note_on_c, 0, 57, 100
2, 24510, Note_on_c, 0, 61, 100
2, 24540, Note_on_c, 0, 61, 0
2, 24540, Note_on_c, 0, 49, 0
2, 24540, Note_on_c, 0, 52, 0
2, 24540, Note_on_c, 0, 57, 0
2, 24540, Note_on_c, 0, 57, 100
2, 24540, Note_on_c, 0, 52, 100
2, 24540, Note_on_c, 0, 49, 100
2, 24540, Note_on_c, 0, 61, 100
2, 24570, Note_on_c, 0, 61, 0
2, 24570, Note_on_c, 0, 57, 0
2, 24570, Note_on_c, 0, 52, 0
2, 24570, Note_on_c, 0, 49, 0
2, 24570, Note_on_c, 0, 49, 100
2, 24570, Note_on_c, 0, 52, 100
2, 24570, Note_on_c, 0, 57, 100
2, 24570, Note_on_c, 0, 61, 100
2, 24600, Note_on_c, 0, 61, 0
2, 24600, Note_on_c, 0, 49, 0
2, 24600, Note_on_c, 0, 52, 0
2, 24600, Note_on_c, 0, 57, 0
2, 24600, Note_on_c, 0, 49, 100
2, 24600, Note_on_c, 0, 52, 100
2, 24600, Note_on_c, 0, 57, 100
2, 24600, Note_on_c, 0, 61, 100
2, 24660, Note_on_c, 0, 61, 0
2, 24660, Note_on_c, 0, 49, 0
2, 24660, Note_on_c, 0, 52, 0
2, 24660, Note_on_c, 0, 57, 0
2, 24660, Note_on_c, 0, 49, 100
2, 24660, Note_on_c, 0, 52, 100
2, 24660, Note_on_c, 0, 56, 100
2, 24660, Note_on_c, 0, 61, 100
2, 24690, Note_on_c, 0, 61, 0
2, 24690, Note_on_c, 0, 49, 0
2, 24690, Note_on_c, 0, 52, 0
2, 24690, Note_on_c, 0, 56, 0
2, 24690, Note_on_c, 0, 56, 100
2, 24690, Note_on_c, 0, 52, 100
2, 24690, Note_on_c, 0, 49, 100
2, 24690, Note_on_c, 0, 61, 100
2, 24720, Note_on_c, 0, 61, 0
2, 24720, Note_on_c, 0, 56, 0
2, 24720, Note_on_c, 0, 52, 0
2, 24720, Note_on_c, 0, 49, 0
2, 24720, Note_on_c, 0, 47, 100
2, 24720, Note_on_c, 0, 51, 100
2, 24720, Note_on_c, 0, 54, 100
2, 24720, Note_on_c, 0, 59, 100
2, 24750, Note_on_c, 0, 59, 0
2, 24750, Note_on_c, 0, 47, 0
2, 24750, Note_on_c, 0, 51, 0
2, 24750, Note_on_c, 0, 54, 0
2, 24750, Note_on_c, 0, 47, 100
2, 24750, Note_on_c, 0, 51, 100
2, 24750, Note_on_c, 0, 54, 100
2, 24750, Note_on_c, 0, 59, 100
2, 24780, Note_on_c, 0, 59, 0
2, 24780, Note_on_c, 0, 47, 0
2, 24780, Note_on_c, 0, 51, 0
2, 24780, Note_on_c, 0, 54, 0
2, 24780, Note_on_c, 0, 54, 100
2, 24780, Note_on_c, 0, 51, 100
2, 24780, Note_on_c, 0, 47, 100
2, 24780, Note_on_c, 0, 59, 100
2, 24810, Note_on_c, 0, 59, 0
2, 24810, Note_on_c, 0, 54, 0
2, 24810, Note_on_c, 0, 51, 0
2, 24810, Note_on_c, 0, 47, 0
2, 24810, Note_on_c, 0, 47, 100
2, 24810, Note_on_c, 0, 51, 100
2, 24810, Note_on_c, 0, 54, 100
2, 24810, Note_on_c, 0, 59, 100
2, 24840, Note_on_c, 0, 59, 0
2, 24840, Note_on_c, 0, 47, 0
2, 24840, Note_on_c, 0, 51, 0
2, 24840, Note_on_c, 0, 54, 0
2, 24840, Note_on_c, 0, 47, 100
2, 24840, Note_on_c, 0, 51, 100
2, 24840, Note_on_c, 0, 54, 100
2, 24840, Note_on_c, 0, 59, 100
2, 24900, Note_on_c, 0, 59, 0
2, 24900, Note_on_c, 0, 47, 0
2, 24900, Note_on_c, 0, 51, 0
2, 24900, Note_on_c, 0, 54, 0
2, 24900, Note_on_c, 0, 47, 100
2, 24900, Note_on_c, 0, 51, 100
2, 24900, Note_on_c, 0, 54, 100
2, 24900, Note_on_c, 0, 59, 100
2, 24930, Note_on_c, 0, 59, 0
2, 24930, Note_on_c, 0, 47, 0
2, 24930, Note_on_c, 0, 51, 0
2, 24930, Note_on_c, 0, 54, 0
2, 24930, Note_on_c, 0, 54, 100
2, 24930, Note_on_c, 0, 51, 100
2, 24930, Note_on_c, 0, 47, 100
2, 24930, Note_on_c, 0, 59, 100
2, 24960, Note_on_c, 0, 59, 0
2, 24960, Note_on_c, 0, 54, 0
2, 24960, Note_on_c, 0, 51, 0
2, 24960, Note_on_c, 0, 47, 0
2, 24960, Note_on_c, 0, 49, 100
2, 24960, Note_on_c, 0, 52, 100
2, 24960, Note_on_c, 0, 56, 100
2, 24960, Note_on_c, 0, 61, 100
2, 24990, Note_on_c, 0, 61, 0
2, 24990, Note_on_c, 0, 49, 0
2, 24990, Note_on_c, 0, 52, 0
2, 24990, Note_on_c, 0, 56, 0
2, 24990, Note_on_c, 0, 49, 100
2, 24990, Note_on_c, 0, 52, 100
2, 24990, Note_on_c, 0, 56, 100
2, 24990, Note_on_c, 0, 61, 100
2, 25020, Note_on_c, 0, 61, 0
2, 25020, Note_on_c, 0, 49, 0
2, 25020, Note_on_c, 0, 52, 0
2, 25020, Note_on_c, 0, 56, 0
2, 25020, Note_on_c, 0, 56, 100
2, 25020, Note_on_c, 0, 52, 100
2, 25020, Note_on_c, 0, 49, 100
2, 25020, Note_on_c, 0, 61, 100
2, 25050, Note_on_c, 0, 61, 0
2, 25050, Note_on_c, 0, 56, 0
2, 25050, Note_on_c, 0, 52, 0
2, 25050, Note_on_c, 0, 49, 0
2, 25050, Note_on_c, 0, 49, 100
2, 25050, Note_on_c, 0, 52, 100
2, 25050, Note_on_c, 0, 56, 100
2, 25050, Note_on_c, 0, 61, 100
2, 25080, Note_on_c, 0, 61, 0
2, 25080, Note_on_c, 0, 49, 0
2, 25080, Note_on_c, 0, 52, 0
2, 25080, Note_on_c, 0, 56, 0
2, 25080, Note_on_c, 0, 49, 100
2, 25080, Note_on_c, 0, 52, 100
2, 25080, Note_on_c, 0, 56, 100
2, 25080, Note_on_c, 0, 61, 100
2, 25140, Note_on_c, 0, 61, 0
2, 25140, Note_on_c, 0, 49, 0
2, 25140, Note_on_c, 0, 52, 0
2, 25140, Note_on_c, 0, 56, 0
2, 25140, Note_on_c, 0, 49, 100
2, 25140, Note_on_c, 0, 52, 100
2, 25140, Note_on_c, 0, 56, 100
2, 25140, Note_on_c, 0, 61, 100
2, 25170, Note_on_c, 0, 61, 0
2, 25170, Note_on_c, 0, 49, 0
2, 25170, Note_on_c, 0, 52, 0
2, 25170, Note_on_c, 0, 56, 0
2, 25170, Note_on_c, 0, 56, 100
2, 25170, Note_on_c, 0, 52, 100
2, 25170, Note_on_c, 0, 49, 100
2, 25170, Note_on_c, 0, 61, 100
2, 25200, Note_on_c, 0, 61, 0
2, 25200, Note_on_c, 0, 56, 0
2, 25200, Note_on_c, 0, 52, 0
2, 25200, Note_on_c, 0, 49, 0
2, 25200, Note_on_c, 0, 47, 100
2, 25200, Note_on_c, 0, 51, 100
2, 25200, Note_on_c, 0, 54, 100
2, 25200, Note_on_c, 0, 59, 100
2, 25230, Note_on_c, 0, 59, 0
2, 25230, Note_on_c, 0, 47, 0
2, 25230, Note_on_c, 0, 51, 0
2, 25230, Note_on_c, 0, 54, 0
2, 25230, Note_on_c, 0, 47, 100
2, 25230, Note_on_c, 0, 51, 100
2, 25230, Note_on_c, 0, 54, 100
2, 25230, Note_on_c, 0, 59, 100
2, 25260, Note_on_c, 0, 59, 0
2, 25260, Note_on_c, 0, 47, 0
2, 25260, Note_on_c, 0, 51, 0
2, 25260, Note_on_c, 0, 54, 0
2, 25260, Note_on_c, 0, 54, 100
2, 25260, Note_on_c, 0, 51, 100
2, 25260, Note_on_c, 0, 47, 100
2, 25260, Note_on_c, 0, 59, 100
2, 25290, Note_on_c, 0, 59, 0
2, 25290, Note_on_c, 0, 54, 0
2, 25290, Note_on_c, 0, 51, 0
2, 25290, Note_on_c, 0, 47, 0
2, 25290, Note_on_c, 0, 47, 100
2, 25290, Note_on_c, 0, 51, 100
2, 25290, Note_on_c, 0, 54, 100
2, 25290, Note_on_c, 0, 59, 100
2, 25320, Note_on_c, 0, 59, 0
2, 25320, Note_on_c, 0, 47, 0
2, 25320, Note_on_c, 0, 51, 0
2, 25320, Note_on_c, 0, 54, 0
2, 25320, Note_on_c, 0, 47, 100
2, 25320, Note_on_c, 0, 51, 100
2, 25320, Note_on_c, 0, 54, 100
2, 25320, Note_on_c, 0, 59, 100
2, 25380, Note_on_c, 0, 59, 0
2, 25380, Note_on_c, 0, 47, 0
2, 25380, Note_on_c, 0, 51, 0
2, 25380, Note_on_c, 0, 54, 0
2, 25380, Note_on_c, 0, 47, 100
2, 25380, Note_on_c, 0, 51, 100
2, 25380, Note_on_c, 0, 54, 100
2, 25380, Note_on_c, 0, 59, 100
2, 25410, Note_on_c, 0, 59, 0
2, 25410, Note_on_c, 0, 47, 0
2, 25410, Note_on_c, 0, 51, 0
2, 25410, Note_on_c, 0, 54, 0
2, 25410, Note_on_c, 0, 54, 100
2, 25410, Note_on_c, 0, 51, 100
2, 25410, Note_on_c, 0, 47, 100
2, 25410, Note_on_c, 0, 59, 100
2, 25440, Note_on_c, 0, 59, 0
2, 25440, Note_on_c, 0, 54, 0
2, 25440, Note_on_c, 0, 51, 0
2, 25440, Note_on_c, 0, 47, 0
2, 25440, Note_on_c, 0, 49, 100
2, 25440, Note_on_c, 0, 52, 100
2, 25440, Note_on_c, 0, 57, 100
2, 25440, Note_on_c, 0, 61, 100
2, 25470, Note_on_c, 0, 61, 0
2, 25470, Note_on_c, 0, 49, 0
2, 25470, Note_on_c, 0, 52, 0
2, 25470, Note_on_c, 0, 57, 0
2, 25470, Note_on_c, 0, 49, 100
2, 25470, Note_on_c, 0, 52, 100
2, 25470, Note_on_c, 0, 57, 100
2, 25470, Note_on_c, 0, 61, 100
2, 25500, Note_on_c, 0, 61, 0
2, 25500, Note_on_c, 0, 49, 0
2, 25500, Note_on_c, 0, 52, 0
2, 25500, Note_on_c, 0, 57, 0
2, 25500, Note_on_c, 0, 57, 100
2, 25500, Note_on_c, 0, 52, 100
2, 25500, Note_on_c, 0, 49, 100
2, 25500, Note_on_c, 0, 61, 100
2, 25530, Note_on_c, 0, 61, 0
2, 25530, Note_on_c, 0, 57, 0
2, 25530, Note_on_c, 0, 52, 0
2, 25530, Note_on_c, 0, 49, 0
2, 25530, Note_on_c, 0, 49, 100
2, 25530, Note_on_c, 0, 52, 100
2, 25530, Note_on_c, 0, 57, 100
2, 25530, Note_on_c, 0, 61, 100
2, 25560, Note_on_c, 0, 61, 0
2, 25560, Note_on_c, 0, 49, 0
2, 25560, Note_on_c, 0, 52, 0
2, 25560, Note_on_c, 0, 57, 0
2, 25560, Note_on_c, 0, 49, 100
2, 25560, Note_on_c, 0, 52, 100
2, 25560, Note_on_c, 0, 57, 100
2, 25560, Note_on_c, 0, 61, 100
2, 25620, Note_on_c, 0, 61, 0
2, 25620, Note_on_c, 0, 49, 0
2, 25620, Note_on_c, 0, 52, 0
2, 25620, Note_on_c, 0, 57, 0
2, 25620, Note_on_c, 0, 49, 100
2, 25620, Note_on_c, 0, 52, 100
2, 25620, Note_on_c, 0, 56, 100
2, 25620, Note_on_c, 0, 61, 100
2, 25650, Note_on_c, 0, 61, 0
2, 25650, Note_on_c, 0, 49, 0
2, 25650, Note_on_c, 0, 52, 0
2, 25650, Note_on_c, 0, 56, 0
2, 25650, Note_on_c, 0, 56, 100
2, 25650, Note_on_c, 0, 52, 100
2, 25650, Note_on_c, 0, 49, 100
2, 25650, Note_on_c, 0, 61, 100
2, 25680, Note_on_c, 0, 61, 0
2, 25680, Note_on_c, 0, 56, 0
2, 25680, Note_on_c, 0, 52, 0
2, 25680, Note_on_c, 0, 49, 0
2, 25680, Note_on_c, 0, 47, 100
2, 25680, Note_on_c, 0, 51, 100
2, 25680, Note_on_c, 0, 54, 100
2, 25680, Note_on_c, 0, 59, 100
2, 25710, Note_on_c, 0, 59, 0
2, 25710, Note_on_c, 0, 47, 0
2, 25710, Note_on_c, 0, 51, 0
2, 25710, Note_on_c, 0, 54, 0
2, 25710, Note_on_c, 0, 47, 100
2, 25710, Note_on_c, 0, 51, 100
2, 25710, Note_on_c, 0, 54, 100
2, 25710, Note_on_c, 0, 59, 100
2, 25740, Note_on_c, 0, 59, 0
2, 25740, Note_on_c, 0, 47, 0
2, 25740, Note_on_c, 0, 51, 0
2, 25740, Note_on_c, 0, 54, 0
2, 25740, Note_on_c, 0, 54, 100
2, 25740, Note_on_c, 0, 51, 100
2, 25740, Note_on_c, 0, 47, 100
2, 25740, Note_on_c, 0, 59, 100
2, 25770, Note_on_c, 0, 59, 0
2, 25770, Note_on_c, 0, 54, 0
2, 25770, Note_on_c, 0, 51, 0
2, 25770, Note_on_c, 0, 47, 0
2, 25770, Note_on_c, 0, 47, 100
2, 25770, Note_on_c, 0, 51, 100
2, 25770, Note_on_c, 0, 54, 100
2, 25770, Note_on_c, 0, 59, 100
2, 25800, Note_on_c, 0, 59, 0
2, 25800, Note_on_c, 0, 47, 0
2, 25800, Note_on_c, 0, 51, 0
2, 25800, Note_on_c, 0, 54, 0
2, 25800, Note_on_c, 0, 47, 100
2, 25800, Note_on_c, 0, 51, 100
2, 25800, Note_on_c, 0, 54, 100
2, 25800, Note_on_c, 0, 59, 100
2, 25860, Note_on_c, 0, 59, 0
2, 25860, Note_on_c, 0, 47, 0
2, 25860, Note_on_c, 0, 51, 0
2, 25860, Note_on_c, 0, 54, 0
2, 25860, Note_on_c, 0, 47, 100
2, 25860, Note_on_c, 0, 51, 100
2, 25860, Note_on_c, 0, 54, 100
2, 25860, Note_on_c, 0, 59, 100
2, 25890, Note_on_c, 0, 59, 0
2, 25890, Note_on_c, 0, 47, 0
2, 25890, Note_on_c, 0, 51, 0
2, 25890, Note_on_c, 0, 54, 0
2, 25890, Note_on_c, 0, 54, 100
2, 25890, Note_on_c, 0, 51, 100
2, 25890, Note_on_c, 0, 47, 100
2, 25890, Note_on_c, 0, 59, 100
2, 25920, Note_on_c, 0, 59, 0
2, 25920, Note_on_c, 0, 54, 0
2, 25920, Note_on_c, 0, 51, 0
2, 25920, Note_on_c, 0, 47, 0
2, 25920, Note_on_c, 0, 49, 100
2, 25920, Note_on_c, 0, 52, 100
2, 25920, Note_on_c, 0, 56, 100
2, 25920, Note_on_c, 0, 61, 100
2, 25950, Note_on_c, 0, 61, 0
2, 25950, Note_on_c, 0, 49, 0
2, 25950, Note_on_c, 0, 52, 0
2, 25950, Note_on_c, 0, 56, 0
2, 25950, Note_on_c, 0, 49, 100
2, 25950, Note_on_c, 0, 52, 100
2, 25950, Note_on_c, 0, 56, 100
2, 25950, Note_on_c, 0, 61, 100
2, 25980, Note_on_c, 0, 61, 0
2, 25980, Note_on_c, 0, 49, 0
2, 25980, Note_on_c, 0, 52, 0
2, 25980, Note_on_c, 0, 56, 0
2, 25980, Note_on_c, 0, 56, 100
2, 25980, Note_on_c, 0, 52, 100
2, 25980, Note_on_c, 0, 49, 100
2, 25980, Note_on_c, 0, 61, 100
2, 26010, Note_on_c, 0, 61, 0
2, 26010, Note_on_c, 0, 56, 0
2, 26010, Note_on_c, 0, 52, 0
2, 26010, Note_on_c, 0, 49, 0
2, 26010, Note_on_c, 0, 49, 100
2, 26010, Note_on_c, 0, 52, 100
2, 26010, Note_on_c, 0, 56, 100
2, 26010, Note_on_c, 0, 61, 100
2, 26040, Note_on_c, 0, 61, 0
2, 26040, Note_on_c, 0, 49, 0
2, 26040, Note_on_c, 0, 52, 0
2, 26040, Note_on_c, 0, 56, 0
2, 26040, Note_on_c, 0, 49, 100
2, 26040, Note_on_c, 0, 52, 100
2, 26040, Note_on_c, 0, 56, 100
2, 26040, Note_on_c, 0, 61, 100
2, 26100, Note_on_c, 0, 61, 0
2, 26100, Note_on_c, 0, 49, 0
2, 26100, Note_on_c, 0, 52, 0
2, 26100, Note_on_c, 0, 56, 0
2, 26100, Note_on_c, 0, 49, 100
2, 26100, Note_on_c, 0, 52, 100
2, 26100, Note_on_c, 0, 56, 100
2, 26100, Note_on_c, 0, 61, 100
2, 26130, Note_on_c, 0, 61, 0
2, 26130, Note_on_c, 0, 49, 0
2, 26130, Note_on_c, 0, 52, 0
2, 26130, Note_on_c, 0, 56, 0
2, 26130, Note_on_c, 0, 56, 100
2, 26130, Note_on_c, 0, 52, 100
2, 26130, Note_on_c, 0, 49, 100
2, 26130, Note_on_c, 0, 61, 100
2, 26160, Note_on_c, 0, 61, 0
2, 26160, Note_on_c, 0, 56, 0
2, 26160, Note_on_c, 0, 52, 0
2, 26160, Note_on_c, 0, 49, 0
2, 26160, Note_on_c, 0, 47, 100
2, 26160, Note_on_c, 0, 51, 100
2, 26160, Note_on_c, 0, 54, 100
2, 26160, Note_on_c, 0, 59, 100
2, 26190, Note_on_c, 0, 59, 0
2, 26190, Note_on_c, 0, 47, 0
2, 26190, Note_on_c, 0, 51, 0
2, 26190, Note_on_c, 0, 54, 0
2, 26190, Note_on_c, 0, 47, 100
2, 26190, Note_on_c, 0, 51, 100
2, 26190, Note_on_c, 0, 54, 100
2, 26190, Note_on_c, 0, 59, 100
2, 26220, Note_on_c, 0, 59, 0
2, 26220, Note_on_c, 0, 47, 0
2, 26220, Note_on_c, 0, 51, 0
2, 26220, Note_on_c, 0, 54, 0
2, 26220, Note_on_c, 0, 54, 100
2, 26220, Note_on_c, 0, 51, 100
2, 26220, Note_on_c, 0, 47, 100
2, 26220, Note_on_c, 0, 59, 100
2, 26250, Note_on_c, 0, 59, 0
2, 26250, Note_on_c, 0, 54, 0
2, 26250, Note_on_c, 0, 51, 0
2, 26250, Note_on_c, 0, 47, 0
2, 26250, Note_on_c, 0, 47, 100
2, 26250, Note_on_c, 0, 51, 100
2, 26250, Note_on_c, 0, 54, 100
2, 26250, Note_on_c, 0, 59, 100
2, 26280, Note_on_c, 0, 59, 0
2, 26280, Note_on_c, 0, 47, 0
2, 26280, Note_on_c, 0, 51, 0
2, 26280, Note_on_c, 0, 54, 0
2, 26280, Note_on_c, 0, 47, 100
2, 26280, Note_on_c, 0, 51, 100
2, 26280, Note_on_c, 0, 54, 100
2, 26280, Note_on_c, 0, 59, 100
2, 26340, Note_on_c, 0, 59, 0
2, 26340, Note_on_c, 0, 47, 0
2, 26340, Note_on_c, 0, 51, 0
2, 26340, Note_on_c, 0, 54, 0
2, 26340, Note_on_c, 0, 47, 100
2, 26340, Note_on_c, 0, 51, 100
2, 26340, Note_on_c, 0, 54, 100
2, 26340, Note_on_c, 0, 59, 100
2, 26370, Note_on_c, 0, 59, 0
2, 26370, Note_on_c, 0, 47, 0
2, 26370, Note_on_c, 0, 51, 0
2, 26370, Note_on_c, 0, 54, 0
2, 26370, Note_on_c, 0, 54, 100
2, 26370, Note_on_c, 0, 51, 100
2, 26370, Note_on_c, 0, 47, 100
2, 26370, Note_on_c, 0, 59, 100
2, 26400, Note_on_c, 0, 59, 0
2, 26400, Note_on_c, 0, 54, 0
2, 26400, Note_on_c, 0, 51, 0
2, 26400, Note_on_c, 0, 47, 0
2, 26400, Note_on_c, 0, 49, 100
2, 26400, Note_on_c, 0, 52, 100
2, 26400, Note_on_c, 0, 57, 100
2, 26400, Note_on_c, 0, 61, 100
2, 26430, Note_on_c, 0, 61, 0
2, 26430, Note_on_c, 0, 49, 0
2, 26430, Note_on_c, 0, 52, 0
2, 26430, Note_on_c, 0, 57, 0
2, 26430, Note_on_c, 0, 49, 100
2, 26430, Note_on_c, 0, 52, 100
2, 26430, Note_on_c, 0, 57, 100
2, 26430, Note_on_c, 0, 61, 100
2, 26460, Note_on_c, 0, 61, 0
2, 26460, Note_on_c, 0, 49, 0
2, 26460, Note_on_c, 0, 52, 0
2, 26460, Note_on_c, 0, 57, 0
2, 26460, Note_on_c, 0, 57, 100
2, 26460, Note_on_c, 0, 52, 100
2, 26460, Note_on_c, 0, 49, 100
2, 26460, Note_on_c, 0, 61, 100
2, 26490, Note_on_c, 0, 61, 0
2, 26490, Note_on_c, 0, 57, 0
2, 26490, Note_on_c, 0, 52, 0
2, 26490, Note_on_c, 0, 49, 0
2, 26490, Note_on_c, 0, 49, 100
2, 26490, Note_on_c, 0, 52, 100
2, 26490, Note_on_c, 0, 57, 100
2, 26490, Note_on_c, 0, 61, 100
2, 26520, Note_on_c, 0, 61, 0
2, 26520, Note_on_c, 0, 49, 0
2, 26520, Note_on_c, 0, 52, 0
2, 26520, Note_on_c, 0, 57, 0
2, 26520, Note_on_c, 0, 49, 100
2, 26520, Note_on_c, 0, 52, 100
2, 26520, Note_on_c, 0, 57, 100
2, 26520, Note_on_c, 0, 61, 100
2, 26580, Note_on_c, 0, 61, 0
2, 26580, Note_on_c, 0, 49, 0
2, 26580, Note_on_c, 0, 52, 0
2, 26580, Note_on_c, 0, 57, 0
2, 26580, Note_on_c, 0, 49, 100
2, 26580, Note_on_c, 0, 52, 100
2, 26580, Note_on_c, 0, 56, 100
2, 26580, Note_on_c, 0, 61, 100
2, 26610, Note_on_c, 0, 61, 0
2, 26610, Note_on_c, 0, 49, 0
2, 26610, Note_on_c, 0, 52, 0
2, 26610, Note_on_c, 0, 56, 0
2, 26610, Note_on_c, 0, 56, 100
2, 26610, Note_on_c, 0, 52, 100
2, 26610, Note_on_c, 0, 49, 100
2, 26610, Note_on_c, 0, 61, 100
2, 26640, Note_on_c, 0, 61, 0
2, 26640, Note_on_c, 0, 56, 0
2, 26640, Note_on_c, 0, 52, 0
2, 26640, Note_on_c, 0, 49, 0
2, 26640, Note_on_c, 0, 47, 100
2, 26640, Note_on_c, 0, 51, 100
2, 26640, Note_on_c, 0, 54, 100
2, 26640, Note_on_c, 0, 59, 100
2, 26670, Note_on_c, 0, 59, 0
2, 26670, Note_on_c, 0, 47, 0
2, 26670, Note_on_c, 0, 51, 0
2, 26670, Note_on_c, 0, 54, 0
2, 26670, Note_on_c, 0, 47, 100
2, 26670, Note_on_c, 0, 51, 100
2, 26670, Note_on_c, 0, 54, 100
2, 26670, Note_on_c, 0, 59, 100
2, 26700, Note_on_c, 0, 59, 0
2, 26700, Note_on_c, 0, 47, 0
2, 26700, Note_on_c, 0, 51, 0
2, 26700, Note_on_c, 0, 54, 0
2, 26700, Note_on_c, 0, 54, 100
2, 26700, Note_on_c, 0, 51, 100
2, 26700, Note_on_c, 0, 47, 100
2, 26700, Note_on_c, 0, 59, 100
2, 26730, Note_on_c, 0, 59, 0
2, 26730, Note_on_c, 0, 54, 0
2, 26730, Note_on_c, 0, 51, 0
2, 26730, Note_on_c, 0, 47, 0
2, 26730, Note_on_c, 0, 47, 100
2, 26730, Note_on_c, 0, 51, 100
2, 26730, Note_on_c, 0, 54, 100
2, 26730, Note_on_c, 0, 59, 100
2, 26760, Note_on_c, 0, 59, 0
2, 26760, Note_on_c, 0, 47, 0
2, 26760, Note_on_c, 0, 51, 0
2, 26760, Note_on_c, 0, 54, 0
2, 26760, Note_on_c, 0, 47, 100
2, 26760, Note_on_c, 0, 51, 100
2, 26760, Note_on_c, 0, 54, 100
2, 26760, Note_on_c, 0, 59, 100
2, 26820, Note_on_c, 0, 59, 0
2, 26820, Note_on_c, 0, 47, 0
2, 26820, Note_on_c, 0, 51, 0
2, 26820, Note_on_c, 0, 54, 0
2, 26820, Note_on_c, 0, 47, 100
2, 26820, Note_on_c, 0, 51, 100
2, 26820, Note_on_c, 0, 54, 100
2, 26820, Note_on_c, 0, 59, 100
2, 26820, Note_on_c, 0, 63, 100
2, 26820, Note_on_c, 0, 66, 100
2, 26850, Note_on_c, 0, 66, 0
2, 26850, Note_on_c, 0, 51, 0
2, 26850, Note_on_c, 0, 54, 0
2, 26850, Note_on_c, 0, 47, 0
2, 26850, Note_on_c, 0, 63, 0
2, 26850, Note_on_c, 0, 59, 0
2, 26850, Note_on_c, 0, 54, 100
2, 26850, Note_on_c, 0, 51, 100
2, 26850, Note_on_c, 0, 47, 100
2, 26850, Note_on_c, 0, 59, 100
2, 26850, Note_on_c, 0, 63, 100
2, 26850, Note_on_c, 0, 66, 100
2, 26880, Note_on_c, 0, 66, 0
2, 26880, Note_on_c, 0, 51, 0
2, 26880, Note_on_c, 0, 47, 0
2, 26880, Note_on_c, 0, 54, 0
2, 26880, Note_on_c, 0, 63, 0
2, 26880, Note_on_c, 0, 59, 0
2, 26880, Note_on_c, 0, 49, 100
2, 26880, Note_on_c, 0, 52, 100
2, 26880, Note_on_c, 0, 56, 100
2, 26880, Note_on_c, 0, 61, 100
2, 26910, Note_on_c, 0, 61, 0
2, 26910, Note_on_c, 0, 49, 0
2, 26910, Note_on_c, 0, 52, 0
2, 26910, Note_on_c, 0, 56, 0
2, 26910, Note_on_c, 0, 49, 100
2, 26910, Note_on_c, 0, 52, 100
2, 26910, Note_on_c, 0, 56, 100
2, 26910, Note_on_c, 0, 61, 100
2, 26940, Note_on_c, 0, 61, 0
2, 26940, Note_on_c, 0, 49, 0
2, 26940, Note_on_c, 0, 52, 0
2, 26940, Note_on_c, 0, 56, 0
2, 26940, Note_on_c, 0, 56, 100
2, 26940, Note_on_c, 0, 52, 100
2, 26940, Note_on_c, 0, 49, 100
2, 26940, Note_on_c, 0, 61, 100
2, 26970, Note_on_c, 0, 61, 0
2, 26970, Note_on_c, 0, 56, 0
2, 26970, Note_on_c, 0, 52, 0
2, 26970, Note_on_c, 0, 49, 0
2, 26970, Note_on_c, 0, 49, 100
2, 26970, Note_on_c, 0, 52, 100
2, 26970, Note_on_c, 0, 56, 100
2, 26970, Note_on_c, 0, 61, 100
2, 27000, Note_on_c, 0, 61, 0
2, 27000, Note_on_c, 0, 49, 0
2, 27000, Note_on_c, 0, 52, 0
2, 27000, Note_on_c, 0, 56, 0
2, 27000, Note_on_c, 0, 49, 100
2, 27000, Note_on_c, 0, 52, 100
2, 27000, Note_on_c, 0, 56, 100
2, 27000, Note_on_c, 0, 61, 100
2, 27060, Note_on_c, 0, 61, 0
2, 27060, Note_on_c, 0, 49, 0
2, 27060, Note_on_c, 0, 52, 0
2, 27060, Note_on_c, 0, 56, 0
2, 27060, Note_on_c, 0, 49, 100
2, 27060, Note_on_c, 0, 52, 100
2, 27060, Note_on_c, 0, 56, 100
2, 27060, Note_on_c, 0, 61, 100
2, 27090, Note_on_c, 0, 61, 0
2, 27090, Note_on_c, 0, 49, 0
2, 27090, Note_on_c, 0, 52, 0
2, 27090, Note_on_c, 0, 56, 0
2, 27090, Note_on_c, 0, 56, 100
2, 27090, Note_on_c, 0, 52, 100
2, 27090, Note_on_c, 0, 49, 100
2, 27090, Note_on_c, 0, 61, 100
2, 27120, Note_on_c, 0, 61, 0
2, 27120, Note_on_c, 0, 56, 0
2, 27120, Note_on_c, 0, 52, 0
2, 27120, Note_on_c, 0, 49, 0
2, 27120, Note_on_c, 0, 47, 100
2, 27120, Note_on_c, 0, 51, 100
2, 27120, Note_on_c, 0, 54, 100
2, 27120, Note_on_c, 0, 59, 100
2, 27120, Note_on_c, 0, 63, 100
2, 27150, Note_on_c, 0, 63, 0
2, 27150, Note_on_c, 0, 54, 0
2, 27150, Note_on_c, 0, 47, 0
2, 27150, Note_on_c, 0, 51, 0
2, 27150, Note_on_c, 0, 59, 0
2, 27150, Note_on_c, 0, 47, 100
2, 27150, Note_on_c, 0, 51, 100
2, 27150, Note_on_c, 0, 54, 100
2, 27150, Note_on_c, 0, 59, 100
2, 27150, Note_on_c, 0, 63, 100
2, 27180, Note_on_c, 0, 63, 0
2, 27180, Note_on_c, 0, 54, 0
2, 27180, Note_on_c, 0, 47, 0
2, 27180, Note_on_c, 0, 51, 0
2, 27180, Note_on_c, 0, 59, 0
2, 27180, Note_on_c, 0, 54, 100
2, 27180, Note_on_c, 0, 51, 100
2, 27180, Note_on_c, 0, 47, 100
2, 27180, Note_on_c, 0, 59, 100
2, 27180, Note_on_c, 0, 63, 100
2, 27210, Note_on_c, 0, 63, 0
2, 27210, Note_on_c, 0, 47, 0
2, 27210, Note_on_c, 0, 54, 0
2, 27210, Note_on_c, 0, 51, 0
2, 27210, Note_on_c, 0, 59, 0
2, 27210, Note_on_c, 0, 47, 100
2, 27210, Note_on_c, 0, 51, 100
2, 27210, Note_on_c, 0, 54, 100
2, 27210, Note_on_c, 0, 59, 100
2, 27210, Note_on_c, 0, 63, 100
2, 27240, Note_on_c, 0, 63, 0
2, 27240, Note_on_c, 0, 54, 0
2, 27240, Note_on_c, 0, 47, 0
2, 27240, Note_on_c, 0, 51, 0
2, 27240, Note_on_c, 0, 59, 0
2, 27240, Note_on_c, 0, 47, 100
2, 27240, Note_on_c, 0, 51, 100
2, 27240, Note_on_c, 0, 54, 100
2, 27240, Note_on_c, 0, 59, 100
2, 27240, Note_on_c, 0, 63, 100
2, 27300, Note_on_c, 0, 63, 0
2, 27300, Note_on_c, 0, 54, 0
2, 27300, Note_on_c, 0, 47, 0
2, 27300, Note_on_c, 0, 51, 0
2, 27300, Note_on_c, 0, 59, 0
2, 27300, Note_on_c, 0, 47, 100
2, 27300, Note_on_c, 0, 51, 100
2, 27300, Note_on_c, 0, 54, 100
2, 27300, Note_on_c, 0, 59, 100
2, 27300, Note_on_c, 0, 63, 100
2, 27330, Note_on_c, 0, 63, 0
2, 27330, Note_on_c, 0, 54, 0
2, 27330, Note_on_c, 0, 47, 0
2, 27330, Note_on_c, 0, 51, 0
2, 27330, Note_on_c, 0, 59, 0
2, 27330, Note_on_c, 0, 54, 100
2, 27330, Note_on_c, 0, 51, 100
2, 27330, Note_on_c, 0, 47, 100
2, 27330, Note_on_c, 0, 59, 100
2, 27330, Note_on_c, 0, 63, 100
2, 27360, Note_on_c, 0, 63, 0
2, 27360, Note_on_c, 0, 47, 0
2, 27360, Note_on_c, 0, 54, 0
2, 27360, Note_on_c, 0, 51, 0
2, 27360, Note_on_c, 0, 59, 0
2, 27360, Note_on_c, 0, 49, 100
2, 27360, Note_on_c, 0, 52, 100
2, 27360, Note_on_c, 0, 57, 100
2, 27390, Note_on_c, 0, 57, 0
2, 27390, Note_on_c, 0, 52, 0
2, 27390, Note_on_c, 0, 49, 0
2, 27390, Note_on_c, 0, 49, 100
2, 27390, Note_on_c, 0, 52, 100
2, 27390, Note_on_c, 0, 57, 100
2, 27420, Note_on_c, 0, 57, 0
2, 27420, Note_on_c, 0, 52, 0
2, 27420, Note_on_c, 0, 49, 0
2, 27420, Note_on_c, 0, 57, 100
2, 27420, Note_on_c, 0, 52, 100
2, 27420, Note_on_c, 0, 49, 100
2, 27450, Note_on_c, 0, 49, 0
2, 27450, Note_on_c, 0, 52, 0
2, 27450, Note_on_c, 0, 57, 0
2, 27450, Note_on_c, 0, 49, 100
2, 27450, Note_on_c, 0, 52, 100
2, 27450, Note_on_c, 0, 57, 100
2, 27480, Note_on_c, 0, 57, 0
2, 27480, Note_on_c, 0, 52, 0
2, 27480, Note_on_c, 0, 49, 0
2, 27480, Note_on_c, 0, 49, 100
2, 27480, Note_on_c, 0, 52, 100
2, 27480, Note_on_c, 0, 57, 100
2, 27540, Note_on_c, 0, 57, 0
2, 27540, Note_on_c, 0, 52, 0
2, 27540, Note_on_c, 0, 49, 0
2, 27540, Note_on_c, 0, 49, 100
2, 27540, Note_on_c, 0, 52, 100
2, 27540, Note_on_c, 0, 56, 100
2, 27570, Note_on_c, 0, 56, 0
2, 27570, Note_on_c, 0, 52, 0
2, 27570, Note_on_c, 0, 49, 0
2, 27570, Note_on_c, 0, 56, 100
2, 27570, Note_on_c, 0, 52, 100
2, 27570, Note_on_c, 0, 49, 100
2, 27600, Note_on_c, 0, 49, 0
2, 27600, Note_on_c, 0, 52, 0
2, 27600, Note_on_c, 0, 56, 0
2, 27600, Note_on_c, 0, 47, 100
2, 27600, Note_on_c, 0, 51, 100
2, 27600, Note_on_c, 0, 54, 100
2, 27630, Note_on_c, 0, 54, 0
2, 27630, Note_on_c, 0, 51, 0
2, 27630, Note_on_c, 0, 47, 0
2, 27630, Note_on_c, 0, 47, 100
2, 27630, Note_on_c, 0, 51, 100
2, 27630, Note_on_c, 0, 54, 100
2, 27660, Note_on_c, 0, 54, 0
2, 27660, Note_on_c, 0, 51, 0
2, 27660, Note_on_c, 0, 47, 0
2, 27660, Note_on_c, 0, 54, 100
2, 27660, Note_on_c, 0, 51, 100
2, 27660, Note_on_c, 0, 47, 100
2, 27690, Note_on_c, 0, 47, 0
2, 27690, Note_on_c, 0, 51, 0
2, 27690, Note_on_c, 0, 54, 0
2, 27690, Note_on_c, 0, 47, 100
2, 27690, Note_on_c, 0, 51, 100
2, 27690, Note_on_c, 0, 54, 100
2, 27720, Note_on_c, 0, 54, 0
2, 27720, Note_on_c, 0, 51, 0
2, 27720, Note_on_c, 0, 47, 0
2, 27720, Note_on_c, 0, 47, 100
2, 27720, Note_on_c, 0, 51, 100
2, 27720, Note_on_c, 0, 54, 100
2, 27780, Note_on_c, 0, 54, 0
2, 27780, Note_on_c, 0, 51, 0
2, 27780, Note_on_c, 0, 47, 0
2, 27780, Note_on_c, 0, 47, 100
2, 27780, Note_on_c, 0, 51, 100
2, 27780, Note_on_c, 0, 54, 100
2, 27810, Note_on_c, 0, 54, 0
2, 27810, Note_on_c, 0, 51, 0
2, 27810, Note_on_c, 0, 47, 0
2, 27810, Note_on_c, 0, 54, 100
2, 27810, Note_on_c, 0, 51, 100
2, 27810, Note_on_c, 0, 47, 100
2, 27840, Note_on_c, 0, 47, 0
2, 27840, Note_on_c, 0, 51, 0
2, 27840, Note_on_c, 0, 54, 0
2, 27840, Note_on_c, 0, 68, 100
2, 27840, Note_on_c, 0, 49, 100
2, 27840, Note_on_c, 0, 52, 100
2, 27840, Note_on_c, 0, 56, 100
2, 27840, Note_on_c, 0, 61, 100
2, 27840, Note_on_c, 0, 64, 100
2, 27840, Note_on_c, 0, 68, 100
2, 28080, Note_on_c, 0, 68, 0
2, 28080, Note_on_c, 0, 61, 0
2, 28080, Note_on_c, 0, 49, 0
2, 28080, Note_on_c, 0, 52, 0
2, 28080, Note_on_c, 0, 68, 0
2, 28080, Note_on_c, 0, 64, 0
2, 28080, Note_on_c, 0, 56, 0
2, 28080, Note_on_c, 0, 47, 100
2, 28080, Note_on_c, 0, 51, 100
2, 28080, Note_on_c, 0, 54, 100
2, 28080, Note_on_c, 0, 59, 100
2, 28080, Note_on_c, 0, 63, 100
2, 28080, Note_on_c, 0, 66, 100
2, 28320, Note_on_c, 0, 66, 0
2, 28320, Note_on_c, 0, 51, 0
2, 28320, Note_on_c, 0, 54, 0
2, 28320, Note_on_c, 0, 47, 0
2, 28320, Note_on_c, 0, 63, 0
2, 28320, Note_on_c, 0, 59, 0
2, 28320, Note_on_c, 0, 49, 100
2, 28320, Note_on_c, 0, 52, 100
2, 28320, Note_on_c, 0, 57, 100
2, 28320, Note_on_c, 0, 61, 100
2, 28320, Note_on_c, 0, 64, 100
2, 28320, Note_on_c, 0, 69, 100
2, 28380, Note_on_c, 0, 69, 0
2, 28380, Note_on_c, 0, 52, 0
2, 28380, Note_on_c, 0, 57, 0
2, 28380, Note_on_c, 0, 49, 0
2, 28380, Note_on_c, 0, 64, 0
2, 28380, Note_on_c, 0, 61, 0
2, 28380, Note_on_c, 0, 49, 100
2, 28380, Note_on_c, 0, 52, 100
2, 28380, Note_on_c, 0, 57, 100
2, 28380, Note_on_c, 0, 61, 100
2, 28380, Note_on_c, 0, 64, 100
2, 28380, Note_on_c, 0, 69, 100
2, 28410, Note_on_c, 0, 69, 0
2, 28410, Note_on_c, 0, 52, 0
2, 28410, Note_on_c, 0, 57, 0
2, 28410, Note_on_c, 0, 49, 0
2, 28410, Note_on_c, 0, 64, 0
2, 28410, Note_on_c, 0, 61, 0
2, 28410, Note_on_c, 0, 49, 100
2, 28410, Note_on_c, 0, 52, 100
2, 28410, Note_on_c, 0, 61, 100
2, 28410, Note_on_c, 0, 57, 100
2, 28410, Note_on_c, 0, 64, 100
2, 28410, Note_on_c, 0, 69, 100
2, 28440, Note_on_c, 0, 69, 0
2, 28440, Note_on_c, 0, 52, 0
2, 28440, Note_on_c, 0, 61, 0
2, 28440, Note_on_c, 0, 49, 0
2, 28440, Note_on_c, 0, 64, 0
2, 28440, Note_on_c, 0, 57, 0
2, 28440, Note_on_c, 0, 49, 100
2, 28440, Note_on_c, 0, 52, 100
2, 28440, Note_on_c, 0, 57, 100
2, 28440, Note_on_c, 0, 61, 100
2, 28440, Note_on_c, 0, 64, 100
2, 28440, Note_on_c, 0, 69, 100
2, 28560, Note_on_c, 0, 69, 0
2, 28560, Note_on_c, 0, 52, 0
2, 28560, Note_on_c, 0, 57, 0
2, 28560, Note_on_c, 0, 49, 0
2, 28560, Note_on_c, 0, 64, 0
2, 28560, Note_on_c, 0, 61, 0
2, 28620, Note_on_c, 0, 47, 100
2, 28620, Note_on_c, 0, 51, 100
2, 28620, Note_on_c, 0, 54, 100
2, 28620, Note_on_c, 0, 59, 100
2, 28620, Note_on_c, 0, 63, 100
2, 28620, Note_on_c, 0, 66, 100
2, 28650, Note_on_c, 0, 66, 0
2, 28650, Note_on_c, 0, 51, 0
2, 28650, Note_on_c, 0, 54, 0
2, 28650, Note_on_c, 0, 47, 0
2, 28650, Note_on_c, 0, 63, 0
2, 28650, Note_on_c, 0, 59, 0
2, 28650, Note_on_c, 0, 47, 100
2, 28650, Note_on_c, 0, 51, 100
2, 28650, Note_on_c, 0, 54, 100
2, 28650, Note_on_c, 0, 59, 100
2, 28650, Note_on_c, 0, 63, 100
2, 28650, Note_on_c, 0, 66, 100
2, 28680, Note_on_c, 0, 66, 0
2, 28680, Note_on_c, 0, 51, 0
2, 28680, Note_on_c, 0, 54, 0
2, 28680, Note_on_c, 0, 47, 0
2, 28680, Note_on_c, 0, 63, 0
2, 28680, Note_on_c, 0, 59, 0
2, 28680, Note_on_c, 0, 47, 100
2, 28680, Note_on_c, 0, 51, 100
2, 28680, Note_on_c, 0, 54, 100
2, 28680, Note_on_c, 0, 59, 100
2, 28680, Note_on_c, 0, 63, 100
2, 28680, Note_on_c, 0, 66, 100
2, 28800, Note_on_c, 0, 66, 0
2, 28800, Note_on_c, 0, 51, 0
2, 28800, Note_on_c, 0, 54, 0
2, 28800, Note_on_c, 0, 47, 0
2, 28800, Note_on_c, 0, 63, 0
2, 28800, Note_on_c, 0, 59, 0
2, 28800, Note_on_c, 0, 68, 100
2, 28800, Note_on_c, 0, 49, 100
2, 28800, Note_on_c, 0, 52, 100
2, 28800, Note_on_c, 0, 56, 100
2, 28800, Note_on_c, 0, 61, 100
2, 28800, Note_on_c, 0, 64, 100
2, 28800, Note_on_c, 0, 68, 100
2, 29040, Note_on_c, 0, 68, 0
2, 29040, Note_on_c, 0, 61, 0
2, 29040, Note_on_c, 0, 49, 0
2, 29040, Note_on_c, 0, 52, 0
2, 29040, Note_on_c, 0, 68, 0
2, 29040, Note_on_c, 0, 64, 0
2, 29040, Note_on_c, 0, 56, 0
2, 29040, Note_on_c, 0, 47, 100
2, 29040, Note_on_c, 0, 51, 100
2, 29040, Note_on_c, 0, 54, 100
2, 29040, Note_on_c, 0, 59, 100
2, 29040, Note_on_c, 0, 63, 100
2, 29040, Note_on_c, 0, 66, 100
2, 29280, Note_on_c, 0, 66, 0
2, 29280, Note_on_c, 0, 51, 0
2, 29280, Note_on_c, 0, 54, 0
2, 29280, Note_on_c, 0, 47, 0
2, 29280, Note_on_c, 0, 63, 0
2, 29280, Note_on_c, 0, 59, 0
2, 29280, Note_on_c, 0, 49, 100
2, 29280, Note_on_c, 0, 52, 100
2, 29280, Note_on_c, 0, 57, 100
2, 29280, Note_on_c, 0, 61, 100
2, 29280, Note_on_c, 0, 64, 100
2, 29280, Note_on_c, 0, 69, 100
2, 29520, Note_on_c, 0, 69, 0
2, 29520, Note_on_c, 0, 52, 0
2, 29520, Note_on_c, 0, 57, 0
2, 29520, Note_on_c, 0, 49, 0
2, 29520, Note_on_c, 0, 64, 0
2, 29520, Note_on_c, 0, 61, 0
2, 29550, Note_on_c, 0, 47, 100
2, 29550, Note_on_c, 0, 51, 100
2, 29550, Note_on_c, 0, 54, 100
2, 29550, Note_on_c, 0, 59, 100
2, 29550, Note_on_c, 0, 63, 100
2, 29550, Note_on_c, 0, 66, 100
2, 29580, Note_on_c, 0, 66, 0
2, 29580, Note_on_c, 0, 51, 0
2, 29580, Note_on_c, 0, 54, 0
2, 29580, Note_on_c, 0, 47, 0
2, 29580, Note_on_c, 0, 63, 0
2, 29580, Note_on_c, 0, 59, 0
2, 29580, Note_on_c, 0, 47, 100
2, 29580, Note_on_c, 0, 51, 100
2, 29580, Note_on_c, 0, 54, 100
2, 29580, Note_on_c, 0, 59, 100
2, 29580, Note_on_c, 0, 63, 100
2, 29580, Note_on_c, 0, 66, 100
2, 29640, Note_on_c, 0, 66, 0
2, 29640, Note_on_c, 0, 51, 0
2, 29640, Note_on_c, 0, 54, 0
2, 29640, Note_on_c, 0, 47, 0
2, 29640, Note_on_c, 0, 63, 0
2, 29640, Note_on_c, 0, 59, 0
2, 29640, Note_on_c, 0, 47, 100
2, 29640, Note_on_c, 0, 51, 100
2, 29640, Note_on_c, 0, 54, 100
2, 29640, Note_on_c, 0, 59, 100
2, 29640, Note_on_c, 0, 63, 100
2, 29640, Note_on_c, 0, 66, 100
2, 29760, Note_on_c, 0, 66, 0
2, 29760, Note_on_c, 0, 51, 0
2, 29760, Note_on_c, 0, 54, 0
2, 29760, Note_on_c, 0, 47, 0
2, 29760, Note_on_c, 0, 63, 0
2, 29760, Note_on_c, 0, 59, 0
2, 29760, Note_on_c, 0, 68, 100
2, 29760, Note_on_c, 0, 49, 100
2, 29760, Note_on_c, 0, 52, 100
2, 29760, Note_on_c, 0, 56, 100
2, 29760, Note_on_c, 0, 61, 100
2, 29760, Note_on_c, 0, 64, 100
2, 29760, Note_on_c, 0, 68, 100
2, 30000, Note_on_c, 0, 68, 0
2, 30000, Note_on_c, 0, 61, 0
2, 30000, Note_on_c, 0, 49, 0
2, 30000, Note_on_c, 0, 52, 0
2, 30000, Note_on_c, 0, 68, 0
2, 30000, Note_on_c, 0, 64, 0
2, 30000, Note_on_c, 0, 56, 0
2, 30000, Note_on_c, 0, 47, 100
2, 30000, Note_on_c, 0, 51, 100
2, 30000, Note_on_c, 0, 54, 100
2, 30000, Note_on_c, 0, 59, 100
2, 30000, Note_on_c, 0, 63, 100
2, 30000, Note_on_c, 0, 66, 100
2, 30240, Note_on_c, 0, 66, 0
2, 30240, Note_on_c, 0, 51, 0
2, 30240, Note_on_c, 0, 54, 0
2, 30240, Note_on_c, 0, 47, 0
2, 30240, Note_on_c, 0, 63, 0
2, 30240, Note_on_c, 0, 59, 0
2, 30240, Note_on_c, 0, 49, 100
2, 30240, Note_on_c, 0, 52, 100
2, 30240, Note_on_c, 0, 57, 100
2, 30240, Note_on_c, 0, 61, 100
2, 30240, Note_on_c, 0, 64, 100
2, 30240, Note_on_c, 0, 69, 100
2, 30360, Note_on_c, 0, 69, 0
2, 30360, Note_on_c, 0, 52, 0
2, 30360, Note_on_c, 0, 57, 0
2, 30360, Note_on_c, 0, 49, 0
2, 30360, Note_on_c, 0, 64, 0
2, 30360, Note_on_c, 0, 61, 0
2, 30360, Note_on_c, 0, 49, 100
2, 30360, Note_on_c, 0, 52, 100
2, 30360, Note_on_c, 0, 57, 100
2, 30360, Note_on_c, 0, 61, 100
2, 30360, Note_on_c, 0, 64, 100
2, 30360, Note_on_c, 0, 69, 100
2, 30420, Note_on_c, 0, 69, 0
2, 30420, Note_on_c, 0, 52, 0
2, 30420, Note_on_c, 0, 57, 0
2, 30420, Note_on_c, 0, 49, 0
2, 30420, Note_on_c, 0, 64, 0
2, 30420, Note_on_c, 0, 61, 0
2, 30420, Note_on_c, 0, 49, 100
2, 30420, Note_on_c, 0, 52, 100
2, 30420, Note_on_c, 0, 57, 100
2, 30420, Note_on_c, 0, 61, 100
2, 30420, Note_on_c, 0, 64, 100
2, 30420, Note_on_c, 0, 69, 100
2, 30450, Note_on_c, 0, 69, 0
2, 30450, Note_on_c, 0, 52, 0
2, 30450, Note_on_c, 0, 57, 0
2, 30450, Note_on_c, 0, 49, 0
2, 30450, Note_on_c, 0, 64, 0
2, 30450, Note_on_c, 0, 61, 0
2, 30450, Note_on_c, 0, 61, 100
2, 30450, Note_on_c, 0, 57, 100
2, 30450, Note_on_c, 0, 52, 100
2, 30450, Note_on_c, 0, 49, 100
2, 30450, Note_on_c, 0, 64, 100
2, 30450, Note_on_c, 0, 69, 100
2, 30480, Note_on_c, 0, 69, 0
2, 30480, Note_on_c, 0, 57, 0
2, 30480, Note_on_c, 0, 52, 0
2, 30480, Note_on_c, 0, 61, 0
2, 30480, Note_on_c, 0, 64, 0
2, 30480, Note_on_c, 0, 49, 0
2, 30540, Note_on_c, 0, 47, 100
2, 30540, Note_on_c, 0, 51, 100
2, 30540, Note_on_c, 0, 54, 100
2, 30540, Note_on_c, 0, 59, 100
2, 30540, Note_on_c, 0, 63, 100
2, 30540, Note_on_c, 0, 66, 100
2, 30600, Note_on_c, 0, 66, 0
2, 30600, Note_on_c, 0, 51, 0
2, 30600, Note_on_c, 0, 54, 0
2, 30600, Note_on_c, 0, 47, 0
2, 30600, Note_on_c, 0, 63, 0
2, 30600, Note_on_c, 0, 59, 0
2, 30600, Note_on_c, 0, 47, 100
2, 30600, Note_on_c, 0, 51, 100
2, 30600, Note_on_c, 0, 54, 100
2, 30600, Note_on_c, 0, 59, 100
2, 30600, Note_on_c, 0, 63, 100
2, 30600, Note_on_c, 0, 66, 100
2, 30720, Note_on_c, 0, 66, 0
2, 30720, Note_on_c, 0, 51, 0
2, 30720, Note_on_c, 0, 54, 0
2, 30720, Note_on_c, 0, 47, 0
2, 30720, Note_on_c, 0, 63, 0
2, 30720, Note_on_c, 0, 59, 0
2, 30720, Note_on_c, 0, 68, 100
2, 30720, Note_on_c, 0, 49, 100
2, 30720, Note_on_c, 0, 52, 100
2, 30720, Note_on_c, 0, 56, 100
2, 30720, Note_on_c, 0, 61, 100
2, 30720, Note_on_c, 0, 64, 100
2, 30720, Note_on_c, 0, 68, 100
2, 30960, Note_on_c, 0, 68, 0
2, 30960, Note_on_c, 0, 61, 0
2, 30960, Note_on_c, 0, 49, 0
2, 30960, Note_on_c, 0, 52, 0
2, 30960, Note_on_c, 0, 68, 0
2, 30960, Note_on_c, 0, 64, 0
2, 30960, Note_on_c, 0, 56, 0
2, 30960, Note_on_c, 0, 47, 100
2, 30960, Note_on_c, 0, 51, 100
2, 30960, Note_on_c, 0, 54, 100
2, 30960, Note_on_c, 0, 59, 100
2, 30960, Note_on_c, 0, 63, 100
2, 30960, Note_on_c, 0, 66, 100
2, 31200, Note_on_c, 0, 66, 0
2, 31200, Note_on_c, 0, 51, 0
2, 31200, Note_on_c, 0, 54, 0
2, 31200, Note_on_c, 0, 47, 0
2, 31200, Note_on_c, 0, 63, 0
2, 31200, Note_on_c, 0, 59, 0
2, 31200, Note_on_c, 0, 49, 100
2, 31200, Note_on_c, 0, 52, 100
2, 31200, Note_on_c, 0, 57, 100
2, 31200, Note_on_c, 0, 61, 100
2, 31200, Note_on_c, 0, 64, 100
2, 31200, Note_on_c, 0, 69, 100
2, 31320, Note_on_c, 0, 69, 0
2, 31320, Note_on_c, 0, 52, 0
2, 31320, Note_on_c, 0, 57, 0
2, 31320, Note_on_c, 0, 49, 0
2, 31320, Note_on_c, 0, 64, 0
2, 31320, Note_on_c, 0, 61, 0
2, 31320, Note_on_c, 0, 61, 100
2, 31320, Note_on_c, 0, 64, 100
2, 31320, Note_on_c, 0, 69, 100
2, 31320, Note_on_c, 0, 52, 100
2, 31320, Note_on_c, 0, 57, 100
2, 31320, Note_on_c, 0, 49, 100
2, 31410, Note_on_c, 0, 49, 0
2, 31410, Note_on_c, 0, 64, 0
2, 31410, Note_on_c, 0, 69, 0
2, 31410, Note_on_c, 0, 61, 0
2, 31410, Note_on_c, 0, 57, 0
2, 31410, Note_on_c, 0, 52, 0
2, 31410, Note_on_c, 0, 69, 100
2, 31410, Note_on_c, 0, 61, 100
2, 31410, Note_on_c, 0, 64, 100
2, 31410, Note_on_c, 0, 49, 100
2, 31410, Note_on_c, 0, 52, 100
2, 31410, Note_on_c, 0, 57, 100
2, 31440, Note_on_c, 0, 57, 0
2, 31440, Note_on_c, 0, 61, 0
2, 31440, Note_on_c, 0, 64, 0
2, 31440, Note_on_c, 0, 69, 0
2, 31440, Note_on_c, 0, 52, 0
2, 31440, Note_on_c, 0, 49, 0
2, 31440, Note_on_c, 0, 47, 120
2, 31440, Note_on_c, 0, 51, 120
2, 31440, Note_on_c, 0, 54, 120
2, 31440, Note_on_c, 0, 59, 120
2, 31440, Note_on_c, 0, 63, 120
2, 31440, Note_on_c, 0, 66, 120
2, 31500, Note_on_c, 0, 66, 0
2, 31500, Note_on_c, 0, 51, 0
2, 31500, Note_on_c, 0, 54, 0
2, 31500, Note_on_c, 0, 47, 0
2, 31500, Note_on_c, 0, 63, 0
2, 31500, Note_on_c, 0, 59, 0
2, 31500, Note_on_c, 0, 47, 100
2, 31500, Note_on_c, 0, 51, 100
2, 31500, Note_on_c, 0, 54, 100
2, 31500, Note_on_c, 0, 59, 100
2, 31500, Note_on_c, 0, 63, 100
2, 31500, Note_on_c, 0, 66, 100
2, 31530, Note_on_c, 0, 66, 0
2, 31530, Note_on_c, 0, 51, 0
2, 31530, Note_on_c, 0, 54, 0
2, 31530, Note_on_c, 0, 47, 0
2, 31530, Note_on_c, 0, 63, 0
2, 31530, Note_on_c, 0, 59, 0
2, 31530, Note_on_c, 0, 54, 100
2, 31530, Note_on_c, 0, 51, 100
2, 31530, Note_on_c, 0, 47, 100
2, 31530, Note_on_c, 0, 59, 100
2, 31530, Note_on_c, 0, 63, 100
2, 31530, Note_on_c, 0, 66, 100
2, 31560, Note_on_c, 0, 66, 0
2, 31560, Note_on_c, 0, 51, 0
2, 31560, Note_on_c, 0, 47, 0
2, 31560, Note_on_c, 0, 54, 0
2, 31560, Note_on_c, 0, 63, 0
2, 31560, Note_on_c, 0, 59, 0
2, 31560, Note_on_c, 0, 47, 100
2, 31560, Note_on_c, 0, 51, 100
2, 31560, Note_on_c, 0, 54, 100
2, 31560, Note_on_c, 0, 59, 100
2, 31560, Note_on_c, 0, 63, 100
2, 31560, Note_on_c, 0, 66, 100
2, 31590, Note_on_c, 0, 66, 0
2, 31590, Note_on_c, 0, 51, 0
2, 31590, Note_on_c, 0, 54, 0
2, 31590, Note_on_c, 0, 47, 0
2, 31590, Note_on_c, 0, 63, 0
2, 31590, Note_on_c, 0, 59, 0
2, 31590, Note_on_c, 0, 54, 100
2, 31590, Note_on_c, 0, 51, 100
2, 31590, Note_on_c, 0, 47, 100
2, 31590, Note_on_c, 0, 59, 100
2, 31590, Note_on_c, 0, 63, 100
2, 31590, Note_on_c, 0, 66, 100
2, 31620, Note_on_c, 0, 66, 0
2, 31620, Note_on_c, 0, 51, 0
2, 31620, Note_on_c, 0, 47, 0
2, 31620, Note_on_c, 0, 54, 0
2, 31620, Note_on_c, 0, 63, 0
2, 31620, Note_on_c, 0, 59, 0
2, 31620, Note_on_c, 0, 47, 100
2, 31620, Note_on_c, 0, 51, 100
2, 31620, Note_on_c, 0, 54, 100
2, 31620, Note_on_c, 0, 59, 100
2, 31620, Note_on_c, 0, 63, 100
2, 31620, Note_on_c, 0, 66, 100
2, 31680, Note_on_c, 0, 66, 0
2, 31680, Note_on_c, 0, 51, 0
2, 31680, Note_on_c, 0, 54, 0
2, 31680, Note_on_c, 0, 47, 0
2, 31680, Note_on_c, 0, 63, 0
2, 31680, Note_on_c, 0, 59, 0
2, 31680, Note_on_c, 0, 68, 100
2, 31680, Note_on_c, 0, 49, 100
2, 31680, Note_on_c, 0, 52, 100
2, 31680, Note_on_c, 0, 56, 100
2, 31680, Note_on_c, 0, 61, 100
2, 31680, Note_on_c, 0, 64, 100
2, 31680, Note_on_c, 0, 68, 100
2, 31920, Note_on_c, 0, 68, 0
2, 31920, Note_on_c, 0, 61, 0
2, 31920, Note_on_c, 0, 49, 0
2, 31920, Note_on_c, 0, 52, 0
2, 31920, Note_on_c, 0, 68, 0
2, 31920, Note_on_c, 0, 64, 0
2, 31920, Note_on_c, 0, 56, 0
2, 31920, Note_on_c, 0, 47, 100
2, 31920, Note_on_c, 0, 51, 100
2, 31920, Note_on_c, 0, 54, 100
2, 31920, Note_on_c, 0, 59, 100
2, 31920, Note_on_c, 0, 63, 100
2, 31920, Note_on_c, 0, 66, 100
2, 32160, Note_on_c, 0, 66, 0
2, 32160, Note_on_c, 0, 51, 0
2, 32160, Note_on_c, 0, 54, 0
2, 32160, Note_on_c, 0, 47, 0
2, 32160, Note_on_c, 0, 63, 0
2, 32160, Note_on_c, 0, 59, 0
2, 32160, Note_on_c, 0, 49, 100
2, 32160, Note_on_c, 0, 52, 100
2, 32160, Note_on_c, 0, 57, 100
2, 32160, Note_on_c, 0, 61, 100
2, 32160, Note_on_c, 0, 64, 100
2, 32160, Note_on_c, 0, 69, 100
2, 32400, Note_on_c, 0, 69, 0
2, 32400, Note_on_c, 0, 52, 0
2, 32400, Note_on_c, 0, 57, 0
2, 32400, Note_on_c, 0, 49, 0
2, 32400, Note_on_c, 0, 64, 0
2, 32400, Note_on_c, 0, 61, 0
2, 32400, Note_on_c, 0, 47, 100
2, 32400, Note_on_c, 0, 59, 100
2, 32430, Note_on_c, 0, 59, 0
2, 32430, Note_on_c, 0, 47, 0
2, 32430, Note_on_c, 0, 47, 100
2, 32430, Note_on_c, 0, 59, 100
2, 32460, Note_on_c, 0, 59, 0
2, 32460, Note_on_c, 0, 47, 0
2, 32460, Note_on_c, 0, 47, 100
2, 32460, Note_on_c, 0, 51, 100
2, 32460, Note_on_c, 0, 54, 100
2, 32460, Note_on_c, 0, 59, 100
2, 32460, Note_on_c, 0, 63, 100
2, 32460, Note_on_c, 0, 66, 100
2, 32490, Note_on_c, 0, 66, 0
2, 32490, Note_on_c, 0, 51, 0
2, 32490, Note_on_c, 0, 54, 0
2, 32490, Note_on_c, 0, 47, 0
2, 32490, Note_on_c, 0, 63, 0
2, 32490, Note_on_c, 0, 59, 0
2, 32490, Note_on_c, 0, 47, 100
2, 32490, Note_on_c, 0, 51, 100
2, 32490, Note_on_c, 0, 54, 100
2, 32490, Note_on_c, 0, 59, 100
2, 32490, Note_on_c, 0, 63, 100
2, 32490, Note_on_c, 0, 66, 100
2, 32520, Note_on_c, 0, 66, 0
2, 32520, Note_on_c, 0, 51, 0
2, 32520, Note_on_c, 0, 54, 0
2, 32520, Note_on_c, 0, 47, 0
2, 32520, Note_on_c, 0, 63, 0
2, 32520, Note_on_c, 0, 59, 0
2, 32520, Note_on_c, 0, 47, 100
2, 32520, Note_on_c, 0, 51, 100
2, 32520, Note_on_c, 0, 54, 100
2, 32520, Note_on_c, 0, 59, 100
2, 32520, Note_on_c, 0, 63, 100
2, 32520, Note_on_c, 0, 66, 100
2, 32550, Note_on_c, 0, 66, 0
2, 32550, Note_on_c, 0, 51, 0
2, 32550, Note_on_c, 0, 54, 0
2, 32550, Note_on_c, 0, 47, 0
2, 32550, Note_on_c, 0, 63, 0
2, 32550, Note_on_c, 0, 59, 0
2, 32550, Note_on_c, 0, 47, 100
2, 32550, Note_on_c, 0, 51, 100
2, 32550, Note_on_c, 0, 54, 100
2, 32550, Note_on_c, 0, 59, 100
2, 32550, Note_on_c, 0, 63, 100
2, 32550, Note_on_c, 0, 66, 100
2, 32580, Note_on_c, 0, 66, 0
2, 32580, Note_on_c, 0, 51, 0
2, 32580, Note_on_c, 0, 54, 0
2, 32580, Note_on_c, 0, 47, 0
2, 32580, Note_on_c, 0, 63, 0
2, 32580, Note_on_c, 0, 59, 0
2, 32580, Note_on_c, 0, 59, 100
2, 32580, Note_on_c, 0, 47, 100
2, 32580, Note_on_c, 0, 51, 100
2, 32580, Note_on_c, 0, 54, 100
2, 32580, Note_on_c, 0, 63, 100
2, 32580, Note_on_c, 0, 66, 100
2, 32610, Note_on_c, 0, 66, 0
2, 32610, Note_on_c, 0, 47, 0
2, 32610, Note_on_c, 0, 51, 0
2, 32610, Note_on_c, 0, 59, 0
2, 32610, Note_on_c, 0, 63, 0
2, 32610, Note_on_c, 0, 54, 0
2, 32610, Note_on_c, 0, 59, 100
2, 32610, Note_on_c, 0, 47, 100
2, 32640, Note_on_c, 0, 47, 0
2, 32640, Note_on_c, 0, 59, 0
2, 32640, Note_on_c, 0, 68, 100
2, 32640, Note_on_c, 0, 49, 100
2, 32640, Note_on_c, 0, 52, 100
2, 32640, Note_on_c, 0, 56, 100
2, 32640, Note_on_c, 0, 61, 100
2, 32640, Note_on_c, 0, 64, 100
2, 32640, Note_on_c, 0, 68, 100
2, 32880, Note_on_c, 0, 68, 0
2, 32880, Note_on_c, 0, 61, 0
2, 32880, Note_on_c, 0, 49, 0
2, 32880, Note_on_c, 0, 52, 0
2, 32880, Note_on_c, 0, 68, 0
2, 32880, Note_on_c, 0, 64, 0
2, 32880, Note_on_c, 0, 56, 0
2, 32880, Note_on_c, 0, 47, 100
2, 32880, Note_on_c, 0, 51, 100
2, 32880, Note_on_c, 0, 54, 100
2, 32880, Note_on_c, 0, 59, 100
2, 32880, Note_on_c, 0, 63, 100
2, 32880, Note_on_c, 0, 66, 100
2, 33120, Note_on_c, 0, 66, 0
2, 33120, Note_on_c, 0, 51, 0
2, 33120, Note_on_c, 0, 54, 0
2, 33120, Note_on_c, 0, 47, 0
2, 33120, Note_on_c, 0, 63, 0
2, 33120, Note_on_c, 0, 59, 0
2, 33120, Note_on_c, 0, 49, 100
2, 33120, Note_on_c, 0, 52, 100
2, 33120, Note_on_c, 0, 57, 100
2, 33120, Note_on_c, 0, 61, 100
2, 33120, Note_on_c, 0, 64, 100
2, 33120, Note_on_c, 0, 69, 100
2, 33360, Note_on_c, 0, 69, 0
2, 33360, Note_on_c, 0, 52, 0
2, 33360, Note_on_c, 0, 57, 0
2, 33360, Note_on_c, 0, 49, 0
2, 33360, Note_on_c, 0, 64, 0
2, 33360, Note_on_c, 0, 61, 0
2, 33420, Note_on_c, 0, 47, 100
2, 33420, Note_on_c, 0, 51, 100
2, 33420, Note_on_c, 0, 54, 100
2, 33420, Note_on_c, 0, 59, 100
2, 33420, Note_on_c, 0, 63, 100
2, 33420, Note_on_c, 0, 66, 100
2, 33450, Note_on_c, 0, 66, 0
2, 33450, Note_on_c, 0, 51, 0
2, 33450, Note_on_c, 0, 54, 0
2, 33450, Note_on_c, 0, 47, 0
2, 33450, Note_on_c, 0, 63, 0
2, 33450, Note_on_c, 0, 59, 0
2, 33450, Note_on_c, 0, 54, 100
2, 33450, Note_on_c, 0, 51, 100
2, 33450, Note_on_c, 0, 47, 100
2, 33450, Note_on_c, 0, 59, 100
2, 33450, Note_on_c, 0, 63, 100
2, 33450, Note_on_c, 0, 66, 100
2, 33480, Note_on_c, 0, 66, 0
2, 33480, Note_on_c, 0, 51, 0
2, 33480, Note_on_c, 0, 47, 0
2, 33480, Note_on_c, 0, 54, 0
2, 33480, Note_on_c, 0, 63, 0
2, 33480, Note_on_c, 0, 59, 0
2, 33480, Note_on_c, 0, 47, 100
2, 33480, Note_on_c, 0, 51, 100
2, 33480, Note_on_c, 0, 54, 100
2, 33480, Note_on_c, 0, 59, 100
2, 33480, Note_on_c, 0, 63, 100
2, 33480, Note_on_c, 0, 66, 100
2, 33540, Note_on_c, 0, 66, 0
2, 33540, Note_on_c, 0, 51, 0
2, 33540, Note_on_c, 0, 54, 0
2, 33540, Note_on_c, 0, 47, 0
2, 33540, Note_on_c, 0, 63, 0
2, 33540, Note_on_c, 0, 59, 0
2, 33540, Note_on_c, 0, 47, 120
2, 33540, Note_on_c, 0, 51, 120
2, 33540, Note_on_c, 0, 54, 120
2, 33540, Note_on_c, 0, 59, 120
2, 33540, Note_on_c, 0, 63, 120
2, 33540, Note_on_c, 0, 66, 120
2, 33600, Note_on_c, 0, 66, 0
2, 33600, Note_on_c, 0, 51, 0
2, 33600, Note_on_c, 0, 54, 0
2, 33600, Note_on_c, 0, 47, 0
2, 33600, Note_on_c, 0, 63, 0
2, 33600, Note_on_c, 0, 59, 0
2, 33600, Note_on_c, 0, 49, 100
2, 33600, Note_on_c, 0, 52, 100
2, 33600, Note_on_c, 0, 56, 100
2, 33600, Note_on_c, 0, 61, 100
2, 33600, Note_on_c, 0, 64, 100
2, 33600, Note_on_c, 0, 68, 100
2, 33600, Note_on_c, 0, 68, 100
2, 33840, Note_on_c, 0, 68, 0
2, 33840, Note_on_c, 0, 64, 0
2, 33840, Note_on_c, 0, 52, 0
2, 33840, Note_on_c, 0, 56, 0
2, 33840, Note_on_c, 0, 49, 0
2, 33840, Note_on_c, 0, 68, 0
2, 33840, Note_on_c, 0, 61, 0
2, 33840, Note_on_c, 0, 47, 100
2, 33840, Note_on_c, 0, 51, 100
2, 33840, Note_on_c, 0, 54, 100
2, 33840, Note_on_c, 0, 59, 100
2, 33840, Note_on_c, 0, 63, 100
2, 33840, Note_on_c, 0, 66, 100
2, 34080, Note_on_c, 0, 66, 0
2, 34080, Note_on_c, 0, 51, 0
2, 34080, Note_on_c, 0, 54, 0
2, 34080, Note_on_c, 0, 47, 0
2, 34080, Note_on_c, 0, 63, 0
2, 34080, Note_on_c, 0, 59, 0
2, 34080, Note_on_c, 0, 49, 100
2, 34080, Note_on_c, 0, 52, 100
2, 34080, Note_on_c, 0, 57, 100
2, 34080, Note_on_c, 0, 61, 100
2, 34080, Note_on_c, 0, 64, 100
2, 34080, Note_on_c, 0, 69, 100
2, 34320, Note_on_c, 0, 69, 0
2, 34320, Note_on_c, 0, 52, 0
2, 34320, Note_on_c, 0, 57, 0
2, 34320, Note_on_c, 0, 49, 0
2, 34320, Note_on_c, 0, 64, 0
2, 34320, Note_on_c, 0, 61, 0
2, 34380, Note_on_c, 0, 47, 100
2, 34380, Note_on_c, 0, 51, 100
2, 34380, Note_on_c, 0, 54, 100
2, 34380, Note_on_c, 0, 59, 100
2, 34380, Note_on_c, 0, 63, 100
2, 34380, Note_on_c, 0, 66, 100
2, 34410, Note_on_c, 0, 66, 0
2, 34410, Note_on_c, 0, 51, 0
2, 34410, Note_on_c, 0, 54, 0
2, 34410, Note_on_c, 0, 47, 0
2, 34410, Note_on_c, 0, 63, 0
2, 34410, Note_on_c, 0, 59, 0
2, 34410, Note_on_c, 0, 54, 100
2, 34410, Note_on_c, 0, 51, 100
2, 34410, Note_on_c, 0, 47, 100
2, 34410, Note_on_c, 0, 59, 100
2, 34410, Note_on_c, 0, 63, 100
2, 34410, Note_on_c, 0, 66, 100
2, 34440, Note_on_c, 0, 66, 0
2, 34440, Note_on_c, 0, 51, 0
2, 34440, Note_on_c, 0, 47, 0
2, 34440, Note_on_c, 0, 54, 0
2, 34440, Note_on_c, 0, 63, 0
2, 34440, Note_on_c, 0, 59, 0
2, 34440, Note_on_c, 0, 47, 100
2, 34440, Note_on_c, 0, 51, 100
2, 34440, Note_on_c, 0, 54, 100
2, 34440, Note_on_c, 0, 59, 100
2, 34440, Note_on_c, 0, 63, 100
2, 34440, Note_on_c, 0, 66, 100
2, 34500, Note_on_c, 0, 66, 0
2, 34500, Note_on_c, 0, 51, 0
2, 34500, Note_on_c, 0, 54, 0
2, 34500, Note_on_c, 0, 47, 0
2, 34500, Note_on_c, 0, 63, 0
2, 34500, Note_on_c, 0, 59, 0
2, 34500, Note_on_c, 0, 47, 120
2, 34500, Note_on_c, 0, 51, 120
2, 34500, Note_on_c, 0, 54, 120
2, 34500, Note_on_c, 0, 59, 120
2, 34500, Note_on_c, 0, 63, 120
2, 34500, Note_on_c, 0, 66, 120
2, 34560, Note_on_c, 0, 66, 0
2, 34560, Note_on_c, 0, 51, 0
2, 34560, Note_on_c, 0, 54, 0
2, 34560, Note_on_c, 0, 47, 0
2, 34560, Note_on_c, 0, 63, 0
2, 34560, Note_on_c, 0, 59, 0
2, 34560, Note_on_c, 0, 68, 100
2, 34560, Note_on_c, 0, 49, 100
2, 34560, Note_on_c, 0, 52, 100
2, 34560, Note_on_c, 0, 56, 100
2, 34560, Note_on_c, 0, 61, 100
2, 34560, Note_on_c, 0, 64, 100
2, 34560, Note_on_c, 0, 68, 100
2, 34800, Note_on_c, 0, 68, 0
2, 34800, Note_on_c, 0, 61, 0
2, 34800, Note_on_c, 0, 49, 0
2, 34800, Note_on_c, 0, 52, 0
2, 34800, Note_on_c, 0, 68, 0
2, 34800, Note_on_c, 0, 64, 0
2, 34800, Note_on_c, 0, 56, 0
2, 34800, Note_on_c, 0, 47, 100
2, 34800, Note_on_c, 0, 51, 100
2, 34800, Note_on_c, 0, 54, 100
2, 34800, Note_on_c, 0, 59, 100
2, 34800, Note_on_c, 0, 63, 100
2, 34800, Note_on_c, 0, 66, 100
2, 34920, Note_on_c, 0, 66, 0
2, 34920, Note_on_c, 0, 51, 0
2, 34920, Note_on_c, 0, 54, 0
2, 34920, Note_on_c, 0, 47, 0
2, 34920, Note_on_c, 0, 63, 0
2, 34920, Note_on_c, 0, 59, 0
2, 34920, Note_on_c, 0, 47, 100
2, 34920, Note_on_c, 0, 51, 100
2, 34920, Note_on_c, 0, 54, 100
2, 34920, Note_on_c, 0, 59, 100
2, 34920, Note_on_c, 0, 63, 100
2, 34920, Note_on_c, 0, 66, 100
2, 35040, Note_on_c, 0, 66, 0
2, 35040, Note_on_c, 0, 51, 0
2, 35040, Note_on_c, 0, 54, 0
2, 35040, Note_on_c, 0, 47, 0
2, 35040, Note_on_c, 0, 63, 0
2, 35040, Note_on_c, 0, 59, 0
2, 35040, Note_on_c, 0, 49, 100
2, 35040, Note_on_c, 0, 52, 100
2, 35040, Note_on_c, 0, 57, 100
2, 35040, Note_on_c, 0, 61, 100
2, 35040, Note_on_c, 0, 64, 100
2, 35040, Note_on_c, 0, 69, 100
2, 35070, Note_on_c, 0, 69, 0
2, 35070, Note_on_c, 0, 52, 0
2, 35070, Note_on_c, 0, 57, 0
2, 35070, Note_on_c, 0, 49, 0
2, 35070, Note_on_c, 0, 64, 0
2, 35070, Note_on_c, 0, 61, 0
2, 35070, Note_on_c, 0, 61, 100
2, 35070, Note_on_c, 0, 64, 100
2, 35070, Note_on_c, 0, 69, 100
2, 35074, Note_on_c, 0, 49, 100
2, 35074, Note_on_c, 0, 52, 100
2, 35074, Note_on_c, 0, 57, 100
2, 35130, Note_on_c, 0, 69, 0
2, 35130, Note_on_c, 0, 61, 0
2, 35130, Note_on_c, 0, 64, 0
2, 35130, Note_on_c, 0, 57, 100
2, 35130, Note_on_c, 0, 49, 100
2, 35130, Note_on_c, 0, 52, 100
2, 35130, Note_on_c, 0, 61, 100
2, 35130, Note_on_c, 0, 64, 100
2, 35130, Note_on_c, 0, 69, 100
2, 35134, Note_on_c, 0, 49, 0
2, 35134, Note_on_c, 0, 57, 0
2, 35134, Note_on_c, 0, 52, 0
2, 35160, Note_on_c, 0, 61, 0
2, 35160, Note_on_c, 0, 52, 0
2, 35160, Note_on_c, 0, 49, 0
2, 35160, Note_on_c, 0, 69, 0
2, 35160, Note_on_c, 0, 57, 0
2, 35160, Note_on_c, 0, 64, 0
2, 35160, Note_on_c, 0, 57, 100
2, 35160, Note_on_c, 0, 49, 100
2, 35160, Note_on_c, 0, 52, 100
2, 35160, Note_on_c, 0, 61, 100
2, 35160, Note_on_c, 0, 64, 100
2, 35160, Note_on_c, 0, 69, 100
2, 35220, Note_on_c, 0, 69, 0
2, 35220, Note_on_c, 0, 49, 0
2, 35220, Note_on_c, 0, 52, 0
2, 35220, Note_on_c, 0, 57, 0
2, 35220, Note_on_c, 0, 64, 0
2, 35220, Note_on_c, 0, 61, 0
2, 35220, Note_on_c, 0, 49, 100
2, 35220, Note_on_c, 0, 52, 100
2, 35220, Note_on_c, 0, 57, 100
2, 35220, Note_on_c, 0, 61, 100
2, 35220, Note_on_c, 0, 64, 100
2, 35220, Note_on_c, 0, 69, 100
2, 35250, Note_on_c, 0, 69, 0
2, 35250, Note_on_c, 0, 52, 0
2, 35250, Note_on_c, 0, 57, 0
2, 35250, Note_on_c, 0, 49, 0
2, 35250, Note_on_c, 0, 64, 0
2, 35250, Note_on_c, 0, 61, 0
2, 35250, Note_on_c, 0, 61, 100
2, 35250, Note_on_c, 0, 57, 100
2, 35250, Note_on_c, 0, 52, 100
2, 35250, Note_on_c, 0, 49, 100
2, 35250, Note_on_c, 0, 64, 100
2, 35250, Note_on_c, 0, 69, 100
2, 35280, Note_on_c, 0, 69, 0
2, 35280, Note_on_c, 0, 57, 0
2, 35280, Note_on_c, 0, 52, 0
2, 35280, Note_on_c, 0, 61, 0
2, 35280, Note_on_c, 0, 64, 0
2, 35280, Note_on_c, 0, 49, 0
2, 35280, Note_on_c, 0, 49, 100
2, 35280, Note_on_c, 0, 52, 100
2, 35280, Note_on_c, 0, 57, 100
2, 35280, Note_on_c, 0, 61, 100
2, 35280, Note_on_c, 0, 64, 100
2, 35280, Note_on_c, 0, 69, 100
2, 35340, Note_on_c, 0, 69, 0
2, 35340, Note_on_c, 0, 52, 0
2, 35340, Note_on_c, 0, 57, 0
2, 35340, Note_on_c, 0, 49, 0
2, 35340, Note_on_c, 0, 64, 0
2, 35340, Note_on_c, 0, 61, 0
2, 35340, Note_on_c, 0, 47, 100
2, 35340, Note_on_c, 0, 51, 100
2, 35340, Note_on_c, 0, 54, 100
2, 35340, Note_on_c, 0, 59, 100
2, 35340, Note_on_c, 0, 63, 100
2, 35340, Note_on_c, 0, 66, 100
2, 35370, Note_on_c, 0, 66, 0
2, 35370, Note_on_c, 0, 51, 0
2, 35370, Note_on_c, 0, 54, 0
2, 35370, Note_on_c, 0, 47, 0
2, 35370, Note_on_c, 0, 63, 0
2, 35370, Note_on_c, 0, 59, 0
2, 35370, Note_on_c, 0, 66, 100
2, 35370, Note_on_c, 0, 63, 100
2, 35370, Note_on_c, 0, 59, 100
2, 35370, Note_on_c, 0, 54, 100
2, 35370, Note_on_c, 0, 51, 100
2, 35370, Note_on_c, 0, 47, 100
2, 35400, Note_on_c, 0, 47, 0
2, 35400, Note_on_c, 0, 63, 0
2, 35400, Note_on_c, 0, 59, 0
2, 35400, Note_on_c, 0, 66, 0
2, 35400, Note_on_c, 0, 51, 0
2, 35400, Note_on_c, 0, 54, 0
2, 35400, Note_on_c, 0, 47, 100
2, 35400, Note_on_c, 0, 51, 100
2, 35400, Note_on_c, 0, 54, 100
2, 35400, Note_on_c, 0, 59, 100
2, 35400, Note_on_c, 0, 63, 100
2, 35400, Note_on_c, 0, 66, 100
2, 35460, Note_on_c, 0, 66, 0
2, 35460, Note_on_c, 0, 51, 0
2, 35460, Note_on_c, 0, 54, 0
2, 35460, Note_on_c, 0, 47, 0
2, 35460, Note_on_c, 0, 63, 0
2, 35460, Note_on_c, 0, 59, 0
2, 35460, Note_on_c, 0, 47, 100
2, 35460, Note_on_c, 0, 59, 100
2, 35520, Note_on_c, 0, 59, 0
2, 35520, Note_on_c, 0, 47, 0
2, 35520, Note_on_c, 0, 68, 100
2, 35520, Note_on_c, 0, 49, 100
2, 35520, Note_on_c, 0, 52, 100
2, 35520, Note_on_c, 0, 56, 100
2, 35520, Note_on_c, 0, 61, 100
2, 35520, Note_on_c, 0, 64, 100
2, 35520, Note_on_c, 0, 68, 100
2, 35580, Note_on_c, 0, 68, 0
2, 35580, Note_on_c, 0, 61, 0
2, 35580, Note_on_c, 0, 49, 0
2, 35580, Note_on_c, 0, 52, 0
2, 35580, Note_on_c, 0, 68, 0
2, 35580, Note_on_c, 0, 64, 0
2, 35580, Note_on_c, 0, 56, 0
2, 35580, Note_on_c, 0, 49, 100
2, 35580, Note_on_c, 0, 52, 100
2, 35580, Note_on_c, 0, 56, 100
2, 35580, Note_on_c, 0, 61, 100
2, 35580, Note_on_c, 0, 64, 100
2, 35580, Note_on_c, 0, 68, 100
2, 35610, Note_on_c, 0, 68, 0
2, 35610, Note_on_c, 0, 52, 0
2, 35610, Note_on_c, 0, 56, 0
2, 35610, Note_on_c, 0, 49, 0
2, 35610, Note_on_c, 0, 64, 0
2, 35610, Note_on_c, 0, 61, 0
2, 35610, Note_on_c, 0, 56, 100
2, 35610, Note_on_c, 0, 52, 100
2, 35610, Note_on_c, 0, 49, 100
2, 35610, Note_on_c, 0, 61, 100
2, 35610, Note_on_c, 0, 64, 100
2, 35610, Note_on_c, 0, 68, 100
2, 35640, Note_on_c, 0, 68, 0
2, 35640, Note_on_c, 0, 52, 0
2, 35640, Note_on_c, 0, 49, 0
2, 35640, Note_on_c, 0, 56, 0
2, 35640, Note_on_c, 0, 64, 0
2, 35640, Note_on_c, 0, 61, 0
2, 35640, Note_on_c, 0, 49, 100
2, 35640, Note_on_c, 0, 52, 100
2, 35640, Note_on_c, 0, 56, 100
2, 35640, Note_on_c, 0, 61, 100
2, 35640, Note_on_c, 0, 64, 100
2, 35640, Note_on_c, 0, 68, 100
2, 35700, Note_on_c, 0, 68, 0
2, 35700, Note_on_c, 0, 52, 0
2, 35700, Note_on_c, 0, 56, 0
2, 35700, Note_on_c, 0, 49, 0
2, 35700, Note_on_c, 0, 64, 0
2, 35700, Note_on_c, 0, 61, 0
2, 35700, Note_on_c, 0, 49, 100
2, 35700, Note_on_c, 0, 61, 100
2, 35730, Note_on_c, 0, 61, 0
2, 35730, Note_on_c, 0, 49, 0
2, 35730, Note_on_c, 0, 47, 100
2, 35730, Note_on_c, 0, 51, 100
2, 35730, Note_on_c, 0, 54, 100
2, 35730, Note_on_c, 0, 59, 100
2, 35730, Note_on_c, 0, 63, 100
2, 35730, Note_on_c, 0, 66, 100
2, 35760, Note_on_c, 0, 66, 0
2, 35760, Note_on_c, 0, 51, 0
2, 35760, Note_on_c, 0, 54, 0
2, 35760, Note_on_c, 0, 47, 0
2, 35760, Note_on_c, 0, 63, 0
2, 35760, Note_on_c, 0, 59, 0
2, 35760, Note_on_c, 0, 47, 100
2, 35760, Note_on_c, 0, 51, 100
2, 35760, Note_on_c, 0, 54, 100
2, 35760, Note_on_c, 0, 59, 100
2, 35760, Note_on_c, 0, 63, 100
2, 35760, Note_on_c, 0, 66, 100
2, 35790, Note_on_c, 0, 66, 0
2, 35790, Note_on_c, 0, 51, 0
2, 35790, Note_on_c, 0, 54, 0
2, 35790, Note_on_c, 0, 47, 0
2, 35790, Note_on_c, 0, 63, 0
2, 35790, Note_on_c, 0, 59, 0
2, 35790, Note_on_c, 0, 47, 100
2, 35790, Note_on_c, 0, 51, 100
2, 35790, Note_on_c, 0, 54, 100
2, 35790, Note_on_c, 0, 59, 100
2, 35790, Note_on_c, 0, 63, 100
2, 35790, Note_on_c, 0, 66, 100
2, 35820, Note_on_c, 0, 66, 0
2, 35820, Note_on_c, 0, 51, 0
2, 35820, Note_on_c, 0, 54, 0
2, 35820, Note_on_c, 0, 47, 0
2, 35820, Note_on_c, 0, 63, 0
2, 35820, Note_on_c, 0, 59, 0
2, 35820, Note_on_c, 0, 47, 100
2, 35820, Note_on_c, 0, 51, 100
2, 35820, Note_on_c, 0, 54, 100
2, 35820, Note_on_c, 0, 59, 100
2, 35820, Note_on_c, 0, 63, 100
2, 35820, Note_on_c, 0, 66, 100
2, 35850, Note_on_c, 0, 66, 0
2, 35850, Note_on_c, 0, 51, 0
2, 35850, Note_on_c, 0, 54, 0
2, 35850, Note_on_c, 0, 47, 0
2, 35850, Note_on_c, 0, 63, 0
2, 35850, Note_on_c, 0, 59, 0
2, 35850, Note_on_c, 0, 47, 100
2, 35850, Note_on_c, 0, 51, 100
2, 35850, Note_on_c, 0, 54, 100
2, 35850, Note_on_c, 0, 59, 100
2, 35850, Note_on_c, 0, 63, 100
2, 35850, Note_on_c, 0, 66, 100
2, 35880, Note_on_c, 0, 66, 0
2, 35880, Note_on_c, 0, 51, 0
2, 35880, Note_on_c, 0, 54, 0
2, 35880, Note_on_c, 0, 47, 0
2, 35880, Note_on_c, 0, 63, 0
2, 35880, Note_on_c, 0, 59, 0
2, 35880, Note_on_c, 0, 47, 100
2, 35880, Note_on_c, 0, 51, 100
2, 35880, Note_on_c, 0, 54, 100
2, 35880, Note_on_c, 0, 59, 100
2, 35880, Note_on_c, 0, 63, 100
2, 35880, Note_on_c, 0, 66, 100
2, 35940, Note_on_c, 0, 66, 0
2, 35940, Note_on_c, 0, 51, 0
2, 35940, Note_on_c, 0, 54, 0
2, 35940, Note_on_c, 0, 47, 0
2, 35940, Note_on_c, 0, 63, 0
2, 35940, Note_on_c, 0, 59, 0
2, 35940, Note_on_c, 0, 47, 100
2, 35940, Note_on_c, 0, 59, 100
2, 35970, Note_on_c, 0, 59, 0
2, 35970, Note_on_c, 0, 47, 0
2, 35970, Note_on_c, 0, 47, 100
2, 35970, Note_on_c, 0, 59, 100
2, 36000, Note_on_c, 0, 59, 0
2, 36000, Note_on_c, 0, 47, 0
2, 36000, Note_on_c, 0, 49, 100
2, 36000, Note_on_c, 0, 52, 100
2, 36000, Note_on_c, 0, 57, 100
2, 36000, Note_on_c, 0, 61, 100
2, 36000, Note_on_c, 0, 64, 100
2, 36000, Note_on_c, 0, 69, 100
2, 36060, Note_on_c, 0, 69, 0
2, 36060, Note_on_c, 0, 52, 0
2, 36060, Note_on_c, 0, 57, 0
2, 36060, Note_on_c, 0, 49, 0
2, 36060, Note_on_c, 0, 64, 0
2, 36060, Note_on_c, 0, 61, 0
2, 36060, Note_on_c, 0, 49, 100
2, 36060, Note_on_c, 0, 52, 100
2, 36060, Note_on_c, 0, 57, 100
2, 36060, Note_on_c, 0, 61, 100
2, 36060, Note_on_c, 0, 64, 100
2, 36060, Note_on_c, 0, 69, 100
2, 36120, Note_on_c, 0, 69, 0
2, 36120, Note_on_c, 0, 52, 0
2, 36120, Note_on_c, 0, 57, 0
2, 36120, Note_on_c, 0, 49, 0
2, 36120, Note_on_c, 0, 64, 0
2, 36120, Note_on_c, 0, 61, 0
2, 36120, Note_on_c, 0, 49, 100
2, 36120, Note_on_c, 0, 52, 100
2, 36120, Note_on_c, 0, 57, 100
2, 36120, Note_on_c, 0, 61, 100
2, 36120, Note_on_c, 0, 64, 100
2, 36120, Note_on_c, 0, 69, 100
2, 36180, Note_on_c, 0, 69, 0
2, 36180, Note_on_c, 0, 52, 0
2, 36180, Note_on_c, 0, 57, 0
2, 36180, Note_on_c, 0, 49, 0
2, 36180, Note_on_c, 0, 64, 0
2, 36180, Note_on_c, 0, 61, 0
2, 36180, Note_on_c, 0, 49, 100
2, 36180, Note_on_c, 0, 52, 100
2, 36180, Note_on_c, 0, 57, 100
2, 36180, Note_on_c, 0, 61, 100
2, 36180, Note_on_c, 0, 64, 100
2, 36180, Note_on_c, 0, 69, 100
2, 36210, Note_on_c, 0, 69, 0
2, 36210, Note_on_c, 0, 52, 0
2, 36210, Note_on_c, 0, 57, 0
2, 36210, Note_on_c, 0, 49, 0
2, 36210, Note_on_c, 0, 64, 0
2, 36210, Note_on_c, 0, 61, 0
2, 36210, Note_on_c, 0, 49, 100
2, 36210, Note_on_c, 0, 52, 100
2, 36210, Note_on_c, 0, 57, 100
2, 36210, Note_on_c, 0, 61, 100
2, 36210, Note_on_c, 0, 64, 100
2, 36210, Note_on_c, 0, 69, 100
2, 36240, Note_on_c, 0, 69, 0
2, 36240, Note_on_c, 0, 52, 0
2, 36240, Note_on_c, 0, 57, 0
2, 36240, Note_on_c, 0, 49, 0
2, 36240, Note_on_c, 0, 64, 0
2, 36240, Note_on_c, 0, 61, 0
2, 36240, Note_on_c, 0, 47, 100
2, 36240, Note_on_c, 0, 51, 100
2, 36240, Note_on_c, 0, 54, 100
2, 36240, Note_on_c, 0, 59, 100
2, 36240, Note_on_c, 0, 63, 100
2, 36240, Note_on_c, 0, 66, 100
2, 36300, Note_on_c, 0, 66, 0
2, 36300, Note_on_c, 0, 51, 0
2, 36300, Note_on_c, 0, 54, 0
2, 36300, Note_on_c, 0, 47, 0
2, 36300, Note_on_c, 0, 63, 0
2, 36300, Note_on_c, 0, 59, 0
2, 36300, Note_on_c, 0, 47, 100
2, 36300, Note_on_c, 0, 51, 100
2, 36300, Note_on_c, 0, 54, 100
2, 36300, Note_on_c, 0, 59, 100
2, 36300, Note_on_c, 0, 63, 100
2, 36300, Note_on_c, 0, 66, 100
2, 36330, Note_on_c, 0, 66, 0
2, 36330, Note_on_c, 0, 51, 0
2, 36330, Note_on_c, 0, 54, 0
2, 36330, Note_on_c, 0, 47, 0
2, 36330, Note_on_c, 0, 63, 0
2, 36330, Note_on_c, 0, 59, 0
2, 36330, Note_on_c, 0, 47, 100
2, 36330, Note_on_c, 0, 51, 100
2, 36330, Note_on_c, 0, 54, 100
2, 36330, Note_on_c, 0, 59, 100
2, 36330, Note_on_c, 0, 63, 100
2, 36330, Note_on_c, 0, 66, 100
2, 36360, Note_on_c, 0, 66, 0
2, 36360, Note_on_c, 0, 51, 0
2, 36360, Note_on_c, 0, 54, 0
2, 36360, Note_on_c, 0, 47, 0
2, 36360, Note_on_c, 0, 63, 0
2, 36360, Note_on_c, 0, 59, 0
2, 36360, Note_on_c, 0, 47, 100
2, 36360, Note_on_c, 0, 54, 100
2, 36360, Note_on_c, 0, 51, 100
2, 36360, Note_on_c, 0, 59, 100
2, 36360, Note_on_c, 0, 63, 100
2, 36360, Note_on_c, 0, 66, 100
2, 36420, Note_on_c, 0, 66, 0
2, 36420, Note_on_c, 0, 54, 0
2, 36420, Note_on_c, 0, 51, 0
2, 36420, Note_on_c, 0, 47, 0
2, 36420, Note_on_c, 0, 63, 0
2, 36420, Note_on_c, 0, 59, 0
2, 36420, Note_on_c, 0, 47, 100
2, 36420, Note_on_c, 0, 59, 100
2, 36450, Note_on_c, 0, 59, 0
2, 36450, Note_on_c, 0, 47, 0
2, 36450, Note_on_c, 0, 47, 100
2, 36450, Note_on_c, 0, 59, 100
2, 36480, Note_on_c, 0, 59, 0
2, 36480, Note_on_c, 0, 47, 0
2, 36480, Note_on_c, 0, 49, 100
2, 36480, Note_on_c, 0, 52, 100
2, 36480, Note_on_c, 0, 56, 100
2, 36480, Note_on_c, 0, 61, 100
2, 36480, Note_on_c, 0, 64, 100
2, 36480, Note_on_c, 0, 68, 100
2, 36540, Note_on_c, 0, 68, 0
2, 36540, Note_on_c, 0, 52, 0
2, 36540, Note_on_c, 0, 56, 0
2, 36540, Note_on_c, 0, 49, 0
2, 36540, Note_on_c, 0, 64, 0
2, 36540, Note_on_c, 0, 61, 0
2, 36540, Note_on_c, 0, 49, 100
2, 36540, Note_on_c, 0, 52, 100
2, 36540, Note_on_c, 0, 56, 100
2, 36540, Note_on_c, 0, 64, 100
2, 36540, Note_on_c, 0, 61, 100
2, 36540, Note_on_c, 0, 68, 100
2, 36600, Note_on_c, 0, 68, 0
2, 36600, Note_on_c, 0, 52, 0
2, 36600, Note_on_c, 0, 56, 0
2, 36600, Note_on_c, 0, 49, 0
2, 36600, Note_on_c, 0, 61, 0
2, 36600, Note_on_c, 0, 64, 0
2, 36600, Note_on_c, 0, 56, 100
2, 36600, Note_on_c, 0, 52, 100
2, 36600, Note_on_c, 0, 49, 100
2, 36600, Note_on_c, 0, 61, 100
2, 36600, Note_on_c, 0, 64, 100
2, 36600, Note_on_c, 0, 68, 100
2, 36660, Note_on_c, 0, 68, 0
2, 36660, Note_on_c, 0, 52, 0
2, 36660, Note_on_c, 0, 49, 0
2, 36660, Note_on_c, 0, 56, 0
2, 36660, Note_on_c, 0, 64, 0
2, 36660, Note_on_c, 0, 61, 0
2, 36660, Note_on_c, 0, 49, 100
2, 36660, Note_on_c, 0, 52, 100
2, 36660, Note_on_c, 0, 56, 100
2, 36660, Note_on_c, 0, 61, 100
2, 36660, Note_on_c, 0, 64, 100
2, 36660, Note_on_c, 0, 68, 100
2, 36690, Note_on_c, 0, 68, 0
2, 36690, Note_on_c, 0, 52, 0
2, 36690, Note_on_c, 0, 56, 0
2, 36690, Note_on_c, 0, 49, 0
2, 36690, Note_on_c, 0, 64, 0
2, 36690, Note_on_c, 0, 61, 0
2, 36690, Note_on_c, 0, 56, 100
2, 36690, Note_on_c, 0, 52, 100
2, 36690, Note_on_c, 0, 49, 100
2, 36690, Note_on_c, 0, 61, 100
2, 36690, Note_on_c, 0, 64, 100
2, 36690, Note_on_c, 0, 68, 100
2, 36720, Note_on_c, 0, 68, 0
2, 36720, Note_on_c, 0, 52, 0
2, 36720, Note_on_c, 0, 49, 0
2, 36720, Note_on_c, 0, 56, 0
2, 36720, Note_on_c, 0, 64, 0
2, 36720, Note_on_c, 0, 61, 0
2, 36720, Note_on_c, 0, 47, 100
2, 36720, Note_on_c, 0, 51, 100
2, 36720, Note_on_c, 0, 54, 100
2, 36720, Note_on_c, 0, 59, 100
2, 36720, Note_on_c, 0, 63, 100
2, 36720, Note_on_c, 0, 66, 100
2, 36780, Note_on_c, 0, 66, 0
2, 36780, Note_on_c, 0, 51, 0
2, 36780, Note_on_c, 0, 54, 0
2, 36780, Note_on_c, 0, 47, 0
2, 36780, Note_on_c, 0, 63, 0
2, 36780, Note_on_c, 0, 59, 0
2, 36780, Note_on_c, 0, 47, 100
2, 36780, Note_on_c, 0, 51, 100
2, 36780, Note_on_c, 0, 54, 100
2, 36780, Note_on_c, 0, 59, 100
2, 36780, Note_on_c, 0, 63, 100
2, 36780, Note_on_c, 0, 66, 100
2, 36840, Note_on_c, 0, 66, 0
2, 36840, Note_on_c, 0, 51, 0
2, 36840, Note_on_c, 0, 54, 0
2, 36840, Note_on_c, 0, 47, 0
2, 36840, Note_on_c, 0, 63, 0
2, 36840, Note_on_c, 0, 59, 0
2, 36840, Note_on_c, 0, 47, 100
2, 36840, Note_on_c, 0, 51, 100
2, 36840, Note_on_c, 0, 54, 100
2, 36840, Note_on_c, 0, 59, 100
2, 36840, Note_on_c, 0, 63, 100
2, 36840, Note_on_c, 0, 66, 100
2, 36900, Note_on_c, 0, 66, 0
2, 36900, Note_on_c, 0, 51, 0
2, 36900, Note_on_c, 0, 54, 0
2, 36900, Note_on_c, 0, 47, 0
2, 36900, Note_on_c, 0, 63, 0
2, 36900, Note_on_c, 0, 59, 0
2, 36900, Note_on_c, 0, 47, 100
2, 36900, Note_on_c, 0, 51, 100
2, 36900, Note_on_c, 0, 54, 100
2, 36900, Note_on_c, 0, 59, 100
2, 36900, Note_on_c, 0, 63, 100
2, 36900, Note_on_c, 0, 66, 100
2, 36930, Note_on_c, 0, 66, 0
2, 36930, Note_on_c, 0, 51, 0
2, 36930, Note_on_c, 0, 54, 0
2, 36930, Note_on_c, 0, 47, 0
2, 36930, Note_on_c, 0, 63, 0
2, 36930, Note_on_c, 0, 59, 0
2, 36930, Note_on_c, 0, 54, 100
2, 36930, Note_on_c, 0, 51, 100
2, 36930, Note_on_c, 0, 47, 100
2, 36930, Note_on_c, 0, 59, 100
2, 36930, Note_on_c, 0, 63, 100
2, 36930, Note_on_c, 0, 66, 100
2, 36960, Note_on_c, 0, 66, 0
2, 36960, Note_on_c, 0, 51, 0
2, 36960, Note_on_c, 0, 47, 0
2, 36960, Note_on_c, 0, 54, 0
2, 36960, Note_on_c, 0, 63, 0
2, 36960, Note_on_c, 0, 59, 0
2, 36960, Note_on_c, 0, 49, 100
2, 36960, Note_on_c, 0, 52, 100
2, 36960, Note_on_c, 0, 57, 100
2, 36960, Note_on_c, 0, 61, 100
2, 36960, Note_on_c, 0, 64, 100
2, 36960, Note_on_c, 0, 69, 100
2, 37020, Note_on_c, 0, 69, 0
2, 37020, Note_on_c, 0, 52, 0
2, 37020, Note_on_c, 0, 57, 0
2, 37020, Note_on_c, 0, 49, 0
2, 37020, Note_on_c, 0, 64, 0
2, 37020, Note_on_c, 0, 61, 0
2, 37020, Note_on_c, 0, 52, 100
2, 37020, Note_on_c, 0, 49, 100
2, 37020, Note_on_c, 0, 57, 100
2, 37020, Note_on_c, 0, 61, 100
2, 37020, Note_on_c, 0, 64, 100
2, 37020, Note_on_c, 0, 69, 100
2, 37080, Note_on_c, 0, 69, 0
2, 37080, Note_on_c, 0, 49, 0
2, 37080, Note_on_c, 0, 57, 0
2, 37080, Note_on_c, 0, 52, 0
2, 37080, Note_on_c, 0, 64, 0
2, 37080, Note_on_c, 0, 61, 0
2, 37080, Note_on_c, 0, 49, 100
2, 37080, Note_on_c, 0, 52, 100
2, 37080, Note_on_c, 0, 57, 100
2, 37080, Note_on_c, 0, 61, 100
2, 37080, Note_on_c, 0, 64, 100
2, 37080, Note_on_c, 0, 69, 100
2, 37140, Note_on_c, 0, 69, 0
2, 37140, Note_on_c, 0, 52, 0
2, 37140, Note_on_c, 0, 57, 0
2, 37140, Note_on_c, 0, 49, 0
2, 37140, Note_on_c, 0, 64, 0
2, 37140, Note_on_c, 0, 61, 0
2, 37140, Note_on_c, 0, 57, 100
2, 37140, Note_on_c, 0, 45, 100
2, 37170, Note_on_c, 0, 45, 0
2, 37170, Note_on_c, 0, 57, 0
2, 37170, Note_on_c, 0, 47, 100
2, 37170, Note_on_c, 0, 51, 100
2, 37170, Note_on_c, 0, 54, 100
2, 37170, Note_on_c, 0, 59, 100
2, 37170, Note_on_c, 0, 63, 100
2, 37170, Note_on_c, 0, 66, 100
2, 37200, Note_on_c, 0, 66, 0
2, 37200, Note_on_c, 0, 51, 0
2, 37200, Note_on_c, 0, 54, 0
2, 37200, Note_on_c, 0, 47, 0
2, 37200, Note_on_c, 0, 63, 0
2, 37200, Note_on_c, 0, 59, 0
2, 37200, Note_on_c, 0, 47, 100
2, 37200, Note_on_c, 0, 51, 100
2, 37200, Note_on_c, 0, 54, 100
2, 37200, Note_on_c, 0, 59, 100
2, 37200, Note_on_c, 0, 63, 100
2, 37200, Note_on_c, 0, 66, 100
2, 37230, Note_on_c, 0, 66, 0
2, 37230, Note_on_c, 0, 51, 0
2, 37230, Note_on_c, 0, 54, 0
2, 37230, Note_on_c, 0, 47, 0
2, 37230, Note_on_c, 0, 63, 0
2, 37230, Note_on_c, 0, 59, 0
2, 37230, Note_on_c, 0, 47, 100
2, 37230, Note_on_c, 0, 51, 100
2, 37230, Note_on_c, 0, 54, 100
2, 37230, Note_on_c, 0, 59, 100
2, 37230, Note_on_c, 0, 63, 100
2, 37230, Note_on_c, 0, 66, 100
2, 37260, Note_on_c, 0, 66, 0
2, 37260, Note_on_c, 0, 51, 0
2, 37260, Note_on_c, 0, 54, 0
2, 37260, Note_on_c, 0, 47, 0
2, 37260, Note_on_c, 0, 63, 0
2, 37260, Note_on_c, 0, 59, 0
2, 37260, Note_on_c, 0, 47, 100
2, 37260, Note_on_c, 0, 51, 100
2, 37260, Note_on_c, 0, 54, 100
2, 37260, Note_on_c, 0, 59, 100
2, 37260, Note_on_c, 0, 63, 100
2, 37260, Note_on_c, 0, 66, 100
2, 37290, Note_on_c, 0, 66, 0
2, 37290, Note_on_c, 0, 51, 0
2, 37290, Note_on_c, 0, 54, 0
2, 37290, Note_on_c, 0, 47, 0
2, 37290, Note_on_c, 0, 63, 0
2, 37290, Note_on_c, 0, 59, 0
2, 37290, Note_on_c, 0, 47, 100
2, 37290, Note_on_c, 0, 51, 100
2, 37290, Note_on_c, 0, 54, 100
2, 37290, Note_on_c, 0, 59, 100
2, 37290, Note_on_c, 0, 63, 100
2, 37290, Note_on_c, 0, 66, 100
2, 37320, Note_on_c, 0, 66, 0
2, 37320, Note_on_c, 0, 51, 0
2, 37320, Note_on_c, 0, 54, 0
2, 37320, Note_on_c, 0, 47, 0
2, 37320, Note_on_c, 0, 63, 0
2, 37320, Note_on_c, 0, 59, 0
2, 37320, Note_on_c, 0, 47, 100
2, 37320, Note_on_c, 0, 51, 100
2, 37320, Note_on_c, 0, 54, 100
2, 37320, Note_on_c, 0, 59, 100
2, 37320, Note_on_c, 0, 63, 100
2, 37320, Note_on_c, 0, 66, 100
2, 37380, Note_on_c, 0, 66, 0
2, 37380, Note_on_c, 0, 51, 0
2, 37380, Note_on_c, 0, 54, 0
2, 37380, Note_on_c, 0, 47, 0
2, 37380, Note_on_c, 0, 63, 0
2, 37380, Note_on_c, 0, 59, 0
2, 37380, Note_on_c, 0, 49, 100
2, 37380, Note_on_c, 0, 52, 100
2, 37380, Note_on_c, 0, 56, 100
2, 37380, Note_on_c, 0, 61, 100
2, 37380, Note_on_c, 0, 64, 100
2, 37380, Note_on_c, 0, 68, 100
2, 37410, Note_on_c, 0, 68, 0
2, 37410, Note_on_c, 0, 52, 0
2, 37410, Note_on_c, 0, 56, 0
2, 37410, Note_on_c, 0, 49, 0
2, 37410, Note_on_c, 0, 64, 0
2, 37410, Note_on_c, 0, 61, 0
2, 37410, Note_on_c, 0, 56, 100
2, 37410, Note_on_c, 0, 52, 100
2, 37410, Note_on_c, 0, 49, 100
2, 37410, Note_on_c, 0, 61, 100
2, 37410, Note_on_c, 0, 64, 100
2, 37410, Note_on_c, 0, 68, 100
2, 37440, Note_on_c, 0, 68, 0
2, 37440, Note_on_c, 0, 52, 0
2, 37440, Note_on_c, 0, 49, 0
2, 37440, Note_on_c, 0, 56, 0
2, 37440, Note_on_c, 0, 64, 0
2, 37440, Note_on_c, 0, 61, 0
2, 37440, Note_on_c, 0, 49, 100
2, 37440, Note_on_c, 0, 52, 100
2, 37440, Note_on_c, 0, 56, 100
2, 37440, Note_on_c, 0, 61, 100
2, 37440, Note_on_c, 0, 64, 100
2, 37440, Note_on_c, 0, 68, 100
2, 37500, Note_on_c, 0, 68, 0
2, 37500, Note_on_c, 0, 52, 0
2, 37500, Note_on_c, 0, 56, 0
2, 37500, Note_on_c, 0, 49, 0
2, 37500, Note_on_c, 0, 64, 0
2, 37500, Note_on_c, 0, 61, 0
2, 37500, Note_on_c, 0, 49, 100
2, 37500, Note_on_c, 0, 52, 100
2, 37500, Note_on_c, 0, 56, 100
2, 37500, Note_on_c, 0, 64, 100
2, 37500, Note_on_c, 0, 61, 100
2, 37500, Note_on_c, 0, 68, 100
2, 37560, Note_on_c, 0, 68, 0
2, 37560, Note_on_c, 0, 52, 0
2, 37560, Note_on_c, 0, 56, 0
2, 37560, Note_on_c, 0, 49, 0
2, 37560, Note_on_c, 0, 61, 0
2, 37560, Note_on_c, 0, 64, 0
2, 37560, Note_on_c, 0, 56, 100
2, 37560, Note_on_c, 0, 52, 100
2, 37560, Note_on_c, 0, 49, 100
2, 37560, Note_on_c, 0, 61, 100
2, 37560, Note_on_c, 0, 64, 100
2, 37560, Note_on_c, 0, 68, 100
2, 37620, Note_on_c, 0, 68, 0
2, 37620, Note_on_c, 0, 52, 0
2, 37620, Note_on_c, 0, 49, 0
2, 37620, Note_on_c, 0, 56, 0
2, 37620, Note_on_c, 0, 64, 0
2, 37620, Note_on_c, 0, 61, 0
2, 37620, Note_on_c, 0, 49, 100
2, 37620, Note_on_c, 0, 52, 100
2, 37620, Note_on_c, 0, 56, 100
2, 37620, Note_on_c, 0, 61, 100
2, 37620, Note_on_c, 0, 64, 100
2, 37620, Note_on_c, 0, 68, 100
2, 37650, Note_on_c, 0, 68, 0
2, 37650, Note_on_c, 0, 52, 0
2, 37650, Note_on_c, 0, 56, 0
2, 37650, Note_on_c, 0, 49, 0
2, 37650, Note_on_c, 0, 64, 0
2, 37650, Note_on_c, 0, 61, 0
2, 37650, Note_on_c, 0, 56, 100
2, 37650, Note_on_c, 0, 52, 100
2, 37650, Note_on_c, 0, 49, 100
2, 37650, Note_on_c, 0, 61, 100
2, 37650, Note_on_c, 0, 64, 100
2, 37650, Note_on_c, 0, 68, 100
2, 37680, Note_on_c, 0, 68, 0
2, 37680, Note_on_c, 0, 52, 0
2, 37680, Note_on_c, 0, 49, 0
2, 37680, Note_on_c, 0, 56, 0
2, 37680, Note_on_c, 0, 64, 0
2, 37680, Note_on_c, 0, 61, 0
2, 37680, Note_on_c, 0, 47, 100
2, 37680, Note_on_c, 0, 51, 100
2, 37680, Note_on_c, 0, 54, 100
2, 37680, Note_on_c, 0, 59, 100
2, 37680, Note_on_c, 0, 63, 100
2, 37680, Note_on_c, 0, 66, 100
2, 37740, Note_on_c, 0, 66, 0
2, 37740, Note_on_c, 0, 51, 0
2, 37740, Note_on_c, 0, 54, 0
2, 37740, Note_on_c, 0, 47, 0
2, 37740, Note_on_c, 0, 63, 0
2, 37740, Note_on_c, 0, 59, 0
2, 37740, Note_on_c, 0, 47, 100
2, 37740, Note_on_c, 0, 51, 100
2, 37740, Note_on_c, 0, 54, 100
2, 37740, Note_on_c, 0, 59, 100
2, 37740, Note_on_c, 0, 63, 100
2, 37740, Note_on_c, 0, 66, 100
2, 37800, Note_on_c, 0, 66, 0
2, 37800, Note_on_c, 0, 51, 0
2, 37800, Note_on_c, 0, 54, 0
2, 37800, Note_on_c, 0, 47, 0
2, 37800, Note_on_c, 0, 63, 0
2, 37800, Note_on_c, 0, 59, 0
2, 37800, Note_on_c, 0, 47, 100
2, 37800, Note_on_c, 0, 51, 100
2, 37800, Note_on_c, 0, 54, 100
2, 37800, Note_on_c, 0, 59, 100
2, 37800, Note_on_c, 0, 63, 100
2, 37800, Note_on_c, 0, 66, 100
2, 37860, Note_on_c, 0, 66, 0
2, 37860, Note_on_c, 0, 51, 0
2, 37860, Note_on_c, 0, 54, 0
2, 37860, Note_on_c, 0, 47, 0
2, 37860, Note_on_c, 0, 63, 0
2, 37860, Note_on_c, 0, 59, 0
2, 37860, Note_on_c, 0, 45, 100
2, 37860, Note_on_c, 0, 49, 100
2, 37860, Note_on_c, 0, 52, 100
2, 37860, Note_on_c, 0, 57, 100
2, 37860, Note_on_c, 0, 61, 100
2, 37860, Note_on_c, 0, 64, 100
2, 37890, Note_on_c, 0, 64, 0
2, 37890, Note_on_c, 0, 49, 0
2, 37890, Note_on_c, 0, 52, 0
2, 37890, Note_on_c, 0, 45, 0
2, 37890, Note_on_c, 0, 61, 0
2, 37890, Note_on_c, 0, 57, 0
2, 37890, Note_on_c, 0, 52, 100
2, 37890, Note_on_c, 0, 49, 100
2, 37890, Note_on_c, 0, 45, 100
2, 37890, Note_on_c, 0, 57, 100
2, 37890, Note_on_c, 0, 61, 100
2, 37890, Note_on_c, 0, 64, 100
2, 37920, Note_on_c, 0, 64, 0
2, 37920, Note_on_c, 0, 49, 0
2, 37920, Note_on_c, 0, 45, 0
2, 37920, Note_on_c, 0, 52, 0
2, 37920, Note_on_c, 0, 61, 0
2, 37920, Note_on_c, 0, 57, 0
2, 37920, Note_on_c, 0, 49, 100
2, 37920, Note_on_c, 0, 52, 100
2, 37920, Note_on_c, 0, 57, 100
2, 37920, Note_on_c, 0, 61, 100
2, 37920, Note_on_c, 0, 64, 100
2, 37920, Note_on_c, 0, 69, 100
2, 37980, Note_on_c, 0, 69, 0
2, 37980, Note_on_c, 0, 52, 0
2, 37980, Note_on_c, 0, 57, 0
2, 37980, Note_on_c, 0, 49, 0
2, 37980, Note_on_c, 0, 64, 0
2, 37980, Note_on_c, 0, 61, 0
2, 37980, Note_on_c, 0, 49, 100
2, 37980, Note_on_c, 0, 52, 100
2, 37980, Note_on_c, 0, 57, 100
2, 37980, Note_on_c, 0, 61, 100
2, 37980, Note_on_c, 0, 64, 100
2, 37980, Note_on_c, 0, 69, 100
2, 38040, Note_on_c, 0, 69, 0
2, 38040, Note_on_c, 0, 52, 0
2, 38040, Note_on_c, 0, 57, 0
2, 38040, Note_on_c, 0, 49, 0
2, 38040, Note_on_c, 0, 64, 0
2, 38040, Note_on_c, 0, 61, 0
2, 38040, Note_on_c, 0, 49, 100
2, 38040, Note_on_c, 0, 52, 100
2, 38040, Note_on_c, 0, 57, 100
2, 38040, Note_on_c, 0, 61, 100
2, 38040, Note_on_c, 0, 64, 100
2, 38040, Note_on_c, 0, 69, 100
2, 38100, Note_on_c, 0, 69, 0
2, 38100, Note_on_c, 0, 52, 0
2, 38100, Note_on_c, 0, 57, 0
2, 38100, Note_on_c, 0, 49, 0
2, 38100, Note_on_c, 0, 64, 0
2, 38100, Note_on_c, 0, 61, 0
2, 38100, Note_on_c, 0, 49, 100
2, 38100, Note_on_c, 0, 52, 100
2, 38100, Note_on_c, 0, 57, 100
2, 38100, Note_on_c, 0, 61, 100
2, 38100, Note_on_c, 0, 64, 100
2, 38100, Note_on_c, 0, 69, 100
2, 38130, Note_on_c, 0, 69, 0
2, 38130, Note_on_c, 0, 52, 0
2, 38130, Note_on_c, 0, 57, 0
2, 38130, Note_on_c, 0, 49, 0
2, 38130, Note_on_c, 0, 64, 0
2, 38130, Note_on_c, 0, 61, 0
2, 38130, Note_on_c, 0, 49, 100
2, 38130, Note_on_c, 0, 52, 100
2, 38130, Note_on_c, 0, 57, 100
2, 38130, Note_on_c, 0, 61, 100
2, 38130, Note_on_c, 0, 64, 100
2, 38130, Note_on_c, 0, 69, 100
2, 38160, Note_on_c, 0, 69, 0
2, 38160, Note_on_c, 0, 52, 0
2, 38160, Note_on_c, 0, 57, 0
2, 38160, Note_on_c, 0, 49, 0
2, 38160, Note_on_c, 0, 64, 0
2, 38160, Note_on_c, 0, 61, 0
2, 38160, Note_on_c, 0, 47, 100
2, 38160, Note_on_c, 0, 51, 100
2, 38160, Note_on_c, 0, 54, 100
2, 38160, Note_on_c, 0, 59, 100
2, 38160, Note_on_c, 0, 63, 100
2, 38160, Note_on_c, 0, 66, 100
2, 38220, Note_on_c, 0, 66, 0
2, 38220, Note_on_c, 0, 51, 0
2, 38220, Note_on_c, 0, 54, 0
2, 38220, Note_on_c, 0, 47, 0
2, 38220, Note_on_c, 0, 63, 0
2, 38220, Note_on_c, 0, 59, 0
2, 38220, Note_on_c, 0, 47, 100
2, 38220, Note_on_c, 0, 51, 100
2, 38220, Note_on_c, 0, 54, 100
2, 38220, Note_on_c, 0, 59, 100
2, 38220, Note_on_c, 0, 63, 100
2, 38220, Note_on_c, 0, 66, 100
2, 38250, Note_on_c, 0, 66, 0
2, 38250, Note_on_c, 0, 51, 0
2, 38250, Note_on_c, 0, 54, 0
2, 38250, Note_on_c, 0, 47, 0
2, 38250, Note_on_c, 0, 63, 0
2, 38250, Note_on_c, 0, 59, 0
2, 38250, Note_on_c, 0, 47, 100
2, 38250, Note_on_c, 0, 51, 100
2, 38250, Note_on_c, 0, 54, 100
2, 38250, Note_on_c, 0, 59, 100
2, 38250, Note_on_c, 0, 63, 100
2, 38250, Note_on_c, 0, 66, 100
2, 38280, Note_on_c, 0, 66, 0
2, 38280, Note_on_c, 0, 51, 0
2, 38280, Note_on_c, 0, 54, 0
2, 38280, Note_on_c, 0, 47, 0
2, 38280, Note_on_c, 0, 63, 0
2, 38280, Note_on_c, 0, 59, 0
2, 38280, Note_on_c, 0, 47, 100
2, 38280, Note_on_c, 0, 54, 100
2, 38280, Note_on_c, 0, 51, 100
2, 38280, Note_on_c, 0, 59, 100
2, 38280, Note_on_c, 0, 63, 100
2, 38280, Note_on_c, 0, 66, 100
2, 38340, Note_on_c, 0, 66, 0
2, 38340, Note_on_c, 0, 54, 0
2, 38340, Note_on_c, 0, 51, 0
2, 38340, Note_on_c, 0, 47, 0
2, 38340, Note_on_c, 0, 63, 0
2, 38340, Note_on_c, 0, 59, 0
2, 38340, Note_on_c, 0, 47, 100
2, 38340, Note_on_c, 0, 59, 100
2, 38370, Note_on_c, 0, 59, 0
2, 38370, Note_on_c, 0, 47, 0
2, 38370, Note_on_c, 0, 47, 100
2, 38370, Note_on_c, 0, 59, 100
2, 38400, Note_on_c, 0, 59, 0
2, 38400, Note_on_c, 0, 47, 0
2, 38400, Note_on_c, 0, 49, 100
2, 38400, Note_on_c, 0, 52, 100
2, 38400, Note_on_c, 0, 56, 100
2, 38400, Note_on_c, 0, 61, 100
2, 38400, Note_on_c, 0, 64, 100
2, 38400, Note_on_c, 0, 68, 100
2, 38460, Note_on_c, 0, 68, 0
2, 38460, Note_on_c, 0, 52, 0
2, 38460, Note_on_c, 0, 56, 0
2, 38460, Note_on_c, 0, 49, 0
2, 38460, Note_on_c, 0, 64, 0
2, 38460, Note_on_c, 0, 61, 0
2, 38460, Note_on_c, 0, 49, 100
2, 38460, Note_on_c, 0, 52, 100
2, 38460, Note_on_c, 0, 56, 100
2, 38460, Note_on_c, 0, 61, 100
2, 38460, Note_on_c, 0, 64, 100
2, 38460, Note_on_c, 0, 68, 100
2, 38520, Note_on_c, 0, 68, 0
2, 38520, Note_on_c, 0, 52, 0
2, 38520, Note_on_c, 0, 56, 0
2, 38520, Note_on_c, 0, 49, 0
2, 38520, Note_on_c, 0, 64, 0
2, 38520, Note_on_c, 0, 61, 0
2, 38520, Note_on_c, 0, 49, 100
2, 38520, Note_on_c, 0, 52, 100
2, 38520, Note_on_c, 0, 56, 100
2, 38520, Note_on_c, 0, 61, 100
2, 38520, Note_on_c, 0, 64, 100
2, 38520, Note_on_c, 0, 68, 100
2, 38550, Note_on_c, 0, 68, 0
2, 38550, Note_on_c, 0, 52, 0
2, 38550, Note_on_c, 0, 56, 0
2, 38550, Note_on_c, 0, 49, 0
2, 38550, Note_on_c, 0, 64, 0
2, 38550, Note_on_c, 0, 61, 0
2, 38550, Note_on_c, 0, 56, 100
2, 38550, Note_on_c, 0, 52, 100
2, 38550, Note_on_c, 0, 49, 100
2, 38550, Note_on_c, 0, 64, 100
2, 38550, Note_on_c, 0, 61, 100
2, 38550, Note_on_c, 0, 68, 100
2, 38580, Note_on_c, 0, 68, 0
2, 38580, Note_on_c, 0, 52, 0
2, 38580, Note_on_c, 0, 49, 0
2, 38580, Note_on_c, 0, 56, 0
2, 38580, Note_on_c, 0, 61, 0
2, 38580, Note_on_c, 0, 64, 0
2, 38610, Note_on_c, 0, 47, 100
2, 38610, Note_on_c, 0, 51, 100
2, 38610, Note_on_c, 0, 54, 100
2, 38610, Note_on_c, 0, 59, 100
2, 38610, Note_on_c, 0, 63, 100
2, 38610, Note_on_c, 0, 66, 100
2, 38640, Note_on_c, 0, 66, 0
2, 38640, Note_on_c, 0, 51, 0
2, 38640, Note_on_c, 0, 54, 0
2, 38640, Note_on_c, 0, 47, 0
2, 38640, Note_on_c, 0, 63, 0
2, 38640, Note_on_c, 0, 59, 0
2, 38640, Note_on_c, 0, 47, 100
2, 38640, Note_on_c, 0, 51, 100
2, 38640, Note_on_c, 0, 54, 100
2, 38640, Note_on_c, 0, 59, 100
2, 38640, Note_on_c, 0, 63, 100
2, 38640, Note_on_c, 0, 66, 100
2, 38700, Note_on_c, 0, 66, 0
2, 38700, Note_on_c, 0, 51, 0
2, 38700, Note_on_c, 0, 54, 0
2, 38700, Note_on_c, 0, 47, 0
2, 38700, Note_on_c, 0, 63, 0
2, 38700, Note_on_c, 0, 59, 0
2, 38700, Note_on_c, 0, 47, 100
2, 38700, Note_on_c, 0, 51, 100
2, 38700, Note_on_c, 0, 54, 100
2, 38700, Note_on_c, 0, 59, 100
2, 38700, Note_on_c, 0, 63, 100
2, 38700, Note_on_c, 0, 66, 100
2, 38730, Note_on_c, 0, 66, 0
2, 38730, Note_on_c, 0, 51, 0
2, 38730, Note_on_c, 0, 54, 0
2, 38730, Note_on_c, 0, 47, 0
2, 38730, Note_on_c, 0, 63, 0
2, 38730, Note_on_c, 0, 59, 0
2, 38730, Note_on_c, 0, 54, 100
2, 38730, Note_on_c, 0, 51, 100
2, 38730, Note_on_c, 0, 47, 100
2, 38730, Note_on_c, 0, 59, 100
2, 38730, Note_on_c, 0, 63, 100
2, 38730, Note_on_c, 0, 66, 100
2, 38760, Note_on_c, 0, 66, 0
2, 38760, Note_on_c, 0, 51, 0
2, 38760, Note_on_c, 0, 47, 0
2, 38760, Note_on_c, 0, 54, 0
2, 38760, Note_on_c, 0, 63, 0
2, 38760, Note_on_c, 0, 59, 0
2, 38760, Note_on_c, 0, 47, 100
2, 38760, Note_on_c, 0, 51, 100
2, 38760, Note_on_c, 0, 54, 100
2, 38760, Note_on_c, 0, 59, 100
2, 38760, Note_on_c, 0, 63, 100
2, 38760, Note_on_c, 0, 66, 100
2, 38820, Note_on_c, 0, 66, 0
2, 38820, Note_on_c, 0, 51, 0
2, 38820, Note_on_c, 0, 54, 0
2, 38820, Note_on_c, 0, 47, 0
2, 38820, Note_on_c, 0, 63, 0
2, 38820, Note_on_c, 0, 59, 0
2, 38820, Note_on_c, 0, 47, 100
2, 38820, Note_on_c, 0, 51, 100
2, 38820, Note_on_c, 0, 54, 100
2, 38820, Note_on_c, 0, 59, 100
2, 38820, Note_on_c, 0, 63, 100
2, 38820, Note_on_c, 0, 66, 100
2, 38850, Note_on_c, 0, 66, 0
2, 38850, Note_on_c, 0, 51, 0
2, 38850, Note_on_c, 0, 54, 0
2, 38850, Note_on_c, 0, 47, 0
2, 38850, Note_on_c, 0, 63, 0
2, 38850, Note_on_c, 0, 59, 0
2, 38850, Note_on_c, 0, 54, 100
2, 38850, Note_on_c, 0, 51, 100
2, 38850, Note_on_c, 0, 47, 100
2, 38850, Note_on_c, 0, 59, 100
2, 38850, Note_on_c, 0, 63, 100
2, 38850, Note_on_c, 0, 66, 100
2, 38880, Note_on_c, 0, 66, 0
2, 38880, Note_on_c, 0, 51, 0
2, 38880, Note_on_c, 0, 47, 0
2, 38880, Note_on_c, 0, 54, 0
2, 38880, Note_on_c, 0, 63, 0
2, 38880, Note_on_c, 0, 59, 0
2, 38880, Note_on_c, 0, 49, 100
2, 38880, Note_on_c, 0, 52, 100
2, 38880, Note_on_c, 0, 57, 100
2, 38880, Note_on_c, 0, 61, 100
2, 38880, Note_on_c, 0, 64, 100
2, 38880, Note_on_c, 0, 69, 100
2, 38940, Note_on_c, 0, 69, 0
2, 38940, Note_on_c, 0, 52, 0
2, 38940, Note_on_c, 0, 57, 0
2, 38940, Note_on_c, 0, 49, 0
2, 38940, Note_on_c, 0, 64, 0
2, 38940, Note_on_c, 0, 61, 0
2, 38940, Note_on_c, 0, 49, 100
2, 38940, Note_on_c, 0, 52, 100
2, 38940, Note_on_c, 0, 57, 100
2, 38940, Note_on_c, 0, 61, 100
2, 38940, Note_on_c, 0, 64, 100
2, 38940, Note_on_c, 0, 69, 100
2, 39000, Note_on_c, 0, 69, 0
2, 39000, Note_on_c, 0, 52, 0
2, 39000, Note_on_c, 0, 57, 0
2, 39000, Note_on_c, 0, 49, 0
2, 39000, Note_on_c, 0, 64, 0
2, 39000, Note_on_c, 0, 61, 0
2, 39000, Note_on_c, 0, 49, 100
2, 39000, Note_on_c, 0, 52, 100
2, 39000, Note_on_c, 0, 57, 100
2, 39000, Note_on_c, 0, 61, 100
2, 39000, Note_on_c, 0, 64, 100
2, 39000, Note_on_c, 0, 69, 100
2, 39030, Note_on_c, 0, 69, 0
2, 39030, Note_on_c, 0, 52, 0
2, 39030, Note_on_c, 0, 57, 0
2, 39030, Note_on_c, 0, 49, 0
2, 39030, Note_on_c, 0, 64, 0
2, 39030, Note_on_c, 0, 61, 0
2, 39030, Note_on_c, 0, 64, 100
2, 39030, Note_on_c, 0, 61, 100
2, 39030, Note_on_c, 0, 57, 100
2, 39030, Note_on_c, 0, 52, 100
2, 39030, Note_on_c, 0, 49, 100
2, 39030, Note_on_c, 0, 69, 100
2, 39060, Note_on_c, 0, 69, 0
2, 39060, Note_on_c, 0, 61, 0
2, 39060, Note_on_c, 0, 57, 0
2, 39060, Note_on_c, 0, 64, 0
2, 39060, Note_on_c, 0, 49, 0
2, 39060, Note_on_c, 0, 52, 0
2, 39120, Note_on_c, 0, 47, 100
2, 39120, Note_on_c, 0, 51, 100
2, 39120, Note_on_c, 0, 54, 100
2, 39120, Note_on_c, 0, 59, 100
2, 39120, Note_on_c, 0, 63, 100
2, 39120, Note_on_c, 0, 66, 100
2, 39150, Note_on_c, 0, 66, 0
2, 39150, Note_on_c, 0, 51, 0
2, 39150, Note_on_c, 0, 54, 0
2, 39150, Note_on_c, 0, 47, 0
2, 39150, Note_on_c, 0, 63, 0
2, 39150, Note_on_c, 0, 59, 0
2, 39150, Note_on_c, 0, 47, 100
2, 39150, Note_on_c, 0, 51, 100
2, 39150, Note_on_c, 0, 54, 100
2, 39150, Note_on_c, 0, 59, 100
2, 39150, Note_on_c, 0, 63, 100
2, 39150, Note_on_c, 0, 66, 100
2, 39180, Note_on_c, 0, 66, 0
2, 39180, Note_on_c, 0, 51, 0
2, 39180, Note_on_c, 0, 54, 0
2, 39180, Note_on_c, 0, 47, 0
2, 39180, Note_on_c, 0, 63, 0
2, 39180, Note_on_c, 0, 59, 0
2, 39180, Note_on_c, 0, 47, 100
2, 39180, Note_on_c, 0, 51, 100
2, 39180, Note_on_c, 0, 54, 100
2, 39180, Note_on_c, 0, 59, 100
2, 39180, Note_on_c, 0, 63, 100
2, 39180, Note_on_c, 0, 66, 100
2, 39210, Note_on_c, 0, 66, 0
2, 39210, Note_on_c, 0, 51, 0
2, 39210, Note_on_c, 0, 54, 0
2, 39210, Note_on_c, 0, 47, 0
2, 39210, Note_on_c, 0, 63, 0
2, 39210, Note_on_c, 0, 59, 0
2, 39210, Note_on_c, 0, 47, 100
2, 39210, Note_on_c, 0, 51, 100
2, 39210, Note_on_c, 0, 54, 100
2, 39210, Note_on_c, 0, 59, 100
2, 39210, Note_on_c, 0, 63, 100
2, 39210, Note_on_c, 0, 66, 100
2, 39240, Note_on_c, 0, 66, 0
2, 39240, Note_on_c, 0, 51, 0
2, 39240, Note_on_c, 0, 54, 0
2, 39240, Note_on_c, 0, 47, 0
2, 39240, Note_on_c, 0, 63, 0
2, 39240, Note_on_c, 0, 59, 0
2, 39240, Note_on_c, 0, 47, 100
2, 39240, Note_on_c, 0, 51, 100
2, 39240, Note_on_c, 0, 54, 100
2, 39240, Note_on_c, 0, 59, 100
2, 39240, Note_on_c, 0, 63, 100
2, 39240, Note_on_c, 0, 66, 100
2, 39270, Note_on_c, 0, 66, 0
2, 39270, Note_on_c, 0, 51, 0
2, 39270, Note_on_c, 0, 54, 0
2, 39270, Note_on_c, 0, 47, 0
2, 39270, Note_on_c, 0, 63, 0
2, 39270, Note_on_c, 0, 59, 0
2, 39270, Note_on_c, 0, 47, 100
2, 39270, Note_on_c, 0, 51, 100
2, 39270, Note_on_c, 0, 54, 100
2, 39270, Note_on_c, 0, 59, 100
2, 39270, Note_on_c, 0, 63, 100
2, 39270, Note_on_c, 0, 66, 100
2, 39300, Note_on_c, 0, 66, 0
2, 39300, Note_on_c, 0, 51, 0
2, 39300, Note_on_c, 0, 54, 0
2, 39300, Note_on_c, 0, 47, 0
2, 39300, Note_on_c, 0, 63, 0
2, 39300, Note_on_c, 0, 59, 0
2, 39300, Note_on_c, 0, 47, 100
2, 39300, Note_on_c, 0, 59, 100
2, 39360, Note_on_c, 0, 59, 0
2, 39360, Note_on_c, 0, 47, 0
2, 39360, Note_on_c, 0, 49, 100
2, 39360, Note_on_c, 0, 52, 100
2, 39360, Note_on_c, 0, 56, 100
2, 39360, Note_on_c, 0, 61, 100
2, 39360, Note_on_c, 0, 64, 100
2, 39360, Note_on_c, 0, 68, 100
2, 39600, Note_on_c, 0, 68, 0
2, 39600, Note_on_c, 0, 52, 0
2, 39600, Note_on_c, 0, 56, 0
2, 39600, Note_on_c, 0, 49, 0
2, 39600, Note_on_c, 0, 64, 0
2, 39600, Note_on_c, 0, 61, 0
2, 39600, Note_on_c, 0, 47, 100
2, 39600, Note_on_c, 0, 51, 100
2, 39600, Note_on_c, 0, 54, 100
2, 39600, Note_on_c, 0, 59, 100
2, 39600, Note_on_c, 0, 63, 100
2, 39600, Note_on_c, 0, 66, 100
2, 39660, Note_on_c, 0, 66, 0
2, 39660, Note_on_c, 0, 51, 0
2, 39660, Note_on_c, 0, 54, 0
2, 39660, Note_on_c, 0, 47, 0
2, 39660, Note_on_c, 0, 63, 0
2, 39660, Note_on_c, 0, 59, 0
2, 39660, Note_on_c, 0, 47, 100
2, 39660, Note_on_c, 0, 51, 100
2, 39660, Note_on_c, 0, 54, 100
2, 39660, Note_on_c, 0, 59, 100
2, 39660, Note_on_c, 0, 63, 100
2, 39660, Note_on_c, 0, 66, 100
2, 39840, Note_on_c, 0, 66, 0
2, 39840, Note_on_c, 0, 51, 0
2, 39840, Note_on_c, 0, 54, 0
2, 39840, Note_on_c, 0, 47, 0
2, 39840, Note_on_c, 0, 63, 0
2, 39840, Note_on_c, 0, 59, 0
2, 39840, Note_on_c, 0, 49, 100
2, 39840, Note_on_c, 0, 52, 100
2, 39840, Note_on_c, 0, 57, 100
2, 39840, Note_on_c, 0, 61, 100
2, 39840, Note_on_c, 0, 64, 100
2, 39840, Note_on_c, 0, 69, 110
2, 40080, Note_on_c, 0, 69, 0
2, 40080, Note_on_c, 0, 52, 0
2, 40080, Note_on_c, 0, 57, 0
2, 40080, Note_on_c, 0, 49, 0
2, 40080, Note_on_c, 0, 64, 0
2, 40080, Note_on_c, 0, 61, 0
2, 40140, Note_on_c, 0, 47, 100
2, 40140, Note_on_c, 0, 51, 100
2, 40140, Note_on_c, 0, 54, 100
2, 40140, Note_on_c, 0, 59, 100
2, 40140, Note_on_c, 0, 63, 100
2, 40140, Note_on_c, 0, 66, 100
2, 40170, Note_on_c, 0, 66, 0
2, 40170, Note_on_c, 0, 51, 0
2, 40170, Note_on_c, 0, 54, 0
2, 40170, Note_on_c, 0, 47, 0
2, 40170, Note_on_c, 0, 63, 0
2, 40170, Note_on_c, 0, 59, 0
2, 40170, Note_on_c, 0, 47, 100
2, 40170, Note_on_c, 0, 51, 100
2, 40170, Note_on_c, 0, 54, 100
2, 40170, Note_on_c, 0, 59, 100
2, 40170, Note_on_c, 0, 63, 100
2, 40170, Note_on_c, 0, 66, 100
2, 40200, Note_on_c, 0, 66, 0
2, 40200, Note_on_c, 0, 51, 0
2, 40200, Note_on_c, 0, 54, 0
2, 40200, Note_on_c, 0, 47, 0
2, 40200, Note_on_c, 0, 63, 0
2, 40200, Note_on_c, 0, 59, 0
2, 40200, Note_on_c, 0, 47, 100
2, 40200, Note_on_c, 0, 51, 100
2, 40200, Note_on_c, 0, 54, 100
2, 40200, Note_on_c, 0, 59, 100
2, 40200, Note_on_c, 0, 63, 100
2, 40200, Note_on_c, 0, 66, 100
2, 40260, Note_on_c, 0, 66, 0
2, 40260, Note_on_c, 0, 51, 0
2, 40260, Note_on_c, 0, 54, 0
2, 40260, Note_on_c, 0, 47, 0
2, 40260, Note_on_c, 0, 63, 0
2, 40260, Note_on_c, 0, 59, 0
2, 40260, Note_on_c, 0, 49, 100
2, 40260, Note_on_c, 0, 52, 100
2, 40260, Note_on_c, 0, 56, 100
2, 40260, Note_on_c, 0, 61, 100
2, 40260, Note_on_c, 0, 64, 100
2, 40260, Note_on_c, 0, 68, 100
2, 40320, Note_on_c, 0, 68, 0
2, 40320, Note_on_c, 0, 52, 0
2, 40320, Note_on_c, 0, 56, 0
2, 40320, Note_on_c, 0, 49, 0
2, 40320, Note_on_c, 0, 64, 0
2, 40320, Note_on_c, 0, 61, 0
2, 40320, Note_on_c, 0, 49, 110
2, 40320, Note_on_c, 0, 52, 110
2, 40320, Note_on_c, 0, 56, 110
2, 40320, Note_on_c, 0, 61, 110
2, 40320, Note_on_c, 0, 64, 110
2, 40320, Note_on_c, 0, 68, 110
2, 40560, Note_on_c, 0, 68, 0
2, 40560, Note_on_c, 0, 52, 0
2, 40560, Note_on_c, 0, 56, 0
2, 40560, Note_on_c, 0, 49, 0
2, 40560, Note_on_c, 0, 64, 0
2, 40560, Note_on_c, 0, 61, 0
2, 40560, Note_on_c, 0, 47, 110
2, 40560, Note_on_c, 0, 51, 110
2, 40560, Note_on_c, 0, 54, 110
2, 40560, Note_on_c, 0, 59, 110
2, 40560, Note_on_c, 0, 63, 110
2, 40560, Note_on_c, 0, 66, 110
2, 40800, Note_on_c, 0, 66, 0
2, 40800, Note_on_c, 0, 51, 0
2, 40800, Note_on_c, 0, 54, 0
2, 40800, Note_on_c, 0, 47, 0
2, 40800, Note_on_c, 0, 63, 0
2, 40800, Note_on_c, 0, 59, 0
2, 40800, Note_on_c, 0, 49, 100
2, 40800, Note_on_c, 0, 52, 100
2, 40800, Note_on_c, 0, 57, 100
2, 40800, Note_on_c, 0, 61, 100
2, 40800, Note_on_c, 0, 64, 100
2, 40800, Note_on_c, 0, 69, 110
2, 41040, Note_on_c, 0, 69, 0
2, 41040, Note_on_c, 0, 52, 0
2, 41040, Note_on_c, 0, 57, 0
2, 41040, Note_on_c, 0, 49, 0
2, 41040, Note_on_c, 0, 64, 0
2, 41040, Note_on_c, 0, 61, 0
2, 41100, Note_on_c, 0, 47, 100
2, 41100, Note_on_c, 0, 51, 100
2, 41100, Note_on_c, 0, 54, 100
2, 41100, Note_on_c, 0, 59, 100
2, 41100, Note_on_c, 0, 63, 100
2, 41100, Note_on_c, 0, 66, 100
2, 41130, Note_on_c, 0, 66, 0
2, 41130, Note_on_c, 0, 51, 0
2, 41130, Note_on_c, 0, 54, 0
2, 41130, Note_on_c, 0, 47, 0
2, 41130, Note_on_c, 0, 63, 0
2, 41130, Note_on_c, 0, 59, 0
2, 41130, Note_on_c, 0, 47, 100
2, 41130, Note_on_c, 0, 51, 100
2, 41130, Note_on_c, 0, 54, 100
2, 41130, Note_on_c, 0, 59, 100
2, 41130, Note_on_c, 0, 63, 100
2, 41130, Note_on_c, 0, 66, 100
2, 41160, Note_on_c, 0, 66, 0
2, 41160, Note_on_c, 0, 51, 0
2, 41160, Note_on_c, 0, 54, 0
2, 41160, Note_on_c, 0, 47, 0
2, 41160, Note_on_c, 0, 63, 0
2, 41160, Note_on_c, 0, 59, 0
2, 41160, Note_on_c, 0, 47, 100
2, 41160, Note_on_c, 0, 51, 100
2, 41160, Note_on_c, 0, 54, 100
2, 41160, Note_on_c, 0, 59, 100
2, 41160, Note_on_c, 0, 63, 100
2, 41160, Note_on_c, 0, 66, 100
2, 41220, Note_on_c, 0, 66, 0
2, 41220, Note_on_c, 0, 51, 0
2, 41220, Note_on_c, 0, 54, 0
2, 41220, Note_on_c, 0, 47, 0
2, 41220, Note_on_c, 0, 63, 0
2, 41220, Note_on_c, 0, 59, 0
2, 41220, Note_on_c, 0, 49, 100
2, 41220, Note_on_c, 0, 52, 100
2, 41220, Note_on_c, 0, 56, 100
2, 41220, Note_on_c, 0, 61, 100
2, 41220, Note_on_c, 0, 64, 100
2, 41220, Note_on_c, 0, 68, 100
2, 41280, Note_on_c, 0, 68, 0
2, 41280, Note_on_c, 0, 52, 0
2, 41280, Note_on_c, 0, 56, 0
2, 41280, Note_on_c, 0, 49, 0
2, 41280, Note_on_c, 0, 64, 0
2, 41280, Note_on_c, 0, 61, 0
2, 41280, Note_on_c, 0, 49, 110
2, 41280, Note_on_c, 0, 52, 110
2, 41280, Note_on_c, 0, 56, 110
2, 41280, Note_on_c, 0, 61, 110
2, 41280, Note_on_c, 0, 64, 110
2, 41280, Note_on_c, 0, 68, 110
2, 41520, Note_on_c, 0, 68, 0
2, 41520, Note_on_c, 0, 52, 0
2, 41520, Note_on_c, 0, 56, 0
2, 41520, Note_on_c, 0, 49, 0
2, 41520, Note_on_c, 0, 64, 0
2, 41520, Note_on_c, 0, 61, 0
2, 41520, Note_on_c, 0, 47, 110
2, 41520, Note_on_c, 0, 51, 110
2, 41520, Note_on_c, 0, 54, 110
2, 41520, Note_on_c, 0, 59, 110
2, 41520, Note_on_c, 0, 63, 110
2, 41520, Note_on_c, 0, 66, 110
2, 41760, Note_on_c, 0, 66, 0
2, 41760, Note_on_c, 0, 51, 0
2, 41760, Note_on_c, 0, 54, 0
2, 41760, Note_on_c, 0, 47, 0
2, 41760, Note_on_c, 0, 63, 0
2, 41760, Note_on_c, 0, 59, 0
2, 41760, Note_on_c, 0, 49, 100
2, 41760, Note_on_c, 0, 52, 100
2, 41760, Note_on_c, 0, 57, 100
2, 41760, Note_on_c, 0, 61, 100
2, 41760, Note_on_c, 0, 64, 100
2, 41760, Note_on_c, 0, 69, 110
2, 42000, Note_on_c, 0, 69, 0
2, 42000, Note_on_c, 0, 52, 0
2, 42000, Note_on_c, 0, 57, 0
2, 42000, Note_on_c, 0, 49, 0
2, 42000, Note_on_c, 0, 64, 0
2, 42000, Note_on_c, 0, 61, 0
2, 42060, Note_on_c, 0, 47, 100
2, 42060, Note_on_c, 0, 51, 100
2, 42060, Note_on_c, 0, 54, 100
2, 42060, Note_on_c, 0, 59, 100
2, 42060, Note_on_c, 0, 63, 100
2, 42060, Note_on_c, 0, 66, 100
2, 42090, Note_on_c, 0, 66, 0
2, 42090, Note_on_c, 0, 51, 0
2, 42090, Note_on_c, 0, 54, 0
2, 42090, Note_on_c, 0, 47, 0
2, 42090, Note_on_c, 0, 63, 0
2, 42090, Note_on_c, 0, 59, 0
2, 42090, Note_on_c, 0, 47, 100
2, 42090, Note_on_c, 0, 51, 100
2, 42090, Note_on_c, 0, 54, 100
2, 42090, Note_on_c, 0, 59, 100
2, 42090, Note_on_c, 0, 63, 100
2, 42090, Note_on_c, 0, 66, 100
2, 42120, Note_on_c, 0, 66, 0
2, 42120, Note_on_c, 0, 51, 0
2, 42120, Note_on_c, 0, 54, 0
2, 42120, Note_on_c, 0, 47, 0
2, 42120, Note_on_c, 0, 63, 0
2, 42120, Note_on_c, 0, 59, 0
2, 42120, Note_on_c, 0, 47, 100
2, 42120, Note_on_c, 0, 51, 100
2, 42120, Note_on_c, 0, 54, 100
2, 42120, Note_on_c, 0, 59, 100
2, 42120, Note_on_c, 0, 63, 100
2, 42120, Note_on_c, 0, 66, 100
2, 42180, Note_on_c, 0, 66, 0
2, 42180, Note_on_c, 0, 51, 0
2, 42180, Note_on_c, 0, 54, 0
2, 42180, Note_on_c, 0, 47, 0
2, 42180, Note_on_c, 0, 63, 0
2, 42180, Note_on_c, 0, 59, 0
2, 42180, Note_on_c, 0, 49, 100
2, 42180, Note_on_c, 0, 52, 100
2, 42180, Note_on_c, 0, 56, 100
2, 42180, Note_on_c, 0, 61, 100
2, 42180, Note_on_c, 0, 64, 100
2, 42180, Note_on_c, 0, 68, 100
2, 42240, Note_on_c, 0, 68, 0
2, 42240, Note_on_c, 0, 52, 0
2, 42240, Note_on_c, 0, 56, 0
2, 42240, Note_on_c, 0, 49, 0
2, 42240, Note_on_c, 0, 64, 0
2, 42240, Note_on_c, 0, 61, 0
2, 42245, Note_on_c, 0, 49, 110
2, 42245, Note_on_c, 0, 52, 110
2, 42245, Note_on_c, 0, 56, 110
2, 42245, Note_on_c, 0, 61, 110
2, 42245, Note_on_c, 0, 64, 110
2, 42245, Note_on_c, 0, 68, 110
2, 42485, Note_on_c, 0, 68, 0
2, 42485, Note_on_c, 0, 52, 0
2, 42485, Note_on_c, 0, 56, 0
2, 42485, Note_on_c, 0, 49, 0
2, 42485, Note_on_c, 0, 64, 0
2, 42485, Note_on_c, 0, 61, 0
2, 42485, Note_on_c, 0, 47, 110
2, 42485, Note_on_c, 0, 51, 110
2, 42485, Note_on_c, 0, 54, 110
2, 42485, Note_on_c, 0, 59, 110
2, 42485, Note_on_c, 0, 63, 110
2, 42485, Note_on_c, 0, 66, 110
2, 42725, Note_on_c, 0, 66, 0
2, 42725, Note_on_c, 0, 51, 0
2, 42725, Note_on_c, 0, 54, 0
2, 42725, Note_on_c, 0, 47, 0
2, 42725, Note_on_c, 0, 63, 0
2, 42725, Note_on_c, 0, 59, 0
2, 42725, Note_on_c, 0, 49, 100
2, 42725, Note_on_c, 0, 52, 100
2, 42725, Note_on_c, 0, 57, 100
2, 42725, Note_on_c, 0, 61, 100
2, 42725, Note_on_c, 0, 64, 100
2, 42725, Note_on_c, 0, 69, 110
2, 42965, Note_on_c, 0, 69, 0
2, 42965, Note_on_c, 0, 52, 0
2, 42965, Note_on_c, 0, 57, 0
2, 42965, Note_on_c, 0, 49, 0
2, 42965, Note_on_c, 0, 64, 0
2, 42965, Note_on_c, 0, 61, 0
2, 43025, Note_on_c, 0, 47, 100
2, 43025, Note_on_c, 0, 51, 100
2, 43025, Note_on_c, 0, 54, 100
2, 43025, Note_on_c, 0, 59, 100
2, 43025, Note_on_c, 0, 63, 100
2, 43025, Note_on_c, 0, 66, 100
2, 43055, Note_on_c, 0, 66, 0
2, 43055, Note_on_c, 0, 51, 0
2, 43055, Note_on_c, 0, 54, 0
2, 43055, Note_on_c, 0, 47, 0
2, 43055, Note_on_c, 0, 63, 0
2, 43055, Note_on_c, 0, 59, 0
2, 43055, Note_on_c, 0, 47, 100
2, 43055, Note_on_c, 0, 51, 100
2, 43055, Note_on_c, 0, 54, 100
2, 43055, Note_on_c, 0, 59, 100
2, 43055, Note_on_c, 0, 63, 100
2, 43055, Note_on_c, 0, 66, 100
2, 43085, Note_on_c, 0, 66, 0
2, 43085, Note_on_c, 0, 51, 0
2, 43085, Note_on_c, 0, 54, 0
2, 43085, Note_on_c, 0, 47, 0
2, 43085, Note_on_c, 0, 63, 0
2, 43085, Note_on_c, 0, 59, 0
2, 43085, Note_on_c, 0, 47, 100
2, 43085, Note_on_c, 0, 51, 100
2, 43085, Note_on_c, 0, 54, 100
2, 43085, Note_on_c, 0, 59, 100
2, 43085, Note_on_c, 0, 63, 100
2, 43085, Note_on_c, 0, 66, 100
2, 43145, Note_on_c, 0, 66, 0
2, 43145, Note_on_c, 0, 51, 0
2, 43145, Note_on_c, 0, 54, 0
2, 43145, Note_on_c, 0, 47, 0
2, 43145, Note_on_c, 0, 63, 0
2, 43145, Note_on_c, 0, 59, 0
2, 43145, Note_on_c, 0, 49, 100
2, 43145, Note_on_c, 0, 52, 100
2, 43145, Note_on_c, 0, 56, 100
2, 43145, Note_on_c, 0, 61, 100
2, 43145, Note_on_c, 0, 64, 100
2, 43145, Note_on_c, 0, 68, 100
2, 43205, Note_on_c, 0, 68, 0
2, 43205, Note_on_c, 0, 52, 0
2, 43205, Note_on_c, 0, 56, 0
2, 43205, Note_on_c, 0, 49, 0
2, 43205, Note_on_c, 0, 64, 0
2, 43205, Note_on_c, 0, 61, 0
2, 43205, Note_on_c, 0, 49, 110
2, 43205, Note_on_c, 0, 52, 110
2, 43205, Note_on_c, 0, 56, 110
2, 43205, Note_on_c, 0, 61, 110
2, 43205, Note_on_c, 0, 64, 110
2, 43205, Note_on_c, 0, 68, 110
2, 43445, Note_on_c, 0, 68, 0
2, 43445, Note_on_c, 0, 52, 0
2, 43445, Note_on_c, 0, 56, 0
2, 43445, Note_on_c, 0, 49, 0
2, 43445, Note_on_c, 0, 64, 0
2, 43445, Note_on_c, 0, 61, 0
2, 43445, Note_on_c, 0, 47, 110
2, 43445, Note_on_c, 0, 51, 110
2, 43445, Note_on_c, 0, 54, 110
2, 43445, Note_on_c, 0, 59, 110
2, 43445, Note_on_c, 0, 63, 110
2, 43445, Note_on_c, 0, 66, 110
2, 43685, Note_on_c, 0, 66, 0
2, 43685, Note_on_c, 0, 51, 0
2, 43685, Note_on_c, 0, 54, 0
2, 43685, Note_on_c, 0, 47, 0
2, 43685, Note_on_c, 0, 63, 0
2, 43685, Note_on_c, 0, 59, 0
2, 43685, Note_on_c, 0, 49, 100
2, 43685, Note_on_c, 0, 52, 100
2, 43685, Note_on_c, 0, 57, 100
2, 43685, Note_on_c, 0, 61, 100
2, 43685, Note_on_c, 0, 64, 100
2, 43685, Note_on_c, 0, 69, 110
2, 43920, Note_on_c, 0, 47, 100
2, 43920, Note_on_c, 0, 59, 100
2, 43925, Note_on_c, 0, 69, 0
2, 43925, Note_on_c, 0, 61, 0
2, 43925, Note_on_c, 0, 49, 0
2, 43925, Note_on_c, 0, 52, 0
2, 43925, Note_on_c, 0, 57, 0
2, 43925, Note_on_c, 0, 64, 0
2, 43950, Note_on_c, 0, 59, 0
2, 43950, Note_on_c, 0, 47, 0
2, 43950, Note_on_c, 0, 59, 100
2, 43950, Note_on_c, 0, 47, 100
2, 43980, Note_on_c, 0, 47, 0
2, 43980, Note_on_c, 0, 59, 0
2, 43985, Note_on_c, 0, 47, 100
2, 43985, Note_on_c, 0, 51, 100
2, 43985, Note_on_c, 0, 54, 100
2, 43985, Note_on_c, 0, 59, 100
2, 43985, Note_on_c, 0, 63, 100
2, 43985, Note_on_c, 0, 66, 100
2, 44015, Note_on_c, 0, 66, 0
2, 44015, Note_on_c, 0, 51, 0
2, 44015, Note_on_c, 0, 54, 0
2, 44015, Note_on_c, 0, 47, 0
2, 44015, Note_on_c, 0, 63, 0
2, 44015, Note_on_c, 0, 59, 0
2, 44015, Note_on_c, 0, 47, 100
2, 44015, Note_on_c, 0, 51, 100
2, 44015, Note_on_c, 0, 54, 100
2, 44015, Note_on_c, 0, 59, 100
2, 44015, Note_on_c, 0, 63, 100
2, 44015, Note_on_c, 0, 66, 100
2, 44045, Note_on_c, 0, 66, 0
2, 44045, Note_on_c, 0, 51, 0
2, 44045, Note_on_c, 0, 54, 0
2, 44045, Note_on_c, 0, 47, 0
2, 44045, Note_on_c, 0, 63, 0
2, 44045, Note_on_c, 0, 59, 0
2, 44045, Note_on_c, 0, 47, 100
2, 44045, Note_on_c, 0, 51, 100
2, 44045, Note_on_c, 0, 54, 100
2, 44045, Note_on_c, 0, 59, 100
2, 44045, Note_on_c, 0, 63, 100
2, 44045, Note_on_c, 0, 66, 100
2, 44105, Note_on_c, 0, 66, 0
2, 44105, Note_on_c, 0, 51, 0
2, 44105, Note_on_c, 0, 54, 0
2, 44105, Note_on_c, 0, 47, 0
2, 44105, Note_on_c, 0, 63, 0
2, 44105, Note_on_c, 0, 59, 0
2, 44105, Note_on_c, 0, 49, 100
2, 44105, Note_on_c, 0, 52, 100
2, 44105, Note_on_c, 0, 56, 100
2, 44105, Note_on_c, 0, 61, 100
2, 44105, Note_on_c, 0, 64, 100
2, 44105, Note_on_c, 0, 68, 100
2, 44160, Note_on_c, 0, 49, 110
2, 44160, Note_on_c, 0, 52, 110
2, 44160, Note_on_c, 0, 56, 110
2, 44160, Note_on_c, 0, 61, 110
2, 44160, Note_on_c, 0, 64, 110
2, 44160, Note_on_c, 0, 68, 110
2, 44165, Note_on_c, 0, 68, 0
2, 44165, Note_on_c, 0, 61, 0
2, 44165, Note_on_c, 0, 49, 0
2, 44165, Note_on_c, 0, 56, 0
2, 44165, Note_on_c, 0, 64, 0
2, 44165, Note_on_c, 0, 52, 0
2, 44400, Note_on_c, 0, 49, 0
2, 44400, Note_on_c, 0, 56, 0
2, 44400, Note_on_c, 0, 64, 0
2, 44400, Note_on_c, 0, 68, 0
2, 44400, Note_on_c, 0, 52, 0
2, 44400, Note_on_c, 0, 61, 0
2, 44400, Note_on_c, 0, 47, 110
2, 44400, Note_on_c, 0, 51, 110
2, 44400, Note_on_c, 0, 54, 110
2, 44400, Note_on_c, 0, 59, 110
2, 44400, Note_on_c, 0, 63, 110
2, 44400, Note_on_c, 0, 66, 110
2, 44640, Note_on_c, 0, 66, 0
2, 44640, Note_on_c, 0, 51, 0
2, 44640, Note_on_c, 0, 54, 0
2, 44640, Note_on_c, 0, 47, 0
2, 44640, Note_on_c, 0, 63, 0
2, 44640, Note_on_c, 0, 59, 0
2, 44640, Note_on_c, 0, 49, 100
2, 44640, Note_on_c, 0, 52, 100
2, 44640, Note_on_c, 0, 57, 100
2, 44640, Note_on_c, 0, 61, 100
2, 44640, Note_on_c, 0, 64, 100
2, 44640, Note_on_c, 0, 69, 110
2, 44880, Note_on_c, 0, 69, 0
2, 44880, Note_on_c, 0, 52, 0
2, 44880, Note_on_c, 0, 57, 0
2, 44880, Note_on_c, 0, 49, 0
2, 44880, Note_on_c, 0, 64, 0
2, 44880, Note_on_c, 0, 61, 0
2, 44940, Note_on_c, 0, 47, 100
2, 44940, Note_on_c, 0, 51, 100
2, 44940, Note_on_c, 0, 54, 100
2, 44940, Note_on_c, 0, 59, 100
2, 44940, Note_on_c, 0, 63, 100
2, 44940, Note_on_c, 0, 66, 100
2, 44970, Note_on_c, 0, 66, 0
2, 44970, Note_on_c, 0, 51, 0
2, 44970, Note_on_c, 0, 54, 0
2, 44970, Note_on_c, 0, 47, 0
2, 44970, Note_on_c, 0, 63, 0
2, 44970, Note_on_c, 0, 59, 0
2, 44970, Note_on_c, 0, 47, 100
2, 44970, Note_on_c, 0, 51, 100
2, 44970, Note_on_c, 0, 54, 100
2, 44970, Note_on_c, 0, 59, 100
2, 44970, Note_on_c, 0, 63, 100
2, 44970, Note_on_c, 0, 66, 100
2, 45000, Note_on_c, 0, 66, 0
2, 45000, Note_on_c, 0, 51, 0
2, 45000, Note_on_c, 0, 54, 0
2, 45000, Note_on_c, 0, 47, 0
2, 45000, Note_on_c, 0, 63, 0
2, 45000, Note_on_c, 0, 59, 0
2, 45000, Note_on_c, 0, 47, 100
2, 45000, Note_on_c, 0, 51, 100
2, 45000, Note_on_c, 0, 54, 100
2, 45000, Note_on_c, 0, 59, 100
2, 45000, Note_on_c, 0, 63, 100
2, 45000, Note_on_c, 0, 66, 100
2, 45060, Note_on_c, 0, 66, 0
2, 45060, Note_on_c, 0, 51, 0
2, 45060, Note_on_c, 0, 54, 0
2, 45060, Note_on_c, 0, 47, 0
2, 45060, Note_on_c, 0, 63, 0
2, 45060, Note_on_c, 0, 59, 0
2, 45060, Note_on_c, 0, 49, 100
2, 45060, Note_on_c, 0, 52, 100
2, 45060, Note_on_c, 0, 56, 100
2, 45060, Note_on_c, 0, 61, 100
2, 45060, Note_on_c, 0, 64, 100
2, 45060, Note_on_c, 0, 68, 100
2, 45120, Note_on_c, 0, 68, 0
2, 45120, Note_on_c, 0, 52, 0
2, 45120, Note_on_c, 0, 56, 0
2, 45120, Note_on_c, 0, 49, 0
2, 45120, Note_on_c, 0, 64, 0
2, 45120, Note_on_c, 0, 61, 0
2, 45120, Note_on_c, 0, 49, 110
2, 45120, Note_on_c, 0, 52, 110
2, 45120, Note_on_c, 0, 56, 110
2, 45120, Note_on_c, 0, 61, 110
2, 45120, Note_on_c, 0, 64, 110
2, 45120, Note_on_c, 0, 68, 110
2, 45360, Note_on_c, 0, 68, 0
2, 45360, Note_on_c, 0, 52, 0
2, 45360, Note_on_c, 0, 56, 0
2, 45360, Note_on_c, 0, 49, 0
2, 45360, Note_on_c, 0, 64, 0
2, 45360, Note_on_c, 0, 61, 0
2, 45360, Note_on_c, 0, 47, 110
2, 45360, Note_on_c, 0, 51, 110
2, 45360, Note_on_c, 0, 54, 110
2, 45360, Note_on_c, 0, 59, 110
2, 45360, Note_on_c, 0, 63, 110
2, 45360, Note_on_c, 0, 66, 110
2, 45600, Note_on_c, 0, 66, 0
2, 45600, Note_on_c, 0, 51, 0
2, 45600, Note_on_c, 0, 54, 0
2, 45600, Note_on_c, 0, 47, 0
2, 45600, Note_on_c, 0, 63, 0
2, 45600, Note_on_c, 0, 59, 0
2, 45600, Note_on_c, 0, 49, 100
2, 45600, Note_on_c, 0, 52, 100
2, 45600, Note_on_c, 0, 57, 100
2, 45600, Note_on_c, 0, 61, 100
2, 45600, Note_on_c, 0, 64, 100
2, 45600, Note_on_c, 0, 69, 110
2, 45840, Note_on_c, 0, 69, 0
2, 45840, Note_on_c, 0, 52, 0
2, 45840, Note_on_c, 0, 57, 0
2, 45840, Note_on_c, 0, 49, 0
2, 45840, Note_on_c, 0, 64, 0
2, 45840, Note_on_c, 0, 61, 0
2, 45900, Note_on_c, 0, 47, 100
2, 45900, Note_on_c, 0, 51, 100
2, 45900, Note_on_c, 0, 54, 100
2, 45900, Note_on_c, 0, 59, 100
2, 45900, Note_on_c, 0, 63, 100
2, 45900, Note_on_c, 0, 66, 100
2, 45930, Note_on_c, 0, 66, 0
2, 45930, Note_on_c, 0, 51, 0
2, 45930, Note_on_c, 0, 54, 0
2, 45930, Note_on_c, 0, 47, 0
2, 45930, Note_on_c, 0, 63, 0
2, 45930, Note_on_c, 0, 59, 0
2, 45930, Note_on_c, 0, 47, 100
2, 45930, Note_on_c, 0, 51, 100
2, 45930, Note_on_c, 0, 54, 100
2, 45930, Note_on_c, 0, 59, 100
2, 45930, Note_on_c, 0, 63, 100
2, 45930, Note_on_c, 0, 66, 100
2, 45960, Note_on_c, 0, 66, 0
2, 45960, Note_on_c, 0, 51, 0
2, 45960, Note_on_c, 0, 54, 0
2, 45960, Note_on_c, 0, 47, 0
2, 45960, Note_on_c, 0, 63, 0
2, 45960, Note_on_c, 0, 59, 0
2, 45960, Note_on_c, 0, 47, 100
2, 45960, Note_on_c, 0, 51, 100
2, 45960, Note_on_c, 0, 54, 100
2, 45960, Note_on_c, 0, 59, 100
2, 45960, Note_on_c, 0, 63, 100
2, 45960, Note_on_c, 0, 66, 100
2, 46080, Note_on_c, 0, 66, 0
2, 46080, Note_on_c, 0, 51, 0
2, 46080, Note_on_c, 0, 54, 0
2, 46080, Note_on_c, 0, 47, 0
2, 46080, Note_on_c, 0, 63, 0
2, 46080, Note_on_c, 0, 59, 0
2, 46080, Note_on_c, 0, 49, 110
2, 46080, Note_on_c, 0, 52, 110
2, 46080, Note_on_c, 0, 56, 110
2, 46080, Note_on_c, 0, 61, 110
2, 46080, Note_on_c, 0, 64, 110
2, 46080, Note_on_c, 0, 68, 110
2, 46320, Note_on_c, 0, 68, 0
2, 46320, Note_on_c, 0, 52, 0
2, 46320, Note_on_c, 0, 56, 0
2, 46320, Note_on_c, 0, 49, 0
2, 46320, Note_on_c, 0, 64, 0
2, 46320, Note_on_c, 0, 61, 0
2, 46320, Note_on_c, 0, 47, 110
2, 46320, Note_on_c, 0, 51, 110
2, 46320, Note_on_c, 0, 54, 110
2, 46320, Note_on_c, 0, 59, 110
2, 46320, Note_on_c, 0, 63, 110
2, 46320, Note_on_c, 0, 66, 110
2, 46560, Note_on_c, 0, 66, 0
2, 46560, Note_on_c, 0, 51, 0
2, 46560, Note_on_c, 0, 54, 0
2, 46560, Note_on_c, 0, 47, 0
2, 46560, Note_on_c, 0, 63, 0
2, 46560, Note_on_c, 0, 59, 0
2, 46560, Note_on_c, 0, 49, 127
2, 46560, Note_on_c, 0, 52, 127
2, 46560, Note_on_c, 0, 57, 127
2, 46560, Note_on_c, 0, 61, 127
2, 46590, Note_on_c, 0, 61, 0
2, 46590, Note_on_c, 0, 49, 0
2, 46590, Note_on_c, 0, 52, 0
2, 46590, Note_on_c, 0, 57, 0
2, 46590, Note_on_c, 0, 49, 100
2, 46590, Note_on_c, 0, 52, 100
2, 46590, Note_on_c, 0, 57, 100
2, 46590, Note_on_c, 0, 61, 100
2, 46620, Note_on_c, 0, 61, 0
2, 46620, Note_on_c, 0, 49, 0
2, 46620, Note_on_c, 0, 52, 0
2, 46620, Note_on_c, 0, 57, 0
2, 46620, Note_on_c, 0, 49, 127
2, 46620, Note_on_c, 0, 52, 127
2, 46620, Note_on_c, 0, 57, 127
2, 46620, Note_on_c, 0, 61, 127
2, 46650, Note_on_c, 0, 61, 0
2, 46650, Note_on_c, 0, 49, 0
2, 46650, Note_on_c, 0, 52, 0
2, 46650, Note_on_c, 0, 57, 0
2, 46650, Note_on_c, 0, 49, 127
2, 46650, Note_on_c, 0, 52, 127
2, 46650, Note_on_c, 0, 57, 127
2, 46650, Note_on_c, 0, 61, 127
2, 46680, Note_on_c, 0, 61, 0
2, 46680, Note_on_c, 0, 49, 0
2, 46680, Note_on_c, 0, 52, 0
2, 46680, Note_on_c, 0, 57, 0
2, 46680, Note_on_c, 0, 49, 100
2, 46680, Note_on_c, 0, 52, 100
2, 46680, Note_on_c, 0, 57, 100
2, 46680, Note_on_c, 0, 61, 100
2, 46710, Note_on_c, 0, 61, 0
2, 46710, Note_on_c, 0, 49, 0
2, 46710, Note_on_c, 0, 52, 0
2, 46710, Note_on_c, 0, 57, 0
2, 46710, Note_on_c, 0, 49, 127
2, 46710, Note_on_c, 0, 52, 127
2, 46710, Note_on_c, 0, 57, 127
2, 46710, Note_on_c, 0, 61, 127
2, 46740, Note_on_c, 0, 61, 0
2, 46740, Note_on_c, 0, 49, 0
2, 46740, Note_on_c, 0, 52, 0
2, 46740, Note_on_c, 0, 57, 0
2, 46740, Note_on_c, 0, 49, 127
2, 46740, Note_on_c, 0, 52, 127
2, 46740, Note_on_c, 0, 57, 127
2, 46740, Note_on_c, 0, 61, 127
2, 46770, Note_on_c, 0, 61, 0
2, 46770, Note_on_c, 0, 49, 0
2, 46770, Note_on_c, 0, 52, 0
2, 46770, Note_on_c, 0, 57, 0
2, 46770, Note_on_c, 0, 49, 100
2, 46770, Note_on_c, 0, 52, 100
2, 46770, Note_on_c, 0, 57, 100
2, 46770, Note_on_c, 0, 61, 100
2, 46800, Note_on_c, 0, 61, 0
2, 46800, Note_on_c, 0, 49, 0
2, 46800, Note_on_c, 0, 52, 0
2, 46800, Note_on_c, 0, 57, 0
2, 46800, Note_on_c, 0, 45, 100
2, 46800, Note_on_c, 0, 57, 100
2, 46830, Note_on_c, 0, 57, 0
2, 46830, Note_on_c, 0, 45, 0
2, 46830, Note_on_c, 0, 47, 100
2, 46830, Note_on_c, 0, 51, 100
2, 46830, Note_on_c, 0, 54, 100
2, 46830, Note_on_c, 0, 59, 100
2, 46860, Note_on_c, 0, 59, 0
2, 46860, Note_on_c, 0, 47, 0
2, 46860, Note_on_c, 0, 51, 0
2, 46860, Note_on_c, 0, 54, 0
2, 46860, Note_on_c, 0, 47, 100
2, 46860, Note_on_c, 0, 51, 100
2, 46860, Note_on_c, 0, 54, 100
2, 46860, Note_on_c, 0, 59, 120
2, 46920, Note_on_c, 0, 59, 0
2, 46920, Note_on_c, 0, 47, 0
2, 46920, Note_on_c, 0, 51, 0
2, 46920, Note_on_c, 0, 54, 0
2, 46920, Note_on_c, 0, 54, 127
2, 46920, Note_on_c, 0, 59, 127
2, 46920, Note_on_c, 0, 47, 100
2, 46950, Note_on_c, 0, 47, 0
2, 46950, Note_on_c, 0, 59, 0
2, 46950, Note_on_c, 0, 54, 0
2, 46950, Note_on_c, 0, 51, 127
2, 46950, Note_on_c, 0, 54, 127
2, 46950, Note_on_c, 0, 59, 127
2, 46950, Note_on_c, 0, 47, 100
2, 46980, Note_on_c, 0, 47, 0
2, 46980, Note_on_c, 0, 51, 0
2, 46980, Note_on_c, 0, 54, 0
2, 46980, Note_on_c, 0, 59, 0
2, 46980, Note_on_c, 0, 51, 127
2, 46980, Note_on_c, 0, 54, 127
2, 46980, Note_on_c, 0, 59, 127
2, 46980, Note_on_c, 0, 47, 100
2, 47040, Note_on_c, 0, 47, 0
2, 47040, Note_on_c, 0, 51, 0
2, 47040, Note_on_c, 0, 54, 0
2, 47040, Note_on_c, 0, 59, 0
2, 47040, Note_on_c, 0, 49, 100
2, 47040, Note_on_c, 0, 52, 100
2, 47040, Note_on_c, 0, 56, 100
2, 47040, Note_on_c, 0, 61, 100
2, 47040, Note_on_c, 0, 64, 100
2, 47040, Note_on_c, 0, 68, 100
2, 47100, Note_on_c, 0, 68, 0
2, 47100, Note_on_c, 0, 52, 0
2, 47100, Note_on_c, 0, 56, 0
2, 47100, Note_on_c, 0, 49, 0
2, 47100, Note_on_c, 0, 64, 0
2, 47100, Note_on_c, 0, 61, 0
2, 47100, Note_on_c, 0, 49, 100
2, 47100, Note_on_c, 0, 52, 100
2, 47100, Note_on_c, 0, 56, 100
2, 47100, Note_on_c, 0, 61, 100
2, 47100, Note_on_c, 0, 64, 100
2, 47100, Note_on_c, 0, 68, 100
2, 47160, Note_on_c, 0, 68, 0
2, 47160, Note_on_c, 0, 52, 0
2, 47160, Note_on_c, 0, 56, 0
2, 47160, Note_on_c, 0, 49, 0
2, 47160, Note_on_c, 0, 64, 0
2, 47160, Note_on_c, 0, 61, 0
2, 47160, Note_on_c, 0, 56, 100
2, 47160, Note_on_c, 0, 52, 100
2, 47160, Note_on_c, 0, 49, 100
2, 47160, Note_on_c, 0, 61, 100
2, 47160, Note_on_c, 0, 64, 100
2, 47160, Note_on_c, 0, 68, 100
2, 47220, Note_on_c, 0, 68, 0
2, 47220, Note_on_c, 0, 52, 0
2, 47220, Note_on_c, 0, 49, 0
2, 47220, Note_on_c, 0, 56, 0
2, 47220, Note_on_c, 0, 64, 0
2, 47220, Note_on_c, 0, 61, 0
2, 47220, Note_on_c, 0, 49, 100
2, 47220, Note_on_c, 0, 61, 100
2, 47250, Note_on_c, 0, 47, 100
2, 47250, Note_on_c, 0, 51, 100
2, 47250, Note_on_c, 0, 54, 100
2, 47250, Note_on_c, 0, 59, 100
2, 47250, Note_on_c, 0, 63, 100
2, 47250, Note_on_c, 0, 66, 100
2, 47280, Note_on_c, 0, 66, 0
2, 47280, Note_on_c, 0, 49, 0
2, 47280, Note_on_c, 0, 54, 0
2, 47280, Note_on_c, 0, 61, 0
2, 47280, Note_on_c, 0, 47, 0
2, 47280, Note_on_c, 0, 51, 0
2, 47280, Note_on_c, 0, 59, 0
2, 47280, Note_on_c, 0, 63, 0
2, 47280, Note_on_c, 0, 63, 100
2, 47280, Note_on_c, 0, 59, 100
2, 47280, Note_on_c, 0, 54, 100
2, 47280, Note_on_c, 0, 51, 100
2, 47280, Note_on_c, 0, 47, 100
2, 47280, Note_on_c, 0, 66, 100
2, 47310, Note_on_c, 0, 66, 0
2, 47310, Note_on_c, 0, 59, 0
2, 47310, Note_on_c, 0, 54, 0
2, 47310, Note_on_c, 0, 63, 0
2, 47310, Note_on_c, 0, 47, 0
2, 47310, Note_on_c, 0, 51, 0
2, 47310, Note_on_c, 0, 59, 100
2, 47310, Note_on_c, 0, 63, 100
2, 47310, Note_on_c, 0, 54, 100
2, 47310, Note_on_c, 0, 51, 100
2, 47310, Note_on_c, 0, 47, 100
2, 47310, Note_on_c, 0, 66, 100
2, 47340, Note_on_c, 0, 66, 0
2, 47340, Note_on_c, 0, 63, 0
2, 47340, Note_on_c, 0, 54, 0
2, 47340, Note_on_c, 0, 59, 0
2, 47340, Note_on_c, 0, 47, 0
2, 47340, Note_on_c, 0, 51, 0
2, 47340, Note_on_c, 0, 47, 100
2, 47340, Note_on_c, 0, 51, 100
2, 47340, Note_on_c, 0, 54, 100
2, 47340, Note_on_c, 0, 59, 100
2, 47340, Note_on_c, 0, 63, 100
2, 47340, Note_on_c, 0, 66, 100
2, 47400, Note_on_c, 0, 66, 0
2, 47400, Note_on_c, 0, 51, 0
2, 47400, Note_on_c, 0, 54, 0
2, 47400, Note_on_c, 0, 47, 0
2, 47400, Note_on_c, 0, 63, 0
2, 47400, Note_on_c, 0, 59, 0
2, 47400, Note_on_c, 0, 47, 100
2, 47400, Note_on_c, 0, 51, 100
2, 47400, Note_on_c, 0, 54, 100
2, 47400, Note_on_c, 0, 59, 100
2, 47400, Note_on_c, 0, 63, 100
2, 47400, Note_on_c, 0, 66, 100
2, 47460, Note_on_c, 0, 66, 0
2, 47460, Note_on_c, 0, 51, 0
2, 47460, Note_on_c, 0, 54, 0
2, 47460, Note_on_c, 0, 47, 0
2, 47460, Note_on_c, 0, 63, 0
2, 47460, Note_on_c, 0, 59, 0
2, 47460, Note_on_c, 0, 47, 100
2, 47460, Note_on_c, 0, 59, 100
2, 47490, Note_on_c, 0, 59, 0
2, 47490, Note_on_c, 0, 47, 0
2, 47490, Note_on_c, 0, 49, 100
2, 47490, Note_on_c, 0, 52, 100
2, 47490, Note_on_c, 0, 57, 100
2, 47490, Note_on_c, 0, 61, 100
2, 47490, Note_on_c, 0, 64, 100
2, 47490, Note_on_c, 0, 69, 100
2, 47520, Note_on_c, 0, 69, 0
2, 47520, Note_on_c, 0, 52, 0
2, 47520, Note_on_c, 0, 57, 0
2, 47520, Note_on_c, 0, 49, 0
2, 47520, Note_on_c, 0, 64, 0
2, 47520, Note_on_c, 0, 61, 0
2, 47520, Note_on_c, 0, 49, 100
2, 47520, Note_on_c, 0, 52, 100
2, 47520, Note_on_c, 0, 57, 100
2, 47520, Note_on_c, 0, 61, 100
2, 47520, Note_on_c, 0, 64, 100
2, 47520, Note_on_c, 0, 69, 100
2, 47580, Note_on_c, 0, 69, 0
2, 47580, Note_on_c, 0, 52, 0
2, 47580, Note_on_c, 0, 57, 0
2, 47580, Note_on_c, 0, 49, 0
2, 47580, Note_on_c, 0, 64, 0
2, 47580, Note_on_c, 0, 61, 0
2, 47580, Note_on_c, 0, 49, 100
2, 47580, Note_on_c, 0, 52, 100
2, 47580, Note_on_c, 0, 57, 100
2, 47580, Note_on_c, 0, 61, 100
2, 47580, Note_on_c, 0, 64, 100
2, 47580, Note_on_c, 0, 69, 100
2, 47640, Note_on_c, 0, 69, 0
2, 47640, Note_on_c, 0, 52, 0
2, 47640, Note_on_c, 0, 57, 0
2, 47640, Note_on_c, 0, 49, 0
2, 47640, Note_on_c, 0, 64, 0
2, 47640, Note_on_c, 0, 61, 0
2, 47640, Note_on_c, 0, 49, 100
2, 47640, Note_on_c, 0, 52, 100
2, 47640, Note_on_c, 0, 57, 100
2, 47640, Note_on_c, 0, 61, 100
2, 47640, Note_on_c, 0, 64, 100
2, 47640, Note_on_c, 0, 69, 100
2, 47700, Note_on_c, 0, 69, 0
2, 47700, Note_on_c, 0, 52, 0
2, 47700, Note_on_c, 0, 57, 0
2, 47700, Note_on_c, 0, 49, 0
2, 47700, Note_on_c, 0, 64, 0
2, 47700, Note_on_c, 0, 61, 0
2, 47700, Note_on_c, 0, 57, 100
2, 47700, Note_on_c, 0, 45, 100
2, 47730, Note_on_c, 0, 45, 0
2, 47730, Note_on_c, 0, 57, 0
2, 47730, Note_on_c, 0, 45, 100
2, 47730, Note_on_c, 0, 57, 100
2, 47760, Note_on_c, 0, 57, 0
2, 47760, Note_on_c, 0, 45, 0
2, 47760, Note_on_c, 0, 49, 100
2, 47760, Note_on_c, 0, 52, 100
2, 47760, Note_on_c, 0, 57, 100
2, 47760, Note_on_c, 0, 61, 100
2, 47760, Note_on_c, 0, 64, 100
2, 47760, Note_on_c, 0, 69, 100
2, 47820, Note_on_c, 0, 69, 0
2, 47820, Note_on_c, 0, 52, 0
2, 47820, Note_on_c, 0, 57, 0
2, 47820, Note_on_c, 0, 49, 0
2, 47820, Note_on_c, 0, 64, 0
2, 47820, Note_on_c, 0, 61, 0
2, 47820, Note_on_c, 0, 49, 100
2, 47820, Note_on_c, 0, 52, 100
2, 47820, Note_on_c, 0, 57, 100
2, 47820, Note_on_c, 0, 61, 100
2, 47820, Note_on_c, 0, 64, 100
2, 47820, Note_on_c, 0, 69, 100
2, 47880, Note_on_c, 0, 69, 0
2, 47880, Note_on_c, 0, 52, 0
2, 47880, Note_on_c, 0, 57, 0
2, 47880, Note_on_c, 0, 49, 0
2, 47880, Note_on_c, 0, 64, 0
2, 47880, Note_on_c, 0, 61, 0
2, 47880, Note_on_c, 0, 49, 100
2, 47880, Note_on_c, 0, 52, 100
2, 47880, Note_on_c, 0, 57, 100
2, 47880, Note_on_c, 0, 61, 100
2, 47880, Note_on_c, 0, 64, 100
2, 47880, Note_on_c, 0, 69, 100
2, 47940, Note_on_c, 0, 69, 0
2, 47940, Note_on_c, 0, 52, 0
2, 47940, Note_on_c, 0, 57, 0
2, 47940, Note_on_c, 0, 49, 0
2, 47940, Note_on_c, 0, 64, 0
2, 47940, Note_on_c, 0, 61, 0
2, 47940, Note_on_c, 0, 52, 100
2, 47940, Note_on_c, 0, 49, 100
2, 47940, Note_on_c, 0, 56, 100
2, 47940, Note_on_c, 0, 61, 100
2, 47940, Note_on_c, 0, 64, 100
2, 47940, Note_on_c, 0, 68, 100
2, 47970, Note_on_c, 0, 68, 0
2, 47970, Note_on_c, 0, 49, 0
2, 47970, Note_on_c, 0, 56, 0
2, 47970, Note_on_c, 0, 52, 0
2, 47970, Note_on_c, 0, 64, 0
2, 47970, Note_on_c, 0, 61, 0
2, 47970, Note_on_c, 0, 49, 100
2, 47970, Note_on_c, 0, 52, 100
2, 47970, Note_on_c, 0, 56, 100
2, 47970, Note_on_c, 0, 61, 100
2, 47970, Note_on_c, 0, 64, 100
2, 47970, Note_on_c, 0, 68, 100
2, 48000, Note_on_c, 0, 68, 0
2, 48000, Note_on_c, 0, 52, 0
2, 48000, Note_on_c, 0, 56, 0
2, 48000, Note_on_c, 0, 49, 0
2, 48000, Note_on_c, 0, 64, 0
2, 48000, Note_on_c, 0, 61, 0
2, 48000, Note_on_c, 0, 49, 100
2, 48000, Note_on_c, 0, 52, 100
2, 48000, Note_on_c, 0, 56, 100
2, 48000, Note_on_c, 0, 61, 100
2, 48000, Note_on_c, 0, 64, 100
2, 48000, Note_on_c, 0, 68, 100
2, 48120, Note_on_c, 0, 68, 0
2, 48120, Note_on_c, 0, 52, 0
2, 48120, Note_on_c, 0, 56, 0
2, 48120, Note_on_c, 0, 49, 0
2, 48120, Note_on_c, 0, 64, 0
2, 48120, Note_on_c, 0, 61, 0
2, 48120, Note_on_c, 0, 68, 100
2, 48120, Note_on_c, 0, 64, 100
2, 48120, Note_on_c, 0, 61, 100
2, 48120, Note_on_c, 0, 56, 100
2, 48120, Note_on_c, 0, 52, 100
2, 48120, Note_on_c, 0, 49, 100
2, 48240, Note_on_c, 0, 49, 0
2, 48240, Note_on_c, 0, 64, 0
2, 48240, Note_on_c, 0, 61, 0
2, 48240, Note_on_c, 0, 68, 0
2, 48240, Note_on_c, 0, 52, 0
2, 48240, Note_on_c, 0, 56, 0
2, 48240, Note_on_c, 0, 61, 100
2, 48240, Note_on_c, 0, 56, 100
2, 48240, Note_on_c, 0, 52, 100
2, 48240, Note_on_c, 0, 49, 100
2, 48240, Note_on_c, 0, 59, 100
2, 48240, Note_on_c, 0, 64, 100
2, 48240, Note_on_c, 0, 68, 100
2, 48270, Note_on_c, 0, 68, 0
2, 48270, Note_on_c, 0, 59, 0
2, 48270, Note_on_c, 0, 56, 0
2, 48270, Note_on_c, 0, 52, 0
2, 48270, Note_on_c, 0, 61, 0
2, 48270, Note_on_c, 0, 64, 0
2, 48270, Note_on_c, 0, 49, 0
2, 48270, Note_on_c, 0, 61, 100
2, 48270, Note_on_c, 0, 56, 100
2, 48270, Note_on_c, 0, 52, 100
2, 48270, Note_on_c, 0, 49, 100
2, 48270, Note_on_c, 0, 59, 100
2, 48270, Note_on_c, 0, 64, 100
2, 48270, Note_on_c, 0, 68, 100
2, 48300, Note_on_c, 0, 68, 0
2, 48300, Note_on_c, 0, 59, 0
2, 48300, Note_on_c, 0, 56, 0
2, 48300, Note_on_c, 0, 52, 0
2, 48300, Note_on_c, 0, 61, 0
2, 48300, Note_on_c, 0, 64, 0
2, 48300, Note_on_c, 0, 49, 0
2, 48300, Note_on_c, 0, 61, 100
2, 48300, Note_on_c, 0, 56, 100
2, 48300, Note_on_c, 0, 52, 100
2, 48300, Note_on_c, 0, 49, 100
2, 48300, Note_on_c, 0, 59, 100
2, 48300, Note_on_c, 0, 64, 100
2, 48300, Note_on_c, 0, 68, 100
2, 48330, Note_on_c, 0, 68, 0
2, 48330, Note_on_c, 0, 59, 0
2, 48330, Note_on_c, 0, 56, 0
2, 48330, Note_on_c, 0, 52, 0
2, 48330, Note_on_c, 0, 61, 0
2, 48330, Note_on_c, 0, 64, 0
2, 48330, Note_on_c, 0, 49, 0
2, 48330, Note_on_c, 0, 61, 100
2, 48330, Note_on_c, 0, 56, 100
2, 48330, Note_on_c, 0, 52, 100
2, 48330, Note_on_c, 0, 49, 100
2, 48330, Note_on_c, 0, 59, 100
2, 48330, Note_on_c, 0, 64, 100
2, 48330, Note_on_c, 0, 68, 100
2, 48360, Note_on_c, 0, 68, 0
2, 48360, Note_on_c, 0, 59, 0
2, 48360, Note_on_c, 0, 56, 0
2, 48360, Note_on_c, 0, 52, 0
2, 48360, Note_on_c, 0, 61, 0
2, 48360, Note_on_c, 0, 64, 0
2, 48360, Note_on_c, 0, 49, 0
2, 48360, Note_on_c, 0, 61, 100
2, 48360, Note_on_c, 0, 56, 100
2, 48360, Note_on_c, 0, 52, 100
2, 48360, Note_on_c, 0, 49, 100
2, 48360, Note_on_c, 0, 59, 100
2, 48360, Note_on_c, 0, 64, 100
2, 48360, Note_on_c, 0, 68, 100
2, 48390, Note_on_c, 0, 68, 0
2, 48390, Note_on_c, 0, 59, 0
2, 48390, Note_on_c, 0, 56, 0
2, 48390, Note_on_c, 0, 52, 0
2, 48390, Note_on_c, 0, 61, 0
2, 48390, Note_on_c, 0, 64, 0
2, 48390, Note_on_c, 0, 49, 0
2, 48390, Note_on_c, 0, 61, 100
2, 48390, Note_on_c, 0, 56, 100
2, 48390, Note_on_c, 0, 52, 100
2, 48390, Note_on_c, 0, 49, 100
2, 48390, Note_on_c, 0, 59, 100
2, 48390, Note_on_c, 0, 64, 100
2, 48390, Note_on_c, 0, 68, 100
2, 48420, Note_on_c, 0, 68, 0
2, 48420, Note_on_c, 0, 59, 0
2, 48420, Note_on_c, 0, 56, 0
2, 48420, Note_on_c, 0, 52, 0
2, 48420, Note_on_c, 0, 61, 0
2, 48420, Note_on_c, 0, 64, 0
2, 48420, Note_on_c, 0, 49, 0
2, 48420, Note_on_c, 0, 61, 100
2, 48420, Note_on_c, 0, 56, 100
2, 48420, Note_on_c, 0, 52, 100
2, 48420, Note_on_c, 0, 49, 100
2, 48420, Note_on_c, 0, 59, 100
2, 48420, Note_on_c, 0, 64, 100
2, 48420, Note_on_c, 0, 68, 100
2, 48450, Note_on_c, 0, 68, 0
2, 48450, Note_on_c, 0, 59, 0
2, 48450, Note_on_c, 0, 56, 0
2, 48450, Note_on_c, 0, 52, 0
2, 48450, Note_on_c, 0, 61, 0
2, 48450, Note_on_c, 0, 64, 0
2, 48450, Note_on_c, 0, 49, 0
2, 48450, Note_on_c, 0, 61, 100
2, 48450, Note_on_c, 0, 56, 100
2, 48450, Note_on_c, 0, 52, 100
2, 48450, Note_on_c, 0, 49, 100
2, 48450, Note_on_c, 0, 59, 100
2, 48450, Note_on_c, 0, 64, 100
2, 48450, Note_on_c, 0, 68, 100
2, 48480, Note_on_c, 0, 68, 0
2, 48480, Note_on_c, 0, 59, 0
2, 48480, Note_on_c, 0, 56, 0
2, 48480, Note_on_c, 0, 52, 0
2, 48480, Note_on_c, 0, 61, 0
2, 48480, Note_on_c, 0, 64, 0
2, 48480, Note_on_c, 0, 49, 0
2, 48480, Note_on_c, 0, 49, 100
2, 48480, Note_on_c, 0, 52, 100
2, 48480, Note_on_c, 0, 56, 100
2, 48480, Note_on_c, 0, 59, 100
2, 48480, Note_on_c, 0, 61, 100
2, 48480, Note_on_c, 0, 64, 100
2, 48480, Note_on_c, 0, 68, 100
2, 48540, Note_on_c, 0, 68, 0
2, 48540, Note_on_c, 0, 61, 0
2, 48540, Note_on_c, 0, 52, 0
2, 48540, Note_on_c, 0, 56, 0
2, 48540, Note_on_c, 0, 49, 0
2, 48540, Note_on_c, 0, 64, 0
2, 48540, Note_on_c, 0, 59, 0
2, 48540, Note_on_c, 0, 49, 100
2, 48540, Note_on_c, 0, 52, 100
2, 48540, Note_on_c, 0, 57, 100
2, 48540, Note_on_c, 0, 61, 100
2, 48540, Note_on_c, 0, 64, 100
2, 48540, Note_on_c, 0, 69, 100
2, 48600, Note_on_c, 0, 69, 0
2, 48600, Note_on_c, 0, 52, 0
2, 48600, Note_on_c, 0, 57, 0
2, 48600, Note_on_c, 0, 49, 0
2, 48600, Note_on_c, 0, 64, 0
2, 48600, Note_on_c, 0, 61, 0
2, 48600, Note_on_c, 0, 49, 100
2, 48600, Note_on_c, 0, 52, 100
2, 48600, Note_on_c, 0, 57, 100
2, 48600, Note_on_c, 0, 61, 100
2, 48600, Note_on_c, 0, 64, 100
2, 48600, Note_on_c, 0, 69, 100
2, 48720, Note_on_c, 0, 69, 0
2, 48720, Note_on_c, 0, 52, 0
2, 48720, Note_on_c, 0, 57, 0
2, 48720, Note_on_c, 0, 49, 0
2, 48720, Note_on_c, 0, 64, 0
2, 48720, Note_on_c, 0, 61, 0
2, 48720, Note_on_c, 0, 61, 100
2, 48720, Note_on_c, 0, 56, 100
2, 48720, Note_on_c, 0, 59, 100
2, 48720, Note_on_c, 0, 64, 100
2, 48750, Note_on_c, 0, 64, 0
2, 48750, Note_on_c, 0, 61, 0
2, 48750, Note_on_c, 0, 56, 0
2, 48750, Note_on_c, 0, 59, 0
2, 48750, Note_on_c, 0, 61, 100
2, 48750, Note_on_c, 0, 56, 100
2, 48750, Note_on_c, 0, 59, 100
2, 48750, Note_on_c, 0, 64, 100
2, 48780, Note_on_c, 0, 64, 0
2, 48780, Note_on_c, 0, 61, 0
2, 48780, Note_on_c, 0, 56, 0
2, 48780, Note_on_c, 0, 59, 0
2, 48780, Note_on_c, 0, 61, 100
2, 48780, Note_on_c, 0, 56, 100
2, 48780, Note_on_c, 0, 59, 100
2, 48780, Note_on_c, 0, 64, 100
2, 48810, Note_on_c, 0, 64, 0
2, 48810, Note_on_c, 0, 61, 0
2, 48810, Note_on_c, 0, 56, 0
2, 48810, Note_on_c, 0, 59, 0
2, 48810, Note_on_c, 0, 61, 100
2, 48810, Note_on_c, 0, 56, 100
2, 48810, Note_on_c, 0, 59, 100
2, 48810, Note_on_c, 0, 64, 100
2, 48840, Note_on_c, 0, 64, 0
2, 48840, Note_on_c, 0, 61, 0
2, 48840, Note_on_c, 0, 56, 0
2, 48840, Note_on_c, 0, 59, 0
2, 48840, Note_on_c, 0, 61, 100
2, 48840, Note_on_c, 0, 56, 100
2, 48840, Note_on_c, 0, 59, 100
2, 48840, Note_on_c, 0, 64, 100
2, 48870, Note_on_c, 0, 64, 0
2, 48870, Note_on_c, 0, 61, 0
2, 48870, Note_on_c, 0, 56, 0
2, 48870, Note_on_c, 0, 59, 0
2, 48870, Note_on_c, 0, 61, 100
2, 48870, Note_on_c, 0, 56, 100
2, 48870, Note_on_c, 0, 59, 100
2, 48870, Note_on_c, 0, 64, 100
2, 48900, Note_on_c, 0, 64, 0
2, 48900, Note_on_c, 0, 61, 0
2, 48900, Note_on_c, 0, 56, 0
2, 48900, Note_on_c, 0, 59, 0
2, 48900, Note_on_c, 0, 61, 100
2, 48900, Note_on_c, 0, 56, 100
2, 48900, Note_on_c, 0, 59, 100
2, 48900, Note_on_c, 0, 64, 100
2, 48930, Note_on_c, 0, 64, 0
2, 48930, Note_on_c, 0, 61, 0
2, 48930, Note_on_c, 0, 56, 0
2, 48930, Note_on_c, 0, 59, 0
2, 48930, Note_on_c, 0, 61, 100
2, 48930, Note_on_c, 0, 56, 100
2, 48930, Note_on_c, 0, 59, 100
2, 48930, Note_on_c, 0, 64, 100
2, 48960, Note_on_c, 0, 64, 0
2, 48960, Note_on_c, 0, 61, 0
2, 48960, Note_on_c, 0, 56, 0
2, 48960, Note_on_c, 0, 59, 0
2, 49020, Note_on_c, 0, 49, 100
2, 49020, Note_on_c, 0, 56, 100
2, 49020, Note_on_c, 0, 61, 100
2, 49020, Note_on_c, 0, 64, 100
2, 49080, Note_on_c, 0, 64, 0
2, 49080, Note_on_c, 0, 49, 0
2, 49080, Note_on_c, 0, 56, 0
2, 49080, Note_on_c, 0, 61, 0
2, 49080, Note_on_c, 0, 49, 100
2, 49080, Note_on_c, 0, 56, 100
2, 49080, Note_on_c, 0, 61, 100
2, 49080, Note_on_c, 0, 64, 100
2, 49200, Note_on_c, 0, 64, 0
2, 49200, Note_on_c, 0, 49, 0
2, 49200, Note_on_c, 0, 56, 0
2, 49200, Note_on_c, 0, 61, 0
2, 49200, Note_on_c, 0, 49, 100
2, 49200, Note_on_c, 0, 59, 100
2, 49200, Note_on_c, 0, 64, 100
2, 49230, Note_on_c, 0, 64, 0
2, 49230, Note_on_c, 0, 59, 0
2, 49230, Note_on_c, 0, 49, 0
2, 49230, Note_on_c, 0, 49, 100
2, 49230, Note_on_c, 0, 59, 100
2, 49230, Note_on_c, 0, 64, 100
2, 49260, Note_on_c, 0, 64, 0
2, 49260, Note_on_c, 0, 59, 0
2, 49260, Note_on_c, 0, 49, 0
2, 49260, Note_on_c, 0, 49, 100
2, 49260, Note_on_c, 0, 59, 100
2, 49260, Note_on_c, 0, 64, 100
2, 49290, Note_on_c, 0, 64, 0
2, 49290, Note_on_c, 0, 59, 0
2, 49290, Note_on_c, 0, 49, 0
2, 49290, Note_on_c, 0, 49, 100
2, 49290, Note_on_c, 0, 59, 100
2, 49290, Note_on_c, 0, 64, 100
2, 49320, Note_on_c, 0, 64, 0
2, 49320, Note_on_c, 0, 59, 0
2, 49320, Note_on_c, 0, 49, 0
2, 49320, Note_on_c, 0, 49, 100
2, 49320, Note_on_c, 0, 59, 100
2, 49320, Note_on_c, 0, 64, 100
2, 49350, Note_on_c, 0, 64, 0
2, 49350, Note_on_c, 0, 59, 0
2, 49350, Note_on_c, 0, 49, 0
2, 49350, Note_on_c, 0, 49, 100
2, 49350, Note_on_c, 0, 59, 100
2, 49350, Note_on_c, 0, 64, 100
2, 49380, Note_on_c, 0, 64, 0
2, 49380, Note_on_c, 0, 59, 0
2, 49380, Note_on_c, 0, 49, 0
2, 49380, Note_on_c, 0, 49, 100
2, 49380, Note_on_c, 0, 59, 100
2, 49380, Note_on_c, 0, 64, 100
2, 49440, Note_on_c, 0, 64, 0
2, 49440, Note_on_c, 0, 59, 0
2, 49440, Note_on_c, 0, 49, 0
2, 49500, Note_on_c, 0, 49, 100
2, 49500, Note_on_c, 0, 52, 100
2, 49500, Note_on_c, 0, 57, 100
2, 49500, Note_on_c, 0, 61, 100
2, 49500, Note_on_c, 0, 64, 100
2, 49500, Note_on_c, 0, 69, 100
2, 49560, Note_on_c, 0, 69, 0
2, 49560, Note_on_c, 0, 52, 0
2, 49560, Note_on_c, 0, 57, 0
2, 49560, Note_on_c, 0, 49, 0
2, 49560, Note_on_c, 0, 64, 0
2, 49560, Note_on_c, 0, 61, 0
2, 49560, Note_on_c, 0, 49, 100
2, 49560, Note_on_c, 0, 52, 100
2, 49560, Note_on_c, 0, 57, 100
2, 49560, Note_on_c, 0, 61, 100
2, 49560, Note_on_c, 0, 64, 100
2, 49560, Note_on_c, 0, 69, 100
2, 49680, Note_on_c, 0, 69, 0
2, 49680, Note_on_c, 0, 52, 0
2, 49680, Note_on_c, 0, 57, 0
2, 49680, Note_on_c, 0, 49, 0
2, 49680, Note_on_c, 0, 64, 0
2, 49680, Note_on_c, 0, 61, 0
2, 49740, Note_on_c, 0, 49, 100
2, 49740, Note_on_c, 0, 59, 100
2, 49740, Note_on_c, 0, 64, 100
2, 49770, Note_on_c, 0, 64, 0
2, 49770, Note_on_c, 0, 59, 0
2, 49770, Note_on_c, 0, 49, 0
2, 49770, Note_on_c, 0, 49, 100
2, 49770, Note_on_c, 0, 59, 100
2, 49770, Note_on_c, 0, 64, 100
2, 49800, Note_on_c, 0, 64, 0
2, 49800, Note_on_c, 0, 59, 0
2, 49800, Note_on_c, 0, 49, 0
2, 49800, Note_on_c, 0, 49, 100
2, 49800, Note_on_c, 0, 59, 100
2, 49800, Note_on_c, 0, 64, 100
2, 49830, Note_on_c, 0, 64, 0
2, 49830, Note_on_c, 0, 59, 0
2, 49830, Note_on_c, 0, 49, 0
2, 49830, Note_on_c, 0, 49, 100
2, 49830, Note_on_c, 0, 59, 100
2, 49830, Note_on_c, 0, 64, 100
2, 49860, Note_on_c, 0, 64, 0
2, 49860, Note_on_c, 0, 59, 0
2, 49860, Note_on_c, 0, 49, 0
2, 49860, Note_on_c, 0, 49, 100
2, 49860, Note_on_c, 0, 59, 100
2, 49860, Note_on_c, 0, 64, 100
2, 49920, Note_on_c, 0, 64, 0
2, 49920, Note_on_c, 0, 59, 0
2, 49920, Note_on_c, 0, 49, 0
2, 49980, Note_on_c, 0, 56, 100
2, 49980, Note_on_c, 0, 61, 100
2, 49980, Note_on_c, 0, 64, 100
2, 49980, Note_on_c, 0, 49, 100
2, 50040, Note_on_c, 0, 49, 0
2, 50040, Note_on_c, 0, 56, 0
2, 50040, Note_on_c, 0, 61, 0
2, 50040, Note_on_c, 0, 64, 0
2, 50040, Note_on_c, 0, 49, 100
2, 50040, Note_on_c, 0, 61, 100
2, 50040, Note_on_c, 0, 64, 100
2, 50040, Note_on_c, 0, 56, 100
2, 50160, Note_on_c, 0, 56, 0
2, 50160, Note_on_c, 0, 49, 0
2, 50160, Note_on_c, 0, 61, 0
2, 50160, Note_on_c, 0, 64, 0
2, 50160, Note_on_c, 0, 59, 100
2, 50160, Note_on_c, 0, 49, 100
2, 50160, Note_on_c, 0, 64, 100
2, 50190, Note_on_c, 0, 64, 0
2, 50190, Note_on_c, 0, 49, 0
2, 50190, Note_on_c, 0, 59, 0
2, 50190, Note_on_c, 0, 49, 100
2, 50190, Note_on_c, 0, 59, 100
2, 50190, Note_on_c, 0, 64, 100
2, 50220, Note_on_c, 0, 64, 0
2, 50220, Note_on_c, 0, 59, 0
2, 50220, Note_on_c, 0, 49, 0
2, 50220, Note_on_c, 0, 49, 100
2, 50220, Note_on_c, 0, 59, 100
2, 50220, Note_on_c, 0, 64, 100
2, 50250, Note_on_c, 0, 64, 0
2, 50250, Note_on_c, 0, 59, 0
2, 50250, Note_on_c, 0, 49, 0
2, 50250, Note_on_c, 0, 49, 100
2, 50250, Note_on_c, 0, 59, 100
2, 50250, Note_on_c, 0, 64, 100
2, 50280, Note_on_c, 0, 64, 0
2, 50280, Note_on_c, 0, 59, 0
2, 50280, Note_on_c, 0, 49, 0
2, 50280, Note_on_c, 0, 49, 100
2, 50280, Note_on_c, 0, 59, 100
2, 50280, Note_on_c, 0, 64, 100
2, 50310, Note_on_c, 0, 64, 0
2, 50310, Note_on_c, 0, 59, 0
2, 50310, Note_on_c, 0, 49, 0
2, 50310, Note_on_c, 0, 49, 100
2, 50310, Note_on_c, 0, 59, 100
2, 50310, Note_on_c, 0, 64, 100
2, 50340, Note_on_c, 0, 64, 0
2, 50340, Note_on_c, 0, 59, 0
2, 50340, Note_on_c, 0, 49, 0
2, 50340, Note_on_c, 0, 49, 100
2, 50340, Note_on_c, 0, 59, 100
2, 50340, Note_on_c, 0, 64, 100
2, 50400, Note_on_c, 0, 64, 0
2, 50400, Note_on_c, 0, 59, 0
2, 50400, Note_on_c, 0, 49, 0
2, 50460, Note_on_c, 0, 49, 100
2, 50460, Note_on_c, 0, 52, 100
2, 50460, Note_on_c, 0, 57, 100
2, 50460, Note_on_c, 0, 61, 100
2, 50460, Note_on_c, 0, 64, 100
2, 50460, Note_on_c, 0, 69, 100
2, 50520, Note_on_c, 0, 69, 0
2, 50520, Note_on_c, 0, 52, 0
2, 50520, Note_on_c, 0, 57, 0
2, 50520, Note_on_c, 0, 49, 0
2, 50520, Note_on_c, 0, 64, 0
2, 50520, Note_on_c, 0, 61, 0
2, 50520, Note_on_c, 0, 49, 100
2, 50520, Note_on_c, 0, 52, 100
2, 50520, Note_on_c, 0, 57, 100
2, 50520, Note_on_c, 0, 61, 100
2, 50520, Note_on_c, 0, 64, 100
2, 50520, Note_on_c, 0, 69, 100
2, 50640, Note_on_c, 0, 69, 0
2, 50640, Note_on_c, 0, 52, 0
2, 50640, Note_on_c, 0, 57, 0
2, 50640, Note_on_c, 0, 49, 0
2, 50640, Note_on_c, 0, 64, 0
2, 50640, Note_on_c, 0, 61, 0
2, 50700, Note_on_c, 0, 59, 100
2, 50700, Note_on_c, 0, 49, 100
2, 50700, Note_on_c, 0, 64, 100
2, 50730, Note_on_c, 0, 64, 0
2, 50730, Note_on_c, 0, 49, 0
2, 50730, Note_on_c, 0, 59, 0
2, 50730, Note_on_c, 0, 49, 100
2, 50730, Note_on_c, 0, 59, 100
2, 50730, Note_on_c, 0, 64, 100
2, 50760, Note_on_c, 0, 64, 0
2, 50760, Note_on_c, 0, 59, 0
2, 50760, Note_on_c, 0, 49, 0
2, 50760, Note_on_c, 0, 49, 100
2, 50760, Note_on_c, 0, 59, 100
2, 50760, Note_on_c, 0, 64, 100
2, 50790, Note_on_c, 0, 64, 0
2, 50790, Note_on_c, 0, 59, 0
2, 50790, Note_on_c, 0, 49, 0
2, 50790, Note_on_c, 0, 49, 100
2, 50790, Note_on_c, 0, 64, 100
2, 50790, Note_on_c, 0, 59, 100
2, 50820, Note_on_c, 0, 59, 0
2, 50820, Note_on_c, 0, 64, 0
2, 50820, Note_on_c, 0, 49, 0
2, 50820, Note_on_c, 0, 49, 100
2, 50820, Note_on_c, 0, 64, 100
2, 50820, Note_on_c, 0, 59, 100
2, 50880, Note_on_c, 0, 59, 0
2, 50880, Note_on_c, 0, 64, 0
2, 50880, Note_on_c, 0, 49, 0
2, 50940, Note_on_c, 0, 56, 100
2, 50940, Note_on_c, 0, 61, 100
2, 50940, Note_on_c, 0, 64, 100
2, 50940, Note_on_c, 0, 49, 100
2, 51000, Note_on_c, 0, 49, 0
2, 51000, Note_on_c, 0, 56, 0
2, 51000, Note_on_c, 0, 61, 0
2, 51000, Note_on_c, 0, 64, 0
2, 51000, Note_on_c, 0, 49, 100
2, 51000, Note_on_c, 0, 56, 100
2, 51000, Note_on_c, 0, 61, 100
2, 51000, Note_on_c, 0, 64, 100
2, 51030, Note_on_c, 0, 64, 0
2, 51030, Note_on_c, 0, 49, 0
2, 51030, Note_on_c, 0, 56, 0
2, 51030, Note_on_c, 0, 61, 0
2, 51030, Note_on_c, 0, 56, 100
2, 51030, Note_on_c, 0, 49, 100
2, 51030, Note_on_c, 0, 61, 100
2, 51030, Note_on_c, 0, 64, 100
2, 51060, Note_on_c, 0, 64, 0
2, 51060, Note_on_c, 0, 56, 0
2, 51060, Note_on_c, 0, 49, 0
2, 51060, Note_on_c, 0, 61, 0
2, 51090, Note_on_c, 0, 49, 100
2, 51090, Note_on_c, 0, 56, 100
2, 51090, Note_on_c, 0, 61, 100
2, 51090, Note_on_c, 0, 64, 100
2, 51120, Note_on_c, 0, 64, 0
2, 51120, Note_on_c, 0, 49, 0
2, 51120, Note_on_c, 0, 56, 0
2, 51120, Note_on_c, 0, 61, 0
2, 51120, Note_on_c, 0, 49, 100
2, 51120, Note_on_c, 0, 56, 100
2, 51120, Note_on_c, 0, 61, 100
2, 51120, Note_on_c, 0, 64, 100
2, 51180, Note_on_c, 0, 64, 0
2, 51180, Note_on_c, 0, 49, 0
2, 51180, Note_on_c, 0, 56, 0
2, 51180, Note_on_c, 0, 61, 0
2, 51180, Note_on_c, 0, 49, 100
2, 51180, Note_on_c, 0, 56, 100
2, 51180, Note_on_c, 0, 59, 100
2, 51180, Note_on_c, 0, 64, 100
2, 51210, Note_on_c, 0, 64, 0
2, 51210, Note_on_c, 0, 49, 0
2, 51210, Note_on_c, 0, 56, 0
2, 51210, Note_on_c, 0, 59, 0
2, 51210, Note_on_c, 0, 49, 100
2, 51210, Note_on_c, 0, 56, 100
2, 51210, Note_on_c, 0, 59, 100
2, 51210, Note_on_c, 0, 64, 100
2, 51240, Note_on_c, 0, 64, 0
2, 51240, Note_on_c, 0, 49, 0
2, 51240, Note_on_c, 0, 56, 0
2, 51240, Note_on_c, 0, 59, 0
2, 51240, Note_on_c, 0, 49, 100
2, 51240, Note_on_c, 0, 56, 100
2, 51240, Note_on_c, 0, 59, 100
2, 51240, Note_on_c, 0, 64, 100
2, 51270, Note_on_c, 0, 64, 0
2, 51270, Note_on_c, 0, 49, 0
2, 51270, Note_on_c, 0, 56, 0
2, 51270, Note_on_c, 0, 59, 0
2, 51270, Note_on_c, 0, 59, 100
2, 51270, Note_on_c, 0, 56, 100
2, 51270, Note_on_c, 0, 49, 100
2, 51270, Note_on_c, 0, 64, 100
2, 51300, Note_on_c, 0, 64, 0
2, 51300, Note_on_c, 0, 59, 0
2, 51300, Note_on_c, 0, 56, 0
2, 51300, Note_on_c, 0, 49, 0
2, 51300, Note_on_c, 0, 49, 100
2, 51300, Note_on_c, 0, 56, 100
2, 51300, Note_on_c, 0, 59, 100
2, 51300, Note_on_c, 0, 64, 100
2, 51360, Note_on_c, 0, 64, 0
2, 51360, Note_on_c, 0, 49, 0
2, 51360, Note_on_c, 0, 56, 0
2, 51360, Note_on_c, 0, 59, 0
2, 51360, Note_on_c, 0, 49, 100
2, 51360, Note_on_c, 0, 52, 100
2, 51360, Note_on_c, 0, 57, 100
2, 51360, Note_on_c, 0, 61, 100
2, 51360, Note_on_c, 0, 64, 100
2, 51360, Note_on_c, 0, 69, 100
2, 51420, Note_on_c, 0, 69, 0
2, 51420, Note_on_c, 0, 52, 0
2, 51420, Note_on_c, 0, 57, 0
2, 51420, Note_on_c, 0, 49, 0
2, 51420, Note_on_c, 0, 64, 0
2, 51420, Note_on_c, 0, 61, 0
2, 51420, Note_on_c, 0, 49, 100
2, 51420, Note_on_c, 0, 52, 100
2, 51420, Note_on_c, 0, 57, 100
2, 51420, Note_on_c, 0, 61, 100
2, 51420, Note_on_c, 0, 64, 100
2, 51420, Note_on_c, 0, 69, 100
2, 51480, Note_on_c, 0, 69, 0
2, 51480, Note_on_c, 0, 52, 0
2, 51480, Note_on_c, 0, 57, 0
2, 51480, Note_on_c, 0, 49, 0
2, 51480, Note_on_c, 0, 64, 0
2, 51480, Note_on_c, 0, 61, 0
2, 51480, Note_on_c, 0, 49, 100
2, 51480, Note_on_c, 0, 52, 100
2, 51480, Note_on_c, 0, 57, 100
2, 51480, Note_on_c, 0, 61, 100
2, 51480, Note_on_c, 0, 64, 100
2, 51480, Note_on_c, 0, 69, 100
2, 51510, Note_on_c, 0, 69, 0
2, 51510, Note_on_c, 0, 52, 0
2, 51510, Note_on_c, 0, 57, 0
2, 51510, Note_on_c, 0, 49, 0
2, 51510, Note_on_c, 0, 64, 0
2, 51510, Note_on_c, 0, 61, 0
2, 51510, Note_on_c, 0, 49, 100
2, 51510, Note_on_c, 0, 52, 100
2, 51510, Note_on_c, 0, 61, 100
2, 51510, Note_on_c, 0, 57, 100
2, 51510, Note_on_c, 0, 64, 100
2, 51510, Note_on_c, 0, 69, 100
2, 51540, Note_on_c, 0, 69, 0
2, 51540, Note_on_c, 0, 52, 0
2, 51540, Note_on_c, 0, 61, 0
2, 51540, Note_on_c, 0, 49, 0
2, 51540, Note_on_c, 0, 64, 0
2, 51540, Note_on_c, 0, 57, 0
2, 51540, Note_on_c, 0, 49, 100
2, 51540, Note_on_c, 0, 52, 100
2, 51540, Note_on_c, 0, 57, 100
2, 51540, Note_on_c, 0, 61, 100
2, 51540, Note_on_c, 0, 64, 100
2, 51540, Note_on_c, 0, 69, 100
2, 51600, Note_on_c, 0, 69, 0
2, 51600, Note_on_c, 0, 52, 0
2, 51600, Note_on_c, 0, 57, 0
2, 51600, Note_on_c, 0, 49, 0
2, 51600, Note_on_c, 0, 64, 0
2, 51600, Note_on_c, 0, 61, 0
2, 51660, Note_on_c, 0, 49, 100
2, 51660, Note_on_c, 0, 56, 100
2, 51660, Note_on_c, 0, 59, 100
2, 51660, Note_on_c, 0, 64, 100
2, 51690, Note_on_c, 0, 64, 0
2, 51690, Note_on_c, 0, 49, 0
2, 51690, Note_on_c, 0, 56, 0
2, 51690, Note_on_c, 0, 59, 0
2, 51690, Note_on_c, 0, 49, 100
2, 51690, Note_on_c, 0, 56, 100
2, 51690, Note_on_c, 0, 59, 100
2, 51690, Note_on_c, 0, 64, 100
2, 51720, Note_on_c, 0, 64, 0
2, 51720, Note_on_c, 0, 49, 0
2, 51720, Note_on_c, 0, 56, 0
2, 51720, Note_on_c, 0, 59, 0
2, 51720, Note_on_c, 0, 49, 100
2, 51720, Note_on_c, 0, 56, 100
2, 51720, Note_on_c, 0, 59, 100
2, 51720, Note_on_c, 0, 64, 100
2, 51750, Note_on_c, 0, 64, 0
2, 51750, Note_on_c, 0, 49, 0
2, 51750, Note_on_c, 0, 56, 0
2, 51750, Note_on_c, 0, 59, 0
2, 51750, Note_on_c, 0, 49, 100
2, 51750, Note_on_c, 0, 56, 100
2, 51750, Note_on_c, 0, 59, 100
2, 51750, Note_on_c, 0, 64, 100
2, 51780, Note_on_c, 0, 64, 0
2, 51780, Note_on_c, 0, 49, 0
2, 51780, Note_on_c, 0, 56, 0
2, 51780, Note_on_c, 0, 59, 0
2, 51780, Note_on_c, 0, 49, 100
2, 51780, Note_on_c, 0, 56, 100
2, 51780, Note_on_c, 0, 59, 100
2, 51780, Note_on_c, 0, 64, 100
2, 51810, Note_on_c, 0, 64, 0
2, 51810, Note_on_c, 0, 49, 0
2, 51810, Note_on_c, 0, 56, 0
2, 51810, Note_on_c, 0, 59, 0
2, 51810, Note_on_c, 0, 49, 100
2, 51810, Note_on_c, 0, 56, 100
2, 51810, Note_on_c, 0, 59, 100
2, 51810, Note_on_c, 0, 64, 100
2, 51840, Note_on_c, 0, 64, 0
2, 51840, Note_on_c, 0, 49, 0
2, 51840, Note_on_c, 0, 56, 0
2, 51840, Note_on_c, 0, 59, 0
2, 51900, Note_on_c, 0, 56, 100
2, 51900, Note_on_c, 0, 61, 100
2, 51900, Note_on_c, 0, 64, 100
2, 51900, Note_on_c, 0, 49, 100
2, 51960, Note_on_c, 0, 49, 0
2, 51960, Note_on_c, 0, 56, 0
2, 51960, Note_on_c, 0, 61, 0
2, 51960, Note_on_c, 0, 64, 0
2, 51960, Note_on_c, 0, 49, 100
2, 51960, Note_on_c, 0, 56, 100
2, 51960, Note_on_c, 0, 61, 100
2, 51960, Note_on_c, 0, 64, 100
2, 51990, Note_on_c, 0, 64, 0
2, 51990, Note_on_c, 0, 49, 0
2, 51990, Note_on_c, 0, 56, 0
2, 51990, Note_on_c, 0, 61, 0
2, 51990, Note_on_c, 0, 56, 100
2, 51990, Note_on_c, 0, 49, 100
2, 51990, Note_on_c, 0, 61, 100
2, 51990, Note_on_c, 0, 64, 100
2, 52020, Note_on_c, 0, 64, 0
2, 52020, Note_on_c, 0, 56, 0
2, 52020, Note_on_c, 0, 49, 0
2, 52020, Note_on_c, 0, 61, 0
2, 52050, Note_on_c, 0, 49, 100
2, 52050, Note_on_c, 0, 56, 100
2, 52050, Note_on_c, 0, 61, 100
2, 52050, Note_on_c, 0, 64, 100
2, 52080, Note_on_c, 0, 64, 0
2, 52080, Note_on_c, 0, 49, 0
2, 52080, Note_on_c, 0, 56, 0
2, 52080, Note_on_c, 0, 61, 0
2, 52080, Note_on_c, 0, 49, 100
2, 52080, Note_on_c, 0, 56, 100
2, 52080, Note_on_c, 0, 61, 100
2, 52080, Note_on_c, 0, 64, 100
2, 52140, Note_on_c, 0, 64, 0
2, 52140, Note_on_c, 0, 49, 0
2, 52140, Note_on_c, 0, 56, 0
2, 52140, Note_on_c, 0, 61, 0
2, 52140, Note_on_c, 0, 49, 100
2, 52140, Note_on_c, 0, 56, 100
2, 52140, Note_on_c, 0, 59, 100
2, 52140, Note_on_c, 0, 64, 100
2, 52170, Note_on_c, 0, 64, 0
2, 52170, Note_on_c, 0, 49, 0
2, 52170, Note_on_c, 0, 56, 0
2, 52170, Note_on_c, 0, 59, 0
2, 52170, Note_on_c, 0, 49, 100
2, 52170, Note_on_c, 0, 56, 100
2, 52170, Note_on_c, 0, 59, 100
2, 52170, Note_on_c, 0, 64, 100
2, 52200, Note_on_c, 0, 64, 0
2, 52200, Note_on_c, 0, 49, 0
2, 52200, Note_on_c, 0, 56, 0
2, 52200, Note_on_c, 0, 59, 0
2, 52200, Note_on_c, 0, 49, 100
2, 52200, Note_on_c, 0, 56, 100
2, 52200, Note_on_c, 0, 59, 100
2, 52200, Note_on_c, 0, 64, 100
2, 52230, Note_on_c, 0, 64, 0
2, 52230, Note_on_c, 0, 49, 0
2, 52230, Note_on_c, 0, 56, 0
2, 52230, Note_on_c, 0, 59, 0
2, 52230, Note_on_c, 0, 59, 100
2, 52230, Note_on_c, 0, 56, 100
2, 52230, Note_on_c, 0, 49, 100
2, 52230, Note_on_c, 0, 64, 100
2, 52260, Note_on_c, 0, 64, 0
2, 52260, Note_on_c, 0, 59, 0
2, 52260, Note_on_c, 0, 56, 0
2, 52260, Note_on_c, 0, 49, 0
2, 52260, Note_on_c, 0, 49, 100
2, 52260, Note_on_c, 0, 56, 100
2, 52260, Note_on_c, 0, 59, 100
2, 52260, Note_on_c, 0, 64, 100
2, 52320, Note_on_c, 0, 64, 0
2, 52320, Note_on_c, 0, 49, 0
2, 52320, Note_on_c, 0, 56, 0
2, 52320, Note_on_c, 0, 59, 0
2, 52320, Note_on_c, 0, 49, 100
2, 52320, Note_on_c, 0, 52, 100
2, 52320, Note_on_c, 0, 57, 100
2, 52320, Note_on_c, 0, 61, 100
2, 52320, Note_on_c, 0, 64, 100
2, 52320, Note_on_c, 0, 69, 100
2, 52380, Note_on_c, 0, 69, 0
2, 52380, Note_on_c, 0, 52, 0
2, 52380, Note_on_c, 0, 57, 0
2, 52380, Note_on_c, 0, 49, 0
2, 52380, Note_on_c, 0, 64, 0
2, 52380, Note_on_c, 0, 61, 0
2, 52380, Note_on_c, 0, 49, 100
2, 52380, Note_on_c, 0, 52, 100
2, 52380, Note_on_c, 0, 57, 100
2, 52380, Note_on_c, 0, 61, 100
2, 52380, Note_on_c, 0, 64, 100
2, 52380, Note_on_c, 0, 69, 100
2, 52440, Note_on_c, 0, 69, 0
2, 52440, Note_on_c, 0, 52, 0
2, 52440, Note_on_c, 0, 57, 0
2, 52440, Note_on_c, 0, 49, 0
2, 52440, Note_on_c, 0, 64, 0
2, 52440, Note_on_c, 0, 61, 0
2, 52440, Note_on_c, 0, 49, 100
2, 52440, Note_on_c, 0, 52, 100
2, 52440, Note_on_c, 0, 57, 100
2, 52440, Note_on_c, 0, 61, 100
2, 52440, Note_on_c, 0, 64, 100
2, 52440, Note_on_c, 0, 69, 100
2, 52470, Note_on_c, 0, 69, 0
2, 52470, Note_on_c, 0, 52, 0
2, 52470, Note_on_c, 0, 57, 0
2, 52470, Note_on_c, 0, 49, 0
2, 52470, Note_on_c, 0, 64, 0
2, 52470, Note_on_c, 0, 61, 0
2, 52470, Note_on_c, 0, 49, 100
2, 52470, Note_on_c, 0, 52, 100
2, 52470, Note_on_c, 0, 61, 100
2, 52470, Note_on_c, 0, 57, 100
2, 52470, Note_on_c, 0, 64, 100
2, 52470, Note_on_c, 0, 69, 100
2, 52500, Note_on_c, 0, 69, 0
2, 52500, Note_on_c, 0, 52, 0
2, 52500, Note_on_c, 0, 61, 0
2, 52500, Note_on_c, 0, 49, 0
2, 52500, Note_on_c, 0, 64, 0
2, 52500, Note_on_c, 0, 57, 0
2, 52500, Note_on_c, 0, 49, 100
2, 52500, Note_on_c, 0, 52, 100
2, 52500, Note_on_c, 0, 57, 100
2, 52500, Note_on_c, 0, 61, 100
2, 52500, Note_on_c, 0, 64, 100
2, 52500, Note_on_c, 0, 69, 100
2, 52560, Note_on_c, 0, 69, 0
2, 52560, Note_on_c, 0, 52, 0
2, 52560, Note_on_c, 0, 57, 0
2, 52560, Note_on_c, 0, 49, 0
2, 52560, Note_on_c, 0, 64, 0
2, 52560, Note_on_c, 0, 61, 0
2, 52620, Note_on_c, 0, 49, 100
2, 52620, Note_on_c, 0, 56, 100
2, 52620, Note_on_c, 0, 59, 100
2, 52620, Note_on_c, 0, 64, 100
2, 52650, Note_on_c, 0, 64, 0
2, 52650, Note_on_c, 0, 49, 0
2, 52650, Note_on_c, 0, 56, 0
2, 52650, Note_on_c, 0, 59, 0
2, 52650, Note_on_c, 0, 49, 100
2, 52650, Note_on_c, 0, 56, 100
2, 52650, Note_on_c, 0, 59, 100
2, 52650, Note_on_c, 0, 64, 100
2, 52680, Note_on_c, 0, 64, 0
2, 52680, Note_on_c, 0, 49, 0
2, 52680, Note_on_c, 0, 56, 0
2, 52680, Note_on_c, 0, 59, 0
2, 52680, Note_on_c, 0, 49, 100
2, 52680, Note_on_c, 0, 56, 100
2, 52680, Note_on_c, 0, 59, 100
2, 52680, Note_on_c, 0, 64, 100
2, 52710, Note_on_c, 0, 64, 0
2, 52710, Note_on_c, 0, 49, 0
2, 52710, Note_on_c, 0, 56, 0
2, 52710, Note_on_c, 0, 59, 0
2, 52710, Note_on_c, 0, 49, 100
2, 52710, Note_on_c, 0, 56, 100
2, 52710, Note_on_c, 0, 59, 100
2, 52710, Note_on_c, 0, 64, 100
2, 52740, Note_on_c, 0, 64, 0
2, 52740, Note_on_c, 0, 49, 0
2, 52740, Note_on_c, 0, 56, 0
2, 52740, Note_on_c, 0, 59, 0
2, 52740, Note_on_c, 0, 49, 100
2, 52740, Note_on_c, 0, 56, 100
2, 52740, Note_on_c, 0, 59, 100
2, 52740, Note_on_c, 0, 64, 100
2, 52770, Note_on_c, 0, 64, 0
2, 52770, Note_on_c, 0, 49, 0
2, 52770, Note_on_c, 0, 56, 0
2, 52770, Note_on_c, 0, 59, 0
2, 52770, Note_on_c, 0, 49, 100
2, 52770, Note_on_c, 0, 56, 100
2, 52770, Note_on_c, 0, 59, 100
2, 52770, Note_on_c, 0, 64, 100
2, 52800, Note_on_c, 0, 64, 0
2, 52800, Note_on_c, 0, 49, 0
2, 52800, Note_on_c, 0, 56, 0
2, 52800, Note_on_c, 0, 59, 0
2, 52800, Control_c, 0, 7, 85
2, 52829, Control_c, 0, 7, 84
2, 52859, Control_c, 0, 7, 83
2, 52860, Note_on_c, 0, 56, 100
2, 52860, Note_on_c, 0, 61, 100
2, 52860, Note_on_c, 0, 64, 100
2, 52860, Note_on_c, 0, 49, 100
2, 52888, Control_c, 0, 7, 82
2, 52918, Control_c, 0, 7, 81
2, 52920, Note_on_c, 0, 49, 0
2, 52920, Note_on_c, 0, 56, 0
2, 52920, Note_on_c, 0, 61, 0
2, 52920, Note_on_c, 0, 64, 0
2, 52920, Note_on_c, 0, 49, 100
2, 52920, Note_on_c, 0, 56, 100
2, 52920, Note_on_c, 0, 61, 100
2, 52920, Note_on_c, 0, 64, 100
2, 52948, Control_c, 0, 7, 80
2, 52950, Note_on_c, 0, 64, 0
2, 52950, Note_on_c, 0, 49, 0
2, 52950, Note_on_c, 0, 56, 0
2, 52950, Note_on_c, 0, 61, 0
2, 52950, Note_on_c, 0, 56, 100
2, 52950, Note_on_c, 0, 49, 100
2, 52950, Note_on_c, 0, 61, 100
2, 52950, Note_on_c, 0, 64, 100
2, 52977, Control_c, 0, 7, 79
2, 52980, Note_on_c, 0, 64, 0
2, 52980, Note_on_c, 0, 56, 0
2, 52980, Note_on_c, 0, 49, 0
2, 52980, Note_on_c, 0, 61, 0
2, 53007, Control_c, 0, 7, 78
2, 53010, Note_on_c, 0, 49, 100
2, 53010, Note_on_c, 0, 56, 100
2, 53010, Note_on_c, 0, 61, 100
2, 53010, Note_on_c, 0, 64, 100
2, 53037, Control_c, 0, 7, 77
2, 53040, Note_on_c, 0, 64, 0
2, 53040, Note_on_c, 0, 49, 0
2, 53040, Note_on_c, 0, 56, 0
2, 53040, Note_on_c, 0, 61, 0
2, 53040, Note_on_c, 0, 49, 100
2, 53040, Note_on_c, 0, 56, 100
2, 53040, Note_on_c, 0, 61, 100
2, 53040, Note_on_c, 0, 64, 100
2, 53066, Control_c, 0, 7, 76
2, 53096, Control_c, 0, 7, 75
2, 53100, Note_on_c, 0, 64, 0
2, 53100, Note_on_c, 0, 49, 0
2, 53100, Note_on_c, 0, 56, 0
2, 53100, Note_on_c, 0, 61, 0
2, 53100, Note_on_c, 0, 49, 100
2, 53100, Note_on_c, 0, 56, 100
2, 53100, Note_on_c, 0, 59, 100
2, 53100, Note_on_c, 0, 64, 100
2, 53126, Control_c, 0, 7, 74
2, 53130, Note_on_c, 0, 64, 0
2, 53130, Note_on_c, 0, 49, 0
2, 53130, Note_on_c, 0, 56, 0
2, 53130, Note_on_c, 0, 59, 0
2, 53130, Note_on_c, 0, 49, 100
2, 53130, Note_on_c, 0, 56, 100
2, 53130, Note_on_c, 0, 59, 100
2, 53130, Note_on_c, 0, 64, 100
2, 53155, Control_c, 0, 7, 73
2, 53160, Note_on_c, 0, 64, 0
2, 53160, Note_on_c, 0, 49, 0
2, 53160, Note_on_c, 0, 56, 0
2, 53160, Note_on_c, 0, 59, 0
2, 53160, Note_on_c, 0, 49, 100
2, 53160, Note_on_c, 0, 56, 100
2, 53160, Note_on_c, 0, 59, 100
2, 53160, Note_on_c, 0, 64, 100
2, 53185, Control_c, 0, 7, 72
2, 53190, Note_on_c, 0, 64, 0
2, 53190, Note_on_c, 0, 49, 0
2, 53190, Note_on_c, 0, 56, 0
2, 53190, Note_on_c, 0, 59, 0
2, 53190, Note_on_c, 0, 59, 100
2, 53190, Note_on_c, 0, 56, 100
2, 53190, Note_on_c, 0, 49, 100
2, 53190, Note_on_c, 0, 64, 100
2, 53215, Control_c, 0, 7, 71
2, 53220, Note_on_c, 0, 64, 0
2, 53220, Note_on_c, 0, 59, 0
2, 53220, Note_on_c, 0, 56, 0
2, 53220, Note_on_c, 0, 49, 0
2, 53220, Note_on_c, 0, 49, 100
2, 53220, Note_on_c, 0, 56, 100
2, 53220, Note_on_c, 0, 59, 100
2, 53220, Note_on_c, 0, 64, 100
2, 53244, Control_c, 0, 7, 70
2, 53274, Control_c, 0, 7, 69
2, 53280, Note_on_c, 0, 64, 0
2, 53280, Note_on_c, 0, 49, 0
2, 53280, Note_on_c, 0, 56, 0
2, 53280, Note_on_c, 0, 59, 0
2, 53280, Note_on_c, 0, 49, 100
2, 53280, Note_on_c, 0, 52, 100
2, 53280, Note_on_c, 0, 57, 100
2, 53280, Note_on_c, 0, 61, 100
2, 53280, Note_on_c, 0, 64, 100
2, 53280, Note_on_c, 0, 69, 100
2, 53304, Control_c, 0, 7, 68
2, 53333, Control_c, 0, 7, 67
2, 53340, Note_on_c, 0, 69, 0
2, 53340, Note_on_c, 0, 52, 0
2, 53340, Note_on_c, 0, 57, 0
2, 53340, Note_on_c, 0, 49, 0
2, 53340, Note_on_c, 0, 64, 0
2, 53340, Note_on_c, 0, 61, 0
2, 53340, Note_on_c, 0, 49, 100
2, 53340, Note_on_c, 0, 52, 100
2, 53340, Note_on_c, 0, 57, 100
2, 53340, Note_on_c, 0, 61, 100
2, 53340, Note_on_c, 0, 64, 100
2, 53340, Note_on_c, 0, 69, 100
2, 53363, Control_c, 0, 7, 66
2, 53392, Control_c, 0, 7, 65
2, 53400, Note_on_c, 0, 69, 0
2, 53400, Note_on_c, 0, 52, 0
2, 53400, Note_on_c, 0, 57, 0
2, 53400, Note_on_c, 0, 49, 0
2, 53400, Note_on_c, 0, 64, 0
2, 53400, Note_on_c, 0, 61, 0
2, 53400, Note_on_c, 0, 49, 100
2, 53400, Note_on_c, 0, 52, 100
2, 53400, Note_on_c, 0, 57, 100
2, 53400, Note_on_c, 0, 61, 100
2, 53400, Note_on_c, 0, 64, 100
2, 53400, Note_on_c, 0, 69, 100
2, 53422, Control_c, 0, 7, 64
2, 53430, Note_on_c, 0, 69, 0
2, 53430, Note_on_c, 0, 52, 0
2, 53430, Note_on_c, 0, 57, 0
2, 53430, Note_on_c, 0, 49, 0
2, 53430, Note_on_c, 0, 64, 0
2, 53430, Note_on_c, 0, 61, 0
2, 53430, Note_on_c, 0, 49, 100
2, 53430, Note_on_c, 0, 52, 100
2, 53430, Note_on_c, 0, 61, 100
2, 53430, Note_on_c, 0, 57, 100
2, 53430, Note_on_c, 0, 64, 100
2, 53430, Note_on_c, 0, 69, 100
2, 53452, Control_c, 0, 7, 63
2, 53460, Note_on_c, 0, 69, 0
2, 53460, Note_on_c, 0, 52, 0
2, 53460, Note_on_c, 0, 61, 0
2, 53460, Note_on_c, 0, 49, 0
2, 53460, Note_on_c, 0, 64, 0
2, 53460, Note_on_c, 0, 57, 0
2, 53460, Note_on_c, 0, 49, 100
2, 53460, Note_on_c, 0, 52, 100
2, 53460, Note_on_c, 0, 57, 100
2, 53460, Note_on_c, 0, 61, 100
2, 53460, Note_on_c, 0, 64, 100
2, 53460, Note_on_c, 0, 69, 100
2, 53481, Control_c, 0, 7, 62
2, 53511, Control_c, 0, 7, 61
2, 53520, Note_on_c, 0, 69, 0
2, 53520, Note_on_c, 0, 52, 0
2, 53520, Note_on_c, 0, 57, 0
2, 53520, Note_on_c, 0, 49, 0
2, 53520, Note_on_c, 0, 64, 0
2, 53520, Note_on_c, 0, 61, 0
2, 53541, Control_c, 0, 7, 60
2, 53570, Control_c, 0, 7, 59
2, 53580, Note_on_c, 0, 49, 100
2, 53580, Note_on_c, 0, 56, 100
2, 53580, Note_on_c, 0, 59, 100
2, 53580, Note_on_c, 0, 64, 100
2, 53600, Control_c, 0, 7, 58
2, 53610, Note_on_c, 0, 64, 0
2, 53610, Note_on_c, 0, 49, 0
2, 53610, Note_on_c, 0, 56, 0
2, 53610, Note_on_c, 0, 59, 0
2, 53610, Note_on_c, 0, 49, 100
2, 53610, Note_on_c, 0, 56, 100
2, 53610, Note_on_c, 0, 59, 100
2, 53610, Note_on_c, 0, 64, 100
2, 53630, Control_c, 0, 7, 57
2, 53640, Note_on_c, 0, 64, 0
2, 53640, Note_on_c, 0, 49, 0
2, 53640, Note_on_c, 0, 56, 0
2, 53640, Note_on_c, 0, 59, 0
2, 53640, Note_on_c, 0, 49, 100
2, 53640, Note_on_c, 0, 56, 100
2, 53640, Note_on_c, 0, 59, 100
2, 53640, Note_on_c, 0, 64, 100
2, 53659, Control_c, 0, 7, 56
2, 53670, Note_on_c, 0, 64, 0
2, 53670, Note_on_c, 0, 49, 0
2, 53670, Note_on_c, 0, 56, 0
2, 53670, Note_on_c, 0, 59, 0
2, 53670, Note_on_c, 0, 49, 100
2, 53670, Note_on_c, 0, 56, 100
2, 53670, Note_on_c, 0, 59, 100
2, 53670, Note_on_c, 0, 64, 100
2, 53689, Control_c, 0, 7, 55
2, 53700, Note_on_c, 0, 64, 0
2, 53700, Note_on_c, 0, 49, 0
2, 53700, Note_on_c, 0, 56, 0
2, 53700, Note_on_c, 0, 59, 0
2, 53700, Note_on_c, 0, 49, 100
2, 53700, Note_on_c, 0, 56, 100
2, 53700, Note_on_c, 0, 59, 100
2, 53700, Note_on_c, 0, 64, 100
2, 53719, Control_c, 0, 7, 54
2, 53730, Note_on_c, 0, 64, 0
2, 53730, Note_on_c, 0, 49, 0
2, 53730, Note_on_c, 0, 56, 0
2, 53730, Note_on_c, 0, 59, 0
2, 53730, Note_on_c, 0, 49, 100
2, 53730, Note_on_c, 0, 56, 100
2, 53730, Note_on_c, 0, 59, 100
2, 53730, Note_on_c, 0, 64, 100
2, 53748, Control_c, 0, 7, 53
2, 53760, Note_on_c, 0, 64, 0
2, 53760, Note_on_c, 0, 49, 0
2, 53760, Note_on_c, 0, 56, 0
2, 53760, Note_on_c, 0, 59, 0
2, 53778, Control_c, 0, 7, 52
2, 53808, Control_c, 0, 7, 51
2, 53820, Note_on_c, 0, 56, 100
2, 53820, Note_on_c, 0, 61, 100
2, 53820, Note_on_c, 0, 64, 100
2, 53820, Note_on_c, 0, 49, 100
2, 53837, Control_c, 0, 7, 50
2, 53867, Control_c, 0, 7, 49
2, 53880, Note_on_c, 0, 49, 0
2, 53880, Note_on_c, 0, 56, 0
2, 53880, Note_on_c, 0, 61, 0
2, 53880, Note_on_c, 0, 64, 0
2, 53880, Note_on_c, 0, 49, 100
2, 53880, Note_on_c, 0, 56, 100
2, 53880, Note_on_c, 0, 61, 100
2, 53880, Note_on_c, 0, 64, 100
2, 53896, Control_c, 0, 7, 48
2, 53910, Note_on_c, 0, 64, 0
2, 53910, Note_on_c, 0, 49, 0
2, 53910, Note_on_c, 0, 56, 0
2, 53910, Note_on_c, 0, 61, 0
2, 53910, Note_on_c, 0, 56, 100
2, 53910, Note_on_c, 0, 49, 100
2, 53910, Note_on_c, 0, 61, 100
2, 53910, Note_on_c, 0, 64, 100
2, 53926, Control_c, 0, 7, 47
2, 53940, Note_on_c, 0, 64, 0
2, 53940, Note_on_c, 0, 56, 0
2, 53940, Note_on_c, 0, 49, 0
2, 53940, Note_on_c, 0, 61, 0
2, 53956, Control_c, 0, 7, 46
2, 53970, Note_on_c, 0, 49, 100
2, 53970, Note_on_c, 0, 56, 100
2, 53970, Note_on_c, 0, 61, 100
2, 53970, Note_on_c, 0, 64, 100
2, 53985, Control_c, 0, 7, 45
2, 54000, Note_on_c, 0, 64, 0
2, 54000, Note_on_c, 0, 49, 0
2, 54000, Note_on_c, 0, 56, 0
2, 54000, Note_on_c, 0, 61, 0
2, 54000, Note_on_c, 0, 49, 100
2, 54000, Note_on_c, 0, 56, 100
2, 54000, Note_on_c, 0, 61, 100
2, 54000, Note_on_c, 0, 64, 100
2, 54015, Control_c, 0, 7, 44
2, 54045, Control_c, 0, 7, 43
2, 54060, Note_on_c, 0, 64, 0
2, 54060, Note_on_c, 0, 49, 0
2, 54060, Note_on_c, 0, 56, 0
2, 54060, Note_on_c, 0, 61, 0
2, 54060, Note_on_c, 0, 49, 100
2, 54060, Note_on_c, 0, 56, 100
2, 54060, Note_on_c, 0, 59, 100
2, 54060, Note_on_c, 0, 64, 100
2, 54074, Control_c, 0, 7, 42
2, 54090, Note_on_c, 0, 64, 0
2, 54090, Note_on_c, 0, 49, 0
2, 54090, Note_on_c, 0, 56, 0
2, 54090, Note_on_c, 0, 59, 0
2, 54090, Note_on_c, 0, 49, 100
2, 54090, Note_on_c, 0, 56, 100
2, 54090, Note_on_c, 0, 59, 100
2, 54090, Note_on_c, 0, 64, 100
2, 54104, Control_c, 0, 7, 41
2, 54120, Note_on_c, 0, 64, 0
2, 54120, Note_on_c, 0, 49, 0
2, 54120, Note_on_c, 0, 56, 0
2, 54120, Note_on_c, 0, 59, 0
2, 54120, Note_on_c, 0, 49, 100
2, 54120, Note_on_c, 0, 56, 100
2, 54120, Note_on_c, 0, 59, 100
2, 54120, Note_on_c, 0, 64, 100
2, 54134, Control_c, 0, 7, 40
2, 54150, Note_on_c, 0, 64, 0
2, 54150, Note_on_c, 0, 49, 0
2, 54150, Note_on_c, 0, 56, 0
2, 54150, Note_on_c, 0, 59, 0
2, 54150, Note_on_c, 0, 59, 100
2, 54150, Note_on_c, 0, 56, 100
2, 54150, Note_on_c, 0, 49, 100
2, 54150, Note_on_c, 0, 64, 100
2, 54163, Control_c, 0, 7, 39
2, 54180, Note_on_c, 0, 64, 0
2, 54180, Note_on_c, 0, 59, 0
2, 54180, Note_on_c, 0, 56, 0
2, 54180, Note_on_c, 0, 49, 0
2, 54180, Note_on_c, 0, 49, 100
2, 54180, Note_on_c, 0, 56, 100
2, 54180, Note_on_c, 0, 59, 100
2, 54180, Note_on_c, 0, 64, 100
2, 54193, Control_c, 0, 7, 38
2, 54223, Control_c, 0, 7, 37
2, 54240, Note_on_c, 0, 64, 0
2, 54240, Note_on_c, 0, 49, 0
2, 54240, Note_on_c, 0, 56, 0
2, 54240, Note_on_c, 0, 59, 0
2, 54240, Note_on_c, 0, 49, 100
2, 54240, Note_on_c, 0, 52, 100
2, 54240, Note_on_c, 0, 57, 100
2, 54240, Note_on_c, 0, 61, 100
2, 54240, Note_on_c, 0, 64, 100
2, 54240, Note_on_c, 0, 69, 100
2, 54252, Control_c, 0, 7, 36
2, 54282, Control_c, 0, 7, 35
2, 54300, Note_on_c, 0, 69, 0
2, 54300, Note_on_c, 0, 52, 0
2, 54300, Note_on_c, 0, 57, 0
2, 54300, Note_on_c, 0, 49, 0
2, 54300, Note_on_c, 0, 64, 0
2, 54300, Note_on_c, 0, 61, 0
2, 54300, Note_on_c, 0, 49, 100
2, 54300, Note_on_c, 0, 52, 100
2, 54300, Note_on_c, 0, 57, 100
2, 54300, Note_on_c, 0, 61, 100
2, 54300, Note_on_c, 0, 64, 100
2, 54300, Note_on_c, 0, 69, 100
2, 54312, Control_c, 0, 7, 34
2, 54341, Control_c, 0, 7, 33
2, 54360, Note_on_c, 0, 69, 0
2, 54360, Note_on_c, 0, 52, 0
2, 54360, Note_on_c, 0, 57, 0
2, 54360, Note_on_c, 0, 49, 0
2, 54360, Note_on_c, 0, 64, 0
2, 54360, Note_on_c, 0, 61, 0
2, 54360, Note_on_c, 0, 49, 100
2, 54360, Note_on_c, 0, 52, 100
2, 54360, Note_on_c, 0, 57, 100
2, 54360, Note_on_c, 0, 61, 100
2, 54360, Note_on_c, 0, 64, 100
2, 54360, Note_on_c, 0, 69, 100
2, 54371, Control_c, 0, 7, 32
2, 54390, Note_on_c, 0, 69, 0
2, 54390, Note_on_c, 0, 52, 0
2, 54390, Note_on_c, 0, 57, 0
2, 54390, Note_on_c, 0, 49, 0
2, 54390, Note_on_c, 0, 64, 0
2, 54390, Note_on_c, 0, 61, 0
2, 54390, Note_on_c, 0, 49, 100
2, 54390, Note_on_c, 0, 52, 100
2, 54390, Note_on_c, 0, 61, 100
2, 54390, Note_on_c, 0, 57, 100
2, 54390, Note_on_c, 0, 64, 100
2, 54390, Note_on_c, 0, 69, 100
2, 54400, Control_c, 0, 7, 31
2, 54420, Note_on_c, 0, 69, 0
2, 54420, Note_on_c, 0, 52, 0
2, 54420, Note_on_c, 0, 61, 0
2, 54420, Note_on_c, 0, 49, 0
2, 54420, Note_on_c, 0, 64, 0
2, 54420, Note_on_c, 0, 57, 0
2, 54420, Note_on_c, 0, 49, 100
2, 54420, Note_on_c, 0, 52, 100
2, 54420, Note_on_c, 0, 57, 100
2, 54420, Note_on_c, 0, 61, 100
2, 54420, Note_on_c, 0, 64, 100
2, 54420, Note_on_c, 0, 69, 100
2, 54430, Control_c, 0, 7, 30
2, 54460, Control_c, 0, 7, 29
2, 54480, Note_on_c, 0, 69, 0
2, 54480, Note_on_c, 0, 52, 0
2, 54480, Note_on_c, 0, 57, 0
2, 54480, Note_on_c, 0, 49, 0
2, 54480, Note_on_c, 0, 64, 0
2, 54480, Note_on_c, 0, 61, 0
2, 54489, Control_c, 0, 7, 28
2, 54519, Control_c, 0, 7, 27
2, 54540, Note_on_c, 0, 49, 100
2, 54540, Note_on_c, 0, 56, 100
2, 54540, Note_on_c, 0, 59, 100
2, 54540, Note_on_c, 0, 64, 100
2, 54549, Control_c, 0, 7, 26
2, 54570, Note_on_c, 0, 64, 0
2, 54570, Note_on_c, 0, 49, 0
2, 54570, Note_on_c, 0, 56, 0
2, 54570, Note_on_c, 0, 59, 0
2, 54570, Note_on_c, 0, 49, 100
2, 54570, Note_on_c, 0, 56, 100
2, 54570, Note_on_c, 0, 59, 100
2, 54570, Note_on_c, 0, 64, 100
2, 54578, Control_c, 0, 7, 25
2, 54600, Note_on_c, 0, 64, 0
2, 54600, Note_on_c, 0, 49, 0
2, 54600, Note_on_c, 0, 56, 0
2, 54600, Note_on_c, 0, 59, 0
2, 54600, Note_on_c, 0, 49, 100
2, 54600, Note_on_c, 0, 56, 100
2, 54600, Note_on_c, 0, 59, 100
2, 54600, Note_on_c, 0, 64, 100
2, 54608, Control_c, 0, 7, 24
2, 54630, Note_on_c, 0, 64, 0
2, 54630, Note_on_c, 0, 49, 0
2, 54630, Note_on_c, 0, 56, 0
2, 54630, Note_on_c, 0, 59, 0
2, 54630, Note_on_c, 0, 49, 100
2, 54630, Note_on_c, 0, 56, 100
2, 54630, Note_on_c, 0, 59, 100
2, 54630, Note_on_c, 0, 64, 100
2, 54638, Control_c, 0, 7, 23
2, 54660, Note_on_c, 0, 64, 0
2, 54660, Note_on_c, 0, 49, 0
2, 54660, Note_on_c, 0, 56, 0
2, 54660, Note_on_c, 0, 59, 0
2, 54660, Note_on_c, 0, 49, 100
2, 54660, Note_on_c, 0, 56, 100
2, 54660, Note_on_c, 0, 59, 100
2, 54660, Note_on_c, 0, 64, 100
2, 54667, Control_c, 0, 7, 22
2, 54690, Note_on_c, 0, 64, 0
2, 54690, Note_on_c, 0, 49, 0
2, 54690, Note_on_c, 0, 56, 0
2, 54690, Note_on_c, 0, 59, 0
2, 54690, Note_on_c, 0, 49, 100
2, 54690, Note_on_c, 0, 56, 100
2, 54690, Note_on_c, 0, 59, 100
2, 54690, Note_on_c, 0, 64, 100
2, 54697, Control_c, 0, 7, 21
2, 54720, Note_on_c, 0, 64, 0
2, 54720, Note_on_c, 0, 49, 0
2, 54720, Note_on_c, 0, 56, 0
2, 54720, Note_on_c, 0, 59, 0
2, 54727, Control_c, 0, 7, 20
2, 54756, Control_c, 0, 7, 19
2, 54780, Note_on_c, 0, 56, 100
2, 54780, Note_on_c, 0, 61, 100
2, 54780, Note_on_c, 0, 64, 100
2, 54780, Note_on_c, 0, 49, 100
2, 54786, Control_c, 0, 7, 18
2, 54816, Control_c, 0, 7, 17
2, 54840, Note_on_c, 0, 49, 0
2, 54840, Note_on_c, 0, 56, 0
2, 54840, Note_on_c, 0, 61, 0
2, 54840, Note_on_c, 0, 64, 0
2, 54840, Note_on_c, 0, 49, 100
2, 54840, Note_on_c, 0, 56, 100
2, 54840, Note_on_c, 0, 61, 100
2, 54840, Note_on_c, 0, 64, 100
2, 54845, Control_c, 0, 7, 16
2, 54870, Note_on_c, 0, 64, 0
2, 54870, Note_on_c, 0, 49, 0
2, 54870, Note_on_c, 0, 56, 0
2, 54870, Note_on_c, 0, 61, 0
2, 54870, Note_on_c, 0, 56, 100
2, 54870, Note_on_c, 0, 49, 100
2, 54870, Note_on_c, 0, 61, 100
2, 54870, Note_on_c, 0, 64, 100
2, 54875, Control_c, 0, 7, 15
2, 54900, Note_on_c, 0, 64, 0
2, 54900, Note_on_c, 0, 56, 0
2, 54900, Note_on_c, 0, 49, 0
2, 54900, Note_on_c, 0, 61, 0
2, 54904, Control_c, 0, 7, 14
2, 54930, Note_on_c, 0, 49, 100
2, 54930, Note_on_c, 0, 56, 100
2, 54930, Note_on_c, 0, 61, 100
2, 54930, Note_on_c, 0, 64, 100
2, 54934, Control_c, 0, 7, 13
2, 54960, Note_on_c, 0, 64, 0
2, 54960, Note_on_c, 0, 49, 0
2, 54960, Note_on_c, 0, 56, 0
2, 54960, Note_on_c, 0, 61, 0
2, 54960, Note_on_c, 0, 49, 100
2, 54960, Note_on_c, 0, 56, 100
2, 54960, Note_on_c, 0, 61, 100
2, 54960, Note_on_c, 0, 64, 100
2, 54964, Control_c, 0, 7, 12
2, 54993, Control_c, 0, 7, 11
2, 55020, Note_on_c, 0, 64, 0
2, 55020, Note_on_c, 0, 49, 0
2, 55020, Note_on_c, 0, 56, 0
2, 55020, Note_on_c, 0, 61, 0
2, 55020, Note_on_c, 0, 49, 100
2, 55020, Note_on_c, 0, 56, 100
2, 55020, Note_on_c, 0, 59, 100
2, 55020, Note_on_c, 0, 64, 100
2, 55023, Control_c, 0, 7, 10
2, 55050, Note_on_c, 0, 64, 0
2, 55050, Note_on_c, 0, 49, 0
2, 55050, Note_on_c, 0, 56, 0
2, 55050, Note_on_c, 0, 59, 0
2, 55050, Note_on_c, 0, 49, 100
2, 55050, Note_on_c, 0, 56, 100
2, 55050, Note_on_c, 0, 59, 100
2, 55050, Note_on_c, 0, 64, 100
2, 55053, Control_c, 0, 7, 9
2, 55080, Note_on_c, 0, 64, 0
2, 55080, Note_on_c, 0, 49, 0
2, 55080, Note_on_c, 0, 56, 0
2, 55080, Note_on_c, 0, 59, 0
2, 55080, Note_on_c, 0, 49, 100
2, 55080, Note_on_c, 0, 56, 100
2, 55080, Note_on_c, 0, 59, 100
2, 55080, Note_on_c, 0, 64, 100
2, 55082, Control_c, 0, 7, 8
2, 55110, Note_on_c, 0, 64, 0
2, 55110, Note_on_c, 0, 49, 0
2, 55110, Note_on_c, 0, 56, 0
2, 55110, Note_on_c, 0, 59, 0
2, 55110, Note_on_c, 0, 59, 100
2, 55110, Note_on_c, 0, 56, 100
2, 55110, Note_on_c, 0, 49, 100
2, 55110, Note_on_c, 0, 64, 100
2, 55112, Control_c, 0, 7, 7
2, 55140, Note_on_c, 0, 64, 0
2, 55140, Note_on_c, 0, 59, 0
2, 55140, Note_on_c, 0, 56, 0
2, 55140, Note_on_c, 0, 49, 0
2, 55140, Note_on_c, 0, 49, 100
2, 55140, Note_on_c, 0, 56, 100
2, 55140, Note_on_c, 0, 59, 100
2, 55140, Note_on_c, 0, 64, 100
2, 55142, Control_c, 0, 7, 6
2, 55171, Control_c, 0, 7, 5
2, 55200, Note_on_c, 0, 64, 0
2, 55200, Note_on_c, 0, 49, 0
2, 55200, Note_on_c, 0, 56, 0
2, 55200, Note_on_c, 0, 59, 0
2, 55200, Note_on_c, 0, 45, 100
2, 55200, Note_on_c, 0, 52, 100
2, 55200, Note_on_c, 0, 57, 100
2, 55200, Note_on_c, 0, 61, 100
2, 55200, Note_on_c, 0, 64, 100
2, 55200, Note_on_c, 0, 69, 100
2, 55201, Control_c, 0, 7, 4
2, 55231, Control_c, 0, 7, 3
2, 55260, Control_c, 0, 7, 2
2, 55290, Control_c, 0, 7, 1
2, 55320, Control_c, 0, 7, 0
2, 55680, Note_on_c, 0, 69, 0
2, 55680, Note_on_c, 0, 52, 0
2, 55680, Note_on_c, 0, 57, 0
2, 55680, Note_on_c, 0, 45, 0
2, 55680, Note_on_c, 0, 64, 0
2, 55680, Note_on_c, 0, 61, 0
2, 55680, End_track
3, 0, Start_track
3, 0, MIDI_port, 0
3, 0, Title_t, "Noel Redding"
3, 0, Program_c, 1, 34
3, 0, Control_c, 1, 7, 85
3, 0, Control_c, 1, 10, 120
3, 780, Note_on_c, 1, 47, 100
3, 840, Note_on_c, 1, 47, 0
3, 840, Note_on_c, 1, 47, 100
3, 900, Note_on_c, 1, 47, 0
3, 900, Note_on_c, 1, 49, 100
3, 960, Note_on_c, 1, 49, 0
3, 960, Note_on_c, 1, 49, 120
3, 1020, Note_on_c, 1, 49, 0
3, 1020, Note_on_c, 1, 49, 120
3, 1080, Note_on_c, 1, 49, 0
3, 1080, Note_on_c, 1, 49, 120
3, 1140, Note_on_c, 1, 49, 0
3, 1260, Note_on_c, 1, 47, 100
3, 1320, Note_on_c, 1, 47, 0
3, 1320, Note_on_c, 1, 47, 100
3, 1380, Note_on_c, 1, 47, 0
3, 1380, Note_on_c, 1, 45, 100
3, 1440, Note_on_c, 1, 45, 0
3, 1440, Note_on_c, 1, 45, 120
3, 1500, Note_on_c, 1, 45, 0
3, 1500, Note_on_c, 1, 40, 100
3, 1560, Note_on_c, 1, 40, 0
3, 1560, Note_on_c, 1, 45, 120
3, 1620, Note_on_c, 1, 45, 0
3, 1740, Note_on_c, 1, 47, 100
3, 1800, Note_on_c, 1, 47, 0
3, 1800, Note_on_c, 1, 47, 100
3, 1860, Note_on_c, 1, 47, 0
3, 1860, Note_on_c, 1, 49, 100
3, 1920, Note_on_c, 1, 49, 0
3, 1920, Note_on_c, 1, 49, 120
3, 1980, Note_on_c, 1, 49, 0
3, 1980, Note_on_c, 1, 49, 120
3, 2040, Note_on_c, 1, 49, 0
3, 2040, Note_on_c, 1, 49, 120
3, 2130, Note_on_c, 1, 49, 0
3, 2220, Note_on_c, 1, 47, 100
3, 2280, Note_on_c, 1, 47, 0
3, 2280, Note_on_c, 1, 47, 100
3, 2340, Note_on_c, 1, 47, 0
3, 2340, Note_on_c, 1, 45, 100
3, 2400, Note_on_c, 1, 45, 0
3, 2400, Note_on_c, 1, 45, 120
3, 2460, Note_on_c, 1, 45, 0
3, 2460, Note_on_c, 1, 28, 120
3, 2520, Note_on_c, 1, 28, 0
3, 2520, Note_on_c, 1, 30, 100
3, 2580, Note_on_c, 1, 30, 0
3, 2580, Note_on_c, 1, 31, 100
3, 2640, Note_on_c, 1, 31, 0
3, 2640, Note_on_c, 1, 31, 100
3, 2700, Note_on_c, 1, 31, 0
3, 2700, Note_on_c, 1, 32, 100
3, 2760, Note_on_c, 1, 32, 0
3, 2760, Note_on_c, 1, 35, 100
3, 2820, Note_on_c, 1, 35, 0
3, 2820, Note_on_c, 1, 36, 100
3, 2880, Note_on_c, 1, 36, 0
3, 2880, Note_on_c, 1, 37, 100
3, 3000, Note_on_c, 1, 37, 0
3, 3000, Note_on_c, 1, 37, 100
3, 3090, Note_on_c, 1, 37, 0
3, 3090, Note_on_c, 1, 42, 100
3, 3120, Note_on_c, 1, 42, 0
3, 3120, Note_on_c, 1, 47, 100
3, 3180, Note_on_c, 1, 47, 0
3, 3180, Note_on_c, 1, 35, 100
3, 3240, Note_on_c, 1, 35, 0
3, 3270, Note_on_c, 1, 35, 80
3, 3300, Note_on_c, 1, 35, 0
3, 3300, Note_on_c, 1, 35, 100
3, 3360, Note_on_c, 1, 35, 0
3, 3360, Note_on_c, 1, 33, 100
3, 3420, Note_on_c, 1, 33, 0
3, 3420, Note_on_c, 1, 28, 100
3, 3480, Note_on_c, 1, 28, 0
3, 3480, Note_on_c, 1, 30, 100
3, 3570, Note_on_c, 1, 30, 0
3, 3570, Note_on_c, 1, 42, 100
3, 3600, Note_on_c, 1, 42, 0
3, 3600, Note_on_c, 1, 43, 100
3, 3660, Note_on_c, 1, 43, 0
3, 3660, Note_on_c, 1, 44, 100
3, 3720, Note_on_c, 1, 44, 0
3, 3720, Note_on_c, 1, 35, 100
3, 3780, Note_on_c, 1, 35, 0
3, 3780, Note_on_c, 1, 36, 100
3, 3840, Note_on_c, 1, 36, 0
3, 3840, Note_on_c, 1, 37, 100
3, 3900, Note_on_c, 1, 37, 0
3, 3900, Note_on_c, 1, 37, 100
3, 3960, Note_on_c, 1, 37, 0
3, 3960, Note_on_c, 1, 49, 100
3, 4050, Note_on_c, 1, 49, 0
3, 4050, Note_on_c, 1, 33, 100
3, 4080, Note_on_c, 1, 33, 0
3, 4080, Note_on_c, 1, 35, 100
3, 4140, Note_on_c, 1, 35, 0
3, 4140, Note_on_c, 1, 42, 100
3, 4200, Note_on_c, 1, 42, 0
3, 4200, Note_on_c, 1, 47, 100
3, 4230, Note_on_c, 1, 47, 0
3, 4230, Note_on_c, 1, 47, 100
3, 4260, Note_on_c, 1, 47, 0
3, 4260, Note_on_c, 1, 42, 100
3, 4320, Note_on_c, 1, 42, 0
3, 4320, Note_on_c, 1, 33, 100
3, 4380, Note_on_c, 1, 33, 0
3, 4380, Note_on_c, 1, 28, 100
3, 4440, Note_on_c, 1, 28, 0
3, 4440, Note_on_c, 1, 30, 100
3, 4560, Note_on_c, 1, 30, 0
3, 4560, Note_on_c, 1, 31, 100
3, 4620, Note_on_c, 1, 31, 0
3, 4620, Note_on_c, 1, 32, 100
3, 4680, Note_on_c, 1, 32, 0
3, 4680, Note_on_c, 1, 35, 100
3, 4740, Note_on_c, 1, 35, 0
3, 4740, Note_on_c, 1, 36, 100
3, 4800, Note_on_c, 1, 36, 0
3, 4800, Note_on_c, 1, 37, 100
3, 5010, Note_on_c, 1, 37, 0
3, 5010, Note_on_c, 1, 33, 100
3, 5040, Note_on_c, 1, 33, 0
3, 5040, Note_on_c, 1, 35, 100
3, 5100, Note_on_c, 1, 35, 0
3, 5100, Note_on_c, 1, 35, 100
3, 5190, Note_on_c, 1, 35, 0
3, 5190, Note_on_c, 1, 33, 100
3, 5220, Note_on_c, 1, 33, 0
3, 5220, Note_on_c, 1, 35, 100
3, 5280, Note_on_c, 1, 35, 0
3, 5280, Note_on_c, 1, 33, 100
3, 5520, Note_on_c, 1, 33, 0
3, 5580, Note_on_c, 1, 42, 100
3, 5580, Note_on_c, 1, 35, 100
3, 5610, Note_on_c, 1, 35, 0
3, 5610, Note_on_c, 1, 42, 0
3, 5610, Note_on_c, 1, 42, 100
3, 5610, Note_on_c, 1, 35, 100
3, 5640, Note_on_c, 1, 35, 0
3, 5640, Note_on_c, 1, 42, 0
3, 5640, Note_on_c, 1, 42, 100
3, 5640, Note_on_c, 1, 35, 100
3, 5670, Note_on_c, 1, 35, 0
3, 5670, Note_on_c, 1, 42, 0
3, 5670, Note_on_c, 1, 42, 100
3, 5670, Note_on_c, 1, 35, 100
3, 5700, Note_on_c, 1, 35, 0
3, 5700, Note_on_c, 1, 42, 0
3, 5700, Note_on_c, 1, 35, 100
3, 5730, Note_on_c, 1, 35, 0
3, 5730, Note_on_c, 1, 36, 100
3, 5760, Note_on_c, 1, 36, 0
3, 5760, Note_on_c, 1, 37, 100
3, 5970, Note_on_c, 1, 37, 0
3, 5970, Note_on_c, 1, 33, 100
3, 6000, Note_on_c, 1, 33, 0
3, 6000, Note_on_c, 1, 35, 100
3, 6060, Note_on_c, 1, 35, 0
3, 6060, Note_on_c, 1, 35, 100
3, 6150, Note_on_c, 1, 35, 0
3, 6150, Note_on_c, 1, 28, 100
3, 6180, Note_on_c, 1, 28, 0
3, 6182, Note_on_c, 1, 33, 100
3, 6240, Note_on_c, 1, 45, 100
3, 6240, Note_on_c, 1, 40, 100
3, 6450, Note_on_c, 1, 40, 0
3, 6450, Note_on_c, 1, 45, 0
3, 6450, Note_on_c, 1, 40, 100
3, 6452, Note_on_c, 1, 33, 0
3, 6480, Note_on_c, 1, 40, 0
3, 6480, Note_on_c, 1, 45, 100
3, 6540, Note_on_c, 1, 45, 0
3, 6540, Note_on_c, 1, 35, 100
3, 6600, Note_on_c, 1, 35, 0
3, 6600, Note_on_c, 1, 35, 100
3, 6630, Note_on_c, 1, 35, 0
3, 6630, Note_on_c, 1, 35, 100
3, 6660, Note_on_c, 1, 35, 0
3, 6660, Note_on_c, 1, 36, 100
3, 6690, Note_on_c, 1, 36, 0
3, 6690, Note_on_c, 1, 36, 100
3, 6720, Note_on_c, 1, 36, 0
3, 6720, Note_on_c, 1, 37, 100
3, 6930, Note_on_c, 1, 37, 0
3, 6930, Note_on_c, 1, 33, 100
3, 6960, Note_on_c, 1, 33, 0
3, 6960, Note_on_c, 1, 35, 100
3, 7020, Note_on_c, 1, 35, 0
3, 7020, Note_on_c, 1, 35, 100
3, 7110, Note_on_c, 1, 35, 0
3, 7110, Note_on_c, 1, 30, 100
3, 7140, Note_on_c, 1, 30, 0
3, 7140, Note_on_c, 1, 33, 100
3, 7200, Note_on_c, 1, 45, 100
3, 7200, Note_on_c, 1, 40, 100
3, 7320, Note_on_c, 1, 40, 0
3, 7320, Note_on_c, 1, 45, 0
3, 7320, Note_on_c, 1, 33, 0
3, 7320, Note_on_c, 1, 45, 100
3, 7350, Note_on_c, 1, 45, 0
3, 7350, Note_on_c, 1, 49, 100
3, 7380, Note_on_c, 1, 49, 0
3, 7380, Note_on_c, 1, 45, 100
3, 7410, Note_on_c, 1, 45, 0
3, 7410, Note_on_c, 1, 45, 100
3, 7440, Note_on_c, 1, 45, 0
3, 7440, Pitch_bend_c, 1, 0
3, 7440, Note_on_c, 1, 47, 100
3, 7441, Pitch_bend_c, 1, 512
3, 7443, Pitch_bend_c, 1, 1152
3, 7445, Pitch_bend_c, 1, 1664
3, 7446, Pitch_bend_c, 1, 2304
3, 7448, Pitch_bend_c, 1, 2816
3, 7450, Pitch_bend_c, 1, 3456
3, 7451, Pitch_bend_c, 1, 4096
3, 7453, Pitch_bend_c, 1, 4608
3, 7455, Pitch_bend_c, 1, 5248
3, 7456, Pitch_bend_c, 1, 5760
3, 7458, Pitch_bend_c, 1, 6400
3, 7460, Pitch_bend_c, 1, 6912
3, 7461, Pitch_bend_c, 1, 7552
3, 7463, Pitch_bend_c, 1, 8192
3, 7500, Note_on_c, 1, 47, 0
3, 7500, Note_on_c, 1, 35, 100
3, 7560, Note_on_c, 1, 35, 0
3, 7560, Note_on_c, 1, 35, 100
3, 7590, Note_on_c, 1, 35, 0
3, 7590, Note_on_c, 1, 35, 100
3, 7620, Note_on_c, 1, 35, 0
3, 7620, Note_on_c, 1, 36, 100
3, 7650, Note_on_c, 1, 36, 0
3, 7650, Note_on_c, 1, 36, 100
3, 7680, Note_on_c, 1, 36, 0
3, 7680, Note_on_c, 1, 37, 100
3, 7890, Note_on_c, 1, 37, 0
3, 7920, Note_on_c, 1, 35, 100
3, 7980, Note_on_c, 1, 35, 0
3, 7980, Note_on_c, 1, 35, 100
3, 8070, Note_on_c, 1, 35, 0
3, 8070, Note_on_c, 1, 28, 100
3, 8100, Note_on_c, 1, 28, 0
3, 8100, Note_on_c, 1, 33, 100
3, 8130, Note_on_c, 1, 33, 0
3, 8130, Note_on_c, 1, 28, 100
3, 8160, Note_on_c, 1, 28, 0
3, 8160, Note_on_c, 1, 42, 100
3, 8161, Pitch_bend_c, 1, 4096
3, 8163, Pitch_bend_c, 1, 4352
3, 8165, Pitch_bend_c, 1, 4608
3, 8166, Pitch_bend_c, 1, 4864
3, 8168, Pitch_bend_c, 1, 5248
3, 8170, Pitch_bend_c, 1, 5504
3, 8171, Pitch_bend_c, 1, 5760
3, 8173, Pitch_bend_c, 1, 6144
3, 8175, Pitch_bend_c, 1, 6400
3, 8176, Pitch_bend_c, 1, 6656
3, 8178, Pitch_bend_c, 1, 6912
3, 8180, Pitch_bend_c, 1, 7296
3, 8181, Pitch_bend_c, 1, 7552
3, 8183, Pitch_bend_c, 1, 7808
3, 8185, Pitch_bend_c, 1, 8192
3, 8400, Note_on_c, 1, 42, 0
3, 8400, Note_on_c, 1, 40, 100
3, 8460, Note_on_c, 1, 40, 0
3, 8460, Note_on_c, 1, 40, 100
3, 8520, Note_on_c, 1, 40, 0
3, 8520, Note_on_c, 1, 40, 100
3, 8550, Note_on_c, 1, 40, 0
3, 8580, Note_on_c, 1, 35, 100
3, 8640, Note_on_c, 1, 35, 0
3, 8640, Note_on_c, 1, 37, 100
3, 8850, Note_on_c, 1, 37, 0
3, 8850, Note_on_c, 1, 28, 100
3, 8880, Note_on_c, 1, 28, 0
3, 8880, Note_on_c, 1, 35, 100
3, 8938, Note_on_c, 1, 35, 100
3, 8940, Note_on_c, 1, 35, 0
3, 9058, Note_on_c, 1, 35, 0
3, 9060, Note_on_c, 1, 33, 100
3, 9120, Note_on_c, 1, 33, 0
3, 9120, Note_on_c, 1, 33, 100
3, 9124, Note_on_c, 1, 40, 100
3, 9240, Note_on_c, 1, 33, 0
3, 9240, Note_on_c, 1, 33, 100
3, 9240, Note_on_c, 1, 40, 100
3, 9244, Note_on_c, 1, 40, 0
3, 9360, Note_on_c, 1, 40, 0
3, 9360, Note_on_c, 1, 33, 0
3, 9360, Note_on_c, 1, 52, 100
3, 9420, Note_on_c, 1, 52, 0
3, 9420, Note_on_c, 1, 49, 100
3, 9450, Note_on_c, 1, 49, 0
3, 9455, Note_on_c, 1, 47, 100
3, 9510, Note_on_c, 1, 42, 100
3, 9515, Note_on_c, 1, 47, 0
3, 9540, Note_on_c, 1, 42, 0
3, 9540, Note_on_c, 1, 43, 100
3, 9570, Note_on_c, 1, 43, 0
3, 9570, Note_on_c, 1, 44, 100
3, 9600, Note_on_c, 1, 44, 0
3, 9600, Note_on_c, 1, 37, 100
3, 9810, Note_on_c, 1, 37, 0
3, 9810, Note_on_c, 1, 28, 100
3, 9840, Note_on_c, 1, 28, 0
3, 9840, Note_on_c, 1, 35, 100
3, 9900, Note_on_c, 1, 35, 0
3, 9900, Note_on_c, 1, 35, 100
3, 9990, Note_on_c, 1, 35, 0
3, 9990, Note_on_c, 1, 42, 100
3, 10020, Note_on_c, 1, 42, 0
3, 10020, Note_on_c, 1, 33, 100
3, 10080, Note_on_c, 1, 33, 0
3, 10080, Note_on_c, 1, 33, 100
3, 10200, Note_on_c, 1, 33, 0
3, 10200, Note_on_c, 1, 40, 100
3, 10230, Note_on_c, 1, 40, 0
3, 10230, Note_on_c, 1, 45, 100
3, 10260, Note_on_c, 1, 45, 0
3, 10260, Note_on_c, 1, 35, 100
3, 10290, Note_on_c, 1, 35, 0
3, 10290, Note_on_c, 1, 37, 100
3, 10320, Note_on_c, 1, 37, 0
3, 10320, Note_on_c, 1, 40, 100
3, 10380, Note_on_c, 1, 40, 0
3, 10380, Note_on_c, 1, 35, 100
3, 10440, Note_on_c, 1, 35, 0
3, 10440, Note_on_c, 1, 35, 100
3, 10470, Note_on_c, 1, 35, 0
3, 10470, Note_on_c, 1, 28, 100
3, 10500, Note_on_c, 1, 28, 0
3, 10500, Note_on_c, 1, 35, 100
3, 10530, Note_on_c, 1, 35, 0
3, 10530, Note_on_c, 1, 36, 100
3, 10560, Note_on_c, 1, 36, 0
3, 10560, Note_on_c, 1, 37, 100
3, 10770, Note_on_c, 1, 37, 0
3, 10770, Note_on_c, 1, 28, 100
3, 10800, Note_on_c, 1, 28, 0
3, 10800, Note_on_c, 1, 35, 100
3, 10860, Note_on_c, 1, 35, 0
3, 10860, Note_on_c, 1, 35, 100
3, 10920, Note_on_c, 1, 35, 0
3, 10950, Note_on_c, 1, 33, 100
3, 10950, Note_on_c, 1, 40, 100
3, 10980, Note_on_c, 1, 40, 0
3, 10980, Note_on_c, 1, 33, 0
3, 10980, Note_on_c, 1, 33, 100
3, 10980, Note_on_c, 1, 40, 100
3, 11040, Note_on_c, 1, 40, 0
3, 11040, Note_on_c, 1, 33, 0
3, 11040, Note_on_c, 1, 33, 100
3, 11040, Note_on_c, 1, 40, 100
3, 11160, Note_on_c, 1, 40, 0
3, 11160, Note_on_c, 1, 33, 0
3, 11160, Note_on_c, 1, 40, 120
3, 11160, Note_on_c, 1, 33, 120
3, 11205, Note_on_c, 1, 33, 0
3, 11205, Note_on_c, 1, 40, 0
3, 11280, Note_on_c, 1, 52, 120
3, 11340, Note_on_c, 1, 52, 0
3, 11340, Note_on_c, 1, 49, 100
3, 11370, Note_on_c, 1, 49, 0
3, 11370, Note_on_c, 1, 47, 100
3, 11400, Note_on_c, 1, 47, 0
3, 11430, Note_on_c, 1, 42, 100
3, 11460, Note_on_c, 1, 42, 0
3, 11460, Note_on_c, 1, 43, 100
3, 11490, Note_on_c, 1, 43, 0
3, 11490, Note_on_c, 1, 44, 100
3, 11520, Note_on_c, 1, 44, 0
3, 11520, Note_on_c, 1, 37, 100
3, 11730, Note_on_c, 1, 37, 0
3, 11730, Note_on_c, 1, 33, 100
3, 11760, Note_on_c, 1, 33, 0
3, 11760, Note_on_c, 1, 35, 100
3, 11820, Note_on_c, 1, 35, 0
3, 11820, Note_on_c, 1, 35, 100
3, 11880, Note_on_c, 1, 35, 0
3, 11880, Note_on_c, 1, 42, 100
3, 11880, Note_on_c, 1, 47, 100
3, 11910, Note_on_c, 1, 47, 0
3, 11910, Note_on_c, 1, 42, 0
3, 11910, Note_on_c, 1, 42, 100
3, 11910, Note_on_c, 1, 47, 100
3, 11940, Note_on_c, 1, 47, 0
3, 11940, Note_on_c, 1, 42, 0
3, 11940, Note_on_c, 1, 40, 100
3, 11940, Note_on_c, 1, 45, 100
3, 11970, Note_on_c, 1, 45, 0
3, 11970, Note_on_c, 1, 40, 0
3, 11970, Note_on_c, 1, 40, 100
3, 11970, Note_on_c, 1, 45, 100
3, 12000, Note_on_c, 1, 45, 0
3, 12000, Note_on_c, 1, 40, 0
3, 12000, Pitch_bend_c, 1, 4224
3, 12000, Note_on_c, 1, 49, 100
3, 12001, Pitch_bend_c, 1, 4352
3, 12003, Pitch_bend_c, 1, 4608
3, 12005, Pitch_bend_c, 1, 4736
3, 12006, Pitch_bend_c, 1, 4992
3, 12008, Pitch_bend_c, 1, 5248
3, 12010, Pitch_bend_c, 1, 5376
3, 12011, Pitch_bend_c, 1, 5632
3, 12013, Pitch_bend_c, 1, 5888
3, 12015, Pitch_bend_c, 1, 6016
3, 12016, Pitch_bend_c, 1, 6272
3, 12018, Pitch_bend_c, 1, 6400
3, 12020, Pitch_bend_c, 1, 6656
3, 12021, Pitch_bend_c, 1, 6912
3, 12023, Pitch_bend_c, 1, 7040
3, 12025, Pitch_bend_c, 1, 7296
3, 12026, Pitch_bend_c, 1, 7552
3, 12028, Pitch_bend_c, 1, 7680
3, 12030, Note_on_c, 1, 49, 0
3, 12030, Pitch_bend_c, 1, 7936
3, 12030, Note_on_c, 1, 49, 100
3, 12031, Pitch_bend_c, 1, 8192
3, 12060, Note_on_c, 1, 49, 0
3, 12060, Note_on_c, 1, 49, 100
3, 12090, Note_on_c, 1, 49, 0
3, 12090, Note_on_c, 1, 49, 100
3, 12120, Note_on_c, 1, 49, 0
3, 12120, Note_on_c, 1, 49, 100
3, 12150, Note_on_c, 1, 49, 0
3, 12150, Note_on_c, 1, 49, 100
3, 12180, Note_on_c, 1, 49, 0
3, 12180, Note_on_c, 1, 43, 100
3, 12210, Note_on_c, 1, 43, 0
3, 12210, Note_on_c, 1, 52, 100
3, 12270, Note_on_c, 1, 52, 0
3, 12270, Note_on_c, 1, 52, 100
3, 12300, Note_on_c, 1, 52, 0
3, 12300, Note_on_c, 1, 54, 100
3, 12360, Note_on_c, 1, 54, 0
3, 12360, Note_on_c, 1, 55, 100
3, 12420, Note_on_c, 1, 55, 0
3, 12420, Note_on_c, 1, 56, 100
3, 12480, Note_on_c, 1, 56, 0
3, 12480, Note_on_c, 1, 49, 100
3, 12540, Note_on_c, 1, 49, 0
3, 12540, Note_on_c, 1, 44, 100
3, 12600, Note_on_c, 1, 44, 0
3, 12600, Note_on_c, 1, 37, 100
3, 12660, Note_on_c, 1, 37, 0
3, 12660, Note_on_c, 1, 44, 100
3, 12720, Note_on_c, 1, 44, 0
3, 12720, Note_on_c, 1, 47, 100
3, 12780, Note_on_c, 1, 47, 0
3, 12780, Note_on_c, 1, 42, 100
3, 12840, Note_on_c, 1, 42, 0
3, 12840, Note_on_c, 1, 35, 100
3, 12900, Note_on_c, 1, 35, 0
3, 12900, Note_on_c, 1, 42, 100
3, 12960, Note_on_c, 1, 42, 0
3, 12960, Note_on_c, 1, 33, 100
3, 13020, Note_on_c, 1, 33, 0
3, 13020, Note_on_c, 1, 40, 100
3, 13050, Note_on_c, 1, 40, 0
3, 13050, Note_on_c, 1, 40, 100
3, 13080, Note_on_c, 1, 40, 0
3, 13080, Note_on_c, 1, 45, 100
3, 13080, Note_on_c, 1, 40, 100
3, 13110, Note_on_c, 1, 40, 0
3, 13110, Note_on_c, 1, 45, 0
3, 13110, Note_on_c, 1, 45, 100
3, 13110, Note_on_c, 1, 40, 100
3, 13140, Note_on_c, 1, 40, 0
3, 13140, Note_on_c, 1, 45, 0
3, 13170, Note_on_c, 1, 37, 100
3, 13200, Note_on_c, 1, 37, 0
3, 13200, Note_on_c, 1, 40, 100
3, 13230, Note_on_c, 1, 40, 0
3, 13230, Note_on_c, 1, 42, 100
3, 13260, Note_on_c, 1, 42, 0
3, 13260, Note_on_c, 1, 42, 100
3, 13290, Note_on_c, 1, 42, 0
3, 13290, Note_on_c, 1, 42, 100
3, 13320, Note_on_c, 1, 42, 0
3, 13320, Note_on_c, 1, 44, 100
3, 13350, Note_on_c, 1, 44, 0
3, 13350, Note_on_c, 1, 44, 100
3, 13380, Note_on_c, 1, 44, 0
3, 13380, Note_on_c, 1, 47, 100
3, 13440, Note_on_c, 1, 47, 0
3, 13440, Note_on_c, 1, 49, 100
3, 13500, Note_on_c, 1, 49, 0
3, 13500, Note_on_c, 1, 44, 100
3, 13560, Note_on_c, 1, 44, 0
3, 13560, Note_on_c, 1, 37, 100
3, 13620, Note_on_c, 1, 37, 0
3, 13620, Note_on_c, 1, 44, 100
3, 13680, Note_on_c, 1, 44, 0
3, 13680, Note_on_c, 1, 47, 100
3, 13710, Note_on_c, 1, 47, 0
3, 13710, Note_on_c, 1, 47, 100
3, 13740, Note_on_c, 1, 47, 0
3, 13740, Note_on_c, 1, 42, 100
3, 13800, Note_on_c, 1, 42, 0
3, 13800, Note_on_c, 1, 35, 100
3, 13860, Note_on_c, 1, 35, 0
3, 13860, Note_on_c, 1, 42, 100
3, 13920, Note_on_c, 1, 42, 0
3, 13920, Note_on_c, 1, 33, 100
3, 13980, Note_on_c, 1, 33, 0
3, 13980, Note_on_c, 1, 40, 100
3, 14010, Note_on_c, 1, 40, 0
3, 14010, Note_on_c, 1, 44, 100
3, 14040, Note_on_c, 1, 44, 0
3, 14040, Note_on_c, 1, 28, 100
3, 14070, Note_on_c, 1, 28, 0
3, 14070, Note_on_c, 1, 45, 100
3, 14100, Note_on_c, 1, 45, 0
3, 14100, Note_on_c, 1, 45, 100
3, 14160, Note_on_c, 1, 45, 0
3, 14160, Note_on_c, 1, 40, 100
3, 14160, Note_on_c, 1, 45, 100
3, 14220, Note_on_c, 1, 45, 0
3, 14220, Note_on_c, 1, 40, 0
3, 14220, Note_on_c, 1, 35, 100
3, 14250, Note_on_c, 1, 35, 0
3, 14250, Note_on_c, 1, 35, 100
3, 14280, Note_on_c, 1, 35, 0
3, 14280, Note_on_c, 1, 35, 100
3, 14310, Note_on_c, 1, 35, 0
3, 14310, Note_on_c, 1, 35, 100
3, 14340, Note_on_c, 1, 35, 0
3, 14340, Note_on_c, 1, 35, 100
3, 14370, Note_on_c, 1, 35, 0
3, 14370, Note_on_c, 1, 32, 100
3, 14400, Note_on_c, 1, 32, 0
3, 14400, Note_on_c, 1, 37, 100
3, 14460, Note_on_c, 1, 37, 0
3, 14460, Note_on_c, 1, 44, 100
3, 14490, Note_on_c, 1, 44, 0
3, 14490, Note_on_c, 1, 44, 100
3, 14520, Note_on_c, 1, 44, 0
3, 14520, Note_on_c, 1, 49, 100
3, 14580, Note_on_c, 1, 49, 0
3, 14580, Note_on_c, 1, 44, 100
3, 14640, Note_on_c, 1, 44, 0
3, 14640, Note_on_c, 1, 35, 100
3, 14700, Note_on_c, 1, 35, 0
3, 14700, Note_on_c, 1, 42, 100
3, 14730, Note_on_c, 1, 42, 0
3, 14730, Note_on_c, 1, 42, 100
3, 14760, Note_on_c, 1, 42, 0
3, 14760, Note_on_c, 1, 47, 100
3, 14820, Note_on_c, 1, 47, 0
3, 14820, Note_on_c, 1, 42, 100
3, 14880, Note_on_c, 1, 42, 0
3, 14880, Note_on_c, 1, 33, 100
3, 14940, Note_on_c, 1, 33, 0
3, 14940, Note_on_c, 1, 52, 100
3, 15000, Note_on_c, 1, 52, 0
3, 15000, Note_on_c, 1, 33, 100
3, 15060, Note_on_c, 1, 33, 0
3, 15060, Note_on_c, 1, 45, 100
3, 15120, Note_on_c, 1, 45, 0
3, 15120, Pitch_bend_c, 1, 4096
3, 15120, Note_on_c, 1, 44, 100
3, 15121, Pitch_bend_c, 1, 4224
3, 15123, Pitch_bend_c, 1, 4480
3, 15125, Pitch_bend_c, 1, 4736
3, 15126, Pitch_bend_c, 1, 4992
3, 15128, Pitch_bend_c, 1, 5248
3, 15130, Pitch_bend_c, 1, 5504
3, 15131, Pitch_bend_c, 1, 5760
3, 15133, Pitch_bend_c, 1, 6016
3, 15135, Pitch_bend_c, 1, 6144
3, 15136, Pitch_bend_c, 1, 6400
3, 15138, Pitch_bend_c, 1, 6656
3, 15140, Pitch_bend_c, 1, 6912
3, 15141, Pitch_bend_c, 1, 7168
3, 15143, Pitch_bend_c, 1, 7424
3, 15145, Pitch_bend_c, 1, 7680
3, 15146, Pitch_bend_c, 1, 7936
3, 15148, Pitch_bend_c, 1, 8192
3, 15180, Note_on_c, 1, 44, 0
3, 15180, Note_on_c, 1, 47, 100
3, 15210, Note_on_c, 1, 47, 0
3, 15210, Note_on_c, 1, 47, 100
3, 15240, Note_on_c, 1, 47, 0
3, 15240, Note_on_c, 1, 49, 100
3, 15270, Note_on_c, 1, 49, 0
3, 15270, Note_on_c, 1, 42, 100
3, 15300, Note_on_c, 1, 42, 0
3, 15300, Note_on_c, 1, 44, 100
3, 15360, Note_on_c, 1, 44, 0
3, 15360, Note_on_c, 1, 37, 100
3, 15420, Note_on_c, 1, 37, 0
3, 15420, Note_on_c, 1, 49, 100
3, 15480, Note_on_c, 1, 49, 0
3, 15480, Note_on_c, 1, 44, 100
3, 15540, Note_on_c, 1, 44, 0
3, 15540, Note_on_c, 1, 37, 100
3, 15600, Note_on_c, 1, 37, 0
3, 15600, Note_on_c, 1, 35, 100
3, 15660, Note_on_c, 1, 35, 0
3, 15660, Note_on_c, 1, 35, 100
3, 15720, Note_on_c, 1, 35, 0
3, 15720, Note_on_c, 1, 42, 100
3, 15780, Note_on_c, 1, 42, 0
3, 15780, Note_on_c, 1, 47, 100
3, 15840, Note_on_c, 1, 47, 0
3, 15840, Note_on_c, 1, 33, 100
3, 15960, Note_on_c, 1, 33, 0
3, 15960, Note_on_c, 1, 40, 100
3, 15990, Note_on_c, 1, 40, 0
3, 15990, Note_on_c, 1, 45, 100
3, 16020, Note_on_c, 1, 45, 0
3, 16020, Note_on_c, 1, 45, 100
3, 16080, Note_on_c, 1, 45, 0
3, 16080, Note_on_c, 1, 35, 100
3, 16140, Note_on_c, 1, 35, 0
3, 16140, Note_on_c, 1, 42, 100
3, 16170, Note_on_c, 1, 42, 0
3, 16170, Note_on_c, 1, 42, 100
3, 16200, Note_on_c, 1, 42, 0
3, 16230, Note_on_c, 1, 42, 100
3, 16260, Note_on_c, 1, 42, 0
3, 16260, Note_on_c, 1, 37, 100
3, 16301, Pitch_bend_c, 1, 7680
3, 16303, Pitch_bend_c, 1, 7168
3, 16305, Pitch_bend_c, 1, 6912
3, 16306, Pitch_bend_c, 1, 6656
3, 16308, Pitch_bend_c, 1, 6144
3, 16310, Pitch_bend_c, 1, 5632
3, 16311, Pitch_bend_c, 1, 4992
3, 16313, Pitch_bend_c, 1, 128
3, 16320, Note_on_c, 1, 37, 0
3, 16320, Note_on_c, 1, 37, 100
3, 16320, Pitch_bend_c, 1, 8192
3, 16380, Note_on_c, 1, 37, 0
3, 16380, Note_on_c, 1, 37, 100
3, 16440, Note_on_c, 1, 37, 0
3, 16530, Note_on_c, 1, 33, 100
3, 16560, Note_on_c, 1, 33, 0
3, 16560, Note_on_c, 1, 35, 100
3, 16620, Note_on_c, 1, 35, 0
3, 16620, Note_on_c, 1, 35, 100
3, 16680, Note_on_c, 1, 35, 0
3, 16710, Note_on_c, 1, 42, 100
3, 16740, Note_on_c, 1, 42, 0
3, 16740, Note_on_c, 1, 35, 100
3, 16800, Note_on_c, 1, 35, 0
3, 16800, Note_on_c, 1, 33, 100
3, 16860, Note_on_c, 1, 33, 0
3, 16860, Note_on_c, 1, 33, 100
3, 16920, Note_on_c, 1, 33, 0
3, 17040, Note_on_c, 1, 52, 100
3, 17100, Note_on_c, 1, 52, 0
3, 17100, Note_on_c, 1, 49, 100
3, 17130, Note_on_c, 1, 49, 0
3, 17134, Note_on_c, 1, 47, 100
3, 17194, Note_on_c, 1, 47, 0
3, 17194, Note_on_c, 1, 42, 100
3, 17222, Note_on_c, 1, 43, 100
3, 17224, Note_on_c, 1, 42, 0
3, 17252, Note_on_c, 1, 43, 0
3, 17256, Note_on_c, 1, 44, 100
3, 17280, Note_on_c, 1, 37, 100
3, 17286, Note_on_c, 1, 44, 0
3, 17340, Note_on_c, 1, 37, 0
3, 17344, Note_on_c, 1, 37, 100
3, 17404, Note_on_c, 1, 37, 0
3, 17435, Note_on_c, 1, 52, 100
3, 17460, Note_on_c, 1, 37, 100
3, 17465, Note_on_c, 1, 52, 0
3, 17490, Note_on_c, 1, 37, 0
3, 17490, Note_on_c, 1, 37, 100
3, 17520, Note_on_c, 1, 37, 0
3, 17522, Note_on_c, 1, 35, 100
3, 17581, Note_on_c, 1, 35, 100
3, 17582, Note_on_c, 1, 35, 0
3, 17641, Note_on_c, 1, 35, 0
3, 17671, Note_on_c, 1, 28, 100
3, 17701, Note_on_c, 1, 28, 0
3, 17703, Note_on_c, 1, 33, 100
3, 17760, Note_on_c, 1, 33, 100
3, 17763, Note_on_c, 1, 33, 0
3, 17816, Note_on_c, 1, 33, 100
3, 17820, Note_on_c, 1, 33, 0
3, 17936, Note_on_c, 1, 33, 0
3, 17940, Note_on_c, 1, 45, 100
3, 17994, Note_on_c, 1, 45, 100
3, 18000, Note_on_c, 1, 45, 0
3, 18024, Note_on_c, 1, 45, 0
3, 18033, Note_on_c, 1, 47, 100
3, 18090, Note_on_c, 1, 40, 100
3, 18093, Note_on_c, 1, 47, 0
3, 18120, Note_on_c, 1, 40, 0
3, 18120, Note_on_c, 1, 42, 100
3, 18150, Note_on_c, 1, 42, 0
3, 18150, Note_on_c, 1, 42, 100
3, 18180, Note_on_c, 1, 42, 0
3, 18180, Note_on_c, 1, 35, 100
3, 18208, Note_on_c, 1, 36, 100
3, 18210, Note_on_c, 1, 35, 0
3, 18238, Note_on_c, 1, 36, 0
3, 18240, Note_on_c, 1, 37, 100
3, 18300, Note_on_c, 1, 37, 0
3, 18300, Note_on_c, 1, 37, 100
3, 18360, Note_on_c, 1, 37, 0
3, 18390, Note_on_c, 1, 28, 100
3, 18420, Note_on_c, 1, 28, 0
3, 18420, Note_on_c, 1, 37, 100
3, 18480, Note_on_c, 1, 37, 0
3, 18480, Note_on_c, 1, 35, 100
3, 18540, Note_on_c, 1, 35, 0
3, 18540, Note_on_c, 1, 35, 100
3, 18600, Note_on_c, 1, 35, 0
3, 18630, Note_on_c, 1, 28, 100
3, 18660, Note_on_c, 1, 28, 0
3, 18660, Note_on_c, 1, 35, 100
3, 18720, Note_on_c, 1, 35, 0
3, 18720, Note_on_c, 1, 33, 100
3, 18780, Note_on_c, 1, 33, 0
3, 18780, Note_on_c, 1, 33, 100
3, 18840, Note_on_c, 1, 33, 0
3, 18900, Note_on_c, 1, 54, 100
3, 18930, Note_on_c, 1, 54, 0
3, 18930, Note_on_c, 1, 47, 100
3, 18960, Note_on_c, 1, 47, 0
3, 18960, Note_on_c, 1, 44, 100
3, 19020, Note_on_c, 1, 44, 0
3, 19020, Note_on_c, 1, 45, 100
3, 19080, Note_on_c, 1, 45, 0
3, 19080, Note_on_c, 1, 47, 100
3, 19110, Note_on_c, 1, 47, 0
3, 19110, Note_on_c, 1, 47, 100
3, 19140, Note_on_c, 1, 47, 0
3, 19140, Note_on_c, 1, 35, 100
3, 19170, Note_on_c, 1, 35, 0
3, 19170, Note_on_c, 1, 36, 100
3, 19200, Note_on_c, 1, 36, 0
3, 19200, Note_on_c, 1, 37, 100
3, 19260, Note_on_c, 1, 37, 0
3, 19260, Note_on_c, 1, 37, 100
3, 19320, Note_on_c, 1, 37, 0
3, 19350, Note_on_c, 1, 37, 100
3, 19380, Note_on_c, 1, 37, 0
3, 19380, Note_on_c, 1, 37, 100
3, 19440, Note_on_c, 1, 37, 0
3, 19440, Note_on_c, 1, 35, 100
3, 19500, Note_on_c, 1, 35, 0
3, 19500, Note_on_c, 1, 35, 100
3, 19560, Note_on_c, 1, 35, 0
3, 19590, Note_on_c, 1, 40, 100
3, 19620, Note_on_c, 1, 40, 0
3, 19620, Note_on_c, 1, 35, 100
3, 19680, Note_on_c, 1, 35, 0
3, 19680, Pitch_bend_c, 1, 128
3, 19680, Note_on_c, 1, 42, 100
3, 19682, Pitch_bend_c, 1, 256
3, 19683, Pitch_bend_c, 1, 384
3, 19684, Pitch_bend_c, 1, 512
3, 19685, Pitch_bend_c, 1, 640
3, 19686, Pitch_bend_c, 1, 768
3, 19687, Pitch_bend_c, 1, 896
3, 19688, Pitch_bend_c, 1, 1024
3, 19690, Pitch_bend_c, 1, 1152
3, 19691, Pitch_bend_c, 1, 1280
3, 19692, Pitch_bend_c, 1, 1408
3, 19693, Pitch_bend_c, 1, 1536
3, 19694, Pitch_bend_c, 1, 1664
3, 19695, Pitch_bend_c, 1, 1792
3, 19696, Pitch_bend_c, 1, 1920
3, 19697, Pitch_bend_c, 1, 2048
3, 19699, Pitch_bend_c, 1, 2176
3, 19700, Pitch_bend_c, 1, 2304
3, 19701, Pitch_bend_c, 1, 2432
3, 19702, Pitch_bend_c, 1, 2560
3, 19703, Pitch_bend_c, 1, 2688
3, 19704, Pitch_bend_c, 1, 2816
3, 19705, Pitch_bend_c, 1, 2944
3, 19706, Pitch_bend_c, 1, 3072
3, 19708, Pitch_bend_c, 1, 3200
3, 19709, Pitch_bend_c, 1, 3328
3, 19710, Pitch_bend_c, 1, 3456
3, 19711, Pitch_bend_c, 1, 3584
3, 19712, Pitch_bend_c, 1, 3712
3, 19713, Pitch_bend_c, 1, 3840
3, 19714, Pitch_bend_c, 1, 3968
3, 19715, Pitch_bend_c, 1, 4096
3, 19717, Pitch_bend_c, 1, 4224
3, 19718, Pitch_bend_c, 1, 4352
3, 19719, Pitch_bend_c, 1, 4480
3, 19720, Pitch_bend_c, 1, 4608
3, 19721, Pitch_bend_c, 1, 4736
3, 19722, Pitch_bend_c, 1, 4864
3, 19723, Pitch_bend_c, 1, 4992
3, 19724, Pitch_bend_c, 1, 5120
3, 19726, Pitch_bend_c, 1, 5248
3, 19727, Pitch_bend_c, 1, 5376
3, 19728, Pitch_bend_c, 1, 5504
3, 19729, Pitch_bend_c, 1, 5632
3, 19730, Pitch_bend_c, 1, 5760
3, 19731, Pitch_bend_c, 1, 5888
3, 19732, Pitch_bend_c, 1, 6016
3, 19733, Pitch_bend_c, 1, 6144
3, 19735, Pitch_bend_c, 1, 6272
3, 19736, Pitch_bend_c, 1, 6400
3, 19737, Pitch_bend_c, 1, 6528
3, 19738, Pitch_bend_c, 1, 6656
3, 19739, Pitch_bend_c, 1, 6784
3, 19740, Pitch_bend_c, 1, 6912
3, 19741, Pitch_bend_c, 1, 7040
3, 19742, Pitch_bend_c, 1, 7168
3, 19744, Pitch_bend_c, 1, 7296
3, 19745, Pitch_bend_c, 1, 7424
3, 19746, Pitch_bend_c, 1, 7552
3, 19747, Pitch_bend_c, 1, 7680
3, 19748, Pitch_bend_c, 1, 7808
3, 19749, Pitch_bend_c, 1, 7936
3, 19750, Pitch_bend_c, 1, 8064
3, 19751, Pitch_bend_c, 1, 8192
3, 19800, Note_on_c, 1, 42, 0
3, 19800, Note_on_c, 1, 40, 100
3, 19860, Note_on_c, 1, 40, 0
3, 19860, Note_on_c, 1, 40, 100
3, 19890, Note_on_c, 1, 40, 0
3, 19890, Note_on_c, 1, 40, 100
3, 19920, Note_on_c, 1, 40, 0
3, 19920, Note_on_c, 1, 37, 100
3, 19980, Note_on_c, 1, 37, 0
3, 19980, Note_on_c, 1, 35, 100
3, 20010, Note_on_c, 1, 35, 0
3, 20010, Note_on_c, 1, 35, 100
3, 20040, Note_on_c, 1, 35, 0
3, 20040, Note_on_c, 1, 35, 100
3, 20100, Note_on_c, 1, 35, 0
3, 20100, Note_on_c, 1, 35, 100
3, 20130, Note_on_c, 1, 35, 0
3, 20130, Note_on_c, 1, 35, 100
3, 20160, Note_on_c, 1, 35, 0
3, 20160, Note_on_c, 1, 37, 100
3, 20340, Note_on_c, 1, 37, 0
3, 20340, Note_on_c, 1, 33, 100
3, 20370, Note_on_c, 1, 33, 0
3, 20370, Note_on_c, 1, 37, 100
3, 20400, Note_on_c, 1, 37, 0
3, 20400, Note_on_c, 1, 35, 100
3, 20460, Note_on_c, 1, 35, 0
3, 20460, Note_on_c, 1, 35, 100
3, 20580, Note_on_c, 1, 35, 0
3, 20580, Note_on_c, 1, 45, 100
3, 20610, Note_on_c, 1, 45, 0
3, 20610, Note_on_c, 1, 35, 100
3, 20640, Note_on_c, 1, 35, 0
3, 20640, Note_on_c, 1, 33, 100
3, 20880, Note_on_c, 1, 33, 0
3, 20880, Note_on_c, 1, 52, 100
3, 20940, Note_on_c, 1, 52, 0
3, 20940, Note_on_c, 1, 49, 100
3, 20970, Note_on_c, 1, 49, 0
3, 20970, Note_on_c, 1, 47, 100
3, 21000, Note_on_c, 1, 47, 0
3, 21000, Note_on_c, 1, 49, 100
3, 21030, Note_on_c, 1, 49, 0
3, 21030, Note_on_c, 1, 47, 100
3, 21060, Note_on_c, 1, 47, 0
3, 21060, Note_on_c, 1, 44, 100
3, 21120, Note_on_c, 1, 44, 0
3, 21120, Note_on_c, 1, 37, 100
3, 21330, Note_on_c, 1, 37, 0
3, 21330, Note_on_c, 1, 28, 100
3, 21360, Note_on_c, 1, 28, 0
3, 21360, Note_on_c, 1, 35, 100
3, 21420, Note_on_c, 1, 35, 0
3, 21420, Note_on_c, 1, 35, 100
3, 21510, Note_on_c, 1, 35, 0
3, 21510, Note_on_c, 1, 28, 100
3, 21540, Note_on_c, 1, 28, 0
3, 21540, Note_on_c, 1, 35, 100
3, 21600, Note_on_c, 1, 35, 0
3, 21600, Note_on_c, 1, 33, 100
3, 21720, Note_on_c, 1, 33, 0
3, 21720, Note_on_c, 1, 33, 100
3, 21810, Note_on_c, 1, 33, 0
3, 21810, Note_on_c, 1, 33, 80
3, 21840, Note_on_c, 1, 33, 0
3, 21840, Note_on_c, 1, 42, 100
3, 21900, Note_on_c, 1, 42, 0
3, 21900, Note_on_c, 1, 42, 100
3, 21990, Note_on_c, 1, 42, 0
3, 21990, Note_on_c, 1, 35, 100
3, 22020, Note_on_c, 1, 35, 0
3, 22020, Note_on_c, 1, 37, 100
3, 22050, Note_on_c, 1, 37, 0
3, 22050, Note_on_c, 1, 35, 100
3, 22080, Note_on_c, 1, 35, 0
3, 22080, Note_on_c, 1, 37, 100
3, 22140, Note_on_c, 1, 37, 0
3, 22140, Note_on_c, 1, 37, 100
3, 22200, Note_on_c, 1, 37, 0
3, 22200, Note_on_c, 1, 49, 100
3, 22260, Note_on_c, 1, 49, 0
3, 22290, Note_on_c, 1, 33, 100
3, 22320, Note_on_c, 1, 33, 0
3, 22320, Note_on_c, 1, 35, 100
3, 22380, Note_on_c, 1, 35, 0
3, 22380, Note_on_c, 1, 35, 100
3, 22440, Note_on_c, 1, 35, 0
3, 22440, Note_on_c, 1, 42, 100
3, 22470, Note_on_c, 1, 42, 0
3, 22470, Note_on_c, 1, 47, 100
3, 22500, Note_on_c, 1, 47, 0
3, 22500, Note_on_c, 1, 42, 100
3, 22560, Note_on_c, 1, 42, 0
3, 22560, Note_on_c, 1, 33, 100
3, 22680, Note_on_c, 1, 33, 0
3, 22680, Note_on_c, 1, 45, 100
3, 22740, Note_on_c, 1, 45, 0
3, 22740, Note_on_c, 1, 45, 100
3, 22800, Note_on_c, 1, 45, 0
3, 22860, Note_on_c, 1, 35, 100
3, 22890, Note_on_c, 1, 35, 0
3, 22890, Note_on_c, 1, 35, 100
3, 22920, Note_on_c, 1, 35, 0
3, 22920, Note_on_c, 1, 35, 100
3, 22950, Note_on_c, 1, 35, 0
3, 22950, Note_on_c, 1, 35, 100
3, 22980, Note_on_c, 1, 35, 0
3, 22980, Note_on_c, 1, 36, 100
3, 23040, Note_on_c, 1, 36, 0
3, 23040, Note_on_c, 1, 37, 100
3, 23280, Note_on_c, 1, 37, 0
3, 23280, Note_on_c, 1, 35, 100
3, 23340, Note_on_c, 1, 35, 0
3, 23340, Note_on_c, 1, 35, 100
3, 23520, Note_on_c, 1, 35, 0
3, 23520, Note_on_c, 1, 49, 100
3, 23550, Note_on_c, 1, 49, 0
3, 23550, Note_on_c, 1, 49, 100
3, 23580, Note_on_c, 1, 49, 0
3, 23580, Note_on_c, 1, 49, 100
3, 23610, Note_on_c, 1, 49, 0
3, 23610, Note_on_c, 1, 49, 100
3, 23670, Note_on_c, 1, 49, 0
3, 23670, Note_on_c, 1, 49, 100
3, 23700, Note_on_c, 1, 49, 0
3, 23700, Note_on_c, 1, 53, 100
3, 23790, Note_on_c, 1, 53, 0
3, 23790, Note_on_c, 1, 54, 100
3, 23850, Note_on_c, 1, 54, 0
3, 23850, Note_on_c, 1, 54, 100
3, 23880, Note_on_c, 1, 54, 0
3, 23880, Note_on_c, 1, 55, 100
3, 23940, Note_on_c, 1, 55, 0
3, 23940, Note_on_c, 1, 56, 100
3, 24000, Note_on_c, 1, 56, 0
3, 24000, Note_on_c, 1, 49, 100
3, 24060, Note_on_c, 1, 49, 0
3, 24060, Note_on_c, 1, 44, 100
3, 24120, Note_on_c, 1, 44, 0
3, 24120, Note_on_c, 1, 37, 100
3, 24150, Note_on_c, 1, 37, 0
3, 24150, Note_on_c, 1, 37, 100
3, 24180, Note_on_c, 1, 37, 0
3, 24180, Note_on_c, 1, 44, 100
3, 24240, Note_on_c, 1, 44, 0
3, 24240, Note_on_c, 1, 47, 100
3, 24300, Note_on_c, 1, 47, 0
3, 24300, Note_on_c, 1, 42, 100
3, 24330, Note_on_c, 1, 42, 0
3, 24330, Note_on_c, 1, 42, 100
3, 24360, Note_on_c, 1, 42, 0
3, 24360, Note_on_c, 1, 47, 100
3, 24390, Note_on_c, 1, 47, 0
3, 24390, Note_on_c, 1, 42, 100
3, 24420, Note_on_c, 1, 42, 0
3, 24420, Note_on_c, 1, 42, 100
3, 24480, Note_on_c, 1, 42, 0
3, 24480, Note_on_c, 1, 33, 100
3, 24540, Note_on_c, 1, 33, 0
3, 24540, Note_on_c, 1, 40, 100
3, 24600, Note_on_c, 1, 40, 0
3, 24600, Note_on_c, 1, 45, 100
3, 24660, Note_on_c, 1, 45, 0
3, 24660, Note_on_c, 1, 40, 100
3, 24690, Note_on_c, 1, 40, 0
3, 24690, Note_on_c, 1, 37, 100
3, 24720, Note_on_c, 1, 37, 0
3, 24720, Note_on_c, 1, 52, 100
3, 24750, Note_on_c, 1, 52, 0
3, 24750, Note_on_c, 1, 54, 100
3, 24780, Note_on_c, 1, 54, 0
3, 24780, Note_on_c, 1, 54, 100
3, 24810, Note_on_c, 1, 54, 0
3, 24810, Note_on_c, 1, 47, 100
3, 24840, Note_on_c, 1, 47, 0
3, 24840, Note_on_c, 1, 49, 100
3, 24870, Note_on_c, 1, 49, 0
3, 24870, Note_on_c, 1, 49, 100
3, 24900, Note_on_c, 1, 49, 0
3, 24900, Note_on_c, 1, 42, 100
3, 24930, Note_on_c, 1, 42, 0
3, 24930, Note_on_c, 1, 44, 100
3, 24960, Note_on_c, 1, 44, 0
3, 24960, Note_on_c, 1, 37, 100
3, 25020, Note_on_c, 1, 37, 0
3, 25020, Note_on_c, 1, 44, 100
3, 25080, Note_on_c, 1, 44, 0
3, 25080, Note_on_c, 1, 49, 100
3, 25140, Note_on_c, 1, 49, 0
3, 25140, Note_on_c, 1, 44, 100
3, 25200, Note_on_c, 1, 44, 0
3, 25200, Note_on_c, 1, 35, 100
3, 25260, Note_on_c, 1, 35, 0
3, 25260, Note_on_c, 1, 42, 100
3, 25320, Note_on_c, 1, 42, 0
3, 25320, Note_on_c, 1, 47, 100
3, 25380, Note_on_c, 1, 47, 0
3, 25380, Note_on_c, 1, 42, 100
3, 25440, Note_on_c, 1, 42, 0
3, 25440, Note_on_c, 1, 33, 100
3, 25500, Note_on_c, 1, 33, 0
3, 25500, Note_on_c, 1, 45, 100
3, 25530, Note_on_c, 1, 45, 0
3, 25530, Note_on_c, 1, 45, 100
3, 25560, Note_on_c, 1, 45, 0
3, 25560, Note_on_c, 1, 47, 100
3, 25590, Note_on_c, 1, 47, 0
3, 25590, Note_on_c, 1, 49, 100
3, 25620, Note_on_c, 1, 49, 0
3, 25620, Note_on_c, 1, 49, 100
3, 25650, Note_on_c, 1, 49, 0
3, 25650, Note_on_c, 1, 42, 100
3, 25680, Note_on_c, 1, 42, 0
3, 25680, Note_on_c, 1, 44, 100
3, 25710, Note_on_c, 1, 44, 0
3, 25710, Note_on_c, 1, 44, 100
3, 25740, Note_on_c, 1, 44, 0
3, 25740, Note_on_c, 1, 47, 100
3, 25770, Note_on_c, 1, 47, 0
3, 25770, Note_on_c, 1, 49, 100
3, 25800, Note_on_c, 1, 49, 0
3, 25800, Note_on_c, 1, 49, 100
3, 25830, Note_on_c, 1, 49, 0
3, 25830, Note_on_c, 1, 42, 100
3, 25860, Note_on_c, 1, 42, 0
3, 25860, Note_on_c, 1, 44, 100
3, 25890, Note_on_c, 1, 44, 0
3, 25890, Note_on_c, 1, 44, 100
3, 25920, Note_on_c, 1, 44, 0
3, 25920, Note_on_c, 1, 37, 100
3, 25980, Note_on_c, 1, 37, 0
3, 25980, Note_on_c, 1, 44, 100
3, 26040, Note_on_c, 1, 44, 0
3, 26040, Note_on_c, 1, 49, 100
3, 26100, Note_on_c, 1, 49, 0
3, 26100, Note_on_c, 1, 44, 100
3, 26160, Note_on_c, 1, 44, 0
3, 26160, Note_on_c, 1, 35, 100
3, 26220, Note_on_c, 1, 35, 0
3, 26220, Note_on_c, 1, 42, 100
3, 26250, Note_on_c, 1, 42, 0
3, 26250, Note_on_c, 1, 42, 100
3, 26280, Note_on_c, 1, 42, 0
3, 26280, Note_on_c, 1, 47, 100
3, 26340, Note_on_c, 1, 47, 0
3, 26340, Note_on_c, 1, 42, 100
3, 26400, Note_on_c, 1, 42, 0
3, 26400, Note_on_c, 1, 33, 100
3, 26520, Note_on_c, 1, 33, 0
3, 26520, Note_on_c, 1, 28, 100
3, 26550, Note_on_c, 1, 28, 0
3, 26550, Note_on_c, 1, 33, 100
3, 26610, Note_on_c, 1, 33, 0
3, 26610, Note_on_c, 1, 28, 100
3, 26639, Pitch_bend_c, 1, 0
3, 26640, Note_on_c, 1, 28, 0
3, 26640, Pitch_bend_c, 1, 128
3, 26640, Note_on_c, 1, 37, 100
3, 26641, Pitch_bend_c, 1, 256
3, 26642, Pitch_bend_c, 1, 512
3, 26643, Pitch_bend_c, 1, 640
3, 26644, Pitch_bend_c, 1, 768
3, 26645, Pitch_bend_c, 1, 1024
3, 26646, Pitch_bend_c, 1, 1152
3, 26647, Pitch_bend_c, 1, 1408
3, 26648, Pitch_bend_c, 1, 1536
3, 26649, Pitch_bend_c, 1, 1664
3, 26650, Pitch_bend_c, 1, 1920
3, 26651, Pitch_bend_c, 1, 2048
3, 26652, Pitch_bend_c, 1, 2304
3, 26653, Pitch_bend_c, 1, 2432
3, 26654, Pitch_bend_c, 1, 2560
3, 26655, Pitch_bend_c, 1, 2816
3, 26656, Pitch_bend_c, 1, 2944
3, 26657, Pitch_bend_c, 1, 3200
3, 26658, Pitch_bend_c, 1, 3328
3, 26659, Pitch_bend_c, 1, 3456
3, 26660, Pitch_bend_c, 1, 3712
3, 26661, Pitch_bend_c, 1, 3840
3, 26662, Pitch_bend_c, 1, 4096
3, 26663, Pitch_bend_c, 1, 4224
3, 26664, Pitch_bend_c, 1, 4352
3, 26665, Pitch_bend_c, 1, 4608
3, 26666, Pitch_bend_c, 1, 4736
3, 26667, Pitch_bend_c, 1, 4864
3, 26668, Pitch_bend_c, 1, 5120
3, 26669, Pitch_bend_c, 1, 5248
3, 26670, Pitch_bend_c, 1, 5504
3, 26671, Pitch_bend_c, 1, 5632
3, 26672, Pitch_bend_c, 1, 5760
3, 26673, Pitch_bend_c, 1, 6016
3, 26674, Pitch_bend_c, 1, 6144
3, 26675, Pitch_bend_c, 1, 6400
3, 26676, Pitch_bend_c, 1, 6528
3, 26677, Pitch_bend_c, 1, 6656
3, 26678, Pitch_bend_c, 1, 6912
3, 26679, Pitch_bend_c, 1, 7040
3, 26680, Pitch_bend_c, 1, 7296
3, 26681, Pitch_bend_c, 1, 7424
3, 26682, Pitch_bend_c, 1, 7552
3, 26683, Pitch_bend_c, 1, 7808
3, 26684, Pitch_bend_c, 1, 7936
3, 26685, Pitch_bend_c, 1, 8192
3, 26700, Note_on_c, 1, 37, 0
3, 26700, Note_on_c, 1, 35, 100
3, 26730, Note_on_c, 1, 35, 0
3, 26730, Note_on_c, 1, 35, 100
3, 26760, Note_on_c, 1, 35, 0
3, 26760, Note_on_c, 1, 42, 100
3, 26820, Note_on_c, 1, 42, 0
3, 26820, Note_on_c, 1, 40, 100
3, 26880, Note_on_c, 1, 40, 0
3, 26880, Note_on_c, 1, 37, 100
3, 26940, Note_on_c, 1, 37, 0
3, 26940, Note_on_c, 1, 44, 100
3, 26970, Note_on_c, 1, 44, 0
3, 26970, Note_on_c, 1, 44, 100
3, 27000, Note_on_c, 1, 44, 0
3, 27000, Note_on_c, 1, 49, 100
3, 27060, Note_on_c, 1, 49, 0
3, 27060, Note_on_c, 1, 44, 100
3, 27120, Note_on_c, 1, 44, 0
3, 27120, Note_on_c, 1, 47, 100
3, 27150, Note_on_c, 1, 47, 0
3, 27150, Note_on_c, 1, 47, 100
3, 27180, Note_on_c, 1, 47, 0
3, 27180, Note_on_c, 1, 42, 100
3, 27240, Note_on_c, 1, 42, 0
3, 27240, Note_on_c, 1, 35, 100
3, 27300, Note_on_c, 1, 35, 0
3, 27300, Note_on_c, 1, 42, 100
3, 27360, Note_on_c, 1, 42, 0
3, 27360, Note_on_c, 1, 45, 100
3, 27480, Note_on_c, 1, 45, 0
3, 27480, Note_on_c, 1, 45, 100
3, 27510, Note_on_c, 1, 45, 0
3, 27510, Note_on_c, 1, 45, 100
3, 27540, Note_on_c, 1, 45, 0
3, 27540, Note_on_c, 1, 45, 100
3, 27570, Note_on_c, 1, 45, 0
3, 27570, Note_on_c, 1, 45, 100
3, 27600, Note_on_c, 1, 45, 0
3, 27600, Note_on_c, 1, 45, 100
3, 27660, Note_on_c, 1, 45, 0
3, 27660, Note_on_c, 1, 47, 100
3, 27690, Note_on_c, 1, 47, 0
3, 27690, Note_on_c, 1, 47, 100
3, 27720, Note_on_c, 1, 47, 0
3, 27720, Note_on_c, 1, 47, 100
3, 27780, Note_on_c, 1, 47, 0
3, 27780, Note_on_c, 1, 47, 100
3, 27810, Note_on_c, 1, 47, 0
3, 27810, Note_on_c, 1, 48, 100
3, 27840, Note_on_c, 1, 48, 0
3, 27840, Note_on_c, 1, 37, 100
3, 27900, Note_on_c, 1, 37, 0
3, 27900, Note_on_c, 1, 44, 100
3, 27960, Note_on_c, 1, 44, 0
3, 27960, Note_on_c, 1, 49, 127
3, 28020, Note_on_c, 1, 49, 0
3, 28080, Note_on_c, 1, 35, 100
3, 28140, Note_on_c, 1, 35, 0
3, 28140, Note_on_c, 1, 42, 100
3, 28200, Note_on_c, 1, 42, 0
3, 28200, Note_on_c, 1, 47, 127
3, 28260, Note_on_c, 1, 47, 0
3, 28320, Note_on_c, 1, 33, 100
3, 28380, Note_on_c, 1, 33, 0
3, 28380, Note_on_c, 1, 40, 100
3, 28440, Note_on_c, 1, 40, 0
3, 28440, Note_on_c, 1, 45, 127
3, 28500, Note_on_c, 1, 45, 0
3, 28560, Note_on_c, 1, 49, 100
3, 28590, Note_on_c, 1, 49, 0
3, 28590, Note_on_c, 1, 49, 100
3, 28620, Note_on_c, 1, 49, 0
3, 28680, Note_on_c, 1, 45, 100
3, 28710, Note_on_c, 1, 45, 0
3, 28710, Note_on_c, 1, 45, 100
3, 28740, Note_on_c, 1, 45, 0
3, 28770, Note_on_c, 1, 35, 100
3, 28800, Note_on_c, 1, 35, 0
3, 28800, Note_on_c, 1, 37, 100
3, 28860, Note_on_c, 1, 37, 0
3, 28860, Note_on_c, 1, 44, 100
3, 28920, Note_on_c, 1, 44, 0
3, 28920, Note_on_c, 1, 49, 127
3, 28980, Note_on_c, 1, 49, 0
3, 29040, Note_on_c, 1, 35, 100
3, 29100, Note_on_c, 1, 35, 0
3, 29100, Note_on_c, 1, 42, 100
3, 29160, Note_on_c, 1, 42, 0
3, 29160, Note_on_c, 1, 47, 127
3, 29220, Note_on_c, 1, 47, 0
3, 29280, Note_on_c, 1, 33, 100
3, 29340, Note_on_c, 1, 33, 0
3, 29340, Note_on_c, 1, 40, 100
3, 29400, Note_on_c, 1, 40, 0
3, 29400, Note_on_c, 1, 45, 100
3, 29460, Note_on_c, 1, 45, 0
3, 29520, Note_on_c, 1, 35, 100
3, 29550, Note_on_c, 1, 35, 0
3, 29550, Note_on_c, 1, 35, 100
3, 29580, Note_on_c, 1, 35, 0
3, 29580, Note_on_c, 1, 35, 100
3, 29610, Note_on_c, 1, 35, 0
3, 29610, Note_on_c, 1, 35, 100
3, 29640, Note_on_c, 1, 35, 0
3, 29640, Note_on_c, 1, 35, 100
3, 29670, Note_on_c, 1, 35, 0
3, 29670, Note_on_c, 1, 35, 100
3, 29700, Note_on_c, 1, 35, 0
3, 29700, Note_on_c, 1, 35, 100
3, 29730, Note_on_c, 1, 35, 0
3, 29730, Note_on_c, 1, 36, 100
3, 29760, Note_on_c, 1, 36, 0
3, 29760, Note_on_c, 1, 37, 100
3, 29790, Note_on_c, 1, 37, 0
3, 29790, Note_on_c, 1, 37, 100
3, 29820, Note_on_c, 1, 37, 0
3, 29820, Note_on_c, 1, 44, 100
3, 29850, Note_on_c, 1, 44, 0
3, 29850, Note_on_c, 1, 44, 100
3, 29880, Note_on_c, 1, 44, 0
3, 29880, Note_on_c, 1, 49, 100
3, 29910, Note_on_c, 1, 49, 0
3, 30000, Note_on_c, 1, 35, 100
3, 30030, Note_on_c, 1, 35, 0
3, 30030, Note_on_c, 1, 35, 100
3, 30060, Note_on_c, 1, 35, 0
3, 30060, Note_on_c, 1, 42, 100
3, 30090, Note_on_c, 1, 42, 0
3, 30090, Note_on_c, 1, 42, 100
3, 30120, Note_on_c, 1, 42, 0
3, 30120, Note_on_c, 1, 47, 100
3, 30150, Note_on_c, 1, 47, 0
3, 30240, Note_on_c, 1, 33, 100
3, 30270, Note_on_c, 1, 33, 0
3, 30270, Note_on_c, 1, 33, 100
3, 30300, Note_on_c, 1, 33, 0
3, 30300, Note_on_c, 1, 40, 100
3, 30330, Note_on_c, 1, 40, 0
3, 30360, Note_on_c, 1, 45, 100
3, 30390, Note_on_c, 1, 45, 0
3, 30480, Note_on_c, 1, 42, 100
3, 30481, Pitch_bend_c, 1, 128
3, 30495, Pitch_bend_c, 1, 384
3, 30501, Pitch_bend_c, 1, 640
3, 30507, Pitch_bend_c, 1, 896
3, 30509, Pitch_bend_c, 1, 1152
3, 30511, Pitch_bend_c, 1, 1280
3, 30513, Pitch_bend_c, 1, 1408
3, 30514, Pitch_bend_c, 1, 1664
3, 30515, Pitch_bend_c, 1, 1920
3, 30516, Pitch_bend_c, 1, 2688
3, 30517, Pitch_bend_c, 1, 2944
3, 30518, Pitch_bend_c, 1, 3968
3, 30519, Pitch_bend_c, 1, 4736
3, 30520, Pitch_bend_c, 1, 5760
3, 30521, Pitch_bend_c, 1, 6016
3, 30522, Pitch_bend_c, 1, 6272
3, 30523, Pitch_bend_c, 1, 6528
3, 30524, Pitch_bend_c, 1, 6784
3, 30526, Pitch_bend_c, 1, 7040
3, 30528, Pitch_bend_c, 1, 7168
3, 30529, Pitch_bend_c, 1, 7296
3, 30532, Pitch_bend_c, 1, 7552
3, 30534, Pitch_bend_c, 1, 7808
3, 30535, Pitch_bend_c, 1, 8064
3, 30537, Pitch_bend_c, 1, 8192
3, 30540, Note_on_c, 1, 42, 0
3, 30540, Note_on_c, 1, 42, 100
3, 30570, Note_on_c, 1, 42, 0
3, 30570, Note_on_c, 1, 40, 100
3, 30600, Note_on_c, 1, 40, 0
3, 30600, Note_on_c, 1, 42, 100
3, 30630, Note_on_c, 1, 42, 0
3, 30630, Note_on_c, 1, 40, 100
3, 30660, Note_on_c, 1, 40, 0
3, 30660, Note_on_c, 1, 35, 100
3, 30690, Note_on_c, 1, 35, 0
3, 30690, Note_on_c, 1, 36, 100
3, 30720, Note_on_c, 1, 36, 0
3, 30720, Note_on_c, 1, 37, 100
3, 30750, Note_on_c, 1, 37, 0
3, 30750, Note_on_c, 1, 37, 100
3, 30780, Note_on_c, 1, 37, 0
3, 30780, Note_on_c, 1, 44, 100
3, 30810, Note_on_c, 1, 44, 0
3, 30810, Note_on_c, 1, 44, 100
3, 30840, Note_on_c, 1, 44, 0
3, 30840, Note_on_c, 1, 49, 127
3, 30960, Note_on_c, 1, 49, 0
3, 30960, Note_on_c, 1, 47, 100
3, 30990, Note_on_c, 1, 47, 0
3, 30990, Note_on_c, 1, 47, 100
3, 31020, Note_on_c, 1, 47, 0
3, 31020, Note_on_c, 1, 42, 100
3, 31080, Note_on_c, 1, 42, 0
3, 31080, Note_on_c, 1, 35, 127
3, 31200, Note_on_c, 1, 35, 0
3, 31200, Note_on_c, 1, 33, 100
3, 31230, Note_on_c, 1, 33, 0
3, 31230, Note_on_c, 1, 33, 100
3, 31260, Note_on_c, 1, 33, 0
3, 31260, Note_on_c, 1, 40, 100
3, 31290, Note_on_c, 1, 40, 0
3, 31320, Note_on_c, 1, 45, 100
3, 31350, Note_on_c, 1, 45, 0
3, 31440, Pitch_bend_c, 1, 128
3, 31440, Note_on_c, 1, 49, 100
3, 31445, Pitch_bend_c, 1, 384
3, 31447, Pitch_bend_c, 1, 512
3, 31448, Pitch_bend_c, 1, 640
3, 31451, Pitch_bend_c, 1, 768
3, 31453, Pitch_bend_c, 1, 896
3, 31455, Pitch_bend_c, 1, 1152
3, 31457, Pitch_bend_c, 1, 1280
3, 31458, Pitch_bend_c, 1, 1408
3, 31460, Pitch_bend_c, 1, 1536
3, 31461, Pitch_bend_c, 1, 1664
3, 31463, Pitch_bend_c, 1, 1920
3, 31465, Pitch_bend_c, 1, 2048
3, 31466, Pitch_bend_c, 1, 2176
3, 31467, Pitch_bend_c, 1, 2304
3, 31468, Pitch_bend_c, 1, 2432
3, 31469, Pitch_bend_c, 1, 2560
3, 31471, Pitch_bend_c, 1, 2688
3, 31472, Pitch_bend_c, 1, 2944
3, 31473, Pitch_bend_c, 1, 3200
3, 31474, Pitch_bend_c, 1, 3456
3, 31475, Pitch_bend_c, 1, 3584
3, 31476, Pitch_bend_c, 1, 3712
3, 31477, Pitch_bend_c, 1, 3968
3, 31478, Pitch_bend_c, 1, 4224
3, 31479, Pitch_bend_c, 1, 4480
3, 31481, Pitch_bend_c, 1, 4608
3, 31482, Pitch_bend_c, 1, 4736
3, 31483, Pitch_bend_c, 1, 5248
3, 31484, Pitch_bend_c, 1, 5504
3, 31485, Pitch_bend_c, 1, 5760
3, 31486, Pitch_bend_c, 1, 6016
3, 31487, Pitch_bend_c, 1, 6272
3, 31488, Pitch_bend_c, 1, 6784
3, 31489, Pitch_bend_c, 1, 7296
3, 31490, Pitch_bend_c, 1, 7552
3, 31491, Pitch_bend_c, 1, 7936
3, 31492, Pitch_bend_c, 1, 8064
3, 31493, Pitch_bend_c, 1, 8320
3, 31494, Pitch_bend_c, 1, 8192
3, 31500, Note_on_c, 1, 49, 0
3, 31500, Note_on_c, 1, 49, 100
3, 31530, Note_on_c, 1, 49, 0
3, 31530, Note_on_c, 1, 42, 100
3, 31560, Note_on_c, 1, 42, 0
3, 31560, Note_on_c, 1, 43, 100
3, 31590, Note_on_c, 1, 43, 0
3, 31590, Note_on_c, 1, 44, 100
3, 31620, Note_on_c, 1, 44, 0
3, 31620, Note_on_c, 1, 42, 100
3, 31650, Note_on_c, 1, 42, 0
3, 31650, Note_on_c, 1, 44, 100
3, 31680, Note_on_c, 1, 44, 0
3, 31680, Note_on_c, 1, 37, 100
3, 31710, Note_on_c, 1, 37, 0
3, 31710, Note_on_c, 1, 37, 100
3, 31740, Note_on_c, 1, 37, 0
3, 31740, Note_on_c, 1, 43, 100
3, 31770, Note_on_c, 1, 43, 0
3, 31770, Note_on_c, 1, 44, 100
3, 31800, Note_on_c, 1, 44, 0
3, 31800, Note_on_c, 1, 49, 100
3, 31920, Note_on_c, 1, 49, 0
3, 31920, Note_on_c, 1, 47, 100
3, 31980, Note_on_c, 1, 47, 0
3, 31980, Note_on_c, 1, 42, 100
3, 32040, Note_on_c, 1, 42, 0
3, 32040, Note_on_c, 1, 35, 100
3, 32160, Note_on_c, 1, 35, 0
3, 32160, Note_on_c, 1, 33, 100
3, 32220, Note_on_c, 1, 33, 0
3, 32220, Note_on_c, 1, 33, 100
3, 32280, Note_on_c, 1, 33, 0
3, 32280, Note_on_c, 1, 33, 100
3, 32400, Note_on_c, 1, 33, 0
3, 32400, Note_on_c, 1, 40, 100
3, 32430, Note_on_c, 1, 40, 0
3, 32430, Note_on_c, 1, 42, 100
3, 32460, Note_on_c, 1, 42, 0
3, 32460, Note_on_c, 1, 42, 100
3, 32490, Note_on_c, 1, 42, 0
3, 32490, Note_on_c, 1, 40, 100
3, 32520, Note_on_c, 1, 40, 0
3, 32520, Note_on_c, 1, 42, 100
3, 32550, Note_on_c, 1, 42, 0
3, 32550, Note_on_c, 1, 40, 100
3, 32580, Note_on_c, 1, 40, 0
3, 32580, Note_on_c, 1, 35, 100
3, 32610, Note_on_c, 1, 35, 0
3, 32610, Note_on_c, 1, 36, 100
3, 32640, Note_on_c, 1, 36, 0
3, 32640, Note_on_c, 1, 37, 100
3, 32700, Note_on_c, 1, 37, 0
3, 32700, Note_on_c, 1, 37, 100
3, 32760, Note_on_c, 1, 37, 0
3, 32790, Note_on_c, 1, 37, 80
3, 32820, Note_on_c, 1, 37, 0
3, 32850, Note_on_c, 1, 47, 100
3, 32880, Note_on_c, 1, 47, 0
3, 32880, Note_on_c, 1, 35, 100
3, 32940, Note_on_c, 1, 35, 0
3, 32940, Note_on_c, 1, 35, 100
3, 33000, Note_on_c, 1, 35, 0
3, 33060, Note_on_c, 1, 35, 100
3, 33090, Note_on_c, 1, 35, 0
3, 33090, Note_on_c, 1, 35, 100
3, 33120, Note_on_c, 1, 35, 0
3, 33120, Note_on_c, 1, 33, 100
3, 33180, Note_on_c, 1, 33, 0
3, 33180, Note_on_c, 1, 33, 100
3, 33240, Note_on_c, 1, 33, 0
3, 33360, Note_on_c, 1, 47, 100
3, 33390, Note_on_c, 1, 47, 0
3, 33390, Note_on_c, 1, 49, 100
3, 33420, Note_on_c, 1, 49, 0
3, 33420, Note_on_c, 1, 49, 100
3, 33450, Note_on_c, 1, 49, 0
3, 33450, Note_on_c, 1, 42, 100
3, 33480, Note_on_c, 1, 42, 0
3, 33480, Note_on_c, 1, 43, 100
3, 33510, Note_on_c, 1, 43, 0
3, 33510, Note_on_c, 1, 43, 100
3, 33540, Note_on_c, 1, 43, 0
3, 33540, Note_on_c, 1, 44, 100
3, 33600, Note_on_c, 1, 44, 0
3, 33600, Note_on_c, 1, 37, 100
3, 33660, Note_on_c, 1, 37, 0
3, 33660, Note_on_c, 1, 44, 100
3, 33690, Note_on_c, 1, 44, 0
3, 33690, Note_on_c, 1, 44, 100
3, 33720, Note_on_c, 1, 44, 0
3, 33720, Note_on_c, 1, 49, 100
3, 33840, Note_on_c, 1, 49, 0
3, 33840, Note_on_c, 1, 35, 100
3, 33870, Note_on_c, 1, 35, 0
3, 33870, Note_on_c, 1, 35, 100
3, 33900, Note_on_c, 1, 35, 0
3, 33900, Note_on_c, 1, 42, 100
3, 33930, Note_on_c, 1, 42, 0
3, 33930, Note_on_c, 1, 42, 100
3, 33960, Note_on_c, 1, 42, 0
3, 33960, Note_on_c, 1, 47, 100
3, 33990, Note_on_c, 1, 47, 0
3, 33990, Note_on_c, 1, 47, 100
3, 34020, Note_on_c, 1, 47, 0
3, 34080, Note_on_c, 1, 33, 100
3, 34140, Note_on_c, 1, 33, 0
3, 34140, Note_on_c, 1, 33, 100
3, 34170, Note_on_c, 1, 33, 0
3, 34170, Note_on_c, 1, 33, 100
3, 34200, Note_on_c, 1, 33, 0
3, 34200, Note_on_c, 1, 33, 100
3, 34260, Note_on_c, 1, 33, 0
3, 34260, Note_on_c, 1, 45, 100
3, 34290, Note_on_c, 1, 45, 0
3, 34290, Note_on_c, 1, 45, 100
3, 34320, Note_on_c, 1, 45, 0
3, 34320, Note_on_c, 1, 45, 100
3, 34380, Note_on_c, 1, 45, 0
3, 34380, Note_on_c, 1, 35, 100
3, 34410, Note_on_c, 1, 35, 0
3, 34410, Note_on_c, 1, 35, 100
3, 34440, Note_on_c, 1, 35, 0
3, 34440, Note_on_c, 1, 35, 100
3, 34470, Note_on_c, 1, 35, 0
3, 34470, Note_on_c, 1, 35, 100
3, 34500, Note_on_c, 1, 35, 0
3, 34500, Note_on_c, 1, 36, 100
3, 34530, Note_on_c, 1, 36, 0
3, 34530, Note_on_c, 1, 36, 100
3, 34560, Note_on_c, 1, 36, 0
3, 34560, Note_on_c, 1, 37, 100
3, 34620, Note_on_c, 1, 37, 0
3, 34620, Note_on_c, 1, 44, 100
3, 34650, Note_on_c, 1, 44, 0
3, 34650, Note_on_c, 1, 44, 100
3, 34680, Note_on_c, 1, 44, 0
3, 34680, Note_on_c, 1, 49, 100
3, 34800, Note_on_c, 1, 49, 0
3, 34800, Note_on_c, 1, 35, 100
3, 34830, Note_on_c, 1, 35, 0
3, 34830, Note_on_c, 1, 35, 100
3, 34860, Note_on_c, 1, 35, 0
3, 34860, Note_on_c, 1, 42, 100
3, 34890, Note_on_c, 1, 42, 0
3, 34890, Note_on_c, 1, 42, 100
3, 34920, Note_on_c, 1, 42, 0
3, 34920, Note_on_c, 1, 47, 100
3, 34950, Note_on_c, 1, 47, 0
3, 34950, Note_on_c, 1, 47, 100
3, 34980, Note_on_c, 1, 47, 0
3, 35040, Note_on_c, 1, 42, 100
3, 35070, Note_on_c, 1, 42, 0
3, 35070, Note_on_c, 1, 42, 100
3, 35130, Note_on_c, 1, 42, 0
3, 35130, Note_on_c, 1, 42, 100
3, 35160, Note_on_c, 1, 42, 0
3, 35160, Note_on_c, 1, 42, 100
3, 35190, Note_on_c, 1, 42, 0
3, 35190, Note_on_c, 1, 42, 100
3, 35220, Note_on_c, 1, 42, 0
3, 35220, Note_on_c, 1, 43, 100
3, 35280, Note_on_c, 1, 43, 0
3, 35280, Note_on_c, 1, 44, 100
3, 35310, Note_on_c, 1, 44, 0
3, 35310, Note_on_c, 1, 44, 100
3, 35340, Note_on_c, 1, 44, 0
3, 35340, Note_on_c, 1, 44, 100
3, 35400, Note_on_c, 1, 44, 0
3, 35400, Note_on_c, 1, 40, 100
3, 35430, Note_on_c, 1, 40, 0
3, 35430, Note_on_c, 1, 32, 100
3, 35460, Note_on_c, 1, 32, 0
3, 35460, Note_on_c, 1, 35, 100
3, 35520, Note_on_c, 1, 35, 0
3, 35520, Note_on_c, 1, 37, 100
3, 35580, Note_on_c, 1, 37, 0
3, 35580, Note_on_c, 1, 37, 100
3, 35640, Note_on_c, 1, 37, 0
3, 35700, Note_on_c, 1, 33, 100
3, 35760, Note_on_c, 1, 33, 0
3, 35760, Note_on_c, 1, 35, 100
3, 35820, Note_on_c, 1, 35, 0
3, 35820, Note_on_c, 1, 35, 100
3, 35880, Note_on_c, 1, 35, 0
3, 35940, Note_on_c, 1, 35, 100
3, 36000, Note_on_c, 1, 35, 0
3, 36000, Note_on_c, 1, 33, 100
3, 36060, Note_on_c, 1, 33, 0
3, 36060, Note_on_c, 1, 33, 100
3, 36120, Note_on_c, 1, 33, 0
3, 36120, Note_on_c, 1, 31, 100
3, 36150, Note_on_c, 1, 31, 0
3, 36150, Note_on_c, 1, 32, 100
3, 36180, Note_on_c, 1, 32, 0
3, 36180, Note_on_c, 1, 33, 100
3, 36240, Note_on_c, 1, 33, 0
3, 36240, Note_on_c, 1, 35, 100
3, 36270, Note_on_c, 1, 35, 0
3, 36270, Note_on_c, 1, 37, 100
3, 36300, Note_on_c, 1, 37, 0
3, 36300, Note_on_c, 1, 37, 100
3, 36330, Note_on_c, 1, 37, 0
3, 36330, Note_on_c, 1, 30, 100
3, 36360, Note_on_c, 1, 30, 0
3, 36360, Note_on_c, 1, 32, 100
3, 36390, Note_on_c, 1, 32, 0
3, 36390, Note_on_c, 1, 32, 100
3, 36420, Note_on_c, 1, 32, 0
3, 36420, Note_on_c, 1, 35, 100
3, 36480, Note_on_c, 1, 35, 0
3, 36480, Note_on_c, 1, 37, 100
3, 36540, Note_on_c, 1, 37, 0
3, 36540, Note_on_c, 1, 37, 100
3, 36570, Note_on_c, 1, 37, 0
3, 36570, Note_on_c, 1, 37, 100
3, 36600, Note_on_c, 1, 37, 0
3, 36600, Note_on_c, 1, 44, 100
3, 36630, Note_on_c, 1, 44, 0
3, 36630, Note_on_c, 1, 44, 100
3, 36660, Note_on_c, 1, 44, 0
3, 36660, Note_on_c, 1, 49, 100
3, 36720, Note_on_c, 1, 49, 0
3, 36720, Note_on_c, 1, 35, 100
3, 36750, Note_on_c, 1, 35, 0
3, 36750, Note_on_c, 1, 35, 100
3, 36780, Note_on_c, 1, 35, 0
3, 36780, Note_on_c, 1, 42, 100
3, 36840, Note_on_c, 1, 42, 0
3, 36840, Note_on_c, 1, 47, 100
3, 36900, Note_on_c, 1, 47, 0
3, 36900, Note_on_c, 1, 42, 100
3, 36930, Note_on_c, 1, 42, 0
3, 36930, Note_on_c, 1, 42, 100
3, 36960, Note_on_c, 1, 42, 0
3, 36960, Note_on_c, 1, 33, 100
3, 37020, Note_on_c, 1, 33, 0
3, 37020, Note_on_c, 1, 33, 100
3, 37080, Note_on_c, 1, 33, 0
3, 37080, Note_on_c, 1, 33, 100
3, 37110, Note_on_c, 1, 33, 0
3, 37110, Note_on_c, 1, 33, 100
3, 37140, Note_on_c, 1, 33, 0
3, 37140, Note_on_c, 1, 28, 100
3, 37200, Note_on_c, 1, 28, 0
3, 37200, Note_on_c, 1, 30, 100
3, 37260, Note_on_c, 1, 30, 0
3, 37260, Note_on_c, 1, 31, 100
3, 37320, Note_on_c, 1, 31, 0
3, 37320, Note_on_c, 1, 32, 100
3, 37380, Note_on_c, 1, 32, 0
3, 37380, Note_on_c, 1, 35, 100
3, 37440, Note_on_c, 1, 35, 0
3, 37440, Note_on_c, 1, 37, 100
3, 37500, Note_on_c, 1, 37, 0
3, 37500, Note_on_c, 1, 44, 100
3, 37560, Note_on_c, 1, 44, 0
3, 37560, Note_on_c, 1, 49, 100
3, 37620, Note_on_c, 1, 49, 0
3, 37620, Note_on_c, 1, 49, 70
3, 37650, Note_on_c, 1, 49, 0
3, 37650, Note_on_c, 1, 49, 70
3, 37680, Note_on_c, 1, 49, 0
3, 37680, Note_on_c, 1, 47, 100
3, 37710, Note_on_c, 1, 47, 0
3, 37710, Note_on_c, 1, 47, 100
3, 37740, Note_on_c, 1, 47, 0
3, 37740, Note_on_c, 1, 47, 100
3, 37800, Note_on_c, 1, 47, 0
3, 37800, Note_on_c, 1, 42, 100
3, 37860, Note_on_c, 1, 42, 0
3, 37860, Note_on_c, 1, 42, 70
3, 37890, Note_on_c, 1, 42, 0
3, 37890, Note_on_c, 1, 42, 70
3, 37920, Note_on_c, 1, 42, 0
3, 37920, Note_on_c, 1, 33, 70
3, 37980, Note_on_c, 1, 33, 0
3, 37980, Note_on_c, 1, 37, 70
3, 38040, Note_on_c, 1, 37, 0
3, 38040, Note_on_c, 1, 38, 70
3, 38100, Note_on_c, 1, 38, 0
3, 38100, Note_on_c, 1, 39, 70
3, 38130, Note_on_c, 1, 39, 0
3, 38130, Note_on_c, 1, 40, 70
3, 38190, Note_on_c, 1, 40, 0
3, 38190, Note_on_c, 1, 41, 70
3, 38220, Note_on_c, 1, 41, 0
3, 38220, Note_on_c, 1, 42, 70
3, 38280, Note_on_c, 1, 42, 0
3, 38280, Note_on_c, 1, 44, 100
3, 38340, Note_on_c, 1, 44, 0
3, 38340, Note_on_c, 1, 47, 100
3, 38400, Note_on_c, 1, 47, 0
3, 38400, Note_on_c, 1, 49, 100
3, 38460, Note_on_c, 1, 49, 0
3, 38460, Note_on_c, 1, 44, 100
3, 38520, Note_on_c, 1, 44, 0
3, 38520, Note_on_c, 1, 37, 100
3, 38610, Note_on_c, 1, 37, 0
3, 38640, Note_on_c, 1, 47, 100
3, 38700, Note_on_c, 1, 47, 0
3, 38700, Note_on_c, 1, 42, 100
3, 38760, Note_on_c, 1, 42, 0
3, 38760, Note_on_c, 1, 35, 100
3, 38850, Note_on_c, 1, 35, 0
3, 38880, Note_on_c, 1, 45, 100
3, 38940, Note_on_c, 1, 45, 0
3, 38940, Note_on_c, 1, 40, 100
3, 39000, Note_on_c, 1, 40, 0
3, 39000, Note_on_c, 1, 33, 100
3, 39060, Note_on_c, 1, 33, 0
3, 39060, Note_on_c, 1, 28, 100
3, 39120, Note_on_c, 1, 28, 0
3, 39120, Note_on_c, 1, 30, 100
3, 39180, Note_on_c, 1, 30, 0
3, 39180, Note_on_c, 1, 31, 100
3, 39240, Note_on_c, 1, 31, 0
3, 39240, Note_on_c, 1, 32, 100
3, 39300, Note_on_c, 1, 32, 0
3, 39300, Note_on_c, 1, 35, 100
3, 39360, Note_on_c, 1, 35, 0
3, 39360, Note_on_c, 1, 37, 100
3, 39480, Note_on_c, 1, 37, 0
3, 39570, Note_on_c, 1, 32, 100
3, 39600, Note_on_c, 1, 32, 0
3, 39600, Note_on_c, 1, 35, 100
3, 39660, Note_on_c, 1, 35, 0
3, 39660, Note_on_c, 1, 35, 100
3, 39720, Note_on_c, 1, 35, 0
3, 39780, Note_on_c, 1, 33, 100
3, 39810, Note_on_c, 1, 33, 0
3, 39810, Note_on_c, 1, 35, 100
3, 39840, Note_on_c, 1, 35, 0
3, 39840, Note_on_c, 1, 33, 100
3, 40080, Note_on_c, 1, 33, 0
3, 40080, Note_on_c, 1, 49, 100
3, 40110, Note_on_c, 1, 49, 0
3, 40110, Note_on_c, 1, 49, 100
3, 40140, Note_on_c, 1, 49, 0
3, 40140, Note_on_c, 1, 49, 100
3, 40200, Note_on_c, 1, 49, 0
3, 40200, Note_on_c, 1, 42, 100
3, 40230, Note_on_c, 1, 42, 0
3, 40230, Note_on_c, 1, 43, 100
3, 40260, Note_on_c, 1, 43, 0
3, 40260, Note_on_c, 1, 44, 100
3, 40320, Note_on_c, 1, 44, 0
3, 40320, Note_on_c, 1, 37, 100
3, 40530, Note_on_c, 1, 37, 0
3, 40530, Note_on_c, 1, 33, 100
3, 40560, Note_on_c, 1, 33, 0
3, 40560, Note_on_c, 1, 35, 100
3, 40620, Note_on_c, 1, 35, 0
3, 40620, Note_on_c, 1, 35, 100
3, 40710, Note_on_c, 1, 35, 0
3, 40710, Note_on_c, 1, 33, 100
3, 40740, Note_on_c, 1, 33, 0
3, 40740, Note_on_c, 1, 35, 100
3, 40800, Note_on_c, 1, 35, 0
3, 40800, Note_on_c, 1, 33, 100
3, 41010, Note_on_c, 1, 33, 0
3, 41010, Note_on_c, 1, 40, 100
3, 41040, Note_on_c, 1, 40, 0
3, 41040, Note_on_c, 1, 42, 100
3, 41100, Note_on_c, 1, 42, 0
3, 41100, Note_on_c, 1, 42, 100
3, 41160, Note_on_c, 1, 42, 0
3, 41160, Note_on_c, 1, 42, 100
3, 41220, Note_on_c, 1, 42, 0
3, 41220, Note_on_c, 1, 40, 100
3, 41250, Note_on_c, 1, 40, 0
3, 41250, Note_on_c, 1, 37, 100
3, 41280, Note_on_c, 1, 37, 0
3, 41280, Note_on_c, 1, 37, 100
3, 41490, Note_on_c, 1, 37, 0
3, 41490, Note_on_c, 1, 42, 100
3, 41520, Note_on_c, 1, 42, 0
3, 41520, Note_on_c, 1, 35, 100
3, 41580, Note_on_c, 1, 35, 0
3, 41580, Note_on_c, 1, 35, 100
3, 41700, Note_on_c, 1, 35, 0
3, 41700, Note_on_c, 1, 35, 100
3, 41760, Note_on_c, 1, 35, 0
3, 41760, Note_on_c, 1, 33, 100
3, 41820, Note_on_c, 1, 33, 0
3, 41820, Note_on_c, 1, 33, 100
3, 41940, Note_on_c, 1, 33, 0
3, 42000, Note_on_c, 1, 45, 100
3, 42120, Note_on_c, 1, 45, 0
3, 42120, Note_on_c, 1, 35, 100
3, 42150, Note_on_c, 1, 35, 0
3, 42150, Note_on_c, 1, 35, 100
3, 42180, Note_on_c, 1, 35, 0
3, 42210, Note_on_c, 1, 33, 100
3, 42240, Note_on_c, 1, 33, 0
3, 42240, Note_on_c, 1, 37, 100
3, 42450, Note_on_c, 1, 37, 0
3, 42450, Note_on_c, 1, 33, 100
3, 42480, Note_on_c, 1, 33, 0
3, 42480, Note_on_c, 1, 35, 100
3, 42540, Note_on_c, 1, 35, 0
3, 42540, Note_on_c, 1, 35, 100
3, 42630, Note_on_c, 1, 35, 0
3, 42630, Note_on_c, 1, 33, 100
3, 42660, Note_on_c, 1, 33, 0
3, 42660, Note_on_c, 1, 33, 100
3, 42720, Note_on_c, 1, 33, 0
3, 42720, Pitch_bend_c, 1, 0
3, 42720, Note_on_c, 1, 42, 100
3, 42721, Pitch_bend_c, 1, 128
3, 42722, Pitch_bend_c, 1, 256
3, 42723, Pitch_bend_c, 1, 384
3, 42724, Pitch_bend_c, 1, 512
3, 42725, Pitch_bend_c, 1, 640
3, 42726, Pitch_bend_c, 1, 768
3, 42727, Pitch_bend_c, 1, 896
3, 42728, Pitch_bend_c, 1, 1024
3, 42729, Pitch_bend_c, 1, 1152
3, 42730, Pitch_bend_c, 1, 1408
3, 42731, Pitch_bend_c, 1, 1536
3, 42732, Pitch_bend_c, 1, 1664
3, 42733, Pitch_bend_c, 1, 1792
3, 42734, Pitch_bend_c, 1, 1920
3, 42735, Pitch_bend_c, 1, 2048
3, 42736, Pitch_bend_c, 1, 2176
3, 42737, Pitch_bend_c, 1, 2304
3, 42738, Pitch_bend_c, 1, 2432
3, 42739, Pitch_bend_c, 1, 2560
3, 42740, Pitch_bend_c, 1, 2816
3, 42741, Pitch_bend_c, 1, 2944
3, 42742, Pitch_bend_c, 1, 3072
3, 42743, Pitch_bend_c, 1, 3200
3, 42744, Pitch_bend_c, 1, 3328
3, 42745, Pitch_bend_c, 1, 3456
3, 42746, Pitch_bend_c, 1, 3584
3, 42747, Pitch_bend_c, 1, 3712
3, 42748, Pitch_bend_c, 1, 3840
3, 42749, Pitch_bend_c, 1, 4096
3, 42750, Pitch_bend_c, 1, 4224
3, 42751, Pitch_bend_c, 1, 4352
3, 42752, Pitch_bend_c, 1, 4480
3, 42753, Pitch_bend_c, 1, 4608
3, 42754, Pitch_bend_c, 1, 4736
3, 42755, Pitch_bend_c, 1, 4864
3, 42756, Pitch_bend_c, 1, 4992
3, 42757, Pitch_bend_c, 1, 5120
3, 42758, Pitch_bend_c, 1, 5248
3, 42759, Pitch_bend_c, 1, 5504
3, 42760, Pitch_bend_c, 1, 5632
3, 42761, Pitch_bend_c, 1, 5760
3, 42762, Pitch_bend_c, 1, 5888
3, 42763, Pitch_bend_c, 1, 6016
3, 42764, Pitch_bend_c, 1, 6144
3, 42765, Pitch_bend_c, 1, 6272
3, 42766, Pitch_bend_c, 1, 6400
3, 42767, Pitch_bend_c, 1, 6528
3, 42768, Pitch_bend_c, 1, 6656
3, 42769, Pitch_bend_c, 1, 6912
3, 42770, Pitch_bend_c, 1, 7040
3, 42771, Pitch_bend_c, 1, 7168
3, 42772, Pitch_bend_c, 1, 7296
3, 42773, Pitch_bend_c, 1, 7424
3, 42774, Pitch_bend_c, 1, 7552
3, 42775, Pitch_bend_c, 1, 7680
3, 42776, Pitch_bend_c, 1, 7808
3, 42777, Pitch_bend_c, 1, 7936
3, 42778, Pitch_bend_c, 1, 8192
3, 42960, Note_on_c, 1, 42, 0
3, 42960, Pitch_bend_c, 1, 128
3, 42960, Note_on_c, 1, 54, 100
3, 42961, Pitch_bend_c, 1, 256
3, 42962, Pitch_bend_c, 1, 384
3, 42963, Pitch_bend_c, 1, 640
3, 42964, Pitch_bend_c, 1, 768
3, 42965, Pitch_bend_c, 1, 1024
3, 42966, Pitch_bend_c, 1, 1152
3, 42967, Pitch_bend_c, 1, 1408
3, 42968, Pitch_bend_c, 1, 1536
3, 42969, Pitch_bend_c, 1, 1792
3, 42970, Pitch_bend_c, 1, 1920
3, 42971, Pitch_bend_c, 1, 2176
3, 42972, Pitch_bend_c, 1, 2304
3, 42973, Pitch_bend_c, 1, 2560
3, 42974, Pitch_bend_c, 1, 2688
3, 42975, Pitch_bend_c, 1, 2816
3, 42976, Pitch_bend_c, 1, 3072
3, 42977, Pitch_bend_c, 1, 3200
3, 42978, Pitch_bend_c, 1, 3456
3, 42979, Pitch_bend_c, 1, 3584
3, 42980, Pitch_bend_c, 1, 3840
3, 42981, Pitch_bend_c, 1, 3968
3, 42982, Pitch_bend_c, 1, 4224
3, 42983, Pitch_bend_c, 1, 4352
3, 42984, Pitch_bend_c, 1, 4608
3, 42985, Pitch_bend_c, 1, 4736
3, 42986, Pitch_bend_c, 1, 4992
3, 42987, Pitch_bend_c, 1, 5120
3, 42988, Pitch_bend_c, 1, 5376
3, 42989, Pitch_bend_c, 1, 5504
3, 42990, Pitch_bend_c, 1, 5632
3, 42991, Pitch_bend_c, 1, 5888
3, 42992, Pitch_bend_c, 1, 6016
3, 42993, Pitch_bend_c, 1, 6272
3, 42994, Pitch_bend_c, 1, 6400
3, 42995, Pitch_bend_c, 1, 6656
3, 42996, Pitch_bend_c, 1, 6784
3, 42997, Pitch_bend_c, 1, 7040
3, 42998, Pitch_bend_c, 1, 7168
3, 42999, Pitch_bend_c, 1, 7424
3, 43000, Pitch_bend_c, 1, 7552
3, 43001, Pitch_bend_c, 1, 7808
3, 43002, Pitch_bend_c, 1, 7936
3, 43003, Pitch_bend_c, 1, 8192
3, 43020, Note_on_c, 1, 54, 0
3, 43020, Note_on_c, 1, 42, 100
3, 43110, Note_on_c, 1, 42, 0
3, 43110, Note_on_c, 1, 48, 100
3, 43140, Note_on_c, 1, 48, 0
3, 43140, Note_on_c, 1, 49, 100
3, 43200, Note_on_c, 1, 49, 0
3, 43200, Note_on_c, 1, 37, 100
3, 43410, Note_on_c, 1, 37, 0
3, 43410, Note_on_c, 1, 33, 100
3, 43440, Note_on_c, 1, 33, 0
3, 43440, Note_on_c, 1, 35, 100
3, 43500, Note_on_c, 1, 35, 0
3, 43500, Note_on_c, 1, 35, 100
3, 43590, Note_on_c, 1, 35, 0
3, 43590, Note_on_c, 1, 42, 100
3, 43620, Note_on_c, 1, 42, 0
3, 43620, Note_on_c, 1, 35, 100
3, 43680, Note_on_c, 1, 35, 0
3, 43680, Note_on_c, 1, 33, 100
3, 43860, Note_on_c, 1, 33, 0
3, 43860, Note_on_c, 1, 33, 100
3, 43890, Note_on_c, 1, 33, 0
3, 43890, Note_on_c, 1, 33, 100
3, 43920, Note_on_c, 1, 33, 0
3, 43920, Pitch_bend_c, 1, 0
3, 43920, Note_on_c, 1, 47, 100
3, 43921, Pitch_bend_c, 1, 384
3, 43922, Pitch_bend_c, 1, 768
3, 43923, Pitch_bend_c, 1, 1152
3, 43924, Pitch_bend_c, 1, 1536
3, 43925, Pitch_bend_c, 1, 1920
3, 43926, Pitch_bend_c, 1, 2304
3, 43927, Pitch_bend_c, 1, 2688
3, 43928, Pitch_bend_c, 1, 3072
3, 43929, Pitch_bend_c, 1, 3456
3, 43930, Pitch_bend_c, 1, 3840
3, 43931, Pitch_bend_c, 1, 4224
3, 43932, Pitch_bend_c, 1, 4608
3, 43933, Pitch_bend_c, 1, 4992
3, 43934, Pitch_bend_c, 1, 5376
3, 43935, Pitch_bend_c, 1, 5760
3, 43936, Pitch_bend_c, 1, 6144
3, 43937, Pitch_bend_c, 1, 6528
3, 43938, Pitch_bend_c, 1, 6912
3, 43939, Pitch_bend_c, 1, 7296
3, 43940, Pitch_bend_c, 1, 7680
3, 43941, Pitch_bend_c, 1, 8192
3, 43950, Note_on_c, 1, 47, 0
3, 43950, Note_on_c, 1, 47, 100
3, 43980, Note_on_c, 1, 47, 0
3, 43980, Note_on_c, 1, 47, 100
3, 44010, Note_on_c, 1, 47, 0
3, 44010, Note_on_c, 1, 47, 100
3, 44040, Note_on_c, 1, 47, 0
3, 44040, Note_on_c, 1, 49, 100
3, 44041, Pitch_bend_c, 1, 0
3, 44042, Pitch_bend_c, 1, 384
3, 44043, Pitch_bend_c, 1, 896
3, 44044, Pitch_bend_c, 1, 1280
3, 44045, Pitch_bend_c, 1, 1792
3, 44046, Pitch_bend_c, 1, 2176
3, 44047, Pitch_bend_c, 1, 2688
3, 44048, Pitch_bend_c, 1, 3072
3, 44049, Pitch_bend_c, 1, 3584
3, 44050, Pitch_bend_c, 1, 4096
3, 44051, Pitch_bend_c, 1, 4480
3, 44052, Pitch_bend_c, 1, 4992
3, 44053, Pitch_bend_c, 1, 5376
3, 44054, Pitch_bend_c, 1, 5888
3, 44055, Pitch_bend_c, 1, 6272
3, 44056, Pitch_bend_c, 1, 6784
3, 44057, Pitch_bend_c, 1, 7168
3, 44058, Pitch_bend_c, 1, 7680
3, 44059, Pitch_bend_c, 1, 8192
3, 44070, Note_on_c, 1, 49, 0
3, 44070, Note_on_c, 1, 49, 100
3, 44100, Note_on_c, 1, 49, 0
3, 44100, Note_on_c, 1, 49, 100
3, 44160, Note_on_c, 1, 49, 0
3, 44160, Note_on_c, 1, 37, 100
3, 44370, Note_on_c, 1, 37, 0
3, 44370, Note_on_c, 1, 33, 100
3, 44400, Note_on_c, 1, 33, 0
3, 44400, Note_on_c, 1, 35, 100
3, 44460, Note_on_c, 1, 35, 0
3, 44460, Note_on_c, 1, 35, 100
3, 44550, Note_on_c, 1, 35, 0
3, 44550, Note_on_c, 1, 33, 100
3, 44580, Note_on_c, 1, 33, 0
3, 44580, Note_on_c, 1, 35, 100
3, 44640, Note_on_c, 1, 35, 0
3, 44640, Note_on_c, 1, 33, 100
3, 44760, Note_on_c, 1, 33, 0
3, 44760, Note_on_c, 1, 49, 100
3, 44790, Note_on_c, 1, 49, 0
3, 44790, Note_on_c, 1, 37, 100
3, 44820, Note_on_c, 1, 37, 0
3, 44820, Note_on_c, 1, 49, 100
3, 44850, Note_on_c, 1, 49, 0
3, 44850, Note_on_c, 1, 49, 100
3, 44880, Note_on_c, 1, 49, 0
3, 44880, Note_on_c, 1, 49, 100
3, 44940, Note_on_c, 1, 49, 0
3, 44940, Note_on_c, 1, 37, 100
3, 44970, Note_on_c, 1, 37, 0
3, 44970, Note_on_c, 1, 44, 100
3, 45000, Note_on_c, 1, 44, 0
3, 45000, Note_on_c, 1, 49, 100
3, 45030, Note_on_c, 1, 49, 0
3, 45030, Note_on_c, 1, 37, 100
3, 45060, Note_on_c, 1, 37, 0
3, 45060, Note_on_c, 1, 49, 100
3, 45120, Note_on_c, 1, 49, 0
3, 45120, Note_on_c, 1, 37, 100
3, 45330, Note_on_c, 1, 37, 0
3, 45330, Note_on_c, 1, 33, 100
3, 45360, Note_on_c, 1, 33, 0
3, 45360, Note_on_c, 1, 35, 100
3, 45420, Note_on_c, 1, 35, 0
3, 45420, Note_on_c, 1, 35, 100
3, 45510, Note_on_c, 1, 35, 0
3, 45510, Note_on_c, 1, 47, 100
3, 45540, Note_on_c, 1, 47, 0
3, 45540, Note_on_c, 1, 35, 100
3, 45600, Note_on_c, 1, 35, 0
3, 45600, Note_on_c, 1, 33, 100
3, 45780, Note_on_c, 1, 33, 0
3, 45780, Note_on_c, 1, 33, 100
3, 45840, Note_on_c, 1, 33, 0
3, 45840, Note_on_c, 1, 49, 100
3, 45870, Note_on_c, 1, 49, 0
3, 45870, Note_on_c, 1, 49, 100
3, 45900, Note_on_c, 1, 49, 0
3, 45960, Note_on_c, 1, 42, 100
3, 45990, Note_on_c, 1, 42, 0
3, 45990, Note_on_c, 1, 42, 100
3, 46020, Note_on_c, 1, 42, 0
3, 46020, Note_on_c, 1, 40, 100
3, 46080, Note_on_c, 1, 40, 0
3, 46080, Note_on_c, 1, 37, 100
3, 46290, Note_on_c, 1, 37, 0
3, 46290, Note_on_c, 1, 33, 100
3, 46320, Note_on_c, 1, 33, 0
3, 46320, Note_on_c, 1, 35, 100
3, 46380, Note_on_c, 1, 35, 0
3, 46380, Note_on_c, 1, 35, 100
3, 46440, Note_on_c, 1, 35, 0
3, 46560, Note_on_c, 1, 49, 100
3, 46590, Note_on_c, 1, 49, 0
3, 46590, Note_on_c, 1, 49, 100
3, 46620, Note_on_c, 1, 49, 0
3, 46620, Note_on_c, 1, 43, 100
3, 46650, Note_on_c, 1, 43, 0
3, 46650, Note_on_c, 1, 53, 100
3, 46740, Note_on_c, 1, 53, 0
3, 46740, Note_on_c, 1, 54, 100
3, 46770, Note_on_c, 1, 54, 0
3, 46770, Note_on_c, 1, 54, 100
3, 46800, Note_on_c, 1, 54, 0
3, 46800, Note_on_c, 1, 54, 100
3, 46830, Note_on_c, 1, 54, 0
3, 46830, Note_on_c, 1, 55, 100
3, 46860, Note_on_c, 1, 55, 0
3, 46860, Note_on_c, 1, 55, 100
3, 46890, Note_on_c, 1, 55, 0
3, 46890, Note_on_c, 1, 55, 100
3, 46920, Note_on_c, 1, 55, 0
3, 46920, Note_on_c, 1, 56, 100
3, 46950, Note_on_c, 1, 56, 0
3, 46950, Note_on_c, 1, 56, 100
3, 46980, Note_on_c, 1, 56, 0
3, 46980, Note_on_c, 1, 56, 100
3, 47040, Note_on_c, 1, 56, 0
3, 47040, Note_on_c, 1, 49, 100
3, 47100, Note_on_c, 1, 49, 0
3, 47100, Note_on_c, 1, 44, 100
3, 47160, Note_on_c, 1, 44, 0
3, 47160, Note_on_c, 1, 37, 100
3, 47220, Note_on_c, 1, 37, 0
3, 47220, Note_on_c, 1, 44, 100
3, 47280, Note_on_c, 1, 44, 0
3, 47280, Note_on_c, 1, 47, 100
3, 47310, Note_on_c, 1, 47, 0
3, 47310, Note_on_c, 1, 47, 100
3, 47340, Note_on_c, 1, 47, 0
3, 47340, Note_on_c, 1, 42, 100
3, 47400, Note_on_c, 1, 42, 0
3, 47400, Note_on_c, 1, 35, 100
3, 47460, Note_on_c, 1, 35, 0
3, 47460, Note_on_c, 1, 42, 100
3, 47520, Note_on_c, 1, 42, 0
3, 47520, Note_on_c, 1, 45, 100
3, 47550, Note_on_c, 1, 45, 0
3, 47550, Note_on_c, 1, 45, 100
3, 47580, Note_on_c, 1, 45, 0
3, 47580, Note_on_c, 1, 40, 100
3, 47640, Note_on_c, 1, 40, 0
3, 47640, Note_on_c, 1, 45, 100
3, 47700, Note_on_c, 1, 45, 0
3, 47700, Note_on_c, 1, 40, 100
3, 47730, Note_on_c, 1, 40, 0
3, 47730, Note_on_c, 1, 40, 100
3, 47760, Note_on_c, 1, 40, 0
3, 47760, Note_on_c, 1, 49, 100
3, 47790, Note_on_c, 1, 49, 0
3, 47790, Note_on_c, 1, 49, 100
3, 47820, Note_on_c, 1, 49, 0
3, 47820, Note_on_c, 1, 49, 100
3, 47850, Note_on_c, 1, 49, 0
3, 47850, Note_on_c, 1, 49, 100
3, 47880, Note_on_c, 1, 49, 0
3, 47880, Note_on_c, 1, 42, 100
3, 47910, Note_on_c, 1, 42, 0
3, 47910, Note_on_c, 1, 44, 100
3, 47940, Note_on_c, 1, 44, 0
3, 47940, Note_on_c, 1, 44, 100
3, 48000, Note_on_c, 1, 44, 0
3, 48000, Note_on_c, 1, 37, 100
3, 48060, Note_on_c, 1, 37, 0
3, 48060, Note_on_c, 1, 44, 100
3, 48090, Note_on_c, 1, 44, 0
3, 48090, Note_on_c, 1, 44, 100
3, 48120, Note_on_c, 1, 44, 0
3, 48120, Note_on_c, 1, 49, 100
3, 48150, Note_on_c, 1, 49, 0
3, 48150, Note_on_c, 1, 49, 100
3, 48180, Note_on_c, 1, 49, 0
3, 48180, Note_on_c, 1, 44, 100
3, 48240, Note_on_c, 1, 44, 0
3, 48240, Note_on_c, 1, 35, 100
3, 48300, Note_on_c, 1, 35, 0
3, 48300, Note_on_c, 1, 42, 100
3, 48360, Note_on_c, 1, 42, 0
3, 48360, Note_on_c, 1, 47, 100
3, 48420, Note_on_c, 1, 47, 0
3, 48420, Note_on_c, 1, 42, 100
3, 48480, Note_on_c, 1, 42, 0
3, 48480, Note_on_c, 1, 33, 100
3, 48540, Note_on_c, 1, 33, 0
3, 48540, Note_on_c, 1, 40, 100
3, 48600, Note_on_c, 1, 40, 0
3, 48600, Note_on_c, 1, 45, 100
3, 48630, Note_on_c, 1, 45, 0
3, 48630, Note_on_c, 1, 45, 100
3, 48660, Note_on_c, 1, 45, 0
3, 48660, Note_on_c, 1, 45, 100
3, 48720, Note_on_c, 1, 45, 0
3, 48720, Note_on_c, 1, 36, 100
3, 48750, Note_on_c, 1, 36, 0
3, 48750, Note_on_c, 1, 37, 100
3, 48780, Note_on_c, 1, 37, 0
3, 48780, Note_on_c, 1, 37, 100
3, 48810, Note_on_c, 1, 37, 0
3, 48810, Note_on_c, 1, 35, 100
3, 48840, Note_on_c, 1, 35, 0
3, 48840, Note_on_c, 1, 35, 100
3, 48870, Note_on_c, 1, 35, 0
3, 48870, Note_on_c, 1, 35, 100
3, 48900, Note_on_c, 1, 35, 0
3, 48900, Note_on_c, 1, 36, 100
3, 48930, Note_on_c, 1, 36, 0
3, 48930, Note_on_c, 1, 36, 100
3, 48960, Note_on_c, 1, 36, 0
3, 48960, Note_on_c, 1, 37, 100
3, 49080, Note_on_c, 1, 37, 0
3, 49080, Note_on_c, 1, 42, 100
3, 49110, Note_on_c, 1, 42, 0
3, 49110, Note_on_c, 1, 43, 100
3, 49140, Note_on_c, 1, 43, 0
3, 49140, Note_on_c, 1, 44, 100
3, 49200, Note_on_c, 1, 44, 0
3, 49200, Note_on_c, 1, 35, 100
3, 49260, Note_on_c, 1, 35, 0
3, 49260, Note_on_c, 1, 47, 100
3, 49290, Note_on_c, 1, 47, 0
3, 49320, Note_on_c, 1, 40, 100
3, 49350, Note_on_c, 1, 40, 0
3, 49350, Note_on_c, 1, 41, 100
3, 49380, Note_on_c, 1, 41, 0
3, 49380, Note_on_c, 1, 42, 100
3, 49410, Note_on_c, 1, 42, 0
3, 49410, Note_on_c, 1, 33, 100
3, 49440, Note_on_c, 1, 33, 0
3, 49440, Note_on_c, 1, 33, 100
3, 49560, Note_on_c, 1, 33, 0
3, 49560, Note_on_c, 1, 37, 100
3, 49620, Note_on_c, 1, 37, 0
3, 49620, Note_on_c, 1, 38, 100
3, 49650, Note_on_c, 1, 38, 0
3, 49650, Note_on_c, 1, 40, 100
3, 49680, Note_on_c, 1, 40, 0
3, 49680, Note_on_c, 1, 35, 100
3, 49770, Note_on_c, 1, 35, 0
3, 49770, Note_on_c, 1, 42, 100
3, 49800, Note_on_c, 1, 42, 0
3, 49800, Note_on_c, 1, 47, 100
3, 49830, Note_on_c, 1, 47, 0
3, 49860, Note_on_c, 1, 35, 100
3, 49920, Note_on_c, 1, 35, 0
3, 49920, Note_on_c, 1, 37, 100
3, 49980, Note_on_c, 1, 37, 0
3, 49980, Note_on_c, 1, 44, 100
3, 50010, Note_on_c, 1, 44, 0
3, 50010, Note_on_c, 1, 44, 100
3, 50040, Note_on_c, 1, 44, 0
3, 50040, Note_on_c, 1, 49, 100
3, 50100, Note_on_c, 1, 49, 0
3, 50130, Note_on_c, 1, 44, 100
3, 50160, Note_on_c, 1, 44, 0
3, 50160, Note_on_c, 1, 47, 100
3, 50190, Note_on_c, 1, 47, 0
3, 50190, Note_on_c, 1, 47, 100
3, 50220, Note_on_c, 1, 47, 0
3, 50220, Note_on_c, 1, 42, 100
3, 50280, Note_on_c, 1, 42, 0
3, 50280, Note_on_c, 1, 35, 100
3, 50340, Note_on_c, 1, 35, 0
3, 50400, Pitch_bend_c, 1, 128
3, 50400, Note_on_c, 1, 54, 100
3, 50401, Pitch_bend_c, 1, 384
3, 50402, Pitch_bend_c, 1, 640
3, 50403, Pitch_bend_c, 1, 1024
3, 50404, Pitch_bend_c, 1, 1280
3, 50405, Pitch_bend_c, 1, 1536
3, 50406, Pitch_bend_c, 1, 1920
3, 50407, Pitch_bend_c, 1, 2176
3, 50408, Pitch_bend_c, 1, 2432
3, 50409, Pitch_bend_c, 1, 2816
3, 50410, Pitch_bend_c, 1, 3072
3, 50411, Pitch_bend_c, 1, 3328
3, 50412, Pitch_bend_c, 1, 3712
3, 50413, Pitch_bend_c, 1, 3968
3, 50414, Pitch_bend_c, 1, 4224
3, 50415, Pitch_bend_c, 1, 4608
3, 50416, Pitch_bend_c, 1, 4864
3, 50417, Pitch_bend_c, 1, 5120
3, 50418, Pitch_bend_c, 1, 5504
3, 50419, Pitch_bend_c, 1, 5760
3, 50420, Pitch_bend_c, 1, 6016
3, 50421, Pitch_bend_c, 1, 6400
3, 50422, Pitch_bend_c, 1, 6656
3, 50423, Pitch_bend_c, 1, 6912
3, 50424, Pitch_bend_c, 1, 7296
3, 50425, Pitch_bend_c, 1, 7552
3, 50426, Pitch_bend_c, 1, 7808
3, 50427, Pitch_bend_c, 1, 8192
3, 50430, Note_on_c, 1, 54, 0
3, 50430, Note_on_c, 1, 54, 100
3, 50460, Note_on_c, 1, 54, 0
3, 50460, Note_on_c, 1, 54, 100
3, 50490, Note_on_c, 1, 54, 0
3, 50490, Note_on_c, 1, 47, 100
3, 50520, Note_on_c, 1, 47, 0
3, 50520, Pitch_bend_c, 1, 0
3, 50520, Note_on_c, 1, 49, 100
3, 50521, Pitch_bend_c, 1, 256
3, 50522, Pitch_bend_c, 1, 512
3, 50523, Pitch_bend_c, 1, 768
3, 50524, Pitch_bend_c, 1, 1024
3, 50525, Pitch_bend_c, 1, 1408
3, 50526, Pitch_bend_c, 1, 1664
3, 50527, Pitch_bend_c, 1, 1920
3, 50528, Pitch_bend_c, 1, 2176
3, 50529, Pitch_bend_c, 1, 2432
3, 50530, Pitch_bend_c, 1, 2816
3, 50531, Pitch_bend_c, 1, 3072
3, 50532, Pitch_bend_c, 1, 3328
3, 50533, Pitch_bend_c, 1, 3584
3, 50534, Pitch_bend_c, 1, 3840
3, 50535, Pitch_bend_c, 1, 4224
3, 50536, Pitch_bend_c, 1, 4480
3, 50537, Pitch_bend_c, 1, 4736
3, 50538, Pitch_bend_c, 1, 4992
3, 50539, Pitch_bend_c, 1, 5248
3, 50540, Pitch_bend_c, 1, 5632
3, 50541, Pitch_bend_c, 1, 5888
3, 50542, Pitch_bend_c, 1, 6144
3, 50543, Pitch_bend_c, 1, 6400
3, 50544, Pitch_bend_c, 1, 6656
3, 50545, Pitch_bend_c, 1, 7040
3, 50546, Pitch_bend_c, 1, 7296
3, 50547, Pitch_bend_c, 1, 7552
3, 50548, Pitch_bend_c, 1, 7808
3, 50549, Pitch_bend_c, 1, 8192
3, 50550, Note_on_c, 1, 49, 0
3, 50550, Note_on_c, 1, 49, 100
3, 50580, Note_on_c, 1, 49, 0
3, 50580, Note_on_c, 1, 49, 100
3, 50610, Note_on_c, 1, 49, 0
3, 50610, Note_on_c, 1, 49, 100
3, 50640, Note_on_c, 1, 49, 0
3, 50640, Note_on_c, 1, 42, 100
3, 50670, Note_on_c, 1, 42, 0
3, 50670, Pitch_bend_c, 1, 128
3, 50670, Note_on_c, 1, 44, 100
3, 50671, Pitch_bend_c, 1, 384
3, 50672, Pitch_bend_c, 1, 640
3, 50673, Pitch_bend_c, 1, 1024
3, 50674, Pitch_bend_c, 1, 1280
3, 50675, Pitch_bend_c, 1, 1536
3, 50676, Pitch_bend_c, 1, 1920
3, 50677, Pitch_bend_c, 1, 2176
3, 50678, Pitch_bend_c, 1, 2432
3, 50679, Pitch_bend_c, 1, 2816
3, 50680, Pitch_bend_c, 1, 3072
3, 50681, Pitch_bend_c, 1, 3328
3, 50682, Pitch_bend_c, 1, 3712
3, 50683, Pitch_bend_c, 1, 3968
3, 50684, Pitch_bend_c, 1, 4224
3, 50685, Pitch_bend_c, 1, 4608
3, 50686, Pitch_bend_c, 1, 4864
3, 50687, Pitch_bend_c, 1, 5120
3, 50688, Pitch_bend_c, 1, 5504
3, 50689, Pitch_bend_c, 1, 5760
3, 50690, Pitch_bend_c, 1, 6016
3, 50691, Pitch_bend_c, 1, 6400
3, 50692, Pitch_bend_c, 1, 6656
3, 50693, Pitch_bend_c, 1, 6912
3, 50694, Pitch_bend_c, 1, 7296
3, 50695, Pitch_bend_c, 1, 7552
3, 50696, Pitch_bend_c, 1, 7808
3, 50697, Pitch_bend_c, 1, 8192
3, 50700, Note_on_c, 1, 44, 0
3, 50700, Note_on_c, 1, 44, 100
3, 50730, Note_on_c, 1, 44, 0
3, 50730, Note_on_c, 1, 44, 100
3, 50760, Note_on_c, 1, 44, 0
3, 50760, Note_on_c, 1, 42, 100
3, 50790, Note_on_c, 1, 42, 0
3, 50790, Note_on_c, 1, 44, 100
3, 50820, Note_on_c, 1, 44, 0
3, 50820, Note_on_c, 1, 40, 100
3, 50880, Note_on_c, 1, 40, 0
3, 50880, Note_on_c, 1, 37, 100
3, 50940, Note_on_c, 1, 37, 0
3, 50940, Note_on_c, 1, 37, 100
3, 51000, Note_on_c, 1, 37, 0
3, 51120, Note_on_c, 1, 35, 100
3, 51180, Note_on_c, 1, 35, 0
3, 51180, Note_on_c, 1, 35, 100
3, 51240, Note_on_c, 1, 35, 0
3, 51270, Note_on_c, 1, 35, 100
3, 51300, Note_on_c, 1, 35, 0
3, 51300, Note_on_c, 1, 35, 100
3, 51360, Note_on_c, 1, 35, 0
3, 51360, Note_on_c, 1, 33, 100
3, 51390, Note_on_c, 1, 33, 0
3, 51390, Note_on_c, 1, 33, 100
3, 51420, Note_on_c, 1, 33, 0
3, 51420, Note_on_c, 1, 33, 100
3, 51480, Note_on_c, 1, 33, 0
3, 51480, Note_on_c, 1, 45, 100
3, 51510, Note_on_c, 1, 45, 0
3, 51510, Note_on_c, 1, 42, 100
3, 51540, Note_on_c, 1, 42, 0
3, 51540, Note_on_c, 1, 44, 100
3, 51570, Note_on_c, 1, 44, 0
3, 51570, Note_on_c, 1, 45, 100
3, 51600, Note_on_c, 1, 45, 0
3, 51600, Note_on_c, 1, 47, 100
3, 51660, Note_on_c, 1, 47, 0
3, 51660, Note_on_c, 1, 48, 100
3, 51720, Note_on_c, 1, 48, 0
3, 51720, Note_on_c, 1, 49, 100
3, 51780, Note_on_c, 1, 49, 0
3, 51780, Note_on_c, 1, 49, 100
3, 51810, Note_on_c, 1, 49, 0
3, 51810, Note_on_c, 1, 49, 100
3, 51840, Note_on_c, 1, 49, 0
3, 51840, Note_on_c, 1, 47, 100
3, 51840, Note_on_c, 1, 49, 100
3, 51855, Note_on_c, 1, 47, 0
3, 51900, Note_on_c, 1, 49, 0
3, 51900, Note_on_c, 1, 49, 100
3, 51930, Note_on_c, 1, 49, 0
3, 51930, Note_on_c, 1, 49, 100
3, 51960, Note_on_c, 1, 49, 0
3, 51960, Note_on_c, 1, 42, 100
3, 52020, Note_on_c, 1, 42, 0
3, 52020, Note_on_c, 1, 44, 100
3, 52050, Note_on_c, 1, 44, 0
3, 52050, Note_on_c, 1, 44, 100
3, 52080, Note_on_c, 1, 44, 0
3, 52080, Note_on_c, 1, 45, 100
3, 52140, Note_on_c, 1, 45, 0
3, 52140, Note_on_c, 1, 45, 100
3, 52170, Note_on_c, 1, 45, 0
3, 52170, Note_on_c, 1, 45, 100
3, 52200, Note_on_c, 1, 45, 0
3, 52200, Note_on_c, 1, 42, 100
3, 52230, Note_on_c, 1, 42, 0
3, 52230, Note_on_c, 1, 42, 100
3, 52260, Note_on_c, 1, 42, 0
3, 52260, Note_on_c, 1, 43, 100
3, 52290, Note_on_c, 1, 43, 0
3, 52290, Note_on_c, 1, 44, 100
3, 52320, Note_on_c, 1, 44, 0
3, 52320, Note_on_c, 1, 45, 100
3, 52380, Note_on_c, 1, 45, 0
3, 52380, Note_on_c, 1, 45, 100
3, 52440, Note_on_c, 1, 45, 0
3, 52500, Note_on_c, 1, 55, 100
3, 52500, Note_on_c, 1, 52, 100
3, 52530, Note_on_c, 1, 52, 0
3, 52530, Note_on_c, 1, 55, 0
3, 52530, Note_on_c, 1, 55, 100
3, 52530, Note_on_c, 1, 52, 100
3, 52560, Note_on_c, 1, 52, 0
3, 52560, Note_on_c, 1, 55, 0
3, 52560, Pitch_bend_c, 1, 0
3, 52560, Note_on_c, 1, 57, 100
3, 52561, Pitch_bend_c, 1, 128
3, 52562, Pitch_bend_c, 1, 256
3, 52563, Pitch_bend_c, 1, 384
3, 52564, Pitch_bend_c, 1, 640
3, 52565, Pitch_bend_c, 1, 768
3, 52566, Pitch_bend_c, 1, 896
3, 52567, Pitch_bend_c, 1, 1024
3, 52568, Pitch_bend_c, 1, 1280
3, 52569, Pitch_bend_c, 1, 1408
3, 52570, Pitch_bend_c, 1, 1536
3, 52571, Pitch_bend_c, 1, 1664
3, 52572, Pitch_bend_c, 1, 1920
3, 52573, Pitch_bend_c, 1, 2048
3, 52574, Pitch_bend_c, 1, 2176
3, 52575, Pitch_bend_c, 1, 2304
3, 52576, Pitch_bend_c, 1, 2560
3, 52577, Pitch_bend_c, 1, 2688
3, 52578, Pitch_bend_c, 1, 2816
3, 52579, Pitch_bend_c, 1, 2944
3, 52580, Pitch_bend_c, 1, 3200
3, 52581, Pitch_bend_c, 1, 3328
3, 52582, Pitch_bend_c, 1, 3456
3, 52583, Pitch_bend_c, 1, 3584
3, 52584, Pitch_bend_c, 1, 3840
3, 52585, Pitch_bend_c, 1, 3968
3, 52586, Pitch_bend_c, 1, 4096
3, 52587, Pitch_bend_c, 1, 4224
3, 52588, Pitch_bend_c, 1, 4480
3, 52589, Pitch_bend_c, 1, 4608
3, 52590, Pitch_bend_c, 1, 4736
3, 52591, Pitch_bend_c, 1, 4864
3, 52592, Pitch_bend_c, 1, 5120
3, 52593, Pitch_bend_c, 1, 5248
3, 52594, Pitch_bend_c, 1, 5376
3, 52595, Pitch_bend_c, 1, 5504
3, 52596, Pitch_bend_c, 1, 5760
3, 52597, Pitch_bend_c, 1, 5888
3, 52598, Pitch_bend_c, 1, 6016
3, 52599, Pitch_bend_c, 1, 6144
3, 52600, Pitch_bend_c, 1, 6400
3, 52601, Pitch_bend_c, 1, 6528
3, 52602, Pitch_bend_c, 1, 6656
3, 52603, Pitch_bend_c, 1, 6784
3, 52604, Pitch_bend_c, 1, 7040
3, 52605, Pitch_bend_c, 1, 7168
3, 52606, Pitch_bend_c, 1, 7296
3, 52607, Pitch_bend_c, 1, 7424
3, 52608, Pitch_bend_c, 1, 7680
3, 52609, Pitch_bend_c, 1, 7808
3, 52610, Pitch_bend_c, 1, 7936
3, 52611, Pitch_bend_c, 1, 8192
3, 52620, Note_on_c, 1, 57, 0
3, 52620, Pitch_bend_c, 1, 384
3, 52620, Note_on_c, 1, 57, 100
3, 52621, Pitch_bend_c, 1, 512
3, 52622, Pitch_bend_c, 1, 640
3, 52623, Pitch_bend_c, 1, 768
3, 52624, Pitch_bend_c, 1, 1024
3, 52625, Pitch_bend_c, 1, 1152
3, 52626, Pitch_bend_c, 1, 1280
3, 52627, Pitch_bend_c, 1, 1536
3, 52628, Pitch_bend_c, 1, 1664
3, 52629, Pitch_bend_c, 1, 1792
3, 52630, Pitch_bend_c, 1, 1920
3, 52631, Pitch_bend_c, 1, 2176
3, 52632, Pitch_bend_c, 1, 2304
3, 52633, Pitch_bend_c, 1, 2432
3, 52634, Pitch_bend_c, 1, 2688
3, 52635, Pitch_bend_c, 1, 2816
3, 52636, Pitch_bend_c, 1, 2944
3, 52637, Pitch_bend_c, 1, 3200
3, 52638, Pitch_bend_c, 1, 3328
3, 52639, Pitch_bend_c, 1, 3456
3, 52640, Pitch_bend_c, 1, 3584
3, 52641, Pitch_bend_c, 1, 3840
3, 52642, Pitch_bend_c, 1, 3968
3, 52643, Pitch_bend_c, 1, 4096
3, 52644, Pitch_bend_c, 1, 4352
3, 52645, Pitch_bend_c, 1, 4480
3, 52646, Pitch_bend_c, 1, 4608
3, 52647, Pitch_bend_c, 1, 4864
3, 52648, Pitch_bend_c, 1, 4992
3, 52649, Pitch_bend_c, 1, 5120
3, 52650, Pitch_bend_c, 1, 5248
3, 52651, Pitch_bend_c, 1, 5504
3, 52652, Pitch_bend_c, 1, 5632
3, 52653, Pitch_bend_c, 1, 5760
3, 52654, Pitch_bend_c, 1, 6016
3, 52655, Pitch_bend_c, 1, 6144
3, 52656, Pitch_bend_c, 1, 6272
3, 52657, Pitch_bend_c, 1, 6528
3, 52658, Pitch_bend_c, 1, 6656
3, 52659, Pitch_bend_c, 1, 6784
3, 52660, Pitch_bend_c, 1, 6912
3, 52661, Pitch_bend_c, 1, 7168
3, 52662, Pitch_bend_c, 1, 7296
3, 52663, Pitch_bend_c, 1, 7424
3, 52664, Pitch_bend_c, 1, 7680
3, 52665, Pitch_bend_c, 1, 7808
3, 52666, Pitch_bend_c, 1, 7936
3, 52667, Pitch_bend_c, 1, 8192
3, 52680, Note_on_c, 1, 57, 0
3, 52680, Note_on_c, 1, 42, 100
3, 52710, Note_on_c, 1, 42, 0
3, 52710, Note_on_c, 1, 44, 100
3, 52740, Note_on_c, 1, 44, 0
3, 52740, Note_on_c, 1, 47, 100
3, 52770, Note_on_c, 1, 47, 0
3, 52770, Note_on_c, 1, 48, 100
3, 52800, Note_on_c, 1, 48, 0
3, 52800, Control_c, 1, 7, 85
3, 52800, Note_on_c, 1, 49, 100
3, 52828, Control_c, 1, 7, 84
3, 52856, Control_c, 1, 7, 83
3, 52860, Note_on_c, 1, 49, 0
3, 52860, Note_on_c, 1, 49, 100
3, 52884, Control_c, 1, 7, 82
3, 52912, Control_c, 1, 7, 81
3, 52920, Note_on_c, 1, 49, 0
3, 52941, Control_c, 1, 7, 80
3, 52950, Note_on_c, 1, 33, 100
3, 52969, Control_c, 1, 7, 79
3, 52980, Note_on_c, 1, 33, 0
3, 52980, Note_on_c, 1, 44, 100
3, 52997, Control_c, 1, 7, 78
3, 53010, Note_on_c, 1, 44, 0
3, 53010, Note_on_c, 1, 47, 100
3, 53025, Control_c, 1, 7, 77
3, 53040, Note_on_c, 1, 47, 0
3, 53040, Note_on_c, 1, 44, 100
3, 53054, Control_c, 1, 7, 76
3, 53082, Control_c, 1, 7, 75
3, 53100, Note_on_c, 1, 44, 0
3, 53100, Note_on_c, 1, 44, 100
3, 53110, Control_c, 1, 7, 74
3, 53138, Control_c, 1, 7, 73
3, 53160, Note_on_c, 1, 44, 0
3, 53166, Control_c, 1, 7, 72
3, 53190, Note_on_c, 1, 44, 100
3, 53195, Control_c, 1, 7, 71
3, 53220, Note_on_c, 1, 44, 0
3, 53220, Note_on_c, 1, 44, 100
3, 53223, Control_c, 1, 7, 70
3, 53250, Note_on_c, 1, 44, 0
3, 53250, Note_on_c, 1, 45, 100
3, 53251, Control_c, 1, 7, 69
3, 53279, Control_c, 1, 7, 68
3, 53280, Note_on_c, 1, 45, 0
3, 53280, Note_on_c, 1, 45, 100
3, 53308, Control_c, 1, 7, 67
3, 53336, Control_c, 1, 7, 66
3, 53340, Note_on_c, 1, 45, 0
3, 53340, Note_on_c, 1, 45, 100
3, 53364, Control_c, 1, 7, 65
3, 53392, Control_c, 1, 7, 64
3, 53400, Note_on_c, 1, 45, 0
3, 53420, Control_c, 1, 7, 63
3, 53430, Note_on_c, 1, 40, 100
3, 53449, Control_c, 1, 7, 62
3, 53460, Note_on_c, 1, 40, 0
3, 53460, Note_on_c, 1, 40, 100
3, 53477, Control_c, 1, 7, 61
3, 53490, Note_on_c, 1, 40, 0
3, 53490, Note_on_c, 1, 41, 100
3, 53505, Control_c, 1, 7, 60
3, 53520, Note_on_c, 1, 41, 0
3, 53520, Note_on_c, 1, 42, 100
3, 53533, Control_c, 1, 7, 59
3, 53562, Control_c, 1, 7, 58
3, 53580, Note_on_c, 1, 42, 0
3, 53580, Note_on_c, 1, 43, 100
3, 53590, Control_c, 1, 7, 57
3, 53618, Control_c, 1, 7, 56
3, 53640, Note_on_c, 1, 43, 0
3, 53640, Note_on_c, 1, 44, 100
3, 53646, Control_c, 1, 7, 55
3, 53670, Note_on_c, 1, 44, 0
3, 53670, Note_on_c, 1, 44, 100
3, 53674, Control_c, 1, 7, 54
3, 53700, Note_on_c, 1, 44, 0
3, 53700, Note_on_c, 1, 47, 100
3, 53703, Control_c, 1, 7, 53
3, 53730, Note_on_c, 1, 47, 0
3, 53730, Note_on_c, 1, 48, 100
3, 53731, Control_c, 1, 7, 52
3, 53759, Control_c, 1, 7, 51
3, 53760, Note_on_c, 1, 48, 0
3, 53760, Note_on_c, 1, 49, 100
3, 53787, Control_c, 1, 7, 50
3, 53790, Note_on_c, 1, 49, 0
3, 53816, Control_c, 1, 7, 49
3, 53820, Note_on_c, 1, 49, 100
3, 53844, Control_c, 1, 7, 48
3, 53850, Note_on_c, 1, 49, 0
3, 53872, Control_c, 1, 7, 47
3, 53900, Control_c, 1, 7, 46
3, 53910, Note_on_c, 1, 42, 100
3, 53928, Control_c, 1, 7, 45
3, 53940, Note_on_c, 1, 42, 0
3, 53940, Note_on_c, 1, 42, 100
3, 53957, Control_c, 1, 7, 44
3, 53970, Note_on_c, 1, 42, 0
3, 53970, Note_on_c, 1, 43, 100
3, 53985, Control_c, 1, 7, 43
3, 54000, Note_on_c, 1, 43, 0
3, 54000, Note_on_c, 1, 44, 100
3, 54013, Control_c, 1, 7, 42
3, 54030, Note_on_c, 1, 44, 0
3, 54041, Control_c, 1, 7, 41
3, 54060, Note_on_c, 1, 44, 100
3, 54070, Control_c, 1, 7, 40
3, 54090, Note_on_c, 1, 44, 0
3, 54098, Control_c, 1, 7, 39
3, 54126, Control_c, 1, 7, 38
3, 54150, Note_on_c, 1, 44, 100
3, 54154, Control_c, 1, 7, 37
3, 54180, Note_on_c, 1, 44, 0
3, 54180, Note_on_c, 1, 44, 100
3, 54182, Control_c, 1, 7, 36
3, 54211, Control_c, 1, 7, 35
3, 54239, Control_c, 1, 7, 34
3, 54240, Note_on_c, 1, 44, 0
3, 54240, Note_on_c, 1, 45, 100
3, 54267, Control_c, 1, 7, 33
3, 54270, Note_on_c, 1, 45, 0
3, 54270, Note_on_c, 1, 57, 100
3, 54295, Control_c, 1, 7, 32
3, 54300, Note_on_c, 1, 57, 0
3, 54300, Note_on_c, 1, 57, 100
3, 54324, Control_c, 1, 7, 31
3, 54330, Note_on_c, 1, 57, 0
3, 54330, Note_on_c, 1, 45, 100
3, 54352, Control_c, 1, 7, 30
3, 54360, Note_on_c, 1, 45, 0
3, 54360, Note_on_c, 1, 57, 100
3, 54380, Control_c, 1, 7, 29
3, 54390, Note_on_c, 1, 57, 0
3, 54390, Note_on_c, 1, 57, 100
3, 54408, Control_c, 1, 7, 28
3, 54420, Note_on_c, 1, 57, 0
3, 54420, Note_on_c, 1, 45, 100
3, 54436, Control_c, 1, 7, 27
3, 54450, Note_on_c, 1, 45, 0
3, 54450, Note_on_c, 1, 57, 100
3, 54465, Control_c, 1, 7, 26
3, 54480, Note_on_c, 1, 57, 0
3, 54480, Note_on_c, 1, 45, 100
3, 54493, Control_c, 1, 7, 25
3, 54521, Control_c, 1, 7, 24
3, 54540, Note_on_c, 1, 45, 0
3, 54540, Note_on_c, 1, 44, 100
3, 54549, Control_c, 1, 7, 23
3, 54570, Note_on_c, 1, 44, 0
3, 54570, Note_on_c, 1, 44, 100
3, 54578, Control_c, 1, 7, 22
3, 54600, Note_on_c, 1, 44, 0
3, 54600, Note_on_c, 1, 47, 100
3, 54606, Control_c, 1, 7, 21
3, 54630, Note_on_c, 1, 47, 0
3, 54630, Note_on_c, 1, 48, 100
3, 54634, Control_c, 1, 7, 20
3, 54660, Note_on_c, 1, 48, 0
3, 54660, Note_on_c, 1, 49, 100
3, 54662, Control_c, 1, 7, 19
3, 54690, Control_c, 1, 7, 18
3, 54719, Control_c, 1, 7, 17
3, 54720, Note_on_c, 1, 49, 0
3, 54720, Note_on_c, 1, 37, 100
3, 54747, Control_c, 1, 7, 16
3, 54775, Control_c, 1, 7, 15
3, 54780, Note_on_c, 1, 37, 0
3, 54780, Note_on_c, 1, 49, 100
3, 54803, Control_c, 1, 7, 14
3, 54832, Control_c, 1, 7, 13
3, 54840, Note_on_c, 1, 49, 0
3, 54840, Note_on_c, 1, 44, 100
3, 54860, Control_c, 1, 7, 12
3, 54888, Control_c, 1, 7, 11
3, 54900, Note_on_c, 1, 44, 0
3, 54900, Note_on_c, 1, 37, 100
3, 54916, Control_c, 1, 7, 10
3, 54944, Control_c, 1, 7, 9
3, 54960, Note_on_c, 1, 37, 0
3, 54960, Note_on_c, 1, 35, 100
3, 54973, Control_c, 1, 7, 8
3, 55001, Control_c, 1, 7, 7
3, 55020, Note_on_c, 1, 35, 0
3, 55020, Note_on_c, 1, 47, 100
3, 55029, Control_c, 1, 7, 6
3, 55050, Note_on_c, 1, 47, 0
3, 55050, Note_on_c, 1, 47, 100
3, 55057, Control_c, 1, 7, 5
3, 55080, Note_on_c, 1, 47, 0
3, 55080, Note_on_c, 1, 42, 100
3, 55086, Control_c, 1, 7, 4
3, 55114, Control_c, 1, 7, 3
3, 55140, Note_on_c, 1, 42, 0
3, 55140, Note_on_c, 1, 35, 100
3, 55142, Control_c, 1, 7, 2
3, 55170, Control_c, 1, 7, 1
3, 55199, Control_c, 1, 7, 0
3, 55200, Note_on_c, 1, 35, 0
3, 55200, Note_on_c, 1, 33, 100
3, 55680, Note_on_c, 1, 33, 0
3, 55680, End_track
4, 0, Start_track
4, 0, MIDI_port, 0
4, 0, Program_c, 2, 32
4, 0, Control_c, 2, 7, 85
4, 0, Control_c, 2, 10, 127
4, 780, Note_on_c, 2, 47, 100
4, 840, Note_on_c, 2, 47, 0
4, 840, Note_on_c, 2, 47, 100
4, 900, Note_on_c, 2, 47, 0
4, 900, Note_on_c, 2, 49, 100
4, 960, Note_on_c, 2, 49, 0
4, 960, Note_on_c, 2, 49, 120
4, 1020, Note_on_c, 2, 49, 0
4, 1020, Note_on_c, 2, 49, 120
4, 1080, Note_on_c, 2, 49, 0
4, 1080, Note_on_c, 2, 49, 120
4, 1140, Note_on_c, 2, 49, 0
4, 1260, Note_on_c, 2, 47, 100
4, 1320, Note_on_c, 2, 47, 0
4, 1320, Note_on_c, 2, 47, 100
4, 1380, Note_on_c, 2, 47, 0
4, 1380, Note_on_c, 2, 45, 100
4, 1440, Note_on_c, 2, 45, 0
4, 1440, Note_on_c, 2, 45, 120
4, 1500, Note_on_c, 2, 45, 0
4, 1500, Note_on_c, 2, 40, 100
4, 1560, Note_on_c, 2, 40, 0
4, 1560, Note_on_c, 2, 45, 120
4, 1620, Note_on_c, 2, 45, 0
4, 1740, Note_on_c, 2, 47, 100
4, 1800, Note_on_c, 2, 47, 0
4, 1800, Note_on_c, 2, 47, 100
4, 1860, Note_on_c, 2, 47, 0
4, 1860, Note_on_c, 2, 49, 100
4, 1920, Note_on_c, 2, 49, 0
4, 1920, Note_on_c, 2, 49, 120
4, 1980, Note_on_c, 2, 49, 0
4, 1980, Note_on_c, 2, 49, 120
4, 2040, Note_on_c, 2, 49, 0
4, 2040, Note_on_c, 2, 49, 120
4, 2130, Note_on_c, 2, 49, 0
4, 2220, Note_on_c, 2, 47, 100
4, 2280, Note_on_c, 2, 47, 0
4, 2280, Note_on_c, 2, 47, 100
4, 2340, Note_on_c, 2, 47, 0
4, 2340, Note_on_c, 2, 45, 100
4, 2400, Note_on_c, 2, 45, 0
4, 2400, Note_on_c, 2, 45, 120
4, 2460, Note_on_c, 2, 45, 0
4, 2460, Note_on_c, 2, 28, 120
4, 2520, Note_on_c, 2, 28, 0
4, 2520, Note_on_c, 2, 30, 100
4, 2580, Note_on_c, 2, 30, 0
4, 2580, Note_on_c, 2, 31, 100
4, 2640, Note_on_c, 2, 31, 0
4, 2640, Note_on_c, 2, 31, 100
4, 2700, Note_on_c, 2, 31, 0
4, 2700, Note_on_c, 2, 32, 100
4, 2760, Note_on_c, 2, 32, 0
4, 2760, Note_on_c, 2, 35, 100
4, 2820, Note_on_c, 2, 35, 0
4, 2820, Note_on_c, 2, 36, 100
4, 2880, Note_on_c, 2, 36, 0
4, 2880, Note_on_c, 2, 37, 100
4, 3000, Note_on_c, 2, 37, 0
4, 3000, Note_on_c, 2, 37, 100
4, 3090, Note_on_c, 2, 37, 0
4, 3090, Note_on_c, 2, 42, 100
4, 3120, Note_on_c, 2, 42, 0
4, 3120, Note_on_c, 2, 47, 100
4, 3180, Note_on_c, 2, 47, 0
4, 3180, Note_on_c, 2, 35, 100
4, 3240, Note_on_c, 2, 35, 0
4, 3270, Note_on_c, 2, 35, 80
4, 3300, Note_on_c, 2, 35, 0
4, 3300, Note_on_c, 2, 35, 100
4, 3360, Note_on_c, 2, 35, 0
4, 3360, Note_on_c, 2, 33, 100
4, 3420, Note_on_c, 2, 33, 0
4, 3420, Note_on_c, 2, 28, 100
4, 3480, Note_on_c, 2, 28, 0
4, 3480, Note_on_c, 2, 30, 100
4, 3570, Note_on_c, 2, 30, 0
4, 3570, Note_on_c, 2, 42, 100
4, 3600, Note_on_c, 2, 42, 0
4, 3600, Note_on_c, 2, 43, 100
4, 3660, Note_on_c, 2, 43, 0
4, 3660, Note_on_c, 2, 44, 100
4, 3720, Note_on_c, 2, 44, 0
4, 3720, Note_on_c, 2, 35, 100
4, 3780, Note_on_c, 2, 35, 0
4, 3780, Note_on_c, 2, 36, 100
4, 3840, Note_on_c, 2, 36, 0
4, 3840, Note_on_c, 2, 37, 100
4, 3900, Note_on_c, 2, 37, 0
4, 3900, Note_on_c, 2, 37, 100
4, 3960, Note_on_c, 2, 37, 0
4, 3960, Note_on_c, 2, 49, 100
4, 4050, Note_on_c, 2, 49, 0
4, 4050, Note_on_c, 2, 33, 100
4, 4080, Note_on_c, 2, 33, 0
4, 4080, Note_on_c, 2, 35, 100
4, 4140, Note_on_c, 2, 35, 0
4, 4140, Note_on_c, 2, 42, 100
4, 4200, Note_on_c, 2, 42, 0
4, 4200, Note_on_c, 2, 47, 100
4, 4230, Note_on_c, 2, 47, 0
4, 4230, Note_on_c, 2, 47, 100
4, 4260, Note_on_c, 2, 47, 0
4, 4260, Note_on_c, 2, 42, 100
4, 4320, Note_on_c, 2, 42, 0
4, 4320, Note_on_c, 2, 33, 100
4, 4380, Note_on_c, 2, 33, 0
4, 4380, Note_on_c, 2, 28, 100
4, 4440, Note_on_c, 2, 28, 0
4, 4440, Note_on_c, 2, 30, 100
4, 4560, Note_on_c, 2, 30, 0
4, 4560, Note_on_c, 2, 31, 100
4, 4620, Note_on_c, 2, 31, 0
4, 4620, Note_on_c, 2, 32, 100
4, 4680, Note_on_c, 2, 32, 0
4, 4680, Note_on_c, 2, 35, 100
4, 4740, Note_on_c, 2, 35, 0
4, 4740, Note_on_c, 2, 36, 100
4, 4800, Note_on_c, 2, 36, 0
4, 4800, Note_on_c, 2, 37, 100
4, 5010, Note_on_c, 2, 37, 0
4, 5010, Note_on_c, 2, 33, 100
4, 5040, Note_on_c, 2, 33, 0
4, 5040, Note_on_c, 2, 35, 100
4, 5100, Note_on_c, 2, 35, 0
4, 5100, Note_on_c, 2, 35, 100
4, 5190, Note_on_c, 2, 35, 0
4, 5190, Note_on_c, 2, 33, 100
4, 5220, Note_on_c, 2, 33, 0
4, 5220, Note_on_c, 2, 35, 100
4, 5280, Note_on_c, 2, 35, 0
4, 5280, Note_on_c, 2, 33, 100
4, 5520, Note_on_c, 2, 33, 0
4, 5580, Note_on_c, 2, 42, 100
4, 5580, Note_on_c, 2, 35, 100
4, 5610, Note_on_c, 2, 35, 0
4, 5610, Note_on_c, 2, 42, 0
4, 5610, Note_on_c, 2, 42, 100
4, 5610, Note_on_c, 2, 35, 100
4, 5640, Note_on_c, 2, 35, 0
4, 5640, Note_on_c, 2, 42, 0
4, 5640, Note_on_c, 2, 42, 100
4, 5640, Note_on_c, 2, 35, 100
4, 5670, Note_on_c, 2, 35, 0
4, 5670, Note_on_c, 2, 42, 0
4, 5670, Note_on_c, 2, 42, 100
4, 5670, Note_on_c, 2, 35, 100
4, 5700, Note_on_c, 2, 35, 0
4, 5700, Note_on_c, 2, 42, 0
4, 5700, Note_on_c, 2, 35, 100
4, 5730, Note_on_c, 2, 35, 0
4, 5730, Note_on_c, 2, 36, 100
4, 5760, Note_on_c, 2, 36, 0
4, 5760, Note_on_c, 2, 37, 100
4, 5970, Note_on_c, 2, 37, 0
4, 5970, Note_on_c, 2, 33, 100
4, 6000, Note_on_c, 2, 33, 0
4, 6000, Note_on_c, 2, 35, 100
4, 6060, Note_on_c, 2, 35, 0
4, 6060, Note_on_c, 2, 35, 100
4, 6150, Note_on_c, 2, 35, 0
4, 6150, Note_on_c, 2, 28, 100
4, 6180, Note_on_c, 2, 28, 0
4, 6182, Note_on_c, 2, 33, 100
4, 6240, Note_on_c, 2, 45, 100
4, 6240, Note_on_c, 2, 40, 100
4, 6450, Note_on_c, 2, 40, 0
4, 6450, Note_on_c, 2, 45, 0
4, 6450, Note_on_c, 2, 40, 100
4, 6452, Note_on_c, 2, 33, 0
4, 6480, Note_on_c, 2, 40, 0
4, 6480, Note_on_c, 2, 45, 100
4, 6540, Note_on_c, 2, 45, 0
4, 6540, Note_on_c, 2, 35, 100
4, 6600, Note_on_c, 2, 35, 0
4, 6600, Note_on_c, 2, 35, 100
4, 6630, Note_on_c, 2, 35, 0
4, 6630, Note_on_c, 2, 35, 100
4, 6660, Note_on_c, 2, 35, 0
4, 6660, Note_on_c, 2, 36, 100
4, 6690, Note_on_c, 2, 36, 0
4, 6690, Note_on_c, 2, 36, 100
4, 6720, Note_on_c, 2, 36, 0
4, 6720, Note_on_c, 2, 37, 100
4, 6930, Note_on_c, 2, 37, 0
4, 6930, Note_on_c, 2, 33, 100
4, 6960, Note_on_c, 2, 33, 0
4, 6960, Note_on_c, 2, 35, 100
4, 7020, Note_on_c, 2, 35, 0
4, 7020, Note_on_c, 2, 35, 100
4, 7110, Note_on_c, 2, 35, 0
4, 7110, Note_on_c, 2, 30, 100
4, 7140, Note_on_c, 2, 30, 0
4, 7140, Note_on_c, 2, 33, 100
4, 7200, Note_on_c, 2, 45, 100
4, 7200, Note_on_c, 2, 40, 100
4, 7320, Note_on_c, 2, 40, 0
4, 7320, Note_on_c, 2, 45, 0
4, 7320, Note_on_c, 2, 33, 0
4, 7320, Note_on_c, 2, 45, 100
4, 7350, Note_on_c, 2, 45, 0
4, 7350, Note_on_c, 2, 49, 100
4, 7380, Note_on_c, 2, 49, 0
4, 7380, Note_on_c, 2, 45, 100
4, 7410, Note_on_c, 2, 45, 0
4, 7410, Note_on_c, 2, 45, 100
4, 7440, Note_on_c, 2, 45, 0
4, 7440, Pitch_bend_c, 2, 0
4, 7440, Note_on_c, 2, 47, 100
4, 7441, Pitch_bend_c, 2, 512
4, 7443, Pitch_bend_c, 2, 1152
4, 7445, Pitch_bend_c, 2, 1664
4, 7446, Pitch_bend_c, 2, 2304
4, 7448, Pitch_bend_c, 2, 2816
4, 7450, Pitch_bend_c, 2, 3456
4, 7451, Pitch_bend_c, 2, 4096
4, 7453, Pitch_bend_c, 2, 4608
4, 7455, Pitch_bend_c, 2, 5248
4, 7456, Pitch_bend_c, 2, 5760
4, 7458, Pitch_bend_c, 2, 6400
4, 7460, Pitch_bend_c, 2, 6912
4, 7461, Pitch_bend_c, 2, 7552
4, 7463, Pitch_bend_c, 2, 8192
4, 7500, Note_on_c, 2, 47, 0
4, 7500, Note_on_c, 2, 35, 100
4, 7560, Note_on_c, 2, 35, 0
4, 7560, Note_on_c, 2, 35, 100
4, 7590, Note_on_c, 2, 35, 0
4, 7590, Note_on_c, 2, 35, 100
4, 7620, Note_on_c, 2, 35, 0
4, 7620, Note_on_c, 2, 36, 100
4, 7650, Note_on_c, 2, 36, 0
4, 7650, Note_on_c, 2, 36, 100
4, 7680, Note_on_c, 2, 36, 0
4, 7680, Note_on_c, 2, 37, 100
4, 7890, Note_on_c, 2, 37, 0
4, 7920, Note_on_c, 2, 35, 100
4, 7980, Note_on_c, 2, 35, 0
4, 7980, Note_on_c, 2, 35, 100
4, 8070, Note_on_c, 2, 35, 0
4, 8070, Note_on_c, 2, 28, 100
4, 8100, Note_on_c, 2, 28, 0
4, 8100, Note_on_c, 2, 33, 100
4, 8130, Note_on_c, 2, 33, 0
4, 8130, Note_on_c, 2, 28, 100
4, 8160, Note_on_c, 2, 28, 0
4, 8160, Note_on_c, 2, 42, 100
4, 8161, Pitch_bend_c, 2, 4096
4, 8163, Pitch_bend_c, 2, 4352
4, 8165, Pitch_bend_c, 2, 4608
4, 8166, Pitch_bend_c, 2, 4864
4, 8168, Pitch_bend_c, 2, 5248
4, 8170, Pitch_bend_c, 2, 5504
4, 8171, Pitch_bend_c, 2, 5760
4, 8173, Pitch_bend_c, 2, 6144
4, 8175, Pitch_bend_c, 2, 6400
4, 8176, Pitch_bend_c, 2, 6656
4, 8178, Pitch_bend_c, 2, 6912
4, 8180, Pitch_bend_c, 2, 7296
4, 8181, Pitch_bend_c, 2, 7552
4, 8183, Pitch_bend_c, 2, 7808
4, 8185, Pitch_bend_c, 2, 8192
4, 8400, Note_on_c, 2, 42, 0
4, 8400, Note_on_c, 2, 40, 100
4, 8460, Note_on_c, 2, 40, 0
4, 8460, Note_on_c, 2, 40, 100
4, 8520, Note_on_c, 2, 40, 0
4, 8520, Note_on_c, 2, 40, 100
4, 8550, Note_on_c, 2, 40, 0
4, 8580, Note_on_c, 2, 35, 100
4, 8640, Note_on_c, 2, 35, 0
4, 8640, Note_on_c, 2, 37, 100
4, 8850, Note_on_c, 2, 37, 0
4, 8850, Note_on_c, 2, 28, 100
4, 8880, Note_on_c, 2, 28, 0
4, 8880, Note_on_c, 2, 35, 100
4, 8938, Note_on_c, 2, 35, 100
4, 8940, Note_on_c, 2, 35, 0
4, 9058, Note_on_c, 2, 35, 0
4, 9060, Note_on_c, 2, 33, 100
4, 9120, Note_on_c, 2, 33, 0
4, 9120, Note_on_c, 2, 33, 100
4, 9124, Note_on_c, 2, 40, 100
4, 9240, Note_on_c, 2, 33, 0
4, 9240, Note_on_c, 2, 33, 100
4, 9240, Note_on_c, 2, 40, 100
4, 9244, Note_on_c, 2, 40, 0
4, 9360, Note_on_c, 2, 40, 0
4, 9360, Note_on_c, 2, 33, 0
4, 9360, Note_on_c, 2, 52, 100
4, 9420, Note_on_c, 2, 52, 0
4, 9420, Note_on_c, 2, 49, 100
4, 9450, Note_on_c, 2, 49, 0
4, 9455, Note_on_c, 2, 47, 100
4, 9510, Note_on_c, 2, 42, 100
4, 9515, Note_on_c, 2, 47, 0
4, 9540, Note_on_c, 2, 42, 0
4, 9540, Note_on_c, 2, 43, 100
4, 9570, Note_on_c, 2, 43, 0
4, 9570, Note_on_c, 2, 44, 100
4, 9600, Note_on_c, 2, 44, 0
4, 9600, Note_on_c, 2, 37, 100
4, 9810, Note_on_c, 2, 37, 0
4, 9810, Note_on_c, 2, 28, 100
4, 9840, Note_on_c, 2, 28, 0
4, 9840, Note_on_c, 2, 35, 100
4, 9900, Note_on_c, 2, 35, 0
4, 9900, Note_on_c, 2, 35, 100
4, 9990, Note_on_c, 2, 35, 0
4, 9990, Note_on_c, 2, 42, 100
4, 10020, Note_on_c, 2, 42, 0
4, 10020, Note_on_c, 2, 33, 100
4, 10080, Note_on_c, 2, 33, 0
4, 10080, Note_on_c, 2, 33, 100
4, 10200, Note_on_c, 2, 33, 0
4, 10200, Note_on_c, 2, 40, 100
4, 10230, Note_on_c, 2, 40, 0
4, 10230, Note_on_c, 2, 45, 100
4, 10260, Note_on_c, 2, 45, 0
4, 10260, Note_on_c, 2, 35, 100
4, 10290, Note_on_c, 2, 35, 0
4, 10290, Note_on_c, 2, 37, 100
4, 10320, Note_on_c, 2, 37, 0
4, 10320, Note_on_c, 2, 40, 100
4, 10380, Note_on_c, 2, 40, 0
4, 10380, Note_on_c, 2, 35, 100
4, 10440, Note_on_c, 2, 35, 0
4, 10440, Note_on_c, 2, 35, 100
4, 10470, Note_on_c, 2, 35, 0
4, 10470, Note_on_c, 2, 28, 100
4, 10500, Note_on_c, 2, 28, 0
4, 10500, Note_on_c, 2, 35, 100
4, 10530, Note_on_c, 2, 35, 0
4, 10530, Note_on_c, 2, 36, 100
4, 10560, Note_on_c, 2, 36, 0
4, 10560, Note_on_c, 2, 37, 100
4, 10770, Note_on_c, 2, 37, 0
4, 10770, Note_on_c, 2, 28, 100
4, 10800, Note_on_c, 2, 28, 0
4, 10800, Note_on_c, 2, 35, 100
4, 10860, Note_on_c, 2, 35, 0
4, 10860, Note_on_c, 2, 35, 100
4, 10920, Note_on_c, 2, 35, 0
4, 10950, Note_on_c, 2, 33, 100
4, 10950, Note_on_c, 2, 40, 100
4, 10980, Note_on_c, 2, 40, 0
4, 10980, Note_on_c, 2, 33, 0
4, 10980, Note_on_c, 2, 33, 100
4, 10980, Note_on_c, 2, 40, 100
4, 11040, Note_on_c, 2, 40, 0
4, 11040, Note_on_c, 2, 33, 0
4, 11040, Note_on_c, 2, 33, 100
4, 11040, Note_on_c, 2, 40, 100
4, 11160, Note_on_c, 2, 40, 0
4, 11160, Note_on_c, 2, 33, 0
4, 11160, Note_on_c, 2, 40, 120
4, 11160, Note_on_c, 2, 33, 120
4, 11205, Note_on_c, 2, 33, 0
4, 11205, Note_on_c, 2, 40, 0
4, 11280, Note_on_c, 2, 52, 120
4, 11340, Note_on_c, 2, 52, 0
4, 11340, Note_on_c, 2, 49, 100
4, 11370, Note_on_c, 2, 49, 0
4, 11370, Note_on_c, 2, 47, 100
4, 11400, Note_on_c, 2, 47, 0
4, 11430, Note_on_c, 2, 42, 100
4, 11460, Note_on_c, 2, 42, 0
4, 11460, Note_on_c, 2, 43, 100
4, 11490, Note_on_c, 2, 43, 0
4, 11490, Note_on_c, 2, 44, 100
4, 11520, Note_on_c, 2, 44, 0
4, 11520, Note_on_c, 2, 37, 100
4, 11730, Note_on_c, 2, 37, 0
4, 11730, Note_on_c, 2, 33, 100
4, 11760, Note_on_c, 2, 33, 0
4, 11760, Note_on_c, 2, 35, 100
4, 11820, Note_on_c, 2, 35, 0
4, 11820, Note_on_c, 2, 35, 100
4, 11880, Note_on_c, 2, 35, 0
4, 11880, Note_on_c, 2, 42, 100
4, 11880, Note_on_c, 2, 47, 100
4, 11910, Note_on_c, 2, 47, 0
4, 11910, Note_on_c, 2, 42, 0
4, 11910, Note_on_c, 2, 42, 100
4, 11910, Note_on_c, 2, 47, 100
4, 11940, Note_on_c, 2, 47, 0
4, 11940, Note_on_c, 2, 42, 0
4, 11940, Note_on_c, 2, 40, 100
4, 11940, Note_on_c, 2, 45, 100
4, 11970, Note_on_c, 2, 45, 0
4, 11970, Note_on_c, 2, 40, 0
4, 11970, Note_on_c, 2, 40, 100
4, 11970, Note_on_c, 2, 45, 100
4, 12000, Note_on_c, 2, 45, 0
4, 12000, Note_on_c, 2, 40, 0
4, 12000, Pitch_bend_c, 2, 4224
4, 12000, Note_on_c, 2, 49, 100
4, 12001, Pitch_bend_c, 2, 4352
4, 12003, Pitch_bend_c, 2, 4608
4, 12005, Pitch_bend_c, 2, 4736
4, 12006, Pitch_bend_c, 2, 4992
4, 12008, Pitch_bend_c, 2, 5248
4, 12010, Pitch_bend_c, 2, 5376
4, 12011, Pitch_bend_c, 2, 5632
4, 12013, Pitch_bend_c, 2, 5888
4, 12015, Pitch_bend_c, 2, 6016
4, 12016, Pitch_bend_c, 2, 6272
4, 12018, Pitch_bend_c, 2, 6400
4, 12020, Pitch_bend_c, 2, 6656
4, 12021, Pitch_bend_c, 2, 6912
4, 12023, Pitch_bend_c, 2, 7040
4, 12025, Pitch_bend_c, 2, 7296
4, 12026, Pitch_bend_c, 2, 7552
4, 12028, Pitch_bend_c, 2, 7680
4, 12030, Note_on_c, 2, 49, 0
4, 12030, Pitch_bend_c, 2, 7936
4, 12030, Note_on_c, 2, 49, 100
4, 12031, Pitch_bend_c, 2, 8192
4, 12060, Note_on_c, 2, 49, 0
4, 12060, Note_on_c, 2, 49, 100
4, 12090, Note_on_c, 2, 49, 0
4, 12090, Note_on_c, 2, 49, 100
4, 12120, Note_on_c, 2, 49, 0
4, 12120, Note_on_c, 2, 49, 100
4, 12150, Note_on_c, 2, 49, 0
4, 12150, Note_on_c, 2, 49, 100
4, 12180, Note_on_c, 2, 49, 0
4, 12180, Note_on_c, 2, 43, 100
4, 12210, Note_on_c, 2, 43, 0
4, 12210, Note_on_c, 2, 52, 100
4, 12270, Note_on_c, 2, 52, 0
4, 12270, Note_on_c, 2, 52, 100
4, 12300, Note_on_c, 2, 52, 0
4, 12300, Note_on_c, 2, 54, 100
4, 12360, Note_on_c, 2, 54, 0
4, 12360, Note_on_c, 2, 55, 100
4, 12420, Note_on_c, 2, 55, 0
4, 12420, Note_on_c, 2, 56, 100
4, 12480, Note_on_c, 2, 56, 0
4, 12480, Note_on_c, 2, 49, 100
4, 12540, Note_on_c, 2, 49, 0
4, 12540, Note_on_c, 2, 44, 100
4, 12600, Note_on_c, 2, 44, 0
4, 12600, Note_on_c, 2, 37, 100
4, 12660, Note_on_c, 2, 37, 0
4, 12660, Note_on_c, 2, 44, 100
4, 12720, Note_on_c, 2, 44, 0
4, 12720, Note_on_c, 2, 47, 100
4, 12780, Note_on_c, 2, 47, 0
4, 12780, Note_on_c, 2, 42, 100
4, 12840, Note_on_c, 2, 42, 0
4, 12840, Note_on_c, 2, 35, 100
4, 12900, Note_on_c, 2, 35, 0
4, 12900, Note_on_c, 2, 42, 100
4, 12960, Note_on_c, 2, 42, 0
4, 12960, Note_on_c, 2, 33, 100
4, 13020, Note_on_c, 2, 33, 0
4, 13020, Note_on_c, 2, 40, 100
4, 13050, Note_on_c, 2, 40, 0
4, 13050, Note_on_c, 2, 40, 100
4, 13080, Note_on_c, 2, 40, 0
4, 13080, Note_on_c, 2, 45, 100
4, 13080, Note_on_c, 2, 40, 100
4, 13110, Note_on_c, 2, 40, 0
4, 13110, Note_on_c, 2, 45, 0
4, 13110, Note_on_c, 2, 45, 100
4, 13110, Note_on_c, 2, 40, 100
4, 13140, Note_on_c, 2, 40, 0
4, 13140, Note_on_c, 2, 45, 0
4, 13170, Note_on_c, 2, 37, 100
4, 13200, Note_on_c, 2, 37, 0
4, 13200, Note_on_c, 2, 40, 100
4, 13230, Note_on_c, 2, 40, 0
4, 13230, Note_on_c, 2, 42, 100
4, 13260, Note_on_c, 2, 42, 0
4, 13260, Note_on_c, 2, 42, 100
4, 13290, Note_on_c, 2, 42, 0
4, 13290, Note_on_c, 2, 42, 100
4, 13320, Note_on_c, 2, 42, 0
4, 13320, Note_on_c, 2, 44, 100
4, 13350, Note_on_c, 2, 44, 0
4, 13350, Note_on_c, 2, 44, 100
4, 13380, Note_on_c, 2, 44, 0
4, 13380, Note_on_c, 2, 47, 100
4, 13440, Note_on_c, 2, 47, 0
4, 13440, Note_on_c, 2, 49, 100
4, 13500, Note_on_c, 2, 49, 0
4, 13500, Note_on_c, 2, 44, 100
4, 13560, Note_on_c, 2, 44, 0
4, 13560, Note_on_c, 2, 37, 100
4, 13620, Note_on_c, 2, 37, 0
4, 13620, Note_on_c, 2, 44, 100
4, 13680, Note_on_c, 2, 44, 0
4, 13680, Note_on_c, 2, 47, 100
4, 13710, Note_on_c, 2, 47, 0
4, 13710, Note_on_c, 2, 47, 100
4, 13740, Note_on_c, 2, 47, 0
4, 13740, Note_on_c, 2, 42, 100
4, 13800, Note_on_c, 2, 42, 0
4, 13800, Note_on_c, 2, 35, 100
4, 13860, Note_on_c, 2, 35, 0
4, 13860, Note_on_c, 2, 42, 100
4, 13920, Note_on_c, 2, 42, 0
4, 13920, Note_on_c, 2, 33, 100
4, 13980, Note_on_c, 2, 33, 0
4, 13980, Note_on_c, 2, 40, 100
4, 14010, Note_on_c, 2, 40, 0
4, 14010, Note_on_c, 2, 44, 100
4, 14040, Note_on_c, 2, 44, 0
4, 14040, Note_on_c, 2, 28, 100
4, 14070, Note_on_c, 2, 28, 0
4, 14070, Note_on_c, 2, 45, 100
4, 14100, Note_on_c, 2, 45, 0
4, 14100, Note_on_c, 2, 45, 100
4, 14160, Note_on_c, 2, 45, 0
4, 14160, Note_on_c, 2, 40, 100
4, 14160, Note_on_c, 2, 45, 100
4, 14220, Note_on_c, 2, 45, 0
4, 14220, Note_on_c, 2, 40, 0
4, 14220, Note_on_c, 2, 35, 100
4, 14250, Note_on_c, 2, 35, 0
4, 14250, Note_on_c, 2, 35, 100
4, 14280, Note_on_c, 2, 35, 0
4, 14280, Note_on_c, 2, 35, 100
4, 14310, Note_on_c, 2, 35, 0
4, 14310, Note_on_c, 2, 35, 100
4, 14340, Note_on_c, 2, 35, 0
4, 14340, Note_on_c, 2, 35, 100
4, 14370, Note_on_c, 2, 35, 0
4, 14370, Note_on_c, 2, 32, 100
4, 14400, Note_on_c, 2, 32, 0
4, 14400, Note_on_c, 2, 37, 100
4, 14460, Note_on_c, 2, 37, 0
4, 14460, Note_on_c, 2, 44, 100
4, 14490, Note_on_c, 2, 44, 0
4, 14490, Note_on_c, 2, 44, 100
4, 14520, Note_on_c, 2, 44, 0
4, 14520, Note_on_c, 2, 49, 100
4, 14580, Note_on_c, 2, 49, 0
4, 14580, Note_on_c, 2, 44, 100
4, 14640, Note_on_c, 2, 44, 0
4, 14640, Note_on_c, 2, 35, 100
4, 14700, Note_on_c, 2, 35, 0
4, 14700, Note_on_c, 2, 42, 100
4, 14730, Note_on_c, 2, 42, 0
4, 14730, Note_on_c, 2, 42, 100
4, 14760, Note_on_c, 2, 42, 0
4, 14760, Note_on_c, 2, 47, 100
4, 14820, Note_on_c, 2, 47, 0
4, 14820, Note_on_c, 2, 42, 100
4, 14880, Note_on_c, 2, 42, 0
4, 14880, Note_on_c, 2, 33, 100
4, 14940, Note_on_c, 2, 33, 0
4, 14940, Note_on_c, 2, 52, 100
4, 15000, Note_on_c, 2, 52, 0
4, 15000, Note_on_c, 2, 33, 100
4, 15060, Note_on_c, 2, 33, 0
4, 15060, Note_on_c, 2, 45, 100
4, 15120, Note_on_c, 2, 45, 0
4, 15120, Pitch_bend_c, 2, 4096
4, 15120, Note_on_c, 2, 44, 100
4, 15121, Pitch_bend_c, 2, 4224
4, 15123, Pitch_bend_c, 2, 4480
4, 15125, Pitch_bend_c, 2, 4736
4, 15126, Pitch_bend_c, 2, 4992
4, 15128, Pitch_bend_c, 2, 5248
4, 15130, Pitch_bend_c, 2, 5504
4, 15131, Pitch_bend_c, 2, 5760
4, 15133, Pitch_bend_c, 2, 6016
4, 15135, Pitch_bend_c, 2, 6144
4, 15136, Pitch_bend_c, 2, 6400
4, 15138, Pitch_bend_c, 2, 6656
4, 15140, Pitch_bend_c, 2, 6912
4, 15141, Pitch_bend_c, 2, 7168
4, 15143, Pitch_bend_c, 2, 7424
4, 15145, Pitch_bend_c, 2, 7680
4, 15146, Pitch_bend_c, 2, 7936
4, 15148, Pitch_bend_c, 2, 8192
4, 15180, Note_on_c, 2, 44, 0
4, 15180, Note_on_c, 2, 47, 100
4, 15210, Note_on_c, 2, 47, 0
4, 15210, Note_on_c, 2, 47, 100
4, 15240, Note_on_c, 2, 47, 0
4, 15240, Note_on_c, 2, 49, 100
4, 15270, Note_on_c, 2, 49, 0
4, 15270, Note_on_c, 2, 42, 100
4, 15300, Note_on_c, 2, 42, 0
4, 15300, Note_on_c, 2, 44, 100
4, 15360, Note_on_c, 2, 44, 0
4, 15360, Note_on_c, 2, 37, 100
4, 15420, Note_on_c, 2, 37, 0
4, 15420, Note_on_c, 2, 49, 100
4, 15480, Note_on_c, 2, 49, 0
4, 15480, Note_on_c, 2, 44, 100
4, 15540, Note_on_c, 2, 44, 0
4, 15540, Note_on_c, 2, 37, 100
4, 15600, Note_on_c, 2, 37, 0
4, 15600, Note_on_c, 2, 35, 100
4, 15660, Note_on_c, 2, 35, 0
4, 15660, Note_on_c, 2, 35, 100
4, 15720, Note_on_c, 2, 35, 0
4, 15720, Note_on_c, 2, 42, 100
4, 15780, Note_on_c, 2, 42, 0
4, 15780, Note_on_c, 2, 47, 100
4, 15840, Note_on_c, 2, 47, 0
4, 15840, Note_on_c, 2, 33, 100
4, 15960, Note_on_c, 2, 33, 0
4, 15960, Note_on_c, 2, 40, 100
4, 15990, Note_on_c, 2, 40, 0
4, 15990, Note_on_c, 2, 45, 100
4, 16020, Note_on_c, 2, 45, 0
4, 16020, Note_on_c, 2, 45, 100
4, 16080, Note_on_c, 2, 45, 0
4, 16080, Note_on_c, 2, 35, 100
4, 16140, Note_on_c, 2, 35, 0
4, 16140, Note_on_c, 2, 42, 100
4, 16170, Note_on_c, 2, 42, 0
4, 16170, Note_on_c, 2, 42, 100
4, 16200, Note_on_c, 2, 42, 0
4, 16230, Note_on_c, 2, 42, 100
4, 16260, Note_on_c, 2, 42, 0
4, 16260, Note_on_c, 2, 37, 100
4, 16301, Pitch_bend_c, 2, 7680
4, 16303, Pitch_bend_c, 2, 7168
4, 16305, Pitch_bend_c, 2, 6912
4, 16306, Pitch_bend_c, 2, 6656
4, 16308, Pitch_bend_c, 2, 6144
4, 16310, Pitch_bend_c, 2, 5632
4, 16311, Pitch_bend_c, 2, 4992
4, 16313, Pitch_bend_c, 2, 128
4, 16320, Note_on_c, 2, 37, 0
4, 16320, Note_on_c, 2, 37, 100
4, 16320, Pitch_bend_c, 2, 8192
4, 16380, Note_on_c, 2, 37, 0
4, 16380, Note_on_c, 2, 37, 100
4, 16440, Note_on_c, 2, 37, 0
4, 16530, Note_on_c, 2, 33, 100
4, 16560, Note_on_c, 2, 33, 0
4, 16560, Note_on_c, 2, 35, 100
4, 16620, Note_on_c, 2, 35, 0
4, 16620, Note_on_c, 2, 35, 100
4, 16680, Note_on_c, 2, 35, 0
4, 16710, Note_on_c, 2, 42, 100
4, 16740, Note_on_c, 2, 42, 0
4, 16740, Note_on_c, 2, 35, 100
4, 16800, Note_on_c, 2, 35, 0
4, 16800, Note_on_c, 2, 33, 100
4, 16860, Note_on_c, 2, 33, 0
4, 16860, Note_on_c, 2, 33, 100
4, 16920, Note_on_c, 2, 33, 0
4, 17040, Note_on_c, 2, 52, 100
4, 17100, Note_on_c, 2, 52, 0
4, 17100, Note_on_c, 2, 49, 100
4, 17130, Note_on_c, 2, 49, 0
4, 17134, Note_on_c, 2, 47, 100
4, 17194, Note_on_c, 2, 47, 0
4, 17194, Note_on_c, 2, 42, 100
4, 17222, Note_on_c, 2, 43, 100
4, 17224, Note_on_c, 2, 42, 0
4, 17252, Note_on_c, 2, 43, 0
4, 17256, Note_on_c, 2, 44, 100
4, 17280, Note_on_c, 2, 37, 100
4, 17286, Note_on_c, 2, 44, 0
4, 17340, Note_on_c, 2, 37, 0
4, 17344, Note_on_c, 2, 37, 100
4, 17404, Note_on_c, 2, 37, 0
4, 17435, Note_on_c, 2, 52, 100
4, 17460, Note_on_c, 2, 37, 100
4, 17465, Note_on_c, 2, 52, 0
4, 17490, Note_on_c, 2, 37, 0
4, 17490, Note_on_c, 2, 37, 100
4, 17520, Note_on_c, 2, 37, 0
4, 17522, Note_on_c, 2, 35, 100
4, 17581, Note_on_c, 2, 35, 100
4, 17582, Note_on_c, 2, 35, 0
4, 17641, Note_on_c, 2, 35, 0
4, 17671, Note_on_c, 2, 28, 100
4, 17701, Note_on_c, 2, 28, 0
4, 17703, Note_on_c, 2, 33, 100
4, 17760, Note_on_c, 2, 33, 100
4, 17763, Note_on_c, 2, 33, 0
4, 17816, Note_on_c, 2, 33, 100
4, 17820, Note_on_c, 2, 33, 0
4, 17936, Note_on_c, 2, 33, 0
4, 17940, Note_on_c, 2, 45, 100
4, 17994, Note_on_c, 2, 45, 100
4, 18000, Note_on_c, 2, 45, 0
4, 18024, Note_on_c, 2, 45, 0
4, 18033, Note_on_c, 2, 47, 100
4, 18090, Note_on_c, 2, 40, 100
4, 18093, Note_on_c, 2, 47, 0
4, 18120, Note_on_c, 2, 40, 0
4, 18120, Note_on_c, 2, 42, 100
4, 18150, Note_on_c, 2, 42, 0
4, 18150, Note_on_c, 2, 42, 100
4, 18180, Note_on_c, 2, 42, 0
4, 18180, Note_on_c, 2, 35, 100
4, 18208, Note_on_c, 2, 36, 100
4, 18210, Note_on_c, 2, 35, 0
4, 18238, Note_on_c, 2, 36, 0
4, 18240, Note_on_c, 2, 37, 100
4, 18300, Note_on_c, 2, 37, 0
4, 18300, Note_on_c, 2, 37, 100
4, 18360, Note_on_c, 2, 37, 0
4, 18390, Note_on_c, 2, 28, 100
4, 18420, Note_on_c, 2, 28, 0
4, 18420, Note_on_c, 2, 37, 100
4, 18480, Note_on_c, 2, 37, 0
4, 18480, Note_on_c, 2, 35, 100
4, 18540, Note_on_c, 2, 35, 0
4, 18540, Note_on_c, 2, 35, 100
4, 18600, Note_on_c, 2, 35, 0
4, 18630, Note_on_c, 2, 28, 100
4, 18660, Note_on_c, 2, 28, 0
4, 18660, Note_on_c, 2, 35, 100
4, 18720, Note_on_c, 2, 35, 0
4, 18720, Note_on_c, 2, 33, 100
4, 18780, Note_on_c, 2, 33, 0
4, 18780, Note_on_c, 2, 33, 100
4, 18840, Note_on_c, 2, 33, 0
4, 18900, Note_on_c, 2, 54, 100
4, 18930, Note_on_c, 2, 54, 0
4, 18930, Note_on_c, 2, 47, 100
4, 18960, Note_on_c, 2, 47, 0
4, 18960, Note_on_c, 2, 44, 100
4, 19020, Note_on_c, 2, 44, 0
4, 19020, Note_on_c, 2, 45, 100
4, 19080, Note_on_c, 2, 45, 0
4, 19080, Note_on_c, 2, 47, 100
4, 19110, Note_on_c, 2, 47, 0
4, 19110, Note_on_c, 2, 47, 100
4, 19140, Note_on_c, 2, 47, 0
4, 19140, Note_on_c, 2, 35, 100
4, 19170, Note_on_c, 2, 35, 0
4, 19170, Note_on_c, 2, 36, 100
4, 19200, Note_on_c, 2, 36, 0
4, 19200, Note_on_c, 2, 37, 100
4, 19260, Note_on_c, 2, 37, 0
4, 19260, Note_on_c, 2, 37, 100
4, 19320, Note_on_c, 2, 37, 0
4, 19350, Note_on_c, 2, 37, 100
4, 19380, Note_on_c, 2, 37, 0
4, 19380, Note_on_c, 2, 37, 100
4, 19440, Note_on_c, 2, 37, 0
4, 19440, Note_on_c, 2, 35, 100
4, 19500, Note_on_c, 2, 35, 0
4, 19500, Note_on_c, 2, 35, 100
4, 19560, Note_on_c, 2, 35, 0
4, 19590, Note_on_c, 2, 40, 100
4, 19620, Note_on_c, 2, 40, 0
4, 19620, Note_on_c, 2, 35, 100
4, 19680, Note_on_c, 2, 35, 0
4, 19680, Pitch_bend_c, 2, 128
4, 19680, Note_on_c, 2, 42, 100
4, 19682, Pitch_bend_c, 2, 256
4, 19683, Pitch_bend_c, 2, 384
4, 19684, Pitch_bend_c, 2, 512
4, 19685, Pitch_bend_c, 2, 640
4, 19686, Pitch_bend_c, 2, 768
4, 19687, Pitch_bend_c, 2, 896
4, 19688, Pitch_bend_c, 2, 1024
4, 19690, Pitch_bend_c, 2, 1152
4, 19691, Pitch_bend_c, 2, 1280
4, 19692, Pitch_bend_c, 2, 1408
4, 19693, Pitch_bend_c, 2, 1536
4, 19694, Pitch_bend_c, 2, 1664
4, 19695, Pitch_bend_c, 2, 1792
4, 19696, Pitch_bend_c, 2, 1920
4, 19697, Pitch_bend_c, 2, 2048
4, 19699, Pitch_bend_c, 2, 2176
4, 19700, Pitch_bend_c, 2, 2304
4, 19701, Pitch_bend_c, 2, 2432
4, 19702, Pitch_bend_c, 2, 2560
4, 19703, Pitch_bend_c, 2, 2688
4, 19704, Pitch_bend_c, 2, 2816
4, 19705, Pitch_bend_c, 2, 2944
4, 19706, Pitch_bend_c, 2, 3072
4, 19708, Pitch_bend_c, 2, 3200
4, 19709, Pitch_bend_c, 2, 3328
4, 19710, Pitch_bend_c, 2, 3456
4, 19711, Pitch_bend_c, 2, 3584
4, 19712, Pitch_bend_c, 2, 3712
4, 19713, Pitch_bend_c, 2, 3840
4, 19714, Pitch_bend_c, 2, 3968
4, 19715, Pitch_bend_c, 2, 4096
4, 19717, Pitch_bend_c, 2, 4224
4, 19718, Pitch_bend_c, 2, 4352
4, 19719, Pitch_bend_c, 2, 4480
4, 19720, Pitch_bend_c, 2, 4608
4, 19721, Pitch_bend_c, 2, 4736
4, 19722, Pitch_bend_c, 2, 4864
4, 19723, Pitch_bend_c, 2, 4992
4, 19724, Pitch_bend_c, 2, 5120
4, 19726, Pitch_bend_c, 2, 5248
4, 19727, Pitch_bend_c, 2, 5376
4, 19728, Pitch_bend_c, 2, 5504
4, 19729, Pitch_bend_c, 2, 5632
4, 19730, Pitch_bend_c, 2, 5760
4, 19731, Pitch_bend_c, 2, 5888
4, 19732, Pitch_bend_c, 2, 6016
4, 19733, Pitch_bend_c, 2, 6144
4, 19735, Pitch_bend_c, 2, 6272
4, 19736, Pitch_bend_c, 2, 6400
4, 19737, Pitch_bend_c, 2, 6528
4, 19738, Pitch_bend_c, 2, 6656
4, 19739, Pitch_bend_c, 2, 6784
4, 19740, Pitch_bend_c, 2, 6912
4, 19741, Pitch_bend_c, 2, 7040
4, 19742, Pitch_bend_c, 2, 7168
4, 19744, Pitch_bend_c, 2, 7296
4, 19745, Pitch_bend_c, 2, 7424
4, 19746, Pitch_bend_c, 2, 7552
4, 19747, Pitch_bend_c, 2, 7680
4, 19748, Pitch_bend_c, 2, 7808
4, 19749, Pitch_bend_c, 2, 7936
4, 19750, Pitch_bend_c, 2, 8064
4, 19751, Pitch_bend_c, 2, 8192
4, 19800, Note_on_c, 2, 42, 0
4, 19800, Note_on_c, 2, 40, 100
4, 19860, Note_on_c, 2, 40, 0
4, 19860, Note_on_c, 2, 40, 100
4, 19890, Note_on_c, 2, 40, 0
4, 19890, Note_on_c, 2, 40, 100
4, 19920, Note_on_c, 2, 40, 0
4, 19920, Note_on_c, 2, 37, 100
4, 19980, Note_on_c, 2, 37, 0
4, 19980, Note_on_c, 2, 35, 100
4, 20010, Note_on_c, 2, 35, 0
4, 20010, Note_on_c, 2, 35, 100
4, 20040, Note_on_c, 2, 35, 0
4, 20040, Note_on_c, 2, 35, 100
4, 20100, Note_on_c, 2, 35, 0
4, 20100, Note_on_c, 2, 35, 100
4, 20130, Note_on_c, 2, 35, 0
4, 20130, Note_on_c, 2, 35, 100
4, 20160, Note_on_c, 2, 35, 0
4, 20160, Note_on_c, 2, 37, 100
4, 20340, Note_on_c, 2, 37, 0
4, 20340, Note_on_c, 2, 33, 100
4, 20370, Note_on_c, 2, 33, 0
4, 20370, Note_on_c, 2, 37, 100
4, 20400, Note_on_c, 2, 37, 0
4, 20400, Note_on_c, 2, 35, 100
4, 20460, Note_on_c, 2, 35, 0
4, 20460, Note_on_c, 2, 35, 100
4, 20580, Note_on_c, 2, 35, 0
4, 20580, Note_on_c, 2, 45, 100
4, 20610, Note_on_c, 2, 45, 0
4, 20610, Note_on_c, 2, 35, 100
4, 20640, Note_on_c, 2, 35, 0
4, 20640, Note_on_c, 2, 33, 100
4, 20880, Note_on_c, 2, 33, 0
4, 20880, Note_on_c, 2, 52, 100
4, 20940, Note_on_c, 2, 52, 0
4, 20940, Note_on_c, 2, 49, 100
4, 20970, Note_on_c, 2, 49, 0
4, 20970, Note_on_c, 2, 47, 100
4, 21000, Note_on_c, 2, 47, 0
4, 21000, Note_on_c, 2, 49, 100
4, 21030, Note_on_c, 2, 49, 0
4, 21030, Note_on_c, 2, 47, 100
4, 21060, Note_on_c, 2, 47, 0
4, 21060, Note_on_c, 2, 44, 100
4, 21120, Note_on_c, 2, 44, 0
4, 21120, Note_on_c, 2, 37, 100
4, 21330, Note_on_c, 2, 37, 0
4, 21330, Note_on_c, 2, 28, 100
4, 21360, Note_on_c, 2, 28, 0
4, 21360, Note_on_c, 2, 35, 100
4, 21420, Note_on_c, 2, 35, 0
4, 21420, Note_on_c, 2, 35, 100
4, 21510, Note_on_c, 2, 35, 0
4, 21510, Note_on_c, 2, 28, 100
4, 21540, Note_on_c, 2, 28, 0
4, 21540, Note_on_c, 2, 35, 100
4, 21600, Note_on_c, 2, 35, 0
4, 21600, Note_on_c, 2, 33, 100
4, 21720, Note_on_c, 2, 33, 0
4, 21720, Note_on_c, 2, 33, 100
4, 21810, Note_on_c, 2, 33, 0
4, 21810, Note_on_c, 2, 33, 80
4, 21840, Note_on_c, 2, 33, 0
4, 21840, Note_on_c, 2, 42, 100
4, 21900, Note_on_c, 2, 42, 0
4, 21900, Note_on_c, 2, 42, 100
4, 21990, Note_on_c, 2, 42, 0
4, 21990, Note_on_c, 2, 35, 100
4, 22020, Note_on_c, 2, 35, 0
4, 22020, Note_on_c, 2, 37, 100
4, 22050, Note_on_c, 2, 37, 0
4, 22050, Note_on_c, 2, 35, 100
4, 22080, Note_on_c, 2, 35, 0
4, 22080, Note_on_c, 2, 37, 100
4, 22140, Note_on_c, 2, 37, 0
4, 22140, Note_on_c, 2, 37, 100
4, 22200, Note_on_c, 2, 37, 0
4, 22200, Note_on_c, 2, 49, 100
4, 22260, Note_on_c, 2, 49, 0
4, 22290, Note_on_c, 2, 33, 100
4, 22320, Note_on_c, 2, 33, 0
4, 22320, Note_on_c, 2, 35, 100
4, 22380, Note_on_c, 2, 35, 0
4, 22380, Note_on_c, 2, 35, 100
4, 22440, Note_on_c, 2, 35, 0
4, 22440, Note_on_c, 2, 42, 100
4, 22470, Note_on_c, 2, 42, 0
4, 22470, Note_on_c, 2, 47, 100
4, 22500, Note_on_c, 2, 47, 0
4, 22500, Note_on_c, 2, 42, 100
4, 22560, Note_on_c, 2, 42, 0
4, 22560, Note_on_c, 2, 33, 100
4, 22680, Note_on_c, 2, 33, 0
4, 22680, Note_on_c, 2, 45, 100
4, 22740, Note_on_c, 2, 45, 0
4, 22740, Note_on_c, 2, 45, 100
4, 22800, Note_on_c, 2, 45, 0
4, 22860, Note_on_c, 2, 35, 100
4, 22890, Note_on_c, 2, 35, 0
4, 22890, Note_on_c, 2, 35, 100
4, 22920, Note_on_c, 2, 35, 0
4, 22920, Note_on_c, 2, 35, 100
4, 22950, Note_on_c, 2, 35, 0
4, 22950, Note_on_c, 2, 35, 100
4, 22980, Note_on_c, 2, 35, 0
4, 22980, Note_on_c, 2, 36, 100
4, 23040, Note_on_c, 2, 36, 0
4, 23040, Note_on_c, 2, 37, 100
4, 23280, Note_on_c, 2, 37, 0
4, 23280, Note_on_c, 2, 35, 100
4, 23340, Note_on_c, 2, 35, 0
4, 23340, Note_on_c, 2, 35, 100
4, 23520, Note_on_c, 2, 35, 0
4, 23520, Note_on_c, 2, 49, 100
4, 23550, Note_on_c, 2, 49, 0
4, 23550, Note_on_c, 2, 49, 100
4, 23580, Note_on_c, 2, 49, 0
4, 23580, Note_on_c, 2, 49, 100
4, 23610, Note_on_c, 2, 49, 0
4, 23610, Note_on_c, 2, 49, 100
4, 23670, Note_on_c, 2, 49, 0
4, 23670, Note_on_c, 2, 49, 100
4, 23700, Note_on_c, 2, 49, 0
4, 23700, Note_on_c, 2, 53, 100
4, 23790, Note_on_c, 2, 53, 0
4, 23790, Note_on_c, 2, 54, 100
4, 23850, Note_on_c, 2, 54, 0
4, 23850, Note_on_c, 2, 54, 100
4, 23880, Note_on_c, 2, 54, 0
4, 23880, Note_on_c, 2, 55, 100
4, 23940, Note_on_c, 2, 55, 0
4, 23940, Note_on_c, 2, 56, 100
4, 24000, Note_on_c, 2, 56, 0
4, 24000, Note_on_c, 2, 49, 100
4, 24060, Note_on_c, 2, 49, 0
4, 24060, Note_on_c, 2, 44, 100
4, 24120, Note_on_c, 2, 44, 0
4, 24120, Note_on_c, 2, 37, 100
4, 24150, Note_on_c, 2, 37, 0
4, 24150, Note_on_c, 2, 37, 100
4, 24180, Note_on_c, 2, 37, 0
4, 24180, Note_on_c, 2, 44, 100
4, 24240, Note_on_c, 2, 44, 0
4, 24240, Note_on_c, 2, 47, 100
4, 24300, Note_on_c, 2, 47, 0
4, 24300, Note_on_c, 2, 42, 100
4, 24330, Note_on_c, 2, 42, 0
4, 24330, Note_on_c, 2, 42, 100
4, 24360, Note_on_c, 2, 42, 0
4, 24360, Note_on_c, 2, 47, 100
4, 24390, Note_on_c, 2, 47, 0
4, 24390, Note_on_c, 2, 42, 100
4, 24420, Note_on_c, 2, 42, 0
4, 24420, Note_on_c, 2, 42, 100
4, 24480, Note_on_c, 2, 42, 0
4, 24480, Note_on_c, 2, 33, 100
4, 24540, Note_on_c, 2, 33, 0
4, 24540, Note_on_c, 2, 40, 100
4, 24600, Note_on_c, 2, 40, 0
4, 24600, Note_on_c, 2, 45, 100
4, 24660, Note_on_c, 2, 45, 0
4, 24660, Note_on_c, 2, 40, 100
4, 24690, Note_on_c, 2, 40, 0
4, 24690, Note_on_c, 2, 37, 100
4, 24720, Note_on_c, 2, 37, 0
4, 24720, Note_on_c, 2, 52, 100
4, 24750, Note_on_c, 2, 52, 0
4, 24750, Note_on_c, 2, 54, 100
4, 24780, Note_on_c, 2, 54, 0
4, 24780, Note_on_c, 2, 54, 100
4, 24810, Note_on_c, 2, 54, 0
4, 24810, Note_on_c, 2, 47, 100
4, 24840, Note_on_c, 2, 47, 0
4, 24840, Note_on_c, 2, 49, 100
4, 24870, Note_on_c, 2, 49, 0
4, 24870, Note_on_c, 2, 49, 100
4, 24900, Note_on_c, 2, 49, 0
4, 24900, Note_on_c, 2, 42, 100
4, 24930, Note_on_c, 2, 42, 0
4, 24930, Note_on_c, 2, 44, 100
4, 24960, Note_on_c, 2, 44, 0
4, 24960, Note_on_c, 2, 37, 100
4, 25020, Note_on_c, 2, 37, 0
4, 25020, Note_on_c, 2, 44, 100
4, 25080, Note_on_c, 2, 44, 0
4, 25080, Note_on_c, 2, 49, 100
4, 25140, Note_on_c, 2, 49, 0
4, 25140, Note_on_c, 2, 44, 100
4, 25200, Note_on_c, 2, 44, 0
4, 25200, Note_on_c, 2, 35, 100
4, 25260, Note_on_c, 2, 35, 0
4, 25260, Note_on_c, 2, 42, 100
4, 25320, Note_on_c, 2, 42, 0
4, 25320, Note_on_c, 2, 47, 100
4, 25380, Note_on_c, 2, 47, 0
4, 25380, Note_on_c, 2, 42, 100
4, 25440, Note_on_c, 2, 42, 0
4, 25440, Note_on_c, 2, 33, 100
4, 25500, Note_on_c, 2, 33, 0
4, 25500, Note_on_c, 2, 45, 100
4, 25530, Note_on_c, 2, 45, 0
4, 25530, Note_on_c, 2, 45, 100
4, 25560, Note_on_c, 2, 45, 0
4, 25560, Note_on_c, 2, 47, 100
4, 25590, Note_on_c, 2, 47, 0
4, 25590, Note_on_c, 2, 49, 100
4, 25620, Note_on_c, 2, 49, 0
4, 25620, Note_on_c, 2, 49, 100
4, 25650, Note_on_c, 2, 49, 0
4, 25650, Note_on_c, 2, 42, 100
4, 25680, Note_on_c, 2, 42, 0
4, 25680, Note_on_c, 2, 44, 100
4, 25710, Note_on_c, 2, 44, 0
4, 25710, Note_on_c, 2, 44, 100
4, 25740, Note_on_c, 2, 44, 0
4, 25740, Note_on_c, 2, 47, 100
4, 25770, Note_on_c, 2, 47, 0
4, 25770, Note_on_c, 2, 49, 100
4, 25800, Note_on_c, 2, 49, 0
4, 25800, Note_on_c, 2, 49, 100
4, 25830, Note_on_c, 2, 49, 0
4, 25830, Note_on_c, 2, 42, 100
4, 25860, Note_on_c, 2, 42, 0
4, 25860, Note_on_c, 2, 44, 100
4, 25890, Note_on_c, 2, 44, 0
4, 25890, Note_on_c, 2, 44, 100
4, 25920, Note_on_c, 2, 44, 0
4, 25920, Note_on_c, 2, 37, 100
4, 25980, Note_on_c, 2, 37, 0
4, 25980, Note_on_c, 2, 44, 100
4, 26040, Note_on_c, 2, 44, 0
4, 26040, Note_on_c, 2, 49, 100
4, 26100, Note_on_c, 2, 49, 0
4, 26100, Note_on_c, 2, 44, 100
4, 26160, Note_on_c, 2, 44, 0
4, 26160, Note_on_c, 2, 35, 100
4, 26220, Note_on_c, 2, 35, 0
4, 26220, Note_on_c, 2, 42, 100
4, 26250, Note_on_c, 2, 42, 0
4, 26250, Note_on_c, 2, 42, 100
4, 26280, Note_on_c, 2, 42, 0
4, 26280, Note_on_c, 2, 47, 100
4, 26340, Note_on_c, 2, 47, 0
4, 26340, Note_on_c, 2, 42, 100
4, 26400, Note_on_c, 2, 42, 0
4, 26400, Note_on_c, 2, 33, 100
4, 26520, Note_on_c, 2, 33, 0
4, 26520, Note_on_c, 2, 28, 100
4, 26550, Note_on_c, 2, 28, 0
4, 26550, Note_on_c, 2, 33, 100
4, 26610, Note_on_c, 2, 33, 0
4, 26610, Note_on_c, 2, 28, 100
4, 26639, Pitch_bend_c, 2, 0
4, 26640, Note_on_c, 2, 28, 0
4, 26640, Pitch_bend_c, 2, 128
4, 26640, Note_on_c, 2, 37, 100
4, 26641, Pitch_bend_c, 2, 256
4, 26642, Pitch_bend_c, 2, 512
4, 26643, Pitch_bend_c, 2, 640
4, 26644, Pitch_bend_c, 2, 768
4, 26645, Pitch_bend_c, 2, 1024
4, 26646, Pitch_bend_c, 2, 1152
4, 26647, Pitch_bend_c, 2, 1408
4, 26648, Pitch_bend_c, 2, 1536
4, 26649, Pitch_bend_c, 2, 1664
4, 26650, Pitch_bend_c, 2, 1920
4, 26651, Pitch_bend_c, 2, 2048
4, 26652, Pitch_bend_c, 2, 2304
4, 26653, Pitch_bend_c, 2, 2432
4, 26654, Pitch_bend_c, 2, 2560
4, 26655, Pitch_bend_c, 2, 2816
4, 26656, Pitch_bend_c, 2, 2944
4, 26657, Pitch_bend_c, 2, 3200
4, 26658, Pitch_bend_c, 2, 3328
4, 26659, Pitch_bend_c, 2, 3456
4, 26660, Pitch_bend_c, 2, 3712
4, 26661, Pitch_bend_c, 2, 3840
4, 26662, Pitch_bend_c, 2, 4096
4, 26663, Pitch_bend_c, 2, 4224
4, 26664, Pitch_bend_c, 2, 4352
4, 26665, Pitch_bend_c, 2, 4608
4, 26666, Pitch_bend_c, 2, 4736
4, 26667, Pitch_bend_c, 2, 4864
4, 26668, Pitch_bend_c, 2, 5120
4, 26669, Pitch_bend_c, 2, 5248
4, 26670, Pitch_bend_c, 2, 5504
4, 26671, Pitch_bend_c, 2, 5632
4, 26672, Pitch_bend_c, 2, 5760
4, 26673, Pitch_bend_c, 2, 6016
4, 26674, Pitch_bend_c, 2, 6144
4, 26675, Pitch_bend_c, 2, 6400
4, 26676, Pitch_bend_c, 2, 6528
4, 26677, Pitch_bend_c, 2, 6656
4, 26678, Pitch_bend_c, 2, 6912
4, 26679, Pitch_bend_c, 2, 7040
4, 26680, Pitch_bend_c, 2, 7296
4, 26681, Pitch_bend_c, 2, 7424
4, 26682, Pitch_bend_c, 2, 7552
4, 26683, Pitch_bend_c, 2, 7808
4, 26684, Pitch_bend_c, 2, 7936
4, 26685, Pitch_bend_c, 2, 8192
4, 26700, Note_on_c, 2, 37, 0
4, 26700, Note_on_c, 2, 35, 100
4, 26730, Note_on_c, 2, 35, 0
4, 26730, Note_on_c, 2, 35, 100
4, 26760, Note_on_c, 2, 35, 0
4, 26760, Note_on_c, 2, 42, 100
4, 26820, Note_on_c, 2, 42, 0
4, 26820, Note_on_c, 2, 40, 100
4, 26880, Note_on_c, 2, 40, 0
4, 26880, Note_on_c, 2, 37, 100
4, 26940, Note_on_c, 2, 37, 0
4, 26940, Note_on_c, 2, 44, 100
4, 26970, Note_on_c, 2, 44, 0
4, 26970, Note_on_c, 2, 44, 100
4, 27000, Note_on_c, 2, 44, 0
4, 27000, Note_on_c, 2, 49, 100
4, 27060, Note_on_c, 2, 49, 0
4, 27060, Note_on_c, 2, 44, 100
4, 27120, Note_on_c, 2, 44, 0
4, 27120, Note_on_c, 2, 47, 100
4, 27150, Note_on_c, 2, 47, 0
4, 27150, Note_on_c, 2, 47, 100
4, 27180, Note_on_c, 2, 47, 0
4, 27180, Note_on_c, 2, 42, 100
4, 27240, Note_on_c, 2, 42, 0
4, 27240, Note_on_c, 2, 35, 100
4, 27300, Note_on_c, 2, 35, 0
4, 27300, Note_on_c, 2, 42, 100
4, 27360, Note_on_c, 2, 42, 0
4, 27360, Note_on_c, 2, 45, 100
4, 27480, Note_on_c, 2, 45, 0
4, 27480, Note_on_c, 2, 45, 100
4, 27510, Note_on_c, 2, 45, 0
4, 27510, Note_on_c, 2, 45, 100
4, 27540, Note_on_c, 2, 45, 0
4, 27540, Note_on_c, 2, 45, 100
4, 27570, Note_on_c, 2, 45, 0
4, 27570, Note_on_c, 2, 45, 100
4, 27600, Note_on_c, 2, 45, 0
4, 27600, Note_on_c, 2, 45, 100
4, 27660, Note_on_c, 2, 45, 0
4, 27660, Note_on_c, 2, 47, 100
4, 27690, Note_on_c, 2, 47, 0
4, 27690, Note_on_c, 2, 47, 100
4, 27720, Note_on_c, 2, 47, 0
4, 27720, Note_on_c, 2, 47, 100
4, 27780, Note_on_c, 2, 47, 0
4, 27780, Note_on_c, 2, 47, 100
4, 27810, Note_on_c, 2, 47, 0
4, 27810, Note_on_c, 2, 48, 100
4, 27840, Note_on_c, 2, 48, 0
4, 27840, Note_on_c, 2, 37, 100
4, 27900, Note_on_c, 2, 37, 0
4, 27900, Note_on_c, 2, 44, 100
4, 27960, Note_on_c, 2, 44, 0
4, 27960, Note_on_c, 2, 49, 127
4, 28080, Note_on_c, 2, 49, 0
4, 28080, Note_on_c, 2, 35, 100
4, 28140, Note_on_c, 2, 35, 0
4, 28140, Note_on_c, 2, 42, 100
4, 28200, Note_on_c, 2, 42, 0
4, 28200, Note_on_c, 2, 47, 127
4, 28320, Note_on_c, 2, 47, 0
4, 28320, Note_on_c, 2, 33, 100
4, 28380, Note_on_c, 2, 33, 0
4, 28380, Note_on_c, 2, 40, 100
4, 28440, Note_on_c, 2, 40, 0
4, 28440, Note_on_c, 2, 45, 107
4, 28560, Note_on_c, 2, 45, 0
4, 28560, Note_on_c, 2, 49, 100
4, 28590, Note_on_c, 2, 49, 0
4, 28590, Note_on_c, 2, 49, 100
4, 28620, Note_on_c, 2, 49, 0
4, 28680, Note_on_c, 2, 45, 100
4, 28710, Note_on_c, 2, 45, 0
4, 28710, Note_on_c, 2, 45, 100
4, 28740, Note_on_c, 2, 45, 0
4, 28770, Note_on_c, 2, 35, 100
4, 28800, Note_on_c, 2, 35, 0
4, 28800, Note_on_c, 2, 37, 100
4, 28860, Note_on_c, 2, 37, 0
4, 28860, Note_on_c, 2, 44, 100
4, 28920, Note_on_c, 2, 44, 0
4, 28920, Note_on_c, 2, 49, 127
4, 29040, Note_on_c, 2, 49, 0
4, 29040, Note_on_c, 2, 35, 100
4, 29100, Note_on_c, 2, 35, 0
4, 29100, Note_on_c, 2, 42, 100
4, 29160, Note_on_c, 2, 42, 0
4, 29160, Note_on_c, 2, 47, 127
4, 29280, Note_on_c, 2, 47, 0
4, 29280, Note_on_c, 2, 33, 100
4, 29340, Note_on_c, 2, 33, 0
4, 29340, Note_on_c, 2, 40, 100
4, 29400, Note_on_c, 2, 40, 0
4, 29400, Note_on_c, 2, 45, 100
4, 29520, Note_on_c, 2, 45, 0
4, 29520, Note_on_c, 2, 35, 100
4, 29550, Note_on_c, 2, 35, 0
4, 29550, Note_on_c, 2, 35, 100
4, 29580, Note_on_c, 2, 35, 0
4, 29580, Note_on_c, 2, 35, 100
4, 29610, Note_on_c, 2, 35, 0
4, 29610, Note_on_c, 2, 35, 100
4, 29640, Note_on_c, 2, 35, 0
4, 29640, Note_on_c, 2, 35, 100
4, 29670, Note_on_c, 2, 35, 0
4, 29670, Note_on_c, 2, 35, 100
4, 29700, Note_on_c, 2, 35, 0
4, 29700, Note_on_c, 2, 35, 100
4, 29730, Note_on_c, 2, 35, 0
4, 29730, Note_on_c, 2, 36, 100
4, 29760, Note_on_c, 2, 36, 0
4, 29760, Note_on_c, 2, 37, 100
4, 29790, Note_on_c, 2, 37, 0
4, 29790, Note_on_c, 2, 37, 100
4, 29820, Note_on_c, 2, 37, 0
4, 29820, Note_on_c, 2, 44, 100
4, 29850, Note_on_c, 2, 44, 0
4, 29850, Note_on_c, 2, 44, 100
4, 29880, Note_on_c, 2, 44, 0
4, 29880, Note_on_c, 2, 49, 100
4, 30000, Note_on_c, 2, 49, 0
4, 30000, Note_on_c, 2, 35, 100
4, 30030, Note_on_c, 2, 35, 0
4, 30030, Note_on_c, 2, 35, 100
4, 30060, Note_on_c, 2, 35, 0
4, 30060, Note_on_c, 2, 42, 100
4, 30090, Note_on_c, 2, 42, 0
4, 30090, Note_on_c, 2, 42, 100
4, 30120, Note_on_c, 2, 42, 0
4, 30120, Note_on_c, 2, 47, 100
4, 30240, Note_on_c, 2, 47, 0
4, 30240, Note_on_c, 2, 33, 100
4, 30270, Note_on_c, 2, 33, 0
4, 30270, Note_on_c, 2, 33, 100
4, 30300, Note_on_c, 2, 33, 0
4, 30300, Note_on_c, 2, 40, 100
4, 30360, Note_on_c, 2, 40, 0
4, 30360, Note_on_c, 2, 45, 100
4, 30480, Note_on_c, 2, 45, 0
4, 30480, Note_on_c, 2, 42, 100
4, 30481, Pitch_bend_c, 2, 128
4, 30495, Pitch_bend_c, 2, 384
4, 30501, Pitch_bend_c, 2, 640
4, 30507, Pitch_bend_c, 2, 896
4, 30509, Pitch_bend_c, 2, 1152
4, 30511, Pitch_bend_c, 2, 1280
4, 30513, Pitch_bend_c, 2, 1408
4, 30514, Pitch_bend_c, 2, 1664
4, 30515, Pitch_bend_c, 2, 1920
4, 30516, Pitch_bend_c, 2, 2688
4, 30517, Pitch_bend_c, 2, 2944
4, 30518, Pitch_bend_c, 2, 3968
4, 30519, Pitch_bend_c, 2, 4736
4, 30520, Pitch_bend_c, 2, 5760
4, 30521, Pitch_bend_c, 2, 6016
4, 30522, Pitch_bend_c, 2, 6272
4, 30523, Pitch_bend_c, 2, 6528
4, 30524, Pitch_bend_c, 2, 6784
4, 30526, Pitch_bend_c, 2, 7040
4, 30528, Pitch_bend_c, 2, 7168
4, 30529, Pitch_bend_c, 2, 7296
4, 30532, Pitch_bend_c, 2, 7552
4, 30534, Pitch_bend_c, 2, 7808
4, 30535, Pitch_bend_c, 2, 8064
4, 30537, Pitch_bend_c, 2, 8192
4, 30540, Note_on_c, 2, 42, 0
4, 30540, Note_on_c, 2, 42, 100
4, 30570, Note_on_c, 2, 42, 0
4, 30570, Note_on_c, 2, 40, 100
4, 30600, Note_on_c, 2, 40, 0
4, 30600, Note_on_c, 2, 42, 100
4, 30630, Note_on_c, 2, 42, 0
4, 30630, Note_on_c, 2, 40, 100
4, 30660, Note_on_c, 2, 40, 0
4, 30660, Note_on_c, 2, 35, 100
4, 30690, Note_on_c, 2, 35, 0
4, 30690, Note_on_c, 2, 36, 100
4, 30720, Note_on_c, 2, 36, 0
4, 30720, Note_on_c, 2, 37, 100
4, 30750, Note_on_c, 2, 37, 0
4, 30750, Note_on_c, 2, 37, 100
4, 30780, Note_on_c, 2, 37, 0
4, 30780, Note_on_c, 2, 44, 100
4, 30810, Note_on_c, 2, 44, 0
4, 30810, Note_on_c, 2, 44, 100
4, 30840, Note_on_c, 2, 44, 0
4, 30840, Note_on_c, 2, 49, 127
4, 30960, Note_on_c, 2, 49, 0
4, 30960, Note_on_c, 2, 47, 100
4, 30990, Note_on_c, 2, 47, 0
4, 30990, Note_on_c, 2, 47, 100
4, 31020, Note_on_c, 2, 47, 0
4, 31020, Note_on_c, 2, 42, 100
4, 31080, Note_on_c, 2, 42, 0
4, 31080, Note_on_c, 2, 35, 127
4, 31200, Note_on_c, 2, 35, 0
4, 31200, Note_on_c, 2, 33, 100
4, 31230, Note_on_c, 2, 33, 0
4, 31230, Note_on_c, 2, 33, 100
4, 31260, Note_on_c, 2, 33, 0
4, 31260, Note_on_c, 2, 40, 100
4, 31320, Note_on_c, 2, 40, 0
4, 31320, Note_on_c, 2, 45, 100
4, 31440, Note_on_c, 2, 45, 0
4, 31440, Pitch_bend_c, 2, 128
4, 31440, Note_on_c, 2, 49, 100
4, 31445, Pitch_bend_c, 2, 384
4, 31447, Pitch_bend_c, 2, 512
4, 31448, Pitch_bend_c, 2, 640
4, 31451, Pitch_bend_c, 2, 768
4, 31453, Pitch_bend_c, 2, 896
4, 31455, Pitch_bend_c, 2, 1152
4, 31457, Pitch_bend_c, 2, 1280
4, 31458, Pitch_bend_c, 2, 1408
4, 31460, Pitch_bend_c, 2, 1536
4, 31461, Pitch_bend_c, 2, 1664
4, 31463, Pitch_bend_c, 2, 1920
4, 31465, Pitch_bend_c, 2, 2048
4, 31466, Pitch_bend_c, 2, 2176
4, 31467, Pitch_bend_c, 2, 2304
4, 31468, Pitch_bend_c, 2, 2432
4, 31469, Pitch_bend_c, 2, 2560
4, 31471, Pitch_bend_c, 2, 2688
4, 31472, Pitch_bend_c, 2, 2944
4, 31473, Pitch_bend_c, 2, 3200
4, 31474, Pitch_bend_c, 2, 3456
4, 31475, Pitch_bend_c, 2, 3584
4, 31476, Pitch_bend_c, 2, 3712
4, 31477, Pitch_bend_c, 2, 3968
4, 31478, Pitch_bend_c, 2, 4224
4, 31479, Pitch_bend_c, 2, 4480
4, 31481, Pitch_bend_c, 2, 4608
4, 31482, Pitch_bend_c, 2, 4736
4, 31483, Pitch_bend_c, 2, 5248
4, 31484, Pitch_bend_c, 2, 5504
4, 31485, Pitch_bend_c, 2, 5760
4, 31486, Pitch_bend_c, 2, 6016
4, 31487, Pitch_bend_c, 2, 6272
4, 31488, Pitch_bend_c, 2, 6784
4, 31489, Pitch_bend_c, 2, 7296
4, 31490, Pitch_bend_c, 2, 7552
4, 31491, Pitch_bend_c, 2, 7936
4, 31492, Pitch_bend_c, 2, 8064
4, 31493, Pitch_bend_c, 2, 8320
4, 31494, Pitch_bend_c, 2, 8192
4, 31500, Note_on_c, 2, 49, 0
4, 31500, Note_on_c, 2, 49, 100
4, 31530, Note_on_c, 2, 49, 0
4, 31530, Note_on_c, 2, 42, 100
4, 31560, Note_on_c, 2, 42, 0
4, 31560, Note_on_c, 2, 43, 100
4, 31590, Note_on_c, 2, 43, 0
4, 31590, Note_on_c, 2, 44, 100
4, 31620, Note_on_c, 2, 44, 0
4, 31620, Note_on_c, 2, 42, 100
4, 31650, Note_on_c, 2, 42, 0
4, 31650, Note_on_c, 2, 44, 100
4, 31680, Note_on_c, 2, 44, 0
4, 31680, Note_on_c, 2, 37, 100
4, 31710, Note_on_c, 2, 37, 0
4, 31710, Note_on_c, 2, 37, 100
4, 31740, Note_on_c, 2, 37, 0
4, 31740, Note_on_c, 2, 43, 100
4, 31770, Note_on_c, 2, 43, 0
4, 31770, Note_on_c, 2, 44, 100
4, 31800, Note_on_c, 2, 44, 0
4, 31800, Note_on_c, 2, 49, 100
4, 31920, Note_on_c, 2, 49, 0
4, 31920, Note_on_c, 2, 47, 100
4, 31980, Note_on_c, 2, 47, 0
4, 31980, Note_on_c, 2, 42, 100
4, 32040, Note_on_c, 2, 42, 0
4, 32040, Note_on_c, 2, 35, 100
4, 32160, Note_on_c, 2, 35, 0
4, 32160, Note_on_c, 2, 33, 100
4, 32220, Note_on_c, 2, 33, 0
4, 32220, Note_on_c, 2, 33, 100
4, 32280, Note_on_c, 2, 33, 0
4, 32280, Note_on_c, 2, 33, 100
4, 32400, Note_on_c, 2, 33, 0
4, 32400, Note_on_c, 2, 40, 100
4, 32430, Note_on_c, 2, 40, 0
4, 32430, Note_on_c, 2, 42, 100
4, 32460, Note_on_c, 2, 42, 0
4, 32460, Note_on_c, 2, 42, 100
4, 32490, Note_on_c, 2, 42, 0
4, 32490, Note_on_c, 2, 40, 100
4, 32520, Note_on_c, 2, 40, 0
4, 32520, Note_on_c, 2, 42, 100
4, 32550, Note_on_c, 2, 42, 0
4, 32550, Note_on_c, 2, 40, 100
4, 32580, Note_on_c, 2, 40, 0
4, 32580, Note_on_c, 2, 35, 100
4, 32610, Note_on_c, 2, 35, 0
4, 32610, Note_on_c, 2, 36, 100
4, 32640, Note_on_c, 2, 36, 0
4, 32640, Note_on_c, 2, 37, 100
4, 32700, Note_on_c, 2, 37, 0
4, 32700, Note_on_c, 2, 37, 100
4, 32760, Note_on_c, 2, 37, 0
4, 32790, Note_on_c, 2, 37, 80
4, 32820, Note_on_c, 2, 37, 0
4, 32850, Note_on_c, 2, 47, 100
4, 32880, Note_on_c, 2, 47, 0
4, 32880, Note_on_c, 2, 35, 100
4, 32940, Note_on_c, 2, 35, 0
4, 32940, Note_on_c, 2, 35, 100
4, 33000, Note_on_c, 2, 35, 0
4, 33060, Note_on_c, 2, 35, 100
4, 33090, Note_on_c, 2, 35, 0
4, 33090, Note_on_c, 2, 35, 100
4, 33120, Note_on_c, 2, 35, 0
4, 33120, Note_on_c, 2, 33, 100
4, 33180, Note_on_c, 2, 33, 0
4, 33180, Note_on_c, 2, 33, 100
4, 33240, Note_on_c, 2, 33, 0
4, 33360, Note_on_c, 2, 47, 100
4, 33390, Note_on_c, 2, 47, 0
4, 33390, Note_on_c, 2, 49, 100
4, 33420, Note_on_c, 2, 49, 0
4, 33420, Note_on_c, 2, 49, 100
4, 33450, Note_on_c, 2, 49, 0
4, 33450, Note_on_c, 2, 42, 100
4, 33480, Note_on_c, 2, 42, 0
4, 33480, Note_on_c, 2, 43, 100
4, 33510, Note_on_c, 2, 43, 0
4, 33510, Note_on_c, 2, 43, 100
4, 33540, Note_on_c, 2, 43, 0
4, 33540, Note_on_c, 2, 44, 100
4, 33600, Note_on_c, 2, 44, 0
4, 33600, Note_on_c, 2, 37, 100
4, 33660, Note_on_c, 2, 37, 0
4, 33660, Note_on_c, 2, 44, 100
4, 33690, Note_on_c, 2, 44, 0
4, 33690, Note_on_c, 2, 44, 100
4, 33720, Note_on_c, 2, 44, 0
4, 33720, Note_on_c, 2, 49, 100
4, 33840, Note_on_c, 2, 49, 0
4, 33840, Note_on_c, 2, 35, 100
4, 33870, Note_on_c, 2, 35, 0
4, 33870, Note_on_c, 2, 35, 100
4, 33900, Note_on_c, 2, 35, 0
4, 33900, Note_on_c, 2, 42, 100
4, 33930, Note_on_c, 2, 42, 0
4, 33930, Note_on_c, 2, 42, 100
4, 33960, Note_on_c, 2, 42, 0
4, 33960, Note_on_c, 2, 47, 100
4, 33990, Note_on_c, 2, 47, 0
4, 33990, Note_on_c, 2, 47, 100
4, 34020, Note_on_c, 2, 47, 0
4, 34080, Note_on_c, 2, 33, 100
4, 34140, Note_on_c, 2, 33, 0
4, 34140, Note_on_c, 2, 33, 100
4, 34170, Note_on_c, 2, 33, 0
4, 34170, Note_on_c, 2, 33, 100
4, 34200, Note_on_c, 2, 33, 0
4, 34200, Note_on_c, 2, 33, 100
4, 34260, Note_on_c, 2, 33, 0
4, 34260, Note_on_c, 2, 45, 100
4, 34290, Note_on_c, 2, 45, 0
4, 34290, Note_on_c, 2, 45, 100
4, 34320, Note_on_c, 2, 45, 0
4, 34320, Note_on_c, 2, 45, 100
4, 34380, Note_on_c, 2, 45, 0
4, 34380, Note_on_c, 2, 35, 100
4, 34410, Note_on_c, 2, 35, 0
4, 34410, Note_on_c, 2, 35, 100
4, 34440, Note_on_c, 2, 35, 0
4, 34440, Note_on_c, 2, 35, 100
4, 34470, Note_on_c, 2, 35, 0
4, 34470, Note_on_c, 2, 35, 100
4, 34500, Note_on_c, 2, 35, 0
4, 34500, Note_on_c, 2, 36, 100
4, 34530, Note_on_c, 2, 36, 0
4, 34530, Note_on_c, 2, 36, 100
4, 34560, Note_on_c, 2, 36, 0
4, 34560, Note_on_c, 2, 37, 100
4, 34620, Note_on_c, 2, 37, 0
4, 34620, Note_on_c, 2, 44, 100
4, 34650, Note_on_c, 2, 44, 0
4, 34650, Note_on_c, 2, 44, 100
4, 34680, Note_on_c, 2, 44, 0
4, 34680, Note_on_c, 2, 49, 100
4, 34800, Note_on_c, 2, 49, 0
4, 34800, Note_on_c, 2, 35, 100
4, 34830, Note_on_c, 2, 35, 0
4, 34830, Note_on_c, 2, 35, 100
4, 34860, Note_on_c, 2, 35, 0
4, 34860, Note_on_c, 2, 42, 100
4, 34890, Note_on_c, 2, 42, 0
4, 34890, Note_on_c, 2, 42, 100
4, 34920, Note_on_c, 2, 42, 0
4, 34920, Note_on_c, 2, 47, 100
4, 34950, Note_on_c, 2, 47, 0
4, 34950, Note_on_c, 2, 47, 100
4, 34980, Note_on_c, 2, 47, 0
4, 35070, Note_on_c, 2, 42, 100
4, 35130, Note_on_c, 2, 42, 0
4, 35130, Note_on_c, 2, 42, 100
4, 35160, Note_on_c, 2, 42, 0
4, 35160, Note_on_c, 2, 42, 100
4, 35190, Note_on_c, 2, 42, 0
4, 35190, Note_on_c, 2, 42, 100
4, 35220, Note_on_c, 2, 42, 0
4, 35220, Note_on_c, 2, 43, 100
4, 35280, Note_on_c, 2, 43, 0
4, 35280, Note_on_c, 2, 44, 100
4, 35310, Note_on_c, 2, 44, 0
4, 35310, Note_on_c, 2, 44, 100
4, 35340, Note_on_c, 2, 44, 0
4, 35340, Note_on_c, 2, 44, 100
4, 35400, Note_on_c, 2, 44, 0
4, 35400, Note_on_c, 2, 40, 100
4, 35430, Note_on_c, 2, 40, 0
4, 35430, Note_on_c, 2, 32, 100
4, 35460, Note_on_c, 2, 32, 0
4, 35460, Note_on_c, 2, 35, 100
4, 35520, Note_on_c, 2, 35, 0
4, 35520, Note_on_c, 2, 37, 100
4, 35580, Note_on_c, 2, 37, 0
4, 35580, Note_on_c, 2, 37, 100
4, 35640, Note_on_c, 2, 37, 0
4, 35700, Note_on_c, 2, 33, 100
4, 35760, Note_on_c, 2, 33, 0
4, 35760, Note_on_c, 2, 35, 100
4, 35820, Note_on_c, 2, 35, 0
4, 35820, Note_on_c, 2, 35, 100
4, 35880, Note_on_c, 2, 35, 0
4, 35940, Note_on_c, 2, 35, 100
4, 36000, Note_on_c, 2, 35, 0
4, 36000, Note_on_c, 2, 33, 100
4, 36060, Note_on_c, 2, 33, 0
4, 36060, Note_on_c, 2, 33, 100
4, 36120, Note_on_c, 2, 33, 0
4, 36120, Note_on_c, 2, 31, 100
4, 36150, Note_on_c, 2, 31, 0
4, 36150, Note_on_c, 2, 32, 100
4, 36180, Note_on_c, 2, 32, 0
4, 36180, Note_on_c, 2, 33, 100
4, 36240, Note_on_c, 2, 33, 0
4, 36240, Note_on_c, 2, 35, 100
4, 36270, Note_on_c, 2, 35, 0
4, 36270, Note_on_c, 2, 37, 100
4, 36300, Note_on_c, 2, 37, 0
4, 36300, Note_on_c, 2, 37, 100
4, 36330, Note_on_c, 2, 37, 0
4, 36330, Note_on_c, 2, 30, 100
4, 36360, Note_on_c, 2, 30, 0
4, 36360, Note_on_c, 2, 32, 100
4, 36390, Note_on_c, 2, 32, 0
4, 36390, Note_on_c, 2, 32, 100
4, 36420, Note_on_c, 2, 32, 0
4, 36420, Note_on_c, 2, 35, 100
4, 36480, Note_on_c, 2, 35, 0
4, 36480, Note_on_c, 2, 37, 100
4, 36540, Note_on_c, 2, 37, 0
4, 36540, Note_on_c, 2, 37, 100
4, 36570, Note_on_c, 2, 37, 0
4, 36570, Note_on_c, 2, 37, 100
4, 36600, Note_on_c, 2, 37, 0
4, 36600, Note_on_c, 2, 44, 100
4, 36630, Note_on_c, 2, 44, 0
4, 36630, Note_on_c, 2, 44, 100
4, 36660, Note_on_c, 2, 44, 0
4, 36660, Note_on_c, 2, 49, 100
4, 36720, Note_on_c, 2, 49, 0
4, 36720, Note_on_c, 2, 35, 100
4, 36750, Note_on_c, 2, 35, 0
4, 36750, Note_on_c, 2, 35, 100
4, 36780, Note_on_c, 2, 35, 0
4, 36780, Note_on_c, 2, 42, 100
4, 36840, Note_on_c, 2, 42, 0
4, 36840, Note_on_c, 2, 47, 100
4, 36900, Note_on_c, 2, 47, 0
4, 36900, Note_on_c, 2, 42, 100
4, 36930, Note_on_c, 2, 42, 0
4, 36930, Note_on_c, 2, 42, 100
4, 36960, Note_on_c, 2, 42, 0
4, 36960, Note_on_c, 2, 33, 100
4, 37020, Note_on_c, 2, 33, 0
4, 37020, Note_on_c, 2, 33, 100
4, 37080, Note_on_c, 2, 33, 0
4, 37080, Note_on_c, 2, 33, 100
4, 37110, Note_on_c, 2, 33, 0
4, 37110, Note_on_c, 2, 33, 100
4, 37140, Note_on_c, 2, 33, 0
4, 37140, Note_on_c, 2, 28, 100
4, 37200, Note_on_c, 2, 28, 0
4, 37200, Note_on_c, 2, 30, 100
4, 37260, Note_on_c, 2, 30, 0
4, 37260, Note_on_c, 2, 31, 100
4, 37320, Note_on_c, 2, 31, 0
4, 37320, Note_on_c, 2, 32, 100
4, 37380, Note_on_c, 2, 32, 0
4, 37380, Note_on_c, 2, 35, 100
4, 37440, Note_on_c, 2, 35, 0
4, 37440, Note_on_c, 2, 37, 100
4, 37500, Note_on_c, 2, 37, 0
4, 37500, Note_on_c, 2, 44, 100
4, 37560, Note_on_c, 2, 44, 0
4, 37560, Note_on_c, 2, 49, 100
4, 37620, Note_on_c, 2, 49, 0
4, 37620, Note_on_c, 2, 49, 70
4, 37650, Note_on_c, 2, 49, 0
4, 37650, Note_on_c, 2, 49, 70
4, 37680, Note_on_c, 2, 49, 0
4, 37680, Note_on_c, 2, 47, 100
4, 37710, Note_on_c, 2, 47, 0
4, 37710, Note_on_c, 2, 47, 100
4, 37740, Note_on_c, 2, 47, 0
4, 37740, Note_on_c, 2, 47, 100
4, 37800, Note_on_c, 2, 47, 0
4, 37800, Note_on_c, 2, 42, 100
4, 37860, Note_on_c, 2, 42, 0
4, 37860, Note_on_c, 2, 42, 70
4, 37890, Note_on_c, 2, 42, 0
4, 37890, Note_on_c, 2, 42, 70
4, 37920, Note_on_c, 2, 42, 0
4, 37920, Note_on_c, 2, 33, 70
4, 37980, Note_on_c, 2, 33, 0
4, 37980, Note_on_c, 2, 37, 70
4, 38040, Note_on_c, 2, 37, 0
4, 38040, Note_on_c, 2, 38, 70
4, 38100, Note_on_c, 2, 38, 0
4, 38100, Note_on_c, 2, 39, 70
4, 38130, Note_on_c, 2, 39, 0
4, 38130, Note_on_c, 2, 40, 70
4, 38190, Note_on_c, 2, 40, 0
4, 38190, Note_on_c, 2, 41, 70
4, 38220, Note_on_c, 2, 41, 0
4, 38220, Note_on_c, 2, 42, 70
4, 38280, Note_on_c, 2, 42, 0
4, 38280, Note_on_c, 2, 44, 100
4, 38340, Note_on_c, 2, 44, 0
4, 38340, Note_on_c, 2, 47, 100
4, 38400, Note_on_c, 2, 47, 0
4, 38400, Note_on_c, 2, 49, 100
4, 38460, Note_on_c, 2, 49, 0
4, 38460, Note_on_c, 2, 44, 100
4, 38520, Note_on_c, 2, 44, 0
4, 38520, Note_on_c, 2, 37, 100
4, 38610, Note_on_c, 2, 37, 0
4, 38640, Note_on_c, 2, 47, 100
4, 38700, Note_on_c, 2, 47, 0
4, 38700, Note_on_c, 2, 42, 100
4, 38760, Note_on_c, 2, 42, 0
4, 38760, Note_on_c, 2, 35, 100
4, 38850, Note_on_c, 2, 35, 0
4, 38880, Note_on_c, 2, 45, 100
4, 38940, Note_on_c, 2, 45, 0
4, 38940, Note_on_c, 2, 40, 100
4, 39000, Note_on_c, 2, 40, 0
4, 39000, Note_on_c, 2, 33, 100
4, 39060, Note_on_c, 2, 33, 0
4, 39060, Note_on_c, 2, 28, 100
4, 39120, Note_on_c, 2, 28, 0
4, 39120, Note_on_c, 2, 30, 100
4, 39180, Note_on_c, 2, 30, 0
4, 39180, Note_on_c, 2, 31, 100
4, 39240, Note_on_c, 2, 31, 0
4, 39240, Note_on_c, 2, 32, 100
4, 39300, Note_on_c, 2, 32, 0
4, 39300, Note_on_c, 2, 35, 100
4, 39360, Note_on_c, 2, 35, 0
4, 39360, Note_on_c, 2, 37, 100
4, 39480, Note_on_c, 2, 37, 0
4, 39570, Note_on_c, 2, 32, 100
4, 39600, Note_on_c, 2, 32, 0
4, 39600, Note_on_c, 2, 35, 100
4, 39660, Note_on_c, 2, 35, 0
4, 39660, Note_on_c, 2, 35, 100
4, 39720, Note_on_c, 2, 35, 0
4, 39780, Note_on_c, 2, 33, 100
4, 39810, Note_on_c, 2, 33, 0
4, 39810, Note_on_c, 2, 35, 100
4, 39840, Note_on_c, 2, 35, 0
4, 39840, Note_on_c, 2, 33, 100
4, 40080, Note_on_c, 2, 33, 0
4, 40080, Note_on_c, 2, 49, 100
4, 40110, Note_on_c, 2, 49, 0
4, 40110, Note_on_c, 2, 49, 100
4, 40140, Note_on_c, 2, 49, 0
4, 40140, Note_on_c, 2, 49, 100
4, 40200, Note_on_c, 2, 49, 0
4, 40200, Note_on_c, 2, 42, 100
4, 40230, Note_on_c, 2, 42, 0
4, 40230, Note_on_c, 2, 43, 100
4, 40260, Note_on_c, 2, 43, 0
4, 40260, Note_on_c, 2, 44, 100
4, 40320, Note_on_c, 2, 44, 0
4, 40320, Note_on_c, 2, 37, 100
4, 40530, Note_on_c, 2, 37, 0
4, 40530, Note_on_c, 2, 33, 100
4, 40560, Note_on_c, 2, 33, 0
4, 40560, Note_on_c, 2, 35, 100
4, 40620, Note_on_c, 2, 35, 0
4, 40620, Note_on_c, 2, 35, 100
4, 40710, Note_on_c, 2, 35, 0
4, 40710, Note_on_c, 2, 33, 100
4, 40740, Note_on_c, 2, 33, 0
4, 40740, Note_on_c, 2, 35, 100
4, 40800, Note_on_c, 2, 35, 0
4, 40800, Note_on_c, 2, 33, 100
4, 41010, Note_on_c, 2, 33, 0
4, 41010, Note_on_c, 2, 40, 100
4, 41040, Note_on_c, 2, 40, 0
4, 41040, Note_on_c, 2, 42, 100
4, 41100, Note_on_c, 2, 42, 0
4, 41100, Note_on_c, 2, 42, 100
4, 41160, Note_on_c, 2, 42, 0
4, 41160, Note_on_c, 2, 42, 100
4, 41220, Note_on_c, 2, 42, 0
4, 41220, Note_on_c, 2, 40, 100
4, 41250, Note_on_c, 2, 40, 0
4, 41250, Note_on_c, 2, 37, 100
4, 41280, Note_on_c, 2, 37, 0
4, 41280, Note_on_c, 2, 37, 100
4, 41490, Note_on_c, 2, 37, 0
4, 41490, Note_on_c, 2, 42, 100
4, 41520, Note_on_c, 2, 42, 0
4, 41520, Note_on_c, 2, 35, 100
4, 41580, Note_on_c, 2, 35, 0
4, 41580, Note_on_c, 2, 35, 100
4, 41700, Note_on_c, 2, 35, 0
4, 41700, Note_on_c, 2, 35, 100
4, 41760, Note_on_c, 2, 35, 0
4, 41760, Note_on_c, 2, 33, 100
4, 41820, Note_on_c, 2, 33, 0
4, 41820, Note_on_c, 2, 33, 100
4, 41940, Note_on_c, 2, 33, 0
4, 42000, Note_on_c, 2, 45, 100
4, 42120, Note_on_c, 2, 45, 0
4, 42120, Note_on_c, 2, 35, 100
4, 42150, Note_on_c, 2, 35, 0
4, 42150, Note_on_c, 2, 35, 100
4, 42180, Note_on_c, 2, 35, 0
4, 42210, Note_on_c, 2, 33, 100
4, 42240, Note_on_c, 2, 33, 0
4, 42240, Note_on_c, 2, 37, 100
4, 42450, Note_on_c, 2, 37, 0
4, 42450, Note_on_c, 2, 33, 100
4, 42480, Note_on_c, 2, 33, 0
4, 42480, Note_on_c, 2, 35, 100
4, 42540, Note_on_c, 2, 35, 0
4, 42540, Note_on_c, 2, 35, 100
4, 42630, Note_on_c, 2, 35, 0
4, 42630, Note_on_c, 2, 33, 100
4, 42660, Note_on_c, 2, 33, 0
4, 42660, Note_on_c, 2, 33, 100
4, 42720, Note_on_c, 2, 33, 0
4, 42720, Pitch_bend_c, 2, 0
4, 42720, Note_on_c, 2, 42, 100
4, 42721, Pitch_bend_c, 2, 128
4, 42722, Pitch_bend_c, 2, 256
4, 42723, Pitch_bend_c, 2, 384
4, 42724, Pitch_bend_c, 2, 512
4, 42725, Pitch_bend_c, 2, 640
4, 42726, Pitch_bend_c, 2, 768
4, 42727, Pitch_bend_c, 2, 896
4, 42728, Pitch_bend_c, 2, 1024
4, 42729, Pitch_bend_c, 2, 1152
4, 42730, Pitch_bend_c, 2, 1408
4, 42731, Pitch_bend_c, 2, 1536
4, 42732, Pitch_bend_c, 2, 1664
4, 42733, Pitch_bend_c, 2, 1792
4, 42734, Pitch_bend_c, 2, 1920
4, 42735, Pitch_bend_c, 2, 2048
4, 42736, Pitch_bend_c, 2, 2176
4, 42737, Pitch_bend_c, 2, 2304
4, 42738, Pitch_bend_c, 2, 2432
4, 42739, Pitch_bend_c, 2, 2560
4, 42740, Pitch_bend_c, 2, 2816
4, 42741, Pitch_bend_c, 2, 2944
4, 42742, Pitch_bend_c, 2, 3072
4, 42743, Pitch_bend_c, 2, 3200
4, 42744, Pitch_bend_c, 2, 3328
4, 42745, Pitch_bend_c, 2, 3456
4, 42746, Pitch_bend_c, 2, 3584
4, 42747, Pitch_bend_c, 2, 3712
4, 42748, Pitch_bend_c, 2, 3840
4, 42749, Pitch_bend_c, 2, 4096
4, 42750, Pitch_bend_c, 2, 4224
4, 42751, Pitch_bend_c, 2, 4352
4, 42752, Pitch_bend_c, 2, 4480
4, 42753, Pitch_bend_c, 2, 4608
4, 42754, Pitch_bend_c, 2, 4736
4, 42755, Pitch_bend_c, 2, 4864
4, 42756, Pitch_bend_c, 2, 4992
4, 42757, Pitch_bend_c, 2, 5120
4, 42758, Pitch_bend_c, 2, 5248
4, 42759, Pitch_bend_c, 2, 5504
4, 42760, Pitch_bend_c, 2, 5632
4, 42761, Pitch_bend_c, 2, 5760
4, 42762, Pitch_bend_c, 2, 5888
4, 42763, Pitch_bend_c, 2, 6016
4, 42764, Pitch_bend_c, 2, 6144
4, 42765, Pitch_bend_c, 2, 6272
4, 42766, Pitch_bend_c, 2, 6400
4, 42767, Pitch_bend_c, 2, 6528
4, 42768, Pitch_bend_c, 2, 6656
4, 42769, Pitch_bend_c, 2, 6912
4, 42770, Pitch_bend_c, 2, 7040
4, 42771, Pitch_bend_c, 2, 7168
4, 42772, Pitch_bend_c, 2, 7296
4, 42773, Pitch_bend_c, 2, 7424
4, 42774, Pitch_bend_c, 2, 7552
4, 42775, Pitch_bend_c, 2, 7680
4, 42776, Pitch_bend_c, 2, 7808
4, 42777, Pitch_bend_c, 2, 7936
4, 42778, Pitch_bend_c, 2, 8192
4, 42960, Note_on_c, 2, 42, 0
4, 42960, Pitch_bend_c, 2, 128
4, 42960, Note_on_c, 2, 54, 100
4, 42961, Pitch_bend_c, 2, 256
4, 42962, Pitch_bend_c, 2, 384
4, 42963, Pitch_bend_c, 2, 640
4, 42964, Pitch_bend_c, 2, 768
4, 42965, Pitch_bend_c, 2, 1024
4, 42966, Pitch_bend_c, 2, 1152
4, 42967, Pitch_bend_c, 2, 1408
4, 42968, Pitch_bend_c, 2, 1536
4, 42969, Pitch_bend_c, 2, 1792
4, 42970, Pitch_bend_c, 2, 1920
4, 42971, Pitch_bend_c, 2, 2176
4, 42972, Pitch_bend_c, 2, 2304
4, 42973, Pitch_bend_c, 2, 2560
4, 42974, Pitch_bend_c, 2, 2688
4, 42975, Pitch_bend_c, 2, 2816
4, 42976, Pitch_bend_c, 2, 3072
4, 42977, Pitch_bend_c, 2, 3200
4, 42978, Pitch_bend_c, 2, 3456
4, 42979, Pitch_bend_c, 2, 3584
4, 42980, Pitch_bend_c, 2, 3840
4, 42981, Pitch_bend_c, 2, 3968
4, 42982, Pitch_bend_c, 2, 4224
4, 42983, Pitch_bend_c, 2, 4352
4, 42984, Pitch_bend_c, 2, 4608
4, 42985, Pitch_bend_c, 2, 4736
4, 42986, Pitch_bend_c, 2, 4992
4, 42987, Pitch_bend_c, 2, 5120
4, 42988, Pitch_bend_c, 2, 5376
4, 42989, Pitch_bend_c, 2, 5504
4, 42990, Pitch_bend_c, 2, 5632
4, 42991, Pitch_bend_c, 2, 5888
4, 42992, Pitch_bend_c, 2, 6016
4, 42993, Pitch_bend_c, 2, 6272
4, 42994, Pitch_bend_c, 2, 6400
4, 42995, Pitch_bend_c, 2, 6656
4, 42996, Pitch_bend_c, 2, 6784
4, 42997, Pitch_bend_c, 2, 7040
4, 42998, Pitch_bend_c, 2, 7168
4, 42999, Pitch_bend_c, 2, 7424
4, 43000, Pitch_bend_c, 2, 7552
4, 43001, Pitch_bend_c, 2, 7808
4, 43002, Pitch_bend_c, 2, 7936
4, 43003, Pitch_bend_c, 2, 8192
4, 43020, Note_on_c, 2, 54, 0
4, 43020, Note_on_c, 2, 42, 100
4, 43110, Note_on_c, 2, 42, 0
4, 43110, Note_on_c, 2, 48, 100
4, 43140, Note_on_c, 2, 48, 0
4, 43140, Note_on_c, 2, 49, 100
4, 43200, Note_on_c, 2, 49, 0
4, 43200, Note_on_c, 2, 37, 100
4, 43410, Note_on_c, 2, 37, 0
4, 43410, Note_on_c, 2, 33, 100
4, 43440, Note_on_c, 2, 33, 0
4, 43440, Note_on_c, 2, 35, 100
4, 43500, Note_on_c, 2, 35, 0
4, 43500, Note_on_c, 2, 35, 100
4, 43590, Note_on_c, 2, 35, 0
4, 43590, Note_on_c, 2, 42, 100
4, 43620, Note_on_c, 2, 42, 0
4, 43620, Note_on_c, 2, 35, 100
4, 43680, Note_on_c, 2, 35, 0
4, 43680, Note_on_c, 2, 33, 100
4, 43860, Note_on_c, 2, 33, 0
4, 43860, Note_on_c, 2, 33, 100
4, 43890, Note_on_c, 2, 33, 0
4, 43890, Note_on_c, 2, 33, 100
4, 43920, Note_on_c, 2, 33, 0
4, 43920, Pitch_bend_c, 2, 0
4, 43920, Note_on_c, 2, 47, 100
4, 43921, Pitch_bend_c, 2, 384
4, 43922, Pitch_bend_c, 2, 768
4, 43923, Pitch_bend_c, 2, 1152
4, 43924, Pitch_bend_c, 2, 1536
4, 43925, Pitch_bend_c, 2, 1920
4, 43926, Pitch_bend_c, 2, 2304
4, 43927, Pitch_bend_c, 2, 2688
4, 43928, Pitch_bend_c, 2, 3072
4, 43929, Pitch_bend_c, 2, 3456
4, 43930, Pitch_bend_c, 2, 3840
4, 43931, Pitch_bend_c, 2, 4224
4, 43932, Pitch_bend_c, 2, 4608
4, 43933, Pitch_bend_c, 2, 4992
4, 43934, Pitch_bend_c, 2, 5376
4, 43935, Pitch_bend_c, 2, 5760
4, 43936, Pitch_bend_c, 2, 6144
4, 43937, Pitch_bend_c, 2, 6528
4, 43938, Pitch_bend_c, 2, 6912
4, 43939, Pitch_bend_c, 2, 7296
4, 43940, Pitch_bend_c, 2, 7680
4, 43941, Pitch_bend_c, 2, 8192
4, 43950, Note_on_c, 2, 47, 0
4, 43950, Note_on_c, 2, 47, 100
4, 43980, Note_on_c, 2, 47, 0
4, 43980, Note_on_c, 2, 47, 100
4, 44010, Note_on_c, 2, 47, 0
4, 44010, Note_on_c, 2, 47, 100
4, 44040, Note_on_c, 2, 47, 0
4, 44040, Note_on_c, 2, 49, 100
4, 44041, Pitch_bend_c, 2, 0
4, 44042, Pitch_bend_c, 2, 384
4, 44043, Pitch_bend_c, 2, 896
4, 44044, Pitch_bend_c, 2, 1280
4, 44045, Pitch_bend_c, 2, 1792
4, 44046, Pitch_bend_c, 2, 2176
4, 44047, Pitch_bend_c, 2, 2688
4, 44048, Pitch_bend_c, 2, 3072
4, 44049, Pitch_bend_c, 2, 3584
4, 44050, Pitch_bend_c, 2, 4096
4, 44051, Pitch_bend_c, 2, 4480
4, 44052, Pitch_bend_c, 2, 4992
4, 44053, Pitch_bend_c, 2, 5376
4, 44054, Pitch_bend_c, 2, 5888
4, 44055, Pitch_bend_c, 2, 6272
4, 44056, Pitch_bend_c, 2, 6784
4, 44057, Pitch_bend_c, 2, 7168
4, 44058, Pitch_bend_c, 2, 7680
4, 44059, Pitch_bend_c, 2, 8192
4, 44070, Note_on_c, 2, 49, 0
4, 44070, Note_on_c, 2, 49, 100
4, 44100, Note_on_c, 2, 49, 0
4, 44100, Note_on_c, 2, 49, 100
4, 44160, Note_on_c, 2, 49, 0
4, 44160, Note_on_c, 2, 37, 100
4, 44370, Note_on_c, 2, 37, 0
4, 44370, Note_on_c, 2, 33, 100
4, 44400, Note_on_c, 2, 33, 0
4, 44400, Note_on_c, 2, 35, 100
4, 44460, Note_on_c, 2, 35, 0
4, 44460, Note_on_c, 2, 35, 100
4, 44550, Note_on_c, 2, 35, 0
4, 44550, Note_on_c, 2, 33, 100
4, 44580, Note_on_c, 2, 33, 0
4, 44580, Note_on_c, 2, 35, 100
4, 44640, Note_on_c, 2, 35, 0
4, 44640, Note_on_c, 2, 33, 100
4, 44760, Note_on_c, 2, 33, 0
4, 44760, Note_on_c, 2, 49, 100
4, 44790, Note_on_c, 2, 49, 0
4, 44790, Note_on_c, 2, 37, 100
4, 44820, Note_on_c, 2, 37, 0
4, 44820, Note_on_c, 2, 49, 100
4, 44850, Note_on_c, 2, 49, 0
4, 44850, Note_on_c, 2, 49, 100
4, 44880, Note_on_c, 2, 49, 0
4, 44880, Note_on_c, 2, 49, 100
4, 44940, Note_on_c, 2, 49, 0
4, 44940, Note_on_c, 2, 37, 100
4, 44970, Note_on_c, 2, 37, 0
4, 44970, Note_on_c, 2, 44, 100
4, 45000, Note_on_c, 2, 44, 0
4, 45000, Note_on_c, 2, 49, 100
4, 45030, Note_on_c, 2, 49, 0
4, 45030, Note_on_c, 2, 37, 100
4, 45060, Note_on_c, 2, 37, 0
4, 45060, Note_on_c, 2, 49, 100
4, 45120, Note_on_c, 2, 49, 0
4, 45120, Note_on_c, 2, 37, 100
4, 45330, Note_on_c, 2, 37, 0
4, 45330, Note_on_c, 2, 33, 100
4, 45360, Note_on_c, 2, 33, 0
4, 45360, Note_on_c, 2, 35, 100
4, 45420, Note_on_c, 2, 35, 0
4, 45420, Note_on_c, 2, 35, 100
4, 45510, Note_on_c, 2, 35, 0
4, 45510, Note_on_c, 2, 47, 100
4, 45540, Note_on_c, 2, 47, 0
4, 45540, Note_on_c, 2, 35, 100
4, 45600, Note_on_c, 2, 35, 0
4, 45600, Note_on_c, 2, 33, 100
4, 45780, Note_on_c, 2, 33, 0
4, 45780, Note_on_c, 2, 33, 100
4, 45840, Note_on_c, 2, 33, 0
4, 45840, Note_on_c, 2, 49, 100
4, 45870, Note_on_c, 2, 49, 0
4, 45870, Note_on_c, 2, 49, 100
4, 45900, Note_on_c, 2, 49, 0
4, 45960, Note_on_c, 2, 42, 100
4, 45990, Note_on_c, 2, 42, 0
4, 45990, Note_on_c, 2, 42, 100
4, 46020, Note_on_c, 2, 42, 0
4, 46020, Note_on_c, 2, 40, 100
4, 46080, Note_on_c, 2, 40, 0
4, 46080, Note_on_c, 2, 37, 100
4, 46290, Note_on_c, 2, 37, 0
4, 46290, Note_on_c, 2, 33, 100
4, 46320, Note_on_c, 2, 33, 0
4, 46320, Note_on_c, 2, 35, 100
4, 46380, Note_on_c, 2, 35, 0
4, 46380, Note_on_c, 2, 35, 100
4, 46440, Note_on_c, 2, 35, 0
4, 46560, Note_on_c, 2, 49, 100
4, 46590, Note_on_c, 2, 49, 0
4, 46590, Note_on_c, 2, 49, 100
4, 46620, Note_on_c, 2, 49, 0
4, 46620, Note_on_c, 2, 43, 100
4, 46650, Note_on_c, 2, 43, 0
4, 46650, Note_on_c, 2, 53, 100
4, 46740, Note_on_c, 2, 53, 0
4, 46740, Note_on_c, 2, 54, 100
4, 46770, Note_on_c, 2, 54, 0
4, 46770, Note_on_c, 2, 54, 100
4, 46800, Note_on_c, 2, 54, 0
4, 46800, Note_on_c, 2, 54, 100
4, 46830, Note_on_c, 2, 54, 0
4, 46830, Note_on_c, 2, 55, 100
4, 46860, Note_on_c, 2, 55, 0
4, 46860, Note_on_c, 2, 55, 100
4, 46890, Note_on_c, 2, 55, 0
4, 46890, Note_on_c, 2, 55, 100
4, 46920, Note_on_c, 2, 55, 0
4, 46920, Note_on_c, 2, 56, 100
4, 46950, Note_on_c, 2, 56, 0
4, 46950, Note_on_c, 2, 56, 100
4, 46980, Note_on_c, 2, 56, 0
4, 46980, Note_on_c, 2, 56, 100
4, 47040, Note_on_c, 2, 56, 0
4, 47040, Note_on_c, 2, 49, 100
4, 47100, Note_on_c, 2, 49, 0
4, 47100, Note_on_c, 2, 44, 100
4, 47160, Note_on_c, 2, 44, 0
4, 47160, Note_on_c, 2, 37, 100
4, 47220, Note_on_c, 2, 37, 0
4, 47220, Note_on_c, 2, 44, 100
4, 47280, Note_on_c, 2, 44, 0
4, 47280, Note_on_c, 2, 47, 100
4, 47310, Note_on_c, 2, 47, 0
4, 47310, Note_on_c, 2, 47, 100
4, 47340, Note_on_c, 2, 47, 0
4, 47340, Note_on_c, 2, 42, 100
4, 47400, Note_on_c, 2, 42, 0
4, 47400, Note_on_c, 2, 35, 100
4, 47460, Note_on_c, 2, 35, 0
4, 47460, Note_on_c, 2, 42, 100
4, 47520, Note_on_c, 2, 42, 0
4, 47520, Note_on_c, 2, 45, 100
4, 47550, Note_on_c, 2, 45, 0
4, 47550, Note_on_c, 2, 45, 100
4, 47580, Note_on_c, 2, 45, 0
4, 47580, Note_on_c, 2, 40, 100
4, 47640, Note_on_c, 2, 40, 0
4, 47640, Note_on_c, 2, 45, 100
4, 47700, Note_on_c, 2, 45, 0
4, 47700, Note_on_c, 2, 40, 100
4, 47730, Note_on_c, 2, 40, 0
4, 47730, Note_on_c, 2, 40, 100
4, 47760, Note_on_c, 2, 40, 0
4, 47760, Note_on_c, 2, 49, 100
4, 47790, Note_on_c, 2, 49, 0
4, 47790, Note_on_c, 2, 49, 100
4, 47820, Note_on_c, 2, 49, 0
4, 47820, Note_on_c, 2, 49, 100
4, 47850, Note_on_c, 2, 49, 0
4, 47850, Note_on_c, 2, 49, 100
4, 47880, Note_on_c, 2, 49, 0
4, 47880, Note_on_c, 2, 42, 100
4, 47910, Note_on_c, 2, 42, 0
4, 47910, Note_on_c, 2, 44, 100
4, 47940, Note_on_c, 2, 44, 0
4, 47940, Note_on_c, 2, 44, 100
4, 48000, Note_on_c, 2, 44, 0
4, 48000, Note_on_c, 2, 37, 100
4, 48060, Note_on_c, 2, 37, 0
4, 48060, Note_on_c, 2, 44, 100
4, 48090, Note_on_c, 2, 44, 0
4, 48090, Note_on_c, 2, 44, 100
4, 48120, Note_on_c, 2, 44, 0
4, 48120, Note_on_c, 2, 49, 100
4, 48150, Note_on_c, 2, 49, 0
4, 48150, Note_on_c, 2, 49, 100
4, 48180, Note_on_c, 2, 49, 0
4, 48180, Note_on_c, 2, 44, 100
4, 48240, Note_on_c, 2, 44, 0
4, 48240, Note_on_c, 2, 35, 100
4, 48300, Note_on_c, 2, 35, 0
4, 48300, Note_on_c, 2, 42, 100
4, 48360, Note_on_c, 2, 42, 0
4, 48360, Note_on_c, 2, 47, 100
4, 48420, Note_on_c, 2, 47, 0
4, 48420, Note_on_c, 2, 42, 100
4, 48480, Note_on_c, 2, 42, 0
4, 48480, Note_on_c, 2, 33, 100
4, 48540, Note_on_c, 2, 33, 0
4, 48540, Note_on_c, 2, 40, 100
4, 48600, Note_on_c, 2, 40, 0
4, 48600, Note_on_c, 2, 45, 100
4, 48630, Note_on_c, 2, 45, 0
4, 48630, Note_on_c, 2, 45, 100
4, 48660, Note_on_c, 2, 45, 0
4, 48660, Note_on_c, 2, 45, 100
4, 48720, Note_on_c, 2, 45, 0
4, 48720, Note_on_c, 2, 36, 100
4, 48750, Note_on_c, 2, 36, 0
4, 48750, Note_on_c, 2, 37, 100
4, 48780, Note_on_c, 2, 37, 0
4, 48780, Note_on_c, 2, 37, 100
4, 48810, Note_on_c, 2, 37, 0
4, 48810, Note_on_c, 2, 35, 100
4, 48840, Note_on_c, 2, 35, 0
4, 48840, Note_on_c, 2, 35, 100
4, 48870, Note_on_c, 2, 35, 0
4, 48870, Note_on_c, 2, 35, 100
4, 48900, Note_on_c, 2, 35, 0
4, 48900, Note_on_c, 2, 36, 100
4, 48930, Note_on_c, 2, 36, 0
4, 48930, Note_on_c, 2, 36, 100
4, 48960, Note_on_c, 2, 36, 0
4, 48960, Note_on_c, 2, 37, 100
4, 49080, Note_on_c, 2, 37, 0
4, 49080, Note_on_c, 2, 42, 100
4, 49110, Note_on_c, 2, 42, 0
4, 49110, Note_on_c, 2, 43, 100
4, 49140, Note_on_c, 2, 43, 0
4, 49140, Note_on_c, 2, 44, 100
4, 49200, Note_on_c, 2, 44, 0
4, 49200, Note_on_c, 2, 35, 100
4, 49260, Note_on_c, 2, 35, 0
4, 49260, Note_on_c, 2, 47, 100
4, 49290, Note_on_c, 2, 47, 0
4, 49320, Note_on_c, 2, 40, 100
4, 49350, Note_on_c, 2, 40, 0
4, 49350, Note_on_c, 2, 41, 100
4, 49380, Note_on_c, 2, 41, 0
4, 49380, Note_on_c, 2, 42, 100
4, 49410, Note_on_c, 2, 42, 0
4, 49410, Note_on_c, 2, 33, 100
4, 49440, Note_on_c, 2, 33, 0
4, 49440, Note_on_c, 2, 33, 100
4, 49560, Note_on_c, 2, 33, 0
4, 49560, Note_on_c, 2, 37, 100
4, 49620, Note_on_c, 2, 37, 0
4, 49620, Note_on_c, 2, 38, 100
4, 49650, Note_on_c, 2, 38, 0
4, 49650, Note_on_c, 2, 40, 100
4, 49680, Note_on_c, 2, 40, 0
4, 49680, Note_on_c, 2, 35, 100
4, 49770, Note_on_c, 2, 35, 0
4, 49770, Note_on_c, 2, 42, 100
4, 49800, Note_on_c, 2, 42, 0
4, 49800, Note_on_c, 2, 47, 100
4, 49830, Note_on_c, 2, 47, 0
4, 49860, Note_on_c, 2, 35, 100
4, 49920, Note_on_c, 2, 35, 0
4, 49920, Note_on_c, 2, 37, 100
4, 49980, Note_on_c, 2, 37, 0
4, 49980, Note_on_c, 2, 44, 100
4, 50010, Note_on_c, 2, 44, 0
4, 50010, Note_on_c, 2, 44, 100
4, 50040, Note_on_c, 2, 44, 0
4, 50040, Note_on_c, 2, 49, 100
4, 50100, Note_on_c, 2, 49, 0
4, 50130, Note_on_c, 2, 44, 100
4, 50160, Note_on_c, 2, 44, 0
4, 50160, Note_on_c, 2, 47, 100
4, 50190, Note_on_c, 2, 47, 0
4, 50190, Note_on_c, 2, 47, 100
4, 50220, Note_on_c, 2, 47, 0
4, 50220, Note_on_c, 2, 42, 100
4, 50280, Note_on_c, 2, 42, 0
4, 50280, Note_on_c, 2, 35, 100
4, 50340, Note_on_c, 2, 35, 0
4, 50400, Pitch_bend_c, 2, 128
4, 50400, Note_on_c, 2, 54, 100
4, 50401, Pitch_bend_c, 2, 384
4, 50402, Pitch_bend_c, 2, 640
4, 50403, Pitch_bend_c, 2, 1024
4, 50404, Pitch_bend_c, 2, 1280
4, 50405, Pitch_bend_c, 2, 1536
4, 50406, Pitch_bend_c, 2, 1920
4, 50407, Pitch_bend_c, 2, 2176
4, 50408, Pitch_bend_c, 2, 2432
4, 50409, Pitch_bend_c, 2, 2816
4, 50410, Pitch_bend_c, 2, 3072
4, 50411, Pitch_bend_c, 2, 3328
4, 50412, Pitch_bend_c, 2, 3712
4, 50413, Pitch_bend_c, 2, 3968
4, 50414, Pitch_bend_c, 2, 4224
4, 50415, Pitch_bend_c, 2, 4608
4, 50416, Pitch_bend_c, 2, 4864
4, 50417, Pitch_bend_c, 2, 5120
4, 50418, Pitch_bend_c, 2, 5504
4, 50419, Pitch_bend_c, 2, 5760
4, 50420, Pitch_bend_c, 2, 6016
4, 50421, Pitch_bend_c, 2, 6400
4, 50422, Pitch_bend_c, 2, 6656
4, 50423, Pitch_bend_c, 2, 6912
4, 50424, Pitch_bend_c, 2, 7296
4, 50425, Pitch_bend_c, 2, 7552
4, 50426, Pitch_bend_c, 2, 7808
4, 50427, Pitch_bend_c, 2, 8192
4, 50430, Note_on_c, 2, 54, 0
4, 50430, Note_on_c, 2, 54, 100
4, 50460, Note_on_c, 2, 54, 0
4, 50460, Note_on_c, 2, 54, 100
4, 50490, Note_on_c, 2, 54, 0
4, 50490, Note_on_c, 2, 47, 100
4, 50520, Note_on_c, 2, 47, 0
4, 50520, Pitch_bend_c, 2, 0
4, 50520, Note_on_c, 2, 49, 100
4, 50521, Pitch_bend_c, 2, 256
4, 50522, Pitch_bend_c, 2, 512
4, 50523, Pitch_bend_c, 2, 768
4, 50524, Pitch_bend_c, 2, 1024
4, 50525, Pitch_bend_c, 2, 1408
4, 50526, Pitch_bend_c, 2, 1664
4, 50527, Pitch_bend_c, 2, 1920
4, 50528, Pitch_bend_c, 2, 2176
4, 50529, Pitch_bend_c, 2, 2432
4, 50530, Pitch_bend_c, 2, 2816
4, 50531, Pitch_bend_c, 2, 3072
4, 50532, Pitch_bend_c, 2, 3328
4, 50533, Pitch_bend_c, 2, 3584
4, 50534, Pitch_bend_c, 2, 3840
4, 50535, Pitch_bend_c, 2, 4224
4, 50536, Pitch_bend_c, 2, 4480
4, 50537, Pitch_bend_c, 2, 4736
4, 50538, Pitch_bend_c, 2, 4992
4, 50539, Pitch_bend_c, 2, 5248
4, 50540, Pitch_bend_c, 2, 5632
4, 50541, Pitch_bend_c, 2, 5888
4, 50542, Pitch_bend_c, 2, 6144
4, 50543, Pitch_bend_c, 2, 6400
4, 50544, Pitch_bend_c, 2, 6656
4, 50545, Pitch_bend_c, 2, 7040
4, 50546, Pitch_bend_c, 2, 7296
4, 50547, Pitch_bend_c, 2, 7552
4, 50548, Pitch_bend_c, 2, 7808
4, 50549, Pitch_bend_c, 2, 8192
4, 50550, Note_on_c, 2, 49, 0
4, 50550, Note_on_c, 2, 49, 100
4, 50580, Note_on_c, 2, 49, 0
4, 50580, Note_on_c, 2, 49, 100
4, 50610, Note_on_c, 2, 49, 0
4, 50610, Note_on_c, 2, 49, 100
4, 50640, Note_on_c, 2, 49, 0
4, 50640, Note_on_c, 2, 42, 100
4, 50670, Note_on_c, 2, 42, 0
4, 50670, Pitch_bend_c, 2, 128
4, 50670, Note_on_c, 2, 44, 100
4, 50671, Pitch_bend_c, 2, 384
4, 50672, Pitch_bend_c, 2, 640
4, 50673, Pitch_bend_c, 2, 1024
4, 50674, Pitch_bend_c, 2, 1280
4, 50675, Pitch_bend_c, 2, 1536
4, 50676, Pitch_bend_c, 2, 1920
4, 50677, Pitch_bend_c, 2, 2176
4, 50678, Pitch_bend_c, 2, 2432
4, 50679, Pitch_bend_c, 2, 2816
4, 50680, Pitch_bend_c, 2, 3072
4, 50681, Pitch_bend_c, 2, 3328
4, 50682, Pitch_bend_c, 2, 3712
4, 50683, Pitch_bend_c, 2, 3968
4, 50684, Pitch_bend_c, 2, 4224
4, 50685, Pitch_bend_c, 2, 4608
4, 50686, Pitch_bend_c, 2, 4864
4, 50687, Pitch_bend_c, 2, 5120
4, 50688, Pitch_bend_c, 2, 5504
4, 50689, Pitch_bend_c, 2, 5760
4, 50690, Pitch_bend_c, 2, 6016
4, 50691, Pitch_bend_c, 2, 6400
4, 50692, Pitch_bend_c, 2, 6656
4, 50693, Pitch_bend_c, 2, 6912
4, 50694, Pitch_bend_c, 2, 7296
4, 50695, Pitch_bend_c, 2, 7552
4, 50696, Pitch_bend_c, 2, 7808
4, 50697, Pitch_bend_c, 2, 8192
4, 50700, Note_on_c, 2, 44, 0
4, 50700, Note_on_c, 2, 44, 100
4, 50730, Note_on_c, 2, 44, 0
4, 50730, Note_on_c, 2, 44, 100
4, 50760, Note_on_c, 2, 44, 0
4, 50760, Note_on_c, 2, 42, 100
4, 50790, Note_on_c, 2, 42, 0
4, 50790, Note_on_c, 2, 44, 100
4, 50820, Note_on_c, 2, 44, 0
4, 50820, Note_on_c, 2, 40, 100
4, 50880, Note_on_c, 2, 40, 0
4, 50880, Note_on_c, 2, 37, 100
4, 50940, Note_on_c, 2, 37, 0
4, 50940, Note_on_c, 2, 37, 100
4, 51000, Note_on_c, 2, 37, 0
4, 51120, Note_on_c, 2, 35, 100
4, 51180, Note_on_c, 2, 35, 0
4, 51180, Note_on_c, 2, 35, 100
4, 51240, Note_on_c, 2, 35, 0
4, 51270, Note_on_c, 2, 35, 100
4, 51300, Note_on_c, 2, 35, 0
4, 51300, Note_on_c, 2, 35, 100
4, 51360, Note_on_c, 2, 35, 0
4, 51360, Note_on_c, 2, 33, 100
4, 51390, Note_on_c, 2, 33, 0
4, 51390, Note_on_c, 2, 33, 100
4, 51420, Note_on_c, 2, 33, 0
4, 51420, Note_on_c, 2, 33, 100
4, 51480, Note_on_c, 2, 33, 0
4, 51480, Note_on_c, 2, 45, 100
4, 51510, Note_on_c, 2, 45, 0
4, 51510, Note_on_c, 2, 42, 100
4, 51540, Note_on_c, 2, 42, 0
4, 51540, Note_on_c, 2, 44, 100
4, 51570, Note_on_c, 2, 44, 0
4, 51570, Note_on_c, 2, 45, 100
4, 51600, Note_on_c, 2, 45, 0
4, 51600, Note_on_c, 2, 47, 100
4, 51660, Note_on_c, 2, 47, 0
4, 51660, Note_on_c, 2, 48, 100
4, 51720, Note_on_c, 2, 48, 0
4, 51720, Note_on_c, 2, 49, 100
4, 51780, Note_on_c, 2, 49, 0
4, 51780, Note_on_c, 2, 49, 100
4, 51810, Note_on_c, 2, 49, 0
4, 51810, Note_on_c, 2, 49, 100
4, 51840, Note_on_c, 2, 49, 0
4, 51840, Note_on_c, 2, 47, 100
4, 51840, Note_on_c, 2, 49, 100
4, 51855, Note_on_c, 2, 47, 0
4, 51900, Note_on_c, 2, 49, 0
4, 51900, Note_on_c, 2, 49, 100
4, 51930, Note_on_c, 2, 49, 0
4, 51930, Note_on_c, 2, 49, 100
4, 51960, Note_on_c, 2, 49, 0
4, 51960, Note_on_c, 2, 42, 100
4, 52020, Note_on_c, 2, 42, 0
4, 52020, Note_on_c, 2, 44, 100
4, 52050, Note_on_c, 2, 44, 0
4, 52050, Note_on_c, 2, 44, 100
4, 52080, Note_on_c, 2, 44, 0
4, 52080, Note_on_c, 2, 45, 100
4, 52140, Note_on_c, 2, 45, 0
4, 52140, Note_on_c, 2, 45, 100
4, 52170, Note_on_c, 2, 45, 0
4, 52170, Note_on_c, 2, 45, 100
4, 52200, Note_on_c, 2, 45, 0
4, 52200, Note_on_c, 2, 42, 100
4, 52230, Note_on_c, 2, 42, 0
4, 52230, Note_on_c, 2, 42, 100
4, 52260, Note_on_c, 2, 42, 0
4, 52260, Note_on_c, 2, 43, 100
4, 52290, Note_on_c, 2, 43, 0
4, 52290, Note_on_c, 2, 44, 100
4, 52320, Note_on_c, 2, 44, 0
4, 52320, Note_on_c, 2, 45, 100
4, 52380, Note_on_c, 2, 45, 0
4, 52380, Note_on_c, 2, 45, 100
4, 52440, Note_on_c, 2, 45, 0
4, 52500, Note_on_c, 2, 55, 100
4, 52500, Note_on_c, 2, 52, 100
4, 52530, Note_on_c, 2, 52, 0
4, 52530, Note_on_c, 2, 55, 0
4, 52530, Note_on_c, 2, 55, 100
4, 52530, Note_on_c, 2, 52, 100
4, 52560, Note_on_c, 2, 52, 0
4, 52560, Note_on_c, 2, 55, 0
4, 52560, Pitch_bend_c, 2, 0
4, 52560, Note_on_c, 2, 57, 100
4, 52561, Pitch_bend_c, 2, 128
4, 52562, Pitch_bend_c, 2, 256
4, 52563, Pitch_bend_c, 2, 384
4, 52564, Pitch_bend_c, 2, 640
4, 52565, Pitch_bend_c, 2, 768
4, 52566, Pitch_bend_c, 2, 896
4, 52567, Pitch_bend_c, 2, 1024
4, 52568, Pitch_bend_c, 2, 1280
4, 52569, Pitch_bend_c, 2, 1408
4, 52570, Pitch_bend_c, 2, 1536
4, 52571, Pitch_bend_c, 2, 1664
4, 52572, Pitch_bend_c, 2, 1920
4, 52573, Pitch_bend_c, 2, 2048
4, 52574, Pitch_bend_c, 2, 2176
4, 52575, Pitch_bend_c, 2, 2304
4, 52576, Pitch_bend_c, 2, 2560
4, 52577, Pitch_bend_c, 2, 2688
4, 52578, Pitch_bend_c, 2, 2816
4, 52579, Pitch_bend_c, 2, 2944
4, 52580, Pitch_bend_c, 2, 3200
4, 52581, Pitch_bend_c, 2, 3328
4, 52582, Pitch_bend_c, 2, 3456
4, 52583, Pitch_bend_c, 2, 3584
4, 52584, Pitch_bend_c, 2, 3840
4, 52585, Pitch_bend_c, 2, 3968
4, 52586, Pitch_bend_c, 2, 4096
4, 52587, Pitch_bend_c, 2, 4224
4, 52588, Pitch_bend_c, 2, 4480
4, 52589, Pitch_bend_c, 2, 4608
4, 52590, Pitch_bend_c, 2, 4736
4, 52591, Pitch_bend_c, 2, 4864
4, 52592, Pitch_bend_c, 2, 5120
4, 52593, Pitch_bend_c, 2, 5248
4, 52594, Pitch_bend_c, 2, 5376
4, 52595, Pitch_bend_c, 2, 5504
4, 52596, Pitch_bend_c, 2, 5760
4, 52597, Pitch_bend_c, 2, 5888
4, 52598, Pitch_bend_c, 2, 6016
4, 52599, Pitch_bend_c, 2, 6144
4, 52600, Pitch_bend_c, 2, 6400
4, 52601, Pitch_bend_c, 2, 6528
4, 52602, Pitch_bend_c, 2, 6656
4, 52603, Pitch_bend_c, 2, 6784
4, 52604, Pitch_bend_c, 2, 7040
4, 52605, Pitch_bend_c, 2, 7168
4, 52606, Pitch_bend_c, 2, 7296
4, 52607, Pitch_bend_c, 2, 7424
4, 52608, Pitch_bend_c, 2, 7680
4, 52609, Pitch_bend_c, 2, 7808
4, 52610, Pitch_bend_c, 2, 7936
4, 52611, Pitch_bend_c, 2, 8192
4, 52620, Note_on_c, 2, 57, 0
4, 52620, Pitch_bend_c, 2, 384
4, 52620, Note_on_c, 2, 57, 100
4, 52621, Pitch_bend_c, 2, 512
4, 52622, Pitch_bend_c, 2, 640
4, 52623, Pitch_bend_c, 2, 768
4, 52624, Pitch_bend_c, 2, 1024
4, 52625, Pitch_bend_c, 2, 1152
4, 52626, Pitch_bend_c, 2, 1280
4, 52627, Pitch_bend_c, 2, 1536
4, 52628, Pitch_bend_c, 2, 1664
4, 52629, Pitch_bend_c, 2, 1792
4, 52630, Pitch_bend_c, 2, 1920
4, 52631, Pitch_bend_c, 2, 2176
4, 52632, Pitch_bend_c, 2, 2304
4, 52633, Pitch_bend_c, 2, 2432
4, 52634, Pitch_bend_c, 2, 2688
4, 52635, Pitch_bend_c, 2, 2816
4, 52636, Pitch_bend_c, 2, 2944
4, 52637, Pitch_bend_c, 2, 3200
4, 52638, Pitch_bend_c, 2, 3328
4, 52639, Pitch_bend_c, 2, 3456
4, 52640, Pitch_bend_c, 2, 3584
4, 52641, Pitch_bend_c, 2, 3840
4, 52642, Pitch_bend_c, 2, 3968
4, 52643, Pitch_bend_c, 2, 4096
4, 52644, Pitch_bend_c, 2, 4352
4, 52645, Pitch_bend_c, 2, 4480
4, 52646, Pitch_bend_c, 2, 4608
4, 52647, Pitch_bend_c, 2, 4864
4, 52648, Pitch_bend_c, 2, 4992
4, 52649, Pitch_bend_c, 2, 5120
4, 52650, Pitch_bend_c, 2, 5248
4, 52651, Pitch_bend_c, 2, 5504
4, 52652, Pitch_bend_c, 2, 5632
4, 52653, Pitch_bend_c, 2, 5760
4, 52654, Pitch_bend_c, 2, 6016
4, 52655, Pitch_bend_c, 2, 6144
4, 52656, Pitch_bend_c, 2, 6272
4, 52657, Pitch_bend_c, 2, 6528
4, 52658, Pitch_bend_c, 2, 6656
4, 52659, Pitch_bend_c, 2, 6784
4, 52660, Pitch_bend_c, 2, 6912
4, 52661, Pitch_bend_c, 2, 7168
4, 52662, Pitch_bend_c, 2, 7296
4, 52663, Pitch_bend_c, 2, 7424
4, 52664, Pitch_bend_c, 2, 7680
4, 52665, Pitch_bend_c, 2, 7808
4, 52666, Pitch_bend_c, 2, 7936
4, 52667, Pitch_bend_c, 2, 8192
4, 52680, Note_on_c, 2, 57, 0
4, 52680, Note_on_c, 2, 42, 100
4, 52710, Note_on_c, 2, 42, 0
4, 52710, Note_on_c, 2, 44, 100
4, 52740, Note_on_c, 2, 44, 0
4, 52740, Note_on_c, 2, 47, 100
4, 52770, Note_on_c, 2, 47, 0
4, 52770, Note_on_c, 2, 48, 100
4, 52800, Note_on_c, 2, 48, 0
4, 52800, Control_c, 2, 7, 80
4, 52800, Note_on_c, 2, 49, 100
4, 52829, Control_c, 2, 7, 79
4, 52859, Control_c, 2, 7, 78
4, 52860, Note_on_c, 2, 49, 0
4, 52860, Note_on_c, 2, 49, 100
4, 52889, Control_c, 2, 7, 77
4, 52919, Control_c, 2, 7, 76
4, 52920, Note_on_c, 2, 49, 0
4, 52949, Control_c, 2, 7, 75
4, 52950, Note_on_c, 2, 33, 100
4, 52979, Control_c, 2, 7, 74
4, 52980, Note_on_c, 2, 33, 0
4, 52980, Note_on_c, 2, 44, 100
4, 53009, Control_c, 2, 7, 73
4, 53010, Note_on_c, 2, 44, 0
4, 53010, Note_on_c, 2, 47, 100
4, 53039, Control_c, 2, 7, 72
4, 53040, Note_on_c, 2, 47, 0
4, 53040, Note_on_c, 2, 44, 100
4, 53069, Control_c, 2, 7, 71
4, 53099, Control_c, 2, 7, 70
4, 53100, Note_on_c, 2, 44, 0
4, 53100, Note_on_c, 2, 44, 100
4, 53129, Control_c, 2, 7, 69
4, 53159, Control_c, 2, 7, 68
4, 53160, Note_on_c, 2, 44, 0
4, 53189, Control_c, 2, 7, 67
4, 53190, Note_on_c, 2, 44, 100
4, 53219, Control_c, 2, 7, 66
4, 53220, Note_on_c, 2, 44, 0
4, 53220, Note_on_c, 2, 44, 100
4, 53249, Control_c, 2, 7, 65
4, 53250, Note_on_c, 2, 44, 0
4, 53250, Note_on_c, 2, 45, 100
4, 53279, Control_c, 2, 7, 64
4, 53280, Note_on_c, 2, 45, 0
4, 53280, Note_on_c, 2, 45, 100
4, 53309, Control_c, 2, 7, 63
4, 53339, Control_c, 2, 7, 62
4, 53340, Note_on_c, 2, 45, 0
4, 53340, Note_on_c, 2, 45, 100
4, 53369, Control_c, 2, 7, 61
4, 53399, Control_c, 2, 7, 60
4, 53400, Note_on_c, 2, 45, 0
4, 53429, Control_c, 2, 7, 59
4, 53430, Note_on_c, 2, 40, 100
4, 53459, Control_c, 2, 7, 58
4, 53460, Note_on_c, 2, 40, 0
4, 53460, Note_on_c, 2, 40, 100
4, 53489, Control_c, 2, 7, 57
4, 53490, Note_on_c, 2, 40, 0
4, 53490, Note_on_c, 2, 41, 100
4, 53519, Control_c, 2, 7, 56
4, 53520, Note_on_c, 2, 41, 0
4, 53520, Note_on_c, 2, 42, 100
4, 53549, Control_c, 2, 7, 55
4, 53579, Control_c, 2, 7, 54
4, 53580, Note_on_c, 2, 42, 0
4, 53580, Note_on_c, 2, 43, 100
4, 53609, Control_c, 2, 7, 53
4, 53639, Control_c, 2, 7, 52
4, 53640, Note_on_c, 2, 43, 0
4, 53640, Note_on_c, 2, 44, 100
4, 53669, Control_c, 2, 7, 51
4, 53670, Note_on_c, 2, 44, 0
4, 53670, Note_on_c, 2, 44, 100
4, 53699, Control_c, 2, 7, 50
4, 53700, Note_on_c, 2, 44, 0
4, 53700, Note_on_c, 2, 47, 100
4, 53729, Control_c, 2, 7, 49
4, 53730, Note_on_c, 2, 47, 0
4, 53730, Note_on_c, 2, 48, 100
4, 53759, Control_c, 2, 7, 48
4, 53760, Note_on_c, 2, 48, 0
4, 53760, Note_on_c, 2, 49, 100
4, 53789, Control_c, 2, 7, 47
4, 53790, Note_on_c, 2, 49, 0
4, 53819, Control_c, 2, 7, 46
4, 53820, Note_on_c, 2, 49, 100
4, 53849, Control_c, 2, 7, 45
4, 53850, Note_on_c, 2, 49, 0
4, 53879, Control_c, 2, 7, 44
4, 53909, Control_c, 2, 7, 43
4, 53910, Note_on_c, 2, 42, 100
4, 53939, Control_c, 2, 7, 42
4, 53940, Note_on_c, 2, 42, 0
4, 53940, Note_on_c, 2, 42, 100
4, 53969, Control_c, 2, 7, 41
4, 53970, Note_on_c, 2, 42, 0
4, 53970, Note_on_c, 2, 43, 100
4, 53999, Control_c, 2, 7, 40
4, 54000, Note_on_c, 2, 43, 0
4, 54000, Note_on_c, 2, 44, 100
4, 54029, Control_c, 2, 7, 39
4, 54030, Note_on_c, 2, 44, 0
4, 54059, Control_c, 2, 7, 38
4, 54060, Note_on_c, 2, 44, 100
4, 54089, Control_c, 2, 7, 37
4, 54090, Note_on_c, 2, 44, 0
4, 54119, Control_c, 2, 7, 36
4, 54149, Control_c, 2, 7, 35
4, 54150, Note_on_c, 2, 44, 100
4, 54179, Control_c, 2, 7, 34
4, 54180, Note_on_c, 2, 44, 0
4, 54180, Note_on_c, 2, 44, 100
4, 54209, Control_c, 2, 7, 33
4, 54239, Control_c, 2, 7, 32
4, 54240, Note_on_c, 2, 44, 0
4, 54240, Note_on_c, 2, 45, 100
4, 54269, Control_c, 2, 7, 31
4, 54270, Note_on_c, 2, 45, 0
4, 54270, Note_on_c, 2, 57, 100
4, 54299, Control_c, 2, 7, 30
4, 54300, Note_on_c, 2, 57, 0
4, 54300, Note_on_c, 2, 57, 100
4, 54329, Control_c, 2, 7, 29
4, 54330, Note_on_c, 2, 57, 0
4, 54330, Note_on_c, 2, 45, 100
4, 54359, Control_c, 2, 7, 28
4, 54360, Note_on_c, 2, 45, 0
4, 54360, Note_on_c, 2, 57, 100
4, 54389, Control_c, 2, 7, 27
4, 54390, Note_on_c, 2, 57, 0
4, 54390, Note_on_c, 2, 57, 100
4, 54419, Control_c, 2, 7, 26
4, 54420, Note_on_c, 2, 57, 0
4, 54420, Note_on_c, 2, 45, 100
4, 54449, Control_c, 2, 7, 25
4, 54450, Note_on_c, 2, 45, 0
4, 54450, Note_on_c, 2, 57, 100
4, 54479, Control_c, 2, 7, 24
4, 54480, Note_on_c, 2, 57, 0
4, 54480, Note_on_c, 2, 45, 100
4, 54509, Control_c, 2, 7, 23
4, 54539, Control_c, 2, 7, 22
4, 54540, Note_on_c, 2, 45, 0
4, 54540, Note_on_c, 2, 44, 100
4, 54569, Control_c, 2, 7, 21
4, 54570, Note_on_c, 2, 44, 0
4, 54570, Note_on_c, 2, 44, 100
4, 54599, Control_c, 2, 7, 20
4, 54600, Note_on_c, 2, 44, 0
4, 54600, Note_on_c, 2, 47, 100
4, 54629, Control_c, 2, 7, 19
4, 54630, Note_on_c, 2, 47, 0
4, 54630, Note_on_c, 2, 48, 100
4, 54659, Control_c, 2, 7, 18
4, 54660, Note_on_c, 2, 48, 0
4, 54660, Note_on_c, 2, 49, 100
4, 54689, Control_c, 2, 7, 17
4, 54719, Control_c, 2, 7, 16
4, 54720, Note_on_c, 2, 49, 0
4, 54720, Note_on_c, 2, 37, 100
4, 54749, Control_c, 2, 7, 15
4, 54779, Control_c, 2, 7, 14
4, 54780, Note_on_c, 2, 37, 0
4, 54780, Note_on_c, 2, 49, 100
4, 54809, Control_c, 2, 7, 13
4, 54839, Control_c, 2, 7, 12
4, 54840, Note_on_c, 2, 49, 0
4, 54840, Note_on_c, 2, 44, 100
4, 54869, Control_c, 2, 7, 11
4, 54899, Control_c, 2, 7, 10
4, 54900, Note_on_c, 2, 44, 0
4, 54900, Note_on_c, 2, 37, 100
4, 54929, Control_c, 2, 7, 9
4, 54959, Control_c, 2, 7, 8
4, 54960, Note_on_c, 2, 37, 0
4, 54960, Note_on_c, 2, 35, 100
4, 54989, Control_c, 2, 7, 7
4, 55019, Control_c, 2, 7, 6
4, 55020, Note_on_c, 2, 35, 0
4, 55020, Note_on_c, 2, 47, 100
4, 55049, Control_c, 2, 7, 5
4, 55050, Note_on_c, 2, 47, 0
4, 55050, Note_on_c, 2, 47, 100
4, 55079, Control_c, 2, 7, 4
4, 55080, Note_on_c, 2, 47, 0
4, 55080, Note_on_c, 2, 42, 100
4, 55109, Control_c, 2, 7, 3
4, 55139, Control_c, 2, 7, 2
4, 55140, Note_on_c, 2, 42, 0
4, 55140, Note_on_c, 2, 35, 100
4, 55169, Control_c, 2, 7, 1
4, 55199, Control_c, 2, 7, 0
4, 55200, Note_on_c, 2, 35, 0
4, 55200, Note_on_c, 2, 33, 100
4, 55680, Note_on_c, 2, 33, 0
4, 55680, End_track
5, 0, Start_track
5, 0, MIDI_port, 0
5, 0, Title_t, "Jimi Hendrix"
5, 0, Program_c, 3, 29
5, 0, Control_c, 3, 7, 105
5, 0, Control_c, 3, 10, 64
5, 2400, Control_c, 3, 7, 127
5, 2700, Pitch_bend_c, 3, 0
5, 2700, Note_on_c, 3, 68, 100
5, 2701, Pitch_bend_c, 3, 256
5, 2703, Pitch_bend_c, 3, 640
5, 2705, Pitch_bend_c, 3, 896
5, 2706, Pitch_bend_c, 3, 1280
5, 2708, Pitch_bend_c, 3, 1536
5, 2710, Pitch_bend_c, 3, 1920
5, 2711, Pitch_bend_c, 3, 2176
5, 2713, Pitch_bend_c, 3, 2560
5, 2715, Pitch_bend_c, 3, 2944
5, 2716, Pitch_bend_c, 3, 3200
5, 2718, Pitch_bend_c, 3, 3584
5, 2720, Pitch_bend_c, 3, 3840
5, 2721, Pitch_bend_c, 3, 4224
5, 2723, Pitch_bend_c, 3, 4480
5, 2725, Pitch_bend_c, 3, 4864
5, 2726, Pitch_bend_c, 3, 5120
5, 2728, Pitch_bend_c, 3, 5504
5, 2730, Pitch_bend_c, 3, 5888
5, 2731, Pitch_bend_c, 3, 6144
5, 2733, Pitch_bend_c, 3, 6528
5, 2735, Pitch_bend_c, 3, 6784
5, 2736, Pitch_bend_c, 3, 7168
5, 2738, Pitch_bend_c, 3, 7424
5, 2740, Pitch_bend_c, 3, 7808
5, 2741, Pitch_bend_c, 3, 8192
5, 2760, Note_on_c, 3, 68, 0
5, 2760, Note_on_c, 3, 71, 100
5, 2820, Note_on_c, 3, 71, 0
5, 2820, Pitch_bend_c, 3, 128
5, 2820, Note_on_c, 3, 75, 100
5, 2821, Pitch_bend_c, 3, 1024
5, 2823, Pitch_bend_c, 3, 1920
5, 2825, Pitch_bend_c, 3, 2816
5, 2826, Pitch_bend_c, 3, 3712
5, 2828, Pitch_bend_c, 3, 4608
5, 2830, Pitch_bend_c, 3, 5504
5, 2831, Pitch_bend_c, 3, 6400
5, 2833, Pitch_bend_c, 3, 7296
5, 2835, Pitch_bend_c, 3, 8192
5, 2880, Note_on_c, 3, 75, 0
5, 2880, Pitch_bend_c, 3, 256
5, 2880, Note_on_c, 3, 75, 100
5, 2881, Pitch_bend_c, 3, 896
5, 2883, Pitch_bend_c, 3, 1664
5, 2885, Pitch_bend_c, 3, 2304
5, 2886, Pitch_bend_c, 3, 3072
5, 2888, Pitch_bend_c, 3, 3840
5, 2890, Pitch_bend_c, 3, 4480
5, 2891, Pitch_bend_c, 3, 5248
5, 2893, Pitch_bend_c, 3, 6016
5, 2895, Pitch_bend_c, 3, 6656
5, 2896, Pitch_bend_c, 3, 7424
5, 2898, Pitch_bend_c, 3, 8192
5, 2940, Note_on_c, 3, 75, 0
5, 2940, Pitch_bend_c, 3, 128
5, 2940, Note_on_c, 3, 75, 100
5, 2941, Pitch_bend_c, 3, 896
5, 2943, Pitch_bend_c, 3, 1664
5, 2945, Pitch_bend_c, 3, 2432
5, 2946, Pitch_bend_c, 3, 3328
5, 2948, Pitch_bend_c, 3, 4096
5, 2950, Pitch_bend_c, 3, 4864
5, 2951, Pitch_bend_c, 3, 5760
5, 2953, Pitch_bend_c, 3, 6528
5, 2955, Pitch_bend_c, 3, 7296
5, 2956, Pitch_bend_c, 3, 8192
5, 3000, Note_on_c, 3, 75, 0
5, 3000, Pitch_bend_c, 3, 128
5, 3000, Note_on_c, 3, 75, 100
5, 3001, Pitch_bend_c, 3, 640
5, 3003, Pitch_bend_c, 3, 1152
5, 3005, Pitch_bend_c, 3, 1664
5, 3006, Pitch_bend_c, 3, 2176
5, 3008, Pitch_bend_c, 3, 2816
5, 3010, Pitch_bend_c, 3, 3328
5, 3011, Pitch_bend_c, 3, 3840
5, 3013, Pitch_bend_c, 3, 4352
5, 3015, Pitch_bend_c, 3, 4864
5, 3016, Pitch_bend_c, 3, 5504
5, 3018, Pitch_bend_c, 3, 6016
5, 3020, Pitch_bend_c, 3, 6528
5, 3021, Pitch_bend_c, 3, 7040
5, 3023, Pitch_bend_c, 3, 7552
5, 3025, Pitch_bend_c, 3, 8192
5, 3031, Pitch_bend_c, 3, 8064
5, 3033, Pitch_bend_c, 3, 8320
5, 3035, Pitch_bend_c, 3, 8576
5, 3036, Pitch_bend_c, 3, 9088
5, 3040, Pitch_bend_c, 3, 8960
5, 3041, Pitch_bend_c, 3, 8448
5, 3043, Pitch_bend_c, 3, 7680
5, 3046, Pitch_bend_c, 3, 8064
5, 3048, Pitch_bend_c, 3, 8576
5, 3050, Pitch_bend_c, 3, 8960
5, 3051, Pitch_bend_c, 3, 9088
5, 3053, Pitch_bend_c, 3, 8192
5, 3055, Pitch_bend_c, 3, 8064
5, 3058, Pitch_bend_c, 3, 8192
5, 3060, Pitch_bend_c, 3, 8576
5, 3061, Pitch_bend_c, 3, 8832
5, 3063, Pitch_bend_c, 3, 7680
5, 3070, Pitch_bend_c, 3, 8192
5, 3071, Pitch_bend_c, 3, 8704
5, 3073, Pitch_bend_c, 3, 8960
5, 3075, Pitch_bend_c, 3, 8832
5, 3076, Pitch_bend_c, 3, 7936
5, 3080, Pitch_bend_c, 3, 8192
5, 3081, Pitch_bend_c, 3, 8448
5, 3083, Pitch_bend_c, 3, 8960
5, 3086, Pitch_bend_c, 3, 8320
5, 3088, Pitch_bend_c, 3, 7808
5, 3090, Pitch_bend_c, 3, 7680
5, 3093, Pitch_bend_c, 3, 8064
5, 3095, Pitch_bend_c, 3, 8704
5, 3096, Pitch_bend_c, 3, 8960
5, 3100, Pitch_bend_c, 3, 7808
5, 3101, Pitch_bend_c, 3, 7936
5, 3103, Pitch_bend_c, 3, 8704
5, 3106, Pitch_bend_c, 3, 8320
5, 3111, Pitch_bend_c, 3, 8064
5, 3115, Pitch_bend_c, 3, 8192
5, 3120, Note_on_c, 3, 75, 0
5, 3180, Note_on_c, 3, 73, 100
5, 3181, Pitch_bend_c, 3, 8576
5, 3183, Pitch_bend_c, 3, 8704
5, 3185, Pitch_bend_c, 3, 8960
5, 3186, Pitch_bend_c, 3, 9216
5, 3188, Pitch_bend_c, 3, 9728
5, 3190, Pitch_bend_c, 3, 10240
5, 3191, Pitch_bend_c, 3, 10752
5, 3193, Pitch_bend_c, 3, 16383
5, 3195, Pitch_bend_c, 3, 16256
5, 3196, Pitch_bend_c, 3, 12416
5, 3198, Pitch_bend_c, 3, 11648
5, 3200, Pitch_bend_c, 3, 8320
5, 3201, Pitch_bend_c, 3, 8192
5, 3240, Note_on_c, 3, 73, 0
5, 3240, Note_on_c, 3, 71, 100
5, 3300, Note_on_c, 3, 71, 0
5, 3300, Pitch_bend_c, 3, 128
5, 3300, Note_on_c, 3, 68, 100
5, 3301, Pitch_bend_c, 3, 640
5, 3303, Pitch_bend_c, 3, 1280
5, 3305, Pitch_bend_c, 3, 1920
5, 3306, Pitch_bend_c, 3, 2560
5, 3308, Pitch_bend_c, 3, 3200
5, 3310, Pitch_bend_c, 3, 3840
5, 3311, Pitch_bend_c, 3, 4352
5, 3313, Pitch_bend_c, 3, 4992
5, 3315, Pitch_bend_c, 3, 5632
5, 3316, Pitch_bend_c, 3, 6272
5, 3318, Pitch_bend_c, 3, 6912
5, 3320, Pitch_bend_c, 3, 7552
5, 3321, Pitch_bend_c, 3, 8192
5, 3360, Note_on_c, 3, 68, 0
5, 3360, Note_on_c, 3, 66, 100
5, 3420, Note_on_c, 3, 66, 0
5, 3420, Note_on_c, 3, 66, 100
5, 3480, Note_on_c, 3, 66, 0
5, 3480, Pitch_bend_c, 3, 8320
5, 3480, Note_on_c, 3, 66, 100
5, 3491, Pitch_bend_c, 3, 8448
5, 3493, Pitch_bend_c, 3, 8576
5, 3495, Pitch_bend_c, 3, 8832
5, 3496, Pitch_bend_c, 3, 9600
5, 3501, Pitch_bend_c, 3, 9344
5, 3503, Pitch_bend_c, 3, 8576
5, 3511, Pitch_bend_c, 3, 8832
5, 3513, Pitch_bend_c, 3, 9600
5, 3516, Pitch_bend_c, 3, 8704
5, 3530, Pitch_bend_c, 3, 9088
5, 3531, Pitch_bend_c, 3, 9344
5, 3533, Pitch_bend_c, 3, 9472
5, 3535, Pitch_bend_c, 3, 9600
5, 3538, Pitch_bend_c, 3, 9856
5, 3540, Pitch_bend_c, 3, 8832
5, 3546, Pitch_bend_c, 3, 9088
5, 3550, Pitch_bend_c, 3, 9600
5, 3553, Pitch_bend_c, 3, 9856
5, 3556, Pitch_bend_c, 3, 8576
5, 3558, Pitch_bend_c, 3, 8320
5, 3575, Pitch_bend_c, 3, 8448
5, 3576, Pitch_bend_c, 3, 8576
5, 3578, Pitch_bend_c, 3, 8832
5, 3580, Pitch_bend_c, 3, 9344
5, 3581, Pitch_bend_c, 3, 9088
5, 3583, Pitch_bend_c, 3, 8576
5, 3585, Pitch_bend_c, 3, 8320
5, 3591, Pitch_bend_c, 3, 8448
5, 3593, Pitch_bend_c, 3, 8576
5, 3595, Pitch_bend_c, 3, 9344
5, 3596, Pitch_bend_c, 3, 9472
5, 3600, Pitch_bend_c, 3, 9600
5, 3606, Pitch_bend_c, 3, 9344
5, 3608, Pitch_bend_c, 3, 9088
5, 3611, Pitch_bend_c, 3, 8832
5, 3613, Pitch_bend_c, 3, 8704
5, 3615, Pitch_bend_c, 3, 8576
5, 3618, Pitch_bend_c, 3, 8320
5, 3625, Pitch_bend_c, 3, 8320
5, 3626, Pitch_bend_c, 3, 7552
5, 3628, Pitch_bend_c, 3, 6784
5, 3630, Pitch_bend_c, 3, 5888
5, 3631, Pitch_bend_c, 3, 5120
5, 3633, Pitch_bend_c, 3, 4224
5, 3635, Pitch_bend_c, 3, 3456
5, 3636, Pitch_bend_c, 3, 2688
5, 3638, Pitch_bend_c, 3, 1792
5, 3640, Pitch_bend_c, 3, 1024
5, 3641, Pitch_bend_c, 3, 128
5, 3660, Note_on_c, 3, 66, 0
5, 3660, Note_on_c, 3, 61, 100
5, 3661, Pitch_bend_c, 3, 256
5, 3663, Pitch_bend_c, 3, 1024
5, 3665, Pitch_bend_c, 3, 1792
5, 3666, Pitch_bend_c, 3, 2560
5, 3668, Pitch_bend_c, 3, 3328
5, 3670, Pitch_bend_c, 3, 4224
5, 3671, Pitch_bend_c, 3, 4992
5, 3673, Pitch_bend_c, 3, 5760
5, 3675, Pitch_bend_c, 3, 6528
5, 3676, Pitch_bend_c, 3, 7296
5, 3678, Pitch_bend_c, 3, 8192
5, 3720, Note_on_c, 3, 61, 0
5, 3720, Note_on_c, 3, 64, 100
5, 3780, Note_on_c, 3, 64, 0
5, 3780, Note_on_c, 3, 66, 100
5, 3840, Note_on_c, 3, 66, 0
5, 3840, Note_on_c, 3, 68, 100
5, 3841, Pitch_bend_c, 3, 128
5, 3843, Pitch_bend_c, 3, 640
5, 3845, Pitch_bend_c, 3, 1280
5, 3846, Pitch_bend_c, 3, 1792
5, 3848, Pitch_bend_c, 3, 2432
5, 3850, Pitch_bend_c, 3, 2944
5, 3851, Pitch_bend_c, 3, 3584
5, 3853, Pitch_bend_c, 3, 4096
5, 3855, Pitch_bend_c, 3, 4736
5, 3856, Pitch_bend_c, 3, 5248
5, 3858, Pitch_bend_c, 3, 5888
5, 3860, Pitch_bend_c, 3, 6400
5, 3861, Pitch_bend_c, 3, 7040
5, 3863, Pitch_bend_c, 3, 7552
5, 3865, Pitch_bend_c, 3, 8192
5, 3900, Note_on_c, 3, 68, 0
5, 3900, Note_on_c, 3, 66, 100
5, 3960, Note_on_c, 3, 66, 0
5, 3960, Pitch_bend_c, 3, 128
5, 3960, Note_on_c, 3, 68, 100
5, 3961, Pitch_bend_c, 3, 512
5, 3963, Pitch_bend_c, 3, 896
5, 3965, Pitch_bend_c, 3, 1280
5, 3966, Pitch_bend_c, 3, 1792
5, 3968, Pitch_bend_c, 3, 2176
5, 3970, Pitch_bend_c, 3, 2560
5, 3971, Pitch_bend_c, 3, 3072
5, 3973, Pitch_bend_c, 3, 3456
5, 3975, Pitch_bend_c, 3, 3840
5, 3976, Pitch_bend_c, 3, 4352
5, 3978, Pitch_bend_c, 3, 4736
5, 3980, Pitch_bend_c, 3, 5120
5, 3981, Pitch_bend_c, 3, 5632
5, 3983, Pitch_bend_c, 3, 6016
5, 3985, Pitch_bend_c, 3, 6400
5, 3986, Pitch_bend_c, 3, 6912
5, 3988, Pitch_bend_c, 3, 7296
5, 3990, Pitch_bend_c, 3, 7680
5, 3991, Pitch_bend_c, 3, 8192
5, 3995, Pitch_bend_c, 3, 8064
5, 3996, Pitch_bend_c, 3, 8320
5, 4000, Pitch_bend_c, 3, 8576
5, 4001, Pitch_bend_c, 3, 8832
5, 4003, Pitch_bend_c, 3, 8576
5, 4005, Pitch_bend_c, 3, 8064
5, 4008, Pitch_bend_c, 3, 7936
5, 4015, Pitch_bend_c, 3, 8064
5, 4016, Pitch_bend_c, 3, 8192
5, 4018, Pitch_bend_c, 3, 8320
5, 4020, Pitch_bend_c, 3, 8960
5, 4021, Pitch_bend_c, 3, 9088
5, 4023, Pitch_bend_c, 3, 8832
5, 4025, Pitch_bend_c, 3, 8576
5, 4026, Pitch_bend_c, 3, 8064
5, 4033, Pitch_bend_c, 3, 8192
5, 4035, Pitch_bend_c, 3, 8576
5, 4036, Pitch_bend_c, 3, 8704
5, 4038, Pitch_bend_c, 3, 8832
5, 4043, Pitch_bend_c, 3, 8704
5, 4045, Pitch_bend_c, 3, 7808
5, 4053, Pitch_bend_c, 3, 8064
5, 4055, Pitch_bend_c, 3, 8320
5, 4056, Pitch_bend_c, 3, 8832
5, 4060, Pitch_bend_c, 3, 9088
5, 4066, Pitch_bend_c, 3, 7808
5, 4068, Pitch_bend_c, 3, 7424
5, 4076, Pitch_bend_c, 3, 7936
5, 4078, Pitch_bend_c, 3, 8448
5, 4080, Pitch_bend_c, 3, 9088
5, 4081, Pitch_bend_c, 3, 9216
5, 4086, Pitch_bend_c, 3, 9088
5, 4088, Pitch_bend_c, 3, 8704
5, 4090, Pitch_bend_c, 3, 7424
5, 4095, Pitch_bend_c, 3, 7552
5, 4096, Pitch_bend_c, 3, 7808
5, 4098, Pitch_bend_c, 3, 8192
5, 4100, Pitch_bend_c, 3, 8832
5, 4101, Pitch_bend_c, 3, 8960
5, 4106, Pitch_bend_c, 3, 8704
5, 4108, Pitch_bend_c, 3, 8576
5, 4110, Pitch_bend_c, 3, 8448
5, 4113, Pitch_bend_c, 3, 8192
5, 4140, Note_on_c, 3, 68, 0
5, 4140, Pitch_bend_c, 3, 16256
5, 4140, Note_on_c, 3, 66, 100
5, 4141, Pitch_bend_c, 3, 15872
5, 4143, Pitch_bend_c, 3, 15488
5, 4145, Pitch_bend_c, 3, 15104
5, 4146, Pitch_bend_c, 3, 14592
5, 4148, Pitch_bend_c, 3, 14208
5, 4150, Pitch_bend_c, 3, 13824
5, 4151, Pitch_bend_c, 3, 13312
5, 4153, Pitch_bend_c, 3, 12928
5, 4155, Pitch_bend_c, 3, 12544
5, 4156, Pitch_bend_c, 3, 12032
5, 4158, Pitch_bend_c, 3, 11648
5, 4160, Pitch_bend_c, 3, 11264
5, 4161, Pitch_bend_c, 3, 10752
5, 4163, Pitch_bend_c, 3, 10368
5, 4165, Pitch_bend_c, 3, 9984
5, 4166, Pitch_bend_c, 3, 9472
5, 4168, Pitch_bend_c, 3, 9088
5, 4170, Pitch_bend_c, 3, 8704
5, 4171, Pitch_bend_c, 3, 8192
5, 4200, Note_on_c, 3, 66, 0
5, 4200, Note_on_c, 3, 64, 100
5, 4260, Note_on_c, 3, 64, 0
5, 4260, Note_on_c, 3, 61, 100
5, 4320, Note_on_c, 3, 61, 0
5, 4320, Note_on_c, 3, 69, 100
5, 4321, Pitch_bend_c, 3, 4224
5, 4323, Pitch_bend_c, 3, 4992
5, 4325, Pitch_bend_c, 3, 5760
5, 4326, Pitch_bend_c, 3, 6528
5, 4328, Pitch_bend_c, 3, 7296
5, 4330, Pitch_bend_c, 3, 8192
5, 4350, Note_on_c, 3, 69, 0
5, 4350, Note_on_c, 3, 68, 100
5, 4380, Note_on_c, 3, 68, 0
5, 4380, Note_on_c, 3, 64, 100
5, 4440, Note_on_c, 3, 64, 0
5, 4440, Pitch_bend_c, 3, 256
5, 4440, Note_on_c, 3, 73, 100
5, 4441, Pitch_bend_c, 3, 384
5, 4443, Pitch_bend_c, 3, 640
5, 4445, Pitch_bend_c, 3, 768
5, 4446, Pitch_bend_c, 3, 1024
5, 4448, Pitch_bend_c, 3, 1152
5, 4450, Pitch_bend_c, 3, 1408
5, 4451, Pitch_bend_c, 3, 1664
5, 4453, Pitch_bend_c, 3, 1792
5, 4455, Pitch_bend_c, 3, 2048
5, 4456, Pitch_bend_c, 3, 2176
5, 4458, Pitch_bend_c, 3, 2432
5, 4460, Pitch_bend_c, 3, 2688
5, 4461, Pitch_bend_c, 3, 2816
5, 4463, Pitch_bend_c, 3, 3072
5, 4465, Pitch_bend_c, 3, 3200
5, 4466, Pitch_bend_c, 3, 3456
5, 4468, Pitch_bend_c, 3, 3712
5, 4470, Pitch_bend_c, 3, 3840
5, 4471, Pitch_bend_c, 3, 4096
5, 4473, Pitch_bend_c, 3, 4224
5, 4475, Pitch_bend_c, 3, 4480
5, 4476, Pitch_bend_c, 3, 4608
5, 4478, Pitch_bend_c, 3, 4864
5, 4480, Pitch_bend_c, 3, 5120
5, 4481, Pitch_bend_c, 3, 5248
5, 4483, Pitch_bend_c, 3, 5504
5, 4485, Pitch_bend_c, 3, 5632
5, 4486, Pitch_bend_c, 3, 5888
5, 4488, Pitch_bend_c, 3, 6144
5, 4490, Pitch_bend_c, 3, 6272
5, 4491, Pitch_bend_c, 3, 6528
5, 4493, Pitch_bend_c, 3, 6656
5, 4495, Pitch_bend_c, 3, 6912
5, 4496, Pitch_bend_c, 3, 7168
5, 4498, Pitch_bend_c, 3, 7296
5, 4500, Pitch_bend_c, 3, 7552
5, 4501, Pitch_bend_c, 3, 7680
5, 4503, Pitch_bend_c, 3, 7936
5, 4505, Pitch_bend_c, 3, 8192
5, 4513, Pitch_bend_c, 3, 8192
5, 4515, Pitch_bend_c, 3, 8704
5, 4516, Pitch_bend_c, 3, 8960
5, 4518, Pitch_bend_c, 3, 8704
5, 4520, Pitch_bend_c, 3, 8064
5, 4521, Pitch_bend_c, 3, 7552
5, 4526, Pitch_bend_c, 3, 8320
5, 4530, Pitch_bend_c, 3, 9088
5, 4531, Pitch_bend_c, 3, 9344
5, 4533, Pitch_bend_c, 3, 9728
5, 4535, Pitch_bend_c, 3, 9984
5, 4536, Pitch_bend_c, 3, 9216
5, 4538, Pitch_bend_c, 3, 8064
5, 4541, Pitch_bend_c, 3, 7936
5, 4543, Pitch_bend_c, 3, 8064
5, 4545, Pitch_bend_c, 3, 8832
5, 4546, Pitch_bend_c, 3, 9600
5, 4548, Pitch_bend_c, 3, 7296
5, 4558, Pitch_bend_c, 3, 7424
5, 4560, Pitch_bend_c, 3, 8448
5, 4563, Pitch_bend_c, 3, 8960
5, 4565, Pitch_bend_c, 3, 9216
5, 4566, Pitch_bend_c, 3, 7296
5, 4576, Pitch_bend_c, 3, 7552
5, 4580, Pitch_bend_c, 3, 7808
5, 4581, Pitch_bend_c, 3, 8320
5, 4583, Pitch_bend_c, 3, 8576
5, 4585, Pitch_bend_c, 3, 8832
5, 4586, Pitch_bend_c, 3, 9088
5, 4588, Pitch_bend_c, 3, 9216
5, 4590, Pitch_bend_c, 3, 9344
5, 4593, Pitch_bend_c, 3, 8064
5, 4595, Pitch_bend_c, 3, 7808
5, 4596, Pitch_bend_c, 3, 7552
5, 4598, Pitch_bend_c, 3, 7296
5, 4608, Pitch_bend_c, 3, 7552
5, 4611, Pitch_bend_c, 3, 8320
5, 4613, Pitch_bend_c, 3, 8576
5, 4616, Pitch_bend_c, 3, 8832
5, 4620, Pitch_bend_c, 3, 9088
5, 4621, Pitch_bend_c, 3, 7936
5, 4626, Pitch_bend_c, 3, 8704
5, 4630, Pitch_bend_c, 3, 9216
5, 4631, Pitch_bend_c, 3, 8064
5, 4641, Pitch_bend_c, 3, 9088
5, 4650, Pitch_bend_c, 3, 8064
5, 4651, Pitch_bend_c, 3, 9088
5, 4658, Pitch_bend_c, 3, 8960
5, 4660, Pitch_bend_c, 3, 8576
5, 4661, Pitch_bend_c, 3, 8320
5, 4665, Pitch_bend_c, 3, 8192
5, 4666, Pitch_bend_c, 3, 8320
5, 4740, Note_on_c, 3, 73, 0
5, 4740, Note_on_c, 3, 71, 100
5, 4785, Pitch_bend_c, 3, 7936
5, 4786, Pitch_bend_c, 3, 7424
5, 4788, Pitch_bend_c, 3, 7040
5, 4790, Pitch_bend_c, 3, 5248
5, 4791, Pitch_bend_c, 3, 4480
5, 4793, Pitch_bend_c, 3, 2688
5, 4795, Pitch_bend_c, 3, 896
5, 4796, Pitch_bend_c, 3, 128
5, 4800, Note_on_c, 3, 71, 0
5, 4800, Note_on_c, 3, 49, 100
5, 4800, Control_c, 3, 7, 115
5, 4820, Pitch_bend_c, 3, 8192
5, 4860, Note_on_c, 3, 49, 0
5, 4860, Note_on_c, 3, 56, 100
5, 4920, Note_on_c, 3, 56, 0
5, 4920, Note_on_c, 3, 66, 100
5, 4950, Note_on_c, 3, 66, 0
5, 4950, Note_on_c, 3, 64, 100
5, 4980, Note_on_c, 3, 64, 0
5, 4980, Note_on_c, 3, 59, 100
5, 5040, Note_on_c, 3, 59, 0
5, 5096, Note_on_c, 3, 54, 100
5, 5098, Note_on_c, 3, 59, 100
5, 5215, Note_on_c, 3, 57, 100
5, 5216, Note_on_c, 3, 54, 0
5, 5218, Note_on_c, 3, 59, 0
5, 5218, Note_on_c, 3, 52, 100
5, 5275, Note_on_c, 3, 57, 0
5, 5278, Note_on_c, 3, 52, 0
5, 5280, Note_on_c, 3, 52, 100
5, 5280, Note_on_c, 3, 57, 100
5, 5400, Note_on_c, 3, 57, 0
5, 5400, Note_on_c, 3, 52, 0
5, 5460, Note_on_c, 3, 47, 100
5, 5490, Note_on_c, 3, 47, 0
5, 5490, Note_on_c, 3, 49, 100
5, 5520, Note_on_c, 3, 49, 0
5, 5520, Note_on_c, 3, 56, 100
5, 5521, Pitch_bend_c, 3, 128
5, 5523, Pitch_bend_c, 3, 640
5, 5525, Pitch_bend_c, 3, 1280
5, 5526, Pitch_bend_c, 3, 1792
5, 5528, Pitch_bend_c, 3, 2432
5, 5530, Pitch_bend_c, 3, 2944
5, 5531, Pitch_bend_c, 3, 3584
5, 5533, Pitch_bend_c, 3, 4096
5, 5535, Pitch_bend_c, 3, 4736
5, 5536, Pitch_bend_c, 3, 5248
5, 5538, Pitch_bend_c, 3, 5888
5, 5540, Pitch_bend_c, 3, 6400
5, 5541, Pitch_bend_c, 3, 7040
5, 5543, Pitch_bend_c, 3, 7552
5, 5545, Pitch_bend_c, 3, 8192
5, 5580, Note_on_c, 3, 56, 0
5, 5580, Note_on_c, 3, 59, 100
5, 5600, Note_on_c, 3, 59, 0
5, 5600, Note_on_c, 3, 61, 100
5, 5620, Note_on_c, 3, 61, 0
5, 5620, Note_on_c, 3, 59, 100
5, 5640, Note_on_c, 3, 59, 0
5, 5640, Note_on_c, 3, 54, 100
5, 5640, Note_on_c, 3, 59, 100
5, 5700, Note_on_c, 3, 59, 0
5, 5700, Note_on_c, 3, 54, 0
5, 5700, Note_on_c, 3, 52, 100
5, 5760, Note_on_c, 3, 52, 0
5, 5760, Note_on_c, 3, 49, 100
5, 5880, Note_on_c, 3, 49, 0
5, 5880, Note_on_c, 3, 64, 100
5, 5900, Note_on_c, 3, 64, 0
5, 5900, Note_on_c, 3, 66, 100
5, 5920, Note_on_c, 3, 66, 0
5, 5920, Note_on_c, 3, 64, 100
5, 5940, Note_on_c, 3, 64, 0
5, 5940, Note_on_c, 3, 56, 100
5, 6000, Note_on_c, 3, 56, 0
5, 6120, Note_on_c, 3, 54, 100
5, 6120, Note_on_c, 3, 59, 100
5, 6180, Note_on_c, 3, 59, 0
5, 6180, Note_on_c, 3, 54, 0
5, 6180, Note_on_c, 3, 57, 100
5, 6180, Note_on_c, 3, 52, 100
5, 6240, Note_on_c, 3, 52, 0
5, 6240, Note_on_c, 3, 52, 100
5, 6420, Note_on_c, 3, 52, 0
5, 6420, Note_on_c, 3, 57, 0
5, 6420, Note_on_c, 3, 57, 100
5, 6440, Note_on_c, 3, 57, 0
5, 6440, Note_on_c, 3, 59, 100
5, 6460, Note_on_c, 3, 59, 0
5, 6460, Note_on_c, 3, 57, 100
5, 6480, Note_on_c, 3, 57, 0
5, 6480, Note_on_c, 3, 56, 100
5, 6481, Pitch_bend_c, 3, 0
5, 6483, Pitch_bend_c, 3, 768
5, 6485, Pitch_bend_c, 3, 1536
5, 6486, Pitch_bend_c, 3, 2432
5, 6488, Pitch_bend_c, 3, 3200
5, 6490, Pitch_bend_c, 3, 4096
5, 6491, Pitch_bend_c, 3, 4864
5, 6493, Pitch_bend_c, 3, 5632
5, 6495, Pitch_bend_c, 3, 6528
5, 6496, Pitch_bend_c, 3, 7296
5, 6498, Pitch_bend_c, 3, 8192
5, 6540, Note_on_c, 3, 56, 0
5, 6540, Pitch_bend_c, 3, 0
5, 6540, Note_on_c, 3, 59, 100
5, 6541, Pitch_bend_c, 3, 1024
5, 6543, Pitch_bend_c, 3, 2048
5, 6545, Pitch_bend_c, 3, 3072
5, 6546, Pitch_bend_c, 3, 4096
5, 6548, Pitch_bend_c, 3, 5120
5, 6550, Pitch_bend_c, 3, 6144
5, 6551, Pitch_bend_c, 3, 7168
5, 6553, Pitch_bend_c, 3, 8192
5, 6570, Note_on_c, 3, 59, 0
5, 6570, Note_on_c, 3, 61, 100
5, 6600, Note_on_c, 3, 61, 0
5, 6600, Note_on_c, 3, 59, 100
5, 6660, Note_on_c, 3, 59, 0
5, 6660, Note_on_c, 3, 56, 100
5, 6720, Note_on_c, 3, 56, 0
5, 6720, Note_on_c, 3, 49, 100
5, 6840, Note_on_c, 3, 59, 100
5, 6840, Note_on_c, 3, 64, 100
5, 6960, Note_on_c, 3, 64, 0
5, 6960, Note_on_c, 3, 59, 0
5, 6960, Note_on_c, 3, 49, 0
5, 6960, Note_on_c, 3, 47, 100
5, 7020, Note_on_c, 3, 47, 0
5, 7020, Note_on_c, 3, 47, 100
5, 7080, Note_on_c, 3, 47, 0
5, 7080, Note_on_c, 3, 64, 100
5, 7081, Pitch_bend_c, 3, 128
5, 7083, Pitch_bend_c, 3, 512
5, 7085, Pitch_bend_c, 3, 1024
5, 7086, Pitch_bend_c, 3, 1408
5, 7088, Pitch_bend_c, 3, 1920
5, 7090, Pitch_bend_c, 3, 2304
5, 7091, Pitch_bend_c, 3, 2816
5, 7093, Pitch_bend_c, 3, 3200
5, 7095, Pitch_bend_c, 3, 3712
5, 7096, Pitch_bend_c, 3, 4096
5, 7098, Pitch_bend_c, 3, 4608
5, 7100, Pitch_bend_c, 3, 4992
5, 7101, Pitch_bend_c, 3, 5504
5, 7103, Pitch_bend_c, 3, 5888
5, 7105, Pitch_bend_c, 3, 6400
5, 7106, Pitch_bend_c, 3, 6784
5, 7108, Pitch_bend_c, 3, 7296
5, 7110, Pitch_bend_c, 3, 7680
5, 7111, Pitch_bend_c, 3, 8192
5, 7380, Note_on_c, 3, 64, 0
5, 7380, Pitch_bend_c, 3, 128
5, 7380, Note_on_c, 3, 56, 100
5, 7381, Pitch_bend_c, 3, 512
5, 7383, Pitch_bend_c, 3, 1024
5, 7385, Pitch_bend_c, 3, 1408
5, 7386, Pitch_bend_c, 3, 1920
5, 7388, Pitch_bend_c, 3, 2304
5, 7390, Pitch_bend_c, 3, 2816
5, 7391, Pitch_bend_c, 3, 3200
5, 7393, Pitch_bend_c, 3, 3712
5, 7395, Pitch_bend_c, 3, 4096
5, 7396, Pitch_bend_c, 3, 4608
5, 7398, Pitch_bend_c, 3, 4992
5, 7400, Pitch_bend_c, 3, 5504
5, 7401, Pitch_bend_c, 3, 5888
5, 7403, Pitch_bend_c, 3, 6400
5, 7405, Pitch_bend_c, 3, 6784
5, 7406, Pitch_bend_c, 3, 7296
5, 7408, Pitch_bend_c, 3, 7680
5, 7410, Pitch_bend_c, 3, 8192
5, 7440, Note_on_c, 3, 56, 0
5, 7440, Note_on_c, 3, 47, 100
5, 7500, Note_on_c, 3, 47, 0
5, 7500, Note_on_c, 3, 52, 100
5, 7530, Note_on_c, 3, 52, 0
5, 7530, Note_on_c, 3, 54, 100
5, 7560, Note_on_c, 3, 54, 0
5, 7560, Note_on_c, 3, 54, 100
5, 7560, Note_on_c, 3, 59, 100
5, 7620, Note_on_c, 3, 59, 0
5, 7620, Note_on_c, 3, 54, 0
5, 7620, Pitch_bend_c, 3, 16383
5, 7620, Note_on_c, 3, 47, 100
5, 7621, Pitch_bend_c, 3, 15872
5, 7623, Pitch_bend_c, 3, 15232
5, 7625, Pitch_bend_c, 3, 14592
5, 7626, Pitch_bend_c, 3, 13952
5, 7628, Pitch_bend_c, 3, 13312
5, 7630, Pitch_bend_c, 3, 12672
5, 7631, Pitch_bend_c, 3, 12032
5, 7633, Pitch_bend_c, 3, 11392
5, 7635, Pitch_bend_c, 3, 10752
5, 7636, Pitch_bend_c, 3, 10112
5, 7638, Pitch_bend_c, 3, 9472
5, 7640, Pitch_bend_c, 3, 8832
5, 7641, Pitch_bend_c, 3, 8192
5, 7680, Note_on_c, 3, 47, 0
5, 7680, Note_on_c, 3, 49, 100
5, 7800, Note_on_c, 3, 66, 100
5, 7830, Note_on_c, 3, 66, 0
5, 7830, Note_on_c, 3, 64, 100
5, 7860, Note_on_c, 3, 49, 0
5, 7860, Note_on_c, 3, 49, 100
5, 7920, Note_on_c, 3, 49, 0
5, 7920, Note_on_c, 3, 64, 0
5, 7920, Note_on_c, 3, 47, 100
5, 8100, Note_on_c, 3, 47, 0
5, 8100, Note_on_c, 3, 47, 100
5, 8160, Note_on_c, 3, 47, 0
5, 8160, Note_on_c, 3, 64, 100
5, 8160, Note_on_c, 3, 61, 100
5, 8160, Note_on_c, 3, 57, 100
5, 8160, Note_on_c, 3, 52, 100
5, 8340, Note_on_c, 3, 52, 0
5, 8340, Note_on_c, 3, 64, 0
5, 8340, Note_on_c, 3, 61, 0
5, 8340, Note_on_c, 3, 57, 0
5, 8340, Note_on_c, 3, 52, 100
5, 8340, Note_on_c, 3, 57, 100
5, 8400, Note_on_c, 3, 57, 0
5, 8400, Note_on_c, 3, 52, 0
5, 8400, Pitch_bend_c, 3, 128
5, 8400, Note_on_c, 3, 56, 100
5, 8401, Pitch_bend_c, 3, 512
5, 8403, Pitch_bend_c, 3, 1024
5, 8405, Pitch_bend_c, 3, 1536
5, 8406, Pitch_bend_c, 3, 1920
5, 8408, Pitch_bend_c, 3, 2432
5, 8410, Pitch_bend_c, 3, 2944
5, 8411, Pitch_bend_c, 3, 3328
5, 8413, Pitch_bend_c, 3, 3840
5, 8415, Pitch_bend_c, 3, 4352
5, 8416, Pitch_bend_c, 3, 4864
5, 8418, Pitch_bend_c, 3, 5248
5, 8420, Pitch_bend_c, 3, 5760
5, 8421, Pitch_bend_c, 3, 6272
5, 8423, Pitch_bend_c, 3, 6656
5, 8425, Pitch_bend_c, 3, 7168
5, 8426, Pitch_bend_c, 3, 7680
5, 8428, Pitch_bend_c, 3, 8192
5, 8460, Note_on_c, 3, 56, 0
5, 8460, Note_on_c, 3, 64, 100
5, 8465, Pitch_bend_c, 3, 8320
5, 8466, Pitch_bend_c, 3, 8448
5, 8470, Pitch_bend_c, 3, 8704
5, 8473, Pitch_bend_c, 3, 8960
5, 8475, Pitch_bend_c, 3, 9216
5, 8476, Pitch_bend_c, 3, 9472
5, 8478, Pitch_bend_c, 3, 9984
5, 8480, Pitch_bend_c, 3, 11008
5, 8481, Pitch_bend_c, 3, 13056
5, 8483, Pitch_bend_c, 3, 14080
5, 8485, Pitch_bend_c, 3, 14976
5, 8486, Pitch_bend_c, 3, 15488
5, 8488, Pitch_bend_c, 3, 15744
5, 8490, Pitch_bend_c, 3, 16000
5, 8493, Pitch_bend_c, 3, 16256
5, 8500, Pitch_bend_c, 3, 16128
5, 8501, Pitch_bend_c, 3, 14592
5, 8503, Pitch_bend_c, 3, 13056
5, 8505, Pitch_bend_c, 3, 12544
5, 8506, Pitch_bend_c, 3, 12032
5, 8508, Pitch_bend_c, 3, 11776
5, 8510, Pitch_bend_c, 3, 11264
5, 8511, Pitch_bend_c, 3, 10752
5, 8513, Pitch_bend_c, 3, 10240
5, 8515, Pitch_bend_c, 3, 9728
5, 8516, Pitch_bend_c, 3, 9216
5, 8518, Pitch_bend_c, 3, 8960
5, 8520, Pitch_bend_c, 3, 8704
5, 8521, Pitch_bend_c, 3, 8448
5, 8523, Pitch_bend_c, 3, 8320
5, 8526, Pitch_bend_c, 3, 8192
5, 8640, Note_on_c, 3, 64, 0
5, 8760, Note_on_c, 3, 59, 100
5, 8760, Note_on_c, 3, 64, 100
5, 8880, Note_on_c, 3, 64, 0
5, 8880, Note_on_c, 3, 59, 0
5, 8880, Note_on_c, 3, 59, 100
5, 8880, Note_on_c, 3, 54, 100
5, 8937, Note_on_c, 3, 59, 100
5, 8938, Note_on_c, 3, 54, 100
5, 8940, Note_on_c, 3, 54, 0
5, 8940, Note_on_c, 3, 59, 0
5, 9056, Note_on_c, 3, 52, 100
5, 9056, Note_on_c, 3, 57, 100
5, 9057, Note_on_c, 3, 59, 0
5, 9058, Note_on_c, 3, 54, 0
5, 9116, Note_on_c, 3, 52, 0
5, 9116, Note_on_c, 3, 57, 0
5, 9120, Note_on_c, 3, 52, 100
5, 9121, Note_on_c, 3, 57, 100
5, 9300, Note_on_c, 3, 52, 0
5, 9300, Note_on_c, 3, 54, 100
5, 9301, Note_on_c, 3, 57, 0
5, 9301, Pitch_bend_c, 3, 128
5, 9303, Pitch_bend_c, 3, 512
5, 9305, Pitch_bend_c, 3, 1024
5, 9306, Pitch_bend_c, 3, 1536
5, 9308, Pitch_bend_c, 3, 1920
5, 9310, Pitch_bend_c, 3, 2432
5, 9311, Pitch_bend_c, 3, 2944
5, 9313, Pitch_bend_c, 3, 3328
5, 9315, Pitch_bend_c, 3, 3840
5, 9316, Pitch_bend_c, 3, 4352
5, 9318, Pitch_bend_c, 3, 4864
5, 9320, Pitch_bend_c, 3, 5248
5, 9321, Pitch_bend_c, 3, 5760
5, 9323, Pitch_bend_c, 3, 6272
5, 9325, Pitch_bend_c, 3, 6656
5, 9326, Pitch_bend_c, 3, 7168
5, 9328, Pitch_bend_c, 3, 7680
5, 9330, Pitch_bend_c, 3, 8192
5, 9360, Note_on_c, 3, 54, 0
5, 9360, Note_on_c, 3, 59, 100
5, 9360, Note_on_c, 3, 64, 100
5, 9420, Note_on_c, 3, 64, 0
5, 9420, Note_on_c, 3, 59, 0
5, 9420, Note_on_c, 3, 64, 100
5, 9420, Note_on_c, 3, 59, 100
5, 9443, Pitch_bend_c, 3, 8448
5, 9445, Pitch_bend_c, 3, 8704
5, 9448, Pitch_bend_c, 3, 8960
5, 9450, Pitch_bend_c, 3, 9216
5, 9451, Pitch_bend_c, 3, 9472
5, 9453, Pitch_bend_c, 3, 9984
5, 9455, Pitch_bend_c, 3, 10240
5, 9456, Pitch_bend_c, 3, 11264
5, 9458, Pitch_bend_c, 3, 15104
5, 9460, Pitch_bend_c, 3, 16128
5, 9470, Pitch_bend_c, 3, 11776
5, 9471, Pitch_bend_c, 3, 11264
5, 9473, Pitch_bend_c, 3, 10240
5, 9475, Pitch_bend_c, 3, 8448
5, 9476, Pitch_bend_c, 3, 8192
5, 9600, Note_on_c, 3, 59, 0
5, 9600, Note_on_c, 3, 64, 0
5, 9600, Note_on_c, 3, 54, 100
5, 9630, Note_on_c, 3, 54, 0
5, 9630, Note_on_c, 3, 57, 100
5, 9645, Note_on_c, 3, 61, 100
5, 9660, Note_on_c, 3, 61, 0
5, 9660, Note_on_c, 3, 57, 0
5, 9660, Note_on_c, 3, 59, 100
5, 9660, Note_on_c, 3, 64, 100
5, 9720, Note_on_c, 3, 64, 0
5, 9720, Note_on_c, 3, 59, 0
5, 9720, Note_on_c, 3, 54, 100
5, 9720, Note_on_c, 3, 59, 100
5, 9780, Note_on_c, 3, 59, 0
5, 9780, Note_on_c, 3, 54, 0
5, 9780, Note_on_c, 3, 56, 100
5, 9840, Note_on_c, 3, 56, 0
5, 9840, Note_on_c, 3, 54, 100
5, 9840, Note_on_c, 3, 59, 100
5, 9900, Note_on_c, 3, 59, 0
5, 9900, Note_on_c, 3, 54, 0
5, 9900, Note_on_c, 3, 59, 100
5, 9900, Note_on_c, 3, 54, 100
5, 9960, Note_on_c, 3, 54, 0
5, 9960, Note_on_c, 3, 59, 0
5, 9960, Note_on_c, 3, 64, 100
5, 10020, Note_on_c, 3, 64, 0
5, 10020, Note_on_c, 3, 52, 100
5, 10020, Note_on_c, 3, 57, 100
5, 10080, Note_on_c, 3, 57, 0
5, 10080, Note_on_c, 3, 52, 0
5, 10080, Note_on_c, 3, 52, 100
5, 10080, Note_on_c, 3, 57, 100
5, 10260, Note_on_c, 3, 57, 0
5, 10260, Note_on_c, 3, 52, 0
5, 10260, Note_on_c, 3, 47, 100
5, 10290, Note_on_c, 3, 47, 0
5, 10290, Note_on_c, 3, 49, 100
5, 10320, Note_on_c, 3, 49, 0
5, 10320, Note_on_c, 3, 52, 100
5, 10380, Note_on_c, 3, 52, 0
5, 10380, Pitch_bend_c, 3, 128
5, 10380, Note_on_c, 3, 61, 100
5, 10381, Pitch_bend_c, 3, 640
5, 10383, Pitch_bend_c, 3, 1152
5, 10385, Pitch_bend_c, 3, 1664
5, 10386, Pitch_bend_c, 3, 2176
5, 10388, Pitch_bend_c, 3, 2816
5, 10390, Pitch_bend_c, 3, 3328
5, 10391, Pitch_bend_c, 3, 3840
5, 10393, Pitch_bend_c, 3, 4352
5, 10395, Pitch_bend_c, 3, 4864
5, 10396, Pitch_bend_c, 3, 5504
5, 10398, Pitch_bend_c, 3, 6016
5, 10400, Pitch_bend_c, 3, 6528
5, 10401, Pitch_bend_c, 3, 7040
5, 10403, Pitch_bend_c, 3, 7552
5, 10405, Pitch_bend_c, 3, 8192
5, 10440, Note_on_c, 3, 61, 0
5, 10440, Note_on_c, 3, 59, 127
5, 10443, Pitch_bend_c, 3, 8192
5, 10453, Pitch_bend_c, 3, 8960
5, 10455, Pitch_bend_c, 3, 9088
5, 10456, Pitch_bend_c, 3, 9344
5, 10458, Pitch_bend_c, 3, 9600
5, 10460, Pitch_bend_c, 3, 7808
5, 10463, Pitch_bend_c, 3, 8064
5, 10465, Pitch_bend_c, 3, 8576
5, 10466, Pitch_bend_c, 3, 9088
5, 10468, Pitch_bend_c, 3, 9344
5, 10470, Pitch_bend_c, 3, 9472
5, 10471, Pitch_bend_c, 3, 7424
5, 10473, Pitch_bend_c, 3, 7552
5, 10475, Pitch_bend_c, 3, 7936
5, 10476, Pitch_bend_c, 3, 8192
5, 10478, Pitch_bend_c, 3, 8704
5, 10480, Pitch_bend_c, 3, 8960
5, 10481, Pitch_bend_c, 3, 9216
5, 10485, Pitch_bend_c, 3, 7808
5, 10488, Pitch_bend_c, 3, 7936
5, 10490, Pitch_bend_c, 3, 8192
5, 10491, Pitch_bend_c, 3, 8576
5, 10493, Pitch_bend_c, 3, 9088
5, 10496, Pitch_bend_c, 3, 7808
5, 10505, Pitch_bend_c, 3, 8064
5, 10506, Pitch_bend_c, 3, 8576
5, 10508, Pitch_bend_c, 3, 9088
5, 10510, Pitch_bend_c, 3, 7040
5, 10516, Pitch_bend_c, 3, 7296
5, 10520, Pitch_bend_c, 3, 7552
5, 10521, Pitch_bend_c, 3, 8320
5, 10523, Pitch_bend_c, 3, 9088
5, 10525, Pitch_bend_c, 3, 9216
5, 10526, Pitch_bend_c, 3, 9344
5, 10533, Pitch_bend_c, 3, 7680
5, 10538, Pitch_bend_c, 3, 7936
5, 10540, Pitch_bend_c, 3, 8576
5, 10541, Pitch_bend_c, 3, 8704
5, 10546, Pitch_bend_c, 3, 8448
5, 10548, Pitch_bend_c, 3, 8192
5, 10560, Note_on_c, 3, 59, 0
5, 10560, Note_on_c, 3, 49, 100
5, 10680, Note_on_c, 3, 64, 100
5, 10700, Note_on_c, 3, 64, 0
5, 10700, Note_on_c, 3, 66, 100
5, 10720, Note_on_c, 3, 66, 0
5, 10720, Note_on_c, 3, 64, 100
5, 10740, Note_on_c, 3, 64, 0
5, 10740, Note_on_c, 3, 56, 100
5, 10800, Note_on_c, 3, 56, 0
5, 10800, Note_on_c, 3, 49, 0
5, 10800, Note_on_c, 3, 59, 100
5, 10920, Note_on_c, 3, 59, 0
5, 10920, Note_on_c, 3, 54, 100
5, 10920, Note_on_c, 3, 59, 100
5, 10980, Note_on_c, 3, 59, 0
5, 10980, Note_on_c, 3, 54, 0
5, 10980, Note_on_c, 3, 52, 100
5, 10980, Note_on_c, 3, 57, 100
5, 11040, Note_on_c, 3, 49, 100
5, 11160, Note_on_c, 3, 49, 0
5, 11160, Note_on_c, 3, 57, 0
5, 11160, Note_on_c, 3, 52, 0
5, 11160, Note_on_c, 3, 57, 100
5, 11160, Note_on_c, 3, 52, 100
5, 11220, Note_on_c, 3, 52, 0
5, 11220, Note_on_c, 3, 57, 0
5, 11220, Note_on_c, 3, 61, 100
5, 11240, Note_on_c, 3, 61, 0
5, 11240, Note_on_c, 3, 64, 100
5, 11260, Note_on_c, 3, 64, 0
5, 11260, Note_on_c, 3, 61, 100
5, 11280, Note_on_c, 3, 61, 0
5, 11280, Note_on_c, 3, 57, 100
5, 11340, Note_on_c, 3, 57, 0
5, 11340, Note_on_c, 3, 56, 100
5, 11400, Note_on_c, 3, 56, 0
5, 11400, Note_on_c, 3, 61, 100
5, 11425, Pitch_bend_c, 3, 8320
5, 11426, Pitch_bend_c, 3, 8832
5, 11428, Pitch_bend_c, 3, 10112
5, 11430, Pitch_bend_c, 3, 11136
5, 11431, Pitch_bend_c, 3, 11904
5, 11433, Pitch_bend_c, 3, 12928
5, 11435, Pitch_bend_c, 3, 14464
5, 11436, Pitch_bend_c, 3, 14976
5, 11438, Pitch_bend_c, 3, 15488
5, 11440, Pitch_bend_c, 3, 16000
5, 11441, Pitch_bend_c, 3, 16128
5, 11448, Pitch_bend_c, 3, 13952
5, 11450, Pitch_bend_c, 3, 10496
5, 11451, Pitch_bend_c, 3, 9728
5, 11453, Pitch_bend_c, 3, 9216
5, 11455, Pitch_bend_c, 3, 8704
5, 11456, Pitch_bend_c, 3, 8448
5, 11458, Pitch_bend_c, 3, 8192
5, 11520, Note_on_c, 3, 61, 0
5, 11520, Note_on_c, 3, 49, 100
5, 11640, Note_on_c, 3, 64, 100
5, 11640, Note_on_c, 3, 59, 100
5, 11640, Note_on_c, 3, 56, 100
5, 11760, Note_on_c, 3, 56, 0
5, 11760, Note_on_c, 3, 49, 0
5, 11760, Note_on_c, 3, 64, 0
5, 11760, Note_on_c, 3, 59, 0
5, 11760, Note_on_c, 3, 59, 100
5, 11760, Note_on_c, 3, 54, 100
5, 11820, Note_on_c, 3, 54, 0
5, 11820, Note_on_c, 3, 59, 0
5, 11820, Note_on_c, 3, 59, 100
5, 11820, Note_on_c, 3, 54, 100
5, 11880, Note_on_c, 3, 54, 0
5, 11880, Note_on_c, 3, 59, 0
5, 11880, Note_on_c, 3, 59, 100
5, 11880, Note_on_c, 3, 54, 100
5, 11940, Note_on_c, 3, 54, 0
5, 11940, Note_on_c, 3, 59, 0
5, 11940, Note_on_c, 3, 57, 100
5, 11940, Note_on_c, 3, 52, 100
5, 12000, Control_c, 3, 7, 127
5, 12120, Note_on_c, 3, 52, 0
5, 12120, Note_on_c, 3, 57, 0
5, 12120, Note_on_c, 3, 52, 100
5, 12120, Note_on_c, 3, 57, 100
5, 12180, Note_on_c, 3, 57, 0
5, 12180, Note_on_c, 3, 52, 0
5, 12180, Note_on_c, 3, 49, 100
5, 12210, Note_on_c, 3, 49, 0
5, 12210, Note_on_c, 3, 52, 100
5, 12215, Note_on_c, 3, 57, 100
5, 12360, Note_on_c, 3, 52, 0
5, 12360, Pitch_bend_c, 3, 128
5, 12360, Note_on_c, 3, 73, 100
5, 12361, Pitch_bend_c, 3, 640
5, 12363, Pitch_bend_c, 3, 1280
5, 12365, Note_on_c, 3, 57, 0
5, 12365, Pitch_bend_c, 3, 1920
5, 12366, Pitch_bend_c, 3, 2560
5, 12368, Pitch_bend_c, 3, 3200
5, 12370, Pitch_bend_c, 3, 3840
5, 12371, Pitch_bend_c, 3, 4352
5, 12373, Pitch_bend_c, 3, 4992
5, 12375, Pitch_bend_c, 3, 5632
5, 12376, Pitch_bend_c, 3, 6272
5, 12378, Pitch_bend_c, 3, 6912
5, 12380, Pitch_bend_c, 3, 7552
5, 12381, Pitch_bend_c, 3, 8192
5, 12420, Note_on_c, 3, 73, 0
5, 12420, Pitch_bend_c, 3, 0
5, 12420, Note_on_c, 3, 73, 100
5, 12421, Pitch_bend_c, 3, 512
5, 12423, Pitch_bend_c, 3, 1152
5, 12425, Pitch_bend_c, 3, 1792
5, 12426, Pitch_bend_c, 3, 2432
5, 12428, Pitch_bend_c, 3, 3072
5, 12430, Pitch_bend_c, 3, 3712
5, 12431, Pitch_bend_c, 3, 4352
5, 12433, Pitch_bend_c, 3, 4992
5, 12435, Pitch_bend_c, 3, 5632
5, 12436, Pitch_bend_c, 3, 6272
5, 12438, Pitch_bend_c, 3, 6912
5, 12440, Pitch_bend_c, 3, 7552
5, 12441, Pitch_bend_c, 3, 8192
5, 12480, Note_on_c, 3, 73, 0
5, 12480, Pitch_bend_c, 3, 128
5, 12480, Note_on_c, 3, 73, 100
5, 12481, Pitch_bend_c, 3, 384
5, 12483, Pitch_bend_c, 3, 640
5, 12485, Pitch_bend_c, 3, 1024
5, 12486, Pitch_bend_c, 3, 1280
5, 12488, Pitch_bend_c, 3, 1536
5, 12490, Pitch_bend_c, 3, 1920
5, 12491, Pitch_bend_c, 3, 2176
5, 12493, Pitch_bend_c, 3, 2432
5, 12495, Pitch_bend_c, 3, 2816
5, 12496, Pitch_bend_c, 3, 3072
5, 12498, Pitch_bend_c, 3, 3328
5, 12500, Pitch_bend_c, 3, 3712
5, 12501, Pitch_bend_c, 3, 3968
5, 12503, Pitch_bend_c, 3, 4224
5, 12505, Pitch_bend_c, 3, 4608
5, 12506, Pitch_bend_c, 3, 4864
5, 12508, Pitch_bend_c, 3, 5120
5, 12510, Pitch_bend_c, 3, 5504
5, 12511, Pitch_bend_c, 3, 5760
5, 12513, Pitch_bend_c, 3, 6016
5, 12515, Pitch_bend_c, 3, 6400
5, 12516, Pitch_bend_c, 3, 6656
5, 12518, Pitch_bend_c, 3, 6912
5, 12520, Pitch_bend_c, 3, 7296
5, 12521, Pitch_bend_c, 3, 7552
5, 12523, Pitch_bend_c, 3, 7808
5, 12525, Pitch_bend_c, 3, 8192
5, 12543, Pitch_bend_c, 3, 8192
5, 12545, Pitch_bend_c, 3, 8960
5, 12546, Pitch_bend_c, 3, 9088
5, 12548, Pitch_bend_c, 3, 9600
5, 12550, Pitch_bend_c, 3, 9856
5, 12551, Pitch_bend_c, 3, 9728
5, 12553, Pitch_bend_c, 3, 8960
5, 12555, Pitch_bend_c, 3, 8064
5, 12556, Pitch_bend_c, 3, 7808
5, 12558, Pitch_bend_c, 3, 7552
5, 12563, Pitch_bend_c, 3, 9856
5, 12565, Pitch_bend_c, 3, 9600
5, 12566, Pitch_bend_c, 3, 8576
5, 12568, Pitch_bend_c, 3, 7808
5, 12570, Pitch_bend_c, 3, 7168
5, 12571, Pitch_bend_c, 3, 7040
5, 12575, Pitch_bend_c, 3, 7168
5, 12576, Pitch_bend_c, 3, 7680
5, 12578, Pitch_bend_c, 3, 8960
5, 12580, Pitch_bend_c, 3, 9984
5, 12581, Pitch_bend_c, 3, 10112
5, 12583, Pitch_bend_c, 3, 10240
5, 12585, Pitch_bend_c, 3, 10112
5, 12586, Pitch_bend_c, 3, 9472
5, 12588, Pitch_bend_c, 3, 8192
5, 12590, Pitch_bend_c, 3, 7680
5, 12591, Pitch_bend_c, 3, 7424
5, 12593, Pitch_bend_c, 3, 7168
5, 12598, Pitch_bend_c, 3, 7680
5, 12600, Pitch_bend_c, 3, 8192
5, 12601, Pitch_bend_c, 3, 9728
5, 12603, Pitch_bend_c, 3, 9984
5, 12605, Pitch_bend_c, 3, 10240
5, 12606, Pitch_bend_c, 3, 10368
5, 12608, Pitch_bend_c, 3, 10496
5, 12611, Pitch_bend_c, 3, 7040
5, 12625, Pitch_bend_c, 3, 7808
5, 12626, Pitch_bend_c, 3, 8192
5, 12628, Pitch_bend_c, 3, 8704
5, 12630, Pitch_bend_c, 3, 9216
5, 12633, Pitch_bend_c, 3, 9472
5, 12636, Pitch_bend_c, 3, 7680
5, 12638, Pitch_bend_c, 3, 7552
5, 12640, Pitch_bend_c, 3, 7168
5, 12645, Pitch_bend_c, 3, 7936
5, 12646, Pitch_bend_c, 3, 8192
5, 12648, Pitch_bend_c, 3, 8576
5, 12650, Pitch_bend_c, 3, 9088
5, 12651, Pitch_bend_c, 3, 9216
5, 12653, Pitch_bend_c, 3, 9472
5, 12655, Pitch_bend_c, 3, 9600
5, 12660, Pitch_bend_c, 3, 9344
5, 12661, Pitch_bend_c, 3, 8832
5, 12663, Pitch_bend_c, 3, 8576
5, 12666, Pitch_bend_c, 3, 8448
5, 12668, Pitch_bend_c, 3, 8320
5, 12671, Pitch_bend_c, 3, 8064
5, 12683, Pitch_bend_c, 3, 7936
5, 12688, Pitch_bend_c, 3, 8064
5, 12690, Pitch_bend_c, 3, 8192
5, 12691, Pitch_bend_c, 3, 8192
5, 12693, Pitch_bend_c, 3, 8448
5, 12695, Pitch_bend_c, 3, 8320
5, 12698, Pitch_bend_c, 3, 8064
5, 12700, Pitch_bend_c, 3, 8192
5, 12720, Note_on_c, 3, 73, 0
5, 12720, Note_on_c, 3, 73, 100
5, 12720, Note_on_c, 3, 67, 100
5, 12750, Note_on_c, 3, 67, 0
5, 12750, Note_on_c, 3, 68, 100
5, 12780, Note_on_c, 3, 68, 0
5, 12780, Note_on_c, 3, 73, 0
5, 12780, Note_on_c, 3, 71, 100
5, 12810, Note_on_c, 3, 71, 0
5, 12810, Note_on_c, 3, 68, 100
5, 12840, Note_on_c, 3, 68, 0
5, 12840, Note_on_c, 3, 68, 100
5, 12900, Note_on_c, 3, 68, 0
5, 12900, Note_on_c, 3, 66, 100
5, 12900, Note_on_c, 3, 68, 100
5, 12960, Note_on_c, 3, 68, 0
5, 12960, Note_on_c, 3, 66, 0
5, 12960, Pitch_bend_c, 3, 128
5, 12960, Note_on_c, 3, 68, 100
5, 12961, Pitch_bend_c, 3, 256
5, 12963, Pitch_bend_c, 3, 384
5, 12965, Pitch_bend_c, 3, 640
5, 12966, Pitch_bend_c, 3, 768
5, 12968, Pitch_bend_c, 3, 1024
5, 12970, Pitch_bend_c, 3, 1152
5, 12971, Pitch_bend_c, 3, 1408
5, 12973, Pitch_bend_c, 3, 1536
5, 12975, Pitch_bend_c, 3, 1792
5, 12976, Pitch_bend_c, 3, 1920
5, 12978, Pitch_bend_c, 3, 2176
5, 12980, Pitch_bend_c, 3, 2304
5, 12981, Pitch_bend_c, 3, 2560
5, 12983, Pitch_bend_c, 3, 2688
5, 12985, Pitch_bend_c, 3, 2816
5, 12986, Pitch_bend_c, 3, 3072
5, 12988, Pitch_bend_c, 3, 3200
5, 12990, Pitch_bend_c, 3, 3456
5, 12991, Pitch_bend_c, 3, 3584
5, 12993, Pitch_bend_c, 3, 3840
5, 12995, Pitch_bend_c, 3, 3968
5, 12996, Pitch_bend_c, 3, 4224
5, 12998, Pitch_bend_c, 3, 4352
5, 13000, Pitch_bend_c, 3, 4608
5, 13001, Pitch_bend_c, 3, 4736
5, 13003, Pitch_bend_c, 3, 4992
5, 13005, Pitch_bend_c, 3, 5120
5, 13006, Pitch_bend_c, 3, 5376
5, 13008, Pitch_bend_c, 3, 5504
5, 13010, Pitch_bend_c, 3, 5632
5, 13011, Pitch_bend_c, 3, 5888
5, 13013, Pitch_bend_c, 3, 6016
5, 13015, Pitch_bend_c, 3, 6272
5, 13016, Pitch_bend_c, 3, 6400
5, 13018, Pitch_bend_c, 3, 6656
5, 13020, Pitch_bend_c, 3, 6784
5, 13021, Pitch_bend_c, 3, 7040
5, 13023, Pitch_bend_c, 3, 7168
5, 13025, Pitch_bend_c, 3, 7424
5, 13026, Pitch_bend_c, 3, 7552
5, 13028, Pitch_bend_c, 3, 7808
5, 13030, Pitch_bend_c, 3, 7936
5, 13031, Pitch_bend_c, 3, 8192
5, 13035, Pitch_bend_c, 3, 7936
5, 13036, Pitch_bend_c, 3, 8448
5, 13038, Pitch_bend_c, 3, 8960
5, 13040, Pitch_bend_c, 3, 9216
5, 13041, Pitch_bend_c, 3, 9728
5, 13043, Pitch_bend_c, 3, 6272
5, 13050, Pitch_bend_c, 3, 7040
5, 13051, Pitch_bend_c, 3, 7296
5, 13053, Pitch_bend_c, 3, 7552
5, 13055, Pitch_bend_c, 3, 7680
5, 13056, Pitch_bend_c, 3, 8192
5, 13058, Pitch_bend_c, 3, 8448
5, 13060, Pitch_bend_c, 3, 8704
5, 13061, Pitch_bend_c, 3, 9472
5, 13063, Pitch_bend_c, 3, 10240
5, 13065, Pitch_bend_c, 3, 10752
5, 13066, Pitch_bend_c, 3, 6912
5, 13071, Pitch_bend_c, 3, 7168
5, 13073, Pitch_bend_c, 3, 7424
5, 13076, Pitch_bend_c, 3, 7936
5, 13078, Pitch_bend_c, 3, 8448
5, 13080, Pitch_bend_c, 3, 8960
5, 13081, Pitch_bend_c, 3, 9216
5, 13083, Pitch_bend_c, 3, 9600
5, 13085, Pitch_bend_c, 3, 9728
5, 13086, Pitch_bend_c, 3, 8192
5, 13088, Pitch_bend_c, 3, 7936
5, 13106, Pitch_bend_c, 3, 8192
5, 13116, Pitch_bend_c, 3, 8960
5, 13118, Pitch_bend_c, 3, 9472
5, 13120, Pitch_bend_c, 3, 7808
5, 13125, Pitch_bend_c, 3, 8064
5, 13128, Pitch_bend_c, 3, 8576
5, 13130, Pitch_bend_c, 3, 9088
5, 13131, Pitch_bend_c, 3, 9344
5, 13133, Pitch_bend_c, 3, 9216
5, 13135, Pitch_bend_c, 3, 7040
5, 13138, Pitch_bend_c, 3, 7168
5, 13141, Pitch_bend_c, 3, 7296
5, 13143, Pitch_bend_c, 3, 7552
5, 13145, Pitch_bend_c, 3, 7680
5, 13146, Pitch_bend_c, 3, 7936
5, 13148, Pitch_bend_c, 3, 8192
5, 13150, Pitch_bend_c, 3, 8448
5, 13151, Pitch_bend_c, 3, 8704
5, 13153, Pitch_bend_c, 3, 8960
5, 13155, Pitch_bend_c, 3, 7424
5, 13171, Pitch_bend_c, 3, 7680
5, 13173, Pitch_bend_c, 3, 7936
5, 13175, Pitch_bend_c, 3, 8192
5, 13176, Pitch_bend_c, 3, 8320
5, 13178, Pitch_bend_c, 3, 8576
5, 13181, Pitch_bend_c, 3, 8832
5, 13183, Pitch_bend_c, 3, 9088
5, 13185, Pitch_bend_c, 3, 7552
5, 13186, Pitch_bend_c, 3, 7296
5, 13188, Pitch_bend_c, 3, 7168
5, 13201, Pitch_bend_c, 3, 7424
5, 13205, Pitch_bend_c, 3, 7680
5, 13206, Pitch_bend_c, 3, 7936
5, 13208, Pitch_bend_c, 3, 8192
5, 13210, Pitch_bend_c, 3, 8448
5, 13211, Pitch_bend_c, 3, 8704
5, 13213, Pitch_bend_c, 3, 8832
5, 13216, Pitch_bend_c, 3, 9088
5, 13218, Pitch_bend_c, 3, 9344
5, 13220, Pitch_bend_c, 3, 8064
5, 13221, Pitch_bend_c, 3, 6528
5, 13223, Pitch_bend_c, 3, 5632
5, 13226, Pitch_bend_c, 3, 5760
5, 13230, Pitch_bend_c, 3, 6528
5, 13233, Pitch_bend_c, 3, 7040
5, 13236, Pitch_bend_c, 3, 7296
5, 13238, Pitch_bend_c, 3, 8064
5, 13240, Pitch_bend_c, 3, 8320
5, 13243, Pitch_bend_c, 3, 9088
5, 13246, Pitch_bend_c, 3, 9600
5, 13248, Pitch_bend_c, 3, 9856
5, 13251, Pitch_bend_c, 3, 10112
5, 13253, Pitch_bend_c, 3, 9984
5, 13255, Pitch_bend_c, 3, 9472
5, 13256, Pitch_bend_c, 3, 9088
5, 13258, Pitch_bend_c, 3, 8832
5, 13263, Pitch_bend_c, 3, 9088
5, 13266, Pitch_bend_c, 3, 9344
5, 13268, Pitch_bend_c, 3, 9600
5, 13278, Pitch_bend_c, 3, 9344
5, 13280, Pitch_bend_c, 3, 8832
5, 13281, Pitch_bend_c, 3, 8576
5, 13288, Pitch_bend_c, 3, 8320
5, 13291, Pitch_bend_c, 3, 8192
5, 13350, Note_on_c, 3, 68, 0
5, 13350, Note_on_c, 3, 64, 100
5, 13380, Note_on_c, 3, 64, 0
5, 13380, Note_on_c, 3, 61, 120
5, 13440, Note_on_c, 3, 61, 0
5, 13440, Note_on_c, 3, 64, 100
5, 13500, Note_on_c, 3, 64, 0
5, 13500, Pitch_bend_c, 3, 128
5, 13500, Note_on_c, 3, 68, 100
5, 13501, Pitch_bend_c, 3, 640
5, 13503, Pitch_bend_c, 3, 1152
5, 13505, Pitch_bend_c, 3, 1664
5, 13506, Pitch_bend_c, 3, 2176
5, 13508, Pitch_bend_c, 3, 2816
5, 13510, Pitch_bend_c, 3, 3328
5, 13511, Pitch_bend_c, 3, 3840
5, 13513, Pitch_bend_c, 3, 4352
5, 13515, Pitch_bend_c, 3, 4864
5, 13516, Pitch_bend_c, 3, 5504
5, 13518, Pitch_bend_c, 3, 6016
5, 13520, Pitch_bend_c, 3, 6528
5, 13521, Pitch_bend_c, 3, 7040
5, 13523, Pitch_bend_c, 3, 7552
5, 13525, Pitch_bend_c, 3, 8192
5, 13560, Note_on_c, 3, 68, 0
5, 13560, Note_on_c, 3, 71, 100
5, 13620, Note_on_c, 3, 71, 0
5, 13620, Pitch_bend_c, 3, 128
5, 13620, Note_on_c, 3, 75, 100
5, 13621, Pitch_bend_c, 3, 384
5, 13623, Pitch_bend_c, 3, 768
5, 13625, Pitch_bend_c, 3, 1152
5, 13626, Pitch_bend_c, 3, 1536
5, 13628, Pitch_bend_c, 3, 1920
5, 13630, Pitch_bend_c, 3, 2304
5, 13631, Pitch_bend_c, 3, 2688
5, 13633, Pitch_bend_c, 3, 2944
5, 13635, Pitch_bend_c, 3, 3328
5, 13636, Pitch_bend_c, 3, 3712
5, 13638, Pitch_bend_c, 3, 4096
5, 13640, Pitch_bend_c, 3, 4480
5, 13641, Pitch_bend_c, 3, 4864
5, 13643, Pitch_bend_c, 3, 5248
5, 13645, Pitch_bend_c, 3, 5504
5, 13646, Pitch_bend_c, 3, 5888
5, 13648, Pitch_bend_c, 3, 6272
5, 13650, Pitch_bend_c, 3, 6656
5, 13651, Pitch_bend_c, 3, 7040
5, 13653, Pitch_bend_c, 3, 7424
5, 13655, Pitch_bend_c, 3, 7808
5, 13656, Pitch_bend_c, 3, 8192
5, 13800, Note_on_c, 3, 75, 0
5, 13800, Pitch_bend_c, 3, 16256
5, 13800, Note_on_c, 3, 73, 100
5, 13801, Pitch_bend_c, 3, 15872
5, 13803, Pitch_bend_c, 3, 15360
5, 13805, Pitch_bend_c, 3, 14976
5, 13806, Pitch_bend_c, 3, 14464
5, 13808, Pitch_bend_c, 3, 13952
5, 13810, Pitch_bend_c, 3, 13568
5, 13811, Pitch_bend_c, 3, 13056
5, 13813, Pitch_bend_c, 3, 12544
5, 13815, Pitch_bend_c, 3, 12160
5, 13816, Pitch_bend_c, 3, 11648
5, 13818, Pitch_bend_c, 3, 11136
5, 13820, Pitch_bend_c, 3, 10752
5, 13821, Pitch_bend_c, 3, 10240
5, 13823, Pitch_bend_c, 3, 9728
5, 13825, Pitch_bend_c, 3, 9344
5, 13826, Pitch_bend_c, 3, 8832
5, 13828, Pitch_bend_c, 3, 8320
5, 13860, Note_on_c, 3, 73, 0
5, 13860, Note_on_c, 3, 71, 100
5, 13920, Note_on_c, 3, 71, 0
5, 13920, Pitch_bend_c, 3, 128
5, 13920, Note_on_c, 3, 75, 100
5, 13921, Pitch_bend_c, 3, 256
5, 13923, Pitch_bend_c, 3, 512
5, 13925, Pitch_bend_c, 3, 640
5, 13926, Pitch_bend_c, 3, 896
5, 13928, Pitch_bend_c, 3, 1152
5, 13930, Pitch_bend_c, 3, 1280
5, 13931, Pitch_bend_c, 3, 1536
5, 13933, Pitch_bend_c, 3, 1792
5, 13935, Pitch_bend_c, 3, 1920
5, 13936, Pitch_bend_c, 3, 2176
5, 13938, Pitch_bend_c, 3, 2432
5, 13940, Pitch_bend_c, 3, 2560
5, 13941, Pitch_bend_c, 3, 2816
5, 13943, Pitch_bend_c, 3, 3072
5, 13945, Pitch_bend_c, 3, 3200
5, 13946, Pitch_bend_c, 3, 3456
5, 13948, Pitch_bend_c, 3, 3712
5, 13950, Pitch_bend_c, 3, 3840
5, 13951, Pitch_bend_c, 3, 4096
5, 13953, Pitch_bend_c, 3, 4352
5, 13955, Pitch_bend_c, 3, 4480
5, 13956, Pitch_bend_c, 3, 4736
5, 13958, Pitch_bend_c, 3, 4992
5, 13960, Pitch_bend_c, 3, 5120
5, 13961, Pitch_bend_c, 3, 5376
5, 13963, Pitch_bend_c, 3, 5632
5, 13965, Pitch_bend_c, 3, 5760
5, 13966, Pitch_bend_c, 3, 6016
5, 13968, Pitch_bend_c, 3, 6272
5, 13970, Pitch_bend_c, 3, 6400
5, 13971, Pitch_bend_c, 3, 6656
5, 13973, Pitch_bend_c, 3, 6912
5, 13975, Pitch_bend_c, 3, 7040
5, 13976, Pitch_bend_c, 3, 7296
5, 13978, Pitch_bend_c, 3, 7552
5, 13980, Pitch_bend_c, 3, 7680
5, 13981, Pitch_bend_c, 3, 7936
5, 13983, Pitch_bend_c, 3, 8192
5, 14000, Pitch_bend_c, 3, 8192
5, 14003, Pitch_bend_c, 3, 8448
5, 14006, Pitch_bend_c, 3, 8704
5, 14008, Pitch_bend_c, 3, 8960
5, 14010, Pitch_bend_c, 3, 9088
5, 14011, Pitch_bend_c, 3, 9216
5, 14013, Pitch_bend_c, 3, 8448
5, 14015, Pitch_bend_c, 3, 8192
5, 14025, Pitch_bend_c, 3, 8448
5, 14026, Pitch_bend_c, 3, 8576
5, 14028, Pitch_bend_c, 3, 9088
5, 14030, Pitch_bend_c, 3, 7040
5, 14033, Pitch_bend_c, 3, 7168
5, 14035, Pitch_bend_c, 3, 7424
5, 14036, Pitch_bend_c, 3, 7680
5, 14038, Pitch_bend_c, 3, 8064
5, 14040, Pitch_bend_c, 3, 8576
5, 14041, Pitch_bend_c, 3, 9088
5, 14043, Pitch_bend_c, 3, 9216
5, 14045, Pitch_bend_c, 3, 9344
5, 14046, Pitch_bend_c, 3, 7040
5, 14051, Pitch_bend_c, 3, 7296
5, 14053, Pitch_bend_c, 3, 7552
5, 14055, Pitch_bend_c, 3, 7936
5, 14056, Pitch_bend_c, 3, 8192
5, 14058, Pitch_bend_c, 3, 8704
5, 14060, Pitch_bend_c, 3, 8960
5, 14061, Pitch_bend_c, 3, 9472
5, 14063, Pitch_bend_c, 3, 6272
5, 14073, Pitch_bend_c, 3, 6528
5, 14075, Pitch_bend_c, 3, 6784
5, 14076, Pitch_bend_c, 3, 7040
5, 14078, Pitch_bend_c, 3, 7552
5, 14080, Pitch_bend_c, 3, 8064
5, 14081, Pitch_bend_c, 3, 8576
5, 14083, Pitch_bend_c, 3, 8832
5, 14085, Pitch_bend_c, 3, 9344
5, 14088, Pitch_bend_c, 3, 9472
5, 14091, Pitch_bend_c, 3, 9856
5, 14095, Pitch_bend_c, 3, 7040
5, 14098, Pitch_bend_c, 3, 7296
5, 14100, Pitch_bend_c, 3, 7552
5, 14101, Pitch_bend_c, 3, 7808
5, 14103, Pitch_bend_c, 3, 8064
5, 14105, Pitch_bend_c, 3, 8576
5, 14106, Pitch_bend_c, 3, 8704
5, 14108, Pitch_bend_c, 3, 9088
5, 14110, Pitch_bend_c, 3, 9216
5, 14111, Pitch_bend_c, 3, 9344
5, 14113, Pitch_bend_c, 3, 9600
5, 14116, Pitch_bend_c, 3, 9728
5, 14118, Pitch_bend_c, 3, 9856
5, 14120, Pitch_bend_c, 3, 9600
5, 14121, Pitch_bend_c, 3, 9088
5, 14123, Pitch_bend_c, 3, 8704
5, 14125, Pitch_bend_c, 3, 8448
5, 14126, Pitch_bend_c, 3, 8320
5, 14131, Pitch_bend_c, 3, 8064
5, 14133, Pitch_bend_c, 3, 8192
5, 14160, Note_on_c, 3, 75, 0
5, 14220, Pitch_bend_c, 3, 16128
5, 14220, Note_on_c, 3, 73, 100
5, 14241, Pitch_bend_c, 3, 16000
5, 14243, Pitch_bend_c, 3, 15872
5, 14245, Pitch_bend_c, 3, 15616
5, 14246, Pitch_bend_c, 3, 15488
5, 14248, Pitch_bend_c, 3, 15232
5, 14250, Pitch_bend_c, 3, 15104
5, 14251, Pitch_bend_c, 3, 14848
5, 14253, Pitch_bend_c, 3, 14592
5, 14256, Pitch_bend_c, 3, 14336
5, 14258, Pitch_bend_c, 3, 13824
5, 14260, Pitch_bend_c, 3, 13568
5, 14261, Pitch_bend_c, 3, 13312
5, 14263, Pitch_bend_c, 3, 13056
5, 14265, Pitch_bend_c, 3, 12800
5, 14266, Pitch_bend_c, 3, 12544
5, 14268, Pitch_bend_c, 3, 11264
5, 14270, Pitch_bend_c, 3, 10752
5, 14271, Pitch_bend_c, 3, 9216
5, 14281, Pitch_bend_c, 3, 9088
5, 14298, Pitch_bend_c, 3, 9216
5, 14303, Pitch_bend_c, 3, 9344
5, 14305, Pitch_bend_c, 3, 9472
5, 14308, Pitch_bend_c, 3, 9728
5, 14311, Pitch_bend_c, 3, 9856
5, 14313, Pitch_bend_c, 3, 9984
5, 14316, Pitch_bend_c, 3, 10240
5, 14318, Pitch_bend_c, 3, 10368
5, 14321, Pitch_bend_c, 3, 10496
5, 14325, Pitch_bend_c, 3, 10752
5, 14328, Pitch_bend_c, 3, 11008
5, 14331, Pitch_bend_c, 3, 11264
5, 14335, Pitch_bend_c, 3, 11392
5, 14336, Pitch_bend_c, 3, 11520
5, 14340, Pitch_bend_c, 3, 11648
5, 14341, Pitch_bend_c, 3, 11776
5, 14343, Pitch_bend_c, 3, 11904
5, 14345, Pitch_bend_c, 3, 12032
5, 14348, Pitch_bend_c, 3, 12288
5, 14350, Pitch_bend_c, 3, 12416
5, 14351, Pitch_bend_c, 3, 12544
5, 14355, Pitch_bend_c, 3, 12800
5, 14358, Pitch_bend_c, 3, 13056
5, 14360, Pitch_bend_c, 3, 13184
5, 14361, Pitch_bend_c, 3, 13568
5, 14363, Pitch_bend_c, 3, 13824
5, 14365, Pitch_bend_c, 3, 14080
5, 14366, Pitch_bend_c, 3, 14208
5, 14368, Pitch_bend_c, 3, 14592
5, 14370, Pitch_bend_c, 3, 14720
5, 14371, Pitch_bend_c, 3, 14976
5, 14373, Pitch_bend_c, 3, 15232
5, 14375, Pitch_bend_c, 3, 15488
5, 14376, Pitch_bend_c, 3, 15744
5, 14378, Pitch_bend_c, 3, 16000
5, 14380, Pitch_bend_c, 3, 16128
5, 14381, Pitch_bend_c, 3, 16256
5, 14383, Pitch_bend_c, 3, 16383
5, 14386, Pitch_bend_c, 3, 16000
5, 14391, Pitch_bend_c, 3, 16128
5, 14393, Pitch_bend_c, 3, 16256
5, 14395, Pitch_bend_c, 3, 16383
5, 14400, Note_on_c, 3, 73, 0
5, 14400, Note_on_c, 3, 73, 100
5, 14401, Pitch_bend_c, 3, 4352
5, 14408, Pitch_bend_c, 3, 4480
5, 14411, Pitch_bend_c, 3, 4608
5, 14413, Pitch_bend_c, 3, 4736
5, 14415, Pitch_bend_c, 3, 4864
5, 14418, Pitch_bend_c, 3, 5120
5, 14421, Pitch_bend_c, 3, 5248
5, 14423, Pitch_bend_c, 3, 5376
5, 14425, Pitch_bend_c, 3, 5632
5, 14428, Pitch_bend_c, 3, 5760
5, 14430, Pitch_bend_c, 3, 5888
5, 14431, Pitch_bend_c, 3, 6016
5, 14433, Pitch_bend_c, 3, 6144
5, 14438, Pitch_bend_c, 3, 6400
5, 14441, Pitch_bend_c, 3, 6656
5, 14443, Pitch_bend_c, 3, 6784
5, 14445, Pitch_bend_c, 3, 6912
5, 14448, Pitch_bend_c, 3, 7168
5, 14451, Pitch_bend_c, 3, 7424
5, 14455, Pitch_bend_c, 3, 7680
5, 14458, Pitch_bend_c, 3, 7936
5, 14460, Pitch_bend_c, 3, 8192
5, 14461, Pitch_bend_c, 3, 8448
5, 14465, Pitch_bend_c, 3, 8704
5, 14466, Pitch_bend_c, 3, 8960
5, 14468, Pitch_bend_c, 3, 9216
5, 14470, Pitch_bend_c, 3, 9472
5, 14471, Pitch_bend_c, 3, 9984
5, 14473, Pitch_bend_c, 3, 10240
5, 14475, Pitch_bend_c, 3, 10752
5, 14476, Pitch_bend_c, 3, 11008
5, 14478, Pitch_bend_c, 3, 12032
5, 14480, Pitch_bend_c, 3, 12160
5, 14481, Pitch_bend_c, 3, 12672
5, 14483, Pitch_bend_c, 3, 12928
5, 14485, Pitch_bend_c, 3, 13184
5, 14486, Pitch_bend_c, 3, 13440
5, 14488, Pitch_bend_c, 3, 13696
5, 14490, Pitch_bend_c, 3, 13952
5, 14491, Pitch_bend_c, 3, 14208
5, 14493, Pitch_bend_c, 3, 14464
5, 14495, Pitch_bend_c, 3, 14848
5, 14496, Pitch_bend_c, 3, 14976
5, 14498, Pitch_bend_c, 3, 15232
5, 14500, Pitch_bend_c, 3, 15360
5, 14501, Pitch_bend_c, 3, 15488
5, 14503, Pitch_bend_c, 3, 15744
5, 14506, Pitch_bend_c, 3, 16000
5, 14515, Pitch_bend_c, 3, 15744
5, 14516, Pitch_bend_c, 3, 15488
5, 14518, Pitch_bend_c, 3, 15232
5, 14520, Pitch_bend_c, 3, 14976
5, 14538, Pitch_bend_c, 3, 15232
5, 14540, Pitch_bend_c, 3, 15616
5, 14541, Pitch_bend_c, 3, 15488
5, 14561, Pitch_bend_c, 3, 15744
5, 14571, Pitch_bend_c, 3, 16256
5, 14590, Pitch_bend_c, 3, 14976
5, 14601, Pitch_bend_c, 3, 15232
5, 14603, Pitch_bend_c, 3, 15488
5, 14608, Pitch_bend_c, 3, 15616
5, 14610, Pitch_bend_c, 3, 15744
5, 14611, Pitch_bend_c, 3, 14848
5, 14613, Pitch_bend_c, 3, 14592
5, 14621, Pitch_bend_c, 3, 14848
5, 14623, Pitch_bend_c, 3, 16383
5, 14640, Note_on_c, 3, 73, 0
5, 14640, Pitch_bend_c, 3, 128
5, 14640, Note_on_c, 3, 75, 100
5, 14641, Pitch_bend_c, 3, 384
5, 14643, Pitch_bend_c, 3, 640
5, 14645, Pitch_bend_c, 3, 896
5, 14646, Pitch_bend_c, 3, 1152
5, 14648, Pitch_bend_c, 3, 1408
5, 14650, Pitch_bend_c, 3, 1664
5, 14651, Pitch_bend_c, 3, 1920
5, 14653, Pitch_bend_c, 3, 2176
5, 14655, Pitch_bend_c, 3, 2432
5, 14656, Pitch_bend_c, 3, 2816
5, 14658, Pitch_bend_c, 3, 3072
5, 14660, Pitch_bend_c, 3, 3328
5, 14661, Pitch_bend_c, 3, 3584
5, 14663, Pitch_bend_c, 3, 3840
5, 14665, Pitch_bend_c, 3, 4096
5, 14666, Pitch_bend_c, 3, 4352
5, 14668, Pitch_bend_c, 3, 4608
5, 14670, Pitch_bend_c, 3, 4864
5, 14671, Pitch_bend_c, 3, 5120
5, 14673, Pitch_bend_c, 3, 5504
5, 14675, Pitch_bend_c, 3, 5760
5, 14676, Pitch_bend_c, 3, 6016
5, 14678, Pitch_bend_c, 3, 6272
5, 14680, Pitch_bend_c, 3, 6528
5, 14681, Pitch_bend_c, 3, 6784
5, 14683, Pitch_bend_c, 3, 7040
5, 14685, Pitch_bend_c, 3, 7296
5, 14686, Pitch_bend_c, 3, 7552
5, 14688, Pitch_bend_c, 3, 7808
5, 14690, Pitch_bend_c, 3, 8192
5, 14760, Note_on_c, 3, 75, 0
5, 14760, Note_on_c, 3, 71, 100
5, 14820, Note_on_c, 3, 71, 0
5, 14820, Note_on_c, 3, 75, 100
5, 14880, Note_on_c, 3, 75, 0
5, 14880, Pitch_bend_c, 3, 0
5, 14880, Note_on_c, 3, 73, 100
5, 14881, Pitch_bend_c, 3, 384
5, 14883, Pitch_bend_c, 3, 768
5, 14885, Pitch_bend_c, 3, 1280
5, 14886, Pitch_bend_c, 3, 1664
5, 14888, Pitch_bend_c, 3, 2048
5, 14890, Pitch_bend_c, 3, 2560
5, 14891, Pitch_bend_c, 3, 2944
5, 14893, Pitch_bend_c, 3, 3328
5, 14895, Pitch_bend_c, 3, 3840
5, 14896, Pitch_bend_c, 3, 4224
5, 14898, Pitch_bend_c, 3, 4736
5, 14900, Pitch_bend_c, 3, 5120
5, 14901, Pitch_bend_c, 3, 5504
5, 14903, Pitch_bend_c, 3, 6016
5, 14905, Pitch_bend_c, 3, 6400
5, 14906, Pitch_bend_c, 3, 6784
5, 14908, Pitch_bend_c, 3, 7296
5, 14910, Pitch_bend_c, 3, 7680
5, 14911, Pitch_bend_c, 3, 8192
5, 14940, Note_on_c, 3, 73, 0
5, 14940, Note_on_c, 3, 69, 100
5, 14941, Pitch_bend_c, 3, 16256
5, 14965, Pitch_bend_c, 3, 16128
5, 14966, Pitch_bend_c, 3, 15872
5, 14968, Pitch_bend_c, 3, 15488
5, 14970, Pitch_bend_c, 3, 14848
5, 14971, Pitch_bend_c, 3, 13824
5, 14973, Pitch_bend_c, 3, 12544
5, 14975, Pitch_bend_c, 3, 11776
5, 14976, Pitch_bend_c, 3, 10752
5, 14978, Pitch_bend_c, 3, 10240
5, 14980, Pitch_bend_c, 3, 9472
5, 14981, Pitch_bend_c, 3, 8960
5, 14983, Pitch_bend_c, 3, 8448
5, 14985, Pitch_bend_c, 3, 7808
5, 14986, Pitch_bend_c, 3, 7168
5, 14988, Pitch_bend_c, 3, 6400
5, 14990, Pitch_bend_c, 3, 5632
5, 14991, Pitch_bend_c, 3, 4864
5, 14993, Pitch_bend_c, 3, 2304
5, 14995, Pitch_bend_c, 3, 1280
5, 14996, Pitch_bend_c, 3, 512
5, 14998, Pitch_bend_c, 3, 128
5, 15000, Note_on_c, 3, 69, 0
5, 15000, Note_on_c, 3, 59, 100
5, 15060, Note_on_c, 3, 59, 0
5, 15060, Pitch_bend_c, 3, 256
5, 15060, Note_on_c, 3, 63, 100
5, 15061, Pitch_bend_c, 3, 512
5, 15063, Pitch_bend_c, 3, 768
5, 15065, Pitch_bend_c, 3, 1024
5, 15066, Pitch_bend_c, 3, 1152
5, 15068, Pitch_bend_c, 3, 1408
5, 15070, Pitch_bend_c, 3, 1664
5, 15071, Pitch_bend_c, 3, 2432
5, 15073, Pitch_bend_c, 3, 2688
5, 15075, Pitch_bend_c, 3, 3200
5, 15076, Pitch_bend_c, 3, 3456
5, 15078, Pitch_bend_c, 3, 3968
5, 15080, Pitch_bend_c, 3, 5248
5, 15081, Pitch_bend_c, 3, 5888
5, 15083, Pitch_bend_c, 3, 6656
5, 15085, Pitch_bend_c, 3, 6912
5, 15086, Pitch_bend_c, 3, 7680
5, 15088, Pitch_bend_c, 3, 8192
5, 15120, Note_on_c, 3, 63, 0
5, 15120, Note_on_c, 3, 64, 100
5, 15180, Note_on_c, 3, 64, 0
5, 15180, Pitch_bend_c, 3, 0
5, 15180, Note_on_c, 3, 68, 100
5, 15181, Pitch_bend_c, 3, 256
5, 15183, Pitch_bend_c, 3, 512
5, 15185, Pitch_bend_c, 3, 768
5, 15186, Pitch_bend_c, 3, 1024
5, 15188, Pitch_bend_c, 3, 1280
5, 15190, Pitch_bend_c, 3, 1536
5, 15191, Pitch_bend_c, 3, 1792
5, 15193, Pitch_bend_c, 3, 2176
5, 15195, Pitch_bend_c, 3, 2432
5, 15196, Pitch_bend_c, 3, 2688
5, 15198, Pitch_bend_c, 3, 2944
5, 15200, Pitch_bend_c, 3, 3200
5, 15201, Pitch_bend_c, 3, 3456
5, 15203, Pitch_bend_c, 3, 3712
5, 15205, Pitch_bend_c, 3, 4096
5, 15206, Pitch_bend_c, 3, 4352
5, 15208, Pitch_bend_c, 3, 4608
5, 15210, Pitch_bend_c, 3, 4864
5, 15211, Pitch_bend_c, 3, 5120
5, 15213, Pitch_bend_c, 3, 5376
5, 15215, Pitch_bend_c, 3, 5632
5, 15216, Pitch_bend_c, 3, 5888
5, 15218, Pitch_bend_c, 3, 6272
5, 15220, Pitch_bend_c, 3, 6528
5, 15221, Pitch_bend_c, 3, 6784
5, 15223, Pitch_bend_c, 3, 7040
5, 15225, Pitch_bend_c, 3, 7296
5, 15226, Pitch_bend_c, 3, 7552
5, 15228, Pitch_bend_c, 3, 7808
5, 15230, Pitch_bend_c, 3, 8192
5, 15270, Note_on_c, 3, 68, 0
5, 15273, Note_on_c, 3, 68, 100
5, 15333, Note_on_c, 3, 68, 0
5, 15360, Note_on_c, 3, 73, 120
5, 15415, Pitch_bend_c, 3, 0
5, 15416, Pitch_bend_c, 3, 256
5, 15418, Pitch_bend_c, 3, 640
5, 15420, Note_on_c, 3, 73, 0
5, 15420, Pitch_bend_c, 3, 1024
5, 15420, Note_on_c, 3, 73, 100
5, 15421, Pitch_bend_c, 3, 1280
5, 15423, Pitch_bend_c, 3, 1664
5, 15425, Pitch_bend_c, 3, 2048
5, 15426, Pitch_bend_c, 3, 2304
5, 15428, Pitch_bend_c, 3, 2688
5, 15430, Pitch_bend_c, 3, 3072
5, 15431, Pitch_bend_c, 3, 3328
5, 15433, Pitch_bend_c, 3, 3712
5, 15435, Pitch_bend_c, 3, 4096
5, 15436, Pitch_bend_c, 3, 4352
5, 15438, Pitch_bend_c, 3, 4736
5, 15440, Pitch_bend_c, 3, 5120
5, 15441, Pitch_bend_c, 3, 5376
5, 15443, Pitch_bend_c, 3, 5760
5, 15445, Pitch_bend_c, 3, 6144
5, 15446, Pitch_bend_c, 3, 6400
5, 15448, Pitch_bend_c, 3, 6784
5, 15450, Pitch_bend_c, 3, 7168
5, 15451, Pitch_bend_c, 3, 7424
5, 15453, Pitch_bend_c, 3, 7808
5, 15455, Pitch_bend_c, 3, 8192
5, 15480, Note_on_c, 3, 73, 0
5, 15480, Note_on_c, 3, 73, 100
5, 15510, Note_on_c, 3, 73, 0
5, 15510, Note_on_c, 3, 71, 100
5, 15540, Note_on_c, 3, 71, 0
5, 15540, Note_on_c, 3, 68, 100
5, 15570, Note_on_c, 3, 68, 0
5, 15570, Pitch_bend_c, 3, 0
5, 15570, Note_on_c, 3, 68, 100
5, 15571, Pitch_bend_c, 3, 896
5, 15573, Pitch_bend_c, 3, 1792
5, 15575, Pitch_bend_c, 3, 2688
5, 15576, Pitch_bend_c, 3, 3584
5, 15578, Pitch_bend_c, 3, 4480
5, 15580, Pitch_bend_c, 3, 5376
5, 15581, Pitch_bend_c, 3, 6272
5, 15583, Pitch_bend_c, 3, 7168
5, 15585, Pitch_bend_c, 3, 8192
5, 15600, Note_on_c, 3, 68, 0
5, 15600, Note_on_c, 3, 68, 100
5, 15630, Note_on_c, 3, 68, 0
5, 15630, Note_on_c, 3, 73, 100
5, 15660, Note_on_c, 3, 73, 0
5, 15660, Note_on_c, 3, 71, 100
5, 15690, Note_on_c, 3, 71, 0
5, 15690, Note_on_c, 3, 68, 100
5, 15720, Note_on_c, 3, 68, 0
5, 15720, Note_on_c, 3, 67, 100
5, 15750, Note_on_c, 3, 67, 0
5, 15750, Note_on_c, 3, 66, 100
5, 15780, Note_on_c, 3, 66, 0
5, 15780, Note_on_c, 3, 68, 100
5, 15780, Note_on_c, 3, 64, 100
5, 15810, Note_on_c, 3, 64, 0
5, 15810, Note_on_c, 3, 68, 0
5, 15810, Note_on_c, 3, 61, 100
5, 15840, Note_on_c, 3, 61, 0
5, 15840, Pitch_bend_c, 3, 0
5, 15840, Note_on_c, 3, 68, 100
5, 15841, Pitch_bend_c, 3, 256
5, 15843, Pitch_bend_c, 3, 512
5, 15845, Pitch_bend_c, 3, 896
5, 15846, Pitch_bend_c, 3, 1152
5, 15848, Pitch_bend_c, 3, 1536
5, 15850, Pitch_bend_c, 3, 1792
5, 15851, Pitch_bend_c, 3, 2176
5, 15853, Pitch_bend_c, 3, 2432
5, 15855, Pitch_bend_c, 3, 2816
5, 15856, Pitch_bend_c, 3, 3072
5, 15858, Pitch_bend_c, 3, 3456
5, 15860, Pitch_bend_c, 3, 3712
5, 15861, Pitch_bend_c, 3, 4096
5, 15863, Pitch_bend_c, 3, 4352
5, 15865, Pitch_bend_c, 3, 4608
5, 15866, Pitch_bend_c, 3, 4992
5, 15868, Pitch_bend_c, 3, 5248
5, 15870, Pitch_bend_c, 3, 5632
5, 15871, Pitch_bend_c, 3, 5888
5, 15873, Pitch_bend_c, 3, 6272
5, 15875, Pitch_bend_c, 3, 6528
5, 15876, Pitch_bend_c, 3, 6912
5, 15878, Pitch_bend_c, 3, 7168
5, 15880, Pitch_bend_c, 3, 7552
5, 15881, Pitch_bend_c, 3, 7808
5, 15883, Pitch_bend_c, 3, 8192
5, 15886, Pitch_bend_c, 3, 8192
5, 15888, Pitch_bend_c, 3, 8320
5, 15890, Pitch_bend_c, 3, 8576
5, 15893, Pitch_bend_c, 3, 8960
5, 15895, Pitch_bend_c, 3, 9088
5, 15896, Pitch_bend_c, 3, 9344
5, 15898, Pitch_bend_c, 3, 9472
5, 15900, Note_on_c, 3, 68, 0
5, 15900, Pitch_bend_c, 3, 7168
5, 15900, Note_on_c, 3, 64, 100
5, 15905, Pitch_bend_c, 3, 7296
5, 15906, Pitch_bend_c, 3, 7808
5, 15908, Pitch_bend_c, 3, 9088
5, 15910, Pitch_bend_c, 3, 10112
5, 15911, Pitch_bend_c, 3, 10368
5, 15913, Pitch_bend_c, 3, 9600
5, 15915, Pitch_bend_c, 3, 7680
5, 15916, Pitch_bend_c, 3, 7168
5, 15918, Pitch_bend_c, 3, 6784
5, 15921, Pitch_bend_c, 3, 7040
5, 15923, Pitch_bend_c, 3, 7552
5, 15925, Pitch_bend_c, 3, 8832
5, 15926, Pitch_bend_c, 3, 9344
5, 15928, Pitch_bend_c, 3, 9600
5, 15930, Pitch_bend_c, 3, 9728
5, 15931, Pitch_bend_c, 3, 9856
5, 15933, Pitch_bend_c, 3, 9600
5, 15935, Pitch_bend_c, 3, 7680
5, 15936, Pitch_bend_c, 3, 7424
5, 15941, Pitch_bend_c, 3, 7552
5, 15943, Pitch_bend_c, 3, 9600
5, 15951, Pitch_bend_c, 3, 7552
5, 15960, Pitch_bend_c, 3, 7808
5, 15961, Pitch_bend_c, 3, 8192
5, 15968, Pitch_bend_c, 3, 8320
5, 15970, Pitch_bend_c, 3, 8704
5, 15971, Pitch_bend_c, 3, 10752
5, 15975, Pitch_bend_c, 3, 10880
5, 15976, Pitch_bend_c, 3, 10240
5, 15978, Pitch_bend_c, 3, 9472
5, 15980, Pitch_bend_c, 3, 8960
5, 15981, Pitch_bend_c, 3, 7936
5, 15983, Pitch_bend_c, 3, 6912
5, 15990, Pitch_bend_c, 3, 7424
5, 15991, Pitch_bend_c, 3, 9984
5, 15993, Pitch_bend_c, 3, 10496
5, 15995, Pitch_bend_c, 3, 10752
5, 15998, Pitch_bend_c, 3, 8704
5, 16000, Pitch_bend_c, 3, 7680
5, 16001, Pitch_bend_c, 3, 6912
5, 16006, Pitch_bend_c, 3, 7168
5, 16008, Pitch_bend_c, 3, 7680
5, 16010, Pitch_bend_c, 3, 8448
5, 16011, Pitch_bend_c, 3, 9728
5, 16013, Pitch_bend_c, 3, 9984
5, 16015, Pitch_bend_c, 3, 10496
5, 16018, Pitch_bend_c, 3, 7424
5, 16020, Pitch_bend_c, 3, 7168
5, 16028, Pitch_bend_c, 3, 7680
5, 16030, Pitch_bend_c, 3, 8704
5, 16031, Pitch_bend_c, 3, 9216
5, 16038, Pitch_bend_c, 3, 9344
5, 16040, Pitch_bend_c, 3, 7680
5, 16046, Pitch_bend_c, 3, 8704
5, 16048, Pitch_bend_c, 3, 9216
5, 16053, Pitch_bend_c, 3, 9344
5, 16055, Pitch_bend_c, 3, 9472
5, 16056, Pitch_bend_c, 3, 7680
5, 16058, Pitch_bend_c, 3, 7296
5, 16060, Pitch_bend_c, 3, 7168
5, 16061, Pitch_bend_c, 3, 7040
5, 16063, Pitch_bend_c, 3, 6912
5, 16070, Pitch_bend_c, 3, 7936
5, 16071, Pitch_bend_c, 3, 8192
5, 16170, Note_on_c, 3, 64, 0
5, 16170, Note_on_c, 3, 73, 100
5, 16200, Note_on_c, 3, 73, 0
5, 16200, Note_on_c, 3, 61, 100
5, 16260, Note_on_c, 3, 61, 0
5, 16260, Note_on_c, 3, 61, 80
5, 16290, Note_on_c, 3, 61, 0
5, 16290, Note_on_c, 3, 61, 70
5, 16305, Note_on_c, 3, 61, 0
5, 16305, Note_on_c, 3, 61, 60
5, 16320, Note_on_c, 3, 61, 0
5, 16335, Note_on_c, 3, 61, 90
5, 16335, Note_on_c, 3, 61, 30
5, 16350, Note_on_c, 3, 61, 0
5, 16575, Note_on_c, 3, 61, 0
5, 16980, Pitch_bend_c, 3, 0
5, 16980, Note_on_c, 3, 56, 100
5, 16981, Pitch_bend_c, 3, 128
5, 16982, Pitch_bend_c, 3, 256
5, 16983, Pitch_bend_c, 3, 512
5, 16984, Pitch_bend_c, 3, 640
5, 16985, Pitch_bend_c, 3, 896
5, 16986, Pitch_bend_c, 3, 1024
5, 16987, Pitch_bend_c, 3, 1280
5, 16988, Pitch_bend_c, 3, 1408
5, 16989, Pitch_bend_c, 3, 1664
5, 16990, Pitch_bend_c, 3, 1792
5, 16991, Pitch_bend_c, 3, 2048
5, 16992, Pitch_bend_c, 3, 2176
5, 16993, Pitch_bend_c, 3, 2304
5, 16994, Pitch_bend_c, 3, 2560
5, 16995, Pitch_bend_c, 3, 2688
5, 16996, Pitch_bend_c, 3, 2944
5, 16997, Pitch_bend_c, 3, 3072
5, 16998, Pitch_bend_c, 3, 3328
5, 16999, Pitch_bend_c, 3, 3456
5, 17000, Pitch_bend_c, 3, 3712
5, 17001, Pitch_bend_c, 3, 3840
5, 17002, Pitch_bend_c, 3, 4096
5, 17003, Pitch_bend_c, 3, 4224
5, 17004, Pitch_bend_c, 3, 4352
5, 17005, Pitch_bend_c, 3, 4608
5, 17006, Pitch_bend_c, 3, 4736
5, 17007, Pitch_bend_c, 3, 4992
5, 17008, Pitch_bend_c, 3, 5120
5, 17009, Pitch_bend_c, 3, 5376
5, 17010, Pitch_bend_c, 3, 5504
5, 17011, Pitch_bend_c, 3, 5760
5, 17012, Pitch_bend_c, 3, 5888
5, 17013, Pitch_bend_c, 3, 6144
5, 17014, Pitch_bend_c, 3, 6272
5, 17015, Pitch_bend_c, 3, 6400
5, 17016, Pitch_bend_c, 3, 6656
5, 17017, Pitch_bend_c, 3, 6784
5, 17018, Pitch_bend_c, 3, 7040
5, 17019, Pitch_bend_c, 3, 7168
5, 17020, Pitch_bend_c, 3, 7424
5, 17021, Pitch_bend_c, 3, 7552
5, 17022, Pitch_bend_c, 3, 7808
5, 17023, Pitch_bend_c, 3, 7936
5, 17024, Pitch_bend_c, 3, 8192
5, 17040, Note_on_c, 3, 56, 0
5, 17040, Note_on_c, 3, 59, 100
5, 17089, Pitch_bend_c, 3, 8320
5, 17091, Pitch_bend_c, 3, 8448
5, 17094, Pitch_bend_c, 3, 8704
5, 17096, Pitch_bend_c, 3, 8960
5, 17097, Pitch_bend_c, 3, 9088
5, 17098, Pitch_bend_c, 3, 9216
5, 17099, Pitch_bend_c, 3, 9472
5, 17100, Pitch_bend_c, 3, 9600
5, 17101, Pitch_bend_c, 3, 9728
5, 17102, Pitch_bend_c, 3, 9984
5, 17104, Pitch_bend_c, 3, 10240
5, 17105, Pitch_bend_c, 3, 10496
5, 17107, Pitch_bend_c, 3, 10752
5, 17108, Pitch_bend_c, 3, 11008
5, 17109, Pitch_bend_c, 3, 11264
5, 17110, Pitch_bend_c, 3, 11520
5, 17111, Pitch_bend_c, 3, 11776
5, 17112, Pitch_bend_c, 3, 12288
5, 17113, Pitch_bend_c, 3, 12544
5, 17114, Pitch_bend_c, 3, 12800
5, 17115, Pitch_bend_c, 3, 13312
5, 17116, Pitch_bend_c, 3, 13824
5, 17117, Pitch_bend_c, 3, 14336
5, 17118, Pitch_bend_c, 3, 15104
5, 17119, Pitch_bend_c, 3, 15744
5, 17120, Pitch_bend_c, 3, 16128
5, 17128, Pitch_bend_c, 3, 16256
5, 17137, Pitch_bend_c, 3, 16383
5, 17166, Pitch_bend_c, 3, 16128
5, 17167, Pitch_bend_c, 3, 16000
5, 17168, Pitch_bend_c, 3, 15872
5, 17169, Pitch_bend_c, 3, 15744
5, 17170, Pitch_bend_c, 3, 15360
5, 17171, Pitch_bend_c, 3, 15104
5, 17172, Pitch_bend_c, 3, 14592
5, 17173, Pitch_bend_c, 3, 14080
5, 17174, Pitch_bend_c, 3, 13056
5, 17175, Pitch_bend_c, 3, 12544
5, 17176, Pitch_bend_c, 3, 10752
5, 17177, Pitch_bend_c, 3, 9984
5, 17178, Pitch_bend_c, 3, 9472
5, 17179, Pitch_bend_c, 3, 8960
5, 17180, Pitch_bend_c, 3, 8448
5, 17188, Pitch_bend_c, 3, 8192
5, 17280, Note_on_c, 3, 59, 0
5, 17280, Note_on_c, 3, 52, 100
5, 17400, Note_on_c, 3, 52, 0
5, 17400, Note_on_c, 3, 59, 100
5, 17400, Note_on_c, 3, 64, 100
5, 17420, Note_on_c, 3, 64, 0
5, 17420, Note_on_c, 3, 59, 0
5, 17420, Note_on_c, 3, 66, 100
5, 17440, Note_on_c, 3, 66, 0
5, 17440, Note_on_c, 3, 64, 100
5, 17460, Note_on_c, 3, 64, 0
5, 17460, Note_on_c, 3, 59, 100
5, 17520, Note_on_c, 3, 59, 0
5, 17940, Note_on_c, 3, 47, 100
5, 17970, Note_on_c, 3, 47, 0
5, 17970, Note_on_c, 3, 49, 100
5, 18000, Note_on_c, 3, 49, 0
5, 18000, Note_on_c, 3, 52, 100
5, 18060, Note_on_c, 3, 52, 0
5, 18060, Pitch_bend_c, 3, 128
5, 18060, Note_on_c, 3, 61, 100
5, 18062, Pitch_bend_c, 3, 256
5, 18068, Pitch_bend_c, 3, 384
5, 18074, Pitch_bend_c, 3, 512
5, 18078, Pitch_bend_c, 3, 768
5, 18080, Pitch_bend_c, 3, 896
5, 18082, Pitch_bend_c, 3, 1024
5, 18084, Pitch_bend_c, 3, 1280
5, 18085, Pitch_bend_c, 3, 1536
5, 18086, Pitch_bend_c, 3, 1792
5, 18087, Pitch_bend_c, 3, 2048
5, 18088, Pitch_bend_c, 3, 2560
5, 18089, Pitch_bend_c, 3, 3584
5, 18090, Pitch_bend_c, 3, 5760
5, 18091, Pitch_bend_c, 3, 6272
5, 18092, Pitch_bend_c, 3, 6528
5, 18093, Pitch_bend_c, 3, 6784
5, 18094, Pitch_bend_c, 3, 7040
5, 18095, Pitch_bend_c, 3, 7168
5, 18096, Pitch_bend_c, 3, 7296
5, 18097, Pitch_bend_c, 3, 7552
5, 18099, Pitch_bend_c, 3, 7680
5, 18100, Pitch_bend_c, 3, 7808
5, 18101, Pitch_bend_c, 3, 8064
5, 18106, Pitch_bend_c, 3, 8192
5, 18120, Note_on_c, 3, 61, 0
5, 18120, Note_on_c, 3, 59, 100
5, 18180, Note_on_c, 3, 59, 0
5, 18180, Note_on_c, 3, 55, 100
5, 18240, Note_on_c, 3, 55, 0
5, 18300, Note_on_c, 3, 56, 100
5, 18360, Note_on_c, 3, 56, 0
5, 18360, Note_on_c, 3, 64, 100
5, 18380, Note_on_c, 3, 64, 0
5, 18380, Note_on_c, 3, 66, 100
5, 18400, Note_on_c, 3, 66, 0
5, 18400, Note_on_c, 3, 64, 100
5, 18420, Note_on_c, 3, 64, 0
5, 18420, Note_on_c, 3, 59, 100
5, 18480, Note_on_c, 3, 59, 0
5, 18600, Note_on_c, 3, 59, 100
5, 18660, Note_on_c, 3, 59, 0
5, 18660, Note_on_c, 3, 54, 100
5, 18720, Note_on_c, 3, 54, 0
5, 18780, Note_on_c, 3, 64, 100
5, 18840, Note_on_c, 3, 64, 0
5, 18840, Note_on_c, 3, 61, 100
5, 18900, Note_on_c, 3, 61, 0
5, 18904, Pitch_bend_c, 3, 128
5, 18904, Note_on_c, 3, 56, 100
5, 18916, Pitch_bend_c, 3, 256
5, 18918, Pitch_bend_c, 3, 384
5, 18921, Pitch_bend_c, 3, 512
5, 18923, Pitch_bend_c, 3, 640
5, 18927, Pitch_bend_c, 3, 768
5, 18929, Pitch_bend_c, 3, 896
5, 18931, Pitch_bend_c, 3, 1024
5, 18932, Pitch_bend_c, 3, 1280
5, 18933, Pitch_bend_c, 3, 1408
5, 18934, Pitch_bend_c, 3, 1664
5, 18936, Pitch_bend_c, 3, 1920
5, 18938, Pitch_bend_c, 3, 2176
5, 18939, Pitch_bend_c, 3, 2432
5, 18940, Pitch_bend_c, 3, 2688
5, 18941, Pitch_bend_c, 3, 2816
5, 18942, Pitch_bend_c, 3, 2944
5, 18943, Pitch_bend_c, 3, 3200
5, 18944, Pitch_bend_c, 3, 3328
5, 18945, Pitch_bend_c, 3, 3456
5, 18946, Pitch_bend_c, 3, 3712
5, 18947, Pitch_bend_c, 3, 3968
5, 18948, Pitch_bend_c, 3, 4224
5, 18949, Pitch_bend_c, 3, 4480
5, 18950, Pitch_bend_c, 3, 4736
5, 18951, Pitch_bend_c, 3, 4992
5, 18952, Pitch_bend_c, 3, 5248
5, 18953, Pitch_bend_c, 3, 5504
5, 18954, Pitch_bend_c, 3, 5760
5, 18955, Pitch_bend_c, 3, 6144
5, 18956, Pitch_bend_c, 3, 6528
5, 18957, Pitch_bend_c, 3, 6784
5, 18958, Pitch_bend_c, 3, 7552
5, 18959, Pitch_bend_c, 3, 8192
5, 19020, Note_on_c, 3, 59, 100
5, 19024, Note_on_c, 3, 56, 0
5, 19040, Note_on_c, 3, 59, 0
5, 19040, Note_on_c, 3, 61, 100
5, 19060, Note_on_c, 3, 61, 0
5, 19060, Note_on_c, 3, 59, 100
5, 19080, Note_on_c, 3, 59, 0
5, 19080, Note_on_c, 3, 54, 100
5, 19107, Note_on_c, 3, 56, 100
5, 19110, Note_on_c, 3, 54, 0
5, 19137, Note_on_c, 3, 56, 0
5, 19141, Note_on_c, 3, 59, 100
5, 19201, Note_on_c, 3, 59, 0
5, 19650, Note_on_c, 3, 49, 100
5, 19680, Note_on_c, 3, 49, 0
5, 19680, Pitch_bend_c, 3, 128
5, 19680, Note_on_c, 3, 54, 100
5, 19682, Pitch_bend_c, 3, 256
5, 19683, Pitch_bend_c, 3, 384
5, 19685, Pitch_bend_c, 3, 512
5, 19686, Pitch_bend_c, 3, 640
5, 19688, Pitch_bend_c, 3, 768
5, 19689, Pitch_bend_c, 3, 896
5, 19691, Pitch_bend_c, 3, 1024
5, 19692, Pitch_bend_c, 3, 1152
5, 19694, Pitch_bend_c, 3, 1280
5, 19695, Pitch_bend_c, 3, 1408
5, 19697, Pitch_bend_c, 3, 1536
5, 19698, Pitch_bend_c, 3, 1664
5, 19700, Pitch_bend_c, 3, 1792
5, 19701, Pitch_bend_c, 3, 1920
5, 19703, Pitch_bend_c, 3, 2048
5, 19704, Pitch_bend_c, 3, 2176
5, 19706, Pitch_bend_c, 3, 2304
5, 19707, Pitch_bend_c, 3, 2432
5, 19709, Pitch_bend_c, 3, 2560
5, 19710, Pitch_bend_c, 3, 2688
5, 19711, Pitch_bend_c, 3, 2816
5, 19713, Pitch_bend_c, 3, 2944
5, 19714, Pitch_bend_c, 3, 3072
5, 19716, Pitch_bend_c, 3, 3200
5, 19717, Pitch_bend_c, 3, 3328
5, 19719, Pitch_bend_c, 3, 3456
5, 19720, Pitch_bend_c, 3, 3584
5, 19722, Pitch_bend_c, 3, 3712
5, 19723, Pitch_bend_c, 3, 3840
5, 19725, Pitch_bend_c, 3, 3968
5, 19726, Pitch_bend_c, 3, 4096
5, 19728, Pitch_bend_c, 3, 4224
5, 19729, Pitch_bend_c, 3, 4352
5, 19731, Pitch_bend_c, 3, 4480
5, 19732, Pitch_bend_c, 3, 4608
5, 19734, Pitch_bend_c, 3, 4736
5, 19735, Pitch_bend_c, 3, 4864
5, 19737, Pitch_bend_c, 3, 4992
5, 19738, Pitch_bend_c, 3, 5120
5, 19740, Pitch_bend_c, 3, 5248
5, 19741, Pitch_bend_c, 3, 5376
5, 19742, Pitch_bend_c, 3, 5504
5, 19744, Pitch_bend_c, 3, 5632
5, 19745, Pitch_bend_c, 3, 5760
5, 19747, Pitch_bend_c, 3, 5888
5, 19748, Pitch_bend_c, 3, 6016
5, 19750, Pitch_bend_c, 3, 6144
5, 19751, Pitch_bend_c, 3, 6272
5, 19753, Pitch_bend_c, 3, 6400
5, 19754, Pitch_bend_c, 3, 6528
5, 19756, Pitch_bend_c, 3, 6656
5, 19757, Pitch_bend_c, 3, 6784
5, 19759, Pitch_bend_c, 3, 6912
5, 19760, Pitch_bend_c, 3, 7040
5, 19762, Pitch_bend_c, 3, 7168
5, 19763, Pitch_bend_c, 3, 7296
5, 19765, Pitch_bend_c, 3, 7424
5, 19766, Pitch_bend_c, 3, 7552
5, 19768, Pitch_bend_c, 3, 7680
5, 19769, Pitch_bend_c, 3, 7808
5, 19771, Pitch_bend_c, 3, 7936
5, 19772, Pitch_bend_c, 3, 8064
5, 19773, Pitch_bend_c, 3, 8192
5, 20040, Note_on_c, 3, 54, 0
5, 20040, Note_on_c, 3, 52, 100
5, 20100, Note_on_c, 3, 52, 0
5, 20100, Note_on_c, 3, 47, 100
5, 20160, Note_on_c, 3, 47, 0
5, 20820, Note_on_c, 3, 66, 100
5, 20850, Note_on_c, 3, 66, 0
5, 20850, Note_on_c, 3, 64, 100
5, 20880, Note_on_c, 3, 64, 0
5, 20880, Note_on_c, 3, 61, 100
5, 20940, Note_on_c, 3, 61, 0
5, 20940, Note_on_c, 3, 54, 100
5, 20970, Note_on_c, 3, 54, 0
5, 20970, Note_on_c, 3, 56, 100
5, 21000, Note_on_c, 3, 56, 0
5, 21000, Note_on_c, 3, 59, 100
5, 21000, Note_on_c, 3, 64, 100
5, 21060, Note_on_c, 3, 64, 0
5, 21060, Note_on_c, 3, 59, 0
5, 21060, Pitch_bend_c, 3, 8320
5, 21060, Note_on_c, 3, 56, 100
5, 21061, Pitch_bend_c, 3, 7680
5, 21062, Pitch_bend_c, 3, 6912
5, 21063, Pitch_bend_c, 3, 6144
5, 21064, Pitch_bend_c, 3, 5376
5, 21065, Pitch_bend_c, 3, 4608
5, 21066, Pitch_bend_c, 3, 3968
5, 21067, Pitch_bend_c, 3, 3200
5, 21068, Pitch_bend_c, 3, 2432
5, 21069, Pitch_bend_c, 3, 1664
5, 21070, Pitch_bend_c, 3, 896
5, 21071, Pitch_bend_c, 3, 128
5, 21090, Note_on_c, 3, 56, 0
5, 21110, Pitch_bend_c, 3, 8192
5, 21120, Note_on_c, 3, 49, 100
5, 21240, Note_on_c, 3, 49, 0
5, 21240, Note_on_c, 3, 64, 100
5, 21240, Note_on_c, 3, 56, 100
5, 21360, Note_on_c, 3, 56, 0
5, 21360, Note_on_c, 3, 64, 0
5, 21360, Note_on_c, 3, 47, 100
5, 21420, Note_on_c, 3, 47, 0
5, 21420, Note_on_c, 3, 59, 100
5, 21420, Note_on_c, 3, 54, 100
5, 21540, Note_on_c, 3, 54, 0
5, 21540, Note_on_c, 3, 59, 0
5, 21540, Note_on_c, 3, 45, 100
5, 21600, Note_on_c, 3, 45, 0
5, 21600, Note_on_c, 3, 57, 100
5, 21600, Note_on_c, 3, 52, 100
5, 21660, Note_on_c, 3, 52, 0
5, 21660, Note_on_c, 3, 57, 0
5, 21660, Note_on_c, 3, 47, 100
5, 21690, Note_on_c, 3, 47, 0
5, 21690, Note_on_c, 3, 49, 100
5, 21720, Note_on_c, 3, 49, 0
5, 21720, Note_on_c, 3, 52, 100
5, 21780, Note_on_c, 3, 52, 0
5, 21780, Note_on_c, 3, 54, 100
5, 21810, Note_on_c, 3, 54, 0
5, 21810, Note_on_c, 3, 56, 100
5, 21840, Note_on_c, 3, 56, 0
5, 21840, Note_on_c, 3, 59, 100
5, 21900, Note_on_c, 3, 59, 0
5, 21900, Note_on_c, 3, 64, 100
5, 21900, Note_on_c, 3, 59, 100
5, 21904, Pitch_bend_c, 3, 8192
5, 21910, Pitch_bend_c, 3, 8320
5, 21914, Pitch_bend_c, 3, 8448
5, 21916, Pitch_bend_c, 3, 8576
5, 21917, Pitch_bend_c, 3, 8704
5, 21918, Pitch_bend_c, 3, 8832
5, 21919, Pitch_bend_c, 3, 8960
5, 21920, Pitch_bend_c, 3, 9216
5, 21921, Pitch_bend_c, 3, 9472
5, 21922, Pitch_bend_c, 3, 9728
5, 21923, Pitch_bend_c, 3, 10496
5, 21924, Pitch_bend_c, 3, 12800
5, 21925, Pitch_bend_c, 3, 14208
5, 21926, Pitch_bend_c, 3, 14720
5, 21927, Pitch_bend_c, 3, 14976
5, 21928, Pitch_bend_c, 3, 15104
5, 21929, Pitch_bend_c, 3, 15488
5, 21930, Pitch_bend_c, 3, 15744
5, 21931, Pitch_bend_c, 3, 16000
5, 21933, Pitch_bend_c, 3, 16128
5, 21934, Pitch_bend_c, 3, 16256
5, 21935, Pitch_bend_c, 3, 16383
5, 21942, Pitch_bend_c, 3, 16256
5, 21943, Pitch_bend_c, 3, 15488
5, 21944, Pitch_bend_c, 3, 14976
5, 21945, Pitch_bend_c, 3, 14464
5, 21946, Pitch_bend_c, 3, 13952
5, 21947, Pitch_bend_c, 3, 13440
5, 21948, Pitch_bend_c, 3, 12928
5, 21949, Pitch_bend_c, 3, 12416
5, 21950, Pitch_bend_c, 3, 11904
5, 21951, Pitch_bend_c, 3, 11136
5, 21952, Pitch_bend_c, 3, 10880
5, 21953, Pitch_bend_c, 3, 10368
5, 21954, Pitch_bend_c, 3, 9856
5, 21955, Pitch_bend_c, 3, 9344
5, 21956, Pitch_bend_c, 3, 8832
5, 21957, Pitch_bend_c, 3, 8576
5, 21958, Pitch_bend_c, 3, 8320
5, 21963, Pitch_bend_c, 3, 8192
5, 21964, Pitch_bend_c, 3, 8064
5, 21969, Pitch_bend_c, 3, 8192
5, 22080, Note_on_c, 3, 59, 0
5, 22080, Note_on_c, 3, 64, 0
5, 22080, Note_on_c, 3, 49, 100
5, 22140, Note_on_c, 3, 49, 0
5, 22140, Note_on_c, 3, 52, 100
5, 22200, Note_on_c, 3, 52, 0
5, 22200, Note_on_c, 3, 64, 100
5, 22320, Note_on_c, 3, 64, 0
5, 22320, Note_on_c, 3, 63, 100
5, 22440, Note_on_c, 3, 63, 0
5, 22440, Note_on_c, 3, 59, 100
5, 22500, Note_on_c, 3, 59, 0
5, 22500, Note_on_c, 3, 52, 100
5, 22560, Note_on_c, 3, 52, 0
5, 22560, Note_on_c, 3, 73, 100
5, 22560, Note_on_c, 3, 64, 100
5, 22590, Note_on_c, 3, 64, 0
5, 22590, Note_on_c, 3, 73, 0
5, 22590, Note_on_c, 3, 66, 100
5, 22620, Note_on_c, 3, 66, 0
5, 22620, Note_on_c, 3, 64, 100
5, 22680, Note_on_c, 3, 64, 0
5, 22680, Note_on_c, 3, 59, 100
5, 22740, Note_on_c, 3, 59, 0
5, 22740, Note_on_c, 3, 61, 100
5, 22770, Note_on_c, 3, 61, 0
5, 22800, Note_on_c, 3, 57, 100
5, 22860, Note_on_c, 3, 57, 0
5, 22860, Pitch_bend_c, 3, 256
5, 22860, Note_on_c, 3, 56, 100
5, 22861, Pitch_bend_c, 3, 384
5, 22862, Pitch_bend_c, 3, 512
5, 22863, Pitch_bend_c, 3, 768
5, 22864, Pitch_bend_c, 3, 896
5, 22865, Pitch_bend_c, 3, 1024
5, 22866, Pitch_bend_c, 3, 1280
5, 22867, Pitch_bend_c, 3, 1408
5, 22868, Pitch_bend_c, 3, 1536
5, 22869, Pitch_bend_c, 3, 1792
5, 22870, Pitch_bend_c, 3, 1920
5, 22871, Pitch_bend_c, 3, 2048
5, 22872, Pitch_bend_c, 3, 2304
5, 22873, Pitch_bend_c, 3, 2432
5, 22874, Pitch_bend_c, 3, 2560
5, 22875, Pitch_bend_c, 3, 2816
5, 22876, Pitch_bend_c, 3, 2944
5, 22877, Pitch_bend_c, 3, 3072
5, 22878, Pitch_bend_c, 3, 3328
5, 22879, Pitch_bend_c, 3, 3456
5, 22880, Pitch_bend_c, 3, 3584
5, 22881, Pitch_bend_c, 3, 3840
5, 22882, Pitch_bend_c, 3, 3968
5, 22883, Pitch_bend_c, 3, 4224
5, 22884, Pitch_bend_c, 3, 4352
5, 22885, Pitch_bend_c, 3, 4480
5, 22886, Pitch_bend_c, 3, 4736
5, 22887, Pitch_bend_c, 3, 4864
5, 22888, Pitch_bend_c, 3, 4992
5, 22889, Pitch_bend_c, 3, 5248
5, 22890, Pitch_bend_c, 3, 5376
5, 22891, Pitch_bend_c, 3, 5504
5, 22892, Pitch_bend_c, 3, 5760
5, 22893, Pitch_bend_c, 3, 5888
5, 22894, Pitch_bend_c, 3, 6016
5, 22895, Pitch_bend_c, 3, 6272
5, 22896, Pitch_bend_c, 3, 6400
5, 22897, Pitch_bend_c, 3, 6528
5, 22898, Pitch_bend_c, 3, 6784
5, 22899, Pitch_bend_c, 3, 6912
5, 22900, Pitch_bend_c, 3, 7040
5, 22901, Pitch_bend_c, 3, 7296
5, 22902, Pitch_bend_c, 3, 7424
5, 22903, Pitch_bend_c, 3, 7552
5, 22904, Pitch_bend_c, 3, 7808
5, 22905, Pitch_bend_c, 3, 7936
5, 22906, Pitch_bend_c, 3, 8192
5, 22920, Note_on_c, 3, 56, 0
5, 22920, Note_on_c, 3, 59, 100
5, 22940, Note_on_c, 3, 59, 0
5, 22940, Note_on_c, 3, 61, 100
5, 22960, Note_on_c, 3, 61, 0
5, 22960, Note_on_c, 3, 59, 100
5, 22980, Note_on_c, 3, 59, 0
5, 22980, Note_on_c, 3, 56, 100
5, 23040, Note_on_c, 3, 56, 0
5, 23040, Note_on_c, 3, 64, 100
5, 23055, Note_on_c, 3, 64, 0
5, 23055, Note_on_c, 3, 66, 100
5, 23070, Note_on_c, 3, 66, 0
5, 23070, Note_on_c, 3, 64, 100
5, 23100, Note_on_c, 3, 64, 0
5, 23100, Note_on_c, 3, 59, 100
5, 23160, Note_on_c, 3, 59, 0
5, 23700, Pitch_bend_c, 3, 0
5, 23700, Note_on_c, 3, 56, 100
5, 23701, Pitch_bend_c, 3, 128
5, 23702, Pitch_bend_c, 3, 384
5, 23703, Pitch_bend_c, 3, 512
5, 23704, Pitch_bend_c, 3, 768
5, 23705, Pitch_bend_c, 3, 896
5, 23706, Pitch_bend_c, 3, 1152
5, 23707, Pitch_bend_c, 3, 1280
5, 23708, Pitch_bend_c, 3, 1536
5, 23709, Pitch_bend_c, 3, 1664
5, 23710, Pitch_bend_c, 3, 1920
5, 23711, Pitch_bend_c, 3, 2048
5, 23712, Pitch_bend_c, 3, 2304
5, 23713, Pitch_bend_c, 3, 2432
5, 23714, Pitch_bend_c, 3, 2688
5, 23715, Pitch_bend_c, 3, 2816
5, 23716, Pitch_bend_c, 3, 3072
5, 23717, Pitch_bend_c, 3, 3200
5, 23718, Pitch_bend_c, 3, 3456
5, 23719, Pitch_bend_c, 3, 3584
5, 23720, Pitch_bend_c, 3, 3840
5, 23721, Pitch_bend_c, 3, 4096
5, 23722, Pitch_bend_c, 3, 4224
5, 23723, Pitch_bend_c, 3, 4480
5, 23724, Pitch_bend_c, 3, 4608
5, 23725, Pitch_bend_c, 3, 4864
5, 23726, Pitch_bend_c, 3, 4992
5, 23727, Pitch_bend_c, 3, 5248
5, 23728, Pitch_bend_c, 3, 5376
5, 23729, Pitch_bend_c, 3, 5632
5, 23730, Pitch_bend_c, 3, 5760
5, 23731, Pitch_bend_c, 3, 6016
5, 23732, Pitch_bend_c, 3, 6144
5, 23733, Pitch_bend_c, 3, 6400
5, 23734, Pitch_bend_c, 3, 6528
5, 23735, Pitch_bend_c, 3, 6784
5, 23736, Pitch_bend_c, 3, 6912
5, 23737, Pitch_bend_c, 3, 7168
5, 23738, Pitch_bend_c, 3, 7296
5, 23739, Pitch_bend_c, 3, 7552
5, 23740, Pitch_bend_c, 3, 7680
5, 23741, Pitch_bend_c, 3, 7936
5, 23742, Pitch_bend_c, 3, 8192
5, 23760, Note_on_c, 3, 56, 0
5, 23760, Note_on_c, 3, 59, 100
5, 23820, Note_on_c, 3, 59, 0
5, 23820, Note_on_c, 3, 61, 100
5, 23880, Note_on_c, 3, 61, 0
5, 23880, Note_on_c, 3, 59, 100
5, 23940, Note_on_c, 3, 59, 0
5, 23940, Note_on_c, 3, 59, 100
5, 24000, Note_on_c, 3, 59, 0
5, 24000, Note_on_c, 3, 64, 100
5, 24000, Pitch_bend_c, 3, 0
5, 24001, Pitch_bend_c, 3, 512
5, 24002, Pitch_bend_c, 3, 1024
5, 24003, Pitch_bend_c, 3, 1536
5, 24004, Pitch_bend_c, 3, 2048
5, 24005, Pitch_bend_c, 3, 2560
5, 24006, Pitch_bend_c, 3, 3072
5, 24007, Pitch_bend_c, 3, 3584
5, 24008, Pitch_bend_c, 3, 4096
5, 24009, Pitch_bend_c, 3, 4608
5, 24010, Pitch_bend_c, 3, 5120
5, 24011, Pitch_bend_c, 3, 5632
5, 24012, Pitch_bend_c, 3, 6144
5, 24013, Pitch_bend_c, 3, 6656
5, 24014, Pitch_bend_c, 3, 7168
5, 24015, Pitch_bend_c, 3, 7680
5, 24016, Pitch_bend_c, 3, 8192
5, 24030, Note_on_c, 3, 64, 0
5, 24030, Note_on_c, 3, 64, 100
5, 24060, Note_on_c, 3, 64, 0
5, 24060, Note_on_c, 3, 64, 100
5, 24120, Note_on_c, 3, 64, 0
5, 24120, Note_on_c, 3, 64, 100
5, 24210, Note_on_c, 3, 64, 0
5, 24210, Note_on_c, 3, 64, 100
5, 24240, Note_on_c, 3, 64, 0
5, 24240, Note_on_c, 3, 66, 100
5, 24285, Note_on_c, 3, 66, 0
5, 24285, Note_on_c, 3, 66, 100
5, 24300, Note_on_c, 3, 66, 0
5, 24300, Pitch_bend_c, 3, 0
5, 24300, Note_on_c, 3, 68, 100
5, 24301, Pitch_bend_c, 3, 0
5, 24302, Pitch_bend_c, 3, 256
5, 24303, Pitch_bend_c, 3, 512
5, 24304, Pitch_bend_c, 3, 640
5, 24305, Pitch_bend_c, 3, 896
5, 24306, Pitch_bend_c, 3, 1152
5, 24307, Pitch_bend_c, 3, 1408
5, 24308, Pitch_bend_c, 3, 1536
5, 24309, Pitch_bend_c, 3, 1792
5, 24310, Pitch_bend_c, 3, 2048
5, 24311, Pitch_bend_c, 3, 2304
5, 24312, Pitch_bend_c, 3, 2432
5, 24313, Pitch_bend_c, 3, 2688
5, 24314, Pitch_bend_c, 3, 2944
5, 24315, Pitch_bend_c, 3, 3200
5, 24316, Pitch_bend_c, 3, 3328
5, 24317, Pitch_bend_c, 3, 3584
5, 24318, Pitch_bend_c, 3, 3840
5, 24319, Pitch_bend_c, 3, 4096
5, 24320, Pitch_bend_c, 3, 4224
5, 24321, Pitch_bend_c, 3, 4480
5, 24322, Pitch_bend_c, 3, 4736
5, 24323, Pitch_bend_c, 3, 4864
5, 24324, Pitch_bend_c, 3, 5120
5, 24325, Pitch_bend_c, 3, 5376
5, 24326, Pitch_bend_c, 3, 5632
5, 24327, Pitch_bend_c, 3, 5760
5, 24328, Pitch_bend_c, 3, 6016
5, 24329, Pitch_bend_c, 3, 6272
5, 24330, Pitch_bend_c, 3, 6528
5, 24331, Pitch_bend_c, 3, 6656
5, 24332, Pitch_bend_c, 3, 6912
5, 24333, Pitch_bend_c, 3, 7168
5, 24334, Pitch_bend_c, 3, 7424
5, 24335, Pitch_bend_c, 3, 7552
5, 24336, Pitch_bend_c, 3, 7808
5, 24337, Pitch_bend_c, 3, 8064
5, 24338, Pitch_bend_c, 3, 8320
5, 24360, Note_on_c, 3, 68, 0
5, 24360, Note_on_c, 3, 61, 100
5, 24600, Note_on_c, 3, 61, 0
5, 24690, Pitch_bend_c, 3, 0
5, 24690, Note_on_c, 3, 73, 100
5, 24691, Pitch_bend_c, 3, 256
5, 24692, Pitch_bend_c, 3, 512
5, 24693, Pitch_bend_c, 3, 896
5, 24694, Pitch_bend_c, 3, 1152
5, 24695, Pitch_bend_c, 3, 1408
5, 24696, Pitch_bend_c, 3, 1792
5, 24697, Pitch_bend_c, 3, 2048
5, 24698, Pitch_bend_c, 3, 2304
5, 24699, Pitch_bend_c, 3, 2688
5, 24700, Pitch_bend_c, 3, 2944
5, 24701, Pitch_bend_c, 3, 3328
5, 24702, Pitch_bend_c, 3, 3584
5, 24703, Pitch_bend_c, 3, 3840
5, 24704, Pitch_bend_c, 3, 4224
5, 24705, Pitch_bend_c, 3, 4480
5, 24706, Pitch_bend_c, 3, 4736
5, 24707, Pitch_bend_c, 3, 5120
5, 24708, Pitch_bend_c, 3, 5376
5, 24709, Pitch_bend_c, 3, 5760
5, 24710, Pitch_bend_c, 3, 6016
5, 24711, Pitch_bend_c, 3, 6272
5, 24712, Pitch_bend_c, 3, 6656
5, 24713, Pitch_bend_c, 3, 6912
5, 24714, Pitch_bend_c, 3, 7168
5, 24715, Pitch_bend_c, 3, 7552
5, 24716, Pitch_bend_c, 3, 7808
5, 24717, Pitch_bend_c, 3, 8192
5, 24720, Note_on_c, 3, 73, 0
5, 24720, Note_on_c, 3, 73, 100
5, 24750, Note_on_c, 3, 73, 0
5, 24750, Note_on_c, 3, 73, 100
5, 24780, Note_on_c, 3, 73, 0
5, 24780, Note_on_c, 3, 73, 100
5, 24810, Note_on_c, 3, 73, 0
5, 24810, Note_on_c, 3, 73, 100
5, 24840, Note_on_c, 3, 73, 0
5, 24840, Note_on_c, 3, 73, 100
5, 24870, Note_on_c, 3, 73, 0
5, 24870, Note_on_c, 3, 73, 100
5, 24900, Note_on_c, 3, 73, 0
5, 24900, Note_on_c, 3, 73, 100
5, 24960, Note_on_c, 3, 73, 0
5, 24960, Note_on_c, 3, 73, 100
5, 25020, Note_on_c, 3, 73, 0
5, 25020, Note_on_c, 3, 71, 100
5, 25050, Note_on_c, 3, 71, 0
5, 25050, Note_on_c, 3, 68, 100
5, 25080, Note_on_c, 3, 68, 0
5, 25080, Note_on_c, 3, 66, 100
5, 25140, Note_on_c, 3, 66, 0
5, 25140, Note_on_c, 3, 68, 100
5, 25200, Note_on_c, 3, 68, 0
5, 25200, Pitch_bend_c, 3, 128
5, 25200, Note_on_c, 3, 68, 100
5, 25201, Pitch_bend_c, 3, 256
5, 25202, Pitch_bend_c, 3, 512
5, 25203, Pitch_bend_c, 3, 640
5, 25204, Pitch_bend_c, 3, 896
5, 25205, Pitch_bend_c, 3, 1024
5, 25206, Pitch_bend_c, 3, 1280
5, 25207, Pitch_bend_c, 3, 1408
5, 25208, Pitch_bend_c, 3, 1664
5, 25209, Pitch_bend_c, 3, 1792
5, 25210, Pitch_bend_c, 3, 2048
5, 25211, Pitch_bend_c, 3, 2176
5, 25212, Pitch_bend_c, 3, 2432
5, 25213, Pitch_bend_c, 3, 2560
5, 25214, Pitch_bend_c, 3, 2816
5, 25215, Pitch_bend_c, 3, 3072
5, 25216, Pitch_bend_c, 3, 3200
5, 25217, Pitch_bend_c, 3, 3456
5, 25218, Pitch_bend_c, 3, 3584
5, 25219, Pitch_bend_c, 3, 3840
5, 25220, Pitch_bend_c, 3, 3968
5, 25221, Pitch_bend_c, 3, 4224
5, 25222, Pitch_bend_c, 3, 4352
5, 25223, Pitch_bend_c, 3, 4608
5, 25224, Pitch_bend_c, 3, 4736
5, 25225, Pitch_bend_c, 3, 4992
5, 25226, Pitch_bend_c, 3, 5120
5, 25227, Pitch_bend_c, 3, 5376
5, 25228, Pitch_bend_c, 3, 5632
5, 25229, Pitch_bend_c, 3, 5760
5, 25230, Pitch_bend_c, 3, 6016
5, 25231, Pitch_bend_c, 3, 6144
5, 25232, Pitch_bend_c, 3, 6400
5, 25233, Pitch_bend_c, 3, 6528
5, 25234, Pitch_bend_c, 3, 6784
5, 25235, Pitch_bend_c, 3, 6912
5, 25236, Pitch_bend_c, 3, 7168
5, 25237, Pitch_bend_c, 3, 7296
5, 25238, Pitch_bend_c, 3, 7552
5, 25239, Pitch_bend_c, 3, 7680
5, 25240, Pitch_bend_c, 3, 7936
5, 25241, Pitch_bend_c, 3, 8192
5, 25260, Note_on_c, 3, 68, 0
5, 25260, Note_on_c, 3, 68, 100
5, 25261, Pitch_bend_c, 3, 128
5, 25263, Pitch_bend_c, 3, 256
5, 25264, Pitch_bend_c, 3, 384
5, 25265, Pitch_bend_c, 3, 512
5, 25266, Pitch_bend_c, 3, 640
5, 25267, Pitch_bend_c, 3, 768
5, 25269, Pitch_bend_c, 3, 896
5, 25270, Pitch_bend_c, 3, 1024
5, 25271, Pitch_bend_c, 3, 1152
5, 25272, Pitch_bend_c, 3, 1280
5, 25273, Pitch_bend_c, 3, 1408
5, 25275, Pitch_bend_c, 3, 1536
5, 25276, Pitch_bend_c, 3, 1664
5, 25277, Pitch_bend_c, 3, 1792
5, 25278, Pitch_bend_c, 3, 1920
5, 25279, Pitch_bend_c, 3, 2048
5, 25281, Pitch_bend_c, 3, 2176
5, 25282, Pitch_bend_c, 3, 2304
5, 25283, Pitch_bend_c, 3, 2432
5, 25284, Pitch_bend_c, 3, 2560
5, 25285, Pitch_bend_c, 3, 2688
5, 25286, Pitch_bend_c, 3, 2816
5, 25288, Pitch_bend_c, 3, 2944
5, 25289, Pitch_bend_c, 3, 3072
5, 25290, Pitch_bend_c, 3, 3200
5, 25291, Pitch_bend_c, 3, 3328
5, 25292, Pitch_bend_c, 3, 3456
5, 25294, Pitch_bend_c, 3, 3584
5, 25295, Pitch_bend_c, 3, 3712
5, 25296, Pitch_bend_c, 3, 3840
5, 25297, Pitch_bend_c, 3, 3968
5, 25298, Pitch_bend_c, 3, 4096
5, 25300, Pitch_bend_c, 3, 4224
5, 25301, Pitch_bend_c, 3, 4352
5, 25302, Pitch_bend_c, 3, 4480
5, 25303, Pitch_bend_c, 3, 4608
5, 25304, Pitch_bend_c, 3, 4736
5, 25306, Pitch_bend_c, 3, 4864
5, 25307, Pitch_bend_c, 3, 4992
5, 25308, Pitch_bend_c, 3, 5120
5, 25309, Pitch_bend_c, 3, 5248
5, 25310, Pitch_bend_c, 3, 5376
5, 25311, Pitch_bend_c, 3, 5504
5, 25313, Pitch_bend_c, 3, 5632
5, 25314, Pitch_bend_c, 3, 5760
5, 25315, Pitch_bend_c, 3, 5888
5, 25316, Pitch_bend_c, 3, 6016
5, 25317, Pitch_bend_c, 3, 6144
5, 25319, Pitch_bend_c, 3, 6272
5, 25320, Pitch_bend_c, 3, 6400
5, 25321, Pitch_bend_c, 3, 6528
5, 25322, Pitch_bend_c, 3, 6656
5, 25323, Pitch_bend_c, 3, 6784
5, 25325, Pitch_bend_c, 3, 6912
5, 25326, Pitch_bend_c, 3, 7040
5, 25327, Pitch_bend_c, 3, 7168
5, 25328, Pitch_bend_c, 3, 7296
5, 25329, Pitch_bend_c, 3, 7424
5, 25331, Pitch_bend_c, 3, 7552
5, 25332, Pitch_bend_c, 3, 7680
5, 25333, Pitch_bend_c, 3, 7808
5, 25334, Pitch_bend_c, 3, 7936
5, 25335, Pitch_bend_c, 3, 8064
5, 25336, Pitch_bend_c, 3, 8192
5, 25620, Note_on_c, 3, 68, 0
5, 25620, Pitch_bend_c, 3, 0
5, 25620, Note_on_c, 3, 68, 100
5, 25621, Pitch_bend_c, 3, 384
5, 25622, Pitch_bend_c, 3, 768
5, 25623, Pitch_bend_c, 3, 1152
5, 25624, Pitch_bend_c, 3, 1536
5, 25625, Pitch_bend_c, 3, 2048
5, 25626, Pitch_bend_c, 3, 2432
5, 25627, Pitch_bend_c, 3, 2816
5, 25628, Pitch_bend_c, 3, 3200
5, 25629, Pitch_bend_c, 3, 3584
5, 25630, Pitch_bend_c, 3, 4096
5, 25631, Pitch_bend_c, 3, 4480
5, 25632, Pitch_bend_c, 3, 4864
5, 25633, Pitch_bend_c, 3, 5248
5, 25634, Pitch_bend_c, 3, 5632
5, 25635, Pitch_bend_c, 3, 6144
5, 25636, Pitch_bend_c, 3, 6528
5, 25637, Pitch_bend_c, 3, 6912
5, 25638, Pitch_bend_c, 3, 7296
5, 25639, Pitch_bend_c, 3, 7680
5, 25640, Pitch_bend_c, 3, 8192
5, 25681, Pitch_bend_c, 3, 8192
5, 25686, Pitch_bend_c, 3, 8064
5, 25687, Pitch_bend_c, 3, 7936
5, 25688, Pitch_bend_c, 3, 7680
5, 25689, Pitch_bend_c, 3, 7552
5, 25690, Pitch_bend_c, 3, 7296
5, 25691, Pitch_bend_c, 3, 7040
5, 25692, Pitch_bend_c, 3, 6784
5, 25693, Pitch_bend_c, 3, 6656
5, 25694, Pitch_bend_c, 3, 6272
5, 25695, Pitch_bend_c, 3, 6016
5, 25696, Pitch_bend_c, 3, 5632
5, 25697, Pitch_bend_c, 3, 5248
5, 25698, Pitch_bend_c, 3, 4736
5, 25699, Pitch_bend_c, 3, 4480
5, 25700, Pitch_bend_c, 3, 3712
5, 25701, Pitch_bend_c, 3, 3200
5, 25702, Pitch_bend_c, 3, 2432
5, 25703, Pitch_bend_c, 3, 1920
5, 25704, Pitch_bend_c, 3, 768
5, 25705, Pitch_bend_c, 3, 384
5, 25706, Pitch_bend_c, 3, 128
5, 25710, Note_on_c, 3, 68, 0
5, 25710, Note_on_c, 3, 64, 100
5, 25711, Pitch_bend_c, 3, 8192
5, 25740, Note_on_c, 3, 64, 0
5, 25740, Note_on_c, 3, 61, 100
5, 25800, Note_on_c, 3, 61, 0
5, 25800, Pitch_bend_c, 3, 128
5, 25800, Note_on_c, 3, 68, 100
5, 25801, Pitch_bend_c, 3, 256
5, 25802, Pitch_bend_c, 3, 512
5, 25803, Pitch_bend_c, 3, 640
5, 25804, Pitch_bend_c, 3, 896
5, 25805, Pitch_bend_c, 3, 1024
5, 25806, Pitch_bend_c, 3, 1280
5, 25807, Pitch_bend_c, 3, 1536
5, 25808, Pitch_bend_c, 3, 1664
5, 25809, Pitch_bend_c, 3, 1920
5, 25810, Pitch_bend_c, 3, 2048
5, 25811, Pitch_bend_c, 3, 2304
5, 25812, Pitch_bend_c, 3, 2432
5, 25813, Pitch_bend_c, 3, 2688
5, 25814, Pitch_bend_c, 3, 2944
5, 25815, Pitch_bend_c, 3, 3072
5, 25816, Pitch_bend_c, 3, 3328
5, 25817, Pitch_bend_c, 3, 3456
5, 25818, Pitch_bend_c, 3, 3712
5, 25819, Pitch_bend_c, 3, 3840
5, 25820, Pitch_bend_c, 3, 4096
5, 25821, Pitch_bend_c, 3, 4352
5, 25822, Pitch_bend_c, 3, 4480
5, 25823, Pitch_bend_c, 3, 4736
5, 25824, Pitch_bend_c, 3, 4864
5, 25825, Pitch_bend_c, 3, 5120
5, 25826, Pitch_bend_c, 3, 5248
5, 25827, Pitch_bend_c, 3, 5504
5, 25828, Pitch_bend_c, 3, 5760
5, 25829, Pitch_bend_c, 3, 5888
5, 25830, Pitch_bend_c, 3, 6144
5, 25831, Pitch_bend_c, 3, 6272
5, 25832, Pitch_bend_c, 3, 6528
5, 25833, Pitch_bend_c, 3, 6656
5, 25834, Pitch_bend_c, 3, 6912
5, 25835, Pitch_bend_c, 3, 7168
5, 25836, Pitch_bend_c, 3, 7296
5, 25837, Pitch_bend_c, 3, 7552
5, 25838, Pitch_bend_c, 3, 7680
5, 25839, Pitch_bend_c, 3, 7936
5, 25840, Pitch_bend_c, 3, 8192
5, 25860, Note_on_c, 3, 68, 0
5, 25860, Note_on_c, 3, 68, 100
5, 25920, Note_on_c, 3, 68, 0
5, 25920, Note_on_c, 3, 73, 100
5, 25980, Note_on_c, 3, 73, 0
5, 25980, Pitch_bend_c, 3, 0
5, 25980, Note_on_c, 3, 73, 100
5, 25981, Pitch_bend_c, 3, 256
5, 25982, Pitch_bend_c, 3, 640
5, 25983, Pitch_bend_c, 3, 1024
5, 25984, Pitch_bend_c, 3, 1280
5, 25985, Pitch_bend_c, 3, 1664
5, 25986, Pitch_bend_c, 3, 2048
5, 25987, Pitch_bend_c, 3, 2304
5, 25988, Pitch_bend_c, 3, 2688
5, 25989, Pitch_bend_c, 3, 3072
5, 25990, Pitch_bend_c, 3, 3328
5, 25991, Pitch_bend_c, 3, 3712
5, 25992, Pitch_bend_c, 3, 4096
5, 25993, Pitch_bend_c, 3, 4352
5, 25994, Pitch_bend_c, 3, 4736
5, 25995, Pitch_bend_c, 3, 5120
5, 25996, Pitch_bend_c, 3, 5376
5, 25997, Pitch_bend_c, 3, 5760
5, 25998, Pitch_bend_c, 3, 6144
5, 25999, Pitch_bend_c, 3, 6400
5, 26000, Pitch_bend_c, 3, 6784
5, 26001, Pitch_bend_c, 3, 7168
5, 26002, Pitch_bend_c, 3, 7424
5, 26003, Pitch_bend_c, 3, 7808
5, 26004, Pitch_bend_c, 3, 8192
5, 26040, Note_on_c, 3, 73, 0
5, 26040, Note_on_c, 3, 76, 100
5, 26100, Note_on_c, 3, 76, 0
5, 26100, Note_on_c, 3, 78, 100
5, 26160, Note_on_c, 3, 78, 0
5, 26160, Pitch_bend_c, 3, 128
5, 26160, Note_on_c, 3, 80, 100
5, 26161, Pitch_bend_c, 3, 256
5, 26162, Pitch_bend_c, 3, 384
5, 26163, Pitch_bend_c, 3, 512
5, 26164, Pitch_bend_c, 3, 640
5, 26165, Pitch_bend_c, 3, 768
5, 26166, Pitch_bend_c, 3, 896
5, 26167, Pitch_bend_c, 3, 1024
5, 26168, Pitch_bend_c, 3, 1152
5, 26169, Pitch_bend_c, 3, 1280
5, 26170, Pitch_bend_c, 3, 1408
5, 26171, Pitch_bend_c, 3, 1536
5, 26172, Pitch_bend_c, 3, 1792
5, 26173, Pitch_bend_c, 3, 1920
5, 26174, Pitch_bend_c, 3, 2048
5, 26175, Pitch_bend_c, 3, 2176
5, 26176, Pitch_bend_c, 3, 2304
5, 26177, Pitch_bend_c, 3, 2432
5, 26178, Pitch_bend_c, 3, 2560
5, 26179, Pitch_bend_c, 3, 2688
5, 26180, Pitch_bend_c, 3, 2816
5, 26181, Pitch_bend_c, 3, 2944
5, 26182, Pitch_bend_c, 3, 3072
5, 26183, Pitch_bend_c, 3, 3200
5, 26184, Pitch_bend_c, 3, 3456
5, 26185, Pitch_bend_c, 3, 3584
5, 26186, Pitch_bend_c, 3, 3712
5, 26187, Pitch_bend_c, 3, 3840
5, 26188, Pitch_bend_c, 3, 3968
5, 26189, Pitch_bend_c, 3, 4096
5, 26190, Pitch_bend_c, 3, 4224
5, 26191, Pitch_bend_c, 3, 4352
5, 26192, Pitch_bend_c, 3, 4480
5, 26193, Pitch_bend_c, 3, 4608
5, 26194, Pitch_bend_c, 3, 4736
5, 26195, Pitch_bend_c, 3, 4992
5, 26196, Pitch_bend_c, 3, 5120
5, 26197, Pitch_bend_c, 3, 5248
5, 26198, Pitch_bend_c, 3, 5376
5, 26199, Pitch_bend_c, 3, 5504
5, 26200, Pitch_bend_c, 3, 5632
5, 26201, Pitch_bend_c, 3, 5760
5, 26202, Pitch_bend_c, 3, 5888
5, 26203, Pitch_bend_c, 3, 6016
5, 26204, Pitch_bend_c, 3, 6144
5, 26205, Pitch_bend_c, 3, 6272
5, 26206, Pitch_bend_c, 3, 6400
5, 26207, Pitch_bend_c, 3, 6656
5, 26208, Pitch_bend_c, 3, 6784
5, 26209, Pitch_bend_c, 3, 6912
5, 26210, Pitch_bend_c, 3, 7040
5, 26211, Pitch_bend_c, 3, 7168
5, 26212, Pitch_bend_c, 3, 7296
5, 26213, Pitch_bend_c, 3, 7424
5, 26214, Pitch_bend_c, 3, 7552
5, 26215, Pitch_bend_c, 3, 7680
5, 26216, Pitch_bend_c, 3, 7808
5, 26217, Pitch_bend_c, 3, 7936
5, 26218, Pitch_bend_c, 3, 8192
5, 26224, Pitch_bend_c, 3, 8192
5, 26226, Pitch_bend_c, 3, 8320
5, 26228, Pitch_bend_c, 3, 8576
5, 26229, Pitch_bend_c, 3, 8960
5, 26230, Pitch_bend_c, 3, 9216
5, 26233, Pitch_bend_c, 3, 8704
5, 26234, Pitch_bend_c, 3, 8320
5, 26235, Pitch_bend_c, 3, 7808
5, 26236, Pitch_bend_c, 3, 7680
5, 26239, Pitch_bend_c, 3, 7936
5, 26240, Pitch_bend_c, 3, 8192
5, 26241, Pitch_bend_c, 3, 8832
5, 26242, Pitch_bend_c, 3, 9088
5, 26243, Pitch_bend_c, 3, 8960
5, 26244, Pitch_bend_c, 3, 8832
5, 26245, Pitch_bend_c, 3, 8576
5, 26246, Pitch_bend_c, 3, 8320
5, 26247, Pitch_bend_c, 3, 8192
5, 26248, Pitch_bend_c, 3, 8064
5, 26249, Pitch_bend_c, 3, 7936
5, 26250, Pitch_bend_c, 3, 7808
5, 26251, Pitch_bend_c, 3, 7680
5, 26252, Pitch_bend_c, 3, 7552
5, 26253, Pitch_bend_c, 3, 7424
5, 26255, Pitch_bend_c, 3, 7680
5, 26256, Pitch_bend_c, 3, 8192
5, 26257, Pitch_bend_c, 3, 8704
5, 26258, Pitch_bend_c, 3, 8832
5, 26259, Pitch_bend_c, 3, 8960
5, 26261, Pitch_bend_c, 3, 9216
5, 26263, Pitch_bend_c, 3, 9088
5, 26264, Pitch_bend_c, 3, 8576
5, 26265, Pitch_bend_c, 3, 8320
5, 26266, Pitch_bend_c, 3, 8064
5, 26267, Pitch_bend_c, 3, 7808
5, 26268, Pitch_bend_c, 3, 7680
5, 26269, Pitch_bend_c, 3, 7552
5, 26270, Pitch_bend_c, 3, 7296
5, 26275, Pitch_bend_c, 3, 7424
5, 26276, Pitch_bend_c, 3, 7680
5, 26277, Pitch_bend_c, 3, 8192
5, 26278, Pitch_bend_c, 3, 8832
5, 26279, Pitch_bend_c, 3, 8960
5, 26282, Pitch_bend_c, 3, 8832
5, 26283, Pitch_bend_c, 3, 8576
5, 26285, Pitch_bend_c, 3, 8320
5, 26286, Pitch_bend_c, 3, 8064
5, 26287, Pitch_bend_c, 3, 7808
5, 26291, Pitch_bend_c, 3, 7936
5, 26293, Pitch_bend_c, 3, 8192
5, 26294, Pitch_bend_c, 3, 8448
5, 26295, Pitch_bend_c, 3, 8704
5, 26296, Pitch_bend_c, 3, 8960
5, 26299, Pitch_bend_c, 3, 9088
5, 26301, Pitch_bend_c, 3, 8832
5, 26302, Pitch_bend_c, 3, 8576
5, 26303, Pitch_bend_c, 3, 8320
5, 26304, Pitch_bend_c, 3, 8064
5, 26305, Pitch_bend_c, 3, 7808
5, 26310, Pitch_bend_c, 3, 7936
5, 26311, Pitch_bend_c, 3, 8192
5, 26312, Pitch_bend_c, 3, 8448
5, 26313, Pitch_bend_c, 3, 8704
5, 26314, Pitch_bend_c, 3, 8832
5, 26315, Pitch_bend_c, 3, 8960
5, 26317, Pitch_bend_c, 3, 9088
5, 26318, Pitch_bend_c, 3, 8832
5, 26319, Pitch_bend_c, 3, 8576
5, 26320, Pitch_bend_c, 3, 8320
5, 26321, Pitch_bend_c, 3, 7936
5, 26323, Pitch_bend_c, 3, 7808
5, 26324, Pitch_bend_c, 3, 7552
5, 26326, Pitch_bend_c, 3, 7296
5, 26331, Pitch_bend_c, 3, 7680
5, 26332, Pitch_bend_c, 3, 7936
5, 26333, Pitch_bend_c, 3, 8448
5, 26334, Pitch_bend_c, 3, 8576
5, 26335, Pitch_bend_c, 3, 8704
5, 26336, Pitch_bend_c, 3, 8832
5, 26337, Pitch_bend_c, 3, 8960
5, 26341, Pitch_bend_c, 3, 8832
5, 26342, Pitch_bend_c, 3, 8576
5, 26343, Pitch_bend_c, 3, 8320
5, 26344, Pitch_bend_c, 3, 8064
5, 26345, Pitch_bend_c, 3, 7808
5, 26350, Pitch_bend_c, 3, 7936
5, 26351, Pitch_bend_c, 3, 8064
5, 26352, Pitch_bend_c, 3, 8448
5, 26353, Pitch_bend_c, 3, 8576
5, 26354, Pitch_bend_c, 3, 8704
5, 26357, Pitch_bend_c, 3, 8832
5, 26358, Pitch_bend_c, 3, 8960
5, 26366, Pitch_bend_c, 3, 8832
5, 26369, Pitch_bend_c, 3, 8704
5, 26370, Pitch_bend_c, 3, 8576
5, 26373, Pitch_bend_c, 3, 8448
5, 26381, Pitch_bend_c, 3, 8320
5, 26382, Pitch_bend_c, 3, 8064
5, 26385, Pitch_bend_c, 3, 8192
5, 26399, Pitch_bend_c, 3, 128
5, 26400, Note_on_c, 3, 80, 0
5, 26400, Note_on_c, 3, 80, 100
5, 26401, Pitch_bend_c, 3, 384
5, 26402, Pitch_bend_c, 3, 640
5, 26403, Pitch_bend_c, 3, 1152
5, 26404, Pitch_bend_c, 3, 1664
5, 26405, Pitch_bend_c, 3, 2432
5, 26406, Pitch_bend_c, 3, 2944
5, 26407, Pitch_bend_c, 3, 3456
5, 26408, Pitch_bend_c, 3, 3712
5, 26409, Pitch_bend_c, 3, 4480
5, 26410, Pitch_bend_c, 3, 7936
5, 26412, Pitch_bend_c, 3, 8064
5, 26413, Pitch_bend_c, 3, 8192
5, 26430, Note_on_c, 3, 80, 0
5, 26430, Note_on_c, 3, 78, 100
5, 26460, Note_on_c, 3, 78, 0
5, 26460, Note_on_c, 3, 76, 100
5, 26520, Note_on_c, 3, 76, 0
5, 26520, Note_on_c, 3, 78, 100
5, 26580, Note_on_c, 3, 78, 0
5, 26580, Note_on_c, 3, 80, 100
5, 26581, Pitch_bend_c, 3, 128
5, 26582, Pitch_bend_c, 3, 256
5, 26583, Pitch_bend_c, 3, 512
5, 26585, Pitch_bend_c, 3, 768
5, 26586, Pitch_bend_c, 3, 1024
5, 26587, Pitch_bend_c, 3, 1280
5, 26588, Pitch_bend_c, 3, 1536
5, 26589, Pitch_bend_c, 3, 1664
5, 26590, Pitch_bend_c, 3, 1792
5, 26591, Pitch_bend_c, 3, 2048
5, 26592, Pitch_bend_c, 3, 2304
5, 26593, Pitch_bend_c, 3, 2560
5, 26594, Pitch_bend_c, 3, 2816
5, 26595, Pitch_bend_c, 3, 2944
5, 26596, Pitch_bend_c, 3, 3072
5, 26597, Pitch_bend_c, 3, 3584
5, 26598, Pitch_bend_c, 3, 3840
5, 26599, Pitch_bend_c, 3, 4096
5, 26600, Pitch_bend_c, 3, 4608
5, 26601, Pitch_bend_c, 3, 5376
5, 26602, Pitch_bend_c, 3, 6400
5, 26603, Pitch_bend_c, 3, 7168
5, 26604, Pitch_bend_c, 3, 7424
5, 26605, Pitch_bend_c, 3, 7936
5, 26606, Pitch_bend_c, 3, 8192
5, 26640, Note_on_c, 3, 80, 0
5, 26640, Note_on_c, 3, 78, 100
5, 26700, Note_on_c, 3, 78, 0
5, 26700, Note_on_c, 3, 76, 100
5, 26760, Note_on_c, 3, 76, 0
5, 26760, Note_on_c, 3, 73, 100
5, 26850, Note_on_c, 3, 73, 0
5, 26850, Note_on_c, 3, 76, 100
5, 26880, Note_on_c, 3, 76, 0
5, 26880, Pitch_bend_c, 3, 128
5, 26880, Note_on_c, 3, 76, 100
5, 26884, Pitch_bend_c, 3, 256
5, 26886, Pitch_bend_c, 3, 384
5, 26887, Pitch_bend_c, 3, 512
5, 26888, Pitch_bend_c, 3, 768
5, 26890, Pitch_bend_c, 3, 1024
5, 26892, Pitch_bend_c, 3, 1152
5, 26893, Pitch_bend_c, 3, 1280
5, 26895, Pitch_bend_c, 3, 1536
5, 26901, Pitch_bend_c, 3, 1792
5, 26907, Pitch_bend_c, 3, 2048
5, 26909, Pitch_bend_c, 3, 2304
5, 26911, Pitch_bend_c, 3, 2560
5, 26913, Pitch_bend_c, 3, 2816
5, 26915, Pitch_bend_c, 3, 3072
5, 26916, Pitch_bend_c, 3, 3328
5, 26918, Pitch_bend_c, 3, 3584
5, 26919, Pitch_bend_c, 3, 4608
5, 26920, Pitch_bend_c, 3, 5376
5, 26921, Pitch_bend_c, 3, 5632
5, 26922, Pitch_bend_c, 3, 6400
5, 26923, Pitch_bend_c, 3, 6912
5, 26924, Pitch_bend_c, 3, 7168
5, 26925, Pitch_bend_c, 3, 7296
5, 26926, Pitch_bend_c, 3, 7424
5, 26927, Pitch_bend_c, 3, 7552
5, 26928, Pitch_bend_c, 3, 7680
5, 26929, Pitch_bend_c, 3, 7808
5, 26930, Pitch_bend_c, 3, 7936
5, 26933, Pitch_bend_c, 3, 8064
5, 26934, Pitch_bend_c, 3, 8192
5, 27000, Note_on_c, 3, 76, 0
5, 27000, Note_on_c, 3, 75, 100
5, 27001, Pitch_bend_c, 3, 128
5, 27015, Pitch_bend_c, 3, 256
5, 27016, Pitch_bend_c, 3, 384
5, 27017, Pitch_bend_c, 3, 512
5, 27019, Pitch_bend_c, 3, 640
5, 27021, Pitch_bend_c, 3, 768
5, 27023, Pitch_bend_c, 3, 896
5, 27024, Pitch_bend_c, 3, 1152
5, 27027, Pitch_bend_c, 3, 1280
5, 27029, Pitch_bend_c, 3, 1408
5, 27030, Pitch_bend_c, 3, 1664
5, 27031, Pitch_bend_c, 3, 1792
5, 27032, Pitch_bend_c, 3, 1920
5, 27033, Pitch_bend_c, 3, 2048
5, 27034, Pitch_bend_c, 3, 2176
5, 27035, Pitch_bend_c, 3, 2432
5, 27036, Pitch_bend_c, 3, 2688
5, 27037, Pitch_bend_c, 3, 2944
5, 27038, Pitch_bend_c, 3, 3200
5, 27039, Pitch_bend_c, 3, 3712
5, 27040, Pitch_bend_c, 3, 3840
5, 27041, Pitch_bend_c, 3, 4224
5, 27043, Pitch_bend_c, 3, 4480
5, 27044, Pitch_bend_c, 3, 4736
5, 27045, Pitch_bend_c, 3, 4864
5, 27046, Pitch_bend_c, 3, 4992
5, 27047, Pitch_bend_c, 3, 5248
5, 27049, Pitch_bend_c, 3, 5376
5, 27050, Pitch_bend_c, 3, 5504
5, 27051, Pitch_bend_c, 3, 5760
5, 27052, Pitch_bend_c, 3, 5888
5, 27053, Pitch_bend_c, 3, 6016
5, 27054, Pitch_bend_c, 3, 6272
5, 27055, Pitch_bend_c, 3, 6400
5, 27056, Pitch_bend_c, 3, 6528
5, 27057, Pitch_bend_c, 3, 6912
5, 27058, Pitch_bend_c, 3, 7296
5, 27059, Pitch_bend_c, 3, 7552
5, 27060, Pitch_bend_c, 3, 7936
5, 27062, Pitch_bend_c, 3, 8064
5, 27063, Pitch_bend_c, 3, 8192
5, 27120, Note_on_c, 3, 75, 0
5, 27120, Note_on_c, 3, 75, 100
5, 27121, Pitch_bend_c, 3, 256
5, 27135, Pitch_bend_c, 3, 384
5, 27139, Pitch_bend_c, 3, 512
5, 27141, Pitch_bend_c, 3, 640
5, 27143, Pitch_bend_c, 3, 768
5, 27145, Pitch_bend_c, 3, 896
5, 27147, Pitch_bend_c, 3, 1152
5, 27149, Pitch_bend_c, 3, 1280
5, 27151, Pitch_bend_c, 3, 1408
5, 27153, Pitch_bend_c, 3, 1664
5, 27155, Pitch_bend_c, 3, 1920
5, 27157, Pitch_bend_c, 3, 2176
5, 27158, Pitch_bend_c, 3, 2432
5, 27160, Pitch_bend_c, 3, 2688
5, 27161, Pitch_bend_c, 3, 2944
5, 27162, Pitch_bend_c, 3, 3200
5, 27163, Pitch_bend_c, 3, 3456
5, 27164, Pitch_bend_c, 3, 3712
5, 27165, Pitch_bend_c, 3, 3968
5, 27166, Pitch_bend_c, 3, 4096
5, 27168, Pitch_bend_c, 3, 4352
5, 27169, Pitch_bend_c, 3, 4480
5, 27170, Pitch_bend_c, 3, 4736
5, 27172, Pitch_bend_c, 3, 4992
5, 27173, Pitch_bend_c, 3, 5248
5, 27174, Pitch_bend_c, 3, 5376
5, 27175, Pitch_bend_c, 3, 5504
5, 27177, Pitch_bend_c, 3, 5760
5, 27179, Pitch_bend_c, 3, 6016
5, 27180, Pitch_bend_c, 3, 6144
5, 27181, Pitch_bend_c, 3, 6272
5, 27182, Pitch_bend_c, 3, 6528
5, 27183, Pitch_bend_c, 3, 6656
5, 27184, Pitch_bend_c, 3, 6912
5, 27185, Pitch_bend_c, 3, 7040
5, 27186, Pitch_bend_c, 3, 7296
5, 27187, Pitch_bend_c, 3, 7552
5, 27188, Pitch_bend_c, 3, 7808
5, 27189, Pitch_bend_c, 3, 8064
5, 27192, Pitch_bend_c, 3, 8192
5, 27300, Note_on_c, 3, 75, 0
5, 27300, Pitch_bend_c, 3, 128
5, 27300, Note_on_c, 3, 73, 100
5, 27301, Pitch_bend_c, 3, 256
5, 27302, Pitch_bend_c, 3, 512
5, 27303, Pitch_bend_c, 3, 640
5, 27304, Pitch_bend_c, 3, 896
5, 27305, Pitch_bend_c, 3, 1152
5, 27306, Pitch_bend_c, 3, 1280
5, 27307, Pitch_bend_c, 3, 1536
5, 27308, Pitch_bend_c, 3, 1792
5, 27309, Pitch_bend_c, 3, 1920
5, 27310, Pitch_bend_c, 3, 2176
5, 27311, Pitch_bend_c, 3, 2432
5, 27312, Pitch_bend_c, 3, 2560
5, 27313, Pitch_bend_c, 3, 2816
5, 27314, Pitch_bend_c, 3, 3072
5, 27315, Pitch_bend_c, 3, 3200
5, 27316, Pitch_bend_c, 3, 3456
5, 27317, Pitch_bend_c, 3, 3712
5, 27318, Pitch_bend_c, 3, 3840
5, 27319, Pitch_bend_c, 3, 4096
5, 27320, Pitch_bend_c, 3, 4352
5, 27321, Pitch_bend_c, 3, 4480
5, 27322, Pitch_bend_c, 3, 4736
5, 27323, Pitch_bend_c, 3, 4992
5, 27324, Pitch_bend_c, 3, 5120
5, 27325, Pitch_bend_c, 3, 5376
5, 27326, Pitch_bend_c, 3, 5632
5, 27327, Pitch_bend_c, 3, 5760
5, 27328, Pitch_bend_c, 3, 6016
5, 27329, Pitch_bend_c, 3, 6272
5, 27330, Pitch_bend_c, 3, 6400
5, 27331, Pitch_bend_c, 3, 6656
5, 27332, Pitch_bend_c, 3, 6912
5, 27333, Pitch_bend_c, 3, 7040
5, 27334, Pitch_bend_c, 3, 7296
5, 27335, Pitch_bend_c, 3, 7552
5, 27336, Pitch_bend_c, 3, 7680
5, 27337, Pitch_bend_c, 3, 7936
5, 27338, Pitch_bend_c, 3, 8192
5, 27360, Note_on_c, 3, 73, 0
5, 27360, Pitch_bend_c, 3, 128
5, 27360, Note_on_c, 3, 75, 100
5, 27361, Pitch_bend_c, 3, 384
5, 27362, Pitch_bend_c, 3, 768
5, 27363, Pitch_bend_c, 3, 1024
5, 27364, Pitch_bend_c, 3, 1408
5, 27365, Pitch_bend_c, 3, 1664
5, 27366, Pitch_bend_c, 3, 2048
5, 27367, Pitch_bend_c, 3, 2304
5, 27368, Pitch_bend_c, 3, 2688
5, 27369, Pitch_bend_c, 3, 2944
5, 27370, Pitch_bend_c, 3, 3328
5, 27371, Pitch_bend_c, 3, 3584
5, 27372, Pitch_bend_c, 3, 3968
5, 27373, Pitch_bend_c, 3, 4224
5, 27374, Pitch_bend_c, 3, 4608
5, 27375, Pitch_bend_c, 3, 4864
5, 27376, Pitch_bend_c, 3, 5248
5, 27377, Pitch_bend_c, 3, 5504
5, 27378, Pitch_bend_c, 3, 5888
5, 27379, Pitch_bend_c, 3, 6144
5, 27380, Pitch_bend_c, 3, 6528
5, 27381, Pitch_bend_c, 3, 6784
5, 27382, Pitch_bend_c, 3, 7168
5, 27383, Pitch_bend_c, 3, 7424
5, 27384, Pitch_bend_c, 3, 7808
5, 27385, Pitch_bend_c, 3, 8192
5, 27420, Note_on_c, 3, 75, 0
5, 27420, Note_on_c, 3, 73, 100
5, 27480, Note_on_c, 3, 73, 0
5, 27480, Pitch_bend_c, 3, 0
5, 27480, Note_on_c, 3, 75, 100
5, 27481, Pitch_bend_c, 3, 384
5, 27482, Pitch_bend_c, 3, 768
5, 27483, Pitch_bend_c, 3, 1152
5, 27484, Pitch_bend_c, 3, 1536
5, 27485, Pitch_bend_c, 3, 1920
5, 27486, Pitch_bend_c, 3, 2304
5, 27487, Pitch_bend_c, 3, 2688
5, 27488, Pitch_bend_c, 3, 3072
5, 27489, Pitch_bend_c, 3, 3456
5, 27490, Pitch_bend_c, 3, 3840
5, 27491, Pitch_bend_c, 3, 4224
5, 27492, Pitch_bend_c, 3, 4608
5, 27493, Pitch_bend_c, 3, 4992
5, 27494, Pitch_bend_c, 3, 5376
5, 27495, Pitch_bend_c, 3, 5760
5, 27496, Pitch_bend_c, 3, 6144
5, 27497, Pitch_bend_c, 3, 6528
5, 27498, Pitch_bend_c, 3, 6912
5, 27499, Pitch_bend_c, 3, 7296
5, 27500, Pitch_bend_c, 3, 7680
5, 27501, Pitch_bend_c, 3, 8192
5, 27540, Note_on_c, 3, 75, 0
5, 27540, Note_on_c, 3, 73, 100
5, 27599, Pitch_bend_c, 3, 0
5, 27600, Note_on_c, 3, 73, 0
5, 27600, Pitch_bend_c, 3, 128
5, 27600, Note_on_c, 3, 68, 100
5, 27601, Pitch_bend_c, 3, 256
5, 27602, Pitch_bend_c, 3, 384
5, 27603, Pitch_bend_c, 3, 512
5, 27604, Pitch_bend_c, 3, 640
5, 27605, Pitch_bend_c, 3, 768
5, 27606, Pitch_bend_c, 3, 896
5, 27607, Pitch_bend_c, 3, 1024
5, 27608, Pitch_bend_c, 3, 1152
5, 27609, Pitch_bend_c, 3, 1280
5, 27610, Pitch_bend_c, 3, 1408
5, 27611, Pitch_bend_c, 3, 1536
5, 27612, Pitch_bend_c, 3, 1664
5, 27613, Pitch_bend_c, 3, 1792
5, 27614, Pitch_bend_c, 3, 1920
5, 27615, Pitch_bend_c, 3, 2048
5, 27616, Pitch_bend_c, 3, 2176
5, 27617, Pitch_bend_c, 3, 2304
5, 27618, Pitch_bend_c, 3, 2432
5, 27619, Pitch_bend_c, 3, 2560
5, 27620, Pitch_bend_c, 3, 2688
5, 27621, Pitch_bend_c, 3, 2816
5, 27622, Pitch_bend_c, 3, 2944
5, 27623, Pitch_bend_c, 3, 3072
5, 27624, Pitch_bend_c, 3, 3200
5, 27625, Pitch_bend_c, 3, 3328
5, 27626, Pitch_bend_c, 3, 3456
5, 27627, Pitch_bend_c, 3, 3584
5, 27628, Pitch_bend_c, 3, 3712
5, 27629, Pitch_bend_c, 3, 3840
5, 27630, Pitch_bend_c, 3, 4096
5, 27631, Pitch_bend_c, 3, 4224
5, 27632, Pitch_bend_c, 3, 4352
5, 27633, Pitch_bend_c, 3, 4480
5, 27634, Pitch_bend_c, 3, 4608
5, 27635, Pitch_bend_c, 3, 4736
5, 27636, Pitch_bend_c, 3, 4864
5, 27637, Pitch_bend_c, 3, 4992
5, 27638, Pitch_bend_c, 3, 5120
5, 27639, Pitch_bend_c, 3, 5248
5, 27640, Pitch_bend_c, 3, 5376
5, 27641, Pitch_bend_c, 3, 5504
5, 27642, Pitch_bend_c, 3, 5632
5, 27643, Pitch_bend_c, 3, 5760
5, 27644, Pitch_bend_c, 3, 5888
5, 27645, Pitch_bend_c, 3, 6016
5, 27646, Pitch_bend_c, 3, 6144
5, 27647, Pitch_bend_c, 3, 6272
5, 27648, Pitch_bend_c, 3, 6400
5, 27649, Pitch_bend_c, 3, 6528
5, 27650, Pitch_bend_c, 3, 6656
5, 27651, Pitch_bend_c, 3, 6784
5, 27652, Pitch_bend_c, 3, 6912
5, 27653, Pitch_bend_c, 3, 7040
5, 27654, Pitch_bend_c, 3, 7168
5, 27655, Pitch_bend_c, 3, 7296
5, 27656, Pitch_bend_c, 3, 7424
5, 27657, Pitch_bend_c, 3, 7552
5, 27658, Pitch_bend_c, 3, 7680
5, 27659, Pitch_bend_c, 3, 7808
5, 27660, Pitch_bend_c, 3, 7936
5, 27661, Pitch_bend_c, 3, 8192
5, 27692, Pitch_bend_c, 3, 8064
5, 27693, Pitch_bend_c, 3, 7808
5, 27694, Pitch_bend_c, 3, 7680
5, 27695, Pitch_bend_c, 3, 7424
5, 27696, Pitch_bend_c, 3, 7040
5, 27697, Pitch_bend_c, 3, 6784
5, 27698, Pitch_bend_c, 3, 6528
5, 27699, Pitch_bend_c, 3, 6016
5, 27700, Pitch_bend_c, 3, 5760
5, 27701, Pitch_bend_c, 3, 5504
5, 27702, Pitch_bend_c, 3, 5248
5, 27703, Pitch_bend_c, 3, 4736
5, 27704, Pitch_bend_c, 3, 4608
5, 27705, Pitch_bend_c, 3, 4224
5, 27706, Pitch_bend_c, 3, 3968
5, 27707, Pitch_bend_c, 3, 3712
5, 27708, Pitch_bend_c, 3, 3456
5, 27709, Pitch_bend_c, 3, 3200
5, 27710, Pitch_bend_c, 3, 3072
5, 27711, Pitch_bend_c, 3, 2688
5, 27712, Pitch_bend_c, 3, 2432
5, 27713, Pitch_bend_c, 3, 2176
5, 27714, Pitch_bend_c, 3, 1920
5, 27715, Pitch_bend_c, 3, 1664
5, 27716, Pitch_bend_c, 3, 1408
5, 27717, Pitch_bend_c, 3, 1152
5, 27718, Pitch_bend_c, 3, 896
5, 27719, Pitch_bend_c, 3, 640
5, 27720, Pitch_bend_c, 3, 8192
5, 27721, Pitch_bend_c, 3, 128
5, 27750, Note_on_c, 3, 68, 0
5, 27750, Note_on_c, 3, 56, 127
5, 27780, Note_on_c, 3, 56, 0
5, 28080, Pitch_bend_c, 3, 16383
5, 28080, Note_on_c, 3, 71, 100
5, 28080, Note_on_c, 3, 67, 100
5, 28080, Note_on_c, 3, 62, 100
5, 28124, Pitch_bend_c, 3, 16256
5, 28130, Pitch_bend_c, 3, 16128
5, 28136, Pitch_bend_c, 3, 16000
5, 28142, Pitch_bend_c, 3, 15872
5, 28149, Pitch_bend_c, 3, 15744
5, 28151, Pitch_bend_c, 3, 15616
5, 28153, Pitch_bend_c, 3, 15488
5, 28155, Pitch_bend_c, 3, 15360
5, 28157, Pitch_bend_c, 3, 15232
5, 28158, Pitch_bend_c, 3, 15104
5, 28164, Pitch_bend_c, 3, 14848
5, 28165, Pitch_bend_c, 3, 14720
5, 28167, Pitch_bend_c, 3, 14464
5, 28169, Pitch_bend_c, 3, 14336
5, 28170, Pitch_bend_c, 3, 14080
5, 28171, Pitch_bend_c, 3, 13952
5, 28172, Pitch_bend_c, 3, 13696
5, 28174, Pitch_bend_c, 3, 13568
5, 28175, Pitch_bend_c, 3, 13312
5, 28177, Pitch_bend_c, 3, 13056
5, 28178, Pitch_bend_c, 3, 12288
5, 28180, Pitch_bend_c, 3, 12160
5, 28181, Pitch_bend_c, 3, 11904
5, 28182, Pitch_bend_c, 3, 11648
5, 28184, Pitch_bend_c, 3, 11392
5, 28185, Pitch_bend_c, 3, 11136
5, 28187, Pitch_bend_c, 3, 10368
5, 28189, Pitch_bend_c, 3, 9600
5, 28190, Pitch_bend_c, 3, 9344
5, 28192, Pitch_bend_c, 3, 9216
5, 28193, Pitch_bend_c, 3, 9088
5, 28194, Pitch_bend_c, 3, 8832
5, 28195, Pitch_bend_c, 3, 8576
5, 28201, Pitch_bend_c, 3, 7552
5, 28203, Pitch_bend_c, 3, 7296
5, 28205, Pitch_bend_c, 3, 6784
5, 28207, Pitch_bend_c, 3, 6528
5, 28209, Pitch_bend_c, 3, 6272
5, 28211, Pitch_bend_c, 3, 6016
5, 28212, Pitch_bend_c, 3, 5760
5, 28213, Pitch_bend_c, 3, 5504
5, 28215, Pitch_bend_c, 3, 5376
5, 28216, Pitch_bend_c, 3, 5248
5, 28217, Pitch_bend_c, 3, 4992
5, 28219, Pitch_bend_c, 3, 4736
5, 28221, Pitch_bend_c, 3, 4480
5, 28223, Pitch_bend_c, 3, 4224
5, 28224, Pitch_bend_c, 3, 3968
5, 28225, Pitch_bend_c, 3, 3712
5, 28226, Pitch_bend_c, 3, 3584
5, 28227, Pitch_bend_c, 3, 3456
5, 28228, Pitch_bend_c, 3, 3200
5, 28229, Pitch_bend_c, 3, 3072
5, 28230, Pitch_bend_c, 3, 2944
5, 28231, Pitch_bend_c, 3, 2816
5, 28232, Pitch_bend_c, 3, 2688
5, 28233, Pitch_bend_c, 3, 2560
5, 28234, Pitch_bend_c, 3, 2432
5, 28235, Pitch_bend_c, 3, 2304
5, 28237, Pitch_bend_c, 3, 2176
5, 28238, Pitch_bend_c, 3, 2048
5, 28239, Pitch_bend_c, 3, 1920
5, 28240, Pitch_bend_c, 3, 1664
5, 28241, Pitch_bend_c, 3, 1536
5, 28242, Pitch_bend_c, 3, 1408
5, 28244, Pitch_bend_c, 3, 1152
5, 28251, Pitch_bend_c, 3, 1024
5, 28252, Pitch_bend_c, 3, 896
5, 28254, Pitch_bend_c, 3, 512
5, 28255, Pitch_bend_c, 3, 384
5, 28256, Pitch_bend_c, 3, 128
5, 28260, Note_on_c, 3, 62, 0
5, 28260, Note_on_c, 3, 67, 0
5, 28260, Note_on_c, 3, 71, 0
5, 28260, Pitch_bend_c, 3, 8192
5, 28260, Note_on_c, 3, 52, 100
5, 28260, Note_on_c, 3, 57, 100
5, 28260, Note_on_c, 3, 61, 100
5, 28620, Note_on_c, 3, 61, 0
5, 28620, Note_on_c, 3, 57, 0
5, 28620, Note_on_c, 3, 52, 0
5, 28680, Note_on_c, 3, 56, 100
5, 28682, Pitch_bend_c, 3, 128
5, 28683, Pitch_bend_c, 3, 256
5, 28685, Pitch_bend_c, 3, 384
5, 28687, Pitch_bend_c, 3, 512
5, 28693, Pitch_bend_c, 3, 768
5, 28699, Pitch_bend_c, 3, 896
5, 28701, Pitch_bend_c, 3, 1024
5, 28703, Pitch_bend_c, 3, 1280
5, 28707, Pitch_bend_c, 3, 1408
5, 28709, Pitch_bend_c, 3, 1536
5, 28710, Pitch_bend_c, 3, 1792
5, 28711, Pitch_bend_c, 3, 1920
5, 28713, Pitch_bend_c, 3, 2048
5, 28715, Pitch_bend_c, 3, 2304
5, 28717, Pitch_bend_c, 3, 2432
5, 28718, Pitch_bend_c, 3, 2560
5, 28719, Pitch_bend_c, 3, 2816
5, 28721, Pitch_bend_c, 3, 2944
5, 28722, Pitch_bend_c, 3, 3072
5, 28723, Pitch_bend_c, 3, 3200
5, 28725, Pitch_bend_c, 3, 3328
5, 28727, Pitch_bend_c, 3, 3584
5, 28729, Pitch_bend_c, 3, 3840
5, 28732, Pitch_bend_c, 3, 4096
5, 28734, Pitch_bend_c, 3, 4352
5, 28737, Pitch_bend_c, 3, 4608
5, 28738, Pitch_bend_c, 3, 4736
5, 28739, Pitch_bend_c, 3, 4864
5, 28742, Pitch_bend_c, 3, 4992
5, 28743, Pitch_bend_c, 3, 5120
5, 28745, Pitch_bend_c, 3, 5248
5, 28746, Pitch_bend_c, 3, 5376
5, 28750, Pitch_bend_c, 3, 5632
5, 28753, Pitch_bend_c, 3, 5760
5, 28755, Pitch_bend_c, 3, 5888
5, 28758, Pitch_bend_c, 3, 6016
5, 28760, Pitch_bend_c, 3, 6144
5, 28764, Pitch_bend_c, 3, 6400
5, 28767, Pitch_bend_c, 3, 6528
5, 28768, Pitch_bend_c, 3, 6656
5, 28769, Pitch_bend_c, 3, 6784
5, 28771, Pitch_bend_c, 3, 6912
5, 28773, Pitch_bend_c, 3, 7040
5, 28774, Pitch_bend_c, 3, 7168
5, 28776, Pitch_bend_c, 3, 7296
5, 28777, Pitch_bend_c, 3, 7424
5, 28779, Pitch_bend_c, 3, 7680
5, 28781, Pitch_bend_c, 3, 7808
5, 28782, Pitch_bend_c, 3, 7936
5, 28783, Pitch_bend_c, 3, 8064
5, 28784, Pitch_bend_c, 3, 8192
5, 28786, Pitch_bend_c, 3, 8448
5, 28787, Pitch_bend_c, 3, 8704
5, 28788, Pitch_bend_c, 3, 8960
5, 28789, Pitch_bend_c, 3, 9216
5, 28790, Pitch_bend_c, 3, 9728
5, 28791, Pitch_bend_c, 3, 9984
5, 28792, Pitch_bend_c, 3, 10240
5, 28793, Pitch_bend_c, 3, 11264
5, 28794, Pitch_bend_c, 3, 11648
5, 28795, Pitch_bend_c, 3, 12160
5, 28796, Pitch_bend_c, 3, 12288
5, 28797, Pitch_bend_c, 3, 12672
5, 28798, Pitch_bend_c, 3, 13184
5, 28799, Pitch_bend_c, 3, 13696
5, 28800, Note_on_c, 3, 56, 0
5, 28800, Pitch_bend_c, 3, 256
5, 28800, Note_on_c, 3, 59, 100
5, 28802, Pitch_bend_c, 3, 512
5, 28804, Pitch_bend_c, 3, 640
5, 28805, Pitch_bend_c, 3, 768
5, 28807, Pitch_bend_c, 3, 1024
5, 28809, Pitch_bend_c, 3, 1152
5, 28810, Pitch_bend_c, 3, 1280
5, 28812, Pitch_bend_c, 3, 1536
5, 28814, Pitch_bend_c, 3, 1792
5, 28816, Pitch_bend_c, 3, 2048
5, 28818, Pitch_bend_c, 3, 2304
5, 28820, Pitch_bend_c, 3, 2560
5, 28822, Pitch_bend_c, 3, 2816
5, 28823, Pitch_bend_c, 3, 3072
5, 28825, Pitch_bend_c, 3, 3328
5, 28831, Pitch_bend_c, 3, 4096
5, 28833, Pitch_bend_c, 3, 4864
5, 28839, Pitch_bend_c, 3, 5632
5, 28841, Pitch_bend_c, 3, 6400
5, 28842, Pitch_bend_c, 3, 7168
5, 28844, Pitch_bend_c, 3, 7296
5, 28845, Pitch_bend_c, 3, 8064
5, 28846, Pitch_bend_c, 3, 8320
5, 28847, Pitch_bend_c, 3, 8576
5, 28848, Pitch_bend_c, 3, 9088
5, 28850, Pitch_bend_c, 3, 9856
5, 28851, Pitch_bend_c, 3, 10880
5, 28852, Pitch_bend_c, 3, 11648
5, 28854, Pitch_bend_c, 3, 12416
5, 28855, Pitch_bend_c, 3, 12672
5, 28856, Pitch_bend_c, 3, 13184
5, 28857, Pitch_bend_c, 3, 13440
5, 28858, Pitch_bend_c, 3, 13696
5, 28859, Pitch_bend_c, 3, 13952
5, 28860, Pitch_bend_c, 3, 14080
5, 28861, Pitch_bend_c, 3, 14208
5, 28862, Pitch_bend_c, 3, 14464
5, 28863, Pitch_bend_c, 3, 14720
5, 28864, Pitch_bend_c, 3, 14976
5, 28865, Pitch_bend_c, 3, 15104
5, 28866, Pitch_bend_c, 3, 15232
5, 28867, Pitch_bend_c, 3, 15488
5, 28869, Pitch_bend_c, 3, 15616
5, 28870, Pitch_bend_c, 3, 15872
5, 28872, Pitch_bend_c, 3, 16000
5, 28873, Pitch_bend_c, 3, 16256
5, 28875, Pitch_bend_c, 3, 16383
5, 29115, Pitch_bend_c, 3, 16256
5, 29130, Pitch_bend_c, 3, 16128
5, 29151, Pitch_bend_c, 3, 16256
5, 29153, Pitch_bend_c, 3, 16383
5, 29158, Pitch_bend_c, 3, 256
5, 29160, Note_on_c, 3, 59, 0
5, 29160, Note_on_c, 3, 60, 100
5, 29160, Pitch_bend_c, 3, 256
5, 29160, Note_on_c, 3, 63, 100
5, 29164, Pitch_bend_c, 3, 384
5, 29166, Pitch_bend_c, 3, 512
5, 29169, Pitch_bend_c, 3, 640
5, 29170, Pitch_bend_c, 3, 768
5, 29172, Pitch_bend_c, 3, 896
5, 29173, Pitch_bend_c, 3, 1024
5, 29177, Pitch_bend_c, 3, 1280
5, 29185, Pitch_bend_c, 3, 1536
5, 29187, Pitch_bend_c, 3, 1792
5, 29190, Pitch_bend_c, 3, 1920
5, 29191, Pitch_bend_c, 3, 2048
5, 29192, Pitch_bend_c, 3, 2176
5, 29194, Pitch_bend_c, 3, 2304
5, 29195, Pitch_bend_c, 3, 2560
5, 29196, Pitch_bend_c, 3, 2816
5, 29198, Pitch_bend_c, 3, 3072
5, 29199, Pitch_bend_c, 3, 3328
5, 29201, Pitch_bend_c, 3, 3584
5, 29203, Pitch_bend_c, 3, 3840
5, 29204, Pitch_bend_c, 3, 4096
5, 29206, Pitch_bend_c, 3, 4352
5, 29208, Pitch_bend_c, 3, 4480
5, 29210, Pitch_bend_c, 3, 4736
5, 29212, Pitch_bend_c, 3, 4864
5, 29213, Pitch_bend_c, 3, 5120
5, 29216, Pitch_bend_c, 3, 5248
5, 29217, Pitch_bend_c, 3, 5376
5, 29218, Pitch_bend_c, 3, 5632
5, 29220, Pitch_bend_c, 3, 5760
5, 29221, Pitch_bend_c, 3, 5888
5, 29222, Pitch_bend_c, 3, 6144
5, 29224, Pitch_bend_c, 3, 6400
5, 29225, Pitch_bend_c, 3, 6528
5, 29226, Pitch_bend_c, 3, 6656
5, 29228, Pitch_bend_c, 3, 6912
5, 29230, Pitch_bend_c, 3, 7168
5, 29232, Pitch_bend_c, 3, 7424
5, 29234, Pitch_bend_c, 3, 7552
5, 29235, Pitch_bend_c, 3, 7680
5, 29236, Pitch_bend_c, 3, 7808
5, 29237, Pitch_bend_c, 3, 7936
5, 29239, Pitch_bend_c, 3, 8192
5, 29241, Pitch_bend_c, 3, 8320
5, 29242, Pitch_bend_c, 3, 8448
5, 29243, Pitch_bend_c, 3, 8576
5, 29244, Pitch_bend_c, 3, 8704
5, 29246, Pitch_bend_c, 3, 8960
5, 29248, Pitch_bend_c, 3, 9088
5, 29249, Pitch_bend_c, 3, 9216
5, 29250, Pitch_bend_c, 3, 9344
5, 29252, Pitch_bend_c, 3, 9472
5, 29254, Pitch_bend_c, 3, 9728
5, 29256, Pitch_bend_c, 3, 9856
5, 29257, Pitch_bend_c, 3, 9984
5, 29258, Pitch_bend_c, 3, 10112
5, 29259, Pitch_bend_c, 3, 10240
5, 29262, Pitch_bend_c, 3, 10368
5, 29264, Pitch_bend_c, 3, 10496
5, 29266, Pitch_bend_c, 3, 10624
5, 29268, Pitch_bend_c, 3, 10752
5, 29271, Pitch_bend_c, 3, 10880
5, 29272, Pitch_bend_c, 3, 11008
5, 29276, Pitch_bend_c, 3, 11136
5, 29277, Pitch_bend_c, 3, 11264
5, 29280, Pitch_bend_c, 3, 11392
5, 29282, Pitch_bend_c, 3, 11520
5, 29284, Pitch_bend_c, 3, 11648
5, 29285, Pitch_bend_c, 3, 11776
5, 29288, Pitch_bend_c, 3, 12032
5, 29291, Pitch_bend_c, 3, 12160
5, 29293, Pitch_bend_c, 3, 12288
5, 29297, Pitch_bend_c, 3, 12416
5, 29298, Pitch_bend_c, 3, 12544
5, 29330, Pitch_bend_c, 3, 12416
5, 29333, Pitch_bend_c, 3, 12288
5, 29360, Pitch_bend_c, 3, 12416
5, 29362, Pitch_bend_c, 3, 12544
5, 29640, Note_on_c, 3, 63, 0
5, 29640, Note_on_c, 3, 60, 0
5, 29640, Note_on_c, 3, 66, 100
5, 29641, Pitch_bend_c, 3, 0
5, 29643, Pitch_bend_c, 3, 128
5, 29644, Pitch_bend_c, 3, 256
5, 29645, Pitch_bend_c, 3, 384
5, 29646, Pitch_bend_c, 3, 512
5, 29647, Pitch_bend_c, 3, 640
5, 29648, Pitch_bend_c, 3, 768
5, 29649, Pitch_bend_c, 3, 896
5, 29650, Pitch_bend_c, 3, 1024
5, 29652, Pitch_bend_c, 3, 1152
5, 29653, Pitch_bend_c, 3, 1280
5, 29654, Pitch_bend_c, 3, 1408
5, 29655, Pitch_bend_c, 3, 1536
5, 29656, Pitch_bend_c, 3, 1664
5, 29657, Pitch_bend_c, 3, 1792
5, 29658, Pitch_bend_c, 3, 1920
5, 29659, Pitch_bend_c, 3, 2048
5, 29661, Pitch_bend_c, 3, 2176
5, 29662, Pitch_bend_c, 3, 2304
5, 29663, Pitch_bend_c, 3, 2432
5, 29664, Pitch_bend_c, 3, 2560
5, 29665, Pitch_bend_c, 3, 2688
5, 29666, Pitch_bend_c, 3, 2816
5, 29667, Pitch_bend_c, 3, 2944
5, 29668, Pitch_bend_c, 3, 3072
5, 29670, Pitch_bend_c, 3, 3200
5, 29671, Pitch_bend_c, 3, 3328
5, 29672, Pitch_bend_c, 3, 3456
5, 29673, Pitch_bend_c, 3, 3584
5, 29674, Pitch_bend_c, 3, 3712
5, 29675, Pitch_bend_c, 3, 3840
5, 29676, Pitch_bend_c, 3, 3968
5, 29677, Pitch_bend_c, 3, 4096
5, 29679, Pitch_bend_c, 3, 4224
5, 29680, Pitch_bend_c, 3, 4352
5, 29681, Pitch_bend_c, 3, 4480
5, 29682, Pitch_bend_c, 3, 4608
5, 29683, Pitch_bend_c, 3, 4736
5, 29684, Pitch_bend_c, 3, 4864
5, 29685, Pitch_bend_c, 3, 4992
5, 29686, Pitch_bend_c, 3, 5120
5, 29688, Pitch_bend_c, 3, 5248
5, 29689, Pitch_bend_c, 3, 5376
5, 29690, Pitch_bend_c, 3, 5504
5, 29691, Pitch_bend_c, 3, 5632
5, 29692, Pitch_bend_c, 3, 5760
5, 29693, Pitch_bend_c, 3, 5888
5, 29694, Pitch_bend_c, 3, 6016
5, 29695, Pitch_bend_c, 3, 6144
5, 29697, Pitch_bend_c, 3, 6272
5, 29698, Pitch_bend_c, 3, 6400
5, 29699, Pitch_bend_c, 3, 6528
5, 29700, Pitch_bend_c, 3, 6656
5, 29701, Pitch_bend_c, 3, 6784
5, 29702, Pitch_bend_c, 3, 6912
5, 29703, Pitch_bend_c, 3, 7040
5, 29704, Pitch_bend_c, 3, 7168
5, 29706, Pitch_bend_c, 3, 7296
5, 29707, Pitch_bend_c, 3, 7424
5, 29708, Pitch_bend_c, 3, 7552
5, 29709, Pitch_bend_c, 3, 7680
5, 29710, Pitch_bend_c, 3, 7808
5, 29711, Pitch_bend_c, 3, 7936
5, 29712, Pitch_bend_c, 3, 8064
5, 29713, Pitch_bend_c, 3, 8192
5, 29730, Note_on_c, 3, 66, 0
5, 29730, Note_on_c, 3, 64, 100
5, 29760, Note_on_c, 3, 64, 0
5, 29760, Note_on_c, 3, 73, 100
5, 29760, Note_on_c, 3, 61, 100
5, 30120, Note_on_c, 3, 61, 0
5, 30120, Note_on_c, 3, 73, 0
5, 30120, Note_on_c, 3, 72, 100
5, 30120, Note_on_c, 3, 63, 100
5, 30121, Pitch_bend_c, 3, 128
5, 30169, Pitch_bend_c, 3, 256
5, 30171, Pitch_bend_c, 3, 384
5, 30174, Pitch_bend_c, 3, 512
5, 30175, Pitch_bend_c, 3, 640
5, 30176, Pitch_bend_c, 3, 768
5, 30177, Pitch_bend_c, 3, 896
5, 30179, Pitch_bend_c, 3, 1024
5, 30180, Pitch_bend_c, 3, 1152
5, 30181, Pitch_bend_c, 3, 1280
5, 30183, Pitch_bend_c, 3, 1408
5, 30185, Pitch_bend_c, 3, 1664
5, 30188, Pitch_bend_c, 3, 1920
5, 30190, Pitch_bend_c, 3, 2176
5, 30192, Pitch_bend_c, 3, 2432
5, 30194, Pitch_bend_c, 3, 2688
5, 30196, Pitch_bend_c, 3, 2816
5, 30197, Pitch_bend_c, 3, 2944
5, 30198, Pitch_bend_c, 3, 3200
5, 30199, Pitch_bend_c, 3, 3456
5, 30201, Pitch_bend_c, 3, 3712
5, 30203, Pitch_bend_c, 3, 3968
5, 30204, Pitch_bend_c, 3, 4224
5, 30205, Pitch_bend_c, 3, 4480
5, 30206, Pitch_bend_c, 3, 4736
5, 30207, Pitch_bend_c, 3, 4864
5, 30208, Pitch_bend_c, 3, 4992
5, 30209, Pitch_bend_c, 3, 5248
5, 30210, Pitch_bend_c, 3, 5504
5, 30211, Pitch_bend_c, 3, 5760
5, 30212, Pitch_bend_c, 3, 6016
5, 30213, Pitch_bend_c, 3, 6144
5, 30214, Pitch_bend_c, 3, 6400
5, 30215, Pitch_bend_c, 3, 6656
5, 30216, Pitch_bend_c, 3, 6912
5, 30217, Pitch_bend_c, 3, 7168
5, 30218, Pitch_bend_c, 3, 7296
5, 30219, Pitch_bend_c, 3, 7552
5, 30220, Pitch_bend_c, 3, 7808
5, 30221, Pitch_bend_c, 3, 8064
5, 30222, Pitch_bend_c, 3, 8576
5, 30223, Pitch_bend_c, 3, 8704
5, 30224, Pitch_bend_c, 3, 9088
5, 30225, Pitch_bend_c, 3, 9216
5, 30226, Pitch_bend_c, 3, 9600
5, 30227, Pitch_bend_c, 3, 9856
5, 30228, Pitch_bend_c, 3, 10112
5, 30229, Pitch_bend_c, 3, 10368
5, 30230, Pitch_bend_c, 3, 10624
5, 30231, Pitch_bend_c, 3, 10880
5, 30232, Pitch_bend_c, 3, 11008
5, 30233, Pitch_bend_c, 3, 11136
5, 30234, Pitch_bend_c, 3, 11392
5, 30235, Pitch_bend_c, 3, 11648
5, 30237, Pitch_bend_c, 3, 11904
5, 30238, Pitch_bend_c, 3, 12032
5, 30239, Pitch_bend_c, 3, 12160
5, 30241, Pitch_bend_c, 3, 12288
5, 30276, Pitch_bend_c, 3, 12544
5, 30278, Pitch_bend_c, 3, 12672
5, 30285, Pitch_bend_c, 3, 12544
5, 30293, Pitch_bend_c, 3, 11904
5, 30300, Pitch_bend_c, 3, 12032
5, 30301, Pitch_bend_c, 3, 11648
5, 30307, Pitch_bend_c, 3, 11776
5, 30313, Pitch_bend_c, 3, 12032
5, 30319, Pitch_bend_c, 3, 12416
5, 30327, Pitch_bend_c, 3, 12672
5, 30335, Pitch_bend_c, 3, 13440
5, 30336, Pitch_bend_c, 3, 13312
5, 30339, Pitch_bend_c, 3, 12544
5, 30341, Pitch_bend_c, 3, 12800
5, 30342, Pitch_bend_c, 3, 12544
5, 30349, Pitch_bend_c, 3, 12032
5, 30350, Pitch_bend_c, 3, 11776
5, 30356, Pitch_bend_c, 3, 11904
5, 30358, Pitch_bend_c, 3, 12160
5, 30361, Pitch_bend_c, 3, 12416
5, 30362, Pitch_bend_c, 3, 12544
5, 30363, Pitch_bend_c, 3, 12416
5, 30369, Pitch_bend_c, 3, 12672
5, 30371, Pitch_bend_c, 3, 12544
5, 30373, Pitch_bend_c, 3, 12672
5, 30374, Pitch_bend_c, 3, 12800
5, 30376, Pitch_bend_c, 3, 11392
5, 30386, Pitch_bend_c, 3, 11520
5, 30392, Pitch_bend_c, 3, 11776
5, 30399, Pitch_bend_c, 3, 12800
5, 30405, Pitch_bend_c, 3, 13568
5, 30411, Pitch_bend_c, 3, 13312
5, 30417, Pitch_bend_c, 3, 13440
5, 30418, Pitch_bend_c, 3, 13568
5, 30419, Pitch_bend_c, 3, 12288
5, 30420, Pitch_bend_c, 3, 12032
5, 30428, Pitch_bend_c, 3, 12288
5, 30430, Pitch_bend_c, 3, 12160
5, 30438, Pitch_bend_c, 3, 12416
5, 30444, Pitch_bend_c, 3, 13184
5, 30452, Pitch_bend_c, 3, 12416
5, 30453, Pitch_bend_c, 3, 12160
5, 30461, Pitch_bend_c, 3, 12288
5, 30463, Pitch_bend_c, 3, 10752
5, 30465, Pitch_bend_c, 3, 9728
5, 30473, Pitch_bend_c, 3, 10496
5, 30479, Pitch_bend_c, 3, 11520
5, 30481, Pitch_bend_c, 3, 11648
5, 30487, Pitch_bend_c, 3, 12416
5, 30489, Pitch_bend_c, 3, 13440
5, 30490, Pitch_bend_c, 3, 12288
5, 30496, Pitch_bend_c, 3, 13056
5, 30498, Pitch_bend_c, 3, 14080
5, 30499, Pitch_bend_c, 3, 13056
5, 30505, Pitch_bend_c, 3, 13184
5, 30507, Pitch_bend_c, 3, 13440
5, 30509, Pitch_bend_c, 3, 12544
5, 30511, Pitch_bend_c, 3, 12416
5, 30520, Pitch_bend_c, 3, 12544
5, 30521, Pitch_bend_c, 3, 11264
5, 30522, Pitch_bend_c, 3, 11008
5, 30528, Pitch_bend_c, 3, 11136
5, 30534, Pitch_bend_c, 3, 11904
5, 30536, Pitch_bend_c, 3, 12672
5, 30538, Pitch_bend_c, 3, 13440
5, 30539, Pitch_bend_c, 3, 12288
5, 30541, Pitch_bend_c, 3, 13056
5, 30543, Pitch_bend_c, 3, 13440
5, 30544, Pitch_bend_c, 3, 12672
5, 30550, Pitch_bend_c, 3, 12416
5, 30559, Pitch_bend_c, 3, 12544
5, 30561, Pitch_bend_c, 3, 12800
5, 30563, Pitch_bend_c, 3, 13056
5, 30564, Pitch_bend_c, 3, 12800
5, 30566, Pitch_bend_c, 3, 13056
5, 30569, Pitch_bend_c, 3, 12928
5, 30575, Pitch_bend_c, 3, 12160
5, 30577, Pitch_bend_c, 3, 12032
5, 30580, Pitch_bend_c, 3, 12160
5, 30582, Pitch_bend_c, 3, 12288
5, 30583, Pitch_bend_c, 3, 12416
5, 30584, Pitch_bend_c, 3, 12544
5, 30585, Pitch_bend_c, 3, 12672
5, 30590, Pitch_bend_c, 3, 12288
5, 30592, Pitch_bend_c, 3, 12416
5, 30598, Pitch_bend_c, 3, 12288
5, 30599, Pitch_bend_c, 3, 12160
5, 30600, Note_on_c, 3, 63, 0
5, 30600, Note_on_c, 3, 72, 0
5, 30600, Note_on_c, 3, 66, 100
5, 30600, Pitch_bend_c, 3, 0
5, 30601, Pitch_bend_c, 3, 128
5, 30602, Pitch_bend_c, 3, 384
5, 30603, Pitch_bend_c, 3, 640
5, 30604, Pitch_bend_c, 3, 896
5, 30605, Pitch_bend_c, 3, 1152
5, 30606, Pitch_bend_c, 3, 1408
5, 30607, Pitch_bend_c, 3, 1664
5, 30608, Pitch_bend_c, 3, 1920
5, 30609, Pitch_bend_c, 3, 2176
5, 30610, Pitch_bend_c, 3, 2432
5, 30611, Pitch_bend_c, 3, 2688
5, 30612, Pitch_bend_c, 3, 2944
5, 30613, Pitch_bend_c, 3, 3200
5, 30614, Pitch_bend_c, 3, 3456
5, 30615, Pitch_bend_c, 3, 3712
5, 30616, Pitch_bend_c, 3, 3968
5, 30617, Pitch_bend_c, 3, 4096
5, 30618, Pitch_bend_c, 3, 4352
5, 30619, Pitch_bend_c, 3, 4608
5, 30620, Pitch_bend_c, 3, 4864
5, 30621, Pitch_bend_c, 3, 5120
5, 30622, Pitch_bend_c, 3, 5376
5, 30623, Pitch_bend_c, 3, 5632
5, 30624, Pitch_bend_c, 3, 5888
5, 30625, Pitch_bend_c, 3, 6144
5, 30626, Pitch_bend_c, 3, 6400
5, 30627, Pitch_bend_c, 3, 6656
5, 30628, Pitch_bend_c, 3, 6912
5, 30629, Pitch_bend_c, 3, 7168
5, 30630, Pitch_bend_c, 3, 7424
5, 30631, Pitch_bend_c, 3, 7680
5, 30632, Pitch_bend_c, 3, 7936
5, 30633, Pitch_bend_c, 3, 8192
5, 30720, Note_on_c, 3, 66, 0
5, 30720, Note_on_c, 3, 66, 100
5, 30780, Note_on_c, 3, 66, 0
5, 30780, Note_on_c, 3, 68, 100
5, 30930, Note_on_c, 3, 68, 0
5, 30960, Pitch_bend_c, 3, 6272
5, 30960, Note_on_c, 3, 66, 100
5, 30964, Pitch_bend_c, 3, 6400
5, 30966, Pitch_bend_c, 3, 6528
5, 30968, Pitch_bend_c, 3, 6656
5, 30969, Pitch_bend_c, 3, 6784
5, 30970, Pitch_bend_c, 3, 7040
5, 30973, Pitch_bend_c, 3, 7296
5, 30974, Pitch_bend_c, 3, 7552
5, 30976, Pitch_bend_c, 3, 7680
5, 30977, Pitch_bend_c, 3, 8064
5, 30978, Pitch_bend_c, 3, 8320
5, 30979, Pitch_bend_c, 3, 8576
5, 30980, Pitch_bend_c, 3, 8832
5, 30982, Pitch_bend_c, 3, 8448
5, 30991, Pitch_bend_c, 3, 8576
5, 30993, Pitch_bend_c, 3, 8832
5, 30994, Pitch_bend_c, 3, 8576
5, 30995, Pitch_bend_c, 3, 8064
5, 31002, Pitch_bend_c, 3, 8192
5, 31004, Pitch_bend_c, 3, 8320
5, 31005, Pitch_bend_c, 3, 8576
5, 31011, Pitch_bend_c, 3, 8704
5, 31013, Pitch_bend_c, 3, 8320
5, 31014, Pitch_bend_c, 3, 8576
5, 31015, Pitch_bend_c, 3, 8832
5, 31016, Pitch_bend_c, 3, 8448
5, 31022, Pitch_bend_c, 3, 8576
5, 31024, Pitch_bend_c, 3, 7680
5, 31036, Pitch_bend_c, 3, 7936
5, 31037, Pitch_bend_c, 3, 8192
5, 31044, Pitch_bend_c, 3, 8320
5, 31050, Note_on_c, 3, 66, 0
5, 31054, Pitch_bend_c, 3, 7552
5, 31055, Pitch_bend_c, 3, 7680
5, 31056, Pitch_bend_c, 3, 9728
5, 31061, Pitch_bend_c, 3, 7936
5, 31063, Pitch_bend_c, 3, 8064
5, 31064, Pitch_bend_c, 3, 8576
5, 31080, Pitch_bend_c, 3, 6656
5, 31080, Note_on_c, 3, 64, 100
5, 31082, Pitch_bend_c, 3, 6784
5, 31084, Pitch_bend_c, 3, 6912
5, 31087, Pitch_bend_c, 3, 7040
5, 31088, Pitch_bend_c, 3, 7168
5, 31091, Pitch_bend_c, 3, 7296
5, 31092, Pitch_bend_c, 3, 7424
5, 31093, Pitch_bend_c, 3, 7552
5, 31094, Pitch_bend_c, 3, 7680
5, 31095, Pitch_bend_c, 3, 7808
5, 31096, Pitch_bend_c, 3, 7936
5, 31097, Pitch_bend_c, 3, 8192
5, 31098, Pitch_bend_c, 3, 8320
5, 31099, Pitch_bend_c, 3, 8448
5, 31100, Pitch_bend_c, 3, 8576
5, 31101, Pitch_bend_c, 3, 7936
5, 31109, Pitch_bend_c, 3, 8192
5, 31110, Pitch_bend_c, 3, 8064
5, 31111, Pitch_bend_c, 3, 8192
5, 31113, Pitch_bend_c, 3, 7168
5, 31125, Pitch_bend_c, 3, 7936
5, 31131, Pitch_bend_c, 3, 8704
5, 31134, Pitch_bend_c, 3, 8448
5, 31142, Pitch_bend_c, 3, 8704
5, 31143, Pitch_bend_c, 3, 8192
5, 31151, Pitch_bend_c, 3, 7168
5, 31165, Pitch_bend_c, 3, 7936
5, 31166, Pitch_bend_c, 3, 7808
5, 31167, Pitch_bend_c, 3, 8064
5, 31170, Note_on_c, 3, 64, 0
5, 31173, Pitch_bend_c, 3, 8320
5, 31174, Pitch_bend_c, 3, 8576
5, 31177, Pitch_bend_c, 3, 8832
5, 31178, Pitch_bend_c, 3, 8960
5, 31182, Pitch_bend_c, 3, 8832
5, 31183, Pitch_bend_c, 3, 8704
5, 31184, Pitch_bend_c, 3, 8576
5, 31186, Pitch_bend_c, 3, 8320
5, 31190, Pitch_bend_c, 3, 8192
5, 31200, Note_on_c, 3, 66, 100
5, 31201, Pitch_bend_c, 3, 5632
5, 31203, Pitch_bend_c, 3, 5760
5, 31205, Pitch_bend_c, 3, 6016
5, 31209, Pitch_bend_c, 3, 6272
5, 31210, Pitch_bend_c, 3, 6400
5, 31211, Pitch_bend_c, 3, 6528
5, 31212, Pitch_bend_c, 3, 6656
5, 31213, Pitch_bend_c, 3, 6784
5, 31215, Pitch_bend_c, 3, 7040
5, 31216, Pitch_bend_c, 3, 7296
5, 31217, Pitch_bend_c, 3, 7552
5, 31218, Pitch_bend_c, 3, 7808
5, 31219, Pitch_bend_c, 3, 8064
5, 31220, Pitch_bend_c, 3, 8320
5, 31221, Pitch_bend_c, 3, 8448
5, 31223, Pitch_bend_c, 3, 8576
5, 31228, Pitch_bend_c, 3, 8448
5, 31229, Pitch_bend_c, 3, 8192
5, 31230, Pitch_bend_c, 3, 8064
5, 31234, Pitch_bend_c, 3, 8320
5, 31235, Pitch_bend_c, 3, 8576
5, 31237, Pitch_bend_c, 3, 8704
5, 31238, Pitch_bend_c, 3, 8832
5, 31240, Pitch_bend_c, 3, 8704
5, 31241, Pitch_bend_c, 3, 8448
5, 31242, Pitch_bend_c, 3, 8192
5, 31244, Pitch_bend_c, 3, 8576
5, 31245, Pitch_bend_c, 3, 8832
5, 31248, Pitch_bend_c, 3, 8576
5, 31249, Pitch_bend_c, 3, 8448
5, 31250, Pitch_bend_c, 3, 8192
5, 31253, Pitch_bend_c, 3, 8448
5, 31254, Pitch_bend_c, 3, 8576
5, 31255, Pitch_bend_c, 3, 8832
5, 31260, Pitch_bend_c, 3, 8064
5, 31265, Pitch_bend_c, 3, 8320
5, 31267, Pitch_bend_c, 3, 8576
5, 31273, Pitch_bend_c, 3, 8064
5, 31274, Pitch_bend_c, 3, 8320
5, 31275, Pitch_bend_c, 3, 8704
5, 31279, Pitch_bend_c, 3, 7936
5, 31282, Pitch_bend_c, 3, 8320
5, 31283, Pitch_bend_c, 3, 8576
5, 31286, Pitch_bend_c, 3, 8704
5, 31288, Pitch_bend_c, 3, 8576
5, 31289, Pitch_bend_c, 3, 8704
5, 31291, Pitch_bend_c, 3, 8832
5, 31293, Pitch_bend_c, 3, 8448
5, 31294, Pitch_bend_c, 3, 7808
5, 31296, Pitch_bend_c, 3, 8064
5, 31297, Pitch_bend_c, 3, 8576
5, 31299, Pitch_bend_c, 3, 8832
5, 31304, Pitch_bend_c, 3, 8448
5, 31305, Pitch_bend_c, 3, 7680
5, 31306, Pitch_bend_c, 3, 7424
5, 31307, Pitch_bend_c, 3, 6656
5, 31308, Pitch_bend_c, 3, 6400
5, 31309, Pitch_bend_c, 3, 5888
5, 31310, Pitch_bend_c, 3, 5632
5, 31311, Pitch_bend_c, 3, 5376
5, 31312, Pitch_bend_c, 3, 4864
5, 31313, Pitch_bend_c, 3, 4352
5, 31314, Pitch_bend_c, 3, 3328
5, 31315, Pitch_bend_c, 3, 2048
5, 31316, Pitch_bend_c, 3, 1280
5, 31317, Pitch_bend_c, 3, 768
5, 31318, Pitch_bend_c, 3, 512
5, 31319, Pitch_bend_c, 3, 256
5, 31320, Note_on_c, 3, 66, 0
5, 31320, Pitch_bend_c, 3, 128
5, 31335, Pitch_bend_c, 3, 8192
5, 31595, Program_c, 3, 29
5, 31680, Note_on_c, 3, 64, 100
5, 31680, Note_on_c, 3, 76, 110
5, 31710, Note_on_c, 3, 76, 0
5, 31710, Note_on_c, 3, 64, 0
5, 31710, Note_on_c, 3, 64, 100
5, 31710, Note_on_c, 3, 76, 110
5, 31740, Note_on_c, 3, 76, 0
5, 31740, Note_on_c, 3, 64, 0
5, 31740, Note_on_c, 3, 64, 100
5, 31740, Note_on_c, 3, 76, 110
5, 31800, Note_on_c, 3, 76, 0
5, 31800, Note_on_c, 3, 64, 0
5, 31800, Pitch_bend_c, 3, 128
5, 31800, Note_on_c, 3, 78, 100
5, 31800, Note_on_c, 3, 66, 100
5, 31802, Pitch_bend_c, 3, 512
5, 31804, Pitch_bend_c, 3, 640
5, 31806, Pitch_bend_c, 3, 896
5, 31810, Pitch_bend_c, 3, 1152
5, 31814, Pitch_bend_c, 3, 1408
5, 31816, Pitch_bend_c, 3, 1536
5, 31818, Pitch_bend_c, 3, 1664
5, 31820, Pitch_bend_c, 3, 1920
5, 31822, Pitch_bend_c, 3, 2176
5, 31824, Pitch_bend_c, 3, 2432
5, 31826, Pitch_bend_c, 3, 2688
5, 31828, Pitch_bend_c, 3, 2944
5, 31830, Pitch_bend_c, 3, 3200
5, 31831, Pitch_bend_c, 3, 3456
5, 31832, Pitch_bend_c, 3, 3712
5, 31834, Pitch_bend_c, 3, 4480
5, 31835, Pitch_bend_c, 3, 4736
5, 31836, Pitch_bend_c, 3, 5120
5, 31837, Pitch_bend_c, 3, 5248
5, 31838, Pitch_bend_c, 3, 5376
5, 31839, Pitch_bend_c, 3, 5632
5, 31840, Pitch_bend_c, 3, 5888
5, 31841, Pitch_bend_c, 3, 6144
5, 31842, Pitch_bend_c, 3, 6272
5, 31843, Pitch_bend_c, 3, 6656
5, 31844, Pitch_bend_c, 3, 7168
5, 31845, Pitch_bend_c, 3, 7680
5, 31846, Pitch_bend_c, 3, 8064
5, 31847, Pitch_bend_c, 3, 8192
5, 31860, Note_on_c, 3, 66, 0
5, 31860, Note_on_c, 3, 78, 0
5, 31860, Note_on_c, 3, 66, 100
5, 31860, Note_on_c, 3, 78, 100
5, 31890, Note_on_c, 3, 78, 0
5, 31890, Note_on_c, 3, 66, 0
5, 31890, Note_on_c, 3, 66, 100
5, 31890, Note_on_c, 3, 78, 100
5, 31920, Note_on_c, 3, 78, 0
5, 31920, Note_on_c, 3, 66, 0
5, 31920, Note_on_c, 3, 80, 100
5, 31920, Note_on_c, 3, 68, 100
5, 31921, Pitch_bend_c, 3, 128
5, 31929, Pitch_bend_c, 3, 384
5, 31931, Pitch_bend_c, 3, 512
5, 31937, Pitch_bend_c, 3, 640
5, 31939, Pitch_bend_c, 3, 896
5, 31941, Pitch_bend_c, 3, 1024
5, 31942, Pitch_bend_c, 3, 1152
5, 31943, Pitch_bend_c, 3, 1408
5, 31945, Pitch_bend_c, 3, 1664
5, 31947, Pitch_bend_c, 3, 2432
5, 31949, Pitch_bend_c, 3, 3200
5, 31951, Pitch_bend_c, 3, 3456
5, 31952, Pitch_bend_c, 3, 3712
5, 31953, Pitch_bend_c, 3, 4480
5, 31954, Pitch_bend_c, 3, 4736
5, 31955, Pitch_bend_c, 3, 4992
5, 31956, Pitch_bend_c, 3, 5760
5, 31957, Pitch_bend_c, 3, 6016
5, 31958, Pitch_bend_c, 3, 6272
5, 31959, Pitch_bend_c, 3, 6784
5, 31960, Pitch_bend_c, 3, 7040
5, 31961, Pitch_bend_c, 3, 7552
5, 31962, Pitch_bend_c, 3, 8064
5, 31964, Pitch_bend_c, 3, 8192
5, 31980, Note_on_c, 3, 68, 0
5, 31980, Note_on_c, 3, 80, 0
5, 31980, Note_on_c, 3, 68, 100
5, 31980, Note_on_c, 3, 80, 100
5, 32010, Note_on_c, 3, 80, 0
5, 32010, Note_on_c, 3, 68, 0
5, 32010, Note_on_c, 3, 68, 100
5, 32010, Note_on_c, 3, 80, 100
5, 32040, Note_on_c, 3, 80, 0
5, 32040, Note_on_c, 3, 68, 0
5, 32040, Pitch_bend_c, 3, 128
5, 32040, Note_on_c, 3, 83, 100
5, 32040, Note_on_c, 3, 71, 100
5, 32045, Pitch_bend_c, 3, 384
5, 32049, Pitch_bend_c, 3, 640
5, 32053, Pitch_bend_c, 3, 896
5, 32055, Pitch_bend_c, 3, 1024
5, 32057, Pitch_bend_c, 3, 1152
5, 32058, Pitch_bend_c, 3, 1408
5, 32060, Pitch_bend_c, 3, 1536
5, 32061, Pitch_bend_c, 3, 1664
5, 32063, Pitch_bend_c, 3, 1920
5, 32064, Pitch_bend_c, 3, 2176
5, 32065, Pitch_bend_c, 3, 2304
5, 32066, Pitch_bend_c, 3, 2432
5, 32068, Pitch_bend_c, 3, 2688
5, 32069, Pitch_bend_c, 3, 2944
5, 32070, Pitch_bend_c, 3, 3200
5, 32072, Pitch_bend_c, 3, 3456
5, 32073, Pitch_bend_c, 3, 3712
5, 32075, Pitch_bend_c, 3, 3968
5, 32076, Pitch_bend_c, 3, 4224
5, 32077, Pitch_bend_c, 3, 4480
5, 32078, Pitch_bend_c, 3, 4992
5, 32079, Pitch_bend_c, 3, 5248
5, 32080, Pitch_bend_c, 3, 5504
5, 32082, Pitch_bend_c, 3, 5760
5, 32084, Pitch_bend_c, 3, 6144
5, 32086, Pitch_bend_c, 3, 6400
5, 32087, Pitch_bend_c, 3, 6656
5, 32088, Pitch_bend_c, 3, 6912
5, 32089, Pitch_bend_c, 3, 7168
5, 32090, Pitch_bend_c, 3, 7680
5, 32091, Pitch_bend_c, 3, 7936
5, 32093, Pitch_bend_c, 3, 8064
5, 32094, Pitch_bend_c, 3, 8192
5, 32100, Note_on_c, 3, 71, 0
5, 32100, Note_on_c, 3, 83, 0
5, 32100, Note_on_c, 3, 83, 100
5, 32100, Note_on_c, 3, 71, 100
5, 32130, Note_on_c, 3, 71, 0
5, 32130, Note_on_c, 3, 83, 0
5, 32130, Note_on_c, 3, 71, 100
5, 32130, Note_on_c, 3, 83, 100
5, 32160, Note_on_c, 3, 83, 0
5, 32160, Note_on_c, 3, 71, 0
5, 32160, Note_on_c, 3, 81, 120
5, 32160, Note_on_c, 3, 69, 100
5, 32160, Pitch_bend_c, 3, 13184
5, 32162, Pitch_bend_c, 3, 13312
5, 32163, Pitch_bend_c, 3, 13440
5, 32164, Pitch_bend_c, 3, 13696
5, 32166, Pitch_bend_c, 3, 13952
5, 32167, Pitch_bend_c, 3, 14208
5, 32168, Pitch_bend_c, 3, 14336
5, 32170, Pitch_bend_c, 3, 14464
5, 32171, Pitch_bend_c, 3, 14720
5, 32172, Pitch_bend_c, 3, 14976
5, 32174, Pitch_bend_c, 3, 15232
5, 32175, Pitch_bend_c, 3, 15488
5, 32176, Pitch_bend_c, 3, 15744
5, 32177, Pitch_bend_c, 3, 15872
5, 32178, Pitch_bend_c, 3, 16128
5, 32179, Pitch_bend_c, 3, 16256
5, 32182, Pitch_bend_c, 3, 16383
5, 32260, Pitch_bend_c, 3, 16256
5, 32261, Pitch_bend_c, 3, 16000
5, 32262, Pitch_bend_c, 3, 15232
5, 32263, Pitch_bend_c, 3, 14464
5, 32264, Pitch_bend_c, 3, 14208
5, 32265, Pitch_bend_c, 3, 13696
5, 32266, Pitch_bend_c, 3, 12672
5, 32267, Pitch_bend_c, 3, 11136
5, 32268, Pitch_bend_c, 3, 10368
5, 32269, Pitch_bend_c, 3, 9088
5, 32270, Pitch_bend_c, 3, 8192
5, 32271, Pitch_bend_c, 3, 7168
5, 32272, Pitch_bend_c, 3, 6400
5, 32273, Pitch_bend_c, 3, 5632
5, 32274, Pitch_bend_c, 3, 4608
5, 32275, Pitch_bend_c, 3, 3328
5, 32276, Pitch_bend_c, 3, 2560
5, 32277, Pitch_bend_c, 3, 1152
5, 32278, Pitch_bend_c, 3, 128
5, 32280, Note_on_c, 3, 69, 0
5, 32280, Note_on_c, 3, 81, 0
5, 32280, Pitch_bend_c, 3, 8192
5, 32580, Pitch_bend_c, 3, 0
5, 32580, Note_on_c, 3, 66, 100
5, 32581, Pitch_bend_c, 3, 640
5, 32582, Pitch_bend_c, 3, 1280
5, 32583, Pitch_bend_c, 3, 2048
5, 32584, Pitch_bend_c, 3, 2688
5, 32585, Pitch_bend_c, 3, 3328
5, 32586, Pitch_bend_c, 3, 4096
5, 32587, Pitch_bend_c, 3, 4736
5, 32588, Pitch_bend_c, 3, 5376
5, 32589, Pitch_bend_c, 3, 6144
5, 32590, Pitch_bend_c, 3, 6784
5, 32591, Pitch_bend_c, 3, 7424
5, 32592, Pitch_bend_c, 3, 8192
5, 32610, Note_on_c, 3, 66, 0
5, 32610, Note_on_c, 3, 68, 100
5, 32640, Note_on_c, 3, 68, 0
5, 32640, Note_on_c, 3, 73, 100
5, 32670, Note_on_c, 3, 73, 0
5, 32670, Note_on_c, 3, 71, 100
5, 32700, Note_on_c, 3, 71, 0
5, 32700, Note_on_c, 3, 73, 100
5, 32730, Note_on_c, 3, 73, 0
5, 32730, Note_on_c, 3, 71, 100
5, 32760, Note_on_c, 3, 71, 0
5, 32760, Note_on_c, 3, 68, 100
5, 32790, Note_on_c, 3, 68, 0
5, 32790, Pitch_bend_c, 3, 4096
5, 32790, Note_on_c, 3, 66, 100
5, 32791, Pitch_bend_c, 3, 4224
5, 32792, Pitch_bend_c, 3, 4352
5, 32793, Pitch_bend_c, 3, 4480
5, 32794, Pitch_bend_c, 3, 4608
5, 32795, Pitch_bend_c, 3, 4736
5, 32796, Pitch_bend_c, 3, 4992
5, 32798, Pitch_bend_c, 3, 5248
5, 32799, Pitch_bend_c, 3, 5504
5, 32800, Pitch_bend_c, 3, 5760
5, 32801, Pitch_bend_c, 3, 6016
5, 32802, Pitch_bend_c, 3, 6528
5, 32803, Pitch_bend_c, 3, 7296
5, 32804, Pitch_bend_c, 3, 7808
5, 32805, Pitch_bend_c, 3, 8192
5, 32820, Note_on_c, 3, 66, 0
5, 32820, Note_on_c, 3, 68, 100
5, 32850, Note_on_c, 3, 68, 0
5, 32850, Note_on_c, 3, 73, 100
5, 32880, Note_on_c, 3, 73, 0
5, 32880, Note_on_c, 3, 71, 100
5, 32910, Note_on_c, 3, 71, 0
5, 32910, Note_on_c, 3, 68, 100
5, 32940, Note_on_c, 3, 68, 0
5, 32940, Pitch_bend_c, 3, 0
5, 32940, Note_on_c, 3, 68, 100
5, 32941, Pitch_bend_c, 3, 640
5, 32942, Pitch_bend_c, 3, 1280
5, 32943, Pitch_bend_c, 3, 2048
5, 32944, Pitch_bend_c, 3, 2688
5, 32945, Pitch_bend_c, 3, 3328
5, 32946, Pitch_bend_c, 3, 4096
5, 32947, Pitch_bend_c, 3, 4736
5, 32948, Pitch_bend_c, 3, 5376
5, 32949, Pitch_bend_c, 3, 6144
5, 32950, Pitch_bend_c, 3, 6784
5, 32951, Pitch_bend_c, 3, 7424
5, 32952, Pitch_bend_c, 3, 8192
5, 32970, Note_on_c, 3, 68, 0
5, 32970, Note_on_c, 3, 66, 100
5, 33000, Note_on_c, 3, 66, 0
5, 33000, Note_on_c, 3, 64, 100
5, 33030, Note_on_c, 3, 64, 0
5, 33030, Note_on_c, 3, 61, 100
5, 33060, Note_on_c, 3, 61, 0
5, 33060, Note_on_c, 3, 64, 100
5, 33090, Note_on_c, 3, 64, 0
5, 33090, Note_on_c, 3, 66, 100
5, 33120, Note_on_c, 3, 66, 0
5, 33120, Pitch_bend_c, 3, 0
5, 33120, Note_on_c, 3, 68, 100
5, 33122, Pitch_bend_c, 3, 128
5, 33124, Pitch_bend_c, 3, 256
5, 33125, Pitch_bend_c, 3, 384
5, 33127, Pitch_bend_c, 3, 512
5, 33128, Pitch_bend_c, 3, 640
5, 33130, Pitch_bend_c, 3, 768
5, 33132, Pitch_bend_c, 3, 896
5, 33133, Pitch_bend_c, 3, 1024
5, 33135, Pitch_bend_c, 3, 1152
5, 33136, Pitch_bend_c, 3, 1280
5, 33138, Pitch_bend_c, 3, 1408
5, 33140, Pitch_bend_c, 3, 1536
5, 33141, Pitch_bend_c, 3, 1664
5, 33143, Pitch_bend_c, 3, 1792
5, 33144, Pitch_bend_c, 3, 1920
5, 33146, Pitch_bend_c, 3, 2048
5, 33148, Pitch_bend_c, 3, 2176
5, 33149, Pitch_bend_c, 3, 2304
5, 33151, Pitch_bend_c, 3, 2432
5, 33152, Pitch_bend_c, 3, 2560
5, 33154, Pitch_bend_c, 3, 2688
5, 33156, Pitch_bend_c, 3, 2816
5, 33157, Pitch_bend_c, 3, 2944
5, 33159, Pitch_bend_c, 3, 3072
5, 33160, Pitch_bend_c, 3, 3200
5, 33162, Pitch_bend_c, 3, 3328
5, 33164, Pitch_bend_c, 3, 3456
5, 33165, Pitch_bend_c, 3, 3584
5, 33167, Pitch_bend_c, 3, 3712
5, 33168, Pitch_bend_c, 3, 3840
5, 33170, Pitch_bend_c, 3, 3968
5, 33171, Pitch_bend_c, 3, 4096
5, 33173, Pitch_bend_c, 3, 4224
5, 33175, Pitch_bend_c, 3, 4352
5, 33176, Pitch_bend_c, 3, 4480
5, 33178, Pitch_bend_c, 3, 4608
5, 33179, Pitch_bend_c, 3, 4736
5, 33181, Pitch_bend_c, 3, 4864
5, 33183, Pitch_bend_c, 3, 4992
5, 33184, Pitch_bend_c, 3, 5120
5, 33186, Pitch_bend_c, 3, 5248
5, 33187, Pitch_bend_c, 3, 5376
5, 33189, Pitch_bend_c, 3, 5504
5, 33191, Pitch_bend_c, 3, 5632
5, 33192, Pitch_bend_c, 3, 5760
5, 33194, Pitch_bend_c, 3, 5888
5, 33195, Pitch_bend_c, 3, 6016
5, 33197, Pitch_bend_c, 3, 6144
5, 33199, Pitch_bend_c, 3, 6272
5, 33200, Pitch_bend_c, 3, 6400
5, 33202, Pitch_bend_c, 3, 6528
5, 33203, Pitch_bend_c, 3, 6656
5, 33205, Pitch_bend_c, 3, 6784
5, 33207, Pitch_bend_c, 3, 6912
5, 33208, Pitch_bend_c, 3, 7040
5, 33210, Pitch_bend_c, 3, 7168
5, 33211, Pitch_bend_c, 3, 7296
5, 33213, Pitch_bend_c, 3, 7424
5, 33215, Pitch_bend_c, 3, 7552
5, 33216, Pitch_bend_c, 3, 7680
5, 33218, Pitch_bend_c, 3, 7808
5, 33219, Pitch_bend_c, 3, 7936
5, 33221, Pitch_bend_c, 3, 8064
5, 33222, Pitch_bend_c, 3, 8192
5, 33226, Pitch_bend_c, 3, 8192
5, 33232, Pitch_bend_c, 3, 8448
5, 33233, Pitch_bend_c, 3, 8832
5, 33234, Pitch_bend_c, 3, 8448
5, 33235, Pitch_bend_c, 3, 7936
5, 33239, Pitch_bend_c, 3, 9088
5, 33241, Pitch_bend_c, 3, 8704
5, 33242, Pitch_bend_c, 3, 8448
5, 33243, Pitch_bend_c, 3, 8192
5, 33244, Pitch_bend_c, 3, 7808
5, 33245, Pitch_bend_c, 3, 7680
5, 33251, Pitch_bend_c, 3, 9088
5, 33253, Pitch_bend_c, 3, 8960
5, 33254, Pitch_bend_c, 3, 8448
5, 33255, Pitch_bend_c, 3, 7808
5, 33256, Pitch_bend_c, 3, 7680
5, 33257, Pitch_bend_c, 3, 7552
5, 33261, Pitch_bend_c, 3, 9216
5, 33264, Pitch_bend_c, 3, 7808
5, 33265, Pitch_bend_c, 3, 7680
5, 33266, Pitch_bend_c, 3, 7552
5, 33269, Pitch_bend_c, 3, 7680
5, 33270, Pitch_bend_c, 3, 8192
5, 33271, Pitch_bend_c, 3, 8704
5, 33272, Pitch_bend_c, 3, 8832
5, 33274, Pitch_bend_c, 3, 8704
5, 33275, Pitch_bend_c, 3, 7936
5, 33276, Pitch_bend_c, 3, 7680
5, 33282, Pitch_bend_c, 3, 7808
5, 33283, Pitch_bend_c, 3, 8192
5, 33284, Pitch_bend_c, 3, 8704
5, 33285, Pitch_bend_c, 3, 8960
5, 33287, Pitch_bend_c, 3, 9216
5, 33288, Pitch_bend_c, 3, 7936
5, 33289, Pitch_bend_c, 3, 7680
5, 33294, Pitch_bend_c, 3, 7936
5, 33295, Pitch_bend_c, 3, 8448
5, 33296, Pitch_bend_c, 3, 8576
5, 33297, Pitch_bend_c, 3, 8704
5, 33300, Pitch_bend_c, 3, 8192
5, 33301, Pitch_bend_c, 3, 7680
5, 33303, Pitch_bend_c, 3, 7424
5, 33307, Pitch_bend_c, 3, 7680
5, 33308, Pitch_bend_c, 3, 8192
5, 33309, Pitch_bend_c, 3, 8576
5, 33310, Pitch_bend_c, 3, 8704
5, 33311, Pitch_bend_c, 3, 8960
5, 33314, Pitch_bend_c, 3, 8192
5, 33315, Pitch_bend_c, 3, 8064
5, 33320, Pitch_bend_c, 3, 8448
5, 33321, Pitch_bend_c, 3, 8704
5, 33323, Pitch_bend_c, 3, 8064
5, 33324, Pitch_bend_c, 3, 7936
5, 33330, Pitch_bend_c, 3, 8192
5, 33331, Pitch_bend_c, 3, 8704
5, 33332, Pitch_bend_c, 3, 8960
5, 33333, Pitch_bend_c, 3, 9088
5, 33334, Pitch_bend_c, 3, 8704
5, 33335, Pitch_bend_c, 3, 7680
5, 33337, Pitch_bend_c, 3, 7552
5, 33338, Pitch_bend_c, 3, 7424
5, 33342, Pitch_bend_c, 3, 8192
5, 33343, Pitch_bend_c, 3, 8448
5, 33348, Pitch_bend_c, 3, 8576
5, 33349, Pitch_bend_c, 3, 8448
5, 33350, Pitch_bend_c, 3, 8192
5, 33360, Note_on_c, 3, 68, 0
5, 33480, Note_on_c, 3, 71, 100
5, 33481, Pitch_bend_c, 3, 128
5, 33495, Pitch_bend_c, 3, 256
5, 33496, Pitch_bend_c, 3, 384
5, 33499, Pitch_bend_c, 3, 512
5, 33501, Pitch_bend_c, 3, 640
5, 33504, Pitch_bend_c, 3, 768
5, 33505, Pitch_bend_c, 3, 896
5, 33506, Pitch_bend_c, 3, 1024
5, 33507, Pitch_bend_c, 3, 1152
5, 33510, Pitch_bend_c, 3, 1408
5, 33512, Pitch_bend_c, 3, 1536
5, 33513, Pitch_bend_c, 3, 1664
5, 33515, Pitch_bend_c, 3, 1792
5, 33516, Pitch_bend_c, 3, 1920
5, 33518, Pitch_bend_c, 3, 2048
5, 33519, Pitch_bend_c, 3, 2176
5, 33520, Pitch_bend_c, 3, 2304
5, 33521, Pitch_bend_c, 3, 2432
5, 33522, Pitch_bend_c, 3, 2560
5, 33523, Pitch_bend_c, 3, 2688
5, 33525, Pitch_bend_c, 3, 2816
5, 33526, Pitch_bend_c, 3, 2944
5, 33527, Pitch_bend_c, 3, 3072
5, 33528, Pitch_bend_c, 3, 3200
5, 33529, Pitch_bend_c, 3, 3328
5, 33530, Pitch_bend_c, 3, 3456
5, 33531, Pitch_bend_c, 3, 3584
5, 33532, Pitch_bend_c, 3, 3712
5, 33533, Pitch_bend_c, 3, 3840
5, 33534, Pitch_bend_c, 3, 4096
5, 33535, Pitch_bend_c, 3, 4224
5, 33537, Pitch_bend_c, 3, 4480
5, 33539, Pitch_bend_c, 3, 4736
5, 33540, Pitch_bend_c, 3, 4864
5, 33541, Pitch_bend_c, 3, 4992
5, 33542, Pitch_bend_c, 3, 5120
5, 33543, Pitch_bend_c, 3, 5248
5, 33544, Pitch_bend_c, 3, 5376
5, 33545, Pitch_bend_c, 3, 5504
5, 33546, Pitch_bend_c, 3, 5760
5, 33547, Pitch_bend_c, 3, 5888
5, 33548, Pitch_bend_c, 3, 6144
5, 33549, Pitch_bend_c, 3, 6272
5, 33550, Pitch_bend_c, 3, 6528
5, 33551, Pitch_bend_c, 3, 6784
5, 33552, Pitch_bend_c, 3, 7040
5, 33553, Pitch_bend_c, 3, 7296
5, 33554, Pitch_bend_c, 3, 7552
5, 33555, Pitch_bend_c, 3, 7808
5, 33556, Pitch_bend_c, 3, 8064
5, 33560, Pitch_bend_c, 3, 8192
5, 33570, Note_on_c, 3, 71, 0
5, 33570, Note_on_c, 3, 73, 100
5, 33600, Note_on_c, 3, 73, 0
5, 33600, Note_on_c, 3, 73, 100
5, 33630, Note_on_c, 3, 73, 0
5, 33630, Note_on_c, 3, 71, 100
5, 33660, Note_on_c, 3, 71, 0
5, 33660, Note_on_c, 3, 73, 100
5, 33690, Note_on_c, 3, 73, 0
5, 33690, Note_on_c, 3, 75, 100
5, 33720, Note_on_c, 3, 75, 0
5, 33720, Note_on_c, 3, 73, 100
5, 33750, Note_on_c, 3, 73, 0
5, 33750, Note_on_c, 3, 68, 100
5, 33780, Note_on_c, 3, 68, 0
5, 33780, Note_on_c, 3, 71, 100
5, 33810, Note_on_c, 3, 71, 0
5, 33810, Note_on_c, 3, 73, 100
5, 33840, Note_on_c, 3, 73, 0
5, 33840, Note_on_c, 3, 75, 100
5, 33870, Note_on_c, 3, 75, 0
5, 33870, Note_on_c, 3, 73, 100
5, 33900, Note_on_c, 3, 73, 0
5, 33900, Note_on_c, 3, 68, 100
5, 33930, Note_on_c, 3, 68, 0
5, 33930, Note_on_c, 3, 71, 100
5, 33960, Note_on_c, 3, 71, 0
5, 33960, Note_on_c, 3, 73, 100
5, 33990, Note_on_c, 3, 73, 0
5, 33990, Note_on_c, 3, 75, 100
5, 34020, Note_on_c, 3, 75, 0
5, 34020, Note_on_c, 3, 73, 100
5, 34050, Note_on_c, 3, 73, 0
5, 34050, Note_on_c, 3, 68, 100
5, 34080, Note_on_c, 3, 68, 0
5, 34080, Pitch_bend_c, 3, 0
5, 34080, Note_on_c, 3, 73, 100
5, 34081, Pitch_bend_c, 3, 256
5, 34082, Pitch_bend_c, 3, 640
5, 34083, Pitch_bend_c, 3, 1024
5, 34084, Pitch_bend_c, 3, 1408
5, 34085, Pitch_bend_c, 3, 1664
5, 34086, Pitch_bend_c, 3, 2048
5, 34087, Pitch_bend_c, 3, 2432
5, 34088, Pitch_bend_c, 3, 2816
5, 34089, Pitch_bend_c, 3, 3200
5, 34090, Pitch_bend_c, 3, 3456
5, 34091, Pitch_bend_c, 3, 3840
5, 34092, Pitch_bend_c, 3, 4224
5, 34093, Pitch_bend_c, 3, 4608
5, 34094, Pitch_bend_c, 3, 4864
5, 34095, Pitch_bend_c, 3, 5248
5, 34096, Pitch_bend_c, 3, 5632
5, 34097, Pitch_bend_c, 3, 6016
5, 34098, Pitch_bend_c, 3, 6400
5, 34099, Pitch_bend_c, 3, 6656
5, 34100, Pitch_bend_c, 3, 7040
5, 34101, Pitch_bend_c, 3, 7424
5, 34102, Pitch_bend_c, 3, 7808
5, 34103, Pitch_bend_c, 3, 8192
5, 34140, Note_on_c, 3, 73, 0
5, 34140, Note_on_c, 3, 73, 100
5, 34170, Note_on_c, 3, 73, 0
5, 34170, Note_on_c, 3, 71, 100
5, 34200, Note_on_c, 3, 71, 0
5, 34200, Note_on_c, 3, 73, 100
5, 34230, Note_on_c, 3, 73, 0
5, 34230, Note_on_c, 3, 66, 100
5, 34260, Note_on_c, 3, 66, 0
5, 34260, Note_on_c, 3, 68, 100
5, 34290, Note_on_c, 3, 68, 0
5, 34290, Note_on_c, 3, 73, 100
5, 34320, Note_on_c, 3, 73, 0
5, 34320, Note_on_c, 3, 71, 100
5, 34350, Note_on_c, 3, 71, 0
5, 34350, Note_on_c, 3, 68, 100
5, 34380, Note_on_c, 3, 68, 0
5, 34380, Pitch_bend_c, 3, 128
5, 34380, Note_on_c, 3, 68, 100
5, 34381, Pitch_bend_c, 3, 768
5, 34382, Pitch_bend_c, 3, 1408
5, 34383, Pitch_bend_c, 3, 2048
5, 34384, Pitch_bend_c, 3, 2816
5, 34385, Pitch_bend_c, 3, 3456
5, 34386, Pitch_bend_c, 3, 4096
5, 34387, Pitch_bend_c, 3, 4736
5, 34388, Pitch_bend_c, 3, 5504
5, 34389, Pitch_bend_c, 3, 6144
5, 34390, Pitch_bend_c, 3, 6784
5, 34391, Pitch_bend_c, 3, 7424
5, 34392, Pitch_bend_c, 3, 8192
5, 34410, Note_on_c, 3, 68, 0
5, 34410, Note_on_c, 3, 68, 100
5, 34440, Note_on_c, 3, 68, 0
5, 34440, Note_on_c, 3, 64, 100
5, 34500, Note_on_c, 3, 64, 0
5, 34500, Note_on_c, 3, 68, 100
5, 34560, Note_on_c, 3, 68, 0
5, 34620, Pitch_bend_c, 3, 0
5, 34620, Note_on_c, 3, 73, 100
5, 34621, Pitch_bend_c, 3, 256
5, 34622, Pitch_bend_c, 3, 640
5, 34623, Pitch_bend_c, 3, 1024
5, 34624, Pitch_bend_c, 3, 1408
5, 34625, Pitch_bend_c, 3, 1792
5, 34626, Pitch_bend_c, 3, 2176
5, 34627, Pitch_bend_c, 3, 2560
5, 34628, Pitch_bend_c, 3, 2944
5, 34629, Pitch_bend_c, 3, 3328
5, 34630, Pitch_bend_c, 3, 3712
5, 34631, Pitch_bend_c, 3, 4096
5, 34632, Pitch_bend_c, 3, 4352
5, 34633, Pitch_bend_c, 3, 4736
5, 34634, Pitch_bend_c, 3, 5120
5, 34635, Pitch_bend_c, 3, 5504
5, 34636, Pitch_bend_c, 3, 5888
5, 34637, Pitch_bend_c, 3, 6272
5, 34638, Pitch_bend_c, 3, 6656
5, 34639, Pitch_bend_c, 3, 7040
5, 34640, Pitch_bend_c, 3, 7424
5, 34641, Pitch_bend_c, 3, 7808
5, 34642, Pitch_bend_c, 3, 8192
5, 34680, Note_on_c, 3, 73, 0
5, 34680, Note_on_c, 3, 73, 100
5, 34740, Note_on_c, 3, 73, 0
5, 34740, Pitch_bend_c, 3, 128
5, 34740, Note_on_c, 3, 73, 100
5, 34741, Pitch_bend_c, 3, 512
5, 34742, Pitch_bend_c, 3, 1024
5, 34743, Pitch_bend_c, 3, 1536
5, 34744, Pitch_bend_c, 3, 1920
5, 34745, Pitch_bend_c, 3, 2432
5, 34746, Pitch_bend_c, 3, 2944
5, 34747, Pitch_bend_c, 3, 3328
5, 34748, Pitch_bend_c, 3, 3840
5, 34749, Pitch_bend_c, 3, 4352
5, 34750, Pitch_bend_c, 3, 4864
5, 34751, Pitch_bend_c, 3, 5248
5, 34752, Pitch_bend_c, 3, 5760
5, 34753, Pitch_bend_c, 3, 6272
5, 34754, Pitch_bend_c, 3, 6656
5, 34755, Pitch_bend_c, 3, 7168
5, 34756, Pitch_bend_c, 3, 7680
5, 34757, Pitch_bend_c, 3, 8192
5, 34800, Note_on_c, 3, 73, 0
5, 34800, Note_on_c, 3, 73, 100
5, 34813, Pitch_bend_c, 3, 8832
5, 34826, Pitch_bend_c, 3, 7680
5, 34839, Pitch_bend_c, 3, 8576
5, 34851, Pitch_bend_c, 3, 7808
5, 34860, Note_on_c, 3, 73, 0
5, 34860, Pitch_bend_c, 3, 8832
5, 34870, Pitch_bend_c, 3, 7808
5, 34879, Pitch_bend_c, 3, 8576
5, 34894, Pitch_bend_c, 3, 8192
5, 35040, Pitch_bend_c, 3, 0
5, 35040, Note_on_c, 3, 75, 100
5, 35041, Pitch_bend_c, 3, 128
5, 35042, Pitch_bend_c, 3, 256
5, 35043, Pitch_bend_c, 3, 512
5, 35044, Pitch_bend_c, 3, 640
5, 35045, Pitch_bend_c, 3, 896
5, 35046, Pitch_bend_c, 3, 1024
5, 35047, Pitch_bend_c, 3, 1152
5, 35048, Pitch_bend_c, 3, 1408
5, 35049, Pitch_bend_c, 3, 1536
5, 35050, Pitch_bend_c, 3, 1792
5, 35051, Pitch_bend_c, 3, 1920
5, 35052, Pitch_bend_c, 3, 2176
5, 35053, Pitch_bend_c, 3, 2304
5, 35054, Pitch_bend_c, 3, 2432
5, 35055, Pitch_bend_c, 3, 2688
5, 35056, Pitch_bend_c, 3, 2816
5, 35057, Pitch_bend_c, 3, 3072
5, 35058, Pitch_bend_c, 3, 3200
5, 35059, Pitch_bend_c, 3, 3456
5, 35060, Pitch_bend_c, 3, 3584
5, 35061, Pitch_bend_c, 3, 3712
5, 35062, Pitch_bend_c, 3, 3968
5, 35063, Pitch_bend_c, 3, 4096
5, 35064, Pitch_bend_c, 3, 4352
5, 35065, Pitch_bend_c, 3, 4480
5, 35066, Pitch_bend_c, 3, 4608
5, 35067, Pitch_bend_c, 3, 4864
5, 35068, Pitch_bend_c, 3, 4992
5, 35069, Pitch_bend_c, 3, 5248
5, 35070, Pitch_bend_c, 3, 5376
5, 35071, Pitch_bend_c, 3, 5632
5, 35072, Pitch_bend_c, 3, 5760
5, 35073, Pitch_bend_c, 3, 5888
5, 35074, Pitch_bend_c, 3, 6144
5, 35075, Pitch_bend_c, 3, 6272
5, 35076, Pitch_bend_c, 3, 6528
5, 35077, Pitch_bend_c, 3, 6656
5, 35078, Pitch_bend_c, 3, 6912
5, 35079, Pitch_bend_c, 3, 7040
5, 35080, Pitch_bend_c, 3, 7168
5, 35081, Pitch_bend_c, 3, 7424
5, 35082, Pitch_bend_c, 3, 7552
5, 35083, Pitch_bend_c, 3, 7808
5, 35084, Pitch_bend_c, 3, 7936
5, 35085, Pitch_bend_c, 3, 8192
5, 35130, Note_on_c, 3, 75, 0
5, 35130, Pitch_bend_c, 3, 15360
5, 35130, Note_on_c, 3, 73, 100
5, 35134, Pitch_bend_c, 3, 15488
5, 35136, Pitch_bend_c, 3, 15616
5, 35139, Pitch_bend_c, 3, 15744
5, 35140, Pitch_bend_c, 3, 15872
5, 35142, Pitch_bend_c, 3, 16000
5, 35143, Pitch_bend_c, 3, 16128
5, 35146, Pitch_bend_c, 3, 16256
5, 35147, Pitch_bend_c, 3, 16383
5, 35251, Pitch_bend_c, 3, 16256
5, 35252, Pitch_bend_c, 3, 16000
5, 35253, Pitch_bend_c, 3, 15744
5, 35254, Pitch_bend_c, 3, 15488
5, 35255, Pitch_bend_c, 3, 14976
5, 35256, Pitch_bend_c, 3, 14464
5, 35257, Pitch_bend_c, 3, 13952
5, 35258, Pitch_bend_c, 3, 13440
5, 35259, Pitch_bend_c, 3, 13056
5, 35260, Pitch_bend_c, 3, 12160
5, 35261, Pitch_bend_c, 3, 11648
5, 35262, Pitch_bend_c, 3, 11136
5, 35263, Pitch_bend_c, 3, 10624
5, 35264, Pitch_bend_c, 3, 9600
5, 35265, Pitch_bend_c, 3, 9088
5, 35266, Pitch_bend_c, 3, 7808
5, 35267, Pitch_bend_c, 3, 7040
5, 35268, Pitch_bend_c, 3, 6144
5, 35269, Pitch_bend_c, 3, 5632
5, 35270, Pitch_bend_c, 3, 4352
5, 35271, Pitch_bend_c, 3, 2816
5, 35272, Pitch_bend_c, 3, 1792
5, 35273, Pitch_bend_c, 3, 1024
5, 35274, Pitch_bend_c, 3, 128
5, 35280, Note_on_c, 3, 73, 0
5, 35280, Pitch_bend_c, 3, 8192
5, 35400, Note_on_c, 3, 71, 60
5, 35430, Note_on_c, 3, 71, 0
5, 35430, Note_on_c, 3, 71, 60
5, 35460, Note_on_c, 3, 71, 0
5, 35460, Note_on_c, 3, 71, 60
5, 35490, Note_on_c, 3, 71, 0
5, 35490, Note_on_c, 3, 71, 60
5, 35520, Note_on_c, 3, 71, 0
5, 35520, Note_on_c, 3, 75, 100
5, 35520, Note_on_c, 3, 68, 100
5, 35580, Note_on_c, 3, 68, 0
5, 35580, Note_on_c, 3, 75, 0
5, 35580, Note_on_c, 3, 73, 100
5, 35580, Note_on_c, 3, 68, 100
5, 35610, Note_on_c, 3, 68, 0
5, 35610, Note_on_c, 3, 73, 0
5, 35610, Note_on_c, 3, 73, 100
5, 35610, Note_on_c, 3, 68, 100
5, 35640, Note_on_c, 3, 68, 0
5, 35640, Note_on_c, 3, 73, 0
5, 35640, Note_on_c, 3, 73, 100
5, 35640, Note_on_c, 3, 68, 100
5, 35670, Note_on_c, 3, 68, 0
5, 35670, Note_on_c, 3, 73, 0
5, 35670, Note_on_c, 3, 73, 100
5, 35670, Note_on_c, 3, 68, 100
5, 35700, Note_on_c, 3, 68, 0
5, 35700, Note_on_c, 3, 73, 0
5, 35700, Note_on_c, 3, 73, 100
5, 35700, Note_on_c, 3, 68, 100
5, 35760, Note_on_c, 3, 68, 0
5, 35760, Note_on_c, 3, 73, 0
5, 35760, Pitch_bend_c, 3, 128
5, 35760, Note_on_c, 3, 61, 100
5, 35761, Pitch_bend_c, 3, 256
5, 35763, Pitch_bend_c, 3, 1024
5, 35764, Pitch_bend_c, 3, 1792
5, 35766, Pitch_bend_c, 3, 2048
5, 35767, Pitch_bend_c, 3, 2816
5, 35768, Pitch_bend_c, 3, 3584
5, 35769, Pitch_bend_c, 3, 3840
5, 35770, Pitch_bend_c, 3, 4096
5, 35772, Pitch_bend_c, 3, 4352
5, 35774, Pitch_bend_c, 3, 5120
5, 35776, Pitch_bend_c, 3, 5888
5, 35778, Pitch_bend_c, 3, 6656
5, 35780, Pitch_bend_c, 3, 7424
5, 35782, Pitch_bend_c, 3, 7680
5, 35784, Pitch_bend_c, 3, 8448
5, 35786, Pitch_bend_c, 3, 9216
5, 35788, Pitch_bend_c, 3, 9984
5, 35790, Pitch_bend_c, 3, 10752
5, 35792, Pitch_bend_c, 3, 11776
5, 35794, Pitch_bend_c, 3, 12544
5, 35796, Pitch_bend_c, 3, 13312
5, 35798, Pitch_bend_c, 3, 14080
5, 35799, Pitch_bend_c, 3, 14848
5, 35800, Pitch_bend_c, 3, 15104
5, 35801, Pitch_bend_c, 3, 15360
5, 35802, Pitch_bend_c, 3, 15616
5, 35803, Pitch_bend_c, 3, 15744
5, 35804, Pitch_bend_c, 3, 16128
5, 35806, Pitch_bend_c, 3, 16383
5, 35820, Note_on_c, 3, 61, 0
5, 35820, Note_on_c, 3, 71, 100
5, 35820, Note_on_c, 3, 66, 100
5, 35820, Pitch_bend_c, 3, 8192
5, 35880, Note_on_c, 3, 66, 0
5, 35880, Note_on_c, 3, 71, 0
5, 35880, Note_on_c, 3, 66, 100
5, 35880, Note_on_c, 3, 73, 100
5, 35910, Note_on_c, 3, 73, 0
5, 35910, Note_on_c, 3, 66, 0
5, 35910, Note_on_c, 3, 71, 100
5, 35910, Note_on_c, 3, 66, 100
5, 35940, Note_on_c, 3, 66, 0
5, 35940, Note_on_c, 3, 71, 0
5, 35940, Note_on_c, 3, 71, 100
5, 35940, Note_on_c, 3, 66, 100
5, 36000, Note_on_c, 3, 66, 0
5, 36000, Note_on_c, 3, 71, 0
5, 36000, Pitch_bend_c, 3, 128
5, 36000, Note_on_c, 3, 61, 100
5, 36001, Pitch_bend_c, 3, 256
5, 36003, Pitch_bend_c, 3, 384
5, 36005, Pitch_bend_c, 3, 512
5, 36007, Pitch_bend_c, 3, 768
5, 36009, Pitch_bend_c, 3, 1024
5, 36011, Pitch_bend_c, 3, 1280
5, 36012, Pitch_bend_c, 3, 1536
5, 36013, Pitch_bend_c, 3, 1792
5, 36015, Pitch_bend_c, 3, 1920
5, 36017, Pitch_bend_c, 3, 2176
5, 36018, Pitch_bend_c, 3, 2432
5, 36019, Pitch_bend_c, 3, 2688
5, 36020, Pitch_bend_c, 3, 2816
5, 36021, Pitch_bend_c, 3, 3072
5, 36022, Pitch_bend_c, 3, 3328
5, 36023, Pitch_bend_c, 3, 3840
5, 36024, Pitch_bend_c, 3, 4096
5, 36025, Pitch_bend_c, 3, 4864
5, 36026, Pitch_bend_c, 3, 5120
5, 36027, Pitch_bend_c, 3, 6144
5, 36028, Pitch_bend_c, 3, 6400
5, 36029, Pitch_bend_c, 3, 7040
5, 36030, Pitch_bend_c, 3, 7552
5, 36031, Pitch_bend_c, 3, 7936
5, 36032, Pitch_bend_c, 3, 8064
5, 36039, Pitch_bend_c, 3, 8192
5, 36060, Note_on_c, 3, 61, 0
5, 36060, Note_on_c, 3, 69, 100
5, 36060, Note_on_c, 3, 64, 100
5, 36120, Note_on_c, 3, 64, 0
5, 36120, Note_on_c, 3, 69, 0
5, 36120, Note_on_c, 3, 67, 100
5, 36120, Note_on_c, 3, 64, 100
5, 36150, Note_on_c, 3, 64, 0
5, 36150, Note_on_c, 3, 67, 0
5, 36150, Note_on_c, 3, 67, 100
5, 36150, Note_on_c, 3, 64, 100
5, 36180, Note_on_c, 3, 64, 0
5, 36180, Note_on_c, 3, 67, 0
5, 36180, Note_on_c, 3, 67, 100
5, 36180, Note_on_c, 3, 64, 100
5, 36210, Note_on_c, 3, 64, 0
5, 36210, Note_on_c, 3, 67, 0
5, 36210, Note_on_c, 3, 67, 100
5, 36210, Note_on_c, 3, 64, 100
5, 36240, Note_on_c, 3, 64, 0
5, 36240, Note_on_c, 3, 67, 0
5, 36240, Note_on_c, 3, 69, 100
5, 36240, Note_on_c, 3, 66, 100
5, 36270, Note_on_c, 3, 66, 0
5, 36270, Note_on_c, 3, 69, 0
5, 36270, Note_on_c, 3, 69, 100
5, 36270, Note_on_c, 3, 66, 100
5, 36300, Note_on_c, 3, 66, 0
5, 36300, Note_on_c, 3, 69, 0
5, 36300, Note_on_c, 3, 69, 100
5, 36300, Note_on_c, 3, 66, 100
5, 36330, Note_on_c, 3, 66, 0
5, 36330, Note_on_c, 3, 69, 0
5, 36330, Note_on_c, 3, 69, 100
5, 36330, Note_on_c, 3, 66, 100
5, 36360, Note_on_c, 3, 66, 0
5, 36360, Note_on_c, 3, 69, 0
5, 36360, Note_on_c, 3, 71, 100
5, 36360, Note_on_c, 3, 67, 100
5, 36361, Pitch_bend_c, 3, 15872
5, 36362, Pitch_bend_c, 3, 16256
5, 36363, Pitch_bend_c, 3, 16383
5, 36384, Pitch_bend_c, 3, 16256
5, 36385, Pitch_bend_c, 3, 16128
5, 36386, Pitch_bend_c, 3, 15872
5, 36387, Pitch_bend_c, 3, 15744
5, 36388, Pitch_bend_c, 3, 15360
5, 36390, Pitch_bend_c, 3, 15104
5, 36392, Pitch_bend_c, 3, 14848
5, 36393, Pitch_bend_c, 3, 14720
5, 36394, Pitch_bend_c, 3, 14336
5, 36395, Pitch_bend_c, 3, 14080
5, 36396, Pitch_bend_c, 3, 13824
5, 36397, Pitch_bend_c, 3, 13568
5, 36398, Pitch_bend_c, 3, 13056
5, 36399, Pitch_bend_c, 3, 12672
5, 36400, Pitch_bend_c, 3, 12288
5, 36401, Pitch_bend_c, 3, 12032
5, 36402, Pitch_bend_c, 3, 11520
5, 36403, Pitch_bend_c, 3, 11264
5, 36404, Pitch_bend_c, 3, 11008
5, 36405, Pitch_bend_c, 3, 10752
5, 36406, Pitch_bend_c, 3, 9984
5, 36407, Pitch_bend_c, 3, 9728
5, 36408, Pitch_bend_c, 3, 8960
5, 36409, Pitch_bend_c, 3, 8192
5, 36410, Pitch_bend_c, 3, 6912
5, 36411, Pitch_bend_c, 3, 6144
5, 36412, Pitch_bend_c, 3, 4864
5, 36413, Pitch_bend_c, 3, 4352
5, 36414, Pitch_bend_c, 3, 3712
5, 36415, Pitch_bend_c, 3, 3200
5, 36416, Pitch_bend_c, 3, 2688
5, 36417, Pitch_bend_c, 3, 2176
5, 36418, Pitch_bend_c, 3, 1408
5, 36419, Pitch_bend_c, 3, 640
5, 36420, Note_on_c, 3, 67, 0
5, 36420, Note_on_c, 3, 71, 0
5, 36420, Pitch_bend_c, 3, 128
5, 36424, Pitch_bend_c, 3, 8192
5, 36450, Note_on_c, 3, 59, 100
5, 36480, Note_on_c, 3, 59, 0
5, 36480, Pitch_bend_c, 3, 128
5, 36480, Note_on_c, 3, 59, 100
5, 36481, Pitch_bend_c, 3, 896
5, 36482, Pitch_bend_c, 3, 1152
5, 36483, Pitch_bend_c, 3, 1408
5, 36484, Pitch_bend_c, 3, 1664
5, 36485, Pitch_bend_c, 3, 2432
5, 36486, Pitch_bend_c, 3, 2560
5, 36487, Pitch_bend_c, 3, 2816
5, 36488, Pitch_bend_c, 3, 3072
5, 36489, Pitch_bend_c, 3, 3840
5, 36491, Pitch_bend_c, 3, 4608
5, 36492, Pitch_bend_c, 3, 5632
5, 36494, Pitch_bend_c, 3, 5888
5, 36496, Pitch_bend_c, 3, 6656
5, 36497, Pitch_bend_c, 3, 7424
5, 36498, Pitch_bend_c, 3, 8192
5, 36499, Pitch_bend_c, 3, 8960
5, 36500, Pitch_bend_c, 3, 9216
5, 36501, Pitch_bend_c, 3, 9984
5, 36502, Pitch_bend_c, 3, 10752
5, 36503, Pitch_bend_c, 3, 11008
5, 36504, Pitch_bend_c, 3, 11264
5, 36505, Pitch_bend_c, 3, 11776
5, 36506, Pitch_bend_c, 3, 12032
5, 36507, Pitch_bend_c, 3, 12288
5, 36508, Pitch_bend_c, 3, 12800
5, 36509, Pitch_bend_c, 3, 13056
5, 36510, Pitch_bend_c, 3, 13568
5, 36511, Pitch_bend_c, 3, 14080
5, 36512, Pitch_bend_c, 3, 14592
5, 36513, Pitch_bend_c, 3, 15104
5, 36514, Pitch_bend_c, 3, 15616
5, 36515, Pitch_bend_c, 3, 15872
5, 36516, Pitch_bend_c, 3, 16128
5, 36518, Pitch_bend_c, 3, 16383
5, 36540, Note_on_c, 3, 59, 0
5, 36540, Pitch_bend_c, 3, 8192
5, 36540, Note_on_c, 3, 68, 100
5, 36600, Note_on_c, 3, 68, 0
5, 36600, Note_on_c, 3, 75, 100
5, 36630, Note_on_c, 3, 75, 0
5, 36630, Note_on_c, 3, 73, 100
5, 36660, Note_on_c, 3, 73, 0
5, 36660, Note_on_c, 3, 71, 100
5, 36661, Pitch_bend_c, 3, 16128
5, 36702, Pitch_bend_c, 3, 16000
5, 36703, Pitch_bend_c, 3, 15744
5, 36704, Pitch_bend_c, 3, 15488
5, 36705, Pitch_bend_c, 3, 15232
5, 36706, Pitch_bend_c, 3, 14720
5, 36707, Pitch_bend_c, 3, 14464
5, 36708, Pitch_bend_c, 3, 13696
5, 36709, Pitch_bend_c, 3, 12928
5, 36710, Pitch_bend_c, 3, 11904
5, 36711, Pitch_bend_c, 3, 6400
5, 36712, Pitch_bend_c, 3, 4352
5, 36713, Pitch_bend_c, 3, 3584
5, 36714, Pitch_bend_c, 3, 2304
5, 36715, Pitch_bend_c, 3, 128
5, 36716, Pitch_bend_c, 3, 2688
5, 36717, Pitch_bend_c, 3, 1664
5, 36718, Pitch_bend_c, 3, 128
5, 36720, Note_on_c, 3, 71, 0
5, 36720, Pitch_bend_c, 3, 128
5, 36720, Note_on_c, 3, 63, 100
5, 36721, Pitch_bend_c, 3, 384
5, 36723, Pitch_bend_c, 3, 640
5, 36724, Pitch_bend_c, 3, 896
5, 36725, Pitch_bend_c, 3, 1152
5, 36726, Pitch_bend_c, 3, 1280
5, 36727, Pitch_bend_c, 3, 1408
5, 36728, Pitch_bend_c, 3, 1664
5, 36729, Pitch_bend_c, 3, 1920
5, 36730, Pitch_bend_c, 3, 2432
5, 36731, Pitch_bend_c, 3, 2688
5, 36732, Pitch_bend_c, 3, 3968
5, 36733, Pitch_bend_c, 3, 4224
5, 36734, Pitch_bend_c, 3, 6272
5, 36735, Pitch_bend_c, 3, 6784
5, 36736, Pitch_bend_c, 3, 6912
5, 36737, Pitch_bend_c, 3, 7168
5, 36738, Pitch_bend_c, 3, 7296
5, 36739, Pitch_bend_c, 3, 7552
5, 36740, Pitch_bend_c, 3, 8192
5, 36780, Note_on_c, 3, 63, 0
5, 36780, Note_on_c, 3, 66, 100
5, 36780, Note_on_c, 3, 63, 100
5, 36840, Note_on_c, 3, 63, 0
5, 36840, Note_on_c, 3, 66, 0
5, 36840, Note_on_c, 3, 73, 100
5, 36840, Note_on_c, 3, 66, 100
5, 36840, Note_on_c, 3, 63, 100
5, 36870, Note_on_c, 3, 63, 0
5, 36870, Note_on_c, 3, 66, 0
5, 36870, Note_on_c, 3, 73, 0
5, 36870, Note_on_c, 3, 71, 100
5, 36870, Note_on_c, 3, 63, 100
5, 36870, Note_on_c, 3, 66, 100
5, 36900, Note_on_c, 3, 66, 0
5, 36900, Note_on_c, 3, 63, 0
5, 36900, Note_on_c, 3, 71, 0
5, 36900, Note_on_c, 3, 71, 100
5, 36900, Note_on_c, 3, 63, 100
5, 36900, Note_on_c, 3, 66, 100
5, 36930, Note_on_c, 3, 66, 0
5, 36930, Note_on_c, 3, 63, 0
5, 36930, Note_on_c, 3, 71, 0
5, 36930, Note_on_c, 3, 71, 100
5, 36930, Note_on_c, 3, 63, 100
5, 36930, Note_on_c, 3, 66, 100
5, 36960, Note_on_c, 3, 66, 0
5, 36960, Note_on_c, 3, 63, 0
5, 36960, Note_on_c, 3, 71, 0
5, 36960, Note_on_c, 3, 61, 100
5, 36961, Pitch_bend_c, 3, 128
5, 36969, Pitch_bend_c, 3, 256
5, 36975, Pitch_bend_c, 3, 1024
5, 36977, Pitch_bend_c, 3, 1280
5, 36978, Pitch_bend_c, 3, 1536
5, 36980, Pitch_bend_c, 3, 1664
5, 36981, Pitch_bend_c, 3, 1792
5, 36982, Pitch_bend_c, 3, 2048
5, 36984, Pitch_bend_c, 3, 2816
5, 36986, Pitch_bend_c, 3, 3072
5, 36987, Pitch_bend_c, 3, 3840
5, 36989, Pitch_bend_c, 3, 4096
5, 36990, Pitch_bend_c, 3, 4864
5, 36991, Pitch_bend_c, 3, 5120
5, 36992, Pitch_bend_c, 3, 5632
5, 36993, Pitch_bend_c, 3, 6144
5, 36994, Pitch_bend_c, 3, 7808
5, 36995, Pitch_bend_c, 3, 8064
5, 36996, Pitch_bend_c, 3, 8192
5, 37020, Note_on_c, 3, 61, 0
5, 37020, Note_on_c, 3, 69, 100
5, 37020, Note_on_c, 3, 64, 100
5, 37080, Note_on_c, 3, 64, 0
5, 37080, Note_on_c, 3, 69, 0
5, 37080, Note_on_c, 3, 64, 100
5, 37080, Note_on_c, 3, 69, 100
5, 37140, Note_on_c, 3, 69, 0
5, 37140, Note_on_c, 3, 64, 0
5, 37140, Note_on_c, 3, 57, 70
5, 37170, Note_on_c, 3, 57, 0
5, 37170, Note_on_c, 3, 57, 70
5, 37200, Note_on_c, 3, 57, 0
5, 37200, Note_on_c, 3, 57, 70
5, 37230, Note_on_c, 3, 57, 0
5, 37230, Note_on_c, 3, 57, 70
5, 37260, Note_on_c, 3, 57, 0
5, 37260, Note_on_c, 3, 57, 70
5, 37290, Note_on_c, 3, 57, 0
5, 37290, Note_on_c, 3, 57, 70
5, 37320, Note_on_c, 3, 57, 0
5, 37320, Note_on_c, 3, 57, 70
5, 37350, Note_on_c, 3, 57, 0
5, 37350, Note_on_c, 3, 57, 70
5, 37380, Note_on_c, 3, 57, 0
5, 37380, Note_on_c, 3, 57, 70
5, 37410, Note_on_c, 3, 57, 0
5, 37410, Note_on_c, 3, 57, 70
5, 37440, Note_on_c, 3, 57, 0
5, 37440, Pitch_bend_c, 3, 128
5, 37440, Note_on_c, 3, 61, 100
5, 37454, Pitch_bend_c, 3, 256
5, 37461, Pitch_bend_c, 3, 512
5, 37465, Pitch_bend_c, 3, 768
5, 37467, Pitch_bend_c, 3, 1024
5, 37469, Pitch_bend_c, 3, 1152
5, 37471, Pitch_bend_c, 3, 1408
5, 37473, Pitch_bend_c, 3, 1664
5, 37475, Pitch_bend_c, 3, 1920
5, 37477, Pitch_bend_c, 3, 2176
5, 37479, Pitch_bend_c, 3, 2432
5, 37480, Pitch_bend_c, 3, 2560
5, 37481, Pitch_bend_c, 3, 2816
5, 37482, Pitch_bend_c, 3, 2944
5, 37483, Pitch_bend_c, 3, 3072
5, 37484, Pitch_bend_c, 3, 3328
5, 37485, Pitch_bend_c, 3, 3584
5, 37486, Pitch_bend_c, 3, 3840
5, 37487, Pitch_bend_c, 3, 4096
5, 37488, Pitch_bend_c, 3, 4352
5, 37489, Pitch_bend_c, 3, 4608
5, 37490, Pitch_bend_c, 3, 5632
5, 37491, Pitch_bend_c, 3, 8192
5, 37500, Note_on_c, 3, 61, 0
5, 37500, Note_on_c, 3, 75, 100
5, 37500, Note_on_c, 3, 68, 100
5, 37560, Note_on_c, 3, 68, 0
5, 37560, Note_on_c, 3, 75, 0
5, 37560, Note_on_c, 3, 75, 100
5, 37560, Note_on_c, 3, 68, 100
5, 37590, Note_on_c, 3, 68, 0
5, 37590, Note_on_c, 3, 75, 0
5, 37590, Note_on_c, 3, 73, 100
5, 37590, Note_on_c, 3, 68, 100
5, 37620, Note_on_c, 3, 68, 0
5, 37620, Note_on_c, 3, 73, 0
5, 37620, Note_on_c, 3, 73, 100
5, 37620, Note_on_c, 3, 68, 100
5, 37650, Note_on_c, 3, 68, 0
5, 37650, Note_on_c, 3, 73, 0
5, 37650, Note_on_c, 3, 73, 100
5, 37650, Note_on_c, 3, 68, 100
5, 37679, Pitch_bend_c, 3, 128
5, 37680, Note_on_c, 3, 68, 0
5, 37680, Note_on_c, 3, 73, 0
5, 37680, Note_on_c, 3, 63, 100
5, 37685, Pitch_bend_c, 3, 256
5, 37686, Pitch_bend_c, 3, 512
5, 37689, Pitch_bend_c, 3, 768
5, 37690, Pitch_bend_c, 3, 1024
5, 37692, Pitch_bend_c, 3, 1280
5, 37694, Pitch_bend_c, 3, 1536
5, 37696, Pitch_bend_c, 3, 1664
5, 37697, Pitch_bend_c, 3, 1792
5, 37698, Pitch_bend_c, 3, 2048
5, 37699, Pitch_bend_c, 3, 2304
5, 37701, Pitch_bend_c, 3, 2560
5, 37702, Pitch_bend_c, 3, 2816
5, 37703, Pitch_bend_c, 3, 3072
5, 37704, Pitch_bend_c, 3, 3328
5, 37705, Pitch_bend_c, 3, 4096
5, 37706, Pitch_bend_c, 3, 4352
5, 37707, Pitch_bend_c, 3, 4736
5, 37708, Pitch_bend_c, 3, 4992
5, 37709, Pitch_bend_c, 3, 5248
5, 37710, Pitch_bend_c, 3, 6016
5, 37711, Pitch_bend_c, 3, 6784
5, 37712, Pitch_bend_c, 3, 7040
5, 37713, Pitch_bend_c, 3, 7424
5, 37714, Pitch_bend_c, 3, 7808
5, 37715, Pitch_bend_c, 3, 8192
5, 37740, Note_on_c, 3, 63, 0
5, 37740, Note_on_c, 3, 71, 100
5, 37740, Note_on_c, 3, 66, 100
5, 37800, Note_on_c, 3, 66, 0
5, 37800, Note_on_c, 3, 71, 0
5, 37800, Note_on_c, 3, 73, 100
5, 37800, Note_on_c, 3, 66, 100
5, 37830, Note_on_c, 3, 66, 0
5, 37830, Note_on_c, 3, 73, 0
5, 37830, Note_on_c, 3, 71, 100
5, 37830, Note_on_c, 3, 66, 100
5, 37860, Note_on_c, 3, 66, 0
5, 37860, Note_on_c, 3, 71, 0
5, 37860, Note_on_c, 3, 71, 100
5, 37860, Note_on_c, 3, 66, 100
5, 37920, Note_on_c, 3, 66, 0
5, 37920, Note_on_c, 3, 71, 0
5, 37920, Note_on_c, 3, 61, 100
5, 37921, Pitch_bend_c, 3, 128
5, 37923, Pitch_bend_c, 3, 384
5, 37931, Pitch_bend_c, 3, 512
5, 37933, Pitch_bend_c, 3, 640
5, 37935, Pitch_bend_c, 3, 768
5, 37937, Pitch_bend_c, 3, 896
5, 37939, Pitch_bend_c, 3, 1024
5, 37940, Pitch_bend_c, 3, 1152
5, 37942, Pitch_bend_c, 3, 1408
5, 37948, Pitch_bend_c, 3, 1664
5, 37950, Pitch_bend_c, 3, 1920
5, 37952, Pitch_bend_c, 3, 2176
5, 37954, Pitch_bend_c, 3, 2304
5, 37956, Pitch_bend_c, 3, 2688
5, 37958, Pitch_bend_c, 3, 2944
5, 37960, Pitch_bend_c, 3, 3200
5, 37961, Pitch_bend_c, 3, 3968
5, 37963, Pitch_bend_c, 3, 4224
5, 37964, Pitch_bend_c, 3, 4608
5, 37965, Pitch_bend_c, 3, 4736
5, 37966, Pitch_bend_c, 3, 5120
5, 37967, Pitch_bend_c, 3, 5376
5, 37968, Pitch_bend_c, 3, 6144
5, 37969, Pitch_bend_c, 3, 6656
5, 37970, Pitch_bend_c, 3, 7168
5, 37971, Pitch_bend_c, 3, 7680
5, 37972, Pitch_bend_c, 3, 8064
5, 37973, Pitch_bend_c, 3, 8192
5, 37980, Note_on_c, 3, 61, 0
5, 37980, Note_on_c, 3, 69, 100
5, 37980, Note_on_c, 3, 64, 100
5, 38040, Note_on_c, 3, 64, 0
5, 38040, Note_on_c, 3, 69, 0
5, 38040, Note_on_c, 3, 67, 100
5, 38040, Note_on_c, 3, 64, 100
5, 38070, Note_on_c, 3, 64, 0
5, 38070, Note_on_c, 3, 67, 0
5, 38070, Note_on_c, 3, 67, 100
5, 38070, Note_on_c, 3, 64, 100
5, 38100, Note_on_c, 3, 64, 0
5, 38100, Note_on_c, 3, 67, 0
5, 38100, Note_on_c, 3, 67, 100
5, 38100, Note_on_c, 3, 64, 100
5, 38130, Note_on_c, 3, 64, 0
5, 38130, Note_on_c, 3, 67, 0
5, 38130, Note_on_c, 3, 67, 100
5, 38130, Note_on_c, 3, 64, 100
5, 38160, Note_on_c, 3, 64, 0
5, 38160, Note_on_c, 3, 67, 0
5, 38160, Note_on_c, 3, 69, 100
5, 38160, Note_on_c, 3, 66, 100
5, 38190, Note_on_c, 3, 66, 0
5, 38190, Note_on_c, 3, 69, 0
5, 38190, Note_on_c, 3, 69, 100
5, 38190, Note_on_c, 3, 66, 100
5, 38220, Note_on_c, 3, 66, 0
5, 38220, Note_on_c, 3, 69, 0
5, 38220, Note_on_c, 3, 72, 100
5, 38220, Note_on_c, 3, 69, 100
5, 38280, Note_on_c, 3, 69, 0
5, 38280, Note_on_c, 3, 72, 0
5, 38280, Note_on_c, 3, 57, 70
5, 38310, Note_on_c, 3, 57, 0
5, 38310, Note_on_c, 3, 57, 70
5, 38340, Note_on_c, 3, 57, 0
5, 38340, Note_on_c, 3, 64, 100
5, 38340, Note_on_c, 3, 59, 100
5, 38400, Note_on_c, 3, 59, 0
5, 38400, Note_on_c, 3, 64, 0
5, 38400, Pitch_bend_c, 3, 256
5, 38400, Note_on_c, 3, 73, 110
5, 38401, Pitch_bend_c, 3, 512
5, 38402, Pitch_bend_c, 3, 768
5, 38403, Pitch_bend_c, 3, 1024
5, 38404, Pitch_bend_c, 3, 1408
5, 38405, Pitch_bend_c, 3, 1664
5, 38406, Pitch_bend_c, 3, 1920
5, 38407, Pitch_bend_c, 3, 2304
5, 38408, Pitch_bend_c, 3, 2560
5, 38409, Pitch_bend_c, 3, 2816
5, 38410, Pitch_bend_c, 3, 3072
5, 38411, Pitch_bend_c, 3, 3456
5, 38412, Pitch_bend_c, 3, 3712
5, 38413, Pitch_bend_c, 3, 3968
5, 38414, Pitch_bend_c, 3, 4352
5, 38415, Pitch_bend_c, 3, 4608
5, 38416, Pitch_bend_c, 3, 4864
5, 38417, Pitch_bend_c, 3, 5248
5, 38418, Pitch_bend_c, 3, 5504
5, 38419, Pitch_bend_c, 3, 5760
5, 38420, Pitch_bend_c, 3, 6016
5, 38421, Pitch_bend_c, 3, 6400
5, 38422, Pitch_bend_c, 3, 6656
5, 38423, Pitch_bend_c, 3, 6912
5, 38424, Pitch_bend_c, 3, 7296
5, 38425, Pitch_bend_c, 3, 7552
5, 38426, Pitch_bend_c, 3, 7808
5, 38427, Pitch_bend_c, 3, 8192
5, 38430, Note_on_c, 3, 73, 0
5, 38430, Note_on_c, 3, 73, 110
5, 38460, Note_on_c, 3, 73, 0
5, 38460, Note_on_c, 3, 73, 110
5, 38490, Note_on_c, 3, 73, 0
5, 38490, Note_on_c, 3, 73, 110
5, 38520, Note_on_c, 3, 73, 0
5, 38520, Note_on_c, 3, 73, 110
5, 38550, Note_on_c, 3, 73, 0
5, 38550, Note_on_c, 3, 73, 110
5, 38580, Note_on_c, 3, 73, 0
5, 38580, Note_on_c, 3, 73, 110
5, 38610, Note_on_c, 3, 73, 0
5, 38610, Pitch_bend_c, 3, 256
5, 38610, Note_on_c, 3, 75, 110
5, 38611, Pitch_bend_c, 3, 640
5, 38612, Pitch_bend_c, 3, 1024
5, 38613, Pitch_bend_c, 3, 1408
5, 38614, Pitch_bend_c, 3, 1920
5, 38615, Pitch_bend_c, 3, 2304
5, 38616, Pitch_bend_c, 3, 2688
5, 38617, Pitch_bend_c, 3, 3072
5, 38618, Pitch_bend_c, 3, 3584
5, 38619, Pitch_bend_c, 3, 3968
5, 38620, Pitch_bend_c, 3, 4352
5, 38621, Pitch_bend_c, 3, 4736
5, 38622, Pitch_bend_c, 3, 5248
5, 38623, Pitch_bend_c, 3, 5632
5, 38624, Pitch_bend_c, 3, 6016
5, 38625, Pitch_bend_c, 3, 6400
5, 38626, Pitch_bend_c, 3, 6912
5, 38627, Pitch_bend_c, 3, 7296
5, 38628, Pitch_bend_c, 3, 7680
5, 38629, Pitch_bend_c, 3, 8192
5, 38640, Note_on_c, 3, 75, 0
5, 38640, Note_on_c, 3, 75, 110
5, 38670, Note_on_c, 3, 75, 0
5, 38670, Note_on_c, 3, 75, 110
5, 38700, Note_on_c, 3, 75, 0
5, 38700, Note_on_c, 3, 75, 110
5, 38730, Note_on_c, 3, 75, 0
5, 38730, Pitch_bend_c, 3, 128
5, 38730, Note_on_c, 3, 76, 110
5, 38731, Pitch_bend_c, 3, 384
5, 38732, Pitch_bend_c, 3, 768
5, 38733, Pitch_bend_c, 3, 1152
5, 38734, Pitch_bend_c, 3, 1408
5, 38735, Pitch_bend_c, 3, 1792
5, 38736, Pitch_bend_c, 3, 2176
5, 38737, Pitch_bend_c, 3, 2560
5, 38738, Pitch_bend_c, 3, 2816
5, 38739, Pitch_bend_c, 3, 3200
5, 38740, Pitch_bend_c, 3, 3584
5, 38741, Pitch_bend_c, 3, 3968
5, 38742, Pitch_bend_c, 3, 4224
5, 38743, Pitch_bend_c, 3, 4608
5, 38744, Pitch_bend_c, 3, 4992
5, 38745, Pitch_bend_c, 3, 5376
5, 38746, Pitch_bend_c, 3, 5632
5, 38747, Pitch_bend_c, 3, 6016
5, 38748, Pitch_bend_c, 3, 6400
5, 38749, Pitch_bend_c, 3, 6784
5, 38750, Pitch_bend_c, 3, 7040
5, 38751, Pitch_bend_c, 3, 7424
5, 38752, Pitch_bend_c, 3, 7808
5, 38753, Pitch_bend_c, 3, 8192
5, 38760, Note_on_c, 3, 76, 0
5, 38760, Note_on_c, 3, 76, 110
5, 38790, Note_on_c, 3, 76, 0
5, 38790, Note_on_c, 3, 76, 110
5, 38820, Note_on_c, 3, 76, 0
5, 38820, Note_on_c, 3, 76, 110
5, 38850, Note_on_c, 3, 76, 0
5, 38850, Note_on_c, 3, 76, 110
5, 38880, Note_on_c, 3, 76, 0
5, 38880, Note_on_c, 3, 78, 110
5, 38910, Note_on_c, 3, 78, 0
5, 38910, Pitch_bend_c, 3, 0
5, 38910, Note_on_c, 3, 78, 110
5, 38911, Pitch_bend_c, 3, 384
5, 38912, Pitch_bend_c, 3, 896
5, 38913, Pitch_bend_c, 3, 1280
5, 38914, Pitch_bend_c, 3, 1792
5, 38915, Pitch_bend_c, 3, 2176
5, 38916, Pitch_bend_c, 3, 2688
5, 38917, Pitch_bend_c, 3, 3072
5, 38918, Pitch_bend_c, 3, 3584
5, 38919, Pitch_bend_c, 3, 4096
5, 38920, Pitch_bend_c, 3, 4480
5, 38921, Pitch_bend_c, 3, 4992
5, 38922, Pitch_bend_c, 3, 5376
5, 38923, Pitch_bend_c, 3, 5888
5, 38924, Pitch_bend_c, 3, 6272
5, 38925, Pitch_bend_c, 3, 6784
5, 38926, Pitch_bend_c, 3, 7168
5, 38927, Pitch_bend_c, 3, 7680
5, 38928, Pitch_bend_c, 3, 8192
5, 38940, Note_on_c, 3, 78, 0
5, 38940, Note_on_c, 3, 78, 110
5, 38970, Note_on_c, 3, 78, 0
5, 38970, Note_on_c, 3, 78, 110
5, 39000, Note_on_c, 3, 78, 0
5, 39000, Pitch_bend_c, 3, 128
5, 39000, Note_on_c, 3, 80, 110
5, 39001, Pitch_bend_c, 3, 384
5, 39002, Pitch_bend_c, 3, 768
5, 39003, Pitch_bend_c, 3, 1152
5, 39004, Pitch_bend_c, 3, 1408
5, 39005, Pitch_bend_c, 3, 1792
5, 39006, Pitch_bend_c, 3, 2176
5, 39007, Pitch_bend_c, 3, 2560
5, 39008, Pitch_bend_c, 3, 2816
5, 39009, Pitch_bend_c, 3, 3200
5, 39010, Pitch_bend_c, 3, 3584
5, 39011, Pitch_bend_c, 3, 3968
5, 39012, Pitch_bend_c, 3, 4224
5, 39013, Pitch_bend_c, 3, 4608
5, 39014, Pitch_bend_c, 3, 4992
5, 39015, Pitch_bend_c, 3, 5376
5, 39016, Pitch_bend_c, 3, 5632
5, 39017, Pitch_bend_c, 3, 6016
5, 39018, Pitch_bend_c, 3, 6400
5, 39019, Pitch_bend_c, 3, 6784
5, 39020, Pitch_bend_c, 3, 7040
5, 39021, Pitch_bend_c, 3, 7424
5, 39022, Pitch_bend_c, 3, 7808
5, 39023, Pitch_bend_c, 3, 8192
5, 39030, Note_on_c, 3, 80, 0
5, 39030, Note_on_c, 3, 80, 110
5, 39060, Note_on_c, 3, 80, 0
5, 39060, Note_on_c, 3, 80, 110
5, 39090, Note_on_c, 3, 80, 0
5, 39090, Note_on_c, 3, 80, 110
5, 39120, Note_on_c, 3, 80, 0
5, 39120, Pitch_bend_c, 3, 128
5, 39120, Note_on_c, 3, 80, 110
5, 39121, Pitch_bend_c, 3, 512
5, 39122, Pitch_bend_c, 3, 1024
5, 39123, Pitch_bend_c, 3, 1536
5, 39124, Pitch_bend_c, 3, 1920
5, 39125, Pitch_bend_c, 3, 2432
5, 39126, Pitch_bend_c, 3, 2944
5, 39127, Pitch_bend_c, 3, 3328
5, 39128, Pitch_bend_c, 3, 3840
5, 39129, Pitch_bend_c, 3, 4352
5, 39130, Pitch_bend_c, 3, 4864
5, 39131, Pitch_bend_c, 3, 5248
5, 39132, Pitch_bend_c, 3, 5760
5, 39133, Pitch_bend_c, 3, 6272
5, 39134, Pitch_bend_c, 3, 6656
5, 39135, Pitch_bend_c, 3, 7168
5, 39136, Pitch_bend_c, 3, 7680
5, 39137, Pitch_bend_c, 3, 8192
5, 39150, Note_on_c, 3, 80, 0
5, 39150, Note_on_c, 3, 80, 110
5, 39180, Note_on_c, 3, 80, 0
5, 39180, Note_on_c, 3, 80, 110
5, 39210, Note_on_c, 3, 80, 0
5, 39210, Note_on_c, 3, 80, 110
5, 39240, Note_on_c, 3, 80, 0
5, 39240, Pitch_bend_c, 3, 128
5, 39240, Note_on_c, 3, 81, 127
5, 39241, Pitch_bend_c, 3, 256
5, 39244, Pitch_bend_c, 3, 384
5, 39245, Pitch_bend_c, 3, 512
5, 39248, Pitch_bend_c, 3, 768
5, 39250, Pitch_bend_c, 3, 896
5, 39251, Pitch_bend_c, 3, 1024
5, 39253, Pitch_bend_c, 3, 1280
5, 39256, Pitch_bend_c, 3, 1536
5, 39259, Pitch_bend_c, 3, 1792
5, 39261, Pitch_bend_c, 3, 2048
5, 39263, Pitch_bend_c, 3, 2304
5, 39264, Pitch_bend_c, 3, 2560
5, 39265, Pitch_bend_c, 3, 2816
5, 39267, Pitch_bend_c, 3, 3072
5, 39268, Pitch_bend_c, 3, 3328
5, 39269, Pitch_bend_c, 3, 3584
5, 39271, Pitch_bend_c, 3, 3840
5, 39273, Pitch_bend_c, 3, 4096
5, 39274, Pitch_bend_c, 3, 4352
5, 39276, Pitch_bend_c, 3, 5376
5, 39278, Pitch_bend_c, 3, 6400
5, 39279, Pitch_bend_c, 3, 6656
5, 39280, Pitch_bend_c, 3, 6912
5, 39281, Pitch_bend_c, 3, 7168
5, 39282, Pitch_bend_c, 3, 7936
5, 39283, Pitch_bend_c, 3, 8704
5, 39284, Pitch_bend_c, 3, 9728
5, 39285, Pitch_bend_c, 3, 9984
5, 39287, Pitch_bend_c, 3, 11520
5, 39288, Pitch_bend_c, 3, 11776
5, 39289, Pitch_bend_c, 3, 12544
5, 39291, Pitch_bend_c, 3, 13568
5, 39292, Pitch_bend_c, 3, 13824
5, 39293, Pitch_bend_c, 3, 14080
5, 39295, Pitch_bend_c, 3, 14848
5, 39297, Pitch_bend_c, 3, 15104
5, 39298, Pitch_bend_c, 3, 15360
5, 39299, Pitch_bend_c, 3, 15488
5, 39300, Pitch_bend_c, 3, 15616
5, 39301, Pitch_bend_c, 3, 15744
5, 39303, Pitch_bend_c, 3, 15872
5, 39304, Pitch_bend_c, 3, 16000
5, 39305, Pitch_bend_c, 3, 16256
5, 39310, Pitch_bend_c, 3, 16383
5, 39354, Pitch_bend_c, 3, 16383
5, 39355, Pitch_bend_c, 3, 13696
5, 39356, Pitch_bend_c, 3, 11008
5, 39357, Pitch_bend_c, 3, 8320
5, 39358, Pitch_bend_c, 3, 5632
5, 39359, Pitch_bend_c, 3, 2944
5, 39360, Note_on_c, 3, 81, 0
5, 39360, Pitch_bend_c, 3, 128
5, 39366, Pitch_bend_c, 3, 8192
5, 39780, Pitch_bend_c, 3, 128
5, 39780, Note_on_c, 3, 44, 100
5, 39781, Pitch_bend_c, 3, 256
5, 39782, Pitch_bend_c, 3, 384
5, 39783, Pitch_bend_c, 3, 640
5, 39784, Pitch_bend_c, 3, 768
5, 39785, Pitch_bend_c, 3, 1024
5, 39786, Pitch_bend_c, 3, 1152
5, 39787, Pitch_bend_c, 3, 1408
5, 39788, Pitch_bend_c, 3, 1536
5, 39789, Pitch_bend_c, 3, 1792
5, 39790, Pitch_bend_c, 3, 1920
5, 39791, Pitch_bend_c, 3, 2176
5, 39792, Pitch_bend_c, 3, 2304
5, 39793, Pitch_bend_c, 3, 2560
5, 39794, Pitch_bend_c, 3, 2688
5, 39795, Pitch_bend_c, 3, 2816
5, 39796, Pitch_bend_c, 3, 3072
5, 39797, Pitch_bend_c, 3, 3200
5, 39798, Pitch_bend_c, 3, 3456
5, 39799, Pitch_bend_c, 3, 3584
5, 39800, Pitch_bend_c, 3, 3840
5, 39801, Pitch_bend_c, 3, 3968
5, 39802, Pitch_bend_c, 3, 4224
5, 39803, Pitch_bend_c, 3, 4352
5, 39804, Pitch_bend_c, 3, 4608
5, 39805, Pitch_bend_c, 3, 4736
5, 39806, Pitch_bend_c, 3, 4992
5, 39807, Pitch_bend_c, 3, 5120
5, 39808, Pitch_bend_c, 3, 5376
5, 39809, Pitch_bend_c, 3, 5504
5, 39810, Pitch_bend_c, 3, 5632
5, 39811, Pitch_bend_c, 3, 5888
5, 39812, Pitch_bend_c, 3, 6016
5, 39813, Pitch_bend_c, 3, 6272
5, 39814, Pitch_bend_c, 3, 6400
5, 39815, Pitch_bend_c, 3, 6656
5, 39816, Pitch_bend_c, 3, 6784
5, 39817, Pitch_bend_c, 3, 7040
5, 39818, Pitch_bend_c, 3, 7168
5, 39819, Pitch_bend_c, 3, 7424
5, 39820, Pitch_bend_c, 3, 7552
5, 39821, Pitch_bend_c, 3, 7808
5, 39822, Pitch_bend_c, 3, 7936
5, 39823, Pitch_bend_c, 3, 8192
5, 39840, Note_on_c, 3, 44, 0
5, 39840, Note_on_c, 3, 42, 100
5, 39960, Note_on_c, 3, 42, 0
5, 40020, Note_on_c, 3, 42, 100
5, 40050, Note_on_c, 3, 42, 0
5, 40050, Note_on_c, 3, 44, 100
5, 40080, Note_on_c, 3, 44, 0
5, 40080, Note_on_c, 3, 47, 100
5, 40095, Note_on_c, 3, 47, 0
5, 40095, Note_on_c, 3, 49, 100
5, 40110, Note_on_c, 3, 49, 0
5, 40110, Note_on_c, 3, 47, 100
5, 40200, Note_on_c, 3, 47, 0
5, 40200, Note_on_c, 3, 42, 100
5, 40230, Note_on_c, 3, 42, 0
5, 40230, Note_on_c, 3, 40, 100
5, 40320, Note_on_c, 3, 40, 0
5, 40320, Pitch_bend_c, 3, 128
5, 40320, Note_on_c, 3, 49, 100
5, 40321, Pitch_bend_c, 3, 256
5, 40322, Pitch_bend_c, 3, 384
5, 40323, Pitch_bend_c, 3, 512
5, 40324, Pitch_bend_c, 3, 640
5, 40325, Pitch_bend_c, 3, 768
5, 40326, Pitch_bend_c, 3, 896
5, 40327, Pitch_bend_c, 3, 1024
5, 40328, Pitch_bend_c, 3, 1152
5, 40329, Pitch_bend_c, 3, 1280
5, 40330, Pitch_bend_c, 3, 1408
5, 40331, Pitch_bend_c, 3, 1536
5, 40332, Pitch_bend_c, 3, 1664
5, 40333, Pitch_bend_c, 3, 1792
5, 40334, Pitch_bend_c, 3, 1920
5, 40335, Pitch_bend_c, 3, 2176
5, 40336, Pitch_bend_c, 3, 2304
5, 40337, Pitch_bend_c, 3, 2432
5, 40338, Pitch_bend_c, 3, 2560
5, 40339, Pitch_bend_c, 3, 2688
5, 40340, Pitch_bend_c, 3, 2816
5, 40341, Pitch_bend_c, 3, 2944
5, 40342, Pitch_bend_c, 3, 3072
5, 40343, Pitch_bend_c, 3, 3200
5, 40344, Pitch_bend_c, 3, 3328
5, 40345, Pitch_bend_c, 3, 3456
5, 40346, Pitch_bend_c, 3, 3584
5, 40347, Pitch_bend_c, 3, 3712
5, 40348, Pitch_bend_c, 3, 3840
5, 40349, Pitch_bend_c, 3, 3968
5, 40350, Pitch_bend_c, 3, 4224
5, 40351, Pitch_bend_c, 3, 4352
5, 40352, Pitch_bend_c, 3, 4480
5, 40353, Pitch_bend_c, 3, 4608
5, 40354, Pitch_bend_c, 3, 4736
5, 40355, Pitch_bend_c, 3, 4864
5, 40356, Pitch_bend_c, 3, 4992
5, 40357, Pitch_bend_c, 3, 5120
5, 40358, Pitch_bend_c, 3, 5248
5, 40359, Pitch_bend_c, 3, 5376
5, 40360, Pitch_bend_c, 3, 5504
5, 40361, Pitch_bend_c, 3, 5632
5, 40362, Pitch_bend_c, 3, 5760
5, 40363, Pitch_bend_c, 3, 5888
5, 40364, Pitch_bend_c, 3, 6016
5, 40365, Pitch_bend_c, 3, 6272
5, 40366, Pitch_bend_c, 3, 6400
5, 40367, Pitch_bend_c, 3, 6528
5, 40368, Pitch_bend_c, 3, 6656
5, 40369, Pitch_bend_c, 3, 6784
5, 40370, Pitch_bend_c, 3, 6912
5, 40371, Pitch_bend_c, 3, 7040
5, 40372, Pitch_bend_c, 3, 7168
5, 40373, Pitch_bend_c, 3, 7296
5, 40374, Pitch_bend_c, 3, 7424
5, 40375, Pitch_bend_c, 3, 7552
5, 40376, Pitch_bend_c, 3, 7680
5, 40377, Pitch_bend_c, 3, 7808
5, 40378, Pitch_bend_c, 3, 7936
5, 40379, Pitch_bend_c, 3, 8192
5, 40440, Note_on_c, 3, 49, 0
5, 40440, Note_on_c, 3, 66, 100
5, 40440, Pitch_bend_c, 3, 256
5, 40441, Pitch_bend_c, 3, 768
5, 40442, Pitch_bend_c, 3, 1408
5, 40443, Pitch_bend_c, 3, 2048
5, 40444, Pitch_bend_c, 3, 2688
5, 40445, Pitch_bend_c, 3, 3200
5, 40446, Pitch_bend_c, 3, 3840
5, 40447, Pitch_bend_c, 3, 4480
5, 40448, Pitch_bend_c, 3, 5120
5, 40449, Pitch_bend_c, 3, 5632
5, 40450, Pitch_bend_c, 3, 6272
5, 40451, Pitch_bend_c, 3, 6912
5, 40452, Pitch_bend_c, 3, 7552
5, 40453, Pitch_bend_c, 3, 8192
5, 40470, Note_on_c, 3, 66, 0
5, 40470, Note_on_c, 3, 64, 100
5, 40560, Note_on_c, 3, 64, 0
5, 40920, Note_on_c, 3, 61, 100
5, 40920, Note_on_c, 3, 64, 100
5, 40950, Note_on_c, 3, 64, 0
5, 40950, Note_on_c, 3, 61, 0
5, 40950, Note_on_c, 3, 64, 100
5, 40950, Note_on_c, 3, 59, 100
5, 40978, Pitch_bend_c, 3, 8192
5, 40979, Pitch_bend_c, 3, 7680
5, 40980, Pitch_bend_c, 3, 7424
5, 40981, Pitch_bend_c, 3, 6912
5, 40982, Pitch_bend_c, 3, 6656
5, 40983, Pitch_bend_c, 3, 6144
5, 40984, Pitch_bend_c, 3, 5632
5, 40985, Pitch_bend_c, 3, 4096
5, 40986, Pitch_bend_c, 3, 3584
5, 40987, Pitch_bend_c, 3, 2560
5, 40988, Pitch_bend_c, 3, 1152
5, 40989, Pitch_bend_c, 3, 768
5, 40990, Pitch_bend_c, 3, 512
5, 40991, Pitch_bend_c, 3, 256
5, 40992, Pitch_bend_c, 3, 128
5, 41039, Pitch_bend_c, 3, 128
5, 41040, Note_on_c, 3, 59, 0
5, 41040, Note_on_c, 3, 64, 0
5, 41040, Note_on_c, 3, 56, 100
5, 41040, Pitch_bend_c, 3, 256
5, 41042, Pitch_bend_c, 3, 512
5, 41043, Pitch_bend_c, 3, 768
5, 41045, Pitch_bend_c, 3, 1024
5, 41046, Pitch_bend_c, 3, 1280
5, 41047, Pitch_bend_c, 3, 1792
5, 41048, Pitch_bend_c, 3, 2048
5, 41049, Pitch_bend_c, 3, 2560
5, 41050, Pitch_bend_c, 3, 2816
5, 41051, Pitch_bend_c, 3, 3072
5, 41052, Pitch_bend_c, 3, 3328
5, 41053, Pitch_bend_c, 3, 3840
5, 41054, Pitch_bend_c, 3, 4096
5, 41055, Pitch_bend_c, 3, 4352
5, 41056, Pitch_bend_c, 3, 4608
5, 41057, Pitch_bend_c, 3, 4864
5, 41058, Pitch_bend_c, 3, 5376
5, 41059, Pitch_bend_c, 3, 5632
5, 41060, Pitch_bend_c, 3, 5888
5, 41061, Pitch_bend_c, 3, 6144
5, 41062, Pitch_bend_c, 3, 6400
5, 41063, Pitch_bend_c, 3, 6528
5, 41064, Pitch_bend_c, 3, 6656
5, 41065, Pitch_bend_c, 3, 6912
5, 41067, Pitch_bend_c, 3, 7168
5, 41068, Pitch_bend_c, 3, 7296
5, 41069, Pitch_bend_c, 3, 7552
5, 41070, Pitch_bend_c, 3, 7680
5, 41071, Pitch_bend_c, 3, 7936
5, 41072, Pitch_bend_c, 3, 8192
5, 41100, Note_on_c, 3, 56, 0
5, 41100, Note_on_c, 3, 64, 100
5, 41100, Note_on_c, 3, 59, 100
5, 41105, Pitch_bend_c, 3, 8192
5, 41106, Pitch_bend_c, 3, 8448
5, 41107, Pitch_bend_c, 3, 8704
5, 41108, Pitch_bend_c, 3, 8960
5, 41109, Pitch_bend_c, 3, 9472
5, 41110, Pitch_bend_c, 3, 9728
5, 41111, Pitch_bend_c, 3, 10496
5, 41112, Pitch_bend_c, 3, 16383
5, 41113, Pitch_bend_c, 3, 12288
5, 41114, Pitch_bend_c, 3, 12032
5, 41115, Pitch_bend_c, 3, 11776
5, 41116, Pitch_bend_c, 3, 11520
5, 41117, Pitch_bend_c, 3, 11264
5, 41118, Pitch_bend_c, 3, 8960
5, 41119, Pitch_bend_c, 3, 8448
5, 41120, Pitch_bend_c, 3, 8576
5, 41121, Pitch_bend_c, 3, 8320
5, 41127, Pitch_bend_c, 3, 8192
5, 41280, Note_on_c, 3, 59, 0
5, 41280, Note_on_c, 3, 64, 0
5, 41400, Note_on_c, 3, 59, 100
5, 41400, Note_on_c, 3, 64, 100
5, 41490, Note_on_c, 3, 64, 0
5, 41490, Note_on_c, 3, 59, 0
5, 41490, Note_on_c, 3, 59, 100
5, 41494, Note_on_c, 3, 64, 100
5, 41520, Note_on_c, 3, 59, 0
5, 41524, Note_on_c, 3, 64, 0
5, 41580, Note_on_c, 3, 54, 100
5, 41580, Note_on_c, 3, 59, 100
5, 41700, Note_on_c, 3, 59, 0
5, 41700, Note_on_c, 3, 54, 0
5, 41700, Note_on_c, 3, 54, 100
5, 41700, Note_on_c, 3, 59, 100
5, 41730, Note_on_c, 3, 59, 0
5, 41730, Note_on_c, 3, 54, 0
5, 41730, Note_on_c, 3, 54, 100
5, 41730, Note_on_c, 3, 59, 100
5, 41760, Note_on_c, 3, 59, 0
5, 41760, Note_on_c, 3, 54, 0
5, 41760, Note_on_c, 3, 52, 100
5, 41760, Note_on_c, 3, 57, 100
5, 41865, Note_on_c, 3, 64, 100
5, 41880, Note_on_c, 3, 64, 0
5, 41880, Note_on_c, 3, 57, 0
5, 41880, Note_on_c, 3, 52, 0
5, 41880, Note_on_c, 3, 66, 100
5, 41880, Note_on_c, 3, 61, 100
5, 41910, Note_on_c, 3, 61, 0
5, 41910, Note_on_c, 3, 66, 0
5, 41940, Note_on_c, 3, 61, 100
5, 41970, Note_on_c, 3, 61, 0
5, 41970, Note_on_c, 3, 66, 100
5, 42000, Note_on_c, 3, 66, 0
5, 42060, Pitch_bend_c, 3, 8320
5, 42060, Note_on_c, 3, 64, 100
5, 42060, Note_on_c, 3, 59, 100
5, 42062, Pitch_bend_c, 3, 8448
5, 42063, Pitch_bend_c, 3, 8576
5, 42064, Pitch_bend_c, 3, 8704
5, 42065, Pitch_bend_c, 3, 8832
5, 42066, Pitch_bend_c, 3, 9088
5, 42067, Pitch_bend_c, 3, 9216
5, 42068, Pitch_bend_c, 3, 9600
5, 42069, Pitch_bend_c, 3, 9728
5, 42070, Pitch_bend_c, 3, 10112
5, 42071, Pitch_bend_c, 3, 10624
5, 42072, Pitch_bend_c, 3, 11392
5, 42073, Pitch_bend_c, 3, 11904
5, 42074, Pitch_bend_c, 3, 12416
5, 42075, Pitch_bend_c, 3, 12928
5, 42076, Pitch_bend_c, 3, 13184
5, 42077, Pitch_bend_c, 3, 13440
5, 42078, Pitch_bend_c, 3, 13952
5, 42079, Pitch_bend_c, 3, 14208
5, 42080, Pitch_bend_c, 3, 14720
5, 42081, Pitch_bend_c, 3, 14848
5, 42082, Pitch_bend_c, 3, 15232
5, 42083, Pitch_bend_c, 3, 15488
5, 42084, Pitch_bend_c, 3, 15744
5, 42085, Pitch_bend_c, 3, 15872
5, 42086, Pitch_bend_c, 3, 16000
5, 42087, Pitch_bend_c, 3, 16128
5, 42088, Pitch_bend_c, 3, 16256
5, 42090, Pitch_bend_c, 3, 16383
5, 42101, Pitch_bend_c, 3, 16256
5, 42102, Pitch_bend_c, 3, 15232
5, 42103, Pitch_bend_c, 3, 14464
5, 42104, Pitch_bend_c, 3, 13952
5, 42105, Pitch_bend_c, 3, 13440
5, 42106, Pitch_bend_c, 3, 12672
5, 42107, Pitch_bend_c, 3, 11904
5, 42108, Pitch_bend_c, 3, 10880
5, 42109, Pitch_bend_c, 3, 10368
5, 42110, Pitch_bend_c, 3, 9600
5, 42111, Pitch_bend_c, 3, 9216
5, 42112, Pitch_bend_c, 3, 8832
5, 42113, Pitch_bend_c, 3, 8576
5, 42114, Pitch_bend_c, 3, 8320
5, 42116, Pitch_bend_c, 3, 8192
5, 42240, Note_on_c, 3, 59, 0
5, 42240, Note_on_c, 3, 64, 0
5, 42300, Note_on_c, 3, 64, 100
5, 42300, Note_on_c, 3, 59, 100
5, 42345, Note_on_c, 3, 59, 0
5, 42345, Note_on_c, 3, 64, 0
5, 42345, Note_on_c, 3, 64, 100
5, 42360, Note_on_c, 3, 64, 0
5, 42360, Note_on_c, 3, 66, 100
5, 42390, Note_on_c, 3, 66, 0
5, 42390, Note_on_c, 3, 64, 100
5, 42420, Note_on_c, 3, 64, 0
5, 42420, Note_on_c, 3, 59, 100
5, 42480, Note_on_c, 3, 59, 0
5, 42480, Note_on_c, 3, 54, 100
5, 42540, Note_on_c, 3, 54, 0
5, 42540, Note_on_c, 3, 63, 100
5, 42540, Note_on_c, 3, 59, 100
5, 42570, Note_on_c, 3, 59, 0
5, 42570, Note_on_c, 3, 63, 0
5, 42570, Note_on_c, 3, 59, 100
5, 42570, Note_on_c, 3, 63, 100
5, 42600, Note_on_c, 3, 63, 0
5, 42600, Note_on_c, 3, 59, 0
5, 42600, Note_on_c, 3, 54, 100
5, 42600, Note_on_c, 3, 59, 100
5, 42630, Note_on_c, 3, 59, 0
5, 42630, Note_on_c, 3, 54, 0
5, 42630, Note_on_c, 3, 51, 100
5, 42660, Note_on_c, 3, 51, 0
5, 42660, Note_on_c, 3, 54, 100
5, 42720, Note_on_c, 3, 54, 0
5, 42720, Pitch_bend_c, 3, 128
5, 42720, Note_on_c, 3, 54, 100
5, 42734, Pitch_bend_c, 3, 384
5, 42736, Pitch_bend_c, 3, 512
5, 42738, Pitch_bend_c, 3, 640
5, 42739, Pitch_bend_c, 3, 896
5, 42740, Pitch_bend_c, 3, 1152
5, 42742, Pitch_bend_c, 3, 1408
5, 42743, Pitch_bend_c, 3, 2176
5, 42744, Pitch_bend_c, 3, 2944
5, 42745, Pitch_bend_c, 3, 3712
5, 42746, Pitch_bend_c, 3, 4736
5, 42747, Pitch_bend_c, 3, 4992
5, 42748, Pitch_bend_c, 3, 5504
5, 42749, Pitch_bend_c, 3, 5632
5, 42750, Pitch_bend_c, 3, 5760
5, 42751, Pitch_bend_c, 3, 5888
5, 42752, Pitch_bend_c, 3, 6016
5, 42754, Pitch_bend_c, 3, 6144
5, 42755, Pitch_bend_c, 3, 6272
5, 42758, Pitch_bend_c, 3, 6400
5, 42759, Pitch_bend_c, 3, 6528
5, 42760, Pitch_bend_c, 3, 6656
5, 42761, Pitch_bend_c, 3, 6784
5, 42763, Pitch_bend_c, 3, 7040
5, 42764, Pitch_bend_c, 3, 7168
5, 42765, Pitch_bend_c, 3, 7296
5, 42766, Pitch_bend_c, 3, 7552
5, 42767, Pitch_bend_c, 3, 7808
5, 42768, Pitch_bend_c, 3, 7936
5, 42769, Pitch_bend_c, 3, 8064
5, 42770, Pitch_bend_c, 3, 8192
5, 42780, Note_on_c, 3, 54, 0
5, 42780, Note_on_c, 3, 54, 70
5, 42810, Note_on_c, 3, 54, 0
5, 42810, Note_on_c, 3, 54, 100
5, 42840, Note_on_c, 3, 54, 0
5, 42840, Note_on_c, 3, 54, 100
5, 42930, Note_on_c, 3, 54, 0
5, 43200, Note_on_c, 3, 49, 100
5, 43245, Note_on_c, 3, 49, 0
5, 43320, Note_on_c, 3, 68, 100
5, 43380, Note_on_c, 3, 68, 0
5, 43380, Note_on_c, 3, 56, 100
5, 43380, Note_on_c, 3, 59, 100
5, 43410, Note_on_c, 3, 59, 0
5, 43410, Note_on_c, 3, 56, 0
5, 43410, Note_on_c, 3, 59, 100
5, 43410, Note_on_c, 3, 56, 100
5, 43440, Note_on_c, 3, 56, 0
5, 43440, Note_on_c, 3, 59, 0
5, 43493, Note_on_c, 3, 59, 100
5, 43503, Note_on_c, 3, 54, 100
5, 43613, Note_on_c, 3, 59, 0
5, 43620, Note_on_c, 3, 54, 100
5, 43620, Note_on_c, 3, 59, 100
5, 43623, Note_on_c, 3, 54, 0
5, 43680, Note_on_c, 3, 59, 0
5, 43680, Note_on_c, 3, 54, 0
5, 43800, Note_on_c, 3, 71, 100
5, 43800, Note_on_c, 3, 76, 100
5, 43830, Note_on_c, 3, 71, 0
5, 43830, Note_on_c, 3, 73, 100
5, 43860, Note_on_c, 3, 73, 0
5, 43860, Note_on_c, 3, 76, 0
5, 43860, Note_on_c, 3, 76, 100
5, 43860, Note_on_c, 3, 73, 100
5, 43890, Note_on_c, 3, 73, 0
5, 43890, Note_on_c, 3, 76, 0
5, 43890, Note_on_c, 3, 76, 100
5, 43890, Note_on_c, 3, 73, 100
5, 43920, Note_on_c, 3, 73, 0
5, 43920, Note_on_c, 3, 76, 0
5, 43920, Note_on_c, 3, 68, 100
5, 43921, Pitch_bend_c, 3, 0
5, 43922, Pitch_bend_c, 3, 0
5, 43923, Pitch_bend_c, 3, 256
5, 43924, Pitch_bend_c, 3, 512
5, 43925, Pitch_bend_c, 3, 640
5, 43926, Pitch_bend_c, 3, 896
5, 43927, Pitch_bend_c, 3, 1152
5, 43928, Pitch_bend_c, 3, 1280
5, 43929, Pitch_bend_c, 3, 1536
5, 43930, Pitch_bend_c, 3, 1792
5, 43931, Pitch_bend_c, 3, 2048
5, 43932, Pitch_bend_c, 3, 2176
5, 43933, Pitch_bend_c, 3, 2432
5, 43934, Pitch_bend_c, 3, 2688
5, 43935, Pitch_bend_c, 3, 2816
5, 43936, Pitch_bend_c, 3, 3072
5, 43937, Pitch_bend_c, 3, 3328
5, 43938, Pitch_bend_c, 3, 3584
5, 43939, Pitch_bend_c, 3, 3712
5, 43940, Pitch_bend_c, 3, 3968
5, 43941, Pitch_bend_c, 3, 4224
5, 43942, Pitch_bend_c, 3, 4352
5, 43943, Pitch_bend_c, 3, 4608
5, 43944, Pitch_bend_c, 3, 4864
5, 43945, Pitch_bend_c, 3, 5120
5, 43946, Pitch_bend_c, 3, 5248
5, 43947, Pitch_bend_c, 3, 5504
5, 43948, Pitch_bend_c, 3, 5760
5, 43949, Pitch_bend_c, 3, 5888
5, 43950, Pitch_bend_c, 3, 6144
5, 43951, Pitch_bend_c, 3, 6400
5, 43952, Pitch_bend_c, 3, 6656
5, 43953, Pitch_bend_c, 3, 6784
5, 43954, Pitch_bend_c, 3, 7040
5, 43955, Pitch_bend_c, 3, 7296
5, 43956, Pitch_bend_c, 3, 7424
5, 43957, Pitch_bend_c, 3, 7680
5, 43958, Pitch_bend_c, 3, 7936
5, 43959, Pitch_bend_c, 3, 8192
5, 43980, Note_on_c, 3, 68, 0
5, 43980, Pitch_bend_c, 3, 8320
5, 43980, Note_on_c, 3, 76, 100
5, 43980, Note_on_c, 3, 71, 100
5, 43982, Pitch_bend_c, 3, 8448
5, 43983, Pitch_bend_c, 3, 8576
5, 43984, Pitch_bend_c, 3, 8704
5, 43985, Pitch_bend_c, 3, 8832
5, 43986, Pitch_bend_c, 3, 9088
5, 43987, Pitch_bend_c, 3, 9216
5, 43988, Pitch_bend_c, 3, 9600
5, 43989, Pitch_bend_c, 3, 9728
5, 43990, Pitch_bend_c, 3, 10112
5, 43991, Pitch_bend_c, 3, 10624
5, 43992, Pitch_bend_c, 3, 11392
5, 43993, Pitch_bend_c, 3, 11904
5, 43994, Pitch_bend_c, 3, 12416
5, 43995, Pitch_bend_c, 3, 12928
5, 43996, Pitch_bend_c, 3, 13184
5, 43997, Pitch_bend_c, 3, 13440
5, 43998, Pitch_bend_c, 3, 13952
5, 43999, Pitch_bend_c, 3, 14208
5, 44000, Pitch_bend_c, 3, 14720
5, 44001, Pitch_bend_c, 3, 14848
5, 44002, Pitch_bend_c, 3, 15232
5, 44003, Pitch_bend_c, 3, 15488
5, 44004, Pitch_bend_c, 3, 15744
5, 44005, Pitch_bend_c, 3, 15872
5, 44006, Pitch_bend_c, 3, 16000
5, 44007, Pitch_bend_c, 3, 16128
5, 44008, Pitch_bend_c, 3, 16256
5, 44010, Pitch_bend_c, 3, 16383
5, 44021, Pitch_bend_c, 3, 16256
5, 44022, Pitch_bend_c, 3, 15232
5, 44023, Pitch_bend_c, 3, 14464
5, 44024, Pitch_bend_c, 3, 13952
5, 44025, Pitch_bend_c, 3, 13440
5, 44026, Pitch_bend_c, 3, 12672
5, 44027, Pitch_bend_c, 3, 11904
5, 44028, Pitch_bend_c, 3, 10880
5, 44029, Pitch_bend_c, 3, 10368
5, 44030, Pitch_bend_c, 3, 9600
5, 44031, Pitch_bend_c, 3, 9216
5, 44032, Pitch_bend_c, 3, 8832
5, 44033, Pitch_bend_c, 3, 8576
5, 44034, Pitch_bend_c, 3, 8320
5, 44036, Pitch_bend_c, 3, 8192
5, 44160, Note_on_c, 3, 71, 0
5, 44160, Note_on_c, 3, 76, 0
5, 44160, Note_on_c, 3, 49, 100
5, 44280, Note_on_c, 3, 49, 0
5, 44280, Note_on_c, 3, 68, 100
5, 44340, Note_on_c, 3, 68, 0
5, 44340, Note_on_c, 3, 59, 100
5, 44370, Note_on_c, 3, 59, 0
5, 44370, Note_on_c, 3, 56, 100
5, 44370, Note_on_c, 3, 59, 100
5, 44370, Note_on_c, 3, 64, 100
5, 44400, Note_on_c, 3, 64, 0
5, 44400, Note_on_c, 3, 59, 0
5, 44400, Note_on_c, 3, 56, 0
5, 44400, Note_on_c, 3, 59, 100
5, 44400, Note_on_c, 3, 54, 100
5, 44460, Note_on_c, 3, 54, 0
5, 44460, Note_on_c, 3, 59, 0
5, 44460, Note_on_c, 3, 54, 100
5, 44460, Note_on_c, 3, 59, 100
5, 44580, Note_on_c, 3, 59, 0
5, 44580, Note_on_c, 3, 54, 0
5, 44580, Note_on_c, 3, 54, 100
5, 44610, Note_on_c, 3, 54, 0
5, 44610, Note_on_c, 3, 59, 100
5, 44640, Note_on_c, 3, 59, 0
5, 44760, Note_on_c, 3, 66, 100
5, 44780, Note_on_c, 3, 66, 0
5, 44780, Note_on_c, 3, 69, 100
5, 44800, Note_on_c, 3, 69, 0
5, 44800, Note_on_c, 3, 66, 100
5, 44820, Note_on_c, 3, 66, 0
5, 44820, Note_on_c, 3, 54, 100
5, 44820, Note_on_c, 3, 59, 100
5, 44850, Note_on_c, 3, 59, 0
5, 44850, Note_on_c, 3, 54, 0
5, 44850, Note_on_c, 3, 61, 100
5, 44850, Note_on_c, 3, 56, 100
5, 44880, Note_on_c, 3, 56, 0
5, 44880, Note_on_c, 3, 61, 0
5, 44880, Note_on_c, 3, 56, 100
5, 44940, Note_on_c, 3, 56, 0
5, 44940, Pitch_bend_c, 3, 8320
5, 44940, Note_on_c, 3, 64, 100
5, 44940, Note_on_c, 3, 59, 100
5, 44942, Pitch_bend_c, 3, 8448
5, 44943, Pitch_bend_c, 3, 8576
5, 44944, Pitch_bend_c, 3, 8704
5, 44945, Pitch_bend_c, 3, 8832
5, 44946, Pitch_bend_c, 3, 9088
5, 44947, Pitch_bend_c, 3, 9216
5, 44948, Pitch_bend_c, 3, 9600
5, 44949, Pitch_bend_c, 3, 9728
5, 44950, Pitch_bend_c, 3, 10112
5, 44951, Pitch_bend_c, 3, 10624
5, 44952, Pitch_bend_c, 3, 11392
5, 44953, Pitch_bend_c, 3, 11904
5, 44954, Pitch_bend_c, 3, 12416
5, 44955, Pitch_bend_c, 3, 12928
5, 44956, Pitch_bend_c, 3, 13184
5, 44957, Pitch_bend_c, 3, 13440
5, 44958, Pitch_bend_c, 3, 13952
5, 44959, Pitch_bend_c, 3, 14208
5, 44960, Pitch_bend_c, 3, 14720
5, 44961, Pitch_bend_c, 3, 14848
5, 44962, Pitch_bend_c, 3, 15232
5, 44963, Pitch_bend_c, 3, 15488
5, 44964, Pitch_bend_c, 3, 15744
5, 44965, Pitch_bend_c, 3, 15872
5, 44966, Pitch_bend_c, 3, 16000
5, 44967, Pitch_bend_c, 3, 16128
5, 44968, Pitch_bend_c, 3, 16256
5, 44970, Pitch_bend_c, 3, 16383
5, 44981, Pitch_bend_c, 3, 16256
5, 44982, Pitch_bend_c, 3, 15232
5, 44983, Pitch_bend_c, 3, 14464
5, 44984, Pitch_bend_c, 3, 13952
5, 44985, Pitch_bend_c, 3, 13440
5, 44986, Pitch_bend_c, 3, 12672
5, 44987, Pitch_bend_c, 3, 11904
5, 44988, Pitch_bend_c, 3, 10880
5, 44989, Pitch_bend_c, 3, 10368
5, 44990, Pitch_bend_c, 3, 9600
5, 44991, Pitch_bend_c, 3, 9216
5, 44992, Pitch_bend_c, 3, 8832
5, 44993, Pitch_bend_c, 3, 8576
5, 44994, Pitch_bend_c, 3, 8320
5, 44996, Pitch_bend_c, 3, 8192
5, 45120, Note_on_c, 3, 59, 0
5, 45120, Note_on_c, 3, 64, 0
5, 45225, Note_on_c, 3, 64, 100
5, 45240, Note_on_c, 3, 64, 0
5, 45240, Note_on_c, 3, 59, 100
5, 45240, Note_on_c, 3, 66, 100
5, 45270, Note_on_c, 3, 66, 0
5, 45270, Note_on_c, 3, 64, 100
5, 45300, Note_on_c, 3, 64, 0
5, 45300, Note_on_c, 3, 59, 0
5, 45300, Note_on_c, 3, 56, 100
5, 45330, Note_on_c, 3, 56, 0
5, 45330, Note_on_c, 3, 64, 100
5, 45330, Note_on_c, 3, 59, 100
5, 45360, Note_on_c, 3, 59, 0
5, 45360, Note_on_c, 3, 64, 0
5, 45417, Note_on_c, 3, 59, 100
5, 45419, Note_on_c, 3, 54, 100
5, 45537, Note_on_c, 3, 59, 0
5, 45539, Note_on_c, 3, 54, 0
5, 45540, Note_on_c, 3, 54, 100
5, 45570, Note_on_c, 3, 54, 0
5, 45570, Note_on_c, 3, 59, 100
5, 45600, Note_on_c, 3, 59, 0
5, 45600, Note_on_c, 3, 54, 100
5, 45630, Note_on_c, 3, 54, 0
5, 45630, Note_on_c, 3, 52, 100
5, 45660, Note_on_c, 3, 52, 0
5, 45660, Note_on_c, 3, 47, 100
5, 45690, Note_on_c, 3, 47, 0
5, 45690, Note_on_c, 3, 49, 100
5, 45720, Note_on_c, 3, 49, 0
5, 45720, Note_on_c, 3, 52, 100
5, 45780, Note_on_c, 3, 52, 0
5, 45780, Pitch_bend_c, 3, 0
5, 45780, Note_on_c, 3, 56, 100
5, 45781, Pitch_bend_c, 3, 128
5, 45782, Pitch_bend_c, 3, 384
5, 45783, Pitch_bend_c, 3, 640
5, 45784, Pitch_bend_c, 3, 896
5, 45785, Pitch_bend_c, 3, 1152
5, 45786, Pitch_bend_c, 3, 1408
5, 45787, Pitch_bend_c, 3, 1664
5, 45788, Pitch_bend_c, 3, 1920
5, 45789, Pitch_bend_c, 3, 2176
5, 45790, Pitch_bend_c, 3, 2432
5, 45791, Pitch_bend_c, 3, 2816
5, 45792, Pitch_bend_c, 3, 3072
5, 45793, Pitch_bend_c, 3, 3328
5, 45794, Pitch_bend_c, 3, 3584
5, 45795, Pitch_bend_c, 3, 3840
5, 45796, Pitch_bend_c, 3, 4096
5, 45797, Pitch_bend_c, 3, 4352
5, 45798, Pitch_bend_c, 3, 4608
5, 45799, Pitch_bend_c, 3, 4864
5, 45800, Pitch_bend_c, 3, 5120
5, 45801, Pitch_bend_c, 3, 5504
5, 45802, Pitch_bend_c, 3, 5760
5, 45803, Pitch_bend_c, 3, 6016
5, 45804, Pitch_bend_c, 3, 6272
5, 45805, Pitch_bend_c, 3, 6528
5, 45806, Pitch_bend_c, 3, 6784
5, 45807, Pitch_bend_c, 3, 7040
5, 45808, Pitch_bend_c, 3, 7296
5, 45809, Pitch_bend_c, 3, 7552
5, 45810, Pitch_bend_c, 3, 7808
5, 45811, Pitch_bend_c, 3, 8192
5, 45840, Note_on_c, 3, 56, 0
5, 45840, Note_on_c, 3, 59, 100
5, 45900, Note_on_c, 3, 59, 0
5, 45900, Pitch_bend_c, 3, 8320
5, 45900, Note_on_c, 3, 64, 100
5, 45900, Note_on_c, 3, 59, 100
5, 45902, Pitch_bend_c, 3, 8448
5, 45903, Pitch_bend_c, 3, 8576
5, 45904, Pitch_bend_c, 3, 8704
5, 45905, Pitch_bend_c, 3, 8832
5, 45906, Pitch_bend_c, 3, 9088
5, 45907, Pitch_bend_c, 3, 9216
5, 45908, Pitch_bend_c, 3, 9600
5, 45909, Pitch_bend_c, 3, 9728
5, 45910, Pitch_bend_c, 3, 10112
5, 45911, Pitch_bend_c, 3, 10624
5, 45912, Pitch_bend_c, 3, 11392
5, 45913, Pitch_bend_c, 3, 11904
5, 45914, Pitch_bend_c, 3, 12416
5, 45915, Pitch_bend_c, 3, 12928
5, 45916, Pitch_bend_c, 3, 13184
5, 45917, Pitch_bend_c, 3, 13440
5, 45918, Pitch_bend_c, 3, 13952
5, 45919, Pitch_bend_c, 3, 14208
5, 45920, Pitch_bend_c, 3, 14720
5, 45921, Pitch_bend_c, 3, 14848
5, 45922, Pitch_bend_c, 3, 15232
5, 45923, Pitch_bend_c, 3, 15488
5, 45924, Pitch_bend_c, 3, 15744
5, 45925, Pitch_bend_c, 3, 15872
5, 45926, Pitch_bend_c, 3, 16000
5, 45927, Pitch_bend_c, 3, 16128
5, 45928, Pitch_bend_c, 3, 16256
5, 45930, Pitch_bend_c, 3, 16383
5, 45941, Pitch_bend_c, 3, 16256
5, 45942, Pitch_bend_c, 3, 15232
5, 45943, Pitch_bend_c, 3, 14464
5, 45944, Pitch_bend_c, 3, 13952
5, 45945, Pitch_bend_c, 3, 13440
5, 45946, Pitch_bend_c, 3, 12672
5, 45947, Pitch_bend_c, 3, 11904
5, 45948, Pitch_bend_c, 3, 10880
5, 45949, Pitch_bend_c, 3, 10368
5, 45950, Pitch_bend_c, 3, 9600
5, 45951, Pitch_bend_c, 3, 9216
5, 45952, Pitch_bend_c, 3, 8832
5, 45953, Pitch_bend_c, 3, 8576
5, 45954, Pitch_bend_c, 3, 8320
5, 45956, Pitch_bend_c, 3, 8192
5, 46080, Note_on_c, 3, 59, 0
5, 46080, Note_on_c, 3, 64, 0
5, 46080, Note_on_c, 3, 49, 100
5, 46080, Note_on_c, 3, 56, 100
5, 46185, Note_on_c, 3, 64, 100
5, 46200, Note_on_c, 3, 64, 0
5, 46200, Note_on_c, 3, 56, 0
5, 46200, Note_on_c, 3, 49, 0
5, 46200, Note_on_c, 3, 66, 100
5, 46230, Note_on_c, 3, 66, 0
5, 46230, Note_on_c, 3, 64, 100
5, 46260, Note_on_c, 3, 64, 0
5, 46260, Note_on_c, 3, 59, 100
5, 46290, Note_on_c, 3, 59, 0
5, 46290, Note_on_c, 3, 64, 100
5, 46320, Note_on_c, 3, 64, 0
5, 46320, Note_on_c, 3, 47, 100
5, 46380, Note_on_c, 3, 47, 0
5, 46380, Note_on_c, 3, 54, 100
5, 46440, Note_on_c, 3, 54, 0
5, 46440, Note_on_c, 3, 54, 100
5, 46440, Note_on_c, 3, 59, 100
5, 46500, Note_on_c, 3, 59, 0
5, 46500, Note_on_c, 3, 54, 0
5, 46500, Note_on_c, 3, 52, 100
5, 46500, Note_on_c, 3, 57, 100
5, 46530, Note_on_c, 3, 57, 0
5, 46530, Note_on_c, 3, 52, 0
5, 46530, Note_on_c, 3, 57, 100
5, 46560, Note_on_c, 3, 57, 0
5, 46560, Note_on_c, 3, 59, 100
5, 46590, Note_on_c, 3, 64, 100
5, 46620, Note_on_c, 3, 59, 0
5, 46620, Note_on_c, 3, 59, 100
5, 46650, Note_on_c, 3, 64, 0
5, 46650, Pitch_bend_c, 3, 128
5, 46650, Note_on_c, 3, 69, 100
5, 46654, Pitch_bend_c, 3, 384
5, 46656, Pitch_bend_c, 3, 640
5, 46657, Pitch_bend_c, 3, 896
5, 46658, Pitch_bend_c, 3, 1152
5, 46659, Pitch_bend_c, 3, 1664
5, 46660, Pitch_bend_c, 3, 2176
5, 46661, Pitch_bend_c, 3, 2688
5, 46662, Pitch_bend_c, 3, 3712
5, 46663, Pitch_bend_c, 3, 4224
5, 46664, Pitch_bend_c, 3, 4736
5, 46665, Pitch_bend_c, 3, 5248
5, 46666, Pitch_bend_c, 3, 5504
5, 46667, Pitch_bend_c, 3, 5760
5, 46668, Pitch_bend_c, 3, 6272
5, 46669, Pitch_bend_c, 3, 6528
5, 46670, Pitch_bend_c, 3, 6784
5, 46671, Pitch_bend_c, 3, 7040
5, 46672, Pitch_bend_c, 3, 8064
5, 46677, Pitch_bend_c, 3, 8192
5, 46680, Note_on_c, 3, 69, 0
5, 46680, Note_on_c, 3, 59, 0
5, 46680, Note_on_c, 3, 59, 100
5, 46680, Note_on_c, 3, 64, 100
5, 46770, Note_on_c, 3, 59, 100
5, 46770, Note_on_c, 3, 64, 100
5, 46800, Note_on_c, 3, 59, 100
5, 46800, Note_on_c, 3, 64, 100
5, 46830, Note_on_c, 3, 64, 0
5, 46830, Note_on_c, 3, 59, 0
5, 46860, Note_on_c, 3, 64, 0
5, 46860, Note_on_c, 3, 59, 0
5, 46860, Note_on_c, 3, 59, 100
5, 46860, Note_on_c, 3, 64, 100
5, 46890, Note_on_c, 3, 59, 100
5, 46890, Note_on_c, 3, 64, 100
5, 46920, Note_on_c, 3, 64, 0
5, 46920, Note_on_c, 3, 59, 0
5, 46920, Note_on_c, 3, 59, 0
5, 46920, Note_on_c, 3, 64, 0
5, 46920, Note_on_c, 3, 61, 100
5, 46920, Note_on_c, 3, 66, 100
5, 46950, Note_on_c, 3, 64, 0
5, 46950, Note_on_c, 3, 59, 0
5, 46950, Note_on_c, 3, 61, 100
5, 46950, Note_on_c, 3, 66, 100
5, 46980, Note_on_c, 3, 61, 0
5, 46980, Note_on_c, 3, 66, 0
5, 46980, Note_on_c, 3, 59, 100
5, 46980, Note_on_c, 3, 64, 100
5, 47010, Note_on_c, 3, 61, 0
5, 47010, Note_on_c, 3, 66, 0
5, 47010, Note_on_c, 3, 59, 100
5, 47010, Note_on_c, 3, 64, 100
5, 47040, Note_on_c, 3, 64, 0
5, 47040, Note_on_c, 3, 64, 0
5, 47040, Note_on_c, 3, 59, 0
5, 47040, Note_on_c, 3, 59, 0
5, 47040, Note_on_c, 3, 73, 100
5, 47041, Pitch_bend_c, 3, 0
5, 47043, Pitch_bend_c, 3, 128
5, 47044, Pitch_bend_c, 3, 256
5, 47045, Pitch_bend_c, 3, 384
5, 47046, Pitch_bend_c, 3, 512
5, 47048, Pitch_bend_c, 3, 640
5, 47049, Pitch_bend_c, 3, 768
5, 47050, Pitch_bend_c, 3, 896
5, 47051, Pitch_bend_c, 3, 1024
5, 47053, Pitch_bend_c, 3, 1152
5, 47054, Pitch_bend_c, 3, 1280
5, 47055, Pitch_bend_c, 3, 1408
5, 47056, Pitch_bend_c, 3, 1536
5, 47058, Pitch_bend_c, 3, 1664
5, 47059, Pitch_bend_c, 3, 1792
5, 47060, Pitch_bend_c, 3, 1920
5, 47061, Pitch_bend_c, 3, 2048
5, 47062, Pitch_bend_c, 3, 2176
5, 47064, Pitch_bend_c, 3, 2304
5, 47065, Pitch_bend_c, 3, 2432
5, 47066, Pitch_bend_c, 3, 2560
5, 47067, Pitch_bend_c, 3, 2688
5, 47069, Pitch_bend_c, 3, 2816
5, 47070, Pitch_bend_c, 3, 2944
5, 47071, Pitch_bend_c, 3, 3072
5, 47072, Pitch_bend_c, 3, 3200
5, 47074, Pitch_bend_c, 3, 3328
5, 47075, Pitch_bend_c, 3, 3456
5, 47076, Pitch_bend_c, 3, 3584
5, 47077, Pitch_bend_c, 3, 3712
5, 47079, Pitch_bend_c, 3, 3840
5, 47080, Pitch_bend_c, 3, 3968
5, 47081, Pitch_bend_c, 3, 4096
5, 47082, Pitch_bend_c, 3, 4224
5, 47083, Pitch_bend_c, 3, 4352
5, 47085, Pitch_bend_c, 3, 4480
5, 47086, Pitch_bend_c, 3, 4608
5, 47087, Pitch_bend_c, 3, 4736
5, 47088, Pitch_bend_c, 3, 4864
5, 47090, Pitch_bend_c, 3, 4992
5, 47091, Pitch_bend_c, 3, 5120
5, 47092, Pitch_bend_c, 3, 5248
5, 47093, Pitch_bend_c, 3, 5376
5, 47095, Pitch_bend_c, 3, 5504
5, 47096, Pitch_bend_c, 3, 5632
5, 47097, Pitch_bend_c, 3, 5760
5, 47098, Pitch_bend_c, 3, 5888
5, 47100, Pitch_bend_c, 3, 6016
5, 47101, Pitch_bend_c, 3, 6144
5, 47102, Pitch_bend_c, 3, 6272
5, 47103, Pitch_bend_c, 3, 6400
5, 47104, Pitch_bend_c, 3, 6528
5, 47106, Pitch_bend_c, 3, 6656
5, 47107, Pitch_bend_c, 3, 6784
5, 47108, Pitch_bend_c, 3, 6912
5, 47109, Pitch_bend_c, 3, 7040
5, 47111, Pitch_bend_c, 3, 7168
5, 47112, Pitch_bend_c, 3, 7296
5, 47113, Pitch_bend_c, 3, 7424
5, 47114, Pitch_bend_c, 3, 7552
5, 47116, Pitch_bend_c, 3, 7680
5, 47117, Pitch_bend_c, 3, 7808
5, 47118, Pitch_bend_c, 3, 7936
5, 47119, Pitch_bend_c, 3, 8064
5, 47120, Pitch_bend_c, 3, 8192
5, 47130, Note_on_c, 3, 73, 0
5, 47130, Note_on_c, 3, 73, 100
5, 47160, Note_on_c, 3, 73, 0
5, 47160, Note_on_c, 3, 73, 100
5, 47220, Note_on_c, 3, 73, 0
5, 47220, Note_on_c, 3, 73, 100
5, 47280, Note_on_c, 3, 73, 0
5, 47280, Note_on_c, 3, 73, 100
5, 47460, Note_on_c, 3, 73, 0
5, 47460, Note_on_c, 3, 73, 100
5, 47490, Note_on_c, 3, 73, 0
5, 47490, Note_on_c, 3, 73, 100
5, 47520, Note_on_c, 3, 73, 0
5, 47520, Pitch_bend_c, 3, 0
5, 47520, Note_on_c, 3, 73, 100
5, 47521, Pitch_bend_c, 3, 256
5, 47522, Pitch_bend_c, 3, 512
5, 47523, Pitch_bend_c, 3, 768
5, 47524, Pitch_bend_c, 3, 1152
5, 47525, Pitch_bend_c, 3, 1408
5, 47526, Pitch_bend_c, 3, 1664
5, 47527, Pitch_bend_c, 3, 2048
5, 47528, Pitch_bend_c, 3, 2304
5, 47529, Pitch_bend_c, 3, 2560
5, 47530, Pitch_bend_c, 3, 2816
5, 47531, Pitch_bend_c, 3, 3200
5, 47532, Pitch_bend_c, 3, 3456
5, 47533, Pitch_bend_c, 3, 3712
5, 47534, Pitch_bend_c, 3, 4096
5, 47535, Pitch_bend_c, 3, 4352
5, 47536, Pitch_bend_c, 3, 4608
5, 47537, Pitch_bend_c, 3, 4864
5, 47538, Pitch_bend_c, 3, 5248
5, 47539, Pitch_bend_c, 3, 5504
5, 47540, Pitch_bend_c, 3, 5760
5, 47541, Pitch_bend_c, 3, 6144
5, 47542, Pitch_bend_c, 3, 6400
5, 47543, Pitch_bend_c, 3, 6656
5, 47544, Pitch_bend_c, 3, 6912
5, 47545, Pitch_bend_c, 3, 7296
5, 47546, Pitch_bend_c, 3, 7552
5, 47547, Pitch_bend_c, 3, 7808
5, 47548, Pitch_bend_c, 3, 8192
5, 47580, Note_on_c, 3, 73, 0
5, 47580, Note_on_c, 3, 73, 100
5, 47640, Note_on_c, 3, 73, 0
5, 47640, Note_on_c, 3, 73, 100
5, 47700, Note_on_c, 3, 73, 0
5, 47700, Note_on_c, 3, 73, 100
5, 47760, Note_on_c, 3, 73, 0
5, 47760, Note_on_c, 3, 73, 100
5, 47767, Pitch_bend_c, 3, 7808
5, 47780, Pitch_bend_c, 3, 8704
5, 47790, Pitch_bend_c, 3, 7680
5, 47802, Pitch_bend_c, 3, 8704
5, 47811, Pitch_bend_c, 3, 7680
5, 47822, Pitch_bend_c, 3, 8832
5, 47828, Pitch_bend_c, 3, 7552
5, 47840, Pitch_bend_c, 3, 8832
5, 47845, Pitch_bend_c, 3, 7680
5, 47856, Pitch_bend_c, 3, 8576
5, 47868, Pitch_bend_c, 3, 8192
5, 47870, Pitch_bend_c, 3, 8448
5, 47871, Pitch_bend_c, 3, 8704
5, 47872, Pitch_bend_c, 3, 8832
5, 47873, Pitch_bend_c, 3, 8192
5, 47874, Pitch_bend_c, 3, 8064
5, 47875, Pitch_bend_c, 3, 7936
5, 47879, Pitch_bend_c, 3, 8960
5, 47881, Pitch_bend_c, 3, 9088
5, 47882, Pitch_bend_c, 3, 8448
5, 47883, Pitch_bend_c, 3, 7936
5, 47886, Pitch_bend_c, 3, 8064
5, 47887, Pitch_bend_c, 3, 8704
5, 47888, Pitch_bend_c, 3, 9088
5, 47889, Pitch_bend_c, 3, 7552
5, 47892, Pitch_bend_c, 3, 7808
5, 47893, Pitch_bend_c, 3, 8064
5, 47894, Pitch_bend_c, 3, 8576
5, 47895, Pitch_bend_c, 3, 8832
5, 47896, Pitch_bend_c, 3, 7808
5, 47901, Pitch_bend_c, 3, 8064
5, 47902, Pitch_bend_c, 3, 8320
5, 47903, Pitch_bend_c, 3, 8576
5, 47904, Pitch_bend_c, 3, 8960
5, 47905, Pitch_bend_c, 3, 7808
5, 47911, Pitch_bend_c, 3, 8064
5, 47913, Pitch_bend_c, 3, 8576
5, 47914, Pitch_bend_c, 3, 8704
5, 47915, Pitch_bend_c, 3, 8064
5, 47919, Pitch_bend_c, 3, 8320
5, 47920, Pitch_bend_c, 3, 8576
5, 47921, Pitch_bend_c, 3, 8832
5, 47922, Pitch_bend_c, 3, 9088
5, 47923, Pitch_bend_c, 3, 7552
5, 47928, Pitch_bend_c, 3, 8064
5, 47929, Pitch_bend_c, 3, 8192
5, 47930, Pitch_bend_c, 3, 8448
5, 47931, Pitch_bend_c, 3, 8576
5, 47933, Pitch_bend_c, 3, 7552
5, 47937, Pitch_bend_c, 3, 7808
5, 47938, Pitch_bend_c, 3, 8064
5, 47939, Pitch_bend_c, 3, 8320
5, 47940, Pitch_bend_c, 3, 8576
5, 47941, Pitch_bend_c, 3, 8064
5, 47942, Pitch_bend_c, 3, 7808
5, 47943, Pitch_bend_c, 3, 7680
5, 47944, Pitch_bend_c, 3, 7552
5, 47949, Pitch_bend_c, 3, 7808
5, 47950, Pitch_bend_c, 3, 8064
5, 47951, Pitch_bend_c, 3, 8448
5, 47954, Pitch_bend_c, 3, 8576
5, 47958, Pitch_bend_c, 3, 8704
5, 47959, Pitch_bend_c, 3, 8320
5, 47963, Pitch_bend_c, 3, 8064
5, 47965, Pitch_bend_c, 3, 7936
5, 47971, Pitch_bend_c, 3, 8064
5, 47972, Pitch_bend_c, 3, 8192
5, 47973, Pitch_bend_c, 3, 8320
5, 47974, Pitch_bend_c, 3, 8192
5, 48000, Note_on_c, 3, 73, 0
5, 48000, Pitch_bend_c, 3, 128
5, 48000, Note_on_c, 3, 75, 100
5, 48002, Pitch_bend_c, 3, 128
5, 48010, Pitch_bend_c, 3, 256
5, 48012, Pitch_bend_c, 3, 384
5, 48014, Pitch_bend_c, 3, 512
5, 48016, Pitch_bend_c, 3, 640
5, 48018, Pitch_bend_c, 3, 768
5, 48020, Pitch_bend_c, 3, 896
5, 48022, Pitch_bend_c, 3, 1024
5, 48025, Pitch_bend_c, 3, 1280
5, 48026, Pitch_bend_c, 3, 1408
5, 48027, Pitch_bend_c, 3, 1536
5, 48028, Pitch_bend_c, 3, 1792
5, 48029, Pitch_bend_c, 3, 1920
5, 48030, Pitch_bend_c, 3, 2048
5, 48031, Pitch_bend_c, 3, 2304
5, 48032, Pitch_bend_c, 3, 2560
5, 48033, Pitch_bend_c, 3, 2816
5, 48034, Pitch_bend_c, 3, 3072
5, 48035, Pitch_bend_c, 3, 3584
5, 48036, Pitch_bend_c, 3, 3840
5, 48037, Pitch_bend_c, 3, 4096
5, 48038, Pitch_bend_c, 3, 4608
5, 48040, Pitch_bend_c, 3, 4864
5, 48041, Pitch_bend_c, 3, 4992
5, 48042, Pitch_bend_c, 3, 5248
5, 48043, Pitch_bend_c, 3, 5376
5, 48044, Pitch_bend_c, 3, 5632
5, 48045, Pitch_bend_c, 3, 5760
5, 48046, Pitch_bend_c, 3, 5888
5, 48047, Pitch_bend_c, 3, 6144
5, 48048, Pitch_bend_c, 3, 6400
5, 48049, Pitch_bend_c, 3, 6656
5, 48050, Pitch_bend_c, 3, 7296
5, 48051, Pitch_bend_c, 3, 7424
5, 48052, Pitch_bend_c, 3, 7552
5, 48053, Pitch_bend_c, 3, 7680
5, 48058, Pitch_bend_c, 3, 7808
5, 48059, Pitch_bend_c, 3, 7936
5, 48060, Note_on_c, 3, 75, 0
5, 48060, Pitch_bend_c, 3, 8192
5, 48060, Note_on_c, 3, 75, 100
5, 48120, Note_on_c, 3, 75, 0
5, 48120, Note_on_c, 3, 75, 100
5, 48180, Note_on_c, 3, 75, 0
5, 48180, Note_on_c, 3, 75, 100
5, 48240, Note_on_c, 3, 75, 0
5, 48240, Note_on_c, 3, 75, 100
5, 48480, Note_on_c, 3, 75, 0
5, 48480, Pitch_bend_c, 3, 128
5, 48480, Note_on_c, 3, 75, 100
5, 48482, Pitch_bend_c, 3, 256
5, 48483, Pitch_bend_c, 3, 512
5, 48484, Pitch_bend_c, 3, 768
5, 48485, Pitch_bend_c, 3, 1024
5, 48486, Pitch_bend_c, 3, 1280
5, 48487, Pitch_bend_c, 3, 1536
5, 48488, Pitch_bend_c, 3, 1792
5, 48490, Pitch_bend_c, 3, 2048
5, 48491, Pitch_bend_c, 3, 2304
5, 48493, Pitch_bend_c, 3, 2560
5, 48494, Pitch_bend_c, 3, 2816
5, 48496, Pitch_bend_c, 3, 3072
5, 48497, Pitch_bend_c, 3, 3328
5, 48498, Pitch_bend_c, 3, 3584
5, 48500, Pitch_bend_c, 3, 3840
5, 48501, Pitch_bend_c, 3, 4096
5, 48502, Pitch_bend_c, 3, 4352
5, 48504, Pitch_bend_c, 3, 4608
5, 48506, Pitch_bend_c, 3, 4864
5, 48507, Pitch_bend_c, 3, 5120
5, 48509, Pitch_bend_c, 3, 5376
5, 48510, Pitch_bend_c, 3, 5632
5, 48512, Pitch_bend_c, 3, 5760
5, 48513, Pitch_bend_c, 3, 5888
5, 48514, Pitch_bend_c, 3, 6144
5, 48515, Pitch_bend_c, 3, 6272
5, 48516, Pitch_bend_c, 3, 6400
5, 48517, Pitch_bend_c, 3, 6528
5, 48518, Pitch_bend_c, 3, 6656
5, 48520, Pitch_bend_c, 3, 6912
5, 48522, Pitch_bend_c, 3, 7040
5, 48523, Pitch_bend_c, 3, 7168
5, 48525, Pitch_bend_c, 3, 7296
5, 48526, Pitch_bend_c, 3, 7424
5, 48527, Pitch_bend_c, 3, 7680
5, 48528, Pitch_bend_c, 3, 7808
5, 48529, Pitch_bend_c, 3, 7936
5, 48532, Pitch_bend_c, 3, 8064
5, 48533, Pitch_bend_c, 3, 8192
5, 48540, Note_on_c, 3, 75, 0
5, 48540, Note_on_c, 3, 76, 100
5, 48600, Note_on_c, 3, 76, 0
5, 48600, Note_on_c, 3, 75, 100
5, 48660, Note_on_c, 3, 75, 0
5, 48660, Note_on_c, 3, 73, 100
5, 48720, Note_on_c, 3, 73, 0
5, 48720, Pitch_bend_c, 3, 128
5, 48720, Note_on_c, 3, 75, 100
5, 48722, Pitch_bend_c, 3, 256
5, 48723, Pitch_bend_c, 3, 384
5, 48725, Pitch_bend_c, 3, 512
5, 48726, Pitch_bend_c, 3, 640
5, 48727, Pitch_bend_c, 3, 768
5, 48729, Pitch_bend_c, 3, 896
5, 48730, Pitch_bend_c, 3, 1024
5, 48731, Pitch_bend_c, 3, 1152
5, 48733, Pitch_bend_c, 3, 1280
5, 48734, Pitch_bend_c, 3, 1408
5, 48736, Pitch_bend_c, 3, 1536
5, 48737, Pitch_bend_c, 3, 1664
5, 48738, Pitch_bend_c, 3, 1792
5, 48740, Pitch_bend_c, 3, 1920
5, 48741, Pitch_bend_c, 3, 2048
5, 48742, Pitch_bend_c, 3, 2176
5, 48744, Pitch_bend_c, 3, 2304
5, 48745, Pitch_bend_c, 3, 2432
5, 48746, Pitch_bend_c, 3, 2560
5, 48748, Pitch_bend_c, 3, 2688
5, 48749, Pitch_bend_c, 3, 2816
5, 48751, Pitch_bend_c, 3, 2944
5, 48752, Pitch_bend_c, 3, 3072
5, 48753, Pitch_bend_c, 3, 3200
5, 48755, Pitch_bend_c, 3, 3328
5, 48756, Pitch_bend_c, 3, 3456
5, 48757, Pitch_bend_c, 3, 3584
5, 48759, Pitch_bend_c, 3, 3712
5, 48760, Pitch_bend_c, 3, 3840
5, 48761, Pitch_bend_c, 3, 3968
5, 48763, Pitch_bend_c, 3, 4096
5, 48764, Pitch_bend_c, 3, 4224
5, 48766, Pitch_bend_c, 3, 4352
5, 48767, Pitch_bend_c, 3, 4480
5, 48768, Pitch_bend_c, 3, 4608
5, 48770, Pitch_bend_c, 3, 4736
5, 48771, Pitch_bend_c, 3, 4864
5, 48772, Pitch_bend_c, 3, 4992
5, 48774, Pitch_bend_c, 3, 5120
5, 48775, Pitch_bend_c, 3, 5248
5, 48776, Pitch_bend_c, 3, 5376
5, 48778, Pitch_bend_c, 3, 5504
5, 48779, Pitch_bend_c, 3, 5632
5, 48781, Pitch_bend_c, 3, 5760
5, 48782, Pitch_bend_c, 3, 5888
5, 48783, Pitch_bend_c, 3, 6016
5, 48785, Pitch_bend_c, 3, 6144
5, 48786, Pitch_bend_c, 3, 6272
5, 48787, Pitch_bend_c, 3, 6400
5, 48789, Pitch_bend_c, 3, 6528
5, 48790, Pitch_bend_c, 3, 6656
5, 48791, Pitch_bend_c, 3, 6784
5, 48793, Pitch_bend_c, 3, 6912
5, 48794, Pitch_bend_c, 3, 7040
5, 48796, Pitch_bend_c, 3, 7168
5, 48797, Pitch_bend_c, 3, 7296
5, 48798, Pitch_bend_c, 3, 7424
5, 48800, Pitch_bend_c, 3, 7552
5, 48801, Pitch_bend_c, 3, 7680
5, 48802, Pitch_bend_c, 3, 7808
5, 48804, Pitch_bend_c, 3, 7936
5, 48805, Pitch_bend_c, 3, 8064
5, 48806, Pitch_bend_c, 3, 8192
5, 48960, Note_on_c, 3, 75, 0
5, 49020, Pitch_bend_c, 3, 256
5, 49020, Note_on_c, 3, 73, 100
5, 49021, Pitch_bend_c, 3, 512
5, 49022, Pitch_bend_c, 3, 768
5, 49023, Pitch_bend_c, 3, 1024
5, 49024, Pitch_bend_c, 3, 1280
5, 49025, Pitch_bend_c, 3, 1536
5, 49026, Pitch_bend_c, 3, 1792
5, 49027, Pitch_bend_c, 3, 2048
5, 49028, Pitch_bend_c, 3, 2432
5, 49029, Pitch_bend_c, 3, 2688
5, 49030, Pitch_bend_c, 3, 2944
5, 49031, Pitch_bend_c, 3, 3200
5, 49032, Pitch_bend_c, 3, 3456
5, 49033, Pitch_bend_c, 3, 3712
5, 49034, Pitch_bend_c, 3, 3968
5, 49035, Pitch_bend_c, 3, 4352
5, 49036, Pitch_bend_c, 3, 4608
5, 49037, Pitch_bend_c, 3, 4864
5, 49038, Pitch_bend_c, 3, 5120
5, 49039, Pitch_bend_c, 3, 5376
5, 49040, Pitch_bend_c, 3, 5632
5, 49041, Pitch_bend_c, 3, 5888
5, 49042, Pitch_bend_c, 3, 6272
5, 49043, Pitch_bend_c, 3, 6528
5, 49044, Pitch_bend_c, 3, 6784
5, 49045, Pitch_bend_c, 3, 7040
5, 49046, Pitch_bend_c, 3, 7296
5, 49047, Pitch_bend_c, 3, 7552
5, 49048, Pitch_bend_c, 3, 7808
5, 49049, Pitch_bend_c, 3, 8192
5, 49050, Note_on_c, 3, 73, 0
5, 49050, Note_on_c, 3, 73, 100
5, 49080, Note_on_c, 3, 73, 0
5, 49080, Note_on_c, 3, 73, 100
5, 49140, Note_on_c, 3, 73, 0
5, 49140, Note_on_c, 3, 73, 100
5, 49200, Note_on_c, 3, 73, 0
5, 49200, Note_on_c, 3, 73, 100
5, 49440, Note_on_c, 3, 73, 0
5, 49440, Note_on_c, 3, 73, 100
5, 49470, Note_on_c, 3, 73, 0
5, 49470, Note_on_c, 3, 73, 100
5, 49500, Note_on_c, 3, 73, 0
5, 49500, Note_on_c, 3, 73, 100
5, 49560, Note_on_c, 3, 73, 0
5, 49560, Note_on_c, 3, 73, 100
5, 49620, Note_on_c, 3, 73, 0
5, 49620, Note_on_c, 3, 73, 100
5, 49680, Note_on_c, 3, 73, 0
5, 49680, Note_on_c, 3, 73, 100
5, 49920, Note_on_c, 3, 73, 0
5, 49980, Note_on_c, 3, 75, 100
5, 49981, Pitch_bend_c, 3, 128
5, 49982, Pitch_bend_c, 3, 384
5, 49983, Pitch_bend_c, 3, 640
5, 49984, Pitch_bend_c, 3, 896
5, 49985, Pitch_bend_c, 3, 1280
5, 49986, Pitch_bend_c, 3, 1536
5, 49987, Pitch_bend_c, 3, 1792
5, 49988, Pitch_bend_c, 3, 2048
5, 49989, Pitch_bend_c, 3, 2432
5, 49990, Pitch_bend_c, 3, 2688
5, 49991, Pitch_bend_c, 3, 2944
5, 49992, Pitch_bend_c, 3, 3200
5, 49993, Pitch_bend_c, 3, 3584
5, 49994, Pitch_bend_c, 3, 3840
5, 49995, Pitch_bend_c, 3, 4096
5, 49996, Pitch_bend_c, 3, 4352
5, 49997, Pitch_bend_c, 3, 4736
5, 49998, Pitch_bend_c, 3, 4992
5, 49999, Pitch_bend_c, 3, 5248
5, 50000, Pitch_bend_c, 3, 5504
5, 50001, Pitch_bend_c, 3, 5888
5, 50002, Pitch_bend_c, 3, 6144
5, 50003, Pitch_bend_c, 3, 6400
5, 50004, Pitch_bend_c, 3, 6656
5, 50005, Pitch_bend_c, 3, 7040
5, 50006, Pitch_bend_c, 3, 7296
5, 50007, Pitch_bend_c, 3, 7552
5, 50008, Pitch_bend_c, 3, 7808
5, 50009, Pitch_bend_c, 3, 8192
5, 50010, Note_on_c, 3, 75, 0
5, 50010, Note_on_c, 3, 75, 100
5, 50040, Note_on_c, 3, 75, 0
5, 50040, Note_on_c, 3, 75, 100
5, 50070, Note_on_c, 3, 75, 0
5, 50070, Note_on_c, 3, 75, 100
5, 50100, Note_on_c, 3, 75, 0
5, 50100, Note_on_c, 3, 75, 100
5, 50130, Note_on_c, 3, 75, 0
5, 50130, Note_on_c, 3, 75, 100
5, 50160, Note_on_c, 3, 75, 0
5, 50160, Pitch_bend_c, 3, 0
5, 50160, Note_on_c, 3, 76, 100
5, 50161, Pitch_bend_c, 3, 256
5, 50162, Pitch_bend_c, 3, 512
5, 50163, Pitch_bend_c, 3, 768
5, 50164, Pitch_bend_c, 3, 1024
5, 50165, Pitch_bend_c, 3, 1280
5, 50166, Pitch_bend_c, 3, 1536
5, 50167, Pitch_bend_c, 3, 1792
5, 50168, Pitch_bend_c, 3, 2176
5, 50169, Pitch_bend_c, 3, 2432
5, 50170, Pitch_bend_c, 3, 2688
5, 50171, Pitch_bend_c, 3, 2944
5, 50172, Pitch_bend_c, 3, 3200
5, 50173, Pitch_bend_c, 3, 3456
5, 50174, Pitch_bend_c, 3, 3712
5, 50175, Pitch_bend_c, 3, 4096
5, 50176, Pitch_bend_c, 3, 4352
5, 50177, Pitch_bend_c, 3, 4608
5, 50178, Pitch_bend_c, 3, 4864
5, 50179, Pitch_bend_c, 3, 5120
5, 50180, Pitch_bend_c, 3, 5376
5, 50181, Pitch_bend_c, 3, 5632
5, 50182, Pitch_bend_c, 3, 5888
5, 50183, Pitch_bend_c, 3, 6272
5, 50184, Pitch_bend_c, 3, 6528
5, 50185, Pitch_bend_c, 3, 6784
5, 50186, Pitch_bend_c, 3, 7040
5, 50187, Pitch_bend_c, 3, 7296
5, 50188, Pitch_bend_c, 3, 7552
5, 50189, Pitch_bend_c, 3, 7808
5, 50190, Note_on_c, 3, 76, 0
5, 50190, Pitch_bend_c, 3, 8192
5, 50190, Note_on_c, 3, 76, 100
5, 50220, Note_on_c, 3, 76, 0
5, 50220, Note_on_c, 3, 76, 100
5, 50250, Note_on_c, 3, 76, 0
5, 50250, Note_on_c, 3, 76, 100
5, 50280, Note_on_c, 3, 76, 0
5, 50280, Note_on_c, 3, 76, 100
5, 50310, Note_on_c, 3, 76, 0
5, 50310, Note_on_c, 3, 76, 100
5, 50340, Note_on_c, 3, 76, 0
5, 50340, Note_on_c, 3, 76, 100
5, 50400, Note_on_c, 3, 76, 0
5, 50400, Pitch_bend_c, 3, 128
5, 50400, Note_on_c, 3, 78, 100
5, 50401, Pitch_bend_c, 3, 384
5, 50402, Pitch_bend_c, 3, 640
5, 50403, Pitch_bend_c, 3, 896
5, 50404, Pitch_bend_c, 3, 1152
5, 50405, Pitch_bend_c, 3, 1408
5, 50406, Pitch_bend_c, 3, 1664
5, 50407, Pitch_bend_c, 3, 1920
5, 50408, Pitch_bend_c, 3, 2176
5, 50409, Pitch_bend_c, 3, 2432
5, 50410, Pitch_bend_c, 3, 2816
5, 50411, Pitch_bend_c, 3, 3072
5, 50412, Pitch_bend_c, 3, 3328
5, 50413, Pitch_bend_c, 3, 3584
5, 50414, Pitch_bend_c, 3, 3840
5, 50415, Pitch_bend_c, 3, 4096
5, 50416, Pitch_bend_c, 3, 4352
5, 50417, Pitch_bend_c, 3, 4608
5, 50418, Pitch_bend_c, 3, 4864
5, 50419, Pitch_bend_c, 3, 5120
5, 50420, Pitch_bend_c, 3, 5504
5, 50421, Pitch_bend_c, 3, 5760
5, 50422, Pitch_bend_c, 3, 6016
5, 50423, Pitch_bend_c, 3, 6272
5, 50424, Pitch_bend_c, 3, 6528
5, 50425, Pitch_bend_c, 3, 6784
5, 50426, Pitch_bend_c, 3, 7040
5, 50427, Pitch_bend_c, 3, 7296
5, 50428, Pitch_bend_c, 3, 7552
5, 50429, Pitch_bend_c, 3, 7808
5, 50430, Note_on_c, 3, 78, 0
5, 50430, Pitch_bend_c, 3, 8192
5, 50430, Note_on_c, 3, 78, 100
5, 50460, Note_on_c, 3, 78, 0
5, 50460, Note_on_c, 3, 78, 100
5, 50490, Note_on_c, 3, 78, 0
5, 50490, Note_on_c, 3, 78, 100
5, 50520, Note_on_c, 3, 78, 0
5, 50520, Note_on_c, 3, 78, 100
5, 50550, Note_on_c, 3, 78, 0
5, 50550, Note_on_c, 3, 78, 100
5, 50580, Note_on_c, 3, 78, 0
5, 50580, Note_on_c, 3, 78, 100
5, 50640, Note_on_c, 3, 78, 0
5, 50640, Pitch_bend_c, 3, 0
5, 50640, Note_on_c, 3, 80, 100
5, 50641, Pitch_bend_c, 3, 256
5, 50642, Pitch_bend_c, 3, 512
5, 50643, Pitch_bend_c, 3, 768
5, 50644, Pitch_bend_c, 3, 1024
5, 50645, Pitch_bend_c, 3, 1408
5, 50646, Pitch_bend_c, 3, 1664
5, 50647, Pitch_bend_c, 3, 1920
5, 50648, Pitch_bend_c, 3, 2176
5, 50649, Pitch_bend_c, 3, 2432
5, 50650, Pitch_bend_c, 3, 2816
5, 50651, Pitch_bend_c, 3, 3072
5, 50652, Pitch_bend_c, 3, 3328
5, 50653, Pitch_bend_c, 3, 3584
5, 50654, Pitch_bend_c, 3, 3840
5, 50655, Pitch_bend_c, 3, 4224
5, 50656, Pitch_bend_c, 3, 4480
5, 50657, Pitch_bend_c, 3, 4736
5, 50658, Pitch_bend_c, 3, 4992
5, 50659, Pitch_bend_c, 3, 5248
5, 50660, Pitch_bend_c, 3, 5632
5, 50661, Pitch_bend_c, 3, 5888
5, 50662, Pitch_bend_c, 3, 6144
5, 50663, Pitch_bend_c, 3, 6400
5, 50664, Pitch_bend_c, 3, 6656
5, 50665, Pitch_bend_c, 3, 7040
5, 50666, Pitch_bend_c, 3, 7296
5, 50667, Pitch_bend_c, 3, 7552
5, 50668, Pitch_bend_c, 3, 7808
5, 50669, Pitch_bend_c, 3, 8192
5, 50670, Note_on_c, 3, 80, 0
5, 50670, Note_on_c, 3, 80, 100
5, 50700, Note_on_c, 3, 80, 0
5, 50700, Note_on_c, 3, 80, 100
5, 50730, Note_on_c, 3, 80, 0
5, 50730, Note_on_c, 3, 80, 100
5, 50760, Note_on_c, 3, 80, 0
5, 50760, Note_on_c, 3, 80, 100
5, 50790, Note_on_c, 3, 80, 0
5, 50790, Note_on_c, 3, 80, 100
5, 50820, Note_on_c, 3, 80, 0
5, 50820, Note_on_c, 3, 80, 100
5, 50850, Note_on_c, 3, 80, 0
5, 50850, Note_on_c, 3, 80, 100
5, 50880, Note_on_c, 3, 80, 0
5, 50880, Pitch_bend_c, 3, 128
5, 50880, Note_on_c, 3, 85, 100
5, 50881, Pitch_bend_c, 3, 384
5, 50882, Pitch_bend_c, 3, 640
5, 50883, Pitch_bend_c, 3, 896
5, 50884, Pitch_bend_c, 3, 1152
5, 50885, Pitch_bend_c, 3, 1408
5, 50886, Pitch_bend_c, 3, 1792
5, 50887, Pitch_bend_c, 3, 2048
5, 50888, Pitch_bend_c, 3, 2304
5, 50889, Pitch_bend_c, 3, 2560
5, 50890, Pitch_bend_c, 3, 2816
5, 50891, Pitch_bend_c, 3, 3072
5, 50892, Pitch_bend_c, 3, 3456
5, 50893, Pitch_bend_c, 3, 3712
5, 50894, Pitch_bend_c, 3, 3968
5, 50895, Pitch_bend_c, 3, 4224
5, 50896, Pitch_bend_c, 3, 4480
5, 50897, Pitch_bend_c, 3, 4736
5, 50898, Pitch_bend_c, 3, 5120
5, 50899, Pitch_bend_c, 3, 5376
5, 50900, Pitch_bend_c, 3, 5632
5, 50901, Pitch_bend_c, 3, 5888
5, 50902, Pitch_bend_c, 3, 6144
5, 50903, Pitch_bend_c, 3, 6400
5, 50904, Pitch_bend_c, 3, 6784
5, 50905, Pitch_bend_c, 3, 7040
5, 50906, Pitch_bend_c, 3, 7296
5, 50907, Pitch_bend_c, 3, 7552
5, 50908, Pitch_bend_c, 3, 7808
5, 50909, Pitch_bend_c, 3, 8192
5, 50910, Note_on_c, 3, 85, 0
5, 50910, Note_on_c, 3, 85, 100
5, 50940, Note_on_c, 3, 85, 0
5, 50940, Note_on_c, 3, 85, 100
5, 50970, Note_on_c, 3, 85, 0
5, 50970, Note_on_c, 3, 85, 100
5, 51000, Note_on_c, 3, 85, 0
5, 51000, Note_on_c, 3, 85, 100
5, 51030, Note_on_c, 3, 85, 0
5, 51030, Note_on_c, 3, 85, 100
5, 51060, Note_on_c, 3, 85, 0
5, 51060, Note_on_c, 3, 85, 100
5, 51090, Note_on_c, 3, 85, 0
5, 51090, Note_on_c, 3, 85, 100
5, 51120, Note_on_c, 3, 85, 0
5, 51120, Note_on_c, 3, 85, 100
5, 51150, Note_on_c, 3, 85, 0
5, 51150, Note_on_c, 3, 85, 100
5, 51180, Note_on_c, 3, 85, 0
5, 51180, Note_on_c, 3, 85, 100
5, 51210, Note_on_c, 3, 85, 0
5, 51210, Note_on_c, 3, 85, 100
5, 51240, Note_on_c, 3, 85, 0
5, 51240, Note_on_c, 3, 85, 100
5, 51270, Note_on_c, 3, 85, 0
5, 51270, Note_on_c, 3, 85, 100
5, 51300, Note_on_c, 3, 85, 0
5, 51300, Note_on_c, 3, 85, 100
5, 51330, Note_on_c, 3, 85, 0
5, 51330, Note_on_c, 3, 85, 100
5, 51360, Note_on_c, 3, 85, 0
5, 51360, Pitch_bend_c, 3, 4224
5, 51360, Note_on_c, 3, 84, 100
5, 51361, Pitch_bend_c, 3, 4352
5, 51362, Pitch_bend_c, 3, 4480
5, 51363, Pitch_bend_c, 3, 4608
5, 51364, Pitch_bend_c, 3, 4736
5, 51365, Pitch_bend_c, 3, 4864
5, 51366, Pitch_bend_c, 3, 4992
5, 51367, Pitch_bend_c, 3, 5120
5, 51368, Pitch_bend_c, 3, 5248
5, 51369, Pitch_bend_c, 3, 5376
5, 51370, Pitch_bend_c, 3, 5504
5, 51371, Pitch_bend_c, 3, 5632
5, 51372, Pitch_bend_c, 3, 5760
5, 51373, Pitch_bend_c, 3, 5888
5, 51374, Pitch_bend_c, 3, 6016
5, 51375, Pitch_bend_c, 3, 6272
5, 51376, Pitch_bend_c, 3, 6400
5, 51377, Pitch_bend_c, 3, 6528
5, 51378, Pitch_bend_c, 3, 6656
5, 51379, Pitch_bend_c, 3, 6784
5, 51380, Pitch_bend_c, 3, 6912
5, 51381, Pitch_bend_c, 3, 7040
5, 51382, Pitch_bend_c, 3, 7168
5, 51383, Pitch_bend_c, 3, 7296
5, 51384, Pitch_bend_c, 3, 7424
5, 51385, Pitch_bend_c, 3, 7552
5, 51386, Pitch_bend_c, 3, 7680
5, 51387, Pitch_bend_c, 3, 7808
5, 51388, Pitch_bend_c, 3, 7936
5, 51389, Pitch_bend_c, 3, 8192
5, 51390, Note_on_c, 3, 84, 0
5, 51390, Pitch_bend_c, 3, 128
5, 51390, Note_on_c, 3, 85, 100
5, 51391, Pitch_bend_c, 3, 384
5, 51392, Pitch_bend_c, 3, 640
5, 51393, Pitch_bend_c, 3, 1024
5, 51394, Pitch_bend_c, 3, 1280
5, 51395, Pitch_bend_c, 3, 1536
5, 51396, Pitch_bend_c, 3, 1920
5, 51397, Pitch_bend_c, 3, 2176
5, 51398, Pitch_bend_c, 3, 2432
5, 51399, Pitch_bend_c, 3, 2816
5, 51400, Pitch_bend_c, 3, 3072
5, 51401, Pitch_bend_c, 3, 3328
5, 51402, Pitch_bend_c, 3, 3712
5, 51403, Pitch_bend_c, 3, 3968
5, 51404, Pitch_bend_c, 3, 4224
5, 51405, Pitch_bend_c, 3, 4608
5, 51406, Pitch_bend_c, 3, 4864
5, 51407, Pitch_bend_c, 3, 5120
5, 51408, Pitch_bend_c, 3, 5504
5, 51409, Pitch_bend_c, 3, 5760
5, 51410, Pitch_bend_c, 3, 6016
5, 51411, Pitch_bend_c, 3, 6400
5, 51412, Pitch_bend_c, 3, 6656
5, 51413, Pitch_bend_c, 3, 6912
5, 51414, Pitch_bend_c, 3, 7296
5, 51415, Pitch_bend_c, 3, 7552
5, 51416, Pitch_bend_c, 3, 7808
5, 51417, Pitch_bend_c, 3, 8192
5, 51420, Note_on_c, 3, 85, 0
5, 51420, Note_on_c, 3, 85, 100
5, 51450, Note_on_c, 3, 85, 0
5, 51450, Note_on_c, 3, 85, 100
5, 51480, Note_on_c, 3, 85, 0
5, 51480, Note_on_c, 3, 85, 100
5, 51510, Note_on_c, 3, 85, 0
5, 51510, Note_on_c, 3, 85, 100
5, 51540, Note_on_c, 3, 85, 0
5, 51540, Note_on_c, 3, 85, 100
5, 51570, Note_on_c, 3, 85, 0
5, 51570, Note_on_c, 3, 85, 100
5, 51600, Note_on_c, 3, 85, 0
5, 51600, Note_on_c, 3, 85, 100
5, 51630, Note_on_c, 3, 85, 0
5, 51630, Note_on_c, 3, 85, 100
5, 51660, Note_on_c, 3, 85, 0
5, 51660, Note_on_c, 3, 85, 100
5, 51690, Note_on_c, 3, 85, 0
5, 51690, Note_on_c, 3, 85, 100
5, 51720, Note_on_c, 3, 85, 0
5, 51720, Note_on_c, 3, 85, 100
5, 51750, Note_on_c, 3, 85, 0
5, 51750, Note_on_c, 3, 85, 100
5, 51780, Note_on_c, 3, 85, 0
5, 51780, Note_on_c, 3, 85, 100
5, 51810, Note_on_c, 3, 85, 0
5, 51810, Note_on_c, 3, 85, 100
5, 51840, Note_on_c, 3, 85, 0
5, 51840, Note_on_c, 3, 85, 100
5, 51840, Pitch_bend_c, 3, 256
5, 51841, Pitch_bend_c, 3, 512
5, 51842, Pitch_bend_c, 3, 768
5, 51843, Pitch_bend_c, 3, 1024
5, 51844, Pitch_bend_c, 3, 1408
5, 51845, Pitch_bend_c, 3, 1664
5, 51846, Pitch_bend_c, 3, 1920
5, 51847, Pitch_bend_c, 3, 2304
5, 51848, Pitch_bend_c, 3, 2560
5, 51849, Pitch_bend_c, 3, 2816
5, 51850, Pitch_bend_c, 3, 3072
5, 51851, Pitch_bend_c, 3, 3456
5, 51852, Pitch_bend_c, 3, 3712
5, 51853, Pitch_bend_c, 3, 3968
5, 51854, Pitch_bend_c, 3, 4352
5, 51855, Pitch_bend_c, 3, 4608
5, 51856, Pitch_bend_c, 3, 4864
5, 51857, Pitch_bend_c, 3, 5248
5, 51858, Pitch_bend_c, 3, 5504
5, 51859, Pitch_bend_c, 3, 5760
5, 51860, Pitch_bend_c, 3, 6016
5, 51861, Pitch_bend_c, 3, 6400
5, 51862, Pitch_bend_c, 3, 6656
5, 51863, Pitch_bend_c, 3, 6912
5, 51864, Pitch_bend_c, 3, 7296
5, 51865, Pitch_bend_c, 3, 7552
5, 51866, Pitch_bend_c, 3, 7808
5, 51867, Pitch_bend_c, 3, 8192
5, 51870, Note_on_c, 3, 85, 0
5, 51870, Note_on_c, 3, 85, 100
5, 51900, Note_on_c, 3, 85, 0
5, 51900, Note_on_c, 3, 85, 100
5, 51930, Note_on_c, 3, 85, 0
5, 51930, Note_on_c, 3, 85, 100
5, 51960, Note_on_c, 3, 85, 0
5, 51960, Note_on_c, 3, 85, 100
5, 51990, Note_on_c, 3, 85, 0
5, 51990, Note_on_c, 3, 85, 100
5, 52020, Note_on_c, 3, 85, 0
5, 52020, Note_on_c, 3, 85, 100
5, 52050, Note_on_c, 3, 85, 0
5, 52050, Note_on_c, 3, 85, 100
5, 52080, Note_on_c, 3, 85, 0
5, 52080, Note_on_c, 3, 85, 100
5, 52110, Note_on_c, 3, 85, 0
5, 52110, Note_on_c, 3, 85, 100
5, 52140, Note_on_c, 3, 85, 0
5, 52140, Note_on_c, 3, 85, 100
5, 52170, Note_on_c, 3, 85, 0
5, 52170, Note_on_c, 3, 85, 100
5, 52200, Note_on_c, 3, 85, 0
5, 52200, Pitch_bend_c, 3, 128
5, 52200, Note_on_c, 3, 85, 100
5, 52201, Pitch_bend_c, 3, 256
5, 52202, Pitch_bend_c, 3, 384
5, 52203, Pitch_bend_c, 3, 640
5, 52204, Pitch_bend_c, 3, 768
5, 52205, Pitch_bend_c, 3, 896
5, 52206, Pitch_bend_c, 3, 1152
5, 52207, Pitch_bend_c, 3, 1280
5, 52208, Pitch_bend_c, 3, 1408
5, 52209, Pitch_bend_c, 3, 1664
5, 52210, Pitch_bend_c, 3, 1792
5, 52211, Pitch_bend_c, 3, 1920
5, 52212, Pitch_bend_c, 3, 2176
5, 52213, Pitch_bend_c, 3, 2304
5, 52214, Pitch_bend_c, 3, 2432
5, 52215, Pitch_bend_c, 3, 2688
5, 52216, Pitch_bend_c, 3, 2816
5, 52217, Pitch_bend_c, 3, 2944
5, 52218, Pitch_bend_c, 3, 3200
5, 52219, Pitch_bend_c, 3, 3328
5, 52220, Pitch_bend_c, 3, 3456
5, 52221, Pitch_bend_c, 3, 3712
5, 52222, Pitch_bend_c, 3, 3840
5, 52223, Pitch_bend_c, 3, 3968
5, 52224, Pitch_bend_c, 3, 4224
5, 52225, Pitch_bend_c, 3, 4352
5, 52226, Pitch_bend_c, 3, 4480
5, 52227, Pitch_bend_c, 3, 4736
5, 52228, Pitch_bend_c, 3, 4864
5, 52229, Pitch_bend_c, 3, 4992
5, 52230, Pitch_bend_c, 3, 5248
5, 52231, Pitch_bend_c, 3, 5376
5, 52232, Pitch_bend_c, 3, 5504
5, 52233, Pitch_bend_c, 3, 5760
5, 52234, Pitch_bend_c, 3, 5888
5, 52235, Pitch_bend_c, 3, 6016
5, 52236, Pitch_bend_c, 3, 6272
5, 52237, Pitch_bend_c, 3, 6400
5, 52238, Pitch_bend_c, 3, 6528
5, 52239, Pitch_bend_c, 3, 6784
5, 52240, Pitch_bend_c, 3, 6912
5, 52241, Pitch_bend_c, 3, 7040
5, 52242, Pitch_bend_c, 3, 7296
5, 52243, Pitch_bend_c, 3, 7424
5, 52244, Pitch_bend_c, 3, 7552
5, 52245, Pitch_bend_c, 3, 7808
5, 52246, Pitch_bend_c, 3, 7936
5, 52247, Pitch_bend_c, 3, 8192
5, 52320, Note_on_c, 3, 85, 0
5, 52320, Pitch_bend_c, 3, 4224
5, 52320, Note_on_c, 3, 84, 100
5, 52321, Pitch_bend_c, 3, 4352
5, 52322, Pitch_bend_c, 3, 4480
5, 52323, Pitch_bend_c, 3, 4608
5, 52324, Pitch_bend_c, 3, 4736
5, 52325, Pitch_bend_c, 3, 4864
5, 52326, Pitch_bend_c, 3, 4992
5, 52327, Pitch_bend_c, 3, 5120
5, 52328, Pitch_bend_c, 3, 5248
5, 52329, Pitch_bend_c, 3, 5376
5, 52330, Pitch_bend_c, 3, 5504
5, 52331, Pitch_bend_c, 3, 5632
5, 52332, Pitch_bend_c, 3, 5760
5, 52333, Pitch_bend_c, 3, 5888
5, 52334, Pitch_bend_c, 3, 6016
5, 52335, Pitch_bend_c, 3, 6272
5, 52336, Pitch_bend_c, 3, 6400
5, 52337, Pitch_bend_c, 3, 6528
5, 52338, Pitch_bend_c, 3, 6656
5, 52339, Pitch_bend_c, 3, 6784
5, 52340, Pitch_bend_c, 3, 6912
5, 52341, Pitch_bend_c, 3, 7040
5, 52342, Pitch_bend_c, 3, 7168
5, 52343, Pitch_bend_c, 3, 7296
5, 52344, Pitch_bend_c, 3, 7424
5, 52345, Pitch_bend_c, 3, 7552
5, 52346, Pitch_bend_c, 3, 7680
5, 52347, Pitch_bend_c, 3, 7808
5, 52348, Pitch_bend_c, 3, 7936
5, 52349, Pitch_bend_c, 3, 8192
5, 52350, Note_on_c, 3, 84, 0
5, 52350, Pitch_bend_c, 3, 128
5, 52350, Note_on_c, 3, 85, 100
5, 52351, Pitch_bend_c, 3, 384
5, 52352, Pitch_bend_c, 3, 640
5, 52353, Pitch_bend_c, 3, 1024
5, 52354, Pitch_bend_c, 3, 1280
5, 52355, Pitch_bend_c, 3, 1536
5, 52356, Pitch_bend_c, 3, 1920
5, 52357, Pitch_bend_c, 3, 2176
5, 52358, Pitch_bend_c, 3, 2432
5, 52359, Pitch_bend_c, 3, 2816
5, 52360, Pitch_bend_c, 3, 3072
5, 52361, Pitch_bend_c, 3, 3328
5, 52362, Pitch_bend_c, 3, 3712
5, 52363, Pitch_bend_c, 3, 3968
5, 52364, Pitch_bend_c, 3, 4224
5, 52365, Pitch_bend_c, 3, 4608
5, 52366, Pitch_bend_c, 3, 4864
5, 52367, Pitch_bend_c, 3, 5120
5, 52368, Pitch_bend_c, 3, 5504
5, 52369, Pitch_bend_c, 3, 5760
5, 52370, Pitch_bend_c, 3, 6016
5, 52371, Pitch_bend_c, 3, 6400
5, 52372, Pitch_bend_c, 3, 6656
5, 52373, Pitch_bend_c, 3, 6912
5, 52374, Pitch_bend_c, 3, 7296
5, 52375, Pitch_bend_c, 3, 7552
5, 52376, Pitch_bend_c, 3, 7808
5, 52377, Pitch_bend_c, 3, 8192
5, 52380, Note_on_c, 3, 85, 0
5, 52380, Note_on_c, 3, 85, 100
5, 52410, Note_on_c, 3, 85, 0
5, 52410, Note_on_c, 3, 85, 100
5, 52440, Note_on_c, 3, 85, 0
5, 52440, Note_on_c, 3, 85, 100
5, 52470, Note_on_c, 3, 85, 0
5, 52470, Note_on_c, 3, 85, 100
5, 52500, Note_on_c, 3, 85, 0
5, 52500, Note_on_c, 3, 85, 100
5, 52530, Note_on_c, 3, 85, 0
5, 52530, Note_on_c, 3, 85, 100
5, 52560, Note_on_c, 3, 85, 0
5, 52560, Note_on_c, 3, 85, 100
5, 52590, Note_on_c, 3, 85, 0
5, 52590, Note_on_c, 3, 85, 100
5, 52620, Note_on_c, 3, 85, 0
5, 52620, Note_on_c, 3, 85, 100
5, 52650, Note_on_c, 3, 85, 0
5, 52650, Note_on_c, 3, 85, 100
5, 52680, Note_on_c, 3, 85, 0
5, 52680, Note_on_c, 3, 85, 100
5, 52710, Note_on_c, 3, 85, 0
5, 52710, Note_on_c, 3, 85, 100
5, 52740, Note_on_c, 3, 85, 0
5, 52740, Note_on_c, 3, 85, 100
5, 52770, Note_on_c, 3, 85, 0
5, 52770, Note_on_c, 3, 85, 100
5, 52800, Note_on_c, 3, 85, 0
5, 52800, Control_c, 3, 7, 95
5, 52800, Control_c, 3, 7, 115
5, 52800, Note_on_c, 3, 85, 100
5, 52800, Pitch_bend_c, 3, 256
5, 52801, Pitch_bend_c, 3, 512
5, 52802, Pitch_bend_c, 3, 768
5, 52803, Pitch_bend_c, 3, 1024
5, 52804, Pitch_bend_c, 3, 1408
5, 52805, Pitch_bend_c, 3, 1664
5, 52806, Pitch_bend_c, 3, 1920
5, 52807, Pitch_bend_c, 3, 2304
5, 52808, Pitch_bend_c, 3, 2560
5, 52809, Pitch_bend_c, 3, 2816
5, 52810, Pitch_bend_c, 3, 3072
5, 52811, Pitch_bend_c, 3, 3456
5, 52812, Pitch_bend_c, 3, 3712
5, 52813, Pitch_bend_c, 3, 3968
5, 52814, Pitch_bend_c, 3, 4352
5, 52815, Pitch_bend_c, 3, 4608
5, 52816, Pitch_bend_c, 3, 4864
5, 52817, Pitch_bend_c, 3, 5248
5, 52818, Pitch_bend_c, 3, 5504
5, 52819, Pitch_bend_c, 3, 5760
5, 52820, Control_c, 3, 7, 114
5, 52820, Pitch_bend_c, 3, 6016
5, 52821, Pitch_bend_c, 3, 6400
5, 52822, Pitch_bend_c, 3, 6656
5, 52823, Pitch_bend_c, 3, 6912
5, 52824, Pitch_bend_c, 3, 7296
5, 52825, Pitch_bend_c, 3, 7552
5, 52826, Pitch_bend_c, 3, 7808
5, 52827, Pitch_bend_c, 3, 8192
5, 52830, Note_on_c, 3, 85, 0
5, 52830, Control_c, 3, 7, 94
5, 52830, Note_on_c, 3, 85, 100
5, 52841, Control_c, 3, 7, 113
5, 52860, Note_on_c, 3, 85, 0
5, 52860, Control_c, 3, 7, 93
5, 52860, Note_on_c, 3, 85, 100
5, 52862, Control_c, 3, 7, 112
5, 52883, Control_c, 3, 7, 111
5, 52890, Note_on_c, 3, 85, 0
5, 52890, Control_c, 3, 7, 92
5, 52890, Note_on_c, 3, 85, 100
5, 52904, Control_c, 3, 7, 110
5, 52920, Note_on_c, 3, 85, 0
5, 52920, Note_on_c, 3, 85, 100
5, 52921, Control_c, 3, 7, 91
5, 52925, Control_c, 3, 7, 109
5, 52946, Control_c, 3, 7, 108
5, 52950, Note_on_c, 3, 85, 0
5, 52950, Note_on_c, 3, 85, 100
5, 52951, Control_c, 3, 7, 90
5, 52966, Control_c, 3, 7, 107
5, 52980, Note_on_c, 3, 85, 0
5, 52980, Note_on_c, 3, 85, 100
5, 52981, Control_c, 3, 7, 89
5, 52987, Control_c, 3, 7, 106
5, 53008, Control_c, 3, 7, 105
5, 53010, Note_on_c, 3, 85, 0
5, 53010, Note_on_c, 3, 85, 100
5, 53012, Control_c, 3, 7, 88
5, 53029, Control_c, 3, 7, 104
5, 53040, Note_on_c, 3, 85, 0
5, 53040, Note_on_c, 3, 85, 100
5, 53042, Control_c, 3, 7, 87
5, 53050, Control_c, 3, 7, 103
5, 53070, Note_on_c, 3, 85, 0
5, 53070, Note_on_c, 3, 85, 100
5, 53071, Control_c, 3, 7, 102
5, 53072, Control_c, 3, 7, 86
5, 53092, Control_c, 3, 7, 101
5, 53100, Note_on_c, 3, 85, 0
5, 53100, Note_on_c, 3, 85, 100
5, 53103, Control_c, 3, 7, 85
5, 53112, Control_c, 3, 7, 100
5, 53130, Note_on_c, 3, 85, 0
5, 53130, Note_on_c, 3, 85, 100
5, 53133, Control_c, 3, 7, 84
5, 53133, Control_c, 3, 7, 99
5, 53154, Control_c, 3, 7, 98
5, 53160, Note_on_c, 3, 85, 0
5, 53160, Pitch_bend_c, 3, 128
5, 53160, Note_on_c, 3, 85, 100
5, 53161, Pitch_bend_c, 3, 256
5, 53162, Pitch_bend_c, 3, 384
5, 53163, Control_c, 3, 7, 83
5, 53163, Pitch_bend_c, 3, 640
5, 53164, Pitch_bend_c, 3, 768
5, 53165, Pitch_bend_c, 3, 896
5, 53166, Pitch_bend_c, 3, 1152
5, 53167, Pitch_bend_c, 3, 1280
5, 53168, Pitch_bend_c, 3, 1408
5, 53169, Pitch_bend_c, 3, 1664
5, 53170, Pitch_bend_c, 3, 1792
5, 53171, Pitch_bend_c, 3, 1920
5, 53172, Pitch_bend_c, 3, 2176
5, 53173, Pitch_bend_c, 3, 2304
5, 53174, Pitch_bend_c, 3, 2432
5, 53175, Control_c, 3, 7, 97
5, 53175, Pitch_bend_c, 3, 2688
5, 53176, Pitch_bend_c, 3, 2816
5, 53177, Pitch_bend_c, 3, 2944
5, 53178, Pitch_bend_c, 3, 3200
5, 53179, Pitch_bend_c, 3, 3328
5, 53180, Pitch_bend_c, 3, 3456
5, 53181, Pitch_bend_c, 3, 3712
5, 53182, Pitch_bend_c, 3, 3840
5, 53183, Pitch_bend_c, 3, 3968
5, 53184, Pitch_bend_c, 3, 4224
5, 53185, Pitch_bend_c, 3, 4352
5, 53186, Pitch_bend_c, 3, 4480
5, 53187, Pitch_bend_c, 3, 4736
5, 53188, Pitch_bend_c, 3, 4864
5, 53189, Pitch_bend_c, 3, 4992
5, 53190, Pitch_bend_c, 3, 5248
5, 53191, Pitch_bend_c, 3, 5376
5, 53192, Pitch_bend_c, 3, 5504
5, 53193, Control_c, 3, 7, 82
5, 53193, Pitch_bend_c, 3, 5760
5, 53194, Pitch_bend_c, 3, 5888
5, 53195, Pitch_bend_c, 3, 6016
5, 53196, Control_c, 3, 7, 96
5, 53196, Pitch_bend_c, 3, 6272
5, 53197, Pitch_bend_c, 3, 6400
5, 53198, Pitch_bend_c, 3, 6528
5, 53199, Pitch_bend_c, 3, 6784
5, 53200, Pitch_bend_c, 3, 6912
5, 53201, Pitch_bend_c, 3, 7040
5, 53202, Pitch_bend_c, 3, 7296
5, 53203, Pitch_bend_c, 3, 7424
5, 53204, Pitch_bend_c, 3, 7552
5, 53205, Pitch_bend_c, 3, 7808
5, 53206, Pitch_bend_c, 3, 7936
5, 53207, Pitch_bend_c, 3, 8192
5, 53217, Control_c, 3, 7, 95
5, 53224, Control_c, 3, 7, 81
5, 53238, Control_c, 3, 7, 94
5, 53254, Control_c, 3, 7, 80
5, 53258, Control_c, 3, 7, 93
5, 53279, Control_c, 3, 7, 92
5, 53280, Note_on_c, 3, 85, 0
5, 53280, Pitch_bend_c, 3, 4224
5, 53280, Note_on_c, 3, 84, 100
5, 53281, Pitch_bend_c, 3, 4352
5, 53282, Pitch_bend_c, 3, 4480
5, 53283, Pitch_bend_c, 3, 4608
5, 53284, Control_c, 3, 7, 79
5, 53284, Pitch_bend_c, 3, 4736
5, 53285, Pitch_bend_c, 3, 4864
5, 53286, Pitch_bend_c, 3, 4992
5, 53287, Pitch_bend_c, 3, 5120
5, 53288, Pitch_bend_c, 3, 5248
5, 53289, Pitch_bend_c, 3, 5376
5, 53290, Pitch_bend_c, 3, 5504
5, 53291, Pitch_bend_c, 3, 5632
5, 53292, Pitch_bend_c, 3, 5760
5, 53293, Pitch_bend_c, 3, 5888
5, 53294, Pitch_bend_c, 3, 6016
5, 53295, Pitch_bend_c, 3, 6272
5, 53296, Pitch_bend_c, 3, 6400
5, 53297, Pitch_bend_c, 3, 6528
5, 53298, Pitch_bend_c, 3, 6656
5, 53299, Pitch_bend_c, 3, 6784
5, 53300, Control_c, 3, 7, 91
5, 53300, Pitch_bend_c, 3, 6912
5, 53301, Pitch_bend_c, 3, 7040
5, 53302, Pitch_bend_c, 3, 7168
5, 53303, Pitch_bend_c, 3, 7296
5, 53304, Pitch_bend_c, 3, 7424
5, 53305, Pitch_bend_c, 3, 7552
5, 53306, Pitch_bend_c, 3, 7680
5, 53307, Pitch_bend_c, 3, 7808
5, 53308, Pitch_bend_c, 3, 7936
5, 53309, Pitch_bend_c, 3, 8192
5, 53310, Note_on_c, 3, 84, 0
5, 53310, Pitch_bend_c, 3, 128
5, 53310, Note_on_c, 3, 85, 100
5, 53311, Pitch_bend_c, 3, 384
5, 53312, Pitch_bend_c, 3, 640
5, 53313, Pitch_bend_c, 3, 1024
5, 53314, Pitch_bend_c, 3, 1280
5, 53315, Control_c, 3, 7, 78
5, 53315, Pitch_bend_c, 3, 1536
5, 53316, Pitch_bend_c, 3, 1920
5, 53317, Pitch_bend_c, 3, 2176
5, 53318, Pitch_bend_c, 3, 2432
5, 53319, Pitch_bend_c, 3, 2816
5, 53320, Pitch_bend_c, 3, 3072
5, 53321, Control_c, 3, 7, 90
5, 53321, Pitch_bend_c, 3, 3328
5, 53322, Pitch_bend_c, 3, 3712
5, 53323, Pitch_bend_c, 3, 3968
5, 53324, Pitch_bend_c, 3, 4224
5, 53325, Pitch_bend_c, 3, 4608
5, 53326, Pitch_bend_c, 3, 4864
5, 53327, Pitch_bend_c, 3, 5120
5, 53328, Pitch_bend_c, 3, 5504
5, 53329, Pitch_bend_c, 3, 5760
5, 53330, Pitch_bend_c, 3, 6016
5, 53331, Pitch_bend_c, 3, 6400
5, 53332, Pitch_bend_c, 3, 6656
5, 53333, Pitch_bend_c, 3, 6912
5, 53334, Pitch_bend_c, 3, 7296
5, 53335, Pitch_bend_c, 3, 7552
5, 53336, Pitch_bend_c, 3, 7808
5, 53337, Pitch_bend_c, 3, 8192
5, 53340, Note_on_c, 3, 85, 0
5, 53340, Note_on_c, 3, 85, 100
5, 53342, Control_c, 3, 7, 89
5, 53345, Control_c, 3, 7, 77
5, 53363, Control_c, 3, 7, 88
5, 53370, Note_on_c, 3, 85, 0
5, 53370, Note_on_c, 3, 85, 100
5, 53375, Control_c, 3, 7, 76
5, 53384, Control_c, 3, 7, 87
5, 53400, Note_on_c, 3, 85, 0
5, 53400, Note_on_c, 3, 85, 100
5, 53404, Control_c, 3, 7, 86
5, 53406, Control_c, 3, 7, 75
5, 53425, Control_c, 3, 7, 85
5, 53430, Note_on_c, 3, 85, 0
5, 53430, Note_on_c, 3, 85, 100
5, 53436, Control_c, 3, 7, 74
5, 53446, Control_c, 3, 7, 84
5, 53460, Note_on_c, 3, 85, 0
5, 53460, Note_on_c, 3, 85, 100
5, 53466, Control_c, 3, 7, 73
5, 53467, Control_c, 3, 7, 83
5, 53488, Control_c, 3, 7, 82
5, 53490, Note_on_c, 3, 85, 0
5, 53490, Note_on_c, 3, 85, 100
5, 53497, Control_c, 3, 7, 72
5, 53509, Control_c, 3, 7, 81
5, 53520, Note_on_c, 3, 85, 0
5, 53520, Note_on_c, 3, 85, 100
5, 53527, Control_c, 3, 7, 71
5, 53530, Control_c, 3, 7, 80
5, 53550, Note_on_c, 3, 85, 0
5, 53550, Control_c, 3, 7, 79
5, 53550, Note_on_c, 3, 85, 100
5, 53557, Control_c, 3, 7, 70
5, 53571, Control_c, 3, 7, 78
5, 53580, Note_on_c, 3, 85, 0
5, 53580, Note_on_c, 3, 85, 100
5, 53587, Control_c, 3, 7, 69
5, 53592, Control_c, 3, 7, 77
5, 53610, Note_on_c, 3, 85, 0
5, 53610, Note_on_c, 3, 85, 100
5, 53613, Control_c, 3, 7, 76
5, 53618, Control_c, 3, 7, 68
5, 53634, Control_c, 3, 7, 75
5, 53640, Note_on_c, 3, 85, 0
5, 53640, Pitch_bend_c, 3, 0
5, 53640, Note_on_c, 3, 85, 100
5, 53641, Pitch_bend_c, 3, 256
5, 53642, Pitch_bend_c, 3, 512
5, 53643, Pitch_bend_c, 3, 768
5, 53644, Pitch_bend_c, 3, 1024
5, 53645, Pitch_bend_c, 3, 1408
5, 53646, Pitch_bend_c, 3, 1664
5, 53647, Pitch_bend_c, 3, 1920
5, 53648, Control_c, 3, 7, 67
5, 53648, Pitch_bend_c, 3, 2176
5, 53649, Pitch_bend_c, 3, 2432
5, 53650, Pitch_bend_c, 3, 2816
5, 53651, Pitch_bend_c, 3, 3072
5, 53652, Pitch_bend_c, 3, 3328
5, 53653, Pitch_bend_c, 3, 3584
5, 53654, Pitch_bend_c, 3, 3840
5, 53655, Control_c, 3, 7, 74
5, 53655, Pitch_bend_c, 3, 4224
5, 53656, Pitch_bend_c, 3, 4480
5, 53657, Pitch_bend_c, 3, 4736
5, 53658, Pitch_bend_c, 3, 4992
5, 53659, Pitch_bend_c, 3, 5248
5, 53660, Pitch_bend_c, 3, 5632
5, 53661, Pitch_bend_c, 3, 5888
5, 53662, Pitch_bend_c, 3, 6144
5, 53663, Pitch_bend_c, 3, 6400
5, 53664, Pitch_bend_c, 3, 6656
5, 53665, Pitch_bend_c, 3, 7040
5, 53666, Pitch_bend_c, 3, 7296
5, 53667, Pitch_bend_c, 3, 7552
5, 53668, Pitch_bend_c, 3, 7808
5, 53669, Pitch_bend_c, 3, 8192
5, 53670, Note_on_c, 3, 85, 0
5, 53670, Note_on_c, 3, 85, 100
5, 53676, Control_c, 3, 7, 73
5, 53678, Control_c, 3, 7, 66
5, 53697, Control_c, 3, 7, 72
5, 53700, Note_on_c, 3, 85, 0
5, 53700, Note_on_c, 3, 85, 100
5, 53709, Control_c, 3, 7, 65
5, 53717, Control_c, 3, 7, 71
5, 53730, Note_on_c, 3, 85, 0
5, 53730, Note_on_c, 3, 85, 100
5, 53738, Control_c, 3, 7, 70
5, 53739, Control_c, 3, 7, 64
5, 53759, Control_c, 3, 7, 69
5, 53760, Note_on_c, 3, 85, 0
5, 53760, Note_on_c, 3, 85, 100
5, 53769, Control_c, 3, 7, 63
5, 53780, Control_c, 3, 7, 68
5, 53790, Note_on_c, 3, 85, 0
5, 53790, Note_on_c, 3, 85, 100
5, 53800, Control_c, 3, 7, 62
5, 53801, Control_c, 3, 7, 67
5, 53820, Note_on_c, 3, 85, 0
5, 53820, Note_on_c, 3, 85, 100
5, 53822, Control_c, 3, 7, 66
5, 53830, Control_c, 3, 7, 61
5, 53843, Control_c, 3, 7, 65
5, 53850, Note_on_c, 3, 85, 0
5, 53850, Note_on_c, 3, 85, 100
5, 53860, Control_c, 3, 7, 60
5, 53863, Control_c, 3, 7, 64
5, 53880, Note_on_c, 3, 85, 0
5, 53880, Pitch_bend_c, 3, 0
5, 53880, Note_on_c, 3, 85, 100
5, 53881, Pitch_bend_c, 3, 256
5, 53882, Pitch_bend_c, 3, 512
5, 53883, Pitch_bend_c, 3, 768
5, 53884, Control_c, 3, 7, 63
5, 53884, Pitch_bend_c, 3, 1152
5, 53885, Pitch_bend_c, 3, 1408
5, 53886, Pitch_bend_c, 3, 1664
5, 53887, Pitch_bend_c, 3, 2048
5, 53888, Pitch_bend_c, 3, 2304
5, 53889, Pitch_bend_c, 3, 2560
5, 53890, Control_c, 3, 7, 59
5, 53890, Pitch_bend_c, 3, 2816
5, 53891, Pitch_bend_c, 3, 3200
5, 53892, Pitch_bend_c, 3, 3456
5, 53893, Pitch_bend_c, 3, 3712
5, 53894, Pitch_bend_c, 3, 4096
5, 53895, Pitch_bend_c, 3, 4352
5, 53896, Pitch_bend_c, 3, 4608
5, 53897, Pitch_bend_c, 3, 4864
5, 53898, Pitch_bend_c, 3, 5248
5, 53899, Pitch_bend_c, 3, 5504
5, 53900, Pitch_bend_c, 3, 5760
5, 53901, Pitch_bend_c, 3, 6144
5, 53902, Pitch_bend_c, 3, 6400
5, 53903, Pitch_bend_c, 3, 6656
5, 53904, Pitch_bend_c, 3, 6912
5, 53905, Control_c, 3, 7, 62
5, 53905, Pitch_bend_c, 3, 7296
5, 53906, Pitch_bend_c, 3, 7552
5, 53907, Pitch_bend_c, 3, 7808
5, 53908, Pitch_bend_c, 3, 8192
5, 53910, Note_on_c, 3, 85, 0
5, 53910, Note_on_c, 3, 85, 100
5, 53921, Control_c, 3, 7, 58
5, 53926, Control_c, 3, 7, 61
5, 53940, Note_on_c, 3, 85, 0
5, 53940, Note_on_c, 3, 85, 100
5, 53947, Control_c, 3, 7, 60
5, 53951, Control_c, 3, 7, 57
5, 53968, Control_c, 3, 7, 59
5, 53970, Note_on_c, 3, 85, 0
5, 53970, Note_on_c, 3, 85, 100
5, 53981, Control_c, 3, 7, 56
5, 53989, Control_c, 3, 7, 58
5, 54000, Note_on_c, 3, 85, 0
5, 54000, Pitch_bend_c, 3, 128
5, 54000, Note_on_c, 3, 85, 100
5, 54001, Pitch_bend_c, 3, 384
5, 54002, Pitch_bend_c, 3, 640
5, 54003, Pitch_bend_c, 3, 1024
5, 54004, Pitch_bend_c, 3, 1280
5, 54005, Pitch_bend_c, 3, 1664
5, 54006, Pitch_bend_c, 3, 1920
5, 54007, Pitch_bend_c, 3, 2176
5, 54008, Pitch_bend_c, 3, 2560
5, 54009, Control_c, 3, 7, 57
5, 54009, Pitch_bend_c, 3, 2816
5, 54010, Pitch_bend_c, 3, 3200
5, 54011, Pitch_bend_c, 3, 3456
5, 54012, Control_c, 3, 7, 55
5, 54012, Pitch_bend_c, 3, 3840
5, 54013, Pitch_bend_c, 3, 4096
5, 54014, Pitch_bend_c, 3, 4352
5, 54015, Pitch_bend_c, 3, 4736
5, 54016, Pitch_bend_c, 3, 4992
5, 54017, Pitch_bend_c, 3, 5376
5, 54018, Pitch_bend_c, 3, 5632
5, 54019, Pitch_bend_c, 3, 6016
5, 54020, Pitch_bend_c, 3, 6272
5, 54021, Pitch_bend_c, 3, 6528
5, 54022, Pitch_bend_c, 3, 6912
5, 54023, Pitch_bend_c, 3, 7168
5, 54024, Pitch_bend_c, 3, 7552
5, 54025, Pitch_bend_c, 3, 7808
5, 54026, Pitch_bend_c, 3, 8192
5, 54030, Note_on_c, 3, 85, 0
5, 54030, Control_c, 3, 7, 56
5, 54030, Note_on_c, 3, 85, 100
5, 54042, Control_c, 3, 7, 54
5, 54051, Control_c, 3, 7, 55
5, 54060, Note_on_c, 3, 85, 0
5, 54060, Note_on_c, 3, 85, 100
5, 54072, Control_c, 3, 7, 53
5, 54072, Control_c, 3, 7, 54
5, 54090, Note_on_c, 3, 85, 0
5, 54090, Note_on_c, 3, 85, 100
5, 54093, Control_c, 3, 7, 53
5, 54103, Control_c, 3, 7, 52
5, 54114, Control_c, 3, 7, 52
5, 54120, Note_on_c, 3, 85, 0
5, 54120, Pitch_bend_c, 3, 128
5, 54120, Note_on_c, 3, 85, 100
5, 54121, Pitch_bend_c, 3, 384
5, 54122, Pitch_bend_c, 3, 640
5, 54123, Pitch_bend_c, 3, 896
5, 54124, Pitch_bend_c, 3, 1280
5, 54125, Pitch_bend_c, 3, 1536
5, 54126, Pitch_bend_c, 3, 1792
5, 54127, Pitch_bend_c, 3, 2048
5, 54128, Pitch_bend_c, 3, 2432
5, 54129, Pitch_bend_c, 3, 2688
5, 54130, Pitch_bend_c, 3, 2944
5, 54131, Pitch_bend_c, 3, 3200
5, 54132, Pitch_bend_c, 3, 3584
5, 54133, Control_c, 3, 7, 51
5, 54133, Pitch_bend_c, 3, 3840
5, 54134, Pitch_bend_c, 3, 4096
5, 54135, Control_c, 3, 7, 51
5, 54135, Pitch_bend_c, 3, 4352
5, 54136, Pitch_bend_c, 3, 4736
5, 54137, Pitch_bend_c, 3, 4992
5, 54138, Pitch_bend_c, 3, 5248
5, 54139, Pitch_bend_c, 3, 5504
5, 54140, Pitch_bend_c, 3, 5888
5, 54141, Pitch_bend_c, 3, 6144
5, 54142, Pitch_bend_c, 3, 6400
5, 54143, Pitch_bend_c, 3, 6656
5, 54144, Pitch_bend_c, 3, 7040
5, 54145, Pitch_bend_c, 3, 7296
5, 54146, Pitch_bend_c, 3, 7552
5, 54147, Pitch_bend_c, 3, 7808
5, 54148, Pitch_bend_c, 3, 8192
5, 54150, Note_on_c, 3, 85, 0
5, 54150, Note_on_c, 3, 85, 100
5, 54155, Control_c, 3, 7, 50
5, 54163, Control_c, 3, 7, 50
5, 54176, Control_c, 3, 7, 49
5, 54180, Note_on_c, 3, 85, 0
5, 54180, Note_on_c, 3, 85, 100
5, 54194, Control_c, 3, 7, 49
5, 54197, Control_c, 3, 7, 48
5, 54210, Note_on_c, 3, 85, 0
5, 54210, Note_on_c, 3, 85, 100
5, 54218, Control_c, 3, 7, 47
5, 54224, Control_c, 3, 7, 48
5, 54239, Control_c, 3, 7, 46
5, 54240, Note_on_c, 3, 85, 0
5, 54240, Note_on_c, 3, 85, 100
5, 54254, Control_c, 3, 7, 47
5, 54260, Control_c, 3, 7, 45
5, 54270, Note_on_c, 3, 85, 0
5, 54270, Note_on_c, 3, 85, 100
5, 54281, Control_c, 3, 7, 44
5, 54284, Control_c, 3, 7, 46
5, 54300, Note_on_c, 3, 85, 0
5, 54300, Note_on_c, 3, 85, 100
5, 54301, Control_c, 3, 7, 43
5, 54315, Control_c, 3, 7, 45
5, 54322, Control_c, 3, 7, 42
5, 54330, Note_on_c, 3, 85, 0
5, 54330, Note_on_c, 3, 85, 100
5, 54343, Control_c, 3, 7, 41
5, 54345, Control_c, 3, 7, 44
5, 54360, Note_on_c, 3, 85, 0
5, 54360, Pitch_bend_c, 3, 128
5, 54360, Note_on_c, 3, 85, 100
5, 54361, Pitch_bend_c, 3, 384
5, 54362, Pitch_bend_c, 3, 768
5, 54363, Pitch_bend_c, 3, 1024
5, 54364, Control_c, 3, 7, 40
5, 54364, Pitch_bend_c, 3, 1408
5, 54365, Pitch_bend_c, 3, 1664
5, 54366, Pitch_bend_c, 3, 2048
5, 54367, Pitch_bend_c, 3, 2304
5, 54368, Pitch_bend_c, 3, 2688
5, 54369, Pitch_bend_c, 3, 2944
5, 54370, Pitch_bend_c, 3, 3328
5, 54371, Pitch_bend_c, 3, 3584
5, 54372, Pitch_bend_c, 3, 3968
5, 54373, Pitch_bend_c, 3, 4224
5, 54374, Pitch_bend_c, 3, 4608
5, 54375, Control_c, 3, 7, 43
5, 54375, Pitch_bend_c, 3, 4864
5, 54376, Pitch_bend_c, 3, 5248
5, 54377, Pitch_bend_c, 3, 5504
5, 54378, Pitch_bend_c, 3, 5888
5, 54379, Pitch_bend_c, 3, 6144
5, 54380, Pitch_bend_c, 3, 6528
5, 54381, Pitch_bend_c, 3, 6784
5, 54382, Pitch_bend_c, 3, 7168
5, 54383, Pitch_bend_c, 3, 7424
5, 54384, Pitch_bend_c, 3, 7808
5, 54385, Control_c, 3, 7, 39
5, 54385, Pitch_bend_c, 3, 8192
5, 54390, Note_on_c, 3, 85, 0
5, 54390, Note_on_c, 3, 85, 100
5, 54406, Control_c, 3, 7, 42
5, 54406, Control_c, 3, 7, 38
5, 54420, Note_on_c, 3, 85, 0
5, 54420, Note_on_c, 3, 85, 100
5, 54427, Control_c, 3, 7, 37
5, 54436, Control_c, 3, 7, 41
5, 54448, Control_c, 3, 7, 36
5, 54450, Note_on_c, 3, 85, 0
5, 54450, Note_on_c, 3, 85, 100
5, 54466, Control_c, 3, 7, 40
5, 54468, Control_c, 3, 7, 35
5, 54480, Note_on_c, 3, 85, 0
5, 54480, Note_on_c, 3, 85, 100
5, 54489, Control_c, 3, 7, 34
5, 54497, Control_c, 3, 7, 39
5, 54510, Note_on_c, 3, 85, 0
5, 54510, Control_c, 3, 7, 33
5, 54510, Note_on_c, 3, 85, 100
5, 54527, Control_c, 3, 7, 38
5, 54531, Control_c, 3, 7, 32
5, 54540, Note_on_c, 3, 85, 0
5, 54540, Note_on_c, 3, 85, 100
5, 54552, Control_c, 3, 7, 31
5, 54557, Control_c, 3, 7, 37
5, 54570, Note_on_c, 3, 85, 0
5, 54570, Note_on_c, 3, 85, 100
5, 54573, Control_c, 3, 7, 30
5, 54588, Control_c, 3, 7, 36
5, 54594, Control_c, 3, 7, 29
5, 54600, Note_on_c, 3, 85, 0
5, 54600, Note_on_c, 3, 85, 100
5, 54614, Control_c, 3, 7, 28
5, 54618, Control_c, 3, 7, 35
5, 54630, Note_on_c, 3, 85, 0
5, 54630, Note_on_c, 3, 85, 100
5, 54635, Control_c, 3, 7, 27
5, 54648, Control_c, 3, 7, 34
5, 54656, Control_c, 3, 7, 26
5, 54660, Note_on_c, 3, 85, 0
5, 54660, Note_on_c, 3, 85, 100
5, 54677, Control_c, 3, 7, 25
5, 54678, Control_c, 3, 7, 33
5, 54690, Note_on_c, 3, 85, 0
5, 54690, Note_on_c, 3, 85, 100
5, 54698, Control_c, 3, 7, 24
5, 54709, Control_c, 3, 7, 32
5, 54719, Control_c, 3, 7, 23
5, 54720, Note_on_c, 3, 85, 0
5, 54720, Note_on_c, 3, 85, 100
5, 54739, Control_c, 3, 7, 31
5, 54740, Control_c, 3, 7, 22
5, 54750, Note_on_c, 3, 85, 0
5, 54750, Note_on_c, 3, 85, 100
5, 54760, Control_c, 3, 7, 21
5, 54769, Control_c, 3, 7, 30
5, 54780, Note_on_c, 3, 85, 0
5, 54780, Note_on_c, 3, 85, 100
5, 54781, Control_c, 3, 7, 20
5, 54800, Control_c, 3, 7, 29
5, 54802, Control_c, 3, 7, 19
5, 54810, Note_on_c, 3, 85, 0
5, 54810, Note_on_c, 3, 85, 100
5, 54823, Control_c, 3, 7, 18
5, 54830, Control_c, 3, 7, 28
5, 54840, Note_on_c, 3, 85, 0
5, 54840, Note_on_c, 3, 85, 100
5, 54844, Control_c, 3, 7, 17
5, 54860, Control_c, 3, 7, 27
5, 54865, Control_c, 3, 7, 16
5, 54886, Control_c, 3, 7, 15
5, 54891, Control_c, 3, 7, 26
5, 54900, Note_on_c, 3, 85, 0
5, 54900, Note_on_c, 3, 85, 100
5, 54906, Control_c, 3, 7, 14
5, 54921, Control_c, 3, 7, 25
5, 54927, Control_c, 3, 7, 13
5, 54948, Control_c, 3, 7, 12
5, 54951, Control_c, 3, 7, 24
5, 54960, Note_on_c, 3, 85, 0
5, 54960, Note_on_c, 3, 85, 100
5, 54969, Control_c, 3, 7, 11
5, 54981, Control_c, 3, 7, 23
5, 54990, Note_on_c, 3, 85, 0
5, 54990, Control_c, 3, 7, 10
5, 54990, Note_on_c, 3, 85, 100
5, 55011, Control_c, 3, 7, 9
5, 55012, Control_c, 3, 7, 22
5, 55020, Note_on_c, 3, 85, 0
5, 55020, Note_on_c, 3, 85, 100
5, 55032, Control_c, 3, 7, 8
5, 55042, Control_c, 3, 7, 21
5, 55050, Note_on_c, 3, 85, 0
5, 55050, Note_on_c, 3, 85, 100
5, 55052, Control_c, 3, 7, 7
5, 55072, Control_c, 3, 7, 20
5, 55073, Control_c, 3, 7, 6
5, 55080, Note_on_c, 3, 85, 0
5, 55080, Note_on_c, 3, 85, 100
5, 55094, Control_c, 3, 7, 5
5, 55103, Control_c, 3, 7, 19
5, 55110, Note_on_c, 3, 85, 0
5, 55110, Note_on_c, 3, 85, 100
5, 55115, Control_c, 3, 7, 4
5, 55133, Control_c, 3, 7, 18
5, 55136, Control_c, 3, 7, 3
5, 55140, Note_on_c, 3, 85, 0
5, 55140, Note_on_c, 3, 85, 100
5, 55157, Control_c, 3, 7, 2
5, 55163, Control_c, 3, 7, 17
5, 55170, Note_on_c, 3, 85, 0
5, 55170, Note_on_c, 3, 85, 100
5, 55178, Control_c, 3, 7, 1
5, 55194, Control_c, 3, 7, 16
5, 55199, Control_c, 3, 7, 0
5, 55200, Note_on_c, 3, 85, 0
5, 55200, Pitch_bend_c, 3, 128
5, 55200, Note_on_c, 3, 85, 100
5, 55200, Note_on_c, 3, 78, 100
5, 55202, Pitch_bend_c, 3, 256
5, 55203, Pitch_bend_c, 3, 384
5, 55204, Pitch_bend_c, 3, 512
5, 55205, Pitch_bend_c, 3, 640
5, 55207, Pitch_bend_c, 3, 768
5, 55208, Pitch_bend_c, 3, 896
5, 55209, Pitch_bend_c, 3, 1024
5, 55210, Pitch_bend_c, 3, 1152
5, 55211, Pitch_bend_c, 3, 1280
5, 55213, Pitch_bend_c, 3, 1408
5, 55214, Pitch_bend_c, 3, 1536
5, 55215, Pitch_bend_c, 3, 1664
5, 55216, Pitch_bend_c, 3, 1792
5, 55217, Pitch_bend_c, 3, 1920
5, 55219, Pitch_bend_c, 3, 2048
5, 55220, Pitch_bend_c, 3, 2176
5, 55221, Pitch_bend_c, 3, 2304
5, 55222, Pitch_bend_c, 3, 2432
5, 55223, Pitch_bend_c, 3, 2560
5, 55224, Control_c, 3, 7, 15
5, 55225, Pitch_bend_c, 3, 2688
5, 55226, Pitch_bend_c, 3, 2816
5, 55227, Pitch_bend_c, 3, 2944
5, 55228, Pitch_bend_c, 3, 3072
5, 55229, Pitch_bend_c, 3, 3200
5, 55231, Pitch_bend_c, 3, 3328
5, 55232, Pitch_bend_c, 3, 3456
5, 55233, Pitch_bend_c, 3, 3584
5, 55234, Pitch_bend_c, 3, 3712
5, 55235, Pitch_bend_c, 3, 3840
5, 55237, Pitch_bend_c, 3, 3968
5, 55238, Pitch_bend_c, 3, 4096
5, 55239, Pitch_bend_c, 3, 4224
5, 55240, Pitch_bend_c, 3, 4352
5, 55242, Pitch_bend_c, 3, 4480
5, 55243, Pitch_bend_c, 3, 4608
5, 55244, Pitch_bend_c, 3, 4736
5, 55245, Pitch_bend_c, 3, 4864
5, 55246, Pitch_bend_c, 3, 4992
5, 55248, Pitch_bend_c, 3, 5120
5, 55249, Pitch_bend_c, 3, 5248
5, 55250, Pitch_bend_c, 3, 5376
5, 55251, Pitch_bend_c, 3, 5504
5, 55252, Pitch_bend_c, 3, 5632
5, 55254, Control_c, 3, 7, 14
5, 55254, Pitch_bend_c, 3, 5760
5, 55255, Pitch_bend_c, 3, 5888
5, 55256, Pitch_bend_c, 3, 6016
5, 55257, Pitch_bend_c, 3, 6144
5, 55258, Pitch_bend_c, 3, 6272
5, 55260, Pitch_bend_c, 3, 6400
5, 55261, Pitch_bend_c, 3, 6528
5, 55262, Pitch_bend_c, 3, 6656
5, 55263, Pitch_bend_c, 3, 6784
5, 55264, Pitch_bend_c, 3, 6912
5, 55266, Pitch_bend_c, 3, 7040
5, 55267, Pitch_bend_c, 3, 7168
5, 55268, Pitch_bend_c, 3, 7296
5, 55269, Pitch_bend_c, 3, 7424
5, 55270, Pitch_bend_c, 3, 7552
5, 55272, Pitch_bend_c, 3, 7680
5, 55273, Pitch_bend_c, 3, 7808
5, 55274, Pitch_bend_c, 3, 7936
5, 55275, Pitch_bend_c, 3, 8064
5, 55276, Pitch_bend_c, 3, 8192
5, 55285, Control_c, 3, 7, 13
5, 55290, Note_on_c, 3, 78, 0
5, 55290, Note_on_c, 3, 85, 0
5, 55290, Pitch_bend_c, 3, 128
5, 55291, Pitch_bend_c, 3, 384
5, 55292, Pitch_bend_c, 3, 768
5, 55293, Pitch_bend_c, 3, 1152
5, 55294, Pitch_bend_c, 3, 1408
5, 55295, Pitch_bend_c, 3, 1792
5, 55296, Pitch_bend_c, 3, 2176
5, 55297, Pitch_bend_c, 3, 2560
5, 55298, Pitch_bend_c, 3, 2816
5, 55299, Pitch_bend_c, 3, 3200
5, 55300, Pitch_bend_c, 3, 3584
5, 55301, Pitch_bend_c, 3, 3968
5, 55302, Pitch_bend_c, 3, 4224
5, 55303, Pitch_bend_c, 3, 4608
5, 55304, Pitch_bend_c, 3, 4992
5, 55305, Pitch_bend_c, 3, 5376
5, 55306, Pitch_bend_c, 3, 5632
5, 55307, Pitch_bend_c, 3, 6016
5, 55308, Pitch_bend_c, 3, 6400
5, 55309, Pitch_bend_c, 3, 6784
5, 55310, Pitch_bend_c, 3, 7040
5, 55311, Pitch_bend_c, 3, 7424
5, 55312, Pitch_bend_c, 3, 7808
5, 55313, Pitch_bend_c, 3, 8192
5, 55315, Control_c, 3, 7, 12
5, 55345, Control_c, 3, 7, 11
5, 55375, Control_c, 3, 7, 10
5, 55406, Control_c, 3, 7, 9
5, 55436, Control_c, 3, 7, 8
5, 55466, Control_c, 3, 7, 7
5, 55497, Control_c, 3, 7, 6
5, 55527, Control_c, 3, 7, 5
5, 55557, Control_c, 3, 7, 4
5, 55588, Control_c, 3, 7, 3
5, 55618, Control_c, 3, 7, 2
5, 55648, Control_c, 3, 7, 1
5, 55679, Control_c, 3, 7, 0
5, 55679, End_track
6, 0, Start_track
6, 0, MIDI_port, 0
6, 0, Program_c, 4, 30
6, 0, Control_c, 4, 7, 95
6, 0, Control_c, 4, 10, 80
6, 2403, Control_c, 4, 7, 127
6, 2703, Pitch_bend_c, 4, 0
6, 2703, Note_on_c, 4, 68, 100
6, 2704, Pitch_bend_c, 4, 256
6, 2706, Pitch_bend_c, 4, 640
6, 2708, Pitch_bend_c, 4, 896
6, 2709, Pitch_bend_c, 4, 1280
6, 2711, Pitch_bend_c, 4, 1536
6, 2713, Pitch_bend_c, 4, 1920
6, 2714, Pitch_bend_c, 4, 2176
6, 2716, Pitch_bend_c, 4, 2560
6, 2718, Pitch_bend_c, 4, 2944
6, 2719, Pitch_bend_c, 4, 3200
6, 2721, Pitch_bend_c, 4, 3584
6, 2723, Pitch_bend_c, 4, 3840
6, 2724, Pitch_bend_c, 4, 4224
6, 2726, Pitch_bend_c, 4, 4480
6, 2728, Pitch_bend_c, 4, 4864
6, 2729, Pitch_bend_c, 4, 5120
6, 2731, Pitch_bend_c, 4, 5504
6, 2733, Pitch_bend_c, 4, 5888
6, 2734, Pitch_bend_c, 4, 6144
6, 2736, Pitch_bend_c, 4, 6528
6, 2738, Pitch_bend_c, 4, 6784
6, 2739, Pitch_bend_c, 4, 7168
6, 2741, Pitch_bend_c, 4, 7424
6, 2743, Pitch_bend_c, 4, 7808
6, 2744, Pitch_bend_c, 4, 8192
6, 2763, Note_on_c, 4, 68, 0
6, 2763, Note_on_c, 4, 71, 100
6, 2823, Note_on_c, 4, 71, 0
6, 2823, Pitch_bend_c, 4, 128
6, 2823, Note_on_c, 4, 75, 100
6, 2824, Pitch_bend_c, 4, 1024
6, 2826, Pitch_bend_c, 4, 1920
6, 2828, Pitch_bend_c, 4, 2816
6, 2829, Pitch_bend_c, 4, 3712
6, 2831, Pitch_bend_c, 4, 4608
6, 2833, Pitch_bend_c, 4, 5504
6, 2834, Pitch_bend_c, 4, 6400
6, 2836, Pitch_bend_c, 4, 7296
6, 2838, Pitch_bend_c, 4, 8192
6, 2883, Note_on_c, 4, 75, 0
6, 2883, Note_on_c, 4, 75, 100
6, 2883, Pitch_bend_c, 4, 256
6, 2884, Pitch_bend_c, 4, 896
6, 2886, Pitch_bend_c, 4, 1664
6, 2888, Pitch_bend_c, 4, 2304
6, 2889, Pitch_bend_c, 4, 3072
6, 2891, Pitch_bend_c, 4, 3840
6, 2893, Pitch_bend_c, 4, 4480
6, 2894, Pitch_bend_c, 4, 5248
6, 2896, Pitch_bend_c, 4, 6016
6, 2898, Pitch_bend_c, 4, 6656
6, 2899, Pitch_bend_c, 4, 7424
6, 2901, Pitch_bend_c, 4, 8192
6, 2943, Note_on_c, 4, 75, 0
6, 2943, Pitch_bend_c, 4, 128
6, 2943, Note_on_c, 4, 75, 100
6, 2944, Pitch_bend_c, 4, 896
6, 2946, Pitch_bend_c, 4, 1664
6, 2948, Pitch_bend_c, 4, 2432
6, 2949, Pitch_bend_c, 4, 3328
6, 2951, Pitch_bend_c, 4, 4096
6, 2953, Pitch_bend_c, 4, 4864
6, 2954, Pitch_bend_c, 4, 5760
6, 2956, Pitch_bend_c, 4, 6528
6, 2958, Pitch_bend_c, 4, 7296
6, 2959, Pitch_bend_c, 4, 8192
6, 3003, Note_on_c, 4, 75, 0
6, 3003, Pitch_bend_c, 4, 128
6, 3003, Note_on_c, 4, 75, 100
6, 3004, Pitch_bend_c, 4, 640
6, 3006, Pitch_bend_c, 4, 1152
6, 3008, Pitch_bend_c, 4, 1664
6, 3009, Pitch_bend_c, 4, 2176
6, 3011, Pitch_bend_c, 4, 2816
6, 3013, Pitch_bend_c, 4, 3328
6, 3014, Pitch_bend_c, 4, 3840
6, 3016, Pitch_bend_c, 4, 4352
6, 3018, Pitch_bend_c, 4, 4864
6, 3019, Pitch_bend_c, 4, 5504
6, 3021, Pitch_bend_c, 4, 6016
6, 3023, Pitch_bend_c, 4, 6528
6, 3024, Pitch_bend_c, 4, 7040
6, 3026, Pitch_bend_c, 4, 7552
6, 3028, Pitch_bend_c, 4, 8192
6, 3034, Pitch_bend_c, 4, 8064
6, 3036, Pitch_bend_c, 4, 8320
6, 3038, Pitch_bend_c, 4, 8576
6, 3039, Pitch_bend_c, 4, 9088
6, 3043, Pitch_bend_c, 4, 8960
6, 3044, Pitch_bend_c, 4, 8448
6, 3046, Pitch_bend_c, 4, 7680
6, 3049, Pitch_bend_c, 4, 8064
6, 3051, Pitch_bend_c, 4, 8576
6, 3053, Pitch_bend_c, 4, 8960
6, 3054, Pitch_bend_c, 4, 9088
6, 3056, Pitch_bend_c, 4, 8192
6, 3058, Pitch_bend_c, 4, 8064
6, 3061, Pitch_bend_c, 4, 8192
6, 3063, Pitch_bend_c, 4, 8576
6, 3064, Pitch_bend_c, 4, 8832
6, 3066, Pitch_bend_c, 4, 7680
6, 3073, Pitch_bend_c, 4, 8192
6, 3074, Pitch_bend_c, 4, 8704
6, 3076, Pitch_bend_c, 4, 8960
6, 3078, Pitch_bend_c, 4, 8832
6, 3079, Pitch_bend_c, 4, 7936
6, 3083, Pitch_bend_c, 4, 8192
6, 3084, Pitch_bend_c, 4, 8448
6, 3086, Pitch_bend_c, 4, 8960
6, 3089, Pitch_bend_c, 4, 8320
6, 3091, Pitch_bend_c, 4, 7808
6, 3093, Pitch_bend_c, 4, 7680
6, 3096, Pitch_bend_c, 4, 8064
6, 3098, Pitch_bend_c, 4, 8704
6, 3099, Pitch_bend_c, 4, 8960
6, 3103, Pitch_bend_c, 4, 7808
6, 3104, Pitch_bend_c, 4, 7936
6, 3106, Pitch_bend_c, 4, 8704
6, 3109, Pitch_bend_c, 4, 8320
6, 3114, Pitch_bend_c, 4, 8064
6, 3118, Pitch_bend_c, 4, 8192
6, 3123, Note_on_c, 4, 75, 0
6, 3183, Note_on_c, 4, 73, 100
6, 3184, Pitch_bend_c, 4, 8576
6, 3186, Pitch_bend_c, 4, 8704
6, 3188, Pitch_bend_c, 4, 8960
6, 3189, Pitch_bend_c, 4, 9216
6, 3191, Pitch_bend_c, 4, 9728
6, 3193, Pitch_bend_c, 4, 10240
6, 3194, Pitch_bend_c, 4, 10752
6, 3196, Pitch_bend_c, 4, 16383
6, 3198, Pitch_bend_c, 4, 16256
6, 3199, Pitch_bend_c, 4, 12416
6, 3201, Pitch_bend_c, 4, 11648
6, 3203, Pitch_bend_c, 4, 8320
6, 3204, Pitch_bend_c, 4, 8192
6, 3243, Note_on_c, 4, 73, 0
6, 3243, Note_on_c, 4, 71, 100
6, 3303, Note_on_c, 4, 71, 0
6, 3303, Pitch_bend_c, 4, 128
6, 3303, Note_on_c, 4, 68, 100
6, 3304, Pitch_bend_c, 4, 640
6, 3306, Pitch_bend_c, 4, 1280
6, 3308, Pitch_bend_c, 4, 1920
6, 3309, Pitch_bend_c, 4, 2560
6, 3311, Pitch_bend_c, 4, 3200
6, 3313, Pitch_bend_c, 4, 3840
6, 3314, Pitch_bend_c, 4, 4352
6, 3316, Pitch_bend_c, 4, 4992
6, 3318, Pitch_bend_c, 4, 5632
6, 3319, Pitch_bend_c, 4, 6272
6, 3321, Pitch_bend_c, 4, 6912
6, 3323, Pitch_bend_c, 4, 7552
6, 3324, Pitch_bend_c, 4, 8192
6, 3363, Note_on_c, 4, 68, 0
6, 3363, Note_on_c, 4, 66, 100
6, 3423, Note_on_c, 4, 66, 0
6, 3423, Note_on_c, 4, 66, 100
6, 3483, Note_on_c, 4, 66, 0
6, 3483, Note_on_c, 4, 66, 100
6, 3483, Pitch_bend_c, 4, 8320
6, 3494, Pitch_bend_c, 4, 8448
6, 3496, Pitch_bend_c, 4, 8576
6, 3498, Pitch_bend_c, 4, 8832
6, 3499, Pitch_bend_c, 4, 9600
6, 3504, Pitch_bend_c, 4, 9344
6, 3506, Pitch_bend_c, 4, 8576
6, 3514, Pitch_bend_c, 4, 8832
6, 3516, Pitch_bend_c, 4, 9600
6, 3519, Pitch_bend_c, 4, 8704
6, 3533, Pitch_bend_c, 4, 9088
6, 3534, Pitch_bend_c, 4, 9344
6, 3536, Pitch_bend_c, 4, 9472
6, 3538, Pitch_bend_c, 4, 9600
6, 3541, Pitch_bend_c, 4, 9856
6, 3543, Pitch_bend_c, 4, 8832
6, 3549, Pitch_bend_c, 4, 9088
6, 3553, Pitch_bend_c, 4, 9600
6, 3556, Pitch_bend_c, 4, 9856
6, 3559, Pitch_bend_c, 4, 8576
6, 3561, Pitch_bend_c, 4, 8320
6, 3578, Pitch_bend_c, 4, 8448
6, 3579, Pitch_bend_c, 4, 8576
6, 3581, Pitch_bend_c, 4, 8832
6, 3583, Pitch_bend_c, 4, 9344
6, 3584, Pitch_bend_c, 4, 9088
6, 3586, Pitch_bend_c, 4, 8576
6, 3588, Pitch_bend_c, 4, 8320
6, 3594, Pitch_bend_c, 4, 8448
6, 3596, Pitch_bend_c, 4, 8576
6, 3598, Pitch_bend_c, 4, 9344
6, 3599, Pitch_bend_c, 4, 9472
6, 3603, Pitch_bend_c, 4, 9600
6, 3609, Pitch_bend_c, 4, 9344
6, 3611, Pitch_bend_c, 4, 9088
6, 3614, Pitch_bend_c, 4, 8832
6, 3616, Pitch_bend_c, 4, 8704
6, 3618, Pitch_bend_c, 4, 8576
6, 3621, Pitch_bend_c, 4, 8320
6, 3628, Pitch_bend_c, 4, 8320
6, 3629, Pitch_bend_c, 4, 7552
6, 3631, Pitch_bend_c, 4, 6784
6, 3633, Pitch_bend_c, 4, 5888
6, 3634, Pitch_bend_c, 4, 5120
6, 3636, Pitch_bend_c, 4, 4224
6, 3638, Pitch_bend_c, 4, 3456
6, 3639, Pitch_bend_c, 4, 2688
6, 3641, Pitch_bend_c, 4, 1792
6, 3643, Pitch_bend_c, 4, 1024
6, 3644, Pitch_bend_c, 4, 128
6, 3663, Note_on_c, 4, 66, 0
6, 3663, Note_on_c, 4, 61, 100
6, 3664, Pitch_bend_c, 4, 256
6, 3666, Pitch_bend_c, 4, 1024
6, 3668, Pitch_bend_c, 4, 1792
6, 3669, Pitch_bend_c, 4, 2560
6, 3671, Pitch_bend_c, 4, 3328
6, 3673, Pitch_bend_c, 4, 4224
6, 3674, Pitch_bend_c, 4, 4992
6, 3676, Pitch_bend_c, 4, 5760
6, 3678, Pitch_bend_c, 4, 6528
6, 3679, Pitch_bend_c, 4, 7296
6, 3681, Pitch_bend_c, 4, 8192
6, 3723, Note_on_c, 4, 61, 0
6, 3723, Note_on_c, 4, 64, 100
6, 3783, Note_on_c, 4, 64, 0
6, 3783, Note_on_c, 4, 66, 100
6, 3843, Note_on_c, 4, 66, 0
6, 3843, Note_on_c, 4, 68, 100
6, 3844, Pitch_bend_c, 4, 128
6, 3846, Pitch_bend_c, 4, 640
6, 3848, Pitch_bend_c, 4, 1280
6, 3849, Pitch_bend_c, 4, 1792
6, 3851, Pitch_bend_c, 4, 2432
6, 3853, Pitch_bend_c, 4, 2944
6, 3854, Pitch_bend_c, 4, 3584
6, 3856, Pitch_bend_c, 4, 4096
6, 3858, Pitch_bend_c, 4, 4736
6, 3859, Pitch_bend_c, 4, 5248
6, 3861, Pitch_bend_c, 4, 5888
6, 3863, Pitch_bend_c, 4, 6400
6, 3864, Pitch_bend_c, 4, 7040
6, 3866, Pitch_bend_c, 4, 7552
6, 3868, Pitch_bend_c, 4, 8192
6, 3903, Note_on_c, 4, 68, 0
6, 3903, Note_on_c, 4, 66, 100
6, 3963, Note_on_c, 4, 66, 0
6, 3963, Pitch_bend_c, 4, 128
6, 3963, Note_on_c, 4, 68, 100
6, 3964, Pitch_bend_c, 4, 512
6, 3966, Pitch_bend_c, 4, 896
6, 3968, Pitch_bend_c, 4, 1280
6, 3969, Pitch_bend_c, 4, 1792
6, 3971, Pitch_bend_c, 4, 2176
6, 3973, Pitch_bend_c, 4, 2560
6, 3974, Pitch_bend_c, 4, 3072
6, 3976, Pitch_bend_c, 4, 3456
6, 3978, Pitch_bend_c, 4, 3840
6, 3979, Pitch_bend_c, 4, 4352
6, 3981, Pitch_bend_c, 4, 4736
6, 3983, Pitch_bend_c, 4, 5120
6, 3984, Pitch_bend_c, 4, 5632
6, 3986, Pitch_bend_c, 4, 6016
6, 3988, Pitch_bend_c, 4, 6400
6, 3989, Pitch_bend_c, 4, 6912
6, 3991, Pitch_bend_c, 4, 7296
6, 3993, Pitch_bend_c, 4, 7680
6, 3994, Pitch_bend_c, 4, 8192
6, 3998, Pitch_bend_c, 4, 8064
6, 3999, Pitch_bend_c, 4, 8320
6, 4003, Pitch_bend_c, 4, 8576
6, 4004, Pitch_bend_c, 4, 8832
6, 4006, Pitch_bend_c, 4, 8576
6, 4008, Pitch_bend_c, 4, 8064
6, 4011, Pitch_bend_c, 4, 7936
6, 4018, Pitch_bend_c, 4, 8064
6, 4019, Pitch_bend_c, 4, 8192
6, 4021, Pitch_bend_c, 4, 8320
6, 4023, Pitch_bend_c, 4, 8960
6, 4024, Pitch_bend_c, 4, 9088
6, 4026, Pitch_bend_c, 4, 8832
6, 4028, Pitch_bend_c, 4, 8576
6, 4029, Pitch_bend_c, 4, 8064
6, 4036, Pitch_bend_c, 4, 8192
6, 4038, Pitch_bend_c, 4, 8576
6, 4039, Pitch_bend_c, 4, 8704
6, 4041, Pitch_bend_c, 4, 8832
6, 4046, Pitch_bend_c, 4, 8704
6, 4048, Pitch_bend_c, 4, 7808
6, 4056, Pitch_bend_c, 4, 8064
6, 4058, Pitch_bend_c, 4, 8320
6, 4059, Pitch_bend_c, 4, 8832
6, 4063, Pitch_bend_c, 4, 9088
6, 4069, Pitch_bend_c, 4, 7808
6, 4071, Pitch_bend_c, 4, 7424
6, 4079, Pitch_bend_c, 4, 7936
6, 4081, Pitch_bend_c, 4, 8448
6, 4083, Pitch_bend_c, 4, 9088
6, 4084, Pitch_bend_c, 4, 9216
6, 4089, Pitch_bend_c, 4, 9088
6, 4091, Pitch_bend_c, 4, 8704
6, 4093, Pitch_bend_c, 4, 7424
6, 4098, Pitch_bend_c, 4, 7552
6, 4099, Pitch_bend_c, 4, 7808
6, 4101, Pitch_bend_c, 4, 8192
6, 4103, Pitch_bend_c, 4, 8832
6, 4104, Pitch_bend_c, 4, 8960
6, 4109, Pitch_bend_c, 4, 8704
6, 4111, Pitch_bend_c, 4, 8576
6, 4113, Pitch_bend_c, 4, 8448
6, 4116, Pitch_bend_c, 4, 8192
6, 4143, Note_on_c, 4, 68, 0
6, 4143, Note_on_c, 4, 66, 100
6, 4143, Pitch_bend_c, 4, 16256
6, 4144, Pitch_bend_c, 4, 15872
6, 4146, Pitch_bend_c, 4, 15488
6, 4148, Pitch_bend_c, 4, 15104
6, 4149, Pitch_bend_c, 4, 14592
6, 4151, Pitch_bend_c, 4, 14208
6, 4153, Pitch_bend_c, 4, 13824
6, 4154, Pitch_bend_c, 4, 13312
6, 4156, Pitch_bend_c, 4, 12928
6, 4158, Pitch_bend_c, 4, 12544
6, 4159, Pitch_bend_c, 4, 12032
6, 4161, Pitch_bend_c, 4, 11648
6, 4163, Pitch_bend_c, 4, 11264
6, 4164, Pitch_bend_c, 4, 10752
6, 4166, Pitch_bend_c, 4, 10368
6, 4168, Pitch_bend_c, 4, 9984
6, 4169, Pitch_bend_c, 4, 9472
6, 4171, Pitch_bend_c, 4, 9088
6, 4173, Pitch_bend_c, 4, 8704
6, 4174, Pitch_bend_c, 4, 8192
6, 4203, Note_on_c, 4, 66, 0
6, 4203, Note_on_c, 4, 64, 100
6, 4263, Note_on_c, 4, 64, 0
6, 4263, Note_on_c, 4, 61, 100
6, 4323, Note_on_c, 4, 61, 0
6, 4323, Note_on_c, 4, 69, 100
6, 4324, Pitch_bend_c, 4, 4224
6, 4326, Pitch_bend_c, 4, 4992
6, 4328, Pitch_bend_c, 4, 5760
6, 4329, Pitch_bend_c, 4, 6528
6, 4331, Pitch_bend_c, 4, 7296
6, 4333, Pitch_bend_c, 4, 8192
6, 4353, Note_on_c, 4, 69, 0
6, 4353, Note_on_c, 4, 68, 100
6, 4383, Note_on_c, 4, 68, 0
6, 4383, Note_on_c, 4, 64, 100
6, 4443, Note_on_c, 4, 64, 0
6, 4443, Pitch_bend_c, 4, 256
6, 4443, Note_on_c, 4, 73, 100
6, 4444, Pitch_bend_c, 4, 384
6, 4446, Pitch_bend_c, 4, 640
6, 4448, Pitch_bend_c, 4, 768
6, 4449, Pitch_bend_c, 4, 1024
6, 4451, Pitch_bend_c, 4, 1152
6, 4453, Pitch_bend_c, 4, 1408
6, 4454, Pitch_bend_c, 4, 1664
6, 4456, Pitch_bend_c, 4, 1792
6, 4458, Pitch_bend_c, 4, 2048
6, 4459, Pitch_bend_c, 4, 2176
6, 4461, Pitch_bend_c, 4, 2432
6, 4463, Pitch_bend_c, 4, 2688
6, 4464, Pitch_bend_c, 4, 2816
6, 4466, Pitch_bend_c, 4, 3072
6, 4468, Pitch_bend_c, 4, 3200
6, 4469, Pitch_bend_c, 4, 3456
6, 4471, Pitch_bend_c, 4, 3712
6, 4473, Pitch_bend_c, 4, 3840
6, 4474, Pitch_bend_c, 4, 4096
6, 4476, Pitch_bend_c, 4, 4224
6, 4478, Pitch_bend_c, 4, 4480
6, 4479, Pitch_bend_c, 4, 4608
6, 4481, Pitch_bend_c, 4, 4864
6, 4483, Pitch_bend_c, 4, 5120
6, 4484, Pitch_bend_c, 4, 5248
6, 4486, Pitch_bend_c, 4, 5504
6, 4488, Pitch_bend_c, 4, 5632
6, 4489, Pitch_bend_c, 4, 5888
6, 4491, Pitch_bend_c, 4, 6144
6, 4493, Pitch_bend_c, 4, 6272
6, 4494, Pitch_bend_c, 4, 6528
6, 4496, Pitch_bend_c, 4, 6656
6, 4498, Pitch_bend_c, 4, 6912
6, 4499, Pitch_bend_c, 4, 7168
6, 4501, Pitch_bend_c, 4, 7296
6, 4503, Pitch_bend_c, 4, 7552
6, 4504, Pitch_bend_c, 4, 7680
6, 4506, Pitch_bend_c, 4, 7936
6, 4508, Pitch_bend_c, 4, 8192
6, 4516, Pitch_bend_c, 4, 8192
6, 4518, Pitch_bend_c, 4, 8704
6, 4519, Pitch_bend_c, 4, 8960
6, 4521, Pitch_bend_c, 4, 8704
6, 4523, Pitch_bend_c, 4, 8064
6, 4524, Pitch_bend_c, 4, 7552
6, 4529, Pitch_bend_c, 4, 8320
6, 4533, Pitch_bend_c, 4, 9088
6, 4534, Pitch_bend_c, 4, 9344
6, 4536, Pitch_bend_c, 4, 9728
6, 4538, Pitch_bend_c, 4, 9984
6, 4539, Pitch_bend_c, 4, 9216
6, 4541, Pitch_bend_c, 4, 8064
6, 4544, Pitch_bend_c, 4, 7936
6, 4546, Pitch_bend_c, 4, 8064
6, 4548, Pitch_bend_c, 4, 8832
6, 4549, Pitch_bend_c, 4, 9600
6, 4551, Pitch_bend_c, 4, 7296
6, 4561, Pitch_bend_c, 4, 7424
6, 4563, Pitch_bend_c, 4, 8448
6, 4566, Pitch_bend_c, 4, 8960
6, 4568, Pitch_bend_c, 4, 9216
6, 4569, Pitch_bend_c, 4, 7296
6, 4579, Pitch_bend_c, 4, 7552
6, 4583, Pitch_bend_c, 4, 7808
6, 4584, Pitch_bend_c, 4, 8320
6, 4586, Pitch_bend_c, 4, 8576
6, 4588, Pitch_bend_c, 4, 8832
6, 4589, Pitch_bend_c, 4, 9088
6, 4591, Pitch_bend_c, 4, 9216
6, 4593, Pitch_bend_c, 4, 9344
6, 4596, Pitch_bend_c, 4, 8064
6, 4598, Pitch_bend_c, 4, 7808
6, 4599, Pitch_bend_c, 4, 7552
6, 4601, Pitch_bend_c, 4, 7296
6, 4611, Pitch_bend_c, 4, 7552
6, 4614, Pitch_bend_c, 4, 8320
6, 4616, Pitch_bend_c, 4, 8576
6, 4619, Pitch_bend_c, 4, 8832
6, 4623, Pitch_bend_c, 4, 9088
6, 4624, Pitch_bend_c, 4, 7936
6, 4629, Pitch_bend_c, 4, 8704
6, 4633, Pitch_bend_c, 4, 9216
6, 4634, Pitch_bend_c, 4, 8064
6, 4644, Pitch_bend_c, 4, 9088
6, 4653, Pitch_bend_c, 4, 8064
6, 4654, Pitch_bend_c, 4, 9088
6, 4661, Pitch_bend_c, 4, 8960
6, 4663, Pitch_bend_c, 4, 8576
6, 4664, Pitch_bend_c, 4, 8320
6, 4668, Pitch_bend_c, 4, 8192
6, 4669, Pitch_bend_c, 4, 8320
6, 4743, Note_on_c, 4, 73, 0
6, 4743, Note_on_c, 4, 71, 100
6, 4788, Pitch_bend_c, 4, 7936
6, 4789, Pitch_bend_c, 4, 7424
6, 4791, Pitch_bend_c, 4, 7040
6, 4793, Pitch_bend_c, 4, 5248
6, 4794, Pitch_bend_c, 4, 4480
6, 4796, Pitch_bend_c, 4, 2688
6, 4798, Pitch_bend_c, 4, 896
6, 4799, Pitch_bend_c, 4, 128
6, 4803, Note_on_c, 4, 71, 0
6, 12483, Program_c, 4, 29
6, 12483, Pitch_bend_c, 4, 128
6, 12483, Note_on_c, 4, 73, 100
6, 12484, Pitch_bend_c, 4, 384
6, 12486, Pitch_bend_c, 4, 640
6, 12488, Pitch_bend_c, 4, 1024
6, 12489, Pitch_bend_c, 4, 1280
6, 12491, Pitch_bend_c, 4, 1536
6, 12493, Pitch_bend_c, 4, 1920
6, 12494, Pitch_bend_c, 4, 2176
6, 12496, Pitch_bend_c, 4, 2432
6, 12498, Pitch_bend_c, 4, 2816
6, 12499, Pitch_bend_c, 4, 3072
6, 12501, Pitch_bend_c, 4, 3328
6, 12503, Pitch_bend_c, 4, 3712
6, 12504, Pitch_bend_c, 4, 3968
6, 12506, Pitch_bend_c, 4, 4224
6, 12508, Pitch_bend_c, 4, 4608
6, 12509, Pitch_bend_c, 4, 4864
6, 12511, Pitch_bend_c, 4, 5120
6, 12513, Pitch_bend_c, 4, 5504
6, 12514, Pitch_bend_c, 4, 5760
6, 12516, Pitch_bend_c, 4, 6016
6, 12518, Pitch_bend_c, 4, 6400
6, 12519, Pitch_bend_c, 4, 6656
6, 12521, Pitch_bend_c, 4, 6912
6, 12523, Pitch_bend_c, 4, 7296
6, 12524, Pitch_bend_c, 4, 7552
6, 12526, Pitch_bend_c, 4, 7808
6, 12528, Pitch_bend_c, 4, 8192
6, 12546, Pitch_bend_c, 4, 8192
6, 12548, Pitch_bend_c, 4, 8960
6, 12549, Pitch_bend_c, 4, 9088
6, 12551, Pitch_bend_c, 4, 9600
6, 12553, Pitch_bend_c, 4, 9856
6, 12554, Pitch_bend_c, 4, 9728
6, 12556, Pitch_bend_c, 4, 8960
6, 12558, Pitch_bend_c, 4, 8064
6, 12559, Pitch_bend_c, 4, 7808
6, 12561, Pitch_bend_c, 4, 7552
6, 12566, Pitch_bend_c, 4, 9856
6, 12568, Pitch_bend_c, 4, 9600
6, 12569, Pitch_bend_c, 4, 8576
6, 12571, Pitch_bend_c, 4, 7808
6, 12573, Pitch_bend_c, 4, 7168
6, 12574, Pitch_bend_c, 4, 7040
6, 12578, Pitch_bend_c, 4, 7168
6, 12579, Pitch_bend_c, 4, 7680
6, 12581, Pitch_bend_c, 4, 8960
6, 12583, Pitch_bend_c, 4, 9984
6, 12584, Pitch_bend_c, 4, 10112
6, 12586, Pitch_bend_c, 4, 10240
6, 12588, Pitch_bend_c, 4, 10112
6, 12589, Pitch_bend_c, 4, 9472
6, 12591, Pitch_bend_c, 4, 8192
6, 12593, Pitch_bend_c, 4, 7680
6, 12594, Pitch_bend_c, 4, 7424
6, 12596, Pitch_bend_c, 4, 7168
6, 12601, Pitch_bend_c, 4, 7680
6, 12603, Pitch_bend_c, 4, 8192
6, 12604, Pitch_bend_c, 4, 9728
6, 12606, Pitch_bend_c, 4, 9984
6, 12608, Pitch_bend_c, 4, 10240
6, 12609, Pitch_bend_c, 4, 10368
6, 12611, Pitch_bend_c, 4, 10496
6, 12614, Pitch_bend_c, 4, 7040
6, 12628, Pitch_bend_c, 4, 7808
6, 12629, Pitch_bend_c, 4, 8192
6, 12631, Pitch_bend_c, 4, 8704
6, 12633, Pitch_bend_c, 4, 9216
6, 12636, Pitch_bend_c, 4, 9472
6, 12639, Pitch_bend_c, 4, 7680
6, 12641, Pitch_bend_c, 4, 7552
6, 12643, Pitch_bend_c, 4, 7168
6, 12648, Pitch_bend_c, 4, 7936
6, 12649, Pitch_bend_c, 4, 8192
6, 12651, Pitch_bend_c, 4, 8576
6, 12653, Pitch_bend_c, 4, 9088
6, 12654, Pitch_bend_c, 4, 9216
6, 12656, Pitch_bend_c, 4, 9472
6, 12658, Pitch_bend_c, 4, 9600
6, 12663, Pitch_bend_c, 4, 9344
6, 12664, Pitch_bend_c, 4, 8832
6, 12666, Pitch_bend_c, 4, 8576
6, 12669, Pitch_bend_c, 4, 8448
6, 12671, Pitch_bend_c, 4, 8320
6, 12674, Pitch_bend_c, 4, 8064
6, 12686, Pitch_bend_c, 4, 7936
6, 12691, Pitch_bend_c, 4, 8064
6, 12693, Pitch_bend_c, 4, 8192
6, 12694, Pitch_bend_c, 4, 8192
6, 12696, Pitch_bend_c, 4, 8448
6, 12698, Pitch_bend_c, 4, 8320
6, 12701, Pitch_bend_c, 4, 8064
6, 12703, Pitch_bend_c, 4, 8192
6, 12723, Note_on_c, 4, 73, 0
6, 12723, Note_on_c, 4, 73, 100
6, 12723, Note_on_c, 4, 67, 100
6, 12753, Note_on_c, 4, 67, 0
6, 12753, Note_on_c, 4, 68, 100
6, 12783, Note_on_c, 4, 68, 0
6, 12783, Note_on_c, 4, 73, 0
6, 12783, Note_on_c, 4, 71, 100
6, 12813, Note_on_c, 4, 71, 0
6, 12813, Note_on_c, 4, 68, 100
6, 12843, Note_on_c, 4, 68, 0
6, 12843, Note_on_c, 4, 68, 100
6, 12903, Note_on_c, 4, 68, 0
6, 12903, Note_on_c, 4, 66, 100
6, 12903, Note_on_c, 4, 68, 100
6, 12963, Note_on_c, 4, 68, 0
6, 12963, Note_on_c, 4, 66, 0
6, 12963, Pitch_bend_c, 4, 128
6, 12963, Note_on_c, 4, 68, 100
6, 12964, Pitch_bend_c, 4, 256
6, 12966, Pitch_bend_c, 4, 384
6, 12968, Pitch_bend_c, 4, 640
6, 12969, Pitch_bend_c, 4, 768
6, 12971, Pitch_bend_c, 4, 1024
6, 12973, Pitch_bend_c, 4, 1152
6, 12974, Pitch_bend_c, 4, 1408
6, 12976, Pitch_bend_c, 4, 1536
6, 12978, Pitch_bend_c, 4, 1792
6, 12979, Pitch_bend_c, 4, 1920
6, 12981, Pitch_bend_c, 4, 2176
6, 12983, Pitch_bend_c, 4, 2304
6, 12984, Pitch_bend_c, 4, 2560
6, 12986, Pitch_bend_c, 4, 2688
6, 12988, Pitch_bend_c, 4, 2816
6, 12989, Pitch_bend_c, 4, 3072
6, 12991, Pitch_bend_c, 4, 3200
6, 12993, Pitch_bend_c, 4, 3456
6, 12994, Pitch_bend_c, 4, 3584
6, 12996, Pitch_bend_c, 4, 3840
6, 12998, Pitch_bend_c, 4, 3968
6, 12999, Pitch_bend_c, 4, 4224
6, 13001, Pitch_bend_c, 4, 4352
6, 13003, Pitch_bend_c, 4, 4608
6, 13004, Pitch_bend_c, 4, 4736
6, 13006, Pitch_bend_c, 4, 4992
6, 13008, Pitch_bend_c, 4, 5120
6, 13009, Pitch_bend_c, 4, 5376
6, 13011, Pitch_bend_c, 4, 5504
6, 13013, Pitch_bend_c, 4, 5632
6, 13014, Pitch_bend_c, 4, 5888
6, 13016, Pitch_bend_c, 4, 6016
6, 13018, Pitch_bend_c, 4, 6272
6, 13019, Pitch_bend_c, 4, 6400
6, 13021, Pitch_bend_c, 4, 6656
6, 13023, Pitch_bend_c, 4, 6784
6, 13024, Pitch_bend_c, 4, 7040
6, 13026, Pitch_bend_c, 4, 7168
6, 13028, Pitch_bend_c, 4, 7424
6, 13029, Pitch_bend_c, 4, 7552
6, 13031, Pitch_bend_c, 4, 7808
6, 13033, Pitch_bend_c, 4, 7936
6, 13034, Pitch_bend_c, 4, 8192
6, 13038, Pitch_bend_c, 4, 7936
6, 13039, Pitch_bend_c, 4, 8448
6, 13041, Pitch_bend_c, 4, 8960
6, 13043, Pitch_bend_c, 4, 9216
6, 13044, Pitch_bend_c, 4, 9728
6, 13046, Pitch_bend_c, 4, 6272
6, 13053, Pitch_bend_c, 4, 7040
6, 13054, Pitch_bend_c, 4, 7296
6, 13056, Pitch_bend_c, 4, 7552
6, 13058, Pitch_bend_c, 4, 7680
6, 13059, Pitch_bend_c, 4, 8192
6, 13061, Pitch_bend_c, 4, 8448
6, 13063, Pitch_bend_c, 4, 8704
6, 13064, Pitch_bend_c, 4, 9472
6, 13066, Pitch_bend_c, 4, 10240
6, 13068, Pitch_bend_c, 4, 10752
6, 13069, Pitch_bend_c, 4, 6912
6, 13074, Pitch_bend_c, 4, 7168
6, 13076, Pitch_bend_c, 4, 7424
6, 13079, Pitch_bend_c, 4, 7936
6, 13081, Pitch_bend_c, 4, 8448
6, 13083, Pitch_bend_c, 4, 8960
6, 13084, Pitch_bend_c, 4, 9216
6, 13086, Pitch_bend_c, 4, 9600
6, 13088, Pitch_bend_c, 4, 9728
6, 13089, Pitch_bend_c, 4, 8192
6, 13091, Pitch_bend_c, 4, 7936
6, 13109, Pitch_bend_c, 4, 8192
6, 13119, Pitch_bend_c, 4, 8960
6, 13121, Pitch_bend_c, 4, 9472
6, 13123, Pitch_bend_c, 4, 7808
6, 13128, Pitch_bend_c, 4, 8064
6, 13131, Pitch_bend_c, 4, 8576
6, 13133, Pitch_bend_c, 4, 9088
6, 13134, Pitch_bend_c, 4, 9344
6, 13136, Pitch_bend_c, 4, 9216
6, 13138, Pitch_bend_c, 4, 7040
6, 13141, Pitch_bend_c, 4, 7168
6, 13144, Pitch_bend_c, 4, 7296
6, 13146, Pitch_bend_c, 4, 7552
6, 13148, Pitch_bend_c, 4, 7680
6, 13149, Pitch_bend_c, 4, 7936
6, 13151, Pitch_bend_c, 4, 8192
6, 13153, Pitch_bend_c, 4, 8448
6, 13154, Pitch_bend_c, 4, 8704
6, 13156, Pitch_bend_c, 4, 8960
6, 13158, Pitch_bend_c, 4, 7424
6, 13174, Pitch_bend_c, 4, 7680
6, 13176, Pitch_bend_c, 4, 7936
6, 13178, Pitch_bend_c, 4, 8192
6, 13179, Pitch_bend_c, 4, 8320
6, 13181, Pitch_bend_c, 4, 8576
6, 13184, Pitch_bend_c, 4, 8832
6, 13186, Pitch_bend_c, 4, 9088
6, 13188, Pitch_bend_c, 4, 7552
6, 13189, Pitch_bend_c, 4, 7296
6, 13191, Pitch_bend_c, 4, 7168
6, 13204, Pitch_bend_c, 4, 7424
6, 13208, Pitch_bend_c, 4, 7680
6, 13209, Pitch_bend_c, 4, 7936
6, 13211, Pitch_bend_c, 4, 8192
6, 13213, Pitch_bend_c, 4, 8448
6, 13214, Pitch_bend_c, 4, 8704
6, 13216, Pitch_bend_c, 4, 8832
6, 13219, Pitch_bend_c, 4, 9088
6, 13221, Pitch_bend_c, 4, 9344
6, 13223, Pitch_bend_c, 4, 8064
6, 13224, Pitch_bend_c, 4, 6528
6, 13226, Pitch_bend_c, 4, 5632
6, 13229, Pitch_bend_c, 4, 5760
6, 13233, Pitch_bend_c, 4, 6528
6, 13236, Pitch_bend_c, 4, 7040
6, 13239, Pitch_bend_c, 4, 7296
6, 13241, Pitch_bend_c, 4, 8064
6, 13243, Pitch_bend_c, 4, 8320
6, 13246, Pitch_bend_c, 4, 9088
6, 13249, Pitch_bend_c, 4, 9600
6, 13251, Pitch_bend_c, 4, 9856
6, 13254, Pitch_bend_c, 4, 10112
6, 13256, Pitch_bend_c, 4, 9984
6, 13258, Pitch_bend_c, 4, 9472
6, 13259, Pitch_bend_c, 4, 9088
6, 13261, Pitch_bend_c, 4, 8832
6, 13266, Pitch_bend_c, 4, 9088
6, 13269, Pitch_bend_c, 4, 9344
6, 13271, Pitch_bend_c, 4, 9600
6, 13281, Pitch_bend_c, 4, 9344
6, 13283, Pitch_bend_c, 4, 8832
6, 13284, Pitch_bend_c, 4, 8576
6, 13291, Pitch_bend_c, 4, 8320
6, 13294, Pitch_bend_c, 4, 8192
6, 13353, Note_on_c, 4, 68, 0
6, 13353, Note_on_c, 4, 64, 100
6, 13383, Note_on_c, 4, 64, 0
6, 13383, Note_on_c, 4, 61, 120
6, 13443, Note_on_c, 4, 61, 0
6, 13443, Note_on_c, 4, 64, 100
6, 13503, Note_on_c, 4, 64, 0
6, 13503, Pitch_bend_c, 4, 128
6, 13503, Note_on_c, 4, 68, 100
6, 13504, Pitch_bend_c, 4, 640
6, 13506, Pitch_bend_c, 4, 1152
6, 13508, Pitch_bend_c, 4, 1664
6, 13509, Pitch_bend_c, 4, 2176
6, 13511, Pitch_bend_c, 4, 2816
6, 13513, Pitch_bend_c, 4, 3328
6, 13514, Pitch_bend_c, 4, 3840
6, 13516, Pitch_bend_c, 4, 4352
6, 13518, Pitch_bend_c, 4, 4864
6, 13519, Pitch_bend_c, 4, 5504
6, 13521, Pitch_bend_c, 4, 6016
6, 13523, Pitch_bend_c, 4, 6528
6, 13524, Pitch_bend_c, 4, 7040
6, 13526, Pitch_bend_c, 4, 7552
6, 13528, Pitch_bend_c, 4, 8192
6, 13563, Note_on_c, 4, 68, 0
6, 13563, Note_on_c, 4, 71, 100
6, 13623, Note_on_c, 4, 71, 0
6, 13623, Pitch_bend_c, 4, 128
6, 13623, Note_on_c, 4, 75, 100
6, 13624, Pitch_bend_c, 4, 384
6, 13626, Pitch_bend_c, 4, 768
6, 13628, Pitch_bend_c, 4, 1152
6, 13629, Pitch_bend_c, 4, 1536
6, 13631, Pitch_bend_c, 4, 1920
6, 13633, Pitch_bend_c, 4, 2304
6, 13634, Pitch_bend_c, 4, 2688
6, 13636, Pitch_bend_c, 4, 2944
6, 13638, Pitch_bend_c, 4, 3328
6, 13639, Pitch_bend_c, 4, 3712
6, 13641, Pitch_bend_c, 4, 4096
6, 13643, Pitch_bend_c, 4, 4480
6, 13644, Pitch_bend_c, 4, 4864
6, 13646, Pitch_bend_c, 4, 5248
6, 13648, Pitch_bend_c, 4, 5504
6, 13649, Pitch_bend_c, 4, 5888
6, 13651, Pitch_bend_c, 4, 6272
6, 13653, Pitch_bend_c, 4, 6656
6, 13654, Pitch_bend_c, 4, 7040
6, 13656, Pitch_bend_c, 4, 7424
6, 13658, Pitch_bend_c, 4, 7808
6, 13659, Pitch_bend_c, 4, 8192
6, 13803, Note_on_c, 4, 75, 0
6, 13803, Pitch_bend_c, 4, 16256
6, 13803, Note_on_c, 4, 73, 100
6, 13804, Pitch_bend_c, 4, 15872
6, 13806, Pitch_bend_c, 4, 15360
6, 13808, Pitch_bend_c, 4, 14976
6, 13809, Pitch_bend_c, 4, 14464
6, 13811, Pitch_bend_c, 4, 13952
6, 13813, Pitch_bend_c, 4, 13568
6, 13814, Pitch_bend_c, 4, 13056
6, 13816, Pitch_bend_c, 4, 12544
6, 13818, Pitch_bend_c, 4, 12160
6, 13819, Pitch_bend_c, 4, 11648
6, 13821, Pitch_bend_c, 4, 11136
6, 13823, Pitch_bend_c, 4, 10752
6, 13824, Pitch_bend_c, 4, 10240
6, 13826, Pitch_bend_c, 4, 9728
6, 13828, Pitch_bend_c, 4, 9344
6, 13829, Pitch_bend_c, 4, 8832
6, 13831, Pitch_bend_c, 4, 8320
6, 13863, Note_on_c, 4, 73, 0
6, 13863, Note_on_c, 4, 71, 100
6, 13923, Note_on_c, 4, 71, 0
6, 13923, Note_on_c, 4, 75, 100
6, 13923, Pitch_bend_c, 4, 128
6, 13924, Pitch_bend_c, 4, 256
6, 13926, Pitch_bend_c, 4, 512
6, 13928, Pitch_bend_c, 4, 640
6, 13929, Pitch_bend_c, 4, 896
6, 13931, Pitch_bend_c, 4, 1152
6, 13933, Pitch_bend_c, 4, 1280
6, 13934, Pitch_bend_c, 4, 1536
6, 13936, Pitch_bend_c, 4, 1792
6, 13938, Pitch_bend_c, 4, 1920
6, 13939, Pitch_bend_c, 4, 2176
6, 13941, Pitch_bend_c, 4, 2432
6, 13943, Pitch_bend_c, 4, 2560
6, 13944, Pitch_bend_c, 4, 2816
6, 13946, Pitch_bend_c, 4, 3072
6, 13948, Pitch_bend_c, 4, 3200
6, 13949, Pitch_bend_c, 4, 3456
6, 13951, Pitch_bend_c, 4, 3712
6, 13953, Pitch_bend_c, 4, 3840
6, 13954, Pitch_bend_c, 4, 4096
6, 13956, Pitch_bend_c, 4, 4352
6, 13958, Pitch_bend_c, 4, 4480
6, 13959, Pitch_bend_c, 4, 4736
6, 13961, Pitch_bend_c, 4, 4992
6, 13963, Pitch_bend_c, 4, 5120
6, 13964, Pitch_bend_c, 4, 5376
6, 13966, Pitch_bend_c, 4, 5632
6, 13968, Pitch_bend_c, 4, 5760
6, 13969, Pitch_bend_c, 4, 6016
6, 13971, Pitch_bend_c, 4, 6272
6, 13973, Pitch_bend_c, 4, 6400
6, 13974, Pitch_bend_c, 4, 6656
6, 13976, Pitch_bend_c, 4, 6912
6, 13978, Pitch_bend_c, 4, 7040
6, 13979, Pitch_bend_c, 4, 7296
6, 13981, Pitch_bend_c, 4, 7552
6, 13983, Pitch_bend_c, 4, 7680
6, 13984, Pitch_bend_c, 4, 7936
6, 13986, Pitch_bend_c, 4, 8192
6, 14003, Pitch_bend_c, 4, 8192
6, 14006, Pitch_bend_c, 4, 8448
6, 14009, Pitch_bend_c, 4, 8704
6, 14011, Pitch_bend_c, 4, 8960
6, 14013, Pitch_bend_c, 4, 9088
6, 14014, Pitch_bend_c, 4, 9216
6, 14016, Pitch_bend_c, 4, 8448
6, 14018, Pitch_bend_c, 4, 8192
6, 14028, Pitch_bend_c, 4, 8448
6, 14029, Pitch_bend_c, 4, 8576
6, 14031, Pitch_bend_c, 4, 9088
6, 14033, Pitch_bend_c, 4, 7040
6, 14036, Pitch_bend_c, 4, 7168
6, 14038, Pitch_bend_c, 4, 7424
6, 14039, Pitch_bend_c, 4, 7680
6, 14041, Pitch_bend_c, 4, 8064
6, 14043, Pitch_bend_c, 4, 8576
6, 14044, Pitch_bend_c, 4, 9088
6, 14046, Pitch_bend_c, 4, 9216
6, 14048, Pitch_bend_c, 4, 9344
6, 14049, Pitch_bend_c, 4, 7040
6, 14054, Pitch_bend_c, 4, 7296
6, 14056, Pitch_bend_c, 4, 7552
6, 14058, Pitch_bend_c, 4, 7936
6, 14059, Pitch_bend_c, 4, 8192
6, 14061, Pitch_bend_c, 4, 8704
6, 14063, Pitch_bend_c, 4, 8960
6, 14064, Pitch_bend_c, 4, 9472
6, 14066, Pitch_bend_c, 4, 6272
6, 14076, Pitch_bend_c, 4, 6528
6, 14078, Pitch_bend_c, 4, 6784
6, 14079, Pitch_bend_c, 4, 7040
6, 14081, Pitch_bend_c, 4, 7552
6, 14083, Pitch_bend_c, 4, 8064
6, 14084, Pitch_bend_c, 4, 8576
6, 14086, Pitch_bend_c, 4, 8832
6, 14088, Pitch_bend_c, 4, 9344
6, 14091, Pitch_bend_c, 4, 9472
6, 14094, Pitch_bend_c, 4, 9856
6, 14098, Pitch_bend_c, 4, 7040
6, 14101, Pitch_bend_c, 4, 7296
6, 14103, Pitch_bend_c, 4, 7552
6, 14104, Pitch_bend_c, 4, 7808
6, 14106, Pitch_bend_c, 4, 8064
6, 14108, Pitch_bend_c, 4, 8576
6, 14109, Pitch_bend_c, 4, 8704
6, 14111, Pitch_bend_c, 4, 9088
6, 14113, Pitch_bend_c, 4, 9216
6, 14114, Pitch_bend_c, 4, 9344
6, 14116, Pitch_bend_c, 4, 9600
6, 14119, Pitch_bend_c, 4, 9728
6, 14121, Pitch_bend_c, 4, 9856
6, 14123, Pitch_bend_c, 4, 9600
6, 14124, Pitch_bend_c, 4, 9088
6, 14126, Pitch_bend_c, 4, 8704
6, 14128, Pitch_bend_c, 4, 8448
6, 14129, Pitch_bend_c, 4, 8320
6, 14134, Pitch_bend_c, 4, 8064
6, 14136, Pitch_bend_c, 4, 8192
6, 14163, Note_on_c, 4, 75, 0
6, 14223, Note_on_c, 4, 73, 100
6, 14223, Pitch_bend_c, 4, 16128
6, 14244, Pitch_bend_c, 4, 16000
6, 14246, Pitch_bend_c, 4, 15872
6, 14248, Pitch_bend_c, 4, 15616
6, 14249, Pitch_bend_c, 4, 15488
6, 14251, Pitch_bend_c, 4, 15232
6, 14253, Pitch_bend_c, 4, 15104
6, 14254, Pitch_bend_c, 4, 14848
6, 14256, Pitch_bend_c, 4, 14592
6, 14259, Pitch_bend_c, 4, 14336
6, 14261, Pitch_bend_c, 4, 13824
6, 14263, Pitch_bend_c, 4, 13568
6, 14264, Pitch_bend_c, 4, 13312
6, 14266, Pitch_bend_c, 4, 13056
6, 14268, Pitch_bend_c, 4, 12800
6, 14269, Pitch_bend_c, 4, 12544
6, 14271, Pitch_bend_c, 4, 11264
6, 14273, Pitch_bend_c, 4, 10752
6, 14274, Pitch_bend_c, 4, 9216
6, 14284, Pitch_bend_c, 4, 9088
6, 14301, Pitch_bend_c, 4, 9216
6, 14306, Pitch_bend_c, 4, 9344
6, 14308, Pitch_bend_c, 4, 9472
6, 14311, Pitch_bend_c, 4, 9728
6, 14314, Pitch_bend_c, 4, 9856
6, 14316, Pitch_bend_c, 4, 9984
6, 14319, Pitch_bend_c, 4, 10240
6, 14321, Pitch_bend_c, 4, 10368
6, 14324, Pitch_bend_c, 4, 10496
6, 14328, Pitch_bend_c, 4, 10752
6, 14331, Pitch_bend_c, 4, 11008
6, 14334, Pitch_bend_c, 4, 11264
6, 14338, Pitch_bend_c, 4, 11392
6, 14339, Pitch_bend_c, 4, 11520
6, 14343, Pitch_bend_c, 4, 11648
6, 14344, Pitch_bend_c, 4, 11776
6, 14346, Pitch_bend_c, 4, 11904
6, 14348, Pitch_bend_c, 4, 12032
6, 14351, Pitch_bend_c, 4, 12288
6, 14353, Pitch_bend_c, 4, 12416
6, 14354, Pitch_bend_c, 4, 12544
6, 14358, Pitch_bend_c, 4, 12800
6, 14361, Pitch_bend_c, 4, 13056
6, 14363, Pitch_bend_c, 4, 13184
6, 14364, Pitch_bend_c, 4, 13568
6, 14366, Pitch_bend_c, 4, 13824
6, 14368, Pitch_bend_c, 4, 14080
6, 14369, Pitch_bend_c, 4, 14208
6, 14371, Pitch_bend_c, 4, 14592
6, 14373, Pitch_bend_c, 4, 14720
6, 14374, Pitch_bend_c, 4, 14976
6, 14376, Pitch_bend_c, 4, 15232
6, 14378, Pitch_bend_c, 4, 15488
6, 14379, Pitch_bend_c, 4, 15744
6, 14381, Pitch_bend_c, 4, 16000
6, 14383, Pitch_bend_c, 4, 16128
6, 14384, Pitch_bend_c, 4, 16256
6, 14386, Pitch_bend_c, 4, 16383
6, 14389, Pitch_bend_c, 4, 16000
6, 14394, Pitch_bend_c, 4, 16128
6, 14396, Pitch_bend_c, 4, 16256
6, 14398, Pitch_bend_c, 4, 16383
6, 14403, Note_on_c, 4, 73, 0
6, 14403, Note_on_c, 4, 73, 100
6, 14404, Pitch_bend_c, 4, 4352
6, 14411, Pitch_bend_c, 4, 4480
6, 14414, Pitch_bend_c, 4, 4608
6, 14416, Pitch_bend_c, 4, 4736
6, 14418, Pitch_bend_c, 4, 4864
6, 14421, Pitch_bend_c, 4, 5120
6, 14424, Pitch_bend_c, 4, 5248
6, 14426, Pitch_bend_c, 4, 5376
6, 14428, Pitch_bend_c, 4, 5632
6, 14431, Pitch_bend_c, 4, 5760
6, 14433, Pitch_bend_c, 4, 5888
6, 14434, Pitch_bend_c, 4, 6016
6, 14436, Pitch_bend_c, 4, 6144
6, 14441, Pitch_bend_c, 4, 6400
6, 14444, Pitch_bend_c, 4, 6656
6, 14446, Pitch_bend_c, 4, 6784
6, 14448, Pitch_bend_c, 4, 6912
6, 14451, Pitch_bend_c, 4, 7168
6, 14454, Pitch_bend_c, 4, 7424
6, 14458, Pitch_bend_c, 4, 7680
6, 14461, Pitch_bend_c, 4, 7936
6, 14463, Pitch_bend_c, 4, 8192
6, 14464, Pitch_bend_c, 4, 8448
6, 14468, Pitch_bend_c, 4, 8704
6, 14469, Pitch_bend_c, 4, 8960
6, 14471, Pitch_bend_c, 4, 9216
6, 14473, Pitch_bend_c, 4, 9472
6, 14474, Pitch_bend_c, 4, 9984
6, 14476, Pitch_bend_c, 4, 10240
6, 14478, Pitch_bend_c, 4, 10752
6, 14479, Pitch_bend_c, 4, 11008
6, 14481, Pitch_bend_c, 4, 12032
6, 14483, Pitch_bend_c, 4, 12160
6, 14484, Pitch_bend_c, 4, 12672
6, 14486, Pitch_bend_c, 4, 12928
6, 14488, Pitch_bend_c, 4, 13184
6, 14489, Pitch_bend_c, 4, 13440
6, 14491, Pitch_bend_c, 4, 13696
6, 14493, Pitch_bend_c, 4, 13952
6, 14494, Pitch_bend_c, 4, 14208
6, 14496, Pitch_bend_c, 4, 14464
6, 14498, Pitch_bend_c, 4, 14848
6, 14499, Pitch_bend_c, 4, 14976
6, 14501, Pitch_bend_c, 4, 15232
6, 14503, Pitch_bend_c, 4, 15360
6, 14504, Pitch_bend_c, 4, 15488
6, 14506, Pitch_bend_c, 4, 15744
6, 14509, Pitch_bend_c, 4, 16000
6, 14518, Pitch_bend_c, 4, 15744
6, 14519, Pitch_bend_c, 4, 15488
6, 14521, Pitch_bend_c, 4, 15232
6, 14523, Pitch_bend_c, 4, 14976
6, 14541, Pitch_bend_c, 4, 15232
6, 14543, Pitch_bend_c, 4, 15616
6, 14544, Pitch_bend_c, 4, 15488
6, 14564, Pitch_bend_c, 4, 15744
6, 14574, Pitch_bend_c, 4, 16256
6, 14593, Pitch_bend_c, 4, 14976
6, 14604, Pitch_bend_c, 4, 15232
6, 14606, Pitch_bend_c, 4, 15488
6, 14611, Pitch_bend_c, 4, 15616
6, 14613, Pitch_bend_c, 4, 15744
6, 14614, Pitch_bend_c, 4, 14848
6, 14616, Pitch_bend_c, 4, 14592
6, 14624, Pitch_bend_c, 4, 14848
6, 14626, Pitch_bend_c, 4, 16383
6, 14643, Note_on_c, 4, 73, 0
6, 14643, Pitch_bend_c, 4, 128
6, 14643, Note_on_c, 4, 75, 100
6, 14644, Pitch_bend_c, 4, 384
6, 14646, Pitch_bend_c, 4, 640
6, 14648, Pitch_bend_c, 4, 896
6, 14649, Pitch_bend_c, 4, 1152
6, 14651, Pitch_bend_c, 4, 1408
6, 14653, Pitch_bend_c, 4, 1664
6, 14654, Pitch_bend_c, 4, 1920
6, 14656, Pitch_bend_c, 4, 2176
6, 14658, Pitch_bend_c, 4, 2432
6, 14659, Pitch_bend_c, 4, 2816
6, 14661, Pitch_bend_c, 4, 3072
6, 14663, Pitch_bend_c, 4, 3328
6, 14664, Pitch_bend_c, 4, 3584
6, 14666, Pitch_bend_c, 4, 3840
6, 14668, Pitch_bend_c, 4, 4096
6, 14669, Pitch_bend_c, 4, 4352
6, 14671, Pitch_bend_c, 4, 4608
6, 14673, Pitch_bend_c, 4, 4864
6, 14674, Pitch_bend_c, 4, 5120
6, 14676, Pitch_bend_c, 4, 5504
6, 14678, Pitch_bend_c, 4, 5760
6, 14679, Pitch_bend_c, 4, 6016
6, 14681, Pitch_bend_c, 4, 6272
6, 14683, Pitch_bend_c, 4, 6528
6, 14684, Pitch_bend_c, 4, 6784
6, 14686, Pitch_bend_c, 4, 7040
6, 14688, Pitch_bend_c, 4, 7296
6, 14689, Pitch_bend_c, 4, 7552
6, 14691, Pitch_bend_c, 4, 7808
6, 14693, Pitch_bend_c, 4, 8192
6, 14763, Note_on_c, 4, 75, 0
6, 14763, Note_on_c, 4, 71, 100
6, 14823, Note_on_c, 4, 71, 0
6, 14823, Note_on_c, 4, 75, 100
6, 14883, Note_on_c, 4, 75, 0
6, 14883, Pitch_bend_c, 4, 0
6, 14883, Note_on_c, 4, 73, 100
6, 14884, Pitch_bend_c, 4, 384
6, 14886, Pitch_bend_c, 4, 768
6, 14888, Pitch_bend_c, 4, 1280
6, 14889, Pitch_bend_c, 4, 1664
6, 14891, Pitch_bend_c, 4, 2048
6, 14893, Pitch_bend_c, 4, 2560
6, 14894, Pitch_bend_c, 4, 2944
6, 14896, Pitch_bend_c, 4, 3328
6, 14898, Pitch_bend_c, 4, 3840
6, 14899, Pitch_bend_c, 4, 4224
6, 14901, Pitch_bend_c, 4, 4736
6, 14903, Pitch_bend_c, 4, 5120
6, 14904, Pitch_bend_c, 4, 5504
6, 14906, Pitch_bend_c, 4, 6016
6, 14908, Pitch_bend_c, 4, 6400
6, 14909, Pitch_bend_c, 4, 6784
6, 14911, Pitch_bend_c, 4, 7296
6, 14913, Pitch_bend_c, 4, 7680
6, 14914, Pitch_bend_c, 4, 8192
6, 14943, Note_on_c, 4, 73, 0
6, 14943, Note_on_c, 4, 69, 100
6, 14944, Pitch_bend_c, 4, 16256
6, 14968, Pitch_bend_c, 4, 16128
6, 14969, Pitch_bend_c, 4, 15872
6, 14971, Pitch_bend_c, 4, 15488
6, 14973, Pitch_bend_c, 4, 14848
6, 14974, Pitch_bend_c, 4, 13824
6, 14976, Pitch_bend_c, 4, 12544
6, 14978, Pitch_bend_c, 4, 11776
6, 14979, Pitch_bend_c, 4, 10752
6, 14981, Pitch_bend_c, 4, 10240
6, 14983, Pitch_bend_c, 4, 9472
6, 14984, Pitch_bend_c, 4, 8960
6, 14986, Pitch_bend_c, 4, 8448
6, 14988, Pitch_bend_c, 4, 7808
6, 14989, Pitch_bend_c, 4, 7168
6, 14991, Pitch_bend_c, 4, 6400
6, 14993, Pitch_bend_c, 4, 5632
6, 14994, Pitch_bend_c, 4, 4864
6, 14996, Pitch_bend_c, 4, 2304
6, 14998, Pitch_bend_c, 4, 1280
6, 14999, Pitch_bend_c, 4, 512
6, 15001, Pitch_bend_c, 4, 128
6, 15003, Note_on_c, 4, 69, 0
6, 15003, Note_on_c, 4, 59, 100
6, 15063, Note_on_c, 4, 59, 0
6, 15063, Pitch_bend_c, 4, 256
6, 15063, Note_on_c, 4, 63, 100
6, 15064, Pitch_bend_c, 4, 512
6, 15066, Pitch_bend_c, 4, 768
6, 15068, Pitch_bend_c, 4, 1024
6, 15069, Pitch_bend_c, 4, 1152
6, 15071, Pitch_bend_c, 4, 1408
6, 15073, Pitch_bend_c, 4, 1664
6, 15074, Pitch_bend_c, 4, 2432
6, 15076, Pitch_bend_c, 4, 2688
6, 15078, Pitch_bend_c, 4, 3200
6, 15079, Pitch_bend_c, 4, 3456
6, 15081, Pitch_bend_c, 4, 3968
6, 15083, Pitch_bend_c, 4, 5248
6, 15084, Pitch_bend_c, 4, 5888
6, 15086, Pitch_bend_c, 4, 6656
6, 15088, Pitch_bend_c, 4, 6912
6, 15089, Pitch_bend_c, 4, 7680
6, 15091, Pitch_bend_c, 4, 8192
6, 15123, Note_on_c, 4, 63, 0
6, 15123, Note_on_c, 4, 64, 100
6, 15183, Note_on_c, 4, 64, 0
6, 15183, Pitch_bend_c, 4, 0
6, 15183, Note_on_c, 4, 68, 100
6, 15184, Pitch_bend_c, 4, 256
6, 15186, Pitch_bend_c, 4, 512
6, 15188, Pitch_bend_c, 4, 768
6, 15189, Pitch_bend_c, 4, 1024
6, 15191, Pitch_bend_c, 4, 1280
6, 15193, Pitch_bend_c, 4, 1536
6, 15194, Pitch_bend_c, 4, 1792
6, 15196, Pitch_bend_c, 4, 2176
6, 15198, Pitch_bend_c, 4, 2432
6, 15199, Pitch_bend_c, 4, 2688
6, 15201, Pitch_bend_c, 4, 2944
6, 15203, Pitch_bend_c, 4, 3200
6, 15204, Pitch_bend_c, 4, 3456
6, 15206, Pitch_bend_c, 4, 3712
6, 15208, Pitch_bend_c, 4, 4096
6, 15209, Pitch_bend_c, 4, 4352
6, 15211, Pitch_bend_c, 4, 4608
6, 15213, Pitch_bend_c, 4, 4864
6, 15214, Pitch_bend_c, 4, 5120
6, 15216, Pitch_bend_c, 4, 5376
6, 15218, Pitch_bend_c, 4, 5632
6, 15219, Pitch_bend_c, 4, 5888
6, 15221, Pitch_bend_c, 4, 6272
6, 15223, Pitch_bend_c, 4, 6528
6, 15224, Pitch_bend_c, 4, 6784
6, 15226, Pitch_bend_c, 4, 7040
6, 15228, Pitch_bend_c, 4, 7296
6, 15229, Pitch_bend_c, 4, 7552
6, 15231, Pitch_bend_c, 4, 7808
6, 15233, Pitch_bend_c, 4, 8192
6, 15273, Note_on_c, 4, 68, 0
6, 15276, Note_on_c, 4, 68, 100
6, 15336, Note_on_c, 4, 68, 0
6, 15363, Note_on_c, 4, 73, 120
6, 15418, Pitch_bend_c, 4, 0
6, 15419, Pitch_bend_c, 4, 256
6, 15421, Pitch_bend_c, 4, 640
6, 15423, Note_on_c, 4, 73, 0
6, 15423, Pitch_bend_c, 4, 1024
6, 15423, Note_on_c, 4, 73, 100
6, 15424, Pitch_bend_c, 4, 1280
6, 15426, Pitch_bend_c, 4, 1664
6, 15428, Pitch_bend_c, 4, 2048
6, 15429, Pitch_bend_c, 4, 2304
6, 15431, Pitch_bend_c, 4, 2688
6, 15433, Pitch_bend_c, 4, 3072
6, 15434, Pitch_bend_c, 4, 3328
6, 15436, Pitch_bend_c, 4, 3712
6, 15438, Pitch_bend_c, 4, 4096
6, 15439, Pitch_bend_c, 4, 4352
6, 15441, Pitch_bend_c, 4, 4736
6, 15443, Pitch_bend_c, 4, 5120
6, 15444, Pitch_bend_c, 4, 5376
6, 15446, Pitch_bend_c, 4, 5760
6, 15448, Pitch_bend_c, 4, 6144
6, 15449, Pitch_bend_c, 4, 6400
6, 15451, Pitch_bend_c, 4, 6784
6, 15453, Pitch_bend_c, 4, 7168
6, 15454, Pitch_bend_c, 4, 7424
6, 15456, Pitch_bend_c, 4, 7808
6, 15458, Pitch_bend_c, 4, 8192
6, 15483, Note_on_c, 4, 73, 0
6, 15483, Note_on_c, 4, 73, 100
6, 15513, Note_on_c, 4, 73, 0
6, 15513, Note_on_c, 4, 71, 100
6, 15543, Note_on_c, 4, 71, 0
6, 15543, Note_on_c, 4, 68, 100
6, 15573, Note_on_c, 4, 68, 0
6, 15573, Note_on_c, 4, 68, 100
6, 15573, Pitch_bend_c, 4, 0
6, 15574, Pitch_bend_c, 4, 896
6, 15576, Pitch_bend_c, 4, 1792
6, 15578, Pitch_bend_c, 4, 2688
6, 15579, Pitch_bend_c, 4, 3584
6, 15581, Pitch_bend_c, 4, 4480
6, 15583, Pitch_bend_c, 4, 5376
6, 15584, Pitch_bend_c, 4, 6272
6, 15586, Pitch_bend_c, 4, 7168
6, 15588, Pitch_bend_c, 4, 8192
6, 15603, Note_on_c, 4, 68, 0
6, 15603, Note_on_c, 4, 68, 100
6, 15633, Note_on_c, 4, 68, 0
6, 15633, Note_on_c, 4, 73, 100
6, 15663, Note_on_c, 4, 73, 0
6, 15663, Note_on_c, 4, 71, 100
6, 15693, Note_on_c, 4, 71, 0
6, 15693, Note_on_c, 4, 68, 100
6, 15723, Note_on_c, 4, 68, 0
6, 15723, Note_on_c, 4, 67, 100
6, 15753, Note_on_c, 4, 67, 0
6, 15753, Note_on_c, 4, 66, 100
6, 15783, Note_on_c, 4, 66, 0
6, 15783, Note_on_c, 4, 68, 100
6, 15783, Note_on_c, 4, 64, 100
6, 15813, Note_on_c, 4, 64, 0
6, 15813, Note_on_c, 4, 68, 0
6, 15813, Note_on_c, 4, 61, 100
6, 15843, Note_on_c, 4, 61, 0
6, 15843, Note_on_c, 4, 68, 100
6, 15843, Pitch_bend_c, 4, 0
6, 15844, Pitch_bend_c, 4, 256
6, 15846, Pitch_bend_c, 4, 512
6, 15848, Pitch_bend_c, 4, 896
6, 15849, Pitch_bend_c, 4, 1152
6, 15851, Pitch_bend_c, 4, 1536
6, 15853, Pitch_bend_c, 4, 1792
6, 15854, Pitch_bend_c, 4, 2176
6, 15856, Pitch_bend_c, 4, 2432
6, 15858, Pitch_bend_c, 4, 2816
6, 15859, Pitch_bend_c, 4, 3072
6, 15861, Pitch_bend_c, 4, 3456
6, 15863, Pitch_bend_c, 4, 3712
6, 15864, Pitch_bend_c, 4, 4096
6, 15866, Pitch_bend_c, 4, 4352
6, 15868, Pitch_bend_c, 4, 4608
6, 15869, Pitch_bend_c, 4, 4992
6, 15871, Pitch_bend_c, 4, 5248
6, 15873, Pitch_bend_c, 4, 5632
6, 15874, Pitch_bend_c, 4, 5888
6, 15876, Pitch_bend_c, 4, 6272
6, 15878, Pitch_bend_c, 4, 6528
6, 15879, Pitch_bend_c, 4, 6912
6, 15881, Pitch_bend_c, 4, 7168
6, 15883, Pitch_bend_c, 4, 7552
6, 15884, Pitch_bend_c, 4, 7808
6, 15886, Pitch_bend_c, 4, 8192
6, 15889, Pitch_bend_c, 4, 8192
6, 15891, Pitch_bend_c, 4, 8320
6, 15893, Pitch_bend_c, 4, 8576
6, 15896, Pitch_bend_c, 4, 8960
6, 15898, Pitch_bend_c, 4, 9088
6, 15899, Pitch_bend_c, 4, 9344
6, 15901, Pitch_bend_c, 4, 9472
6, 15903, Note_on_c, 4, 68, 0
6, 15903, Pitch_bend_c, 4, 7168
6, 15903, Note_on_c, 4, 64, 100
6, 15908, Pitch_bend_c, 4, 7296
6, 15909, Pitch_bend_c, 4, 7808
6, 15911, Pitch_bend_c, 4, 9088
6, 15913, Pitch_bend_c, 4, 10112
6, 15914, Pitch_bend_c, 4, 10368
6, 15916, Pitch_bend_c, 4, 9600
6, 15918, Pitch_bend_c, 4, 7680
6, 15919, Pitch_bend_c, 4, 7168
6, 15921, Pitch_bend_c, 4, 6784
6, 15924, Pitch_bend_c, 4, 7040
6, 15926, Pitch_bend_c, 4, 7552
6, 15928, Pitch_bend_c, 4, 8832
6, 15929, Pitch_bend_c, 4, 9344
6, 15931, Pitch_bend_c, 4, 9600
6, 15933, Pitch_bend_c, 4, 9728
6, 15934, Pitch_bend_c, 4, 9856
6, 15936, Pitch_bend_c, 4, 9600
6, 15938, Pitch_bend_c, 4, 7680
6, 15939, Pitch_bend_c, 4, 7424
6, 15944, Pitch_bend_c, 4, 7552
6, 15946, Pitch_bend_c, 4, 9600
6, 15954, Pitch_bend_c, 4, 7552
6, 15963, Pitch_bend_c, 4, 7808
6, 15964, Pitch_bend_c, 4, 8192
6, 15971, Pitch_bend_c, 4, 8320
6, 15973, Pitch_bend_c, 4, 8704
6, 15974, Pitch_bend_c, 4, 10752
6, 15978, Pitch_bend_c, 4, 10880
6, 15979, Pitch_bend_c, 4, 10240
6, 15981, Pitch_bend_c, 4, 9472
6, 15983, Pitch_bend_c, 4, 8960
6, 15984, Pitch_bend_c, 4, 7936
6, 15986, Pitch_bend_c, 4, 6912
6, 15993, Pitch_bend_c, 4, 7424
6, 15994, Pitch_bend_c, 4, 9984
6, 15996, Pitch_bend_c, 4, 10496
6, 15998, Pitch_bend_c, 4, 10752
6, 16001, Pitch_bend_c, 4, 8704
6, 16003, Pitch_bend_c, 4, 7680
6, 16004, Pitch_bend_c, 4, 6912
6, 16009, Pitch_bend_c, 4, 7168
6, 16011, Pitch_bend_c, 4, 7680
6, 16013, Pitch_bend_c, 4, 8448
6, 16014, Pitch_bend_c, 4, 9728
6, 16016, Pitch_bend_c, 4, 9984
6, 16018, Pitch_bend_c, 4, 10496
6, 16021, Pitch_bend_c, 4, 7424
6, 16023, Pitch_bend_c, 4, 7168
6, 16031, Pitch_bend_c, 4, 7680
6, 16033, Pitch_bend_c, 4, 8704
6, 16034, Pitch_bend_c, 4, 9216
6, 16041, Pitch_bend_c, 4, 9344
6, 16043, Pitch_bend_c, 4, 7680
6, 16049, Pitch_bend_c, 4, 8704
6, 16051, Pitch_bend_c, 4, 9216
6, 16056, Pitch_bend_c, 4, 9344
6, 16058, Pitch_bend_c, 4, 9472
6, 16059, Pitch_bend_c, 4, 7680
6, 16061, Pitch_bend_c, 4, 7296
6, 16063, Pitch_bend_c, 4, 7168
6, 16064, Pitch_bend_c, 4, 7040
6, 16066, Pitch_bend_c, 4, 6912
6, 16073, Pitch_bend_c, 4, 7936
6, 16074, Pitch_bend_c, 4, 8192
6, 16173, Note_on_c, 4, 64, 0
6, 16173, Note_on_c, 4, 73, 100
6, 16203, Note_on_c, 4, 73, 0
6, 16203, Note_on_c, 4, 61, 100
6, 16263, Note_on_c, 4, 61, 0
6, 16263, Note_on_c, 4, 61, 80
6, 16293, Note_on_c, 4, 61, 0
6, 16293, Note_on_c, 4, 61, 70
6, 16308, Note_on_c, 4, 61, 0
6, 16308, Note_on_c, 4, 61, 60
6, 16323, Note_on_c, 4, 61, 0
6, 21903, Note_on_c, 4, 64, 100
6, 21903, Note_on_c, 4, 59, 100
6, 21907, Pitch_bend_c, 4, 8192
6, 21913, Pitch_bend_c, 4, 8320
6, 21917, Pitch_bend_c, 4, 8448
6, 21919, Pitch_bend_c, 4, 8576
6, 21920, Pitch_bend_c, 4, 8704
6, 21921, Pitch_bend_c, 4, 8832
6, 21922, Pitch_bend_c, 4, 8960
6, 21923, Pitch_bend_c, 4, 9216
6, 21924, Pitch_bend_c, 4, 9472
6, 21925, Pitch_bend_c, 4, 9728
6, 21926, Pitch_bend_c, 4, 10496
6, 21927, Pitch_bend_c, 4, 12800
6, 21928, Pitch_bend_c, 4, 14208
6, 21929, Pitch_bend_c, 4, 14720
6, 21930, Pitch_bend_c, 4, 14976
6, 21931, Pitch_bend_c, 4, 15104
6, 21932, Pitch_bend_c, 4, 15488
6, 21933, Pitch_bend_c, 4, 15744
6, 21934, Pitch_bend_c, 4, 16000
6, 21936, Pitch_bend_c, 4, 16128
6, 21937, Pitch_bend_c, 4, 16256
6, 21938, Pitch_bend_c, 4, 16383
6, 21945, Pitch_bend_c, 4, 16256
6, 21946, Pitch_bend_c, 4, 15488
6, 21947, Pitch_bend_c, 4, 14976
6, 21948, Pitch_bend_c, 4, 14464
6, 21949, Pitch_bend_c, 4, 13952
6, 21950, Pitch_bend_c, 4, 13440
6, 21951, Pitch_bend_c, 4, 12928
6, 21952, Pitch_bend_c, 4, 12416
6, 21953, Pitch_bend_c, 4, 11904
6, 21954, Pitch_bend_c, 4, 11136
6, 21955, Pitch_bend_c, 4, 10880
6, 21956, Pitch_bend_c, 4, 10368
6, 21957, Pitch_bend_c, 4, 9856
6, 21958, Pitch_bend_c, 4, 9344
6, 21959, Pitch_bend_c, 4, 8832
6, 21960, Pitch_bend_c, 4, 8576
6, 21961, Pitch_bend_c, 4, 8320
6, 21966, Pitch_bend_c, 4, 8192
6, 21967, Pitch_bend_c, 4, 8064
6, 21972, Pitch_bend_c, 4, 8192
6, 22083, Note_on_c, 4, 59, 0
6, 22083, Note_on_c, 4, 64, 0
6, 23703, Note_on_c, 4, 56, 100
6, 23703, Pitch_bend_c, 4, 0
6, 23704, Pitch_bend_c, 4, 128
6, 23705, Pitch_bend_c, 4, 384
6, 23706, Pitch_bend_c, 4, 512
6, 23707, Pitch_bend_c, 4, 768
6, 23708, Pitch_bend_c, 4, 896
6, 23709, Pitch_bend_c, 4, 1152
6, 23710, Pitch_bend_c, 4, 1280
6, 23711, Pitch_bend_c, 4, 1536
6, 23712, Pitch_bend_c, 4, 1664
6, 23713, Pitch_bend_c, 4, 1920
6, 23714, Pitch_bend_c, 4, 2048
6, 23715, Pitch_bend_c, 4, 2304
6, 23716, Pitch_bend_c, 4, 2432
6, 23717, Pitch_bend_c, 4, 2688
6, 23718, Pitch_bend_c, 4, 2816
6, 23719, Pitch_bend_c, 4, 3072
6, 23720, Pitch_bend_c, 4, 3200
6, 23721, Pitch_bend_c, 4, 3456
6, 23722, Pitch_bend_c, 4, 3584
6, 23723, Pitch_bend_c, 4, 3840
6, 23724, Pitch_bend_c, 4, 4096
6, 23725, Pitch_bend_c, 4, 4224
6, 23726, Pitch_bend_c, 4, 4480
6, 23727, Pitch_bend_c, 4, 4608
6, 23728, Pitch_bend_c, 4, 4864
6, 23729, Pitch_bend_c, 4, 4992
6, 23730, Pitch_bend_c, 4, 5248
6, 23731, Pitch_bend_c, 4, 5376
6, 23732, Pitch_bend_c, 4, 5632
6, 23733, Pitch_bend_c, 4, 5760
6, 23734, Pitch_bend_c, 4, 6016
6, 23735, Pitch_bend_c, 4, 6144
6, 23736, Pitch_bend_c, 4, 6400
6, 23737, Pitch_bend_c, 4, 6528
6, 23738, Pitch_bend_c, 4, 6784
6, 23739, Pitch_bend_c, 4, 6912
6, 23740, Pitch_bend_c, 4, 7168
6, 23741, Pitch_bend_c, 4, 7296
6, 23742, Pitch_bend_c, 4, 7552
6, 23743, Pitch_bend_c, 4, 7680
6, 23744, Pitch_bend_c, 4, 7936
6, 23745, Pitch_bend_c, 4, 8192
6, 23763, Note_on_c, 4, 56, 0
6, 23763, Note_on_c, 4, 59, 100
6, 23823, Note_on_c, 4, 59, 0
6, 23823, Note_on_c, 4, 61, 100
6, 23883, Note_on_c, 4, 61, 0
6, 23883, Note_on_c, 4, 59, 100
6, 23943, Note_on_c, 4, 59, 0
6, 23943, Note_on_c, 4, 59, 100
6, 24003, Note_on_c, 4, 59, 0
6, 24003, Pitch_bend_c, 4, 0
6, 24003, Note_on_c, 4, 64, 100
6, 24004, Pitch_bend_c, 4, 512
6, 24005, Pitch_bend_c, 4, 1024
6, 24006, Pitch_bend_c, 4, 1536
6, 24007, Pitch_bend_c, 4, 2048
6, 24008, Pitch_bend_c, 4, 2560
6, 24009, Pitch_bend_c, 4, 3072
6, 24010, Pitch_bend_c, 4, 3584
6, 24011, Pitch_bend_c, 4, 4096
6, 24012, Pitch_bend_c, 4, 4608
6, 24013, Pitch_bend_c, 4, 5120
6, 24014, Pitch_bend_c, 4, 5632
6, 24015, Pitch_bend_c, 4, 6144
6, 24016, Pitch_bend_c, 4, 6656
6, 24017, Pitch_bend_c, 4, 7168
6, 24018, Pitch_bend_c, 4, 7680
6, 24019, Pitch_bend_c, 4, 8192
6, 24033, Note_on_c, 4, 64, 0
6, 24033, Note_on_c, 4, 64, 100
6, 24063, Note_on_c, 4, 64, 0
6, 24063, Note_on_c, 4, 64, 100
6, 24123, Note_on_c, 4, 64, 0
6, 24123, Note_on_c, 4, 64, 100
6, 24213, Note_on_c, 4, 64, 0
6, 24213, Note_on_c, 4, 64, 100
6, 24243, Note_on_c, 4, 64, 0
6, 24243, Note_on_c, 4, 66, 100
6, 24288, Note_on_c, 4, 66, 0
6, 24288, Note_on_c, 4, 66, 100
6, 24303, Note_on_c, 4, 66, 0
6, 24303, Note_on_c, 4, 68, 100
6, 24303, Pitch_bend_c, 4, 0
6, 24304, Pitch_bend_c, 4, 0
6, 24305, Pitch_bend_c, 4, 256
6, 24306, Pitch_bend_c, 4, 512
6, 24307, Pitch_bend_c, 4, 640
6, 24308, Pitch_bend_c, 4, 896
6, 24309, Pitch_bend_c, 4, 1152
6, 24310, Pitch_bend_c, 4, 1408
6, 24311, Pitch_bend_c, 4, 1536
6, 24312, Pitch_bend_c, 4, 1792
6, 24313, Pitch_bend_c, 4, 2048
6, 24314, Pitch_bend_c, 4, 2304
6, 24315, Pitch_bend_c, 4, 2432
6, 24316, Pitch_bend_c, 4, 2688
6, 24317, Pitch_bend_c, 4, 2944
6, 24318, Pitch_bend_c, 4, 3200
6, 24319, Pitch_bend_c, 4, 3328
6, 24320, Pitch_bend_c, 4, 3584
6, 24321, Pitch_bend_c, 4, 3840
6, 24322, Pitch_bend_c, 4, 4096
6, 24323, Pitch_bend_c, 4, 4224
6, 24324, Pitch_bend_c, 4, 4480
6, 24325, Pitch_bend_c, 4, 4736
6, 24326, Pitch_bend_c, 4, 4864
6, 24327, Pitch_bend_c, 4, 5120
6, 24328, Pitch_bend_c, 4, 5376
6, 24329, Pitch_bend_c, 4, 5632
6, 24330, Pitch_bend_c, 4, 5760
6, 24331, Pitch_bend_c, 4, 6016
6, 24332, Pitch_bend_c, 4, 6272
6, 24333, Pitch_bend_c, 4, 6528
6, 24334, Pitch_bend_c, 4, 6656
6, 24335, Pitch_bend_c, 4, 6912
6, 24336, Pitch_bend_c, 4, 7168
6, 24337, Pitch_bend_c, 4, 7424
6, 24338, Pitch_bend_c, 4, 7552
6, 24339, Pitch_bend_c, 4, 7808
6, 24340, Pitch_bend_c, 4, 8064
6, 24341, Pitch_bend_c, 4, 8320
6, 24363, Note_on_c, 4, 68, 0
6, 24363, Note_on_c, 4, 61, 100
6, 24603, Note_on_c, 4, 61, 0
6, 24693, Note_on_c, 4, 73, 100
6, 24693, Pitch_bend_c, 4, 0
6, 24694, Pitch_bend_c, 4, 256
6, 24695, Pitch_bend_c, 4, 512
6, 24696, Pitch_bend_c, 4, 896
6, 24697, Pitch_bend_c, 4, 1152
6, 24698, Pitch_bend_c, 4, 1408
6, 24699, Pitch_bend_c, 4, 1792
6, 24700, Pitch_bend_c, 4, 2048
6, 24701, Pitch_bend_c, 4, 2304
6, 24702, Pitch_bend_c, 4, 2688
6, 24703, Pitch_bend_c, 4, 2944
6, 24704, Pitch_bend_c, 4, 3328
6, 24705, Pitch_bend_c, 4, 3584
6, 24706, Pitch_bend_c, 4, 3840
6, 24707, Pitch_bend_c, 4, 4224
6, 24708, Pitch_bend_c, 4, 4480
6, 24709, Pitch_bend_c, 4, 4736
6, 24710, Pitch_bend_c, 4, 5120
6, 24711, Pitch_bend_c, 4, 5376
6, 24712, Pitch_bend_c, 4, 5760
6, 24713, Pitch_bend_c, 4, 6016
6, 24714, Pitch_bend_c, 4, 6272
6, 24715, Pitch_bend_c, 4, 6656
6, 24716, Pitch_bend_c, 4, 6912
6, 24717, Pitch_bend_c, 4, 7168
6, 24718, Pitch_bend_c, 4, 7552
6, 24719, Pitch_bend_c, 4, 7808
6, 24720, Pitch_bend_c, 4, 8192
6, 24723, Note_on_c, 4, 73, 0
6, 24723, Note_on_c, 4, 73, 100
6, 24753, Note_on_c, 4, 73, 0
6, 24753, Note_on_c, 4, 73, 100
6, 24783, Note_on_c, 4, 73, 0
6, 24783, Note_on_c, 4, 73, 100
6, 24813, Note_on_c, 4, 73, 0
6, 24813, Note_on_c, 4, 73, 100
6, 24843, Note_on_c, 4, 73, 0
6, 24843, Note_on_c, 4, 73, 100
6, 24873, Note_on_c, 4, 73, 0
6, 24873, Note_on_c, 4, 73, 100
6, 24903, Note_on_c, 4, 73, 0
6, 24903, Note_on_c, 4, 73, 100
6, 24963, Note_on_c, 4, 73, 0
6, 24963, Note_on_c, 4, 73, 100
6, 25023, Note_on_c, 4, 73, 0
6, 25023, Note_on_c, 4, 71, 100
6, 25053, Note_on_c, 4, 71, 0
6, 25053, Note_on_c, 4, 68, 100
6, 25083, Note_on_c, 4, 68, 0
6, 25083, Note_on_c, 4, 66, 100
6, 25143, Note_on_c, 4, 66, 0
6, 25143, Note_on_c, 4, 68, 100
6, 25203, Note_on_c, 4, 68, 0
6, 25203, Pitch_bend_c, 4, 128
6, 25203, Note_on_c, 4, 68, 100
6, 25204, Pitch_bend_c, 4, 256
6, 25205, Pitch_bend_c, 4, 512
6, 25206, Pitch_bend_c, 4, 640
6, 25207, Pitch_bend_c, 4, 896
6, 25208, Pitch_bend_c, 4, 1024
6, 25209, Pitch_bend_c, 4, 1280
6, 25210, Pitch_bend_c, 4, 1408
6, 25211, Pitch_bend_c, 4, 1664
6, 25212, Pitch_bend_c, 4, 1792
6, 25213, Pitch_bend_c, 4, 2048
6, 25214, Pitch_bend_c, 4, 2176
6, 25215, Pitch_bend_c, 4, 2432
6, 25216, Pitch_bend_c, 4, 2560
6, 25217, Pitch_bend_c, 4, 2816
6, 25218, Pitch_bend_c, 4, 3072
6, 25219, Pitch_bend_c, 4, 3200
6, 25220, Pitch_bend_c, 4, 3456
6, 25221, Pitch_bend_c, 4, 3584
6, 25222, Pitch_bend_c, 4, 3840
6, 25223, Pitch_bend_c, 4, 3968
6, 25224, Pitch_bend_c, 4, 4224
6, 25225, Pitch_bend_c, 4, 4352
6, 25226, Pitch_bend_c, 4, 4608
6, 25227, Pitch_bend_c, 4, 4736
6, 25228, Pitch_bend_c, 4, 4992
6, 25229, Pitch_bend_c, 4, 5120
6, 25230, Pitch_bend_c, 4, 5376
6, 25231, Pitch_bend_c, 4, 5632
6, 25232, Pitch_bend_c, 4, 5760
6, 25233, Pitch_bend_c, 4, 6016
6, 25234, Pitch_bend_c, 4, 6144
6, 25235, Pitch_bend_c, 4, 6400
6, 25236, Pitch_bend_c, 4, 6528
6, 25237, Pitch_bend_c, 4, 6784
6, 25238, Pitch_bend_c, 4, 6912
6, 25239, Pitch_bend_c, 4, 7168
6, 25240, Pitch_bend_c, 4, 7296
6, 25241, Pitch_bend_c, 4, 7552
6, 25242, Pitch_bend_c, 4, 7680
6, 25243, Pitch_bend_c, 4, 7936
6, 25244, Pitch_bend_c, 4, 8192
6, 25263, Note_on_c, 4, 68, 0
6, 25263, Note_on_c, 4, 68, 100
6, 25264, Pitch_bend_c, 4, 128
6, 25266, Pitch_bend_c, 4, 256
6, 25267, Pitch_bend_c, 4, 384
6, 25268, Pitch_bend_c, 4, 512
6, 25269, Pitch_bend_c, 4, 640
6, 25270, Pitch_bend_c, 4, 768
6, 25272, Pitch_bend_c, 4, 896
6, 25273, Pitch_bend_c, 4, 1024
6, 25274, Pitch_bend_c, 4, 1152
6, 25275, Pitch_bend_c, 4, 1280
6, 25276, Pitch_bend_c, 4, 1408
6, 25278, Pitch_bend_c, 4, 1536
6, 25279, Pitch_bend_c, 4, 1664
6, 25280, Pitch_bend_c, 4, 1792
6, 25281, Pitch_bend_c, 4, 1920
6, 25282, Pitch_bend_c, 4, 2048
6, 25284, Pitch_bend_c, 4, 2176
6, 25285, Pitch_bend_c, 4, 2304
6, 25286, Pitch_bend_c, 4, 2432
6, 25287, Pitch_bend_c, 4, 2560
6, 25288, Pitch_bend_c, 4, 2688
6, 25289, Pitch_bend_c, 4, 2816
6, 25291, Pitch_bend_c, 4, 2944
6, 25292, Pitch_bend_c, 4, 3072
6, 25293, Pitch_bend_c, 4, 3200
6, 25294, Pitch_bend_c, 4, 3328
6, 25295, Pitch_bend_c, 4, 3456
6, 25297, Pitch_bend_c, 4, 3584
6, 25298, Pitch_bend_c, 4, 3712
6, 25299, Pitch_bend_c, 4, 3840
6, 25300, Pitch_bend_c, 4, 3968
6, 25301, Pitch_bend_c, 4, 4096
6, 25303, Pitch_bend_c, 4, 4224
6, 25304, Pitch_bend_c, 4, 4352
6, 25305, Pitch_bend_c, 4, 4480
6, 25306, Pitch_bend_c, 4, 4608
6, 25307, Pitch_bend_c, 4, 4736
6, 25309, Pitch_bend_c, 4, 4864
6, 25310, Pitch_bend_c, 4, 4992
6, 25311, Pitch_bend_c, 4, 5120
6, 25312, Pitch_bend_c, 4, 5248
6, 25313, Pitch_bend_c, 4, 5376
6, 25314, Pitch_bend_c, 4, 5504
6, 25316, Pitch_bend_c, 4, 5632
6, 25317, Pitch_bend_c, 4, 5760
6, 25318, Pitch_bend_c, 4, 5888
6, 25319, Pitch_bend_c, 4, 6016
6, 25320, Pitch_bend_c, 4, 6144
6, 25322, Pitch_bend_c, 4, 6272
6, 25323, Pitch_bend_c, 4, 6400
6, 25324, Pitch_bend_c, 4, 6528
6, 25325, Pitch_bend_c, 4, 6656
6, 25326, Pitch_bend_c, 4, 6784
6, 25328, Pitch_bend_c, 4, 6912
6, 25329, Pitch_bend_c, 4, 7040
6, 25330, Pitch_bend_c, 4, 7168
6, 25331, Pitch_bend_c, 4, 7296
6, 25332, Pitch_bend_c, 4, 7424
6, 25334, Pitch_bend_c, 4, 7552
6, 25335, Pitch_bend_c, 4, 7680
6, 25336, Pitch_bend_c, 4, 7808
6, 25337, Pitch_bend_c, 4, 7936
6, 25338, Pitch_bend_c, 4, 8064
6, 25339, Pitch_bend_c, 4, 8192
6, 25623, Note_on_c, 4, 68, 0
6, 25623, Pitch_bend_c, 4, 0
6, 25623, Note_on_c, 4, 68, 100
6, 25624, Pitch_bend_c, 4, 384
6, 25625, Pitch_bend_c, 4, 768
6, 25626, Pitch_bend_c, 4, 1152
6, 25627, Pitch_bend_c, 4, 1536
6, 25628, Pitch_bend_c, 4, 2048
6, 25629, Pitch_bend_c, 4, 2432
6, 25630, Pitch_bend_c, 4, 2816
6, 25631, Pitch_bend_c, 4, 3200
6, 25632, Pitch_bend_c, 4, 3584
6, 25633, Pitch_bend_c, 4, 4096
6, 25634, Pitch_bend_c, 4, 4480
6, 25635, Pitch_bend_c, 4, 4864
6, 25636, Pitch_bend_c, 4, 5248
6, 25637, Pitch_bend_c, 4, 5632
6, 25638, Pitch_bend_c, 4, 6144
6, 25639, Pitch_bend_c, 4, 6528
6, 25640, Pitch_bend_c, 4, 6912
6, 25641, Pitch_bend_c, 4, 7296
6, 25642, Pitch_bend_c, 4, 7680
6, 25643, Pitch_bend_c, 4, 8192
6, 25684, Pitch_bend_c, 4, 8192
6, 25689, Pitch_bend_c, 4, 8064
6, 25690, Pitch_bend_c, 4, 7936
6, 25691, Pitch_bend_c, 4, 7680
6, 25692, Pitch_bend_c, 4, 7552
6, 25693, Pitch_bend_c, 4, 7296
6, 25694, Pitch_bend_c, 4, 7040
6, 25695, Pitch_bend_c, 4, 6784
6, 25696, Pitch_bend_c, 4, 6656
6, 25697, Pitch_bend_c, 4, 6272
6, 25698, Pitch_bend_c, 4, 6016
6, 25699, Pitch_bend_c, 4, 5632
6, 25700, Pitch_bend_c, 4, 5248
6, 25701, Pitch_bend_c, 4, 4736
6, 25702, Pitch_bend_c, 4, 4480
6, 25703, Pitch_bend_c, 4, 3712
6, 25704, Pitch_bend_c, 4, 3200
6, 25705, Pitch_bend_c, 4, 2432
6, 25706, Pitch_bend_c, 4, 1920
6, 25707, Pitch_bend_c, 4, 768
6, 25708, Pitch_bend_c, 4, 384
6, 25709, Pitch_bend_c, 4, 128
6, 25713, Note_on_c, 4, 68, 0
6, 25713, Note_on_c, 4, 64, 100
6, 25714, Pitch_bend_c, 4, 8192
6, 25743, Note_on_c, 4, 64, 0
6, 25743, Note_on_c, 4, 61, 100
6, 25803, Note_on_c, 4, 61, 0
6, 25803, Pitch_bend_c, 4, 128
6, 25803, Note_on_c, 4, 68, 100
6, 25804, Pitch_bend_c, 4, 256
6, 25805, Pitch_bend_c, 4, 512
6, 25806, Pitch_bend_c, 4, 640
6, 25807, Pitch_bend_c, 4, 896
6, 25808, Pitch_bend_c, 4, 1024
6, 25809, Pitch_bend_c, 4, 1280
6, 25810, Pitch_bend_c, 4, 1536
6, 25811, Pitch_bend_c, 4, 1664
6, 25812, Pitch_bend_c, 4, 1920
6, 25813, Pitch_bend_c, 4, 2048
6, 25814, Pitch_bend_c, 4, 2304
6, 25815, Pitch_bend_c, 4, 2432
6, 25816, Pitch_bend_c, 4, 2688
6, 25817, Pitch_bend_c, 4, 2944
6, 25818, Pitch_bend_c, 4, 3072
6, 25819, Pitch_bend_c, 4, 3328
6, 25820, Pitch_bend_c, 4, 3456
6, 25821, Pitch_bend_c, 4, 3712
6, 25822, Pitch_bend_c, 4, 3840
6, 25823, Pitch_bend_c, 4, 4096
6, 25824, Pitch_bend_c, 4, 4352
6, 25825, Pitch_bend_c, 4, 4480
6, 25826, Pitch_bend_c, 4, 4736
6, 25827, Pitch_bend_c, 4, 4864
6, 25828, Pitch_bend_c, 4, 5120
6, 25829, Pitch_bend_c, 4, 5248
6, 25830, Pitch_bend_c, 4, 5504
6, 25831, Pitch_bend_c, 4, 5760
6, 25832, Pitch_bend_c, 4, 5888
6, 25833, Pitch_bend_c, 4, 6144
6, 25834, Pitch_bend_c, 4, 6272
6, 25835, Pitch_bend_c, 4, 6528
6, 25836, Pitch_bend_c, 4, 6656
6, 25837, Pitch_bend_c, 4, 6912
6, 25838, Pitch_bend_c, 4, 7168
6, 25839, Pitch_bend_c, 4, 7296
6, 25840, Pitch_bend_c, 4, 7552
6, 25841, Pitch_bend_c, 4, 7680
6, 25842, Pitch_bend_c, 4, 7936
6, 25843, Pitch_bend_c, 4, 8192
6, 25863, Note_on_c, 4, 68, 0
6, 25863, Note_on_c, 4, 68, 100
6, 25923, Note_on_c, 4, 68, 0
6, 25923, Note_on_c, 4, 73, 100
6, 25983, Note_on_c, 4, 73, 0
6, 25983, Pitch_bend_c, 4, 0
6, 25983, Note_on_c, 4, 73, 100
6, 25984, Pitch_bend_c, 4, 256
6, 25985, Pitch_bend_c, 4, 640
6, 25986, Pitch_bend_c, 4, 1024
6, 25987, Pitch_bend_c, 4, 1280
6, 25988, Pitch_bend_c, 4, 1664
6, 25989, Pitch_bend_c, 4, 2048
6, 25990, Pitch_bend_c, 4, 2304
6, 25991, Pitch_bend_c, 4, 2688
6, 25992, Pitch_bend_c, 4, 3072
6, 25993, Pitch_bend_c, 4, 3328
6, 25994, Pitch_bend_c, 4, 3712
6, 25995, Pitch_bend_c, 4, 4096
6, 25996, Pitch_bend_c, 4, 4352
6, 25997, Pitch_bend_c, 4, 4736
6, 25998, Pitch_bend_c, 4, 5120
6, 25999, Pitch_bend_c, 4, 5376
6, 26000, Pitch_bend_c, 4, 5760
6, 26001, Pitch_bend_c, 4, 6144
6, 26002, Pitch_bend_c, 4, 6400
6, 26003, Pitch_bend_c, 4, 6784
6, 26004, Pitch_bend_c, 4, 7168
6, 26005, Pitch_bend_c, 4, 7424
6, 26006, Pitch_bend_c, 4, 7808
6, 26007, Pitch_bend_c, 4, 8192
6, 26043, Note_on_c, 4, 73, 0
6, 26043, Note_on_c, 4, 76, 100
6, 26103, Note_on_c, 4, 76, 0
6, 26103, Note_on_c, 4, 78, 100
6, 26163, Note_on_c, 4, 78, 0
6, 26163, Pitch_bend_c, 4, 128
6, 26163, Note_on_c, 4, 80, 100
6, 26164, Pitch_bend_c, 4, 256
6, 26165, Pitch_bend_c, 4, 384
6, 26166, Pitch_bend_c, 4, 512
6, 26167, Pitch_bend_c, 4, 640
6, 26168, Pitch_bend_c, 4, 768
6, 26169, Pitch_bend_c, 4, 896
6, 26170, Pitch_bend_c, 4, 1024
6, 26171, Pitch_bend_c, 4, 1152
6, 26172, Pitch_bend_c, 4, 1280
6, 26173, Pitch_bend_c, 4, 1408
6, 26174, Pitch_bend_c, 4, 1536
6, 26175, Pitch_bend_c, 4, 1792
6, 26176, Pitch_bend_c, 4, 1920
6, 26177, Pitch_bend_c, 4, 2048
6, 26178, Pitch_bend_c, 4, 2176
6, 26179, Pitch_bend_c, 4, 2304
6, 26180, Pitch_bend_c, 4, 2432
6, 26181, Pitch_bend_c, 4, 2560
6, 26182, Pitch_bend_c, 4, 2688
6, 26183, Pitch_bend_c, 4, 2816
6, 26184, Pitch_bend_c, 4, 2944
6, 26185, Pitch_bend_c, 4, 3072
6, 26186, Pitch_bend_c, 4, 3200
6, 26187, Pitch_bend_c, 4, 3456
6, 26188, Pitch_bend_c, 4, 3584
6, 26189, Pitch_bend_c, 4, 3712
6, 26190, Pitch_bend_c, 4, 3840
6, 26191, Pitch_bend_c, 4, 3968
6, 26192, Pitch_bend_c, 4, 4096
6, 26193, Pitch_bend_c, 4, 4224
6, 26194, Pitch_bend_c, 4, 4352
6, 26195, Pitch_bend_c, 4, 4480
6, 26196, Pitch_bend_c, 4, 4608
6, 26197, Pitch_bend_c, 4, 4736
6, 26198, Pitch_bend_c, 4, 4992
6, 26199, Pitch_bend_c, 4, 5120
6, 26200, Pitch_bend_c, 4, 5248
6, 26201, Pitch_bend_c, 4, 5376
6, 26202, Pitch_bend_c, 4, 5504
6, 26203, Pitch_bend_c, 4, 5632
6, 26204, Pitch_bend_c, 4, 5760
6, 26205, Pitch_bend_c, 4, 5888
6, 26206, Pitch_bend_c, 4, 6016
6, 26207, Pitch_bend_c, 4, 6144
6, 26208, Pitch_bend_c, 4, 6272
6, 26209, Pitch_bend_c, 4, 6400
6, 26210, Pitch_bend_c, 4, 6656
6, 26211, Pitch_bend_c, 4, 6784
6, 26212, Pitch_bend_c, 4, 6912
6, 26213, Pitch_bend_c, 4, 7040
6, 26214, Pitch_bend_c, 4, 7168
6, 26215, Pitch_bend_c, 4, 7296
6, 26216, Pitch_bend_c, 4, 7424
6, 26217, Pitch_bend_c, 4, 7552
6, 26218, Pitch_bend_c, 4, 7680
6, 26219, Pitch_bend_c, 4, 7808
6, 26220, Pitch_bend_c, 4, 7936
6, 26221, Pitch_bend_c, 4, 8192
6, 26227, Pitch_bend_c, 4, 8192
6, 26229, Pitch_bend_c, 4, 8320
6, 26231, Pitch_bend_c, 4, 8576
6, 26232, Pitch_bend_c, 4, 8960
6, 26233, Pitch_bend_c, 4, 9216
6, 26236, Pitch_bend_c, 4, 8704
6, 26237, Pitch_bend_c, 4, 8320
6, 26238, Pitch_bend_c, 4, 7808
6, 26239, Pitch_bend_c, 4, 7680
6, 26242, Pitch_bend_c, 4, 7936
6, 26243, Pitch_bend_c, 4, 8192
6, 26244, Pitch_bend_c, 4, 8832
6, 26245, Pitch_bend_c, 4, 9088
6, 26246, Pitch_bend_c, 4, 8960
6, 26247, Pitch_bend_c, 4, 8832
6, 26248, Pitch_bend_c, 4, 8576
6, 26249, Pitch_bend_c, 4, 8320
6, 26250, Pitch_bend_c, 4, 8192
6, 26251, Pitch_bend_c, 4, 8064
6, 26252, Pitch_bend_c, 4, 7936
6, 26253, Pitch_bend_c, 4, 7808
6, 26254, Pitch_bend_c, 4, 7680
6, 26255, Pitch_bend_c, 4, 7552
6, 26256, Pitch_bend_c, 4, 7424
6, 26258, Pitch_bend_c, 4, 7680
6, 26259, Pitch_bend_c, 4, 8192
6, 26260, Pitch_bend_c, 4, 8704
6, 26261, Pitch_bend_c, 4, 8832
6, 26262, Pitch_bend_c, 4, 8960
6, 26264, Pitch_bend_c, 4, 9216
6, 26266, Pitch_bend_c, 4, 9088
6, 26267, Pitch_bend_c, 4, 8576
6, 26268, Pitch_bend_c, 4, 8320
6, 26269, Pitch_bend_c, 4, 8064
6, 26270, Pitch_bend_c, 4, 7808
6, 26271, Pitch_bend_c, 4, 7680
6, 26272, Pitch_bend_c, 4, 7552
6, 26273, Pitch_bend_c, 4, 7296
6, 26278, Pitch_bend_c, 4, 7424
6, 26279, Pitch_bend_c, 4, 7680
6, 26280, Pitch_bend_c, 4, 8192
6, 26281, Pitch_bend_c, 4, 8832
6, 26282, Pitch_bend_c, 4, 8960
6, 26285, Pitch_bend_c, 4, 8832
6, 26286, Pitch_bend_c, 4, 8576
6, 26288, Pitch_bend_c, 4, 8320
6, 26289, Pitch_bend_c, 4, 8064
6, 26290, Pitch_bend_c, 4, 7808
6, 26294, Pitch_bend_c, 4, 7936
6, 26296, Pitch_bend_c, 4, 8192
6, 26297, Pitch_bend_c, 4, 8448
6, 26298, Pitch_bend_c, 4, 8704
6, 26299, Pitch_bend_c, 4, 8960
6, 26302, Pitch_bend_c, 4, 9088
6, 26304, Pitch_bend_c, 4, 8832
6, 26305, Pitch_bend_c, 4, 8576
6, 26306, Pitch_bend_c, 4, 8320
6, 26307, Pitch_bend_c, 4, 8064
6, 26308, Pitch_bend_c, 4, 7808
6, 26313, Pitch_bend_c, 4, 7936
6, 26314, Pitch_bend_c, 4, 8192
6, 26315, Pitch_bend_c, 4, 8448
6, 26316, Pitch_bend_c, 4, 8704
6, 26317, Pitch_bend_c, 4, 8832
6, 26318, Pitch_bend_c, 4, 8960
6, 26320, Pitch_bend_c, 4, 9088
6, 26321, Pitch_bend_c, 4, 8832
6, 26322, Pitch_bend_c, 4, 8576
6, 26323, Pitch_bend_c, 4, 8320
6, 26324, Pitch_bend_c, 4, 7936
6, 26326, Pitch_bend_c, 4, 7808
6, 26327, Pitch_bend_c, 4, 7552
6, 26329, Pitch_bend_c, 4, 7296
6, 26334, Pitch_bend_c, 4, 7680
6, 26335, Pitch_bend_c, 4, 7936
6, 26336, Pitch_bend_c, 4, 8448
6, 26337, Pitch_bend_c, 4, 8576
6, 26338, Pitch_bend_c, 4, 8704
6, 26339, Pitch_bend_c, 4, 8832
6, 26340, Pitch_bend_c, 4, 8960
6, 26344, Pitch_bend_c, 4, 8832
6, 26345, Pitch_bend_c, 4, 8576
6, 26346, Pitch_bend_c, 4, 8320
6, 26347, Pitch_bend_c, 4, 8064
6, 26348, Pitch_bend_c, 4, 7808
6, 26353, Pitch_bend_c, 4, 7936
6, 26354, Pitch_bend_c, 4, 8064
6, 26355, Pitch_bend_c, 4, 8448
6, 26356, Pitch_bend_c, 4, 8576
6, 26357, Pitch_bend_c, 4, 8704
6, 26360, Pitch_bend_c, 4, 8832
6, 26361, Pitch_bend_c, 4, 8960
6, 26369, Pitch_bend_c, 4, 8832
6, 26372, Pitch_bend_c, 4, 8704
6, 26373, Pitch_bend_c, 4, 8576
6, 26376, Pitch_bend_c, 4, 8448
6, 26384, Pitch_bend_c, 4, 8320
6, 26385, Pitch_bend_c, 4, 8064
6, 26388, Pitch_bend_c, 4, 8192
6, 26402, Pitch_bend_c, 4, 128
6, 26403, Note_on_c, 4, 80, 0
6, 26403, Note_on_c, 4, 80, 100
6, 26404, Pitch_bend_c, 4, 384
6, 26405, Pitch_bend_c, 4, 640
6, 26406, Pitch_bend_c, 4, 1152
6, 26407, Pitch_bend_c, 4, 1664
6, 26408, Pitch_bend_c, 4, 2432
6, 26409, Pitch_bend_c, 4, 2944
6, 26410, Pitch_bend_c, 4, 3456
6, 26411, Pitch_bend_c, 4, 3712
6, 26412, Pitch_bend_c, 4, 4480
6, 26413, Pitch_bend_c, 4, 7936
6, 26415, Pitch_bend_c, 4, 8064
6, 26416, Pitch_bend_c, 4, 8192
6, 26433, Note_on_c, 4, 80, 0
6, 26433, Note_on_c, 4, 78, 100
6, 26463, Note_on_c, 4, 78, 0
6, 26463, Note_on_c, 4, 76, 100
6, 26523, Note_on_c, 4, 76, 0
6, 26523, Note_on_c, 4, 78, 100
6, 26583, Note_on_c, 4, 78, 0
6, 26583, Note_on_c, 4, 80, 100
6, 26584, Pitch_bend_c, 4, 128
6, 26585, Pitch_bend_c, 4, 256
6, 26586, Pitch_bend_c, 4, 512
6, 26588, Pitch_bend_c, 4, 768
6, 26589, Pitch_bend_c, 4, 1024
6, 26590, Pitch_bend_c, 4, 1280
6, 26591, Pitch_bend_c, 4, 1536
6, 26592, Pitch_bend_c, 4, 1664
6, 26593, Pitch_bend_c, 4, 1792
6, 26594, Pitch_bend_c, 4, 2048
6, 26595, Pitch_bend_c, 4, 2304
6, 26596, Pitch_bend_c, 4, 2560
6, 26597, Pitch_bend_c, 4, 2816
6, 26598, Pitch_bend_c, 4, 2944
6, 26599, Pitch_bend_c, 4, 3072
6, 26600, Pitch_bend_c, 4, 3584
6, 26601, Pitch_bend_c, 4, 3840
6, 26602, Pitch_bend_c, 4, 4096
6, 26603, Pitch_bend_c, 4, 4608
6, 26604, Pitch_bend_c, 4, 5376
6, 26605, Pitch_bend_c, 4, 6400
6, 26606, Pitch_bend_c, 4, 7168
6, 26607, Pitch_bend_c, 4, 7424
6, 26608, Pitch_bend_c, 4, 7936
6, 26609, Pitch_bend_c, 4, 8192
6, 26643, Note_on_c, 4, 80, 0
6, 26643, Note_on_c, 4, 78, 100
6, 26703, Note_on_c, 4, 78, 0
6, 26703, Note_on_c, 4, 76, 100
6, 26763, Note_on_c, 4, 76, 0
6, 26763, Note_on_c, 4, 73, 100
6, 26853, Note_on_c, 4, 73, 0
6, 26853, Note_on_c, 4, 76, 100
6, 26883, Note_on_c, 4, 76, 0
6, 26883, Pitch_bend_c, 4, 128
6, 26883, Note_on_c, 4, 76, 100
6, 26887, Pitch_bend_c, 4, 256
6, 26889, Pitch_bend_c, 4, 384
6, 26890, Pitch_bend_c, 4, 512
6, 26891, Pitch_bend_c, 4, 768
6, 26893, Pitch_bend_c, 4, 1024
6, 26895, Pitch_bend_c, 4, 1152
6, 26896, Pitch_bend_c, 4, 1280
6, 26898, Pitch_bend_c, 4, 1536
6, 26904, Pitch_bend_c, 4, 1792
6, 26910, Pitch_bend_c, 4, 2048
6, 26912, Pitch_bend_c, 4, 2304
6, 26914, Pitch_bend_c, 4, 2560
6, 26916, Pitch_bend_c, 4, 2816
6, 26918, Pitch_bend_c, 4, 3072
6, 26919, Pitch_bend_c, 4, 3328
6, 26921, Pitch_bend_c, 4, 3584
6, 26922, Pitch_bend_c, 4, 4608
6, 26923, Pitch_bend_c, 4, 5376
6, 26924, Pitch_bend_c, 4, 5632
6, 26925, Pitch_bend_c, 4, 6400
6, 26926, Pitch_bend_c, 4, 6912
6, 26927, Pitch_bend_c, 4, 7168
6, 26928, Pitch_bend_c, 4, 7296
6, 26929, Pitch_bend_c, 4, 7424
6, 26930, Pitch_bend_c, 4, 7552
6, 26931, Pitch_bend_c, 4, 7680
6, 26932, Pitch_bend_c, 4, 7808
6, 26933, Pitch_bend_c, 4, 7936
6, 26936, Pitch_bend_c, 4, 8064
6, 26937, Pitch_bend_c, 4, 8192
6, 27003, Note_on_c, 4, 76, 0
6, 27003, Note_on_c, 4, 75, 100
6, 27004, Pitch_bend_c, 4, 128
6, 27018, Pitch_bend_c, 4, 256
6, 27019, Pitch_bend_c, 4, 384
6, 27020, Pitch_bend_c, 4, 512
6, 27022, Pitch_bend_c, 4, 640
6, 27024, Pitch_bend_c, 4, 768
6, 27026, Pitch_bend_c, 4, 896
6, 27027, Pitch_bend_c, 4, 1152
6, 27030, Pitch_bend_c, 4, 1280
6, 27032, Pitch_bend_c, 4, 1408
6, 27033, Pitch_bend_c, 4, 1664
6, 27034, Pitch_bend_c, 4, 1792
6, 27035, Pitch_bend_c, 4, 1920
6, 27036, Pitch_bend_c, 4, 2048
6, 27037, Pitch_bend_c, 4, 2176
6, 27038, Pitch_bend_c, 4, 2432
6, 27039, Pitch_bend_c, 4, 2688
6, 27040, Pitch_bend_c, 4, 2944
6, 27041, Pitch_bend_c, 4, 3200
6, 27042, Pitch_bend_c, 4, 3712
6, 27043, Pitch_bend_c, 4, 3840
6, 27044, Pitch_bend_c, 4, 4224
6, 27046, Pitch_bend_c, 4, 4480
6, 27047, Pitch_bend_c, 4, 4736
6, 27048, Pitch_bend_c, 4, 4864
6, 27049, Pitch_bend_c, 4, 4992
6, 27050, Pitch_bend_c, 4, 5248
6, 27052, Pitch_bend_c, 4, 5376
6, 27053, Pitch_bend_c, 4, 5504
6, 27054, Pitch_bend_c, 4, 5760
6, 27055, Pitch_bend_c, 4, 5888
6, 27056, Pitch_bend_c, 4, 6016
6, 27057, Pitch_bend_c, 4, 6272
6, 27058, Pitch_bend_c, 4, 6400
6, 27059, Pitch_bend_c, 4, 6528
6, 27060, Pitch_bend_c, 4, 6912
6, 27061, Pitch_bend_c, 4, 7296
6, 27062, Pitch_bend_c, 4, 7552
6, 27063, Pitch_bend_c, 4, 7936
6, 27065, Pitch_bend_c, 4, 8064
6, 27066, Pitch_bend_c, 4, 8192
6, 27123, Note_on_c, 4, 75, 0
6, 27123, Note_on_c, 4, 75, 100
6, 27124, Pitch_bend_c, 4, 256
6, 27138, Pitch_bend_c, 4, 384
6, 27142, Pitch_bend_c, 4, 512
6, 27144, Pitch_bend_c, 4, 640
6, 27146, Pitch_bend_c, 4, 768
6, 27148, Pitch_bend_c, 4, 896
6, 27150, Pitch_bend_c, 4, 1152
6, 27152, Pitch_bend_c, 4, 1280
6, 27154, Pitch_bend_c, 4, 1408
6, 27156, Pitch_bend_c, 4, 1664
6, 27158, Pitch_bend_c, 4, 1920
6, 27160, Pitch_bend_c, 4, 2176
6, 27161, Pitch_bend_c, 4, 2432
6, 27163, Pitch_bend_c, 4, 2688
6, 27164, Pitch_bend_c, 4, 2944
6, 27165, Pitch_bend_c, 4, 3200
6, 27166, Pitch_bend_c, 4, 3456
6, 27167, Pitch_bend_c, 4, 3712
6, 27168, Pitch_bend_c, 4, 3968
6, 27169, Pitch_bend_c, 4, 4096
6, 27171, Pitch_bend_c, 4, 4352
6, 27172, Pitch_bend_c, 4, 4480
6, 27173, Pitch_bend_c, 4, 4736
6, 27175, Pitch_bend_c, 4, 4992
6, 27176, Pitch_bend_c, 4, 5248
6, 27177, Pitch_bend_c, 4, 5376
6, 27178, Pitch_bend_c, 4, 5504
6, 27180, Pitch_bend_c, 4, 5760
6, 27182, Pitch_bend_c, 4, 6016
6, 27183, Pitch_bend_c, 4, 6144
6, 27184, Pitch_bend_c, 4, 6272
6, 27185, Pitch_bend_c, 4, 6528
6, 27186, Pitch_bend_c, 4, 6656
6, 27187, Pitch_bend_c, 4, 6912
6, 27188, Pitch_bend_c, 4, 7040
6, 27189, Pitch_bend_c, 4, 7296
6, 27190, Pitch_bend_c, 4, 7552
6, 27191, Pitch_bend_c, 4, 7808
6, 27192, Pitch_bend_c, 4, 8064
6, 27195, Pitch_bend_c, 4, 8192
6, 27303, Note_on_c, 4, 75, 0
6, 27303, Note_on_c, 4, 73, 100
6, 27303, Pitch_bend_c, 4, 128
6, 27304, Pitch_bend_c, 4, 256
6, 27305, Pitch_bend_c, 4, 512
6, 27306, Pitch_bend_c, 4, 640
6, 27307, Pitch_bend_c, 4, 896
6, 27308, Pitch_bend_c, 4, 1152
6, 27309, Pitch_bend_c, 4, 1280
6, 27310, Pitch_bend_c, 4, 1536
6, 27311, Pitch_bend_c, 4, 1792
6, 27312, Pitch_bend_c, 4, 1920
6, 27313, Pitch_bend_c, 4, 2176
6, 27314, Pitch_bend_c, 4, 2432
6, 27315, Pitch_bend_c, 4, 2560
6, 27316, Pitch_bend_c, 4, 2816
6, 27317, Pitch_bend_c, 4, 3072
6, 27318, Pitch_bend_c, 4, 3200
6, 27319, Pitch_bend_c, 4, 3456
6, 27320, Pitch_bend_c, 4, 3712
6, 27321, Pitch_bend_c, 4, 3840
6, 27322, Pitch_bend_c, 4, 4096
6, 27323, Pitch_bend_c, 4, 4352
6, 27324, Pitch_bend_c, 4, 4480
6, 27325, Pitch_bend_c, 4, 4736
6, 27326, Pitch_bend_c, 4, 4992
6, 27327, Pitch_bend_c, 4, 5120
6, 27328, Pitch_bend_c, 4, 5376
6, 27329, Pitch_bend_c, 4, 5632
6, 27330, Pitch_bend_c, 4, 5760
6, 27331, Pitch_bend_c, 4, 6016
6, 27332, Pitch_bend_c, 4, 6272
6, 27333, Pitch_bend_c, 4, 6400
6, 27334, Pitch_bend_c, 4, 6656
6, 27335, Pitch_bend_c, 4, 6912
6, 27336, Pitch_bend_c, 4, 7040
6, 27337, Pitch_bend_c, 4, 7296
6, 27338, Pitch_bend_c, 4, 7552
6, 27339, Pitch_bend_c, 4, 7680
6, 27340, Pitch_bend_c, 4, 7936
6, 27341, Pitch_bend_c, 4, 8192
6, 27363, Note_on_c, 4, 73, 0
6, 27363, Pitch_bend_c, 4, 128
6, 27363, Note_on_c, 4, 75, 100
6, 27364, Pitch_bend_c, 4, 384
6, 27365, Pitch_bend_c, 4, 768
6, 27366, Pitch_bend_c, 4, 1024
6, 27367, Pitch_bend_c, 4, 1408
6, 27368, Pitch_bend_c, 4, 1664
6, 27369, Pitch_bend_c, 4, 2048
6, 27370, Pitch_bend_c, 4, 2304
6, 27371, Pitch_bend_c, 4, 2688
6, 27372, Pitch_bend_c, 4, 2944
6, 27373, Pitch_bend_c, 4, 3328
6, 27374, Pitch_bend_c, 4, 3584
6, 27375, Pitch_bend_c, 4, 3968
6, 27376, Pitch_bend_c, 4, 4224
6, 27377, Pitch_bend_c, 4, 4608
6, 27378, Pitch_bend_c, 4, 4864
6, 27379, Pitch_bend_c, 4, 5248
6, 27380, Pitch_bend_c, 4, 5504
6, 27381, Pitch_bend_c, 4, 5888
6, 27382, Pitch_bend_c, 4, 6144
6, 27383, Pitch_bend_c, 4, 6528
6, 27384, Pitch_bend_c, 4, 6784
6, 27385, Pitch_bend_c, 4, 7168
6, 27386, Pitch_bend_c, 4, 7424
6, 27387, Pitch_bend_c, 4, 7808
6, 27388, Pitch_bend_c, 4, 8192
6, 27423, Note_on_c, 4, 75, 0
6, 27423, Note_on_c, 4, 73, 100
6, 27483, Note_on_c, 4, 73, 0
6, 27483, Note_on_c, 4, 75, 100
6, 27483, Pitch_bend_c, 4, 0
6, 27484, Pitch_bend_c, 4, 384
6, 27485, Pitch_bend_c, 4, 768
6, 27486, Pitch_bend_c, 4, 1152
6, 27487, Pitch_bend_c, 4, 1536
6, 27488, Pitch_bend_c, 4, 1920
6, 27489, Pitch_bend_c, 4, 2304
6, 27490, Pitch_bend_c, 4, 2688
6, 27491, Pitch_bend_c, 4, 3072
6, 27492, Pitch_bend_c, 4, 3456
6, 27493, Pitch_bend_c, 4, 3840
6, 27494, Pitch_bend_c, 4, 4224
6, 27495, Pitch_bend_c, 4, 4608
6, 27496, Pitch_bend_c, 4, 4992
6, 27497, Pitch_bend_c, 4, 5376
6, 27498, Pitch_bend_c, 4, 5760
6, 27499, Pitch_bend_c, 4, 6144
6, 27500, Pitch_bend_c, 4, 6528
6, 27501, Pitch_bend_c, 4, 6912
6, 27502, Pitch_bend_c, 4, 7296
6, 27503, Pitch_bend_c, 4, 7680
6, 27504, Pitch_bend_c, 4, 8192
6, 27543, Note_on_c, 4, 75, 0
6, 27543, Note_on_c, 4, 73, 100
6, 27602, Pitch_bend_c, 4, 0
6, 27603, Note_on_c, 4, 73, 0
6, 27603, Note_on_c, 4, 68, 100
6, 27603, Pitch_bend_c, 4, 128
6, 27604, Pitch_bend_c, 4, 256
6, 27605, Pitch_bend_c, 4, 384
6, 27606, Pitch_bend_c, 4, 512
6, 27607, Pitch_bend_c, 4, 640
6, 27608, Pitch_bend_c, 4, 768
6, 27609, Pitch_bend_c, 4, 896
6, 27610, Pitch_bend_c, 4, 1024
6, 27611, Pitch_bend_c, 4, 1152
6, 27612, Pitch_bend_c, 4, 1280
6, 27613, Pitch_bend_c, 4, 1408
6, 27614, Pitch_bend_c, 4, 1536
6, 27615, Pitch_bend_c, 4, 1664
6, 27616, Pitch_bend_c, 4, 1792
6, 27617, Pitch_bend_c, 4, 1920
6, 27618, Pitch_bend_c, 4, 2048
6, 27619, Pitch_bend_c, 4, 2176
6, 27620, Pitch_bend_c, 4, 2304
6, 27621, Pitch_bend_c, 4, 2432
6, 27622, Pitch_bend_c, 4, 2560
6, 27623, Pitch_bend_c, 4, 2688
6, 27624, Pitch_bend_c, 4, 2816
6, 27625, Pitch_bend_c, 4, 2944
6, 27626, Pitch_bend_c, 4, 3072
6, 27627, Pitch_bend_c, 4, 3200
6, 27628, Pitch_bend_c, 4, 3328
6, 27629, Pitch_bend_c, 4, 3456
6, 27630, Pitch_bend_c, 4, 3584
6, 27631, Pitch_bend_c, 4, 3712
6, 27632, Pitch_bend_c, 4, 3840
6, 27633, Pitch_bend_c, 4, 4096
6, 27634, Pitch_bend_c, 4, 4224
6, 27635, Pitch_bend_c, 4, 4352
6, 27636, Pitch_bend_c, 4, 4480
6, 27637, Pitch_bend_c, 4, 4608
6, 27638, Pitch_bend_c, 4, 4736
6, 27639, Pitch_bend_c, 4, 4864
6, 27640, Pitch_bend_c, 4, 4992
6, 27641, Pitch_bend_c, 4, 5120
6, 27642, Pitch_bend_c, 4, 5248
6, 27643, Pitch_bend_c, 4, 5376
6, 27644, Pitch_bend_c, 4, 5504
6, 27645, Pitch_bend_c, 4, 5632
6, 27646, Pitch_bend_c, 4, 5760
6, 27647, Pitch_bend_c, 4, 5888
6, 27648, Pitch_bend_c, 4, 6016
6, 27649, Pitch_bend_c, 4, 6144
6, 27650, Pitch_bend_c, 4, 6272
6, 27651, Pitch_bend_c, 4, 6400
6, 27652, Pitch_bend_c, 4, 6528
6, 27653, Pitch_bend_c, 4, 6656
6, 27654, Pitch_bend_c, 4, 6784
6, 27655, Pitch_bend_c, 4, 6912
6, 27656, Pitch_bend_c, 4, 7040
6, 27657, Pitch_bend_c, 4, 7168
6, 27658, Pitch_bend_c, 4, 7296
6, 27659, Pitch_bend_c, 4, 7424
6, 27660, Pitch_bend_c, 4, 7552
6, 27661, Pitch_bend_c, 4, 7680
6, 27662, Pitch_bend_c, 4, 7808
6, 27663, Pitch_bend_c, 4, 7936
6, 27664, Pitch_bend_c, 4, 8192
6, 27695, Pitch_bend_c, 4, 8064
6, 27696, Pitch_bend_c, 4, 7808
6, 27697, Pitch_bend_c, 4, 7680
6, 27698, Pitch_bend_c, 4, 7424
6, 27699, Pitch_bend_c, 4, 7040
6, 27700, Pitch_bend_c, 4, 6784
6, 27701, Pitch_bend_c, 4, 6528
6, 27702, Pitch_bend_c, 4, 6016
6, 27703, Pitch_bend_c, 4, 5760
6, 27704, Pitch_bend_c, 4, 5504
6, 27705, Pitch_bend_c, 4, 5248
6, 27706, Pitch_bend_c, 4, 4736
6, 27707, Pitch_bend_c, 4, 4608
6, 27708, Pitch_bend_c, 4, 4224
6, 27709, Pitch_bend_c, 4, 3968
6, 27710, Pitch_bend_c, 4, 3712
6, 27711, Pitch_bend_c, 4, 3456
6, 27712, Pitch_bend_c, 4, 3200
6, 27713, Pitch_bend_c, 4, 3072
6, 27714, Pitch_bend_c, 4, 2688
6, 27715, Pitch_bend_c, 4, 2432
6, 27716, Pitch_bend_c, 4, 2176
6, 27717, Pitch_bend_c, 4, 1920
6, 27718, Pitch_bend_c, 4, 1664
6, 27719, Pitch_bend_c, 4, 1408
6, 27720, Pitch_bend_c, 4, 1152
6, 27721, Pitch_bend_c, 4, 896
6, 27722, Pitch_bend_c, 4, 640
6, 27723, Pitch_bend_c, 4, 8192
6, 27724, Pitch_bend_c, 4, 128
6, 27753, Note_on_c, 4, 68, 0
6, 27753, Note_on_c, 4, 56, 127
6, 27783, Note_on_c, 4, 56, 0
6, 27843, Program_c, 4, 31
6, 28083, Note_on_c, 4, 50, 100
6, 28083, Pitch_bend_c, 4, 16383
6, 28083, Note_on_c, 4, 55, 100
6, 28083, Note_on_c, 4, 59, 100
6, 28127, Pitch_bend_c, 4, 16256
6, 28133, Pitch_bend_c, 4, 16128
6, 28139, Pitch_bend_c, 4, 16000
6, 28145, Pitch_bend_c, 4, 15872
6, 28152, Pitch_bend_c, 4, 15744
6, 28154, Pitch_bend_c, 4, 15616
6, 28156, Pitch_bend_c, 4, 15488
6, 28158, Pitch_bend_c, 4, 15360
6, 28160, Pitch_bend_c, 4, 15232
6, 28161, Pitch_bend_c, 4, 15104
6, 28167, Pitch_bend_c, 4, 14848
6, 28168, Pitch_bend_c, 4, 14720
6, 28170, Pitch_bend_c, 4, 14464
6, 28172, Pitch_bend_c, 4, 14336
6, 28173, Pitch_bend_c, 4, 14080
6, 28174, Pitch_bend_c, 4, 13952
6, 28175, Pitch_bend_c, 4, 13696
6, 28177, Pitch_bend_c, 4, 13568
6, 28178, Pitch_bend_c, 4, 13312
6, 28180, Pitch_bend_c, 4, 13056
6, 28181, Pitch_bend_c, 4, 12288
6, 28183, Pitch_bend_c, 4, 12160
6, 28184, Pitch_bend_c, 4, 11904
6, 28185, Pitch_bend_c, 4, 11648
6, 28187, Pitch_bend_c, 4, 11392
6, 28188, Pitch_bend_c, 4, 11136
6, 28190, Pitch_bend_c, 4, 10368
6, 28192, Pitch_bend_c, 4, 9600
6, 28193, Pitch_bend_c, 4, 9344
6, 28195, Pitch_bend_c, 4, 9216
6, 28196, Pitch_bend_c, 4, 9088
6, 28197, Pitch_bend_c, 4, 8832
6, 28198, Pitch_bend_c, 4, 8576
6, 28204, Pitch_bend_c, 4, 7552
6, 28206, Pitch_bend_c, 4, 7296
6, 28208, Pitch_bend_c, 4, 6784
6, 28210, Pitch_bend_c, 4, 6528
6, 28212, Pitch_bend_c, 4, 6272
6, 28214, Pitch_bend_c, 4, 6016
6, 28215, Pitch_bend_c, 4, 5760
6, 28216, Pitch_bend_c, 4, 5504
6, 28218, Pitch_bend_c, 4, 5376
6, 28219, Pitch_bend_c, 4, 5248
6, 28220, Pitch_bend_c, 4, 4992
6, 28222, Pitch_bend_c, 4, 4736
6, 28224, Pitch_bend_c, 4, 4480
6, 28226, Pitch_bend_c, 4, 4224
6, 28227, Pitch_bend_c, 4, 3968
6, 28228, Pitch_bend_c, 4, 3712
6, 28229, Pitch_bend_c, 4, 3584
6, 28230, Pitch_bend_c, 4, 3456
6, 28231, Pitch_bend_c, 4, 3200
6, 28232, Pitch_bend_c, 4, 3072
6, 28233, Pitch_bend_c, 4, 2944
6, 28234, Pitch_bend_c, 4, 2816
6, 28235, Pitch_bend_c, 4, 2688
6, 28236, Pitch_bend_c, 4, 2560
6, 28237, Pitch_bend_c, 4, 2432
6, 28238, Pitch_bend_c, 4, 2304
6, 28240, Pitch_bend_c, 4, 2176
6, 28241, Pitch_bend_c, 4, 2048
6, 28242, Pitch_bend_c, 4, 1920
6, 28243, Pitch_bend_c, 4, 1664
6, 28244, Pitch_bend_c, 4, 1536
6, 28245, Pitch_bend_c, 4, 1408
6, 28247, Pitch_bend_c, 4, 1152
6, 28254, Pitch_bend_c, 4, 1024
6, 28255, Pitch_bend_c, 4, 896
6, 28257, Pitch_bend_c, 4, 512
6, 28258, Pitch_bend_c, 4, 384
6, 28259, Pitch_bend_c, 4, 128
6, 28263, Note_on_c, 4, 59, 0
6, 28263, Note_on_c, 4, 55, 0
6, 28263, Note_on_c, 4, 50, 0
6, 28263, Note_on_c, 4, 49, 100
6, 28263, Note_on_c, 4, 45, 100
6, 28263, Pitch_bend_c, 4, 4224
6, 28263, Note_on_c, 4, 40, 100
6, 28264, Pitch_bend_c, 4, 4352
6, 28266, Pitch_bend_c, 4, 4480
6, 28267, Pitch_bend_c, 4, 4608
6, 28270, Pitch_bend_c, 4, 4864
6, 28273, Pitch_bend_c, 4, 4992
6, 28275, Pitch_bend_c, 4, 5120
6, 28277, Pitch_bend_c, 4, 5376
6, 28279, Pitch_bend_c, 4, 5504
6, 28280, Pitch_bend_c, 4, 5632
6, 28281, Pitch_bend_c, 4, 5888
6, 28283, Pitch_bend_c, 4, 6144
6, 28285, Pitch_bend_c, 4, 6400
6, 28287, Pitch_bend_c, 4, 6656
6, 28288, Pitch_bend_c, 4, 6912
6, 28289, Pitch_bend_c, 4, 7168
6, 28291, Pitch_bend_c, 4, 7424
6, 28292, Pitch_bend_c, 4, 7680
6, 28293, Pitch_bend_c, 4, 7808
6, 28294, Pitch_bend_c, 4, 7936
6, 28297, Pitch_bend_c, 4, 8064
6, 28298, Pitch_bend_c, 4, 8192
6, 28623, Note_on_c, 4, 40, 0
6, 28623, Note_on_c, 4, 45, 0
6, 28623, Note_on_c, 4, 49, 0
6, 28683, Note_on_c, 4, 44, 100
6, 28685, Pitch_bend_c, 4, 128
6, 28686, Pitch_bend_c, 4, 256
6, 28688, Pitch_bend_c, 4, 384
6, 28690, Pitch_bend_c, 4, 512
6, 28696, Pitch_bend_c, 4, 768
6, 28702, Pitch_bend_c, 4, 896
6, 28704, Pitch_bend_c, 4, 1024
6, 28706, Pitch_bend_c, 4, 1280
6, 28710, Pitch_bend_c, 4, 1408
6, 28712, Pitch_bend_c, 4, 1536
6, 28713, Pitch_bend_c, 4, 1792
6, 28714, Pitch_bend_c, 4, 1920
6, 28716, Pitch_bend_c, 4, 2048
6, 28718, Pitch_bend_c, 4, 2304
6, 28720, Pitch_bend_c, 4, 2432
6, 28721, Pitch_bend_c, 4, 2560
6, 28722, Pitch_bend_c, 4, 2816
6, 28724, Pitch_bend_c, 4, 2944
6, 28725, Pitch_bend_c, 4, 3072
6, 28726, Pitch_bend_c, 4, 3200
6, 28728, Pitch_bend_c, 4, 3328
6, 28730, Pitch_bend_c, 4, 3584
6, 28732, Pitch_bend_c, 4, 3840
6, 28735, Pitch_bend_c, 4, 4096
6, 28737, Pitch_bend_c, 4, 4352
6, 28740, Pitch_bend_c, 4, 4608
6, 28741, Pitch_bend_c, 4, 4736
6, 28742, Pitch_bend_c, 4, 4864
6, 28745, Pitch_bend_c, 4, 4992
6, 28746, Pitch_bend_c, 4, 5120
6, 28748, Pitch_bend_c, 4, 5248
6, 28749, Pitch_bend_c, 4, 5376
6, 28753, Pitch_bend_c, 4, 5632
6, 28756, Pitch_bend_c, 4, 5760
6, 28758, Pitch_bend_c, 4, 5888
6, 28761, Pitch_bend_c, 4, 6016
6, 28763, Pitch_bend_c, 4, 6144
6, 28767, Pitch_bend_c, 4, 6400
6, 28770, Pitch_bend_c, 4, 6528
6, 28771, Pitch_bend_c, 4, 6656
6, 28772, Pitch_bend_c, 4, 6784
6, 28774, Pitch_bend_c, 4, 6912
6, 28776, Pitch_bend_c, 4, 7040
6, 28777, Pitch_bend_c, 4, 7168
6, 28779, Pitch_bend_c, 4, 7296
6, 28780, Pitch_bend_c, 4, 7424
6, 28782, Pitch_bend_c, 4, 7680
6, 28784, Pitch_bend_c, 4, 7808
6, 28785, Pitch_bend_c, 4, 7936
6, 28786, Pitch_bend_c, 4, 8064
6, 28787, Pitch_bend_c, 4, 8192
6, 28789, Pitch_bend_c, 4, 8448
6, 28790, Pitch_bend_c, 4, 8704
6, 28791, Pitch_bend_c, 4, 8960
6, 28792, Pitch_bend_c, 4, 9216
6, 28793, Pitch_bend_c, 4, 9728
6, 28794, Pitch_bend_c, 4, 9984
6, 28795, Pitch_bend_c, 4, 10240
6, 28796, Pitch_bend_c, 4, 11264
6, 28797, Pitch_bend_c, 4, 11648
6, 28798, Pitch_bend_c, 4, 12160
6, 28799, Pitch_bend_c, 4, 12288
6, 28800, Pitch_bend_c, 4, 12672
6, 28801, Pitch_bend_c, 4, 13184
6, 28802, Pitch_bend_c, 4, 13696
6, 28803, Note_on_c, 4, 44, 0
6, 28803, Pitch_bend_c, 4, 256
6, 28803, Note_on_c, 4, 47, 100
6, 28805, Pitch_bend_c, 4, 512
6, 28807, Pitch_bend_c, 4, 640
6, 28808, Pitch_bend_c, 4, 768
6, 28810, Pitch_bend_c, 4, 1024
6, 28812, Pitch_bend_c, 4, 1152
6, 28813, Pitch_bend_c, 4, 1280
6, 28815, Pitch_bend_c, 4, 1536
6, 28817, Pitch_bend_c, 4, 1792
6, 28819, Pitch_bend_c, 4, 2048
6, 28821, Pitch_bend_c, 4, 2304
6, 28823, Pitch_bend_c, 4, 2560
6, 28825, Pitch_bend_c, 4, 2816
6, 28826, Pitch_bend_c, 4, 3072
6, 28828, Pitch_bend_c, 4, 3328
6, 28834, Pitch_bend_c, 4, 4096
6, 28836, Pitch_bend_c, 4, 4864
6, 28842, Pitch_bend_c, 4, 5632
6, 28844, Pitch_bend_c, 4, 6400
6, 28845, Pitch_bend_c, 4, 7168
6, 28847, Pitch_bend_c, 4, 7296
6, 28848, Pitch_bend_c, 4, 8064
6, 28849, Pitch_bend_c, 4, 8320
6, 28850, Pitch_bend_c, 4, 8576
6, 28851, Pitch_bend_c, 4, 9088
6, 28853, Pitch_bend_c, 4, 9856
6, 28854, Pitch_bend_c, 4, 10880
6, 28855, Pitch_bend_c, 4, 11648
6, 28857, Pitch_bend_c, 4, 12416
6, 28858, Pitch_bend_c, 4, 12672
6, 28859, Pitch_bend_c, 4, 13184
6, 28860, Pitch_bend_c, 4, 13440
6, 28861, Pitch_bend_c, 4, 13696
6, 28862, Pitch_bend_c, 4, 13952
6, 28863, Pitch_bend_c, 4, 14080
6, 28864, Pitch_bend_c, 4, 14208
6, 28865, Pitch_bend_c, 4, 14464
6, 28866, Pitch_bend_c, 4, 14720
6, 28867, Pitch_bend_c, 4, 14976
6, 28868, Pitch_bend_c, 4, 15104
6, 28869, Pitch_bend_c, 4, 15232
6, 28870, Pitch_bend_c, 4, 15488
6, 28872, Pitch_bend_c, 4, 15616
6, 28873, Pitch_bend_c, 4, 15872
6, 28875, Pitch_bend_c, 4, 16000
6, 28876, Pitch_bend_c, 4, 16256
6, 28878, Pitch_bend_c, 4, 16383
6, 29118, Pitch_bend_c, 4, 16256
6, 29133, Pitch_bend_c, 4, 16128
6, 29154, Pitch_bend_c, 4, 16256
6, 29156, Pitch_bend_c, 4, 16383
6, 29161, Pitch_bend_c, 4, 256
6, 29163, Note_on_c, 4, 47, 0
6, 29163, Note_on_c, 4, 51, 100
6, 29163, Pitch_bend_c, 4, 256
6, 29167, Pitch_bend_c, 4, 384
6, 29169, Pitch_bend_c, 4, 512
6, 29172, Pitch_bend_c, 4, 640
6, 29173, Pitch_bend_c, 4, 768
6, 29175, Pitch_bend_c, 4, 896
6, 29176, Pitch_bend_c, 4, 1024
6, 29180, Pitch_bend_c, 4, 1280
6, 29188, Pitch_bend_c, 4, 1536
6, 29190, Pitch_bend_c, 4, 1792
6, 29193, Pitch_bend_c, 4, 1920
6, 29194, Pitch_bend_c, 4, 2048
6, 29195, Pitch_bend_c, 4, 2176
6, 29197, Pitch_bend_c, 4, 2304
6, 29198, Pitch_bend_c, 4, 2560
6, 29199, Pitch_bend_c, 4, 2816
6, 29201, Pitch_bend_c, 4, 3072
6, 29202, Pitch_bend_c, 4, 3328
6, 29204, Pitch_bend_c, 4, 3584
6, 29206, Pitch_bend_c, 4, 3840
6, 29207, Pitch_bend_c, 4, 4096
6, 29209, Pitch_bend_c, 4, 4352
6, 29211, Pitch_bend_c, 4, 4480
6, 29213, Pitch_bend_c, 4, 4736
6, 29215, Pitch_bend_c, 4, 4864
6, 29216, Pitch_bend_c, 4, 5120
6, 29219, Pitch_bend_c, 4, 5248
6, 29220, Pitch_bend_c, 4, 5376
6, 29221, Pitch_bend_c, 4, 5632
6, 29223, Pitch_bend_c, 4, 5760
6, 29224, Pitch_bend_c, 4, 5888
6, 29225, Pitch_bend_c, 4, 6144
6, 29227, Pitch_bend_c, 4, 6400
6, 29228, Pitch_bend_c, 4, 6528
6, 29229, Pitch_bend_c, 4, 6656
6, 29231, Pitch_bend_c, 4, 6912
6, 29233, Pitch_bend_c, 4, 7168
6, 29235, Pitch_bend_c, 4, 7424
6, 29237, Pitch_bend_c, 4, 7552
6, 29238, Pitch_bend_c, 4, 7680
6, 29239, Pitch_bend_c, 4, 7808
6, 29240, Pitch_bend_c, 4, 7936
6, 29242, Pitch_bend_c, 4, 8192
6, 29244, Pitch_bend_c, 4, 8320
6, 29245, Pitch_bend_c, 4, 8448
6, 29246, Pitch_bend_c, 4, 8576
6, 29247, Pitch_bend_c, 4, 8704
6, 29249, Pitch_bend_c, 4, 8960
6, 29251, Pitch_bend_c, 4, 9088
6, 29252, Pitch_bend_c, 4, 9216
6, 29253, Pitch_bend_c, 4, 9344
6, 29255, Pitch_bend_c, 4, 9472
6, 29257, Pitch_bend_c, 4, 9728
6, 29259, Pitch_bend_c, 4, 9856
6, 29260, Pitch_bend_c, 4, 9984
6, 29261, Pitch_bend_c, 4, 10112
6, 29262, Pitch_bend_c, 4, 10240
6, 29265, Pitch_bend_c, 4, 10368
6, 29267, Pitch_bend_c, 4, 10496
6, 29269, Pitch_bend_c, 4, 10624
6, 29271, Pitch_bend_c, 4, 10752
6, 29274, Pitch_bend_c, 4, 10880
6, 29275, Pitch_bend_c, 4, 11008
6, 29279, Pitch_bend_c, 4, 11136
6, 29280, Pitch_bend_c, 4, 11264
6, 29283, Pitch_bend_c, 4, 11392
6, 29285, Pitch_bend_c, 4, 11520
6, 29287, Pitch_bend_c, 4, 11648
6, 29288, Pitch_bend_c, 4, 11776
6, 29291, Pitch_bend_c, 4, 12032
6, 29294, Pitch_bend_c, 4, 12160
6, 29296, Pitch_bend_c, 4, 12288
6, 29300, Pitch_bend_c, 4, 12416
6, 29301, Pitch_bend_c, 4, 12544
6, 29333, Pitch_bend_c, 4, 12416
6, 29336, Pitch_bend_c, 4, 12288
6, 29363, Pitch_bend_c, 4, 12416
6, 29365, Pitch_bend_c, 4, 12544
6, 29643, Note_on_c, 4, 51, 0
6, 29643, Note_on_c, 4, 54, 100
6, 29644, Pitch_bend_c, 4, 0
6, 29646, Pitch_bend_c, 4, 128
6, 29647, Pitch_bend_c, 4, 256
6, 29648, Pitch_bend_c, 4, 384
6, 29649, Pitch_bend_c, 4, 512
6, 29650, Pitch_bend_c, 4, 640
6, 29651, Pitch_bend_c, 4, 768
6, 29652, Pitch_bend_c, 4, 896
6, 29653, Pitch_bend_c, 4, 1024
6, 29655, Pitch_bend_c, 4, 1152
6, 29656, Pitch_bend_c, 4, 1280
6, 29657, Pitch_bend_c, 4, 1408
6, 29658, Pitch_bend_c, 4, 1536
6, 29659, Pitch_bend_c, 4, 1664
6, 29660, Pitch_bend_c, 4, 1792
6, 29661, Pitch_bend_c, 4, 1920
6, 29662, Pitch_bend_c, 4, 2048
6, 29664, Pitch_bend_c, 4, 2176
6, 29665, Pitch_bend_c, 4, 2304
6, 29666, Pitch_bend_c, 4, 2432
6, 29667, Pitch_bend_c, 4, 2560
6, 29668, Pitch_bend_c, 4, 2688
6, 29669, Pitch_bend_c, 4, 2816
6, 29670, Pitch_bend_c, 4, 2944
6, 29671, Pitch_bend_c, 4, 3072
6, 29673, Pitch_bend_c, 4, 3200
6, 29674, Pitch_bend_c, 4, 3328
6, 29675, Pitch_bend_c, 4, 3456
6, 29676, Pitch_bend_c, 4, 3584
6, 29677, Pitch_bend_c, 4, 3712
6, 29678, Pitch_bend_c, 4, 3840
6, 29679, Pitch_bend_c, 4, 3968
6, 29680, Pitch_bend_c, 4, 4096
6, 29682, Pitch_bend_c, 4, 4224
6, 29683, Pitch_bend_c, 4, 4352
6, 29684, Pitch_bend_c, 4, 4480
6, 29685, Pitch_bend_c, 4, 4608
6, 29686, Pitch_bend_c, 4, 4736
6, 29687, Pitch_bend_c, 4, 4864
6, 29688, Pitch_bend_c, 4, 4992
6, 29689, Pitch_bend_c, 4, 5120
6, 29691, Pitch_bend_c, 4, 5248
6, 29692, Pitch_bend_c, 4, 5376
6, 29693, Pitch_bend_c, 4, 5504
6, 29694, Pitch_bend_c, 4, 5632
6, 29695, Pitch_bend_c, 4, 5760
6, 29696, Pitch_bend_c, 4, 5888
6, 29697, Pitch_bend_c, 4, 6016
6, 29698, Pitch_bend_c, 4, 6144
6, 29700, Pitch_bend_c, 4, 6272
6, 29701, Pitch_bend_c, 4, 6400
6, 29702, Pitch_bend_c, 4, 6528
6, 29703, Pitch_bend_c, 4, 6656
6, 29704, Pitch_bend_c, 4, 6784
6, 29705, Pitch_bend_c, 4, 6912
6, 29706, Pitch_bend_c, 4, 7040
6, 29707, Pitch_bend_c, 4, 7168
6, 29709, Pitch_bend_c, 4, 7296
6, 29710, Pitch_bend_c, 4, 7424
6, 29711, Pitch_bend_c, 4, 7552
6, 29712, Pitch_bend_c, 4, 7680
6, 29713, Pitch_bend_c, 4, 7808
6, 29714, Pitch_bend_c, 4, 7936
6, 29715, Pitch_bend_c, 4, 8064
6, 29716, Pitch_bend_c, 4, 8192
6, 29733, Note_on_c, 4, 54, 0
6, 29733, Note_on_c, 4, 52, 100
6, 29763, Note_on_c, 4, 52, 0
6, 29763, Note_on_c, 4, 49, 100
6, 29763, Note_on_c, 4, 61, 80
6, 30123, Note_on_c, 4, 61, 0
6, 30123, Note_on_c, 4, 49, 0
6, 30123, Note_on_c, 4, 60, 100
6, 30123, Note_on_c, 4, 51, 100
6, 30125, Pitch_bend_c, 4, 128
6, 30131, Pitch_bend_c, 4, 384
6, 30135, Pitch_bend_c, 4, 512
6, 30137, Pitch_bend_c, 4, 640
6, 30139, Pitch_bend_c, 4, 768
6, 30140, Pitch_bend_c, 4, 896
6, 30143, Pitch_bend_c, 4, 1152
6, 30146, Pitch_bend_c, 4, 1408
6, 30147, Pitch_bend_c, 4, 1664
6, 30149, Pitch_bend_c, 4, 1920
6, 30150, Pitch_bend_c, 4, 2048
6, 30151, Pitch_bend_c, 4, 2176
6, 30152, Pitch_bend_c, 4, 2432
6, 30153, Pitch_bend_c, 4, 2688
6, 30154, Pitch_bend_c, 4, 3200
6, 30155, Pitch_bend_c, 4, 3456
6, 30156, Pitch_bend_c, 4, 3712
6, 30157, Pitch_bend_c, 4, 3968
6, 30158, Pitch_bend_c, 4, 4224
6, 30159, Pitch_bend_c, 4, 4480
6, 30160, Pitch_bend_c, 4, 4992
6, 30161, Pitch_bend_c, 4, 5120
6, 30162, Pitch_bend_c, 4, 5376
6, 30163, Pitch_bend_c, 4, 5632
6, 30164, Pitch_bend_c, 4, 5760
6, 30165, Pitch_bend_c, 4, 6016
6, 30166, Pitch_bend_c, 4, 6272
6, 30167, Pitch_bend_c, 4, 6528
6, 30168, Pitch_bend_c, 4, 6784
6, 30170, Pitch_bend_c, 4, 7296
6, 30171, Pitch_bend_c, 4, 7552
6, 30172, Pitch_bend_c, 4, 7808
6, 30174, Pitch_bend_c, 4, 8320
6, 30175, Pitch_bend_c, 4, 8448
6, 30176, Pitch_bend_c, 4, 8576
6, 30177, Pitch_bend_c, 4, 8832
6, 30178, Pitch_bend_c, 4, 9088
6, 30179, Pitch_bend_c, 4, 9216
6, 30180, Pitch_bend_c, 4, 9344
6, 30181, Pitch_bend_c, 4, 9600
6, 30183, Pitch_bend_c, 4, 9856
6, 30185, Pitch_bend_c, 4, 10112
6, 30186, Pitch_bend_c, 4, 10240
6, 30188, Pitch_bend_c, 4, 10368
6, 30189, Pitch_bend_c, 4, 10624
6, 30190, Pitch_bend_c, 4, 10752
6, 30191, Pitch_bend_c, 4, 10880
6, 30192, Pitch_bend_c, 4, 11008
6, 30193, Pitch_bend_c, 4, 11136
6, 30194, Pitch_bend_c, 4, 11264
6, 30195, Pitch_bend_c, 4, 11392
6, 30197, Pitch_bend_c, 4, 11520
6, 30198, Pitch_bend_c, 4, 11648
6, 30201, Pitch_bend_c, 4, 11776
6, 30202, Pitch_bend_c, 4, 11904
6, 30205, Pitch_bend_c, 4, 12032
6, 30206, Pitch_bend_c, 4, 12160
6, 30211, Pitch_bend_c, 4, 12416
6, 30279, Pitch_bend_c, 4, 12544
6, 30281, Pitch_bend_c, 4, 12672
6, 30288, Pitch_bend_c, 4, 12544
6, 30296, Pitch_bend_c, 4, 11904
6, 30303, Pitch_bend_c, 4, 12032
6, 30304, Pitch_bend_c, 4, 11648
6, 30310, Pitch_bend_c, 4, 11776
6, 30316, Pitch_bend_c, 4, 12032
6, 30322, Pitch_bend_c, 4, 12416
6, 30330, Pitch_bend_c, 4, 12672
6, 30338, Pitch_bend_c, 4, 13440
6, 30339, Pitch_bend_c, 4, 13312
6, 30342, Pitch_bend_c, 4, 12544
6, 30344, Pitch_bend_c, 4, 12800
6, 30345, Pitch_bend_c, 4, 12544
6, 30352, Pitch_bend_c, 4, 12032
6, 30353, Pitch_bend_c, 4, 11776
6, 30359, Pitch_bend_c, 4, 11904
6, 30361, Pitch_bend_c, 4, 12160
6, 30364, Pitch_bend_c, 4, 12416
6, 30365, Pitch_bend_c, 4, 12544
6, 30366, Pitch_bend_c, 4, 12416
6, 30372, Pitch_bend_c, 4, 12672
6, 30374, Pitch_bend_c, 4, 12544
6, 30376, Pitch_bend_c, 4, 12672
6, 30377, Pitch_bend_c, 4, 12800
6, 30379, Pitch_bend_c, 4, 11392
6, 30389, Pitch_bend_c, 4, 11520
6, 30395, Pitch_bend_c, 4, 11776
6, 30402, Pitch_bend_c, 4, 12800
6, 30408, Pitch_bend_c, 4, 13568
6, 30414, Pitch_bend_c, 4, 13312
6, 30420, Pitch_bend_c, 4, 13440
6, 30421, Pitch_bend_c, 4, 13568
6, 30422, Pitch_bend_c, 4, 12288
6, 30423, Pitch_bend_c, 4, 12032
6, 30431, Pitch_bend_c, 4, 12288
6, 30433, Pitch_bend_c, 4, 12160
6, 30441, Pitch_bend_c, 4, 12416
6, 30447, Pitch_bend_c, 4, 13184
6, 30455, Pitch_bend_c, 4, 12416
6, 30456, Pitch_bend_c, 4, 12160
6, 30464, Pitch_bend_c, 4, 12288
6, 30466, Pitch_bend_c, 4, 10752
6, 30468, Pitch_bend_c, 4, 9728
6, 30476, Pitch_bend_c, 4, 10496
6, 30482, Pitch_bend_c, 4, 11520
6, 30484, Pitch_bend_c, 4, 11648
6, 30490, Pitch_bend_c, 4, 12416
6, 30492, Pitch_bend_c, 4, 13440
6, 30493, Pitch_bend_c, 4, 12288
6, 30499, Pitch_bend_c, 4, 13056
6, 30501, Pitch_bend_c, 4, 14080
6, 30502, Pitch_bend_c, 4, 13056
6, 30508, Pitch_bend_c, 4, 13184
6, 30510, Pitch_bend_c, 4, 13440
6, 30512, Pitch_bend_c, 4, 12544
6, 30514, Pitch_bend_c, 4, 12416
6, 30523, Pitch_bend_c, 4, 12544
6, 30524, Pitch_bend_c, 4, 11264
6, 30525, Pitch_bend_c, 4, 11008
6, 30531, Pitch_bend_c, 4, 11136
6, 30537, Pitch_bend_c, 4, 11904
6, 30539, Pitch_bend_c, 4, 12672
6, 30541, Pitch_bend_c, 4, 13440
6, 30542, Pitch_bend_c, 4, 12288
6, 30544, Pitch_bend_c, 4, 13056
6, 30546, Pitch_bend_c, 4, 13440
6, 30547, Pitch_bend_c, 4, 12672
6, 30553, Pitch_bend_c, 4, 12416
6, 30562, Pitch_bend_c, 4, 12544
6, 30564, Pitch_bend_c, 4, 12800
6, 30566, Pitch_bend_c, 4, 13056
6, 30567, Pitch_bend_c, 4, 12800
6, 30569, Pitch_bend_c, 4, 13056
6, 30572, Pitch_bend_c, 4, 12928
6, 30578, Pitch_bend_c, 4, 12160
6, 30580, Pitch_bend_c, 4, 12032
6, 30583, Pitch_bend_c, 4, 12160
6, 30585, Pitch_bend_c, 4, 12288
6, 30586, Pitch_bend_c, 4, 12416
6, 30587, Pitch_bend_c, 4, 12544
6, 30588, Pitch_bend_c, 4, 12672
6, 30593, Pitch_bend_c, 4, 12288
6, 30595, Pitch_bend_c, 4, 12416
6, 30601, Pitch_bend_c, 4, 12288
6, 30602, Pitch_bend_c, 4, 12160
6, 30603, Note_on_c, 4, 51, 0
6, 30603, Note_on_c, 4, 60, 0
6, 30603, Pitch_bend_c, 4, 0
6, 30603, Note_on_c, 4, 54, 100
6, 30604, Pitch_bend_c, 4, 128
6, 30605, Pitch_bend_c, 4, 384
6, 30606, Pitch_bend_c, 4, 640
6, 30607, Pitch_bend_c, 4, 896
6, 30608, Pitch_bend_c, 4, 1152
6, 30609, Pitch_bend_c, 4, 1408
6, 30610, Pitch_bend_c, 4, 1664
6, 30611, Pitch_bend_c, 4, 1920
6, 30612, Pitch_bend_c, 4, 2176
6, 30613, Pitch_bend_c, 4, 2432
6, 30614, Pitch_bend_c, 4, 2688
6, 30615, Pitch_bend_c, 4, 2944
6, 30616, Pitch_bend_c, 4, 3200
6, 30617, Pitch_bend_c, 4, 3456
6, 30618, Pitch_bend_c, 4, 3712
6, 30619, Pitch_bend_c, 4, 3968
6, 30620, Pitch_bend_c, 4, 4096
6, 30621, Pitch_bend_c, 4, 4352
6, 30622, Pitch_bend_c, 4, 4608
6, 30623, Pitch_bend_c, 4, 4864
6, 30624, Pitch_bend_c, 4, 5120
6, 30625, Pitch_bend_c, 4, 5376
6, 30626, Pitch_bend_c, 4, 5632
6, 30627, Pitch_bend_c, 4, 5888
6, 30628, Pitch_bend_c, 4, 6144
6, 30629, Pitch_bend_c, 4, 6400
6, 30630, Pitch_bend_c, 4, 6656
6, 30631, Pitch_bend_c, 4, 6912
6, 30632, Pitch_bend_c, 4, 7168
6, 30633, Pitch_bend_c, 4, 7424
6, 30634, Pitch_bend_c, 4, 7680
6, 30635, Pitch_bend_c, 4, 7936
6, 30636, Pitch_bend_c, 4, 8192
6, 30723, Note_on_c, 4, 54, 0
6, 30723, Note_on_c, 4, 54, 100
6, 30783, Note_on_c, 4, 54, 0
6, 30783, Note_on_c, 4, 56, 100
6, 30843, Note_on_c, 4, 56, 0
6, 30963, Pitch_bend_c, 4, 6272
6, 30963, Note_on_c, 4, 54, 100
6, 30967, Pitch_bend_c, 4, 6400
6, 30969, Pitch_bend_c, 4, 6528
6, 30971, Pitch_bend_c, 4, 6656
6, 30972, Pitch_bend_c, 4, 6784
6, 30973, Pitch_bend_c, 4, 7040
6, 30976, Pitch_bend_c, 4, 7296
6, 30977, Pitch_bend_c, 4, 7552
6, 30979, Pitch_bend_c, 4, 7680
6, 30980, Pitch_bend_c, 4, 8064
6, 30981, Pitch_bend_c, 4, 8320
6, 30982, Pitch_bend_c, 4, 8576
6, 30983, Pitch_bend_c, 4, 8832
6, 30985, Pitch_bend_c, 4, 8448
6, 30994, Pitch_bend_c, 4, 8576
6, 30996, Pitch_bend_c, 4, 8832
6, 30997, Pitch_bend_c, 4, 8576
6, 30998, Pitch_bend_c, 4, 8064
6, 31005, Pitch_bend_c, 4, 8192
6, 31007, Pitch_bend_c, 4, 8320
6, 31008, Pitch_bend_c, 4, 8576
6, 31014, Pitch_bend_c, 4, 8704
6, 31016, Pitch_bend_c, 4, 8320
6, 31017, Pitch_bend_c, 4, 8576
6, 31018, Pitch_bend_c, 4, 8832
6, 31019, Pitch_bend_c, 4, 8448
6, 31025, Pitch_bend_c, 4, 8576
6, 31027, Pitch_bend_c, 4, 7680
6, 31039, Pitch_bend_c, 4, 7936
6, 31040, Pitch_bend_c, 4, 8192
6, 31047, Pitch_bend_c, 4, 8320
6, 31057, Pitch_bend_c, 4, 7552
6, 31058, Pitch_bend_c, 4, 7680
6, 31059, Pitch_bend_c, 4, 9728
6, 31064, Pitch_bend_c, 4, 7936
6, 31066, Pitch_bend_c, 4, 8064
6, 31067, Pitch_bend_c, 4, 8576
6, 31083, Note_on_c, 4, 54, 0
6, 31083, Pitch_bend_c, 4, 6656
6, 31083, Note_on_c, 4, 52, 100
6, 31085, Pitch_bend_c, 4, 6784
6, 31087, Pitch_bend_c, 4, 6912
6, 31090, Pitch_bend_c, 4, 7040
6, 31091, Pitch_bend_c, 4, 7168
6, 31094, Pitch_bend_c, 4, 7296
6, 31095, Pitch_bend_c, 4, 7424
6, 31096, Pitch_bend_c, 4, 7552
6, 31097, Pitch_bend_c, 4, 7680
6, 31098, Pitch_bend_c, 4, 7808
6, 31099, Pitch_bend_c, 4, 7936
6, 31100, Pitch_bend_c, 4, 8192
6, 31101, Pitch_bend_c, 4, 8320
6, 31102, Pitch_bend_c, 4, 8448
6, 31103, Pitch_bend_c, 4, 8576
6, 31104, Pitch_bend_c, 4, 7936
6, 31112, Pitch_bend_c, 4, 8192
6, 31113, Pitch_bend_c, 4, 8064
6, 31114, Pitch_bend_c, 4, 8192
6, 31116, Pitch_bend_c, 4, 7168
6, 31128, Pitch_bend_c, 4, 7936
6, 31134, Pitch_bend_c, 4, 8704
6, 31137, Pitch_bend_c, 4, 8448
6, 31145, Pitch_bend_c, 4, 8704
6, 31146, Pitch_bend_c, 4, 8192
6, 31154, Pitch_bend_c, 4, 7168
6, 31168, Pitch_bend_c, 4, 7936
6, 31169, Pitch_bend_c, 4, 7808
6, 31170, Pitch_bend_c, 4, 8064
6, 31176, Pitch_bend_c, 4, 8320
6, 31177, Pitch_bend_c, 4, 8576
6, 31180, Pitch_bend_c, 4, 8832
6, 31181, Pitch_bend_c, 4, 8960
6, 31185, Pitch_bend_c, 4, 8832
6, 31186, Pitch_bend_c, 4, 8704
6, 31187, Pitch_bend_c, 4, 8576
6, 31189, Pitch_bend_c, 4, 8320
6, 31193, Pitch_bend_c, 4, 8192
6, 31203, Note_on_c, 4, 52, 0
6, 31203, Note_on_c, 4, 54, 100
6, 31204, Pitch_bend_c, 4, 5632
6, 31206, Pitch_bend_c, 4, 5760
6, 31208, Pitch_bend_c, 4, 6016
6, 31212, Pitch_bend_c, 4, 6272
6, 31213, Pitch_bend_c, 4, 6400
6, 31214, Pitch_bend_c, 4, 6528
6, 31215, Pitch_bend_c, 4, 6656
6, 31216, Pitch_bend_c, 4, 6784
6, 31218, Pitch_bend_c, 4, 7040
6, 31219, Pitch_bend_c, 4, 7296
6, 31220, Pitch_bend_c, 4, 7552
6, 31221, Pitch_bend_c, 4, 7808
6, 31222, Pitch_bend_c, 4, 8064
6, 31223, Pitch_bend_c, 4, 8320
6, 31224, Pitch_bend_c, 4, 8448
6, 31226, Pitch_bend_c, 4, 8576
6, 31231, Pitch_bend_c, 4, 8448
6, 31232, Pitch_bend_c, 4, 8192
6, 31233, Pitch_bend_c, 4, 8064
6, 31237, Pitch_bend_c, 4, 8320
6, 31238, Pitch_bend_c, 4, 8576
6, 31240, Pitch_bend_c, 4, 8704
6, 31241, Pitch_bend_c, 4, 8832
6, 31243, Pitch_bend_c, 4, 8704
6, 31244, Pitch_bend_c, 4, 8448
6, 31245, Pitch_bend_c, 4, 8192
6, 31247, Pitch_bend_c, 4, 8576
6, 31248, Pitch_bend_c, 4, 8832
6, 31251, Pitch_bend_c, 4, 8576
6, 31252, Pitch_bend_c, 4, 8448
6, 31253, Pitch_bend_c, 4, 8192
6, 31256, Pitch_bend_c, 4, 8448
6, 31257, Pitch_bend_c, 4, 8576
6, 31258, Pitch_bend_c, 4, 8832
6, 31263, Pitch_bend_c, 4, 8064
6, 31268, Pitch_bend_c, 4, 8320
6, 31270, Pitch_bend_c, 4, 8576
6, 31276, Pitch_bend_c, 4, 8064
6, 31277, Pitch_bend_c, 4, 8320
6, 31278, Pitch_bend_c, 4, 8704
6, 31282, Pitch_bend_c, 4, 7936
6, 31285, Pitch_bend_c, 4, 8320
6, 31286, Pitch_bend_c, 4, 8576
6, 31289, Pitch_bend_c, 4, 8704
6, 31291, Pitch_bend_c, 4, 8576
6, 31292, Pitch_bend_c, 4, 8704
6, 31294, Pitch_bend_c, 4, 8832
6, 31296, Pitch_bend_c, 4, 8448
6, 31297, Pitch_bend_c, 4, 7808
6, 31299, Pitch_bend_c, 4, 8064
6, 31300, Pitch_bend_c, 4, 8576
6, 31302, Pitch_bend_c, 4, 8832
6, 31307, Pitch_bend_c, 4, 8448
6, 31308, Pitch_bend_c, 4, 7680
6, 31309, Pitch_bend_c, 4, 7424
6, 31310, Pitch_bend_c, 4, 6656
6, 31311, Pitch_bend_c, 4, 6400
6, 31312, Pitch_bend_c, 4, 5888
6, 31313, Pitch_bend_c, 4, 5632
6, 31314, Pitch_bend_c, 4, 5376
6, 31315, Pitch_bend_c, 4, 4864
6, 31316, Pitch_bend_c, 4, 4352
6, 31317, Pitch_bend_c, 4, 3328
6, 31318, Pitch_bend_c, 4, 2048
6, 31319, Pitch_bend_c, 4, 1280
6, 31320, Pitch_bend_c, 4, 768
6, 31321, Pitch_bend_c, 4, 512
6, 31322, Pitch_bend_c, 4, 256
6, 31323, Note_on_c, 4, 54, 0
6, 31323, Pitch_bend_c, 4, 128
6, 31338, Pitch_bend_c, 4, 8192
6, 31683, Note_on_c, 4, 64, 100
6, 31683, Note_on_c, 4, 76, 110
6, 31683, Program_c, 4, 29
6, 31713, Note_on_c, 4, 76, 0
6, 31713, Note_on_c, 4, 64, 0
6, 31713, Note_on_c, 4, 64, 100
6, 31713, Note_on_c, 4, 76, 110
6, 31743, Note_on_c, 4, 76, 0
6, 31743, Note_on_c, 4, 64, 0
6, 31743, Note_on_c, 4, 64, 100
6, 31743, Note_on_c, 4, 76, 110
6, 31803, Note_on_c, 4, 76, 0
6, 31803, Note_on_c, 4, 64, 0
6, 31803, Pitch_bend_c, 4, 128
6, 31803, Note_on_c, 4, 78, 100
6, 31803, Note_on_c, 4, 66, 100
6, 31805, Pitch_bend_c, 4, 512
6, 31807, Pitch_bend_c, 4, 640
6, 31809, Pitch_bend_c, 4, 896
6, 31813, Pitch_bend_c, 4, 1152
6, 31817, Pitch_bend_c, 4, 1408
6, 31819, Pitch_bend_c, 4, 1536
6, 31821, Pitch_bend_c, 4, 1664
6, 31823, Pitch_bend_c, 4, 1920
6, 31825, Pitch_bend_c, 4, 2176
6, 31827, Pitch_bend_c, 4, 2432
6, 31829, Pitch_bend_c, 4, 2688
6, 31831, Pitch_bend_c, 4, 2944
6, 31833, Pitch_bend_c, 4, 3200
6, 31834, Pitch_bend_c, 4, 3456
6, 31835, Pitch_bend_c, 4, 3712
6, 31837, Pitch_bend_c, 4, 4480
6, 31838, Pitch_bend_c, 4, 4736
6, 31839, Pitch_bend_c, 4, 5120
6, 31840, Pitch_bend_c, 4, 5248
6, 31841, Pitch_bend_c, 4, 5376
6, 31842, Pitch_bend_c, 4, 5632
6, 31843, Pitch_bend_c, 4, 5888
6, 31844, Pitch_bend_c, 4, 6144
6, 31845, Pitch_bend_c, 4, 6272
6, 31846, Pitch_bend_c, 4, 6656
6, 31847, Pitch_bend_c, 4, 7168
6, 31848, Pitch_bend_c, 4, 7680
6, 31849, Pitch_bend_c, 4, 8064
6, 31850, Pitch_bend_c, 4, 8192
6, 31863, Note_on_c, 4, 66, 0
6, 31863, Note_on_c, 4, 78, 0
6, 31863, Note_on_c, 4, 66, 100
6, 31863, Note_on_c, 4, 78, 100
6, 31893, Note_on_c, 4, 78, 0
6, 31893, Note_on_c, 4, 66, 0
6, 31893, Note_on_c, 4, 66, 100
6, 31893, Note_on_c, 4, 78, 100
6, 31923, Note_on_c, 4, 78, 0
6, 31923, Note_on_c, 4, 66, 0
6, 31923, Note_on_c, 4, 80, 100
6, 31923, Note_on_c, 4, 68, 100
6, 31924, Pitch_bend_c, 4, 128
6, 31932, Pitch_bend_c, 4, 384
6, 31934, Pitch_bend_c, 4, 512
6, 31940, Pitch_bend_c, 4, 640
6, 31942, Pitch_bend_c, 4, 896
6, 31944, Pitch_bend_c, 4, 1024
6, 31945, Pitch_bend_c, 4, 1152
6, 31946, Pitch_bend_c, 4, 1408
6, 31948, Pitch_bend_c, 4, 1664
6, 31950, Pitch_bend_c, 4, 2432
6, 31952, Pitch_bend_c, 4, 3200
6, 31954, Pitch_bend_c, 4, 3456
6, 31955, Pitch_bend_c, 4, 3712
6, 31956, Pitch_bend_c, 4, 4480
6, 31957, Pitch_bend_c, 4, 4736
6, 31958, Pitch_bend_c, 4, 4992
6, 31959, Pitch_bend_c, 4, 5760
6, 31960, Pitch_bend_c, 4, 6016
6, 31961, Pitch_bend_c, 4, 6272
6, 31962, Pitch_bend_c, 4, 6784
6, 31963, Pitch_bend_c, 4, 7040
6, 31964, Pitch_bend_c, 4, 7552
6, 31965, Pitch_bend_c, 4, 8064
6, 31967, Pitch_bend_c, 4, 8192
6, 31983, Note_on_c, 4, 68, 0
6, 31983, Note_on_c, 4, 80, 0
6, 31983, Note_on_c, 4, 80, 100
6, 31983, Note_on_c, 4, 68, 100
6, 32013, Note_on_c, 4, 68, 0
6, 32013, Note_on_c, 4, 80, 0
6, 32013, Note_on_c, 4, 68, 100
6, 32013, Note_on_c, 4, 80, 100
6, 32043, Note_on_c, 4, 80, 0
6, 32043, Note_on_c, 4, 68, 0
6, 32043, Note_on_c, 4, 83, 100
6, 32043, Pitch_bend_c, 4, 128
6, 32043, Note_on_c, 4, 71, 100
6, 32048, Pitch_bend_c, 4, 384
6, 32052, Pitch_bend_c, 4, 640
6, 32056, Pitch_bend_c, 4, 896
6, 32058, Pitch_bend_c, 4, 1024
6, 32060, Pitch_bend_c, 4, 1152
6, 32061, Pitch_bend_c, 4, 1408
6, 32063, Pitch_bend_c, 4, 1536
6, 32064, Pitch_bend_c, 4, 1664
6, 32066, Pitch_bend_c, 4, 1920
6, 32067, Pitch_bend_c, 4, 2176
6, 32068, Pitch_bend_c, 4, 2304
6, 32069, Pitch_bend_c, 4, 2432
6, 32071, Pitch_bend_c, 4, 2688
6, 32072, Pitch_bend_c, 4, 2944
6, 32073, Pitch_bend_c, 4, 3200
6, 32075, Pitch_bend_c, 4, 3456
6, 32076, Pitch_bend_c, 4, 3712
6, 32078, Pitch_bend_c, 4, 3968
6, 32079, Pitch_bend_c, 4, 4224
6, 32080, Pitch_bend_c, 4, 4480
6, 32081, Pitch_bend_c, 4, 4992
6, 32082, Pitch_bend_c, 4, 5248
6, 32083, Pitch_bend_c, 4, 5504
6, 32085, Pitch_bend_c, 4, 5760
6, 32087, Pitch_bend_c, 4, 6144
6, 32089, Pitch_bend_c, 4, 6400
6, 32090, Pitch_bend_c, 4, 6656
6, 32091, Pitch_bend_c, 4, 6912
6, 32092, Pitch_bend_c, 4, 7168
6, 32093, Pitch_bend_c, 4, 7680
6, 32094, Pitch_bend_c, 4, 7936
6, 32096, Pitch_bend_c, 4, 8064
6, 32097, Pitch_bend_c, 4, 8192
6, 32103, Note_on_c, 4, 71, 0
6, 32103, Note_on_c, 4, 83, 0
6, 32103, Note_on_c, 4, 71, 100
6, 32103, Note_on_c, 4, 83, 100
6, 32133, Note_on_c, 4, 83, 0
6, 32133, Note_on_c, 4, 71, 0
6, 32133, Note_on_c, 4, 83, 100
6, 32133, Note_on_c, 4, 71, 100
6, 32163, Note_on_c, 4, 71, 0
6, 32163, Note_on_c, 4, 83, 0
6, 32163, Note_on_c, 4, 69, 100
6, 32163, Note_on_c, 4, 81, 120
6, 32163, Pitch_bend_c, 4, 13184
6, 32165, Pitch_bend_c, 4, 13312
6, 32166, Pitch_bend_c, 4, 13440
6, 32167, Pitch_bend_c, 4, 13696
6, 32169, Pitch_bend_c, 4, 13952
6, 32170, Pitch_bend_c, 4, 14208
6, 32171, Pitch_bend_c, 4, 14336
6, 32173, Pitch_bend_c, 4, 14464
6, 32174, Pitch_bend_c, 4, 14720
6, 32175, Pitch_bend_c, 4, 14976
6, 32177, Pitch_bend_c, 4, 15232
6, 32178, Pitch_bend_c, 4, 15488
6, 32179, Pitch_bend_c, 4, 15744
6, 32180, Pitch_bend_c, 4, 15872
6, 32181, Pitch_bend_c, 4, 16128
6, 32182, Pitch_bend_c, 4, 16256
6, 32185, Pitch_bend_c, 4, 16383
6, 32263, Pitch_bend_c, 4, 16256
6, 32264, Pitch_bend_c, 4, 16000
6, 32265, Pitch_bend_c, 4, 15232
6, 32266, Pitch_bend_c, 4, 14464
6, 32267, Pitch_bend_c, 4, 14208
6, 32268, Pitch_bend_c, 4, 13696
6, 32269, Pitch_bend_c, 4, 12672
6, 32270, Pitch_bend_c, 4, 11136
6, 32271, Pitch_bend_c, 4, 10368
6, 32272, Pitch_bend_c, 4, 9088
6, 32273, Pitch_bend_c, 4, 8192
6, 32274, Pitch_bend_c, 4, 7168
6, 32275, Pitch_bend_c, 4, 6400
6, 32276, Pitch_bend_c, 4, 5632
6, 32277, Pitch_bend_c, 4, 4608
6, 32278, Pitch_bend_c, 4, 3328
6, 32279, Pitch_bend_c, 4, 2560
6, 32280, Pitch_bend_c, 4, 1152
6, 32281, Pitch_bend_c, 4, 128
6, 32283, Note_on_c, 4, 81, 0
6, 32283, Note_on_c, 4, 69, 0
6, 32283, Pitch_bend_c, 4, 8192
6, 32403, Pitch_bend_c, 4, 13184
6, 32583, Note_on_c, 4, 66, 100
6, 32583, Pitch_bend_c, 4, 0
6, 32584, Pitch_bend_c, 4, 640
6, 32585, Pitch_bend_c, 4, 1280
6, 32586, Pitch_bend_c, 4, 2048
6, 32587, Pitch_bend_c, 4, 2688
6, 32588, Pitch_bend_c, 4, 3328
6, 32589, Pitch_bend_c, 4, 4096
6, 32590, Pitch_bend_c, 4, 4736
6, 32591, Pitch_bend_c, 4, 5376
6, 32592, Pitch_bend_c, 4, 6144
6, 32593, Pitch_bend_c, 4, 6784
6, 32594, Pitch_bend_c, 4, 7424
6, 32595, Pitch_bend_c, 4, 8192
6, 32613, Note_on_c, 4, 66, 0
6, 32613, Note_on_c, 4, 68, 100
6, 32643, Note_on_c, 4, 68, 0
6, 32643, Note_on_c, 4, 73, 100
6, 32673, Note_on_c, 4, 73, 0
6, 32673, Note_on_c, 4, 71, 100
6, 32703, Note_on_c, 4, 71, 0
6, 32703, Note_on_c, 4, 73, 100
6, 32733, Note_on_c, 4, 73, 0
6, 32733, Note_on_c, 4, 71, 100
6, 32763, Note_on_c, 4, 71, 0
6, 32763, Note_on_c, 4, 68, 100
6, 32793, Note_on_c, 4, 68, 0
6, 32793, Note_on_c, 4, 66, 100
6, 32793, Pitch_bend_c, 4, 4096
6, 32794, Pitch_bend_c, 4, 4224
6, 32795, Pitch_bend_c, 4, 4352
6, 32796, Pitch_bend_c, 4, 4480
6, 32797, Pitch_bend_c, 4, 4608
6, 32798, Pitch_bend_c, 4, 4736
6, 32799, Pitch_bend_c, 4, 4992
6, 32801, Pitch_bend_c, 4, 5248
6, 32802, Pitch_bend_c, 4, 5504
6, 32803, Pitch_bend_c, 4, 5760
6, 32804, Pitch_bend_c, 4, 6016
6, 32805, Pitch_bend_c, 4, 6528
6, 32806, Pitch_bend_c, 4, 7296
6, 32807, Pitch_bend_c, 4, 7808
6, 32808, Pitch_bend_c, 4, 8192
6, 32823, Note_on_c, 4, 66, 0
6, 32823, Note_on_c, 4, 68, 100
6, 32853, Note_on_c, 4, 68, 0
6, 32853, Note_on_c, 4, 73, 100
6, 32883, Note_on_c, 4, 73, 0
6, 32883, Note_on_c, 4, 71, 100
6, 32913, Note_on_c, 4, 71, 0
6, 32913, Note_on_c, 4, 68, 100
6, 32943, Note_on_c, 4, 68, 0
6, 32943, Pitch_bend_c, 4, 0
6, 32943, Note_on_c, 4, 68, 100
6, 32944, Pitch_bend_c, 4, 640
6, 32945, Pitch_bend_c, 4, 1280
6, 32946, Pitch_bend_c, 4, 2048
6, 32947, Pitch_bend_c, 4, 2688
6, 32948, Pitch_bend_c, 4, 3328
6, 32949, Pitch_bend_c, 4, 4096
6, 32950, Pitch_bend_c, 4, 4736
6, 32951, Pitch_bend_c, 4, 5376
6, 32952, Pitch_bend_c, 4, 6144
6, 32953, Pitch_bend_c, 4, 6784
6, 32954, Pitch_bend_c, 4, 7424
6, 32955, Pitch_bend_c, 4, 8192
6, 32973, Note_on_c, 4, 68, 0
6, 32973, Note_on_c, 4, 66, 100
6, 33003, Note_on_c, 4, 66, 0
6, 33003, Note_on_c, 4, 64, 100
6, 33033, Note_on_c, 4, 64, 0
6, 33033, Note_on_c, 4, 61, 100
6, 33063, Note_on_c, 4, 61, 0
6, 33063, Note_on_c, 4, 64, 100
6, 33093, Note_on_c, 4, 64, 0
6, 33093, Note_on_c, 4, 66, 100
6, 33123, Note_on_c, 4, 66, 0
6, 33123, Note_on_c, 4, 68, 100
6, 33123, Pitch_bend_c, 4, 0
6, 33125, Pitch_bend_c, 4, 128
6, 33127, Pitch_bend_c, 4, 256
6, 33128, Pitch_bend_c, 4, 384
6, 33130, Pitch_bend_c, 4, 512
6, 33131, Pitch_bend_c, 4, 640
6, 33133, Pitch_bend_c, 4, 768
6, 33135, Pitch_bend_c, 4, 896
6, 33136, Pitch_bend_c, 4, 1024
6, 33138, Pitch_bend_c, 4, 1152
6, 33139, Pitch_bend_c, 4, 1280
6, 33141, Pitch_bend_c, 4, 1408
6, 33143, Pitch_bend_c, 4, 1536
6, 33144, Pitch_bend_c, 4, 1664
6, 33146, Pitch_bend_c, 4, 1792
6, 33147, Pitch_bend_c, 4, 1920
6, 33149, Pitch_bend_c, 4, 2048
6, 33151, Pitch_bend_c, 4, 2176
6, 33152, Pitch_bend_c, 4, 2304
6, 33154, Pitch_bend_c, 4, 2432
6, 33155, Pitch_bend_c, 4, 2560
6, 33157, Pitch_bend_c, 4, 2688
6, 33159, Pitch_bend_c, 4, 2816
6, 33160, Pitch_bend_c, 4, 2944
6, 33162, Pitch_bend_c, 4, 3072
6, 33163, Pitch_bend_c, 4, 3200
6, 33165, Pitch_bend_c, 4, 3328
6, 33167, Pitch_bend_c, 4, 3456
6, 33168, Pitch_bend_c, 4, 3584
6, 33170, Pitch_bend_c, 4, 3712
6, 33171, Pitch_bend_c, 4, 3840
6, 33173, Pitch_bend_c, 4, 3968
6, 33174, Pitch_bend_c, 4, 4096
6, 33176, Pitch_bend_c, 4, 4224
6, 33178, Pitch_bend_c, 4, 4352
6, 33179, Pitch_bend_c, 4, 4480
6, 33181, Pitch_bend_c, 4, 4608
6, 33182, Pitch_bend_c, 4, 4736
6, 33184, Pitch_bend_c, 4, 4864
6, 33186, Pitch_bend_c, 4, 4992
6, 33187, Pitch_bend_c, 4, 5120
6, 33189, Pitch_bend_c, 4, 5248
6, 33190, Pitch_bend_c, 4, 5376
6, 33192, Pitch_bend_c, 4, 5504
6, 33194, Pitch_bend_c, 4, 5632
6, 33195, Pitch_bend_c, 4, 5760
6, 33197, Pitch_bend_c, 4, 5888
6, 33198, Pitch_bend_c, 4, 6016
6, 33200, Pitch_bend_c, 4, 6144
6, 33202, Pitch_bend_c, 4, 6272
6, 33203, Pitch_bend_c, 4, 6400
6, 33205, Pitch_bend_c, 4, 6528
6, 33206, Pitch_bend_c, 4, 6656
6, 33208, Pitch_bend_c, 4, 6784
6, 33210, Pitch_bend_c, 4, 6912
6, 33211, Pitch_bend_c, 4, 7040
6, 33213, Pitch_bend_c, 4, 7168
6, 33214, Pitch_bend_c, 4, 7296
6, 33216, Pitch_bend_c, 4, 7424
6, 33218, Pitch_bend_c, 4, 7552
6, 33219, Pitch_bend_c, 4, 7680
6, 33221, Pitch_bend_c, 4, 7808
6, 33222, Pitch_bend_c, 4, 7936
6, 33224, Pitch_bend_c, 4, 8064
6, 33225, Pitch_bend_c, 4, 8192
6, 33229, Pitch_bend_c, 4, 8192
6, 33235, Pitch_bend_c, 4, 8448
6, 33236, Pitch_bend_c, 4, 8832
6, 33237, Pitch_bend_c, 4, 8448
6, 33238, Pitch_bend_c, 4, 7936
6, 33242, Pitch_bend_c, 4, 9088
6, 33244, Pitch_bend_c, 4, 8704
6, 33245, Pitch_bend_c, 4, 8448
6, 33246, Pitch_bend_c, 4, 8192
6, 33247, Pitch_bend_c, 4, 7808
6, 33248, Pitch_bend_c, 4, 7680
6, 33254, Pitch_bend_c, 4, 9088
6, 33256, Pitch_bend_c, 4, 8960
6, 33257, Pitch_bend_c, 4, 8448
6, 33258, Pitch_bend_c, 4, 7808
6, 33259, Pitch_bend_c, 4, 7680
6, 33260, Pitch_bend_c, 4, 7552
6, 33264, Pitch_bend_c, 4, 9216
6, 33267, Pitch_bend_c, 4, 7808
6, 33268, Pitch_bend_c, 4, 7680
6, 33269, Pitch_bend_c, 4, 7552
6, 33272, Pitch_bend_c, 4, 7680
6, 33273, Pitch_bend_c, 4, 8192
6, 33274, Pitch_bend_c, 4, 8704
6, 33275, Pitch_bend_c, 4, 8832
6, 33277, Pitch_bend_c, 4, 8704
6, 33278, Pitch_bend_c, 4, 7936
6, 33279, Pitch_bend_c, 4, 7680
6, 33285, Pitch_bend_c, 4, 7808
6, 33286, Pitch_bend_c, 4, 8192
6, 33287, Pitch_bend_c, 4, 8704
6, 33288, Pitch_bend_c, 4, 8960
6, 33290, Pitch_bend_c, 4, 9216
6, 33291, Pitch_bend_c, 4, 7936
6, 33292, Pitch_bend_c, 4, 7680
6, 33297, Pitch_bend_c, 4, 7936
6, 33298, Pitch_bend_c, 4, 8448
6, 33299, Pitch_bend_c, 4, 8576
6, 33300, Pitch_bend_c, 4, 8704
6, 33303, Pitch_bend_c, 4, 8192
6, 33304, Pitch_bend_c, 4, 7680
6, 33306, Pitch_bend_c, 4, 7424
6, 33310, Pitch_bend_c, 4, 7680
6, 33311, Pitch_bend_c, 4, 8192
6, 33312, Pitch_bend_c, 4, 8576
6, 33313, Pitch_bend_c, 4, 8704
6, 33314, Pitch_bend_c, 4, 8960
6, 33317, Pitch_bend_c, 4, 8192
6, 33318, Pitch_bend_c, 4, 8064
6, 33323, Pitch_bend_c, 4, 8448
6, 33324, Pitch_bend_c, 4, 8704
6, 33326, Pitch_bend_c, 4, 8064
6, 33327, Pitch_bend_c, 4, 7936
6, 33333, Pitch_bend_c, 4, 8192
6, 33334, Pitch_bend_c, 4, 8704
6, 33335, Pitch_bend_c, 4, 8960
6, 33336, Pitch_bend_c, 4, 9088
6, 33337, Pitch_bend_c, 4, 8704
6, 33338, Pitch_bend_c, 4, 7680
6, 33340, Pitch_bend_c, 4, 7552
6, 33341, Pitch_bend_c, 4, 7424
6, 33345, Pitch_bend_c, 4, 8192
6, 33346, Pitch_bend_c, 4, 8448
6, 33351, Pitch_bend_c, 4, 8576
6, 33352, Pitch_bend_c, 4, 8448
6, 33353, Pitch_bend_c, 4, 8192
6, 33363, Note_on_c, 4, 68, 0
6, 33483, Note_on_c, 4, 71, 100
6, 33484, Pitch_bend_c, 4, 128
6, 33498, Pitch_bend_c, 4, 256
6, 33499, Pitch_bend_c, 4, 384
6, 33502, Pitch_bend_c, 4, 512
6, 33504, Pitch_bend_c, 4, 640
6, 33507, Pitch_bend_c, 4, 768
6, 33508, Pitch_bend_c, 4, 896
6, 33509, Pitch_bend_c, 4, 1024
6, 33510, Pitch_bend_c, 4, 1152
6, 33513, Pitch_bend_c, 4, 1408
6, 33515, Pitch_bend_c, 4, 1536
6, 33516, Pitch_bend_c, 4, 1664
6, 33518, Pitch_bend_c, 4, 1792
6, 33519, Pitch_bend_c, 4, 1920
6, 33521, Pitch_bend_c, 4, 2048
6, 33522, Pitch_bend_c, 4, 2176
6, 33523, Pitch_bend_c, 4, 2304
6, 33524, Pitch_bend_c, 4, 2432
6, 33525, Pitch_bend_c, 4, 2560
6, 33526, Pitch_bend_c, 4, 2688
6, 33528, Pitch_bend_c, 4, 2816
6, 33529, Pitch_bend_c, 4, 2944
6, 33530, Pitch_bend_c, 4, 3072
6, 33531, Pitch_bend_c, 4, 3200
6, 33532, Pitch_bend_c, 4, 3328
6, 33533, Pitch_bend_c, 4, 3456
6, 33534, Pitch_bend_c, 4, 3584
6, 33535, Pitch_bend_c, 4, 3712
6, 33536, Pitch_bend_c, 4, 3840
6, 33537, Pitch_bend_c, 4, 4096
6, 33538, Pitch_bend_c, 4, 4224
6, 33540, Pitch_bend_c, 4, 4480
6, 33542, Pitch_bend_c, 4, 4736
6, 33543, Pitch_bend_c, 4, 4864
6, 33544, Pitch_bend_c, 4, 4992
6, 33545, Pitch_bend_c, 4, 5120
6, 33546, Pitch_bend_c, 4, 5248
6, 33547, Pitch_bend_c, 4, 5376
6, 33548, Pitch_bend_c, 4, 5504
6, 33549, Pitch_bend_c, 4, 5760
6, 33550, Pitch_bend_c, 4, 5888
6, 33551, Pitch_bend_c, 4, 6144
6, 33552, Pitch_bend_c, 4, 6272
6, 33553, Pitch_bend_c, 4, 6528
6, 33554, Pitch_bend_c, 4, 6784
6, 33555, Pitch_bend_c, 4, 7040
6, 33556, Pitch_bend_c, 4, 7296
6, 33557, Pitch_bend_c, 4, 7552
6, 33558, Pitch_bend_c, 4, 7808
6, 33559, Pitch_bend_c, 4, 8064
6, 33563, Pitch_bend_c, 4, 8192
6, 33573, Note_on_c, 4, 71, 0
6, 33573, Note_on_c, 4, 73, 100
6, 33603, Note_on_c, 4, 73, 0
6, 33603, Note_on_c, 4, 73, 100
6, 33633, Note_on_c, 4, 73, 0
6, 33633, Note_on_c, 4, 71, 100
6, 33663, Note_on_c, 4, 71, 0
6, 33663, Note_on_c, 4, 73, 100
6, 33693, Note_on_c, 4, 73, 0
6, 33693, Note_on_c, 4, 75, 100
6, 33723, Note_on_c, 4, 75, 0
6, 33723, Note_on_c, 4, 73, 100
6, 33753, Note_on_c, 4, 73, 0
6, 33753, Note_on_c, 4, 68, 100
6, 33783, Note_on_c, 4, 68, 0
6, 33783, Note_on_c, 4, 71, 100
6, 33813, Note_on_c, 4, 71, 0
6, 33813, Note_on_c, 4, 73, 100
6, 33843, Note_on_c, 4, 73, 0
6, 33843, Note_on_c, 4, 75, 100
6, 33873, Note_on_c, 4, 75, 0
6, 33873, Note_on_c, 4, 73, 100
6, 33903, Note_on_c, 4, 73, 0
6, 33903, Note_on_c, 4, 68, 100
6, 33933, Note_on_c, 4, 68, 0
6, 33933, Note_on_c, 4, 71, 100
6, 33963, Note_on_c, 4, 71, 0
6, 33963, Note_on_c, 4, 73, 100
6, 33993, Note_on_c, 4, 73, 0
6, 33993, Note_on_c, 4, 75, 100
6, 34023, Note_on_c, 4, 75, 0
6, 34023, Note_on_c, 4, 73, 100
6, 34053, Note_on_c, 4, 73, 0
6, 34053, Note_on_c, 4, 68, 100
6, 34083, Note_on_c, 4, 68, 0
6, 34083, Pitch_bend_c, 4, 0
6, 34083, Note_on_c, 4, 73, 100
6, 34084, Pitch_bend_c, 4, 256
6, 34085, Pitch_bend_c, 4, 640
6, 34086, Pitch_bend_c, 4, 1024
6, 34087, Pitch_bend_c, 4, 1408
6, 34088, Pitch_bend_c, 4, 1664
6, 34089, Pitch_bend_c, 4, 2048
6, 34090, Pitch_bend_c, 4, 2432
6, 34091, Pitch_bend_c, 4, 2816
6, 34092, Pitch_bend_c, 4, 3200
6, 34093, Pitch_bend_c, 4, 3456
6, 34094, Pitch_bend_c, 4, 3840
6, 34095, Pitch_bend_c, 4, 4224
6, 34096, Pitch_bend_c, 4, 4608
6, 34097, Pitch_bend_c, 4, 4864
6, 34098, Pitch_bend_c, 4, 5248
6, 34099, Pitch_bend_c, 4, 5632
6, 34100, Pitch_bend_c, 4, 6016
6, 34101, Pitch_bend_c, 4, 6400
6, 34102, Pitch_bend_c, 4, 6656
6, 34103, Pitch_bend_c, 4, 7040
6, 34104, Pitch_bend_c, 4, 7424
6, 34105, Pitch_bend_c, 4, 7808
6, 34106, Pitch_bend_c, 4, 8192
6, 34143, Note_on_c, 4, 73, 0
6, 34143, Note_on_c, 4, 73, 100
6, 34173, Note_on_c, 4, 73, 0
6, 34173, Note_on_c, 4, 71, 100
6, 34203, Note_on_c, 4, 71, 0
6, 34203, Note_on_c, 4, 73, 100
6, 34233, Note_on_c, 4, 73, 0
6, 34233, Note_on_c, 4, 66, 100
6, 34263, Note_on_c, 4, 66, 0
6, 34263, Note_on_c, 4, 68, 100
6, 34293, Note_on_c, 4, 68, 0
6, 34293, Note_on_c, 4, 73, 100
6, 34323, Note_on_c, 4, 73, 0
6, 34323, Note_on_c, 4, 71, 100
6, 34353, Note_on_c, 4, 71, 0
6, 34353, Note_on_c, 4, 68, 100
6, 34383, Note_on_c, 4, 68, 0
6, 34383, Pitch_bend_c, 4, 128
6, 34383, Note_on_c, 4, 68, 100
6, 34384, Pitch_bend_c, 4, 768
6, 34385, Pitch_bend_c, 4, 1408
6, 34386, Pitch_bend_c, 4, 2048
6, 34387, Pitch_bend_c, 4, 2816
6, 34388, Pitch_bend_c, 4, 3456
6, 34389, Pitch_bend_c, 4, 4096
6, 34390, Pitch_bend_c, 4, 4736
6, 34391, Pitch_bend_c, 4, 5504
6, 34392, Pitch_bend_c, 4, 6144
6, 34393, Pitch_bend_c, 4, 6784
6, 34394, Pitch_bend_c, 4, 7424
6, 34395, Pitch_bend_c, 4, 8192
6, 34413, Note_on_c, 4, 68, 0
6, 34413, Note_on_c, 4, 68, 100
6, 34443, Note_on_c, 4, 68, 0
6, 34443, Note_on_c, 4, 64, 100
6, 34503, Note_on_c, 4, 64, 0
6, 34503, Note_on_c, 4, 68, 100
6, 34563, Note_on_c, 4, 68, 0
6, 34623, Pitch_bend_c, 4, 0
6, 34623, Note_on_c, 4, 73, 100
6, 34624, Pitch_bend_c, 4, 256
6, 34625, Pitch_bend_c, 4, 640
6, 34626, Pitch_bend_c, 4, 1024
6, 34627, Pitch_bend_c, 4, 1408
6, 34628, Pitch_bend_c, 4, 1792
6, 34629, Pitch_bend_c, 4, 2176
6, 34630, Pitch_bend_c, 4, 2560
6, 34631, Pitch_bend_c, 4, 2944
6, 34632, Pitch_bend_c, 4, 3328
6, 34633, Pitch_bend_c, 4, 3712
6, 34634, Pitch_bend_c, 4, 4096
6, 34635, Pitch_bend_c, 4, 4352
6, 34636, Pitch_bend_c, 4, 4736
6, 34637, Pitch_bend_c, 4, 5120
6, 34638, Pitch_bend_c, 4, 5504
6, 34639, Pitch_bend_c, 4, 5888
6, 34640, Pitch_bend_c, 4, 6272
6, 34641, Pitch_bend_c, 4, 6656
6, 34642, Pitch_bend_c, 4, 7040
6, 34643, Pitch_bend_c, 4, 7424
6, 34644, Pitch_bend_c, 4, 7808
6, 34645, Pitch_bend_c, 4, 8192
6, 34683, Note_on_c, 4, 73, 0
6, 34683, Note_on_c, 4, 73, 100
6, 34743, Note_on_c, 4, 73, 0
6, 34743, Pitch_bend_c, 4, 128
6, 34743, Note_on_c, 4, 73, 100
6, 34744, Pitch_bend_c, 4, 512
6, 34745, Pitch_bend_c, 4, 1024
6, 34746, Pitch_bend_c, 4, 1536
6, 34747, Pitch_bend_c, 4, 1920
6, 34748, Pitch_bend_c, 4, 2432
6, 34749, Pitch_bend_c, 4, 2944
6, 34750, Pitch_bend_c, 4, 3328
6, 34751, Pitch_bend_c, 4, 3840
6, 34752, Pitch_bend_c, 4, 4352
6, 34753, Pitch_bend_c, 4, 4864
6, 34754, Pitch_bend_c, 4, 5248
6, 34755, Pitch_bend_c, 4, 5760
6, 34756, Pitch_bend_c, 4, 6272
6, 34757, Pitch_bend_c, 4, 6656
6, 34758, Pitch_bend_c, 4, 7168
6, 34759, Pitch_bend_c, 4, 7680
6, 34760, Pitch_bend_c, 4, 8192
6, 34803, Note_on_c, 4, 73, 0
6, 34803, Note_on_c, 4, 73, 100
6, 34816, Pitch_bend_c, 4, 8832
6, 34829, Pitch_bend_c, 4, 7680
6, 34842, Pitch_bend_c, 4, 8576
6, 34854, Pitch_bend_c, 4, 7808
6, 34863, Note_on_c, 4, 73, 0
6, 34863, Pitch_bend_c, 4, 8832
6, 34873, Pitch_bend_c, 4, 7808
6, 34882, Pitch_bend_c, 4, 8576
6, 34897, Pitch_bend_c, 4, 8192
6, 35043, Note_on_c, 4, 75, 100
6, 35043, Pitch_bend_c, 4, 0
6, 35044, Pitch_bend_c, 4, 128
6, 35045, Pitch_bend_c, 4, 256
6, 35046, Pitch_bend_c, 4, 512
6, 35047, Pitch_bend_c, 4, 640
6, 35048, Pitch_bend_c, 4, 896
6, 35049, Pitch_bend_c, 4, 1024
6, 35050, Pitch_bend_c, 4, 1152
6, 35051, Pitch_bend_c, 4, 1408
6, 35052, Pitch_bend_c, 4, 1536
6, 35053, Pitch_bend_c, 4, 1792
6, 35054, Pitch_bend_c, 4, 1920
6, 35055, Pitch_bend_c, 4, 2176
6, 35056, Pitch_bend_c, 4, 2304
6, 35057, Pitch_bend_c, 4, 2432
6, 35058, Pitch_bend_c, 4, 2688
6, 35059, Pitch_bend_c, 4, 2816
6, 35060, Pitch_bend_c, 4, 3072
6, 35061, Pitch_bend_c, 4, 3200
6, 35062, Pitch_bend_c, 4, 3456
6, 35063, Pitch_bend_c, 4, 3584
6, 35064, Pitch_bend_c, 4, 3712
6, 35065, Pitch_bend_c, 4, 3968
6, 35066, Pitch_bend_c, 4, 4096
6, 35067, Pitch_bend_c, 4, 4352
6, 35068, Pitch_bend_c, 4, 4480
6, 35069, Pitch_bend_c, 4, 4608
6, 35070, Pitch_bend_c, 4, 4864
6, 35071, Pitch_bend_c, 4, 4992
6, 35072, Pitch_bend_c, 4, 5248
6, 35073, Pitch_bend_c, 4, 5376
6, 35074, Pitch_bend_c, 4, 5632
6, 35075, Pitch_bend_c, 4, 5760
6, 35076, Pitch_bend_c, 4, 5888
6, 35077, Pitch_bend_c, 4, 6144
6, 35078, Pitch_bend_c, 4, 6272
6, 35079, Pitch_bend_c, 4, 6528
6, 35080, Pitch_bend_c, 4, 6656
6, 35081, Pitch_bend_c, 4, 6912
6, 35082, Pitch_bend_c, 4, 7040
6, 35083, Pitch_bend_c, 4, 7168
6, 35084, Pitch_bend_c, 4, 7424
6, 35085, Pitch_bend_c, 4, 7552
6, 35086, Pitch_bend_c, 4, 7808
6, 35087, Pitch_bend_c, 4, 7936
6, 35088, Pitch_bend_c, 4, 8192
6, 35133, Note_on_c, 4, 75, 0
6, 35133, Note_on_c, 4, 73, 100
6, 35133, Pitch_bend_c, 4, 15360
6, 35137, Pitch_bend_c, 4, 15488
6, 35139, Pitch_bend_c, 4, 15616
6, 35142, Pitch_bend_c, 4, 15744
6, 35143, Pitch_bend_c, 4, 15872
6, 35145, Pitch_bend_c, 4, 16000
6, 35146, Pitch_bend_c, 4, 16128
6, 35149, Pitch_bend_c, 4, 16256
6, 35150, Pitch_bend_c, 4, 16383
6, 35254, Pitch_bend_c, 4, 16256
6, 35255, Pitch_bend_c, 4, 16000
6, 35256, Pitch_bend_c, 4, 15744
6, 35257, Pitch_bend_c, 4, 15488
6, 35258, Pitch_bend_c, 4, 14976
6, 35259, Pitch_bend_c, 4, 14464
6, 35260, Pitch_bend_c, 4, 13952
6, 35261, Pitch_bend_c, 4, 13440
6, 35262, Pitch_bend_c, 4, 13056
6, 35263, Pitch_bend_c, 4, 12160
6, 35264, Pitch_bend_c, 4, 11648
6, 35265, Pitch_bend_c, 4, 11136
6, 35266, Pitch_bend_c, 4, 10624
6, 35267, Pitch_bend_c, 4, 9600
6, 35268, Pitch_bend_c, 4, 9088
6, 35269, Pitch_bend_c, 4, 7808
6, 35270, Pitch_bend_c, 4, 7040
6, 35271, Pitch_bend_c, 4, 6144
6, 35272, Pitch_bend_c, 4, 5632
6, 35273, Pitch_bend_c, 4, 4352
6, 35274, Pitch_bend_c, 4, 2816
6, 35275, Pitch_bend_c, 4, 1792
6, 35276, Pitch_bend_c, 4, 1024
6, 35277, Pitch_bend_c, 4, 128
6, 35283, Note_on_c, 4, 73, 0
6, 35283, Pitch_bend_c, 4, 8192
6, 35403, Note_on_c, 4, 71, 60
6, 35433, Note_on_c, 4, 71, 0
6, 35433, Note_on_c, 4, 71, 60
6, 35463, Note_on_c, 4, 71, 0
6, 35463, Note_on_c, 4, 71, 60
6, 35493, Note_on_c, 4, 71, 0
6, 35493, Note_on_c, 4, 71, 60
6, 35523, Note_on_c, 4, 71, 0
6, 35523, Note_on_c, 4, 68, 100
6, 35583, Note_on_c, 4, 68, 0
6, 37203, Note_on_c, 4, 57, 70
6, 37233, Note_on_c, 4, 57, 0
6, 37233, Note_on_c, 4, 57, 70
6, 37263, Note_on_c, 4, 57, 0
6, 37263, Note_on_c, 4, 57, 70
6, 37293, Note_on_c, 4, 57, 0
6, 37293, Note_on_c, 4, 57, 70
6, 37323, Note_on_c, 4, 57, 0
6, 37323, Note_on_c, 4, 57, 70
6, 37353, Note_on_c, 4, 57, 0
6, 37353, Note_on_c, 4, 57, 70
6, 37383, Note_on_c, 4, 57, 0
6, 37383, Note_on_c, 4, 57, 70
6, 37413, Note_on_c, 4, 57, 0
6, 37413, Note_on_c, 4, 57, 70
6, 37443, Note_on_c, 4, 57, 0
6, 41103, Note_on_c, 4, 64, 100
6, 41103, Note_on_c, 4, 59, 100
6, 41108, Pitch_bend_c, 4, 8192
6, 41109, Pitch_bend_c, 4, 8448
6, 41110, Pitch_bend_c, 4, 8704
6, 41111, Pitch_bend_c, 4, 8960
6, 41112, Pitch_bend_c, 4, 9472
6, 41113, Pitch_bend_c, 4, 9728
6, 41114, Pitch_bend_c, 4, 10496
6, 41115, Pitch_bend_c, 4, 16383
6, 41116, Pitch_bend_c, 4, 12288
6, 41117, Pitch_bend_c, 4, 12032
6, 41118, Pitch_bend_c, 4, 11776
6, 41119, Pitch_bend_c, 4, 11520
6, 41120, Pitch_bend_c, 4, 11264
6, 41121, Pitch_bend_c, 4, 8960
6, 41122, Pitch_bend_c, 4, 8448
6, 41123, Pitch_bend_c, 4, 8576
6, 41124, Pitch_bend_c, 4, 8320
6, 41130, Pitch_bend_c, 4, 8192
6, 41283, Note_on_c, 4, 59, 0
6, 41283, Note_on_c, 4, 64, 0
6, 43983, Pitch_bend_c, 4, 8320
6, 43983, Note_on_c, 4, 76, 100
6, 43983, Note_on_c, 4, 71, 100
6, 43985, Pitch_bend_c, 4, 8448
6, 43986, Pitch_bend_c, 4, 8576
6, 43987, Pitch_bend_c, 4, 8704
6, 43988, Pitch_bend_c, 4, 8832
6, 43989, Pitch_bend_c, 4, 9088
6, 43990, Pitch_bend_c, 4, 9216
6, 43991, Pitch_bend_c, 4, 9600
6, 43992, Pitch_bend_c, 4, 9728
6, 43993, Pitch_bend_c, 4, 10112
6, 43994, Pitch_bend_c, 4, 10624
6, 43995, Pitch_bend_c, 4, 11392
6, 43996, Pitch_bend_c, 4, 11904
6, 43997, Pitch_bend_c, 4, 12416
6, 43998, Pitch_bend_c, 4, 12928
6, 43999, Pitch_bend_c, 4, 13184
6, 44000, Pitch_bend_c, 4, 13440
6, 44001, Pitch_bend_c, 4, 13952
6, 44002, Pitch_bend_c, 4, 14208
6, 44003, Pitch_bend_c, 4, 14720
6, 44004, Pitch_bend_c, 4, 14848
6, 44005, Pitch_bend_c, 4, 15232
6, 44006, Pitch_bend_c, 4, 15488
6, 44007, Pitch_bend_c, 4, 15744
6, 44008, Pitch_bend_c, 4, 15872
6, 44009, Pitch_bend_c, 4, 16000
6, 44010, Pitch_bend_c, 4, 16128
6, 44011, Pitch_bend_c, 4, 16256
6, 44013, Pitch_bend_c, 4, 16383
6, 44024, Pitch_bend_c, 4, 16256
6, 44025, Pitch_bend_c, 4, 15232
6, 44026, Pitch_bend_c, 4, 14464
6, 44027, Pitch_bend_c, 4, 13952
6, 44028, Pitch_bend_c, 4, 13440
6, 44029, Pitch_bend_c, 4, 12672
6, 44030, Pitch_bend_c, 4, 11904
6, 44031, Pitch_bend_c, 4, 10880
6, 44032, Pitch_bend_c, 4, 10368
6, 44033, Pitch_bend_c, 4, 9600
6, 44034, Pitch_bend_c, 4, 9216
6, 44035, Pitch_bend_c, 4, 8832
6, 44036, Pitch_bend_c, 4, 8576
6, 44037, Pitch_bend_c, 4, 8320
6, 44039, Pitch_bend_c, 4, 8192
6, 44163, Note_on_c, 4, 71, 0
6, 44163, Note_on_c, 4, 76, 0
6, 45903, Note_on_c, 4, 64, 100
6, 45903, Note_on_c, 4, 59, 100
6, 45903, Pitch_bend_c, 4, 8320
6, 45905, Pitch_bend_c, 4, 8448
6, 45906, Pitch_bend_c, 4, 8576
6, 45907, Pitch_bend_c, 4, 8704
6, 45908, Pitch_bend_c, 4, 8832
6, 45909, Pitch_bend_c, 4, 9088
6, 45910, Pitch_bend_c, 4, 9216
6, 45911, Pitch_bend_c, 4, 9600
6, 45912, Pitch_bend_c, 4, 9728
6, 45913, Pitch_bend_c, 4, 10112
6, 45914, Pitch_bend_c, 4, 10624
6, 45915, Pitch_bend_c, 4, 11392
6, 45916, Pitch_bend_c, 4, 11904
6, 45917, Pitch_bend_c, 4, 12416
6, 45918, Pitch_bend_c, 4, 12928
6, 45919, Pitch_bend_c, 4, 13184
6, 45920, Pitch_bend_c, 4, 13440
6, 45921, Pitch_bend_c, 4, 13952
6, 45922, Pitch_bend_c, 4, 14208
6, 45923, Pitch_bend_c, 4, 14720
6, 45924, Pitch_bend_c, 4, 14848
6, 45925, Pitch_bend_c, 4, 15232
6, 45926, Pitch_bend_c, 4, 15488
6, 45927, Pitch_bend_c, 4, 15744
6, 45928, Pitch_bend_c, 4, 15872
6, 45929, Pitch_bend_c, 4, 16000
6, 45930, Pitch_bend_c, 4, 16128
6, 45931, Pitch_bend_c, 4, 16256
6, 45933, Pitch_bend_c, 4, 16383
6, 45944, Pitch_bend_c, 4, 16256
6, 45945, Pitch_bend_c, 4, 15232
6, 45946, Pitch_bend_c, 4, 14464
6, 45947, Pitch_bend_c, 4, 13952
6, 45948, Pitch_bend_c, 4, 13440
6, 45949, Pitch_bend_c, 4, 12672
6, 45950, Pitch_bend_c, 4, 11904
6, 45951, Pitch_bend_c, 4, 10880
6, 45952, Pitch_bend_c, 4, 10368
6, 45953, Pitch_bend_c, 4, 9600
6, 45954, Pitch_bend_c, 4, 9216
6, 45955, Pitch_bend_c, 4, 8832
6, 45956, Pitch_bend_c, 4, 8576
6, 45957, Pitch_bend_c, 4, 8320
6, 45959, Pitch_bend_c, 4, 8192
6, 46083, Note_on_c, 4, 59, 0
6, 46083, Note_on_c, 4, 64, 0
6, 46563, Program_c, 4, 31
6, 46563, Note_on_c, 4, 47, 100
6, 46593, Note_on_c, 4, 52, 100
6, 46623, Note_on_c, 4, 47, 0
6, 46623, Note_on_c, 4, 47, 100
6, 46653, Note_on_c, 4, 52, 0
6, 46653, Pitch_bend_c, 4, 128
6, 46653, Note_on_c, 4, 57, 100
6, 46657, Pitch_bend_c, 4, 384
6, 46659, Pitch_bend_c, 4, 640
6, 46660, Pitch_bend_c, 4, 896
6, 46661, Pitch_bend_c, 4, 1152
6, 46662, Pitch_bend_c, 4, 1664
6, 46663, Pitch_bend_c, 4, 2176
6, 46664, Pitch_bend_c, 4, 2688
6, 46665, Pitch_bend_c, 4, 3712
6, 46666, Pitch_bend_c, 4, 4224
6, 46667, Pitch_bend_c, 4, 4736
6, 46668, Pitch_bend_c, 4, 5248
6, 46669, Pitch_bend_c, 4, 5504
6, 46670, Pitch_bend_c, 4, 5760
6, 46671, Pitch_bend_c, 4, 6272
6, 46672, Pitch_bend_c, 4, 6528
6, 46673, Pitch_bend_c, 4, 6784
6, 46674, Pitch_bend_c, 4, 7040
6, 46675, Pitch_bend_c, 4, 8064
6, 46680, Pitch_bend_c, 4, 8192
6, 46683, Note_on_c, 4, 57, 0
6, 46683, Note_on_c, 4, 47, 0
6, 46683, Note_on_c, 4, 47, 100
6, 46683, Note_on_c, 4, 52, 100
6, 46773, Note_on_c, 4, 52, 100
6, 46773, Note_on_c, 4, 47, 100
6, 46803, Note_on_c, 4, 47, 100
6, 46803, Note_on_c, 4, 52, 100
6, 46833, Note_on_c, 4, 52, 0
6, 46833, Note_on_c, 4, 47, 0
6, 46863, Note_on_c, 4, 47, 0
6, 46863, Note_on_c, 4, 52, 0
6, 46863, Note_on_c, 4, 52, 100
6, 46863, Note_on_c, 4, 47, 100
6, 46893, Note_on_c, 4, 52, 100
6, 46893, Note_on_c, 4, 47, 100
6, 46923, Note_on_c, 4, 47, 0
6, 46923, Note_on_c, 4, 52, 0
6, 46923, Note_on_c, 4, 47, 0
6, 46923, Note_on_c, 4, 52, 0
6, 46923, Note_on_c, 4, 49, 100
6, 46923, Note_on_c, 4, 54, 100
6, 46953, Note_on_c, 4, 47, 0
6, 46953, Note_on_c, 4, 52, 0
6, 46953, Note_on_c, 4, 54, 100
6, 46953, Note_on_c, 4, 49, 100
6, 46983, Note_on_c, 4, 49, 0
6, 46983, Note_on_c, 4, 54, 0
6, 46983, Note_on_c, 4, 47, 100
6, 46983, Note_on_c, 4, 52, 100
6, 47013, Note_on_c, 4, 54, 0
6, 47013, Note_on_c, 4, 49, 0
6, 47013, Note_on_c, 4, 52, 100
6, 47013, Note_on_c, 4, 47, 100
6, 47043, Note_on_c, 4, 47, 0
6, 47043, Note_on_c, 4, 52, 0
6, 47043, Note_on_c, 4, 47, 0
6, 47043, Note_on_c, 4, 52, 0
6, 47043, Note_on_c, 4, 73, 100
6, 47044, Pitch_bend_c, 4, 0
6, 47046, Pitch_bend_c, 4, 128
6, 47047, Pitch_bend_c, 4, 256
6, 47048, Pitch_bend_c, 4, 384
6, 47049, Pitch_bend_c, 4, 512
6, 47051, Pitch_bend_c, 4, 640
6, 47052, Pitch_bend_c, 4, 768
6, 47053, Pitch_bend_c, 4, 896
6, 47054, Pitch_bend_c, 4, 1024
6, 47056, Pitch_bend_c, 4, 1152
6, 47057, Pitch_bend_c, 4, 1280
6, 47058, Pitch_bend_c, 4, 1408
6, 47059, Pitch_bend_c, 4, 1536
6, 47061, Pitch_bend_c, 4, 1664
6, 47062, Pitch_bend_c, 4, 1792
6, 47063, Pitch_bend_c, 4, 1920
6, 47064, Pitch_bend_c, 4, 2048
6, 47065, Pitch_bend_c, 4, 2176
6, 47067, Pitch_bend_c, 4, 2304
6, 47068, Pitch_bend_c, 4, 2432
6, 47069, Pitch_bend_c, 4, 2560
6, 47070, Pitch_bend_c, 4, 2688
6, 47072, Pitch_bend_c, 4, 2816
6, 47073, Pitch_bend_c, 4, 2944
6, 47074, Pitch_bend_c, 4, 3072
6, 47075, Pitch_bend_c, 4, 3200
6, 47077, Pitch_bend_c, 4, 3328
6, 47078, Pitch_bend_c, 4, 3456
6, 47079, Pitch_bend_c, 4, 3584
6, 47080, Pitch_bend_c, 4, 3712
6, 47082, Pitch_bend_c, 4, 3840
6, 47083, Pitch_bend_c, 4, 3968
6, 47084, Pitch_bend_c, 4, 4096
6, 47085, Pitch_bend_c, 4, 4224
6, 47086, Pitch_bend_c, 4, 4352
6, 47088, Pitch_bend_c, 4, 4480
6, 47089, Pitch_bend_c, 4, 4608
6, 47090, Pitch_bend_c, 4, 4736
6, 47091, Pitch_bend_c, 4, 4864
6, 47093, Pitch_bend_c, 4, 4992
6, 47094, Pitch_bend_c, 4, 5120
6, 47095, Pitch_bend_c, 4, 5248
6, 47096, Pitch_bend_c, 4, 5376
6, 47098, Pitch_bend_c, 4, 5504
6, 47099, Pitch_bend_c, 4, 5632
6, 47100, Pitch_bend_c, 4, 5760
6, 47101, Pitch_bend_c, 4, 5888
6, 47103, Pitch_bend_c, 4, 6016
6, 47104, Pitch_bend_c, 4, 6144
6, 47105, Pitch_bend_c, 4, 6272
6, 47106, Pitch_bend_c, 4, 6400
6, 47107, Pitch_bend_c, 4, 6528
6, 47109, Pitch_bend_c, 4, 6656
6, 47110, Pitch_bend_c, 4, 6784
6, 47111, Pitch_bend_c, 4, 6912
6, 47112, Pitch_bend_c, 4, 7040
6, 47114, Pitch_bend_c, 4, 7168
6, 47115, Pitch_bend_c, 4, 7296
6, 47116, Pitch_bend_c, 4, 7424
6, 47117, Pitch_bend_c, 4, 7552
6, 47119, Pitch_bend_c, 4, 7680
6, 47120, Pitch_bend_c, 4, 7808
6, 47121, Pitch_bend_c, 4, 7936
6, 47122, Pitch_bend_c, 4, 8064
6, 47123, Pitch_bend_c, 4, 8192
6, 47133, Note_on_c, 4, 73, 0
6, 47133, Note_on_c, 4, 73, 100
6, 47163, Note_on_c, 4, 73, 0
6, 47163, Note_on_c, 4, 73, 100
6, 47223, Note_on_c, 4, 73, 0
6, 47223, Note_on_c, 4, 73, 100
6, 47283, Note_on_c, 4, 73, 0
6, 47283, Note_on_c, 4, 73, 100
6, 47463, Note_on_c, 4, 73, 0
6, 47463, Note_on_c, 4, 73, 100
6, 47493, Note_on_c, 4, 73, 0
6, 47493, Note_on_c, 4, 73, 100
6, 47523, Note_on_c, 4, 73, 0
6, 47523, Pitch_bend_c, 4, 0
6, 47523, Note_on_c, 4, 73, 100
6, 47524, Pitch_bend_c, 4, 256
6, 47525, Pitch_bend_c, 4, 512
6, 47526, Pitch_bend_c, 4, 768
6, 47527, Pitch_bend_c, 4, 1152
6, 47528, Pitch_bend_c, 4, 1408
6, 47529, Pitch_bend_c, 4, 1664
6, 47530, Pitch_bend_c, 4, 2048
6, 47531, Pitch_bend_c, 4, 2304
6, 47532, Pitch_bend_c, 4, 2560
6, 47533, Pitch_bend_c, 4, 2816
6, 47534, Pitch_bend_c, 4, 3200
6, 47535, Pitch_bend_c, 4, 3456
6, 47536, Pitch_bend_c, 4, 3712
6, 47537, Pitch_bend_c, 4, 4096
6, 47538, Pitch_bend_c, 4, 4352
6, 47539, Pitch_bend_c, 4, 4608
6, 47540, Pitch_bend_c, 4, 4864
6, 47541, Pitch_bend_c, 4, 5248
6, 47542, Pitch_bend_c, 4, 5504
6, 47543, Pitch_bend_c, 4, 5760
6, 47544, Pitch_bend_c, 4, 6144
6, 47545, Pitch_bend_c, 4, 6400
6, 47546, Pitch_bend_c, 4, 6656
6, 47547, Pitch_bend_c, 4, 6912
6, 47548, Pitch_bend_c, 4, 7296
6, 47549, Pitch_bend_c, 4, 7552
6, 47550, Pitch_bend_c, 4, 7808
6, 47551, Pitch_bend_c, 4, 8192
6, 47583, Note_on_c, 4, 73, 0
6, 47583, Note_on_c, 4, 73, 100
6, 47643, Note_on_c, 4, 73, 0
6, 47643, Note_on_c, 4, 73, 100
6, 47703, Note_on_c, 4, 73, 0
6, 47703, Note_on_c, 4, 73, 100
6, 47763, Note_on_c, 4, 73, 0
6, 47763, Note_on_c, 4, 73, 100
6, 47770, Pitch_bend_c, 4, 7808
6, 47783, Pitch_bend_c, 4, 8704
6, 47793, Pitch_bend_c, 4, 7680
6, 47805, Pitch_bend_c, 4, 8704
6, 47814, Pitch_bend_c, 4, 7680
6, 47825, Pitch_bend_c, 4, 8832
6, 47831, Pitch_bend_c, 4, 7552
6, 47843, Pitch_bend_c, 4, 8832
6, 47848, Pitch_bend_c, 4, 7680
6, 47859, Pitch_bend_c, 4, 8576
6, 47871, Pitch_bend_c, 4, 8192
6, 47873, Pitch_bend_c, 4, 8448
6, 47874, Pitch_bend_c, 4, 8704
6, 47875, Pitch_bend_c, 4, 8832
6, 47876, Pitch_bend_c, 4, 8192
6, 47877, Pitch_bend_c, 4, 8064
6, 47878, Pitch_bend_c, 4, 7936
6, 47882, Pitch_bend_c, 4, 8960
6, 47884, Pitch_bend_c, 4, 9088
6, 47885, Pitch_bend_c, 4, 8448
6, 47886, Pitch_bend_c, 4, 7936
6, 47889, Pitch_bend_c, 4, 8064
6, 47890, Pitch_bend_c, 4, 8704
6, 47891, Pitch_bend_c, 4, 9088
6, 47892, Pitch_bend_c, 4, 7552
6, 47895, Pitch_bend_c, 4, 7808
6, 47896, Pitch_bend_c, 4, 8064
6, 47897, Pitch_bend_c, 4, 8576
6, 47898, Pitch_bend_c, 4, 8832
6, 47899, Pitch_bend_c, 4, 7808
6, 47904, Pitch_bend_c, 4, 8064
6, 47905, Pitch_bend_c, 4, 8320
6, 47906, Pitch_bend_c, 4, 8576
6, 47907, Pitch_bend_c, 4, 8960
6, 47908, Pitch_bend_c, 4, 7808
6, 47914, Pitch_bend_c, 4, 8064
6, 47916, Pitch_bend_c, 4, 8576
6, 47917, Pitch_bend_c, 4, 8704
6, 47918, Pitch_bend_c, 4, 8064
6, 47922, Pitch_bend_c, 4, 8320
6, 47923, Pitch_bend_c, 4, 8576
6, 47924, Pitch_bend_c, 4, 8832
6, 47925, Pitch_bend_c, 4, 9088
6, 47926, Pitch_bend_c, 4, 7552
6, 47931, Pitch_bend_c, 4, 8064
6, 47932, Pitch_bend_c, 4, 8192
6, 47933, Pitch_bend_c, 4, 8448
6, 47934, Pitch_bend_c, 4, 8576
6, 47936, Pitch_bend_c, 4, 7552
6, 47940, Pitch_bend_c, 4, 7808
6, 47941, Pitch_bend_c, 4, 8064
6, 47942, Pitch_bend_c, 4, 8320
6, 47943, Pitch_bend_c, 4, 8576
6, 47944, Pitch_bend_c, 4, 8064
6, 47945, Pitch_bend_c, 4, 7808
6, 47946, Pitch_bend_c, 4, 7680
6, 47947, Pitch_bend_c, 4, 7552
6, 47952, Pitch_bend_c, 4, 7808
6, 47953, Pitch_bend_c, 4, 8064
6, 47954, Pitch_bend_c, 4, 8448
6, 47957, Pitch_bend_c, 4, 8576
6, 47961, Pitch_bend_c, 4, 8704
6, 47962, Pitch_bend_c, 4, 8320
6, 47966, Pitch_bend_c, 4, 8064
6, 47968, Pitch_bend_c, 4, 7936
6, 47974, Pitch_bend_c, 4, 8064
6, 47975, Pitch_bend_c, 4, 8192
6, 47976, Pitch_bend_c, 4, 8320
6, 47977, Pitch_bend_c, 4, 8192
6, 48003, Note_on_c, 4, 73, 0
6, 48003, Pitch_bend_c, 4, 128
6, 48005, Pitch_bend_c, 4, 128
6, 48013, Pitch_bend_c, 4, 256
6, 48015, Pitch_bend_c, 4, 384
6, 48017, Pitch_bend_c, 4, 512
6, 48019, Pitch_bend_c, 4, 640
6, 48021, Pitch_bend_c, 4, 768
6, 48023, Pitch_bend_c, 4, 896
6, 48025, Pitch_bend_c, 4, 1024
6, 48028, Pitch_bend_c, 4, 1280
6, 48029, Pitch_bend_c, 4, 1408
6, 48030, Pitch_bend_c, 4, 1536
6, 48031, Pitch_bend_c, 4, 1792
6, 48032, Pitch_bend_c, 4, 1920
6, 48033, Pitch_bend_c, 4, 2048
6, 48034, Pitch_bend_c, 4, 2304
6, 48035, Pitch_bend_c, 4, 2560
6, 48036, Pitch_bend_c, 4, 2816
6, 48037, Pitch_bend_c, 4, 3072
6, 48038, Pitch_bend_c, 4, 3584
6, 48039, Pitch_bend_c, 4, 3840
6, 48040, Pitch_bend_c, 4, 4096
6, 48041, Pitch_bend_c, 4, 4608
6, 48043, Pitch_bend_c, 4, 4864
6, 48044, Pitch_bend_c, 4, 4992
6, 48045, Pitch_bend_c, 4, 5248
6, 48046, Pitch_bend_c, 4, 5376
6, 48047, Pitch_bend_c, 4, 5632
6, 48048, Pitch_bend_c, 4, 5760
6, 48049, Pitch_bend_c, 4, 5888
6, 48050, Pitch_bend_c, 4, 6144
6, 48051, Pitch_bend_c, 4, 6400
6, 48052, Pitch_bend_c, 4, 6656
6, 48053, Pitch_bend_c, 4, 7296
6, 48054, Pitch_bend_c, 4, 7424
6, 48055, Pitch_bend_c, 4, 7552
6, 48056, Pitch_bend_c, 4, 7680
6, 48061, Pitch_bend_c, 4, 7808
6, 48062, Pitch_bend_c, 4, 7936
6, 48063, Pitch_bend_c, 4, 8192
6, 48063, Note_on_c, 4, 75, 100
6, 48123, Note_on_c, 4, 75, 0
6, 48123, Note_on_c, 4, 75, 100
6, 48183, Note_on_c, 4, 75, 0
6, 48183, Note_on_c, 4, 75, 100
6, 48243, Note_on_c, 4, 75, 0
6, 48243, Note_on_c, 4, 75, 100
6, 48483, Note_on_c, 4, 75, 0
6, 48483, Pitch_bend_c, 4, 128
6, 48483, Note_on_c, 4, 75, 100
6, 48485, Pitch_bend_c, 4, 256
6, 48486, Pitch_bend_c, 4, 512
6, 48487, Pitch_bend_c, 4, 768
6, 48488, Pitch_bend_c, 4, 1024
6, 48489, Pitch_bend_c, 4, 1280
6, 48490, Pitch_bend_c, 4, 1536
6, 48491, Pitch_bend_c, 4, 1792
6, 48493, Pitch_bend_c, 4, 2048
6, 48494, Pitch_bend_c, 4, 2304
6, 48496, Pitch_bend_c, 4, 2560
6, 48497, Pitch_bend_c, 4, 2816
6, 48499, Pitch_bend_c, 4, 3072
6, 48500, Pitch_bend_c, 4, 3328
6, 48501, Pitch_bend_c, 4, 3584
6, 48503, Pitch_bend_c, 4, 3840
6, 48504, Pitch_bend_c, 4, 4096
6, 48505, Pitch_bend_c, 4, 4352
6, 48507, Pitch_bend_c, 4, 4608
6, 48509, Pitch_bend_c, 4, 4864
6, 48510, Pitch_bend_c, 4, 5120
6, 48512, Pitch_bend_c, 4, 5376
6, 48513, Pitch_bend_c, 4, 5632
6, 48515, Pitch_bend_c, 4, 5760
6, 48516, Pitch_bend_c, 4, 5888
6, 48517, Pitch_bend_c, 4, 6144
6, 48518, Pitch_bend_c, 4, 6272
6, 48519, Pitch_bend_c, 4, 6400
6, 48520, Pitch_bend_c, 4, 6528
6, 48521, Pitch_bend_c, 4, 6656
6, 48523, Pitch_bend_c, 4, 6912
6, 48525, Pitch_bend_c, 4, 7040
6, 48526, Pitch_bend_c, 4, 7168
6, 48528, Pitch_bend_c, 4, 7296
6, 48529, Pitch_bend_c, 4, 7424
6, 48530, Pitch_bend_c, 4, 7680
6, 48531, Pitch_bend_c, 4, 7808
6, 48532, Pitch_bend_c, 4, 7936
6, 48535, Pitch_bend_c, 4, 8064
6, 48536, Pitch_bend_c, 4, 8192
6, 48543, Note_on_c, 4, 75, 0
6, 48543, Note_on_c, 4, 76, 100
6, 48603, Note_on_c, 4, 76, 0
6, 48603, Note_on_c, 4, 75, 100
6, 48663, Note_on_c, 4, 75, 0
6, 48663, Note_on_c, 4, 73, 100
6, 48723, Note_on_c, 4, 73, 0
6, 48723, Note_on_c, 4, 75, 100
6, 48723, Pitch_bend_c, 4, 128
6, 48725, Pitch_bend_c, 4, 256
6, 48726, Pitch_bend_c, 4, 384
6, 48728, Pitch_bend_c, 4, 512
6, 48729, Pitch_bend_c, 4, 640
6, 48730, Pitch_bend_c, 4, 768
6, 48732, Pitch_bend_c, 4, 896
6, 48733, Pitch_bend_c, 4, 1024
6, 48734, Pitch_bend_c, 4, 1152
6, 48736, Pitch_bend_c, 4, 1280
6, 48737, Pitch_bend_c, 4, 1408
6, 48739, Pitch_bend_c, 4, 1536
6, 48740, Pitch_bend_c, 4, 1664
6, 48741, Pitch_bend_c, 4, 1792
6, 48743, Pitch_bend_c, 4, 1920
6, 48744, Pitch_bend_c, 4, 2048
6, 48745, Pitch_bend_c, 4, 2176
6, 48747, Pitch_bend_c, 4, 2304
6, 48748, Pitch_bend_c, 4, 2432
6, 48749, Pitch_bend_c, 4, 2560
6, 48751, Pitch_bend_c, 4, 2688
6, 48752, Pitch_bend_c, 4, 2816
6, 48754, Pitch_bend_c, 4, 2944
6, 48755, Pitch_bend_c, 4, 3072
6, 48756, Pitch_bend_c, 4, 3200
6, 48758, Pitch_bend_c, 4, 3328
6, 48759, Pitch_bend_c, 4, 3456
6, 48760, Pitch_bend_c, 4, 3584
6, 48762, Pitch_bend_c, 4, 3712
6, 48763, Pitch_bend_c, 4, 3840
6, 48764, Pitch_bend_c, 4, 3968
6, 48766, Pitch_bend_c, 4, 4096
6, 48767, Pitch_bend_c, 4, 4224
6, 48769, Pitch_bend_c, 4, 4352
6, 48770, Pitch_bend_c, 4, 4480
6, 48771, Pitch_bend_c, 4, 4608
6, 48773, Pitch_bend_c, 4, 4736
6, 48774, Pitch_bend_c, 4, 4864
6, 48775, Pitch_bend_c, 4, 4992
6, 48777, Pitch_bend_c, 4, 5120
6, 48778, Pitch_bend_c, 4, 5248
6, 48779, Pitch_bend_c, 4, 5376
6, 48781, Pitch_bend_c, 4, 5504
6, 48782, Pitch_bend_c, 4, 5632
6, 48784, Pitch_bend_c, 4, 5760
6, 48785, Pitch_bend_c, 4, 5888
6, 48786, Pitch_bend_c, 4, 6016
6, 48788, Pitch_bend_c, 4, 6144
6, 48789, Pitch_bend_c, 4, 6272
6, 48790, Pitch_bend_c, 4, 6400
6, 48792, Pitch_bend_c, 4, 6528
6, 48793, Pitch_bend_c, 4, 6656
6, 48794, Pitch_bend_c, 4, 6784
6, 48796, Pitch_bend_c, 4, 6912
6, 48797, Pitch_bend_c, 4, 7040
6, 48799, Pitch_bend_c, 4, 7168
6, 48800, Pitch_bend_c, 4, 7296
6, 48801, Pitch_bend_c, 4, 7424
6, 48803, Pitch_bend_c, 4, 7552
6, 48804, Pitch_bend_c, 4, 7680
6, 48805, Pitch_bend_c, 4, 7808
6, 48807, Pitch_bend_c, 4, 7936
6, 48808, Pitch_bend_c, 4, 8064
6, 48809, Pitch_bend_c, 4, 8192
6, 48963, Note_on_c, 4, 75, 0
6, 49023, Note_on_c, 4, 73, 100
6, 49023, Pitch_bend_c, 4, 256
6, 49024, Pitch_bend_c, 4, 512
6, 49025, Pitch_bend_c, 4, 768
6, 49026, Pitch_bend_c, 4, 1024
6, 49027, Pitch_bend_c, 4, 1280
6, 49028, Pitch_bend_c, 4, 1536
6, 49029, Pitch_bend_c, 4, 1792
6, 49030, Pitch_bend_c, 4, 2048
6, 49031, Pitch_bend_c, 4, 2432
6, 49032, Pitch_bend_c, 4, 2688
6, 49033, Pitch_bend_c, 4, 2944
6, 49034, Pitch_bend_c, 4, 3200
6, 49035, Pitch_bend_c, 4, 3456
6, 49036, Pitch_bend_c, 4, 3712
6, 49037, Pitch_bend_c, 4, 3968
6, 49038, Pitch_bend_c, 4, 4352
6, 49039, Pitch_bend_c, 4, 4608
6, 49040, Pitch_bend_c, 4, 4864
6, 49041, Pitch_bend_c, 4, 5120
6, 49042, Pitch_bend_c, 4, 5376
6, 49043, Pitch_bend_c, 4, 5632
6, 49044, Pitch_bend_c, 4, 5888
6, 49045, Pitch_bend_c, 4, 6272
6, 49046, Pitch_bend_c, 4, 6528
6, 49047, Pitch_bend_c, 4, 6784
6, 49048, Pitch_bend_c, 4, 7040
6, 49049, Pitch_bend_c, 4, 7296
6, 49050, Pitch_bend_c, 4, 7552
6, 49051, Pitch_bend_c, 4, 7808
6, 49052, Pitch_bend_c, 4, 8192
6, 49053, Note_on_c, 4, 73, 0
6, 49053, Note_on_c, 4, 73, 100
6, 49083, Note_on_c, 4, 73, 0
6, 49083, Note_on_c, 4, 73, 100
6, 49143, Note_on_c, 4, 73, 0
6, 49143, Note_on_c, 4, 73, 100
6, 49203, Note_on_c, 4, 73, 0
6, 49203, Note_on_c, 4, 73, 100
6, 49443, Note_on_c, 4, 73, 0
6, 49443, Note_on_c, 4, 73, 100
6, 49473, Note_on_c, 4, 73, 0
6, 49473, Note_on_c, 4, 73, 100
6, 49503, Note_on_c, 4, 73, 0
6, 49503, Note_on_c, 4, 73, 100
6, 49563, Note_on_c, 4, 73, 0
6, 49563, Note_on_c, 4, 73, 100
6, 49623, Note_on_c, 4, 73, 0
6, 49623, Note_on_c, 4, 73, 100
6, 49683, Note_on_c, 4, 73, 0
6, 49683, Note_on_c, 4, 73, 100
6, 49923, Note_on_c, 4, 73, 0
6, 49923, End_track
7, 0, Start_track
7, 0, MIDI_port, 0
7, 0, Title_t, "Mitch Mitchell"
7, 0, Program_c, 9, 0
7, 0, Control_c, 9, 7, 85
7, 765, Note_on_c, 9, 38, 100
7, 780, Note_on_c, 9, 38, 0
7, 780, Note_on_c, 9, 38, 100
7, 795, Note_on_c, 9, 38, 0
7, 825, Note_on_c, 9, 38, 100
7, 840, Note_on_c, 9, 38, 0
7, 840, Note_on_c, 9, 38, 100
7, 855, Note_on_c, 9, 38, 0
7, 900, Note_on_c, 9, 36, 100
7, 900, Note_on_c, 9, 26, 100
7, 915, Note_on_c, 9, 26, 0
7, 915, Note_on_c, 9, 36, 0
7, 960, Note_on_c, 9, 36, 100
7, 960, Note_on_c, 9, 26, 100
7, 975, Note_on_c, 9, 26, 0
7, 975, Note_on_c, 9, 36, 0
7, 1020, Note_on_c, 9, 36, 100
7, 1020, Note_on_c, 9, 26, 100
7, 1035, Note_on_c, 9, 26, 0
7, 1035, Note_on_c, 9, 36, 0
7, 1080, Note_on_c, 9, 36, 100
7, 1080, Note_on_c, 9, 26, 100
7, 1095, Note_on_c, 9, 26, 0
7, 1095, Note_on_c, 9, 36, 0
7, 1200, Note_on_c, 9, 45, 100
7, 1215, Note_on_c, 9, 45, 0
7, 1260, Note_on_c, 9, 38, 100
7, 1275, Note_on_c, 9, 38, 0
7, 1320, Note_on_c, 9, 38, 100
7, 1335, Note_on_c, 9, 38, 0
7, 1380, Note_on_c, 9, 36, 100
7, 1380, Note_on_c, 9, 26, 100
7, 1395, Note_on_c, 9, 26, 0
7, 1395, Note_on_c, 9, 36, 0
7, 1440, Note_on_c, 9, 36, 100
7, 1440, Note_on_c, 9, 26, 100
7, 1455, Note_on_c, 9, 26, 0
7, 1455, Note_on_c, 9, 36, 0
7, 1500, Note_on_c, 9, 38, 100
7, 1515, Note_on_c, 9, 38, 0
7, 1530, Note_on_c, 9, 38, 100
7, 1545, Note_on_c, 9, 38, 0
7, 1560, Note_on_c, 9, 38, 100
7, 1575, Note_on_c, 9, 38, 0
7, 1590, Note_on_c, 9, 38, 100
7, 1605, Note_on_c, 9, 38, 0
7, 1620, Note_on_c, 9, 38, 100
7, 1635, Note_on_c, 9, 38, 0
7, 1725, Note_on_c, 9, 38, 100
7, 1740, Note_on_c, 9, 38, 0
7, 1740, Note_on_c, 9, 38, 100
7, 1755, Note_on_c, 9, 38, 0
7, 1785, Note_on_c, 9, 38, 100
7, 1800, Note_on_c, 9, 38, 0
7, 1800, Note_on_c, 9, 38, 100
7, 1815, Note_on_c, 9, 38, 0
7, 1860, Note_on_c, 9, 36, 100
7, 1860, Note_on_c, 9, 26, 100
7, 1875, Note_on_c, 9, 26, 0
7, 1875, Note_on_c, 9, 36, 0
7, 1920, Note_on_c, 9, 36, 100
7, 1920, Note_on_c, 9, 26, 100
7, 1935, Note_on_c, 9, 26, 0
7, 1935, Note_on_c, 9, 36, 0
7, 1980, Note_on_c, 9, 36, 100
7, 1980, Note_on_c, 9, 26, 100
7, 1995, Note_on_c, 9, 26, 0
7, 1995, Note_on_c, 9, 36, 0
7, 2040, Note_on_c, 9, 36, 100
7, 2040, Note_on_c, 9, 26, 100
7, 2055, Note_on_c, 9, 26, 0
7, 2055, Note_on_c, 9, 36, 0
7, 2160, Note_on_c, 9, 48, 100
7, 2175, Note_on_c, 9, 48, 0
7, 2220, Note_on_c, 9, 38, 100
7, 2235, Note_on_c, 9, 38, 0
7, 2280, Note_on_c, 9, 38, 100
7, 2295, Note_on_c, 9, 38, 0
7, 2340, Note_on_c, 9, 36, 100
7, 2340, Note_on_c, 9, 26, 100
7, 2355, Note_on_c, 9, 26, 0
7, 2355, Note_on_c, 9, 36, 0
7, 2400, Note_on_c, 9, 45, 100
7, 2400, Note_on_c, 9, 38, 100
7, 2415, Note_on_c, 9, 38, 0
7, 2415, Note_on_c, 9, 45, 0
7, 2460, Note_on_c, 9, 36, 100
7, 2460, Note_on_c, 9, 26, 100
7, 2475, Note_on_c, 9, 26, 0
7, 2475, Note_on_c, 9, 36, 0
7, 2490, Note_on_c, 9, 36, 100
7, 2490, Note_on_c, 9, 26, 100
7, 2505, Note_on_c, 9, 26, 0
7, 2505, Note_on_c, 9, 36, 0
7, 2520, Note_on_c, 9, 38, 100
7, 2535, Note_on_c, 9, 38, 0
7, 2550, Note_on_c, 9, 48, 100
7, 2565, Note_on_c, 9, 48, 0
7, 2580, Note_on_c, 9, 36, 100
7, 2580, Note_on_c, 9, 26, 100
7, 2595, Note_on_c, 9, 26, 0
7, 2595, Note_on_c, 9, 36, 0
7, 2610, Note_on_c, 9, 36, 100
7, 2610, Note_on_c, 9, 26, 100
7, 2625, Note_on_c, 9, 26, 0
7, 2625, Note_on_c, 9, 36, 0
7, 2640, Note_on_c, 9, 38, 100
7, 2640, Note_on_c, 9, 41, 100
7, 2655, Note_on_c, 9, 41, 0
7, 2655, Note_on_c, 9, 38, 0
7, 2700, Note_on_c, 9, 41, 100
7, 2700, Note_on_c, 9, 38, 100
7, 2715, Note_on_c, 9, 38, 0
7, 2715, Note_on_c, 9, 41, 0
7, 2760, Note_on_c, 9, 38, 100
7, 2775, Note_on_c, 9, 38, 0
7, 2790, Note_on_c, 9, 38, 100
7, 2805, Note_on_c, 9, 38, 0
7, 2820, Note_on_c, 9, 36, 100
7, 2820, Note_on_c, 9, 49, 100
7, 2820, Note_on_c, 9, 26, 100
7, 2835, Note_on_c, 9, 26, 0
7, 2835, Note_on_c, 9, 49, 0
7, 2835, Note_on_c, 9, 36, 0
7, 2880, Note_on_c, 9, 36, 100
7, 2880, Note_on_c, 9, 26, 100
7, 2880, Note_on_c, 9, 49, 100
7, 2895, Note_on_c, 9, 49, 0
7, 2895, Note_on_c, 9, 26, 0
7, 2895, Note_on_c, 9, 36, 0
7, 3000, Note_on_c, 9, 42, 100
7, 3000, Note_on_c, 9, 38, 100
7, 3015, Note_on_c, 9, 38, 0
7, 3015, Note_on_c, 9, 42, 0
7, 3060, Note_on_c, 9, 42, 100
7, 3075, Note_on_c, 9, 42, 0
7, 3120, Note_on_c, 9, 36, 100
7, 3120, Note_on_c, 9, 42, 100
7, 3120, Note_on_c, 9, 38, 100
7, 3120, Note_on_c, 9, 26, 100
7, 3135, Note_on_c, 9, 26, 0
7, 3135, Note_on_c, 9, 36, 0
7, 3135, Note_on_c, 9, 42, 0
7, 3135, Note_on_c, 9, 38, 0
7, 3180, Note_on_c, 9, 36, 100
7, 3180, Note_on_c, 9, 42, 100
7, 3180, Note_on_c, 9, 26, 100
7, 3195, Note_on_c, 9, 26, 0
7, 3195, Note_on_c, 9, 42, 0
7, 3195, Note_on_c, 9, 36, 0
7, 3240, Note_on_c, 9, 42, 100
7, 3240, Note_on_c, 9, 38, 100
7, 3255, Note_on_c, 9, 38, 0
7, 3255, Note_on_c, 9, 42, 0
7, 3300, Note_on_c, 9, 36, 100
7, 3300, Note_on_c, 9, 42, 100
7, 3300, Note_on_c, 9, 26, 100
7, 3315, Note_on_c, 9, 26, 0
7, 3315, Note_on_c, 9, 42, 0
7, 3315, Note_on_c, 9, 36, 0
7, 3360, Note_on_c, 9, 36, 100
7, 3360, Note_on_c, 9, 42, 100
7, 3360, Note_on_c, 9, 38, 100
7, 3360, Note_on_c, 9, 26, 100
7, 3375, Note_on_c, 9, 26, 0
7, 3375, Note_on_c, 9, 36, 0
7, 3375, Note_on_c, 9, 42, 0
7, 3375, Note_on_c, 9, 38, 0
7, 3420, Note_on_c, 9, 36, 100
7, 3420, Note_on_c, 9, 26, 100
7, 3420, Note_on_c, 9, 42, 100
7, 3435, Note_on_c, 9, 42, 0
7, 3435, Note_on_c, 9, 26, 0
7, 3435, Note_on_c, 9, 36, 0
7, 3480, Note_on_c, 9, 38, 100
7, 3480, Note_on_c, 9, 42, 100
7, 3495, Note_on_c, 9, 42, 0
7, 3495, Note_on_c, 9, 38, 0
7, 3540, Note_on_c, 9, 42, 100
7, 3555, Note_on_c, 9, 42, 0
7, 3600, Note_on_c, 9, 36, 100
7, 3600, Note_on_c, 9, 38, 100
7, 3600, Note_on_c, 9, 26, 100
7, 3600, Note_on_c, 9, 42, 100
7, 3615, Note_on_c, 9, 42, 0
7, 3615, Note_on_c, 9, 36, 0
7, 3615, Note_on_c, 9, 38, 0
7, 3615, Note_on_c, 9, 26, 0
7, 3660, Note_on_c, 9, 26, 100
7, 3660, Note_on_c, 9, 42, 100
7, 3660, Note_on_c, 9, 36, 100
7, 3675, Note_on_c, 9, 36, 0
7, 3675, Note_on_c, 9, 42, 0
7, 3675, Note_on_c, 9, 26, 0
7, 3720, Note_on_c, 9, 38, 100
7, 3720, Note_on_c, 9, 42, 100
7, 3735, Note_on_c, 9, 42, 0
7, 3735, Note_on_c, 9, 38, 0
7, 3780, Note_on_c, 9, 36, 100
7, 3780, Note_on_c, 9, 26, 100
7, 3780, Note_on_c, 9, 42, 100
7, 3795, Note_on_c, 9, 42, 0
7, 3795, Note_on_c, 9, 26, 0
7, 3795, Note_on_c, 9, 36, 0
7, 3840, Note_on_c, 9, 36, 100
7, 3840, Note_on_c, 9, 42, 100
7, 3840, Note_on_c, 9, 38, 100
7, 3840, Note_on_c, 9, 26, 100
7, 3855, Note_on_c, 9, 26, 0
7, 3855, Note_on_c, 9, 36, 0
7, 3855, Note_on_c, 9, 42, 0
7, 3855, Note_on_c, 9, 38, 0
7, 3900, Note_on_c, 9, 36, 100
7, 3900, Note_on_c, 9, 26, 100
7, 3900, Note_on_c, 9, 42, 100
7, 3915, Note_on_c, 9, 42, 0
7, 3915, Note_on_c, 9, 26, 0
7, 3915, Note_on_c, 9, 36, 0
7, 3960, Note_on_c, 9, 38, 100
7, 3960, Note_on_c, 9, 42, 100
7, 3975, Note_on_c, 9, 42, 0
7, 3975, Note_on_c, 9, 38, 0
7, 4020, Note_on_c, 9, 42, 100
7, 4035, Note_on_c, 9, 42, 0
7, 4080, Note_on_c, 9, 36, 100
7, 4080, Note_on_c, 9, 38, 100
7, 4080, Note_on_c, 9, 26, 100
7, 4080, Note_on_c, 9, 42, 100
7, 4095, Note_on_c, 9, 42, 0
7, 4095, Note_on_c, 9, 36, 0
7, 4095, Note_on_c, 9, 38, 0
7, 4095, Note_on_c, 9, 26, 0
7, 4140, Note_on_c, 9, 36, 100
7, 4140, Note_on_c, 9, 26, 100
7, 4140, Note_on_c, 9, 42, 100
7, 4155, Note_on_c, 9, 42, 0
7, 4155, Note_on_c, 9, 26, 0
7, 4155, Note_on_c, 9, 36, 0
7, 4200, Note_on_c, 9, 38, 100
7, 4200, Note_on_c, 9, 42, 100
7, 4215, Note_on_c, 9, 42, 0
7, 4215, Note_on_c, 9, 38, 0
7, 4260, Note_on_c, 9, 36, 100
7, 4260, Note_on_c, 9, 26, 100
7, 4260, Note_on_c, 9, 42, 100
7, 4275, Note_on_c, 9, 42, 0
7, 4275, Note_on_c, 9, 26, 0
7, 4275, Note_on_c, 9, 36, 0
7, 4320, Note_on_c, 9, 36, 100
7, 4320, Note_on_c, 9, 42, 100
7, 4320, Note_on_c, 9, 38, 100
7, 4320, Note_on_c, 9, 26, 100
7, 4335, Note_on_c, 9, 26, 0
7, 4335, Note_on_c, 9, 36, 0
7, 4335, Note_on_c, 9, 42, 0
7, 4335, Note_on_c, 9, 38, 0
7, 4380, Note_on_c, 9, 36, 100
7, 4380, Note_on_c, 9, 26, 100
7, 4380, Note_on_c, 9, 42, 100
7, 4395, Note_on_c, 9, 42, 0
7, 4395, Note_on_c, 9, 26, 0
7, 4395, Note_on_c, 9, 36, 0
7, 4440, Note_on_c, 9, 38, 100
7, 4440, Note_on_c, 9, 42, 100
7, 4455, Note_on_c, 9, 42, 0
7, 4455, Note_on_c, 9, 38, 0
7, 4500, Note_on_c, 9, 42, 100
7, 4515, Note_on_c, 9, 42, 0
7, 4560, Note_on_c, 9, 36, 100
7, 4560, Note_on_c, 9, 38, 100
7, 4560, Note_on_c, 9, 26, 100
7, 4560, Note_on_c, 9, 42, 100
7, 4575, Note_on_c, 9, 42, 0
7, 4575, Note_on_c, 9, 36, 0
7, 4575, Note_on_c, 9, 38, 0
7, 4575, Note_on_c, 9, 26, 0
7, 4620, Note_on_c, 9, 26, 100
7, 4620, Note_on_c, 9, 42, 100
7, 4620, Note_on_c, 9, 36, 100
7, 4635, Note_on_c, 9, 36, 0
7, 4635, Note_on_c, 9, 42, 0
7, 4635, Note_on_c, 9, 26, 0
7, 4680, Note_on_c, 9, 38, 100
7, 4680, Note_on_c, 9, 42, 100
7, 4695, Note_on_c, 9, 42, 0
7, 4695, Note_on_c, 9, 38, 0
7, 4740, Note_on_c, 9, 36, 100
7, 4740, Note_on_c, 9, 26, 100
7, 4740, Note_on_c, 9, 42, 100
7, 4755, Note_on_c, 9, 42, 0
7, 4755, Note_on_c, 9, 26, 0
7, 4755, Note_on_c, 9, 36, 0
7, 4800, Note_on_c, 9, 36, 100
7, 4800, Note_on_c, 9, 26, 100
7, 4800, Note_on_c, 9, 46, 100
7, 4815, Note_on_c, 9, 46, 0
7, 4815, Note_on_c, 9, 26, 0
7, 4815, Note_on_c, 9, 36, 0
7, 4860, Note_on_c, 9, 46, 100
7, 4875, Note_on_c, 9, 46, 0
7, 4920, Note_on_c, 9, 38, 100
7, 4920, Note_on_c, 9, 46, 100
7, 4935, Note_on_c, 9, 46, 0
7, 4935, Note_on_c, 9, 38, 0
7, 5040, Note_on_c, 9, 36, 100
7, 5040, Note_on_c, 9, 26, 100
7, 5040, Note_on_c, 9, 42, 100
7, 5055, Note_on_c, 9, 42, 0
7, 5055, Note_on_c, 9, 26, 0
7, 5055, Note_on_c, 9, 36, 0
7, 5100, Note_on_c, 9, 36, 100
7, 5100, Note_on_c, 9, 26, 100
7, 5100, Note_on_c, 9, 42, 100
7, 5115, Note_on_c, 9, 42, 0
7, 5115, Note_on_c, 9, 26, 0
7, 5115, Note_on_c, 9, 36, 0
7, 5160, Note_on_c, 9, 38, 100
7, 5160, Note_on_c, 9, 42, 100
7, 5175, Note_on_c, 9, 42, 0
7, 5175, Note_on_c, 9, 38, 0
7, 5220, Note_on_c, 9, 36, 100
7, 5220, Note_on_c, 9, 26, 100
7, 5220, Note_on_c, 9, 42, 100
7, 5235, Note_on_c, 9, 42, 0
7, 5235, Note_on_c, 9, 26, 0
7, 5235, Note_on_c, 9, 36, 0
7, 5280, Note_on_c, 9, 36, 100
7, 5280, Note_on_c, 9, 26, 100
7, 5280, Note_on_c, 9, 42, 100
7, 5295, Note_on_c, 9, 42, 0
7, 5295, Note_on_c, 9, 26, 0
7, 5295, Note_on_c, 9, 36, 0
7, 5340, Note_on_c, 9, 38, 100
7, 5340, Note_on_c, 9, 42, 100
7, 5355, Note_on_c, 9, 42, 0
7, 5355, Note_on_c, 9, 38, 0
7, 5400, Note_on_c, 9, 38, 100
7, 5400, Note_on_c, 9, 42, 100
7, 5415, Note_on_c, 9, 42, 0
7, 5415, Note_on_c, 9, 38, 0
7, 5460, Note_on_c, 9, 42, 100
7, 5475, Note_on_c, 9, 42, 0
7, 5520, Note_on_c, 9, 36, 100
7, 5520, Note_on_c, 9, 38, 100
7, 5520, Note_on_c, 9, 26, 100
7, 5520, Note_on_c, 9, 42, 100
7, 5535, Note_on_c, 9, 42, 0
7, 5535, Note_on_c, 9, 36, 0
7, 5535, Note_on_c, 9, 38, 0
7, 5535, Note_on_c, 9, 26, 0
7, 5580, Note_on_c, 9, 36, 100
7, 5580, Note_on_c, 9, 42, 100
7, 5580, Note_on_c, 9, 26, 100
7, 5595, Note_on_c, 9, 26, 0
7, 5595, Note_on_c, 9, 42, 0
7, 5595, Note_on_c, 9, 36, 0
7, 5640, Note_on_c, 9, 38, 100
7, 5640, Note_on_c, 9, 42, 100
7, 5655, Note_on_c, 9, 42, 0
7, 5655, Note_on_c, 9, 38, 0
7, 5700, Note_on_c, 9, 36, 100
7, 5700, Note_on_c, 9, 26, 100
7, 5700, Note_on_c, 9, 42, 100
7, 5715, Note_on_c, 9, 42, 0
7, 5715, Note_on_c, 9, 26, 0
7, 5715, Note_on_c, 9, 36, 0
7, 5760, Note_on_c, 9, 36, 100
7, 5760, Note_on_c, 9, 38, 100
7, 5760, Note_on_c, 9, 26, 100
7, 5760, Note_on_c, 9, 42, 100
7, 5775, Note_on_c, 9, 42, 0
7, 5775, Note_on_c, 9, 36, 0
7, 5775, Note_on_c, 9, 38, 0
7, 5775, Note_on_c, 9, 26, 0
7, 5820, Note_on_c, 9, 42, 100
7, 5835, Note_on_c, 9, 42, 0
7, 5880, Note_on_c, 9, 38, 100
7, 5880, Note_on_c, 9, 42, 100
7, 5895, Note_on_c, 9, 42, 0
7, 5895, Note_on_c, 9, 38, 0
7, 5940, Note_on_c, 9, 42, 100
7, 5955, Note_on_c, 9, 42, 0
7, 6000, Note_on_c, 9, 36, 100
7, 6000, Note_on_c, 9, 38, 100
7, 6000, Note_on_c, 9, 26, 100
7, 6000, Note_on_c, 9, 42, 100
7, 6015, Note_on_c, 9, 42, 0
7, 6015, Note_on_c, 9, 36, 0
7, 6015, Note_on_c, 9, 38, 0
7, 6015, Note_on_c, 9, 26, 0
7, 6060, Note_on_c, 9, 36, 100
7, 6060, Note_on_c, 9, 26, 100
7, 6060, Note_on_c, 9, 42, 100
7, 6075, Note_on_c, 9, 42, 0
7, 6075, Note_on_c, 9, 26, 0
7, 6075, Note_on_c, 9, 36, 0
7, 6120, Note_on_c, 9, 38, 100
7, 6120, Note_on_c, 9, 42, 100
7, 6135, Note_on_c, 9, 42, 0
7, 6135, Note_on_c, 9, 38, 0
7, 6180, Note_on_c, 9, 36, 100
7, 6180, Note_on_c, 9, 26, 100
7, 6180, Note_on_c, 9, 42, 100
7, 6195, Note_on_c, 9, 42, 0
7, 6195, Note_on_c, 9, 26, 0
7, 6195, Note_on_c, 9, 36, 0
7, 6240, Note_on_c, 9, 36, 100
7, 6240, Note_on_c, 9, 38, 100
7, 6240, Note_on_c, 9, 26, 100
7, 6240, Note_on_c, 9, 42, 100
7, 6255, Note_on_c, 9, 42, 0
7, 6255, Note_on_c, 9, 36, 0
7, 6255, Note_on_c, 9, 38, 0
7, 6255, Note_on_c, 9, 26, 0
7, 6300, Note_on_c, 9, 36, 100
7, 6300, Note_on_c, 9, 26, 100
7, 6300, Note_on_c, 9, 42, 100
7, 6315, Note_on_c, 9, 42, 0
7, 6315, Note_on_c, 9, 26, 0
7, 6315, Note_on_c, 9, 36, 0
7, 6360, Note_on_c, 9, 38, 100
7, 6360, Note_on_c, 9, 42, 100
7, 6375, Note_on_c, 9, 42, 0
7, 6375, Note_on_c, 9, 38, 0
7, 6420, Note_on_c, 9, 42, 100
7, 6435, Note_on_c, 9, 42, 0
7, 6480, Note_on_c, 9, 36, 100
7, 6480, Note_on_c, 9, 38, 100
7, 6480, Note_on_c, 9, 26, 100
7, 6480, Note_on_c, 9, 42, 100
7, 6495, Note_on_c, 9, 42, 0
7, 6495, Note_on_c, 9, 36, 0
7, 6495, Note_on_c, 9, 38, 0
7, 6495, Note_on_c, 9, 26, 0
7, 6540, Note_on_c, 9, 36, 100
7, 6540, Note_on_c, 9, 26, 100
7, 6540, Note_on_c, 9, 42, 100
7, 6555, Note_on_c, 9, 42, 0
7, 6555, Note_on_c, 9, 26, 0
7, 6555, Note_on_c, 9, 36, 0
7, 6600, Note_on_c, 9, 38, 100
7, 6600, Note_on_c, 9, 42, 100
7, 6615, Note_on_c, 9, 42, 0
7, 6615, Note_on_c, 9, 38, 0
7, 6660, Note_on_c, 9, 36, 100
7, 6660, Note_on_c, 9, 26, 100
7, 6660, Note_on_c, 9, 42, 100
7, 6675, Note_on_c, 9, 42, 0
7, 6675, Note_on_c, 9, 26, 0
7, 6675, Note_on_c, 9, 36, 0
7, 6720, Note_on_c, 9, 36, 100
7, 6720, Note_on_c, 9, 38, 100
7, 6720, Note_on_c, 9, 26, 100
7, 6720, Note_on_c, 9, 42, 100
7, 6735, Note_on_c, 9, 42, 0
7, 6735, Note_on_c, 9, 36, 0
7, 6735, Note_on_c, 9, 38, 0
7, 6735, Note_on_c, 9, 26, 0
7, 6780, Note_on_c, 9, 42, 100
7, 6795, Note_on_c, 9, 42, 0
7, 6840, Note_on_c, 9, 38, 100
7, 6840, Note_on_c, 9, 42, 100
7, 6855, Note_on_c, 9, 42, 0
7, 6855, Note_on_c, 9, 38, 0
7, 6900, Note_on_c, 9, 42, 100
7, 6915, Note_on_c, 9, 42, 0
7, 6960, Note_on_c, 9, 36, 100
7, 6960, Note_on_c, 9, 38, 100
7, 6960, Note_on_c, 9, 26, 100
7, 6960, Note_on_c, 9, 42, 100
7, 6975, Note_on_c, 9, 42, 0
7, 6975, Note_on_c, 9, 36, 0
7, 6975, Note_on_c, 9, 38, 0
7, 6975, Note_on_c, 9, 26, 0
7, 7020, Note_on_c, 9, 36, 100
7, 7020, Note_on_c, 9, 26, 100
7, 7020, Note_on_c, 9, 42, 100
7, 7035, Note_on_c, 9, 42, 0
7, 7035, Note_on_c, 9, 26, 0
7, 7035, Note_on_c, 9, 36, 0
7, 7080, Note_on_c, 9, 38, 100
7, 7080, Note_on_c, 9, 42, 100
7, 7095, Note_on_c, 9, 42, 0
7, 7095, Note_on_c, 9, 38, 0
7, 7140, Note_on_c, 9, 36, 100
7, 7140, Note_on_c, 9, 26, 100
7, 7140, Note_on_c, 9, 42, 100
7, 7155, Note_on_c, 9, 42, 0
7, 7155, Note_on_c, 9, 26, 0
7, 7155, Note_on_c, 9, 36, 0
7, 7200, Note_on_c, 9, 36, 100
7, 7200, Note_on_c, 9, 38, 100
7, 7200, Note_on_c, 9, 26, 100
7, 7200, Note_on_c, 9, 42, 100
7, 7215, Note_on_c, 9, 42, 0
7, 7215, Note_on_c, 9, 36, 0
7, 7215, Note_on_c, 9, 38, 0
7, 7215, Note_on_c, 9, 26, 0
7, 7260, Note_on_c, 9, 36, 100
7, 7260, Note_on_c, 9, 26, 100
7, 7260, Note_on_c, 9, 42, 100
7, 7275, Note_on_c, 9, 42, 0
7, 7275, Note_on_c, 9, 26, 0
7, 7275, Note_on_c, 9, 36, 0
7, 7320, Note_on_c, 9, 38, 100
7, 7320, Note_on_c, 9, 42, 100
7, 7335, Note_on_c, 9, 42, 0
7, 7335, Note_on_c, 9, 38, 0
7, 7380, Note_on_c, 9, 42, 100
7, 7395, Note_on_c, 9, 42, 0
7, 7440, Note_on_c, 9, 36, 100
7, 7440, Note_on_c, 9, 38, 100
7, 7440, Note_on_c, 9, 26, 100
7, 7440, Note_on_c, 9, 42, 100
7, 7455, Note_on_c, 9, 42, 0
7, 7455, Note_on_c, 9, 36, 0
7, 7455, Note_on_c, 9, 38, 0
7, 7455, Note_on_c, 9, 26, 0
7, 7500, Note_on_c, 9, 36, 100
7, 7500, Note_on_c, 9, 26, 100
7, 7500, Note_on_c, 9, 42, 100
7, 7515, Note_on_c, 9, 42, 0
7, 7515, Note_on_c, 9, 26, 0
7, 7515, Note_on_c, 9, 36, 0
7, 7560, Note_on_c, 9, 38, 100
7, 7560, Note_on_c, 9, 42, 100
7, 7575, Note_on_c, 9, 42, 0
7, 7575, Note_on_c, 9, 38, 0
7, 7620, Note_on_c, 9, 36, 100
7, 7620, Note_on_c, 9, 26, 100
7, 7620, Note_on_c, 9, 42, 100
7, 7635, Note_on_c, 9, 42, 0
7, 7635, Note_on_c, 9, 26, 0
7, 7635, Note_on_c, 9, 36, 0
7, 7680, Note_on_c, 9, 36, 100
7, 7680, Note_on_c, 9, 36, 100
7, 7680, Note_on_c, 9, 36, 100
7, 7680, Note_on_c, 9, 36, 100
7, 7680, Note_on_c, 9, 36, 100
7, 7680, Note_on_c, 9, 38, 100
7, 7680, Note_on_c, 9, 26, 100
7, 7680, Note_on_c, 9, 42, 100
7, 7695, Note_on_c, 9, 42, 0
7, 7695, Note_on_c, 9, 36, 0
7, 7695, Note_on_c, 9, 36, 0
7, 7695, Note_on_c, 9, 36, 0
7, 7695, Note_on_c, 9, 36, 0
7, 7695, Note_on_c, 9, 36, 0
7, 7695, Note_on_c, 9, 38, 0
7, 7695, Note_on_c, 9, 26, 0
7, 7740, Note_on_c, 9, 42, 100
7, 7755, Note_on_c, 9, 42, 0
7, 7800, Note_on_c, 9, 38, 100
7, 7800, Note_on_c, 9, 42, 100
7, 7815, Note_on_c, 9, 42, 0
7, 7815, Note_on_c, 9, 38, 0
7, 7860, Note_on_c, 9, 42, 100
7, 7875, Note_on_c, 9, 42, 0
7, 7920, Note_on_c, 9, 36, 100
7, 7920, Note_on_c, 9, 26, 100
7, 7920, Note_on_c, 9, 38, 100
7, 7920, Note_on_c, 9, 42, 100
7, 7935, Note_on_c, 9, 42, 0
7, 7935, Note_on_c, 9, 36, 0
7, 7935, Note_on_c, 9, 26, 0
7, 7935, Note_on_c, 9, 38, 0
7, 7980, Note_on_c, 9, 36, 100
7, 7980, Note_on_c, 9, 26, 100
7, 7980, Note_on_c, 9, 42, 100
7, 7995, Note_on_c, 9, 42, 0
7, 7995, Note_on_c, 9, 26, 0
7, 7995, Note_on_c, 9, 36, 0
7, 8040, Note_on_c, 9, 38, 100
7, 8040, Note_on_c, 9, 42, 100
7, 8055, Note_on_c, 9, 42, 0
7, 8055, Note_on_c, 9, 38, 0
7, 8100, Note_on_c, 9, 26, 100
7, 8100, Note_on_c, 9, 36, 100
7, 8100, Note_on_c, 9, 42, 100
7, 8115, Note_on_c, 9, 42, 0
7, 8115, Note_on_c, 9, 36, 0
7, 8115, Note_on_c, 9, 26, 0
7, 8160, Note_on_c, 9, 38, 100
7, 8160, Note_on_c, 9, 26, 100
7, 8160, Note_on_c, 9, 42, 100
7, 8160, Note_on_c, 9, 36, 100
7, 8175, Note_on_c, 9, 36, 0
7, 8175, Note_on_c, 9, 38, 0
7, 8175, Note_on_c, 9, 26, 0
7, 8175, Note_on_c, 9, 42, 0
7, 8250, Note_on_c, 9, 38, 100
7, 8250, Note_on_c, 9, 42, 100
7, 8265, Note_on_c, 9, 42, 0
7, 8265, Note_on_c, 9, 38, 0
7, 8280, Note_on_c, 9, 38, 100
7, 8280, Note_on_c, 9, 42, 100
7, 8295, Note_on_c, 9, 42, 0
7, 8295, Note_on_c, 9, 38, 0
7, 8340, Note_on_c, 9, 26, 100
7, 8340, Note_on_c, 9, 36, 100
7, 8340, Note_on_c, 9, 42, 100
7, 8355, Note_on_c, 9, 42, 0
7, 8355, Note_on_c, 9, 36, 0
7, 8355, Note_on_c, 9, 26, 0
7, 8400, Note_on_c, 9, 38, 100
7, 8400, Note_on_c, 9, 36, 100
7, 8400, Note_on_c, 9, 26, 100
7, 8400, Note_on_c, 9, 42, 100
7, 8415, Note_on_c, 9, 42, 0
7, 8415, Note_on_c, 9, 38, 0
7, 8415, Note_on_c, 9, 36, 0
7, 8415, Note_on_c, 9, 26, 0
7, 8460, Note_on_c, 9, 36, 100
7, 8460, Note_on_c, 9, 26, 100
7, 8460, Note_on_c, 9, 42, 100
7, 8475, Note_on_c, 9, 42, 0
7, 8475, Note_on_c, 9, 26, 0
7, 8475, Note_on_c, 9, 36, 0
7, 8520, Note_on_c, 9, 42, 100
7, 8535, Note_on_c, 9, 42, 0
7, 8550, Note_on_c, 9, 36, 100
7, 8550, Note_on_c, 9, 26, 100
7, 8565, Note_on_c, 9, 26, 0
7, 8565, Note_on_c, 9, 36, 0
7, 8580, Note_on_c, 9, 38, 100
7, 8580, Note_on_c, 9, 42, 100
7, 8595, Note_on_c, 9, 42, 0
7, 8595, Note_on_c, 9, 38, 0
7, 8640, Note_on_c, 9, 42, 100
7, 8640, Note_on_c, 9, 36, 100
7, 8640, Note_on_c, 9, 26, 100
7, 8655, Note_on_c, 9, 26, 0
7, 8655, Note_on_c, 9, 36, 0
7, 8655, Note_on_c, 9, 42, 0
7, 8700, Note_on_c, 9, 42, 100
7, 8715, Note_on_c, 9, 42, 0
7, 8760, Note_on_c, 9, 42, 100
7, 8760, Note_on_c, 9, 38, 100
7, 8775, Note_on_c, 9, 38, 0
7, 8775, Note_on_c, 9, 42, 0
7, 8820, Note_on_c, 9, 42, 100
7, 8835, Note_on_c, 9, 42, 0
7, 8880, Note_on_c, 9, 42, 100
7, 8880, Note_on_c, 9, 36, 100
7, 8880, Note_on_c, 9, 26, 100
7, 8895, Note_on_c, 9, 26, 0
7, 8895, Note_on_c, 9, 36, 0
7, 8895, Note_on_c, 9, 42, 0
7, 8940, Note_on_c, 9, 42, 100
7, 8940, Note_on_c, 9, 36, 100
7, 8940, Note_on_c, 9, 26, 100
7, 8955, Note_on_c, 9, 26, 0
7, 8955, Note_on_c, 9, 36, 0
7, 8955, Note_on_c, 9, 42, 0
7, 9000, Note_on_c, 9, 42, 100
7, 9000, Note_on_c, 9, 38, 100
7, 9015, Note_on_c, 9, 38, 0
7, 9015, Note_on_c, 9, 42, 0
7, 9060, Note_on_c, 9, 42, 100
7, 9060, Note_on_c, 9, 36, 100
7, 9060, Note_on_c, 9, 26, 100
7, 9075, Note_on_c, 9, 26, 0
7, 9075, Note_on_c, 9, 36, 0
7, 9075, Note_on_c, 9, 42, 0
7, 9120, Note_on_c, 9, 38, 100
7, 9120, Note_on_c, 9, 36, 100
7, 9120, Note_on_c, 9, 26, 100
7, 9120, Note_on_c, 9, 42, 100
7, 9135, Note_on_c, 9, 42, 0
7, 9135, Note_on_c, 9, 38, 0
7, 9135, Note_on_c, 9, 36, 0
7, 9135, Note_on_c, 9, 26, 0
7, 9180, Note_on_c, 9, 26, 100
7, 9180, Note_on_c, 9, 36, 100
7, 9180, Note_on_c, 9, 42, 100
7, 9195, Note_on_c, 9, 42, 0
7, 9195, Note_on_c, 9, 36, 0
7, 9195, Note_on_c, 9, 26, 0
7, 9240, Note_on_c, 9, 38, 100
7, 9240, Note_on_c, 9, 42, 100
7, 9255, Note_on_c, 9, 42, 0
7, 9255, Note_on_c, 9, 38, 0
7, 9300, Note_on_c, 9, 42, 100
7, 9315, Note_on_c, 9, 42, 0
7, 9360, Note_on_c, 9, 38, 100
7, 9360, Note_on_c, 9, 36, 100
7, 9360, Note_on_c, 9, 26, 100
7, 9360, Note_on_c, 9, 42, 100
7, 9375, Note_on_c, 9, 42, 0
7, 9375, Note_on_c, 9, 38, 0
7, 9375, Note_on_c, 9, 36, 0
7, 9375, Note_on_c, 9, 26, 0
7, 9420, Note_on_c, 9, 26, 100
7, 9420, Note_on_c, 9, 42, 100
7, 9420, Note_on_c, 9, 36, 100
7, 9435, Note_on_c, 9, 36, 0
7, 9435, Note_on_c, 9, 42, 0
7, 9435, Note_on_c, 9, 26, 0
7, 9480, Note_on_c, 9, 38, 100
7, 9480, Note_on_c, 9, 42, 100
7, 9495, Note_on_c, 9, 42, 0
7, 9495, Note_on_c, 9, 38, 0
7, 9540, Note_on_c, 9, 26, 100
7, 9540, Note_on_c, 9, 36, 100
7, 9540, Note_on_c, 9, 42, 100
7, 9555, Note_on_c, 9, 42, 0
7, 9555, Note_on_c, 9, 36, 0
7, 9555, Note_on_c, 9, 26, 0
7, 9600, Note_on_c, 9, 42, 100
7, 9600, Note_on_c, 9, 36, 100
7, 9600, Note_on_c, 9, 26, 100
7, 9615, Note_on_c, 9, 26, 0
7, 9615, Note_on_c, 9, 36, 0
7, 9615, Note_on_c, 9, 42, 0
7, 9660, Note_on_c, 9, 42, 100
7, 9675, Note_on_c, 9, 42, 0
7, 9720, Note_on_c, 9, 42, 100
7, 9720, Note_on_c, 9, 38, 100
7, 9735, Note_on_c, 9, 38, 0
7, 9735, Note_on_c, 9, 42, 0
7, 9780, Note_on_c, 9, 42, 100
7, 9795, Note_on_c, 9, 42, 0
7, 9840, Note_on_c, 9, 42, 100
7, 9840, Note_on_c, 9, 36, 100
7, 9840, Note_on_c, 9, 26, 100
7, 9855, Note_on_c, 9, 26, 0
7, 9855, Note_on_c, 9, 36, 0
7, 9855, Note_on_c, 9, 42, 0
7, 9900, Note_on_c, 9, 42, 100
7, 9900, Note_on_c, 9, 36, 100
7, 9900, Note_on_c, 9, 26, 100
7, 9915, Note_on_c, 9, 26, 0
7, 9915, Note_on_c, 9, 36, 0
7, 9915, Note_on_c, 9, 42, 0
7, 9960, Note_on_c, 9, 42, 100
7, 9960, Note_on_c, 9, 38, 100
7, 9975, Note_on_c, 9, 38, 0
7, 9975, Note_on_c, 9, 42, 0
7, 10020, Note_on_c, 9, 42, 100
7, 10020, Note_on_c, 9, 36, 100
7, 10020, Note_on_c, 9, 26, 100
7, 10035, Note_on_c, 9, 26, 0
7, 10035, Note_on_c, 9, 36, 0
7, 10035, Note_on_c, 9, 42, 0
7, 10080, Note_on_c, 9, 38, 100
7, 10080, Note_on_c, 9, 36, 100
7, 10080, Note_on_c, 9, 26, 100
7, 10080, Note_on_c, 9, 42, 100
7, 10095, Note_on_c, 9, 42, 0
7, 10095, Note_on_c, 9, 38, 0
7, 10095, Note_on_c, 9, 36, 0
7, 10095, Note_on_c, 9, 26, 0
7, 10140, Note_on_c, 9, 26, 100
7, 10140, Note_on_c, 9, 36, 100
7, 10140, Note_on_c, 9, 42, 100
7, 10155, Note_on_c, 9, 42, 0
7, 10155, Note_on_c, 9, 36, 0
7, 10155, Note_on_c, 9, 26, 0
7, 10200, Note_on_c, 9, 38, 100
7, 10200, Note_on_c, 9, 42, 100
7, 10215, Note_on_c, 9, 42, 0
7, 10215, Note_on_c, 9, 38, 0
7, 10260, Note_on_c, 9, 42, 100
7, 10275, Note_on_c, 9, 42, 0
7, 10320, Note_on_c, 9, 38, 100
7, 10320, Note_on_c, 9, 36, 100
7, 10320, Note_on_c, 9, 26, 100
7, 10320, Note_on_c, 9, 42, 100
7, 10335, Note_on_c, 9, 42, 0
7, 10335, Note_on_c, 9, 38, 0
7, 10335, Note_on_c, 9, 36, 0
7, 10335, Note_on_c, 9, 26, 0
7, 10380, Note_on_c, 9, 26, 100
7, 10380, Note_on_c, 9, 42, 100
7, 10380, Note_on_c, 9, 36, 100
7, 10395, Note_on_c, 9, 36, 0
7, 10395, Note_on_c, 9, 42, 0
7, 10395, Note_on_c, 9, 26, 0
7, 10440, Note_on_c, 9, 42, 100
7, 10455, Note_on_c, 9, 42, 0
7, 10500, Note_on_c, 9, 38, 100
7, 10500, Note_on_c, 9, 42, 100
7, 10515, Note_on_c, 9, 42, 0
7, 10515, Note_on_c, 9, 38, 0
7, 10560, Note_on_c, 9, 42, 100
7, 10560, Note_on_c, 9, 36, 100
7, 10560, Note_on_c, 9, 26, 100
7, 10575, Note_on_c, 9, 26, 0
7, 10575, Note_on_c, 9, 36, 0
7, 10575, Note_on_c, 9, 42, 0
7, 10620, Note_on_c, 9, 42, 100
7, 10635, Note_on_c, 9, 42, 0
7, 10680, Note_on_c, 9, 42, 100
7, 10680, Note_on_c, 9, 38, 100
7, 10695, Note_on_c, 9, 38, 0
7, 10695, Note_on_c, 9, 42, 0
7, 10740, Note_on_c, 9, 42, 100
7, 10755, Note_on_c, 9, 42, 0
7, 10800, Note_on_c, 9, 42, 100
7, 10800, Note_on_c, 9, 36, 100
7, 10800, Note_on_c, 9, 26, 100
7, 10815, Note_on_c, 9, 26, 0
7, 10815, Note_on_c, 9, 36, 0
7, 10815, Note_on_c, 9, 42, 0
7, 10860, Note_on_c, 9, 42, 100
7, 10860, Note_on_c, 9, 36, 100
7, 10860, Note_on_c, 9, 26, 100
7, 10875, Note_on_c, 9, 26, 0
7, 10875, Note_on_c, 9, 36, 0
7, 10875, Note_on_c, 9, 42, 0
7, 10920, Note_on_c, 9, 42, 100
7, 10920, Note_on_c, 9, 38, 100
7, 10935, Note_on_c, 9, 38, 0
7, 10935, Note_on_c, 9, 42, 0
7, 10980, Note_on_c, 9, 42, 100
7, 10980, Note_on_c, 9, 36, 100
7, 10980, Note_on_c, 9, 26, 100
7, 10995, Note_on_c, 9, 26, 0
7, 10995, Note_on_c, 9, 36, 0
7, 10995, Note_on_c, 9, 42, 0
7, 11040, Note_on_c, 9, 38, 100
7, 11040, Note_on_c, 9, 36, 100
7, 11040, Note_on_c, 9, 26, 100
7, 11040, Note_on_c, 9, 42, 100
7, 11055, Note_on_c, 9, 42, 0
7, 11055, Note_on_c, 9, 38, 0
7, 11055, Note_on_c, 9, 36, 0
7, 11055, Note_on_c, 9, 26, 0
7, 11100, Note_on_c, 9, 26, 100
7, 11100, Note_on_c, 9, 36, 100
7, 11100, Note_on_c, 9, 42, 100
7, 11115, Note_on_c, 9, 42, 0
7, 11115, Note_on_c, 9, 36, 0
7, 11115, Note_on_c, 9, 26, 0
7, 11160, Note_on_c, 9, 38, 100
7, 11160, Note_on_c, 9, 42, 100
7, 11175, Note_on_c, 9, 42, 0
7, 11175, Note_on_c, 9, 38, 0
7, 11220, Note_on_c, 9, 42, 100
7, 11235, Note_on_c, 9, 42, 0
7, 11280, Note_on_c, 9, 38, 100
7, 11280, Note_on_c, 9, 36, 100
7, 11280, Note_on_c, 9, 26, 100
7, 11280, Note_on_c, 9, 42, 100
7, 11295, Note_on_c, 9, 42, 0
7, 11295, Note_on_c, 9, 38, 0
7, 11295, Note_on_c, 9, 36, 0
7, 11295, Note_on_c, 9, 26, 0
7, 11340, Note_on_c, 9, 26, 100
7, 11340, Note_on_c, 9, 42, 100
7, 11340, Note_on_c, 9, 36, 100
7, 11355, Note_on_c, 9, 36, 0
7, 11355, Note_on_c, 9, 42, 0
7, 11355, Note_on_c, 9, 26, 0
7, 11400, Note_on_c, 9, 38, 100
7, 11400, Note_on_c, 9, 42, 100
7, 11415, Note_on_c, 9, 42, 0
7, 11415, Note_on_c, 9, 38, 0
7, 11460, Note_on_c, 9, 26, 100
7, 11460, Note_on_c, 9, 36, 100
7, 11460, Note_on_c, 9, 42, 100
7, 11475, Note_on_c, 9, 42, 0
7, 11475, Note_on_c, 9, 36, 0
7, 11475, Note_on_c, 9, 26, 0
7, 11520, Note_on_c, 9, 42, 100
7, 11520, Note_on_c, 9, 38, 100
7, 11520, Note_on_c, 9, 36, 100
7, 11520, Note_on_c, 9, 26, 100
7, 11535, Note_on_c, 9, 26, 0
7, 11535, Note_on_c, 9, 42, 0
7, 11535, Note_on_c, 9, 38, 0
7, 11535, Note_on_c, 9, 36, 0
7, 11580, Note_on_c, 9, 42, 100
7, 11595, Note_on_c, 9, 42, 0
7, 11640, Note_on_c, 9, 42, 100
7, 11640, Note_on_c, 9, 38, 100
7, 11655, Note_on_c, 9, 38, 0
7, 11655, Note_on_c, 9, 42, 0
7, 11700, Note_on_c, 9, 42, 100
7, 11715, Note_on_c, 9, 42, 0
7, 11760, Note_on_c, 9, 42, 100
7, 11760, Note_on_c, 9, 38, 100
7, 11760, Note_on_c, 9, 36, 100
7, 11760, Note_on_c, 9, 26, 100
7, 11775, Note_on_c, 9, 26, 0
7, 11775, Note_on_c, 9, 42, 0
7, 11775, Note_on_c, 9, 38, 0
7, 11775, Note_on_c, 9, 36, 0
7, 11820, Note_on_c, 9, 36, 100
7, 11820, Note_on_c, 9, 42, 100
7, 11820, Note_on_c, 9, 26, 100
7, 11835, Note_on_c, 9, 26, 0
7, 11835, Note_on_c, 9, 42, 0
7, 11835, Note_on_c, 9, 36, 0
7, 11880, Note_on_c, 9, 42, 100
7, 11895, Note_on_c, 9, 42, 0
7, 11940, Note_on_c, 9, 46, 100
7, 11940, Note_on_c, 9, 38, 100
7, 11955, Note_on_c, 9, 38, 0
7, 11955, Note_on_c, 9, 46, 0
7, 12000, Note_on_c, 9, 41, 100
7, 12015, Note_on_c, 9, 41, 0
7, 12030, Note_on_c, 9, 48, 100
7, 12045, Note_on_c, 9, 48, 0
7, 12060, Note_on_c, 9, 41, 100
7, 12075, Note_on_c, 9, 41, 0
7, 12120, Note_on_c, 9, 41, 120
7, 12135, Note_on_c, 9, 41, 0
7, 12150, Note_on_c, 9, 48, 100
7, 12165, Note_on_c, 9, 48, 0
7, 12180, Note_on_c, 9, 41, 100
7, 12195, Note_on_c, 9, 41, 0
7, 12210, Note_on_c, 9, 48, 120
7, 12225, Note_on_c, 9, 48, 0
7, 12240, Note_on_c, 9, 48, 100
7, 12255, Note_on_c, 9, 48, 0
7, 12300, Note_on_c, 9, 48, 100
7, 12315, Note_on_c, 9, 48, 0
7, 12330, Note_on_c, 9, 48, 100
7, 12345, Note_on_c, 9, 48, 0
7, 12390, Note_on_c, 9, 38, 100
7, 12405, Note_on_c, 9, 38, 0
7, 12420, Note_on_c, 9, 38, 100
7, 12435, Note_on_c, 9, 38, 0
7, 12480, Note_on_c, 9, 36, 100
7, 12480, Note_on_c, 9, 26, 100
7, 12480, Note_on_c, 9, 49, 100
7, 12495, Note_on_c, 9, 49, 0
7, 12495, Note_on_c, 9, 26, 0
7, 12495, Note_on_c, 9, 36, 0
7, 12540, Note_on_c, 9, 36, 100
7, 12540, Note_on_c, 9, 26, 100
7, 12540, Note_on_c, 9, 51, 100
7, 12555, Note_on_c, 9, 51, 0
7, 12555, Note_on_c, 9, 26, 0
7, 12555, Note_on_c, 9, 36, 0
7, 12600, Note_on_c, 9, 38, 100
7, 12600, Note_on_c, 9, 51, 100
7, 12615, Note_on_c, 9, 51, 0
7, 12615, Note_on_c, 9, 38, 0
7, 12660, Note_on_c, 9, 51, 100
7, 12675, Note_on_c, 9, 51, 0
7, 12690, Note_on_c, 9, 38, 100
7, 12705, Note_on_c, 9, 38, 0
7, 12720, Note_on_c, 9, 36, 100
7, 12720, Note_on_c, 9, 26, 100
7, 12720, Note_on_c, 9, 51, 100
7, 12735, Note_on_c, 9, 51, 0
7, 12735, Note_on_c, 9, 26, 0
7, 12735, Note_on_c, 9, 36, 0
7, 12780, Note_on_c, 9, 36, 100
7, 12780, Note_on_c, 9, 26, 100
7, 12780, Note_on_c, 9, 51, 100
7, 12795, Note_on_c, 9, 51, 0
7, 12795, Note_on_c, 9, 26, 0
7, 12795, Note_on_c, 9, 36, 0
7, 12840, Note_on_c, 9, 38, 100
7, 12840, Note_on_c, 9, 51, 100
7, 12855, Note_on_c, 9, 51, 0
7, 12855, Note_on_c, 9, 38, 0
7, 12900, Note_on_c, 9, 51, 100
7, 12915, Note_on_c, 9, 51, 0
7, 12930, Note_on_c, 9, 38, 100
7, 12945, Note_on_c, 9, 38, 0
7, 12960, Note_on_c, 9, 26, 100
7, 12960, Note_on_c, 9, 51, 100
7, 12960, Note_on_c, 9, 36, 100
7, 12975, Note_on_c, 9, 36, 0
7, 12975, Note_on_c, 9, 51, 0
7, 12975, Note_on_c, 9, 26, 0
7, 13020, Note_on_c, 9, 26, 100
7, 13020, Note_on_c, 9, 51, 100
7, 13020, Note_on_c, 9, 36, 100
7, 13035, Note_on_c, 9, 36, 0
7, 13035, Note_on_c, 9, 51, 0
7, 13035, Note_on_c, 9, 26, 0
7, 13080, Note_on_c, 9, 51, 100
7, 13095, Note_on_c, 9, 51, 0
7, 13110, Note_on_c, 9, 26, 100
7, 13110, Note_on_c, 9, 36, 100
7, 13125, Note_on_c, 9, 36, 0
7, 13125, Note_on_c, 9, 26, 0
7, 13140, Note_on_c, 9, 51, 100
7, 13140, Note_on_c, 9, 38, 100
7, 13155, Note_on_c, 9, 38, 0
7, 13155, Note_on_c, 9, 51, 0
7, 13200, Note_on_c, 9, 26, 100
7, 13200, Note_on_c, 9, 51, 100
7, 13200, Note_on_c, 9, 36, 100
7, 13215, Note_on_c, 9, 36, 0
7, 13215, Note_on_c, 9, 51, 0
7, 13215, Note_on_c, 9, 26, 0
7, 13260, Note_on_c, 9, 26, 100
7, 13260, Note_on_c, 9, 51, 100
7, 13260, Note_on_c, 9, 36, 100
7, 13275, Note_on_c, 9, 36, 0
7, 13275, Note_on_c, 9, 51, 0
7, 13275, Note_on_c, 9, 26, 0
7, 13290, Note_on_c, 9, 26, 100
7, 13290, Note_on_c, 9, 36, 100
7, 13305, Note_on_c, 9, 36, 0
7, 13305, Note_on_c, 9, 26, 0
7, 13320, Note_on_c, 9, 51, 100
7, 13320, Note_on_c, 9, 38, 100
7, 13335, Note_on_c, 9, 38, 0
7, 13335, Note_on_c, 9, 51, 0
7, 13380, Note_on_c, 9, 51, 100
7, 13395, Note_on_c, 9, 51, 0
7, 13410, Note_on_c, 9, 38, 100
7, 13425, Note_on_c, 9, 38, 0
7, 13440, Note_on_c, 9, 36, 100
7, 13440, Note_on_c, 9, 26, 100
7, 13440, Note_on_c, 9, 51, 100
7, 13455, Note_on_c, 9, 51, 0
7, 13455, Note_on_c, 9, 26, 0
7, 13455, Note_on_c, 9, 36, 0
7, 13500, Note_on_c, 9, 36, 100
7, 13500, Note_on_c, 9, 26, 100
7, 13500, Note_on_c, 9, 51, 100
7, 13515, Note_on_c, 9, 51, 0
7, 13515, Note_on_c, 9, 26, 0
7, 13515, Note_on_c, 9, 36, 0
7, 13560, Note_on_c, 9, 51, 100
7, 13560, Note_on_c, 9, 38, 100
7, 13575, Note_on_c, 9, 38, 0
7, 13575, Note_on_c, 9, 51, 0
7, 13620, Note_on_c, 9, 51, 100
7, 13635, Note_on_c, 9, 51, 0
7, 13650, Note_on_c, 9, 38, 100
7, 13665, Note_on_c, 9, 38, 0
7, 13680, Note_on_c, 9, 36, 100
7, 13680, Note_on_c, 9, 26, 100
7, 13680, Note_on_c, 9, 51, 100
7, 13695, Note_on_c, 9, 51, 0
7, 13695, Note_on_c, 9, 26, 0
7, 13695, Note_on_c, 9, 36, 0
7, 13740, Note_on_c, 9, 26, 100
7, 13740, Note_on_c, 9, 36, 100
7, 13740, Note_on_c, 9, 51, 100
7, 13755, Note_on_c, 9, 51, 0
7, 13755, Note_on_c, 9, 36, 0
7, 13755, Note_on_c, 9, 26, 0
7, 13800, Note_on_c, 9, 38, 100
7, 13800, Note_on_c, 9, 51, 100
7, 13815, Note_on_c, 9, 51, 0
7, 13815, Note_on_c, 9, 38, 0
7, 13860, Note_on_c, 9, 51, 100
7, 13875, Note_on_c, 9, 51, 0
7, 13890, Note_on_c, 9, 38, 100
7, 13905, Note_on_c, 9, 38, 0
7, 13920, Note_on_c, 9, 36, 100
7, 13920, Note_on_c, 9, 26, 100
7, 13920, Note_on_c, 9, 51, 100
7, 13935, Note_on_c, 9, 51, 0
7, 13935, Note_on_c, 9, 26, 0
7, 13935, Note_on_c, 9, 36, 0
7, 13980, Note_on_c, 9, 26, 100
7, 13980, Note_on_c, 9, 36, 100
7, 13980, Note_on_c, 9, 51, 100
7, 13995, Note_on_c, 9, 51, 0
7, 13995, Note_on_c, 9, 36, 0
7, 13995, Note_on_c, 9, 26, 0
7, 14040, Note_on_c, 9, 51, 100
7, 14055, Note_on_c, 9, 51, 0
7, 14070, Note_on_c, 9, 36, 100
7, 14070, Note_on_c, 9, 26, 100
7, 14085, Note_on_c, 9, 26, 0
7, 14085, Note_on_c, 9, 36, 0
7, 14100, Note_on_c, 9, 38, 100
7, 14100, Note_on_c, 9, 51, 100
7, 14115, Note_on_c, 9, 51, 0
7, 14115, Note_on_c, 9, 38, 0
7, 14160, Note_on_c, 9, 51, 100
7, 14175, Note_on_c, 9, 51, 0
7, 14220, Note_on_c, 9, 26, 100
7, 14220, Note_on_c, 9, 36, 100
7, 14220, Note_on_c, 9, 51, 100
7, 14235, Note_on_c, 9, 51, 0
7, 14235, Note_on_c, 9, 36, 0
7, 14235, Note_on_c, 9, 26, 0
7, 14250, Note_on_c, 9, 26, 100
7, 14250, Note_on_c, 9, 36, 100
7, 14265, Note_on_c, 9, 36, 0
7, 14265, Note_on_c, 9, 26, 0
7, 14280, Note_on_c, 9, 38, 100
7, 14280, Note_on_c, 9, 51, 100
7, 14295, Note_on_c, 9, 51, 0
7, 14295, Note_on_c, 9, 38, 0
7, 14310, Note_on_c, 9, 26, 100
7, 14310, Note_on_c, 9, 36, 100
7, 14325, Note_on_c, 9, 36, 0
7, 14325, Note_on_c, 9, 26, 0
7, 14340, Note_on_c, 9, 26, 100
7, 14340, Note_on_c, 9, 36, 100
7, 14340, Note_on_c, 9, 51, 100
7, 14355, Note_on_c, 9, 51, 0
7, 14355, Note_on_c, 9, 36, 0
7, 14355, Note_on_c, 9, 26, 0
7, 14370, Note_on_c, 9, 38, 100
7, 14385, Note_on_c, 9, 38, 0
7, 14400, Note_on_c, 9, 36, 100
7, 14400, Note_on_c, 9, 26, 100
7, 14400, Note_on_c, 9, 51, 100
7, 14415, Note_on_c, 9, 51, 0
7, 14415, Note_on_c, 9, 26, 0
7, 14415, Note_on_c, 9, 36, 0
7, 14460, Note_on_c, 9, 36, 100
7, 14460, Note_on_c, 9, 26, 100
7, 14460, Note_on_c, 9, 51, 100
7, 14475, Note_on_c, 9, 51, 0
7, 14475, Note_on_c, 9, 26, 0
7, 14475, Note_on_c, 9, 36, 0
7, 14520, Note_on_c, 9, 51, 100
7, 14520, Note_on_c, 9, 38, 100
7, 14535, Note_on_c, 9, 38, 0
7, 14535, Note_on_c, 9, 51, 0
7, 14580, Note_on_c, 9, 51, 100
7, 14595, Note_on_c, 9, 51, 0
7, 14610, Note_on_c, 9, 38, 100
7, 14625, Note_on_c, 9, 38, 0
7, 14640, Note_on_c, 9, 36, 100
7, 14640, Note_on_c, 9, 26, 100
7, 14640, Note_on_c, 9, 51, 100
7, 14655, Note_on_c, 9, 51, 0
7, 14655, Note_on_c, 9, 26, 0
7, 14655, Note_on_c, 9, 36, 0
7, 14700, Note_on_c, 9, 26, 100
7, 14700, Note_on_c, 9, 36, 100
7, 14700, Note_on_c, 9, 51, 100
7, 14715, Note_on_c, 9, 51, 0
7, 14715, Note_on_c, 9, 36, 0
7, 14715, Note_on_c, 9, 26, 0
7, 14760, Note_on_c, 9, 38, 100
7, 14760, Note_on_c, 9, 51, 100
7, 14775, Note_on_c, 9, 51, 0
7, 14775, Note_on_c, 9, 38, 0
7, 14820, Note_on_c, 9, 51, 100
7, 14835, Note_on_c, 9, 51, 0
7, 14850, Note_on_c, 9, 38, 100
7, 14865, Note_on_c, 9, 38, 0
7, 14880, Note_on_c, 9, 36, 100
7, 14880, Note_on_c, 9, 26, 100
7, 14880, Note_on_c, 9, 51, 100
7, 14895, Note_on_c, 9, 51, 0
7, 14895, Note_on_c, 9, 26, 0
7, 14895, Note_on_c, 9, 36, 0
7, 14940, Note_on_c, 9, 26, 100
7, 14940, Note_on_c, 9, 36, 100
7, 14940, Note_on_c, 9, 51, 100
7, 14955, Note_on_c, 9, 51, 0
7, 14955, Note_on_c, 9, 36, 0
7, 14955, Note_on_c, 9, 26, 0
7, 15000, Note_on_c, 9, 51, 100
7, 15015, Note_on_c, 9, 51, 0
7, 15030, Note_on_c, 9, 36, 100
7, 15030, Note_on_c, 9, 26, 100
7, 15045, Note_on_c, 9, 26, 0
7, 15045, Note_on_c, 9, 36, 0
7, 15060, Note_on_c, 9, 38, 100
7, 15060, Note_on_c, 9, 51, 100
7, 15075, Note_on_c, 9, 51, 0
7, 15075, Note_on_c, 9, 38, 0
7, 15120, Note_on_c, 9, 51, 100
7, 15135, Note_on_c, 9, 51, 0
7, 15180, Note_on_c, 9, 26, 100
7, 15180, Note_on_c, 9, 36, 100
7, 15180, Note_on_c, 9, 51, 100
7, 15195, Note_on_c, 9, 51, 0
7, 15195, Note_on_c, 9, 36, 0
7, 15195, Note_on_c, 9, 26, 0
7, 15210, Note_on_c, 9, 26, 100
7, 15210, Note_on_c, 9, 36, 100
7, 15225, Note_on_c, 9, 36, 0
7, 15225, Note_on_c, 9, 26, 0
7, 15240, Note_on_c, 9, 38, 100
7, 15240, Note_on_c, 9, 51, 100
7, 15255, Note_on_c, 9, 51, 0
7, 15255, Note_on_c, 9, 38, 0
7, 15270, Note_on_c, 9, 26, 100
7, 15270, Note_on_c, 9, 36, 100
7, 15285, Note_on_c, 9, 36, 0
7, 15285, Note_on_c, 9, 26, 0
7, 15300, Note_on_c, 9, 26, 100
7, 15300, Note_on_c, 9, 36, 100
7, 15300, Note_on_c, 9, 51, 100
7, 15315, Note_on_c, 9, 51, 0
7, 15315, Note_on_c, 9, 36, 0
7, 15315, Note_on_c, 9, 26, 0
7, 15330, Note_on_c, 9, 38, 100
7, 15345, Note_on_c, 9, 38, 0
7, 15360, Note_on_c, 9, 36, 100
7, 15360, Note_on_c, 9, 26, 100
7, 15360, Note_on_c, 9, 51, 100
7, 15375, Note_on_c, 9, 51, 0
7, 15375, Note_on_c, 9, 26, 0
7, 15375, Note_on_c, 9, 36, 0
7, 15420, Note_on_c, 9, 26, 100
7, 15420, Note_on_c, 9, 36, 100
7, 15420, Note_on_c, 9, 51, 100
7, 15435, Note_on_c, 9, 51, 0
7, 15435, Note_on_c, 9, 36, 0
7, 15435, Note_on_c, 9, 26, 0
7, 15480, Note_on_c, 9, 38, 100
7, 15480, Note_on_c, 9, 51, 100
7, 15495, Note_on_c, 9, 51, 0
7, 15495, Note_on_c, 9, 38, 0
7, 15540, Note_on_c, 9, 51, 100
7, 15555, Note_on_c, 9, 51, 0
7, 15570, Note_on_c, 9, 38, 100
7, 15585, Note_on_c, 9, 38, 0
7, 15600, Note_on_c, 9, 26, 100
7, 15600, Note_on_c, 9, 36, 100
7, 15600, Note_on_c, 9, 51, 100
7, 15615, Note_on_c, 9, 51, 0
7, 15615, Note_on_c, 9, 36, 0
7, 15615, Note_on_c, 9, 26, 0
7, 15660, Note_on_c, 9, 36, 100
7, 15660, Note_on_c, 9, 26, 100
7, 15660, Note_on_c, 9, 51, 100
7, 15675, Note_on_c, 9, 51, 0
7, 15675, Note_on_c, 9, 26, 0
7, 15675, Note_on_c, 9, 36, 0
7, 15720, Note_on_c, 9, 38, 100
7, 15720, Note_on_c, 9, 51, 100
7, 15735, Note_on_c, 9, 51, 0
7, 15735, Note_on_c, 9, 38, 0
7, 15780, Note_on_c, 9, 51, 100
7, 15795, Note_on_c, 9, 51, 0
7, 15810, Note_on_c, 9, 38, 100
7, 15825, Note_on_c, 9, 38, 0
7, 15840, Note_on_c, 9, 26, 100
7, 15840, Note_on_c, 9, 49, 100
7, 15855, Note_on_c, 9, 49, 0
7, 15855, Note_on_c, 9, 26, 0
7, 15870, Note_on_c, 9, 38, 100
7, 15885, Note_on_c, 9, 38, 0
7, 15900, Note_on_c, 9, 38, 100
7, 15915, Note_on_c, 9, 38, 0
7, 15930, Note_on_c, 9, 38, 100
7, 15945, Note_on_c, 9, 38, 0
7, 15960, Note_on_c, 9, 41, 100
7, 15975, Note_on_c, 9, 41, 0
7, 15990, Note_on_c, 9, 41, 100
7, 16005, Note_on_c, 9, 41, 0
7, 16020, Note_on_c, 9, 49, 100
7, 16020, Note_on_c, 9, 26, 100
7, 16035, Note_on_c, 9, 26, 0
7, 16035, Note_on_c, 9, 49, 0
7, 16050, Note_on_c, 9, 38, 100
7, 16065, Note_on_c, 9, 38, 0
7, 16110, Note_on_c, 9, 38, 100
7, 16125, Note_on_c, 9, 38, 0
7, 16140, Note_on_c, 9, 41, 100
7, 16155, Note_on_c, 9, 41, 0
7, 16170, Note_on_c, 9, 41, 100
7, 16185, Note_on_c, 9, 41, 0
7, 16230, Note_on_c, 9, 41, 100
7, 16245, Note_on_c, 9, 41, 0
7, 16260, Note_on_c, 9, 41, 100
7, 16275, Note_on_c, 9, 41, 0
7, 16290, Note_on_c, 9, 46, 100
7, 16305, Note_on_c, 9, 46, 0
7, 16320, Note_on_c, 9, 36, 100
7, 16320, Note_on_c, 9, 42, 100
7, 16335, Note_on_c, 9, 42, 0
7, 16335, Note_on_c, 9, 36, 0
7, 16380, Note_on_c, 9, 36, 100
7, 16380, Note_on_c, 9, 42, 100
7, 16395, Note_on_c, 9, 42, 0
7, 16395, Note_on_c, 9, 36, 0
7, 16440, Note_on_c, 9, 38, 100
7, 16440, Note_on_c, 9, 42, 100
7, 16455, Note_on_c, 9, 42, 0
7, 16455, Note_on_c, 9, 38, 0
7, 16500, Note_on_c, 9, 42, 100
7, 16515, Note_on_c, 9, 42, 0
7, 16560, Note_on_c, 9, 36, 100
7, 16560, Note_on_c, 9, 38, 100
7, 16560, Note_on_c, 9, 42, 100
7, 16575, Note_on_c, 9, 42, 0
7, 16575, Note_on_c, 9, 38, 0
7, 16575, Note_on_c, 9, 36, 0
7, 16620, Note_on_c, 9, 36, 100
7, 16620, Note_on_c, 9, 42, 100
7, 16635, Note_on_c, 9, 42, 0
7, 16635, Note_on_c, 9, 36, 0
7, 16680, Note_on_c, 9, 38, 100
7, 16680, Note_on_c, 9, 42, 100
7, 16695, Note_on_c, 9, 42, 0
7, 16695, Note_on_c, 9, 38, 0
7, 16740, Note_on_c, 9, 36, 100
7, 16740, Note_on_c, 9, 42, 100
7, 16755, Note_on_c, 9, 42, 0
7, 16755, Note_on_c, 9, 36, 0
7, 16800, Note_on_c, 9, 38, 100
7, 16800, Note_on_c, 9, 36, 100
7, 16800, Note_on_c, 9, 42, 100
7, 16815, Note_on_c, 9, 42, 0
7, 16815, Note_on_c, 9, 36, 0
7, 16815, Note_on_c, 9, 38, 0
7, 16860, Note_on_c, 9, 36, 100
7, 16860, Note_on_c, 9, 42, 100
7, 16875, Note_on_c, 9, 42, 0
7, 16875, Note_on_c, 9, 36, 0
7, 16920, Note_on_c, 9, 38, 100
7, 16920, Note_on_c, 9, 42, 100
7, 16935, Note_on_c, 9, 42, 0
7, 16935, Note_on_c, 9, 38, 0
7, 16980, Note_on_c, 9, 42, 100
7, 16995, Note_on_c, 9, 42, 0
7, 17040, Note_on_c, 9, 38, 100
7, 17040, Note_on_c, 9, 36, 100
7, 17040, Note_on_c, 9, 42, 100
7, 17055, Note_on_c, 9, 42, 0
7, 17055, Note_on_c, 9, 36, 0
7, 17055, Note_on_c, 9, 38, 0
7, 17100, Note_on_c, 9, 36, 100
7, 17100, Note_on_c, 9, 42, 100
7, 17115, Note_on_c, 9, 42, 0
7, 17115, Note_on_c, 9, 36, 0
7, 17160, Note_on_c, 9, 38, 100
7, 17160, Note_on_c, 9, 42, 100
7, 17175, Note_on_c, 9, 42, 0
7, 17175, Note_on_c, 9, 38, 0
7, 17220, Note_on_c, 9, 36, 100
7, 17220, Note_on_c, 9, 42, 100
7, 17235, Note_on_c, 9, 42, 0
7, 17235, Note_on_c, 9, 36, 0
7, 17280, Note_on_c, 9, 38, 100
7, 17280, Note_on_c, 9, 36, 100
7, 17280, Note_on_c, 9, 42, 100
7, 17295, Note_on_c, 9, 42, 0
7, 17295, Note_on_c, 9, 36, 0
7, 17295, Note_on_c, 9, 38, 0
7, 17340, Note_on_c, 9, 36, 100
7, 17340, Note_on_c, 9, 42, 100
7, 17355, Note_on_c, 9, 42, 0
7, 17355, Note_on_c, 9, 36, 0
7, 17400, Note_on_c, 9, 38, 100
7, 17400, Note_on_c, 9, 42, 100
7, 17415, Note_on_c, 9, 42, 0
7, 17415, Note_on_c, 9, 38, 0
7, 17460, Note_on_c, 9, 42, 100
7, 17475, Note_on_c, 9, 42, 0
7, 17520, Note_on_c, 9, 38, 100
7, 17520, Note_on_c, 9, 36, 100
7, 17520, Note_on_c, 9, 42, 100
7, 17535, Note_on_c, 9, 42, 0
7, 17535, Note_on_c, 9, 36, 0
7, 17535, Note_on_c, 9, 38, 0
7, 17580, Note_on_c, 9, 36, 100
7, 17580, Note_on_c, 9, 42, 100
7, 17595, Note_on_c, 9, 42, 0
7, 17595, Note_on_c, 9, 36, 0
7, 17640, Note_on_c, 9, 38, 100
7, 17640, Note_on_c, 9, 42, 100
7, 17655, Note_on_c, 9, 42, 0
7, 17655, Note_on_c, 9, 38, 0
7, 17700, Note_on_c, 9, 36, 100
7, 17700, Note_on_c, 9, 42, 100
7, 17715, Note_on_c, 9, 42, 0
7, 17715, Note_on_c, 9, 36, 0
7, 17760, Note_on_c, 9, 42, 100
7, 17760, Note_on_c, 9, 36, 100
7, 17775, Note_on_c, 9, 36, 0
7, 17775, Note_on_c, 9, 42, 0
7, 17820, Note_on_c, 9, 42, 100
7, 17820, Note_on_c, 9, 36, 100
7, 17835, Note_on_c, 9, 36, 0
7, 17835, Note_on_c, 9, 42, 0
7, 17880, Note_on_c, 9, 42, 100
7, 17880, Note_on_c, 9, 38, 100
7, 17895, Note_on_c, 9, 38, 0
7, 17895, Note_on_c, 9, 42, 0
7, 17940, Note_on_c, 9, 42, 100
7, 17955, Note_on_c, 9, 42, 0
7, 17970, Note_on_c, 9, 38, 100
7, 17985, Note_on_c, 9, 38, 0
7, 18000, Note_on_c, 9, 42, 100
7, 18000, Note_on_c, 9, 36, 100
7, 18015, Note_on_c, 9, 36, 0
7, 18015, Note_on_c, 9, 42, 0
7, 18060, Note_on_c, 9, 42, 100
7, 18060, Note_on_c, 9, 36, 100
7, 18075, Note_on_c, 9, 36, 0
7, 18075, Note_on_c, 9, 42, 0
7, 18120, Note_on_c, 9, 42, 100
7, 18135, Note_on_c, 9, 42, 0
7, 18180, Note_on_c, 9, 42, 100
7, 18180, Note_on_c, 9, 38, 100
7, 18195, Note_on_c, 9, 38, 0
7, 18195, Note_on_c, 9, 42, 0
7, 18240, Note_on_c, 9, 36, 100
7, 18240, Note_on_c, 9, 42, 100
7, 18255, Note_on_c, 9, 42, 0
7, 18255, Note_on_c, 9, 36, 0
7, 18300, Note_on_c, 9, 36, 100
7, 18300, Note_on_c, 9, 42, 100
7, 18315, Note_on_c, 9, 42, 0
7, 18315, Note_on_c, 9, 36, 0
7, 18360, Note_on_c, 9, 38, 100
7, 18360, Note_on_c, 9, 42, 100
7, 18375, Note_on_c, 9, 42, 0
7, 18375, Note_on_c, 9, 38, 0
7, 18420, Note_on_c, 9, 42, 100
7, 18435, Note_on_c, 9, 42, 0
7, 18480, Note_on_c, 9, 38, 100
7, 18480, Note_on_c, 9, 36, 100
7, 18480, Note_on_c, 9, 42, 100
7, 18495, Note_on_c, 9, 42, 0
7, 18495, Note_on_c, 9, 36, 0
7, 18495, Note_on_c, 9, 38, 0
7, 18540, Note_on_c, 9, 36, 100
7, 18540, Note_on_c, 9, 42, 100
7, 18555, Note_on_c, 9, 42, 0
7, 18555, Note_on_c, 9, 36, 0
7, 18600, Note_on_c, 9, 38, 100
7, 18600, Note_on_c, 9, 42, 100
7, 18615, Note_on_c, 9, 42, 0
7, 18615, Note_on_c, 9, 38, 0
7, 18660, Note_on_c, 9, 42, 100
7, 18675, Note_on_c, 9, 42, 0
7, 18690, Note_on_c, 9, 38, 100
7, 18705, Note_on_c, 9, 38, 0
7, 18720, Note_on_c, 9, 36, 100
7, 18720, Note_on_c, 9, 42, 100
7, 18735, Note_on_c, 9, 42, 0
7, 18735, Note_on_c, 9, 36, 0
7, 18780, Note_on_c, 9, 36, 100
7, 18780, Note_on_c, 9, 42, 100
7, 18795, Note_on_c, 9, 42, 0
7, 18795, Note_on_c, 9, 36, 0
7, 18840, Note_on_c, 9, 42, 100
7, 18855, Note_on_c, 9, 42, 0
7, 18870, Note_on_c, 9, 36, 100
7, 18885, Note_on_c, 9, 36, 0
7, 18900, Note_on_c, 9, 38, 100
7, 18900, Note_on_c, 9, 42, 100
7, 18915, Note_on_c, 9, 42, 0
7, 18915, Note_on_c, 9, 38, 0
7, 18960, Note_on_c, 9, 36, 100
7, 18960, Note_on_c, 9, 42, 100
7, 18975, Note_on_c, 9, 42, 0
7, 18975, Note_on_c, 9, 36, 0
7, 19020, Note_on_c, 9, 36, 100
7, 19020, Note_on_c, 9, 42, 100
7, 19035, Note_on_c, 9, 42, 0
7, 19035, Note_on_c, 9, 36, 0
7, 19080, Note_on_c, 9, 38, 100
7, 19080, Note_on_c, 9, 42, 100
7, 19095, Note_on_c, 9, 42, 0
7, 19095, Note_on_c, 9, 38, 0
7, 19140, Note_on_c, 9, 42, 100
7, 19155, Note_on_c, 9, 42, 0
7, 19170, Note_on_c, 9, 38, 100
7, 19185, Note_on_c, 9, 38, 0
7, 19200, Note_on_c, 9, 36, 100
7, 19200, Note_on_c, 9, 42, 100
7, 19215, Note_on_c, 9, 42, 0
7, 19215, Note_on_c, 9, 36, 0
7, 19260, Note_on_c, 9, 42, 100
7, 19275, Note_on_c, 9, 42, 0
7, 19320, Note_on_c, 9, 38, 100
7, 19320, Note_on_c, 9, 42, 100
7, 19335, Note_on_c, 9, 42, 0
7, 19335, Note_on_c, 9, 38, 0
7, 19380, Note_on_c, 9, 36, 100
7, 19380, Note_on_c, 9, 42, 100
7, 19395, Note_on_c, 9, 42, 0
7, 19395, Note_on_c, 9, 36, 0
7, 19440, Note_on_c, 9, 36, 100
7, 19440, Note_on_c, 9, 42, 100
7, 19455, Note_on_c, 9, 42, 0
7, 19455, Note_on_c, 9, 36, 0
7, 19500, Note_on_c, 9, 36, 100
7, 19500, Note_on_c, 9, 42, 100
7, 19515, Note_on_c, 9, 42, 0
7, 19515, Note_on_c, 9, 36, 0
7, 19560, Note_on_c, 9, 38, 100
7, 19560, Note_on_c, 9, 42, 100
7, 19575, Note_on_c, 9, 42, 0
7, 19575, Note_on_c, 9, 38, 0
7, 19620, Note_on_c, 9, 42, 100
7, 19635, Note_on_c, 9, 42, 0
7, 19650, Note_on_c, 9, 38, 100
7, 19665, Note_on_c, 9, 38, 0
7, 19680, Note_on_c, 9, 36, 100
7, 19680, Note_on_c, 9, 42, 100
7, 19695, Note_on_c, 9, 42, 0
7, 19695, Note_on_c, 9, 36, 0
7, 19740, Note_on_c, 9, 42, 100
7, 19755, Note_on_c, 9, 42, 0
7, 19800, Note_on_c, 9, 38, 100
7, 19800, Note_on_c, 9, 42, 100
7, 19815, Note_on_c, 9, 42, 0
7, 19815, Note_on_c, 9, 38, 0
7, 19860, Note_on_c, 9, 42, 100
7, 19875, Note_on_c, 9, 42, 0
7, 19920, Note_on_c, 9, 38, 100
7, 19920, Note_on_c, 9, 42, 100
7, 19935, Note_on_c, 9, 42, 0
7, 19935, Note_on_c, 9, 38, 0
7, 19980, Note_on_c, 9, 42, 100
7, 19995, Note_on_c, 9, 42, 0
7, 20010, Note_on_c, 9, 36, 100
7, 20025, Note_on_c, 9, 36, 0
7, 20040, Note_on_c, 9, 38, 100
7, 20040, Note_on_c, 9, 42, 100
7, 20055, Note_on_c, 9, 42, 0
7, 20055, Note_on_c, 9, 38, 0
7, 20100, Note_on_c, 9, 36, 100
7, 20100, Note_on_c, 9, 42, 100
7, 20115, Note_on_c, 9, 42, 0
7, 20115, Note_on_c, 9, 36, 0
7, 20130, Note_on_c, 9, 38, 100
7, 20145, Note_on_c, 9, 38, 0
7, 20160, Note_on_c, 9, 36, 120
7, 20160, Note_on_c, 9, 42, 100
7, 20175, Note_on_c, 9, 42, 0
7, 20175, Note_on_c, 9, 36, 0
7, 20220, Note_on_c, 9, 36, 120
7, 20220, Note_on_c, 9, 42, 100
7, 20235, Note_on_c, 9, 42, 0
7, 20235, Note_on_c, 9, 36, 0
7, 20280, Note_on_c, 9, 38, 120
7, 20280, Note_on_c, 9, 42, 100
7, 20295, Note_on_c, 9, 42, 0
7, 20295, Note_on_c, 9, 38, 0
7, 20340, Note_on_c, 9, 42, 100
7, 20355, Note_on_c, 9, 42, 0
7, 20400, Note_on_c, 9, 36, 120
7, 20400, Note_on_c, 9, 38, 120
7, 20400, Note_on_c, 9, 42, 100
7, 20415, Note_on_c, 9, 42, 0
7, 20415, Note_on_c, 9, 38, 0
7, 20415, Note_on_c, 9, 36, 0
7, 20460, Note_on_c, 9, 36, 120
7, 20460, Note_on_c, 9, 42, 100
7, 20475, Note_on_c, 9, 42, 0
7, 20475, Note_on_c, 9, 36, 0
7, 20520, Note_on_c, 9, 38, 120
7, 20520, Note_on_c, 9, 42, 100
7, 20535, Note_on_c, 9, 42, 0
7, 20535, Note_on_c, 9, 38, 0
7, 20580, Note_on_c, 9, 36, 120
7, 20580, Note_on_c, 9, 42, 100
7, 20595, Note_on_c, 9, 42, 0
7, 20595, Note_on_c, 9, 36, 0
7, 20640, Note_on_c, 9, 36, 120
7, 20640, Note_on_c, 9, 42, 100
7, 20655, Note_on_c, 9, 42, 0
7, 20655, Note_on_c, 9, 36, 0
7, 20700, Note_on_c, 9, 36, 120
7, 20700, Note_on_c, 9, 42, 100
7, 20715, Note_on_c, 9, 42, 0
7, 20715, Note_on_c, 9, 36, 0
7, 20760, Note_on_c, 9, 38, 120
7, 20760, Note_on_c, 9, 42, 100
7, 20775, Note_on_c, 9, 42, 0
7, 20775, Note_on_c, 9, 38, 0
7, 20820, Note_on_c, 9, 42, 100
7, 20835, Note_on_c, 9, 42, 0
7, 20850, Note_on_c, 9, 38, 120
7, 20865, Note_on_c, 9, 38, 0
7, 20880, Note_on_c, 9, 36, 120
7, 20880, Note_on_c, 9, 42, 100
7, 20895, Note_on_c, 9, 42, 0
7, 20895, Note_on_c, 9, 36, 0
7, 20940, Note_on_c, 9, 36, 120
7, 20940, Note_on_c, 9, 42, 100
7, 20955, Note_on_c, 9, 42, 0
7, 20955, Note_on_c, 9, 36, 0
7, 21000, Note_on_c, 9, 42, 100
7, 21015, Note_on_c, 9, 42, 0
7, 21060, Note_on_c, 9, 38, 120
7, 21060, Note_on_c, 9, 42, 100
7, 21075, Note_on_c, 9, 42, 0
7, 21075, Note_on_c, 9, 38, 0
7, 21120, Note_on_c, 9, 36, 120
7, 21120, Note_on_c, 9, 42, 100
7, 21135, Note_on_c, 9, 42, 0
7, 21135, Note_on_c, 9, 36, 0
7, 21180, Note_on_c, 9, 36, 120
7, 21180, Note_on_c, 9, 42, 100
7, 21195, Note_on_c, 9, 42, 0
7, 21195, Note_on_c, 9, 36, 0
7, 21240, Note_on_c, 9, 38, 120
7, 21240, Note_on_c, 9, 42, 100
7, 21255, Note_on_c, 9, 42, 0
7, 21255, Note_on_c, 9, 38, 0
7, 21300, Note_on_c, 9, 42, 100
7, 21315, Note_on_c, 9, 42, 0
7, 21360, Note_on_c, 9, 36, 120
7, 21360, Note_on_c, 9, 38, 120
7, 21360, Note_on_c, 9, 42, 100
7, 21375, Note_on_c, 9, 42, 0
7, 21375, Note_on_c, 9, 38, 0
7, 21375, Note_on_c, 9, 36, 0
7, 21420, Note_on_c, 9, 42, 100
7, 21420, Note_on_c, 9, 36, 120
7, 21435, Note_on_c, 9, 36, 0
7, 21435, Note_on_c, 9, 42, 0
7, 21480, Note_on_c, 9, 42, 100
7, 21480, Note_on_c, 9, 38, 120
7, 21495, Note_on_c, 9, 38, 0
7, 21495, Note_on_c, 9, 42, 0
7, 21540, Note_on_c, 9, 36, 120
7, 21540, Note_on_c, 9, 42, 100
7, 21555, Note_on_c, 9, 42, 0
7, 21555, Note_on_c, 9, 36, 0
7, 21600, Note_on_c, 9, 36, 120
7, 21600, Note_on_c, 9, 42, 100
7, 21615, Note_on_c, 9, 42, 0
7, 21615, Note_on_c, 9, 36, 0
7, 21660, Note_on_c, 9, 36, 120
7, 21660, Note_on_c, 9, 42, 100
7, 21675, Note_on_c, 9, 42, 0
7, 21675, Note_on_c, 9, 36, 0
7, 21720, Note_on_c, 9, 38, 120
7, 21720, Note_on_c, 9, 42, 100
7, 21735, Note_on_c, 9, 42, 0
7, 21735, Note_on_c, 9, 38, 0
7, 21780, Note_on_c, 9, 42, 100
7, 21795, Note_on_c, 9, 42, 0
7, 21810, Note_on_c, 9, 38, 120
7, 21825, Note_on_c, 9, 38, 0
7, 21840, Note_on_c, 9, 36, 120
7, 21840, Note_on_c, 9, 42, 100
7, 21855, Note_on_c, 9, 42, 0
7, 21855, Note_on_c, 9, 36, 0
7, 21900, Note_on_c, 9, 36, 120
7, 21900, Note_on_c, 9, 42, 100
7, 21915, Note_on_c, 9, 42, 0
7, 21915, Note_on_c, 9, 36, 0
7, 21960, Note_on_c, 9, 42, 100
7, 21975, Note_on_c, 9, 42, 0
7, 21990, Note_on_c, 9, 36, 120
7, 22005, Note_on_c, 9, 36, 0
7, 22020, Note_on_c, 9, 38, 120
7, 22020, Note_on_c, 9, 42, 100
7, 22035, Note_on_c, 9, 42, 0
7, 22035, Note_on_c, 9, 38, 0
7, 22080, Note_on_c, 9, 36, 120
7, 22080, Note_on_c, 9, 42, 100
7, 22095, Note_on_c, 9, 42, 0
7, 22095, Note_on_c, 9, 36, 0
7, 22140, Note_on_c, 9, 36, 120
7, 22140, Note_on_c, 9, 42, 100
7, 22155, Note_on_c, 9, 42, 0
7, 22155, Note_on_c, 9, 36, 0
7, 22200, Note_on_c, 9, 38, 120
7, 22200, Note_on_c, 9, 42, 100
7, 22215, Note_on_c, 9, 42, 0
7, 22215, Note_on_c, 9, 38, 0
7, 22260, Note_on_c, 9, 42, 100
7, 22275, Note_on_c, 9, 42, 0
7, 22320, Note_on_c, 9, 36, 120
7, 22320, Note_on_c, 9, 38, 120
7, 22320, Note_on_c, 9, 42, 100
7, 22335, Note_on_c, 9, 42, 0
7, 22335, Note_on_c, 9, 38, 0
7, 22335, Note_on_c, 9, 36, 0
7, 22380, Note_on_c, 9, 42, 100
7, 22395, Note_on_c, 9, 42, 0
7, 22440, Note_on_c, 9, 38, 120
7, 22440, Note_on_c, 9, 42, 100
7, 22455, Note_on_c, 9, 42, 0
7, 22455, Note_on_c, 9, 38, 0
7, 22500, Note_on_c, 9, 42, 100
7, 22515, Note_on_c, 9, 42, 0
7, 22560, Note_on_c, 9, 38, 120
7, 22560, Note_on_c, 9, 36, 120
7, 22560, Note_on_c, 9, 42, 100
7, 22575, Note_on_c, 9, 42, 0
7, 22575, Note_on_c, 9, 36, 0
7, 22575, Note_on_c, 9, 38, 0
7, 22620, Note_on_c, 9, 36, 120
7, 22620, Note_on_c, 9, 42, 100
7, 22635, Note_on_c, 9, 42, 0
7, 22635, Note_on_c, 9, 36, 0
7, 22680, Note_on_c, 9, 38, 120
7, 22680, Note_on_c, 9, 42, 100
7, 22695, Note_on_c, 9, 42, 0
7, 22695, Note_on_c, 9, 38, 0
7, 22740, Note_on_c, 9, 42, 100
7, 22755, Note_on_c, 9, 42, 0
7, 22770, Note_on_c, 9, 38, 120
7, 22785, Note_on_c, 9, 38, 0
7, 22800, Note_on_c, 9, 42, 100
7, 22815, Note_on_c, 9, 42, 0
7, 22830, Note_on_c, 9, 38, 120
7, 22845, Note_on_c, 9, 38, 0
7, 22860, Note_on_c, 9, 36, 120
7, 22860, Note_on_c, 9, 42, 100
7, 22875, Note_on_c, 9, 42, 0
7, 22875, Note_on_c, 9, 36, 0
7, 22920, Note_on_c, 9, 38, 120
7, 22920, Note_on_c, 9, 42, 100
7, 22935, Note_on_c, 9, 42, 0
7, 22935, Note_on_c, 9, 38, 0
7, 22980, Note_on_c, 9, 36, 120
7, 22980, Note_on_c, 9, 42, 100
7, 22995, Note_on_c, 9, 42, 0
7, 22995, Note_on_c, 9, 36, 0
7, 23010, Note_on_c, 9, 38, 120
7, 23025, Note_on_c, 9, 38, 0
7, 23040, Note_on_c, 9, 36, 120
7, 23040, Note_on_c, 9, 42, 100
7, 23055, Note_on_c, 9, 42, 0
7, 23055, Note_on_c, 9, 36, 0
7, 23100, Note_on_c, 9, 36, 120
7, 23100, Note_on_c, 9, 42, 100
7, 23115, Note_on_c, 9, 42, 0
7, 23115, Note_on_c, 9, 36, 0
7, 23160, Note_on_c, 9, 38, 120
7, 23160, Note_on_c, 9, 42, 100
7, 23175, Note_on_c, 9, 42, 0
7, 23175, Note_on_c, 9, 38, 0
7, 23220, Note_on_c, 9, 42, 100
7, 23235, Note_on_c, 9, 42, 0
7, 23250, Note_on_c, 9, 38, 120
7, 23265, Note_on_c, 9, 38, 0
7, 23280, Note_on_c, 9, 36, 120
7, 23280, Note_on_c, 9, 42, 100
7, 23295, Note_on_c, 9, 42, 0
7, 23295, Note_on_c, 9, 36, 0
7, 23340, Note_on_c, 9, 36, 120
7, 23340, Note_on_c, 9, 42, 100
7, 23355, Note_on_c, 9, 42, 0
7, 23355, Note_on_c, 9, 36, 0
7, 23400, Note_on_c, 9, 38, 120
7, 23400, Note_on_c, 9, 42, 100
7, 23415, Note_on_c, 9, 42, 0
7, 23415, Note_on_c, 9, 38, 0
7, 23460, Note_on_c, 9, 42, 100
7, 23475, Note_on_c, 9, 42, 0
7, 23490, Note_on_c, 9, 38, 120
7, 23505, Note_on_c, 9, 38, 0
7, 23520, Note_on_c, 9, 47, 120
7, 23535, Note_on_c, 9, 47, 0
7, 23550, Note_on_c, 9, 38, 120
7, 23565, Note_on_c, 9, 38, 0
7, 23580, Note_on_c, 9, 47, 120
7, 23595, Note_on_c, 9, 47, 0
7, 23610, Note_on_c, 9, 47, 120
7, 23625, Note_on_c, 9, 47, 0
7, 23640, Note_on_c, 9, 38, 120
7, 23655, Note_on_c, 9, 38, 0
7, 23670, Note_on_c, 9, 38, 120
7, 23685, Note_on_c, 9, 38, 0
7, 23700, Note_on_c, 9, 47, 120
7, 23715, Note_on_c, 9, 47, 0
7, 23730, Note_on_c, 9, 38, 120
7, 23745, Note_on_c, 9, 38, 0
7, 23760, Note_on_c, 9, 38, 120
7, 23775, Note_on_c, 9, 38, 0
7, 23790, Note_on_c, 9, 38, 120
7, 23805, Note_on_c, 9, 38, 0
7, 23820, Note_on_c, 9, 47, 120
7, 23835, Note_on_c, 9, 47, 0
7, 23850, Note_on_c, 9, 47, 120
7, 23850, Note_on_c, 9, 47, 120
7, 23865, Note_on_c, 9, 47, 0
7, 23865, Note_on_c, 9, 47, 0
7, 23880, Note_on_c, 9, 41, 120
7, 23895, Note_on_c, 9, 41, 0
7, 23910, Note_on_c, 9, 41, 120
7, 23925, Note_on_c, 9, 41, 0
7, 23940, Note_on_c, 9, 41, 120
7, 23955, Note_on_c, 9, 41, 0
7, 23970, Note_on_c, 9, 41, 120
7, 23985, Note_on_c, 9, 41, 0
7, 24000, Note_on_c, 9, 42, 120
7, 24000, Note_on_c, 9, 36, 120
7, 24015, Note_on_c, 9, 36, 0
7, 24015, Note_on_c, 9, 42, 0
7, 24060, Note_on_c, 9, 36, 120
7, 24075, Note_on_c, 9, 36, 0
7, 24120, Note_on_c, 9, 42, 120
7, 24120, Note_on_c, 9, 38, 120
7, 24135, Note_on_c, 9, 38, 0
7, 24135, Note_on_c, 9, 42, 0
7, 24210, Note_on_c, 9, 38, 120
7, 24225, Note_on_c, 9, 38, 0
7, 24240, Note_on_c, 9, 36, 120
7, 24240, Note_on_c, 9, 42, 120
7, 24255, Note_on_c, 9, 42, 0
7, 24255, Note_on_c, 9, 36, 0
7, 24300, Note_on_c, 9, 42, 120
7, 24300, Note_on_c, 9, 36, 120
7, 24315, Note_on_c, 9, 36, 0
7, 24315, Note_on_c, 9, 42, 0
7, 24360, Note_on_c, 9, 38, 120
7, 24360, Note_on_c, 9, 42, 120
7, 24375, Note_on_c, 9, 42, 0
7, 24375, Note_on_c, 9, 38, 0
7, 24420, Note_on_c, 9, 42, 120
7, 24435, Note_on_c, 9, 42, 0
7, 24450, Note_on_c, 9, 38, 120
7, 24465, Note_on_c, 9, 38, 0
7, 24480, Note_on_c, 9, 36, 120
7, 24480, Note_on_c, 9, 42, 100
7, 24495, Note_on_c, 9, 42, 0
7, 24495, Note_on_c, 9, 36, 0
7, 24540, Note_on_c, 9, 36, 120
7, 24540, Note_on_c, 9, 42, 100
7, 24555, Note_on_c, 9, 42, 0
7, 24555, Note_on_c, 9, 36, 0
7, 24600, Note_on_c, 9, 42, 100
7, 24615, Note_on_c, 9, 42, 0
7, 24630, Note_on_c, 9, 36, 120
7, 24645, Note_on_c, 9, 36, 0
7, 24660, Note_on_c, 9, 38, 120
7, 24660, Note_on_c, 9, 42, 100
7, 24675, Note_on_c, 9, 42, 0
7, 24675, Note_on_c, 9, 38, 0
7, 24720, Note_on_c, 9, 36, 120
7, 24720, Note_on_c, 9, 42, 100
7, 24735, Note_on_c, 9, 42, 0
7, 24735, Note_on_c, 9, 36, 0
7, 24780, Note_on_c, 9, 36, 120
7, 24780, Note_on_c, 9, 42, 100
7, 24795, Note_on_c, 9, 42, 0
7, 24795, Note_on_c, 9, 36, 0
7, 24840, Note_on_c, 9, 38, 120
7, 24840, Note_on_c, 9, 42, 100
7, 24855, Note_on_c, 9, 42, 0
7, 24855, Note_on_c, 9, 38, 0
7, 24900, Note_on_c, 9, 42, 100
7, 24915, Note_on_c, 9, 42, 0
7, 24930, Note_on_c, 9, 38, 120
7, 24945, Note_on_c, 9, 38, 0
7, 24960, Note_on_c, 9, 36, 100
7, 24960, Note_on_c, 9, 42, 100
7, 24960, Note_on_c, 9, 36, 120
7, 24960, Note_on_c, 9, 42, 100
7, 24975, Note_on_c, 9, 42, 0
7, 24975, Note_on_c, 9, 36, 0
7, 24975, Note_on_c, 9, 42, 0
7, 24975, Note_on_c, 9, 36, 0
7, 25020, Note_on_c, 9, 36, 100
7, 25020, Note_on_c, 9, 42, 100
7, 25020, Note_on_c, 9, 36, 120
7, 25020, Note_on_c, 9, 42, 100
7, 25035, Note_on_c, 9, 42, 0
7, 25035, Note_on_c, 9, 36, 0
7, 25035, Note_on_c, 9, 42, 0
7, 25035, Note_on_c, 9, 36, 0
7, 25080, Note_on_c, 9, 38, 100
7, 25080, Note_on_c, 9, 42, 100
7, 25080, Note_on_c, 9, 42, 100
7, 25095, Note_on_c, 9, 42, 0
7, 25095, Note_on_c, 9, 42, 0
7, 25095, Note_on_c, 9, 38, 0
7, 25110, Note_on_c, 9, 36, 120
7, 25125, Note_on_c, 9, 36, 0
7, 25140, Note_on_c, 9, 42, 100
7, 25140, Note_on_c, 9, 38, 120
7, 25140, Note_on_c, 9, 42, 100
7, 25155, Note_on_c, 9, 42, 0
7, 25155, Note_on_c, 9, 38, 0
7, 25155, Note_on_c, 9, 42, 0
7, 25170, Note_on_c, 9, 38, 100
7, 25185, Note_on_c, 9, 38, 0
7, 25200, Note_on_c, 9, 36, 100
7, 25200, Note_on_c, 9, 42, 100
7, 25200, Note_on_c, 9, 36, 120
7, 25200, Note_on_c, 9, 42, 100
7, 25215, Note_on_c, 9, 42, 0
7, 25215, Note_on_c, 9, 36, 0
7, 25215, Note_on_c, 9, 42, 0
7, 25215, Note_on_c, 9, 36, 0
7, 25260, Note_on_c, 9, 36, 100
7, 25260, Note_on_c, 9, 42, 100
7, 25260, Note_on_c, 9, 36, 120
7, 25260, Note_on_c, 9, 42, 100
7, 25275, Note_on_c, 9, 42, 0
7, 25275, Note_on_c, 9, 36, 0
7, 25275, Note_on_c, 9, 42, 0
7, 25275, Note_on_c, 9, 36, 0
7, 25320, Note_on_c, 9, 38, 100
7, 25320, Note_on_c, 9, 42, 100
7, 25320, Note_on_c, 9, 38, 120
7, 25320, Note_on_c, 9, 42, 100
7, 25335, Note_on_c, 9, 42, 0
7, 25335, Note_on_c, 9, 38, 0
7, 25335, Note_on_c, 9, 42, 0
7, 25335, Note_on_c, 9, 38, 0
7, 25380, Note_on_c, 9, 42, 100
7, 25380, Note_on_c, 9, 42, 100
7, 25395, Note_on_c, 9, 42, 0
7, 25395, Note_on_c, 9, 42, 0
7, 25410, Note_on_c, 9, 38, 120
7, 25410, Note_on_c, 9, 38, 120
7, 25425, Note_on_c, 9, 38, 0
7, 25425, Note_on_c, 9, 38, 0
7, 25440, Note_on_c, 9, 36, 100
7, 25440, Note_on_c, 9, 42, 100
7, 25455, Note_on_c, 9, 42, 0
7, 25455, Note_on_c, 9, 36, 0
7, 25500, Note_on_c, 9, 36, 100
7, 25500, Note_on_c, 9, 42, 100
7, 25515, Note_on_c, 9, 42, 0
7, 25515, Note_on_c, 9, 36, 0
7, 25560, Note_on_c, 9, 38, 100
7, 25560, Note_on_c, 9, 42, 100
7, 25575, Note_on_c, 9, 42, 0
7, 25575, Note_on_c, 9, 38, 0
7, 25620, Note_on_c, 9, 42, 100
7, 25635, Note_on_c, 9, 42, 0
7, 25650, Note_on_c, 9, 38, 100
7, 25665, Note_on_c, 9, 38, 0
7, 25680, Note_on_c, 9, 36, 100
7, 25680, Note_on_c, 9, 42, 100
7, 25695, Note_on_c, 9, 42, 0
7, 25695, Note_on_c, 9, 36, 0
7, 25740, Note_on_c, 9, 36, 100
7, 25740, Note_on_c, 9, 42, 100
7, 25755, Note_on_c, 9, 42, 0
7, 25755, Note_on_c, 9, 36, 0
7, 25800, Note_on_c, 9, 38, 100
7, 25800, Note_on_c, 9, 42, 100
7, 25815, Note_on_c, 9, 42, 0
7, 25815, Note_on_c, 9, 38, 0
7, 25860, Note_on_c, 9, 42, 100
7, 25875, Note_on_c, 9, 42, 0
7, 25890, Note_on_c, 9, 38, 120
7, 25905, Note_on_c, 9, 38, 0
7, 25920, Note_on_c, 9, 36, 120
7, 25920, Note_on_c, 9, 42, 100
7, 25935, Note_on_c, 9, 42, 0
7, 25935, Note_on_c, 9, 36, 0
7, 25980, Note_on_c, 9, 36, 120
7, 25980, Note_on_c, 9, 42, 100
7, 25995, Note_on_c, 9, 42, 0
7, 25995, Note_on_c, 9, 36, 0
7, 26040, Note_on_c, 9, 42, 100
7, 26055, Note_on_c, 9, 42, 0
7, 26070, Note_on_c, 9, 36, 120
7, 26085, Note_on_c, 9, 36, 0
7, 26100, Note_on_c, 9, 38, 120
7, 26100, Note_on_c, 9, 42, 100
7, 26115, Note_on_c, 9, 42, 0
7, 26115, Note_on_c, 9, 38, 0
7, 26160, Note_on_c, 9, 36, 120
7, 26160, Note_on_c, 9, 42, 100
7, 26175, Note_on_c, 9, 42, 0
7, 26175, Note_on_c, 9, 36, 0
7, 26220, Note_on_c, 9, 36, 120
7, 26220, Note_on_c, 9, 42, 100
7, 26235, Note_on_c, 9, 42, 0
7, 26235, Note_on_c, 9, 36, 0
7, 26280, Note_on_c, 9, 38, 120
7, 26280, Note_on_c, 9, 42, 100
7, 26295, Note_on_c, 9, 42, 0
7, 26295, Note_on_c, 9, 38, 0
7, 26340, Note_on_c, 9, 42, 100
7, 26355, Note_on_c, 9, 42, 0
7, 26370, Note_on_c, 9, 38, 120
7, 26385, Note_on_c, 9, 38, 0
7, 26400, Note_on_c, 9, 36, 100
7, 26400, Note_on_c, 9, 42, 100
7, 26415, Note_on_c, 9, 42, 0
7, 26415, Note_on_c, 9, 36, 0
7, 26460, Note_on_c, 9, 36, 100
7, 26460, Note_on_c, 9, 42, 100
7, 26475, Note_on_c, 9, 42, 0
7, 26475, Note_on_c, 9, 36, 0
7, 26520, Note_on_c, 9, 38, 100
7, 26520, Note_on_c, 9, 42, 100
7, 26535, Note_on_c, 9, 42, 0
7, 26535, Note_on_c, 9, 38, 0
7, 26580, Note_on_c, 9, 42, 100
7, 26595, Note_on_c, 9, 42, 0
7, 26610, Note_on_c, 9, 38, 100
7, 26625, Note_on_c, 9, 38, 0
7, 26640, Note_on_c, 9, 36, 100
7, 26640, Note_on_c, 9, 42, 100
7, 26655, Note_on_c, 9, 42, 0
7, 26655, Note_on_c, 9, 36, 0
7, 26700, Note_on_c, 9, 36, 100
7, 26700, Note_on_c, 9, 42, 100
7, 26715, Note_on_c, 9, 42, 0
7, 26715, Note_on_c, 9, 36, 0
7, 26760, Note_on_c, 9, 38, 100
7, 26760, Note_on_c, 9, 42, 100
7, 26775, Note_on_c, 9, 42, 0
7, 26775, Note_on_c, 9, 38, 0
7, 26820, Note_on_c, 9, 42, 100
7, 26835, Note_on_c, 9, 42, 0
7, 26850, Note_on_c, 9, 38, 120
7, 26865, Note_on_c, 9, 38, 0
7, 26880, Note_on_c, 9, 42, 100
7, 26880, Note_on_c, 9, 36, 100
7, 26895, Note_on_c, 9, 36, 0
7, 26895, Note_on_c, 9, 42, 0
7, 26940, Note_on_c, 9, 36, 100
7, 26940, Note_on_c, 9, 42, 100
7, 26955, Note_on_c, 9, 42, 0
7, 26955, Note_on_c, 9, 36, 0
7, 27000, Note_on_c, 9, 38, 100
7, 27000, Note_on_c, 9, 42, 100
7, 27015, Note_on_c, 9, 42, 0
7, 27015, Note_on_c, 9, 38, 0
7, 27060, Note_on_c, 9, 42, 100
7, 27075, Note_on_c, 9, 42, 0
7, 27090, Note_on_c, 9, 38, 100
7, 27105, Note_on_c, 9, 38, 0
7, 27120, Note_on_c, 9, 42, 100
7, 27120, Note_on_c, 9, 36, 100
7, 27135, Note_on_c, 9, 36, 0
7, 27135, Note_on_c, 9, 42, 0
7, 27180, Note_on_c, 9, 42, 100
7, 27180, Note_on_c, 9, 36, 100
7, 27195, Note_on_c, 9, 36, 0
7, 27195, Note_on_c, 9, 42, 0
7, 27240, Note_on_c, 9, 42, 100
7, 27240, Note_on_c, 9, 38, 100
7, 27255, Note_on_c, 9, 38, 0
7, 27255, Note_on_c, 9, 42, 0
7, 27300, Note_on_c, 9, 42, 100
7, 27315, Note_on_c, 9, 42, 0
7, 27330, Note_on_c, 9, 38, 120
7, 27345, Note_on_c, 9, 38, 0
7, 27365, Note_on_c, 9, 47, 120
7, 27380, Note_on_c, 9, 47, 0
7, 27395, Note_on_c, 9, 47, 120
7, 27410, Note_on_c, 9, 47, 0
7, 27425, Note_on_c, 9, 47, 120
7, 27440, Note_on_c, 9, 47, 0
7, 27455, Note_on_c, 9, 47, 120
7, 27470, Note_on_c, 9, 47, 0
7, 27480, Note_on_c, 9, 38, 120
7, 27495, Note_on_c, 9, 38, 0
7, 27510, Note_on_c, 9, 38, 120
7, 27525, Note_on_c, 9, 38, 0
7, 27535, Note_on_c, 9, 47, 120
7, 27550, Note_on_c, 9, 47, 0
7, 27565, Note_on_c, 9, 47, 120
7, 27580, Note_on_c, 9, 47, 0
7, 27605, Note_on_c, 9, 47, 120
7, 27620, Note_on_c, 9, 47, 0
7, 27660, Note_on_c, 9, 38, 120
7, 27675, Note_on_c, 9, 38, 0
7, 27690, Note_on_c, 9, 38, 120
7, 27705, Note_on_c, 9, 38, 0
7, 27720, Note_on_c, 9, 41, 120
7, 27735, Note_on_c, 9, 41, 0
7, 27750, Note_on_c, 9, 41, 120
7, 27765, Note_on_c, 9, 41, 0
7, 27780, Note_on_c, 9, 41, 120
7, 27795, Note_on_c, 9, 41, 0
7, 27810, Note_on_c, 9, 41, 120
7, 27825, Note_on_c, 9, 41, 0
7, 27960, Note_on_c, 9, 42, 100
7, 27960, Note_on_c, 9, 38, 100
7, 27975, Note_on_c, 9, 38, 0
7, 27975, Note_on_c, 9, 42, 0
7, 28020, Note_on_c, 9, 42, 100
7, 28035, Note_on_c, 9, 42, 0
7, 28080, Note_on_c, 9, 36, 100
7, 28080, Note_on_c, 9, 38, 100
7, 28080, Note_on_c, 9, 42, 100
7, 28095, Note_on_c, 9, 42, 0
7, 28095, Note_on_c, 9, 38, 0
7, 28095, Note_on_c, 9, 36, 0
7, 28140, Note_on_c, 9, 36, 100
7, 28140, Note_on_c, 9, 42, 100
7, 28155, Note_on_c, 9, 42, 0
7, 28155, Note_on_c, 9, 36, 0
7, 28200, Note_on_c, 9, 38, 100
7, 28200, Note_on_c, 9, 42, 100
7, 28215, Note_on_c, 9, 42, 0
7, 28215, Note_on_c, 9, 38, 0
7, 28260, Note_on_c, 9, 36, 100
7, 28260, Note_on_c, 9, 42, 100
7, 28275, Note_on_c, 9, 42, 0
7, 28275, Note_on_c, 9, 36, 0
7, 28320, Note_on_c, 9, 38, 100
7, 28320, Note_on_c, 9, 36, 100
7, 28320, Note_on_c, 9, 42, 100
7, 28335, Note_on_c, 9, 42, 0
7, 28335, Note_on_c, 9, 36, 0
7, 28335, Note_on_c, 9, 38, 0
7, 28380, Note_on_c, 9, 36, 100
7, 28380, Note_on_c, 9, 42, 100
7, 28395, Note_on_c, 9, 42, 0
7, 28395, Note_on_c, 9, 36, 0
7, 28440, Note_on_c, 9, 38, 100
7, 28440, Note_on_c, 9, 42, 100
7, 28455, Note_on_c, 9, 42, 0
7, 28455, Note_on_c, 9, 38, 0
7, 28500, Note_on_c, 9, 42, 100
7, 28515, Note_on_c, 9, 42, 0
7, 28560, Note_on_c, 9, 36, 100
7, 28560, Note_on_c, 9, 38, 100
7, 28560, Note_on_c, 9, 42, 100
7, 28575, Note_on_c, 9, 42, 0
7, 28575, Note_on_c, 9, 38, 0
7, 28575, Note_on_c, 9, 36, 0
7, 28620, Note_on_c, 9, 36, 100
7, 28620, Note_on_c, 9, 42, 100
7, 28635, Note_on_c, 9, 42, 0
7, 28635, Note_on_c, 9, 36, 0
7, 28680, Note_on_c, 9, 38, 100
7, 28680, Note_on_c, 9, 42, 100
7, 28695, Note_on_c, 9, 42, 0
7, 28695, Note_on_c, 9, 38, 0
7, 28740, Note_on_c, 9, 36, 100
7, 28740, Note_on_c, 9, 42, 100
7, 28755, Note_on_c, 9, 42, 0
7, 28755, Note_on_c, 9, 36, 0
7, 28770, Note_on_c, 9, 36, 100
7, 28785, Note_on_c, 9, 36, 0
7, 28800, Note_on_c, 9, 38, 100
7, 28800, Note_on_c, 9, 42, 100
7, 28815, Note_on_c, 9, 42, 0
7, 28815, Note_on_c, 9, 38, 0
7, 28860, Note_on_c, 9, 42, 100
7, 28860, Note_on_c, 9, 36, 100
7, 28875, Note_on_c, 9, 36, 0
7, 28875, Note_on_c, 9, 42, 0
7, 28920, Note_on_c, 9, 38, 100
7, 28920, Note_on_c, 9, 42, 100
7, 28935, Note_on_c, 9, 42, 0
7, 28935, Note_on_c, 9, 38, 0
7, 28980, Note_on_c, 9, 42, 100
7, 28995, Note_on_c, 9, 42, 0
7, 29040, Note_on_c, 9, 36, 100
7, 29040, Note_on_c, 9, 38, 100
7, 29040, Note_on_c, 9, 42, 100
7, 29055, Note_on_c, 9, 42, 0
7, 29055, Note_on_c, 9, 38, 0
7, 29055, Note_on_c, 9, 36, 0
7, 29100, Note_on_c, 9, 36, 100
7, 29100, Note_on_c, 9, 42, 100
7, 29115, Note_on_c, 9, 42, 0
7, 29115, Note_on_c, 9, 36, 0
7, 29160, Note_on_c, 9, 38, 100
7, 29160, Note_on_c, 9, 42, 100
7, 29175, Note_on_c, 9, 42, 0
7, 29175, Note_on_c, 9, 38, 0
7, 29220, Note_on_c, 9, 36, 100
7, 29220, Note_on_c, 9, 42, 100
7, 29235, Note_on_c, 9, 42, 0
7, 29235, Note_on_c, 9, 36, 0
7, 29280, Note_on_c, 9, 36, 100
7, 29280, Note_on_c, 9, 38, 100
7, 29280, Note_on_c, 9, 42, 100
7, 29295, Note_on_c, 9, 42, 0
7, 29295, Note_on_c, 9, 38, 0
7, 29295, Note_on_c, 9, 36, 0
7, 29340, Note_on_c, 9, 36, 100
7, 29340, Note_on_c, 9, 42, 100
7, 29355, Note_on_c, 9, 42, 0
7, 29355, Note_on_c, 9, 36, 0
7, 29400, Note_on_c, 9, 38, 100
7, 29400, Note_on_c, 9, 42, 100
7, 29415, Note_on_c, 9, 42, 0
7, 29415, Note_on_c, 9, 38, 0
7, 29460, Note_on_c, 9, 42, 100
7, 29475, Note_on_c, 9, 42, 0
7, 29520, Note_on_c, 9, 36, 100
7, 29520, Note_on_c, 9, 38, 100
7, 29520, Note_on_c, 9, 42, 100
7, 29535, Note_on_c, 9, 42, 0
7, 29535, Note_on_c, 9, 38, 0
7, 29535, Note_on_c, 9, 36, 0
7, 29580, Note_on_c, 9, 36, 100
7, 29580, Note_on_c, 9, 42, 100
7, 29595, Note_on_c, 9, 42, 0
7, 29595, Note_on_c, 9, 36, 0
7, 29640, Note_on_c, 9, 38, 100
7, 29640, Note_on_c, 9, 42, 100
7, 29655, Note_on_c, 9, 42, 0
7, 29655, Note_on_c, 9, 38, 0
7, 29700, Note_on_c, 9, 36, 100
7, 29700, Note_on_c, 9, 42, 100
7, 29715, Note_on_c, 9, 42, 0
7, 29715, Note_on_c, 9, 36, 0
7, 29730, Note_on_c, 9, 36, 100
7, 29745, Note_on_c, 9, 36, 0
7, 29760, Note_on_c, 9, 38, 100
7, 29760, Note_on_c, 9, 42, 100
7, 29775, Note_on_c, 9, 42, 0
7, 29775, Note_on_c, 9, 38, 0
7, 29820, Note_on_c, 9, 42, 100
7, 29820, Note_on_c, 9, 36, 100
7, 29835, Note_on_c, 9, 36, 0
7, 29835, Note_on_c, 9, 42, 0
7, 29880, Note_on_c, 9, 38, 100
7, 29880, Note_on_c, 9, 42, 100
7, 29895, Note_on_c, 9, 42, 0
7, 29895, Note_on_c, 9, 38, 0
7, 29940, Note_on_c, 9, 42, 100
7, 29955, Note_on_c, 9, 42, 0
7, 30000, Note_on_c, 9, 36, 100
7, 30000, Note_on_c, 9, 38, 100
7, 30000, Note_on_c, 9, 42, 100
7, 30015, Note_on_c, 9, 42, 0
7, 30015, Note_on_c, 9, 38, 0
7, 30015, Note_on_c, 9, 36, 0
7, 30060, Note_on_c, 9, 36, 100
7, 30060, Note_on_c, 9, 42, 100
7, 30075, Note_on_c, 9, 42, 0
7, 30075, Note_on_c, 9, 36, 0
7, 30120, Note_on_c, 9, 38, 100
7, 30120, Note_on_c, 9, 42, 100
7, 30135, Note_on_c, 9, 42, 0
7, 30135, Note_on_c, 9, 38, 0
7, 30180, Note_on_c, 9, 36, 100
7, 30180, Note_on_c, 9, 42, 100
7, 30195, Note_on_c, 9, 42, 0
7, 30195, Note_on_c, 9, 36, 0
7, 30240, Note_on_c, 9, 36, 100
7, 30240, Note_on_c, 9, 38, 100
7, 30240, Note_on_c, 9, 42, 100
7, 30255, Note_on_c, 9, 42, 0
7, 30255, Note_on_c, 9, 38, 0
7, 30255, Note_on_c, 9, 36, 0
7, 30300, Note_on_c, 9, 36, 100
7, 30300, Note_on_c, 9, 42, 100
7, 30315, Note_on_c, 9, 42, 0
7, 30315, Note_on_c, 9, 36, 0
7, 30360, Note_on_c, 9, 38, 100
7, 30360, Note_on_c, 9, 42, 100
7, 30375, Note_on_c, 9, 42, 0
7, 30375, Note_on_c, 9, 38, 0
7, 30420, Note_on_c, 9, 42, 100
7, 30435, Note_on_c, 9, 42, 0
7, 30480, Note_on_c, 9, 36, 100
7, 30480, Note_on_c, 9, 38, 100
7, 30480, Note_on_c, 9, 42, 100
7, 30495, Note_on_c, 9, 42, 0
7, 30495, Note_on_c, 9, 38, 0
7, 30495, Note_on_c, 9, 36, 0
7, 30540, Note_on_c, 9, 36, 100
7, 30540, Note_on_c, 9, 42, 100
7, 30555, Note_on_c, 9, 42, 0
7, 30555, Note_on_c, 9, 36, 0
7, 30600, Note_on_c, 9, 38, 100
7, 30600, Note_on_c, 9, 42, 100
7, 30615, Note_on_c, 9, 42, 0
7, 30615, Note_on_c, 9, 38, 0
7, 30660, Note_on_c, 9, 36, 100
7, 30660, Note_on_c, 9, 42, 100
7, 30675, Note_on_c, 9, 42, 0
7, 30675, Note_on_c, 9, 36, 0
7, 30690, Note_on_c, 9, 36, 100
7, 30705, Note_on_c, 9, 36, 0
7, 30720, Note_on_c, 9, 38, 100
7, 30720, Note_on_c, 9, 42, 100
7, 30735, Note_on_c, 9, 42, 0
7, 30735, Note_on_c, 9, 38, 0
7, 30780, Note_on_c, 9, 36, 100
7, 30780, Note_on_c, 9, 42, 100
7, 30795, Note_on_c, 9, 42, 0
7, 30795, Note_on_c, 9, 36, 0
7, 30840, Note_on_c, 9, 38, 100
7, 30840, Note_on_c, 9, 42, 100
7, 30855, Note_on_c, 9, 42, 0
7, 30855, Note_on_c, 9, 38, 0
7, 30900, Note_on_c, 9, 42, 100
7, 30915, Note_on_c, 9, 42, 0
7, 30960, Note_on_c, 9, 36, 100
7, 30960, Note_on_c, 9, 38, 100
7, 30960, Note_on_c, 9, 42, 100
7, 30975, Note_on_c, 9, 42, 0
7, 30975, Note_on_c, 9, 38, 0
7, 30975, Note_on_c, 9, 36, 0
7, 31020, Note_on_c, 9, 36, 100
7, 31020, Note_on_c, 9, 42, 100
7, 31035, Note_on_c, 9, 42, 0
7, 31035, Note_on_c, 9, 36, 0
7, 31080, Note_on_c, 9, 38, 100
7, 31080, Note_on_c, 9, 42, 100
7, 31095, Note_on_c, 9, 42, 0
7, 31095, Note_on_c, 9, 38, 0
7, 31140, Note_on_c, 9, 42, 100
7, 31155, Note_on_c, 9, 42, 0
7, 31170, Note_on_c, 9, 38, 100
7, 31185, Note_on_c, 9, 38, 0
7, 31200, Note_on_c, 9, 47, 100
7, 31215, Note_on_c, 9, 47, 0
7, 31230, Note_on_c, 9, 38, 100
7, 31245, Note_on_c, 9, 38, 0
7, 31260, Note_on_c, 9, 38, 100
7, 31275, Note_on_c, 9, 38, 0
7, 31350, Note_on_c, 9, 38, 100
7, 31365, Note_on_c, 9, 38, 0
7, 31380, Note_on_c, 9, 47, 100
7, 31395, Note_on_c, 9, 47, 0
7, 31410, Note_on_c, 9, 38, 100
7, 31425, Note_on_c, 9, 38, 0
7, 31440, Note_on_c, 9, 38, 100
7, 31455, Note_on_c, 9, 38, 0
7, 31470, Note_on_c, 9, 38, 100
7, 31485, Note_on_c, 9, 38, 0
7, 31500, Note_on_c, 9, 47, 100
7, 31515, Note_on_c, 9, 47, 0
7, 31530, Note_on_c, 9, 47, 100
7, 31530, Note_on_c, 9, 47, 100
7, 31545, Note_on_c, 9, 47, 0
7, 31545, Note_on_c, 9, 47, 0
7, 31560, Note_on_c, 9, 45, 100
7, 31575, Note_on_c, 9, 45, 0
7, 31590, Note_on_c, 9, 45, 100
7, 31605, Note_on_c, 9, 45, 0
7, 31620, Note_on_c, 9, 41, 100
7, 31635, Note_on_c, 9, 41, 0
7, 31650, Note_on_c, 9, 41, 100
7, 31665, Note_on_c, 9, 41, 0
7, 31680, Note_on_c, 9, 49, 100
7, 31680, Note_on_c, 9, 36, 100
7, 31695, Note_on_c, 9, 36, 0
7, 31695, Note_on_c, 9, 49, 0
7, 31800, Note_on_c, 9, 42, 100
7, 31800, Note_on_c, 9, 38, 100
7, 31815, Note_on_c, 9, 38, 0
7, 31815, Note_on_c, 9, 42, 0
7, 31860, Note_on_c, 9, 42, 100
7, 31875, Note_on_c, 9, 42, 0
7, 31890, Note_on_c, 9, 38, 100
7, 31905, Note_on_c, 9, 38, 0
7, 31920, Note_on_c, 9, 42, 100
7, 31920, Note_on_c, 9, 36, 100
7, 31935, Note_on_c, 9, 36, 0
7, 31935, Note_on_c, 9, 42, 0
7, 31980, Note_on_c, 9, 42, 100
7, 31980, Note_on_c, 9, 36, 100
7, 31995, Note_on_c, 9, 36, 0
7, 31995, Note_on_c, 9, 42, 0
7, 32040, Note_on_c, 9, 42, 100
7, 32040, Note_on_c, 9, 38, 100
7, 32055, Note_on_c, 9, 38, 0
7, 32055, Note_on_c, 9, 42, 0
7, 32100, Note_on_c, 9, 42, 100
7, 32115, Note_on_c, 9, 42, 0
7, 32160, Note_on_c, 9, 42, 100
7, 32160, Note_on_c, 9, 38, 100
7, 32160, Note_on_c, 9, 36, 100
7, 32175, Note_on_c, 9, 36, 0
7, 32175, Note_on_c, 9, 38, 0
7, 32175, Note_on_c, 9, 42, 0
7, 32175, Note_on_c, 9, 38, 100
7, 32190, Note_on_c, 9, 38, 0
7, 32220, Note_on_c, 9, 42, 100
7, 32220, Note_on_c, 9, 36, 100
7, 32235, Note_on_c, 9, 36, 0
7, 32235, Note_on_c, 9, 42, 0
7, 32280, Note_on_c, 9, 42, 100
7, 32295, Note_on_c, 9, 42, 0
7, 32310, Note_on_c, 9, 36, 100
7, 32325, Note_on_c, 9, 36, 0
7, 32340, Note_on_c, 9, 42, 100
7, 32340, Note_on_c, 9, 38, 100
7, 32355, Note_on_c, 9, 38, 0
7, 32355, Note_on_c, 9, 42, 0
7, 32400, Note_on_c, 9, 42, 100
7, 32400, Note_on_c, 9, 36, 100
7, 32415, Note_on_c, 9, 36, 0
7, 32415, Note_on_c, 9, 42, 0
7, 32460, Note_on_c, 9, 42, 100
7, 32460, Note_on_c, 9, 36, 100
7, 32475, Note_on_c, 9, 36, 0
7, 32475, Note_on_c, 9, 42, 0
7, 32490, Note_on_c, 9, 36, 100
7, 32505, Note_on_c, 9, 36, 0
7, 32520, Note_on_c, 9, 42, 100
7, 32520, Note_on_c, 9, 38, 100
7, 32535, Note_on_c, 9, 38, 0
7, 32535, Note_on_c, 9, 42, 0
7, 32580, Note_on_c, 9, 42, 100
7, 32595, Note_on_c, 9, 42, 0
7, 32610, Note_on_c, 9, 38, 100
7, 32625, Note_on_c, 9, 38, 0
7, 32640, Note_on_c, 9, 36, 100
7, 32640, Note_on_c, 9, 42, 100
7, 32655, Note_on_c, 9, 42, 0
7, 32655, Note_on_c, 9, 36, 0
7, 32700, Note_on_c, 9, 36, 100
7, 32700, Note_on_c, 9, 42, 100
7, 32715, Note_on_c, 9, 42, 0
7, 32715, Note_on_c, 9, 36, 0
7, 32760, Note_on_c, 9, 38, 100
7, 32760, Note_on_c, 9, 42, 100
7, 32775, Note_on_c, 9, 42, 0
7, 32775, Note_on_c, 9, 38, 0
7, 32820, Note_on_c, 9, 42, 100
7, 32835, Note_on_c, 9, 42, 0
7, 32850, Note_on_c, 9, 38, 100
7, 32865, Note_on_c, 9, 38, 0
7, 32880, Note_on_c, 9, 36, 100
7, 32880, Note_on_c, 9, 42, 100
7, 32895, Note_on_c, 9, 42, 0
7, 32895, Note_on_c, 9, 36, 0
7, 32940, Note_on_c, 9, 36, 100
7, 32940, Note_on_c, 9, 42, 100
7, 32955, Note_on_c, 9, 42, 0
7, 32955, Note_on_c, 9, 36, 0
7, 33000, Note_on_c, 9, 38, 100
7, 33000, Note_on_c, 9, 42, 100
7, 33015, Note_on_c, 9, 42, 0
7, 33015, Note_on_c, 9, 38, 0
7, 33060, Note_on_c, 9, 42, 100
7, 33075, Note_on_c, 9, 42, 0
7, 33090, Note_on_c, 9, 38, 100
7, 33105, Note_on_c, 9, 38, 0
7, 33120, Note_on_c, 9, 42, 100
7, 33120, Note_on_c, 9, 36, 100
7, 33135, Note_on_c, 9, 36, 0
7, 33135, Note_on_c, 9, 42, 0
7, 33180, Note_on_c, 9, 42, 100
7, 33180, Note_on_c, 9, 36, 100
7, 33195, Note_on_c, 9, 36, 0
7, 33195, Note_on_c, 9, 42, 0
7, 33240, Note_on_c, 9, 42, 100
7, 33255, Note_on_c, 9, 42, 0
7, 33270, Note_on_c, 9, 36, 100
7, 33285, Note_on_c, 9, 36, 0
7, 33300, Note_on_c, 9, 42, 100
7, 33300, Note_on_c, 9, 38, 100
7, 33315, Note_on_c, 9, 38, 0
7, 33315, Note_on_c, 9, 42, 0
7, 33360, Note_on_c, 9, 42, 100
7, 33375, Note_on_c, 9, 42, 0
7, 33420, Note_on_c, 9, 42, 100
7, 33420, Note_on_c, 9, 36, 100
7, 33435, Note_on_c, 9, 36, 0
7, 33435, Note_on_c, 9, 42, 0
7, 33450, Note_on_c, 9, 36, 100
7, 33465, Note_on_c, 9, 36, 0
7, 33480, Note_on_c, 9, 42, 100
7, 33495, Note_on_c, 9, 42, 0
7, 33510, Note_on_c, 9, 36, 100
7, 33525, Note_on_c, 9, 36, 0
7, 33540, Note_on_c, 9, 42, 100
7, 33540, Note_on_c, 9, 38, 100
7, 33555, Note_on_c, 9, 38, 0
7, 33555, Note_on_c, 9, 42, 0
7, 33600, Note_on_c, 9, 42, 100
7, 33600, Note_on_c, 9, 36, 100
7, 33615, Note_on_c, 9, 36, 0
7, 33615, Note_on_c, 9, 42, 0
7, 33660, Note_on_c, 9, 42, 100
7, 33660, Note_on_c, 9, 36, 100
7, 33675, Note_on_c, 9, 36, 0
7, 33675, Note_on_c, 9, 42, 0
7, 33720, Note_on_c, 9, 42, 100
7, 33720, Note_on_c, 9, 38, 100
7, 33735, Note_on_c, 9, 38, 0
7, 33735, Note_on_c, 9, 42, 0
7, 33780, Note_on_c, 9, 42, 100
7, 33795, Note_on_c, 9, 42, 0
7, 33810, Note_on_c, 9, 38, 100
7, 33825, Note_on_c, 9, 38, 0
7, 33840, Note_on_c, 9, 42, 100
7, 33840, Note_on_c, 9, 36, 100
7, 33855, Note_on_c, 9, 36, 0
7, 33855, Note_on_c, 9, 42, 0
7, 33900, Note_on_c, 9, 42, 100
7, 33900, Note_on_c, 9, 36, 100
7, 33915, Note_on_c, 9, 36, 0
7, 33915, Note_on_c, 9, 42, 0
7, 33960, Note_on_c, 9, 42, 100
7, 33960, Note_on_c, 9, 38, 100
7, 33975, Note_on_c, 9, 38, 0
7, 33975, Note_on_c, 9, 42, 0
7, 34020, Note_on_c, 9, 42, 100
7, 34035, Note_on_c, 9, 42, 0
7, 34050, Note_on_c, 9, 38, 100
7, 34065, Note_on_c, 9, 38, 0
7, 34080, Note_on_c, 9, 42, 100
7, 34080, Note_on_c, 9, 36, 100
7, 34095, Note_on_c, 9, 36, 0
7, 34095, Note_on_c, 9, 42, 0
7, 34140, Note_on_c, 9, 36, 100
7, 34140, Note_on_c, 9, 42, 100
7, 34155, Note_on_c, 9, 42, 0
7, 34155, Note_on_c, 9, 36, 0
7, 34170, Note_on_c, 9, 36, 100
7, 34185, Note_on_c, 9, 36, 0
7, 34200, Note_on_c, 9, 42, 100
7, 34200, Note_on_c, 9, 38, 100
7, 34215, Note_on_c, 9, 38, 0
7, 34215, Note_on_c, 9, 42, 0
7, 34260, Note_on_c, 9, 42, 100
7, 34275, Note_on_c, 9, 42, 0
7, 34290, Note_on_c, 9, 38, 100
7, 34305, Note_on_c, 9, 38, 0
7, 34320, Note_on_c, 9, 42, 100
7, 34320, Note_on_c, 9, 36, 100
7, 34335, Note_on_c, 9, 36, 0
7, 34335, Note_on_c, 9, 42, 0
7, 34380, Note_on_c, 9, 42, 100
7, 34380, Note_on_c, 9, 36, 100
7, 34395, Note_on_c, 9, 36, 0
7, 34395, Note_on_c, 9, 42, 0
7, 34410, Note_on_c, 9, 36, 100
7, 34425, Note_on_c, 9, 36, 0
7, 34440, Note_on_c, 9, 42, 100
7, 34440, Note_on_c, 9, 38, 100
7, 34455, Note_on_c, 9, 38, 0
7, 34455, Note_on_c, 9, 42, 0
7, 34470, Note_on_c, 9, 36, 100
7, 34485, Note_on_c, 9, 36, 0
7, 34500, Note_on_c, 9, 42, 100
7, 34500, Note_on_c, 9, 36, 100
7, 34515, Note_on_c, 9, 36, 0
7, 34515, Note_on_c, 9, 42, 0
7, 34530, Note_on_c, 9, 38, 100
7, 34545, Note_on_c, 9, 38, 0
7, 34560, Note_on_c, 9, 42, 100
7, 34560, Note_on_c, 9, 36, 100
7, 34575, Note_on_c, 9, 36, 0
7, 34575, Note_on_c, 9, 42, 0
7, 34620, Note_on_c, 9, 42, 100
7, 34620, Note_on_c, 9, 36, 100
7, 34635, Note_on_c, 9, 36, 0
7, 34635, Note_on_c, 9, 42, 0
7, 34680, Note_on_c, 9, 42, 100
7, 34680, Note_on_c, 9, 38, 100
7, 34695, Note_on_c, 9, 38, 0
7, 34695, Note_on_c, 9, 42, 0
7, 34740, Note_on_c, 9, 36, 100
7, 34755, Note_on_c, 9, 36, 0
7, 34770, Note_on_c, 9, 36, 100
7, 34785, Note_on_c, 9, 36, 0
7, 34800, Note_on_c, 9, 38, 100
7, 34800, Note_on_c, 9, 49, 100
7, 34815, Note_on_c, 9, 49, 0
7, 34815, Note_on_c, 9, 38, 0
7, 34860, Note_on_c, 9, 36, 100
7, 34875, Note_on_c, 9, 36, 0
7, 34890, Note_on_c, 9, 36, 100
7, 34905, Note_on_c, 9, 36, 0
7, 34920, Note_on_c, 9, 49, 100
7, 34920, Note_on_c, 9, 38, 100
7, 34935, Note_on_c, 9, 38, 0
7, 34935, Note_on_c, 9, 49, 0
7, 34980, Note_on_c, 9, 36, 100
7, 34995, Note_on_c, 9, 36, 0
7, 35010, Note_on_c, 9, 36, 100
7, 35025, Note_on_c, 9, 36, 0
7, 35040, Note_on_c, 9, 38, 100
7, 35040, Note_on_c, 9, 49, 100
7, 35055, Note_on_c, 9, 49, 0
7, 35055, Note_on_c, 9, 38, 0
7, 35100, Note_on_c, 9, 36, 100
7, 35115, Note_on_c, 9, 36, 0
7, 35130, Note_on_c, 9, 36, 100
7, 35145, Note_on_c, 9, 36, 0
7, 35160, Note_on_c, 9, 38, 100
7, 35160, Note_on_c, 9, 49, 100
7, 35175, Note_on_c, 9, 49, 0
7, 35175, Note_on_c, 9, 38, 0
7, 35220, Note_on_c, 9, 36, 100
7, 35235, Note_on_c, 9, 36, 0
7, 35250, Note_on_c, 9, 36, 100
7, 35265, Note_on_c, 9, 36, 0
7, 35280, Note_on_c, 9, 38, 100
7, 35280, Note_on_c, 9, 49, 100
7, 35295, Note_on_c, 9, 49, 0
7, 35295, Note_on_c, 9, 38, 0
7, 35340, Note_on_c, 9, 36, 100
7, 35355, Note_on_c, 9, 36, 0
7, 35370, Note_on_c, 9, 36, 100
7, 35385, Note_on_c, 9, 36, 0
7, 35400, Note_on_c, 9, 47, 100
7, 35400, Note_on_c, 9, 41, 100
7, 35415, Note_on_c, 9, 41, 0
7, 35415, Note_on_c, 9, 47, 0
7, 35430, Note_on_c, 9, 36, 100
7, 35445, Note_on_c, 9, 36, 0
7, 35460, Note_on_c, 9, 36, 100
7, 35475, Note_on_c, 9, 36, 0
7, 35520, Note_on_c, 9, 36, 100
7, 35520, Note_on_c, 9, 42, 100
7, 35535, Note_on_c, 9, 42, 0
7, 35535, Note_on_c, 9, 36, 0
7, 35580, Note_on_c, 9, 42, 100
7, 35595, Note_on_c, 9, 42, 0
7, 35640, Note_on_c, 9, 38, 100
7, 35640, Note_on_c, 9, 42, 100
7, 35655, Note_on_c, 9, 42, 0
7, 35655, Note_on_c, 9, 38, 0
7, 35700, Note_on_c, 9, 42, 100
7, 35715, Note_on_c, 9, 42, 0
7, 35730, Note_on_c, 9, 38, 100
7, 35745, Note_on_c, 9, 38, 0
7, 35760, Note_on_c, 9, 36, 100
7, 35760, Note_on_c, 9, 42, 100
7, 35775, Note_on_c, 9, 42, 0
7, 35775, Note_on_c, 9, 36, 0
7, 35820, Note_on_c, 9, 36, 100
7, 35820, Note_on_c, 9, 42, 100
7, 35835, Note_on_c, 9, 42, 0
7, 35835, Note_on_c, 9, 36, 0
7, 35880, Note_on_c, 9, 38, 100
7, 35880, Note_on_c, 9, 42, 100
7, 35895, Note_on_c, 9, 42, 0
7, 35895, Note_on_c, 9, 38, 0
7, 35940, Note_on_c, 9, 42, 100
7, 35955, Note_on_c, 9, 42, 0
7, 35970, Note_on_c, 9, 38, 100
7, 35985, Note_on_c, 9, 38, 0
7, 36000, Note_on_c, 9, 36, 100
7, 36000, Note_on_c, 9, 42, 100
7, 36015, Note_on_c, 9, 42, 0
7, 36015, Note_on_c, 9, 36, 0
7, 36060, Note_on_c, 9, 36, 100
7, 36060, Note_on_c, 9, 42, 100
7, 36075, Note_on_c, 9, 42, 0
7, 36075, Note_on_c, 9, 36, 0
7, 36120, Note_on_c, 9, 42, 100
7, 36135, Note_on_c, 9, 42, 0
7, 36150, Note_on_c, 9, 36, 100
7, 36165, Note_on_c, 9, 36, 0
7, 36180, Note_on_c, 9, 38, 100
7, 36180, Note_on_c, 9, 42, 100
7, 36195, Note_on_c, 9, 42, 0
7, 36195, Note_on_c, 9, 38, 0
7, 36240, Note_on_c, 9, 36, 100
7, 36240, Note_on_c, 9, 42, 100
7, 36255, Note_on_c, 9, 42, 0
7, 36255, Note_on_c, 9, 36, 0
7, 36300, Note_on_c, 9, 36, 100
7, 36300, Note_on_c, 9, 42, 100
7, 36315, Note_on_c, 9, 42, 0
7, 36315, Note_on_c, 9, 36, 0
7, 36330, Note_on_c, 9, 36, 100
7, 36345, Note_on_c, 9, 36, 0
7, 36360, Note_on_c, 9, 38, 100
7, 36360, Note_on_c, 9, 42, 100
7, 36375, Note_on_c, 9, 42, 0
7, 36375, Note_on_c, 9, 38, 0
7, 36390, Note_on_c, 9, 36, 100
7, 36405, Note_on_c, 9, 36, 0
7, 36420, Note_on_c, 9, 36, 100
7, 36420, Note_on_c, 9, 42, 100
7, 36435, Note_on_c, 9, 42, 0
7, 36435, Note_on_c, 9, 36, 0
7, 36450, Note_on_c, 9, 38, 100
7, 36465, Note_on_c, 9, 38, 0
7, 36480, Note_on_c, 9, 36, 100
7, 36480, Note_on_c, 9, 42, 100
7, 36495, Note_on_c, 9, 42, 0
7, 36495, Note_on_c, 9, 36, 0
7, 36540, Note_on_c, 9, 36, 100
7, 36540, Note_on_c, 9, 42, 100
7, 36555, Note_on_c, 9, 42, 0
7, 36555, Note_on_c, 9, 36, 0
7, 36600, Note_on_c, 9, 38, 100
7, 36600, Note_on_c, 9, 42, 100
7, 36615, Note_on_c, 9, 42, 0
7, 36615, Note_on_c, 9, 38, 0
7, 36660, Note_on_c, 9, 42, 100
7, 36675, Note_on_c, 9, 42, 0
7, 36690, Note_on_c, 9, 38, 100
7, 36705, Note_on_c, 9, 38, 0
7, 36720, Note_on_c, 9, 36, 100
7, 36720, Note_on_c, 9, 42, 100
7, 36735, Note_on_c, 9, 42, 0
7, 36735, Note_on_c, 9, 36, 0
7, 36780, Note_on_c, 9, 36, 100
7, 36780, Note_on_c, 9, 42, 100
7, 36795, Note_on_c, 9, 42, 0
7, 36795, Note_on_c, 9, 36, 0
7, 36840, Note_on_c, 9, 38, 100
7, 36840, Note_on_c, 9, 42, 100
7, 36855, Note_on_c, 9, 42, 0
7, 36855, Note_on_c, 9, 38, 0
7, 36900, Note_on_c, 9, 42, 100
7, 36915, Note_on_c, 9, 42, 0
7, 36960, Note_on_c, 9, 42, 100
7, 36960, Note_on_c, 9, 38, 100
7, 36975, Note_on_c, 9, 38, 0
7, 36975, Note_on_c, 9, 42, 0
7, 36990, Note_on_c, 9, 42, 100
7, 36990, Note_on_c, 9, 38, 100
7, 37005, Note_on_c, 9, 38, 0
7, 37005, Note_on_c, 9, 42, 0
7, 37050, Note_on_c, 9, 42, 100
7, 37050, Note_on_c, 9, 38, 100
7, 37065, Note_on_c, 9, 38, 0
7, 37065, Note_on_c, 9, 42, 0
7, 37080, Note_on_c, 9, 42, 100
7, 37080, Note_on_c, 9, 38, 100
7, 37095, Note_on_c, 9, 38, 0
7, 37095, Note_on_c, 9, 42, 0
7, 37140, Note_on_c, 9, 42, 100
7, 37140, Note_on_c, 9, 38, 100
7, 37155, Note_on_c, 9, 38, 0
7, 37155, Note_on_c, 9, 42, 0
7, 37170, Note_on_c, 9, 42, 100
7, 37170, Note_on_c, 9, 38, 100
7, 37185, Note_on_c, 9, 38, 0
7, 37185, Note_on_c, 9, 42, 0
7, 37230, Note_on_c, 9, 42, 100
7, 37230, Note_on_c, 9, 38, 100
7, 37245, Note_on_c, 9, 38, 0
7, 37245, Note_on_c, 9, 42, 0
7, 37260, Note_on_c, 9, 42, 100
7, 37260, Note_on_c, 9, 38, 100
7, 37275, Note_on_c, 9, 38, 0
7, 37275, Note_on_c, 9, 42, 0
7, 37320, Note_on_c, 9, 41, 100
7, 37320, Note_on_c, 9, 38, 100
7, 37335, Note_on_c, 9, 38, 0
7, 37335, Note_on_c, 9, 41, 0
7, 37350, Note_on_c, 9, 41, 100
7, 37350, Note_on_c, 9, 38, 100
7, 37365, Note_on_c, 9, 38, 0
7, 37365, Note_on_c, 9, 41, 0
7, 37380, Note_on_c, 9, 41, 100
7, 37380, Note_on_c, 9, 38, 100
7, 37395, Note_on_c, 9, 38, 0
7, 37395, Note_on_c, 9, 41, 0
7, 37440, Note_on_c, 9, 35, 100
7, 37440, Note_on_c, 9, 42, 100
7, 37455, Note_on_c, 9, 42, 0
7, 37455, Note_on_c, 9, 35, 0
7, 37500, Note_on_c, 9, 42, 100
7, 37515, Note_on_c, 9, 42, 0
7, 37560, Note_on_c, 9, 38, 100
7, 37560, Note_on_c, 9, 42, 100
7, 37575, Note_on_c, 9, 42, 0
7, 37575, Note_on_c, 9, 38, 0
7, 37620, Note_on_c, 9, 42, 100
7, 37635, Note_on_c, 9, 42, 0
7, 37650, Note_on_c, 9, 38, 100
7, 37665, Note_on_c, 9, 38, 0
7, 37680, Note_on_c, 9, 35, 100
7, 37680, Note_on_c, 9, 42, 100
7, 37695, Note_on_c, 9, 42, 0
7, 37695, Note_on_c, 9, 35, 0
7, 37740, Note_on_c, 9, 35, 100
7, 37740, Note_on_c, 9, 42, 100
7, 37755, Note_on_c, 9, 42, 0
7, 37755, Note_on_c, 9, 35, 0
7, 37800, Note_on_c, 9, 38, 100
7, 37800, Note_on_c, 9, 42, 100
7, 37815, Note_on_c, 9, 42, 0
7, 37815, Note_on_c, 9, 38, 0
7, 37860, Note_on_c, 9, 42, 100
7, 37875, Note_on_c, 9, 42, 0
7, 37890, Note_on_c, 9, 38, 100
7, 37905, Note_on_c, 9, 38, 0
7, 37920, Note_on_c, 9, 35, 100
7, 37920, Note_on_c, 9, 49, 100
7, 37935, Note_on_c, 9, 49, 0
7, 37935, Note_on_c, 9, 35, 0
7, 37950, Note_on_c, 9, 38, 100
7, 37965, Note_on_c, 9, 38, 0
7, 37980, Note_on_c, 9, 38, 100
7, 37995, Note_on_c, 9, 38, 0
7, 38010, Note_on_c, 9, 38, 100
7, 38025, Note_on_c, 9, 38, 0
7, 38040, Note_on_c, 9, 38, 100
7, 38055, Note_on_c, 9, 38, 0
7, 38070, Note_on_c, 9, 38, 100
7, 38085, Note_on_c, 9, 38, 0
7, 38100, Note_on_c, 9, 49, 100
7, 38100, Note_on_c, 9, 35, 100
7, 38115, Note_on_c, 9, 35, 0
7, 38115, Note_on_c, 9, 49, 0
7, 38130, Note_on_c, 9, 38, 100
7, 38145, Note_on_c, 9, 38, 0
7, 38160, Note_on_c, 9, 38, 100
7, 38175, Note_on_c, 9, 38, 0
7, 38190, Note_on_c, 9, 38, 100
7, 38205, Note_on_c, 9, 38, 0
7, 38220, Note_on_c, 9, 49, 100
7, 38220, Note_on_c, 9, 35, 100
7, 38235, Note_on_c, 9, 35, 0
7, 38235, Note_on_c, 9, 49, 0
7, 38250, Note_on_c, 9, 38, 100
7, 38265, Note_on_c, 9, 38, 0
7, 38280, Note_on_c, 9, 38, 100
7, 38295, Note_on_c, 9, 38, 0
7, 38310, Note_on_c, 9, 38, 100
7, 38325, Note_on_c, 9, 38, 0
7, 38340, Note_on_c, 9, 49, 100
7, 38340, Note_on_c, 9, 35, 100
7, 38355, Note_on_c, 9, 35, 0
7, 38355, Note_on_c, 9, 49, 0
7, 38400, Note_on_c, 9, 35, 100
7, 38400, Note_on_c, 9, 42, 100
7, 38415, Note_on_c, 9, 42, 0
7, 38415, Note_on_c, 9, 35, 0
7, 38460, Note_on_c, 9, 42, 100
7, 38475, Note_on_c, 9, 42, 0
7, 38520, Note_on_c, 9, 38, 100
7, 38520, Note_on_c, 9, 42, 100
7, 38535, Note_on_c, 9, 42, 0
7, 38535, Note_on_c, 9, 38, 0
7, 38580, Note_on_c, 9, 42, 100
7, 38595, Note_on_c, 9, 42, 0
7, 38610, Note_on_c, 9, 38, 100
7, 38625, Note_on_c, 9, 38, 0
7, 38640, Note_on_c, 9, 35, 100
7, 38640, Note_on_c, 9, 42, 100
7, 38655, Note_on_c, 9, 42, 0
7, 38655, Note_on_c, 9, 35, 0
7, 38700, Note_on_c, 9, 35, 100
7, 38700, Note_on_c, 9, 42, 100
7, 38715, Note_on_c, 9, 42, 0
7, 38715, Note_on_c, 9, 35, 0
7, 38760, Note_on_c, 9, 38, 100
7, 38760, Note_on_c, 9, 42, 100
7, 38775, Note_on_c, 9, 42, 0
7, 38775, Note_on_c, 9, 38, 0
7, 38820, Note_on_c, 9, 42, 100
7, 38835, Note_on_c, 9, 42, 0
7, 38850, Note_on_c, 9, 38, 100
7, 38865, Note_on_c, 9, 38, 0
7, 38880, Note_on_c, 9, 38, 100
7, 38880, Note_on_c, 9, 47, 100
7, 38895, Note_on_c, 9, 47, 0
7, 38895, Note_on_c, 9, 38, 0
7, 38940, Note_on_c, 9, 47, 100
7, 38955, Note_on_c, 9, 47, 0
7, 38970, Note_on_c, 9, 38, 100
7, 38985, Note_on_c, 9, 38, 0
7, 39000, Note_on_c, 9, 38, 100
7, 39015, Note_on_c, 9, 38, 0
7, 39030, Note_on_c, 9, 38, 100
7, 39045, Note_on_c, 9, 38, 0
7, 39060, Note_on_c, 9, 38, 100
7, 39075, Note_on_c, 9, 38, 0
7, 39090, Note_on_c, 9, 38, 100
7, 39105, Note_on_c, 9, 38, 0
7, 39120, Note_on_c, 9, 41, 100
7, 39135, Note_on_c, 9, 41, 0
7, 39150, Note_on_c, 9, 38, 100
7, 39165, Note_on_c, 9, 38, 0
7, 39180, Note_on_c, 9, 38, 100
7, 39195, Note_on_c, 9, 38, 0
7, 39210, Note_on_c, 9, 38, 100
7, 39225, Note_on_c, 9, 38, 0
7, 39240, Note_on_c, 9, 38, 100
7, 39255, Note_on_c, 9, 38, 0
7, 39270, Note_on_c, 9, 38, 100
7, 39285, Note_on_c, 9, 38, 0
7, 39300, Note_on_c, 9, 41, 100
7, 39315, Note_on_c, 9, 41, 0
7, 39330, Note_on_c, 9, 41, 100
7, 39345, Note_on_c, 9, 41, 0
7, 39360, Note_on_c, 9, 36, 100
7, 39360, Note_on_c, 9, 49, 100
7, 39375, Note_on_c, 9, 49, 0
7, 39375, Note_on_c, 9, 36, 0
7, 39480, Note_on_c, 9, 42, 100
7, 39480, Note_on_c, 9, 38, 100
7, 39495, Note_on_c, 9, 38, 0
7, 39495, Note_on_c, 9, 42, 0
7, 39600, Note_on_c, 9, 42, 100
7, 39600, Note_on_c, 9, 36, 100
7, 39615, Note_on_c, 9, 36, 0
7, 39615, Note_on_c, 9, 42, 0
7, 39660, Note_on_c, 9, 42, 100
7, 39660, Note_on_c, 9, 36, 100
7, 39675, Note_on_c, 9, 36, 0
7, 39675, Note_on_c, 9, 42, 0
7, 39720, Note_on_c, 9, 42, 100
7, 39720, Note_on_c, 9, 38, 100
7, 39735, Note_on_c, 9, 38, 0
7, 39735, Note_on_c, 9, 42, 0
7, 39780, Note_on_c, 9, 42, 100
7, 39780, Note_on_c, 9, 36, 100
7, 39795, Note_on_c, 9, 36, 0
7, 39795, Note_on_c, 9, 42, 0
7, 39840, Note_on_c, 9, 36, 100
7, 39840, Note_on_c, 9, 42, 100
7, 39855, Note_on_c, 9, 42, 0
7, 39855, Note_on_c, 9, 36, 0
7, 39900, Note_on_c, 9, 42, 100
7, 39915, Note_on_c, 9, 42, 0
7, 39960, Note_on_c, 9, 38, 100
7, 39960, Note_on_c, 9, 42, 100
7, 39975, Note_on_c, 9, 42, 0
7, 39975, Note_on_c, 9, 38, 0
7, 40020, Note_on_c, 9, 42, 100
7, 40035, Note_on_c, 9, 42, 0
7, 40050, Note_on_c, 9, 38, 100
7, 40065, Note_on_c, 9, 38, 0
7, 40080, Note_on_c, 9, 36, 100
7, 40080, Note_on_c, 9, 42, 100
7, 40095, Note_on_c, 9, 42, 0
7, 40095, Note_on_c, 9, 36, 0
7, 40140, Note_on_c, 9, 36, 100
7, 40140, Note_on_c, 9, 42, 100
7, 40155, Note_on_c, 9, 42, 0
7, 40155, Note_on_c, 9, 36, 0
7, 40200, Note_on_c, 9, 42, 100
7, 40215, Note_on_c, 9, 42, 0
7, 40260, Note_on_c, 9, 38, 100
7, 40260, Note_on_c, 9, 42, 100
7, 40275, Note_on_c, 9, 42, 0
7, 40275, Note_on_c, 9, 38, 0
7, 40320, Note_on_c, 9, 36, 100
7, 40320, Note_on_c, 9, 42, 100
7, 40335, Note_on_c, 9, 42, 0
7, 40335, Note_on_c, 9, 36, 0
7, 40380, Note_on_c, 9, 42, 100
7, 40395, Note_on_c, 9, 42, 0
7, 40440, Note_on_c, 9, 38, 100
7, 40440, Note_on_c, 9, 42, 100
7, 40455, Note_on_c, 9, 42, 0
7, 40455, Note_on_c, 9, 38, 0
7, 40500, Note_on_c, 9, 42, 100
7, 40515, Note_on_c, 9, 42, 0
7, 40560, Note_on_c, 9, 36, 100
7, 40560, Note_on_c, 9, 38, 100
7, 40560, Note_on_c, 9, 42, 100
7, 40575, Note_on_c, 9, 42, 0
7, 40575, Note_on_c, 9, 38, 0
7, 40575, Note_on_c, 9, 36, 0
7, 40620, Note_on_c, 9, 36, 100
7, 40620, Note_on_c, 9, 42, 100
7, 40635, Note_on_c, 9, 42, 0
7, 40635, Note_on_c, 9, 36, 0
7, 40680, Note_on_c, 9, 38, 100
7, 40680, Note_on_c, 9, 42, 100
7, 40695, Note_on_c, 9, 42, 0
7, 40695, Note_on_c, 9, 38, 0
7, 40740, Note_on_c, 9, 42, 100
7, 40740, Note_on_c, 9, 36, 100
7, 40755, Note_on_c, 9, 36, 0
7, 40755, Note_on_c, 9, 42, 0
7, 40800, Note_on_c, 9, 38, 100
7, 40800, Note_on_c, 9, 36, 100
7, 40800, Note_on_c, 9, 42, 100
7, 40815, Note_on_c, 9, 42, 0
7, 40815, Note_on_c, 9, 36, 0
7, 40815, Note_on_c, 9, 38, 0
7, 40860, Note_on_c, 9, 42, 100
7, 40875, Note_on_c, 9, 42, 0
7, 40920, Note_on_c, 9, 38, 100
7, 40920, Note_on_c, 9, 42, 100
7, 40935, Note_on_c, 9, 42, 0
7, 40935, Note_on_c, 9, 38, 0
7, 40980, Note_on_c, 9, 42, 100
7, 40995, Note_on_c, 9, 42, 0
7, 41040, Note_on_c, 9, 38, 100
7, 41040, Note_on_c, 9, 36, 100
7, 41040, Note_on_c, 9, 42, 100
7, 41055, Note_on_c, 9, 42, 0
7, 41055, Note_on_c, 9, 36, 0
7, 41055, Note_on_c, 9, 38, 0
7, 41100, Note_on_c, 9, 36, 100
7, 41100, Note_on_c, 9, 42, 100
7, 41115, Note_on_c, 9, 42, 0
7, 41115, Note_on_c, 9, 36, 0
7, 41160, Note_on_c, 9, 38, 100
7, 41160, Note_on_c, 9, 42, 100
7, 41175, Note_on_c, 9, 42, 0
7, 41175, Note_on_c, 9, 38, 0
7, 41220, Note_on_c, 9, 36, 100
7, 41220, Note_on_c, 9, 42, 100
7, 41235, Note_on_c, 9, 42, 0
7, 41235, Note_on_c, 9, 36, 0
7, 41250, Note_on_c, 9, 36, 100
7, 41265, Note_on_c, 9, 36, 0
7, 41280, Note_on_c, 9, 38, 100
7, 41280, Note_on_c, 9, 42, 100
7, 41295, Note_on_c, 9, 42, 0
7, 41295, Note_on_c, 9, 38, 0
7, 41340, Note_on_c, 9, 42, 100
7, 41355, Note_on_c, 9, 42, 0
7, 41400, Note_on_c, 9, 38, 100
7, 41400, Note_on_c, 9, 42, 100
7, 41415, Note_on_c, 9, 42, 0
7, 41415, Note_on_c, 9, 38, 0
7, 41460, Note_on_c, 9, 42, 100
7, 41475, Note_on_c, 9, 42, 0
7, 41520, Note_on_c, 9, 36, 100
7, 41520, Note_on_c, 9, 38, 100
7, 41520, Note_on_c, 9, 42, 100
7, 41535, Note_on_c, 9, 42, 0
7, 41535, Note_on_c, 9, 38, 0
7, 41535, Note_on_c, 9, 36, 0
7, 41580, Note_on_c, 9, 36, 100
7, 41580, Note_on_c, 9, 42, 100
7, 41595, Note_on_c, 9, 42, 0
7, 41595, Note_on_c, 9, 36, 0
7, 41640, Note_on_c, 9, 38, 100
7, 41640, Note_on_c, 9, 42, 100
7, 41655, Note_on_c, 9, 42, 0
7, 41655, Note_on_c, 9, 38, 0
7, 41700, Note_on_c, 9, 36, 100
7, 41700, Note_on_c, 9, 42, 100
7, 41715, Note_on_c, 9, 42, 0
7, 41715, Note_on_c, 9, 36, 0
7, 41760, Note_on_c, 9, 36, 100
7, 41760, Note_on_c, 9, 38, 100
7, 41760, Note_on_c, 9, 42, 100
7, 41775, Note_on_c, 9, 42, 0
7, 41775, Note_on_c, 9, 38, 0
7, 41775, Note_on_c, 9, 36, 0
7, 41820, Note_on_c, 9, 42, 100
7, 41820, Note_on_c, 9, 36, 100
7, 41835, Note_on_c, 9, 36, 0
7, 41835, Note_on_c, 9, 42, 0
7, 41880, Note_on_c, 9, 38, 100
7, 41880, Note_on_c, 9, 42, 100
7, 41895, Note_on_c, 9, 42, 0
7, 41895, Note_on_c, 9, 38, 0
7, 41940, Note_on_c, 9, 42, 100
7, 41955, Note_on_c, 9, 42, 0
7, 42000, Note_on_c, 9, 36, 100
7, 42000, Note_on_c, 9, 38, 100
7, 42000, Note_on_c, 9, 42, 100
7, 42015, Note_on_c, 9, 42, 0
7, 42015, Note_on_c, 9, 38, 0
7, 42015, Note_on_c, 9, 36, 0
7, 42060, Note_on_c, 9, 36, 100
7, 42060, Note_on_c, 9, 42, 100
7, 42075, Note_on_c, 9, 42, 0
7, 42075, Note_on_c, 9, 36, 0
7, 42120, Note_on_c, 9, 38, 100
7, 42120, Note_on_c, 9, 42, 100
7, 42135, Note_on_c, 9, 42, 0
7, 42135, Note_on_c, 9, 38, 0
7, 42180, Note_on_c, 9, 36, 100
7, 42180, Note_on_c, 9, 42, 100
7, 42195, Note_on_c, 9, 42, 0
7, 42195, Note_on_c, 9, 36, 0
7, 42210, Note_on_c, 9, 36, 100
7, 42225, Note_on_c, 9, 36, 0
7, 42240, Note_on_c, 9, 38, 100
7, 42240, Note_on_c, 9, 42, 100
7, 42255, Note_on_c, 9, 42, 0
7, 42255, Note_on_c, 9, 38, 0
7, 42300, Note_on_c, 9, 42, 100
7, 42315, Note_on_c, 9, 42, 0
7, 42360, Note_on_c, 9, 38, 100
7, 42360, Note_on_c, 9, 42, 100
7, 42375, Note_on_c, 9, 42, 0
7, 42375, Note_on_c, 9, 38, 0
7, 42420, Note_on_c, 9, 42, 100
7, 42435, Note_on_c, 9, 42, 0
7, 42480, Note_on_c, 9, 36, 100
7, 42480, Note_on_c, 9, 38, 100
7, 42480, Note_on_c, 9, 42, 100
7, 42495, Note_on_c, 9, 42, 0
7, 42495, Note_on_c, 9, 38, 0
7, 42495, Note_on_c, 9, 36, 0
7, 42540, Note_on_c, 9, 36, 100
7, 42540, Note_on_c, 9, 42, 100
7, 42555, Note_on_c, 9, 42, 0
7, 42555, Note_on_c, 9, 36, 0
7, 42600, Note_on_c, 9, 38, 100
7, 42600, Note_on_c, 9, 42, 100
7, 42615, Note_on_c, 9, 42, 0
7, 42615, Note_on_c, 9, 38, 0
7, 42660, Note_on_c, 9, 36, 100
7, 42660, Note_on_c, 9, 42, 100
7, 42675, Note_on_c, 9, 42, 0
7, 42675, Note_on_c, 9, 36, 0
7, 42720, Note_on_c, 9, 38, 100
7, 42720, Note_on_c, 9, 36, 100
7, 42720, Note_on_c, 9, 42, 100
7, 42735, Note_on_c, 9, 42, 0
7, 42735, Note_on_c, 9, 36, 0
7, 42735, Note_on_c, 9, 38, 0
7, 42780, Note_on_c, 9, 42, 100
7, 42795, Note_on_c, 9, 42, 0
7, 42840, Note_on_c, 9, 38, 100
7, 42840, Note_on_c, 9, 42, 100
7, 42855, Note_on_c, 9, 42, 0
7, 42855, Note_on_c, 9, 38, 0
7, 42900, Note_on_c, 9, 42, 100
7, 42915, Note_on_c, 9, 42, 0
7, 42960, Note_on_c, 9, 38, 100
7, 42960, Note_on_c, 9, 36, 100
7, 42960, Note_on_c, 9, 42, 100
7, 42975, Note_on_c, 9, 42, 0
7, 42975, Note_on_c, 9, 36, 0
7, 42975, Note_on_c, 9, 38, 0
7, 43020, Note_on_c, 9, 36, 100
7, 43020, Note_on_c, 9, 42, 100
7, 43035, Note_on_c, 9, 42, 0
7, 43035, Note_on_c, 9, 36, 0
7, 43080, Note_on_c, 9, 38, 100
7, 43080, Note_on_c, 9, 42, 100
7, 43095, Note_on_c, 9, 42, 0
7, 43095, Note_on_c, 9, 38, 0
7, 43140, Note_on_c, 9, 42, 100
7, 43155, Note_on_c, 9, 42, 0
7, 43200, Note_on_c, 9, 38, 100
7, 43200, Note_on_c, 9, 42, 100
7, 43215, Note_on_c, 9, 42, 0
7, 43215, Note_on_c, 9, 38, 0
7, 43320, Note_on_c, 9, 38, 100
7, 43320, Note_on_c, 9, 42, 100
7, 43335, Note_on_c, 9, 42, 0
7, 43335, Note_on_c, 9, 38, 0
7, 43380, Note_on_c, 9, 42, 100
7, 43395, Note_on_c, 9, 42, 0
7, 43440, Note_on_c, 9, 38, 100
7, 43440, Note_on_c, 9, 36, 100
7, 43440, Note_on_c, 9, 42, 100
7, 43455, Note_on_c, 9, 42, 0
7, 43455, Note_on_c, 9, 36, 0
7, 43455, Note_on_c, 9, 38, 0
7, 43500, Note_on_c, 9, 36, 100
7, 43500, Note_on_c, 9, 42, 100
7, 43515, Note_on_c, 9, 42, 0
7, 43515, Note_on_c, 9, 36, 0
7, 43560, Note_on_c, 9, 38, 100
7, 43560, Note_on_c, 9, 42, 100
7, 43575, Note_on_c, 9, 42, 0
7, 43575, Note_on_c, 9, 38, 0
7, 43620, Note_on_c, 9, 42, 100
7, 43635, Note_on_c, 9, 42, 0
7, 43680, Note_on_c, 9, 38, 100
7, 43680, Note_on_c, 9, 36, 100
7, 43680, Note_on_c, 9, 42, 100
7, 43695, Note_on_c, 9, 42, 0
7, 43695, Note_on_c, 9, 36, 0
7, 43695, Note_on_c, 9, 38, 0
7, 43740, Note_on_c, 9, 42, 100
7, 43755, Note_on_c, 9, 42, 0
7, 43800, Note_on_c, 9, 38, 100
7, 43800, Note_on_c, 9, 42, 100
7, 43815, Note_on_c, 9, 42, 0
7, 43815, Note_on_c, 9, 38, 0
7, 43860, Note_on_c, 9, 42, 100
7, 43875, Note_on_c, 9, 42, 0
7, 43920, Note_on_c, 9, 38, 100
7, 43920, Note_on_c, 9, 36, 100
7, 43920, Note_on_c, 9, 42, 100
7, 43935, Note_on_c, 9, 42, 0
7, 43935, Note_on_c, 9, 36, 0
7, 43935, Note_on_c, 9, 38, 0
7, 43980, Note_on_c, 9, 36, 100
7, 43980, Note_on_c, 9, 42, 100
7, 43995, Note_on_c, 9, 42, 0
7, 43995, Note_on_c, 9, 36, 0
7, 44040, Note_on_c, 9, 38, 100
7, 44040, Note_on_c, 9, 42, 100
7, 44055, Note_on_c, 9, 42, 0
7, 44055, Note_on_c, 9, 38, 0
7, 44100, Note_on_c, 9, 36, 100
7, 44100, Note_on_c, 9, 42, 100
7, 44115, Note_on_c, 9, 42, 0
7, 44115, Note_on_c, 9, 36, 0
7, 44160, Note_on_c, 9, 38, 100
7, 44160, Note_on_c, 9, 36, 100
7, 44160, Note_on_c, 9, 42, 100
7, 44175, Note_on_c, 9, 42, 0
7, 44175, Note_on_c, 9, 36, 0
7, 44175, Note_on_c, 9, 38, 0
7, 44220, Note_on_c, 9, 42, 100
7, 44235, Note_on_c, 9, 42, 0
7, 44280, Note_on_c, 9, 38, 100
7, 44280, Note_on_c, 9, 42, 100
7, 44295, Note_on_c, 9, 42, 0
7, 44295, Note_on_c, 9, 38, 0
7, 44340, Note_on_c, 9, 42, 100
7, 44355, Note_on_c, 9, 42, 0
7, 44400, Note_on_c, 9, 36, 100
7, 44400, Note_on_c, 9, 42, 100
7, 44415, Note_on_c, 9, 42, 0
7, 44415, Note_on_c, 9, 36, 0
7, 44460, Note_on_c, 9, 36, 100
7, 44460, Note_on_c, 9, 42, 100
7, 44475, Note_on_c, 9, 42, 0
7, 44475, Note_on_c, 9, 36, 0
7, 44520, Note_on_c, 9, 38, 100
7, 44520, Note_on_c, 9, 42, 100
7, 44535, Note_on_c, 9, 42, 0
7, 44535, Note_on_c, 9, 38, 0
7, 44580, Note_on_c, 9, 36, 100
7, 44580, Note_on_c, 9, 42, 100
7, 44595, Note_on_c, 9, 42, 0
7, 44595, Note_on_c, 9, 36, 0
7, 44640, Note_on_c, 9, 38, 100
7, 44640, Note_on_c, 9, 36, 100
7, 44640, Note_on_c, 9, 42, 100
7, 44655, Note_on_c, 9, 42, 0
7, 44655, Note_on_c, 9, 36, 0
7, 44655, Note_on_c, 9, 38, 0
7, 44700, Note_on_c, 9, 36, 100
7, 44700, Note_on_c, 9, 42, 100
7, 44715, Note_on_c, 9, 42, 0
7, 44715, Note_on_c, 9, 36, 0
7, 44760, Note_on_c, 9, 38, 100
7, 44760, Note_on_c, 9, 42, 100
7, 44775, Note_on_c, 9, 42, 0
7, 44775, Note_on_c, 9, 38, 0
7, 44820, Note_on_c, 9, 42, 100
7, 44835, Note_on_c, 9, 42, 0
7, 44880, Note_on_c, 9, 38, 100
7, 44880, Note_on_c, 9, 36, 100
7, 44880, Note_on_c, 9, 42, 100
7, 44895, Note_on_c, 9, 42, 0
7, 44895, Note_on_c, 9, 36, 0
7, 44895, Note_on_c, 9, 38, 0
7, 44940, Note_on_c, 9, 36, 100
7, 44940, Note_on_c, 9, 42, 100
7, 44955, Note_on_c, 9, 42, 0
7, 44955, Note_on_c, 9, 36, 0
7, 45000, Note_on_c, 9, 38, 100
7, 45000, Note_on_c, 9, 42, 100
7, 45015, Note_on_c, 9, 42, 0
7, 45015, Note_on_c, 9, 38, 0
7, 45060, Note_on_c, 9, 36, 100
7, 45060, Note_on_c, 9, 42, 100
7, 45075, Note_on_c, 9, 42, 0
7, 45075, Note_on_c, 9, 36, 0
7, 45120, Note_on_c, 9, 38, 100
7, 45120, Note_on_c, 9, 36, 100
7, 45120, Note_on_c, 9, 42, 100
7, 45135, Note_on_c, 9, 42, 0
7, 45135, Note_on_c, 9, 36, 0
7, 45135, Note_on_c, 9, 38, 0
7, 45180, Note_on_c, 9, 42, 100
7, 45195, Note_on_c, 9, 42, 0
7, 45240, Note_on_c, 9, 38, 100
7, 45240, Note_on_c, 9, 42, 100
7, 45255, Note_on_c, 9, 42, 0
7, 45255, Note_on_c, 9, 38, 0
7, 45300, Note_on_c, 9, 42, 100
7, 45315, Note_on_c, 9, 42, 0
7, 45360, Note_on_c, 9, 38, 100
7, 45360, Note_on_c, 9, 36, 100
7, 45360, Note_on_c, 9, 42, 100
7, 45375, Note_on_c, 9, 42, 0
7, 45375, Note_on_c, 9, 36, 0
7, 45375, Note_on_c, 9, 38, 0
7, 45420, Note_on_c, 9, 36, 100
7, 45420, Note_on_c, 9, 42, 100
7, 45435, Note_on_c, 9, 42, 0
7, 45435, Note_on_c, 9, 36, 0
7, 45480, Note_on_c, 9, 38, 100
7, 45480, Note_on_c, 9, 42, 100
7, 45495, Note_on_c, 9, 42, 0
7, 45495, Note_on_c, 9, 38, 0
7, 45540, Note_on_c, 9, 36, 100
7, 45540, Note_on_c, 9, 42, 100
7, 45555, Note_on_c, 9, 42, 0
7, 45555, Note_on_c, 9, 36, 0
7, 45600, Note_on_c, 9, 38, 100
7, 45600, Note_on_c, 9, 36, 100
7, 45600, Note_on_c, 9, 42, 100
7, 45615, Note_on_c, 9, 42, 0
7, 45615, Note_on_c, 9, 36, 0
7, 45615, Note_on_c, 9, 38, 0
7, 45660, Note_on_c, 9, 42, 100
7, 45675, Note_on_c, 9, 42, 0
7, 45720, Note_on_c, 9, 38, 100
7, 45720, Note_on_c, 9, 42, 100
7, 45735, Note_on_c, 9, 42, 0
7, 45735, Note_on_c, 9, 38, 0
7, 45780, Note_on_c, 9, 42, 100
7, 45795, Note_on_c, 9, 42, 0
7, 45810, Note_on_c, 9, 38, 100
7, 45825, Note_on_c, 9, 38, 0
7, 45840, Note_on_c, 9, 36, 100
7, 45840, Note_on_c, 9, 42, 100
7, 45855, Note_on_c, 9, 42, 0
7, 45855, Note_on_c, 9, 36, 0
7, 45900, Note_on_c, 9, 36, 100
7, 45900, Note_on_c, 9, 42, 100
7, 45915, Note_on_c, 9, 42, 0
7, 45915, Note_on_c, 9, 36, 0
7, 45930, Note_on_c, 9, 36, 100
7, 45945, Note_on_c, 9, 36, 0
7, 45960, Note_on_c, 9, 38, 100
7, 45960, Note_on_c, 9, 42, 100
7, 45975, Note_on_c, 9, 42, 0
7, 45975, Note_on_c, 9, 38, 0
7, 46020, Note_on_c, 9, 42, 100
7, 46035, Note_on_c, 9, 42, 0
7, 46050, Note_on_c, 9, 38, 100
7, 46065, Note_on_c, 9, 38, 0
7, 46080, Note_on_c, 9, 36, 100
7, 46080, Note_on_c, 9, 42, 100
7, 46095, Note_on_c, 9, 42, 0
7, 46095, Note_on_c, 9, 36, 0
7, 46140, Note_on_c, 9, 42, 100
7, 46155, Note_on_c, 9, 42, 0
7, 46200, Note_on_c, 9, 38, 100
7, 46200, Note_on_c, 9, 42, 100
7, 46215, Note_on_c, 9, 42, 0
7, 46215, Note_on_c, 9, 38, 0
7, 46260, Note_on_c, 9, 42, 100
7, 46275, Note_on_c, 9, 42, 0
7, 46290, Note_on_c, 9, 38, 100
7, 46305, Note_on_c, 9, 38, 0
7, 46320, Note_on_c, 9, 36, 100
7, 46320, Note_on_c, 9, 42, 100
7, 46335, Note_on_c, 9, 42, 0
7, 46335, Note_on_c, 9, 36, 0
7, 46380, Note_on_c, 9, 36, 100
7, 46380, Note_on_c, 9, 42, 100
7, 46395, Note_on_c, 9, 42, 0
7, 46395, Note_on_c, 9, 36, 0
7, 46440, Note_on_c, 9, 38, 100
7, 46440, Note_on_c, 9, 42, 100
7, 46455, Note_on_c, 9, 42, 0
7, 46455, Note_on_c, 9, 38, 0
7, 46500, Note_on_c, 9, 42, 100
7, 46515, Note_on_c, 9, 42, 0
7, 46530, Note_on_c, 9, 38, 100
7, 46545, Note_on_c, 9, 38, 0
7, 46560, Note_on_c, 9, 48, 100
7, 46575, Note_on_c, 9, 48, 0
7, 46590, Note_on_c, 9, 38, 100
7, 46605, Note_on_c, 9, 38, 0
7, 46620, Note_on_c, 9, 38, 100
7, 46635, Note_on_c, 9, 38, 0
7, 46710, Note_on_c, 9, 38, 100
7, 46725, Note_on_c, 9, 38, 0
7, 46740, Note_on_c, 9, 48, 100
7, 46755, Note_on_c, 9, 48, 0
7, 46770, Note_on_c, 9, 38, 100
7, 46785, Note_on_c, 9, 38, 0
7, 46800, Note_on_c, 9, 38, 100
7, 46815, Note_on_c, 9, 38, 0
7, 46830, Note_on_c, 9, 38, 100
7, 46845, Note_on_c, 9, 38, 0
7, 46860, Note_on_c, 9, 48, 100
7, 46875, Note_on_c, 9, 48, 0
7, 46890, Note_on_c, 9, 38, 100
7, 46905, Note_on_c, 9, 38, 0
7, 46920, Note_on_c, 9, 38, 100
7, 46935, Note_on_c, 9, 38, 0
7, 46950, Note_on_c, 9, 38, 100
7, 46965, Note_on_c, 9, 38, 0
7, 46980, Note_on_c, 9, 48, 100
7, 46995, Note_on_c, 9, 48, 0
7, 47010, Note_on_c, 9, 48, 100
7, 47025, Note_on_c, 9, 48, 0
7, 47040, Note_on_c, 9, 36, 100
7, 47040, Note_on_c, 9, 51, 100
7, 47055, Note_on_c, 9, 51, 0
7, 47055, Note_on_c, 9, 36, 0
7, 47100, Note_on_c, 9, 51, 100
7, 47115, Note_on_c, 9, 51, 0
7, 47160, Note_on_c, 9, 38, 100
7, 47160, Note_on_c, 9, 51, 100
7, 47175, Note_on_c, 9, 51, 0
7, 47175, Note_on_c, 9, 38, 0
7, 47220, Note_on_c, 9, 51, 100
7, 47235, Note_on_c, 9, 51, 0
7, 47250, Note_on_c, 9, 38, 100
7, 47265, Note_on_c, 9, 38, 0
7, 47280, Note_on_c, 9, 36, 100
7, 47280, Note_on_c, 9, 51, 100
7, 47295, Note_on_c, 9, 51, 0
7, 47295, Note_on_c, 9, 36, 0
7, 47340, Note_on_c, 9, 36, 100
7, 47340, Note_on_c, 9, 51, 100
7, 47355, Note_on_c, 9, 51, 0
7, 47355, Note_on_c, 9, 36, 0
7, 47400, Note_on_c, 9, 38, 100
7, 47400, Note_on_c, 9, 51, 100
7, 47415, Note_on_c, 9, 51, 0
7, 47415, Note_on_c, 9, 38, 0
7, 47460, Note_on_c, 9, 51, 100
7, 47475, Note_on_c, 9, 51, 0
7, 47490, Note_on_c, 9, 38, 100
7, 47505, Note_on_c, 9, 38, 0
7, 47520, Note_on_c, 9, 48, 100
7, 47535, Note_on_c, 9, 48, 0
7, 47550, Note_on_c, 9, 38, 100
7, 47565, Note_on_c, 9, 38, 0
7, 47580, Note_on_c, 9, 38, 100
7, 47595, Note_on_c, 9, 38, 0
7, 47640, Note_on_c, 9, 48, 100
7, 47655, Note_on_c, 9, 48, 0
7, 47670, Note_on_c, 9, 38, 100
7, 47685, Note_on_c, 9, 38, 0
7, 47700, Note_on_c, 9, 38, 100
7, 47715, Note_on_c, 9, 38, 0
7, 47790, Note_on_c, 9, 38, 100
7, 47805, Note_on_c, 9, 38, 0
7, 47820, Note_on_c, 9, 38, 100
7, 47835, Note_on_c, 9, 38, 0
7, 47850, Note_on_c, 9, 38, 100
7, 47865, Note_on_c, 9, 38, 0
7, 47880, Note_on_c, 9, 41, 100
7, 47895, Note_on_c, 9, 41, 0
7, 47910, Note_on_c, 9, 41, 100
7, 47925, Note_on_c, 9, 41, 0
7, 47940, Note_on_c, 9, 41, 100
7, 47955, Note_on_c, 9, 41, 0
7, 48000, Note_on_c, 9, 36, 100
7, 48000, Note_on_c, 9, 51, 100
7, 48015, Note_on_c, 9, 51, 0
7, 48015, Note_on_c, 9, 36, 0
7, 48060, Note_on_c, 9, 36, 100
7, 48060, Note_on_c, 9, 51, 100
7, 48075, Note_on_c, 9, 51, 0
7, 48075, Note_on_c, 9, 36, 0
7, 48120, Note_on_c, 9, 51, 100
7, 48135, Note_on_c, 9, 51, 0
7, 48180, Note_on_c, 9, 51, 100
7, 48195, Note_on_c, 9, 51, 0
7, 48210, Note_on_c, 9, 38, 100
7, 48225, Note_on_c, 9, 38, 0
7, 48240, Note_on_c, 9, 36, 100
7, 48240, Note_on_c, 9, 51, 100
7, 48255, Note_on_c, 9, 51, 0
7, 48255, Note_on_c, 9, 36, 0
7, 48300, Note_on_c, 9, 36, 100
7, 48300, Note_on_c, 9, 51, 100
7, 48315, Note_on_c, 9, 51, 0
7, 48315, Note_on_c, 9, 36, 0
7, 48360, Note_on_c, 9, 51, 100
7, 48375, Note_on_c, 9, 51, 0
7, 48420, Note_on_c, 9, 51, 100
7, 48435, Note_on_c, 9, 51, 0
7, 48450, Note_on_c, 9, 38, 100
7, 48465, Note_on_c, 9, 38, 0
7, 48480, Note_on_c, 9, 48, 100
7, 48495, Note_on_c, 9, 48, 0
7, 48540, Note_on_c, 9, 48, 100
7, 48555, Note_on_c, 9, 48, 0
7, 48630, Note_on_c, 9, 38, 100
7, 48645, Note_on_c, 9, 38, 0
7, 48660, Note_on_c, 9, 38, 100
7, 48675, Note_on_c, 9, 38, 0
7, 48690, Note_on_c, 9, 38, 100
7, 48705, Note_on_c, 9, 38, 0
7, 48720, Note_on_c, 9, 48, 100
7, 48740, Note_on_c, 9, 48, 0
7, 48740, Note_on_c, 9, 38, 100
7, 48760, Note_on_c, 9, 38, 0
7, 48760, Note_on_c, 9, 38, 100
7, 48780, Note_on_c, 9, 38, 0
7, 48780, Note_on_c, 9, 38, 100
7, 48800, Note_on_c, 9, 38, 0
7, 48800, Note_on_c, 9, 38, 100
7, 48820, Note_on_c, 9, 38, 0
7, 48820, Note_on_c, 9, 38, 100
7, 48840, Note_on_c, 9, 38, 0
7, 48840, Note_on_c, 9, 38, 100
7, 48870, Note_on_c, 9, 38, 0
7, 48870, Note_on_c, 9, 38, 100
7, 48900, Note_on_c, 9, 38, 0
7, 48900, Note_on_c, 9, 41, 100
7, 48930, Note_on_c, 9, 41, 0
7, 48930, Note_on_c, 9, 41, 100
7, 48960, Note_on_c, 9, 41, 0
7, 48960, Note_on_c, 9, 36, 100
7, 48960, Note_on_c, 9, 51, 100
7, 48975, Note_on_c, 9, 51, 0
7, 48975, Note_on_c, 9, 36, 0
7, 49020, Note_on_c, 9, 36, 100
7, 49020, Note_on_c, 9, 51, 100
7, 49035, Note_on_c, 9, 51, 0
7, 49035, Note_on_c, 9, 36, 0
7, 49080, Note_on_c, 9, 51, 100
7, 49095, Note_on_c, 9, 51, 0
7, 49140, Note_on_c, 9, 51, 100
7, 49155, Note_on_c, 9, 51, 0
7, 49170, Note_on_c, 9, 38, 100
7, 49185, Note_on_c, 9, 38, 0
7, 49200, Note_on_c, 9, 36, 100
7, 49200, Note_on_c, 9, 51, 100
7, 49215, Note_on_c, 9, 51, 0
7, 49215, Note_on_c, 9, 36, 0
7, 49260, Note_on_c, 9, 36, 100
7, 49260, Note_on_c, 9, 51, 100
7, 49275, Note_on_c, 9, 51, 0
7, 49275, Note_on_c, 9, 36, 0
7, 49320, Note_on_c, 9, 51, 100
7, 49335, Note_on_c, 9, 51, 0
7, 49380, Note_on_c, 9, 51, 100
7, 49395, Note_on_c, 9, 51, 0
7, 49410, Note_on_c, 9, 38, 100
7, 49425, Note_on_c, 9, 38, 0
7, 49440, Note_on_c, 9, 48, 100
7, 49460, Note_on_c, 9, 48, 0
7, 49480, Note_on_c, 9, 48, 100
7, 49500, Note_on_c, 9, 48, 0
7, 49500, Note_on_c, 9, 38, 100
7, 49520, Note_on_c, 9, 38, 0
7, 49540, Note_on_c, 9, 38, 100
7, 49560, Note_on_c, 9, 38, 0
7, 49560, Note_on_c, 9, 48, 100
7, 49580, Note_on_c, 9, 48, 0
7, 49580, Note_on_c, 9, 38, 100
7, 49600, Note_on_c, 9, 38, 0
7, 49600, Note_on_c, 9, 38, 100
7, 49620, Note_on_c, 9, 38, 0
7, 49620, Note_on_c, 9, 38, 100
7, 49640, Note_on_c, 9, 38, 0
7, 49640, Note_on_c, 9, 38, 100
7, 49660, Note_on_c, 9, 38, 0
7, 49660, Note_on_c, 9, 38, 100
7, 49680, Note_on_c, 9, 38, 0
7, 49680, Note_on_c, 9, 38, 100
7, 49700, Note_on_c, 9, 38, 0
7, 49700, Note_on_c, 9, 38, 100
7, 49720, Note_on_c, 9, 38, 0
7, 49720, Note_on_c, 9, 48, 100
7, 49740, Note_on_c, 9, 48, 0
7, 49740, Note_on_c, 9, 38, 100
7, 49760, Note_on_c, 9, 38, 0
7, 49760, Note_on_c, 9, 38, 100
7, 49780, Note_on_c, 9, 38, 0
7, 49780, Note_on_c, 9, 38, 100
7, 49800, Note_on_c, 9, 38, 0
7, 49800, Note_on_c, 9, 38, 100
7, 49820, Note_on_c, 9, 38, 0
7, 49820, Note_on_c, 9, 38, 100
7, 49840, Note_on_c, 9, 38, 0
7, 49840, Note_on_c, 9, 38, 100
7, 49860, Note_on_c, 9, 38, 0
7, 49860, Note_on_c, 9, 38, 100
7, 49880, Note_on_c, 9, 38, 0
7, 49880, Note_on_c, 9, 41, 100
7, 49900, Note_on_c, 9, 41, 0
7, 49900, Note_on_c, 9, 41, 100
7, 49920, Note_on_c, 9, 41, 0
7, 49920, Note_on_c, 9, 36, 100
7, 49920, Note_on_c, 9, 51, 100
7, 49935, Note_on_c, 9, 51, 0
7, 49935, Note_on_c, 9, 36, 0
7, 49980, Note_on_c, 9, 36, 100
7, 49980, Note_on_c, 9, 51, 100
7, 49995, Note_on_c, 9, 51, 0
7, 49995, Note_on_c, 9, 36, 0
7, 50040, Note_on_c, 9, 38, 100
7, 50040, Note_on_c, 9, 51, 100
7, 50055, Note_on_c, 9, 51, 0
7, 50055, Note_on_c, 9, 38, 0
7, 50100, Note_on_c, 9, 51, 100
7, 50115, Note_on_c, 9, 51, 0
7, 50130, Note_on_c, 9, 38, 100
7, 50145, Note_on_c, 9, 38, 0
7, 50160, Note_on_c, 9, 36, 100
7, 50160, Note_on_c, 9, 51, 100
7, 50175, Note_on_c, 9, 51, 0
7, 50175, Note_on_c, 9, 36, 0
7, 50220, Note_on_c, 9, 36, 100
7, 50220, Note_on_c, 9, 51, 100
7, 50235, Note_on_c, 9, 51, 0
7, 50235, Note_on_c, 9, 36, 0
7, 50280, Note_on_c, 9, 38, 100
7, 50280, Note_on_c, 9, 51, 100
7, 50295, Note_on_c, 9, 51, 0
7, 50295, Note_on_c, 9, 38, 0
7, 50340, Note_on_c, 9, 51, 100
7, 50355, Note_on_c, 9, 51, 0
7, 50370, Note_on_c, 9, 38, 100
7, 50385, Note_on_c, 9, 38, 0
7, 50400, Note_on_c, 9, 48, 100
7, 50420, Note_on_c, 9, 48, 0
7, 50420, Note_on_c, 9, 48, 100
7, 50440, Note_on_c, 9, 48, 0
7, 50440, Note_on_c, 9, 48, 100
7, 50460, Note_on_c, 9, 48, 0
7, 50460, Note_on_c, 9, 48, 100
7, 50480, Note_on_c, 9, 48, 0
7, 50480, Note_on_c, 9, 48, 100
7, 50500, Note_on_c, 9, 48, 0
7, 50500, Note_on_c, 9, 48, 100
7, 50520, Note_on_c, 9, 48, 0
7, 50520, Note_on_c, 9, 48, 100
7, 50540, Note_on_c, 9, 48, 0
7, 50540, Note_on_c, 9, 48, 100
7, 50560, Note_on_c, 9, 48, 0
7, 50560, Note_on_c, 9, 48, 100
7, 50580, Note_on_c, 9, 48, 0
7, 50580, Note_on_c, 9, 48, 100
7, 50600, Note_on_c, 9, 48, 0
7, 50600, Note_on_c, 9, 48, 100
7, 50620, Note_on_c, 9, 48, 0
7, 50620, Note_on_c, 9, 48, 100
7, 50640, Note_on_c, 9, 48, 0
7, 50640, Note_on_c, 9, 45, 100
7, 50660, Note_on_c, 9, 45, 0
7, 50660, Note_on_c, 9, 45, 100
7, 50680, Note_on_c, 9, 45, 0
7, 50680, Note_on_c, 9, 45, 100
7, 50700, Note_on_c, 9, 45, 0
7, 50700, Note_on_c, 9, 45, 100
7, 50720, Note_on_c, 9, 45, 0
7, 50720, Note_on_c, 9, 45, 100
7, 50740, Note_on_c, 9, 45, 0
7, 50740, Note_on_c, 9, 45, 100
7, 50760, Note_on_c, 9, 45, 0
7, 50760, Note_on_c, 9, 41, 100
7, 50780, Note_on_c, 9, 41, 0
7, 50780, Note_on_c, 9, 41, 100
7, 50800, Note_on_c, 9, 41, 0
7, 50800, Note_on_c, 9, 41, 100
7, 50820, Note_on_c, 9, 41, 0
7, 50820, Note_on_c, 9, 41, 100
7, 50840, Note_on_c, 9, 41, 0
7, 50840, Note_on_c, 9, 41, 100
7, 50860, Note_on_c, 9, 41, 0
7, 50860, Note_on_c, 9, 41, 100
7, 50880, Note_on_c, 9, 41, 0
7, 50880, Note_on_c, 9, 36, 100
7, 50880, Note_on_c, 9, 51, 100
7, 50895, Note_on_c, 9, 51, 0
7, 50895, Note_on_c, 9, 36, 0
7, 50940, Note_on_c, 9, 36, 100
7, 50940, Note_on_c, 9, 51, 100
7, 50955, Note_on_c, 9, 51, 0
7, 50955, Note_on_c, 9, 36, 0
7, 51000, Note_on_c, 9, 38, 100
7, 51000, Note_on_c, 9, 51, 100
7, 51015, Note_on_c, 9, 51, 0
7, 51015, Note_on_c, 9, 38, 0
7, 51060, Note_on_c, 9, 51, 100
7, 51075, Note_on_c, 9, 51, 0
7, 51090, Note_on_c, 9, 38, 100
7, 51105, Note_on_c, 9, 38, 0
7, 51120, Note_on_c, 9, 36, 100
7, 51120, Note_on_c, 9, 51, 100
7, 51135, Note_on_c, 9, 51, 0
7, 51135, Note_on_c, 9, 36, 0
7, 51180, Note_on_c, 9, 36, 100
7, 51180, Note_on_c, 9, 51, 100
7, 51195, Note_on_c, 9, 51, 0
7, 51195, Note_on_c, 9, 36, 0
7, 51240, Note_on_c, 9, 51, 100
7, 51255, Note_on_c, 9, 51, 0
7, 51270, Note_on_c, 9, 36, 100
7, 51285, Note_on_c, 9, 36, 0
7, 51300, Note_on_c, 9, 38, 100
7, 51300, Note_on_c, 9, 51, 100
7, 51315, Note_on_c, 9, 51, 0
7, 51315, Note_on_c, 9, 38, 0
7, 51360, Note_on_c, 9, 51, 100
7, 51375, Note_on_c, 9, 51, 0
7, 51420, Note_on_c, 9, 36, 100
7, 51420, Note_on_c, 9, 51, 100
7, 51435, Note_on_c, 9, 51, 0
7, 51435, Note_on_c, 9, 36, 0
7, 51450, Note_on_c, 9, 36, 100
7, 51465, Note_on_c, 9, 36, 0
7, 51480, Note_on_c, 9, 38, 100
7, 51480, Note_on_c, 9, 51, 100
7, 51495, Note_on_c, 9, 51, 0
7, 51495, Note_on_c, 9, 38, 0
7, 51540, Note_on_c, 9, 51, 100
7, 51555, Note_on_c, 9, 51, 0
7, 51570, Note_on_c, 9, 38, 100
7, 51585, Note_on_c, 9, 38, 0
7, 51600, Note_on_c, 9, 51, 100
7, 51615, Note_on_c, 9, 51, 0
7, 51630, Note_on_c, 9, 38, 100
7, 51645, Note_on_c, 9, 38, 0
7, 51660, Note_on_c, 9, 48, 100
7, 51675, Note_on_c, 9, 48, 0
7, 51690, Note_on_c, 9, 38, 100
7, 51705, Note_on_c, 9, 38, 0
7, 51720, Note_on_c, 9, 38, 100
7, 51735, Note_on_c, 9, 38, 0
7, 51750, Note_on_c, 9, 38, 100
7, 51765, Note_on_c, 9, 38, 0
7, 51780, Note_on_c, 9, 38, 100
7, 51795, Note_on_c, 9, 38, 0
7, 51810, Note_on_c, 9, 38, 100
7, 51825, Note_on_c, 9, 38, 0
7, 51840, Note_on_c, 9, 36, 100
7, 51840, Note_on_c, 9, 51, 100
7, 51855, Note_on_c, 9, 51, 0
7, 51855, Note_on_c, 9, 36, 0
7, 51900, Note_on_c, 9, 36, 100
7, 51900, Note_on_c, 9, 51, 100
7, 51915, Note_on_c, 9, 51, 0
7, 51915, Note_on_c, 9, 36, 0
7, 51960, Note_on_c, 9, 38, 100
7, 51960, Note_on_c, 9, 51, 100
7, 51975, Note_on_c, 9, 51, 0
7, 51975, Note_on_c, 9, 38, 0
7, 52020, Note_on_c, 9, 51, 100
7, 52035, Note_on_c, 9, 51, 0
7, 52050, Note_on_c, 9, 38, 100
7, 52065, Note_on_c, 9, 38, 0
7, 52080, Note_on_c, 9, 36, 100
7, 52080, Note_on_c, 9, 51, 100
7, 52095, Note_on_c, 9, 51, 0
7, 52095, Note_on_c, 9, 36, 0
7, 52140, Note_on_c, 9, 36, 100
7, 52140, Note_on_c, 9, 51, 100
7, 52155, Note_on_c, 9, 51, 0
7, 52155, Note_on_c, 9, 36, 0
7, 52200, Note_on_c, 9, 38, 100
7, 52200, Note_on_c, 9, 51, 100
7, 52215, Note_on_c, 9, 51, 0
7, 52215, Note_on_c, 9, 38, 0
7, 52260, Note_on_c, 9, 51, 100
7, 52275, Note_on_c, 9, 51, 0
7, 52320, Note_on_c, 9, 51, 100
7, 52320, Note_on_c, 9, 38, 100
7, 52335, Note_on_c, 9, 38, 0
7, 52335, Note_on_c, 9, 51, 0
7, 52350, Note_on_c, 9, 51, 100
7, 52350, Note_on_c, 9, 38, 100
7, 52365, Note_on_c, 9, 38, 0
7, 52365, Note_on_c, 9, 51, 0
7, 52410, Note_on_c, 9, 51, 100
7, 52410, Note_on_c, 9, 38, 100
7, 52425, Note_on_c, 9, 38, 0
7, 52425, Note_on_c, 9, 51, 0
7, 52440, Note_on_c, 9, 51, 100
7, 52440, Note_on_c, 9, 38, 100
7, 52455, Note_on_c, 9, 38, 0
7, 52455, Note_on_c, 9, 51, 0
7, 52500, Note_on_c, 9, 51, 100
7, 52500, Note_on_c, 9, 38, 100
7, 52515, Note_on_c, 9, 38, 0
7, 52515, Note_on_c, 9, 51, 0
7, 52530, Note_on_c, 9, 51, 100
7, 52530, Note_on_c, 9, 38, 100
7, 52545, Note_on_c, 9, 38, 0
7, 52545, Note_on_c, 9, 51, 0
7, 52590, Note_on_c, 9, 51, 100
7, 52590, Note_on_c, 9, 38, 100
7, 52605, Note_on_c, 9, 38, 0
7, 52605, Note_on_c, 9, 51, 0
7, 52620, Note_on_c, 9, 51, 100
7, 52620, Note_on_c, 9, 38, 100
7, 52635, Note_on_c, 9, 38, 0
7, 52635, Note_on_c, 9, 51, 0
7, 52680, Note_on_c, 9, 38, 100
7, 52695, Note_on_c, 9, 38, 0
7, 52710, Note_on_c, 9, 38, 100
7, 52725, Note_on_c, 9, 38, 0
7, 52770, Note_on_c, 9, 41, 100
7, 52785, Note_on_c, 9, 41, 0
7, 52800, Control_c, 9, 7, 105
7, 52800, Note_on_c, 9, 36, 100
7, 52800, Note_on_c, 9, 51, 100
7, 52815, Note_on_c, 9, 51, 0
7, 52815, Note_on_c, 9, 36, 0
7, 52822, Control_c, 9, 7, 104
7, 52845, Control_c, 9, 7, 103
7, 52860, Note_on_c, 9, 36, 100
7, 52860, Note_on_c, 9, 51, 100
7, 52868, Control_c, 9, 7, 102
7, 52875, Note_on_c, 9, 51, 0
7, 52875, Note_on_c, 9, 36, 0
7, 52891, Control_c, 9, 7, 101
7, 52914, Control_c, 9, 7, 100
7, 52920, Note_on_c, 9, 38, 100
7, 52920, Note_on_c, 9, 51, 100
7, 52935, Note_on_c, 9, 51, 0
7, 52935, Note_on_c, 9, 38, 0
7, 52937, Control_c, 9, 7, 99
7, 52959, Control_c, 9, 7, 98
7, 52980, Note_on_c, 9, 51, 100
7, 52982, Control_c, 9, 7, 97
7, 52995, Note_on_c, 9, 51, 0
7, 53005, Control_c, 9, 7, 96
7, 53010, Note_on_c, 9, 38, 100
7, 53025, Note_on_c, 9, 38, 0
7, 53028, Control_c, 9, 7, 95
7, 53040, Note_on_c, 9, 36, 100
7, 53040, Note_on_c, 9, 51, 100
7, 53051, Control_c, 9, 7, 94
7, 53055, Note_on_c, 9, 51, 0
7, 53055, Note_on_c, 9, 36, 0
7, 53074, Control_c, 9, 7, 93
7, 53097, Control_c, 9, 7, 92
7, 53100, Note_on_c, 9, 36, 100
7, 53100, Note_on_c, 9, 51, 100
7, 53115, Note_on_c, 9, 51, 0
7, 53115, Note_on_c, 9, 36, 0
7, 53119, Control_c, 9, 7, 91
7, 53142, Control_c, 9, 7, 90
7, 53160, Note_on_c, 9, 38, 100
7, 53160, Note_on_c, 9, 51, 100
7, 53165, Control_c, 9, 7, 89
7, 53175, Note_on_c, 9, 51, 0
7, 53175, Note_on_c, 9, 38, 0
7, 53188, Control_c, 9, 7, 88
7, 53211, Control_c, 9, 7, 87
7, 53220, Note_on_c, 9, 51, 100
7, 53234, Control_c, 9, 7, 86
7, 53235, Note_on_c, 9, 51, 0
7, 53250, Note_on_c, 9, 38, 100
7, 53256, Control_c, 9, 7, 85
7, 53265, Note_on_c, 9, 38, 0
7, 53279, Control_c, 9, 7, 84
7, 53280, Note_on_c, 9, 51, 100
7, 53280, Note_on_c, 9, 36, 100
7, 53295, Note_on_c, 9, 36, 0
7, 53295, Note_on_c, 9, 51, 0
7, 53302, Control_c, 9, 7, 83
7, 53325, Control_c, 9, 7, 82
7, 53340, Note_on_c, 9, 51, 100
7, 53340, Note_on_c, 9, 36, 100
7, 53348, Control_c, 9, 7, 81
7, 53355, Note_on_c, 9, 36, 0
7, 53355, Note_on_c, 9, 51, 0
7, 53371, Control_c, 9, 7, 80
7, 53394, Control_c, 9, 7, 79
7, 53400, Note_on_c, 9, 51, 100
7, 53400, Note_on_c, 9, 38, 100
7, 53415, Note_on_c, 9, 38, 0
7, 53415, Note_on_c, 9, 51, 0
7, 53416, Control_c, 9, 7, 78
7, 53439, Control_c, 9, 7, 77
7, 53460, Note_on_c, 9, 51, 100
7, 53462, Control_c, 9, 7, 76
7, 53475, Note_on_c, 9, 51, 0
7, 53485, Control_c, 9, 7, 75
7, 53490, Note_on_c, 9, 38, 100
7, 53505, Note_on_c, 9, 38, 0
7, 53508, Control_c, 9, 7, 74
7, 53520, Note_on_c, 9, 51, 100
7, 53520, Note_on_c, 9, 36, 100
7, 53531, Control_c, 9, 7, 73
7, 53535, Note_on_c, 9, 36, 0
7, 53535, Note_on_c, 9, 51, 0
7, 53553, Control_c, 9, 7, 72
7, 53576, Control_c, 9, 7, 71
7, 53580, Note_on_c, 9, 51, 100
7, 53580, Note_on_c, 9, 36, 100
7, 53595, Note_on_c, 9, 36, 0
7, 53595, Note_on_c, 9, 51, 0
7, 53599, Control_c, 9, 7, 70
7, 53622, Control_c, 9, 7, 69
7, 53640, Note_on_c, 9, 38, 100
7, 53645, Control_c, 9, 7, 68
7, 53655, Note_on_c, 9, 38, 0
7, 53668, Control_c, 9, 7, 67
7, 53670, Note_on_c, 9, 38, 127
7, 53685, Note_on_c, 9, 38, 0
7, 53691, Control_c, 9, 7, 66
7, 53700, Note_on_c, 9, 38, 127
7, 53713, Control_c, 9, 7, 65
7, 53715, Note_on_c, 9, 38, 0
7, 53736, Control_c, 9, 7, 64
7, 53759, Control_c, 9, 7, 63
7, 53760, Note_on_c, 9, 36, 127
7, 53760, Note_on_c, 9, 49, 127
7, 53775, Note_on_c, 9, 49, 0
7, 53775, Note_on_c, 9, 36, 0
7, 53782, Control_c, 9, 7, 62
7, 53805, Control_c, 9, 7, 61
7, 53820, Note_on_c, 9, 36, 127
7, 53820, Note_on_c, 9, 51, 127
7, 53828, Control_c, 9, 7, 60
7, 53835, Note_on_c, 9, 51, 0
7, 53835, Note_on_c, 9, 36, 0
7, 53850, Control_c, 9, 7, 59
7, 53873, Control_c, 9, 7, 58
7, 53880, Note_on_c, 9, 38, 127
7, 53880, Note_on_c, 9, 51, 127
7, 53895, Note_on_c, 9, 51, 0
7, 53895, Note_on_c, 9, 38, 0
7, 53896, Control_c, 9, 7, 57
7, 53919, Control_c, 9, 7, 56
7, 53940, Note_on_c, 9, 51, 127
7, 53942, Control_c, 9, 7, 55
7, 53955, Note_on_c, 9, 51, 0
7, 53965, Control_c, 9, 7, 54
7, 53970, Note_on_c, 9, 38, 127
7, 53985, Note_on_c, 9, 38, 0
7, 53988, Control_c, 9, 7, 53
7, 54000, Note_on_c, 9, 36, 127
7, 54000, Note_on_c, 9, 51, 127
7, 54010, Control_c, 9, 7, 52
7, 54015, Note_on_c, 9, 51, 0
7, 54015, Note_on_c, 9, 36, 0
7, 54033, Control_c, 9, 7, 51
7, 54056, Control_c, 9, 7, 50
7, 54060, Note_on_c, 9, 36, 127
7, 54060, Note_on_c, 9, 51, 127
7, 54075, Note_on_c, 9, 51, 0
7, 54075, Note_on_c, 9, 36, 0
7, 54079, Control_c, 9, 7, 49
7, 54102, Control_c, 9, 7, 48
7, 54120, Note_on_c, 9, 38, 127
7, 54120, Note_on_c, 9, 51, 127
7, 54125, Control_c, 9, 7, 47
7, 54135, Note_on_c, 9, 51, 0
7, 54135, Note_on_c, 9, 38, 0
7, 54148, Control_c, 9, 7, 46
7, 54170, Control_c, 9, 7, 45
7, 54180, Note_on_c, 9, 51, 127
7, 54193, Control_c, 9, 7, 44
7, 54195, Note_on_c, 9, 51, 0
7, 54210, Note_on_c, 9, 38, 127
7, 54216, Control_c, 9, 7, 43
7, 54225, Note_on_c, 9, 38, 0
7, 54239, Control_c, 9, 7, 42
7, 54240, Note_on_c, 9, 48, 127
7, 54255, Note_on_c, 9, 48, 0
7, 54262, Control_c, 9, 7, 41
7, 54270, Note_on_c, 9, 38, 127
7, 54285, Note_on_c, 9, 38, 0
7, 54285, Control_c, 9, 7, 40
7, 54300, Note_on_c, 9, 38, 127
7, 54307, Control_c, 9, 7, 39
7, 54315, Note_on_c, 9, 38, 0
7, 54330, Control_c, 9, 7, 38
7, 54330, Note_on_c, 9, 48, 127
7, 54345, Note_on_c, 9, 48, 0
7, 54353, Control_c, 9, 7, 37
7, 54360, Note_on_c, 9, 38, 127
7, 54375, Note_on_c, 9, 38, 0
7, 54376, Control_c, 9, 7, 36
7, 54390, Note_on_c, 9, 38, 127
7, 54399, Control_c, 9, 7, 35
7, 54405, Note_on_c, 9, 38, 0
7, 54420, Note_on_c, 9, 48, 127
7, 54422, Control_c, 9, 7, 34
7, 54435, Note_on_c, 9, 48, 0
7, 54445, Control_c, 9, 7, 33
7, 54450, Note_on_c, 9, 38, 127
7, 54465, Note_on_c, 9, 38, 0
7, 54467, Control_c, 9, 7, 32
7, 54480, Note_on_c, 9, 38, 127
7, 54490, Control_c, 9, 7, 31
7, 54495, Note_on_c, 9, 38, 0
7, 54510, Note_on_c, 9, 48, 127
7, 54513, Control_c, 9, 7, 30
7, 54525, Note_on_c, 9, 48, 0
7, 54536, Control_c, 9, 7, 29
7, 54540, Note_on_c, 9, 38, 127
7, 54555, Note_on_c, 9, 38, 0
7, 54559, Control_c, 9, 7, 28
7, 54570, Note_on_c, 9, 38, 127
7, 54582, Control_c, 9, 7, 27
7, 54585, Note_on_c, 9, 38, 0
7, 54600, Note_on_c, 9, 48, 127
7, 54604, Control_c, 9, 7, 26
7, 54615, Note_on_c, 9, 48, 0
7, 54627, Control_c, 9, 7, 25
7, 54630, Note_on_c, 9, 38, 127
7, 54645, Note_on_c, 9, 38, 0
7, 54650, Control_c, 9, 7, 24
7, 54660, Note_on_c, 9, 48, 127
7, 54673, Control_c, 9, 7, 23
7, 54675, Note_on_c, 9, 48, 0
7, 54696, Control_c, 9, 7, 22
7, 54719, Control_c, 9, 7, 21
7, 54720, Note_on_c, 9, 35, 127
7, 54720, Note_on_c, 9, 51, 127
7, 54735, Note_on_c, 9, 51, 0
7, 54735, Note_on_c, 9, 35, 0
7, 54742, Control_c, 9, 7, 20
7, 54764, Control_c, 9, 7, 19
7, 54780, Note_on_c, 9, 51, 127
7, 54787, Control_c, 9, 7, 18
7, 54795, Note_on_c, 9, 51, 0
7, 54810, Control_c, 9, 7, 17
7, 54833, Control_c, 9, 7, 16
7, 54840, Note_on_c, 9, 38, 127
7, 54840, Note_on_c, 9, 51, 127
7, 54855, Note_on_c, 9, 51, 0
7, 54855, Note_on_c, 9, 38, 0
7, 54856, Control_c, 9, 7, 15
7, 54879, Control_c, 9, 7, 14
7, 54900, Note_on_c, 9, 51, 127
7, 54901, Control_c, 9, 7, 13
7, 54915, Note_on_c, 9, 51, 0
7, 54924, Control_c, 9, 7, 12
7, 54930, Note_on_c, 9, 38, 127
7, 54945, Note_on_c, 9, 38, 0
7, 54947, Control_c, 9, 7, 11
7, 54960, Note_on_c, 9, 35, 127
7, 54960, Note_on_c, 9, 51, 127
7, 54970, Control_c, 9, 7, 10
7, 54975, Note_on_c, 9, 51, 0
7, 54975, Note_on_c, 9, 35, 0
7, 54993, Control_c, 9, 7, 9
7, 55016, Control_c, 9, 7, 8
7, 55020, Note_on_c, 9, 35, 127
7, 55020, Note_on_c, 9, 51, 127
7, 55035, Note_on_c, 9, 51, 0
7, 55035, Note_on_c, 9, 35, 0
7, 55039, Control_c, 9, 7, 7
7, 55061, Control_c, 9, 7, 6
7, 55080, Note_on_c, 9, 51, 127
7, 55084, Control_c, 9, 7, 5
7, 55095, Note_on_c, 9, 51, 0
7, 55107, Control_c, 9, 7, 4
7, 55110, Note_on_c, 9, 35, 127
7, 55125, Note_on_c, 9, 35, 0
7, 55130, Control_c, 9, 7, 3
7, 55140, Note_on_c, 9, 38, 127
7, 55140, Note_on_c, 9, 51, 127
7, 55153, Control_c, 9, 7, 2
7, 55155, Note_on_c, 9, 51, 0
7, 55155, Note_on_c, 9, 38, 0
7, 55170, Note_on_c, 9, 35, 100
7, 55176, Control_c, 9, 7, 1
7, 55185, Note_on_c, 9, 35, 0
7, 55199, Control_c, 9, 7, 0
7, 55200, Note_on_c, 9, 35, 100
7, 55200, Note_on_c, 9, 41, 100
7, 55200, Note_on_c, 9, 38, 100
7, 55200, Note_on_c, 9, 49, 100
7, 55215, Note_on_c, 9, 49, 0
7, 55215, Note_on_c, 9, 35, 0
7, 55215, Note_on_c, 9, 41, 0
7, 55215, Note_on_c, 9, 38, 0
7, 55260, Note_on_c, 9, 35, 100
7, 55275, Note_on_c, 9, 35, 0
7, 55320, Note_on_c, 9, 38, 100
7, 55335, Note_on_c, 9, 38, 0
7, 55335, End_track
8, 0, Start_track
8, 0, MIDI_port, 0
8, 0, Title_t, "Vocal"
8, 0, Program_c, 5, 70
8, 0, Control_c, 5, 7, 115
8, 0, Control_c, 5, 10, 20
8, 4860, Note_on_c, 5, 61, 100
8, 4920, Note_on_c, 5, 61, 0
8, 4920, Note_on_c, 5, 59, 100
8, 4980, Note_on_c, 5, 59, 0
8, 4980, Note_on_c, 5, 61, 100
8, 5040, Note_on_c, 5, 61, 0
8, 5040, Note_on_c, 5, 59, 100
8, 5100, Note_on_c, 5, 59, 0
8, 5100, Note_on_c, 5, 61, 100
8, 5160, Note_on_c, 5, 61, 0
8, 5160, Note_on_c, 5, 59, 100
8, 5220, Note_on_c, 5, 59, 0
8, 5220, Note_on_c, 5, 61, 100
8, 5280, Note_on_c, 5, 61, 0
8, 5280, Note_on_c, 5, 64, 100
8, 5340, Note_on_c, 5, 64, 0
8, 5340, Note_on_c, 5, 59, 100
8, 5400, Note_on_c, 5, 59, 0
8, 5400, Pitch_bend_c, 5, 8192
8, 5400, Note_on_c, 5, 61, 100
8, 5404, Pitch_bend_c, 5, 8064
8, 5425, Pitch_bend_c, 5, 8192
8, 5426, Pitch_bend_c, 5, 8320
8, 5433, Pitch_bend_c, 5, 8448
8, 5442, Pitch_bend_c, 5, 8064
8, 5443, Pitch_bend_c, 5, 6784
8, 5444, Pitch_bend_c, 5, 5760
8, 5445, Pitch_bend_c, 5, 4736
8, 5446, Pitch_bend_c, 5, 3968
8, 5447, Pitch_bend_c, 5, 3200
8, 5448, Pitch_bend_c, 5, 2688
8, 5449, Pitch_bend_c, 5, 2176
8, 5450, Pitch_bend_c, 5, 1664
8, 5451, Pitch_bend_c, 5, 1152
8, 5452, Pitch_bend_c, 5, 896
8, 5453, Pitch_bend_c, 5, 384
8, 5454, Pitch_bend_c, 5, 128
8, 5460, Note_on_c, 5, 61, 0
8, 5460, Pitch_bend_c, 5, 8192
8, 5460, Note_on_c, 5, 56, 100
8, 5495, Pitch_bend_c, 5, 8192
8, 5501, Pitch_bend_c, 5, 7936
8, 5502, Pitch_bend_c, 5, 7680
8, 5503, Pitch_bend_c, 5, 6912
8, 5504, Pitch_bend_c, 5, 6656
8, 5505, Pitch_bend_c, 5, 5888
8, 5506, Pitch_bend_c, 5, 5376
8, 5507, Pitch_bend_c, 5, 4608
8, 5508, Pitch_bend_c, 5, 4352
8, 5509, Pitch_bend_c, 5, 3840
8, 5510, Pitch_bend_c, 5, 3328
8, 5511, Pitch_bend_c, 5, 2816
8, 5512, Pitch_bend_c, 5, 2304
8, 5513, Pitch_bend_c, 5, 1280
8, 5514, Pitch_bend_c, 5, 512
8, 5515, Pitch_bend_c, 5, 128
8, 5520, Note_on_c, 5, 56, 0
8, 5520, Pitch_bend_c, 5, 8192
8, 5820, Note_on_c, 5, 59, 100
8, 5880, Note_on_c, 5, 59, 0
8, 5880, Note_on_c, 5, 61, 100
8, 5940, Note_on_c, 5, 61, 0
8, 5940, Note_on_c, 5, 64, 100
8, 6000, Note_on_c, 5, 64, 0
8, 6000, Note_on_c, 5, 59, 100
8, 6060, Note_on_c, 5, 59, 0
8, 6060, Note_on_c, 5, 59, 100
8, 6120, Note_on_c, 5, 59, 0
8, 6120, Note_on_c, 5, 61, 100
8, 6180, Note_on_c, 5, 61, 0
8, 6180, Pitch_bend_c, 5, 8192
8, 6180, Note_on_c, 5, 59, 100
8, 6182, Pitch_bend_c, 5, 8320
8, 6185, Pitch_bend_c, 5, 8448
8, 6187, Pitch_bend_c, 5, 8576
8, 6190, Pitch_bend_c, 5, 8704
8, 6191, Pitch_bend_c, 5, 8832
8, 6193, Pitch_bend_c, 5, 8960
8, 6194, Pitch_bend_c, 5, 9088
8, 6197, Pitch_bend_c, 5, 9216
8, 6198, Pitch_bend_c, 5, 9344
8, 6200, Pitch_bend_c, 5, 9472
8, 6201, Pitch_bend_c, 5, 9600
8, 6204, Pitch_bend_c, 5, 9728
8, 6205, Pitch_bend_c, 5, 9856
8, 6207, Pitch_bend_c, 5, 9984
8, 6208, Pitch_bend_c, 5, 10112
8, 6210, Pitch_bend_c, 5, 10240
8, 6211, Pitch_bend_c, 5, 10368
8, 6214, Pitch_bend_c, 5, 10624
8, 6216, Pitch_bend_c, 5, 10752
8, 6217, Pitch_bend_c, 5, 10880
8, 6218, Pitch_bend_c, 5, 11136
8, 6219, Pitch_bend_c, 5, 11264
8, 6220, Pitch_bend_c, 5, 11904
8, 6221, Pitch_bend_c, 5, 14208
8, 6222, Pitch_bend_c, 5, 14720
8, 6223, Pitch_bend_c, 5, 14976
8, 6224, Pitch_bend_c, 5, 15232
8, 6225, Pitch_bend_c, 5, 15744
8, 6226, Pitch_bend_c, 5, 16000
8, 6227, Pitch_bend_c, 5, 16383
8, 6239, Pitch_bend_c, 5, 16256
8, 6240, Pitch_bend_c, 5, 15744
8, 6241, Pitch_bend_c, 5, 15488
8, 6242, Pitch_bend_c, 5, 14976
8, 6243, Pitch_bend_c, 5, 14720
8, 6244, Pitch_bend_c, 5, 14464
8, 6245, Pitch_bend_c, 5, 13952
8, 6246, Pitch_bend_c, 5, 13440
8, 6247, Pitch_bend_c, 5, 12928
8, 6248, Pitch_bend_c, 5, 11904
8, 6249, Pitch_bend_c, 5, 9600
8, 6250, Pitch_bend_c, 5, 8576
8, 6251, Pitch_bend_c, 5, 7552
8, 6252, Pitch_bend_c, 5, 6528
8, 6253, Pitch_bend_c, 5, 5504
8, 6254, Pitch_bend_c, 5, 3968
8, 6255, Pitch_bend_c, 5, 2944
8, 6256, Pitch_bend_c, 5, 2176
8, 6257, Pitch_bend_c, 5, 1408
8, 6258, Pitch_bend_c, 5, 384
8, 6259, Pitch_bend_c, 5, 128
8, 6360, Note_on_c, 5, 59, 0
8, 6393, Pitch_bend_c, 5, 8192
8, 6780, Note_on_c, 5, 59, 100
8, 6840, Note_on_c, 5, 59, 0
8, 6840, Note_on_c, 5, 59, 100
8, 6900, Note_on_c, 5, 59, 0
8, 6900, Note_on_c, 5, 61, 100
8, 6960, Note_on_c, 5, 61, 0
8, 6960, Note_on_c, 5, 59, 100
8, 7020, Note_on_c, 5, 59, 0
8, 7020, Note_on_c, 5, 64, 100
8, 7080, Note_on_c, 5, 64, 0
8, 7080, Note_on_c, 5, 59, 100
8, 7081, Pitch_bend_c, 5, 8320
8, 7103, Pitch_bend_c, 5, 8448
8, 7105, Pitch_bend_c, 5, 8576
8, 7108, Pitch_bend_c, 5, 8704
8, 7109, Pitch_bend_c, 5, 8832
8, 7111, Pitch_bend_c, 5, 9088
8, 7114, Pitch_bend_c, 5, 9344
8, 7117, Pitch_bend_c, 5, 9600
8, 7118, Pitch_bend_c, 5, 9856
8, 7120, Pitch_bend_c, 5, 10112
8, 7121, Pitch_bend_c, 5, 10624
8, 7122, Pitch_bend_c, 5, 11136
8, 7123, Pitch_bend_c, 5, 12672
8, 7124, Pitch_bend_c, 5, 13184
8, 7125, Pitch_bend_c, 5, 13696
8, 7126, Pitch_bend_c, 5, 13952
8, 7127, Pitch_bend_c, 5, 14464
8, 7128, Pitch_bend_c, 5, 14720
8, 7129, Pitch_bend_c, 5, 14976
8, 7130, Pitch_bend_c, 5, 15232
8, 7131, Pitch_bend_c, 5, 15744
8, 7132, Pitch_bend_c, 5, 16000
8, 7133, Pitch_bend_c, 5, 16256
8, 7134, Pitch_bend_c, 5, 16256
8, 7144, Pitch_bend_c, 5, 16383
8, 7161, Pitch_bend_c, 5, 16256
8, 7163, Pitch_bend_c, 5, 16000
8, 7164, Pitch_bend_c, 5, 15744
8, 7165, Pitch_bend_c, 5, 14720
8, 7167, Pitch_bend_c, 5, 12928
8, 7168, Pitch_bend_c, 5, 12544
8, 7169, Pitch_bend_c, 5, 12288
8, 7170, Pitch_bend_c, 5, 12032
8, 7171, Pitch_bend_c, 5, 11520
8, 7172, Pitch_bend_c, 5, 10752
8, 7173, Pitch_bend_c, 5, 9984
8, 7175, Pitch_bend_c, 5, 8960
8, 7176, Pitch_bend_c, 5, 8192
8, 7177, Pitch_bend_c, 5, 7936
8, 7179, Pitch_bend_c, 5, 7424
8, 7180, Pitch_bend_c, 5, 7168
8, 7181, Pitch_bend_c, 5, 6912
8, 7182, Pitch_bend_c, 5, 6656
8, 7183, Pitch_bend_c, 5, 6144
8, 7184, Pitch_bend_c, 5, 5888
8, 7185, Pitch_bend_c, 5, 5632
8, 7186, Pitch_bend_c, 5, 5120
8, 7187, Pitch_bend_c, 5, 4352
8, 7188, Pitch_bend_c, 5, 4096
8, 7189, Pitch_bend_c, 5, 3584
8, 7190, Pitch_bend_c, 5, 3072
8, 7191, Pitch_bend_c, 5, 2304
8, 7192, Pitch_bend_c, 5, 1792
8, 7193, Pitch_bend_c, 5, 1280
8, 7194, Pitch_bend_c, 5, 896
8, 7195, Pitch_bend_c, 5, 512
8, 7196, Pitch_bend_c, 5, 128
8, 7200, Note_on_c, 5, 59, 0
8, 7200, Pitch_bend_c, 5, 8192
8, 7200, Note_on_c, 5, 55, 100
8, 7320, Note_on_c, 5, 55, 0
8, 7320, Note_on_c, 5, 55, 100
8, 7380, Note_on_c, 5, 55, 0
8, 7740, Note_on_c, 5, 59, 100
8, 7800, Note_on_c, 5, 59, 0
8, 7800, Note_on_c, 5, 59, 100
8, 7920, Note_on_c, 5, 59, 0
8, 7920, Note_on_c, 5, 64, 100
8, 7980, Note_on_c, 5, 64, 0
8, 7980, Note_on_c, 5, 61, 100
8, 8040, Note_on_c, 5, 61, 0
8, 8040, Note_on_c, 5, 61, 100
8, 8100, Note_on_c, 5, 61, 0
8, 8100, Note_on_c, 5, 61, 100
8, 8101, Pitch_bend_c, 5, 128
8, 8104, Pitch_bend_c, 5, 384
8, 8108, Pitch_bend_c, 5, 640
8, 8110, Pitch_bend_c, 5, 896
8, 8111, Pitch_bend_c, 5, 1152
8, 8112, Pitch_bend_c, 5, 1280
8, 8113, Pitch_bend_c, 5, 1408
8, 8115, Pitch_bend_c, 5, 1664
8, 8116, Pitch_bend_c, 5, 1920
8, 8118, Pitch_bend_c, 5, 2176
8, 8119, Pitch_bend_c, 5, 2944
8, 8120, Pitch_bend_c, 5, 3072
8, 8122, Pitch_bend_c, 5, 3328
8, 8123, Pitch_bend_c, 5, 3584
8, 8124, Pitch_bend_c, 5, 3840
8, 8125, Pitch_bend_c, 5, 4096
8, 8126, Pitch_bend_c, 5, 4352
8, 8127, Pitch_bend_c, 5, 4608
8, 8128, Pitch_bend_c, 5, 4864
8, 8129, Pitch_bend_c, 5, 5120
8, 8130, Pitch_bend_c, 5, 5376
8, 8131, Pitch_bend_c, 5, 5632
8, 8132, Pitch_bend_c, 5, 6144
8, 8133, Pitch_bend_c, 5, 6400
8, 8134, Pitch_bend_c, 5, 6912
8, 8135, Pitch_bend_c, 5, 7424
8, 8136, Pitch_bend_c, 5, 7936
8, 8140, Pitch_bend_c, 5, 8192
8, 8160, Note_on_c, 5, 61, 0
8, 8160, Note_on_c, 5, 56, 100
8, 8220, Note_on_c, 5, 56, 0
8, 8220, Note_on_c, 5, 57, 100
8, 8400, Note_on_c, 5, 57, 0
8, 8700, Note_on_c, 5, 67, 100
8, 8760, Note_on_c, 5, 67, 0
8, 8760, Note_on_c, 5, 66, 100
8, 8820, Note_on_c, 5, 66, 0
8, 8820, Note_on_c, 5, 66, 100
8, 8880, Note_on_c, 5, 66, 0
8, 8880, Note_on_c, 5, 64, 100
8, 8940, Note_on_c, 5, 64, 0
8, 8940, Note_on_c, 5, 61, 100
8, 9000, Note_on_c, 5, 61, 0
8, 9060, Note_on_c, 5, 57, 100
8, 9120, Note_on_c, 5, 57, 0
8, 9120, Note_on_c, 5, 68, 100
8, 9180, Note_on_c, 5, 68, 0
8, 9180, Note_on_c, 5, 61, 100
8, 9240, Note_on_c, 5, 61, 0
8, 9240, Pitch_bend_c, 5, 16000
8, 9240, Note_on_c, 5, 62, 100
8, 9250, Pitch_bend_c, 5, 16128
8, 9251, Pitch_bend_c, 5, 16256
8, 9254, Pitch_bend_c, 5, 16383
8, 9332, Pitch_bend_c, 5, 16128
8, 9339, Pitch_bend_c, 5, 16256
8, 9345, Pitch_bend_c, 5, 16383
8, 9434, Pitch_bend_c, 5, 16256
8, 9439, Pitch_bend_c, 5, 16000
8, 9441, Pitch_bend_c, 5, 15872
8, 9442, Pitch_bend_c, 5, 15744
8, 9443, Pitch_bend_c, 5, 15616
8, 9444, Pitch_bend_c, 5, 15488
8, 9446, Pitch_bend_c, 5, 15232
8, 9448, Pitch_bend_c, 5, 14976
8, 9450, Pitch_bend_c, 5, 14720
8, 9451, Pitch_bend_c, 5, 14592
8, 9452, Pitch_bend_c, 5, 14464
8, 9453, Pitch_bend_c, 5, 14208
8, 9454, Pitch_bend_c, 5, 13952
8, 9455, Pitch_bend_c, 5, 13696
8, 9456, Pitch_bend_c, 5, 13440
8, 9457, Pitch_bend_c, 5, 13184
8, 9458, Pitch_bend_c, 5, 12928
8, 9459, Pitch_bend_c, 5, 12416
8, 9460, Pitch_bend_c, 5, 12288
8, 9461, Pitch_bend_c, 5, 12032
8, 9462, Pitch_bend_c, 5, 11264
8, 9463, Pitch_bend_c, 5, 10752
8, 9464, Pitch_bend_c, 5, 10496
8, 9465, Pitch_bend_c, 5, 10240
8, 9466, Pitch_bend_c, 5, 9728
8, 9467, Pitch_bend_c, 5, 8704
8, 9468, Pitch_bend_c, 5, 8192
8, 9469, Pitch_bend_c, 5, 6400
8, 9480, Note_on_c, 5, 62, 0
8, 9482, Pitch_bend_c, 5, 8192
8, 9660, Note_on_c, 5, 59, 100
8, 9720, Note_on_c, 5, 59, 0
8, 9720, Note_on_c, 5, 61, 100
8, 9840, Note_on_c, 5, 61, 0
8, 9840, Note_on_c, 5, 64, 100
8, 9900, Note_on_c, 5, 64, 0
8, 9900, Note_on_c, 5, 61, 100
8, 9960, Note_on_c, 5, 61, 0
8, 9960, Note_on_c, 5, 61, 100
8, 10080, Note_on_c, 5, 61, 0
8, 10620, Pitch_bend_c, 5, 4096
8, 10620, Note_on_c, 5, 67, 100
8, 10621, Pitch_bend_c, 5, 4224
8, 10623, Pitch_bend_c, 5, 4352
8, 10624, Pitch_bend_c, 5, 4480
8, 10627, Pitch_bend_c, 5, 4608
8, 10629, Pitch_bend_c, 5, 4736
8, 10632, Pitch_bend_c, 5, 4992
8, 10637, Pitch_bend_c, 5, 5248
8, 10639, Pitch_bend_c, 5, 5376
8, 10641, Pitch_bend_c, 5, 5504
8, 10643, Pitch_bend_c, 5, 5760
8, 10646, Pitch_bend_c, 5, 6016
8, 10649, Pitch_bend_c, 5, 6144
8, 10650, Pitch_bend_c, 5, 6272
8, 10651, Pitch_bend_c, 5, 6400
8, 10653, Pitch_bend_c, 5, 6528
8, 10655, Pitch_bend_c, 5, 6656
8, 10656, Pitch_bend_c, 5, 6784
8, 10657, Pitch_bend_c, 5, 6912
8, 10658, Pitch_bend_c, 5, 7040
8, 10660, Pitch_bend_c, 5, 7296
8, 10661, Pitch_bend_c, 5, 7680
8, 10662, Pitch_bend_c, 5, 7808
8, 10663, Pitch_bend_c, 5, 8064
8, 10666, Pitch_bend_c, 5, 8192
8, 10680, Note_on_c, 5, 67, 0
8, 10680, Note_on_c, 5, 66, 100
8, 10740, Note_on_c, 5, 66, 0
8, 10740, Note_on_c, 5, 64, 100
8, 10800, Note_on_c, 5, 64, 0
8, 10800, Note_on_c, 5, 66, 100
8, 10860, Note_on_c, 5, 66, 0
8, 10860, Note_on_c, 5, 64, 100
8, 10980, Note_on_c, 5, 64, 0
8, 10980, Note_on_c, 5, 68, 100
8, 11040, Note_on_c, 5, 68, 0
8, 11040, Note_on_c, 5, 61, 100
8, 11100, Note_on_c, 5, 61, 0
8, 11100, Note_on_c, 5, 61, 100
8, 11160, Note_on_c, 5, 61, 0
8, 11160, Note_on_c, 5, 64, 100
8, 11280, Note_on_c, 5, 64, 0
8, 11280, Note_on_c, 5, 57, 100
8, 11400, Note_on_c, 5, 57, 0
8, 11580, Note_on_c, 5, 59, 100
8, 11640, Note_on_c, 5, 59, 0
8, 11640, Note_on_c, 5, 61, 100
8, 11700, Note_on_c, 5, 61, 0
8, 11700, Note_on_c, 5, 61, 100
8, 11760, Note_on_c, 5, 61, 0
8, 11760, Note_on_c, 5, 64, 100
8, 11820, Note_on_c, 5, 64, 0
8, 11820, Note_on_c, 5, 61, 100
8, 11880, Note_on_c, 5, 61, 0
8, 11880, Note_on_c, 5, 61, 100
8, 11940, Note_on_c, 5, 61, 0
8, 11940, Note_on_c, 5, 61, 100
8, 11941, Pitch_bend_c, 5, 128
8, 11942, Pitch_bend_c, 5, 128
8, 11945, Pitch_bend_c, 5, 256
8, 11947, Pitch_bend_c, 5, 512
8, 11949, Pitch_bend_c, 5, 768
8, 11951, Pitch_bend_c, 5, 1024
8, 11953, Pitch_bend_c, 5, 1280
8, 11954, Pitch_bend_c, 5, 2048
8, 11955, Pitch_bend_c, 5, 2304
8, 11956, Pitch_bend_c, 5, 2432
8, 11957, Pitch_bend_c, 5, 2688
8, 11959, Pitch_bend_c, 5, 2944
8, 11960, Pitch_bend_c, 5, 3200
8, 11961, Pitch_bend_c, 5, 3456
8, 11963, Pitch_bend_c, 5, 3968
8, 11965, Pitch_bend_c, 5, 4224
8, 11967, Pitch_bend_c, 5, 4480
8, 11969, Pitch_bend_c, 5, 4736
8, 11970, Pitch_bend_c, 5, 4864
8, 11971, Pitch_bend_c, 5, 4992
8, 11973, Pitch_bend_c, 5, 5120
8, 11974, Pitch_bend_c, 5, 5248
8, 11975, Pitch_bend_c, 5, 5504
8, 11977, Pitch_bend_c, 5, 5760
8, 11979, Pitch_bend_c, 5, 6016
8, 11980, Pitch_bend_c, 5, 6144
8, 11981, Pitch_bend_c, 5, 7808
8, 11983, Pitch_bend_c, 5, 7936
8, 11984, Pitch_bend_c, 5, 8064
8, 11987, Pitch_bend_c, 5, 8192
8, 11988, Pitch_bend_c, 5, 7936
8, 11989, Pitch_bend_c, 5, 7424
8, 11991, Pitch_bend_c, 5, 8192
8, 12000, Note_on_c, 5, 61, 0
8, 12000, Note_on_c, 5, 57, 100
8, 12120, Note_on_c, 5, 57, 0
8, 12180, Note_on_c, 5, 64, 100
8, 12300, Note_on_c, 5, 64, 0
8, 12300, Note_on_c, 5, 59, 100
8, 12420, Note_on_c, 5, 59, 0
8, 12420, Note_on_c, 5, 61, 100
8, 12448, Pitch_bend_c, 5, 8192
8, 12469, Pitch_bend_c, 5, 7936
8, 12470, Pitch_bend_c, 5, 7424
8, 12471, Pitch_bend_c, 5, 6912
8, 12472, Pitch_bend_c, 5, 6144
8, 12473, Pitch_bend_c, 5, 5376
8, 12474, Pitch_bend_c, 5, 4352
8, 12475, Pitch_bend_c, 5, 3328
8, 12476, Pitch_bend_c, 5, 1280
8, 12477, Pitch_bend_c, 5, 128
8, 12480, Note_on_c, 5, 61, 0
8, 12502, Pitch_bend_c, 5, 8192
8, 16380, Pitch_bend_c, 5, 4224
8, 16380, Note_on_c, 5, 67, 100
8, 16386, Pitch_bend_c, 5, 4480
8, 16389, Pitch_bend_c, 5, 4608
8, 16391, Pitch_bend_c, 5, 4736
8, 16394, Pitch_bend_c, 5, 4864
8, 16395, Pitch_bend_c, 5, 4992
8, 16397, Pitch_bend_c, 5, 5120
8, 16398, Pitch_bend_c, 5, 5248
8, 16399, Pitch_bend_c, 5, 5376
8, 16401, Pitch_bend_c, 5, 5504
8, 16402, Pitch_bend_c, 5, 5760
8, 16405, Pitch_bend_c, 5, 6016
8, 16407, Pitch_bend_c, 5, 6272
8, 16410, Pitch_bend_c, 5, 6528
8, 16412, Pitch_bend_c, 5, 6656
8, 16413, Pitch_bend_c, 5, 6784
8, 16414, Pitch_bend_c, 5, 6912
8, 16415, Pitch_bend_c, 5, 7296
8, 16416, Pitch_bend_c, 5, 7424
8, 16417, Pitch_bend_c, 5, 7552
8, 16418, Pitch_bend_c, 5, 7808
8, 16419, Pitch_bend_c, 5, 7936
8, 16420, Pitch_bend_c, 5, 8064
8, 16421, Pitch_bend_c, 5, 8192
8, 16422, Pitch_bend_c, 5, 8320
8, 16425, Pitch_bend_c, 5, 8064
8, 16429, Pitch_bend_c, 5, 8192
8, 16430, Pitch_bend_c, 5, 8320
8, 16440, Note_on_c, 5, 67, 0
8, 16440, Note_on_c, 5, 66, 100
8, 16500, Note_on_c, 5, 66, 0
8, 16500, Note_on_c, 5, 64, 100
8, 16560, Note_on_c, 5, 64, 0
8, 16560, Note_on_c, 5, 66, 100
8, 16620, Note_on_c, 5, 66, 0
8, 16620, Note_on_c, 5, 66, 100
8, 16680, Note_on_c, 5, 66, 0
8, 16680, Note_on_c, 5, 64, 100
8, 16740, Note_on_c, 5, 64, 0
8, 16740, Note_on_c, 5, 67, 100
8, 16800, Note_on_c, 5, 67, 0
8, 16800, Note_on_c, 5, 59, 100
8, 16860, Note_on_c, 5, 59, 0
8, 16860, Note_on_c, 5, 68, 100
8, 16920, Note_on_c, 5, 68, 0
8, 17340, Note_on_c, 5, 59, 100
8, 17400, Note_on_c, 5, 59, 0
8, 17400, Note_on_c, 5, 61, 100
8, 17460, Note_on_c, 5, 61, 0
8, 17460, Note_on_c, 5, 61, 100
8, 17520, Note_on_c, 5, 61, 0
8, 17520, Note_on_c, 5, 64, 100
8, 17580, Note_on_c, 5, 64, 0
8, 17580, Note_on_c, 5, 61, 100
8, 17640, Note_on_c, 5, 61, 0
8, 17640, Note_on_c, 5, 61, 100
8, 17700, Note_on_c, 5, 61, 0
8, 17700, Note_on_c, 5, 57, 100
8, 17760, Note_on_c, 5, 57, 0
8, 18300, Note_on_c, 5, 59, 100
8, 18360, Note_on_c, 5, 59, 0
8, 18360, Note_on_c, 5, 59, 100
8, 18420, Note_on_c, 5, 59, 0
8, 18420, Note_on_c, 5, 61, 100
8, 18480, Note_on_c, 5, 61, 0
8, 18480, Note_on_c, 5, 59, 100
8, 18540, Note_on_c, 5, 59, 0
8, 18540, Note_on_c, 5, 61, 100
8, 18600, Note_on_c, 5, 61, 0
8, 18600, Note_on_c, 5, 61, 100
8, 18660, Note_on_c, 5, 61, 0
8, 18660, Note_on_c, 5, 64, 100
8, 18720, Note_on_c, 5, 64, 0
8, 18720, Note_on_c, 5, 66, 100
8, 18900, Note_on_c, 5, 66, 0
8, 19260, Pitch_bend_c, 5, 4352
8, 19260, Note_on_c, 5, 67, 100
8, 19272, Pitch_bend_c, 5, 4480
8, 19273, Pitch_bend_c, 5, 4608
8, 19275, Pitch_bend_c, 5, 4736
8, 19276, Pitch_bend_c, 5, 4864
8, 19278, Pitch_bend_c, 5, 4992
8, 19279, Pitch_bend_c, 5, 5120
8, 19281, Pitch_bend_c, 5, 5376
8, 19283, Pitch_bend_c, 5, 5632
8, 19285, Pitch_bend_c, 5, 5760
8, 19286, Pitch_bend_c, 5, 5888
8, 19287, Pitch_bend_c, 5, 6016
8, 19288, Pitch_bend_c, 5, 6144
8, 19289, Pitch_bend_c, 5, 6272
8, 19290, Pitch_bend_c, 5, 6400
8, 19292, Pitch_bend_c, 5, 6656
8, 19293, Pitch_bend_c, 5, 6784
8, 19294, Pitch_bend_c, 5, 6912
8, 19296, Pitch_bend_c, 5, 7040
8, 19297, Pitch_bend_c, 5, 7168
8, 19298, Pitch_bend_c, 5, 7296
8, 19299, Pitch_bend_c, 5, 7424
8, 19300, Pitch_bend_c, 5, 7552
8, 19301, Pitch_bend_c, 5, 7680
8, 19303, Pitch_bend_c, 5, 7936
8, 19305, Pitch_bend_c, 5, 8192
8, 19320, Note_on_c, 5, 67, 0
8, 19320, Note_on_c, 5, 66, 100
8, 19360, Note_on_c, 5, 66, 0
8, 19360, Note_on_c, 5, 64, 100
8, 19400, Note_on_c, 5, 64, 0
8, 19400, Note_on_c, 5, 66, 100
8, 19500, Note_on_c, 5, 66, 0
8, 19500, Note_on_c, 5, 61, 100
8, 19560, Note_on_c, 5, 61, 0
8, 19560, Note_on_c, 5, 61, 100
8, 19590, Note_on_c, 5, 61, 0
8, 19590, Note_on_c, 5, 61, 100
8, 19620, Note_on_c, 5, 61, 0
8, 19620, Note_on_c, 5, 64, 100
8, 19680, Note_on_c, 5, 64, 0
8, 19680, Note_on_c, 5, 54, 100
8, 19800, Note_on_c, 5, 54, 0
8, 20220, Note_on_c, 5, 68, 100
8, 20280, Note_on_c, 5, 68, 0
8, 20280, Note_on_c, 5, 66, 100
8, 20340, Note_on_c, 5, 66, 0
8, 20340, Note_on_c, 5, 64, 100
8, 20400, Note_on_c, 5, 64, 0
8, 20400, Note_on_c, 5, 66, 100
8, 20460, Note_on_c, 5, 66, 0
8, 20460, Note_on_c, 5, 61, 100
8, 20580, Note_on_c, 5, 61, 0
8, 20580, Note_on_c, 5, 64, 100
8, 20610, Note_on_c, 5, 64, 0
8, 20610, Note_on_c, 5, 61, 100
8, 20700, Note_on_c, 5, 61, 0
8, 20700, Note_on_c, 5, 61, 100
8, 20760, Note_on_c, 5, 61, 0
8, 20760, Note_on_c, 5, 66, 100
8, 20880, Note_on_c, 5, 66, 0
8, 21180, Note_on_c, 5, 59, 100
8, 21240, Note_on_c, 5, 59, 0
8, 21240, Note_on_c, 5, 61, 100
8, 21300, Note_on_c, 5, 61, 0
8, 21300, Note_on_c, 5, 61, 100
8, 21360, Note_on_c, 5, 61, 0
8, 21360, Note_on_c, 5, 64, 100
8, 21420, Note_on_c, 5, 64, 0
8, 21420, Note_on_c, 5, 61, 100
8, 21540, Note_on_c, 5, 61, 0
8, 21540, Note_on_c, 5, 61, 100
8, 21600, Note_on_c, 5, 61, 0
8, 21600, Note_on_c, 5, 55, 100
8, 21840, Note_on_c, 5, 55, 0
8, 22140, Note_on_c, 5, 61, 100
8, 22200, Note_on_c, 5, 61, 0
8, 22200, Note_on_c, 5, 59, 100
8, 22260, Note_on_c, 5, 59, 0
8, 22260, Note_on_c, 5, 61, 100
8, 22320, Note_on_c, 5, 61, 0
8, 22320, Note_on_c, 5, 59, 100
8, 22380, Note_on_c, 5, 59, 0
8, 22380, Note_on_c, 5, 61, 100
8, 22440, Note_on_c, 5, 61, 0
8, 22500, Note_on_c, 5, 64, 100
8, 22560, Note_on_c, 5, 64, 0
8, 22560, Note_on_c, 5, 59, 100
8, 22620, Note_on_c, 5, 59, 0
8, 22620, Note_on_c, 5, 57, 100
8, 22680, Note_on_c, 5, 57, 0
8, 22680, Note_on_c, 5, 57, 100
8, 22683, Pitch_bend_c, 5, 8064
8, 22740, Pitch_bend_c, 5, 7936
8, 22741, Pitch_bend_c, 5, 7808
8, 22746, Pitch_bend_c, 5, 7552
8, 22750, Pitch_bend_c, 5, 7424
8, 22753, Pitch_bend_c, 5, 7296
8, 22757, Pitch_bend_c, 5, 7168
8, 22770, Pitch_bend_c, 5, 7040
8, 22771, Pitch_bend_c, 5, 6784
8, 22773, Pitch_bend_c, 5, 6528
8, 22774, Pitch_bend_c, 5, 6272
8, 22775, Pitch_bend_c, 5, 6016
8, 22776, Pitch_bend_c, 5, 5760
8, 22777, Pitch_bend_c, 5, 5504
8, 22778, Pitch_bend_c, 5, 5248
8, 22779, Pitch_bend_c, 5, 4992
8, 22781, Pitch_bend_c, 5, 4864
8, 22782, Pitch_bend_c, 5, 4736
8, 22783, Pitch_bend_c, 5, 4224
8, 22784, Pitch_bend_c, 5, 3712
8, 22785, Pitch_bend_c, 5, 3456
8, 22787, Pitch_bend_c, 5, 2944
8, 22788, Pitch_bend_c, 5, 2816
8, 22789, Pitch_bend_c, 5, 2560
8, 22790, Pitch_bend_c, 5, 2176
8, 22791, Pitch_bend_c, 5, 2048
8, 22793, Pitch_bend_c, 5, 1920
8, 22794, Pitch_bend_c, 5, 1664
8, 22795, Pitch_bend_c, 5, 1408
8, 22796, Pitch_bend_c, 5, 1152
8, 22797, Pitch_bend_c, 5, 128
8, 22800, Note_on_c, 5, 57, 0
8, 22801, Pitch_bend_c, 5, 8192
8, 23100, Note_on_c, 5, 59, 100
8, 23160, Note_on_c, 5, 59, 0
8, 23160, Note_on_c, 5, 61, 100
8, 23220, Note_on_c, 5, 61, 0
8, 23220, Note_on_c, 5, 61, 100
8, 23280, Note_on_c, 5, 61, 0
8, 23280, Note_on_c, 5, 65, 100
8, 23340, Note_on_c, 5, 65, 0
8, 23340, Note_on_c, 5, 66, 100
8, 23400, Note_on_c, 5, 66, 0
8, 23400, Note_on_c, 5, 64, 100
8, 23460, Note_on_c, 5, 64, 0
8, 23460, Note_on_c, 5, 68, 100
8, 23520, Note_on_c, 5, 68, 0
8, 23520, Note_on_c, 5, 61, 100
8, 23550, Note_on_c, 5, 61, 0
8, 23760, Note_on_c, 5, 71, 100
8, 23880, Note_on_c, 5, 71, 0
8, 23880, Note_on_c, 5, 57, 100
8, 23910, Note_on_c, 5, 57, 0
8, 23910, Note_on_c, 5, 56, 100
8, 24000, Note_on_c, 5, 56, 0
8, 31440, Note_on_c, 5, 66, 127
8, 31441, Pitch_bend_c, 5, 16383
8, 31442, Pitch_bend_c, 5, 16000
8, 31460, Pitch_bend_c, 5, 16128
8, 31478, Pitch_bend_c, 5, 16000
8, 31481, Pitch_bend_c, 5, 15872
8, 31482, Pitch_bend_c, 5, 15744
8, 31483, Pitch_bend_c, 5, 15488
8, 31485, Pitch_bend_c, 5, 9600
8, 31486, Pitch_bend_c, 5, 8832
8, 31487, Pitch_bend_c, 5, 7552
8, 31488, Pitch_bend_c, 5, 6784
8, 31489, Pitch_bend_c, 5, 3712
8, 31490, Pitch_bend_c, 5, 3584
8, 31491, Pitch_bend_c, 5, 3328
8, 31492, Pitch_bend_c, 5, 3200
8, 31493, Pitch_bend_c, 5, 2944
8, 31494, Pitch_bend_c, 5, 2688
8, 31495, Pitch_bend_c, 5, 2432
8, 31496, Pitch_bend_c, 5, 2176
8, 31497, Pitch_bend_c, 5, 1920
8, 31498, Pitch_bend_c, 5, 1408
8, 31499, Pitch_bend_c, 5, 1024
8, 31500, Note_on_c, 5, 66, 0
8, 31500, Pitch_bend_c, 5, 768
8, 39300, Note_on_c, 5, 56, 100
8, 39360, Note_on_c, 5, 56, 0
8, 39360, Pitch_bend_c, 5, 128
8, 39360, Note_on_c, 5, 71, 100
8, 39369, Pitch_bend_c, 5, 256
8, 39372, Pitch_bend_c, 5, 512
8, 39374, Pitch_bend_c, 5, 640
8, 39376, Pitch_bend_c, 5, 768
8, 39382, Pitch_bend_c, 5, 1024
8, 39384, Pitch_bend_c, 5, 1152
8, 39386, Pitch_bend_c, 5, 1280
8, 39388, Pitch_bend_c, 5, 1408
8, 39389, Pitch_bend_c, 5, 1536
8, 39395, Pitch_bend_c, 5, 1792
8, 39401, Pitch_bend_c, 5, 2048
8, 39407, Pitch_bend_c, 5, 2304
8, 39409, Pitch_bend_c, 5, 2432
8, 39411, Pitch_bend_c, 5, 2688
8, 39413, Pitch_bend_c, 5, 2944
8, 39415, Pitch_bend_c, 5, 3712
8, 39417, Pitch_bend_c, 5, 4480
8, 39418, Pitch_bend_c, 5, 4736
8, 39419, Pitch_bend_c, 5, 5248
8, 39420, Pitch_bend_c, 5, 5632
8, 39421, Pitch_bend_c, 5, 5888
8, 39422, Pitch_bend_c, 5, 6400
8, 39423, Pitch_bend_c, 5, 6656
8, 39424, Pitch_bend_c, 5, 7168
8, 39425, Pitch_bend_c, 5, 7424
8, 39426, Pitch_bend_c, 5, 8192
8, 39479, Pitch_bend_c, 5, 128
8, 39480, Note_on_c, 5, 71, 0
8, 39480, Note_on_c, 5, 68, 100
8, 39486, Pitch_bend_c, 5, 384
8, 39489, Pitch_bend_c, 5, 640
8, 39491, Pitch_bend_c, 5, 768
8, 39492, Pitch_bend_c, 5, 896
8, 39494, Pitch_bend_c, 5, 1024
8, 39495, Pitch_bend_c, 5, 1152
8, 39496, Pitch_bend_c, 5, 1280
8, 39497, Pitch_bend_c, 5, 1408
8, 39499, Pitch_bend_c, 5, 1664
8, 39500, Pitch_bend_c, 5, 1792
8, 39501, Pitch_bend_c, 5, 1920
8, 39502, Pitch_bend_c, 5, 2176
8, 39503, Pitch_bend_c, 5, 2432
8, 39504, Pitch_bend_c, 5, 2560
8, 39506, Pitch_bend_c, 5, 2688
8, 39507, Pitch_bend_c, 5, 2944
8, 39508, Pitch_bend_c, 5, 3200
8, 39509, Pitch_bend_c, 5, 3456
8, 39510, Pitch_bend_c, 5, 3584
8, 39511, Pitch_bend_c, 5, 3712
8, 39512, Pitch_bend_c, 5, 3968
8, 39514, Pitch_bend_c, 5, 4480
8, 39516, Pitch_bend_c, 5, 4736
8, 39517, Pitch_bend_c, 5, 4992
8, 39518, Pitch_bend_c, 5, 5248
8, 39519, Pitch_bend_c, 5, 5376
8, 39520, Pitch_bend_c, 5, 5504
8, 39521, Pitch_bend_c, 5, 5760
8, 39522, Pitch_bend_c, 5, 6016
8, 39523, Pitch_bend_c, 5, 6528
8, 39524, Pitch_bend_c, 5, 6784
8, 39525, Pitch_bend_c, 5, 7040
8, 39526, Pitch_bend_c, 5, 7808
8, 39527, Pitch_bend_c, 5, 8064
8, 39528, Pitch_bend_c, 5, 8192
8, 39600, Note_on_c, 5, 68, 0
8, 39600, Note_on_c, 5, 66, 100
8, 39660, Note_on_c, 5, 66, 0
8, 39660, Note_on_c, 5, 64, 100
8, 39720, Note_on_c, 5, 64, 0
8, 39720, Note_on_c, 5, 66, 100
8, 39780, Note_on_c, 5, 66, 0
8, 39780, Note_on_c, 5, 66, 100
8, 39840, Note_on_c, 5, 66, 0
8, 39865, Note_on_c, 5, 61, 100
8, 39925, Note_on_c, 5, 61, 0
8, 39934, Note_on_c, 5, 64, 100
8, 40062, Pitch_bend_c, 5, 8064
8, 40066, Pitch_bend_c, 5, 7808
8, 40067, Pitch_bend_c, 5, 7296
8, 40068, Pitch_bend_c, 5, 6528
8, 40069, Pitch_bend_c, 5, 6272
8, 40070, Pitch_bend_c, 5, 5760
8, 40071, Pitch_bend_c, 5, 4480
8, 40072, Pitch_bend_c, 5, 2944
8, 40073, Pitch_bend_c, 5, 2176
8, 40074, Pitch_bend_c, 5, 896
8, 40075, Pitch_bend_c, 5, 128
8, 40084, Note_on_c, 5, 64, 0
8, 40100, Pitch_bend_c, 5, 8192
8, 40380, Note_on_c, 5, 59, 100
8, 40440, Note_on_c, 5, 59, 0
8, 40440, Note_on_c, 5, 61, 100
8, 40560, Note_on_c, 5, 61, 0
8, 40560, Note_on_c, 5, 64, 100
8, 40620, Note_on_c, 5, 64, 0
8, 40620, Note_on_c, 5, 61, 100
8, 40740, Note_on_c, 5, 61, 0
8, 40740, Note_on_c, 5, 61, 100
8, 40800, Note_on_c, 5, 61, 0
8, 40800, Note_on_c, 5, 56, 100
8, 40890, Note_on_c, 5, 56, 0
8, 41340, Note_on_c, 5, 61, 100
8, 41400, Note_on_c, 5, 61, 0
8, 41400, Note_on_c, 5, 59, 100
8, 41460, Note_on_c, 5, 59, 0
8, 41460, Note_on_c, 5, 61, 100
8, 41520, Note_on_c, 5, 61, 0
8, 41520, Note_on_c, 5, 59, 100
8, 41580, Note_on_c, 5, 59, 0
8, 41580, Note_on_c, 5, 61, 100
8, 41699, Pitch_bend_c, 5, 512
8, 41700, Note_on_c, 5, 61, 0
8, 41700, Pitch_bend_c, 5, 640
8, 41700, Note_on_c, 5, 64, 100
8, 41702, Pitch_bend_c, 5, 768
8, 41704, Pitch_bend_c, 5, 1024
8, 41705, Pitch_bend_c, 5, 1280
8, 41706, Pitch_bend_c, 5, 1408
8, 41708, Pitch_bend_c, 5, 1664
8, 41709, Pitch_bend_c, 5, 1792
8, 41710, Pitch_bend_c, 5, 2048
8, 41711, Pitch_bend_c, 5, 2816
8, 41712, Pitch_bend_c, 5, 3072
8, 41713, Pitch_bend_c, 5, 3840
8, 41714, Pitch_bend_c, 5, 4096
8, 41716, Pitch_bend_c, 5, 4352
8, 41717, Pitch_bend_c, 5, 5120
8, 41718, Pitch_bend_c, 5, 5888
8, 41719, Pitch_bend_c, 5, 6656
8, 41720, Pitch_bend_c, 5, 7296
8, 41721, Pitch_bend_c, 5, 7808
8, 41722, Pitch_bend_c, 5, 8064
8, 41724, Pitch_bend_c, 5, 7936
8, 41726, Pitch_bend_c, 5, 8192
8, 41760, Note_on_c, 5, 64, 0
8, 41760, Note_on_c, 5, 59, 100
8, 41820, Note_on_c, 5, 59, 0
8, 41820, Note_on_c, 5, 61, 100
8, 41880, Note_on_c, 5, 61, 0
8, 41880, Pitch_bend_c, 5, 16128
8, 41880, Note_on_c, 5, 54, 100
8, 41883, Pitch_bend_c, 5, 16000
8, 41884, Pitch_bend_c, 5, 15360
8, 41885, Pitch_bend_c, 5, 14336
8, 41886, Pitch_bend_c, 5, 13312
8, 41887, Pitch_bend_c, 5, 12800
8, 41888, Pitch_bend_c, 5, 11776
8, 41889, Pitch_bend_c, 5, 9984
8, 41890, Pitch_bend_c, 5, 9472
8, 41891, Pitch_bend_c, 5, 9216
8, 41892, Pitch_bend_c, 5, 8960
8, 41894, Pitch_bend_c, 5, 8832
8, 41896, Pitch_bend_c, 5, 8704
8, 41898, Pitch_bend_c, 5, 8448
8, 41901, Pitch_bend_c, 5, 8320
8, 41902, Pitch_bend_c, 5, 8192
8, 41989, Pitch_bend_c, 5, 7424
8, 41990, Pitch_bend_c, 5, 5120
8, 41991, Pitch_bend_c, 5, 4608
8, 41992, Pitch_bend_c, 5, 4096
8, 41993, Pitch_bend_c, 5, 3584
8, 41994, Pitch_bend_c, 5, 2304
8, 41995, Pitch_bend_c, 5, 1024
8, 41996, Pitch_bend_c, 5, 128
8, 42000, Note_on_c, 5, 54, 0
8, 42014, Pitch_bend_c, 5, 8192
8, 42300, Note_on_c, 5, 64, 100
8, 42360, Note_on_c, 5, 64, 0
8, 42360, Note_on_c, 5, 64, 100
8, 42480, Note_on_c, 5, 64, 0
8, 42480, Note_on_c, 5, 66, 100
8, 42540, Note_on_c, 5, 66, 0
8, 42540, Note_on_c, 5, 61, 100
8, 42660, Note_on_c, 5, 61, 0
8, 42660, Note_on_c, 5, 64, 100
8, 42817, Pitch_bend_c, 5, 8192
8, 42821, Pitch_bend_c, 5, 8064
8, 42823, Pitch_bend_c, 5, 7936
8, 42824, Pitch_bend_c, 5, 7808
8, 42825, Pitch_bend_c, 5, 7680
8, 42826, Pitch_bend_c, 5, 7296
8, 42827, Pitch_bend_c, 5, 7040
8, 42828, Pitch_bend_c, 5, 6528
8, 42829, Pitch_bend_c, 5, 6400
8, 42830, Pitch_bend_c, 5, 6016
8, 42832, Pitch_bend_c, 5, 5504
8, 42833, Pitch_bend_c, 5, 5248
8, 42834, Pitch_bend_c, 5, 4992
8, 42835, Pitch_bend_c, 5, 128
8, 42840, Note_on_c, 5, 64, 0
8, 42850, Pitch_bend_c, 5, 8192
8, 43140, Note_on_c, 5, 56, 100
8, 43200, Note_on_c, 5, 56, 0
8, 43200, Pitch_bend_c, 5, 128
8, 43200, Note_on_c, 5, 68, 100
8, 43201, Pitch_bend_c, 5, 384
8, 43202, Pitch_bend_c, 5, 768
8, 43203, Pitch_bend_c, 5, 1024
8, 43204, Pitch_bend_c, 5, 1408
8, 43205, Pitch_bend_c, 5, 1664
8, 43206, Pitch_bend_c, 5, 2048
8, 43207, Pitch_bend_c, 5, 2304
8, 43208, Pitch_bend_c, 5, 2688
8, 43209, Pitch_bend_c, 5, 2944
8, 43210, Pitch_bend_c, 5, 3328
8, 43211, Pitch_bend_c, 5, 3584
8, 43212, Pitch_bend_c, 5, 3968
8, 43213, Pitch_bend_c, 5, 4224
8, 43214, Pitch_bend_c, 5, 4608
8, 43215, Pitch_bend_c, 5, 4864
8, 43216, Pitch_bend_c, 5, 5248
8, 43217, Pitch_bend_c, 5, 5504
8, 43218, Pitch_bend_c, 5, 5888
8, 43219, Pitch_bend_c, 5, 6144
8, 43220, Pitch_bend_c, 5, 6528
8, 43221, Pitch_bend_c, 5, 6784
8, 43222, Pitch_bend_c, 5, 7168
8, 43223, Pitch_bend_c, 5, 7424
8, 43224, Pitch_bend_c, 5, 7808
8, 43225, Pitch_bend_c, 5, 8192
8, 43320, Note_on_c, 5, 68, 0
8, 43320, Pitch_bend_c, 5, 0
8, 43320, Note_on_c, 5, 68, 100
8, 43321, Pitch_bend_c, 5, 384
8, 43322, Pitch_bend_c, 5, 768
8, 43323, Pitch_bend_c, 5, 1152
8, 43324, Pitch_bend_c, 5, 1536
8, 43325, Pitch_bend_c, 5, 1920
8, 43326, Pitch_bend_c, 5, 2304
8, 43327, Pitch_bend_c, 5, 2688
8, 43328, Pitch_bend_c, 5, 3072
8, 43329, Pitch_bend_c, 5, 3456
8, 43330, Pitch_bend_c, 5, 3840
8, 43331, Pitch_bend_c, 5, 4224
8, 43332, Pitch_bend_c, 5, 4608
8, 43333, Pitch_bend_c, 5, 4992
8, 43334, Pitch_bend_c, 5, 5376
8, 43335, Pitch_bend_c, 5, 5760
8, 43336, Pitch_bend_c, 5, 6144
8, 43337, Pitch_bend_c, 5, 6528
8, 43338, Pitch_bend_c, 5, 6912
8, 43339, Pitch_bend_c, 5, 7296
8, 43340, Pitch_bend_c, 5, 7680
8, 43341, Pitch_bend_c, 5, 8192
8, 43440, Note_on_c, 5, 68, 0
8, 43440, Note_on_c, 5, 66, 100
8, 43500, Note_on_c, 5, 66, 0
8, 43500, Note_on_c, 5, 64, 100
8, 43560, Note_on_c, 5, 64, 0
8, 43560, Note_on_c, 5, 66, 100
8, 43680, Note_on_c, 5, 66, 0
8, 43680, Note_on_c, 5, 66, 100
8, 43740, Note_on_c, 5, 66, 0
8, 43740, Note_on_c, 5, 61, 100
8, 43770, Note_on_c, 5, 61, 0
8, 43770, Note_on_c, 5, 64, 100
8, 43860, Note_on_c, 5, 64, 0
8, 44220, Note_on_c, 5, 59, 100
8, 44280, Note_on_c, 5, 59, 0
8, 44280, Note_on_c, 5, 64, 100
8, 44340, Note_on_c, 5, 64, 0
8, 44340, Note_on_c, 5, 64, 100
8, 44400, Note_on_c, 5, 64, 0
8, 44460, Note_on_c, 5, 64, 100
8, 44520, Note_on_c, 5, 64, 0
8, 44520, Note_on_c, 5, 61, 100
8, 44580, Note_on_c, 5, 61, 0
8, 44580, Note_on_c, 5, 64, 100
8, 44746, Pitch_bend_c, 5, 8320
8, 44747, Pitch_bend_c, 5, 7680
8, 44748, Pitch_bend_c, 5, 7040
8, 44749, Pitch_bend_c, 5, 6272
8, 44750, Pitch_bend_c, 5, 5632
8, 44751, Pitch_bend_c, 5, 4992
8, 44752, Pitch_bend_c, 5, 4224
8, 44753, Pitch_bend_c, 5, 3584
8, 44754, Pitch_bend_c, 5, 2944
8, 44755, Pitch_bend_c, 5, 2176
8, 44756, Pitch_bend_c, 5, 1536
8, 44757, Pitch_bend_c, 5, 896
8, 44758, Pitch_bend_c, 5, 128
8, 44760, Note_on_c, 5, 64, 0
8, 44776, Pitch_bend_c, 5, 8192
8, 45180, Note_on_c, 5, 64, 100
8, 45240, Note_on_c, 5, 64, 0
8, 45240, Note_on_c, 5, 63, 100
8, 45300, Note_on_c, 5, 63, 0
8, 45300, Note_on_c, 5, 64, 100
8, 45360, Note_on_c, 5, 64, 0
8, 45360, Note_on_c, 5, 64, 100
8, 45420, Note_on_c, 5, 64, 0
8, 45420, Note_on_c, 5, 64, 100
8, 45480, Note_on_c, 5, 64, 0
8, 45480, Note_on_c, 5, 59, 100
8, 45540, Note_on_c, 5, 59, 0
8, 45540, Note_on_c, 5, 59, 100
8, 45570, Note_on_c, 5, 59, 0
8, 45570, Note_on_c, 5, 61, 100
8, 45660, Note_on_c, 5, 61, 0
8, 45660, Note_on_c, 5, 57, 100
8, 45720, Note_on_c, 5, 57, 0
8, 45960, Note_on_c, 5, 61, 100
8, 46020, Note_on_c, 5, 61, 0
8, 46020, Note_on_c, 5, 61, 100
8, 46079, Pitch_bend_c, 5, 128
8, 46080, Note_on_c, 5, 61, 0
8, 46080, Note_on_c, 5, 69, 100
8, 46091, Pitch_bend_c, 5, 256
8, 46130, Pitch_bend_c, 5, 384
8, 46131, Pitch_bend_c, 5, 512
8, 46133, Pitch_bend_c, 5, 640
8, 46135, Pitch_bend_c, 5, 768
8, 46137, Pitch_bend_c, 5, 1024
8, 46139, Pitch_bend_c, 5, 1280
8, 46140, Pitch_bend_c, 5, 2048
8, 46141, Pitch_bend_c, 5, 2304
8, 46142, Pitch_bend_c, 5, 2560
8, 46143, Pitch_bend_c, 5, 3328
8, 46144, Pitch_bend_c, 5, 4224
8, 46145, Pitch_bend_c, 5, 6784
8, 46146, Pitch_bend_c, 5, 7296
8, 46147, Pitch_bend_c, 5, 7808
8, 46153, Pitch_bend_c, 5, 8064
8, 46155, Pitch_bend_c, 5, 8192
8, 46200, Note_on_c, 5, 69, 0
8, 46260, Note_on_c, 5, 68, 100
8, 46320, Note_on_c, 5, 68, 0
8, 46320, Note_on_c, 5, 66, 100
8, 46380, Note_on_c, 5, 66, 0
8, 46380, Note_on_c, 5, 64, 100
8, 46440, Note_on_c, 5, 64, 0
8, 46440, Note_on_c, 5, 68, 100
8, 46544, Pitch_bend_c, 5, 8192
8, 46545, Pitch_bend_c, 5, 7808
8, 46546, Pitch_bend_c, 5, 7296
8, 46547, Pitch_bend_c, 5, 6784
8, 46548, Pitch_bend_c, 5, 6400
8, 46549, Pitch_bend_c, 5, 5888
8, 46550, Pitch_bend_c, 5, 5376
8, 46551, Pitch_bend_c, 5, 4992
8, 46552, Pitch_bend_c, 5, 4480
8, 46553, Pitch_bend_c, 5, 3968
8, 46554, Pitch_bend_c, 5, 3456
8, 46555, Pitch_bend_c, 5, 3072
8, 46556, Pitch_bend_c, 5, 2560
8, 46557, Pitch_bend_c, 5, 2048
8, 46558, Pitch_bend_c, 5, 1664
8, 46559, Pitch_bend_c, 5, 1152
8, 46560, Note_on_c, 5, 68, 0
8, 46560, Pitch_bend_c, 5, 640
8, 46561, Pitch_bend_c, 5, 128
8, 46576, Pitch_bend_c, 5, 8192
8, 46800, Pitch_bend_c, 5, 128
8, 46800, Note_on_c, 5, 69, 127
8, 46802, Pitch_bend_c, 5, 384
8, 46804, Pitch_bend_c, 5, 640
8, 46806, Pitch_bend_c, 5, 768
8, 46807, Pitch_bend_c, 5, 896
8, 46809, Pitch_bend_c, 5, 1152
8, 46810, Pitch_bend_c, 5, 1408
8, 46812, Pitch_bend_c, 5, 1664
8, 46814, Pitch_bend_c, 5, 1920
8, 46815, Pitch_bend_c, 5, 2176
8, 46816, Pitch_bend_c, 5, 2688
8, 46817, Pitch_bend_c, 5, 3456
8, 46818, Pitch_bend_c, 5, 7552
8, 46819, Pitch_bend_c, 5, 8064
8, 46900, Pitch_bend_c, 5, 7936
8, 46901, Pitch_bend_c, 5, 7808
8, 46902, Pitch_bend_c, 5, 7552
8, 46903, Pitch_bend_c, 5, 7296
8, 46904, Pitch_bend_c, 5, 7040
8, 46905, Pitch_bend_c, 5, 6528
8, 46906, Pitch_bend_c, 5, 6272
8, 46907, Pitch_bend_c, 5, 6016
8, 46908, Pitch_bend_c, 5, 5504
8, 46909, Pitch_bend_c, 5, 4992
8, 46910, Pitch_bend_c, 5, 3712
8, 46911, Pitch_bend_c, 5, 2688
8, 46912, Pitch_bend_c, 5, 1920
8, 46913, Pitch_bend_c, 5, 896
8, 46914, Pitch_bend_c, 5, 384
8, 46915, Pitch_bend_c, 5, 128
8, 46920, Note_on_c, 5, 69, 0
8, 46920, Note_on_c, 5, 69, 100
8, 46921, Pitch_bend_c, 5, 8192
8, 46939, Pitch_bend_c, 5, 8064
8, 46995, Pitch_bend_c, 5, 7936
8, 46996, Pitch_bend_c, 5, 7808
8, 46997, Pitch_bend_c, 5, 7552
8, 46998, Pitch_bend_c, 5, 7296
8, 46999, Pitch_bend_c, 5, 6784
8, 47000, Pitch_bend_c, 5, 6528
8, 47001, Pitch_bend_c, 5, 6272
8, 47002, Pitch_bend_c, 5, 6144
8, 47003, Pitch_bend_c, 5, 6016
8, 47004, Pitch_bend_c, 5, 5760
8, 47005, Pitch_bend_c, 5, 5504
8, 47006, Pitch_bend_c, 5, 5248
8, 47007, Pitch_bend_c, 5, 5120
8, 47008, Pitch_bend_c, 5, 4864
8, 47009, Pitch_bend_c, 5, 4736
8, 47010, Pitch_bend_c, 5, 4480
8, 47011, Pitch_bend_c, 5, 4224
8, 47013, Pitch_bend_c, 5, 3968
8, 47014, Pitch_bend_c, 5, 3712
8, 47015, Pitch_bend_c, 5, 3584
8, 47016, Pitch_bend_c, 5, 3456
8, 47017, Pitch_bend_c, 5, 3200
8, 47018, Pitch_bend_c, 5, 2944
8, 47019, Pitch_bend_c, 5, 2816
8, 47020, Pitch_bend_c, 5, 2688
8, 47021, Pitch_bend_c, 5, 2432
8, 47022, Pitch_bend_c, 5, 2176
8, 47025, Pitch_bend_c, 5, 1920
8, 47027, Pitch_bend_c, 5, 1664
8, 47028, Pitch_bend_c, 5, 1408
8, 47029, Pitch_bend_c, 5, 1280
8, 47030, Pitch_bend_c, 5, 1152
8, 47031, Pitch_bend_c, 5, 896
8, 47032, Pitch_bend_c, 5, 768
8, 47033, Pitch_bend_c, 5, 640
8, 47034, Pitch_bend_c, 5, 384
8, 47035, Pitch_bend_c, 5, 256
8, 47037, Pitch_bend_c, 5, 128
8, 47040, Note_on_c, 5, 69, 0
8, 47058, Pitch_bend_c, 5, 8192
8, 48660, Note_on_c, 5, 68, 100
8, 48690, Note_on_c, 5, 68, 0
8, 48690, Note_on_c, 5, 66, 100
8, 48720, Note_on_c, 5, 66, 0
8, 48720, Note_on_c, 5, 68, 100
8, 48780, Note_on_c, 5, 68, 0
8, 48780, Note_on_c, 5, 66, 100
8, 48810, Note_on_c, 5, 66, 0
8, 48810, Note_on_c, 5, 68, 100
8, 48900, Note_on_c, 5, 68, 0
8, 48900, Note_on_c, 5, 68, 100
8, 48990, Note_on_c, 5, 68, 0
8, 48990, Note_on_c, 5, 61, 100
8, 49080, Note_on_c, 5, 61, 0
8, 49620, Note_on_c, 5, 61, 100
8, 49680, Note_on_c, 5, 61, 0
8, 49680, Note_on_c, 5, 61, 100
8, 49740, Note_on_c, 5, 61, 0
8, 49740, Note_on_c, 5, 64, 100
8, 49800, Note_on_c, 5, 64, 0
8, 49800, Note_on_c, 5, 61, 100
8, 49860, Note_on_c, 5, 61, 0
8, 49860, Note_on_c, 5, 61, 100
8, 49920, Note_on_c, 5, 61, 0
8, 49920, Note_on_c, 5, 56, 100
8, 49980, Note_on_c, 5, 56, 0
8, 50280, Note_on_c, 5, 64, 100
8, 50310, Note_on_c, 5, 64, 0
8, 50310, Note_on_c, 5, 64, 100
8, 50340, Note_on_c, 5, 64, 0
8, 50340, Note_on_c, 5, 64, 100
8, 50370, Note_on_c, 5, 64, 0
8, 50370, Note_on_c, 5, 64, 100
8, 50400, Note_on_c, 5, 64, 0
8, 50400, Note_on_c, 5, 64, 100
8, 50520, Note_on_c, 5, 64, 0
8, 50640, Note_on_c, 5, 68, 100
8, 50670, Note_on_c, 5, 68, 0
8, 50670, Note_on_c, 5, 68, 100
8, 50700, Note_on_c, 5, 68, 0
8, 50700, Note_on_c, 5, 68, 100
8, 50730, Note_on_c, 5, 68, 0
8, 50730, Note_on_c, 5, 66, 100
8, 50760, Note_on_c, 5, 66, 0
8, 50760, Note_on_c, 5, 68, 100
8, 50820, Note_on_c, 5, 68, 0
8, 50820, Note_on_c, 5, 66, 100
8, 50880, Note_on_c, 5, 66, 0
8, 50880, Note_on_c, 5, 68, 100
8, 50983, Pitch_bend_c, 5, 8320
8, 50984, Pitch_bend_c, 5, 7808
8, 50985, Pitch_bend_c, 5, 7168
8, 50986, Pitch_bend_c, 5, 6528
8, 50987, Pitch_bend_c, 5, 5888
8, 50988, Pitch_bend_c, 5, 5248
8, 50989, Pitch_bend_c, 5, 4608
8, 50990, Pitch_bend_c, 5, 3968
8, 50991, Pitch_bend_c, 5, 3328
8, 50992, Pitch_bend_c, 5, 2688
8, 50993, Pitch_bend_c, 5, 2048
8, 50994, Pitch_bend_c, 5, 1408
8, 50995, Pitch_bend_c, 5, 768
8, 50996, Pitch_bend_c, 5, 128
8, 51000, Note_on_c, 5, 68, 0
8, 51009, Pitch_bend_c, 5, 8192
8, 51540, Note_on_c, 5, 61, 100
8, 51600, Note_on_c, 5, 61, 0
8, 51600, Note_on_c, 5, 59, 100
8, 51780, Note_on_c, 5, 59, 0
8, 51780, Note_on_c, 5, 61, 100
8, 51900, Note_on_c, 5, 61, 0
8, 51900, Note_on_c, 5, 56, 100
8, 51960, Note_on_c, 5, 56, 0
8, 52740, Note_on_c, 5, 62, 100
8, 52800, Note_on_c, 5, 62, 0
8, 52800, Control_c, 5, 7, 127
8, 52800, Note_on_c, 5, 61, 100
8, 52818, Control_c, 5, 7, 126
8, 52837, Control_c, 5, 7, 125
8, 52856, Control_c, 5, 7, 124
8, 52860, Note_on_c, 5, 61, 0
8, 52860, Note_on_c, 5, 61, 100
8, 52875, Control_c, 5, 7, 123
8, 52894, Control_c, 5, 7, 122
8, 52913, Control_c, 5, 7, 121
8, 52932, Control_c, 5, 7, 120
8, 52951, Control_c, 5, 7, 119
8, 52970, Control_c, 5, 7, 118
8, 52980, Note_on_c, 5, 61, 0
8, 52980, Note_on_c, 5, 56, 100
8, 52988, Control_c, 5, 7, 117
8, 53007, Control_c, 5, 7, 116
8, 53026, Control_c, 5, 7, 115
8, 53040, Note_on_c, 5, 56, 0
8, 53045, Control_c, 5, 7, 114
8, 53064, Control_c, 5, 7, 113
8, 53083, Control_c, 5, 7, 112
8, 53102, Control_c, 5, 7, 111
8, 53121, Control_c, 5, 7, 110
8, 53140, Control_c, 5, 7, 109
8, 53158, Control_c, 5, 7, 108
8, 53177, Control_c, 5, 7, 107
8, 53196, Control_c, 5, 7, 106
8, 53215, Control_c, 5, 7, 105
8, 53234, Control_c, 5, 7, 104
8, 53253, Control_c, 5, 7, 103
8, 53272, Control_c, 5, 7, 102
8, 53291, Control_c, 5, 7, 101
8, 53310, Control_c, 5, 7, 100
8, 53328, Control_c, 5, 7, 99
8, 53347, Control_c, 5, 7, 98
8, 53366, Control_c, 5, 7, 97
8, 53385, Control_c, 5, 7, 96
8, 53404, Control_c, 5, 7, 95
8, 53423, Control_c, 5, 7, 94
8, 53442, Control_c, 5, 7, 93
8, 53461, Control_c, 5, 7, 92
8, 53480, Control_c, 5, 7, 91
8, 53498, Control_c, 5, 7, 90
8, 53517, Control_c, 5, 7, 89
8, 53536, Control_c, 5, 7, 88
8, 53555, Control_c, 5, 7, 87
8, 53574, Control_c, 5, 7, 86
8, 53593, Control_c, 5, 7, 85
8, 53612, Control_c, 5, 7, 84
8, 53631, Control_c, 5, 7, 83
8, 53650, Control_c, 5, 7, 82
8, 53668, Control_c, 5, 7, 81
8, 53687, Control_c, 5, 7, 80
8, 53706, Control_c, 5, 7, 79
8, 53725, Control_c, 5, 7, 78
8, 53744, Control_c, 5, 7, 77
8, 53763, Control_c, 5, 7, 76
8, 53782, Control_c, 5, 7, 75
8, 53801, Control_c, 5, 7, 74
8, 53820, Control_c, 5, 7, 73
8, 53838, Control_c, 5, 7, 72
8, 53857, Control_c, 5, 7, 71
8, 53876, Control_c, 5, 7, 70
8, 53895, Control_c, 5, 7, 69
8, 53914, Control_c, 5, 7, 68
8, 53933, Control_c, 5, 7, 67
8, 53952, Control_c, 5, 7, 66
8, 53971, Control_c, 5, 7, 65
8, 53990, Control_c, 5, 7, 64
8, 54008, Control_c, 5, 7, 63
8, 54027, Control_c, 5, 7, 62
8, 54046, Control_c, 5, 7, 61
8, 54065, Control_c, 5, 7, 60
8, 54084, Control_c, 5, 7, 59
8, 54103, Control_c, 5, 7, 58
8, 54122, Control_c, 5, 7, 57
8, 54141, Control_c, 5, 7, 56
8, 54160, Control_c, 5, 7, 55
8, 54178, Control_c, 5, 7, 54
8, 54197, Control_c, 5, 7, 53
8, 54216, Control_c, 5, 7, 52
8, 54235, Control_c, 5, 7, 51
8, 54240, Pitch_bend_c, 5, 128
8, 54240, Note_on_c, 5, 71, 100
8, 54241, Pitch_bend_c, 5, 256
8, 54242, Pitch_bend_c, 5, 512
8, 54243, Pitch_bend_c, 5, 768
8, 54244, Pitch_bend_c, 5, 1024
8, 54245, Pitch_bend_c, 5, 1280
8, 54246, Pitch_bend_c, 5, 1536
8, 54247, Pitch_bend_c, 5, 1792
8, 54248, Pitch_bend_c, 5, 2048
8, 54249, Pitch_bend_c, 5, 2304
8, 54250, Pitch_bend_c, 5, 2560
8, 54251, Pitch_bend_c, 5, 2816
8, 54252, Pitch_bend_c, 5, 2944
8, 54253, Pitch_bend_c, 5, 3200
8, 54254, Control_c, 5, 7, 50
8, 54254, Pitch_bend_c, 5, 3456
8, 54255, Pitch_bend_c, 5, 3712
8, 54256, Pitch_bend_c, 5, 3968
8, 54257, Pitch_bend_c, 5, 4224
8, 54258, Pitch_bend_c, 5, 4480
8, 54259, Pitch_bend_c, 5, 4736
8, 54260, Pitch_bend_c, 5, 4992
8, 54261, Pitch_bend_c, 5, 5248
8, 54262, Pitch_bend_c, 5, 5504
8, 54263, Pitch_bend_c, 5, 5632
8, 54264, Pitch_bend_c, 5, 5888
8, 54265, Pitch_bend_c, 5, 6144
8, 54266, Pitch_bend_c, 5, 6400
8, 54267, Pitch_bend_c, 5, 6656
8, 54268, Pitch_bend_c, 5, 6912
8, 54269, Pitch_bend_c, 5, 7168
8, 54270, Pitch_bend_c, 5, 7424
8, 54271, Pitch_bend_c, 5, 7680
8, 54272, Pitch_bend_c, 5, 7936
8, 54273, Control_c, 5, 7, 49
8, 54273, Pitch_bend_c, 5, 8192
8, 54292, Control_c, 5, 7, 48
8, 54311, Control_c, 5, 7, 47
8, 54330, Control_c, 5, 7, 46
8, 54348, Control_c, 5, 7, 45
8, 54360, Note_on_c, 5, 71, 0
8, 54360, Pitch_bend_c, 5, 128
8, 54360, Note_on_c, 5, 68, 100
8, 54361, Pitch_bend_c, 5, 384
8, 54362, Pitch_bend_c, 5, 768
8, 54363, Pitch_bend_c, 5, 1024
8, 54364, Pitch_bend_c, 5, 1408
8, 54365, Pitch_bend_c, 5, 1792
8, 54366, Pitch_bend_c, 5, 2048
8, 54367, Control_c, 5, 7, 44
8, 54367, Pitch_bend_c, 5, 2432
8, 54368, Pitch_bend_c, 5, 2816
8, 54369, Pitch_bend_c, 5, 3072
8, 54370, Pitch_bend_c, 5, 3456
8, 54371, Pitch_bend_c, 5, 3712
8, 54372, Pitch_bend_c, 5, 4096
8, 54373, Pitch_bend_c, 5, 4480
8, 54374, Pitch_bend_c, 5, 4736
8, 54375, Pitch_bend_c, 5, 5120
8, 54376, Pitch_bend_c, 5, 5504
8, 54377, Pitch_bend_c, 5, 5760
8, 54378, Pitch_bend_c, 5, 6144
8, 54379, Pitch_bend_c, 5, 6400
8, 54380, Pitch_bend_c, 5, 6784
8, 54381, Pitch_bend_c, 5, 7168
8, 54382, Pitch_bend_c, 5, 7424
8, 54383, Pitch_bend_c, 5, 7808
8, 54384, Pitch_bend_c, 5, 8192
8, 54386, Control_c, 5, 7, 43
8, 54405, Control_c, 5, 7, 42
8, 54424, Control_c, 5, 7, 41
8, 54443, Control_c, 5, 7, 40
8, 54462, Control_c, 5, 7, 39
8, 54480, Note_on_c, 5, 68, 0
8, 54480, Note_on_c, 5, 66, 100
8, 54481, Control_c, 5, 7, 38
8, 54500, Control_c, 5, 7, 37
8, 54510, Note_on_c, 5, 66, 0
8, 54510, Note_on_c, 5, 64, 100
8, 54518, Control_c, 5, 7, 36
8, 54537, Control_c, 5, 7, 35
8, 54540, Note_on_c, 5, 64, 0
8, 54540, Note_on_c, 5, 66, 100
8, 54556, Control_c, 5, 7, 34
8, 54570, Note_on_c, 5, 66, 0
8, 54570, Note_on_c, 5, 66, 100
8, 54575, Control_c, 5, 7, 33
8, 54594, Control_c, 5, 7, 32
8, 54600, Note_on_c, 5, 66, 0
8, 54613, Control_c, 5, 7, 31
8, 54630, Note_on_c, 5, 61, 100
8, 54632, Control_c, 5, 7, 30
8, 54651, Control_c, 5, 7, 29
8, 54670, Control_c, 5, 7, 28
8, 54688, Control_c, 5, 7, 27
8, 54690, Note_on_c, 5, 61, 0
8, 54690, Note_on_c, 5, 64, 100
8, 54707, Control_c, 5, 7, 26
8, 54726, Control_c, 5, 7, 25
8, 54745, Control_c, 5, 7, 24
8, 54764, Control_c, 5, 7, 23
8, 54783, Control_c, 5, 7, 22
8, 54802, Control_c, 5, 7, 21
8, 54821, Control_c, 5, 7, 20
8, 54840, Control_c, 5, 7, 19
8, 54842, Pitch_bend_c, 5, 8320
8, 54858, Control_c, 5, 7, 18
8, 54868, Pitch_bend_c, 5, 8192
8, 54870, Pitch_bend_c, 5, 8064
8, 54872, Pitch_bend_c, 5, 7936
8, 54874, Pitch_bend_c, 5, 7808
8, 54876, Pitch_bend_c, 5, 7552
8, 54877, Control_c, 5, 7, 17
8, 54878, Pitch_bend_c, 5, 7296
8, 54880, Pitch_bend_c, 5, 7040
8, 54882, Pitch_bend_c, 5, 6912
8, 54883, Pitch_bend_c, 5, 6784
8, 54884, Pitch_bend_c, 5, 6656
8, 54885, Pitch_bend_c, 5, 6528
8, 54886, Pitch_bend_c, 5, 6400
8, 54887, Pitch_bend_c, 5, 6272
8, 54889, Pitch_bend_c, 5, 6016
8, 54891, Pitch_bend_c, 5, 5888
8, 54892, Pitch_bend_c, 5, 5760
8, 54894, Pitch_bend_c, 5, 5504
8, 54896, Control_c, 5, 7, 16
8, 54896, Pitch_bend_c, 5, 5376
8, 54897, Pitch_bend_c, 5, 5248
8, 54898, Pitch_bend_c, 5, 4992
8, 54900, Pitch_bend_c, 5, 4864
8, 54901, Pitch_bend_c, 5, 4736
8, 54902, Pitch_bend_c, 5, 4608
8, 54903, Pitch_bend_c, 5, 4480
8, 54904, Pitch_bend_c, 5, 4352
8, 54906, Pitch_bend_c, 5, 4224
8, 54908, Pitch_bend_c, 5, 3968
8, 54910, Pitch_bend_c, 5, 3840
8, 54912, Pitch_bend_c, 5, 3712
8, 54913, Pitch_bend_c, 5, 3456
8, 54915, Control_c, 5, 7, 15
8, 54915, Pitch_bend_c, 5, 3328
8, 54917, Pitch_bend_c, 5, 3200
8, 54918, Pitch_bend_c, 5, 2944
8, 54920, Pitch_bend_c, 5, 2560
8, 54922, Pitch_bend_c, 5, 2432
8, 54923, Pitch_bend_c, 5, 2176
8, 54924, Pitch_bend_c, 5, 2048
8, 54926, Pitch_bend_c, 5, 1920
8, 54927, Pitch_bend_c, 5, 1664
8, 54930, Pitch_bend_c, 5, 1408
8, 54932, Pitch_bend_c, 5, 1152
8, 54934, Control_c, 5, 7, 14
8, 54934, Pitch_bend_c, 5, 1024
8, 54936, Pitch_bend_c, 5, 896
8, 54937, Pitch_bend_c, 5, 640
8, 54938, Pitch_bend_c, 5, 512
8, 54940, Pitch_bend_c, 5, 384
8, 54942, Pitch_bend_c, 5, 128
8, 54953, Control_c, 5, 7, 13
8, 54960, Note_on_c, 5, 64, 0
8, 54972, Control_c, 5, 7, 12
8, 54977, Pitch_bend_c, 5, 8192
8, 54991, Control_c, 5, 7, 11
8, 55010, Control_c, 5, 7, 10
8, 55028, Control_c, 5, 7, 9
8, 55047, Control_c, 5, 7, 8
8, 55066, Control_c, 5, 7, 7
8, 55085, Control_c, 5, 7, 6
8, 55104, Control_c, 5, 7, 5
8, 55123, Control_c, 5, 7, 4
8, 55142, Control_c, 5, 7, 3
8, 55161, Control_c, 5, 7, 2
8, 55180, Control_c, 5, 7, 1
8, 55199, Control_c, 5, 7, 0
8, 55199, End_track
9, 0, Start_track
9, 0, MIDI_port, 0
9, 0, Program_c, 6, 109
9, 0, Control_c, 6, 7, 100
9, 0, Control_c, 6, 10, 30
9, 4860, Note_on_c, 6, 61, 100
9, 4920, Note_on_c, 6, 61, 0
9, 4920, Note_on_c, 6, 59, 100
9, 4980, Note_on_c, 6, 59, 0
9, 4980, Note_on_c, 6, 61, 100
9, 5040, Note_on_c, 6, 61, 0
9, 5040, Note_on_c, 6, 59, 100
9, 5100, Note_on_c, 6, 59, 0
9, 5100, Note_on_c, 6, 61, 100
9, 5160, Note_on_c, 6, 61, 0
9, 5160, Note_on_c, 6, 59, 100
9, 5220, Note_on_c, 6, 59, 0
9, 5220, Note_on_c, 6, 61, 100
9, 5280, Note_on_c, 6, 61, 0
9, 5280, Note_on_c, 6, 64, 100
9, 5340, Note_on_c, 6, 64, 0
9, 5340, Note_on_c, 6, 59, 100
9, 5400, Note_on_c, 6, 59, 0
9, 5400, Pitch_bend_c, 6, 8192
9, 5400, Note_on_c, 6, 61, 100
9, 5404, Pitch_bend_c, 6, 8064
9, 5425, Pitch_bend_c, 6, 8192
9, 5426, Pitch_bend_c, 6, 8320
9, 5433, Pitch_bend_c, 6, 8448
9, 5442, Pitch_bend_c, 6, 8064
9, 5443, Pitch_bend_c, 6, 6784
9, 5444, Pitch_bend_c, 6, 5760
9, 5445, Pitch_bend_c, 6, 4736
9, 5446, Pitch_bend_c, 6, 3968
9, 5447, Pitch_bend_c, 6, 3200
9, 5448, Pitch_bend_c, 6, 2688
9, 5449, Pitch_bend_c, 6, 2176
9, 5450, Pitch_bend_c, 6, 1664
9, 5451, Pitch_bend_c, 6, 1152
9, 5452, Pitch_bend_c, 6, 896
9, 5453, Pitch_bend_c, 6, 384
9, 5454, Pitch_bend_c, 6, 128
9, 5460, Note_on_c, 6, 61, 0
9, 5460, Pitch_bend_c, 6, 8192
9, 5460, Note_on_c, 6, 56, 100
9, 5495, Pitch_bend_c, 6, 8192
9, 5501, Pitch_bend_c, 6, 7936
9, 5502, Pitch_bend_c, 6, 7680
9, 5503, Pitch_bend_c, 6, 6912
9, 5504, Pitch_bend_c, 6, 6656
9, 5505, Pitch_bend_c, 6, 5888
9, 5506, Pitch_bend_c, 6, 5376
9, 5507, Pitch_bend_c, 6, 4608
9, 5508, Pitch_bend_c, 6, 4352
9, 5509, Pitch_bend_c, 6, 3840
9, 5510, Pitch_bend_c, 6, 3328
9, 5511, Pitch_bend_c, 6, 2816
9, 5512, Pitch_bend_c, 6, 2304
9, 5513, Pitch_bend_c, 6, 1280
9, 5514, Pitch_bend_c, 6, 512
9, 5515, Pitch_bend_c, 6, 128
9, 5520, Note_on_c, 6, 56, 0
9, 5520, Pitch_bend_c, 6, 8192
9, 5820, Note_on_c, 6, 59, 100
9, 5880, Note_on_c, 6, 59, 0
9, 5880, Note_on_c, 6, 61, 100
9, 5940, Note_on_c, 6, 61, 0
9, 5940, Note_on_c, 6, 64, 100
9, 6000, Note_on_c, 6, 64, 0
9, 6000, Note_on_c, 6, 59, 100
9, 6060, Note_on_c, 6, 59, 0
9, 6060, Note_on_c, 6, 59, 100
9, 6120, Note_on_c, 6, 59, 0
9, 6120, Note_on_c, 6, 61, 100
9, 6180, Note_on_c, 6, 61, 0
9, 6180, Pitch_bend_c, 6, 8192
9, 6180, Note_on_c, 6, 59, 100
9, 6182, Pitch_bend_c, 6, 8320
9, 6185, Pitch_bend_c, 6, 8448
9, 6187, Pitch_bend_c, 6, 8576
9, 6190, Pitch_bend_c, 6, 8704
9, 6191, Pitch_bend_c, 6, 8832
9, 6193, Pitch_bend_c, 6, 8960
9, 6194, Pitch_bend_c, 6, 9088
9, 6197, Pitch_bend_c, 6, 9216
9, 6198, Pitch_bend_c, 6, 9344
9, 6200, Pitch_bend_c, 6, 9472
9, 6201, Pitch_bend_c, 6, 9600
9, 6204, Pitch_bend_c, 6, 9728
9, 6205, Pitch_bend_c, 6, 9856
9, 6207, Pitch_bend_c, 6, 9984
9, 6208, Pitch_bend_c, 6, 10112
9, 6210, Pitch_bend_c, 6, 10240
9, 6211, Pitch_bend_c, 6, 10368
9, 6214, Pitch_bend_c, 6, 10624
9, 6216, Pitch_bend_c, 6, 10752
9, 6217, Pitch_bend_c, 6, 10880
9, 6218, Pitch_bend_c, 6, 11136
9, 6219, Pitch_bend_c, 6, 11264
9, 6220, Pitch_bend_c, 6, 11904
9, 6221, Pitch_bend_c, 6, 14208
9, 6222, Pitch_bend_c, 6, 14720
9, 6223, Pitch_bend_c, 6, 14976
9, 6224, Pitch_bend_c, 6, 15232
9, 6225, Pitch_bend_c, 6, 15744
9, 6226, Pitch_bend_c, 6, 16000
9, 6227, Pitch_bend_c, 6, 16383
9, 6239, Pitch_bend_c, 6, 16256
9, 6240, Pitch_bend_c, 6, 15744
9, 6241, Pitch_bend_c, 6, 15488
9, 6242, Pitch_bend_c, 6, 14976
9, 6243, Pitch_bend_c, 6, 14720
9, 6244, Pitch_bend_c, 6, 14464
9, 6245, Pitch_bend_c, 6, 13952
9, 6246, Pitch_bend_c, 6, 13440
9, 6247, Pitch_bend_c, 6, 12928
9, 6248, Pitch_bend_c, 6, 11904
9, 6249, Pitch_bend_c, 6, 9600
9, 6250, Pitch_bend_c, 6, 8576
9, 6251, Pitch_bend_c, 6, 7552
9, 6252, Pitch_bend_c, 6, 6528
9, 6253, Pitch_bend_c, 6, 5504
9, 6254, Pitch_bend_c, 6, 3968
9, 6255, Pitch_bend_c, 6, 2944
9, 6256, Pitch_bend_c, 6, 2176
9, 6257, Pitch_bend_c, 6, 1408
9, 6258, Pitch_bend_c, 6, 384
9, 6259, Pitch_bend_c, 6, 128
9, 6360, Note_on_c, 6, 59, 0
9, 6393, Pitch_bend_c, 6, 8192
9, 6780, Note_on_c, 6, 59, 100
9, 6840, Note_on_c, 6, 59, 0
9, 6840, Note_on_c, 6, 59, 100
9, 6900, Note_on_c, 6, 59, 0
9, 6900, Note_on_c, 6, 61, 100
9, 6960, Note_on_c, 6, 61, 0
9, 6960, Note_on_c, 6, 59, 100
9, 7020, Note_on_c, 6, 59, 0
9, 7020, Note_on_c, 6, 64, 100
9, 7080, Note_on_c, 6, 64, 0
9, 7080, Note_on_c, 6, 59, 100
9, 7081, Pitch_bend_c, 6, 8320
9, 7103, Pitch_bend_c, 6, 8448
9, 7105, Pitch_bend_c, 6, 8576
9, 7108, Pitch_bend_c, 6, 8704
9, 7109, Pitch_bend_c, 6, 8832
9, 7111, Pitch_bend_c, 6, 9088
9, 7114, Pitch_bend_c, 6, 9344
9, 7117, Pitch_bend_c, 6, 9600
9, 7118, Pitch_bend_c, 6, 9856
9, 7120, Pitch_bend_c, 6, 10112
9, 7121, Pitch_bend_c, 6, 10624
9, 7122, Pitch_bend_c, 6, 11136
9, 7123, Pitch_bend_c, 6, 12672
9, 7124, Pitch_bend_c, 6, 13184
9, 7125, Pitch_bend_c, 6, 13696
9, 7126, Pitch_bend_c, 6, 13952
9, 7127, Pitch_bend_c, 6, 14464
9, 7128, Pitch_bend_c, 6, 14720
9, 7129, Pitch_bend_c, 6, 14976
9, 7130, Pitch_bend_c, 6, 15232
9, 7131, Pitch_bend_c, 6, 15744
9, 7132, Pitch_bend_c, 6, 16000
9, 7133, Pitch_bend_c, 6, 16256
9, 7134, Pitch_bend_c, 6, 16256
9, 7144, Pitch_bend_c, 6, 16383
9, 7161, Pitch_bend_c, 6, 16256
9, 7163, Pitch_bend_c, 6, 16000
9, 7164, Pitch_bend_c, 6, 15744
9, 7165, Pitch_bend_c, 6, 14720
9, 7167, Pitch_bend_c, 6, 12928
9, 7168, Pitch_bend_c, 6, 12544
9, 7169, Pitch_bend_c, 6, 12288
9, 7170, Pitch_bend_c, 6, 12032
9, 7171, Pitch_bend_c, 6, 11520
9, 7172, Pitch_bend_c, 6, 10752
9, 7173, Pitch_bend_c, 6, 9984
9, 7175, Pitch_bend_c, 6, 8960
9, 7176, Pitch_bend_c, 6, 8192
9, 7177, Pitch_bend_c, 6, 7936
9, 7179, Pitch_bend_c, 6, 7424
9, 7180, Pitch_bend_c, 6, 7168
9, 7181, Pitch_bend_c, 6, 6912
9, 7182, Pitch_bend_c, 6, 6656
9, 7183, Pitch_bend_c, 6, 6144
9, 7184, Pitch_bend_c, 6, 5888
9, 7185, Pitch_bend_c, 6, 5632
9, 7186, Pitch_bend_c, 6, 5120
9, 7187, Pitch_bend_c, 6, 4352
9, 7188, Pitch_bend_c, 6, 4096
9, 7189, Pitch_bend_c, 6, 3584
9, 7190, Pitch_bend_c, 6, 3072
9, 7191, Pitch_bend_c, 6, 2304
9, 7192, Pitch_bend_c, 6, 1792
9, 7193, Pitch_bend_c, 6, 1280
9, 7194, Pitch_bend_c, 6, 896
9, 7195, Pitch_bend_c, 6, 512
9, 7196, Pitch_bend_c, 6, 128
9, 7200, Note_on_c, 6, 59, 0
9, 7200, Pitch_bend_c, 6, 8192
9, 7200, Note_on_c, 6, 55, 100
9, 7320, Note_on_c, 6, 55, 0
9, 7320, Note_on_c, 6, 55, 100
9, 7380, Note_on_c, 6, 55, 0
9, 7740, Note_on_c, 6, 59, 100
9, 7800, Note_on_c, 6, 59, 0
9, 7800, Note_on_c, 6, 59, 100
9, 7920, Note_on_c, 6, 59, 0
9, 7920, Note_on_c, 6, 64, 100
9, 7980, Note_on_c, 6, 64, 0
9, 7980, Note_on_c, 6, 61, 100
9, 8040, Note_on_c, 6, 61, 0
9, 8040, Note_on_c, 6, 61, 100
9, 8100, Note_on_c, 6, 61, 0
9, 8100, Note_on_c, 6, 61, 100
9, 8101, Pitch_bend_c, 6, 128
9, 8104, Pitch_bend_c, 6, 384
9, 8108, Pitch_bend_c, 6, 640
9, 8110, Pitch_bend_c, 6, 896
9, 8111, Pitch_bend_c, 6, 1152
9, 8112, Pitch_bend_c, 6, 1280
9, 8113, Pitch_bend_c, 6, 1408
9, 8115, Pitch_bend_c, 6, 1664
9, 8116, Pitch_bend_c, 6, 1920
9, 8118, Pitch_bend_c, 6, 2176
9, 8119, Pitch_bend_c, 6, 2944
9, 8120, Pitch_bend_c, 6, 3072
9, 8122, Pitch_bend_c, 6, 3328
9, 8123, Pitch_bend_c, 6, 3584
9, 8124, Pitch_bend_c, 6, 3840
9, 8125, Pitch_bend_c, 6, 4096
9, 8126, Pitch_bend_c, 6, 4352
9, 8127, Pitch_bend_c, 6, 4608
9, 8128, Pitch_bend_c, 6, 4864
9, 8129, Pitch_bend_c, 6, 5120
9, 8130, Pitch_bend_c, 6, 5376
9, 8131, Pitch_bend_c, 6, 5632
9, 8132, Pitch_bend_c, 6, 6144
9, 8133, Pitch_bend_c, 6, 6400
9, 8134, Pitch_bend_c, 6, 6912
9, 8135, Pitch_bend_c, 6, 7424
9, 8136, Pitch_bend_c, 6, 7936
9, 8140, Pitch_bend_c, 6, 8192
9, 8160, Note_on_c, 6, 61, 0
9, 8160, Note_on_c, 6, 56, 100
9, 8220, Note_on_c, 6, 56, 0
9, 8220, Note_on_c, 6, 57, 100
9, 8400, Note_on_c, 6, 57, 0
9, 8700, Note_on_c, 6, 67, 100
9, 8760, Note_on_c, 6, 67, 0
9, 8760, Note_on_c, 6, 66, 100
9, 8820, Note_on_c, 6, 66, 0
9, 8820, Note_on_c, 6, 66, 100
9, 8880, Note_on_c, 6, 66, 0
9, 8880, Note_on_c, 6, 64, 100
9, 8940, Note_on_c, 6, 64, 0
9, 8940, Note_on_c, 6, 61, 100
9, 9000, Note_on_c, 6, 61, 0
9, 9060, Note_on_c, 6, 57, 100
9, 9120, Note_on_c, 6, 57, 0
9, 9120, Note_on_c, 6, 68, 100
9, 9180, Note_on_c, 6, 68, 0
9, 9180, Note_on_c, 6, 61, 100
9, 9240, Note_on_c, 6, 61, 0
9, 9240, Pitch_bend_c, 6, 16000
9, 9240, Note_on_c, 6, 62, 100
9, 9250, Pitch_bend_c, 6, 16128
9, 9251, Pitch_bend_c, 6, 16256
9, 9254, Pitch_bend_c, 6, 16383
9, 9332, Pitch_bend_c, 6, 16128
9, 9339, Pitch_bend_c, 6, 16256
9, 9345, Pitch_bend_c, 6, 16383
9, 9434, Pitch_bend_c, 6, 16256
9, 9439, Pitch_bend_c, 6, 16000
9, 9441, Pitch_bend_c, 6, 15872
9, 9442, Pitch_bend_c, 6, 15744
9, 9443, Pitch_bend_c, 6, 15616
9, 9444, Pitch_bend_c, 6, 15488
9, 9446, Pitch_bend_c, 6, 15232
9, 9448, Pitch_bend_c, 6, 14976
9, 9450, Pitch_bend_c, 6, 14720
9, 9451, Pitch_bend_c, 6, 14592
9, 9452, Pitch_bend_c, 6, 14464
9, 9453, Pitch_bend_c, 6, 14208
9, 9454, Pitch_bend_c, 6, 13952
9, 9455, Pitch_bend_c, 6, 13696
9, 9456, Pitch_bend_c, 6, 13440
9, 9457, Pitch_bend_c, 6, 13184
9, 9458, Pitch_bend_c, 6, 12928
9, 9459, Pitch_bend_c, 6, 12416
9, 9460, Pitch_bend_c, 6, 12288
9, 9461, Pitch_bend_c, 6, 12032
9, 9462, Pitch_bend_c, 6, 11264
9, 9463, Pitch_bend_c, 6, 10752
9, 9464, Pitch_bend_c, 6, 10496
9, 9465, Pitch_bend_c, 6, 10240
9, 9466, Pitch_bend_c, 6, 9728
9, 9467, Pitch_bend_c, 6, 8704
9, 9468, Pitch_bend_c, 6, 8192
9, 9469, Pitch_bend_c, 6, 6400
9, 9480, Note_on_c, 6, 62, 0
9, 9491, Pitch_bend_c, 6, 8192
9, 9660, Note_on_c, 6, 59, 100
9, 9720, Note_on_c, 6, 59, 0
9, 9720, Note_on_c, 6, 61, 100
9, 9840, Note_on_c, 6, 61, 0
9, 9840, Note_on_c, 6, 64, 100
9, 9900, Note_on_c, 6, 64, 0
9, 9900, Note_on_c, 6, 61, 100
9, 9960, Note_on_c, 6, 61, 0
9, 9960, Note_on_c, 6, 61, 100
9, 10080, Note_on_c, 6, 61, 0
9, 10620, Pitch_bend_c, 6, 4096
9, 10620, Note_on_c, 6, 67, 100
9, 10621, Pitch_bend_c, 6, 4224
9, 10623, Pitch_bend_c, 6, 4352
9, 10624, Pitch_bend_c, 6, 4480
9, 10627, Pitch_bend_c, 6, 4608
9, 10629, Pitch_bend_c, 6, 4736
9, 10632, Pitch_bend_c, 6, 4992
9, 10637, Pitch_bend_c, 6, 5248
9, 10639, Pitch_bend_c, 6, 5376
9, 10641, Pitch_bend_c, 6, 5504
9, 10643, Pitch_bend_c, 6, 5760
9, 10646, Pitch_bend_c, 6, 6016
9, 10649, Pitch_bend_c, 6, 6144
9, 10650, Pitch_bend_c, 6, 6272
9, 10651, Pitch_bend_c, 6, 6400
9, 10653, Pitch_bend_c, 6, 6528
9, 10655, Pitch_bend_c, 6, 6656
9, 10656, Pitch_bend_c, 6, 6784
9, 10657, Pitch_bend_c, 6, 6912
9, 10658, Pitch_bend_c, 6, 7040
9, 10660, Pitch_bend_c, 6, 7296
9, 10661, Pitch_bend_c, 6, 7680
9, 10662, Pitch_bend_c, 6, 7808
9, 10663, Pitch_bend_c, 6, 8064
9, 10666, Pitch_bend_c, 6, 8192
9, 10680, Note_on_c, 6, 67, 0
9, 10680, Note_on_c, 6, 66, 100
9, 10740, Note_on_c, 6, 66, 0
9, 10740, Note_on_c, 6, 64, 100
9, 10800, Note_on_c, 6, 64, 0
9, 10800, Note_on_c, 6, 66, 100
9, 10860, Note_on_c, 6, 66, 0
9, 10860, Note_on_c, 6, 64, 100
9, 10980, Note_on_c, 6, 64, 0
9, 10980, Note_on_c, 6, 68, 100
9, 11040, Note_on_c, 6, 68, 0
9, 11040, Note_on_c, 6, 61, 100
9, 11100, Note_on_c, 6, 61, 0
9, 11100, Note_on_c, 6, 61, 100
9, 11160, Note_on_c, 6, 61, 0
9, 11160, Note_on_c, 6, 64, 100
9, 11280, Note_on_c, 6, 64, 0
9, 11280, Note_on_c, 6, 57, 100
9, 11400, Note_on_c, 6, 57, 0
9, 11580, Note_on_c, 6, 59, 100
9, 11640, Note_on_c, 6, 59, 0
9, 11640, Note_on_c, 6, 61, 100
9, 11700, Note_on_c, 6, 61, 0
9, 11700, Note_on_c, 6, 61, 100
9, 11760, Note_on_c, 6, 61, 0
9, 11760, Note_on_c, 6, 64, 100
9, 11820, Note_on_c, 6, 64, 0
9, 11820, Note_on_c, 6, 61, 100
9, 11880, Note_on_c, 6, 61, 0
9, 11880, Note_on_c, 6, 61, 100
9, 11940, Note_on_c, 6, 61, 0
9, 11940, Note_on_c, 6, 61, 100
9, 11941, Pitch_bend_c, 6, 128
9, 11942, Pitch_bend_c, 6, 128
9, 11945, Pitch_bend_c, 6, 256
9, 11947, Pitch_bend_c, 6, 512
9, 11949, Pitch_bend_c, 6, 768
9, 11951, Pitch_bend_c, 6, 1024
9, 11953, Pitch_bend_c, 6, 1280
9, 11954, Pitch_bend_c, 6, 2048
9, 11955, Pitch_bend_c, 6, 2304
9, 11956, Pitch_bend_c, 6, 2432
9, 11957, Pitch_bend_c, 6, 2688
9, 11959, Pitch_bend_c, 6, 2944
9, 11960, Pitch_bend_c, 6, 3200
9, 11961, Pitch_bend_c, 6, 3456
9, 11963, Pitch_bend_c, 6, 3968
9, 11965, Pitch_bend_c, 6, 4224
9, 11967, Pitch_bend_c, 6, 4480
9, 11969, Pitch_bend_c, 6, 4736
9, 11970, Pitch_bend_c, 6, 4864
9, 11971, Pitch_bend_c, 6, 4992
9, 11973, Pitch_bend_c, 6, 5120
9, 11974, Pitch_bend_c, 6, 5248
9, 11975, Pitch_bend_c, 6, 5504
9, 11977, Pitch_bend_c, 6, 5760
9, 11979, Pitch_bend_c, 6, 6016
9, 11980, Pitch_bend_c, 6, 6144
9, 11981, Pitch_bend_c, 6, 7808
9, 11983, Pitch_bend_c, 6, 7936
9, 11984, Pitch_bend_c, 6, 8064
9, 11987, Pitch_bend_c, 6, 8192
9, 11988, Pitch_bend_c, 6, 7936
9, 11989, Pitch_bend_c, 6, 7424
9, 11991, Pitch_bend_c, 6, 8192
9, 12000, Note_on_c, 6, 61, 0
9, 12000, Note_on_c, 6, 57, 100
9, 12120, Note_on_c, 6, 57, 0
9, 12180, Note_on_c, 6, 64, 100
9, 12300, Note_on_c, 6, 64, 0
9, 12300, Note_on_c, 6, 59, 100
9, 12420, Note_on_c, 6, 59, 0
9, 12420, Note_on_c, 6, 61, 100
9, 12448, Pitch_bend_c, 6, 8192
9, 12469, Pitch_bend_c, 6, 7936
9, 12470, Pitch_bend_c, 6, 7424
9, 12471, Pitch_bend_c, 6, 6912
9, 12472, Pitch_bend_c, 6, 6144
9, 12473, Pitch_bend_c, 6, 5376
9, 12474, Pitch_bend_c, 6, 4352
9, 12475, Pitch_bend_c, 6, 3328
9, 12476, Pitch_bend_c, 6, 1280
9, 12477, Pitch_bend_c, 6, 128
9, 12480, Note_on_c, 6, 61, 0
9, 12502, Pitch_bend_c, 6, 8192
9, 16380, Pitch_bend_c, 6, 4224
9, 16380, Note_on_c, 6, 67, 100
9, 16386, Pitch_bend_c, 6, 4480
9, 16389, Pitch_bend_c, 6, 4608
9, 16391, Pitch_bend_c, 6, 4736
9, 16394, Pitch_bend_c, 6, 4864
9, 16395, Pitch_bend_c, 6, 4992
9, 16397, Pitch_bend_c, 6, 5120
9, 16398, Pitch_bend_c, 6, 5248
9, 16399, Pitch_bend_c, 6, 5376
9, 16401, Pitch_bend_c, 6, 5504
9, 16402, Pitch_bend_c, 6, 5760
9, 16405, Pitch_bend_c, 6, 6016
9, 16407, Pitch_bend_c, 6, 6272
9, 16410, Pitch_bend_c, 6, 6528
9, 16412, Pitch_bend_c, 6, 6656
9, 16413, Pitch_bend_c, 6, 6784
9, 16414, Pitch_bend_c, 6, 6912
9, 16415, Pitch_bend_c, 6, 7296
9, 16416, Pitch_bend_c, 6, 7424
9, 16417, Pitch_bend_c, 6, 7552
9, 16418, Pitch_bend_c, 6, 7808
9, 16419, Pitch_bend_c, 6, 7936
9, 16420, Pitch_bend_c, 6, 8064
9, 16421, Pitch_bend_c, 6, 8192
9, 16422, Pitch_bend_c, 6, 8320
9, 16425, Pitch_bend_c, 6, 8064
9, 16429, Pitch_bend_c, 6, 8192
9, 16430, Pitch_bend_c, 6, 8320
9, 16440, Note_on_c, 6, 67, 0
9, 16440, Note_on_c, 6, 66, 100
9, 16500, Note_on_c, 6, 66, 0
9, 16500, Note_on_c, 6, 64, 100
9, 16560, Note_on_c, 6, 64, 0
9, 16560, Note_on_c, 6, 66, 100
9, 16620, Note_on_c, 6, 66, 0
9, 16620, Note_on_c, 6, 66, 100
9, 16680, Note_on_c, 6, 66, 0
9, 16680, Note_on_c, 6, 64, 100
9, 16740, Note_on_c, 6, 64, 0
9, 16740, Note_on_c, 6, 67, 100
9, 16800, Note_on_c, 6, 67, 0
9, 16800, Note_on_c, 6, 59, 100
9, 16860, Note_on_c, 6, 59, 0
9, 16860, Note_on_c, 6, 68, 100
9, 16920, Note_on_c, 6, 68, 0
9, 17340, Note_on_c, 6, 59, 100
9, 17400, Note_on_c, 6, 59, 0
9, 17400, Note_on_c, 6, 61, 100
9, 17460, Note_on_c, 6, 61, 0
9, 17460, Note_on_c, 6, 61, 100
9, 17520, Note_on_c, 6, 61, 0
9, 17520, Note_on_c, 6, 64, 100
9, 17580, Note_on_c, 6, 64, 0
9, 17580, Note_on_c, 6, 61, 100
9, 17640, Note_on_c, 6, 61, 0
9, 17640, Note_on_c, 6, 61, 100
9, 17700, Note_on_c, 6, 61, 0
9, 17700, Note_on_c, 6, 57, 100
9, 17760, Note_on_c, 6, 57, 0
9, 18300, Note_on_c, 6, 59, 100
9, 18360, Note_on_c, 6, 59, 0
9, 18360, Note_on_c, 6, 59, 100
9, 18420, Note_on_c, 6, 59, 0
9, 18420, Note_on_c, 6, 61, 100
9, 18480, Note_on_c, 6, 61, 0
9, 18480, Note_on_c, 6, 59, 100
9, 18540, Note_on_c, 6, 59, 0
9, 18540, Note_on_c, 6, 61, 100
9, 18600, Note_on_c, 6, 61, 0
9, 18600, Note_on_c, 6, 61, 100
9, 18660, Note_on_c, 6, 61, 0
9, 18660, Note_on_c, 6, 64, 100
9, 18720, Note_on_c, 6, 64, 0
9, 18720, Note_on_c, 6, 66, 100
9, 18900, Note_on_c, 6, 66, 0
9, 19260, Pitch_bend_c, 6, 4352
9, 19260, Note_on_c, 6, 67, 100
9, 19272, Pitch_bend_c, 6, 4480
9, 19273, Pitch_bend_c, 6, 4608
9, 19275, Pitch_bend_c, 6, 4736
9, 19276, Pitch_bend_c, 6, 4864
9, 19278, Pitch_bend_c, 6, 4992
9, 19279, Pitch_bend_c, 6, 5120
9, 19281, Pitch_bend_c, 6, 5376
9, 19283, Pitch_bend_c, 6, 5632
9, 19285, Pitch_bend_c, 6, 5760
9, 19286, Pitch_bend_c, 6, 5888
9, 19287, Pitch_bend_c, 6, 6016
9, 19288, Pitch_bend_c, 6, 6144
9, 19289, Pitch_bend_c, 6, 6272
9, 19290, Pitch_bend_c, 6, 6400
9, 19292, Pitch_bend_c, 6, 6656
9, 19293, Pitch_bend_c, 6, 6784
9, 19294, Pitch_bend_c, 6, 6912
9, 19296, Pitch_bend_c, 6, 7040
9, 19297, Pitch_bend_c, 6, 7168
9, 19298, Pitch_bend_c, 6, 7296
9, 19299, Pitch_bend_c, 6, 7424
9, 19300, Pitch_bend_c, 6, 7552
9, 19301, Pitch_bend_c, 6, 7680
9, 19303, Pitch_bend_c, 6, 7936
9, 19305, Pitch_bend_c, 6, 8192
9, 19320, Note_on_c, 6, 67, 0
9, 19320, Note_on_c, 6, 66, 100
9, 19360, Note_on_c, 6, 66, 0
9, 19360, Note_on_c, 6, 64, 100
9, 19400, Note_on_c, 6, 64, 0
9, 19400, Note_on_c, 6, 66, 100
9, 19500, Note_on_c, 6, 66, 0
9, 19500, Note_on_c, 6, 61, 100
9, 19560, Note_on_c, 6, 61, 0
9, 19560, Note_on_c, 6, 61, 100
9, 19590, Note_on_c, 6, 61, 0
9, 19590, Note_on_c, 6, 61, 100
9, 19620, Note_on_c, 6, 61, 0
9, 19620, Note_on_c, 6, 64, 100
9, 19680, Note_on_c, 6, 64, 0
9, 19680, Note_on_c, 6, 54, 100
9, 19800, Note_on_c, 6, 54, 0
9, 20220, Note_on_c, 6, 68, 100
9, 20280, Note_on_c, 6, 68, 0
9, 20280, Note_on_c, 6, 66, 100
9, 20340, Note_on_c, 6, 66, 0
9, 20340, Note_on_c, 6, 64, 100
9, 20400, Note_on_c, 6, 64, 0
9, 20400, Note_on_c, 6, 66, 100
9, 20460, Note_on_c, 6, 66, 0
9, 20460, Note_on_c, 6, 61, 100
9, 20580, Note_on_c, 6, 61, 0
9, 20580, Note_on_c, 6, 64, 100
9, 20610, Note_on_c, 6, 64, 0
9, 20610, Note_on_c, 6, 61, 100
9, 20700, Note_on_c, 6, 61, 0
9, 20700, Note_on_c, 6, 61, 100
9, 20760, Note_on_c, 6, 61, 0
9, 20760, Note_on_c, 6, 66, 100
9, 20880, Note_on_c, 6, 66, 0
9, 21180, Note_on_c, 6, 59, 100
9, 21240, Note_on_c, 6, 59, 0
9, 21240, Note_on_c, 6, 61, 100
9, 21300, Note_on_c, 6, 61, 0
9, 21300, Note_on_c, 6, 61, 100
9, 21360, Note_on_c, 6, 61, 0
9, 21360, Note_on_c, 6, 64, 100
9, 21420, Note_on_c, 6, 64, 0
9, 21420, Note_on_c, 6, 61, 100
9, 21540, Note_on_c, 6, 61, 0
9, 21540, Note_on_c, 6, 61, 100
9, 21600, Note_on_c, 6, 61, 0
9, 21600, Note_on_c, 6, 55, 100
9, 21840, Note_on_c, 6, 55, 0
9, 22140, Note_on_c, 6, 61, 100
9, 22200, Note_on_c, 6, 61, 0
9, 22200, Note_on_c, 6, 59, 100
9, 22260, Note_on_c, 6, 59, 0
9, 22260, Note_on_c, 6, 61, 100
9, 22320, Note_on_c, 6, 61, 0
9, 22320, Note_on_c, 6, 59, 100
9, 22380, Note_on_c, 6, 59, 0
9, 22380, Note_on_c, 6, 61, 100
9, 22440, Note_on_c, 6, 61, 0
9, 22500, Note_on_c, 6, 64, 100
9, 22560, Note_on_c, 6, 64, 0
9, 22560, Note_on_c, 6, 59, 100
9, 22620, Note_on_c, 6, 59, 0
9, 22620, Note_on_c, 6, 57, 100
9, 22680, Note_on_c, 6, 57, 0
9, 22680, Note_on_c, 6, 57, 100
9, 22683, Pitch_bend_c, 6, 8064
9, 22740, Pitch_bend_c, 6, 7936
9, 22741, Pitch_bend_c, 6, 7808
9, 22746, Pitch_bend_c, 6, 7552
9, 22750, Pitch_bend_c, 6, 7424
9, 22753, Pitch_bend_c, 6, 7296
9, 22757, Pitch_bend_c, 6, 7168
9, 22770, Pitch_bend_c, 6, 7040
9, 22771, Pitch_bend_c, 6, 6784
9, 22773, Pitch_bend_c, 6, 6528
9, 22774, Pitch_bend_c, 6, 6272
9, 22775, Pitch_bend_c, 6, 6016
9, 22776, Pitch_bend_c, 6, 5760
9, 22777, Pitch_bend_c, 6, 5504
9, 22778, Pitch_bend_c, 6, 5248
9, 22779, Pitch_bend_c, 6, 4992
9, 22781, Pitch_bend_c, 6, 4864
9, 22782, Pitch_bend_c, 6, 4736
9, 22783, Pitch_bend_c, 6, 4224
9, 22784, Pitch_bend_c, 6, 3712
9, 22785, Pitch_bend_c, 6, 3456
9, 22787, Pitch_bend_c, 6, 2944
9, 22788, Pitch_bend_c, 6, 2816
9, 22789, Pitch_bend_c, 6, 2560
9, 22790, Pitch_bend_c, 6, 2176
9, 22791, Pitch_bend_c, 6, 2048
9, 22793, Pitch_bend_c, 6, 1920
9, 22794, Pitch_bend_c, 6, 1664
9, 22795, Pitch_bend_c, 6, 1408
9, 22796, Pitch_bend_c, 6, 1152
9, 22797, Pitch_bend_c, 6, 128
9, 22800, Note_on_c, 6, 57, 0
9, 22801, Pitch_bend_c, 6, 8192
9, 23100, Note_on_c, 6, 59, 100
9, 23160, Note_on_c, 6, 59, 0
9, 23160, Note_on_c, 6, 61, 100
9, 23220, Note_on_c, 6, 61, 0
9, 23220, Note_on_c, 6, 61, 100
9, 23280, Note_on_c, 6, 61, 0
9, 23280, Note_on_c, 6, 65, 100
9, 23340, Note_on_c, 6, 65, 0
9, 23340, Note_on_c, 6, 66, 100
9, 23400, Note_on_c, 6, 66, 0
9, 23400, Note_on_c, 6, 64, 100
9, 23460, Note_on_c, 6, 64, 0
9, 23460, Note_on_c, 6, 68, 100
9, 23520, Note_on_c, 6, 68, 0
9, 23520, Note_on_c, 6, 61, 100
9, 23550, Note_on_c, 6, 61, 0
9, 23760, Note_on_c, 6, 71, 100
9, 23880, Note_on_c, 6, 71, 0
9, 23880, Note_on_c, 6, 57, 100
9, 23910, Note_on_c, 6, 57, 0
9, 23910, Note_on_c, 6, 56, 100
9, 24000, Note_on_c, 6, 56, 0
9, 31440, Note_on_c, 6, 66, 100
9, 31441, Pitch_bend_c, 6, 16383
9, 31442, Pitch_bend_c, 6, 16000
9, 31460, Pitch_bend_c, 6, 16128
9, 31478, Pitch_bend_c, 6, 16000
9, 31481, Pitch_bend_c, 6, 15872
9, 31482, Pitch_bend_c, 6, 15744
9, 31483, Pitch_bend_c, 6, 15488
9, 31485, Pitch_bend_c, 6, 9600
9, 31486, Pitch_bend_c, 6, 8832
9, 31487, Pitch_bend_c, 6, 7552
9, 31488, Pitch_bend_c, 6, 6784
9, 31489, Pitch_bend_c, 6, 3712
9, 31490, Pitch_bend_c, 6, 3584
9, 31491, Pitch_bend_c, 6, 3328
9, 31492, Pitch_bend_c, 6, 3200
9, 31493, Pitch_bend_c, 6, 2944
9, 31494, Pitch_bend_c, 6, 2688
9, 31495, Pitch_bend_c, 6, 2432
9, 31496, Pitch_bend_c, 6, 2176
9, 31497, Pitch_bend_c, 6, 1920
9, 31498, Pitch_bend_c, 6, 1408
9, 31499, Pitch_bend_c, 6, 1024
9, 31500, Pitch_bend_c, 6, 768
9, 31515, Note_on_c, 6, 66, 0
9, 39300, Note_on_c, 6, 56, 100
9, 39360, Note_on_c, 6, 56, 0
9, 39360, Pitch_bend_c, 6, 128
9, 39360, Note_on_c, 6, 71, 100
9, 39369, Pitch_bend_c, 6, 256
9, 39372, Pitch_bend_c, 6, 512
9, 39374, Pitch_bend_c, 6, 640
9, 39376, Pitch_bend_c, 6, 768
9, 39382, Pitch_bend_c, 6, 1024
9, 39384, Pitch_bend_c, 6, 1152
9, 39386, Pitch_bend_c, 6, 1280
9, 39388, Pitch_bend_c, 6, 1408
9, 39389, Pitch_bend_c, 6, 1536
9, 39395, Pitch_bend_c, 6, 1792
9, 39401, Pitch_bend_c, 6, 2048
9, 39407, Pitch_bend_c, 6, 2304
9, 39409, Pitch_bend_c, 6, 2432
9, 39411, Pitch_bend_c, 6, 2688
9, 39413, Pitch_bend_c, 6, 2944
9, 39415, Pitch_bend_c, 6, 3712
9, 39417, Pitch_bend_c, 6, 4480
9, 39418, Pitch_bend_c, 6, 4736
9, 39419, Pitch_bend_c, 6, 5248
9, 39420, Pitch_bend_c, 6, 5632
9, 39421, Pitch_bend_c, 6, 5888
9, 39422, Pitch_bend_c, 6, 6400
9, 39423, Pitch_bend_c, 6, 6656
9, 39424, Pitch_bend_c, 6, 7168
9, 39425, Pitch_bend_c, 6, 7424
9, 39426, Pitch_bend_c, 6, 8192
9, 39479, Pitch_bend_c, 6, 128
9, 39480, Note_on_c, 6, 71, 0
9, 39480, Note_on_c, 6, 68, 100
9, 39486, Pitch_bend_c, 6, 384
9, 39489, Pitch_bend_c, 6, 640
9, 39491, Pitch_bend_c, 6, 768
9, 39492, Pitch_bend_c, 6, 896
9, 39494, Pitch_bend_c, 6, 1024
9, 39495, Pitch_bend_c, 6, 1152
9, 39496, Pitch_bend_c, 6, 1280
9, 39497, Pitch_bend_c, 6, 1408
9, 39499, Pitch_bend_c, 6, 1664
9, 39500, Pitch_bend_c, 6, 1792
9, 39501, Pitch_bend_c, 6, 1920
9, 39502, Pitch_bend_c, 6, 2176
9, 39503, Pitch_bend_c, 6, 2432
9, 39504, Pitch_bend_c, 6, 2560
9, 39506, Pitch_bend_c, 6, 2688
9, 39507, Pitch_bend_c, 6, 2944
9, 39508, Pitch_bend_c, 6, 3200
9, 39509, Pitch_bend_c, 6, 3456
9, 39510, Pitch_bend_c, 6, 3584
9, 39511, Pitch_bend_c, 6, 3712
9, 39512, Pitch_bend_c, 6, 3968
9, 39514, Pitch_bend_c, 6, 4480
9, 39516, Pitch_bend_c, 6, 4736
9, 39517, Pitch_bend_c, 6, 4992
9, 39518, Pitch_bend_c, 6, 5248
9, 39519, Pitch_bend_c, 6, 5376
9, 39520, Pitch_bend_c, 6, 5504
9, 39521, Pitch_bend_c, 6, 5760
9, 39522, Pitch_bend_c, 6, 6016
9, 39523, Pitch_bend_c, 6, 6528
9, 39524, Pitch_bend_c, 6, 6784
9, 39525, Pitch_bend_c, 6, 7040
9, 39526, Pitch_bend_c, 6, 7808
9, 39527, Pitch_bend_c, 6, 8064
9, 39528, Pitch_bend_c, 6, 8192
9, 39600, Note_on_c, 6, 68, 0
9, 39600, Note_on_c, 6, 66, 100
9, 39660, Note_on_c, 6, 66, 0
9, 39660, Note_on_c, 6, 64, 100
9, 39720, Note_on_c, 6, 64, 0
9, 39720, Note_on_c, 6, 66, 100
9, 39780, Note_on_c, 6, 66, 0
9, 39780, Note_on_c, 6, 66, 100
9, 39840, Note_on_c, 6, 66, 0
9, 39865, Note_on_c, 6, 61, 100
9, 39925, Note_on_c, 6, 61, 0
9, 39934, Note_on_c, 6, 64, 100
9, 40062, Pitch_bend_c, 6, 8064
9, 40066, Pitch_bend_c, 6, 7808
9, 40067, Pitch_bend_c, 6, 7296
9, 40068, Pitch_bend_c, 6, 6528
9, 40069, Pitch_bend_c, 6, 6272
9, 40070, Pitch_bend_c, 6, 5760
9, 40071, Pitch_bend_c, 6, 4480
9, 40072, Pitch_bend_c, 6, 2944
9, 40073, Pitch_bend_c, 6, 2176
9, 40074, Pitch_bend_c, 6, 896
9, 40075, Pitch_bend_c, 6, 128
9, 40084, Note_on_c, 6, 64, 0
9, 40100, Pitch_bend_c, 6, 8192
9, 40380, Note_on_c, 6, 59, 100
9, 40440, Note_on_c, 6, 59, 0
9, 40440, Note_on_c, 6, 61, 100
9, 40560, Note_on_c, 6, 61, 0
9, 40560, Note_on_c, 6, 64, 100
9, 40620, Note_on_c, 6, 64, 0
9, 40620, Note_on_c, 6, 61, 100
9, 40740, Note_on_c, 6, 61, 0
9, 40740, Note_on_c, 6, 61, 100
9, 40800, Note_on_c, 6, 61, 0
9, 40800, Note_on_c, 6, 56, 100
9, 40890, Note_on_c, 6, 56, 0
9, 41340, Note_on_c, 6, 61, 100
9, 41400, Note_on_c, 6, 61, 0
9, 41400, Note_on_c, 6, 59, 100
9, 41460, Note_on_c, 6, 59, 0
9, 41460, Note_on_c, 6, 61, 100
9, 41520, Note_on_c, 6, 61, 0
9, 41520, Note_on_c, 6, 59, 100
9, 41580, Note_on_c, 6, 59, 0
9, 41580, Note_on_c, 6, 61, 100
9, 41699, Pitch_bend_c, 6, 512
9, 41700, Note_on_c, 6, 61, 0
9, 41700, Pitch_bend_c, 6, 640
9, 41700, Note_on_c, 6, 64, 100
9, 41702, Pitch_bend_c, 6, 768
9, 41704, Pitch_bend_c, 6, 1024
9, 41705, Pitch_bend_c, 6, 1280
9, 41706, Pitch_bend_c, 6, 1408
9, 41708, Pitch_bend_c, 6, 1664
9, 41709, Pitch_bend_c, 6, 1792
9, 41710, Pitch_bend_c, 6, 2048
9, 41711, Pitch_bend_c, 6, 2816
9, 41712, Pitch_bend_c, 6, 3072
9, 41713, Pitch_bend_c, 6, 3840
9, 41714, Pitch_bend_c, 6, 4096
9, 41716, Pitch_bend_c, 6, 4352
9, 41717, Pitch_bend_c, 6, 5120
9, 41718, Pitch_bend_c, 6, 5888
9, 41719, Pitch_bend_c, 6, 6656
9, 41720, Pitch_bend_c, 6, 7296
9, 41721, Pitch_bend_c, 6, 7808
9, 41722, Pitch_bend_c, 6, 8064
9, 41724, Pitch_bend_c, 6, 7936
9, 41726, Pitch_bend_c, 6, 8192
9, 41760, Note_on_c, 6, 64, 0
9, 41760, Note_on_c, 6, 59, 100
9, 41820, Note_on_c, 6, 59, 0
9, 41820, Note_on_c, 6, 61, 100
9, 41880, Note_on_c, 6, 61, 0
9, 41880, Pitch_bend_c, 6, 16128
9, 41880, Note_on_c, 6, 54, 100
9, 41883, Pitch_bend_c, 6, 16000
9, 41884, Pitch_bend_c, 6, 15360
9, 41885, Pitch_bend_c, 6, 14336
9, 41886, Pitch_bend_c, 6, 13312
9, 41887, Pitch_bend_c, 6, 12800
9, 41888, Pitch_bend_c, 6, 11776
9, 41889, Pitch_bend_c, 6, 9984
9, 41890, Pitch_bend_c, 6, 9472
9, 41891, Pitch_bend_c, 6, 9216
9, 41892, Pitch_bend_c, 6, 8960
9, 41894, Pitch_bend_c, 6, 8832
9, 41896, Pitch_bend_c, 6, 8704
9, 41898, Pitch_bend_c, 6, 8448
9, 41901, Pitch_bend_c, 6, 8320
9, 41902, Pitch_bend_c, 6, 8192
9, 41989, Pitch_bend_c, 6, 7424
9, 41990, Pitch_bend_c, 6, 5120
9, 41991, Pitch_bend_c, 6, 4608
9, 41992, Pitch_bend_c, 6, 4096
9, 41993, Pitch_bend_c, 6, 3584
9, 41994, Pitch_bend_c, 6, 2304
9, 41995, Pitch_bend_c, 6, 1024
9, 41996, Pitch_bend_c, 6, 128
9, 42000, Note_on_c, 6, 54, 0
9, 42014, Pitch_bend_c, 6, 8192
9, 42300, Note_on_c, 6, 64, 100
9, 42360, Note_on_c, 6, 64, 0
9, 42360, Note_on_c, 6, 64, 100
9, 42480, Note_on_c, 6, 64, 0
9, 42480, Note_on_c, 6, 66, 100
9, 42540, Note_on_c, 6, 66, 0
9, 42540, Note_on_c, 6, 61, 100
9, 42660, Note_on_c, 6, 61, 0
9, 42660, Note_on_c, 6, 64, 100
9, 42817, Pitch_bend_c, 6, 8192
9, 42821, Pitch_bend_c, 6, 8064
9, 42823, Pitch_bend_c, 6, 7936
9, 42824, Pitch_bend_c, 6, 7808
9, 42825, Pitch_bend_c, 6, 7680
9, 42826, Pitch_bend_c, 6, 7296
9, 42827, Pitch_bend_c, 6, 7040
9, 42828, Pitch_bend_c, 6, 6528
9, 42829, Pitch_bend_c, 6, 6400
9, 42830, Pitch_bend_c, 6, 6016
9, 42832, Pitch_bend_c, 6, 5504
9, 42833, Pitch_bend_c, 6, 5248
9, 42834, Pitch_bend_c, 6, 4992
9, 42835, Pitch_bend_c, 6, 128
9, 42840, Note_on_c, 6, 64, 0
9, 42850, Pitch_bend_c, 6, 8192
9, 43140, Note_on_c, 6, 56, 100
9, 43200, Note_on_c, 6, 56, 0
9, 43200, Pitch_bend_c, 6, 128
9, 43200, Note_on_c, 6, 68, 100
9, 43201, Pitch_bend_c, 6, 384
9, 43202, Pitch_bend_c, 6, 768
9, 43203, Pitch_bend_c, 6, 1024
9, 43204, Pitch_bend_c, 6, 1408
9, 43205, Pitch_bend_c, 6, 1664
9, 43206, Pitch_bend_c, 6, 2048
9, 43207, Pitch_bend_c, 6, 2304
9, 43208, Pitch_bend_c, 6, 2688
9, 43209, Pitch_bend_c, 6, 2944
9, 43210, Pitch_bend_c, 6, 3328
9, 43211, Pitch_bend_c, 6, 3584
9, 43212, Pitch_bend_c, 6, 3968
9, 43213, Pitch_bend_c, 6, 4224
9, 43214, Pitch_bend_c, 6, 4608
9, 43215, Pitch_bend_c, 6, 4864
9, 43216, Pitch_bend_c, 6, 5248
9, 43217, Pitch_bend_c, 6, 5504
9, 43218, Pitch_bend_c, 6, 5888
9, 43219, Pitch_bend_c, 6, 6144
9, 43220, Pitch_bend_c, 6, 6528
9, 43221, Pitch_bend_c, 6, 6784
9, 43222, Pitch_bend_c, 6, 7168
9, 43223, Pitch_bend_c, 6, 7424
9, 43224, Pitch_bend_c, 6, 7808
9, 43225, Pitch_bend_c, 6, 8192
9, 43320, Note_on_c, 6, 68, 0
9, 43320, Pitch_bend_c, 6, 0
9, 43320, Note_on_c, 6, 68, 100
9, 43321, Pitch_bend_c, 6, 384
9, 43322, Pitch_bend_c, 6, 768
9, 43323, Pitch_bend_c, 6, 1152
9, 43324, Pitch_bend_c, 6, 1536
9, 43325, Pitch_bend_c, 6, 1920
9, 43326, Pitch_bend_c, 6, 2304
9, 43327, Pitch_bend_c, 6, 2688
9, 43328, Pitch_bend_c, 6, 3072
9, 43329, Pitch_bend_c, 6, 3456
9, 43330, Pitch_bend_c, 6, 3840
9, 43331, Pitch_bend_c, 6, 4224
9, 43332, Pitch_bend_c, 6, 4608
9, 43333, Pitch_bend_c, 6, 4992
9, 43334, Pitch_bend_c, 6, 5376
9, 43335, Pitch_bend_c, 6, 5760
9, 43336, Pitch_bend_c, 6, 6144
9, 43337, Pitch_bend_c, 6, 6528
9, 43338, Pitch_bend_c, 6, 6912
9, 43339, Pitch_bend_c, 6, 7296
9, 43340, Pitch_bend_c, 6, 7680
9, 43341, Pitch_bend_c, 6, 8192
9, 43440, Note_on_c, 6, 68, 0
9, 43440, Note_on_c, 6, 66, 100
9, 43500, Note_on_c, 6, 66, 0
9, 43500, Note_on_c, 6, 64, 100
9, 43560, Note_on_c, 6, 64, 0
9, 43560, Note_on_c, 6, 66, 100
9, 43680, Note_on_c, 6, 66, 0
9, 43680, Note_on_c, 6, 66, 100
9, 43740, Note_on_c, 6, 66, 0
9, 43740, Note_on_c, 6, 61, 100
9, 43770, Note_on_c, 6, 61, 0
9, 43770, Note_on_c, 6, 64, 100
9, 43860, Note_on_c, 6, 64, 0
9, 44220, Note_on_c, 6, 59, 100
9, 44280, Note_on_c, 6, 59, 0
9, 44280, Note_on_c, 6, 64, 100
9, 44340, Note_on_c, 6, 64, 0
9, 44340, Note_on_c, 6, 64, 100
9, 44400, Note_on_c, 6, 64, 0
9, 44460, Note_on_c, 6, 64, 100
9, 44520, Note_on_c, 6, 64, 0
9, 44520, Note_on_c, 6, 61, 100
9, 44580, Note_on_c, 6, 61, 0
9, 44580, Note_on_c, 6, 64, 100
9, 44746, Pitch_bend_c, 6, 8320
9, 44747, Pitch_bend_c, 6, 7680
9, 44748, Pitch_bend_c, 6, 7040
9, 44749, Pitch_bend_c, 6, 6272
9, 44750, Pitch_bend_c, 6, 5632
9, 44751, Pitch_bend_c, 6, 4992
9, 44752, Pitch_bend_c, 6, 4224
9, 44753, Pitch_bend_c, 6, 3584
9, 44754, Pitch_bend_c, 6, 2944
9, 44755, Pitch_bend_c, 6, 2176
9, 44756, Pitch_bend_c, 6, 1536
9, 44757, Pitch_bend_c, 6, 896
9, 44758, Pitch_bend_c, 6, 128
9, 44760, Note_on_c, 6, 64, 0
9, 44776, Pitch_bend_c, 6, 8192
9, 45180, Note_on_c, 6, 64, 100
9, 45240, Note_on_c, 6, 64, 0
9, 45240, Note_on_c, 6, 63, 100
9, 45300, Note_on_c, 6, 63, 0
9, 45300, Note_on_c, 6, 64, 100
9, 45360, Note_on_c, 6, 64, 0
9, 45360, Note_on_c, 6, 64, 100
9, 45420, Note_on_c, 6, 64, 0
9, 45420, Note_on_c, 6, 64, 100
9, 45480, Note_on_c, 6, 64, 0
9, 45480, Note_on_c, 6, 59, 100
9, 45540, Note_on_c, 6, 59, 0
9, 45540, Note_on_c, 6, 59, 100
9, 45570, Note_on_c, 6, 59, 0
9, 45570, Note_on_c, 6, 61, 100
9, 45660, Note_on_c, 6, 61, 0
9, 45660, Note_on_c, 6, 57, 100
9, 45720, Note_on_c, 6, 57, 0
9, 45960, Note_on_c, 6, 61, 100
9, 46020, Note_on_c, 6, 61, 0
9, 46020, Note_on_c, 6, 61, 100
9, 46079, Pitch_bend_c, 6, 128
9, 46080, Note_on_c, 6, 61, 0
9, 46080, Note_on_c, 6, 69, 100
9, 46091, Pitch_bend_c, 6, 256
9, 46130, Pitch_bend_c, 6, 384
9, 46131, Pitch_bend_c, 6, 512
9, 46133, Pitch_bend_c, 6, 640
9, 46135, Pitch_bend_c, 6, 768
9, 46137, Pitch_bend_c, 6, 1024
9, 46139, Pitch_bend_c, 6, 1280
9, 46140, Pitch_bend_c, 6, 2048
9, 46141, Pitch_bend_c, 6, 2304
9, 46142, Pitch_bend_c, 6, 2560
9, 46143, Pitch_bend_c, 6, 3328
9, 46144, Pitch_bend_c, 6, 4224
9, 46145, Pitch_bend_c, 6, 6784
9, 46146, Pitch_bend_c, 6, 7296
9, 46147, Pitch_bend_c, 6, 7808
9, 46153, Pitch_bend_c, 6, 8064
9, 46155, Pitch_bend_c, 6, 8192
9, 46200, Note_on_c, 6, 69, 0
9, 46260, Note_on_c, 6, 68, 100
9, 46320, Note_on_c, 6, 68, 0
9, 46320, Note_on_c, 6, 66, 100
9, 46380, Note_on_c, 6, 66, 0
9, 46380, Note_on_c, 6, 64, 100
9, 46440, Note_on_c, 6, 64, 0
9, 46440, Note_on_c, 6, 68, 100
9, 46544, Pitch_bend_c, 6, 8192
9, 46545, Pitch_bend_c, 6, 7808
9, 46546, Pitch_bend_c, 6, 7296
9, 46547, Pitch_bend_c, 6, 6784
9, 46548, Pitch_bend_c, 6, 6400
9, 46549, Pitch_bend_c, 6, 5888
9, 46550, Pitch_bend_c, 6, 5376
9, 46551, Pitch_bend_c, 6, 4992
9, 46552, Pitch_bend_c, 6, 4480
9, 46553, Pitch_bend_c, 6, 3968
9, 46554, Pitch_bend_c, 6, 3456
9, 46555, Pitch_bend_c, 6, 3072
9, 46556, Pitch_bend_c, 6, 2560
9, 46557, Pitch_bend_c, 6, 2048
9, 46558, Pitch_bend_c, 6, 1664
9, 46559, Pitch_bend_c, 6, 1152
9, 46560, Note_on_c, 6, 68, 0
9, 46560, Pitch_bend_c, 6, 640
9, 46561, Pitch_bend_c, 6, 128
9, 46576, Pitch_bend_c, 6, 8192
9, 46800, Pitch_bend_c, 6, 128
9, 46800, Note_on_c, 6, 69, 100
9, 46802, Pitch_bend_c, 6, 384
9, 46804, Pitch_bend_c, 6, 640
9, 46806, Pitch_bend_c, 6, 768
9, 46807, Pitch_bend_c, 6, 896
9, 46809, Pitch_bend_c, 6, 1152
9, 46810, Pitch_bend_c, 6, 1408
9, 46812, Pitch_bend_c, 6, 1664
9, 46814, Pitch_bend_c, 6, 1920
9, 46815, Pitch_bend_c, 6, 2176
9, 46816, Pitch_bend_c, 6, 2688
9, 46817, Pitch_bend_c, 6, 3456
9, 46818, Pitch_bend_c, 6, 7552
9, 46819, Pitch_bend_c, 6, 8064
9, 46900, Pitch_bend_c, 6, 7936
9, 46901, Pitch_bend_c, 6, 7808
9, 46902, Pitch_bend_c, 6, 7552
9, 46903, Pitch_bend_c, 6, 7296
9, 46904, Pitch_bend_c, 6, 7040
9, 46905, Pitch_bend_c, 6, 6528
9, 46906, Pitch_bend_c, 6, 6272
9, 46907, Pitch_bend_c, 6, 6016
9, 46908, Pitch_bend_c, 6, 5504
9, 46909, Pitch_bend_c, 6, 4992
9, 46910, Pitch_bend_c, 6, 3712
9, 46911, Pitch_bend_c, 6, 2688
9, 46912, Pitch_bend_c, 6, 1920
9, 46913, Pitch_bend_c, 6, 896
9, 46914, Pitch_bend_c, 6, 384
9, 46915, Pitch_bend_c, 6, 128
9, 46920, Note_on_c, 6, 69, 0
9, 46920, Note_on_c, 6, 69, 70
9, 46921, Pitch_bend_c, 6, 8192
9, 46939, Pitch_bend_c, 6, 8064
9, 46995, Pitch_bend_c, 6, 7936
9, 46996, Pitch_bend_c, 6, 7808
9, 46997, Pitch_bend_c, 6, 7552
9, 46998, Pitch_bend_c, 6, 7296
9, 46999, Pitch_bend_c, 6, 6784
9, 47000, Pitch_bend_c, 6, 6528
9, 47001, Pitch_bend_c, 6, 6272
9, 47002, Pitch_bend_c, 6, 6144
9, 47003, Pitch_bend_c, 6, 6016
9, 47004, Pitch_bend_c, 6, 5760
9, 47005, Pitch_bend_c, 6, 5504
9, 47006, Pitch_bend_c, 6, 5248
9, 47007, Pitch_bend_c, 6, 5120
9, 47008, Pitch_bend_c, 6, 4864
9, 47009, Pitch_bend_c, 6, 4736
9, 47010, Pitch_bend_c, 6, 4480
9, 47011, Pitch_bend_c, 6, 4224
9, 47013, Pitch_bend_c, 6, 3968
9, 47014, Pitch_bend_c, 6, 3712
9, 47015, Pitch_bend_c, 6, 3584
9, 47016, Pitch_bend_c, 6, 3456
9, 47017, Pitch_bend_c, 6, 3200
9, 47018, Pitch_bend_c, 6, 2944
9, 47019, Pitch_bend_c, 6, 2816
9, 47020, Pitch_bend_c, 6, 2688
9, 47021, Pitch_bend_c, 6, 2432
9, 47022, Pitch_bend_c, 6, 2176
9, 47025, Pitch_bend_c, 6, 1920
9, 47027, Pitch_bend_c, 6, 1664
9, 47028, Pitch_bend_c, 6, 1408
9, 47029, Pitch_bend_c, 6, 1280
9, 47030, Pitch_bend_c, 6, 1152
9, 47031, Pitch_bend_c, 6, 896
9, 47032, Pitch_bend_c, 6, 768
9, 47033, Pitch_bend_c, 6, 640
9, 47034, Pitch_bend_c, 6, 384
9, 47035, Pitch_bend_c, 6, 256
9, 47037, Pitch_bend_c, 6, 128
9, 47040, Note_on_c, 6, 69, 0
9, 47058, Pitch_bend_c, 6, 8192
9, 48660, Note_on_c, 6, 68, 100
9, 48690, Note_on_c, 6, 68, 0
9, 48690, Note_on_c, 6, 66, 100
9, 48720, Note_on_c, 6, 66, 0
9, 48720, Note_on_c, 6, 68, 100
9, 48780, Note_on_c, 6, 68, 0
9, 48780, Note_on_c, 6, 66, 100
9, 48810, Note_on_c, 6, 66, 0
9, 48810, Note_on_c, 6, 68, 100
9, 48900, Note_on_c, 6, 68, 0
9, 48900, Note_on_c, 6, 68, 100
9, 48990, Note_on_c, 6, 68, 0
9, 48990, Note_on_c, 6, 61, 100
9, 49080, Note_on_c, 6, 61, 0
9, 49620, Note_on_c, 6, 61, 100
9, 49680, Note_on_c, 6, 61, 0
9, 49680, Note_on_c, 6, 61, 100
9, 49740, Note_on_c, 6, 61, 0
9, 49740, Note_on_c, 6, 64, 100
9, 49800, Note_on_c, 6, 64, 0
9, 49800, Note_on_c, 6, 61, 100
9, 49860, Note_on_c, 6, 61, 0
9, 49860, Note_on_c, 6, 61, 100
9, 49920, Note_on_c, 6, 61, 0
9, 49920, Note_on_c, 6, 56, 100
9, 49980, Note_on_c, 6, 56, 0
9, 50280, Note_on_c, 6, 64, 100
9, 50310, Note_on_c, 6, 64, 0
9, 50310, Note_on_c, 6, 64, 100
9, 50340, Note_on_c, 6, 64, 0
9, 50340, Note_on_c, 6, 64, 100
9, 50370, Note_on_c, 6, 64, 0
9, 50370, Note_on_c, 6, 64, 100
9, 50400, Note_on_c, 6, 64, 0
9, 50400, Note_on_c, 6, 64, 100
9, 50520, Note_on_c, 6, 64, 0
9, 50640, Note_on_c, 6, 68, 100
9, 50670, Note_on_c, 6, 68, 0
9, 50670, Note_on_c, 6, 68, 100
9, 50700, Note_on_c, 6, 68, 0
9, 50700, Note_on_c, 6, 68, 100
9, 50730, Note_on_c, 6, 68, 0
9, 50730, Note_on_c, 6, 66, 100
9, 50760, Note_on_c, 6, 66, 0
9, 50760, Note_on_c, 6, 68, 100
9, 50820, Note_on_c, 6, 68, 0
9, 50820, Note_on_c, 6, 66, 100
9, 50880, Note_on_c, 6, 66, 0
9, 50880, Note_on_c, 6, 68, 100
9, 50983, Pitch_bend_c, 6, 8320
9, 50984, Pitch_bend_c, 6, 7808
9, 50985, Pitch_bend_c, 6, 7168
9, 50986, Pitch_bend_c, 6, 6528
9, 50987, Pitch_bend_c, 6, 5888
9, 50988, Pitch_bend_c, 6, 5248
9, 50989, Pitch_bend_c, 6, 4608
9, 50990, Pitch_bend_c, 6, 3968
9, 50991, Pitch_bend_c, 6, 3328
9, 50992, Pitch_bend_c, 6, 2688
9, 50993, Pitch_bend_c, 6, 2048
9, 50994, Pitch_bend_c, 6, 1408
9, 50995, Pitch_bend_c, 6, 768
9, 50996, Pitch_bend_c, 6, 128
9, 51000, Note_on_c, 6, 68, 0
9, 51009, Pitch_bend_c, 6, 8192
9, 51540, Note_on_c, 6, 61, 100
9, 51600, Note_on_c, 6, 61, 0
9, 51600, Note_on_c, 6, 59, 100
9, 51780, Note_on_c, 6, 59, 0
9, 51780, Note_on_c, 6, 61, 100
9, 51900, Note_on_c, 6, 61, 0
9, 51900, Note_on_c, 6, 56, 100
9, 51960, Note_on_c, 6, 56, 0
9, 52740, Note_on_c, 6, 62, 100
9, 52800, Note_on_c, 6, 62, 0
9, 52800, Control_c, 6, 7, 115
9, 52800, Note_on_c, 6, 61, 100
9, 52820, Control_c, 6, 7, 114
9, 52841, Control_c, 6, 7, 113
9, 52860, Note_on_c, 6, 61, 0
9, 52860, Note_on_c, 6, 61, 100
9, 52862, Control_c, 6, 7, 112
9, 52883, Control_c, 6, 7, 111
9, 52904, Control_c, 6, 7, 110
9, 52925, Control_c, 6, 7, 109
9, 52946, Control_c, 6, 7, 108
9, 52966, Control_c, 6, 7, 107
9, 52980, Note_on_c, 6, 61, 0
9, 52980, Note_on_c, 6, 56, 100
9, 52987, Control_c, 6, 7, 106
9, 53008, Control_c, 6, 7, 105
9, 53029, Control_c, 6, 7, 104
9, 53040, Note_on_c, 6, 56, 0
9, 53050, Control_c, 6, 7, 103
9, 53071, Control_c, 6, 7, 102
9, 53092, Control_c, 6, 7, 101
9, 53112, Control_c, 6, 7, 100
9, 53133, Control_c, 6, 7, 99
9, 53154, Control_c, 6, 7, 98
9, 53175, Control_c, 6, 7, 97
9, 53196, Control_c, 6, 7, 96
9, 53217, Control_c, 6, 7, 95
9, 53238, Control_c, 6, 7, 94
9, 53258, Control_c, 6, 7, 93
9, 53279, Control_c, 6, 7, 92
9, 53300, Control_c, 6, 7, 91
9, 53321, Control_c, 6, 7, 90
9, 53342, Control_c, 6, 7, 89
9, 53363, Control_c, 6, 7, 88
9, 53384, Control_c, 6, 7, 87
9, 53404, Control_c, 6, 7, 86
9, 53425, Control_c, 6, 7, 85
9, 53446, Control_c, 6, 7, 84
9, 53467, Control_c, 6, 7, 83
9, 53488, Control_c, 6, 7, 82
9, 53509, Control_c, 6, 7, 81
9, 53530, Control_c, 6, 7, 80
9, 53550, Control_c, 6, 7, 79
9, 53571, Control_c, 6, 7, 78
9, 53592, Control_c, 6, 7, 77
9, 53613, Control_c, 6, 7, 76
9, 53634, Control_c, 6, 7, 75
9, 53655, Control_c, 6, 7, 74
9, 53676, Control_c, 6, 7, 73
9, 53697, Control_c, 6, 7, 72
9, 53717, Control_c, 6, 7, 71
9, 53738, Control_c, 6, 7, 70
9, 53759, Control_c, 6, 7, 69
9, 53780, Control_c, 6, 7, 68
9, 53801, Control_c, 6, 7, 67
9, 53822, Control_c, 6, 7, 66
9, 53843, Control_c, 6, 7, 65
9, 53863, Control_c, 6, 7, 64
9, 53884, Control_c, 6, 7, 63
9, 53905, Control_c, 6, 7, 62
9, 53926, Control_c, 6, 7, 61
9, 53947, Control_c, 6, 7, 60
9, 53968, Control_c, 6, 7, 59
9, 53989, Control_c, 6, 7, 58
9, 54009, Control_c, 6, 7, 57
9, 54030, Control_c, 6, 7, 56
9, 54051, Control_c, 6, 7, 55
9, 54072, Control_c, 6, 7, 54
9, 54093, Control_c, 6, 7, 53
9, 54114, Control_c, 6, 7, 52
9, 54135, Control_c, 6, 7, 51
9, 54155, Control_c, 6, 7, 50
9, 54176, Control_c, 6, 7, 49
9, 54197, Control_c, 6, 7, 48
9, 54218, Control_c, 6, 7, 47
9, 54239, Control_c, 6, 7, 46
9, 54240, Pitch_bend_c, 6, 128
9, 54240, Note_on_c, 6, 71, 100
9, 54241, Pitch_bend_c, 6, 256
9, 54242, Pitch_bend_c, 6, 512
9, 54243, Pitch_bend_c, 6, 768
9, 54244, Pitch_bend_c, 6, 1024
9, 54245, Pitch_bend_c, 6, 1280
9, 54246, Pitch_bend_c, 6, 1536
9, 54247, Pitch_bend_c, 6, 1792
9, 54248, Pitch_bend_c, 6, 2048
9, 54249, Pitch_bend_c, 6, 2304
9, 54250, Pitch_bend_c, 6, 2560
9, 54251, Pitch_bend_c, 6, 2816
9, 54252, Pitch_bend_c, 6, 2944
9, 54253, Pitch_bend_c, 6, 3200
9, 54254, Pitch_bend_c, 6, 3456
9, 54255, Pitch_bend_c, 6, 3712
9, 54256, Pitch_bend_c, 6, 3968
9, 54257, Pitch_bend_c, 6, 4224
9, 54258, Pitch_bend_c, 6, 4480
9, 54259, Pitch_bend_c, 6, 4736
9, 54260, Control_c, 6, 7, 45
9, 54260, Pitch_bend_c, 6, 4992
9, 54261, Pitch_bend_c, 6, 5248
9, 54262, Pitch_bend_c, 6, 5504
9, 54263, Pitch_bend_c, 6, 5632
9, 54264, Pitch_bend_c, 6, 5888
9, 54265, Pitch_bend_c, 6, 6144
9, 54266, Pitch_bend_c, 6, 6400
9, 54267, Pitch_bend_c, 6, 6656
9, 54268, Pitch_bend_c, 6, 6912
9, 54269, Pitch_bend_c, 6, 7168
9, 54270, Pitch_bend_c, 6, 7424
9, 54271, Pitch_bend_c, 6, 7680
9, 54272, Pitch_bend_c, 6, 7936
9, 54273, Pitch_bend_c, 6, 8192
9, 54281, Control_c, 6, 7, 44
9, 54301, Control_c, 6, 7, 43
9, 54322, Control_c, 6, 7, 42
9, 54343, Control_c, 6, 7, 41
9, 54360, Note_on_c, 6, 71, 0
9, 54360, Pitch_bend_c, 6, 128
9, 54360, Note_on_c, 6, 68, 100
9, 54361, Pitch_bend_c, 6, 384
9, 54362, Pitch_bend_c, 6, 768
9, 54363, Pitch_bend_c, 6, 1024
9, 54364, Control_c, 6, 7, 40
9, 54364, Pitch_bend_c, 6, 1408
9, 54365, Pitch_bend_c, 6, 1792
9, 54366, Pitch_bend_c, 6, 2048
9, 54367, Pitch_bend_c, 6, 2432
9, 54368, Pitch_bend_c, 6, 2816
9, 54369, Pitch_bend_c, 6, 3072
9, 54370, Pitch_bend_c, 6, 3456
9, 54371, Pitch_bend_c, 6, 3712
9, 54372, Pitch_bend_c, 6, 4096
9, 54373, Pitch_bend_c, 6, 4480
9, 54374, Pitch_bend_c, 6, 4736
9, 54375, Pitch_bend_c, 6, 5120
9, 54376, Pitch_bend_c, 6, 5504
9, 54377, Pitch_bend_c, 6, 5760
9, 54378, Pitch_bend_c, 6, 6144
9, 54379, Pitch_bend_c, 6, 6400
9, 54380, Pitch_bend_c, 6, 6784
9, 54381, Pitch_bend_c, 6, 7168
9, 54382, Pitch_bend_c, 6, 7424
9, 54383, Pitch_bend_c, 6, 7808
9, 54384, Pitch_bend_c, 6, 8192
9, 54385, Control_c, 6, 7, 39
9, 54406, Control_c, 6, 7, 38
9, 54427, Control_c, 6, 7, 37
9, 54448, Control_c, 6, 7, 36
9, 54468, Control_c, 6, 7, 35
9, 54480, Note_on_c, 6, 68, 0
9, 54480, Note_on_c, 6, 66, 100
9, 54489, Control_c, 6, 7, 34
9, 54510, Note_on_c, 6, 66, 0
9, 54510, Control_c, 6, 7, 33
9, 54510, Note_on_c, 6, 64, 100
9, 54531, Control_c, 6, 7, 32
9, 54540, Note_on_c, 6, 64, 0
9, 54540, Note_on_c, 6, 66, 100
9, 54552, Control_c, 6, 7, 31
9, 54570, Note_on_c, 6, 66, 0
9, 54570, Note_on_c, 6, 66, 100
9, 54573, Control_c, 6, 7, 30
9, 54594, Control_c, 6, 7, 29
9, 54600, Note_on_c, 6, 66, 0
9, 54614, Control_c, 6, 7, 28
9, 54630, Note_on_c, 6, 61, 100
9, 54635, Control_c, 6, 7, 27
9, 54656, Control_c, 6, 7, 26
9, 54677, Control_c, 6, 7, 25
9, 54690, Note_on_c, 6, 61, 0
9, 54690, Note_on_c, 6, 64, 100
9, 54698, Control_c, 6, 7, 24
9, 54719, Control_c, 6, 7, 23
9, 54740, Control_c, 6, 7, 22
9, 54760, Control_c, 6, 7, 21
9, 54781, Control_c, 6, 7, 20
9, 54802, Control_c, 6, 7, 19
9, 54823, Control_c, 6, 7, 18
9, 54842, Pitch_bend_c, 6, 8320
9, 54844, Control_c, 6, 7, 17
9, 54865, Control_c, 6, 7, 16
9, 54868, Pitch_bend_c, 6, 8192
9, 54870, Pitch_bend_c, 6, 8064
9, 54872, Pitch_bend_c, 6, 7936
9, 54874, Pitch_bend_c, 6, 7808
9, 54876, Pitch_bend_c, 6, 7552
9, 54878, Pitch_bend_c, 6, 7296
9, 54880, Pitch_bend_c, 6, 7040
9, 54882, Pitch_bend_c, 6, 6912
9, 54883, Pitch_bend_c, 6, 6784
9, 54884, Pitch_bend_c, 6, 6656
9, 54885, Pitch_bend_c, 6, 6528
9, 54886, Control_c, 6, 7, 15
9, 54886, Pitch_bend_c, 6, 6400
9, 54887, Pitch_bend_c, 6, 6272
9, 54889, Pitch_bend_c, 6, 6016
9, 54891, Pitch_bend_c, 6, 5888
9, 54892, Pitch_bend_c, 6, 5760
9, 54894, Pitch_bend_c, 6, 5504
9, 54896, Pitch_bend_c, 6, 5376
9, 54897, Pitch_bend_c, 6, 5248
9, 54898, Pitch_bend_c, 6, 4992
9, 54900, Pitch_bend_c, 6, 4864
9, 54901, Pitch_bend_c, 6, 4736
9, 54902, Pitch_bend_c, 6, 4608
9, 54903, Pitch_bend_c, 6, 4480
9, 54904, Pitch_bend_c, 6, 4352
9, 54906, Control_c, 6, 7, 14
9, 54906, Pitch_bend_c, 6, 4224
9, 54908, Pitch_bend_c, 6, 3968
9, 54910, Pitch_bend_c, 6, 3840
9, 54912, Pitch_bend_c, 6, 3712
9, 54913, Pitch_bend_c, 6, 3456
9, 54915, Pitch_bend_c, 6, 3328
9, 54917, Pitch_bend_c, 6, 3200
9, 54918, Pitch_bend_c, 6, 2944
9, 54920, Pitch_bend_c, 6, 2560
9, 54922, Pitch_bend_c, 6, 2432
9, 54923, Pitch_bend_c, 6, 2176
9, 54924, Pitch_bend_c, 6, 2048
9, 54926, Pitch_bend_c, 6, 1920
9, 54927, Control_c, 6, 7, 13
9, 54927, Pitch_bend_c, 6, 1664
9, 54930, Pitch_bend_c, 6, 1408
9, 54932, Pitch_bend_c, 6, 1152
9, 54934, Pitch_bend_c, 6, 1024
9, 54936, Pitch_bend_c, 6, 896
9, 54937, Pitch_bend_c, 6, 640
9, 54938, Pitch_bend_c, 6, 512
9, 54940, Pitch_bend_c, 6, 384
9, 54942, Pitch_bend_c, 6, 128
9, 54948, Control_c, 6, 7, 12
9, 54960, Note_on_c, 6, 64, 0
9, 54969, Control_c, 6, 7, 11
9, 54977, Pitch_bend_c, 6, 8192
9, 54990, Control_c, 6, 7, 10
9, 55011, Control_c, 6, 7, 9
9, 55032, Control_c, 6, 7, 8
9, 55052, Control_c, 6, 7, 7
9, 55073, Control_c, 6, 7, 6
9, 55094, Control_c, 6, 7, 5
9, 55115, Control_c, 6, 7, 4
9, 55136, Control_c, 6, 7, 3
9, 55157, Control_c, 6, 7, 2
9, 55178, Control_c, 6, 7, 1
9, 55199, Control_c, 6, 7, 0
9, 55199, End_track
10, 0, Start_track
10, 0, MIDI_port, 0
10, 0, Title_t, "All Along the Watchtower"
10, 0, End_track
11, 0, Start_track
11, 0, MIDI_port, 0
11, 0, Title_t, "Jimi Hendrix"
11, 0, End_track
12, 0, Start_track
12, 0, MIDI_port, 0
12, 0, Title_t, "Path B Guy @ AOL.COM"
12, 0, End_track
0, 0, End_of_file
