0, 0, Header, 1, 17, 120
1, 0, Start_track
1, 0, Key_signature, 1, "major"
1, 0, SMPTE_offset, 96, 0, 0, 0, 0
1, 0, Tempo, 869565
1, 0, Time_signature, 6, 3, 24, 8
1, 2160, Time_signature, 3, 3, 24, 8
1, 2340, Time_signature, 6, 3, 24, 8
1, 19620, Time_signature, 3, 3, 24, 8
1, 19800, Time_signature, 6, 3, 24, 8
1, 25200, Time_signature, 3, 3, 24, 8
1, 25380, Time_signature, 6, 3, 24, 8
1, 41220, Time_signature, 3, 3, 24, 8
1, 41400, Time_signature, 6, 3, 24, 8
1, 49680, Time_signature, 11, 4, 24, 8
1, 50010, Time_signature, 3, 3, 24, 8
1, 50190, Time_signature, 6, 3, 24, 8
1, 51270, Time_signature, 11, 4, 24, 8
1, 51600, Time_signature, 3, 3, 24, 8
1, 51780, Time_signature, 6, 3, 24, 8
1, 52860, Time_signature, 11, 4, 24, 8
1, 53190, Time_signature, 3, 3, 24, 8
1, 53370, Time_signature, 6, 3, 24, 8
1, 53370, End_track
2, 0, Start_track
2, 0, MIDI_port, 0
2, 0, Title_t, "Voice"
2, 0, Control_c, 0, 7, 99
2, 0, Program_c, 0, 88
2, 8581, Note_on_c, 0, 64, 127
2, 8641, Note_on_c, 0, 64, 0
2, 8641, Note_on_c, 0, 64, 127
2, 8731, Note_on_c, 0, 64, 0
2, 8731, Note_on_c, 0, 64, 127
2, 8761, Note_on_c, 0, 64, 0
2, 8761, Note_on_c, 0, 64, 127
2, 8791, Note_on_c, 0, 64, 0
2, 8791, Note_on_c, 0, 64, 127
2, 8821, Note_on_c, 0, 64, 0
2, 8821, Note_on_c, 0, 66, 127
2, 8851, Note_on_c, 0, 66, 0
2, 8851, Note_on_c, 0, 64, 127
2, 8881, Note_on_c, 0, 64, 0
2, 8881, Note_on_c, 0, 64, 127
2, 9181, Note_on_c, 0, 64, 0
2, 9301, Note_on_c, 0, 62, 127
2, 9331, Note_on_c, 0, 62, 0
2, 9331, Note_on_c, 0, 64, 127
2, 9361, Note_on_c, 0, 64, 0
2, 9361, Note_on_c, 0, 64, 127
2, 9421, Note_on_c, 0, 64, 0
2, 9421, Note_on_c, 0, 64, 127
2, 9481, Note_on_c, 0, 64, 0
2, 9481, Note_on_c, 0, 64, 127
2, 9511, Note_on_c, 0, 64, 0
2, 9511, Note_on_c, 0, 62, 127
2, 9541, Note_on_c, 0, 62, 0
2, 9541, Note_on_c, 0, 62, 127
2, 9601, Note_on_c, 0, 62, 0
2, 9601, Note_on_c, 0, 62, 127
2, 9631, Note_on_c, 0, 62, 0
2, 9631, Note_on_c, 0, 62, 127
2, 9661, Note_on_c, 0, 62, 0
2, 9661, Note_on_c, 0, 64, 127
2, 9901, Note_on_c, 0, 64, 0
2, 10051, Note_on_c, 0, 66, 127
2, 10081, Note_on_c, 0, 66, 0
2, 10081, Note_on_c, 0, 67, 127
2, 10111, Note_on_c, 0, 67, 0
2, 10111, Note_on_c, 0, 67, 127
2, 10171, Note_on_c, 0, 67, 0
2, 10171, Note_on_c, 0, 67, 127
2, 10231, Note_on_c, 0, 67, 0
2, 10231, Note_on_c, 0, 62, 127
2, 10261, Note_on_c, 0, 62, 0
2, 10261, Note_on_c, 0, 62, 127
2, 10321, Note_on_c, 0, 62, 0
2, 10321, Note_on_c, 0, 62, 127
2, 10351, Note_on_c, 0, 62, 0
2, 10351, Note_on_c, 0, 62, 127
2, 10381, Note_on_c, 0, 62, 0
2, 10381, Note_on_c, 0, 64, 127
2, 10621, Note_on_c, 0, 64, 0
2, 10741, Note_on_c, 0, 67, 127
2, 10801, Note_on_c, 0, 67, 0
2, 10801, Note_on_c, 0, 66, 127
2, 10861, Note_on_c, 0, 66, 0
2, 10861, Note_on_c, 0, 66, 127
2, 10891, Note_on_c, 0, 66, 0
2, 10891, Note_on_c, 0, 66, 127
2, 10921, Note_on_c, 0, 66, 0
2, 10921, Note_on_c, 0, 67, 127
2, 10981, Note_on_c, 0, 67, 0
2, 10981, Note_on_c, 0, 66, 127
2, 11011, Note_on_c, 0, 66, 0
2, 11011, Note_on_c, 0, 64, 127
2, 11341, Note_on_c, 0, 64, 0
2, 11816, Note_on_c, 0, 62, 75
2, 11821, Note_on_c, 0, 62, 0
2, 11821, Note_on_c, 0, 64, 127
2, 11851, Note_on_c, 0, 64, 0
2, 11851, Note_on_c, 0, 64, 127
2, 11881, Note_on_c, 0, 64, 0
2, 11881, Note_on_c, 0, 64, 127
2, 11941, Note_on_c, 0, 64, 0
2, 11941, Note_on_c, 0, 64, 127
2, 11971, Note_on_c, 0, 64, 0
2, 11971, Note_on_c, 0, 64, 127
2, 12061, Note_on_c, 0, 64, 0
2, 12061, Note_on_c, 0, 66, 127
2, 12121, Note_on_c, 0, 66, 0
2, 12121, Note_on_c, 0, 67, 127
2, 12181, Note_on_c, 0, 67, 0
2, 12181, Note_on_c, 0, 62, 127
2, 12211, Note_on_c, 0, 62, 0
2, 12211, Note_on_c, 0, 64, 127
2, 12421, Note_on_c, 0, 64, 0
2, 12541, Note_on_c, 0, 62, 127
2, 12571, Note_on_c, 0, 62, 0
2, 12571, Note_on_c, 0, 64, 127
2, 12601, Note_on_c, 0, 64, 0
2, 12601, Note_on_c, 0, 64, 127
2, 12691, Note_on_c, 0, 64, 0
2, 12691, Note_on_c, 0, 64, 127
2, 12721, Note_on_c, 0, 64, 0
2, 12721, Note_on_c, 0, 64, 127
2, 12751, Note_on_c, 0, 64, 0
2, 12751, Note_on_c, 0, 59, 127
2, 12781, Note_on_c, 0, 59, 0
2, 12781, Note_on_c, 0, 62, 127
2, 12841, Note_on_c, 0, 62, 0
2, 12841, Note_on_c, 0, 62, 127
2, 12871, Note_on_c, 0, 62, 0
2, 12871, Note_on_c, 0, 64, 127
2, 13141, Note_on_c, 0, 64, 0
2, 13201, Note_on_c, 0, 69, 127
2, 13231, Note_on_c, 0, 69, 0
2, 13231, Note_on_c, 0, 71, 127
2, 13261, Note_on_c, 0, 71, 0
2, 13261, Note_on_c, 0, 69, 127
2, 13316, Note_on_c, 0, 69, 0
2, 13316, Note_on_c, 0, 67, 75
2, 13321, Note_on_c, 0, 67, 0
2, 13321, Note_on_c, 0, 66, 127
2, 13381, Note_on_c, 0, 66, 0
2, 13381, Note_on_c, 0, 66, 127
2, 13441, Note_on_c, 0, 66, 0
2, 13441, Note_on_c, 0, 64, 127
2, 13501, Note_on_c, 0, 64, 0
2, 13501, Note_on_c, 0, 66, 127
2, 13561, Note_on_c, 0, 66, 0
2, 13561, Note_on_c, 0, 67, 127
2, 13861, Note_on_c, 0, 67, 0
2, 13981, Note_on_c, 0, 71, 75
2, 13981, Note_on_c, 0, 67, 127
2, 14041, Note_on_c, 0, 71, 0
2, 14041, Note_on_c, 0, 67, 0
2, 14041, Note_on_c, 0, 69, 75
2, 14041, Note_on_c, 0, 66, 127
2, 14101, Note_on_c, 0, 69, 0
2, 14101, Note_on_c, 0, 66, 0
2, 14101, Note_on_c, 0, 69, 75
2, 14101, Note_on_c, 0, 66, 127
2, 14131, Note_on_c, 0, 69, 0
2, 14131, Note_on_c, 0, 66, 0
2, 14131, Note_on_c, 0, 69, 75
2, 14131, Note_on_c, 0, 66, 127
2, 14161, Note_on_c, 0, 69, 0
2, 14161, Note_on_c, 0, 66, 0
2, 14161, Note_on_c, 0, 71, 75
2, 14161, Note_on_c, 0, 67, 127
2, 14221, Note_on_c, 0, 71, 0
2, 14221, Note_on_c, 0, 67, 0
2, 14221, Note_on_c, 0, 69, 75
2, 14221, Note_on_c, 0, 66, 127
2, 14251, Note_on_c, 0, 69, 0
2, 14251, Note_on_c, 0, 66, 0
2, 14251, Note_on_c, 0, 67, 75
2, 14251, Note_on_c, 0, 64, 127
2, 14581, Note_on_c, 0, 67, 0
2, 14581, Note_on_c, 0, 64, 0
2, 15001, Note_on_c, 0, 67, 75
2, 15001, Note_on_c, 0, 64, 127
2, 15061, Note_on_c, 0, 67, 0
2, 15061, Note_on_c, 0, 64, 0
2, 15061, Note_on_c, 0, 67, 75
2, 15061, Note_on_c, 0, 64, 127
2, 15121, Note_on_c, 0, 67, 0
2, 15121, Note_on_c, 0, 64, 0
2, 15121, Note_on_c, 0, 67, 75
2, 15121, Note_on_c, 0, 64, 127
2, 15181, Note_on_c, 0, 67, 0
2, 15181, Note_on_c, 0, 64, 0
2, 15211, Note_on_c, 0, 67, 75
2, 15211, Note_on_c, 0, 64, 127
2, 15241, Note_on_c, 0, 67, 0
2, 15241, Note_on_c, 0, 64, 0
2, 15241, Note_on_c, 0, 67, 75
2, 15241, Note_on_c, 0, 64, 127
2, 15301, Note_on_c, 0, 67, 0
2, 15301, Note_on_c, 0, 64, 0
2, 15301, Note_on_c, 0, 69, 75
2, 15301, Note_on_c, 0, 66, 127
2, 15361, Note_on_c, 0, 69, 0
2, 15361, Note_on_c, 0, 66, 0
2, 15361, Note_on_c, 0, 71, 75
2, 15361, Note_on_c, 0, 67, 127
2, 15391, Note_on_c, 0, 71, 0
2, 15391, Note_on_c, 0, 67, 0
2, 15391, Note_on_c, 0, 67, 75
2, 15391, Note_on_c, 0, 64, 127
2, 15421, Note_on_c, 0, 67, 0
2, 15421, Note_on_c, 0, 64, 0
2, 15421, Note_on_c, 0, 67, 75
2, 15421, Note_on_c, 0, 64, 127
2, 15661, Note_on_c, 0, 67, 0
2, 15661, Note_on_c, 0, 64, 0
2, 15781, Note_on_c, 0, 76, 75
2, 15781, Note_on_c, 0, 71, 127
2, 15811, Note_on_c, 0, 76, 0
2, 15811, Note_on_c, 0, 71, 0
2, 15811, Note_on_c, 0, 71, 75
2, 15811, Note_on_c, 0, 67, 127
2, 15841, Note_on_c, 0, 71, 0
2, 15841, Note_on_c, 0, 67, 0
2, 15841, Note_on_c, 0, 71, 75
2, 15841, Note_on_c, 0, 67, 127
2, 15871, Note_on_c, 0, 71, 0
2, 15871, Note_on_c, 0, 67, 0
2, 15871, Note_on_c, 0, 72, 75
2, 15871, Note_on_c, 0, 69, 127
2, 15901, Note_on_c, 0, 72, 0
2, 15901, Note_on_c, 0, 69, 0
2, 15901, Note_on_c, 0, 72, 75
2, 15901, Note_on_c, 0, 69, 127
2, 15931, Note_on_c, 0, 72, 0
2, 15931, Note_on_c, 0, 69, 0
2, 15931, Note_on_c, 0, 69, 75
2, 15931, Note_on_c, 0, 64, 127
2, 16021, Note_on_c, 0, 69, 0
2, 16021, Note_on_c, 0, 64, 0
2, 16021, Note_on_c, 0, 69, 75
2, 16021, Note_on_c, 0, 66, 127
2, 16081, Note_on_c, 0, 69, 0
2, 16081, Note_on_c, 0, 66, 0
2, 16081, Note_on_c, 0, 71, 75
2, 16081, Note_on_c, 0, 67, 127
2, 16141, Note_on_c, 0, 71, 0
2, 16141, Note_on_c, 0, 67, 0
2, 16141, Note_on_c, 0, 71, 75
2, 16141, Note_on_c, 0, 67, 127
2, 16231, Note_on_c, 0, 71, 0
2, 16231, Note_on_c, 0, 67, 0
2, 16231, Note_on_c, 0, 72, 75
2, 16381, Note_on_c, 0, 72, 0
2, 16501, Note_on_c, 0, 69, 75
2, 16501, Note_on_c, 0, 66, 127
2, 16531, Note_on_c, 0, 69, 0
2, 16531, Note_on_c, 0, 66, 0
2, 16531, Note_on_c, 0, 71, 75
2, 16531, Note_on_c, 0, 67, 127
2, 16561, Note_on_c, 0, 71, 0
2, 16561, Note_on_c, 0, 67, 0
2, 16561, Note_on_c, 0, 69, 75
2, 16561, Note_on_c, 0, 66, 127
2, 16591, Note_on_c, 0, 69, 0
2, 16591, Note_on_c, 0, 66, 0
2, 16591, Note_on_c, 0, 71, 75
2, 16591, Note_on_c, 0, 67, 127
2, 16651, Note_on_c, 0, 71, 0
2, 16651, Note_on_c, 0, 67, 0
2, 16651, Note_on_c, 0, 69, 75
2, 16651, Note_on_c, 0, 66, 127
2, 16711, Note_on_c, 0, 69, 0
2, 16711, Note_on_c, 0, 66, 0
2, 16711, Note_on_c, 0, 67, 75
2, 16711, Note_on_c, 0, 64, 127
2, 16741, Note_on_c, 0, 67, 0
2, 16741, Note_on_c, 0, 64, 0
2, 16741, Note_on_c, 0, 69, 75
2, 16741, Note_on_c, 0, 66, 127
2, 16801, Note_on_c, 0, 69, 0
2, 16801, Note_on_c, 0, 66, 0
2, 16801, Note_on_c, 0, 71, 75
2, 16801, Note_on_c, 0, 67, 127
2, 16861, Note_on_c, 0, 71, 0
2, 16861, Note_on_c, 0, 67, 0
2, 16861, Note_on_c, 0, 67, 75
2, 16861, Note_on_c, 0, 64, 127
2, 17101, Note_on_c, 0, 67, 0
2, 17101, Note_on_c, 0, 64, 0
2, 17221, Note_on_c, 0, 71, 75
2, 17221, Note_on_c, 0, 67, 127
2, 17281, Note_on_c, 0, 71, 0
2, 17281, Note_on_c, 0, 67, 0
2, 17281, Note_on_c, 0, 69, 75
2, 17281, Note_on_c, 0, 66, 127
2, 17341, Note_on_c, 0, 69, 0
2, 17341, Note_on_c, 0, 66, 0
2, 17341, Note_on_c, 0, 69, 75
2, 17341, Note_on_c, 0, 66, 127
2, 17371, Note_on_c, 0, 69, 0
2, 17371, Note_on_c, 0, 66, 0
2, 17371, Note_on_c, 0, 69, 75
2, 17371, Note_on_c, 0, 66, 127
2, 17461, Note_on_c, 0, 69, 0
2, 17461, Note_on_c, 0, 66, 0
2, 17461, Note_on_c, 0, 69, 75
2, 17461, Note_on_c, 0, 66, 127
2, 17491, Note_on_c, 0, 69, 0
2, 17491, Note_on_c, 0, 66, 0
2, 17491, Note_on_c, 0, 69, 75
2, 17491, Note_on_c, 0, 66, 127
2, 17521, Note_on_c, 0, 69, 0
2, 17521, Note_on_c, 0, 66, 0
2, 17521, Note_on_c, 0, 71, 75
2, 17521, Note_on_c, 0, 67, 127
2, 17821, Note_on_c, 0, 71, 0
2, 17821, Note_on_c, 0, 67, 0
2, 18301, Note_on_c, 0, 69, 75
2, 18301, Note_on_c, 0, 78, 127
2, 18331, Note_on_c, 0, 69, 0
2, 18331, Note_on_c, 0, 78, 0
2, 18331, Note_on_c, 0, 69, 75
2, 18331, Note_on_c, 0, 78, 127
2, 18356, Note_on_c, 0, 78, 0
2, 18356, Note_on_c, 0, 69, 75
2, 18356, Note_on_c, 0, 78, 75
2, 18361, Note_on_c, 0, 69, 0
2, 18361, Note_on_c, 0, 69, 0
2, 18361, Note_on_c, 0, 71, 75
2, 18361, Note_on_c, 0, 79, 127
2, 18421, Note_on_c, 0, 78, 0
2, 18421, Note_on_c, 0, 71, 0
2, 18421, Note_on_c, 0, 79, 0
2, 18421, Note_on_c, 0, 69, 75
2, 18421, Note_on_c, 0, 78, 127
2, 18451, Note_on_c, 0, 69, 0
2, 18451, Note_on_c, 0, 78, 0
2, 18451, Note_on_c, 0, 67, 75
2, 18451, Note_on_c, 0, 76, 127
2, 18496, Note_on_c, 0, 67, 0
2, 18496, Note_on_c, 0, 76, 0
2, 18496, Note_on_c, 0, 69, 75
2, 18496, Note_on_c, 0, 78, 127
2, 18541, Note_on_c, 0, 69, 0
2, 18541, Note_on_c, 0, 78, 0
2, 18541, Note_on_c, 0, 69, 75
2, 18541, Note_on_c, 0, 78, 127
2, 18571, Note_on_c, 0, 69, 0
2, 18571, Note_on_c, 0, 78, 0
2, 18571, Note_on_c, 0, 67, 75
2, 18571, Note_on_c, 0, 76, 127
2, 18901, Note_on_c, 0, 67, 0
2, 18901, Note_on_c, 0, 76, 0
2, 19021, Note_on_c, 0, 69, 75
2, 19021, Note_on_c, 0, 78, 127
2, 19051, Note_on_c, 0, 69, 0
2, 19051, Note_on_c, 0, 78, 0
2, 19051, Note_on_c, 0, 69, 75
2, 19051, Note_on_c, 0, 78, 127
2, 19076, Note_on_c, 0, 78, 0
2, 19076, Note_on_c, 0, 69, 75
2, 19076, Note_on_c, 0, 78, 75
2, 19081, Note_on_c, 0, 69, 0
2, 19081, Note_on_c, 0, 69, 0
2, 19081, Note_on_c, 0, 71, 75
2, 19081, Note_on_c, 0, 79, 127
2, 19141, Note_on_c, 0, 78, 0
2, 19141, Note_on_c, 0, 71, 0
2, 19141, Note_on_c, 0, 79, 0
2, 19141, Note_on_c, 0, 69, 75
2, 19141, Note_on_c, 0, 78, 127
2, 19171, Note_on_c, 0, 69, 0
2, 19171, Note_on_c, 0, 78, 0
2, 19171, Note_on_c, 0, 67, 75
2, 19171, Note_on_c, 0, 76, 127
2, 19216, Note_on_c, 0, 67, 0
2, 19216, Note_on_c, 0, 76, 0
2, 19216, Note_on_c, 0, 69, 75
2, 19216, Note_on_c, 0, 78, 127
2, 19261, Note_on_c, 0, 69, 0
2, 19261, Note_on_c, 0, 78, 0
2, 19261, Note_on_c, 0, 69, 75
2, 19261, Note_on_c, 0, 78, 127
2, 19291, Note_on_c, 0, 69, 0
2, 19291, Note_on_c, 0, 78, 0
2, 19291, Note_on_c, 0, 71, 75
2, 19291, Note_on_c, 0, 79, 127
2, 19321, Note_on_c, 0, 71, 0
2, 19321, Note_on_c, 0, 79, 0
2, 19321, Note_on_c, 0, 67, 75
2, 19321, Note_on_c, 0, 76, 127
2, 19591, Note_on_c, 0, 67, 0
2, 19591, Note_on_c, 0, 76, 0
2, 19591, Note_on_c, 0, 69, 75
2, 19591, Note_on_c, 0, 78, 127
2, 19621, Note_on_c, 0, 69, 0
2, 19621, Note_on_c, 0, 78, 0
2, 19621, Note_on_c, 0, 69, 75
2, 19621, Note_on_c, 0, 78, 127
2, 19681, Note_on_c, 0, 69, 0
2, 19681, Note_on_c, 0, 78, 0
2, 19711, Note_on_c, 0, 69, 75
2, 19711, Note_on_c, 0, 78, 127
2, 19741, Note_on_c, 0, 69, 0
2, 19741, Note_on_c, 0, 78, 0
2, 19741, Note_on_c, 0, 69, 75
2, 19741, Note_on_c, 0, 78, 127
2, 19801, Note_on_c, 0, 69, 0
2, 19801, Note_on_c, 0, 78, 0
2, 19801, Note_on_c, 0, 69, 75
2, 19801, Note_on_c, 0, 78, 127
2, 19831, Note_on_c, 0, 69, 0
2, 19831, Note_on_c, 0, 78, 0
2, 19831, Note_on_c, 0, 71, 127
2, 19831, Note_on_c, 0, 76, 127
2, 20161, Note_on_c, 0, 71, 0
2, 20161, Note_on_c, 0, 76, 0
2, 20641, Note_on_c, 0, 62, 127
2, 20701, Note_on_c, 0, 62, 0
2, 20701, Note_on_c, 0, 64, 127
2, 20761, Note_on_c, 0, 64, 0
2, 20791, Note_on_c, 0, 64, 127
2, 20821, Note_on_c, 0, 64, 0
2, 20821, Note_on_c, 0, 64, 127
2, 20851, Note_on_c, 0, 64, 0
2, 20851, Note_on_c, 0, 64, 127
2, 20881, Note_on_c, 0, 64, 0
2, 20881, Note_on_c, 0, 66, 127
2, 20911, Note_on_c, 0, 66, 0
2, 20911, Note_on_c, 0, 64, 127
2, 20941, Note_on_c, 0, 64, 0
2, 20941, Note_on_c, 0, 62, 127
2, 20971, Note_on_c, 0, 62, 0
2, 20971, Note_on_c, 0, 64, 127
2, 21241, Note_on_c, 0, 64, 0
2, 21361, Note_on_c, 0, 62, 127
2, 21391, Note_on_c, 0, 62, 0
2, 21391, Note_on_c, 0, 64, 127
2, 21421, Note_on_c, 0, 64, 0
2, 21421, Note_on_c, 0, 64, 127
2, 21481, Note_on_c, 0, 64, 0
2, 21481, Note_on_c, 0, 64, 127
2, 21541, Note_on_c, 0, 64, 0
2, 21541, Note_on_c, 0, 64, 127
2, 21571, Note_on_c, 0, 64, 0
2, 21571, Note_on_c, 0, 62, 127
2, 21601, Note_on_c, 0, 62, 0
2, 21601, Note_on_c, 0, 62, 127
2, 21661, Note_on_c, 0, 62, 0
2, 21661, Note_on_c, 0, 64, 127
2, 21691, Note_on_c, 0, 64, 0
2, 21691, Note_on_c, 0, 65, 127
2, 21721, Note_on_c, 0, 65, 0
2, 21721, Note_on_c, 0, 67, 127
2, 22081, Note_on_c, 0, 67, 0
2, 22111, Note_on_c, 0, 66, 127
2, 22141, Note_on_c, 0, 66, 0
2, 22141, Note_on_c, 0, 67, 127
2, 22171, Note_on_c, 0, 67, 0
2, 22171, Note_on_c, 0, 67, 127
2, 22231, Note_on_c, 0, 67, 0
2, 22231, Note_on_c, 0, 67, 127
2, 22291, Note_on_c, 0, 67, 0
2, 22291, Note_on_c, 0, 62, 127
2, 22321, Note_on_c, 0, 62, 0
2, 22321, Note_on_c, 0, 62, 127
2, 22381, Note_on_c, 0, 62, 0
2, 22381, Note_on_c, 0, 62, 127
2, 22411, Note_on_c, 0, 62, 0
2, 22411, Note_on_c, 0, 62, 127
2, 22681, Note_on_c, 0, 62, 0
2, 22801, Note_on_c, 0, 71, 75
2, 22801, Note_on_c, 0, 67, 127
2, 22861, Note_on_c, 0, 71, 0
2, 22861, Note_on_c, 0, 67, 0
2, 22861, Note_on_c, 0, 69, 75
2, 22861, Note_on_c, 0, 66, 127
2, 22921, Note_on_c, 0, 69, 0
2, 22921, Note_on_c, 0, 66, 0
2, 22921, Note_on_c, 0, 69, 75
2, 22921, Note_on_c, 0, 66, 127
2, 22951, Note_on_c, 0, 69, 0
2, 22951, Note_on_c, 0, 66, 0
2, 22951, Note_on_c, 0, 69, 75
2, 22951, Note_on_c, 0, 66, 127
2, 22981, Note_on_c, 0, 69, 0
2, 22981, Note_on_c, 0, 66, 0
2, 22981, Note_on_c, 0, 71, 75
2, 22981, Note_on_c, 0, 67, 127
2, 23041, Note_on_c, 0, 71, 0
2, 23041, Note_on_c, 0, 67, 0
2, 23041, Note_on_c, 0, 69, 75
2, 23041, Note_on_c, 0, 66, 127
2, 23071, Note_on_c, 0, 69, 0
2, 23071, Note_on_c, 0, 66, 0
2, 23071, Note_on_c, 0, 67, 75
2, 23071, Note_on_c, 0, 64, 127
2, 23401, Note_on_c, 0, 67, 0
2, 23401, Note_on_c, 0, 64, 0
2, 23881, Note_on_c, 0, 69, 75
2, 23881, Note_on_c, 0, 78, 127
2, 23911, Note_on_c, 0, 69, 0
2, 23911, Note_on_c, 0, 78, 0
2, 23911, Note_on_c, 0, 69, 75
2, 23911, Note_on_c, 0, 78, 127
2, 23936, Note_on_c, 0, 78, 0
2, 23936, Note_on_c, 0, 69, 50
2, 23936, Note_on_c, 0, 78, 75
2, 23941, Note_on_c, 0, 69, 0
2, 23941, Note_on_c, 0, 79, 127
2, 23941, Note_on_c, 0, 71, 75
2, 24001, Note_on_c, 0, 69, 0
2, 24001, Note_on_c, 0, 78, 0
2, 24001, Note_on_c, 0, 79, 0
2, 24001, Note_on_c, 0, 71, 0
2, 24001, Note_on_c, 0, 78, 127
2, 24001, Note_on_c, 0, 69, 75
2, 24031, Note_on_c, 0, 78, 0
2, 24031, Note_on_c, 0, 69, 0
2, 24031, Note_on_c, 0, 67, 75
2, 24031, Note_on_c, 0, 76, 127
2, 24076, Note_on_c, 0, 67, 0
2, 24076, Note_on_c, 0, 76, 0
2, 24076, Note_on_c, 0, 78, 127
2, 24076, Note_on_c, 0, 69, 75
2, 24121, Note_on_c, 0, 78, 0
2, 24121, Note_on_c, 0, 69, 0
2, 24121, Note_on_c, 0, 69, 127
2, 24121, Note_on_c, 0, 78, 127
2, 24151, Note_on_c, 0, 69, 0
2, 24151, Note_on_c, 0, 78, 0
2, 24151, Note_on_c, 0, 67, 127
2, 24151, Note_on_c, 0, 76, 127
2, 24481, Note_on_c, 0, 67, 0
2, 24481, Note_on_c, 0, 76, 0
2, 24601, Note_on_c, 0, 69, 75
2, 24601, Note_on_c, 0, 78, 127
2, 24631, Note_on_c, 0, 69, 0
2, 24631, Note_on_c, 0, 78, 0
2, 24631, Note_on_c, 0, 69, 75
2, 24631, Note_on_c, 0, 78, 127
2, 24656, Note_on_c, 0, 78, 0
2, 24656, Note_on_c, 0, 69, 50
2, 24656, Note_on_c, 0, 78, 75
2, 24661, Note_on_c, 0, 69, 0
2, 24661, Note_on_c, 0, 79, 127
2, 24661, Note_on_c, 0, 71, 75
2, 24721, Note_on_c, 0, 69, 0
2, 24721, Note_on_c, 0, 78, 0
2, 24721, Note_on_c, 0, 79, 0
2, 24721, Note_on_c, 0, 71, 0
2, 24721, Note_on_c, 0, 78, 127
2, 24721, Note_on_c, 0, 69, 75
2, 24751, Note_on_c, 0, 78, 0
2, 24751, Note_on_c, 0, 69, 0
2, 24751, Note_on_c, 0, 67, 75
2, 24751, Note_on_c, 0, 76, 127
2, 24796, Note_on_c, 0, 67, 0
2, 24796, Note_on_c, 0, 76, 0
2, 24796, Note_on_c, 0, 78, 127
2, 24796, Note_on_c, 0, 69, 75
2, 24841, Note_on_c, 0, 78, 0
2, 24841, Note_on_c, 0, 69, 0
2, 24841, Note_on_c, 0, 69, 75
2, 24841, Note_on_c, 0, 78, 127
2, 24871, Note_on_c, 0, 69, 0
2, 24871, Note_on_c, 0, 78, 0
2, 24871, Note_on_c, 0, 71, 75
2, 24871, Note_on_c, 0, 79, 127
2, 24901, Note_on_c, 0, 71, 0
2, 24901, Note_on_c, 0, 79, 0
2, 24901, Note_on_c, 0, 67, 75
2, 24901, Note_on_c, 0, 76, 127
2, 25201, Note_on_c, 0, 67, 0
2, 25201, Note_on_c, 0, 76, 0
2, 25201, Note_on_c, 0, 69, 75
2, 25201, Note_on_c, 0, 78, 127
2, 25261, Note_on_c, 0, 78, 0
2, 25291, Note_on_c, 0, 69, 0
2, 25291, Note_on_c, 0, 69, 75
2, 25291, Note_on_c, 0, 78, 127
2, 25321, Note_on_c, 0, 69, 0
2, 25321, Note_on_c, 0, 78, 0
2, 25321, Note_on_c, 0, 69, 75
2, 25321, Note_on_c, 0, 78, 127
2, 25381, Note_on_c, 0, 69, 0
2, 25381, Note_on_c, 0, 78, 0
2, 25381, Note_on_c, 0, 69, 75
2, 25381, Note_on_c, 0, 78, 127
2, 25411, Note_on_c, 0, 69, 0
2, 25411, Note_on_c, 0, 78, 0
2, 25411, Note_on_c, 0, 71, 75
2, 25411, Note_on_c, 0, 76, 127
2, 25741, Note_on_c, 0, 71, 0
2, 25741, Note_on_c, 0, 76, 0
2, 31951, Note_on_c, 0, 62, 127
2, 31981, Note_on_c, 0, 62, 0
2, 31981, Note_on_c, 0, 64, 127
2, 32011, Note_on_c, 0, 64, 0
2, 32011, Note_on_c, 0, 64, 127
2, 32041, Note_on_c, 0, 64, 0
2, 32041, Note_on_c, 0, 64, 127
2, 32101, Note_on_c, 0, 64, 0
2, 32101, Note_on_c, 0, 64, 127
2, 32131, Note_on_c, 0, 64, 0
2, 32131, Note_on_c, 0, 64, 127
2, 32221, Note_on_c, 0, 64, 0
2, 32221, Note_on_c, 0, 66, 127
2, 32281, Note_on_c, 0, 66, 0
2, 32281, Note_on_c, 0, 67, 127
2, 32341, Note_on_c, 0, 67, 0
2, 32341, Note_on_c, 0, 64, 127
2, 32581, Note_on_c, 0, 64, 0
2, 32701, Note_on_c, 0, 64, 127
2, 32731, Note_on_c, 0, 64, 0
2, 32731, Note_on_c, 0, 64, 127
2, 32761, Note_on_c, 0, 64, 0
2, 32761, Note_on_c, 0, 64, 127
2, 32851, Note_on_c, 0, 64, 0
2, 32851, Note_on_c, 0, 64, 127
2, 32881, Note_on_c, 0, 64, 0
2, 32881, Note_on_c, 0, 64, 127
2, 32911, Note_on_c, 0, 64, 0
2, 32911, Note_on_c, 0, 59, 127
2, 32941, Note_on_c, 0, 59, 0
2, 32941, Note_on_c, 0, 62, 127
2, 33001, Note_on_c, 0, 62, 0
2, 33001, Note_on_c, 0, 62, 127
2, 33031, Note_on_c, 0, 62, 0
2, 33031, Note_on_c, 0, 64, 127
2, 33121, Note_on_c, 0, 64, 0
2, 33121, Note_on_c, 0, 67, 127
2, 33191, Note_on_c, 0, 67, 0
2, 33191, Note_on_c, 0, 66, 127
2, 33201, Note_on_c, 0, 64, 127
2, 33301, Note_on_c, 0, 66, 0
2, 33301, Note_on_c, 0, 64, 0
2, 33361, Note_on_c, 0, 69, 127
2, 33391, Note_on_c, 0, 69, 0
2, 33391, Note_on_c, 0, 71, 127
2, 33421, Note_on_c, 0, 71, 0
2, 33421, Note_on_c, 0, 69, 127
2, 33476, Note_on_c, 0, 69, 0
2, 33476, Note_on_c, 0, 67, 75
2, 33481, Note_on_c, 0, 66, 127
2, 33571, Note_on_c, 0, 67, 0
2, 33571, Note_on_c, 0, 66, 0
2, 33571, Note_on_c, 0, 66, 127
2, 33601, Note_on_c, 0, 66, 0
2, 33601, Note_on_c, 0, 64, 127
2, 33661, Note_on_c, 0, 64, 0
2, 33661, Note_on_c, 0, 66, 127
2, 33721, Note_on_c, 0, 66, 0
2, 33721, Note_on_c, 0, 67, 127
2, 34021, Note_on_c, 0, 67, 0
2, 34141, Note_on_c, 0, 69, 127
2, 34171, Note_on_c, 0, 69, 0
2, 34171, Note_on_c, 0, 71, 127
2, 34201, Note_on_c, 0, 71, 0
2, 34201, Note_on_c, 0, 69, 127
2, 34261, Note_on_c, 0, 69, 0
2, 34261, Note_on_c, 0, 69, 127
2, 34291, Note_on_c, 0, 69, 0
2, 34291, Note_on_c, 0, 69, 127
2, 34381, Note_on_c, 0, 69, 0
2, 34381, Note_on_c, 0, 69, 127
2, 34411, Note_on_c, 0, 69, 0
2, 34411, Note_on_c, 0, 69, 127
2, 34441, Note_on_c, 0, 69, 0
2, 34441, Note_on_c, 0, 71, 127
2, 34861, Note_on_c, 0, 71, 0
2, 35161, Note_on_c, 0, 67, 127
2, 35221, Note_on_c, 0, 67, 0
2, 35221, Note_on_c, 0, 67, 127
2, 35281, Note_on_c, 0, 67, 0
2, 35281, Note_on_c, 0, 67, 127
2, 35341, Note_on_c, 0, 67, 0
2, 35371, Note_on_c, 0, 67, 127
2, 35401, Note_on_c, 0, 67, 0
2, 35401, Note_on_c, 0, 67, 127
2, 35461, Note_on_c, 0, 67, 0
2, 35461, Note_on_c, 0, 69, 127
2, 35521, Note_on_c, 0, 69, 0
2, 35521, Note_on_c, 0, 71, 127
2, 35551, Note_on_c, 0, 71, 0
2, 35551, Note_on_c, 0, 67, 127
2, 35581, Note_on_c, 0, 67, 0
2, 35581, Note_on_c, 0, 67, 127
2, 35821, Note_on_c, 0, 67, 0
2, 35941, Note_on_c, 0, 76, 127
2, 35971, Note_on_c, 0, 76, 0
2, 35971, Note_on_c, 0, 76, 127
2, 36001, Note_on_c, 0, 76, 0
2, 36001, Note_on_c, 0, 74, 127
2, 36031, Note_on_c, 0, 74, 0
2, 36031, Note_on_c, 0, 76, 127
2, 36061, Note_on_c, 0, 76, 0
2, 36061, Note_on_c, 0, 71, 127
2, 36091, Note_on_c, 0, 71, 0
2, 36091, Note_on_c, 0, 67, 127
2, 36121, Note_on_c, 0, 67, 0
2, 36121, Note_on_c, 0, 67, 127
2, 36181, Note_on_c, 0, 67, 0
2, 36181, Note_on_c, 0, 69, 127
2, 36241, Note_on_c, 0, 69, 0
2, 36241, Note_on_c, 0, 71, 127
2, 36301, Note_on_c, 0, 71, 0
2, 36301, Note_on_c, 0, 71, 127
2, 36361, Note_on_c, 0, 71, 0
2, 36361, Note_on_c, 0, 72, 127
2, 36541, Note_on_c, 0, 72, 0
2, 36656, Note_on_c, 0, 69, 75
2, 36661, Note_on_c, 0, 69, 0
2, 36661, Note_on_c, 0, 71, 127
2, 36691, Note_on_c, 0, 71, 0
2, 36691, Note_on_c, 0, 71, 127
2, 36721, Note_on_c, 0, 71, 0
2, 36721, Note_on_c, 0, 69, 127
2, 36751, Note_on_c, 0, 69, 0
2, 36751, Note_on_c, 0, 71, 127
2, 36811, Note_on_c, 0, 71, 0
2, 36811, Note_on_c, 0, 69, 127
2, 36871, Note_on_c, 0, 69, 0
2, 36871, Note_on_c, 0, 67, 127
2, 36901, Note_on_c, 0, 67, 0
2, 36901, Note_on_c, 0, 69, 127
2, 36961, Note_on_c, 0, 69, 0
2, 36961, Note_on_c, 0, 71, 127
2, 37021, Note_on_c, 0, 71, 0
2, 37021, Note_on_c, 0, 67, 127
2, 37261, Note_on_c, 0, 67, 0
2, 37381, Note_on_c, 0, 71, 127
2, 37411, Note_on_c, 0, 71, 0
2, 37411, Note_on_c, 0, 67, 127
2, 37441, Note_on_c, 0, 67, 0
2, 37441, Note_on_c, 0, 69, 127
2, 37501, Note_on_c, 0, 69, 0
2, 37501, Note_on_c, 0, 69, 127
2, 37531, Note_on_c, 0, 69, 0
2, 37531, Note_on_c, 0, 69, 127
2, 37621, Note_on_c, 0, 69, 0
2, 37621, Note_on_c, 0, 69, 127
2, 37651, Note_on_c, 0, 69, 0
2, 37651, Note_on_c, 0, 69, 127
2, 37681, Note_on_c, 0, 69, 0
2, 37681, Note_on_c, 0, 71, 127
2, 38161, Note_on_c, 0, 71, 0
2, 38461, Note_on_c, 0, 69, 75
2, 38461, Note_on_c, 0, 78, 127
2, 38491, Note_on_c, 0, 69, 0
2, 38491, Note_on_c, 0, 78, 0
2, 38491, Note_on_c, 0, 78, 127
2, 38491, Note_on_c, 0, 69, 75
2, 38516, Note_on_c, 0, 69, 50
2, 38516, Note_on_c, 0, 78, 75
2, 38521, Note_on_c, 0, 78, 0
2, 38521, Note_on_c, 0, 69, 0
2, 38521, Note_on_c, 0, 69, 0
2, 38521, Note_on_c, 0, 78, 0
2, 38521, Note_on_c, 0, 71, 75
2, 38521, Note_on_c, 0, 79, 127
2, 38581, Note_on_c, 0, 71, 0
2, 38581, Note_on_c, 0, 79, 0
2, 38581, Note_on_c, 0, 78, 127
2, 38581, Note_on_c, 0, 69, 75
2, 38611, Note_on_c, 0, 78, 0
2, 38611, Note_on_c, 0, 69, 0
2, 38611, Note_on_c, 0, 67, 75
2, 38611, Note_on_c, 0, 76, 127
2, 38656, Note_on_c, 0, 67, 0
2, 38656, Note_on_c, 0, 76, 0
2, 38656, Note_on_c, 0, 78, 127
2, 38656, Note_on_c, 0, 69, 75
2, 38701, Note_on_c, 0, 78, 0
2, 38701, Note_on_c, 0, 69, 0
2, 38701, Note_on_c, 0, 69, 75
2, 38701, Note_on_c, 0, 78, 127
2, 38731, Note_on_c, 0, 69, 0
2, 38731, Note_on_c, 0, 78, 0
2, 38731, Note_on_c, 0, 67, 75
2, 38731, Note_on_c, 0, 76, 127
2, 39001, Note_on_c, 0, 67, 0
2, 39001, Note_on_c, 0, 76, 0
2, 39181, Note_on_c, 0, 69, 75
2, 39181, Note_on_c, 0, 78, 127
2, 39211, Note_on_c, 0, 69, 0
2, 39211, Note_on_c, 0, 78, 0
2, 39211, Note_on_c, 0, 78, 127
2, 39211, Note_on_c, 0, 69, 75
2, 39236, Note_on_c, 0, 69, 50
2, 39236, Note_on_c, 0, 78, 75
2, 39241, Note_on_c, 0, 78, 0
2, 39241, Note_on_c, 0, 69, 0
2, 39241, Note_on_c, 0, 69, 0
2, 39241, Note_on_c, 0, 78, 0
2, 39241, Note_on_c, 0, 71, 75
2, 39241, Note_on_c, 0, 79, 127
2, 39301, Note_on_c, 0, 71, 0
2, 39301, Note_on_c, 0, 79, 0
2, 39301, Note_on_c, 0, 78, 127
2, 39301, Note_on_c, 0, 69, 75
2, 39331, Note_on_c, 0, 78, 0
2, 39331, Note_on_c, 0, 69, 0
2, 39331, Note_on_c, 0, 67, 75
2, 39331, Note_on_c, 0, 76, 127
2, 39376, Note_on_c, 0, 67, 0
2, 39376, Note_on_c, 0, 76, 0
2, 39376, Note_on_c, 0, 78, 127
2, 39376, Note_on_c, 0, 69, 75
2, 39421, Note_on_c, 0, 78, 0
2, 39421, Note_on_c, 0, 69, 0
2, 39421, Note_on_c, 0, 69, 75
2, 39421, Note_on_c, 0, 78, 127
2, 39451, Note_on_c, 0, 69, 0
2, 39451, Note_on_c, 0, 78, 0
2, 39451, Note_on_c, 0, 71, 75
2, 39451, Note_on_c, 0, 79, 127
2, 39481, Note_on_c, 0, 71, 0
2, 39481, Note_on_c, 0, 79, 0
2, 39481, Note_on_c, 0, 67, 75
2, 39481, Note_on_c, 0, 76, 127
2, 39781, Note_on_c, 0, 67, 0
2, 39781, Note_on_c, 0, 76, 0
2, 39901, Note_on_c, 0, 69, 75
2, 39901, Note_on_c, 0, 78, 127
2, 39931, Note_on_c, 0, 69, 0
2, 39931, Note_on_c, 0, 78, 0
2, 39931, Note_on_c, 0, 78, 127
2, 39931, Note_on_c, 0, 69, 75
2, 39956, Note_on_c, 0, 69, 50
2, 39956, Note_on_c, 0, 78, 75
2, 39961, Note_on_c, 0, 78, 0
2, 39961, Note_on_c, 0, 69, 0
2, 39961, Note_on_c, 0, 69, 0
2, 39961, Note_on_c, 0, 78, 0
2, 39961, Note_on_c, 0, 71, 75
2, 39961, Note_on_c, 0, 79, 127
2, 40021, Note_on_c, 0, 71, 0
2, 40021, Note_on_c, 0, 79, 0
2, 40021, Note_on_c, 0, 76, 127
2, 40021, Note_on_c, 0, 67, 75
2, 40051, Note_on_c, 0, 76, 0
2, 40051, Note_on_c, 0, 67, 0
2, 40051, Note_on_c, 0, 74, 127
2, 40051, Note_on_c, 0, 66, 75
2, 40096, Note_on_c, 0, 74, 0
2, 40096, Note_on_c, 0, 66, 0
2, 40096, Note_on_c, 0, 78, 127
2, 40096, Note_on_c, 0, 69, 75
2, 40141, Note_on_c, 0, 78, 0
2, 40141, Note_on_c, 0, 69, 0
2, 40141, Note_on_c, 0, 69, 75
2, 40141, Note_on_c, 0, 78, 127
2, 40171, Note_on_c, 0, 69, 0
2, 40171, Note_on_c, 0, 78, 0
2, 40171, Note_on_c, 0, 67, 75
2, 40171, Note_on_c, 0, 76, 127
2, 40501, Note_on_c, 0, 67, 0
2, 40501, Note_on_c, 0, 76, 0
2, 40621, Note_on_c, 0, 69, 75
2, 40621, Note_on_c, 0, 78, 127
2, 40651, Note_on_c, 0, 69, 0
2, 40651, Note_on_c, 0, 78, 0
2, 40651, Note_on_c, 0, 78, 127
2, 40651, Note_on_c, 0, 69, 75
2, 40676, Note_on_c, 0, 69, 50
2, 40676, Note_on_c, 0, 78, 75
2, 40681, Note_on_c, 0, 78, 0
2, 40681, Note_on_c, 0, 69, 0
2, 40681, Note_on_c, 0, 69, 0
2, 40681, Note_on_c, 0, 78, 0
2, 40681, Note_on_c, 0, 71, 75
2, 40681, Note_on_c, 0, 79, 127
2, 40741, Note_on_c, 0, 71, 0
2, 40741, Note_on_c, 0, 79, 0
2, 40741, Note_on_c, 0, 78, 127
2, 40741, Note_on_c, 0, 69, 75
2, 40771, Note_on_c, 0, 78, 0
2, 40771, Note_on_c, 0, 69, 0
2, 40771, Note_on_c, 0, 67, 75
2, 40771, Note_on_c, 0, 76, 127
2, 40816, Note_on_c, 0, 67, 0
2, 40816, Note_on_c, 0, 76, 0
2, 40816, Note_on_c, 0, 78, 127
2, 40816, Note_on_c, 0, 69, 75
2, 40861, Note_on_c, 0, 78, 0
2, 40861, Note_on_c, 0, 69, 0
2, 40861, Note_on_c, 0, 69, 75
2, 40861, Note_on_c, 0, 78, 127
2, 40891, Note_on_c, 0, 69, 0
2, 40891, Note_on_c, 0, 78, 0
2, 40891, Note_on_c, 0, 71, 75
2, 40891, Note_on_c, 0, 79, 127
2, 40921, Note_on_c, 0, 71, 0
2, 40921, Note_on_c, 0, 79, 0
2, 40921, Note_on_c, 0, 67, 75
2, 40921, Note_on_c, 0, 76, 127
2, 41221, Note_on_c, 0, 67, 0
2, 41221, Note_on_c, 0, 76, 0
2, 41221, Note_on_c, 0, 69, 75
2, 41221, Note_on_c, 0, 78, 127
2, 41281, Note_on_c, 0, 78, 0
2, 41311, Note_on_c, 0, 69, 0
2, 41311, Note_on_c, 0, 78, 127
2, 41311, Note_on_c, 0, 69, 75
2, 41341, Note_on_c, 0, 78, 0
2, 41341, Note_on_c, 0, 69, 0
2, 41341, Note_on_c, 0, 78, 127
2, 41341, Note_on_c, 0, 69, 75
2, 41401, Note_on_c, 0, 78, 0
2, 41401, Note_on_c, 0, 69, 0
2, 41401, Note_on_c, 0, 69, 127
2, 41401, Note_on_c, 0, 78, 127
2, 41431, Note_on_c, 0, 69, 0
2, 41431, Note_on_c, 0, 78, 0
2, 41431, Note_on_c, 0, 71, 127
2, 41431, Note_on_c, 0, 79, 127
2, 41881, Note_on_c, 0, 71, 0
2, 41941, Note_on_c, 0, 79, 0
2, 41941, Note_on_c, 0, 79, 127
2, 41966, Note_on_c, 0, 79, 75
2, 41971, Note_on_c, 0, 79, 0
2, 41971, Note_on_c, 0, 79, 0
2, 41971, Note_on_c, 0, 79, 127
2, 42121, Note_on_c, 0, 79, 0
2, 46201, Note_on_c, 0, 62, 127
2, 46261, Note_on_c, 0, 62, 0
2, 46261, Note_on_c, 0, 64, 127
2, 46351, Note_on_c, 0, 64, 0
2, 46351, Note_on_c, 0, 64, 127
2, 46381, Note_on_c, 0, 64, 0
2, 46381, Note_on_c, 0, 64, 127
2, 46411, Note_on_c, 0, 64, 0
2, 46411, Note_on_c, 0, 64, 127
2, 46441, Note_on_c, 0, 64, 0
2, 46441, Note_on_c, 0, 66, 127
2, 46471, Note_on_c, 0, 66, 0
2, 46471, Note_on_c, 0, 64, 127
2, 46501, Note_on_c, 0, 64, 0
2, 46501, Note_on_c, 0, 62, 127
2, 46531, Note_on_c, 0, 62, 0
2, 46531, Note_on_c, 0, 64, 127
2, 46801, Note_on_c, 0, 64, 0
2, 46921, Note_on_c, 0, 62, 127
2, 46951, Note_on_c, 0, 62, 0
2, 46951, Note_on_c, 0, 64, 127
2, 46981, Note_on_c, 0, 64, 0
2, 46981, Note_on_c, 0, 64, 127
2, 47041, Note_on_c, 0, 64, 0
2, 47041, Note_on_c, 0, 64, 127
2, 47101, Note_on_c, 0, 64, 0
2, 47101, Note_on_c, 0, 64, 127
2, 47131, Note_on_c, 0, 64, 0
2, 47131, Note_on_c, 0, 62, 127
2, 47161, Note_on_c, 0, 62, 0
2, 47161, Note_on_c, 0, 62, 127
2, 47221, Note_on_c, 0, 62, 0
2, 47221, Note_on_c, 0, 62, 127
2, 47281, Note_on_c, 0, 62, 0
2, 47281, Note_on_c, 0, 64, 127
2, 47311, Note_on_c, 0, 64, 0
2, 47311, Note_on_c, 0, 66, 127
2, 47341, Note_on_c, 0, 66, 0
2, 47341, Note_on_c, 0, 67, 127
2, 47356, Note_on_c, 0, 67, 0
2, 47356, Note_on_c, 0, 66, 127
2, 47371, Note_on_c, 0, 66, 0
2, 47371, Note_on_c, 0, 64, 127
2, 47521, Note_on_c, 0, 64, 0
2, 47671, Note_on_c, 0, 66, 127
2, 47701, Note_on_c, 0, 66, 0
2, 47701, Note_on_c, 0, 67, 127
2, 47731, Note_on_c, 0, 67, 0
2, 47731, Note_on_c, 0, 67, 127
2, 47791, Note_on_c, 0, 67, 0
2, 47791, Note_on_c, 0, 64, 127
2, 47851, Note_on_c, 0, 64, 0
2, 47851, Note_on_c, 0, 59, 127
2, 47881, Note_on_c, 0, 59, 0
2, 47881, Note_on_c, 0, 62, 127
2, 47941, Note_on_c, 0, 62, 0
2, 47941, Note_on_c, 0, 62, 127
2, 47971, Note_on_c, 0, 62, 0
2, 47971, Note_on_c, 0, 62, 127
2, 48181, Note_on_c, 0, 62, 0
2, 48361, Note_on_c, 0, 67, 127
2, 48421, Note_on_c, 0, 67, 0
2, 48421, Note_on_c, 0, 66, 127
2, 48481, Note_on_c, 0, 66, 0
2, 48481, Note_on_c, 0, 66, 127
2, 48511, Note_on_c, 0, 66, 0
2, 48511, Note_on_c, 0, 66, 127
2, 48541, Note_on_c, 0, 66, 0
2, 48541, Note_on_c, 0, 67, 127
2, 48601, Note_on_c, 0, 67, 0
2, 48601, Note_on_c, 0, 66, 127
2, 48631, Note_on_c, 0, 66, 0
2, 48631, Note_on_c, 0, 64, 127
2, 48961, Note_on_c, 0, 64, 0
2, 48961, End_track
3, 0, Start_track
3, 0, MIDI_port, 0
3, 0, Title_t, "Guitar 1"
3, 0, Control_c, 1, 7, 99
3, 0, Program_c, 1, 25
3, 0, Note_on_c, 1, 40, 127
3, 60, Note_on_c, 1, 40, 0
3, 60, Note_on_c, 1, 55, 127
3, 120, Note_on_c, 1, 55, 0
3, 120, Note_on_c, 1, 59, 127
3, 180, Note_on_c, 1, 59, 0
3, 180, Note_on_c, 1, 64, 127
3, 240, Note_on_c, 1, 64, 0
3, 240, Note_on_c, 1, 59, 127
3, 300, Note_on_c, 1, 59, 0
3, 300, Note_on_c, 1, 55, 127
3, 360, Note_on_c, 1, 55, 0
3, 360, Note_on_c, 1, 40, 127
3, 420, Note_on_c, 1, 40, 0
3, 420, Note_on_c, 1, 55, 127
3, 480, Note_on_c, 1, 55, 0
3, 480, Note_on_c, 1, 59, 127
3, 540, Note_on_c, 1, 59, 0
3, 540, Note_on_c, 1, 64, 127
3, 600, Note_on_c, 1, 64, 0
3, 600, Note_on_c, 1, 59, 127
3, 660, Note_on_c, 1, 59, 0
3, 660, Note_on_c, 1, 55, 127
3, 720, Note_on_c, 1, 55, 0
3, 720, Note_on_c, 1, 40, 127
3, 780, Note_on_c, 1, 40, 0
3, 780, Note_on_c, 1, 55, 127
3, 840, Note_on_c, 1, 55, 0
3, 840, Note_on_c, 1, 59, 127
3, 900, Note_on_c, 1, 59, 0
3, 900, Note_on_c, 1, 64, 127
3, 960, Note_on_c, 1, 64, 0
3, 960, Note_on_c, 1, 59, 127
3, 1020, Note_on_c, 1, 59, 0
3, 1020, Note_on_c, 1, 55, 127
3, 1080, Note_on_c, 1, 55, 0
3, 1080, Note_on_c, 1, 40, 127
3, 1140, Note_on_c, 1, 40, 0
3, 1140, Note_on_c, 1, 55, 127
3, 1200, Note_on_c, 1, 55, 0
3, 1200, Note_on_c, 1, 59, 127
3, 1260, Note_on_c, 1, 59, 0
3, 1260, Note_on_c, 1, 64, 127
3, 1320, Note_on_c, 1, 64, 0
3, 1320, Note_on_c, 1, 59, 127
3, 1380, Note_on_c, 1, 59, 0
3, 1380, Note_on_c, 1, 71, 127
3, 1440, Note_on_c, 1, 71, 0
3, 1440, Note_on_c, 1, 40, 127
3, 1440, Note_on_c, 1, 71, 127
3, 1500, Note_on_c, 1, 40, 0
3, 1500, Note_on_c, 1, 71, 0
3, 1500, Note_on_c, 1, 59, 127
3, 1560, Note_on_c, 1, 59, 0
3, 1560, Note_on_c, 1, 55, 127
3, 1620, Note_on_c, 1, 55, 0
3, 1620, Note_on_c, 1, 59, 127
3, 1620, Note_on_c, 1, 71, 127
3, 1650, Note_on_c, 1, 59, 0
3, 1650, Note_on_c, 1, 71, 0
3, 1650, Note_on_c, 1, 64, 127
3, 1680, Note_on_c, 1, 64, 0
3, 1680, Note_on_c, 1, 59, 127
3, 1740, Note_on_c, 1, 59, 0
3, 1740, Note_on_c, 1, 55, 127
3, 1800, Note_on_c, 1, 55, 0
3, 1800, Note_on_c, 1, 40, 127
3, 1800, Note_on_c, 1, 59, 127
3, 1860, Note_on_c, 1, 40, 0
3, 1860, Note_on_c, 1, 59, 0
3, 1860, Note_on_c, 1, 55, 127
3, 1920, Note_on_c, 1, 55, 0
3, 1920, Note_on_c, 1, 71, 127
3, 1920, Note_on_c, 1, 59, 127
3, 1980, Note_on_c, 1, 71, 0
3, 1980, Note_on_c, 1, 59, 0
3, 1980, Note_on_c, 1, 59, 127
3, 1980, Note_on_c, 1, 72, 127
3, 2040, Note_on_c, 1, 59, 0
3, 2040, Note_on_c, 1, 72, 0
3, 2040, Note_on_c, 1, 71, 127
3, 2085, Note_on_c, 1, 71, 0
3, 2085, Note_on_c, 1, 72, 127
3, 2100, Note_on_c, 1, 72, 0
3, 2100, Note_on_c, 1, 69, 127
3, 2160, Note_on_c, 1, 69, 0
3, 2160, Note_on_c, 1, 59, 127
3, 2160, Note_on_c, 1, 71, 127
3, 2220, Note_on_c, 1, 59, 0
3, 2220, Note_on_c, 1, 71, 0
3, 2220, Note_on_c, 1, 69, 127
3, 2240, Note_on_c, 1, 69, 0
3, 2240, Note_on_c, 1, 67, 127
3, 2260, Note_on_c, 1, 67, 0
3, 2260, Note_on_c, 1, 66, 127
3, 2280, Note_on_c, 1, 66, 0
3, 2280, Note_on_c, 1, 64, 127
3, 2340, Note_on_c, 1, 64, 0
3, 2340, Note_on_c, 1, 45, 127
3, 2340, Note_on_c, 1, 64, 127
3, 2400, Note_on_c, 1, 45, 0
3, 2400, Note_on_c, 1, 64, 0
3, 2400, Note_on_c, 1, 60, 127
3, 2460, Note_on_c, 1, 60, 0
3, 2460, Note_on_c, 1, 64, 127
3, 2520, Note_on_c, 1, 64, 0
3, 2520, Note_on_c, 1, 66, 127
3, 2550, Note_on_c, 1, 66, 0
3, 2550, Note_on_c, 1, 64, 127
3, 2580, Note_on_c, 1, 64, 0
3, 2580, Note_on_c, 1, 64, 127
3, 2640, Note_on_c, 1, 64, 0
3, 2640, Note_on_c, 1, 60, 127
3, 2700, Note_on_c, 1, 60, 0
3, 2700, Note_on_c, 1, 45, 127
3, 2760, Note_on_c, 1, 45, 0
3, 2760, Note_on_c, 1, 60, 127
3, 2820, Note_on_c, 1, 60, 0
3, 2820, Note_on_c, 1, 64, 127
3, 2880, Note_on_c, 1, 64, 0
3, 2880, Note_on_c, 1, 64, 127
3, 2940, Note_on_c, 1, 64, 0
3, 2940, Note_on_c, 1, 45, 127
3, 2940, Note_on_c, 1, 60, 127
3, 2940, Note_on_c, 1, 64, 127
3, 2940, Note_on_c, 1, 64, 127
3, 3000, Note_on_c, 1, 45, 0
3, 3000, Note_on_c, 1, 60, 0
3, 3000, Note_on_c, 1, 64, 0
3, 3000, Note_on_c, 1, 64, 0
3, 3000, Note_on_c, 1, 45, 127
3, 3000, Note_on_c, 1, 60, 127
3, 3000, Note_on_c, 1, 64, 127
3, 3000, Note_on_c, 1, 64, 127
3, 3060, Note_on_c, 1, 45, 0
3, 3060, Note_on_c, 1, 60, 0
3, 3060, Note_on_c, 1, 64, 0
3, 3060, Note_on_c, 1, 64, 0
3, 3060, Note_on_c, 1, 48, 127
3, 3060, Note_on_c, 1, 60, 127
3, 3060, Note_on_c, 1, 64, 127
3, 3060, Note_on_c, 1, 64, 127
3, 3120, Note_on_c, 1, 48, 0
3, 3120, Note_on_c, 1, 60, 0
3, 3120, Note_on_c, 1, 64, 0
3, 3120, Note_on_c, 1, 64, 0
3, 3120, Note_on_c, 1, 48, 127
3, 3150, Note_on_c, 1, 48, 0
3, 3150, Note_on_c, 1, 60, 127
3, 3180, Note_on_c, 1, 60, 0
3, 3180, Note_on_c, 1, 64, 127
3, 3210, Note_on_c, 1, 64, 0
3, 3210, Note_on_c, 1, 60, 127
3, 3240, Note_on_c, 1, 60, 0
3, 3240, Note_on_c, 1, 67, 127
3, 3270, Note_on_c, 1, 67, 0
3, 3270, Note_on_c, 1, 64, 127
3, 3300, Note_on_c, 1, 64, 0
3, 3300, Note_on_c, 1, 64, 127
3, 3330, Note_on_c, 1, 64, 0
3, 3330, Note_on_c, 1, 60, 127
3, 3360, Note_on_c, 1, 60, 0
3, 3360, Note_on_c, 1, 48, 127
3, 3360, Note_on_c, 1, 60, 127
3, 3360, Note_on_c, 1, 64, 127
3, 3360, Note_on_c, 1, 64, 127
3, 3420, Note_on_c, 1, 48, 0
3, 3420, Note_on_c, 1, 60, 0
3, 3420, Note_on_c, 1, 64, 0
3, 3420, Note_on_c, 1, 64, 0
3, 3420, Note_on_c, 1, 50, 127
3, 3420, Note_on_c, 1, 62, 127
3, 3420, Note_on_c, 1, 66, 127
3, 3420, Note_on_c, 1, 64, 127
3, 3480, Note_on_c, 1, 50, 0
3, 3480, Note_on_c, 1, 62, 0
3, 3480, Note_on_c, 1, 66, 0
3, 3480, Note_on_c, 1, 64, 0
3, 3480, Note_on_c, 1, 50, 127
3, 3510, Note_on_c, 1, 50, 0
3, 3510, Note_on_c, 1, 62, 127
3, 3540, Note_on_c, 1, 62, 0
3, 3540, Note_on_c, 1, 66, 127
3, 3570, Note_on_c, 1, 66, 0
3, 3570, Note_on_c, 1, 62, 127
3, 3600, Note_on_c, 1, 62, 0
3, 3600, Note_on_c, 1, 64, 127
3, 3630, Note_on_c, 1, 64, 0
3, 3630, Note_on_c, 1, 69, 127
3, 3645, Note_on_c, 1, 69, 0
3, 3645, Note_on_c, 1, 64, 127
3, 3660, Note_on_c, 1, 64, 0
3, 3660, Note_on_c, 1, 66, 127
3, 3690, Note_on_c, 1, 66, 0
3, 3690, Note_on_c, 1, 59, 127
3, 3720, Note_on_c, 1, 59, 0
3, 3720, Note_on_c, 1, 59, 127
3, 3750, Note_on_c, 1, 59, 0
3, 3750, Note_on_c, 1, 64, 127
3, 3780, Note_on_c, 1, 64, 0
3, 3780, Note_on_c, 1, 40, 127
3, 3840, Note_on_c, 1, 40, 0
3, 3840, Note_on_c, 1, 71, 127
3, 3840, Note_on_c, 1, 67, 127
3, 3900, Note_on_c, 1, 71, 0
3, 3900, Note_on_c, 1, 67, 0
3, 3900, Note_on_c, 1, 71, 127
3, 3960, Note_on_c, 1, 71, 0
3, 3960, Note_on_c, 1, 76, 127
3, 4020, Note_on_c, 1, 76, 0
3, 4020, Note_on_c, 1, 59, 127
3, 4080, Note_on_c, 1, 59, 0
3, 4080, Note_on_c, 1, 55, 127
3, 4140, Note_on_c, 1, 55, 0
3, 4140, Note_on_c, 1, 40, 127
3, 4200, Note_on_c, 1, 40, 0
3, 4200, Note_on_c, 1, 55, 127
3, 4260, Note_on_c, 1, 55, 0
3, 4260, Note_on_c, 1, 59, 127
3, 4320, Note_on_c, 1, 59, 0
3, 4320, Note_on_c, 1, 64, 127
3, 4380, Note_on_c, 1, 64, 0
3, 4380, Note_on_c, 1, 59, 127
3, 4440, Note_on_c, 1, 59, 0
3, 4440, Note_on_c, 1, 55, 127
3, 4500, Note_on_c, 1, 55, 0
3, 4500, Note_on_c, 1, 40, 127
3, 4560, Note_on_c, 1, 40, 0
3, 4560, Note_on_c, 1, 55, 127
3, 4620, Note_on_c, 1, 55, 0
3, 4620, Note_on_c, 1, 59, 127
3, 4680, Note_on_c, 1, 59, 0
3, 4680, Note_on_c, 1, 64, 127
3, 4740, Note_on_c, 1, 64, 0
3, 4740, Note_on_c, 1, 59, 127
3, 4800, Note_on_c, 1, 59, 0
3, 4800, Note_on_c, 1, 55, 127
3, 4860, Note_on_c, 1, 55, 0
3, 4860, Note_on_c, 1, 40, 127
3, 4920, Note_on_c, 1, 40, 0
3, 4920, Note_on_c, 1, 55, 127
3, 4980, Note_on_c, 1, 55, 0
3, 4980, Note_on_c, 1, 59, 127
3, 5040, Note_on_c, 1, 59, 0
3, 5040, Note_on_c, 1, 64, 127
3, 5100, Note_on_c, 1, 64, 0
3, 5100, Note_on_c, 1, 59, 127
3, 5160, Note_on_c, 1, 59, 0
3, 5160, Note_on_c, 1, 55, 127
3, 5220, Note_on_c, 1, 55, 0
3, 5220, Note_on_c, 1, 40, 127
3, 5310, Note_on_c, 1, 40, 0
3, 5310, Note_on_c, 1, 52, 127
3, 5340, Note_on_c, 1, 52, 0
3, 5340, Note_on_c, 1, 59, 127
3, 5370, Note_on_c, 1, 59, 0
3, 5370, Note_on_c, 1, 64, 127
3, 5400, Note_on_c, 1, 64, 0
3, 5400, Note_on_c, 1, 71, 127
3, 5400, Note_on_c, 1, 67, 127
3, 5580, Note_on_c, 1, 71, 0
3, 5580, Note_on_c, 1, 67, 0
3, 5580, Note_on_c, 1, 50, 127
3, 5640, Note_on_c, 1, 50, 0
3, 5640, Note_on_c, 1, 57, 127
3, 5700, Note_on_c, 1, 57, 0
3, 5700, Note_on_c, 1, 66, 127
3, 5700, Note_on_c, 1, 62, 127
3, 5760, Note_on_c, 1, 66, 0
3, 5760, Note_on_c, 1, 62, 0
3, 5760, Note_on_c, 1, 48, 127
3, 5820, Note_on_c, 1, 48, 0
3, 5820, Note_on_c, 1, 55, 127
3, 5880, Note_on_c, 1, 55, 0
3, 5880, Note_on_c, 1, 60, 127
3, 5880, Note_on_c, 1, 64, 127
3, 5940, Note_on_c, 1, 60, 0
3, 5940, Note_on_c, 1, 64, 0
3, 5940, Note_on_c, 1, 40, 127
3, 6030, Note_on_c, 1, 40, 0
3, 6030, Note_on_c, 1, 52, 127
3, 6060, Note_on_c, 1, 52, 0
3, 6060, Note_on_c, 1, 59, 127
3, 6090, Note_on_c, 1, 59, 0
3, 6090, Note_on_c, 1, 64, 127
3, 6120, Note_on_c, 1, 64, 0
3, 6120, Note_on_c, 1, 71, 127
3, 6120, Note_on_c, 1, 67, 127
3, 6300, Note_on_c, 1, 71, 0
3, 6300, Note_on_c, 1, 67, 0
3, 6300, Note_on_c, 1, 50, 127
3, 6360, Note_on_c, 1, 50, 0
3, 6360, Note_on_c, 1, 57, 127
3, 6420, Note_on_c, 1, 57, 0
3, 6420, Note_on_c, 1, 66, 127
3, 6420, Note_on_c, 1, 62, 127
3, 6480, Note_on_c, 1, 66, 0
3, 6480, Note_on_c, 1, 62, 0
3, 6480, Note_on_c, 1, 48, 127
3, 6540, Note_on_c, 1, 48, 0
3, 6540, Note_on_c, 1, 55, 127
3, 6600, Note_on_c, 1, 55, 0
3, 6600, Note_on_c, 1, 60, 127
3, 6600, Note_on_c, 1, 64, 127
3, 6660, Note_on_c, 1, 60, 0
3, 6660, Note_on_c, 1, 64, 0
3, 6660, Note_on_c, 1, 40, 127
3, 6750, Note_on_c, 1, 40, 0
3, 6750, Note_on_c, 1, 52, 127
3, 6780, Note_on_c, 1, 52, 0
3, 6780, Note_on_c, 1, 59, 127
3, 6810, Note_on_c, 1, 59, 0
3, 6810, Note_on_c, 1, 64, 127
3, 6840, Note_on_c, 1, 64, 0
3, 6840, Note_on_c, 1, 71, 127
3, 6840, Note_on_c, 1, 67, 127
3, 7020, Note_on_c, 1, 71, 0
3, 7020, Note_on_c, 1, 67, 0
3, 7020, Note_on_c, 1, 50, 127
3, 7080, Note_on_c, 1, 50, 0
3, 7080, Note_on_c, 1, 57, 127
3, 7140, Note_on_c, 1, 57, 0
3, 7140, Note_on_c, 1, 62, 127
3, 7140, Note_on_c, 1, 66, 127
3, 7200, Note_on_c, 1, 62, 0
3, 7200, Note_on_c, 1, 66, 0
3, 7200, Note_on_c, 1, 48, 127
3, 7260, Note_on_c, 1, 48, 0
3, 7260, Note_on_c, 1, 55, 127
3, 7320, Note_on_c, 1, 55, 0
3, 7320, Note_on_c, 1, 60, 127
3, 7320, Note_on_c, 1, 64, 127
3, 7380, Note_on_c, 1, 60, 0
3, 7380, Note_on_c, 1, 64, 0
3, 7380, Note_on_c, 1, 43, 127
3, 7440, Note_on_c, 1, 43, 0
3, 7440, Note_on_c, 1, 55, 127
3, 7500, Note_on_c, 1, 55, 0
3, 7500, Note_on_c, 1, 59, 127
3, 7500, Note_on_c, 1, 62, 127
3, 7560, Note_on_c, 1, 59, 0
3, 7560, Note_on_c, 1, 62, 0
3, 7560, Note_on_c, 1, 47, 127
3, 7620, Note_on_c, 1, 47, 0
3, 7620, Note_on_c, 1, 54, 127
3, 7680, Note_on_c, 1, 54, 0
3, 7680, Note_on_c, 1, 57, 127
3, 7680, Note_on_c, 1, 63, 127
3, 7740, Note_on_c, 1, 57, 0
3, 7740, Note_on_c, 1, 63, 0
3, 7740, Note_on_c, 1, 40, 127
3, 7800, Note_on_c, 1, 40, 0
3, 7800, Note_on_c, 1, 55, 127
3, 7860, Note_on_c, 1, 55, 0
3, 7860, Note_on_c, 1, 59, 127
3, 7920, Note_on_c, 1, 59, 0
3, 7920, Note_on_c, 1, 64, 127
3, 7980, Note_on_c, 1, 64, 0
3, 7980, Note_on_c, 1, 59, 127
3, 8040, Note_on_c, 1, 59, 0
3, 8040, Note_on_c, 1, 55, 127
3, 8100, Note_on_c, 1, 55, 0
3, 8100, Note_on_c, 1, 40, 127
3, 8160, Note_on_c, 1, 40, 0
3, 8160, Note_on_c, 1, 55, 127
3, 8220, Note_on_c, 1, 55, 0
3, 8220, Note_on_c, 1, 59, 127
3, 8280, Note_on_c, 1, 59, 0
3, 8280, Note_on_c, 1, 64, 127
3, 8340, Note_on_c, 1, 64, 0
3, 8340, Note_on_c, 1, 59, 127
3, 8400, Note_on_c, 1, 59, 0
3, 8400, Note_on_c, 1, 55, 127
3, 8460, Note_on_c, 1, 55, 0
3, 8460, Note_on_c, 1, 40, 127
3, 8520, Note_on_c, 1, 40, 0
3, 8520, Note_on_c, 1, 55, 127
3, 8580, Note_on_c, 1, 55, 0
3, 8580, Note_on_c, 1, 59, 127
3, 8640, Note_on_c, 1, 59, 0
3, 8640, Note_on_c, 1, 67, 127
3, 8700, Note_on_c, 1, 67, 0
3, 8700, Note_on_c, 1, 55, 127
3, 8730, Note_on_c, 1, 55, 0
3, 8730, Note_on_c, 1, 64, 127
3, 8760, Note_on_c, 1, 64, 0
3, 8760, Note_on_c, 1, 59, 127
3, 8790, Note_on_c, 1, 59, 0
3, 8790, Note_on_c, 1, 55, 127
3, 8820, Note_on_c, 1, 55, 0
3, 8820, Note_on_c, 1, 66, 127
3, 8820, Note_on_c, 1, 50, 127
3, 8880, Note_on_c, 1, 66, 0
3, 8880, Note_on_c, 1, 50, 0
3, 8880, Note_on_c, 1, 50, 127
3, 8910, Note_on_c, 1, 50, 0
3, 8910, Note_on_c, 1, 67, 127
3, 8940, Note_on_c, 1, 67, 0
3, 8940, Note_on_c, 1, 62, 127
3, 8970, Note_on_c, 1, 62, 0
3, 8970, Note_on_c, 1, 55, 127
3, 9000, Note_on_c, 1, 55, 0
3, 9000, Note_on_c, 1, 64, 127
3, 9000, Note_on_c, 1, 48, 127
3, 9060, Note_on_c, 1, 64, 0
3, 9060, Note_on_c, 1, 48, 0
3, 9060, Note_on_c, 1, 62, 127
3, 9090, Note_on_c, 1, 62, 0
3, 9090, Note_on_c, 1, 55, 127
3, 9120, Note_on_c, 1, 55, 0
3, 9120, Note_on_c, 1, 43, 127
3, 9150, Note_on_c, 1, 43, 0
3, 9150, Note_on_c, 1, 42, 127
3, 9180, Note_on_c, 1, 42, 0
3, 9180, Note_on_c, 1, 40, 127
3, 9240, Note_on_c, 1, 40, 0
3, 9240, Note_on_c, 1, 55, 127
3, 9300, Note_on_c, 1, 55, 0
3, 9300, Note_on_c, 1, 59, 127
3, 9360, Note_on_c, 1, 59, 0
3, 9360, Note_on_c, 1, 67, 127
3, 9420, Note_on_c, 1, 67, 0
3, 9420, Note_on_c, 1, 55, 127
3, 9450, Note_on_c, 1, 55, 0
3, 9450, Note_on_c, 1, 64, 127
3, 9480, Note_on_c, 1, 64, 0
3, 9480, Note_on_c, 1, 59, 127
3, 9510, Note_on_c, 1, 59, 0
3, 9510, Note_on_c, 1, 55, 127
3, 9540, Note_on_c, 1, 55, 0
3, 9540, Note_on_c, 1, 50, 127
3, 9540, Note_on_c, 1, 66, 127
3, 9600, Note_on_c, 1, 50, 0
3, 9600, Note_on_c, 1, 66, 0
3, 9600, Note_on_c, 1, 50, 127
3, 9630, Note_on_c, 1, 50, 0
3, 9630, Note_on_c, 1, 62, 127
3, 9660, Note_on_c, 1, 62, 0
3, 9660, Note_on_c, 1, 57, 127
3, 9690, Note_on_c, 1, 57, 0
3, 9690, Note_on_c, 1, 55, 127
3, 9720, Note_on_c, 1, 55, 0
3, 9720, Note_on_c, 1, 62, 127
3, 9720, Note_on_c, 1, 48, 127
3, 9780, Note_on_c, 1, 62, 0
3, 9780, Note_on_c, 1, 48, 0
3, 9780, Note_on_c, 1, 55, 127
3, 9810, Note_on_c, 1, 55, 0
3, 9810, Note_on_c, 1, 62, 127
3, 9840, Note_on_c, 1, 62, 0
3, 9840, Note_on_c, 1, 43, 127
3, 9870, Note_on_c, 1, 43, 0
3, 9870, Note_on_c, 1, 42, 127
3, 9900, Note_on_c, 1, 42, 0
3, 9900, Note_on_c, 1, 40, 127
3, 9960, Note_on_c, 1, 40, 0
3, 9960, Note_on_c, 1, 55, 127
3, 10020, Note_on_c, 1, 55, 0
3, 10020, Note_on_c, 1, 59, 127
3, 10080, Note_on_c, 1, 59, 0
3, 10080, Note_on_c, 1, 67, 127
3, 10140, Note_on_c, 1, 67, 0
3, 10140, Note_on_c, 1, 55, 127
3, 10170, Note_on_c, 1, 55, 0
3, 10170, Note_on_c, 1, 64, 127
3, 10200, Note_on_c, 1, 64, 0
3, 10200, Note_on_c, 1, 59, 127
3, 10230, Note_on_c, 1, 59, 0
3, 10230, Note_on_c, 1, 55, 127
3, 10260, Note_on_c, 1, 55, 0
3, 10260, Note_on_c, 1, 50, 127
3, 10260, Note_on_c, 1, 66, 127
3, 10320, Note_on_c, 1, 50, 0
3, 10320, Note_on_c, 1, 66, 0
3, 10320, Note_on_c, 1, 50, 127
3, 10350, Note_on_c, 1, 50, 0
3, 10350, Note_on_c, 1, 67, 127
3, 10380, Note_on_c, 1, 67, 0
3, 10380, Note_on_c, 1, 62, 127
3, 10410, Note_on_c, 1, 62, 0
3, 10410, Note_on_c, 1, 55, 127
3, 10440, Note_on_c, 1, 55, 0
3, 10440, Note_on_c, 1, 67, 127
3, 10440, Note_on_c, 1, 48, 127
3, 10500, Note_on_c, 1, 67, 0
3, 10500, Note_on_c, 1, 48, 0
3, 10500, Note_on_c, 1, 62, 127
3, 10560, Note_on_c, 1, 62, 0
3, 10560, Note_on_c, 1, 55, 127
3, 10620, Note_on_c, 1, 55, 0
3, 10620, Note_on_c, 1, 43, 127
3, 10680, Note_on_c, 1, 43, 0
3, 10680, Note_on_c, 1, 55, 127
3, 10740, Note_on_c, 1, 55, 0
3, 10740, Note_on_c, 1, 67, 127
3, 10740, Note_on_c, 1, 62, 127
3, 10800, Note_on_c, 1, 67, 0
3, 10800, Note_on_c, 1, 62, 0
3, 10800, Note_on_c, 1, 47, 127
3, 10800, Note_on_c, 1, 59, 127
3, 10800, Note_on_c, 1, 57, 127
3, 10800, Note_on_c, 1, 66, 127
3, 10860, Note_on_c, 1, 47, 0
3, 10860, Note_on_c, 1, 59, 0
3, 10860, Note_on_c, 1, 57, 0
3, 10860, Note_on_c, 1, 66, 0
3, 10860, Note_on_c, 1, 47, 127
3, 10890, Note_on_c, 1, 47, 0
3, 10890, Note_on_c, 1, 66, 127
3, 10920, Note_on_c, 1, 66, 0
3, 10920, Note_on_c, 1, 59, 127
3, 10980, Note_on_c, 1, 59, 0
3, 10980, Note_on_c, 1, 40, 127
3, 10980, Note_on_c, 1, 64, 127
3, 11040, Note_on_c, 1, 40, 0
3, 11040, Note_on_c, 1, 64, 0
3, 11040, Note_on_c, 1, 55, 127
3, 11100, Note_on_c, 1, 55, 0
3, 11100, Note_on_c, 1, 59, 127
3, 11160, Note_on_c, 1, 59, 0
3, 11160, Note_on_c, 1, 64, 127
3, 11220, Note_on_c, 1, 64, 0
3, 11220, Note_on_c, 1, 59, 127
3, 11280, Note_on_c, 1, 59, 0
3, 11280, Note_on_c, 1, 55, 127
3, 11340, Note_on_c, 1, 55, 0
3, 11340, Note_on_c, 1, 40, 127
3, 11400, Note_on_c, 1, 40, 0
3, 11400, Note_on_c, 1, 55, 127
3, 11460, Note_on_c, 1, 55, 0
3, 11460, Note_on_c, 1, 59, 127
3, 11520, Note_on_c, 1, 59, 0
3, 11520, Note_on_c, 1, 64, 127
3, 11580, Note_on_c, 1, 64, 0
3, 11580, Note_on_c, 1, 59, 127
3, 11640, Note_on_c, 1, 59, 0
3, 11640, Note_on_c, 1, 43, 127
3, 11670, Note_on_c, 1, 43, 0
3, 11670, Note_on_c, 1, 42, 127
3, 11700, Note_on_c, 1, 42, 0
3, 11700, Note_on_c, 1, 40, 127
3, 11760, Note_on_c, 1, 40, 0
3, 11760, Note_on_c, 1, 55, 127
3, 11820, Note_on_c, 1, 55, 0
3, 11820, Note_on_c, 1, 59, 127
3, 11880, Note_on_c, 1, 59, 0
3, 11880, Note_on_c, 1, 67, 127
3, 11940, Note_on_c, 1, 67, 0
3, 11940, Note_on_c, 1, 55, 127
3, 11970, Note_on_c, 1, 55, 0
3, 11970, Note_on_c, 1, 64, 127
3, 12000, Note_on_c, 1, 64, 0
3, 12000, Note_on_c, 1, 59, 127
3, 12030, Note_on_c, 1, 59, 0
3, 12030, Note_on_c, 1, 55, 127
3, 12060, Note_on_c, 1, 55, 0
3, 12060, Note_on_c, 1, 66, 127
3, 12060, Note_on_c, 1, 50, 127
3, 12120, Note_on_c, 1, 66, 0
3, 12120, Note_on_c, 1, 50, 0
3, 12120, Note_on_c, 1, 50, 127
3, 12150, Note_on_c, 1, 50, 0
3, 12150, Note_on_c, 1, 67, 127
3, 12180, Note_on_c, 1, 67, 0
3, 12180, Note_on_c, 1, 62, 127
3, 12210, Note_on_c, 1, 62, 0
3, 12210, Note_on_c, 1, 55, 127
3, 12240, Note_on_c, 1, 55, 0
3, 12240, Note_on_c, 1, 64, 127
3, 12240, Note_on_c, 1, 48, 127
3, 12300, Note_on_c, 1, 64, 0
3, 12300, Note_on_c, 1, 48, 0
3, 12300, Note_on_c, 1, 62, 127
3, 12330, Note_on_c, 1, 62, 0
3, 12330, Note_on_c, 1, 55, 127
3, 12360, Note_on_c, 1, 55, 0
3, 12360, Note_on_c, 1, 43, 127
3, 12390, Note_on_c, 1, 43, 0
3, 12390, Note_on_c, 1, 42, 127
3, 12420, Note_on_c, 1, 42, 0
3, 12420, Note_on_c, 1, 40, 127
3, 12480, Note_on_c, 1, 40, 0
3, 12480, Note_on_c, 1, 55, 127
3, 12540, Note_on_c, 1, 55, 0
3, 12540, Note_on_c, 1, 59, 127
3, 12600, Note_on_c, 1, 59, 0
3, 12600, Note_on_c, 1, 67, 127
3, 12660, Note_on_c, 1, 67, 0
3, 12660, Note_on_c, 1, 55, 127
3, 12690, Note_on_c, 1, 55, 0
3, 12690, Note_on_c, 1, 64, 127
3, 12720, Note_on_c, 1, 64, 0
3, 12720, Note_on_c, 1, 59, 127
3, 12750, Note_on_c, 1, 59, 0
3, 12750, Note_on_c, 1, 55, 127
3, 12780, Note_on_c, 1, 55, 0
3, 12780, Note_on_c, 1, 50, 127
3, 12780, Note_on_c, 1, 66, 127
3, 12840, Note_on_c, 1, 50, 0
3, 12840, Note_on_c, 1, 66, 0
3, 12840, Note_on_c, 1, 50, 127
3, 12870, Note_on_c, 1, 50, 0
3, 12870, Note_on_c, 1, 62, 127
3, 12900, Note_on_c, 1, 62, 0
3, 12900, Note_on_c, 1, 57, 127
3, 12930, Note_on_c, 1, 57, 0
3, 12930, Note_on_c, 1, 55, 127
3, 12960, Note_on_c, 1, 55, 0
3, 12960, Note_on_c, 1, 62, 127
3, 12960, Note_on_c, 1, 48, 127
3, 13020, Note_on_c, 1, 62, 0
3, 13020, Note_on_c, 1, 48, 0
3, 13020, Note_on_c, 1, 55, 127
3, 13050, Note_on_c, 1, 55, 0
3, 13050, Note_on_c, 1, 62, 127
3, 13080, Note_on_c, 1, 62, 0
3, 13080, Note_on_c, 1, 43, 127
3, 13110, Note_on_c, 1, 43, 0
3, 13110, Note_on_c, 1, 42, 127
3, 13140, Note_on_c, 1, 42, 0
3, 13140, Note_on_c, 1, 40, 127
3, 13200, Note_on_c, 1, 40, 0
3, 13200, Note_on_c, 1, 55, 127
3, 13260, Note_on_c, 1, 55, 0
3, 13260, Note_on_c, 1, 59, 127
3, 13320, Note_on_c, 1, 59, 0
3, 13320, Note_on_c, 1, 67, 127
3, 13380, Note_on_c, 1, 67, 0
3, 13380, Note_on_c, 1, 55, 127
3, 13410, Note_on_c, 1, 55, 0
3, 13410, Note_on_c, 1, 64, 127
3, 13440, Note_on_c, 1, 64, 0
3, 13440, Note_on_c, 1, 59, 127
3, 13470, Note_on_c, 1, 59, 0
3, 13470, Note_on_c, 1, 55, 127
3, 13500, Note_on_c, 1, 55, 0
3, 13500, Note_on_c, 1, 50, 127
3, 13500, Note_on_c, 1, 66, 127
3, 13560, Note_on_c, 1, 50, 0
3, 13560, Note_on_c, 1, 66, 0
3, 13560, Note_on_c, 1, 50, 127
3, 13590, Note_on_c, 1, 50, 0
3, 13590, Note_on_c, 1, 67, 127
3, 13620, Note_on_c, 1, 67, 0
3, 13620, Note_on_c, 1, 62, 127
3, 13650, Note_on_c, 1, 62, 0
3, 13650, Note_on_c, 1, 55, 127
3, 13680, Note_on_c, 1, 55, 0
3, 13680, Note_on_c, 1, 67, 127
3, 13680, Note_on_c, 1, 48, 127
3, 13740, Note_on_c, 1, 67, 0
3, 13740, Note_on_c, 1, 48, 0
3, 13740, Note_on_c, 1, 62, 127
3, 13800, Note_on_c, 1, 62, 0
3, 13800, Note_on_c, 1, 55, 127
3, 13860, Note_on_c, 1, 55, 0
3, 13860, Note_on_c, 1, 43, 127
3, 13920, Note_on_c, 1, 43, 0
3, 13920, Note_on_c, 1, 55, 127
3, 13980, Note_on_c, 1, 55, 0
3, 13980, Note_on_c, 1, 67, 127
3, 13980, Note_on_c, 1, 62, 127
3, 14040, Note_on_c, 1, 67, 0
3, 14040, Note_on_c, 1, 62, 0
3, 14040, Note_on_c, 1, 47, 127
3, 14040, Note_on_c, 1, 59, 127
3, 14040, Note_on_c, 1, 57, 127
3, 14040, Note_on_c, 1, 66, 127
3, 14100, Note_on_c, 1, 47, 0
3, 14100, Note_on_c, 1, 59, 0
3, 14100, Note_on_c, 1, 57, 0
3, 14100, Note_on_c, 1, 66, 0
3, 14100, Note_on_c, 1, 47, 127
3, 14130, Note_on_c, 1, 47, 0
3, 14130, Note_on_c, 1, 66, 127
3, 14160, Note_on_c, 1, 66, 0
3, 14160, Note_on_c, 1, 59, 127
3, 14220, Note_on_c, 1, 59, 0
3, 14220, Note_on_c, 1, 40, 127
3, 14220, Note_on_c, 1, 64, 127
3, 14280, Note_on_c, 1, 40, 0
3, 14280, Note_on_c, 1, 64, 0
3, 14280, Note_on_c, 1, 55, 127
3, 14340, Note_on_c, 1, 55, 0
3, 14340, Note_on_c, 1, 59, 127
3, 14400, Note_on_c, 1, 59, 0
3, 14400, Note_on_c, 1, 64, 127
3, 14460, Note_on_c, 1, 64, 0
3, 14460, Note_on_c, 1, 59, 127
3, 14520, Note_on_c, 1, 59, 0
3, 14520, Note_on_c, 1, 55, 127
3, 14580, Note_on_c, 1, 55, 0
3, 14580, Note_on_c, 1, 40, 127
3, 14640, Note_on_c, 1, 40, 0
3, 14640, Note_on_c, 1, 55, 127
3, 14700, Note_on_c, 1, 55, 0
3, 14700, Note_on_c, 1, 59, 127
3, 14760, Note_on_c, 1, 59, 0
3, 14760, Note_on_c, 1, 64, 127
3, 14820, Note_on_c, 1, 64, 0
3, 14820, Note_on_c, 1, 59, 127
3, 14880, Note_on_c, 1, 59, 0
3, 14880, Note_on_c, 1, 43, 127
3, 14910, Note_on_c, 1, 43, 0
3, 14910, Note_on_c, 1, 42, 127
3, 14940, Note_on_c, 1, 42, 0
3, 14940, Note_on_c, 1, 40, 127
3, 15000, Note_on_c, 1, 40, 0
3, 15000, Note_on_c, 1, 55, 127
3, 15060, Note_on_c, 1, 55, 0
3, 15060, Note_on_c, 1, 59, 127
3, 15120, Note_on_c, 1, 59, 0
3, 15120, Note_on_c, 1, 67, 127
3, 15180, Note_on_c, 1, 67, 0
3, 15180, Note_on_c, 1, 55, 127
3, 15210, Note_on_c, 1, 55, 0
3, 15210, Note_on_c, 1, 64, 127
3, 15240, Note_on_c, 1, 64, 0
3, 15240, Note_on_c, 1, 59, 127
3, 15270, Note_on_c, 1, 59, 0
3, 15270, Note_on_c, 1, 55, 127
3, 15300, Note_on_c, 1, 55, 0
3, 15300, Note_on_c, 1, 66, 127
3, 15300, Note_on_c, 1, 50, 127
3, 15360, Note_on_c, 1, 66, 0
3, 15360, Note_on_c, 1, 50, 0
3, 15360, Note_on_c, 1, 50, 127
3, 15390, Note_on_c, 1, 50, 0
3, 15390, Note_on_c, 1, 67, 127
3, 15420, Note_on_c, 1, 67, 0
3, 15420, Note_on_c, 1, 62, 127
3, 15450, Note_on_c, 1, 62, 0
3, 15450, Note_on_c, 1, 55, 127
3, 15480, Note_on_c, 1, 55, 0
3, 15480, Note_on_c, 1, 64, 127
3, 15480, Note_on_c, 1, 48, 127
3, 15540, Note_on_c, 1, 64, 0
3, 15540, Note_on_c, 1, 48, 0
3, 15540, Note_on_c, 1, 62, 127
3, 15570, Note_on_c, 1, 62, 0
3, 15570, Note_on_c, 1, 55, 127
3, 15600, Note_on_c, 1, 55, 0
3, 15600, Note_on_c, 1, 43, 127
3, 15630, Note_on_c, 1, 43, 0
3, 15630, Note_on_c, 1, 42, 127
3, 15660, Note_on_c, 1, 42, 0
3, 15660, Note_on_c, 1, 40, 127
3, 15720, Note_on_c, 1, 40, 0
3, 15720, Note_on_c, 1, 55, 127
3, 15780, Note_on_c, 1, 55, 0
3, 15780, Note_on_c, 1, 59, 127
3, 15840, Note_on_c, 1, 59, 0
3, 15840, Note_on_c, 1, 67, 127
3, 15900, Note_on_c, 1, 67, 0
3, 15900, Note_on_c, 1, 55, 127
3, 15930, Note_on_c, 1, 55, 0
3, 15930, Note_on_c, 1, 64, 127
3, 15960, Note_on_c, 1, 64, 0
3, 15960, Note_on_c, 1, 59, 127
3, 15990, Note_on_c, 1, 59, 0
3, 15990, Note_on_c, 1, 55, 127
3, 16020, Note_on_c, 1, 55, 0
3, 16020, Note_on_c, 1, 50, 127
3, 16020, Note_on_c, 1, 66, 127
3, 16080, Note_on_c, 1, 50, 0
3, 16080, Note_on_c, 1, 66, 0
3, 16080, Note_on_c, 1, 50, 127
3, 16110, Note_on_c, 1, 50, 0
3, 16110, Note_on_c, 1, 62, 127
3, 16140, Note_on_c, 1, 62, 0
3, 16140, Note_on_c, 1, 57, 127
3, 16170, Note_on_c, 1, 57, 0
3, 16170, Note_on_c, 1, 55, 127
3, 16200, Note_on_c, 1, 55, 0
3, 16200, Note_on_c, 1, 62, 127
3, 16200, Note_on_c, 1, 48, 127
3, 16260, Note_on_c, 1, 62, 0
3, 16260, Note_on_c, 1, 48, 0
3, 16260, Note_on_c, 1, 55, 127
3, 16290, Note_on_c, 1, 55, 0
3, 16290, Note_on_c, 1, 62, 127
3, 16320, Note_on_c, 1, 62, 0
3, 16320, Note_on_c, 1, 43, 127
3, 16350, Note_on_c, 1, 43, 0
3, 16350, Note_on_c, 1, 42, 127
3, 16380, Note_on_c, 1, 42, 0
3, 16380, Note_on_c, 1, 40, 127
3, 16440, Note_on_c, 1, 40, 0
3, 16440, Note_on_c, 1, 55, 127
3, 16500, Note_on_c, 1, 55, 0
3, 16500, Note_on_c, 1, 59, 127
3, 16560, Note_on_c, 1, 59, 0
3, 16560, Note_on_c, 1, 67, 127
3, 16620, Note_on_c, 1, 67, 0
3, 16620, Note_on_c, 1, 55, 127
3, 16650, Note_on_c, 1, 55, 0
3, 16650, Note_on_c, 1, 64, 127
3, 16680, Note_on_c, 1, 64, 0
3, 16680, Note_on_c, 1, 59, 127
3, 16710, Note_on_c, 1, 59, 0
3, 16710, Note_on_c, 1, 55, 127
3, 16740, Note_on_c, 1, 55, 0
3, 16740, Note_on_c, 1, 50, 127
3, 16740, Note_on_c, 1, 66, 127
3, 16800, Note_on_c, 1, 50, 0
3, 16800, Note_on_c, 1, 66, 0
3, 16800, Note_on_c, 1, 50, 127
3, 16830, Note_on_c, 1, 50, 0
3, 16830, Note_on_c, 1, 67, 127
3, 16860, Note_on_c, 1, 67, 0
3, 16860, Note_on_c, 1, 62, 127
3, 16890, Note_on_c, 1, 62, 0
3, 16890, Note_on_c, 1, 55, 127
3, 16920, Note_on_c, 1, 55, 0
3, 16920, Note_on_c, 1, 67, 127
3, 16920, Note_on_c, 1, 48, 127
3, 16980, Note_on_c, 1, 67, 0
3, 16980, Note_on_c, 1, 48, 0
3, 16980, Note_on_c, 1, 62, 127
3, 17040, Note_on_c, 1, 62, 0
3, 17040, Note_on_c, 1, 55, 127
3, 17100, Note_on_c, 1, 55, 0
3, 17100, Note_on_c, 1, 43, 127
3, 17160, Note_on_c, 1, 43, 0
3, 17160, Note_on_c, 1, 55, 127
3, 17220, Note_on_c, 1, 55, 0
3, 17220, Note_on_c, 1, 67, 127
3, 17220, Note_on_c, 1, 62, 127
3, 17280, Note_on_c, 1, 67, 0
3, 17280, Note_on_c, 1, 62, 0
3, 17280, Note_on_c, 1, 47, 127
3, 17280, Note_on_c, 1, 59, 127
3, 17280, Note_on_c, 1, 57, 127
3, 17280, Note_on_c, 1, 66, 127
3, 17340, Note_on_c, 1, 47, 0
3, 17340, Note_on_c, 1, 59, 0
3, 17340, Note_on_c, 1, 57, 0
3, 17340, Note_on_c, 1, 66, 0
3, 17340, Note_on_c, 1, 47, 127
3, 17370, Note_on_c, 1, 47, 0
3, 17370, Note_on_c, 1, 66, 127
3, 17400, Note_on_c, 1, 66, 0
3, 17400, Note_on_c, 1, 59, 127
3, 17460, Note_on_c, 1, 59, 0
3, 17460, Note_on_c, 1, 40, 127
3, 17460, Note_on_c, 1, 64, 127
3, 17520, Note_on_c, 1, 40, 0
3, 17520, Note_on_c, 1, 64, 0
3, 17520, Note_on_c, 1, 55, 127
3, 17580, Note_on_c, 1, 55, 0
3, 17580, Note_on_c, 1, 59, 127
3, 17640, Note_on_c, 1, 59, 0
3, 17640, Note_on_c, 1, 64, 127
3, 17700, Note_on_c, 1, 64, 0
3, 17700, Note_on_c, 1, 59, 127
3, 17760, Note_on_c, 1, 59, 0
3, 17760, Note_on_c, 1, 55, 127
3, 17820, Note_on_c, 1, 55, 0
3, 17820, Note_on_c, 1, 64, 127
3, 17820, Note_on_c, 1, 60, 127
3, 17820, Note_on_c, 1, 55, 127
3, 17820, Note_on_c, 1, 52, 127
3, 17820, Note_on_c, 1, 48, 127
3, 18000, Note_on_c, 1, 64, 0
3, 18000, Note_on_c, 1, 60, 0
3, 18000, Note_on_c, 1, 55, 0
3, 18000, Note_on_c, 1, 52, 0
3, 18000, Note_on_c, 1, 48, 0
3, 18000, Note_on_c, 1, 60, 127
3, 18000, Note_on_c, 1, 56, 127
3, 18000, Note_on_c, 1, 51, 127
3, 18000, Note_on_c, 1, 45, 127
3, 18180, Note_on_c, 1, 60, 0
3, 18180, Note_on_c, 1, 56, 0
3, 18180, Note_on_c, 1, 51, 0
3, 18180, Note_on_c, 1, 45, 0
3, 19800, Note_on_c, 1, 40, 127
3, 19860, Note_on_c, 1, 40, 0
3, 19860, Note_on_c, 1, 55, 127
3, 19920, Note_on_c, 1, 55, 0
3, 19920, Note_on_c, 1, 59, 127
3, 19980, Note_on_c, 1, 59, 0
3, 19980, Note_on_c, 1, 64, 127
3, 20040, Note_on_c, 1, 64, 0
3, 20040, Note_on_c, 1, 59, 127
3, 20100, Note_on_c, 1, 59, 0
3, 20100, Note_on_c, 1, 55, 127
3, 20160, Note_on_c, 1, 55, 0
3, 20160, Note_on_c, 1, 40, 127
3, 20220, Note_on_c, 1, 40, 0
3, 20220, Note_on_c, 1, 55, 127
3, 20280, Note_on_c, 1, 55, 0
3, 20280, Note_on_c, 1, 59, 127
3, 20340, Note_on_c, 1, 59, 0
3, 20340, Note_on_c, 1, 64, 127
3, 20400, Note_on_c, 1, 64, 0
3, 20400, Note_on_c, 1, 59, 127
3, 20460, Note_on_c, 1, 59, 0
3, 20460, Note_on_c, 1, 55, 127
3, 20520, Note_on_c, 1, 55, 0
3, 20520, Note_on_c, 1, 40, 127
3, 20580, Note_on_c, 1, 40, 0
3, 20580, Note_on_c, 1, 55, 127
3, 20640, Note_on_c, 1, 55, 0
3, 20640, Note_on_c, 1, 59, 127
3, 20700, Note_on_c, 1, 59, 0
3, 20700, Note_on_c, 1, 67, 127
3, 20760, Note_on_c, 1, 67, 0
3, 20760, Note_on_c, 1, 55, 127
3, 20790, Note_on_c, 1, 55, 0
3, 20790, Note_on_c, 1, 64, 127
3, 20820, Note_on_c, 1, 64, 0
3, 20820, Note_on_c, 1, 59, 127
3, 20850, Note_on_c, 1, 59, 0
3, 20850, Note_on_c, 1, 55, 127
3, 20880, Note_on_c, 1, 55, 0
3, 20880, Note_on_c, 1, 66, 127
3, 20880, Note_on_c, 1, 50, 127
3, 20940, Note_on_c, 1, 66, 0
3, 20940, Note_on_c, 1, 50, 0
3, 20940, Note_on_c, 1, 50, 127
3, 20970, Note_on_c, 1, 50, 0
3, 20970, Note_on_c, 1, 67, 127
3, 21000, Note_on_c, 1, 67, 0
3, 21000, Note_on_c, 1, 62, 127
3, 21030, Note_on_c, 1, 62, 0
3, 21030, Note_on_c, 1, 55, 127
3, 21060, Note_on_c, 1, 55, 0
3, 21060, Note_on_c, 1, 64, 127
3, 21060, Note_on_c, 1, 48, 127
3, 21120, Note_on_c, 1, 64, 0
3, 21120, Note_on_c, 1, 48, 0
3, 21120, Note_on_c, 1, 62, 127
3, 21150, Note_on_c, 1, 62, 0
3, 21150, Note_on_c, 1, 55, 127
3, 21180, Note_on_c, 1, 55, 0
3, 21180, Note_on_c, 1, 43, 127
3, 21210, Note_on_c, 1, 43, 0
3, 21210, Note_on_c, 1, 42, 127
3, 21240, Note_on_c, 1, 42, 0
3, 21240, Note_on_c, 1, 40, 127
3, 21300, Note_on_c, 1, 40, 0
3, 21300, Note_on_c, 1, 55, 127
3, 21360, Note_on_c, 1, 55, 0
3, 21360, Note_on_c, 1, 59, 127
3, 21420, Note_on_c, 1, 59, 0
3, 21420, Note_on_c, 1, 67, 127
3, 21480, Note_on_c, 1, 67, 0
3, 21480, Note_on_c, 1, 55, 127
3, 21510, Note_on_c, 1, 55, 0
3, 21510, Note_on_c, 1, 64, 127
3, 21540, Note_on_c, 1, 64, 0
3, 21540, Note_on_c, 1, 59, 127
3, 21570, Note_on_c, 1, 59, 0
3, 21570, Note_on_c, 1, 55, 127
3, 21600, Note_on_c, 1, 55, 0
3, 21600, Note_on_c, 1, 50, 127
3, 21600, Note_on_c, 1, 66, 127
3, 21660, Note_on_c, 1, 50, 0
3, 21660, Note_on_c, 1, 66, 0
3, 21660, Note_on_c, 1, 50, 127
3, 21690, Note_on_c, 1, 50, 0
3, 21690, Note_on_c, 1, 62, 127
3, 21720, Note_on_c, 1, 62, 0
3, 21720, Note_on_c, 1, 57, 127
3, 21750, Note_on_c, 1, 57, 0
3, 21750, Note_on_c, 1, 55, 127
3, 21780, Note_on_c, 1, 55, 0
3, 21780, Note_on_c, 1, 62, 127
3, 21780, Note_on_c, 1, 48, 127
3, 21840, Note_on_c, 1, 62, 0
3, 21840, Note_on_c, 1, 48, 0
3, 21840, Note_on_c, 1, 55, 127
3, 21870, Note_on_c, 1, 55, 0
3, 21870, Note_on_c, 1, 62, 127
3, 21900, Note_on_c, 1, 62, 0
3, 21900, Note_on_c, 1, 43, 127
3, 21930, Note_on_c, 1, 43, 0
3, 21930, Note_on_c, 1, 42, 127
3, 21960, Note_on_c, 1, 42, 0
3, 21960, Note_on_c, 1, 40, 127
3, 22020, Note_on_c, 1, 40, 0
3, 22020, Note_on_c, 1, 55, 127
3, 22080, Note_on_c, 1, 55, 0
3, 22080, Note_on_c, 1, 59, 127
3, 22140, Note_on_c, 1, 59, 0
3, 22140, Note_on_c, 1, 67, 127
3, 22200, Note_on_c, 1, 67, 0
3, 22200, Note_on_c, 1, 55, 127
3, 22230, Note_on_c, 1, 55, 0
3, 22230, Note_on_c, 1, 64, 127
3, 22260, Note_on_c, 1, 64, 0
3, 22260, Note_on_c, 1, 59, 127
3, 22290, Note_on_c, 1, 59, 0
3, 22290, Note_on_c, 1, 55, 127
3, 22320, Note_on_c, 1, 55, 0
3, 22320, Note_on_c, 1, 50, 127
3, 22320, Note_on_c, 1, 66, 127
3, 22380, Note_on_c, 1, 50, 0
3, 22380, Note_on_c, 1, 66, 0
3, 22380, Note_on_c, 1, 50, 127
3, 22410, Note_on_c, 1, 50, 0
3, 22410, Note_on_c, 1, 67, 127
3, 22440, Note_on_c, 1, 67, 0
3, 22440, Note_on_c, 1, 62, 127
3, 22470, Note_on_c, 1, 62, 0
3, 22470, Note_on_c, 1, 55, 127
3, 22500, Note_on_c, 1, 55, 0
3, 22500, Note_on_c, 1, 67, 127
3, 22500, Note_on_c, 1, 48, 127
3, 22560, Note_on_c, 1, 67, 0
3, 22560, Note_on_c, 1, 48, 0
3, 22560, Note_on_c, 1, 62, 127
3, 22620, Note_on_c, 1, 62, 0
3, 22620, Note_on_c, 1, 55, 127
3, 22680, Note_on_c, 1, 55, 0
3, 22680, Note_on_c, 1, 43, 127
3, 22740, Note_on_c, 1, 43, 0
3, 22740, Note_on_c, 1, 55, 127
3, 22800, Note_on_c, 1, 55, 0
3, 22800, Note_on_c, 1, 67, 127
3, 22800, Note_on_c, 1, 62, 127
3, 22860, Note_on_c, 1, 67, 0
3, 22860, Note_on_c, 1, 62, 0
3, 22860, Note_on_c, 1, 47, 127
3, 22860, Note_on_c, 1, 59, 127
3, 22860, Note_on_c, 1, 57, 127
3, 22860, Note_on_c, 1, 66, 127
3, 22920, Note_on_c, 1, 47, 0
3, 22920, Note_on_c, 1, 59, 0
3, 22920, Note_on_c, 1, 57, 0
3, 22920, Note_on_c, 1, 66, 0
3, 22920, Note_on_c, 1, 47, 127
3, 22950, Note_on_c, 1, 47, 0
3, 22950, Note_on_c, 1, 66, 127
3, 22980, Note_on_c, 1, 66, 0
3, 22980, Note_on_c, 1, 59, 127
3, 23040, Note_on_c, 1, 59, 0
3, 23040, Note_on_c, 1, 40, 127
3, 23040, Note_on_c, 1, 64, 127
3, 23100, Note_on_c, 1, 40, 0
3, 23100, Note_on_c, 1, 64, 0
3, 23100, Note_on_c, 1, 55, 127
3, 23160, Note_on_c, 1, 55, 0
3, 23160, Note_on_c, 1, 59, 127
3, 23220, Note_on_c, 1, 59, 0
3, 23220, Note_on_c, 1, 64, 127
3, 23280, Note_on_c, 1, 64, 0
3, 23280, Note_on_c, 1, 59, 127
3, 23340, Note_on_c, 1, 59, 0
3, 23340, Note_on_c, 1, 55, 127
3, 23400, Note_on_c, 1, 55, 0
3, 23400, Note_on_c, 1, 64, 127
3, 23400, Note_on_c, 1, 60, 127
3, 23400, Note_on_c, 1, 55, 127
3, 23400, Note_on_c, 1, 52, 127
3, 23400, Note_on_c, 1, 48, 127
3, 23580, Note_on_c, 1, 61, 127
3, 23580, Note_on_c, 1, 57, 127
3, 23580, Note_on_c, 1, 52, 127
3, 23580, Note_on_c, 1, 45, 127
3, 23760, Note_on_c, 1, 64, 0
3, 23760, Note_on_c, 1, 60, 0
3, 23760, Note_on_c, 1, 55, 0
3, 23760, Note_on_c, 1, 52, 0
3, 23760, Note_on_c, 1, 48, 0
3, 23760, Note_on_c, 1, 61, 0
3, 23760, Note_on_c, 1, 57, 0
3, 23760, Note_on_c, 1, 52, 0
3, 23760, Note_on_c, 1, 45, 0
3, 25380, Note_on_c, 1, 40, 127
3, 25440, Note_on_c, 1, 40, 0
3, 25440, Note_on_c, 1, 55, 127
3, 25500, Note_on_c, 1, 55, 0
3, 25500, Note_on_c, 1, 59, 127
3, 25560, Note_on_c, 1, 59, 0
3, 25560, Note_on_c, 1, 64, 127
3, 25620, Note_on_c, 1, 64, 0
3, 25620, Note_on_c, 1, 59, 127
3, 25680, Note_on_c, 1, 59, 0
3, 25680, Note_on_c, 1, 55, 127
3, 25740, Note_on_c, 1, 55, 0
3, 25740, Note_on_c, 1, 40, 127
3, 25800, Note_on_c, 1, 40, 0
3, 25800, Note_on_c, 1, 55, 127
3, 25860, Note_on_c, 1, 55, 0
3, 25860, Note_on_c, 1, 59, 127
3, 25920, Note_on_c, 1, 59, 0
3, 25920, Note_on_c, 1, 64, 127
3, 25980, Note_on_c, 1, 64, 0
3, 25980, Note_on_c, 1, 59, 127
3, 26040, Note_on_c, 1, 59, 0
3, 26040, Note_on_c, 1, 55, 127
3, 26100, Note_on_c, 1, 55, 0
3, 26100, Note_on_c, 1, 76, 127
3, 26160, Note_on_c, 1, 76, 0
3, 26160, Note_on_c, 1, 71, 127
3, 26280, Note_on_c, 1, 71, 0
3, 26280, Note_on_c, 1, 78, 127
3, 26340, Note_on_c, 1, 78, 0
3, 26340, Note_on_c, 1, 71, 127
3, 26460, Note_on_c, 1, 71, 0
3, 26460, Note_on_c, 1, 79, 127
3, 26520, Note_on_c, 1, 79, 0
3, 26520, Note_on_c, 1, 71, 127
3, 26640, Note_on_c, 1, 71, 0
3, 26640, Note_on_c, 1, 81, 127
3, 26700, Note_on_c, 1, 81, 0
3, 26700, Note_on_c, 1, 71, 127
3, 26820, Note_on_c, 1, 71, 0
3, 26820, Note_on_c, 1, 72, 127
3, 26880, Note_on_c, 1, 72, 0
3, 26880, Note_on_c, 1, 64, 127
3, 26940, Note_on_c, 1, 64, 0
3, 26940, Note_on_c, 1, 60, 127
3, 27000, Note_on_c, 1, 60, 0
3, 27000, Note_on_c, 1, 72, 127
3, 27060, Note_on_c, 1, 72, 0
3, 27060, Note_on_c, 1, 64, 127
3, 27120, Note_on_c, 1, 64, 0
3, 27120, Note_on_c, 1, 60, 127
3, 27180, Note_on_c, 1, 60, 0
3, 27240, Note_on_c, 1, 60, 127
3, 27300, Note_on_c, 1, 60, 0
3, 27300, Note_on_c, 1, 64, 127
3, 27360, Note_on_c, 1, 64, 0
3, 27360, Note_on_c, 1, 72, 127
3, 27420, Note_on_c, 1, 72, 0
3, 27420, Note_on_c, 1, 64, 127
3, 27480, Note_on_c, 1, 64, 0
3, 27480, Note_on_c, 1, 60, 127
3, 27540, Note_on_c, 1, 60, 0
3, 27540, Note_on_c, 1, 64, 127
3, 27600, Note_on_c, 1, 64, 0
3, 27600, Note_on_c, 1, 60, 127
3, 27660, Note_on_c, 1, 60, 0
3, 27660, Note_on_c, 1, 55, 127
3, 27780, Note_on_c, 1, 55, 0
3, 27780, Note_on_c, 1, 64, 127
3, 27840, Note_on_c, 1, 64, 0
3, 27840, Note_on_c, 1, 60, 127
3, 27900, Note_on_c, 1, 60, 0
3, 27900, Note_on_c, 1, 64, 127
3, 27960, Note_on_c, 1, 64, 0
3, 27960, Note_on_c, 1, 62, 127
3, 28020, Note_on_c, 1, 62, 0
3, 28020, Note_on_c, 1, 57, 127
3, 28140, Note_on_c, 1, 57, 0
3, 28140, Note_on_c, 1, 64, 127
3, 28200, Note_on_c, 1, 64, 0
3, 28200, Note_on_c, 1, 62, 127
3, 28260, Note_on_c, 1, 62, 0
3, 28260, Note_on_c, 1, 64, 127
3, 28290, Note_on_c, 1, 64, 0
3, 28290, Note_on_c, 1, 71, 127
3, 28320, Note_on_c, 1, 71, 0
3, 28320, Note_on_c, 1, 59, 127
3, 28380, Note_on_c, 1, 59, 0
3, 28380, Note_on_c, 1, 55, 127
3, 28440, Note_on_c, 1, 55, 0
3, 28440, Note_on_c, 1, 71, 127
3, 28470, Note_on_c, 1, 71, 0
3, 28470, Note_on_c, 1, 64, 127
3, 28500, Note_on_c, 1, 64, 0
3, 28500, Note_on_c, 1, 59, 127
3, 28560, Note_on_c, 1, 59, 0
3, 28560, Note_on_c, 1, 55, 127
3, 28620, Note_on_c, 1, 55, 0
3, 28620, Note_on_c, 1, 40, 127
3, 28680, Note_on_c, 1, 40, 0
3, 28680, Note_on_c, 1, 55, 127
3, 28740, Note_on_c, 1, 55, 0
3, 28740, Note_on_c, 1, 59, 127
3, 28800, Note_on_c, 1, 59, 0
3, 28800, Note_on_c, 1, 64, 127
3, 28980, Note_on_c, 1, 64, 0
3, 28980, Note_on_c, 1, 76, 127
3, 29040, Note_on_c, 1, 76, 0
3, 29040, Note_on_c, 1, 71, 127
3, 29160, Note_on_c, 1, 71, 0
3, 29160, Note_on_c, 1, 78, 127
3, 29220, Note_on_c, 1, 78, 0
3, 29220, Note_on_c, 1, 71, 127
3, 29340, Note_on_c, 1, 71, 0
3, 29340, Note_on_c, 1, 79, 127
3, 29400, Note_on_c, 1, 79, 0
3, 29400, Note_on_c, 1, 71, 127
3, 29520, Note_on_c, 1, 71, 0
3, 29520, Note_on_c, 1, 81, 127
3, 29580, Note_on_c, 1, 81, 0
3, 29580, Note_on_c, 1, 71, 127
3, 29700, Note_on_c, 1, 71, 0
3, 29700, Note_on_c, 1, 72, 127
3, 29760, Note_on_c, 1, 72, 0
3, 29760, Note_on_c, 1, 64, 127
3, 29820, Note_on_c, 1, 64, 0
3, 29820, Note_on_c, 1, 60, 127
3, 29880, Note_on_c, 1, 60, 0
3, 29880, Note_on_c, 1, 72, 127
3, 29940, Note_on_c, 1, 72, 0
3, 29940, Note_on_c, 1, 64, 127
3, 30000, Note_on_c, 1, 64, 0
3, 30000, Note_on_c, 1, 60, 127
3, 30060, Note_on_c, 1, 60, 0
3, 30120, Note_on_c, 1, 60, 127
3, 30180, Note_on_c, 1, 60, 0
3, 30180, Note_on_c, 1, 64, 127
3, 30240, Note_on_c, 1, 64, 0
3, 30240, Note_on_c, 1, 72, 127
3, 30300, Note_on_c, 1, 72, 0
3, 30300, Note_on_c, 1, 64, 127
3, 30360, Note_on_c, 1, 64, 0
3, 30360, Note_on_c, 1, 60, 127
3, 30420, Note_on_c, 1, 60, 0
3, 30420, Note_on_c, 1, 64, 127
3, 30480, Note_on_c, 1, 64, 0
3, 30480, Note_on_c, 1, 60, 127
3, 30540, Note_on_c, 1, 60, 0
3, 30540, Note_on_c, 1, 55, 127
3, 30660, Note_on_c, 1, 55, 0
3, 30660, Note_on_c, 1, 64, 127
3, 30720, Note_on_c, 1, 64, 0
3, 30720, Note_on_c, 1, 60, 127
3, 30780, Note_on_c, 1, 60, 0
3, 30780, Note_on_c, 1, 64, 127
3, 30840, Note_on_c, 1, 64, 0
3, 30840, Note_on_c, 1, 62, 127
3, 30900, Note_on_c, 1, 62, 0
3, 30900, Note_on_c, 1, 57, 127
3, 31020, Note_on_c, 1, 57, 0
3, 31020, Note_on_c, 1, 64, 127
3, 31080, Note_on_c, 1, 64, 0
3, 31080, Note_on_c, 1, 62, 127
3, 31140, Note_on_c, 1, 62, 0
3, 31140, Note_on_c, 1, 64, 127
3, 31170, Note_on_c, 1, 64, 0
3, 31170, Note_on_c, 1, 71, 127
3, 31200, Note_on_c, 1, 71, 0
3, 31200, Note_on_c, 1, 59, 127
3, 31260, Note_on_c, 1, 59, 0
3, 31260, Note_on_c, 1, 55, 127
3, 31320, Note_on_c, 1, 55, 0
3, 31320, Note_on_c, 1, 71, 127
3, 31350, Note_on_c, 1, 71, 0
3, 31350, Note_on_c, 1, 64, 127
3, 31380, Note_on_c, 1, 64, 0
3, 31380, Note_on_c, 1, 59, 127
3, 31440, Note_on_c, 1, 59, 0
3, 31440, Note_on_c, 1, 55, 127
3, 31500, Note_on_c, 1, 55, 0
3, 31500, Note_on_c, 1, 40, 127
3, 31560, Note_on_c, 1, 40, 0
3, 31560, Note_on_c, 1, 55, 127
3, 31620, Note_on_c, 1, 55, 0
3, 31620, Note_on_c, 1, 59, 127
3, 31680, Note_on_c, 1, 59, 0
3, 31680, Note_on_c, 1, 64, 127
3, 31740, Note_on_c, 1, 64, 0
3, 31740, Note_on_c, 1, 59, 127
3, 31800, Note_on_c, 1, 59, 0
3, 31800, Note_on_c, 1, 43, 127
3, 31830, Note_on_c, 1, 43, 0
3, 31830, Note_on_c, 1, 42, 127
3, 31860, Note_on_c, 1, 42, 0
3, 31860, Note_on_c, 1, 40, 127
3, 31920, Note_on_c, 1, 40, 0
3, 31920, Note_on_c, 1, 55, 127
3, 31980, Note_on_c, 1, 55, 0
3, 31980, Note_on_c, 1, 59, 127
3, 32040, Note_on_c, 1, 59, 0
3, 32040, Note_on_c, 1, 67, 127
3, 32100, Note_on_c, 1, 67, 0
3, 32100, Note_on_c, 1, 55, 127
3, 32130, Note_on_c, 1, 55, 0
3, 32130, Note_on_c, 1, 64, 127
3, 32160, Note_on_c, 1, 64, 0
3, 32160, Note_on_c, 1, 59, 127
3, 32190, Note_on_c, 1, 59, 0
3, 32190, Note_on_c, 1, 55, 127
3, 32220, Note_on_c, 1, 55, 0
3, 32220, Note_on_c, 1, 66, 127
3, 32220, Note_on_c, 1, 50, 127
3, 32280, Note_on_c, 1, 66, 0
3, 32280, Note_on_c, 1, 50, 0
3, 32280, Note_on_c, 1, 50, 127
3, 32310, Note_on_c, 1, 50, 0
3, 32310, Note_on_c, 1, 67, 127
3, 32340, Note_on_c, 1, 67, 0
3, 32340, Note_on_c, 1, 62, 127
3, 32370, Note_on_c, 1, 62, 0
3, 32370, Note_on_c, 1, 55, 127
3, 32400, Note_on_c, 1, 55, 0
3, 32400, Note_on_c, 1, 64, 127
3, 32400, Note_on_c, 1, 48, 127
3, 32460, Note_on_c, 1, 64, 0
3, 32460, Note_on_c, 1, 48, 0
3, 32460, Note_on_c, 1, 62, 127
3, 32490, Note_on_c, 1, 62, 0
3, 32490, Note_on_c, 1, 55, 127
3, 32520, Note_on_c, 1, 55, 0
3, 32520, Note_on_c, 1, 43, 127
3, 32550, Note_on_c, 1, 43, 0
3, 32550, Note_on_c, 1, 42, 127
3, 32580, Note_on_c, 1, 42, 0
3, 32580, Note_on_c, 1, 40, 127
3, 32640, Note_on_c, 1, 40, 0
3, 32640, Note_on_c, 1, 55, 127
3, 32700, Note_on_c, 1, 55, 0
3, 32700, Note_on_c, 1, 59, 127
3, 32760, Note_on_c, 1, 59, 0
3, 32760, Note_on_c, 1, 67, 127
3, 32820, Note_on_c, 1, 67, 0
3, 32820, Note_on_c, 1, 55, 127
3, 32850, Note_on_c, 1, 55, 0
3, 32850, Note_on_c, 1, 64, 127
3, 32880, Note_on_c, 1, 64, 0
3, 32880, Note_on_c, 1, 59, 127
3, 32910, Note_on_c, 1, 59, 0
3, 32910, Note_on_c, 1, 55, 127
3, 32940, Note_on_c, 1, 55, 0
3, 32940, Note_on_c, 1, 50, 127
3, 32940, Note_on_c, 1, 66, 127
3, 33000, Note_on_c, 1, 50, 0
3, 33000, Note_on_c, 1, 66, 0
3, 33000, Note_on_c, 1, 50, 127
3, 33030, Note_on_c, 1, 50, 0
3, 33030, Note_on_c, 1, 62, 127
3, 33060, Note_on_c, 1, 62, 0
3, 33060, Note_on_c, 1, 57, 127
3, 33090, Note_on_c, 1, 57, 0
3, 33090, Note_on_c, 1, 55, 127
3, 33120, Note_on_c, 1, 55, 0
3, 33120, Note_on_c, 1, 62, 127
3, 33120, Note_on_c, 1, 48, 127
3, 33180, Note_on_c, 1, 62, 0
3, 33180, Note_on_c, 1, 48, 0
3, 33180, Note_on_c, 1, 55, 127
3, 33210, Note_on_c, 1, 55, 0
3, 33210, Note_on_c, 1, 62, 127
3, 33240, Note_on_c, 1, 62, 0
3, 33240, Note_on_c, 1, 43, 127
3, 33270, Note_on_c, 1, 43, 0
3, 33270, Note_on_c, 1, 42, 127
3, 33300, Note_on_c, 1, 42, 0
3, 33300, Note_on_c, 1, 40, 127
3, 33360, Note_on_c, 1, 40, 0
3, 33360, Note_on_c, 1, 55, 127
3, 33420, Note_on_c, 1, 55, 0
3, 33420, Note_on_c, 1, 59, 127
3, 33480, Note_on_c, 1, 59, 0
3, 33480, Note_on_c, 1, 67, 127
3, 33540, Note_on_c, 1, 67, 0
3, 33540, Note_on_c, 1, 55, 127
3, 33570, Note_on_c, 1, 55, 0
3, 33570, Note_on_c, 1, 64, 127
3, 33600, Note_on_c, 1, 64, 0
3, 33600, Note_on_c, 1, 59, 127
3, 33630, Note_on_c, 1, 59, 0
3, 33630, Note_on_c, 1, 55, 127
3, 33660, Note_on_c, 1, 55, 0
3, 33660, Note_on_c, 1, 50, 127
3, 33660, Note_on_c, 1, 66, 127
3, 33720, Note_on_c, 1, 50, 0
3, 33720, Note_on_c, 1, 66, 0
3, 33720, Note_on_c, 1, 50, 127
3, 33750, Note_on_c, 1, 50, 0
3, 33750, Note_on_c, 1, 67, 127
3, 33780, Note_on_c, 1, 67, 0
3, 33780, Note_on_c, 1, 62, 127
3, 33810, Note_on_c, 1, 62, 0
3, 33810, Note_on_c, 1, 55, 127
3, 33840, Note_on_c, 1, 55, 0
3, 33840, Note_on_c, 1, 67, 127
3, 33840, Note_on_c, 1, 48, 127
3, 33900, Note_on_c, 1, 67, 0
3, 33900, Note_on_c, 1, 48, 0
3, 33900, Note_on_c, 1, 62, 127
3, 33960, Note_on_c, 1, 62, 0
3, 33960, Note_on_c, 1, 55, 127
3, 34020, Note_on_c, 1, 55, 0
3, 34020, Note_on_c, 1, 43, 127
3, 34080, Note_on_c, 1, 43, 0
3, 34080, Note_on_c, 1, 55, 127
3, 34140, Note_on_c, 1, 55, 0
3, 34140, Note_on_c, 1, 67, 127
3, 34140, Note_on_c, 1, 62, 127
3, 34200, Note_on_c, 1, 67, 0
3, 34200, Note_on_c, 1, 62, 0
3, 34200, Note_on_c, 1, 47, 127
3, 34200, Note_on_c, 1, 59, 127
3, 34200, Note_on_c, 1, 57, 127
3, 34200, Note_on_c, 1, 66, 127
3, 34260, Note_on_c, 1, 47, 0
3, 34260, Note_on_c, 1, 59, 0
3, 34260, Note_on_c, 1, 57, 0
3, 34260, Note_on_c, 1, 66, 0
3, 34260, Note_on_c, 1, 47, 127
3, 34290, Note_on_c, 1, 47, 0
3, 34290, Note_on_c, 1, 66, 127
3, 34320, Note_on_c, 1, 66, 0
3, 34320, Note_on_c, 1, 59, 127
3, 34380, Note_on_c, 1, 59, 0
3, 34380, Note_on_c, 1, 40, 127
3, 34380, Note_on_c, 1, 64, 127
3, 34440, Note_on_c, 1, 40, 0
3, 34440, Note_on_c, 1, 64, 0
3, 34440, Note_on_c, 1, 55, 127
3, 34500, Note_on_c, 1, 55, 0
3, 34500, Note_on_c, 1, 59, 127
3, 34560, Note_on_c, 1, 59, 0
3, 34560, Note_on_c, 1, 64, 127
3, 34620, Note_on_c, 1, 64, 0
3, 34620, Note_on_c, 1, 59, 127
3, 34680, Note_on_c, 1, 59, 0
3, 34680, Note_on_c, 1, 55, 127
3, 34740, Note_on_c, 1, 55, 0
3, 34740, Note_on_c, 1, 40, 127
3, 34800, Note_on_c, 1, 40, 0
3, 34800, Note_on_c, 1, 55, 127
3, 34860, Note_on_c, 1, 55, 0
3, 34860, Note_on_c, 1, 59, 127
3, 34920, Note_on_c, 1, 59, 0
3, 34920, Note_on_c, 1, 64, 127
3, 34980, Note_on_c, 1, 64, 0
3, 34980, Note_on_c, 1, 59, 127
3, 35040, Note_on_c, 1, 59, 0
3, 35040, Note_on_c, 1, 43, 127
3, 35070, Note_on_c, 1, 43, 0
3, 35070, Note_on_c, 1, 42, 127
3, 35100, Note_on_c, 1, 42, 0
3, 35100, Note_on_c, 1, 40, 127
3, 35160, Note_on_c, 1, 40, 0
3, 35160, Note_on_c, 1, 55, 127
3, 35220, Note_on_c, 1, 55, 0
3, 35220, Note_on_c, 1, 59, 127
3, 35280, Note_on_c, 1, 59, 0
3, 35280, Note_on_c, 1, 67, 127
3, 35340, Note_on_c, 1, 67, 0
3, 35340, Note_on_c, 1, 55, 127
3, 35370, Note_on_c, 1, 55, 0
3, 35370, Note_on_c, 1, 64, 127
3, 35400, Note_on_c, 1, 64, 0
3, 35400, Note_on_c, 1, 59, 127
3, 35430, Note_on_c, 1, 59, 0
3, 35430, Note_on_c, 1, 55, 127
3, 35460, Note_on_c, 1, 55, 0
3, 35460, Note_on_c, 1, 66, 127
3, 35460, Note_on_c, 1, 50, 127
3, 35520, Note_on_c, 1, 66, 0
3, 35520, Note_on_c, 1, 50, 0
3, 35520, Note_on_c, 1, 50, 127
3, 35550, Note_on_c, 1, 50, 0
3, 35550, Note_on_c, 1, 67, 127
3, 35580, Note_on_c, 1, 67, 0
3, 35580, Note_on_c, 1, 62, 127
3, 35610, Note_on_c, 1, 62, 0
3, 35610, Note_on_c, 1, 55, 127
3, 35640, Note_on_c, 1, 55, 0
3, 35640, Note_on_c, 1, 64, 127
3, 35640, Note_on_c, 1, 48, 127
3, 35700, Note_on_c, 1, 64, 0
3, 35700, Note_on_c, 1, 48, 0
3, 35700, Note_on_c, 1, 62, 127
3, 35730, Note_on_c, 1, 62, 0
3, 35730, Note_on_c, 1, 55, 127
3, 35760, Note_on_c, 1, 55, 0
3, 35760, Note_on_c, 1, 43, 127
3, 35790, Note_on_c, 1, 43, 0
3, 35790, Note_on_c, 1, 42, 127
3, 35820, Note_on_c, 1, 42, 0
3, 35820, Note_on_c, 1, 40, 127
3, 35880, Note_on_c, 1, 40, 0
3, 35880, Note_on_c, 1, 55, 127
3, 35940, Note_on_c, 1, 55, 0
3, 35940, Note_on_c, 1, 59, 127
3, 36000, Note_on_c, 1, 59, 0
3, 36000, Note_on_c, 1, 67, 127
3, 36060, Note_on_c, 1, 67, 0
3, 36060, Note_on_c, 1, 55, 127
3, 36090, Note_on_c, 1, 55, 0
3, 36090, Note_on_c, 1, 64, 127
3, 36120, Note_on_c, 1, 64, 0
3, 36120, Note_on_c, 1, 59, 127
3, 36150, Note_on_c, 1, 59, 0
3, 36150, Note_on_c, 1, 55, 127
3, 36180, Note_on_c, 1, 55, 0
3, 36180, Note_on_c, 1, 50, 127
3, 36180, Note_on_c, 1, 66, 127
3, 36240, Note_on_c, 1, 50, 0
3, 36240, Note_on_c, 1, 66, 0
3, 36240, Note_on_c, 1, 50, 127
3, 36270, Note_on_c, 1, 50, 0
3, 36270, Note_on_c, 1, 62, 127
3, 36300, Note_on_c, 1, 62, 0
3, 36300, Note_on_c, 1, 57, 127
3, 36330, Note_on_c, 1, 57, 0
3, 36330, Note_on_c, 1, 55, 127
3, 36360, Note_on_c, 1, 55, 0
3, 36360, Note_on_c, 1, 62, 127
3, 36360, Note_on_c, 1, 48, 127
3, 36420, Note_on_c, 1, 62, 0
3, 36420, Note_on_c, 1, 48, 0
3, 36420, Note_on_c, 1, 55, 127
3, 36450, Note_on_c, 1, 55, 0
3, 36450, Note_on_c, 1, 62, 127
3, 36480, Note_on_c, 1, 62, 0
3, 36480, Note_on_c, 1, 43, 127
3, 36510, Note_on_c, 1, 43, 0
3, 36510, Note_on_c, 1, 42, 127
3, 36540, Note_on_c, 1, 42, 0
3, 36540, Note_on_c, 1, 40, 127
3, 36600, Note_on_c, 1, 40, 0
3, 36600, Note_on_c, 1, 55, 127
3, 36660, Note_on_c, 1, 55, 0
3, 36660, Note_on_c, 1, 59, 127
3, 36720, Note_on_c, 1, 59, 0
3, 36720, Note_on_c, 1, 67, 127
3, 36780, Note_on_c, 1, 67, 0
3, 36780, Note_on_c, 1, 55, 127
3, 36810, Note_on_c, 1, 55, 0
3, 36810, Note_on_c, 1, 64, 127
3, 36840, Note_on_c, 1, 64, 0
3, 36840, Note_on_c, 1, 59, 127
3, 36870, Note_on_c, 1, 59, 0
3, 36870, Note_on_c, 1, 55, 127
3, 36900, Note_on_c, 1, 55, 0
3, 36900, Note_on_c, 1, 50, 127
3, 36900, Note_on_c, 1, 66, 127
3, 36960, Note_on_c, 1, 50, 0
3, 36960, Note_on_c, 1, 66, 0
3, 36960, Note_on_c, 1, 50, 127
3, 36990, Note_on_c, 1, 50, 0
3, 36990, Note_on_c, 1, 67, 127
3, 37020, Note_on_c, 1, 67, 0
3, 37020, Note_on_c, 1, 62, 127
3, 37050, Note_on_c, 1, 62, 0
3, 37050, Note_on_c, 1, 55, 127
3, 37080, Note_on_c, 1, 55, 0
3, 37080, Note_on_c, 1, 67, 127
3, 37080, Note_on_c, 1, 48, 127
3, 37140, Note_on_c, 1, 67, 0
3, 37140, Note_on_c, 1, 48, 0
3, 37140, Note_on_c, 1, 62, 127
3, 37200, Note_on_c, 1, 62, 0
3, 37200, Note_on_c, 1, 55, 127
3, 37260, Note_on_c, 1, 55, 0
3, 37260, Note_on_c, 1, 43, 127
3, 37320, Note_on_c, 1, 43, 0
3, 37320, Note_on_c, 1, 55, 127
3, 37380, Note_on_c, 1, 55, 0
3, 37380, Note_on_c, 1, 67, 127
3, 37380, Note_on_c, 1, 62, 127
3, 37440, Note_on_c, 1, 67, 0
3, 37440, Note_on_c, 1, 62, 0
3, 37440, Note_on_c, 1, 47, 127
3, 37440, Note_on_c, 1, 59, 127
3, 37440, Note_on_c, 1, 57, 127
3, 37440, Note_on_c, 1, 66, 127
3, 37500, Note_on_c, 1, 47, 0
3, 37500, Note_on_c, 1, 59, 0
3, 37500, Note_on_c, 1, 57, 0
3, 37500, Note_on_c, 1, 66, 0
3, 37500, Note_on_c, 1, 47, 127
3, 37530, Note_on_c, 1, 47, 0
3, 37530, Note_on_c, 1, 66, 127
3, 37560, Note_on_c, 1, 66, 0
3, 37560, Note_on_c, 1, 59, 127
3, 37620, Note_on_c, 1, 59, 0
3, 37620, Note_on_c, 1, 40, 127
3, 37620, Note_on_c, 1, 64, 127
3, 37680, Note_on_c, 1, 40, 0
3, 37680, Note_on_c, 1, 64, 0
3, 37680, Note_on_c, 1, 55, 127
3, 37740, Note_on_c, 1, 55, 0
3, 37740, Note_on_c, 1, 59, 127
3, 37800, Note_on_c, 1, 59, 0
3, 37800, Note_on_c, 1, 64, 127
3, 37860, Note_on_c, 1, 64, 0
3, 37860, Note_on_c, 1, 59, 127
3, 37920, Note_on_c, 1, 59, 0
3, 37920, Note_on_c, 1, 55, 127
3, 37980, Note_on_c, 1, 55, 0
3, 37980, Note_on_c, 1, 64, 127
3, 37980, Note_on_c, 1, 60, 127
3, 37980, Note_on_c, 1, 55, 127
3, 37980, Note_on_c, 1, 52, 127
3, 37980, Note_on_c, 1, 48, 127
3, 38160, Note_on_c, 1, 61, 127
3, 38160, Note_on_c, 1, 57, 127
3, 38160, Note_on_c, 1, 52, 127
3, 38160, Note_on_c, 1, 45, 127
3, 38340, Note_on_c, 1, 64, 0
3, 38340, Note_on_c, 1, 60, 0
3, 38340, Note_on_c, 1, 55, 0
3, 38340, Note_on_c, 1, 52, 0
3, 38340, Note_on_c, 1, 48, 0
3, 38340, Note_on_c, 1, 61, 0
3, 38340, Note_on_c, 1, 57, 0
3, 38340, Note_on_c, 1, 52, 0
3, 38340, Note_on_c, 1, 45, 0
3, 41400, Note_on_c, 1, 40, 127
3, 41460, Note_on_c, 1, 40, 0
3, 41460, Note_on_c, 1, 55, 127
3, 41520, Note_on_c, 1, 55, 0
3, 41520, Note_on_c, 1, 59, 127
3, 41580, Note_on_c, 1, 59, 0
3, 41580, Note_on_c, 1, 64, 127
3, 41640, Note_on_c, 1, 64, 0
3, 41640, Note_on_c, 1, 59, 127
3, 41700, Note_on_c, 1, 59, 0
3, 41700, Note_on_c, 1, 55, 127
3, 41760, Note_on_c, 1, 55, 0
3, 41760, Note_on_c, 1, 40, 127
3, 41820, Note_on_c, 1, 40, 0
3, 41820, Note_on_c, 1, 55, 127
3, 41880, Note_on_c, 1, 55, 0
3, 41880, Note_on_c, 1, 59, 127
3, 41940, Note_on_c, 1, 59, 0
3, 41940, Note_on_c, 1, 64, 127
3, 42000, Note_on_c, 1, 64, 0
3, 42000, Note_on_c, 1, 59, 127
3, 42060, Note_on_c, 1, 59, 0
3, 42060, Note_on_c, 1, 55, 127
3, 42120, Note_on_c, 1, 55, 0
3, 44640, Note_on_c, 1, 40, 127
3, 44700, Note_on_c, 1, 40, 0
3, 44700, Note_on_c, 1, 55, 127
3, 44760, Note_on_c, 1, 55, 0
3, 44760, Note_on_c, 1, 59, 127
3, 44820, Note_on_c, 1, 59, 0
3, 44820, Note_on_c, 1, 64, 127
3, 44880, Note_on_c, 1, 64, 0
3, 44880, Note_on_c, 1, 59, 127
3, 44940, Note_on_c, 1, 59, 0
3, 44940, Note_on_c, 1, 55, 127
3, 45000, Note_on_c, 1, 55, 0
3, 45000, Note_on_c, 1, 40, 127
3, 45060, Note_on_c, 1, 40, 0
3, 45060, Note_on_c, 1, 55, 127
3, 45120, Note_on_c, 1, 55, 0
3, 45120, Note_on_c, 1, 59, 127
3, 45180, Note_on_c, 1, 59, 0
3, 45180, Note_on_c, 1, 64, 127
3, 45240, Note_on_c, 1, 64, 0
3, 45240, Note_on_c, 1, 59, 127
3, 45300, Note_on_c, 1, 59, 0
3, 45300, Note_on_c, 1, 55, 127
3, 45360, Note_on_c, 1, 55, 0
3, 45360, Note_on_c, 1, 40, 127
3, 45420, Note_on_c, 1, 40, 0
3, 45420, Note_on_c, 1, 55, 127
3, 45480, Note_on_c, 1, 55, 0
3, 45480, Note_on_c, 1, 59, 127
3, 45540, Note_on_c, 1, 59, 0
3, 45540, Note_on_c, 1, 64, 127
3, 45600, Note_on_c, 1, 64, 0
3, 45600, Note_on_c, 1, 59, 127
3, 45660, Note_on_c, 1, 59, 0
3, 45660, Note_on_c, 1, 55, 127
3, 45720, Note_on_c, 1, 55, 0
3, 45720, Note_on_c, 1, 40, 127
3, 45780, Note_on_c, 1, 40, 0
3, 45780, Note_on_c, 1, 55, 127
3, 45840, Note_on_c, 1, 55, 0
3, 45840, Note_on_c, 1, 59, 127
3, 45900, Note_on_c, 1, 59, 0
3, 45900, Note_on_c, 1, 64, 127
3, 45960, Note_on_c, 1, 64, 0
3, 45960, Note_on_c, 1, 59, 127
3, 46020, Note_on_c, 1, 59, 0
3, 46020, Note_on_c, 1, 55, 127
3, 46080, Note_on_c, 1, 55, 0
3, 46080, Note_on_c, 1, 40, 127
3, 46140, Note_on_c, 1, 40, 0
3, 46140, Note_on_c, 1, 55, 127
3, 46200, Note_on_c, 1, 55, 0
3, 46200, Note_on_c, 1, 59, 127
3, 46260, Note_on_c, 1, 59, 0
3, 46260, Note_on_c, 1, 67, 127
3, 46320, Note_on_c, 1, 67, 0
3, 46320, Note_on_c, 1, 55, 127
3, 46350, Note_on_c, 1, 55, 0
3, 46350, Note_on_c, 1, 64, 127
3, 46380, Note_on_c, 1, 64, 0
3, 46380, Note_on_c, 1, 59, 127
3, 46410, Note_on_c, 1, 59, 0
3, 46410, Note_on_c, 1, 55, 127
3, 46440, Note_on_c, 1, 55, 0
3, 46440, Note_on_c, 1, 66, 127
3, 46440, Note_on_c, 1, 50, 127
3, 46500, Note_on_c, 1, 66, 0
3, 46500, Note_on_c, 1, 50, 0
3, 46500, Note_on_c, 1, 50, 127
3, 46530, Note_on_c, 1, 50, 0
3, 46530, Note_on_c, 1, 67, 127
3, 46560, Note_on_c, 1, 67, 0
3, 46560, Note_on_c, 1, 62, 127
3, 46590, Note_on_c, 1, 62, 0
3, 46590, Note_on_c, 1, 55, 127
3, 46620, Note_on_c, 1, 55, 0
3, 46620, Note_on_c, 1, 64, 127
3, 46620, Note_on_c, 1, 48, 127
3, 46680, Note_on_c, 1, 64, 0
3, 46680, Note_on_c, 1, 48, 0
3, 46680, Note_on_c, 1, 62, 127
3, 46710, Note_on_c, 1, 62, 0
3, 46710, Note_on_c, 1, 55, 127
3, 46740, Note_on_c, 1, 55, 0
3, 46740, Note_on_c, 1, 43, 127
3, 46770, Note_on_c, 1, 43, 0
3, 46770, Note_on_c, 1, 42, 127
3, 46800, Note_on_c, 1, 42, 0
3, 46800, Note_on_c, 1, 40, 127
3, 46860, Note_on_c, 1, 40, 0
3, 46860, Note_on_c, 1, 55, 127
3, 46920, Note_on_c, 1, 55, 0
3, 46920, Note_on_c, 1, 59, 127
3, 46980, Note_on_c, 1, 59, 0
3, 46980, Note_on_c, 1, 67, 127
3, 47040, Note_on_c, 1, 67, 0
3, 47040, Note_on_c, 1, 55, 127
3, 47070, Note_on_c, 1, 55, 0
3, 47070, Note_on_c, 1, 64, 127
3, 47100, Note_on_c, 1, 64, 0
3, 47100, Note_on_c, 1, 59, 127
3, 47130, Note_on_c, 1, 59, 0
3, 47130, Note_on_c, 1, 55, 127
3, 47160, Note_on_c, 1, 55, 0
3, 47160, Note_on_c, 1, 50, 127
3, 47160, Note_on_c, 1, 66, 127
3, 47220, Note_on_c, 1, 50, 0
3, 47220, Note_on_c, 1, 66, 0
3, 47220, Note_on_c, 1, 50, 127
3, 47250, Note_on_c, 1, 50, 0
3, 47250, Note_on_c, 1, 62, 127
3, 47280, Note_on_c, 1, 62, 0
3, 47280, Note_on_c, 1, 57, 127
3, 47310, Note_on_c, 1, 57, 0
3, 47310, Note_on_c, 1, 55, 127
3, 47340, Note_on_c, 1, 55, 0
3, 47340, Note_on_c, 1, 62, 127
3, 47340, Note_on_c, 1, 48, 127
3, 47400, Note_on_c, 1, 62, 0
3, 47400, Note_on_c, 1, 48, 0
3, 47400, Note_on_c, 1, 55, 127
3, 47430, Note_on_c, 1, 55, 0
3, 47430, Note_on_c, 1, 62, 127
3, 47460, Note_on_c, 1, 62, 0
3, 47460, Note_on_c, 1, 43, 127
3, 47490, Note_on_c, 1, 43, 0
3, 47490, Note_on_c, 1, 42, 127
3, 47520, Note_on_c, 1, 42, 0
3, 47520, Note_on_c, 1, 40, 127
3, 47580, Note_on_c, 1, 40, 0
3, 47580, Note_on_c, 1, 55, 127
3, 47640, Note_on_c, 1, 55, 0
3, 47640, Note_on_c, 1, 59, 127
3, 47700, Note_on_c, 1, 59, 0
3, 47700, Note_on_c, 1, 67, 127
3, 47760, Note_on_c, 1, 67, 0
3, 47760, Note_on_c, 1, 55, 127
3, 47790, Note_on_c, 1, 55, 0
3, 47790, Note_on_c, 1, 64, 127
3, 47820, Note_on_c, 1, 64, 0
3, 47820, Note_on_c, 1, 59, 127
3, 47850, Note_on_c, 1, 59, 0
3, 47850, Note_on_c, 1, 55, 127
3, 47880, Note_on_c, 1, 55, 0
3, 47880, Note_on_c, 1, 50, 127
3, 47880, Note_on_c, 1, 66, 127
3, 47940, Note_on_c, 1, 50, 0
3, 47940, Note_on_c, 1, 66, 0
3, 47940, Note_on_c, 1, 50, 127
3, 47970, Note_on_c, 1, 50, 0
3, 47970, Note_on_c, 1, 67, 127
3, 48000, Note_on_c, 1, 67, 0
3, 48000, Note_on_c, 1, 62, 127
3, 48030, Note_on_c, 1, 62, 0
3, 48030, Note_on_c, 1, 55, 127
3, 48060, Note_on_c, 1, 55, 0
3, 48060, Note_on_c, 1, 67, 127
3, 48060, Note_on_c, 1, 48, 127
3, 48120, Note_on_c, 1, 67, 0
3, 48120, Note_on_c, 1, 48, 0
3, 48120, Note_on_c, 1, 62, 127
3, 48180, Note_on_c, 1, 62, 0
3, 48180, Note_on_c, 1, 55, 127
3, 48240, Note_on_c, 1, 55, 0
3, 48240, Note_on_c, 1, 43, 127
3, 48300, Note_on_c, 1, 43, 0
3, 48300, Note_on_c, 1, 55, 127
3, 48360, Note_on_c, 1, 55, 0
3, 48360, Note_on_c, 1, 67, 127
3, 48360, Note_on_c, 1, 62, 127
3, 48420, Note_on_c, 1, 67, 0
3, 48420, Note_on_c, 1, 62, 0
3, 48420, Note_on_c, 1, 47, 127
3, 48420, Note_on_c, 1, 57, 127
3, 48420, Note_on_c, 1, 59, 127
3, 48420, Note_on_c, 1, 66, 127
3, 48510, Note_on_c, 1, 47, 0
3, 48510, Note_on_c, 1, 57, 0
3, 48510, Note_on_c, 1, 59, 0
3, 48510, Note_on_c, 1, 66, 0
3, 48510, Note_on_c, 1, 47, 127
3, 48510, Note_on_c, 1, 59, 127
3, 48510, Note_on_c, 1, 57, 127
3, 48510, Note_on_c, 1, 66, 127
3, 48600, Note_on_c, 1, 47, 0
3, 48600, Note_on_c, 1, 59, 0
3, 48600, Note_on_c, 1, 57, 0
3, 48600, Note_on_c, 1, 66, 0
3, 48600, Note_on_c, 1, 40, 127
3, 48600, Note_on_c, 1, 60, 127
3, 48660, Note_on_c, 1, 40, 0
3, 48660, Note_on_c, 1, 60, 0
3, 48660, Note_on_c, 1, 55, 127
3, 48720, Note_on_c, 1, 55, 0
3, 48720, Note_on_c, 1, 59, 127
3, 48780, Note_on_c, 1, 59, 0
3, 48780, Note_on_c, 1, 64, 127
3, 48840, Note_on_c, 1, 64, 0
3, 48840, Note_on_c, 1, 59, 127
3, 48900, Note_on_c, 1, 59, 0
3, 48900, Note_on_c, 1, 55, 127
3, 48960, Note_on_c, 1, 55, 0
3, 48960, Note_on_c, 1, 40, 127
3, 49020, Note_on_c, 1, 40, 0
3, 49020, Note_on_c, 1, 55, 127
3, 49080, Note_on_c, 1, 55, 0
3, 49080, Note_on_c, 1, 59, 127
3, 49140, Note_on_c, 1, 59, 0
3, 49140, Note_on_c, 1, 64, 127
3, 49200, Note_on_c, 1, 64, 0
3, 49200, Note_on_c, 1, 59, 127
3, 49260, Note_on_c, 1, 59, 0
3, 49260, Note_on_c, 1, 71, 127
3, 49320, Note_on_c, 1, 71, 0
3, 49320, Note_on_c, 1, 40, 127
3, 49320, Note_on_c, 1, 71, 127
3, 49380, Note_on_c, 1, 40, 0
3, 49380, Note_on_c, 1, 71, 0
3, 49380, Note_on_c, 1, 59, 127
3, 49440, Note_on_c, 1, 59, 0
3, 49440, Note_on_c, 1, 55, 127
3, 49500, Note_on_c, 1, 55, 0
3, 49500, Note_on_c, 1, 71, 127
3, 49530, Note_on_c, 1, 71, 0
3, 49530, Note_on_c, 1, 64, 127
3, 49560, Note_on_c, 1, 64, 0
3, 49560, Note_on_c, 1, 59, 127
3, 49620, Note_on_c, 1, 59, 0
3, 49620, Note_on_c, 1, 55, 127
3, 49680, Note_on_c, 1, 55, 0
3, 49680, Note_on_c, 1, 40, 127
3, 49740, Note_on_c, 1, 40, 0
3, 49740, Note_on_c, 1, 55, 127
3, 49800, Note_on_c, 1, 55, 0
3, 49800, Note_on_c, 1, 71, 127
3, 49800, Note_on_c, 1, 59, 127
3, 49860, Note_on_c, 1, 71, 0
3, 49860, Note_on_c, 1, 59, 0
3, 49860, Note_on_c, 1, 59, 127
3, 49860, Note_on_c, 1, 72, 127
3, 49920, Note_on_c, 1, 59, 0
3, 49920, Note_on_c, 1, 72, 0
3, 49920, Note_on_c, 1, 71, 127
3, 49960, Note_on_c, 1, 71, 0
3, 49960, Note_on_c, 1, 72, 127
3, 49970, Note_on_c, 1, 72, 0
3, 49970, Note_on_c, 1, 71, 127
3, 49980, Note_on_c, 1, 71, 0
3, 49980, Note_on_c, 1, 69, 127
3, 50010, Note_on_c, 1, 69, 0
3, 50010, Note_on_c, 1, 59, 127
3, 50010, Note_on_c, 1, 71, 127
3, 50070, Note_on_c, 1, 59, 0
3, 50070, Note_on_c, 1, 71, 0
3, 50070, Note_on_c, 1, 69, 127
3, 50100, Note_on_c, 1, 69, 0
3, 50100, Note_on_c, 1, 67, 127
3, 50130, Note_on_c, 1, 67, 0
3, 50130, Note_on_c, 1, 64, 127
3, 50190, Note_on_c, 1, 64, 0
3, 50190, Note_on_c, 1, 40, 127
3, 50190, Note_on_c, 1, 64, 127
3, 50250, Note_on_c, 1, 40, 0
3, 50250, Note_on_c, 1, 64, 0
3, 50250, Note_on_c, 1, 55, 127
3, 50310, Note_on_c, 1, 55, 0
3, 50310, Note_on_c, 1, 59, 127
3, 50370, Note_on_c, 1, 59, 0
3, 50370, Note_on_c, 1, 64, 127
3, 50430, Note_on_c, 1, 64, 0
3, 50430, Note_on_c, 1, 59, 127
3, 50490, Note_on_c, 1, 59, 0
3, 50490, Note_on_c, 1, 55, 127
3, 50550, Note_on_c, 1, 55, 0
3, 50550, Note_on_c, 1, 40, 127
3, 50610, Note_on_c, 1, 40, 0
3, 50610, Note_on_c, 1, 55, 127
3, 50670, Note_on_c, 1, 55, 0
3, 50670, Note_on_c, 1, 59, 127
3, 50730, Note_on_c, 1, 59, 0
3, 50730, Note_on_c, 1, 64, 127
3, 50790, Note_on_c, 1, 64, 0
3, 50790, Note_on_c, 1, 59, 127
3, 50850, Note_on_c, 1, 59, 0
3, 50850, Note_on_c, 1, 71, 127
3, 50910, Note_on_c, 1, 71, 0
3, 50910, Note_on_c, 1, 40, 127
3, 50910, Note_on_c, 1, 71, 127
3, 50970, Note_on_c, 1, 40, 0
3, 50970, Note_on_c, 1, 71, 0
3, 50970, Note_on_c, 1, 59, 127
3, 51030, Note_on_c, 1, 59, 0
3, 51030, Note_on_c, 1, 55, 127
3, 51090, Note_on_c, 1, 55, 0
3, 51090, Note_on_c, 1, 71, 127
3, 51120, Note_on_c, 1, 71, 0
3, 51120, Note_on_c, 1, 64, 127
3, 51150, Note_on_c, 1, 64, 0
3, 51150, Note_on_c, 1, 59, 127
3, 51210, Note_on_c, 1, 59, 0
3, 51210, Note_on_c, 1, 55, 127
3, 51270, Note_on_c, 1, 55, 0
3, 51270, Note_on_c, 1, 40, 127
3, 51330, Note_on_c, 1, 40, 0
3, 51330, Note_on_c, 1, 55, 127
3, 51390, Note_on_c, 1, 55, 0
3, 51390, Note_on_c, 1, 71, 127
3, 51390, Note_on_c, 1, 59, 127
3, 51450, Note_on_c, 1, 71, 0
3, 51450, Note_on_c, 1, 59, 0
3, 51450, Note_on_c, 1, 59, 127
3, 51450, Note_on_c, 1, 72, 127
3, 51510, Note_on_c, 1, 59, 0
3, 51510, Note_on_c, 1, 72, 0
3, 51510, Note_on_c, 1, 71, 127
3, 51550, Note_on_c, 1, 71, 0
3, 51550, Note_on_c, 1, 72, 127
3, 51560, Note_on_c, 1, 72, 0
3, 51560, Note_on_c, 1, 71, 127
3, 51570, Note_on_c, 1, 71, 0
3, 51570, Note_on_c, 1, 69, 127
3, 51600, Note_on_c, 1, 69, 0
3, 51600, Note_on_c, 1, 59, 127
3, 51600, Note_on_c, 1, 71, 127
3, 51660, Note_on_c, 1, 59, 0
3, 51660, Note_on_c, 1, 71, 0
3, 51660, Note_on_c, 1, 69, 127
3, 51690, Note_on_c, 1, 69, 0
3, 51690, Note_on_c, 1, 67, 127
3, 51720, Note_on_c, 1, 67, 0
3, 51720, Note_on_c, 1, 64, 127
3, 51780, Note_on_c, 1, 64, 0
3, 51780, Note_on_c, 1, 40, 127
3, 51780, Note_on_c, 1, 64, 127
3, 51840, Note_on_c, 1, 40, 0
3, 51840, Note_on_c, 1, 64, 0
3, 51840, Note_on_c, 1, 55, 127
3, 51900, Note_on_c, 1, 55, 0
3, 51900, Note_on_c, 1, 59, 127
3, 51960, Note_on_c, 1, 59, 0
3, 51960, Note_on_c, 1, 64, 127
3, 52020, Note_on_c, 1, 64, 0
3, 52020, Note_on_c, 1, 59, 127
3, 52080, Note_on_c, 1, 59, 0
3, 52080, Note_on_c, 1, 55, 127
3, 52140, Note_on_c, 1, 55, 0
3, 52140, Note_on_c, 1, 40, 127
3, 52200, Note_on_c, 1, 40, 0
3, 52200, Note_on_c, 1, 55, 127
3, 52260, Note_on_c, 1, 55, 0
3, 52260, Note_on_c, 1, 59, 127
3, 52320, Note_on_c, 1, 59, 0
3, 52320, Note_on_c, 1, 64, 127
3, 52380, Note_on_c, 1, 64, 0
3, 52380, Note_on_c, 1, 59, 127
3, 52440, Note_on_c, 1, 59, 0
3, 52440, Note_on_c, 1, 71, 127
3, 52500, Note_on_c, 1, 71, 0
3, 52500, Control_c, 1, 7, 100
3, 52500, Note_on_c, 1, 40, 127
3, 52500, Note_on_c, 1, 71, 127
3, 52518, Control_c, 1, 7, 99
3, 52536, Control_c, 1, 7, 98
3, 52554, Control_c, 1, 7, 97
3, 52560, Note_on_c, 1, 40, 0
3, 52560, Note_on_c, 1, 71, 0
3, 52560, Note_on_c, 1, 59, 127
3, 52572, Control_c, 1, 7, 96
3, 52590, Control_c, 1, 7, 95
3, 52608, Control_c, 1, 7, 94
3, 52620, Note_on_c, 1, 59, 0
3, 52620, Note_on_c, 1, 55, 127
3, 52626, Control_c, 1, 7, 93
3, 52644, Control_c, 1, 7, 92
3, 52662, Control_c, 1, 7, 91
3, 52680, Note_on_c, 1, 55, 0
3, 52680, Control_c, 1, 7, 90
3, 52680, Note_on_c, 1, 71, 127
3, 52698, Control_c, 1, 7, 89
3, 52710, Note_on_c, 1, 71, 0
3, 52710, Note_on_c, 1, 64, 127
3, 52716, Control_c, 1, 7, 88
3, 52734, Control_c, 1, 7, 87
3, 52740, Note_on_c, 1, 64, 0
3, 52740, Note_on_c, 1, 59, 127
3, 52752, Control_c, 1, 7, 86
3, 52770, Control_c, 1, 7, 85
3, 52788, Control_c, 1, 7, 84
3, 52800, Note_on_c, 1, 59, 0
3, 52800, Note_on_c, 1, 55, 127
3, 52806, Control_c, 1, 7, 83
3, 52824, Control_c, 1, 7, 82
3, 52842, Control_c, 1, 7, 81
3, 52860, Note_on_c, 1, 55, 0
3, 52860, Control_c, 1, 7, 80
3, 52860, Note_on_c, 1, 40, 127
3, 52878, Control_c, 1, 7, 79
3, 52896, Control_c, 1, 7, 78
3, 52914, Control_c, 1, 7, 77
3, 52920, Note_on_c, 1, 40, 0
3, 52920, Note_on_c, 1, 55, 127
3, 52932, Control_c, 1, 7, 76
3, 52950, Control_c, 1, 7, 75
3, 52968, Control_c, 1, 7, 74
3, 52980, Note_on_c, 1, 55, 0
3, 52980, Note_on_c, 1, 71, 127
3, 52980, Note_on_c, 1, 59, 127
3, 52986, Control_c, 1, 7, 73
3, 53004, Control_c, 1, 7, 72
3, 53022, Control_c, 1, 7, 71
3, 53040, Note_on_c, 1, 71, 0
3, 53040, Note_on_c, 1, 59, 0
3, 53040, Control_c, 1, 7, 70
3, 53040, Note_on_c, 1, 59, 127
3, 53040, Note_on_c, 1, 72, 127
3, 53058, Control_c, 1, 7, 69
3, 53076, Control_c, 1, 7, 68
3, 53094, Control_c, 1, 7, 67
3, 53100, Note_on_c, 1, 59, 0
3, 53100, Note_on_c, 1, 72, 0
3, 53100, Note_on_c, 1, 71, 127
3, 53112, Control_c, 1, 7, 66
3, 53130, Control_c, 1, 7, 65
3, 53140, Note_on_c, 1, 71, 0
3, 53140, Note_on_c, 1, 72, 127
3, 53148, Control_c, 1, 7, 64
3, 53150, Note_on_c, 1, 72, 0
3, 53150, Note_on_c, 1, 71, 127
3, 53160, Note_on_c, 1, 71, 0
3, 53160, Note_on_c, 1, 69, 127
3, 53166, Control_c, 1, 7, 63
3, 53184, Control_c, 1, 7, 62
3, 53190, Note_on_c, 1, 69, 0
3, 53190, Control_c, 1, 7, 60
3, 53190, Note_on_c, 1, 59, 127
3, 53190, Note_on_c, 1, 71, 127
3, 53208, Control_c, 1, 7, 59
3, 53226, Control_c, 1, 7, 58
3, 53244, Control_c, 1, 7, 57
3, 53250, Note_on_c, 1, 59, 0
3, 53250, Note_on_c, 1, 71, 0
3, 53250, Note_on_c, 1, 69, 127
3, 53262, Control_c, 1, 7, 56
3, 53280, Note_on_c, 1, 69, 0
3, 53280, Control_c, 1, 7, 55
3, 53280, Note_on_c, 1, 67, 127
3, 53298, Control_c, 1, 7, 54
3, 53310, Note_on_c, 1, 67, 0
3, 53310, Note_on_c, 1, 64, 127
3, 53316, Control_c, 1, 7, 53
3, 53334, Control_c, 1, 7, 52
3, 53352, Control_c, 1, 7, 51
3, 53370, Note_on_c, 1, 64, 0
3, 53370, Control_c, 1, 7, 50
3, 53370, Note_on_c, 1, 40, 127
3, 53370, Note_on_c, 1, 64, 127
3, 53387, Control_c, 1, 7, 49
3, 53405, Control_c, 1, 7, 48
3, 53423, Control_c, 1, 7, 47
3, 53430, Note_on_c, 1, 40, 0
3, 53430, Note_on_c, 1, 64, 0
3, 53430, Note_on_c, 1, 55, 127
3, 53441, Control_c, 1, 7, 46
3, 53459, Control_c, 1, 7, 45
3, 53477, Control_c, 1, 7, 44
3, 53490, Note_on_c, 1, 55, 0
3, 53490, Note_on_c, 1, 59, 127
3, 53495, Control_c, 1, 7, 43
3, 53513, Control_c, 1, 7, 42
3, 53531, Control_c, 1, 7, 41
3, 53549, Control_c, 1, 7, 40
3, 53550, Note_on_c, 1, 59, 0
3, 53550, Note_on_c, 1, 64, 127
3, 53567, Control_c, 1, 7, 39
3, 53585, Control_c, 1, 7, 38
3, 53603, Control_c, 1, 7, 37
3, 53610, Note_on_c, 1, 64, 0
3, 53610, Note_on_c, 1, 59, 127
3, 53621, Control_c, 1, 7, 36
3, 53639, Control_c, 1, 7, 35
3, 53657, Control_c, 1, 7, 34
3, 53670, Note_on_c, 1, 59, 0
3, 53670, Note_on_c, 1, 55, 127
3, 53675, Control_c, 1, 7, 33
3, 53693, Control_c, 1, 7, 32
3, 53711, Control_c, 1, 7, 31
3, 53729, Control_c, 1, 7, 30
3, 53730, Note_on_c, 1, 55, 0
3, 53730, Note_on_c, 1, 40, 127
3, 53747, Control_c, 1, 7, 29
3, 53765, Control_c, 1, 7, 28
3, 53783, Control_c, 1, 7, 27
3, 53790, Note_on_c, 1, 40, 0
3, 53790, Note_on_c, 1, 55, 127
3, 53801, Control_c, 1, 7, 26
3, 53819, Control_c, 1, 7, 25
3, 53837, Control_c, 1, 7, 24
3, 53850, Note_on_c, 1, 55, 0
3, 53850, Note_on_c, 1, 59, 127
3, 53855, Control_c, 1, 7, 23
3, 53873, Control_c, 1, 7, 22
3, 53891, Control_c, 1, 7, 21
3, 53909, Control_c, 1, 7, 20
3, 53910, Note_on_c, 1, 59, 0
3, 53910, Note_on_c, 1, 64, 127
3, 53927, Control_c, 1, 7, 19
3, 53945, Control_c, 1, 7, 18
3, 53963, Control_c, 1, 7, 17
3, 53970, Note_on_c, 1, 64, 0
3, 53970, Note_on_c, 1, 59, 127
3, 53981, Control_c, 1, 7, 16
3, 53999, Control_c, 1, 7, 15
3, 54017, Control_c, 1, 7, 14
3, 54030, Note_on_c, 1, 59, 0
3, 54030, Note_on_c, 1, 71, 127
3, 54035, Control_c, 1, 7, 13
3, 54053, Control_c, 1, 7, 12
3, 54071, Control_c, 1, 7, 11
3, 54089, Control_c, 1, 7, 10
3, 54090, Note_on_c, 1, 71, 0
3, 54107, Control_c, 1, 7, 9
3, 54125, Control_c, 1, 7, 8
3, 54143, Control_c, 1, 7, 7
3, 54161, Control_c, 1, 7, 6
3, 54179, Control_c, 1, 7, 5
3, 54197, Control_c, 1, 7, 4
3, 54215, Control_c, 1, 7, 3
3, 54233, Control_c, 1, 7, 2
3, 54251, Control_c, 1, 7, 1
3, 54269, Control_c, 1, 7, 0
3, 54269, End_track
4, 0, Start_track
4, 0, MIDI_port, 0
4, 0, Title_t, "Guitar 2"
4, 0, Control_c, 2, 7, 99
4, 0, Program_c, 2, 27
4, 6780, Note_on_c, 2, 64, 127
4, 6810, Note_on_c, 2, 64, 0
4, 6810, Note_on_c, 2, 67, 127
4, 6840, Note_on_c, 2, 67, 0
4, 6840, Note_on_c, 2, 71, 127
4, 7020, Note_on_c, 2, 71, 0
4, 7080, Note_on_c, 2, 69, 127
4, 7110, Note_on_c, 2, 69, 0
4, 7110, Note_on_c, 2, 66, 127
4, 7140, Note_on_c, 2, 66, 0
4, 7140, Note_on_c, 2, 62, 127
4, 7200, Note_on_c, 2, 62, 0
4, 7260, Note_on_c, 2, 67, 127
4, 7290, Note_on_c, 2, 67, 0
4, 7290, Note_on_c, 2, 64, 127
4, 7320, Note_on_c, 2, 64, 0
4, 7320, Note_on_c, 2, 60, 127
4, 7380, Note_on_c, 2, 60, 0
4, 7440, Note_on_c, 2, 67, 127
4, 7470, Note_on_c, 2, 67, 0
4, 7470, Note_on_c, 2, 62, 127
4, 7500, Note_on_c, 2, 62, 0
4, 7500, Note_on_c, 2, 59, 127
4, 7560, Note_on_c, 2, 59, 0
4, 7620, Note_on_c, 2, 66, 127
4, 7650, Note_on_c, 2, 66, 0
4, 7650, Note_on_c, 2, 63, 127
4, 7680, Note_on_c, 2, 63, 0
4, 7680, Note_on_c, 2, 57, 127
4, 7740, Note_on_c, 2, 57, 0
4, 7740, Note_on_c, 2, 57, 127
4, 7760, Note_on_c, 2, 57, 0
4, 7760, Note_on_c, 2, 55, 127
4, 7780, Note_on_c, 2, 55, 0
4, 7780, Note_on_c, 2, 54, 127
4, 7800, Note_on_c, 2, 54, 0
4, 7800, Note_on_c, 2, 55, 127
4, 7920, Note_on_c, 2, 55, 0
4, 8100, Note_on_c, 2, 76, 127
4, 8100, Note_on_c, 2, 71, 127
4, 8100, Note_on_c, 2, 67, 127
4, 8460, Note_on_c, 2, 76, 0
4, 8460, Note_on_c, 2, 71, 0
4, 8460, Note_on_c, 2, 67, 0
4, 15060, Note_on_c, 2, 55, 127
4, 15060, Note_on_c, 2, 52, 127
4, 15120, Note_on_c, 2, 55, 0
4, 15120, Note_on_c, 2, 52, 0
4, 15120, Note_on_c, 2, 52, 127
4, 15120, Note_on_c, 2, 55, 127
4, 15150, Note_on_c, 2, 52, 0
4, 15150, Note_on_c, 2, 55, 0
4, 15150, Note_on_c, 2, 57, 127
4, 15150, Note_on_c, 2, 54, 127
4, 15210, Note_on_c, 2, 57, 0
4, 15210, Note_on_c, 2, 54, 0
4, 15210, Note_on_c, 2, 54, 127
4, 15210, Note_on_c, 2, 57, 127
4, 15240, Note_on_c, 2, 54, 0
4, 15240, Note_on_c, 2, 57, 0
4, 15240, Note_on_c, 2, 52, 127
4, 15240, Note_on_c, 2, 55, 127
4, 15300, Note_on_c, 2, 52, 0
4, 15300, Note_on_c, 2, 55, 0
4, 15300, Note_on_c, 2, 50, 127
4, 15300, Note_on_c, 2, 54, 127
4, 15390, Note_on_c, 2, 50, 0
4, 15390, Note_on_c, 2, 54, 0
4, 15390, Note_on_c, 2, 52, 127
4, 15480, Note_on_c, 2, 52, 0
4, 15480, Note_on_c, 2, 52, 127
4, 15660, Note_on_c, 2, 52, 0
4, 15780, Note_on_c, 2, 55, 127
4, 15780, Note_on_c, 2, 52, 127
4, 15840, Note_on_c, 2, 55, 0
4, 15840, Note_on_c, 2, 52, 0
4, 15840, Note_on_c, 2, 52, 127
4, 15840, Note_on_c, 2, 55, 127
4, 15870, Note_on_c, 2, 52, 0
4, 15870, Note_on_c, 2, 55, 0
4, 15870, Note_on_c, 2, 57, 127
4, 15870, Note_on_c, 2, 54, 127
4, 15930, Note_on_c, 2, 57, 0
4, 15930, Note_on_c, 2, 54, 0
4, 15930, Note_on_c, 2, 54, 127
4, 15930, Note_on_c, 2, 57, 127
4, 15960, Note_on_c, 2, 54, 0
4, 15960, Note_on_c, 2, 57, 0
4, 15960, Note_on_c, 2, 55, 127
4, 15960, Note_on_c, 2, 52, 127
4, 16020, Note_on_c, 2, 55, 0
4, 16020, Note_on_c, 2, 52, 0
4, 16020, Note_on_c, 2, 50, 127
4, 16020, Note_on_c, 2, 54, 127
4, 16110, Note_on_c, 2, 50, 0
4, 16110, Note_on_c, 2, 54, 0
4, 16110, Note_on_c, 2, 50, 127
4, 16200, Note_on_c, 2, 50, 0
4, 16200, Note_on_c, 2, 50, 127
4, 16380, Note_on_c, 2, 50, 0
4, 16500, Note_on_c, 2, 52, 127
4, 16500, Note_on_c, 2, 55, 127
4, 16560, Note_on_c, 2, 52, 0
4, 16560, Note_on_c, 2, 55, 0
4, 16560, Note_on_c, 2, 55, 127
4, 16560, Note_on_c, 2, 52, 127
4, 16590, Note_on_c, 2, 55, 0
4, 16590, Note_on_c, 2, 52, 0
4, 16590, Note_on_c, 2, 54, 127
4, 16590, Note_on_c, 2, 57, 127
4, 16650, Note_on_c, 2, 54, 0
4, 16650, Note_on_c, 2, 57, 0
4, 16650, Note_on_c, 2, 57, 127
4, 16650, Note_on_c, 2, 54, 127
4, 16680, Note_on_c, 2, 57, 0
4, 16680, Note_on_c, 2, 54, 0
4, 16680, Note_on_c, 2, 52, 127
4, 16680, Note_on_c, 2, 55, 127
4, 16740, Note_on_c, 2, 52, 0
4, 16740, Note_on_c, 2, 55, 0
4, 16740, Note_on_c, 2, 50, 127
4, 16740, Note_on_c, 2, 54, 127
4, 16830, Note_on_c, 2, 50, 0
4, 16830, Note_on_c, 2, 54, 0
4, 16830, Note_on_c, 2, 55, 127
4, 16920, Note_on_c, 2, 55, 0
4, 16920, Note_on_c, 2, 48, 127
4, 16920, Note_on_c, 2, 52, 127
4, 17100, Note_on_c, 2, 48, 0
4, 17100, Note_on_c, 2, 52, 0
4, 17100, Note_on_c, 2, 47, 127
4, 17100, Note_on_c, 2, 50, 127
4, 17160, Note_on_c, 2, 47, 0
4, 17160, Note_on_c, 2, 50, 0
4, 17160, Note_on_c, 2, 47, 127
4, 17190, Note_on_c, 2, 47, 0
4, 17190, Note_on_c, 2, 48, 127
4, 17220, Note_on_c, 2, 48, 0
4, 17220, Note_on_c, 2, 47, 127
4, 17280, Note_on_c, 2, 47, 0
4, 17340, Note_on_c, 2, 47, 127
4, 17370, Note_on_c, 2, 47, 0
4, 17370, Note_on_c, 2, 48, 127
4, 17400, Note_on_c, 2, 48, 0
4, 17400, Note_on_c, 2, 47, 127
4, 17460, Note_on_c, 2, 47, 0
4, 17520, Note_on_c, 2, 64, 127
4, 17580, Note_on_c, 2, 64, 0
4, 17580, Note_on_c, 2, 66, 127
4, 17640, Note_on_c, 2, 66, 0
4, 17640, Note_on_c, 2, 67, 127
4, 17700, Note_on_c, 2, 67, 0
4, 17700, Note_on_c, 2, 66, 127
4, 17760, Note_on_c, 2, 66, 0
4, 17760, Note_on_c, 2, 64, 127
4, 17820, Note_on_c, 2, 64, 0
4, 17820, Note_on_c, 2, 67, 127
4, 17880, Note_on_c, 2, 67, 0
4, 17880, Note_on_c, 2, 66, 127
4, 17940, Note_on_c, 2, 66, 0
4, 17940, Note_on_c, 2, 64, 127
4, 18000, Note_on_c, 2, 64, 0
4, 18000, Note_on_c, 2, 69, 127
4, 18180, Note_on_c, 2, 69, 0
4, 26100, Note_on_c, 2, 79, 127
4, 26160, Note_on_c, 2, 79, 0
4, 26160, Note_on_c, 2, 76, 127
4, 26280, Note_on_c, 2, 76, 0
4, 26280, Note_on_c, 2, 81, 127
4, 26340, Note_on_c, 2, 81, 0
4, 26340, Note_on_c, 2, 76, 127
4, 26460, Note_on_c, 2, 76, 0
4, 26460, Note_on_c, 2, 83, 127
4, 26520, Note_on_c, 2, 83, 0
4, 26520, Note_on_c, 2, 76, 127
4, 26640, Note_on_c, 2, 76, 0
4, 26640, Note_on_c, 2, 84, 127
4, 26700, Note_on_c, 2, 84, 0
4, 26700, Note_on_c, 2, 76, 127
4, 26820, Note_on_c, 2, 76, 0
4, 26820, Note_on_c, 2, 76, 127
4, 26880, Note_on_c, 2, 76, 0
4, 26880, Note_on_c, 2, 72, 127
4, 27180, Note_on_c, 2, 72, 0
4, 27540, Note_on_c, 2, 76, 127
4, 27600, Note_on_c, 2, 76, 0
4, 27600, Note_on_c, 2, 72, 127
4, 27660, Note_on_c, 2, 72, 0
4, 27660, Note_on_c, 2, 67, 127
4, 27895, Note_on_c, 2, 76, 75
4, 27900, Note_on_c, 2, 67, 0
4, 27900, Note_on_c, 2, 78, 127
4, 27960, Note_on_c, 2, 76, 0
4, 27960, Note_on_c, 2, 78, 0
4, 27960, Note_on_c, 2, 74, 127
4, 28020, Note_on_c, 2, 74, 0
4, 28020, Note_on_c, 2, 69, 127
4, 28260, Note_on_c, 2, 69, 0
4, 28260, Note_on_c, 2, 71, 127
4, 28290, Note_on_c, 2, 71, 0
4, 28290, Note_on_c, 2, 76, 127
4, 28440, Note_on_c, 2, 76, 0
4, 28440, Note_on_c, 2, 76, 127
4, 28470, Note_on_c, 2, 76, 0
4, 28470, Note_on_c, 2, 71, 127
4, 28620, Note_on_c, 2, 71, 0
4, 28980, Note_on_c, 2, 79, 127
4, 29040, Note_on_c, 2, 79, 0
4, 29040, Note_on_c, 2, 76, 127
4, 29160, Note_on_c, 2, 76, 0
4, 29160, Note_on_c, 2, 81, 127
4, 29220, Note_on_c, 2, 81, 0
4, 29220, Note_on_c, 2, 76, 127
4, 29340, Note_on_c, 2, 76, 0
4, 29340, Note_on_c, 2, 83, 127
4, 29400, Note_on_c, 2, 83, 0
4, 29400, Note_on_c, 2, 76, 127
4, 29520, Note_on_c, 2, 76, 0
4, 29520, Note_on_c, 2, 84, 127
4, 29580, Note_on_c, 2, 84, 0
4, 29580, Note_on_c, 2, 76, 127
4, 29700, Note_on_c, 2, 76, 0
4, 29700, Note_on_c, 2, 76, 127
4, 29760, Note_on_c, 2, 76, 0
4, 29760, Note_on_c, 2, 72, 127
4, 30060, Note_on_c, 2, 72, 0
4, 30420, Note_on_c, 2, 76, 127
4, 30480, Note_on_c, 2, 76, 0
4, 30480, Note_on_c, 2, 72, 127
4, 30540, Note_on_c, 2, 72, 0
4, 30540, Note_on_c, 2, 67, 127
4, 30780, Note_on_c, 2, 67, 0
4, 30840, Note_on_c, 2, 67, 127
4, 30900, Note_on_c, 2, 67, 0
4, 30900, Note_on_c, 2, 67, 127
4, 30930, Note_on_c, 2, 67, 0
4, 30930, Note_on_c, 2, 69, 127
4, 31020, Note_on_c, 2, 69, 0
4, 31020, Note_on_c, 2, 67, 127
4, 31050, Note_on_c, 2, 67, 0
4, 31050, Note_on_c, 2, 69, 127
4, 31080, Note_on_c, 2, 69, 0
4, 31080, Pitch_bend_c, 2, 8192
4, 31080, Note_on_c, 2, 69, 127
4, 31081, Pitch_bend_c, 2, 8329
4, 31082, Pitch_bend_c, 2, 8466
4, 31083, Pitch_bend_c, 2, 8602
4, 31084, Pitch_bend_c, 2, 8739
4, 31085, Pitch_bend_c, 2, 8875
4, 31086, Pitch_bend_c, 2, 9012
4, 31087, Pitch_bend_c, 2, 9148
4, 31088, Pitch_bend_c, 2, 9285
4, 31089, Pitch_bend_c, 2, 9421
4, 31090, Pitch_bend_c, 2, 9558
4, 31091, Pitch_bend_c, 2, 9694
4, 31092, Pitch_bend_c, 2, 9831
4, 31093, Pitch_bend_c, 2, 9967
4, 31094, Pitch_bend_c, 2, 10104
4, 31095, Pitch_bend_c, 2, 10240
4, 31096, Pitch_bend_c, 2, 10377
4, 31097, Pitch_bend_c, 2, 10514
4, 31098, Pitch_bend_c, 2, 10650
4, 31099, Pitch_bend_c, 2, 10787
4, 31100, Pitch_bend_c, 2, 10923
4, 31101, Pitch_bend_c, 2, 11060
4, 31102, Pitch_bend_c, 2, 11196
4, 31103, Pitch_bend_c, 2, 11333
4, 31104, Pitch_bend_c, 2, 11469
4, 31105, Pitch_bend_c, 2, 11606
4, 31106, Pitch_bend_c, 2, 11742
4, 31107, Pitch_bend_c, 2, 11879
4, 31108, Pitch_bend_c, 2, 12015
4, 31109, Pitch_bend_c, 2, 12152
4, 31110, Pitch_bend_c, 2, 12288
4, 31111, Pitch_bend_c, 2, 12151
4, 31112, Pitch_bend_c, 2, 12014
4, 31113, Pitch_bend_c, 2, 11878
4, 31114, Pitch_bend_c, 2, 11741
4, 31115, Pitch_bend_c, 2, 11605
4, 31116, Pitch_bend_c, 2, 11468
4, 31117, Pitch_bend_c, 2, 11332
4, 31118, Pitch_bend_c, 2, 11195
4, 31119, Pitch_bend_c, 2, 11059
4, 31120, Pitch_bend_c, 2, 10922
4, 31121, Pitch_bend_c, 2, 10786
4, 31122, Pitch_bend_c, 2, 10649
4, 31123, Pitch_bend_c, 2, 10513
4, 31124, Pitch_bend_c, 2, 10376
4, 31125, Pitch_bend_c, 2, 10240
4, 31126, Pitch_bend_c, 2, 10103
4, 31127, Pitch_bend_c, 2, 9966
4, 31128, Pitch_bend_c, 2, 9830
4, 31129, Pitch_bend_c, 2, 9693
4, 31130, Pitch_bend_c, 2, 9557
4, 31131, Pitch_bend_c, 2, 9420
4, 31132, Pitch_bend_c, 2, 9284
4, 31133, Pitch_bend_c, 2, 9147
4, 31134, Pitch_bend_c, 2, 9011
4, 31135, Pitch_bend_c, 2, 8874
4, 31136, Pitch_bend_c, 2, 8738
4, 31137, Pitch_bend_c, 2, 8601
4, 31138, Pitch_bend_c, 2, 8465
4, 31139, Pitch_bend_c, 2, 8328
4, 31140, Note_on_c, 2, 69, 0
4, 31140, Pitch_bend_c, 2, 8192
4, 31140, Note_on_c, 2, 67, 127
4, 31170, Note_on_c, 2, 67, 0
4, 31170, Note_on_c, 2, 71, 127
4, 31320, Note_on_c, 2, 71, 0
4, 31320, Note_on_c, 2, 71, 127
4, 31350, Note_on_c, 2, 71, 0
4, 31350, Note_on_c, 2, 64, 127
4, 31500, Note_on_c, 2, 64, 0
4, 31560, Note_on_c, 2, 74, 127
4, 31560, Note_on_c, 2, 69, 127
4, 31590, Note_on_c, 2, 69, 0
4, 31620, Note_on_c, 2, 74, 0
4, 31620, Pitch_bend_c, 2, 8192
4, 31620, Note_on_c, 2, 69, 127
4, 31620, Note_on_c, 2, 74, 127
4, 31621, Pitch_bend_c, 2, 8602
4, 31622, Pitch_bend_c, 2, 9012
4, 31623, Pitch_bend_c, 2, 9421
4, 31624, Pitch_bend_c, 2, 9831
4, 31625, Pitch_bend_c, 2, 10240
4, 31626, Pitch_bend_c, 2, 10650
4, 31627, Pitch_bend_c, 2, 11060
4, 31628, Pitch_bend_c, 2, 11469
4, 31629, Pitch_bend_c, 2, 11879
4, 31630, Pitch_bend_c, 2, 12288
4, 31679, Pitch_bend_c, 2, 8192
4, 31680, Note_on_c, 2, 69, 0
4, 31680, Note_on_c, 2, 74, 0
4, 31680, Note_on_c, 2, 74, 127
4, 31680, Note_on_c, 2, 69, 127
4, 31690, Pitch_bend_c, 2, 16383
4, 31691, Pitch_bend_c, 2, 15563
4, 31692, Pitch_bend_c, 2, 14744
4, 31693, Pitch_bend_c, 2, 13925
4, 31694, Pitch_bend_c, 2, 13106
4, 31695, Pitch_bend_c, 2, 12287
4, 31696, Pitch_bend_c, 2, 11468
4, 31697, Pitch_bend_c, 2, 10649
4, 31698, Pitch_bend_c, 2, 9830
4, 31699, Pitch_bend_c, 2, 9011
4, 31700, Note_on_c, 2, 74, 0
4, 31700, Note_on_c, 2, 69, 0
4, 31700, Pitch_bend_c, 2, 8192
4, 31700, Note_on_c, 2, 69, 127
4, 31720, Note_on_c, 2, 69, 0
4, 31720, Note_on_c, 2, 67, 127
4, 31740, Note_on_c, 2, 67, 0
4, 31740, Note_on_c, 2, 64, 127
4, 31800, Note_on_c, 2, 64, 0
4, 31800, Note_on_c, 2, 62, 127
4, 31815, Note_on_c, 2, 62, 0
4, 31815, Note_on_c, 2, 64, 127
4, 31830, Note_on_c, 2, 64, 0
4, 31830, Note_on_c, 2, 67, 127
4, 31860, Note_on_c, 2, 67, 0
4, 31860, Note_on_c, 2, 64, 127
4, 32040, Note_on_c, 2, 64, 0
4, 35220, Note_on_c, 2, 55, 127
4, 35220, Note_on_c, 2, 52, 127
4, 35280, Note_on_c, 2, 55, 0
4, 35280, Note_on_c, 2, 52, 0
4, 35280, Note_on_c, 2, 52, 127
4, 35280, Note_on_c, 2, 55, 127
4, 35310, Note_on_c, 2, 52, 0
4, 35310, Note_on_c, 2, 55, 0
4, 35310, Note_on_c, 2, 57, 127
4, 35310, Note_on_c, 2, 54, 127
4, 35370, Note_on_c, 2, 57, 0
4, 35370, Note_on_c, 2, 54, 0
4, 35370, Note_on_c, 2, 54, 127
4, 35370, Note_on_c, 2, 57, 127
4, 35400, Note_on_c, 2, 54, 0
4, 35400, Note_on_c, 2, 57, 0
4, 35400, Note_on_c, 2, 52, 127
4, 35400, Note_on_c, 2, 55, 127
4, 35460, Note_on_c, 2, 52, 0
4, 35460, Note_on_c, 2, 55, 0
4, 35460, Note_on_c, 2, 50, 127
4, 35460, Note_on_c, 2, 54, 127
4, 35550, Note_on_c, 2, 50, 0
4, 35550, Note_on_c, 2, 54, 0
4, 35550, Note_on_c, 2, 52, 127
4, 35640, Note_on_c, 2, 52, 0
4, 35640, Note_on_c, 2, 52, 127
4, 35820, Note_on_c, 2, 52, 0
4, 35940, Note_on_c, 2, 55, 127
4, 35940, Note_on_c, 2, 52, 127
4, 36000, Note_on_c, 2, 55, 0
4, 36000, Note_on_c, 2, 52, 0
4, 36000, Note_on_c, 2, 52, 127
4, 36000, Note_on_c, 2, 55, 127
4, 36030, Note_on_c, 2, 52, 0
4, 36030, Note_on_c, 2, 55, 0
4, 36030, Note_on_c, 2, 57, 127
4, 36030, Note_on_c, 2, 54, 127
4, 36090, Note_on_c, 2, 57, 0
4, 36090, Note_on_c, 2, 54, 0
4, 36090, Note_on_c, 2, 54, 127
4, 36090, Note_on_c, 2, 57, 127
4, 36120, Note_on_c, 2, 54, 0
4, 36120, Note_on_c, 2, 57, 0
4, 36120, Note_on_c, 2, 55, 127
4, 36120, Note_on_c, 2, 52, 127
4, 36180, Note_on_c, 2, 55, 0
4, 36180, Note_on_c, 2, 52, 0
4, 36180, Note_on_c, 2, 50, 127
4, 36180, Note_on_c, 2, 54, 127
4, 36270, Note_on_c, 2, 50, 0
4, 36270, Note_on_c, 2, 54, 0
4, 36270, Note_on_c, 2, 50, 127
4, 36360, Note_on_c, 2, 50, 0
4, 36360, Note_on_c, 2, 50, 127
4, 36540, Note_on_c, 2, 50, 0
4, 36660, Note_on_c, 2, 52, 127
4, 36660, Note_on_c, 2, 55, 127
4, 36720, Note_on_c, 2, 52, 0
4, 36720, Note_on_c, 2, 55, 0
4, 36720, Note_on_c, 2, 55, 127
4, 36720, Note_on_c, 2, 52, 127
4, 36750, Note_on_c, 2, 55, 0
4, 36750, Note_on_c, 2, 52, 0
4, 36750, Note_on_c, 2, 54, 127
4, 36750, Note_on_c, 2, 57, 127
4, 36810, Note_on_c, 2, 54, 0
4, 36810, Note_on_c, 2, 57, 0
4, 36810, Note_on_c, 2, 57, 127
4, 36810, Note_on_c, 2, 54, 127
4, 36840, Note_on_c, 2, 57, 0
4, 36840, Note_on_c, 2, 54, 0
4, 36840, Note_on_c, 2, 52, 127
4, 36840, Note_on_c, 2, 55, 127
4, 36900, Note_on_c, 2, 52, 0
4, 36900, Note_on_c, 2, 55, 0
4, 36900, Note_on_c, 2, 50, 127
4, 36900, Note_on_c, 2, 54, 127
4, 36990, Note_on_c, 2, 50, 0
4, 36990, Note_on_c, 2, 54, 0
4, 36990, Note_on_c, 2, 55, 127
4, 37080, Note_on_c, 2, 55, 0
4, 37080, Note_on_c, 2, 48, 127
4, 37080, Note_on_c, 2, 52, 127
4, 37260, Note_on_c, 2, 48, 0
4, 37260, Note_on_c, 2, 52, 0
4, 37260, Note_on_c, 2, 47, 127
4, 37260, Note_on_c, 2, 50, 127
4, 37320, Note_on_c, 2, 47, 0
4, 37320, Note_on_c, 2, 50, 0
4, 37320, Note_on_c, 2, 47, 127
4, 37350, Note_on_c, 2, 47, 0
4, 37350, Note_on_c, 2, 48, 127
4, 37380, Note_on_c, 2, 48, 0
4, 37380, Note_on_c, 2, 47, 127
4, 37440, Note_on_c, 2, 47, 0
4, 37500, Note_on_c, 2, 47, 127
4, 37530, Note_on_c, 2, 47, 0
4, 37530, Note_on_c, 2, 48, 127
4, 37560, Note_on_c, 2, 48, 0
4, 37560, Note_on_c, 2, 47, 127
4, 37620, Note_on_c, 2, 47, 0
4, 37620, End_track
5, 0, Start_track
5, 0, MIDI_port, 0
5, 0, Title_t, "Guitar 3"
5, 0, Control_c, 3, 7, 80
5, 0, Program_c, 3, 30
5, 11700, Note_on_c, 3, 67, 127
5, 12060, Note_on_c, 3, 67, 0
5, 12060, Note_on_c, 3, 69, 127
5, 12150, Note_on_c, 3, 69, 0
5, 12150, Note_on_c, 3, 71, 127
5, 12240, Note_on_c, 3, 71, 0
5, 12240, Note_on_c, 3, 67, 127
5, 12780, Note_on_c, 3, 67, 0
5, 12780, Note_on_c, 3, 69, 127
5, 12870, Note_on_c, 3, 69, 0
5, 12870, Note_on_c, 3, 71, 127
5, 12960, Note_on_c, 3, 71, 0
5, 12960, Note_on_c, 3, 72, 127
5, 13140, Note_on_c, 3, 72, 0
5, 13140, Note_on_c, 3, 67, 127
5, 13500, Note_on_c, 3, 67, 0
5, 13500, Note_on_c, 3, 69, 127
5, 13590, Note_on_c, 3, 69, 0
5, 13590, Note_on_c, 3, 71, 127
5, 13680, Note_on_c, 3, 71, 0
5, 13680, Note_on_c, 3, 67, 127
5, 13860, Note_on_c, 3, 67, 0
5, 13860, Note_on_c, 3, 67, 127
5, 14040, Note_on_c, 3, 67, 0
5, 14040, Note_on_c, 3, 66, 127
5, 14220, Note_on_c, 3, 66, 0
5, 14220, Note_on_c, 3, 64, 127
5, 14940, Note_on_c, 3, 64, 0
5, 19320, Note_on_c, 3, 48, 127
5, 19350, Note_on_c, 3, 48, 0
5, 19350, Note_on_c, 3, 52, 127
5, 19380, Note_on_c, 3, 52, 0
5, 19380, Note_on_c, 3, 55, 127
5, 19500, Note_on_c, 3, 55, 0
5, 19500, Note_on_c, 3, 45, 127
5, 19530, Note_on_c, 3, 45, 0
5, 19530, Note_on_c, 3, 52, 127
5, 19560, Note_on_c, 3, 52, 0
5, 19560, Note_on_c, 3, 57, 127
5, 19680, Note_on_c, 3, 57, 0
5, 19680, Note_on_c, 3, 50, 127
5, 19710, Note_on_c, 3, 50, 0
5, 19710, Note_on_c, 3, 57, 127
5, 19740, Note_on_c, 3, 57, 0
5, 19740, Note_on_c, 3, 62, 127
5, 19800, Note_on_c, 3, 62, 0
5, 19800, Note_on_c, 3, 64, 127
5, 20160, Note_on_c, 3, 64, 0
5, 24900, Note_on_c, 3, 48, 127
5, 24930, Note_on_c, 3, 48, 0
5, 24930, Note_on_c, 3, 52, 127
5, 24960, Note_on_c, 3, 52, 0
5, 24960, Note_on_c, 3, 55, 127
5, 25080, Note_on_c, 3, 55, 0
5, 25080, Note_on_c, 3, 45, 127
5, 25110, Note_on_c, 3, 45, 0
5, 25110, Note_on_c, 3, 52, 127
5, 25140, Note_on_c, 3, 52, 0
5, 25140, Note_on_c, 3, 57, 127
5, 25260, Note_on_c, 3, 57, 0
5, 25260, Note_on_c, 3, 50, 127
5, 25290, Note_on_c, 3, 50, 0
5, 25290, Note_on_c, 3, 57, 127
5, 25320, Note_on_c, 3, 57, 0
5, 25320, Note_on_c, 3, 62, 127
5, 25380, Note_on_c, 3, 62, 0
5, 25380, Note_on_c, 3, 64, 127
5, 25740, Note_on_c, 3, 64, 0
5, 31860, Note_on_c, 3, 67, 127
5, 32220, Note_on_c, 3, 67, 0
5, 32220, Note_on_c, 3, 69, 127
5, 32310, Note_on_c, 3, 69, 0
5, 32310, Note_on_c, 3, 71, 127
5, 32400, Note_on_c, 3, 71, 0
5, 32400, Note_on_c, 3, 67, 127
5, 32940, Note_on_c, 3, 67, 0
5, 32940, Note_on_c, 3, 69, 127
5, 33030, Note_on_c, 3, 69, 0
5, 33030, Note_on_c, 3, 71, 127
5, 33120, Note_on_c, 3, 71, 0
5, 33120, Note_on_c, 3, 72, 127
5, 33300, Note_on_c, 3, 72, 0
5, 33300, Note_on_c, 3, 67, 127
5, 33660, Note_on_c, 3, 67, 0
5, 33660, Note_on_c, 3, 69, 127
5, 33750, Note_on_c, 3, 69, 0
5, 33750, Note_on_c, 3, 71, 127
5, 33840, Note_on_c, 3, 71, 0
5, 33840, Note_on_c, 3, 67, 127
5, 34020, Note_on_c, 3, 67, 0
5, 34020, Note_on_c, 3, 67, 127
5, 34200, Note_on_c, 3, 67, 0
5, 34200, Note_on_c, 3, 66, 127
5, 34380, Note_on_c, 3, 66, 0
5, 34380, Note_on_c, 3, 64, 127
5, 35100, Note_on_c, 3, 64, 0
5, 40920, Note_on_c, 3, 48, 127
5, 40950, Note_on_c, 3, 48, 0
5, 40950, Note_on_c, 3, 52, 127
5, 40980, Note_on_c, 3, 52, 0
5, 40980, Note_on_c, 3, 55, 127
5, 41100, Note_on_c, 3, 55, 0
5, 41100, Note_on_c, 3, 45, 127
5, 41130, Note_on_c, 3, 45, 0
5, 41130, Note_on_c, 3, 52, 127
5, 41160, Note_on_c, 3, 52, 0
5, 41160, Note_on_c, 3, 57, 127
5, 41280, Note_on_c, 3, 57, 0
5, 41280, Note_on_c, 3, 50, 127
5, 41310, Note_on_c, 3, 50, 0
5, 41310, Note_on_c, 3, 57, 127
5, 41340, Note_on_c, 3, 57, 0
5, 41340, Note_on_c, 3, 62, 127
5, 41400, Note_on_c, 3, 62, 0
5, 41400, Note_on_c, 3, 64, 127
5, 41760, Note_on_c, 3, 64, 0
5, 41760, Note_on_c, 3, 52, 127
5, 41790, Note_on_c, 3, 52, 0
5, 41790, Note_on_c, 3, 52, 127
5, 41820, Note_on_c, 3, 52, 0
5, 41820, Note_on_c, 3, 40, 127
5, 41850, Note_on_c, 3, 40, 0
5, 41850, Note_on_c, 3, 40, 127
5, 41880, Note_on_c, 3, 40, 0
5, 41880, Note_on_c, 3, 40, 127
5, 41910, Note_on_c, 3, 40, 0
5, 41910, Note_on_c, 3, 40, 127
5, 41940, Note_on_c, 3, 40, 0
5, 41940, Note_on_c, 3, 47, 127
5, 41940, Note_on_c, 3, 40, 127
5, 42000, Note_on_c, 3, 47, 0
5, 42000, Note_on_c, 3, 40, 0
5, 42000, Note_on_c, 3, 40, 127
5, 42000, Note_on_c, 3, 47, 127
5, 42060, Note_on_c, 3, 40, 0
5, 42060, Note_on_c, 3, 47, 0
5, 42060, Note_on_c, 3, 40, 127
5, 42060, Note_on_c, 3, 47, 127
5, 42120, Note_on_c, 3, 40, 0
5, 42120, Note_on_c, 3, 47, 0
5, 42120, Note_on_c, 3, 47, 127
5, 42120, Note_on_c, 3, 40, 127
5, 42240, Note_on_c, 3, 47, 0
5, 42240, Note_on_c, 3, 40, 0
5, 42240, Note_on_c, 3, 47, 127
5, 42270, Note_on_c, 3, 47, 0
5, 42270, Note_on_c, 3, 52, 127
5, 42300, Note_on_c, 3, 52, 0
5, 42300, Note_on_c, 3, 59, 127
5, 42300, Note_on_c, 3, 52, 127
5, 42420, Note_on_c, 3, 59, 0
5, 42420, Note_on_c, 3, 52, 0
5, 42420, Note_on_c, 3, 52, 127
5, 42420, Note_on_c, 3, 59, 127
5, 42480, Note_on_c, 3, 52, 0
5, 42480, Note_on_c, 3, 59, 0
5, 42480, Note_on_c, 3, 57, 127
5, 42480, Note_on_c, 3, 50, 127
5, 42600, Note_on_c, 3, 57, 0
5, 42600, Note_on_c, 3, 50, 0
5, 42600, Note_on_c, 3, 50, 127
5, 42600, Note_on_c, 3, 57, 127
5, 42660, Note_on_c, 3, 50, 0
5, 42660, Note_on_c, 3, 57, 0
5, 42660, Note_on_c, 3, 55, 127
5, 42660, Note_on_c, 3, 48, 127
5, 42780, Note_on_c, 3, 55, 0
5, 42780, Note_on_c, 3, 48, 0
5, 42780, Note_on_c, 3, 43, 127
5, 42810, Note_on_c, 3, 43, 0
5, 42810, Note_on_c, 3, 42, 127
5, 42840, Note_on_c, 3, 42, 0
5, 42840, Note_on_c, 3, 47, 127
5, 42840, Note_on_c, 3, 40, 127
5, 42960, Note_on_c, 3, 47, 0
5, 42960, Note_on_c, 3, 40, 0
5, 42960, Note_on_c, 3, 47, 127
5, 42990, Note_on_c, 3, 47, 0
5, 42990, Note_on_c, 3, 52, 127
5, 43020, Note_on_c, 3, 52, 0
5, 43020, Note_on_c, 3, 59, 127
5, 43020, Note_on_c, 3, 52, 127
5, 43140, Note_on_c, 3, 59, 0
5, 43140, Note_on_c, 3, 52, 0
5, 43140, Note_on_c, 3, 52, 127
5, 43140, Note_on_c, 3, 59, 127
5, 43200, Note_on_c, 3, 52, 0
5, 43200, Note_on_c, 3, 59, 0
5, 43200, Note_on_c, 3, 57, 127
5, 43200, Note_on_c, 3, 50, 127
5, 43320, Note_on_c, 3, 57, 0
5, 43320, Note_on_c, 3, 50, 0
5, 43320, Note_on_c, 3, 50, 127
5, 43320, Note_on_c, 3, 57, 127
5, 43380, Note_on_c, 3, 50, 0
5, 43380, Note_on_c, 3, 57, 0
5, 43380, Note_on_c, 3, 55, 127
5, 43380, Note_on_c, 3, 48, 127
5, 43500, Note_on_c, 3, 55, 0
5, 43500, Note_on_c, 3, 48, 0
5, 43500, Note_on_c, 3, 43, 127
5, 43530, Note_on_c, 3, 43, 0
5, 43530, Note_on_c, 3, 42, 127
5, 43560, Note_on_c, 3, 42, 0
5, 43560, Note_on_c, 3, 47, 127
5, 43560, Note_on_c, 3, 40, 127
5, 43680, Note_on_c, 3, 47, 0
5, 43680, Note_on_c, 3, 40, 0
5, 43680, Note_on_c, 3, 47, 127
5, 43710, Note_on_c, 3, 47, 0
5, 43710, Note_on_c, 3, 52, 127
5, 43740, Note_on_c, 3, 52, 0
5, 43740, Note_on_c, 3, 59, 127
5, 43740, Note_on_c, 3, 52, 127
5, 43860, Note_on_c, 3, 59, 0
5, 43860, Note_on_c, 3, 52, 0
5, 43860, Note_on_c, 3, 52, 127
5, 43860, Note_on_c, 3, 59, 127
5, 43920, Note_on_c, 3, 52, 0
5, 43920, Note_on_c, 3, 59, 0
5, 43920, Note_on_c, 3, 57, 127
5, 43920, Note_on_c, 3, 50, 127
5, 44040, Note_on_c, 3, 57, 0
5, 44040, Note_on_c, 3, 50, 0
5, 44040, Note_on_c, 3, 50, 127
5, 44040, Note_on_c, 3, 57, 127
5, 44100, Note_on_c, 3, 50, 0
5, 44100, Note_on_c, 3, 57, 0
5, 44100, Note_on_c, 3, 55, 127
5, 44100, Note_on_c, 3, 48, 127
5, 44220, Note_on_c, 3, 55, 0
5, 44220, Note_on_c, 3, 48, 0
5, 44220, Note_on_c, 3, 43, 127
5, 44250, Note_on_c, 3, 43, 0
5, 44250, Note_on_c, 3, 42, 127
5, 44280, Note_on_c, 3, 42, 0
5, 44280, Note_on_c, 3, 50, 127
5, 44280, Note_on_c, 3, 43, 127
5, 44460, Note_on_c, 3, 50, 0
5, 44460, Note_on_c, 3, 43, 0
5, 44460, Note_on_c, 3, 54, 127
5, 44460, Note_on_c, 3, 47, 127
5, 44640, Note_on_c, 3, 54, 0
5, 44640, Note_on_c, 3, 47, 0
5, 44640, Note_on_c, 3, 47, 127
5, 44640, Note_on_c, 3, 40, 127
5, 46080, Note_on_c, 3, 47, 0
5, 46080, Note_on_c, 3, 40, 0
5, 46080, End_track
6, 0, Start_track
6, 0, MIDI_port, 0
6, 0, Title_t, "Guitar 4"
6, 0, Control_c, 4, 7, 80
6, 0, Program_c, 4, 30
6, 11700, Note_on_c, 4, 64, 127
6, 12060, Note_on_c, 4, 64, 0
6, 12060, Note_on_c, 4, 66, 127
6, 12150, Note_on_c, 4, 66, 0
6, 12150, Note_on_c, 4, 67, 127
6, 12240, Note_on_c, 4, 67, 0
6, 12240, Note_on_c, 4, 64, 127
6, 12780, Note_on_c, 4, 64, 0
6, 12780, Note_on_c, 4, 66, 127
6, 12870, Note_on_c, 4, 66, 0
6, 12870, Note_on_c, 4, 67, 127
6, 12960, Note_on_c, 4, 67, 0
6, 12960, Note_on_c, 4, 67, 127
6, 13140, Note_on_c, 4, 67, 0
6, 13140, Note_on_c, 4, 64, 127
6, 13500, Note_on_c, 4, 64, 0
6, 13500, Note_on_c, 4, 66, 127
6, 13590, Note_on_c, 4, 66, 0
6, 13590, Note_on_c, 4, 67, 127
6, 13680, Note_on_c, 4, 67, 0
6, 13680, Note_on_c, 4, 64, 127
6, 13860, Note_on_c, 4, 64, 0
6, 13860, Note_on_c, 4, 59, 127
6, 14940, Note_on_c, 4, 59, 0
6, 31860, Note_on_c, 4, 64, 127
6, 32220, Note_on_c, 4, 64, 0
6, 32220, Note_on_c, 4, 66, 127
6, 32310, Note_on_c, 4, 66, 0
6, 32310, Note_on_c, 4, 67, 127
6, 32400, Note_on_c, 4, 67, 0
6, 32400, Note_on_c, 4, 64, 127
6, 32940, Note_on_c, 4, 64, 0
6, 32940, Note_on_c, 4, 66, 127
6, 33030, Note_on_c, 4, 66, 0
6, 33030, Note_on_c, 4, 67, 127
6, 33120, Note_on_c, 4, 67, 0
6, 33120, Note_on_c, 4, 67, 127
6, 33300, Note_on_c, 4, 67, 0
6, 33300, Note_on_c, 4, 64, 127
6, 33660, Note_on_c, 4, 64, 0
6, 33660, Note_on_c, 4, 66, 127
6, 33750, Note_on_c, 4, 66, 0
6, 33750, Note_on_c, 4, 67, 127
6, 33840, Note_on_c, 4, 67, 0
6, 33840, Note_on_c, 4, 64, 127
6, 34020, Note_on_c, 4, 64, 0
6, 34020, Note_on_c, 4, 59, 127
6, 35100, Note_on_c, 4, 59, 0
6, 42120, Program_c, 4, 29
6, 42120, Control_c, 4, 7, 127
6, 42120, Pitch_bend_c, 4, 8192
6, 42120, Note_on_c, 4, 74, 127
6, 42120, Note_on_c, 4, 69, 127
6, 42121, Pitch_bend_c, 4, 9012
6, 42122, Pitch_bend_c, 4, 9831
6, 42123, Pitch_bend_c, 4, 10650
6, 42124, Pitch_bend_c, 4, 11469
6, 42125, Pitch_bend_c, 4, 12288
6, 42126, Pitch_bend_c, 4, 13107
6, 42127, Pitch_bend_c, 4, 13926
6, 42128, Pitch_bend_c, 4, 14745
6, 42129, Pitch_bend_c, 4, 15564
6, 42130, Pitch_bend_c, 4, 16383
6, 42239, Pitch_bend_c, 4, 8192
6, 42240, Note_on_c, 4, 74, 0
6, 42240, Note_on_c, 4, 69, 0
6, 42240, Pitch_bend_c, 4, 8192
6, 42240, Note_on_c, 4, 69, 127
6, 42241, Pitch_bend_c, 4, 8739
6, 42242, Pitch_bend_c, 4, 9285
6, 42243, Pitch_bend_c, 4, 9831
6, 42244, Pitch_bend_c, 4, 10377
6, 42245, Pitch_bend_c, 4, 10923
6, 42246, Pitch_bend_c, 4, 11469
6, 42247, Pitch_bend_c, 4, 12015
6, 42248, Pitch_bend_c, 4, 12561
6, 42249, Pitch_bend_c, 4, 13107
6, 42250, Pitch_bend_c, 4, 13653
6, 42251, Pitch_bend_c, 4, 14199
6, 42252, Pitch_bend_c, 4, 14745
6, 42253, Pitch_bend_c, 4, 15291
6, 42254, Pitch_bend_c, 4, 15837
6, 42255, Pitch_bend_c, 4, 16383
6, 42256, Pitch_bend_c, 4, 15836
6, 42257, Pitch_bend_c, 4, 15290
6, 42258, Pitch_bend_c, 4, 14744
6, 42259, Pitch_bend_c, 4, 14198
6, 42260, Pitch_bend_c, 4, 13652
6, 42261, Pitch_bend_c, 4, 13106
6, 42262, Pitch_bend_c, 4, 12560
6, 42263, Pitch_bend_c, 4, 12014
6, 42264, Pitch_bend_c, 4, 11468
6, 42265, Pitch_bend_c, 4, 10922
6, 42266, Pitch_bend_c, 4, 10376
6, 42267, Pitch_bend_c, 4, 9830
6, 42268, Pitch_bend_c, 4, 9284
6, 42269, Pitch_bend_c, 4, 8738
6, 42270, Pitch_bend_c, 4, 8192
6, 42300, Note_on_c, 4, 69, 0
6, 42300, Control_c, 4, 1, 0
6, 42300, Note_on_c, 4, 67, 127
6, 42301, Control_c, 4, 1, 7
6, 42302, Control_c, 4, 1, 13
6, 42303, Control_c, 4, 1, 20
6, 42304, Control_c, 4, 1, 26
6, 42305, Control_c, 4, 1, 32
6, 42306, Control_c, 4, 1, 39
6, 42307, Control_c, 4, 1, 45
6, 42308, Control_c, 4, 1, 52
6, 42309, Control_c, 4, 1, 58
6, 42310, Control_c, 4, 1, 64
6, 42419, Control_c, 4, 1, 0
6, 42420, Note_on_c, 4, 67, 0
6, 42420, Note_on_c, 4, 69, 127
6, 42450, Note_on_c, 4, 69, 0
6, 42450, Note_on_c, 4, 67, 127
6, 42480, Note_on_c, 4, 67, 0
6, 42480, Note_on_c, 4, 66, 127
6, 42510, Note_on_c, 4, 66, 0
6, 42510, Note_on_c, 4, 67, 127
6, 42540, Note_on_c, 4, 67, 0
6, 42540, Note_on_c, 4, 66, 127
6, 42570, Note_on_c, 4, 66, 0
6, 42570, Note_on_c, 4, 64, 127
6, 42600, Note_on_c, 4, 64, 0
6, 42600, Note_on_c, 4, 66, 127
6, 42630, Note_on_c, 4, 66, 0
6, 42630, Note_on_c, 4, 62, 127
6, 42660, Note_on_c, 4, 62, 0
6, 42660, Control_c, 4, 1, 0
6, 42660, Note_on_c, 4, 64, 127
6, 42661, Control_c, 4, 1, 7
6, 42662, Control_c, 4, 1, 13
6, 42663, Control_c, 4, 1, 20
6, 42664, Control_c, 4, 1, 26
6, 42665, Control_c, 4, 1, 32
6, 42666, Control_c, 4, 1, 39
6, 42667, Control_c, 4, 1, 45
6, 42668, Control_c, 4, 1, 52
6, 42669, Control_c, 4, 1, 58
6, 42670, Control_c, 4, 1, 64
6, 42749, Control_c, 4, 1, 0
6, 42750, Note_on_c, 4, 64, 0
6, 42750, Note_on_c, 4, 67, 127
6, 42780, Note_on_c, 4, 67, 0
6, 42780, Note_on_c, 4, 69, 127
6, 42810, Note_on_c, 4, 69, 0
6, 42810, Note_on_c, 4, 67, 127
6, 42840, Note_on_c, 4, 67, 0
6, 42840, Pitch_bend_c, 4, 8192
6, 42840, Note_on_c, 4, 69, 127
6, 42841, Pitch_bend_c, 4, 9012
6, 42842, Pitch_bend_c, 4, 9831
6, 42843, Pitch_bend_c, 4, 10650
6, 42844, Pitch_bend_c, 4, 11469
6, 42845, Pitch_bend_c, 4, 12288
6, 42846, Pitch_bend_c, 4, 13107
6, 42847, Pitch_bend_c, 4, 13926
6, 42848, Pitch_bend_c, 4, 14745
6, 42849, Pitch_bend_c, 4, 15564
6, 42850, Pitch_bend_c, 4, 16383
6, 42869, Pitch_bend_c, 4, 8192
6, 42870, Note_on_c, 4, 69, 0
6, 42870, Note_on_c, 4, 71, 127
6, 42900, Note_on_c, 4, 71, 0
6, 42900, Note_on_c, 4, 76, 127
6, 42930, Note_on_c, 4, 76, 0
6, 42930, Pitch_bend_c, 4, 8192
6, 42930, Note_on_c, 4, 69, 127
6, 42931, Pitch_bend_c, 4, 9012
6, 42932, Pitch_bend_c, 4, 9831
6, 42933, Pitch_bend_c, 4, 10650
6, 42934, Pitch_bend_c, 4, 11469
6, 42935, Pitch_bend_c, 4, 12288
6, 42936, Pitch_bend_c, 4, 13107
6, 42937, Pitch_bend_c, 4, 13926
6, 42938, Pitch_bend_c, 4, 14745
6, 42939, Pitch_bend_c, 4, 15564
6, 42940, Pitch_bend_c, 4, 16383
6, 42959, Pitch_bend_c, 4, 8192
6, 42960, Note_on_c, 4, 69, 0
6, 42960, Note_on_c, 4, 71, 127
6, 42990, Note_on_c, 4, 71, 0
6, 42990, Note_on_c, 4, 76, 127
6, 43020, Note_on_c, 4, 76, 0
6, 43020, Note_on_c, 4, 74, 127
6, 43050, Note_on_c, 4, 74, 0
6, 43050, Note_on_c, 4, 71, 127
6, 43080, Note_on_c, 4, 71, 0
6, 43080, Note_on_c, 4, 70, 127
6, 43110, Note_on_c, 4, 70, 0
6, 43110, Note_on_c, 4, 71, 127
6, 43140, Note_on_c, 4, 71, 0
6, 43140, Note_on_c, 4, 70, 127
6, 43170, Note_on_c, 4, 70, 0
6, 43170, Note_on_c, 4, 69, 127
6, 43200, Note_on_c, 4, 69, 0
6, 43200, Pitch_bend_c, 4, 8192
6, 43200, Note_on_c, 4, 67, 127
6, 43201, Pitch_bend_c, 4, 8466
6, 43202, Pitch_bend_c, 4, 8739
6, 43203, Pitch_bend_c, 4, 9012
6, 43204, Pitch_bend_c, 4, 9285
6, 43205, Pitch_bend_c, 4, 9558
6, 43206, Pitch_bend_c, 4, 9831
6, 43207, Pitch_bend_c, 4, 10104
6, 43208, Pitch_bend_c, 4, 10377
6, 43209, Pitch_bend_c, 4, 10650
6, 43210, Pitch_bend_c, 4, 10923
6, 43211, Pitch_bend_c, 4, 11196
6, 43212, Pitch_bend_c, 4, 11469
6, 43213, Pitch_bend_c, 4, 11742
6, 43214, Pitch_bend_c, 4, 12015
6, 43215, Pitch_bend_c, 4, 12288
6, 43216, Pitch_bend_c, 4, 12561
6, 43217, Pitch_bend_c, 4, 12834
6, 43218, Pitch_bend_c, 4, 13107
6, 43219, Pitch_bend_c, 4, 13380
6, 43220, Pitch_bend_c, 4, 13653
6, 43221, Pitch_bend_c, 4, 13926
6, 43222, Pitch_bend_c, 4, 14199
6, 43223, Pitch_bend_c, 4, 14472
6, 43224, Pitch_bend_c, 4, 14745
6, 43225, Pitch_bend_c, 4, 15018
6, 43226, Pitch_bend_c, 4, 15291
6, 43227, Pitch_bend_c, 4, 15564
6, 43228, Pitch_bend_c, 4, 15837
6, 43229, Pitch_bend_c, 4, 16110
6, 43230, Pitch_bend_c, 4, 16383
6, 43231, Pitch_bend_c, 4, 16109
6, 43232, Pitch_bend_c, 4, 15836
6, 43233, Pitch_bend_c, 4, 15563
6, 43234, Pitch_bend_c, 4, 15290
6, 43235, Pitch_bend_c, 4, 15017
6, 43236, Pitch_bend_c, 4, 14744
6, 43237, Pitch_bend_c, 4, 14471
6, 43238, Pitch_bend_c, 4, 14198
6, 43239, Pitch_bend_c, 4, 13925
6, 43240, Pitch_bend_c, 4, 13652
6, 43241, Pitch_bend_c, 4, 13379
6, 43242, Pitch_bend_c, 4, 13106
6, 43243, Pitch_bend_c, 4, 12833
6, 43244, Pitch_bend_c, 4, 12560
6, 43245, Pitch_bend_c, 4, 12287
6, 43246, Pitch_bend_c, 4, 12014
6, 43247, Pitch_bend_c, 4, 11741
6, 43248, Pitch_bend_c, 4, 11468
6, 43249, Pitch_bend_c, 4, 11195
6, 43250, Pitch_bend_c, 4, 10922
6, 43251, Pitch_bend_c, 4, 10649
6, 43252, Pitch_bend_c, 4, 10376
6, 43253, Pitch_bend_c, 4, 10103
6, 43254, Pitch_bend_c, 4, 9830
6, 43255, Pitch_bend_c, 4, 9557
6, 43256, Pitch_bend_c, 4, 9284
6, 43257, Pitch_bend_c, 4, 9011
6, 43258, Pitch_bend_c, 4, 8738
6, 43259, Pitch_bend_c, 4, 8465
6, 43260, Pitch_bend_c, 4, 8192
6, 43275, Note_on_c, 4, 67, 0
6, 43275, Note_on_c, 4, 64, 127
6, 43290, Note_on_c, 4, 64, 0
6, 43290, Note_on_c, 4, 73, 127
6, 43290, Note_on_c, 4, 69, 127
6, 43320, Note_on_c, 4, 73, 0
6, 43320, Note_on_c, 4, 69, 0
6, 43350, Note_on_c, 4, 73, 127
6, 43350, Note_on_c, 4, 69, 127
6, 43380, Note_on_c, 4, 73, 0
6, 43380, Note_on_c, 4, 69, 0
6, 43380, Note_on_c, 4, 72, 127
6, 43380, Note_on_c, 4, 68, 127
6, 43410, Note_on_c, 4, 72, 0
6, 43410, Note_on_c, 4, 68, 0
6, 43410, Control_c, 4, 1, 0
6, 43410, Note_on_c, 4, 67, 127
6, 43411, Control_c, 4, 1, 7
6, 43412, Control_c, 4, 1, 13
6, 43413, Control_c, 4, 1, 20
6, 43414, Control_c, 4, 1, 26
6, 43415, Control_c, 4, 1, 32
6, 43416, Control_c, 4, 1, 39
6, 43417, Control_c, 4, 1, 45
6, 43418, Control_c, 4, 1, 52
6, 43419, Control_c, 4, 1, 58
6, 43420, Control_c, 4, 1, 64
6, 43559, Control_c, 4, 1, 0
6, 43560, Note_on_c, 4, 67, 0
6, 43560, Note_on_c, 4, 79, 127
6, 43620, Note_on_c, 4, 79, 0
6, 43620, Note_on_c, 4, 78, 127
6, 43680, Note_on_c, 4, 78, 0
6, 43680, Note_on_c, 4, 71, 127
6, 43740, Note_on_c, 4, 71, 0
6, 43740, Note_on_c, 4, 79, 127
6, 43800, Note_on_c, 4, 79, 0
6, 43800, Note_on_c, 4, 78, 127
6, 43845, Note_on_c, 4, 78, 0
6, 43845, Note_on_c, 4, 79, 127
6, 43860, Note_on_c, 4, 79, 0
6, 43860, Note_on_c, 4, 81, 127
6, 43905, Note_on_c, 4, 81, 0
6, 43905, Note_on_c, 4, 81, 127
6, 43920, Note_on_c, 4, 81, 0
6, 43920, Note_on_c, 4, 79, 127
6, 43950, Note_on_c, 4, 79, 0
6, 43950, Note_on_c, 4, 78, 127
6, 43960, Note_on_c, 4, 79, 127
6, 43970, Note_on_c, 4, 79, 0
6, 43970, Note_on_c, 4, 78, 127
6, 43980, Note_on_c, 4, 78, 0
6, 43980, Note_on_c, 4, 78, 0
6, 43980, Note_on_c, 4, 76, 127
6, 44010, Note_on_c, 4, 76, 0
6, 44010, Note_on_c, 4, 71, 127
6, 44040, Note_on_c, 4, 71, 0
6, 44040, Note_on_c, 4, 79, 127
6, 44070, Note_on_c, 4, 79, 0
6, 44070, Note_on_c, 4, 78, 127
6, 44100, Note_on_c, 4, 78, 0
6, 44100, Note_on_c, 4, 71, 127
6, 44190, Note_on_c, 4, 71, 0
6, 44190, Note_on_c, 4, 67, 127
6, 44220, Note_on_c, 4, 67, 0
6, 44220, Note_on_c, 4, 69, 127
6, 44250, Note_on_c, 4, 69, 0
6, 44250, Note_on_c, 4, 67, 127
6, 44280, Note_on_c, 4, 67, 0
6, 44280, Pitch_bend_c, 4, 8192
6, 44280, Note_on_c, 4, 74, 127
6, 44280, Note_on_c, 4, 69, 127
6, 44281, Pitch_bend_c, 4, 8739
6, 44282, Pitch_bend_c, 4, 9285
6, 44283, Pitch_bend_c, 4, 9831
6, 44284, Pitch_bend_c, 4, 10377
6, 44285, Pitch_bend_c, 4, 10923
6, 44286, Pitch_bend_c, 4, 11469
6, 44287, Pitch_bend_c, 4, 12015
6, 44288, Pitch_bend_c, 4, 12561
6, 44289, Pitch_bend_c, 4, 13107
6, 44290, Pitch_bend_c, 4, 13653
6, 44291, Pitch_bend_c, 4, 14199
6, 44292, Pitch_bend_c, 4, 14745
6, 44293, Pitch_bend_c, 4, 15291
6, 44294, Pitch_bend_c, 4, 15837
6, 44295, Pitch_bend_c, 4, 16383
6, 44296, Pitch_bend_c, 4, 16055
6, 44297, Pitch_bend_c, 4, 15727
6, 44298, Pitch_bend_c, 4, 15400
6, 44299, Pitch_bend_c, 4, 15072
6, 44300, Pitch_bend_c, 4, 14744
6, 44301, Pitch_bend_c, 4, 14417
6, 44302, Pitch_bend_c, 4, 14089
6, 44303, Pitch_bend_c, 4, 13761
6, 44304, Pitch_bend_c, 4, 13434
6, 44305, Pitch_bend_c, 4, 13106
6, 44306, Pitch_bend_c, 4, 12778
6, 44307, Pitch_bend_c, 4, 12451
6, 44308, Pitch_bend_c, 4, 12123
6, 44309, Pitch_bend_c, 4, 11796
6, 44310, Pitch_bend_c, 4, 11468
6, 44311, Pitch_bend_c, 4, 11140
6, 44312, Pitch_bend_c, 4, 10813
6, 44313, Pitch_bend_c, 4, 10485
6, 44314, Pitch_bend_c, 4, 10157
6, 44315, Pitch_bend_c, 4, 9830
6, 44316, Pitch_bend_c, 4, 9502
6, 44317, Pitch_bend_c, 4, 9174
6, 44318, Pitch_bend_c, 4, 8847
6, 44319, Pitch_bend_c, 4, 8519
6, 44320, Note_on_c, 4, 74, 0
6, 44320, Pitch_bend_c, 4, 8192
6, 44330, Note_on_c, 4, 69, 0
6, 44330, Note_on_c, 4, 67, 127
6, 44340, Note_on_c, 4, 67, 0
6, 44340, Note_on_c, 4, 64, 127
6, 44370, Note_on_c, 4, 64, 0
6, 44370, Note_on_c, 4, 67, 127
6, 44400, Note_on_c, 4, 67, 0
6, 44400, Pitch_bend_c, 4, 8192
6, 44400, Note_on_c, 4, 69, 127
6, 44401, Pitch_bend_c, 4, 9012
6, 44402, Pitch_bend_c, 4, 9831
6, 44403, Pitch_bend_c, 4, 10650
6, 44404, Pitch_bend_c, 4, 11469
6, 44405, Pitch_bend_c, 4, 12288
6, 44406, Pitch_bend_c, 4, 13107
6, 44407, Pitch_bend_c, 4, 13926
6, 44408, Pitch_bend_c, 4, 14745
6, 44409, Pitch_bend_c, 4, 15564
6, 44410, Pitch_bend_c, 4, 16383
6, 44429, Pitch_bend_c, 4, 8192
6, 44430, Note_on_c, 4, 69, 0
6, 44430, Note_on_c, 4, 71, 127
6, 44460, Note_on_c, 4, 71, 0
6, 44460, Note_on_c, 4, 76, 127
6, 44520, Note_on_c, 4, 76, 0
6, 44520, Note_on_c, 4, 74, 127
6, 44550, Note_on_c, 4, 74, 0
6, 44550, Pitch_bend_c, 4, 8192
6, 44550, Note_on_c, 4, 74, 127
6, 44551, Pitch_bend_c, 4, 9012
6, 44552, Pitch_bend_c, 4, 9831
6, 44553, Pitch_bend_c, 4, 10650
6, 44554, Pitch_bend_c, 4, 11469
6, 44555, Pitch_bend_c, 4, 12288
6, 44556, Pitch_bend_c, 4, 13107
6, 44557, Pitch_bend_c, 4, 13926
6, 44558, Pitch_bend_c, 4, 14745
6, 44559, Pitch_bend_c, 4, 15564
6, 44560, Pitch_bend_c, 4, 16383
6, 44610, Pitch_bend_c, 4, 16383
6, 44611, Pitch_bend_c, 4, 15563
6, 44612, Pitch_bend_c, 4, 14744
6, 44613, Pitch_bend_c, 4, 13925
6, 44614, Pitch_bend_c, 4, 13106
6, 44615, Pitch_bend_c, 4, 12287
6, 44616, Pitch_bend_c, 4, 11468
6, 44617, Pitch_bend_c, 4, 10649
6, 44618, Pitch_bend_c, 4, 9830
6, 44619, Pitch_bend_c, 4, 9011
6, 44620, Pitch_bend_c, 4, 8192
6, 44630, Note_on_c, 4, 74, 0
6, 44630, Note_on_c, 4, 71, 127
6, 44640, Note_on_c, 4, 71, 0
6, 44640, Pitch_bend_c, 4, 8192
6, 44640, Note_on_c, 4, 74, 127
6, 44641, Pitch_bend_c, 4, 8466
6, 44642, Pitch_bend_c, 4, 8739
6, 44643, Pitch_bend_c, 4, 9012
6, 44644, Pitch_bend_c, 4, 9285
6, 44645, Pitch_bend_c, 4, 9558
6, 44646, Pitch_bend_c, 4, 9831
6, 44647, Pitch_bend_c, 4, 10104
6, 44648, Pitch_bend_c, 4, 10377
6, 44649, Pitch_bend_c, 4, 10650
6, 44650, Pitch_bend_c, 4, 10923
6, 44651, Pitch_bend_c, 4, 11196
6, 44652, Pitch_bend_c, 4, 11469
6, 44653, Pitch_bend_c, 4, 11742
6, 44654, Pitch_bend_c, 4, 12015
6, 44655, Pitch_bend_c, 4, 12288
6, 44656, Pitch_bend_c, 4, 12561
6, 44657, Pitch_bend_c, 4, 12834
6, 44658, Pitch_bend_c, 4, 13107
6, 44659, Pitch_bend_c, 4, 13380
6, 44660, Pitch_bend_c, 4, 13653
6, 44661, Pitch_bend_c, 4, 13926
6, 44662, Pitch_bend_c, 4, 14199
6, 44663, Pitch_bend_c, 4, 14472
6, 44664, Pitch_bend_c, 4, 14745
6, 44665, Pitch_bend_c, 4, 15018
6, 44666, Pitch_bend_c, 4, 15291
6, 44667, Pitch_bend_c, 4, 15564
6, 44668, Pitch_bend_c, 4, 15837
6, 44669, Pitch_bend_c, 4, 16110
6, 44670, Pitch_bend_c, 4, 16383
6, 45270, Pitch_bend_c, 4, 16383
6, 45271, Pitch_bend_c, 4, 16109
6, 45272, Pitch_bend_c, 4, 15836
6, 45273, Pitch_bend_c, 4, 15563
6, 45274, Pitch_bend_c, 4, 15290
6, 45275, Pitch_bend_c, 4, 15017
6, 45276, Pitch_bend_c, 4, 14744
6, 45277, Pitch_bend_c, 4, 14471
6, 45278, Pitch_bend_c, 4, 14198
6, 45279, Pitch_bend_c, 4, 13925
6, 45280, Pitch_bend_c, 4, 13652
6, 45281, Pitch_bend_c, 4, 13379
6, 45282, Pitch_bend_c, 4, 13106
6, 45283, Pitch_bend_c, 4, 12833
6, 45284, Pitch_bend_c, 4, 12560
6, 45285, Pitch_bend_c, 4, 12287
6, 45286, Pitch_bend_c, 4, 12014
6, 45287, Pitch_bend_c, 4, 11741
6, 45288, Pitch_bend_c, 4, 11468
6, 45289, Pitch_bend_c, 4, 11195
6, 45290, Pitch_bend_c, 4, 10922
6, 45291, Pitch_bend_c, 4, 10649
6, 45292, Pitch_bend_c, 4, 10376
6, 45293, Pitch_bend_c, 4, 10103
6, 45294, Pitch_bend_c, 4, 9830
6, 45295, Pitch_bend_c, 4, 9557
6, 45296, Pitch_bend_c, 4, 9284
6, 45297, Pitch_bend_c, 4, 9011
6, 45298, Pitch_bend_c, 4, 8738
6, 45299, Pitch_bend_c, 4, 8465
6, 45300, Pitch_bend_c, 4, 8192
6, 45360, Note_on_c, 4, 74, 0
6, 45360, Note_on_c, 4, 71, 127
6, 45390, Note_on_c, 4, 71, 0
6, 45390, Note_on_c, 4, 74, 127
6, 45420, Note_on_c, 4, 74, 0
6, 45420, Note_on_c, 4, 71, 127
6, 45660, Note_on_c, 4, 71, 0
6, 45660, Note_on_c, 4, 66, 127
6, 45720, Note_on_c, 4, 66, 0
6, 45720, Note_on_c, 4, 64, 127
6, 45750, Note_on_c, 4, 64, 0
6, 45750, Note_on_c, 4, 66, 127
6, 45780, Note_on_c, 4, 66, 0
6, 45780, Note_on_c, 4, 64, 127
6, 46440, Note_on_c, 4, 64, 0
6, 46440, Note_on_c, 4, 66, 127
6, 46530, Note_on_c, 4, 66, 0
6, 46530, Note_on_c, 4, 67, 127
6, 46620, Note_on_c, 4, 67, 0
6, 46620, Note_on_c, 4, 64, 127
6, 47160, Note_on_c, 4, 64, 0
6, 47160, Note_on_c, 4, 66, 127
6, 47250, Note_on_c, 4, 66, 0
6, 47250, Note_on_c, 4, 67, 127
6, 47340, Note_on_c, 4, 67, 0
6, 47340, Note_on_c, 4, 62, 127
6, 47880, Note_on_c, 4, 62, 0
6, 47880, Note_on_c, 4, 66, 127
6, 47970, Note_on_c, 4, 66, 0
6, 47970, Note_on_c, 4, 67, 127
6, 48060, Note_on_c, 4, 67, 0
6, 48060, Note_on_c, 4, 71, 127
6, 49320, Note_on_c, 4, 71, 0
6, 49320, End_track
7, 0, Start_track
7, 0, MIDI_port, 0
7, 0, Title_t, "Guitar 5"
7, 0, Control_c, 5, 7, 99
7, 0, Program_c, 5, 25
7, 19800, Note_on_c, 5, 71, 100
7, 20220, Note_on_c, 5, 71, 0
7, 20220, Note_on_c, 5, 69, 100
7, 20280, Note_on_c, 5, 69, 0
7, 20280, Note_on_c, 5, 67, 100
7, 20340, Note_on_c, 5, 67, 0
7, 20340, Note_on_c, 5, 66, 100
7, 20400, Note_on_c, 5, 66, 0
7, 20400, Note_on_c, 5, 67, 100
7, 20460, Note_on_c, 5, 67, 0
7, 20460, Note_on_c, 5, 69, 100
7, 20520, Note_on_c, 5, 69, 0
7, 20520, Note_on_c, 5, 64, 100
7, 20880, Note_on_c, 5, 64, 0
7, 25380, Note_on_c, 5, 64, 127
7, 25620, Note_on_c, 5, 64, 0
7, 25620, Note_on_c, 5, 67, 127
7, 25740, Note_on_c, 5, 67, 0
7, 25740, Note_on_c, 5, 69, 127
7, 25860, Note_on_c, 5, 69, 0
7, 25860, Note_on_c, 5, 71, 127
7, 25980, Note_on_c, 5, 71, 0
7, 25980, Note_on_c, 5, 74, 127
7, 26100, Note_on_c, 5, 74, 0
7, 26100, Note_on_c, 5, 76, 127
7, 26280, Note_on_c, 5, 76, 0
7, 26280, Note_on_c, 5, 78, 127
7, 26460, Note_on_c, 5, 78, 0
7, 26460, Note_on_c, 5, 79, 127
7, 26640, Note_on_c, 5, 79, 0
7, 26640, Note_on_c, 5, 81, 127
7, 26820, Note_on_c, 5, 81, 0
7, 41400, Note_on_c, 5, 64, 127
7, 41580, Note_on_c, 5, 64, 0
7, 41580, Note_on_c, 5, 66, 127
7, 41760, Note_on_c, 5, 66, 0
7, 41760, Note_on_c, 5, 67, 127
7, 41940, Note_on_c, 5, 67, 0
7, 41940, Note_on_c, 5, 69, 127
7, 42120, Note_on_c, 5, 69, 0
7, 42120, End_track
8, 0, Start_track
8, 0, MIDI_port, 0
8, 0, Title_t, "Guitar 6"
8, 0, Control_c, 6, 7, 99
8, 0, Program_c, 6, 26
8, 17820, Note_on_c, 6, 64, 127
8, 17820, Note_on_c, 6, 60, 127
8, 17820, Note_on_c, 6, 55, 127
8, 17820, Note_on_c, 6, 52, 127
8, 17820, Note_on_c, 6, 48, 127
8, 18000, Note_on_c, 6, 64, 0
8, 18000, Note_on_c, 6, 60, 0
8, 18000, Note_on_c, 6, 55, 0
8, 18000, Note_on_c, 6, 52, 0
8, 18000, Note_on_c, 6, 48, 0
8, 18000, Note_on_c, 6, 60, 127
8, 18000, Note_on_c, 6, 56, 127
8, 18000, Note_on_c, 6, 51, 127
8, 18000, Note_on_c, 6, 45, 127
8, 18180, Note_on_c, 6, 60, 0
8, 18180, Note_on_c, 6, 56, 0
8, 18180, Note_on_c, 6, 51, 0
8, 18180, Note_on_c, 6, 45, 0
8, 18180, Note_on_c, 6, 66, 127
8, 18180, Note_on_c, 6, 62, 127
8, 18180, Note_on_c, 6, 57, 127
8, 18180, Note_on_c, 6, 50, 127
8, 18270, Note_on_c, 6, 66, 0
8, 18270, Note_on_c, 6, 62, 0
8, 18270, Note_on_c, 6, 57, 0
8, 18270, Note_on_c, 6, 50, 0
8, 18270, Note_on_c, 6, 50, 127
8, 18270, Note_on_c, 6, 57, 127
8, 18270, Note_on_c, 6, 62, 127
8, 18270, Note_on_c, 6, 66, 127
8, 18300, Note_on_c, 6, 50, 0
8, 18300, Note_on_c, 6, 57, 0
8, 18300, Note_on_c, 6, 62, 0
8, 18300, Note_on_c, 6, 66, 0
8, 18300, Note_on_c, 6, 66, 127
8, 18300, Note_on_c, 6, 62, 127
8, 18300, Note_on_c, 6, 57, 127
8, 18300, Note_on_c, 6, 50, 127
8, 18330, Note_on_c, 6, 66, 0
8, 18330, Note_on_c, 6, 62, 0
8, 18330, Note_on_c, 6, 57, 0
8, 18330, Note_on_c, 6, 50, 0
8, 18330, Note_on_c, 6, 66, 127
8, 18330, Note_on_c, 6, 62, 127
8, 18330, Note_on_c, 6, 57, 127
8, 18330, Note_on_c, 6, 50, 127
8, 18360, Note_on_c, 6, 66, 0
8, 18360, Note_on_c, 6, 62, 0
8, 18360, Note_on_c, 6, 57, 0
8, 18360, Note_on_c, 6, 50, 0
8, 18360, Note_on_c, 6, 67, 127
8, 18360, Note_on_c, 6, 62, 127
8, 18360, Note_on_c, 6, 57, 127
8, 18360, Note_on_c, 6, 50, 127
8, 18390, Note_on_c, 6, 67, 0
8, 18390, Note_on_c, 6, 62, 0
8, 18390, Note_on_c, 6, 57, 0
8, 18390, Note_on_c, 6, 50, 0
8, 18390, Note_on_c, 6, 50, 127
8, 18390, Note_on_c, 6, 57, 127
8, 18390, Note_on_c, 6, 62, 127
8, 18390, Note_on_c, 6, 66, 127
8, 18450, Note_on_c, 6, 50, 0
8, 18450, Note_on_c, 6, 57, 0
8, 18450, Note_on_c, 6, 62, 0
8, 18450, Note_on_c, 6, 66, 0
8, 18450, Note_on_c, 6, 68, 127
8, 18450, Note_on_c, 6, 62, 127
8, 18450, Note_on_c, 6, 57, 127
8, 18450, Note_on_c, 6, 50, 127
8, 18510, Note_on_c, 6, 68, 0
8, 18510, Note_on_c, 6, 62, 0
8, 18510, Note_on_c, 6, 57, 0
8, 18510, Note_on_c, 6, 50, 0
8, 18510, Note_on_c, 6, 66, 127
8, 18510, Note_on_c, 6, 62, 127
8, 18510, Note_on_c, 6, 57, 127
8, 18510, Note_on_c, 6, 50, 127
8, 18540, Note_on_c, 6, 66, 0
8, 18540, Note_on_c, 6, 62, 0
8, 18540, Note_on_c, 6, 57, 0
8, 18540, Note_on_c, 6, 50, 0
8, 18540, Note_on_c, 6, 64, 127
8, 18540, Note_on_c, 6, 60, 127
8, 18540, Note_on_c, 6, 55, 127
8, 18540, Note_on_c, 6, 52, 127
8, 18540, Note_on_c, 6, 48, 127
8, 18720, Note_on_c, 6, 64, 0
8, 18720, Note_on_c, 6, 60, 0
8, 18720, Note_on_c, 6, 55, 0
8, 18720, Note_on_c, 6, 52, 0
8, 18720, Note_on_c, 6, 48, 0
8, 18720, Note_on_c, 6, 61, 127
8, 18720, Note_on_c, 6, 57, 127
8, 18720, Note_on_c, 6, 52, 127
8, 18720, Note_on_c, 6, 45, 127
8, 18900, Note_on_c, 6, 61, 0
8, 18900, Note_on_c, 6, 57, 0
8, 18900, Note_on_c, 6, 52, 0
8, 18900, Note_on_c, 6, 45, 0
8, 18900, Note_on_c, 6, 66, 127
8, 18900, Note_on_c, 6, 62, 127
8, 18900, Note_on_c, 6, 57, 127
8, 18900, Note_on_c, 6, 50, 127
8, 18990, Note_on_c, 6, 66, 0
8, 18990, Note_on_c, 6, 62, 0
8, 18990, Note_on_c, 6, 57, 0
8, 18990, Note_on_c, 6, 50, 0
8, 18990, Note_on_c, 6, 50, 127
8, 18990, Note_on_c, 6, 57, 127
8, 18990, Note_on_c, 6, 62, 127
8, 18990, Note_on_c, 6, 66, 127
8, 19020, Note_on_c, 6, 50, 0
8, 19020, Note_on_c, 6, 57, 0
8, 19020, Note_on_c, 6, 62, 0
8, 19020, Note_on_c, 6, 66, 0
8, 19020, Note_on_c, 6, 66, 127
8, 19020, Note_on_c, 6, 62, 127
8, 19020, Note_on_c, 6, 57, 127
8, 19020, Note_on_c, 6, 50, 127
8, 19050, Note_on_c, 6, 66, 0
8, 19050, Note_on_c, 6, 62, 0
8, 19050, Note_on_c, 6, 57, 0
8, 19050, Note_on_c, 6, 50, 0
8, 19050, Note_on_c, 6, 66, 127
8, 19050, Note_on_c, 6, 62, 127
8, 19050, Note_on_c, 6, 57, 127
8, 19050, Note_on_c, 6, 50, 127
8, 19080, Note_on_c, 6, 66, 0
8, 19080, Note_on_c, 6, 62, 0
8, 19080, Note_on_c, 6, 57, 0
8, 19080, Note_on_c, 6, 50, 0
8, 19080, Note_on_c, 6, 67, 127
8, 19080, Note_on_c, 6, 62, 127
8, 19080, Note_on_c, 6, 57, 127
8, 19080, Note_on_c, 6, 50, 127
8, 19110, Note_on_c, 6, 67, 0
8, 19110, Note_on_c, 6, 62, 0
8, 19110, Note_on_c, 6, 57, 0
8, 19110, Note_on_c, 6, 50, 0
8, 19110, Note_on_c, 6, 50, 127
8, 19110, Note_on_c, 6, 57, 127
8, 19110, Note_on_c, 6, 62, 127
8, 19110, Note_on_c, 6, 66, 127
8, 19170, Note_on_c, 6, 50, 0
8, 19170, Note_on_c, 6, 57, 0
8, 19170, Note_on_c, 6, 62, 0
8, 19170, Note_on_c, 6, 66, 0
8, 19170, Note_on_c, 6, 68, 127
8, 19170, Note_on_c, 6, 62, 127
8, 19170, Note_on_c, 6, 57, 127
8, 19170, Note_on_c, 6, 50, 127
8, 19230, Note_on_c, 6, 68, 0
8, 19230, Note_on_c, 6, 62, 0
8, 19230, Note_on_c, 6, 57, 0
8, 19230, Note_on_c, 6, 50, 0
8, 19230, Note_on_c, 6, 66, 127
8, 19230, Note_on_c, 6, 62, 127
8, 19230, Note_on_c, 6, 57, 127
8, 19230, Note_on_c, 6, 50, 127
8, 19260, Note_on_c, 6, 66, 0
8, 19260, Note_on_c, 6, 62, 0
8, 19260, Note_on_c, 6, 57, 0
8, 19260, Note_on_c, 6, 50, 0
8, 19260, Note_on_c, 6, 64, 127
8, 19260, Note_on_c, 6, 60, 127
8, 19260, Note_on_c, 6, 55, 127
8, 19260, Note_on_c, 6, 52, 127
8, 19260, Note_on_c, 6, 48, 127
8, 19440, Note_on_c, 6, 64, 0
8, 19440, Note_on_c, 6, 60, 0
8, 19440, Note_on_c, 6, 55, 0
8, 19440, Note_on_c, 6, 52, 0
8, 19440, Note_on_c, 6, 48, 0
8, 19440, Note_on_c, 6, 61, 127
8, 19440, Note_on_c, 6, 57, 127
8, 19440, Note_on_c, 6, 52, 127
8, 19440, Note_on_c, 6, 45, 127
8, 19620, Note_on_c, 6, 61, 0
8, 19620, Note_on_c, 6, 57, 0
8, 19620, Note_on_c, 6, 52, 0
8, 19620, Note_on_c, 6, 45, 0
8, 19620, Note_on_c, 6, 66, 127
8, 19620, Note_on_c, 6, 62, 127
8, 19620, Note_on_c, 6, 57, 127
8, 19620, Note_on_c, 6, 50, 127
8, 19680, Note_on_c, 6, 66, 0
8, 19680, Note_on_c, 6, 62, 0
8, 19680, Note_on_c, 6, 57, 0
8, 19680, Note_on_c, 6, 50, 0
8, 19680, Note_on_c, 6, 50, 127
8, 19680, Note_on_c, 6, 57, 127
8, 19680, Note_on_c, 6, 62, 127
8, 19680, Note_on_c, 6, 66, 127
8, 19710, Note_on_c, 6, 50, 0
8, 19710, Note_on_c, 6, 57, 0
8, 19710, Note_on_c, 6, 62, 0
8, 19710, Note_on_c, 6, 66, 0
8, 19710, Note_on_c, 6, 66, 127
8, 19710, Note_on_c, 6, 62, 127
8, 19710, Note_on_c, 6, 57, 127
8, 19710, Note_on_c, 6, 50, 127
8, 19740, Note_on_c, 6, 66, 0
8, 19740, Note_on_c, 6, 62, 0
8, 19740, Note_on_c, 6, 57, 0
8, 19740, Note_on_c, 6, 50, 0
8, 19740, Note_on_c, 6, 66, 127
8, 19740, Note_on_c, 6, 62, 127
8, 19740, Note_on_c, 6, 57, 127
8, 19740, Note_on_c, 6, 50, 127
8, 19800, Note_on_c, 6, 66, 0
8, 19800, Note_on_c, 6, 62, 0
8, 19800, Note_on_c, 6, 57, 0
8, 19800, Note_on_c, 6, 50, 0
8, 19800, Note_on_c, 6, 64, 127
8, 19800, Note_on_c, 6, 59, 127
8, 19800, Note_on_c, 6, 55, 127
8, 19800, Note_on_c, 6, 52, 127
8, 19800, Note_on_c, 6, 47, 127
8, 19800, Note_on_c, 6, 40, 127
8, 20160, Note_on_c, 6, 64, 0
8, 20160, Note_on_c, 6, 59, 0
8, 20160, Note_on_c, 6, 55, 0
8, 20160, Note_on_c, 6, 52, 0
8, 20160, Note_on_c, 6, 47, 0
8, 20160, Note_on_c, 6, 40, 0
8, 23760, Note_on_c, 6, 66, 127
8, 23760, Note_on_c, 6, 62, 127
8, 23760, Note_on_c, 6, 57, 127
8, 23760, Note_on_c, 6, 50, 127
8, 23850, Note_on_c, 6, 66, 0
8, 23850, Note_on_c, 6, 62, 0
8, 23850, Note_on_c, 6, 57, 0
8, 23850, Note_on_c, 6, 50, 0
8, 23850, Note_on_c, 6, 50, 127
8, 23850, Note_on_c, 6, 57, 127
8, 23850, Note_on_c, 6, 62, 127
8, 23850, Note_on_c, 6, 66, 127
8, 23880, Note_on_c, 6, 50, 0
8, 23880, Note_on_c, 6, 57, 0
8, 23880, Note_on_c, 6, 62, 0
8, 23880, Note_on_c, 6, 66, 0
8, 23880, Note_on_c, 6, 66, 127
8, 23880, Note_on_c, 6, 62, 127
8, 23880, Note_on_c, 6, 57, 127
8, 23880, Note_on_c, 6, 50, 127
8, 23910, Note_on_c, 6, 66, 0
8, 23910, Note_on_c, 6, 62, 0
8, 23910, Note_on_c, 6, 57, 0
8, 23910, Note_on_c, 6, 50, 0
8, 23910, Note_on_c, 6, 66, 127
8, 23910, Note_on_c, 6, 62, 127
8, 23910, Note_on_c, 6, 57, 127
8, 23910, Note_on_c, 6, 50, 127
8, 23940, Note_on_c, 6, 66, 0
8, 23940, Note_on_c, 6, 62, 0
8, 23940, Note_on_c, 6, 57, 0
8, 23940, Note_on_c, 6, 50, 0
8, 23940, Note_on_c, 6, 67, 127
8, 23940, Note_on_c, 6, 62, 127
8, 23940, Note_on_c, 6, 57, 127
8, 23940, Note_on_c, 6, 50, 127
8, 23970, Note_on_c, 6, 67, 0
8, 23970, Note_on_c, 6, 62, 0
8, 23970, Note_on_c, 6, 57, 0
8, 23970, Note_on_c, 6, 50, 0
8, 23970, Note_on_c, 6, 50, 127
8, 23970, Note_on_c, 6, 57, 127
8, 23970, Note_on_c, 6, 62, 127
8, 23970, Note_on_c, 6, 66, 127
8, 24030, Note_on_c, 6, 50, 0
8, 24030, Note_on_c, 6, 57, 0
8, 24030, Note_on_c, 6, 62, 0
8, 24030, Note_on_c, 6, 66, 0
8, 24030, Note_on_c, 6, 68, 127
8, 24030, Note_on_c, 6, 62, 127
8, 24030, Note_on_c, 6, 57, 127
8, 24030, Note_on_c, 6, 50, 127
8, 24090, Note_on_c, 6, 68, 0
8, 24090, Note_on_c, 6, 62, 0
8, 24090, Note_on_c, 6, 57, 0
8, 24090, Note_on_c, 6, 50, 0
8, 24090, Note_on_c, 6, 66, 127
8, 24090, Note_on_c, 6, 62, 127
8, 24090, Note_on_c, 6, 57, 127
8, 24090, Note_on_c, 6, 50, 127
8, 24120, Note_on_c, 6, 66, 0
8, 24120, Note_on_c, 6, 62, 0
8, 24120, Note_on_c, 6, 57, 0
8, 24120, Note_on_c, 6, 50, 0
8, 24120, Note_on_c, 6, 64, 127
8, 24120, Note_on_c, 6, 60, 127
8, 24120, Note_on_c, 6, 55, 127
8, 24120, Note_on_c, 6, 52, 127
8, 24120, Note_on_c, 6, 48, 127
8, 24300, Note_on_c, 6, 64, 0
8, 24300, Note_on_c, 6, 60, 0
8, 24300, Note_on_c, 6, 55, 0
8, 24300, Note_on_c, 6, 52, 0
8, 24300, Note_on_c, 6, 48, 0
8, 24300, Note_on_c, 6, 61, 127
8, 24300, Note_on_c, 6, 57, 127
8, 24300, Note_on_c, 6, 52, 127
8, 24300, Note_on_c, 6, 45, 127
8, 24480, Note_on_c, 6, 61, 0
8, 24480, Note_on_c, 6, 57, 0
8, 24480, Note_on_c, 6, 52, 0
8, 24480, Note_on_c, 6, 45, 0
8, 24480, Note_on_c, 6, 66, 127
8, 24480, Note_on_c, 6, 62, 127
8, 24480, Note_on_c, 6, 57, 127
8, 24480, Note_on_c, 6, 50, 127
8, 24570, Note_on_c, 6, 66, 0
8, 24570, Note_on_c, 6, 62, 0
8, 24570, Note_on_c, 6, 57, 0
8, 24570, Note_on_c, 6, 50, 0
8, 24570, Note_on_c, 6, 50, 127
8, 24570, Note_on_c, 6, 57, 127
8, 24570, Note_on_c, 6, 62, 127
8, 24570, Note_on_c, 6, 66, 127
8, 24600, Note_on_c, 6, 50, 0
8, 24600, Note_on_c, 6, 57, 0
8, 24600, Note_on_c, 6, 62, 0
8, 24600, Note_on_c, 6, 66, 0
8, 24600, Note_on_c, 6, 66, 127
8, 24600, Note_on_c, 6, 62, 127
8, 24600, Note_on_c, 6, 57, 127
8, 24600, Note_on_c, 6, 50, 127
8, 24630, Note_on_c, 6, 66, 0
8, 24630, Note_on_c, 6, 62, 0
8, 24630, Note_on_c, 6, 57, 0
8, 24630, Note_on_c, 6, 50, 0
8, 24630, Note_on_c, 6, 66, 127
8, 24630, Note_on_c, 6, 62, 127
8, 24630, Note_on_c, 6, 57, 127
8, 24630, Note_on_c, 6, 50, 127
8, 24660, Note_on_c, 6, 66, 0
8, 24660, Note_on_c, 6, 62, 0
8, 24660, Note_on_c, 6, 57, 0
8, 24660, Note_on_c, 6, 50, 0
8, 24660, Note_on_c, 6, 67, 127
8, 24660, Note_on_c, 6, 62, 127
8, 24660, Note_on_c, 6, 57, 127
8, 24660, Note_on_c, 6, 50, 127
8, 24690, Note_on_c, 6, 67, 0
8, 24690, Note_on_c, 6, 62, 0
8, 24690, Note_on_c, 6, 57, 0
8, 24690, Note_on_c, 6, 50, 0
8, 24690, Note_on_c, 6, 50, 127
8, 24690, Note_on_c, 6, 57, 127
8, 24690, Note_on_c, 6, 62, 127
8, 24690, Note_on_c, 6, 66, 127
8, 24750, Note_on_c, 6, 50, 0
8, 24750, Note_on_c, 6, 57, 0
8, 24750, Note_on_c, 6, 62, 0
8, 24750, Note_on_c, 6, 66, 0
8, 24750, Note_on_c, 6, 68, 127
8, 24750, Note_on_c, 6, 62, 127
8, 24750, Note_on_c, 6, 57, 127
8, 24750, Note_on_c, 6, 50, 127
8, 24810, Note_on_c, 6, 68, 0
8, 24810, Note_on_c, 6, 62, 0
8, 24810, Note_on_c, 6, 57, 0
8, 24810, Note_on_c, 6, 50, 0
8, 24810, Note_on_c, 6, 66, 127
8, 24810, Note_on_c, 6, 62, 127
8, 24810, Note_on_c, 6, 57, 127
8, 24810, Note_on_c, 6, 50, 127
8, 24840, Note_on_c, 6, 66, 0
8, 24840, Note_on_c, 6, 62, 0
8, 24840, Note_on_c, 6, 57, 0
8, 24840, Note_on_c, 6, 50, 0
8, 24840, Note_on_c, 6, 64, 127
8, 24840, Note_on_c, 6, 60, 127
8, 24840, Note_on_c, 6, 55, 127
8, 24840, Note_on_c, 6, 52, 127
8, 24840, Note_on_c, 6, 48, 127
8, 25020, Note_on_c, 6, 64, 0
8, 25020, Note_on_c, 6, 60, 0
8, 25020, Note_on_c, 6, 55, 0
8, 25020, Note_on_c, 6, 52, 0
8, 25020, Note_on_c, 6, 48, 0
8, 25020, Note_on_c, 6, 61, 127
8, 25020, Note_on_c, 6, 57, 127
8, 25020, Note_on_c, 6, 52, 127
8, 25020, Note_on_c, 6, 45, 127
8, 25200, Note_on_c, 6, 61, 0
8, 25200, Note_on_c, 6, 57, 0
8, 25200, Note_on_c, 6, 52, 0
8, 25200, Note_on_c, 6, 45, 0
8, 25200, Note_on_c, 6, 66, 127
8, 25200, Note_on_c, 6, 62, 127
8, 25200, Note_on_c, 6, 57, 127
8, 25200, Note_on_c, 6, 50, 127
8, 25260, Note_on_c, 6, 66, 0
8, 25260, Note_on_c, 6, 62, 0
8, 25260, Note_on_c, 6, 57, 0
8, 25260, Note_on_c, 6, 50, 0
8, 25260, Note_on_c, 6, 50, 127
8, 25260, Note_on_c, 6, 57, 127
8, 25260, Note_on_c, 6, 62, 127
8, 25260, Note_on_c, 6, 66, 127
8, 25290, Note_on_c, 6, 50, 0
8, 25290, Note_on_c, 6, 57, 0
8, 25290, Note_on_c, 6, 62, 0
8, 25290, Note_on_c, 6, 66, 0
8, 25290, Note_on_c, 6, 66, 127
8, 25290, Note_on_c, 6, 62, 127
8, 25290, Note_on_c, 6, 57, 127
8, 25290, Note_on_c, 6, 50, 127
8, 25320, Note_on_c, 6, 66, 0
8, 25320, Note_on_c, 6, 62, 0
8, 25320, Note_on_c, 6, 57, 0
8, 25320, Note_on_c, 6, 50, 0
8, 25320, Note_on_c, 6, 66, 127
8, 25320, Note_on_c, 6, 62, 127
8, 25320, Note_on_c, 6, 57, 127
8, 25320, Note_on_c, 6, 50, 127
8, 25380, Note_on_c, 6, 66, 0
8, 25380, Note_on_c, 6, 62, 0
8, 25380, Note_on_c, 6, 57, 0
8, 25380, Note_on_c, 6, 50, 0
8, 25380, Note_on_c, 6, 64, 127
8, 25380, Note_on_c, 6, 59, 127
8, 25380, Note_on_c, 6, 55, 127
8, 25380, Note_on_c, 6, 52, 127
8, 25380, Note_on_c, 6, 47, 127
8, 25380, Note_on_c, 6, 40, 127
8, 25740, Note_on_c, 6, 64, 0
8, 25740, Note_on_c, 6, 59, 0
8, 25740, Note_on_c, 6, 55, 0
8, 25740, Note_on_c, 6, 52, 0
8, 25740, Note_on_c, 6, 47, 0
8, 25740, Note_on_c, 6, 40, 0
8, 37980, Note_on_c, 6, 64, 127
8, 37980, Note_on_c, 6, 60, 127
8, 37980, Note_on_c, 6, 55, 127
8, 37980, Note_on_c, 6, 52, 127
8, 37980, Note_on_c, 6, 48, 127
8, 38160, Note_on_c, 6, 61, 127
8, 38160, Note_on_c, 6, 57, 127
8, 38160, Note_on_c, 6, 52, 127
8, 38160, Note_on_c, 6, 45, 127
8, 38340, Note_on_c, 6, 64, 0
8, 38340, Note_on_c, 6, 60, 0
8, 38340, Note_on_c, 6, 55, 0
8, 38340, Note_on_c, 6, 52, 0
8, 38340, Note_on_c, 6, 48, 0
8, 38340, Note_on_c, 6, 61, 0
8, 38340, Note_on_c, 6, 57, 0
8, 38340, Note_on_c, 6, 52, 0
8, 38340, Note_on_c, 6, 45, 0
8, 38340, Note_on_c, 6, 66, 127
8, 38340, Note_on_c, 6, 62, 127
8, 38340, Note_on_c, 6, 57, 127
8, 38340, Note_on_c, 6, 50, 127
8, 38430, Note_on_c, 6, 66, 0
8, 38430, Note_on_c, 6, 62, 0
8, 38430, Note_on_c, 6, 57, 0
8, 38430, Note_on_c, 6, 50, 0
8, 38430, Note_on_c, 6, 50, 127
8, 38430, Note_on_c, 6, 57, 127
8, 38430, Note_on_c, 6, 62, 127
8, 38430, Note_on_c, 6, 66, 127
8, 38460, Note_on_c, 6, 50, 0
8, 38460, Note_on_c, 6, 57, 0
8, 38460, Note_on_c, 6, 62, 0
8, 38460, Note_on_c, 6, 66, 0
8, 38460, Note_on_c, 6, 66, 127
8, 38460, Note_on_c, 6, 62, 127
8, 38460, Note_on_c, 6, 57, 127
8, 38460, Note_on_c, 6, 50, 127
8, 38490, Note_on_c, 6, 66, 0
8, 38490, Note_on_c, 6, 62, 0
8, 38490, Note_on_c, 6, 57, 0
8, 38490, Note_on_c, 6, 50, 0
8, 38490, Note_on_c, 6, 66, 127
8, 38490, Note_on_c, 6, 62, 127
8, 38490, Note_on_c, 6, 57, 127
8, 38490, Note_on_c, 6, 50, 127
8, 38520, Note_on_c, 6, 66, 0
8, 38520, Note_on_c, 6, 62, 0
8, 38520, Note_on_c, 6, 57, 0
8, 38520, Note_on_c, 6, 50, 0
8, 38520, Note_on_c, 6, 67, 127
8, 38520, Note_on_c, 6, 62, 127
8, 38520, Note_on_c, 6, 57, 127
8, 38520, Note_on_c, 6, 50, 127
8, 38550, Note_on_c, 6, 67, 0
8, 38550, Note_on_c, 6, 62, 0
8, 38550, Note_on_c, 6, 57, 0
8, 38550, Note_on_c, 6, 50, 0
8, 38550, Note_on_c, 6, 50, 127
8, 38550, Note_on_c, 6, 57, 127
8, 38550, Note_on_c, 6, 62, 127
8, 38550, Note_on_c, 6, 66, 127
8, 38610, Note_on_c, 6, 50, 0
8, 38610, Note_on_c, 6, 57, 0
8, 38610, Note_on_c, 6, 62, 0
8, 38610, Note_on_c, 6, 66, 0
8, 38610, Note_on_c, 6, 68, 127
8, 38610, Note_on_c, 6, 62, 127
8, 38610, Note_on_c, 6, 57, 127
8, 38610, Note_on_c, 6, 50, 127
8, 38670, Note_on_c, 6, 68, 0
8, 38670, Note_on_c, 6, 62, 0
8, 38670, Note_on_c, 6, 57, 0
8, 38670, Note_on_c, 6, 50, 0
8, 38670, Note_on_c, 6, 66, 127
8, 38670, Note_on_c, 6, 62, 127
8, 38670, Note_on_c, 6, 57, 127
8, 38670, Note_on_c, 6, 50, 127
8, 38700, Note_on_c, 6, 66, 0
8, 38700, Note_on_c, 6, 62, 0
8, 38700, Note_on_c, 6, 57, 0
8, 38700, Note_on_c, 6, 50, 0
8, 38700, Note_on_c, 6, 64, 127
8, 38700, Note_on_c, 6, 60, 127
8, 38700, Note_on_c, 6, 55, 127
8, 38700, Note_on_c, 6, 52, 127
8, 38700, Note_on_c, 6, 48, 127
8, 38880, Note_on_c, 6, 64, 0
8, 38880, Note_on_c, 6, 60, 0
8, 38880, Note_on_c, 6, 55, 0
8, 38880, Note_on_c, 6, 52, 0
8, 38880, Note_on_c, 6, 48, 0
8, 38880, Note_on_c, 6, 61, 127
8, 38880, Note_on_c, 6, 57, 127
8, 38880, Note_on_c, 6, 52, 127
8, 38880, Note_on_c, 6, 45, 127
8, 39060, Note_on_c, 6, 61, 0
8, 39060, Note_on_c, 6, 57, 0
8, 39060, Note_on_c, 6, 52, 0
8, 39060, Note_on_c, 6, 45, 0
8, 39060, Note_on_c, 6, 66, 127
8, 39060, Note_on_c, 6, 62, 127
8, 39060, Note_on_c, 6, 57, 127
8, 39060, Note_on_c, 6, 50, 127
8, 39150, Note_on_c, 6, 66, 0
8, 39150, Note_on_c, 6, 62, 0
8, 39150, Note_on_c, 6, 57, 0
8, 39150, Note_on_c, 6, 50, 0
8, 39150, Note_on_c, 6, 50, 127
8, 39150, Note_on_c, 6, 57, 127
8, 39150, Note_on_c, 6, 62, 127
8, 39150, Note_on_c, 6, 66, 127
8, 39180, Note_on_c, 6, 50, 0
8, 39180, Note_on_c, 6, 57, 0
8, 39180, Note_on_c, 6, 62, 0
8, 39180, Note_on_c, 6, 66, 0
8, 39180, Note_on_c, 6, 66, 127
8, 39180, Note_on_c, 6, 62, 127
8, 39180, Note_on_c, 6, 57, 127
8, 39180, Note_on_c, 6, 50, 127
8, 39210, Note_on_c, 6, 66, 0
8, 39210, Note_on_c, 6, 62, 0
8, 39210, Note_on_c, 6, 57, 0
8, 39210, Note_on_c, 6, 50, 0
8, 39210, Note_on_c, 6, 66, 127
8, 39210, Note_on_c, 6, 62, 127
8, 39210, Note_on_c, 6, 57, 127
8, 39210, Note_on_c, 6, 50, 127
8, 39240, Note_on_c, 6, 66, 0
8, 39240, Note_on_c, 6, 62, 0
8, 39240, Note_on_c, 6, 57, 0
8, 39240, Note_on_c, 6, 50, 0
8, 39240, Note_on_c, 6, 67, 127
8, 39240, Note_on_c, 6, 62, 127
8, 39240, Note_on_c, 6, 57, 127
8, 39240, Note_on_c, 6, 50, 127
8, 39270, Note_on_c, 6, 67, 0
8, 39270, Note_on_c, 6, 62, 0
8, 39270, Note_on_c, 6, 57, 0
8, 39270, Note_on_c, 6, 50, 0
8, 39270, Note_on_c, 6, 50, 127
8, 39270, Note_on_c, 6, 57, 127
8, 39270, Note_on_c, 6, 62, 127
8, 39270, Note_on_c, 6, 66, 127
8, 39330, Note_on_c, 6, 50, 0
8, 39330, Note_on_c, 6, 57, 0
8, 39330, Note_on_c, 6, 62, 0
8, 39330, Note_on_c, 6, 66, 0
8, 39330, Note_on_c, 6, 68, 127
8, 39330, Note_on_c, 6, 62, 127
8, 39330, Note_on_c, 6, 57, 127
8, 39330, Note_on_c, 6, 50, 127
8, 39390, Note_on_c, 6, 68, 0
8, 39390, Note_on_c, 6, 62, 0
8, 39390, Note_on_c, 6, 57, 0
8, 39390, Note_on_c, 6, 50, 0
8, 39390, Note_on_c, 6, 66, 127
8, 39390, Note_on_c, 6, 62, 127
8, 39390, Note_on_c, 6, 57, 127
8, 39390, Note_on_c, 6, 50, 127
8, 39420, Note_on_c, 6, 66, 0
8, 39420, Note_on_c, 6, 62, 0
8, 39420, Note_on_c, 6, 57, 0
8, 39420, Note_on_c, 6, 50, 0
8, 39420, Note_on_c, 6, 64, 127
8, 39420, Note_on_c, 6, 60, 127
8, 39420, Note_on_c, 6, 55, 127
8, 39420, Note_on_c, 6, 52, 127
8, 39420, Note_on_c, 6, 48, 127
8, 39600, Note_on_c, 6, 64, 0
8, 39600, Note_on_c, 6, 60, 0
8, 39600, Note_on_c, 6, 55, 0
8, 39600, Note_on_c, 6, 52, 0
8, 39600, Note_on_c, 6, 48, 0
8, 39600, Note_on_c, 6, 61, 127
8, 39600, Note_on_c, 6, 57, 127
8, 39600, Note_on_c, 6, 52, 127
8, 39600, Note_on_c, 6, 45, 127
8, 39780, Note_on_c, 6, 61, 0
8, 39780, Note_on_c, 6, 57, 0
8, 39780, Note_on_c, 6, 52, 0
8, 39780, Note_on_c, 6, 45, 0
8, 39780, Note_on_c, 6, 66, 127
8, 39780, Note_on_c, 6, 62, 127
8, 39780, Note_on_c, 6, 57, 127
8, 39780, Note_on_c, 6, 50, 127
8, 39870, Note_on_c, 6, 66, 0
8, 39870, Note_on_c, 6, 62, 0
8, 39870, Note_on_c, 6, 57, 0
8, 39870, Note_on_c, 6, 50, 0
8, 39870, Note_on_c, 6, 50, 127
8, 39870, Note_on_c, 6, 57, 127
8, 39870, Note_on_c, 6, 62, 127
8, 39870, Note_on_c, 6, 66, 127
8, 39900, Note_on_c, 6, 50, 0
8, 39900, Note_on_c, 6, 57, 0
8, 39900, Note_on_c, 6, 62, 0
8, 39900, Note_on_c, 6, 66, 0
8, 39900, Note_on_c, 6, 66, 127
8, 39900, Note_on_c, 6, 62, 127
8, 39900, Note_on_c, 6, 57, 127
8, 39900, Note_on_c, 6, 50, 127
8, 39930, Note_on_c, 6, 66, 0
8, 39930, Note_on_c, 6, 62, 0
8, 39930, Note_on_c, 6, 57, 0
8, 39930, Note_on_c, 6, 50, 0
8, 39930, Note_on_c, 6, 66, 127
8, 39930, Note_on_c, 6, 62, 127
8, 39930, Note_on_c, 6, 57, 127
8, 39930, Note_on_c, 6, 50, 127
8, 39960, Note_on_c, 6, 66, 0
8, 39960, Note_on_c, 6, 62, 0
8, 39960, Note_on_c, 6, 57, 0
8, 39960, Note_on_c, 6, 50, 0
8, 39960, Note_on_c, 6, 67, 127
8, 39960, Note_on_c, 6, 62, 127
8, 39960, Note_on_c, 6, 57, 127
8, 39960, Note_on_c, 6, 50, 127
8, 39990, Note_on_c, 6, 67, 0
8, 39990, Note_on_c, 6, 62, 0
8, 39990, Note_on_c, 6, 57, 0
8, 39990, Note_on_c, 6, 50, 0
8, 39990, Note_on_c, 6, 50, 127
8, 39990, Note_on_c, 6, 57, 127
8, 39990, Note_on_c, 6, 62, 127
8, 39990, Note_on_c, 6, 66, 127
8, 40050, Note_on_c, 6, 50, 0
8, 40050, Note_on_c, 6, 57, 0
8, 40050, Note_on_c, 6, 62, 0
8, 40050, Note_on_c, 6, 66, 0
8, 40050, Note_on_c, 6, 68, 127
8, 40050, Note_on_c, 6, 62, 127
8, 40050, Note_on_c, 6, 57, 127
8, 40050, Note_on_c, 6, 50, 127
8, 40110, Note_on_c, 6, 68, 0
8, 40110, Note_on_c, 6, 62, 0
8, 40110, Note_on_c, 6, 57, 0
8, 40110, Note_on_c, 6, 50, 0
8, 40110, Note_on_c, 6, 66, 127
8, 40110, Note_on_c, 6, 62, 127
8, 40110, Note_on_c, 6, 57, 127
8, 40110, Note_on_c, 6, 50, 127
8, 40140, Note_on_c, 6, 66, 0
8, 40140, Note_on_c, 6, 62, 0
8, 40140, Note_on_c, 6, 57, 0
8, 40140, Note_on_c, 6, 50, 0
8, 40140, Note_on_c, 6, 64, 127
8, 40140, Note_on_c, 6, 60, 127
8, 40140, Note_on_c, 6, 55, 127
8, 40140, Note_on_c, 6, 52, 127
8, 40140, Note_on_c, 6, 48, 127
8, 40320, Note_on_c, 6, 64, 0
8, 40320, Note_on_c, 6, 60, 0
8, 40320, Note_on_c, 6, 55, 0
8, 40320, Note_on_c, 6, 52, 0
8, 40320, Note_on_c, 6, 48, 0
8, 40320, Note_on_c, 6, 61, 127
8, 40320, Note_on_c, 6, 57, 127
8, 40320, Note_on_c, 6, 52, 127
8, 40320, Note_on_c, 6, 45, 127
8, 40500, Note_on_c, 6, 61, 0
8, 40500, Note_on_c, 6, 57, 0
8, 40500, Note_on_c, 6, 52, 0
8, 40500, Note_on_c, 6, 45, 0
8, 40500, Note_on_c, 6, 66, 127
8, 40500, Note_on_c, 6, 62, 127
8, 40500, Note_on_c, 6, 57, 127
8, 40500, Note_on_c, 6, 50, 127
8, 40590, Note_on_c, 6, 66, 0
8, 40590, Note_on_c, 6, 62, 0
8, 40590, Note_on_c, 6, 57, 0
8, 40590, Note_on_c, 6, 50, 0
8, 40590, Note_on_c, 6, 50, 127
8, 40590, Note_on_c, 6, 57, 127
8, 40590, Note_on_c, 6, 62, 127
8, 40590, Note_on_c, 6, 66, 127
8, 40620, Note_on_c, 6, 50, 0
8, 40620, Note_on_c, 6, 57, 0
8, 40620, Note_on_c, 6, 62, 0
8, 40620, Note_on_c, 6, 66, 0
8, 40620, Note_on_c, 6, 66, 127
8, 40620, Note_on_c, 6, 62, 127
8, 40620, Note_on_c, 6, 57, 127
8, 40620, Note_on_c, 6, 50, 127
8, 40650, Note_on_c, 6, 66, 0
8, 40650, Note_on_c, 6, 62, 0
8, 40650, Note_on_c, 6, 57, 0
8, 40650, Note_on_c, 6, 50, 0
8, 40650, Note_on_c, 6, 66, 127
8, 40650, Note_on_c, 6, 62, 127
8, 40650, Note_on_c, 6, 57, 127
8, 40650, Note_on_c, 6, 50, 127
8, 40680, Note_on_c, 6, 66, 0
8, 40680, Note_on_c, 6, 62, 0
8, 40680, Note_on_c, 6, 57, 0
8, 40680, Note_on_c, 6, 50, 0
8, 40680, Note_on_c, 6, 67, 127
8, 40680, Note_on_c, 6, 62, 127
8, 40680, Note_on_c, 6, 57, 127
8, 40680, Note_on_c, 6, 50, 127
8, 40710, Note_on_c, 6, 67, 0
8, 40710, Note_on_c, 6, 62, 0
8, 40710, Note_on_c, 6, 57, 0
8, 40710, Note_on_c, 6, 50, 0
8, 40710, Note_on_c, 6, 50, 127
8, 40710, Note_on_c, 6, 57, 127
8, 40710, Note_on_c, 6, 62, 127
8, 40710, Note_on_c, 6, 66, 127
8, 40770, Note_on_c, 6, 50, 0
8, 40770, Note_on_c, 6, 57, 0
8, 40770, Note_on_c, 6, 62, 0
8, 40770, Note_on_c, 6, 66, 0
8, 40770, Note_on_c, 6, 68, 127
8, 40770, Note_on_c, 6, 62, 127
8, 40770, Note_on_c, 6, 57, 127
8, 40770, Note_on_c, 6, 50, 127
8, 40830, Note_on_c, 6, 68, 0
8, 40830, Note_on_c, 6, 62, 0
8, 40830, Note_on_c, 6, 57, 0
8, 40830, Note_on_c, 6, 50, 0
8, 40830, Note_on_c, 6, 66, 127
8, 40830, Note_on_c, 6, 62, 127
8, 40830, Note_on_c, 6, 57, 127
8, 40830, Note_on_c, 6, 50, 127
8, 40860, Note_on_c, 6, 66, 0
8, 40860, Note_on_c, 6, 62, 0
8, 40860, Note_on_c, 6, 57, 0
8, 40860, Note_on_c, 6, 50, 0
8, 40860, Note_on_c, 6, 64, 127
8, 40860, Note_on_c, 6, 60, 127
8, 40860, Note_on_c, 6, 55, 127
8, 40860, Note_on_c, 6, 52, 127
8, 40860, Note_on_c, 6, 48, 127
8, 41040, Note_on_c, 6, 64, 0
8, 41040, Note_on_c, 6, 60, 0
8, 41040, Note_on_c, 6, 55, 0
8, 41040, Note_on_c, 6, 52, 0
8, 41040, Note_on_c, 6, 48, 0
8, 41040, Note_on_c, 6, 61, 127
8, 41040, Note_on_c, 6, 57, 127
8, 41040, Note_on_c, 6, 52, 127
8, 41040, Note_on_c, 6, 45, 127
8, 41220, Note_on_c, 6, 61, 0
8, 41220, Note_on_c, 6, 57, 0
8, 41220, Note_on_c, 6, 52, 0
8, 41220, Note_on_c, 6, 45, 0
8, 41220, Note_on_c, 6, 66, 127
8, 41220, Note_on_c, 6, 62, 127
8, 41220, Note_on_c, 6, 57, 127
8, 41220, Note_on_c, 6, 50, 127
8, 41280, Note_on_c, 6, 66, 0
8, 41280, Note_on_c, 6, 62, 0
8, 41280, Note_on_c, 6, 57, 0
8, 41280, Note_on_c, 6, 50, 0
8, 41280, Note_on_c, 6, 50, 127
8, 41280, Note_on_c, 6, 57, 127
8, 41280, Note_on_c, 6, 62, 127
8, 41280, Note_on_c, 6, 66, 127
8, 41310, Note_on_c, 6, 50, 0
8, 41310, Note_on_c, 6, 57, 0
8, 41310, Note_on_c, 6, 62, 0
8, 41310, Note_on_c, 6, 66, 0
8, 41310, Note_on_c, 6, 66, 127
8, 41310, Note_on_c, 6, 62, 127
8, 41310, Note_on_c, 6, 57, 127
8, 41310, Note_on_c, 6, 50, 127
8, 41340, Note_on_c, 6, 66, 0
8, 41340, Note_on_c, 6, 62, 0
8, 41340, Note_on_c, 6, 57, 0
8, 41340, Note_on_c, 6, 50, 0
8, 41340, Note_on_c, 6, 66, 127
8, 41340, Note_on_c, 6, 62, 127
8, 41340, Note_on_c, 6, 57, 127
8, 41340, Note_on_c, 6, 50, 127
8, 41400, Note_on_c, 6, 66, 0
8, 41400, Note_on_c, 6, 62, 0
8, 41400, Note_on_c, 6, 57, 0
8, 41400, Note_on_c, 6, 50, 0
8, 41400, Note_on_c, 6, 64, 127
8, 41400, Note_on_c, 6, 59, 127
8, 41400, Note_on_c, 6, 55, 127
8, 41400, Note_on_c, 6, 52, 127
8, 41400, Note_on_c, 6, 47, 127
8, 41400, Note_on_c, 6, 40, 127
8, 41760, Note_on_c, 6, 64, 0
8, 41760, Note_on_c, 6, 59, 0
8, 41760, Note_on_c, 6, 55, 0
8, 41760, Note_on_c, 6, 52, 0
8, 41760, Note_on_c, 6, 47, 0
8, 41760, Note_on_c, 6, 40, 0
8, 41760, End_track
9, 0, Start_track
9, 0, MIDI_port, 0
9, 0, Title_t, "Drums"
9, 0, Control_c, 9, 7, 99
9, 8460, Note_on_c, 9, 36, 127
9, 8460, Note_on_c, 9, 57, 127
9, 8640, Note_on_c, 9, 36, 0
9, 8640, Note_on_c, 9, 57, 0
9, 8640, Note_on_c, 9, 38, 127
9, 8640, Note_on_c, 9, 42, 127
9, 8760, Note_on_c, 9, 38, 0
9, 8760, Note_on_c, 9, 42, 0
9, 8760, Note_on_c, 9, 42, 127
9, 8820, Note_on_c, 9, 42, 0
9, 8820, Note_on_c, 9, 36, 127
9, 8820, Note_on_c, 9, 42, 127
9, 8880, Note_on_c, 9, 42, 0
9, 8880, Note_on_c, 9, 42, 127
9, 8940, Note_on_c, 9, 42, 0
9, 8940, Note_on_c, 9, 42, 127
9, 9000, Note_on_c, 9, 36, 0
9, 9000, Note_on_c, 9, 42, 0
9, 9000, Note_on_c, 9, 38, 127
9, 9000, Note_on_c, 9, 42, 127
9, 9060, Note_on_c, 9, 38, 0
9, 9060, Note_on_c, 9, 42, 0
9, 9060, Note_on_c, 9, 42, 127
9, 9120, Note_on_c, 9, 42, 0
9, 9120, Note_on_c, 9, 36, 127
9, 9120, Note_on_c, 9, 42, 127
9, 9180, Note_on_c, 9, 36, 0
9, 9180, Note_on_c, 9, 42, 0
9, 9180, Note_on_c, 9, 36, 127
9, 9180, Note_on_c, 9, 42, 127
9, 9240, Note_on_c, 9, 42, 0
9, 9240, Note_on_c, 9, 42, 127
9, 9300, Note_on_c, 9, 42, 0
9, 9300, Note_on_c, 9, 42, 127
9, 9360, Note_on_c, 9, 36, 0
9, 9360, Note_on_c, 9, 42, 0
9, 9360, Note_on_c, 9, 38, 127
9, 9360, Note_on_c, 9, 42, 127
9, 9420, Note_on_c, 9, 38, 0
9, 9420, Note_on_c, 9, 42, 0
9, 9420, Note_on_c, 9, 42, 127
9, 9480, Note_on_c, 9, 42, 0
9, 9480, Note_on_c, 9, 42, 127
9, 9540, Note_on_c, 9, 42, 0
9, 9540, Note_on_c, 9, 36, 127
9, 9540, Note_on_c, 9, 42, 127
9, 9600, Note_on_c, 9, 42, 0
9, 9600, Note_on_c, 9, 42, 127
9, 9660, Note_on_c, 9, 42, 0
9, 9660, Note_on_c, 9, 42, 127
9, 9720, Note_on_c, 9, 36, 0
9, 9720, Note_on_c, 9, 42, 0
9, 9720, Note_on_c, 9, 38, 127
9, 9720, Note_on_c, 9, 42, 127
9, 9780, Note_on_c, 9, 38, 0
9, 9780, Note_on_c, 9, 42, 0
9, 9780, Note_on_c, 9, 42, 127
9, 9840, Note_on_c, 9, 42, 0
9, 9840, Note_on_c, 9, 36, 127
9, 9840, Note_on_c, 9, 42, 127
9, 9900, Note_on_c, 9, 36, 0
9, 9900, Note_on_c, 9, 42, 0
9, 9900, Note_on_c, 9, 36, 127
9, 9900, Note_on_c, 9, 42, 127
9, 9960, Note_on_c, 9, 42, 0
9, 9960, Note_on_c, 9, 42, 127
9, 10020, Note_on_c, 9, 42, 0
9, 10020, Note_on_c, 9, 42, 127
9, 10080, Note_on_c, 9, 36, 0
9, 10080, Note_on_c, 9, 42, 0
9, 10080, Note_on_c, 9, 38, 127
9, 10080, Note_on_c, 9, 42, 127
9, 10140, Note_on_c, 9, 38, 0
9, 10140, Note_on_c, 9, 42, 0
9, 10140, Note_on_c, 9, 42, 127
9, 10200, Note_on_c, 9, 42, 0
9, 10200, Note_on_c, 9, 42, 127
9, 10260, Note_on_c, 9, 42, 0
9, 10260, Note_on_c, 9, 36, 127
9, 10260, Note_on_c, 9, 42, 127
9, 10320, Note_on_c, 9, 42, 0
9, 10320, Note_on_c, 9, 42, 127
9, 10380, Note_on_c, 9, 42, 0
9, 10380, Note_on_c, 9, 42, 127
9, 10440, Note_on_c, 9, 36, 0
9, 10440, Note_on_c, 9, 42, 0
9, 10440, Note_on_c, 9, 38, 127
9, 10440, Note_on_c, 9, 42, 127
9, 10500, Note_on_c, 9, 38, 0
9, 10500, Note_on_c, 9, 42, 0
9, 10500, Note_on_c, 9, 42, 127
9, 10560, Note_on_c, 9, 42, 0
9, 10560, Note_on_c, 9, 36, 127
9, 10560, Note_on_c, 9, 42, 127
9, 10590, Note_on_c, 9, 36, 0
9, 10620, Note_on_c, 9, 42, 0
9, 10620, Note_on_c, 9, 36, 127
9, 10620, Note_on_c, 9, 42, 127
9, 10680, Note_on_c, 9, 42, 0
9, 10680, Note_on_c, 9, 42, 127
9, 10740, Note_on_c, 9, 42, 0
9, 10740, Note_on_c, 9, 42, 127
9, 10800, Note_on_c, 9, 36, 0
9, 10800, Note_on_c, 9, 42, 0
9, 10800, Note_on_c, 9, 38, 127
9, 10800, Note_on_c, 9, 42, 127
9, 10860, Note_on_c, 9, 38, 0
9, 10860, Note_on_c, 9, 42, 0
9, 10860, Note_on_c, 9, 42, 127
9, 10920, Note_on_c, 9, 42, 0
9, 10920, Note_on_c, 9, 42, 127
9, 10980, Note_on_c, 9, 42, 0
9, 10980, Note_on_c, 9, 57, 127
9, 10980, Note_on_c, 9, 36, 127
9, 11040, Note_on_c, 9, 57, 0
9, 11040, Note_on_c, 9, 42, 127
9, 11100, Note_on_c, 9, 42, 0
9, 11100, Note_on_c, 9, 42, 127
9, 11160, Note_on_c, 9, 36, 0
9, 11160, Note_on_c, 9, 42, 0
9, 11160, Note_on_c, 9, 38, 127
9, 11160, Note_on_c, 9, 42, 127
9, 11220, Note_on_c, 9, 38, 0
9, 11220, Note_on_c, 9, 42, 0
9, 11220, Note_on_c, 9, 42, 127
9, 11280, Note_on_c, 9, 42, 0
9, 11280, Note_on_c, 9, 42, 127
9, 11340, Note_on_c, 9, 42, 0
9, 11340, Note_on_c, 9, 36, 127
9, 11340, Note_on_c, 9, 42, 127
9, 11370, Note_on_c, 9, 36, 0
9, 11370, Note_on_c, 9, 36, 127
9, 11400, Note_on_c, 9, 42, 0
9, 11400, Note_on_c, 9, 42, 127
9, 11430, Note_on_c, 9, 36, 0
9, 11430, Note_on_c, 9, 36, 127
9, 11460, Note_on_c, 9, 42, 0
9, 11460, Note_on_c, 9, 36, 0
9, 11460, Note_on_c, 9, 38, 127
9, 11460, Note_on_c, 9, 42, 127
9, 11520, Note_on_c, 9, 38, 0
9, 11520, Note_on_c, 9, 42, 0
9, 11520, Note_on_c, 9, 38, 127
9, 11520, Note_on_c, 9, 42, 127
9, 11580, Note_on_c, 9, 38, 0
9, 11580, Note_on_c, 9, 42, 0
9, 11580, Note_on_c, 9, 42, 127
9, 11640, Note_on_c, 9, 42, 0
9, 11640, Note_on_c, 9, 48, 127
9, 11670, Note_on_c, 9, 48, 0
9, 11670, Note_on_c, 9, 48, 127
9, 11700, Note_on_c, 9, 48, 0
9, 11700, Note_on_c, 9, 36, 127
9, 11700, Note_on_c, 9, 57, 127
9, 11760, Note_on_c, 9, 57, 0
9, 11760, Note_on_c, 9, 42, 127
9, 11820, Note_on_c, 9, 42, 0
9, 11820, Note_on_c, 9, 42, 127
9, 11880, Note_on_c, 9, 36, 0
9, 11880, Note_on_c, 9, 42, 0
9, 11880, Note_on_c, 9, 38, 127
9, 11880, Note_on_c, 9, 42, 127
9, 11940, Note_on_c, 9, 38, 0
9, 11940, Note_on_c, 9, 42, 0
9, 11940, Note_on_c, 9, 42, 127
9, 12000, Note_on_c, 9, 42, 0
9, 12000, Note_on_c, 9, 42, 127
9, 12060, Note_on_c, 9, 42, 0
9, 12060, Note_on_c, 9, 36, 127
9, 12060, Note_on_c, 9, 42, 127
9, 12120, Note_on_c, 9, 42, 0
9, 12120, Note_on_c, 9, 42, 127
9, 12180, Note_on_c, 9, 42, 0
9, 12180, Note_on_c, 9, 42, 127
9, 12240, Note_on_c, 9, 36, 0
9, 12240, Note_on_c, 9, 42, 0
9, 12240, Note_on_c, 9, 38, 127
9, 12240, Note_on_c, 9, 42, 127
9, 12300, Note_on_c, 9, 38, 0
9, 12300, Note_on_c, 9, 42, 0
9, 12300, Note_on_c, 9, 42, 127
9, 12360, Note_on_c, 9, 42, 0
9, 12360, Note_on_c, 9, 36, 127
9, 12360, Note_on_c, 9, 42, 127
9, 12420, Note_on_c, 9, 36, 0
9, 12420, Note_on_c, 9, 42, 0
9, 12420, Note_on_c, 9, 36, 127
9, 12420, Note_on_c, 9, 42, 127
9, 12480, Note_on_c, 9, 42, 0
9, 12480, Note_on_c, 9, 42, 127
9, 12540, Note_on_c, 9, 42, 0
9, 12540, Note_on_c, 9, 42, 127
9, 12600, Note_on_c, 9, 36, 0
9, 12600, Note_on_c, 9, 42, 0
9, 12600, Note_on_c, 9, 38, 127
9, 12600, Note_on_c, 9, 42, 127
9, 12660, Note_on_c, 9, 38, 0
9, 12660, Note_on_c, 9, 42, 0
9, 12660, Note_on_c, 9, 42, 127
9, 12720, Note_on_c, 9, 42, 0
9, 12720, Note_on_c, 9, 42, 127
9, 12780, Note_on_c, 9, 42, 0
9, 12780, Note_on_c, 9, 36, 127
9, 12780, Note_on_c, 9, 42, 127
9, 12840, Note_on_c, 9, 42, 0
9, 12840, Note_on_c, 9, 42, 127
9, 12900, Note_on_c, 9, 42, 0
9, 12900, Note_on_c, 9, 42, 127
9, 12960, Note_on_c, 9, 36, 0
9, 12960, Note_on_c, 9, 42, 0
9, 12960, Note_on_c, 9, 38, 127
9, 12960, Note_on_c, 9, 42, 127
9, 13020, Note_on_c, 9, 38, 0
9, 13020, Note_on_c, 9, 42, 0
9, 13020, Note_on_c, 9, 42, 127
9, 13080, Note_on_c, 9, 42, 0
9, 13080, Note_on_c, 9, 36, 127
9, 13080, Note_on_c, 9, 42, 127
9, 13140, Note_on_c, 9, 36, 0
9, 13140, Note_on_c, 9, 42, 0
9, 13140, Note_on_c, 9, 36, 127
9, 13140, Note_on_c, 9, 42, 127
9, 13200, Note_on_c, 9, 42, 0
9, 13200, Note_on_c, 9, 42, 127
9, 13260, Note_on_c, 9, 42, 0
9, 13260, Note_on_c, 9, 42, 127
9, 13320, Note_on_c, 9, 36, 0
9, 13320, Note_on_c, 9, 42, 0
9, 13320, Note_on_c, 9, 38, 127
9, 13320, Note_on_c, 9, 42, 127
9, 13380, Note_on_c, 9, 38, 0
9, 13380, Note_on_c, 9, 42, 0
9, 13380, Note_on_c, 9, 42, 127
9, 13440, Note_on_c, 9, 42, 0
9, 13440, Note_on_c, 9, 42, 127
9, 13500, Note_on_c, 9, 42, 0
9, 13500, Note_on_c, 9, 36, 127
9, 13500, Note_on_c, 9, 42, 127
9, 13560, Note_on_c, 9, 42, 0
9, 13560, Note_on_c, 9, 42, 127
9, 13620, Note_on_c, 9, 42, 0
9, 13620, Note_on_c, 9, 42, 127
9, 13680, Note_on_c, 9, 36, 0
9, 13680, Note_on_c, 9, 42, 0
9, 13680, Note_on_c, 9, 38, 127
9, 13680, Note_on_c, 9, 42, 127
9, 13740, Note_on_c, 9, 38, 0
9, 13740, Note_on_c, 9, 42, 0
9, 13740, Note_on_c, 9, 42, 127
9, 13800, Note_on_c, 9, 42, 0
9, 13800, Note_on_c, 9, 36, 127
9, 13800, Note_on_c, 9, 42, 127
9, 13830, Note_on_c, 9, 36, 0
9, 13860, Note_on_c, 9, 42, 0
9, 13860, Note_on_c, 9, 36, 127
9, 13860, Note_on_c, 9, 42, 127
9, 13920, Note_on_c, 9, 42, 0
9, 13920, Note_on_c, 9, 42, 127
9, 13980, Note_on_c, 9, 42, 0
9, 13980, Note_on_c, 9, 42, 127
9, 14040, Note_on_c, 9, 36, 0
9, 14040, Note_on_c, 9, 42, 0
9, 14040, Note_on_c, 9, 38, 127
9, 14040, Note_on_c, 9, 42, 127
9, 14100, Note_on_c, 9, 38, 0
9, 14100, Note_on_c, 9, 42, 0
9, 14100, Note_on_c, 9, 42, 127
9, 14160, Note_on_c, 9, 42, 0
9, 14160, Note_on_c, 9, 42, 127
9, 14220, Note_on_c, 9, 42, 0
9, 14220, Note_on_c, 9, 36, 127
9, 14220, Note_on_c, 9, 57, 127
9, 14280, Note_on_c, 9, 57, 0
9, 14280, Note_on_c, 9, 42, 127
9, 14340, Note_on_c, 9, 42, 0
9, 14340, Note_on_c, 9, 42, 127
9, 14400, Note_on_c, 9, 36, 0
9, 14400, Note_on_c, 9, 42, 0
9, 14400, Note_on_c, 9, 38, 127
9, 14400, Note_on_c, 9, 42, 127
9, 14460, Note_on_c, 9, 38, 0
9, 14460, Note_on_c, 9, 42, 0
9, 14460, Note_on_c, 9, 38, 127
9, 14460, Note_on_c, 9, 42, 127
9, 14520, Note_on_c, 9, 38, 0
9, 14520, Note_on_c, 9, 42, 0
9, 14520, Note_on_c, 9, 36, 127
9, 14520, Note_on_c, 9, 42, 127
9, 14580, Note_on_c, 9, 36, 0
9, 14580, Note_on_c, 9, 42, 0
9, 14580, Note_on_c, 9, 36, 127
9, 14580, Note_on_c, 9, 42, 127
9, 14610, Note_on_c, 9, 36, 0
9, 14610, Note_on_c, 9, 36, 127
9, 14640, Note_on_c, 9, 42, 0
9, 14640, Note_on_c, 9, 42, 127
9, 14670, Note_on_c, 9, 36, 0
9, 14670, Note_on_c, 9, 36, 127
9, 14700, Note_on_c, 9, 42, 0
9, 14700, Note_on_c, 9, 36, 0
9, 14700, Note_on_c, 9, 38, 127
9, 14700, Note_on_c, 9, 42, 127
9, 14760, Note_on_c, 9, 38, 0
9, 14760, Note_on_c, 9, 42, 0
9, 14760, Note_on_c, 9, 38, 127
9, 14760, Note_on_c, 9, 42, 127
9, 14820, Note_on_c, 9, 38, 0
9, 14820, Note_on_c, 9, 42, 0
9, 14820, Note_on_c, 9, 42, 127
9, 14850, Note_on_c, 9, 42, 0
9, 14850, Note_on_c, 9, 38, 127
9, 14880, Note_on_c, 9, 38, 0
9, 14880, Note_on_c, 9, 38, 127
9, 14910, Note_on_c, 9, 38, 0
9, 14910, Note_on_c, 9, 38, 127
9, 14940, Note_on_c, 9, 38, 0
9, 14940, Note_on_c, 9, 36, 127
9, 14940, Note_on_c, 9, 57, 127
9, 15000, Note_on_c, 9, 57, 0
9, 15000, Note_on_c, 9, 42, 127
9, 15060, Note_on_c, 9, 42, 0
9, 15060, Note_on_c, 9, 42, 127
9, 15120, Note_on_c, 9, 36, 0
9, 15120, Note_on_c, 9, 42, 0
9, 15120, Note_on_c, 9, 38, 127
9, 15120, Note_on_c, 9, 42, 127
9, 15180, Note_on_c, 9, 38, 0
9, 15180, Note_on_c, 9, 42, 0
9, 15180, Note_on_c, 9, 42, 127
9, 15240, Note_on_c, 9, 42, 0
9, 15240, Note_on_c, 9, 42, 127
9, 15300, Note_on_c, 9, 42, 0
9, 15300, Note_on_c, 9, 36, 127
9, 15300, Note_on_c, 9, 42, 127
9, 15360, Note_on_c, 9, 42, 0
9, 15360, Note_on_c, 9, 42, 127
9, 15420, Note_on_c, 9, 42, 0
9, 15420, Note_on_c, 9, 42, 127
9, 15480, Note_on_c, 9, 36, 0
9, 15480, Note_on_c, 9, 42, 0
9, 15480, Note_on_c, 9, 38, 127
9, 15480, Note_on_c, 9, 42, 127
9, 15540, Note_on_c, 9, 38, 0
9, 15540, Note_on_c, 9, 42, 0
9, 15540, Note_on_c, 9, 42, 127
9, 15600, Note_on_c, 9, 42, 0
9, 15600, Note_on_c, 9, 36, 127
9, 15600, Note_on_c, 9, 57, 127
9, 15660, Note_on_c, 9, 36, 0
9, 15660, Note_on_c, 9, 57, 0
9, 15660, Note_on_c, 9, 36, 127
9, 15660, Note_on_c, 9, 57, 127
9, 15720, Note_on_c, 9, 57, 0
9, 15720, Note_on_c, 9, 42, 127
9, 15780, Note_on_c, 9, 42, 0
9, 15780, Note_on_c, 9, 42, 127
9, 15840, Note_on_c, 9, 36, 0
9, 15840, Note_on_c, 9, 42, 0
9, 15840, Note_on_c, 9, 38, 127
9, 15840, Note_on_c, 9, 42, 127
9, 15900, Note_on_c, 9, 38, 0
9, 15900, Note_on_c, 9, 42, 0
9, 15900, Note_on_c, 9, 42, 127
9, 15960, Note_on_c, 9, 42, 0
9, 15960, Note_on_c, 9, 42, 127
9, 16020, Note_on_c, 9, 42, 0
9, 16020, Note_on_c, 9, 36, 127
9, 16020, Note_on_c, 9, 42, 127
9, 16080, Note_on_c, 9, 42, 0
9, 16080, Note_on_c, 9, 42, 127
9, 16140, Note_on_c, 9, 42, 0
9, 16140, Note_on_c, 9, 42, 127
9, 16200, Note_on_c, 9, 36, 0
9, 16200, Note_on_c, 9, 42, 0
9, 16200, Note_on_c, 9, 38, 127
9, 16200, Note_on_c, 9, 42, 127
9, 16260, Note_on_c, 9, 38, 0
9, 16260, Note_on_c, 9, 42, 0
9, 16260, Note_on_c, 9, 42, 127
9, 16320, Note_on_c, 9, 42, 0
9, 16320, Note_on_c, 9, 36, 127
9, 16320, Note_on_c, 9, 57, 127
9, 16380, Note_on_c, 9, 36, 0
9, 16380, Note_on_c, 9, 57, 0
9, 16380, Note_on_c, 9, 57, 127
9, 16380, Note_on_c, 9, 36, 127
9, 16440, Note_on_c, 9, 57, 0
9, 16440, Note_on_c, 9, 42, 127
9, 16500, Note_on_c, 9, 42, 0
9, 16500, Note_on_c, 9, 42, 127
9, 16560, Note_on_c, 9, 36, 0
9, 16560, Note_on_c, 9, 42, 0
9, 16560, Note_on_c, 9, 38, 127
9, 16560, Note_on_c, 9, 42, 127
9, 16620, Note_on_c, 9, 38, 0
9, 16620, Note_on_c, 9, 42, 0
9, 16620, Note_on_c, 9, 42, 127
9, 16680, Note_on_c, 9, 42, 0
9, 16680, Note_on_c, 9, 42, 127
9, 16740, Note_on_c, 9, 42, 0
9, 16740, Note_on_c, 9, 42, 127
9, 16740, Note_on_c, 9, 36, 127
9, 16800, Note_on_c, 9, 42, 0
9, 16800, Note_on_c, 9, 42, 127
9, 16860, Note_on_c, 9, 42, 0
9, 16860, Note_on_c, 9, 42, 127
9, 16920, Note_on_c, 9, 36, 0
9, 16920, Note_on_c, 9, 42, 0
9, 16920, Note_on_c, 9, 38, 127
9, 16920, Note_on_c, 9, 42, 127
9, 16980, Note_on_c, 9, 38, 0
9, 16980, Note_on_c, 9, 42, 0
9, 16980, Note_on_c, 9, 42, 127
9, 17040, Note_on_c, 9, 42, 0
9, 17040, Note_on_c, 9, 57, 127
9, 17040, Note_on_c, 9, 36, 127
9, 17100, Note_on_c, 9, 57, 0
9, 17100, Note_on_c, 9, 36, 0
9, 17100, Note_on_c, 9, 36, 127
9, 17100, Note_on_c, 9, 57, 127
9, 17160, Note_on_c, 9, 57, 0
9, 17160, Note_on_c, 9, 42, 127
9, 17220, Note_on_c, 9, 42, 0
9, 17220, Note_on_c, 9, 42, 127
9, 17280, Note_on_c, 9, 36, 0
9, 17280, Note_on_c, 9, 42, 0
9, 17280, Note_on_c, 9, 38, 127
9, 17280, Note_on_c, 9, 42, 127
9, 17340, Note_on_c, 9, 38, 0
9, 17340, Note_on_c, 9, 42, 0
9, 17340, Note_on_c, 9, 42, 127
9, 17400, Note_on_c, 9, 42, 0
9, 17400, Note_on_c, 9, 42, 127
9, 17460, Note_on_c, 9, 42, 0
9, 17460, Note_on_c, 9, 36, 127
9, 17460, Note_on_c, 9, 57, 127
9, 17520, Note_on_c, 9, 57, 0
9, 17520, Note_on_c, 9, 42, 127
9, 17580, Note_on_c, 9, 42, 0
9, 17580, Note_on_c, 9, 42, 127
9, 17640, Note_on_c, 9, 36, 0
9, 17640, Note_on_c, 9, 42, 0
9, 17640, Note_on_c, 9, 38, 127
9, 17640, Note_on_c, 9, 42, 127
9, 17700, Note_on_c, 9, 38, 0
9, 17700, Note_on_c, 9, 42, 0
9, 17700, Note_on_c, 9, 42, 127
9, 17760, Note_on_c, 9, 42, 0
9, 17760, Note_on_c, 9, 42, 127
9, 17820, Note_on_c, 9, 42, 0
9, 17820, Note_on_c, 9, 57, 127
9, 17820, Note_on_c, 9, 36, 127
9, 17880, Note_on_c, 9, 57, 0
9, 17880, Note_on_c, 9, 42, 127
9, 17940, Note_on_c, 9, 42, 0
9, 17940, Note_on_c, 9, 42, 127
9, 18000, Note_on_c, 9, 36, 0
9, 18000, Note_on_c, 9, 42, 0
9, 18000, Note_on_c, 9, 57, 127
9, 18000, Note_on_c, 9, 38, 127
9, 18060, Note_on_c, 9, 57, 0
9, 18060, Note_on_c, 9, 38, 0
9, 18060, Note_on_c, 9, 42, 127
9, 18120, Note_on_c, 9, 42, 0
9, 18120, Note_on_c, 9, 42, 127
9, 18180, Note_on_c, 9, 42, 0
9, 18180, Note_on_c, 9, 36, 127
9, 18180, Note_on_c, 9, 57, 127
9, 18240, Note_on_c, 9, 57, 0
9, 18240, Note_on_c, 9, 45, 127
9, 18240, Note_on_c, 9, 42, 127
9, 18300, Note_on_c, 9, 45, 0
9, 18300, Note_on_c, 9, 42, 0
9, 18300, Note_on_c, 9, 42, 127
9, 18360, Note_on_c, 9, 36, 0
9, 18360, Note_on_c, 9, 42, 0
9, 18360, Note_on_c, 9, 36, 127
9, 18360, Note_on_c, 9, 42, 127
9, 18420, Note_on_c, 9, 42, 0
9, 18420, Note_on_c, 9, 42, 127
9, 18420, Note_on_c, 9, 45, 127
9, 18480, Note_on_c, 9, 42, 0
9, 18480, Note_on_c, 9, 45, 0
9, 18480, Note_on_c, 9, 42, 127
9, 18540, Note_on_c, 9, 36, 0
9, 18540, Note_on_c, 9, 42, 0
9, 18540, Note_on_c, 9, 36, 127
9, 18540, Note_on_c, 9, 57, 127
9, 18660, Note_on_c, 9, 57, 0
9, 18660, Note_on_c, 9, 42, 127
9, 18720, Note_on_c, 9, 36, 0
9, 18720, Note_on_c, 9, 42, 0
9, 18720, Note_on_c, 9, 57, 127
9, 18720, Note_on_c, 9, 38, 127
9, 18780, Note_on_c, 9, 57, 0
9, 18780, Note_on_c, 9, 38, 0
9, 18780, Note_on_c, 9, 42, 127
9, 18840, Note_on_c, 9, 42, 0
9, 18840, Note_on_c, 9, 42, 127
9, 18900, Note_on_c, 9, 42, 0
9, 18900, Note_on_c, 9, 36, 127
9, 18900, Note_on_c, 9, 57, 127
9, 18960, Note_on_c, 9, 57, 0
9, 18960, Note_on_c, 9, 45, 127
9, 18960, Note_on_c, 9, 42, 127
9, 19020, Note_on_c, 9, 45, 0
9, 19020, Note_on_c, 9, 42, 0
9, 19020, Note_on_c, 9, 42, 127
9, 19080, Note_on_c, 9, 36, 0
9, 19080, Note_on_c, 9, 42, 0
9, 19080, Note_on_c, 9, 36, 127
9, 19080, Note_on_c, 9, 42, 127
9, 19140, Note_on_c, 9, 42, 0
9, 19140, Note_on_c, 9, 42, 127
9, 19140, Note_on_c, 9, 45, 127
9, 19200, Note_on_c, 9, 42, 0
9, 19200, Note_on_c, 9, 45, 0
9, 19200, Note_on_c, 9, 42, 127
9, 19260, Note_on_c, 9, 36, 0
9, 19260, Note_on_c, 9, 42, 0
9, 19260, Note_on_c, 9, 36, 127
9, 19260, Note_on_c, 9, 57, 127
9, 19320, Note_on_c, 9, 57, 0
9, 19320, Note_on_c, 9, 42, 127
9, 19380, Note_on_c, 9, 42, 0
9, 19380, Note_on_c, 9, 42, 127
9, 19440, Note_on_c, 9, 36, 0
9, 19440, Note_on_c, 9, 42, 0
9, 19440, Note_on_c, 9, 57, 127
9, 19440, Note_on_c, 9, 38, 127
9, 19500, Note_on_c, 9, 57, 0
9, 19500, Note_on_c, 9, 38, 0
9, 19500, Note_on_c, 9, 42, 127
9, 19560, Note_on_c, 9, 42, 0
9, 19560, Note_on_c, 9, 42, 127
9, 19620, Note_on_c, 9, 42, 0
9, 19620, Note_on_c, 9, 57, 127
9, 19620, Note_on_c, 9, 36, 127
9, 19680, Note_on_c, 9, 57, 0
9, 19680, Note_on_c, 9, 42, 127
9, 19740, Note_on_c, 9, 42, 0
9, 19740, Note_on_c, 9, 42, 127
9, 19800, Note_on_c, 9, 36, 0
9, 19800, Note_on_c, 9, 42, 0
9, 19800, Note_on_c, 9, 36, 127
9, 19800, Note_on_c, 9, 57, 127
9, 19860, Note_on_c, 9, 57, 0
9, 19860, Note_on_c, 9, 42, 127
9, 19920, Note_on_c, 9, 42, 0
9, 19920, Note_on_c, 9, 42, 127
9, 19980, Note_on_c, 9, 36, 0
9, 19980, Note_on_c, 9, 42, 0
9, 19980, Note_on_c, 9, 38, 127
9, 19980, Note_on_c, 9, 42, 127
9, 20040, Note_on_c, 9, 38, 0
9, 20040, Note_on_c, 9, 42, 0
9, 20040, Note_on_c, 9, 42, 127
9, 20070, Note_on_c, 9, 42, 0
9, 20070, Note_on_c, 9, 38, 127
9, 20100, Note_on_c, 9, 38, 0
9, 20100, Note_on_c, 9, 38, 127
9, 20130, Note_on_c, 9, 38, 0
9, 20130, Note_on_c, 9, 38, 127
9, 20160, Note_on_c, 9, 38, 0
9, 20160, Note_on_c, 9, 36, 127
9, 20160, Note_on_c, 9, 42, 127
9, 20220, Note_on_c, 9, 36, 0
9, 20220, Note_on_c, 9, 42, 0
9, 20220, Note_on_c, 9, 42, 127
9, 20220, Note_on_c, 9, 36, 127
9, 20250, Note_on_c, 9, 42, 0
9, 20250, Note_on_c, 9, 38, 127
9, 20280, Note_on_c, 9, 36, 0
9, 20280, Note_on_c, 9, 38, 0
9, 20280, Note_on_c, 9, 38, 127
9, 20310, Note_on_c, 9, 38, 0
9, 20310, Note_on_c, 9, 38, 127
9, 20340, Note_on_c, 9, 38, 0
9, 20340, Note_on_c, 9, 48, 127
9, 20340, Note_on_c, 9, 47, 127
9, 20340, Note_on_c, 9, 36, 127
9, 20400, Note_on_c, 9, 48, 0
9, 20400, Note_on_c, 9, 47, 0
9, 20400, Note_on_c, 9, 48, 127
9, 20400, Note_on_c, 9, 47, 127
9, 20430, Note_on_c, 9, 48, 0
9, 20430, Note_on_c, 9, 47, 0
9, 20430, Note_on_c, 9, 38, 127
9, 20460, Note_on_c, 9, 38, 0
9, 20460, Note_on_c, 9, 38, 127
9, 20490, Note_on_c, 9, 38, 0
9, 20490, Note_on_c, 9, 38, 127
9, 20520, Note_on_c, 9, 36, 0
9, 20520, Note_on_c, 9, 38, 0
9, 20520, Note_on_c, 9, 36, 127
9, 20520, Note_on_c, 9, 57, 127
9, 20580, Note_on_c, 9, 57, 0
9, 20580, Note_on_c, 9, 42, 127
9, 20640, Note_on_c, 9, 42, 0
9, 20640, Note_on_c, 9, 42, 127
9, 20700, Note_on_c, 9, 36, 0
9, 20700, Note_on_c, 9, 42, 0
9, 20700, Note_on_c, 9, 38, 127
9, 20700, Note_on_c, 9, 42, 127
9, 20760, Note_on_c, 9, 38, 0
9, 20760, Note_on_c, 9, 42, 0
9, 20760, Note_on_c, 9, 42, 127
9, 20820, Note_on_c, 9, 42, 0
9, 20820, Note_on_c, 9, 42, 127
9, 20880, Note_on_c, 9, 42, 0
9, 20880, Note_on_c, 9, 36, 127
9, 20880, Note_on_c, 9, 42, 127
9, 20940, Note_on_c, 9, 42, 0
9, 20940, Note_on_c, 9, 42, 127
9, 21000, Note_on_c, 9, 42, 0
9, 21000, Note_on_c, 9, 42, 127
9, 21060, Note_on_c, 9, 36, 0
9, 21060, Note_on_c, 9, 42, 0
9, 21060, Note_on_c, 9, 38, 127
9, 21060, Note_on_c, 9, 42, 127
9, 21120, Note_on_c, 9, 38, 0
9, 21120, Note_on_c, 9, 42, 0
9, 21120, Note_on_c, 9, 42, 127
9, 21180, Note_on_c, 9, 42, 0
9, 21180, Note_on_c, 9, 36, 127
9, 21180, Note_on_c, 9, 42, 127
9, 21240, Note_on_c, 9, 36, 0
9, 21240, Note_on_c, 9, 42, 0
9, 21240, Note_on_c, 9, 42, 127
9, 21240, Note_on_c, 9, 36, 127
9, 21300, Note_on_c, 9, 42, 0
9, 21300, Note_on_c, 9, 42, 127
9, 21360, Note_on_c, 9, 42, 0
9, 21360, Note_on_c, 9, 42, 127
9, 21420, Note_on_c, 9, 36, 0
9, 21420, Note_on_c, 9, 42, 0
9, 21420, Note_on_c, 9, 38, 127
9, 21420, Note_on_c, 9, 42, 127
9, 21480, Note_on_c, 9, 38, 0
9, 21480, Note_on_c, 9, 42, 0
9, 21480, Note_on_c, 9, 42, 127
9, 21540, Note_on_c, 9, 42, 0
9, 21540, Note_on_c, 9, 42, 127
9, 21600, Note_on_c, 9, 42, 0
9, 21600, Note_on_c, 9, 36, 127
9, 21600, Note_on_c, 9, 42, 127
9, 21660, Note_on_c, 9, 42, 0
9, 21660, Note_on_c, 9, 42, 127
9, 21720, Note_on_c, 9, 42, 0
9, 21720, Note_on_c, 9, 42, 127
9, 21780, Note_on_c, 9, 36, 0
9, 21780, Note_on_c, 9, 42, 0
9, 21780, Note_on_c, 9, 38, 127
9, 21780, Note_on_c, 9, 42, 127
9, 21840, Note_on_c, 9, 38, 0
9, 21840, Note_on_c, 9, 42, 0
9, 21840, Note_on_c, 9, 42, 127
9, 21900, Note_on_c, 9, 42, 0
9, 21900, Note_on_c, 9, 36, 127
9, 21900, Note_on_c, 9, 42, 127
9, 21960, Note_on_c, 9, 36, 0
9, 21960, Note_on_c, 9, 42, 0
9, 21960, Note_on_c, 9, 36, 127
9, 21960, Note_on_c, 9, 42, 127
9, 22020, Note_on_c, 9, 42, 0
9, 22020, Note_on_c, 9, 42, 127
9, 22080, Note_on_c, 9, 42, 0
9, 22080, Note_on_c, 9, 42, 127
9, 22140, Note_on_c, 9, 36, 0
9, 22140, Note_on_c, 9, 42, 0
9, 22140, Note_on_c, 9, 38, 127
9, 22140, Note_on_c, 9, 42, 127
9, 22200, Note_on_c, 9, 38, 0
9, 22200, Note_on_c, 9, 42, 0
9, 22200, Note_on_c, 9, 42, 127
9, 22260, Note_on_c, 9, 42, 0
9, 22260, Note_on_c, 9, 42, 127
9, 22320, Note_on_c, 9, 42, 0
9, 22320, Note_on_c, 9, 36, 127
9, 22320, Note_on_c, 9, 42, 127
9, 22380, Note_on_c, 9, 42, 0
9, 22380, Note_on_c, 9, 42, 127
9, 22440, Note_on_c, 9, 42, 0
9, 22440, Note_on_c, 9, 42, 127
9, 22500, Note_on_c, 9, 36, 0
9, 22500, Note_on_c, 9, 42, 0
9, 22500, Note_on_c, 9, 38, 127
9, 22500, Note_on_c, 9, 42, 127
9, 22560, Note_on_c, 9, 38, 0
9, 22560, Note_on_c, 9, 42, 0
9, 22560, Note_on_c, 9, 42, 127
9, 22620, Note_on_c, 9, 42, 0
9, 22620, Note_on_c, 9, 36, 127
9, 22620, Note_on_c, 9, 42, 127
9, 22680, Note_on_c, 9, 36, 0
9, 22680, Note_on_c, 9, 42, 0
9, 22680, Note_on_c, 9, 36, 127
9, 22680, Note_on_c, 9, 42, 127
9, 22740, Note_on_c, 9, 42, 0
9, 22740, Note_on_c, 9, 42, 127
9, 22800, Note_on_c, 9, 42, 0
9, 22800, Note_on_c, 9, 42, 127
9, 22860, Note_on_c, 9, 36, 0
9, 22860, Note_on_c, 9, 42, 0
9, 22860, Note_on_c, 9, 38, 127
9, 22860, Note_on_c, 9, 42, 127
9, 22920, Note_on_c, 9, 38, 0
9, 22920, Note_on_c, 9, 42, 0
9, 22920, Note_on_c, 9, 42, 127
9, 22980, Note_on_c, 9, 42, 0
9, 22980, Note_on_c, 9, 42, 127
9, 23040, Note_on_c, 9, 42, 0
9, 23040, Note_on_c, 9, 36, 127
9, 23040, Note_on_c, 9, 57, 127
9, 23100, Note_on_c, 9, 57, 0
9, 23100, Note_on_c, 9, 42, 127
9, 23160, Note_on_c, 9, 42, 0
9, 23160, Note_on_c, 9, 42, 127
9, 23220, Note_on_c, 9, 36, 0
9, 23220, Note_on_c, 9, 42, 0
9, 23220, Note_on_c, 9, 38, 127
9, 23220, Note_on_c, 9, 42, 127
9, 23280, Note_on_c, 9, 38, 0
9, 23280, Note_on_c, 9, 42, 0
9, 23280, Note_on_c, 9, 42, 127
9, 23340, Note_on_c, 9, 42, 0
9, 23340, Note_on_c, 9, 42, 127
9, 23400, Note_on_c, 9, 42, 0
9, 23400, Note_on_c, 9, 36, 127
9, 23400, Note_on_c, 9, 57, 127
9, 23460, Note_on_c, 9, 57, 0
9, 23460, Note_on_c, 9, 42, 127
9, 23520, Note_on_c, 9, 42, 0
9, 23520, Note_on_c, 9, 42, 127
9, 23580, Note_on_c, 9, 36, 0
9, 23580, Note_on_c, 9, 42, 0
9, 23580, Note_on_c, 9, 38, 127
9, 23580, Note_on_c, 9, 57, 127
9, 23640, Note_on_c, 9, 38, 0
9, 23640, Note_on_c, 9, 57, 0
9, 23640, Note_on_c, 9, 42, 127
9, 23700, Note_on_c, 9, 42, 0
9, 23700, Note_on_c, 9, 42, 127
9, 23760, Note_on_c, 9, 42, 0
9, 23760, Note_on_c, 9, 36, 127
9, 23760, Note_on_c, 9, 57, 127
9, 23820, Note_on_c, 9, 57, 0
9, 23820, Note_on_c, 9, 47, 127
9, 23820, Note_on_c, 9, 42, 127
9, 23880, Note_on_c, 9, 47, 0
9, 23880, Note_on_c, 9, 42, 0
9, 23880, Note_on_c, 9, 42, 127
9, 23940, Note_on_c, 9, 36, 0
9, 23940, Note_on_c, 9, 42, 0
9, 23940, Note_on_c, 9, 35, 127
9, 23940, Note_on_c, 9, 42, 127
9, 24000, Note_on_c, 9, 42, 0
9, 24000, Note_on_c, 9, 47, 127
9, 24000, Note_on_c, 9, 42, 127
9, 24060, Note_on_c, 9, 47, 0
9, 24060, Note_on_c, 9, 42, 0
9, 24060, Note_on_c, 9, 42, 127
9, 24120, Note_on_c, 9, 35, 0
9, 24120, Note_on_c, 9, 42, 0
9, 24120, Note_on_c, 9, 36, 127
9, 24120, Note_on_c, 9, 57, 127
9, 24180, Note_on_c, 9, 57, 0
9, 24180, Note_on_c, 9, 42, 127
9, 24240, Note_on_c, 9, 42, 0
9, 24240, Note_on_c, 9, 42, 127
9, 24300, Note_on_c, 9, 36, 0
9, 24300, Note_on_c, 9, 42, 0
9, 24300, Note_on_c, 9, 38, 127
9, 24300, Note_on_c, 9, 57, 127
9, 24360, Note_on_c, 9, 38, 0
9, 24360, Note_on_c, 9, 57, 0
9, 24360, Note_on_c, 9, 42, 127
9, 24420, Note_on_c, 9, 42, 0
9, 24420, Note_on_c, 9, 42, 127
9, 24480, Note_on_c, 9, 42, 0
9, 24480, Note_on_c, 9, 36, 127
9, 24480, Note_on_c, 9, 57, 127
9, 24540, Note_on_c, 9, 57, 0
9, 24540, Note_on_c, 9, 47, 127
9, 24540, Note_on_c, 9, 42, 127
9, 24600, Note_on_c, 9, 47, 0
9, 24600, Note_on_c, 9, 42, 0
9, 24600, Note_on_c, 9, 42, 127
9, 24660, Note_on_c, 9, 36, 0
9, 24660, Note_on_c, 9, 42, 0
9, 24660, Note_on_c, 9, 36, 127
9, 24660, Note_on_c, 9, 42, 127
9, 24720, Note_on_c, 9, 42, 0
9, 24720, Note_on_c, 9, 47, 127
9, 24720, Note_on_c, 9, 42, 127
9, 24780, Note_on_c, 9, 47, 0
9, 24780, Note_on_c, 9, 42, 0
9, 24780, Note_on_c, 9, 42, 127
9, 24840, Note_on_c, 9, 36, 0
9, 24840, Note_on_c, 9, 42, 0
9, 24840, Note_on_c, 9, 36, 127
9, 24840, Note_on_c, 9, 57, 127
9, 24900, Note_on_c, 9, 57, 0
9, 24900, Note_on_c, 9, 42, 127
9, 24960, Note_on_c, 9, 42, 0
9, 24960, Note_on_c, 9, 42, 127
9, 25020, Note_on_c, 9, 36, 0
9, 25020, Note_on_c, 9, 42, 0
9, 25020, Note_on_c, 9, 38, 127
9, 25020, Note_on_c, 9, 57, 127
9, 25080, Note_on_c, 9, 38, 0
9, 25080, Note_on_c, 9, 57, 0
9, 25080, Note_on_c, 9, 42, 127
9, 25140, Note_on_c, 9, 42, 0
9, 25140, Note_on_c, 9, 42, 127
9, 25200, Note_on_c, 9, 42, 0
9, 25200, Note_on_c, 9, 36, 127
9, 25200, Note_on_c, 9, 57, 127
9, 25260, Note_on_c, 9, 57, 0
9, 25260, Note_on_c, 9, 42, 127
9, 25320, Note_on_c, 9, 42, 0
9, 25320, Note_on_c, 9, 42, 127
9, 25380, Note_on_c, 9, 36, 0
9, 25380, Note_on_c, 9, 42, 0
9, 25380, Note_on_c, 9, 36, 127
9, 25380, Note_on_c, 9, 57, 127
9, 25440, Note_on_c, 9, 57, 0
9, 25440, Note_on_c, 9, 42, 127
9, 25500, Note_on_c, 9, 42, 0
9, 25500, Note_on_c, 9, 42, 127
9, 25560, Note_on_c, 9, 36, 0
9, 25560, Note_on_c, 9, 42, 0
9, 25560, Note_on_c, 9, 38, 127
9, 25560, Note_on_c, 9, 42, 127
9, 25620, Note_on_c, 9, 38, 0
9, 25620, Note_on_c, 9, 42, 0
9, 25620, Note_on_c, 9, 42, 127
9, 25650, Note_on_c, 9, 42, 0
9, 25650, Note_on_c, 9, 38, 127
9, 25680, Note_on_c, 9, 38, 0
9, 25680, Note_on_c, 9, 48, 127
9, 25740, Note_on_c, 9, 48, 0
9, 25740, Note_on_c, 9, 47, 127
9, 25740, Note_on_c, 9, 38, 127
9, 25800, Note_on_c, 9, 47, 0
9, 25800, Note_on_c, 9, 38, 0
9, 25800, Note_on_c, 9, 47, 127
9, 25830, Note_on_c, 9, 47, 0
9, 25830, Note_on_c, 9, 38, 127
9, 25860, Note_on_c, 9, 38, 0
9, 25860, Note_on_c, 9, 47, 127
9, 25920, Note_on_c, 9, 47, 0
9, 25920, Note_on_c, 9, 48, 127
9, 25920, Note_on_c, 9, 38, 127
9, 25980, Note_on_c, 9, 48, 0
9, 25980, Note_on_c, 9, 38, 0
9, 25980, Note_on_c, 9, 48, 127
9, 26010, Note_on_c, 9, 48, 0
9, 26010, Note_on_c, 9, 38, 127
9, 26040, Note_on_c, 9, 38, 0
9, 26040, Note_on_c, 9, 48, 127
9, 26100, Note_on_c, 9, 48, 0
9, 26100, Note_on_c, 9, 36, 127
9, 26100, Note_on_c, 9, 57, 127
9, 26160, Note_on_c, 9, 57, 0
9, 26160, Note_on_c, 9, 42, 127
9, 26220, Note_on_c, 9, 42, 0
9, 26220, Note_on_c, 9, 42, 127
9, 26280, Note_on_c, 9, 36, 0
9, 26280, Note_on_c, 9, 42, 0
9, 26280, Note_on_c, 9, 76, 127
9, 26280, Note_on_c, 9, 42, 127
9, 26340, Note_on_c, 9, 76, 0
9, 26340, Note_on_c, 9, 42, 0
9, 26340, Note_on_c, 9, 42, 127
9, 26400, Note_on_c, 9, 42, 0
9, 26400, Note_on_c, 9, 42, 127
9, 26460, Note_on_c, 9, 42, 0
9, 26460, Note_on_c, 9, 36, 127
9, 26460, Note_on_c, 9, 42, 127
9, 26520, Note_on_c, 9, 42, 0
9, 26520, Note_on_c, 9, 42, 127
9, 26580, Note_on_c, 9, 42, 0
9, 26580, Note_on_c, 9, 42, 127
9, 26640, Note_on_c, 9, 36, 0
9, 26640, Note_on_c, 9, 42, 0
9, 26640, Note_on_c, 9, 76, 127
9, 26640, Note_on_c, 9, 42, 127
9, 26700, Note_on_c, 9, 76, 0
9, 26700, Note_on_c, 9, 42, 0
9, 26700, Note_on_c, 9, 42, 127
9, 26760, Note_on_c, 9, 42, 0
9, 26760, Note_on_c, 9, 42, 127
9, 26820, Note_on_c, 9, 42, 0
9, 26820, Note_on_c, 9, 36, 127
9, 26820, Note_on_c, 9, 57, 127
9, 26880, Note_on_c, 9, 57, 0
9, 26880, Note_on_c, 9, 42, 127
9, 26940, Note_on_c, 9, 42, 0
9, 26940, Note_on_c, 9, 42, 127
9, 27000, Note_on_c, 9, 36, 0
9, 27000, Note_on_c, 9, 42, 0
9, 27000, Note_on_c, 9, 76, 127
9, 27000, Note_on_c, 9, 42, 127
9, 27060, Note_on_c, 9, 76, 0
9, 27060, Note_on_c, 9, 42, 0
9, 27060, Note_on_c, 9, 42, 127
9, 27120, Note_on_c, 9, 42, 0
9, 27120, Note_on_c, 9, 42, 127
9, 27180, Note_on_c, 9, 42, 0
9, 27180, Note_on_c, 9, 36, 127
9, 27180, Note_on_c, 9, 42, 127
9, 27240, Note_on_c, 9, 42, 0
9, 27240, Note_on_c, 9, 42, 127
9, 27300, Note_on_c, 9, 42, 0
9, 27300, Note_on_c, 9, 42, 127
9, 27360, Note_on_c, 9, 36, 0
9, 27360, Note_on_c, 9, 42, 0
9, 27360, Note_on_c, 9, 76, 127
9, 27360, Note_on_c, 9, 42, 127
9, 27420, Note_on_c, 9, 76, 0
9, 27420, Note_on_c, 9, 42, 0
9, 27420, Note_on_c, 9, 42, 127
9, 27480, Note_on_c, 9, 42, 0
9, 27480, Note_on_c, 9, 42, 127
9, 27540, Note_on_c, 9, 42, 0
9, 27540, Note_on_c, 9, 36, 127
9, 27540, Note_on_c, 9, 57, 127
9, 27600, Note_on_c, 9, 57, 0
9, 27600, Note_on_c, 9, 42, 127
9, 27660, Note_on_c, 9, 42, 0
9, 27660, Note_on_c, 9, 42, 127
9, 27720, Note_on_c, 9, 36, 0
9, 27720, Note_on_c, 9, 42, 0
9, 27720, Note_on_c, 9, 76, 127
9, 27720, Note_on_c, 9, 42, 127
9, 27780, Note_on_c, 9, 76, 0
9, 27780, Note_on_c, 9, 42, 0
9, 27780, Note_on_c, 9, 42, 127
9, 27840, Note_on_c, 9, 42, 0
9, 27840, Note_on_c, 9, 42, 127
9, 27900, Note_on_c, 9, 42, 0
9, 27900, Note_on_c, 9, 36, 127
9, 27900, Note_on_c, 9, 42, 127
9, 27960, Note_on_c, 9, 42, 0
9, 27960, Note_on_c, 9, 42, 127
9, 28020, Note_on_c, 9, 42, 0
9, 28020, Note_on_c, 9, 42, 127
9, 28080, Note_on_c, 9, 36, 0
9, 28080, Note_on_c, 9, 42, 0
9, 28080, Note_on_c, 9, 76, 127
9, 28080, Note_on_c, 9, 42, 127
9, 28140, Note_on_c, 9, 76, 0
9, 28140, Note_on_c, 9, 42, 0
9, 28140, Note_on_c, 9, 42, 127
9, 28200, Note_on_c, 9, 42, 0
9, 28200, Note_on_c, 9, 42, 127
9, 28260, Note_on_c, 9, 42, 0
9, 28260, Note_on_c, 9, 36, 127
9, 28260, Note_on_c, 9, 57, 127
9, 28320, Note_on_c, 9, 57, 0
9, 28320, Note_on_c, 9, 42, 127
9, 28380, Note_on_c, 9, 42, 0
9, 28380, Note_on_c, 9, 42, 127
9, 28440, Note_on_c, 9, 36, 0
9, 28440, Note_on_c, 9, 42, 0
9, 28440, Note_on_c, 9, 38, 127
9, 28440, Note_on_c, 9, 42, 127
9, 28470, Note_on_c, 9, 36, 127
9, 28500, Note_on_c, 9, 38, 0
9, 28500, Note_on_c, 9, 42, 0
9, 28500, Note_on_c, 9, 42, 127
9, 28530, Note_on_c, 9, 36, 0
9, 28530, Note_on_c, 9, 36, 127
9, 28560, Note_on_c, 9, 42, 0
9, 28560, Note_on_c, 9, 42, 127
9, 28590, Note_on_c, 9, 36, 0
9, 28590, Note_on_c, 9, 36, 127
9, 28620, Note_on_c, 9, 42, 0
9, 28620, Note_on_c, 9, 36, 0
9, 28620, Note_on_c, 9, 38, 127
9, 28620, Note_on_c, 9, 42, 127
9, 28680, Note_on_c, 9, 38, 0
9, 28680, Note_on_c, 9, 42, 0
9, 28680, Note_on_c, 9, 42, 127
9, 28740, Note_on_c, 9, 42, 0
9, 28740, Note_on_c, 9, 38, 127
9, 28740, Note_on_c, 9, 42, 127
9, 28800, Note_on_c, 9, 38, 0
9, 28800, Note_on_c, 9, 42, 0
9, 28800, Note_on_c, 9, 38, 127
9, 28800, Note_on_c, 9, 42, 127
9, 28830, Note_on_c, 9, 36, 127
9, 28860, Note_on_c, 9, 38, 0
9, 28860, Note_on_c, 9, 42, 0
9, 28860, Note_on_c, 9, 42, 127
9, 28890, Note_on_c, 9, 36, 0
9, 28890, Note_on_c, 9, 36, 127
9, 28920, Note_on_c, 9, 42, 0
9, 28920, Note_on_c, 9, 36, 0
9, 28920, Note_on_c, 9, 38, 127
9, 28920, Note_on_c, 9, 42, 127
9, 28980, Note_on_c, 9, 38, 0
9, 28980, Note_on_c, 9, 42, 0
9, 28980, Note_on_c, 9, 36, 127
9, 28980, Note_on_c, 9, 57, 127
9, 29040, Note_on_c, 9, 57, 0
9, 29040, Note_on_c, 9, 42, 127
9, 29100, Note_on_c, 9, 42, 0
9, 29100, Note_on_c, 9, 42, 127
9, 29160, Note_on_c, 9, 36, 0
9, 29160, Note_on_c, 9, 42, 0
9, 29160, Note_on_c, 9, 38, 127
9, 29160, Note_on_c, 9, 42, 127
9, 29220, Note_on_c, 9, 38, 0
9, 29220, Note_on_c, 9, 42, 0
9, 29220, Note_on_c, 9, 42, 127
9, 29280, Note_on_c, 9, 42, 0
9, 29280, Note_on_c, 9, 42, 127
9, 29340, Note_on_c, 9, 42, 0
9, 29340, Note_on_c, 9, 36, 127
9, 29340, Note_on_c, 9, 42, 127
9, 29400, Note_on_c, 9, 42, 0
9, 29400, Note_on_c, 9, 42, 127
9, 29460, Note_on_c, 9, 42, 0
9, 29460, Note_on_c, 9, 42, 127
9, 29520, Note_on_c, 9, 36, 0
9, 29520, Note_on_c, 9, 42, 0
9, 29520, Note_on_c, 9, 38, 127
9, 29520, Note_on_c, 9, 47, 127
9, 29580, Note_on_c, 9, 38, 0
9, 29580, Note_on_c, 9, 47, 0
9, 29580, Note_on_c, 9, 48, 127
9, 29640, Note_on_c, 9, 48, 0
9, 29640, Note_on_c, 9, 50, 127
9, 29700, Note_on_c, 9, 50, 0
9, 29700, Note_on_c, 9, 36, 127
9, 29700, Note_on_c, 9, 57, 127
9, 29760, Note_on_c, 9, 57, 0
9, 29760, Note_on_c, 9, 42, 127
9, 29820, Note_on_c, 9, 42, 0
9, 29820, Note_on_c, 9, 42, 127
9, 29880, Note_on_c, 9, 36, 0
9, 29880, Note_on_c, 9, 42, 0
9, 29880, Note_on_c, 9, 38, 127
9, 29880, Note_on_c, 9, 42, 127
9, 29940, Note_on_c, 9, 38, 0
9, 29940, Note_on_c, 9, 42, 0
9, 29940, Note_on_c, 9, 42, 127
9, 30000, Note_on_c, 9, 42, 0
9, 30000, Note_on_c, 9, 42, 127
9, 30060, Note_on_c, 9, 42, 0
9, 30060, Note_on_c, 9, 36, 127
9, 30060, Note_on_c, 9, 42, 127
9, 30120, Note_on_c, 9, 42, 0
9, 30120, Note_on_c, 9, 42, 127
9, 30180, Note_on_c, 9, 42, 0
9, 30180, Note_on_c, 9, 42, 127
9, 30240, Note_on_c, 9, 36, 0
9, 30240, Note_on_c, 9, 42, 0
9, 30240, Note_on_c, 9, 38, 127
9, 30240, Note_on_c, 9, 46, 127
9, 30285, Note_on_c, 9, 38, 0
9, 30285, Note_on_c, 9, 46, 0
9, 30285, Note_on_c, 9, 46, 127
9, 30300, Note_on_c, 9, 46, 0
9, 30300, Note_on_c, 9, 46, 127
9, 30345, Note_on_c, 9, 46, 0
9, 30345, Note_on_c, 9, 46, 127
9, 30360, Note_on_c, 9, 46, 0
9, 30360, Note_on_c, 9, 46, 127
9, 30420, Note_on_c, 9, 46, 0
9, 30420, Note_on_c, 9, 36, 127
9, 30420, Note_on_c, 9, 57, 127
9, 30480, Note_on_c, 9, 57, 0
9, 30480, Note_on_c, 9, 42, 127
9, 30540, Note_on_c, 9, 42, 0
9, 30540, Note_on_c, 9, 42, 127
9, 30600, Note_on_c, 9, 36, 0
9, 30600, Note_on_c, 9, 42, 0
9, 30600, Note_on_c, 9, 38, 127
9, 30600, Note_on_c, 9, 42, 127
9, 30660, Note_on_c, 9, 38, 0
9, 30660, Note_on_c, 9, 42, 0
9, 30660, Note_on_c, 9, 42, 127
9, 30720, Note_on_c, 9, 42, 0
9, 30720, Note_on_c, 9, 42, 127
9, 30780, Note_on_c, 9, 42, 0
9, 30780, Note_on_c, 9, 36, 127
9, 30780, Note_on_c, 9, 57, 127
9, 30840, Note_on_c, 9, 57, 0
9, 30840, Note_on_c, 9, 42, 127
9, 30900, Note_on_c, 9, 42, 0
9, 30900, Note_on_c, 9, 42, 127
9, 30960, Note_on_c, 9, 36, 0
9, 30960, Note_on_c, 9, 42, 0
9, 30960, Note_on_c, 9, 38, 127
9, 30960, Note_on_c, 9, 42, 127
9, 31020, Note_on_c, 9, 38, 0
9, 31020, Note_on_c, 9, 42, 0
9, 31020, Note_on_c, 9, 42, 127
9, 31080, Note_on_c, 9, 42, 0
9, 31080, Note_on_c, 9, 42, 127
9, 31140, Note_on_c, 9, 42, 0
9, 31140, Note_on_c, 9, 36, 127
9, 31140, Note_on_c, 9, 57, 127
9, 31200, Note_on_c, 9, 57, 0
9, 31200, Note_on_c, 9, 42, 127
9, 31260, Note_on_c, 9, 42, 0
9, 31260, Note_on_c, 9, 42, 127
9, 31320, Note_on_c, 9, 36, 0
9, 31320, Note_on_c, 9, 42, 0
9, 31320, Note_on_c, 9, 38, 127
9, 31320, Note_on_c, 9, 42, 127
9, 31380, Note_on_c, 9, 38, 0
9, 31380, Note_on_c, 9, 42, 0
9, 31380, Note_on_c, 9, 42, 127
9, 31440, Note_on_c, 9, 42, 0
9, 31440, Note_on_c, 9, 38, 127
9, 31440, Note_on_c, 9, 42, 127
9, 31500, Note_on_c, 9, 38, 0
9, 31500, Note_on_c, 9, 42, 0
9, 31500, Note_on_c, 9, 38, 127
9, 31500, Note_on_c, 9, 42, 127
9, 31560, Note_on_c, 9, 38, 0
9, 31560, Note_on_c, 9, 42, 0
9, 31560, Note_on_c, 9, 42, 127
9, 31590, Note_on_c, 9, 42, 0
9, 31590, Note_on_c, 9, 38, 127
9, 31620, Note_on_c, 9, 38, 0
9, 31620, Note_on_c, 9, 38, 127
9, 31650, Note_on_c, 9, 38, 0
9, 31650, Note_on_c, 9, 38, 127
9, 31680, Note_on_c, 9, 38, 0
9, 31680, Note_on_c, 9, 42, 127
9, 31740, Note_on_c, 9, 42, 0
9, 31740, Note_on_c, 9, 43, 127
9, 31770, Note_on_c, 9, 43, 0
9, 31770, Note_on_c, 9, 43, 127
9, 31800, Note_on_c, 9, 43, 0
9, 31800, Note_on_c, 9, 43, 127
9, 31830, Note_on_c, 9, 43, 0
9, 31830, Note_on_c, 9, 43, 127
9, 31860, Note_on_c, 9, 43, 0
9, 31860, Note_on_c, 9, 36, 127
9, 31860, Note_on_c, 9, 57, 127
9, 31920, Note_on_c, 9, 57, 0
9, 31920, Note_on_c, 9, 42, 127
9, 31980, Note_on_c, 9, 42, 0
9, 31980, Note_on_c, 9, 42, 127
9, 32040, Note_on_c, 9, 36, 0
9, 32040, Note_on_c, 9, 42, 0
9, 32040, Note_on_c, 9, 38, 127
9, 32040, Note_on_c, 9, 42, 127
9, 32100, Note_on_c, 9, 38, 0
9, 32100, Note_on_c, 9, 42, 0
9, 32100, Note_on_c, 9, 42, 127
9, 32160, Note_on_c, 9, 42, 0
9, 32160, Note_on_c, 9, 42, 127
9, 32220, Note_on_c, 9, 42, 0
9, 32220, Note_on_c, 9, 36, 127
9, 32220, Note_on_c, 9, 42, 127
9, 32280, Note_on_c, 9, 42, 0
9, 32280, Note_on_c, 9, 42, 127
9, 32340, Note_on_c, 9, 42, 0
9, 32340, Note_on_c, 9, 42, 127
9, 32400, Note_on_c, 9, 36, 0
9, 32400, Note_on_c, 9, 42, 0
9, 32400, Note_on_c, 9, 38, 127
9, 32400, Note_on_c, 9, 42, 127
9, 32460, Note_on_c, 9, 38, 0
9, 32460, Note_on_c, 9, 42, 0
9, 32460, Note_on_c, 9, 42, 127
9, 32520, Note_on_c, 9, 42, 0
9, 32520, Note_on_c, 9, 36, 127
9, 32520, Note_on_c, 9, 42, 127
9, 32580, Note_on_c, 9, 36, 0
9, 32580, Note_on_c, 9, 42, 0
9, 32580, Note_on_c, 9, 36, 127
9, 32580, Note_on_c, 9, 42, 127
9, 32640, Note_on_c, 9, 42, 0
9, 32640, Note_on_c, 9, 42, 127
9, 32700, Note_on_c, 9, 42, 0
9, 32700, Note_on_c, 9, 42, 127
9, 32760, Note_on_c, 9, 36, 0
9, 32760, Note_on_c, 9, 42, 0
9, 32760, Note_on_c, 9, 38, 127
9, 32760, Note_on_c, 9, 42, 127
9, 32820, Note_on_c, 9, 38, 0
9, 32820, Note_on_c, 9, 42, 0
9, 32820, Note_on_c, 9, 42, 127
9, 32880, Note_on_c, 9, 42, 0
9, 32880, Note_on_c, 9, 42, 127
9, 32940, Note_on_c, 9, 42, 0
9, 32940, Note_on_c, 9, 36, 127
9, 32940, Note_on_c, 9, 42, 127
9, 33000, Note_on_c, 9, 42, 0
9, 33000, Note_on_c, 9, 42, 127
9, 33060, Note_on_c, 9, 42, 0
9, 33060, Note_on_c, 9, 42, 127
9, 33120, Note_on_c, 9, 36, 0
9, 33120, Note_on_c, 9, 42, 0
9, 33120, Note_on_c, 9, 38, 127
9, 33120, Note_on_c, 9, 42, 127
9, 33180, Note_on_c, 9, 38, 0
9, 33180, Note_on_c, 9, 42, 0
9, 33180, Note_on_c, 9, 42, 127
9, 33240, Note_on_c, 9, 42, 0
9, 33240, Note_on_c, 9, 36, 127
9, 33240, Note_on_c, 9, 42, 127
9, 33300, Note_on_c, 9, 36, 0
9, 33300, Note_on_c, 9, 42, 0
9, 33300, Note_on_c, 9, 36, 127
9, 33300, Note_on_c, 9, 42, 127
9, 33360, Note_on_c, 9, 42, 0
9, 33360, Note_on_c, 9, 42, 127
9, 33420, Note_on_c, 9, 42, 0
9, 33420, Note_on_c, 9, 42, 127
9, 33480, Note_on_c, 9, 36, 0
9, 33480, Note_on_c, 9, 42, 0
9, 33480, Note_on_c, 9, 38, 127
9, 33480, Note_on_c, 9, 42, 127
9, 33540, Note_on_c, 9, 38, 0
9, 33540, Note_on_c, 9, 42, 0
9, 33540, Note_on_c, 9, 42, 127
9, 33600, Note_on_c, 9, 42, 0
9, 33600, Note_on_c, 9, 42, 127
9, 33660, Note_on_c, 9, 42, 0
9, 33660, Note_on_c, 9, 36, 127
9, 33660, Note_on_c, 9, 42, 127
9, 33720, Note_on_c, 9, 42, 0
9, 33720, Note_on_c, 9, 42, 127
9, 33780, Note_on_c, 9, 42, 0
9, 33780, Note_on_c, 9, 42, 127
9, 33840, Note_on_c, 9, 36, 0
9, 33840, Note_on_c, 9, 42, 0
9, 33840, Note_on_c, 9, 38, 127
9, 33840, Note_on_c, 9, 42, 127
9, 33900, Note_on_c, 9, 38, 0
9, 33900, Note_on_c, 9, 42, 0
9, 33900, Note_on_c, 9, 42, 127
9, 33960, Note_on_c, 9, 42, 0
9, 33960, Note_on_c, 9, 36, 127
9, 33960, Note_on_c, 9, 42, 127
9, 34020, Note_on_c, 9, 36, 0
9, 34020, Note_on_c, 9, 42, 0
9, 34020, Note_on_c, 9, 36, 127
9, 34020, Note_on_c, 9, 42, 127
9, 34080, Note_on_c, 9, 42, 0
9, 34080, Note_on_c, 9, 42, 127
9, 34140, Note_on_c, 9, 42, 0
9, 34140, Note_on_c, 9, 42, 127
9, 34200, Note_on_c, 9, 36, 0
9, 34200, Note_on_c, 9, 42, 0
9, 34200, Note_on_c, 9, 38, 127
9, 34200, Note_on_c, 9, 42, 127
9, 34260, Note_on_c, 9, 38, 0
9, 34260, Note_on_c, 9, 42, 0
9, 34260, Note_on_c, 9, 42, 127
9, 34320, Note_on_c, 9, 42, 0
9, 34320, Note_on_c, 9, 42, 127
9, 34380, Note_on_c, 9, 42, 0
9, 34380, Note_on_c, 9, 36, 127
9, 34380, Note_on_c, 9, 57, 127
9, 34440, Note_on_c, 9, 57, 0
9, 34440, Note_on_c, 9, 42, 127
9, 34500, Note_on_c, 9, 42, 0
9, 34500, Note_on_c, 9, 42, 127
9, 34560, Note_on_c, 9, 36, 0
9, 34560, Note_on_c, 9, 42, 0
9, 34560, Note_on_c, 9, 38, 127
9, 34560, Note_on_c, 9, 42, 127
9, 34620, Note_on_c, 9, 38, 0
9, 34620, Note_on_c, 9, 42, 0
9, 34620, Note_on_c, 9, 38, 127
9, 34620, Note_on_c, 9, 42, 127
9, 34680, Note_on_c, 9, 38, 0
9, 34680, Note_on_c, 9, 42, 0
9, 34680, Note_on_c, 9, 38, 127
9, 34680, Note_on_c, 9, 42, 127
9, 34740, Note_on_c, 9, 38, 0
9, 34740, Note_on_c, 9, 42, 0
9, 34740, Note_on_c, 9, 42, 127
9, 34770, Note_on_c, 9, 42, 0
9, 34770, Note_on_c, 9, 38, 127
9, 34800, Note_on_c, 9, 38, 0
9, 34800, Note_on_c, 9, 45, 127
9, 34830, Note_on_c, 9, 45, 0
9, 34830, Note_on_c, 9, 38, 127
9, 34860, Note_on_c, 9, 38, 0
9, 34860, Note_on_c, 9, 47, 127
9, 34890, Note_on_c, 9, 47, 0
9, 34890, Note_on_c, 9, 38, 127
9, 34920, Note_on_c, 9, 38, 0
9, 34920, Note_on_c, 9, 48, 127
9, 34950, Note_on_c, 9, 48, 0
9, 34950, Note_on_c, 9, 48, 127
9, 34980, Note_on_c, 9, 48, 0
9, 34980, Note_on_c, 9, 50, 127
9, 35010, Note_on_c, 9, 50, 0
9, 35010, Note_on_c, 9, 50, 127
9, 35040, Note_on_c, 9, 50, 0
9, 35040, Note_on_c, 9, 43, 127
9, 35070, Note_on_c, 9, 43, 0
9, 35070, Note_on_c, 9, 43, 127
9, 35100, Note_on_c, 9, 43, 0
9, 35100, Note_on_c, 9, 36, 127
9, 35100, Note_on_c, 9, 57, 127
9, 35160, Note_on_c, 9, 57, 0
9, 35160, Note_on_c, 9, 42, 127
9, 35220, Note_on_c, 9, 42, 0
9, 35220, Note_on_c, 9, 42, 127
9, 35280, Note_on_c, 9, 36, 0
9, 35280, Note_on_c, 9, 42, 0
9, 35280, Note_on_c, 9, 38, 127
9, 35280, Note_on_c, 9, 42, 127
9, 35340, Note_on_c, 9, 38, 0
9, 35340, Note_on_c, 9, 42, 0
9, 35340, Note_on_c, 9, 42, 127
9, 35400, Note_on_c, 9, 42, 0
9, 35400, Note_on_c, 9, 42, 127
9, 35460, Note_on_c, 9, 42, 0
9, 35460, Note_on_c, 9, 36, 127
9, 35460, Note_on_c, 9, 42, 127
9, 35520, Note_on_c, 9, 42, 0
9, 35520, Note_on_c, 9, 42, 127
9, 35580, Note_on_c, 9, 42, 0
9, 35580, Note_on_c, 9, 42, 127
9, 35640, Note_on_c, 9, 36, 0
9, 35640, Note_on_c, 9, 42, 0
9, 35640, Note_on_c, 9, 38, 127
9, 35640, Note_on_c, 9, 42, 127
9, 35700, Note_on_c, 9, 38, 0
9, 35700, Note_on_c, 9, 42, 0
9, 35700, Note_on_c, 9, 42, 127
9, 35760, Note_on_c, 9, 42, 0
9, 35760, Note_on_c, 9, 36, 127
9, 35760, Note_on_c, 9, 57, 127
9, 35820, Note_on_c, 9, 36, 0
9, 35820, Note_on_c, 9, 57, 0
9, 35820, Note_on_c, 9, 36, 127
9, 35820, Note_on_c, 9, 57, 127
9, 35880, Note_on_c, 9, 57, 0
9, 35880, Note_on_c, 9, 42, 127
9, 35940, Note_on_c, 9, 42, 0
9, 35940, Note_on_c, 9, 42, 127
9, 36000, Note_on_c, 9, 36, 0
9, 36000, Note_on_c, 9, 42, 0
9, 36000, Note_on_c, 9, 38, 127
9, 36000, Note_on_c, 9, 42, 127
9, 36060, Note_on_c, 9, 38, 0
9, 36060, Note_on_c, 9, 42, 0
9, 36060, Note_on_c, 9, 42, 127
9, 36120, Note_on_c, 9, 42, 0
9, 36120, Note_on_c, 9, 42, 127
9, 36180, Note_on_c, 9, 42, 0
9, 36180, Note_on_c, 9, 36, 127
9, 36180, Note_on_c, 9, 42, 127
9, 36240, Note_on_c, 9, 42, 0
9, 36240, Note_on_c, 9, 42, 127
9, 36300, Note_on_c, 9, 42, 0
9, 36300, Note_on_c, 9, 42, 127
9, 36360, Note_on_c, 9, 36, 0
9, 36360, Note_on_c, 9, 42, 0
9, 36360, Note_on_c, 9, 38, 127
9, 36360, Note_on_c, 9, 42, 127
9, 36420, Note_on_c, 9, 38, 0
9, 36420, Note_on_c, 9, 42, 0
9, 36420, Note_on_c, 9, 42, 127
9, 36480, Note_on_c, 9, 42, 0
9, 36480, Note_on_c, 9, 36, 127
9, 36480, Note_on_c, 9, 57, 127
9, 36540, Note_on_c, 9, 36, 0
9, 36540, Note_on_c, 9, 57, 0
9, 36540, Note_on_c, 9, 36, 127
9, 36540, Note_on_c, 9, 57, 127
9, 36600, Note_on_c, 9, 57, 0
9, 36600, Note_on_c, 9, 42, 127
9, 36660, Note_on_c, 9, 42, 0
9, 36660, Note_on_c, 9, 42, 127
9, 36720, Note_on_c, 9, 36, 0
9, 36720, Note_on_c, 9, 42, 0
9, 36720, Note_on_c, 9, 38, 127
9, 36720, Note_on_c, 9, 42, 127
9, 36780, Note_on_c, 9, 38, 0
9, 36780, Note_on_c, 9, 42, 0
9, 36780, Note_on_c, 9, 42, 127
9, 36840, Note_on_c, 9, 42, 0
9, 36840, Note_on_c, 9, 42, 127
9, 36900, Note_on_c, 9, 42, 0
9, 36900, Note_on_c, 9, 36, 127
9, 36900, Note_on_c, 9, 42, 127
9, 36960, Note_on_c, 9, 42, 0
9, 36960, Note_on_c, 9, 42, 127
9, 37020, Note_on_c, 9, 42, 0
9, 37020, Note_on_c, 9, 42, 127
9, 37080, Note_on_c, 9, 36, 0
9, 37080, Note_on_c, 9, 42, 0
9, 37080, Note_on_c, 9, 38, 127
9, 37080, Note_on_c, 9, 42, 127
9, 37140, Note_on_c, 9, 38, 0
9, 37140, Note_on_c, 9, 42, 0
9, 37140, Note_on_c, 9, 42, 127
9, 37200, Note_on_c, 9, 42, 0
9, 37200, Note_on_c, 9, 36, 127
9, 37200, Note_on_c, 9, 57, 127
9, 37260, Note_on_c, 9, 36, 0
9, 37260, Note_on_c, 9, 57, 0
9, 37260, Note_on_c, 9, 36, 127
9, 37260, Note_on_c, 9, 57, 127
9, 37320, Note_on_c, 9, 57, 0
9, 37320, Note_on_c, 9, 42, 127
9, 37380, Note_on_c, 9, 42, 0
9, 37380, Note_on_c, 9, 42, 127
9, 37440, Note_on_c, 9, 36, 0
9, 37440, Note_on_c, 9, 42, 0
9, 37440, Note_on_c, 9, 38, 127
9, 37440, Note_on_c, 9, 42, 127
9, 37500, Note_on_c, 9, 38, 0
9, 37500, Note_on_c, 9, 42, 0
9, 37500, Note_on_c, 9, 42, 127
9, 37560, Note_on_c, 9, 42, 0
9, 37560, Note_on_c, 9, 42, 127
9, 37620, Note_on_c, 9, 42, 0
9, 37620, Note_on_c, 9, 36, 127
9, 37620, Note_on_c, 9, 57, 127
9, 37680, Note_on_c, 9, 57, 0
9, 37680, Note_on_c, 9, 42, 127
9, 37740, Note_on_c, 9, 42, 0
9, 37740, Note_on_c, 9, 42, 127
9, 37800, Note_on_c, 9, 36, 0
9, 37800, Note_on_c, 9, 42, 0
9, 37800, Note_on_c, 9, 38, 127
9, 37800, Note_on_c, 9, 42, 127
9, 37860, Note_on_c, 9, 38, 0
9, 37860, Note_on_c, 9, 42, 0
9, 37860, Note_on_c, 9, 42, 127
9, 37920, Note_on_c, 9, 42, 0
9, 37920, Note_on_c, 9, 42, 127
9, 37980, Note_on_c, 9, 42, 0
9, 37980, Note_on_c, 9, 36, 127
9, 37980, Note_on_c, 9, 57, 127
9, 38040, Note_on_c, 9, 57, 0
9, 38040, Note_on_c, 9, 42, 127
9, 38100, Note_on_c, 9, 42, 0
9, 38100, Note_on_c, 9, 42, 127
9, 38160, Note_on_c, 9, 36, 0
9, 38160, Note_on_c, 9, 42, 0
9, 38160, Note_on_c, 9, 38, 127
9, 38160, Note_on_c, 9, 42, 127
9, 38220, Note_on_c, 9, 38, 0
9, 38220, Note_on_c, 9, 42, 0
9, 38220, Note_on_c, 9, 42, 127
9, 38280, Note_on_c, 9, 42, 0
9, 38280, Note_on_c, 9, 42, 127
9, 38340, Note_on_c, 9, 42, 0
9, 38340, Note_on_c, 9, 36, 127
9, 38340, Note_on_c, 9, 57, 127
9, 38400, Note_on_c, 9, 57, 0
9, 38400, Note_on_c, 9, 45, 127
9, 38400, Note_on_c, 9, 42, 127
9, 38460, Note_on_c, 9, 45, 0
9, 38460, Note_on_c, 9, 42, 0
9, 38460, Note_on_c, 9, 42, 127
9, 38520, Note_on_c, 9, 36, 0
9, 38520, Note_on_c, 9, 42, 0
9, 38520, Note_on_c, 9, 36, 127
9, 38520, Note_on_c, 9, 42, 127
9, 38580, Note_on_c, 9, 42, 0
9, 38580, Note_on_c, 9, 45, 127
9, 38580, Note_on_c, 9, 42, 127
9, 38640, Note_on_c, 9, 45, 0
9, 38640, Note_on_c, 9, 42, 0
9, 38640, Note_on_c, 9, 42, 127
9, 38700, Note_on_c, 9, 36, 0
9, 38700, Note_on_c, 9, 42, 0
9, 38700, Note_on_c, 9, 36, 127
9, 38700, Note_on_c, 9, 57, 127
9, 38760, Note_on_c, 9, 57, 0
9, 38760, Note_on_c, 9, 42, 127
9, 38820, Note_on_c, 9, 42, 0
9, 38820, Note_on_c, 9, 42, 127
9, 38880, Note_on_c, 9, 36, 0
9, 38880, Note_on_c, 9, 42, 0
9, 38880, Note_on_c, 9, 38, 127
9, 38880, Note_on_c, 9, 57, 127
9, 38940, Note_on_c, 9, 38, 0
9, 38940, Note_on_c, 9, 57, 0
9, 38940, Note_on_c, 9, 42, 127
9, 39000, Note_on_c, 9, 42, 0
9, 39000, Note_on_c, 9, 42, 127
9, 39060, Note_on_c, 9, 42, 0
9, 39060, Note_on_c, 9, 36, 127
9, 39060, Note_on_c, 9, 57, 127
9, 39120, Note_on_c, 9, 57, 0
9, 39120, Note_on_c, 9, 45, 127
9, 39120, Note_on_c, 9, 42, 127
9, 39180, Note_on_c, 9, 45, 0
9, 39180, Note_on_c, 9, 42, 0
9, 39180, Note_on_c, 9, 42, 127
9, 39240, Note_on_c, 9, 36, 0
9, 39240, Note_on_c, 9, 42, 0
9, 39240, Note_on_c, 9, 36, 127
9, 39240, Note_on_c, 9, 42, 127
9, 39300, Note_on_c, 9, 42, 0
9, 39300, Note_on_c, 9, 45, 127
9, 39300, Note_on_c, 9, 42, 127
9, 39360, Note_on_c, 9, 45, 0
9, 39360, Note_on_c, 9, 42, 0
9, 39360, Note_on_c, 9, 42, 127
9, 39420, Note_on_c, 9, 36, 0
9, 39420, Note_on_c, 9, 42, 0
9, 39420, Note_on_c, 9, 36, 127
9, 39420, Note_on_c, 9, 57, 127
9, 39480, Note_on_c, 9, 57, 0
9, 39480, Note_on_c, 9, 42, 127
9, 39540, Note_on_c, 9, 42, 0
9, 39540, Note_on_c, 9, 42, 127
9, 39600, Note_on_c, 9, 36, 0
9, 39600, Note_on_c, 9, 42, 0
9, 39600, Note_on_c, 9, 57, 127
9, 39600, Note_on_c, 9, 38, 127
9, 39660, Note_on_c, 9, 57, 0
9, 39660, Note_on_c, 9, 38, 0
9, 39660, Note_on_c, 9, 42, 127
9, 39720, Note_on_c, 9, 42, 0
9, 39720, Note_on_c, 9, 42, 127
9, 39780, Note_on_c, 9, 42, 0
9, 39780, Note_on_c, 9, 36, 127
9, 39780, Note_on_c, 9, 57, 127
9, 39840, Note_on_c, 9, 57, 0
9, 39840, Note_on_c, 9, 45, 127
9, 39840, Note_on_c, 9, 42, 127
9, 39900, Note_on_c, 9, 45, 0
9, 39900, Note_on_c, 9, 42, 0
9, 39900, Note_on_c, 9, 42, 127
9, 39960, Note_on_c, 9, 36, 0
9, 39960, Note_on_c, 9, 42, 0
9, 39960, Note_on_c, 9, 36, 127
9, 39960, Note_on_c, 9, 42, 127
9, 40020, Note_on_c, 9, 42, 0
9, 40020, Note_on_c, 9, 45, 127
9, 40020, Note_on_c, 9, 42, 127
9, 40080, Note_on_c, 9, 45, 0
9, 40080, Note_on_c, 9, 42, 0
9, 40080, Note_on_c, 9, 42, 127
9, 40140, Note_on_c, 9, 36, 0
9, 40140, Note_on_c, 9, 42, 0
9, 40140, Note_on_c, 9, 36, 127
9, 40140, Note_on_c, 9, 57, 127
9, 40200, Note_on_c, 9, 57, 0
9, 40200, Note_on_c, 9, 42, 127
9, 40260, Note_on_c, 9, 42, 0
9, 40260, Note_on_c, 9, 42, 127
9, 40320, Note_on_c, 9, 36, 0
9, 40320, Note_on_c, 9, 42, 0
9, 40320, Note_on_c, 9, 38, 127
9, 40320, Note_on_c, 9, 57, 127
9, 40380, Note_on_c, 9, 38, 0
9, 40380, Note_on_c, 9, 57, 0
9, 40380, Note_on_c, 9, 42, 127
9, 40440, Note_on_c, 9, 42, 0
9, 40440, Note_on_c, 9, 42, 127
9, 40500, Note_on_c, 9, 42, 0
9, 40500, Note_on_c, 9, 36, 127
9, 40500, Note_on_c, 9, 57, 127
9, 40560, Note_on_c, 9, 57, 0
9, 40560, Note_on_c, 9, 45, 127
9, 40560, Note_on_c, 9, 42, 127
9, 40620, Note_on_c, 9, 45, 0
9, 40620, Note_on_c, 9, 42, 0
9, 40620, Note_on_c, 9, 42, 127
9, 40680, Note_on_c, 9, 36, 0
9, 40680, Note_on_c, 9, 42, 0
9, 40680, Note_on_c, 9, 36, 127
9, 40680, Note_on_c, 9, 42, 127
9, 40740, Note_on_c, 9, 42, 0
9, 40740, Note_on_c, 9, 45, 127
9, 40740, Note_on_c, 9, 42, 127
9, 40800, Note_on_c, 9, 45, 0
9, 40800, Note_on_c, 9, 42, 0
9, 40800, Note_on_c, 9, 42, 127
9, 40860, Note_on_c, 9, 36, 0
9, 40860, Note_on_c, 9, 42, 0
9, 40860, Note_on_c, 9, 36, 127
9, 40860, Note_on_c, 9, 57, 127
9, 40920, Note_on_c, 9, 57, 0
9, 40920, Note_on_c, 9, 42, 127
9, 40980, Note_on_c, 9, 42, 0
9, 40980, Note_on_c, 9, 42, 127
9, 41040, Note_on_c, 9, 36, 0
9, 41040, Note_on_c, 9, 42, 0
9, 41040, Note_on_c, 9, 38, 127
9, 41040, Note_on_c, 9, 57, 127
9, 41100, Note_on_c, 9, 38, 0
9, 41100, Note_on_c, 9, 57, 0
9, 41100, Note_on_c, 9, 42, 127
9, 41160, Note_on_c, 9, 42, 0
9, 41160, Note_on_c, 9, 42, 127
9, 41220, Note_on_c, 9, 42, 0
9, 41220, Note_on_c, 9, 36, 127
9, 41220, Note_on_c, 9, 57, 127
9, 41280, Note_on_c, 9, 57, 0
9, 41280, Note_on_c, 9, 42, 127
9, 41340, Note_on_c, 9, 42, 0
9, 41340, Note_on_c, 9, 42, 127
9, 41400, Note_on_c, 9, 36, 0
9, 41400, Note_on_c, 9, 42, 0
9, 41400, Note_on_c, 9, 36, 127
9, 41400, Note_on_c, 9, 57, 127
9, 41460, Note_on_c, 9, 57, 0
9, 41460, Note_on_c, 9, 42, 127
9, 41520, Note_on_c, 9, 42, 0
9, 41520, Note_on_c, 9, 42, 127
9, 41580, Note_on_c, 9, 36, 0
9, 41580, Note_on_c, 9, 42, 0
9, 41580, Note_on_c, 9, 38, 127
9, 41580, Note_on_c, 9, 42, 127
9, 41640, Note_on_c, 9, 38, 0
9, 41640, Note_on_c, 9, 42, 0
9, 41640, Note_on_c, 9, 42, 127
9, 41640, Note_on_c, 9, 38, 127
9, 41700, Note_on_c, 9, 42, 0
9, 41700, Note_on_c, 9, 38, 0
9, 41700, Note_on_c, 9, 38, 127
9, 41700, Note_on_c, 9, 42, 127
9, 41760, Note_on_c, 9, 38, 0
9, 41760, Note_on_c, 9, 42, 0
9, 41760, Note_on_c, 9, 50, 127
9, 41760, Note_on_c, 9, 38, 127
9, 41790, Note_on_c, 9, 50, 0
9, 41790, Note_on_c, 9, 38, 0
9, 41790, Note_on_c, 9, 50, 127
9, 41790, Note_on_c, 9, 38, 127
9, 41820, Note_on_c, 9, 50, 0
9, 41820, Note_on_c, 9, 38, 0
9, 41820, Note_on_c, 9, 50, 127
9, 41820, Note_on_c, 9, 38, 127
9, 41850, Note_on_c, 9, 50, 0
9, 41850, Note_on_c, 9, 38, 0
9, 41850, Note_on_c, 9, 50, 127
9, 41850, Note_on_c, 9, 38, 127
9, 41880, Note_on_c, 9, 50, 0
9, 41880, Note_on_c, 9, 38, 0
9, 41880, Note_on_c, 9, 50, 127
9, 41880, Note_on_c, 9, 38, 127
9, 41910, Note_on_c, 9, 50, 0
9, 41910, Note_on_c, 9, 38, 0
9, 41910, Note_on_c, 9, 50, 127
9, 41910, Note_on_c, 9, 38, 127
9, 41940, Note_on_c, 9, 50, 0
9, 41940, Note_on_c, 9, 38, 0
9, 41940, Note_on_c, 9, 43, 127
9, 41940, Note_on_c, 9, 38, 127
9, 41970, Note_on_c, 9, 43, 0
9, 41970, Note_on_c, 9, 38, 0
9, 41970, Note_on_c, 9, 43, 127
9, 41970, Note_on_c, 9, 38, 127
9, 42000, Note_on_c, 9, 43, 0
9, 42000, Note_on_c, 9, 38, 0
9, 42000, Note_on_c, 9, 43, 127
9, 42000, Note_on_c, 9, 38, 127
9, 42030, Note_on_c, 9, 43, 0
9, 42030, Note_on_c, 9, 38, 0
9, 42030, Note_on_c, 9, 43, 127
9, 42030, Note_on_c, 9, 38, 127
9, 42060, Note_on_c, 9, 43, 0
9, 42060, Note_on_c, 9, 38, 0
9, 42060, Note_on_c, 9, 43, 127
9, 42060, Note_on_c, 9, 38, 127
9, 42090, Note_on_c, 9, 43, 0
9, 42090, Note_on_c, 9, 38, 0
9, 42090, Note_on_c, 9, 43, 127
9, 42090, Note_on_c, 9, 38, 127
9, 42120, Note_on_c, 9, 43, 0
9, 42120, Note_on_c, 9, 38, 0
9, 42120, Note_on_c, 9, 36, 127
9, 42120, Note_on_c, 9, 57, 127
9, 42180, Note_on_c, 9, 57, 0
9, 42180, Note_on_c, 9, 42, 127
9, 42240, Note_on_c, 9, 42, 0
9, 42240, Note_on_c, 9, 42, 127
9, 42300, Note_on_c, 9, 36, 0
9, 42300, Note_on_c, 9, 42, 0
9, 42300, Note_on_c, 9, 38, 127
9, 42300, Note_on_c, 9, 42, 127
9, 42360, Note_on_c, 9, 38, 0
9, 42360, Note_on_c, 9, 42, 0
9, 42360, Note_on_c, 9, 42, 127
9, 42420, Note_on_c, 9, 42, 0
9, 42420, Note_on_c, 9, 42, 127
9, 42480, Note_on_c, 9, 42, 0
9, 42480, Note_on_c, 9, 36, 127
9, 42480, Note_on_c, 9, 42, 127
9, 42540, Note_on_c, 9, 42, 0
9, 42540, Note_on_c, 9, 42, 127
9, 42600, Note_on_c, 9, 36, 0
9, 42600, Note_on_c, 9, 42, 0
9, 42600, Note_on_c, 9, 42, 127
9, 42660, Note_on_c, 9, 42, 0
9, 42660, Note_on_c, 9, 38, 127
9, 42660, Note_on_c, 9, 42, 127
9, 42720, Note_on_c, 9, 38, 0
9, 42720, Note_on_c, 9, 42, 0
9, 42720, Note_on_c, 9, 42, 127
9, 42750, Note_on_c, 9, 42, 0
9, 42750, Note_on_c, 9, 38, 127
9, 42780, Note_on_c, 9, 38, 0
9, 42780, Note_on_c, 9, 38, 127
9, 42810, Note_on_c, 9, 38, 0
9, 42810, Note_on_c, 9, 38, 127
9, 42840, Note_on_c, 9, 38, 0
9, 42840, Note_on_c, 9, 36, 127
9, 42840, Note_on_c, 9, 57, 127
9, 42900, Note_on_c, 9, 57, 0
9, 42900, Note_on_c, 9, 42, 127
9, 42960, Note_on_c, 9, 42, 0
9, 42960, Note_on_c, 9, 42, 127
9, 43020, Note_on_c, 9, 36, 0
9, 43020, Note_on_c, 9, 42, 0
9, 43020, Note_on_c, 9, 38, 127
9, 43020, Note_on_c, 9, 57, 127
9, 43080, Note_on_c, 9, 38, 0
9, 43080, Note_on_c, 9, 57, 0
9, 43080, Note_on_c, 9, 42, 127
9, 43110, Note_on_c, 9, 36, 127
9, 43140, Note_on_c, 9, 42, 0
9, 43140, Note_on_c, 9, 36, 0
9, 43140, Note_on_c, 9, 38, 127
9, 43140, Note_on_c, 9, 42, 127
9, 43200, Note_on_c, 9, 38, 0
9, 43200, Note_on_c, 9, 42, 0
9, 43200, Note_on_c, 9, 38, 127
9, 43200, Note_on_c, 9, 42, 127
9, 43260, Note_on_c, 9, 38, 0
9, 43260, Note_on_c, 9, 42, 0
9, 43260, Note_on_c, 9, 42, 127
9, 43290, Note_on_c, 9, 36, 127
9, 43320, Note_on_c, 9, 42, 0
9, 43320, Note_on_c, 9, 36, 0
9, 43320, Note_on_c, 9, 38, 127
9, 43320, Note_on_c, 9, 42, 127
9, 43380, Note_on_c, 9, 38, 0
9, 43380, Note_on_c, 9, 42, 0
9, 43380, Note_on_c, 9, 38, 127
9, 43380, Note_on_c, 9, 42, 127
9, 43440, Note_on_c, 9, 38, 0
9, 43440, Note_on_c, 9, 42, 0
9, 43440, Note_on_c, 9, 42, 127
9, 43470, Note_on_c, 9, 42, 0
9, 43470, Note_on_c, 9, 38, 127
9, 43500, Note_on_c, 9, 38, 0
9, 43500, Note_on_c, 9, 47, 127
9, 43530, Note_on_c, 9, 47, 0
9, 43530, Note_on_c, 9, 47, 127
9, 43560, Note_on_c, 9, 47, 0
9, 43560, Note_on_c, 9, 36, 127
9, 43560, Note_on_c, 9, 57, 127
9, 43620, Note_on_c, 9, 57, 0
9, 43620, Note_on_c, 9, 42, 127
9, 43680, Note_on_c, 9, 42, 0
9, 43680, Note_on_c, 9, 42, 127
9, 43740, Note_on_c, 9, 36, 0
9, 43740, Note_on_c, 9, 42, 0
9, 43740, Note_on_c, 9, 38, 127
9, 43740, Note_on_c, 9, 57, 127
9, 43800, Note_on_c, 9, 38, 0
9, 43800, Note_on_c, 9, 57, 0
9, 43800, Note_on_c, 9, 42, 127
9, 43830, Note_on_c, 9, 42, 0
9, 43830, Note_on_c, 9, 38, 127
9, 43860, Note_on_c, 9, 38, 0
9, 43860, Note_on_c, 9, 47, 127
9, 43920, Note_on_c, 9, 47, 0
9, 43920, Note_on_c, 9, 47, 127
9, 43920, Note_on_c, 9, 38, 127
9, 43980, Note_on_c, 9, 47, 0
9, 43980, Note_on_c, 9, 38, 0
9, 43980, Note_on_c, 9, 47, 127
9, 44010, Note_on_c, 9, 47, 0
9, 44010, Note_on_c, 9, 38, 127
9, 44040, Note_on_c, 9, 38, 0
9, 44040, Note_on_c, 9, 47, 127
9, 44100, Note_on_c, 9, 47, 0
9, 44100, Note_on_c, 9, 48, 127
9, 44100, Note_on_c, 9, 38, 127
9, 44160, Note_on_c, 9, 48, 0
9, 44160, Note_on_c, 9, 38, 0
9, 44160, Note_on_c, 9, 48, 127
9, 44190, Note_on_c, 9, 48, 0
9, 44190, Note_on_c, 9, 38, 127
9, 44220, Note_on_c, 9, 38, 0
9, 44220, Note_on_c, 9, 48, 127
9, 44280, Note_on_c, 9, 48, 0
9, 44280, Note_on_c, 9, 38, 127
9, 44280, Note_on_c, 9, 57, 127
9, 44340, Note_on_c, 9, 38, 0
9, 44340, Note_on_c, 9, 57, 0
9, 44340, Note_on_c, 9, 42, 127
9, 44400, Note_on_c, 9, 42, 0
9, 44400, Note_on_c, 9, 42, 127
9, 44460, Note_on_c, 9, 42, 0
9, 44460, Note_on_c, 9, 38, 127
9, 44460, Note_on_c, 9, 57, 127
9, 44520, Note_on_c, 9, 38, 0
9, 44520, Note_on_c, 9, 57, 0
9, 44520, Note_on_c, 9, 42, 127
9, 44580, Note_on_c, 9, 42, 0
9, 44580, Note_on_c, 9, 36, 127
9, 44580, Note_on_c, 9, 57, 127
9, 44640, Note_on_c, 9, 36, 0
9, 44640, Note_on_c, 9, 57, 0
9, 44640, Note_on_c, 9, 36, 127
9, 44640, Note_on_c, 9, 57, 127
9, 44820, Note_on_c, 9, 36, 0
9, 45000, Note_on_c, 9, 57, 0
9, 45000, End_track
10, 0, Start_track
10, 0, MIDI_port, 0
10, 0, Title_t, "Bass"
10, 0, Control_c, 7, 7, 99
10, 0, Program_c, 7, 34
10, 8460, Note_on_c, 7, 28, 127
10, 8640, Note_on_c, 7, 28, 0
10, 8640, Note_on_c, 7, 40, 127
10, 8820, Note_on_c, 7, 40, 0
10, 8820, Note_on_c, 7, 38, 127
10, 9000, Note_on_c, 7, 38, 0
10, 9000, Note_on_c, 7, 36, 127
10, 9120, Note_on_c, 7, 36, 0
10, 9120, Note_on_c, 7, 31, 127
10, 9150, Note_on_c, 7, 31, 0
10, 9150, Note_on_c, 7, 30, 127
10, 9180, Note_on_c, 7, 30, 0
10, 9180, Note_on_c, 7, 28, 127
10, 9360, Note_on_c, 7, 28, 0
10, 9360, Note_on_c, 7, 40, 127
10, 9540, Note_on_c, 7, 40, 0
10, 9540, Note_on_c, 7, 38, 127
10, 9720, Note_on_c, 7, 38, 0
10, 9720, Note_on_c, 7, 36, 127
10, 9840, Note_on_c, 7, 36, 0
10, 9840, Note_on_c, 7, 31, 127
10, 9870, Note_on_c, 7, 31, 0
10, 9870, Note_on_c, 7, 30, 127
10, 9900, Note_on_c, 7, 30, 0
10, 9900, Note_on_c, 7, 28, 127
10, 10080, Note_on_c, 7, 28, 0
10, 10080, Note_on_c, 7, 40, 127
10, 10260, Note_on_c, 7, 40, 0
10, 10260, Note_on_c, 7, 38, 127
10, 10440, Note_on_c, 7, 38, 0
10, 10440, Note_on_c, 7, 36, 127
10, 10560, Note_on_c, 7, 36, 0
10, 10560, Note_on_c, 7, 31, 127
10, 10590, Note_on_c, 7, 31, 0
10, 10590, Note_on_c, 7, 30, 127
10, 10620, Note_on_c, 7, 30, 0
10, 10620, Note_on_c, 7, 31, 127
10, 10800, Note_on_c, 7, 31, 0
10, 10800, Note_on_c, 7, 35, 127
10, 10980, Note_on_c, 7, 35, 0
10, 10980, Note_on_c, 7, 28, 127
10, 11160, Note_on_c, 7, 28, 0
10, 11160, Note_on_c, 7, 40, 127
10, 11340, Note_on_c, 7, 40, 0
10, 11340, Note_on_c, 7, 28, 127
10, 11370, Note_on_c, 7, 28, 0
10, 11370, Note_on_c, 7, 28, 127
10, 11430, Note_on_c, 7, 28, 0
10, 11430, Note_on_c, 7, 28, 127
10, 11460, Note_on_c, 7, 28, 0
10, 11460, Note_on_c, 7, 28, 127
10, 11520, Note_on_c, 7, 28, 0
10, 11520, Note_on_c, 7, 40, 127
10, 11640, Note_on_c, 7, 40, 0
10, 11640, Note_on_c, 7, 31, 127
10, 11670, Note_on_c, 7, 31, 0
10, 11670, Note_on_c, 7, 30, 127
10, 11700, Note_on_c, 7, 30, 0
10, 11700, Note_on_c, 7, 28, 127
10, 11880, Note_on_c, 7, 28, 0
10, 11880, Note_on_c, 7, 40, 127
10, 12060, Note_on_c, 7, 40, 0
10, 12060, Note_on_c, 7, 38, 127
10, 12240, Note_on_c, 7, 38, 0
10, 12240, Note_on_c, 7, 36, 127
10, 12360, Note_on_c, 7, 36, 0
10, 12360, Note_on_c, 7, 31, 127
10, 12390, Note_on_c, 7, 31, 0
10, 12390, Note_on_c, 7, 30, 127
10, 12420, Note_on_c, 7, 30, 0
10, 12420, Note_on_c, 7, 28, 127
10, 12600, Note_on_c, 7, 28, 0
10, 12600, Note_on_c, 7, 40, 127
10, 12780, Note_on_c, 7, 40, 0
10, 12780, Note_on_c, 7, 38, 127
10, 12960, Note_on_c, 7, 38, 0
10, 12960, Note_on_c, 7, 36, 127
10, 13080, Note_on_c, 7, 36, 0
10, 13080, Note_on_c, 7, 31, 127
10, 13110, Note_on_c, 7, 31, 0
10, 13110, Note_on_c, 7, 30, 127
10, 13140, Note_on_c, 7, 30, 0
10, 13140, Note_on_c, 7, 28, 127
10, 13320, Note_on_c, 7, 28, 0
10, 13320, Note_on_c, 7, 40, 127
10, 13500, Note_on_c, 7, 40, 0
10, 13500, Note_on_c, 7, 38, 127
10, 13680, Note_on_c, 7, 38, 0
10, 13680, Note_on_c, 7, 36, 127
10, 13800, Note_on_c, 7, 36, 0
10, 13800, Note_on_c, 7, 31, 127
10, 13830, Note_on_c, 7, 31, 0
10, 13830, Note_on_c, 7, 30, 127
10, 13860, Note_on_c, 7, 30, 0
10, 13860, Note_on_c, 7, 31, 127
10, 14040, Note_on_c, 7, 31, 0
10, 14040, Note_on_c, 7, 35, 127
10, 14220, Note_on_c, 7, 35, 0
10, 14220, Note_on_c, 7, 28, 127
10, 14400, Note_on_c, 7, 28, 0
10, 14400, Note_on_c, 7, 40, 127
10, 14580, Note_on_c, 7, 40, 0
10, 14580, Note_on_c, 7, 28, 127
10, 14610, Note_on_c, 7, 28, 0
10, 14610, Note_on_c, 7, 28, 127
10, 14670, Note_on_c, 7, 28, 0
10, 14670, Note_on_c, 7, 28, 127
10, 14700, Note_on_c, 7, 28, 0
10, 14700, Note_on_c, 7, 28, 127
10, 14760, Note_on_c, 7, 28, 0
10, 14760, Note_on_c, 7, 40, 127
10, 14880, Note_on_c, 7, 40, 0
10, 14880, Note_on_c, 7, 31, 127
10, 14910, Note_on_c, 7, 31, 0
10, 14910, Note_on_c, 7, 30, 127
10, 14940, Note_on_c, 7, 30, 0
10, 14940, Note_on_c, 7, 28, 127
10, 15120, Note_on_c, 7, 28, 0
10, 15120, Note_on_c, 7, 40, 127
10, 15300, Note_on_c, 7, 40, 0
10, 15300, Note_on_c, 7, 38, 127
10, 15480, Note_on_c, 7, 38, 0
10, 15480, Note_on_c, 7, 36, 127
10, 15600, Note_on_c, 7, 36, 0
10, 15600, Note_on_c, 7, 31, 127
10, 15630, Note_on_c, 7, 31, 0
10, 15630, Note_on_c, 7, 30, 127
10, 15660, Note_on_c, 7, 30, 0
10, 15660, Note_on_c, 7, 28, 127
10, 15840, Note_on_c, 7, 28, 0
10, 15840, Note_on_c, 7, 40, 127
10, 16020, Note_on_c, 7, 40, 0
10, 16020, Note_on_c, 7, 38, 127
10, 16200, Note_on_c, 7, 38, 0
10, 16200, Note_on_c, 7, 36, 127
10, 16320, Note_on_c, 7, 36, 0
10, 16320, Note_on_c, 7, 31, 127
10, 16350, Note_on_c, 7, 31, 0
10, 16350, Note_on_c, 7, 30, 127
10, 16380, Note_on_c, 7, 30, 0
10, 16380, Note_on_c, 7, 28, 127
10, 16560, Note_on_c, 7, 28, 0
10, 16560, Note_on_c, 7, 40, 127
10, 16740, Note_on_c, 7, 40, 0
10, 16740, Note_on_c, 7, 38, 127
10, 16920, Note_on_c, 7, 38, 0
10, 16920, Note_on_c, 7, 36, 127
10, 17040, Note_on_c, 7, 36, 0
10, 17040, Note_on_c, 7, 31, 127
10, 17070, Note_on_c, 7, 31, 0
10, 17070, Note_on_c, 7, 30, 127
10, 17100, Note_on_c, 7, 30, 0
10, 17100, Note_on_c, 7, 31, 127
10, 17280, Note_on_c, 7, 31, 0
10, 17280, Note_on_c, 7, 35, 127
10, 17460, Note_on_c, 7, 35, 0
10, 17460, Note_on_c, 7, 28, 127
10, 17640, Note_on_c, 7, 28, 0
10, 17640, Note_on_c, 7, 40, 127
10, 17820, Note_on_c, 7, 40, 0
10, 17820, Note_on_c, 7, 36, 127
10, 18000, Note_on_c, 7, 36, 0
10, 18000, Note_on_c, 7, 33, 127
10, 18180, Note_on_c, 7, 33, 0
10, 18180, Note_on_c, 7, 38, 127
10, 18240, Note_on_c, 7, 38, 0
10, 18240, Note_on_c, 7, 38, 127
10, 18300, Note_on_c, 7, 38, 0
10, 18300, Note_on_c, 7, 38, 127
10, 18360, Note_on_c, 7, 38, 0
10, 18360, Note_on_c, 7, 38, 127
10, 18420, Note_on_c, 7, 38, 0
10, 18420, Note_on_c, 7, 38, 127
10, 18480, Note_on_c, 7, 38, 0
10, 18480, Note_on_c, 7, 38, 127
10, 18540, Note_on_c, 7, 38, 0
10, 18540, Note_on_c, 7, 36, 127
10, 18720, Note_on_c, 7, 36, 0
10, 18720, Note_on_c, 7, 33, 127
10, 18900, Note_on_c, 7, 33, 0
10, 18900, Note_on_c, 7, 38, 127
10, 18960, Note_on_c, 7, 38, 0
10, 18960, Note_on_c, 7, 38, 127
10, 19020, Note_on_c, 7, 38, 0
10, 19020, Note_on_c, 7, 38, 127
10, 19080, Note_on_c, 7, 38, 0
10, 19080, Note_on_c, 7, 38, 127
10, 19140, Note_on_c, 7, 38, 0
10, 19140, Note_on_c, 7, 38, 127
10, 19200, Note_on_c, 7, 38, 0
10, 19200, Note_on_c, 7, 38, 127
10, 19260, Note_on_c, 7, 38, 0
10, 19260, Note_on_c, 7, 36, 127
10, 19440, Note_on_c, 7, 36, 0
10, 19440, Note_on_c, 7, 33, 127
10, 19620, Note_on_c, 7, 33, 0
10, 19620, Note_on_c, 7, 38, 127
10, 19680, Note_on_c, 7, 38, 0
10, 19680, Note_on_c, 7, 38, 127
10, 19740, Note_on_c, 7, 38, 0
10, 19740, Note_on_c, 7, 38, 127
10, 19800, Note_on_c, 7, 38, 0
10, 19800, Note_on_c, 7, 28, 127
10, 20160, Note_on_c, 7, 28, 0
10, 20160, Note_on_c, 7, 40, 127
10, 20340, Note_on_c, 7, 40, 0
10, 20340, Note_on_c, 7, 28, 127
10, 20460, Note_on_c, 7, 28, 0
10, 20460, Note_on_c, 7, 31, 127
10, 20490, Note_on_c, 7, 31, 0
10, 20490, Note_on_c, 7, 30, 127
10, 20520, Note_on_c, 7, 30, 0
10, 20520, Note_on_c, 7, 28, 127
10, 20700, Note_on_c, 7, 28, 0
10, 20700, Note_on_c, 7, 40, 127
10, 20880, Note_on_c, 7, 40, 0
10, 20880, Note_on_c, 7, 38, 127
10, 21060, Note_on_c, 7, 38, 0
10, 21060, Note_on_c, 7, 36, 127
10, 21180, Note_on_c, 7, 36, 0
10, 21180, Note_on_c, 7, 31, 127
10, 21210, Note_on_c, 7, 31, 0
10, 21210, Note_on_c, 7, 30, 127
10, 21240, Note_on_c, 7, 30, 0
10, 21240, Note_on_c, 7, 28, 127
10, 21420, Note_on_c, 7, 28, 0
10, 21420, Note_on_c, 7, 40, 127
10, 21600, Note_on_c, 7, 40, 0
10, 21600, Note_on_c, 7, 38, 127
10, 21780, Note_on_c, 7, 38, 0
10, 21780, Note_on_c, 7, 43, 127
10, 21900, Note_on_c, 7, 43, 0
10, 21900, Note_on_c, 7, 31, 127
10, 21930, Note_on_c, 7, 31, 0
10, 21930, Note_on_c, 7, 30, 127
10, 21960, Note_on_c, 7, 30, 0
10, 21960, Note_on_c, 7, 28, 127
10, 22140, Note_on_c, 7, 28, 0
10, 22140, Note_on_c, 7, 40, 127
10, 22320, Note_on_c, 7, 40, 0
10, 22320, Note_on_c, 7, 38, 127
10, 22500, Note_on_c, 7, 38, 0
10, 22500, Note_on_c, 7, 36, 127
10, 22620, Note_on_c, 7, 36, 0
10, 22620, Note_on_c, 7, 31, 127
10, 22650, Note_on_c, 7, 31, 0
10, 22650, Note_on_c, 7, 30, 127
10, 22680, Note_on_c, 7, 30, 0
10, 22680, Note_on_c, 7, 31, 127
10, 22860, Note_on_c, 7, 31, 0
10, 22860, Note_on_c, 7, 35, 127
10, 23040, Note_on_c, 7, 35, 0
10, 23040, Note_on_c, 7, 28, 127
10, 23220, Note_on_c, 7, 28, 0
10, 23220, Note_on_c, 7, 40, 127
10, 23400, Note_on_c, 7, 40, 0
10, 23400, Note_on_c, 7, 36, 127
10, 23580, Note_on_c, 7, 36, 0
10, 23580, Note_on_c, 7, 33, 127
10, 23760, Note_on_c, 7, 33, 0
10, 23760, Note_on_c, 7, 38, 127
10, 23820, Note_on_c, 7, 38, 0
10, 23820, Note_on_c, 7, 38, 127
10, 23880, Note_on_c, 7, 38, 0
10, 23880, Note_on_c, 7, 38, 127
10, 23940, Note_on_c, 7, 38, 0
10, 23940, Note_on_c, 7, 38, 127
10, 24000, Note_on_c, 7, 38, 0
10, 24000, Note_on_c, 7, 38, 127
10, 24060, Note_on_c, 7, 38, 0
10, 24060, Note_on_c, 7, 38, 127
10, 24120, Note_on_c, 7, 38, 0
10, 24120, Note_on_c, 7, 36, 127
10, 24300, Note_on_c, 7, 36, 0
10, 24300, Note_on_c, 7, 33, 127
10, 24480, Note_on_c, 7, 33, 0
10, 24480, Note_on_c, 7, 38, 127
10, 24540, Note_on_c, 7, 38, 0
10, 24540, Note_on_c, 7, 38, 127
10, 24600, Note_on_c, 7, 38, 0
10, 24600, Note_on_c, 7, 38, 127
10, 24660, Note_on_c, 7, 38, 0
10, 24660, Note_on_c, 7, 38, 127
10, 24720, Note_on_c, 7, 38, 0
10, 24720, Note_on_c, 7, 38, 127
10, 24780, Note_on_c, 7, 38, 0
10, 24780, Note_on_c, 7, 38, 127
10, 24840, Note_on_c, 7, 38, 0
10, 24840, Note_on_c, 7, 36, 127
10, 25020, Note_on_c, 7, 36, 0
10, 25020, Note_on_c, 7, 33, 127
10, 25200, Note_on_c, 7, 33, 0
10, 25200, Note_on_c, 7, 38, 127
10, 25260, Note_on_c, 7, 38, 0
10, 25260, Note_on_c, 7, 38, 127
10, 25320, Note_on_c, 7, 38, 0
10, 25320, Note_on_c, 7, 38, 127
10, 25380, Note_on_c, 7, 38, 0
10, 25380, Note_on_c, 7, 28, 127
10, 25740, Note_on_c, 7, 28, 0
10, 25740, Note_on_c, 7, 40, 127
10, 25920, Note_on_c, 7, 40, 0
10, 25920, Note_on_c, 7, 28, 127
10, 26040, Note_on_c, 7, 28, 0
10, 26040, Note_on_c, 7, 31, 127
10, 26070, Note_on_c, 7, 31, 0
10, 26070, Note_on_c, 7, 30, 127
10, 26100, Note_on_c, 7, 30, 0
10, 26100, Note_on_c, 7, 28, 127
10, 26160, Note_on_c, 7, 28, 0
10, 26160, Note_on_c, 7, 40, 127
10, 26220, Note_on_c, 7, 40, 0
10, 26220, Note_on_c, 7, 40, 127
10, 26250, Note_on_c, 7, 40, 0
10, 26250, Note_on_c, 7, 40, 127
10, 26280, Note_on_c, 7, 40, 0
10, 26280, Note_on_c, 7, 28, 127
10, 26340, Note_on_c, 7, 28, 0
10, 26340, Note_on_c, 7, 40, 127
10, 26400, Note_on_c, 7, 40, 0
10, 26400, Note_on_c, 7, 40, 127
10, 26430, Note_on_c, 7, 40, 0
10, 26430, Note_on_c, 7, 40, 127
10, 26460, Note_on_c, 7, 40, 0
10, 26460, Note_on_c, 7, 28, 127
10, 26520, Note_on_c, 7, 28, 0
10, 26520, Note_on_c, 7, 40, 127
10, 26580, Note_on_c, 7, 40, 0
10, 26580, Note_on_c, 7, 40, 127
10, 26610, Note_on_c, 7, 40, 0
10, 26610, Note_on_c, 7, 40, 127
10, 26640, Note_on_c, 7, 40, 0
10, 26640, Note_on_c, 7, 28, 127
10, 26700, Note_on_c, 7, 28, 0
10, 26700, Note_on_c, 7, 40, 127
10, 26760, Note_on_c, 7, 40, 0
10, 26760, Note_on_c, 7, 35, 127
10, 26820, Note_on_c, 7, 35, 0
10, 26820, Note_on_c, 7, 33, 127
10, 27150, Note_on_c, 7, 33, 0
10, 27150, Note_on_c, 7, 33, 127
10, 27180, Note_on_c, 7, 33, 0
10, 27180, Note_on_c, 7, 33, 127
10, 27480, Note_on_c, 7, 33, 0
10, 27480, Note_on_c, 7, 33, 127
10, 27540, Note_on_c, 7, 33, 0
10, 27540, Note_on_c, 7, 36, 127
10, 27720, Note_on_c, 7, 36, 0
10, 27720, Note_on_c, 7, 36, 127
10, 27780, Note_on_c, 7, 36, 0
10, 27780, Note_on_c, 7, 36, 127
10, 27840, Note_on_c, 7, 36, 0
10, 27840, Note_on_c, 7, 35, 127
10, 27870, Note_on_c, 7, 35, 0
10, 27870, Note_on_c, 7, 36, 127
10, 27900, Note_on_c, 7, 36, 0
10, 27900, Note_on_c, 7, 38, 127
10, 28080, Note_on_c, 7, 38, 0
10, 28080, Note_on_c, 7, 38, 127
10, 28140, Note_on_c, 7, 38, 0
10, 28140, Note_on_c, 7, 38, 127
10, 28200, Note_on_c, 7, 38, 0
10, 28200, Note_on_c, 7, 38, 127
10, 28230, Note_on_c, 7, 38, 0
10, 28230, Note_on_c, 7, 40, 127
10, 28260, Note_on_c, 7, 40, 0
10, 28260, Note_on_c, 7, 28, 127
10, 28440, Note_on_c, 7, 28, 0
10, 28440, Note_on_c, 7, 40, 127
10, 28470, Note_on_c, 7, 40, 0
10, 28470, Note_on_c, 7, 28, 127
10, 28530, Note_on_c, 7, 28, 0
10, 28530, Note_on_c, 7, 28, 127
10, 28560, Note_on_c, 7, 28, 0
10, 28560, Note_on_c, 7, 40, 127
10, 28620, Note_on_c, 7, 40, 0
10, 28620, Note_on_c, 7, 28, 127
10, 28890, Note_on_c, 7, 28, 0
10, 28890, Note_on_c, 7, 28, 127
10, 28920, Note_on_c, 7, 28, 0
10, 28920, Note_on_c, 7, 31, 127
10, 28950, Note_on_c, 7, 31, 0
10, 28950, Note_on_c, 7, 30, 127
10, 28980, Note_on_c, 7, 30, 0
10, 28980, Note_on_c, 7, 28, 127
10, 29040, Note_on_c, 7, 28, 0
10, 29040, Note_on_c, 7, 40, 127
10, 29100, Note_on_c, 7, 40, 0
10, 29100, Note_on_c, 7, 40, 127
10, 29130, Note_on_c, 7, 40, 0
10, 29130, Note_on_c, 7, 40, 127
10, 29160, Note_on_c, 7, 40, 0
10, 29160, Note_on_c, 7, 28, 127
10, 29220, Note_on_c, 7, 28, 0
10, 29220, Note_on_c, 7, 40, 127
10, 29280, Note_on_c, 7, 40, 0
10, 29280, Note_on_c, 7, 40, 127
10, 29310, Note_on_c, 7, 40, 0
10, 29310, Note_on_c, 7, 40, 127
10, 29340, Note_on_c, 7, 40, 0
10, 29340, Note_on_c, 7, 28, 127
10, 29400, Note_on_c, 7, 28, 0
10, 29400, Note_on_c, 7, 40, 127
10, 29460, Note_on_c, 7, 40, 0
10, 29460, Note_on_c, 7, 40, 127
10, 29490, Note_on_c, 7, 40, 0
10, 29490, Note_on_c, 7, 40, 127
10, 29520, Note_on_c, 7, 40, 0
10, 29520, Note_on_c, 7, 28, 127
10, 29580, Note_on_c, 7, 28, 0
10, 29580, Note_on_c, 7, 40, 127
10, 29640, Note_on_c, 7, 40, 0
10, 29640, Note_on_c, 7, 35, 127
10, 29700, Note_on_c, 7, 35, 0
10, 29700, Note_on_c, 7, 33, 127
10, 29880, Note_on_c, 7, 33, 0
10, 29880, Note_on_c, 7, 45, 127
10, 30000, Note_on_c, 7, 45, 0
10, 30000, Note_on_c, 7, 40, 127
10, 30060, Note_on_c, 7, 40, 0
10, 30060, Note_on_c, 7, 33, 127
10, 30360, Note_on_c, 7, 33, 0
10, 30360, Note_on_c, 7, 33, 127
10, 30390, Note_on_c, 7, 33, 0
10, 30390, Note_on_c, 7, 35, 127
10, 30420, Note_on_c, 7, 35, 0
10, 30420, Note_on_c, 7, 36, 127
10, 30600, Note_on_c, 7, 36, 0
10, 30600, Note_on_c, 7, 36, 127
10, 30660, Note_on_c, 7, 36, 0
10, 30660, Note_on_c, 7, 36, 127
10, 30720, Note_on_c, 7, 36, 0
10, 30720, Note_on_c, 7, 35, 127
10, 30750, Note_on_c, 7, 35, 0
10, 30750, Note_on_c, 7, 36, 127
10, 30780, Note_on_c, 7, 36, 0
10, 30780, Note_on_c, 7, 38, 127
10, 30960, Note_on_c, 7, 38, 0
10, 30960, Note_on_c, 7, 45, 127
10, 31020, Note_on_c, 7, 45, 0
10, 31020, Note_on_c, 7, 38, 127
10, 31080, Note_on_c, 7, 38, 0
10, 31080, Note_on_c, 7, 43, 127
10, 31140, Note_on_c, 7, 43, 0
10, 31140, Note_on_c, 7, 40, 127
10, 31320, Note_on_c, 7, 40, 0
10, 31320, Note_on_c, 7, 28, 127
10, 31440, Note_on_c, 7, 28, 0
10, 31440, Note_on_c, 7, 40, 127
10, 31500, Note_on_c, 7, 40, 0
10, 31500, Note_on_c, 7, 40, 127
10, 31680, Note_on_c, 7, 40, 0
10, 31680, Note_on_c, 7, 28, 127
10, 31800, Note_on_c, 7, 28, 0
10, 31800, Note_on_c, 7, 31, 127
10, 31830, Note_on_c, 7, 31, 0
10, 31830, Note_on_c, 7, 30, 127
10, 31860, Note_on_c, 7, 30, 0
10, 31860, Note_on_c, 7, 28, 127
10, 32040, Note_on_c, 7, 28, 0
10, 32040, Note_on_c, 7, 40, 127
10, 32220, Note_on_c, 7, 40, 0
10, 32220, Note_on_c, 7, 38, 127
10, 32400, Note_on_c, 7, 38, 0
10, 32400, Note_on_c, 7, 36, 127
10, 32520, Note_on_c, 7, 36, 0
10, 32520, Note_on_c, 7, 31, 127
10, 32550, Note_on_c, 7, 31, 0
10, 32550, Note_on_c, 7, 30, 127
10, 32580, Note_on_c, 7, 30, 0
10, 32580, Note_on_c, 7, 28, 127
10, 32760, Note_on_c, 7, 28, 0
10, 32760, Note_on_c, 7, 40, 127
10, 32940, Note_on_c, 7, 40, 0
10, 32940, Note_on_c, 7, 38, 127
10, 33120, Note_on_c, 7, 38, 0
10, 33120, Note_on_c, 7, 36, 127
10, 33240, Note_on_c, 7, 36, 0
10, 33240, Note_on_c, 7, 31, 127
10, 33270, Note_on_c, 7, 31, 0
10, 33270, Note_on_c, 7, 30, 127
10, 33300, Note_on_c, 7, 30, 0
10, 33300, Note_on_c, 7, 28, 127
10, 33480, Note_on_c, 7, 28, 0
10, 33480, Note_on_c, 7, 40, 127
10, 33660, Note_on_c, 7, 40, 0
10, 33660, Note_on_c, 7, 38, 127
10, 33840, Note_on_c, 7, 38, 0
10, 33840, Note_on_c, 7, 36, 127
10, 33960, Note_on_c, 7, 36, 0
10, 33960, Note_on_c, 7, 31, 127
10, 33990, Note_on_c, 7, 31, 0
10, 33990, Note_on_c, 7, 30, 127
10, 34020, Note_on_c, 7, 30, 0
10, 34020, Note_on_c, 7, 31, 127
10, 34200, Note_on_c, 7, 31, 0
10, 34200, Note_on_c, 7, 35, 127
10, 34380, Note_on_c, 7, 35, 0
10, 34380, Note_on_c, 7, 28, 127
10, 34560, Note_on_c, 7, 28, 0
10, 34560, Note_on_c, 7, 40, 127
10, 34740, Note_on_c, 7, 40, 0
10, 34740, Note_on_c, 7, 28, 127
10, 34770, Note_on_c, 7, 28, 0
10, 34770, Note_on_c, 7, 28, 127
10, 34830, Note_on_c, 7, 28, 0
10, 34830, Note_on_c, 7, 28, 127
10, 34860, Note_on_c, 7, 28, 0
10, 34860, Note_on_c, 7, 28, 127
10, 34920, Note_on_c, 7, 28, 0
10, 34920, Note_on_c, 7, 40, 127
10, 35040, Note_on_c, 7, 40, 0
10, 35040, Note_on_c, 7, 31, 127
10, 35070, Note_on_c, 7, 31, 0
10, 35070, Note_on_c, 7, 30, 127
10, 35100, Note_on_c, 7, 30, 0
10, 35100, Note_on_c, 7, 28, 127
10, 35280, Note_on_c, 7, 28, 0
10, 35280, Note_on_c, 7, 40, 127
10, 35460, Note_on_c, 7, 40, 0
10, 35460, Note_on_c, 7, 38, 127
10, 35640, Note_on_c, 7, 38, 0
10, 35640, Note_on_c, 7, 36, 127
10, 35760, Note_on_c, 7, 36, 0
10, 35760, Note_on_c, 7, 31, 127
10, 35790, Note_on_c, 7, 31, 0
10, 35790, Note_on_c, 7, 30, 127
10, 35820, Note_on_c, 7, 30, 0
10, 35820, Note_on_c, 7, 28, 127
10, 36000, Note_on_c, 7, 28, 0
10, 36000, Note_on_c, 7, 40, 127
10, 36180, Note_on_c, 7, 40, 0
10, 36180, Note_on_c, 7, 38, 127
10, 36360, Note_on_c, 7, 38, 0
10, 36360, Note_on_c, 7, 36, 127
10, 36480, Note_on_c, 7, 36, 0
10, 36480, Note_on_c, 7, 31, 127
10, 36510, Note_on_c, 7, 31, 0
10, 36510, Note_on_c, 7, 30, 127
10, 36540, Note_on_c, 7, 30, 0
10, 36540, Note_on_c, 7, 28, 127
10, 36720, Note_on_c, 7, 28, 0
10, 36720, Note_on_c, 7, 40, 127
10, 36900, Note_on_c, 7, 40, 0
10, 36900, Note_on_c, 7, 38, 127
10, 37080, Note_on_c, 7, 38, 0
10, 37080, Note_on_c, 7, 36, 127
10, 37200, Note_on_c, 7, 36, 0
10, 37200, Note_on_c, 7, 31, 127
10, 37230, Note_on_c, 7, 31, 0
10, 37230, Note_on_c, 7, 30, 127
10, 37260, Note_on_c, 7, 30, 0
10, 37260, Note_on_c, 7, 31, 127
10, 37440, Note_on_c, 7, 31, 0
10, 37440, Note_on_c, 7, 35, 127
10, 37620, Note_on_c, 7, 35, 0
10, 37620, Note_on_c, 7, 28, 127
10, 37800, Note_on_c, 7, 28, 0
10, 37800, Note_on_c, 7, 40, 127
10, 37980, Note_on_c, 7, 40, 0
10, 37980, Note_on_c, 7, 36, 127
10, 38160, Note_on_c, 7, 36, 0
10, 38160, Note_on_c, 7, 33, 127
10, 38340, Note_on_c, 7, 33, 0
10, 38340, Note_on_c, 7, 38, 127
10, 38400, Note_on_c, 7, 38, 0
10, 38400, Note_on_c, 7, 38, 127
10, 38460, Note_on_c, 7, 38, 0
10, 38460, Note_on_c, 7, 38, 127
10, 38520, Note_on_c, 7, 38, 0
10, 38520, Note_on_c, 7, 38, 127
10, 38580, Note_on_c, 7, 38, 0
10, 38580, Note_on_c, 7, 38, 127
10, 38640, Note_on_c, 7, 38, 0
10, 38640, Note_on_c, 7, 38, 127
10, 38700, Note_on_c, 7, 38, 0
10, 38700, Note_on_c, 7, 36, 127
10, 38880, Note_on_c, 7, 36, 0
10, 38880, Note_on_c, 7, 33, 127
10, 39060, Note_on_c, 7, 33, 0
10, 39060, Note_on_c, 7, 38, 127
10, 39120, Note_on_c, 7, 38, 0
10, 39120, Note_on_c, 7, 38, 127
10, 39180, Note_on_c, 7, 38, 0
10, 39180, Note_on_c, 7, 38, 127
10, 39240, Note_on_c, 7, 38, 0
10, 39240, Note_on_c, 7, 38, 127
10, 39300, Note_on_c, 7, 38, 0
10, 39300, Note_on_c, 7, 38, 127
10, 39360, Note_on_c, 7, 38, 0
10, 39360, Note_on_c, 7, 38, 127
10, 39420, Note_on_c, 7, 38, 0
10, 39420, Note_on_c, 7, 36, 127
10, 39600, Note_on_c, 7, 36, 0
10, 39600, Note_on_c, 7, 33, 127
10, 39780, Note_on_c, 7, 33, 0
10, 39780, Note_on_c, 7, 38, 127
10, 39840, Note_on_c, 7, 38, 0
10, 39840, Note_on_c, 7, 38, 127
10, 39900, Note_on_c, 7, 38, 0
10, 39900, Note_on_c, 7, 38, 127
10, 39960, Note_on_c, 7, 38, 0
10, 39960, Note_on_c, 7, 38, 127
10, 40020, Note_on_c, 7, 38, 0
10, 40020, Note_on_c, 7, 38, 127
10, 40080, Note_on_c, 7, 38, 0
10, 40080, Note_on_c, 7, 38, 127
10, 40140, Note_on_c, 7, 38, 0
10, 40140, Note_on_c, 7, 36, 127
10, 40320, Note_on_c, 7, 36, 0
10, 40320, Note_on_c, 7, 33, 127
10, 40500, Note_on_c, 7, 33, 0
10, 40500, Note_on_c, 7, 38, 127
10, 40560, Note_on_c, 7, 38, 0
10, 40560, Note_on_c, 7, 38, 127
10, 40620, Note_on_c, 7, 38, 0
10, 40620, Note_on_c, 7, 38, 127
10, 40680, Note_on_c, 7, 38, 0
10, 40680, Note_on_c, 7, 38, 127
10, 40740, Note_on_c, 7, 38, 0
10, 40740, Note_on_c, 7, 38, 127
10, 40800, Note_on_c, 7, 38, 0
10, 40800, Note_on_c, 7, 38, 127
10, 40860, Note_on_c, 7, 38, 0
10, 40860, Note_on_c, 7, 36, 127
10, 41040, Note_on_c, 7, 36, 0
10, 41040, Note_on_c, 7, 33, 127
10, 41220, Note_on_c, 7, 33, 0
10, 41220, Note_on_c, 7, 38, 127
10, 41280, Note_on_c, 7, 38, 0
10, 41280, Note_on_c, 7, 38, 127
10, 41340, Note_on_c, 7, 38, 0
10, 41340, Note_on_c, 7, 38, 127
10, 41400, Note_on_c, 7, 38, 0
10, 41400, Note_on_c, 7, 28, 127
10, 41760, Note_on_c, 7, 28, 0
10, 41760, Note_on_c, 7, 28, 127
10, 41790, Note_on_c, 7, 28, 0
10, 41790, Note_on_c, 7, 28, 127
10, 41820, Note_on_c, 7, 28, 0
10, 41820, Note_on_c, 7, 28, 127
10, 41850, Note_on_c, 7, 28, 0
10, 41850, Note_on_c, 7, 28, 127
10, 41880, Note_on_c, 7, 28, 0
10, 41880, Note_on_c, 7, 28, 127
10, 41910, Note_on_c, 7, 28, 0
10, 41910, Note_on_c, 7, 28, 127
10, 41940, Note_on_c, 7, 28, 0
10, 41940, Note_on_c, 7, 28, 127
10, 41970, Note_on_c, 7, 28, 0
10, 41970, Note_on_c, 7, 28, 127
10, 42000, Note_on_c, 7, 28, 0
10, 42000, Note_on_c, 7, 28, 127
10, 42030, Note_on_c, 7, 28, 0
10, 42030, Note_on_c, 7, 28, 127
10, 42060, Note_on_c, 7, 28, 0
10, 42060, Note_on_c, 7, 28, 127
10, 42090, Note_on_c, 7, 28, 0
10, 42090, Note_on_c, 7, 28, 127
10, 42120, Note_on_c, 7, 28, 0
10, 42120, Note_on_c, 7, 28, 127
10, 42240, Note_on_c, 7, 28, 0
10, 42240, Note_on_c, 7, 28, 127
10, 42300, Note_on_c, 7, 28, 0
10, 42300, Note_on_c, 7, 40, 127
10, 42420, Note_on_c, 7, 40, 0
10, 42420, Note_on_c, 7, 40, 127
10, 42480, Note_on_c, 7, 40, 0
10, 42480, Note_on_c, 7, 38, 127
10, 42600, Note_on_c, 7, 38, 0
10, 42600, Note_on_c, 7, 38, 127
10, 42660, Note_on_c, 7, 38, 0
10, 42660, Note_on_c, 7, 36, 127
10, 42780, Note_on_c, 7, 36, 0
10, 42780, Note_on_c, 7, 31, 127
10, 42810, Note_on_c, 7, 31, 0
10, 42810, Note_on_c, 7, 30, 127
10, 42840, Note_on_c, 7, 30, 0
10, 42840, Note_on_c, 7, 28, 127
10, 42960, Note_on_c, 7, 28, 0
10, 42960, Note_on_c, 7, 28, 127
10, 43020, Note_on_c, 7, 28, 0
10, 43020, Note_on_c, 7, 40, 127
10, 43140, Note_on_c, 7, 40, 0
10, 43140, Note_on_c, 7, 40, 127
10, 43200, Note_on_c, 7, 40, 0
10, 43200, Note_on_c, 7, 38, 127
10, 43320, Note_on_c, 7, 38, 0
10, 43320, Note_on_c, 7, 38, 127
10, 43380, Note_on_c, 7, 38, 0
10, 43380, Note_on_c, 7, 36, 127
10, 43500, Note_on_c, 7, 36, 0
10, 43500, Note_on_c, 7, 31, 127
10, 43530, Note_on_c, 7, 31, 0
10, 43530, Note_on_c, 7, 30, 127
10, 43560, Note_on_c, 7, 30, 0
10, 43560, Note_on_c, 7, 28, 127
10, 43680, Note_on_c, 7, 28, 0
10, 43680, Note_on_c, 7, 28, 127
10, 43740, Note_on_c, 7, 28, 0
10, 43740, Note_on_c, 7, 40, 127
10, 43860, Note_on_c, 7, 40, 0
10, 43860, Note_on_c, 7, 40, 127
10, 43920, Note_on_c, 7, 40, 0
10, 43920, Note_on_c, 7, 38, 127
10, 44040, Note_on_c, 7, 38, 0
10, 44040, Note_on_c, 7, 38, 127
10, 44100, Note_on_c, 7, 38, 0
10, 44100, Note_on_c, 7, 36, 127
10, 44220, Note_on_c, 7, 36, 0
10, 44220, Note_on_c, 7, 31, 127
10, 44250, Note_on_c, 7, 31, 0
10, 44250, Note_on_c, 7, 30, 127
10, 44280, Note_on_c, 7, 30, 0
10, 44280, Note_on_c, 7, 31, 127
10, 44460, Note_on_c, 7, 31, 0
10, 44460, Note_on_c, 7, 35, 127
10, 44580, Note_on_c, 7, 35, 0
10, 44580, Note_on_c, 7, 28, 127
10, 44640, Note_on_c, 7, 28, 0
10, 44640, Note_on_c, 7, 28, 127
10, 46800, Note_on_c, 7, 28, 0
10, 46800, End_track
11, 0, Start_track
11, 0, MIDI_port, 0
11, 0, Title_t, " "
11, 0, End_track
12, 0, Start_track
12, 0, MIDI_port, 0
12, 0, Title_t, "Nothing Else"
12, 0, End_track
13, 0, Start_track
13, 0, MIDI_port, 0
13, 0, Title_t, "Matters"
13, 0, End_track
14, 0, Start_track
14, 0, MIDI_port, 0
14, 0, Title_t, "by Metallica"
14, 0, End_track
15, 0, Start_track
15, 0, MIDI_port, 0
15, 0, Title_t, " "
15, 0, End_track
16, 0, Start_track
16, 0, MIDI_port, 0
16, 0, Title_t, "Transcribed by"
16, 0, End_track
17, 0, Start_track
17, 0, MIDI_port, 0
17, 0, Title_t, "King Diamond"
17, 0, End_track
0, 0, End_of_file
