0, 0, Header, 0, 1, 192
1, 0, Start_track
1, 0, Text_t, "STILLLOV"
1, 0, Tempo, 618556
1, 1, System_exclusive, 5, 126, 127, 9, 1, 247
1, 24, System_exclusive, 10, 65, 16, 66, 18, 64, 0, 127, 0, 65, 247
1, 68, System_exclusive, 10, 65, 16, 66, 18, 64, 1, 51, 85, 55, 247
1, 117, System_exclusive, 10, 65, 16, 66, 18, 64, 1, 52, 85, 54, 247
1, 224, Control_c, 1, 121, 0
1, 226, Control_c, 3, 121, 0
1, 228, Control_c, 4, 121, 0
1, 229, Control_c, 5, 121, 0
1, 273, Control_c, 2, 121, 0
1, 278, Control_c, 7, 121, 0
1, 279, Control_c, 8, 121, 0
1, 280, Control_c, 6, 121, 0
1, 292, Control_c, 3, 10, 64
1, 294, Control_c, 3, 7, 116
1, 296, Control_c, 3, 93, 71
1, 298, Control_c, 3, 91, 107
1, 302, Control_c, 4, 10, 88
1, 303, Control_c, 4, 7, 114
1, 304, Control_c, 4, 93, 14
1, 305, Control_c, 4, 91, 78
1, 311, Control_c, 5, 10, 35
1, 313, Control_c, 6, 10, 78
1, 313, Control_c, 5, 7, 113
1, 315, Control_c, 6, 7, 116
1, 315, Control_c, 5, 93, 30
1, 316, Control_c, 1, 10, 64
1, 316, Control_c, 6, 93, 20
1, 317, Control_c, 6, 91, 102
1, 317, Control_c, 5, 91, 106
1, 318, Control_c, 1, 7, 121
1, 320, Control_c, 1, 93, 30
1, 322, Control_c, 1, 91, 0
1, 322, Control_c, 1, 11, 127
1, 323, Control_c, 2, 11, 127
1, 324, Control_c, 3, 11, 127
1, 326, Control_c, 4, 11, 127
1, 327, Control_c, 5, 11, 127
1, 328, Control_c, 2, 10, 46
1, 330, Control_c, 6, 11, 127
1, 330, Control_c, 2, 7, 114
1, 332, Control_c, 2, 93, 25
1, 334, Control_c, 2, 91, 98
1, 350, Pitch_bend_c, 1, 8192
1, 352, Pitch_bend_c, 2, 8192
1, 352, Control_c, 9, 121, 0
1, 353, Pitch_bend_c, 3, 8192
1, 355, Pitch_bend_c, 4, 8192
1, 356, Pitch_bend_c, 5, 8192
1, 359, Pitch_bend_c, 6, 8192
1, 387, Control_c, 1, 0, 0
1, 389, Control_c, 3, 0, 0
1, 391, Control_c, 4, 0, 0
1, 392, Control_c, 5, 0, 0
1, 395, Control_c, 6, 0, 0
1, 405, Pitch_bend_c, 7, 8192
1, 406, Pitch_bend_c, 8, 8192
1, 424, Control_c, 7, 11, 127
1, 425, Control_c, 8, 11, 127
1, 426, Control_c, 7, 10, 52
1, 427, Control_c, 8, 10, 36
1, 427, Control_c, 7, 7, 116
1, 428, Control_c, 8, 7, 116
1, 428, Control_c, 7, 93, 70
1, 429, Control_c, 8, 93, 63
1, 429, Control_c, 7, 91, 102
1, 430, Control_c, 8, 91, 127
1, 432, Program_c, 3, 75
1, 436, Control_c, 2, 0, 0
1, 444, Program_c, 4, 26
1, 448, Control_c, 9, 7, 117
1, 450, Control_c, 9, 93, 0
1, 451, Program_c, 5, 29
1, 452, Control_c, 9, 91, 100
1, 453, Program_c, 1, 35
1, 453, Program_c, 6, 30
1, 455, Pitch_bend_c, 9, 8192
1, 468, Program_c, 2, 24
1, 469, Control_c, 10, 121, 0
1, 474, Control_c, 9, 11, 127
1, 489, Control_c, 7, 0, 0
1, 490, Control_c, 8, 0, 0
1, 519, Program_c, 8, 31
1, 540, Program_c, 9, 0
1, 548, Pitch_bend_c, 10, 8192
1, 561, Control_c, 10, 10, 47
1, 562, Control_c, 10, 7, 112
1, 563, Control_c, 10, 93, 89
1, 564, Control_c, 10, 91, 110
1, 566, Program_c, 7, 52
1, 567, Control_c, 10, 11, 127
1, 584, Control_c, 10, 0, 0
1, 654, Program_c, 10, 120
1, 768, Note_on_c, 2, 50, 90
1, 864, Note_on_c, 2, 70, 90
1, 962, Note_on_c, 2, 67, 84
1, 990, Note_on_c, 2, 70, 0
1, 1055, Note_on_c, 2, 62, 86
1, 1129, Note_on_c, 2, 67, 0
1, 1149, Note_on_c, 2, 50, 0
1, 1152, Note_on_c, 2, 53, 94
1, 1194, Note_on_c, 2, 62, 0
1, 1250, Note_on_c, 2, 70, 102
1, 1343, Note_on_c, 2, 67, 90
1, 1369, Note_on_c, 2, 70, 0
1, 1437, Note_on_c, 2, 62, 80
1, 1507, Note_on_c, 2, 67, 0
1, 1533, Note_on_c, 2, 53, 0
1, 1536, Note_on_c, 2, 51, 90
1, 1538, Note_on_c, 2, 62, 0
1, 1631, Note_on_c, 2, 70, 90
1, 1730, Note_on_c, 2, 67, 94
1, 1767, Note_on_c, 2, 70, 0
1, 1825, Note_on_c, 2, 62, 86
1, 1826, Note_on_c, 2, 67, 0
1, 1920, Tempo, 714285
1, 1922, Note_on_c, 2, 73, 91
1, 1931, Note_on_c, 2, 62, 0
1, 2016, Note_on_c, 2, 72, 80
1, 2038, Note_on_c, 2, 73, 0
1, 2111, Note_on_c, 2, 70, 80
1, 2112, Tempo, 789473
1, 2151, Note_on_c, 2, 72, 0
1, 2202, Note_on_c, 2, 70, 0
1, 2206, Note_on_c, 2, 67, 69
1, 2301, Note_on_c, 2, 51, 0
1, 2304, Note_on_c, 2, 51, 92
1, 2304, Tempo, 618556
1, 2310, Note_on_c, 2, 58, 73
1, 2313, Note_on_c, 2, 67, 0
1, 2498, Note_on_c, 2, 70, 86
1, 2593, Note_on_c, 2, 67, 72
1, 2622, Note_on_c, 2, 70, 0
1, 2678, Note_on_c, 2, 58, 0
1, 2687, Note_on_c, 2, 62, 75
1, 2723, Note_on_c, 2, 67, 0
1, 2879, Note_on_c, 2, 58, 72
1, 2891, Note_on_c, 2, 62, 0
1, 3050, Note_on_c, 10, 72, 46
1, 3051, Note_on_c, 10, 72, 0
1, 3069, Note_on_c, 2, 51, 0
1, 3072, Note_on_c, 2, 50, 93
1, 3081, Note_on_c, 2, 58, 0
1, 3083, Note_on_c, 2, 60, 74
1, 3264, Tempo, 697674
1, 3265, Note_on_c, 2, 69, 78
1, 3358, Note_on_c, 2, 66, 80
1, 3381, Note_on_c, 2, 69, 0
1, 3448, Note_on_c, 2, 60, 0
1, 3456, Tempo, 833333
1, 3458, Note_on_c, 2, 60, 78
1, 3493, Note_on_c, 2, 66, 0
1, 3647, Note_on_c, 2, 57, 59
1, 3658, Note_on_c, 2, 60, 0
1, 3821, Note_on_c, 2, 57, 0
1, 3822, Note_on_c, 10, 72, 39
1, 3823, Note_on_c, 10, 72, 0
1, 3837, Note_on_c, 2, 50, 0
1, 3839, Note_on_c, 4, 55, 82
1, 3840, Note_on_c, 2, 50, 90
1, 3840, Tempo, 618556
1, 3936, Note_on_c, 4, 62, 85
1, 3936, Note_on_c, 2, 70, 90
1, 4031, Note_on_c, 4, 67, 66
1, 4034, Note_on_c, 2, 67, 94
1, 4062, Note_on_c, 2, 70, 0
1, 4127, Note_on_c, 2, 62, 86
1, 4129, Note_on_c, 4, 70, 76
1, 4184, Note_on_c, 4, 55, 0
1, 4201, Note_on_c, 2, 67, 0
1, 4219, Note_on_c, 4, 62, 0
1, 4221, Note_on_c, 2, 50, 0
1, 4224, Note_on_c, 2, 53, 94
1, 4224, Note_on_c, 4, 55, 87
1, 4227, Note_on_c, 4, 67, 0
1, 4236, Note_on_c, 4, 70, 0
1, 4266, Note_on_c, 2, 62, 0
1, 4322, Note_on_c, 4, 62, 82
1, 4322, Note_on_c, 2, 70, 102
1, 4415, Note_on_c, 2, 67, 94
1, 4418, Note_on_c, 4, 67, 63
1, 4441, Note_on_c, 2, 70, 0
1, 4509, Note_on_c, 2, 62, 80
1, 4510, Note_on_c, 4, 70, 68
1, 4554, Note_on_c, 4, 55, 0
1, 4579, Note_on_c, 2, 67, 0
1, 4605, Note_on_c, 2, 53, 0
1, 4606, Note_on_c, 4, 67, 0
1, 4607, Note_on_c, 4, 70, 0
1, 4608, Note_on_c, 2, 51, 90
1, 4608, Note_on_c, 4, 55, 78
1, 4610, Note_on_c, 2, 62, 0
1, 4614, Note_on_c, 4, 62, 0
1, 4703, Note_on_c, 2, 70, 90
1, 4706, Note_on_c, 4, 62, 70
1, 4798, Note_on_c, 4, 67, 53
1, 4802, Note_on_c, 2, 67, 84
1, 4839, Note_on_c, 2, 70, 0
1, 4896, Note_on_c, 4, 70, 72
1, 4897, Note_on_c, 2, 62, 86
1, 4898, Note_on_c, 2, 67, 0
1, 4992, Tempo, 697674
1, 4993, Note_on_c, 4, 61, 87
1, 4994, Note_on_c, 2, 73, 91
1, 4998, Note_on_c, 4, 70, 0
1, 5003, Note_on_c, 2, 62, 0
1, 5005, Note_on_c, 4, 67, 0
1, 5011, Note_on_c, 4, 62, 0
1, 5020, Note_on_c, 4, 55, 0
1, 5088, Note_on_c, 2, 72, 80
1, 5090, Note_on_c, 4, 60, 79
1, 5098, Note_on_c, 4, 61, 0
1, 5110, Note_on_c, 2, 73, 0
1, 5183, Note_on_c, 2, 70, 80
1, 5184, Tempo, 882352
1, 5188, Note_on_c, 4, 58, 66
1, 5223, Note_on_c, 2, 72, 0
1, 5243, Note_on_c, 4, 60, 0
1, 5274, Note_on_c, 2, 70, 0
1, 5278, Note_on_c, 2, 67, 69
1, 5286, Note_on_c, 4, 55, 77
1, 5292, Note_on_c, 4, 58, 0
1, 5373, Note_on_c, 2, 51, 0
1, 5376, Note_on_c, 2, 51, 92
1, 5376, Tempo, 612244
1, 5382, Note_on_c, 2, 58, 73
1, 5425, Note_on_c, 4, 55, 0
1, 5433, Note_on_c, 2, 67, 0
1, 5567, Note_on_c, 4, 67, 86
1, 5570, Note_on_c, 2, 70, 86
1, 5665, Note_on_c, 2, 67, 72
1, 5669, Note_on_c, 4, 62, 72
1, 5691, Note_on_c, 4, 67, 0
1, 5694, Note_on_c, 2, 70, 0
1, 5754, Note_on_c, 2, 58, 0
1, 5759, Note_on_c, 2, 62, 75
1, 5765, Note_on_c, 4, 58, 75
1, 5795, Note_on_c, 2, 67, 0
1, 5799, Note_on_c, 4, 62, 0
1, 5951, Note_on_c, 2, 58, 72
1, 5954, Note_on_c, 4, 55, 72
1, 5963, Note_on_c, 2, 62, 0
1, 5969, Note_on_c, 4, 58, 0
1, 6122, Note_on_c, 10, 72, 46
1, 6123, Note_on_c, 10, 72, 0
1, 6141, Note_on_c, 2, 51, 0
1, 6144, Note_on_c, 2, 50, 93
1, 6153, Note_on_c, 2, 58, 0
1, 6155, Note_on_c, 2, 60, 74
1, 6156, Note_on_c, 4, 55, 0
1, 6334, Note_on_c, 4, 60, 79
1, 6336, Tempo, 731707
1, 6337, Note_on_c, 2, 69, 78
1, 6430, Note_on_c, 2, 66, 80
1, 6433, Note_on_c, 4, 57, 81
1, 6498, Note_on_c, 4, 60, 0
1, 6501, Note_on_c, 2, 69, 0
1, 6517, Note_on_c, 2, 60, 0
1, 6527, Note_on_c, 4, 66, 79
1, 6528, Tempo, 923076
1, 6530, Note_on_c, 2, 60, 78
1, 6565, Note_on_c, 2, 66, 0
1, 6712, Note_on_c, 4, 57, 0
1, 6719, Note_on_c, 2, 57, 59
1, 6730, Note_on_c, 2, 60, 0
1, 6893, Note_on_c, 2, 57, 0
1, 6894, Note_on_c, 10, 72, 39
1, 6895, Note_on_c, 10, 72, 0
1, 6908, Note_on_c, 4, 66, 0
1, 6909, Note_on_c, 2, 50, 0
1, 6912, Note_on_c, 2, 50, 105
1, 6912, Tempo, 606060
1, 6921, Pitch_bend_c, 3, 2432
1, 6923, Note_on_c, 3, 74, 105
1, 6944, Pitch_bend_c, 3, 3840
1, 6960, Pitch_bend_c, 3, 5248
1, 6976, Pitch_bend_c, 3, 6656
1, 6992, Pitch_bend_c, 3, 8192
1, 7007, Note_on_c, 2, 70, 76
1, 7024, Control_c, 3, 1, 68
1, 7100, Note_on_c, 4, 58, 78
1, 7104, Note_on_c, 2, 67, 86
1, 7200, Note_on_c, 2, 62, 86
1, 7232, Control_c, 3, 1, 0
1, 7245, Note_on_c, 2, 70, 0
1, 7296, Note_on_c, 2, 70, 98
1, 7298, Note_on_c, 4, 62, 82
1, 7304, Note_on_c, 2, 67, 0
1, 7310, Note_on_c, 3, 74, 0
1, 7390, Note_on_c, 2, 67, 80
1, 7399, Note_on_c, 2, 62, 0
1, 7478, Note_on_c, 4, 67, 78
1, 7488, Note_on_c, 2, 62, 90
1, 7509, Note_on_c, 2, 67, 0
1, 7550, Note_on_c, 3, 72, 93
1, 7565, Note_on_c, 2, 70, 0
1, 7583, Note_on_c, 2, 67, 77
1, 7601, Note_on_c, 3, 72, 0
1, 7627, Note_on_c, 3, 70, 70
1, 7677, Note_on_c, 2, 50, 0
1, 7680, Note_on_c, 2, 50, 105
1, 7684, Note_on_c, 3, 70, 0
1, 7716, Note_on_c, 2, 67, 0
1, 7719, Pitch_bend_c, 3, 2176
1, 7721, Note_on_c, 3, 74, 104
1, 7728, Pitch_bend_c, 3, 4480
1, 7737, Note_on_c, 2, 62, 0
1, 7744, Pitch_bend_c, 3, 6144
1, 7760, Pitch_bend_c, 3, 7552
1, 7776, Pitch_bend_c, 3, 8192
1, 7776, Note_on_c, 2, 70, 92
1, 7808, Control_c, 3, 1, 52
1, 7818, Note_on_c, 4, 58, 0
1, 7874, Note_on_c, 2, 67, 80
1, 7875, Note_on_c, 4, 58, 86
1, 7953, Note_on_c, 4, 62, 0
1, 7956, Note_on_c, 4, 67, 0
1, 7970, Note_on_c, 2, 62, 72
1, 7977, Note_on_c, 2, 70, 0
1, 8032, Control_c, 3, 1, 0
1, 8054, Note_on_c, 4, 62, 83
1, 8055, Note_on_c, 2, 67, 0
1, 8056, Note_on_c, 3, 74, 0
1, 8064, Note_on_c, 2, 70, 90
1, 8158, Note_on_c, 2, 67, 84
1, 8161, Note_on_c, 2, 62, 0
1, 8244, Note_on_c, 4, 67, 81
1, 8255, Note_on_c, 2, 62, 92
1, 8274, Note_on_c, 2, 67, 0
1, 8349, Note_on_c, 2, 70, 0
1, 8353, Note_on_c, 3, 74, 91
1, 8354, Note_on_c, 2, 67, 84
1, 8428, Note_on_c, 3, 74, 0
1, 8445, Note_on_c, 2, 50, 0
1, 8448, Note_on_c, 2, 50, 102
1, 8470, Pitch_bend_c, 3, 2432
1, 8472, Note_on_c, 3, 82, 109
1, 8480, Pitch_bend_c, 3, 4480
1, 8496, Pitch_bend_c, 3, 7040
1, 8504, Note_on_c, 2, 62, 0
1, 8512, Pitch_bend_c, 3, 8192
1, 8517, Note_on_c, 2, 67, 0
1, 8542, Note_on_c, 2, 70, 88
1, 8560, Note_on_c, 3, 82, 0
1, 8576, Note_on_c, 4, 58, 0
1, 8595, Note_on_c, 3, 82, 107
1, 8639, Note_on_c, 2, 67, 92
1, 8644, Note_on_c, 4, 58, 81
1, 8679, Note_on_c, 3, 82, 0
1, 8710, Note_on_c, 3, 82, 99
1, 8734, Note_on_c, 2, 62, 75
1, 8761, Note_on_c, 2, 70, 0
1, 8763, Note_on_c, 4, 62, 0
1, 8817, Note_on_c, 3, 82, 0
1, 8825, Note_on_c, 4, 62, 82
1, 8832, Note_on_c, 2, 67, 0
1, 8834, Note_on_c, 2, 70, 102
1, 8840, Pitch_bend_c, 3, 3840
1, 8841, Note_on_c, 3, 82, 103
1, 8864, Pitch_bend_c, 3, 5632
1, 8880, Pitch_bend_c, 3, 8192
1, 8906, Note_on_c, 4, 67, 0
1, 8922, Note_on_c, 3, 82, 0
1, 8926, Note_on_c, 2, 67, 83
1, 8932, Note_on_c, 2, 62, 0
1, 8946, Note_on_c, 3, 81, 97
1, 9015, Note_on_c, 4, 67, 80
1, 9024, Note_on_c, 2, 67, 0
1, 9026, Note_on_c, 2, 62, 93
1, 9049, Note_on_c, 3, 81, 0
1, 9074, Note_on_c, 3, 79, 102
1, 9118, Note_on_c, 2, 67, 80
1, 9120, Note_on_c, 2, 70, 0
1, 9181, Note_on_c, 3, 79, 0
1, 9213, Note_on_c, 2, 50, 0
1, 9216, Note_on_c, 2, 50, 88
1, 9218, Note_on_c, 3, 74, 100
1, 9258, Note_on_c, 2, 62, 0
1, 9264, Control_c, 3, 1, 61
1, 9296, Note_on_c, 2, 67, 0
1, 9313, Note_on_c, 2, 70, 88
1, 9348, Note_on_c, 4, 58, 0
1, 9408, Control_c, 3, 1, 0
1, 9408, Note_on_c, 2, 67, 88
1, 9409, Note_on_c, 4, 58, 81
1, 9411, Note_on_c, 2, 70, 0
1, 9434, Note_on_c, 3, 74, 0
1, 9505, Note_on_c, 2, 62, 78
1, 9536, Note_on_c, 2, 67, 0
1, 9543, Note_on_c, 4, 62, 0
1, 9595, Note_on_c, 4, 62, 82
1, 9598, Pitch_bend_c, 3, 3584
1, 9599, Note_on_c, 3, 74, 104
1, 9601, Note_on_c, 2, 70, 86
1, 9616, Pitch_bend_c, 3, 5248
1, 9632, Pitch_bend_c, 3, 6400
1, 9648, Pitch_bend_c, 3, 7552
1, 9664, Pitch_bend_c, 3, 8192
1, 9687, Note_on_c, 4, 67, 0
1, 9695, Note_on_c, 2, 62, 0
1, 9696, Note_on_c, 2, 67, 86
1, 9706, Note_on_c, 3, 74, 0
1, 9729, Note_on_c, 3, 72, 107
1, 9776, Note_on_c, 4, 67, 80
1, 9794, Note_on_c, 2, 62, 90
1, 9805, Note_on_c, 2, 67, 0
1, 9839, Note_on_c, 3, 72, 0
1, 9848, Note_on_c, 2, 70, 0
1, 9858, Note_on_c, 3, 70, 97
1, 9889, Note_on_c, 2, 67, 86
1, 9952, Note_on_c, 3, 70, 0
1, 9975, Note_on_c, 3, 73, 107
1, 9977, Note_on_c, 10, 72, 37
1, 9978, Note_on_c, 10, 72, 0
1, 9981, Note_on_c, 2, 50, 0
1, 9984, Note_on_c, 2, 45, 105
1, 10048, Control_c, 3, 1, 46
1, 10075, Note_on_c, 2, 67, 0
1, 10078, Note_on_c, 2, 73, 88
1, 10079, Note_on_c, 2, 62, 0
1, 10084, Note_on_c, 4, 58, 0
1, 10095, Note_on_c, 4, 62, 0
1, 10100, Note_on_c, 4, 67, 0
1, 10175, Note_on_c, 2, 69, 92
1, 10180, Note_on_c, 4, 57, 81
1, 10270, Note_on_c, 2, 64, 75
1, 10297, Note_on_c, 2, 73, 0
1, 10361, Note_on_c, 4, 61, 82
1, 10368, Note_on_c, 2, 69, 0
1, 10370, Note_on_c, 2, 73, 102
1, 10400, Note_on_c, 3, 73, 0
1, 10400, Control_c, 3, 1, 0
1, 10462, Note_on_c, 2, 69, 83
1, 10468, Note_on_c, 2, 64, 0
1, 10551, Note_on_c, 4, 64, 80
1, 10560, Note_on_c, 2, 69, 0
1, 10562, Note_on_c, 2, 64, 93
1, 10654, Note_on_c, 2, 69, 80
1, 10656, Note_on_c, 2, 73, 0
1, 10749, Note_on_c, 2, 45, 0
1, 10752, Note_on_c, 2, 45, 105
1, 10794, Note_on_c, 2, 64, 0
1, 10832, Note_on_c, 2, 69, 0
1, 10849, Note_on_c, 2, 73, 88
1, 10884, Note_on_c, 4, 57, 0
1, 10944, Note_on_c, 2, 69, 88
1, 10945, Note_on_c, 4, 57, 81
1, 10947, Note_on_c, 2, 73, 0
1, 11041, Note_on_c, 2, 64, 78
1, 11072, Note_on_c, 2, 69, 0
1, 11079, Note_on_c, 4, 61, 0
1, 11131, Note_on_c, 4, 61, 82
1, 11135, Note_on_c, 3, 73, 104
1, 11137, Note_on_c, 2, 73, 86
1, 11223, Note_on_c, 4, 64, 0
1, 11231, Note_on_c, 2, 64, 0
1, 11232, Note_on_c, 2, 69, 86
1, 11242, Note_on_c, 3, 73, 0
1, 11265, Note_on_c, 3, 71, 107
1, 11312, Note_on_c, 4, 64, 80
1, 11330, Note_on_c, 2, 64, 90
1, 11341, Note_on_c, 2, 69, 0
1, 11375, Note_on_c, 3, 71, 0
1, 11384, Note_on_c, 2, 73, 0
1, 11394, Note_on_c, 3, 69, 97
1, 11425, Note_on_c, 2, 69, 86
1, 11488, Note_on_c, 3, 69, 0
1, 11501, Note_on_c, 10, 72, 38
1, 11502, Note_on_c, 10, 72, 0
1, 11510, Pitch_bend_c, 3, 4224
1, 11511, Note_on_c, 3, 74, 107
1, 11517, Note_on_c, 2, 45, 0
1, 11520, Note_on_c, 2, 50, 102
1, 11536, Pitch_bend_c, 3, 5632
1, 11552, Pitch_bend_c, 3, 6656
1, 11568, Pitch_bend_c, 3, 8192
1, 11611, Note_on_c, 2, 69, 0
1, 11614, Note_on_c, 2, 66, 88
1, 11615, Note_on_c, 2, 64, 0
1, 11620, Note_on_c, 4, 57, 0
1, 11631, Note_on_c, 4, 61, 0
1, 11636, Note_on_c, 4, 64, 0
1, 11696, Control_c, 3, 1, 44
1, 11711, Note_on_c, 2, 62, 92
1, 11716, Note_on_c, 4, 57, 81
1, 11806, Note_on_c, 2, 57, 75
1, 11833, Note_on_c, 2, 66, 0
1, 11897, Note_on_c, 4, 62, 82
1, 11904, Note_on_c, 2, 62, 0
1, 11906, Note_on_c, 2, 66, 102
1, 11936, Note_on_c, 3, 74, 0
1, 11968, Control_c, 3, 1, 0
1, 11998, Note_on_c, 2, 62, 83
1, 12004, Note_on_c, 2, 57, 0
1, 12087, Note_on_c, 4, 66, 80
1, 12096, Note_on_c, 2, 62, 0
1, 12098, Note_on_c, 2, 57, 93
1, 12190, Note_on_c, 2, 62, 80
1, 12192, Note_on_c, 2, 66, 0
1, 12285, Note_on_c, 2, 50, 0
1, 12288, Note_on_c, 2, 50, 88
1, 12288, Tempo, 625000
1, 12330, Note_on_c, 2, 57, 0
1, 12368, Note_on_c, 2, 62, 0
1, 12385, Note_on_c, 2, 66, 88
1, 12420, Note_on_c, 4, 57, 0
1, 12480, Note_on_c, 2, 62, 88
1, 12481, Note_on_c, 4, 57, 81
1, 12483, Note_on_c, 2, 66, 0
1, 12577, Note_on_c, 2, 57, 78
1, 12608, Note_on_c, 2, 62, 0
1, 12615, Note_on_c, 4, 62, 0
1, 12667, Note_on_c, 4, 62, 82
1, 12672, Tempo, 681818
1, 12673, Note_on_c, 2, 66, 86
1, 12759, Note_on_c, 4, 66, 0
1, 12767, Note_on_c, 2, 57, 0
1, 12768, Note_on_c, 2, 62, 86
1, 12848, Note_on_c, 4, 66, 80
1, 12866, Note_on_c, 2, 57, 90
1, 12877, Note_on_c, 2, 62, 0
1, 12920, Note_on_c, 2, 66, 0
1, 12961, Note_on_c, 2, 62, 86
1, 13045, Note_on_c, 10, 72, 25
1, 13046, Note_on_c, 10, 72, 0
1, 13053, Note_on_c, 2, 50, 0
1, 13056, Note_on_c, 2, 50, 105
1, 13056, Tempo, 606060
1, 13065, Pitch_bend_c, 3, 2432
1, 13067, Note_on_c, 3, 74, 105
1, 13088, Pitch_bend_c, 3, 3840
1, 13104, Pitch_bend_c, 3, 5248
1, 13120, Pitch_bend_c, 3, 6656
1, 13136, Pitch_bend_c, 3, 8192
1, 13147, Note_on_c, 2, 62, 0
1, 13151, Note_on_c, 2, 57, 0
1, 13151, Note_on_c, 2, 70, 76
1, 13156, Note_on_c, 4, 57, 0
1, 13167, Note_on_c, 4, 62, 0
1, 13168, Control_c, 3, 1, 68
1, 13172, Note_on_c, 4, 66, 0
1, 13244, Note_on_c, 4, 58, 78
1, 13248, Note_on_c, 2, 67, 86
1, 13344, Note_on_c, 2, 62, 86
1, 13376, Control_c, 3, 1, 0
1, 13389, Note_on_c, 2, 70, 0
1, 13440, Note_on_c, 2, 70, 98
1, 13442, Note_on_c, 4, 62, 82
1, 13448, Note_on_c, 2, 67, 0
1, 13454, Note_on_c, 3, 74, 0
1, 13534, Note_on_c, 2, 67, 80
1, 13543, Note_on_c, 2, 62, 0
1, 13622, Note_on_c, 4, 67, 78
1, 13632, Note_on_c, 2, 62, 90
1, 13653, Note_on_c, 2, 67, 0
1, 13694, Note_on_c, 3, 72, 93
1, 13709, Note_on_c, 2, 70, 0
1, 13727, Note_on_c, 2, 67, 77
1, 13745, Note_on_c, 3, 72, 0
1, 13771, Note_on_c, 3, 70, 70
1, 13821, Note_on_c, 2, 50, 0
1, 13824, Note_on_c, 2, 50, 105
1, 13828, Note_on_c, 3, 70, 0
1, 13860, Note_on_c, 2, 67, 0
1, 13863, Pitch_bend_c, 3, 2176
1, 13865, Note_on_c, 3, 74, 104
1, 13872, Pitch_bend_c, 3, 4480
1, 13881, Note_on_c, 2, 62, 0
1, 13888, Pitch_bend_c, 3, 6144
1, 13904, Pitch_bend_c, 3, 7552
1, 13920, Pitch_bend_c, 3, 8192
1, 13920, Note_on_c, 2, 70, 92
1, 13952, Control_c, 3, 1, 52
1, 13962, Note_on_c, 4, 58, 0
1, 14018, Note_on_c, 2, 67, 80
1, 14019, Note_on_c, 4, 58, 86
1, 14097, Note_on_c, 4, 62, 0
1, 14100, Note_on_c, 4, 67, 0
1, 14114, Note_on_c, 2, 62, 72
1, 14121, Note_on_c, 2, 70, 0
1, 14176, Control_c, 3, 1, 0
1, 14198, Note_on_c, 4, 62, 83
1, 14199, Note_on_c, 2, 67, 0
1, 14200, Note_on_c, 3, 74, 0
1, 14208, Note_on_c, 2, 70, 90
1, 14302, Note_on_c, 2, 67, 84
1, 14305, Note_on_c, 2, 62, 0
1, 14388, Note_on_c, 4, 67, 81
1, 14399, Note_on_c, 2, 62, 92
1, 14418, Note_on_c, 2, 67, 0
1, 14493, Note_on_c, 2, 70, 0
1, 14497, Note_on_c, 3, 74, 91
1, 14498, Note_on_c, 2, 67, 84
1, 14572, Note_on_c, 3, 74, 0
1, 14589, Note_on_c, 2, 50, 0
1, 14592, Note_on_c, 2, 50, 102
1, 14614, Pitch_bend_c, 3, 2432
1, 14616, Note_on_c, 3, 82, 109
1, 14624, Pitch_bend_c, 3, 4480
1, 14640, Pitch_bend_c, 3, 7040
1, 14648, Note_on_c, 2, 62, 0
1, 14656, Pitch_bend_c, 3, 8192
1, 14661, Note_on_c, 2, 67, 0
1, 14686, Note_on_c, 2, 70, 88
1, 14704, Note_on_c, 3, 82, 0
1, 14720, Note_on_c, 4, 58, 0
1, 14739, Note_on_c, 3, 82, 107
1, 14783, Note_on_c, 2, 67, 92
1, 14788, Note_on_c, 4, 58, 81
1, 14823, Note_on_c, 3, 82, 0
1, 14854, Note_on_c, 3, 82, 99
1, 14878, Note_on_c, 2, 62, 75
1, 14905, Note_on_c, 2, 70, 0
1, 14907, Note_on_c, 4, 62, 0
1, 14961, Note_on_c, 3, 82, 0
1, 14969, Note_on_c, 4, 62, 82
1, 14976, Note_on_c, 2, 67, 0
1, 14978, Note_on_c, 2, 70, 102
1, 14984, Pitch_bend_c, 3, 3840
1, 14985, Note_on_c, 3, 82, 103
1, 15008, Pitch_bend_c, 3, 5632
1, 15024, Pitch_bend_c, 3, 8192
1, 15050, Note_on_c, 4, 67, 0
1, 15066, Note_on_c, 3, 82, 0
1, 15070, Note_on_c, 2, 67, 83
1, 15076, Note_on_c, 2, 62, 0
1, 15090, Note_on_c, 3, 81, 97
1, 15159, Note_on_c, 4, 67, 80
1, 15168, Note_on_c, 2, 67, 0
1, 15170, Note_on_c, 2, 62, 93
1, 15193, Note_on_c, 3, 81, 0
1, 15218, Note_on_c, 3, 79, 102
1, 15262, Note_on_c, 2, 67, 80
1, 15264, Note_on_c, 2, 70, 0
1, 15325, Note_on_c, 3, 79, 0
1, 15357, Note_on_c, 2, 50, 0
1, 15360, Note_on_c, 2, 50, 88
1, 15362, Note_on_c, 3, 74, 100
1, 15402, Note_on_c, 2, 62, 0
1, 15408, Control_c, 3, 1, 61
1, 15440, Note_on_c, 2, 67, 0
1, 15457, Note_on_c, 2, 70, 88
1, 15492, Note_on_c, 4, 58, 0
1, 15552, Control_c, 3, 1, 0
1, 15552, Note_on_c, 2, 67, 88
1, 15553, Note_on_c, 4, 58, 81
1, 15555, Note_on_c, 2, 70, 0
1, 15578, Note_on_c, 3, 74, 0
1, 15649, Note_on_c, 2, 62, 78
1, 15680, Note_on_c, 2, 67, 0
1, 15687, Note_on_c, 4, 62, 0
1, 15739, Note_on_c, 4, 62, 82
1, 15742, Pitch_bend_c, 3, 3584
1, 15743, Note_on_c, 3, 74, 104
1, 15745, Note_on_c, 2, 70, 86
1, 15760, Pitch_bend_c, 3, 5248
1, 15776, Pitch_bend_c, 3, 6400
1, 15792, Pitch_bend_c, 3, 7552
1, 15808, Pitch_bend_c, 3, 8192
1, 15831, Note_on_c, 4, 67, 0
1, 15839, Note_on_c, 2, 62, 0
1, 15840, Note_on_c, 2, 67, 86
1, 15850, Note_on_c, 3, 74, 0
1, 15873, Note_on_c, 3, 72, 107
1, 15920, Note_on_c, 4, 67, 80
1, 15938, Note_on_c, 2, 62, 90
1, 15949, Note_on_c, 2, 67, 0
1, 15983, Note_on_c, 3, 72, 0
1, 15992, Note_on_c, 2, 70, 0
1, 16002, Note_on_c, 3, 70, 97
1, 16033, Note_on_c, 2, 67, 86
1, 16096, Note_on_c, 3, 70, 0
1, 16119, Note_on_c, 3, 73, 107
1, 16121, Note_on_c, 10, 72, 37
1, 16122, Note_on_c, 10, 72, 0
1, 16125, Note_on_c, 2, 50, 0
1, 16128, Note_on_c, 2, 45, 105
1, 16192, Control_c, 3, 1, 46
1, 16219, Note_on_c, 2, 67, 0
1, 16222, Note_on_c, 2, 73, 88
1, 16223, Note_on_c, 2, 62, 0
1, 16228, Note_on_c, 4, 58, 0
1, 16239, Note_on_c, 4, 62, 0
1, 16244, Note_on_c, 4, 67, 0
1, 16319, Note_on_c, 2, 69, 92
1, 16324, Note_on_c, 4, 57, 81
1, 16414, Note_on_c, 2, 64, 75
1, 16441, Note_on_c, 2, 73, 0
1, 16505, Note_on_c, 4, 61, 82
1, 16512, Note_on_c, 2, 69, 0
1, 16514, Note_on_c, 2, 73, 102
1, 16544, Note_on_c, 3, 73, 0
1, 16544, Control_c, 3, 1, 0
1, 16606, Note_on_c, 2, 69, 83
1, 16612, Note_on_c, 2, 64, 0
1, 16695, Note_on_c, 4, 64, 80
1, 16704, Note_on_c, 2, 69, 0
1, 16706, Note_on_c, 2, 64, 93
1, 16798, Note_on_c, 2, 69, 80
1, 16800, Note_on_c, 2, 73, 0
1, 16893, Note_on_c, 2, 45, 0
1, 16896, Note_on_c, 2, 45, 105
1, 16896, Tempo, 652173
1, 16938, Note_on_c, 2, 64, 0
1, 16976, Note_on_c, 2, 69, 0
1, 16993, Note_on_c, 2, 73, 88
1, 17028, Note_on_c, 4, 57, 0
1, 17088, Note_on_c, 2, 69, 88
1, 17089, Note_on_c, 4, 57, 81
1, 17091, Note_on_c, 2, 73, 0
1, 17185, Note_on_c, 2, 64, 78
1, 17216, Note_on_c, 2, 69, 0
1, 17223, Note_on_c, 4, 61, 0
1, 17275, Note_on_c, 4, 61, 82
1, 17279, Note_on_c, 3, 73, 104
1, 17280, Tempo, 689655
1, 17281, Note_on_c, 2, 73, 86
1, 17367, Note_on_c, 4, 64, 0
1, 17375, Note_on_c, 2, 64, 0
1, 17376, Note_on_c, 2, 69, 86
1, 17386, Note_on_c, 3, 73, 0
1, 17409, Note_on_c, 3, 71, 107
1, 17456, Note_on_c, 4, 64, 80
1, 17474, Note_on_c, 2, 64, 90
1, 17485, Note_on_c, 2, 69, 0
1, 17519, Note_on_c, 3, 71, 0
1, 17528, Note_on_c, 2, 73, 0
1, 17538, Note_on_c, 3, 69, 97
1, 17569, Note_on_c, 2, 69, 86
1, 17632, Note_on_c, 3, 69, 0
1, 17645, Note_on_c, 10, 72, 38
1, 17646, Note_on_c, 10, 72, 0
1, 17654, Pitch_bend_c, 3, 4224
1, 17655, Note_on_c, 3, 74, 107
1, 17661, Note_on_c, 2, 45, 0
1, 17664, Note_on_c, 2, 50, 102
1, 17664, Tempo, 631578
1, 17680, Pitch_bend_c, 3, 5632
1, 17696, Pitch_bend_c, 3, 6656
1, 17712, Pitch_bend_c, 3, 8192
1, 17755, Note_on_c, 2, 69, 0
1, 17758, Note_on_c, 2, 66, 88
1, 17759, Note_on_c, 2, 64, 0
1, 17764, Note_on_c, 4, 57, 0
1, 17775, Note_on_c, 4, 61, 0
1, 17780, Note_on_c, 4, 64, 0
1, 17840, Control_c, 3, 1, 44
1, 17855, Note_on_c, 2, 62, 92
1, 17860, Note_on_c, 4, 57, 81
1, 17950, Note_on_c, 2, 57, 75
1, 17977, Note_on_c, 2, 66, 0
1, 18041, Note_on_c, 4, 62, 82
1, 18048, Note_on_c, 2, 62, 0
1, 18050, Note_on_c, 2, 66, 102
1, 18080, Note_on_c, 3, 74, 0
1, 18112, Control_c, 3, 1, 0
1, 18142, Note_on_c, 2, 62, 83
1, 18148, Note_on_c, 2, 57, 0
1, 18231, Note_on_c, 4, 66, 80
1, 18240, Note_on_c, 2, 62, 0
1, 18242, Note_on_c, 2, 57, 93
1, 18334, Note_on_c, 2, 62, 80
1, 18336, Note_on_c, 2, 66, 0
1, 18429, Note_on_c, 2, 50, 0
1, 18432, Note_on_c, 2, 50, 88
1, 18474, Note_on_c, 2, 57, 0
1, 18512, Note_on_c, 2, 62, 0
1, 18529, Note_on_c, 2, 66, 88
1, 18564, Note_on_c, 4, 57, 0
1, 18624, Note_on_c, 2, 62, 88
1, 18624, Tempo, 666666
1, 18625, Note_on_c, 4, 57, 81
1, 18627, Note_on_c, 2, 66, 0
1, 18721, Note_on_c, 2, 57, 78
1, 18752, Note_on_c, 2, 62, 0
1, 18759, Note_on_c, 4, 62, 0
1, 18811, Note_on_c, 4, 62, 82
1, 18817, Note_on_c, 2, 66, 86
1, 18903, Note_on_c, 4, 66, 0
1, 18909, Note_on_c, 2, 66, 0
1, 18911, Note_on_c, 2, 57, 0
1, 18912, Note_on_c, 2, 67, 86
1, 18992, Note_on_c, 4, 66, 80
1, 19009, Note_on_c, 2, 57, 90
1, 19016, Note_on_c, 2, 66, 90
1, 19021, Note_on_c, 2, 67, 0
1, 19152, Tempo, 2400000
1, 19189, Note_on_c, 10, 72, 25
1, 19190, Note_on_c, 10, 72, 0
1, 19197, Note_on_c, 2, 50, 0
1, 19200, Control_c, 5, 7, 122
1, 19200, Control_c, 4, 7, 98
1, 19200, Note_on_c, 2, 50, 90
1, 19200, Tempo, 606060
1, 19203, Pitch_bend_c, 5, 2176
1, 19204, Note_on_c, 5, 55, 104
1, 19216, Pitch_bend_c, 5, 3328
1, 19232, Pitch_bend_c, 5, 5248
1, 19248, Pitch_bend_c, 5, 6400
1, 19264, Pitch_bend_c, 5, 8192
1, 19294, Note_on_c, 2, 57, 0
1, 19295, Note_on_c, 4, 62, 0
1, 19296, Note_on_c, 4, 62, 85
1, 19296, Note_on_c, 2, 70, 90
1, 19300, Note_on_c, 4, 57, 0
1, 19301, Note_on_c, 2, 66, 0
1, 19311, Note_on_c, 4, 62, 0
1, 19316, Note_on_c, 4, 66, 0
1, 19344, Control_c, 5, 1, 61
1, 19391, Note_on_c, 4, 67, 66
1, 19394, Note_on_c, 2, 67, 84
1, 19422, Note_on_c, 2, 70, 0
1, 19424, Control_c, 5, 1, 125
1, 19472, Control_c, 5, 1, 0
1, 19485, Note_on_c, 5, 57, 104
1, 19487, Note_on_c, 2, 62, 86
1, 19489, Note_on_c, 5, 55, 0
1, 19489, Note_on_c, 4, 70, 76
1, 19524, Note_on_c, 5, 57, 0
1, 19533, Note_on_c, 5, 58, 107
1, 19561, Note_on_c, 2, 67, 0
1, 19565, Note_on_c, 5, 58, 0
1, 19581, Note_on_c, 2, 50, 0
1, 19584, Note_on_c, 2, 53, 94
1, 19584, Note_on_c, 4, 55, 87
1, 19587, Note_on_c, 4, 67, 0
1, 19589, Note_on_c, 5, 60, 96
1, 19596, Note_on_c, 4, 70, 0
1, 19626, Note_on_c, 2, 62, 0
1, 19682, Note_on_c, 4, 62, 82
1, 19682, Note_on_c, 2, 70, 102
1, 19696, Control_c, 5, 1, 39
1, 19760, Control_c, 5, 1, 105
1, 19775, Note_on_c, 2, 67, 90
1, 19778, Note_on_c, 4, 67, 63
1, 19792, Control_c, 5, 1, 0
1, 19801, Note_on_c, 2, 70, 0
1, 19851, Note_on_c, 5, 58, 107
1, 19863, Note_on_c, 5, 60, 0
1, 19869, Note_on_c, 2, 62, 80
1, 19870, Note_on_c, 4, 70, 68
1, 19896, Note_on_c, 5, 58, 0
1, 19897, Note_on_c, 5, 57, 99
1, 19914, Note_on_c, 4, 55, 0
1, 19939, Note_on_c, 2, 67, 0
1, 19957, Note_on_c, 5, 57, 0
1, 19965, Note_on_c, 2, 53, 0
1, 19966, Note_on_c, 4, 67, 0
1, 19967, Note_on_c, 4, 70, 0
1, 19968, Note_on_c, 2, 51, 90
1, 19968, Note_on_c, 4, 55, 78
1, 19970, Note_on_c, 2, 62, 0
1, 19973, Note_on_c, 5, 58, 110
1, 19974, Note_on_c, 4, 62, 0
1, 20063, Note_on_c, 2, 70, 90
1, 20066, Note_on_c, 4, 62, 70
1, 20080, Control_c, 5, 1, 127
1, 20158, Note_on_c, 4, 67, 53
1, 20160, Control_c, 5, 1, 0
1, 20162, Note_on_c, 2, 67, 94
1, 20199, Note_on_c, 2, 70, 0
1, 20239, Note_on_c, 5, 57, 104
1, 20244, Note_on_c, 5, 58, 0
1, 20256, Note_on_c, 4, 70, 72
1, 20257, Note_on_c, 2, 62, 86
1, 20258, Note_on_c, 2, 67, 0
1, 20283, Note_on_c, 5, 57, 0
1, 20287, Note_on_c, 5, 55, 92
1, 20340, Note_on_c, 5, 55, 0
1, 20352, Pitch_bend_c, 5, 4096
1, 20353, Note_on_c, 4, 61, 87
1, 20354, Note_on_c, 2, 73, 91
1, 20358, Note_on_c, 4, 70, 0
1, 20363, Note_on_c, 2, 62, 0
1, 20365, Note_on_c, 4, 67, 0
1, 20371, Note_on_c, 5, 58, 102
1, 20371, Note_on_c, 4, 62, 0
1, 20380, Note_on_c, 4, 55, 0
1, 20432, Pitch_bend_c, 5, 5888
1, 20448, Pitch_bend_c, 5, 8192
1, 20448, Note_on_c, 2, 72, 80
1, 20450, Note_on_c, 4, 60, 79
1, 20458, Note_on_c, 4, 61, 0
1, 20464, Control_c, 5, 1, 94
1, 20470, Note_on_c, 2, 73, 0
1, 20496, Control_c, 5, 1, 0
1, 20531, Note_on_c, 5, 57, 98
1, 20543, Note_on_c, 2, 70, 80
1, 20545, Note_on_c, 5, 58, 0
1, 20548, Note_on_c, 4, 58, 66
1, 20583, Note_on_c, 2, 72, 0
1, 20603, Note_on_c, 4, 60, 0
1, 20634, Note_on_c, 2, 70, 0
1, 20638, Note_on_c, 2, 67, 69
1, 20640, Control_c, 5, 1, 83
1, 20646, Note_on_c, 4, 55, 77
1, 20652, Note_on_c, 4, 58, 0
1, 20733, Note_on_c, 2, 51, 0
1, 20736, Note_on_c, 2, 51, 92
1, 20742, Note_on_c, 2, 58, 73
1, 20745, Note_on_c, 2, 67, 0
1, 20785, Note_on_c, 4, 55, 0
1, 20927, Note_on_c, 4, 67, 86
1, 20930, Note_on_c, 2, 70, 86
1, 20943, Note_on_c, 5, 57, 0
1, 20960, Control_c, 5, 1, 0
1, 21025, Note_on_c, 5, 55, 105
1, 21025, Note_on_c, 2, 67, 72
1, 21029, Note_on_c, 4, 62, 72
1, 21051, Note_on_c, 4, 67, 0
1, 21054, Note_on_c, 2, 70, 0
1, 21105, Note_on_c, 5, 55, 0
1, 21110, Note_on_c, 2, 58, 0
1, 21119, Note_on_c, 2, 62, 75
1, 21125, Note_on_c, 4, 58, 75
1, 21132, Note_on_c, 5, 57, 113
1, 21155, Note_on_c, 2, 67, 0
1, 21159, Note_on_c, 4, 62, 0
1, 21205, Note_on_c, 5, 57, 0
1, 21225, Note_on_c, 5, 58, 106
1, 21304, Note_on_c, 5, 58, 0
1, 21311, Note_on_c, 2, 58, 72
1, 21314, Note_on_c, 4, 55, 72
1, 21323, Note_on_c, 2, 62, 0
1, 21329, Note_on_c, 4, 58, 0
1, 21333, Note_on_c, 5, 60, 113
1, 21405, Note_on_c, 5, 58, 101
1, 21413, Note_on_c, 5, 60, 0
1, 21476, Note_on_c, 5, 58, 0
1, 21482, Note_on_c, 10, 72, 46
1, 21483, Note_on_c, 10, 72, 0
1, 21501, Note_on_c, 2, 51, 0
1, 21504, Note_on_c, 2, 50, 93
1, 21510, Pitch_bend_c, 5, 256
1, 21511, Note_on_c, 5, 62, 116
1, 21513, Note_on_c, 2, 58, 0
1, 21515, Note_on_c, 2, 60, 74
1, 21516, Note_on_c, 4, 55, 0
1, 21694, Note_on_c, 4, 60, 79
1, 21697, Note_on_c, 2, 69, 78
1, 21728, Pitch_bend_c, 5, 1152
1, 21744, Pitch_bend_c, 5, 1536
1, 21760, Pitch_bend_c, 5, 1920
1, 21776, Pitch_bend_c, 5, 2048
1, 21790, Note_on_c, 2, 66, 80
1, 21792, Pitch_bend_c, 5, 2176
1, 21793, Note_on_c, 4, 57, 81
1, 21808, Pitch_bend_c, 5, 2560
1, 21813, Note_on_c, 2, 69, 0
1, 21824, Pitch_bend_c, 5, 2944
1, 21840, Pitch_bend_c, 5, 3328
1, 21856, Pitch_bend_c, 5, 3456
1, 21858, Note_on_c, 4, 60, 0
1, 21872, Pitch_bend_c, 5, 3840
1, 21880, Note_on_c, 2, 60, 0
1, 21887, Note_on_c, 4, 66, 79
1, 21888, Pitch_bend_c, 5, 3968
1, 21890, Note_on_c, 2, 60, 78
1, 21904, Pitch_bend_c, 5, 4480
1, 21920, Pitch_bend_c, 5, 4864
1, 21925, Note_on_c, 2, 66, 0
1, 21936, Pitch_bend_c, 5, 5376
1, 21952, Pitch_bend_c, 5, 5760
1, 21968, Pitch_bend_c, 5, 6272
1, 21984, Pitch_bend_c, 5, 6656
1, 22000, Pitch_bend_c, 5, 7168
1, 22016, Pitch_bend_c, 5, 7680
1, 22032, Pitch_bend_c, 5, 7808
1, 22048, Control_c, 5, 1, 82
1, 22072, Note_on_c, 4, 57, 0
1, 22079, Note_on_c, 2, 57, 59
1, 22090, Note_on_c, 2, 60, 0
1, 22096, Control_c, 5, 1, 127
1, 22128, Tempo, 1363636
1, 22253, Note_on_c, 2, 57, 0
1, 22254, Note_on_c, 10, 72, 39
1, 22255, Note_on_c, 10, 72, 0
1, 22256, Control_c, 5, 1, 0
1, 22268, Note_on_c, 4, 66, 0
1, 22269, Note_on_c, 2, 50, 0
1, 22272, Note_on_c, 2, 50, 90
1, 22272, Note_on_c, 4, 55, 82
1, 22272, Tempo, 606060
1, 22275, Pitch_bend_c, 5, 2176
1, 22276, Note_on_c, 5, 67, 104
1, 22288, Pitch_bend_c, 5, 3328
1, 22298, Note_on_c, 5, 62, 0
1, 22304, Pitch_bend_c, 5, 5248
1, 22320, Pitch_bend_c, 5, 6400
1, 22336, Pitch_bend_c, 5, 8192
1, 22368, Note_on_c, 4, 62, 85
1, 22368, Note_on_c, 2, 70, 90
1, 22416, Control_c, 5, 1, 61
1, 22463, Note_on_c, 4, 67, 66
1, 22466, Note_on_c, 2, 67, 94
1, 22494, Note_on_c, 2, 70, 0
1, 22496, Control_c, 5, 1, 125
1, 22544, Control_c, 5, 1, 0
1, 22557, Note_on_c, 5, 69, 104
1, 22559, Note_on_c, 2, 62, 86
1, 22561, Note_on_c, 5, 67, 0
1, 22561, Note_on_c, 4, 70, 76
1, 22596, Note_on_c, 5, 69, 0
1, 22605, Note_on_c, 5, 70, 107
1, 22617, Note_on_c, 4, 55, 0
1, 22633, Note_on_c, 2, 67, 0
1, 22637, Note_on_c, 5, 70, 0
1, 22651, Note_on_c, 4, 62, 0
1, 22653, Note_on_c, 2, 50, 0
1, 22656, Note_on_c, 2, 53, 94
1, 22656, Note_on_c, 4, 55, 87
1, 22659, Note_on_c, 4, 67, 0
1, 22661, Note_on_c, 5, 72, 96
1, 22668, Note_on_c, 4, 70, 0
1, 22698, Note_on_c, 2, 62, 0
1, 22754, Note_on_c, 4, 62, 82
1, 22754, Note_on_c, 2, 70, 102
1, 22768, Control_c, 5, 1, 39
1, 22832, Control_c, 5, 1, 105
1, 22847, Note_on_c, 2, 67, 94
1, 22850, Note_on_c, 4, 67, 63
1, 22864, Control_c, 5, 1, 0
1, 22873, Note_on_c, 2, 70, 0
1, 22923, Note_on_c, 5, 70, 107
1, 22935, Note_on_c, 5, 72, 0
1, 22941, Note_on_c, 2, 62, 80
1, 22942, Note_on_c, 4, 70, 68
1, 22968, Note_on_c, 5, 70, 0
1, 22969, Note_on_c, 5, 69, 99
1, 22986, Note_on_c, 4, 55, 0
1, 23011, Note_on_c, 2, 67, 0
1, 23029, Note_on_c, 5, 69, 0
1, 23037, Note_on_c, 2, 53, 0
1, 23038, Note_on_c, 4, 67, 0
1, 23039, Note_on_c, 4, 70, 0
1, 23040, Note_on_c, 2, 51, 90
1, 23040, Note_on_c, 4, 55, 78
1, 23042, Note_on_c, 2, 62, 0
1, 23045, Note_on_c, 5, 70, 110
1, 23046, Note_on_c, 4, 62, 0
1, 23135, Note_on_c, 2, 70, 90
1, 23138, Note_on_c, 4, 62, 70
1, 23152, Control_c, 5, 1, 127
1, 23230, Note_on_c, 4, 67, 53
1, 23232, Control_c, 5, 1, 0
1, 23234, Note_on_c, 2, 67, 84
1, 23268, Note_on_c, 5, 70, 0
1, 23271, Note_on_c, 2, 70, 0
1, 23311, Note_on_c, 5, 67, 104
1, 23328, Note_on_c, 4, 70, 72
1, 23329, Note_on_c, 2, 62, 86
1, 23330, Note_on_c, 2, 67, 0
1, 23355, Note_on_c, 5, 67, 0
1, 23359, Note_on_c, 5, 70, 92
1, 23412, Note_on_c, 5, 70, 0
1, 23424, Pitch_bend_c, 5, 4096
1, 23425, Note_on_c, 4, 61, 87
1, 23426, Note_on_c, 2, 73, 91
1, 23430, Note_on_c, 4, 70, 0
1, 23435, Note_on_c, 2, 62, 0
1, 23437, Note_on_c, 4, 67, 0
1, 23443, Note_on_c, 4, 62, 0
1, 23443, Note_on_c, 5, 77, 102
1, 23452, Note_on_c, 4, 55, 0
1, 23504, Pitch_bend_c, 5, 5888
1, 23520, Pitch_bend_c, 5, 8192
1, 23520, Note_on_c, 2, 72, 80
1, 23522, Note_on_c, 4, 60, 79
1, 23530, Note_on_c, 4, 61, 0
1, 23536, Control_c, 5, 1, 94
1, 23542, Note_on_c, 2, 73, 0
1, 23568, Control_c, 5, 1, 0
1, 23603, Note_on_c, 5, 79, 98
1, 23615, Note_on_c, 2, 70, 80
1, 23617, Note_on_c, 5, 77, 0
1, 23620, Note_on_c, 4, 58, 66
1, 23655, Note_on_c, 2, 72, 0
1, 23675, Note_on_c, 4, 60, 0
1, 23706, Note_on_c, 2, 70, 0
1, 23710, Note_on_c, 2, 67, 69
1, 23712, Control_c, 5, 1, 83
1, 23718, Note_on_c, 4, 55, 77
1, 23724, Note_on_c, 4, 58, 0
1, 23805, Note_on_c, 2, 51, 0
1, 23808, Note_on_c, 2, 51, 92
1, 23814, Note_on_c, 2, 58, 73
1, 23857, Note_on_c, 4, 55, 0
1, 23865, Note_on_c, 2, 67, 0
1, 23999, Note_on_c, 4, 67, 86
1, 24002, Note_on_c, 2, 70, 86
1, 24032, Control_c, 5, 1, 0
1, 24097, Note_on_c, 2, 67, 72
1, 24101, Note_on_c, 4, 62, 72
1, 24123, Note_on_c, 4, 67, 0
1, 24126, Note_on_c, 2, 70, 0
1, 24186, Note_on_c, 2, 58, 0
1, 24191, Note_on_c, 2, 62, 75
1, 24197, Note_on_c, 4, 58, 75
1, 24207, Note_on_c, 5, 79, 0
1, 24227, Note_on_c, 2, 67, 0
1, 24231, Note_on_c, 4, 62, 0
1, 24297, Note_on_c, 5, 74, 106
1, 24352, Pitch_bend_c, 5, 6528
1, 24368, Pitch_bend_c, 5, 3584
1, 24383, Note_on_c, 2, 58, 72
1, 24384, Pitch_bend_c, 5, 0
1, 24386, Note_on_c, 4, 55, 72
1, 24395, Note_on_c, 2, 62, 0
1, 24401, Note_on_c, 4, 58, 0
1, 24431, Note_on_c, 5, 74, 0
1, 24447, Pitch_bend_c, 5, 8192
1, 24448, Note_on_c, 5, 70, 100
1, 24477, Note_on_c, 5, 67, 101
1, 24481, Note_on_c, 5, 70, 0
1, 24548, Note_on_c, 5, 67, 0
1, 24554, Note_on_c, 10, 72, 46
1, 24555, Note_on_c, 10, 72, 0
1, 24573, Note_on_c, 2, 51, 0
1, 24576, Pitch_bend_c, 5, 0
1, 24576, Note_on_c, 2, 50, 93
1, 24583, Note_on_c, 5, 69, 116
1, 24585, Note_on_c, 2, 58, 0
1, 24587, Note_on_c, 2, 60, 74
1, 24588, Note_on_c, 4, 55, 0
1, 24588, Note_on_c, 5, 74, 116
1, 24766, Note_on_c, 4, 60, 79
1, 24769, Note_on_c, 2, 69, 78
1, 24800, Pitch_bend_c, 5, 1152
1, 24816, Pitch_bend_c, 5, 1536
1, 24832, Pitch_bend_c, 5, 1920
1, 24848, Pitch_bend_c, 5, 2048
1, 24862, Note_on_c, 2, 66, 80
1, 24864, Pitch_bend_c, 5, 2176
1, 24865, Note_on_c, 4, 57, 81
1, 24880, Pitch_bend_c, 5, 2560
1, 24896, Pitch_bend_c, 5, 2944
1, 24912, Pitch_bend_c, 5, 3328
1, 24928, Pitch_bend_c, 5, 3456
1, 24930, Note_on_c, 4, 60, 0
1, 24933, Note_on_c, 2, 69, 0
1, 24944, Pitch_bend_c, 5, 3840
1, 24949, Note_on_c, 2, 60, 0
1, 24959, Note_on_c, 4, 66, 79
1, 24960, Pitch_bend_c, 5, 3968
1, 24962, Note_on_c, 2, 60, 78
1, 24976, Pitch_bend_c, 5, 4480
1, 24992, Pitch_bend_c, 5, 4864
1, 24997, Note_on_c, 2, 66, 0
1, 25008, Pitch_bend_c, 5, 5376
1, 25024, Pitch_bend_c, 5, 5760
1, 25040, Pitch_bend_c, 5, 6272
1, 25056, Pitch_bend_c, 5, 6656
1, 25072, Pitch_bend_c, 5, 7168
1, 25088, Pitch_bend_c, 5, 7680
1, 25104, Pitch_bend_c, 5, 7808
1, 25120, Control_c, 5, 1, 82
1, 25144, Note_on_c, 4, 57, 0
1, 25151, Note_on_c, 2, 57, 59
1, 25152, Tempo, 2000000
1, 25162, Note_on_c, 2, 60, 0
1, 25168, Control_c, 5, 1, 127
1, 25280, Control_c, 5, 7, 111
1, 25292, Note_on_c, 4, 66, 0
1, 25296, Control_c, 5, 7, 104
1, 25310, Note_on_c, 5, 69, 0
1, 25312, Control_c, 5, 7, 101
1, 25324, Note_on_c, 5, 74, 0
1, 25325, Note_on_c, 2, 57, 0
1, 25326, Note_on_c, 10, 72, 39
1, 25327, Note_on_c, 10, 72, 0
1, 25328, Control_c, 5, 7, 92
1, 25328, Control_c, 5, 1, 0
1, 25328, Control_c, 4, 7, 113
1, 25341, Note_on_c, 2, 50, 0
1, 25344, Note_on_c, 1, 31, 104
1, 25344, Note_on_c, 9, 35, 108
1, 25344, Note_on_c, 9, 49, 64
1, 25344, Note_on_c, 2, 50, 105
1, 25344, Tempo, 606060
1, 25348, Note_on_c, 9, 35, 0
1, 25348, Note_on_c, 9, 49, 0
1, 25353, Pitch_bend_c, 3, 2432
1, 25355, Note_on_c, 3, 74, 105
1, 25376, Pitch_bend_c, 3, 3840
1, 25392, Pitch_bend_c, 3, 5248
1, 25408, Pitch_bend_c, 3, 6656
1, 25424, Pitch_bend_c, 3, 8192
1, 25439, Note_on_c, 2, 70, 76
1, 25456, Control_c, 3, 1, 68
1, 25532, Note_on_c, 4, 58, 78
1, 25536, Note_on_c, 9, 46, 46
1, 25536, Note_on_c, 2, 67, 86
1, 25540, Note_on_c, 9, 46, 0
1, 25632, Note_on_c, 2, 62, 86
1, 25664, Control_c, 3, 1, 0
1, 25677, Note_on_c, 2, 70, 0
1, 25728, Note_on_c, 9, 38, 94
1, 25728, Note_on_c, 9, 46, 49
1, 25728, Note_on_c, 2, 70, 98
1, 25730, Note_on_c, 4, 62, 82
1, 25732, Note_on_c, 9, 38, 0
1, 25732, Note_on_c, 9, 46, 0
1, 25736, Note_on_c, 2, 67, 0
1, 25742, Note_on_c, 3, 74, 0
1, 25822, Note_on_c, 2, 67, 80
1, 25831, Note_on_c, 2, 62, 0
1, 25910, Note_on_c, 4, 67, 78
1, 25920, Note_on_c, 9, 46, 46
1, 25920, Note_on_c, 2, 62, 90
1, 25924, Note_on_c, 9, 46, 0
1, 25941, Note_on_c, 2, 67, 0
1, 25968, Note_on_c, 1, 31, 0
1, 25982, Note_on_c, 3, 72, 93
1, 25997, Note_on_c, 2, 70, 0
1, 26015, Note_on_c, 2, 67, 77
1, 26016, Note_on_c, 1, 31, 100
1, 26016, Note_on_c, 9, 35, 87
1, 26020, Note_on_c, 9, 35, 0
1, 26033, Note_on_c, 3, 72, 0
1, 26059, Note_on_c, 3, 70, 70
1, 26084, Note_on_c, 1, 31, 0
1, 26109, Note_on_c, 2, 50, 0
1, 26112, Note_on_c, 1, 31, 104
1, 26112, Note_on_c, 9, 35, 105
1, 26112, Note_on_c, 9, 46, 47
1, 26112, Note_on_c, 2, 50, 105
1, 26116, Note_on_c, 9, 35, 0
1, 26116, Note_on_c, 9, 46, 0
1, 26116, Note_on_c, 3, 70, 0
1, 26148, Note_on_c, 2, 67, 0
1, 26151, Pitch_bend_c, 3, 2176
1, 26153, Note_on_c, 3, 74, 104
1, 26160, Pitch_bend_c, 3, 4480
1, 26169, Note_on_c, 2, 62, 0
1, 26176, Pitch_bend_c, 3, 6144
1, 26192, Pitch_bend_c, 3, 7552
1, 26208, Pitch_bend_c, 3, 8192
1, 26208, Note_on_c, 2, 70, 92
1, 26240, Control_c, 3, 1, 52
1, 26250, Note_on_c, 4, 58, 0
1, 26304, Note_on_c, 9, 46, 49
1, 26306, Note_on_c, 2, 67, 80
1, 26307, Note_on_c, 4, 58, 86
1, 26308, Note_on_c, 9, 46, 0
1, 26385, Note_on_c, 4, 62, 0
1, 26388, Note_on_c, 4, 67, 0
1, 26402, Note_on_c, 2, 62, 72
1, 26409, Note_on_c, 2, 70, 0
1, 26464, Control_c, 3, 1, 0
1, 26486, Note_on_c, 4, 62, 83
1, 26487, Note_on_c, 2, 67, 0
1, 26488, Note_on_c, 3, 74, 0
1, 26496, Note_on_c, 9, 38, 95
1, 26496, Note_on_c, 9, 46, 48
1, 26496, Note_on_c, 2, 70, 90
1, 26500, Note_on_c, 9, 38, 0
1, 26500, Note_on_c, 9, 46, 0
1, 26590, Note_on_c, 2, 67, 84
1, 26593, Note_on_c, 2, 62, 0
1, 26676, Note_on_c, 4, 67, 81
1, 26687, Note_on_c, 2, 62, 92
1, 26688, Note_on_c, 9, 46, 49
1, 26692, Note_on_c, 9, 46, 0
1, 26706, Note_on_c, 2, 67, 0
1, 26755, Note_on_c, 1, 31, 0
1, 26781, Note_on_c, 2, 70, 0
1, 26784, Note_on_c, 1, 31, 103
1, 26784, Note_on_c, 9, 35, 88
1, 26785, Note_on_c, 3, 74, 91
1, 26786, Note_on_c, 2, 67, 84
1, 26788, Note_on_c, 9, 35, 0
1, 26844, Note_on_c, 1, 31, 0
1, 26860, Note_on_c, 3, 74, 0
1, 26877, Note_on_c, 2, 50, 0
1, 26880, Note_on_c, 1, 31, 104
1, 26880, Note_on_c, 9, 35, 106
1, 26880, Note_on_c, 9, 46, 48
1, 26880, Note_on_c, 2, 50, 102
1, 26884, Note_on_c, 9, 35, 0
1, 26884, Note_on_c, 9, 46, 0
1, 26902, Pitch_bend_c, 3, 2432
1, 26904, Note_on_c, 3, 82, 109
1, 26912, Pitch_bend_c, 3, 4480
1, 26928, Pitch_bend_c, 3, 7040
1, 26936, Note_on_c, 2, 62, 0
1, 26944, Pitch_bend_c, 3, 8192
1, 26949, Note_on_c, 2, 67, 0
1, 26974, Note_on_c, 2, 70, 88
1, 26992, Note_on_c, 3, 82, 0
1, 27008, Note_on_c, 4, 58, 0
1, 27027, Note_on_c, 3, 82, 107
1, 27071, Note_on_c, 2, 67, 92
1, 27072, Note_on_c, 9, 46, 47
1, 27076, Note_on_c, 9, 46, 0
1, 27076, Note_on_c, 4, 58, 81
1, 27111, Note_on_c, 3, 82, 0
1, 27142, Note_on_c, 3, 82, 99
1, 27166, Note_on_c, 2, 62, 75
1, 27193, Note_on_c, 2, 70, 0
1, 27195, Note_on_c, 4, 62, 0
1, 27249, Note_on_c, 3, 82, 0
1, 27257, Note_on_c, 4, 62, 82
1, 27264, Note_on_c, 9, 38, 95
1, 27264, Note_on_c, 9, 46, 48
1, 27264, Note_on_c, 2, 67, 0
1, 27266, Note_on_c, 2, 70, 102
1, 27268, Note_on_c, 9, 38, 0
1, 27268, Note_on_c, 9, 46, 0
1, 27272, Pitch_bend_c, 3, 3840
1, 27273, Note_on_c, 3, 82, 103
1, 27296, Pitch_bend_c, 3, 5632
1, 27312, Pitch_bend_c, 3, 8192
1, 27338, Note_on_c, 4, 67, 0
1, 27354, Note_on_c, 3, 82, 0
1, 27358, Note_on_c, 2, 67, 83
1, 27364, Note_on_c, 2, 62, 0
1, 27378, Note_on_c, 3, 81, 97
1, 27447, Note_on_c, 4, 67, 80
1, 27456, Note_on_c, 9, 46, 46
1, 27456, Note_on_c, 2, 67, 0
1, 27458, Note_on_c, 2, 62, 93
1, 27460, Note_on_c, 9, 46, 0
1, 27481, Note_on_c, 3, 81, 0
1, 27506, Note_on_c, 3, 79, 102
1, 27524, Note_on_c, 1, 31, 0
1, 27550, Note_on_c, 2, 67, 80
1, 27552, Note_on_c, 1, 31, 101
1, 27552, Note_on_c, 9, 35, 86
1, 27552, Note_on_c, 2, 70, 0
1, 27556, Note_on_c, 9, 35, 0
1, 27613, Note_on_c, 3, 79, 0
1, 27620, Note_on_c, 1, 31, 0
1, 27645, Note_on_c, 2, 50, 0
1, 27648, Note_on_c, 1, 31, 104
1, 27648, Note_on_c, 9, 35, 105
1, 27648, Note_on_c, 9, 46, 48
1, 27648, Note_on_c, 2, 50, 88
1, 27650, Note_on_c, 3, 74, 100
1, 27652, Note_on_c, 9, 35, 0
1, 27652, Note_on_c, 9, 46, 0
1, 27690, Note_on_c, 2, 62, 0
1, 27696, Control_c, 3, 1, 61
1, 27728, Note_on_c, 2, 67, 0
1, 27745, Note_on_c, 2, 70, 88
1, 27780, Note_on_c, 4, 58, 0
1, 27840, Control_c, 3, 1, 0
1, 27840, Note_on_c, 9, 46, 47
1, 27840, Note_on_c, 2, 67, 88
1, 27841, Note_on_c, 4, 58, 81
1, 27843, Note_on_c, 2, 70, 0
1, 27844, Note_on_c, 9, 46, 0
1, 27866, Note_on_c, 3, 74, 0
1, 27937, Note_on_c, 2, 62, 78
1, 27968, Note_on_c, 2, 67, 0
1, 27975, Note_on_c, 4, 62, 0
1, 28027, Note_on_c, 4, 62, 82
1, 28030, Pitch_bend_c, 3, 3584
1, 28031, Note_on_c, 3, 74, 104
1, 28032, Note_on_c, 9, 38, 94
1, 28032, Note_on_c, 9, 46, 48
1, 28033, Note_on_c, 2, 70, 86
1, 28036, Note_on_c, 9, 38, 0
1, 28036, Note_on_c, 9, 46, 0
1, 28048, Pitch_bend_c, 3, 5248
1, 28064, Pitch_bend_c, 3, 6400
1, 28080, Pitch_bend_c, 3, 7552
1, 28096, Pitch_bend_c, 3, 8192
1, 28119, Note_on_c, 4, 67, 0
1, 28127, Note_on_c, 2, 62, 0
1, 28128, Note_on_c, 2, 67, 86
1, 28138, Note_on_c, 3, 74, 0
1, 28161, Note_on_c, 3, 72, 107
1, 28208, Note_on_c, 4, 67, 80
1, 28224, Note_on_c, 9, 46, 49
1, 28226, Note_on_c, 2, 62, 90
1, 28228, Note_on_c, 9, 46, 0
1, 28237, Note_on_c, 2, 67, 0
1, 28271, Note_on_c, 3, 72, 0
1, 28280, Note_on_c, 2, 70, 0
1, 28290, Note_on_c, 3, 70, 97
1, 28321, Note_on_c, 2, 67, 86
1, 28360, Note_on_c, 1, 31, 0
1, 28384, Note_on_c, 3, 70, 0
1, 28407, Note_on_c, 3, 73, 107
1, 28409, Note_on_c, 10, 72, 37
1, 28410, Note_on_c, 10, 72, 0
1, 28413, Note_on_c, 2, 50, 0
1, 28416, Note_on_c, 1, 33, 104
1, 28416, Note_on_c, 9, 35, 106
1, 28416, Note_on_c, 2, 45, 105
1, 28416, Note_on_c, 9, 46, 49
1, 28420, Note_on_c, 9, 35, 0
1, 28420, Note_on_c, 9, 46, 0
1, 28480, Control_c, 3, 1, 46
1, 28507, Note_on_c, 2, 67, 0
1, 28510, Note_on_c, 2, 73, 88
1, 28511, Note_on_c, 2, 62, 0
1, 28516, Note_on_c, 4, 58, 0
1, 28527, Note_on_c, 4, 62, 0
1, 28532, Note_on_c, 4, 67, 0
1, 28607, Note_on_c, 2, 69, 92
1, 28608, Note_on_c, 9, 46, 46
1, 28612, Note_on_c, 9, 46, 0
1, 28612, Note_on_c, 4, 57, 81
1, 28702, Note_on_c, 2, 64, 75
1, 28729, Note_on_c, 2, 73, 0
1, 28793, Note_on_c, 4, 61, 82
1, 28800, Note_on_c, 9, 38, 95
1, 28800, Note_on_c, 9, 46, 47
1, 28800, Note_on_c, 2, 69, 0
1, 28802, Note_on_c, 2, 73, 102
1, 28804, Note_on_c, 9, 38, 0
1, 28804, Note_on_c, 9, 46, 0
1, 28832, Note_on_c, 3, 73, 0
1, 28832, Control_c, 3, 1, 0
1, 28894, Note_on_c, 2, 69, 83
1, 28900, Note_on_c, 2, 64, 0
1, 28983, Note_on_c, 4, 64, 80
1, 28992, Note_on_c, 9, 46, 49
1, 28992, Note_on_c, 2, 69, 0
1, 28994, Note_on_c, 2, 64, 93
1, 28996, Note_on_c, 9, 46, 0
1, 29065, Note_on_c, 1, 33, 0
1, 29086, Note_on_c, 2, 69, 80
1, 29088, Note_on_c, 1, 33, 104
1, 29088, Note_on_c, 9, 35, 85
1, 29088, Note_on_c, 2, 73, 0
1, 29092, Note_on_c, 9, 35, 0
1, 29170, Note_on_c, 1, 33, 0
1, 29181, Note_on_c, 2, 45, 0
1, 29184, Note_on_c, 1, 33, 103
1, 29184, Note_on_c, 9, 35, 105
1, 29184, Note_on_c, 2, 45, 105
1, 29184, Note_on_c, 9, 46, 47
1, 29188, Note_on_c, 9, 35, 0
1, 29188, Note_on_c, 9, 46, 0
1, 29226, Note_on_c, 2, 64, 0
1, 29264, Note_on_c, 2, 69, 0
1, 29281, Note_on_c, 2, 73, 88
1, 29316, Note_on_c, 4, 57, 0
1, 29376, Note_on_c, 9, 46, 46
1, 29376, Note_on_c, 2, 69, 88
1, 29377, Note_on_c, 4, 57, 81
1, 29379, Note_on_c, 2, 73, 0
1, 29380, Note_on_c, 9, 46, 0
1, 29473, Note_on_c, 2, 64, 78
1, 29504, Note_on_c, 2, 69, 0
1, 29511, Note_on_c, 4, 61, 0
1, 29563, Note_on_c, 4, 61, 82
1, 29567, Note_on_c, 3, 73, 104
1, 29568, Note_on_c, 9, 38, 94
1, 29568, Note_on_c, 9, 46, 48
1, 29569, Note_on_c, 2, 73, 86
1, 29572, Note_on_c, 9, 38, 0
1, 29572, Note_on_c, 9, 46, 0
1, 29655, Note_on_c, 4, 64, 0
1, 29663, Note_on_c, 2, 64, 0
1, 29664, Note_on_c, 2, 69, 86
1, 29674, Note_on_c, 3, 73, 0
1, 29697, Note_on_c, 3, 71, 107
1, 29744, Note_on_c, 4, 64, 80
1, 29760, Note_on_c, 9, 46, 47
1, 29762, Note_on_c, 2, 64, 90
1, 29764, Note_on_c, 9, 46, 0
1, 29773, Note_on_c, 2, 69, 0
1, 29807, Note_on_c, 3, 71, 0
1, 29816, Note_on_c, 2, 73, 0
1, 29826, Note_on_c, 3, 69, 97
1, 29857, Note_on_c, 2, 69, 86
1, 29909, Note_on_c, 1, 33, 0
1, 29920, Note_on_c, 3, 69, 0
1, 29933, Note_on_c, 10, 72, 38
1, 29934, Note_on_c, 10, 72, 0
1, 29942, Pitch_bend_c, 3, 4224
1, 29943, Note_on_c, 3, 74, 107
1, 29949, Note_on_c, 2, 45, 0
1, 29952, Note_on_c, 9, 35, 104
1, 29952, Note_on_c, 1, 38, 104
1, 29952, Note_on_c, 9, 46, 49
1, 29952, Note_on_c, 2, 50, 102
1, 29956, Note_on_c, 9, 35, 0
1, 29956, Note_on_c, 9, 46, 0
1, 29968, Pitch_bend_c, 3, 5632
1, 29984, Pitch_bend_c, 3, 6656
1, 30000, Pitch_bend_c, 3, 8192
1, 30043, Note_on_c, 2, 69, 0
1, 30046, Note_on_c, 2, 66, 88
1, 30047, Note_on_c, 2, 64, 0
1, 30052, Note_on_c, 4, 57, 0
1, 30063, Note_on_c, 4, 61, 0
1, 30068, Note_on_c, 4, 64, 0
1, 30128, Control_c, 3, 1, 44
1, 30143, Note_on_c, 2, 62, 92
1, 30144, Note_on_c, 9, 46, 48
1, 30148, Note_on_c, 9, 46, 0
1, 30148, Note_on_c, 4, 57, 81
1, 30238, Note_on_c, 2, 57, 75
1, 30240, Note_on_c, 9, 38, 68
1, 30244, Note_on_c, 9, 38, 0
1, 30265, Note_on_c, 2, 66, 0
1, 30329, Note_on_c, 4, 62, 82
1, 30336, Note_on_c, 9, 38, 97
1, 30336, Note_on_c, 9, 46, 48
1, 30336, Note_on_c, 2, 62, 0
1, 30338, Note_on_c, 2, 66, 102
1, 30340, Note_on_c, 9, 38, 0
1, 30340, Note_on_c, 9, 46, 0
1, 30368, Note_on_c, 3, 74, 0
1, 30400, Control_c, 3, 1, 0
1, 30430, Note_on_c, 2, 62, 83
1, 30436, Note_on_c, 2, 57, 0
1, 30519, Note_on_c, 4, 66, 80
1, 30528, Note_on_c, 9, 38, 76
1, 30528, Note_on_c, 9, 46, 46
1, 30528, Note_on_c, 2, 62, 0
1, 30530, Note_on_c, 2, 57, 93
1, 30532, Note_on_c, 9, 38, 0
1, 30532, Note_on_c, 9, 46, 0
1, 30599, Note_on_c, 1, 38, 0
1, 30622, Note_on_c, 2, 62, 80
1, 30624, Note_on_c, 9, 35, 86
1, 30624, Note_on_c, 1, 38, 104
1, 30624, Note_on_c, 2, 66, 0
1, 30628, Note_on_c, 9, 35, 0
1, 30709, Note_on_c, 1, 38, 0
1, 30717, Note_on_c, 2, 50, 0
1, 30720, Note_on_c, 9, 35, 108
1, 30720, Note_on_c, 1, 38, 103
1, 30720, Note_on_c, 9, 38, 97
1, 30720, Note_on_c, 9, 46, 49
1, 30720, Note_on_c, 2, 50, 88
1, 30724, Note_on_c, 9, 35, 0
1, 30724, Note_on_c, 9, 38, 0
1, 30724, Note_on_c, 9, 46, 0
1, 30762, Note_on_c, 2, 57, 0
1, 30800, Note_on_c, 2, 62, 0
1, 30816, Note_on_c, 9, 35, 68
1, 30817, Note_on_c, 2, 66, 88
1, 30820, Note_on_c, 9, 35, 0
1, 30852, Note_on_c, 4, 57, 0
1, 30912, Note_on_c, 9, 46, 48
1, 30912, Note_on_c, 2, 62, 88
1, 30913, Note_on_c, 4, 57, 81
1, 30915, Note_on_c, 2, 66, 0
1, 30916, Note_on_c, 9, 46, 0
1, 31008, Note_on_c, 9, 35, 93
1, 31009, Note_on_c, 2, 57, 78
1, 31012, Note_on_c, 9, 35, 0
1, 31040, Note_on_c, 2, 62, 0
1, 31047, Note_on_c, 4, 62, 0
1, 31099, Note_on_c, 4, 62, 82
1, 31104, Note_on_c, 9, 46, 48
1, 31105, Note_on_c, 2, 66, 86
1, 31108, Note_on_c, 9, 46, 0
1, 31158, Note_on_c, 1, 38, 0
1, 31191, Note_on_c, 4, 66, 0
1, 31199, Note_on_c, 2, 57, 0
1, 31200, Note_on_c, 9, 35, 85
1, 31200, Note_on_c, 1, 38, 102
1, 31200, Note_on_c, 2, 62, 86
1, 31204, Note_on_c, 9, 35, 0
1, 31273, Note_on_c, 1, 38, 0
1, 31280, Note_on_c, 4, 66, 80
1, 31296, Note_on_c, 1, 33, 103
1, 31296, Note_on_c, 9, 35, 108
1, 31296, Note_on_c, 9, 38, 93
1, 31296, Note_on_c, 9, 46, 46
1, 31298, Note_on_c, 2, 57, 90
1, 31300, Note_on_c, 9, 35, 0
1, 31300, Note_on_c, 9, 38, 0
1, 31300, Note_on_c, 9, 46, 0
1, 31309, Note_on_c, 2, 62, 0
1, 31352, Note_on_c, 2, 66, 0
1, 31389, Note_on_c, 1, 33, 0
1, 31392, Note_on_c, 1, 33, 98
1, 31392, Note_on_c, 9, 35, 85
1, 31392, Note_on_c, 9, 38, 89
1, 31393, Note_on_c, 2, 62, 86
1, 31396, Note_on_c, 9, 35, 0
1, 31396, Note_on_c, 9, 38, 0
1, 31477, Note_on_c, 10, 72, 25
1, 31478, Note_on_c, 10, 72, 0
1, 31485, Note_on_c, 1, 33, 0
1, 31485, Note_on_c, 2, 50, 0
1, 31488, Note_on_c, 1, 31, 104
1, 31488, Note_on_c, 9, 35, 105
1, 31488, Note_on_c, 9, 49, 65
1, 31488, Note_on_c, 2, 50, 105
1, 31492, Note_on_c, 9, 35, 0
1, 31492, Note_on_c, 9, 49, 0
1, 31497, Pitch_bend_c, 3, 2432
1, 31499, Note_on_c, 3, 74, 105
1, 31520, Pitch_bend_c, 3, 3840
1, 31536, Pitch_bend_c, 3, 5248
1, 31552, Pitch_bend_c, 3, 6656
1, 31568, Pitch_bend_c, 3, 8192
1, 31579, Note_on_c, 2, 62, 0
1, 31583, Note_on_c, 2, 57, 0
1, 31583, Note_on_c, 2, 70, 76
1, 31588, Note_on_c, 4, 57, 0
1, 31599, Note_on_c, 4, 62, 0
1, 31600, Control_c, 3, 1, 68
1, 31604, Note_on_c, 4, 66, 0
1, 31676, Note_on_c, 4, 58, 78
1, 31680, Note_on_c, 9, 46, 49
1, 31680, Note_on_c, 2, 67, 86
1, 31684, Note_on_c, 9, 46, 0
1, 31776, Note_on_c, 2, 62, 86
1, 31808, Control_c, 3, 1, 0
1, 31821, Note_on_c, 2, 70, 0
1, 31872, Note_on_c, 9, 38, 95
1, 31872, Note_on_c, 9, 46, 46
1, 31872, Note_on_c, 2, 70, 98
1, 31874, Note_on_c, 4, 62, 82
1, 31876, Note_on_c, 9, 38, 0
1, 31876, Note_on_c, 9, 46, 0
1, 31880, Note_on_c, 2, 67, 0
1, 31886, Note_on_c, 3, 74, 0
1, 31966, Note_on_c, 2, 67, 80
1, 31975, Note_on_c, 2, 62, 0
1, 32054, Note_on_c, 4, 67, 78
1, 32064, Note_on_c, 9, 46, 49
1, 32064, Note_on_c, 2, 62, 90
1, 32068, Note_on_c, 9, 46, 0
1, 32085, Note_on_c, 2, 67, 0
1, 32112, Note_on_c, 1, 31, 0
1, 32126, Note_on_c, 3, 72, 93
1, 32141, Note_on_c, 2, 70, 0
1, 32159, Note_on_c, 2, 67, 77
1, 32160, Note_on_c, 1, 31, 100
1, 32160, Note_on_c, 9, 35, 87
1, 32164, Note_on_c, 9, 35, 0
1, 32177, Note_on_c, 3, 72, 0
1, 32203, Note_on_c, 3, 70, 70
1, 32228, Note_on_c, 1, 31, 0
1, 32253, Note_on_c, 2, 50, 0
1, 32256, Note_on_c, 1, 31, 104
1, 32256, Note_on_c, 9, 35, 104
1, 32256, Note_on_c, 9, 46, 46
1, 32256, Note_on_c, 2, 50, 105
1, 32260, Note_on_c, 9, 35, 0
1, 32260, Note_on_c, 9, 46, 0
1, 32260, Note_on_c, 3, 70, 0
1, 32292, Note_on_c, 2, 67, 0
1, 32295, Pitch_bend_c, 3, 2176
1, 32297, Note_on_c, 3, 74, 104
1, 32304, Pitch_bend_c, 3, 4480
1, 32313, Note_on_c, 2, 62, 0
1, 32320, Pitch_bend_c, 3, 6144
1, 32336, Pitch_bend_c, 3, 7552
1, 32352, Pitch_bend_c, 3, 8192
1, 32352, Note_on_c, 2, 70, 92
1, 32384, Control_c, 3, 1, 52
1, 32394, Note_on_c, 4, 58, 0
1, 32448, Note_on_c, 9, 46, 47
1, 32450, Note_on_c, 2, 67, 80
1, 32451, Note_on_c, 4, 58, 86
1, 32452, Note_on_c, 9, 46, 0
1, 32529, Note_on_c, 4, 62, 0
1, 32532, Note_on_c, 4, 67, 0
1, 32546, Note_on_c, 2, 62, 72
1, 32553, Note_on_c, 2, 70, 0
1, 32608, Control_c, 3, 1, 0
1, 32630, Note_on_c, 4, 62, 83
1, 32631, Note_on_c, 2, 67, 0
1, 32632, Note_on_c, 3, 74, 0
1, 32640, Note_on_c, 9, 38, 96
1, 32640, Note_on_c, 9, 46, 47
1, 32640, Note_on_c, 2, 70, 90
1, 32644, Note_on_c, 9, 38, 0
1, 32644, Note_on_c, 9, 46, 0
1, 32734, Note_on_c, 2, 67, 84
1, 32737, Note_on_c, 2, 62, 0
1, 32820, Note_on_c, 4, 67, 81
1, 32831, Note_on_c, 2, 62, 92
1, 32832, Note_on_c, 9, 46, 48
1, 32836, Note_on_c, 9, 46, 0
1, 32850, Note_on_c, 2, 67, 0
1, 32899, Note_on_c, 1, 31, 0
1, 32925, Note_on_c, 2, 70, 0
1, 32928, Note_on_c, 1, 31, 103
1, 32928, Note_on_c, 9, 35, 86
1, 32929, Note_on_c, 3, 74, 91
1, 32930, Note_on_c, 2, 67, 84
1, 32932, Note_on_c, 9, 35, 0
1, 32988, Note_on_c, 1, 31, 0
1, 33004, Note_on_c, 3, 74, 0
1, 33021, Note_on_c, 2, 50, 0
1, 33024, Note_on_c, 1, 31, 104
1, 33024, Note_on_c, 9, 35, 108
1, 33024, Note_on_c, 9, 46, 48
1, 33024, Note_on_c, 2, 50, 102
1, 33028, Note_on_c, 9, 35, 0
1, 33028, Note_on_c, 9, 46, 0
1, 33046, Pitch_bend_c, 3, 2432
1, 33048, Note_on_c, 3, 82, 109
1, 33056, Pitch_bend_c, 3, 4480
1, 33072, Pitch_bend_c, 3, 7040
1, 33080, Note_on_c, 2, 62, 0
1, 33088, Pitch_bend_c, 3, 8192
1, 33093, Note_on_c, 2, 67, 0
1, 33118, Note_on_c, 2, 70, 88
1, 33136, Note_on_c, 3, 82, 0
1, 33152, Note_on_c, 4, 58, 0
1, 33171, Note_on_c, 3, 82, 107
1, 33215, Note_on_c, 2, 67, 92
1, 33216, Note_on_c, 9, 46, 46
1, 33220, Note_on_c, 9, 46, 0
1, 33220, Note_on_c, 4, 58, 81
1, 33255, Note_on_c, 3, 82, 0
1, 33286, Note_on_c, 3, 82, 99
1, 33310, Note_on_c, 2, 62, 75
1, 33337, Note_on_c, 2, 70, 0
1, 33339, Note_on_c, 4, 62, 0
1, 33393, Note_on_c, 3, 82, 0
1, 33401, Note_on_c, 4, 62, 82
1, 33408, Note_on_c, 9, 38, 94
1, 33408, Note_on_c, 9, 46, 48
1, 33408, Note_on_c, 2, 67, 0
1, 33410, Note_on_c, 2, 70, 102
1, 33412, Note_on_c, 9, 38, 0
1, 33412, Note_on_c, 9, 46, 0
1, 33416, Pitch_bend_c, 3, 3840
1, 33417, Note_on_c, 3, 82, 103
1, 33440, Pitch_bend_c, 3, 5632
1, 33456, Pitch_bend_c, 3, 8192
1, 33482, Note_on_c, 4, 67, 0
1, 33498, Note_on_c, 3, 82, 0
1, 33502, Note_on_c, 2, 67, 83
1, 33508, Note_on_c, 2, 62, 0
1, 33522, Note_on_c, 3, 81, 97
1, 33591, Note_on_c, 4, 67, 80
1, 33600, Note_on_c, 9, 46, 47
1, 33600, Note_on_c, 2, 67, 0
1, 33602, Note_on_c, 2, 62, 93
1, 33604, Note_on_c, 9, 46, 0
1, 33625, Note_on_c, 3, 81, 0
1, 33650, Note_on_c, 3, 79, 102
1, 33668, Note_on_c, 1, 31, 0
1, 33694, Note_on_c, 2, 67, 80
1, 33696, Note_on_c, 1, 31, 101
1, 33696, Note_on_c, 9, 35, 85
1, 33696, Note_on_c, 2, 70, 0
1, 33700, Note_on_c, 9, 35, 0
1, 33757, Note_on_c, 3, 79, 0
1, 33764, Note_on_c, 1, 31, 0
1, 33789, Note_on_c, 2, 50, 0
1, 33792, Note_on_c, 1, 31, 104
1, 33792, Note_on_c, 9, 35, 108
1, 33792, Note_on_c, 9, 46, 49
1, 33792, Note_on_c, 2, 50, 88
1, 33794, Note_on_c, 3, 74, 100
1, 33796, Note_on_c, 9, 35, 0
1, 33796, Note_on_c, 9, 46, 0
1, 33834, Note_on_c, 2, 62, 0
1, 33840, Control_c, 3, 1, 61
1, 33872, Note_on_c, 2, 67, 0
1, 33889, Note_on_c, 2, 70, 88
1, 33924, Note_on_c, 4, 58, 0
1, 33984, Control_c, 3, 1, 0
1, 33984, Note_on_c, 9, 46, 46
1, 33984, Note_on_c, 2, 67, 88
1, 33985, Note_on_c, 4, 58, 81
1, 33987, Note_on_c, 2, 70, 0
1, 33988, Note_on_c, 9, 46, 0
1, 34010, Note_on_c, 3, 74, 0
1, 34081, Note_on_c, 2, 62, 78
1, 34112, Note_on_c, 2, 67, 0
1, 34119, Note_on_c, 4, 62, 0
1, 34171, Note_on_c, 4, 62, 82
1, 34174, Pitch_bend_c, 3, 3584
1, 34175, Note_on_c, 3, 74, 104
1, 34176, Note_on_c, 9, 38, 95
1, 34176, Note_on_c, 9, 46, 47
1, 34177, Note_on_c, 2, 70, 86
1, 34180, Note_on_c, 9, 38, 0
1, 34180, Note_on_c, 9, 46, 0
1, 34192, Pitch_bend_c, 3, 5248
1, 34208, Pitch_bend_c, 3, 6400
1, 34224, Pitch_bend_c, 3, 7552
1, 34240, Pitch_bend_c, 3, 8192
1, 34263, Note_on_c, 4, 67, 0
1, 34271, Note_on_c, 2, 62, 0
1, 34272, Note_on_c, 2, 67, 86
1, 34282, Note_on_c, 3, 74, 0
1, 34305, Note_on_c, 3, 72, 107
1, 34352, Note_on_c, 4, 67, 80
1, 34368, Note_on_c, 9, 46, 49
1, 34370, Note_on_c, 2, 62, 90
1, 34372, Note_on_c, 9, 46, 0
1, 34381, Note_on_c, 2, 67, 0
1, 34415, Note_on_c, 3, 72, 0
1, 34424, Note_on_c, 2, 70, 0
1, 34434, Note_on_c, 3, 70, 97
1, 34465, Note_on_c, 2, 67, 86
1, 34504, Note_on_c, 1, 31, 0
1, 34528, Note_on_c, 3, 70, 0
1, 34551, Note_on_c, 3, 73, 107
1, 34553, Note_on_c, 10, 72, 37
1, 34554, Note_on_c, 10, 72, 0
1, 34557, Note_on_c, 2, 50, 0
1, 34560, Note_on_c, 1, 33, 104
1, 34560, Note_on_c, 9, 35, 106
1, 34560, Note_on_c, 2, 45, 105
1, 34560, Note_on_c, 9, 46, 49
1, 34564, Note_on_c, 9, 35, 0
1, 34564, Note_on_c, 9, 46, 0
1, 34624, Control_c, 3, 1, 46
1, 34651, Note_on_c, 2, 67, 0
1, 34654, Note_on_c, 2, 73, 88
1, 34655, Note_on_c, 2, 62, 0
1, 34660, Note_on_c, 4, 58, 0
1, 34671, Note_on_c, 4, 62, 0
1, 34676, Note_on_c, 4, 67, 0
1, 34751, Note_on_c, 2, 69, 92
1, 34752, Note_on_c, 9, 46, 46
1, 34756, Note_on_c, 9, 46, 0
1, 34756, Note_on_c, 4, 57, 81
1, 34846, Note_on_c, 2, 64, 75
1, 34873, Note_on_c, 2, 73, 0
1, 34937, Note_on_c, 4, 61, 82
1, 34944, Note_on_c, 9, 38, 94
1, 34944, Note_on_c, 9, 46, 49
1, 34944, Note_on_c, 2, 69, 0
1, 34946, Note_on_c, 2, 73, 102
1, 34948, Note_on_c, 9, 38, 0
1, 34948, Note_on_c, 9, 46, 0
1, 34976, Note_on_c, 3, 73, 0
1, 34976, Control_c, 3, 1, 0
1, 35038, Note_on_c, 2, 69, 83
1, 35044, Note_on_c, 2, 64, 0
1, 35127, Note_on_c, 4, 64, 80
1, 35136, Note_on_c, 9, 46, 49
1, 35136, Note_on_c, 2, 69, 0
1, 35138, Note_on_c, 2, 64, 93
1, 35140, Note_on_c, 9, 46, 0
1, 35209, Note_on_c, 1, 33, 0
1, 35230, Note_on_c, 2, 69, 80
1, 35232, Note_on_c, 1, 33, 104
1, 35232, Note_on_c, 9, 35, 86
1, 35232, Note_on_c, 2, 73, 0
1, 35236, Note_on_c, 9, 35, 0
1, 35314, Note_on_c, 1, 33, 0
1, 35325, Note_on_c, 2, 45, 0
1, 35328, Note_on_c, 1, 33, 103
1, 35328, Note_on_c, 9, 35, 107
1, 35328, Note_on_c, 2, 45, 105
1, 35328, Note_on_c, 9, 46, 49
1, 35332, Note_on_c, 9, 35, 0
1, 35332, Note_on_c, 9, 46, 0
1, 35370, Note_on_c, 2, 64, 0
1, 35408, Note_on_c, 2, 69, 0
1, 35425, Note_on_c, 2, 73, 88
1, 35460, Note_on_c, 4, 57, 0
1, 35520, Note_on_c, 9, 46, 48
1, 35520, Note_on_c, 2, 69, 88
1, 35521, Note_on_c, 4, 57, 81
1, 35523, Note_on_c, 2, 73, 0
1, 35524, Note_on_c, 9, 46, 0
1, 35617, Note_on_c, 2, 64, 78
1, 35648, Note_on_c, 2, 69, 0
1, 35655, Note_on_c, 4, 61, 0
1, 35707, Note_on_c, 4, 61, 82
1, 35711, Note_on_c, 3, 73, 104
1, 35712, Note_on_c, 9, 38, 94
1, 35712, Note_on_c, 9, 46, 47
1, 35713, Note_on_c, 2, 73, 86
1, 35716, Note_on_c, 9, 38, 0
1, 35716, Note_on_c, 9, 46, 0
1, 35799, Note_on_c, 4, 64, 0
1, 35807, Note_on_c, 2, 64, 0
1, 35808, Note_on_c, 2, 69, 86
1, 35818, Note_on_c, 3, 73, 0
1, 35841, Note_on_c, 3, 71, 107
1, 35888, Note_on_c, 4, 64, 80
1, 35904, Note_on_c, 9, 46, 48
1, 35906, Note_on_c, 2, 64, 90
1, 35908, Note_on_c, 9, 46, 0
1, 35917, Note_on_c, 2, 69, 0
1, 35951, Note_on_c, 3, 71, 0
1, 35960, Note_on_c, 2, 73, 0
1, 35970, Note_on_c, 3, 69, 97
1, 36001, Note_on_c, 2, 69, 86
1, 36053, Note_on_c, 1, 33, 0
1, 36064, Note_on_c, 3, 69, 0
1, 36077, Note_on_c, 10, 72, 38
1, 36078, Note_on_c, 10, 72, 0
1, 36086, Pitch_bend_c, 3, 4224
1, 36087, Note_on_c, 3, 74, 107
1, 36093, Note_on_c, 2, 45, 0
1, 36096, Note_on_c, 9, 35, 107
1, 36096, Note_on_c, 1, 38, 104
1, 36096, Note_on_c, 9, 46, 49
1, 36096, Note_on_c, 2, 50, 102
1, 36100, Note_on_c, 9, 35, 0
1, 36100, Note_on_c, 9, 46, 0
1, 36112, Pitch_bend_c, 3, 5632
1, 36128, Pitch_bend_c, 3, 6656
1, 36144, Pitch_bend_c, 3, 8192
1, 36187, Note_on_c, 2, 69, 0
1, 36190, Note_on_c, 2, 66, 88
1, 36191, Note_on_c, 2, 64, 0
1, 36196, Note_on_c, 4, 57, 0
1, 36207, Note_on_c, 4, 61, 0
1, 36212, Note_on_c, 4, 64, 0
1, 36272, Control_c, 3, 1, 44
1, 36287, Note_on_c, 2, 62, 92
1, 36288, Note_on_c, 9, 46, 48
1, 36292, Note_on_c, 9, 46, 0
1, 36292, Note_on_c, 4, 57, 81
1, 36382, Note_on_c, 2, 57, 75
1, 36384, Note_on_c, 9, 38, 85
1, 36388, Note_on_c, 9, 38, 0
1, 36409, Note_on_c, 2, 66, 0
1, 36473, Note_on_c, 4, 62, 82
1, 36480, Note_on_c, 9, 38, 97
1, 36480, Note_on_c, 9, 46, 48
1, 36480, Note_on_c, 9, 49, 64
1, 36480, Note_on_c, 2, 62, 0
1, 36482, Note_on_c, 2, 66, 102
1, 36484, Note_on_c, 9, 38, 0
1, 36484, Note_on_c, 9, 46, 0
1, 36484, Note_on_c, 9, 49, 0
1, 36512, Note_on_c, 3, 74, 0
1, 36544, Control_c, 3, 1, 0
1, 36574, Note_on_c, 2, 62, 83
1, 36580, Note_on_c, 2, 57, 0
1, 36663, Note_on_c, 4, 66, 80
1, 36672, Note_on_c, 9, 38, 76
1, 36672, Note_on_c, 9, 46, 46
1, 36672, Note_on_c, 2, 62, 0
1, 36674, Note_on_c, 2, 57, 93
1, 36676, Note_on_c, 9, 38, 0
1, 36676, Note_on_c, 9, 46, 0
1, 36743, Note_on_c, 1, 38, 0
1, 36766, Note_on_c, 2, 62, 80
1, 36768, Note_on_c, 9, 35, 86
1, 36768, Note_on_c, 1, 38, 104
1, 36768, Note_on_c, 2, 66, 0
1, 36768, Note_on_c, 2, 67, 84
1, 36772, Note_on_c, 9, 35, 0
1, 36853, Note_on_c, 1, 38, 0
1, 36861, Note_on_c, 2, 50, 0
1, 36861, Note_on_c, 2, 67, 0
1, 36864, Note_on_c, 1, 38, 103
1, 36864, Control_c, 5, 7, 31
1, 36864, Note_on_c, 9, 35, 108
1, 36864, Note_on_c, 9, 38, 97
1, 36864, Note_on_c, 9, 46, 49
1, 36864, Note_on_c, 2, 50, 88
1, 36865, Note_on_c, 5, 45, 74
1, 36865, Note_on_c, 2, 66, 100
1, 36868, Note_on_c, 9, 35, 0
1, 36868, Note_on_c, 9, 38, 0
1, 36868, Note_on_c, 9, 46, 0
1, 36868, Note_on_c, 5, 50, 105
1, 36906, Note_on_c, 2, 57, 0
1, 36928, Control_c, 5, 7, 34
1, 36944, Control_c, 5, 7, 36
1, 36960, Control_c, 5, 7, 42
1, 36960, Note_on_c, 9, 43, 85
1, 36964, Note_on_c, 9, 43, 0
1, 36976, Control_c, 5, 7, 44
1, 36992, Control_c, 5, 7, 47
1, 36996, Note_on_c, 4, 57, 0
1, 37008, Control_c, 5, 7, 51
1, 37024, Control_c, 5, 7, 51
1, 37040, Control_c, 5, 7, 53
1, 37056, Control_c, 5, 7, 56
1, 37072, Control_c, 5, 7, 61
1, 37088, Control_c, 5, 7, 64
1, 37104, Control_c, 5, 7, 66
1, 37120, Control_c, 5, 7, 69
1, 37136, Control_c, 5, 7, 71
1, 37152, Control_c, 5, 7, 76
1, 37152, Note_on_c, 9, 43, 76
1, 37156, Note_on_c, 9, 43, 0
1, 37168, Control_c, 5, 7, 76
1, 37184, Control_c, 5, 7, 82
1, 37191, Note_on_c, 4, 62, 0
1, 37200, Control_c, 5, 7, 84
1, 37216, Control_c, 5, 7, 87
1, 37232, Control_c, 5, 7, 89
1, 37248, Control_c, 5, 7, 92
1, 37248, Note_on_c, 9, 35, 102
1, 37248, Note_on_c, 9, 38, 95
1, 37248, Note_on_c, 9, 43, 95
1, 37252, Note_on_c, 9, 35, 0
1, 37252, Note_on_c, 9, 38, 0
1, 37252, Note_on_c, 9, 43, 0
1, 37264, Control_c, 5, 7, 94
1, 37280, Control_c, 5, 7, 97
1, 37296, Control_c, 5, 7, 101
1, 37302, Note_on_c, 1, 38, 0
1, 37312, Control_c, 5, 7, 106
1, 37328, Control_c, 5, 7, 109
1, 37335, Note_on_c, 4, 66, 0
1, 37344, Note_on_c, 1, 38, 102
1, 37344, Control_c, 5, 7, 112
1, 37344, Note_on_c, 9, 35, 68
1, 37344, Note_on_c, 9, 43, 85
1, 37348, Note_on_c, 9, 35, 0
1, 37348, Note_on_c, 9, 43, 0
1, 37360, Control_c, 5, 7, 116
1, 37376, Control_c, 5, 7, 122
1, 37417, Note_on_c, 1, 38, 0
1, 37424, Control_c, 5, 1, 115
1, 37440, Note_on_c, 9, 35, 102
1, 37440, Note_on_c, 1, 38, 103
1, 37440, Note_on_c, 9, 38, 93
1, 37440, Note_on_c, 9, 43, 96
1, 37444, Note_on_c, 9, 35, 0
1, 37444, Note_on_c, 9, 38, 0
1, 37444, Note_on_c, 9, 43, 0
1, 37520, Note_on_c, 2, 62, 0
1, 37533, Note_on_c, 1, 38, 0
1, 37536, Note_on_c, 9, 35, 85
1, 37536, Note_on_c, 1, 38, 98
1, 37536, Note_on_c, 9, 43, 85
1, 37540, Note_on_c, 9, 35, 0
1, 37540, Note_on_c, 9, 43, 0
1, 37584, Control_c, 5, 1, 0
1, 37587, Note_on_c, 2, 66, 0
1, 37621, Note_on_c, 10, 72, 25
1, 37622, Note_on_c, 10, 72, 0
1, 37627, Note_on_c, 5, 45, 0
1, 37628, Note_on_c, 5, 50, 0
1, 37629, Note_on_c, 1, 38, 0
1, 37629, Note_on_c, 2, 50, 0
1, 37632, Note_on_c, 1, 31, 101
1, 37632, Note_on_c, 9, 35, 108
1, 37632, Note_on_c, 9, 49, 64
1, 37632, Note_on_c, 5, 50, 68
1, 37632, Note_on_c, 6, 67, 93
1, 37632, Tempo, 545454
1, 37633, Note_on_c, 6, 70, 97
1, 37636, Note_on_c, 9, 35, 0
1, 37636, Note_on_c, 9, 49, 0
1, 37636, Note_on_c, 5, 55, 114
1, 37824, Note_on_c, 9, 51, 46
1, 37828, Note_on_c, 9, 51, 0
1, 37936, Control_c, 5, 1, 48
1, 38016, Note_on_c, 9, 38, 94
1, 38016, Note_on_c, 9, 51, 49
1, 38016, Note_on_c, 3, 79, 118
1, 38020, Note_on_c, 9, 38, 0
1, 38020, Note_on_c, 9, 51, 0
1, 38048, Control_c, 3, 1, 38
1, 38080, Control_c, 5, 1, 97
1, 38157, Note_on_c, 3, 79, 0
1, 38160, Control_c, 3, 1, 0
1, 38208, Note_on_c, 9, 51, 46
1, 38209, Note_on_c, 3, 79, 112
1, 38212, Note_on_c, 9, 51, 0
1, 38272, Control_c, 5, 1, 45
1, 38272, Control_c, 3, 1, 47
1, 38278, Note_on_c, 1, 31, 0
1, 38304, Note_on_c, 1, 31, 104
1, 38304, Note_on_c, 9, 35, 87
1, 38308, Note_on_c, 9, 35, 0
1, 38336, Control_c, 3, 1, 0
1, 38352, Control_c, 5, 1, 0
1, 38355, Note_on_c, 3, 79, 0
1, 38386, Note_on_c, 5, 50, 0
1, 38388, Note_on_c, 6, 67, 0
1, 38390, Note_on_c, 1, 31, 0
1, 38392, Note_on_c, 5, 55, 0
1, 38392, Pitch_bend_c, 3, 2560
1, 38393, Note_on_c, 3, 82, 112
1, 38394, Pitch_bend_c, 5, 5376
1, 38395, Note_on_c, 5, 51, 99
1, 38400, Note_on_c, 1, 27, 101
1, 38400, Note_on_c, 9, 35, 105
1, 38400, Note_on_c, 9, 51, 47
1, 38404, Note_on_c, 9, 35, 0
1, 38404, Note_on_c, 9, 51, 0
1, 38405, Note_on_c, 6, 70, 0
1, 38406, Note_on_c, 5, 58, 72
1, 38408, Note_on_c, 6, 63, 87
1, 38408, Note_on_c, 6, 70, 93
1, 38416, Pitch_bend_c, 5, 6784
1, 38416, Pitch_bend_c, 3, 4864
1, 38432, Pitch_bend_c, 5, 8192
1, 38432, Pitch_bend_c, 3, 6144
1, 38448, Pitch_bend_c, 3, 7296
1, 38464, Pitch_bend_c, 3, 8192
1, 38543, Note_on_c, 3, 82, 0
1, 38567, Note_on_c, 3, 81, 109
1, 38592, Note_on_c, 9, 51, 49
1, 38596, Note_on_c, 9, 51, 0
1, 38633, Note_on_c, 3, 81, 0
1, 38664, Note_on_c, 3, 79, 118
1, 38688, Control_c, 5, 1, 74
1, 38720, Control_c, 3, 1, 55
1, 38784, Note_on_c, 9, 38, 95
1, 38784, Note_on_c, 9, 51, 48
1, 38788, Note_on_c, 9, 38, 0
1, 38788, Note_on_c, 9, 51, 0
1, 38864, Control_c, 5, 1, 89
1, 38976, Note_on_c, 9, 51, 49
1, 38980, Note_on_c, 9, 51, 0
1, 39018, Note_on_c, 1, 27, 0
1, 39024, Control_c, 3, 1, 0
1, 39056, Control_c, 5, 1, 0
1, 39072, Note_on_c, 1, 27, 103
1, 39072, Note_on_c, 9, 35, 88
1, 39076, Note_on_c, 9, 35, 0
1, 39088, Pitch_bend_c, 5, 7680
1, 39104, Pitch_bend_c, 5, 6144
1, 39109, Note_on_c, 3, 79, 0
1, 39120, Pitch_bend_c, 5, 5120
1, 39136, Pitch_bend_c, 5, 3200
1, 39149, Note_on_c, 5, 51, 0
1, 39151, Note_on_c, 3, 77, 109
1, 39152, Pitch_bend_c, 5, 1664
1, 39163, Note_on_c, 5, 58, 0
1, 39165, Note_on_c, 1, 27, 0
1, 39168, Note_on_c, 1, 34, 103
1, 39168, Note_on_c, 9, 35, 106
1, 39168, Note_on_c, 9, 51, 48
1, 39169, Pitch_bend_c, 5, 8192
1, 39170, Note_on_c, 5, 46, 113
1, 39172, Note_on_c, 9, 35, 0
1, 39172, Note_on_c, 9, 51, 0
1, 39172, Note_on_c, 5, 53, 67
1, 39181, Note_on_c, 6, 63, 0
1, 39181, Note_on_c, 6, 70, 0
1, 39184, Note_on_c, 6, 65, 91
1, 39188, Note_on_c, 6, 70, 85
1, 39312, Note_on_c, 3, 77, 0
1, 39350, Note_on_c, 3, 77, 107
1, 39360, Note_on_c, 9, 51, 47
1, 39364, Note_on_c, 9, 51, 0
1, 39392, Control_c, 5, 1, 65
1, 39429, Note_on_c, 3, 77, 0
1, 39441, Pitch_bend_c, 3, 4224
1, 39442, Note_on_c, 3, 77, 104
1, 39456, Pitch_bend_c, 3, 5504
1, 39472, Pitch_bend_c, 3, 6656
1, 39488, Pitch_bend_c, 3, 8192
1, 39552, Note_on_c, 9, 38, 95
1, 39552, Note_on_c, 9, 51, 48
1, 39556, Note_on_c, 9, 38, 0
1, 39556, Note_on_c, 9, 51, 0
1, 39607, Note_on_c, 3, 77, 0
1, 39631, Note_on_c, 3, 74, 109
1, 39680, Control_c, 5, 1, 97
1, 39688, Note_on_c, 3, 74, 0
1, 39721, Note_on_c, 3, 70, 104
1, 39744, Note_on_c, 9, 51, 46
1, 39748, Note_on_c, 9, 51, 0
1, 39786, Note_on_c, 3, 70, 0
1, 39814, Note_on_c, 3, 72, 104
1, 39821, Note_on_c, 1, 34, 0
1, 39824, Pitch_bend_c, 5, 8192
1, 39840, Note_on_c, 1, 34, 103
1, 39840, Pitch_bend_c, 5, 7040
1, 39840, Note_on_c, 9, 35, 86
1, 39844, Note_on_c, 9, 35, 0
1, 39856, Pitch_bend_c, 5, 5120
1, 39872, Pitch_bend_c, 5, 3840
1, 39888, Pitch_bend_c, 5, 2688
1, 39904, Pitch_bend_c, 5, 1408
1, 39913, Note_on_c, 6, 65, 0
1, 39916, Note_on_c, 1, 34, 0
1, 39920, Note_on_c, 5, 46, 0
1, 39920, Control_c, 5, 1, 0
1, 39925, Note_on_c, 5, 53, 0
1, 39930, Note_on_c, 6, 70, 0
1, 39933, Note_on_c, 6, 69, 86
1, 39934, Pitch_bend_c, 5, 8192
1, 39935, Note_on_c, 5, 41, 107
1, 39935, Note_on_c, 6, 65, 82
1, 39936, Note_on_c, 1, 29, 103
1, 39936, Note_on_c, 9, 35, 105
1, 39936, Note_on_c, 9, 51, 48
1, 39940, Note_on_c, 9, 35, 0
1, 39940, Note_on_c, 9, 51, 0
1, 39941, Note_on_c, 5, 48, 68
1, 39984, Control_c, 3, 1, 43
1, 40128, Note_on_c, 9, 51, 47
1, 40132, Note_on_c, 9, 51, 0
1, 40320, Note_on_c, 9, 38, 94
1, 40320, Note_on_c, 9, 51, 48
1, 40324, Note_on_c, 9, 38, 0
1, 40324, Note_on_c, 9, 51, 0
1, 40400, Control_c, 3, 1, 0
1, 40448, Control_c, 5, 1, 58
1, 40490, Note_on_c, 3, 72, 0
1, 40512, Note_on_c, 9, 51, 49
1, 40516, Note_on_c, 9, 51, 0
1, 40581, Note_on_c, 1, 29, 0
1, 40608, Note_on_c, 1, 29, 103
1, 40655, Note_on_c, 5, 41, 0
1, 40661, Note_on_c, 5, 48, 0
1, 40672, Control_c, 5, 1, 0
1, 40691, Note_on_c, 1, 29, 0
1, 40702, Note_on_c, 6, 65, 0
1, 40704, Note_on_c, 1, 31, 101
1, 40704, Note_on_c, 9, 35, 106
1, 40704, Note_on_c, 5, 50, 68
1, 40704, Note_on_c, 9, 51, 49
1, 40704, Note_on_c, 6, 69, 0
1, 40705, Note_on_c, 6, 67, 87
1, 40705, Note_on_c, 6, 70, 94
1, 40708, Note_on_c, 9, 35, 0
1, 40708, Note_on_c, 9, 51, 0
1, 40708, Note_on_c, 5, 55, 114
1, 40896, Note_on_c, 9, 51, 46
1, 40900, Note_on_c, 9, 51, 0
1, 41008, Control_c, 5, 1, 48
1, 41088, Note_on_c, 9, 38, 95
1, 41088, Note_on_c, 9, 51, 47
1, 41088, Note_on_c, 3, 79, 118
1, 41092, Note_on_c, 9, 38, 0
1, 41092, Note_on_c, 9, 51, 0
1, 41120, Control_c, 3, 1, 38
1, 41152, Control_c, 5, 1, 97
1, 41229, Note_on_c, 3, 79, 0
1, 41232, Control_c, 3, 1, 0
1, 41280, Note_on_c, 9, 51, 49
1, 41281, Note_on_c, 3, 79, 112
1, 41284, Note_on_c, 9, 51, 0
1, 41344, Control_c, 5, 1, 45
1, 41344, Control_c, 3, 1, 47
1, 41350, Note_on_c, 1, 31, 0
1, 41376, Note_on_c, 1, 31, 104
1, 41376, Note_on_c, 9, 35, 85
1, 41380, Note_on_c, 9, 35, 0
1, 41408, Control_c, 3, 1, 0
1, 41424, Control_c, 5, 1, 0
1, 41427, Note_on_c, 3, 79, 0
1, 41458, Note_on_c, 5, 50, 0
1, 41462, Note_on_c, 1, 31, 0
1, 41464, Note_on_c, 5, 55, 0
1, 41464, Note_on_c, 6, 70, 0
1, 41464, Pitch_bend_c, 3, 2560
1, 41465, Note_on_c, 3, 82, 112
1, 41466, Pitch_bend_c, 5, 5376
1, 41467, Note_on_c, 5, 51, 99
1, 41467, Note_on_c, 6, 70, 94
1, 41469, Note_on_c, 6, 63, 76
1, 41472, Note_on_c, 1, 27, 101
1, 41472, Note_on_c, 9, 35, 105
1, 41472, Note_on_c, 9, 51, 47
1, 41476, Note_on_c, 9, 35, 0
1, 41476, Note_on_c, 9, 51, 0
1, 41478, Note_on_c, 5, 58, 72
1, 41479, Note_on_c, 6, 67, 0
1, 41488, Pitch_bend_c, 5, 6784
1, 41488, Pitch_bend_c, 3, 4864
1, 41504, Pitch_bend_c, 5, 8192
1, 41504, Pitch_bend_c, 3, 6144
1, 41520, Pitch_bend_c, 3, 7296
1, 41536, Pitch_bend_c, 3, 8192
1, 41615, Note_on_c, 3, 82, 0
1, 41639, Note_on_c, 3, 81, 109
1, 41664, Note_on_c, 9, 51, 46
1, 41668, Note_on_c, 9, 51, 0
1, 41705, Note_on_c, 3, 81, 0
1, 41736, Note_on_c, 3, 79, 118
1, 41760, Control_c, 5, 1, 74
1, 41792, Control_c, 3, 1, 55
1, 41856, Note_on_c, 9, 38, 94
1, 41856, Note_on_c, 9, 51, 48
1, 41860, Note_on_c, 9, 38, 0
1, 41860, Note_on_c, 9, 51, 0
1, 41936, Control_c, 5, 1, 89
1, 42048, Note_on_c, 9, 51, 47
1, 42052, Note_on_c, 9, 51, 0
1, 42090, Note_on_c, 1, 27, 0
1, 42096, Control_c, 3, 1, 0
1, 42128, Control_c, 5, 1, 0
1, 42144, Note_on_c, 1, 27, 103
1, 42160, Pitch_bend_c, 5, 7680
1, 42176, Pitch_bend_c, 5, 6144
1, 42181, Note_on_c, 3, 79, 0
1, 42192, Pitch_bend_c, 5, 5120
1, 42208, Pitch_bend_c, 5, 3200
1, 42218, Note_on_c, 6, 70, 0
1, 42221, Note_on_c, 5, 51, 0
1, 42223, Note_on_c, 3, 77, 109
1, 42224, Pitch_bend_c, 5, 1664
1, 42235, Note_on_c, 5, 58, 0
1, 42236, Note_on_c, 6, 63, 0
1, 42237, Note_on_c, 1, 27, 0
1, 42239, Note_on_c, 6, 70, 86
1, 42240, Note_on_c, 1, 34, 103
1, 42240, Note_on_c, 9, 35, 104
1, 42240, Note_on_c, 9, 51, 49
1, 42241, Pitch_bend_c, 5, 8192
1, 42242, Note_on_c, 5, 46, 113
1, 42242, Note_on_c, 6, 65, 91
1, 42244, Note_on_c, 9, 35, 0
1, 42244, Note_on_c, 9, 51, 0
1, 42244, Note_on_c, 5, 53, 67
1, 42384, Note_on_c, 3, 77, 0
1, 42422, Note_on_c, 3, 77, 107
1, 42432, Note_on_c, 9, 51, 48
1, 42436, Note_on_c, 9, 51, 0
1, 42464, Control_c, 5, 1, 65
1, 42501, Note_on_c, 3, 77, 0
1, 42513, Pitch_bend_c, 3, 4224
1, 42514, Note_on_c, 3, 77, 104
1, 42528, Pitch_bend_c, 3, 5504
1, 42528, Note_on_c, 9, 38, 68
1, 42532, Note_on_c, 9, 38, 0
1, 42544, Pitch_bend_c, 3, 6656
1, 42560, Pitch_bend_c, 3, 8192
1, 42624, Note_on_c, 9, 38, 97
1, 42624, Note_on_c, 9, 51, 48
1, 42628, Note_on_c, 9, 38, 0
1, 42628, Note_on_c, 9, 51, 0
1, 42679, Note_on_c, 3, 77, 0
1, 42703, Note_on_c, 3, 74, 109
1, 42752, Control_c, 5, 1, 97
1, 42760, Note_on_c, 3, 74, 0
1, 42793, Note_on_c, 3, 70, 104
1, 42816, Note_on_c, 9, 38, 76
1, 42816, Note_on_c, 9, 51, 46
1, 42820, Note_on_c, 9, 38, 0
1, 42820, Note_on_c, 9, 51, 0
1, 42858, Note_on_c, 3, 70, 0
1, 42866, Note_on_c, 1, 34, 0
1, 42886, Note_on_c, 3, 72, 104
1, 42896, Pitch_bend_c, 5, 8192
1, 42912, Note_on_c, 1, 34, 103
1, 42912, Pitch_bend_c, 5, 7040
1, 42912, Note_on_c, 9, 35, 86
1, 42916, Note_on_c, 9, 35, 0
1, 42928, Pitch_bend_c, 5, 5120
1, 42944, Pitch_bend_c, 5, 3840
1, 42960, Pitch_bend_c, 5, 2688
1, 42976, Pitch_bend_c, 5, 1408
1, 42987, Note_on_c, 6, 70, 0
1, 42992, Note_on_c, 5, 46, 0
1, 42992, Control_c, 5, 1, 0
1, 42997, Note_on_c, 5, 53, 0
1, 42998, Note_on_c, 6, 65, 0
1, 42999, Note_on_c, 1, 34, 0
1, 43001, Note_on_c, 6, 69, 87
1, 43005, Note_on_c, 6, 65, 88
1, 43006, Pitch_bend_c, 5, 8192
1, 43007, Note_on_c, 5, 41, 107
1, 43008, Note_on_c, 1, 29, 105
1, 43008, Note_on_c, 9, 35, 108
1, 43008, Note_on_c, 9, 38, 97
1, 43008, Note_on_c, 9, 51, 49
1, 43012, Note_on_c, 9, 35, 0
1, 43012, Note_on_c, 9, 38, 0
1, 43012, Note_on_c, 9, 51, 0
1, 43013, Note_on_c, 5, 48, 68
1, 43056, Control_c, 3, 1, 43
1, 43077, Note_on_c, 1, 29, 0
1, 43104, Note_on_c, 1, 29, 102
1, 43104, Note_on_c, 9, 35, 68
1, 43108, Note_on_c, 9, 35, 0
1, 43200, Note_on_c, 9, 51, 48
1, 43204, Note_on_c, 9, 51, 0
1, 43245, Note_on_c, 1, 29, 0
1, 43296, Note_on_c, 1, 29, 101
1, 43296, Note_on_c, 9, 35, 93
1, 43300, Note_on_c, 9, 35, 0
1, 43392, Note_on_c, 9, 51, 48
1, 43396, Note_on_c, 9, 51, 0
1, 43469, Note_on_c, 1, 29, 0
1, 43472, Control_c, 3, 1, 0
1, 43488, Note_on_c, 1, 26, 101
1, 43488, Note_on_c, 9, 35, 85
1, 43492, Note_on_c, 9, 35, 0
1, 43520, Control_c, 5, 1, 58
1, 43562, Note_on_c, 3, 72, 0
1, 43573, Note_on_c, 1, 26, 0
1, 43584, Note_on_c, 1, 29, 101
1, 43584, Note_on_c, 9, 35, 108
1, 43584, Note_on_c, 9, 38, 93
1, 43584, Note_on_c, 9, 51, 46
1, 43588, Note_on_c, 9, 35, 0
1, 43588, Note_on_c, 9, 38, 0
1, 43588, Note_on_c, 9, 51, 0
1, 43677, Note_on_c, 1, 29, 0
1, 43680, Note_on_c, 1, 29, 103
1, 43680, Note_on_c, 9, 35, 85
1, 43680, Note_on_c, 9, 38, 89
1, 43684, Note_on_c, 9, 35, 0
1, 43684, Note_on_c, 9, 38, 0
1, 43727, Note_on_c, 5, 41, 0
1, 43733, Note_on_c, 5, 48, 0
1, 43744, Control_c, 5, 1, 0
1, 43752, Note_on_c, 6, 69, 0
1, 43763, Note_on_c, 1, 29, 0
1, 43776, Note_on_c, 1, 31, 100
1, 43776, Note_on_c, 9, 35, 105
1, 43776, Note_on_c, 9, 49, 65
1, 43776, Note_on_c, 5, 50, 68
1, 43777, Note_on_c, 6, 65, 0
1, 43780, Note_on_c, 9, 35, 0
1, 43780, Note_on_c, 9, 49, 0
1, 43780, Note_on_c, 5, 55, 114
1, 43780, Note_on_c, 6, 67, 89
1, 43782, Note_on_c, 6, 70, 93
1, 43968, Note_on_c, 9, 51, 49
1, 43972, Note_on_c, 9, 51, 0
1, 44080, Control_c, 5, 1, 48
1, 44151, Note_on_c, 3, 74, 109
1, 44160, Note_on_c, 9, 38, 95
1, 44160, Note_on_c, 9, 51, 46
1, 44164, Note_on_c, 9, 38, 0
1, 44164, Note_on_c, 9, 51, 0
1, 44208, Control_c, 3, 1, 53
1, 44224, Control_c, 5, 1, 97
1, 44272, Note_on_c, 3, 74, 0
1, 44272, Control_c, 3, 1, 0
1, 44349, Note_on_c, 3, 74, 104
1, 44352, Note_on_c, 9, 51, 49
1, 44356, Note_on_c, 9, 51, 0
1, 44401, Note_on_c, 1, 31, 0
1, 44416, Control_c, 5, 1, 45
1, 44416, Control_c, 3, 1, 47
1, 44448, Note_on_c, 1, 31, 104
1, 44448, Note_on_c, 9, 35, 87
1, 44452, Note_on_c, 9, 35, 0
1, 44476, Note_on_c, 3, 74, 0
1, 44496, Control_c, 5, 1, 0
1, 44496, Control_c, 3, 1, 0
1, 44530, Note_on_c, 1, 31, 0
1, 44530, Note_on_c, 5, 50, 0
1, 44534, Note_on_c, 6, 67, 0
1, 44536, Note_on_c, 5, 55, 0
1, 44538, Pitch_bend_c, 5, 5376
1, 44539, Note_on_c, 5, 60, 99
1, 44541, Pitch_bend_c, 3, 3328
1, 44542, Note_on_c, 3, 75, 113
1, 44544, Note_on_c, 9, 35, 104
1, 44544, Note_on_c, 1, 36, 97
1, 44544, Note_on_c, 9, 51, 46
1, 44548, Note_on_c, 9, 35, 0
1, 44548, Note_on_c, 9, 51, 0
1, 44550, Note_on_c, 5, 55, 72
1, 44551, Note_on_c, 6, 70, 0
1, 44554, Note_on_c, 6, 63, 81
1, 44557, Note_on_c, 6, 67, 91
1, 44560, Pitch_bend_c, 5, 6784
1, 44560, Pitch_bend_c, 3, 5376
1, 44576, Pitch_bend_c, 5, 8192
1, 44576, Pitch_bend_c, 3, 6656
1, 44592, Pitch_bend_c, 3, 8192
1, 44660, Note_on_c, 3, 75, 0
1, 44710, Note_on_c, 3, 74, 109
1, 44736, Note_on_c, 9, 51, 47
1, 44740, Note_on_c, 9, 51, 0
1, 44770, Note_on_c, 3, 74, 0
1, 44811, Note_on_c, 3, 72, 109
1, 44832, Control_c, 5, 1, 74
1, 44880, Control_c, 3, 1, 53
1, 44928, Note_on_c, 9, 38, 96
1, 44928, Note_on_c, 9, 51, 47
1, 44932, Note_on_c, 9, 38, 0
1, 44932, Note_on_c, 9, 51, 0
1, 45008, Control_c, 5, 1, 89
1, 45120, Control_c, 3, 1, 0
1, 45120, Note_on_c, 9, 51, 48
1, 45124, Note_on_c, 9, 51, 0
1, 45136, Note_on_c, 3, 72, 0
1, 45181, Note_on_c, 1, 36, 0
1, 45194, Note_on_c, 3, 79, 115
1, 45200, Control_c, 5, 1, 0
1, 45216, Note_on_c, 9, 35, 86
1, 45216, Note_on_c, 1, 36, 104
1, 45220, Note_on_c, 9, 35, 0
1, 45250, Note_on_c, 3, 79, 0
1, 45287, Pitch_bend_c, 3, 3584
1, 45288, Note_on_c, 3, 81, 124
1, 45293, Note_on_c, 5, 60, 0
1, 45296, Pitch_bend_c, 3, 4480
1, 45302, Note_on_c, 6, 63, 0
1, 45307, Note_on_c, 5, 55, 0
1, 45308, Note_on_c, 1, 36, 0
1, 45312, Note_on_c, 1, 38, 104
1, 45312, Pitch_bend_c, 3, 6016
1, 45312, Note_on_c, 9, 35, 108
1, 45312, Note_on_c, 9, 51, 48
1, 45314, Note_on_c, 5, 62, 113
1, 45316, Note_on_c, 9, 35, 0
1, 45316, Note_on_c, 9, 51, 0
1, 45316, Note_on_c, 5, 57, 67
1, 45326, Note_on_c, 6, 67, 0
1, 45328, Pitch_bend_c, 3, 8192
1, 45329, Note_on_c, 6, 69, 86
1, 45330, Note_on_c, 6, 62, 81
1, 45408, Control_c, 3, 1, 64
1, 45504, Note_on_c, 9, 51, 46
1, 45508, Note_on_c, 9, 51, 0
1, 45520, Control_c, 3, 1, 0
1, 45523, Note_on_c, 3, 81, 0
1, 45536, Control_c, 5, 1, 65
1, 45600, Note_on_c, 3, 74, 114
1, 45639, Note_on_c, 3, 74, 0
1, 45648, Note_on_c, 3, 74, 96
1, 45685, Note_on_c, 3, 74, 0
1, 45696, Note_on_c, 9, 38, 94
1, 45696, Note_on_c, 9, 51, 48
1, 45696, Note_on_c, 3, 74, 116
1, 45700, Note_on_c, 9, 38, 0
1, 45700, Note_on_c, 9, 51, 0
1, 45760, Note_on_c, 3, 74, 0
1, 45795, Note_on_c, 3, 81, 112
1, 45824, Control_c, 5, 1, 97
1, 45824, Control_c, 3, 1, 40
1, 45888, Control_c, 3, 1, 0
1, 45888, Note_on_c, 9, 51, 47
1, 45892, Note_on_c, 9, 51, 0
1, 45936, Note_on_c, 3, 81, 0
1, 45968, Pitch_bend_c, 5, 8192
1, 45969, Note_on_c, 1, 38, 0
1, 45978, Pitch_bend_c, 3, 4224
1, 45979, Note_on_c, 3, 82, 115
1, 45984, Note_on_c, 1, 38, 102
1, 45984, Pitch_bend_c, 5, 7040
1, 45984, Note_on_c, 9, 35, 85
1, 45988, Note_on_c, 9, 35, 0
1, 46000, Pitch_bend_c, 5, 5120
1, 46000, Pitch_bend_c, 3, 5504
1, 46016, Pitch_bend_c, 5, 3840
1, 46016, Pitch_bend_c, 3, 7040
1, 46032, Pitch_bend_c, 5, 2688
1, 46032, Pitch_bend_c, 3, 8192
1, 46046, Note_on_c, 6, 69, 0
1, 46048, Pitch_bend_c, 5, 1408
1, 46048, Control_c, 3, 1, 55
1, 46064, Note_on_c, 5, 62, 0
1, 46064, Control_c, 5, 1, 0
1, 46069, Note_on_c, 5, 57, 0
1, 46077, Note_on_c, 1, 38, 0
1, 46078, Pitch_bend_c, 5, 8192
1, 46079, Note_on_c, 5, 55, 107
1, 46080, Note_on_c, 1, 31, 103
1, 46080, Note_on_c, 9, 35, 108
1, 46080, Note_on_c, 9, 51, 49
1, 46084, Note_on_c, 9, 35, 0
1, 46084, Note_on_c, 9, 51, 0
1, 46085, Note_on_c, 5, 50, 68
1, 46094, Note_on_c, 6, 62, 0
1, 46097, Note_on_c, 6, 70, 86
1, 46098, Note_on_c, 6, 62, 81
1, 46240, Control_c, 3, 1, 0
1, 46272, Note_on_c, 9, 51, 46
1, 46276, Note_on_c, 9, 51, 0
1, 46312, Note_on_c, 3, 82, 0
1, 46443, Note_on_c, 1, 31, 0
1, 46464, Note_on_c, 1, 29, 104
1, 46464, Note_on_c, 9, 38, 95
1, 46464, Note_on_c, 9, 51, 47
1, 46468, Note_on_c, 9, 38, 0
1, 46468, Note_on_c, 9, 51, 0
1, 46592, Control_c, 5, 1, 58
1, 46652, Note_on_c, 3, 79, 106
1, 46656, Note_on_c, 9, 51, 49
1, 46660, Note_on_c, 9, 51, 0
1, 46727, Note_on_c, 3, 79, 0
1, 46762, Note_on_c, 3, 81, 112
1, 46769, Note_on_c, 5, 55, 0
1, 46814, Note_on_c, 6, 70, 0
1, 46816, Control_c, 5, 1, 0
1, 46837, Note_on_c, 6, 62, 0
1, 46840, Note_on_c, 6, 67, 92
1, 46844, Note_on_c, 5, 50, 0
1, 46844, Note_on_c, 6, 63, 84
1, 46845, Note_on_c, 1, 29, 0
1, 46845, Note_on_c, 3, 81, 0
1, 46848, Note_on_c, 1, 27, 99
1, 46848, Note_on_c, 9, 35, 106
1, 46848, Note_on_c, 9, 51, 49
1, 46850, Note_on_c, 5, 51, 82
1, 46852, Note_on_c, 9, 35, 0
1, 46852, Note_on_c, 9, 51, 0
1, 46855, Note_on_c, 5, 58, 101
1, 46857, Note_on_c, 8, 55, 67
1, 46882, Pitch_bend_c, 3, 4480
1, 46883, Note_on_c, 3, 82, 115
1, 46896, Pitch_bend_c, 3, 6016
1, 46912, Pitch_bend_c, 3, 7040
1, 46928, Pitch_bend_c, 3, 8192
1, 46975, Note_on_c, 3, 82, 0
1, 46992, Control_c, 5, 1, 102
1, 47002, Note_on_c, 3, 81, 112
1, 47040, Note_on_c, 9, 51, 46
1, 47044, Note_on_c, 9, 51, 0
1, 47079, Note_on_c, 3, 81, 0
1, 47088, Control_c, 5, 1, 0
1, 47109, Note_on_c, 3, 79, 104
1, 47135, Note_on_c, 5, 51, 0
1, 47138, Note_on_c, 5, 50, 72
1, 47142, Note_on_c, 8, 55, 0
1, 47145, Note_on_c, 8, 54, 57
1, 47207, Note_on_c, 3, 79, 0
1, 47230, Note_on_c, 5, 50, 0
1, 47232, Note_on_c, 9, 38, 94
1, 47232, Note_on_c, 9, 51, 49
1, 47233, Note_on_c, 5, 51, 82
1, 47236, Pitch_bend_c, 3, 4224
1, 47236, Note_on_c, 9, 38, 0
1, 47236, Note_on_c, 9, 51, 0
1, 47237, Note_on_c, 8, 54, 0
1, 47237, Note_on_c, 3, 75, 113
1, 47240, Note_on_c, 8, 55, 67
1, 47248, Pitch_bend_c, 3, 5376
1, 47264, Pitch_bend_c, 3, 6656
1, 47280, Pitch_bend_c, 3, 8192
1, 47296, Control_c, 5, 1, 69
1, 47424, Note_on_c, 9, 51, 49
1, 47428, Note_on_c, 9, 51, 0
1, 47440, Control_c, 5, 1, 0
1, 47487, Note_on_c, 1, 27, 0
1, 47518, Note_on_c, 5, 51, 0
1, 47520, Note_on_c, 1, 27, 103
1, 47520, Note_on_c, 9, 35, 86
1, 47521, Note_on_c, 5, 50, 77
1, 47524, Note_on_c, 9, 35, 0
1, 47525, Note_on_c, 8, 55, 0
1, 47528, Note_on_c, 8, 54, 62
1, 47583, Note_on_c, 6, 67, 0
1, 47594, Note_on_c, 1, 27, 0
1, 47599, Note_on_c, 6, 63, 0
1, 47602, Note_on_c, 6, 67, 88
1, 47603, Note_on_c, 6, 70, 80
1, 47612, Note_on_c, 5, 50, 0
1, 47615, Note_on_c, 5, 51, 84
1, 47616, Note_on_c, 1, 27, 105
1, 47616, Note_on_c, 9, 35, 107
1, 47616, Note_on_c, 9, 51, 49
1, 47619, Note_on_c, 8, 54, 0
1, 47620, Note_on_c, 9, 35, 0
1, 47620, Note_on_c, 9, 51, 0
1, 47622, Note_on_c, 8, 55, 69
1, 47648, Control_c, 3, 1, 48
1, 47711, Note_on_c, 5, 51, 0
1, 47714, Note_on_c, 5, 50, 75
1, 47718, Note_on_c, 8, 55, 0
1, 47721, Note_on_c, 8, 54, 60
1, 47807, Note_on_c, 5, 50, 0
1, 47808, Control_c, 3, 1, 84
1, 47808, Note_on_c, 9, 51, 48
1, 47810, Note_on_c, 5, 51, 77
1, 47812, Note_on_c, 9, 51, 0
1, 47814, Note_on_c, 8, 54, 0
1, 47817, Note_on_c, 8, 55, 62
1, 47900, Note_on_c, 5, 51, 0
1, 47903, Note_on_c, 5, 50, 66
1, 47907, Note_on_c, 8, 55, 0
1, 47910, Note_on_c, 8, 54, 51
1, 47952, Control_c, 3, 1, 0
1, 47996, Note_on_c, 5, 50, 0
1, 47999, Note_on_c, 5, 51, 82
1, 48000, Note_on_c, 9, 38, 94
1, 48000, Note_on_c, 9, 51, 47
1, 48003, Note_on_c, 8, 54, 0
1, 48004, Note_on_c, 9, 38, 0
1, 48004, Note_on_c, 9, 51, 0
1, 48006, Note_on_c, 8, 55, 67
1, 48039, Note_on_c, 3, 75, 0
1, 48048, Control_c, 5, 1, 53
1, 48192, Note_on_c, 9, 51, 48
1, 48196, Note_on_c, 9, 51, 0
1, 48253, Note_on_c, 1, 27, 0
1, 48288, Note_on_c, 1, 27, 104
1, 48298, Note_on_c, 3, 79, 112
1, 48368, Control_c, 5, 1, 0
1, 48381, Note_on_c, 1, 27, 0
1, 48381, Note_on_c, 5, 51, 0
1, 48381, Note_on_c, 3, 79, 0
1, 48384, Note_on_c, 1, 29, 101
1, 48384, Note_on_c, 9, 35, 107
1, 48384, Note_on_c, 9, 49, 64
1, 48384, Note_on_c, 5, 53, 85
1, 48386, Note_on_c, 5, 60, 102
1, 48388, Note_on_c, 9, 35, 0
1, 48388, Note_on_c, 9, 49, 0
1, 48388, Note_on_c, 8, 55, 0
1, 48388, Note_on_c, 6, 65, 81
1, 48389, Note_on_c, 6, 72, 85
1, 48391, Note_on_c, 8, 57, 70
1, 48392, Note_on_c, 5, 58, 0
1, 48398, Note_on_c, 6, 67, 0
1, 48400, Pitch_bend_c, 5, 8192
1, 48404, Note_on_c, 6, 70, 0
1, 48416, Pitch_bend_c, 3, 2560
1, 48419, Note_on_c, 3, 82, 115
1, 48432, Pitch_bend_c, 3, 3584
1, 48448, Pitch_bend_c, 3, 5120
1, 48464, Pitch_bend_c, 3, 6144
1, 48480, Pitch_bend_c, 3, 7296
1, 48496, Pitch_bend_c, 3, 8192
1, 48511, Note_on_c, 3, 82, 0
1, 48538, Note_on_c, 3, 81, 112
1, 48576, Note_on_c, 9, 51, 48
1, 48580, Note_on_c, 9, 51, 0
1, 48615, Note_on_c, 3, 81, 0
1, 48645, Note_on_c, 3, 79, 104
1, 48671, Note_on_c, 5, 53, 0
1, 48672, Note_on_c, 9, 38, 85
1, 48674, Note_on_c, 5, 52, 82
1, 48676, Note_on_c, 9, 38, 0
1, 48678, Note_on_c, 8, 57, 0
1, 48681, Note_on_c, 8, 56, 67
1, 48743, Note_on_c, 3, 79, 0
1, 48763, Note_on_c, 5, 52, 0
1, 48766, Note_on_c, 5, 53, 79
1, 48768, Note_on_c, 9, 38, 97
1, 48768, Note_on_c, 9, 51, 48
1, 48770, Note_on_c, 8, 56, 0
1, 48772, Pitch_bend_c, 3, 2560
1, 48772, Note_on_c, 9, 38, 0
1, 48772, Note_on_c, 9, 51, 0
1, 48773, Note_on_c, 8, 57, 64
1, 48773, Note_on_c, 3, 81, 113
1, 48784, Pitch_bend_c, 3, 4480
1, 48800, Pitch_bend_c, 3, 5120
1, 48816, Pitch_bend_c, 3, 6400
1, 48832, Pitch_bend_c, 3, 7424
1, 48848, Pitch_bend_c, 3, 8192
1, 48912, Control_c, 3, 1, 60
1, 48960, Note_on_c, 9, 38, 76
1, 48960, Note_on_c, 9, 51, 46
1, 48964, Note_on_c, 9, 38, 0
1, 48964, Note_on_c, 9, 51, 0
1, 49027, Note_on_c, 1, 29, 0
1, 49054, Note_on_c, 5, 53, 0
1, 49056, Note_on_c, 1, 29, 104
1, 49056, Note_on_c, 9, 35, 86
1, 49057, Note_on_c, 5, 52, 82
1, 49060, Note_on_c, 9, 35, 0
1, 49061, Note_on_c, 8, 57, 0
1, 49064, Note_on_c, 8, 56, 67
1, 49120, Note_on_c, 6, 65, 0
1, 49132, Note_on_c, 1, 29, 0
1, 49138, Note_on_c, 6, 72, 0
1, 49141, Note_on_c, 6, 69, 84
1, 49146, Note_on_c, 6, 65, 91
1, 49150, Note_on_c, 5, 52, 0
1, 49152, Note_on_c, 1, 29, 100
1, 49152, Note_on_c, 9, 35, 108
1, 49152, Note_on_c, 9, 38, 97
1, 49152, Note_on_c, 9, 57, 64
1, 49153, Note_on_c, 5, 53, 75
1, 49156, Note_on_c, 9, 35, 0
1, 49156, Note_on_c, 9, 38, 0
1, 49156, Note_on_c, 9, 57, 0
1, 49157, Note_on_c, 8, 56, 0
1, 49160, Note_on_c, 8, 57, 60
1, 49264, Control_c, 5, 1, 69
1, 49328, Control_c, 3, 1, 0
1, 49383, Note_on_c, 3, 81, 0
1, 49440, Note_on_c, 3, 74, 101
1, 49514, Note_on_c, 3, 74, 0
1, 49535, Pitch_bend_c, 3, 2944
1, 49536, Note_on_c, 3, 74, 113
1, 49552, Control_c, 5, 1, 0
1, 49552, Pitch_bend_c, 3, 4736
1, 49568, Pitch_bend_c, 3, 6400
1, 49584, Pitch_bend_c, 3, 8192
1, 49614, Note_on_c, 3, 74, 0
1, 49632, Note_on_c, 3, 74, 101
1, 49652, Note_on_c, 6, 65, 0
1, 49662, Note_on_c, 6, 69, 0
1, 49680, Pitch_bend_c, 5, 7424
1, 49688, Note_on_c, 8, 57, 0
1, 49696, Pitch_bend_c, 5, 6144
1, 49696, Control_c, 3, 1, 64
1, 49712, Pitch_bend_c, 5, 5376
1, 49728, Pitch_bend_c, 5, 4480
1, 49735, Note_on_c, 5, 60, 0
1, 49744, Pitch_bend_c, 5, 3840
1, 49744, Control_c, 3, 1, 0
1, 49760, Pitch_bend_c, 5, 2688
1, 49776, Pitch_bend_c, 5, 1280
1, 49780, Note_on_c, 5, 53, 0
1, 49792, Pitch_bend_c, 5, 128
1, 49793, Note_on_c, 3, 74, 0
1, 49823, Pitch_bend_c, 3, 1280
1, 49824, Note_on_c, 3, 74, 99
1, 49840, Pitch_bend_c, 3, 3200
1, 49856, Pitch_bend_c, 3, 4480
1, 49872, Pitch_bend_c, 3, 5760
1, 49888, Pitch_bend_c, 3, 7040
1, 49904, Pitch_bend_c, 5, 8192
1, 49904, Pitch_bend_c, 3, 8192
1, 49920, Note_on_c, 2, 50, 90
1, 49920, Tempo, 618556
1, 49925, Note_on_c, 7, 70, 80
1, 49929, Note_on_c, 7, 67, 81
1, 49931, Note_on_c, 1, 29, 0
1, 50000, Control_c, 3, 1, 42
1, 50016, Note_on_c, 2, 70, 90
1, 50114, Note_on_c, 2, 67, 84
1, 50142, Note_on_c, 2, 70, 0
1, 50207, Note_on_c, 2, 62, 86
1, 50281, Note_on_c, 2, 67, 0
1, 50301, Note_on_c, 2, 50, 0
1, 50304, Note_on_c, 2, 53, 94
1, 50346, Note_on_c, 2, 62, 0
1, 50368, Control_c, 3, 1, 56
1, 50402, Note_on_c, 2, 70, 102
1, 50495, Note_on_c, 2, 67, 90
1, 50521, Note_on_c, 2, 70, 0
1, 50589, Note_on_c, 2, 62, 80
1, 50659, Note_on_c, 2, 67, 0
1, 50685, Note_on_c, 2, 53, 0
1, 50688, Note_on_c, 2, 51, 90
1, 50690, Note_on_c, 2, 62, 0
1, 50783, Note_on_c, 2, 70, 90
1, 50877, Note_on_c, 3, 74, 0
1, 50882, Note_on_c, 2, 67, 94
1, 50919, Note_on_c, 2, 70, 0
1, 50944, Control_c, 3, 1, 0
1, 50977, Note_on_c, 2, 62, 86
1, 50978, Note_on_c, 2, 67, 0
1, 51072, Tempo, 714285
1, 51074, Note_on_c, 2, 73, 91
1, 51079, Pitch_bend_c, 3, 3840
1, 51080, Note_on_c, 3, 73, 97
1, 51083, Note_on_c, 2, 62, 0
1, 51088, Pitch_bend_c, 3, 5376
1, 51104, Pitch_bend_c, 3, 6144
1, 51120, Pitch_bend_c, 3, 7168
1, 51136, Pitch_bend_c, 3, 8192
1, 51168, Note_on_c, 2, 72, 80
1, 51169, Note_on_c, 3, 73, 0
1, 51176, Note_on_c, 3, 72, 84
1, 51190, Note_on_c, 2, 73, 0
1, 51258, Note_on_c, 3, 72, 0
1, 51263, Note_on_c, 2, 70, 80
1, 51264, Tempo, 789473
1, 51290, Note_on_c, 3, 70, 68
1, 51303, Note_on_c, 2, 72, 0
1, 51354, Note_on_c, 2, 70, 0
1, 51358, Note_on_c, 2, 67, 69
1, 51440, Note_on_c, 7, 72, 83
1, 51450, Note_on_c, 7, 70, 0
1, 51453, Note_on_c, 2, 51, 0
1, 51456, Note_on_c, 2, 51, 92
1, 51456, Tempo, 618556
1, 51462, Note_on_c, 2, 58, 73
1, 51465, Note_on_c, 2, 67, 0
1, 51536, Control_c, 3, 1, 50
1, 51650, Note_on_c, 2, 70, 86
1, 51745, Note_on_c, 2, 67, 72
1, 51774, Note_on_c, 2, 70, 0
1, 51830, Note_on_c, 2, 58, 0
1, 51839, Note_on_c, 2, 62, 75
1, 51875, Note_on_c, 2, 67, 0
1, 52031, Note_on_c, 2, 58, 72
1, 52043, Note_on_c, 2, 62, 0
1, 52064, Control_c, 3, 1, 0
1, 52202, Note_on_c, 10, 72, 46
1, 52203, Note_on_c, 10, 72, 0
1, 52207, Note_on_c, 3, 70, 0
1, 52221, Note_on_c, 2, 51, 0
1, 52224, Note_on_c, 2, 50, 93
1, 52232, Note_on_c, 7, 69, 83
1, 52233, Note_on_c, 2, 58, 0
1, 52235, Note_on_c, 2, 60, 74
1, 52240, Control_c, 7, 7, 115
1, 52242, Note_on_c, 7, 67, 0
1, 52256, Control_c, 7, 7, 114
1, 52272, Control_c, 7, 7, 113
1, 52288, Control_c, 7, 7, 112
1, 52304, Control_c, 7, 7, 111
1, 52320, Control_c, 7, 7, 109
1, 52336, Control_c, 7, 7, 109
1, 52352, Control_c, 7, 7, 108
1, 52368, Control_c, 7, 7, 107
1, 52384, Control_c, 7, 7, 106
1, 52400, Control_c, 7, 7, 105
1, 52416, Control_c, 7, 7, 104
1, 52416, Tempo, 697674
1, 52417, Note_on_c, 2, 69, 78
1, 52432, Control_c, 7, 7, 104
1, 52448, Control_c, 7, 7, 102
1, 52464, Control_c, 7, 7, 101
1, 52480, Control_c, 7, 7, 100
1, 52496, Control_c, 7, 7, 99
1, 52510, Note_on_c, 2, 66, 80
1, 52512, Control_c, 7, 7, 98
1, 52528, Control_c, 7, 7, 98
1, 52533, Note_on_c, 2, 69, 0
1, 52544, Control_c, 7, 7, 98
1, 52560, Control_c, 7, 7, 96
1, 52576, Control_c, 7, 7, 95
1, 52592, Control_c, 7, 7, 95
1, 52600, Note_on_c, 2, 60, 0
1, 52608, Control_c, 7, 7, 93
1, 52608, Tempo, 833333
1, 52610, Note_on_c, 2, 60, 78
1, 52624, Control_c, 7, 7, 91
1, 52640, Control_c, 7, 7, 89
1, 52645, Note_on_c, 2, 66, 0
1, 52656, Control_c, 7, 7, 88
1, 52672, Control_c, 7, 7, 86
1, 52688, Control_c, 7, 7, 85
1, 52704, Control_c, 7, 7, 84
1, 52720, Control_c, 7, 7, 82
1, 52736, Control_c, 7, 7, 81
1, 52752, Control_c, 7, 7, 79
1, 52768, Control_c, 7, 7, 78
1, 52784, Control_c, 7, 7, 77
1, 52799, Note_on_c, 2, 57, 59
1, 52800, Control_c, 7, 7, 75
1, 52810, Note_on_c, 2, 60, 0
1, 52816, Control_c, 7, 7, 73
1, 52832, Control_c, 7, 7, 72
1, 52848, Control_c, 7, 7, 71
1, 52864, Control_c, 7, 7, 68
1, 52880, Control_c, 7, 7, 67
1, 52896, Control_c, 7, 7, 66
1, 52912, Control_c, 7, 7, 65
1, 52928, Control_c, 7, 7, 64
1, 52944, Control_c, 7, 7, 63
1, 52960, Control_c, 7, 7, 62
1, 52973, Note_on_c, 2, 57, 0
1, 52974, Note_on_c, 10, 72, 39
1, 52975, Note_on_c, 10, 72, 0
1, 52976, Control_c, 7, 7, 62
1, 52989, Note_on_c, 2, 50, 0
1, 52991, Note_on_c, 4, 55, 82
1, 52992, Control_c, 7, 7, 60
1, 52992, Note_on_c, 2, 50, 90
1, 52992, Tempo, 618556
1, 52995, Pitch_bend_c, 5, 2176
1, 52996, Note_on_c, 5, 67, 104
1, 53001, Note_on_c, 7, 69, 0
1, 53001, Note_on_c, 7, 72, 0
1, 53008, Control_c, 7, 7, 58
1, 53008, Pitch_bend_c, 5, 3328
1, 53024, Control_c, 7, 7, 57
1, 53024, Pitch_bend_c, 5, 5248
1, 53040, Pitch_bend_c, 5, 6400
1, 53056, Pitch_bend_c, 5, 8192
1, 53088, Note_on_c, 4, 62, 85
1, 53088, Note_on_c, 2, 70, 90
1, 53136, Control_c, 5, 1, 61
1, 53183, Note_on_c, 4, 67, 66
1, 53186, Note_on_c, 2, 67, 94
1, 53214, Note_on_c, 2, 70, 0
1, 53216, Control_c, 5, 1, 125
1, 53264, Control_c, 5, 1, 0
1, 53277, Note_on_c, 5, 69, 104
1, 53279, Note_on_c, 2, 62, 86
1, 53281, Note_on_c, 5, 67, 0
1, 53281, Note_on_c, 4, 70, 76
1, 53316, Note_on_c, 5, 69, 0
1, 53325, Note_on_c, 5, 70, 107
1, 53336, Note_on_c, 4, 55, 0
1, 53353, Note_on_c, 2, 67, 0
1, 53357, Note_on_c, 5, 70, 0
1, 53371, Note_on_c, 4, 62, 0
1, 53373, Note_on_c, 2, 50, 0
1, 53376, Note_on_c, 2, 53, 94
1, 53376, Note_on_c, 4, 55, 87
1, 53379, Note_on_c, 4, 67, 0
1, 53381, Note_on_c, 5, 72, 96
1, 53388, Note_on_c, 4, 70, 0
1, 53418, Note_on_c, 2, 62, 0
1, 53474, Note_on_c, 4, 62, 82
1, 53474, Note_on_c, 2, 70, 102
1, 53488, Control_c, 5, 1, 39
1, 53552, Control_c, 5, 1, 105
1, 53567, Note_on_c, 2, 67, 94
1, 53570, Note_on_c, 4, 67, 63
1, 53584, Control_c, 5, 1, 0
1, 53593, Note_on_c, 2, 70, 0
1, 53643, Note_on_c, 5, 70, 107
1, 53655, Note_on_c, 5, 72, 0
1, 53661, Note_on_c, 2, 62, 80
1, 53662, Note_on_c, 4, 70, 68
1, 53688, Note_on_c, 5, 70, 0
1, 53689, Note_on_c, 5, 69, 99
1, 53706, Note_on_c, 4, 55, 0
1, 53731, Note_on_c, 2, 67, 0
1, 53749, Note_on_c, 5, 69, 0
1, 53757, Note_on_c, 2, 53, 0
1, 53758, Note_on_c, 4, 67, 0
1, 53759, Note_on_c, 4, 70, 0
1, 53760, Note_on_c, 2, 51, 90
1, 53760, Note_on_c, 4, 55, 78
1, 53762, Note_on_c, 2, 62, 0
1, 53765, Note_on_c, 5, 70, 110
1, 53766, Note_on_c, 4, 62, 0
1, 53855, Note_on_c, 2, 70, 90
1, 53858, Note_on_c, 4, 62, 70
1, 53872, Control_c, 5, 1, 127
1, 53950, Note_on_c, 4, 67, 53
1, 53952, Control_c, 5, 1, 0
1, 53954, Note_on_c, 2, 67, 84
1, 53988, Note_on_c, 5, 70, 0
1, 53991, Note_on_c, 2, 70, 0
1, 54031, Note_on_c, 5, 67, 104
1, 54048, Note_on_c, 4, 70, 72
1, 54049, Note_on_c, 2, 62, 86
1, 54050, Note_on_c, 2, 67, 0
1, 54075, Note_on_c, 5, 67, 0
1, 54079, Note_on_c, 5, 70, 92
1, 54132, Note_on_c, 5, 70, 0
1, 54144, Pitch_bend_c, 5, 4096
1, 54144, Tempo, 697674
1, 54145, Note_on_c, 4, 61, 87
1, 54146, Note_on_c, 2, 73, 91
1, 54150, Note_on_c, 4, 70, 0
1, 54155, Note_on_c, 2, 62, 0
1, 54157, Note_on_c, 4, 67, 0
1, 54163, Note_on_c, 4, 62, 0
1, 54163, Note_on_c, 5, 77, 102
1, 54172, Note_on_c, 4, 55, 0
1, 54224, Pitch_bend_c, 5, 5888
1, 54240, Pitch_bend_c, 5, 8192
1, 54240, Note_on_c, 2, 72, 80
1, 54242, Note_on_c, 4, 60, 79
1, 54250, Note_on_c, 4, 61, 0
1, 54256, Control_c, 5, 1, 94
1, 54262, Note_on_c, 2, 73, 0
1, 54288, Control_c, 5, 1, 0
1, 54323, Note_on_c, 5, 79, 98
1, 54335, Note_on_c, 2, 70, 80
1, 54336, Tempo, 882352
1, 54337, Note_on_c, 5, 77, 0
1, 54340, Note_on_c, 4, 58, 66
1, 54375, Note_on_c, 2, 72, 0
1, 54395, Note_on_c, 4, 60, 0
1, 54426, Note_on_c, 2, 70, 0
1, 54430, Note_on_c, 2, 67, 69
1, 54432, Control_c, 5, 1, 83
1, 54438, Note_on_c, 4, 55, 77
1, 54444, Note_on_c, 4, 58, 0
1, 54525, Note_on_c, 2, 51, 0
1, 54528, Note_on_c, 2, 51, 92
1, 54528, Tempo, 612244
1, 54534, Note_on_c, 2, 58, 73
1, 54577, Note_on_c, 4, 55, 0
1, 54585, Note_on_c, 2, 67, 0
1, 54719, Note_on_c, 4, 67, 86
1, 54722, Note_on_c, 2, 70, 86
1, 54752, Control_c, 5, 1, 0
1, 54817, Note_on_c, 2, 67, 72
1, 54821, Note_on_c, 4, 62, 72
1, 54843, Note_on_c, 4, 67, 0
1, 54846, Note_on_c, 2, 70, 0
1, 54906, Note_on_c, 2, 58, 0
1, 54911, Note_on_c, 2, 62, 75
1, 54917, Note_on_c, 4, 58, 75
1, 54927, Note_on_c, 5, 79, 0
1, 54947, Note_on_c, 2, 67, 0
1, 54951, Note_on_c, 4, 62, 0
1, 55017, Note_on_c, 5, 74, 106
1, 55072, Pitch_bend_c, 5, 6528
1, 55088, Pitch_bend_c, 5, 3584
1, 55103, Note_on_c, 2, 58, 72
1, 55104, Pitch_bend_c, 5, 0
1, 55106, Note_on_c, 4, 55, 72
1, 55115, Note_on_c, 2, 62, 0
1, 55121, Note_on_c, 4, 58, 0
1, 55151, Note_on_c, 5, 74, 0
1, 55167, Pitch_bend_c, 5, 8192
1, 55168, Note_on_c, 5, 70, 100
1, 55197, Note_on_c, 5, 67, 101
1, 55201, Note_on_c, 5, 70, 0
1, 55268, Note_on_c, 5, 67, 0
1, 55274, Note_on_c, 10, 72, 46
1, 55275, Note_on_c, 10, 72, 0
1, 55293, Note_on_c, 2, 51, 0
1, 55296, Pitch_bend_c, 5, 0
1, 55296, Note_on_c, 2, 50, 93
1, 55303, Note_on_c, 5, 69, 116
1, 55305, Note_on_c, 2, 58, 0
1, 55307, Note_on_c, 2, 60, 74
1, 55308, Note_on_c, 4, 55, 0
1, 55308, Note_on_c, 5, 74, 116
1, 55486, Note_on_c, 4, 60, 79
1, 55488, Tempo, 731707
1, 55489, Note_on_c, 2, 69, 78
1, 55520, Pitch_bend_c, 5, 1152
1, 55536, Pitch_bend_c, 5, 1536
1, 55552, Pitch_bend_c, 5, 1920
1, 55568, Pitch_bend_c, 5, 2048
1, 55582, Note_on_c, 2, 66, 80
1, 55584, Pitch_bend_c, 5, 2176
1, 55585, Note_on_c, 4, 57, 81
1, 55600, Pitch_bend_c, 5, 2560
1, 55616, Pitch_bend_c, 5, 2944
1, 55632, Pitch_bend_c, 5, 3328
1, 55648, Pitch_bend_c, 5, 3456
1, 55650, Note_on_c, 4, 60, 0
1, 55653, Note_on_c, 2, 69, 0
1, 55664, Pitch_bend_c, 5, 3840
1, 55669, Note_on_c, 2, 60, 0
1, 55679, Note_on_c, 4, 66, 79
1, 55680, Pitch_bend_c, 5, 3968
1, 55682, Note_on_c, 2, 60, 78
1, 55696, Pitch_bend_c, 5, 4480
1, 55712, Pitch_bend_c, 5, 4864
1, 55717, Note_on_c, 2, 66, 0
1, 55728, Pitch_bend_c, 5, 5376
1, 55744, Pitch_bend_c, 5, 5760
1, 55760, Pitch_bend_c, 5, 6272
1, 55776, Pitch_bend_c, 5, 6656
1, 55792, Pitch_bend_c, 5, 7168
1, 55808, Pitch_bend_c, 5, 7680
1, 55824, Pitch_bend_c, 5, 7808
1, 55840, Control_c, 5, 1, 82
1, 55864, Note_on_c, 4, 57, 0
1, 55871, Note_on_c, 2, 57, 59
1, 55872, Tempo, 2400000
1, 55882, Note_on_c, 2, 60, 0
1, 55888, Control_c, 5, 1, 127
1, 56000, Control_c, 5, 7, 111
1, 56016, Control_c, 5, 7, 104
1, 56028, Note_on_c, 5, 69, 0
1, 56032, Note_on_c, 5, 74, 0
1, 56032, Control_c, 5, 7, 101
1, 56045, Note_on_c, 2, 57, 0
1, 56046, Note_on_c, 10, 72, 39
1, 56047, Note_on_c, 10, 72, 0
1, 56048, Control_c, 5, 7, 92
1, 56048, Control_c, 5, 1, 0
1, 56060, Note_on_c, 4, 66, 0
1, 56061, Note_on_c, 2, 50, 0
1, 56064, Note_on_c, 1, 31, 104
1, 56064, Control_c, 5, 7, 119
1, 56064, Note_on_c, 9, 35, 108
1, 56064, Note_on_c, 9, 49, 64
1, 56064, Note_on_c, 2, 50, 105
1, 56064, Tempo, 606060
1, 56068, Note_on_c, 9, 35, 0
1, 56068, Note_on_c, 9, 49, 0
1, 56073, Pitch_bend_c, 3, 2432
1, 56075, Note_on_c, 3, 74, 105
1, 56096, Pitch_bend_c, 3, 3840
1, 56112, Pitch_bend_c, 3, 5248
1, 56128, Pitch_bend_c, 3, 6656
1, 56144, Pitch_bend_c, 3, 8192
1, 56159, Note_on_c, 2, 70, 76
1, 56176, Control_c, 3, 1, 68
1, 56252, Note_on_c, 4, 58, 78
1, 56256, Note_on_c, 9, 46, 46
1, 56256, Note_on_c, 2, 67, 86
1, 56260, Note_on_c, 9, 46, 0
1, 56352, Note_on_c, 2, 62, 86
1, 56384, Control_c, 3, 1, 0
1, 56397, Note_on_c, 2, 70, 0
1, 56448, Note_on_c, 9, 38, 94
1, 56448, Note_on_c, 9, 46, 49
1, 56448, Note_on_c, 6, 62, 78
1, 56448, Note_on_c, 2, 70, 98
1, 56450, Note_on_c, 4, 62, 82
1, 56452, Note_on_c, 9, 38, 0
1, 56452, Note_on_c, 9, 46, 0
1, 56452, Note_on_c, 6, 67, 79
1, 56456, Note_on_c, 2, 67, 0
1, 56458, Note_on_c, 6, 70, 72
1, 56462, Note_on_c, 3, 74, 0
1, 56501, Note_on_c, 6, 62, 0
1, 56507, Note_on_c, 6, 67, 0
1, 56513, Note_on_c, 6, 70, 0
1, 56542, Note_on_c, 2, 67, 80
1, 56551, Note_on_c, 2, 62, 0
1, 56630, Note_on_c, 4, 67, 78
1, 56640, Note_on_c, 9, 46, 46
1, 56640, Note_on_c, 2, 62, 90
1, 56644, Note_on_c, 9, 46, 0
1, 56661, Note_on_c, 2, 67, 0
1, 56688, Note_on_c, 1, 31, 0
1, 56702, Note_on_c, 3, 72, 93
1, 56717, Note_on_c, 2, 70, 0
1, 56735, Note_on_c, 2, 67, 77
1, 56736, Note_on_c, 1, 31, 100
1, 56736, Note_on_c, 9, 35, 87
1, 56740, Note_on_c, 9, 35, 0
1, 56753, Note_on_c, 3, 72, 0
1, 56779, Note_on_c, 3, 70, 70
1, 56804, Note_on_c, 1, 31, 0
1, 56829, Note_on_c, 2, 50, 0
1, 56832, Note_on_c, 1, 31, 104
1, 56832, Note_on_c, 9, 35, 105
1, 56832, Note_on_c, 9, 46, 47
1, 56832, Note_on_c, 2, 50, 105
1, 56836, Note_on_c, 9, 35, 0
1, 56836, Note_on_c, 9, 46, 0
1, 56836, Note_on_c, 3, 70, 0
1, 56868, Note_on_c, 2, 67, 0
1, 56871, Pitch_bend_c, 3, 2176
1, 56873, Note_on_c, 3, 74, 104
1, 56880, Pitch_bend_c, 3, 4480
1, 56889, Note_on_c, 2, 62, 0
1, 56896, Pitch_bend_c, 3, 6144
1, 56912, Pitch_bend_c, 3, 7552
1, 56928, Pitch_bend_c, 3, 8192
1, 56928, Note_on_c, 2, 70, 92
1, 56960, Control_c, 3, 1, 52
1, 56970, Note_on_c, 4, 58, 0
1, 57024, Note_on_c, 9, 46, 49
1, 57026, Note_on_c, 2, 67, 80
1, 57027, Note_on_c, 4, 58, 86
1, 57028, Note_on_c, 9, 46, 0
1, 57105, Note_on_c, 4, 62, 0
1, 57108, Note_on_c, 4, 67, 0
1, 57122, Note_on_c, 2, 62, 72
1, 57128, Note_on_c, 5, 60, 100
1, 57129, Note_on_c, 2, 70, 0
1, 57152, Pitch_bend_c, 5, 9600
1, 57168, Pitch_bend_c, 5, 12160
1, 57184, Pitch_bend_c, 5, 13696
1, 57184, Control_c, 3, 1, 0
1, 57200, Pitch_bend_c, 5, 16256
1, 57206, Note_on_c, 4, 62, 83
1, 57207, Note_on_c, 2, 67, 0
1, 57208, Note_on_c, 3, 74, 0
1, 57212, Note_on_c, 5, 60, 0
1, 57214, Pitch_bend_c, 5, 8192
1, 57215, Note_on_c, 5, 62, 110
1, 57216, Note_on_c, 9, 38, 95
1, 57216, Note_on_c, 9, 46, 48
1, 57216, Note_on_c, 6, 62, 76
1, 57216, Note_on_c, 2, 70, 90
1, 57220, Note_on_c, 9, 38, 0
1, 57220, Note_on_c, 9, 46, 0
1, 57220, Note_on_c, 6, 67, 79
1, 57226, Note_on_c, 6, 70, 70
1, 57274, Note_on_c, 6, 62, 0
1, 57282, Note_on_c, 6, 67, 0
1, 57290, Note_on_c, 5, 65, 89
1, 57290, Note_on_c, 6, 70, 0
1, 57301, Note_on_c, 5, 62, 0
1, 57310, Note_on_c, 2, 67, 84
1, 57313, Note_on_c, 2, 62, 0
1, 57396, Note_on_c, 4, 67, 81
1, 57397, Note_on_c, 5, 67, 110
1, 57406, Note_on_c, 5, 65, 0
1, 57407, Note_on_c, 2, 62, 92
1, 57408, Note_on_c, 9, 46, 49
1, 57412, Note_on_c, 9, 46, 0
1, 57426, Note_on_c, 2, 67, 0
1, 57475, Note_on_c, 1, 31, 0
1, 57488, Note_on_c, 5, 67, 0
1, 57491, Pitch_bend_c, 5, 2560
1, 57492, Note_on_c, 5, 70, 100
1, 57501, Note_on_c, 2, 70, 0
1, 57504, Note_on_c, 1, 31, 103
1, 57504, Pitch_bend_c, 5, 4864
1, 57504, Note_on_c, 9, 35, 88
1, 57505, Note_on_c, 3, 74, 91
1, 57506, Note_on_c, 2, 67, 84
1, 57508, Note_on_c, 9, 35, 0
1, 57520, Pitch_bend_c, 5, 5888
1, 57536, Pitch_bend_c, 5, 6912
1, 57552, Pitch_bend_c, 5, 7936
1, 57564, Note_on_c, 1, 31, 0
1, 57580, Note_on_c, 3, 74, 0
1, 57597, Note_on_c, 2, 50, 0
1, 57600, Note_on_c, 1, 31, 104
1, 57600, Note_on_c, 9, 35, 106
1, 57600, Note_on_c, 9, 46, 48
1, 57600, Note_on_c, 2, 50, 102
1, 57600, Note_on_c, 5, 67, 104
1, 57601, Note_on_c, 5, 70, 0
1, 57604, Note_on_c, 9, 35, 0
1, 57604, Note_on_c, 9, 46, 0
1, 57622, Pitch_bend_c, 3, 2432
1, 57624, Note_on_c, 3, 82, 109
1, 57632, Pitch_bend_c, 3, 4480
1, 57648, Pitch_bend_c, 3, 7040
1, 57656, Note_on_c, 2, 62, 0
1, 57664, Pitch_bend_c, 3, 8192
1, 57669, Note_on_c, 2, 67, 0
1, 57694, Note_on_c, 2, 70, 88
1, 57696, Control_c, 5, 1, 71
1, 57712, Note_on_c, 3, 82, 0
1, 57728, Note_on_c, 4, 58, 0
1, 57747, Note_on_c, 3, 82, 107
1, 57791, Note_on_c, 2, 67, 92
1, 57792, Note_on_c, 9, 46, 47
1, 57796, Note_on_c, 9, 46, 0
1, 57796, Note_on_c, 4, 58, 81
1, 57831, Note_on_c, 3, 82, 0
1, 57840, Control_c, 5, 1, 95
1, 57862, Note_on_c, 3, 82, 99
1, 57886, Note_on_c, 2, 62, 75
1, 57913, Note_on_c, 2, 70, 0
1, 57915, Note_on_c, 4, 62, 0
1, 57969, Note_on_c, 3, 82, 0
1, 57977, Note_on_c, 4, 62, 82
1, 57984, Note_on_c, 9, 38, 95
1, 57984, Note_on_c, 9, 46, 48
1, 57984, Note_on_c, 6, 62, 78
1, 57984, Note_on_c, 2, 67, 0
1, 57986, Note_on_c, 2, 70, 102
1, 57988, Note_on_c, 9, 38, 0
1, 57988, Note_on_c, 9, 46, 0
1, 57988, Note_on_c, 6, 67, 78
1, 57992, Pitch_bend_c, 3, 3840
1, 57993, Note_on_c, 3, 82, 103
1, 57994, Note_on_c, 6, 70, 72
1, 58000, Control_c, 5, 1, 0
1, 58016, Pitch_bend_c, 3, 5632
1, 58032, Pitch_bend_c, 3, 8192
1, 58041, Note_on_c, 6, 62, 0
1, 58053, Note_on_c, 6, 67, 0
1, 58054, Note_on_c, 6, 70, 0
1, 58058, Note_on_c, 4, 67, 0
1, 58074, Note_on_c, 3, 82, 0
1, 58078, Note_on_c, 2, 67, 83
1, 58084, Note_on_c, 2, 62, 0
1, 58098, Note_on_c, 3, 81, 97
1, 58167, Note_on_c, 4, 67, 80
1, 58176, Note_on_c, 9, 46, 46
1, 58176, Note_on_c, 2, 67, 0
1, 58178, Note_on_c, 2, 62, 93
1, 58180, Note_on_c, 9, 46, 0
1, 58201, Note_on_c, 3, 81, 0
1, 58226, Note_on_c, 3, 79, 102
1, 58244, Note_on_c, 1, 31, 0
1, 58270, Note_on_c, 2, 67, 80
1, 58272, Note_on_c, 1, 31, 101
1, 58272, Note_on_c, 9, 35, 86
1, 58272, Note_on_c, 2, 70, 0
1, 58276, Note_on_c, 9, 35, 0
1, 58333, Note_on_c, 3, 79, 0
1, 58340, Note_on_c, 1, 31, 0
1, 58365, Note_on_c, 2, 50, 0
1, 58368, Note_on_c, 1, 31, 104
1, 58368, Note_on_c, 9, 35, 105
1, 58368, Note_on_c, 9, 46, 48
1, 58368, Note_on_c, 2, 50, 88
1, 58370, Note_on_c, 3, 74, 100
1, 58372, Note_on_c, 9, 35, 0
1, 58372, Note_on_c, 9, 46, 0
1, 58410, Note_on_c, 2, 62, 0
1, 58416, Control_c, 3, 1, 61
1, 58448, Note_on_c, 2, 67, 0
1, 58465, Note_on_c, 2, 70, 88
1, 58500, Note_on_c, 4, 58, 0
1, 58560, Control_c, 3, 1, 0
1, 58560, Note_on_c, 9, 46, 47
1, 58560, Note_on_c, 2, 67, 88
1, 58561, Note_on_c, 4, 58, 81
1, 58563, Note_on_c, 2, 70, 0
1, 58564, Note_on_c, 9, 46, 0
1, 58586, Note_on_c, 3, 74, 0
1, 58646, Note_on_c, 5, 67, 0
1, 58657, Note_on_c, 2, 62, 78
1, 58664, Note_on_c, 5, 61, 99
1, 58664, Note_on_c, 5, 64, 88
1, 58688, Note_on_c, 2, 67, 0
1, 58695, Note_on_c, 4, 62, 0
1, 58704, Pitch_bend_c, 5, 8832
1, 58720, Pitch_bend_c, 5, 9600
1, 58736, Pitch_bend_c, 5, 10624
1, 58747, Note_on_c, 4, 62, 82
1, 58750, Pitch_bend_c, 3, 3584
1, 58751, Note_on_c, 3, 74, 104
1, 58752, Note_on_c, 9, 38, 94
1, 58752, Note_on_c, 9, 46, 48
1, 58752, Note_on_c, 6, 62, 73
1, 58753, Note_on_c, 2, 70, 86
1, 58756, Note_on_c, 9, 38, 0
1, 58756, Note_on_c, 9, 46, 0
1, 58756, Note_on_c, 6, 67, 76
1, 58759, Pitch_bend_c, 5, 8192
1, 58760, Note_on_c, 5, 65, 93
1, 58762, Note_on_c, 6, 70, 71
1, 58768, Pitch_bend_c, 3, 5248
1, 58775, Note_on_c, 5, 61, 0
1, 58775, Note_on_c, 5, 64, 0
1, 58784, Control_c, 5, 1, 95
1, 58784, Pitch_bend_c, 3, 6400
1, 58800, Note_on_c, 6, 62, 0
1, 58800, Pitch_bend_c, 3, 7552
1, 58803, Note_on_c, 6, 67, 0
1, 58812, Note_on_c, 6, 70, 0
1, 58816, Control_c, 5, 1, 0
1, 58816, Pitch_bend_c, 3, 8192
1, 58832, Pitch_bend_c, 5, 7424
1, 58839, Note_on_c, 4, 67, 0
1, 58847, Note_on_c, 2, 62, 0
1, 58848, Pitch_bend_c, 5, 5632
1, 58848, Note_on_c, 2, 67, 86
1, 58858, Note_on_c, 3, 74, 0
1, 58864, Pitch_bend_c, 5, 4352
1, 58880, Pitch_bend_c, 5, 2816
1, 58881, Note_on_c, 3, 72, 107
1, 58898, Note_on_c, 5, 65, 0
1, 58901, Pitch_bend_c, 5, 8192
1, 58902, Note_on_c, 5, 58, 99
1, 58928, Note_on_c, 4, 67, 80
1, 58938, Note_on_c, 5, 58, 0
1, 58944, Note_on_c, 9, 46, 49
1, 58946, Note_on_c, 2, 62, 90
1, 58948, Note_on_c, 9, 46, 0
1, 58955, Note_on_c, 5, 55, 83
1, 58957, Note_on_c, 2, 67, 0
1, 58991, Note_on_c, 3, 72, 0
1, 59000, Note_on_c, 2, 70, 0
1, 59010, Note_on_c, 3, 70, 97
1, 59035, Note_on_c, 5, 55, 0
1, 59041, Note_on_c, 2, 67, 86
1, 59052, Note_on_c, 5, 53, 94
1, 59080, Note_on_c, 1, 31, 0
1, 59104, Note_on_c, 3, 70, 0
1, 59127, Note_on_c, 3, 73, 107
1, 59129, Note_on_c, 10, 72, 37
1, 59130, Note_on_c, 5, 53, 0
1, 59130, Note_on_c, 10, 72, 0
1, 59133, Note_on_c, 2, 50, 0
1, 59136, Note_on_c, 1, 33, 104
1, 59136, Note_on_c, 9, 35, 106
1, 59136, Note_on_c, 2, 45, 105
1, 59136, Note_on_c, 9, 46, 49
1, 59140, Note_on_c, 9, 35, 0
1, 59140, Note_on_c, 9, 46, 0
1, 59147, Note_on_c, 5, 52, 101
1, 59200, Control_c, 3, 1, 46
1, 59227, Note_on_c, 2, 67, 0
1, 59230, Note_on_c, 2, 73, 88
1, 59231, Note_on_c, 2, 62, 0
1, 59236, Note_on_c, 4, 58, 0
1, 59247, Note_on_c, 4, 62, 0
1, 59252, Note_on_c, 4, 67, 0
1, 59327, Note_on_c, 2, 69, 92
1, 59328, Note_on_c, 9, 46, 46
1, 59332, Note_on_c, 9, 46, 0
1, 59332, Note_on_c, 4, 57, 81
1, 59422, Note_on_c, 2, 64, 75
1, 59449, Note_on_c, 2, 73, 0
1, 59513, Note_on_c, 4, 61, 82
1, 59520, Note_on_c, 9, 38, 95
1, 59520, Note_on_c, 9, 46, 47
1, 59520, Note_on_c, 6, 64, 73
1, 59520, Note_on_c, 2, 69, 0
1, 59522, Note_on_c, 2, 73, 102
1, 59524, Note_on_c, 9, 38, 0
1, 59524, Note_on_c, 9, 46, 0
1, 59524, Note_on_c, 6, 69, 76
1, 59530, Note_on_c, 6, 73, 70
1, 59552, Note_on_c, 3, 73, 0
1, 59552, Control_c, 3, 1, 0
1, 59590, Note_on_c, 6, 64, 0
1, 59593, Note_on_c, 6, 69, 0
1, 59600, Control_c, 5, 1, 38
1, 59607, Note_on_c, 6, 73, 0
1, 59614, Note_on_c, 2, 69, 83
1, 59620, Note_on_c, 2, 64, 0
1, 59703, Note_on_c, 4, 64, 80
1, 59712, Note_on_c, 9, 46, 49
1, 59712, Note_on_c, 2, 69, 0
1, 59714, Note_on_c, 2, 64, 93
1, 59716, Note_on_c, 9, 46, 0
1, 59785, Note_on_c, 1, 33, 0
1, 59806, Note_on_c, 2, 69, 80
1, 59808, Note_on_c, 1, 33, 104
1, 59808, Note_on_c, 9, 35, 85
1, 59808, Note_on_c, 2, 73, 0
1, 59812, Note_on_c, 9, 35, 0
1, 59890, Note_on_c, 1, 33, 0
1, 59901, Note_on_c, 2, 45, 0
1, 59904, Note_on_c, 1, 33, 103
1, 59904, Note_on_c, 9, 35, 105
1, 59904, Note_on_c, 2, 45, 105
1, 59904, Note_on_c, 9, 46, 47
1, 59908, Note_on_c, 9, 35, 0
1, 59908, Note_on_c, 9, 46, 0
1, 59946, Note_on_c, 2, 64, 0
1, 59952, Control_c, 5, 1, 80
1, 59984, Note_on_c, 2, 69, 0
1, 60001, Note_on_c, 2, 73, 88
1, 60036, Note_on_c, 4, 57, 0
1, 60096, Note_on_c, 9, 46, 46
1, 60096, Note_on_c, 2, 69, 88
1, 60097, Note_on_c, 4, 57, 81
1, 60099, Note_on_c, 2, 73, 0
1, 60100, Note_on_c, 9, 46, 0
1, 60193, Note_on_c, 2, 64, 78
1, 60224, Note_on_c, 2, 69, 0
1, 60231, Note_on_c, 4, 61, 0
1, 60272, Control_c, 5, 1, 108
1, 60283, Note_on_c, 4, 61, 82
1, 60287, Note_on_c, 3, 73, 104
1, 60288, Note_on_c, 9, 38, 94
1, 60288, Note_on_c, 9, 46, 48
1, 60288, Note_on_c, 6, 64, 72
1, 60289, Note_on_c, 2, 73, 86
1, 60292, Note_on_c, 9, 38, 0
1, 60292, Note_on_c, 9, 46, 0
1, 60292, Note_on_c, 6, 69, 79
1, 60298, Note_on_c, 6, 73, 71
1, 60352, Note_on_c, 6, 64, 0
1, 60361, Note_on_c, 6, 69, 0
1, 60374, Note_on_c, 6, 73, 0
1, 60375, Note_on_c, 4, 64, 0
1, 60383, Note_on_c, 2, 64, 0
1, 60384, Note_on_c, 2, 69, 86
1, 60394, Note_on_c, 3, 73, 0
1, 60417, Note_on_c, 3, 71, 107
1, 60464, Note_on_c, 4, 64, 80
1, 60480, Note_on_c, 9, 46, 47
1, 60482, Note_on_c, 2, 64, 90
1, 60484, Note_on_c, 9, 46, 0
1, 60493, Note_on_c, 2, 69, 0
1, 60527, Note_on_c, 3, 71, 0
1, 60528, Control_c, 5, 1, 0
1, 60536, Note_on_c, 2, 73, 0
1, 60546, Note_on_c, 3, 69, 97
1, 60577, Note_on_c, 2, 69, 86
1, 60629, Note_on_c, 1, 33, 0
1, 60640, Note_on_c, 3, 69, 0
1, 60653, Note_on_c, 10, 72, 38
1, 60654, Note_on_c, 10, 72, 0
1, 60662, Pitch_bend_c, 3, 4224
1, 60663, Note_on_c, 3, 74, 107
1, 60666, Note_on_c, 5, 52, 0
1, 60669, Note_on_c, 2, 45, 0
1, 60672, Note_on_c, 9, 35, 104
1, 60672, Note_on_c, 1, 38, 104
1, 60672, Note_on_c, 9, 46, 49
1, 60672, Note_on_c, 5, 50, 97
1, 60672, Note_on_c, 2, 50, 102
1, 60672, Note_on_c, 5, 54, 80
1, 60676, Note_on_c, 9, 35, 0
1, 60676, Note_on_c, 9, 46, 0
1, 60688, Pitch_bend_c, 3, 5632
1, 60704, Pitch_bend_c, 3, 6656
1, 60720, Pitch_bend_c, 3, 8192
1, 60763, Note_on_c, 2, 69, 0
1, 60766, Note_on_c, 2, 66, 88
1, 60767, Note_on_c, 2, 64, 0
1, 60772, Note_on_c, 4, 57, 0
1, 60783, Note_on_c, 4, 61, 0
1, 60788, Note_on_c, 4, 64, 0
1, 60848, Control_c, 3, 1, 44
1, 60863, Note_on_c, 2, 62, 92
1, 60864, Note_on_c, 9, 46, 48
1, 60868, Note_on_c, 9, 46, 0
1, 60868, Note_on_c, 4, 57, 81
1, 60958, Note_on_c, 2, 57, 75
1, 60960, Note_on_c, 9, 38, 68
1, 60964, Note_on_c, 9, 38, 0
1, 60985, Note_on_c, 2, 66, 0
1, 61049, Note_on_c, 4, 62, 82
1, 61056, Note_on_c, 9, 38, 97
1, 61056, Note_on_c, 9, 46, 48
1, 61056, Note_on_c, 2, 62, 0
1, 61056, Note_on_c, 6, 66, 70
1, 61058, Note_on_c, 2, 66, 102
1, 61060, Note_on_c, 9, 38, 0
1, 61060, Note_on_c, 9, 46, 0
1, 61060, Note_on_c, 6, 69, 78
1, 61066, Note_on_c, 6, 74, 79
1, 61088, Note_on_c, 3, 74, 0
1, 61120, Control_c, 3, 1, 0
1, 61129, Note_on_c, 6, 66, 0
1, 61133, Note_on_c, 6, 69, 0
1, 61142, Note_on_c, 6, 74, 0
1, 61150, Note_on_c, 2, 62, 83
1, 61156, Note_on_c, 2, 57, 0
1, 61239, Note_on_c, 4, 66, 80
1, 61248, Note_on_c, 9, 38, 76
1, 61248, Note_on_c, 9, 46, 46
1, 61248, Note_on_c, 2, 62, 0
1, 61250, Note_on_c, 2, 57, 93
1, 61252, Note_on_c, 9, 38, 0
1, 61252, Note_on_c, 9, 46, 0
1, 61319, Note_on_c, 1, 38, 0
1, 61342, Note_on_c, 2, 62, 80
1, 61344, Note_on_c, 9, 35, 86
1, 61344, Note_on_c, 1, 38, 104
1, 61344, Note_on_c, 2, 66, 0
1, 61348, Note_on_c, 9, 35, 0
1, 61429, Note_on_c, 1, 38, 0
1, 61437, Note_on_c, 2, 50, 0
1, 61440, Note_on_c, 9, 35, 108
1, 61440, Note_on_c, 1, 38, 103
1, 61440, Note_on_c, 9, 38, 97
1, 61440, Note_on_c, 9, 46, 49
1, 61440, Note_on_c, 2, 50, 88
1, 61444, Note_on_c, 9, 35, 0
1, 61444, Note_on_c, 9, 38, 0
1, 61444, Note_on_c, 9, 46, 0
1, 61482, Note_on_c, 2, 57, 0
1, 61520, Note_on_c, 2, 62, 0
1, 61536, Note_on_c, 9, 35, 68
1, 61537, Note_on_c, 2, 66, 88
1, 61540, Note_on_c, 9, 35, 0
1, 61572, Note_on_c, 4, 57, 0
1, 61632, Note_on_c, 9, 46, 48
1, 61632, Note_on_c, 2, 62, 88
1, 61633, Note_on_c, 4, 57, 81
1, 61635, Note_on_c, 2, 66, 0
1, 61636, Note_on_c, 9, 46, 0
1, 61728, Note_on_c, 9, 35, 93
1, 61729, Note_on_c, 2, 57, 78
1, 61732, Note_on_c, 9, 35, 0
1, 61760, Note_on_c, 2, 62, 0
1, 61767, Note_on_c, 4, 62, 0
1, 61819, Note_on_c, 4, 62, 82
1, 61824, Note_on_c, 9, 46, 48
1, 61824, Note_on_c, 6, 66, 66
1, 61825, Note_on_c, 2, 66, 86
1, 61828, Note_on_c, 9, 46, 0
1, 61828, Note_on_c, 6, 69, 76
1, 61834, Note_on_c, 6, 74, 71
1, 61878, Note_on_c, 1, 38, 0
1, 61897, Note_on_c, 6, 66, 0
1, 61898, Note_on_c, 6, 69, 0
1, 61911, Note_on_c, 4, 66, 0
1, 61912, Note_on_c, 6, 74, 0
1, 61919, Note_on_c, 2, 57, 0
1, 61920, Note_on_c, 9, 35, 85
1, 61920, Note_on_c, 1, 38, 102
1, 61920, Note_on_c, 2, 62, 86
1, 61924, Note_on_c, 9, 35, 0
1, 61993, Note_on_c, 1, 38, 0
1, 62000, Note_on_c, 4, 66, 80
1, 62016, Note_on_c, 1, 33, 103
1, 62016, Note_on_c, 9, 35, 108
1, 62016, Note_on_c, 9, 38, 93
1, 62016, Note_on_c, 9, 46, 46
1, 62018, Note_on_c, 2, 57, 90
1, 62020, Note_on_c, 9, 35, 0
1, 62020, Note_on_c, 9, 38, 0
1, 62020, Note_on_c, 9, 46, 0
1, 62029, Note_on_c, 2, 62, 0
1, 62072, Note_on_c, 2, 66, 0
1, 62109, Note_on_c, 1, 33, 0
1, 62112, Note_on_c, 1, 33, 98
1, 62112, Note_on_c, 9, 35, 85
1, 62112, Note_on_c, 9, 38, 89
1, 62113, Note_on_c, 2, 62, 86
1, 62116, Note_on_c, 9, 35, 0
1, 62116, Note_on_c, 9, 38, 0
1, 62197, Note_on_c, 10, 72, 25
1, 62198, Note_on_c, 10, 72, 0
1, 62205, Note_on_c, 1, 33, 0
1, 62205, Note_on_c, 5, 50, 0
1, 62205, Note_on_c, 2, 50, 0
1, 62205, Note_on_c, 5, 54, 0
1, 62208, Note_on_c, 1, 31, 104
1, 62208, Note_on_c, 9, 35, 105
1, 62208, Note_on_c, 9, 49, 65
1, 62208, Note_on_c, 2, 50, 105
1, 62212, Note_on_c, 9, 35, 0
1, 62212, Note_on_c, 9, 49, 0
1, 62217, Pitch_bend_c, 3, 2432
1, 62219, Note_on_c, 3, 74, 105
1, 62240, Pitch_bend_c, 3, 3840
1, 62256, Pitch_bend_c, 3, 5248
1, 62272, Pitch_bend_c, 3, 6656
1, 62288, Pitch_bend_c, 3, 8192
1, 62299, Note_on_c, 2, 62, 0
1, 62303, Note_on_c, 2, 57, 0
1, 62303, Note_on_c, 2, 70, 76
1, 62308, Note_on_c, 4, 57, 0
1, 62319, Note_on_c, 4, 62, 0
1, 62320, Control_c, 3, 1, 68
1, 62324, Note_on_c, 4, 66, 0
1, 62396, Note_on_c, 4, 58, 78
1, 62400, Note_on_c, 9, 46, 49
1, 62400, Note_on_c, 2, 67, 86
1, 62404, Note_on_c, 9, 46, 0
1, 62496, Note_on_c, 2, 62, 86
1, 62528, Control_c, 3, 1, 0
1, 62541, Note_on_c, 2, 70, 0
1, 62592, Note_on_c, 9, 38, 95
1, 62592, Note_on_c, 9, 46, 46
1, 62592, Note_on_c, 6, 62, 75
1, 62592, Note_on_c, 2, 70, 98
1, 62594, Note_on_c, 4, 62, 82
1, 62596, Note_on_c, 9, 38, 0
1, 62596, Note_on_c, 9, 46, 0
1, 62597, Note_on_c, 6, 67, 76
1, 62600, Note_on_c, 2, 67, 0
1, 62602, Note_on_c, 6, 70, 71
1, 62606, Note_on_c, 3, 74, 0
1, 62645, Note_on_c, 6, 62, 0
1, 62658, Note_on_c, 6, 67, 0
1, 62663, Note_on_c, 6, 70, 0
1, 62686, Note_on_c, 2, 67, 80
1, 62695, Note_on_c, 2, 62, 0
1, 62774, Note_on_c, 4, 67, 78
1, 62784, Note_on_c, 9, 46, 49
1, 62784, Note_on_c, 2, 62, 90
1, 62788, Note_on_c, 9, 46, 0
1, 62805, Note_on_c, 2, 67, 0
1, 62832, Note_on_c, 1, 31, 0
1, 62846, Note_on_c, 3, 72, 93
1, 62861, Note_on_c, 2, 70, 0
1, 62879, Note_on_c, 2, 67, 77
1, 62880, Note_on_c, 1, 31, 100
1, 62880, Note_on_c, 9, 35, 87
1, 62884, Note_on_c, 9, 35, 0
1, 62897, Note_on_c, 3, 72, 0
1, 62923, Note_on_c, 3, 70, 70
1, 62948, Note_on_c, 1, 31, 0
1, 62973, Note_on_c, 2, 50, 0
1, 62976, Note_on_c, 1, 31, 104
1, 62976, Note_on_c, 9, 35, 104
1, 62976, Note_on_c, 9, 46, 46
1, 62976, Note_on_c, 2, 50, 105
1, 62980, Note_on_c, 9, 35, 0
1, 62980, Note_on_c, 9, 46, 0
1, 62980, Note_on_c, 3, 70, 0
1, 63012, Note_on_c, 2, 67, 0
1, 63015, Pitch_bend_c, 3, 2176
1, 63017, Note_on_c, 3, 74, 104
1, 63024, Pitch_bend_c, 3, 4480
1, 63033, Note_on_c, 2, 62, 0
1, 63040, Pitch_bend_c, 3, 6144
1, 63056, Pitch_bend_c, 3, 7552
1, 63072, Pitch_bend_c, 3, 8192
1, 63072, Note_on_c, 2, 70, 92
1, 63104, Control_c, 3, 1, 52
1, 63114, Note_on_c, 4, 58, 0
1, 63168, Note_on_c, 9, 46, 47
1, 63170, Note_on_c, 2, 67, 80
1, 63171, Note_on_c, 4, 58, 86
1, 63172, Note_on_c, 9, 46, 0
1, 63249, Note_on_c, 4, 62, 0
1, 63252, Note_on_c, 4, 67, 0
1, 63266, Note_on_c, 2, 62, 72
1, 63272, Note_on_c, 5, 60, 100
1, 63273, Note_on_c, 2, 70, 0
1, 63296, Pitch_bend_c, 5, 9600
1, 63312, Pitch_bend_c, 5, 12160
1, 63328, Pitch_bend_c, 5, 13696
1, 63328, Control_c, 3, 1, 0
1, 63344, Pitch_bend_c, 5, 16256
1, 63350, Note_on_c, 4, 62, 83
1, 63351, Note_on_c, 2, 67, 0
1, 63352, Note_on_c, 3, 74, 0
1, 63356, Note_on_c, 5, 60, 0
1, 63358, Pitch_bend_c, 5, 8192
1, 63359, Note_on_c, 5, 62, 110
1, 63360, Note_on_c, 9, 38, 96
1, 63360, Note_on_c, 9, 46, 47
1, 63360, Note_on_c, 6, 62, 74
1, 63360, Note_on_c, 2, 70, 90
1, 63364, Note_on_c, 9, 38, 0
1, 63364, Note_on_c, 9, 46, 0
1, 63365, Note_on_c, 6, 67, 78
1, 63370, Note_on_c, 6, 70, 71
1, 63417, Note_on_c, 6, 62, 0
1, 63431, Note_on_c, 6, 67, 0
1, 63434, Note_on_c, 5, 65, 89
1, 63438, Note_on_c, 6, 70, 0
1, 63445, Note_on_c, 5, 62, 0
1, 63454, Note_on_c, 2, 67, 84
1, 63457, Note_on_c, 2, 62, 0
1, 63540, Note_on_c, 4, 67, 81
1, 63541, Note_on_c, 5, 67, 110
1, 63550, Note_on_c, 5, 65, 0
1, 63551, Note_on_c, 2, 62, 92
1, 63552, Note_on_c, 9, 46, 48
1, 63556, Note_on_c, 9, 46, 0
1, 63570, Note_on_c, 2, 67, 0
1, 63619, Note_on_c, 1, 31, 0
1, 63632, Note_on_c, 5, 67, 0
1, 63635, Pitch_bend_c, 5, 2560
1, 63636, Note_on_c, 5, 70, 100
1, 63645, Note_on_c, 2, 70, 0
1, 63648, Note_on_c, 1, 31, 103
1, 63648, Pitch_bend_c, 5, 4864
1, 63648, Note_on_c, 9, 35, 86
1, 63649, Note_on_c, 3, 74, 91
1, 63650, Note_on_c, 2, 67, 84
1, 63652, Note_on_c, 9, 35, 0
1, 63664, Pitch_bend_c, 5, 5888
1, 63680, Pitch_bend_c, 5, 6912
1, 63696, Pitch_bend_c, 5, 7936
1, 63708, Note_on_c, 1, 31, 0
1, 63724, Note_on_c, 3, 74, 0
1, 63741, Note_on_c, 2, 50, 0
1, 63744, Note_on_c, 1, 31, 104
1, 63744, Note_on_c, 9, 35, 108
1, 63744, Note_on_c, 9, 46, 48
1, 63744, Note_on_c, 2, 50, 102
1, 63744, Note_on_c, 5, 67, 104
1, 63745, Note_on_c, 5, 70, 0
1, 63748, Note_on_c, 9, 35, 0
1, 63748, Note_on_c, 9, 46, 0
1, 63766, Pitch_bend_c, 3, 2432
1, 63768, Note_on_c, 3, 82, 109
1, 63776, Pitch_bend_c, 3, 4480
1, 63792, Pitch_bend_c, 3, 7040
1, 63800, Note_on_c, 2, 62, 0
1, 63808, Pitch_bend_c, 3, 8192
1, 63813, Note_on_c, 2, 67, 0
1, 63838, Note_on_c, 2, 70, 88
1, 63840, Control_c, 5, 1, 71
1, 63856, Note_on_c, 3, 82, 0
1, 63872, Note_on_c, 4, 58, 0
1, 63891, Note_on_c, 3, 82, 107
1, 63935, Note_on_c, 2, 67, 92
1, 63936, Note_on_c, 9, 46, 46
1, 63940, Note_on_c, 9, 46, 0
1, 63940, Note_on_c, 4, 58, 81
1, 63975, Note_on_c, 3, 82, 0
1, 63984, Control_c, 5, 1, 95
1, 64006, Note_on_c, 3, 82, 99
1, 64030, Note_on_c, 2, 62, 75
1, 64057, Note_on_c, 2, 70, 0
1, 64059, Note_on_c, 4, 62, 0
1, 64113, Note_on_c, 3, 82, 0
1, 64121, Note_on_c, 4, 62, 82
1, 64128, Note_on_c, 9, 38, 94
1, 64128, Note_on_c, 9, 46, 48
1, 64128, Note_on_c, 6, 62, 72
1, 64128, Note_on_c, 2, 67, 0
1, 64130, Note_on_c, 2, 70, 102
1, 64132, Note_on_c, 9, 38, 0
1, 64132, Note_on_c, 9, 46, 0
1, 64133, Note_on_c, 6, 67, 76
1, 64136, Pitch_bend_c, 3, 3840
1, 64137, Note_on_c, 3, 82, 103
1, 64138, Note_on_c, 6, 70, 71
1, 64144, Control_c, 5, 1, 0
1, 64160, Pitch_bend_c, 3, 5632
1, 64176, Pitch_bend_c, 3, 8192
1, 64186, Note_on_c, 6, 62, 0
1, 64201, Note_on_c, 6, 67, 0
1, 64202, Note_on_c, 4, 67, 0
1, 64208, Note_on_c, 6, 70, 0
1, 64218, Note_on_c, 3, 82, 0
1, 64222, Note_on_c, 2, 67, 83
1, 64228, Note_on_c, 2, 62, 0
1, 64242, Note_on_c, 3, 81, 97
1, 64311, Note_on_c, 4, 67, 80
1, 64320, Note_on_c, 9, 46, 47
1, 64320, Note_on_c, 2, 67, 0
1, 64322, Note_on_c, 2, 62, 93
1, 64324, Note_on_c, 9, 46, 0
1, 64345, Note_on_c, 3, 81, 0
1, 64370, Note_on_c, 3, 79, 102
1, 64388, Note_on_c, 1, 31, 0
1, 64414, Note_on_c, 2, 67, 80
1, 64416, Note_on_c, 1, 31, 101
1, 64416, Note_on_c, 9, 35, 85
1, 64416, Note_on_c, 2, 70, 0
1, 64420, Note_on_c, 9, 35, 0
1, 64477, Note_on_c, 3, 79, 0
1, 64484, Note_on_c, 1, 31, 0
1, 64509, Note_on_c, 2, 50, 0
1, 64512, Note_on_c, 1, 31, 104
1, 64512, Note_on_c, 9, 35, 108
1, 64512, Note_on_c, 9, 46, 49
1, 64512, Note_on_c, 2, 50, 88
1, 64514, Note_on_c, 3, 74, 100
1, 64516, Note_on_c, 9, 35, 0
1, 64516, Note_on_c, 9, 46, 0
1, 64554, Note_on_c, 2, 62, 0
1, 64560, Control_c, 3, 1, 61
1, 64592, Note_on_c, 2, 67, 0
1, 64609, Note_on_c, 2, 70, 88
1, 64644, Note_on_c, 4, 58, 0
1, 64704, Control_c, 3, 1, 0
1, 64704, Note_on_c, 9, 46, 46
1, 64704, Note_on_c, 2, 67, 88
1, 64705, Note_on_c, 4, 58, 81
1, 64707, Note_on_c, 2, 70, 0
1, 64708, Note_on_c, 9, 46, 0
1, 64730, Note_on_c, 3, 74, 0
1, 64790, Note_on_c, 5, 67, 0
1, 64801, Note_on_c, 2, 62, 78
1, 64808, Note_on_c, 5, 61, 99
1, 64808, Note_on_c, 5, 64, 88
1, 64832, Note_on_c, 2, 67, 0
1, 64839, Note_on_c, 4, 62, 0
1, 64848, Pitch_bend_c, 5, 8832
1, 64864, Pitch_bend_c, 5, 9600
1, 64880, Pitch_bend_c, 5, 10624
1, 64891, Note_on_c, 4, 62, 82
1, 64894, Pitch_bend_c, 3, 3584
1, 64895, Note_on_c, 3, 74, 104
1, 64896, Note_on_c, 9, 38, 95
1, 64896, Note_on_c, 9, 46, 47
1, 64896, Note_on_c, 6, 62, 72
1, 64897, Note_on_c, 2, 70, 86
1, 64900, Note_on_c, 9, 38, 0
1, 64900, Note_on_c, 9, 46, 0
1, 64901, Note_on_c, 6, 67, 75
1, 64903, Pitch_bend_c, 5, 8192
1, 64904, Note_on_c, 5, 65, 93
1, 64906, Note_on_c, 6, 70, 70
1, 64912, Pitch_bend_c, 3, 5248
1, 64919, Note_on_c, 5, 61, 0
1, 64919, Note_on_c, 5, 64, 0
1, 64928, Control_c, 5, 1, 95
1, 64928, Pitch_bend_c, 3, 6400
1, 64944, Pitch_bend_c, 3, 7552
1, 64945, Note_on_c, 6, 62, 0
1, 64955, Note_on_c, 6, 67, 0
1, 64959, Note_on_c, 6, 70, 0
1, 64960, Control_c, 5, 1, 0
1, 64960, Pitch_bend_c, 3, 8192
1, 64976, Pitch_bend_c, 5, 7424
1, 64983, Note_on_c, 4, 67, 0
1, 64991, Note_on_c, 2, 62, 0
1, 64992, Pitch_bend_c, 5, 5632
1, 64992, Note_on_c, 2, 67, 86
1, 65002, Note_on_c, 3, 74, 0
1, 65008, Pitch_bend_c, 5, 4352
1, 65024, Pitch_bend_c, 5, 2816
1, 65025, Note_on_c, 3, 72, 107
1, 65042, Note_on_c, 5, 65, 0
1, 65045, Pitch_bend_c, 5, 8192
1, 65046, Note_on_c, 5, 58, 99
1, 65072, Note_on_c, 4, 67, 80
1, 65082, Note_on_c, 5, 58, 0
1, 65088, Note_on_c, 9, 46, 49
1, 65090, Note_on_c, 2, 62, 90
1, 65092, Note_on_c, 9, 46, 0
1, 65099, Note_on_c, 5, 55, 83
1, 65101, Note_on_c, 2, 67, 0
1, 65135, Note_on_c, 3, 72, 0
1, 65144, Note_on_c, 2, 70, 0
1, 65154, Note_on_c, 3, 70, 97
1, 65179, Note_on_c, 5, 55, 0
1, 65185, Note_on_c, 2, 67, 86
1, 65196, Note_on_c, 5, 53, 94
1, 65224, Note_on_c, 1, 31, 0
1, 65248, Note_on_c, 3, 70, 0
1, 65271, Note_on_c, 3, 73, 107
1, 65273, Note_on_c, 10, 72, 37
1, 65274, Note_on_c, 5, 53, 0
1, 65274, Note_on_c, 10, 72, 0
1, 65277, Note_on_c, 2, 50, 0
1, 65280, Note_on_c, 1, 33, 104
1, 65280, Note_on_c, 9, 35, 106
1, 65280, Note_on_c, 2, 45, 105
1, 65280, Note_on_c, 9, 46, 49
1, 65284, Note_on_c, 9, 35, 0
1, 65284, Note_on_c, 9, 46, 0
1, 65291, Note_on_c, 5, 52, 101
1, 65344, Control_c, 3, 1, 46
1, 65371, Note_on_c, 2, 67, 0
1, 65374, Note_on_c, 2, 73, 88
1, 65375, Note_on_c, 2, 62, 0
1, 65380, Note_on_c, 4, 58, 0
1, 65391, Note_on_c, 4, 62, 0
1, 65396, Note_on_c, 4, 67, 0
1, 65471, Note_on_c, 2, 69, 92
1, 65472, Note_on_c, 9, 46, 46
1, 65476, Note_on_c, 9, 46, 0
1, 65476, Note_on_c, 4, 57, 81
1, 65566, Note_on_c, 2, 64, 75
1, 65593, Note_on_c, 2, 73, 0
1, 65657, Note_on_c, 4, 61, 82
1, 65664, Note_on_c, 9, 38, 94
1, 65664, Note_on_c, 9, 46, 49
1, 65664, Note_on_c, 6, 64, 71
1, 65664, Note_on_c, 2, 69, 0
1, 65666, Note_on_c, 2, 73, 102
1, 65668, Note_on_c, 9, 38, 0
1, 65668, Note_on_c, 9, 46, 0
1, 65669, Note_on_c, 6, 69, 78
1, 65674, Note_on_c, 6, 73, 70
1, 65696, Note_on_c, 3, 73, 0
1, 65696, Control_c, 3, 1, 0
1, 65721, Note_on_c, 6, 64, 0
1, 65730, Note_on_c, 6, 69, 0
1, 65737, Note_on_c, 6, 73, 0
1, 65744, Control_c, 5, 1, 38
1, 65758, Note_on_c, 2, 69, 83
1, 65764, Note_on_c, 2, 64, 0
1, 65847, Note_on_c, 4, 64, 80
1, 65856, Note_on_c, 9, 46, 49
1, 65856, Note_on_c, 2, 69, 0
1, 65858, Note_on_c, 2, 64, 93
1, 65860, Note_on_c, 9, 46, 0
1, 65929, Note_on_c, 1, 33, 0
1, 65950, Note_on_c, 2, 69, 80
1, 65952, Note_on_c, 1, 33, 104
1, 65952, Note_on_c, 9, 35, 86
1, 65952, Note_on_c, 2, 73, 0
1, 65956, Note_on_c, 9, 35, 0
1, 66034, Note_on_c, 1, 33, 0
1, 66045, Note_on_c, 2, 45, 0
1, 66048, Note_on_c, 1, 33, 103
1, 66048, Note_on_c, 9, 35, 107
1, 66048, Note_on_c, 2, 45, 105
1, 66048, Note_on_c, 9, 46, 49
1, 66052, Note_on_c, 9, 35, 0
1, 66052, Note_on_c, 9, 46, 0
1, 66090, Note_on_c, 2, 64, 0
1, 66128, Note_on_c, 2, 69, 0
1, 66145, Note_on_c, 2, 73, 88
1, 66180, Note_on_c, 4, 57, 0
1, 66240, Note_on_c, 9, 46, 48
1, 66240, Note_on_c, 2, 69, 88
1, 66241, Note_on_c, 4, 57, 81
1, 66243, Note_on_c, 2, 73, 0
1, 66244, Note_on_c, 9, 46, 0
1, 66337, Note_on_c, 2, 64, 78
1, 66368, Note_on_c, 2, 69, 0
1, 66375, Note_on_c, 4, 61, 0
1, 66427, Note_on_c, 4, 61, 82
1, 66431, Note_on_c, 3, 73, 104
1, 66432, Note_on_c, 9, 38, 94
1, 66432, Note_on_c, 9, 46, 47
1, 66432, Note_on_c, 6, 64, 72
1, 66433, Note_on_c, 2, 73, 86
1, 66436, Note_on_c, 9, 38, 0
1, 66436, Note_on_c, 9, 46, 0
1, 66437, Note_on_c, 6, 69, 78
1, 66442, Note_on_c, 6, 73, 71
1, 66496, Note_on_c, 6, 64, 0
1, 66503, Note_on_c, 6, 69, 0
1, 66510, Note_on_c, 6, 73, 0
1, 66519, Note_on_c, 4, 64, 0
1, 66527, Note_on_c, 2, 64, 0
1, 66528, Note_on_c, 2, 69, 86
1, 66538, Note_on_c, 3, 73, 0
1, 66561, Note_on_c, 3, 71, 107
1, 66608, Note_on_c, 4, 64, 80
1, 66624, Note_on_c, 9, 46, 48
1, 66626, Note_on_c, 2, 64, 90
1, 66628, Note_on_c, 9, 46, 0
1, 66637, Note_on_c, 2, 69, 0
1, 66671, Note_on_c, 3, 71, 0
1, 66680, Note_on_c, 2, 73, 0
1, 66690, Note_on_c, 3, 69, 97
1, 66721, Note_on_c, 2, 69, 86
1, 66773, Note_on_c, 1, 33, 0
1, 66784, Note_on_c, 3, 69, 0
1, 66797, Note_on_c, 10, 72, 38
1, 66798, Note_on_c, 10, 72, 0
1, 66806, Pitch_bend_c, 3, 4224
1, 66807, Note_on_c, 3, 74, 107
1, 66810, Note_on_c, 5, 52, 0
1, 66813, Note_on_c, 2, 45, 0
1, 66816, Note_on_c, 9, 35, 107
1, 66816, Note_on_c, 1, 38, 104
1, 66816, Note_on_c, 9, 46, 49
1, 66816, Note_on_c, 2, 50, 102
1, 66820, Note_on_c, 9, 35, 0
1, 66820, Note_on_c, 9, 46, 0
1, 66832, Pitch_bend_c, 3, 5632
1, 66848, Pitch_bend_c, 3, 6656
1, 66864, Pitch_bend_c, 3, 8192
1, 66907, Note_on_c, 2, 69, 0
1, 66910, Note_on_c, 2, 66, 88
1, 66911, Note_on_c, 2, 64, 0
1, 66916, Note_on_c, 4, 57, 0
1, 66927, Note_on_c, 4, 61, 0
1, 66932, Note_on_c, 4, 64, 0
1, 66992, Control_c, 3, 1, 44
1, 67007, Note_on_c, 2, 62, 92
1, 67008, Note_on_c, 9, 46, 48
1, 67012, Note_on_c, 9, 46, 0
1, 67012, Note_on_c, 4, 57, 81
1, 67102, Note_on_c, 2, 57, 75
1, 67104, Note_on_c, 9, 38, 85
1, 67108, Note_on_c, 9, 38, 0
1, 67129, Note_on_c, 2, 66, 0
1, 67193, Note_on_c, 4, 62, 82
1, 67200, Note_on_c, 9, 38, 97
1, 67200, Note_on_c, 9, 46, 48
1, 67200, Note_on_c, 9, 49, 64
1, 67200, Note_on_c, 2, 62, 0
1, 67200, Note_on_c, 6, 66, 71
1, 67202, Note_on_c, 2, 66, 102
1, 67204, Note_on_c, 9, 38, 0
1, 67204, Note_on_c, 9, 46, 0
1, 67204, Note_on_c, 9, 49, 0
1, 67205, Note_on_c, 6, 69, 79
1, 67210, Note_on_c, 6, 74, 75
1, 67232, Note_on_c, 3, 74, 0
1, 67253, Note_on_c, 6, 69, 0
1, 67256, Note_on_c, 6, 66, 0
1, 67258, Note_on_c, 6, 74, 0
1, 67264, Control_c, 3, 1, 0
1, 67294, Note_on_c, 2, 62, 83
1, 67300, Note_on_c, 2, 57, 0
1, 67383, Note_on_c, 4, 66, 80
1, 67392, Note_on_c, 9, 38, 76
1, 67392, Note_on_c, 9, 46, 46
1, 67392, Note_on_c, 2, 62, 0
1, 67394, Note_on_c, 2, 57, 93
1, 67396, Note_on_c, 9, 38, 0
1, 67396, Note_on_c, 9, 46, 0
1, 67463, Note_on_c, 1, 38, 0
1, 67486, Note_on_c, 2, 62, 80
1, 67488, Note_on_c, 9, 35, 86
1, 67488, Note_on_c, 1, 38, 104
1, 67488, Note_on_c, 2, 66, 0
1, 67488, Note_on_c, 2, 67, 84
1, 67492, Note_on_c, 9, 35, 0
1, 67573, Note_on_c, 1, 38, 0
1, 67581, Note_on_c, 2, 50, 0
1, 67581, Note_on_c, 2, 67, 0
1, 67584, Note_on_c, 1, 38, 103
1, 67584, Control_c, 5, 7, 31
1, 67584, Note_on_c, 9, 35, 108
1, 67584, Note_on_c, 9, 38, 97
1, 67584, Note_on_c, 9, 46, 49
1, 67584, Note_on_c, 2, 50, 88
1, 67585, Note_on_c, 5, 45, 74
1, 67585, Note_on_c, 2, 66, 100
1, 67588, Note_on_c, 9, 35, 0
1, 67588, Note_on_c, 9, 38, 0
1, 67588, Note_on_c, 9, 46, 0
1, 67588, Note_on_c, 5, 50, 105
1, 67600, Control_c, 5, 7, 31
1, 67616, Control_c, 5, 7, 31
1, 67626, Note_on_c, 2, 57, 0
1, 67632, Control_c, 5, 7, 34
1, 67648, Control_c, 5, 7, 34
1, 67664, Control_c, 5, 7, 36
1, 67680, Control_c, 5, 7, 42
1, 67680, Note_on_c, 9, 43, 85
1, 67684, Note_on_c, 9, 43, 0
1, 67696, Control_c, 5, 7, 44
1, 67712, Control_c, 5, 7, 47
1, 67716, Note_on_c, 4, 57, 0
1, 67728, Control_c, 5, 7, 51
1, 67744, Control_c, 5, 7, 51
1, 67760, Control_c, 5, 7, 53
1, 67776, Control_c, 5, 7, 56
1, 67792, Control_c, 5, 7, 61
1, 67808, Control_c, 5, 7, 64
1, 67824, Control_c, 5, 7, 66
1, 67840, Control_c, 5, 7, 69
1, 67856, Control_c, 5, 7, 71
1, 67872, Control_c, 5, 7, 76
1, 67872, Note_on_c, 9, 43, 76
1, 67876, Note_on_c, 9, 43, 0
1, 67888, Control_c, 5, 7, 76
1, 67904, Control_c, 5, 7, 82
1, 67911, Note_on_c, 4, 62, 0
1, 67920, Control_c, 5, 7, 84
1, 67936, Control_c, 5, 7, 87
1, 67952, Control_c, 5, 7, 89
1, 67968, Control_c, 5, 7, 92
1, 67968, Note_on_c, 9, 35, 102
1, 67968, Note_on_c, 9, 38, 95
1, 67968, Note_on_c, 9, 43, 95
1, 67972, Note_on_c, 9, 35, 0
1, 67972, Note_on_c, 9, 38, 0
1, 67972, Note_on_c, 9, 43, 0
1, 67984, Control_c, 5, 7, 94
1, 68000, Control_c, 5, 7, 97
1, 68016, Control_c, 5, 7, 101
1, 68022, Note_on_c, 1, 38, 0
1, 68032, Control_c, 5, 7, 104
1, 68048, Control_c, 5, 7, 109
1, 68055, Note_on_c, 4, 66, 0
1, 68064, Note_on_c, 1, 38, 102
1, 68064, Control_c, 5, 7, 112
1, 68064, Note_on_c, 9, 35, 68
1, 68064, Note_on_c, 9, 43, 85
1, 68068, Note_on_c, 9, 35, 0
1, 68068, Note_on_c, 9, 43, 0
1, 68080, Control_c, 5, 7, 115
1, 68096, Control_c, 5, 7, 122
1, 68137, Note_on_c, 1, 38, 0
1, 68144, Control_c, 5, 1, 115
1, 68160, Note_on_c, 9, 35, 102
1, 68160, Note_on_c, 1, 38, 103
1, 68160, Note_on_c, 9, 38, 93
1, 68160, Note_on_c, 9, 43, 96
1, 68164, Note_on_c, 9, 35, 0
1, 68164, Note_on_c, 9, 38, 0
1, 68164, Note_on_c, 9, 43, 0
1, 68240, Note_on_c, 2, 62, 0
1, 68253, Note_on_c, 1, 38, 0
1, 68256, Note_on_c, 9, 35, 85
1, 68256, Note_on_c, 1, 38, 98
1, 68256, Note_on_c, 9, 43, 85
1, 68260, Note_on_c, 9, 35, 0
1, 68260, Note_on_c, 9, 43, 0
1, 68304, Control_c, 5, 1, 0
1, 68307, Note_on_c, 2, 66, 0
1, 68341, Note_on_c, 10, 72, 25
1, 68342, Note_on_c, 10, 72, 0
1, 68347, Note_on_c, 5, 45, 0
1, 68348, Note_on_c, 5, 50, 0
1, 68349, Note_on_c, 1, 38, 0
1, 68349, Note_on_c, 2, 50, 0
1, 68352, Note_on_c, 1, 31, 93
1, 68352, Note_on_c, 9, 35, 108
1, 68352, Note_on_c, 9, 49, 64
1, 68352, Note_on_c, 5, 50, 68
1, 68352, Note_on_c, 6, 67, 93
1, 68352, Tempo, 545454
1, 68353, Note_on_c, 6, 70, 97
1, 68356, Note_on_c, 9, 35, 0
1, 68356, Note_on_c, 9, 49, 0
1, 68356, Note_on_c, 5, 55, 114
1, 68544, Note_on_c, 9, 51, 46
1, 68548, Note_on_c, 9, 51, 0
1, 68688, Control_c, 5, 1, 42
1, 68736, Note_on_c, 9, 38, 94
1, 68736, Note_on_c, 9, 51, 49
1, 68736, Note_on_c, 3, 79, 118
1, 68740, Note_on_c, 9, 38, 0
1, 68740, Note_on_c, 9, 51, 0
1, 68768, Control_c, 3, 1, 38
1, 68800, Control_c, 5, 1, 97
1, 68877, Note_on_c, 3, 79, 0
1, 68880, Control_c, 3, 1, 0
1, 68928, Note_on_c, 9, 51, 46
1, 68929, Note_on_c, 3, 79, 112
1, 68932, Note_on_c, 9, 51, 0
1, 68992, Control_c, 5, 1, 45
1, 68992, Control_c, 3, 1, 47
1, 68998, Note_on_c, 1, 31, 0
1, 69024, Note_on_c, 1, 31, 105
1, 69024, Note_on_c, 9, 35, 87
1, 69028, Note_on_c, 9, 35, 0
1, 69056, Control_c, 3, 1, 0
1, 69072, Control_c, 5, 1, 0
1, 69075, Note_on_c, 3, 79, 0
1, 69106, Note_on_c, 5, 50, 0
1, 69108, Note_on_c, 6, 67, 0
1, 69110, Note_on_c, 1, 31, 0
1, 69112, Note_on_c, 5, 55, 0
1, 69112, Pitch_bend_c, 3, 2560
1, 69113, Note_on_c, 3, 82, 112
1, 69114, Pitch_bend_c, 5, 5376
1, 69115, Note_on_c, 5, 51, 99
1, 69120, Note_on_c, 1, 27, 95
1, 69120, Note_on_c, 9, 35, 105
1, 69120, Note_on_c, 9, 51, 47
1, 69124, Note_on_c, 9, 35, 0
1, 69124, Note_on_c, 9, 51, 0
1, 69125, Note_on_c, 6, 70, 0
1, 69126, Note_on_c, 5, 58, 72
1, 69128, Note_on_c, 6, 63, 87
1, 69128, Note_on_c, 6, 70, 93
1, 69136, Pitch_bend_c, 5, 6784
1, 69136, Pitch_bend_c, 3, 4864
1, 69152, Pitch_bend_c, 5, 8192
1, 69152, Pitch_bend_c, 3, 6144
1, 69168, Pitch_bend_c, 3, 7296
1, 69184, Pitch_bend_c, 3, 8192
1, 69263, Note_on_c, 3, 82, 0
1, 69287, Note_on_c, 3, 81, 109
1, 69312, Note_on_c, 9, 51, 49
1, 69316, Note_on_c, 9, 51, 0
1, 69353, Note_on_c, 3, 81, 0
1, 69384, Note_on_c, 3, 79, 118
1, 69408, Control_c, 5, 1, 74
1, 69440, Control_c, 3, 1, 55
1, 69504, Note_on_c, 9, 38, 95
1, 69504, Note_on_c, 9, 51, 48
1, 69508, Note_on_c, 9, 38, 0
1, 69508, Note_on_c, 9, 51, 0
1, 69584, Control_c, 5, 1, 89
1, 69696, Note_on_c, 9, 51, 49
1, 69700, Note_on_c, 9, 51, 0
1, 69738, Note_on_c, 1, 27, 0
1, 69744, Control_c, 3, 1, 0
1, 69776, Control_c, 5, 1, 0
1, 69792, Note_on_c, 1, 27, 100
1, 69792, Note_on_c, 9, 35, 88
1, 69796, Note_on_c, 9, 35, 0
1, 69808, Pitch_bend_c, 5, 7680
1, 69824, Pitch_bend_c, 5, 6144
1, 69829, Note_on_c, 3, 79, 0
1, 69840, Pitch_bend_c, 5, 5120
1, 69856, Pitch_bend_c, 5, 3200
1, 69869, Note_on_c, 5, 51, 0
1, 69871, Note_on_c, 3, 77, 109
1, 69872, Pitch_bend_c, 5, 1664
1, 69883, Note_on_c, 5, 58, 0
1, 69885, Note_on_c, 1, 27, 0
1, 69888, Note_on_c, 1, 34, 102
1, 69888, Note_on_c, 9, 35, 106
1, 69888, Note_on_c, 9, 51, 48
1, 69889, Pitch_bend_c, 5, 8192
1, 69890, Note_on_c, 5, 46, 113
1, 69892, Note_on_c, 9, 35, 0
1, 69892, Note_on_c, 9, 51, 0
1, 69892, Note_on_c, 5, 53, 67
1, 69901, Note_on_c, 6, 63, 0
1, 69901, Note_on_c, 6, 70, 0
1, 69904, Note_on_c, 6, 65, 91
1, 69908, Note_on_c, 6, 70, 85
1, 70032, Note_on_c, 3, 77, 0
1, 70070, Note_on_c, 3, 77, 107
1, 70080, Note_on_c, 9, 51, 47
1, 70084, Note_on_c, 9, 51, 0
1, 70112, Control_c, 5, 1, 65
1, 70149, Note_on_c, 3, 77, 0
1, 70161, Pitch_bend_c, 3, 4224
1, 70162, Note_on_c, 3, 77, 104
1, 70176, Pitch_bend_c, 3, 5504
1, 70192, Pitch_bend_c, 3, 6656
1, 70208, Pitch_bend_c, 3, 8192
1, 70272, Note_on_c, 9, 38, 95
1, 70272, Note_on_c, 9, 51, 48
1, 70276, Note_on_c, 9, 38, 0
1, 70276, Note_on_c, 9, 51, 0
1, 70327, Note_on_c, 3, 77, 0
1, 70351, Note_on_c, 3, 74, 109
1, 70400, Control_c, 5, 1, 97
1, 70408, Note_on_c, 3, 74, 0
1, 70441, Note_on_c, 3, 70, 104
1, 70464, Note_on_c, 9, 51, 46
1, 70468, Note_on_c, 9, 51, 0
1, 70506, Note_on_c, 3, 70, 0
1, 70534, Note_on_c, 3, 72, 104
1, 70541, Note_on_c, 1, 34, 0
1, 70544, Pitch_bend_c, 5, 8192
1, 70560, Note_on_c, 1, 34, 100
1, 70560, Pitch_bend_c, 5, 7040
1, 70560, Note_on_c, 9, 35, 86
1, 70564, Note_on_c, 9, 35, 0
1, 70576, Pitch_bend_c, 5, 5120
1, 70592, Pitch_bend_c, 5, 3840
1, 70608, Pitch_bend_c, 5, 2688
1, 70624, Pitch_bend_c, 5, 1408
1, 70633, Note_on_c, 6, 65, 0
1, 70636, Note_on_c, 1, 34, 0
1, 70640, Note_on_c, 5, 46, 0
1, 70640, Control_c, 5, 1, 0
1, 70645, Note_on_c, 5, 53, 0
1, 70650, Note_on_c, 6, 70, 0
1, 70653, Note_on_c, 6, 69, 86
1, 70654, Pitch_bend_c, 5, 8192
1, 70655, Note_on_c, 5, 41, 107
1, 70655, Note_on_c, 6, 65, 82
1, 70656, Note_on_c, 1, 29, 102
1, 70656, Note_on_c, 9, 35, 105
1, 70656, Note_on_c, 9, 51, 48
1, 70660, Note_on_c, 9, 35, 0
1, 70660, Note_on_c, 9, 51, 0
1, 70661, Note_on_c, 5, 48, 68
1, 70704, Control_c, 3, 1, 43
1, 70848, Note_on_c, 9, 51, 47
1, 70852, Note_on_c, 9, 51, 0
1, 71040, Note_on_c, 9, 38, 94
1, 71040, Note_on_c, 9, 51, 48
1, 71044, Note_on_c, 9, 38, 0
1, 71044, Note_on_c, 9, 51, 0
1, 71120, Control_c, 3, 1, 0
1, 71168, Control_c, 5, 1, 58
1, 71210, Note_on_c, 3, 72, 0
1, 71232, Note_on_c, 9, 51, 49
1, 71236, Note_on_c, 9, 51, 0
1, 71301, Note_on_c, 1, 29, 0
1, 71328, Note_on_c, 1, 29, 102
1, 71375, Note_on_c, 5, 41, 0
1, 71381, Note_on_c, 5, 48, 0
1, 71392, Control_c, 5, 1, 0
1, 71411, Note_on_c, 1, 29, 0
1, 71422, Note_on_c, 6, 65, 0
1, 71424, Note_on_c, 1, 31, 93
1, 71424, Note_on_c, 9, 35, 106
1, 71424, Note_on_c, 5, 50, 68
1, 71424, Note_on_c, 9, 51, 49
1, 71424, Note_on_c, 6, 69, 0
1, 71425, Note_on_c, 6, 67, 87
1, 71425, Note_on_c, 6, 70, 94
1, 71428, Note_on_c, 9, 35, 0
1, 71428, Note_on_c, 9, 51, 0
1, 71428, Note_on_c, 5, 55, 114
1, 71616, Note_on_c, 9, 51, 46
1, 71620, Note_on_c, 9, 51, 0
1, 71728, Control_c, 5, 1, 48
1, 71808, Note_on_c, 9, 38, 95
1, 71808, Note_on_c, 9, 51, 47
1, 71808, Note_on_c, 3, 79, 118
1, 71812, Note_on_c, 9, 38, 0
1, 71812, Note_on_c, 9, 51, 0
1, 71840, Control_c, 3, 1, 38
1, 71872, Control_c, 5, 1, 97
1, 71949, Note_on_c, 3, 79, 0
1, 71952, Control_c, 3, 1, 0
1, 72000, Note_on_c, 9, 51, 49
1, 72001, Note_on_c, 3, 79, 112
1, 72004, Note_on_c, 9, 51, 0
1, 72064, Control_c, 5, 1, 45
1, 72064, Control_c, 3, 1, 47
1, 72070, Note_on_c, 1, 31, 0
1, 72096, Note_on_c, 1, 31, 105
1, 72096, Note_on_c, 9, 35, 85
1, 72100, Note_on_c, 9, 35, 0
1, 72128, Control_c, 3, 1, 0
1, 72144, Control_c, 5, 1, 0
1, 72147, Note_on_c, 3, 79, 0
1, 72178, Note_on_c, 5, 50, 0
1, 72182, Note_on_c, 1, 31, 0
1, 72184, Note_on_c, 5, 55, 0
1, 72184, Note_on_c, 6, 70, 0
1, 72184, Pitch_bend_c, 3, 2560
1, 72185, Note_on_c, 3, 82, 112
1, 72186, Pitch_bend_c, 5, 5376
1, 72187, Note_on_c, 5, 51, 99
1, 72187, Note_on_c, 6, 70, 94
1, 72189, Note_on_c, 6, 63, 76
1, 72192, Note_on_c, 1, 27, 95
1, 72192, Note_on_c, 9, 35, 105
1, 72192, Note_on_c, 9, 51, 47
1, 72196, Note_on_c, 9, 35, 0
1, 72196, Note_on_c, 9, 51, 0
1, 72198, Note_on_c, 5, 58, 72
1, 72199, Note_on_c, 6, 67, 0
1, 72208, Pitch_bend_c, 5, 6784
1, 72208, Pitch_bend_c, 3, 4864
1, 72224, Pitch_bend_c, 5, 8192
1, 72224, Pitch_bend_c, 3, 6144
1, 72240, Pitch_bend_c, 3, 7296
1, 72256, Pitch_bend_c, 3, 8192
1, 72335, Note_on_c, 3, 82, 0
1, 72359, Note_on_c, 3, 81, 109
1, 72384, Note_on_c, 9, 51, 46
1, 72388, Note_on_c, 9, 51, 0
1, 72425, Note_on_c, 3, 81, 0
1, 72456, Note_on_c, 3, 79, 118
1, 72480, Control_c, 5, 1, 74
1, 72512, Control_c, 3, 1, 55
1, 72576, Note_on_c, 9, 38, 94
1, 72576, Note_on_c, 9, 51, 48
1, 72580, Note_on_c, 9, 38, 0
1, 72580, Note_on_c, 9, 51, 0
1, 72656, Control_c, 5, 1, 89
1, 72768, Note_on_c, 9, 51, 47
1, 72772, Note_on_c, 9, 51, 0
1, 72810, Note_on_c, 1, 27, 0
1, 72816, Control_c, 3, 1, 0
1, 72848, Control_c, 5, 1, 0
1, 72864, Note_on_c, 1, 27, 100
1, 72880, Pitch_bend_c, 5, 7680
1, 72896, Pitch_bend_c, 5, 6144
1, 72901, Note_on_c, 3, 79, 0
1, 72912, Pitch_bend_c, 5, 5120
1, 72928, Pitch_bend_c, 5, 3200
1, 72938, Note_on_c, 6, 70, 0
1, 72941, Note_on_c, 5, 51, 0
1, 72943, Note_on_c, 3, 77, 109
1, 72944, Pitch_bend_c, 5, 1664
1, 72955, Note_on_c, 5, 58, 0
1, 72956, Note_on_c, 6, 63, 0
1, 72957, Note_on_c, 1, 27, 0
1, 72959, Note_on_c, 6, 70, 86
1, 72960, Note_on_c, 1, 34, 102
1, 72960, Note_on_c, 9, 35, 104
1, 72960, Note_on_c, 9, 51, 49
1, 72961, Pitch_bend_c, 5, 8192
1, 72962, Note_on_c, 5, 46, 113
1, 72962, Note_on_c, 6, 65, 91
1, 72964, Note_on_c, 9, 35, 0
1, 72964, Note_on_c, 9, 51, 0
1, 72964, Note_on_c, 5, 53, 67
1, 73104, Note_on_c, 3, 77, 0
1, 73142, Note_on_c, 3, 77, 107
1, 73152, Note_on_c, 9, 51, 48
1, 73156, Note_on_c, 9, 51, 0
1, 73184, Control_c, 5, 1, 65
1, 73221, Note_on_c, 3, 77, 0
1, 73233, Pitch_bend_c, 3, 4224
1, 73234, Note_on_c, 3, 77, 104
1, 73248, Pitch_bend_c, 3, 5504
1, 73248, Note_on_c, 9, 38, 68
1, 73252, Note_on_c, 9, 38, 0
1, 73264, Pitch_bend_c, 3, 6656
1, 73280, Pitch_bend_c, 3, 8192
1, 73344, Note_on_c, 9, 38, 97
1, 73344, Note_on_c, 9, 51, 48
1, 73348, Note_on_c, 9, 38, 0
1, 73348, Note_on_c, 9, 51, 0
1, 73399, Note_on_c, 3, 77, 0
1, 73423, Note_on_c, 3, 74, 109
1, 73472, Control_c, 5, 1, 97
1, 73480, Note_on_c, 3, 74, 0
1, 73513, Note_on_c, 3, 70, 104
1, 73536, Note_on_c, 9, 38, 76
1, 73536, Note_on_c, 9, 51, 46
1, 73540, Note_on_c, 9, 38, 0
1, 73540, Note_on_c, 9, 51, 0
1, 73578, Note_on_c, 3, 70, 0
1, 73586, Note_on_c, 1, 34, 0
1, 73606, Note_on_c, 3, 72, 104
1, 73616, Pitch_bend_c, 5, 8192
1, 73632, Note_on_c, 1, 34, 100
1, 73632, Pitch_bend_c, 5, 7040
1, 73632, Note_on_c, 9, 35, 86
1, 73636, Note_on_c, 9, 35, 0
1, 73648, Pitch_bend_c, 5, 5120
1, 73664, Pitch_bend_c, 5, 3840
1, 73680, Pitch_bend_c, 5, 2688
1, 73696, Pitch_bend_c, 5, 1408
1, 73707, Note_on_c, 6, 70, 0
1, 73712, Note_on_c, 5, 46, 0
1, 73712, Control_c, 5, 1, 0
1, 73717, Note_on_c, 5, 53, 0
1, 73718, Note_on_c, 6, 65, 0
1, 73719, Note_on_c, 1, 34, 0
1, 73721, Note_on_c, 6, 69, 87
1, 73725, Note_on_c, 6, 65, 88
1, 73726, Pitch_bend_c, 5, 8192
1, 73727, Note_on_c, 5, 41, 107
1, 73728, Note_on_c, 1, 29, 110
1, 73728, Note_on_c, 9, 35, 108
1, 73728, Note_on_c, 9, 38, 97
1, 73728, Note_on_c, 9, 51, 49
1, 73732, Note_on_c, 9, 35, 0
1, 73732, Note_on_c, 9, 38, 0
1, 73732, Note_on_c, 9, 51, 0
1, 73733, Note_on_c, 5, 48, 68
1, 73776, Control_c, 3, 1, 43
1, 73797, Note_on_c, 1, 29, 0
1, 73824, Note_on_c, 1, 29, 96
1, 73824, Note_on_c, 9, 35, 68
1, 73828, Note_on_c, 9, 35, 0
1, 73920, Note_on_c, 9, 51, 48
1, 73924, Note_on_c, 9, 51, 0
1, 73965, Note_on_c, 1, 29, 0
1, 74016, Note_on_c, 1, 29, 95
1, 74016, Note_on_c, 9, 35, 93
1, 74020, Note_on_c, 9, 35, 0
1, 74112, Note_on_c, 9, 51, 48
1, 74116, Note_on_c, 9, 51, 0
1, 74189, Note_on_c, 1, 29, 0
1, 74192, Control_c, 3, 1, 0
1, 74208, Note_on_c, 1, 26, 95
1, 74208, Note_on_c, 9, 35, 85
1, 74212, Note_on_c, 9, 35, 0
1, 74240, Control_c, 5, 1, 58
1, 74282, Note_on_c, 3, 72, 0
1, 74293, Note_on_c, 1, 26, 0
1, 74304, Note_on_c, 1, 29, 95
1, 74304, Note_on_c, 9, 35, 108
1, 74304, Note_on_c, 9, 38, 93
1, 74304, Note_on_c, 9, 51, 46
1, 74308, Note_on_c, 9, 35, 0
1, 74308, Note_on_c, 9, 38, 0
1, 74308, Note_on_c, 9, 51, 0
1, 74397, Note_on_c, 1, 29, 0
1, 74400, Note_on_c, 1, 29, 102
1, 74400, Note_on_c, 9, 35, 85
1, 74400, Note_on_c, 9, 38, 89
1, 74404, Note_on_c, 9, 35, 0
1, 74404, Note_on_c, 9, 38, 0
1, 74447, Note_on_c, 5, 41, 0
1, 74453, Note_on_c, 5, 48, 0
1, 74464, Control_c, 5, 1, 0
1, 74472, Note_on_c, 6, 69, 0
1, 74483, Note_on_c, 1, 29, 0
1, 74496, Note_on_c, 1, 31, 110
1, 74496, Note_on_c, 9, 35, 105
1, 74496, Note_on_c, 9, 49, 65
1, 74496, Note_on_c, 5, 50, 68
1, 74497, Note_on_c, 6, 65, 0
1, 74500, Note_on_c, 9, 35, 0
1, 74500, Note_on_c, 9, 49, 0
1, 74500, Note_on_c, 5, 55, 114
1, 74500, Note_on_c, 6, 67, 89
1, 74502, Note_on_c, 6, 70, 93
1, 74551, Note_on_c, 6, 70, 0
1, 74567, Note_on_c, 1, 31, 0
1, 74578, Note_on_c, 5, 50, 0
1, 74582, Note_on_c, 6, 67, 0
1, 74584, Note_on_c, 5, 55, 0
1, 74592, Note_on_c, 1, 29, 90
1, 74592, Note_on_c, 5, 48, 68
1, 74596, Note_on_c, 5, 53, 114
1, 74596, Note_on_c, 6, 65, 89
1, 74598, Note_on_c, 6, 69, 93
1, 74647, Note_on_c, 6, 69, 0
1, 74663, Note_on_c, 1, 29, 0
1, 74674, Note_on_c, 5, 48, 0
1, 74678, Note_on_c, 6, 65, 0
1, 74680, Note_on_c, 5, 53, 0
1, 74688, Note_on_c, 1, 31, 110
1, 74688, Note_on_c, 5, 50, 68
1, 74688, Note_on_c, 9, 51, 49
1, 74692, Note_on_c, 9, 51, 0
1, 74692, Note_on_c, 5, 55, 114
1, 74692, Note_on_c, 6, 67, 89
1, 74694, Note_on_c, 6, 70, 93
1, 74743, Note_on_c, 6, 70, 0
1, 74759, Note_on_c, 1, 31, 0
1, 74770, Note_on_c, 5, 50, 0
1, 74774, Note_on_c, 6, 67, 0
1, 74776, Note_on_c, 5, 55, 0
1, 74871, Note_on_c, 3, 74, 109
1, 74880, Note_on_c, 9, 38, 95
1, 74880, Note_on_c, 9, 51, 46
1, 74884, Note_on_c, 9, 38, 0
1, 74884, Note_on_c, 9, 51, 0
1, 74928, Control_c, 3, 1, 53
1, 74992, Note_on_c, 3, 74, 0
1, 74992, Control_c, 3, 1, 0
1, 75069, Note_on_c, 3, 74, 104
1, 75072, Note_on_c, 9, 51, 49
1, 75076, Note_on_c, 9, 51, 0
1, 75140, Note_on_c, 3, 74, 0
1, 75163, Note_on_c, 5, 60, 99
1, 75166, Note_on_c, 3, 75, 113
1, 75168, Note_on_c, 9, 35, 104
1, 75168, Note_on_c, 1, 36, 78
1, 75168, Note_on_c, 9, 49, 64
1, 75172, Note_on_c, 9, 35, 0
1, 75172, Note_on_c, 9, 49, 0
1, 75174, Note_on_c, 5, 55, 72
1, 75178, Note_on_c, 6, 63, 81
1, 75181, Note_on_c, 6, 67, 91
1, 75328, Control_c, 5, 1, 77
1, 75380, Note_on_c, 3, 75, 0
1, 75430, Note_on_c, 3, 74, 109
1, 75456, Note_on_c, 9, 51, 47
1, 75460, Note_on_c, 9, 51, 0
1, 75488, Control_c, 5, 1, 0
1, 75490, Note_on_c, 3, 74, 0
1, 75531, Note_on_c, 3, 72, 109
1, 75551, Pitch_bend_c, 5, 3072
1, 75552, Note_on_c, 5, 86, 107
1, 75554, Note_on_c, 5, 74, 92
1, 75568, Pitch_bend_c, 5, 4608
1, 75584, Pitch_bend_c, 5, 6144
1, 75600, Pitch_bend_c, 5, 8192
1, 75600, Control_c, 3, 1, 53
1, 75648, Note_on_c, 9, 38, 96
1, 75648, Note_on_c, 9, 51, 47
1, 75652, Note_on_c, 9, 38, 0
1, 75652, Note_on_c, 9, 51, 0
1, 75712, Control_c, 5, 1, 115
1, 75805, Note_on_c, 1, 36, 0
1, 75840, Control_c, 3, 1, 0
1, 75840, Note_on_c, 9, 51, 48
1, 75844, Note_on_c, 9, 51, 0
1, 75856, Note_on_c, 3, 72, 0
1, 75914, Note_on_c, 3, 79, 115
1, 75936, Note_on_c, 9, 35, 86
1, 75936, Note_on_c, 1, 36, 105
1, 75940, Note_on_c, 9, 35, 0
1, 75965, Note_on_c, 5, 60, 0
1, 75970, Note_on_c, 3, 79, 0
1, 75979, Note_on_c, 5, 55, 0
1, 76007, Pitch_bend_c, 3, 3584
1, 76008, Note_on_c, 3, 81, 124
1, 76016, Control_c, 5, 1, 0
1, 76016, Pitch_bend_c, 3, 4480
1, 76022, Note_on_c, 6, 63, 0
1, 76028, Note_on_c, 1, 36, 0
1, 76032, Note_on_c, 1, 38, 105
1, 76032, Pitch_bend_c, 3, 6016
1, 76032, Note_on_c, 9, 35, 108
1, 76032, Note_on_c, 9, 51, 48
1, 76034, Note_on_c, 5, 62, 113
1, 76036, Note_on_c, 9, 35, 0
1, 76036, Note_on_c, 9, 51, 0
1, 76036, Note_on_c, 5, 57, 67
1, 76046, Note_on_c, 6, 67, 0
1, 76048, Pitch_bend_c, 3, 8192
1, 76049, Note_on_c, 6, 69, 86
1, 76050, Note_on_c, 6, 62, 81
1, 76112, Note_on_c, 5, 62, 0
1, 76113, Note_on_c, 1, 38, 0
1, 76117, Note_on_c, 5, 57, 0
1, 76125, Note_on_c, 5, 86, 0
1, 76127, Note_on_c, 6, 62, 0
1, 76127, Note_on_c, 5, 74, 0
1, 76128, Note_on_c, 1, 36, 92
1, 76128, Control_c, 3, 1, 64
1, 76130, Note_on_c, 5, 60, 101
1, 76132, Note_on_c, 5, 55, 55
1, 76132, Note_on_c, 6, 69, 0
1, 76145, Note_on_c, 6, 67, 79
1, 76146, Note_on_c, 6, 60, 74
1, 76208, Note_on_c, 5, 60, 0
1, 76209, Note_on_c, 1, 36, 0
1, 76213, Note_on_c, 5, 55, 0
1, 76223, Note_on_c, 6, 60, 0
1, 76224, Note_on_c, 1, 38, 108
1, 76224, Note_on_c, 9, 51, 46
1, 76226, Note_on_c, 5, 62, 113
1, 76228, Note_on_c, 9, 51, 0
1, 76228, Note_on_c, 5, 57, 67
1, 76228, Note_on_c, 6, 67, 0
1, 76240, Control_c, 3, 1, 0
1, 76241, Note_on_c, 6, 69, 86
1, 76242, Note_on_c, 6, 62, 81
1, 76243, Note_on_c, 3, 81, 0
1, 76304, Note_on_c, 5, 62, 0
1, 76305, Note_on_c, 1, 38, 0
1, 76309, Note_on_c, 5, 57, 0
1, 76319, Note_on_c, 6, 62, 0
1, 76320, Note_on_c, 3, 74, 114
1, 76324, Note_on_c, 6, 69, 0
1, 76359, Note_on_c, 3, 74, 0
1, 76367, Pitch_bend_c, 5, 1536
1, 76368, Note_on_c, 3, 74, 96
1, 76368, Note_on_c, 5, 86, 107
1, 76370, Note_on_c, 5, 74, 92
1, 76384, Pitch_bend_c, 5, 3072
1, 76400, Pitch_bend_c, 5, 4608
1, 76405, Note_on_c, 3, 74, 0
1, 76416, Pitch_bend_c, 5, 5376
1, 76416, Note_on_c, 9, 38, 94
1, 76416, Note_on_c, 9, 51, 48
1, 76416, Note_on_c, 3, 74, 116
1, 76420, Note_on_c, 9, 38, 0
1, 76420, Note_on_c, 9, 51, 0
1, 76432, Pitch_bend_c, 5, 6656
1, 76448, Pitch_bend_c, 5, 8192
1, 76480, Control_c, 5, 1, 95
1, 76480, Note_on_c, 3, 74, 0
1, 76512, Note_on_c, 1, 38, 98
1, 76512, Note_on_c, 9, 50, 88
1, 76515, Note_on_c, 3, 81, 112
1, 76516, Note_on_c, 9, 50, 0
1, 76544, Control_c, 3, 1, 40
1, 76560, Control_c, 5, 1, 0
1, 76588, Note_on_c, 1, 38, 0
1, 76592, Pitch_bend_c, 5, 9600
1, 76608, Note_on_c, 1, 33, 98
1, 76608, Pitch_bend_c, 5, 11648
1, 76608, Control_c, 3, 1, 0
1, 76608, Note_on_c, 9, 47, 75
1, 76608, Note_on_c, 9, 51, 47
1, 76612, Note_on_c, 9, 47, 0
1, 76612, Note_on_c, 9, 51, 0
1, 76624, Pitch_bend_c, 5, 10624
1, 76640, Pitch_bend_c, 5, 6912
1, 76656, Pitch_bend_c, 5, 3840
1, 76656, Note_on_c, 3, 81, 0
1, 76672, Pitch_bend_c, 5, 2304
1, 76688, Note_on_c, 1, 33, 0
1, 76688, Pitch_bend_c, 5, 512
1, 76698, Pitch_bend_c, 3, 4224
1, 76699, Note_on_c, 3, 82, 115
1, 76701, Note_on_c, 5, 86, 0
1, 76702, Pitch_bend_c, 5, 8192
1, 76703, Note_on_c, 5, 55, 107
1, 76703, Note_on_c, 5, 74, 0
1, 76704, Note_on_c, 1, 31, 108
1, 76704, Note_on_c, 9, 35, 108
1, 76704, Note_on_c, 9, 43, 97
1, 76704, Note_on_c, 9, 49, 64
1, 76705, Note_on_c, 5, 67, 107
1, 76708, Note_on_c, 9, 35, 0
1, 76708, Note_on_c, 9, 43, 0
1, 76708, Note_on_c, 9, 49, 0
1, 76709, Note_on_c, 5, 50, 68
1, 76720, Pitch_bend_c, 3, 5504
1, 76721, Note_on_c, 6, 70, 86
1, 76722, Note_on_c, 6, 62, 81
1, 76736, Pitch_bend_c, 3, 7040
1, 76752, Pitch_bend_c, 3, 8192
1, 76768, Control_c, 3, 1, 55
1, 76960, Control_c, 3, 1, 0
1, 76992, Note_on_c, 9, 51, 46
1, 76996, Note_on_c, 9, 51, 0
1, 77032, Note_on_c, 3, 82, 0
1, 77040, Control_c, 5, 1, 101
1, 77163, Note_on_c, 1, 31, 0
1, 77184, Note_on_c, 1, 29, 105
1, 77184, Note_on_c, 9, 38, 95
1, 77184, Note_on_c, 9, 51, 47
1, 77188, Note_on_c, 9, 38, 0
1, 77188, Note_on_c, 9, 51, 0
1, 77312, Control_c, 5, 1, 58
1, 77372, Note_on_c, 3, 79, 106
1, 77376, Note_on_c, 9, 51, 49
1, 77380, Note_on_c, 9, 51, 0
1, 77447, Note_on_c, 3, 79, 0
1, 77482, Note_on_c, 3, 81, 112
1, 77489, Note_on_c, 5, 55, 0
1, 77491, Note_on_c, 5, 67, 0
1, 77534, Note_on_c, 6, 70, 0
1, 77536, Control_c, 5, 1, 0
1, 77557, Note_on_c, 6, 62, 0
1, 77560, Note_on_c, 6, 67, 92
1, 77564, Note_on_c, 5, 50, 0
1, 77564, Note_on_c, 6, 63, 84
1, 77565, Note_on_c, 1, 29, 0
1, 77565, Note_on_c, 3, 81, 0
1, 77568, Note_on_c, 1, 27, 85
1, 77568, Note_on_c, 9, 35, 106
1, 77568, Note_on_c, 9, 51, 49
1, 77570, Note_on_c, 5, 51, 82
1, 77572, Note_on_c, 9, 35, 0
1, 77572, Note_on_c, 9, 51, 0
1, 77575, Note_on_c, 5, 58, 101
1, 77577, Note_on_c, 8, 55, 67
1, 77602, Pitch_bend_c, 3, 4480
1, 77603, Note_on_c, 3, 82, 115
1, 77616, Pitch_bend_c, 3, 6016
1, 77632, Pitch_bend_c, 3, 7040
1, 77648, Pitch_bend_c, 3, 8192
1, 77695, Note_on_c, 3, 82, 0
1, 77712, Control_c, 5, 1, 102
1, 77722, Note_on_c, 3, 81, 112
1, 77760, Note_on_c, 9, 51, 46
1, 77764, Note_on_c, 9, 51, 0
1, 77799, Note_on_c, 3, 81, 0
1, 77808, Control_c, 5, 1, 0
1, 77829, Note_on_c, 3, 79, 104
1, 77855, Note_on_c, 5, 51, 0
1, 77858, Note_on_c, 5, 50, 72
1, 77862, Note_on_c, 8, 55, 0
1, 77865, Note_on_c, 8, 54, 57
1, 77927, Note_on_c, 3, 79, 0
1, 77950, Note_on_c, 5, 50, 0
1, 77952, Note_on_c, 9, 38, 94
1, 77952, Note_on_c, 9, 51, 49
1, 77953, Note_on_c, 5, 51, 82
1, 77956, Pitch_bend_c, 3, 4224
1, 77956, Note_on_c, 9, 38, 0
1, 77956, Note_on_c, 9, 51, 0
1, 77957, Note_on_c, 8, 54, 0
1, 77957, Note_on_c, 3, 75, 113
1, 77960, Note_on_c, 8, 55, 67
1, 77968, Pitch_bend_c, 3, 5376
1, 77984, Pitch_bend_c, 3, 6656
1, 78000, Pitch_bend_c, 3, 8192
1, 78016, Control_c, 5, 1, 69
1, 78144, Note_on_c, 9, 51, 49
1, 78148, Note_on_c, 9, 51, 0
1, 78160, Control_c, 5, 1, 0
1, 78207, Note_on_c, 1, 27, 0
1, 78238, Note_on_c, 5, 51, 0
1, 78240, Note_on_c, 1, 27, 100
1, 78240, Note_on_c, 9, 35, 86
1, 78241, Note_on_c, 5, 50, 77
1, 78244, Note_on_c, 9, 35, 0
1, 78245, Note_on_c, 8, 55, 0
1, 78248, Note_on_c, 8, 54, 62
1, 78303, Note_on_c, 6, 67, 0
1, 78314, Note_on_c, 1, 27, 0
1, 78319, Note_on_c, 6, 63, 0
1, 78322, Note_on_c, 6, 67, 88
1, 78323, Note_on_c, 6, 70, 80
1, 78332, Note_on_c, 5, 50, 0
1, 78335, Note_on_c, 5, 51, 84
1, 78336, Note_on_c, 1, 27, 110
1, 78336, Note_on_c, 9, 35, 107
1, 78336, Note_on_c, 9, 51, 49
1, 78339, Note_on_c, 8, 54, 0
1, 78340, Note_on_c, 9, 35, 0
1, 78340, Note_on_c, 9, 51, 0
1, 78342, Note_on_c, 8, 55, 69
1, 78368, Control_c, 3, 1, 48
1, 78431, Note_on_c, 5, 51, 0
1, 78434, Note_on_c, 5, 50, 75
1, 78438, Note_on_c, 8, 55, 0
1, 78441, Note_on_c, 8, 54, 60
1, 78527, Note_on_c, 5, 50, 0
1, 78528, Control_c, 3, 1, 84
1, 78528, Note_on_c, 9, 51, 48
1, 78530, Note_on_c, 5, 51, 77
1, 78532, Note_on_c, 9, 51, 0
1, 78534, Note_on_c, 8, 54, 0
1, 78537, Note_on_c, 8, 55, 62
1, 78620, Note_on_c, 5, 51, 0
1, 78623, Note_on_c, 5, 50, 66
1, 78627, Note_on_c, 8, 55, 0
1, 78630, Note_on_c, 8, 54, 51
1, 78672, Control_c, 3, 1, 0
1, 78716, Note_on_c, 5, 50, 0
1, 78719, Note_on_c, 5, 51, 82
1, 78720, Note_on_c, 9, 38, 94
1, 78720, Note_on_c, 9, 51, 47
1, 78723, Note_on_c, 8, 54, 0
1, 78724, Note_on_c, 9, 38, 0
1, 78724, Note_on_c, 9, 51, 0
1, 78726, Note_on_c, 8, 55, 67
1, 78759, Note_on_c, 3, 75, 0
1, 78768, Control_c, 5, 1, 53
1, 78912, Note_on_c, 9, 51, 48
1, 78916, Note_on_c, 9, 51, 0
1, 78973, Note_on_c, 1, 27, 0
1, 79008, Note_on_c, 1, 27, 107
1, 79018, Note_on_c, 3, 79, 112
1, 79088, Control_c, 5, 1, 0
1, 79101, Note_on_c, 1, 27, 0
1, 79101, Note_on_c, 5, 51, 0
1, 79101, Note_on_c, 3, 79, 0
1, 79104, Note_on_c, 1, 29, 93
1, 79104, Note_on_c, 9, 35, 107
1, 79104, Note_on_c, 9, 49, 64
1, 79104, Note_on_c, 5, 53, 85
1, 79106, Note_on_c, 5, 60, 102
1, 79108, Note_on_c, 9, 35, 0
1, 79108, Note_on_c, 9, 49, 0
1, 79108, Note_on_c, 8, 55, 0
1, 79108, Note_on_c, 6, 65, 81
1, 79109, Note_on_c, 6, 72, 85
1, 79111, Note_on_c, 8, 57, 70
1, 79112, Note_on_c, 5, 58, 0
1, 79118, Note_on_c, 6, 67, 0
1, 79120, Pitch_bend_c, 5, 8192
1, 79124, Note_on_c, 6, 70, 0
1, 79136, Pitch_bend_c, 3, 2560
1, 79139, Note_on_c, 3, 82, 115
1, 79152, Pitch_bend_c, 3, 3584
1, 79168, Pitch_bend_c, 3, 5120
1, 79184, Pitch_bend_c, 3, 6144
1, 79200, Pitch_bend_c, 3, 7296
1, 79216, Pitch_bend_c, 3, 8192
1, 79231, Note_on_c, 3, 82, 0
1, 79258, Note_on_c, 3, 81, 112
1, 79296, Note_on_c, 9, 51, 48
1, 79300, Note_on_c, 9, 51, 0
1, 79335, Note_on_c, 3, 81, 0
1, 79365, Note_on_c, 3, 79, 104
1, 79391, Note_on_c, 5, 53, 0
1, 79392, Note_on_c, 9, 38, 85
1, 79394, Note_on_c, 5, 52, 82
1, 79396, Note_on_c, 9, 38, 0
1, 79398, Note_on_c, 8, 57, 0
1, 79401, Note_on_c, 8, 56, 67
1, 79463, Note_on_c, 3, 79, 0
1, 79483, Note_on_c, 5, 52, 0
1, 79486, Note_on_c, 5, 53, 79
1, 79488, Note_on_c, 9, 38, 97
1, 79488, Note_on_c, 9, 51, 48
1, 79490, Note_on_c, 8, 56, 0
1, 79492, Pitch_bend_c, 3, 2560
1, 79492, Note_on_c, 9, 38, 0
1, 79492, Note_on_c, 9, 51, 0
1, 79493, Note_on_c, 8, 57, 64
1, 79493, Note_on_c, 3, 81, 113
1, 79504, Pitch_bend_c, 3, 4480
1, 79520, Pitch_bend_c, 3, 5120
1, 79536, Pitch_bend_c, 3, 6400
1, 79552, Pitch_bend_c, 3, 7424
1, 79568, Pitch_bend_c, 3, 8192
1, 79632, Control_c, 3, 1, 60
1, 79680, Note_on_c, 9, 38, 76
1, 79680, Note_on_c, 9, 51, 46
1, 79684, Note_on_c, 9, 38, 0
1, 79684, Note_on_c, 9, 51, 0
1, 79747, Note_on_c, 1, 29, 0
1, 79774, Note_on_c, 5, 53, 0
1, 79776, Note_on_c, 1, 29, 105
1, 79776, Note_on_c, 9, 35, 86
1, 79777, Note_on_c, 5, 52, 82
1, 79780, Note_on_c, 9, 35, 0
1, 79781, Note_on_c, 8, 57, 0
1, 79784, Note_on_c, 8, 56, 67
1, 79840, Note_on_c, 6, 65, 0
1, 79852, Note_on_c, 1, 29, 0
1, 79858, Note_on_c, 6, 72, 0
1, 79861, Note_on_c, 6, 69, 84
1, 79866, Note_on_c, 6, 65, 91
1, 79870, Note_on_c, 5, 52, 0
1, 79872, Note_on_c, 1, 29, 89
1, 79872, Note_on_c, 9, 35, 108
1, 79872, Note_on_c, 9, 38, 97
1, 79872, Note_on_c, 9, 57, 64
1, 79873, Note_on_c, 5, 53, 75
1, 79876, Note_on_c, 9, 35, 0
1, 79876, Note_on_c, 9, 38, 0
1, 79876, Note_on_c, 9, 57, 0
1, 79877, Note_on_c, 8, 56, 0
1, 79880, Note_on_c, 8, 57, 60
1, 79984, Control_c, 5, 1, 69
1, 80048, Control_c, 3, 1, 0
1, 80103, Note_on_c, 3, 81, 0
1, 80210, Note_on_c, 3, 74, 95
1, 80272, Control_c, 5, 1, 0
1, 80276, Note_on_c, 3, 74, 0
1, 80314, Note_on_c, 3, 82, 109
1, 80372, Note_on_c, 6, 65, 0
1, 80382, Note_on_c, 6, 69, 0
1, 80393, Note_on_c, 3, 82, 0
1, 80400, Pitch_bend_c, 5, 7424
1, 80408, Note_on_c, 8, 57, 0
1, 80416, Pitch_bend_c, 5, 6144
1, 80429, Note_on_c, 3, 82, 115
1, 80432, Pitch_bend_c, 5, 5376
1, 80448, Pitch_bend_c, 5, 4480
1, 80455, Note_on_c, 5, 60, 0
1, 80464, Pitch_bend_c, 5, 3840
1, 80480, Pitch_bend_c, 5, 2688
1, 80496, Pitch_bend_c, 5, 1280
1, 80500, Note_on_c, 5, 53, 0
1, 80506, Note_on_c, 3, 82, 0
1, 80512, Pitch_bend_c, 5, 128
1, 80531, Note_on_c, 3, 81, 107
1, 80609, Note_on_c, 3, 81, 0
1, 80624, Pitch_bend_c, 5, 8192
1, 80640, Note_on_c, 1, 31, 93
1, 80640, Note_on_c, 9, 35, 108
1, 80640, Note_on_c, 9, 49, 64
1, 80640, Note_on_c, 5, 50, 68
1, 80640, Note_on_c, 6, 67, 93
1, 80641, Note_on_c, 6, 70, 97
1, 80642, Pitch_bend_c, 3, 2304
1, 80643, Note_on_c, 3, 82, 118
1, 80644, Note_on_c, 9, 35, 0
1, 80644, Note_on_c, 9, 49, 0
1, 80644, Note_on_c, 5, 55, 114
1, 80651, Note_on_c, 1, 29, 0
1, 80656, Pitch_bend_c, 3, 4096
1, 80672, Pitch_bend_c, 3, 8192
1, 80784, Pitch_bend_c, 3, 7168
1, 80800, Pitch_bend_c, 3, 4608
1, 80816, Pitch_bend_c, 3, 2816
1, 80827, Note_on_c, 3, 82, 0
1, 80832, Pitch_bend_c, 3, 8192
1, 80832, Note_on_c, 9, 51, 46
1, 80833, Note_on_c, 3, 79, 107
1, 80836, Note_on_c, 9, 51, 0
1, 80976, Control_c, 5, 1, 42
1, 81024, Control_c, 3, 1, 54
1, 81024, Note_on_c, 9, 38, 94
1, 81024, Note_on_c, 9, 51, 49
1, 81028, Note_on_c, 9, 38, 0
1, 81028, Note_on_c, 9, 51, 0
1, 81088, Control_c, 5, 1, 97
1, 81216, Note_on_c, 9, 51, 46
1, 81220, Note_on_c, 9, 51, 0
1, 81264, Control_c, 3, 1, 0
1, 81280, Control_c, 5, 1, 45
1, 81280, Pitch_bend_c, 3, 7168
1, 81286, Note_on_c, 1, 31, 0
1, 81296, Pitch_bend_c, 3, 5888
1, 81312, Note_on_c, 1, 31, 105
1, 81312, Pitch_bend_c, 3, 3584
1, 81312, Note_on_c, 9, 35, 87
1, 81316, Note_on_c, 9, 35, 0
1, 81360, Control_c, 5, 1, 0
1, 81376, Pitch_bend_c, 3, 4608
1, 81392, Pitch_bend_c, 3, 6400
1, 81394, Note_on_c, 5, 50, 0
1, 81396, Note_on_c, 6, 67, 0
1, 81398, Note_on_c, 1, 31, 0
1, 81400, Note_on_c, 5, 55, 0
1, 81402, Pitch_bend_c, 5, 5376
1, 81403, Note_on_c, 5, 51, 99
1, 81408, Note_on_c, 1, 27, 95
1, 81408, Pitch_bend_c, 3, 8192
1, 81408, Note_on_c, 9, 35, 105
1, 81408, Note_on_c, 9, 51, 47
1, 81412, Note_on_c, 9, 35, 0
1, 81412, Note_on_c, 9, 51, 0
1, 81413, Note_on_c, 6, 70, 0
1, 81414, Note_on_c, 5, 58, 72
1, 81416, Note_on_c, 6, 63, 87
1, 81416, Note_on_c, 6, 70, 93
1, 81424, Pitch_bend_c, 5, 6784
1, 81440, Pitch_bend_c, 5, 8192
1, 81568, Control_c, 3, 1, 46
1, 81600, Note_on_c, 9, 51, 49
1, 81604, Note_on_c, 9, 51, 0
1, 81696, Control_c, 5, 1, 74
1, 81790, Pitch_bend_c, 5, 2048
1, 81791, Note_on_c, 5, 79, 112
1, 81792, Note_on_c, 9, 38, 95
1, 81792, Note_on_c, 9, 51, 48
1, 81796, Note_on_c, 9, 38, 0
1, 81796, Note_on_c, 9, 51, 0
1, 81808, Pitch_bend_c, 5, 3072
1, 81824, Pitch_bend_c, 5, 4608
1, 81840, Pitch_bend_c, 5, 6400
1, 81856, Pitch_bend_c, 5, 8192
1, 81872, Control_c, 5, 1, 89
1, 81872, Control_c, 3, 7, 108
1, 81888, Control_c, 3, 7, 100
1, 81904, Control_c, 3, 7, 97
1, 81920, Control_c, 3, 7, 93
1, 81936, Control_c, 3, 7, 87
1, 81952, Control_c, 3, 7, 83
1, 81968, Control_c, 3, 7, 76
1, 81984, Control_c, 3, 1, 0
1, 81984, Note_on_c, 9, 51, 49
1, 81988, Note_on_c, 9, 51, 0
1, 82000, Control_c, 3, 7, 68
1, 82016, Control_c, 3, 7, 62
1, 82026, Note_on_c, 1, 27, 0
1, 82032, Control_c, 3, 7, 60
1, 82048, Control_c, 3, 7, 56
1, 82064, Control_c, 5, 1, 0
1, 82064, Note_on_c, 3, 79, 0
1, 82064, Control_c, 3, 7, 54
1, 82080, Note_on_c, 1, 27, 100
1, 82080, Control_c, 3, 7, 49
1, 82080, Note_on_c, 9, 35, 88
1, 82084, Note_on_c, 9, 35, 0
1, 82096, Pitch_bend_c, 5, 7680
1, 82096, Control_c, 3, 7, 45
1, 82112, Pitch_bend_c, 5, 6144
1, 82112, Control_c, 3, 7, 41
1, 82128, Pitch_bend_c, 5, 5120
1, 82128, Control_c, 3, 7, 37
1, 82144, Pitch_bend_c, 5, 3200
1, 82144, Control_c, 3, 7, 31
1, 82157, Note_on_c, 5, 51, 0
1, 82160, Pitch_bend_c, 5, 1664
1, 82170, Note_on_c, 5, 79, 0
1, 82171, Note_on_c, 5, 58, 0
1, 82173, Note_on_c, 1, 27, 0
1, 82176, Note_on_c, 1, 34, 102
1, 82176, Note_on_c, 9, 35, 106
1, 82176, Note_on_c, 9, 51, 48
1, 82176, Note_on_c, 5, 79, 104
1, 82177, Pitch_bend_c, 5, 8192
1, 82178, Note_on_c, 5, 46, 113
1, 82180, Note_on_c, 9, 35, 0
1, 82180, Note_on_c, 9, 51, 0
1, 82180, Note_on_c, 5, 53, 67
1, 82189, Note_on_c, 6, 63, 0
1, 82189, Note_on_c, 6, 70, 0
1, 82192, Note_on_c, 6, 65, 91
1, 82196, Note_on_c, 6, 70, 85
1, 82224, Control_c, 3, 7, 116
1, 82259, Note_on_c, 5, 77, 76
1, 82269, Note_on_c, 5, 79, 0
1, 82351, Note_on_c, 5, 77, 0
1, 82368, Note_on_c, 9, 51, 47
1, 82372, Note_on_c, 9, 51, 0
1, 82372, Note_on_c, 5, 74, 85
1, 82457, Note_on_c, 5, 74, 0
1, 82462, Note_on_c, 5, 72, 81
1, 82560, Note_on_c, 9, 38, 95
1, 82560, Note_on_c, 9, 51, 48
1, 82564, Note_on_c, 9, 38, 0
1, 82564, Note_on_c, 9, 51, 0
1, 82564, Note_on_c, 5, 74, 92
1, 82572, Note_on_c, 5, 72, 0
1, 82688, Control_c, 5, 1, 97
1, 82752, Note_on_c, 9, 51, 46
1, 82756, Note_on_c, 9, 51, 0
1, 82800, Control_c, 5, 1, 0
1, 82829, Note_on_c, 1, 34, 0
1, 82834, Pitch_bend_c, 5, 3584
1, 82835, Note_on_c, 5, 77, 94
1, 82848, Note_on_c, 1, 34, 100
1, 82848, Pitch_bend_c, 5, 5376
1, 82848, Note_on_c, 9, 35, 86
1, 82852, Note_on_c, 9, 35, 0
1, 82863, Note_on_c, 5, 74, 0
1, 82864, Pitch_bend_c, 5, 6656
1, 82880, Pitch_bend_c, 5, 8192
1, 82921, Note_on_c, 6, 65, 0
1, 82924, Note_on_c, 1, 34, 0
1, 82928, Note_on_c, 5, 46, 0
1, 82931, Note_on_c, 5, 77, 0
1, 82933, Note_on_c, 5, 53, 0
1, 82935, Note_on_c, 5, 74, 99
1, 82938, Note_on_c, 6, 70, 0
1, 82941, Note_on_c, 6, 69, 86
1, 82943, Note_on_c, 5, 41, 107
1, 82943, Note_on_c, 6, 65, 82
1, 82944, Note_on_c, 1, 29, 102
1, 82944, Note_on_c, 9, 35, 105
1, 82944, Note_on_c, 9, 51, 48
1, 82948, Note_on_c, 9, 35, 0
1, 82948, Note_on_c, 9, 51, 0
1, 82949, Note_on_c, 5, 48, 68
1, 83050, Note_on_c, 5, 72, 81
1, 83050, Note_on_c, 5, 74, 0
1, 83136, Note_on_c, 9, 51, 47
1, 83140, Note_on_c, 9, 51, 0
1, 83216, Control_c, 5, 1, 83
1, 83282, Note_on_c, 3, 74, 95
1, 83328, Note_on_c, 9, 38, 94
1, 83328, Note_on_c, 9, 51, 48
1, 83332, Note_on_c, 9, 38, 0
1, 83332, Note_on_c, 9, 51, 0
1, 83348, Note_on_c, 3, 74, 0
1, 83366, Note_on_c, 5, 72, 0
1, 83386, Note_on_c, 3, 82, 109
1, 83456, Control_c, 5, 1, 58
1, 83465, Note_on_c, 3, 82, 0
1, 83501, Note_on_c, 3, 82, 115
1, 83520, Note_on_c, 9, 51, 49
1, 83524, Note_on_c, 9, 51, 0
1, 83578, Note_on_c, 3, 82, 0
1, 83589, Note_on_c, 1, 29, 0
1, 83603, Note_on_c, 3, 81, 107
1, 83616, Note_on_c, 1, 29, 102
1, 83663, Note_on_c, 5, 41, 0
1, 83669, Note_on_c, 5, 48, 0
1, 83680, Control_c, 5, 1, 0
1, 83681, Note_on_c, 3, 81, 0
1, 83699, Note_on_c, 1, 29, 0
1, 83710, Note_on_c, 6, 65, 0
1, 83712, Note_on_c, 1, 31, 93
1, 83712, Note_on_c, 9, 35, 106
1, 83712, Note_on_c, 5, 50, 68
1, 83712, Note_on_c, 9, 51, 49
1, 83712, Note_on_c, 6, 69, 0
1, 83713, Note_on_c, 6, 67, 87
1, 83713, Note_on_c, 6, 70, 94
1, 83714, Pitch_bend_c, 3, 2304
1, 83715, Note_on_c, 3, 82, 118
1, 83716, Note_on_c, 9, 35, 0
1, 83716, Note_on_c, 9, 51, 0
1, 83716, Note_on_c, 5, 55, 114
1, 83728, Pitch_bend_c, 3, 4096
1, 83744, Pitch_bend_c, 3, 8192
1, 83856, Pitch_bend_c, 3, 7168
1, 83872, Pitch_bend_c, 3, 4608
1, 83888, Pitch_bend_c, 3, 2816
1, 83899, Note_on_c, 3, 82, 0
1, 83904, Pitch_bend_c, 3, 8192
1, 83904, Note_on_c, 9, 51, 46
1, 83905, Note_on_c, 3, 79, 107
1, 83908, Note_on_c, 9, 51, 0
1, 84048, Control_c, 5, 1, 42
1, 84096, Control_c, 3, 1, 54
1, 84096, Note_on_c, 9, 38, 95
1, 84096, Note_on_c, 9, 51, 47
1, 84100, Note_on_c, 9, 38, 0
1, 84100, Note_on_c, 9, 51, 0
1, 84160, Control_c, 5, 1, 97
1, 84288, Note_on_c, 9, 51, 49
1, 84292, Note_on_c, 9, 51, 0
1, 84336, Control_c, 3, 1, 0
1, 84352, Control_c, 5, 1, 45
1, 84352, Pitch_bend_c, 3, 7168
1, 84358, Note_on_c, 1, 31, 0
1, 84368, Pitch_bend_c, 3, 5888
1, 84384, Note_on_c, 1, 31, 105
1, 84384, Pitch_bend_c, 3, 3584
1, 84384, Note_on_c, 9, 35, 85
1, 84388, Note_on_c, 9, 35, 0
1, 84432, Control_c, 5, 1, 0
1, 84448, Pitch_bend_c, 3, 4608
1, 84464, Pitch_bend_c, 3, 6400
1, 84466, Note_on_c, 5, 50, 0
1, 84470, Note_on_c, 1, 31, 0
1, 84472, Note_on_c, 5, 55, 0
1, 84472, Note_on_c, 6, 70, 0
1, 84474, Pitch_bend_c, 5, 5376
1, 84475, Note_on_c, 5, 51, 99
1, 84475, Note_on_c, 6, 70, 94
1, 84477, Note_on_c, 6, 63, 76
1, 84480, Note_on_c, 1, 27, 95
1, 84480, Pitch_bend_c, 3, 8192
1, 84480, Note_on_c, 9, 35, 105
1, 84480, Note_on_c, 9, 51, 47
1, 84484, Note_on_c, 9, 35, 0
1, 84484, Note_on_c, 9, 51, 0
1, 84486, Note_on_c, 5, 58, 72
1, 84487, Note_on_c, 6, 67, 0
1, 84496, Pitch_bend_c, 5, 6784
1, 84512, Pitch_bend_c, 5, 8192
1, 84640, Control_c, 3, 1, 46
1, 84672, Note_on_c, 9, 51, 46
1, 84676, Note_on_c, 9, 51, 0
1, 84864, Note_on_c, 9, 38, 94
1, 84864, Note_on_c, 9, 51, 48
1, 84864, Note_on_c, 5, 79, 108
1, 84868, Note_on_c, 9, 38, 0
1, 84868, Note_on_c, 9, 51, 0
1, 84944, Control_c, 3, 7, 108
1, 84947, Note_on_c, 5, 81, 94
1, 84957, Note_on_c, 5, 79, 0
1, 84960, Control_c, 3, 7, 100
1, 84976, Control_c, 3, 7, 97
1, 84992, Control_c, 3, 7, 93
1, 85008, Control_c, 3, 7, 87
1, 85024, Control_c, 3, 7, 83
1, 85039, Note_on_c, 5, 81, 0
1, 85040, Control_c, 3, 7, 76
1, 85056, Control_c, 3, 1, 0
1, 85056, Note_on_c, 9, 51, 47
1, 85060, Note_on_c, 9, 51, 0
1, 85060, Note_on_c, 5, 82, 103
1, 85072, Control_c, 3, 7, 68
1, 85088, Control_c, 3, 7, 62
1, 85098, Note_on_c, 1, 27, 0
1, 85104, Control_c, 3, 7, 60
1, 85120, Control_c, 3, 7, 56
1, 85136, Note_on_c, 3, 79, 0
1, 85136, Control_c, 3, 7, 54
1, 85145, Note_on_c, 5, 82, 0
1, 85150, Note_on_c, 5, 84, 99
1, 85152, Note_on_c, 1, 27, 100
1, 85152, Control_c, 3, 7, 49
1, 85168, Control_c, 3, 7, 45
1, 85184, Control_c, 3, 7, 41
1, 85200, Control_c, 3, 7, 37
1, 85216, Control_c, 3, 7, 31
1, 85226, Note_on_c, 6, 70, 0
1, 85229, Note_on_c, 5, 51, 0
1, 85243, Note_on_c, 5, 58, 0
1, 85244, Note_on_c, 6, 63, 0
1, 85245, Note_on_c, 1, 27, 0
1, 85247, Note_on_c, 6, 70, 86
1, 85248, Note_on_c, 1, 34, 102
1, 85248, Note_on_c, 9, 35, 104
1, 85248, Note_on_c, 9, 51, 49
1, 85250, Note_on_c, 5, 46, 113
1, 85250, Note_on_c, 6, 65, 91
1, 85252, Note_on_c, 9, 35, 0
1, 85252, Note_on_c, 9, 51, 0
1, 85252, Note_on_c, 5, 53, 67
1, 85252, Note_on_c, 5, 86, 104
1, 85260, Note_on_c, 5, 84, 0
1, 85296, Control_c, 5, 1, 83
1, 85296, Control_c, 3, 7, 116
1, 85360, Control_c, 5, 1, 0
1, 85407, Note_on_c, 5, 86, 0
1, 85440, Note_on_c, 9, 51, 48
1, 85440, Note_on_c, 5, 84, 90
1, 85444, Note_on_c, 9, 51, 0
1, 85518, Note_on_c, 5, 84, 0
1, 85535, Pitch_bend_c, 5, 2048
1, 85536, Note_on_c, 9, 38, 68
1, 85536, Note_on_c, 5, 86, 103
1, 85540, Note_on_c, 9, 38, 0
1, 85552, Pitch_bend_c, 5, 3584
1, 85568, Pitch_bend_c, 5, 5376
1, 85584, Pitch_bend_c, 5, 8192
1, 85632, Note_on_c, 9, 38, 97
1, 85632, Note_on_c, 9, 51, 48
1, 85636, Note_on_c, 9, 38, 0
1, 85636, Note_on_c, 9, 51, 0
1, 85696, Control_c, 5, 1, 91
1, 85808, Control_c, 5, 1, 0
1, 85812, Note_on_c, 5, 86, 0
1, 85824, Note_on_c, 9, 38, 76
1, 85824, Note_on_c, 9, 51, 46
1, 85824, Note_on_c, 5, 84, 103
1, 85828, Note_on_c, 9, 38, 0
1, 85828, Note_on_c, 9, 51, 0
1, 85874, Note_on_c, 1, 34, 0
1, 85907, Note_on_c, 5, 82, 94
1, 85910, Note_on_c, 5, 84, 0
1, 85920, Note_on_c, 1, 34, 100
1, 85920, Note_on_c, 9, 35, 86
1, 85924, Note_on_c, 9, 35, 0
1, 85993, Note_on_c, 5, 82, 0
1, 85995, Note_on_c, 6, 70, 0
1, 86000, Note_on_c, 5, 46, 0
1, 86005, Note_on_c, 5, 53, 0
1, 86006, Note_on_c, 6, 65, 0
1, 86006, Pitch_bend_c, 5, 2560
1, 86007, Note_on_c, 1, 34, 0
1, 86007, Note_on_c, 5, 84, 99
1, 86009, Note_on_c, 6, 69, 87
1, 86013, Note_on_c, 6, 65, 88
1, 86015, Note_on_c, 5, 41, 107
1, 86016, Note_on_c, 1, 29, 110
1, 86016, Note_on_c, 9, 35, 108
1, 86016, Note_on_c, 9, 38, 97
1, 86016, Note_on_c, 9, 51, 49
1, 86020, Note_on_c, 9, 35, 0
1, 86020, Note_on_c, 9, 38, 0
1, 86020, Note_on_c, 9, 51, 0
1, 86021, Note_on_c, 5, 48, 68
1, 86032, Pitch_bend_c, 5, 4352
1, 86048, Pitch_bend_c, 5, 6400
1, 86064, Pitch_bend_c, 5, 8320
1, 86085, Note_on_c, 1, 29, 0
1, 86112, Note_on_c, 1, 29, 96
1, 86112, Note_on_c, 9, 35, 68
1, 86116, Note_on_c, 9, 35, 0
1, 86208, Note_on_c, 9, 51, 48
1, 86212, Note_on_c, 9, 51, 0
1, 86253, Note_on_c, 1, 29, 0
1, 86256, Control_c, 7, 7, 116
1, 86288, Control_c, 5, 1, 83
1, 86304, Note_on_c, 1, 29, 95
1, 86304, Note_on_c, 9, 35, 93
1, 86308, Note_on_c, 9, 35, 0
1, 86354, Note_on_c, 7, 74, 87
1, 86354, Note_on_c, 3, 74, 95
1, 86397, Note_on_c, 5, 84, 0
1, 86400, Note_on_c, 9, 51, 48
1, 86404, Note_on_c, 9, 51, 0
1, 86420, Note_on_c, 3, 74, 0
1, 86424, Note_on_c, 7, 74, 0
1, 86446, Note_on_c, 7, 74, 105
1, 86458, Note_on_c, 3, 82, 109
1, 86477, Note_on_c, 1, 29, 0
1, 86496, Note_on_c, 1, 26, 95
1, 86496, Note_on_c, 9, 35, 85
1, 86500, Note_on_c, 9, 35, 0
1, 86528, Control_c, 5, 1, 58
1, 86537, Note_on_c, 3, 82, 0
1, 86544, Note_on_c, 7, 74, 0
1, 86573, Note_on_c, 3, 82, 115
1, 86574, Note_on_c, 7, 74, 107
1, 86581, Note_on_c, 1, 26, 0
1, 86592, Note_on_c, 1, 29, 95
1, 86592, Note_on_c, 9, 35, 108
1, 86592, Note_on_c, 9, 38, 93
1, 86592, Note_on_c, 9, 51, 46
1, 86596, Note_on_c, 9, 35, 0
1, 86596, Note_on_c, 9, 38, 0
1, 86596, Note_on_c, 9, 51, 0
1, 86649, Note_on_c, 7, 74, 0
1, 86650, Note_on_c, 3, 82, 0
1, 86674, Note_on_c, 7, 72, 107
1, 86675, Note_on_c, 3, 81, 107
1, 86685, Note_on_c, 1, 29, 0
1, 86688, Note_on_c, 1, 29, 102
1, 86688, Note_on_c, 9, 35, 85
1, 86688, Note_on_c, 9, 38, 89
1, 86692, Note_on_c, 9, 35, 0
1, 86692, Note_on_c, 9, 38, 0
1, 86735, Note_on_c, 5, 41, 0
1, 86741, Note_on_c, 5, 48, 0
1, 86752, Control_c, 5, 1, 0
1, 86753, Note_on_c, 3, 81, 0
1, 86755, Note_on_c, 7, 72, 0
1, 86760, Note_on_c, 6, 69, 0
1, 86771, Note_on_c, 1, 29, 0
1, 86784, Note_on_c, 1, 31, 93
1, 86784, Note_on_c, 9, 35, 108
1, 86784, Note_on_c, 9, 49, 64
1, 86784, Note_on_c, 5, 50, 68
1, 86784, Note_on_c, 6, 67, 93
1, 86785, Note_on_c, 6, 65, 0
1, 86785, Note_on_c, 6, 70, 97
1, 86786, Pitch_bend_c, 3, 2304
1, 86787, Note_on_c, 3, 82, 118
1, 86788, Note_on_c, 9, 35, 0
1, 86788, Note_on_c, 9, 49, 0
1, 86788, Note_on_c, 5, 55, 114
1, 86797, Note_on_c, 7, 74, 113
1, 86800, Pitch_bend_c, 3, 4096
1, 86816, Pitch_bend_c, 3, 8192
1, 86928, Pitch_bend_c, 3, 7168
1, 86944, Pitch_bend_c, 3, 4608
1, 86960, Pitch_bend_c, 3, 2816
1, 86971, Note_on_c, 3, 82, 0
1, 86976, Pitch_bend_c, 3, 8192
1, 86976, Note_on_c, 9, 51, 46
1, 86977, Note_on_c, 3, 79, 107
1, 86980, Note_on_c, 9, 51, 0
1, 87120, Control_c, 5, 1, 42
1, 87168, Control_c, 3, 1, 54
1, 87168, Note_on_c, 9, 38, 94
1, 87168, Note_on_c, 9, 51, 49
1, 87172, Note_on_c, 9, 38, 0
1, 87172, Note_on_c, 9, 51, 0
1, 87232, Control_c, 5, 1, 97
1, 87360, Note_on_c, 9, 51, 46
1, 87364, Note_on_c, 9, 51, 0
1, 87408, Control_c, 3, 1, 0
1, 87424, Control_c, 5, 1, 45
1, 87424, Pitch_bend_c, 3, 7168
1, 87430, Note_on_c, 1, 31, 0
1, 87440, Pitch_bend_c, 3, 5888
1, 87456, Note_on_c, 1, 31, 105
1, 87456, Pitch_bend_c, 3, 3584
1, 87456, Note_on_c, 9, 35, 87
1, 87460, Note_on_c, 9, 35, 0
1, 87504, Control_c, 5, 1, 0
1, 87520, Pitch_bend_c, 3, 4608
1, 87536, Pitch_bend_c, 3, 6400
1, 87538, Note_on_c, 5, 50, 0
1, 87540, Note_on_c, 6, 67, 0
1, 87542, Note_on_c, 1, 31, 0
1, 87544, Note_on_c, 5, 55, 0
1, 87546, Pitch_bend_c, 5, 5376
1, 87547, Note_on_c, 5, 51, 99
1, 87552, Note_on_c, 1, 27, 95
1, 87552, Pitch_bend_c, 3, 8192
1, 87552, Note_on_c, 9, 35, 105
1, 87552, Note_on_c, 9, 51, 47
1, 87556, Note_on_c, 9, 35, 0
1, 87556, Note_on_c, 9, 51, 0
1, 87557, Note_on_c, 6, 70, 0
1, 87558, Note_on_c, 5, 58, 72
1, 87560, Note_on_c, 6, 63, 87
1, 87560, Note_on_c, 6, 70, 93
1, 87568, Pitch_bend_c, 5, 6784
1, 87570, Note_on_c, 7, 75, 74
1, 87575, Note_on_c, 7, 74, 0
1, 87584, Pitch_bend_c, 5, 8192
1, 87712, Control_c, 3, 1, 46
1, 87744, Note_on_c, 9, 51, 49
1, 87748, Note_on_c, 9, 51, 0
1, 87840, Control_c, 5, 1, 74
1, 87934, Pitch_bend_c, 5, 2048
1, 87935, Note_on_c, 5, 79, 112
1, 87936, Note_on_c, 9, 38, 95
1, 87936, Note_on_c, 9, 51, 48
1, 87940, Note_on_c, 9, 38, 0
1, 87940, Note_on_c, 9, 51, 0
1, 87952, Pitch_bend_c, 5, 3072
1, 87968, Pitch_bend_c, 5, 4608
1, 87984, Pitch_bend_c, 5, 6400
1, 88000, Pitch_bend_c, 5, 8192
1, 88016, Control_c, 5, 1, 89
1, 88016, Control_c, 3, 7, 108
1, 88032, Control_c, 3, 7, 100
1, 88048, Control_c, 3, 7, 97
1, 88064, Control_c, 3, 7, 93
1, 88080, Control_c, 3, 7, 87
1, 88096, Control_c, 3, 7, 83
1, 88112, Control_c, 3, 7, 76
1, 88128, Control_c, 3, 1, 0
1, 88128, Note_on_c, 9, 51, 49
1, 88132, Note_on_c, 9, 51, 0
1, 88144, Control_c, 3, 7, 68
1, 88160, Control_c, 3, 7, 62
1, 88165, Note_on_c, 7, 75, 0
1, 88170, Note_on_c, 1, 27, 0
1, 88176, Control_c, 3, 7, 60
1, 88192, Control_c, 3, 7, 56
1, 88208, Control_c, 5, 1, 0
1, 88208, Note_on_c, 3, 79, 0
1, 88208, Control_c, 3, 7, 54
1, 88224, Note_on_c, 1, 27, 100
1, 88224, Control_c, 3, 7, 49
1, 88224, Note_on_c, 9, 35, 88
1, 88228, Note_on_c, 9, 35, 0
1, 88240, Pitch_bend_c, 5, 7680
1, 88240, Control_c, 3, 7, 45
1, 88256, Pitch_bend_c, 5, 6144
1, 88256, Control_c, 3, 7, 41
1, 88272, Pitch_bend_c, 5, 5120
1, 88272, Control_c, 3, 7, 37
1, 88288, Pitch_bend_c, 5, 3200
1, 88288, Control_c, 3, 7, 31
1, 88301, Note_on_c, 5, 51, 0
1, 88304, Pitch_bend_c, 5, 1664
1, 88314, Note_on_c, 5, 79, 0
1, 88315, Note_on_c, 5, 58, 0
1, 88317, Note_on_c, 1, 27, 0
1, 88320, Note_on_c, 1, 34, 102
1, 88320, Note_on_c, 9, 35, 106
1, 88320, Note_on_c, 9, 51, 48
1, 88320, Note_on_c, 5, 79, 104
1, 88321, Pitch_bend_c, 5, 8192
1, 88322, Note_on_c, 5, 46, 113
1, 88324, Note_on_c, 9, 35, 0
1, 88324, Note_on_c, 9, 51, 0
1, 88324, Note_on_c, 5, 53, 67
1, 88333, Note_on_c, 6, 63, 0
1, 88333, Note_on_c, 6, 70, 0
1, 88336, Note_on_c, 6, 65, 91
1, 88340, Note_on_c, 6, 70, 85
1, 88403, Note_on_c, 5, 77, 76
1, 88413, Note_on_c, 5, 79, 0
1, 88495, Note_on_c, 5, 77, 0
1, 88512, Note_on_c, 9, 51, 47
1, 88516, Note_on_c, 9, 51, 0
1, 88516, Note_on_c, 5, 74, 85
1, 88601, Note_on_c, 5, 74, 0
1, 88606, Note_on_c, 5, 72, 81
1, 88704, Note_on_c, 9, 38, 95
1, 88704, Note_on_c, 9, 51, 48
1, 88708, Note_on_c, 9, 38, 0
1, 88708, Note_on_c, 9, 51, 0
1, 88708, Note_on_c, 5, 74, 92
1, 88716, Note_on_c, 5, 72, 0
1, 88832, Control_c, 5, 1, 97
1, 88896, Note_on_c, 9, 51, 46
1, 88900, Note_on_c, 9, 51, 0
1, 88944, Control_c, 5, 1, 0
1, 88973, Note_on_c, 1, 34, 0
1, 88978, Pitch_bend_c, 5, 3584
1, 88979, Note_on_c, 5, 77, 94
1, 88992, Note_on_c, 1, 34, 100
1, 88992, Pitch_bend_c, 5, 5376
1, 88992, Note_on_c, 9, 35, 86
1, 88996, Note_on_c, 9, 35, 0
1, 89007, Note_on_c, 5, 74, 0
1, 89008, Pitch_bend_c, 5, 6656
1, 89024, Pitch_bend_c, 5, 8192
1, 89065, Note_on_c, 6, 65, 0
1, 89068, Note_on_c, 1, 34, 0
1, 89072, Note_on_c, 5, 46, 0
1, 89075, Note_on_c, 5, 77, 0
1, 89077, Note_on_c, 5, 53, 0
1, 89079, Note_on_c, 5, 74, 99
1, 89082, Note_on_c, 6, 70, 0
1, 89085, Note_on_c, 6, 69, 86
1, 89087, Note_on_c, 5, 41, 107
1, 89087, Note_on_c, 6, 65, 82
1, 89088, Note_on_c, 1, 29, 102
1, 89088, Note_on_c, 9, 35, 105
1, 89088, Note_on_c, 9, 51, 48
1, 89092, Note_on_c, 9, 35, 0
1, 89092, Note_on_c, 9, 51, 0
1, 89093, Note_on_c, 5, 48, 68
1, 89194, Note_on_c, 5, 72, 81
1, 89194, Note_on_c, 5, 74, 0
1, 89280, Note_on_c, 9, 51, 47
1, 89284, Note_on_c, 9, 51, 0
1, 89360, Control_c, 5, 1, 83
1, 89361, Control_c, 3, 7, 116
1, 89370, Note_on_c, 7, 74, 110
1, 89426, Note_on_c, 3, 74, 95
1, 89455, Note_on_c, 7, 74, 0
1, 89472, Note_on_c, 9, 38, 94
1, 89472, Note_on_c, 9, 51, 48
1, 89476, Note_on_c, 9, 38, 0
1, 89476, Note_on_c, 9, 51, 0
1, 89492, Note_on_c, 3, 74, 0
1, 89501, Note_on_c, 7, 74, 119
1, 89510, Note_on_c, 5, 72, 0
1, 89530, Note_on_c, 3, 82, 109
1, 89587, Note_on_c, 7, 74, 0
1, 89600, Control_c, 5, 1, 58
1, 89609, Note_on_c, 3, 82, 0
1, 89634, Note_on_c, 7, 74, 116
1, 89645, Note_on_c, 3, 82, 115
1, 89664, Note_on_c, 9, 51, 49
1, 89668, Note_on_c, 9, 51, 0
1, 89722, Note_on_c, 7, 74, 0
1, 89722, Note_on_c, 3, 82, 0
1, 89733, Note_on_c, 1, 29, 0
1, 89747, Note_on_c, 3, 81, 107
1, 89751, Note_on_c, 7, 72, 116
1, 89760, Note_on_c, 1, 29, 102
1, 89807, Note_on_c, 5, 41, 0
1, 89813, Note_on_c, 5, 48, 0
1, 89824, Control_c, 5, 1, 0
1, 89825, Note_on_c, 3, 81, 0
1, 89831, Note_on_c, 7, 72, 0
1, 89843, Note_on_c, 1, 29, 0
1, 89854, Note_on_c, 6, 65, 0
1, 89856, Note_on_c, 1, 31, 93
1, 89856, Note_on_c, 9, 35, 106
1, 89856, Note_on_c, 5, 50, 68
1, 89856, Note_on_c, 9, 51, 49
1, 89856, Note_on_c, 6, 69, 0
1, 89857, Note_on_c, 6, 67, 87
1, 89857, Note_on_c, 6, 70, 94
1, 89858, Note_on_c, 7, 74, 118
1, 89858, Pitch_bend_c, 3, 2304
1, 89859, Note_on_c, 3, 82, 118
1, 89860, Note_on_c, 9, 35, 0
1, 89860, Note_on_c, 9, 51, 0
1, 89860, Note_on_c, 5, 55, 114
1, 89872, Pitch_bend_c, 3, 4096
1, 89888, Pitch_bend_c, 3, 8192
1, 89924, Control_c, 1, 7, 120
1, 89929, Control_c, 9, 7, 120
1, 90000, Pitch_bend_c, 3, 7168
1, 90016, Pitch_bend_c, 3, 4608
1, 90032, Pitch_bend_c, 3, 2816
1, 90043, Note_on_c, 3, 82, 0
1, 90048, Pitch_bend_c, 3, 8192
1, 90048, Note_on_c, 9, 51, 46
1, 90049, Note_on_c, 3, 79, 107
1, 90052, Note_on_c, 9, 51, 0
1, 90192, Control_c, 5, 1, 42
1, 90216, Control_c, 1, 7, 117
1, 90218, Control_c, 5, 7, 117
1, 90221, Control_c, 9, 7, 117
1, 90240, Control_c, 3, 1, 54
1, 90240, Note_on_c, 9, 38, 95
1, 90240, Note_on_c, 9, 51, 47
1, 90244, Note_on_c, 9, 38, 0
1, 90244, Note_on_c, 9, 51, 0
1, 90304, Control_c, 5, 1, 97
1, 90308, Control_c, 1, 7, 115
1, 90309, Control_c, 3, 7, 115
1, 90310, Control_c, 5, 7, 115
1, 90311, Control_c, 6, 7, 115
1, 90312, Control_c, 7, 7, 115
1, 90396, Control_c, 1, 7, 113
1, 90397, Control_c, 3, 7, 113
1, 90398, Control_c, 5, 7, 113
1, 90399, Control_c, 6, 7, 113
1, 90400, Control_c, 7, 7, 113
1, 90401, Control_c, 9, 7, 113
1, 90432, Note_on_c, 9, 51, 49
1, 90436, Note_on_c, 9, 51, 0
1, 90480, Control_c, 3, 1, 0
1, 90484, Control_c, 1, 7, 111
1, 90485, Control_c, 3, 7, 111
1, 90486, Control_c, 5, 7, 111
1, 90487, Control_c, 6, 7, 111
1, 90488, Control_c, 7, 7, 111
1, 90489, Control_c, 9, 7, 111
1, 90496, Control_c, 5, 1, 45
1, 90496, Pitch_bend_c, 3, 7168
1, 90502, Note_on_c, 1, 31, 0
1, 90512, Pitch_bend_c, 3, 5888
1, 90528, Note_on_c, 1, 31, 105
1, 90528, Pitch_bend_c, 3, 3584
1, 90528, Note_on_c, 9, 35, 85
1, 90532, Note_on_c, 9, 35, 0
1, 90576, Control_c, 1, 7, 109
1, 90576, Control_c, 5, 1, 0
1, 90577, Control_c, 3, 7, 109
1, 90578, Control_c, 5, 7, 109
1, 90579, Control_c, 6, 7, 109
1, 90580, Control_c, 7, 7, 109
1, 90581, Control_c, 9, 7, 109
1, 90592, Pitch_bend_c, 3, 4608
1, 90608, Pitch_bend_c, 3, 6400
1, 90610, Note_on_c, 5, 50, 0
1, 90614, Note_on_c, 1, 31, 0
1, 90616, Note_on_c, 5, 55, 0
1, 90616, Note_on_c, 6, 70, 0
1, 90618, Pitch_bend_c, 5, 5376
1, 90619, Note_on_c, 5, 51, 99
1, 90619, Note_on_c, 6, 70, 94
1, 90619, Note_on_c, 7, 74, 0
1, 90621, Note_on_c, 6, 63, 76
1, 90624, Note_on_c, 1, 27, 95
1, 90624, Pitch_bend_c, 3, 8192
1, 90624, Note_on_c, 9, 35, 105
1, 90624, Note_on_c, 9, 51, 47
1, 90626, Note_on_c, 7, 70, 114
1, 90628, Note_on_c, 9, 35, 0
1, 90628, Note_on_c, 9, 51, 0
1, 90630, Note_on_c, 5, 58, 72
1, 90631, Note_on_c, 6, 67, 0
1, 90640, Pitch_bend_c, 5, 6784
1, 90656, Pitch_bend_c, 5, 8192
1, 90684, Control_c, 1, 7, 107
1, 90685, Control_c, 3, 7, 107
1, 90686, Control_c, 5, 7, 107
1, 90687, Control_c, 6, 7, 107
1, 90688, Control_c, 7, 7, 107
1, 90768, Control_c, 1, 7, 105
1, 90769, Control_c, 3, 7, 105
1, 90770, Control_c, 5, 7, 105
1, 90771, Control_c, 6, 7, 105
1, 90772, Control_c, 7, 7, 105
1, 90773, Control_c, 9, 7, 105
1, 90784, Control_c, 3, 1, 46
1, 90816, Note_on_c, 9, 51, 46
1, 90820, Note_on_c, 9, 51, 0
1, 90856, Control_c, 1, 7, 103
1, 90857, Control_c, 3, 7, 103
1, 90858, Control_c, 5, 7, 103
1, 90859, Control_c, 6, 7, 103
1, 90860, Control_c, 7, 7, 103
1, 90912, Control_c, 5, 1, 74
1, 90940, Control_c, 1, 7, 102
1, 90941, Control_c, 3, 7, 102
1, 90942, Control_c, 5, 7, 102
1, 90943, Control_c, 6, 7, 102
1, 90944, Control_c, 7, 7, 102
1, 90945, Control_c, 9, 7, 102
1, 91006, Pitch_bend_c, 5, 2048
1, 91007, Note_on_c, 5, 79, 112
1, 91008, Note_on_c, 9, 38, 94
1, 91008, Note_on_c, 9, 51, 48
1, 91012, Note_on_c, 9, 38, 0
1, 91012, Note_on_c, 9, 51, 0
1, 91024, Pitch_bend_c, 5, 3072
1, 91028, Control_c, 1, 7, 100
1, 91029, Control_c, 3, 7, 100
1, 91030, Control_c, 5, 7, 100
1, 91031, Control_c, 6, 7, 100
1, 91032, Control_c, 7, 7, 100
1, 91040, Pitch_bend_c, 5, 4608
1, 91056, Pitch_bend_c, 5, 6400
1, 91072, Pitch_bend_c, 5, 8192
1, 91088, Control_c, 5, 1, 89
1, 91104, Control_c, 3, 7, 98
1, 91116, Control_c, 1, 7, 98
1, 91118, Control_c, 5, 7, 98
1, 91119, Control_c, 6, 7, 98
1, 91120, Control_c, 7, 7, 98
1, 91121, Control_c, 9, 7, 98
1, 91184, Control_c, 3, 7, 97
1, 91200, Control_c, 1, 7, 97
1, 91200, Control_c, 3, 1, 0
1, 91200, Note_on_c, 9, 51, 47
1, 91202, Control_c, 5, 7, 97
1, 91203, Control_c, 6, 7, 97
1, 91204, Control_c, 7, 7, 97
1, 91204, Note_on_c, 9, 51, 0
1, 91242, Note_on_c, 1, 27, 0
1, 91280, Control_c, 5, 1, 0
1, 91280, Note_on_c, 3, 79, 0
1, 91284, Control_c, 1, 7, 95
1, 91286, Control_c, 5, 7, 95
1, 91287, Control_c, 6, 7, 95
1, 91288, Control_c, 7, 7, 95
1, 91296, Note_on_c, 1, 27, 100
1, 91312, Pitch_bend_c, 5, 7680
1, 91328, Pitch_bend_c, 5, 6144
1, 91336, Note_on_c, 7, 70, 0
1, 91344, Pitch_bend_c, 5, 5120
1, 91360, Pitch_bend_c, 5, 3200
1, 91370, Note_on_c, 6, 70, 0
1, 91372, Control_c, 1, 7, 94
1, 91373, Note_on_c, 5, 51, 0
1, 91374, Control_c, 5, 7, 94
1, 91375, Control_c, 6, 7, 94
1, 91376, Control_c, 7, 7, 94
1, 91376, Pitch_bend_c, 5, 1664
1, 91377, Control_c, 9, 7, 94
1, 91386, Note_on_c, 5, 79, 0
1, 91387, Note_on_c, 5, 58, 0
1, 91388, Note_on_c, 6, 63, 0
1, 91389, Note_on_c, 1, 27, 0
1, 91391, Note_on_c, 6, 70, 86
1, 91392, Note_on_c, 1, 34, 102
1, 91392, Note_on_c, 9, 35, 104
1, 91392, Note_on_c, 9, 51, 49
1, 91392, Note_on_c, 5, 79, 104
1, 91393, Pitch_bend_c, 5, 8192
1, 91394, Note_on_c, 5, 46, 113
1, 91394, Note_on_c, 6, 65, 91
1, 91396, Note_on_c, 9, 35, 0
1, 91396, Note_on_c, 9, 51, 0
1, 91396, Note_on_c, 5, 53, 67
1, 91440, Control_c, 3, 7, 96
1, 91464, Control_c, 1, 7, 92
1, 91465, Control_c, 3, 7, 92
1, 91466, Control_c, 5, 7, 92
1, 91467, Control_c, 6, 7, 92
1, 91468, Control_c, 7, 7, 92
1, 91475, Note_on_c, 5, 77, 76
1, 91485, Note_on_c, 5, 79, 0
1, 91548, Control_c, 1, 7, 90
1, 91549, Control_c, 3, 7, 90
1, 91550, Control_c, 5, 7, 90
1, 91551, Control_c, 6, 7, 90
1, 91552, Control_c, 7, 7, 90
1, 91553, Control_c, 9, 7, 90
1, 91567, Note_on_c, 5, 77, 0
1, 91584, Note_on_c, 9, 51, 48
1, 91588, Note_on_c, 9, 51, 0
1, 91588, Note_on_c, 5, 74, 85
1, 91636, Control_c, 1, 7, 88
1, 91637, Control_c, 3, 7, 88
1, 91638, Control_c, 5, 7, 88
1, 91639, Control_c, 6, 7, 88
1, 91640, Control_c, 7, 7, 88
1, 91641, Control_c, 9, 7, 88
1, 91673, Note_on_c, 5, 74, 0
1, 91678, Note_on_c, 5, 72, 81
1, 91680, Note_on_c, 9, 38, 68
1, 91684, Note_on_c, 9, 38, 0
1, 91720, Control_c, 1, 7, 86
1, 91721, Control_c, 3, 7, 86
1, 91722, Control_c, 5, 7, 86
1, 91723, Control_c, 6, 7, 86
1, 91724, Control_c, 7, 7, 86
1, 91725, Control_c, 9, 7, 86
1, 91776, Note_on_c, 9, 38, 97
1, 91776, Note_on_c, 9, 51, 48
1, 91776, Note_on_c, 7, 70, 118
1, 91780, Note_on_c, 9, 38, 0
1, 91780, Note_on_c, 9, 51, 0
1, 91780, Note_on_c, 5, 74, 92
1, 91788, Note_on_c, 5, 72, 0
1, 91812, Control_c, 1, 7, 84
1, 91813, Control_c, 3, 7, 84
1, 91814, Control_c, 5, 7, 84
1, 91815, Control_c, 6, 7, 84
1, 91816, Control_c, 7, 7, 84
1, 91896, Control_c, 1, 7, 83
1, 91897, Control_c, 3, 7, 83
1, 91898, Control_c, 5, 7, 83
1, 91899, Control_c, 6, 7, 83
1, 91900, Control_c, 7, 7, 83
1, 91901, Control_c, 9, 7, 83
1, 91904, Control_c, 5, 1, 97
1, 91965, Note_on_c, 7, 70, 0
1, 91968, Note_on_c, 9, 38, 76
1, 91968, Note_on_c, 9, 51, 46
1, 91968, Note_on_c, 7, 72, 118
1, 91972, Note_on_c, 9, 38, 0
1, 91972, Note_on_c, 9, 51, 0
1, 91984, Control_c, 1, 7, 81
1, 91985, Control_c, 3, 7, 81
1, 91986, Control_c, 5, 7, 81
1, 91987, Control_c, 6, 7, 81
1, 91988, Control_c, 7, 7, 81
1, 91989, Control_c, 9, 7, 81
1, 92016, Control_c, 5, 1, 0
1, 92018, Note_on_c, 1, 34, 0
1, 92050, Pitch_bend_c, 5, 3584
1, 92051, Note_on_c, 5, 77, 94
1, 92061, Note_on_c, 7, 72, 0
1, 92064, Note_on_c, 1, 34, 100
1, 92064, Note_on_c, 7, 69, 118
1, 92064, Pitch_bend_c, 5, 5376
1, 92064, Note_on_c, 9, 35, 86
1, 92068, Control_c, 1, 7, 79
1, 92068, Note_on_c, 9, 35, 0
1, 92069, Control_c, 3, 7, 79
1, 92070, Control_c, 5, 7, 79
1, 92071, Control_c, 6, 7, 79
1, 92072, Control_c, 7, 7, 79
1, 92073, Control_c, 9, 7, 79
1, 92079, Note_on_c, 5, 74, 0
1, 92080, Pitch_bend_c, 5, 6656
1, 92096, Pitch_bend_c, 5, 8192
1, 92139, Note_on_c, 6, 70, 0
1, 92144, Note_on_c, 5, 46, 0
1, 92147, Note_on_c, 5, 77, 0
1, 92149, Note_on_c, 5, 53, 0
1, 92150, Note_on_c, 6, 65, 0
1, 92151, Note_on_c, 1, 34, 0
1, 92151, Note_on_c, 5, 74, 99
1, 92153, Note_on_c, 6, 69, 87
1, 92156, Control_c, 1, 7, 77
1, 92157, Note_on_c, 6, 65, 88
1, 92157, Control_c, 3, 7, 77
1, 92158, Control_c, 5, 7, 77
1, 92159, Control_c, 6, 7, 77
1, 92159, Note_on_c, 5, 41, 107
1, 92160, Note_on_c, 1, 29, 110
1, 92160, Control_c, 7, 7, 77
1, 92160, Note_on_c, 9, 35, 108
1, 92160, Note_on_c, 9, 38, 97
1, 92160, Note_on_c, 9, 51, 49
1, 92164, Note_on_c, 9, 35, 0
1, 92164, Note_on_c, 9, 38, 0
1, 92164, Note_on_c, 9, 51, 0
1, 92165, Note_on_c, 5, 48, 68
1, 92229, Note_on_c, 1, 29, 0
1, 92248, Control_c, 1, 7, 75
1, 92249, Control_c, 3, 7, 75
1, 92250, Control_c, 5, 7, 75
1, 92251, Control_c, 6, 7, 75
1, 92252, Control_c, 7, 7, 75
1, 92253, Control_c, 9, 7, 75
1, 92256, Note_on_c, 1, 29, 96
1, 92256, Note_on_c, 9, 35, 68
1, 92260, Note_on_c, 9, 35, 0
1, 92266, Note_on_c, 5, 72, 81
1, 92266, Note_on_c, 5, 74, 0
1, 92336, Control_c, 1, 7, 74
1, 92337, Control_c, 3, 7, 74
1, 92338, Control_c, 5, 7, 74
1, 92339, Control_c, 6, 7, 74
1, 92340, Control_c, 7, 7, 74
1, 92341, Control_c, 9, 7, 74
1, 92352, Note_on_c, 9, 51, 48
1, 92356, Note_on_c, 9, 51, 0
1, 92397, Note_on_c, 1, 29, 0
1, 92397, Note_on_c, 7, 69, 0
1, 92420, Control_c, 1, 7, 72
1, 92421, Control_c, 3, 7, 72
1, 92422, Control_c, 5, 7, 72
1, 92423, Control_c, 6, 7, 72
1, 92424, Control_c, 7, 7, 72
1, 92425, Control_c, 9, 7, 72
1, 92432, Control_c, 5, 1, 83
1, 92448, Note_on_c, 1, 29, 95
1, 92448, Note_on_c, 9, 35, 93
1, 92452, Note_on_c, 9, 35, 0
1, 92496, Note_on_c, 7, 74, 110
1, 92498, Note_on_c, 3, 74, 95
1, 92508, Control_c, 1, 7, 70
1, 92509, Control_c, 3, 7, 70
1, 92510, Control_c, 5, 7, 70
1, 92511, Control_c, 6, 7, 70
1, 92512, Control_c, 7, 7, 70
1, 92513, Control_c, 9, 7, 70
1, 92544, Note_on_c, 9, 51, 48
1, 92548, Note_on_c, 9, 51, 0
1, 92564, Note_on_c, 3, 74, 0
1, 92573, Note_on_c, 7, 74, 0
1, 92579, Note_on_c, 7, 74, 116
1, 92582, Note_on_c, 5, 72, 0
1, 92592, Control_c, 1, 7, 68
1, 92593, Control_c, 3, 7, 68
1, 92594, Control_c, 5, 7, 68
1, 92595, Control_c, 6, 7, 68
1, 92596, Control_c, 7, 7, 68
1, 92597, Control_c, 9, 7, 68
1, 92602, Note_on_c, 3, 82, 109
1, 92621, Note_on_c, 1, 29, 0
1, 92640, Note_on_c, 1, 26, 95
1, 92640, Note_on_c, 9, 35, 85
1, 92644, Note_on_c, 9, 35, 0
1, 92663, Note_on_c, 7, 74, 0
1, 92672, Control_c, 5, 1, 58
1, 92680, Control_c, 1, 7, 66
1, 92681, Note_on_c, 3, 82, 0
1, 92681, Control_c, 3, 7, 66
1, 92682, Control_c, 5, 7, 66
1, 92683, Control_c, 6, 7, 66
1, 92684, Control_c, 7, 7, 66
1, 92685, Control_c, 9, 7, 66
1, 92716, Note_on_c, 7, 74, 110
1, 92717, Note_on_c, 3, 82, 115
1, 92725, Note_on_c, 1, 26, 0
1, 92736, Note_on_c, 1, 29, 95
1, 92736, Note_on_c, 9, 35, 108
1, 92736, Note_on_c, 9, 38, 93
1, 92736, Note_on_c, 9, 51, 46
1, 92740, Note_on_c, 9, 35, 0
1, 92740, Note_on_c, 9, 38, 0
1, 92740, Note_on_c, 9, 51, 0
1, 92764, Control_c, 1, 7, 65
1, 92765, Control_c, 3, 7, 65
1, 92766, Control_c, 5, 7, 65
1, 92767, Control_c, 6, 7, 65
1, 92768, Control_c, 7, 7, 65
1, 92769, Control_c, 9, 7, 65
1, 92794, Note_on_c, 3, 82, 0
1, 92817, Note_on_c, 7, 74, 0
1, 92819, Note_on_c, 3, 81, 107
1, 92829, Note_on_c, 1, 29, 0
1, 92830, Note_on_c, 7, 72, 113
1, 92832, Note_on_c, 1, 29, 102
1, 92832, Note_on_c, 9, 35, 85
1, 92832, Note_on_c, 9, 38, 89
1, 92836, Note_on_c, 9, 35, 0
1, 92836, Note_on_c, 9, 38, 0
1, 92852, Control_c, 1, 7, 63
1, 92853, Control_c, 3, 7, 63
1, 92854, Control_c, 5, 7, 63
1, 92855, Control_c, 6, 7, 63
1, 92856, Control_c, 7, 7, 63
1, 92857, Control_c, 9, 7, 63
1, 92879, Note_on_c, 5, 41, 0
1, 92885, Note_on_c, 5, 48, 0
1, 92896, Control_c, 5, 1, 0
1, 92897, Note_on_c, 3, 81, 0
1, 92904, Note_on_c, 6, 69, 0
1, 92907, Note_on_c, 7, 72, 0
1, 92915, Note_on_c, 1, 29, 0
1, 92928, Note_on_c, 1, 31, 93
1, 92928, Note_on_c, 9, 35, 108
1, 92928, Note_on_c, 9, 49, 64
1, 92928, Note_on_c, 5, 50, 68
1, 92928, Note_on_c, 6, 67, 93
1, 92929, Note_on_c, 6, 65, 0
1, 92929, Note_on_c, 6, 70, 97
1, 92930, Pitch_bend_c, 3, 2304
1, 92931, Note_on_c, 3, 82, 118
1, 92932, Note_on_c, 9, 35, 0
1, 92932, Note_on_c, 9, 49, 0
1, 92932, Note_on_c, 5, 55, 114
1, 92941, Note_on_c, 7, 74, 113
1, 92944, Control_c, 1, 7, 61
1, 92944, Pitch_bend_c, 3, 4096
1, 92945, Control_c, 3, 7, 61
1, 92946, Control_c, 5, 7, 61
1, 92947, Control_c, 6, 7, 61
1, 92948, Control_c, 7, 7, 61
1, 92960, Pitch_bend_c, 3, 8192
1, 93028, Control_c, 1, 7, 59
1, 93029, Control_c, 3, 7, 59
1, 93030, Control_c, 5, 7, 59
1, 93031, Control_c, 6, 7, 59
1, 93032, Control_c, 7, 7, 59
1, 93033, Control_c, 9, 7, 59
1, 93072, Pitch_bend_c, 3, 7168
1, 93088, Pitch_bend_c, 3, 4608
1, 93104, Pitch_bend_c, 3, 2816
1, 93115, Note_on_c, 3, 82, 0
1, 93116, Control_c, 1, 7, 57
1, 93117, Control_c, 3, 7, 57
1, 93118, Control_c, 5, 7, 57
1, 93119, Control_c, 6, 7, 57
1, 93120, Control_c, 7, 7, 57
1, 93120, Pitch_bend_c, 3, 8192
1, 93120, Note_on_c, 9, 51, 46
1, 93121, Note_on_c, 3, 79, 107
1, 93124, Note_on_c, 9, 51, 0
1, 93204, Control_c, 1, 7, 56
1, 93205, Control_c, 3, 7, 56
1, 93206, Control_c, 5, 7, 56
1, 93207, Control_c, 6, 7, 56
1, 93208, Control_c, 7, 7, 56
1, 93264, Control_c, 5, 1, 42
1, 93296, Control_c, 1, 7, 54
1, 93297, Control_c, 3, 7, 54
1, 93298, Control_c, 5, 7, 54
1, 93299, Control_c, 6, 7, 54
1, 93300, Control_c, 7, 7, 54
1, 93301, Control_c, 9, 7, 54
1, 93312, Control_c, 3, 1, 54
1, 93312, Note_on_c, 9, 38, 94
1, 93312, Note_on_c, 9, 51, 49
1, 93316, Note_on_c, 9, 38, 0
1, 93316, Note_on_c, 9, 51, 0
1, 93376, Control_c, 5, 1, 97
1, 93392, Control_c, 1, 7, 52
1, 93393, Control_c, 3, 7, 52
1, 93394, Control_c, 5, 7, 52
1, 93395, Control_c, 6, 7, 52
1, 93396, Control_c, 7, 7, 52
1, 93476, Control_c, 1, 7, 50
1, 93477, Control_c, 3, 7, 50
1, 93478, Control_c, 5, 7, 50
1, 93479, Control_c, 6, 7, 50
1, 93480, Control_c, 7, 7, 50
1, 93481, Control_c, 9, 7, 50
1, 93504, Note_on_c, 9, 51, 46
1, 93508, Note_on_c, 9, 51, 0
1, 93552, Control_c, 3, 1, 0
1, 93564, Control_c, 1, 7, 49
1, 93565, Control_c, 3, 7, 49
1, 93566, Control_c, 5, 7, 49
1, 93567, Control_c, 6, 7, 49
1, 93568, Control_c, 7, 7, 49
1, 93568, Control_c, 5, 1, 45
1, 93568, Pitch_bend_c, 3, 7168
1, 93569, Control_c, 9, 7, 49
1, 93574, Note_on_c, 1, 31, 0
1, 93584, Pitch_bend_c, 3, 5888
1, 93600, Note_on_c, 1, 31, 105
1, 93600, Pitch_bend_c, 3, 3584
1, 93600, Note_on_c, 9, 35, 87
1, 93604, Note_on_c, 9, 35, 0
1, 93648, Control_c, 5, 1, 0
1, 93656, Control_c, 1, 7, 47
1, 93657, Control_c, 3, 7, 47
1, 93658, Control_c, 5, 7, 47
1, 93659, Control_c, 6, 7, 47
1, 93660, Control_c, 7, 7, 47
1, 93661, Control_c, 9, 7, 47
1, 93664, Pitch_bend_c, 3, 4608
1, 93680, Pitch_bend_c, 3, 6400
1, 93682, Note_on_c, 5, 50, 0
1, 93684, Note_on_c, 6, 67, 0
1, 93686, Note_on_c, 1, 31, 0
1, 93688, Note_on_c, 5, 55, 0
1, 93690, Pitch_bend_c, 5, 5376
1, 93691, Note_on_c, 5, 51, 99
1, 93696, Note_on_c, 1, 27, 95
1, 93696, Pitch_bend_c, 3, 8192
1, 93696, Note_on_c, 9, 35, 105
1, 93696, Note_on_c, 9, 51, 47
1, 93700, Note_on_c, 9, 35, 0
1, 93700, Note_on_c, 9, 51, 0
1, 93701, Note_on_c, 6, 70, 0
1, 93702, Note_on_c, 5, 58, 72
1, 93704, Note_on_c, 6, 63, 87
1, 93704, Note_on_c, 6, 70, 93
1, 93712, Pitch_bend_c, 5, 6784
1, 93714, Note_on_c, 7, 75, 74
1, 93719, Note_on_c, 7, 74, 0
1, 93728, Pitch_bend_c, 5, 8192
1, 93760, Control_c, 1, 7, 45
1, 93761, Control_c, 3, 7, 45
1, 93762, Control_c, 5, 7, 45
1, 93763, Control_c, 6, 7, 45
1, 93764, Control_c, 7, 7, 45
1, 93844, Control_c, 1, 7, 43
1, 93845, Control_c, 3, 7, 43
1, 93846, Control_c, 5, 7, 43
1, 93847, Control_c, 6, 7, 43
1, 93848, Control_c, 7, 7, 43
1, 93849, Control_c, 9, 7, 43
1, 93856, Control_c, 3, 1, 46
1, 93888, Note_on_c, 9, 51, 49
1, 93892, Note_on_c, 9, 51, 0
1, 93932, Control_c, 1, 7, 41
1, 93933, Control_c, 3, 7, 41
1, 93934, Control_c, 5, 7, 41
1, 93935, Control_c, 6, 7, 41
1, 93936, Control_c, 7, 7, 41
1, 93984, Control_c, 5, 1, 74
1, 94020, Control_c, 1, 7, 40
1, 94021, Control_c, 3, 7, 40
1, 94022, Control_c, 5, 7, 40
1, 94023, Control_c, 6, 7, 40
1, 94024, Control_c, 7, 7, 40
1, 94025, Control_c, 9, 7, 40
1, 94078, Pitch_bend_c, 5, 2048
1, 94079, Note_on_c, 5, 79, 112
1, 94080, Note_on_c, 9, 38, 95
1, 94080, Note_on_c, 9, 51, 48
1, 94084, Note_on_c, 9, 38, 0
1, 94084, Note_on_c, 9, 51, 0
1, 94096, Pitch_bend_c, 5, 3072
1, 94108, Control_c, 1, 7, 38
1, 94109, Control_c, 3, 7, 38
1, 94110, Control_c, 5, 7, 38
1, 94111, Control_c, 6, 7, 38
1, 94112, Control_c, 7, 7, 38
1, 94112, Pitch_bend_c, 5, 4608
1, 94128, Pitch_bend_c, 5, 6400
1, 94144, Pitch_bend_c, 5, 8192
1, 94160, Control_c, 5, 1, 89
1, 94196, Control_c, 1, 7, 36
1, 94198, Control_c, 5, 7, 36
1, 94199, Control_c, 6, 7, 36
1, 94200, Control_c, 7, 7, 36
1, 94201, Control_c, 9, 7, 36
1, 94224, Control_c, 3, 7, 35
1, 94272, Control_c, 3, 1, 0
1, 94272, Note_on_c, 9, 51, 49
1, 94276, Note_on_c, 9, 51, 0
1, 94284, Control_c, 1, 7, 34
1, 94286, Control_c, 5, 7, 34
1, 94287, Control_c, 6, 7, 34
1, 94288, Control_c, 7, 7, 34
1, 94289, Control_c, 9, 7, 34
1, 94309, Note_on_c, 7, 75, 0
1, 94314, Note_on_c, 1, 27, 0
1, 94352, Control_c, 5, 1, 0
1, 94352, Note_on_c, 3, 79, 0
1, 94352, Control_c, 3, 7, 33
1, 94368, Note_on_c, 1, 27, 100
1, 94368, Control_c, 1, 7, 32
1, 94368, Note_on_c, 9, 35, 88
1, 94370, Control_c, 5, 7, 32
1, 94371, Control_c, 6, 7, 32
1, 94372, Note_on_c, 9, 35, 0
1, 94384, Pitch_bend_c, 5, 7680
1, 94400, Pitch_bend_c, 5, 6144
1, 94416, Pitch_bend_c, 5, 5120
1, 94432, Pitch_bend_c, 5, 3200
1, 94445, Note_on_c, 5, 51, 0
1, 94448, Pitch_bend_c, 5, 1664
1, 94456, Control_c, 1, 7, 31
1, 94457, Control_c, 3, 7, 31
1, 94458, Note_on_c, 5, 79, 0
1, 94458, Control_c, 5, 7, 31
1, 94459, Control_c, 6, 7, 31
1, 94459, Note_on_c, 5, 58, 0
1, 94461, Note_on_c, 1, 27, 0
1, 94461, Control_c, 9, 7, 31
1, 94464, Note_on_c, 1, 34, 102
1, 94464, Note_on_c, 9, 35, 106
1, 94464, Note_on_c, 9, 51, 48
1, 94464, Note_on_c, 5, 79, 104
1, 94465, Pitch_bend_c, 5, 8192
1, 94466, Note_on_c, 5, 46, 113
1, 94468, Note_on_c, 9, 35, 0
1, 94468, Note_on_c, 9, 51, 0
1, 94468, Note_on_c, 5, 53, 67
1, 94477, Note_on_c, 6, 63, 0
1, 94477, Note_on_c, 6, 70, 0
1, 94480, Note_on_c, 6, 65, 91
1, 94484, Note_on_c, 6, 70, 85
1, 94547, Note_on_c, 5, 77, 76
1, 94548, Control_c, 1, 7, 29
1, 94549, Control_c, 3, 7, 29
1, 94550, Control_c, 5, 7, 29
1, 94551, Control_c, 6, 7, 29
1, 94557, Note_on_c, 5, 79, 0
1, 94632, Control_c, 1, 7, 27
1, 94633, Control_c, 3, 7, 27
1, 94634, Control_c, 5, 7, 27
1, 94635, Control_c, 6, 7, 27
1, 94637, Control_c, 9, 7, 27
1, 94639, Note_on_c, 5, 77, 0
1, 94656, Note_on_c, 9, 51, 47
1, 94660, Note_on_c, 9, 51, 0
1, 94660, Note_on_c, 5, 74, 85
1, 94720, Control_c, 1, 7, 25
1, 94721, Control_c, 3, 7, 25
1, 94722, Control_c, 5, 7, 25
1, 94723, Control_c, 6, 7, 25
1, 94745, Note_on_c, 5, 74, 0
1, 94750, Note_on_c, 5, 72, 81
1, 94808, Control_c, 1, 7, 23
1, 94809, Control_c, 3, 7, 23
1, 94810, Control_c, 5, 7, 23
1, 94811, Control_c, 6, 7, 23
1, 94813, Control_c, 9, 7, 23
1, 94848, Note_on_c, 9, 38, 95
1, 94848, Note_on_c, 9, 51, 48
1, 94852, Note_on_c, 9, 38, 0
1, 94852, Note_on_c, 9, 51, 0
1, 94852, Note_on_c, 5, 74, 92
1, 94860, Note_on_c, 5, 72, 0
1, 94900, Control_c, 1, 7, 21
1, 94901, Control_c, 3, 7, 21
1, 94902, Control_c, 5, 7, 21
1, 94903, Control_c, 6, 7, 21
1, 94976, Control_c, 5, 1, 97
1, 94984, Control_c, 1, 7, 20
1, 94985, Control_c, 3, 7, 20
1, 94986, Control_c, 5, 7, 20
1, 94987, Control_c, 6, 7, 20
1, 94989, Control_c, 9, 7, 20
1, 95040, Note_on_c, 9, 51, 46
1, 95044, Note_on_c, 9, 51, 0
1, 95072, Control_c, 1, 7, 18
1, 95073, Control_c, 3, 7, 18
1, 95074, Control_c, 5, 7, 18
1, 95075, Control_c, 6, 7, 18
1, 95077, Control_c, 9, 7, 18
1, 95088, Control_c, 5, 1, 0
1, 95117, Note_on_c, 1, 34, 0
1, 95122, Pitch_bend_c, 5, 3584
1, 95123, Note_on_c, 5, 77, 94
1, 95136, Note_on_c, 1, 34, 100
1, 95136, Pitch_bend_c, 5, 5376
1, 95136, Note_on_c, 9, 35, 86
1, 95140, Note_on_c, 9, 35, 0
1, 95151, Note_on_c, 5, 74, 0
1, 95152, Pitch_bend_c, 5, 6656
1, 95160, Control_c, 1, 7, 16
1, 95161, Control_c, 3, 7, 16
1, 95162, Control_c, 5, 7, 16
1, 95163, Control_c, 6, 7, 16
1, 95165, Control_c, 9, 7, 16
1, 95168, Pitch_bend_c, 5, 8192
1, 95209, Note_on_c, 6, 65, 0
1, 95212, Note_on_c, 1, 34, 0
1, 95216, Note_on_c, 5, 46, 0
1, 95219, Note_on_c, 5, 77, 0
1, 95221, Note_on_c, 5, 53, 0
1, 95223, Note_on_c, 5, 74, 99
1, 95226, Note_on_c, 6, 70, 0
1, 95231, Note_on_c, 5, 41, 107
1, 95232, Note_on_c, 1, 29, 102
1, 95232, Note_on_c, 9, 35, 105
1, 95232, Note_on_c, 9, 51, 48
1, 95236, Note_on_c, 9, 35, 0
1, 95236, Note_on_c, 9, 51, 0
1, 95237, Note_on_c, 5, 48, 68
1, 95248, Control_c, 1, 7, 14
1, 95249, Control_c, 3, 7, 14
1, 95250, Control_c, 5, 7, 14
1, 95332, Control_c, 1, 7, 12
1, 95333, Control_c, 3, 7, 12
1, 95334, Control_c, 5, 7, 12
1, 95337, Control_c, 9, 7, 12
1, 95338, Note_on_c, 5, 72, 81
1, 95338, Note_on_c, 5, 74, 0
1, 95424, Control_c, 1, 7, 10
1, 95424, Note_on_c, 9, 51, 47
1, 95425, Control_c, 3, 7, 10
1, 95426, Control_c, 5, 7, 10
1, 95428, Control_c, 7, 7, 10
1, 95428, Note_on_c, 9, 51, 0
1, 95504, Control_c, 5, 1, 83
1, 95512, Control_c, 1, 7, 9
1, 95513, Control_c, 3, 7, 9
1, 95514, Note_on_c, 7, 74, 110
1, 95514, Control_c, 5, 7, 9
1, 95570, Note_on_c, 3, 74, 95
1, 95599, Note_on_c, 7, 74, 0
1, 95600, Control_c, 1, 7, 7
1, 95601, Control_c, 3, 7, 7
1, 95602, Control_c, 5, 7, 7
1, 95604, Control_c, 7, 7, 7
1, 95605, Control_c, 9, 7, 7
1, 95616, Note_on_c, 9, 38, 94
1, 95616, Note_on_c, 9, 51, 48
1, 95620, Note_on_c, 9, 38, 0
1, 95620, Note_on_c, 9, 51, 0
1, 95636, Note_on_c, 3, 74, 0
1, 95645, Note_on_c, 7, 74, 119
1, 95654, Note_on_c, 5, 72, 0
1, 95674, Note_on_c, 3, 82, 109
1, 95688, Control_c, 1, 7, 5
1, 95689, Control_c, 3, 7, 5
1, 95692, Control_c, 7, 7, 5
1, 95717, Note_on_c, 5, 48, 0
1, 95731, Note_on_c, 7, 74, 0
1, 95753, Note_on_c, 3, 82, 0
1, 95776, Control_c, 1, 7, 3
1, 95778, Note_on_c, 1, 29, 0
1, 95781, Control_c, 9, 7, 3
1, 95855, Note_on_c, 5, 41, 0
1, 95906, Control_c, 2, 120, 0
1, 95906, Control_c, 2, 123, 0
1, 95914, Control_c, 10, 120, 0
1, 95914, Control_c, 10, 123, 0
1, 95952, Control_c, 1, 120, 0
1, 95952, Control_c, 1, 123, 0
1, 95955, Control_c, 3, 120, 0
1, 95955, Control_c, 3, 123, 0
1, 95956, Control_c, 4, 120, 0
1, 95956, Control_c, 4, 123, 0
1, 95957, Control_c, 5, 120, 0
1, 95957, Control_c, 5, 123, 0
1, 95958, Control_c, 6, 120, 0
1, 95958, Control_c, 6, 123, 0
1, 95959, Control_c, 7, 120, 0
1, 95959, Control_c, 7, 123, 0
1, 95960, Control_c, 8, 120, 0
1, 95960, Control_c, 8, 123, 0
1, 95961, Control_c, 9, 120, 0
1, 95961, Control_c, 9, 123, 0
1, 95961, End_track
0, 0, End_of_file
