0, 0, Header, 0, 1, 96
1, 0, Start_track
1, 0, Copyright_t, "                                                              "
1, 0, SMPTE_offset, 96, 0, 3, 0, 0
1, 0, MIDI_port, 0
1, 0, System_exclusive, 5, 126, 127, 9, 1, 247
1, 0, MIDI_port, 0
1, 0, Time_signature, 4, 2, 24, 8
1, 0, Key_signature, 3, "major"
1, 0, Tempo, 521739
1, 98, Program_c, 0, 28
1, 99, Control_c, 0, 7, 90
1, 99, Control_c, 0, 10, 20
1, 99, Control_c, 0, 11, 127
1, 100, Control_c, 0, 91, 68
1, 100, Control_c, 0, 93, 64
1, 103, Program_c, 1, 35
1, 104, Control_c, 1, 7, 105
1, 104, Control_c, 1, 10, 64
1, 104, Control_c, 1, 11, 127
1, 105, Control_c, 1, 91, 16
1, 105, Control_c, 1, 93, 40
1, 108, Program_c, 2, 84
1, 109, Control_c, 2, 7, 70
1, 109, Control_c, 2, 10, 30
1, 109, Control_c, 2, 11, 127
1, 110, Control_c, 2, 91, 100
1, 110, Control_c, 2, 93, 64
1, 113, Program_c, 3, 75
1, 114, Control_c, 3, 7, 100
1, 114, Control_c, 3, 10, 70
1, 114, Control_c, 3, 11, 127
1, 115, Control_c, 3, 91, 100
1, 115, Control_c, 3, 93, 40
1, 118, Program_c, 4, 75
1, 119, Control_c, 4, 7, 85
1, 119, Control_c, 4, 10, 72
1, 119, Control_c, 4, 11, 127
1, 120, Control_c, 4, 91, 100
1, 120, Control_c, 4, 93, 40
1, 123, Program_c, 5, 75
1, 124, Control_c, 5, 7, 100
1, 124, Control_c, 5, 10, 64
1, 124, Control_c, 5, 11, 127
1, 125, Control_c, 5, 91, 80
1, 125, Control_c, 5, 93, 40
1, 128, Program_c, 6, 0
1, 129, Control_c, 6, 7, 90
1, 129, Control_c, 6, 10, 50
1, 129, Control_c, 6, 11, 127
1, 130, Control_c, 6, 91, 60
1, 130, Control_c, 6, 93, 0
1, 133, Program_c, 7, 28
1, 134, Control_c, 7, 7, 90
1, 134, Control_c, 7, 10, 110
1, 134, Control_c, 7, 11, 127
1, 135, Control_c, 7, 91, 70
1, 135, Control_c, 7, 93, 64
1, 138, Program_c, 8, 4
1, 139, Control_c, 8, 7, 80
1, 139, Control_c, 8, 10, 80
1, 139, Control_c, 8, 11, 127
1, 140, Control_c, 8, 91, 75
1, 140, Control_c, 8, 93, 64
1, 144, Control_c, 9, 7, 105
1, 144, Control_c, 9, 11, 127
1, 145, Control_c, 9, 91, 55
1, 145, Control_c, 9, 93, 0
1, 148, Program_c, 10, 29
1, 149, Control_c, 10, 7, 70
1, 149, Control_c, 10, 10, 103
1, 149, Control_c, 10, 11, 127
1, 150, Control_c, 10, 91, 100
1, 150, Control_c, 10, 93, 64
1, 153, Program_c, 11, 49
1, 154, Control_c, 11, 7, 95
1, 154, Control_c, 11, 10, 63
1, 154, Control_c, 11, 11, 127
1, 155, Control_c, 11, 91, 65
1, 155, Control_c, 11, 93, 40
1, 158, Program_c, 12, 0
1, 159, Control_c, 12, 7, 95
1, 159, Control_c, 12, 10, 95
1, 159, Control_c, 12, 11, 127
1, 160, Control_c, 12, 91, 65
1, 160, Control_c, 12, 93, 0
1, 163, Program_c, 13, 120
1, 164, Control_c, 13, 7, 65
1, 164, Control_c, 13, 10, 50
1, 164, Control_c, 13, 11, 127
1, 165, Control_c, 13, 91, 60
1, 165, Control_c, 13, 93, 0
1, 672, Note_on_c, 9, 40, 118
1, 673, Control_c, 9, 1, 0
1, 673, Pitch_bend_c, 9, 8192
1, 699, Note_on_c, 9, 40, 0
1, 721, Note_on_c, 1, 28, 121
1, 722, Control_c, 1, 1, 0
1, 722, Pitch_bend_c, 1, 8192
1, 749, Note_on_c, 1, 28, 0
1, 763, Note_on_c, 7, 45, 117
1, 764, Control_c, 7, 1, 0
1, 764, Pitch_bend_c, 7, 8192
1, 768, Note_on_c, 0, 45, 124
1, 768, Note_on_c, 9, 36, 112
1, 769, Note_on_c, 9, 36, 0
1, 769, Control_c, 0, 1, 0
1, 769, Pitch_bend_c, 0, 8192
1, 769, Note_on_c, 1, 33, 121
1, 773, Note_on_c, 7, 45, 0
1, 797, Note_on_c, 1, 33, 0
1, 810, Note_on_c, 7, 52, 78
1, 815, Note_on_c, 0, 52, 85
1, 817, Note_on_c, 1, 33, 98
1, 820, Note_on_c, 7, 52, 0
1, 841, Note_on_c, 1, 33, 0
1, 858, Note_on_c, 7, 59, 108
1, 863, Note_on_c, 0, 59, 115
1, 864, Note_on_c, 9, 40, 118
1, 865, Note_on_c, 9, 40, 0
1, 865, Note_on_c, 1, 33, 121
1, 868, Note_on_c, 7, 59, 0
1, 886, Note_on_c, 0, 52, 0
1, 893, Note_on_c, 1, 33, 0
1, 906, Note_on_c, 7, 52, 90
1, 910, Note_on_c, 0, 59, 0
1, 911, Note_on_c, 0, 52, 97
1, 911, Note_on_c, 1, 33, 104
1, 912, Note_on_c, 9, 36, 81
1, 913, Note_on_c, 9, 36, 0
1, 916, Note_on_c, 7, 52, 0
1, 938, Note_on_c, 1, 33, 0
1, 954, Note_on_c, 7, 61, 101
1, 959, Note_on_c, 0, 61, 108
1, 959, Note_on_c, 1, 33, 118
1, 960, Note_on_c, 9, 36, 109
1, 961, Note_on_c, 9, 36, 0
1, 964, Note_on_c, 7, 61, 0
1, 988, Note_on_c, 1, 33, 0
1, 1002, Note_on_c, 7, 59, 98
1, 1006, Note_on_c, 0, 61, 0
1, 1007, Note_on_c, 0, 59, 105
1, 1007, Note_on_c, 1, 33, 112
1, 1012, Note_on_c, 7, 59, 0
1, 1030, Note_on_c, 0, 52, 0
1, 1033, Note_on_c, 1, 33, 0
1, 1050, Note_on_c, 7, 52, 91
1, 1055, Note_on_c, 0, 52, 98
1, 1055, Note_on_c, 1, 33, 116
1, 1056, Note_on_c, 9, 40, 118
1, 1057, Note_on_c, 9, 40, 0
1, 1060, Note_on_c, 7, 52, 0
1, 1080, Note_on_c, 1, 33, 0
1, 1097, Note_on_c, 0, 59, 0
1, 1098, Note_on_c, 7, 59, 100
1, 1103, Note_on_c, 0, 59, 107
1, 1103, Note_on_c, 1, 33, 116
1, 1108, Note_on_c, 7, 59, 0
1, 1126, Note_on_c, 0, 52, 0
1, 1130, Note_on_c, 0, 45, 0
1, 1133, Note_on_c, 1, 33, 0
1, 1147, Note_on_c, 7, 45, 117
1, 1148, Note_on_c, 0, 59, 0
1, 1151, Note_on_c, 1, 33, 116
1, 1152, Note_on_c, 0, 45, 124
1, 1152, Note_on_c, 9, 36, 112
1, 1153, Note_on_c, 9, 36, 0
1, 1157, Note_on_c, 7, 45, 0
1, 1183, Note_on_c, 1, 33, 0
1, 1194, Note_on_c, 7, 52, 78
1, 1199, Note_on_c, 0, 52, 85
1, 1199, Note_on_c, 1, 33, 99
1, 1204, Note_on_c, 7, 52, 0
1, 1233, Note_on_c, 1, 33, 0
1, 1242, Note_on_c, 7, 59, 108
1, 1247, Note_on_c, 0, 59, 115
1, 1247, Note_on_c, 1, 33, 116
1, 1248, Note_on_c, 9, 40, 118
1, 1249, Note_on_c, 9, 40, 0
1, 1252, Note_on_c, 7, 59, 0
1, 1270, Note_on_c, 0, 52, 0
1, 1283, Note_on_c, 1, 33, 0
1, 1290, Note_on_c, 7, 52, 90
1, 1292, Note_on_c, 0, 59, 0
1, 1295, Note_on_c, 0, 52, 97
1, 1296, Note_on_c, 1, 33, 106
1, 1296, Note_on_c, 9, 36, 79
1, 1297, Note_on_c, 9, 36, 0
1, 1300, Note_on_c, 7, 52, 0
1, 1326, Note_on_c, 1, 33, 0
1, 1338, Note_on_c, 7, 61, 101
1, 1340, Note_on_c, 0, 52, 0
1, 1343, Note_on_c, 0, 61, 108
1, 1343, Note_on_c, 1, 33, 114
1, 1344, Note_on_c, 9, 36, 111
1, 1345, Note_on_c, 9, 36, 0
1, 1348, Note_on_c, 7, 61, 0
1, 1374, Note_on_c, 1, 33, 0
1, 1386, Note_on_c, 7, 59, 98
1, 1390, Note_on_c, 0, 61, 0
1, 1391, Note_on_c, 0, 59, 105
1, 1391, Note_on_c, 1, 33, 98
1, 1396, Note_on_c, 7, 59, 0
1, 1428, Note_on_c, 1, 33, 0
1, 1434, Note_on_c, 7, 52, 91
1, 1439, Note_on_c, 0, 52, 98
1, 1439, Note_on_c, 1, 33, 112
1, 1440, Note_on_c, 9, 40, 118
1, 1441, Note_on_c, 9, 40, 0
1, 1444, Note_on_c, 7, 52, 0
1, 1478, Note_on_c, 0, 59, 0
1, 1481, Note_on_c, 1, 33, 0
1, 1482, Note_on_c, 7, 59, 100
1, 1482, Note_on_c, 13, 65, 77
1, 1483, Control_c, 13, 1, 0
1, 1483, Pitch_bend_c, 13, 8192
1, 1484, Note_on_c, 0, 52, 0
1, 1487, Note_on_c, 0, 59, 107
1, 1487, Note_on_c, 1, 33, 102
1, 1492, Note_on_c, 7, 59, 0
1, 1514, Note_on_c, 0, 45, 0
1, 1518, Note_on_c, 1, 33, 0
1, 1529, Note_on_c, 13, 65, 0
1, 1531, Note_on_c, 7, 42, 117
1, 1532, Note_on_c, 0, 59, 0
1, 1536, Note_on_c, 0, 42, 124
1, 1536, Note_on_c, 9, 36, 112
1, 1537, Note_on_c, 9, 36, 0
1, 1537, Note_on_c, 1, 30, 120
1, 1541, Note_on_c, 7, 42, 0
1, 1562, Note_on_c, 1, 30, 0
1, 1578, Note_on_c, 7, 49, 78
1, 1583, Note_on_c, 0, 49, 85
1, 1583, Note_on_c, 1, 30, 120
1, 1588, Note_on_c, 7, 49, 0
1, 1610, Note_on_c, 1, 30, 0
1, 1626, Note_on_c, 7, 56, 108
1, 1631, Note_on_c, 0, 56, 115
1, 1632, Note_on_c, 1, 30, 121
1, 1632, Note_on_c, 9, 40, 118
1, 1633, Note_on_c, 9, 40, 0
1, 1636, Note_on_c, 7, 56, 0
1, 1654, Note_on_c, 0, 49, 0
1, 1667, Note_on_c, 1, 30, 0
1, 1674, Note_on_c, 7, 49, 90
1, 1678, Note_on_c, 0, 56, 0
1, 1679, Note_on_c, 0, 49, 97
1, 1679, Note_on_c, 1, 30, 114
1, 1680, Note_on_c, 9, 36, 75
1, 1681, Note_on_c, 9, 36, 0
1, 1684, Note_on_c, 7, 49, 0
1, 1705, Note_on_c, 1, 30, 0
1, 1722, Note_on_c, 7, 57, 101
1, 1727, Note_on_c, 0, 57, 108
1, 1727, Note_on_c, 1, 30, 121
1, 1728, Note_on_c, 9, 36, 112
1, 1729, Note_on_c, 9, 36, 0
1, 1732, Note_on_c, 7, 57, 0
1, 1756, Note_on_c, 1, 30, 0
1, 1770, Note_on_c, 7, 56, 98
1, 1774, Note_on_c, 0, 57, 0
1, 1775, Note_on_c, 0, 56, 105
1, 1775, Note_on_c, 1, 30, 117
1, 1780, Note_on_c, 7, 56, 0
1, 1798, Note_on_c, 0, 49, 0
1, 1807, Note_on_c, 1, 30, 0
1, 1818, Note_on_c, 7, 49, 91
1, 1823, Note_on_c, 0, 49, 98
1, 1824, Note_on_c, 1, 30, 121
1, 1824, Note_on_c, 9, 40, 118
1, 1825, Note_on_c, 9, 40, 0
1, 1828, Note_on_c, 7, 49, 0
1, 1857, Note_on_c, 1, 30, 0
1, 1865, Note_on_c, 0, 56, 0
1, 1866, Note_on_c, 7, 56, 100
1, 1871, Note_on_c, 0, 56, 107
1, 1873, Note_on_c, 1, 30, 114
1, 1876, Note_on_c, 7, 56, 0
1, 1894, Note_on_c, 0, 49, 0
1, 1898, Note_on_c, 0, 42, 0
1, 1902, Note_on_c, 1, 30, 0
1, 1915, Note_on_c, 7, 42, 117
1, 1916, Note_on_c, 0, 56, 0
1, 1920, Note_on_c, 0, 42, 124
1, 1920, Note_on_c, 1, 30, 121
1, 1920, Note_on_c, 9, 36, 110
1, 1921, Note_on_c, 9, 36, 0
1, 1925, Note_on_c, 7, 42, 0
1, 1952, Note_on_c, 1, 30, 0
1, 1962, Note_on_c, 7, 49, 78
1, 1967, Note_on_c, 0, 49, 85
1, 1969, Note_on_c, 1, 30, 114
1, 1972, Note_on_c, 7, 49, 0
1, 2000, Note_on_c, 1, 30, 0
1, 2010, Note_on_c, 7, 56, 108
1, 2015, Note_on_c, 0, 56, 115
1, 2016, Note_on_c, 1, 30, 121
1, 2016, Note_on_c, 9, 40, 118
1, 2017, Note_on_c, 9, 40, 0
1, 2020, Note_on_c, 7, 56, 0
1, 2038, Note_on_c, 0, 49, 0
1, 2051, Note_on_c, 1, 30, 0
1, 2058, Note_on_c, 7, 49, 90
1, 2060, Note_on_c, 0, 56, 0
1, 2063, Note_on_c, 0, 49, 97
1, 2064, Note_on_c, 9, 36, 72
1, 2065, Note_on_c, 9, 36, 0
1, 2065, Note_on_c, 1, 30, 114
1, 2068, Note_on_c, 7, 49, 0
1, 2095, Note_on_c, 1, 30, 0
1, 2106, Note_on_c, 7, 57, 101
1, 2108, Note_on_c, 0, 49, 0
1, 2111, Note_on_c, 0, 57, 108
1, 2111, Note_on_c, 1, 30, 121
1, 2112, Note_on_c, 9, 36, 111
1, 2113, Note_on_c, 9, 36, 0
1, 2116, Note_on_c, 7, 57, 0
1, 2147, Note_on_c, 1, 30, 0
1, 2154, Note_on_c, 7, 56, 98
1, 2158, Note_on_c, 0, 57, 0
1, 2159, Note_on_c, 0, 56, 105
1, 2159, Note_on_c, 1, 30, 114
1, 2164, Note_on_c, 7, 56, 0
1, 2172, Note_on_c, 1, 30, 0
1, 2183, Note_on_c, 1, 30, 120
1, 2201, Note_on_c, 1, 30, 0
1, 2202, Note_on_c, 7, 49, 91
1, 2207, Note_on_c, 0, 49, 98
1, 2207, Note_on_c, 1, 30, 121
1, 2208, Note_on_c, 9, 40, 118
1, 2209, Note_on_c, 9, 40, 0
1, 2212, Note_on_c, 7, 49, 0
1, 2241, Note_on_c, 1, 30, 0
1, 2246, Note_on_c, 0, 56, 0
1, 2250, Note_on_c, 7, 56, 100
1, 2250, Note_on_c, 13, 65, 77
1, 2252, Note_on_c, 0, 49, 0
1, 2255, Note_on_c, 0, 56, 107
1, 2257, Note_on_c, 1, 30, 121
1, 2260, Note_on_c, 7, 56, 0
1, 2282, Note_on_c, 0, 42, 0
1, 2283, Note_on_c, 1, 30, 0
1, 2297, Note_on_c, 13, 65, 0
1, 2299, Note_on_c, 7, 50, 117
1, 2300, Note_on_c, 0, 56, 0
1, 2304, Note_on_c, 0, 50, 124
1, 2304, Note_on_c, 1, 38, 121
1, 2304, Note_on_c, 9, 36, 108
1, 2305, Note_on_c, 9, 36, 0
1, 2309, Note_on_c, 7, 50, 0
1, 2325, Note_on_c, 1, 38, 0
1, 2346, Note_on_c, 7, 57, 78
1, 2351, Note_on_c, 0, 57, 85
1, 2352, Note_on_c, 1, 38, 114
1, 2356, Note_on_c, 7, 57, 0
1, 2369, Note_on_c, 1, 38, 0
1, 2375, Note_on_c, 1, 38, 87
1, 2387, Note_on_c, 1, 38, 0
1, 2394, Note_on_c, 7, 64, 101
1, 2399, Note_on_c, 0, 64, 108
1, 2399, Note_on_c, 1, 38, 110
1, 2400, Note_on_c, 9, 40, 118
1, 2401, Note_on_c, 9, 40, 0
1, 2404, Note_on_c, 7, 64, 0
1, 2436, Note_on_c, 1, 38, 0
1, 2442, Note_on_c, 7, 57, 90
1, 2443, Note_on_c, 7, 50, 94
1, 2446, Note_on_c, 0, 57, 0
1, 2447, Note_on_c, 0, 50, 0
1, 2447, Note_on_c, 0, 57, 97
1, 2447, Note_on_c, 1, 38, 101
1, 2448, Note_on_c, 0, 50, 101
1, 2448, Note_on_c, 9, 36, 81
1, 2449, Note_on_c, 9, 36, 0
1, 2452, Note_on_c, 7, 57, 0
1, 2453, Note_on_c, 7, 50, 0
1, 2470, Note_on_c, 0, 64, 0
1, 2482, Note_on_c, 1, 38, 0
1, 2490, Note_on_c, 7, 62, 101
1, 2495, Note_on_c, 0, 62, 108
1, 2495, Note_on_c, 1, 38, 121
1, 2496, Note_on_c, 9, 36, 111
1, 2497, Note_on_c, 9, 36, 0
1, 2500, Note_on_c, 7, 62, 0
1, 2532, Note_on_c, 1, 38, 0
1, 2536, Note_on_c, 0, 57, 0
1, 2538, Note_on_c, 7, 57, 98
1, 2543, Note_on_c, 0, 57, 105
1, 2543, Note_on_c, 1, 38, 98
1, 2548, Note_on_c, 7, 57, 0
1, 2566, Note_on_c, 0, 62, 0
1, 2572, Note_on_c, 1, 38, 0
1, 2587, Note_on_c, 7, 62, 72
1, 2587, Note_on_c, 7, 50, 91
1, 2591, Note_on_c, 0, 50, 0
1, 2591, Note_on_c, 1, 38, 116
1, 2592, Note_on_c, 0, 62, 79
1, 2592, Note_on_c, 0, 50, 98
1, 2592, Note_on_c, 9, 40, 118
1, 2593, Note_on_c, 9, 40, 0
1, 2597, Note_on_c, 7, 62, 0
1, 2597, Note_on_c, 7, 50, 0
1, 2614, Note_on_c, 0, 57, 0
1, 2629, Note_on_c, 1, 38, 0
1, 2634, Note_on_c, 7, 57, 100
1, 2639, Note_on_c, 0, 57, 107
1, 2641, Note_on_c, 1, 40, 106
1, 2644, Note_on_c, 7, 57, 0
1, 2663, Note_on_c, 0, 62, 0
1, 2679, Note_on_c, 1, 40, 0
1, 2683, Note_on_c, 7, 52, 117
1, 2684, Note_on_c, 0, 57, 0
1, 2687, Note_on_c, 0, 50, 0
1, 2688, Note_on_c, 0, 52, 114
1, 2688, Note_on_c, 9, 36, 111
1, 2689, Note_on_c, 9, 36, 0
1, 2689, Note_on_c, 1, 40, 116
1, 2693, Note_on_c, 7, 52, 0
1, 2724, Note_on_c, 1, 40, 0
1, 2730, Note_on_c, 7, 59, 78
1, 2735, Note_on_c, 0, 59, 85
1, 2737, Note_on_c, 1, 40, 92
1, 2740, Note_on_c, 7, 59, 0
1, 2770, Note_on_c, 1, 40, 0
1, 2778, Note_on_c, 7, 66, 108
1, 2783, Note_on_c, 0, 66, 97
1, 2784, Note_on_c, 9, 40, 118
1, 2785, Note_on_c, 9, 40, 0
1, 2785, Note_on_c, 1, 40, 114
1, 2788, Note_on_c, 7, 66, 0
1, 2806, Note_on_c, 0, 59, 0
1, 2811, Note_on_c, 1, 40, 0
1, 2826, Note_on_c, 7, 59, 90
1, 2827, Note_on_c, 7, 52, 95
1, 2829, Note_on_c, 0, 52, 0
1, 2831, Note_on_c, 0, 59, 97
1, 2832, Note_on_c, 0, 52, 102
1, 2832, Note_on_c, 9, 36, 76
1, 2833, Note_on_c, 9, 36, 0
1, 2833, Note_on_c, 1, 40, 99
1, 2836, Note_on_c, 7, 59, 0
1, 2837, Note_on_c, 7, 52, 0
1, 2854, Note_on_c, 0, 66, 0
1, 2861, Note_on_c, 1, 40, 0
1, 2874, Note_on_c, 7, 64, 101
1, 2879, Note_on_c, 0, 64, 108
1, 2880, Note_on_c, 9, 36, 110
1, 2881, Note_on_c, 9, 36, 0
1, 2881, Note_on_c, 1, 40, 114
1, 2884, Note_on_c, 7, 64, 0
1, 2902, Note_on_c, 0, 59, 0
1, 2908, Note_on_c, 1, 40, 0
1, 2922, Note_on_c, 7, 59, 98
1, 2927, Note_on_c, 0, 59, 99
1, 2927, Note_on_c, 1, 40, 95
1, 2932, Note_on_c, 7, 59, 0
1, 2950, Note_on_c, 0, 64, 0
1, 2958, Note_on_c, 1, 40, 0
1, 2967, Note_on_c, 0, 52, 0
1, 2970, Note_on_c, 7, 52, 91
1, 2975, Note_on_c, 0, 52, 89
1, 2976, Note_on_c, 1, 40, 118
1, 2976, Note_on_c, 9, 40, 118
1, 2977, Note_on_c, 9, 40, 0
1, 2980, Note_on_c, 7, 52, 0
1, 3004, Note_on_c, 1, 40, 0
1, 3018, Note_on_c, 7, 64, 100
1, 3018, Note_on_c, 13, 65, 77
1, 3020, Note_on_c, 0, 52, 0
1, 3023, Note_on_c, 0, 64, 85
1, 3023, Note_on_c, 1, 40, 99
1, 3028, Note_on_c, 7, 64, 0
1, 3060, Note_on_c, 1, 40, 0
1, 3065, Note_on_c, 13, 65, 0
1, 3067, Note_on_c, 7, 45, 117
1, 3070, Note_on_c, 0, 59, 0
1, 3070, Note_on_c, 0, 64, 0
1, 3071, Note_on_c, 1, 33, 121
1, 3072, Note_on_c, 0, 45, 124
1, 3072, Note_on_c, 9, 36, 111
1, 3073, Note_on_c, 9, 36, 0
1, 3077, Note_on_c, 7, 45, 0
1, 3102, Note_on_c, 1, 33, 0
1, 3114, Note_on_c, 7, 52, 78
1, 3119, Note_on_c, 0, 52, 85
1, 3119, Note_on_c, 1, 33, 116
1, 3124, Note_on_c, 7, 52, 0
1, 3153, Note_on_c, 1, 33, 0
1, 3162, Note_on_c, 7, 59, 108
1, 3167, Note_on_c, 0, 59, 115
1, 3168, Note_on_c, 1, 33, 96
1, 3168, Note_on_c, 9, 40, 118
1, 3169, Note_on_c, 9, 40, 0
1, 3172, Note_on_c, 7, 59, 0
1, 3190, Note_on_c, 0, 52, 0
1, 3200, Note_on_c, 1, 33, 0
1, 3210, Note_on_c, 7, 52, 90
1, 3214, Note_on_c, 0, 59, 0
1, 3215, Note_on_c, 0, 52, 97
1, 3216, Note_on_c, 1, 33, 112
1, 3216, Note_on_c, 9, 36, 75
1, 3217, Note_on_c, 9, 36, 0
1, 3220, Note_on_c, 7, 52, 0
1, 3250, Note_on_c, 1, 33, 0
1, 3258, Note_on_c, 7, 61, 101
1, 3263, Note_on_c, 0, 61, 108
1, 3264, Note_on_c, 9, 36, 111
1, 3265, Note_on_c, 9, 36, 0
1, 3265, Note_on_c, 1, 33, 101
1, 3268, Note_on_c, 7, 61, 0
1, 3294, Note_on_c, 1, 33, 0
1, 3306, Note_on_c, 7, 59, 98
1, 3310, Note_on_c, 0, 61, 0
1, 3311, Note_on_c, 0, 59, 105
1, 3311, Note_on_c, 1, 33, 112
1, 3316, Note_on_c, 7, 59, 0
1, 3334, Note_on_c, 0, 52, 0
1, 3347, Note_on_c, 1, 33, 0
1, 3354, Note_on_c, 7, 52, 91
1, 3359, Note_on_c, 0, 52, 98
1, 3360, Note_on_c, 9, 40, 118
1, 3361, Note_on_c, 9, 40, 0
1, 3361, Note_on_c, 1, 33, 94
1, 3364, Note_on_c, 7, 52, 0
1, 3393, Note_on_c, 1, 33, 0
1, 3401, Note_on_c, 0, 59, 0
1, 3402, Note_on_c, 7, 59, 100
1, 3407, Note_on_c, 0, 59, 107
1, 3409, Note_on_c, 1, 33, 110
1, 3412, Note_on_c, 7, 59, 0
1, 3430, Note_on_c, 0, 52, 0
1, 3434, Note_on_c, 0, 45, 0
1, 3439, Note_on_c, 1, 33, 0
1, 3451, Note_on_c, 7, 45, 117
1, 3452, Note_on_c, 0, 59, 0
1, 3456, Note_on_c, 0, 45, 124
1, 3456, Note_on_c, 9, 36, 115
1, 3457, Note_on_c, 9, 36, 0
1, 3457, Note_on_c, 1, 33, 106
1, 3461, Note_on_c, 7, 45, 0
1, 3494, Note_on_c, 1, 33, 0
1, 3498, Note_on_c, 7, 52, 78
1, 3503, Note_on_c, 0, 52, 85
1, 3505, Note_on_c, 1, 33, 108
1, 3508, Note_on_c, 7, 52, 0
1, 3527, Note_on_c, 1, 33, 0
1, 3546, Note_on_c, 7, 59, 108
1, 3551, Note_on_c, 0, 59, 115
1, 3552, Note_on_c, 3, 73, 100
1, 3552, Note_on_c, 9, 40, 118
1, 3553, Note_on_c, 9, 40, 0
1, 3553, Note_on_c, 1, 33, 104
1, 3553, Control_c, 3, 1, 0
1, 3553, Pitch_bend_c, 3, 8192
1, 3556, Note_on_c, 7, 59, 0
1, 3574, Note_on_c, 0, 52, 0
1, 3585, Note_on_c, 1, 33, 0
1, 3594, Note_on_c, 7, 52, 90
1, 3596, Note_on_c, 0, 59, 0
1, 3599, Note_on_c, 0, 52, 97
1, 3600, Note_on_c, 3, 74, 88
1, 3600, Note_on_c, 9, 36, 73
1, 3601, Note_on_c, 9, 36, 0
1, 3601, Note_on_c, 1, 33, 106
1, 3604, Note_on_c, 3, 73, 0
1, 3604, Note_on_c, 7, 52, 0
1, 3634, Note_on_c, 1, 33, 0
1, 3642, Note_on_c, 7, 61, 101
1, 3647, Note_on_c, 3, 74, 0
1, 3647, Note_on_c, 0, 61, 108
1, 3648, Note_on_c, 3, 73, 109
1, 3648, Note_on_c, 9, 36, 109
1, 3649, Note_on_c, 9, 36, 0
1, 3649, Note_on_c, 1, 33, 113
1, 3652, Note_on_c, 7, 61, 0
1, 3682, Note_on_c, 1, 33, 0
1, 3690, Note_on_c, 7, 59, 98
1, 3694, Note_on_c, 0, 61, 0
1, 3694, Note_on_c, 0, 52, 0
1, 3695, Note_on_c, 0, 59, 105
1, 3697, Note_on_c, 1, 33, 110
1, 3700, Note_on_c, 7, 59, 0
1, 3726, Note_on_c, 1, 33, 0
1, 3738, Note_on_c, 7, 52, 91
1, 3743, Note_on_c, 0, 52, 98
1, 3744, Note_on_c, 1, 33, 102
1, 3744, Note_on_c, 9, 40, 118
1, 3745, Note_on_c, 9, 40, 0
1, 3746, Note_on_c, 3, 73, 0
1, 3748, Note_on_c, 7, 52, 0
1, 3748, Note_on_c, 3, 71, 93
1, 3777, Note_on_c, 1, 33, 0
1, 3782, Note_on_c, 0, 59, 0
1, 3786, Note_on_c, 7, 59, 100
1, 3788, Note_on_c, 0, 52, 0
1, 3791, Note_on_c, 0, 59, 107
1, 3793, Note_on_c, 1, 33, 116
1, 3796, Note_on_c, 7, 59, 0
1, 3818, Note_on_c, 0, 45, 0
1, 3823, Note_on_c, 1, 33, 0
1, 3835, Note_on_c, 7, 45, 117
1, 3836, Note_on_c, 0, 59, 0
1, 3840, Note_on_c, 0, 45, 124
1, 3840, Note_on_c, 3, 69, 82
1, 3840, Note_on_c, 9, 36, 112
1, 3841, Note_on_c, 9, 36, 0
1, 3841, Note_on_c, 1, 33, 121
1, 3843, Note_on_c, 3, 71, 0
1, 3845, Note_on_c, 7, 45, 0
1, 3870, Note_on_c, 1, 33, 0
1, 3882, Note_on_c, 7, 52, 78
1, 3887, Note_on_c, 0, 52, 85
1, 3887, Note_on_c, 1, 33, 101
1, 3892, Note_on_c, 7, 52, 0
1, 3916, Note_on_c, 1, 33, 0
1, 3930, Note_on_c, 7, 59, 108
1, 3935, Note_on_c, 0, 59, 115
1, 3936, Note_on_c, 1, 33, 118
1, 3936, Note_on_c, 9, 40, 118
1, 3937, Note_on_c, 9, 40, 0
1, 3940, Note_on_c, 7, 59, 0
1, 3958, Note_on_c, 0, 52, 0
1, 3966, Note_on_c, 1, 33, 0
1, 3978, Note_on_c, 7, 52, 90
1, 3982, Note_on_c, 0, 59, 0
1, 3983, Note_on_c, 0, 52, 97
1, 3984, Note_on_c, 9, 36, 81
1, 3985, Note_on_c, 9, 36, 0
1, 3985, Note_on_c, 1, 33, 116
1, 3988, Note_on_c, 7, 52, 0
1, 4013, Note_on_c, 1, 33, 0
1, 4026, Note_on_c, 7, 61, 101
1, 4031, Note_on_c, 0, 61, 108
1, 4031, Note_on_c, 1, 33, 118
1, 4032, Note_on_c, 9, 36, 109
1, 4033, Note_on_c, 9, 36, 0
1, 4036, Note_on_c, 7, 61, 0
1, 4057, Note_on_c, 1, 33, 0
1, 4074, Note_on_c, 7, 59, 98
1, 4078, Note_on_c, 0, 61, 0
1, 4079, Note_on_c, 0, 59, 105
1, 4079, Note_on_c, 1, 33, 114
1, 4083, Note_on_c, 3, 69, 0
1, 4084, Note_on_c, 7, 59, 0
1, 4102, Note_on_c, 0, 52, 0
1, 4106, Note_on_c, 1, 33, 0
1, 4122, Note_on_c, 7, 52, 91
1, 4127, Note_on_c, 0, 52, 98
1, 4128, Note_on_c, 1, 33, 121
1, 4128, Note_on_c, 9, 40, 118
1, 4129, Note_on_c, 9, 40, 0
1, 4132, Note_on_c, 7, 52, 0
1, 4155, Note_on_c, 1, 33, 0
1, 4169, Note_on_c, 0, 59, 0
1, 4170, Note_on_c, 7, 59, 100
1, 4175, Note_on_c, 0, 59, 107
1, 4175, Note_on_c, 1, 33, 108
1, 4180, Note_on_c, 7, 59, 0
1, 4198, Note_on_c, 0, 52, 0
1, 4202, Note_on_c, 1, 33, 0
1, 4202, Note_on_c, 0, 45, 0
1, 4219, Note_on_c, 7, 45, 117
1, 4220, Note_on_c, 0, 59, 0
1, 4223, Note_on_c, 1, 33, 121
1, 4224, Note_on_c, 0, 45, 124
1, 4224, Note_on_c, 9, 36, 112
1, 4225, Note_on_c, 9, 36, 0
1, 4229, Note_on_c, 7, 45, 0
1, 4253, Note_on_c, 1, 33, 0
1, 4266, Note_on_c, 7, 52, 78
1, 4271, Note_on_c, 0, 52, 85
1, 4271, Note_on_c, 1, 33, 108
1, 4272, Note_on_c, 3, 64, 78
1, 4276, Note_on_c, 7, 52, 0
1, 4300, Note_on_c, 1, 33, 0
1, 4308, Note_on_c, 3, 64, 0
1, 4314, Note_on_c, 7, 59, 108
1, 4317, Note_on_c, 3, 73, 104
1, 4319, Note_on_c, 0, 59, 115
1, 4319, Note_on_c, 1, 33, 121
1, 4320, Note_on_c, 9, 40, 118
1, 4321, Note_on_c, 9, 40, 0
1, 4324, Note_on_c, 7, 59, 0
1, 4342, Note_on_c, 0, 52, 0
1, 4351, Note_on_c, 1, 33, 0
1, 4362, Note_on_c, 7, 52, 90
1, 4364, Note_on_c, 0, 59, 0
1, 4367, Note_on_c, 0, 52, 97
1, 4367, Note_on_c, 1, 33, 106
1, 4368, Note_on_c, 3, 74, 85
1, 4368, Note_on_c, 9, 36, 79
1, 4369, Note_on_c, 9, 36, 0
1, 4370, Note_on_c, 3, 73, 0
1, 4372, Note_on_c, 7, 52, 0
1, 4400, Note_on_c, 1, 33, 0
1, 4410, Note_on_c, 7, 61, 101
1, 4412, Note_on_c, 0, 52, 0
1, 4415, Note_on_c, 0, 61, 108
1, 4415, Note_on_c, 1, 33, 121
1, 4416, Note_on_c, 3, 73, 102
1, 4416, Note_on_c, 9, 36, 111
1, 4417, Note_on_c, 9, 36, 0
1, 4420, Note_on_c, 7, 61, 0
1, 4421, Note_on_c, 3, 74, 0
1, 4445, Note_on_c, 1, 33, 0
1, 4458, Note_on_c, 7, 59, 98
1, 4462, Note_on_c, 0, 61, 0
1, 4463, Note_on_c, 0, 59, 105
1, 4463, Note_on_c, 1, 33, 101
1, 4468, Note_on_c, 7, 59, 0
1, 4495, Note_on_c, 1, 33, 0
1, 4506, Note_on_c, 7, 52, 91
1, 4511, Note_on_c, 0, 52, 98
1, 4511, Note_on_c, 1, 33, 121
1, 4512, Note_on_c, 9, 40, 118
1, 4513, Note_on_c, 9, 40, 0
1, 4515, Note_on_c, 3, 73, 0
1, 4515, Note_on_c, 3, 71, 91
1, 4516, Note_on_c, 7, 52, 0
1, 4540, Note_on_c, 1, 33, 0
1, 4550, Note_on_c, 0, 59, 0
1, 4554, Note_on_c, 7, 59, 100
1, 4554, Note_on_c, 13, 65, 77
1, 4556, Note_on_c, 0, 52, 0
1, 4559, Note_on_c, 0, 59, 107
1, 4559, Note_on_c, 1, 32, 121
1, 4564, Note_on_c, 7, 59, 0
1, 4586, Note_on_c, 0, 45, 0
1, 4588, Note_on_c, 1, 32, 0
1, 4601, Note_on_c, 13, 65, 0
1, 4603, Note_on_c, 7, 42, 117
1, 4604, Note_on_c, 0, 59, 0
1, 4607, Note_on_c, 1, 30, 114
1, 4608, Note_on_c, 0, 42, 124
1, 4608, Note_on_c, 9, 36, 112
1, 4609, Note_on_c, 9, 36, 0
1, 4613, Note_on_c, 3, 71, 0
1, 4613, Note_on_c, 7, 42, 0
1, 4613, Note_on_c, 3, 69, 83
1, 4638, Note_on_c, 1, 30, 0
1, 4650, Note_on_c, 7, 49, 78
1, 4655, Note_on_c, 0, 49, 85
1, 4655, Note_on_c, 1, 30, 111
1, 4660, Note_on_c, 7, 49, 0
1, 4684, Note_on_c, 1, 30, 0
1, 4698, Note_on_c, 7, 56, 108
1, 4703, Note_on_c, 0, 56, 115
1, 4704, Note_on_c, 9, 40, 118
1, 4705, Note_on_c, 9, 40, 0
1, 4705, Note_on_c, 1, 30, 121
1, 4708, Note_on_c, 7, 56, 0
1, 4726, Note_on_c, 0, 49, 0
1, 4733, Note_on_c, 1, 30, 0
1, 4746, Note_on_c, 7, 49, 90
1, 4750, Note_on_c, 0, 56, 0
1, 4751, Note_on_c, 0, 49, 97
1, 4752, Note_on_c, 1, 30, 115
1, 4752, Note_on_c, 9, 36, 75
1, 4753, Note_on_c, 9, 36, 0
1, 4756, Note_on_c, 7, 49, 0
1, 4781, Note_on_c, 1, 30, 0
1, 4794, Note_on_c, 7, 57, 101
1, 4799, Note_on_c, 0, 57, 108
1, 4799, Note_on_c, 1, 30, 121
1, 4800, Note_on_c, 9, 36, 112
1, 4801, Note_on_c, 9, 36, 0
1, 4801, Note_on_c, 3, 69, 0
1, 4804, Note_on_c, 7, 57, 0
1, 4831, Note_on_c, 1, 30, 0
1, 4842, Note_on_c, 7, 56, 98
1, 4846, Note_on_c, 0, 57, 0
1, 4847, Note_on_c, 0, 56, 105
1, 4848, Note_on_c, 1, 30, 109
1, 4852, Note_on_c, 7, 56, 0
1, 4870, Note_on_c, 0, 49, 0
1, 4876, Note_on_c, 1, 30, 0
1, 4890, Note_on_c, 7, 49, 91
1, 4895, Note_on_c, 0, 49, 98
1, 4896, Note_on_c, 9, 40, 118
1, 4897, Note_on_c, 9, 40, 0
1, 4897, Note_on_c, 1, 30, 117
1, 4900, Note_on_c, 7, 49, 0
1, 4928, Note_on_c, 1, 30, 0
1, 4937, Note_on_c, 0, 56, 0
1, 4938, Note_on_c, 7, 56, 100
1, 4943, Note_on_c, 0, 56, 107
1, 4945, Note_on_c, 1, 30, 110
1, 4948, Note_on_c, 7, 56, 0
1, 4966, Note_on_c, 0, 49, 0
1, 4970, Note_on_c, 0, 42, 0
1, 4971, Note_on_c, 1, 30, 0
1, 4987, Note_on_c, 7, 42, 117
1, 4988, Note_on_c, 0, 56, 0
1, 4992, Note_on_c, 0, 42, 124
1, 4992, Note_on_c, 1, 30, 117
1, 4992, Note_on_c, 9, 36, 110
1, 4993, Note_on_c, 9, 36, 0
1, 4997, Note_on_c, 7, 42, 0
1, 5022, Note_on_c, 1, 30, 0
1, 5034, Note_on_c, 7, 49, 78
1, 5039, Note_on_c, 0, 49, 85
1, 5040, Note_on_c, 1, 30, 105
1, 5042, Note_on_c, 3, 69, 108
1, 5044, Note_on_c, 7, 49, 0
1, 5067, Note_on_c, 1, 30, 0
1, 5082, Note_on_c, 3, 69, 0
1, 5082, Note_on_c, 7, 56, 108
1, 5085, Note_on_c, 3, 69, 98
1, 5087, Note_on_c, 0, 56, 115
1, 5088, Note_on_c, 1, 30, 117
1, 5088, Note_on_c, 9, 40, 118
1, 5089, Note_on_c, 9, 40, 0
1, 5092, Note_on_c, 7, 56, 0
1, 5110, Note_on_c, 0, 49, 0
1, 5118, Note_on_c, 1, 30, 0
1, 5130, Note_on_c, 7, 49, 90
1, 5131, Note_on_c, 3, 69, 0
1, 5132, Note_on_c, 0, 56, 0
1, 5135, Note_on_c, 0, 49, 97
1, 5136, Note_on_c, 1, 30, 103
1, 5136, Note_on_c, 9, 36, 72
1, 5137, Note_on_c, 9, 36, 0
1, 5138, Note_on_c, 3, 73, 107
1, 5140, Note_on_c, 7, 49, 0
1, 5167, Note_on_c, 1, 30, 0
1, 5178, Note_on_c, 7, 57, 101
1, 5180, Note_on_c, 0, 49, 0
1, 5183, Note_on_c, 0, 57, 108
1, 5184, Note_on_c, 1, 30, 121
1, 5184, Note_on_c, 9, 36, 111
1, 5185, Note_on_c, 9, 36, 0
1, 5188, Note_on_c, 7, 57, 0
1, 5215, Note_on_c, 1, 30, 0
1, 5226, Note_on_c, 7, 56, 98
1, 5230, Note_on_c, 0, 57, 0
1, 5230, Note_on_c, 3, 74, 107
1, 5231, Note_on_c, 0, 56, 105
1, 5233, Note_on_c, 3, 73, 0
1, 5233, Note_on_c, 1, 30, 109
1, 5236, Note_on_c, 7, 56, 0
1, 5261, Note_on_c, 1, 30, 0
1, 5274, Note_on_c, 7, 49, 91
1, 5279, Note_on_c, 0, 49, 98
1, 5279, Note_on_c, 1, 30, 119
1, 5280, Note_on_c, 9, 40, 118
1, 5281, Note_on_c, 9, 40, 0
1, 5284, Note_on_c, 7, 49, 0
1, 5312, Note_on_c, 1, 30, 0
1, 5318, Note_on_c, 0, 56, 0
1, 5322, Note_on_c, 7, 56, 100
1, 5322, Note_on_c, 13, 65, 77
1, 5324, Note_on_c, 0, 49, 0
1, 5325, Note_on_c, 3, 74, 0
1, 5325, Note_on_c, 3, 69, 112
1, 5327, Note_on_c, 0, 56, 107
1, 5327, Note_on_c, 1, 30, 117
1, 5332, Note_on_c, 7, 56, 0
1, 5354, Note_on_c, 0, 42, 0
1, 5356, Note_on_c, 1, 30, 0
1, 5369, Note_on_c, 13, 65, 0
1, 5371, Note_on_c, 7, 50, 117
1, 5372, Note_on_c, 0, 56, 0
1, 5376, Note_on_c, 0, 50, 124
1, 5376, Note_on_c, 9, 36, 108
1, 5377, Note_on_c, 9, 36, 0
1, 5377, Note_on_c, 1, 38, 116
1, 5381, Note_on_c, 7, 50, 0
1, 5394, Note_on_c, 3, 69, 0
1, 5402, Note_on_c, 1, 38, 0
1, 5417, Note_on_c, 3, 69, 107
1, 5418, Note_on_c, 7, 57, 78
1, 5423, Note_on_c, 0, 57, 85
1, 5424, Note_on_c, 1, 38, 112
1, 5428, Note_on_c, 7, 57, 0
1, 5455, Note_on_c, 1, 38, 0
1, 5463, Note_on_c, 3, 69, 0
1, 5465, Note_on_c, 3, 69, 84
1, 5466, Note_on_c, 7, 64, 101
1, 5471, Note_on_c, 0, 64, 108
1, 5472, Note_on_c, 1, 38, 116
1, 5472, Note_on_c, 9, 40, 118
1, 5473, Note_on_c, 9, 40, 0
1, 5476, Note_on_c, 7, 64, 0
1, 5501, Note_on_c, 1, 38, 0
1, 5511, Note_on_c, 3, 69, 0
1, 5514, Note_on_c, 3, 74, 105
1, 5514, Note_on_c, 7, 57, 90
1, 5515, Note_on_c, 7, 50, 94
1, 5518, Note_on_c, 0, 57, 0
1, 5519, Note_on_c, 0, 50, 0
1, 5519, Note_on_c, 0, 57, 97
1, 5520, Note_on_c, 0, 50, 101
1, 5520, Note_on_c, 1, 38, 102
1, 5520, Note_on_c, 9, 36, 81
1, 5521, Note_on_c, 9, 36, 0
1, 5524, Note_on_c, 7, 57, 0
1, 5525, Note_on_c, 7, 50, 0
1, 5542, Note_on_c, 0, 64, 0
1, 5551, Note_on_c, 1, 38, 0
1, 5562, Note_on_c, 7, 62, 101
1, 5567, Note_on_c, 0, 62, 108
1, 5567, Note_on_c, 1, 38, 116
1, 5568, Note_on_c, 9, 36, 111
1, 5569, Note_on_c, 9, 36, 0
1, 5572, Note_on_c, 7, 62, 0
1, 5598, Note_on_c, 1, 38, 0
1, 5608, Note_on_c, 0, 57, 0
1, 5609, Note_on_c, 3, 74, 0
1, 5610, Note_on_c, 7, 57, 98
1, 5613, Note_on_c, 3, 73, 113
1, 5615, Note_on_c, 0, 57, 105
1, 5617, Note_on_c, 1, 38, 94
1, 5620, Note_on_c, 7, 57, 0
1, 5638, Note_on_c, 0, 62, 0
1, 5647, Note_on_c, 1, 38, 0
1, 5659, Note_on_c, 7, 62, 72
1, 5659, Note_on_c, 7, 50, 91
1, 5663, Note_on_c, 0, 50, 0
1, 5664, Note_on_c, 0, 62, 79
1, 5664, Note_on_c, 0, 50, 98
1, 5664, Note_on_c, 9, 40, 118
1, 5665, Note_on_c, 9, 40, 0
1, 5665, Note_on_c, 1, 38, 114
1, 5669, Note_on_c, 7, 50, 0
1, 5669, Note_on_c, 7, 62, 0
1, 5686, Note_on_c, 0, 57, 0
1, 5696, Note_on_c, 1, 38, 0
1, 5706, Note_on_c, 7, 57, 100
1, 5708, Note_on_c, 3, 73, 0
1, 5710, Note_on_c, 3, 71, 110
1, 5711, Note_on_c, 0, 57, 107
1, 5713, Note_on_c, 1, 38, 102
1, 5716, Note_on_c, 7, 57, 0
1, 5735, Note_on_c, 0, 62, 0
1, 5745, Note_on_c, 1, 38, 0
1, 5755, Note_on_c, 7, 52, 117
1, 5756, Note_on_c, 0, 57, 0
1, 5759, Note_on_c, 0, 50, 0
1, 5760, Note_on_c, 0, 52, 114
1, 5760, Note_on_c, 9, 36, 111
1, 5761, Note_on_c, 9, 36, 0
1, 5761, Note_on_c, 1, 40, 112
1, 5765, Note_on_c, 7, 52, 0
1, 5785, Note_on_c, 3, 71, 0
1, 5792, Note_on_c, 1, 40, 0
1, 5802, Note_on_c, 7, 59, 78
1, 5807, Note_on_c, 0, 59, 85
1, 5807, Note_on_c, 1, 40, 90
1, 5807, Note_on_c, 3, 71, 115
1, 5812, Note_on_c, 7, 59, 0
1, 5833, Note_on_c, 1, 40, 0
1, 5849, Note_on_c, 3, 71, 0
1, 5850, Note_on_c, 7, 66, 108
1, 5855, Note_on_c, 0, 66, 97
1, 5855, Note_on_c, 1, 40, 112
1, 5855, Note_on_c, 3, 69, 98
1, 5856, Note_on_c, 9, 40, 118
1, 5857, Note_on_c, 9, 40, 0
1, 5860, Note_on_c, 7, 66, 0
1, 5878, Note_on_c, 0, 59, 0
1, 5887, Note_on_c, 1, 40, 0
1, 5892, Note_on_c, 3, 69, 0
1, 5898, Note_on_c, 7, 59, 90
1, 5899, Note_on_c, 7, 52, 95
1, 5900, Note_on_c, 3, 73, 113
1, 5901, Note_on_c, 0, 52, 0
1, 5903, Note_on_c, 0, 59, 97
1, 5903, Note_on_c, 1, 40, 94
1, 5904, Note_on_c, 0, 52, 102
1, 5904, Note_on_c, 9, 36, 76
1, 5905, Note_on_c, 9, 36, 0
1, 5908, Note_on_c, 7, 59, 0
1, 5909, Note_on_c, 7, 52, 0
1, 5926, Note_on_c, 0, 66, 0
1, 5935, Note_on_c, 1, 40, 0
1, 5946, Note_on_c, 7, 64, 101
1, 5951, Note_on_c, 0, 64, 108
1, 5951, Note_on_c, 1, 40, 106
1, 5952, Note_on_c, 9, 36, 110
1, 5953, Note_on_c, 9, 36, 0
1, 5956, Note_on_c, 7, 64, 0
1, 5974, Note_on_c, 0, 59, 0
1, 5976, Note_on_c, 1, 40, 0
1, 5993, Note_on_c, 3, 73, 0
1, 5994, Note_on_c, 3, 69, 103
1, 5994, Note_on_c, 7, 59, 98
1, 5999, Note_on_c, 0, 59, 99
1, 5999, Note_on_c, 1, 40, 84
1, 6004, Note_on_c, 7, 59, 0
1, 6022, Note_on_c, 0, 64, 0
1, 6030, Note_on_c, 1, 40, 0
1, 6039, Note_on_c, 0, 52, 0
1, 6042, Note_on_c, 7, 52, 91
1, 6047, Note_on_c, 0, 52, 89
1, 6047, Note_on_c, 1, 40, 114
1, 6048, Note_on_c, 9, 40, 118
1, 6049, Note_on_c, 9, 40, 0
1, 6052, Note_on_c, 7, 52, 0
1, 6076, Note_on_c, 1, 40, 0
1, 6090, Note_on_c, 7, 64, 100
1, 6092, Note_on_c, 0, 52, 0
1, 6095, Note_on_c, 0, 64, 85
1, 6095, Note_on_c, 1, 40, 104
1, 6096, Note_on_c, 3, 69, 0
1, 6100, Note_on_c, 7, 64, 0
1, 6102, Note_on_c, 3, 69, 86
1, 6128, Note_on_c, 1, 40, 0
1, 6139, Note_on_c, 7, 42, 117
1, 6142, Note_on_c, 0, 64, 0
1, 6142, Note_on_c, 0, 59, 0
1, 6144, Note_on_c, 0, 42, 124
1, 6144, Note_on_c, 1, 42, 114
1, 6144, Note_on_c, 9, 36, 111
1, 6145, Note_on_c, 9, 36, 0
1, 6149, Note_on_c, 7, 42, 0
1, 6177, Note_on_c, 1, 42, 0
1, 6186, Note_on_c, 7, 49, 78
1, 6191, Note_on_c, 0, 49, 85
1, 6193, Note_on_c, 1, 42, 114
1, 6196, Note_on_c, 7, 49, 0
1, 6227, Note_on_c, 1, 42, 0
1, 6234, Note_on_c, 7, 56, 108
1, 6239, Note_on_c, 0, 56, 115
1, 6240, Note_on_c, 9, 40, 118
1, 6241, Note_on_c, 9, 40, 0
1, 6241, Note_on_c, 1, 42, 105
1, 6244, Note_on_c, 7, 56, 0
1, 6262, Note_on_c, 0, 49, 0
1, 6269, Note_on_c, 1, 42, 0
1, 6271, Note_on_c, 3, 69, 0
1, 6282, Note_on_c, 7, 49, 90
1, 6286, Note_on_c, 0, 56, 0
1, 6287, Note_on_c, 0, 49, 97
1, 6288, Note_on_c, 9, 36, 75
1, 6289, Note_on_c, 9, 36, 0
1, 6289, Note_on_c, 1, 42, 120
1, 6292, Note_on_c, 7, 49, 0
1, 6311, Note_on_c, 1, 42, 0
1, 6330, Note_on_c, 7, 57, 101
1, 6335, Note_on_c, 0, 57, 108
1, 6335, Note_on_c, 1, 42, 120
1, 6336, Note_on_c, 9, 36, 111
1, 6337, Note_on_c, 9, 36, 0
1, 6340, Note_on_c, 7, 57, 0
1, 6362, Note_on_c, 1, 42, 0
1, 6378, Note_on_c, 7, 56, 98
1, 6382, Note_on_c, 0, 57, 0
1, 6383, Note_on_c, 0, 56, 105
1, 6383, Note_on_c, 1, 40, 114
1, 6388, Note_on_c, 7, 56, 0
1, 6406, Note_on_c, 0, 49, 0
1, 6426, Note_on_c, 7, 49, 91
1, 6429, Note_on_c, 1, 40, 0
1, 6431, Note_on_c, 0, 49, 98
1, 6432, Note_on_c, 9, 40, 118
1, 6433, Note_on_c, 9, 40, 0
1, 6436, Note_on_c, 7, 49, 0
1, 6473, Note_on_c, 0, 56, 0
1, 6474, Note_on_c, 7, 56, 100
1, 6479, Note_on_c, 0, 56, 107
1, 6479, Note_on_c, 1, 42, 114
1, 6484, Note_on_c, 7, 56, 0
1, 6502, Note_on_c, 0, 49, 0
1, 6506, Note_on_c, 0, 42, 0
1, 6510, Note_on_c, 1, 42, 0
1, 6523, Note_on_c, 7, 42, 117
1, 6524, Note_on_c, 0, 56, 0
1, 6527, Note_on_c, 1, 42, 105
1, 6528, Note_on_c, 0, 42, 124
1, 6528, Note_on_c, 9, 36, 115
1, 6529, Note_on_c, 9, 36, 0
1, 6533, Note_on_c, 7, 42, 0
1, 6559, Note_on_c, 1, 42, 0
1, 6570, Note_on_c, 7, 49, 78
1, 6575, Note_on_c, 0, 49, 85
1, 6575, Note_on_c, 1, 42, 120
1, 6580, Note_on_c, 7, 49, 0
1, 6606, Note_on_c, 1, 42, 0
1, 6618, Note_on_c, 7, 56, 108
1, 6623, Note_on_c, 0, 56, 115
1, 6623, Note_on_c, 1, 42, 108
1, 6624, Note_on_c, 9, 40, 118
1, 6625, Note_on_c, 9, 40, 0
1, 6625, Note_on_c, 3, 73, 117
1, 6628, Note_on_c, 7, 56, 0
1, 6646, Note_on_c, 0, 49, 0
1, 6648, Note_on_c, 1, 42, 0
1, 6666, Note_on_c, 7, 49, 90
1, 6668, Note_on_c, 0, 56, 0
1, 6671, Note_on_c, 0, 49, 97
1, 6671, Note_on_c, 1, 42, 111
1, 6672, Note_on_c, 3, 74, 90
1, 6672, Note_on_c, 9, 36, 73
1, 6673, Note_on_c, 9, 36, 0
1, 6673, Note_on_c, 3, 73, 0
1, 6676, Note_on_c, 7, 49, 0
1, 6695, Note_on_c, 1, 42, 0
1, 6714, Note_on_c, 7, 57, 101
1, 6719, Note_on_c, 3, 74, 0
1, 6719, Note_on_c, 0, 57, 108
1, 6719, Note_on_c, 1, 42, 111
1, 6720, Note_on_c, 3, 73, 102
1, 6720, Note_on_c, 9, 36, 109
1, 6721, Note_on_c, 9, 36, 0
1, 6724, Note_on_c, 7, 57, 0
1, 6746, Note_on_c, 1, 42, 0
1, 6762, Note_on_c, 7, 56, 98
1, 6766, Note_on_c, 0, 57, 0
1, 6766, Note_on_c, 0, 49, 0
1, 6767, Note_on_c, 0, 56, 105
1, 6769, Note_on_c, 1, 42, 114
1, 6772, Note_on_c, 7, 56, 0
1, 6795, Note_on_c, 1, 42, 0
1, 6811, Note_on_c, 7, 49, 91
1, 6814, Note_on_c, 3, 73, 0
1, 6815, Note_on_c, 0, 49, 98
1, 6816, Note_on_c, 9, 40, 118
1, 6817, Note_on_c, 9, 40, 0
1, 6817, Note_on_c, 1, 40, 121
1, 6818, Note_on_c, 3, 71, 100
1, 6821, Note_on_c, 7, 49, 0
1, 6846, Note_on_c, 1, 40, 0
1, 6854, Note_on_c, 0, 56, 0
1, 6858, Note_on_c, 7, 56, 100
1, 6858, Note_on_c, 13, 65, 77
1, 6863, Note_on_c, 0, 56, 107
1, 6863, Note_on_c, 3, 69, 85
1, 6865, Note_on_c, 3, 71, 0
1, 6865, Note_on_c, 1, 40, 102
1, 6868, Note_on_c, 7, 56, 0
1, 6886, Note_on_c, 0, 49, 0
1, 6890, Note_on_c, 0, 42, 0
1, 6895, Note_on_c, 1, 40, 0
1, 6905, Note_on_c, 13, 65, 0
1, 6907, Note_on_c, 7, 45, 117
1, 6908, Note_on_c, 0, 56, 0
1, 6912, Note_on_c, 0, 45, 124
1, 6912, Note_on_c, 9, 36, 112
1, 6913, Note_on_c, 9, 36, 0
1, 6913, Note_on_c, 1, 33, 121
1, 6917, Note_on_c, 7, 45, 0
1, 6947, Note_on_c, 1, 33, 0
1, 6954, Note_on_c, 7, 52, 78
1, 6958, Note_on_c, 3, 69, 0
1, 6959, Note_on_c, 0, 52, 85
1, 6960, Note_on_c, 1, 33, 114
1, 6960, Note_on_c, 3, 73, 93
1, 6964, Note_on_c, 7, 52, 0
1, 6986, Note_on_c, 1, 33, 0
1, 7002, Note_on_c, 7, 59, 108
1, 7007, Note_on_c, 0, 59, 115
1, 7007, Note_on_c, 1, 33, 121
1, 7008, Note_on_c, 9, 40, 118
1, 7009, Note_on_c, 9, 40, 0
1, 7012, Note_on_c, 7, 59, 0
1, 7030, Note_on_c, 0, 52, 0
1, 7039, Note_on_c, 1, 33, 0
1, 7050, Note_on_c, 7, 52, 90
1, 7054, Note_on_c, 0, 59, 0
1, 7055, Note_on_c, 0, 52, 97
1, 7055, Note_on_c, 1, 33, 108
1, 7056, Note_on_c, 9, 36, 81
1, 7057, Note_on_c, 9, 36, 0
1, 7060, Note_on_c, 7, 52, 0
1, 7081, Note_on_c, 1, 33, 0
1, 7098, Note_on_c, 7, 61, 101
1, 7103, Note_on_c, 0, 61, 108
1, 7103, Note_on_c, 1, 33, 121
1, 7104, Note_on_c, 9, 36, 109
1, 7105, Note_on_c, 9, 36, 0
1, 7108, Note_on_c, 7, 61, 0
1, 7136, Note_on_c, 1, 33, 0
1, 7146, Note_on_c, 7, 59, 98
1, 7150, Note_on_c, 0, 61, 0
1, 7151, Note_on_c, 0, 59, 105
1, 7151, Note_on_c, 1, 33, 114
1, 7156, Note_on_c, 7, 59, 0
1, 7174, Note_on_c, 0, 52, 0
1, 7181, Note_on_c, 1, 33, 0
1, 7194, Note_on_c, 7, 52, 91
1, 7199, Note_on_c, 0, 52, 98
1, 7199, Note_on_c, 1, 33, 121
1, 7200, Note_on_c, 9, 40, 118
1, 7201, Note_on_c, 9, 40, 0
1, 7204, Note_on_c, 7, 52, 0
1, 7233, Note_on_c, 1, 33, 0
1, 7241, Note_on_c, 0, 59, 0
1, 7242, Note_on_c, 7, 59, 100
1, 7247, Note_on_c, 0, 59, 107
1, 7247, Note_on_c, 1, 33, 110
1, 7249, Note_on_c, 3, 73, 0
1, 7252, Note_on_c, 7, 59, 0
1, 7270, Note_on_c, 0, 52, 0
1, 7274, Note_on_c, 0, 45, 0
1, 7275, Note_on_c, 1, 33, 0
1, 7291, Note_on_c, 7, 45, 117
1, 7292, Note_on_c, 0, 59, 0
1, 7295, Note_on_c, 1, 33, 121
1, 7296, Note_on_c, 0, 45, 124
1, 7296, Note_on_c, 9, 36, 112
1, 7297, Note_on_c, 9, 36, 0
1, 7301, Note_on_c, 7, 45, 0
1, 7325, Note_on_c, 1, 33, 0
1, 7338, Note_on_c, 7, 52, 78
1, 7343, Note_on_c, 0, 52, 85
1, 7344, Note_on_c, 1, 33, 118
1, 7345, Note_on_c, 3, 64, 96
1, 7348, Note_on_c, 7, 52, 0
1, 7355, Note_on_c, 1, 33, 0
1, 7367, Note_on_c, 1, 33, 102
1, 7378, Note_on_c, 1, 33, 0
1, 7386, Note_on_c, 7, 59, 108
1, 7389, Note_on_c, 3, 64, 0
1, 7391, Note_on_c, 0, 59, 115
1, 7391, Note_on_c, 1, 33, 121
1, 7392, Note_on_c, 9, 40, 118
1, 7393, Note_on_c, 9, 40, 0
1, 7394, Note_on_c, 3, 73, 98
1, 7396, Note_on_c, 7, 59, 0
1, 7414, Note_on_c, 0, 52, 0
1, 7424, Note_on_c, 1, 33, 0
1, 7434, Note_on_c, 7, 52, 90
1, 7436, Note_on_c, 0, 59, 0
1, 7439, Note_on_c, 0, 52, 97
1, 7440, Note_on_c, 3, 74, 93
1, 7440, Note_on_c, 9, 36, 79
1, 7441, Note_on_c, 9, 36, 0
1, 7441, Note_on_c, 1, 33, 121
1, 7442, Note_on_c, 3, 73, 0
1, 7444, Note_on_c, 7, 52, 0
1, 7467, Note_on_c, 1, 33, 0
1, 7482, Note_on_c, 7, 61, 101
1, 7484, Note_on_c, 0, 52, 0
1, 7487, Note_on_c, 0, 61, 108
1, 7487, Note_on_c, 1, 33, 121
1, 7488, Note_on_c, 3, 74, 0
1, 7488, Note_on_c, 9, 36, 111
1, 7489, Note_on_c, 9, 36, 0
1, 7491, Note_on_c, 3, 73, 97
1, 7492, Note_on_c, 7, 61, 0
1, 7517, Note_on_c, 1, 33, 0
1, 7530, Note_on_c, 7, 59, 98
1, 7534, Note_on_c, 0, 61, 0
1, 7535, Note_on_c, 0, 59, 105
1, 7536, Note_on_c, 1, 33, 112
1, 7540, Note_on_c, 7, 59, 0
1, 7565, Note_on_c, 1, 33, 0
1, 7578, Note_on_c, 7, 52, 91
1, 7583, Note_on_c, 0, 52, 98
1, 7584, Note_on_c, 3, 71, 103
1, 7584, Note_on_c, 9, 40, 118
1, 7585, Note_on_c, 9, 40, 0
1, 7585, Note_on_c, 1, 33, 121
1, 7586, Note_on_c, 3, 73, 0
1, 7588, Note_on_c, 7, 52, 0
1, 7617, Note_on_c, 1, 33, 0
1, 7622, Note_on_c, 0, 59, 0
1, 7626, Note_on_c, 7, 59, 100
1, 7626, Note_on_c, 13, 65, 77
1, 7628, Note_on_c, 0, 52, 0
1, 7631, Note_on_c, 0, 59, 107
1, 7631, Note_on_c, 1, 32, 114
1, 7636, Note_on_c, 7, 59, 0
1, 7658, Note_on_c, 0, 45, 0
1, 7661, Note_on_c, 1, 32, 0
1, 7673, Note_on_c, 13, 65, 0
1, 7675, Note_on_c, 7, 42, 117
1, 7676, Note_on_c, 0, 59, 0
1, 7678, Note_on_c, 3, 71, 0
1, 7678, Note_on_c, 3, 69, 95
1, 7679, Note_on_c, 1, 30, 120
1, 7680, Note_on_c, 0, 42, 124
1, 7680, Note_on_c, 9, 36, 112
1, 7681, Note_on_c, 9, 36, 0
1, 7685, Note_on_c, 7, 42, 0
1, 7708, Note_on_c, 1, 30, 0
1, 7722, Note_on_c, 7, 49, 78
1, 7727, Note_on_c, 0, 49, 85
1, 7727, Note_on_c, 1, 30, 108
1, 7732, Note_on_c, 7, 49, 0
1, 7755, Note_on_c, 1, 30, 0
1, 7770, Note_on_c, 7, 56, 108
1, 7775, Note_on_c, 0, 56, 115
1, 7775, Note_on_c, 1, 30, 121
1, 7776, Note_on_c, 9, 40, 118
1, 7777, Note_on_c, 9, 40, 0
1, 7780, Note_on_c, 7, 56, 0
1, 7798, Note_on_c, 0, 49, 0
1, 7805, Note_on_c, 1, 30, 0
1, 7818, Note_on_c, 7, 49, 90
1, 7822, Note_on_c, 0, 56, 0
1, 7823, Note_on_c, 0, 49, 97
1, 7823, Note_on_c, 1, 30, 111
1, 7824, Note_on_c, 9, 36, 75
1, 7825, Note_on_c, 9, 36, 0
1, 7828, Note_on_c, 7, 49, 0
1, 7849, Note_on_c, 1, 30, 0
1, 7866, Note_on_c, 7, 57, 101
1, 7871, Note_on_c, 0, 57, 108
1, 7871, Note_on_c, 1, 30, 121
1, 7872, Note_on_c, 9, 36, 112
1, 7873, Note_on_c, 9, 36, 0
1, 7876, Note_on_c, 7, 57, 0
1, 7901, Note_on_c, 1, 30, 0
1, 7914, Note_on_c, 7, 56, 98
1, 7918, Note_on_c, 0, 57, 0
1, 7919, Note_on_c, 0, 56, 105
1, 7919, Note_on_c, 1, 30, 103
1, 7924, Note_on_c, 7, 56, 0
1, 7942, Note_on_c, 0, 49, 0
1, 7945, Note_on_c, 1, 30, 0
1, 7952, Note_on_c, 3, 69, 0
1, 7962, Note_on_c, 7, 49, 91
1, 7967, Note_on_c, 0, 49, 98
1, 7968, Note_on_c, 9, 40, 118
1, 7969, Note_on_c, 9, 40, 0
1, 7969, Note_on_c, 1, 30, 120
1, 7972, Note_on_c, 7, 49, 0
1, 7996, Note_on_c, 1, 30, 0
1, 8009, Note_on_c, 0, 56, 0
1, 8010, Note_on_c, 7, 56, 100
1, 8015, Note_on_c, 0, 56, 107
1, 8015, Note_on_c, 1, 30, 103
1, 8020, Note_on_c, 7, 56, 0
1, 8038, Note_on_c, 0, 49, 0
1, 8039, Note_on_c, 1, 30, 0
1, 8042, Note_on_c, 0, 42, 0
1, 8059, Note_on_c, 7, 42, 117
1, 8060, Note_on_c, 0, 56, 0
1, 8063, Note_on_c, 1, 30, 121
1, 8064, Note_on_c, 0, 42, 124
1, 8064, Note_on_c, 9, 36, 110
1, 8065, Note_on_c, 9, 36, 0
1, 8069, Note_on_c, 7, 42, 0
1, 8089, Note_on_c, 1, 30, 0
1, 8106, Note_on_c, 7, 49, 78
1, 8111, Note_on_c, 0, 49, 85
1, 8111, Note_on_c, 1, 30, 101
1, 8112, Note_on_c, 3, 69, 111
1, 8116, Note_on_c, 7, 49, 0
1, 8136, Note_on_c, 1, 30, 0
1, 8151, Note_on_c, 3, 69, 0
1, 8154, Note_on_c, 7, 56, 108
1, 8159, Note_on_c, 0, 56, 115
1, 8159, Note_on_c, 1, 30, 121
1, 8160, Note_on_c, 3, 69, 111
1, 8160, Note_on_c, 9, 40, 118
1, 8161, Note_on_c, 9, 40, 0
1, 8164, Note_on_c, 7, 56, 0
1, 8182, Note_on_c, 0, 49, 0
1, 8189, Note_on_c, 1, 30, 0
1, 8202, Note_on_c, 7, 49, 90
1, 8204, Note_on_c, 0, 56, 0
1, 8207, Note_on_c, 0, 49, 97
1, 8207, Note_on_c, 1, 30, 99
1, 8208, Note_on_c, 9, 36, 72
1, 8209, Note_on_c, 9, 36, 0
1, 8210, Note_on_c, 3, 69, 0
1, 8212, Note_on_c, 7, 49, 0
1, 8212, Note_on_c, 3, 73, 115
1, 8235, Note_on_c, 1, 30, 0
1, 8250, Note_on_c, 7, 57, 101
1, 8252, Note_on_c, 0, 49, 0
1, 8255, Note_on_c, 0, 57, 108
1, 8255, Note_on_c, 1, 30, 121
1, 8256, Note_on_c, 9, 36, 111
1, 8257, Note_on_c, 9, 36, 0
1, 8260, Note_on_c, 7, 57, 0
1, 8286, Note_on_c, 1, 30, 0
1, 8298, Note_on_c, 7, 56, 98
1, 8299, Note_on_c, 3, 73, 0
1, 8302, Note_on_c, 0, 57, 0
1, 8303, Note_on_c, 0, 56, 105
1, 8303, Note_on_c, 1, 30, 113
1, 8305, Note_on_c, 3, 74, 104
1, 8308, Note_on_c, 7, 56, 0
1, 8330, Note_on_c, 1, 30, 0
1, 8346, Note_on_c, 7, 49, 91
1, 8351, Note_on_c, 0, 49, 98
1, 8351, Note_on_c, 1, 30, 121
1, 8352, Note_on_c, 9, 40, 118
1, 8353, Note_on_c, 9, 40, 0
1, 8356, Note_on_c, 7, 49, 0
1, 8383, Note_on_c, 1, 30, 0
1, 8390, Note_on_c, 0, 56, 0
1, 8394, Note_on_c, 7, 56, 100
1, 8394, Note_on_c, 13, 65, 77
1, 8396, Note_on_c, 3, 74, 0
1, 8396, Note_on_c, 0, 49, 0
1, 8399, Note_on_c, 0, 56, 107
1, 8399, Note_on_c, 1, 30, 114
1, 8403, Note_on_c, 3, 69, 100
1, 8404, Note_on_c, 7, 56, 0
1, 8419, Note_on_c, 1, 30, 0
1, 8426, Note_on_c, 0, 42, 0
1, 8441, Note_on_c, 13, 65, 0
1, 8443, Note_on_c, 7, 50, 117
1, 8444, Note_on_c, 0, 56, 0
1, 8448, Note_on_c, 0, 50, 124
1, 8448, Note_on_c, 9, 36, 108
1, 8449, Note_on_c, 9, 36, 0
1, 8449, Note_on_c, 1, 38, 121
1, 8453, Note_on_c, 7, 50, 0
1, 8465, Note_on_c, 3, 69, 0
1, 8475, Note_on_c, 1, 38, 0
1, 8490, Note_on_c, 3, 69, 100
1, 8490, Note_on_c, 7, 57, 78
1, 8495, Note_on_c, 0, 57, 85
1, 8495, Note_on_c, 1, 38, 110
1, 8500, Note_on_c, 7, 57, 0
1, 8528, Note_on_c, 1, 38, 0
1, 8534, Note_on_c, 3, 69, 0
1, 8538, Note_on_c, 7, 64, 101
1, 8540, Note_on_c, 3, 69, 111
1, 8543, Note_on_c, 0, 64, 108
1, 8544, Note_on_c, 1, 38, 121
1, 8544, Note_on_c, 9, 40, 118
1, 8545, Note_on_c, 9, 40, 0
1, 8548, Note_on_c, 7, 64, 0
1, 8577, Note_on_c, 1, 38, 0
1, 8584, Note_on_c, 3, 69, 0
1, 8586, Note_on_c, 7, 57, 90
1, 8587, Note_on_c, 7, 50, 94
1, 8589, Note_on_c, 3, 74, 108
1, 8590, Note_on_c, 0, 57, 0
1, 8591, Note_on_c, 0, 50, 0
1, 8591, Note_on_c, 0, 57, 97
1, 8592, Note_on_c, 0, 50, 101
1, 8592, Note_on_c, 9, 36, 81
1, 8593, Note_on_c, 9, 36, 0
1, 8593, Note_on_c, 1, 38, 102
1, 8596, Note_on_c, 7, 57, 0
1, 8597, Note_on_c, 7, 50, 0
1, 8614, Note_on_c, 0, 64, 0
1, 8621, Note_on_c, 1, 38, 0
1, 8634, Note_on_c, 7, 62, 101
1, 8639, Note_on_c, 0, 62, 108
1, 8639, Note_on_c, 1, 38, 121
1, 8640, Note_on_c, 9, 36, 111
1, 8641, Note_on_c, 9, 36, 0
1, 8644, Note_on_c, 7, 62, 0
1, 8670, Note_on_c, 1, 38, 0
1, 8678, Note_on_c, 3, 74, 0
1, 8680, Note_on_c, 0, 57, 0
1, 8682, Note_on_c, 7, 57, 98
1, 8685, Note_on_c, 3, 73, 107
1, 8687, Note_on_c, 0, 57, 105
1, 8687, Note_on_c, 1, 38, 102
1, 8692, Note_on_c, 7, 57, 0
1, 8710, Note_on_c, 0, 62, 0
1, 8717, Note_on_c, 1, 38, 0
1, 8731, Note_on_c, 7, 62, 72
1, 8731, Note_on_c, 7, 50, 91
1, 8735, Note_on_c, 0, 50, 0
1, 8735, Note_on_c, 1, 38, 121
1, 8736, Note_on_c, 0, 62, 79
1, 8736, Note_on_c, 0, 50, 98
1, 8736, Note_on_c, 9, 40, 118
1, 8737, Note_on_c, 9, 40, 0
1, 8741, Note_on_c, 7, 62, 0
1, 8741, Note_on_c, 7, 50, 0
1, 8758, Note_on_c, 0, 57, 0
1, 8764, Note_on_c, 1, 38, 0
1, 8773, Note_on_c, 3, 73, 0
1, 8778, Note_on_c, 7, 57, 100
1, 8783, Note_on_c, 0, 57, 107
1, 8783, Note_on_c, 1, 40, 117
1, 8785, Note_on_c, 3, 71, 104
1, 8788, Note_on_c, 7, 57, 0
1, 8807, Note_on_c, 0, 62, 0
1, 8827, Note_on_c, 7, 52, 117
1, 8828, Note_on_c, 0, 57, 0
1, 8831, Note_on_c, 0, 50, 0
1, 8832, Note_on_c, 0, 52, 114
1, 8832, Note_on_c, 9, 36, 111
1, 8833, Note_on_c, 9, 36, 0
1, 8837, Note_on_c, 7, 52, 0
1, 8846, Note_on_c, 1, 40, 0
1, 8852, Note_on_c, 3, 71, 0
1, 8874, Note_on_c, 7, 59, 78
1, 8876, Note_on_c, 3, 71, 104
1, 8879, Note_on_c, 0, 59, 85
1, 8879, Note_on_c, 1, 40, 114
1, 8884, Note_on_c, 7, 59, 0
1, 8908, Note_on_c, 1, 40, 0
1, 8919, Note_on_c, 3, 71, 0
1, 8922, Note_on_c, 7, 66, 108
1, 8924, Note_on_c, 3, 69, 101
1, 8927, Note_on_c, 0, 66, 97
1, 8927, Note_on_c, 1, 40, 104
1, 8928, Note_on_c, 9, 40, 118
1, 8929, Note_on_c, 9, 40, 0
1, 8932, Note_on_c, 7, 66, 0
1, 8950, Note_on_c, 0, 59, 0
1, 8958, Note_on_c, 1, 40, 0
1, 8966, Note_on_c, 3, 69, 0
1, 8970, Note_on_c, 3, 73, 105
1, 8970, Note_on_c, 7, 59, 90
1, 8971, Note_on_c, 7, 52, 95
1, 8973, Note_on_c, 0, 52, 0
1, 8975, Note_on_c, 0, 59, 97
1, 8975, Note_on_c, 1, 40, 110
1, 8976, Note_on_c, 0, 52, 102
1, 8976, Note_on_c, 9, 36, 76
1, 8977, Note_on_c, 9, 36, 0
1, 8980, Note_on_c, 7, 59, 0
1, 8981, Note_on_c, 7, 52, 0
1, 8998, Note_on_c, 0, 66, 0
1, 9004, Note_on_c, 1, 40, 0
1, 9018, Note_on_c, 7, 64, 101
1, 9023, Note_on_c, 0, 64, 108
1, 9023, Note_on_c, 1, 40, 110
1, 9024, Note_on_c, 9, 36, 110
1, 9025, Note_on_c, 9, 36, 0
1, 9028, Note_on_c, 7, 64, 0
1, 9046, Note_on_c, 0, 59, 0
1, 9056, Note_on_c, 1, 40, 0
1, 9062, Note_on_c, 3, 73, 0
1, 9064, Note_on_c, 3, 69, 94
1, 9066, Note_on_c, 7, 59, 98
1, 9071, Note_on_c, 0, 59, 99
1, 9071, Note_on_c, 1, 40, 98
1, 9076, Note_on_c, 7, 59, 0
1, 9094, Note_on_c, 0, 64, 0
1, 9104, Note_on_c, 1, 40, 0
1, 9111, Note_on_c, 0, 52, 0
1, 9114, Note_on_c, 7, 52, 91
1, 9119, Note_on_c, 0, 52, 89
1, 9119, Note_on_c, 1, 40, 112
1, 9120, Note_on_c, 9, 40, 118
1, 9121, Note_on_c, 9, 40, 0
1, 9124, Note_on_c, 7, 52, 0
1, 9152, Note_on_c, 1, 40, 0
1, 9162, Note_on_c, 7, 64, 100
1, 9162, Note_on_c, 13, 65, 77
1, 9164, Note_on_c, 0, 52, 0
1, 9167, Note_on_c, 3, 69, 0
1, 9167, Note_on_c, 0, 64, 85
1, 9167, Note_on_c, 1, 40, 108
1, 9172, Note_on_c, 7, 64, 0
1, 9176, Note_on_c, 3, 69, 87
1, 9197, Note_on_c, 1, 40, 0
1, 9209, Note_on_c, 13, 65, 0
1, 9211, Note_on_c, 7, 45, 117
1, 9214, Note_on_c, 0, 59, 0
1, 9214, Note_on_c, 0, 64, 0
1, 9215, Note_on_c, 1, 33, 114
1, 9216, Note_on_c, 0, 45, 124
1, 9216, Note_on_c, 9, 36, 111
1, 9217, Note_on_c, 9, 36, 0
1, 9221, Note_on_c, 7, 45, 0
1, 9240, Note_on_c, 1, 33, 0
1, 9258, Note_on_c, 7, 52, 78
1, 9263, Note_on_c, 0, 52, 85
1, 9263, Note_on_c, 1, 33, 110
1, 9268, Note_on_c, 7, 52, 0
1, 9296, Note_on_c, 1, 33, 0
1, 9306, Note_on_c, 7, 59, 108
1, 9311, Note_on_c, 0, 59, 115
1, 9312, Note_on_c, 1, 33, 118
1, 9312, Note_on_c, 9, 40, 118
1, 9313, Note_on_c, 9, 40, 0
1, 9316, Note_on_c, 7, 59, 0
1, 9334, Note_on_c, 0, 52, 0
1, 9345, Note_on_c, 1, 33, 0
1, 9354, Note_on_c, 7, 52, 90
1, 9358, Note_on_c, 0, 59, 0
1, 9359, Note_on_c, 0, 52, 97
1, 9360, Note_on_c, 1, 33, 104
1, 9360, Note_on_c, 9, 36, 75
1, 9361, Note_on_c, 9, 36, 0
1, 9364, Note_on_c, 7, 52, 0
1, 9391, Note_on_c, 1, 33, 0
1, 9402, Note_on_c, 7, 61, 101
1, 9407, Note_on_c, 0, 61, 108
1, 9408, Note_on_c, 1, 33, 121
1, 9408, Note_on_c, 9, 36, 111
1, 9409, Note_on_c, 9, 36, 0
1, 9412, Note_on_c, 7, 61, 0
1, 9420, Note_on_c, 3, 69, 0
1, 9437, Note_on_c, 1, 33, 0
1, 9450, Note_on_c, 7, 59, 98
1, 9454, Note_on_c, 0, 61, 0
1, 9455, Note_on_c, 0, 59, 105
1, 9455, Note_on_c, 1, 33, 104
1, 9460, Note_on_c, 7, 59, 0
1, 9478, Note_on_c, 0, 52, 0
1, 9482, Note_on_c, 1, 33, 0
1, 9498, Note_on_c, 7, 52, 91
1, 9503, Note_on_c, 0, 52, 98
1, 9504, Note_on_c, 1, 33, 121
1, 9504, Note_on_c, 9, 40, 118
1, 9505, Note_on_c, 9, 40, 0
1, 9508, Note_on_c, 7, 52, 0
1, 9534, Note_on_c, 1, 33, 0
1, 9545, Note_on_c, 0, 59, 0
1, 9546, Note_on_c, 7, 59, 100
1, 9551, Note_on_c, 0, 59, 107
1, 9551, Note_on_c, 1, 33, 112
1, 9556, Note_on_c, 7, 59, 0
1, 9574, Note_on_c, 0, 52, 0
1, 9577, Note_on_c, 1, 33, 0
1, 9578, Note_on_c, 0, 45, 0
1, 9595, Note_on_c, 7, 45, 117
1, 9596, Note_on_c, 0, 59, 0
1, 9600, Note_on_c, 0, 45, 124
1, 9600, Note_on_c, 1, 33, 121
1, 9600, Note_on_c, 9, 36, 115
1, 9601, Note_on_c, 9, 36, 0
1, 9605, Note_on_c, 7, 45, 0
1, 9628, Note_on_c, 1, 33, 0
1, 9642, Note_on_c, 7, 52, 78
1, 9647, Note_on_c, 0, 52, 85
1, 9649, Note_on_c, 1, 33, 102
1, 9652, Note_on_c, 7, 52, 0
1, 9676, Note_on_c, 1, 33, 0
1, 9690, Note_on_c, 7, 59, 108
1, 9694, Note_on_c, 9, 40, 82
1, 9695, Note_on_c, 9, 40, 0
1, 9695, Note_on_c, 0, 59, 115
1, 9696, Note_on_c, 1, 33, 121
1, 9696, Note_on_c, 9, 40, 118
1, 9697, Note_on_c, 9, 40, 0
1, 9699, Note_on_c, 3, 69, 117
1, 9700, Note_on_c, 7, 59, 0
1, 9718, Note_on_c, 0, 52, 0
1, 9727, Note_on_c, 1, 33, 0
1, 9738, Note_on_c, 7, 52, 90
1, 9740, Note_on_c, 0, 59, 0
1, 9743, Note_on_c, 0, 52, 97
1, 9744, Note_on_c, 1, 33, 101
1, 9744, Note_on_c, 9, 36, 73
1, 9745, Note_on_c, 9, 36, 0
1, 9748, Note_on_c, 7, 52, 0
1, 9773, Note_on_c, 1, 33, 0
1, 9781, Note_on_c, 3, 69, 0
1, 9785, Note_on_c, 3, 73, 115
1, 9786, Note_on_c, 7, 61, 101
1, 9791, Note_on_c, 0, 61, 108
1, 9791, Note_on_c, 1, 33, 121
1, 9792, Note_on_c, 9, 36, 109
1, 9793, Note_on_c, 9, 36, 0
1, 9793, Note_on_c, 9, 43, 58
1, 9793, Note_on_c, 9, 41, 58
1, 9794, Note_on_c, 9, 41, 0
1, 9794, Note_on_c, 9, 43, 0
1, 9796, Note_on_c, 7, 61, 0
1, 9821, Note_on_c, 1, 33, 0
1, 9834, Note_on_c, 7, 59, 98
1, 9838, Note_on_c, 0, 52, 0
1, 9838, Note_on_c, 0, 61, 0
1, 9839, Note_on_c, 0, 59, 105
1, 9839, Note_on_c, 9, 41, 79
1, 9839, Note_on_c, 9, 43, 79
1, 9840, Note_on_c, 9, 43, 0
1, 9840, Note_on_c, 9, 41, 0
1, 9841, Note_on_c, 1, 33, 106
1, 9844, Note_on_c, 7, 59, 0
1, 9868, Note_on_c, 1, 33, 0
1, 9872, Note_on_c, 3, 73, 0
1, 9882, Note_on_c, 7, 52, 91
1, 9885, Note_on_c, 3, 76, 115
1, 9885, Note_on_c, 9, 40, 80
1, 9886, Note_on_c, 9, 40, 0
1, 9887, Note_on_c, 0, 52, 98
1, 9888, Note_on_c, 1, 33, 112
1, 9888, Note_on_c, 9, 40, 118
1, 9888, Note_on_c, 9, 43, 105
1, 9888, Note_on_c, 9, 41, 105
1, 9889, Note_on_c, 9, 41, 0
1, 9889, Note_on_c, 9, 43, 0
1, 9889, Note_on_c, 9, 40, 0
1, 9892, Note_on_c, 7, 52, 0
1, 9911, Note_on_c, 1, 33, 0
1, 9926, Note_on_c, 0, 59, 0
1, 9930, Note_on_c, 7, 59, 100
1, 9932, Note_on_c, 0, 52, 0
1, 9934, Note_on_c, 3, 76, 0
1, 9934, Note_on_c, 3, 74, 87
1, 9935, Note_on_c, 0, 59, 107
1, 9935, Note_on_c, 1, 37, 120
1, 9940, Note_on_c, 7, 59, 0
1, 9962, Note_on_c, 0, 45, 0
1, 9970, Note_on_c, 1, 37, 0
1, 9977, Note_on_c, 3, 74, 0
1, 9979, Note_on_c, 7, 50, 117
1, 9980, Note_on_c, 0, 59, 0
1, 9980, Note_on_c, 3, 78, 117
1, 9984, Note_on_c, 0, 50, 124
1, 9984, Note_on_c, 1, 38, 118
1, 9984, Note_on_c, 9, 36, 112
1, 9984, Note_on_c, 11, 66, 70
1, 9984, Note_on_c, 11, 62, 70
1, 9984, Note_on_c, 11, 64, 70
1, 9984, Note_on_c, 11, 69, 70
1, 9985, Note_on_c, 9, 36, 0
1, 9985, Note_on_c, 9, 42, 109
1, 9985, Control_c, 11, 1, 0
1, 9985, Pitch_bend_c, 11, 8192
1, 9986, Note_on_c, 9, 42, 0
1, 9989, Note_on_c, 7, 50, 0
1, 10012, Note_on_c, 1, 38, 0
1, 10026, Note_on_c, 7, 57, 78
1, 10031, Note_on_c, 0, 57, 85
1, 10031, Note_on_c, 1, 38, 101
1, 10033, Note_on_c, 9, 42, 39
1, 10034, Note_on_c, 9, 42, 0
1, 10036, Note_on_c, 7, 57, 0
1, 10063, Note_on_c, 1, 38, 0
1, 10074, Note_on_c, 7, 64, 108
1, 10079, Note_on_c, 0, 64, 115
1, 10079, Note_on_c, 1, 38, 112
1, 10080, Note_on_c, 9, 40, 118
1, 10081, Note_on_c, 9, 40, 0
1, 10081, Note_on_c, 9, 42, 95
1, 10082, Note_on_c, 9, 42, 0
1, 10084, Note_on_c, 7, 64, 0
1, 10102, Note_on_c, 0, 57, 0
1, 10110, Note_on_c, 1, 38, 0
1, 10122, Note_on_c, 7, 57, 90
1, 10127, Note_on_c, 0, 57, 97
1, 10128, Note_on_c, 9, 36, 81
1, 10129, Note_on_c, 9, 36, 0
1, 10129, Note_on_c, 1, 38, 108
1, 10129, Note_on_c, 9, 42, 52
1, 10130, Note_on_c, 9, 42, 0
1, 10132, Note_on_c, 7, 57, 0
1, 10157, Note_on_c, 1, 38, 0
1, 10170, Note_on_c, 7, 62, 101
1, 10174, Note_on_c, 0, 64, 0
1, 10175, Note_on_c, 0, 62, 108
1, 10175, Note_on_c, 1, 38, 116
1, 10175, Note_on_c, 9, 42, 95
1, 10176, Note_on_c, 9, 42, 0
1, 10176, Note_on_c, 9, 36, 109
1, 10177, Note_on_c, 9, 36, 0
1, 10180, Note_on_c, 7, 62, 0
1, 10204, Note_on_c, 1, 38, 0
1, 10218, Note_on_c, 7, 57, 98
1, 10222, Note_on_c, 0, 57, 0
1, 10222, Note_on_c, 0, 62, 0
1, 10223, Note_on_c, 0, 57, 105
1, 10223, Note_on_c, 1, 38, 104
1, 10223, Note_on_c, 9, 42, 63
1, 10224, Note_on_c, 9, 42, 0
1, 10228, Note_on_c, 7, 57, 0
1, 10253, Note_on_c, 1, 38, 0
1, 10263, Note_on_c, 0, 50, 0
1, 10267, Note_on_c, 7, 50, 91
1, 10271, Note_on_c, 0, 50, 98
1, 10271, Note_on_c, 1, 38, 118
1, 10271, Note_on_c, 9, 42, 98
1, 10272, Note_on_c, 9, 42, 0
1, 10272, Note_on_c, 9, 40, 118
1, 10273, Note_on_c, 9, 40, 0
1, 10277, Note_on_c, 7, 50, 0
1, 10283, Note_on_c, 3, 78, 0
1, 10296, Note_on_c, 1, 38, 0
1, 10313, Note_on_c, 0, 57, 0
1, 10314, Note_on_c, 7, 50, 100
1, 10318, Note_on_c, 0, 50, 0
1, 10319, Note_on_c, 0, 50, 107
1, 10319, Note_on_c, 1, 38, 99
1, 10319, Note_on_c, 9, 42, 54
1, 10320, Note_on_c, 9, 42, 0
1, 10324, Note_on_c, 7, 50, 0
1, 10347, Note_on_c, 1, 38, 0
1, 10363, Note_on_c, 7, 50, 117
1, 10364, Note_on_c, 0, 50, 0
1, 10367, Note_on_c, 1, 38, 116
1, 10367, Note_on_c, 9, 42, 110
1, 10368, Note_on_c, 9, 42, 0
1, 10368, Note_on_c, 0, 50, 77
1, 10368, Note_on_c, 9, 36, 112
1, 10369, Note_on_c, 9, 36, 0
1, 10373, Note_on_c, 7, 50, 0
1, 10396, Note_on_c, 1, 38, 0
1, 10410, Note_on_c, 7, 57, 78
1, 10415, Note_on_c, 0, 57, 85
1, 10415, Note_on_c, 1, 36, 114
1, 10415, Note_on_c, 9, 42, 58
1, 10416, Note_on_c, 9, 42, 0
1, 10420, Note_on_c, 7, 57, 0
1, 10446, Note_on_c, 1, 36, 0
1, 10458, Note_on_c, 7, 62, 108
1, 10463, Note_on_c, 0, 62, 115
1, 10463, Note_on_c, 1, 36, 108
1, 10463, Note_on_c, 9, 42, 95
1, 10464, Note_on_c, 9, 42, 0
1, 10464, Note_on_c, 3, 78, 112
1, 10464, Note_on_c, 9, 40, 118
1, 10465, Note_on_c, 9, 40, 0
1, 10468, Note_on_c, 7, 62, 0
1, 10486, Note_on_c, 0, 57, 0
1, 10497, Note_on_c, 1, 36, 0
1, 10506, Note_on_c, 7, 57, 90
1, 10508, Note_on_c, 0, 62, 0
1, 10509, Note_on_c, 3, 78, 0
1, 10511, Note_on_c, 0, 50, 0
1, 10511, Note_on_c, 1, 36, 118
1, 10512, Note_on_c, 0, 50, 97
1, 10512, Note_on_c, 3, 78, 101
1, 10512, Note_on_c, 9, 42, 51
1, 10512, Note_on_c, 9, 36, 79
1, 10513, Note_on_c, 9, 36, 0
1, 10513, Note_on_c, 9, 42, 0
1, 10516, Note_on_c, 7, 57, 0
1, 10540, Note_on_c, 1, 36, 0
1, 10554, Note_on_c, 7, 60, 101
1, 10559, Note_on_c, 3, 78, 0
1, 10559, Note_on_c, 0, 60, 108
1, 10559, Note_on_c, 1, 36, 110
1, 10559, Note_on_c, 9, 42, 96
1, 10560, Note_on_c, 9, 42, 0
1, 10560, Note_on_c, 9, 36, 111
1, 10561, Note_on_c, 9, 36, 0
1, 10562, Note_on_c, 3, 76, 108
1, 10564, Note_on_c, 7, 60, 0
1, 10589, Note_on_c, 1, 36, 0
1, 10602, Note_on_c, 7, 57, 98
1, 10606, Note_on_c, 0, 60, 0
1, 10607, Note_on_c, 0, 57, 105
1, 10607, Note_on_c, 1, 36, 114
1, 10608, Note_on_c, 9, 42, 56
1, 10609, Note_on_c, 9, 42, 0
1, 10612, Note_on_c, 7, 57, 0
1, 10638, Note_on_c, 1, 36, 0
1, 10647, Note_on_c, 0, 50, 0
1, 10650, Note_on_c, 7, 50, 91
1, 10655, Note_on_c, 0, 50, 98
1, 10656, Note_on_c, 9, 40, 118
1, 10656, Note_on_c, 9, 42, 90
1, 10657, Note_on_c, 9, 42, 0
1, 10657, Note_on_c, 9, 40, 0
1, 10657, Note_on_c, 1, 36, 106
1, 10660, Note_on_c, 7, 50, 0
1, 10686, Note_on_c, 1, 36, 0
1, 10692, Note_on_c, 3, 76, 0
1, 10694, Note_on_c, 0, 57, 0
1, 10698, Note_on_c, 7, 57, 100
1, 10703, Note_on_c, 0, 57, 95
1, 10703, Note_on_c, 1, 37, 117
1, 10704, Note_on_c, 3, 69, 104
1, 10704, Note_on_c, 9, 42, 52
1, 10705, Note_on_c, 9, 42, 0
1, 10708, Note_on_c, 7, 57, 0
1, 10739, Note_on_c, 1, 37, 0
1, 10747, Note_on_c, 7, 45, 117
1, 10748, Note_on_c, 0, 57, 0
1, 10750, Note_on_c, 0, 50, 0
1, 10750, Note_on_c, 3, 73, 107
1, 10751, Note_on_c, 11, 62, 0
1, 10751, Note_on_c, 11, 69, 0
1, 10751, Note_on_c, 3, 69, 0
1, 10751, Note_on_c, 11, 64, 0
1, 10751, Note_on_c, 11, 66, 0
1, 10751, Note_on_c, 1, 33, 110
1, 10752, Note_on_c, 0, 45, 124
1, 10752, Note_on_c, 9, 42, 114
1, 10752, Note_on_c, 9, 36, 112
1, 10752, Note_on_c, 11, 64, 73
1, 10752, Note_on_c, 11, 69, 73
1, 10753, Note_on_c, 9, 36, 0
1, 10753, Note_on_c, 9, 42, 0
1, 10757, Note_on_c, 7, 45, 0
1, 10786, Note_on_c, 1, 33, 0
1, 10794, Note_on_c, 7, 52, 78
1, 10799, Note_on_c, 0, 52, 85
1, 10800, Note_on_c, 1, 33, 114
1, 10801, Note_on_c, 9, 42, 58
1, 10802, Note_on_c, 9, 42, 0
1, 10804, Note_on_c, 7, 52, 0
1, 10830, Note_on_c, 1, 33, 0
1, 10842, Note_on_c, 7, 59, 108
1, 10847, Note_on_c, 0, 59, 115
1, 10848, Note_on_c, 1, 33, 110
1, 10848, Note_on_c, 9, 40, 118
1, 10849, Note_on_c, 9, 40, 0
1, 10849, Note_on_c, 9, 42, 92
1, 10850, Note_on_c, 9, 42, 0
1, 10852, Note_on_c, 7, 59, 0
1, 10870, Note_on_c, 0, 52, 0
1, 10878, Note_on_c, 1, 33, 0
1, 10890, Note_on_c, 7, 52, 90
1, 10894, Note_on_c, 0, 59, 0
1, 10895, Note_on_c, 0, 52, 97
1, 10896, Note_on_c, 9, 36, 75
1, 10897, Note_on_c, 9, 36, 0
1, 10897, Note_on_c, 1, 33, 116
1, 10897, Note_on_c, 9, 42, 55
1, 10898, Note_on_c, 9, 42, 0
1, 10900, Note_on_c, 7, 52, 0
1, 10925, Note_on_c, 1, 33, 0
1, 10938, Note_on_c, 7, 61, 101
1, 10943, Note_on_c, 0, 61, 108
1, 10943, Note_on_c, 1, 33, 108
1, 10944, Note_on_c, 9, 36, 112
1, 10945, Note_on_c, 9, 36, 0
1, 10945, Note_on_c, 9, 42, 90
1, 10946, Note_on_c, 9, 42, 0
1, 10948, Note_on_c, 7, 61, 0
1, 10972, Note_on_c, 1, 33, 0
1, 10986, Note_on_c, 7, 59, 98
1, 10990, Note_on_c, 0, 61, 0
1, 10991, Note_on_c, 0, 59, 105
1, 10991, Note_on_c, 9, 42, 58
1, 10992, Note_on_c, 9, 42, 0
1, 10993, Note_on_c, 1, 33, 121
1, 10996, Note_on_c, 7, 59, 0
1, 11014, Note_on_c, 0, 52, 0
1, 11021, Note_on_c, 1, 33, 0
1, 11034, Note_on_c, 7, 52, 91
1, 11039, Note_on_c, 0, 52, 98
1, 11039, Note_on_c, 9, 42, 80
1, 11040, Note_on_c, 9, 42, 0
1, 11040, Note_on_c, 9, 40, 118
1, 11041, Note_on_c, 9, 40, 0
1, 11041, Note_on_c, 1, 33, 116
1, 11044, Note_on_c, 7, 52, 0
1, 11057, Note_on_c, 3, 73, 0
1, 11067, Note_on_c, 1, 33, 0
1, 11081, Note_on_c, 0, 59, 0
1, 11082, Note_on_c, 7, 59, 100
1, 11087, Note_on_c, 0, 59, 107
1, 11087, Note_on_c, 9, 42, 52
1, 11088, Note_on_c, 9, 42, 0
1, 11088, Note_on_c, 1, 33, 121
1, 11092, Note_on_c, 7, 59, 0
1, 11110, Note_on_c, 0, 52, 0
1, 11113, Note_on_c, 1, 33, 0
1, 11114, Note_on_c, 0, 45, 0
1, 11131, Note_on_c, 7, 45, 117
1, 11132, Note_on_c, 0, 59, 0
1, 11135, Note_on_c, 1, 33, 106
1, 11135, Note_on_c, 9, 42, 114
1, 11136, Note_on_c, 9, 42, 0
1, 11136, Note_on_c, 0, 45, 124
1, 11136, Note_on_c, 9, 36, 110
1, 11137, Note_on_c, 9, 36, 0
1, 11141, Note_on_c, 7, 45, 0
1, 11165, Note_on_c, 1, 33, 0
1, 11178, Note_on_c, 7, 52, 78
1, 11183, Note_on_c, 0, 52, 85
1, 11183, Note_on_c, 1, 33, 116
1, 11183, Note_on_c, 9, 42, 56
1, 11184, Note_on_c, 9, 42, 0
1, 11188, Note_on_c, 7, 52, 0
1, 11209, Note_on_c, 1, 33, 0
1, 11226, Note_on_c, 7, 59, 108
1, 11228, Note_on_c, 3, 81, 117
1, 11231, Note_on_c, 0, 59, 115
1, 11231, Note_on_c, 1, 33, 110
1, 11231, Note_on_c, 9, 42, 89
1, 11232, Note_on_c, 9, 42, 0
1, 11232, Note_on_c, 9, 40, 118
1, 11233, Note_on_c, 9, 40, 0
1, 11236, Note_on_c, 7, 59, 0
1, 11254, Note_on_c, 0, 52, 0
1, 11262, Note_on_c, 1, 33, 0
1, 11274, Note_on_c, 7, 52, 90
1, 11276, Note_on_c, 0, 59, 0
1, 11278, Note_on_c, 3, 81, 0
1, 11278, Note_on_c, 3, 78, 91
1, 11279, Note_on_c, 0, 52, 97
1, 11279, Note_on_c, 9, 42, 54
1, 11280, Note_on_c, 9, 42, 0
1, 11280, Note_on_c, 1, 33, 118
1, 11280, Note_on_c, 9, 36, 72
1, 11281, Note_on_c, 9, 36, 0
1, 11284, Note_on_c, 7, 52, 0
1, 11308, Note_on_c, 1, 33, 0
1, 11322, Note_on_c, 7, 61, 101
1, 11324, Note_on_c, 0, 52, 0
1, 11327, Note_on_c, 0, 61, 108
1, 11327, Note_on_c, 1, 33, 112
1, 11327, Note_on_c, 3, 81, 107
1, 11328, Note_on_c, 9, 36, 111
1, 11329, Note_on_c, 9, 36, 0
1, 11329, Note_on_c, 9, 42, 88
1, 11330, Note_on_c, 9, 42, 0
1, 11331, Note_on_c, 3, 78, 0
1, 11332, Note_on_c, 7, 61, 0
1, 11354, Note_on_c, 1, 33, 0
1, 11370, Note_on_c, 7, 59, 98
1, 11374, Note_on_c, 0, 61, 0
1, 11375, Note_on_c, 0, 59, 105
1, 11375, Note_on_c, 1, 33, 121
1, 11377, Note_on_c, 9, 42, 57
1, 11378, Note_on_c, 9, 42, 0
1, 11380, Note_on_c, 7, 59, 0
1, 11403, Note_on_c, 3, 81, 0
1, 11403, Note_on_c, 1, 33, 0
1, 11418, Note_on_c, 7, 52, 91
1, 11423, Note_on_c, 0, 52, 98
1, 11423, Note_on_c, 1, 33, 110
1, 11423, Note_on_c, 3, 81, 117
1, 11424, Note_on_c, 9, 40, 118
1, 11425, Note_on_c, 9, 40, 0
1, 11425, Note_on_c, 9, 42, 92
1, 11426, Note_on_c, 9, 42, 0
1, 11428, Note_on_c, 7, 52, 0
1, 11456, Note_on_c, 1, 33, 0
1, 11462, Note_on_c, 0, 59, 0
1, 11466, Note_on_c, 7, 59, 100
1, 11468, Note_on_c, 0, 52, 0
1, 11471, Note_on_c, 0, 59, 107
1, 11472, Note_on_c, 3, 81, 0
1, 11473, Note_on_c, 1, 34, 111
1, 11473, Note_on_c, 3, 78, 87
1, 11473, Note_on_c, 9, 42, 47
1, 11474, Note_on_c, 9, 42, 0
1, 11476, Note_on_c, 7, 59, 0
1, 11498, Note_on_c, 0, 45, 0
1, 11505, Note_on_c, 1, 34, 0
1, 11515, Note_on_c, 7, 47, 117
1, 11516, Note_on_c, 0, 59, 0
1, 11519, Note_on_c, 11, 64, 0
1, 11519, Note_on_c, 11, 69, 0
1, 11520, Note_on_c, 0, 47, 124
1, 11520, Note_on_c, 1, 35, 121
1, 11520, Note_on_c, 9, 36, 108
1, 11520, Note_on_c, 11, 63, 74
1, 11520, Note_on_c, 11, 69, 74
1, 11521, Note_on_c, 9, 36, 0
1, 11521, Note_on_c, 9, 42, 107
1, 11522, Note_on_c, 9, 42, 0
1, 11525, Note_on_c, 7, 47, 0
1, 11554, Note_on_c, 1, 35, 0
1, 11562, Note_on_c, 7, 54, 78
1, 11566, Note_on_c, 3, 81, 114
1, 11567, Note_on_c, 3, 78, 0
1, 11567, Note_on_c, 0, 54, 85
1, 11567, Note_on_c, 1, 35, 99
1, 11569, Note_on_c, 9, 42, 55
1, 11570, Note_on_c, 9, 42, 0
1, 11572, Note_on_c, 7, 54, 0
1, 11596, Note_on_c, 1, 35, 0
1, 11610, Note_on_c, 7, 61, 108
1, 11613, Note_on_c, 3, 81, 0
1, 11615, Note_on_c, 0, 61, 115
1, 11615, Note_on_c, 1, 35, 116
1, 11615, Note_on_c, 9, 42, 96
1, 11616, Note_on_c, 9, 42, 0
1, 11616, Note_on_c, 9, 40, 118
1, 11617, Note_on_c, 9, 40, 0
1, 11620, Note_on_c, 7, 61, 0
1, 11620, Note_on_c, 3, 78, 86
1, 11638, Note_on_c, 0, 54, 0
1, 11645, Note_on_c, 1, 35, 0
1, 11658, Note_on_c, 7, 54, 90
1, 11663, Note_on_c, 0, 54, 97
1, 11664, Note_on_c, 9, 36, 81
1, 11665, Note_on_c, 9, 36, 0
1, 11665, Note_on_c, 1, 35, 110
1, 11665, Note_on_c, 9, 42, 57
1, 11666, Note_on_c, 9, 42, 0
1, 11668, Note_on_c, 7, 54, 0
1, 11689, Note_on_c, 1, 35, 0
1, 11706, Note_on_c, 7, 63, 101
1, 11710, Note_on_c, 0, 61, 0
1, 11711, Note_on_c, 0, 63, 108
1, 11711, Note_on_c, 1, 35, 118
1, 11712, Note_on_c, 9, 36, 111
1, 11713, Note_on_c, 9, 36, 0
1, 11713, Note_on_c, 9, 42, 96
1, 11714, Note_on_c, 9, 42, 0
1, 11716, Note_on_c, 7, 63, 0
1, 11741, Note_on_c, 1, 35, 0
1, 11754, Note_on_c, 7, 61, 98
1, 11758, Note_on_c, 0, 63, 0
1, 11759, Note_on_c, 0, 61, 105
1, 11759, Note_on_c, 1, 35, 112
1, 11761, Note_on_c, 9, 42, 57
1, 11762, Note_on_c, 9, 42, 0
1, 11764, Note_on_c, 7, 61, 0
1, 11782, Note_on_c, 0, 54, 0
1, 11786, Note_on_c, 1, 35, 0
1, 11802, Note_on_c, 7, 54, 91
1, 11807, Note_on_c, 0, 54, 98
1, 11807, Note_on_c, 1, 35, 114
1, 11808, Note_on_c, 9, 40, 118
1, 11808, Note_on_c, 9, 42, 90
1, 11809, Note_on_c, 9, 42, 0
1, 11809, Note_on_c, 9, 40, 0
1, 11812, Note_on_c, 7, 54, 0
1, 11834, Note_on_c, 1, 35, 0
1, 11849, Note_on_c, 0, 61, 0
1, 11850, Note_on_c, 7, 61, 100
1, 11855, Note_on_c, 0, 61, 107
1, 11855, Note_on_c, 1, 35, 104
1, 11857, Note_on_c, 9, 42, 42
1, 11858, Note_on_c, 9, 42, 0
1, 11860, Note_on_c, 7, 61, 0
1, 11863, Note_on_c, 3, 78, 0
1, 11885, Note_on_c, 1, 35, 0
1, 11899, Note_on_c, 7, 47, 117
1, 11900, Note_on_c, 0, 61, 0
1, 11902, Note_on_c, 0, 54, 0
1, 11903, Note_on_c, 0, 47, 0
1, 11903, Note_on_c, 1, 35, 110
1, 11904, Note_on_c, 0, 47, 124
1, 11904, Note_on_c, 9, 42, 107
1, 11904, Note_on_c, 9, 36, 111
1, 11905, Note_on_c, 9, 36, 0
1, 11905, Note_on_c, 9, 42, 0
1, 11909, Note_on_c, 7, 47, 0
1, 11927, Note_on_c, 1, 35, 0
1, 11942, Note_on_c, 3, 71, 107
1, 11946, Note_on_c, 7, 54, 78
1, 11951, Note_on_c, 0, 54, 85
1, 11951, Note_on_c, 1, 35, 104
1, 11953, Note_on_c, 9, 42, 66
1, 11954, Note_on_c, 9, 42, 0
1, 11956, Note_on_c, 7, 54, 0
1, 11982, Note_on_c, 1, 35, 0
1, 11992, Note_on_c, 3, 83, 117
1, 11994, Note_on_c, 3, 71, 0
1, 11994, Note_on_c, 7, 61, 108
1, 11999, Note_on_c, 0, 61, 115
1, 11999, Note_on_c, 1, 35, 118
1, 12000, Note_on_c, 9, 40, 118
1, 12001, Note_on_c, 9, 40, 0
1, 12001, Note_on_c, 9, 42, 95
1, 12002, Note_on_c, 9, 42, 0
1, 12004, Note_on_c, 7, 61, 0
1, 12022, Note_on_c, 0, 54, 0
1, 12026, Note_on_c, 1, 35, 0
1, 12040, Note_on_c, 3, 83, 0
1, 12042, Note_on_c, 3, 83, 96
1, 12043, Note_on_c, 7, 54, 90
1, 12047, Note_on_c, 1, 35, 104
1, 12047, Note_on_c, 9, 42, 54
1, 12048, Note_on_c, 9, 42, 0
1, 12048, Note_on_c, 0, 54, 97
1, 12048, Note_on_c, 9, 36, 76
1, 12049, Note_on_c, 9, 36, 0
1, 12053, Note_on_c, 7, 54, 0
1, 12076, Note_on_c, 1, 35, 0
1, 12089, Note_on_c, 3, 83, 0
1, 12090, Note_on_c, 7, 63, 101
1, 12093, Note_on_c, 3, 79, 115
1, 12094, Note_on_c, 0, 61, 0
1, 12095, Note_on_c, 0, 63, 108
1, 12095, Note_on_c, 1, 35, 121
1, 12096, Note_on_c, 9, 42, 92
1, 12096, Note_on_c, 9, 36, 110
1, 12097, Note_on_c, 9, 36, 0
1, 12097, Note_on_c, 9, 42, 0
1, 12100, Note_on_c, 7, 63, 0
1, 12124, Note_on_c, 1, 35, 0
1, 12138, Note_on_c, 7, 61, 98
1, 12140, Note_on_c, 3, 79, 0
1, 12142, Note_on_c, 0, 63, 0
1, 12143, Note_on_c, 0, 61, 105
1, 12143, Note_on_c, 1, 35, 94
1, 12143, Note_on_c, 9, 42, 46
1, 12144, Note_on_c, 9, 42, 0
1, 12144, Note_on_c, 3, 78, 92
1, 12148, Note_on_c, 7, 61, 0
1, 12175, Note_on_c, 1, 35, 0
1, 12183, Note_on_c, 0, 54, 0
1, 12186, Note_on_c, 7, 54, 91
1, 12191, Note_on_c, 0, 54, 98
1, 12191, Note_on_c, 1, 35, 116
1, 12191, Note_on_c, 9, 42, 90
1, 12192, Note_on_c, 9, 42, 0
1, 12192, Note_on_c, 9, 40, 118
1, 12193, Note_on_c, 9, 40, 0
1, 12196, Note_on_c, 7, 54, 0
1, 12220, Note_on_c, 1, 35, 0
1, 12230, Note_on_c, 3, 78, 0
1, 12230, Note_on_c, 0, 61, 0
1, 12234, Note_on_c, 7, 61, 88
1, 12235, Note_on_c, 3, 76, 101
1, 12239, Note_on_c, 0, 61, 95
1, 12239, Note_on_c, 1, 35, 101
1, 12240, Note_on_c, 9, 42, 51
1, 12241, Note_on_c, 9, 42, 0
1, 12244, Note_on_c, 7, 61, 0
1, 12275, Note_on_c, 1, 35, 0
1, 12283, Note_on_c, 7, 52, 117
1, 12284, Note_on_c, 0, 61, 0
1, 12286, Note_on_c, 0, 54, 0
1, 12287, Note_on_c, 11, 63, 0
1, 12287, Note_on_c, 0, 47, 0
1, 12287, Note_on_c, 11, 69, 0
1, 12287, Note_on_c, 1, 40, 104
1, 12288, Note_on_c, 0, 52, 124
1, 12288, Note_on_c, 9, 36, 111
1, 12288, Note_on_c, 11, 69, 74
1, 12288, Note_on_c, 11, 62, 74
1, 12289, Note_on_c, 9, 36, 0
1, 12289, Note_on_c, 9, 42, 107
1, 12290, Note_on_c, 9, 42, 0
1, 12293, Note_on_c, 7, 52, 0
1, 12320, Note_on_c, 1, 40, 0
1, 12327, Note_on_c, 3, 76, 0
1, 12330, Note_on_c, 7, 59, 78
1, 12333, Note_on_c, 3, 76, 112
1, 12335, Note_on_c, 0, 59, 85
1, 12335, Note_on_c, 1, 40, 102
1, 12336, Note_on_c, 9, 42, 58
1, 12337, Note_on_c, 9, 42, 0
1, 12340, Note_on_c, 7, 59, 0
1, 12374, Note_on_c, 1, 40, 0
1, 12378, Note_on_c, 7, 66, 108
1, 12383, Note_on_c, 0, 66, 115
1, 12384, Note_on_c, 1, 40, 99
1, 12384, Note_on_c, 9, 40, 118
1, 12384, Note_on_c, 9, 42, 86
1, 12385, Note_on_c, 9, 42, 0
1, 12385, Note_on_c, 9, 40, 0
1, 12388, Note_on_c, 7, 66, 0
1, 12406, Note_on_c, 0, 59, 0
1, 12414, Note_on_c, 1, 40, 0
1, 12426, Note_on_c, 7, 59, 90
1, 12431, Note_on_c, 0, 59, 97
1, 12431, Note_on_c, 1, 40, 91
1, 12432, Note_on_c, 9, 42, 63
1, 12432, Note_on_c, 9, 36, 75
1, 12433, Note_on_c, 9, 36, 0
1, 12433, Note_on_c, 9, 42, 0
1, 12436, Note_on_c, 7, 59, 0
1, 12454, Note_on_c, 0, 66, 0
1, 12463, Note_on_c, 1, 40, 0
1, 12474, Note_on_c, 7, 64, 101
1, 12479, Note_on_c, 0, 64, 108
1, 12479, Note_on_c, 1, 40, 104
1, 12480, Note_on_c, 9, 36, 111
1, 12481, Note_on_c, 9, 36, 0
1, 12481, Note_on_c, 9, 42, 92
1, 12482, Note_on_c, 9, 42, 0
1, 12484, Note_on_c, 7, 64, 0
1, 12511, Note_on_c, 1, 40, 0
1, 12522, Note_on_c, 7, 59, 98
1, 12526, Note_on_c, 0, 59, 0
1, 12527, Note_on_c, 0, 59, 105
1, 12527, Note_on_c, 1, 40, 101
1, 12529, Note_on_c, 9, 42, 46
1, 12530, Note_on_c, 9, 42, 0
1, 12532, Note_on_c, 7, 59, 0
1, 12556, Note_on_c, 1, 40, 0
1, 12571, Note_on_c, 7, 52, 91
1, 12575, Note_on_c, 0, 52, 0
1, 12575, Note_on_c, 1, 40, 110
1, 12576, Note_on_c, 0, 52, 98
1, 12576, Note_on_c, 9, 40, 118
1, 12577, Note_on_c, 9, 40, 0
1, 12577, Note_on_c, 9, 42, 98
1, 12578, Note_on_c, 9, 42, 0
1, 12581, Note_on_c, 7, 52, 0
1, 12585, Note_on_c, 3, 76, 0
1, 12602, Note_on_c, 1, 40, 0
1, 12617, Note_on_c, 0, 59, 0
1, 12618, Note_on_c, 7, 59, 100
1, 12623, Note_on_c, 0, 59, 107
1, 12623, Note_on_c, 1, 40, 91
1, 12623, Note_on_c, 9, 42, 56
1, 12624, Note_on_c, 9, 42, 0
1, 12628, Note_on_c, 7, 59, 0
1, 12646, Note_on_c, 0, 64, 0
1, 12655, Note_on_c, 1, 40, 0
1, 12667, Note_on_c, 7, 52, 117
1, 12668, Note_on_c, 0, 59, 0
1, 12671, Note_on_c, 0, 52, 0
1, 12671, Note_on_c, 1, 40, 110
1, 12672, Note_on_c, 0, 52, 124
1, 12672, Note_on_c, 9, 36, 115
1, 12673, Note_on_c, 9, 36, 0
1, 12673, Note_on_c, 9, 42, 107
1, 12674, Note_on_c, 9, 42, 0
1, 12677, Note_on_c, 7, 52, 0
1, 12698, Note_on_c, 1, 40, 0
1, 12714, Note_on_c, 7, 59, 78
1, 12719, Note_on_c, 0, 59, 85
1, 12719, Note_on_c, 1, 40, 101
1, 12721, Note_on_c, 3, 64, 50
1, 12721, Note_on_c, 9, 42, 52
1, 12722, Note_on_c, 9, 42, 0
1, 12724, Note_on_c, 7, 59, 0
1, 12743, Note_on_c, 3, 64, 0
1, 12748, Note_on_c, 1, 40, 0
1, 12762, Note_on_c, 7, 66, 108
1, 12767, Note_on_c, 0, 66, 115
1, 12767, Note_on_c, 1, 40, 110
1, 12768, Note_on_c, 3, 73, 95
1, 12768, Note_on_c, 9, 40, 118
1, 12768, Note_on_c, 9, 42, 90
1, 12769, Note_on_c, 9, 42, 0
1, 12769, Note_on_c, 9, 40, 0
1, 12772, Note_on_c, 7, 66, 0
1, 12790, Note_on_c, 0, 59, 0
1, 12792, Note_on_c, 1, 40, 0
1, 12810, Note_on_c, 7, 59, 90
1, 12815, Note_on_c, 0, 59, 97
1, 12815, Note_on_c, 1, 40, 91
1, 12816, Note_on_c, 3, 74, 74
1, 12816, Note_on_c, 9, 36, 73
1, 12817, Note_on_c, 9, 36, 0
1, 12817, Note_on_c, 3, 73, 0
1, 12817, Note_on_c, 9, 42, 49
1, 12818, Note_on_c, 9, 42, 0
1, 12820, Note_on_c, 7, 59, 0
1, 12844, Note_on_c, 1, 40, 0
1, 12858, Note_on_c, 7, 64, 101
1, 12862, Note_on_c, 0, 66, 0
1, 12863, Note_on_c, 3, 74, 0
1, 12863, Note_on_c, 0, 64, 108
1, 12863, Note_on_c, 1, 40, 106
1, 12864, Note_on_c, 3, 73, 81
1, 12864, Note_on_c, 9, 36, 109
1, 12865, Note_on_c, 9, 36, 0
1, 12865, Note_on_c, 9, 42, 98
1, 12866, Note_on_c, 9, 42, 0
1, 12868, Note_on_c, 7, 64, 0
1, 12886, Note_on_c, 0, 59, 0
1, 12892, Note_on_c, 1, 40, 0
1, 12906, Note_on_c, 7, 59, 98
1, 12911, Note_on_c, 0, 59, 105
1, 12911, Note_on_c, 1, 40, 98
1, 12911, Note_on_c, 9, 42, 49
1, 12912, Note_on_c, 9, 42, 0
1, 12916, Note_on_c, 7, 59, 0
1, 12938, Note_on_c, 1, 40, 0
1, 12953, Note_on_c, 3, 73, 0
1, 12955, Note_on_c, 7, 52, 91
1, 12958, Note_on_c, 3, 71, 100
1, 12959, Note_on_c, 0, 52, 0
1, 12959, Note_on_c, 1, 40, 114
1, 12960, Note_on_c, 0, 52, 98
1, 12960, Note_on_c, 9, 40, 118
1, 12961, Note_on_c, 9, 40, 0
1, 12961, Note_on_c, 9, 42, 107
1, 12962, Note_on_c, 9, 42, 0
1, 12965, Note_on_c, 7, 52, 0
1, 12991, Note_on_c, 1, 40, 0
1, 13002, Note_on_c, 7, 64, 100
1, 13006, Note_on_c, 0, 64, 0
1, 13007, Note_on_c, 0, 64, 107
1, 13007, Note_on_c, 1, 40, 95
1, 13007, Note_on_c, 9, 46, 82
1, 13008, Note_on_c, 9, 46, 0
1, 13009, Note_on_c, 3, 69, 79
1, 13011, Note_on_c, 3, 71, 0
1, 13012, Note_on_c, 7, 64, 0
1, 13038, Note_on_c, 1, 40, 0
1, 13051, Note_on_c, 7, 45, 117
1, 13052, Note_on_c, 3, 69, 0
1, 13052, Note_on_c, 0, 64, 0
1, 13053, Note_on_c, 11, 69, 0
1, 13054, Note_on_c, 0, 59, 0
1, 13055, Note_on_c, 0, 52, 0
1, 13055, Note_on_c, 11, 62, 0
1, 13056, Note_on_c, 0, 45, 124
1, 13056, Note_on_c, 3, 69, 96
1, 13056, Note_on_c, 9, 36, 112
1, 13056, Note_on_c, 11, 69, 63
1, 13056, Note_on_c, 11, 71, 69
1, 13056, Note_on_c, 11, 64, 70
1, 13057, Note_on_c, 9, 36, 0
1, 13057, Note_on_c, 1, 33, 121
1, 13057, Note_on_c, 9, 42, 109
1, 13058, Note_on_c, 9, 42, 0
1, 13061, Note_on_c, 7, 45, 0
1, 13086, Note_on_c, 1, 33, 0
1, 13098, Note_on_c, 7, 52, 78
1, 13103, Note_on_c, 0, 52, 85
1, 13103, Note_on_c, 1, 33, 101
1, 13105, Note_on_c, 9, 42, 39
1, 13106, Note_on_c, 9, 42, 0
1, 13108, Note_on_c, 7, 52, 0
1, 13132, Note_on_c, 1, 33, 0
1, 13146, Note_on_c, 7, 59, 108
1, 13151, Note_on_c, 0, 59, 115
1, 13152, Note_on_c, 1, 33, 118
1, 13152, Note_on_c, 9, 40, 118
1, 13153, Note_on_c, 9, 40, 0
1, 13153, Note_on_c, 9, 42, 95
1, 13154, Note_on_c, 9, 42, 0
1, 13156, Note_on_c, 7, 59, 0
1, 13174, Note_on_c, 0, 52, 0
1, 13182, Note_on_c, 1, 33, 0
1, 13194, Note_on_c, 7, 52, 90
1, 13198, Note_on_c, 0, 59, 0
1, 13199, Note_on_c, 0, 52, 97
1, 13200, Note_on_c, 9, 36, 81
1, 13201, Note_on_c, 9, 36, 0
1, 13201, Note_on_c, 1, 33, 116
1, 13201, Note_on_c, 9, 42, 52
1, 13202, Note_on_c, 9, 42, 0
1, 13204, Note_on_c, 7, 52, 0
1, 13229, Note_on_c, 1, 33, 0
1, 13242, Note_on_c, 7, 61, 101
1, 13247, Note_on_c, 0, 61, 108
1, 13247, Note_on_c, 1, 33, 118
1, 13247, Note_on_c, 9, 42, 95
1, 13248, Note_on_c, 9, 42, 0
1, 13248, Note_on_c, 9, 36, 109
1, 13249, Note_on_c, 9, 36, 0
1, 13252, Note_on_c, 7, 61, 0
1, 13273, Note_on_c, 1, 33, 0
1, 13290, Note_on_c, 7, 59, 98
1, 13294, Note_on_c, 0, 61, 0
1, 13295, Note_on_c, 0, 59, 105
1, 13295, Note_on_c, 1, 33, 114
1, 13295, Note_on_c, 9, 42, 63
1, 13296, Note_on_c, 9, 42, 0
1, 13300, Note_on_c, 7, 59, 0
1, 13318, Note_on_c, 0, 52, 0
1, 13322, Note_on_c, 1, 33, 0
1, 13335, Note_on_c, 3, 69, 0
1, 13338, Note_on_c, 7, 52, 91
1, 13343, Note_on_c, 0, 52, 98
1, 13343, Note_on_c, 9, 42, 98
1, 13344, Note_on_c, 9, 42, 0
1, 13344, Note_on_c, 1, 33, 121
1, 13344, Note_on_c, 9, 40, 118
1, 13345, Note_on_c, 9, 40, 0
1, 13348, Note_on_c, 7, 52, 0
1, 13371, Note_on_c, 1, 33, 0
1, 13385, Note_on_c, 0, 59, 0
1, 13386, Note_on_c, 7, 59, 100
1, 13391, Note_on_c, 0, 59, 107
1, 13391, Note_on_c, 1, 33, 108
1, 13391, Note_on_c, 9, 42, 54
1, 13392, Note_on_c, 9, 42, 0
1, 13396, Note_on_c, 7, 59, 0
1, 13414, Note_on_c, 0, 52, 0
1, 13418, Note_on_c, 1, 33, 0
1, 13418, Note_on_c, 0, 45, 0
1, 13435, Note_on_c, 7, 45, 117
1, 13436, Note_on_c, 0, 59, 0
1, 13439, Note_on_c, 11, 71, 0
1, 13439, Note_on_c, 1, 33, 121
1, 13439, Note_on_c, 9, 42, 110
1, 13440, Note_on_c, 9, 42, 0
1, 13440, Note_on_c, 0, 45, 124
1, 13440, Note_on_c, 9, 36, 112
1, 13441, Note_on_c, 9, 36, 0
1, 13445, Note_on_c, 7, 45, 0
1, 13469, Note_on_c, 1, 33, 0
1, 13482, Note_on_c, 7, 52, 78
1, 13487, Note_on_c, 0, 52, 85
1, 13487, Note_on_c, 1, 33, 108
1, 13487, Note_on_c, 3, 64, 78
1, 13487, Note_on_c, 9, 42, 58
1, 13488, Note_on_c, 9, 42, 0
1, 13492, Note_on_c, 7, 52, 0
1, 13516, Note_on_c, 1, 33, 0
1, 13523, Note_on_c, 3, 64, 0
1, 13530, Note_on_c, 7, 59, 108
1, 13535, Note_on_c, 0, 59, 115
1, 13535, Note_on_c, 1, 33, 121
1, 13535, Note_on_c, 9, 42, 95
1, 13536, Note_on_c, 9, 42, 0
1, 13536, Note_on_c, 3, 73, 113
1, 13536, Note_on_c, 9, 40, 118
1, 13537, Note_on_c, 9, 40, 0
1, 13540, Note_on_c, 7, 59, 0
1, 13558, Note_on_c, 0, 52, 0
1, 13567, Note_on_c, 1, 33, 0
1, 13578, Note_on_c, 7, 52, 90
1, 13580, Note_on_c, 0, 59, 0
1, 13583, Note_on_c, 3, 73, 0
1, 13583, Note_on_c, 0, 52, 97
1, 13583, Note_on_c, 1, 33, 106
1, 13584, Note_on_c, 3, 74, 89
1, 13584, Note_on_c, 9, 42, 51
1, 13584, Note_on_c, 9, 36, 79
1, 13585, Note_on_c, 9, 36, 0
1, 13585, Note_on_c, 9, 42, 0
1, 13588, Note_on_c, 7, 52, 0
1, 13616, Note_on_c, 1, 33, 0
1, 13626, Note_on_c, 7, 61, 101
1, 13628, Note_on_c, 0, 52, 0
1, 13631, Note_on_c, 3, 74, 0
1, 13631, Note_on_c, 0, 61, 108
1, 13631, Note_on_c, 1, 33, 121
1, 13631, Note_on_c, 9, 42, 96
1, 13632, Note_on_c, 9, 42, 0
1, 13632, Note_on_c, 3, 73, 111
1, 13632, Note_on_c, 9, 36, 111
1, 13633, Note_on_c, 9, 36, 0
1, 13636, Note_on_c, 7, 61, 0
1, 13661, Note_on_c, 1, 33, 0
1, 13674, Note_on_c, 7, 59, 98
1, 13678, Note_on_c, 0, 61, 0
1, 13679, Note_on_c, 0, 59, 105
1, 13679, Note_on_c, 1, 33, 101
1, 13680, Note_on_c, 9, 42, 56
1, 13681, Note_on_c, 9, 42, 0
1, 13684, Note_on_c, 7, 59, 0
1, 13711, Note_on_c, 1, 33, 0
1, 13722, Note_on_c, 7, 52, 91
1, 13725, Note_on_c, 3, 73, 0
1, 13726, Note_on_c, 3, 71, 110
1, 13727, Note_on_c, 0, 52, 98
1, 13727, Note_on_c, 1, 33, 121
1, 13728, Note_on_c, 9, 40, 118
1, 13728, Note_on_c, 9, 42, 90
1, 13729, Note_on_c, 9, 42, 0
1, 13729, Note_on_c, 9, 40, 0
1, 13732, Note_on_c, 7, 52, 0
1, 13756, Note_on_c, 1, 33, 0
1, 13766, Note_on_c, 0, 59, 0
1, 13770, Note_on_c, 7, 59, 100
1, 13772, Note_on_c, 0, 52, 0
1, 13775, Note_on_c, 0, 59, 107
1, 13775, Note_on_c, 1, 33, 121
1, 13776, Note_on_c, 3, 69, 80
1, 13776, Note_on_c, 9, 42, 52
1, 13777, Note_on_c, 9, 42, 0
1, 13780, Note_on_c, 7, 59, 0
1, 13785, Note_on_c, 3, 71, 0
1, 13802, Note_on_c, 0, 45, 0
1, 13804, Note_on_c, 1, 33, 0
1, 13819, Note_on_c, 7, 42, 117
1, 13820, Note_on_c, 0, 59, 0
1, 13823, Note_on_c, 3, 69, 0
1, 13823, Note_on_c, 1, 30, 114
1, 13824, Note_on_c, 0, 42, 124
1, 13824, Note_on_c, 3, 69, 95
1, 13824, Note_on_c, 9, 42, 114
1, 13824, Note_on_c, 9, 36, 112
1, 13825, Note_on_c, 9, 36, 0
1, 13825, Note_on_c, 9, 42, 0
1, 13829, Note_on_c, 7, 42, 0
1, 13854, Note_on_c, 1, 30, 0
1, 13866, Note_on_c, 7, 49, 78
1, 13871, Note_on_c, 0, 49, 85
1, 13871, Note_on_c, 1, 30, 111
1, 13873, Note_on_c, 9, 42, 58
1, 13874, Note_on_c, 9, 42, 0
1, 13876, Note_on_c, 7, 49, 0
1, 13900, Note_on_c, 1, 30, 0
1, 13914, Note_on_c, 7, 56, 108
1, 13919, Note_on_c, 0, 56, 115
1, 13920, Note_on_c, 9, 40, 118
1, 13921, Note_on_c, 9, 40, 0
1, 13921, Note_on_c, 1, 30, 121
1, 13921, Note_on_c, 9, 42, 92
1, 13922, Note_on_c, 9, 42, 0
1, 13924, Note_on_c, 7, 56, 0
1, 13942, Note_on_c, 0, 49, 0
1, 13949, Note_on_c, 1, 30, 0
1, 13962, Note_on_c, 7, 49, 90
1, 13966, Note_on_c, 0, 56, 0
1, 13967, Note_on_c, 0, 49, 97
1, 13968, Note_on_c, 1, 30, 115
1, 13968, Note_on_c, 9, 36, 75
1, 13969, Note_on_c, 9, 36, 0
1, 13969, Note_on_c, 9, 42, 55
1, 13970, Note_on_c, 9, 42, 0
1, 13972, Note_on_c, 7, 49, 0
1, 13997, Note_on_c, 1, 30, 0
1, 14010, Note_on_c, 7, 57, 101
1, 14015, Note_on_c, 0, 57, 108
1, 14015, Note_on_c, 1, 30, 121
1, 14016, Note_on_c, 9, 36, 112
1, 14017, Note_on_c, 9, 36, 0
1, 14017, Note_on_c, 9, 42, 90
1, 14018, Note_on_c, 9, 42, 0
1, 14020, Note_on_c, 7, 57, 0
1, 14047, Note_on_c, 1, 30, 0
1, 14058, Note_on_c, 7, 56, 98
1, 14062, Note_on_c, 0, 57, 0
1, 14063, Note_on_c, 0, 56, 105
1, 14063, Note_on_c, 9, 42, 58
1, 14064, Note_on_c, 9, 42, 0
1, 14064, Note_on_c, 1, 30, 109
1, 14068, Note_on_c, 7, 56, 0
1, 14080, Note_on_c, 3, 69, 0
1, 14086, Note_on_c, 0, 49, 0
1, 14092, Note_on_c, 1, 30, 0
1, 14106, Note_on_c, 7, 49, 91
1, 14111, Note_on_c, 0, 49, 98
1, 14111, Note_on_c, 9, 42, 80
1, 14112, Note_on_c, 9, 42, 0
1, 14112, Note_on_c, 9, 40, 118
1, 14113, Note_on_c, 9, 40, 0
1, 14113, Note_on_c, 1, 30, 117
1, 14116, Note_on_c, 7, 49, 0
1, 14144, Note_on_c, 1, 30, 0
1, 14153, Note_on_c, 0, 56, 0
1, 14154, Note_on_c, 7, 56, 100
1, 14159, Note_on_c, 0, 56, 107
1, 14159, Note_on_c, 9, 42, 52
1, 14160, Note_on_c, 9, 42, 0
1, 14161, Note_on_c, 1, 30, 110
1, 14164, Note_on_c, 7, 56, 0
1, 14182, Note_on_c, 0, 49, 0
1, 14186, Note_on_c, 0, 42, 0
1, 14187, Note_on_c, 1, 30, 0
1, 14203, Note_on_c, 7, 42, 117
1, 14204, Note_on_c, 0, 56, 0
1, 14207, Note_on_c, 9, 42, 114
1, 14208, Note_on_c, 9, 42, 0
1, 14208, Note_on_c, 0, 42, 124
1, 14208, Note_on_c, 1, 30, 117
1, 14208, Note_on_c, 9, 36, 110
1, 14209, Note_on_c, 9, 36, 0
1, 14213, Note_on_c, 7, 42, 0
1, 14238, Note_on_c, 1, 30, 0
1, 14250, Note_on_c, 7, 49, 78
1, 14254, Note_on_c, 3, 69, 110
1, 14255, Note_on_c, 0, 49, 85
1, 14255, Note_on_c, 9, 42, 56
1, 14256, Note_on_c, 9, 42, 0
1, 14256, Note_on_c, 1, 30, 105
1, 14260, Note_on_c, 7, 49, 0
1, 14283, Note_on_c, 1, 30, 0
1, 14296, Note_on_c, 3, 69, 0
1, 14298, Note_on_c, 7, 56, 108
1, 14300, Note_on_c, 3, 69, 114
1, 14303, Note_on_c, 0, 56, 115
1, 14303, Note_on_c, 9, 42, 89
1, 14304, Note_on_c, 9, 42, 0
1, 14304, Note_on_c, 1, 30, 117
1, 14304, Note_on_c, 9, 40, 118
1, 14305, Note_on_c, 9, 40, 0
1, 14308, Note_on_c, 7, 56, 0
1, 14326, Note_on_c, 0, 49, 0
1, 14334, Note_on_c, 1, 30, 0
1, 14346, Note_on_c, 3, 69, 0
1, 14346, Note_on_c, 7, 49, 90
1, 14348, Note_on_c, 0, 56, 0
1, 14351, Note_on_c, 0, 49, 97
1, 14351, Note_on_c, 9, 42, 54
1, 14352, Note_on_c, 9, 42, 0
1, 14352, Note_on_c, 1, 30, 103
1, 14352, Note_on_c, 9, 36, 72
1, 14353, Note_on_c, 9, 36, 0
1, 14354, Note_on_c, 3, 73, 105
1, 14356, Note_on_c, 7, 49, 0
1, 14383, Note_on_c, 1, 30, 0
1, 14394, Note_on_c, 7, 57, 101
1, 14396, Note_on_c, 0, 49, 0
1, 14399, Note_on_c, 0, 57, 108
1, 14400, Note_on_c, 1, 30, 121
1, 14400, Note_on_c, 9, 36, 111
1, 14401, Note_on_c, 9, 36, 0
1, 14401, Note_on_c, 9, 42, 88
1, 14402, Note_on_c, 9, 42, 0
1, 14404, Note_on_c, 7, 57, 0
1, 14431, Note_on_c, 1, 30, 0
1, 14442, Note_on_c, 7, 56, 98
1, 14444, Note_on_c, 3, 74, 112
1, 14446, Note_on_c, 0, 57, 0
1, 14447, Note_on_c, 0, 56, 105
1, 14449, Note_on_c, 3, 73, 0
1, 14449, Note_on_c, 1, 30, 109
1, 14449, Note_on_c, 9, 42, 57
1, 14450, Note_on_c, 9, 42, 0
1, 14452, Note_on_c, 7, 56, 0
1, 14477, Note_on_c, 1, 30, 0
1, 14490, Note_on_c, 7, 49, 91
1, 14495, Note_on_c, 0, 49, 98
1, 14495, Note_on_c, 1, 30, 119
1, 14496, Note_on_c, 9, 40, 118
1, 14497, Note_on_c, 9, 40, 0
1, 14497, Note_on_c, 9, 42, 92
1, 14498, Note_on_c, 9, 42, 0
1, 14500, Note_on_c, 7, 49, 0
1, 14528, Note_on_c, 1, 30, 0
1, 14532, Note_on_c, 3, 74, 0
1, 14534, Note_on_c, 0, 56, 0
1, 14538, Note_on_c, 7, 56, 100
1, 14540, Note_on_c, 0, 49, 0
1, 14543, Note_on_c, 0, 56, 107
1, 14543, Note_on_c, 1, 30, 117
1, 14543, Note_on_c, 3, 69, 110
1, 14545, Note_on_c, 9, 42, 47
1, 14546, Note_on_c, 9, 42, 0
1, 14548, Note_on_c, 7, 56, 0
1, 14570, Note_on_c, 0, 42, 0
1, 14572, Note_on_c, 1, 30, 0
1, 14587, Note_on_c, 7, 50, 117
1, 14588, Note_on_c, 0, 56, 0
1, 14591, Note_on_c, 11, 69, 0
1, 14591, Note_on_c, 11, 64, 0
1, 14592, Note_on_c, 0, 50, 124
1, 14592, Note_on_c, 9, 36, 108
1, 14592, Note_on_c, 11, 64, 66
1, 14592, Note_on_c, 11, 69, 65
1, 14593, Note_on_c, 9, 36, 0
1, 14593, Note_on_c, 1, 38, 116
1, 14593, Note_on_c, 9, 42, 107
1, 14594, Note_on_c, 9, 42, 0
1, 14597, Note_on_c, 7, 50, 0
1, 14618, Note_on_c, 1, 38, 0
1, 14619, Note_on_c, 3, 69, 0
1, 14634, Note_on_c, 7, 57, 78
1, 14636, Note_on_c, 3, 69, 101
1, 14639, Note_on_c, 0, 57, 85
1, 14640, Note_on_c, 1, 38, 112
1, 14641, Note_on_c, 9, 42, 55
1, 14642, Note_on_c, 9, 42, 0
1, 14644, Note_on_c, 7, 57, 0
1, 14671, Note_on_c, 1, 38, 0
1, 14678, Note_on_c, 3, 69, 0
1, 14682, Note_on_c, 7, 64, 101
1, 14684, Note_on_c, 3, 69, 105
1, 14687, Note_on_c, 0, 64, 108
1, 14687, Note_on_c, 9, 42, 96
1, 14688, Note_on_c, 9, 42, 0
1, 14688, Note_on_c, 1, 38, 116
1, 14688, Note_on_c, 9, 40, 118
1, 14689, Note_on_c, 9, 40, 0
1, 14692, Note_on_c, 7, 64, 0
1, 14717, Note_on_c, 1, 38, 0
1, 14729, Note_on_c, 3, 74, 112
1, 14730, Note_on_c, 7, 57, 90
1, 14731, Note_on_c, 3, 69, 0
1, 14731, Note_on_c, 7, 50, 94
1, 14734, Note_on_c, 0, 57, 0
1, 14735, Note_on_c, 0, 50, 0
1, 14735, Note_on_c, 0, 57, 97
1, 14736, Note_on_c, 0, 50, 101
1, 14736, Note_on_c, 1, 38, 102
1, 14736, Note_on_c, 9, 36, 81
1, 14737, Note_on_c, 9, 36, 0
1, 14737, Note_on_c, 9, 42, 57
1, 14738, Note_on_c, 9, 42, 0
1, 14740, Note_on_c, 7, 57, 0
1, 14741, Note_on_c, 7, 50, 0
1, 14758, Note_on_c, 0, 64, 0
1, 14767, Note_on_c, 1, 38, 0
1, 14778, Note_on_c, 7, 62, 101
1, 14783, Note_on_c, 0, 62, 108
1, 14783, Note_on_c, 1, 38, 116
1, 14784, Note_on_c, 9, 36, 111
1, 14785, Note_on_c, 9, 36, 0
1, 14785, Note_on_c, 9, 42, 96
1, 14786, Note_on_c, 9, 42, 0
1, 14788, Note_on_c, 7, 62, 0
1, 14814, Note_on_c, 1, 38, 0
1, 14824, Note_on_c, 3, 74, 0
1, 14824, Note_on_c, 0, 57, 0
1, 14826, Note_on_c, 7, 57, 98
1, 14829, Note_on_c, 3, 73, 117
1, 14831, Note_on_c, 0, 57, 105
1, 14833, Note_on_c, 1, 38, 94
1, 14833, Note_on_c, 9, 42, 57
1, 14834, Note_on_c, 9, 42, 0
1, 14836, Note_on_c, 7, 57, 0
1, 14854, Note_on_c, 0, 62, 0
1, 14863, Note_on_c, 1, 38, 0
1, 14875, Note_on_c, 7, 62, 72
1, 14875, Note_on_c, 7, 50, 91
1, 14879, Note_on_c, 0, 50, 0
1, 14880, Note_on_c, 0, 62, 79
1, 14880, Note_on_c, 0, 50, 98
1, 14880, Note_on_c, 9, 40, 118
1, 14880, Note_on_c, 9, 42, 90
1, 14881, Note_on_c, 9, 42, 0
1, 14881, Note_on_c, 9, 40, 0
1, 14881, Note_on_c, 1, 38, 114
1, 14885, Note_on_c, 7, 62, 0
1, 14885, Note_on_c, 7, 50, 0
1, 14902, Note_on_c, 0, 57, 0
1, 14912, Note_on_c, 1, 38, 0
1, 14918, Note_on_c, 3, 73, 0
1, 14922, Note_on_c, 7, 57, 100
1, 14927, Note_on_c, 0, 57, 107
1, 14929, Note_on_c, 1, 40, 102
1, 14929, Note_on_c, 3, 71, 115
1, 14929, Note_on_c, 9, 42, 42
1, 14930, Note_on_c, 9, 42, 0
1, 14932, Note_on_c, 7, 57, 0
1, 14951, Note_on_c, 0, 62, 0
1, 14961, Note_on_c, 1, 40, 0
1, 14971, Note_on_c, 7, 52, 117
1, 14972, Note_on_c, 0, 57, 0
1, 14975, Note_on_c, 0, 50, 0
1, 14976, Note_on_c, 0, 52, 114
1, 14976, Note_on_c, 9, 42, 107
1, 14976, Note_on_c, 9, 36, 111
1, 14977, Note_on_c, 9, 36, 0
1, 14977, Note_on_c, 9, 42, 0
1, 14977, Note_on_c, 1, 40, 112
1, 14981, Note_on_c, 7, 52, 0
1, 14997, Note_on_c, 3, 71, 0
1, 15008, Note_on_c, 1, 40, 0
1, 15018, Note_on_c, 7, 59, 78
1, 15023, Note_on_c, 0, 59, 85
1, 15023, Note_on_c, 1, 40, 90
1, 15023, Note_on_c, 3, 71, 117
1, 15025, Note_on_c, 9, 42, 66
1, 15026, Note_on_c, 9, 42, 0
1, 15028, Note_on_c, 7, 59, 0
1, 15049, Note_on_c, 1, 40, 0
1, 15066, Note_on_c, 7, 66, 108
1, 15071, Note_on_c, 0, 66, 97
1, 15071, Note_on_c, 1, 40, 112
1, 15072, Note_on_c, 3, 71, 0
1, 15072, Note_on_c, 9, 40, 118
1, 15073, Note_on_c, 9, 40, 0
1, 15073, Note_on_c, 3, 69, 98
1, 15073, Note_on_c, 9, 42, 95
1, 15074, Note_on_c, 9, 42, 0
1, 15076, Note_on_c, 7, 66, 0
1, 15094, Note_on_c, 0, 59, 0
1, 15103, Note_on_c, 1, 40, 0
1, 15113, Note_on_c, 3, 69, 0
1, 15114, Note_on_c, 7, 59, 90
1, 15115, Note_on_c, 7, 52, 95
1, 15117, Note_on_c, 0, 52, 0
1, 15117, Note_on_c, 3, 73, 113
1, 15119, Note_on_c, 0, 59, 97
1, 15119, Note_on_c, 1, 40, 94
1, 15119, Note_on_c, 9, 42, 54
1, 15120, Note_on_c, 9, 42, 0
1, 15120, Note_on_c, 0, 52, 102
1, 15120, Note_on_c, 9, 36, 76
1, 15121, Note_on_c, 9, 36, 0
1, 15124, Note_on_c, 7, 59, 0
1, 15125, Note_on_c, 7, 52, 0
1, 15142, Note_on_c, 0, 66, 0
1, 15151, Note_on_c, 1, 40, 0
1, 15162, Note_on_c, 7, 64, 101
1, 15167, Note_on_c, 0, 64, 108
1, 15167, Note_on_c, 1, 40, 106
1, 15168, Note_on_c, 9, 42, 92
1, 15168, Note_on_c, 9, 36, 110
1, 15169, Note_on_c, 9, 36, 0
1, 15169, Note_on_c, 9, 42, 0
1, 15172, Note_on_c, 7, 64, 0
1, 15190, Note_on_c, 0, 59, 0
1, 15192, Note_on_c, 1, 40, 0
1, 15209, Note_on_c, 3, 69, 93
1, 15210, Note_on_c, 3, 73, 0
1, 15210, Note_on_c, 7, 59, 98
1, 15215, Note_on_c, 0, 59, 99
1, 15215, Note_on_c, 1, 40, 84
1, 15215, Note_on_c, 9, 42, 46
1, 15216, Note_on_c, 9, 42, 0
1, 15220, Note_on_c, 7, 59, 0
1, 15238, Note_on_c, 0, 64, 0
1, 15246, Note_on_c, 1, 40, 0
1, 15255, Note_on_c, 0, 52, 0
1, 15258, Note_on_c, 7, 52, 91
1, 15263, Note_on_c, 0, 52, 89
1, 15263, Note_on_c, 1, 40, 114
1, 15263, Note_on_c, 9, 42, 90
1, 15264, Note_on_c, 9, 42, 0
1, 15264, Note_on_c, 9, 40, 118
1, 15265, Note_on_c, 9, 40, 0
1, 15268, Note_on_c, 7, 52, 0
1, 15292, Note_on_c, 1, 40, 0
1, 15303, Note_on_c, 3, 69, 0
1, 15306, Note_on_c, 7, 64, 100
1, 15308, Note_on_c, 0, 52, 0
1, 15311, Note_on_c, 0, 64, 85
1, 15311, Note_on_c, 1, 40, 104
1, 15311, Note_on_c, 3, 69, 91
1, 15312, Note_on_c, 9, 42, 51
1, 15313, Note_on_c, 9, 42, 0
1, 15316, Note_on_c, 7, 64, 0
1, 15344, Note_on_c, 1, 40, 0
1, 15355, Note_on_c, 7, 42, 117
1, 15358, Note_on_c, 0, 64, 0
1, 15358, Note_on_c, 0, 59, 0
1, 15360, Note_on_c, 0, 42, 124
1, 15360, Note_on_c, 1, 42, 114
1, 15360, Note_on_c, 9, 36, 111
1, 15361, Note_on_c, 9, 36, 0
1, 15361, Note_on_c, 9, 42, 107
1, 15362, Note_on_c, 9, 42, 0
1, 15365, Note_on_c, 7, 42, 0
1, 15395, Note_on_c, 1, 42, 0
1, 15402, Note_on_c, 7, 49, 78
1, 15407, Note_on_c, 0, 49, 85
1, 15408, Note_on_c, 9, 42, 58
1, 15409, Note_on_c, 9, 42, 0
1, 15409, Note_on_c, 1, 42, 114
1, 15412, Note_on_c, 7, 49, 0
1, 15443, Note_on_c, 1, 42, 0
1, 15450, Note_on_c, 7, 56, 108
1, 15455, Note_on_c, 0, 56, 115
1, 15456, Note_on_c, 9, 40, 118
1, 15456, Note_on_c, 9, 42, 86
1, 15457, Note_on_c, 9, 42, 0
1, 15457, Note_on_c, 9, 40, 0
1, 15457, Note_on_c, 1, 42, 105
1, 15460, Note_on_c, 7, 56, 0
1, 15478, Note_on_c, 0, 49, 0
1, 15485, Note_on_c, 1, 42, 0
1, 15498, Note_on_c, 3, 69, 0
1, 15498, Note_on_c, 7, 49, 90
1, 15502, Note_on_c, 0, 56, 0
1, 15503, Note_on_c, 0, 49, 97
1, 15504, Note_on_c, 9, 42, 63
1, 15504, Note_on_c, 9, 36, 75
1, 15505, Note_on_c, 9, 36, 0
1, 15505, Note_on_c, 9, 42, 0
1, 15505, Note_on_c, 1, 42, 120
1, 15508, Note_on_c, 7, 49, 0
1, 15535, Note_on_c, 1, 42, 0
1, 15546, Note_on_c, 7, 57, 101
1, 15551, Note_on_c, 0, 57, 108
1, 15551, Note_on_c, 1, 42, 120
1, 15552, Note_on_c, 9, 36, 111
1, 15553, Note_on_c, 9, 36, 0
1, 15553, Note_on_c, 9, 42, 92
1, 15554, Note_on_c, 9, 42, 0
1, 15556, Note_on_c, 7, 57, 0
1, 15578, Note_on_c, 1, 42, 0
1, 15594, Note_on_c, 7, 56, 98
1, 15598, Note_on_c, 0, 57, 0
1, 15599, Note_on_c, 0, 56, 105
1, 15599, Note_on_c, 1, 42, 114
1, 15601, Note_on_c, 9, 42, 46
1, 15602, Note_on_c, 9, 42, 0
1, 15604, Note_on_c, 7, 56, 0
1, 15622, Note_on_c, 0, 49, 0
1, 15631, Note_on_c, 1, 42, 0
1, 15642, Note_on_c, 7, 49, 91
1, 15647, Note_on_c, 0, 49, 98
1, 15648, Note_on_c, 1, 42, 114
1, 15648, Note_on_c, 9, 40, 118
1, 15649, Note_on_c, 9, 40, 0
1, 15649, Note_on_c, 9, 42, 98
1, 15650, Note_on_c, 9, 42, 0
1, 15652, Note_on_c, 7, 49, 0
1, 15680, Note_on_c, 1, 42, 0
1, 15689, Note_on_c, 0, 56, 0
1, 15690, Note_on_c, 7, 56, 100
1, 15695, Note_on_c, 0, 56, 107
1, 15695, Note_on_c, 1, 42, 114
1, 15695, Note_on_c, 9, 42, 56
1, 15696, Note_on_c, 9, 42, 0
1, 15700, Note_on_c, 7, 56, 0
1, 15718, Note_on_c, 0, 49, 0
1, 15722, Note_on_c, 0, 42, 0
1, 15726, Note_on_c, 1, 42, 0
1, 15739, Note_on_c, 7, 42, 117
1, 15740, Note_on_c, 0, 56, 0
1, 15743, Note_on_c, 1, 42, 105
1, 15744, Note_on_c, 0, 42, 124
1, 15744, Note_on_c, 9, 36, 115
1, 15745, Note_on_c, 9, 36, 0
1, 15745, Note_on_c, 9, 42, 107
1, 15746, Note_on_c, 9, 42, 0
1, 15749, Note_on_c, 7, 42, 0
1, 15775, Note_on_c, 1, 42, 0
1, 15786, Note_on_c, 7, 49, 78
1, 15791, Note_on_c, 0, 49, 85
1, 15791, Note_on_c, 1, 42, 120
1, 15793, Note_on_c, 9, 42, 52
1, 15794, Note_on_c, 9, 42, 0
1, 15796, Note_on_c, 7, 49, 0
1, 15822, Note_on_c, 1, 42, 0
1, 15834, Note_on_c, 7, 56, 108
1, 15837, Note_on_c, 9, 40, 82
1, 15838, Note_on_c, 9, 40, 0
1, 15839, Note_on_c, 0, 56, 115
1, 15839, Note_on_c, 1, 42, 108
1, 15840, Note_on_c, 9, 40, 118
1, 15840, Note_on_c, 9, 42, 90
1, 15841, Note_on_c, 9, 42, 0
1, 15841, Note_on_c, 9, 40, 0
1, 15844, Note_on_c, 7, 56, 0
1, 15862, Note_on_c, 0, 49, 0
1, 15864, Note_on_c, 1, 42, 0
1, 15882, Note_on_c, 7, 49, 90
1, 15884, Note_on_c, 0, 56, 0
1, 15887, Note_on_c, 0, 49, 97
1, 15887, Note_on_c, 1, 42, 111
1, 15887, Note_on_c, 9, 41, 43
1, 15887, Note_on_c, 9, 43, 59
1, 15888, Note_on_c, 9, 43, 0
1, 15888, Note_on_c, 9, 41, 0
1, 15888, Note_on_c, 9, 36, 73
1, 15889, Note_on_c, 9, 36, 0
1, 15889, Note_on_c, 9, 42, 49
1, 15890, Note_on_c, 9, 42, 0
1, 15892, Note_on_c, 7, 49, 0
1, 15911, Note_on_c, 1, 42, 0
1, 15930, Note_on_c, 7, 57, 101
1, 15935, Note_on_c, 0, 57, 108
1, 15935, Note_on_c, 1, 42, 111
1, 15935, Note_on_c, 9, 41, 68
1, 15935, Note_on_c, 9, 43, 78
1, 15936, Note_on_c, 9, 43, 0
1, 15936, Note_on_c, 9, 41, 0
1, 15936, Note_on_c, 9, 36, 109
1, 15937, Note_on_c, 9, 36, 0
1, 15937, Note_on_c, 9, 42, 98
1, 15938, Note_on_c, 9, 42, 0
1, 15940, Note_on_c, 7, 57, 0
1, 15962, Note_on_c, 1, 42, 0
1, 15978, Note_on_c, 7, 56, 98
1, 15982, Note_on_c, 0, 49, 0
1, 15982, Note_on_c, 0, 57, 0
1, 15983, Note_on_c, 0, 56, 105
1, 15983, Note_on_c, 9, 42, 49
1, 15983, Note_on_c, 9, 41, 85
1, 15983, Note_on_c, 9, 43, 101
1, 15984, Note_on_c, 9, 43, 0
1, 15984, Note_on_c, 9, 41, 0
1, 15984, Note_on_c, 9, 42, 0
1, 15985, Note_on_c, 1, 42, 114
1, 15988, Note_on_c, 7, 56, 0
1, 16011, Note_on_c, 1, 42, 0
1, 16027, Note_on_c, 7, 49, 91
1, 16031, Note_on_c, 0, 49, 98
1, 16032, Note_on_c, 9, 40, 118
1, 16033, Note_on_c, 9, 40, 0
1, 16033, Note_on_c, 1, 42, 121
1, 16033, Note_on_c, 9, 49, 104
1, 16033, Note_on_c, 9, 41, 108
1, 16034, Note_on_c, 9, 41, 0
1, 16034, Note_on_c, 9, 49, 0
1, 16037, Note_on_c, 7, 49, 0
1, 16062, Note_on_c, 1, 42, 0
1, 16070, Note_on_c, 0, 56, 0
1, 16074, Note_on_c, 7, 56, 100
1, 16077, Note_on_c, 11, 69, 0
1, 16079, Note_on_c, 11, 64, 0
1, 16079, Note_on_c, 0, 56, 107
1, 16081, Note_on_c, 1, 42, 102
1, 16084, Note_on_c, 7, 56, 0
1, 16084, Note_on_c, 10, 41, 116
1, 16084, Note_on_c, 10, 48, 116
1, 16084, Note_on_c, 10, 57, 116
1, 16084, Note_on_c, 10, 60, 116
1, 16084, Note_on_c, 10, 65, 116
1, 16085, Control_c, 10, 1, 0
1, 16085, Pitch_bend_c, 10, 8192
1, 16087, Note_on_c, 2, 41, 116
1, 16087, Note_on_c, 2, 48, 116
1, 16087, Note_on_c, 2, 57, 116
1, 16087, Note_on_c, 2, 60, 116
1, 16087, Note_on_c, 2, 65, 116
1, 16088, Control_c, 2, 1, 0
1, 16088, Pitch_bend_c, 2, 8192
1, 16096, Note_on_c, 10, 65, 0
1, 16096, Note_on_c, 10, 60, 0
1, 16096, Note_on_c, 10, 57, 0
1, 16096, Note_on_c, 10, 48, 0
1, 16096, Note_on_c, 10, 41, 0
1, 16102, Note_on_c, 0, 49, 0
1, 16105, Note_on_c, 2, 57, 0
1, 16105, Note_on_c, 2, 65, 0
1, 16105, Note_on_c, 2, 48, 0
1, 16105, Note_on_c, 2, 60, 0
1, 16105, Note_on_c, 2, 41, 0
1, 16106, Note_on_c, 0, 42, 0
1, 16106, Note_on_c, 10, 60, 119
1, 16107, Note_on_c, 10, 41, 119
1, 16107, Note_on_c, 10, 48, 119
1, 16107, Note_on_c, 10, 57, 119
1, 16107, Note_on_c, 10, 65, 119
1, 16109, Note_on_c, 2, 60, 119
1, 16110, Note_on_c, 2, 41, 119
1, 16110, Note_on_c, 2, 48, 119
1, 16110, Note_on_c, 2, 57, 119
1, 16110, Note_on_c, 2, 65, 119
1, 16111, Note_on_c, 1, 42, 0
1, 16116, Note_on_c, 10, 60, 0
1, 16117, Note_on_c, 10, 48, 0
1, 16117, Note_on_c, 10, 41, 0
1, 16117, Note_on_c, 10, 57, 0
1, 16117, Note_on_c, 10, 65, 0
1, 16119, Note_on_c, 2, 60, 0
1, 16120, Note_on_c, 2, 41, 0
1, 16120, Note_on_c, 2, 57, 0
1, 16120, Note_on_c, 2, 48, 0
1, 16120, Note_on_c, 2, 65, 0
1, 16124, Note_on_c, 0, 56, 0
1, 16126, Note_on_c, 10, 65, 120
1, 16127, Note_on_c, 10, 57, 117
1, 16127, Note_on_c, 10, 60, 124
1, 16127, Note_on_c, 10, 48, 118
1, 16127, Note_on_c, 10, 41, 127
1, 16128, Note_on_c, 9, 57, 107
1, 16128, Note_on_c, 9, 51, 114
1, 16128, Note_on_c, 9, 36, 112
1, 16129, Note_on_c, 9, 36, 0
1, 16129, Note_on_c, 9, 51, 0
1, 16129, Note_on_c, 9, 57, 0
1, 16129, Note_on_c, 1, 41, 121
1, 16129, Note_on_c, 2, 65, 120
1, 16130, Note_on_c, 2, 57, 117
1, 16130, Note_on_c, 2, 60, 124
1, 16130, Note_on_c, 2, 48, 118
1, 16130, Note_on_c, 2, 41, 127
1, 16165, Note_on_c, 1, 41, 0
1, 16175, Note_on_c, 9, 51, 49
1, 16176, Note_on_c, 9, 51, 0
1, 16176, Note_on_c, 3, 81, 117
1, 16176, Note_on_c, 4, 69, 106
1, 16177, Note_on_c, 1, 41, 106
1, 16177, Control_c, 4, 1, 0
1, 16177, Pitch_bend_c, 4, 8192
1, 16214, Note_on_c, 1, 41, 0
1, 16220, Note_on_c, 3, 81, 0
1, 16223, Note_on_c, 9, 53, 118
1, 16224, Note_on_c, 9, 53, 0
1, 16224, Note_on_c, 4, 69, 0
1, 16224, Note_on_c, 1, 29, 121
1, 16224, Note_on_c, 9, 40, 118
1, 16224, Note_on_c, 9, 51, 101
1, 16225, Note_on_c, 9, 51, 0
1, 16225, Note_on_c, 9, 40, 0
1, 16225, Note_on_c, 3, 81, 111
1, 16225, Note_on_c, 4, 69, 101
1, 16264, Note_on_c, 3, 81, 0
1, 16269, Note_on_c, 4, 69, 0
1, 16270, Note_on_c, 1, 29, 0
1, 16270, Note_on_c, 3, 81, 117
1, 16270, Note_on_c, 4, 69, 106
1, 16272, Note_on_c, 9, 36, 81
1, 16273, Note_on_c, 9, 36, 0
1, 16273, Note_on_c, 1, 41, 118
1, 16273, Note_on_c, 9, 51, 35
1, 16274, Note_on_c, 9, 51, 0
1, 16309, Note_on_c, 1, 41, 0
1, 16319, Note_on_c, 9, 53, 118
1, 16320, Note_on_c, 9, 53, 0
1, 16320, Note_on_c, 9, 36, 109
1, 16321, Note_on_c, 9, 36, 0
1, 16321, Note_on_c, 1, 41, 91
1, 16321, Note_on_c, 8, 72, 86
1, 16321, Note_on_c, 8, 84, 110
1, 16321, Note_on_c, 9, 51, 98
1, 16322, Note_on_c, 9, 51, 0
1, 16322, Control_c, 8, 1, 0
1, 16322, Pitch_bend_c, 8, 8192
1, 16324, Note_on_c, 6, 84, 125
1, 16325, Control_c, 6, 1, 0
1, 16325, Pitch_bend_c, 6, 8192
1, 16344, Note_on_c, 3, 81, 0
1, 16347, Note_on_c, 4, 69, 0
1, 16356, Note_on_c, 1, 41, 0
1, 16365, Note_on_c, 3, 79, 117
1, 16365, Note_on_c, 4, 67, 106
1, 16368, Note_on_c, 1, 41, 116
1, 16368, Note_on_c, 9, 51, 40
1, 16369, Note_on_c, 9, 51, 0
1, 16407, Note_on_c, 3, 79, 0
1, 16408, Note_on_c, 1, 41, 0
1, 16413, Note_on_c, 4, 67, 0
1, 16414, Note_on_c, 3, 79, 115
1, 16414, Note_on_c, 4, 67, 105
1, 16415, Note_on_c, 9, 51, 101
1, 16416, Note_on_c, 9, 51, 0
1, 16416, Note_on_c, 1, 29, 121
1, 16416, Note_on_c, 9, 40, 118
1, 16417, Note_on_c, 9, 40, 0
1, 16417, Note_on_c, 9, 53, 118
1, 16418, Note_on_c, 9, 53, 0
1, 16454, Note_on_c, 1, 29, 0
1, 16457, Note_on_c, 3, 79, 0
1, 16462, Note_on_c, 4, 67, 0
1, 16463, Note_on_c, 3, 79, 117
1, 16463, Note_on_c, 4, 67, 106
1, 16464, Note_on_c, 9, 53, 74
1, 16464, Note_on_c, 9, 51, 40
1, 16465, Note_on_c, 9, 51, 0
1, 16465, Note_on_c, 9, 53, 0
1, 16465, Note_on_c, 1, 41, 99
1, 16492, Note_on_c, 1, 41, 0
1, 16511, Note_on_c, 1, 41, 112
1, 16511, Note_on_c, 9, 53, 118
1, 16512, Note_on_c, 9, 53, 0
1, 16512, Note_on_c, 9, 36, 112
1, 16513, Note_on_c, 9, 36, 0
1, 16513, Note_on_c, 9, 51, 98
1, 16514, Note_on_c, 9, 51, 0
1, 16516, Note_on_c, 8, 72, 0
1, 16516, Note_on_c, 8, 84, 0
1, 16516, Note_on_c, 8, 83, 102
1, 16517, Note_on_c, 8, 71, 91
1, 16518, Note_on_c, 6, 83, 114
1, 16525, Note_on_c, 6, 84, 0
1, 16546, Note_on_c, 4, 67, 0
1, 16546, Note_on_c, 3, 79, 0
1, 16549, Note_on_c, 1, 41, 0
1, 16559, Note_on_c, 1, 41, 90
1, 16561, Note_on_c, 3, 79, 117
1, 16561, Note_on_c, 4, 67, 106
1, 16561, Note_on_c, 9, 51, 43
1, 16562, Note_on_c, 9, 51, 0
1, 16594, Note_on_c, 1, 41, 0
1, 16607, Note_on_c, 1, 29, 121
1, 16607, Note_on_c, 9, 53, 118
1, 16608, Note_on_c, 9, 53, 0
1, 16608, Note_on_c, 9, 40, 118
1, 16609, Note_on_c, 9, 40, 0
1, 16609, Note_on_c, 9, 51, 104
1, 16610, Note_on_c, 9, 51, 0
1, 16647, Note_on_c, 1, 29, 0
1, 16655, Note_on_c, 1, 41, 106
1, 16655, Note_on_c, 9, 51, 45
1, 16656, Note_on_c, 9, 51, 0
1, 16656, Note_on_c, 9, 36, 79
1, 16657, Note_on_c, 9, 36, 0
1, 16657, Note_on_c, 3, 79, 0
1, 16659, Note_on_c, 4, 67, 0
1, 16659, Note_on_c, 3, 81, 117
1, 16659, Note_on_c, 4, 69, 106
1, 16685, Note_on_c, 1, 41, 0
1, 16701, Note_on_c, 8, 71, 0
1, 16701, Note_on_c, 6, 83, 0
1, 16701, Note_on_c, 6, 81, 122
1, 16703, Note_on_c, 1, 41, 114
1, 16704, Note_on_c, 8, 83, 0
1, 16704, Note_on_c, 9, 53, 118
1, 16704, Note_on_c, 9, 51, 107
1, 16704, Note_on_c, 9, 36, 111
1, 16705, Note_on_c, 9, 36, 0
1, 16705, Note_on_c, 9, 51, 0
1, 16705, Note_on_c, 9, 53, 0
1, 16707, Note_on_c, 8, 69, 88
1, 16708, Note_on_c, 8, 81, 104
1, 16741, Note_on_c, 1, 41, 0
1, 16749, Note_on_c, 3, 81, 0
1, 16751, Note_on_c, 4, 69, 0
1, 16751, Note_on_c, 1, 41, 96
1, 16751, Note_on_c, 3, 79, 117
1, 16751, Note_on_c, 4, 67, 106
1, 16751, Note_on_c, 9, 51, 46
1, 16752, Note_on_c, 9, 51, 0
1, 16794, Note_on_c, 1, 41, 0
1, 16799, Note_on_c, 1, 29, 121
1, 16799, Note_on_c, 9, 51, 101
1, 16800, Note_on_c, 9, 51, 0
1, 16800, Note_on_c, 9, 40, 118
1, 16801, Note_on_c, 9, 40, 0
1, 16801, Note_on_c, 9, 53, 118
1, 16802, Note_on_c, 9, 53, 0
1, 16838, Note_on_c, 3, 79, 0
1, 16845, Note_on_c, 10, 65, 0
1, 16846, Note_on_c, 1, 29, 0
1, 16846, Note_on_c, 10, 41, 0
1, 16846, Note_on_c, 10, 48, 0
1, 16846, Note_on_c, 10, 57, 0
1, 16846, Note_on_c, 10, 60, 0
1, 16847, Note_on_c, 1, 41, 118
1, 16847, Note_on_c, 9, 51, 44
1, 16848, Note_on_c, 9, 51, 0
1, 16848, Note_on_c, 2, 65, 0
1, 16849, Note_on_c, 2, 57, 0
1, 16849, Note_on_c, 2, 60, 0
1, 16849, Note_on_c, 2, 48, 0
1, 16849, Note_on_c, 4, 67, 0
1, 16849, Note_on_c, 2, 41, 0
1, 16850, Note_on_c, 3, 79, 117
1, 16850, Note_on_c, 4, 67, 106
1, 16852, Note_on_c, 10, 43, 117
1, 16852, Note_on_c, 10, 50, 117
1, 16852, Note_on_c, 10, 59, 117
1, 16852, Note_on_c, 10, 62, 117
1, 16852, Note_on_c, 10, 67, 117
1, 16855, Note_on_c, 2, 43, 117
1, 16855, Note_on_c, 2, 50, 117
1, 16855, Note_on_c, 2, 59, 117
1, 16855, Note_on_c, 2, 62, 117
1, 16855, Note_on_c, 2, 67, 117
1, 16862, Note_on_c, 10, 59, 0
1, 16862, Note_on_c, 10, 50, 0
1, 16862, Note_on_c, 10, 43, 0
1, 16864, Note_on_c, 10, 67, 0
1, 16864, Note_on_c, 10, 62, 0
1, 16874, Note_on_c, 2, 67, 0
1, 16874, Note_on_c, 2, 50, 0
1, 16874, Note_on_c, 2, 62, 0
1, 16874, Note_on_c, 2, 43, 0
1, 16874, Note_on_c, 2, 59, 0
1, 16875, Note_on_c, 10, 67, 127
1, 16875, Note_on_c, 10, 59, 127
1, 16875, Note_on_c, 10, 50, 127
1, 16875, Note_on_c, 10, 43, 127
1, 16875, Note_on_c, 10, 62, 127
1, 16878, Note_on_c, 2, 67, 120
1, 16878, Note_on_c, 2, 59, 120
1, 16878, Note_on_c, 2, 50, 120
1, 16878, Note_on_c, 2, 43, 120
1, 16878, Note_on_c, 2, 62, 120
1, 16885, Note_on_c, 10, 62, 0
1, 16885, Note_on_c, 10, 43, 0
1, 16885, Note_on_c, 10, 67, 0
1, 16885, Note_on_c, 10, 50, 0
1, 16885, Note_on_c, 10, 59, 0
1, 16888, Note_on_c, 2, 62, 0
1, 16888, Note_on_c, 2, 59, 0
1, 16888, Note_on_c, 2, 43, 0
1, 16888, Note_on_c, 2, 67, 0
1, 16888, Note_on_c, 2, 50, 0
1, 16890, Note_on_c, 6, 81, 0
1, 16893, Note_on_c, 8, 69, 0
1, 16894, Note_on_c, 10, 67, 120
1, 16895, Note_on_c, 8, 81, 0
1, 16895, Note_on_c, 9, 51, 101
1, 16895, Note_on_c, 10, 59, 117
1, 16895, Note_on_c, 10, 62, 124
1, 16895, Note_on_c, 10, 50, 118
1, 16895, Note_on_c, 10, 43, 127
1, 16896, Note_on_c, 9, 51, 0
1, 16896, Note_on_c, 9, 36, 112
1, 16897, Note_on_c, 9, 36, 0
1, 16897, Note_on_c, 1, 41, 0
1, 16897, Note_on_c, 1, 31, 121
1, 16897, Note_on_c, 2, 67, 120
1, 16897, Note_on_c, 9, 57, 118
1, 16898, Note_on_c, 9, 57, 0
1, 16898, Note_on_c, 2, 59, 117
1, 16898, Note_on_c, 2, 62, 124
1, 16898, Note_on_c, 2, 50, 118
1, 16898, Note_on_c, 2, 43, 127
1, 16916, Note_on_c, 4, 67, 0
1, 16916, Note_on_c, 3, 79, 0
1, 16921, Note_on_c, 1, 31, 0
1, 16944, Note_on_c, 1, 31, 118
1, 16945, Note_on_c, 9, 51, 52
1, 16946, Note_on_c, 9, 51, 0
1, 16946, Note_on_c, 3, 74, 117
1, 16946, Note_on_c, 4, 62, 106
1, 16986, Note_on_c, 1, 31, 0
1, 16988, Note_on_c, 3, 74, 0
1, 16992, Note_on_c, 9, 40, 118
1, 16993, Note_on_c, 9, 40, 0
1, 16993, Note_on_c, 1, 43, 121
1, 16993, Note_on_c, 9, 53, 116
1, 16993, Note_on_c, 9, 51, 104
1, 16994, Note_on_c, 9, 51, 0
1, 16994, Note_on_c, 9, 53, 0
1, 16995, Note_on_c, 4, 62, 0
1, 16995, Note_on_c, 3, 79, 117
1, 16995, Note_on_c, 4, 67, 106
1, 17030, Note_on_c, 3, 79, 0
1, 17034, Note_on_c, 1, 43, 0
1, 17040, Note_on_c, 9, 51, 52
1, 17040, Note_on_c, 9, 36, 75
1, 17041, Note_on_c, 9, 36, 0
1, 17041, Note_on_c, 9, 51, 0
1, 17041, Note_on_c, 4, 67, 0
1, 17041, Note_on_c, 1, 31, 110
1, 17042, Note_on_c, 3, 79, 117
1, 17042, Note_on_c, 4, 67, 106
1, 17069, Note_on_c, 1, 31, 0
1, 17073, Note_on_c, 3, 79, 0
1, 17082, Note_on_c, 6, 86, 127
1, 17087, Note_on_c, 4, 67, 0
1, 17087, Note_on_c, 1, 31, 99
1, 17088, Note_on_c, 3, 79, 115
1, 17088, Note_on_c, 4, 67, 105
1, 17088, Note_on_c, 9, 53, 118
1, 17088, Note_on_c, 9, 36, 112
1, 17089, Note_on_c, 9, 36, 0
1, 17089, Note_on_c, 9, 53, 0
1, 17089, Note_on_c, 9, 51, 95
1, 17090, Note_on_c, 9, 51, 0
1, 17094, Note_on_c, 8, 86, 95
1, 17094, Note_on_c, 8, 74, 91
1, 17123, Note_on_c, 1, 31, 0
1, 17135, Note_on_c, 4, 67, 0
1, 17135, Note_on_c, 3, 79, 0
1, 17135, Note_on_c, 1, 31, 106
1, 17135, Note_on_c, 3, 76, 117
1, 17135, Note_on_c, 4, 64, 106
1, 17137, Note_on_c, 9, 51, 58
1, 17138, Note_on_c, 9, 51, 0
1, 17179, Note_on_c, 1, 31, 0
1, 17181, Note_on_c, 4, 64, 0
1, 17181, Note_on_c, 3, 74, 115
1, 17181, Note_on_c, 4, 62, 105
1, 17182, Note_on_c, 3, 76, 0
1, 17184, Note_on_c, 1, 43, 121
1, 17184, Note_on_c, 9, 40, 118
1, 17185, Note_on_c, 9, 40, 0
1, 17185, Note_on_c, 9, 53, 118
1, 17185, Note_on_c, 9, 51, 101
1, 17186, Note_on_c, 9, 51, 0
1, 17186, Note_on_c, 9, 53, 0
1, 17222, Note_on_c, 3, 74, 0
1, 17227, Note_on_c, 1, 43, 0
1, 17229, Note_on_c, 4, 62, 0
1, 17229, Note_on_c, 3, 79, 117
1, 17229, Note_on_c, 4, 67, 106
1, 17231, Note_on_c, 1, 31, 121
1, 17232, Note_on_c, 9, 51, 55
1, 17233, Note_on_c, 9, 51, 0
1, 17268, Note_on_c, 1, 31, 0
1, 17279, Note_on_c, 1, 31, 114
1, 17279, Note_on_c, 6, 84, 122
1, 17279, Note_on_c, 9, 53, 113
1, 17279, Note_on_c, 9, 51, 95
1, 17280, Note_on_c, 9, 51, 0
1, 17280, Note_on_c, 9, 53, 0
1, 17280, Note_on_c, 9, 36, 110
1, 17281, Note_on_c, 9, 36, 0
1, 17282, Note_on_c, 8, 84, 88
1, 17282, Note_on_c, 8, 72, 84
1, 17289, Note_on_c, 8, 74, 0
1, 17289, Note_on_c, 6, 86, 0
1, 17289, Note_on_c, 8, 86, 0
1, 17307, Note_on_c, 1, 31, 0
1, 17320, Note_on_c, 3, 79, 0
1, 17323, Note_on_c, 4, 67, 0
1, 17323, Note_on_c, 3, 74, 104
1, 17323, Note_on_c, 4, 62, 95
1, 17327, Note_on_c, 1, 31, 121
1, 17329, Note_on_c, 9, 51, 40
1, 17330, Note_on_c, 9, 51, 0
1, 17367, Note_on_c, 1, 31, 0
1, 17375, Note_on_c, 1, 43, 121
1, 17375, Note_on_c, 9, 51, 95
1, 17376, Note_on_c, 9, 51, 0
1, 17376, Note_on_c, 9, 40, 118
1, 17376, Note_on_c, 9, 53, 118
1, 17377, Note_on_c, 9, 53, 0
1, 17377, Note_on_c, 9, 40, 0
1, 17379, Note_on_c, 3, 74, 0
1, 17419, Note_on_c, 1, 43, 0
1, 17421, Note_on_c, 4, 62, 0
1, 17421, Note_on_c, 3, 79, 117
1, 17421, Note_on_c, 4, 67, 106
1, 17423, Note_on_c, 1, 31, 121
1, 17424, Note_on_c, 9, 36, 72
1, 17425, Note_on_c, 9, 36, 0
1, 17425, Note_on_c, 9, 51, 51
1, 17426, Note_on_c, 9, 51, 0
1, 17448, Note_on_c, 1, 31, 0
1, 17470, Note_on_c, 8, 83, 95
1, 17471, Note_on_c, 1, 31, 116
1, 17472, Note_on_c, 6, 83, 117
1, 17472, Note_on_c, 9, 36, 111
1, 17473, Note_on_c, 9, 36, 0
1, 17473, Note_on_c, 8, 84, 0
1, 17473, Note_on_c, 9, 53, 113
1, 17473, Note_on_c, 9, 51, 92
1, 17474, Note_on_c, 9, 51, 0
1, 17474, Note_on_c, 9, 53, 0
1, 17474, Note_on_c, 8, 72, 0
1, 17474, Note_on_c, 8, 71, 81
1, 17484, Note_on_c, 6, 84, 0
1, 17506, Note_on_c, 3, 79, 0
1, 17510, Note_on_c, 1, 31, 0
1, 17512, Note_on_c, 4, 67, 0
1, 17513, Note_on_c, 3, 79, 117
1, 17513, Note_on_c, 4, 67, 106
1, 17519, Note_on_c, 1, 43, 121
1, 17521, Note_on_c, 9, 51, 52
1, 17522, Note_on_c, 9, 51, 0
1, 17563, Note_on_c, 1, 43, 0
1, 17567, Note_on_c, 1, 31, 121
1, 17568, Note_on_c, 9, 40, 118
1, 17568, Note_on_c, 9, 53, 118
1, 17569, Note_on_c, 9, 53, 0
1, 17569, Note_on_c, 9, 40, 0
1, 17569, Note_on_c, 9, 51, 104
1, 17570, Note_on_c, 9, 51, 0
1, 17601, Note_on_c, 3, 79, 0
1, 17611, Note_on_c, 1, 31, 0
1, 17613, Note_on_c, 10, 67, 0
1, 17614, Note_on_c, 10, 62, 0
1, 17614, Note_on_c, 10, 50, 0
1, 17614, Note_on_c, 10, 43, 0
1, 17614, Note_on_c, 10, 59, 0
1, 17615, Note_on_c, 1, 43, 121
1, 17616, Note_on_c, 2, 67, 0
1, 17617, Note_on_c, 2, 50, 0
1, 17617, Note_on_c, 2, 43, 0
1, 17617, Note_on_c, 2, 59, 0
1, 17617, Note_on_c, 4, 67, 0
1, 17617, Note_on_c, 2, 62, 0
1, 17617, Note_on_c, 9, 51, 39
1, 17618, Note_on_c, 9, 51, 0
1, 17618, Note_on_c, 3, 79, 117
1, 17618, Note_on_c, 4, 67, 106
1, 17620, Note_on_c, 10, 41, 113
1, 17620, Note_on_c, 10, 48, 113
1, 17620, Note_on_c, 10, 57, 113
1, 17620, Note_on_c, 10, 60, 113
1, 17620, Note_on_c, 10, 65, 113
1, 17623, Note_on_c, 2, 41, 119
1, 17623, Note_on_c, 2, 48, 119
1, 17623, Note_on_c, 2, 57, 119
1, 17623, Note_on_c, 2, 60, 119
1, 17623, Note_on_c, 2, 65, 119
1, 17633, Note_on_c, 10, 65, 0
1, 17633, Note_on_c, 10, 60, 0
1, 17633, Note_on_c, 10, 41, 0
1, 17633, Note_on_c, 10, 57, 0
1, 17633, Note_on_c, 10, 48, 0
1, 17642, Note_on_c, 2, 65, 0
1, 17642, Note_on_c, 2, 48, 0
1, 17642, Note_on_c, 2, 60, 0
1, 17642, Note_on_c, 2, 41, 0
1, 17642, Note_on_c, 2, 57, 0
1, 17643, Note_on_c, 10, 65, 121
1, 17643, Note_on_c, 10, 57, 121
1, 17643, Note_on_c, 10, 48, 121
1, 17643, Note_on_c, 10, 41, 121
1, 17643, Note_on_c, 10, 60, 121
1, 17646, Note_on_c, 2, 65, 122
1, 17646, Note_on_c, 2, 57, 122
1, 17646, Note_on_c, 2, 48, 122
1, 17646, Note_on_c, 2, 41, 122
1, 17646, Note_on_c, 2, 60, 122
1, 17652, Note_on_c, 1, 43, 0
1, 17653, Note_on_c, 10, 60, 0
1, 17653, Note_on_c, 10, 57, 0
1, 17653, Note_on_c, 10, 41, 0
1, 17653, Note_on_c, 10, 48, 0
1, 17653, Note_on_c, 10, 65, 0
1, 17656, Note_on_c, 2, 65, 0
1, 17656, Note_on_c, 2, 60, 0
1, 17656, Note_on_c, 2, 48, 0
1, 17656, Note_on_c, 2, 57, 0
1, 17656, Note_on_c, 2, 41, 0
1, 17660, Note_on_c, 8, 71, 0
1, 17660, Note_on_c, 8, 83, 0
1, 17662, Note_on_c, 10, 65, 120
1, 17663, Note_on_c, 6, 83, 0
1, 17663, Note_on_c, 9, 51, 98
1, 17663, Note_on_c, 10, 57, 117
1, 17663, Note_on_c, 10, 60, 124
1, 17663, Note_on_c, 10, 48, 118
1, 17663, Note_on_c, 10, 41, 127
1, 17664, Note_on_c, 9, 51, 0
1, 17664, Note_on_c, 1, 29, 121
1, 17664, Note_on_c, 9, 36, 108
1, 17665, Note_on_c, 9, 36, 0
1, 17665, Note_on_c, 2, 65, 120
1, 17665, Note_on_c, 9, 57, 118
1, 17666, Note_on_c, 9, 57, 0
1, 17666, Note_on_c, 2, 57, 117
1, 17666, Note_on_c, 2, 60, 124
1, 17666, Note_on_c, 2, 48, 118
1, 17666, Note_on_c, 2, 41, 127
1, 17685, Note_on_c, 1, 29, 0
1, 17690, Note_on_c, 3, 79, 0
1, 17690, Note_on_c, 4, 67, 0
1, 17711, Note_on_c, 1, 29, 118
1, 17713, Note_on_c, 9, 51, 52
1, 17714, Note_on_c, 9, 51, 0
1, 17715, Note_on_c, 3, 74, 117
1, 17715, Note_on_c, 4, 62, 106
1, 17754, Note_on_c, 1, 29, 0
1, 17759, Note_on_c, 1, 41, 121
1, 17760, Note_on_c, 4, 62, 0
1, 17760, Note_on_c, 3, 74, 0
1, 17760, Note_on_c, 3, 79, 117
1, 17760, Note_on_c, 4, 67, 106
1, 17760, Note_on_c, 9, 40, 118
1, 17761, Note_on_c, 9, 40, 0
1, 17761, Note_on_c, 9, 53, 95
1, 17761, Note_on_c, 9, 51, 92
1, 17762, Note_on_c, 9, 51, 0
1, 17762, Note_on_c, 9, 53, 0
1, 17802, Note_on_c, 1, 41, 0
1, 17802, Note_on_c, 3, 79, 0
1, 17807, Note_on_c, 4, 67, 0
1, 17807, Note_on_c, 1, 29, 121
1, 17808, Note_on_c, 3, 79, 111
1, 17808, Note_on_c, 4, 67, 101
1, 17808, Note_on_c, 9, 51, 49
1, 17808, Note_on_c, 9, 36, 81
1, 17809, Note_on_c, 9, 36, 0
1, 17809, Note_on_c, 9, 51, 0
1, 17842, Note_on_c, 1, 29, 0
1, 17848, Note_on_c, 3, 79, 0
1, 17854, Note_on_c, 4, 67, 0
1, 17854, Note_on_c, 6, 84, 127
1, 17855, Note_on_c, 1, 29, 121
1, 17855, Note_on_c, 3, 79, 117
1, 17855, Note_on_c, 4, 67, 106
1, 17855, Note_on_c, 8, 84, 110
1, 17856, Note_on_c, 9, 53, 95
1, 17856, Note_on_c, 9, 36, 111
1, 17857, Note_on_c, 9, 36, 0
1, 17857, Note_on_c, 9, 53, 0
1, 17857, Note_on_c, 9, 51, 95
1, 17858, Note_on_c, 9, 51, 0
1, 17859, Note_on_c, 8, 72, 92
1, 17880, Note_on_c, 1, 29, 0
1, 17903, Note_on_c, 1, 29, 118
1, 17903, Note_on_c, 9, 51, 57
1, 17904, Note_on_c, 9, 51, 0
1, 17940, Note_on_c, 3, 79, 0
1, 17941, Note_on_c, 1, 29, 0
1, 17949, Note_on_c, 4, 67, 0
1, 17950, Note_on_c, 3, 79, 117
1, 17950, Note_on_c, 4, 67, 106
1, 17951, Note_on_c, 1, 41, 121
1, 17951, Note_on_c, 9, 51, 98
1, 17952, Note_on_c, 9, 51, 0
1, 17952, Note_on_c, 9, 40, 118
1, 17953, Note_on_c, 9, 40, 0
1, 17953, Note_on_c, 9, 53, 97
1, 17954, Note_on_c, 9, 53, 0
1, 17991, Note_on_c, 1, 41, 0
1, 17991, Note_on_c, 3, 79, 0
1, 17997, Note_on_c, 4, 67, 0
1, 17998, Note_on_c, 3, 79, 115
1, 17998, Note_on_c, 4, 67, 105
1, 17999, Note_on_c, 1, 29, 121
1, 18001, Note_on_c, 9, 51, 47
1, 18002, Note_on_c, 9, 51, 0
1, 18029, Note_on_c, 1, 29, 0
1, 18035, Note_on_c, 3, 79, 0
1, 18039, Note_on_c, 6, 84, 0
1, 18042, Note_on_c, 4, 67, 0
1, 18043, Note_on_c, 3, 79, 117
1, 18043, Note_on_c, 4, 67, 106
1, 18044, Note_on_c, 6, 83, 110
1, 18047, Note_on_c, 1, 29, 114
1, 18047, Note_on_c, 9, 51, 88
1, 18048, Note_on_c, 9, 51, 0
1, 18048, Note_on_c, 8, 84, 0
1, 18048, Note_on_c, 9, 36, 111
1, 18049, Note_on_c, 9, 36, 0
1, 18049, Note_on_c, 8, 72, 0
1, 18049, Note_on_c, 8, 83, 88
1, 18049, Note_on_c, 8, 71, 98
1, 18049, Note_on_c, 9, 53, 95
1, 18050, Note_on_c, 9, 53, 0
1, 18073, Note_on_c, 1, 29, 0
1, 18084, Note_on_c, 3, 79, 0
1, 18088, Note_on_c, 4, 67, 0
1, 18089, Note_on_c, 3, 79, 117
1, 18089, Note_on_c, 4, 67, 106
1, 18095, Note_on_c, 1, 29, 121
1, 18095, Note_on_c, 9, 51, 56
1, 18096, Note_on_c, 9, 51, 0
1, 18140, Note_on_c, 1, 29, 0
1, 18143, Note_on_c, 1, 41, 121
1, 18143, Note_on_c, 9, 51, 104
1, 18144, Note_on_c, 9, 51, 0
1, 18144, Note_on_c, 9, 40, 118
1, 18145, Note_on_c, 9, 40, 0
1, 18145, Note_on_c, 9, 53, 103
1, 18146, Note_on_c, 9, 53, 0
1, 18175, Note_on_c, 3, 79, 0
1, 18178, Note_on_c, 1, 41, 0
1, 18185, Note_on_c, 4, 67, 0
1, 18185, Note_on_c, 3, 81, 117
1, 18185, Note_on_c, 4, 69, 106
1, 18191, Note_on_c, 1, 29, 121
1, 18191, Note_on_c, 9, 51, 33
1, 18192, Note_on_c, 9, 51, 0
1, 18192, Note_on_c, 9, 36, 76
1, 18193, Note_on_c, 9, 36, 0
1, 18218, Note_on_c, 1, 29, 0
1, 18236, Note_on_c, 6, 83, 0
1, 18239, Note_on_c, 1, 29, 121
1, 18239, Note_on_c, 9, 51, 101
1, 18240, Note_on_c, 9, 51, 0
1, 18240, Note_on_c, 9, 53, 97
1, 18240, Note_on_c, 9, 36, 110
1, 18241, Note_on_c, 9, 36, 0
1, 18241, Note_on_c, 9, 53, 0
1, 18242, Note_on_c, 8, 83, 0
1, 18242, Note_on_c, 6, 81, 104
1, 18244, Note_on_c, 8, 71, 0
1, 18244, Note_on_c, 8, 81, 97
1, 18245, Note_on_c, 8, 69, 80
1, 18271, Note_on_c, 1, 29, 0
1, 18287, Note_on_c, 1, 41, 118
1, 18289, Note_on_c, 9, 51, 52
1, 18290, Note_on_c, 9, 51, 0
1, 18303, Note_on_c, 1, 41, 0
1, 18311, Note_on_c, 1, 41, 106
1, 18324, Note_on_c, 3, 81, 0
1, 18327, Note_on_c, 1, 41, 0
1, 18335, Note_on_c, 1, 29, 121
1, 18335, Note_on_c, 9, 53, 118
1, 18336, Note_on_c, 9, 53, 0
1, 18336, Note_on_c, 4, 69, 0
1, 18336, Note_on_c, 3, 76, 117
1, 18336, Note_on_c, 4, 64, 106
1, 18336, Note_on_c, 9, 40, 118
1, 18336, Note_on_c, 9, 51, 95
1, 18337, Note_on_c, 9, 51, 0
1, 18337, Note_on_c, 9, 40, 0
1, 18378, Note_on_c, 1, 29, 0
1, 18381, Note_on_c, 10, 65, 0
1, 18381, Note_on_c, 3, 76, 0
1, 18382, Note_on_c, 10, 41, 0
1, 18382, Note_on_c, 10, 57, 0
1, 18382, Note_on_c, 10, 60, 0
1, 18382, Note_on_c, 10, 48, 0
1, 18383, Note_on_c, 1, 41, 121
1, 18383, Note_on_c, 9, 51, 50
1, 18384, Note_on_c, 9, 51, 0
1, 18384, Note_on_c, 2, 65, 0
1, 18385, Note_on_c, 2, 57, 0
1, 18385, Note_on_c, 2, 60, 0
1, 18385, Note_on_c, 2, 41, 0
1, 18385, Note_on_c, 2, 48, 0
1, 18386, Note_on_c, 4, 64, 0
1, 18386, Note_on_c, 3, 74, 117
1, 18386, Note_on_c, 4, 62, 106
1, 18388, Note_on_c, 10, 43, 115
1, 18388, Note_on_c, 10, 50, 115
1, 18388, Note_on_c, 10, 59, 115
1, 18388, Note_on_c, 10, 62, 115
1, 18388, Note_on_c, 10, 67, 115
1, 18391, Note_on_c, 2, 43, 115
1, 18391, Note_on_c, 2, 50, 115
1, 18391, Note_on_c, 2, 59, 115
1, 18391, Note_on_c, 2, 62, 115
1, 18391, Note_on_c, 2, 67, 115
1, 18401, Note_on_c, 10, 67, 0
1, 18401, Note_on_c, 10, 62, 0
1, 18401, Note_on_c, 10, 43, 0
1, 18401, Note_on_c, 10, 59, 0
1, 18401, Note_on_c, 10, 50, 0
1, 18410, Note_on_c, 2, 67, 0
1, 18410, Note_on_c, 2, 50, 0
1, 18410, Note_on_c, 2, 62, 0
1, 18410, Note_on_c, 2, 43, 0
1, 18410, Note_on_c, 2, 59, 0
1, 18411, Note_on_c, 10, 67, 120
1, 18411, Note_on_c, 10, 59, 120
1, 18411, Note_on_c, 10, 50, 120
1, 18411, Note_on_c, 10, 43, 120
1, 18411, Note_on_c, 10, 62, 120
1, 18413, Note_on_c, 1, 41, 0
1, 18414, Note_on_c, 2, 67, 119
1, 18414, Note_on_c, 2, 59, 119
1, 18414, Note_on_c, 2, 50, 119
1, 18414, Note_on_c, 2, 43, 119
1, 18414, Note_on_c, 2, 62, 119
1, 18421, Note_on_c, 10, 50, 0
1, 18421, Note_on_c, 10, 62, 0
1, 18421, Note_on_c, 10, 59, 0
1, 18421, Note_on_c, 6, 81, 0
1, 18421, Note_on_c, 10, 43, 0
1, 18421, Note_on_c, 10, 67, 0
1, 18424, Note_on_c, 2, 43, 0
1, 18424, Note_on_c, 2, 59, 0
1, 18424, Note_on_c, 2, 67, 0
1, 18424, Note_on_c, 2, 62, 0
1, 18424, Note_on_c, 2, 50, 0
1, 18429, Note_on_c, 8, 81, 0
1, 18430, Note_on_c, 8, 69, 0
1, 18430, Note_on_c, 10, 67, 120
1, 18431, Note_on_c, 10, 59, 117
1, 18431, Note_on_c, 10, 62, 124
1, 18431, Note_on_c, 10, 50, 118
1, 18431, Note_on_c, 10, 43, 127
1, 18432, Note_on_c, 9, 57, 99
1, 18432, Note_on_c, 9, 36, 111
1, 18433, Note_on_c, 9, 36, 0
1, 18433, Note_on_c, 9, 57, 0
1, 18433, Note_on_c, 1, 31, 121
1, 18433, Note_on_c, 2, 67, 120
1, 18433, Note_on_c, 9, 51, 101
1, 18434, Note_on_c, 9, 51, 0
1, 18434, Note_on_c, 2, 59, 117
1, 18434, Note_on_c, 2, 62, 124
1, 18434, Note_on_c, 2, 50, 118
1, 18434, Note_on_c, 2, 43, 127
1, 18457, Note_on_c, 3, 74, 0
1, 18462, Note_on_c, 4, 62, 0
1, 18462, Note_on_c, 1, 31, 0
1, 18479, Note_on_c, 1, 31, 116
1, 18479, Note_on_c, 3, 74, 117
1, 18479, Note_on_c, 4, 62, 106
1, 18481, Note_on_c, 9, 51, 50
1, 18482, Note_on_c, 9, 51, 0
1, 18521, Note_on_c, 3, 74, 0
1, 18525, Note_on_c, 4, 62, 0
1, 18525, Note_on_c, 3, 79, 117
1, 18525, Note_on_c, 4, 67, 106
1, 18528, Note_on_c, 9, 40, 118
1, 18529, Note_on_c, 9, 40, 0
1, 18529, Note_on_c, 1, 31, 0
1, 18529, Note_on_c, 1, 43, 121
1, 18529, Note_on_c, 9, 53, 111
1, 18529, Note_on_c, 9, 51, 92
1, 18530, Note_on_c, 9, 51, 0
1, 18530, Note_on_c, 9, 53, 0
1, 18567, Note_on_c, 1, 43, 0
1, 18574, Note_on_c, 3, 79, 0
1, 18575, Note_on_c, 4, 67, 0
1, 18575, Note_on_c, 3, 76, 117
1, 18575, Note_on_c, 4, 64, 106
1, 18576, Note_on_c, 9, 36, 75
1, 18577, Note_on_c, 9, 36, 0
1, 18577, Note_on_c, 1, 31, 121
1, 18577, Note_on_c, 9, 51, 52
1, 18578, Note_on_c, 9, 51, 0
1, 18608, Note_on_c, 1, 31, 0
1, 18617, Note_on_c, 3, 76, 0
1, 18620, Note_on_c, 4, 64, 0
1, 18620, Note_on_c, 3, 79, 117
1, 18620, Note_on_c, 4, 67, 106
1, 18623, Note_on_c, 8, 74, 86
1, 18623, Note_on_c, 8, 86, 100
1, 18624, Note_on_c, 1, 31, 114
1, 18624, Note_on_c, 6, 86, 108
1, 18624, Note_on_c, 9, 53, 118
1, 18624, Note_on_c, 9, 51, 101
1, 18624, Note_on_c, 9, 36, 111
1, 18625, Note_on_c, 9, 36, 0
1, 18625, Note_on_c, 9, 51, 0
1, 18625, Note_on_c, 9, 53, 0
1, 18647, Note_on_c, 1, 31, 0
1, 18671, Note_on_c, 1, 31, 121
1, 18671, Note_on_c, 9, 51, 43
1, 18672, Note_on_c, 9, 51, 0
1, 18716, Note_on_c, 1, 31, 0
1, 18717, Note_on_c, 3, 79, 0
1, 18719, Note_on_c, 9, 51, 98
1, 18720, Note_on_c, 9, 51, 0
1, 18720, Note_on_c, 4, 67, 0
1, 18720, Note_on_c, 1, 43, 121
1, 18720, Note_on_c, 3, 76, 117
1, 18720, Note_on_c, 4, 64, 106
1, 18720, Note_on_c, 9, 40, 118
1, 18720, Note_on_c, 9, 53, 118
1, 18721, Note_on_c, 9, 53, 0
1, 18721, Note_on_c, 9, 40, 0
1, 18758, Note_on_c, 1, 43, 0
1, 18767, Note_on_c, 9, 51, 49
1, 18768, Note_on_c, 9, 51, 0
1, 18768, Note_on_c, 4, 64, 0
1, 18768, Note_on_c, 3, 76, 0
1, 18768, Note_on_c, 1, 31, 121
1, 18768, Note_on_c, 3, 74, 117
1, 18768, Note_on_c, 4, 62, 106
1, 18768, Note_on_c, 9, 53, 54
1, 18769, Note_on_c, 9, 53, 0
1, 18802, Note_on_c, 1, 31, 0
1, 18813, Note_on_c, 3, 74, 0
1, 18815, Note_on_c, 1, 31, 118
1, 18815, Note_on_c, 9, 51, 95
1, 18816, Note_on_c, 9, 51, 0
1, 18816, Note_on_c, 6, 84, 100
1, 18816, Note_on_c, 9, 36, 115
1, 18817, Note_on_c, 9, 36, 0
1, 18817, Note_on_c, 9, 53, 113
1, 18818, Note_on_c, 9, 53, 0
1, 18818, Note_on_c, 4, 62, 0
1, 18818, Note_on_c, 3, 79, 117
1, 18818, Note_on_c, 4, 67, 106
1, 18818, Note_on_c, 8, 84, 94
1, 18819, Note_on_c, 8, 72, 102
1, 18822, Note_on_c, 8, 74, 0
1, 18824, Note_on_c, 6, 86, 0
1, 18824, Note_on_c, 8, 86, 0
1, 18843, Note_on_c, 1, 31, 0
1, 18863, Note_on_c, 1, 31, 121
1, 18864, Note_on_c, 9, 53, 58
1, 18865, Note_on_c, 9, 53, 0
1, 18865, Note_on_c, 9, 51, 45
1, 18866, Note_on_c, 9, 51, 0
1, 18906, Note_on_c, 3, 79, 0
1, 18908, Note_on_c, 4, 67, 0
1, 18908, Note_on_c, 3, 76, 117
1, 18908, Note_on_c, 4, 64, 106
1, 18910, Note_on_c, 1, 31, 0
1, 18912, Note_on_c, 9, 40, 118
1, 18912, Note_on_c, 9, 53, 110
1, 18912, Note_on_c, 9, 51, 101
1, 18913, Note_on_c, 9, 51, 0
1, 18913, Note_on_c, 9, 53, 0
1, 18913, Note_on_c, 9, 40, 0
1, 18913, Note_on_c, 1, 43, 121
1, 18955, Note_on_c, 3, 76, 0
1, 18959, Note_on_c, 1, 43, 0
1, 18959, Note_on_c, 9, 51, 45
1, 18960, Note_on_c, 9, 51, 0
1, 18960, Note_on_c, 9, 53, 58
1, 18960, Note_on_c, 9, 36, 73
1, 18961, Note_on_c, 9, 36, 0
1, 18961, Note_on_c, 9, 53, 0
1, 18961, Note_on_c, 4, 64, 0
1, 18961, Note_on_c, 1, 31, 121
1, 18961, Note_on_c, 3, 79, 117
1, 18961, Note_on_c, 4, 67, 106
1, 18984, Note_on_c, 1, 31, 0
1, 19003, Note_on_c, 8, 84, 0
1, 19004, Note_on_c, 8, 72, 0
1, 19004, Note_on_c, 6, 84, 0
1, 19004, Note_on_c, 8, 83, 100
1, 19004, Note_on_c, 8, 71, 95
1, 19007, Note_on_c, 1, 31, 118
1, 19007, Note_on_c, 6, 83, 106
1, 19007, Note_on_c, 9, 51, 101
1, 19008, Note_on_c, 9, 51, 0
1, 19008, Note_on_c, 9, 53, 110
1, 19008, Note_on_c, 9, 36, 109
1, 19009, Note_on_c, 9, 36, 0
1, 19009, Note_on_c, 9, 53, 0
1, 19035, Note_on_c, 1, 31, 0
1, 19045, Note_on_c, 3, 79, 0
1, 19054, Note_on_c, 4, 67, 0
1, 19055, Note_on_c, 1, 43, 121
1, 19055, Note_on_c, 3, 79, 117
1, 19055, Note_on_c, 4, 67, 106
1, 19055, Note_on_c, 9, 51, 50
1, 19056, Note_on_c, 9, 51, 0
1, 19056, Note_on_c, 9, 53, 52
1, 19057, Note_on_c, 9, 53, 0
1, 19073, Note_on_c, 1, 43, 0
1, 19079, Note_on_c, 1, 43, 91
1, 19097, Note_on_c, 1, 43, 0
1, 19103, Note_on_c, 1, 31, 121
1, 19103, Note_on_c, 9, 53, 111
1, 19104, Note_on_c, 9, 53, 0
1, 19104, Note_on_c, 9, 40, 118
1, 19104, Note_on_c, 9, 51, 101
1, 19105, Note_on_c, 9, 51, 0
1, 19105, Note_on_c, 9, 40, 0
1, 19133, Note_on_c, 3, 79, 0
1, 19149, Note_on_c, 10, 67, 0
1, 19150, Note_on_c, 10, 62, 0
1, 19150, Note_on_c, 1, 31, 0
1, 19150, Note_on_c, 10, 59, 0
1, 19150, Note_on_c, 10, 43, 0
1, 19150, Note_on_c, 10, 50, 0
1, 19151, Note_on_c, 1, 43, 121
1, 19151, Note_on_c, 9, 51, 42
1, 19152, Note_on_c, 9, 51, 0
1, 19152, Note_on_c, 2, 67, 0
1, 19153, Note_on_c, 2, 59, 0
1, 19153, Note_on_c, 2, 43, 0
1, 19153, Note_on_c, 2, 50, 0
1, 19153, Note_on_c, 2, 62, 0
1, 19155, Note_on_c, 4, 67, 0
1, 19156, Note_on_c, 3, 79, 117
1, 19156, Note_on_c, 4, 67, 106
1, 19156, Note_on_c, 10, 41, 117
1, 19156, Note_on_c, 10, 48, 117
1, 19156, Note_on_c, 10, 57, 117
1, 19156, Note_on_c, 10, 60, 117
1, 19156, Note_on_c, 10, 65, 117
1, 19159, Note_on_c, 2, 41, 117
1, 19159, Note_on_c, 2, 48, 117
1, 19159, Note_on_c, 2, 57, 117
1, 19159, Note_on_c, 2, 60, 117
1, 19159, Note_on_c, 2, 65, 117
1, 19168, Note_on_c, 10, 65, 0
1, 19168, Note_on_c, 10, 60, 0
1, 19168, Note_on_c, 10, 41, 0
1, 19168, Note_on_c, 10, 57, 0
1, 19168, Note_on_c, 10, 48, 0
1, 19177, Note_on_c, 10, 65, 121
1, 19177, Note_on_c, 10, 57, 121
1, 19177, Note_on_c, 10, 48, 121
1, 19177, Note_on_c, 10, 41, 121
1, 19177, Note_on_c, 10, 60, 121
1, 19178, Note_on_c, 2, 65, 0
1, 19178, Note_on_c, 2, 48, 0
1, 19178, Note_on_c, 2, 60, 0
1, 19178, Note_on_c, 2, 41, 0
1, 19178, Note_on_c, 2, 57, 0
1, 19180, Note_on_c, 2, 65, 121
1, 19180, Note_on_c, 2, 57, 121
1, 19180, Note_on_c, 2, 48, 121
1, 19180, Note_on_c, 2, 41, 121
1, 19180, Note_on_c, 2, 60, 121
1, 19184, Note_on_c, 8, 83, 0
1, 19184, Note_on_c, 8, 71, 0
1, 19187, Note_on_c, 10, 60, 0
1, 19187, Note_on_c, 10, 65, 0
1, 19187, Note_on_c, 10, 57, 0
1, 19187, Note_on_c, 10, 41, 0
1, 19187, Note_on_c, 10, 48, 0
1, 19190, Note_on_c, 2, 48, 0
1, 19190, Note_on_c, 2, 60, 0
1, 19190, Note_on_c, 2, 41, 0
1, 19190, Note_on_c, 2, 65, 0
1, 19190, Note_on_c, 2, 57, 0
1, 19191, Note_on_c, 1, 43, 0
1, 19198, Note_on_c, 6, 83, 0
1, 19198, Note_on_c, 10, 65, 120
1, 19199, Note_on_c, 9, 57, 101
1, 19199, Note_on_c, 9, 51, 92
1, 19199, Note_on_c, 10, 57, 117
1, 19199, Note_on_c, 10, 60, 124
1, 19199, Note_on_c, 10, 48, 118
1, 19199, Note_on_c, 10, 41, 127
1, 19200, Note_on_c, 9, 51, 0
1, 19200, Note_on_c, 9, 57, 0
1, 19200, Note_on_c, 1, 29, 121
1, 19200, Note_on_c, 9, 36, 111
1, 19201, Note_on_c, 9, 36, 0
1, 19201, Note_on_c, 2, 65, 120
1, 19202, Note_on_c, 2, 57, 117
1, 19202, Note_on_c, 2, 60, 124
1, 19202, Note_on_c, 2, 48, 118
1, 19202, Note_on_c, 2, 41, 127
1, 19215, Note_on_c, 3, 79, 0
1, 19215, Note_on_c, 4, 67, 0
1, 19237, Note_on_c, 1, 29, 0
1, 19245, Note_on_c, 3, 72, 117
1, 19245, Note_on_c, 4, 60, 106
1, 19249, Note_on_c, 1, 29, 118
1, 19249, Note_on_c, 9, 51, 44
1, 19250, Note_on_c, 9, 51, 0
1, 19293, Note_on_c, 1, 29, 0
1, 19295, Note_on_c, 4, 60, 0
1, 19295, Note_on_c, 3, 79, 117
1, 19295, Note_on_c, 4, 67, 106
1, 19296, Note_on_c, 3, 72, 0
1, 19296, Note_on_c, 9, 40, 118
1, 19296, Note_on_c, 9, 53, 114
1, 19297, Note_on_c, 9, 53, 0
1, 19297, Note_on_c, 9, 40, 0
1, 19297, Note_on_c, 1, 41, 121
1, 19297, Note_on_c, 9, 51, 95
1, 19298, Note_on_c, 9, 51, 0
1, 19335, Note_on_c, 1, 41, 0
1, 19343, Note_on_c, 1, 29, 121
1, 19344, Note_on_c, 9, 51, 53
1, 19344, Note_on_c, 9, 36, 75
1, 19345, Note_on_c, 9, 36, 0
1, 19345, Note_on_c, 9, 51, 0
1, 19364, Note_on_c, 3, 79, 0
1, 19379, Note_on_c, 1, 29, 0
1, 19388, Note_on_c, 6, 84, 114
1, 19390, Note_on_c, 4, 67, 0
1, 19391, Note_on_c, 3, 79, 117
1, 19391, Note_on_c, 4, 67, 106
1, 19391, Note_on_c, 8, 84, 98
1, 19391, Note_on_c, 8, 72, 88
1, 19392, Note_on_c, 9, 53, 112
1, 19392, Note_on_c, 9, 36, 111
1, 19393, Note_on_c, 9, 36, 0
1, 19393, Note_on_c, 9, 53, 0
1, 19393, Note_on_c, 1, 29, 121
1, 19393, Note_on_c, 9, 51, 101
1, 19394, Note_on_c, 9, 51, 0
1, 19418, Note_on_c, 1, 29, 0
1, 19439, Note_on_c, 1, 29, 121
1, 19439, Note_on_c, 9, 51, 54
1, 19440, Note_on_c, 9, 51, 0
1, 19440, Note_on_c, 9, 53, 71
1, 19441, Note_on_c, 9, 53, 0
1, 19483, Note_on_c, 1, 29, 0
1, 19485, Note_on_c, 3, 79, 0
1, 19487, Note_on_c, 1, 41, 121
1, 19487, Note_on_c, 9, 51, 98
1, 19488, Note_on_c, 9, 51, 0
1, 19488, Note_on_c, 4, 67, 0
1, 19488, Note_on_c, 3, 74, 117
1, 19488, Note_on_c, 4, 62, 106
1, 19488, Note_on_c, 9, 40, 118
1, 19489, Note_on_c, 9, 40, 0
1, 19489, Note_on_c, 9, 53, 112
1, 19490, Note_on_c, 9, 53, 0
1, 19529, Note_on_c, 1, 41, 0
1, 19535, Note_on_c, 1, 29, 121
1, 19536, Note_on_c, 9, 51, 52
1, 19537, Note_on_c, 9, 51, 0
1, 19538, Note_on_c, 4, 62, 0
1, 19538, Note_on_c, 3, 79, 117
1, 19538, Note_on_c, 4, 67, 106
1, 19540, Note_on_c, 3, 74, 0
1, 19572, Note_on_c, 1, 29, 0
1, 19583, Note_on_c, 1, 29, 121
1, 19583, Note_on_c, 6, 83, 106
1, 19583, Note_on_c, 9, 51, 101
1, 19584, Note_on_c, 9, 51, 0
1, 19584, Note_on_c, 9, 53, 112
1, 19584, Note_on_c, 9, 36, 115
1, 19585, Note_on_c, 9, 36, 0
1, 19585, Note_on_c, 9, 53, 0
1, 19588, Note_on_c, 8, 83, 97
1, 19588, Note_on_c, 8, 71, 98
1, 19591, Note_on_c, 8, 84, 0
1, 19592, Note_on_c, 6, 84, 0
1, 19594, Note_on_c, 8, 72, 0
1, 19609, Note_on_c, 1, 29, 0
1, 19627, Note_on_c, 3, 79, 0
1, 19631, Note_on_c, 1, 29, 121
1, 19631, Note_on_c, 9, 51, 50
1, 19632, Note_on_c, 9, 51, 0
1, 19632, Note_on_c, 4, 67, 0
1, 19632, Note_on_c, 3, 74, 117
1, 19632, Note_on_c, 4, 62, 106
1, 19632, Note_on_c, 9, 53, 71
1, 19633, Note_on_c, 9, 53, 0
1, 19679, Note_on_c, 1, 41, 121
1, 19679, Note_on_c, 9, 51, 98
1, 19680, Note_on_c, 9, 51, 0
1, 19680, Note_on_c, 9, 40, 118
1, 19681, Note_on_c, 9, 40, 0
1, 19681, Note_on_c, 1, 29, 0
1, 19681, Note_on_c, 9, 53, 112
1, 19682, Note_on_c, 9, 53, 0
1, 19718, Note_on_c, 1, 41, 0
1, 19724, Note_on_c, 3, 74, 0
1, 19727, Note_on_c, 9, 51, 55
1, 19728, Note_on_c, 9, 51, 0
1, 19728, Note_on_c, 9, 53, 71
1, 19728, Note_on_c, 9, 36, 73
1, 19729, Note_on_c, 9, 36, 0
1, 19729, Note_on_c, 9, 53, 0
1, 19729, Note_on_c, 1, 29, 121
1, 19731, Note_on_c, 4, 62, 0
1, 19731, Note_on_c, 3, 79, 117
1, 19731, Note_on_c, 4, 67, 106
1, 19747, Note_on_c, 1, 29, 0
1, 19773, Note_on_c, 8, 71, 0
1, 19773, Note_on_c, 6, 83, 0
1, 19773, Note_on_c, 8, 83, 0
1, 19773, Note_on_c, 8, 69, 85
1, 19774, Note_on_c, 6, 81, 104
1, 19774, Note_on_c, 8, 81, 100
1, 19775, Note_on_c, 9, 51, 98
1, 19776, Note_on_c, 9, 51, 0
1, 19776, Note_on_c, 9, 53, 111
1, 19776, Note_on_c, 9, 36, 109
1, 19777, Note_on_c, 9, 36, 0
1, 19777, Note_on_c, 9, 53, 0
1, 19777, Note_on_c, 1, 29, 121
1, 19819, Note_on_c, 1, 29, 0
1, 19821, Note_on_c, 3, 79, 0
1, 19823, Note_on_c, 9, 51, 58
1, 19824, Note_on_c, 9, 51, 0
1, 19825, Note_on_c, 1, 41, 115
1, 19830, Note_on_c, 4, 67, 0
1, 19830, Note_on_c, 3, 74, 117
1, 19830, Note_on_c, 4, 62, 106
1, 19844, Note_on_c, 1, 41, 0
1, 19847, Note_on_c, 1, 41, 91
1, 19862, Note_on_c, 1, 41, 0
1, 19867, Note_on_c, 9, 40, 77
1, 19868, Note_on_c, 9, 40, 0
1, 19871, Note_on_c, 9, 51, 101
1, 19872, Note_on_c, 9, 51, 0
1, 19872, Note_on_c, 9, 40, 118
1, 19873, Note_on_c, 9, 40, 0
1, 19873, Note_on_c, 1, 29, 121
1, 19873, Note_on_c, 9, 53, 113
1, 19874, Note_on_c, 9, 53, 0
1, 19901, Note_on_c, 3, 74, 0
1, 19917, Note_on_c, 1, 29, 0
1, 19919, Note_on_c, 9, 51, 58
1, 19920, Note_on_c, 9, 51, 0
1, 19921, Note_on_c, 1, 41, 114
1, 19921, Note_on_c, 9, 53, 60
1, 19922, Note_on_c, 9, 53, 0
1, 19923, Note_on_c, 4, 62, 0
1, 19923, Note_on_c, 3, 81, 117
1, 19923, Note_on_c, 4, 69, 82
1, 19933, Note_on_c, 1, 41, 0
1, 19938, Note_on_c, 10, 65, 0
1, 19939, Note_on_c, 10, 60, 0
1, 19939, Note_on_c, 10, 41, 0
1, 19939, Note_on_c, 10, 48, 0
1, 19939, Note_on_c, 10, 57, 0
1, 19941, Note_on_c, 2, 65, 0
1, 19942, Note_on_c, 2, 41, 0
1, 19942, Note_on_c, 2, 57, 0
1, 19942, Note_on_c, 2, 60, 0
1, 19942, Note_on_c, 2, 48, 0
1, 19943, Note_on_c, 1, 41, 98
1, 19943, Note_on_c, 9, 49, 91
1, 19944, Note_on_c, 9, 49, 0
1, 19946, Note_on_c, 6, 81, 0
1, 19947, Note_on_c, 10, 64, 122
1, 19947, Note_on_c, 10, 61, 122
1, 19947, Note_on_c, 10, 57, 122
1, 19947, Note_on_c, 10, 52, 122
1, 19947, Note_on_c, 10, 45, 122
1, 19950, Note_on_c, 2, 64, 124
1, 19950, Note_on_c, 2, 61, 124
1, 19950, Note_on_c, 2, 57, 124
1, 19950, Note_on_c, 2, 52, 124
1, 19950, Note_on_c, 2, 45, 124
1, 19957, Note_on_c, 10, 45, 0
1, 19957, Note_on_c, 10, 52, 0
1, 19957, Note_on_c, 10, 61, 0
1, 19957, Note_on_c, 10, 57, 0
1, 19957, Note_on_c, 10, 64, 0
1, 19960, Note_on_c, 2, 61, 0
1, 19960, Note_on_c, 2, 52, 0
1, 19960, Note_on_c, 2, 64, 0
1, 19960, Note_on_c, 2, 57, 0
1, 19960, Note_on_c, 2, 45, 0
1, 19961, Note_on_c, 1, 41, 0
1, 19963, Note_on_c, 7, 45, 117
1, 19963, Note_on_c, 10, 45, 127
1, 19963, Note_on_c, 10, 52, 127
1, 19963, Note_on_c, 10, 57, 127
1, 19963, Note_on_c, 10, 61, 127
1, 19963, Note_on_c, 10, 64, 127
1, 19966, Note_on_c, 2, 45, 127
1, 19966, Note_on_c, 2, 52, 127
1, 19966, Note_on_c, 2, 57, 127
1, 19966, Note_on_c, 2, 61, 127
1, 19966, Note_on_c, 2, 64, 127
1, 19968, Note_on_c, 8, 69, 0
1, 19968, Note_on_c, 8, 81, 0
1, 19968, Note_on_c, 0, 45, 124
1, 19968, Note_on_c, 9, 36, 112
1, 19968, Note_on_c, 11, 69, 86
1, 19968, Note_on_c, 11, 64, 88
1, 19969, Note_on_c, 9, 36, 0
1, 19969, Note_on_c, 1, 33, 121
1, 19969, Note_on_c, 9, 57, 105
1, 19970, Note_on_c, 9, 57, 0
1, 19973, Note_on_c, 7, 45, 0
1, 19998, Note_on_c, 1, 33, 0
1, 20010, Note_on_c, 7, 52, 78
1, 20015, Note_on_c, 0, 52, 85
1, 20015, Note_on_c, 1, 33, 101
1, 20017, Note_on_c, 9, 42, 39
1, 20018, Note_on_c, 9, 42, 0
1, 20020, Note_on_c, 7, 52, 0
1, 20044, Note_on_c, 1, 33, 0
1, 20058, Note_on_c, 6, 73, 113
1, 20058, Note_on_c, 7, 59, 108
1, 20060, Note_on_c, 6, 69, 106
1, 20063, Note_on_c, 0, 59, 115
1, 20064, Note_on_c, 1, 33, 118
1, 20064, Note_on_c, 9, 40, 118
1, 20065, Note_on_c, 9, 40, 0
1, 20065, Note_on_c, 9, 42, 95
1, 20066, Note_on_c, 9, 42, 0
1, 20068, Note_on_c, 7, 59, 0
1, 20086, Note_on_c, 0, 52, 0
1, 20094, Note_on_c, 1, 33, 0
1, 20106, Note_on_c, 7, 52, 90
1, 20110, Note_on_c, 0, 59, 0
1, 20111, Note_on_c, 0, 52, 97
1, 20112, Note_on_c, 9, 36, 81
1, 20113, Note_on_c, 9, 36, 0
1, 20113, Note_on_c, 1, 33, 116
1, 20113, Note_on_c, 9, 42, 52
1, 20114, Note_on_c, 9, 42, 0
1, 20116, Note_on_c, 7, 52, 0
1, 20141, Note_on_c, 1, 33, 0
1, 20154, Note_on_c, 7, 61, 101
1, 20157, Note_on_c, 8, 93, 100
1, 20159, Note_on_c, 0, 61, 108
1, 20159, Note_on_c, 1, 33, 118
1, 20159, Note_on_c, 9, 42, 95
1, 20160, Note_on_c, 9, 42, 0
1, 20160, Note_on_c, 9, 36, 109
1, 20161, Note_on_c, 9, 36, 0
1, 20164, Note_on_c, 7, 61, 0
1, 20185, Note_on_c, 1, 33, 0
1, 20202, Note_on_c, 7, 59, 98
1, 20206, Note_on_c, 0, 61, 0
1, 20207, Note_on_c, 0, 59, 105
1, 20207, Note_on_c, 1, 33, 114
1, 20207, Note_on_c, 9, 42, 63
1, 20208, Note_on_c, 9, 42, 0
1, 20211, Note_on_c, 6, 73, 0
1, 20212, Note_on_c, 7, 59, 0
1, 20215, Note_on_c, 6, 69, 0
1, 20230, Note_on_c, 0, 52, 0
1, 20234, Note_on_c, 1, 33, 0
1, 20250, Note_on_c, 7, 52, 91
1, 20253, Note_on_c, 6, 73, 116
1, 20253, Note_on_c, 6, 69, 110
1, 20255, Note_on_c, 0, 52, 98
1, 20255, Note_on_c, 9, 42, 98
1, 20256, Note_on_c, 9, 42, 0
1, 20256, Note_on_c, 1, 33, 121
1, 20256, Note_on_c, 9, 40, 118
1, 20257, Note_on_c, 9, 40, 0
1, 20260, Note_on_c, 7, 52, 0
1, 20283, Note_on_c, 1, 33, 0
1, 20297, Note_on_c, 0, 59, 0
1, 20298, Note_on_c, 7, 59, 100
1, 20303, Note_on_c, 0, 59, 107
1, 20303, Note_on_c, 1, 33, 108
1, 20303, Note_on_c, 9, 42, 54
1, 20304, Note_on_c, 9, 42, 0
1, 20308, Note_on_c, 7, 59, 0
1, 20326, Note_on_c, 0, 52, 0
1, 20330, Note_on_c, 0, 45, 0
1, 20330, Note_on_c, 1, 33, 0
1, 20347, Note_on_c, 7, 45, 117
1, 20348, Note_on_c, 0, 59, 0
1, 20351, Note_on_c, 1, 33, 121
1, 20351, Note_on_c, 9, 42, 110
1, 20352, Note_on_c, 9, 42, 0
1, 20352, Note_on_c, 0, 45, 124
1, 20352, Note_on_c, 9, 36, 112
1, 20353, Note_on_c, 9, 36, 0
1, 20357, Note_on_c, 7, 45, 0
1, 20381, Note_on_c, 1, 33, 0
1, 20394, Note_on_c, 7, 52, 78
1, 20399, Note_on_c, 0, 52, 85
1, 20399, Note_on_c, 1, 33, 108
1, 20399, Note_on_c, 9, 42, 58
1, 20400, Note_on_c, 9, 42, 0
1, 20404, Note_on_c, 7, 52, 0
1, 20408, Note_on_c, 6, 73, 0
1, 20410, Note_on_c, 6, 69, 0
1, 20428, Note_on_c, 1, 33, 0
1, 20442, Note_on_c, 7, 59, 108
1, 20447, Note_on_c, 0, 59, 115
1, 20447, Note_on_c, 1, 33, 121
1, 20447, Note_on_c, 9, 42, 95
1, 20448, Note_on_c, 9, 42, 0
1, 20448, Note_on_c, 6, 73, 116
1, 20448, Note_on_c, 9, 40, 118
1, 20449, Note_on_c, 9, 40, 0
1, 20452, Note_on_c, 7, 59, 0
1, 20452, Note_on_c, 6, 69, 102
1, 20470, Note_on_c, 0, 52, 0
1, 20479, Note_on_c, 1, 33, 0
1, 20490, Note_on_c, 7, 52, 90
1, 20492, Note_on_c, 0, 59, 0
1, 20495, Note_on_c, 0, 52, 97
1, 20495, Note_on_c, 1, 33, 106
1, 20496, Note_on_c, 9, 42, 51
1, 20496, Note_on_c, 9, 36, 79
1, 20497, Note_on_c, 9, 36, 0
1, 20497, Note_on_c, 9, 42, 0
1, 20500, Note_on_c, 7, 52, 0
1, 20528, Note_on_c, 1, 33, 0
1, 20538, Note_on_c, 7, 61, 101
1, 20540, Note_on_c, 0, 52, 0
1, 20543, Note_on_c, 0, 61, 108
1, 20543, Note_on_c, 1, 33, 121
1, 20543, Note_on_c, 9, 42, 96
1, 20544, Note_on_c, 9, 42, 0
1, 20544, Note_on_c, 9, 36, 111
1, 20545, Note_on_c, 9, 36, 0
1, 20548, Note_on_c, 7, 61, 0
1, 20573, Note_on_c, 1, 33, 0
1, 20586, Note_on_c, 7, 59, 98
1, 20590, Note_on_c, 0, 61, 0
1, 20591, Note_on_c, 0, 59, 105
1, 20591, Note_on_c, 1, 33, 101
1, 20592, Note_on_c, 9, 42, 56
1, 20593, Note_on_c, 9, 42, 0
1, 20596, Note_on_c, 7, 59, 0
1, 20603, Note_on_c, 6, 73, 0
1, 20605, Note_on_c, 6, 69, 0
1, 20623, Note_on_c, 1, 33, 0
1, 20634, Note_on_c, 7, 52, 91
1, 20638, Note_on_c, 6, 73, 119
1, 20639, Note_on_c, 0, 52, 98
1, 20639, Note_on_c, 1, 33, 121
1, 20640, Note_on_c, 6, 69, 106
1, 20640, Note_on_c, 9, 40, 118
1, 20640, Note_on_c, 9, 42, 90
1, 20641, Note_on_c, 9, 42, 0
1, 20641, Note_on_c, 9, 40, 0
1, 20644, Note_on_c, 7, 52, 0
1, 20668, Note_on_c, 1, 33, 0
1, 20678, Note_on_c, 0, 59, 0
1, 20682, Note_on_c, 7, 59, 100
1, 20684, Note_on_c, 0, 52, 0
1, 20687, Note_on_c, 0, 59, 107
1, 20687, Note_on_c, 1, 33, 121
1, 20688, Note_on_c, 9, 42, 52
1, 20689, Note_on_c, 9, 42, 0
1, 20692, Note_on_c, 7, 59, 0
1, 20714, Note_on_c, 0, 45, 0
1, 20716, Note_on_c, 1, 33, 0
1, 20730, Note_on_c, 10, 61, 0
1, 20730, Note_on_c, 10, 64, 0
1, 20730, Note_on_c, 10, 57, 0
1, 20730, Note_on_c, 10, 52, 0
1, 20730, Note_on_c, 10, 45, 0
1, 20731, Note_on_c, 7, 42, 117
1, 20732, Note_on_c, 0, 59, 0
1, 20733, Note_on_c, 2, 61, 0
1, 20733, Note_on_c, 2, 57, 0
1, 20733, Note_on_c, 2, 45, 0
1, 20733, Note_on_c, 2, 52, 0
1, 20733, Note_on_c, 2, 64, 0
1, 20735, Note_on_c, 1, 30, 114
1, 20736, Note_on_c, 0, 42, 124
1, 20736, Note_on_c, 9, 42, 114
1, 20736, Note_on_c, 9, 36, 112
1, 20737, Note_on_c, 9, 36, 0
1, 20737, Note_on_c, 9, 42, 0
1, 20740, Control_c, 3, 11, 124
1, 20741, Note_on_c, 7, 42, 0
1, 20752, Control_c, 3, 11, 123
1, 20760, Control_c, 3, 11, 122
1, 20766, Note_on_c, 1, 30, 0
1, 20768, Control_c, 3, 11, 121
1, 20776, Control_c, 3, 11, 120
1, 20778, Note_on_c, 7, 49, 78
1, 20783, Note_on_c, 0, 49, 85
1, 20783, Note_on_c, 1, 30, 111
1, 20784, Control_c, 3, 11, 119
1, 20785, Note_on_c, 9, 42, 58
1, 20786, Note_on_c, 9, 42, 0
1, 20786, Note_on_c, 8, 93, 0
1, 20788, Note_on_c, 7, 49, 0
1, 20792, Control_c, 3, 11, 118
1, 20798, Note_on_c, 6, 73, 0
1, 20799, Note_on_c, 6, 69, 0
1, 20800, Control_c, 3, 11, 117
1, 20808, Control_c, 3, 11, 116
1, 20812, Note_on_c, 1, 30, 0
1, 20816, Control_c, 3, 11, 115
1, 20824, Control_c, 3, 11, 114
1, 20826, Note_on_c, 7, 56, 108
1, 20831, Note_on_c, 0, 56, 115
1, 20832, Note_on_c, 6, 73, 123
1, 20832, Note_on_c, 9, 40, 118
1, 20833, Note_on_c, 9, 40, 0
1, 20833, Note_on_c, 1, 30, 121
1, 20833, Note_on_c, 9, 42, 92
1, 20834, Note_on_c, 9, 42, 0
1, 20834, Note_on_c, 6, 69, 117
1, 20836, Note_on_c, 7, 56, 0
1, 20836, Control_c, 3, 11, 113
1, 20844, Control_c, 3, 11, 112
1, 20852, Control_c, 3, 11, 111
1, 20854, Note_on_c, 0, 49, 0
1, 20860, Control_c, 3, 11, 110
1, 20861, Note_on_c, 1, 30, 0
1, 20868, Control_c, 3, 11, 109
1, 20874, Note_on_c, 7, 49, 90
1, 20876, Control_c, 3, 11, 108
1, 20878, Note_on_c, 0, 56, 0
1, 20879, Note_on_c, 0, 49, 97
1, 20880, Note_on_c, 1, 30, 115
1, 20880, Note_on_c, 9, 36, 75
1, 20881, Note_on_c, 9, 36, 0
1, 20881, Note_on_c, 9, 42, 55
1, 20882, Note_on_c, 9, 42, 0
1, 20884, Note_on_c, 7, 49, 0
1, 20884, Control_c, 3, 11, 107
1, 20892, Control_c, 3, 11, 106
1, 20900, Control_c, 3, 11, 105
1, 20908, Control_c, 3, 11, 104
1, 20909, Note_on_c, 1, 30, 0
1, 20920, Control_c, 3, 11, 103
1, 20922, Note_on_c, 7, 57, 101
1, 20927, Note_on_c, 0, 57, 108
1, 20927, Note_on_c, 1, 30, 121
1, 20928, Control_c, 3, 11, 102
1, 20928, Note_on_c, 9, 36, 112
1, 20929, Note_on_c, 9, 36, 0
1, 20929, Note_on_c, 9, 42, 90
1, 20930, Note_on_c, 9, 42, 0
1, 20932, Note_on_c, 7, 57, 0
1, 20936, Control_c, 3, 11, 101
1, 20944, Control_c, 3, 11, 100
1, 20952, Control_c, 3, 11, 99
1, 20959, Note_on_c, 1, 30, 0
1, 20960, Control_c, 3, 11, 98
1, 20968, Control_c, 3, 11, 97
1, 20970, Note_on_c, 7, 56, 98
1, 20974, Note_on_c, 0, 57, 0
1, 20975, Note_on_c, 0, 56, 105
1, 20975, Note_on_c, 9, 42, 58
1, 20976, Note_on_c, 9, 42, 0
1, 20976, Note_on_c, 1, 30, 109
1, 20976, Control_c, 3, 11, 96
1, 20980, Note_on_c, 7, 56, 0
1, 20984, Control_c, 3, 11, 95
1, 20992, Control_c, 3, 11, 94
1, 20994, Note_on_c, 6, 73, 0
1, 20995, Note_on_c, 6, 69, 0
1, 20998, Note_on_c, 0, 49, 0
1, 21004, Note_on_c, 1, 30, 0
1, 21004, Control_c, 3, 11, 93
1, 21012, Control_c, 3, 11, 92
1, 21018, Note_on_c, 7, 49, 91
1, 21020, Control_c, 3, 11, 91
1, 21023, Note_on_c, 0, 49, 98
1, 21023, Note_on_c, 9, 42, 80
1, 21024, Note_on_c, 9, 42, 0
1, 21024, Note_on_c, 9, 40, 118
1, 21025, Note_on_c, 9, 40, 0
1, 21025, Note_on_c, 1, 30, 117
1, 21028, Note_on_c, 7, 49, 0
1, 21028, Control_c, 3, 11, 90
1, 21028, Note_on_c, 6, 73, 116
1, 21029, Note_on_c, 6, 69, 108
1, 21036, Control_c, 3, 11, 89
1, 21044, Control_c, 3, 11, 88
1, 21052, Control_c, 3, 11, 87
1, 21056, Note_on_c, 1, 30, 0
1, 21060, Control_c, 3, 11, 86
1, 21065, Note_on_c, 0, 56, 0
1, 21066, Note_on_c, 7, 56, 100
1, 21068, Control_c, 3, 11, 85
1, 21071, Note_on_c, 0, 56, 107
1, 21071, Note_on_c, 9, 42, 52
1, 21072, Note_on_c, 9, 42, 0
1, 21073, Note_on_c, 1, 30, 110
1, 21076, Note_on_c, 7, 56, 0
1, 21076, Control_c, 3, 11, 84
1, 21088, Control_c, 3, 11, 83
1, 21094, Note_on_c, 0, 49, 0
1, 21096, Control_c, 3, 11, 82
1, 21098, Note_on_c, 0, 42, 0
1, 21099, Note_on_c, 1, 30, 0
1, 21104, Control_c, 3, 11, 81
1, 21112, Control_c, 3, 11, 80
1, 21115, Note_on_c, 7, 42, 117
1, 21116, Note_on_c, 0, 56, 0
1, 21119, Note_on_c, 9, 42, 114
1, 21120, Note_on_c, 9, 42, 0
1, 21120, Note_on_c, 0, 42, 124
1, 21120, Note_on_c, 1, 30, 117
1, 21120, Control_c, 3, 11, 79
1, 21120, Note_on_c, 9, 36, 110
1, 21121, Note_on_c, 9, 36, 0
1, 21125, Note_on_c, 7, 42, 0
1, 21128, Control_c, 3, 11, 78
1, 21136, Control_c, 3, 11, 77
1, 21144, Control_c, 3, 11, 76
1, 21150, Note_on_c, 1, 30, 0
1, 21152, Control_c, 3, 11, 75
1, 21160, Control_c, 3, 11, 74
1, 21162, Note_on_c, 7, 49, 78
1, 21167, Note_on_c, 0, 49, 85
1, 21167, Note_on_c, 9, 42, 56
1, 21168, Note_on_c, 9, 42, 0
1, 21168, Note_on_c, 1, 30, 105
1, 21172, Note_on_c, 7, 49, 0
1, 21172, Control_c, 3, 11, 73
1, 21180, Control_c, 3, 11, 72
1, 21182, Note_on_c, 6, 73, 0
1, 21184, Note_on_c, 6, 69, 0
1, 21188, Control_c, 3, 11, 71
1, 21195, Note_on_c, 1, 30, 0
1, 21196, Control_c, 3, 11, 70
1, 21204, Control_c, 3, 11, 69
1, 21210, Note_on_c, 7, 56, 108
1, 21212, Control_c, 3, 11, 68
1, 21215, Note_on_c, 0, 56, 115
1, 21215, Note_on_c, 6, 73, 119
1, 21215, Note_on_c, 9, 42, 89
1, 21216, Note_on_c, 9, 42, 0
1, 21216, Note_on_c, 1, 30, 117
1, 21216, Note_on_c, 9, 40, 118
1, 21217, Note_on_c, 9, 40, 0
1, 21218, Note_on_c, 6, 69, 112
1, 21220, Note_on_c, 7, 56, 0
1, 21220, Control_c, 3, 11, 67
1, 21228, Control_c, 3, 11, 66
1, 21236, Control_c, 3, 11, 65
1, 21238, Note_on_c, 0, 49, 0
1, 21244, Control_c, 3, 11, 64
1, 21246, Note_on_c, 1, 30, 0
1, 21256, Control_c, 3, 11, 63
1, 21258, Note_on_c, 7, 49, 90
1, 21260, Note_on_c, 0, 56, 0
1, 21263, Note_on_c, 0, 49, 97
1, 21263, Note_on_c, 9, 42, 54
1, 21264, Note_on_c, 9, 42, 0
1, 21264, Note_on_c, 1, 30, 103
1, 21264, Control_c, 3, 11, 62
1, 21264, Note_on_c, 9, 36, 72
1, 21265, Note_on_c, 9, 36, 0
1, 21268, Note_on_c, 7, 49, 0
1, 21272, Control_c, 3, 11, 61
1, 21280, Control_c, 3, 11, 60
1, 21288, Control_c, 3, 11, 59
1, 21295, Note_on_c, 1, 30, 0
1, 21296, Control_c, 3, 11, 58
1, 21304, Control_c, 3, 11, 57
1, 21306, Note_on_c, 7, 57, 101
1, 21308, Note_on_c, 0, 49, 0
1, 21311, Note_on_c, 0, 57, 108
1, 21312, Note_on_c, 1, 30, 121
1, 21312, Control_c, 3, 11, 56
1, 21312, Note_on_c, 9, 36, 111
1, 21313, Note_on_c, 9, 36, 0
1, 21313, Note_on_c, 9, 42, 88
1, 21314, Note_on_c, 9, 42, 0
1, 21316, Note_on_c, 7, 57, 0
1, 21320, Control_c, 3, 11, 55
1, 21328, Control_c, 3, 11, 54
1, 21340, Control_c, 3, 11, 53
1, 21343, Note_on_c, 1, 30, 0
1, 21348, Control_c, 3, 11, 52
1, 21354, Note_on_c, 7, 56, 98
1, 21356, Control_c, 3, 11, 51
1, 21358, Note_on_c, 0, 57, 0
1, 21359, Note_on_c, 0, 56, 105
1, 21361, Note_on_c, 1, 30, 109
1, 21361, Note_on_c, 9, 42, 57
1, 21362, Note_on_c, 9, 42, 0
1, 21364, Note_on_c, 7, 56, 0
1, 21364, Control_c, 3, 11, 50
1, 21372, Control_c, 3, 11, 49
1, 21379, Note_on_c, 6, 73, 0
1, 21380, Control_c, 3, 11, 48
1, 21382, Note_on_c, 6, 69, 0
1, 21388, Control_c, 3, 11, 47
1, 21389, Note_on_c, 1, 30, 0
1, 21396, Control_c, 3, 11, 46
1, 21402, Note_on_c, 7, 49, 91
1, 21404, Control_c, 3, 11, 45
1, 21407, Note_on_c, 0, 49, 98
1, 21407, Note_on_c, 1, 30, 119
1, 21408, Note_on_c, 9, 40, 118
1, 21409, Note_on_c, 9, 40, 0
1, 21409, Note_on_c, 9, 42, 92
1, 21410, Note_on_c, 9, 42, 0
1, 21410, Note_on_c, 6, 73, 116
1, 21410, Note_on_c, 6, 69, 112
1, 21412, Note_on_c, 7, 49, 0
1, 21412, Control_c, 3, 11, 44
1, 21424, Control_c, 3, 11, 43
1, 21432, Control_c, 3, 11, 42
1, 21440, Note_on_c, 1, 30, 0
1, 21440, Control_c, 3, 11, 41
1, 21446, Note_on_c, 0, 56, 0
1, 21448, Control_c, 3, 11, 40
1, 21450, Note_on_c, 7, 56, 100
1, 21452, Note_on_c, 0, 49, 0
1, 21455, Note_on_c, 0, 56, 107
1, 21455, Note_on_c, 1, 33, 117
1, 21456, Control_c, 3, 11, 39
1, 21457, Note_on_c, 9, 42, 47
1, 21458, Note_on_c, 9, 42, 0
1, 21460, Note_on_c, 7, 56, 0
1, 21464, Control_c, 3, 11, 38
1, 21472, Control_c, 3, 11, 37
1, 21480, Control_c, 3, 11, 36
1, 21482, Note_on_c, 0, 42, 0
1, 21488, Control_c, 3, 11, 35
1, 21496, Control_c, 3, 11, 34
1, 21499, Note_on_c, 1, 33, 0
1, 21499, Note_on_c, 7, 50, 117
1, 21500, Note_on_c, 0, 56, 0
1, 21504, Note_on_c, 0, 50, 124
1, 21504, Control_c, 3, 11, 33
1, 21504, Note_on_c, 9, 36, 108
1, 21505, Note_on_c, 9, 36, 0
1, 21505, Note_on_c, 1, 38, 116
1, 21505, Note_on_c, 9, 42, 107
1, 21506, Note_on_c, 9, 42, 0
1, 21506, Note_on_c, 4, 69, 0
1, 21506, Note_on_c, 3, 81, 0
1, 21509, Note_on_c, 7, 50, 0
1, 21510, Note_on_c, 12, 38, 122
1, 21510, Note_on_c, 12, 50, 114
1, 21511, Control_c, 12, 1, 0
1, 21511, Pitch_bend_c, 12, 8192
1, 21530, Note_on_c, 1, 38, 0
1, 21546, Note_on_c, 7, 57, 78
1, 21551, Note_on_c, 0, 57, 85
1, 21552, Note_on_c, 1, 38, 112
1, 21553, Note_on_c, 9, 42, 55
1, 21554, Note_on_c, 9, 42, 0
1, 21556, Note_on_c, 7, 57, 0
1, 21565, Note_on_c, 6, 73, 0
1, 21569, Note_on_c, 6, 69, 0
1, 21583, Note_on_c, 1, 38, 0
1, 21584, Control_c, 3, 11, 126
1, 21594, Note_on_c, 7, 64, 101
1, 21599, Note_on_c, 0, 64, 108
1, 21599, Note_on_c, 6, 69, 106
1, 21599, Note_on_c, 6, 73, 116
1, 21599, Note_on_c, 9, 42, 96
1, 21600, Note_on_c, 9, 42, 0
1, 21600, Note_on_c, 1, 38, 116
1, 21600, Note_on_c, 9, 40, 118
1, 21601, Note_on_c, 9, 40, 0
1, 21604, Note_on_c, 7, 64, 0
1, 21629, Note_on_c, 1, 38, 0
1, 21642, Note_on_c, 7, 57, 90
1, 21643, Note_on_c, 7, 50, 94
1, 21646, Note_on_c, 0, 57, 0
1, 21647, Note_on_c, 0, 50, 0
1, 21647, Note_on_c, 0, 57, 97
1, 21648, Note_on_c, 0, 50, 101
1, 21648, Note_on_c, 1, 38, 102
1, 21648, Note_on_c, 9, 36, 81
1, 21649, Note_on_c, 9, 36, 0
1, 21649, Note_on_c, 9, 42, 57
1, 21650, Note_on_c, 9, 42, 0
1, 21652, Note_on_c, 7, 57, 0
1, 21653, Note_on_c, 7, 50, 0
1, 21670, Note_on_c, 0, 64, 0
1, 21679, Note_on_c, 1, 38, 0
1, 21690, Note_on_c, 7, 62, 101
1, 21695, Note_on_c, 0, 62, 108
1, 21695, Note_on_c, 1, 38, 116
1, 21696, Note_on_c, 9, 36, 111
1, 21697, Note_on_c, 9, 36, 0
1, 21697, Note_on_c, 9, 42, 96
1, 21698, Note_on_c, 9, 42, 0
1, 21700, Note_on_c, 7, 62, 0
1, 21726, Note_on_c, 1, 38, 0
1, 21736, Note_on_c, 0, 57, 0
1, 21738, Note_on_c, 7, 57, 98
1, 21743, Note_on_c, 0, 57, 105
1, 21745, Note_on_c, 1, 38, 94
1, 21745, Note_on_c, 9, 42, 57
1, 21746, Note_on_c, 9, 42, 0
1, 21748, Note_on_c, 7, 57, 0
1, 21754, Note_on_c, 6, 73, 0
1, 21758, Note_on_c, 6, 69, 0
1, 21766, Note_on_c, 0, 62, 0
1, 21775, Note_on_c, 1, 38, 0
1, 21787, Note_on_c, 7, 62, 72
1, 21787, Note_on_c, 7, 50, 91
1, 21791, Note_on_c, 0, 50, 0
1, 21791, Note_on_c, 6, 69, 106
1, 21791, Note_on_c, 6, 73, 113
1, 21792, Note_on_c, 0, 62, 79
1, 21792, Note_on_c, 0, 50, 98
1, 21792, Note_on_c, 9, 40, 118
1, 21792, Note_on_c, 9, 42, 90
1, 21793, Note_on_c, 9, 42, 0
1, 21793, Note_on_c, 9, 40, 0
1, 21793, Note_on_c, 1, 38, 114
1, 21797, Note_on_c, 7, 62, 0
1, 21797, Note_on_c, 7, 50, 0
1, 21814, Note_on_c, 0, 57, 0
1, 21824, Note_on_c, 1, 38, 0
1, 21834, Note_on_c, 7, 57, 100
1, 21839, Note_on_c, 0, 57, 107
1, 21841, Note_on_c, 1, 40, 102
1, 21841, Note_on_c, 9, 42, 42
1, 21842, Note_on_c, 9, 42, 0
1, 21844, Note_on_c, 7, 57, 0
1, 21852, Note_on_c, 12, 38, 0
1, 21856, Note_on_c, 12, 50, 0
1, 21863, Note_on_c, 0, 62, 0
1, 21873, Note_on_c, 1, 40, 0
1, 21883, Note_on_c, 7, 52, 117
1, 21884, Note_on_c, 0, 57, 0
1, 21887, Note_on_c, 0, 50, 0
1, 21888, Note_on_c, 0, 52, 114
1, 21888, Note_on_c, 9, 42, 107
1, 21888, Note_on_c, 9, 36, 111
1, 21888, Note_on_c, 12, 40, 114
1, 21889, Note_on_c, 9, 36, 0
1, 21889, Note_on_c, 9, 42, 0
1, 21889, Note_on_c, 1, 40, 112
1, 21891, Note_on_c, 12, 52, 112
1, 21893, Note_on_c, 7, 52, 0
1, 21920, Note_on_c, 1, 40, 0
1, 21930, Note_on_c, 7, 59, 78
1, 21935, Note_on_c, 0, 59, 85
1, 21935, Note_on_c, 1, 40, 90
1, 21937, Note_on_c, 9, 42, 66
1, 21938, Note_on_c, 9, 42, 0
1, 21940, Note_on_c, 7, 59, 0
1, 21948, Note_on_c, 6, 73, 0
1, 21951, Note_on_c, 6, 69, 0
1, 21961, Note_on_c, 1, 40, 0
1, 21978, Note_on_c, 7, 66, 108
1, 21983, Note_on_c, 0, 66, 97
1, 21983, Note_on_c, 1, 40, 112
1, 21983, Note_on_c, 6, 69, 106
1, 21983, Note_on_c, 6, 73, 113
1, 21984, Note_on_c, 9, 40, 118
1, 21985, Note_on_c, 9, 40, 0
1, 21985, Note_on_c, 9, 42, 95
1, 21986, Note_on_c, 9, 42, 0
1, 21988, Note_on_c, 7, 66, 0
1, 22006, Note_on_c, 0, 59, 0
1, 22015, Note_on_c, 1, 40, 0
1, 22026, Note_on_c, 7, 59, 90
1, 22027, Note_on_c, 7, 52, 95
1, 22029, Note_on_c, 0, 52, 0
1, 22031, Note_on_c, 0, 59, 97
1, 22031, Note_on_c, 1, 40, 94
1, 22031, Note_on_c, 9, 42, 54
1, 22032, Note_on_c, 9, 42, 0
1, 22032, Note_on_c, 0, 52, 102
1, 22032, Note_on_c, 9, 36, 76
1, 22033, Note_on_c, 9, 36, 0
1, 22036, Note_on_c, 7, 59, 0
1, 22037, Note_on_c, 7, 52, 0
1, 22054, Note_on_c, 0, 66, 0
1, 22063, Note_on_c, 1, 40, 0
1, 22074, Note_on_c, 7, 64, 101
1, 22079, Note_on_c, 0, 64, 108
1, 22079, Note_on_c, 1, 40, 106
1, 22080, Note_on_c, 9, 42, 92
1, 22080, Note_on_c, 9, 36, 110
1, 22081, Note_on_c, 9, 36, 0
1, 22081, Note_on_c, 9, 42, 0
1, 22084, Note_on_c, 7, 64, 0
1, 22102, Note_on_c, 0, 59, 0
1, 22104, Note_on_c, 1, 40, 0
1, 22122, Note_on_c, 7, 59, 98
1, 22127, Note_on_c, 0, 59, 99
1, 22127, Note_on_c, 1, 40, 84
1, 22127, Note_on_c, 9, 42, 46
1, 22128, Note_on_c, 9, 42, 0
1, 22132, Note_on_c, 7, 59, 0
1, 22144, Note_on_c, 6, 73, 0
1, 22147, Note_on_c, 6, 69, 0
1, 22150, Note_on_c, 0, 64, 0
1, 22158, Note_on_c, 1, 40, 0
1, 22167, Note_on_c, 0, 52, 0
1, 22170, Note_on_c, 7, 52, 91
1, 22175, Note_on_c, 0, 52, 89
1, 22175, Note_on_c, 1, 40, 114
1, 22175, Note_on_c, 6, 73, 113
1, 22175, Note_on_c, 9, 42, 90
1, 22176, Note_on_c, 9, 42, 0
1, 22176, Note_on_c, 9, 40, 118
1, 22177, Note_on_c, 9, 40, 0
1, 22178, Note_on_c, 6, 69, 106
1, 22180, Note_on_c, 7, 52, 0
1, 22204, Note_on_c, 1, 40, 0
1, 22218, Note_on_c, 7, 64, 100
1, 22220, Note_on_c, 0, 52, 0
1, 22223, Note_on_c, 0, 64, 85
1, 22223, Note_on_c, 1, 40, 104
1, 22224, Note_on_c, 9, 42, 51
1, 22225, Note_on_c, 9, 42, 0
1, 22228, Note_on_c, 7, 64, 0
1, 22243, Note_on_c, 12, 40, 0
1, 22246, Note_on_c, 12, 52, 0
1, 22256, Note_on_c, 1, 40, 0
1, 22267, Note_on_c, 7, 42, 117
1, 22270, Note_on_c, 0, 59, 0
1, 22270, Note_on_c, 0, 64, 0
1, 22272, Note_on_c, 0, 42, 124
1, 22272, Note_on_c, 1, 30, 114
1, 22272, Note_on_c, 9, 36, 111
1, 22272, Note_on_c, 12, 54, 110
1, 22272, Note_on_c, 12, 42, 107
1, 22273, Note_on_c, 9, 36, 0
1, 22273, Note_on_c, 9, 42, 107
1, 22274, Note_on_c, 9, 42, 0
1, 22277, Note_on_c, 7, 42, 0
1, 22310, Note_on_c, 1, 30, 0
1, 22314, Note_on_c, 7, 49, 78
1, 22319, Note_on_c, 0, 49, 85
1, 22320, Note_on_c, 9, 42, 58
1, 22321, Note_on_c, 9, 42, 0
1, 22321, Note_on_c, 1, 30, 114
1, 22324, Note_on_c, 7, 49, 0
1, 22338, Note_on_c, 6, 73, 0
1, 22340, Note_on_c, 6, 69, 0
1, 22355, Note_on_c, 1, 30, 0
1, 22362, Note_on_c, 7, 56, 108
1, 22367, Note_on_c, 0, 56, 115
1, 22368, Note_on_c, 6, 69, 108
1, 22368, Note_on_c, 6, 73, 119
1, 22368, Note_on_c, 9, 40, 118
1, 22368, Note_on_c, 9, 42, 86
1, 22369, Note_on_c, 9, 42, 0
1, 22369, Note_on_c, 9, 40, 0
1, 22369, Note_on_c, 1, 30, 105
1, 22372, Note_on_c, 7, 56, 0
1, 22390, Note_on_c, 0, 49, 0
1, 22397, Note_on_c, 1, 30, 0
1, 22410, Note_on_c, 7, 49, 90
1, 22414, Note_on_c, 0, 56, 0
1, 22415, Note_on_c, 0, 49, 97
1, 22416, Note_on_c, 9, 42, 63
1, 22416, Note_on_c, 9, 36, 75
1, 22417, Note_on_c, 9, 36, 0
1, 22417, Note_on_c, 9, 42, 0
1, 22417, Note_on_c, 1, 30, 120
1, 22420, Note_on_c, 7, 49, 0
1, 22439, Note_on_c, 1, 30, 0
1, 22458, Note_on_c, 7, 57, 101
1, 22463, Note_on_c, 0, 57, 108
1, 22463, Note_on_c, 1, 30, 120
1, 22464, Note_on_c, 9, 36, 111
1, 22465, Note_on_c, 9, 36, 0
1, 22465, Note_on_c, 9, 42, 92
1, 22466, Note_on_c, 9, 42, 0
1, 22468, Note_on_c, 7, 57, 0
1, 22490, Note_on_c, 1, 30, 0
1, 22506, Note_on_c, 7, 56, 98
1, 22510, Note_on_c, 0, 57, 0
1, 22511, Note_on_c, 0, 56, 105
1, 22511, Note_on_c, 1, 30, 114
1, 22513, Note_on_c, 9, 42, 46
1, 22514, Note_on_c, 9, 42, 0
1, 22516, Note_on_c, 7, 56, 0
1, 22526, Note_on_c, 6, 73, 0
1, 22528, Note_on_c, 6, 69, 0
1, 22534, Note_on_c, 0, 49, 0
1, 22549, Note_on_c, 1, 30, 0
1, 22554, Note_on_c, 7, 49, 91
1, 22559, Note_on_c, 0, 49, 98
1, 22560, Note_on_c, 1, 30, 114
1, 22560, Note_on_c, 6, 73, 116
1, 22560, Note_on_c, 6, 69, 110
1, 22560, Note_on_c, 9, 40, 118
1, 22561, Note_on_c, 9, 40, 0
1, 22561, Note_on_c, 9, 42, 98
1, 22562, Note_on_c, 9, 42, 0
1, 22564, Note_on_c, 7, 49, 0
1, 22591, Note_on_c, 1, 30, 0
1, 22601, Note_on_c, 0, 56, 0
1, 22602, Note_on_c, 7, 56, 100
1, 22607, Note_on_c, 0, 56, 107
1, 22607, Note_on_c, 1, 30, 114
1, 22607, Note_on_c, 9, 42, 56
1, 22608, Note_on_c, 9, 42, 0
1, 22612, Note_on_c, 7, 56, 0
1, 22630, Note_on_c, 0, 49, 0
1, 22634, Note_on_c, 0, 42, 0
1, 22638, Note_on_c, 1, 30, 0
1, 22651, Note_on_c, 7, 42, 117
1, 22652, Note_on_c, 0, 56, 0
1, 22655, Note_on_c, 1, 30, 105
1, 22656, Note_on_c, 0, 42, 124
1, 22656, Note_on_c, 9, 36, 115
1, 22657, Note_on_c, 9, 36, 0
1, 22657, Note_on_c, 9, 42, 107
1, 22658, Note_on_c, 9, 42, 0
1, 22661, Note_on_c, 7, 42, 0
1, 22687, Note_on_c, 1, 30, 0
1, 22698, Note_on_c, 7, 49, 78
1, 22703, Note_on_c, 0, 49, 85
1, 22703, Note_on_c, 1, 30, 120
1, 22705, Note_on_c, 9, 42, 52
1, 22706, Note_on_c, 9, 42, 0
1, 22708, Note_on_c, 7, 49, 0
1, 22713, Note_on_c, 6, 73, 0
1, 22716, Note_on_c, 6, 69, 0
1, 22734, Note_on_c, 1, 30, 0
1, 22746, Note_on_c, 7, 56, 108
1, 22749, Note_on_c, 6, 69, 108
1, 22749, Note_on_c, 6, 73, 113
1, 22751, Note_on_c, 0, 56, 115
1, 22751, Note_on_c, 1, 30, 108
1, 22752, Note_on_c, 9, 40, 118
1, 22752, Note_on_c, 9, 42, 90
1, 22753, Note_on_c, 9, 42, 0
1, 22753, Note_on_c, 9, 40, 0
1, 22756, Note_on_c, 7, 56, 0
1, 22774, Note_on_c, 0, 49, 0
1, 22776, Note_on_c, 1, 30, 0
1, 22794, Note_on_c, 7, 49, 90
1, 22796, Note_on_c, 0, 56, 0
1, 22799, Note_on_c, 0, 49, 97
1, 22799, Note_on_c, 1, 30, 111
1, 22800, Note_on_c, 9, 36, 73
1, 22801, Note_on_c, 9, 36, 0
1, 22801, Note_on_c, 9, 42, 49
1, 22802, Note_on_c, 9, 42, 0
1, 22804, Note_on_c, 7, 49, 0
1, 22823, Note_on_c, 1, 30, 0
1, 22842, Note_on_c, 7, 57, 101
1, 22847, Note_on_c, 0, 57, 108
1, 22847, Note_on_c, 1, 30, 111
1, 22848, Note_on_c, 9, 36, 109
1, 22849, Note_on_c, 9, 36, 0
1, 22849, Note_on_c, 9, 42, 98
1, 22850, Note_on_c, 9, 42, 0
1, 22852, Note_on_c, 7, 57, 0
1, 22870, Note_on_c, 1, 30, 0
1, 22890, Note_on_c, 7, 56, 98
1, 22894, Note_on_c, 0, 49, 0
1, 22894, Note_on_c, 0, 57, 0
1, 22895, Note_on_c, 0, 56, 105
1, 22895, Note_on_c, 9, 42, 49
1, 22896, Note_on_c, 9, 42, 0
1, 22897, Note_on_c, 1, 40, 114
1, 22900, Note_on_c, 7, 56, 0
1, 22904, Note_on_c, 6, 73, 0
1, 22905, Note_on_c, 6, 69, 0
1, 22923, Note_on_c, 1, 40, 0
1, 22939, Note_on_c, 7, 49, 91
1, 22943, Note_on_c, 0, 49, 98
1, 22943, Note_on_c, 6, 69, 106
1, 22943, Note_on_c, 6, 73, 110
1, 22944, Note_on_c, 9, 40, 118
1, 22945, Note_on_c, 9, 40, 0
1, 22945, Note_on_c, 1, 40, 121
1, 22945, Note_on_c, 9, 42, 107
1, 22946, Note_on_c, 9, 42, 0
1, 22949, Note_on_c, 7, 49, 0
1, 22974, Note_on_c, 1, 40, 0
1, 22982, Note_on_c, 0, 56, 0
1, 22986, Note_on_c, 7, 56, 100
1, 22991, Note_on_c, 0, 56, 107
1, 22991, Note_on_c, 9, 42, 40
1, 22992, Note_on_c, 9, 42, 0
1, 22993, Note_on_c, 12, 42, 0
1, 22993, Note_on_c, 12, 54, 0
1, 22993, Note_on_c, 1, 40, 102
1, 22996, Note_on_c, 7, 56, 0
1, 23014, Note_on_c, 0, 49, 0
1, 23018, Note_on_c, 0, 42, 0
1, 23023, Note_on_c, 1, 40, 0
1, 23035, Note_on_c, 7, 45, 117
1, 23036, Note_on_c, 0, 56, 0
1, 23037, Note_on_c, 11, 69, 0
1, 23037, Note_on_c, 11, 64, 0
1, 23040, Note_on_c, 0, 45, 124
1, 23040, Note_on_c, 9, 36, 112
1, 23040, Note_on_c, 11, 64, 67
1, 23040, Note_on_c, 11, 69, 64
1, 23040, Note_on_c, 12, 57, 114
1, 23041, Note_on_c, 9, 36, 0
1, 23041, Note_on_c, 1, 33, 121
1, 23041, Note_on_c, 9, 42, 109
1, 23042, Note_on_c, 9, 42, 0
1, 23045, Note_on_c, 7, 45, 0
1, 23075, Note_on_c, 1, 33, 0
1, 23082, Note_on_c, 7, 52, 78
1, 23087, Note_on_c, 0, 52, 85
1, 23088, Note_on_c, 1, 33, 114
1, 23089, Note_on_c, 9, 42, 39
1, 23090, Note_on_c, 9, 42, 0
1, 23092, Note_on_c, 7, 52, 0
1, 23094, Note_on_c, 6, 69, 0
1, 23094, Note_on_c, 6, 73, 0
1, 23114, Note_on_c, 1, 33, 0
1, 23130, Note_on_c, 7, 59, 108
1, 23135, Note_on_c, 0, 59, 115
1, 23135, Note_on_c, 1, 33, 121
1, 23136, Note_on_c, 9, 40, 118
1, 23137, Note_on_c, 9, 40, 0
1, 23137, Note_on_c, 9, 42, 95
1, 23138, Note_on_c, 9, 42, 0
1, 23139, Note_on_c, 6, 69, 106
1, 23139, Note_on_c, 6, 73, 113
1, 23140, Note_on_c, 7, 59, 0
1, 23158, Note_on_c, 0, 52, 0
1, 23167, Note_on_c, 1, 33, 0
1, 23178, Note_on_c, 7, 52, 90
1, 23182, Note_on_c, 0, 59, 0
1, 23183, Note_on_c, 0, 52, 97
1, 23183, Note_on_c, 1, 33, 108
1, 23184, Note_on_c, 9, 36, 81
1, 23185, Note_on_c, 9, 36, 0
1, 23185, Note_on_c, 9, 42, 52
1, 23186, Note_on_c, 9, 42, 0
1, 23187, Note_on_c, 4, 64, 81
1, 23187, Note_on_c, 5, 76, 103
1, 23188, Note_on_c, 7, 52, 0
1, 23188, Control_c, 5, 1, 0
1, 23188, Pitch_bend_c, 5, 8192
1, 23209, Note_on_c, 1, 33, 0
1, 23226, Note_on_c, 7, 61, 101
1, 23231, Note_on_c, 0, 61, 108
1, 23231, Note_on_c, 1, 33, 121
1, 23231, Note_on_c, 9, 42, 95
1, 23232, Note_on_c, 9, 42, 0
1, 23232, Note_on_c, 9, 36, 109
1, 23232, Note_on_c, 12, 64, 108
1, 23233, Note_on_c, 9, 36, 0
1, 23235, Note_on_c, 12, 57, 0
1, 23236, Note_on_c, 7, 61, 0
1, 23264, Note_on_c, 1, 33, 0
1, 23274, Note_on_c, 7, 59, 98
1, 23278, Note_on_c, 0, 61, 0
1, 23279, Note_on_c, 0, 59, 105
1, 23279, Note_on_c, 1, 33, 114
1, 23279, Note_on_c, 9, 42, 63
1, 23280, Note_on_c, 9, 42, 0
1, 23284, Note_on_c, 7, 59, 0
1, 23293, Note_on_c, 6, 73, 0
1, 23295, Note_on_c, 6, 69, 0
1, 23302, Note_on_c, 0, 52, 0
1, 23309, Note_on_c, 1, 33, 0
1, 23322, Note_on_c, 6, 69, 106
1, 23322, Note_on_c, 6, 73, 113
1, 23322, Note_on_c, 7, 52, 91
1, 23327, Note_on_c, 12, 64, 0
1, 23327, Note_on_c, 0, 52, 98
1, 23327, Note_on_c, 1, 33, 121
1, 23327, Note_on_c, 9, 42, 98
1, 23328, Note_on_c, 9, 42, 0
1, 23328, Note_on_c, 4, 64, 0
1, 23328, Note_on_c, 4, 62, 81
1, 23328, Note_on_c, 5, 74, 103
1, 23328, Note_on_c, 9, 40, 118
1, 23328, Note_on_c, 12, 62, 97
1, 23329, Note_on_c, 9, 40, 0
1, 23330, Note_on_c, 5, 76, 0
1, 23332, Note_on_c, 7, 52, 0
1, 23361, Note_on_c, 1, 33, 0
1, 23369, Note_on_c, 0, 59, 0
1, 23370, Note_on_c, 7, 59, 100
1, 23375, Note_on_c, 5, 74, 0
1, 23375, Note_on_c, 12, 62, 0
1, 23375, Note_on_c, 0, 59, 107
1, 23375, Note_on_c, 1, 33, 110
1, 23375, Note_on_c, 9, 42, 54
1, 23376, Note_on_c, 9, 42, 0
1, 23376, Note_on_c, 4, 62, 0
1, 23376, Note_on_c, 4, 61, 73
1, 23376, Note_on_c, 5, 73, 93
1, 23376, Note_on_c, 12, 61, 107
1, 23380, Note_on_c, 7, 59, 0
1, 23398, Note_on_c, 0, 52, 0
1, 23402, Note_on_c, 0, 45, 0
1, 23403, Note_on_c, 1, 33, 0
1, 23419, Note_on_c, 7, 45, 117
1, 23420, Note_on_c, 0, 59, 0
1, 23423, Note_on_c, 12, 61, 0
1, 23423, Note_on_c, 1, 33, 121
1, 23423, Note_on_c, 9, 42, 110
1, 23424, Note_on_c, 9, 42, 0
1, 23424, Note_on_c, 0, 45, 124
1, 23424, Note_on_c, 9, 36, 112
1, 23425, Note_on_c, 9, 36, 0
1, 23425, Note_on_c, 12, 57, 112
1, 23428, Note_on_c, 5, 73, 0
1, 23428, Note_on_c, 4, 61, 0
1, 23429, Note_on_c, 7, 45, 0
1, 23453, Note_on_c, 1, 33, 0
1, 23466, Note_on_c, 7, 52, 78
1, 23471, Note_on_c, 0, 52, 85
1, 23471, Note_on_c, 9, 42, 58
1, 23472, Note_on_c, 9, 42, 0
1, 23472, Note_on_c, 1, 33, 118
1, 23476, Note_on_c, 7, 52, 0
1, 23486, Note_on_c, 6, 73, 0
1, 23488, Note_on_c, 6, 69, 0
1, 23505, Note_on_c, 1, 33, 0
1, 23514, Note_on_c, 7, 59, 108
1, 23519, Note_on_c, 0, 59, 115
1, 23519, Note_on_c, 1, 33, 121
1, 23519, Note_on_c, 6, 69, 108
1, 23519, Note_on_c, 6, 73, 110
1, 23519, Note_on_c, 9, 42, 95
1, 23520, Note_on_c, 9, 42, 0
1, 23520, Note_on_c, 9, 40, 118
1, 23521, Note_on_c, 9, 40, 0
1, 23524, Note_on_c, 7, 59, 0
1, 23542, Note_on_c, 0, 52, 0
1, 23552, Note_on_c, 1, 33, 0
1, 23562, Note_on_c, 7, 52, 90
1, 23564, Note_on_c, 0, 59, 0
1, 23566, Note_on_c, 4, 64, 81
1, 23566, Note_on_c, 5, 76, 103
1, 23567, Note_on_c, 0, 52, 97
1, 23568, Note_on_c, 9, 42, 51
1, 23568, Note_on_c, 9, 36, 79
1, 23569, Note_on_c, 9, 36, 0
1, 23569, Note_on_c, 9, 42, 0
1, 23569, Note_on_c, 1, 33, 121
1, 23572, Note_on_c, 7, 52, 0
1, 23595, Note_on_c, 1, 33, 0
1, 23610, Note_on_c, 7, 61, 101
1, 23612, Note_on_c, 0, 52, 0
1, 23615, Note_on_c, 0, 61, 108
1, 23615, Note_on_c, 1, 33, 121
1, 23615, Note_on_c, 9, 42, 96
1, 23616, Note_on_c, 9, 42, 0
1, 23616, Note_on_c, 9, 36, 111
1, 23617, Note_on_c, 9, 36, 0
1, 23618, Note_on_c, 12, 57, 0
1, 23618, Note_on_c, 12, 64, 120
1, 23620, Note_on_c, 7, 61, 0
1, 23645, Note_on_c, 1, 33, 0
1, 23658, Note_on_c, 7, 59, 98
1, 23662, Note_on_c, 0, 61, 0
1, 23663, Note_on_c, 0, 59, 105
1, 23664, Note_on_c, 1, 33, 112
1, 23664, Note_on_c, 9, 42, 56
1, 23665, Note_on_c, 9, 42, 0
1, 23668, Note_on_c, 7, 59, 0
1, 23683, Note_on_c, 6, 73, 0
1, 23686, Note_on_c, 6, 69, 0
1, 23693, Note_on_c, 1, 33, 0
1, 23706, Note_on_c, 7, 52, 91
1, 23711, Note_on_c, 0, 52, 98
1, 23712, Note_on_c, 4, 64, 0
1, 23712, Note_on_c, 4, 62, 75
1, 23712, Note_on_c, 5, 74, 95
1, 23712, Note_on_c, 9, 40, 118
1, 23712, Note_on_c, 9, 42, 90
1, 23712, Note_on_c, 12, 62, 102
1, 23713, Note_on_c, 9, 42, 0
1, 23713, Note_on_c, 12, 64, 0
1, 23713, Note_on_c, 9, 40, 0
1, 23713, Note_on_c, 1, 33, 121
1, 23716, Note_on_c, 5, 76, 0
1, 23716, Note_on_c, 7, 52, 0
1, 23716, Note_on_c, 6, 69, 108
1, 23716, Note_on_c, 6, 73, 116
1, 23745, Note_on_c, 1, 33, 0
1, 23750, Note_on_c, 0, 59, 0
1, 23754, Note_on_c, 7, 59, 100
1, 23756, Note_on_c, 0, 52, 0
1, 23758, Note_on_c, 12, 61, 113
1, 23759, Note_on_c, 5, 74, 0
1, 23759, Note_on_c, 0, 59, 107
1, 23759, Note_on_c, 1, 33, 114
1, 23760, Note_on_c, 4, 62, 0
1, 23760, Note_on_c, 4, 61, 72
1, 23760, Note_on_c, 5, 73, 92
1, 23760, Note_on_c, 9, 42, 52
1, 23761, Note_on_c, 9, 42, 0
1, 23761, Note_on_c, 12, 62, 0
1, 23764, Note_on_c, 7, 59, 0
1, 23786, Note_on_c, 0, 45, 0
1, 23789, Note_on_c, 1, 33, 0
1, 23803, Note_on_c, 7, 42, 117
1, 23804, Note_on_c, 0, 59, 0
1, 23806, Note_on_c, 5, 73, 0
1, 23807, Note_on_c, 12, 61, 0
1, 23807, Note_on_c, 1, 30, 120
1, 23808, Note_on_c, 0, 42, 124
1, 23808, Note_on_c, 9, 42, 114
1, 23808, Note_on_c, 9, 36, 112
1, 23808, Note_on_c, 12, 57, 104
1, 23809, Note_on_c, 9, 36, 0
1, 23809, Note_on_c, 9, 42, 0
1, 23812, Note_on_c, 4, 61, 0
1, 23813, Note_on_c, 7, 42, 0
1, 23836, Note_on_c, 1, 30, 0
1, 23850, Note_on_c, 7, 49, 78
1, 23855, Note_on_c, 0, 49, 85
1, 23855, Note_on_c, 1, 30, 108
1, 23857, Note_on_c, 9, 42, 58
1, 23858, Note_on_c, 9, 42, 0
1, 23860, Note_on_c, 7, 49, 0
1, 23866, Note_on_c, 6, 73, 0
1, 23869, Note_on_c, 6, 69, 0
1, 23883, Note_on_c, 1, 30, 0
1, 23898, Note_on_c, 7, 56, 108
1, 23903, Note_on_c, 0, 56, 115
1, 23903, Note_on_c, 1, 30, 121
1, 23903, Note_on_c, 6, 73, 110
1, 23903, Note_on_c, 6, 69, 106
1, 23904, Note_on_c, 9, 40, 118
1, 23905, Note_on_c, 9, 40, 0
1, 23905, Note_on_c, 9, 42, 92
1, 23906, Note_on_c, 9, 42, 0
1, 23908, Note_on_c, 7, 56, 0
1, 23926, Note_on_c, 0, 49, 0
1, 23933, Note_on_c, 1, 30, 0
1, 23946, Note_on_c, 7, 49, 90
1, 23949, Note_on_c, 4, 64, 92
1, 23949, Note_on_c, 5, 76, 117
1, 23950, Note_on_c, 0, 56, 0
1, 23951, Note_on_c, 0, 49, 97
1, 23951, Note_on_c, 1, 30, 111
1, 23952, Note_on_c, 9, 36, 75
1, 23953, Note_on_c, 9, 36, 0
1, 23953, Note_on_c, 9, 42, 55
1, 23954, Note_on_c, 9, 42, 0
1, 23956, Note_on_c, 7, 49, 0
1, 23977, Note_on_c, 1, 30, 0
1, 23994, Note_on_c, 7, 57, 101
1, 23999, Note_on_c, 0, 57, 108
1, 23999, Note_on_c, 1, 30, 121
1, 24000, Note_on_c, 9, 36, 112
1, 24000, Note_on_c, 12, 64, 110
1, 24001, Note_on_c, 9, 36, 0
1, 24001, Note_on_c, 9, 42, 90
1, 24002, Note_on_c, 9, 42, 0
1, 24003, Note_on_c, 12, 57, 0
1, 24004, Note_on_c, 7, 57, 0
1, 24029, Note_on_c, 1, 30, 0
1, 24042, Note_on_c, 7, 56, 98
1, 24046, Note_on_c, 0, 57, 0
1, 24047, Note_on_c, 0, 56, 105
1, 24047, Note_on_c, 1, 30, 103
1, 24047, Note_on_c, 9, 42, 58
1, 24048, Note_on_c, 9, 42, 0
1, 24052, Note_on_c, 7, 56, 0
1, 24059, Note_on_c, 6, 73, 0
1, 24063, Note_on_c, 6, 69, 0
1, 24070, Note_on_c, 0, 49, 0
1, 24073, Note_on_c, 1, 30, 0
1, 24090, Note_on_c, 7, 49, 91
1, 24095, Note_on_c, 5, 76, 0
1, 24095, Note_on_c, 12, 64, 0
1, 24095, Note_on_c, 0, 49, 98
1, 24095, Note_on_c, 6, 73, 113
1, 24095, Note_on_c, 6, 69, 108
1, 24095, Note_on_c, 9, 42, 80
1, 24096, Note_on_c, 9, 42, 0
1, 24096, Note_on_c, 4, 64, 0
1, 24096, Note_on_c, 4, 62, 81
1, 24096, Note_on_c, 5, 74, 103
1, 24096, Note_on_c, 9, 40, 118
1, 24097, Note_on_c, 9, 40, 0
1, 24097, Note_on_c, 1, 30, 120
1, 24097, Note_on_c, 12, 62, 106
1, 24100, Note_on_c, 7, 49, 0
1, 24124, Note_on_c, 1, 30, 0
1, 24137, Note_on_c, 0, 56, 0
1, 24138, Note_on_c, 7, 56, 100
1, 24142, Note_on_c, 12, 62, 0
1, 24143, Note_on_c, 5, 74, 0
1, 24143, Note_on_c, 0, 56, 107
1, 24143, Note_on_c, 1, 30, 103
1, 24143, Note_on_c, 9, 42, 52
1, 24143, Note_on_c, 12, 61, 113
1, 24144, Note_on_c, 9, 42, 0
1, 24144, Note_on_c, 4, 62, 0
1, 24144, Note_on_c, 4, 61, 82
1, 24144, Note_on_c, 5, 73, 104
1, 24148, Note_on_c, 7, 56, 0
1, 24166, Note_on_c, 0, 49, 0
1, 24167, Note_on_c, 1, 30, 0
1, 24170, Note_on_c, 0, 42, 0
1, 24187, Note_on_c, 12, 61, 0
1, 24187, Note_on_c, 7, 42, 117
1, 24187, Note_on_c, 12, 57, 108
1, 24188, Note_on_c, 0, 56, 0
1, 24188, Note_on_c, 5, 73, 0
1, 24191, Note_on_c, 1, 30, 121
1, 24191, Note_on_c, 9, 42, 114
1, 24192, Note_on_c, 9, 42, 0
1, 24192, Note_on_c, 0, 42, 124
1, 24192, Note_on_c, 9, 36, 110
1, 24193, Note_on_c, 9, 36, 0
1, 24197, Note_on_c, 7, 42, 0
1, 24198, Note_on_c, 4, 61, 0
1, 24217, Note_on_c, 1, 30, 0
1, 24234, Note_on_c, 7, 49, 78
1, 24239, Note_on_c, 0, 49, 85
1, 24239, Note_on_c, 1, 30, 101
1, 24239, Note_on_c, 9, 42, 56
1, 24240, Note_on_c, 9, 42, 0
1, 24244, Note_on_c, 7, 49, 0
1, 24252, Note_on_c, 6, 73, 0
1, 24255, Note_on_c, 6, 69, 0
1, 24264, Note_on_c, 1, 30, 0
1, 24282, Note_on_c, 7, 56, 108
1, 24286, Note_on_c, 6, 69, 110
1, 24286, Note_on_c, 6, 73, 113
1, 24287, Note_on_c, 0, 56, 115
1, 24287, Note_on_c, 1, 30, 121
1, 24287, Note_on_c, 9, 42, 89
1, 24288, Note_on_c, 9, 42, 0
1, 24288, Note_on_c, 9, 40, 118
1, 24289, Note_on_c, 9, 40, 0
1, 24292, Note_on_c, 7, 56, 0
1, 24310, Note_on_c, 0, 49, 0
1, 24317, Note_on_c, 1, 30, 0
1, 24330, Note_on_c, 7, 49, 90
1, 24332, Note_on_c, 0, 56, 0
1, 24335, Note_on_c, 0, 49, 97
1, 24335, Note_on_c, 1, 30, 99
1, 24335, Note_on_c, 4, 64, 79
1, 24335, Note_on_c, 5, 76, 101
1, 24335, Note_on_c, 9, 42, 54
1, 24336, Note_on_c, 9, 42, 0
1, 24336, Note_on_c, 9, 36, 72
1, 24337, Note_on_c, 9, 36, 0
1, 24340, Note_on_c, 7, 49, 0
1, 24363, Note_on_c, 1, 30, 0
1, 24378, Note_on_c, 7, 57, 101
1, 24380, Note_on_c, 0, 49, 0
1, 24383, Note_on_c, 0, 57, 108
1, 24383, Note_on_c, 1, 30, 121
1, 24384, Note_on_c, 9, 36, 111
1, 24384, Note_on_c, 12, 64, 110
1, 24385, Note_on_c, 9, 36, 0
1, 24385, Note_on_c, 9, 42, 88
1, 24386, Note_on_c, 9, 42, 0
1, 24388, Note_on_c, 7, 57, 0
1, 24392, Note_on_c, 12, 57, 0
1, 24414, Note_on_c, 1, 30, 0
1, 24426, Note_on_c, 7, 56, 98
1, 24430, Note_on_c, 0, 57, 0
1, 24431, Note_on_c, 0, 56, 105
1, 24431, Note_on_c, 1, 30, 113
1, 24433, Note_on_c, 9, 42, 57
1, 24434, Note_on_c, 9, 42, 0
1, 24436, Note_on_c, 7, 56, 0
1, 24446, Note_on_c, 6, 73, 0
1, 24448, Note_on_c, 6, 69, 0
1, 24458, Note_on_c, 1, 30, 0
1, 24474, Note_on_c, 7, 49, 91
1, 24479, Note_on_c, 0, 49, 98
1, 24479, Note_on_c, 1, 30, 121
1, 24480, Note_on_c, 4, 64, 0
1, 24480, Note_on_c, 12, 64, 0
1, 24480, Note_on_c, 4, 62, 75
1, 24480, Note_on_c, 5, 74, 95
1, 24480, Note_on_c, 9, 40, 118
1, 24480, Note_on_c, 12, 62, 90
1, 24481, Note_on_c, 9, 40, 0
1, 24481, Note_on_c, 6, 69, 108
1, 24481, Note_on_c, 6, 73, 113
1, 24481, Note_on_c, 9, 42, 92
1, 24482, Note_on_c, 9, 42, 0
1, 24484, Note_on_c, 5, 76, 0
1, 24484, Note_on_c, 7, 49, 0
1, 24511, Note_on_c, 1, 30, 0
1, 24518, Note_on_c, 0, 56, 0
1, 24522, Note_on_c, 7, 56, 100
1, 24524, Note_on_c, 0, 49, 0
1, 24527, Note_on_c, 5, 74, 0
1, 24527, Note_on_c, 0, 56, 107
1, 24527, Note_on_c, 1, 30, 114
1, 24528, Note_on_c, 4, 62, 0
1, 24528, Note_on_c, 4, 61, 84
1, 24528, Note_on_c, 5, 73, 100
1, 24528, Note_on_c, 12, 61, 106
1, 24529, Note_on_c, 9, 42, 47
1, 24530, Note_on_c, 9, 42, 0
1, 24531, Note_on_c, 12, 62, 0
1, 24532, Note_on_c, 7, 56, 0
1, 24547, Note_on_c, 1, 30, 0
1, 24554, Note_on_c, 0, 42, 0
1, 24571, Note_on_c, 7, 50, 117
1, 24572, Note_on_c, 0, 56, 0
1, 24575, Note_on_c, 11, 64, 0
1, 24575, Note_on_c, 11, 69, 0
1, 24575, Note_on_c, 12, 61, 0
1, 24576, Note_on_c, 0, 50, 124
1, 24576, Note_on_c, 9, 36, 108
1, 24576, Note_on_c, 11, 64, 67
1, 24576, Note_on_c, 11, 69, 67
1, 24576, Note_on_c, 12, 57, 120
1, 24577, Note_on_c, 9, 36, 0
1, 24577, Note_on_c, 1, 38, 121
1, 24577, Note_on_c, 9, 42, 107
1, 24578, Note_on_c, 9, 42, 0
1, 24581, Note_on_c, 7, 50, 0
1, 24581, Note_on_c, 4, 61, 0
1, 24581, Note_on_c, 5, 73, 0
1, 24603, Note_on_c, 1, 38, 0
1, 24618, Note_on_c, 7, 57, 78
1, 24623, Note_on_c, 0, 57, 85
1, 24623, Note_on_c, 1, 38, 110
1, 24625, Note_on_c, 9, 42, 55
1, 24626, Note_on_c, 9, 42, 0
1, 24628, Note_on_c, 7, 57, 0
1, 24635, Note_on_c, 6, 73, 0
1, 24639, Note_on_c, 6, 69, 0
1, 24656, Note_on_c, 1, 38, 0
1, 24666, Note_on_c, 7, 64, 101
1, 24670, Note_on_c, 6, 73, 113
1, 24670, Note_on_c, 6, 69, 112
1, 24671, Note_on_c, 0, 64, 108
1, 24671, Note_on_c, 9, 42, 96
1, 24672, Note_on_c, 9, 42, 0
1, 24672, Note_on_c, 1, 38, 121
1, 24672, Note_on_c, 9, 40, 118
1, 24673, Note_on_c, 9, 40, 0
1, 24676, Note_on_c, 7, 64, 0
1, 24705, Note_on_c, 1, 38, 0
1, 24714, Note_on_c, 7, 57, 90
1, 24715, Note_on_c, 7, 50, 94
1, 24718, Note_on_c, 0, 57, 0
1, 24719, Note_on_c, 0, 50, 0
1, 24719, Note_on_c, 0, 57, 97
1, 24720, Note_on_c, 0, 50, 101
1, 24720, Note_on_c, 4, 64, 85
1, 24720, Note_on_c, 5, 76, 103
1, 24720, Note_on_c, 9, 36, 81
1, 24721, Note_on_c, 9, 36, 0
1, 24721, Note_on_c, 1, 38, 102
1, 24721, Note_on_c, 9, 42, 57
1, 24722, Note_on_c, 9, 42, 0
1, 24724, Note_on_c, 7, 57, 0
1, 24725, Note_on_c, 7, 50, 0
1, 24742, Note_on_c, 0, 64, 0
1, 24749, Note_on_c, 1, 38, 0
1, 24762, Note_on_c, 7, 62, 101
1, 24767, Note_on_c, 0, 62, 108
1, 24767, Note_on_c, 1, 38, 121
1, 24768, Note_on_c, 9, 36, 111
1, 24769, Note_on_c, 9, 36, 0
1, 24769, Note_on_c, 9, 42, 96
1, 24769, Note_on_c, 12, 64, 94
1, 24770, Note_on_c, 9, 42, 0
1, 24772, Note_on_c, 7, 62, 0
1, 24782, Note_on_c, 12, 57, 0
1, 24798, Note_on_c, 1, 38, 0
1, 24808, Note_on_c, 0, 57, 0
1, 24810, Note_on_c, 7, 57, 98
1, 24815, Note_on_c, 0, 57, 105
1, 24815, Note_on_c, 1, 38, 102
1, 24817, Note_on_c, 9, 42, 57
1, 24818, Note_on_c, 9, 42, 0
1, 24820, Note_on_c, 7, 57, 0
1, 24828, Note_on_c, 6, 73, 0
1, 24832, Note_on_c, 6, 69, 0
1, 24838, Note_on_c, 0, 62, 0
1, 24845, Note_on_c, 1, 38, 0
1, 24859, Note_on_c, 7, 62, 72
1, 24859, Note_on_c, 7, 50, 91
1, 24863, Note_on_c, 5, 76, 0
1, 24863, Note_on_c, 0, 50, 0
1, 24863, Note_on_c, 1, 38, 121
1, 24864, Note_on_c, 4, 64, 0
1, 24864, Note_on_c, 12, 64, 0
1, 24864, Note_on_c, 0, 62, 79
1, 24864, Note_on_c, 0, 50, 98
1, 24864, Note_on_c, 4, 62, 78
1, 24864, Note_on_c, 5, 74, 93
1, 24864, Note_on_c, 9, 40, 118
1, 24864, Note_on_c, 9, 42, 90
1, 24864, Note_on_c, 12, 62, 95
1, 24865, Note_on_c, 9, 42, 0
1, 24865, Note_on_c, 9, 40, 0
1, 24867, Note_on_c, 6, 73, 116
1, 24867, Note_on_c, 6, 69, 110
1, 24869, Note_on_c, 7, 62, 0
1, 24869, Note_on_c, 7, 50, 0
1, 24886, Note_on_c, 0, 57, 0
1, 24892, Note_on_c, 1, 38, 0
1, 24906, Note_on_c, 7, 57, 100
1, 24911, Note_on_c, 5, 74, 0
1, 24911, Note_on_c, 0, 57, 107
1, 24911, Note_on_c, 1, 40, 117
1, 24912, Note_on_c, 4, 62, 0
1, 24912, Note_on_c, 4, 61, 69
1, 24912, Note_on_c, 5, 73, 92
1, 24912, Note_on_c, 12, 61, 110
1, 24913, Note_on_c, 9, 42, 42
1, 24914, Note_on_c, 9, 42, 0
1, 24916, Note_on_c, 7, 57, 0
1, 24918, Note_on_c, 12, 62, 0
1, 24935, Note_on_c, 0, 62, 0
1, 24949, Note_on_c, 1, 40, 0
1, 24955, Note_on_c, 7, 52, 117
1, 24956, Note_on_c, 0, 57, 0
1, 24959, Note_on_c, 0, 50, 0
1, 24959, Note_on_c, 12, 61, 0
1, 24960, Note_on_c, 0, 52, 114
1, 24960, Note_on_c, 1, 40, 114
1, 24960, Note_on_c, 9, 42, 107
1, 24960, Note_on_c, 9, 36, 111
1, 24960, Note_on_c, 12, 57, 114
1, 24961, Note_on_c, 9, 36, 0
1, 24961, Note_on_c, 9, 42, 0
1, 24965, Note_on_c, 7, 52, 0
1, 24968, Note_on_c, 5, 73, 0
1, 24968, Note_on_c, 4, 61, 0
1, 24989, Note_on_c, 1, 40, 0
1, 25002, Note_on_c, 7, 59, 78
1, 25007, Note_on_c, 0, 59, 85
1, 25007, Note_on_c, 1, 40, 114
1, 25009, Note_on_c, 9, 42, 66
1, 25010, Note_on_c, 9, 42, 0
1, 25012, Note_on_c, 7, 59, 0
1, 25020, Note_on_c, 6, 73, 0
1, 25024, Note_on_c, 6, 69, 0
1, 25036, Note_on_c, 1, 40, 0
1, 25050, Note_on_c, 7, 66, 108
1, 25055, Note_on_c, 0, 66, 97
1, 25055, Note_on_c, 1, 40, 104
1, 25056, Note_on_c, 9, 40, 118
1, 25057, Note_on_c, 9, 40, 0
1, 25057, Note_on_c, 9, 42, 95
1, 25058, Note_on_c, 9, 42, 0
1, 25058, Note_on_c, 6, 73, 119
1, 25058, Note_on_c, 6, 69, 112
1, 25060, Note_on_c, 7, 66, 0
1, 25078, Note_on_c, 0, 59, 0
1, 25086, Note_on_c, 1, 40, 0
1, 25098, Note_on_c, 7, 59, 90
1, 25099, Note_on_c, 7, 52, 95
1, 25101, Note_on_c, 0, 52, 0
1, 25103, Note_on_c, 0, 59, 97
1, 25103, Note_on_c, 1, 40, 110
1, 25103, Note_on_c, 9, 42, 54
1, 25104, Note_on_c, 9, 42, 0
1, 25104, Note_on_c, 0, 52, 102
1, 25104, Note_on_c, 4, 64, 76
1, 25104, Note_on_c, 5, 76, 99
1, 25104, Note_on_c, 9, 36, 76
1, 25105, Note_on_c, 9, 36, 0
1, 25108, Note_on_c, 7, 59, 0
1, 25109, Note_on_c, 7, 52, 0
1, 25126, Note_on_c, 0, 66, 0
1, 25132, Note_on_c, 1, 40, 0
1, 25146, Note_on_c, 7, 64, 101
1, 25149, Note_on_c, 12, 57, 0
1, 25149, Note_on_c, 12, 64, 114
1, 25151, Note_on_c, 0, 64, 108
1, 25151, Note_on_c, 1, 40, 110
1, 25152, Note_on_c, 9, 42, 92
1, 25152, Note_on_c, 9, 36, 110
1, 25153, Note_on_c, 9, 36, 0
1, 25153, Note_on_c, 9, 42, 0
1, 25156, Note_on_c, 7, 64, 0
1, 25174, Note_on_c, 0, 59, 0
1, 25184, Note_on_c, 1, 40, 0
1, 25194, Note_on_c, 7, 59, 98
1, 25199, Note_on_c, 0, 59, 99
1, 25199, Note_on_c, 1, 40, 98
1, 25199, Note_on_c, 9, 42, 46
1, 25200, Note_on_c, 9, 42, 0
1, 25204, Note_on_c, 7, 59, 0
1, 25209, Note_on_c, 6, 73, 0
1, 25212, Note_on_c, 6, 69, 0
1, 25222, Note_on_c, 0, 64, 0
1, 25232, Note_on_c, 1, 40, 0
1, 25239, Note_on_c, 0, 52, 0
1, 25242, Note_on_c, 7, 52, 91
1, 25247, Note_on_c, 5, 76, 0
1, 25247, Note_on_c, 0, 52, 89
1, 25247, Note_on_c, 1, 40, 112
1, 25247, Note_on_c, 6, 73, 116
1, 25247, Note_on_c, 6, 69, 110
1, 25247, Note_on_c, 9, 42, 90
1, 25247, Note_on_c, 12, 62, 106
1, 25248, Note_on_c, 9, 42, 0
1, 25248, Note_on_c, 4, 64, 0
1, 25248, Note_on_c, 4, 62, 79
1, 25248, Note_on_c, 5, 74, 102
1, 25248, Note_on_c, 9, 40, 118
1, 25249, Note_on_c, 9, 40, 0
1, 25252, Note_on_c, 7, 52, 0
1, 25259, Note_on_c, 12, 64, 0
1, 25280, Note_on_c, 1, 40, 0
1, 25290, Note_on_c, 12, 62, 0
1, 25290, Note_on_c, 7, 64, 100
1, 25292, Note_on_c, 0, 52, 0
1, 25293, Note_on_c, 12, 61, 107
1, 25295, Note_on_c, 0, 64, 85
1, 25295, Note_on_c, 1, 40, 108
1, 25296, Note_on_c, 4, 62, 0
1, 25296, Note_on_c, 4, 61, 79
1, 25296, Note_on_c, 5, 73, 99
1, 25296, Note_on_c, 9, 42, 51
1, 25297, Note_on_c, 9, 42, 0
1, 25299, Note_on_c, 5, 74, 0
1, 25300, Note_on_c, 7, 64, 0
1, 25325, Note_on_c, 1, 40, 0
1, 25338, Note_on_c, 12, 61, 0
1, 25339, Note_on_c, 7, 45, 117
1, 25342, Note_on_c, 0, 59, 0
1, 25342, Note_on_c, 0, 64, 0
1, 25342, Note_on_c, 12, 57, 114
1, 25343, Note_on_c, 1, 33, 114
1, 25344, Note_on_c, 0, 45, 124
1, 25344, Note_on_c, 9, 36, 111
1, 25345, Note_on_c, 9, 36, 0
1, 25345, Note_on_c, 5, 73, 0
1, 25345, Note_on_c, 9, 42, 107
1, 25346, Note_on_c, 9, 42, 0
1, 25349, Note_on_c, 7, 45, 0
1, 25353, Note_on_c, 4, 61, 0
1, 25368, Note_on_c, 1, 33, 0
1, 25386, Note_on_c, 7, 52, 78
1, 25391, Note_on_c, 0, 52, 85
1, 25391, Note_on_c, 1, 33, 110
1, 25392, Note_on_c, 9, 42, 58
1, 25393, Note_on_c, 9, 42, 0
1, 25396, Note_on_c, 7, 52, 0
1, 25407, Note_on_c, 6, 73, 0
1, 25410, Note_on_c, 6, 69, 0
1, 25424, Note_on_c, 1, 33, 0
1, 25434, Note_on_c, 7, 59, 108
1, 25439, Note_on_c, 0, 59, 115
1, 25440, Note_on_c, 1, 33, 118
1, 25440, Note_on_c, 9, 40, 118
1, 25440, Note_on_c, 9, 42, 86
1, 25441, Note_on_c, 9, 42, 0
1, 25441, Note_on_c, 9, 40, 0
1, 25443, Note_on_c, 6, 69, 108
1, 25443, Note_on_c, 6, 73, 116
1, 25444, Note_on_c, 7, 59, 0
1, 25462, Note_on_c, 0, 52, 0
1, 25473, Note_on_c, 1, 33, 0
1, 25482, Note_on_c, 7, 52, 90
1, 25486, Note_on_c, 0, 59, 0
1, 25487, Note_on_c, 0, 52, 97
1, 25488, Note_on_c, 1, 33, 104
1, 25488, Note_on_c, 9, 42, 63
1, 25488, Note_on_c, 9, 36, 75
1, 25489, Note_on_c, 9, 36, 0
1, 25489, Note_on_c, 9, 42, 0
1, 25490, Note_on_c, 4, 64, 79
1, 25490, Note_on_c, 5, 76, 103
1, 25492, Note_on_c, 7, 52, 0
1, 25519, Note_on_c, 1, 33, 0
1, 25530, Note_on_c, 7, 61, 101
1, 25535, Note_on_c, 0, 61, 108
1, 25536, Note_on_c, 1, 33, 121
1, 25536, Note_on_c, 9, 36, 111
1, 25536, Note_on_c, 12, 64, 112
1, 25537, Note_on_c, 9, 36, 0
1, 25537, Note_on_c, 9, 42, 92
1, 25538, Note_on_c, 9, 42, 0
1, 25539, Note_on_c, 12, 57, 0
1, 25540, Note_on_c, 7, 61, 0
1, 25565, Note_on_c, 1, 33, 0
1, 25578, Note_on_c, 7, 59, 98
1, 25582, Note_on_c, 0, 61, 0
1, 25583, Note_on_c, 0, 59, 105
1, 25583, Note_on_c, 1, 33, 104
1, 25585, Note_on_c, 9, 42, 46
1, 25586, Note_on_c, 9, 42, 0
1, 25588, Note_on_c, 7, 59, 0
1, 25596, Note_on_c, 6, 73, 0
1, 25598, Note_on_c, 6, 69, 0
1, 25606, Note_on_c, 0, 52, 0
1, 25610, Note_on_c, 1, 33, 0
1, 25625, Note_on_c, 12, 62, 91
1, 25626, Note_on_c, 7, 52, 91
1, 25630, Note_on_c, 6, 73, 113
1, 25630, Note_on_c, 6, 69, 110
1, 25631, Note_on_c, 0, 52, 98
1, 25632, Note_on_c, 4, 64, 0
1, 25632, Note_on_c, 1, 33, 121
1, 25632, Note_on_c, 4, 62, 75
1, 25632, Note_on_c, 5, 74, 96
1, 25632, Note_on_c, 9, 40, 118
1, 25633, Note_on_c, 9, 40, 0
1, 25633, Note_on_c, 5, 76, 0
1, 25633, Note_on_c, 9, 42, 98
1, 25634, Note_on_c, 9, 42, 0
1, 25636, Note_on_c, 7, 52, 0
1, 25640, Note_on_c, 12, 64, 0
1, 25662, Note_on_c, 1, 33, 0
1, 25673, Note_on_c, 0, 59, 0
1, 25674, Note_on_c, 7, 59, 100
1, 25677, Note_on_c, 12, 61, 110
1, 25678, Note_on_c, 12, 62, 0
1, 25679, Note_on_c, 5, 74, 0
1, 25679, Note_on_c, 0, 59, 107
1, 25679, Note_on_c, 1, 33, 112
1, 25679, Note_on_c, 9, 42, 56
1, 25680, Note_on_c, 9, 42, 0
1, 25680, Note_on_c, 4, 62, 0
1, 25680, Note_on_c, 4, 61, 76
1, 25680, Note_on_c, 5, 73, 97
1, 25684, Note_on_c, 7, 59, 0
1, 25702, Note_on_c, 0, 52, 0
1, 25705, Note_on_c, 1, 33, 0
1, 25706, Note_on_c, 0, 45, 0
1, 25722, Note_on_c, 12, 61, 0
1, 25723, Note_on_c, 7, 45, 117
1, 25724, Note_on_c, 0, 59, 0
1, 25724, Note_on_c, 12, 57, 95
1, 25727, Note_on_c, 4, 61, 0
1, 25727, Note_on_c, 5, 73, 0
1, 25728, Note_on_c, 0, 45, 124
1, 25728, Note_on_c, 1, 33, 121
1, 25728, Note_on_c, 9, 36, 115
1, 25729, Note_on_c, 9, 36, 0
1, 25729, Note_on_c, 9, 42, 107
1, 25730, Note_on_c, 9, 42, 0
1, 25733, Note_on_c, 7, 45, 0
1, 25756, Note_on_c, 1, 33, 0
1, 25770, Note_on_c, 7, 52, 78
1, 25775, Note_on_c, 0, 52, 85
1, 25777, Note_on_c, 1, 33, 102
1, 25777, Note_on_c, 9, 42, 52
1, 25778, Note_on_c, 9, 42, 0
1, 25780, Note_on_c, 7, 52, 0
1, 25788, Note_on_c, 6, 73, 0
1, 25791, Note_on_c, 6, 69, 0
1, 25804, Note_on_c, 1, 33, 0
1, 25818, Note_on_c, 7, 59, 108
1, 25821, Note_on_c, 9, 40, 116
1, 25822, Note_on_c, 9, 40, 0
1, 25822, Note_on_c, 6, 73, 113
1, 25822, Note_on_c, 6, 69, 108
1, 25823, Note_on_c, 0, 59, 115
1, 25824, Note_on_c, 1, 33, 121
1, 25824, Note_on_c, 3, 69, 117
1, 25824, Note_on_c, 9, 40, 118
1, 25824, Note_on_c, 9, 42, 90
1, 25825, Note_on_c, 9, 42, 0
1, 25825, Note_on_c, 9, 40, 0
1, 25828, Note_on_c, 7, 59, 0
1, 25846, Note_on_c, 0, 52, 0
1, 25855, Note_on_c, 1, 33, 0
1, 25866, Note_on_c, 7, 52, 90
1, 25868, Note_on_c, 0, 59, 0
1, 25871, Note_on_c, 0, 52, 97
1, 25872, Note_on_c, 1, 33, 101
1, 25872, Note_on_c, 9, 36, 73
1, 25873, Note_on_c, 9, 36, 0
1, 25873, Note_on_c, 9, 42, 49
1, 25874, Note_on_c, 9, 42, 0
1, 25876, Note_on_c, 7, 52, 0
1, 25901, Note_on_c, 1, 33, 0
1, 25914, Note_on_c, 7, 61, 101
1, 25915, Note_on_c, 12, 57, 0
1, 25915, Note_on_c, 3, 73, 117
1, 25916, Note_on_c, 12, 64, 92
1, 25919, Note_on_c, 3, 69, 0
1, 25919, Note_on_c, 0, 61, 108
1, 25919, Note_on_c, 1, 33, 121
1, 25920, Note_on_c, 9, 36, 109
1, 25921, Note_on_c, 9, 36, 0
1, 25921, Note_on_c, 9, 42, 98
1, 25922, Note_on_c, 9, 42, 0
1, 25924, Note_on_c, 7, 61, 0
1, 25949, Note_on_c, 1, 33, 0
1, 25962, Note_on_c, 7, 59, 98
1, 25966, Note_on_c, 0, 52, 0
1, 25966, Note_on_c, 0, 61, 0
1, 25967, Note_on_c, 0, 59, 105
1, 25967, Note_on_c, 9, 42, 49
1, 25968, Note_on_c, 9, 42, 0
1, 25968, Note_on_c, 9, 36, 109
1, 25969, Note_on_c, 9, 36, 0
1, 25969, Note_on_c, 1, 33, 106
1, 25972, Note_on_c, 7, 59, 0
1, 25975, Note_on_c, 6, 73, 0
1, 25976, Note_on_c, 6, 69, 0
1, 25996, Note_on_c, 1, 33, 0
1, 26010, Note_on_c, 3, 73, 0
1, 26010, Note_on_c, 7, 52, 91
1, 26012, Note_on_c, 12, 62, 86
1, 26014, Note_on_c, 3, 76, 117
1, 26015, Note_on_c, 0, 52, 98
1, 26016, Note_on_c, 1, 33, 112
1, 26016, Note_on_c, 6, 73, 113
1, 26016, Note_on_c, 6, 69, 108
1, 26016, Note_on_c, 9, 40, 118
1, 26017, Note_on_c, 9, 40, 0
1, 26017, Note_on_c, 9, 57, 90
1, 26018, Note_on_c, 9, 57, 0
1, 26020, Note_on_c, 7, 52, 0
1, 26023, Note_on_c, 12, 64, 0
1, 26039, Note_on_c, 1, 33, 0
1, 26054, Note_on_c, 0, 59, 0
1, 26058, Note_on_c, 3, 76, 0
1, 26058, Note_on_c, 7, 59, 100
1, 26058, Note_on_c, 12, 61, 91
1, 26060, Note_on_c, 0, 52, 0
1, 26060, Note_on_c, 12, 62, 0
1, 26062, Note_on_c, 3, 74, 115
1, 26063, Note_on_c, 0, 59, 107
1, 26063, Note_on_c, 1, 37, 120
1, 26068, Note_on_c, 7, 59, 0
1, 26079, Note_on_c, 11, 64, 0
1, 26088, Note_on_c, 11, 69, 0
1, 26089, Note_on_c, 12, 61, 0
1, 26090, Note_on_c, 0, 45, 0
1, 26098, Note_on_c, 1, 37, 0
1, 26106, Note_on_c, 6, 73, 0
1, 26107, Note_on_c, 7, 50, 117
1, 26108, Note_on_c, 0, 59, 0
1, 26111, Note_on_c, 6, 69, 0
1, 26112, Note_on_c, 0, 50, 124
1, 26112, Note_on_c, 1, 38, 118
1, 26112, Note_on_c, 9, 36, 112
1, 26112, Note_on_c, 11, 66, 70
1, 26112, Note_on_c, 11, 62, 70
1, 26112, Note_on_c, 11, 64, 70
1, 26112, Note_on_c, 11, 69, 70
1, 26113, Note_on_c, 9, 36, 0
1, 26113, Note_on_c, 9, 42, 109
1, 26114, Note_on_c, 9, 42, 0
1, 26117, Note_on_c, 7, 50, 0
1, 26140, Note_on_c, 1, 38, 0
1, 26154, Note_on_c, 7, 57, 78
1, 26159, Note_on_c, 0, 57, 85
1, 26159, Note_on_c, 1, 38, 101
1, 26161, Note_on_c, 3, 74, 0
1, 26161, Note_on_c, 9, 42, 39
1, 26162, Note_on_c, 9, 42, 0
1, 26164, Note_on_c, 7, 57, 0
1, 26165, Note_on_c, 3, 78, 114
1, 26172, Note_on_c, 12, 69, 102
1, 26191, Note_on_c, 1, 38, 0
1, 26202, Note_on_c, 7, 64, 108
1, 26207, Note_on_c, 0, 64, 115
1, 26207, Note_on_c, 1, 38, 112
1, 26208, Note_on_c, 9, 40, 118
1, 26209, Note_on_c, 9, 40, 0
1, 26209, Note_on_c, 9, 42, 95
1, 26210, Note_on_c, 9, 42, 0
1, 26212, Note_on_c, 7, 64, 0
1, 26230, Note_on_c, 0, 57, 0
1, 26236, Note_on_c, 12, 69, 0
1, 26238, Note_on_c, 1, 38, 0
1, 26243, Note_on_c, 12, 69, 83
1, 26250, Note_on_c, 7, 57, 90
1, 26255, Note_on_c, 0, 57, 97
1, 26256, Note_on_c, 9, 36, 81
1, 26257, Note_on_c, 9, 36, 0
1, 26257, Note_on_c, 1, 38, 108
1, 26257, Note_on_c, 9, 42, 52
1, 26258, Note_on_c, 9, 42, 0
1, 26260, Note_on_c, 7, 57, 0
1, 26285, Note_on_c, 1, 38, 0
1, 26289, Note_on_c, 12, 69, 0
1, 26298, Note_on_c, 7, 62, 101
1, 26302, Note_on_c, 0, 64, 0
1, 26303, Note_on_c, 0, 62, 108
1, 26303, Note_on_c, 1, 38, 116
1, 26303, Note_on_c, 9, 42, 95
1, 26304, Note_on_c, 9, 42, 0
1, 26304, Note_on_c, 9, 36, 109
1, 26305, Note_on_c, 9, 36, 0
1, 26306, Note_on_c, 12, 69, 97
1, 26308, Note_on_c, 7, 62, 0
1, 26332, Note_on_c, 1, 38, 0
1, 26346, Note_on_c, 7, 57, 98
1, 26350, Note_on_c, 0, 57, 0
1, 26350, Note_on_c, 0, 62, 0
1, 26351, Note_on_c, 0, 57, 105
1, 26351, Note_on_c, 1, 38, 104
1, 26351, Note_on_c, 9, 42, 63
1, 26352, Note_on_c, 9, 42, 0
1, 26356, Note_on_c, 7, 57, 0
1, 26362, Note_on_c, 12, 69, 0
1, 26376, Note_on_c, 12, 69, 98
1, 26381, Note_on_c, 1, 38, 0
1, 26391, Note_on_c, 0, 50, 0
1, 26395, Note_on_c, 7, 50, 91
1, 26399, Note_on_c, 0, 50, 98
1, 26399, Note_on_c, 1, 38, 118
1, 26399, Note_on_c, 9, 42, 98
1, 26400, Note_on_c, 9, 42, 0
1, 26400, Note_on_c, 9, 40, 118
1, 26401, Note_on_c, 9, 40, 0
1, 26405, Note_on_c, 7, 50, 0
1, 26424, Note_on_c, 1, 38, 0
1, 26434, Note_on_c, 12, 69, 0
1, 26441, Note_on_c, 0, 57, 0
1, 26442, Note_on_c, 7, 50, 100
1, 26446, Note_on_c, 0, 50, 0
1, 26446, Note_on_c, 12, 69, 94
1, 26447, Note_on_c, 0, 50, 107
1, 26447, Note_on_c, 1, 38, 99
1, 26447, Note_on_c, 9, 42, 54
1, 26448, Note_on_c, 9, 42, 0
1, 26451, Note_on_c, 3, 78, 0
1, 26452, Note_on_c, 7, 50, 0
1, 26475, Note_on_c, 1, 38, 0
1, 26491, Note_on_c, 7, 50, 117
1, 26492, Note_on_c, 0, 50, 0
1, 26495, Note_on_c, 1, 36, 116
1, 26495, Note_on_c, 9, 42, 110
1, 26496, Note_on_c, 9, 42, 0
1, 26496, Note_on_c, 0, 50, 77
1, 26496, Note_on_c, 9, 36, 112
1, 26497, Note_on_c, 9, 36, 0
1, 26501, Note_on_c, 7, 50, 0
1, 26514, Note_on_c, 12, 69, 0
1, 26524, Note_on_c, 1, 36, 0
1, 26527, Note_on_c, 12, 69, 98
1, 26538, Note_on_c, 7, 57, 78
1, 26543, Note_on_c, 0, 57, 85
1, 26543, Note_on_c, 1, 36, 114
1, 26543, Note_on_c, 9, 42, 58
1, 26544, Note_on_c, 9, 42, 0
1, 26544, Note_on_c, 12, 66, 63
1, 26548, Note_on_c, 7, 57, 0
1, 26574, Note_on_c, 1, 36, 0
1, 26584, Note_on_c, 12, 69, 0
1, 26586, Note_on_c, 7, 62, 108
1, 26591, Note_on_c, 0, 62, 115
1, 26591, Note_on_c, 1, 36, 108
1, 26591, Note_on_c, 9, 42, 95
1, 26592, Note_on_c, 9, 42, 0
1, 26592, Note_on_c, 9, 40, 118
1, 26593, Note_on_c, 9, 40, 0
1, 26594, Note_on_c, 3, 78, 117
1, 26596, Note_on_c, 7, 62, 0
1, 26598, Note_on_c, 12, 69, 102
1, 26614, Note_on_c, 0, 57, 0
1, 26625, Note_on_c, 1, 36, 0
1, 26634, Note_on_c, 7, 57, 90
1, 26636, Note_on_c, 0, 62, 0
1, 26639, Note_on_c, 12, 66, 0
1, 26639, Note_on_c, 0, 50, 0
1, 26639, Note_on_c, 1, 36, 118
1, 26640, Note_on_c, 3, 78, 0
1, 26640, Note_on_c, 0, 50, 97
1, 26640, Note_on_c, 9, 42, 51
1, 26640, Note_on_c, 9, 36, 79
1, 26641, Note_on_c, 9, 36, 0
1, 26641, Note_on_c, 9, 42, 0
1, 26644, Note_on_c, 7, 57, 0
1, 26646, Note_on_c, 3, 78, 102
1, 26662, Note_on_c, 12, 69, 0
1, 26668, Note_on_c, 1, 36, 0
1, 26674, Note_on_c, 12, 69, 91
1, 26682, Note_on_c, 7, 60, 101
1, 26687, Note_on_c, 0, 60, 108
1, 26687, Note_on_c, 1, 36, 110
1, 26687, Note_on_c, 9, 42, 96
1, 26688, Note_on_c, 9, 42, 0
1, 26688, Note_on_c, 3, 76, 111
1, 26688, Note_on_c, 9, 36, 111
1, 26689, Note_on_c, 9, 36, 0
1, 26692, Note_on_c, 7, 60, 0
1, 26693, Note_on_c, 3, 78, 0
1, 26717, Note_on_c, 1, 36, 0
1, 26730, Note_on_c, 7, 57, 98
1, 26733, Note_on_c, 12, 69, 0
1, 26734, Note_on_c, 0, 60, 0
1, 26735, Note_on_c, 0, 57, 105
1, 26735, Note_on_c, 1, 36, 114
1, 26736, Note_on_c, 9, 42, 56
1, 26737, Note_on_c, 9, 42, 0
1, 26740, Note_on_c, 7, 57, 0
1, 26744, Note_on_c, 12, 69, 91
1, 26766, Note_on_c, 1, 36, 0
1, 26775, Note_on_c, 0, 50, 0
1, 26778, Note_on_c, 7, 50, 91
1, 26783, Note_on_c, 0, 50, 98
1, 26784, Note_on_c, 9, 40, 118
1, 26784, Note_on_c, 9, 42, 90
1, 26785, Note_on_c, 9, 42, 0
1, 26785, Note_on_c, 9, 40, 0
1, 26785, Note_on_c, 1, 36, 106
1, 26788, Note_on_c, 7, 50, 0
1, 26809, Note_on_c, 3, 76, 0
1, 26809, Note_on_c, 12, 69, 0
1, 26814, Note_on_c, 1, 36, 0
1, 26820, Note_on_c, 12, 69, 88
1, 26822, Note_on_c, 0, 57, 0
1, 26822, Note_on_c, 3, 69, 106
1, 26826, Note_on_c, 7, 57, 100
1, 26831, Note_on_c, 0, 57, 95
1, 26831, Note_on_c, 1, 37, 117
1, 26832, Note_on_c, 9, 42, 52
1, 26832, Note_on_c, 12, 66, 64
1, 26833, Note_on_c, 9, 42, 0
1, 26836, Note_on_c, 7, 57, 0
1, 26867, Note_on_c, 1, 37, 0
1, 26875, Note_on_c, 12, 69, 0
1, 26875, Note_on_c, 7, 45, 117
1, 26876, Note_on_c, 0, 57, 0
1, 26878, Note_on_c, 0, 50, 0
1, 26879, Note_on_c, 11, 66, 0
1, 26879, Note_on_c, 11, 64, 0
1, 26879, Note_on_c, 11, 62, 0
1, 26879, Note_on_c, 11, 69, 0
1, 26879, Note_on_c, 1, 33, 110
1, 26880, Note_on_c, 0, 45, 124
1, 26880, Note_on_c, 9, 42, 114
1, 26880, Note_on_c, 9, 36, 112
1, 26880, Note_on_c, 11, 64, 73
1, 26880, Note_on_c, 11, 69, 73
1, 26881, Note_on_c, 9, 36, 0
1, 26881, Note_on_c, 9, 42, 0
1, 26885, Note_on_c, 7, 45, 0
1, 26887, Note_on_c, 12, 69, 90
1, 26914, Note_on_c, 1, 33, 0
1, 26922, Note_on_c, 7, 52, 78
1, 26927, Note_on_c, 12, 66, 0
1, 26927, Note_on_c, 0, 52, 85
1, 26928, Note_on_c, 1, 33, 114
1, 26929, Note_on_c, 9, 42, 58
1, 26930, Note_on_c, 9, 42, 0
1, 26932, Note_on_c, 7, 52, 0
1, 26936, Note_on_c, 3, 69, 0
1, 26936, Note_on_c, 3, 73, 115
1, 26944, Note_on_c, 12, 69, 0
1, 26955, Note_on_c, 12, 69, 90
1, 26958, Note_on_c, 1, 33, 0
1, 26970, Note_on_c, 7, 59, 108
1, 26975, Note_on_c, 0, 59, 115
1, 26976, Note_on_c, 1, 33, 110
1, 26976, Note_on_c, 9, 40, 118
1, 26977, Note_on_c, 9, 40, 0
1, 26977, Note_on_c, 9, 42, 92
1, 26978, Note_on_c, 9, 42, 0
1, 26980, Note_on_c, 7, 59, 0
1, 26998, Note_on_c, 0, 52, 0
1, 27006, Note_on_c, 1, 33, 0
1, 27009, Note_on_c, 12, 69, 0
1, 27018, Note_on_c, 7, 52, 90
1, 27022, Note_on_c, 0, 59, 0
1, 27023, Note_on_c, 0, 52, 97
1, 27024, Note_on_c, 9, 36, 75
1, 27025, Note_on_c, 9, 36, 0
1, 27025, Note_on_c, 1, 33, 116
1, 27025, Note_on_c, 9, 42, 55
1, 27025, Note_on_c, 12, 69, 90
1, 27026, Note_on_c, 9, 42, 0
1, 27028, Note_on_c, 7, 52, 0
1, 27053, Note_on_c, 1, 33, 0
1, 27066, Note_on_c, 7, 61, 101
1, 27071, Note_on_c, 0, 61, 108
1, 27071, Note_on_c, 1, 33, 108
1, 27072, Note_on_c, 9, 36, 112
1, 27073, Note_on_c, 9, 36, 0
1, 27073, Note_on_c, 9, 42, 90
1, 27074, Note_on_c, 9, 42, 0
1, 27076, Note_on_c, 7, 61, 0
1, 27089, Note_on_c, 12, 69, 0
1, 27100, Note_on_c, 1, 33, 0
1, 27102, Note_on_c, 12, 69, 79
1, 27114, Note_on_c, 7, 59, 98
1, 27118, Note_on_c, 0, 61, 0
1, 27119, Note_on_c, 0, 59, 105
1, 27119, Note_on_c, 9, 42, 58
1, 27120, Note_on_c, 9, 42, 0
1, 27121, Note_on_c, 1, 33, 121
1, 27124, Note_on_c, 7, 59, 0
1, 27142, Note_on_c, 0, 52, 0
1, 27149, Note_on_c, 1, 33, 0
1, 27158, Note_on_c, 12, 69, 0
1, 27162, Note_on_c, 7, 52, 91
1, 27167, Note_on_c, 0, 52, 98
1, 27167, Note_on_c, 9, 42, 80
1, 27168, Note_on_c, 9, 42, 0
1, 27168, Note_on_c, 9, 40, 118
1, 27169, Note_on_c, 9, 40, 0
1, 27169, Note_on_c, 1, 33, 116
1, 27172, Note_on_c, 7, 52, 0
1, 27174, Note_on_c, 12, 69, 84
1, 27178, Note_on_c, 3, 73, 0
1, 27195, Note_on_c, 1, 33, 0
1, 27209, Note_on_c, 0, 59, 0
1, 27210, Note_on_c, 7, 59, 100
1, 27215, Note_on_c, 0, 59, 107
1, 27215, Note_on_c, 9, 42, 52
1, 27216, Note_on_c, 9, 42, 0
1, 27216, Note_on_c, 1, 33, 121
1, 27220, Note_on_c, 7, 59, 0
1, 27227, Note_on_c, 12, 69, 0
1, 27238, Note_on_c, 0, 52, 0
1, 27240, Note_on_c, 12, 69, 98
1, 27241, Note_on_c, 1, 33, 0
1, 27242, Note_on_c, 0, 45, 0
1, 27259, Note_on_c, 7, 45, 117
1, 27260, Note_on_c, 0, 59, 0
1, 27263, Note_on_c, 1, 33, 106
1, 27263, Note_on_c, 9, 42, 114
1, 27264, Note_on_c, 9, 42, 0
1, 27264, Note_on_c, 0, 45, 124
1, 27264, Note_on_c, 9, 36, 110
1, 27265, Note_on_c, 9, 36, 0
1, 27269, Note_on_c, 7, 45, 0
1, 27293, Note_on_c, 1, 33, 0
1, 27296, Note_on_c, 12, 69, 0
1, 27306, Note_on_c, 7, 52, 78
1, 27311, Note_on_c, 0, 52, 85
1, 27311, Note_on_c, 1, 33, 116
1, 27311, Note_on_c, 9, 42, 56
1, 27312, Note_on_c, 9, 42, 0
1, 27313, Note_on_c, 12, 69, 95
1, 27316, Note_on_c, 7, 52, 0
1, 27337, Note_on_c, 1, 33, 0
1, 27354, Note_on_c, 3, 81, 117
1, 27354, Note_on_c, 7, 59, 108
1, 27359, Note_on_c, 0, 59, 115
1, 27359, Note_on_c, 1, 33, 110
1, 27359, Note_on_c, 9, 42, 89
1, 27360, Note_on_c, 9, 42, 0
1, 27360, Note_on_c, 9, 40, 118
1, 27361, Note_on_c, 9, 40, 0
1, 27364, Note_on_c, 7, 59, 0
1, 27370, Note_on_c, 12, 69, 0
1, 27382, Note_on_c, 0, 52, 0
1, 27382, Note_on_c, 12, 69, 91
1, 27390, Note_on_c, 1, 33, 0
1, 27402, Note_on_c, 7, 52, 90
1, 27404, Note_on_c, 0, 59, 0
1, 27407, Note_on_c, 0, 52, 97
1, 27407, Note_on_c, 3, 78, 111
1, 27407, Note_on_c, 9, 42, 54
1, 27408, Note_on_c, 9, 42, 0
1, 27408, Note_on_c, 1, 33, 118
1, 27408, Note_on_c, 9, 36, 72
1, 27408, Note_on_c, 12, 66, 65
1, 27409, Note_on_c, 9, 36, 0
1, 27409, Note_on_c, 3, 81, 0
1, 27412, Note_on_c, 7, 52, 0
1, 27436, Note_on_c, 1, 33, 0
1, 27438, Note_on_c, 12, 69, 0
1, 27450, Note_on_c, 7, 61, 101
1, 27452, Note_on_c, 0, 52, 0
1, 27454, Note_on_c, 12, 69, 80
1, 27455, Note_on_c, 0, 61, 108
1, 27455, Note_on_c, 1, 33, 112
1, 27456, Note_on_c, 3, 81, 117
1, 27456, Note_on_c, 9, 36, 111
1, 27457, Note_on_c, 9, 36, 0
1, 27457, Note_on_c, 9, 42, 88
1, 27458, Note_on_c, 9, 42, 0
1, 27458, Note_on_c, 3, 78, 0
1, 27460, Note_on_c, 7, 61, 0
1, 27482, Note_on_c, 1, 33, 0
1, 27498, Note_on_c, 7, 59, 98
1, 27502, Note_on_c, 0, 61, 0
1, 27503, Note_on_c, 12, 66, 0
1, 27503, Note_on_c, 0, 59, 105
1, 27503, Note_on_c, 1, 33, 121
1, 27505, Note_on_c, 9, 42, 57
1, 27506, Note_on_c, 9, 42, 0
1, 27508, Note_on_c, 7, 59, 0
1, 27513, Note_on_c, 12, 69, 0
1, 27525, Note_on_c, 12, 69, 94
1, 27531, Note_on_c, 1, 33, 0
1, 27538, Note_on_c, 3, 81, 0
1, 27546, Note_on_c, 7, 52, 91
1, 27551, Note_on_c, 0, 52, 98
1, 27551, Note_on_c, 1, 33, 110
1, 27552, Note_on_c, 3, 81, 117
1, 27552, Note_on_c, 9, 40, 118
1, 27553, Note_on_c, 9, 40, 0
1, 27553, Note_on_c, 9, 42, 92
1, 27554, Note_on_c, 9, 42, 0
1, 27556, Note_on_c, 7, 52, 0
1, 27578, Note_on_c, 12, 69, 0
1, 27584, Note_on_c, 1, 33, 0
1, 27590, Note_on_c, 0, 59, 0
1, 27594, Note_on_c, 7, 59, 100
1, 27596, Note_on_c, 0, 52, 0
1, 27599, Note_on_c, 3, 81, 0
1, 27599, Note_on_c, 0, 59, 107
1, 27599, Note_on_c, 12, 69, 112
1, 27600, Note_on_c, 3, 78, 112
1, 27601, Note_on_c, 1, 34, 111
1, 27601, Note_on_c, 9, 42, 47
1, 27602, Note_on_c, 9, 42, 0
1, 27604, Note_on_c, 7, 59, 0
1, 27626, Note_on_c, 0, 45, 0
1, 27633, Note_on_c, 1, 34, 0
1, 27643, Note_on_c, 7, 47, 117
1, 27644, Note_on_c, 0, 59, 0
1, 27647, Note_on_c, 11, 64, 0
1, 27647, Note_on_c, 11, 69, 0
1, 27648, Note_on_c, 0, 47, 124
1, 27648, Note_on_c, 1, 35, 121
1, 27648, Note_on_c, 9, 36, 108
1, 27648, Note_on_c, 11, 63, 74
1, 27648, Note_on_c, 11, 69, 74
1, 27649, Note_on_c, 9, 36, 0
1, 27649, Note_on_c, 9, 42, 107
1, 27650, Note_on_c, 9, 42, 0
1, 27653, Note_on_c, 7, 47, 0
1, 27667, Note_on_c, 12, 69, 0
1, 27681, Note_on_c, 12, 69, 98
1, 27682, Note_on_c, 1, 35, 0
1, 27688, Note_on_c, 3, 78, 0
1, 27690, Note_on_c, 3, 81, 114
1, 27690, Note_on_c, 7, 54, 78
1, 27695, Note_on_c, 0, 54, 85
1, 27695, Note_on_c, 1, 35, 99
1, 27697, Note_on_c, 9, 42, 55
1, 27698, Note_on_c, 9, 42, 0
1, 27700, Note_on_c, 7, 54, 0
1, 27720, Note_on_c, 3, 76, 94
1, 27722, Note_on_c, 3, 81, 0
1, 27724, Note_on_c, 1, 35, 0
1, 27738, Note_on_c, 7, 61, 108
1, 27743, Note_on_c, 12, 69, 0
1, 27743, Note_on_c, 0, 61, 115
1, 27743, Note_on_c, 1, 35, 116
1, 27743, Note_on_c, 9, 42, 96
1, 27744, Note_on_c, 9, 42, 0
1, 27744, Note_on_c, 9, 40, 118
1, 27745, Note_on_c, 9, 40, 0
1, 27748, Note_on_c, 7, 61, 0
1, 27757, Note_on_c, 12, 69, 88
1, 27759, Note_on_c, 3, 76, 0
1, 27759, Note_on_c, 3, 78, 109
1, 27766, Note_on_c, 0, 54, 0
1, 27773, Note_on_c, 1, 35, 0
1, 27786, Note_on_c, 7, 54, 90
1, 27791, Note_on_c, 0, 54, 97
1, 27792, Note_on_c, 9, 36, 81
1, 27793, Note_on_c, 9, 36, 0
1, 27793, Note_on_c, 1, 35, 110
1, 27793, Note_on_c, 9, 42, 57
1, 27794, Note_on_c, 9, 42, 0
1, 27796, Note_on_c, 7, 54, 0
1, 27814, Note_on_c, 12, 69, 0
1, 27817, Note_on_c, 1, 35, 0
1, 27826, Note_on_c, 12, 69, 88
1, 27834, Note_on_c, 7, 63, 101
1, 27838, Note_on_c, 0, 61, 0
1, 27839, Note_on_c, 0, 63, 108
1, 27839, Note_on_c, 1, 35, 118
1, 27840, Note_on_c, 9, 36, 111
1, 27841, Note_on_c, 9, 36, 0
1, 27841, Note_on_c, 9, 42, 96
1, 27842, Note_on_c, 9, 42, 0
1, 27844, Note_on_c, 7, 63, 0
1, 27869, Note_on_c, 1, 35, 0
1, 27882, Note_on_c, 7, 61, 98
1, 27886, Note_on_c, 0, 63, 0
1, 27887, Note_on_c, 0, 61, 105
1, 27887, Note_on_c, 1, 35, 112
1, 27889, Note_on_c, 9, 42, 57
1, 27890, Note_on_c, 9, 42, 0
1, 27892, Note_on_c, 7, 61, 0
1, 27892, Note_on_c, 12, 69, 0
1, 27904, Note_on_c, 12, 69, 87
1, 27910, Note_on_c, 0, 54, 0
1, 27914, Note_on_c, 1, 35, 0
1, 27930, Note_on_c, 7, 54, 91
1, 27935, Note_on_c, 0, 54, 98
1, 27935, Note_on_c, 1, 35, 114
1, 27936, Note_on_c, 9, 40, 118
1, 27936, Note_on_c, 9, 42, 90
1, 27937, Note_on_c, 9, 42, 0
1, 27937, Note_on_c, 9, 40, 0
1, 27940, Note_on_c, 7, 54, 0
1, 27962, Note_on_c, 1, 35, 0
1, 27964, Note_on_c, 12, 69, 0
1, 27966, Note_on_c, 3, 78, 0
1, 27976, Note_on_c, 12, 69, 84
1, 27977, Note_on_c, 0, 61, 0
1, 27978, Note_on_c, 7, 61, 100
1, 27983, Note_on_c, 0, 61, 107
1, 27983, Note_on_c, 1, 35, 104
1, 27985, Note_on_c, 9, 42, 42
1, 27986, Note_on_c, 9, 42, 0
1, 27988, Note_on_c, 7, 61, 0
1, 28013, Note_on_c, 1, 35, 0
1, 28027, Note_on_c, 7, 47, 117
1, 28028, Note_on_c, 0, 61, 0
1, 28030, Note_on_c, 0, 54, 0
1, 28031, Note_on_c, 0, 47, 0
1, 28031, Note_on_c, 1, 35, 110
1, 28032, Note_on_c, 0, 47, 124
1, 28032, Note_on_c, 9, 42, 107
1, 28032, Note_on_c, 9, 36, 111
1, 28033, Note_on_c, 9, 36, 0
1, 28033, Note_on_c, 9, 42, 0
1, 28037, Note_on_c, 7, 47, 0
1, 28044, Note_on_c, 12, 69, 0
1, 28055, Note_on_c, 1, 35, 0
1, 28057, Note_on_c, 12, 69, 98
1, 28074, Note_on_c, 7, 54, 78
1, 28079, Note_on_c, 0, 54, 85
1, 28079, Note_on_c, 1, 35, 104
1, 28080, Note_on_c, 12, 66, 65
1, 28081, Note_on_c, 9, 42, 66
1, 28082, Note_on_c, 9, 42, 0
1, 28084, Note_on_c, 7, 54, 0
1, 28089, Note_on_c, 3, 71, 100
1, 28110, Note_on_c, 1, 35, 0
1, 28116, Note_on_c, 12, 69, 0
1, 28122, Note_on_c, 3, 71, 0
1, 28122, Note_on_c, 7, 61, 108
1, 28127, Note_on_c, 0, 61, 115
1, 28127, Note_on_c, 1, 35, 118
1, 28127, Note_on_c, 3, 83, 117
1, 28127, Note_on_c, 12, 69, 90
1, 28128, Note_on_c, 9, 40, 118
1, 28129, Note_on_c, 9, 40, 0
1, 28129, Note_on_c, 9, 42, 95
1, 28130, Note_on_c, 9, 42, 0
1, 28132, Note_on_c, 7, 61, 0
1, 28150, Note_on_c, 0, 54, 0
1, 28154, Note_on_c, 1, 35, 0
1, 28169, Note_on_c, 3, 83, 0
1, 28171, Note_on_c, 7, 54, 90
1, 28175, Note_on_c, 12, 66, 0
1, 28175, Note_on_c, 1, 35, 104
1, 28175, Note_on_c, 3, 83, 99
1, 28175, Note_on_c, 9, 42, 54
1, 28176, Note_on_c, 9, 42, 0
1, 28176, Note_on_c, 0, 54, 97
1, 28176, Note_on_c, 9, 36, 76
1, 28177, Note_on_c, 9, 36, 0
1, 28181, Note_on_c, 7, 54, 0
1, 28188, Note_on_c, 12, 69, 0
1, 28200, Note_on_c, 12, 69, 100
1, 28204, Note_on_c, 1, 35, 0
1, 28218, Note_on_c, 7, 63, 101
1, 28222, Note_on_c, 3, 83, 0
1, 28222, Note_on_c, 0, 61, 0
1, 28223, Note_on_c, 0, 63, 108
1, 28223, Note_on_c, 1, 35, 121
1, 28224, Note_on_c, 9, 42, 92
1, 28224, Note_on_c, 9, 36, 110
1, 28225, Note_on_c, 9, 36, 0
1, 28225, Note_on_c, 9, 42, 0
1, 28226, Note_on_c, 3, 79, 117
1, 28228, Note_on_c, 7, 63, 0
1, 28252, Note_on_c, 1, 35, 0
1, 28264, Note_on_c, 12, 69, 0
1, 28266, Note_on_c, 7, 61, 98
1, 28270, Note_on_c, 0, 63, 0
1, 28271, Note_on_c, 0, 61, 105
1, 28271, Note_on_c, 1, 35, 94
1, 28271, Note_on_c, 3, 78, 99
1, 28271, Note_on_c, 9, 42, 46
1, 28272, Note_on_c, 9, 42, 0
1, 28274, Note_on_c, 12, 69, 95
1, 28275, Note_on_c, 3, 79, 0
1, 28276, Note_on_c, 7, 61, 0
1, 28303, Note_on_c, 1, 35, 0
1, 28311, Note_on_c, 0, 54, 0
1, 28314, Note_on_c, 7, 54, 91
1, 28319, Note_on_c, 0, 54, 98
1, 28319, Note_on_c, 1, 35, 116
1, 28319, Note_on_c, 9, 42, 90
1, 28320, Note_on_c, 9, 42, 0
1, 28320, Note_on_c, 9, 40, 118
1, 28321, Note_on_c, 9, 40, 0
1, 28324, Note_on_c, 7, 54, 0
1, 28345, Note_on_c, 12, 69, 0
1, 28348, Note_on_c, 1, 35, 0
1, 28358, Note_on_c, 0, 61, 0
1, 28358, Note_on_c, 12, 69, 92
1, 28362, Note_on_c, 7, 61, 88
1, 28364, Note_on_c, 3, 78, 0
1, 28366, Note_on_c, 3, 76, 114
1, 28367, Note_on_c, 0, 61, 95
1, 28367, Note_on_c, 1, 35, 101
1, 28368, Note_on_c, 9, 42, 51
1, 28369, Note_on_c, 9, 42, 0
1, 28372, Note_on_c, 7, 61, 0
1, 28403, Note_on_c, 1, 35, 0
1, 28411, Note_on_c, 7, 52, 117
1, 28412, Note_on_c, 0, 61, 0
1, 28414, Note_on_c, 0, 54, 0
1, 28415, Note_on_c, 11, 63, 0
1, 28415, Note_on_c, 0, 47, 0
1, 28415, Note_on_c, 11, 69, 0
1, 28415, Note_on_c, 1, 40, 104
1, 28416, Note_on_c, 0, 52, 124
1, 28416, Note_on_c, 9, 36, 111
1, 28416, Note_on_c, 11, 69, 74
1, 28416, Note_on_c, 11, 62, 74
1, 28417, Note_on_c, 9, 36, 0
1, 28417, Note_on_c, 9, 42, 107
1, 28418, Note_on_c, 9, 42, 0
1, 28421, Note_on_c, 7, 52, 0
1, 28432, Note_on_c, 12, 69, 0
1, 28433, Note_on_c, 3, 76, 0
1, 28437, Note_on_c, 3, 76, 108
1, 28443, Note_on_c, 12, 69, 91
1, 28448, Note_on_c, 1, 40, 0
1, 28458, Note_on_c, 7, 59, 78
1, 28463, Note_on_c, 0, 59, 85
1, 28463, Note_on_c, 1, 40, 102
1, 28464, Note_on_c, 9, 42, 58
1, 28465, Note_on_c, 9, 42, 0
1, 28468, Note_on_c, 7, 59, 0
1, 28502, Note_on_c, 1, 40, 0
1, 28506, Note_on_c, 12, 69, 0
1, 28506, Note_on_c, 7, 66, 108
1, 28511, Note_on_c, 0, 66, 115
1, 28512, Note_on_c, 1, 40, 99
1, 28512, Note_on_c, 9, 40, 118
1, 28512, Note_on_c, 9, 42, 86
1, 28513, Note_on_c, 9, 42, 0
1, 28513, Note_on_c, 9, 40, 0
1, 28516, Note_on_c, 7, 66, 0
1, 28519, Note_on_c, 12, 69, 97
1, 28534, Note_on_c, 0, 59, 0
1, 28542, Note_on_c, 1, 40, 0
1, 28554, Note_on_c, 7, 59, 90
1, 28559, Note_on_c, 0, 59, 97
1, 28559, Note_on_c, 1, 40, 91
1, 28560, Note_on_c, 9, 42, 63
1, 28560, Note_on_c, 9, 36, 75
1, 28561, Note_on_c, 9, 36, 0
1, 28561, Note_on_c, 9, 42, 0
1, 28564, Note_on_c, 7, 59, 0
1, 28578, Note_on_c, 12, 69, 0
1, 28582, Note_on_c, 0, 66, 0
1, 28588, Note_on_c, 12, 69, 85
1, 28591, Note_on_c, 1, 40, 0
1, 28602, Note_on_c, 7, 64, 101
1, 28607, Note_on_c, 0, 64, 108
1, 28607, Note_on_c, 1, 40, 104
1, 28608, Note_on_c, 9, 36, 111
1, 28609, Note_on_c, 9, 36, 0
1, 28609, Note_on_c, 9, 42, 92
1, 28610, Note_on_c, 9, 42, 0
1, 28612, Note_on_c, 7, 64, 0
1, 28639, Note_on_c, 1, 40, 0
1, 28650, Note_on_c, 7, 59, 98
1, 28653, Note_on_c, 12, 69, 0
1, 28654, Note_on_c, 0, 59, 0
1, 28655, Note_on_c, 0, 59, 105
1, 28655, Note_on_c, 1, 40, 101
1, 28657, Note_on_c, 9, 42, 46
1, 28658, Note_on_c, 9, 42, 0
1, 28660, Note_on_c, 7, 59, 0
1, 28664, Note_on_c, 12, 69, 104
1, 28684, Note_on_c, 1, 40, 0
1, 28699, Note_on_c, 7, 52, 91
1, 28703, Note_on_c, 0, 52, 0
1, 28703, Note_on_c, 1, 40, 110
1, 28704, Note_on_c, 0, 52, 98
1, 28704, Note_on_c, 9, 40, 118
1, 28705, Note_on_c, 9, 40, 0
1, 28705, Note_on_c, 9, 42, 98
1, 28706, Note_on_c, 9, 42, 0
1, 28709, Note_on_c, 7, 52, 0
1, 28730, Note_on_c, 1, 40, 0
1, 28732, Note_on_c, 12, 69, 0
1, 28733, Note_on_c, 3, 76, 0
1, 28743, Note_on_c, 12, 69, 83
1, 28745, Note_on_c, 0, 59, 0
1, 28746, Note_on_c, 7, 59, 100
1, 28751, Note_on_c, 0, 59, 107
1, 28751, Note_on_c, 1, 40, 91
1, 28751, Note_on_c, 9, 42, 56
1, 28752, Note_on_c, 9, 42, 0
1, 28756, Note_on_c, 7, 59, 0
1, 28774, Note_on_c, 0, 64, 0
1, 28783, Note_on_c, 1, 40, 0
1, 28795, Note_on_c, 7, 52, 117
1, 28796, Note_on_c, 0, 59, 0
1, 28799, Note_on_c, 0, 52, 0
1, 28799, Note_on_c, 1, 40, 110
1, 28800, Note_on_c, 0, 52, 124
1, 28800, Note_on_c, 9, 36, 115
1, 28801, Note_on_c, 9, 36, 0
1, 28801, Note_on_c, 9, 42, 107
1, 28802, Note_on_c, 9, 42, 0
1, 28805, Note_on_c, 7, 52, 0
1, 28818, Note_on_c, 12, 69, 0
1, 28826, Note_on_c, 1, 40, 0
1, 28830, Note_on_c, 12, 69, 100
1, 28842, Note_on_c, 7, 59, 78
1, 28847, Note_on_c, 0, 59, 85
1, 28847, Note_on_c, 1, 40, 101
1, 28848, Note_on_c, 12, 66, 65
1, 28849, Note_on_c, 9, 42, 52
1, 28850, Note_on_c, 9, 42, 0
1, 28850, Note_on_c, 3, 64, 64
1, 28852, Note_on_c, 7, 59, 0
1, 28875, Note_on_c, 3, 64, 0
1, 28880, Note_on_c, 1, 40, 0
1, 28889, Note_on_c, 12, 69, 0
1, 28890, Note_on_c, 7, 66, 108
1, 28893, Note_on_c, 3, 73, 113
1, 28895, Note_on_c, 0, 66, 115
1, 28896, Note_on_c, 1, 40, 110
1, 28896, Note_on_c, 9, 40, 118
1, 28896, Note_on_c, 9, 42, 90
1, 28897, Note_on_c, 9, 42, 0
1, 28897, Note_on_c, 9, 40, 0
1, 28899, Note_on_c, 12, 69, 81
1, 28900, Note_on_c, 7, 66, 0
1, 28918, Note_on_c, 0, 59, 0
1, 28921, Note_on_c, 1, 40, 0
1, 28938, Note_on_c, 7, 59, 90
1, 28943, Note_on_c, 12, 66, 0
1, 28943, Note_on_c, 3, 73, 0
1, 28943, Note_on_c, 0, 59, 97
1, 28943, Note_on_c, 1, 40, 91
1, 28943, Note_on_c, 3, 74, 100
1, 28944, Note_on_c, 9, 36, 73
1, 28945, Note_on_c, 9, 36, 0
1, 28945, Note_on_c, 9, 42, 49
1, 28946, Note_on_c, 9, 42, 0
1, 28948, Note_on_c, 7, 59, 0
1, 28958, Note_on_c, 12, 69, 0
1, 28963, Note_on_c, 1, 40, 0
1, 28968, Note_on_c, 1, 40, 98
1, 28970, Note_on_c, 12, 69, 100
1, 28986, Note_on_c, 7, 64, 101
1, 28987, Note_on_c, 1, 40, 0
1, 28990, Note_on_c, 0, 66, 0
1, 28991, Note_on_c, 0, 64, 108
1, 28991, Note_on_c, 1, 40, 106
1, 28992, Note_on_c, 9, 36, 109
1, 28993, Note_on_c, 9, 36, 0
1, 28993, Note_on_c, 9, 42, 98
1, 28994, Note_on_c, 9, 42, 0
1, 28996, Note_on_c, 7, 64, 0
1, 28996, Note_on_c, 3, 73, 109
1, 28997, Note_on_c, 3, 74, 0
1, 29014, Note_on_c, 0, 59, 0
1, 29020, Note_on_c, 1, 40, 0
1, 29031, Note_on_c, 12, 69, 0
1, 29034, Note_on_c, 7, 59, 98
1, 29039, Note_on_c, 0, 59, 105
1, 29039, Note_on_c, 9, 42, 49
1, 29040, Note_on_c, 9, 42, 0
1, 29040, Note_on_c, 1, 40, 98
1, 29040, Note_on_c, 12, 69, 92
1, 29044, Note_on_c, 7, 59, 0
1, 29075, Note_on_c, 1, 40, 0
1, 29083, Note_on_c, 7, 52, 91
1, 29086, Note_on_c, 3, 73, 0
1, 29087, Note_on_c, 0, 52, 0
1, 29087, Note_on_c, 1, 40, 114
1, 29088, Note_on_c, 0, 52, 98
1, 29088, Note_on_c, 9, 40, 118
1, 29089, Note_on_c, 9, 40, 0
1, 29089, Note_on_c, 9, 42, 107
1, 29090, Note_on_c, 9, 42, 0
1, 29090, Note_on_c, 3, 71, 111
1, 29093, Note_on_c, 7, 52, 0
1, 29114, Note_on_c, 12, 69, 0
1, 29119, Note_on_c, 1, 40, 0
1, 29125, Note_on_c, 12, 69, 98
1, 29130, Note_on_c, 7, 64, 100
1, 29134, Note_on_c, 3, 71, 0
1, 29134, Note_on_c, 0, 64, 0
1, 29134, Note_on_c, 3, 69, 103
1, 29135, Note_on_c, 0, 64, 107
1, 29135, Note_on_c, 1, 40, 95
1, 29135, Note_on_c, 9, 42, 50
1, 29136, Note_on_c, 9, 42, 0
1, 29140, Note_on_c, 7, 64, 0
1, 29166, Note_on_c, 1, 40, 0
1, 29173, Note_on_c, 12, 69, 0
1, 29179, Note_on_c, 7, 45, 117
1, 29180, Note_on_c, 0, 64, 0
1, 29181, Note_on_c, 11, 69, 0
1, 29182, Note_on_c, 0, 59, 0
1, 29183, Note_on_c, 0, 52, 0
1, 29183, Note_on_c, 11, 62, 0
1, 29184, Note_on_c, 0, 45, 124
1, 29184, Note_on_c, 9, 36, 112
1, 29184, Note_on_c, 11, 64, 70
1, 29185, Note_on_c, 9, 36, 0
1, 29185, Note_on_c, 1, 33, 121
1, 29185, Note_on_c, 9, 57, 105
1, 29186, Note_on_c, 9, 57, 0
1, 29186, Note_on_c, 11, 69, 77
1, 29189, Note_on_c, 7, 45, 0
1, 29214, Note_on_c, 1, 33, 0
1, 29226, Note_on_c, 7, 52, 78
1, 29231, Note_on_c, 0, 52, 85
1, 29231, Note_on_c, 1, 33, 101
1, 29233, Note_on_c, 9, 42, 39
1, 29234, Note_on_c, 9, 42, 0
1, 29236, Note_on_c, 7, 52, 0
1, 29236, Note_on_c, 3, 69, 0
1, 29236, Note_on_c, 3, 73, 97
1, 29260, Note_on_c, 1, 33, 0
1, 29274, Note_on_c, 7, 59, 108
1, 29279, Note_on_c, 0, 59, 115
1, 29280, Note_on_c, 1, 33, 118
1, 29280, Note_on_c, 9, 40, 118
1, 29281, Note_on_c, 9, 40, 0
1, 29281, Note_on_c, 9, 42, 95
1, 29282, Note_on_c, 9, 42, 0
1, 29284, Note_on_c, 7, 59, 0
1, 29302, Note_on_c, 0, 52, 0
1, 29310, Note_on_c, 1, 33, 0
1, 29322, Note_on_c, 7, 52, 90
1, 29326, Note_on_c, 0, 59, 0
1, 29327, Note_on_c, 0, 52, 97
1, 29328, Note_on_c, 9, 36, 81
1, 29329, Note_on_c, 9, 36, 0
1, 29329, Note_on_c, 1, 33, 116
1, 29329, Note_on_c, 9, 42, 52
1, 29330, Note_on_c, 9, 42, 0
1, 29332, Note_on_c, 7, 52, 0
1, 29357, Note_on_c, 1, 33, 0
1, 29370, Note_on_c, 7, 61, 101
1, 29375, Note_on_c, 0, 61, 108
1, 29375, Note_on_c, 1, 33, 118
1, 29375, Note_on_c, 9, 42, 95
1, 29376, Note_on_c, 9, 42, 0
1, 29376, Note_on_c, 9, 36, 109
1, 29377, Note_on_c, 9, 36, 0
1, 29377, Note_on_c, 11, 69, 0
1, 29378, Note_on_c, 11, 71, 75
1, 29380, Note_on_c, 7, 61, 0
1, 29401, Note_on_c, 1, 33, 0
1, 29418, Note_on_c, 7, 59, 98
1, 29422, Note_on_c, 0, 61, 0
1, 29423, Note_on_c, 0, 59, 105
1, 29423, Note_on_c, 1, 33, 114
1, 29423, Note_on_c, 9, 42, 63
1, 29424, Note_on_c, 9, 42, 0
1, 29428, Note_on_c, 7, 59, 0
1, 29446, Note_on_c, 0, 52, 0
1, 29450, Note_on_c, 1, 33, 0
1, 29466, Note_on_c, 7, 52, 91
1, 29471, Note_on_c, 0, 52, 98
1, 29471, Note_on_c, 9, 42, 98
1, 29472, Note_on_c, 9, 42, 0
1, 29472, Note_on_c, 1, 33, 121
1, 29472, Note_on_c, 9, 40, 118
1, 29473, Note_on_c, 9, 40, 0
1, 29476, Note_on_c, 7, 52, 0
1, 29488, Note_on_c, 3, 73, 0
1, 29499, Note_on_c, 1, 33, 0
1, 29513, Note_on_c, 0, 59, 0
1, 29514, Note_on_c, 7, 59, 100
1, 29519, Note_on_c, 0, 59, 107
1, 29519, Note_on_c, 1, 33, 108
1, 29519, Note_on_c, 9, 42, 54
1, 29520, Note_on_c, 9, 42, 0
1, 29524, Note_on_c, 7, 59, 0
1, 29542, Note_on_c, 0, 52, 0
1, 29546, Note_on_c, 0, 45, 0
1, 29546, Note_on_c, 1, 33, 0
1, 29563, Note_on_c, 7, 45, 117
1, 29564, Note_on_c, 0, 59, 0
1, 29567, Note_on_c, 1, 33, 121
1, 29567, Note_on_c, 9, 42, 110
1, 29568, Note_on_c, 9, 42, 0
1, 29568, Note_on_c, 0, 45, 124
1, 29568, Note_on_c, 9, 36, 112
1, 29569, Note_on_c, 9, 36, 0
1, 29571, Note_on_c, 11, 73, 63
1, 29573, Note_on_c, 7, 45, 0
1, 29576, Note_on_c, 11, 71, 0
1, 29597, Note_on_c, 1, 33, 0
1, 29610, Note_on_c, 7, 52, 78
1, 29615, Note_on_c, 0, 52, 85
1, 29615, Note_on_c, 1, 33, 108
1, 29615, Note_on_c, 9, 42, 58
1, 29616, Note_on_c, 9, 42, 0
1, 29616, Note_on_c, 3, 64, 78
1, 29620, Note_on_c, 7, 52, 0
1, 29644, Note_on_c, 1, 33, 0
1, 29650, Note_on_c, 3, 64, 0
1, 29658, Note_on_c, 7, 59, 108
1, 29663, Note_on_c, 0, 59, 115
1, 29663, Note_on_c, 1, 33, 121
1, 29663, Note_on_c, 9, 42, 95
1, 29664, Note_on_c, 9, 42, 0
1, 29664, Note_on_c, 3, 73, 107
1, 29664, Note_on_c, 9, 40, 118
1, 29665, Note_on_c, 9, 40, 0
1, 29668, Note_on_c, 7, 59, 0
1, 29686, Note_on_c, 0, 52, 0
1, 29695, Note_on_c, 1, 33, 0
1, 29706, Note_on_c, 7, 52, 90
1, 29708, Note_on_c, 0, 59, 0
1, 29711, Note_on_c, 0, 52, 97
1, 29711, Note_on_c, 1, 33, 106
1, 29712, Note_on_c, 3, 74, 96
1, 29712, Note_on_c, 9, 42, 51
1, 29712, Note_on_c, 9, 36, 79
1, 29713, Note_on_c, 9, 36, 0
1, 29713, Note_on_c, 9, 42, 0
1, 29713, Note_on_c, 3, 73, 0
1, 29716, Note_on_c, 7, 52, 0
1, 29744, Note_on_c, 1, 33, 0
1, 29754, Note_on_c, 7, 61, 101
1, 29756, Note_on_c, 0, 52, 0
1, 29759, Note_on_c, 0, 61, 108
1, 29759, Note_on_c, 1, 33, 121
1, 29759, Note_on_c, 9, 42, 96
1, 29760, Note_on_c, 9, 42, 0
1, 29760, Note_on_c, 9, 36, 111
1, 29761, Note_on_c, 9, 36, 0
1, 29764, Note_on_c, 3, 74, 0
1, 29764, Note_on_c, 7, 61, 0
1, 29765, Note_on_c, 3, 73, 100
1, 29789, Note_on_c, 1, 33, 0
1, 29802, Note_on_c, 7, 59, 98
1, 29806, Note_on_c, 0, 61, 0
1, 29807, Note_on_c, 0, 59, 105
1, 29807, Note_on_c, 1, 33, 101
1, 29808, Note_on_c, 9, 42, 56
1, 29809, Note_on_c, 9, 42, 0
1, 29812, Note_on_c, 7, 59, 0
1, 29839, Note_on_c, 1, 33, 0
1, 29850, Note_on_c, 7, 52, 91
1, 29855, Note_on_c, 3, 73, 0
1, 29855, Note_on_c, 0, 52, 98
1, 29855, Note_on_c, 1, 33, 121
1, 29856, Note_on_c, 9, 40, 118
1, 29856, Note_on_c, 9, 42, 90
1, 29857, Note_on_c, 9, 42, 0
1, 29857, Note_on_c, 9, 40, 0
1, 29860, Note_on_c, 7, 52, 0
1, 29860, Note_on_c, 3, 71, 101
1, 29884, Note_on_c, 1, 33, 0
1, 29894, Note_on_c, 0, 59, 0
1, 29898, Note_on_c, 7, 59, 100
1, 29900, Note_on_c, 0, 52, 0
1, 29903, Note_on_c, 0, 59, 107
1, 29903, Note_on_c, 1, 33, 121
1, 29904, Note_on_c, 9, 42, 52
1, 29905, Note_on_c, 9, 42, 0
1, 29908, Note_on_c, 7, 59, 0
1, 29930, Note_on_c, 0, 45, 0
1, 29932, Note_on_c, 1, 33, 0
1, 29947, Note_on_c, 7, 42, 117
1, 29948, Note_on_c, 0, 59, 0
1, 29951, Note_on_c, 11, 64, 0
1, 29951, Note_on_c, 1, 30, 114
1, 29952, Note_on_c, 0, 42, 124
1, 29952, Note_on_c, 9, 42, 114
1, 29952, Note_on_c, 9, 36, 112
1, 29952, Note_on_c, 11, 64, 64
1, 29952, Note_on_c, 11, 69, 72
1, 29953, Note_on_c, 9, 36, 0
1, 29953, Note_on_c, 9, 42, 0
1, 29954, Note_on_c, 11, 73, 0
1, 29957, Note_on_c, 7, 42, 0
1, 29960, Note_on_c, 3, 69, 92
1, 29962, Note_on_c, 3, 71, 0
1, 29982, Note_on_c, 1, 30, 0
1, 29994, Note_on_c, 7, 49, 78
1, 29999, Note_on_c, 0, 49, 85
1, 29999, Note_on_c, 1, 30, 111
1, 30001, Note_on_c, 9, 42, 58
1, 30002, Note_on_c, 9, 42, 0
1, 30004, Note_on_c, 7, 49, 0
1, 30028, Note_on_c, 1, 30, 0
1, 30042, Note_on_c, 7, 56, 108
1, 30047, Note_on_c, 0, 56, 115
1, 30048, Note_on_c, 9, 40, 118
1, 30049, Note_on_c, 9, 40, 0
1, 30049, Note_on_c, 1, 30, 121
1, 30049, Note_on_c, 9, 42, 92
1, 30050, Note_on_c, 9, 42, 0
1, 30052, Note_on_c, 7, 56, 0
1, 30070, Note_on_c, 0, 49, 0
1, 30077, Note_on_c, 1, 30, 0
1, 30090, Note_on_c, 7, 49, 90
1, 30094, Note_on_c, 0, 56, 0
1, 30095, Note_on_c, 0, 49, 97
1, 30096, Note_on_c, 1, 30, 115
1, 30096, Note_on_c, 9, 36, 75
1, 30097, Note_on_c, 9, 36, 0
1, 30097, Note_on_c, 9, 42, 55
1, 30098, Note_on_c, 9, 42, 0
1, 30100, Note_on_c, 7, 49, 0
1, 30125, Note_on_c, 1, 30, 0
1, 30138, Note_on_c, 7, 57, 101
1, 30143, Note_on_c, 0, 57, 108
1, 30143, Note_on_c, 1, 30, 121
1, 30144, Note_on_c, 9, 36, 112
1, 30145, Note_on_c, 9, 36, 0
1, 30145, Note_on_c, 9, 42, 90
1, 30146, Note_on_c, 9, 42, 0
1, 30148, Note_on_c, 7, 57, 0
1, 30175, Note_on_c, 1, 30, 0
1, 30176, Note_on_c, 3, 69, 0
1, 30186, Note_on_c, 7, 56, 98
1, 30190, Note_on_c, 0, 57, 0
1, 30191, Note_on_c, 0, 56, 105
1, 30191, Note_on_c, 9, 42, 58
1, 30192, Note_on_c, 9, 42, 0
1, 30192, Note_on_c, 1, 30, 109
1, 30196, Note_on_c, 7, 56, 0
1, 30214, Note_on_c, 0, 49, 0
1, 30220, Note_on_c, 1, 30, 0
1, 30234, Note_on_c, 7, 49, 91
1, 30239, Note_on_c, 0, 49, 98
1, 30239, Note_on_c, 9, 42, 80
1, 30240, Note_on_c, 9, 42, 0
1, 30240, Note_on_c, 9, 40, 118
1, 30241, Note_on_c, 9, 40, 0
1, 30241, Note_on_c, 1, 30, 117
1, 30244, Note_on_c, 7, 49, 0
1, 30272, Note_on_c, 1, 30, 0
1, 30281, Note_on_c, 0, 56, 0
1, 30282, Note_on_c, 7, 56, 100
1, 30287, Note_on_c, 0, 56, 107
1, 30287, Note_on_c, 9, 42, 52
1, 30288, Note_on_c, 9, 42, 0
1, 30289, Note_on_c, 1, 30, 110
1, 30292, Note_on_c, 7, 56, 0
1, 30310, Note_on_c, 0, 49, 0
1, 30314, Note_on_c, 0, 42, 0
1, 30315, Note_on_c, 1, 30, 0
1, 30331, Note_on_c, 7, 42, 117
1, 30332, Note_on_c, 0, 56, 0
1, 30335, Note_on_c, 11, 69, 0
1, 30335, Note_on_c, 9, 42, 114
1, 30336, Note_on_c, 9, 42, 0
1, 30336, Note_on_c, 0, 42, 124
1, 30336, Note_on_c, 1, 30, 117
1, 30336, Note_on_c, 9, 36, 110
1, 30336, Note_on_c, 11, 71, 71
1, 30337, Note_on_c, 9, 36, 0
1, 30341, Note_on_c, 7, 42, 0
1, 30366, Note_on_c, 1, 30, 0
1, 30378, Note_on_c, 7, 49, 78
1, 30383, Note_on_c, 0, 49, 85
1, 30383, Note_on_c, 3, 69, 112
1, 30383, Note_on_c, 9, 42, 56
1, 30384, Note_on_c, 9, 42, 0
1, 30384, Note_on_c, 1, 30, 105
1, 30388, Note_on_c, 7, 49, 0
1, 30411, Note_on_c, 1, 30, 0
1, 30423, Note_on_c, 3, 69, 0
1, 30426, Note_on_c, 7, 56, 108
1, 30429, Note_on_c, 3, 69, 111
1, 30431, Note_on_c, 0, 56, 115
1, 30431, Note_on_c, 9, 42, 89
1, 30432, Note_on_c, 9, 42, 0
1, 30432, Note_on_c, 1, 30, 117
1, 30432, Note_on_c, 9, 40, 118
1, 30433, Note_on_c, 9, 40, 0
1, 30436, Note_on_c, 7, 56, 0
1, 30454, Note_on_c, 0, 49, 0
1, 30462, Note_on_c, 1, 30, 0
1, 30469, Note_on_c, 3, 69, 0
1, 30474, Note_on_c, 7, 49, 90
1, 30476, Note_on_c, 0, 56, 0
1, 30479, Note_on_c, 0, 49, 97
1, 30479, Note_on_c, 3, 73, 115
1, 30479, Note_on_c, 9, 42, 54
1, 30480, Note_on_c, 9, 42, 0
1, 30480, Note_on_c, 1, 30, 103
1, 30480, Note_on_c, 9, 36, 72
1, 30481, Note_on_c, 9, 36, 0
1, 30484, Note_on_c, 7, 49, 0
1, 30511, Note_on_c, 1, 30, 0
1, 30522, Note_on_c, 7, 57, 101
1, 30524, Note_on_c, 0, 49, 0
1, 30527, Note_on_c, 0, 57, 108
1, 30528, Note_on_c, 1, 30, 121
1, 30528, Note_on_c, 9, 36, 111
1, 30529, Note_on_c, 9, 36, 0
1, 30529, Note_on_c, 9, 42, 88
1, 30530, Note_on_c, 9, 42, 0
1, 30532, Note_on_c, 7, 57, 0
1, 30559, Note_on_c, 1, 30, 0
1, 30565, Note_on_c, 3, 73, 0
1, 30570, Note_on_c, 3, 74, 112
1, 30570, Note_on_c, 7, 56, 98
1, 30574, Note_on_c, 0, 57, 0
1, 30575, Note_on_c, 0, 56, 105
1, 30577, Note_on_c, 1, 30, 109
1, 30577, Note_on_c, 9, 42, 57
1, 30578, Note_on_c, 9, 42, 0
1, 30580, Note_on_c, 7, 56, 0
1, 30605, Note_on_c, 1, 30, 0
1, 30618, Note_on_c, 7, 49, 91
1, 30623, Note_on_c, 0, 49, 98
1, 30623, Note_on_c, 1, 30, 119
1, 30624, Note_on_c, 9, 40, 118
1, 30625, Note_on_c, 9, 40, 0
1, 30625, Note_on_c, 9, 42, 92
1, 30626, Note_on_c, 9, 42, 0
1, 30628, Note_on_c, 7, 49, 0
1, 30656, Note_on_c, 1, 30, 0
1, 30656, Note_on_c, 3, 74, 0
1, 30662, Note_on_c, 0, 56, 0
1, 30666, Note_on_c, 7, 56, 100
1, 30668, Note_on_c, 0, 49, 0
1, 30668, Note_on_c, 3, 69, 101
1, 30671, Note_on_c, 0, 56, 107
1, 30671, Note_on_c, 1, 30, 117
1, 30673, Note_on_c, 9, 42, 47
1, 30674, Note_on_c, 9, 42, 0
1, 30676, Note_on_c, 7, 56, 0
1, 30698, Note_on_c, 0, 42, 0
1, 30715, Note_on_c, 1, 30, 0
1, 30715, Note_on_c, 7, 50, 117
1, 30716, Note_on_c, 0, 56, 0
1, 30720, Note_on_c, 0, 50, 124
1, 30720, Note_on_c, 9, 36, 108
1, 30720, Note_on_c, 11, 69, 65
1, 30721, Note_on_c, 9, 36, 0
1, 30721, Note_on_c, 1, 38, 116
1, 30721, Note_on_c, 9, 42, 107
1, 30722, Note_on_c, 9, 42, 0
1, 30722, Note_on_c, 11, 71, 0
1, 30725, Note_on_c, 7, 50, 0
1, 30743, Note_on_c, 3, 69, 0
1, 30746, Note_on_c, 1, 38, 0
1, 30762, Note_on_c, 7, 57, 78
1, 30767, Note_on_c, 0, 57, 85
1, 30768, Note_on_c, 1, 38, 112
1, 30769, Note_on_c, 3, 69, 106
1, 30769, Note_on_c, 9, 42, 55
1, 30770, Note_on_c, 9, 42, 0
1, 30772, Note_on_c, 7, 57, 0
1, 30799, Note_on_c, 1, 38, 0
1, 30810, Note_on_c, 7, 64, 101
1, 30814, Note_on_c, 3, 69, 0
1, 30815, Note_on_c, 0, 64, 108
1, 30815, Note_on_c, 9, 42, 96
1, 30816, Note_on_c, 9, 42, 0
1, 30816, Note_on_c, 1, 38, 116
1, 30816, Note_on_c, 9, 40, 118
1, 30817, Note_on_c, 9, 40, 0
1, 30819, Note_on_c, 3, 69, 110
1, 30820, Note_on_c, 7, 64, 0
1, 30845, Note_on_c, 1, 38, 0
1, 30858, Note_on_c, 7, 57, 90
1, 30859, Note_on_c, 7, 50, 94
1, 30860, Note_on_c, 3, 69, 0
1, 30862, Note_on_c, 0, 57, 0
1, 30863, Note_on_c, 0, 50, 0
1, 30863, Note_on_c, 0, 57, 97
1, 30864, Note_on_c, 0, 50, 101
1, 30864, Note_on_c, 1, 38, 102
1, 30864, Note_on_c, 3, 74, 115
1, 30864, Note_on_c, 9, 36, 81
1, 30865, Note_on_c, 9, 36, 0
1, 30865, Note_on_c, 9, 42, 57
1, 30866, Note_on_c, 9, 42, 0
1, 30868, Note_on_c, 7, 57, 0
1, 30869, Note_on_c, 7, 50, 0
1, 30886, Note_on_c, 0, 64, 0
1, 30895, Note_on_c, 1, 38, 0
1, 30906, Note_on_c, 7, 62, 101
1, 30911, Note_on_c, 0, 62, 108
1, 30911, Note_on_c, 1, 38, 116
1, 30912, Note_on_c, 9, 36, 111
1, 30913, Note_on_c, 9, 36, 0
1, 30913, Note_on_c, 9, 42, 96
1, 30914, Note_on_c, 9, 42, 0
1, 30916, Note_on_c, 7, 62, 0
1, 30942, Note_on_c, 1, 38, 0
1, 30952, Note_on_c, 0, 57, 0
1, 30954, Note_on_c, 7, 57, 98
1, 30956, Note_on_c, 3, 74, 0
1, 30956, Note_on_c, 3, 73, 113
1, 30959, Note_on_c, 0, 57, 105
1, 30961, Note_on_c, 1, 38, 94
1, 30961, Note_on_c, 9, 42, 57
1, 30962, Note_on_c, 9, 42, 0
1, 30964, Note_on_c, 7, 57, 0
1, 30982, Note_on_c, 0, 62, 0
1, 30991, Note_on_c, 1, 38, 0
1, 31003, Note_on_c, 7, 62, 72
1, 31003, Note_on_c, 7, 50, 91
1, 31007, Note_on_c, 0, 50, 0
1, 31008, Note_on_c, 0, 62, 79
1, 31008, Note_on_c, 0, 50, 98
1, 31008, Note_on_c, 9, 40, 118
1, 31008, Note_on_c, 9, 42, 90
1, 31009, Note_on_c, 9, 42, 0
1, 31009, Note_on_c, 9, 40, 0
1, 31009, Note_on_c, 1, 38, 114
1, 31013, Note_on_c, 7, 62, 0
1, 31013, Note_on_c, 7, 50, 0
1, 31030, Note_on_c, 0, 57, 0
1, 31040, Note_on_c, 1, 38, 0
1, 31046, Note_on_c, 3, 73, 0
1, 31049, Note_on_c, 3, 71, 100
1, 31050, Note_on_c, 7, 57, 100
1, 31055, Note_on_c, 0, 57, 107
1, 31057, Note_on_c, 1, 40, 102
1, 31057, Note_on_c, 9, 42, 42
1, 31058, Note_on_c, 9, 42, 0
1, 31060, Note_on_c, 7, 57, 0
1, 31079, Note_on_c, 0, 62, 0
1, 31089, Note_on_c, 1, 40, 0
1, 31099, Note_on_c, 7, 52, 117
1, 31100, Note_on_c, 0, 57, 0
1, 31103, Note_on_c, 0, 50, 0
1, 31104, Note_on_c, 0, 52, 114
1, 31104, Note_on_c, 9, 42, 107
1, 31104, Note_on_c, 9, 36, 111
1, 31105, Note_on_c, 9, 36, 0
1, 31105, Note_on_c, 9, 42, 0
1, 31105, Note_on_c, 1, 40, 112
1, 31109, Note_on_c, 7, 52, 0
1, 31130, Note_on_c, 3, 71, 0
1, 31136, Note_on_c, 1, 40, 0
1, 31146, Note_on_c, 3, 71, 105
1, 31146, Note_on_c, 7, 59, 78
1, 31151, Note_on_c, 0, 59, 85
1, 31151, Note_on_c, 1, 40, 90
1, 31153, Note_on_c, 9, 42, 66
1, 31154, Note_on_c, 9, 42, 0
1, 31156, Note_on_c, 7, 59, 0
1, 31177, Note_on_c, 1, 40, 0
1, 31194, Note_on_c, 7, 66, 108
1, 31196, Note_on_c, 3, 69, 96
1, 31199, Note_on_c, 0, 66, 97
1, 31199, Note_on_c, 1, 40, 112
1, 31200, Note_on_c, 9, 40, 118
1, 31201, Note_on_c, 9, 40, 0
1, 31201, Note_on_c, 9, 42, 95
1, 31202, Note_on_c, 9, 42, 0
1, 31202, Note_on_c, 3, 71, 0
1, 31204, Note_on_c, 7, 66, 0
1, 31222, Note_on_c, 0, 59, 0
1, 31231, Note_on_c, 1, 40, 0
1, 31235, Note_on_c, 3, 69, 0
1, 31242, Note_on_c, 7, 59, 90
1, 31243, Note_on_c, 3, 73, 115
1, 31243, Note_on_c, 7, 52, 95
1, 31245, Note_on_c, 0, 52, 0
1, 31247, Note_on_c, 0, 59, 97
1, 31247, Note_on_c, 1, 40, 94
1, 31247, Note_on_c, 9, 42, 54
1, 31248, Note_on_c, 9, 42, 0
1, 31248, Note_on_c, 0, 52, 102
1, 31248, Note_on_c, 9, 36, 76
1, 31249, Note_on_c, 9, 36, 0
1, 31252, Note_on_c, 7, 59, 0
1, 31253, Note_on_c, 7, 52, 0
1, 31270, Note_on_c, 0, 66, 0
1, 31279, Note_on_c, 1, 40, 0
1, 31290, Note_on_c, 7, 64, 101
1, 31295, Note_on_c, 0, 64, 108
1, 31295, Note_on_c, 1, 40, 106
1, 31296, Note_on_c, 9, 42, 92
1, 31296, Note_on_c, 9, 36, 110
1, 31297, Note_on_c, 9, 36, 0
1, 31297, Note_on_c, 9, 42, 0
1, 31300, Note_on_c, 7, 64, 0
1, 31318, Note_on_c, 0, 59, 0
1, 31320, Note_on_c, 1, 40, 0
1, 31338, Note_on_c, 3, 73, 0
1, 31338, Note_on_c, 7, 59, 98
1, 31343, Note_on_c, 0, 59, 99
1, 31343, Note_on_c, 1, 40, 84
1, 31343, Note_on_c, 9, 42, 46
1, 31344, Note_on_c, 9, 42, 0
1, 31346, Note_on_c, 3, 69, 100
1, 31348, Note_on_c, 7, 59, 0
1, 31366, Note_on_c, 0, 64, 0
1, 31374, Note_on_c, 1, 40, 0
1, 31383, Note_on_c, 0, 52, 0
1, 31386, Note_on_c, 7, 52, 91
1, 31391, Note_on_c, 0, 52, 89
1, 31391, Note_on_c, 1, 40, 114
1, 31391, Note_on_c, 9, 42, 90
1, 31392, Note_on_c, 9, 42, 0
1, 31392, Note_on_c, 9, 40, 118
1, 31393, Note_on_c, 9, 40, 0
1, 31396, Note_on_c, 7, 52, 0
1, 31420, Note_on_c, 1, 40, 0
1, 31430, Note_on_c, 3, 69, 0
1, 31434, Note_on_c, 7, 64, 100
1, 31436, Note_on_c, 0, 52, 0
1, 31439, Note_on_c, 0, 64, 85
1, 31439, Note_on_c, 1, 40, 104
1, 31439, Note_on_c, 3, 69, 98
1, 31440, Note_on_c, 9, 42, 51
1, 31441, Note_on_c, 9, 42, 0
1, 31444, Note_on_c, 7, 64, 0
1, 31472, Note_on_c, 1, 40, 0
1, 31483, Note_on_c, 7, 42, 117
1, 31486, Note_on_c, 0, 64, 0
1, 31486, Note_on_c, 0, 59, 0
1, 31487, Note_on_c, 11, 64, 0
1, 31487, Note_on_c, 11, 69, 0
1, 31488, Note_on_c, 0, 42, 124
1, 31488, Note_on_c, 1, 42, 121
1, 31488, Note_on_c, 9, 36, 111
1, 31488, Note_on_c, 11, 64, 70
1, 31488, Note_on_c, 11, 69, 67
1, 31489, Note_on_c, 9, 36, 0
1, 31489, Note_on_c, 9, 42, 107
1, 31490, Note_on_c, 9, 42, 0
1, 31493, Note_on_c, 7, 42, 0
1, 31520, Note_on_c, 1, 42, 0
1, 31530, Note_on_c, 7, 49, 78
1, 31535, Note_on_c, 0, 49, 85
1, 31536, Note_on_c, 1, 42, 101
1, 31536, Note_on_c, 9, 42, 58
1, 31537, Note_on_c, 9, 42, 0
1, 31540, Note_on_c, 7, 49, 0
1, 31568, Note_on_c, 1, 42, 0
1, 31578, Note_on_c, 7, 56, 108
1, 31583, Note_on_c, 0, 56, 115
1, 31584, Note_on_c, 1, 42, 120
1, 31584, Note_on_c, 9, 40, 118
1, 31584, Note_on_c, 9, 42, 86
1, 31585, Note_on_c, 9, 42, 0
1, 31585, Note_on_c, 9, 40, 0
1, 31588, Note_on_c, 7, 56, 0
1, 31606, Note_on_c, 0, 49, 0
1, 31617, Note_on_c, 1, 42, 0
1, 31626, Note_on_c, 7, 49, 90
1, 31630, Note_on_c, 0, 56, 0
1, 31631, Note_on_c, 0, 49, 97
1, 31632, Note_on_c, 9, 42, 63
1, 31632, Note_on_c, 9, 36, 75
1, 31633, Note_on_c, 9, 36, 0
1, 31633, Note_on_c, 9, 42, 0
1, 31633, Note_on_c, 1, 42, 97
1, 31636, Note_on_c, 7, 49, 0
1, 31656, Note_on_c, 1, 42, 0
1, 31674, Note_on_c, 7, 57, 101
1, 31679, Note_on_c, 0, 57, 108
1, 31679, Note_on_c, 1, 42, 121
1, 31680, Note_on_c, 9, 36, 111
1, 31681, Note_on_c, 9, 36, 0
1, 31681, Note_on_c, 9, 42, 92
1, 31682, Note_on_c, 9, 42, 0
1, 31684, Note_on_c, 7, 57, 0
1, 31708, Note_on_c, 1, 42, 0
1, 31722, Note_on_c, 7, 56, 98
1, 31726, Note_on_c, 0, 57, 0
1, 31727, Note_on_c, 0, 56, 105
1, 31729, Note_on_c, 1, 42, 105
1, 31729, Note_on_c, 9, 42, 46
1, 31730, Note_on_c, 9, 42, 0
1, 31732, Note_on_c, 7, 56, 0
1, 31750, Note_on_c, 0, 49, 0
1, 31757, Note_on_c, 1, 42, 0
1, 31770, Note_on_c, 7, 49, 91
1, 31775, Note_on_c, 0, 49, 98
1, 31775, Note_on_c, 1, 42, 120
1, 31776, Note_on_c, 9, 40, 118
1, 31777, Note_on_c, 9, 40, 0
1, 31777, Note_on_c, 9, 42, 98
1, 31778, Note_on_c, 9, 42, 0
1, 31780, Note_on_c, 7, 49, 0
1, 31801, Note_on_c, 1, 42, 0
1, 31805, Note_on_c, 3, 69, 0
1, 31817, Note_on_c, 0, 56, 0
1, 31818, Note_on_c, 7, 56, 100
1, 31823, Note_on_c, 0, 56, 107
1, 31823, Note_on_c, 1, 42, 99
1, 31823, Note_on_c, 9, 42, 56
1, 31824, Note_on_c, 9, 42, 0
1, 31828, Note_on_c, 7, 56, 0
1, 31846, Note_on_c, 0, 49, 0
1, 31847, Note_on_c, 1, 42, 0
1, 31850, Note_on_c, 0, 42, 0
1, 31867, Note_on_c, 7, 42, 117
1, 31868, Note_on_c, 0, 56, 0
1, 31871, Note_on_c, 1, 42, 121
1, 31872, Note_on_c, 0, 42, 124
1, 31872, Note_on_c, 9, 36, 115
1, 31873, Note_on_c, 9, 36, 0
1, 31873, Note_on_c, 9, 42, 107
1, 31874, Note_on_c, 9, 42, 0
1, 31877, Note_on_c, 7, 42, 0
1, 31895, Note_on_c, 1, 42, 0
1, 31914, Note_on_c, 7, 49, 78
1, 31917, Note_on_c, 3, 69, 114
1, 31919, Note_on_c, 0, 49, 85
1, 31919, Note_on_c, 1, 42, 99
1, 31921, Note_on_c, 9, 42, 52
1, 31922, Note_on_c, 9, 42, 0
1, 31924, Note_on_c, 7, 49, 0
1, 31942, Note_on_c, 1, 42, 0
1, 31962, Note_on_c, 7, 56, 108
1, 31964, Note_on_c, 3, 69, 0
1, 31967, Note_on_c, 0, 56, 115
1, 31967, Note_on_c, 1, 42, 121
1, 31968, Note_on_c, 3, 69, 101
1, 31968, Note_on_c, 9, 40, 118
1, 31968, Note_on_c, 9, 42, 90
1, 31969, Note_on_c, 9, 42, 0
1, 31969, Note_on_c, 9, 40, 0
1, 31972, Note_on_c, 7, 56, 0
1, 31990, Note_on_c, 0, 49, 0
1, 32000, Note_on_c, 1, 42, 0
1, 32010, Note_on_c, 7, 49, 90
1, 32012, Note_on_c, 0, 56, 0
1, 32013, Note_on_c, 3, 73, 115
1, 32015, Note_on_c, 3, 69, 0
1, 32015, Note_on_c, 0, 49, 97
1, 32015, Note_on_c, 1, 42, 108
1, 32016, Note_on_c, 9, 36, 73
1, 32017, Note_on_c, 9, 36, 0
1, 32017, Note_on_c, 9, 42, 49
1, 32018, Note_on_c, 9, 42, 0
1, 32020, Note_on_c, 7, 49, 0
1, 32041, Note_on_c, 1, 42, 0
1, 32058, Note_on_c, 7, 57, 101
1, 32063, Note_on_c, 0, 57, 108
1, 32063, Note_on_c, 1, 42, 108
1, 32064, Note_on_c, 9, 36, 109
1, 32065, Note_on_c, 9, 36, 0
1, 32065, Note_on_c, 9, 42, 98
1, 32066, Note_on_c, 9, 42, 0
1, 32068, Note_on_c, 7, 57, 0
1, 32093, Note_on_c, 1, 42, 0
1, 32106, Note_on_c, 7, 56, 98
1, 32108, Note_on_c, 3, 73, 0
1, 32108, Note_on_c, 3, 74, 101
1, 32110, Note_on_c, 0, 57, 0
1, 32110, Note_on_c, 0, 49, 0
1, 32111, Note_on_c, 0, 56, 105
1, 32111, Note_on_c, 1, 42, 108
1, 32111, Note_on_c, 9, 42, 49
1, 32112, Note_on_c, 9, 42, 0
1, 32116, Note_on_c, 7, 56, 0
1, 32139, Note_on_c, 1, 42, 0
1, 32155, Note_on_c, 7, 49, 91
1, 32159, Note_on_c, 0, 49, 98
1, 32159, Note_on_c, 1, 42, 81
1, 32160, Note_on_c, 9, 40, 118
1, 32161, Note_on_c, 9, 40, 0
1, 32161, Note_on_c, 9, 42, 107
1, 32162, Note_on_c, 9, 42, 0
1, 32165, Note_on_c, 7, 49, 0
1, 32170, Note_on_c, 1, 42, 0
1, 32183, Note_on_c, 1, 45, 102
1, 32198, Note_on_c, 0, 56, 0
1, 32202, Note_on_c, 7, 56, 100
1, 32206, Note_on_c, 1, 45, 0
1, 32207, Note_on_c, 0, 56, 107
1, 32207, Note_on_c, 1, 42, 105
1, 32207, Note_on_c, 9, 42, 40
1, 32208, Note_on_c, 9, 42, 0
1, 32209, Note_on_c, 3, 74, 0
1, 32211, Note_on_c, 3, 69, 96
1, 32212, Note_on_c, 7, 56, 0
1, 32221, Note_on_c, 1, 42, 0
1, 32230, Note_on_c, 0, 49, 0
1, 32231, Note_on_c, 1, 40, 110
1, 32234, Note_on_c, 0, 42, 0
1, 32251, Note_on_c, 7, 50, 117
1, 32252, Note_on_c, 0, 56, 0
1, 32255, Note_on_c, 11, 64, 0
1, 32255, Note_on_c, 11, 69, 0
1, 32256, Note_on_c, 0, 50, 124
1, 32256, Note_on_c, 9, 36, 108
1, 32256, Note_on_c, 11, 64, 70
1, 32256, Note_on_c, 11, 69, 65
1, 32257, Note_on_c, 9, 36, 0
1, 32257, Note_on_c, 1, 40, 0
1, 32257, Note_on_c, 1, 38, 116
1, 32257, Note_on_c, 9, 42, 107
1, 32258, Note_on_c, 9, 42, 0
1, 32261, Note_on_c, 7, 50, 0
1, 32282, Note_on_c, 1, 38, 0
1, 32287, Note_on_c, 3, 69, 0
1, 32298, Note_on_c, 7, 57, 78
1, 32301, Note_on_c, 3, 69, 101
1, 32303, Note_on_c, 0, 57, 85
1, 32304, Note_on_c, 1, 38, 112
1, 32305, Note_on_c, 9, 42, 55
1, 32306, Note_on_c, 9, 42, 0
1, 32308, Note_on_c, 7, 57, 0
1, 32335, Note_on_c, 1, 38, 0
1, 32346, Note_on_c, 3, 69, 0
1, 32346, Note_on_c, 7, 64, 101
1, 32348, Note_on_c, 3, 69, 79
1, 32351, Note_on_c, 0, 64, 108
1, 32351, Note_on_c, 9, 42, 96
1, 32352, Note_on_c, 9, 42, 0
1, 32352, Note_on_c, 1, 38, 116
1, 32352, Note_on_c, 9, 40, 118
1, 32353, Note_on_c, 9, 40, 0
1, 32356, Note_on_c, 7, 64, 0
1, 32381, Note_on_c, 1, 38, 0
1, 32394, Note_on_c, 3, 69, 0
1, 32394, Note_on_c, 7, 57, 90
1, 32395, Note_on_c, 7, 50, 94
1, 32398, Note_on_c, 0, 57, 0
1, 32399, Note_on_c, 0, 50, 0
1, 32399, Note_on_c, 0, 57, 97
1, 32400, Note_on_c, 0, 50, 101
1, 32400, Note_on_c, 1, 38, 102
1, 32400, Note_on_c, 9, 36, 81
1, 32401, Note_on_c, 9, 36, 0
1, 32401, Note_on_c, 9, 42, 57
1, 32402, Note_on_c, 9, 42, 0
1, 32402, Note_on_c, 3, 74, 110
1, 32404, Note_on_c, 7, 57, 0
1, 32405, Note_on_c, 7, 50, 0
1, 32422, Note_on_c, 0, 64, 0
1, 32431, Note_on_c, 1, 38, 0
1, 32442, Note_on_c, 7, 62, 101
1, 32447, Note_on_c, 0, 62, 108
1, 32447, Note_on_c, 1, 38, 116
1, 32448, Note_on_c, 9, 36, 111
1, 32449, Note_on_c, 9, 36, 0
1, 32449, Note_on_c, 9, 42, 96
1, 32450, Note_on_c, 9, 42, 0
1, 32452, Note_on_c, 7, 62, 0
1, 32478, Note_on_c, 1, 38, 0
1, 32488, Note_on_c, 0, 57, 0
1, 32490, Note_on_c, 7, 57, 98
1, 32495, Note_on_c, 0, 57, 105
1, 32497, Note_on_c, 3, 74, 0
1, 32497, Note_on_c, 1, 38, 94
1, 32497, Note_on_c, 9, 42, 57
1, 32498, Note_on_c, 9, 42, 0
1, 32500, Note_on_c, 7, 57, 0
1, 32501, Note_on_c, 3, 73, 109
1, 32518, Note_on_c, 0, 62, 0
1, 32527, Note_on_c, 1, 38, 0
1, 32539, Note_on_c, 7, 62, 72
1, 32539, Note_on_c, 7, 50, 91
1, 32543, Note_on_c, 0, 50, 0
1, 32544, Note_on_c, 0, 62, 79
1, 32544, Note_on_c, 0, 50, 98
1, 32544, Note_on_c, 9, 40, 118
1, 32544, Note_on_c, 9, 42, 90
1, 32545, Note_on_c, 9, 42, 0
1, 32545, Note_on_c, 9, 40, 0
1, 32545, Note_on_c, 1, 38, 114
1, 32549, Note_on_c, 7, 62, 0
1, 32549, Note_on_c, 7, 50, 0
1, 32566, Note_on_c, 0, 57, 0
1, 32576, Note_on_c, 1, 38, 0
1, 32586, Note_on_c, 7, 57, 100
1, 32590, Note_on_c, 3, 73, 0
1, 32590, Note_on_c, 3, 71, 108
1, 32591, Note_on_c, 0, 57, 107
1, 32593, Note_on_c, 1, 40, 102
1, 32593, Note_on_c, 9, 42, 42
1, 32594, Note_on_c, 9, 42, 0
1, 32596, Note_on_c, 7, 57, 0
1, 32615, Note_on_c, 0, 62, 0
1, 32625, Note_on_c, 1, 40, 0
1, 32635, Note_on_c, 7, 52, 117
1, 32636, Note_on_c, 0, 57, 0
1, 32639, Note_on_c, 0, 50, 0
1, 32639, Note_on_c, 11, 69, 0
1, 32640, Note_on_c, 0, 52, 114
1, 32640, Note_on_c, 9, 42, 107
1, 32640, Note_on_c, 9, 36, 111
1, 32640, Note_on_c, 11, 71, 65
1, 32641, Note_on_c, 9, 36, 0
1, 32641, Note_on_c, 9, 42, 0
1, 32641, Note_on_c, 1, 40, 112
1, 32645, Note_on_c, 7, 52, 0
1, 32672, Note_on_c, 3, 71, 0
1, 32672, Note_on_c, 1, 40, 0
1, 32682, Note_on_c, 7, 59, 78
1, 32685, Note_on_c, 3, 71, 101
1, 32687, Note_on_c, 0, 59, 85
1, 32687, Note_on_c, 1, 40, 90
1, 32689, Note_on_c, 9, 42, 66
1, 32690, Note_on_c, 9, 42, 0
1, 32692, Note_on_c, 7, 59, 0
1, 32713, Note_on_c, 1, 40, 0
1, 32730, Note_on_c, 7, 66, 108
1, 32735, Note_on_c, 0, 66, 97
1, 32735, Note_on_c, 1, 40, 112
1, 32736, Note_on_c, 9, 40, 118
1, 32737, Note_on_c, 9, 40, 0
1, 32737, Note_on_c, 3, 69, 94
1, 32737, Note_on_c, 9, 42, 95
1, 32738, Note_on_c, 9, 42, 0
1, 32739, Note_on_c, 3, 71, 0
1, 32740, Note_on_c, 7, 66, 0
1, 32758, Note_on_c, 0, 59, 0
1, 32767, Note_on_c, 1, 40, 0
1, 32778, Note_on_c, 3, 69, 0
1, 32778, Note_on_c, 3, 73, 113
1, 32778, Note_on_c, 7, 59, 90
1, 32779, Note_on_c, 7, 52, 95
1, 32781, Note_on_c, 0, 52, 0
1, 32783, Note_on_c, 0, 59, 97
1, 32783, Note_on_c, 1, 40, 94
1, 32783, Note_on_c, 9, 42, 54
1, 32784, Note_on_c, 9, 42, 0
1, 32784, Note_on_c, 0, 52, 102
1, 32784, Note_on_c, 9, 36, 76
1, 32785, Note_on_c, 9, 36, 0
1, 32788, Note_on_c, 7, 59, 0
1, 32789, Note_on_c, 7, 52, 0
1, 32806, Note_on_c, 0, 66, 0
1, 32815, Note_on_c, 1, 40, 0
1, 32826, Note_on_c, 7, 64, 101
1, 32831, Note_on_c, 0, 64, 108
1, 32831, Note_on_c, 1, 40, 106
1, 32832, Note_on_c, 9, 42, 92
1, 32832, Note_on_c, 9, 36, 110
1, 32833, Note_on_c, 9, 36, 0
1, 32833, Note_on_c, 9, 42, 0
1, 32836, Note_on_c, 7, 64, 0
1, 32854, Note_on_c, 0, 59, 0
1, 32856, Note_on_c, 1, 40, 0
1, 32874, Note_on_c, 7, 59, 98
1, 32879, Note_on_c, 3, 73, 0
1, 32879, Note_on_c, 0, 59, 99
1, 32879, Note_on_c, 1, 40, 84
1, 32879, Note_on_c, 3, 69, 97
1, 32879, Note_on_c, 9, 42, 46
1, 32880, Note_on_c, 9, 42, 0
1, 32884, Note_on_c, 7, 59, 0
1, 32902, Note_on_c, 0, 64, 0
1, 32910, Note_on_c, 1, 40, 0
1, 32919, Note_on_c, 0, 52, 0
1, 32922, Note_on_c, 7, 52, 91
1, 32927, Note_on_c, 0, 52, 89
1, 32927, Note_on_c, 1, 40, 114
1, 32927, Note_on_c, 9, 42, 90
1, 32928, Note_on_c, 9, 42, 0
1, 32928, Note_on_c, 9, 40, 118
1, 32929, Note_on_c, 9, 40, 0
1, 32932, Note_on_c, 7, 52, 0
1, 32956, Note_on_c, 1, 40, 0
1, 32963, Note_on_c, 3, 69, 0
1, 32970, Note_on_c, 7, 64, 100
1, 32972, Note_on_c, 0, 52, 0
1, 32972, Note_on_c, 3, 69, 88
1, 32975, Note_on_c, 0, 64, 85
1, 32975, Note_on_c, 1, 40, 104
1, 32976, Note_on_c, 9, 42, 51
1, 32977, Note_on_c, 9, 42, 0
1, 32980, Note_on_c, 7, 64, 0
1, 33008, Note_on_c, 1, 40, 0
1, 33019, Note_on_c, 7, 42, 117
1, 33022, Note_on_c, 0, 59, 0
1, 33022, Note_on_c, 0, 64, 0
1, 33023, Note_on_c, 11, 64, 0
1, 33023, Note_on_c, 11, 71, 0
1, 33024, Note_on_c, 0, 42, 124
1, 33024, Note_on_c, 1, 42, 111
1, 33024, Note_on_c, 9, 36, 111
1, 33024, Note_on_c, 11, 64, 70
1, 33024, Note_on_c, 11, 69, 67
1, 33025, Note_on_c, 9, 36, 0
1, 33025, Note_on_c, 9, 42, 107
1, 33026, Note_on_c, 9, 42, 0
1, 33029, Note_on_c, 7, 42, 0
1, 33050, Note_on_c, 1, 42, 0
1, 33066, Note_on_c, 7, 49, 78
1, 33071, Note_on_c, 0, 49, 85
1, 33072, Note_on_c, 9, 42, 58
1, 33073, Note_on_c, 9, 42, 0
1, 33073, Note_on_c, 1, 42, 103
1, 33076, Note_on_c, 7, 49, 0
1, 33108, Note_on_c, 1, 42, 0
1, 33114, Note_on_c, 7, 56, 108
1, 33119, Note_on_c, 0, 56, 115
1, 33120, Note_on_c, 9, 40, 118
1, 33120, Note_on_c, 9, 42, 86
1, 33121, Note_on_c, 9, 42, 0
1, 33121, Note_on_c, 9, 40, 0
1, 33121, Note_on_c, 1, 42, 111
1, 33124, Note_on_c, 7, 56, 0
1, 33142, Note_on_c, 0, 49, 0
1, 33147, Note_on_c, 1, 42, 0
1, 33162, Note_on_c, 7, 49, 90
1, 33166, Note_on_c, 0, 56, 0
1, 33167, Note_on_c, 0, 49, 97
1, 33168, Note_on_c, 9, 42, 63
1, 33168, Note_on_c, 9, 36, 75
1, 33169, Note_on_c, 9, 36, 0
1, 33169, Note_on_c, 9, 42, 0
1, 33169, Note_on_c, 1, 42, 105
1, 33172, Note_on_c, 7, 49, 0
1, 33204, Note_on_c, 1, 42, 0
1, 33210, Note_on_c, 7, 57, 101
1, 33215, Note_on_c, 0, 57, 108
1, 33215, Note_on_c, 1, 42, 103
1, 33216, Note_on_c, 9, 36, 111
1, 33217, Note_on_c, 9, 36, 0
1, 33217, Note_on_c, 9, 42, 92
1, 33218, Note_on_c, 9, 42, 0
1, 33220, Note_on_c, 7, 57, 0
1, 33241, Note_on_c, 1, 42, 0
1, 33258, Note_on_c, 7, 56, 98
1, 33262, Note_on_c, 0, 57, 0
1, 33263, Note_on_c, 0, 56, 105
1, 33263, Note_on_c, 1, 42, 101
1, 33265, Note_on_c, 9, 42, 46
1, 33266, Note_on_c, 9, 42, 0
1, 33268, Note_on_c, 7, 56, 0
1, 33286, Note_on_c, 0, 49, 0
1, 33287, Note_on_c, 1, 42, 0
1, 33306, Note_on_c, 7, 49, 91
1, 33311, Note_on_c, 0, 49, 98
1, 33311, Note_on_c, 1, 42, 111
1, 33312, Note_on_c, 9, 40, 118
1, 33313, Note_on_c, 9, 40, 0
1, 33313, Note_on_c, 9, 42, 98
1, 33314, Note_on_c, 9, 42, 0
1, 33316, Note_on_c, 7, 49, 0
1, 33334, Note_on_c, 1, 42, 0
1, 33353, Note_on_c, 0, 56, 0
1, 33354, Note_on_c, 7, 56, 100
1, 33359, Note_on_c, 0, 56, 107
1, 33359, Note_on_c, 1, 42, 99
1, 33359, Note_on_c, 9, 42, 56
1, 33360, Note_on_c, 9, 42, 0
1, 33361, Note_on_c, 3, 69, 0
1, 33364, Note_on_c, 7, 56, 0
1, 33382, Note_on_c, 0, 49, 0
1, 33383, Note_on_c, 1, 42, 0
1, 33386, Note_on_c, 0, 42, 0
1, 33403, Note_on_c, 7, 42, 117
1, 33404, Note_on_c, 0, 56, 0
1, 33407, Note_on_c, 1, 42, 117
1, 33408, Note_on_c, 0, 42, 124
1, 33408, Note_on_c, 9, 36, 115
1, 33409, Note_on_c, 9, 36, 0
1, 33409, Note_on_c, 9, 42, 107
1, 33410, Note_on_c, 9, 42, 0
1, 33413, Note_on_c, 7, 42, 0
1, 33436, Note_on_c, 1, 42, 0
1, 33450, Note_on_c, 7, 49, 78
1, 33455, Note_on_c, 0, 49, 85
1, 33455, Note_on_c, 1, 42, 114
1, 33457, Note_on_c, 9, 42, 52
1, 33458, Note_on_c, 9, 42, 0
1, 33460, Note_on_c, 7, 49, 0
1, 33490, Note_on_c, 1, 42, 0
1, 33498, Note_on_c, 7, 56, 108
1, 33503, Note_on_c, 0, 56, 115
1, 33503, Note_on_c, 1, 42, 114
1, 33504, Note_on_c, 9, 40, 118
1, 33504, Note_on_c, 9, 42, 90
1, 33505, Note_on_c, 9, 42, 0
1, 33505, Note_on_c, 9, 40, 0
1, 33508, Note_on_c, 7, 56, 0
1, 33526, Note_on_c, 0, 49, 0
1, 33532, Note_on_c, 1, 42, 0
1, 33546, Note_on_c, 7, 49, 90
1, 33548, Note_on_c, 0, 56, 0
1, 33551, Note_on_c, 0, 49, 97
1, 33552, Note_on_c, 9, 36, 73
1, 33553, Note_on_c, 9, 36, 0
1, 33553, Note_on_c, 1, 42, 101
1, 33553, Note_on_c, 9, 42, 49
1, 33554, Note_on_c, 9, 42, 0
1, 33556, Note_on_c, 7, 49, 0
1, 33580, Note_on_c, 1, 42, 0
1, 33594, Note_on_c, 7, 57, 101
1, 33599, Note_on_c, 0, 57, 108
1, 33599, Note_on_c, 1, 42, 111
1, 33600, Note_on_c, 9, 36, 109
1, 33601, Note_on_c, 9, 36, 0
1, 33601, Note_on_c, 9, 42, 98
1, 33602, Note_on_c, 9, 42, 0
1, 33604, Note_on_c, 7, 57, 0
1, 33642, Note_on_c, 7, 56, 98
1, 33646, Note_on_c, 0, 57, 0
1, 33646, Note_on_c, 0, 49, 0
1, 33646, Note_on_c, 1, 42, 0
1, 33647, Note_on_c, 0, 56, 105
1, 33647, Note_on_c, 9, 42, 49
1, 33648, Note_on_c, 9, 42, 0
1, 33649, Note_on_c, 1, 40, 105
1, 33652, Note_on_c, 7, 56, 0
1, 33689, Note_on_c, 1, 40, 0
1, 33691, Note_on_c, 7, 49, 91
1, 33695, Note_on_c, 0, 49, 98
1, 33696, Note_on_c, 1, 40, 105
1, 33696, Note_on_c, 9, 40, 118
1, 33697, Note_on_c, 9, 40, 0
1, 33697, Note_on_c, 9, 42, 107
1, 33698, Note_on_c, 9, 42, 0
1, 33701, Note_on_c, 7, 49, 0
1, 33734, Note_on_c, 0, 56, 0
1, 33738, Note_on_c, 7, 56, 100
1, 33743, Note_on_c, 1, 40, 0
1, 33743, Note_on_c, 0, 56, 107
1, 33743, Note_on_c, 9, 42, 40
1, 33744, Note_on_c, 9, 42, 0
1, 33744, Note_on_c, 1, 42, 93
1, 33748, Note_on_c, 7, 56, 0
1, 33766, Note_on_c, 0, 49, 0
1, 33770, Note_on_c, 0, 42, 0
1, 33776, Note_on_c, 1, 42, 0
1, 33787, Note_on_c, 7, 42, 117
1, 33788, Note_on_c, 0, 56, 0
1, 33791, Note_on_c, 11, 69, 0
1, 33791, Note_on_c, 11, 64, 0
1, 33792, Note_on_c, 0, 42, 124
1, 33792, Note_on_c, 1, 30, 121
1, 33792, Note_on_c, 9, 36, 112
1, 33792, Note_on_c, 11, 64, 70
1, 33792, Note_on_c, 11, 69, 70
1, 33793, Note_on_c, 9, 36, 0
1, 33793, Note_on_c, 9, 42, 95
1, 33794, Note_on_c, 9, 42, 0
1, 33797, Note_on_c, 7, 42, 0
1, 33824, Note_on_c, 1, 30, 0
1, 33834, Note_on_c, 7, 49, 78
1, 33839, Note_on_c, 0, 49, 85
1, 33839, Note_on_c, 1, 30, 93
1, 33841, Note_on_c, 9, 42, 39
1, 33842, Note_on_c, 9, 42, 0
1, 33844, Note_on_c, 7, 49, 0
1, 33871, Note_on_c, 1, 30, 0
1, 33882, Note_on_c, 7, 56, 108
1, 33887, Note_on_c, 0, 56, 115
1, 33887, Note_on_c, 1, 30, 121
1, 33888, Note_on_c, 9, 40, 118
1, 33889, Note_on_c, 9, 40, 0
1, 33889, Note_on_c, 9, 42, 95
1, 33890, Note_on_c, 9, 42, 0
1, 33892, Note_on_c, 7, 56, 0
1, 33910, Note_on_c, 0, 49, 0
1, 33919, Note_on_c, 1, 30, 0
1, 33930, Note_on_c, 7, 49, 90
1, 33934, Note_on_c, 0, 56, 0
1, 33935, Note_on_c, 0, 49, 97
1, 33936, Note_on_c, 9, 36, 81
1, 33937, Note_on_c, 9, 36, 0
1, 33937, Note_on_c, 1, 30, 105
1, 33937, Note_on_c, 9, 42, 52
1, 33938, Note_on_c, 9, 42, 0
1, 33940, Note_on_c, 7, 49, 0
1, 33968, Note_on_c, 1, 30, 0
1, 33978, Note_on_c, 7, 57, 101
1, 33983, Note_on_c, 0, 57, 108
1, 33983, Note_on_c, 1, 30, 121
1, 33983, Note_on_c, 9, 42, 95
1, 33984, Note_on_c, 9, 42, 0
1, 33984, Note_on_c, 9, 36, 109
1, 33985, Note_on_c, 9, 36, 0
1, 33988, Note_on_c, 7, 57, 0
1, 34013, Note_on_c, 1, 30, 0
1, 34026, Note_on_c, 7, 56, 98
1, 34030, Note_on_c, 0, 57, 0
1, 34031, Note_on_c, 0, 56, 105
1, 34031, Note_on_c, 1, 30, 101
1, 34031, Note_on_c, 9, 42, 63
1, 34032, Note_on_c, 9, 42, 0
1, 34036, Note_on_c, 7, 56, 0
1, 34054, Note_on_c, 0, 49, 0
1, 34059, Note_on_c, 1, 30, 0
1, 34074, Note_on_c, 7, 49, 91
1, 34079, Note_on_c, 0, 49, 98
1, 34079, Note_on_c, 1, 30, 121
1, 34079, Note_on_c, 9, 42, 98
1, 34080, Note_on_c, 9, 42, 0
1, 34080, Note_on_c, 9, 40, 118
1, 34081, Note_on_c, 9, 40, 0
1, 34084, Note_on_c, 7, 49, 0
1, 34110, Note_on_c, 1, 30, 0
1, 34121, Note_on_c, 0, 56, 0
1, 34122, Note_on_c, 7, 56, 100
1, 34127, Note_on_c, 0, 56, 107
1, 34127, Note_on_c, 1, 30, 114
1, 34127, Note_on_c, 9, 42, 54
1, 34128, Note_on_c, 9, 42, 0
1, 34132, Note_on_c, 7, 56, 0
1, 34149, Note_on_c, 1, 30, 0
1, 34150, Note_on_c, 0, 49, 0
1, 34154, Note_on_c, 0, 42, 0
1, 34171, Note_on_c, 7, 42, 117
1, 34172, Note_on_c, 0, 56, 0
1, 34175, Note_on_c, 1, 42, 105
1, 34175, Note_on_c, 9, 42, 110
1, 34176, Note_on_c, 9, 42, 0
1, 34176, Note_on_c, 0, 42, 124
1, 34176, Note_on_c, 9, 36, 112
1, 34177, Note_on_c, 9, 36, 0
1, 34181, Note_on_c, 7, 42, 0
1, 34206, Note_on_c, 1, 42, 0
1, 34218, Note_on_c, 7, 49, 78
1, 34223, Note_on_c, 0, 49, 85
1, 34223, Note_on_c, 9, 42, 58
1, 34224, Note_on_c, 9, 42, 0
1, 34225, Note_on_c, 1, 42, 108
1, 34228, Note_on_c, 7, 49, 0
1, 34254, Note_on_c, 1, 42, 0
1, 34266, Note_on_c, 7, 56, 108
1, 34271, Note_on_c, 0, 56, 115
1, 34271, Note_on_c, 1, 42, 121
1, 34271, Note_on_c, 9, 42, 95
1, 34272, Note_on_c, 9, 42, 0
1, 34272, Note_on_c, 3, 73, 107
1, 34272, Note_on_c, 9, 40, 118
1, 34273, Note_on_c, 9, 40, 0
1, 34276, Note_on_c, 7, 56, 0
1, 34294, Note_on_c, 0, 49, 0
1, 34299, Note_on_c, 1, 42, 0
1, 34314, Note_on_c, 7, 49, 90
1, 34316, Note_on_c, 0, 56, 0
1, 34319, Note_on_c, 0, 49, 97
1, 34320, Note_on_c, 3, 74, 86
1, 34320, Note_on_c, 9, 42, 51
1, 34320, Note_on_c, 9, 36, 79
1, 34321, Note_on_c, 9, 36, 0
1, 34321, Note_on_c, 9, 42, 0
1, 34321, Note_on_c, 1, 42, 105
1, 34324, Note_on_c, 7, 49, 0
1, 34326, Note_on_c, 3, 73, 0
1, 34345, Note_on_c, 1, 42, 0
1, 34362, Note_on_c, 7, 57, 101
1, 34367, Note_on_c, 3, 74, 0
1, 34367, Note_on_c, 0, 57, 108
1, 34367, Note_on_c, 1, 42, 121
1, 34367, Note_on_c, 9, 42, 96
1, 34368, Note_on_c, 9, 42, 0
1, 34368, Note_on_c, 9, 36, 111
1, 34369, Note_on_c, 9, 36, 0
1, 34371, Note_on_c, 3, 73, 105
1, 34372, Note_on_c, 7, 57, 0
1, 34394, Note_on_c, 1, 42, 0
1, 34410, Note_on_c, 7, 56, 98
1, 34414, Note_on_c, 0, 49, 0
1, 34414, Note_on_c, 0, 57, 0
1, 34415, Note_on_c, 0, 56, 105
1, 34415, Note_on_c, 1, 40, 111
1, 34416, Note_on_c, 9, 42, 56
1, 34417, Note_on_c, 9, 42, 0
1, 34420, Note_on_c, 7, 56, 0
1, 34445, Note_on_c, 1, 40, 0
1, 34459, Note_on_c, 7, 49, 91
1, 34463, Note_on_c, 0, 49, 98
1, 34464, Note_on_c, 3, 73, 0
1, 34464, Note_on_c, 3, 71, 93
1, 34464, Note_on_c, 9, 40, 118
1, 34464, Note_on_c, 9, 42, 90
1, 34465, Note_on_c, 9, 42, 0
1, 34465, Note_on_c, 9, 40, 0
1, 34465, Note_on_c, 1, 40, 110
1, 34469, Note_on_c, 7, 49, 0
1, 34502, Note_on_c, 0, 56, 0
1, 34503, Note_on_c, 1, 40, 0
1, 34506, Note_on_c, 7, 56, 100
1, 34511, Note_on_c, 0, 56, 107
1, 34512, Note_on_c, 1, 40, 102
1, 34512, Note_on_c, 9, 42, 52
1, 34513, Note_on_c, 9, 42, 0
1, 34516, Note_on_c, 7, 56, 0
1, 34534, Note_on_c, 0, 49, 0
1, 34538, Note_on_c, 0, 42, 0
1, 34546, Note_on_c, 1, 40, 0
1, 34555, Note_on_c, 7, 45, 117
1, 34556, Note_on_c, 0, 56, 0
1, 34558, Note_on_c, 3, 69, 72
1, 34559, Note_on_c, 11, 64, 0
1, 34559, Note_on_c, 3, 71, 0
1, 34559, Note_on_c, 11, 69, 0
1, 34560, Note_on_c, 0, 45, 124
1, 34560, Note_on_c, 1, 33, 118
1, 34560, Note_on_c, 9, 42, 114
1, 34560, Note_on_c, 9, 36, 112
1, 34560, Note_on_c, 11, 69, 70
1, 34560, Note_on_c, 11, 64, 77
1, 34561, Note_on_c, 9, 36, 0
1, 34561, Note_on_c, 9, 42, 0
1, 34565, Note_on_c, 7, 45, 0
1, 34581, Note_on_c, 3, 69, 0
1, 34582, Note_on_c, 1, 33, 0
1, 34602, Note_on_c, 7, 52, 78
1, 34607, Note_on_c, 0, 52, 85
1, 34607, Note_on_c, 1, 33, 91
1, 34607, Note_on_c, 4, 61, 101
1, 34607, Note_on_c, 4, 57, 101
1, 34607, Note_on_c, 4, 64, 94
1, 34609, Note_on_c, 9, 42, 58
1, 34610, Note_on_c, 9, 42, 0
1, 34612, Note_on_c, 7, 52, 0
1, 34640, Note_on_c, 1, 33, 0
1, 34650, Note_on_c, 7, 59, 108
1, 34654, Note_on_c, 4, 57, 0
1, 34654, Note_on_c, 4, 64, 0
1, 34654, Note_on_c, 4, 61, 0
1, 34655, Note_on_c, 0, 59, 115
1, 34655, Note_on_c, 1, 33, 116
1, 34655, Note_on_c, 4, 61, 91
1, 34655, Note_on_c, 4, 57, 101
1, 34655, Note_on_c, 4, 64, 98
1, 34656, Note_on_c, 9, 40, 118
1, 34657, Note_on_c, 9, 40, 0
1, 34657, Note_on_c, 9, 42, 92
1, 34658, Note_on_c, 9, 42, 0
1, 34660, Note_on_c, 7, 59, 0
1, 34678, Note_on_c, 0, 52, 0
1, 34690, Note_on_c, 1, 33, 0
1, 34698, Note_on_c, 7, 52, 90
1, 34702, Note_on_c, 4, 57, 0
1, 34702, Note_on_c, 4, 61, 0
1, 34702, Note_on_c, 4, 64, 0
1, 34702, Note_on_c, 0, 59, 0
1, 34703, Note_on_c, 0, 52, 97
1, 34703, Note_on_c, 1, 33, 99
1, 34703, Note_on_c, 4, 64, 94
1, 34703, Note_on_c, 4, 61, 96
1, 34703, Note_on_c, 4, 57, 96
1, 34704, Note_on_c, 9, 36, 75
1, 34705, Note_on_c, 9, 36, 0
1, 34705, Note_on_c, 9, 42, 55
1, 34706, Note_on_c, 9, 42, 0
1, 34708, Note_on_c, 7, 52, 0
1, 34736, Note_on_c, 1, 33, 0
1, 34746, Note_on_c, 7, 61, 101
1, 34751, Note_on_c, 0, 61, 108
1, 34751, Note_on_c, 1, 33, 121
1, 34752, Note_on_c, 9, 36, 112
1, 34753, Note_on_c, 9, 36, 0
1, 34753, Note_on_c, 9, 42, 90
1, 34754, Note_on_c, 9, 42, 0
1, 34756, Note_on_c, 7, 61, 0
1, 34784, Note_on_c, 1, 33, 0
1, 34794, Note_on_c, 7, 59, 98
1, 34798, Note_on_c, 4, 57, 0
1, 34798, Note_on_c, 4, 61, 0
1, 34798, Note_on_c, 0, 61, 0
1, 34798, Note_on_c, 4, 64, 0
1, 34799, Note_on_c, 0, 59, 105
1, 34799, Note_on_c, 1, 33, 84
1, 34799, Note_on_c, 4, 64, 85
1, 34799, Note_on_c, 4, 57, 103
1, 34799, Note_on_c, 4, 61, 103
1, 34799, Note_on_c, 9, 42, 58
1, 34800, Note_on_c, 9, 42, 0
1, 34804, Note_on_c, 7, 59, 0
1, 34822, Note_on_c, 0, 52, 0
1, 34828, Note_on_c, 1, 33, 0
1, 34842, Note_on_c, 7, 52, 91
1, 34847, Note_on_c, 0, 52, 98
1, 34847, Note_on_c, 1, 33, 121
1, 34847, Note_on_c, 9, 42, 80
1, 34848, Note_on_c, 9, 42, 0
1, 34848, Note_on_c, 9, 40, 118
1, 34849, Note_on_c, 9, 40, 0
1, 34852, Note_on_c, 7, 52, 0
1, 34882, Note_on_c, 1, 33, 0
1, 34889, Note_on_c, 0, 59, 0
1, 34890, Note_on_c, 7, 59, 100
1, 34894, Note_on_c, 4, 57, 0
1, 34894, Note_on_c, 4, 64, 0
1, 34894, Note_on_c, 4, 61, 0
1, 34895, Note_on_c, 0, 59, 107
1, 34895, Note_on_c, 1, 33, 91
1, 34895, Note_on_c, 4, 64, 85
1, 34895, Note_on_c, 4, 57, 98
1, 34895, Note_on_c, 4, 61, 98
1, 34895, Note_on_c, 9, 42, 52
1, 34896, Note_on_c, 9, 42, 0
1, 34900, Note_on_c, 7, 59, 0
1, 34918, Note_on_c, 0, 52, 0
1, 34922, Note_on_c, 0, 45, 0
1, 34924, Note_on_c, 1, 33, 0
1, 34939, Note_on_c, 7, 45, 117
1, 34940, Note_on_c, 0, 59, 0
1, 34943, Note_on_c, 1, 33, 116
1, 34943, Note_on_c, 9, 42, 114
1, 34944, Note_on_c, 9, 42, 0
1, 34944, Note_on_c, 0, 45, 124
1, 34944, Note_on_c, 9, 36, 110
1, 34945, Note_on_c, 9, 36, 0
1, 34949, Note_on_c, 7, 45, 0
1, 34967, Note_on_c, 4, 57, 0
1, 34967, Note_on_c, 4, 64, 0
1, 34967, Note_on_c, 4, 61, 0
1, 34977, Note_on_c, 1, 33, 0
1, 34986, Note_on_c, 7, 52, 78
1, 34991, Note_on_c, 0, 52, 85
1, 34991, Note_on_c, 1, 33, 91
1, 34991, Note_on_c, 4, 64, 97
1, 34991, Note_on_c, 4, 61, 101
1, 34991, Note_on_c, 4, 57, 101
1, 34991, Note_on_c, 9, 42, 56
1, 34992, Note_on_c, 9, 42, 0
1, 34996, Note_on_c, 7, 52, 0
1, 35019, Note_on_c, 1, 33, 0
1, 35034, Note_on_c, 7, 59, 108
1, 35038, Note_on_c, 4, 61, 0
1, 35038, Note_on_c, 4, 57, 0
1, 35038, Note_on_c, 4, 64, 0
1, 35039, Note_on_c, 0, 59, 115
1, 35039, Note_on_c, 1, 33, 114
1, 35039, Note_on_c, 4, 61, 95
1, 35039, Note_on_c, 4, 57, 95
1, 35039, Note_on_c, 4, 64, 87
1, 35039, Note_on_c, 9, 42, 89
1, 35040, Note_on_c, 9, 42, 0
1, 35040, Note_on_c, 9, 40, 118
1, 35041, Note_on_c, 9, 40, 0
1, 35044, Note_on_c, 7, 59, 0
1, 35062, Note_on_c, 0, 52, 0
1, 35072, Note_on_c, 1, 33, 0
1, 35082, Note_on_c, 7, 52, 90
1, 35084, Note_on_c, 0, 59, 0
1, 35086, Note_on_c, 4, 57, 0
1, 35086, Note_on_c, 4, 61, 0
1, 35086, Note_on_c, 4, 64, 0
1, 35087, Note_on_c, 0, 52, 97
1, 35087, Note_on_c, 1, 33, 85
1, 35087, Note_on_c, 4, 64, 98
1, 35087, Note_on_c, 4, 61, 98
1, 35087, Note_on_c, 4, 57, 98
1, 35087, Note_on_c, 9, 42, 54
1, 35088, Note_on_c, 9, 42, 0
1, 35088, Note_on_c, 9, 36, 72
1, 35089, Note_on_c, 9, 36, 0
1, 35092, Note_on_c, 7, 52, 0
1, 35116, Note_on_c, 1, 33, 0
1, 35130, Note_on_c, 7, 61, 101
1, 35132, Note_on_c, 0, 52, 0
1, 35135, Note_on_c, 0, 61, 108
1, 35135, Note_on_c, 1, 33, 121
1, 35136, Note_on_c, 9, 36, 111
1, 35137, Note_on_c, 9, 36, 0
1, 35137, Note_on_c, 9, 42, 88
1, 35138, Note_on_c, 9, 42, 0
1, 35140, Note_on_c, 7, 61, 0
1, 35170, Note_on_c, 1, 33, 0
1, 35178, Note_on_c, 7, 59, 98
1, 35182, Note_on_c, 4, 57, 0
1, 35182, Note_on_c, 0, 61, 0
1, 35182, Note_on_c, 4, 64, 0
1, 35182, Note_on_c, 4, 61, 0
1, 35183, Note_on_c, 0, 59, 105
1, 35183, Note_on_c, 1, 33, 89
1, 35183, Note_on_c, 4, 57, 111
1, 35183, Note_on_c, 4, 61, 111
1, 35183, Note_on_c, 4, 64, 86
1, 35185, Note_on_c, 9, 42, 57
1, 35186, Note_on_c, 9, 42, 0
1, 35188, Note_on_c, 7, 59, 0
1, 35213, Note_on_c, 1, 33, 0
1, 35226, Note_on_c, 7, 52, 91
1, 35231, Note_on_c, 0, 52, 98
1, 35231, Note_on_c, 1, 33, 114
1, 35232, Note_on_c, 9, 40, 118
1, 35233, Note_on_c, 9, 40, 0
1, 35233, Note_on_c, 9, 42, 92
1, 35234, Note_on_c, 9, 42, 0
1, 35236, Note_on_c, 7, 52, 0
1, 35269, Note_on_c, 1, 33, 0
1, 35270, Note_on_c, 0, 59, 0
1, 35274, Note_on_c, 7, 59, 100
1, 35276, Note_on_c, 0, 52, 0
1, 35278, Note_on_c, 4, 64, 0
1, 35278, Note_on_c, 4, 57, 0
1, 35278, Note_on_c, 4, 61, 0
1, 35279, Note_on_c, 0, 59, 107
1, 35279, Note_on_c, 1, 33, 104
1, 35279, Note_on_c, 4, 57, 87
1, 35279, Note_on_c, 4, 61, 87
1, 35279, Note_on_c, 4, 64, 70
1, 35281, Note_on_c, 9, 42, 47
1, 35282, Note_on_c, 9, 42, 0
1, 35284, Note_on_c, 7, 59, 0
1, 35306, Note_on_c, 0, 45, 0
1, 35310, Note_on_c, 1, 33, 0
1, 35323, Note_on_c, 7, 42, 117
1, 35324, Note_on_c, 0, 59, 0
1, 35327, Note_on_c, 1, 30, 101
1, 35328, Note_on_c, 0, 42, 124
1, 35328, Note_on_c, 9, 36, 108
1, 35329, Note_on_c, 9, 36, 0
1, 35329, Note_on_c, 9, 42, 107
1, 35330, Note_on_c, 9, 42, 0
1, 35333, Note_on_c, 7, 42, 0
1, 35351, Note_on_c, 4, 57, 0
1, 35351, Note_on_c, 4, 64, 0
1, 35351, Note_on_c, 4, 61, 0
1, 35357, Note_on_c, 1, 30, 0
1, 35370, Note_on_c, 7, 49, 78
1, 35375, Note_on_c, 0, 49, 85
1, 35375, Note_on_c, 1, 30, 101
1, 35375, Note_on_c, 4, 61, 88
1, 35375, Note_on_c, 4, 64, 92
1, 35375, Note_on_c, 4, 57, 88
1, 35377, Note_on_c, 9, 42, 55
1, 35378, Note_on_c, 9, 42, 0
1, 35380, Note_on_c, 7, 49, 0
1, 35401, Note_on_c, 1, 30, 0
1, 35418, Note_on_c, 7, 56, 108
1, 35422, Note_on_c, 4, 64, 0
1, 35422, Note_on_c, 4, 57, 0
1, 35422, Note_on_c, 4, 61, 0
1, 35423, Note_on_c, 0, 56, 115
1, 35423, Note_on_c, 1, 30, 121
1, 35423, Note_on_c, 4, 57, 92
1, 35423, Note_on_c, 4, 64, 78
1, 35423, Note_on_c, 4, 61, 92
1, 35423, Note_on_c, 9, 42, 96
1, 35424, Note_on_c, 9, 42, 0
1, 35424, Note_on_c, 9, 40, 118
1, 35425, Note_on_c, 9, 40, 0
1, 35428, Note_on_c, 7, 56, 0
1, 35446, Note_on_c, 0, 49, 0
1, 35458, Note_on_c, 1, 30, 0
1, 35466, Note_on_c, 7, 49, 90
1, 35468, Note_on_c, 0, 56, 0
1, 35470, Note_on_c, 4, 64, 0
1, 35470, Note_on_c, 4, 57, 0
1, 35470, Note_on_c, 4, 61, 0
1, 35471, Note_on_c, 0, 49, 97
1, 35471, Note_on_c, 1, 30, 93
1, 35471, Note_on_c, 4, 57, 98
1, 35471, Note_on_c, 4, 64, 87
1, 35471, Note_on_c, 4, 61, 98
1, 35472, Note_on_c, 9, 36, 81
1, 35473, Note_on_c, 9, 36, 0
1, 35473, Note_on_c, 9, 42, 57
1, 35474, Note_on_c, 9, 42, 0
1, 35476, Note_on_c, 7, 49, 0
1, 35496, Note_on_c, 1, 30, 0
1, 35514, Note_on_c, 7, 57, 101
1, 35516, Note_on_c, 0, 49, 0
1, 35519, Note_on_c, 0, 57, 108
1, 35519, Note_on_c, 1, 30, 120
1, 35520, Note_on_c, 9, 36, 111
1, 35521, Note_on_c, 9, 36, 0
1, 35521, Note_on_c, 9, 42, 96
1, 35522, Note_on_c, 9, 42, 0
1, 35524, Note_on_c, 7, 57, 0
1, 35549, Note_on_c, 1, 30, 0
1, 35562, Note_on_c, 7, 56, 98
1, 35566, Note_on_c, 4, 61, 0
1, 35566, Note_on_c, 0, 57, 0
1, 35566, Note_on_c, 4, 57, 0
1, 35566, Note_on_c, 4, 64, 0
1, 35567, Note_on_c, 0, 56, 105
1, 35567, Note_on_c, 1, 30, 103
1, 35567, Note_on_c, 4, 61, 99
1, 35567, Note_on_c, 4, 64, 86
1, 35567, Note_on_c, 4, 57, 99
1, 35569, Note_on_c, 9, 42, 57
1, 35570, Note_on_c, 9, 42, 0
1, 35572, Note_on_c, 7, 56, 0
1, 35595, Note_on_c, 1, 30, 0
1, 35610, Note_on_c, 7, 49, 91
1, 35615, Note_on_c, 0, 49, 98
1, 35615, Note_on_c, 1, 30, 117
1, 35616, Note_on_c, 9, 40, 118
1, 35616, Note_on_c, 9, 42, 90
1, 35617, Note_on_c, 9, 42, 0
1, 35617, Note_on_c, 9, 40, 0
1, 35620, Note_on_c, 7, 49, 0
1, 35650, Note_on_c, 1, 30, 0
1, 35654, Note_on_c, 0, 56, 0
1, 35658, Note_on_c, 7, 56, 100
1, 35660, Note_on_c, 0, 49, 0
1, 35662, Note_on_c, 4, 57, 0
1, 35662, Note_on_c, 4, 61, 0
1, 35662, Note_on_c, 4, 64, 0
1, 35663, Note_on_c, 0, 56, 107
1, 35663, Note_on_c, 1, 38, 102
1, 35663, Note_on_c, 4, 61, 95
1, 35663, Note_on_c, 4, 64, 88
1, 35663, Note_on_c, 4, 57, 95
1, 35665, Note_on_c, 9, 42, 42
1, 35666, Note_on_c, 9, 42, 0
1, 35668, Note_on_c, 7, 56, 0
1, 35690, Note_on_c, 0, 42, 0
1, 35693, Note_on_c, 1, 38, 0
1, 35707, Note_on_c, 7, 50, 117
1, 35708, Note_on_c, 0, 56, 0
1, 35711, Note_on_c, 1, 38, 85
1, 35712, Note_on_c, 0, 50, 124
1, 35712, Note_on_c, 9, 42, 107
1, 35712, Note_on_c, 9, 36, 111
1, 35713, Note_on_c, 9, 36, 0
1, 35713, Note_on_c, 9, 42, 0
1, 35717, Note_on_c, 7, 50, 0
1, 35735, Note_on_c, 4, 57, 0
1, 35735, Note_on_c, 4, 61, 0
1, 35735, Note_on_c, 4, 64, 0
1, 35743, Note_on_c, 1, 38, 0
1, 35754, Note_on_c, 7, 57, 78
1, 35759, Note_on_c, 0, 57, 85
1, 35759, Note_on_c, 1, 38, 106
1, 35759, Note_on_c, 4, 64, 91
1, 35759, Note_on_c, 4, 57, 99
1, 35759, Note_on_c, 4, 61, 99
1, 35761, Note_on_c, 9, 42, 66
1, 35762, Note_on_c, 9, 42, 0
1, 35764, Note_on_c, 7, 57, 0
1, 35792, Note_on_c, 1, 38, 0
1, 35802, Note_on_c, 7, 64, 101
1, 35805, Note_on_c, 9, 40, 81
1, 35806, Note_on_c, 9, 40, 0
1, 35806, Note_on_c, 4, 57, 0
1, 35806, Note_on_c, 4, 61, 0
1, 35806, Note_on_c, 4, 64, 0
1, 35807, Note_on_c, 0, 64, 108
1, 35807, Note_on_c, 1, 38, 106
1, 35807, Note_on_c, 4, 61, 89
1, 35807, Note_on_c, 4, 57, 89
1, 35807, Note_on_c, 4, 64, 69
1, 35808, Note_on_c, 9, 40, 118
1, 35809, Note_on_c, 9, 40, 0
1, 35809, Note_on_c, 9, 42, 95
1, 35810, Note_on_c, 9, 42, 0
1, 35812, Note_on_c, 7, 64, 0
1, 35841, Note_on_c, 1, 38, 0
1, 35850, Note_on_c, 7, 57, 90
1, 35851, Note_on_c, 7, 50, 94
1, 35854, Note_on_c, 4, 57, 0
1, 35854, Note_on_c, 0, 57, 0
1, 35855, Note_on_c, 4, 64, 0
1, 35855, Note_on_c, 4, 61, 0
1, 35855, Note_on_c, 0, 50, 0
1, 35855, Note_on_c, 0, 57, 97
1, 35855, Note_on_c, 1, 38, 104
1, 35855, Note_on_c, 4, 57, 112
1, 35855, Note_on_c, 4, 62, 112
1, 35855, Note_on_c, 4, 66, 92
1, 35855, Note_on_c, 9, 42, 54
1, 35856, Note_on_c, 9, 42, 0
1, 35856, Note_on_c, 0, 50, 101
1, 35856, Note_on_c, 9, 36, 76
1, 35857, Note_on_c, 9, 36, 0
1, 35860, Note_on_c, 7, 57, 0
1, 35861, Note_on_c, 7, 50, 0
1, 35878, Note_on_c, 0, 64, 0
1, 35886, Note_on_c, 1, 38, 0
1, 35898, Note_on_c, 7, 62, 101
1, 35903, Note_on_c, 0, 62, 108
1, 35903, Note_on_c, 1, 38, 101
1, 35904, Note_on_c, 9, 42, 92
1, 35904, Note_on_c, 9, 36, 110
1, 35904, Note_on_c, 11, 71, 67
1, 35905, Note_on_c, 9, 36, 0
1, 35905, Note_on_c, 9, 42, 0
1, 35908, Note_on_c, 7, 62, 0
1, 35937, Note_on_c, 1, 38, 0
1, 35944, Note_on_c, 0, 57, 0
1, 35946, Note_on_c, 7, 57, 98
1, 35950, Note_on_c, 4, 62, 0
1, 35950, Note_on_c, 4, 57, 0
1, 35950, Note_on_c, 4, 66, 0
1, 35951, Note_on_c, 0, 57, 105
1, 35951, Note_on_c, 4, 66, 86
1, 35951, Note_on_c, 4, 62, 104
1, 35951, Note_on_c, 4, 57, 104
1, 35951, Note_on_c, 9, 42, 46
1, 35952, Note_on_c, 9, 42, 0
1, 35952, Note_on_c, 1, 38, 116
1, 35952, Note_on_c, 9, 36, 110
1, 35953, Note_on_c, 9, 36, 0
1, 35956, Note_on_c, 7, 57, 0
1, 35974, Note_on_c, 0, 62, 0
1, 35980, Note_on_c, 1, 38, 0
1, 35995, Note_on_c, 7, 62, 72
1, 35995, Note_on_c, 7, 50, 91
1, 35999, Note_on_c, 0, 50, 0
1, 35999, Note_on_c, 9, 57, 74
1, 36000, Note_on_c, 9, 57, 0
1, 36000, Note_on_c, 0, 62, 79
1, 36000, Note_on_c, 0, 50, 98
1, 36000, Note_on_c, 1, 38, 108
1, 36000, Note_on_c, 9, 40, 118
1, 36001, Note_on_c, 9, 40, 0
1, 36005, Note_on_c, 7, 62, 0
1, 36005, Note_on_c, 7, 50, 0
1, 36022, Note_on_c, 0, 57, 0
1, 36030, Note_on_c, 1, 38, 0
1, 36042, Note_on_c, 7, 57, 100
1, 36046, Note_on_c, 4, 57, 0
1, 36047, Note_on_c, 4, 62, 0
1, 36047, Note_on_c, 4, 66, 0
1, 36047, Note_on_c, 0, 57, 107
1, 36047, Note_on_c, 1, 38, 118
1, 36047, Note_on_c, 4, 61, 92
1, 36047, Note_on_c, 4, 57, 92
1, 36047, Note_on_c, 4, 64, 87
1, 36048, Note_on_c, 9, 36, 111
1, 36049, Note_on_c, 9, 36, 0
1, 36052, Note_on_c, 7, 57, 0
1, 36070, Note_on_c, 1, 38, 0
1, 36071, Note_on_c, 0, 62, 0
1, 36091, Note_on_c, 7, 45, 117
1, 36092, Note_on_c, 0, 57, 0
1, 36095, Note_on_c, 11, 64, 0
1, 36095, Note_on_c, 0, 50, 0
1, 36095, Note_on_c, 11, 69, 0
1, 36096, Note_on_c, 0, 45, 124
1, 36096, Note_on_c, 1, 33, 114
1, 36096, Note_on_c, 9, 51, 98
1, 36096, Note_on_c, 9, 36, 112
1, 36096, Note_on_c, 11, 64, 70
1, 36096, Note_on_c, 11, 69, 61
1, 36097, Note_on_c, 9, 36, 0
1, 36097, Note_on_c, 9, 51, 0
1, 36098, Note_on_c, 11, 71, 0
1, 36101, Note_on_c, 7, 45, 0
1, 36119, Note_on_c, 4, 64, 0
1, 36119, Note_on_c, 4, 57, 0
1, 36119, Note_on_c, 4, 61, 0
1, 36124, Note_on_c, 1, 33, 0
1, 36138, Note_on_c, 7, 52, 78
1, 36143, Note_on_c, 0, 52, 85
1, 36143, Note_on_c, 1, 33, 101
1, 36143, Note_on_c, 4, 64, 84
1, 36143, Note_on_c, 4, 61, 98
1, 36143, Note_on_c, 4, 57, 98
1, 36145, Note_on_c, 9, 51, 65
1, 36146, Note_on_c, 9, 51, 0
1, 36148, Note_on_c, 7, 52, 0
1, 36174, Note_on_c, 1, 33, 0
1, 36186, Note_on_c, 7, 59, 108
1, 36190, Note_on_c, 4, 61, 0
1, 36190, Note_on_c, 4, 57, 0
1, 36190, Note_on_c, 4, 64, 0
1, 36191, Note_on_c, 0, 59, 115
1, 36191, Note_on_c, 4, 64, 91
1, 36191, Note_on_c, 4, 57, 96
1, 36191, Note_on_c, 4, 61, 96
1, 36192, Note_on_c, 1, 33, 112
1, 36192, Note_on_c, 9, 40, 118
1, 36193, Note_on_c, 9, 40, 0
1, 36196, Note_on_c, 7, 59, 0
1, 36214, Note_on_c, 0, 52, 0
1, 36226, Note_on_c, 1, 33, 0
1, 36234, Note_on_c, 7, 52, 90
1, 36238, Note_on_c, 4, 57, 0
1, 36238, Note_on_c, 4, 61, 0
1, 36238, Note_on_c, 0, 59, 0
1, 36238, Note_on_c, 4, 64, 0
1, 36239, Note_on_c, 0, 52, 97
1, 36239, Note_on_c, 4, 61, 98
1, 36239, Note_on_c, 4, 57, 98
1, 36239, Note_on_c, 4, 64, 92
1, 36240, Note_on_c, 1, 33, 96
1, 36240, Note_on_c, 9, 36, 75
1, 36241, Note_on_c, 9, 36, 0
1, 36241, Note_on_c, 9, 51, 69
1, 36242, Note_on_c, 9, 51, 0
1, 36244, Note_on_c, 7, 52, 0
1, 36267, Note_on_c, 1, 33, 0
1, 36282, Note_on_c, 7, 61, 101
1, 36287, Note_on_c, 0, 61, 108
1, 36287, Note_on_c, 1, 33, 121
1, 36288, Note_on_c, 9, 36, 112
1, 36289, Note_on_c, 9, 36, 0
1, 36289, Note_on_c, 9, 51, 94
1, 36290, Note_on_c, 9, 51, 0
1, 36292, Note_on_c, 7, 61, 0
1, 36315, Note_on_c, 1, 33, 0
1, 36330, Note_on_c, 7, 59, 98
1, 36334, Note_on_c, 4, 64, 0
1, 36334, Note_on_c, 0, 61, 0
1, 36334, Note_on_c, 4, 57, 0
1, 36334, Note_on_c, 4, 61, 0
1, 36335, Note_on_c, 0, 59, 105
1, 36335, Note_on_c, 1, 33, 108
1, 36335, Note_on_c, 4, 64, 79
1, 36335, Note_on_c, 4, 61, 99
1, 36335, Note_on_c, 4, 57, 99
1, 36336, Note_on_c, 9, 51, 70
1, 36337, Note_on_c, 9, 51, 0
1, 36340, Note_on_c, 7, 59, 0
1, 36358, Note_on_c, 0, 52, 0
1, 36362, Note_on_c, 1, 33, 0
1, 36378, Note_on_c, 7, 52, 91
1, 36383, Note_on_c, 0, 52, 98
1, 36384, Note_on_c, 9, 40, 118
1, 36385, Note_on_c, 9, 40, 0
1, 36385, Note_on_c, 1, 33, 121
1, 36388, Note_on_c, 7, 52, 0
1, 36415, Note_on_c, 1, 33, 0
1, 36425, Note_on_c, 0, 59, 0
1, 36426, Note_on_c, 7, 59, 100
1, 36430, Note_on_c, 4, 61, 0
1, 36430, Note_on_c, 4, 64, 0
1, 36430, Note_on_c, 4, 57, 0
1, 36431, Note_on_c, 0, 59, 107
1, 36431, Note_on_c, 4, 61, 87
1, 36431, Note_on_c, 4, 57, 87
1, 36431, Note_on_c, 4, 64, 86
1, 36431, Note_on_c, 9, 51, 94
1, 36432, Note_on_c, 9, 51, 0
1, 36433, Note_on_c, 1, 33, 96
1, 36436, Note_on_c, 7, 59, 0
1, 36454, Note_on_c, 0, 52, 0
1, 36458, Note_on_c, 1, 33, 0
1, 36458, Note_on_c, 0, 45, 0
1, 36475, Note_on_c, 7, 45, 117
1, 36476, Note_on_c, 0, 59, 0
1, 36479, Note_on_c, 9, 51, 81
1, 36480, Note_on_c, 9, 51, 0
1, 36480, Note_on_c, 0, 45, 124
1, 36480, Note_on_c, 1, 33, 121
1, 36480, Note_on_c, 9, 36, 110
1, 36481, Note_on_c, 9, 36, 0
1, 36485, Note_on_c, 7, 45, 0
1, 36503, Note_on_c, 4, 64, 0
1, 36503, Note_on_c, 4, 57, 0
1, 36503, Note_on_c, 4, 61, 0
1, 36510, Note_on_c, 1, 33, 0
1, 36522, Note_on_c, 7, 52, 78
1, 36527, Note_on_c, 0, 52, 85
1, 36527, Note_on_c, 1, 33, 95
1, 36527, Note_on_c, 4, 64, 92
1, 36527, Note_on_c, 4, 57, 92
1, 36527, Note_on_c, 4, 61, 92
1, 36528, Note_on_c, 9, 51, 65
1, 36529, Note_on_c, 9, 51, 0
1, 36532, Note_on_c, 7, 52, 0
1, 36558, Note_on_c, 1, 33, 0
1, 36570, Note_on_c, 7, 59, 108
1, 36574, Note_on_c, 4, 57, 0
1, 36574, Note_on_c, 4, 61, 0
1, 36574, Note_on_c, 4, 64, 0
1, 36575, Note_on_c, 0, 59, 115
1, 36575, Note_on_c, 4, 61, 99
1, 36575, Note_on_c, 4, 57, 99
1, 36575, Note_on_c, 4, 64, 95
1, 36576, Note_on_c, 1, 33, 118
1, 36576, Note_on_c, 9, 40, 118
1, 36577, Note_on_c, 9, 40, 0
1, 36580, Note_on_c, 7, 59, 0
1, 36598, Note_on_c, 0, 52, 0
1, 36607, Note_on_c, 1, 33, 0
1, 36618, Note_on_c, 7, 52, 90
1, 36620, Note_on_c, 0, 59, 0
1, 36622, Note_on_c, 4, 57, 0
1, 36622, Note_on_c, 4, 64, 0
1, 36622, Note_on_c, 4, 61, 0
1, 36623, Note_on_c, 0, 52, 97
1, 36623, Note_on_c, 4, 57, 98
1, 36623, Note_on_c, 4, 64, 101
1, 36623, Note_on_c, 4, 61, 98
1, 36623, Note_on_c, 9, 51, 91
1, 36624, Note_on_c, 9, 51, 0
1, 36624, Note_on_c, 9, 36, 72
1, 36625, Note_on_c, 9, 36, 0
1, 36625, Note_on_c, 1, 33, 88
1, 36628, Note_on_c, 7, 52, 0
1, 36651, Note_on_c, 1, 33, 0
1, 36666, Note_on_c, 7, 61, 101
1, 36668, Note_on_c, 0, 52, 0
1, 36671, Note_on_c, 0, 61, 108
1, 36671, Note_on_c, 1, 33, 121
1, 36672, Note_on_c, 9, 36, 111
1, 36673, Note_on_c, 9, 36, 0
1, 36673, Note_on_c, 9, 51, 80
1, 36674, Note_on_c, 9, 51, 0
1, 36676, Note_on_c, 7, 61, 0
1, 36703, Note_on_c, 1, 33, 0
1, 36714, Note_on_c, 7, 59, 98
1, 36718, Note_on_c, 4, 61, 0
1, 36718, Note_on_c, 0, 61, 0
1, 36718, Note_on_c, 4, 57, 0
1, 36718, Note_on_c, 4, 64, 0
1, 36719, Note_on_c, 0, 59, 105
1, 36719, Note_on_c, 1, 33, 84
1, 36719, Note_on_c, 4, 64, 87
1, 36719, Note_on_c, 4, 61, 87
1, 36719, Note_on_c, 4, 57, 87
1, 36721, Note_on_c, 9, 51, 92
1, 36722, Note_on_c, 9, 51, 0
1, 36724, Note_on_c, 7, 59, 0
1, 36743, Note_on_c, 1, 33, 0
1, 36762, Note_on_c, 7, 52, 91
1, 36767, Note_on_c, 0, 52, 98
1, 36767, Note_on_c, 1, 33, 116
1, 36768, Note_on_c, 9, 40, 118
1, 36769, Note_on_c, 9, 40, 0
1, 36772, Note_on_c, 7, 52, 0
1, 36803, Note_on_c, 1, 33, 0
1, 36806, Note_on_c, 0, 59, 0
1, 36810, Note_on_c, 7, 59, 100
1, 36812, Note_on_c, 0, 52, 0
1, 36814, Note_on_c, 4, 57, 0
1, 36814, Note_on_c, 4, 64, 0
1, 36814, Note_on_c, 4, 61, 0
1, 36815, Note_on_c, 0, 59, 107
1, 36815, Note_on_c, 1, 33, 104
1, 36815, Note_on_c, 4, 57, 87
1, 36815, Note_on_c, 4, 61, 87
1, 36815, Note_on_c, 4, 64, 81
1, 36817, Note_on_c, 9, 51, 95
1, 36818, Note_on_c, 9, 51, 0
1, 36820, Note_on_c, 7, 59, 0
1, 36842, Note_on_c, 0, 45, 0
1, 36845, Note_on_c, 1, 33, 0
1, 36859, Note_on_c, 7, 42, 117
1, 36860, Note_on_c, 0, 59, 0
1, 36863, Note_on_c, 1, 30, 99
1, 36864, Note_on_c, 0, 42, 124
1, 36864, Note_on_c, 9, 36, 108
1, 36865, Note_on_c, 9, 36, 0
1, 36865, Note_on_c, 9, 51, 85
1, 36866, Note_on_c, 9, 51, 0
1, 36869, Note_on_c, 7, 42, 0
1, 36887, Note_on_c, 4, 57, 0
1, 36887, Note_on_c, 4, 64, 0
1, 36887, Note_on_c, 4, 61, 0
1, 36891, Note_on_c, 1, 30, 0
1, 36906, Note_on_c, 7, 49, 78
1, 36911, Note_on_c, 0, 49, 85
1, 36911, Note_on_c, 1, 30, 82
1, 36911, Note_on_c, 4, 64, 93
1, 36911, Note_on_c, 4, 61, 87
1, 36911, Note_on_c, 4, 57, 87
1, 36913, Note_on_c, 9, 51, 55
1, 36914, Note_on_c, 9, 51, 0
1, 36916, Note_on_c, 7, 49, 0
1, 36935, Note_on_c, 1, 30, 0
1, 36954, Note_on_c, 7, 56, 108
1, 36958, Note_on_c, 4, 61, 0
1, 36958, Note_on_c, 4, 57, 0
1, 36958, Note_on_c, 4, 64, 0
1, 36959, Note_on_c, 0, 56, 115
1, 36959, Note_on_c, 1, 30, 121
1, 36959, Note_on_c, 4, 61, 95
1, 36959, Note_on_c, 4, 57, 95
1, 36959, Note_on_c, 4, 64, 90
1, 36960, Note_on_c, 9, 40, 118
1, 36961, Note_on_c, 9, 40, 0
1, 36964, Note_on_c, 7, 56, 0
1, 36982, Note_on_c, 0, 49, 0
1, 36988, Note_on_c, 1, 30, 0
1, 37002, Note_on_c, 7, 49, 90
1, 37004, Note_on_c, 0, 56, 0
1, 37006, Note_on_c, 4, 57, 0
1, 37006, Note_on_c, 4, 61, 0
1, 37006, Note_on_c, 4, 64, 0
1, 37007, Note_on_c, 0, 49, 97
1, 37007, Note_on_c, 1, 30, 91
1, 37007, Note_on_c, 4, 64, 102
1, 37007, Note_on_c, 4, 61, 105
1, 37007, Note_on_c, 4, 57, 105
1, 37008, Note_on_c, 9, 36, 81
1, 37009, Note_on_c, 9, 36, 0
1, 37009, Note_on_c, 9, 51, 95
1, 37010, Note_on_c, 9, 51, 0
1, 37012, Note_on_c, 7, 49, 0
1, 37030, Note_on_c, 1, 30, 0
1, 37050, Note_on_c, 7, 57, 101
1, 37052, Note_on_c, 0, 49, 0
1, 37055, Note_on_c, 0, 57, 108
1, 37055, Note_on_c, 1, 30, 117
1, 37056, Note_on_c, 9, 36, 111
1, 37057, Note_on_c, 9, 36, 0
1, 37057, Note_on_c, 9, 51, 82
1, 37058, Note_on_c, 9, 51, 0
1, 37060, Note_on_c, 7, 57, 0
1, 37082, Note_on_c, 1, 30, 0
1, 37098, Note_on_c, 7, 56, 98
1, 37102, Note_on_c, 4, 57, 0
1, 37102, Note_on_c, 0, 57, 0
1, 37102, Note_on_c, 4, 64, 0
1, 37102, Note_on_c, 4, 61, 0
1, 37103, Note_on_c, 0, 56, 105
1, 37103, Note_on_c, 1, 30, 89
1, 37103, Note_on_c, 4, 64, 94
1, 37103, Note_on_c, 4, 61, 101
1, 37103, Note_on_c, 4, 57, 101
1, 37105, Note_on_c, 9, 51, 57
1, 37106, Note_on_c, 9, 51, 0
1, 37108, Note_on_c, 7, 56, 0
1, 37124, Note_on_c, 1, 30, 0
1, 37146, Note_on_c, 7, 49, 91
1, 37151, Note_on_c, 0, 49, 98
1, 37151, Note_on_c, 1, 30, 121
1, 37152, Note_on_c, 9, 40, 118
1, 37152, Note_on_c, 9, 51, 90
1, 37153, Note_on_c, 9, 51, 0
1, 37153, Note_on_c, 9, 40, 0
1, 37156, Note_on_c, 7, 49, 0
1, 37181, Note_on_c, 1, 30, 0
1, 37190, Note_on_c, 0, 56, 0
1, 37194, Note_on_c, 7, 56, 100
1, 37196, Note_on_c, 0, 49, 0
1, 37198, Note_on_c, 4, 57, 0
1, 37198, Note_on_c, 4, 64, 0
1, 37198, Note_on_c, 4, 61, 0
1, 37199, Note_on_c, 0, 56, 107
1, 37199, Note_on_c, 1, 30, 78
1, 37199, Note_on_c, 4, 61, 95
1, 37199, Note_on_c, 4, 64, 81
1, 37199, Note_on_c, 4, 57, 95
1, 37201, Note_on_c, 9, 51, 105
1, 37202, Note_on_c, 9, 51, 0
1, 37204, Note_on_c, 7, 56, 0
1, 37220, Note_on_c, 1, 30, 0
1, 37226, Note_on_c, 0, 42, 0
1, 37243, Note_on_c, 7, 50, 117
1, 37244, Note_on_c, 0, 56, 0
1, 37247, Note_on_c, 1, 38, 108
1, 37248, Note_on_c, 0, 50, 124
1, 37248, Note_on_c, 9, 51, 93
1, 37248, Note_on_c, 9, 36, 111
1, 37249, Note_on_c, 9, 36, 0
1, 37249, Note_on_c, 9, 51, 0
1, 37253, Note_on_c, 7, 50, 0
1, 37271, Note_on_c, 4, 57, 0
1, 37271, Note_on_c, 4, 61, 0
1, 37271, Note_on_c, 4, 64, 0
1, 37276, Note_on_c, 1, 38, 0
1, 37290, Note_on_c, 7, 57, 78
1, 37295, Note_on_c, 0, 57, 85
1, 37295, Note_on_c, 1, 38, 85
1, 37295, Note_on_c, 4, 57, 93
1, 37295, Note_on_c, 4, 61, 93
1, 37295, Note_on_c, 4, 64, 84
1, 37297, Note_on_c, 9, 51, 66
1, 37298, Note_on_c, 9, 51, 0
1, 37300, Note_on_c, 7, 57, 0
1, 37321, Note_on_c, 1, 38, 0
1, 37338, Note_on_c, 7, 64, 101
1, 37341, Note_on_c, 9, 40, 81
1, 37342, Note_on_c, 9, 40, 0
1, 37342, Note_on_c, 4, 61, 0
1, 37342, Note_on_c, 4, 64, 0
1, 37342, Note_on_c, 4, 57, 0
1, 37343, Note_on_c, 0, 64, 108
1, 37343, Note_on_c, 1, 38, 121
1, 37343, Note_on_c, 4, 57, 77
1, 37343, Note_on_c, 4, 64, 75
1, 37343, Note_on_c, 4, 61, 77
1, 37344, Note_on_c, 9, 40, 118
1, 37345, Note_on_c, 9, 40, 0
1, 37345, Note_on_c, 9, 51, 83
1, 37346, Note_on_c, 9, 51, 0
1, 37348, Note_on_c, 7, 64, 0
1, 37376, Note_on_c, 1, 38, 0
1, 37386, Note_on_c, 7, 57, 90
1, 37387, Note_on_c, 7, 50, 94
1, 37390, Note_on_c, 4, 57, 0
1, 37390, Note_on_c, 0, 57, 0
1, 37391, Note_on_c, 4, 61, 0
1, 37391, Note_on_c, 4, 64, 0
1, 37391, Note_on_c, 0, 50, 0
1, 37391, Note_on_c, 0, 57, 97
1, 37391, Note_on_c, 1, 38, 90
1, 37391, Note_on_c, 4, 57, 105
1, 37391, Note_on_c, 4, 66, 95
1, 37391, Note_on_c, 4, 62, 105
1, 37391, Note_on_c, 9, 51, 99
1, 37392, Note_on_c, 9, 51, 0
1, 37392, Note_on_c, 0, 50, 101
1, 37392, Note_on_c, 9, 36, 76
1, 37393, Note_on_c, 9, 36, 0
1, 37396, Note_on_c, 7, 57, 0
1, 37397, Note_on_c, 7, 50, 0
1, 37414, Note_on_c, 0, 64, 0
1, 37420, Note_on_c, 1, 38, 0
1, 37434, Note_on_c, 7, 62, 101
1, 37439, Note_on_c, 0, 62, 108
1, 37439, Note_on_c, 1, 38, 116
1, 37440, Note_on_c, 9, 51, 92
1, 37440, Note_on_c, 9, 36, 110
1, 37441, Note_on_c, 9, 36, 0
1, 37441, Note_on_c, 9, 51, 0
1, 37444, Note_on_c, 7, 62, 0
1, 37469, Note_on_c, 1, 38, 0
1, 37480, Note_on_c, 0, 57, 0
1, 37482, Note_on_c, 7, 57, 98
1, 37486, Note_on_c, 4, 66, 0
1, 37486, Note_on_c, 4, 57, 0
1, 37486, Note_on_c, 4, 62, 0
1, 37487, Note_on_c, 0, 57, 105
1, 37487, Note_on_c, 1, 38, 99
1, 37487, Note_on_c, 4, 62, 101
1, 37487, Note_on_c, 4, 57, 101
1, 37487, Note_on_c, 4, 66, 95
1, 37487, Note_on_c, 9, 51, 46
1, 37488, Note_on_c, 9, 51, 0
1, 37488, Note_on_c, 9, 36, 110
1, 37488, Note_on_c, 11, 74, 64
1, 37489, Note_on_c, 9, 36, 0
1, 37492, Note_on_c, 7, 57, 0
1, 37510, Note_on_c, 0, 62, 0
1, 37516, Note_on_c, 1, 38, 0
1, 37531, Note_on_c, 7, 62, 72
1, 37531, Note_on_c, 7, 50, 91
1, 37535, Note_on_c, 0, 50, 0
1, 37535, Note_on_c, 9, 57, 86
1, 37536, Note_on_c, 9, 57, 0
1, 37536, Note_on_c, 0, 62, 79
1, 37536, Note_on_c, 0, 50, 98
1, 37536, Note_on_c, 1, 38, 112
1, 37536, Note_on_c, 9, 40, 118
1, 37537, Note_on_c, 9, 40, 0
1, 37541, Note_on_c, 7, 62, 0
1, 37541, Note_on_c, 7, 50, 0
1, 37558, Note_on_c, 0, 57, 0
1, 37567, Note_on_c, 1, 38, 0
1, 37578, Note_on_c, 7, 57, 100
1, 37582, Note_on_c, 4, 57, 0
1, 37583, Note_on_c, 4, 62, 0
1, 37583, Note_on_c, 4, 66, 0
1, 37583, Note_on_c, 0, 57, 107
1, 37583, Note_on_c, 1, 40, 114
1, 37583, Note_on_c, 4, 64, 87
1, 37583, Note_on_c, 4, 57, 86
1, 37583, Note_on_c, 4, 61, 86
1, 37584, Note_on_c, 9, 36, 111
1, 37585, Note_on_c, 9, 36, 0
1, 37588, Note_on_c, 7, 57, 0
1, 37607, Note_on_c, 0, 62, 0
1, 37621, Note_on_c, 1, 40, 0
1, 37627, Note_on_c, 7, 45, 117
1, 37628, Note_on_c, 0, 57, 0
1, 37630, Note_on_c, 11, 69, 0
1, 37631, Note_on_c, 11, 64, 0
1, 37631, Note_on_c, 0, 50, 0
1, 37631, Note_on_c, 11, 74, 0
1, 37631, Note_on_c, 9, 49, 85
1, 37632, Note_on_c, 9, 49, 0
1, 37632, Note_on_c, 0, 45, 124
1, 37632, Note_on_c, 1, 33, 118
1, 37632, Note_on_c, 9, 36, 112
1, 37632, Note_on_c, 11, 64, 70
1, 37632, Note_on_c, 11, 69, 70
1, 37633, Note_on_c, 9, 36, 0
1, 37637, Note_on_c, 7, 45, 0
1, 37654, Note_on_c, 1, 33, 0
1, 37655, Note_on_c, 4, 57, 0
1, 37655, Note_on_c, 4, 61, 0
1, 37655, Note_on_c, 4, 64, 0
1, 37674, Note_on_c, 7, 52, 78
1, 37679, Note_on_c, 0, 52, 85
1, 37679, Note_on_c, 1, 33, 91
1, 37679, Note_on_c, 4, 61, 101
1, 37679, Note_on_c, 4, 57, 101
1, 37679, Note_on_c, 4, 64, 94
1, 37681, Note_on_c, 9, 51, 65
1, 37682, Note_on_c, 9, 51, 0
1, 37684, Note_on_c, 7, 52, 0
1, 37712, Note_on_c, 1, 33, 0
1, 37722, Note_on_c, 7, 59, 108
1, 37726, Note_on_c, 4, 57, 0
1, 37726, Note_on_c, 4, 64, 0
1, 37726, Note_on_c, 4, 61, 0
1, 37727, Note_on_c, 0, 59, 115
1, 37727, Note_on_c, 1, 33, 116
1, 37727, Note_on_c, 4, 64, 98
1, 37727, Note_on_c, 4, 61, 91
1, 37727, Note_on_c, 4, 57, 91
1, 37728, Note_on_c, 9, 40, 118
1, 37729, Note_on_c, 9, 40, 0
1, 37729, Note_on_c, 9, 51, 107
1, 37730, Note_on_c, 9, 51, 0
1, 37732, Note_on_c, 7, 59, 0
1, 37750, Note_on_c, 0, 52, 0
1, 37762, Note_on_c, 1, 33, 0
1, 37770, Note_on_c, 7, 52, 90
1, 37774, Note_on_c, 4, 61, 0
1, 37774, Note_on_c, 4, 64, 0
1, 37774, Note_on_c, 4, 57, 0
1, 37774, Note_on_c, 0, 59, 0
1, 37775, Note_on_c, 0, 52, 97
1, 37775, Note_on_c, 1, 33, 99
1, 37775, Note_on_c, 4, 57, 96
1, 37775, Note_on_c, 4, 61, 96
1, 37775, Note_on_c, 4, 64, 94
1, 37776, Note_on_c, 9, 36, 75
1, 37777, Note_on_c, 9, 36, 0
1, 37777, Note_on_c, 9, 51, 69
1, 37778, Note_on_c, 9, 51, 0
1, 37780, Note_on_c, 7, 52, 0
1, 37808, Note_on_c, 1, 33, 0
1, 37818, Note_on_c, 7, 61, 101
1, 37823, Note_on_c, 0, 61, 108
1, 37823, Note_on_c, 1, 33, 121
1, 37824, Note_on_c, 9, 36, 112
1, 37825, Note_on_c, 9, 36, 0
1, 37825, Note_on_c, 9, 51, 101
1, 37826, Note_on_c, 9, 51, 0
1, 37828, Note_on_c, 7, 61, 0
1, 37856, Note_on_c, 1, 33, 0
1, 37866, Note_on_c, 7, 59, 98
1, 37870, Note_on_c, 4, 64, 0
1, 37870, Note_on_c, 4, 61, 0
1, 37870, Note_on_c, 0, 61, 0
1, 37870, Note_on_c, 4, 57, 0
1, 37871, Note_on_c, 0, 59, 105
1, 37871, Note_on_c, 1, 33, 84
1, 37871, Note_on_c, 4, 64, 85
1, 37871, Note_on_c, 4, 61, 103
1, 37871, Note_on_c, 4, 57, 103
1, 37871, Note_on_c, 9, 51, 69
1, 37872, Note_on_c, 9, 51, 0
1, 37876, Note_on_c, 7, 59, 0
1, 37894, Note_on_c, 0, 52, 0
1, 37900, Note_on_c, 1, 33, 0
1, 37914, Note_on_c, 7, 52, 91
1, 37919, Note_on_c, 0, 52, 98
1, 37919, Note_on_c, 1, 33, 121
1, 37919, Note_on_c, 9, 51, 94
1, 37920, Note_on_c, 9, 51, 0
1, 37920, Note_on_c, 9, 40, 118
1, 37921, Note_on_c, 9, 40, 0
1, 37924, Note_on_c, 7, 52, 0
1, 37954, Note_on_c, 1, 33, 0
1, 37961, Note_on_c, 0, 59, 0
1, 37962, Note_on_c, 7, 59, 100
1, 37966, Note_on_c, 4, 61, 0
1, 37966, Note_on_c, 4, 64, 0
1, 37966, Note_on_c, 4, 57, 0
1, 37967, Note_on_c, 0, 59, 107
1, 37967, Note_on_c, 1, 33, 91
1, 37967, Note_on_c, 4, 61, 98
1, 37967, Note_on_c, 4, 57, 98
1, 37967, Note_on_c, 4, 64, 85
1, 37967, Note_on_c, 9, 51, 101
1, 37968, Note_on_c, 9, 51, 0
1, 37972, Note_on_c, 7, 59, 0
1, 37990, Note_on_c, 0, 52, 0
1, 37994, Note_on_c, 0, 45, 0
1, 37996, Note_on_c, 1, 33, 0
1, 38011, Note_on_c, 7, 45, 117
1, 38012, Note_on_c, 0, 59, 0
1, 38015, Note_on_c, 1, 33, 116
1, 38015, Note_on_c, 9, 51, 97
1, 38016, Note_on_c, 9, 51, 0
1, 38016, Note_on_c, 0, 45, 124
1, 38016, Note_on_c, 9, 36, 110
1, 38017, Note_on_c, 9, 36, 0
1, 38021, Note_on_c, 7, 45, 0
1, 38039, Note_on_c, 4, 57, 0
1, 38039, Note_on_c, 4, 61, 0
1, 38039, Note_on_c, 4, 64, 0
1, 38049, Note_on_c, 1, 33, 0
1, 38058, Note_on_c, 7, 52, 78
1, 38063, Note_on_c, 0, 52, 85
1, 38063, Note_on_c, 1, 33, 91
1, 38063, Note_on_c, 4, 61, 101
1, 38063, Note_on_c, 4, 57, 101
1, 38063, Note_on_c, 4, 64, 97
1, 38063, Note_on_c, 9, 51, 67
1, 38064, Note_on_c, 9, 51, 0
1, 38068, Note_on_c, 7, 52, 0
1, 38091, Note_on_c, 1, 33, 0
1, 38106, Note_on_c, 7, 59, 108
1, 38110, Note_on_c, 4, 57, 0
1, 38110, Note_on_c, 4, 64, 0
1, 38110, Note_on_c, 4, 61, 0
1, 38111, Note_on_c, 0, 59, 115
1, 38111, Note_on_c, 1, 33, 114
1, 38111, Note_on_c, 4, 64, 87
1, 38111, Note_on_c, 4, 57, 95
1, 38111, Note_on_c, 4, 61, 95
1, 38111, Note_on_c, 9, 51, 99
1, 38112, Note_on_c, 9, 51, 0
1, 38112, Note_on_c, 9, 40, 118
1, 38113, Note_on_c, 9, 40, 0
1, 38116, Note_on_c, 7, 59, 0
1, 38134, Note_on_c, 0, 52, 0
1, 38144, Note_on_c, 1, 33, 0
1, 38154, Note_on_c, 7, 52, 90
1, 38156, Note_on_c, 0, 59, 0
1, 38158, Note_on_c, 4, 57, 0
1, 38158, Note_on_c, 4, 64, 0
1, 38158, Note_on_c, 4, 61, 0
1, 38159, Note_on_c, 0, 52, 97
1, 38159, Note_on_c, 1, 33, 85
1, 38159, Note_on_c, 4, 61, 98
1, 38159, Note_on_c, 4, 57, 98
1, 38159, Note_on_c, 4, 64, 98
1, 38159, Note_on_c, 9, 51, 102
1, 38160, Note_on_c, 9, 51, 0
1, 38160, Note_on_c, 9, 36, 72
1, 38161, Note_on_c, 9, 36, 0
1, 38164, Note_on_c, 7, 52, 0
1, 38188, Note_on_c, 1, 33, 0
1, 38202, Note_on_c, 7, 61, 101
1, 38204, Note_on_c, 0, 52, 0
1, 38206, Note_on_c, 11, 71, 85
1, 38207, Note_on_c, 0, 61, 108
1, 38207, Note_on_c, 1, 33, 121
1, 38208, Note_on_c, 9, 36, 111
1, 38209, Note_on_c, 9, 36, 0
1, 38209, Note_on_c, 9, 51, 80
1, 38210, Note_on_c, 9, 51, 0
1, 38211, Note_on_c, 11, 69, 0
1, 38212, Note_on_c, 7, 61, 0
1, 38242, Note_on_c, 1, 33, 0
1, 38250, Note_on_c, 7, 59, 98
1, 38254, Note_on_c, 4, 64, 0
1, 38254, Note_on_c, 0, 61, 0
1, 38254, Note_on_c, 4, 61, 0
1, 38254, Note_on_c, 4, 57, 0
1, 38255, Note_on_c, 0, 59, 105
1, 38255, Note_on_c, 1, 33, 89
1, 38255, Note_on_c, 4, 61, 111
1, 38255, Note_on_c, 4, 64, 86
1, 38255, Note_on_c, 4, 57, 86
1, 38257, Note_on_c, 9, 51, 61
1, 38258, Note_on_c, 9, 51, 0
1, 38260, Note_on_c, 7, 59, 0
1, 38285, Note_on_c, 1, 33, 0
1, 38298, Note_on_c, 7, 52, 91
1, 38303, Note_on_c, 0, 52, 98
1, 38303, Note_on_c, 1, 33, 114
1, 38304, Note_on_c, 9, 40, 118
1, 38305, Note_on_c, 9, 40, 0
1, 38305, Note_on_c, 9, 51, 83
1, 38306, Note_on_c, 9, 51, 0
1, 38308, Note_on_c, 7, 52, 0
1, 38341, Note_on_c, 1, 33, 0
1, 38342, Note_on_c, 0, 59, 0
1, 38346, Note_on_c, 7, 59, 100
1, 38348, Note_on_c, 0, 52, 0
1, 38350, Note_on_c, 4, 57, 0
1, 38350, Note_on_c, 4, 61, 0
1, 38350, Note_on_c, 4, 64, 0
1, 38351, Note_on_c, 0, 59, 107
1, 38351, Note_on_c, 1, 33, 104
1, 38351, Note_on_c, 4, 61, 87
1, 38351, Note_on_c, 4, 57, 87
1, 38351, Note_on_c, 4, 64, 70
1, 38353, Note_on_c, 9, 51, 96
1, 38354, Note_on_c, 9, 51, 0
1, 38356, Note_on_c, 7, 59, 0
1, 38378, Note_on_c, 0, 45, 0
1, 38382, Note_on_c, 1, 33, 0
1, 38390, Note_on_c, 11, 64, 0
1, 38395, Note_on_c, 7, 42, 117
1, 38396, Note_on_c, 11, 71, 0
1, 38396, Note_on_c, 0, 59, 0
1, 38396, Note_on_c, 11, 69, 80
1, 38396, Note_on_c, 11, 64, 75
1, 38399, Note_on_c, 1, 30, 101
1, 38400, Note_on_c, 0, 42, 124
1, 38400, Note_on_c, 9, 36, 108
1, 38401, Note_on_c, 9, 36, 0
1, 38401, Note_on_c, 9, 51, 93
1, 38402, Note_on_c, 9, 51, 0
1, 38405, Note_on_c, 7, 42, 0
1, 38423, Note_on_c, 4, 61, 0
1, 38423, Note_on_c, 4, 64, 0
1, 38423, Note_on_c, 4, 57, 0
1, 38429, Note_on_c, 1, 30, 0
1, 38442, Note_on_c, 7, 49, 78
1, 38447, Note_on_c, 0, 49, 85
1, 38447, Note_on_c, 1, 30, 101
1, 38447, Note_on_c, 4, 57, 88
1, 38447, Note_on_c, 4, 64, 92
1, 38447, Note_on_c, 4, 61, 88
1, 38449, Note_on_c, 9, 51, 55
1, 38450, Note_on_c, 9, 51, 0
1, 38452, Note_on_c, 7, 49, 0
1, 38473, Note_on_c, 1, 30, 0
1, 38490, Note_on_c, 7, 56, 108
1, 38494, Note_on_c, 4, 64, 0
1, 38494, Note_on_c, 4, 61, 0
1, 38494, Note_on_c, 4, 57, 0
1, 38495, Note_on_c, 0, 56, 115
1, 38495, Note_on_c, 1, 30, 121
1, 38495, Note_on_c, 4, 64, 78
1, 38495, Note_on_c, 4, 57, 92
1, 38495, Note_on_c, 4, 61, 92
1, 38495, Note_on_c, 9, 51, 84
1, 38496, Note_on_c, 9, 51, 0
1, 38496, Note_on_c, 9, 40, 118
1, 38497, Note_on_c, 9, 40, 0
1, 38500, Note_on_c, 7, 56, 0
1, 38518, Note_on_c, 0, 49, 0
1, 38530, Note_on_c, 1, 30, 0
1, 38538, Note_on_c, 7, 49, 90
1, 38540, Note_on_c, 0, 56, 0
1, 38542, Note_on_c, 4, 57, 0
1, 38542, Note_on_c, 4, 64, 0
1, 38542, Note_on_c, 4, 61, 0
1, 38543, Note_on_c, 0, 49, 97
1, 38543, Note_on_c, 1, 30, 93
1, 38543, Note_on_c, 4, 61, 98
1, 38543, Note_on_c, 4, 57, 98
1, 38543, Note_on_c, 4, 64, 87
1, 38544, Note_on_c, 9, 36, 81
1, 38545, Note_on_c, 9, 36, 0
1, 38545, Note_on_c, 9, 51, 95
1, 38546, Note_on_c, 9, 51, 0
1, 38548, Note_on_c, 7, 49, 0
1, 38568, Note_on_c, 1, 30, 0
1, 38586, Note_on_c, 7, 57, 101
1, 38588, Note_on_c, 0, 49, 0
1, 38591, Note_on_c, 0, 57, 108
1, 38591, Note_on_c, 1, 30, 120
1, 38592, Note_on_c, 9, 36, 111
1, 38593, Note_on_c, 9, 36, 0
1, 38593, Note_on_c, 9, 51, 94
1, 38594, Note_on_c, 9, 51, 0
1, 38596, Note_on_c, 7, 57, 0
1, 38621, Note_on_c, 1, 30, 0
1, 38634, Note_on_c, 7, 56, 98
1, 38638, Note_on_c, 4, 64, 0
1, 38638, Note_on_c, 0, 57, 0
1, 38638, Note_on_c, 4, 61, 0
1, 38638, Note_on_c, 4, 57, 0
1, 38639, Note_on_c, 0, 56, 105
1, 38639, Note_on_c, 1, 30, 103
1, 38639, Note_on_c, 4, 64, 86
1, 38639, Note_on_c, 4, 61, 99
1, 38639, Note_on_c, 4, 57, 99
1, 38641, Note_on_c, 9, 51, 57
1, 38642, Note_on_c, 9, 51, 0
1, 38644, Note_on_c, 7, 56, 0
1, 38667, Note_on_c, 1, 30, 0
1, 38682, Note_on_c, 7, 49, 91
1, 38687, Note_on_c, 0, 49, 98
1, 38687, Note_on_c, 1, 30, 117
1, 38688, Note_on_c, 9, 40, 118
1, 38688, Note_on_c, 9, 51, 90
1, 38689, Note_on_c, 9, 51, 0
1, 38689, Note_on_c, 9, 40, 0
1, 38692, Note_on_c, 7, 49, 0
1, 38722, Note_on_c, 1, 30, 0
1, 38726, Note_on_c, 0, 56, 0
1, 38730, Note_on_c, 7, 56, 100
1, 38732, Note_on_c, 0, 49, 0
1, 38734, Note_on_c, 4, 57, 0
1, 38734, Note_on_c, 4, 64, 0
1, 38734, Note_on_c, 4, 61, 0
1, 38735, Note_on_c, 0, 56, 107
1, 38735, Note_on_c, 1, 38, 102
1, 38735, Note_on_c, 4, 57, 95
1, 38735, Note_on_c, 4, 61, 95
1, 38735, Note_on_c, 4, 64, 88
1, 38737, Note_on_c, 9, 51, 96
1, 38738, Note_on_c, 9, 51, 0
1, 38740, Note_on_c, 7, 56, 0
1, 38762, Note_on_c, 0, 42, 0
1, 38765, Note_on_c, 1, 38, 0
1, 38779, Note_on_c, 7, 50, 117
1, 38780, Note_on_c, 0, 56, 0
1, 38783, Note_on_c, 1, 38, 85
1, 38784, Note_on_c, 0, 50, 124
1, 38784, Note_on_c, 9, 51, 93
1, 38784, Note_on_c, 9, 36, 111
1, 38785, Note_on_c, 9, 36, 0
1, 38785, Note_on_c, 9, 51, 0
1, 38789, Note_on_c, 7, 50, 0
1, 38807, Note_on_c, 4, 64, 0
1, 38807, Note_on_c, 4, 57, 0
1, 38807, Note_on_c, 4, 61, 0
1, 38815, Note_on_c, 1, 38, 0
1, 38826, Note_on_c, 7, 57, 78
1, 38831, Note_on_c, 0, 57, 85
1, 38831, Note_on_c, 1, 38, 106
1, 38831, Note_on_c, 4, 64, 91
1, 38831, Note_on_c, 4, 61, 99
1, 38831, Note_on_c, 4, 57, 99
1, 38833, Note_on_c, 9, 51, 66
1, 38834, Note_on_c, 9, 51, 0
1, 38836, Note_on_c, 7, 57, 0
1, 38864, Note_on_c, 1, 38, 0
1, 38874, Note_on_c, 7, 64, 101
1, 38877, Note_on_c, 9, 40, 81
1, 38878, Note_on_c, 9, 40, 0
1, 38878, Note_on_c, 4, 61, 0
1, 38878, Note_on_c, 4, 57, 0
1, 38878, Note_on_c, 4, 64, 0
1, 38879, Note_on_c, 0, 64, 108
1, 38879, Note_on_c, 1, 38, 106
1, 38879, Note_on_c, 4, 61, 89
1, 38879, Note_on_c, 4, 57, 89
1, 38879, Note_on_c, 4, 64, 69
1, 38880, Note_on_c, 9, 40, 118
1, 38881, Note_on_c, 9, 40, 0
1, 38881, Note_on_c, 9, 51, 95
1, 38882, Note_on_c, 9, 51, 0
1, 38884, Note_on_c, 7, 64, 0
1, 38913, Note_on_c, 1, 38, 0
1, 38922, Note_on_c, 7, 57, 90
1, 38923, Note_on_c, 7, 50, 94
1, 38926, Note_on_c, 4, 57, 0
1, 38926, Note_on_c, 0, 57, 0
1, 38927, Note_on_c, 4, 64, 0
1, 38927, Note_on_c, 4, 61, 0
1, 38927, Note_on_c, 0, 50, 0
1, 38927, Note_on_c, 0, 57, 97
1, 38927, Note_on_c, 1, 38, 104
1, 38927, Note_on_c, 4, 57, 112
1, 38927, Note_on_c, 4, 66, 92
1, 38927, Note_on_c, 4, 62, 112
1, 38927, Note_on_c, 9, 51, 101
1, 38928, Note_on_c, 9, 51, 0
1, 38928, Note_on_c, 0, 50, 101
1, 38928, Note_on_c, 9, 36, 76
1, 38929, Note_on_c, 9, 36, 0
1, 38932, Note_on_c, 7, 57, 0
1, 38933, Note_on_c, 7, 50, 0
1, 38950, Note_on_c, 0, 64, 0
1, 38958, Note_on_c, 1, 38, 0
1, 38970, Note_on_c, 7, 62, 101
1, 38971, Note_on_c, 11, 66, 87
1, 38975, Note_on_c, 0, 62, 108
1, 38975, Note_on_c, 1, 38, 101
1, 38976, Note_on_c, 9, 51, 92
1, 38976, Note_on_c, 9, 36, 110
1, 38977, Note_on_c, 9, 36, 0
1, 38977, Note_on_c, 9, 51, 0
1, 38978, Note_on_c, 11, 69, 0
1, 38980, Note_on_c, 7, 62, 0
1, 39009, Note_on_c, 1, 38, 0
1, 39016, Note_on_c, 0, 57, 0
1, 39018, Note_on_c, 7, 57, 98
1, 39022, Note_on_c, 4, 66, 0
1, 39022, Note_on_c, 4, 62, 0
1, 39022, Note_on_c, 4, 57, 0
1, 39023, Note_on_c, 0, 57, 105
1, 39023, Note_on_c, 4, 57, 104
1, 39023, Note_on_c, 4, 66, 86
1, 39023, Note_on_c, 4, 62, 104
1, 39023, Note_on_c, 9, 51, 46
1, 39024, Note_on_c, 9, 51, 0
1, 39024, Note_on_c, 1, 38, 116
1, 39024, Note_on_c, 9, 36, 110
1, 39025, Note_on_c, 9, 36, 0
1, 39028, Note_on_c, 7, 57, 0
1, 39046, Note_on_c, 0, 62, 0
1, 39052, Note_on_c, 1, 38, 0
1, 39067, Note_on_c, 7, 62, 72
1, 39067, Note_on_c, 7, 50, 91
1, 39071, Note_on_c, 0, 50, 0
1, 39071, Note_on_c, 9, 57, 86
1, 39072, Note_on_c, 9, 57, 0
1, 39072, Note_on_c, 0, 62, 79
1, 39072, Note_on_c, 0, 50, 98
1, 39072, Note_on_c, 1, 38, 108
1, 39072, Note_on_c, 9, 40, 118
1, 39073, Note_on_c, 9, 40, 0
1, 39077, Note_on_c, 7, 62, 0
1, 39077, Note_on_c, 7, 50, 0
1, 39094, Note_on_c, 0, 57, 0
1, 39102, Note_on_c, 1, 38, 0
1, 39114, Note_on_c, 7, 57, 100
1, 39118, Note_on_c, 4, 57, 0
1, 39119, Note_on_c, 4, 66, 0
1, 39119, Note_on_c, 4, 62, 0
1, 39119, Note_on_c, 0, 57, 107
1, 39119, Note_on_c, 1, 38, 118
1, 39119, Note_on_c, 4, 61, 92
1, 39119, Note_on_c, 4, 64, 87
1, 39119, Note_on_c, 4, 57, 92
1, 39124, Note_on_c, 7, 57, 0
1, 39142, Note_on_c, 1, 38, 0
1, 39143, Note_on_c, 0, 62, 0
1, 39163, Note_on_c, 11, 64, 0
1, 39163, Note_on_c, 7, 45, 117
1, 39164, Note_on_c, 0, 57, 0
1, 39165, Note_on_c, 11, 66, 0
1, 39167, Note_on_c, 0, 50, 0
1, 39168, Note_on_c, 0, 45, 124
1, 39168, Note_on_c, 1, 33, 114
1, 39168, Note_on_c, 9, 51, 109
1, 39168, Note_on_c, 9, 36, 112
1, 39168, Note_on_c, 11, 64, 79
1, 39168, Note_on_c, 11, 69, 77
1, 39169, Note_on_c, 9, 36, 0
1, 39169, Note_on_c, 9, 51, 0
1, 39173, Note_on_c, 7, 45, 0
1, 39191, Note_on_c, 4, 64, 0
1, 39191, Note_on_c, 4, 57, 0
1, 39191, Note_on_c, 4, 61, 0
1, 39196, Note_on_c, 1, 33, 0
1, 39209, Note_on_c, 10, 64, 84
1, 39210, Note_on_c, 7, 52, 78
1, 39213, Note_on_c, 2, 64, 93
1, 39215, Note_on_c, 0, 52, 85
1, 39215, Note_on_c, 1, 33, 101
1, 39215, Note_on_c, 4, 61, 98
1, 39215, Note_on_c, 4, 64, 84
1, 39215, Note_on_c, 4, 57, 98
1, 39217, Note_on_c, 9, 51, 65
1, 39218, Note_on_c, 9, 51, 0
1, 39220, Note_on_c, 7, 52, 0
1, 39246, Note_on_c, 1, 33, 0
1, 39258, Note_on_c, 7, 59, 108
1, 39261, Note_on_c, 10, 59, 85
1, 39262, Note_on_c, 4, 64, 0
1, 39262, Note_on_c, 4, 61, 0
1, 39262, Note_on_c, 4, 57, 0
1, 39263, Note_on_c, 0, 59, 115
1, 39263, Note_on_c, 4, 57, 96
1, 39263, Note_on_c, 4, 64, 91
1, 39263, Note_on_c, 4, 61, 96
1, 39264, Note_on_c, 1, 33, 112
1, 39264, Note_on_c, 9, 40, 118
1, 39265, Note_on_c, 9, 40, 0
1, 39265, Note_on_c, 9, 51, 107
1, 39266, Note_on_c, 9, 51, 0
1, 39268, Note_on_c, 7, 59, 0
1, 39269, Note_on_c, 2, 59, 78
1, 39281, Note_on_c, 10, 64, 0
1, 39286, Note_on_c, 0, 52, 0
1, 39294, Note_on_c, 2, 64, 0
1, 39298, Note_on_c, 1, 33, 0
1, 39306, Note_on_c, 7, 52, 90
1, 39308, Note_on_c, 10, 64, 78
1, 39310, Note_on_c, 4, 61, 0
1, 39310, Note_on_c, 0, 59, 0
1, 39310, Note_on_c, 4, 64, 0
1, 39310, Note_on_c, 4, 57, 0
1, 39311, Note_on_c, 0, 52, 97
1, 39311, Note_on_c, 4, 57, 98
1, 39311, Note_on_c, 4, 61, 98
1, 39311, Note_on_c, 4, 64, 92
1, 39312, Note_on_c, 1, 33, 96
1, 39312, Note_on_c, 9, 36, 75
1, 39313, Note_on_c, 9, 36, 0
1, 39313, Note_on_c, 9, 51, 69
1, 39314, Note_on_c, 9, 51, 0
1, 39314, Note_on_c, 2, 64, 81
1, 39316, Note_on_c, 7, 52, 0
1, 39339, Note_on_c, 1, 33, 0
1, 39354, Note_on_c, 7, 61, 101
1, 39359, Note_on_c, 0, 61, 108
1, 39359, Note_on_c, 1, 33, 121
1, 39360, Note_on_c, 9, 36, 112
1, 39361, Note_on_c, 9, 36, 0
1, 39361, Note_on_c, 9, 51, 101
1, 39362, Note_on_c, 9, 51, 0
1, 39364, Note_on_c, 7, 61, 0
1, 39381, Note_on_c, 10, 64, 0
1, 39387, Note_on_c, 1, 33, 0
1, 39388, Note_on_c, 2, 64, 0
1, 39400, Note_on_c, 2, 64, 70
1, 39400, Note_on_c, 10, 64, 80
1, 39402, Note_on_c, 7, 59, 98
1, 39406, Note_on_c, 4, 61, 0
1, 39406, Note_on_c, 4, 57, 0
1, 39406, Note_on_c, 4, 64, 0
1, 39406, Note_on_c, 0, 61, 0
1, 39407, Note_on_c, 0, 59, 105
1, 39407, Note_on_c, 1, 33, 108
1, 39407, Note_on_c, 4, 64, 79
1, 39407, Note_on_c, 4, 57, 99
1, 39407, Note_on_c, 4, 61, 99
1, 39407, Note_on_c, 9, 51, 69
1, 39408, Note_on_c, 9, 51, 0
1, 39408, Note_on_c, 2, 59, 0
1, 39409, Note_on_c, 10, 59, 0
1, 39412, Note_on_c, 7, 59, 0
1, 39430, Note_on_c, 0, 52, 0
1, 39434, Note_on_c, 1, 33, 0
1, 39450, Note_on_c, 7, 52, 91
1, 39450, Note_on_c, 10, 59, 82
1, 39452, Note_on_c, 2, 59, 84
1, 39455, Note_on_c, 0, 52, 98
1, 39455, Note_on_c, 9, 51, 101
1, 39456, Note_on_c, 9, 51, 0
1, 39456, Note_on_c, 9, 40, 118
1, 39457, Note_on_c, 9, 40, 0
1, 39457, Note_on_c, 1, 33, 121
1, 39460, Note_on_c, 7, 52, 0
1, 39464, Note_on_c, 10, 64, 0
1, 39468, Note_on_c, 2, 64, 0
1, 39487, Note_on_c, 1, 33, 0
1, 39495, Note_on_c, 10, 64, 88
1, 39497, Note_on_c, 0, 59, 0
1, 39498, Note_on_c, 2, 64, 82
1, 39498, Note_on_c, 7, 59, 100
1, 39502, Note_on_c, 4, 64, 0
1, 39502, Note_on_c, 4, 61, 0
1, 39502, Note_on_c, 4, 57, 0
1, 39503, Note_on_c, 0, 59, 107
1, 39503, Note_on_c, 4, 64, 86
1, 39503, Note_on_c, 4, 61, 87
1, 39503, Note_on_c, 4, 57, 87
1, 39503, Note_on_c, 9, 51, 73
1, 39504, Note_on_c, 9, 51, 0
1, 39505, Note_on_c, 1, 33, 96
1, 39508, Note_on_c, 7, 59, 0
1, 39526, Note_on_c, 0, 52, 0
1, 39530, Note_on_c, 0, 45, 0
1, 39530, Note_on_c, 1, 33, 0
1, 39547, Note_on_c, 7, 45, 117
1, 39548, Note_on_c, 0, 59, 0
1, 39551, Note_on_c, 9, 51, 104
1, 39552, Note_on_c, 9, 51, 0
1, 39552, Note_on_c, 0, 45, 124
1, 39552, Note_on_c, 1, 33, 121
1, 39552, Note_on_c, 9, 36, 110
1, 39553, Note_on_c, 9, 36, 0
1, 39557, Note_on_c, 7, 45, 0
1, 39575, Note_on_c, 4, 64, 0
1, 39575, Note_on_c, 4, 61, 0
1, 39575, Note_on_c, 2, 64, 0
1, 39575, Note_on_c, 4, 57, 0
1, 39575, Note_on_c, 10, 64, 0
1, 39582, Note_on_c, 1, 33, 0
1, 39592, Note_on_c, 2, 64, 84
1, 39592, Note_on_c, 10, 64, 82
1, 39594, Note_on_c, 7, 52, 78
1, 39599, Note_on_c, 0, 52, 85
1, 39599, Note_on_c, 1, 33, 95
1, 39599, Note_on_c, 4, 61, 92
1, 39599, Note_on_c, 4, 57, 92
1, 39599, Note_on_c, 4, 64, 92
1, 39599, Note_on_c, 9, 51, 67
1, 39600, Note_on_c, 9, 51, 0
1, 39604, Note_on_c, 7, 52, 0
1, 39605, Note_on_c, 10, 59, 0
1, 39612, Note_on_c, 2, 59, 0
1, 39630, Note_on_c, 1, 33, 0
1, 39636, Note_on_c, 10, 59, 88
1, 39642, Note_on_c, 2, 59, 90
1, 39642, Note_on_c, 7, 59, 108
1, 39646, Note_on_c, 4, 61, 0
1, 39646, Note_on_c, 4, 57, 0
1, 39646, Note_on_c, 4, 64, 0
1, 39647, Note_on_c, 0, 59, 115
1, 39647, Note_on_c, 4, 64, 95
1, 39647, Note_on_c, 4, 61, 99
1, 39647, Note_on_c, 4, 57, 99
1, 39647, Note_on_c, 9, 51, 108
1, 39648, Note_on_c, 9, 51, 0
1, 39648, Note_on_c, 1, 33, 118
1, 39648, Note_on_c, 9, 40, 118
1, 39649, Note_on_c, 9, 40, 0
1, 39652, Note_on_c, 7, 59, 0
1, 39662, Note_on_c, 10, 64, 0
1, 39664, Note_on_c, 2, 64, 0
1, 39670, Note_on_c, 0, 52, 0
1, 39679, Note_on_c, 1, 33, 0
1, 39688, Note_on_c, 2, 64, 81
1, 39690, Note_on_c, 7, 52, 90
1, 39691, Note_on_c, 10, 64, 88
1, 39692, Note_on_c, 0, 59, 0
1, 39694, Note_on_c, 4, 61, 0
1, 39694, Note_on_c, 4, 64, 0
1, 39694, Note_on_c, 4, 57, 0
1, 39695, Note_on_c, 0, 52, 97
1, 39695, Note_on_c, 4, 57, 98
1, 39695, Note_on_c, 4, 61, 98
1, 39695, Note_on_c, 4, 64, 101
1, 39695, Note_on_c, 9, 51, 74
1, 39696, Note_on_c, 9, 51, 0
1, 39696, Note_on_c, 9, 36, 72
1, 39697, Note_on_c, 9, 36, 0
1, 39697, Note_on_c, 1, 33, 88
1, 39700, Note_on_c, 7, 52, 0
1, 39720, Note_on_c, 11, 71, 70
1, 39723, Note_on_c, 1, 33, 0
1, 39738, Note_on_c, 7, 61, 101
1, 39740, Note_on_c, 0, 52, 0
1, 39743, Note_on_c, 0, 61, 108
1, 39743, Note_on_c, 1, 33, 121
1, 39744, Note_on_c, 9, 36, 111
1, 39745, Note_on_c, 9, 36, 0
1, 39745, Note_on_c, 11, 69, 0
1, 39745, Note_on_c, 9, 51, 103
1, 39746, Note_on_c, 9, 51, 0
1, 39748, Note_on_c, 7, 61, 0
1, 39764, Note_on_c, 10, 64, 0
1, 39767, Note_on_c, 2, 64, 0
1, 39775, Note_on_c, 1, 33, 0
1, 39784, Note_on_c, 10, 64, 82
1, 39786, Note_on_c, 7, 59, 98
1, 39787, Note_on_c, 2, 64, 82
1, 39790, Note_on_c, 4, 64, 0
1, 39790, Note_on_c, 4, 57, 0
1, 39790, Note_on_c, 4, 61, 0
1, 39790, Note_on_c, 0, 61, 0
1, 39791, Note_on_c, 2, 59, 0
1, 39791, Note_on_c, 0, 59, 105
1, 39791, Note_on_c, 1, 33, 84
1, 39791, Note_on_c, 4, 64, 101
1, 39791, Note_on_c, 4, 57, 87
1, 39791, Note_on_c, 4, 61, 87
1, 39793, Note_on_c, 9, 51, 77
1, 39794, Note_on_c, 9, 51, 0
1, 39796, Note_on_c, 7, 59, 0
1, 39805, Note_on_c, 10, 59, 0
1, 39815, Note_on_c, 1, 33, 0
1, 39834, Note_on_c, 7, 52, 91
1, 39835, Note_on_c, 10, 59, 90
1, 39838, Note_on_c, 2, 59, 93
1, 39839, Note_on_c, 0, 52, 98
1, 39839, Note_on_c, 1, 33, 116
1, 39840, Note_on_c, 9, 40, 118
1, 39841, Note_on_c, 9, 40, 0
1, 39841, Note_on_c, 9, 51, 108
1, 39842, Note_on_c, 9, 51, 0
1, 39844, Note_on_c, 7, 52, 0
1, 39849, Note_on_c, 10, 64, 0
1, 39851, Note_on_c, 2, 64, 0
1, 39875, Note_on_c, 1, 33, 0
1, 39877, Note_on_c, 10, 64, 88
1, 39878, Note_on_c, 0, 59, 0
1, 39882, Note_on_c, 2, 64, 82
1, 39882, Note_on_c, 7, 59, 100
1, 39884, Note_on_c, 0, 52, 0
1, 39886, Note_on_c, 4, 64, 0
1, 39886, Note_on_c, 4, 57, 0
1, 39886, Note_on_c, 4, 61, 0
1, 39887, Note_on_c, 0, 59, 107
1, 39887, Note_on_c, 1, 33, 104
1, 39887, Note_on_c, 4, 64, 81
1, 39887, Note_on_c, 4, 61, 87
1, 39887, Note_on_c, 4, 57, 87
1, 39889, Note_on_c, 9, 51, 78
1, 39890, Note_on_c, 9, 51, 0
1, 39892, Note_on_c, 7, 59, 0
1, 39914, Note_on_c, 0, 45, 0
1, 39917, Note_on_c, 1, 33, 0
1, 39931, Note_on_c, 7, 42, 117
1, 39932, Note_on_c, 0, 59, 0
1, 39934, Note_on_c, 11, 71, 0
1, 39935, Note_on_c, 1, 30, 99
1, 39935, Note_on_c, 11, 69, 80
1, 39936, Note_on_c, 0, 42, 124
1, 39936, Note_on_c, 9, 36, 108
1, 39937, Note_on_c, 9, 36, 0
1, 39937, Note_on_c, 9, 51, 107
1, 39938, Note_on_c, 9, 51, 0
1, 39941, Note_on_c, 7, 42, 0
1, 39959, Note_on_c, 4, 64, 0
1, 39959, Note_on_c, 2, 64, 0
1, 39959, Note_on_c, 4, 61, 0
1, 39959, Note_on_c, 4, 57, 0
1, 39960, Note_on_c, 10, 64, 0
1, 39963, Note_on_c, 1, 30, 0
1, 39978, Note_on_c, 7, 49, 78
1, 39978, Note_on_c, 10, 64, 84
1, 39979, Note_on_c, 2, 64, 82
1, 39983, Note_on_c, 0, 49, 85
1, 39983, Note_on_c, 1, 30, 82
1, 39983, Note_on_c, 4, 57, 87
1, 39983, Note_on_c, 4, 64, 93
1, 39983, Note_on_c, 4, 61, 87
1, 39985, Note_on_c, 9, 51, 73
1, 39986, Note_on_c, 9, 51, 0
1, 39988, Note_on_c, 7, 49, 0
1, 39998, Note_on_c, 10, 59, 0
1, 40004, Note_on_c, 2, 59, 0
1, 40007, Note_on_c, 1, 30, 0
1, 40026, Note_on_c, 7, 56, 108
1, 40026, Note_on_c, 10, 57, 88
1, 40027, Note_on_c, 2, 57, 88
1, 40030, Note_on_c, 4, 57, 0
1, 40030, Note_on_c, 4, 64, 0
1, 40030, Note_on_c, 4, 61, 0
1, 40031, Note_on_c, 0, 56, 115
1, 40031, Note_on_c, 1, 30, 121
1, 40031, Note_on_c, 4, 61, 95
1, 40031, Note_on_c, 4, 64, 90
1, 40031, Note_on_c, 4, 57, 95
1, 40031, Note_on_c, 9, 51, 112
1, 40032, Note_on_c, 9, 51, 0
1, 40032, Note_on_c, 9, 40, 118
1, 40033, Note_on_c, 9, 40, 0
1, 40036, Note_on_c, 7, 56, 0
1, 40037, Note_on_c, 10, 64, 0
1, 40042, Note_on_c, 2, 64, 0
1, 40054, Note_on_c, 0, 49, 0
1, 40060, Note_on_c, 1, 30, 0
1, 40071, Note_on_c, 10, 64, 82
1, 40074, Note_on_c, 7, 49, 90
1, 40075, Note_on_c, 2, 64, 81
1, 40076, Note_on_c, 0, 56, 0
1, 40078, Note_on_c, 4, 64, 0
1, 40078, Note_on_c, 4, 61, 0
1, 40078, Note_on_c, 4, 57, 0
1, 40079, Note_on_c, 0, 49, 97
1, 40079, Note_on_c, 1, 30, 91
1, 40079, Note_on_c, 4, 57, 105
1, 40079, Note_on_c, 4, 64, 102
1, 40079, Note_on_c, 4, 61, 105
1, 40080, Note_on_c, 9, 36, 81
1, 40081, Note_on_c, 9, 36, 0
1, 40081, Note_on_c, 9, 51, 76
1, 40082, Note_on_c, 9, 51, 0
1, 40084, Note_on_c, 7, 49, 0
1, 40102, Note_on_c, 1, 30, 0
1, 40122, Note_on_c, 7, 57, 101
1, 40124, Note_on_c, 0, 49, 0
1, 40127, Note_on_c, 0, 57, 108
1, 40127, Note_on_c, 1, 30, 117
1, 40128, Note_on_c, 9, 36, 111
1, 40129, Note_on_c, 9, 36, 0
1, 40129, Note_on_c, 9, 51, 106
1, 40130, Note_on_c, 9, 51, 0
1, 40132, Note_on_c, 7, 57, 0
1, 40146, Note_on_c, 2, 64, 0
1, 40151, Note_on_c, 10, 64, 0
1, 40154, Note_on_c, 1, 30, 0
1, 40166, Note_on_c, 2, 64, 81
1, 40170, Note_on_c, 7, 56, 98
1, 40171, Note_on_c, 10, 64, 79
1, 40174, Note_on_c, 4, 61, 0
1, 40174, Note_on_c, 4, 64, 0
1, 40174, Note_on_c, 4, 57, 0
1, 40174, Note_on_c, 0, 57, 0
1, 40175, Note_on_c, 0, 56, 105
1, 40175, Note_on_c, 1, 30, 89
1, 40175, Note_on_c, 4, 61, 101
1, 40175, Note_on_c, 4, 57, 101
1, 40175, Note_on_c, 4, 64, 94
1, 40177, Note_on_c, 9, 51, 74
1, 40178, Note_on_c, 9, 51, 0
1, 40178, Note_on_c, 10, 57, 0
1, 40180, Note_on_c, 7, 56, 0
1, 40189, Note_on_c, 2, 57, 0
1, 40196, Note_on_c, 1, 30, 0
1, 40218, Note_on_c, 7, 49, 91
1, 40218, Note_on_c, 10, 57, 82
1, 40219, Note_on_c, 2, 57, 93
1, 40223, Note_on_c, 0, 49, 98
1, 40223, Note_on_c, 1, 30, 121
1, 40224, Note_on_c, 9, 40, 118
1, 40224, Note_on_c, 9, 51, 107
1, 40225, Note_on_c, 9, 51, 0
1, 40225, Note_on_c, 9, 40, 0
1, 40228, Note_on_c, 7, 49, 0
1, 40235, Note_on_c, 2, 64, 0
1, 40242, Note_on_c, 10, 64, 0
1, 40253, Note_on_c, 1, 30, 0
1, 40262, Note_on_c, 0, 56, 0
1, 40263, Note_on_c, 10, 64, 80
1, 40266, Note_on_c, 7, 56, 100
1, 40268, Note_on_c, 0, 49, 0
1, 40269, Note_on_c, 2, 64, 88
1, 40270, Note_on_c, 4, 57, 0
1, 40270, Note_on_c, 4, 61, 0
1, 40270, Note_on_c, 4, 64, 0
1, 40271, Note_on_c, 0, 56, 107
1, 40271, Note_on_c, 1, 30, 78
1, 40271, Note_on_c, 4, 61, 95
1, 40271, Note_on_c, 4, 64, 81
1, 40271, Note_on_c, 4, 57, 95
1, 40273, Note_on_c, 9, 51, 62
1, 40274, Note_on_c, 9, 51, 0
1, 40276, Note_on_c, 7, 56, 0
1, 40292, Note_on_c, 1, 30, 0
1, 40298, Note_on_c, 0, 42, 0
1, 40315, Note_on_c, 7, 50, 117
1, 40316, Note_on_c, 0, 56, 0
1, 40319, Note_on_c, 1, 38, 108
1, 40320, Note_on_c, 0, 50, 124
1, 40320, Note_on_c, 9, 51, 102
1, 40320, Note_on_c, 9, 36, 111
1, 40321, Note_on_c, 9, 36, 0
1, 40321, Note_on_c, 9, 51, 0
1, 40325, Note_on_c, 7, 50, 0
1, 40334, Note_on_c, 10, 64, 0
1, 40343, Note_on_c, 4, 61, 0
1, 40343, Note_on_c, 2, 64, 0
1, 40343, Note_on_c, 4, 64, 0
1, 40343, Note_on_c, 4, 57, 0
1, 40348, Note_on_c, 1, 38, 0
1, 40353, Note_on_c, 10, 64, 83
1, 40362, Note_on_c, 7, 57, 78
1, 40363, Note_on_c, 2, 64, 84
1, 40364, Note_on_c, 10, 57, 0
1, 40367, Note_on_c, 0, 57, 85
1, 40367, Note_on_c, 1, 38, 85
1, 40367, Note_on_c, 4, 64, 84
1, 40367, Note_on_c, 4, 57, 93
1, 40367, Note_on_c, 4, 61, 93
1, 40369, Note_on_c, 9, 51, 66
1, 40370, Note_on_c, 9, 51, 0
1, 40372, Note_on_c, 7, 57, 0
1, 40377, Note_on_c, 2, 57, 0
1, 40393, Note_on_c, 1, 38, 0
1, 40406, Note_on_c, 10, 57, 80
1, 40408, Note_on_c, 2, 57, 88
1, 40410, Note_on_c, 7, 64, 101
1, 40413, Note_on_c, 9, 40, 81
1, 40414, Note_on_c, 9, 40, 0
1, 40414, Note_on_c, 4, 57, 0
1, 40414, Note_on_c, 4, 64, 0
1, 40414, Note_on_c, 4, 61, 0
1, 40415, Note_on_c, 0, 64, 108
1, 40415, Note_on_c, 1, 38, 121
1, 40415, Note_on_c, 4, 64, 75
1, 40415, Note_on_c, 4, 61, 77
1, 40415, Note_on_c, 4, 57, 77
1, 40416, Note_on_c, 9, 40, 118
1, 40417, Note_on_c, 9, 40, 0
1, 40417, Note_on_c, 9, 51, 105
1, 40418, Note_on_c, 9, 51, 0
1, 40420, Note_on_c, 7, 64, 0
1, 40422, Note_on_c, 2, 64, 0
1, 40424, Note_on_c, 10, 64, 0
1, 40448, Note_on_c, 1, 38, 0
1, 40455, Note_on_c, 10, 64, 82
1, 40458, Note_on_c, 2, 64, 88
1, 40458, Note_on_c, 7, 57, 90
1, 40459, Note_on_c, 7, 50, 94
1, 40462, Note_on_c, 0, 57, 0
1, 40462, Note_on_c, 4, 57, 0
1, 40463, Note_on_c, 0, 50, 0
1, 40463, Note_on_c, 4, 61, 0
1, 40463, Note_on_c, 4, 64, 0
1, 40463, Note_on_c, 0, 57, 97
1, 40463, Note_on_c, 1, 38, 90
1, 40463, Note_on_c, 4, 62, 105
1, 40463, Note_on_c, 4, 57, 105
1, 40463, Note_on_c, 4, 66, 95
1, 40463, Note_on_c, 9, 51, 58
1, 40464, Note_on_c, 9, 51, 0
1, 40464, Note_on_c, 0, 50, 101
1, 40464, Note_on_c, 9, 36, 76
1, 40465, Note_on_c, 9, 36, 0
1, 40468, Note_on_c, 7, 57, 0
1, 40469, Note_on_c, 7, 50, 0
1, 40486, Note_on_c, 0, 64, 0
1, 40492, Note_on_c, 1, 38, 0
1, 40506, Note_on_c, 7, 62, 101
1, 40507, Note_on_c, 11, 66, 91
1, 40511, Note_on_c, 0, 62, 108
1, 40511, Note_on_c, 1, 38, 116
1, 40512, Note_on_c, 9, 51, 92
1, 40512, Note_on_c, 9, 36, 110
1, 40513, Note_on_c, 9, 36, 0
1, 40513, Note_on_c, 9, 51, 0
1, 40516, Note_on_c, 7, 62, 0
1, 40518, Note_on_c, 11, 69, 0
1, 40531, Note_on_c, 10, 64, 0
1, 40534, Note_on_c, 2, 64, 0
1, 40541, Note_on_c, 1, 38, 0
1, 40547, Note_on_c, 10, 57, 0
1, 40547, Note_on_c, 10, 64, 80
1, 40552, Note_on_c, 0, 57, 0
1, 40554, Note_on_c, 2, 64, 85
1, 40554, Note_on_c, 7, 57, 98
1, 40558, Note_on_c, 4, 66, 0
1, 40558, Note_on_c, 4, 57, 0
1, 40558, Note_on_c, 4, 62, 0
1, 40559, Note_on_c, 0, 57, 105
1, 40559, Note_on_c, 1, 38, 99
1, 40559, Note_on_c, 4, 66, 95
1, 40559, Note_on_c, 4, 62, 101
1, 40559, Note_on_c, 4, 57, 101
1, 40559, Note_on_c, 9, 51, 46
1, 40560, Note_on_c, 9, 51, 0
1, 40560, Note_on_c, 9, 36, 110
1, 40561, Note_on_c, 9, 36, 0
1, 40564, Note_on_c, 7, 57, 0
1, 40568, Note_on_c, 2, 57, 0
1, 40582, Note_on_c, 0, 62, 0
1, 40588, Note_on_c, 1, 38, 0
1, 40600, Note_on_c, 10, 57, 85
1, 40603, Note_on_c, 7, 62, 72
1, 40603, Note_on_c, 7, 50, 91
1, 40606, Note_on_c, 2, 57, 93
1, 40607, Note_on_c, 0, 50, 0
1, 40607, Note_on_c, 9, 57, 86
1, 40608, Note_on_c, 9, 57, 0
1, 40608, Note_on_c, 0, 62, 79
1, 40608, Note_on_c, 0, 50, 98
1, 40608, Note_on_c, 1, 38, 112
1, 40608, Note_on_c, 9, 40, 118
1, 40609, Note_on_c, 9, 40, 0
1, 40613, Note_on_c, 7, 62, 0
1, 40613, Note_on_c, 7, 50, 0
1, 40616, Note_on_c, 10, 64, 0
1, 40617, Note_on_c, 2, 64, 0
1, 40630, Note_on_c, 0, 57, 0
1, 40639, Note_on_c, 1, 38, 0
1, 40645, Note_on_c, 10, 64, 81
1, 40649, Note_on_c, 2, 64, 88
1, 40650, Note_on_c, 7, 57, 100
1, 40654, Note_on_c, 4, 57, 0
1, 40655, Note_on_c, 4, 62, 0
1, 40655, Note_on_c, 4, 66, 0
1, 40655, Note_on_c, 0, 57, 107
1, 40655, Note_on_c, 1, 40, 114
1, 40655, Note_on_c, 4, 57, 86
1, 40655, Note_on_c, 4, 61, 86
1, 40655, Note_on_c, 4, 64, 87
1, 40660, Note_on_c, 7, 57, 0
1, 40679, Note_on_c, 0, 62, 0
1, 40693, Note_on_c, 1, 40, 0
1, 40698, Note_on_c, 11, 64, 0
1, 40699, Note_on_c, 7, 45, 117
1, 40700, Note_on_c, 0, 57, 0
1, 40700, Note_on_c, 11, 66, 0
1, 40703, Note_on_c, 0, 50, 0
1, 40704, Note_on_c, 0, 45, 124
1, 40704, Note_on_c, 1, 33, 118
1, 40704, Note_on_c, 9, 49, 74
1, 40704, Note_on_c, 9, 36, 112
1, 40704, Note_on_c, 11, 69, 78
1, 40704, Note_on_c, 11, 64, 64
1, 40705, Note_on_c, 9, 36, 0
1, 40705, Note_on_c, 9, 49, 0
1, 40709, Note_on_c, 7, 45, 0
1, 40726, Note_on_c, 1, 33, 0
1, 40726, Note_on_c, 2, 64, 0
1, 40727, Note_on_c, 4, 57, 0
1, 40727, Note_on_c, 10, 64, 0
1, 40727, Note_on_c, 4, 61, 0
1, 40727, Note_on_c, 4, 64, 0
1, 40744, Note_on_c, 10, 64, 75
1, 40745, Note_on_c, 2, 64, 85
1, 40746, Note_on_c, 7, 52, 78
1, 40751, Note_on_c, 0, 52, 85
1, 40751, Note_on_c, 1, 33, 91
1, 40751, Note_on_c, 4, 57, 101
1, 40751, Note_on_c, 4, 61, 101
1, 40751, Note_on_c, 4, 64, 94
1, 40753, Note_on_c, 9, 51, 65
1, 40754, Note_on_c, 9, 51, 0
1, 40754, Note_on_c, 2, 57, 0
1, 40756, Note_on_c, 7, 52, 0
1, 40784, Note_on_c, 1, 33, 0
1, 40791, Note_on_c, 10, 57, 0
1, 40793, Note_on_c, 2, 59, 90
1, 40793, Note_on_c, 10, 59, 84
1, 40794, Note_on_c, 7, 59, 108
1, 40796, Note_on_c, 10, 64, 0
1, 40798, Note_on_c, 4, 57, 0
1, 40798, Note_on_c, 4, 61, 0
1, 40798, Note_on_c, 4, 64, 0
1, 40799, Note_on_c, 0, 59, 115
1, 40799, Note_on_c, 1, 33, 116
1, 40799, Note_on_c, 4, 61, 91
1, 40799, Note_on_c, 4, 64, 98
1, 40799, Note_on_c, 4, 57, 91
1, 40800, Note_on_c, 9, 40, 118
1, 40801, Note_on_c, 9, 40, 0
1, 40801, Note_on_c, 9, 51, 107
1, 40802, Note_on_c, 9, 51, 0
1, 40804, Note_on_c, 7, 59, 0
1, 40804, Note_on_c, 2, 64, 0
1, 40822, Note_on_c, 0, 52, 0
1, 40834, Note_on_c, 1, 33, 0
1, 40838, Note_on_c, 2, 64, 86
1, 40839, Note_on_c, 10, 64, 81
1, 40842, Note_on_c, 7, 52, 90
1, 40846, Note_on_c, 0, 59, 0
1, 40846, Note_on_c, 4, 61, 0
1, 40846, Note_on_c, 4, 64, 0
1, 40846, Note_on_c, 4, 57, 0
1, 40847, Note_on_c, 0, 52, 97
1, 40847, Note_on_c, 1, 33, 99
1, 40847, Note_on_c, 4, 57, 96
1, 40847, Note_on_c, 4, 64, 94
1, 40847, Note_on_c, 4, 61, 96
1, 40848, Note_on_c, 9, 36, 75
1, 40849, Note_on_c, 9, 36, 0
1, 40849, Note_on_c, 9, 51, 69
1, 40850, Note_on_c, 9, 51, 0
1, 40852, Note_on_c, 7, 52, 0
1, 40880, Note_on_c, 1, 33, 0
1, 40890, Note_on_c, 7, 61, 101
1, 40895, Note_on_c, 0, 61, 108
1, 40895, Note_on_c, 1, 33, 121
1, 40896, Note_on_c, 9, 36, 112
1, 40897, Note_on_c, 9, 36, 0
1, 40897, Note_on_c, 9, 51, 101
1, 40898, Note_on_c, 9, 51, 0
1, 40900, Note_on_c, 7, 61, 0
1, 40910, Note_on_c, 2, 64, 0
1, 40918, Note_on_c, 10, 64, 0
1, 40928, Note_on_c, 1, 33, 0
1, 40932, Note_on_c, 2, 64, 77
1, 40935, Note_on_c, 10, 64, 77
1, 40938, Note_on_c, 7, 59, 98
1, 40942, Note_on_c, 4, 64, 0
1, 40942, Note_on_c, 4, 57, 0
1, 40942, Note_on_c, 4, 61, 0
1, 40942, Note_on_c, 0, 61, 0
1, 40943, Note_on_c, 0, 59, 105
1, 40943, Note_on_c, 1, 33, 84
1, 40943, Note_on_c, 4, 57, 103
1, 40943, Note_on_c, 4, 64, 85
1, 40943, Note_on_c, 4, 61, 103
1, 40943, Note_on_c, 9, 51, 69
1, 40944, Note_on_c, 9, 51, 0
1, 40948, Note_on_c, 2, 59, 0
1, 40948, Note_on_c, 7, 59, 0
1, 40949, Note_on_c, 10, 59, 0
1, 40966, Note_on_c, 0, 52, 0
1, 40972, Note_on_c, 1, 33, 0
1, 40984, Note_on_c, 2, 59, 85
1, 40985, Note_on_c, 10, 59, 80
1, 40986, Note_on_c, 7, 52, 91
1, 40991, Note_on_c, 0, 52, 98
1, 40991, Note_on_c, 1, 33, 121
1, 40991, Note_on_c, 9, 51, 95
1, 40992, Note_on_c, 9, 51, 0
1, 40992, Note_on_c, 9, 40, 118
1, 40993, Note_on_c, 9, 40, 0
1, 40996, Note_on_c, 7, 52, 0
1, 41000, Note_on_c, 2, 64, 0
1, 41003, Note_on_c, 10, 64, 0
1, 41026, Note_on_c, 1, 33, 0
1, 41030, Note_on_c, 2, 64, 86
1, 41032, Note_on_c, 10, 64, 79
1, 41033, Note_on_c, 0, 59, 0
1, 41034, Note_on_c, 7, 59, 100
1, 41038, Note_on_c, 4, 64, 0
1, 41038, Note_on_c, 4, 57, 0
1, 41038, Note_on_c, 4, 61, 0
1, 41039, Note_on_c, 0, 59, 107
1, 41039, Note_on_c, 1, 33, 91
1, 41039, Note_on_c, 4, 61, 98
1, 41039, Note_on_c, 4, 64, 85
1, 41039, Note_on_c, 4, 57, 98
1, 41039, Note_on_c, 9, 51, 100
1, 41040, Note_on_c, 9, 51, 0
1, 41044, Note_on_c, 7, 59, 0
1, 41062, Note_on_c, 0, 52, 0
1, 41066, Note_on_c, 0, 45, 0
1, 41068, Note_on_c, 1, 33, 0
1, 41083, Note_on_c, 7, 45, 117
1, 41084, Note_on_c, 0, 59, 0
1, 41087, Note_on_c, 1, 33, 116
1, 41087, Note_on_c, 9, 51, 97
1, 41088, Note_on_c, 9, 51, 0
1, 41088, Note_on_c, 0, 45, 124
1, 41088, Note_on_c, 9, 36, 110
1, 41089, Note_on_c, 9, 36, 0
1, 41093, Note_on_c, 7, 45, 0
1, 41111, Note_on_c, 4, 64, 0
1, 41111, Note_on_c, 4, 61, 0
1, 41111, Note_on_c, 4, 57, 0
1, 41114, Note_on_c, 2, 64, 0
1, 41115, Note_on_c, 10, 64, 0
1, 41121, Note_on_c, 1, 33, 0
1, 41130, Note_on_c, 7, 52, 78
1, 41132, Note_on_c, 2, 64, 79
1, 41133, Note_on_c, 10, 64, 77
1, 41135, Note_on_c, 0, 52, 85
1, 41135, Note_on_c, 1, 33, 91
1, 41135, Note_on_c, 4, 61, 101
1, 41135, Note_on_c, 4, 64, 97
1, 41135, Note_on_c, 4, 57, 101
1, 41135, Note_on_c, 9, 51, 67
1, 41136, Note_on_c, 9, 51, 0
1, 41140, Note_on_c, 7, 52, 0
1, 41142, Note_on_c, 2, 59, 0
1, 41146, Note_on_c, 10, 59, 0
1, 41163, Note_on_c, 1, 33, 0
1, 41178, Note_on_c, 7, 59, 108
1, 41178, Note_on_c, 10, 59, 80
1, 41181, Note_on_c, 2, 59, 93
1, 41182, Note_on_c, 4, 61, 0
1, 41182, Note_on_c, 4, 64, 0
1, 41182, Note_on_c, 4, 57, 0
1, 41183, Note_on_c, 0, 59, 115
1, 41183, Note_on_c, 1, 33, 114
1, 41183, Note_on_c, 4, 57, 95
1, 41183, Note_on_c, 4, 61, 95
1, 41183, Note_on_c, 4, 64, 87
1, 41183, Note_on_c, 9, 51, 105
1, 41184, Note_on_c, 9, 51, 0
1, 41184, Note_on_c, 9, 40, 118
1, 41185, Note_on_c, 9, 40, 0
1, 41188, Note_on_c, 7, 59, 0
1, 41190, Note_on_c, 10, 64, 0
1, 41197, Note_on_c, 2, 64, 0
1, 41206, Note_on_c, 0, 52, 0
1, 41216, Note_on_c, 1, 33, 0
1, 41225, Note_on_c, 2, 64, 79
1, 41225, Note_on_c, 10, 64, 81
1, 41226, Note_on_c, 7, 52, 90
1, 41228, Note_on_c, 0, 59, 0
1, 41230, Note_on_c, 4, 57, 0
1, 41230, Note_on_c, 4, 61, 0
1, 41230, Note_on_c, 4, 64, 0
1, 41231, Note_on_c, 0, 52, 97
1, 41231, Note_on_c, 1, 33, 85
1, 41231, Note_on_c, 4, 64, 98
1, 41231, Note_on_c, 4, 61, 98
1, 41231, Note_on_c, 4, 57, 98
1, 41231, Note_on_c, 9, 51, 99
1, 41232, Note_on_c, 9, 51, 0
1, 41232, Note_on_c, 9, 36, 72
1, 41233, Note_on_c, 9, 36, 0
1, 41236, Note_on_c, 7, 52, 0
1, 41260, Note_on_c, 1, 33, 0
1, 41274, Note_on_c, 7, 61, 101
1, 41276, Note_on_c, 0, 52, 0
1, 41277, Note_on_c, 11, 71, 79
1, 41279, Note_on_c, 0, 61, 108
1, 41279, Note_on_c, 1, 33, 121
1, 41280, Note_on_c, 9, 36, 111
1, 41281, Note_on_c, 9, 36, 0
1, 41281, Note_on_c, 9, 51, 80
1, 41282, Note_on_c, 9, 51, 0
1, 41284, Note_on_c, 7, 61, 0
1, 41297, Note_on_c, 11, 69, 0
1, 41302, Note_on_c, 10, 64, 0
1, 41310, Note_on_c, 2, 64, 0
1, 41314, Note_on_c, 1, 33, 0
1, 41322, Note_on_c, 7, 59, 98
1, 41325, Note_on_c, 10, 64, 79
1, 41326, Note_on_c, 4, 57, 0
1, 41326, Note_on_c, 4, 61, 0
1, 41326, Note_on_c, 4, 64, 0
1, 41326, Note_on_c, 0, 61, 0
1, 41327, Note_on_c, 0, 59, 105
1, 41327, Note_on_c, 1, 33, 89
1, 41327, Note_on_c, 2, 64, 78
1, 41327, Note_on_c, 4, 57, 111
1, 41327, Note_on_c, 4, 61, 111
1, 41327, Note_on_c, 4, 64, 86
1, 41329, Note_on_c, 9, 51, 61
1, 41330, Note_on_c, 9, 51, 0
1, 41332, Note_on_c, 7, 59, 0
1, 41336, Note_on_c, 2, 59, 0
1, 41336, Note_on_c, 10, 59, 0
1, 41357, Note_on_c, 1, 33, 0
1, 41370, Note_on_c, 7, 52, 91
1, 41371, Note_on_c, 10, 59, 85
1, 41372, Note_on_c, 2, 59, 89
1, 41375, Note_on_c, 0, 52, 98
1, 41375, Note_on_c, 1, 33, 114
1, 41376, Note_on_c, 9, 40, 118
1, 41377, Note_on_c, 9, 40, 0
1, 41377, Note_on_c, 9, 51, 83
1, 41378, Note_on_c, 9, 51, 0
1, 41380, Note_on_c, 7, 52, 0
1, 41388, Note_on_c, 2, 64, 0
1, 41388, Note_on_c, 10, 64, 0
1, 41413, Note_on_c, 1, 33, 0
1, 41414, Note_on_c, 0, 59, 0
1, 41417, Note_on_c, 10, 64, 78
1, 41418, Note_on_c, 7, 59, 100
1, 41420, Note_on_c, 0, 52, 0
1, 41420, Note_on_c, 2, 64, 91
1, 41422, Note_on_c, 4, 61, 0
1, 41422, Note_on_c, 4, 57, 0
1, 41422, Note_on_c, 4, 64, 0
1, 41423, Note_on_c, 0, 59, 107
1, 41423, Note_on_c, 1, 33, 104
1, 41423, Note_on_c, 4, 64, 70
1, 41423, Note_on_c, 4, 61, 87
1, 41423, Note_on_c, 4, 57, 87
1, 41425, Note_on_c, 9, 51, 101
1, 41426, Note_on_c, 9, 51, 0
1, 41428, Note_on_c, 7, 59, 0
1, 41450, Note_on_c, 0, 45, 0
1, 41454, Note_on_c, 1, 33, 0
1, 41461, Note_on_c, 11, 69, 80
1, 41463, Note_on_c, 11, 64, 0
1, 41466, Note_on_c, 11, 71, 0
1, 41466, Note_on_c, 11, 64, 70
1, 41467, Note_on_c, 7, 42, 117
1, 41467, Control_c, 7, 11, 126
1, 41468, Note_on_c, 0, 59, 0
1, 41471, Note_on_c, 1, 30, 101
1, 41472, Note_on_c, 0, 42, 124
1, 41472, Note_on_c, 9, 36, 108
1, 41473, Note_on_c, 9, 36, 0
1, 41473, Note_on_c, 9, 51, 93
1, 41474, Note_on_c, 9, 51, 0
1, 41477, Note_on_c, 7, 42, 0
1, 41480, Control_c, 9, 11, 126
1, 41491, Control_c, 7, 11, 125
1, 41493, Note_on_c, 10, 64, 0
1, 41495, Note_on_c, 4, 64, 0
1, 41495, Note_on_c, 4, 61, 0
1, 41495, Note_on_c, 4, 57, 0
1, 41499, Note_on_c, 2, 64, 0
1, 41501, Note_on_c, 1, 30, 0
1, 41502, Control_c, 2, 11, 126
1, 41502, Control_c, 4, 11, 126
1, 41504, Control_c, 0, 11, 126
1, 41504, Control_c, 9, 11, 125
1, 41504, Control_c, 11, 11, 126
1, 41507, Control_c, 7, 11, 124
1, 41507, Control_c, 10, 11, 126
1, 41512, Control_c, 1, 11, 126
1, 41513, Note_on_c, 10, 64, 79
1, 41514, Note_on_c, 7, 49, 78
1, 41517, Note_on_c, 2, 64, 85
1, 41518, Control_c, 2, 11, 125
1, 41518, Control_c, 4, 11, 125
1, 41519, Note_on_c, 0, 49, 85
1, 41519, Note_on_c, 1, 30, 101
1, 41519, Note_on_c, 4, 57, 88
1, 41519, Note_on_c, 4, 64, 92
1, 41519, Note_on_c, 4, 61, 88
1, 41520, Control_c, 0, 11, 125
1, 41520, Control_c, 9, 11, 124
1, 41520, Control_c, 11, 11, 125
1, 41521, Note_on_c, 9, 51, 55
1, 41522, Note_on_c, 9, 51, 0
1, 41523, Control_c, 7, 11, 123
1, 41523, Control_c, 10, 11, 125
1, 41524, Note_on_c, 7, 49, 0
1, 41528, Control_c, 1, 11, 125
1, 41529, Note_on_c, 2, 59, 0
1, 41534, Control_c, 2, 11, 124
1, 41534, Control_c, 4, 11, 124
1, 41536, Control_c, 0, 11, 124
1, 41536, Control_c, 9, 11, 123
1, 41536, Control_c, 11, 11, 124
1, 41539, Control_c, 7, 11, 122
1, 41539, Control_c, 10, 11, 124
1, 41544, Control_c, 1, 11, 124
1, 41545, Note_on_c, 1, 30, 0
1, 41550, Control_c, 2, 11, 123
1, 41550, Control_c, 4, 11, 123
1, 41552, Control_c, 0, 11, 123
1, 41552, Control_c, 9, 11, 122
1, 41552, Control_c, 11, 11, 123
1, 41555, Control_c, 10, 11, 123
1, 41560, Control_c, 1, 11, 123
1, 41561, Note_on_c, 10, 57, 85
1, 41562, Note_on_c, 10, 59, 0
1, 41562, Note_on_c, 7, 56, 108
1, 41563, Control_c, 7, 11, 121
1, 41566, Note_on_c, 4, 57, 0
1, 41566, Note_on_c, 4, 64, 0
1, 41566, Note_on_c, 4, 61, 0
1, 41566, Note_on_c, 10, 64, 0
1, 41566, Control_c, 2, 11, 122
1, 41566, Control_c, 4, 11, 122
1, 41567, Note_on_c, 0, 56, 115
1, 41567, Note_on_c, 1, 30, 121
1, 41567, Note_on_c, 4, 61, 92
1, 41567, Note_on_c, 4, 64, 78
1, 41567, Note_on_c, 4, 57, 92
1, 41567, Note_on_c, 9, 51, 96
1, 41568, Note_on_c, 9, 51, 0
1, 41568, Control_c, 0, 11, 122
1, 41568, Note_on_c, 2, 57, 93
1, 41568, Note_on_c, 9, 40, 118
1, 41568, Control_c, 9, 11, 121
1, 41568, Control_c, 11, 11, 122
1, 41569, Note_on_c, 9, 40, 0
1, 41571, Control_c, 10, 11, 122
1, 41572, Note_on_c, 7, 56, 0
1, 41576, Control_c, 1, 11, 122
1, 41579, Control_c, 7, 11, 120
1, 41582, Control_c, 4, 11, 121
1, 41583, Note_on_c, 2, 64, 0
1, 41590, Note_on_c, 0, 49, 0
1, 41590, Control_c, 2, 11, 121
1, 41592, Control_c, 0, 11, 121
1, 41592, Control_c, 1, 11, 121
1, 41592, Control_c, 9, 11, 120
1, 41592, Control_c, 11, 11, 121
1, 41595, Control_c, 7, 11, 119
1, 41595, Control_c, 10, 11, 121
1, 41602, Note_on_c, 1, 30, 0
1, 41606, Control_c, 2, 11, 120
1, 41606, Control_c, 4, 11, 120
1, 41606, Note_on_c, 10, 64, 81
1, 41608, Control_c, 0, 11, 120
1, 41608, Control_c, 9, 11, 119
1, 41608, Control_c, 11, 11, 120
1, 41609, Note_on_c, 2, 64, 86
1, 41610, Note_on_c, 7, 49, 90
1, 41611, Control_c, 7, 11, 118
1, 41611, Control_c, 10, 11, 120
1, 41612, Note_on_c, 0, 56, 0
1, 41614, Note_on_c, 4, 61, 0
1, 41614, Note_on_c, 4, 64, 0
1, 41614, Note_on_c, 4, 57, 0
1, 41615, Note_on_c, 0, 49, 97
1, 41615, Note_on_c, 1, 30, 93
1, 41615, Note_on_c, 4, 61, 98
1, 41615, Note_on_c, 4, 57, 98
1, 41615, Note_on_c, 4, 64, 87
1, 41616, Control_c, 1, 11, 120
1, 41616, Note_on_c, 9, 36, 81
1, 41617, Note_on_c, 9, 36, 0
1, 41617, Note_on_c, 9, 51, 101
1, 41618, Note_on_c, 9, 51, 0
1, 41620, Note_on_c, 7, 49, 0
1, 41622, Control_c, 2, 11, 119
1, 41622, Control_c, 4, 11, 119
1, 41624, Control_c, 0, 11, 119
1, 41624, Control_c, 9, 11, 118
1, 41624, Control_c, 11, 11, 119
1, 41627, Control_c, 7, 11, 117
1, 41627, Control_c, 10, 11, 119
1, 41632, Control_c, 1, 11, 119
1, 41638, Control_c, 2, 11, 118
1, 41638, Control_c, 4, 11, 118
1, 41640, Note_on_c, 1, 30, 0
1, 41640, Control_c, 0, 11, 118
1, 41640, Control_c, 9, 11, 117
1, 41640, Control_c, 11, 11, 118
1, 41643, Control_c, 10, 11, 118
1, 41648, Control_c, 1, 11, 118
1, 41651, Control_c, 7, 11, 116
1, 41654, Control_c, 2, 11, 117
1, 41654, Control_c, 4, 11, 117
1, 41656, Control_c, 0, 11, 117
1, 41656, Control_c, 9, 11, 116
1, 41656, Control_c, 11, 11, 117
1, 41658, Note_on_c, 7, 57, 101
1, 41659, Control_c, 10, 11, 117
1, 41660, Note_on_c, 0, 49, 0
1, 41663, Note_on_c, 0, 57, 108
1, 41663, Note_on_c, 1, 30, 120
1, 41664, Control_c, 1, 11, 117
1, 41664, Note_on_c, 9, 36, 111
1, 41665, Note_on_c, 9, 36, 0
1, 41665, Note_on_c, 9, 51, 96
1, 41666, Note_on_c, 9, 51, 0
1, 41667, Control_c, 7, 11, 115
1, 41668, Note_on_c, 7, 57, 0
1, 41670, Control_c, 4, 11, 116
1, 41672, Control_c, 0, 11, 116
1, 41672, Control_c, 11, 11, 116
1, 41675, Control_c, 10, 11, 116
1, 41678, Control_c, 2, 11, 116
1, 41680, Note_on_c, 10, 64, 0
1, 41680, Control_c, 1, 11, 116
1, 41680, Control_c, 9, 11, 115
1, 41683, Control_c, 7, 11, 114
1, 41686, Control_c, 4, 11, 115
1, 41689, Note_on_c, 2, 64, 0
1, 41693, Note_on_c, 1, 30, 0
1, 41694, Control_c, 2, 11, 115
1, 41696, Control_c, 0, 11, 115
1, 41696, Control_c, 1, 11, 115
1, 41696, Control_c, 9, 11, 114
1, 41696, Control_c, 11, 11, 115
1, 41699, Control_c, 7, 11, 113
1, 41699, Control_c, 10, 11, 115
1, 41704, Note_on_c, 10, 64, 77
1, 41706, Note_on_c, 7, 56, 98
1, 41707, Note_on_c, 2, 64, 81
1, 41710, Note_on_c, 4, 64, 0
1, 41710, Note_on_c, 4, 61, 0
1, 41710, Note_on_c, 0, 57, 0
1, 41710, Note_on_c, 4, 57, 0
1, 41710, Control_c, 2, 11, 114
1, 41710, Control_c, 4, 11, 114
1, 41711, Note_on_c, 0, 56, 105
1, 41711, Note_on_c, 1, 30, 103
1, 41711, Note_on_c, 4, 57, 99
1, 41711, Note_on_c, 4, 61, 99
1, 41711, Note_on_c, 4, 64, 86
1, 41712, Control_c, 0, 11, 114
1, 41712, Control_c, 9, 11, 113
1, 41712, Control_c, 11, 11, 114
1, 41713, Note_on_c, 9, 51, 57
1, 41714, Note_on_c, 9, 51, 0
1, 41715, Control_c, 7, 11, 112
1, 41715, Control_c, 10, 11, 114
1, 41716, Note_on_c, 7, 56, 0
1, 41720, Note_on_c, 2, 57, 0
1, 41720, Control_c, 1, 11, 114
1, 41726, Control_c, 2, 11, 113
1, 41726, Control_c, 4, 11, 113
1, 41728, Control_c, 0, 11, 113
1, 41728, Control_c, 9, 11, 112
1, 41728, Control_c, 11, 11, 113
1, 41731, Control_c, 10, 11, 113
1, 41736, Control_c, 1, 11, 113
1, 41739, Note_on_c, 1, 30, 0
1, 41739, Note_on_c, 10, 57, 0
1, 41739, Control_c, 7, 11, 111
1, 41742, Control_c, 2, 11, 112
1, 41742, Control_c, 4, 11, 112
1, 41744, Control_c, 0, 11, 112
1, 41744, Control_c, 9, 11, 111
1, 41744, Control_c, 11, 11, 112
1, 41747, Control_c, 10, 11, 112
1, 41752, Control_c, 1, 11, 112
1, 41754, Note_on_c, 7, 49, 91
1, 41754, Note_on_c, 10, 57, 84
1, 41755, Control_c, 7, 11, 110
1, 41757, Note_on_c, 2, 57, 94
1, 41758, Control_c, 4, 11, 111
1, 41759, Note_on_c, 0, 49, 98
1, 41759, Note_on_c, 1, 30, 117
1, 41760, Control_c, 0, 11, 111
1, 41760, Note_on_c, 9, 40, 118
1, 41760, Note_on_c, 9, 51, 90
1, 41760, Control_c, 11, 11, 111
1, 41761, Note_on_c, 9, 51, 0
1, 41761, Note_on_c, 9, 40, 0
1, 41763, Control_c, 10, 11, 111
1, 41764, Note_on_c, 10, 64, 0
1, 41764, Note_on_c, 7, 49, 0
1, 41766, Control_c, 2, 11, 111
1, 41768, Control_c, 1, 11, 111
1, 41768, Control_c, 9, 11, 110
1, 41771, Control_c, 7, 11, 109
1, 41774, Note_on_c, 2, 64, 0
1, 41774, Control_c, 4, 11, 110
1, 41776, Control_c, 0, 11, 110
1, 41782, Control_c, 2, 11, 110
1, 41784, Control_c, 1, 11, 110
1, 41784, Control_c, 9, 11, 109
1, 41784, Control_c, 11, 11, 110
1, 41787, Control_c, 7, 11, 108
1, 41787, Control_c, 10, 11, 110
1, 41790, Control_c, 4, 11, 109
1, 41794, Note_on_c, 1, 30, 0
1, 41798, Note_on_c, 0, 56, 0
1, 41798, Control_c, 2, 11, 109
1, 41800, Control_c, 0, 11, 109
1, 41800, Control_c, 1, 11, 109
1, 41800, Control_c, 9, 11, 108
1, 41800, Control_c, 11, 11, 109
1, 41801, Note_on_c, 10, 64, 80
1, 41802, Note_on_c, 2, 64, 85
1, 41802, Note_on_c, 7, 56, 100
1, 41803, Control_c, 7, 11, 107
1, 41803, Control_c, 10, 11, 109
1, 41804, Note_on_c, 0, 49, 0
1, 41806, Note_on_c, 4, 57, 0
1, 41806, Note_on_c, 4, 64, 0
1, 41806, Note_on_c, 4, 61, 0
1, 41807, Note_on_c, 0, 56, 107
1, 41807, Note_on_c, 1, 33, 102
1, 41807, Note_on_c, 4, 57, 95
1, 41807, Note_on_c, 4, 61, 95
1, 41807, Note_on_c, 4, 64, 88
1, 41809, Note_on_c, 9, 51, 112
1, 41810, Note_on_c, 9, 51, 0
1, 41812, Note_on_c, 7, 56, 0
1, 41814, Control_c, 2, 11, 108
1, 41814, Control_c, 4, 11, 108
1, 41816, Control_c, 0, 11, 108
1, 41816, Control_c, 1, 11, 108
1, 41816, Control_c, 9, 11, 107
1, 41816, Control_c, 11, 11, 108
1, 41819, Control_c, 10, 11, 108
1, 41827, Control_c, 7, 11, 106
1, 41830, Control_c, 2, 11, 107
1, 41830, Control_c, 4, 11, 107
1, 41832, Control_c, 0, 11, 107
1, 41832, Control_c, 9, 11, 106
1, 41832, Control_c, 11, 11, 107
1, 41834, Note_on_c, 0, 42, 0
1, 41835, Control_c, 10, 11, 107
1, 41840, Control_c, 1, 11, 107
1, 41843, Control_c, 7, 11, 105
1, 41846, Control_c, 2, 11, 106
1, 41846, Control_c, 4, 11, 106
1, 41847, Note_on_c, 11, 66, 68
1, 41848, Note_on_c, 1, 33, 0
1, 41848, Control_c, 0, 11, 106
1, 41848, Control_c, 9, 11, 105
1, 41848, Control_c, 11, 11, 106
1, 41851, Note_on_c, 7, 50, 117
1, 41851, Control_c, 10, 11, 106
1, 41852, Note_on_c, 0, 56, 0
1, 41855, Note_on_c, 1, 38, 85
1, 41856, Note_on_c, 11, 69, 0
1, 41856, Note_on_c, 0, 50, 124
1, 41856, Control_c, 1, 11, 106
1, 41856, Note_on_c, 9, 51, 93
1, 41856, Note_on_c, 9, 36, 111
1, 41857, Note_on_c, 9, 36, 0
1, 41857, Note_on_c, 9, 51, 0
1, 41859, Control_c, 7, 11, 104
1, 41861, Note_on_c, 7, 50, 0
1, 41862, Control_c, 4, 11, 105
1, 41864, Control_c, 0, 11, 105
1, 41864, Control_c, 11, 11, 105
1, 41867, Control_c, 10, 11, 105
1, 41870, Control_c, 2, 11, 105
1, 41872, Control_c, 1, 11, 105
1, 41872, Control_c, 9, 11, 104
1, 41875, Control_c, 7, 11, 103
1, 41878, Note_on_c, 10, 64, 0
1, 41878, Control_c, 4, 11, 104
1, 41879, Note_on_c, 4, 57, 0
1, 41879, Note_on_c, 4, 61, 0
1, 41879, Note_on_c, 4, 64, 0
1, 41880, Control_c, 0, 11, 104
1, 41881, Note_on_c, 2, 64, 0
1, 41886, Control_c, 2, 11, 104
1, 41887, Note_on_c, 1, 38, 0
1, 41888, Control_c, 1, 11, 104
1, 41888, Control_c, 9, 11, 103
1, 41888, Control_c, 11, 11, 104
1, 41891, Control_c, 7, 11, 102
1, 41891, Control_c, 10, 11, 104
1, 41894, Control_c, 4, 11, 103
1, 41898, Note_on_c, 7, 57, 78
1, 41899, Note_on_c, 2, 64, 82
1, 41900, Note_on_c, 10, 64, 77
1, 41902, Control_c, 2, 11, 103
1, 41903, Note_on_c, 0, 57, 85
1, 41903, Note_on_c, 1, 38, 106
1, 41903, Note_on_c, 4, 61, 99
1, 41903, Note_on_c, 4, 57, 99
1, 41903, Note_on_c, 4, 64, 91
1, 41904, Control_c, 0, 11, 103
1, 41904, Control_c, 1, 11, 103
1, 41904, Control_c, 9, 11, 102
1, 41904, Control_c, 11, 11, 103
1, 41905, Note_on_c, 9, 51, 66
1, 41906, Note_on_c, 9, 51, 0
1, 41907, Control_c, 10, 11, 103
1, 41908, Note_on_c, 7, 57, 0
1, 41912, Note_on_c, 2, 57, 0
1, 41913, Note_on_c, 10, 57, 0
1, 41915, Control_c, 7, 11, 101
1, 41918, Control_c, 2, 11, 102
1, 41918, Control_c, 4, 11, 102
1, 41920, Control_c, 0, 11, 102
1, 41920, Control_c, 1, 11, 102
1, 41920, Control_c, 9, 11, 101
1, 41920, Control_c, 11, 11, 102
1, 41923, Control_c, 10, 11, 102
1, 41931, Control_c, 7, 11, 100
1, 41934, Control_c, 2, 11, 101
1, 41934, Control_c, 4, 11, 101
1, 41936, Note_on_c, 1, 38, 0
1, 41936, Control_c, 0, 11, 101
1, 41936, Control_c, 9, 11, 100
1, 41936, Control_c, 11, 11, 101
1, 41939, Control_c, 10, 11, 101
1, 41944, Control_c, 1, 11, 101
1, 41945, Note_on_c, 10, 57, 82
1, 41946, Note_on_c, 7, 64, 101
1, 41947, Control_c, 7, 11, 99
1, 41948, Note_on_c, 2, 57, 93
1, 41949, Note_on_c, 9, 40, 81
1, 41950, Note_on_c, 9, 40, 0
1, 41950, Note_on_c, 4, 64, 0
1, 41950, Note_on_c, 4, 61, 0
1, 41950, Note_on_c, 4, 57, 0
1, 41950, Control_c, 4, 11, 100
1, 41951, Note_on_c, 0, 64, 108
1, 41951, Note_on_c, 1, 38, 106
1, 41951, Note_on_c, 4, 64, 69
1, 41951, Note_on_c, 4, 61, 89
1, 41951, Note_on_c, 4, 57, 89
1, 41952, Control_c, 0, 11, 100
1, 41952, Note_on_c, 9, 40, 118
1, 41952, Control_c, 11, 11, 100
1, 41953, Note_on_c, 9, 40, 0
1, 41953, Note_on_c, 9, 51, 95
1, 41954, Note_on_c, 9, 51, 0
1, 41955, Control_c, 10, 11, 100
1, 41956, Note_on_c, 7, 64, 0
1, 41958, Control_c, 2, 11, 100
1, 41960, Control_c, 1, 11, 100
1, 41960, Control_c, 9, 11, 99
1, 41961, Note_on_c, 10, 64, 0
1, 41962, Note_on_c, 2, 64, 0
1, 41963, Control_c, 7, 11, 98
1, 41966, Control_c, 4, 11, 99
1, 41968, Control_c, 0, 11, 99
1, 41974, Control_c, 2, 11, 99
1, 41976, Control_c, 1, 11, 99
1, 41976, Control_c, 9, 11, 98
1, 41976, Control_c, 11, 11, 99
1, 41979, Control_c, 7, 11, 97
1, 41979, Control_c, 10, 11, 99
1, 41982, Control_c, 4, 11, 98
1, 41985, Note_on_c, 1, 38, 0
1, 41990, Control_c, 2, 11, 98
1, 41992, Control_c, 0, 11, 98
1, 41992, Control_c, 1, 11, 98
1, 41992, Control_c, 9, 11, 97
1, 41992, Note_on_c, 10, 64, 79
1, 41992, Control_c, 11, 11, 98
1, 41993, Note_on_c, 2, 64, 85
1, 41994, Note_on_c, 7, 57, 90
1, 41995, Note_on_c, 7, 50, 94
1, 41995, Control_c, 10, 11, 98
1, 41998, Note_on_c, 0, 57, 0
1, 41998, Note_on_c, 4, 57, 0
1, 41998, Control_c, 4, 11, 97
1, 41999, Note_on_c, 0, 50, 0
1, 41999, Note_on_c, 4, 61, 0
1, 41999, Note_on_c, 4, 64, 0
1, 41999, Note_on_c, 0, 57, 97
1, 41999, Note_on_c, 1, 38, 104
1, 41999, Note_on_c, 4, 57, 112
1, 41999, Note_on_c, 4, 66, 92
1, 41999, Note_on_c, 4, 62, 112
1, 41999, Note_on_c, 9, 51, 104
1, 42000, Note_on_c, 9, 51, 0
1, 42000, Note_on_c, 0, 50, 101
1, 42000, Note_on_c, 9, 36, 76
1, 42001, Note_on_c, 9, 36, 0
1, 42003, Control_c, 7, 11, 96
1, 42004, Note_on_c, 7, 57, 0
1, 42005, Note_on_c, 7, 50, 0
1, 42006, Control_c, 2, 11, 97
1, 42008, Control_c, 0, 11, 97
1, 42008, Control_c, 1, 11, 97
1, 42008, Control_c, 9, 11, 96
1, 42008, Control_c, 11, 11, 97
1, 42011, Control_c, 10, 11, 97
1, 42019, Control_c, 7, 11, 95
1, 42022, Note_on_c, 0, 64, 0
1, 42022, Control_c, 2, 11, 96
1, 42022, Control_c, 4, 11, 96
1, 42024, Control_c, 0, 11, 96
1, 42024, Control_c, 1, 11, 96
1, 42024, Control_c, 9, 11, 95
1, 42024, Control_c, 11, 11, 96
1, 42027, Control_c, 10, 11, 96
1, 42030, Note_on_c, 1, 38, 0
1, 42035, Control_c, 7, 11, 94
1, 42038, Control_c, 4, 11, 95
1, 42040, Control_c, 0, 11, 95
1, 42040, Control_c, 11, 11, 95
1, 42042, Note_on_c, 7, 62, 101
1, 42043, Control_c, 10, 11, 95
1, 42046, Control_c, 2, 11, 95
1, 42047, Note_on_c, 0, 62, 108
1, 42047, Note_on_c, 1, 38, 101
1, 42048, Control_c, 1, 11, 95
1, 42048, Note_on_c, 9, 51, 92
1, 42048, Control_c, 9, 11, 94
1, 42048, Note_on_c, 9, 36, 110
1, 42049, Note_on_c, 9, 36, 0
1, 42049, Note_on_c, 9, 51, 0
1, 42051, Control_c, 7, 11, 93
1, 42052, Note_on_c, 7, 62, 0
1, 42054, Control_c, 4, 11, 94
1, 42056, Control_c, 0, 11, 94
1, 42056, Control_c, 11, 11, 94
1, 42059, Control_c, 10, 11, 94
1, 42062, Control_c, 2, 11, 94
1, 42063, Note_on_c, 2, 64, 0
1, 42064, Control_c, 1, 11, 94
1, 42064, Control_c, 9, 11, 93
1, 42067, Note_on_c, 10, 64, 0
1, 42070, Control_c, 4, 11, 93
1, 42072, Control_c, 0, 11, 93
1, 42075, Control_c, 7, 11, 92
1, 42078, Control_c, 2, 11, 93
1, 42080, Control_c, 1, 11, 93
1, 42080, Control_c, 9, 11, 92
1, 42080, Control_c, 11, 11, 93
1, 42081, Note_on_c, 1, 38, 0
1, 42083, Control_c, 10, 11, 93
1, 42086, Note_on_c, 2, 64, 85
1, 42086, Control_c, 4, 11, 92
1, 42087, Note_on_c, 10, 64, 73
1, 42088, Note_on_c, 0, 57, 0
1, 42090, Note_on_c, 7, 57, 98
1, 42091, Control_c, 7, 11, 91
1, 42094, Note_on_c, 4, 66, 0
1, 42094, Note_on_c, 4, 57, 0
1, 42094, Note_on_c, 4, 62, 0
1, 42094, Control_c, 2, 11, 92
1, 42095, Note_on_c, 10, 57, 0
1, 42095, Note_on_c, 0, 57, 105
1, 42095, Note_on_c, 4, 57, 104
1, 42095, Note_on_c, 4, 62, 104
1, 42095, Note_on_c, 4, 66, 86
1, 42095, Note_on_c, 9, 51, 46
1, 42096, Note_on_c, 9, 51, 0
1, 42096, Control_c, 0, 11, 92
1, 42096, Note_on_c, 1, 38, 116
1, 42096, Control_c, 1, 11, 92
1, 42096, Control_c, 9, 11, 91
1, 42096, Note_on_c, 9, 36, 110
1, 42096, Control_c, 11, 11, 92
1, 42097, Note_on_c, 9, 36, 0
1, 42099, Control_c, 10, 11, 92
1, 42100, Note_on_c, 7, 57, 0
1, 42102, Control_c, 4, 11, 91
1, 42107, Control_c, 7, 11, 90
1, 42108, Note_on_c, 2, 57, 0
1, 42110, Control_c, 2, 11, 91
1, 42112, Control_c, 0, 11, 91
1, 42112, Control_c, 1, 11, 91
1, 42112, Control_c, 9, 11, 90
1, 42112, Control_c, 11, 11, 91
1, 42115, Control_c, 10, 11, 91
1, 42118, Note_on_c, 0, 62, 0
1, 42123, Control_c, 7, 11, 89
1, 42124, Note_on_c, 1, 38, 0
1, 42126, Control_c, 2, 11, 90
1, 42126, Control_c, 4, 11, 90
1, 42128, Control_c, 0, 11, 90
1, 42128, Control_c, 1, 11, 90
1, 42128, Control_c, 11, 11, 90
1, 42131, Control_c, 10, 11, 90
1, 42135, Note_on_c, 10, 57, 82
1, 42136, Control_c, 9, 11, 89
1, 42139, Note_on_c, 7, 62, 72
1, 42139, Note_on_c, 7, 50, 91
1, 42139, Control_c, 7, 11, 88
1, 42142, Control_c, 4, 11, 89
1, 42143, Note_on_c, 0, 50, 0
1, 42143, Note_on_c, 9, 57, 86
1, 42144, Note_on_c, 9, 57, 0
1, 42144, Note_on_c, 0, 62, 79
1, 42144, Note_on_c, 0, 50, 98
1, 42144, Control_c, 0, 11, 89
1, 42144, Note_on_c, 1, 38, 108
1, 42144, Control_c, 1, 11, 89
1, 42144, Note_on_c, 2, 57, 91
1, 42144, Note_on_c, 9, 40, 118
1, 42144, Control_c, 11, 11, 89
1, 42145, Note_on_c, 9, 40, 0
1, 42147, Control_c, 10, 11, 89
1, 42148, Note_on_c, 10, 64, 0
1, 42149, Note_on_c, 7, 62, 0
1, 42149, Note_on_c, 7, 50, 0
1, 42150, Control_c, 2, 11, 89
1, 42152, Control_c, 9, 11, 88
1, 42157, Note_on_c, 2, 64, 0
1, 42158, Control_c, 4, 11, 88
1, 42160, Control_c, 0, 11, 88
1, 42163, Control_c, 7, 11, 87
1, 42166, Note_on_c, 0, 57, 0
1, 42166, Control_c, 2, 11, 88
1, 42168, Control_c, 1, 11, 88
1, 42168, Control_c, 9, 11, 87
1, 42168, Control_c, 11, 11, 88
1, 42171, Control_c, 10, 11, 88
1, 42174, Note_on_c, 1, 38, 0
1, 42174, Control_c, 4, 11, 87
1, 42176, Control_c, 0, 11, 87
1, 42179, Control_c, 7, 11, 86
1, 42182, Control_c, 2, 11, 87
1, 42183, Note_on_c, 10, 64, 80
1, 42184, Control_c, 1, 11, 87
1, 42184, Control_c, 9, 11, 86
1, 42184, Control_c, 11, 11, 87
1, 42185, Note_on_c, 2, 64, 88
1, 42186, Note_on_c, 7, 57, 100
1, 42187, Control_c, 10, 11, 87
1, 42190, Note_on_c, 4, 57, 0
1, 42190, Control_c, 4, 11, 86
1, 42191, Note_on_c, 4, 66, 0
1, 42191, Note_on_c, 4, 62, 0
1, 42191, Note_on_c, 0, 57, 107
1, 42191, Note_on_c, 1, 40, 118
1, 42191, Note_on_c, 4, 61, 92
1, 42191, Note_on_c, 4, 64, 87
1, 42191, Note_on_c, 4, 57, 92
1, 42195, Control_c, 7, 11, 85
1, 42196, Note_on_c, 7, 57, 0
1, 42198, Control_c, 2, 11, 86
1, 42200, Control_c, 0, 11, 86
1, 42200, Control_c, 1, 11, 86
1, 42200, Control_c, 9, 11, 85
1, 42200, Control_c, 11, 11, 86
1, 42203, Control_c, 10, 11, 86
1, 42206, Control_c, 4, 11, 85
1, 42211, Control_c, 7, 11, 84
1, 42214, Control_c, 2, 11, 85
1, 42215, Note_on_c, 0, 62, 0
1, 42216, Control_c, 0, 11, 85
1, 42216, Control_c, 1, 11, 85
1, 42216, Control_c, 9, 11, 84
1, 42216, Control_c, 11, 11, 85
1, 42219, Control_c, 10, 11, 85
1, 42227, Control_c, 7, 11, 83
1, 42230, Control_c, 4, 11, 84
1, 42232, Note_on_c, 1, 40, 0
1, 42232, Control_c, 0, 11, 84
1, 42232, Control_c, 1, 11, 84
1, 42232, Control_c, 11, 11, 84
1, 42233, Note_on_c, 11, 64, 0
1, 42235, Note_on_c, 7, 45, 117
1, 42235, Control_c, 10, 11, 84
1, 42236, Note_on_c, 11, 66, 0
1, 42236, Note_on_c, 0, 57, 0
1, 42238, Control_c, 2, 11, 84
1, 42238, Note_on_c, 11, 69, 80
1, 42238, Note_on_c, 11, 64, 76
1, 42239, Note_on_c, 0, 50, 0
1, 42240, Note_on_c, 0, 45, 124
1, 42240, Note_on_c, 1, 33, 114
1, 42240, Note_on_c, 9, 51, 109
1, 42240, Control_c, 9, 11, 83
1, 42240, Note_on_c, 9, 36, 112
1, 42241, Note_on_c, 9, 36, 0
1, 42241, Note_on_c, 9, 51, 0
1, 42245, Note_on_c, 7, 45, 0
1, 42246, Control_c, 4, 11, 83
1, 42248, Control_c, 0, 11, 83
1, 42248, Control_c, 1, 11, 83
1, 42248, Control_c, 11, 11, 83
1, 42251, Control_c, 7, 11, 82
1, 42251, Control_c, 10, 11, 83
1, 42254, Control_c, 2, 11, 83
1, 42256, Control_c, 9, 11, 82
1, 42258, Note_on_c, 10, 64, 0
1, 42261, Note_on_c, 2, 64, 0
1, 42262, Control_c, 4, 11, 82
1, 42263, Note_on_c, 4, 64, 0
1, 42263, Note_on_c, 4, 61, 0
1, 42263, Note_on_c, 4, 57, 0
1, 42264, Control_c, 0, 11, 82
1, 42267, Control_c, 7, 11, 81
1, 42268, Note_on_c, 1, 33, 0
1, 42270, Control_c, 2, 11, 82
1, 42272, Control_c, 1, 11, 82
1, 42272, Control_c, 9, 11, 81
1, 42272, Control_c, 11, 11, 82
1, 42275, Control_c, 10, 11, 82
1, 42277, Note_on_c, 10, 64, 76
1, 42278, Control_c, 4, 11, 81
1, 42280, Control_c, 0, 11, 81
1, 42282, Note_on_c, 2, 64, 83
1, 42282, Note_on_c, 7, 52, 78
1, 42283, Control_c, 7, 11, 80
1, 42286, Control_c, 2, 11, 81
1, 42287, Note_on_c, 0, 52, 85
1, 42287, Note_on_c, 1, 33, 101
1, 42287, Note_on_c, 4, 61, 98
1, 42287, Note_on_c, 4, 64, 84
1, 42287, Note_on_c, 4, 57, 98
1, 42288, Control_c, 1, 11, 81
1, 42288, Control_c, 9, 11, 80
1, 42288, Control_c, 11, 11, 81
1, 42289, Note_on_c, 2, 57, 0
1, 42289, Note_on_c, 9, 51, 65
1, 42290, Note_on_c, 9, 51, 0
1, 42291, Control_c, 10, 11, 81
1, 42292, Note_on_c, 7, 52, 0
1, 42294, Control_c, 4, 11, 80
1, 42299, Control_c, 7, 11, 79
1, 42302, Control_c, 2, 11, 80
1, 42304, Control_c, 0, 11, 80
1, 42304, Control_c, 1, 11, 80
1, 42304, Control_c, 9, 11, 79
1, 42304, Control_c, 11, 11, 80
1, 42307, Control_c, 10, 11, 80
1, 42310, Note_on_c, 1, 33, 0
1, 42310, Control_c, 4, 11, 79
1, 42312, Note_on_c, 1, 33, 87
1, 42315, Control_c, 7, 11, 78
1, 42320, Control_c, 0, 11, 79
1, 42320, Control_c, 1, 11, 79
1, 42320, Control_c, 11, 11, 79
1, 42323, Note_on_c, 10, 57, 0
1, 42323, Control_c, 10, 11, 79
1, 42325, Note_on_c, 10, 59, 81
1, 42326, Control_c, 2, 11, 79
1, 42328, Control_c, 9, 11, 78
1, 42329, Note_on_c, 2, 59, 88
1, 42330, Note_on_c, 7, 59, 108
1, 42334, Note_on_c, 4, 61, 0
1, 42334, Note_on_c, 4, 64, 0
1, 42334, Note_on_c, 4, 57, 0
1, 42334, Control_c, 4, 11, 78
1, 42335, Note_on_c, 1, 33, 0
1, 42335, Note_on_c, 0, 59, 115
1, 42335, Note_on_c, 4, 64, 91
1, 42335, Note_on_c, 4, 57, 96
1, 42335, Note_on_c, 4, 61, 96
1, 42336, Control_c, 0, 11, 78
1, 42336, Note_on_c, 1, 33, 112
1, 42336, Control_c, 1, 11, 78
1, 42336, Note_on_c, 9, 40, 118
1, 42336, Control_c, 11, 11, 78
1, 42337, Note_on_c, 9, 40, 0
1, 42337, Note_on_c, 10, 64, 0
1, 42337, Note_on_c, 9, 51, 107
1, 42338, Note_on_c, 9, 51, 0
1, 42339, Control_c, 7, 11, 77
1, 42339, Control_c, 10, 11, 78
1, 42340, Note_on_c, 7, 59, 0
1, 42342, Note_on_c, 2, 64, 0
1, 42342, Control_c, 2, 11, 78
1, 42344, Control_c, 9, 11, 77
1, 42350, Control_c, 4, 11, 77
1, 42352, Control_c, 0, 11, 77
1, 42352, Control_c, 1, 11, 77
1, 42355, Control_c, 7, 11, 76
1, 42358, Note_on_c, 0, 52, 0
1, 42358, Control_c, 2, 11, 77
1, 42360, Control_c, 9, 11, 76
1, 42360, Control_c, 11, 11, 77
1, 42363, Control_c, 10, 11, 77
1, 42366, Control_c, 4, 11, 76
1, 42368, Control_c, 0, 11, 76
1, 42370, Note_on_c, 1, 33, 0
1, 42371, Control_c, 7, 11, 75
1, 42371, Note_on_c, 10, 64, 75
1, 42374, Control_c, 2, 11, 76
1, 42376, Control_c, 1, 11, 76
1, 42376, Control_c, 9, 11, 75
1, 42376, Control_c, 11, 11, 76
1, 42378, Note_on_c, 7, 52, 90
1, 42379, Note_on_c, 2, 64, 93
1, 42379, Control_c, 10, 11, 76
1, 42382, Note_on_c, 4, 64, 0
1, 42382, Note_on_c, 0, 59, 0
1, 42382, Note_on_c, 4, 61, 0
1, 42382, Note_on_c, 4, 57, 0
1, 42382, Control_c, 4, 11, 75
1, 42383, Note_on_c, 0, 52, 97
1, 42383, Note_on_c, 4, 64, 92
1, 42383, Note_on_c, 4, 57, 98
1, 42383, Note_on_c, 4, 61, 98
1, 42384, Note_on_c, 1, 33, 96
1, 42384, Note_on_c, 9, 36, 75
1, 42385, Note_on_c, 9, 36, 0
1, 42385, Note_on_c, 9, 51, 69
1, 42386, Note_on_c, 9, 51, 0
1, 42387, Control_c, 7, 11, 74
1, 42388, Note_on_c, 7, 52, 0
1, 42390, Control_c, 2, 11, 75
1, 42392, Control_c, 0, 11, 75
1, 42392, Control_c, 1, 11, 75
1, 42392, Control_c, 9, 11, 74
1, 42392, Control_c, 11, 11, 75
1, 42395, Control_c, 10, 11, 75
1, 42398, Control_c, 4, 11, 74
1, 42403, Control_c, 7, 11, 73
1, 42408, Control_c, 0, 11, 74
1, 42408, Control_c, 1, 11, 74
1, 42408, Control_c, 11, 11, 74
1, 42411, Note_on_c, 1, 33, 0
1, 42411, Control_c, 10, 11, 74
1, 42414, Control_c, 2, 11, 74
1, 42414, Control_c, 4, 11, 73
1, 42416, Control_c, 9, 11, 73
1, 42424, Control_c, 0, 11, 73
1, 42424, Control_c, 1, 11, 73
1, 42424, Control_c, 11, 11, 73
1, 42426, Note_on_c, 7, 61, 101
1, 42427, Control_c, 7, 11, 72
1, 42427, Control_c, 10, 11, 73
1, 42430, Control_c, 2, 11, 73
1, 42431, Note_on_c, 0, 61, 108
1, 42431, Note_on_c, 1, 33, 121
1, 42432, Control_c, 9, 11, 72
1, 42432, Note_on_c, 9, 36, 112
1, 42433, Note_on_c, 9, 36, 0
1, 42433, Note_on_c, 9, 51, 101
1, 42434, Note_on_c, 9, 51, 0
1, 42436, Note_on_c, 7, 61, 0
1, 42438, Control_c, 4, 11, 72
1, 42440, Control_c, 0, 11, 72
1, 42440, Control_c, 1, 11, 72
1, 42440, Control_c, 11, 11, 72
1, 42443, Control_c, 7, 11, 71
1, 42443, Control_c, 10, 11, 72
1, 42446, Control_c, 2, 11, 72
1, 42448, Control_c, 9, 11, 71
1, 42453, Note_on_c, 10, 64, 0
1, 42454, Control_c, 4, 11, 71
1, 42456, Note_on_c, 2, 64, 0
1, 42456, Control_c, 0, 11, 71
1, 42456, Control_c, 1, 11, 71
1, 42459, Note_on_c, 1, 33, 0
1, 42459, Control_c, 7, 11, 70
1, 42462, Control_c, 2, 11, 71
1, 42464, Control_c, 9, 11, 70
1, 42464, Control_c, 11, 11, 71
1, 42467, Control_c, 10, 11, 71
1, 42470, Control_c, 4, 11, 70
1, 42472, Control_c, 0, 11, 70
1, 42472, Control_c, 1, 11, 70
1, 42473, Note_on_c, 10, 64, 75
1, 42474, Note_on_c, 7, 59, 98
1, 42475, Note_on_c, 2, 64, 82
1, 42475, Control_c, 7, 11, 69
1, 42478, Note_on_c, 4, 57, 0
1, 42478, Note_on_c, 4, 64, 0
1, 42478, Note_on_c, 4, 61, 0
1, 42478, Note_on_c, 0, 61, 0
1, 42478, Control_c, 2, 11, 70
1, 42479, Note_on_c, 0, 59, 105
1, 42479, Note_on_c, 1, 33, 108
1, 42479, Note_on_c, 4, 64, 79
1, 42479, Note_on_c, 4, 57, 99
1, 42479, Note_on_c, 4, 61, 99
1, 42479, Note_on_c, 9, 51, 69
1, 42480, Note_on_c, 9, 51, 0
1, 42480, Control_c, 9, 11, 69
1, 42480, Control_c, 11, 11, 70
1, 42483, Control_c, 10, 11, 70
1, 42484, Note_on_c, 7, 59, 0
1, 42484, Note_on_c, 2, 59, 0
1, 42486, Control_c, 4, 11, 69
1, 42491, Control_c, 7, 11, 68
1, 42494, Control_c, 2, 11, 69
1, 42496, Control_c, 0, 11, 69
1, 42496, Control_c, 1, 11, 69
1, 42496, Control_c, 11, 11, 69
1, 42499, Control_c, 10, 11, 69
1, 42502, Note_on_c, 0, 52, 0
1, 42502, Control_c, 4, 11, 68
1, 42504, Control_c, 9, 11, 68
1, 42506, Note_on_c, 1, 33, 0
1, 42512, Control_c, 0, 11, 68
1, 42512, Control_c, 1, 11, 68
1, 42512, Control_c, 11, 11, 68
1, 42513, Note_on_c, 10, 59, 0
1, 42515, Control_c, 7, 11, 67
1, 42515, Control_c, 10, 11, 68
1, 42518, Control_c, 2, 11, 68
1, 42518, Control_c, 4, 11, 67
1, 42520, Control_c, 9, 11, 67
1, 42521, Note_on_c, 10, 59, 60
1, 42522, Note_on_c, 7, 52, 91
1, 42527, Note_on_c, 0, 52, 98
1, 42527, Note_on_c, 9, 51, 101
1, 42528, Note_on_c, 9, 51, 0
1, 42528, Control_c, 0, 11, 67
1, 42528, Control_c, 1, 11, 67
1, 42528, Note_on_c, 2, 59, 88
1, 42528, Note_on_c, 9, 40, 118
1, 42528, Control_c, 11, 11, 67
1, 42529, Note_on_c, 9, 40, 0
1, 42529, Note_on_c, 1, 33, 121
1, 42531, Control_c, 7, 11, 66
1, 42531, Control_c, 10, 11, 67
1, 42532, Note_on_c, 10, 64, 0
1, 42532, Note_on_c, 7, 52, 0
1, 42534, Control_c, 2, 11, 67
1, 42536, Control_c, 9, 11, 66
1, 42541, Note_on_c, 2, 64, 0
1, 42542, Control_c, 4, 11, 66
1, 42544, Control_c, 0, 11, 66
1, 42544, Control_c, 1, 11, 66
1, 42547, Control_c, 7, 11, 65
1, 42550, Control_c, 2, 11, 66
1, 42552, Control_c, 9, 11, 65
1, 42552, Control_c, 11, 11, 66
1, 42555, Control_c, 10, 11, 66
1, 42558, Control_c, 4, 11, 65
1, 42559, Note_on_c, 1, 33, 0
1, 42560, Control_c, 0, 11, 65
1, 42560, Control_c, 1, 11, 65
1, 42563, Control_c, 7, 11, 64
1, 42566, Control_c, 2, 11, 65
1, 42568, Control_c, 9, 11, 64
1, 42568, Note_on_c, 10, 64, 76
1, 42568, Control_c, 11, 11, 65
1, 42569, Note_on_c, 0, 59, 0
1, 42570, Note_on_c, 2, 64, 84
1, 42570, Note_on_c, 7, 59, 100
1, 42571, Control_c, 10, 11, 65
1, 42574, Note_on_c, 4, 57, 0
1, 42574, Note_on_c, 4, 64, 0
1, 42574, Note_on_c, 4, 61, 0
1, 42574, Control_c, 4, 11, 64
1, 42575, Note_on_c, 0, 59, 107
1, 42575, Note_on_c, 4, 57, 87
1, 42575, Note_on_c, 4, 64, 86
1, 42575, Note_on_c, 4, 61, 87
1, 42575, Note_on_c, 9, 51, 73
1, 42576, Note_on_c, 9, 51, 0
1, 42576, Control_c, 0, 11, 64
1, 42576, Control_c, 1, 11, 64
1, 42577, Note_on_c, 1, 33, 96
1, 42579, Control_c, 7, 11, 63
1, 42580, Note_on_c, 7, 59, 0
1, 42582, Control_c, 2, 11, 64
1, 42584, Control_c, 9, 11, 63
1, 42584, Control_c, 11, 11, 64
1, 42587, Control_c, 10, 11, 64
1, 42590, Control_c, 4, 11, 63
1, 42598, Note_on_c, 0, 52, 0
1, 42600, Control_c, 0, 11, 63
1, 42600, Control_c, 1, 11, 63
1, 42600, Control_c, 11, 11, 63
1, 42602, Note_on_c, 0, 45, 0
1, 42602, Note_on_c, 1, 33, 0
1, 42603, Control_c, 7, 11, 62
1, 42603, Control_c, 10, 11, 63
1, 42606, Control_c, 2, 11, 63
1, 42606, Control_c, 4, 11, 62
1, 42608, Control_c, 9, 11, 62
1, 42616, Control_c, 0, 11, 62
1, 42616, Control_c, 1, 11, 62
1, 42616, Control_c, 11, 11, 62
1, 42619, Note_on_c, 7, 45, 117
1, 42619, Control_c, 7, 11, 61
1, 42619, Control_c, 10, 11, 62
1, 42620, Note_on_c, 0, 59, 0
1, 42622, Control_c, 2, 11, 62
1, 42622, Control_c, 4, 11, 61
1, 42623, Note_on_c, 9, 51, 104
1, 42624, Note_on_c, 9, 51, 0
1, 42624, Note_on_c, 0, 45, 124
1, 42624, Note_on_c, 1, 33, 121
1, 42624, Control_c, 9, 11, 61
1, 42624, Note_on_c, 9, 36, 110
1, 42625, Note_on_c, 9, 36, 0
1, 42629, Note_on_c, 7, 45, 0
1, 42632, Control_c, 0, 11, 61
1, 42632, Control_c, 1, 11, 61
1, 42632, Control_c, 11, 11, 61
1, 42635, Control_c, 7, 11, 60
1, 42635, Control_c, 10, 11, 61
1, 42638, Control_c, 2, 11, 61
1, 42640, Control_c, 9, 11, 60
1, 42646, Control_c, 4, 11, 60
1, 42647, Note_on_c, 4, 57, 0
1, 42647, Note_on_c, 4, 61, 0
1, 42647, Note_on_c, 10, 64, 0
1, 42647, Note_on_c, 4, 64, 0
1, 42648, Control_c, 0, 11, 60
1, 42648, Control_c, 1, 11, 60
1, 42649, Note_on_c, 2, 64, 0
1, 42651, Control_c, 7, 11, 59
1, 42654, Note_on_c, 1, 33, 0
1, 42654, Control_c, 2, 11, 60
1, 42656, Control_c, 9, 11, 59
1, 42656, Control_c, 11, 11, 60
1, 42659, Control_c, 10, 11, 60
1, 42662, Control_c, 4, 11, 59
1, 42664, Control_c, 0, 11, 59
1, 42664, Control_c, 1, 11, 59
1, 42665, Note_on_c, 10, 64, 75
1, 42666, Note_on_c, 7, 52, 78
1, 42669, Note_on_c, 2, 64, 84
1, 42670, Control_c, 2, 11, 59
1, 42671, Note_on_c, 0, 52, 85
1, 42671, Note_on_c, 1, 33, 95
1, 42671, Note_on_c, 4, 64, 92
1, 42671, Note_on_c, 4, 61, 92
1, 42671, Note_on_c, 4, 57, 92
1, 42671, Note_on_c, 9, 51, 67
1, 42672, Note_on_c, 9, 51, 0
1, 42672, Control_c, 9, 11, 58
1, 42672, Control_c, 11, 11, 59
1, 42675, Control_c, 7, 11, 58
1, 42675, Control_c, 10, 11, 59
1, 42676, Note_on_c, 7, 52, 0
1, 42678, Control_c, 4, 11, 58
1, 42680, Control_c, 0, 11, 58
1, 42680, Control_c, 1, 11, 58
1, 42684, Note_on_c, 10, 59, 0
1, 42684, Note_on_c, 2, 59, 0
1, 42688, Control_c, 11, 11, 58
1, 42691, Control_c, 7, 11, 57
1, 42691, Control_c, 10, 11, 58
1, 42694, Control_c, 2, 11, 58
1, 42694, Control_c, 4, 11, 57
1, 42696, Control_c, 9, 11, 57
1, 42702, Note_on_c, 1, 33, 0
1, 42704, Control_c, 0, 11, 57
1, 42704, Control_c, 1, 11, 57
1, 42704, Control_c, 11, 11, 57
1, 42707, Control_c, 7, 11, 56
1, 42707, Control_c, 10, 11, 57
1, 42710, Control_c, 2, 11, 57
1, 42710, Control_c, 4, 11, 56
1, 42712, Control_c, 9, 11, 56
1, 42714, Note_on_c, 2, 59, 87
1, 42714, Note_on_c, 7, 59, 108
1, 42716, Note_on_c, 10, 59, 83
1, 42718, Note_on_c, 4, 64, 0
1, 42718, Note_on_c, 4, 57, 0
1, 42718, Note_on_c, 4, 61, 0
1, 42719, Note_on_c, 0, 59, 115
1, 42719, Note_on_c, 4, 61, 99
1, 42719, Note_on_c, 4, 64, 95
1, 42719, Note_on_c, 4, 57, 99
1, 42719, Note_on_c, 9, 51, 108
1, 42720, Note_on_c, 9, 51, 0
1, 42720, Control_c, 0, 11, 56
1, 42720, Note_on_c, 1, 33, 118
1, 42720, Control_c, 1, 11, 56
1, 42720, Note_on_c, 9, 40, 118
1, 42720, Control_c, 11, 11, 56
1, 42721, Note_on_c, 9, 40, 0
1, 42723, Note_on_c, 2, 64, 0
1, 42723, Control_c, 7, 11, 55
1, 42723, Control_c, 10, 11, 56
1, 42724, Note_on_c, 7, 59, 0
1, 42726, Control_c, 2, 11, 56
1, 42726, Control_c, 4, 11, 55
1, 42728, Control_c, 9, 11, 55
1, 42730, Note_on_c, 10, 64, 0
1, 42736, Control_c, 0, 11, 55
1, 42736, Control_c, 1, 11, 55
1, 42739, Control_c, 7, 11, 54
1, 42742, Note_on_c, 0, 52, 0
1, 42742, Control_c, 2, 11, 55
1, 42744, Control_c, 9, 11, 54
1, 42744, Control_c, 11, 11, 55
1, 42747, Control_c, 10, 11, 55
1, 42750, Control_c, 4, 11, 54
1, 42751, Note_on_c, 1, 33, 0
1, 42752, Control_c, 0, 11, 54
1, 42752, Control_c, 1, 11, 54
1, 42758, Control_c, 2, 11, 54
1, 42759, Note_on_c, 10, 64, 78
1, 42760, Control_c, 9, 11, 53
1, 42760, Control_c, 11, 11, 54
1, 42762, Note_on_c, 7, 52, 90
1, 42763, Control_c, 7, 11, 53
1, 42763, Control_c, 10, 11, 54
1, 42764, Note_on_c, 0, 59, 0
1, 42764, Note_on_c, 2, 64, 84
1, 42766, Note_on_c, 4, 61, 0
1, 42766, Note_on_c, 4, 57, 0
1, 42766, Note_on_c, 4, 64, 0
1, 42766, Control_c, 4, 11, 53
1, 42767, Note_on_c, 0, 52, 97
1, 42767, Note_on_c, 4, 57, 98
1, 42767, Note_on_c, 4, 61, 98
1, 42767, Note_on_c, 4, 64, 101
1, 42767, Note_on_c, 9, 51, 74
1, 42768, Note_on_c, 9, 51, 0
1, 42768, Control_c, 0, 11, 53
1, 42768, Control_c, 1, 11, 53
1, 42768, Note_on_c, 9, 36, 72
1, 42769, Note_on_c, 9, 36, 0
1, 42769, Note_on_c, 1, 33, 88
1, 42772, Note_on_c, 7, 52, 0
1, 42774, Control_c, 2, 11, 53
1, 42776, Control_c, 11, 11, 53
1, 42779, Control_c, 7, 11, 52
1, 42779, Control_c, 10, 11, 53
1, 42782, Control_c, 4, 11, 52
1, 42784, Control_c, 0, 11, 52
1, 42784, Control_c, 1, 11, 52
1, 42784, Control_c, 9, 11, 52
1, 42792, Control_c, 11, 11, 52
1, 42795, Note_on_c, 1, 33, 0
1, 42795, Control_c, 7, 11, 51
1, 42795, Control_c, 10, 11, 52
1, 42798, Control_c, 2, 11, 52
1, 42798, Control_c, 4, 11, 51
1, 42800, Control_c, 1, 11, 51
1, 42800, Control_c, 9, 11, 51
1, 42807, Note_on_c, 11, 71, 80
1, 42808, Control_c, 0, 11, 51
1, 42808, Control_c, 11, 11, 51
1, 42810, Note_on_c, 7, 61, 101
1, 42811, Control_c, 7, 11, 50
1, 42811, Control_c, 10, 11, 51
1, 42812, Note_on_c, 0, 52, 0
1, 42814, Note_on_c, 11, 69, 0
1, 42814, Control_c, 2, 11, 51
1, 42814, Control_c, 4, 11, 50
1, 42815, Note_on_c, 0, 61, 108
1, 42815, Note_on_c, 1, 33, 121
1, 42816, Control_c, 9, 11, 50
1, 42816, Note_on_c, 9, 36, 111
1, 42817, Note_on_c, 9, 36, 0
1, 42817, Note_on_c, 9, 51, 103
1, 42818, Note_on_c, 9, 51, 0
1, 42820, Note_on_c, 7, 61, 0
1, 42824, Control_c, 0, 11, 50
1, 42824, Control_c, 1, 11, 50
1, 42824, Control_c, 11, 11, 50
1, 42827, Control_c, 7, 11, 49
1, 42827, Control_c, 10, 11, 50
1, 42830, Control_c, 2, 11, 50
1, 42830, Control_c, 4, 11, 49
1, 42832, Control_c, 9, 11, 49
1, 42838, Note_on_c, 10, 64, 0
1, 42840, Control_c, 0, 11, 49
1, 42840, Control_c, 1, 11, 49
1, 42841, Note_on_c, 2, 64, 0
1, 42846, Control_c, 2, 11, 49
1, 42847, Note_on_c, 1, 33, 0
1, 42848, Control_c, 9, 11, 48
1, 42848, Control_c, 11, 11, 49
1, 42851, Control_c, 7, 11, 48
1, 42851, Control_c, 10, 11, 49
1, 42854, Control_c, 4, 11, 48
1, 42856, Control_c, 0, 11, 48
1, 42856, Control_c, 1, 11, 48
1, 42858, Note_on_c, 7, 59, 98
1, 42858, Note_on_c, 10, 64, 80
1, 42861, Note_on_c, 2, 64, 80
1, 42862, Note_on_c, 4, 57, 0
1, 42862, Note_on_c, 0, 61, 0
1, 42862, Note_on_c, 4, 64, 0
1, 42862, Note_on_c, 4, 61, 0
1, 42862, Control_c, 2, 11, 48
1, 42863, Note_on_c, 0, 59, 105
1, 42863, Note_on_c, 1, 33, 84
1, 42863, Note_on_c, 4, 64, 101
1, 42863, Note_on_c, 4, 61, 87
1, 42863, Note_on_c, 4, 57, 87
1, 42864, Control_c, 11, 11, 48
1, 42865, Note_on_c, 9, 51, 77
1, 42866, Note_on_c, 9, 51, 0
1, 42867, Control_c, 7, 11, 47
1, 42867, Control_c, 10, 11, 48
1, 42868, Note_on_c, 7, 59, 0
1, 42870, Control_c, 4, 11, 47
1, 42871, Note_on_c, 2, 59, 0
1, 42872, Control_c, 0, 11, 47
1, 42872, Control_c, 1, 11, 47
1, 42872, Control_c, 9, 11, 47
1, 42877, Note_on_c, 10, 59, 0
1, 42880, Control_c, 11, 11, 47
1, 42883, Control_c, 7, 11, 46
1, 42883, Control_c, 10, 11, 47
1, 42886, Control_c, 2, 11, 47
1, 42886, Control_c, 4, 11, 46
1, 42887, Note_on_c, 1, 33, 0
1, 42888, Control_c, 1, 11, 46
1, 42888, Control_c, 9, 11, 46
1, 42896, Control_c, 0, 11, 46
1, 42896, Control_c, 11, 11, 46
1, 42899, Control_c, 7, 11, 45
1, 42899, Control_c, 10, 11, 46
1, 42902, Control_c, 2, 11, 46
1, 42902, Control_c, 4, 11, 45
1, 42902, Note_on_c, 10, 59, 82
1, 42904, Control_c, 1, 11, 45
1, 42904, Control_c, 9, 11, 45
1, 42906, Note_on_c, 7, 52, 91
1, 42908, Note_on_c, 2, 59, 85
1, 42911, Note_on_c, 0, 52, 98
1, 42911, Note_on_c, 1, 33, 116
1, 42912, Control_c, 0, 11, 45
1, 42912, Note_on_c, 9, 40, 118
1, 42912, Control_c, 11, 11, 45
1, 42913, Note_on_c, 9, 40, 0
1, 42913, Note_on_c, 9, 51, 108
1, 42914, Note_on_c, 9, 51, 0
1, 42915, Control_c, 7, 11, 44
1, 42915, Control_c, 10, 11, 45
1, 42916, Note_on_c, 7, 52, 0
1, 42918, Control_c, 2, 11, 45
1, 42918, Control_c, 4, 11, 44
1, 42919, Note_on_c, 10, 64, 0
1, 42920, Note_on_c, 2, 64, 0
1, 42920, Control_c, 9, 11, 44
1, 42928, Control_c, 0, 11, 44
1, 42928, Control_c, 1, 11, 44
1, 42934, Control_c, 2, 11, 44
1, 42934, Control_c, 4, 11, 43
1, 42936, Control_c, 9, 11, 43
1, 42936, Control_c, 11, 11, 44
1, 42939, Control_c, 7, 11, 43
1, 42939, Control_c, 10, 11, 44
1, 42944, Control_c, 0, 11, 43
1, 42944, Control_c, 1, 11, 43
1, 42947, Note_on_c, 1, 33, 0
1, 42947, Note_on_c, 10, 64, 81
1, 42950, Note_on_c, 0, 59, 0
1, 42950, Note_on_c, 2, 64, 86
1, 42950, Control_c, 2, 11, 43
1, 42952, Control_c, 9, 11, 42
1, 42952, Control_c, 11, 11, 43
1, 42954, Note_on_c, 7, 59, 100
1, 42955, Control_c, 7, 11, 42
1, 42955, Control_c, 10, 11, 43
1, 42956, Note_on_c, 0, 52, 0
1, 42958, Note_on_c, 4, 61, 0
1, 42958, Note_on_c, 4, 64, 0
1, 42958, Note_on_c, 4, 57, 0
1, 42958, Control_c, 4, 11, 42
1, 42959, Note_on_c, 0, 59, 107
1, 42959, Note_on_c, 1, 33, 104
1, 42959, Note_on_c, 4, 57, 87
1, 42959, Note_on_c, 4, 61, 87
1, 42959, Note_on_c, 4, 64, 81
1, 42960, Control_c, 0, 11, 42
1, 42960, Control_c, 1, 11, 42
1, 42961, Note_on_c, 9, 51, 78
1, 42962, Note_on_c, 9, 51, 0
1, 42964, Note_on_c, 7, 59, 0
1, 42968, Control_c, 11, 11, 42
1, 42971, Control_c, 7, 11, 41
1, 42971, Control_c, 10, 11, 42
1, 42974, Control_c, 2, 11, 42
1, 42974, Control_c, 4, 11, 41
1, 42976, Control_c, 0, 11, 41
1, 42976, Control_c, 1, 11, 41
1, 42976, Control_c, 9, 11, 41
1, 42984, Control_c, 11, 11, 41
1, 42986, Note_on_c, 0, 45, 0
1, 42987, Control_c, 7, 11, 40
1, 42987, Control_c, 10, 11, 41
1, 42989, Note_on_c, 1, 33, 0
1, 42990, Control_c, 2, 11, 41
1, 42990, Control_c, 4, 11, 40
1, 42991, Note_on_c, 11, 64, 0
1, 42992, Control_c, 1, 11, 40
1, 42992, Control_c, 9, 11, 40
1, 42996, Note_on_c, 11, 64, 76
1, 42998, Note_on_c, 11, 71, 0
1, 42998, Note_on_c, 11, 69, 79
1, 43000, Control_c, 0, 11, 40
1, 43000, Control_c, 11, 11, 40
1, 43003, Note_on_c, 7, 42, 117
1, 43003, Control_c, 7, 11, 39
1, 43003, Control_c, 10, 11, 40
1, 43004, Note_on_c, 0, 59, 0
1, 43006, Control_c, 2, 11, 40
1, 43006, Control_c, 4, 11, 39
1, 43007, Note_on_c, 1, 30, 99
1, 43008, Note_on_c, 0, 42, 124
1, 43008, Control_c, 1, 11, 39
1, 43008, Control_c, 9, 11, 39
1, 43008, Note_on_c, 9, 36, 108
1, 43009, Note_on_c, 9, 36, 0
1, 43009, Note_on_c, 9, 51, 107
1, 43010, Note_on_c, 9, 51, 0
1, 43013, Note_on_c, 7, 42, 0
1, 43016, Control_c, 0, 11, 39
1, 43016, Control_c, 11, 11, 39
1, 43019, Control_c, 10, 11, 39
1, 43022, Note_on_c, 10, 64, 0
1, 43022, Control_c, 2, 11, 39
1, 43022, Control_c, 4, 11, 38
1, 43024, Control_c, 9, 11, 38
1, 43027, Control_c, 7, 11, 38
1, 43031, Note_on_c, 4, 61, 0
1, 43031, Note_on_c, 4, 57, 0
1, 43031, Note_on_c, 4, 64, 0
1, 43032, Note_on_c, 2, 64, 0
1, 43032, Control_c, 0, 11, 38
1, 43032, Control_c, 1, 11, 38
1, 43035, Note_on_c, 1, 30, 0
1, 43038, Control_c, 2, 11, 38
1, 43038, Control_c, 4, 11, 37
1, 43040, Control_c, 9, 11, 37
1, 43040, Control_c, 11, 11, 38
1, 43043, Control_c, 7, 11, 37
1, 43043, Control_c, 10, 11, 38
1, 43045, Note_on_c, 10, 64, 80
1, 43048, Control_c, 0, 11, 37
1, 43048, Control_c, 1, 11, 37
1, 43050, Note_on_c, 7, 49, 78
1, 43053, Note_on_c, 2, 64, 84
1, 43055, Note_on_c, 0, 49, 85
1, 43055, Note_on_c, 1, 30, 82
1, 43055, Note_on_c, 4, 64, 93
1, 43055, Note_on_c, 4, 61, 87
1, 43055, Note_on_c, 4, 57, 87
1, 43056, Control_c, 11, 11, 37
1, 43057, Note_on_c, 9, 51, 73
1, 43058, Note_on_c, 9, 51, 0
1, 43059, Control_c, 7, 11, 36
1, 43059, Control_c, 10, 11, 37
1, 43060, Note_on_c, 7, 49, 0
1, 43062, Control_c, 2, 11, 37
1, 43062, Control_c, 4, 11, 36
1, 43064, Control_c, 0, 11, 36
1, 43064, Control_c, 1, 11, 36
1, 43064, Control_c, 9, 11, 36
1, 43072, Control_c, 11, 11, 36
1, 43073, Note_on_c, 2, 59, 0
1, 43075, Control_c, 7, 11, 35
1, 43075, Control_c, 10, 11, 36
1, 43078, Control_c, 2, 11, 36
1, 43078, Control_c, 4, 11, 35
1, 43079, Note_on_c, 1, 30, 0
1, 43079, Note_on_c, 10, 59, 0
1, 43080, Control_c, 0, 11, 35
1, 43080, Control_c, 1, 11, 35
1, 43080, Control_c, 9, 11, 35
1, 43088, Control_c, 11, 11, 35
1, 43091, Control_c, 7, 11, 34
1, 43091, Note_on_c, 10, 57, 72
1, 43091, Control_c, 10, 11, 35
1, 43094, Control_c, 2, 11, 35
1, 43094, Control_c, 4, 11, 34
1, 43096, Control_c, 1, 11, 34
1, 43096, Control_c, 9, 11, 34
1, 43098, Note_on_c, 7, 56, 108
1, 43099, Note_on_c, 2, 57, 89
1, 43102, Note_on_c, 4, 64, 0
1, 43102, Note_on_c, 4, 57, 0
1, 43102, Note_on_c, 4, 61, 0
1, 43103, Note_on_c, 0, 56, 115
1, 43103, Note_on_c, 1, 30, 121
1, 43103, Note_on_c, 4, 64, 90
1, 43103, Note_on_c, 4, 57, 95
1, 43103, Note_on_c, 4, 61, 95
1, 43103, Note_on_c, 9, 51, 112
1, 43104, Note_on_c, 9, 51, 0
1, 43104, Control_c, 0, 11, 34
1, 43104, Note_on_c, 9, 40, 118
1, 43104, Control_c, 11, 11, 34
1, 43105, Note_on_c, 9, 40, 0
1, 43105, Note_on_c, 10, 64, 0
1, 43107, Control_c, 10, 11, 34
1, 43108, Note_on_c, 7, 56, 0
1, 43110, Control_c, 2, 11, 34
1, 43110, Control_c, 4, 11, 33
1, 43112, Control_c, 1, 11, 33
1, 43112, Control_c, 9, 11, 33
1, 43113, Note_on_c, 2, 64, 0
1, 43115, Control_c, 7, 11, 33
1, 43120, Control_c, 0, 11, 33
1, 43126, Note_on_c, 0, 49, 0
1, 43126, Control_c, 2, 11, 33
1, 43126, Control_c, 4, 11, 32
1, 43128, Control_c, 1, 11, 32
1, 43128, Control_c, 9, 11, 32
1, 43128, Control_c, 11, 11, 33
1, 43131, Control_c, 7, 11, 32
1, 43131, Control_c, 10, 11, 33
1, 43132, Note_on_c, 1, 30, 0
1, 43136, Control_c, 0, 11, 32
1, 43139, Note_on_c, 10, 64, 74
1, 43142, Control_c, 2, 11, 32
1, 43142, Control_c, 4, 11, 31
1, 43144, Control_c, 11, 11, 32
1, 43146, Note_on_c, 2, 64, 83
1, 43146, Note_on_c, 7, 49, 90
1, 43147, Control_c, 7, 11, 31
1, 43147, Control_c, 10, 11, 32
1, 43148, Note_on_c, 0, 56, 0
1, 43150, Note_on_c, 4, 64, 0
1, 43150, Note_on_c, 4, 57, 0
1, 43150, Note_on_c, 4, 61, 0
1, 43151, Note_on_c, 0, 49, 97
1, 43151, Note_on_c, 1, 30, 91
1, 43151, Note_on_c, 4, 64, 102
1, 43151, Note_on_c, 4, 61, 105
1, 43151, Note_on_c, 4, 57, 105
1, 43152, Control_c, 0, 11, 31
1, 43152, Control_c, 1, 11, 31
1, 43152, Control_c, 9, 11, 31
1, 43152, Note_on_c, 9, 36, 81
1, 43153, Note_on_c, 9, 36, 0
1, 43153, Note_on_c, 9, 51, 76
1, 43154, Note_on_c, 9, 51, 0
1, 43156, Note_on_c, 7, 49, 0
1, 43160, Control_c, 11, 11, 31
1, 43163, Control_c, 7, 11, 30
1, 43163, Control_c, 10, 11, 31
1, 43166, Control_c, 2, 11, 31
1, 43166, Control_c, 4, 11, 30
1, 43168, Control_c, 0, 11, 30
1, 43168, Control_c, 1, 11, 30
1, 43168, Control_c, 9, 11, 30
1, 43174, Note_on_c, 1, 30, 0
1, 43176, Control_c, 11, 11, 30
1, 43179, Control_c, 10, 11, 30
1, 43182, Control_c, 2, 11, 30
1, 43182, Control_c, 4, 11, 29
1, 43184, Control_c, 0, 11, 29
1, 43184, Control_c, 1, 11, 29
1, 43184, Control_c, 9, 11, 29
1, 43187, Control_c, 7, 11, 29
1, 43192, Control_c, 11, 11, 29
1, 43194, Note_on_c, 7, 57, 101
1, 43195, Control_c, 10, 11, 29
1, 43196, Note_on_c, 0, 49, 0
1, 43198, Control_c, 2, 11, 29
1, 43198, Control_c, 4, 11, 28
1, 43199, Note_on_c, 0, 57, 108
1, 43199, Note_on_c, 1, 30, 117
1, 43200, Control_c, 1, 11, 28
1, 43200, Control_c, 9, 11, 28
1, 43200, Note_on_c, 9, 36, 111
1, 43201, Note_on_c, 9, 36, 0
1, 43201, Note_on_c, 9, 51, 106
1, 43202, Note_on_c, 9, 51, 0
1, 43203, Control_c, 7, 11, 28
1, 43204, Note_on_c, 7, 57, 0
1, 43208, Control_c, 0, 11, 28
1, 43208, Control_c, 11, 11, 28
1, 43211, Control_c, 10, 11, 28
1, 43214, Control_c, 2, 11, 28
1, 43214, Control_c, 4, 11, 27
1, 43216, Control_c, 1, 11, 27
1, 43216, Control_c, 9, 11, 27
1, 43218, Note_on_c, 10, 64, 0
1, 43219, Control_c, 7, 11, 27
1, 43222, Note_on_c, 2, 64, 0
1, 43224, Control_c, 0, 11, 27
1, 43226, Note_on_c, 1, 30, 0
1, 43230, Control_c, 2, 11, 27
1, 43230, Control_c, 4, 11, 26
1, 43232, Control_c, 1, 11, 26
1, 43232, Control_c, 11, 11, 27
1, 43235, Control_c, 7, 11, 26
1, 43235, Control_c, 10, 11, 27
1, 43236, Note_on_c, 10, 64, 70
1, 43240, Control_c, 0, 11, 26
1, 43240, Note_on_c, 2, 64, 77
1, 43240, Control_c, 9, 11, 26
1, 43242, Note_on_c, 7, 56, 98
1, 43246, Note_on_c, 4, 57, 0
1, 43246, Note_on_c, 4, 64, 0
1, 43246, Note_on_c, 0, 57, 0
1, 43246, Note_on_c, 4, 61, 0
1, 43246, Control_c, 4, 11, 25
1, 43247, Note_on_c, 0, 56, 105
1, 43247, Note_on_c, 1, 30, 89
1, 43247, Note_on_c, 4, 61, 101
1, 43247, Note_on_c, 4, 64, 94
1, 43247, Note_on_c, 4, 57, 101
1, 43248, Control_c, 11, 11, 26
1, 43249, Note_on_c, 9, 51, 74
1, 43250, Note_on_c, 9, 51, 0
1, 43251, Control_c, 7, 11, 25
1, 43251, Control_c, 10, 11, 26
1, 43252, Note_on_c, 7, 56, 0
1, 43254, Control_c, 2, 11, 26
1, 43256, Control_c, 0, 11, 25
1, 43256, Control_c, 1, 11, 25
1, 43256, Control_c, 9, 11, 25
1, 43260, Note_on_c, 2, 57, 0
1, 43264, Control_c, 11, 11, 25
1, 43267, Control_c, 10, 11, 25
1, 43268, Note_on_c, 10, 57, 0
1, 43268, Note_on_c, 1, 30, 0
1, 43270, Control_c, 2, 11, 25
1, 43270, Control_c, 4, 11, 24
1, 43272, Control_c, 0, 11, 24
1, 43272, Control_c, 1, 11, 24
1, 43272, Control_c, 9, 11, 24
1, 43275, Control_c, 7, 11, 24
1, 43280, Control_c, 11, 11, 24
1, 43283, Control_c, 10, 11, 24
1, 43286, Control_c, 2, 11, 24
1, 43286, Control_c, 4, 11, 23
1, 43288, Control_c, 1, 11, 23
1, 43288, Control_c, 9, 11, 23
1, 43289, Note_on_c, 2, 57, 90
1, 43290, Note_on_c, 7, 49, 91
1, 43291, Control_c, 7, 11, 23
1, 43291, Note_on_c, 10, 57, 81
1, 43295, Note_on_c, 0, 49, 98
1, 43295, Note_on_c, 1, 30, 121
1, 43296, Control_c, 0, 11, 23
1, 43296, Note_on_c, 9, 40, 118
1, 43296, Note_on_c, 9, 51, 107
1, 43296, Control_c, 11, 11, 23
1, 43297, Note_on_c, 9, 51, 0
1, 43297, Note_on_c, 9, 40, 0
1, 43299, Control_c, 10, 11, 23
1, 43300, Note_on_c, 7, 49, 0
1, 43302, Control_c, 2, 11, 23
1, 43302, Control_c, 4, 11, 22
1, 43304, Control_c, 1, 11, 22
1, 43304, Control_c, 9, 11, 22
1, 43307, Control_c, 7, 11, 22
1, 43310, Note_on_c, 2, 64, 0
1, 43312, Note_on_c, 10, 64, 0
1, 43312, Control_c, 0, 11, 22
1, 43318, Control_c, 2, 11, 22
1, 43318, Control_c, 4, 11, 21
1, 43320, Control_c, 1, 11, 21
1, 43320, Control_c, 9, 11, 21
1, 43320, Control_c, 11, 11, 22
1, 43323, Control_c, 7, 11, 21
1, 43323, Control_c, 10, 11, 22
1, 43325, Note_on_c, 1, 30, 0
1, 43328, Control_c, 0, 11, 21
1, 43334, Note_on_c, 0, 56, 0
1, 43334, Control_c, 4, 11, 20
1, 43336, Control_c, 1, 11, 20
1, 43336, Control_c, 11, 11, 21
1, 43337, Note_on_c, 10, 64, 75
1, 43338, Note_on_c, 2, 64, 82
1, 43338, Note_on_c, 7, 56, 100
1, 43339, Control_c, 7, 11, 20
1, 43339, Control_c, 10, 11, 21
1, 43340, Note_on_c, 0, 49, 0
1, 43342, Note_on_c, 4, 64, 0
1, 43342, Note_on_c, 4, 61, 0
1, 43342, Note_on_c, 4, 57, 0
1, 43342, Control_c, 2, 11, 21
1, 43343, Note_on_c, 0, 56, 107
1, 43343, Note_on_c, 1, 33, 78
1, 43343, Note_on_c, 4, 64, 81
1, 43343, Note_on_c, 4, 61, 95
1, 43343, Note_on_c, 4, 57, 95
1, 43344, Control_c, 0, 11, 20
1, 43344, Control_c, 9, 11, 20
1, 43345, Note_on_c, 9, 51, 62
1, 43346, Note_on_c, 9, 51, 0
1, 43348, Note_on_c, 7, 56, 0
1, 43350, Control_c, 4, 11, 19
1, 43352, Control_c, 11, 11, 20
1, 43355, Control_c, 10, 11, 20
1, 43358, Control_c, 2, 11, 20
1, 43360, Control_c, 0, 11, 19
1, 43360, Control_c, 1, 11, 19
1, 43360, Control_c, 9, 11, 19
1, 43363, Control_c, 7, 11, 19
1, 43368, Control_c, 11, 11, 19
1, 43370, Note_on_c, 0, 42, 0
1, 43371, Control_c, 10, 11, 19
1, 43374, Control_c, 2, 11, 19
1, 43374, Control_c, 4, 11, 18
1, 43376, Control_c, 0, 11, 18
1, 43376, Control_c, 1, 11, 18
1, 43376, Control_c, 9, 11, 18
1, 43379, Control_c, 7, 11, 18
1, 43384, Control_c, 11, 11, 18
1, 43387, Note_on_c, 7, 50, 117
1, 43387, Control_c, 10, 11, 18
1, 43388, Note_on_c, 0, 56, 0
1, 43390, Note_on_c, 1, 33, 0
1, 43390, Control_c, 2, 11, 18
1, 43390, Control_c, 4, 11, 17
1, 43391, Note_on_c, 1, 38, 108
1, 43392, Note_on_c, 0, 50, 124
1, 43392, Control_c, 1, 11, 17
1, 43392, Note_on_c, 9, 51, 102
1, 43392, Control_c, 9, 11, 17
1, 43392, Note_on_c, 9, 36, 111
1, 43393, Note_on_c, 9, 36, 0
1, 43393, Note_on_c, 9, 51, 0
1, 43395, Control_c, 7, 11, 17
1, 43397, Note_on_c, 7, 50, 0
1, 43400, Control_c, 0, 11, 17
1, 43400, Control_c, 11, 11, 17
1, 43403, Control_c, 10, 11, 17
1, 43406, Control_c, 2, 11, 17
1, 43406, Control_c, 4, 11, 16
1, 43408, Control_c, 1, 11, 16
1, 43408, Control_c, 9, 11, 16
1, 43409, Note_on_c, 2, 64, 0
1, 43411, Control_c, 7, 11, 16
1, 43414, Note_on_c, 10, 64, 0
1, 43415, Note_on_c, 4, 61, 0
1, 43415, Note_on_c, 4, 57, 0
1, 43415, Note_on_c, 4, 64, 0
1, 43416, Control_c, 0, 11, 16
1, 43420, Note_on_c, 1, 38, 0
1, 43422, Control_c, 2, 11, 16
1, 43422, Control_c, 4, 11, 15
1, 43424, Control_c, 1, 11, 15
1, 43424, Control_c, 11, 11, 16
1, 43427, Control_c, 7, 11, 15
1, 43427, Control_c, 10, 11, 16
1, 43428, Note_on_c, 2, 64, 82
1, 43432, Control_c, 0, 11, 15
1, 43432, Control_c, 9, 11, 15
1, 43432, Note_on_c, 10, 64, 78
1, 43434, Note_on_c, 7, 57, 78
1, 43438, Control_c, 4, 11, 14
1, 43439, Note_on_c, 0, 57, 85
1, 43439, Note_on_c, 1, 38, 85
1, 43439, Note_on_c, 4, 64, 84
1, 43439, Note_on_c, 4, 57, 93
1, 43439, Note_on_c, 4, 61, 93
1, 43440, Control_c, 1, 11, 14
1, 43440, Control_c, 11, 11, 15
1, 43441, Note_on_c, 2, 57, 0
1, 43441, Note_on_c, 9, 51, 66
1, 43442, Note_on_c, 9, 51, 0
1, 43443, Control_c, 10, 11, 15
1, 43444, Note_on_c, 7, 57, 0
1, 43446, Control_c, 2, 11, 15
1, 43448, Control_c, 0, 11, 14
1, 43448, Control_c, 9, 11, 14
1, 43451, Control_c, 7, 11, 14
1, 43453, Note_on_c, 10, 57, 0
1, 43454, Control_c, 4, 11, 13
1, 43456, Control_c, 1, 11, 13
1, 43456, Control_c, 11, 11, 14
1, 43459, Control_c, 10, 11, 14
1, 43462, Control_c, 2, 11, 14
1, 43464, Control_c, 0, 11, 13
1, 43464, Control_c, 9, 11, 13
1, 43465, Note_on_c, 1, 38, 0
1, 43467, Control_c, 7, 11, 13
1, 43472, Control_c, 11, 11, 13
1, 43475, Control_c, 10, 11, 13
1, 43478, Control_c, 2, 11, 13
1, 43478, Control_c, 4, 11, 12
1, 43478, Note_on_c, 10, 57, 85
1, 43480, Control_c, 0, 11, 12
1, 43480, Control_c, 1, 11, 12
1, 43480, Note_on_c, 2, 57, 93
1, 43480, Control_c, 9, 11, 12
1, 43482, Note_on_c, 7, 64, 101
1, 43483, Control_c, 7, 11, 12
1, 43485, Note_on_c, 9, 40, 81
1, 43486, Note_on_c, 9, 40, 0
1, 43486, Note_on_c, 4, 61, 0
1, 43486, Note_on_c, 4, 64, 0
1, 43486, Note_on_c, 4, 57, 0
1, 43487, Note_on_c, 0, 64, 108
1, 43487, Note_on_c, 1, 38, 121
1, 43487, Note_on_c, 4, 64, 75
1, 43487, Note_on_c, 4, 61, 77
1, 43487, Note_on_c, 4, 57, 77
1, 43488, Note_on_c, 9, 40, 118
1, 43488, Control_c, 11, 11, 12
1, 43489, Note_on_c, 9, 40, 0
1, 43489, Note_on_c, 9, 51, 105
1, 43490, Note_on_c, 9, 51, 0
1, 43491, Control_c, 10, 11, 12
1, 43492, Note_on_c, 10, 64, 0
1, 43492, Note_on_c, 7, 64, 0
1, 43494, Control_c, 2, 11, 12
1, 43494, Control_c, 4, 11, 11
1, 43496, Control_c, 1, 11, 11
1, 43496, Control_c, 9, 11, 11
1, 43498, Note_on_c, 2, 64, 0
1, 43499, Control_c, 7, 11, 11
1, 43504, Control_c, 0, 11, 11
1, 43510, Control_c, 2, 11, 11
1, 43510, Control_c, 4, 11, 10
1, 43512, Control_c, 1, 11, 10
1, 43512, Control_c, 11, 11, 11
1, 43515, Control_c, 7, 11, 10
1, 43515, Control_c, 10, 11, 11
1, 43520, Note_on_c, 1, 38, 0
1, 43520, Control_c, 0, 11, 10
1, 43520, Control_c, 9, 11, 10
1, 43526, Control_c, 4, 11, 9
1, 43527, Note_on_c, 10, 64, 75
1, 43528, Control_c, 1, 11, 9
1, 43528, Note_on_c, 2, 64, 90
1, 43528, Control_c, 11, 11, 10
1, 43530, Note_on_c, 7, 57, 90
1, 43531, Note_on_c, 7, 50, 94
1, 43531, Control_c, 10, 11, 10
1, 43534, Note_on_c, 0, 57, 0
1, 43534, Note_on_c, 4, 57, 0
1, 43534, Control_c, 2, 11, 10
1, 43535, Note_on_c, 0, 50, 0
1, 43535, Note_on_c, 4, 61, 0
1, 43535, Note_on_c, 4, 64, 0
1, 43535, Note_on_c, 0, 57, 97
1, 43535, Note_on_c, 1, 38, 90
1, 43535, Note_on_c, 4, 62, 105
1, 43535, Note_on_c, 4, 57, 105
1, 43535, Note_on_c, 4, 66, 95
1, 43535, Note_on_c, 9, 51, 58
1, 43536, Note_on_c, 9, 51, 0
1, 43536, Note_on_c, 0, 50, 101
1, 43536, Control_c, 0, 11, 9
1, 43536, Control_c, 9, 11, 9
1, 43536, Note_on_c, 9, 36, 76
1, 43537, Note_on_c, 9, 36, 0
1, 43539, Control_c, 7, 11, 9
1, 43540, Note_on_c, 7, 57, 0
1, 43541, Note_on_c, 7, 50, 0
1, 43542, Control_c, 4, 11, 8
1, 43544, Control_c, 1, 11, 8
1, 43544, Control_c, 11, 11, 9
1, 43547, Control_c, 10, 11, 9
1, 43550, Control_c, 2, 11, 9
1, 43552, Control_c, 0, 11, 8
1, 43552, Control_c, 9, 11, 8
1, 43555, Control_c, 7, 11, 8
1, 43558, Note_on_c, 0, 64, 0
1, 43558, Control_c, 4, 11, 7
1, 43560, Control_c, 1, 11, 7
1, 43560, Control_c, 11, 11, 8
1, 43563, Control_c, 10, 11, 8
1, 43564, Note_on_c, 1, 38, 0
1, 43566, Control_c, 2, 11, 8
1, 43568, Control_c, 0, 11, 7
1, 43568, Control_c, 9, 11, 7
1, 43571, Control_c, 7, 11, 7
1, 43576, Control_c, 11, 11, 7
1, 43577, Note_on_c, 11, 66, 65
1, 43578, Note_on_c, 7, 62, 101
1, 43579, Control_c, 10, 11, 7
1, 43582, Note_on_c, 11, 69, 0
1, 43582, Control_c, 2, 11, 7
1, 43582, Control_c, 4, 11, 6
1, 43583, Note_on_c, 0, 62, 108
1, 43583, Note_on_c, 1, 38, 116
1, 43584, Control_c, 0, 11, 6
1, 43584, Control_c, 1, 11, 6
1, 43584, Note_on_c, 9, 51, 92
1, 43584, Control_c, 9, 11, 6
1, 43584, Note_on_c, 9, 36, 110
1, 43585, Note_on_c, 9, 36, 0
1, 43585, Note_on_c, 9, 51, 0
1, 43587, Control_c, 7, 11, 6
1, 43588, Note_on_c, 7, 62, 0
1, 43592, Control_c, 11, 11, 6
1, 43595, Control_c, 10, 11, 6
1, 43598, Control_c, 2, 11, 6
1, 43598, Control_c, 4, 11, 5
1, 43599, Note_on_c, 10, 64, 0
1, 43600, Control_c, 1, 11, 5
1, 43603, Control_c, 7, 11, 5
1, 43605, Note_on_c, 2, 64, 0
1, 43608, Control_c, 0, 11, 5
1, 43608, Control_c, 9, 11, 5
1, 43613, Note_on_c, 1, 38, 0
1, 43614, Control_c, 4, 11, 4
1, 43616, Control_c, 1, 11, 4
1, 43616, Control_c, 11, 11, 5
1, 43619, Control_c, 10, 11, 5
1, 43621, Note_on_c, 10, 64, 76
1, 43622, Control_c, 2, 11, 5
1, 43624, Note_on_c, 0, 57, 0
1, 43624, Control_c, 0, 11, 4
1, 43624, Control_c, 9, 11, 4
1, 43626, Note_on_c, 7, 57, 98
1, 43627, Control_c, 7, 11, 4
1, 43628, Note_on_c, 2, 64, 92
1, 43630, Note_on_c, 4, 57, 0
1, 43630, Note_on_c, 4, 66, 0
1, 43630, Note_on_c, 4, 62, 0
1, 43630, Control_c, 4, 11, 3
1, 43631, Note_on_c, 0, 57, 105
1, 43631, Note_on_c, 1, 38, 99
1, 43631, Note_on_c, 4, 62, 101
1, 43631, Note_on_c, 4, 66, 95
1, 43631, Note_on_c, 4, 57, 101
1, 43631, Note_on_c, 9, 51, 46
1, 43632, Note_on_c, 9, 51, 0
1, 43632, Control_c, 1, 11, 3
1, 43632, Note_on_c, 9, 36, 110
1, 43632, Control_c, 11, 11, 4
1, 43633, Note_on_c, 9, 36, 0
1, 43635, Control_c, 10, 11, 4
1, 43636, Note_on_c, 7, 57, 0
1, 43638, Control_c, 2, 11, 4
1, 43640, Control_c, 0, 11, 3
1, 43640, Control_c, 9, 11, 3
1, 43643, Note_on_c, 2, 57, 0
1, 43643, Note_on_c, 10, 57, 0
1, 43643, Control_c, 7, 11, 3
1, 43646, Control_c, 4, 11, 2
1, 43648, Control_c, 1, 11, 2
1, 43648, Control_c, 11, 11, 3
1, 43651, Control_c, 10, 11, 3
1, 43654, Note_on_c, 0, 62, 0
1, 43654, Control_c, 2, 11, 3
1, 43656, Control_c, 0, 11, 2
1, 43656, Control_c, 9, 11, 2
1, 43659, Control_c, 7, 11, 2
1, 43660, Note_on_c, 1, 38, 0
1, 43662, Control_c, 4, 11, 1
1, 43664, Control_c, 1, 11, 1
1, 43664, Control_c, 11, 11, 2
1, 43667, Control_c, 10, 11, 2
1, 43670, Control_c, 2, 11, 2
1, 43672, Control_c, 0, 11, 1
1, 43672, Control_c, 9, 11, 1
1, 43674, Note_on_c, 10, 57, 82
1, 43675, Note_on_c, 7, 62, 72
1, 43675, Note_on_c, 7, 50, 91
1, 43675, Control_c, 7, 11, 0
1, 43677, Note_on_c, 9, 40, 81
1, 43678, Note_on_c, 9, 40, 0
1, 43678, Note_on_c, 2, 57, 95
1, 43678, Control_c, 4, 11, 0
1, 43679, Note_on_c, 0, 50, 0
1, 43680, Note_on_c, 0, 50, 98
1, 43680, Note_on_c, 0, 62, 79
1, 43680, Note_on_c, 1, 38, 112
1, 43680, Control_c, 1, 11, 0
1, 43680, Note_on_c, 9, 40, 118
1, 43680, Control_c, 9, 11, 0
1, 43680, Note_on_c, 9, 51, 92
1, 43680, Control_c, 11, 11, 0
1, 43681, Note_on_c, 9, 51, 0
1, 43681, Note_on_c, 9, 40, 0
1, 43683, Control_c, 10, 11, 0
1, 43685, Note_on_c, 7, 62, 0
1, 43685, Note_on_c, 7, 50, 0
1, 43686, Control_c, 2, 11, 0
1, 43687, Note_on_c, 10, 64, 0
1, 43688, Control_c, 0, 11, 0
1, 43693, Note_on_c, 2, 64, 0
1, 43702, Note_on_c, 0, 57, 0
1, 43711, Note_on_c, 1, 38, 0
1, 43715, Note_on_c, 11, 64, 0
1, 43720, Note_on_c, 11, 66, 0
1, 43722, Note_on_c, 7, 57, 100
1, 43723, Note_on_c, 10, 64, 76
1, 43726, Note_on_c, 4, 57, 0
1, 43726, Note_on_c, 2, 64, 95
1, 43727, Note_on_c, 4, 62, 0
1, 43727, Note_on_c, 4, 66, 0
1, 43727, Note_on_c, 0, 50, 0
1, 43727, Note_on_c, 0, 57, 107
1, 43727, Note_on_c, 1, 33, 114
1, 43727, Note_on_c, 4, 64, 87
1, 43727, Note_on_c, 4, 61, 86
1, 43727, Note_on_c, 4, 57, 86
1, 43728, Note_on_c, 0, 45, 98
1, 43728, Note_on_c, 9, 57, 74
1, 43728, Note_on_c, 9, 36, 110
1, 43728, Note_on_c, 11, 69, 76
1, 43728, Note_on_c, 11, 64, 76
1, 43729, Note_on_c, 9, 36, 0
1, 43729, Note_on_c, 9, 57, 0
1, 43732, Note_on_c, 7, 57, 0
1, 43751, Note_on_c, 0, 62, 0
1, 43772, Note_on_c, 0, 57, 0
1, 43799, Note_on_c, 4, 64, 0
1, 43799, Note_on_c, 4, 57, 0
1, 43799, Note_on_c, 4, 61, 0
1, 44153, Note_on_c, 10, 57, 0
1, 44154, Note_on_c, 10, 64, 0
1, 44157, Note_on_c, 2, 64, 0
1, 44157, Note_on_c, 2, 57, 0
1, 44158, Note_on_c, 1, 33, 0
1, 44159, Note_on_c, 11, 69, 0
1, 44159, Note_on_c, 0, 45, 0
1, 44159, Note_on_c, 11, 64, 0
1, 44496, Control_c, 0, 11, 127
1, 44499, Control_c, 7, 11, 127
1, 44502, Control_c, 4, 11, 127
1, 44504, Control_c, 1, 11, 127
1, 44510, Control_c, 2, 11, 127
1, 44531, Control_c, 10, 11, 127
1, 44536, Control_c, 9, 11, 127
1, 44536, Control_c, 11, 11, 127
1, 44536, End_track
0, 0, End_of_file
