0, 0, Header, 1, 14, 120
1, 0, Start_track
1, 0, Text_t, "\012"
1, 0, SMPTE_offset, 96, 0, 3, 0, 0
1, 0, Time_signature, 4, 2, 24, 8
1, 0, Key_signature, -2, "major"
1, 0, Tempo, 342857
1, 960, Tempo, 521739
1, 9600, Tempo, 521739
1, 13440, Tempo, 517241
1, 13920, Tempo, 512821
1, 17280, Tempo, 508475
1, 17760, Tempo, 508475
1, 17880, Tempo, 508475
1, 21600, Tempo, 512821
1, 22080, Tempo, 517241
1, 22560, Tempo, 521739
1, 22880, Tempo, 521739
1, 25920, Tempo, 517241
1, 26880, Tempo, 512821
1, 30240, Tempo, 508475
1, 30240, End_track
2, 0, Start_track
2, 0, MIDI_port, 0
2, 0, Program_c, 9, 0
2, 0, Control_c, 9, 7, 100
2, 0, Control_c, 9, 10, 64
2, 0, Control_c, 9, 91, 29
2, 0, Control_c, 9, 93, 0
2, 2880, Note_on_c, 9, 36, 100
2, 2880, Note_on_c, 9, 57, 98
2, 2937, Note_on_c, 9, 36, 0
2, 2939, Note_on_c, 9, 57, 0
2, 2940, Note_on_c, 9, 57, 102
2, 2940, Note_on_c, 9, 36, 100
2, 2995, Note_on_c, 9, 36, 0
2, 2999, Note_on_c, 9, 57, 0
2, 3000, Note_on_c, 9, 57, 1
2, 3057, Note_on_c, 9, 57, 0
2, 3839, Note_on_c, 9, 57, 99
2, 3840, Note_on_c, 9, 36, 102
2, 3897, Note_on_c, 9, 36, 0
2, 3897, Note_on_c, 9, 57, 0
2, 3902, Note_on_c, 9, 57, 103
2, 3902, Note_on_c, 9, 36, 101
2, 3957, Note_on_c, 9, 36, 0
2, 3957, Note_on_c, 9, 57, 0
2, 3961, Note_on_c, 9, 57, 4
2, 4017, Note_on_c, 9, 57, 0
2, 4558, Note_on_c, 9, 44, 98
2, 4617, Note_on_c, 9, 44, 0
2, 4622, Note_on_c, 9, 36, 102
2, 4647, Note_on_c, 9, 36, 0
2, 4651, Note_on_c, 9, 36, 103
2, 4677, Note_on_c, 9, 36, 0
2, 4677, Note_on_c, 9, 38, 101
2, 4680, Note_on_c, 9, 38, 101
2, 4794, Note_on_c, 9, 38, 0
2, 4798, Note_on_c, 9, 38, 0
2, 4798, Note_on_c, 9, 36, 101
2, 4798, Note_on_c, 9, 57, 101
2, 4917, Note_on_c, 9, 57, 0
2, 4917, Note_on_c, 9, 36, 0
2, 4918, Note_on_c, 9, 51, 99
2, 4919, Note_on_c, 9, 38, 103
2, 5037, Note_on_c, 9, 38, 0
2, 5037, Note_on_c, 9, 51, 0
2, 5038, Note_on_c, 9, 51, 99
2, 5102, Note_on_c, 9, 36, 98
2, 5157, Note_on_c, 9, 36, 0
2, 5157, Note_on_c, 9, 51, 0
2, 5158, Note_on_c, 9, 51, 99
2, 5160, Note_on_c, 9, 38, 99
2, 5217, Note_on_c, 9, 38, 0
2, 5217, Note_on_c, 9, 51, 0
2, 5218, Note_on_c, 9, 36, 100
2, 5218, Note_on_c, 9, 51, 102
2, 5277, Note_on_c, 9, 51, 0
2, 5277, Note_on_c, 9, 36, 0
2, 5279, Note_on_c, 9, 36, 99
2, 5280, Note_on_c, 9, 57, 103
2, 5397, Note_on_c, 9, 57, 0
2, 5397, Note_on_c, 9, 36, 0
2, 5400, Note_on_c, 9, 38, 100
2, 5401, Note_on_c, 9, 51, 102
2, 5517, Note_on_c, 9, 51, 0
2, 5517, Note_on_c, 9, 38, 0
2, 5521, Note_on_c, 9, 51, 99
2, 5578, Note_on_c, 9, 36, 98
2, 5607, Note_on_c, 9, 36, 0
2, 5611, Note_on_c, 9, 36, 81
2, 5637, Note_on_c, 9, 36, 0
2, 5637, Note_on_c, 9, 51, 0
2, 5639, Note_on_c, 9, 51, 100
2, 5640, Note_on_c, 9, 38, 100
2, 5697, Note_on_c, 9, 38, 0
2, 5697, Note_on_c, 9, 51, 0
2, 5698, Note_on_c, 9, 36, 102
2, 5701, Note_on_c, 9, 51, 103
2, 5757, Note_on_c, 9, 51, 0
2, 5757, Note_on_c, 9, 36, 0
2, 5761, Note_on_c, 9, 57, 99
2, 5762, Note_on_c, 9, 36, 103
2, 5877, Note_on_c, 9, 36, 0
2, 5877, Note_on_c, 9, 57, 0
2, 5879, Note_on_c, 9, 51, 100
2, 5880, Note_on_c, 9, 38, 103
2, 5997, Note_on_c, 9, 38, 0
2, 5997, Note_on_c, 9, 51, 0
2, 6002, Note_on_c, 9, 51, 101
2, 6061, Note_on_c, 9, 36, 99
2, 6117, Note_on_c, 9, 36, 0
2, 6117, Note_on_c, 9, 51, 0
2, 6122, Note_on_c, 9, 51, 99
2, 6122, Note_on_c, 9, 38, 100
2, 6177, Note_on_c, 9, 38, 0
2, 6177, Note_on_c, 9, 51, 0
2, 6178, Note_on_c, 9, 51, 101
2, 6180, Note_on_c, 9, 36, 99
2, 6237, Note_on_c, 9, 36, 0
2, 6237, Note_on_c, 9, 51, 0
2, 6239, Note_on_c, 9, 57, 99
2, 6240, Note_on_c, 9, 36, 98
2, 6357, Note_on_c, 9, 36, 0
2, 6357, Note_on_c, 9, 57, 0
2, 6359, Note_on_c, 9, 38, 98
2, 6362, Note_on_c, 9, 51, 102
2, 6477, Note_on_c, 9, 51, 0
2, 6477, Note_on_c, 9, 38, 0
2, 6481, Note_on_c, 9, 51, 103
2, 6542, Note_on_c, 9, 36, 102
2, 6597, Note_on_c, 9, 36, 0
2, 6597, Note_on_c, 9, 51, 0
2, 6602, Note_on_c, 9, 38, 102
2, 6602, Note_on_c, 9, 51, 98
2, 6657, Note_on_c, 9, 51, 0
2, 6657, Note_on_c, 9, 38, 0
2, 6659, Note_on_c, 9, 36, 100
2, 6661, Note_on_c, 9, 51, 101
2, 6717, Note_on_c, 9, 51, 0
2, 6717, Note_on_c, 9, 36, 0
2, 6719, Note_on_c, 9, 57, 103
2, 6719, Note_on_c, 9, 36, 99
2, 6837, Note_on_c, 9, 36, 0
2, 6837, Note_on_c, 9, 57, 0
2, 6838, Note_on_c, 9, 51, 101
2, 6842, Note_on_c, 9, 38, 102
2, 6957, Note_on_c, 9, 38, 0
2, 6957, Note_on_c, 9, 51, 0
2, 6959, Note_on_c, 9, 51, 103
2, 7018, Note_on_c, 9, 36, 103
2, 7047, Note_on_c, 9, 36, 0
2, 7051, Note_on_c, 9, 36, 82
2, 7077, Note_on_c, 9, 36, 0
2, 7077, Note_on_c, 9, 51, 0
2, 7078, Note_on_c, 9, 38, 101
2, 7078, Note_on_c, 9, 51, 99
2, 7137, Note_on_c, 9, 51, 0
2, 7137, Note_on_c, 9, 38, 0
2, 7139, Note_on_c, 9, 36, 102
2, 7142, Note_on_c, 9, 51, 98
2, 7197, Note_on_c, 9, 51, 0
2, 7197, Note_on_c, 9, 36, 0
2, 7199, Note_on_c, 9, 36, 101
2, 7200, Note_on_c, 9, 57, 102
2, 7317, Note_on_c, 9, 57, 0
2, 7317, Note_on_c, 9, 36, 0
2, 7321, Note_on_c, 9, 38, 100
2, 7322, Note_on_c, 9, 51, 103
2, 7437, Note_on_c, 9, 51, 0
2, 7437, Note_on_c, 9, 38, 0
2, 7441, Note_on_c, 9, 51, 98
2, 7500, Note_on_c, 9, 36, 100
2, 7557, Note_on_c, 9, 36, 0
2, 7557, Note_on_c, 9, 51, 0
2, 7559, Note_on_c, 9, 38, 98
2, 7561, Note_on_c, 9, 51, 102
2, 7617, Note_on_c, 9, 51, 0
2, 7617, Note_on_c, 9, 38, 0
2, 7620, Note_on_c, 9, 36, 99
2, 7620, Note_on_c, 9, 51, 99
2, 7677, Note_on_c, 9, 51, 0
2, 7677, Note_on_c, 9, 36, 0
2, 7681, Note_on_c, 9, 36, 99
2, 7682, Note_on_c, 9, 57, 99
2, 7797, Note_on_c, 9, 57, 0
2, 7797, Note_on_c, 9, 36, 0
2, 8638, Note_on_c, 9, 42, 103
2, 8757, Note_on_c, 9, 42, 0
2, 8760, Note_on_c, 9, 42, 102
2, 8817, Note_on_c, 9, 42, 0
2, 8819, Note_on_c, 9, 42, 98
2, 8877, Note_on_c, 9, 42, 0
2, 8881, Note_on_c, 9, 42, 100
2, 8997, Note_on_c, 9, 42, 0
2, 9001, Note_on_c, 9, 42, 98
2, 9117, Note_on_c, 9, 42, 0
2, 9120, Note_on_c, 9, 42, 103
2, 9177, Note_on_c, 9, 42, 0
2, 9179, Note_on_c, 9, 42, 48
2, 9237, Note_on_c, 9, 42, 0
2, 9238, Note_on_c, 9, 42, 101
2, 9357, Note_on_c, 9, 42, 0
2, 9359, Note_on_c, 9, 42, 103
2, 9477, Note_on_c, 9, 42, 0
2, 9480, Note_on_c, 9, 42, 101
2, 9537, Note_on_c, 9, 42, 0
2, 9542, Note_on_c, 9, 42, 103
2, 9597, Note_on_c, 9, 42, 0
2, 9600, Note_on_c, 9, 36, 100
2, 9602, Note_on_c, 9, 42, 100
2, 9657, Note_on_c, 9, 42, 0
2, 9661, Note_on_c, 9, 42, 56
2, 9717, Note_on_c, 9, 42, 0
2, 9717, Note_on_c, 9, 36, 0
2, 9719, Note_on_c, 9, 42, 101
2, 9777, Note_on_c, 9, 42, 0
2, 9778, Note_on_c, 9, 42, 58
2, 9837, Note_on_c, 9, 42, 0
2, 9841, Note_on_c, 9, 42, 103
2, 9897, Note_on_c, 9, 42, 0
2, 9900, Note_on_c, 9, 42, 55
2, 9957, Note_on_c, 9, 42, 0
2, 9958, Note_on_c, 9, 42, 98
2, 10017, Note_on_c, 9, 42, 0
2, 10020, Note_on_c, 9, 42, 57
2, 10021, Note_on_c, 9, 36, 98
2, 10077, Note_on_c, 9, 36, 0
2, 10077, Note_on_c, 9, 42, 0
2, 10078, Note_on_c, 9, 36, 101
2, 10082, Note_on_c, 9, 42, 100
2, 10137, Note_on_c, 9, 42, 0
2, 10138, Note_on_c, 9, 42, 59
2, 10197, Note_on_c, 9, 42, 0
2, 10197, Note_on_c, 9, 36, 0
2, 10202, Note_on_c, 9, 42, 101
2, 10257, Note_on_c, 9, 42, 0
2, 10261, Note_on_c, 9, 42, 55
2, 10317, Note_on_c, 9, 42, 0
2, 10319, Note_on_c, 9, 42, 100
2, 10377, Note_on_c, 9, 42, 0
2, 10380, Note_on_c, 9, 42, 56
2, 10437, Note_on_c, 9, 42, 0
2, 10438, Note_on_c, 9, 42, 101
2, 10497, Note_on_c, 9, 42, 0
2, 10501, Note_on_c, 9, 42, 58
2, 10502, Note_on_c, 9, 36, 98
2, 10557, Note_on_c, 9, 36, 0
2, 10557, Note_on_c, 9, 42, 0
2, 10558, Note_on_c, 9, 36, 98
2, 10562, Note_on_c, 9, 42, 100
2, 10617, Note_on_c, 9, 42, 0
2, 10622, Note_on_c, 9, 42, 55
2, 10677, Note_on_c, 9, 42, 0
2, 10677, Note_on_c, 9, 36, 0
2, 10680, Note_on_c, 9, 42, 99
2, 10737, Note_on_c, 9, 42, 0
2, 10738, Note_on_c, 9, 42, 58
2, 10797, Note_on_c, 9, 42, 0
2, 10798, Note_on_c, 9, 42, 103
2, 10857, Note_on_c, 9, 42, 0
2, 10862, Note_on_c, 9, 42, 55
2, 10917, Note_on_c, 9, 42, 0
2, 10920, Note_on_c, 9, 42, 99
2, 10977, Note_on_c, 9, 42, 0
2, 10978, Note_on_c, 9, 42, 57
2, 11037, Note_on_c, 9, 42, 0
2, 11040, Note_on_c, 9, 36, 100
2, 11041, Note_on_c, 9, 42, 103
2, 11097, Note_on_c, 9, 42, 0
2, 11100, Note_on_c, 9, 42, 56
2, 11157, Note_on_c, 9, 42, 0
2, 11157, Note_on_c, 9, 36, 0
2, 11159, Note_on_c, 9, 42, 100
2, 11217, Note_on_c, 9, 42, 0
2, 11220, Note_on_c, 9, 42, 56
2, 11277, Note_on_c, 9, 42, 0
2, 11281, Note_on_c, 9, 42, 100
2, 11337, Note_on_c, 9, 42, 0
2, 11341, Note_on_c, 9, 42, 57
2, 11397, Note_on_c, 9, 42, 0
2, 11401, Note_on_c, 9, 42, 103
2, 11457, Note_on_c, 9, 42, 0
2, 11458, Note_on_c, 9, 42, 56
2, 11460, Note_on_c, 9, 36, 100
2, 11517, Note_on_c, 9, 36, 0
2, 11517, Note_on_c, 9, 42, 0
2, 11519, Note_on_c, 9, 36, 103
2, 11522, Note_on_c, 9, 42, 101
2, 11577, Note_on_c, 9, 42, 0
2, 11578, Note_on_c, 9, 42, 56
2, 11637, Note_on_c, 9, 42, 0
2, 11637, Note_on_c, 9, 36, 0
2, 11640, Note_on_c, 9, 42, 101
2, 11697, Note_on_c, 9, 42, 0
2, 11701, Note_on_c, 9, 42, 58
2, 11757, Note_on_c, 9, 42, 0
2, 11760, Note_on_c, 9, 42, 98
2, 11817, Note_on_c, 9, 42, 0
2, 11818, Note_on_c, 9, 42, 54
2, 11877, Note_on_c, 9, 42, 0
2, 11882, Note_on_c, 9, 42, 99
2, 11937, Note_on_c, 9, 42, 0
2, 11940, Note_on_c, 9, 42, 54
2, 11942, Note_on_c, 9, 36, 99
2, 11997, Note_on_c, 9, 36, 0
2, 11997, Note_on_c, 9, 42, 0
2, 11999, Note_on_c, 9, 36, 100
2, 12000, Note_on_c, 9, 42, 101
2, 12057, Note_on_c, 9, 42, 0
2, 12059, Note_on_c, 9, 42, 55
2, 12117, Note_on_c, 9, 42, 0
2, 12117, Note_on_c, 9, 36, 0
2, 12122, Note_on_c, 9, 42, 98
2, 12177, Note_on_c, 9, 42, 0
2, 12179, Note_on_c, 9, 42, 57
2, 12237, Note_on_c, 9, 42, 0
2, 12240, Note_on_c, 9, 42, 98
2, 12297, Note_on_c, 9, 42, 0
2, 12299, Note_on_c, 9, 36, 99
2, 12302, Note_on_c, 9, 42, 58
2, 12357, Note_on_c, 9, 42, 0
2, 12357, Note_on_c, 9, 36, 0
2, 12359, Note_on_c, 9, 42, 100
2, 12417, Note_on_c, 9, 42, 0
2, 12420, Note_on_c, 9, 42, 59
2, 12421, Note_on_c, 9, 36, 99
2, 12477, Note_on_c, 9, 36, 0
2, 12477, Note_on_c, 9, 42, 0
2, 12478, Note_on_c, 9, 36, 98
2, 12481, Note_on_c, 9, 42, 101
2, 12537, Note_on_c, 9, 42, 0
2, 12542, Note_on_c, 9, 42, 55
2, 12597, Note_on_c, 9, 42, 0
2, 12597, Note_on_c, 9, 36, 0
2, 12599, Note_on_c, 9, 42, 98
2, 12657, Note_on_c, 9, 42, 0
2, 12660, Note_on_c, 9, 42, 57
2, 12717, Note_on_c, 9, 42, 0
2, 12722, Note_on_c, 9, 42, 102
2, 12777, Note_on_c, 9, 42, 0
2, 12778, Note_on_c, 9, 42, 54
2, 12837, Note_on_c, 9, 42, 0
2, 12842, Note_on_c, 9, 42, 103
2, 12897, Note_on_c, 9, 42, 0
2, 12898, Note_on_c, 9, 42, 56
2, 12900, Note_on_c, 9, 36, 103
2, 12957, Note_on_c, 9, 36, 0
2, 12957, Note_on_c, 9, 42, 0
2, 12958, Note_on_c, 9, 36, 101
2, 12960, Note_on_c, 9, 46, 99
2, 13077, Note_on_c, 9, 46, 0
2, 13077, Note_on_c, 9, 36, 0
2, 13081, Note_on_c, 9, 38, 39
2, 13082, Note_on_c, 9, 36, 40
2, 13137, Note_on_c, 9, 36, 0
2, 13137, Note_on_c, 9, 38, 0
2, 13138, Note_on_c, 9, 36, 44
2, 13141, Note_on_c, 9, 38, 45
2, 13197, Note_on_c, 9, 38, 0
2, 13197, Note_on_c, 9, 36, 0
2, 13198, Note_on_c, 9, 36, 52
2, 13202, Note_on_c, 9, 38, 53
2, 13257, Note_on_c, 9, 38, 0
2, 13257, Note_on_c, 9, 36, 0
2, 13258, Note_on_c, 9, 36, 55
2, 13261, Note_on_c, 9, 38, 55
2, 13317, Note_on_c, 9, 38, 0
2, 13317, Note_on_c, 9, 36, 0
2, 13319, Note_on_c, 9, 38, 62
2, 13322, Note_on_c, 9, 36, 62
2, 13377, Note_on_c, 9, 36, 0
2, 13377, Note_on_c, 9, 38, 0
2, 13379, Note_on_c, 9, 38, 63
2, 13379, Note_on_c, 9, 36, 63
2, 13437, Note_on_c, 9, 36, 0
2, 13437, Note_on_c, 9, 38, 0
2, 13438, Note_on_c, 9, 36, 72
2, 13441, Note_on_c, 9, 38, 73
2, 13442, Note_on_c, 9, 57, 71
2, 13497, Note_on_c, 9, 57, 0
2, 13497, Note_on_c, 9, 38, 0
2, 13497, Note_on_c, 9, 36, 0
2, 13501, Note_on_c, 9, 38, 75
2, 13501, Note_on_c, 9, 36, 75
2, 13501, Note_on_c, 9, 57, 73
2, 13557, Note_on_c, 9, 57, 0
2, 13557, Note_on_c, 9, 36, 0
2, 13557, Note_on_c, 9, 38, 0
2, 13558, Note_on_c, 9, 36, 80
2, 13558, Note_on_c, 9, 38, 79
2, 13559, Note_on_c, 9, 57, 80
2, 13617, Note_on_c, 9, 57, 0
2, 13617, Note_on_c, 9, 38, 0
2, 13617, Note_on_c, 9, 36, 0
2, 13618, Note_on_c, 9, 36, 88
2, 13622, Note_on_c, 9, 57, 84
2, 13622, Note_on_c, 9, 38, 84
2, 13677, Note_on_c, 9, 38, 0
2, 13677, Note_on_c, 9, 57, 0
2, 13677, Note_on_c, 9, 36, 0
2, 13678, Note_on_c, 9, 36, 88
2, 13679, Note_on_c, 9, 38, 90
2, 13680, Note_on_c, 9, 57, 89
2, 13737, Note_on_c, 9, 57, 0
2, 13737, Note_on_c, 9, 38, 0
2, 13737, Note_on_c, 9, 36, 0
2, 13738, Note_on_c, 9, 57, 94
2, 13738, Note_on_c, 9, 38, 94
2, 13740, Note_on_c, 9, 36, 94
2, 13797, Note_on_c, 9, 36, 0
2, 13797, Note_on_c, 9, 38, 0
2, 13797, Note_on_c, 9, 57, 0
2, 13800, Note_on_c, 9, 57, 100
2, 13801, Note_on_c, 9, 36, 98
2, 13801, Note_on_c, 9, 38, 101
2, 13917, Note_on_c, 9, 38, 0
2, 13917, Note_on_c, 9, 36, 0
2, 13917, Note_on_c, 9, 57, 0
2, 13918, Note_on_c, 9, 57, 103
2, 13920, Note_on_c, 9, 36, 102
2, 14037, Note_on_c, 9, 36, 0
2, 14037, Note_on_c, 9, 57, 0
2, 14039, Note_on_c, 9, 42, 100
2, 14041, Note_on_c, 9, 38, 103
2, 14097, Note_on_c, 9, 38, 0
2, 14099, Note_on_c, 9, 36, 99
2, 14157, Note_on_c, 9, 36, 0
2, 14157, Note_on_c, 9, 42, 0
2, 14160, Note_on_c, 9, 42, 100
2, 14277, Note_on_c, 9, 42, 0
2, 14279, Note_on_c, 9, 42, 100
2, 14280, Note_on_c, 9, 38, 102
2, 14397, Note_on_c, 9, 38, 0
2, 14397, Note_on_c, 9, 42, 0
2, 14400, Note_on_c, 9, 36, 99
2, 14401, Note_on_c, 9, 42, 103
2, 14517, Note_on_c, 9, 42, 0
2, 14517, Note_on_c, 9, 36, 0
2, 14518, Note_on_c, 9, 42, 99
2, 14520, Note_on_c, 9, 38, 99
2, 14577, Note_on_c, 9, 38, 0
2, 14582, Note_on_c, 9, 36, 102
2, 14637, Note_on_c, 9, 36, 0
2, 14637, Note_on_c, 9, 42, 0
2, 14641, Note_on_c, 9, 42, 102
2, 14702, Note_on_c, 9, 36, 101
2, 14757, Note_on_c, 9, 36, 0
2, 14757, Note_on_c, 9, 42, 0
2, 14758, Note_on_c, 9, 42, 102
2, 14759, Note_on_c, 9, 38, 98
2, 14816, Note_on_c, 9, 38, 0
2, 14818, Note_on_c, 9, 36, 99
2, 14877, Note_on_c, 9, 36, 0
2, 14877, Note_on_c, 9, 42, 0
2, 14880, Note_on_c, 9, 36, 99
2, 14882, Note_on_c, 9, 57, 103
2, 14997, Note_on_c, 9, 57, 0
2, 14997, Note_on_c, 9, 36, 0
2, 14999, Note_on_c, 9, 38, 103
2, 15001, Note_on_c, 9, 42, 101
2, 15058, Note_on_c, 9, 38, 0
2, 15061, Note_on_c, 9, 36, 102
2, 15116, Note_on_c, 9, 42, 0
2, 15117, Note_on_c, 9, 36, 0
2, 15118, Note_on_c, 9, 42, 99
2, 15237, Note_on_c, 9, 42, 0
2, 15240, Note_on_c, 9, 42, 103
2, 15242, Note_on_c, 9, 38, 100
2, 15357, Note_on_c, 9, 38, 0
2, 15357, Note_on_c, 9, 42, 0
2, 15358, Note_on_c, 9, 36, 98
2, 15362, Note_on_c, 9, 42, 102
2, 15477, Note_on_c, 9, 42, 0
2, 15477, Note_on_c, 9, 36, 0
2, 15479, Note_on_c, 9, 42, 98
2, 15479, Note_on_c, 9, 38, 99
2, 15537, Note_on_c, 9, 38, 0
2, 15541, Note_on_c, 9, 36, 100
2, 15597, Note_on_c, 9, 36, 0
2, 15597, Note_on_c, 9, 42, 0
2, 15600, Note_on_c, 9, 42, 101
2, 15659, Note_on_c, 9, 36, 101
2, 15717, Note_on_c, 9, 36, 0
2, 15717, Note_on_c, 9, 42, 0
2, 15721, Note_on_c, 9, 42, 100
2, 15721, Note_on_c, 9, 38, 98
2, 15776, Note_on_c, 9, 38, 0
2, 15780, Note_on_c, 9, 36, 103
2, 15837, Note_on_c, 9, 36, 0
2, 15837, Note_on_c, 9, 42, 0
2, 15840, Note_on_c, 9, 36, 98
2, 15840, Note_on_c, 9, 42, 98
2, 15957, Note_on_c, 9, 42, 0
2, 15957, Note_on_c, 9, 36, 0
2, 15961, Note_on_c, 9, 42, 103
2, 15962, Note_on_c, 9, 38, 100
2, 16017, Note_on_c, 9, 38, 0
2, 16020, Note_on_c, 9, 36, 102
2, 16075, Note_on_c, 9, 36, 0
2, 16077, Note_on_c, 9, 42, 0
2, 16081, Note_on_c, 9, 42, 99
2, 16197, Note_on_c, 9, 42, 0
2, 16200, Note_on_c, 9, 42, 98
2, 16201, Note_on_c, 9, 38, 100
2, 16257, Note_on_c, 9, 38, 0
2, 16259, Note_on_c, 9, 36, 102
2, 16317, Note_on_c, 9, 36, 0
2, 16317, Note_on_c, 9, 42, 0
2, 16318, Note_on_c, 9, 36, 101
2, 16321, Note_on_c, 9, 42, 102
2, 16437, Note_on_c, 9, 42, 0
2, 16437, Note_on_c, 9, 36, 0
2, 16440, Note_on_c, 9, 38, 103
2, 16442, Note_on_c, 9, 42, 99
2, 16497, Note_on_c, 9, 38, 0
2, 16499, Note_on_c, 9, 36, 100
2, 16557, Note_on_c, 9, 36, 0
2, 16557, Note_on_c, 9, 42, 0
2, 16558, Note_on_c, 9, 42, 103
2, 16677, Note_on_c, 9, 42, 0
2, 16681, Note_on_c, 9, 38, 98
2, 16681, Note_on_c, 9, 42, 103
2, 16737, Note_on_c, 9, 38, 0
2, 16740, Note_on_c, 9, 36, 101
2, 16797, Note_on_c, 9, 36, 0
2, 16797, Note_on_c, 9, 42, 0
2, 16799, Note_on_c, 9, 36, 99
2, 16800, Note_on_c, 9, 42, 98
2, 16917, Note_on_c, 9, 42, 0
2, 16917, Note_on_c, 9, 36, 0
2, 16918, Note_on_c, 9, 38, 99
2, 16921, Note_on_c, 9, 42, 99
2, 16977, Note_on_c, 9, 38, 0
2, 16981, Note_on_c, 9, 36, 99
2, 17037, Note_on_c, 9, 36, 0
2, 17037, Note_on_c, 9, 42, 0
2, 17041, Note_on_c, 9, 42, 99
2, 17101, Note_on_c, 9, 36, 103
2, 17157, Note_on_c, 9, 36, 0
2, 17157, Note_on_c, 9, 42, 0
2, 17158, Note_on_c, 9, 42, 101
2, 17162, Note_on_c, 9, 38, 102
2, 17217, Note_on_c, 9, 38, 0
2, 17220, Note_on_c, 9, 36, 99
2, 17277, Note_on_c, 9, 36, 0
2, 17277, Note_on_c, 9, 42, 0
2, 17282, Note_on_c, 9, 42, 102
2, 17282, Note_on_c, 9, 36, 102
2, 17397, Note_on_c, 9, 36, 0
2, 17397, Note_on_c, 9, 42, 0
2, 17401, Note_on_c, 9, 42, 103
2, 17401, Note_on_c, 9, 38, 103
2, 17457, Note_on_c, 9, 38, 0
2, 17458, Note_on_c, 9, 36, 103
2, 17517, Note_on_c, 9, 36, 0
2, 17517, Note_on_c, 9, 42, 0
2, 17521, Note_on_c, 9, 38, 99
2, 17547, Note_on_c, 9, 38, 0
2, 17552, Note_on_c, 9, 38, 98
2, 17577, Note_on_c, 9, 38, 0
2, 17579, Note_on_c, 9, 38, 98
2, 17637, Note_on_c, 9, 38, 0
2, 17640, Note_on_c, 9, 38, 103
2, 17697, Note_on_c, 9, 38, 0
2, 17699, Note_on_c, 9, 38, 98
2, 17757, Note_on_c, 9, 38, 0
2, 17758, Note_on_c, 9, 57, 103
2, 17758, Note_on_c, 9, 36, 100
2, 17877, Note_on_c, 9, 36, 0
2, 17877, Note_on_c, 9, 57, 0
2, 17882, Note_on_c, 9, 49, 103
2, 17882, Note_on_c, 9, 38, 100
2, 17937, Note_on_c, 9, 38, 0
2, 17941, Note_on_c, 9, 36, 99
2, 17997, Note_on_c, 9, 36, 0
2, 17997, Note_on_c, 9, 49, 0
2, 17998, Note_on_c, 9, 51, 102
2, 18057, Note_on_c, 9, 51, 0
2, 18058, Note_on_c, 9, 36, 103
2, 18059, Note_on_c, 9, 51, 100
2, 18117, Note_on_c, 9, 51, 0
2, 18117, Note_on_c, 9, 36, 0
2, 18118, Note_on_c, 9, 51, 100
2, 18121, Note_on_c, 9, 38, 102
2, 18236, Note_on_c, 9, 38, 0
2, 18237, Note_on_c, 9, 51, 0
2, 18240, Note_on_c, 9, 36, 99
2, 18242, Note_on_c, 9, 51, 100
2, 18297, Note_on_c, 9, 36, 0
2, 18300, Note_on_c, 9, 36, 101
2, 18357, Note_on_c, 9, 36, 0
2, 18357, Note_on_c, 9, 51, 0
2, 18359, Note_on_c, 9, 38, 102
2, 18360, Note_on_c, 9, 51, 102
2, 18417, Note_on_c, 9, 38, 0
2, 18420, Note_on_c, 9, 36, 102
2, 18477, Note_on_c, 9, 36, 0
2, 18477, Note_on_c, 9, 51, 0
2, 18480, Note_on_c, 9, 51, 100
2, 18537, Note_on_c, 9, 51, 0
2, 18538, Note_on_c, 9, 51, 102
2, 18539, Note_on_c, 9, 36, 101
2, 18597, Note_on_c, 9, 36, 0
2, 18597, Note_on_c, 9, 51, 0
2, 18599, Note_on_c, 9, 38, 99
2, 18601, Note_on_c, 9, 51, 100
2, 18657, Note_on_c, 9, 38, 0
2, 18662, Note_on_c, 9, 36, 98
2, 18717, Note_on_c, 9, 36, 0
2, 18717, Note_on_c, 9, 51, 0
2, 18722, Note_on_c, 9, 51, 103
2, 18722, Note_on_c, 9, 36, 102
2, 18777, Note_on_c, 9, 36, 0
2, 18781, Note_on_c, 9, 36, 100
2, 18837, Note_on_c, 9, 36, 0
2, 18837, Note_on_c, 9, 51, 0
2, 18839, Note_on_c, 9, 51, 99
2, 18842, Note_on_c, 9, 38, 99
2, 18897, Note_on_c, 9, 38, 0
2, 18898, Note_on_c, 9, 36, 99
2, 18957, Note_on_c, 9, 36, 0
2, 18957, Note_on_c, 9, 51, 0
2, 18958, Note_on_c, 9, 51, 98
2, 19017, Note_on_c, 9, 51, 0
2, 19020, Note_on_c, 9, 36, 103
2, 19021, Note_on_c, 9, 51, 99
2, 19077, Note_on_c, 9, 51, 0
2, 19077, Note_on_c, 9, 36, 0
2, 19081, Note_on_c, 9, 51, 100
2, 19082, Note_on_c, 9, 38, 98
2, 19137, Note_on_c, 9, 38, 0
2, 19138, Note_on_c, 9, 36, 103
2, 19197, Note_on_c, 9, 36, 0
2, 19197, Note_on_c, 9, 51, 0
2, 19199, Note_on_c, 9, 36, 102
2, 19201, Note_on_c, 9, 51, 99
2, 19202, Note_on_c, 9, 36, 101
2, 19257, Note_on_c, 9, 36, 0
2, 19258, Note_on_c, 9, 36, 100
2, 19317, Note_on_c, 9, 36, 0
2, 19317, Note_on_c, 9, 36, 0
2, 19317, Note_on_c, 9, 51, 0
2, 19319, Note_on_c, 9, 38, 102
2, 19320, Note_on_c, 9, 51, 100
2, 19377, Note_on_c, 9, 38, 0
2, 19379, Note_on_c, 9, 36, 101
2, 19437, Note_on_c, 9, 36, 0
2, 19437, Note_on_c, 9, 51, 0
2, 19442, Note_on_c, 9, 51, 102
2, 19497, Note_on_c, 9, 51, 0
2, 19500, Note_on_c, 9, 51, 99
2, 19501, Note_on_c, 9, 36, 99
2, 19557, Note_on_c, 9, 36, 0
2, 19557, Note_on_c, 9, 51, 0
2, 19558, Note_on_c, 9, 51, 103
2, 19560, Note_on_c, 9, 38, 102
2, 19617, Note_on_c, 9, 38, 0
2, 19619, Note_on_c, 9, 36, 99
2, 19677, Note_on_c, 9, 36, 0
2, 19677, Note_on_c, 9, 51, 0
2, 19680, Note_on_c, 9, 57, 103
2, 19681, Note_on_c, 9, 36, 98
2, 19737, Note_on_c, 9, 36, 0
2, 19740, Note_on_c, 9, 36, 102
2, 19797, Note_on_c, 9, 36, 0
2, 19797, Note_on_c, 9, 57, 0
2, 19799, Note_on_c, 9, 51, 98
2, 19801, Note_on_c, 9, 38, 98
2, 19857, Note_on_c, 9, 38, 0
2, 19860, Note_on_c, 9, 36, 98
2, 19917, Note_on_c, 9, 36, 0
2, 19917, Note_on_c, 9, 51, 0
2, 19921, Note_on_c, 9, 51, 101
2, 19977, Note_on_c, 9, 51, 0
2, 19978, Note_on_c, 9, 36, 101
2, 19979, Note_on_c, 9, 51, 101
2, 20037, Note_on_c, 9, 51, 0
2, 20037, Note_on_c, 9, 36, 0
2, 20038, Note_on_c, 9, 38, 99
2, 20041, Note_on_c, 9, 51, 98
2, 20097, Note_on_c, 9, 38, 0
2, 20101, Note_on_c, 9, 36, 99
2, 20157, Note_on_c, 9, 36, 0
2, 20157, Note_on_c, 9, 51, 0
2, 20160, Note_on_c, 9, 36, 98
2, 20162, Note_on_c, 9, 51, 99
2, 20217, Note_on_c, 9, 36, 0
2, 20221, Note_on_c, 9, 36, 99
2, 20277, Note_on_c, 9, 36, 0
2, 20277, Note_on_c, 9, 51, 0
2, 20279, Note_on_c, 9, 38, 102
2, 20280, Note_on_c, 9, 51, 101
2, 20337, Note_on_c, 9, 38, 0
2, 20341, Note_on_c, 9, 36, 98
2, 20397, Note_on_c, 9, 36, 0
2, 20397, Note_on_c, 9, 51, 0
2, 20400, Note_on_c, 9, 51, 99
2, 20457, Note_on_c, 9, 51, 0
2, 20459, Note_on_c, 9, 51, 98
2, 20462, Note_on_c, 9, 36, 99
2, 20517, Note_on_c, 9, 36, 0
2, 20517, Note_on_c, 9, 51, 0
2, 20518, Note_on_c, 9, 38, 101
2, 20521, Note_on_c, 9, 51, 99
2, 20577, Note_on_c, 9, 38, 0
2, 20579, Note_on_c, 9, 36, 101
2, 20637, Note_on_c, 9, 36, 0
2, 20637, Note_on_c, 9, 51, 0
2, 20638, Note_on_c, 9, 51, 98
2, 20641, Note_on_c, 9, 36, 100
2, 20697, Note_on_c, 9, 36, 0
2, 20702, Note_on_c, 9, 36, 98
2, 20757, Note_on_c, 9, 36, 0
2, 20757, Note_on_c, 9, 51, 0
2, 20758, Note_on_c, 9, 38, 99
2, 20761, Note_on_c, 9, 51, 102
2, 20817, Note_on_c, 9, 38, 0
2, 20819, Note_on_c, 9, 36, 101
2, 20877, Note_on_c, 9, 36, 0
2, 20877, Note_on_c, 9, 51, 0
2, 20878, Note_on_c, 9, 51, 99
2, 20937, Note_on_c, 9, 51, 0
2, 20938, Note_on_c, 9, 36, 103
2, 20941, Note_on_c, 9, 51, 103
2, 20997, Note_on_c, 9, 51, 0
2, 20997, Note_on_c, 9, 36, 0
2, 21002, Note_on_c, 9, 51, 98
2, 21002, Note_on_c, 9, 38, 99
2, 21057, Note_on_c, 9, 38, 0
2, 21060, Note_on_c, 9, 36, 102
2, 21117, Note_on_c, 9, 36, 0
2, 21117, Note_on_c, 9, 51, 0
2, 21121, Note_on_c, 9, 51, 100
2, 21122, Note_on_c, 9, 36, 99
2, 21177, Note_on_c, 9, 36, 0
2, 21178, Note_on_c, 9, 36, 100
2, 21237, Note_on_c, 9, 36, 0
2, 21237, Note_on_c, 9, 51, 0
2, 21238, Note_on_c, 9, 51, 101
2, 21241, Note_on_c, 9, 38, 102
2, 21297, Note_on_c, 9, 38, 0
2, 21301, Note_on_c, 9, 36, 101
2, 21357, Note_on_c, 9, 36, 0
2, 21357, Note_on_c, 9, 51, 0
2, 21359, Note_on_c, 9, 51, 98
2, 21417, Note_on_c, 9, 51, 0
2, 21418, Note_on_c, 9, 51, 102
2, 21418, Note_on_c, 9, 36, 101
2, 21477, Note_on_c, 9, 36, 0
2, 21477, Note_on_c, 9, 51, 0
2, 21479, Note_on_c, 9, 38, 98
2, 21481, Note_on_c, 9, 51, 101
2, 21537, Note_on_c, 9, 38, 0
2, 21539, Note_on_c, 9, 36, 103
2, 21597, Note_on_c, 9, 36, 0
2, 21597, Note_on_c, 9, 51, 0
2, 21599, Note_on_c, 9, 57, 102
2, 21601, Note_on_c, 9, 36, 100
2, 21717, Note_on_c, 9, 36, 0
2, 21717, Note_on_c, 9, 57, 0
2, 21722, Note_on_c, 9, 42, 100
2, 21837, Note_on_c, 9, 42, 0
2, 21842, Note_on_c, 9, 42, 103
2, 21897, Note_on_c, 9, 42, 0
2, 21900, Note_on_c, 9, 42, 101
2, 21957, Note_on_c, 9, 42, 0
2, 21961, Note_on_c, 9, 42, 100
2, 22076, Note_on_c, 9, 42, 0
2, 22081, Note_on_c, 9, 42, 103
2, 22137, Note_on_c, 9, 42, 0
2, 22142, Note_on_c, 9, 42, 81
2, 22197, Note_on_c, 9, 42, 0
2, 22198, Note_on_c, 9, 42, 98
2, 22257, Note_on_c, 9, 42, 0
2, 22261, Note_on_c, 9, 42, 81
2, 22317, Note_on_c, 9, 42, 0
2, 22320, Note_on_c, 9, 42, 98
2, 22377, Note_on_c, 9, 42, 0
2, 22379, Note_on_c, 9, 42, 79
2, 22437, Note_on_c, 9, 42, 0
2, 22438, Note_on_c, 9, 42, 101
2, 22497, Note_on_c, 9, 42, 0
2, 22502, Note_on_c, 9, 42, 82
2, 22557, Note_on_c, 9, 42, 0
2, 22558, Note_on_c, 9, 36, 100
2, 22560, Note_on_c, 9, 57, 103
2, 22617, Note_on_c, 9, 57, 0
2, 22620, Note_on_c, 9, 42, 58
2, 22677, Note_on_c, 9, 42, 0
2, 22677, Note_on_c, 9, 36, 0
2, 22679, Note_on_c, 9, 42, 100
2, 22737, Note_on_c, 9, 42, 0
2, 22740, Note_on_c, 9, 42, 56
2, 22797, Note_on_c, 9, 42, 0
2, 22799, Note_on_c, 9, 42, 100
2, 22857, Note_on_c, 9, 42, 0
2, 22859, Note_on_c, 9, 42, 57
2, 22917, Note_on_c, 9, 42, 0
2, 22918, Note_on_c, 9, 42, 100
2, 22977, Note_on_c, 9, 42, 0
2, 22978, Note_on_c, 9, 42, 57
2, 22982, Note_on_c, 9, 36, 101
2, 23037, Note_on_c, 9, 36, 0
2, 23037, Note_on_c, 9, 42, 0
2, 23039, Note_on_c, 9, 36, 100
2, 23041, Note_on_c, 9, 42, 103
2, 23097, Note_on_c, 9, 42, 0
2, 23102, Note_on_c, 9, 42, 55
2, 23157, Note_on_c, 9, 42, 0
2, 23157, Note_on_c, 9, 36, 0
2, 23161, Note_on_c, 9, 42, 98
2, 23217, Note_on_c, 9, 42, 0
2, 23221, Note_on_c, 9, 42, 54
2, 23277, Note_on_c, 9, 42, 0
2, 23281, Note_on_c, 9, 42, 98
2, 23337, Note_on_c, 9, 42, 0
2, 23339, Note_on_c, 9, 42, 55
2, 23397, Note_on_c, 9, 42, 0
2, 23402, Note_on_c, 9, 42, 99
2, 23457, Note_on_c, 9, 42, 0
2, 23459, Note_on_c, 9, 36, 100
2, 23462, Note_on_c, 9, 42, 58
2, 23517, Note_on_c, 9, 42, 0
2, 23517, Note_on_c, 9, 36, 0
2, 23519, Note_on_c, 9, 36, 100
2, 23519, Note_on_c, 9, 42, 98
2, 23577, Note_on_c, 9, 42, 0
2, 23580, Note_on_c, 9, 42, 57
2, 23637, Note_on_c, 9, 42, 0
2, 23637, Note_on_c, 9, 36, 0
2, 23642, Note_on_c, 9, 42, 103
2, 23697, Note_on_c, 9, 42, 0
2, 23698, Note_on_c, 9, 42, 58
2, 23757, Note_on_c, 9, 42, 0
2, 23758, Note_on_c, 9, 42, 99
2, 23817, Note_on_c, 9, 42, 0
2, 23820, Note_on_c, 9, 42, 59
2, 23877, Note_on_c, 9, 42, 0
2, 23880, Note_on_c, 9, 42, 99
2, 23937, Note_on_c, 9, 42, 0
2, 23938, Note_on_c, 9, 36, 98
2, 23939, Note_on_c, 9, 42, 57
2, 23997, Note_on_c, 9, 42, 0
2, 23997, Note_on_c, 9, 36, 0
2, 23999, Note_on_c, 9, 42, 98
2, 24002, Note_on_c, 9, 36, 103
2, 24057, Note_on_c, 9, 42, 0
2, 24058, Note_on_c, 9, 42, 57
2, 24117, Note_on_c, 9, 42, 0
2, 24117, Note_on_c, 9, 36, 0
2, 24118, Note_on_c, 9, 42, 100
2, 24177, Note_on_c, 9, 42, 0
2, 24182, Note_on_c, 9, 42, 54
2, 24237, Note_on_c, 9, 42, 0
2, 24238, Note_on_c, 9, 42, 99
2, 24297, Note_on_c, 9, 42, 0
2, 24298, Note_on_c, 9, 36, 103
2, 24298, Note_on_c, 9, 42, 57
2, 24357, Note_on_c, 9, 42, 0
2, 24357, Note_on_c, 9, 36, 0
2, 24359, Note_on_c, 9, 42, 98
2, 24417, Note_on_c, 9, 42, 0
2, 24419, Note_on_c, 9, 42, 54
2, 24422, Note_on_c, 9, 36, 101
2, 24477, Note_on_c, 9, 36, 0
2, 24477, Note_on_c, 9, 42, 0
2, 24480, Note_on_c, 9, 36, 103
2, 24482, Note_on_c, 9, 42, 101
2, 24537, Note_on_c, 9, 42, 0
2, 24542, Note_on_c, 9, 42, 55
2, 24597, Note_on_c, 9, 42, 0
2, 24597, Note_on_c, 9, 36, 0
2, 24600, Note_on_c, 9, 42, 100
2, 24657, Note_on_c, 9, 42, 0
2, 24662, Note_on_c, 9, 42, 59
2, 24717, Note_on_c, 9, 42, 0
2, 24721, Note_on_c, 9, 42, 98
2, 24777, Note_on_c, 9, 42, 0
2, 24779, Note_on_c, 9, 42, 56
2, 24837, Note_on_c, 9, 42, 0
2, 24839, Note_on_c, 9, 42, 101
2, 24897, Note_on_c, 9, 42, 0
2, 24898, Note_on_c, 9, 36, 100
2, 24900, Note_on_c, 9, 42, 55
2, 24957, Note_on_c, 9, 42, 0
2, 24957, Note_on_c, 9, 36, 0
2, 24959, Note_on_c, 9, 42, 101
2, 24962, Note_on_c, 9, 36, 99
2, 25017, Note_on_c, 9, 42, 0
2, 25019, Note_on_c, 9, 42, 55
2, 25077, Note_on_c, 9, 42, 0
2, 25077, Note_on_c, 9, 36, 0
2, 25080, Note_on_c, 9, 42, 101
2, 25137, Note_on_c, 9, 42, 0
2, 25139, Note_on_c, 9, 42, 59
2, 25197, Note_on_c, 9, 42, 0
2, 25201, Note_on_c, 9, 42, 100
2, 25257, Note_on_c, 9, 42, 0
2, 25260, Note_on_c, 9, 42, 55
2, 25262, Note_on_c, 9, 36, 102
2, 25317, Note_on_c, 9, 36, 0
2, 25317, Note_on_c, 9, 42, 0
2, 25322, Note_on_c, 9, 42, 100
2, 25377, Note_on_c, 9, 42, 0
2, 25378, Note_on_c, 9, 36, 101
2, 25382, Note_on_c, 9, 42, 56
2, 25437, Note_on_c, 9, 42, 0
2, 25437, Note_on_c, 9, 36, 0
2, 25441, Note_on_c, 9, 36, 103
2, 25441, Note_on_c, 9, 42, 98
2, 25497, Note_on_c, 9, 42, 0
2, 25500, Note_on_c, 9, 42, 57
2, 25557, Note_on_c, 9, 42, 0
2, 25557, Note_on_c, 9, 36, 0
2, 25558, Note_on_c, 9, 42, 98
2, 25617, Note_on_c, 9, 42, 0
2, 25619, Note_on_c, 9, 42, 55
2, 25677, Note_on_c, 9, 42, 0
2, 25679, Note_on_c, 9, 42, 98
2, 25737, Note_on_c, 9, 42, 0
2, 25738, Note_on_c, 9, 42, 54
2, 25797, Note_on_c, 9, 42, 0
2, 25800, Note_on_c, 9, 42, 102
2, 25857, Note_on_c, 9, 42, 0
2, 25858, Note_on_c, 9, 36, 102
2, 25861, Note_on_c, 9, 42, 56
2, 25917, Note_on_c, 9, 42, 0
2, 25917, Note_on_c, 9, 36, 0
2, 25918, Note_on_c, 9, 36, 100
2, 25922, Note_on_c, 9, 46, 101
2, 26037, Note_on_c, 9, 46, 0
2, 26037, Note_on_c, 9, 36, 0
2, 26041, Note_on_c, 9, 38, 40
2, 26042, Note_on_c, 9, 36, 41
2, 26097, Note_on_c, 9, 36, 0
2, 26097, Note_on_c, 9, 38, 0
2, 26101, Note_on_c, 9, 38, 43
2, 26102, Note_on_c, 9, 36, 47
2, 26157, Note_on_c, 9, 36, 0
2, 26157, Note_on_c, 9, 38, 0
2, 26160, Note_on_c, 9, 38, 50
2, 26161, Note_on_c, 9, 36, 53
2, 26217, Note_on_c, 9, 36, 0
2, 26217, Note_on_c, 9, 38, 0
2, 26218, Note_on_c, 9, 36, 56
2, 26221, Note_on_c, 9, 38, 58
2, 26277, Note_on_c, 9, 38, 0
2, 26277, Note_on_c, 9, 36, 0
2, 26281, Note_on_c, 9, 38, 60
2, 26281, Note_on_c, 9, 36, 62
2, 26337, Note_on_c, 9, 36, 0
2, 26337, Note_on_c, 9, 38, 0
2, 26338, Note_on_c, 9, 38, 66
2, 26342, Note_on_c, 9, 36, 65
2, 26397, Note_on_c, 9, 36, 0
2, 26397, Note_on_c, 9, 38, 0
2, 26398, Note_on_c, 9, 57, 72
2, 26401, Note_on_c, 9, 38, 73
2, 26401, Note_on_c, 9, 36, 68
2, 26457, Note_on_c, 9, 36, 0
2, 26457, Note_on_c, 9, 38, 0
2, 26457, Note_on_c, 9, 57, 0
2, 26458, Note_on_c, 9, 57, 77
2, 26460, Note_on_c, 9, 38, 75
2, 26462, Note_on_c, 9, 36, 74
2, 26517, Note_on_c, 9, 36, 0
2, 26517, Note_on_c, 9, 38, 0
2, 26517, Note_on_c, 9, 57, 0
2, 26518, Note_on_c, 9, 38, 82
2, 26519, Note_on_c, 9, 57, 82
2, 26522, Note_on_c, 9, 36, 79
2, 26577, Note_on_c, 9, 36, 0
2, 26577, Note_on_c, 9, 57, 0
2, 26577, Note_on_c, 9, 38, 0
2, 26579, Note_on_c, 9, 57, 86
2, 26581, Note_on_c, 9, 36, 84
2, 26582, Note_on_c, 9, 38, 83
2, 26637, Note_on_c, 9, 38, 0
2, 26637, Note_on_c, 9, 36, 0
2, 26637, Note_on_c, 9, 57, 0
2, 26639, Note_on_c, 9, 38, 92
2, 26639, Note_on_c, 9, 57, 90
2, 26641, Note_on_c, 9, 36, 89
2, 26697, Note_on_c, 9, 36, 0
2, 26697, Note_on_c, 9, 57, 0
2, 26697, Note_on_c, 9, 38, 0
2, 26698, Note_on_c, 9, 57, 94
2, 26699, Note_on_c, 9, 38, 96
2, 26700, Note_on_c, 9, 36, 94
2, 26757, Note_on_c, 9, 36, 0
2, 26757, Note_on_c, 9, 38, 0
2, 26757, Note_on_c, 9, 57, 0
2, 26758, Note_on_c, 9, 36, 99
2, 26762, Note_on_c, 9, 38, 99
2, 26762, Note_on_c, 9, 57, 101
2, 26877, Note_on_c, 9, 57, 0
2, 26877, Note_on_c, 9, 38, 0
2, 26877, Note_on_c, 9, 36, 0
2, 26878, Note_on_c, 9, 36, 102
2, 26880, Note_on_c, 9, 57, 102
2, 26997, Note_on_c, 9, 57, 0
2, 26997, Note_on_c, 9, 36, 0
2, 26998, Note_on_c, 9, 38, 101
2, 27001, Note_on_c, 9, 49, 98
2, 27057, Note_on_c, 9, 38, 0
2, 27062, Note_on_c, 9, 36, 99
2, 27117, Note_on_c, 9, 36, 0
2, 27117, Note_on_c, 9, 49, 0
2, 27121, Note_on_c, 9, 42, 103
2, 27237, Note_on_c, 9, 42, 0
2, 27239, Note_on_c, 9, 38, 99
2, 27242, Note_on_c, 9, 42, 99
2, 27357, Note_on_c, 9, 42, 0
2, 27357, Note_on_c, 9, 38, 0
2, 27358, Note_on_c, 9, 42, 98
2, 27360, Note_on_c, 9, 36, 100
2, 27477, Note_on_c, 9, 36, 0
2, 27477, Note_on_c, 9, 42, 0
2, 27478, Note_on_c, 9, 38, 99
2, 27481, Note_on_c, 9, 42, 103
2, 27537, Note_on_c, 9, 38, 0
2, 27540, Note_on_c, 9, 36, 99
2, 27597, Note_on_c, 9, 36, 0
2, 27597, Note_on_c, 9, 42, 0
2, 27599, Note_on_c, 9, 42, 99
2, 27662, Note_on_c, 9, 36, 101
2, 27717, Note_on_c, 9, 36, 0
2, 27717, Note_on_c, 9, 42, 0
2, 27718, Note_on_c, 9, 42, 102
2, 27719, Note_on_c, 9, 38, 101
2, 27776, Note_on_c, 9, 38, 0
2, 27778, Note_on_c, 9, 36, 99
2, 27837, Note_on_c, 9, 36, 0
2, 27837, Note_on_c, 9, 42, 0
2, 27838, Note_on_c, 9, 36, 102
2, 27839, Note_on_c, 9, 57, 100
2, 27957, Note_on_c, 9, 57, 0
2, 27957, Note_on_c, 9, 36, 0
2, 27961, Note_on_c, 9, 42, 102
2, 27962, Note_on_c, 9, 38, 98
2, 28017, Note_on_c, 9, 38, 0
2, 28022, Note_on_c, 9, 36, 102
2, 28077, Note_on_c, 9, 36, 0
2, 28077, Note_on_c, 9, 42, 0
2, 28078, Note_on_c, 9, 42, 101
2, 28197, Note_on_c, 9, 42, 0
2, 28201, Note_on_c, 9, 42, 98
2, 28201, Note_on_c, 9, 38, 102
2, 28317, Note_on_c, 9, 38, 0
2, 28317, Note_on_c, 9, 42, 0
2, 28321, Note_on_c, 9, 36, 100
2, 28322, Note_on_c, 9, 42, 101
2, 28437, Note_on_c, 9, 42, 0
2, 28437, Note_on_c, 9, 36, 0
2, 28440, Note_on_c, 9, 42, 103
2, 28442, Note_on_c, 9, 38, 101
2, 28497, Note_on_c, 9, 38, 0
2, 28501, Note_on_c, 9, 36, 100
2, 28557, Note_on_c, 9, 36, 0
2, 28557, Note_on_c, 9, 42, 0
2, 28558, Note_on_c, 9, 42, 98
2, 28621, Note_on_c, 9, 36, 102
2, 28677, Note_on_c, 9, 36, 0
2, 28677, Note_on_c, 9, 42, 0
2, 28680, Note_on_c, 9, 42, 101
2, 28680, Note_on_c, 9, 38, 100
2, 28736, Note_on_c, 9, 38, 0
2, 28742, Note_on_c, 9, 36, 101
2, 28797, Note_on_c, 9, 36, 0
2, 28797, Note_on_c, 9, 42, 0
2, 28800, Note_on_c, 9, 36, 102
2, 28800, Note_on_c, 9, 42, 98
2, 28917, Note_on_c, 9, 42, 0
2, 28917, Note_on_c, 9, 36, 0
2, 28919, Note_on_c, 9, 38, 98
2, 28920, Note_on_c, 9, 42, 101
2, 28977, Note_on_c, 9, 38, 0
2, 28979, Note_on_c, 9, 36, 102
2, 29037, Note_on_c, 9, 36, 0
2, 29037, Note_on_c, 9, 42, 0
2, 29039, Note_on_c, 9, 42, 99
2, 29157, Note_on_c, 9, 42, 0
2, 29158, Note_on_c, 9, 38, 102
2, 29161, Note_on_c, 9, 42, 103
2, 29217, Note_on_c, 9, 38, 0
2, 29218, Note_on_c, 9, 36, 102
2, 29277, Note_on_c, 9, 36, 0
2, 29277, Note_on_c, 9, 42, 0
2, 29278, Note_on_c, 9, 36, 99
2, 29279, Note_on_c, 9, 42, 101
2, 29397, Note_on_c, 9, 42, 0
2, 29397, Note_on_c, 9, 36, 0
2, 29398, Note_on_c, 9, 42, 100
2, 29400, Note_on_c, 9, 38, 98
2, 29457, Note_on_c, 9, 38, 0
2, 29458, Note_on_c, 9, 36, 100
2, 29517, Note_on_c, 9, 36, 0
2, 29517, Note_on_c, 9, 42, 0
2, 29518, Note_on_c, 9, 42, 98
2, 29637, Note_on_c, 9, 42, 0
2, 29640, Note_on_c, 9, 42, 102
2, 29641, Note_on_c, 9, 38, 98
2, 29697, Note_on_c, 9, 38, 0
2, 29701, Note_on_c, 9, 36, 102
2, 29757, Note_on_c, 9, 36, 0
2, 29757, Note_on_c, 9, 42, 0
2, 29760, Note_on_c, 9, 42, 102
2, 29761, Note_on_c, 9, 36, 102
2, 29877, Note_on_c, 9, 36, 0
2, 29877, Note_on_c, 9, 42, 0
2, 29879, Note_on_c, 9, 42, 103
2, 29881, Note_on_c, 9, 38, 102
2, 29937, Note_on_c, 9, 38, 0
2, 29942, Note_on_c, 9, 36, 101
2, 29997, Note_on_c, 9, 36, 0
2, 29997, Note_on_c, 9, 42, 0
2, 30000, Note_on_c, 9, 42, 99
2, 30058, Note_on_c, 9, 36, 98
2, 30117, Note_on_c, 9, 36, 0
2, 30117, Note_on_c, 9, 42, 0
2, 30122, Note_on_c, 9, 38, 99
2, 30122, Note_on_c, 9, 42, 102
2, 30177, Note_on_c, 9, 38, 0
2, 30179, Note_on_c, 9, 36, 103
2, 30237, Note_on_c, 9, 36, 0
2, 30237, Note_on_c, 9, 42, 0
2, 30238, Note_on_c, 9, 36, 100
2, 30242, Note_on_c, 9, 42, 99
2, 30296, Note_on_c, 9, 36, 0
2, 30302, Note_on_c, 9, 36, 102
2, 30357, Note_on_c, 9, 36, 0
2, 30357, Note_on_c, 9, 42, 0
2, 30360, Note_on_c, 9, 46, 101
2, 30360, Note_on_c, 9, 38, 100
2, 30417, Note_on_c, 9, 38, 0
2, 30421, Note_on_c, 9, 36, 100
2, 30477, Note_on_c, 9, 36, 0
2, 30477, Note_on_c, 9, 46, 0
2, 30481, Note_on_c, 9, 38, 103
2, 30507, Note_on_c, 9, 38, 0
2, 30508, Note_on_c, 9, 38, 100
2, 30537, Note_on_c, 9, 38, 0
2, 30539, Note_on_c, 9, 38, 103
2, 30597, Note_on_c, 9, 38, 0
2, 30599, Note_on_c, 9, 38, 99
2, 30657, Note_on_c, 9, 38, 0
2, 30660, Note_on_c, 9, 38, 101
2, 30687, Note_on_c, 9, 38, 0
2, 30692, Note_on_c, 9, 38, 101
2, 30717, Note_on_c, 9, 38, 0
2, 30721, Note_on_c, 9, 57, 98
2, 30721, Note_on_c, 9, 36, 103
2, 30837, Note_on_c, 9, 36, 0
2, 30837, Note_on_c, 9, 57, 0
2, 30839, Note_on_c, 9, 38, 100
2, 30842, Note_on_c, 9, 49, 101
2, 30897, Note_on_c, 9, 38, 0
2, 30899, Note_on_c, 9, 36, 98
2, 30957, Note_on_c, 9, 36, 0
2, 30957, Note_on_c, 9, 49, 0
2, 30962, Note_on_c, 9, 51, 101
2, 31017, Note_on_c, 9, 51, 0
2, 31019, Note_on_c, 9, 51, 102
2, 31019, Note_on_c, 9, 36, 98
2, 31077, Note_on_c, 9, 36, 0
2, 31077, Note_on_c, 9, 51, 0
2, 31079, Note_on_c, 9, 38, 101
2, 31080, Note_on_c, 9, 51, 99
2, 31196, Note_on_c, 9, 38, 0
2, 31197, Note_on_c, 9, 51, 0
2, 31201, Note_on_c, 9, 51, 99
2, 31201, Note_on_c, 9, 36, 102
2, 31257, Note_on_c, 9, 36, 0
2, 31261, Note_on_c, 9, 36, 103
2, 31317, Note_on_c, 9, 36, 0
2, 31317, Note_on_c, 9, 51, 0
2, 31318, Note_on_c, 9, 38, 102
2, 31321, Note_on_c, 9, 51, 103
2, 31377, Note_on_c, 9, 38, 0
2, 31379, Note_on_c, 9, 36, 101
2, 31437, Note_on_c, 9, 36, 0
2, 31437, Note_on_c, 9, 51, 0
2, 31439, Note_on_c, 9, 51, 103
2, 31497, Note_on_c, 9, 51, 0
2, 31501, Note_on_c, 9, 51, 103
2, 31502, Note_on_c, 9, 36, 101
2, 31557, Note_on_c, 9, 36, 0
2, 31557, Note_on_c, 9, 51, 0
2, 31559, Note_on_c, 9, 51, 102
2, 31560, Note_on_c, 9, 38, 102
2, 31617, Note_on_c, 9, 38, 0
2, 31618, Note_on_c, 9, 36, 98
2, 31677, Note_on_c, 9, 36, 0
2, 31677, Note_on_c, 9, 51, 0
2, 31679, Note_on_c, 9, 36, 102
2, 31682, Note_on_c, 9, 51, 98
2, 31737, Note_on_c, 9, 36, 0
2, 31740, Note_on_c, 9, 36, 100
2, 31797, Note_on_c, 9, 36, 0
2, 31797, Note_on_c, 9, 51, 0
2, 31800, Note_on_c, 9, 38, 101
2, 31801, Note_on_c, 9, 51, 102
2, 31857, Note_on_c, 9, 38, 0
2, 31861, Note_on_c, 9, 36, 102
2, 31917, Note_on_c, 9, 36, 0
2, 31917, Note_on_c, 9, 51, 0
2, 31918, Note_on_c, 9, 51, 103
2, 31977, Note_on_c, 9, 51, 0
2, 31978, Note_on_c, 9, 51, 98
2, 31978, Note_on_c, 9, 36, 100
2, 32037, Note_on_c, 9, 36, 0
2, 32037, Note_on_c, 9, 51, 0
2, 32038, Note_on_c, 9, 51, 101
2, 32039, Note_on_c, 9, 38, 100
2, 32097, Note_on_c, 9, 38, 0
2, 32099, Note_on_c, 9, 36, 100
2, 32157, Note_on_c, 9, 36, 0
2, 32157, Note_on_c, 9, 51, 0
2, 32158, Note_on_c, 9, 36, 102
2, 32159, Note_on_c, 9, 51, 101
2, 32161, Note_on_c, 9, 36, 100
2, 32217, Note_on_c, 9, 36, 0
2, 32218, Note_on_c, 9, 36, 101
2, 32277, Note_on_c, 9, 36, 0
2, 32277, Note_on_c, 9, 36, 0
2, 32277, Note_on_c, 9, 51, 0
2, 32281, Note_on_c, 9, 51, 100
2, 32281, Note_on_c, 9, 38, 102
2, 32337, Note_on_c, 9, 38, 0
2, 32338, Note_on_c, 9, 36, 98
2, 32397, Note_on_c, 9, 36, 0
2, 32397, Note_on_c, 9, 51, 0
2, 32401, Note_on_c, 9, 51, 98
2, 32457, Note_on_c, 9, 51, 0
2, 32461, Note_on_c, 9, 51, 103
2, 32461, Note_on_c, 9, 36, 98
2, 32517, Note_on_c, 9, 36, 0
2, 32517, Note_on_c, 9, 51, 0
2, 32518, Note_on_c, 9, 38, 100
2, 32520, Note_on_c, 9, 51, 98
2, 32577, Note_on_c, 9, 38, 0
2, 32580, Note_on_c, 9, 36, 100
2, 32637, Note_on_c, 9, 36, 0
2, 32637, Note_on_c, 9, 51, 0
2, 32638, Note_on_c, 9, 36, 100
2, 32642, Note_on_c, 9, 57, 99
2, 32697, Note_on_c, 9, 36, 0
2, 32700, Note_on_c, 9, 36, 100
2, 32757, Note_on_c, 9, 36, 0
2, 32757, Note_on_c, 9, 57, 0
2, 32761, Note_on_c, 9, 38, 99
2, 32762, Note_on_c, 9, 51, 99
2, 32817, Note_on_c, 9, 38, 0
2, 32820, Note_on_c, 9, 36, 101
2, 32877, Note_on_c, 9, 36, 0
2, 32877, Note_on_c, 9, 51, 0
2, 32881, Note_on_c, 9, 51, 103
2, 32937, Note_on_c, 9, 51, 0
2, 32939, Note_on_c, 9, 36, 103
2, 32941, Note_on_c, 9, 51, 100
2, 32997, Note_on_c, 9, 51, 0
2, 32997, Note_on_c, 9, 36, 0
2, 32998, Note_on_c, 9, 38, 100
2, 32999, Note_on_c, 9, 51, 99
2, 33057, Note_on_c, 9, 38, 0
2, 33062, Note_on_c, 9, 36, 103
2, 33117, Note_on_c, 9, 36, 0
2, 33117, Note_on_c, 9, 51, 0
2, 33118, Note_on_c, 9, 36, 102
2, 33118, Note_on_c, 9, 51, 100
2, 33119, Note_on_c, 9, 36, 102
2, 33177, Note_on_c, 9, 36, 0
2, 33181, Note_on_c, 9, 36, 101
2, 33237, Note_on_c, 9, 36, 0
2, 33237, Note_on_c, 9, 36, 0
2, 33237, Note_on_c, 9, 51, 0
2, 33239, Note_on_c, 9, 51, 101
2, 33239, Note_on_c, 9, 38, 103
2, 33297, Note_on_c, 9, 38, 0
2, 33300, Note_on_c, 9, 36, 102
2, 33357, Note_on_c, 9, 36, 0
2, 33357, Note_on_c, 9, 51, 0
2, 33358, Note_on_c, 9, 51, 99
2, 33417, Note_on_c, 9, 51, 0
2, 33420, Note_on_c, 9, 51, 98
2, 33420, Note_on_c, 9, 36, 101
2, 33477, Note_on_c, 9, 36, 0
2, 33477, Note_on_c, 9, 51, 0
2, 33481, Note_on_c, 9, 51, 102
2, 33481, Note_on_c, 9, 38, 101
2, 33537, Note_on_c, 9, 38, 0
2, 33540, Note_on_c, 9, 36, 98
2, 33597, Note_on_c, 9, 36, 0
2, 33597, Note_on_c, 9, 51, 0
2, 33599, Note_on_c, 9, 51, 101
2, 33602, Note_on_c, 9, 36, 100
2, 33657, Note_on_c, 9, 36, 0
2, 33662, Note_on_c, 9, 36, 103
2, 33717, Note_on_c, 9, 36, 0
2, 33717, Note_on_c, 9, 51, 0
2, 33721, Note_on_c, 9, 51, 103
2, 33722, Note_on_c, 9, 38, 102
2, 33777, Note_on_c, 9, 38, 0
2, 33778, Note_on_c, 9, 36, 99
2, 33837, Note_on_c, 9, 36, 0
2, 33837, Note_on_c, 9, 51, 0
2, 33840, Note_on_c, 9, 51, 98
2, 33897, Note_on_c, 9, 51, 0
2, 33899, Note_on_c, 9, 36, 99
2, 33902, Note_on_c, 9, 51, 100
2, 33957, Note_on_c, 9, 51, 0
2, 33957, Note_on_c, 9, 36, 0
2, 33959, Note_on_c, 9, 51, 101
2, 33959, Note_on_c, 9, 38, 98
2, 34017, Note_on_c, 9, 38, 0
2, 34018, Note_on_c, 9, 36, 100
2, 34077, Note_on_c, 9, 36, 0
2, 34077, Note_on_c, 9, 51, 0
2, 34079, Note_on_c, 9, 36, 98
2, 34081, Note_on_c, 9, 51, 103
2, 34137, Note_on_c, 9, 36, 0
2, 34138, Note_on_c, 9, 36, 102
2, 34197, Note_on_c, 9, 36, 0
2, 34197, Note_on_c, 9, 51, 0
2, 34198, Note_on_c, 9, 51, 98
2, 34200, Note_on_c, 9, 38, 98
2, 34257, Note_on_c, 9, 38, 0
2, 34262, Note_on_c, 9, 36, 102
2, 34317, Note_on_c, 9, 36, 0
2, 34317, Note_on_c, 9, 51, 0
2, 34322, Note_on_c, 9, 51, 103
2, 34377, Note_on_c, 9, 51, 0
2, 34380, Note_on_c, 9, 51, 102
2, 34381, Note_on_c, 9, 36, 102
2, 34437, Note_on_c, 9, 36, 0
2, 34437, Note_on_c, 9, 51, 0
2, 34441, Note_on_c, 9, 51, 98
2, 34442, Note_on_c, 9, 38, 102
2, 34497, Note_on_c, 9, 38, 0
2, 34502, Note_on_c, 9, 36, 101
2, 34557, Note_on_c, 9, 36, 0
2, 34557, Note_on_c, 9, 51, 0
2, 34560, Note_on_c, 9, 36, 101
2, 34560, Note_on_c, 9, 57, 103
2, 34677, Note_on_c, 9, 57, 0
2, 34678, Note_on_c, 9, 42, 98
2, 34736, Note_on_c, 9, 36, 0
2, 34741, Note_on_c, 9, 36, 103
2, 34797, Note_on_c, 9, 36, 0
2, 34797, Note_on_c, 9, 42, 0
2, 34800, Note_on_c, 9, 36, 103
2, 34917, Note_on_c, 9, 36, 0
2, 34920, Note_on_c, 9, 42, 101
2, 35036, Note_on_c, 9, 42, 0
2, 35040, Note_on_c, 9, 36, 103
2, 35097, Note_on_c, 9, 36, 0
2, 35100, Note_on_c, 9, 36, 101
2, 35157, Note_on_c, 9, 36, 0
2, 35222, Note_on_c, 9, 36, 98
2, 35277, Note_on_c, 9, 36, 0
2, 35281, Note_on_c, 9, 36, 103
2, 35337, Note_on_c, 9, 36, 0
2, 35399, Note_on_c, 9, 42, 101
2, 35427, Note_on_c, 9, 42, 0
2, 35518, Note_on_c, 9, 57, 79
2, 35519, Note_on_c, 9, 36, 99
2, 35637, Note_on_c, 9, 57, 0
2, 35639, Note_on_c, 9, 42, 101
2, 35697, Note_on_c, 9, 42, 0
2, 35697, Note_on_c, 9, 36, 0
2, 35699, Note_on_c, 9, 42, 63
2, 35701, Note_on_c, 9, 36, 102
2, 35757, Note_on_c, 9, 36, 0
2, 35757, Note_on_c, 9, 42, 0
2, 35759, Note_on_c, 9, 42, 103
2, 35762, Note_on_c, 9, 36, 100
2, 35817, Note_on_c, 9, 36, 0
2, 35817, Note_on_c, 9, 42, 0
2, 35818, Note_on_c, 9, 42, 63
2, 35877, Note_on_c, 9, 42, 0
2, 35881, Note_on_c, 9, 42, 101
2, 35937, Note_on_c, 9, 42, 0
2, 35941, Note_on_c, 9, 42, 62
2, 35997, Note_on_c, 9, 42, 0
2, 35998, Note_on_c, 9, 42, 98
2, 36002, Note_on_c, 9, 36, 102
2, 36057, Note_on_c, 9, 42, 0
2, 36060, Note_on_c, 9, 42, 62
2, 36117, Note_on_c, 9, 42, 0
2, 36122, Note_on_c, 9, 42, 103
2, 36177, Note_on_c, 9, 42, 0
2, 36177, Note_on_c, 9, 36, 0
2, 36181, Note_on_c, 9, 36, 103
2, 36182, Note_on_c, 9, 42, 59
2, 36237, Note_on_c, 9, 42, 0
2, 36237, Note_on_c, 9, 36, 0
2, 36238, Note_on_c, 9, 36, 98
2, 36242, Note_on_c, 9, 42, 99
2, 36297, Note_on_c, 9, 42, 0
2, 36297, Note_on_c, 9, 36, 0
2, 36301, Note_on_c, 9, 42, 59
2, 36357, Note_on_c, 9, 42, 0
2, 36362, Note_on_c, 9, 42, 103
2, 36417, Note_on_c, 9, 42, 0
2, 36422, Note_on_c, 9, 42, 63
2, 36477, Note_on_c, 9, 42, 0
2, 36481, Note_on_c, 9, 42, 99
2, 36482, Note_on_c, 9, 36, 99
2, 36537, Note_on_c, 9, 42, 0
2, 36538, Note_on_c, 9, 42, 63
2, 36597, Note_on_c, 9, 42, 0
2, 36601, Note_on_c, 9, 42, 100
2, 36657, Note_on_c, 9, 42, 0
2, 36657, Note_on_c, 9, 36, 0
2, 36659, Note_on_c, 9, 36, 99
2, 36659, Note_on_c, 9, 42, 63
2, 36717, Note_on_c, 9, 42, 0
2, 36717, Note_on_c, 9, 36, 0
2, 36721, Note_on_c, 9, 36, 102
2, 36721, Note_on_c, 9, 42, 100
2, 36777, Note_on_c, 9, 42, 0
2, 36777, Note_on_c, 9, 36, 0
2, 36778, Note_on_c, 9, 42, 60
2, 36837, Note_on_c, 9, 42, 0
2, 36841, Note_on_c, 9, 42, 101
2, 36897, Note_on_c, 9, 42, 0
2, 36900, Note_on_c, 9, 42, 61
2, 36957, Note_on_c, 9, 42, 0
2, 36958, Note_on_c, 9, 36, 103
2, 36962, Note_on_c, 9, 42, 102
2, 37017, Note_on_c, 9, 42, 0
2, 37022, Note_on_c, 9, 42, 62
2, 37077, Note_on_c, 9, 42, 0
2, 37078, Note_on_c, 9, 42, 100
2, 37137, Note_on_c, 9, 42, 0
2, 37137, Note_on_c, 9, 36, 0
2, 37139, Note_on_c, 9, 36, 101
2, 37140, Note_on_c, 9, 42, 63
2, 37197, Note_on_c, 9, 42, 0
2, 37197, Note_on_c, 9, 36, 0
2, 37200, Note_on_c, 9, 36, 101
2, 37201, Note_on_c, 9, 42, 99
2, 37257, Note_on_c, 9, 42, 0
2, 37257, Note_on_c, 9, 36, 0
2, 37258, Note_on_c, 9, 42, 60
2, 37317, Note_on_c, 9, 42, 0
2, 37321, Note_on_c, 9, 38, 111
2, 37322, Note_on_c, 9, 42, 102
2, 37377, Note_on_c, 9, 42, 0
2, 37378, Note_on_c, 9, 42, 60
2, 37437, Note_on_c, 9, 42, 0
2, 37437, Note_on_c, 9, 38, 0
2, 37441, Note_on_c, 9, 46, 82
2, 37441, Note_on_c, 9, 36, 99
2, 37557, Note_on_c, 9, 36, 0
2, 37557, Note_on_c, 9, 46, 0
2, 37558, Note_on_c, 9, 46, 78
2, 37558, Note_on_c, 9, 38, 98
2, 37677, Note_on_c, 9, 38, 0
2, 37677, Note_on_c, 9, 46, 0
2, 37679, Note_on_c, 9, 46, 78
2, 37681, Note_on_c, 9, 36, 100
2, 37737, Note_on_c, 9, 36, 0
2, 37742, Note_on_c, 9, 36, 99
2, 37797, Note_on_c, 9, 36, 0
2, 37797, Note_on_c, 9, 46, 0
2, 37799, Note_on_c, 9, 38, 101
2, 37800, Note_on_c, 9, 46, 83
2, 37917, Note_on_c, 9, 46, 0
2, 37917, Note_on_c, 9, 38, 0
2, 37919, Note_on_c, 9, 36, 99
2, 37921, Note_on_c, 9, 46, 82
2, 38037, Note_on_c, 9, 46, 0
2, 38037, Note_on_c, 9, 36, 0
2, 38039, Note_on_c, 9, 38, 101
2, 38041, Note_on_c, 9, 46, 83
2, 38157, Note_on_c, 9, 46, 0
2, 38157, Note_on_c, 9, 38, 0
2, 38159, Note_on_c, 9, 46, 78
2, 38162, Note_on_c, 9, 36, 99
2, 38217, Note_on_c, 9, 36, 0
2, 38219, Note_on_c, 9, 36, 100
2, 38277, Note_on_c, 9, 36, 0
2, 38277, Note_on_c, 9, 46, 0
2, 38278, Note_on_c, 9, 46, 82
2, 38281, Note_on_c, 9, 38, 102
2, 38397, Note_on_c, 9, 38, 0
2, 38397, Note_on_c, 9, 46, 0
2, 38398, Note_on_c, 9, 46, 78
2, 38398, Note_on_c, 9, 36, 100
2, 38517, Note_on_c, 9, 36, 0
2, 38517, Note_on_c, 9, 46, 0
2, 38518, Note_on_c, 9, 46, 80
2, 38519, Note_on_c, 9, 38, 103
2, 38637, Note_on_c, 9, 38, 0
2, 38637, Note_on_c, 9, 46, 0
2, 38639, Note_on_c, 9, 36, 98
2, 38641, Note_on_c, 9, 46, 80
2, 38697, Note_on_c, 9, 36, 0
2, 38700, Note_on_c, 9, 36, 98
2, 38757, Note_on_c, 9, 36, 0
2, 38757, Note_on_c, 9, 46, 0
2, 38758, Note_on_c, 9, 38, 101
2, 38760, Note_on_c, 9, 46, 79
2, 38817, Note_on_c, 9, 38, 0
2, 38820, Note_on_c, 9, 36, 102
2, 38877, Note_on_c, 9, 36, 0
2, 38877, Note_on_c, 9, 46, 0
2, 38879, Note_on_c, 9, 38, 102
2, 38881, Note_on_c, 9, 46, 82
2, 38881, Note_on_c, 9, 36, 101
2, 38996, Note_on_c, 9, 46, 0
2, 38997, Note_on_c, 9, 36, 0
2, 38997, Note_on_c, 9, 38, 0
2, 39000, Note_on_c, 9, 36, 68
2, 39000, Note_on_c, 9, 38, 69
2, 39002, Note_on_c, 9, 46, 73
2, 39057, Note_on_c, 9, 46, 0
2, 39057, Note_on_c, 9, 38, 0
2, 39057, Note_on_c, 9, 36, 0
2, 39058, Note_on_c, 9, 46, 78
2, 39059, Note_on_c, 9, 38, 79
2, 39060, Note_on_c, 9, 36, 80
2, 39117, Note_on_c, 9, 36, 0
2, 39117, Note_on_c, 9, 38, 0
2, 39117, Note_on_c, 9, 46, 0
2, 39120, Note_on_c, 9, 46, 89
2, 39120, Note_on_c, 9, 38, 89
2, 39122, Note_on_c, 9, 36, 89
2, 39177, Note_on_c, 9, 36, 0
2, 39177, Note_on_c, 9, 38, 0
2, 39177, Note_on_c, 9, 46, 0
2, 39178, Note_on_c, 9, 46, 94
2, 39180, Note_on_c, 9, 36, 94
2, 39181, Note_on_c, 9, 38, 96
2, 39237, Note_on_c, 9, 38, 0
2, 39237, Note_on_c, 9, 36, 0
2, 39237, Note_on_c, 9, 46, 0
2, 39241, Note_on_c, 9, 46, 104
2, 39242, Note_on_c, 9, 36, 102
2, 39242, Note_on_c, 9, 38, 104
2, 39297, Note_on_c, 9, 38, 0
2, 39297, Note_on_c, 9, 36, 0
2, 39297, Note_on_c, 9, 46, 0
2, 39299, Note_on_c, 9, 46, 109
2, 39301, Note_on_c, 9, 38, 110
2, 39302, Note_on_c, 9, 36, 108
2, 39357, Note_on_c, 9, 36, 0
2, 39357, Note_on_c, 9, 38, 0
2, 39357, Note_on_c, 9, 46, 0
2, 39361, Note_on_c, 9, 57, 102
2, 39362, Note_on_c, 9, 36, 102
2, 39477, Note_on_c, 9, 36, 0
2, 39477, Note_on_c, 9, 57, 0
2, 39481, Note_on_c, 9, 42, 100
2, 39482, Note_on_c, 9, 38, 99
2, 39537, Note_on_c, 9, 38, 0
2, 39542, Note_on_c, 9, 36, 98
2, 39597, Note_on_c, 9, 36, 0
2, 39597, Note_on_c, 9, 42, 0
2, 39602, Note_on_c, 9, 42, 99
2, 39657, Note_on_c, 9, 42, 0
2, 39660, Note_on_c, 9, 42, 101
2, 39717, Note_on_c, 9, 42, 0
2, 39718, Note_on_c, 9, 38, 102
2, 39720, Note_on_c, 9, 42, 99
2, 39777, Note_on_c, 9, 38, 0
2, 39779, Note_on_c, 9, 36, 99
2, 39837, Note_on_c, 9, 36, 0
2, 39837, Note_on_c, 9, 42, 0
2, 39840, Note_on_c, 9, 36, 100
2, 39842, Note_on_c, 9, 57, 102
2, 39957, Note_on_c, 9, 57, 0
2, 39957, Note_on_c, 9, 36, 0
2, 39958, Note_on_c, 9, 42, 101
2, 39958, Note_on_c, 9, 38, 100
2, 40017, Note_on_c, 9, 38, 0
2, 40021, Note_on_c, 9, 36, 102
2, 40077, Note_on_c, 9, 36, 0
2, 40077, Note_on_c, 9, 42, 0
2, 40081, Note_on_c, 9, 42, 103
2, 40197, Note_on_c, 9, 42, 0
2, 40198, Note_on_c, 9, 42, 100
2, 40198, Note_on_c, 9, 38, 99
2, 40257, Note_on_c, 9, 38, 0
2, 40259, Note_on_c, 9, 36, 103
2, 40317, Note_on_c, 9, 36, 0
2, 40317, Note_on_c, 9, 42, 0
2, 40321, Note_on_c, 9, 42, 101
2, 40322, Note_on_c, 9, 36, 101
2, 40437, Note_on_c, 9, 36, 0
2, 40437, Note_on_c, 9, 42, 0
2, 40438, Note_on_c, 9, 42, 100
2, 40438, Note_on_c, 9, 38, 102
2, 40497, Note_on_c, 9, 38, 0
2, 40498, Note_on_c, 9, 36, 102
2, 40557, Note_on_c, 9, 36, 0
2, 40557, Note_on_c, 9, 42, 0
2, 40559, Note_on_c, 9, 42, 102
2, 40677, Note_on_c, 9, 42, 0
2, 40678, Note_on_c, 9, 42, 100
2, 40682, Note_on_c, 9, 38, 98
2, 40796, Note_on_c, 9, 38, 0
2, 40797, Note_on_c, 9, 42, 0
2, 40798, Note_on_c, 9, 36, 101
2, 40801, Note_on_c, 9, 57, 103
2, 40917, Note_on_c, 9, 57, 0
2, 40917, Note_on_c, 9, 36, 0
2, 40920, Note_on_c, 9, 36, 77
2, 40921, Note_on_c, 9, 38, 50
2, 40922, Note_on_c, 9, 44, 99
2, 40977, Note_on_c, 9, 38, 0
2, 40977, Note_on_c, 9, 36, 0
2, 40978, Note_on_c, 9, 38, 54
2, 40979, Note_on_c, 9, 36, 75
2, 41037, Note_on_c, 9, 36, 0
2, 41037, Note_on_c, 9, 38, 0
2, 41037, Note_on_c, 9, 44, 0
2, 41039, Note_on_c, 9, 44, 103
2, 41041, Note_on_c, 9, 38, 56
2, 41041, Note_on_c, 9, 36, 81
2, 41097, Note_on_c, 9, 36, 0
2, 41097, Note_on_c, 9, 38, 0
2, 41098, Note_on_c, 9, 38, 63
2, 41102, Note_on_c, 9, 36, 80
2, 41157, Note_on_c, 9, 36, 0
2, 41157, Note_on_c, 9, 38, 0
2, 41157, Note_on_c, 9, 44, 0
2, 41158, Note_on_c, 9, 44, 99
2, 41160, Note_on_c, 9, 38, 65
2, 41161, Note_on_c, 9, 36, 83
2, 41217, Note_on_c, 9, 36, 0
2, 41217, Note_on_c, 9, 38, 0
2, 41220, Note_on_c, 9, 36, 87
2, 41222, Note_on_c, 9, 38, 72
2, 41277, Note_on_c, 9, 38, 0
2, 41277, Note_on_c, 9, 36, 0
2, 41277, Note_on_c, 9, 44, 0
2, 41279, Note_on_c, 9, 44, 99
2, 41279, Note_on_c, 9, 36, 88
2, 41281, Note_on_c, 9, 38, 74
2, 41337, Note_on_c, 9, 38, 0
2, 41337, Note_on_c, 9, 36, 0
2, 41337, Note_on_c, 9, 44, 0
2, 41339, Note_on_c, 9, 44, 103
2, 41340, Note_on_c, 9, 38, 79
2, 41341, Note_on_c, 9, 36, 89
2, 41397, Note_on_c, 9, 36, 0
2, 41397, Note_on_c, 9, 38, 0
2, 41397, Note_on_c, 9, 44, 0
2, 41398, Note_on_c, 9, 44, 98
2, 41401, Note_on_c, 9, 38, 79
2, 41402, Note_on_c, 9, 36, 89
2, 41457, Note_on_c, 9, 36, 0
2, 41457, Note_on_c, 9, 38, 0
2, 41457, Note_on_c, 9, 44, 0
2, 41458, Note_on_c, 9, 44, 102
2, 41460, Note_on_c, 9, 38, 83
2, 41461, Note_on_c, 9, 36, 91
2, 41517, Note_on_c, 9, 36, 0
2, 41517, Note_on_c, 9, 38, 0
2, 41517, Note_on_c, 9, 44, 0
2, 41521, Note_on_c, 9, 38, 88
2, 41521, Note_on_c, 9, 36, 97
2, 41522, Note_on_c, 9, 44, 102
2, 41577, Note_on_c, 9, 44, 0
2, 41577, Note_on_c, 9, 36, 0
2, 41577, Note_on_c, 9, 38, 0
2, 41581, Note_on_c, 9, 44, 99
2, 41581, Note_on_c, 9, 36, 95
2, 41582, Note_on_c, 9, 38, 91
2, 41637, Note_on_c, 9, 38, 0
2, 41637, Note_on_c, 9, 36, 0
2, 41637, Note_on_c, 9, 44, 0
2, 41639, Note_on_c, 9, 44, 103
2, 41639, Note_on_c, 9, 38, 95
2, 41640, Note_on_c, 9, 36, 101
2, 41697, Note_on_c, 9, 36, 0
2, 41697, Note_on_c, 9, 38, 0
2, 41697, Note_on_c, 9, 44, 0
2, 41699, Note_on_c, 9, 38, 102
2, 41700, Note_on_c, 9, 44, 98
2, 41701, Note_on_c, 9, 36, 101
2, 41757, Note_on_c, 9, 36, 0
2, 41757, Note_on_c, 9, 44, 0
2, 41757, Note_on_c, 9, 38, 0
2, 41760, Note_on_c, 9, 57, 99
2, 41760, Note_on_c, 9, 36, 100
2, 41877, Note_on_c, 9, 36, 0
2, 41877, Note_on_c, 9, 57, 0
2, 41881, Note_on_c, 9, 38, 99
2, 41882, Note_on_c, 9, 42, 102
2, 41937, Note_on_c, 9, 38, 0
2, 41941, Note_on_c, 9, 36, 103
2, 41997, Note_on_c, 9, 36, 0
2, 41997, Note_on_c, 9, 42, 0
2, 42001, Note_on_c, 9, 42, 99
2, 42117, Note_on_c, 9, 42, 0
2, 42120, Note_on_c, 9, 42, 98
2, 42121, Note_on_c, 9, 38, 102
2, 42237, Note_on_c, 9, 38, 0
2, 42237, Note_on_c, 9, 42, 0
2, 42241, Note_on_c, 9, 36, 102
2, 42242, Note_on_c, 9, 42, 101
2, 42357, Note_on_c, 9, 42, 0
2, 42357, Note_on_c, 9, 36, 0
2, 42359, Note_on_c, 9, 42, 101
2, 42361, Note_on_c, 9, 38, 100
2, 42417, Note_on_c, 9, 38, 0
2, 42422, Note_on_c, 9, 36, 98
2, 42477, Note_on_c, 9, 36, 0
2, 42477, Note_on_c, 9, 42, 0
2, 42480, Note_on_c, 9, 42, 98
2, 42542, Note_on_c, 9, 36, 102
2, 42597, Note_on_c, 9, 36, 0
2, 42597, Note_on_c, 9, 42, 0
2, 42600, Note_on_c, 9, 42, 98
2, 42600, Note_on_c, 9, 38, 99
2, 42656, Note_on_c, 9, 38, 0
2, 42660, Note_on_c, 9, 36, 99
2, 42717, Note_on_c, 9, 36, 0
2, 42717, Note_on_c, 9, 42, 0
2, 42722, Note_on_c, 9, 57, 98
2, 42722, Note_on_c, 9, 36, 101
2, 42837, Note_on_c, 9, 36, 0
2, 42837, Note_on_c, 9, 57, 0
2, 42838, Note_on_c, 9, 42, 99
2, 42839, Note_on_c, 9, 38, 102
2, 42897, Note_on_c, 9, 38, 0
2, 42899, Note_on_c, 9, 36, 101
2, 42957, Note_on_c, 9, 36, 0
2, 42957, Note_on_c, 9, 42, 0
2, 42961, Note_on_c, 9, 42, 101
2, 43077, Note_on_c, 9, 42, 0
2, 43081, Note_on_c, 9, 38, 103
2, 43082, Note_on_c, 9, 42, 101
2, 43197, Note_on_c, 9, 42, 0
2, 43197, Note_on_c, 9, 38, 0
2, 43198, Note_on_c, 9, 36, 102
2, 43201, Note_on_c, 9, 42, 101
2, 43317, Note_on_c, 9, 42, 0
2, 43317, Note_on_c, 9, 36, 0
2, 43318, Note_on_c, 9, 42, 98
2, 43320, Note_on_c, 9, 38, 99
2, 43377, Note_on_c, 9, 38, 0
2, 43380, Note_on_c, 9, 36, 98
2, 43437, Note_on_c, 9, 36, 0
2, 43437, Note_on_c, 9, 42, 0
2, 43440, Note_on_c, 9, 42, 102
2, 43498, Note_on_c, 9, 36, 103
2, 43557, Note_on_c, 9, 36, 0
2, 43557, Note_on_c, 9, 42, 0
2, 43558, Note_on_c, 9, 38, 101
2, 43562, Note_on_c, 9, 42, 99
2, 43616, Note_on_c, 9, 38, 0
2, 43621, Note_on_c, 9, 36, 100
2, 43677, Note_on_c, 9, 36, 0
2, 43677, Note_on_c, 9, 42, 0
2, 43678, Note_on_c, 9, 36, 98
2, 43678, Note_on_c, 9, 42, 101
2, 43797, Note_on_c, 9, 42, 0
2, 43797, Note_on_c, 9, 36, 0
2, 43799, Note_on_c, 9, 38, 99
2, 43801, Note_on_c, 9, 42, 101
2, 43857, Note_on_c, 9, 38, 0
2, 43859, Note_on_c, 9, 36, 100
2, 43917, Note_on_c, 9, 36, 0
2, 43917, Note_on_c, 9, 42, 0
2, 43921, Note_on_c, 9, 42, 101
2, 44037, Note_on_c, 9, 42, 0
2, 44040, Note_on_c, 9, 38, 102
2, 44040, Note_on_c, 9, 42, 102
2, 44097, Note_on_c, 9, 38, 0
2, 44099, Note_on_c, 9, 36, 102
2, 44157, Note_on_c, 9, 36, 0
2, 44157, Note_on_c, 9, 42, 0
2, 44158, Note_on_c, 9, 42, 101
2, 44161, Note_on_c, 9, 36, 98
2, 44277, Note_on_c, 9, 36, 0
2, 44277, Note_on_c, 9, 42, 0
2, 44280, Note_on_c, 9, 38, 103
2, 44280, Note_on_c, 9, 42, 102
2, 44337, Note_on_c, 9, 38, 0
2, 44342, Note_on_c, 9, 36, 98
2, 44397, Note_on_c, 9, 36, 0
2, 44397, Note_on_c, 9, 42, 0
2, 44400, Note_on_c, 9, 42, 99
2, 44517, Note_on_c, 9, 42, 0
2, 44518, Note_on_c, 9, 38, 100
2, 44519, Note_on_c, 9, 42, 98
2, 44577, Note_on_c, 9, 38, 0
2, 44579, Note_on_c, 9, 36, 103
2, 44637, Note_on_c, 9, 36, 0
2, 44637, Note_on_c, 9, 42, 0
2, 44638, Note_on_c, 9, 36, 100
2, 44642, Note_on_c, 9, 42, 102
2, 44757, Note_on_c, 9, 42, 0
2, 44757, Note_on_c, 9, 36, 0
2, 44761, Note_on_c, 9, 38, 101
2, 44762, Note_on_c, 9, 42, 102
2, 44817, Note_on_c, 9, 38, 0
2, 44821, Note_on_c, 9, 36, 101
2, 44877, Note_on_c, 9, 36, 0
2, 44877, Note_on_c, 9, 42, 0
2, 44881, Note_on_c, 9, 42, 103
2, 44940, Note_on_c, 9, 36, 99
2, 44997, Note_on_c, 9, 36, 0
2, 44997, Note_on_c, 9, 42, 0
2, 45001, Note_on_c, 9, 38, 103
2, 45001, Note_on_c, 9, 42, 103
2, 45057, Note_on_c, 9, 38, 0
2, 45062, Note_on_c, 9, 36, 100
2, 45117, Note_on_c, 9, 36, 0
2, 45117, Note_on_c, 9, 42, 0
2, 45119, Note_on_c, 9, 36, 98
2, 45120, Note_on_c, 9, 42, 98
2, 45237, Note_on_c, 9, 42, 0
2, 45237, Note_on_c, 9, 36, 0
2, 45238, Note_on_c, 9, 38, 93
2, 45242, Note_on_c, 9, 36, 93
2, 45297, Note_on_c, 9, 36, 0
2, 45297, Note_on_c, 9, 38, 0
2, 45300, Note_on_c, 9, 36, 96
2, 45302, Note_on_c, 9, 38, 93
2, 45357, Note_on_c, 9, 38, 0
2, 45357, Note_on_c, 9, 36, 0
2, 45358, Note_on_c, 9, 38, 98
2, 45362, Note_on_c, 9, 36, 99
2, 45417, Note_on_c, 9, 36, 0
2, 45417, Note_on_c, 9, 38, 0
2, 45421, Note_on_c, 9, 38, 90
2, 45447, Note_on_c, 9, 38, 0
2, 45448, Note_on_c, 9, 38, 94
2, 45477, Note_on_c, 9, 38, 0
2, 45480, Note_on_c, 9, 38, 100
2, 45507, Note_on_c, 9, 38, 0
2, 45512, Note_on_c, 9, 38, 104
2, 45537, Note_on_c, 9, 38, 0
2, 45538, Note_on_c, 9, 38, 107
2, 45567, Note_on_c, 9, 38, 0
2, 45568, Note_on_c, 9, 38, 113
2, 45597, Note_on_c, 9, 38, 0
2, 45598, Note_on_c, 9, 36, 101
2, 45599, Note_on_c, 9, 57, 103
2, 45717, Note_on_c, 9, 57, 0
2, 45717, Note_on_c, 9, 36, 0
2, 45718, Note_on_c, 9, 38, 99
2, 45720, Note_on_c, 9, 49, 99
2, 45777, Note_on_c, 9, 38, 0
2, 45781, Note_on_c, 9, 36, 99
2, 45837, Note_on_c, 9, 36, 0
2, 45837, Note_on_c, 9, 49, 0
2, 45840, Note_on_c, 9, 51, 100
2, 45897, Note_on_c, 9, 51, 0
2, 45901, Note_on_c, 9, 51, 99
2, 45901, Note_on_c, 9, 36, 99
2, 45957, Note_on_c, 9, 36, 0
2, 45957, Note_on_c, 9, 51, 0
2, 45961, Note_on_c, 9, 38, 103
2, 45962, Note_on_c, 9, 51, 102
2, 46076, Note_on_c, 9, 38, 0
2, 46077, Note_on_c, 9, 51, 0
2, 46079, Note_on_c, 9, 51, 103
2, 46082, Note_on_c, 9, 36, 100
2, 46137, Note_on_c, 9, 36, 0
2, 46139, Note_on_c, 9, 36, 100
2, 46197, Note_on_c, 9, 36, 0
2, 46197, Note_on_c, 9, 51, 0
2, 46201, Note_on_c, 9, 38, 103
2, 46202, Note_on_c, 9, 51, 98
2, 46257, Note_on_c, 9, 38, 0
2, 46259, Note_on_c, 9, 36, 102
2, 46317, Note_on_c, 9, 36, 0
2, 46317, Note_on_c, 9, 51, 0
2, 46318, Note_on_c, 9, 51, 99
2, 46377, Note_on_c, 9, 51, 0
2, 46378, Note_on_c, 9, 36, 101
2, 46379, Note_on_c, 9, 51, 99
2, 46437, Note_on_c, 9, 51, 0
2, 46437, Note_on_c, 9, 36, 0
2, 46438, Note_on_c, 9, 38, 102
2, 46440, Note_on_c, 9, 51, 99
2, 46497, Note_on_c, 9, 38, 0
2, 46502, Note_on_c, 9, 36, 99
2, 46557, Note_on_c, 9, 36, 0
2, 46557, Note_on_c, 9, 51, 0
2, 46558, Note_on_c, 9, 51, 103
2, 46559, Note_on_c, 9, 36, 100
2, 46617, Note_on_c, 9, 36, 0
2, 46619, Note_on_c, 9, 36, 103
2, 46677, Note_on_c, 9, 36, 0
2, 46677, Note_on_c, 9, 51, 0
2, 46678, Note_on_c, 9, 51, 103
2, 46678, Note_on_c, 9, 38, 101
2, 46737, Note_on_c, 9, 38, 0
2, 46738, Note_on_c, 9, 36, 98
2, 46797, Note_on_c, 9, 36, 0
2, 46797, Note_on_c, 9, 51, 0
2, 46801, Note_on_c, 9, 51, 100
2, 46857, Note_on_c, 9, 51, 0
2, 46861, Note_on_c, 9, 51, 102
2, 46862, Note_on_c, 9, 36, 102
2, 46917, Note_on_c, 9, 36, 0
2, 46917, Note_on_c, 9, 51, 0
2, 46918, Note_on_c, 9, 51, 103
2, 46920, Note_on_c, 9, 38, 103
2, 46977, Note_on_c, 9, 38, 0
2, 46980, Note_on_c, 9, 36, 101
2, 47037, Note_on_c, 9, 36, 0
2, 47037, Note_on_c, 9, 51, 0
2, 47040, Note_on_c, 9, 51, 98
2, 47040, Note_on_c, 9, 36, 98
2, 47042, Note_on_c, 9, 36, 101
2, 47097, Note_on_c, 9, 36, 0
2, 47101, Note_on_c, 9, 36, 103
2, 47157, Note_on_c, 9, 36, 0
2, 47157, Note_on_c, 9, 36, 0
2, 47157, Note_on_c, 9, 51, 0
2, 47159, Note_on_c, 9, 51, 101
2, 47160, Note_on_c, 9, 38, 101
2, 47217, Note_on_c, 9, 38, 0
2, 47218, Note_on_c, 9, 36, 101
2, 47277, Note_on_c, 9, 36, 0
2, 47277, Note_on_c, 9, 51, 0
2, 47282, Note_on_c, 9, 51, 99
2, 47337, Note_on_c, 9, 51, 0
2, 47342, Note_on_c, 9, 51, 102
2, 47342, Note_on_c, 9, 36, 100
2, 47397, Note_on_c, 9, 36, 0
2, 47397, Note_on_c, 9, 51, 0
2, 47398, Note_on_c, 9, 51, 103
2, 47400, Note_on_c, 9, 38, 98
2, 47457, Note_on_c, 9, 38, 0
2, 47461, Note_on_c, 9, 36, 103
2, 47517, Note_on_c, 9, 36, 0
2, 47517, Note_on_c, 9, 51, 0
2, 47521, Note_on_c, 9, 57, 98
2, 47521, Note_on_c, 9, 36, 100
2, 47577, Note_on_c, 9, 36, 0
2, 47579, Note_on_c, 9, 36, 100
2, 47637, Note_on_c, 9, 36, 0
2, 47637, Note_on_c, 9, 57, 0
2, 47641, Note_on_c, 9, 38, 100
2, 47642, Note_on_c, 9, 51, 98
2, 47697, Note_on_c, 9, 38, 0
2, 47698, Note_on_c, 9, 36, 99
2, 47757, Note_on_c, 9, 36, 0
2, 47757, Note_on_c, 9, 51, 0
2, 47760, Note_on_c, 9, 51, 99
2, 47817, Note_on_c, 9, 51, 0
2, 47818, Note_on_c, 9, 51, 102
2, 47820, Note_on_c, 9, 36, 100
2, 47877, Note_on_c, 9, 36, 0
2, 47877, Note_on_c, 9, 51, 0
2, 47881, Note_on_c, 9, 51, 98
2, 47881, Note_on_c, 9, 38, 103
2, 47937, Note_on_c, 9, 38, 0
2, 47938, Note_on_c, 9, 36, 100
2, 47997, Note_on_c, 9, 36, 0
2, 47997, Note_on_c, 9, 51, 0
2, 48000, Note_on_c, 9, 36, 101
2, 48001, Note_on_c, 9, 51, 100
2, 48057, Note_on_c, 9, 36, 0
2, 48062, Note_on_c, 9, 36, 102
2, 48117, Note_on_c, 9, 36, 0
2, 48117, Note_on_c, 9, 51, 0
2, 48121, Note_on_c, 9, 38, 101
2, 48122, Note_on_c, 9, 51, 101
2, 48177, Note_on_c, 9, 38, 0
2, 48179, Note_on_c, 9, 36, 101
2, 48237, Note_on_c, 9, 36, 0
2, 48237, Note_on_c, 9, 51, 0
2, 48239, Note_on_c, 9, 51, 99
2, 48297, Note_on_c, 9, 51, 0
2, 48298, Note_on_c, 9, 36, 100
2, 48300, Note_on_c, 9, 51, 102
2, 48357, Note_on_c, 9, 51, 0
2, 48357, Note_on_c, 9, 36, 0
2, 48358, Note_on_c, 9, 38, 103
2, 48361, Note_on_c, 9, 51, 101
2, 48417, Note_on_c, 9, 38, 0
2, 48421, Note_on_c, 9, 36, 102
2, 48477, Note_on_c, 9, 36, 0
2, 48477, Note_on_c, 9, 51, 0
2, 48479, Note_on_c, 9, 36, 102
2, 48481, Note_on_c, 9, 51, 103
2, 48537, Note_on_c, 9, 36, 0
2, 48538, Note_on_c, 9, 36, 102
2, 48597, Note_on_c, 9, 36, 0
2, 48597, Note_on_c, 9, 51, 0
2, 48598, Note_on_c, 9, 51, 99
2, 48601, Note_on_c, 9, 38, 101
2, 48657, Note_on_c, 9, 38, 0
2, 48658, Note_on_c, 9, 36, 101
2, 48717, Note_on_c, 9, 36, 0
2, 48717, Note_on_c, 9, 51, 0
2, 48719, Note_on_c, 9, 51, 103
2, 48777, Note_on_c, 9, 51, 0
2, 48781, Note_on_c, 9, 51, 102
2, 48781, Note_on_c, 9, 36, 102
2, 48837, Note_on_c, 9, 36, 0
2, 48837, Note_on_c, 9, 51, 0
2, 48840, Note_on_c, 9, 51, 102
2, 48842, Note_on_c, 9, 38, 101
2, 48897, Note_on_c, 9, 38, 0
2, 48901, Note_on_c, 9, 36, 100
2, 48957, Note_on_c, 9, 36, 0
2, 48957, Note_on_c, 9, 51, 0
2, 48959, Note_on_c, 9, 51, 103
2, 48960, Note_on_c, 9, 36, 103
2, 49017, Note_on_c, 9, 36, 0
2, 49022, Note_on_c, 9, 36, 101
2, 49077, Note_on_c, 9, 36, 0
2, 49077, Note_on_c, 9, 51, 0
2, 49078, Note_on_c, 9, 51, 99
2, 49078, Note_on_c, 9, 38, 101
2, 49137, Note_on_c, 9, 38, 0
2, 49138, Note_on_c, 9, 36, 102
2, 49197, Note_on_c, 9, 36, 0
2, 49197, Note_on_c, 9, 51, 0
2, 49198, Note_on_c, 9, 51, 101
2, 49257, Note_on_c, 9, 51, 0
2, 49259, Note_on_c, 9, 36, 103
2, 49262, Note_on_c, 9, 51, 101
2, 49317, Note_on_c, 9, 51, 0
2, 49317, Note_on_c, 9, 36, 0
2, 49319, Note_on_c, 9, 51, 99
2, 49322, Note_on_c, 9, 38, 101
2, 49377, Note_on_c, 9, 38, 0
2, 49378, Note_on_c, 9, 36, 99
2, 49437, Note_on_c, 9, 36, 0
2, 49437, Note_on_c, 9, 51, 0
2, 49439, Note_on_c, 9, 38, 103
2, 49442, Note_on_c, 9, 44, 39
2, 49442, Note_on_c, 9, 36, 98
2, 49557, Note_on_c, 9, 36, 0
2, 49557, Note_on_c, 9, 44, 0
2, 49557, Note_on_c, 9, 38, 0
2, 49559, Note_on_c, 9, 44, 50
2, 49559, Note_on_c, 9, 38, 49
2, 49559, Note_on_c, 9, 36, 72
2, 49617, Note_on_c, 9, 36, 0
2, 49617, Note_on_c, 9, 38, 0
2, 49617, Note_on_c, 9, 44, 0
2, 49619, Note_on_c, 9, 44, 53
2, 49622, Note_on_c, 9, 38, 53
2, 49622, Note_on_c, 9, 36, 75
2, 49677, Note_on_c, 9, 36, 0
2, 49677, Note_on_c, 9, 38, 0
2, 49677, Note_on_c, 9, 44, 0
2, 49681, Note_on_c, 9, 36, 75
2, 49682, Note_on_c, 9, 44, 57
2, 49682, Note_on_c, 9, 38, 55
2, 49737, Note_on_c, 9, 38, 0
2, 49737, Note_on_c, 9, 44, 0
2, 49737, Note_on_c, 9, 36, 0
2, 49738, Note_on_c, 9, 44, 58
2, 49738, Note_on_c, 9, 38, 61
2, 49738, Note_on_c, 9, 36, 80
2, 49797, Note_on_c, 9, 36, 0
2, 49797, Note_on_c, 9, 38, 0
2, 49797, Note_on_c, 9, 44, 0
2, 49798, Note_on_c, 9, 36, 81
2, 49799, Note_on_c, 9, 44, 63
2, 49800, Note_on_c, 9, 38, 61
2, 49857, Note_on_c, 9, 38, 0
2, 49857, Note_on_c, 9, 44, 0
2, 49857, Note_on_c, 9, 36, 0
2, 49860, Note_on_c, 9, 36, 85
2, 49861, Note_on_c, 9, 38, 69
2, 49862, Note_on_c, 9, 44, 66
2, 49917, Note_on_c, 9, 44, 0
2, 49917, Note_on_c, 9, 38, 0
2, 49917, Note_on_c, 9, 36, 0
2, 49920, Note_on_c, 9, 38, 70
2, 49921, Note_on_c, 9, 36, 88
2, 49922, Note_on_c, 9, 44, 72
2, 49977, Note_on_c, 9, 44, 0
2, 49977, Note_on_c, 9, 36, 0
2, 49977, Note_on_c, 9, 38, 0
2, 49982, Note_on_c, 9, 44, 78
2, 49982, Note_on_c, 9, 38, 74
2, 49982, Note_on_c, 9, 36, 87
2, 50037, Note_on_c, 9, 36, 0
2, 50037, Note_on_c, 9, 38, 0
2, 50037, Note_on_c, 9, 44, 0
2, 50038, Note_on_c, 9, 38, 78
2, 50039, Note_on_c, 9, 36, 88
2, 50042, Note_on_c, 9, 44, 80
2, 50097, Note_on_c, 9, 44, 0
2, 50097, Note_on_c, 9, 36, 0
2, 50097, Note_on_c, 9, 38, 0
2, 50098, Note_on_c, 9, 38, 82
2, 50099, Note_on_c, 9, 44, 83
2, 50102, Note_on_c, 9, 36, 93
2, 50157, Note_on_c, 9, 36, 0
2, 50157, Note_on_c, 9, 44, 0
2, 50157, Note_on_c, 9, 38, 0
2, 50158, Note_on_c, 9, 36, 97
2, 50161, Note_on_c, 9, 44, 88
2, 50161, Note_on_c, 9, 38, 89
2, 50217, Note_on_c, 9, 38, 0
2, 50217, Note_on_c, 9, 44, 0
2, 50217, Note_on_c, 9, 36, 0
2, 50221, Note_on_c, 9, 44, 90
2, 50221, Note_on_c, 9, 36, 100
2, 50222, Note_on_c, 9, 38, 94
2, 50277, Note_on_c, 9, 38, 0
2, 50277, Note_on_c, 9, 36, 0
2, 50277, Note_on_c, 9, 44, 0
2, 50278, Note_on_c, 9, 38, 98
2, 50281, Note_on_c, 9, 36, 104
2, 50282, Note_on_c, 9, 44, 97
2, 50337, Note_on_c, 9, 44, 0
2, 50337, Note_on_c, 9, 36, 0
2, 50337, Note_on_c, 9, 38, 0
2, 50339, Note_on_c, 9, 44, 101
2, 50341, Note_on_c, 9, 38, 108
2, 50342, Note_on_c, 9, 36, 106
2, 50397, Note_on_c, 9, 36, 0
2, 50397, Note_on_c, 9, 38, 0
2, 50397, Note_on_c, 9, 44, 0
2, 50398, Note_on_c, 9, 36, 99
2, 50402, Note_on_c, 9, 57, 99
2, 50517, Note_on_c, 9, 57, 0
2, 50517, Note_on_c, 9, 36, 0
2, 50520, Note_on_c, 9, 38, 99
2, 50521, Note_on_c, 9, 49, 101
2, 50637, Note_on_c, 9, 49, 0
2, 50637, Note_on_c, 9, 38, 0
2, 50638, Note_on_c, 9, 51, 101
2, 50699, Note_on_c, 9, 36, 101
2, 50757, Note_on_c, 9, 36, 0
2, 50757, Note_on_c, 9, 51, 0
2, 50758, Note_on_c, 9, 38, 102
2, 50760, Note_on_c, 9, 51, 100
2, 50817, Note_on_c, 9, 38, 0
2, 50822, Note_on_c, 9, 36, 101
2, 50877, Note_on_c, 9, 36, 0
2, 50877, Note_on_c, 9, 51, 0
2, 50879, Note_on_c, 9, 36, 99
2, 50880, Note_on_c, 9, 51, 100
2, 50997, Note_on_c, 9, 51, 0
2, 50997, Note_on_c, 9, 36, 0
2, 51001, Note_on_c, 9, 51, 100
2, 51002, Note_on_c, 9, 38, 103
2, 51057, Note_on_c, 9, 38, 0
2, 51059, Note_on_c, 9, 36, 103
2, 51117, Note_on_c, 9, 36, 0
2, 51117, Note_on_c, 9, 51, 0
2, 51118, Note_on_c, 9, 51, 98
2, 51181, Note_on_c, 9, 36, 98
2, 51237, Note_on_c, 9, 36, 0
2, 51237, Note_on_c, 9, 51, 0
2, 51239, Note_on_c, 9, 51, 98
2, 51240, Note_on_c, 9, 38, 100
2, 51297, Note_on_c, 9, 38, 0
2, 51302, Note_on_c, 9, 36, 99
2, 51357, Note_on_c, 9, 36, 0
2, 51357, Note_on_c, 9, 51, 0
2, 51359, Note_on_c, 9, 36, 103
2, 51362, Note_on_c, 9, 57, 102
2, 51477, Note_on_c, 9, 57, 0
2, 51477, Note_on_c, 9, 36, 0
2, 51480, Note_on_c, 9, 51, 101
2, 51482, Note_on_c, 9, 38, 100
2, 51537, Note_on_c, 9, 38, 0
2, 51542, Note_on_c, 9, 36, 100
2, 51597, Note_on_c, 9, 36, 0
2, 51597, Note_on_c, 9, 51, 0
2, 51601, Note_on_c, 9, 51, 103
2, 51659, Note_on_c, 9, 36, 101
2, 51717, Note_on_c, 9, 36, 0
2, 51717, Note_on_c, 9, 51, 0
2, 51719, Note_on_c, 9, 38, 98
2, 51722, Note_on_c, 9, 51, 103
2, 51777, Note_on_c, 9, 38, 0
2, 51779, Note_on_c, 9, 36, 100
2, 51837, Note_on_c, 9, 36, 0
2, 51837, Note_on_c, 9, 51, 0
2, 51838, Note_on_c, 9, 51, 102
2, 51840, Note_on_c, 9, 36, 103
2, 51957, Note_on_c, 9, 36, 0
2, 51957, Note_on_c, 9, 51, 0
2, 51958, Note_on_c, 9, 38, 99
2, 51959, Note_on_c, 9, 51, 98
2, 52017, Note_on_c, 9, 38, 0
2, 52019, Note_on_c, 9, 36, 100
2, 52077, Note_on_c, 9, 36, 0
2, 52077, Note_on_c, 9, 51, 0
2, 52082, Note_on_c, 9, 51, 98
2, 52139, Note_on_c, 9, 36, 100
2, 52197, Note_on_c, 9, 36, 0
2, 52197, Note_on_c, 9, 51, 0
2, 52198, Note_on_c, 9, 38, 100
2, 52202, Note_on_c, 9, 51, 103
2, 52257, Note_on_c, 9, 38, 0
2, 52262, Note_on_c, 9, 36, 98
2, 52317, Note_on_c, 9, 36, 0
2, 52317, Note_on_c, 9, 51, 0
2, 52320, Note_on_c, 9, 36, 103
2, 52322, Note_on_c, 9, 49, 102
2, 52437, Note_on_c, 9, 49, 0
2, 52437, Note_on_c, 9, 36, 0
2, 52439, Note_on_c, 9, 51, 102
2, 52441, Note_on_c, 9, 38, 102
2, 52497, Note_on_c, 9, 38, 0
2, 52500, Note_on_c, 9, 36, 102
2, 52557, Note_on_c, 9, 36, 0
2, 52557, Note_on_c, 9, 51, 0
2, 52561, Note_on_c, 9, 51, 101
2, 52620, Note_on_c, 9, 36, 98
2, 52677, Note_on_c, 9, 36, 0
2, 52677, Note_on_c, 9, 51, 0
2, 52678, Note_on_c, 9, 51, 98
2, 52682, Note_on_c, 9, 38, 101
2, 52737, Note_on_c, 9, 38, 0
2, 52738, Note_on_c, 9, 36, 102
2, 52797, Note_on_c, 9, 36, 0
2, 52797, Note_on_c, 9, 51, 0
2, 52799, Note_on_c, 9, 51, 98
2, 52799, Note_on_c, 9, 36, 99
2, 52917, Note_on_c, 9, 36, 0
2, 52917, Note_on_c, 9, 51, 0
2, 52920, Note_on_c, 9, 38, 102
2, 52921, Note_on_c, 9, 51, 99
2, 52977, Note_on_c, 9, 38, 0
2, 52982, Note_on_c, 9, 36, 100
2, 53037, Note_on_c, 9, 36, 0
2, 53037, Note_on_c, 9, 51, 0
2, 53041, Note_on_c, 9, 51, 101
2, 53101, Note_on_c, 9, 36, 103
2, 53157, Note_on_c, 9, 36, 0
2, 53157, Note_on_c, 9, 51, 0
2, 53160, Note_on_c, 9, 51, 103
2, 53162, Note_on_c, 9, 38, 103
2, 53217, Note_on_c, 9, 38, 0
2, 53221, Note_on_c, 9, 36, 103
2, 53277, Note_on_c, 9, 36, 0
2, 53277, Note_on_c, 9, 51, 0
2, 53278, Note_on_c, 9, 57, 101
2, 53280, Note_on_c, 9, 36, 103
2, 53397, Note_on_c, 9, 36, 0
2, 53397, Note_on_c, 9, 57, 0
2, 53398, Note_on_c, 9, 51, 102
2, 53398, Note_on_c, 9, 38, 99
2, 53457, Note_on_c, 9, 38, 0
2, 53461, Note_on_c, 9, 36, 103
2, 53517, Note_on_c, 9, 36, 0
2, 53517, Note_on_c, 9, 51, 0
2, 53519, Note_on_c, 9, 51, 100
2, 53582, Note_on_c, 9, 36, 103
2, 53637, Note_on_c, 9, 36, 0
2, 53637, Note_on_c, 9, 51, 0
2, 53640, Note_on_c, 9, 51, 101
2, 53641, Note_on_c, 9, 38, 100
2, 53697, Note_on_c, 9, 38, 0
2, 53698, Note_on_c, 9, 36, 98
2, 53757, Note_on_c, 9, 36, 0
2, 53757, Note_on_c, 9, 51, 0
2, 53761, Note_on_c, 9, 38, 102
2, 53817, Note_on_c, 9, 38, 0
2, 53818, Note_on_c, 9, 36, 98
2, 53877, Note_on_c, 9, 36, 0
2, 53881, Note_on_c, 9, 38, 89
2, 53907, Note_on_c, 9, 38, 0
2, 53912, Note_on_c, 9, 38, 96
2, 53937, Note_on_c, 9, 38, 0
2, 53940, Note_on_c, 9, 38, 99
2, 53997, Note_on_c, 9, 38, 0
2, 54001, Note_on_c, 9, 38, 103
2, 54027, Note_on_c, 9, 38, 0
2, 54029, Note_on_c, 9, 38, 68
2, 54057, Note_on_c, 9, 38, 0
2, 54062, Note_on_c, 9, 38, 72
2, 54087, Note_on_c, 9, 38, 0
2, 54091, Note_on_c, 9, 38, 72
2, 54117, Note_on_c, 9, 38, 0
2, 54120, Note_on_c, 9, 38, 108
2, 54147, Note_on_c, 9, 38, 0
2, 54149, Note_on_c, 9, 38, 77
2, 54177, Note_on_c, 9, 38, 0
2, 54182, Note_on_c, 9, 38, 78
2, 54207, Note_on_c, 9, 38, 0
2, 54210, Note_on_c, 9, 38, 78
2, 54237, Note_on_c, 9, 38, 0
2, 54239, Note_on_c, 9, 36, 98
2, 54241, Note_on_c, 9, 57, 99
2, 54357, Note_on_c, 9, 57, 0
2, 54357, Note_on_c, 9, 36, 0
2, 54358, Note_on_c, 9, 49, 101
2, 54360, Note_on_c, 9, 38, 98
2, 54417, Note_on_c, 9, 38, 0
2, 54421, Note_on_c, 9, 36, 102
2, 54477, Note_on_c, 9, 36, 0
2, 54477, Note_on_c, 9, 49, 0
2, 54480, Note_on_c, 9, 51, 98
2, 54537, Note_on_c, 9, 51, 0
2, 54538, Note_on_c, 9, 36, 103
2, 54539, Note_on_c, 9, 51, 102
2, 54597, Note_on_c, 9, 51, 0
2, 54597, Note_on_c, 9, 36, 0
2, 54599, Note_on_c, 9, 51, 99
2, 54600, Note_on_c, 9, 38, 100
2, 54716, Note_on_c, 9, 38, 0
2, 54717, Note_on_c, 9, 51, 0
2, 54720, Note_on_c, 9, 36, 100
2, 54722, Note_on_c, 9, 51, 102
2, 54777, Note_on_c, 9, 36, 0
2, 54782, Note_on_c, 9, 36, 103
2, 54837, Note_on_c, 9, 36, 0
2, 54837, Note_on_c, 9, 51, 0
2, 54839, Note_on_c, 9, 51, 103
2, 54840, Note_on_c, 9, 38, 101
2, 54897, Note_on_c, 9, 38, 0
2, 54898, Note_on_c, 9, 36, 101
2, 54957, Note_on_c, 9, 36, 0
2, 54957, Note_on_c, 9, 51, 0
2, 54962, Note_on_c, 9, 51, 99
2, 55017, Note_on_c, 9, 51, 0
2, 55020, Note_on_c, 9, 36, 101
2, 55022, Note_on_c, 9, 51, 101
2, 55077, Note_on_c, 9, 51, 0
2, 55077, Note_on_c, 9, 36, 0
2, 55079, Note_on_c, 9, 38, 102
2, 55081, Note_on_c, 9, 51, 103
2, 55137, Note_on_c, 9, 38, 0
2, 55141, Note_on_c, 9, 38, 101
2, 55197, Note_on_c, 9, 38, 0
2, 55197, Note_on_c, 9, 51, 0
2, 55200, Note_on_c, 9, 57, 98
2, 55200, Note_on_c, 9, 36, 100
2, 55257, Note_on_c, 9, 36, 0
2, 55258, Note_on_c, 9, 36, 103
2, 55317, Note_on_c, 9, 36, 0
2, 55317, Note_on_c, 9, 57, 0
2, 55319, Note_on_c, 9, 51, 102
2, 55319, Note_on_c, 9, 38, 102
2, 55377, Note_on_c, 9, 38, 0
2, 55382, Note_on_c, 9, 36, 103
2, 55437, Note_on_c, 9, 36, 0
2, 55437, Note_on_c, 9, 51, 0
2, 55442, Note_on_c, 9, 51, 102
2, 55497, Note_on_c, 9, 51, 0
2, 55501, Note_on_c, 9, 36, 98
2, 55502, Note_on_c, 9, 51, 98
2, 55557, Note_on_c, 9, 51, 0
2, 55557, Note_on_c, 9, 36, 0
2, 55558, Note_on_c, 9, 38, 98
2, 55560, Note_on_c, 9, 51, 103
2, 55617, Note_on_c, 9, 38, 0
2, 55620, Note_on_c, 9, 36, 100
2, 55677, Note_on_c, 9, 36, 0
2, 55677, Note_on_c, 9, 51, 0
2, 55679, Note_on_c, 9, 57, 99
2, 55680, Note_on_c, 9, 38, 101
2, 55737, Note_on_c, 9, 38, 0
2, 55738, Note_on_c, 9, 36, 99
2, 55797, Note_on_c, 9, 36, 0
2, 55797, Note_on_c, 9, 57, 0
2, 55799, Note_on_c, 9, 38, 99
2, 55802, Note_on_c, 9, 44, 102
2, 55857, Note_on_c, 9, 38, 0
2, 55861, Note_on_c, 9, 36, 101
2, 55917, Note_on_c, 9, 36, 0
2, 55917, Note_on_c, 9, 44, 0
2, 55920, Note_on_c, 9, 38, 103
2, 55922, Note_on_c, 9, 44, 98
2, 55977, Note_on_c, 9, 38, 0
2, 55979, Note_on_c, 9, 36, 101
2, 56037, Note_on_c, 9, 36, 0
2, 56037, Note_on_c, 9, 44, 0
2, 56039, Note_on_c, 9, 44, 99
2, 56040, Note_on_c, 9, 38, 100
2, 56097, Note_on_c, 9, 38, 0
2, 56102, Note_on_c, 9, 36, 98
2, 56157, Note_on_c, 9, 36, 0
2, 56157, Note_on_c, 9, 44, 0
2, 56159, Note_on_c, 9, 57, 100
2, 56159, Note_on_c, 9, 36, 102
2, 56217, Note_on_c, 9, 36, 0
2, 56221, Note_on_c, 9, 36, 102
2, 56277, Note_on_c, 9, 36, 0
2, 56277, Note_on_c, 9, 57, 0
2, 56279, Note_on_c, 9, 38, 102
2, 56282, Note_on_c, 9, 49, 102
2, 56337, Note_on_c, 9, 38, 0
2, 56338, Note_on_c, 9, 36, 100
2, 56397, Note_on_c, 9, 36, 0
2, 56397, Note_on_c, 9, 49, 0
2, 56400, Note_on_c, 9, 51, 100
2, 56457, Note_on_c, 9, 51, 0
2, 56462, Note_on_c, 9, 36, 101
2, 56517, Note_on_c, 9, 36, 0
2, 56518, Note_on_c, 9, 38, 98
2, 56520, Note_on_c, 9, 49, 99
2, 56577, Note_on_c, 9, 38, 0
2, 56582, Note_on_c, 9, 36, 99
2, 56637, Note_on_c, 9, 36, 0
2, 56637, Note_on_c, 9, 49, 0
2, 56638, Note_on_c, 9, 51, 102
2, 56641, Note_on_c, 9, 36, 98
2, 56697, Note_on_c, 9, 36, 0
2, 56699, Note_on_c, 9, 36, 102
2, 56757, Note_on_c, 9, 36, 0
2, 56757, Note_on_c, 9, 51, 0
2, 56758, Note_on_c, 9, 49, 101
2, 56758, Note_on_c, 9, 38, 98
2, 56817, Note_on_c, 9, 38, 0
2, 56819, Note_on_c, 9, 36, 98
2, 56877, Note_on_c, 9, 36, 0
2, 56877, Note_on_c, 9, 49, 0
2, 56880, Note_on_c, 9, 51, 101
2, 56937, Note_on_c, 9, 51, 0
2, 56942, Note_on_c, 9, 36, 101
2, 56997, Note_on_c, 9, 36, 0
2, 56998, Note_on_c, 9, 49, 100
2, 56998, Note_on_c, 9, 38, 98
2, 57057, Note_on_c, 9, 38, 0
2, 57059, Note_on_c, 9, 36, 102
2, 57117, Note_on_c, 9, 36, 0
2, 57117, Note_on_c, 9, 49, 0
2, 57119, Note_on_c, 9, 57, 103
2, 57120, Note_on_c, 9, 36, 100
2, 57177, Note_on_c, 9, 36, 0
2, 57180, Note_on_c, 9, 36, 98
2, 57237, Note_on_c, 9, 36, 0
2, 57237, Note_on_c, 9, 57, 0
2, 57240, Note_on_c, 9, 49, 100
2, 57242, Note_on_c, 9, 38, 102
2, 57297, Note_on_c, 9, 38, 0
2, 57301, Note_on_c, 9, 36, 98
2, 57357, Note_on_c, 9, 36, 0
2, 57357, Note_on_c, 9, 49, 0
2, 57359, Note_on_c, 9, 51, 103
2, 57417, Note_on_c, 9, 51, 0
2, 57420, Note_on_c, 9, 36, 101
2, 57477, Note_on_c, 9, 36, 0
2, 57480, Note_on_c, 9, 57, 102
2, 57482, Note_on_c, 9, 38, 99
2, 57537, Note_on_c, 9, 38, 0
2, 57540, Note_on_c, 9, 36, 101
2, 57597, Note_on_c, 9, 36, 0
2, 57597, Note_on_c, 9, 57, 0
2, 57602, Note_on_c, 9, 36, 98
2, 57657, Note_on_c, 9, 36, 0
2, 57661, Note_on_c, 9, 57, 99
2, 57662, Note_on_c, 9, 38, 101
2, 57717, Note_on_c, 9, 38, 0
2, 57717, Note_on_c, 9, 57, 0
2, 57720, Note_on_c, 9, 36, 101
2, 57777, Note_on_c, 9, 36, 0
2, 57782, Note_on_c, 9, 36, 101
2, 57837, Note_on_c, 9, 36, 0
2, 57839, Note_on_c, 9, 57, 103
2, 57842, Note_on_c, 9, 38, 101
2, 57897, Note_on_c, 9, 38, 0
2, 57897, Note_on_c, 9, 57, 0
2, 57899, Note_on_c, 9, 36, 101
2, 57957, Note_on_c, 9, 36, 0
2, 57961, Note_on_c, 9, 38, 101
2, 57962, Note_on_c, 9, 57, 103
2, 58017, Note_on_c, 9, 57, 0
2, 58017, Note_on_c, 9, 38, 0
2, 58018, Note_on_c, 9, 36, 99
2, 58077, Note_on_c, 9, 36, 0
2, 58080, Note_on_c, 9, 36, 99
2, 58081, Note_on_c, 9, 57, 101
2, 58197, Note_on_c, 9, 57, 0
2, 58197, Note_on_c, 9, 36, 0
2, 58198, Note_on_c, 9, 49, 98
2, 58198, Note_on_c, 9, 38, 103
2, 58257, Note_on_c, 9, 38, 0
2, 58258, Note_on_c, 9, 36, 100
2, 58317, Note_on_c, 9, 36, 0
2, 58317, Note_on_c, 9, 49, 0
2, 58320, Note_on_c, 9, 51, 103
2, 58377, Note_on_c, 9, 51, 0
2, 58378, Note_on_c, 9, 36, 101
2, 58382, Note_on_c, 9, 51, 98
2, 58437, Note_on_c, 9, 51, 0
2, 58437, Note_on_c, 9, 36, 0
2, 58438, Note_on_c, 9, 51, 101
2, 58439, Note_on_c, 9, 38, 100
2, 58556, Note_on_c, 9, 38, 0
2, 58557, Note_on_c, 9, 51, 0
2, 58561, Note_on_c, 9, 36, 98
2, 58562, Note_on_c, 9, 51, 100
2, 58617, Note_on_c, 9, 36, 0
2, 58621, Note_on_c, 9, 36, 98
2, 58677, Note_on_c, 9, 36, 0
2, 58677, Note_on_c, 9, 51, 0
2, 58679, Note_on_c, 9, 38, 99
2, 58681, Note_on_c, 9, 51, 99
2, 58737, Note_on_c, 9, 38, 0
2, 58741, Note_on_c, 9, 36, 98
2, 58797, Note_on_c, 9, 36, 0
2, 58797, Note_on_c, 9, 51, 0
2, 58802, Note_on_c, 9, 51, 99
2, 58857, Note_on_c, 9, 51, 0
2, 58859, Note_on_c, 9, 36, 101
2, 58862, Note_on_c, 9, 51, 103
2, 58917, Note_on_c, 9, 51, 0
2, 58917, Note_on_c, 9, 36, 0
2, 58918, Note_on_c, 9, 38, 100
2, 58920, Note_on_c, 9, 51, 101
2, 58977, Note_on_c, 9, 38, 0
2, 58978, Note_on_c, 9, 36, 103
2, 59037, Note_on_c, 9, 36, 0
2, 59037, Note_on_c, 9, 51, 0
2, 59038, Note_on_c, 9, 51, 98
2, 59039, Note_on_c, 9, 36, 101
2, 59097, Note_on_c, 9, 36, 0
2, 59101, Note_on_c, 9, 36, 99
2, 59157, Note_on_c, 9, 36, 0
2, 59157, Note_on_c, 9, 51, 0
2, 59158, Note_on_c, 9, 38, 102
2, 59160, Note_on_c, 9, 51, 103
2, 59217, Note_on_c, 9, 38, 0
2, 59219, Note_on_c, 9, 36, 99
2, 59277, Note_on_c, 9, 36, 0
2, 59277, Note_on_c, 9, 51, 0
2, 59278, Note_on_c, 9, 51, 103
2, 59337, Note_on_c, 9, 51, 0
2, 59338, Note_on_c, 9, 36, 100
2, 59341, Note_on_c, 9, 51, 101
2, 59397, Note_on_c, 9, 51, 0
2, 59397, Note_on_c, 9, 36, 0
2, 59398, Note_on_c, 9, 51, 102
2, 59400, Note_on_c, 9, 38, 98
2, 59457, Note_on_c, 9, 38, 0
2, 59459, Note_on_c, 9, 36, 102
2, 59517, Note_on_c, 9, 36, 0
2, 59517, Note_on_c, 9, 51, 0
2, 59518, Note_on_c, 9, 36, 100
2, 59522, Note_on_c, 9, 51, 99
2, 59577, Note_on_c, 9, 36, 0
2, 59582, Note_on_c, 9, 36, 100
2, 59637, Note_on_c, 9, 36, 0
2, 59637, Note_on_c, 9, 51, 0
2, 59638, Note_on_c, 9, 51, 101
2, 59638, Note_on_c, 9, 38, 98
2, 59697, Note_on_c, 9, 38, 0
2, 59698, Note_on_c, 9, 36, 103
2, 59757, Note_on_c, 9, 36, 0
2, 59757, Note_on_c, 9, 51, 0
2, 59762, Note_on_c, 9, 51, 98
2, 59817, Note_on_c, 9, 51, 0
2, 59819, Note_on_c, 9, 51, 99
2, 59820, Note_on_c, 9, 36, 102
2, 59877, Note_on_c, 9, 36, 0
2, 59877, Note_on_c, 9, 51, 0
2, 59879, Note_on_c, 9, 51, 101
2, 59880, Note_on_c, 9, 38, 99
2, 59937, Note_on_c, 9, 38, 0
2, 59941, Note_on_c, 9, 36, 98
2, 59997, Note_on_c, 9, 36, 0
2, 59997, Note_on_c, 9, 51, 0
2, 60000, Control_c, 9, 11, 127
2, 60002, Note_on_c, 9, 57, 102
2, 60002, Note_on_c, 9, 36, 99
2, 60031, Control_c, 9, 11, 126
2, 60057, Note_on_c, 9, 36, 0
2, 60062, Note_on_c, 9, 36, 98
2, 60062, Control_c, 9, 11, 125
2, 60093, Control_c, 9, 11, 124
2, 60117, Note_on_c, 9, 36, 0
2, 60117, Note_on_c, 9, 57, 0
2, 60118, Note_on_c, 9, 51, 101
2, 60118, Note_on_c, 9, 38, 98
2, 60124, Control_c, 9, 11, 123
2, 60155, Control_c, 9, 11, 122
2, 60177, Note_on_c, 9, 38, 0
2, 60180, Note_on_c, 9, 36, 100
2, 60187, Control_c, 9, 11, 121
2, 60218, Control_c, 9, 11, 120
2, 60237, Note_on_c, 9, 36, 0
2, 60237, Note_on_c, 9, 51, 0
2, 60242, Note_on_c, 9, 51, 98
2, 60249, Control_c, 9, 11, 119
2, 60280, Control_c, 9, 11, 118
2, 60297, Note_on_c, 9, 51, 0
2, 60298, Note_on_c, 9, 36, 102
2, 60302, Note_on_c, 9, 51, 100
2, 60311, Control_c, 9, 11, 117
2, 60342, Control_c, 9, 11, 116
2, 60357, Note_on_c, 9, 51, 0
2, 60357, Note_on_c, 9, 36, 0
2, 60362, Note_on_c, 9, 51, 100
2, 60362, Note_on_c, 9, 38, 100
2, 60374, Control_c, 9, 11, 115
2, 60405, Control_c, 9, 11, 114
2, 60417, Note_on_c, 9, 38, 0
2, 60419, Note_on_c, 9, 36, 101
2, 60436, Control_c, 9, 11, 113
2, 60467, Control_c, 9, 11, 112
2, 60477, Note_on_c, 9, 36, 0
2, 60477, Note_on_c, 9, 51, 0
2, 60480, Note_on_c, 9, 51, 99
2, 60481, Note_on_c, 9, 36, 102
2, 60498, Control_c, 9, 11, 111
2, 60530, Control_c, 9, 11, 110
2, 60537, Note_on_c, 9, 36, 0
2, 60540, Note_on_c, 9, 36, 103
2, 60561, Control_c, 9, 11, 109
2, 60592, Control_c, 9, 11, 108
2, 60597, Note_on_c, 9, 36, 0
2, 60597, Note_on_c, 9, 51, 0
2, 60599, Note_on_c, 9, 51, 100
2, 60602, Note_on_c, 9, 38, 99
2, 60623, Control_c, 9, 11, 107
2, 60654, Control_c, 9, 11, 106
2, 60657, Note_on_c, 9, 38, 0
2, 60662, Note_on_c, 9, 36, 99
2, 60685, Control_c, 9, 11, 105
2, 60717, Note_on_c, 9, 36, 0
2, 60717, Note_on_c, 9, 51, 0
2, 60717, Control_c, 9, 11, 104
2, 60721, Note_on_c, 9, 51, 103
2, 60748, Control_c, 9, 11, 103
2, 60777, Note_on_c, 9, 51, 0
2, 60779, Control_c, 9, 11, 102
2, 60779, Note_on_c, 9, 36, 100
2, 60780, Note_on_c, 9, 51, 101
2, 60810, Control_c, 9, 11, 101
2, 60837, Note_on_c, 9, 51, 0
2, 60837, Note_on_c, 9, 36, 0
2, 60838, Note_on_c, 9, 51, 98
2, 60838, Note_on_c, 9, 38, 99
2, 60841, Control_c, 9, 11, 100
2, 60873, Control_c, 9, 11, 99
2, 60897, Note_on_c, 9, 38, 0
2, 60901, Note_on_c, 9, 36, 99
2, 60904, Control_c, 9, 11, 98
2, 60935, Control_c, 9, 11, 97
2, 60957, Note_on_c, 9, 36, 0
2, 60957, Note_on_c, 9, 51, 0
2, 60959, Note_on_c, 9, 36, 101
2, 60960, Note_on_c, 9, 51, 103
2, 60966, Control_c, 9, 11, 96
2, 60997, Control_c, 9, 11, 95
2, 61017, Note_on_c, 9, 36, 0
2, 61019, Note_on_c, 9, 36, 100
2, 61028, Control_c, 9, 11, 94
2, 61060, Control_c, 9, 11, 93
2, 61077, Note_on_c, 9, 36, 0
2, 61077, Note_on_c, 9, 51, 0
2, 61080, Note_on_c, 9, 51, 100
2, 61081, Note_on_c, 9, 38, 101
2, 61091, Control_c, 9, 11, 92
2, 61122, Control_c, 9, 11, 91
2, 61137, Note_on_c, 9, 38, 0
2, 61142, Note_on_c, 9, 36, 98
2, 61153, Control_c, 9, 11, 90
2, 61184, Control_c, 9, 11, 89
2, 61197, Note_on_c, 9, 36, 0
2, 61197, Note_on_c, 9, 51, 0
2, 61201, Note_on_c, 9, 51, 99
2, 61216, Control_c, 9, 11, 88
2, 61247, Control_c, 9, 11, 87
2, 61257, Note_on_c, 9, 51, 0
2, 61259, Note_on_c, 9, 36, 101
2, 61262, Note_on_c, 9, 51, 103
2, 61278, Control_c, 9, 11, 86
2, 61309, Control_c, 9, 11, 85
2, 61317, Note_on_c, 9, 51, 0
2, 61317, Note_on_c, 9, 36, 0
2, 61319, Note_on_c, 9, 38, 102
2, 61320, Note_on_c, 9, 51, 99
2, 61340, Control_c, 9, 11, 84
2, 61371, Control_c, 9, 11, 83
2, 61377, Note_on_c, 9, 38, 0
2, 61382, Note_on_c, 9, 36, 102
2, 61403, Control_c, 9, 11, 82
2, 61434, Control_c, 9, 11, 81
2, 61437, Note_on_c, 9, 36, 0
2, 61437, Note_on_c, 9, 51, 0
2, 61440, Note_on_c, 9, 36, 101
2, 61465, Control_c, 9, 11, 80
2, 61496, Control_c, 9, 11, 79
2, 61497, Note_on_c, 9, 36, 0
2, 61499, Note_on_c, 9, 49, 99
2, 61500, Note_on_c, 9, 38, 99
2, 61527, Control_c, 9, 11, 78
2, 61557, Note_on_c, 9, 38, 0
2, 61557, Note_on_c, 9, 49, 0
2, 61559, Control_c, 9, 11, 77
2, 61590, Control_c, 9, 11, 76
2, 61590, Note_on_c, 9, 38, 99
2, 61617, Note_on_c, 9, 38, 0
2, 61619, Note_on_c, 9, 38, 101
2, 61621, Control_c, 9, 11, 75
2, 61647, Note_on_c, 9, 38, 0
2, 61652, Control_c, 9, 11, 74
2, 61679, Note_on_c, 9, 38, 102
2, 61683, Control_c, 9, 11, 73
2, 61707, Note_on_c, 9, 38, 0
2, 61714, Control_c, 9, 11, 72
2, 61738, Note_on_c, 9, 38, 72
2, 61746, Control_c, 9, 11, 71
2, 61767, Note_on_c, 9, 38, 0
2, 61769, Note_on_c, 9, 38, 68
2, 61777, Control_c, 9, 11, 70
2, 61797, Note_on_c, 9, 38, 0
2, 61799, Note_on_c, 9, 38, 102
2, 61808, Control_c, 9, 11, 69
2, 61827, Note_on_c, 9, 38, 0
2, 61832, Note_on_c, 9, 38, 73
2, 61839, Control_c, 9, 11, 68
2, 61857, Note_on_c, 9, 38, 0
2, 61861, Note_on_c, 9, 38, 68
2, 61870, Control_c, 9, 11, 67
2, 61887, Note_on_c, 9, 38, 0
2, 61892, Note_on_c, 9, 38, 98
2, 61902, Control_c, 9, 11, 66
2, 61917, Note_on_c, 9, 38, 0
2, 61921, Note_on_c, 9, 57, 103
2, 61921, Note_on_c, 9, 36, 103
2, 61933, Control_c, 9, 11, 65
2, 61964, Control_c, 9, 11, 64
2, 61977, Note_on_c, 9, 36, 0
2, 61979, Note_on_c, 9, 36, 101
2, 61995, Control_c, 9, 11, 63
2, 62026, Control_c, 9, 11, 62
2, 62037, Note_on_c, 9, 36, 0
2, 62037, Note_on_c, 9, 57, 0
2, 62038, Note_on_c, 9, 38, 103
2, 62041, Note_on_c, 9, 49, 98
2, 62057, Control_c, 9, 11, 61
2, 62089, Control_c, 9, 11, 60
2, 62097, Note_on_c, 9, 38, 0
2, 62101, Note_on_c, 9, 36, 101
2, 62120, Control_c, 9, 11, 59
2, 62151, Control_c, 9, 11, 58
2, 62157, Note_on_c, 9, 36, 0
2, 62157, Note_on_c, 9, 49, 0
2, 62162, Note_on_c, 9, 51, 103
2, 62182, Control_c, 9, 11, 57
2, 62213, Control_c, 9, 11, 56
2, 62217, Note_on_c, 9, 51, 0
2, 62219, Note_on_c, 9, 36, 102
2, 62245, Control_c, 9, 11, 55
2, 62276, Control_c, 9, 11, 54
2, 62277, Note_on_c, 9, 36, 0
2, 62278, Note_on_c, 9, 57, 100
2, 62280, Note_on_c, 9, 38, 101
2, 62307, Control_c, 9, 11, 53
2, 62337, Note_on_c, 9, 38, 0
2, 62338, Control_c, 9, 11, 52
2, 62338, Note_on_c, 9, 36, 102
2, 62369, Control_c, 9, 11, 51
2, 62397, Note_on_c, 9, 36, 0
2, 62397, Note_on_c, 9, 57, 0
2, 62400, Control_c, 9, 11, 50
2, 62402, Note_on_c, 9, 36, 102
2, 62432, Control_c, 9, 11, 49
2, 62457, Note_on_c, 9, 36, 0
2, 62460, Note_on_c, 9, 38, 99
2, 62461, Note_on_c, 9, 57, 103
2, 62463, Control_c, 9, 11, 48
2, 62494, Control_c, 9, 11, 47
2, 62517, Note_on_c, 9, 57, 0
2, 62517, Note_on_c, 9, 38, 0
2, 62521, Note_on_c, 9, 36, 101
2, 62525, Control_c, 9, 11, 46
2, 62556, Control_c, 9, 11, 45
2, 62577, Note_on_c, 9, 36, 0
2, 62580, Note_on_c, 9, 36, 100
2, 62588, Control_c, 9, 11, 44
2, 62619, Control_c, 9, 11, 43
2, 62637, Note_on_c, 9, 36, 0
2, 62641, Note_on_c, 9, 57, 101
2, 62641, Note_on_c, 9, 38, 103
2, 62650, Control_c, 9, 11, 42
2, 62681, Control_c, 9, 11, 41
2, 62697, Note_on_c, 9, 38, 0
2, 62697, Note_on_c, 9, 57, 0
2, 62701, Note_on_c, 9, 36, 101
2, 62712, Control_c, 9, 11, 40
2, 62743, Control_c, 9, 11, 39
2, 62757, Note_on_c, 9, 36, 0
2, 62761, Note_on_c, 9, 57, 98
2, 62762, Note_on_c, 9, 38, 99
2, 62775, Control_c, 9, 11, 38
2, 62806, Control_c, 9, 11, 37
2, 62817, Note_on_c, 9, 38, 0
2, 62817, Note_on_c, 9, 57, 0
2, 62818, Note_on_c, 9, 36, 100
2, 62837, Control_c, 9, 11, 36
2, 62868, Control_c, 9, 11, 35
2, 62877, Note_on_c, 9, 36, 0
2, 62880, Note_on_c, 9, 57, 103
2, 62881, Note_on_c, 9, 36, 102
2, 62899, Control_c, 9, 11, 34
2, 62931, Control_c, 9, 11, 33
2, 62937, Note_on_c, 9, 36, 0
2, 62938, Note_on_c, 9, 36, 100
2, 62962, Control_c, 9, 11, 32
2, 62993, Control_c, 9, 11, 31
2, 62997, Note_on_c, 9, 36, 0
2, 62997, Note_on_c, 9, 57, 0
2, 62998, Note_on_c, 9, 38, 100
2, 63000, Note_on_c, 9, 49, 102
2, 63024, Control_c, 9, 11, 30
2, 63055, Control_c, 9, 11, 29
2, 63057, Note_on_c, 9, 38, 0
2, 63060, Note_on_c, 9, 36, 98
2, 63086, Control_c, 9, 11, 28
2, 63117, Note_on_c, 9, 36, 0
2, 63117, Note_on_c, 9, 49, 0
2, 63118, Control_c, 9, 11, 27
2, 63119, Note_on_c, 9, 51, 103
2, 63149, Control_c, 9, 11, 26
2, 63177, Note_on_c, 9, 51, 0
2, 63178, Note_on_c, 9, 36, 100
2, 63180, Control_c, 9, 11, 25
2, 63211, Control_c, 9, 11, 24
2, 63237, Note_on_c, 9, 36, 0
2, 63239, Note_on_c, 9, 57, 103
2, 63242, Control_c, 9, 11, 23
2, 63242, Note_on_c, 9, 38, 102
2, 63274, Control_c, 9, 11, 22
2, 63297, Note_on_c, 9, 38, 0
2, 63300, Note_on_c, 9, 36, 102
2, 63305, Control_c, 9, 11, 21
2, 63336, Control_c, 9, 11, 20
2, 63357, Note_on_c, 9, 36, 0
2, 63357, Note_on_c, 9, 57, 0
2, 63361, Note_on_c, 9, 36, 99
2, 63367, Control_c, 9, 11, 19
2, 63398, Control_c, 9, 11, 18
2, 63417, Note_on_c, 9, 36, 0
2, 63418, Note_on_c, 9, 57, 101
2, 63419, Note_on_c, 9, 38, 102
2, 63429, Control_c, 9, 11, 17
2, 63461, Control_c, 9, 11, 16
2, 63477, Note_on_c, 9, 38, 0
2, 63477, Note_on_c, 9, 57, 0
2, 63482, Note_on_c, 9, 36, 101
2, 63492, Control_c, 9, 11, 15
2, 63523, Control_c, 9, 11, 14
2, 63537, Note_on_c, 9, 36, 0
2, 63542, Note_on_c, 9, 36, 102
2, 63554, Control_c, 9, 11, 13
2, 63585, Control_c, 9, 11, 12
2, 63597, Note_on_c, 9, 36, 0
2, 63599, Note_on_c, 9, 57, 100
2, 63599, Note_on_c, 9, 38, 100
2, 63617, Control_c, 9, 11, 11
2, 63648, Control_c, 9, 11, 10
2, 63657, Note_on_c, 9, 38, 0
2, 63657, Note_on_c, 9, 57, 0
2, 63659, Note_on_c, 9, 36, 102
2, 63679, Control_c, 9, 11, 9
2, 63710, Control_c, 9, 11, 8
2, 63717, Note_on_c, 9, 36, 0
2, 63718, Note_on_c, 9, 57, 101
2, 63722, Note_on_c, 9, 38, 102
2, 63741, Control_c, 9, 11, 7
2, 63772, Control_c, 9, 11, 6
2, 63777, Note_on_c, 9, 38, 0
2, 63777, Note_on_c, 9, 57, 0
2, 63778, Note_on_c, 9, 36, 99
2, 63804, Control_c, 9, 11, 5
2, 63835, Control_c, 9, 11, 4
2, 63837, Note_on_c, 9, 36, 0
2, 63866, Control_c, 9, 11, 3
2, 63897, Control_c, 9, 11, 2
2, 63928, Control_c, 9, 11, 1
2, 63960, Control_c, 9, 11, 0
2, 64101, Control_c, 9, 11, 127
2, 64101, End_track
3, 0, Start_track
3, 0, MIDI_port, 0
3, 0, Program_c, 0, 33
3, 0, Control_c, 0, 7, 100
3, 0, Control_c, 0, 10, 64
3, 0, Control_c, 0, 91, 29
3, 0, Control_c, 0, 93, 16
3, 2880, Note_on_c, 0, 38, 96
3, 2937, Note_on_c, 0, 38, 0
3, 2940, Note_on_c, 0, 38, 98
3, 2998, Note_on_c, 0, 38, 0
3, 3839, Note_on_c, 0, 38, 97
3, 3897, Note_on_c, 0, 38, 0
3, 3901, Note_on_c, 0, 38, 103
3, 3957, Note_on_c, 0, 38, 0
3, 4676, Pitch_bend_c, 0, 16383
3, 4682, Note_on_c, 0, 48, 98
3, 4743, Pitch_bend_c, 0, 16383
3, 4748, Pitch_bend_c, 0, 16256
3, 4760, Pitch_bend_c, 0, 12672
3, 4761, Pitch_bend_c, 0, 12544
3, 4764, Pitch_bend_c, 0, 12288
3, 4765, Pitch_bend_c, 0, 12160
3, 4774, Pitch_bend_c, 0, 8448
3, 4776, Pitch_bend_c, 0, 8320
3, 4778, Pitch_bend_c, 0, 8064
3, 4786, Pitch_bend_c, 0, 4352
3, 4788, Pitch_bend_c, 0, 4224
3, 4795, Pitch_bend_c, 0, 512
3, 4796, Pitch_bend_c, 0, 256
3, 4797, Note_on_c, 0, 48, 0
3, 4797, Pitch_bend_c, 0, 128
3, 4799, Note_on_c, 0, 34, 98
3, 4800, Pitch_bend_c, 0, 8192
3, 5276, Note_on_c, 0, 34, 0
3, 5281, Note_on_c, 0, 38, 98
3, 5756, Note_on_c, 0, 38, 0
3, 5760, Note_on_c, 0, 34, 100
3, 6236, Note_on_c, 0, 34, 0
3, 6240, Note_on_c, 0, 38, 101
3, 6716, Note_on_c, 0, 38, 0
3, 6719, Note_on_c, 0, 34, 100
3, 7196, Note_on_c, 0, 34, 0
3, 7199, Note_on_c, 0, 38, 100
3, 7676, Note_on_c, 0, 38, 0
3, 7680, Note_on_c, 0, 34, 102
3, 8636, Note_on_c, 0, 34, 0
3, 8640, Note_on_c, 0, 38, 101
3, 9596, Note_on_c, 0, 38, 0
3, 9598, Note_on_c, 0, 38, 101
3, 10077, Note_on_c, 0, 38, 0
3, 10079, Note_on_c, 0, 34, 103
3, 10557, Note_on_c, 0, 34, 0
3, 10558, Note_on_c, 0, 41, 99
3, 11037, Note_on_c, 0, 41, 0
3, 11040, Note_on_c, 0, 36, 102
3, 11517, Note_on_c, 0, 36, 0
3, 11518, Note_on_c, 0, 31, 103
3, 11997, Note_on_c, 0, 31, 0
3, 12002, Note_on_c, 0, 39, 101
3, 12477, Note_on_c, 0, 39, 0
3, 12479, Note_on_c, 0, 34, 103
3, 12957, Note_on_c, 0, 34, 0
3, 12958, Note_on_c, 0, 38, 99
3, 13076, Note_on_c, 0, 38, 0
3, 13078, Note_on_c, 0, 38, 103
3, 13137, Note_on_c, 0, 38, 0
3, 13141, Note_on_c, 0, 38, 101
3, 13197, Note_on_c, 0, 38, 0
3, 13201, Note_on_c, 0, 38, 101
3, 13257, Note_on_c, 0, 38, 0
3, 13261, Note_on_c, 0, 38, 98
3, 13317, Note_on_c, 0, 38, 0
3, 13322, Note_on_c, 0, 38, 101
3, 13377, Note_on_c, 0, 38, 0
3, 13382, Note_on_c, 0, 38, 98
3, 13437, Note_on_c, 0, 38, 0
3, 13442, Note_on_c, 0, 38, 99
3, 13497, Note_on_c, 0, 38, 0
3, 13498, Note_on_c, 0, 38, 101
3, 13557, Note_on_c, 0, 38, 0
3, 13562, Note_on_c, 0, 38, 103
3, 13617, Note_on_c, 0, 38, 0
3, 13622, Note_on_c, 0, 38, 102
3, 13677, Note_on_c, 0, 38, 0
3, 13679, Note_on_c, 0, 38, 101
3, 13737, Note_on_c, 0, 38, 0
3, 13738, Note_on_c, 0, 38, 98
3, 13797, Note_on_c, 0, 38, 0
3, 13798, Note_on_c, 0, 38, 99
3, 13917, Note_on_c, 0, 38, 0
3, 13921, Note_on_c, 0, 43, 102
3, 14097, Note_on_c, 0, 43, 0
3, 14101, Note_on_c, 0, 39, 99
3, 14336, Note_on_c, 0, 39, 0
3, 14342, Note_on_c, 0, 33, 80
3, 14397, Note_on_c, 0, 33, 0
3, 14402, Note_on_c, 0, 34, 99
3, 14577, Note_on_c, 0, 34, 0
3, 14579, Note_on_c, 0, 41, 103
3, 14817, Note_on_c, 0, 41, 0
3, 14822, Note_on_c, 0, 34, 83
3, 14877, Note_on_c, 0, 34, 0
3, 14882, Note_on_c, 0, 36, 100
3, 15057, Note_on_c, 0, 36, 0
3, 15058, Note_on_c, 0, 32, 100
3, 15297, Note_on_c, 0, 32, 0
3, 15301, Note_on_c, 0, 34, 102
3, 15357, Note_on_c, 0, 34, 0
3, 15358, Note_on_c, 0, 39, 98
3, 15537, Note_on_c, 0, 39, 0
3, 15540, Note_on_c, 0, 34, 98
3, 15836, Note_on_c, 0, 34, 0
3, 15838, Note_on_c, 0, 33, 98
3, 16017, Note_on_c, 0, 33, 0
3, 16020, Note_on_c, 0, 41, 103
3, 16258, Note_on_c, 0, 41, 0
3, 16259, Note_on_c, 0, 34, 80
3, 16317, Note_on_c, 0, 34, 0
3, 16322, Note_on_c, 0, 36, 100
3, 16497, Note_on_c, 0, 36, 0
3, 16498, Note_on_c, 0, 43, 102
3, 16676, Note_on_c, 0, 43, 0
3, 16682, Note_on_c, 0, 36, 99
3, 16797, Note_on_c, 0, 36, 0
3, 16799, Note_on_c, 0, 38, 102
3, 16977, Note_on_c, 0, 38, 0
3, 16978, Note_on_c, 0, 34, 101
3, 17217, Note_on_c, 0, 34, 0
3, 17219, Note_on_c, 0, 34, 78
3, 17277, Note_on_c, 0, 34, 0
3, 17280, Note_on_c, 0, 41, 98
3, 17457, Note_on_c, 0, 41, 0
3, 17459, Note_on_c, 0, 36, 100
3, 17576, Note_on_c, 0, 36, 0
3, 17582, Note_on_c, 0, 36, 101
3, 17637, Note_on_c, 0, 36, 0
3, 17638, Note_on_c, 0, 36, 103
3, 17757, Note_on_c, 0, 36, 0
3, 17760, Note_on_c, 0, 38, 98
3, 17937, Note_on_c, 0, 38, 0
3, 17939, Note_on_c, 0, 34, 103
3, 18056, Note_on_c, 0, 34, 0
3, 18061, Note_on_c, 0, 34, 99
3, 18117, Note_on_c, 0, 34, 0
3, 18121, Note_on_c, 0, 36, 99
3, 18177, Note_on_c, 0, 36, 0
3, 18182, Note_on_c, 0, 38, 103
3, 18237, Note_on_c, 0, 38, 0
3, 18242, Note_on_c, 0, 41, 101
3, 18297, Note_on_c, 0, 41, 0
3, 18300, Note_on_c, 0, 39, 103
3, 18357, Note_on_c, 0, 39, 0
3, 18360, Note_on_c, 0, 38, 99
3, 18417, Note_on_c, 0, 38, 0
3, 18421, Note_on_c, 0, 36, 98
3, 18536, Note_on_c, 0, 36, 0
3, 18540, Note_on_c, 0, 33, 99
3, 18597, Note_on_c, 0, 33, 0
3, 18598, Note_on_c, 0, 34, 100
3, 18657, Note_on_c, 0, 34, 0
3, 18658, Note_on_c, 0, 36, 103
3, 18717, Note_on_c, 0, 36, 0
3, 18721, Note_on_c, 0, 38, 99
3, 18777, Note_on_c, 0, 38, 0
3, 18781, Note_on_c, 0, 31, 103
3, 18837, Note_on_c, 0, 31, 0
3, 18839, Note_on_c, 0, 33, 101
3, 18897, Note_on_c, 0, 33, 0
3, 18898, Note_on_c, 0, 34, 101
3, 19016, Note_on_c, 0, 34, 0
3, 19022, Note_on_c, 0, 34, 103
3, 19077, Note_on_c, 0, 34, 0
3, 19079, Note_on_c, 0, 36, 99
3, 19137, Note_on_c, 0, 36, 0
3, 19140, Note_on_c, 0, 38, 102
3, 19197, Note_on_c, 0, 38, 0
3, 19199, Note_on_c, 0, 41, 98
3, 19257, Note_on_c, 0, 41, 0
3, 19258, Note_on_c, 0, 39, 103
3, 19317, Note_on_c, 0, 39, 0
3, 19320, Note_on_c, 0, 38, 100
3, 19377, Note_on_c, 0, 38, 0
3, 19378, Note_on_c, 0, 36, 98
3, 19496, Note_on_c, 0, 36, 0
3, 19499, Note_on_c, 0, 33, 99
3, 19557, Note_on_c, 0, 33, 0
3, 19558, Note_on_c, 0, 34, 100
3, 19617, Note_on_c, 0, 34, 0
3, 19620, Note_on_c, 0, 36, 99
3, 19677, Note_on_c, 0, 36, 0
3, 19681, Note_on_c, 0, 38, 103
3, 19737, Note_on_c, 0, 38, 0
3, 19740, Note_on_c, 0, 31, 100
3, 19797, Note_on_c, 0, 31, 0
3, 19798, Note_on_c, 0, 33, 98
3, 19857, Note_on_c, 0, 33, 0
3, 19860, Note_on_c, 0, 34, 101
3, 19976, Note_on_c, 0, 34, 0
3, 19979, Note_on_c, 0, 34, 99
3, 20037, Note_on_c, 0, 34, 0
3, 20039, Note_on_c, 0, 36, 100
3, 20097, Note_on_c, 0, 36, 0
3, 20102, Note_on_c, 0, 38, 100
3, 20157, Note_on_c, 0, 38, 0
3, 20159, Note_on_c, 0, 41, 100
3, 20217, Note_on_c, 0, 41, 0
3, 20219, Note_on_c, 0, 39, 100
3, 20277, Note_on_c, 0, 39, 0
3, 20279, Note_on_c, 0, 38, 101
3, 20337, Note_on_c, 0, 38, 0
3, 20342, Note_on_c, 0, 36, 99
3, 20456, Note_on_c, 0, 36, 0
3, 20458, Note_on_c, 0, 33, 99
3, 20517, Note_on_c, 0, 33, 0
3, 20519, Note_on_c, 0, 34, 103
3, 20577, Note_on_c, 0, 34, 0
3, 20579, Note_on_c, 0, 36, 98
3, 20637, Note_on_c, 0, 36, 0
3, 20640, Note_on_c, 0, 38, 99
3, 20697, Note_on_c, 0, 38, 0
3, 20698, Note_on_c, 0, 31, 99
3, 20757, Note_on_c, 0, 31, 0
3, 20761, Note_on_c, 0, 33, 98
3, 20817, Note_on_c, 0, 33, 0
3, 20820, Note_on_c, 0, 34, 99
3, 20936, Note_on_c, 0, 34, 0
3, 20941, Note_on_c, 0, 34, 103
3, 20997, Note_on_c, 0, 34, 0
3, 21002, Note_on_c, 0, 36, 101
3, 21057, Note_on_c, 0, 36, 0
3, 21061, Note_on_c, 0, 38, 98
3, 21117, Note_on_c, 0, 38, 0
3, 21119, Note_on_c, 0, 41, 102
3, 21177, Note_on_c, 0, 41, 0
3, 21179, Note_on_c, 0, 39, 99
3, 21237, Note_on_c, 0, 39, 0
3, 21240, Note_on_c, 0, 38, 101
3, 21297, Note_on_c, 0, 38, 0
3, 21298, Note_on_c, 0, 36, 103
3, 21416, Note_on_c, 0, 36, 0
3, 21421, Note_on_c, 0, 33, 101
3, 21477, Note_on_c, 0, 33, 0
3, 21481, Note_on_c, 0, 34, 102
3, 21537, Note_on_c, 0, 34, 0
3, 21541, Note_on_c, 0, 36, 99
3, 21597, Note_on_c, 0, 36, 0
3, 21599, Note_on_c, 0, 34, 99
3, 22556, Note_on_c, 0, 34, 0
3, 22559, Note_on_c, 0, 38, 100
3, 23037, Note_on_c, 0, 38, 0
3, 23040, Note_on_c, 0, 34, 99
3, 23517, Note_on_c, 0, 34, 0
3, 23522, Note_on_c, 0, 29, 99
3, 23997, Note_on_c, 0, 29, 0
3, 24001, Note_on_c, 0, 36, 101
3, 24477, Note_on_c, 0, 36, 0
3, 24478, Note_on_c, 0, 31, 103
3, 24957, Note_on_c, 0, 31, 0
3, 24958, Note_on_c, 0, 39, 98
3, 25437, Note_on_c, 0, 39, 0
3, 25439, Note_on_c, 0, 34, 102
3, 25917, Note_on_c, 0, 34, 0
3, 25920, Note_on_c, 0, 38, 86
3, 26036, Note_on_c, 0, 38, 0
3, 26040, Note_on_c, 0, 38, 85
3, 26097, Note_on_c, 0, 38, 0
3, 26099, Note_on_c, 0, 38, 88
3, 26157, Note_on_c, 0, 38, 0
3, 26159, Note_on_c, 0, 38, 90
3, 26217, Note_on_c, 0, 38, 0
3, 26221, Note_on_c, 0, 38, 89
3, 26277, Note_on_c, 0, 38, 0
3, 26279, Note_on_c, 0, 38, 93
3, 26337, Note_on_c, 0, 38, 0
3, 26339, Note_on_c, 0, 38, 93
3, 26397, Note_on_c, 0, 38, 0
3, 26400, Note_on_c, 0, 38, 91
3, 26457, Note_on_c, 0, 38, 0
3, 26462, Note_on_c, 0, 38, 95
3, 26517, Note_on_c, 0, 38, 0
3, 26522, Note_on_c, 0, 38, 97
3, 26577, Note_on_c, 0, 38, 0
3, 26580, Note_on_c, 0, 38, 98
3, 26637, Note_on_c, 0, 38, 0
3, 26642, Note_on_c, 0, 38, 100
3, 26697, Note_on_c, 0, 38, 0
3, 26702, Note_on_c, 0, 38, 97
3, 26757, Note_on_c, 0, 38, 0
3, 26881, Note_on_c, 0, 43, 103
3, 27057, Note_on_c, 0, 43, 0
3, 27059, Note_on_c, 0, 39, 102
3, 27296, Note_on_c, 0, 39, 0
3, 27298, Note_on_c, 0, 33, 83
3, 27357, Note_on_c, 0, 33, 0
3, 27358, Note_on_c, 0, 34, 98
3, 27537, Note_on_c, 0, 34, 0
3, 27538, Note_on_c, 0, 41, 98
3, 27777, Note_on_c, 0, 41, 0
3, 27781, Note_on_c, 0, 34, 82
3, 27837, Note_on_c, 0, 34, 0
3, 27840, Note_on_c, 0, 36, 98
3, 28017, Note_on_c, 0, 36, 0
3, 28018, Note_on_c, 0, 32, 100
3, 28257, Note_on_c, 0, 32, 0
3, 28261, Note_on_c, 0, 34, 101
3, 28317, Note_on_c, 0, 34, 0
3, 28320, Note_on_c, 0, 39, 100
3, 28497, Note_on_c, 0, 39, 0
3, 28498, Note_on_c, 0, 34, 100
3, 28796, Note_on_c, 0, 34, 0
3, 28798, Note_on_c, 0, 33, 100
3, 28977, Note_on_c, 0, 33, 0
3, 28981, Note_on_c, 0, 41, 99
3, 29217, Note_on_c, 0, 41, 0
3, 29219, Note_on_c, 0, 34, 78
3, 29277, Note_on_c, 0, 34, 0
3, 29282, Note_on_c, 0, 36, 98
3, 29457, Note_on_c, 0, 36, 0
3, 29462, Note_on_c, 0, 43, 103
3, 29636, Note_on_c, 0, 43, 0
3, 29642, Note_on_c, 0, 36, 99
3, 29757, Note_on_c, 0, 36, 0
3, 29758, Note_on_c, 0, 38, 99
3, 29937, Note_on_c, 0, 38, 0
3, 29938, Note_on_c, 0, 34, 102
3, 30177, Note_on_c, 0, 34, 0
3, 30181, Note_on_c, 0, 34, 83
3, 30237, Note_on_c, 0, 34, 0
3, 30239, Note_on_c, 0, 41, 100
3, 30417, Note_on_c, 0, 41, 0
3, 30418, Note_on_c, 0, 36, 99
3, 30536, Note_on_c, 0, 36, 0
3, 30542, Note_on_c, 0, 36, 99
3, 30597, Note_on_c, 0, 36, 0
3, 30602, Note_on_c, 0, 36, 101
3, 30717, Note_on_c, 0, 36, 0
3, 30719, Note_on_c, 0, 38, 101
3, 30897, Note_on_c, 0, 38, 0
3, 30901, Note_on_c, 0, 34, 103
3, 31016, Note_on_c, 0, 34, 0
3, 31020, Note_on_c, 0, 34, 98
3, 31077, Note_on_c, 0, 34, 0
3, 31078, Note_on_c, 0, 36, 100
3, 31137, Note_on_c, 0, 36, 0
3, 31139, Note_on_c, 0, 38, 101
3, 31197, Note_on_c, 0, 38, 0
3, 31202, Note_on_c, 0, 41, 98
3, 31257, Note_on_c, 0, 41, 0
3, 31260, Note_on_c, 0, 39, 100
3, 31317, Note_on_c, 0, 39, 0
3, 31322, Note_on_c, 0, 38, 98
3, 31377, Note_on_c, 0, 38, 0
3, 31378, Note_on_c, 0, 36, 99
3, 31496, Note_on_c, 0, 36, 0
3, 31501, Note_on_c, 0, 33, 102
3, 31557, Note_on_c, 0, 33, 0
3, 31558, Note_on_c, 0, 34, 99
3, 31617, Note_on_c, 0, 34, 0
3, 31620, Note_on_c, 0, 36, 99
3, 31677, Note_on_c, 0, 36, 0
3, 31680, Note_on_c, 0, 38, 101
3, 31737, Note_on_c, 0, 38, 0
3, 31742, Note_on_c, 0, 31, 101
3, 31797, Note_on_c, 0, 31, 0
3, 31802, Note_on_c, 0, 33, 102
3, 31857, Note_on_c, 0, 33, 0
3, 31862, Note_on_c, 0, 34, 102
3, 31976, Note_on_c, 0, 34, 0
3, 31982, Note_on_c, 0, 34, 101
3, 32037, Note_on_c, 0, 34, 0
3, 32038, Note_on_c, 0, 36, 98
3, 32097, Note_on_c, 0, 36, 0
3, 32102, Note_on_c, 0, 38, 103
3, 32157, Note_on_c, 0, 38, 0
3, 32158, Note_on_c, 0, 41, 102
3, 32217, Note_on_c, 0, 41, 0
3, 32220, Note_on_c, 0, 39, 101
3, 32277, Note_on_c, 0, 39, 0
3, 32278, Note_on_c, 0, 38, 100
3, 32337, Note_on_c, 0, 38, 0
3, 32341, Note_on_c, 0, 36, 99
3, 32456, Note_on_c, 0, 36, 0
3, 32461, Note_on_c, 0, 33, 100
3, 32517, Note_on_c, 0, 33, 0
3, 32521, Note_on_c, 0, 34, 102
3, 32577, Note_on_c, 0, 34, 0
3, 32582, Note_on_c, 0, 36, 99
3, 32637, Note_on_c, 0, 36, 0
3, 32641, Note_on_c, 0, 38, 99
3, 32697, Note_on_c, 0, 38, 0
3, 32700, Note_on_c, 0, 31, 103
3, 32757, Note_on_c, 0, 31, 0
3, 32759, Note_on_c, 0, 33, 103
3, 32817, Note_on_c, 0, 33, 0
3, 32821, Note_on_c, 0, 34, 98
3, 32936, Note_on_c, 0, 34, 0
3, 32941, Note_on_c, 0, 34, 98
3, 32997, Note_on_c, 0, 34, 0
3, 33000, Note_on_c, 0, 36, 98
3, 33057, Note_on_c, 0, 36, 0
3, 33058, Note_on_c, 0, 38, 102
3, 33117, Note_on_c, 0, 38, 0
3, 33118, Note_on_c, 0, 41, 103
3, 33177, Note_on_c, 0, 41, 0
3, 33181, Note_on_c, 0, 39, 101
3, 33237, Note_on_c, 0, 39, 0
3, 33242, Note_on_c, 0, 38, 100
3, 33297, Note_on_c, 0, 38, 0
3, 33302, Note_on_c, 0, 36, 99
3, 33416, Note_on_c, 0, 36, 0
3, 33419, Note_on_c, 0, 33, 102
3, 33477, Note_on_c, 0, 33, 0
3, 33479, Note_on_c, 0, 34, 102
3, 33537, Note_on_c, 0, 34, 0
3, 33542, Note_on_c, 0, 36, 103
3, 33597, Note_on_c, 0, 36, 0
3, 33598, Note_on_c, 0, 38, 103
3, 33657, Note_on_c, 0, 38, 0
3, 33658, Note_on_c, 0, 31, 102
3, 33717, Note_on_c, 0, 31, 0
3, 33721, Note_on_c, 0, 33, 102
3, 33777, Note_on_c, 0, 33, 0
3, 33778, Note_on_c, 0, 34, 98
3, 33896, Note_on_c, 0, 34, 0
3, 33898, Note_on_c, 0, 34, 100
3, 33957, Note_on_c, 0, 34, 0
3, 33960, Note_on_c, 0, 36, 103
3, 34017, Note_on_c, 0, 36, 0
3, 34019, Note_on_c, 0, 38, 101
3, 34077, Note_on_c, 0, 38, 0
3, 34082, Note_on_c, 0, 41, 102
3, 34137, Note_on_c, 0, 41, 0
3, 34141, Note_on_c, 0, 39, 100
3, 34197, Note_on_c, 0, 39, 0
3, 34200, Note_on_c, 0, 38, 103
3, 34257, Note_on_c, 0, 38, 0
3, 34260, Note_on_c, 0, 36, 101
3, 34376, Note_on_c, 0, 36, 0
3, 34380, Note_on_c, 0, 33, 101
3, 34437, Note_on_c, 0, 33, 0
3, 34442, Note_on_c, 0, 34, 98
3, 34497, Note_on_c, 0, 34, 0
3, 34502, Note_on_c, 0, 36, 101
3, 34557, Note_on_c, 0, 36, 0
3, 34562, Note_on_c, 0, 34, 84
3, 35516, Note_on_c, 0, 34, 0
3, 39358, Note_on_c, 0, 31, 102
3, 39837, Note_on_c, 0, 31, 0
3, 39839, Note_on_c, 0, 39, 102
3, 40317, Note_on_c, 0, 39, 0
3, 40318, Note_on_c, 0, 34, 98
3, 40797, Note_on_c, 0, 34, 0
3, 40799, Note_on_c, 0, 38, 91
3, 40917, Note_on_c, 0, 38, 0
3, 40922, Note_on_c, 0, 38, 92
3, 40977, Note_on_c, 0, 38, 0
3, 40981, Note_on_c, 0, 38, 92
3, 41037, Note_on_c, 0, 38, 0
3, 41038, Note_on_c, 0, 38, 95
3, 41097, Note_on_c, 0, 38, 0
3, 41100, Note_on_c, 0, 38, 95
3, 41157, Note_on_c, 0, 38, 0
3, 41161, Note_on_c, 0, 38, 97
3, 41217, Note_on_c, 0, 38, 0
3, 41222, Note_on_c, 0, 38, 95
3, 41277, Note_on_c, 0, 38, 0
3, 41279, Note_on_c, 0, 38, 101
3, 41337, Note_on_c, 0, 38, 0
3, 41341, Note_on_c, 0, 38, 100
3, 41397, Note_on_c, 0, 38, 0
3, 41401, Note_on_c, 0, 38, 101
3, 41457, Note_on_c, 0, 38, 0
3, 41460, Note_on_c, 0, 38, 99
3, 41517, Note_on_c, 0, 38, 0
3, 41520, Note_on_c, 0, 38, 100
3, 41577, Note_on_c, 0, 38, 0
3, 41580, Note_on_c, 0, 38, 104
3, 41637, Note_on_c, 0, 38, 0
3, 41642, Note_on_c, 0, 38, 105
3, 41697, Note_on_c, 0, 38, 0
3, 41701, Note_on_c, 0, 38, 106
3, 41757, Note_on_c, 0, 38, 0
3, 41760, Note_on_c, 0, 43, 98
3, 41937, Note_on_c, 0, 43, 0
3, 41940, Note_on_c, 0, 39, 99
3, 42176, Note_on_c, 0, 39, 0
3, 42181, Note_on_c, 0, 33, 80
3, 42237, Note_on_c, 0, 33, 0
3, 42242, Note_on_c, 0, 34, 103
3, 42417, Note_on_c, 0, 34, 0
3, 42420, Note_on_c, 0, 41, 103
3, 42657, Note_on_c, 0, 41, 0
3, 42662, Note_on_c, 0, 34, 82
3, 42717, Note_on_c, 0, 34, 0
3, 42721, Note_on_c, 0, 36, 98
3, 42897, Note_on_c, 0, 36, 0
3, 42902, Note_on_c, 0, 32, 99
3, 43137, Note_on_c, 0, 32, 0
3, 43141, Note_on_c, 0, 34, 103
3, 43197, Note_on_c, 0, 34, 0
3, 43199, Note_on_c, 0, 39, 103
3, 43377, Note_on_c, 0, 39, 0
3, 43379, Note_on_c, 0, 34, 99
3, 43676, Note_on_c, 0, 34, 0
3, 43679, Note_on_c, 0, 33, 100
3, 43857, Note_on_c, 0, 33, 0
3, 43858, Note_on_c, 0, 41, 99
3, 44097, Note_on_c, 0, 41, 0
3, 44098, Note_on_c, 0, 34, 78
3, 44157, Note_on_c, 0, 34, 0
3, 44161, Note_on_c, 0, 36, 101
3, 44337, Note_on_c, 0, 36, 0
3, 44338, Note_on_c, 0, 43, 102
3, 44516, Note_on_c, 0, 43, 0
3, 44522, Note_on_c, 0, 36, 101
3, 44637, Note_on_c, 0, 36, 0
3, 44641, Note_on_c, 0, 38, 102
3, 44817, Note_on_c, 0, 38, 0
3, 44818, Note_on_c, 0, 34, 101
3, 45057, Note_on_c, 0, 34, 0
3, 45058, Note_on_c, 0, 34, 82
3, 45117, Note_on_c, 0, 34, 0
3, 45118, Note_on_c, 0, 41, 102
3, 45297, Note_on_c, 0, 41, 0
3, 45302, Note_on_c, 0, 36, 102
3, 45416, Note_on_c, 0, 36, 0
3, 45419, Note_on_c, 0, 36, 102
3, 45477, Note_on_c, 0, 36, 0
3, 45481, Note_on_c, 0, 36, 102
3, 45597, Note_on_c, 0, 36, 0
3, 45600, Note_on_c, 0, 38, 99
3, 45777, Note_on_c, 0, 38, 0
3, 45781, Note_on_c, 0, 34, 101
3, 45896, Note_on_c, 0, 34, 0
3, 45900, Note_on_c, 0, 34, 98
3, 45957, Note_on_c, 0, 34, 0
3, 45959, Note_on_c, 0, 36, 103
3, 46017, Note_on_c, 0, 36, 0
3, 46022, Note_on_c, 0, 38, 103
3, 46077, Note_on_c, 0, 38, 0
3, 46080, Note_on_c, 0, 41, 100
3, 46137, Note_on_c, 0, 41, 0
3, 46141, Note_on_c, 0, 39, 100
3, 46197, Note_on_c, 0, 39, 0
3, 46199, Note_on_c, 0, 38, 99
3, 46257, Note_on_c, 0, 38, 0
3, 46259, Note_on_c, 0, 36, 100
3, 46376, Note_on_c, 0, 36, 0
3, 46381, Note_on_c, 0, 33, 101
3, 46437, Note_on_c, 0, 33, 0
3, 46440, Note_on_c, 0, 34, 102
3, 46497, Note_on_c, 0, 34, 0
3, 46498, Note_on_c, 0, 36, 98
3, 46557, Note_on_c, 0, 36, 0
3, 46560, Note_on_c, 0, 38, 100
3, 46617, Note_on_c, 0, 38, 0
3, 46619, Note_on_c, 0, 31, 102
3, 46677, Note_on_c, 0, 31, 0
3, 46678, Note_on_c, 0, 33, 101
3, 46737, Note_on_c, 0, 33, 0
3, 46742, Note_on_c, 0, 34, 103
3, 46856, Note_on_c, 0, 34, 0
3, 46860, Note_on_c, 0, 34, 102
3, 46917, Note_on_c, 0, 34, 0
3, 46922, Note_on_c, 0, 36, 98
3, 46977, Note_on_c, 0, 36, 0
3, 46981, Note_on_c, 0, 38, 98
3, 47037, Note_on_c, 0, 38, 0
3, 47042, Note_on_c, 0, 41, 100
3, 47097, Note_on_c, 0, 41, 0
3, 47098, Note_on_c, 0, 39, 100
3, 47157, Note_on_c, 0, 39, 0
3, 47159, Note_on_c, 0, 38, 100
3, 47217, Note_on_c, 0, 38, 0
3, 47219, Note_on_c, 0, 36, 101
3, 47336, Note_on_c, 0, 36, 0
3, 47342, Note_on_c, 0, 33, 103
3, 47397, Note_on_c, 0, 33, 0
3, 47398, Note_on_c, 0, 34, 99
3, 47457, Note_on_c, 0, 34, 0
3, 47460, Note_on_c, 0, 36, 99
3, 47517, Note_on_c, 0, 36, 0
3, 47518, Note_on_c, 0, 38, 103
3, 47577, Note_on_c, 0, 38, 0
3, 47579, Note_on_c, 0, 31, 102
3, 47637, Note_on_c, 0, 31, 0
3, 47641, Note_on_c, 0, 33, 101
3, 47697, Note_on_c, 0, 33, 0
3, 47701, Note_on_c, 0, 34, 102
3, 47816, Note_on_c, 0, 34, 0
3, 47820, Note_on_c, 0, 34, 98
3, 47877, Note_on_c, 0, 34, 0
3, 47878, Note_on_c, 0, 36, 99
3, 47937, Note_on_c, 0, 36, 0
3, 47939, Note_on_c, 0, 38, 103
3, 47997, Note_on_c, 0, 38, 0
3, 47999, Note_on_c, 0, 41, 102
3, 48057, Note_on_c, 0, 41, 0
3, 48059, Note_on_c, 0, 39, 103
3, 48117, Note_on_c, 0, 39, 0
3, 48121, Note_on_c, 0, 38, 103
3, 48177, Note_on_c, 0, 38, 0
3, 48181, Note_on_c, 0, 36, 99
3, 48296, Note_on_c, 0, 36, 0
3, 48299, Note_on_c, 0, 33, 102
3, 48357, Note_on_c, 0, 33, 0
3, 48358, Note_on_c, 0, 34, 101
3, 48417, Note_on_c, 0, 34, 0
3, 48421, Note_on_c, 0, 36, 98
3, 48477, Note_on_c, 0, 36, 0
3, 48480, Note_on_c, 0, 38, 103
3, 48537, Note_on_c, 0, 38, 0
3, 48539, Note_on_c, 0, 31, 98
3, 48597, Note_on_c, 0, 31, 0
3, 48600, Note_on_c, 0, 33, 103
3, 48657, Note_on_c, 0, 33, 0
3, 48661, Note_on_c, 0, 34, 102
3, 48776, Note_on_c, 0, 34, 0
3, 48779, Note_on_c, 0, 34, 102
3, 48837, Note_on_c, 0, 34, 0
3, 48842, Note_on_c, 0, 36, 102
3, 48897, Note_on_c, 0, 36, 0
3, 48902, Note_on_c, 0, 38, 102
3, 48957, Note_on_c, 0, 38, 0
3, 48959, Note_on_c, 0, 41, 102
3, 49017, Note_on_c, 0, 41, 0
3, 49019, Note_on_c, 0, 39, 98
3, 49077, Note_on_c, 0, 39, 0
3, 49082, Note_on_c, 0, 38, 101
3, 49137, Note_on_c, 0, 38, 0
3, 49138, Note_on_c, 0, 36, 103
3, 49256, Note_on_c, 0, 36, 0
3, 49258, Note_on_c, 0, 33, 99
3, 49317, Note_on_c, 0, 33, 0
3, 49319, Note_on_c, 0, 34, 99
3, 49377, Note_on_c, 0, 34, 0
3, 49382, Note_on_c, 0, 36, 103
3, 49437, Note_on_c, 0, 36, 0
3, 49439, Note_on_c, 0, 31, 101
3, 49557, Note_on_c, 0, 31, 0
3, 49560, Note_on_c, 0, 31, 78
3, 49617, Note_on_c, 0, 31, 0
3, 49619, Note_on_c, 0, 31, 76
3, 49677, Note_on_c, 0, 31, 0
3, 49678, Note_on_c, 0, 31, 79
3, 49737, Note_on_c, 0, 31, 0
3, 49740, Note_on_c, 0, 31, 81
3, 49797, Note_on_c, 0, 31, 0
3, 49802, Note_on_c, 0, 31, 84
3, 49857, Note_on_c, 0, 31, 0
3, 49859, Note_on_c, 0, 31, 87
3, 49917, Note_on_c, 0, 31, 0
3, 49919, Note_on_c, 0, 34, 87
3, 49977, Note_on_c, 0, 34, 0
3, 49978, Note_on_c, 0, 34, 87
3, 50037, Note_on_c, 0, 34, 0
3, 50038, Note_on_c, 0, 34, 89
3, 50097, Note_on_c, 0, 34, 0
3, 50100, Note_on_c, 0, 34, 93
3, 50157, Note_on_c, 0, 34, 0
3, 50161, Note_on_c, 0, 34, 96
3, 50217, Note_on_c, 0, 34, 0
3, 50219, Note_on_c, 0, 34, 96
3, 50277, Note_on_c, 0, 34, 0
3, 50282, Note_on_c, 0, 34, 97
3, 50337, Note_on_c, 0, 34, 0
3, 50340, Note_on_c, 0, 34, 103
3, 50397, Note_on_c, 0, 34, 0
3, 50398, Note_on_c, 0, 38, 102
3, 50577, Note_on_c, 0, 38, 0
3, 50578, Note_on_c, 0, 34, 100
3, 50696, Note_on_c, 0, 34, 0
3, 50699, Note_on_c, 0, 36, 99
3, 50757, Note_on_c, 0, 36, 0
3, 50762, Note_on_c, 0, 38, 99
3, 50817, Note_on_c, 0, 38, 0
3, 50818, Note_on_c, 0, 40, 99
3, 50877, Note_on_c, 0, 40, 0
3, 50881, Note_on_c, 0, 41, 102
3, 51057, Note_on_c, 0, 41, 0
3, 51059, Note_on_c, 0, 36, 103
3, 51177, Note_on_c, 0, 36, 0
3, 51180, Note_on_c, 0, 33, 98
3, 51237, Note_on_c, 0, 33, 0
3, 51242, Note_on_c, 0, 34, 102
3, 51297, Note_on_c, 0, 34, 0
3, 51300, Note_on_c, 0, 36, 98
3, 51357, Note_on_c, 0, 36, 0
3, 51361, Note_on_c, 0, 38, 101
3, 51537, Note_on_c, 0, 38, 0
3, 51541, Note_on_c, 0, 34, 101
3, 51656, Note_on_c, 0, 34, 0
3, 51659, Note_on_c, 0, 36, 101
3, 51717, Note_on_c, 0, 36, 0
3, 51719, Note_on_c, 0, 38, 100
3, 51777, Note_on_c, 0, 38, 0
3, 51840, Note_on_c, 0, 41, 99
3, 52017, Note_on_c, 0, 41, 0
3, 52140, Note_on_c, 0, 33, 101
3, 52197, Note_on_c, 0, 33, 0
3, 52259, Note_on_c, 0, 36, 99
3, 52317, Note_on_c, 0, 36, 0
3, 52322, Note_on_c, 0, 38, 100
3, 52497, Note_on_c, 0, 38, 0
3, 52498, Note_on_c, 0, 34, 101
3, 52616, Note_on_c, 0, 34, 0
3, 52622, Note_on_c, 0, 36, 98
3, 52677, Note_on_c, 0, 36, 0
3, 52681, Note_on_c, 0, 38, 103
3, 52737, Note_on_c, 0, 38, 0
3, 52742, Note_on_c, 0, 40, 103
3, 52797, Note_on_c, 0, 40, 0
3, 52798, Note_on_c, 0, 41, 99
3, 52977, Note_on_c, 0, 41, 0
3, 52980, Note_on_c, 0, 36, 100
3, 53097, Note_on_c, 0, 36, 0
3, 53100, Note_on_c, 0, 33, 103
3, 53157, Note_on_c, 0, 33, 0
3, 53160, Note_on_c, 0, 34, 103
3, 53217, Note_on_c, 0, 34, 0
3, 53219, Note_on_c, 0, 36, 98
3, 53277, Note_on_c, 0, 36, 0
3, 53280, Note_on_c, 0, 38, 99
3, 53338, Note_on_c, 0, 38, 0
3, 53343, Note_on_c, 0, 31, 103
3, 53398, Note_on_c, 0, 31, 0
3, 53399, Note_on_c, 0, 33, 103
3, 53458, Note_on_c, 0, 33, 0
3, 53461, Note_on_c, 0, 34, 98
3, 53577, Note_on_c, 0, 34, 0
3, 53582, Note_on_c, 0, 34, 103
3, 53638, Note_on_c, 0, 34, 0
3, 53640, Note_on_c, 0, 36, 103
3, 53698, Note_on_c, 0, 36, 0
3, 53700, Note_on_c, 0, 38, 102
3, 53758, Note_on_c, 0, 38, 0
3, 53762, Note_on_c, 0, 41, 99
3, 53818, Note_on_c, 0, 41, 0
3, 53821, Note_on_c, 0, 39, 99
3, 53878, Note_on_c, 0, 39, 0
3, 53881, Note_on_c, 0, 38, 101
3, 53938, Note_on_c, 0, 38, 0
3, 53943, Note_on_c, 0, 36, 98
3, 54057, Note_on_c, 0, 36, 0
3, 54062, Note_on_c, 0, 33, 99
3, 54118, Note_on_c, 0, 33, 0
3, 54121, Note_on_c, 0, 34, 103
3, 54178, Note_on_c, 0, 34, 0
3, 54181, Note_on_c, 0, 36, 99
3, 54238, Note_on_c, 0, 36, 0
3, 54241, Note_on_c, 0, 38, 102
3, 54298, Note_on_c, 0, 38, 0
3, 54302, Note_on_c, 0, 31, 102
3, 54358, Note_on_c, 0, 31, 0
3, 54361, Note_on_c, 0, 33, 100
3, 54418, Note_on_c, 0, 33, 0
3, 54421, Note_on_c, 0, 34, 103
3, 54537, Note_on_c, 0, 34, 0
3, 54539, Note_on_c, 0, 34, 102
3, 54598, Note_on_c, 0, 34, 0
3, 54599, Note_on_c, 0, 36, 99
3, 54658, Note_on_c, 0, 36, 0
3, 54663, Note_on_c, 0, 38, 103
3, 54718, Note_on_c, 0, 38, 0
3, 54720, Note_on_c, 0, 41, 103
3, 54777, Note_on_c, 0, 41, 0
3, 54779, Note_on_c, 0, 39, 99
3, 54837, Note_on_c, 0, 39, 0
3, 54838, Note_on_c, 0, 38, 101
3, 54897, Note_on_c, 0, 38, 0
3, 54899, Note_on_c, 0, 36, 103
3, 55016, Note_on_c, 0, 36, 0
3, 55019, Note_on_c, 0, 33, 103
3, 55077, Note_on_c, 0, 33, 0
3, 55082, Note_on_c, 0, 34, 100
3, 55137, Note_on_c, 0, 34, 0
3, 55141, Note_on_c, 0, 36, 102
3, 55197, Note_on_c, 0, 36, 0
3, 55199, Note_on_c, 0, 38, 98
3, 55257, Note_on_c, 0, 38, 0
3, 55261, Note_on_c, 0, 31, 100
3, 55317, Note_on_c, 0, 31, 0
3, 55320, Note_on_c, 0, 33, 99
3, 55377, Note_on_c, 0, 33, 0
3, 55382, Note_on_c, 0, 34, 103
3, 55496, Note_on_c, 0, 34, 0
3, 55499, Note_on_c, 0, 34, 103
3, 55557, Note_on_c, 0, 34, 0
3, 55561, Note_on_c, 0, 36, 99
3, 55617, Note_on_c, 0, 36, 0
3, 55622, Note_on_c, 0, 38, 100
3, 55677, Note_on_c, 0, 38, 0
3, 55679, Note_on_c, 0, 41, 99
3, 55737, Note_on_c, 0, 41, 0
3, 55738, Note_on_c, 0, 39, 100
3, 55797, Note_on_c, 0, 39, 0
3, 55800, Note_on_c, 0, 38, 102
3, 55857, Note_on_c, 0, 38, 0
3, 55861, Note_on_c, 0, 36, 99
3, 55976, Note_on_c, 0, 36, 0
3, 55980, Note_on_c, 0, 33, 100
3, 56037, Note_on_c, 0, 33, 0
3, 56039, Note_on_c, 0, 34, 102
3, 56097, Note_on_c, 0, 34, 0
3, 56098, Note_on_c, 0, 36, 100
3, 56157, Note_on_c, 0, 36, 0
3, 56159, Note_on_c, 0, 38, 99
3, 56217, Note_on_c, 0, 38, 0
3, 56222, Note_on_c, 0, 31, 103
3, 56277, Note_on_c, 0, 31, 0
3, 56278, Note_on_c, 0, 33, 103
3, 56337, Note_on_c, 0, 33, 0
3, 56340, Note_on_c, 0, 34, 98
3, 56456, Note_on_c, 0, 34, 0
3, 56461, Note_on_c, 0, 34, 103
3, 56517, Note_on_c, 0, 34, 0
3, 56519, Note_on_c, 0, 36, 103
3, 56577, Note_on_c, 0, 36, 0
3, 56579, Note_on_c, 0, 38, 102
3, 56637, Note_on_c, 0, 38, 0
3, 56641, Note_on_c, 0, 41, 99
3, 56697, Note_on_c, 0, 41, 0
3, 56700, Note_on_c, 0, 39, 99
3, 56757, Note_on_c, 0, 39, 0
3, 56760, Note_on_c, 0, 38, 101
3, 56817, Note_on_c, 0, 38, 0
3, 56822, Note_on_c, 0, 36, 98
3, 56936, Note_on_c, 0, 36, 0
3, 56941, Note_on_c, 0, 33, 99
3, 56997, Note_on_c, 0, 33, 0
3, 57000, Note_on_c, 0, 34, 103
3, 57057, Note_on_c, 0, 34, 0
3, 57060, Note_on_c, 0, 36, 99
3, 57117, Note_on_c, 0, 36, 0
3, 57120, Note_on_c, 0, 38, 102
3, 57177, Note_on_c, 0, 38, 0
3, 57181, Note_on_c, 0, 31, 102
3, 57237, Note_on_c, 0, 31, 0
3, 57240, Note_on_c, 0, 33, 100
3, 57297, Note_on_c, 0, 33, 0
3, 57300, Note_on_c, 0, 34, 103
3, 57416, Note_on_c, 0, 34, 0
3, 57418, Note_on_c, 0, 34, 102
3, 57477, Note_on_c, 0, 34, 0
3, 57478, Note_on_c, 0, 36, 99
3, 57537, Note_on_c, 0, 36, 0
3, 57542, Note_on_c, 0, 38, 103
3, 57597, Note_on_c, 0, 38, 0
3, 57601, Note_on_c, 0, 41, 102
3, 57657, Note_on_c, 0, 41, 0
3, 57659, Note_on_c, 0, 39, 100
3, 57717, Note_on_c, 0, 39, 0
3, 57721, Note_on_c, 0, 38, 99
3, 57777, Note_on_c, 0, 38, 0
3, 57780, Note_on_c, 0, 36, 98
3, 57896, Note_on_c, 0, 36, 0
3, 57900, Note_on_c, 0, 33, 98
3, 57957, Note_on_c, 0, 33, 0
3, 57960, Note_on_c, 0, 34, 100
3, 58017, Note_on_c, 0, 34, 0
3, 58019, Note_on_c, 0, 36, 102
3, 58077, Note_on_c, 0, 36, 0
3, 58082, Note_on_c, 0, 38, 99
3, 58257, Note_on_c, 0, 38, 0
3, 58262, Note_on_c, 0, 34, 100
3, 58376, Note_on_c, 0, 34, 0
3, 58381, Note_on_c, 0, 34, 98
3, 58437, Note_on_c, 0, 34, 0
3, 58441, Note_on_c, 0, 36, 98
3, 58497, Note_on_c, 0, 36, 0
3, 58500, Note_on_c, 0, 38, 98
3, 58557, Note_on_c, 0, 38, 0
3, 58562, Note_on_c, 0, 41, 103
3, 58617, Note_on_c, 0, 41, 0
3, 58618, Note_on_c, 0, 39, 101
3, 58677, Note_on_c, 0, 39, 0
3, 58682, Note_on_c, 0, 38, 98
3, 58737, Note_on_c, 0, 38, 0
3, 58741, Note_on_c, 0, 36, 98
3, 58856, Note_on_c, 0, 36, 0
3, 58859, Note_on_c, 0, 33, 102
3, 58917, Note_on_c, 0, 33, 0
3, 58922, Note_on_c, 0, 34, 101
3, 58977, Note_on_c, 0, 34, 0
3, 58978, Note_on_c, 0, 36, 101
3, 59037, Note_on_c, 0, 36, 0
3, 59042, Note_on_c, 0, 38, 99
3, 59097, Note_on_c, 0, 38, 0
3, 59098, Note_on_c, 0, 31, 100
3, 59157, Note_on_c, 0, 31, 0
3, 59159, Note_on_c, 0, 33, 98
3, 59217, Note_on_c, 0, 33, 0
3, 59219, Note_on_c, 0, 34, 99
3, 59336, Note_on_c, 0, 34, 0
3, 59338, Note_on_c, 0, 34, 103
3, 59397, Note_on_c, 0, 34, 0
3, 59399, Note_on_c, 0, 36, 103
3, 59457, Note_on_c, 0, 36, 0
3, 59459, Note_on_c, 0, 38, 98
3, 59517, Note_on_c, 0, 38, 0
3, 59519, Note_on_c, 0, 41, 101
3, 59577, Note_on_c, 0, 41, 0
3, 59582, Note_on_c, 0, 39, 101
3, 59637, Note_on_c, 0, 39, 0
3, 59642, Note_on_c, 0, 38, 98
3, 59697, Note_on_c, 0, 38, 0
3, 59702, Note_on_c, 0, 36, 102
3, 59816, Note_on_c, 0, 36, 0
3, 59820, Note_on_c, 0, 33, 102
3, 59877, Note_on_c, 0, 33, 0
3, 59879, Note_on_c, 0, 34, 102
3, 59937, Note_on_c, 0, 34, 0
3, 59940, Note_on_c, 0, 36, 103
3, 59997, Note_on_c, 0, 36, 0
3, 60000, Control_c, 0, 11, 127
3, 60000, Note_on_c, 0, 38, 103
3, 60031, Control_c, 0, 11, 126
3, 60057, Note_on_c, 0, 38, 0
3, 60060, Note_on_c, 0, 31, 98
3, 60062, Control_c, 0, 11, 125
3, 60093, Control_c, 0, 11, 124
3, 60117, Note_on_c, 0, 31, 0
3, 60118, Note_on_c, 0, 33, 98
3, 60124, Control_c, 0, 11, 123
3, 60155, Control_c, 0, 11, 122
3, 60177, Note_on_c, 0, 33, 0
3, 60180, Note_on_c, 0, 34, 101
3, 60187, Control_c, 0, 11, 121
3, 60218, Control_c, 0, 11, 120
3, 60249, Control_c, 0, 11, 119
3, 60280, Control_c, 0, 11, 118
3, 60296, Note_on_c, 0, 34, 0
3, 60302, Note_on_c, 0, 34, 102
3, 60311, Control_c, 0, 11, 117
3, 60342, Control_c, 0, 11, 116
3, 60357, Note_on_c, 0, 34, 0
3, 60361, Note_on_c, 0, 36, 101
3, 60374, Control_c, 0, 11, 115
3, 60405, Control_c, 0, 11, 114
3, 60417, Note_on_c, 0, 36, 0
3, 60419, Note_on_c, 0, 38, 98
3, 60436, Control_c, 0, 11, 113
3, 60467, Control_c, 0, 11, 112
3, 60477, Note_on_c, 0, 38, 0
3, 60479, Note_on_c, 0, 41, 98
3, 60498, Control_c, 0, 11, 111
3, 60530, Control_c, 0, 11, 110
3, 60537, Note_on_c, 0, 41, 0
3, 60538, Note_on_c, 0, 39, 102
3, 60561, Control_c, 0, 11, 109
3, 60592, Control_c, 0, 11, 108
3, 60597, Note_on_c, 0, 39, 0
3, 60601, Note_on_c, 0, 38, 99
3, 60623, Control_c, 0, 11, 107
3, 60654, Control_c, 0, 11, 106
3, 60657, Note_on_c, 0, 38, 0
3, 60662, Note_on_c, 0, 36, 100
3, 60685, Control_c, 0, 11, 105
3, 60717, Control_c, 0, 11, 104
3, 60748, Control_c, 0, 11, 103
3, 60776, Note_on_c, 0, 36, 0
3, 60778, Note_on_c, 0, 33, 103
3, 60779, Control_c, 0, 11, 102
3, 60810, Control_c, 0, 11, 101
3, 60837, Note_on_c, 0, 33, 0
3, 60841, Control_c, 0, 11, 100
3, 60842, Note_on_c, 0, 34, 98
3, 60873, Control_c, 0, 11, 99
3, 60897, Note_on_c, 0, 34, 0
3, 60899, Note_on_c, 0, 36, 101
3, 60904, Control_c, 0, 11, 98
3, 60935, Control_c, 0, 11, 97
3, 60957, Note_on_c, 0, 36, 0
3, 60959, Note_on_c, 0, 38, 99
3, 60966, Control_c, 0, 11, 96
3, 60997, Control_c, 0, 11, 95
3, 61017, Note_on_c, 0, 38, 0
3, 61022, Note_on_c, 0, 31, 101
3, 61028, Control_c, 0, 11, 94
3, 61060, Control_c, 0, 11, 93
3, 61077, Note_on_c, 0, 31, 0
3, 61082, Note_on_c, 0, 33, 98
3, 61091, Control_c, 0, 11, 92
3, 61122, Control_c, 0, 11, 91
3, 61137, Note_on_c, 0, 33, 0
3, 61142, Note_on_c, 0, 34, 102
3, 61153, Control_c, 0, 11, 90
3, 61184, Control_c, 0, 11, 89
3, 61216, Control_c, 0, 11, 88
3, 61247, Control_c, 0, 11, 87
3, 61256, Note_on_c, 0, 34, 0
3, 61262, Note_on_c, 0, 34, 100
3, 61278, Control_c, 0, 11, 86
3, 61309, Control_c, 0, 11, 85
3, 61317, Note_on_c, 0, 34, 0
3, 61322, Note_on_c, 0, 36, 101
3, 61340, Control_c, 0, 11, 84
3, 61371, Control_c, 0, 11, 83
3, 61377, Note_on_c, 0, 36, 0
3, 61381, Note_on_c, 0, 38, 103
3, 61403, Control_c, 0, 11, 82
3, 61434, Control_c, 0, 11, 81
3, 61437, Note_on_c, 0, 38, 0
3, 61439, Note_on_c, 0, 41, 100
3, 61465, Control_c, 0, 11, 80
3, 61496, Control_c, 0, 11, 79
3, 61497, Note_on_c, 0, 41, 0
3, 61499, Note_on_c, 0, 39, 99
3, 61527, Control_c, 0, 11, 78
3, 61557, Note_on_c, 0, 39, 0
3, 61559, Control_c, 0, 11, 77
3, 61560, Note_on_c, 0, 38, 100
3, 61590, Control_c, 0, 11, 76
3, 61617, Note_on_c, 0, 38, 0
3, 61620, Note_on_c, 0, 36, 101
3, 61621, Control_c, 0, 11, 75
3, 61652, Control_c, 0, 11, 74
3, 61683, Control_c, 0, 11, 73
3, 61714, Control_c, 0, 11, 72
3, 61736, Note_on_c, 0, 36, 0
3, 61738, Note_on_c, 0, 33, 101
3, 61746, Control_c, 0, 11, 71
3, 61777, Control_c, 0, 11, 70
3, 61797, Note_on_c, 0, 33, 0
3, 61800, Note_on_c, 0, 34, 103
3, 61808, Control_c, 0, 11, 69
3, 61839, Control_c, 0, 11, 68
3, 61857, Note_on_c, 0, 34, 0
3, 61858, Note_on_c, 0, 36, 98
3, 61870, Control_c, 0, 11, 67
3, 61902, Control_c, 0, 11, 66
3, 61917, Note_on_c, 0, 36, 0
3, 61918, Note_on_c, 0, 38, 103
3, 61933, Control_c, 0, 11, 65
3, 61964, Control_c, 0, 11, 64
3, 61977, Note_on_c, 0, 38, 0
3, 61979, Note_on_c, 0, 31, 102
3, 61995, Control_c, 0, 11, 63
3, 62026, Control_c, 0, 11, 62
3, 62037, Note_on_c, 0, 31, 0
3, 62041, Note_on_c, 0, 33, 101
3, 62057, Control_c, 0, 11, 61
3, 62089, Control_c, 0, 11, 60
3, 62097, Note_on_c, 0, 33, 0
3, 62098, Note_on_c, 0, 34, 98
3, 62120, Control_c, 0, 11, 59
3, 62151, Control_c, 0, 11, 58
3, 62182, Control_c, 0, 11, 57
3, 62213, Control_c, 0, 11, 56
3, 62216, Note_on_c, 0, 34, 0
3, 62220, Note_on_c, 0, 34, 99
3, 62245, Control_c, 0, 11, 55
3, 62276, Control_c, 0, 11, 54
3, 62277, Note_on_c, 0, 34, 0
3, 62279, Note_on_c, 0, 36, 101
3, 62307, Control_c, 0, 11, 53
3, 62337, Note_on_c, 0, 36, 0
3, 62338, Control_c, 0, 11, 52
3, 62342, Note_on_c, 0, 38, 99
3, 62369, Control_c, 0, 11, 51
3, 62397, Note_on_c, 0, 38, 0
3, 62400, Control_c, 0, 11, 50
3, 62402, Note_on_c, 0, 41, 101
3, 62432, Control_c, 0, 11, 49
3, 62457, Note_on_c, 0, 41, 0
3, 62461, Note_on_c, 0, 39, 98
3, 62463, Control_c, 0, 11, 48
3, 62494, Control_c, 0, 11, 47
3, 62517, Note_on_c, 0, 39, 0
3, 62521, Note_on_c, 0, 38, 103
3, 62525, Control_c, 0, 11, 46
3, 62556, Control_c, 0, 11, 45
3, 62577, Note_on_c, 0, 38, 0
3, 62579, Note_on_c, 0, 36, 101
3, 62588, Control_c, 0, 11, 44
3, 62619, Control_c, 0, 11, 43
3, 62650, Control_c, 0, 11, 42
3, 62681, Control_c, 0, 11, 41
3, 62696, Note_on_c, 0, 36, 0
3, 62698, Note_on_c, 0, 33, 102
3, 62712, Control_c, 0, 11, 40
3, 62743, Control_c, 0, 11, 39
3, 62757, Note_on_c, 0, 33, 0
3, 62761, Note_on_c, 0, 34, 102
3, 62775, Control_c, 0, 11, 38
3, 62806, Control_c, 0, 11, 37
3, 62817, Note_on_c, 0, 34, 0
3, 62822, Note_on_c, 0, 36, 102
3, 62837, Control_c, 0, 11, 36
3, 62868, Control_c, 0, 11, 35
3, 62877, Note_on_c, 0, 36, 0
3, 62879, Note_on_c, 0, 38, 103
3, 62899, Control_c, 0, 11, 34
3, 62931, Control_c, 0, 11, 33
3, 62937, Note_on_c, 0, 38, 0
3, 62941, Note_on_c, 0, 31, 100
3, 62962, Control_c, 0, 11, 32
3, 62993, Control_c, 0, 11, 31
3, 62997, Note_on_c, 0, 31, 0
3, 63001, Note_on_c, 0, 33, 101
3, 63024, Control_c, 0, 11, 30
3, 63055, Control_c, 0, 11, 29
3, 63057, Note_on_c, 0, 33, 0
3, 63059, Note_on_c, 0, 34, 101
3, 63086, Control_c, 0, 11, 28
3, 63118, Control_c, 0, 11, 27
3, 63149, Control_c, 0, 11, 26
3, 63176, Note_on_c, 0, 34, 0
3, 63180, Control_c, 0, 11, 25
3, 63182, Note_on_c, 0, 34, 100
3, 63211, Control_c, 0, 11, 24
3, 63237, Note_on_c, 0, 34, 0
3, 63241, Note_on_c, 0, 36, 103
3, 63242, Control_c, 0, 11, 23
3, 63274, Control_c, 0, 11, 22
3, 63297, Note_on_c, 0, 36, 0
3, 63298, Note_on_c, 0, 38, 100
3, 63305, Control_c, 0, 11, 21
3, 63336, Control_c, 0, 11, 20
3, 63357, Note_on_c, 0, 38, 0
3, 63360, Note_on_c, 0, 41, 99
3, 63367, Control_c, 0, 11, 19
3, 63398, Control_c, 0, 11, 18
3, 63417, Note_on_c, 0, 41, 0
3, 63418, Note_on_c, 0, 39, 103
3, 63429, Control_c, 0, 11, 17
3, 63461, Control_c, 0, 11, 16
3, 63477, Note_on_c, 0, 39, 0
3, 63479, Note_on_c, 0, 38, 101
3, 63492, Control_c, 0, 11, 15
3, 63523, Control_c, 0, 11, 14
3, 63537, Note_on_c, 0, 38, 0
3, 63540, Note_on_c, 0, 36, 102
3, 63554, Control_c, 0, 11, 13
3, 63585, Control_c, 0, 11, 12
3, 63617, Control_c, 0, 11, 11
3, 63648, Control_c, 0, 11, 10
3, 63656, Note_on_c, 0, 36, 0
3, 63662, Note_on_c, 0, 33, 101
3, 63679, Control_c, 0, 11, 9
3, 63710, Control_c, 0, 11, 8
3, 63717, Note_on_c, 0, 33, 0
3, 63720, Note_on_c, 0, 34, 101
3, 63741, Control_c, 0, 11, 7
3, 63772, Control_c, 0, 11, 6
3, 63777, Note_on_c, 0, 34, 0
3, 63778, Note_on_c, 0, 36, 98
3, 63804, Control_c, 0, 11, 5
3, 63835, Control_c, 0, 11, 4
3, 63837, Note_on_c, 0, 36, 0
3, 63866, Control_c, 0, 11, 3
3, 63897, Control_c, 0, 11, 2
3, 63928, Control_c, 0, 11, 1
3, 63960, Control_c, 0, 11, 0
3, 64101, Control_c, 0, 11, 127
3, 64101, End_track
4, 0, Start_track
4, 0, MIDI_port, 0
4, 0, Program_c, 1, 30
4, 0, Control_c, 1, 7, 93
4, 0, Control_c, 1, 10, 64
4, 0, Control_c, 1, 91, 61
4, 0, Control_c, 1, 93, 10
4, 2877, Note_on_c, 1, 57, 103
4, 2877, Note_on_c, 1, 62, 98
4, 2879, Note_on_c, 1, 50, 100
4, 2936, Note_on_c, 1, 50, 0
4, 2936, Note_on_c, 1, 62, 0
4, 2936, Note_on_c, 1, 57, 0
4, 2937, Note_on_c, 1, 57, 98
4, 2938, Note_on_c, 1, 50, 99
4, 2941, Note_on_c, 1, 62, 98
4, 2996, Note_on_c, 1, 62, 0
4, 2996, Note_on_c, 1, 50, 0
4, 2996, Note_on_c, 1, 57, 0
4, 3838, Note_on_c, 1, 62, 98
4, 3839, Note_on_c, 1, 57, 103
4, 3842, Note_on_c, 1, 50, 99
4, 3896, Note_on_c, 1, 50, 0
4, 3896, Note_on_c, 1, 57, 0
4, 3896, Note_on_c, 1, 62, 0
4, 3899, Note_on_c, 1, 57, 100
4, 3903, Note_on_c, 1, 62, 103
4, 3903, Note_on_c, 1, 50, 101
4, 3956, Note_on_c, 1, 50, 0
4, 3956, Note_on_c, 1, 62, 0
4, 3956, Note_on_c, 1, 57, 0
4, 4671, Pitch_bend_c, 1, 16383
4, 4680, Note_on_c, 1, 60, 98
4, 4740, Pitch_bend_c, 1, 16383
4, 4744, Pitch_bend_c, 1, 16256
4, 4756, Pitch_bend_c, 1, 12672
4, 4759, Pitch_bend_c, 1, 12544
4, 4760, Pitch_bend_c, 1, 12288
4, 4761, Pitch_bend_c, 1, 12032
4, 4762, Pitch_bend_c, 1, 11904
4, 4772, Pitch_bend_c, 1, 8320
4, 4774, Pitch_bend_c, 1, 8192
4, 4776, Pitch_bend_c, 1, 8320
4, 4782, Pitch_bend_c, 1, 4480
4, 4785, Pitch_bend_c, 1, 4096
4, 4792, Pitch_bend_c, 1, 768
4, 4794, Pitch_bend_c, 1, 640
4, 4795, Pitch_bend_c, 1, 384
4, 4796, Note_on_c, 1, 60, 0
4, 4796, Pitch_bend_c, 1, 128
4, 4798, Note_on_c, 1, 53, 103
4, 4800, Note_on_c, 1, 46, 101
4, 4800, Pitch_bend_c, 1, 8192
4, 4803, Note_on_c, 1, 58, 99
4, 5275, Note_on_c, 1, 58, 0
4, 5275, Note_on_c, 1, 46, 0
4, 5275, Note_on_c, 1, 53, 0
4, 5278, Note_on_c, 1, 57, 100
4, 5279, Note_on_c, 1, 50, 102
4, 5280, Note_on_c, 1, 62, 99
4, 5755, Note_on_c, 1, 62, 0
4, 5755, Note_on_c, 1, 50, 0
4, 5755, Note_on_c, 1, 57, 0
4, 5757, Note_on_c, 1, 53, 103
4, 5758, Note_on_c, 1, 46, 101
4, 5758, Note_on_c, 1, 58, 102
4, 6235, Note_on_c, 1, 58, 0
4, 6235, Note_on_c, 1, 46, 0
4, 6235, Note_on_c, 1, 53, 0
4, 6240, Note_on_c, 1, 57, 98
4, 6242, Note_on_c, 1, 62, 101
4, 6242, Note_on_c, 1, 50, 98
4, 6715, Note_on_c, 1, 50, 0
4, 6715, Note_on_c, 1, 62, 0
4, 6715, Note_on_c, 1, 57, 0
4, 6718, Note_on_c, 1, 53, 102
4, 6720, Note_on_c, 1, 58, 103
4, 6723, Note_on_c, 1, 46, 101
4, 7195, Note_on_c, 1, 46, 0
4, 7195, Note_on_c, 1, 58, 0
4, 7195, Note_on_c, 1, 53, 0
4, 7197, Note_on_c, 1, 62, 98
4, 7200, Note_on_c, 1, 50, 98
4, 7202, Note_on_c, 1, 57, 101
4, 7675, Note_on_c, 1, 57, 0
4, 7675, Note_on_c, 1, 50, 0
4, 7675, Note_on_c, 1, 62, 0
4, 7680, Note_on_c, 1, 53, 100
4, 7680, Note_on_c, 1, 46, 101
4, 7681, Note_on_c, 1, 58, 103
4, 8634, Note_on_c, 1, 58, 0
4, 8634, Note_on_c, 1, 46, 0
4, 8634, Note_on_c, 1, 53, 0
4, 8639, Note_on_c, 1, 50, 98
4, 8641, Note_on_c, 1, 57, 103
4, 8643, Note_on_c, 1, 62, 103
4, 9594, Note_on_c, 1, 62, 0
4, 9594, Note_on_c, 1, 57, 0
4, 9594, Note_on_c, 1, 50, 0
4, 17759, Note_on_c, 1, 50, 103
4, 17816, Note_on_c, 1, 50, 0
4, 17820, Note_on_c, 1, 50, 101
4, 17876, Note_on_c, 1, 50, 0
4, 17882, Note_on_c, 1, 57, 103
4, 17936, Note_on_c, 1, 57, 0
4, 17938, Note_on_c, 1, 50, 101
4, 17996, Note_on_c, 1, 50, 0
4, 18002, Note_on_c, 1, 64, 101
4, 18056, Note_on_c, 1, 64, 0
4, 18062, Note_on_c, 1, 50, 102
4, 18116, Note_on_c, 1, 50, 0
4, 18117, Note_on_c, 1, 62, 99
4, 18176, Note_on_c, 1, 62, 0
4, 18181, Note_on_c, 1, 50, 102
4, 18236, Note_on_c, 1, 50, 0
4, 18240, Note_on_c, 1, 53, 103
4, 18296, Note_on_c, 1, 53, 0
4, 18302, Note_on_c, 1, 60, 101
4, 18355, Note_on_c, 1, 60, 0
4, 18359, Note_on_c, 1, 53, 100
4, 18416, Note_on_c, 1, 53, 0
4, 18418, Note_on_c, 1, 52, 102
4, 18476, Note_on_c, 1, 52, 0
4, 18481, Note_on_c, 1, 60, 99
4, 18536, Note_on_c, 1, 60, 0
4, 18537, Note_on_c, 1, 53, 99
4, 18596, Note_on_c, 1, 53, 0
4, 18598, Note_on_c, 1, 60, 103
4, 18656, Note_on_c, 1, 60, 0
4, 18658, Note_on_c, 1, 52, 102
4, 18716, Note_on_c, 1, 52, 0
4, 18721, Note_on_c, 1, 50, 102
4, 18776, Note_on_c, 1, 50, 0
4, 18782, Note_on_c, 1, 50, 99
4, 18836, Note_on_c, 1, 50, 0
4, 18841, Note_on_c, 1, 57, 98
4, 18896, Note_on_c, 1, 57, 0
4, 18902, Note_on_c, 1, 50, 101
4, 18956, Note_on_c, 1, 50, 0
4, 18962, Note_on_c, 1, 64, 100
4, 19016, Note_on_c, 1, 64, 0
4, 19019, Note_on_c, 1, 50, 98
4, 19076, Note_on_c, 1, 50, 0
4, 19082, Note_on_c, 1, 62, 100
4, 19136, Note_on_c, 1, 62, 0
4, 19139, Note_on_c, 1, 50, 100
4, 19196, Note_on_c, 1, 50, 0
4, 19203, Note_on_c, 1, 53, 101
4, 19256, Note_on_c, 1, 53, 0
4, 19258, Note_on_c, 1, 60, 101
4, 19315, Note_on_c, 1, 60, 0
4, 19320, Note_on_c, 1, 53, 101
4, 19376, Note_on_c, 1, 53, 0
4, 19381, Note_on_c, 1, 52, 101
4, 19436, Note_on_c, 1, 52, 0
4, 19437, Note_on_c, 1, 60, 100
4, 19496, Note_on_c, 1, 60, 0
4, 19498, Note_on_c, 1, 53, 101
4, 19556, Note_on_c, 1, 53, 0
4, 19560, Note_on_c, 1, 60, 99
4, 19616, Note_on_c, 1, 60, 0
4, 19621, Note_on_c, 1, 52, 101
4, 19676, Note_on_c, 1, 52, 0
4, 19678, Note_on_c, 1, 50, 101
4, 19736, Note_on_c, 1, 50, 0
4, 19738, Note_on_c, 1, 50, 103
4, 19796, Note_on_c, 1, 50, 0
4, 19803, Note_on_c, 1, 57, 99
4, 19856, Note_on_c, 1, 57, 0
4, 19857, Note_on_c, 1, 50, 102
4, 19916, Note_on_c, 1, 50, 0
4, 19922, Note_on_c, 1, 64, 102
4, 19976, Note_on_c, 1, 64, 0
4, 19978, Note_on_c, 1, 50, 98
4, 20036, Note_on_c, 1, 50, 0
4, 20039, Note_on_c, 1, 62, 99
4, 20096, Note_on_c, 1, 62, 0
4, 20100, Note_on_c, 1, 50, 99
4, 20156, Note_on_c, 1, 50, 0
4, 20163, Note_on_c, 1, 53, 98
4, 20216, Note_on_c, 1, 53, 0
4, 20220, Note_on_c, 1, 60, 103
4, 20275, Note_on_c, 1, 60, 0
4, 20277, Note_on_c, 1, 53, 99
4, 20336, Note_on_c, 1, 53, 0
4, 20339, Note_on_c, 1, 52, 98
4, 20396, Note_on_c, 1, 52, 0
4, 20403, Note_on_c, 1, 60, 102
4, 20456, Note_on_c, 1, 60, 0
4, 20462, Note_on_c, 1, 53, 100
4, 20516, Note_on_c, 1, 53, 0
4, 20522, Note_on_c, 1, 60, 102
4, 20576, Note_on_c, 1, 60, 0
4, 20583, Note_on_c, 1, 52, 99
4, 20695, Note_on_c, 1, 52, 0
4, 20703, Note_on_c, 1, 50, 98
4, 20756, Note_on_c, 1, 50, 0
4, 20757, Note_on_c, 1, 57, 99
4, 20816, Note_on_c, 1, 57, 0
4, 20817, Note_on_c, 1, 50, 100
4, 20876, Note_on_c, 1, 50, 0
4, 20880, Note_on_c, 1, 64, 99
4, 20936, Note_on_c, 1, 64, 0
4, 20943, Note_on_c, 1, 50, 102
4, 20996, Note_on_c, 1, 50, 0
4, 21001, Note_on_c, 1, 62, 100
4, 21056, Note_on_c, 1, 62, 0
4, 21059, Note_on_c, 1, 50, 102
4, 21116, Note_on_c, 1, 50, 0
4, 21120, Note_on_c, 1, 53, 103
4, 21176, Note_on_c, 1, 53, 0
4, 21178, Note_on_c, 1, 60, 100
4, 21235, Note_on_c, 1, 60, 0
4, 21239, Note_on_c, 1, 53, 100
4, 21296, Note_on_c, 1, 53, 0
4, 21297, Note_on_c, 1, 52, 101
4, 21356, Note_on_c, 1, 52, 0
4, 21361, Note_on_c, 1, 60, 101
4, 21416, Note_on_c, 1, 60, 0
4, 21423, Note_on_c, 1, 53, 99
4, 21476, Note_on_c, 1, 53, 0
4, 21478, Note_on_c, 1, 60, 103
4, 21536, Note_on_c, 1, 60, 0
4, 21543, Note_on_c, 1, 52, 102
4, 21596, Note_on_c, 1, 52, 0
4, 21601, Note_on_c, 1, 48, 100
4, 21656, Note_on_c, 1, 48, 0
4, 21662, Note_on_c, 1, 50, 98
4, 21716, Note_on_c, 1, 50, 0
4, 21721, Note_on_c, 1, 57, 98
4, 21776, Note_on_c, 1, 57, 0
4, 21782, Note_on_c, 1, 50, 101
4, 21836, Note_on_c, 1, 50, 0
4, 21841, Note_on_c, 1, 64, 103
4, 21896, Note_on_c, 1, 64, 0
4, 21899, Note_on_c, 1, 50, 98
4, 21956, Note_on_c, 1, 50, 0
4, 21958, Note_on_c, 1, 62, 101
4, 22016, Note_on_c, 1, 62, 0
4, 22018, Note_on_c, 1, 50, 100
4, 22076, Note_on_c, 1, 50, 0
4, 22082, Note_on_c, 1, 57, 98
4, 22136, Note_on_c, 1, 57, 0
4, 22137, Note_on_c, 1, 50, 102
4, 22196, Note_on_c, 1, 50, 0
4, 22200, Note_on_c, 1, 64, 99
4, 22256, Note_on_c, 1, 64, 0
4, 22260, Note_on_c, 1, 50, 98
4, 22316, Note_on_c, 1, 50, 0
4, 22320, Note_on_c, 1, 62, 99
4, 22376, Note_on_c, 1, 62, 0
4, 22381, Note_on_c, 1, 50, 102
4, 22436, Note_on_c, 1, 50, 0
4, 22439, Note_on_c, 1, 57, 101
4, 22555, Note_on_c, 1, 57, 0
4, 22557, Note_on_c, 1, 50, 98
4, 23036, Note_on_c, 1, 50, 0
4, 30718, Note_on_c, 1, 50, 103
4, 30776, Note_on_c, 1, 50, 0
4, 30782, Note_on_c, 1, 50, 99
4, 30836, Note_on_c, 1, 50, 0
4, 30839, Note_on_c, 1, 57, 103
4, 30896, Note_on_c, 1, 57, 0
4, 30903, Note_on_c, 1, 50, 103
4, 30956, Note_on_c, 1, 50, 0
4, 30960, Note_on_c, 1, 64, 98
4, 31016, Note_on_c, 1, 64, 0
4, 31018, Note_on_c, 1, 50, 103
4, 31076, Note_on_c, 1, 50, 0
4, 31079, Note_on_c, 1, 62, 103
4, 31136, Note_on_c, 1, 62, 0
4, 31142, Note_on_c, 1, 50, 102
4, 31196, Note_on_c, 1, 50, 0
4, 31198, Note_on_c, 1, 53, 101
4, 31256, Note_on_c, 1, 53, 0
4, 31261, Note_on_c, 1, 60, 100
4, 31315, Note_on_c, 1, 60, 0
4, 31322, Note_on_c, 1, 53, 101
4, 31376, Note_on_c, 1, 53, 0
4, 31378, Note_on_c, 1, 52, 101
4, 31436, Note_on_c, 1, 52, 0
4, 31437, Note_on_c, 1, 60, 103
4, 31496, Note_on_c, 1, 60, 0
4, 31502, Note_on_c, 1, 53, 99
4, 31556, Note_on_c, 1, 53, 0
4, 31561, Note_on_c, 1, 60, 103
4, 31616, Note_on_c, 1, 60, 0
4, 31617, Note_on_c, 1, 52, 100
4, 31676, Note_on_c, 1, 52, 0
4, 31679, Note_on_c, 1, 50, 98
4, 31736, Note_on_c, 1, 50, 0
4, 31742, Note_on_c, 1, 50, 101
4, 31796, Note_on_c, 1, 50, 0
4, 31803, Note_on_c, 1, 57, 103
4, 31856, Note_on_c, 1, 57, 0
4, 31859, Note_on_c, 1, 50, 98
4, 31916, Note_on_c, 1, 50, 0
4, 31922, Note_on_c, 1, 64, 100
4, 31976, Note_on_c, 1, 64, 0
4, 31979, Note_on_c, 1, 50, 100
4, 32036, Note_on_c, 1, 50, 0
4, 32042, Note_on_c, 1, 62, 99
4, 32096, Note_on_c, 1, 62, 0
4, 32097, Note_on_c, 1, 50, 100
4, 32156, Note_on_c, 1, 50, 0
4, 32158, Note_on_c, 1, 53, 103
4, 32216, Note_on_c, 1, 53, 0
4, 32218, Note_on_c, 1, 60, 99
4, 32275, Note_on_c, 1, 60, 0
4, 32281, Note_on_c, 1, 53, 102
4, 32336, Note_on_c, 1, 53, 0
4, 32340, Note_on_c, 1, 52, 98
4, 32396, Note_on_c, 1, 52, 0
4, 32398, Note_on_c, 1, 60, 100
4, 32456, Note_on_c, 1, 60, 0
4, 32459, Note_on_c, 1, 53, 100
4, 32516, Note_on_c, 1, 53, 0
4, 32521, Note_on_c, 1, 60, 100
4, 32576, Note_on_c, 1, 60, 0
4, 32578, Note_on_c, 1, 52, 98
4, 32636, Note_on_c, 1, 52, 0
4, 32643, Note_on_c, 1, 50, 99
4, 32696, Note_on_c, 1, 50, 0
4, 32700, Note_on_c, 1, 50, 102
4, 32756, Note_on_c, 1, 50, 0
4, 32761, Note_on_c, 1, 57, 99
4, 32816, Note_on_c, 1, 57, 0
4, 32819, Note_on_c, 1, 50, 101
4, 32876, Note_on_c, 1, 50, 0
4, 32879, Note_on_c, 1, 64, 102
4, 32936, Note_on_c, 1, 64, 0
4, 32941, Note_on_c, 1, 50, 101
4, 32996, Note_on_c, 1, 50, 0
4, 32997, Note_on_c, 1, 62, 103
4, 33056, Note_on_c, 1, 62, 0
4, 33061, Note_on_c, 1, 50, 99
4, 33116, Note_on_c, 1, 50, 0
4, 33118, Note_on_c, 1, 53, 100
4, 33176, Note_on_c, 1, 53, 0
4, 33183, Note_on_c, 1, 60, 103
4, 33235, Note_on_c, 1, 60, 0
4, 33243, Note_on_c, 1, 53, 103
4, 33296, Note_on_c, 1, 53, 0
4, 33297, Note_on_c, 1, 52, 103
4, 33356, Note_on_c, 1, 52, 0
4, 33360, Note_on_c, 1, 60, 100
4, 33416, Note_on_c, 1, 60, 0
4, 33423, Note_on_c, 1, 53, 101
4, 33476, Note_on_c, 1, 53, 0
4, 33481, Note_on_c, 1, 60, 103
4, 33536, Note_on_c, 1, 60, 0
4, 33540, Note_on_c, 1, 52, 101
4, 33655, Note_on_c, 1, 52, 0
4, 33661, Note_on_c, 1, 50, 98
4, 33716, Note_on_c, 1, 50, 0
4, 33719, Note_on_c, 1, 57, 102
4, 33776, Note_on_c, 1, 57, 0
4, 33783, Note_on_c, 1, 50, 101
4, 33836, Note_on_c, 1, 50, 0
4, 33838, Note_on_c, 1, 64, 99
4, 33896, Note_on_c, 1, 64, 0
4, 33898, Note_on_c, 1, 50, 100
4, 33956, Note_on_c, 1, 50, 0
4, 33963, Note_on_c, 1, 62, 99
4, 34016, Note_on_c, 1, 62, 0
4, 34023, Note_on_c, 1, 50, 98
4, 34076, Note_on_c, 1, 50, 0
4, 34079, Note_on_c, 1, 53, 98
4, 34136, Note_on_c, 1, 53, 0
4, 34142, Note_on_c, 1, 60, 98
4, 34195, Note_on_c, 1, 60, 0
4, 34199, Note_on_c, 1, 53, 100
4, 34256, Note_on_c, 1, 53, 0
4, 34262, Note_on_c, 1, 52, 99
4, 34316, Note_on_c, 1, 52, 0
4, 34322, Note_on_c, 1, 60, 99
4, 34376, Note_on_c, 1, 60, 0
4, 34383, Note_on_c, 1, 53, 102
4, 34436, Note_on_c, 1, 53, 0
4, 34439, Note_on_c, 1, 60, 99
4, 34496, Note_on_c, 1, 60, 0
4, 34498, Note_on_c, 1, 52, 101
4, 34556, Note_on_c, 1, 52, 0
4, 34563, Note_on_c, 1, 50, 100
4, 35515, Note_on_c, 1, 50, 0
4, 35517, Note_on_c, 1, 53, 101
4, 35519, Note_on_c, 1, 58, 103
4, 35519, Note_on_c, 1, 46, 98
4, 35996, Note_on_c, 1, 46, 0
4, 35996, Note_on_c, 1, 58, 0
4, 35996, Note_on_c, 1, 53, 0
4, 35997, Note_on_c, 1, 62, 100
4, 36000, Note_on_c, 1, 50, 98
4, 36003, Note_on_c, 1, 57, 102
4, 36476, Note_on_c, 1, 57, 0
4, 36476, Note_on_c, 1, 50, 0
4, 36476, Note_on_c, 1, 62, 0
4, 36479, Note_on_c, 1, 53, 100
4, 36481, Note_on_c, 1, 46, 101
4, 36483, Note_on_c, 1, 58, 103
4, 36956, Note_on_c, 1, 58, 0
4, 36956, Note_on_c, 1, 46, 0
4, 36956, Note_on_c, 1, 53, 0
4, 36958, Note_on_c, 1, 62, 101
4, 36959, Note_on_c, 1, 57, 101
4, 36960, Note_on_c, 1, 50, 101
4, 37436, Note_on_c, 1, 50, 0
4, 37436, Note_on_c, 1, 57, 0
4, 37436, Note_on_c, 1, 62, 0
4, 37438, Note_on_c, 1, 53, 101
4, 37439, Note_on_c, 1, 46, 99
4, 37443, Note_on_c, 1, 58, 99
4, 37916, Note_on_c, 1, 58, 0
4, 37916, Note_on_c, 1, 46, 0
4, 37916, Note_on_c, 1, 53, 0
4, 37918, Note_on_c, 1, 50, 102
4, 37921, Note_on_c, 1, 62, 101
4, 37922, Note_on_c, 1, 57, 101
4, 38396, Note_on_c, 1, 57, 0
4, 38396, Note_on_c, 1, 62, 0
4, 38396, Note_on_c, 1, 50, 0
4, 38399, Note_on_c, 1, 53, 100
4, 38399, Note_on_c, 1, 46, 102
4, 38403, Note_on_c, 1, 58, 101
4, 38876, Note_on_c, 1, 58, 0
4, 38876, Note_on_c, 1, 46, 0
4, 38876, Note_on_c, 1, 53, 0
4, 38878, Note_on_c, 1, 50, 100
4, 38879, Note_on_c, 1, 62, 102
4, 38879, Note_on_c, 1, 57, 102
4, 38996, Note_on_c, 1, 57, 0
4, 38996, Note_on_c, 1, 62, 0
4, 38996, Note_on_c, 1, 50, 0
4, 39000, Note_on_c, 1, 62, 99
4, 39001, Note_on_c, 1, 50, 101
4, 39003, Note_on_c, 1, 55, 98
4, 39056, Note_on_c, 1, 55, 0
4, 39056, Note_on_c, 1, 50, 0
4, 39056, Note_on_c, 1, 62, 0
4, 39059, Note_on_c, 1, 50, 99
4, 39060, Note_on_c, 1, 57, 101
4, 39062, Note_on_c, 1, 62, 100
4, 39116, Note_on_c, 1, 62, 0
4, 39116, Note_on_c, 1, 57, 0
4, 39116, Note_on_c, 1, 50, 0
4, 39117, Note_on_c, 1, 62, 103
4, 39120, Note_on_c, 1, 50, 99
4, 39122, Note_on_c, 1, 55, 102
4, 39176, Note_on_c, 1, 55, 0
4, 39176, Note_on_c, 1, 50, 0
4, 39176, Note_on_c, 1, 62, 0
4, 39179, Note_on_c, 1, 50, 100
4, 39181, Note_on_c, 1, 57, 100
4, 39182, Note_on_c, 1, 62, 98
4, 39236, Note_on_c, 1, 62, 0
4, 39236, Note_on_c, 1, 57, 0
4, 39236, Note_on_c, 1, 50, 0
4, 39237, Note_on_c, 1, 62, 103
4, 39240, Note_on_c, 1, 50, 99
4, 39241, Note_on_c, 1, 55, 102
4, 39296, Note_on_c, 1, 55, 0
4, 39296, Note_on_c, 1, 50, 0
4, 39296, Note_on_c, 1, 62, 0
4, 39298, Note_on_c, 1, 50, 99
4, 39299, Note_on_c, 1, 62, 99
4, 39301, Note_on_c, 1, 57, 99
4, 39356, Note_on_c, 1, 57, 0
4, 39356, Note_on_c, 1, 62, 0
4, 39356, Note_on_c, 1, 50, 0
4, 45599, Note_on_c, 1, 50, 99
4, 45656, Note_on_c, 1, 50, 0
4, 45661, Note_on_c, 1, 50, 101
4, 45716, Note_on_c, 1, 50, 0
4, 45717, Note_on_c, 1, 57, 102
4, 45776, Note_on_c, 1, 57, 0
4, 45781, Note_on_c, 1, 50, 102
4, 45836, Note_on_c, 1, 50, 0
4, 45837, Note_on_c, 1, 64, 99
4, 45896, Note_on_c, 1, 64, 0
4, 45902, Note_on_c, 1, 50, 98
4, 45956, Note_on_c, 1, 50, 0
4, 45958, Note_on_c, 1, 62, 103
4, 46016, Note_on_c, 1, 62, 0
4, 46020, Note_on_c, 1, 50, 98
4, 46076, Note_on_c, 1, 50, 0
4, 46080, Note_on_c, 1, 53, 101
4, 46136, Note_on_c, 1, 53, 0
4, 46137, Note_on_c, 1, 60, 103
4, 46195, Note_on_c, 1, 60, 0
4, 46197, Note_on_c, 1, 53, 99
4, 46256, Note_on_c, 1, 53, 0
4, 46262, Note_on_c, 1, 52, 100
4, 46316, Note_on_c, 1, 52, 0
4, 46322, Note_on_c, 1, 60, 100
4, 46376, Note_on_c, 1, 60, 0
4, 46380, Note_on_c, 1, 53, 101
4, 46436, Note_on_c, 1, 53, 0
4, 46443, Note_on_c, 1, 60, 98
4, 46496, Note_on_c, 1, 60, 0
4, 46502, Note_on_c, 1, 52, 101
4, 46556, Note_on_c, 1, 52, 0
4, 46561, Note_on_c, 1, 50, 100
4, 46616, Note_on_c, 1, 50, 0
4, 46621, Note_on_c, 1, 50, 100
4, 46676, Note_on_c, 1, 50, 0
4, 46679, Note_on_c, 1, 57, 101
4, 46736, Note_on_c, 1, 57, 0
4, 46742, Note_on_c, 1, 50, 100
4, 46796, Note_on_c, 1, 50, 0
4, 46800, Note_on_c, 1, 64, 101
4, 46856, Note_on_c, 1, 64, 0
4, 46858, Note_on_c, 1, 50, 98
4, 46916, Note_on_c, 1, 50, 0
4, 46917, Note_on_c, 1, 62, 101
4, 46976, Note_on_c, 1, 62, 0
4, 46983, Note_on_c, 1, 50, 101
4, 47036, Note_on_c, 1, 50, 0
4, 47041, Note_on_c, 1, 53, 102
4, 47096, Note_on_c, 1, 53, 0
4, 47102, Note_on_c, 1, 60, 103
4, 47155, Note_on_c, 1, 60, 0
4, 47163, Note_on_c, 1, 53, 103
4, 47216, Note_on_c, 1, 53, 0
4, 47221, Note_on_c, 1, 52, 103
4, 47276, Note_on_c, 1, 52, 0
4, 47280, Note_on_c, 1, 60, 101
4, 47336, Note_on_c, 1, 60, 0
4, 47341, Note_on_c, 1, 53, 99
4, 47396, Note_on_c, 1, 53, 0
4, 47401, Note_on_c, 1, 60, 100
4, 47456, Note_on_c, 1, 60, 0
4, 47457, Note_on_c, 1, 52, 99
4, 47516, Note_on_c, 1, 52, 0
4, 47520, Note_on_c, 1, 50, 103
4, 47576, Note_on_c, 1, 50, 0
4, 47583, Note_on_c, 1, 50, 100
4, 47636, Note_on_c, 1, 50, 0
4, 47640, Note_on_c, 1, 57, 101
4, 47696, Note_on_c, 1, 57, 0
4, 47700, Note_on_c, 1, 50, 102
4, 47756, Note_on_c, 1, 50, 0
4, 47760, Note_on_c, 1, 64, 98
4, 47816, Note_on_c, 1, 64, 0
4, 47822, Note_on_c, 1, 50, 101
4, 47876, Note_on_c, 1, 50, 0
4, 47878, Note_on_c, 1, 62, 98
4, 47936, Note_on_c, 1, 62, 0
4, 47943, Note_on_c, 1, 50, 100
4, 47996, Note_on_c, 1, 50, 0
4, 48001, Note_on_c, 1, 53, 101
4, 48056, Note_on_c, 1, 53, 0
4, 48059, Note_on_c, 1, 60, 101
4, 48115, Note_on_c, 1, 60, 0
4, 48119, Note_on_c, 1, 53, 100
4, 48176, Note_on_c, 1, 53, 0
4, 48178, Note_on_c, 1, 52, 103
4, 48236, Note_on_c, 1, 52, 0
4, 48242, Note_on_c, 1, 60, 99
4, 48296, Note_on_c, 1, 60, 0
4, 48302, Note_on_c, 1, 53, 102
4, 48356, Note_on_c, 1, 53, 0
4, 48363, Note_on_c, 1, 60, 102
4, 48416, Note_on_c, 1, 60, 0
4, 48420, Note_on_c, 1, 52, 98
4, 48535, Note_on_c, 1, 52, 0
4, 48541, Note_on_c, 1, 50, 102
4, 48596, Note_on_c, 1, 50, 0
4, 48599, Note_on_c, 1, 57, 99
4, 48656, Note_on_c, 1, 57, 0
4, 48663, Note_on_c, 1, 50, 99
4, 48716, Note_on_c, 1, 50, 0
4, 48719, Note_on_c, 1, 64, 103
4, 48776, Note_on_c, 1, 64, 0
4, 48777, Note_on_c, 1, 50, 99
4, 48836, Note_on_c, 1, 50, 0
4, 48839, Note_on_c, 1, 62, 98
4, 48896, Note_on_c, 1, 62, 0
4, 48900, Note_on_c, 1, 50, 98
4, 48956, Note_on_c, 1, 50, 0
4, 48962, Note_on_c, 1, 53, 98
4, 49016, Note_on_c, 1, 53, 0
4, 49018, Note_on_c, 1, 60, 101
4, 49075, Note_on_c, 1, 60, 0
4, 49079, Note_on_c, 1, 53, 99
4, 49136, Note_on_c, 1, 53, 0
4, 49141, Note_on_c, 1, 52, 103
4, 49196, Note_on_c, 1, 52, 0
4, 49200, Note_on_c, 1, 60, 103
4, 49256, Note_on_c, 1, 60, 0
4, 49260, Note_on_c, 1, 53, 99
4, 49316, Note_on_c, 1, 53, 0
4, 49323, Note_on_c, 1, 60, 102
4, 49376, Note_on_c, 1, 60, 0
4, 49383, Note_on_c, 1, 52, 103
4, 49436, Note_on_c, 1, 52, 0
4, 49441, Note_on_c, 1, 43, 100
4, 49556, Note_on_c, 1, 43, 0
4, 54241, Note_on_c, 1, 50, 98
4, 54296, Note_on_c, 1, 50, 0
4, 54302, Note_on_c, 1, 50, 102
4, 54356, Note_on_c, 1, 50, 0
4, 54363, Note_on_c, 1, 57, 102
4, 54416, Note_on_c, 1, 57, 0
4, 54417, Note_on_c, 1, 50, 98
4, 54476, Note_on_c, 1, 50, 0
4, 54483, Note_on_c, 1, 64, 103
4, 54536, Note_on_c, 1, 64, 0
4, 54543, Note_on_c, 1, 50, 102
4, 54596, Note_on_c, 1, 50, 0
4, 54599, Note_on_c, 1, 62, 101
4, 54656, Note_on_c, 1, 62, 0
4, 54663, Note_on_c, 1, 50, 101
4, 54716, Note_on_c, 1, 50, 0
4, 54723, Note_on_c, 1, 53, 98
4, 54776, Note_on_c, 1, 53, 0
4, 54782, Note_on_c, 1, 60, 98
4, 54835, Note_on_c, 1, 60, 0
4, 54840, Note_on_c, 1, 53, 103
4, 54896, Note_on_c, 1, 53, 0
4, 54902, Note_on_c, 1, 52, 101
4, 54956, Note_on_c, 1, 52, 0
4, 54959, Note_on_c, 1, 60, 99
4, 55016, Note_on_c, 1, 60, 0
4, 55022, Note_on_c, 1, 53, 98
4, 55076, Note_on_c, 1, 53, 0
4, 55081, Note_on_c, 1, 60, 98
4, 55136, Note_on_c, 1, 60, 0
4, 55141, Note_on_c, 1, 52, 101
4, 55196, Note_on_c, 1, 52, 0
4, 55197, Note_on_c, 1, 50, 99
4, 55256, Note_on_c, 1, 50, 0
4, 55257, Note_on_c, 1, 50, 101
4, 55316, Note_on_c, 1, 50, 0
4, 55318, Note_on_c, 1, 57, 101
4, 55376, Note_on_c, 1, 57, 0
4, 55383, Note_on_c, 1, 50, 98
4, 55436, Note_on_c, 1, 50, 0
4, 55437, Note_on_c, 1, 64, 103
4, 55496, Note_on_c, 1, 64, 0
4, 55498, Note_on_c, 1, 50, 100
4, 55556, Note_on_c, 1, 50, 0
4, 55563, Note_on_c, 1, 62, 99
4, 55616, Note_on_c, 1, 62, 0
4, 55618, Note_on_c, 1, 50, 100
4, 55676, Note_on_c, 1, 50, 0
4, 55677, Note_on_c, 1, 53, 102
4, 55736, Note_on_c, 1, 53, 0
4, 55737, Note_on_c, 1, 60, 103
4, 55795, Note_on_c, 1, 60, 0
4, 55798, Note_on_c, 1, 53, 103
4, 55856, Note_on_c, 1, 53, 0
4, 55863, Note_on_c, 1, 52, 98
4, 55916, Note_on_c, 1, 52, 0
4, 55918, Note_on_c, 1, 60, 102
4, 55976, Note_on_c, 1, 60, 0
4, 55980, Note_on_c, 1, 53, 99
4, 56036, Note_on_c, 1, 53, 0
4, 56041, Note_on_c, 1, 60, 103
4, 56096, Note_on_c, 1, 60, 0
4, 56103, Note_on_c, 1, 52, 100
4, 56156, Note_on_c, 1, 52, 0
4, 56158, Note_on_c, 1, 50, 102
4, 56216, Note_on_c, 1, 50, 0
4, 56222, Note_on_c, 1, 50, 100
4, 56276, Note_on_c, 1, 50, 0
4, 56283, Note_on_c, 1, 57, 100
4, 56336, Note_on_c, 1, 57, 0
4, 56337, Note_on_c, 1, 50, 100
4, 56396, Note_on_c, 1, 50, 0
4, 56399, Note_on_c, 1, 64, 102
4, 56456, Note_on_c, 1, 64, 0
4, 56457, Note_on_c, 1, 50, 100
4, 56516, Note_on_c, 1, 50, 0
4, 56522, Note_on_c, 1, 62, 101
4, 56576, Note_on_c, 1, 62, 0
4, 56583, Note_on_c, 1, 50, 102
4, 56636, Note_on_c, 1, 50, 0
4, 56639, Note_on_c, 1, 53, 99
4, 56696, Note_on_c, 1, 53, 0
4, 56701, Note_on_c, 1, 60, 100
4, 56755, Note_on_c, 1, 60, 0
4, 56759, Note_on_c, 1, 53, 102
4, 56816, Note_on_c, 1, 53, 0
4, 56819, Note_on_c, 1, 52, 101
4, 56876, Note_on_c, 1, 52, 0
4, 56879, Note_on_c, 1, 60, 101
4, 56936, Note_on_c, 1, 60, 0
4, 56937, Note_on_c, 1, 53, 98
4, 56996, Note_on_c, 1, 53, 0
4, 56998, Note_on_c, 1, 60, 101
4, 57056, Note_on_c, 1, 60, 0
4, 57060, Note_on_c, 1, 52, 98
4, 57175, Note_on_c, 1, 52, 0
4, 57183, Note_on_c, 1, 50, 101
4, 57236, Note_on_c, 1, 50, 0
4, 57243, Note_on_c, 1, 57, 101
4, 57296, Note_on_c, 1, 57, 0
4, 57299, Note_on_c, 1, 50, 100
4, 57356, Note_on_c, 1, 50, 0
4, 57357, Note_on_c, 1, 64, 102
4, 57416, Note_on_c, 1, 64, 0
4, 57421, Note_on_c, 1, 50, 103
4, 57476, Note_on_c, 1, 50, 0
4, 57482, Note_on_c, 1, 62, 98
4, 57536, Note_on_c, 1, 62, 0
4, 57541, Note_on_c, 1, 50, 100
4, 57596, Note_on_c, 1, 50, 0
4, 57597, Note_on_c, 1, 53, 99
4, 57656, Note_on_c, 1, 53, 0
4, 57661, Note_on_c, 1, 60, 99
4, 57715, Note_on_c, 1, 60, 0
4, 57723, Note_on_c, 1, 53, 103
4, 57776, Note_on_c, 1, 53, 0
4, 57781, Note_on_c, 1, 52, 103
4, 57836, Note_on_c, 1, 52, 0
4, 57838, Note_on_c, 1, 60, 100
4, 57896, Note_on_c, 1, 60, 0
4, 57901, Note_on_c, 1, 53, 101
4, 57956, Note_on_c, 1, 53, 0
4, 57963, Note_on_c, 1, 60, 98
4, 58016, Note_on_c, 1, 60, 0
4, 58019, Note_on_c, 1, 52, 99
4, 58076, Note_on_c, 1, 52, 0
4, 58081, Note_on_c, 1, 50, 103
4, 58136, Note_on_c, 1, 50, 0
4, 58142, Note_on_c, 1, 50, 100
4, 58196, Note_on_c, 1, 50, 0
4, 58203, Note_on_c, 1, 57, 99
4, 58256, Note_on_c, 1, 57, 0
4, 58261, Note_on_c, 1, 50, 98
4, 58316, Note_on_c, 1, 50, 0
4, 58322, Note_on_c, 1, 64, 98
4, 58376, Note_on_c, 1, 64, 0
4, 58380, Note_on_c, 1, 50, 102
4, 58436, Note_on_c, 1, 50, 0
4, 58441, Note_on_c, 1, 62, 99
4, 58496, Note_on_c, 1, 62, 0
4, 58503, Note_on_c, 1, 50, 101
4, 58556, Note_on_c, 1, 50, 0
4, 58562, Note_on_c, 1, 53, 102
4, 58616, Note_on_c, 1, 53, 0
4, 58620, Note_on_c, 1, 60, 101
4, 58675, Note_on_c, 1, 60, 0
4, 58678, Note_on_c, 1, 53, 100
4, 58736, Note_on_c, 1, 53, 0
4, 58738, Note_on_c, 1, 52, 101
4, 58796, Note_on_c, 1, 52, 0
4, 58802, Note_on_c, 1, 60, 99
4, 58856, Note_on_c, 1, 60, 0
4, 58863, Note_on_c, 1, 53, 103
4, 58916, Note_on_c, 1, 53, 0
4, 58922, Note_on_c, 1, 60, 100
4, 58976, Note_on_c, 1, 60, 0
4, 58978, Note_on_c, 1, 52, 103
4, 59036, Note_on_c, 1, 52, 0
4, 59040, Note_on_c, 1, 50, 99
4, 59096, Note_on_c, 1, 50, 0
4, 59103, Note_on_c, 1, 50, 100
4, 59156, Note_on_c, 1, 50, 0
4, 59162, Note_on_c, 1, 57, 101
4, 59216, Note_on_c, 1, 57, 0
4, 59221, Note_on_c, 1, 50, 101
4, 59276, Note_on_c, 1, 50, 0
4, 59283, Note_on_c, 1, 64, 103
4, 59336, Note_on_c, 1, 64, 0
4, 59337, Note_on_c, 1, 50, 101
4, 59396, Note_on_c, 1, 50, 0
4, 59400, Note_on_c, 1, 62, 98
4, 59456, Note_on_c, 1, 62, 0
4, 59460, Note_on_c, 1, 50, 100
4, 59516, Note_on_c, 1, 50, 0
4, 59519, Note_on_c, 1, 53, 103
4, 59576, Note_on_c, 1, 53, 0
4, 59582, Note_on_c, 1, 60, 103
4, 59635, Note_on_c, 1, 60, 0
4, 59643, Note_on_c, 1, 53, 98
4, 59696, Note_on_c, 1, 53, 0
4, 59700, Note_on_c, 1, 52, 99
4, 59756, Note_on_c, 1, 52, 0
4, 59763, Note_on_c, 1, 60, 100
4, 59816, Note_on_c, 1, 60, 0
4, 59817, Note_on_c, 1, 53, 103
4, 59876, Note_on_c, 1, 53, 0
4, 59880, Note_on_c, 1, 60, 99
4, 59936, Note_on_c, 1, 60, 0
4, 59938, Note_on_c, 1, 52, 103
4, 59996, Note_on_c, 1, 52, 0
4, 59998, Note_on_c, 1, 50, 100
4, 60000, Control_c, 1, 11, 127
4, 60031, Control_c, 1, 11, 126
4, 60056, Note_on_c, 1, 50, 0
4, 60060, Note_on_c, 1, 50, 102
4, 60062, Control_c, 1, 11, 125
4, 60093, Control_c, 1, 11, 124
4, 60116, Note_on_c, 1, 50, 0
4, 60119, Note_on_c, 1, 57, 100
4, 60124, Control_c, 1, 11, 123
4, 60155, Control_c, 1, 11, 122
4, 60176, Note_on_c, 1, 57, 0
4, 60179, Note_on_c, 1, 50, 99
4, 60187, Control_c, 1, 11, 121
4, 60218, Control_c, 1, 11, 120
4, 60236, Note_on_c, 1, 50, 0
4, 60242, Note_on_c, 1, 64, 103
4, 60249, Control_c, 1, 11, 119
4, 60280, Control_c, 1, 11, 118
4, 60296, Note_on_c, 1, 64, 0
4, 60301, Note_on_c, 1, 50, 101
4, 60311, Control_c, 1, 11, 117
4, 60342, Control_c, 1, 11, 116
4, 60356, Note_on_c, 1, 50, 0
4, 60358, Note_on_c, 1, 62, 99
4, 60374, Control_c, 1, 11, 115
4, 60405, Control_c, 1, 11, 114
4, 60416, Note_on_c, 1, 62, 0
4, 60417, Note_on_c, 1, 50, 102
4, 60436, Control_c, 1, 11, 113
4, 60467, Control_c, 1, 11, 112
4, 60476, Note_on_c, 1, 50, 0
4, 60482, Note_on_c, 1, 53, 101
4, 60498, Control_c, 1, 11, 111
4, 60530, Control_c, 1, 11, 110
4, 60536, Note_on_c, 1, 53, 0
4, 60537, Note_on_c, 1, 60, 103
4, 60561, Control_c, 1, 11, 109
4, 60592, Control_c, 1, 11, 108
4, 60595, Note_on_c, 1, 60, 0
4, 60602, Note_on_c, 1, 53, 103
4, 60623, Control_c, 1, 11, 107
4, 60654, Control_c, 1, 11, 106
4, 60656, Note_on_c, 1, 53, 0
4, 60662, Note_on_c, 1, 52, 99
4, 60685, Control_c, 1, 11, 105
4, 60716, Note_on_c, 1, 52, 0
4, 60717, Control_c, 1, 11, 104
4, 60719, Note_on_c, 1, 60, 101
4, 60748, Control_c, 1, 11, 103
4, 60776, Note_on_c, 1, 60, 0
4, 60779, Control_c, 1, 11, 102
4, 60782, Note_on_c, 1, 53, 102
4, 60810, Control_c, 1, 11, 101
4, 60836, Note_on_c, 1, 53, 0
4, 60840, Note_on_c, 1, 60, 102
4, 60841, Control_c, 1, 11, 100
4, 60873, Control_c, 1, 11, 99
4, 60896, Note_on_c, 1, 60, 0
4, 60899, Note_on_c, 1, 52, 98
4, 60904, Control_c, 1, 11, 98
4, 60935, Control_c, 1, 11, 97
4, 60966, Control_c, 1, 11, 96
4, 60997, Control_c, 1, 11, 95
4, 61015, Note_on_c, 1, 52, 0
4, 61023, Note_on_c, 1, 50, 101
4, 61028, Control_c, 1, 11, 94
4, 61060, Control_c, 1, 11, 93
4, 61076, Note_on_c, 1, 50, 0
4, 61081, Note_on_c, 1, 57, 102
4, 61091, Control_c, 1, 11, 92
4, 61122, Control_c, 1, 11, 91
4, 61136, Note_on_c, 1, 57, 0
4, 61142, Note_on_c, 1, 50, 99
4, 61153, Control_c, 1, 11, 90
4, 61184, Control_c, 1, 11, 89
4, 61196, Note_on_c, 1, 50, 0
4, 61198, Note_on_c, 1, 64, 103
4, 61216, Control_c, 1, 11, 88
4, 61247, Control_c, 1, 11, 87
4, 61256, Note_on_c, 1, 64, 0
4, 61261, Note_on_c, 1, 50, 99
4, 61278, Control_c, 1, 11, 86
4, 61309, Control_c, 1, 11, 85
4, 61316, Note_on_c, 1, 50, 0
4, 61317, Note_on_c, 1, 62, 102
4, 61340, Control_c, 1, 11, 84
4, 61371, Control_c, 1, 11, 83
4, 61376, Note_on_c, 1, 62, 0
4, 61377, Note_on_c, 1, 50, 100
4, 61403, Control_c, 1, 11, 82
4, 61434, Control_c, 1, 11, 81
4, 61436, Note_on_c, 1, 50, 0
4, 61440, Note_on_c, 1, 53, 102
4, 61465, Control_c, 1, 11, 80
4, 61496, Note_on_c, 1, 53, 0
4, 61496, Control_c, 1, 11, 79
4, 61501, Note_on_c, 1, 60, 103
4, 61527, Control_c, 1, 11, 78
4, 61555, Note_on_c, 1, 60, 0
4, 61559, Control_c, 1, 11, 77
4, 61563, Note_on_c, 1, 53, 100
4, 61590, Control_c, 1, 11, 76
4, 61616, Note_on_c, 1, 53, 0
4, 61617, Note_on_c, 1, 52, 102
4, 61621, Control_c, 1, 11, 75
4, 61652, Control_c, 1, 11, 74
4, 61676, Note_on_c, 1, 52, 0
4, 61683, Note_on_c, 1, 60, 101
4, 61683, Control_c, 1, 11, 73
4, 61714, Control_c, 1, 11, 72
4, 61736, Note_on_c, 1, 60, 0
4, 61738, Note_on_c, 1, 53, 102
4, 61746, Control_c, 1, 11, 71
4, 61777, Control_c, 1, 11, 70
4, 61796, Note_on_c, 1, 53, 0
4, 61797, Note_on_c, 1, 60, 101
4, 61808, Control_c, 1, 11, 69
4, 61839, Control_c, 1, 11, 68
4, 61856, Note_on_c, 1, 60, 0
4, 61862, Note_on_c, 1, 52, 101
4, 61870, Control_c, 1, 11, 67
4, 61902, Control_c, 1, 11, 66
4, 61916, Note_on_c, 1, 52, 0
4, 61933, Control_c, 1, 11, 65
4, 61964, Control_c, 1, 11, 64
4, 61977, Note_on_c, 1, 50, 98
4, 61995, Control_c, 1, 11, 63
4, 62026, Control_c, 1, 11, 62
4, 62036, Note_on_c, 1, 50, 0
4, 62043, Note_on_c, 1, 57, 102
4, 62057, Control_c, 1, 11, 61
4, 62089, Control_c, 1, 11, 60
4, 62096, Note_on_c, 1, 57, 0
4, 62101, Note_on_c, 1, 50, 102
4, 62120, Control_c, 1, 11, 59
4, 62151, Control_c, 1, 11, 58
4, 62156, Note_on_c, 1, 50, 0
4, 62163, Note_on_c, 1, 64, 98
4, 62182, Control_c, 1, 11, 57
4, 62213, Control_c, 1, 11, 56
4, 62216, Note_on_c, 1, 64, 0
4, 62223, Note_on_c, 1, 50, 101
4, 62245, Control_c, 1, 11, 55
4, 62276, Note_on_c, 1, 50, 0
4, 62276, Control_c, 1, 11, 54
4, 62283, Note_on_c, 1, 62, 99
4, 62307, Control_c, 1, 11, 53
4, 62336, Note_on_c, 1, 62, 0
4, 62338, Control_c, 1, 11, 52
4, 62341, Note_on_c, 1, 50, 102
4, 62369, Control_c, 1, 11, 51
4, 62396, Note_on_c, 1, 50, 0
4, 62400, Control_c, 1, 11, 50
4, 62403, Note_on_c, 1, 53, 99
4, 62432, Control_c, 1, 11, 49
4, 62456, Note_on_c, 1, 53, 0
4, 62460, Note_on_c, 1, 60, 103
4, 62463, Control_c, 1, 11, 48
4, 62494, Control_c, 1, 11, 47
4, 62515, Note_on_c, 1, 60, 0
4, 62520, Note_on_c, 1, 53, 102
4, 62525, Control_c, 1, 11, 46
4, 62556, Control_c, 1, 11, 45
4, 62576, Note_on_c, 1, 53, 0
4, 62578, Note_on_c, 1, 52, 101
4, 62588, Control_c, 1, 11, 44
4, 62619, Control_c, 1, 11, 43
4, 62636, Note_on_c, 1, 52, 0
4, 62641, Note_on_c, 1, 60, 100
4, 62650, Control_c, 1, 11, 42
4, 62681, Control_c, 1, 11, 41
4, 62696, Note_on_c, 1, 60, 0
4, 62701, Note_on_c, 1, 53, 98
4, 62712, Control_c, 1, 11, 40
4, 62743, Control_c, 1, 11, 39
4, 62756, Note_on_c, 1, 53, 0
4, 62757, Note_on_c, 1, 60, 102
4, 62775, Control_c, 1, 11, 38
4, 62806, Control_c, 1, 11, 37
4, 62816, Note_on_c, 1, 60, 0
4, 62822, Note_on_c, 1, 52, 98
4, 62837, Control_c, 1, 11, 36
4, 62868, Control_c, 1, 11, 35
4, 62876, Note_on_c, 1, 52, 0
4, 62899, Control_c, 1, 11, 34
4, 62931, Control_c, 1, 11, 33
4, 62938, Note_on_c, 1, 50, 100
4, 62962, Control_c, 1, 11, 32
4, 62993, Control_c, 1, 11, 31
4, 62996, Note_on_c, 1, 50, 0
4, 62997, Note_on_c, 1, 57, 98
4, 63024, Control_c, 1, 11, 30
4, 63055, Control_c, 1, 11, 29
4, 63056, Note_on_c, 1, 57, 0
4, 63058, Note_on_c, 1, 50, 99
4, 63086, Control_c, 1, 11, 28
4, 63116, Note_on_c, 1, 50, 0
4, 63118, Control_c, 1, 11, 27
4, 63121, Note_on_c, 1, 64, 100
4, 63149, Control_c, 1, 11, 26
4, 63176, Note_on_c, 1, 64, 0
4, 63179, Note_on_c, 1, 50, 98
4, 63180, Control_c, 1, 11, 25
4, 63211, Control_c, 1, 11, 24
4, 63236, Note_on_c, 1, 50, 0
4, 63241, Note_on_c, 1, 62, 99
4, 63242, Control_c, 1, 11, 23
4, 63274, Control_c, 1, 11, 22
4, 63296, Note_on_c, 1, 62, 0
4, 63302, Note_on_c, 1, 50, 100
4, 63305, Control_c, 1, 11, 21
4, 63336, Control_c, 1, 11, 20
4, 63356, Note_on_c, 1, 50, 0
4, 63358, Note_on_c, 1, 53, 102
4, 63367, Control_c, 1, 11, 19
4, 63398, Control_c, 1, 11, 18
4, 63416, Note_on_c, 1, 53, 0
4, 63421, Note_on_c, 1, 60, 98
4, 63429, Control_c, 1, 11, 17
4, 63461, Control_c, 1, 11, 16
4, 63475, Note_on_c, 1, 60, 0
4, 63477, Note_on_c, 1, 53, 99
4, 63492, Control_c, 1, 11, 15
4, 63523, Control_c, 1, 11, 14
4, 63536, Note_on_c, 1, 53, 0
4, 63541, Note_on_c, 1, 52, 102
4, 63554, Control_c, 1, 11, 13
4, 63585, Control_c, 1, 11, 12
4, 63596, Note_on_c, 1, 52, 0
4, 63603, Note_on_c, 1, 60, 101
4, 63617, Control_c, 1, 11, 11
4, 63648, Control_c, 1, 11, 10
4, 63656, Note_on_c, 1, 60, 0
4, 63658, Note_on_c, 1, 53, 100
4, 63679, Control_c, 1, 11, 9
4, 63710, Control_c, 1, 11, 8
4, 63716, Note_on_c, 1, 53, 0
4, 63718, Note_on_c, 1, 60, 99
4, 63741, Control_c, 1, 11, 7
4, 63772, Control_c, 1, 11, 6
4, 63776, Note_on_c, 1, 60, 0
4, 63781, Note_on_c, 1, 52, 102
4, 63804, Control_c, 1, 11, 5
4, 63835, Control_c, 1, 11, 4
4, 63836, Note_on_c, 1, 52, 0
4, 63866, Control_c, 1, 11, 3
4, 63897, Control_c, 1, 11, 2
4, 63928, Control_c, 1, 11, 1
4, 63960, Control_c, 1, 11, 0
4, 64101, Control_c, 1, 11, 127
4, 64101, End_track
5, 0, Start_track
5, 0, MIDI_port, 0
5, 0, Program_c, 2, 30
5, 0, Control_c, 2, 7, 93
5, 0, Control_c, 2, 10, 64
5, 0, Control_c, 2, 91, 61
5, 0, Control_c, 2, 93, 23
5, 2878, Note_on_c, 2, 50, 99
5, 2935, Note_on_c, 2, 50, 0
5, 2940, Note_on_c, 2, 50, 98
5, 2995, Note_on_c, 2, 50, 0
5, 3000, Note_on_c, 2, 57, 101
5, 3055, Note_on_c, 2, 57, 0
5, 3060, Note_on_c, 2, 50, 101
5, 3116, Note_on_c, 2, 50, 0
5, 3123, Note_on_c, 2, 64, 99
5, 3176, Note_on_c, 2, 64, 0
5, 3183, Note_on_c, 2, 50, 101
5, 3236, Note_on_c, 2, 50, 0
5, 3242, Note_on_c, 2, 62, 103
5, 3296, Note_on_c, 2, 62, 0
5, 3301, Note_on_c, 2, 50, 102
5, 3356, Note_on_c, 2, 50, 0
5, 3363, Note_on_c, 2, 54, 102
5, 3415, Note_on_c, 2, 54, 0
5, 3423, Note_on_c, 2, 55, 101
5, 3476, Note_on_c, 2, 55, 0
5, 3480, Note_on_c, 2, 60, 101
5, 3536, Note_on_c, 2, 60, 0
5, 3542, Note_on_c, 2, 54, 101
5, 3596, Note_on_c, 2, 54, 0
5, 3598, Note_on_c, 2, 55, 98
5, 3656, Note_on_c, 2, 55, 0
5, 3659, Note_on_c, 2, 60, 99
5, 3716, Note_on_c, 2, 60, 0
5, 3717, Note_on_c, 2, 52, 101
5, 3776, Note_on_c, 2, 52, 0
5, 3781, Note_on_c, 2, 50, 103
5, 3895, Note_on_c, 2, 50, 0
5, 3897, Note_on_c, 2, 50, 101
5, 3955, Note_on_c, 2, 50, 0
5, 3963, Note_on_c, 2, 57, 102
5, 4015, Note_on_c, 2, 57, 0
5, 4019, Note_on_c, 2, 50, 102
5, 4076, Note_on_c, 2, 50, 0
5, 4079, Note_on_c, 2, 64, 99
5, 4136, Note_on_c, 2, 64, 0
5, 4137, Note_on_c, 2, 50, 102
5, 4196, Note_on_c, 2, 50, 0
5, 4197, Note_on_c, 2, 62, 99
5, 4256, Note_on_c, 2, 62, 0
5, 4260, Note_on_c, 2, 50, 98
5, 4316, Note_on_c, 2, 50, 0
5, 4317, Note_on_c, 2, 54, 102
5, 4375, Note_on_c, 2, 54, 0
5, 4377, Note_on_c, 2, 55, 99
5, 4436, Note_on_c, 2, 55, 0
5, 4437, Note_on_c, 2, 60, 101
5, 4496, Note_on_c, 2, 60, 0
5, 4501, Note_on_c, 2, 54, 98
5, 4556, Note_on_c, 2, 54, 0
5, 4561, Note_on_c, 2, 55, 102
5, 4616, Note_on_c, 2, 55, 0
5, 4622, Note_on_c, 2, 60, 103
5, 4676, Note_on_c, 2, 60, 0
5, 4681, Note_on_c, 2, 52, 103
5, 4736, Note_on_c, 2, 52, 0
5, 4737, Note_on_c, 2, 50, 101
5, 4795, Note_on_c, 2, 50, 0
5, 4798, Note_on_c, 2, 48, 98
5, 4856, Note_on_c, 2, 48, 0
5, 4860, Note_on_c, 2, 50, 101
5, 4916, Note_on_c, 2, 50, 0
5, 4917, Note_on_c, 2, 57, 101
5, 4976, Note_on_c, 2, 57, 0
5, 4981, Note_on_c, 2, 50, 103
5, 5036, Note_on_c, 2, 50, 0
5, 5038, Note_on_c, 2, 64, 103
5, 5096, Note_on_c, 2, 64, 0
5, 5098, Note_on_c, 2, 50, 100
5, 5156, Note_on_c, 2, 50, 0
5, 5157, Note_on_c, 2, 62, 101
5, 5216, Note_on_c, 2, 62, 0
5, 5220, Note_on_c, 2, 50, 101
5, 5276, Note_on_c, 2, 50, 0
5, 5283, Note_on_c, 2, 54, 102
5, 5336, Note_on_c, 2, 54, 0
5, 5339, Note_on_c, 2, 55, 101
5, 5396, Note_on_c, 2, 55, 0
5, 5403, Note_on_c, 2, 60, 98
5, 5456, Note_on_c, 2, 60, 0
5, 5463, Note_on_c, 2, 54, 103
5, 5516, Note_on_c, 2, 54, 0
5, 5517, Note_on_c, 2, 55, 102
5, 5576, Note_on_c, 2, 55, 0
5, 5582, Note_on_c, 2, 60, 103
5, 5636, Note_on_c, 2, 60, 0
5, 5637, Note_on_c, 2, 52, 98
5, 5696, Note_on_c, 2, 52, 0
5, 5698, Note_on_c, 2, 50, 100
5, 5756, Note_on_c, 2, 50, 0
5, 5760, Note_on_c, 2, 48, 99
5, 5816, Note_on_c, 2, 48, 0
5, 5817, Note_on_c, 2, 50, 99
5, 5876, Note_on_c, 2, 50, 0
5, 5883, Note_on_c, 2, 57, 103
5, 5936, Note_on_c, 2, 57, 0
5, 5937, Note_on_c, 2, 50, 100
5, 5996, Note_on_c, 2, 50, 0
5, 5999, Note_on_c, 2, 64, 103
5, 6056, Note_on_c, 2, 64, 0
5, 6062, Note_on_c, 2, 50, 103
5, 6116, Note_on_c, 2, 50, 0
5, 6122, Note_on_c, 2, 62, 102
5, 6176, Note_on_c, 2, 62, 0
5, 6179, Note_on_c, 2, 50, 98
5, 6236, Note_on_c, 2, 50, 0
5, 6239, Note_on_c, 2, 54, 100
5, 6296, Note_on_c, 2, 54, 0
5, 6300, Note_on_c, 2, 55, 99
5, 6356, Note_on_c, 2, 55, 0
5, 6363, Note_on_c, 2, 60, 98
5, 6416, Note_on_c, 2, 60, 0
5, 6418, Note_on_c, 2, 54, 102
5, 6476, Note_on_c, 2, 54, 0
5, 6482, Note_on_c, 2, 55, 101
5, 6536, Note_on_c, 2, 55, 0
5, 6539, Note_on_c, 2, 60, 100
5, 6596, Note_on_c, 2, 60, 0
5, 6600, Note_on_c, 2, 52, 100
5, 6656, Note_on_c, 2, 52, 0
5, 6660, Note_on_c, 2, 50, 102
5, 6717, Note_on_c, 2, 50, 0
5, 6721, Note_on_c, 2, 48, 102
5, 6777, Note_on_c, 2, 48, 0
5, 6781, Note_on_c, 2, 50, 99
5, 6837, Note_on_c, 2, 50, 0
5, 6843, Note_on_c, 2, 57, 102
5, 6897, Note_on_c, 2, 57, 0
5, 6902, Note_on_c, 2, 50, 103
5, 6957, Note_on_c, 2, 50, 0
5, 6959, Note_on_c, 2, 64, 99
5, 7017, Note_on_c, 2, 64, 0
5, 7023, Note_on_c, 2, 50, 101
5, 7077, Note_on_c, 2, 50, 0
5, 7084, Note_on_c, 2, 62, 99
5, 7137, Note_on_c, 2, 62, 0
5, 7142, Note_on_c, 2, 50, 100
5, 7197, Note_on_c, 2, 50, 0
5, 7199, Note_on_c, 2, 54, 102
5, 7257, Note_on_c, 2, 54, 0
5, 7261, Note_on_c, 2, 55, 101
5, 7317, Note_on_c, 2, 55, 0
5, 7322, Note_on_c, 2, 60, 99
5, 7377, Note_on_c, 2, 60, 0
5, 7379, Note_on_c, 2, 54, 102
5, 7437, Note_on_c, 2, 54, 0
5, 7442, Note_on_c, 2, 55, 100
5, 7497, Note_on_c, 2, 55, 0
5, 7500, Note_on_c, 2, 60, 101
5, 7557, Note_on_c, 2, 60, 0
5, 7558, Note_on_c, 2, 52, 102
5, 7617, Note_on_c, 2, 52, 0
5, 7618, Note_on_c, 2, 50, 103
5, 7676, Note_on_c, 2, 50, 0
5, 7677, Note_on_c, 2, 48, 99
5, 7736, Note_on_c, 2, 48, 0
5, 7742, Note_on_c, 2, 50, 102
5, 7796, Note_on_c, 2, 50, 0
5, 7798, Note_on_c, 2, 57, 100
5, 7856, Note_on_c, 2, 57, 0
5, 7857, Note_on_c, 2, 50, 102
5, 7916, Note_on_c, 2, 50, 0
5, 7917, Note_on_c, 2, 64, 100
5, 7976, Note_on_c, 2, 64, 0
5, 7978, Note_on_c, 2, 50, 98
5, 8036, Note_on_c, 2, 50, 0
5, 8042, Note_on_c, 2, 62, 102
5, 8096, Note_on_c, 2, 62, 0
5, 8101, Note_on_c, 2, 50, 99
5, 8156, Note_on_c, 2, 50, 0
5, 8157, Note_on_c, 2, 57, 102
5, 8216, Note_on_c, 2, 57, 0
5, 8221, Note_on_c, 2, 50, 98
5, 8276, Note_on_c, 2, 50, 0
5, 8280, Note_on_c, 2, 64, 99
5, 8336, Note_on_c, 2, 64, 0
5, 8341, Note_on_c, 2, 50, 101
5, 8396, Note_on_c, 2, 50, 0
5, 8401, Note_on_c, 2, 62, 100
5, 8456, Note_on_c, 2, 62, 0
5, 8461, Note_on_c, 2, 50, 100
5, 8516, Note_on_c, 2, 50, 0
5, 8521, Note_on_c, 2, 57, 102
5, 8635, Note_on_c, 2, 57, 0
5, 8642, Note_on_c, 2, 50, 99
5, 9596, Note_on_c, 2, 50, 0
5, 11577, Note_on_c, 2, 55, 103
5, 11636, Note_on_c, 2, 55, 0
5, 11639, Note_on_c, 2, 62, 102
5, 11696, Note_on_c, 2, 62, 0
5, 11700, Note_on_c, 2, 57, 102
5, 11756, Note_on_c, 2, 57, 0
5, 11759, Note_on_c, 2, 62, 100
5, 11816, Note_on_c, 2, 62, 0
5, 11821, Note_on_c, 2, 60, 99
5, 11876, Note_on_c, 2, 60, 0
5, 11883, Note_on_c, 2, 55, 100
5, 11936, Note_on_c, 2, 55, 0
5, 11941, Note_on_c, 2, 62, 99
5, 11996, Note_on_c, 2, 62, 0
5, 11999, Note_on_c, 2, 51, 100
5, 12056, Note_on_c, 2, 51, 0
5, 12058, Note_on_c, 2, 58, 98
5, 12116, Note_on_c, 2, 58, 0
5, 12122, Note_on_c, 2, 65, 99
5, 12176, Note_on_c, 2, 65, 0
5, 12183, Note_on_c, 2, 51, 100
5, 12236, Note_on_c, 2, 51, 0
5, 12242, Note_on_c, 2, 65, 103
5, 12296, Note_on_c, 2, 65, 0
5, 12299, Note_on_c, 2, 63, 98
5, 12356, Note_on_c, 2, 63, 0
5, 12363, Note_on_c, 2, 58, 103
5, 12416, Note_on_c, 2, 58, 0
5, 12421, Note_on_c, 2, 51, 98
5, 12476, Note_on_c, 2, 51, 0
5, 12483, Note_on_c, 2, 46, 101
5, 12536, Note_on_c, 2, 46, 0
5, 12539, Note_on_c, 2, 53, 103
5, 12596, Note_on_c, 2, 53, 0
5, 12599, Note_on_c, 2, 60, 100
5, 12656, Note_on_c, 2, 60, 0
5, 12658, Note_on_c, 2, 46, 101
5, 12716, Note_on_c, 2, 46, 0
5, 12717, Note_on_c, 2, 60, 103
5, 12776, Note_on_c, 2, 60, 0
5, 12779, Note_on_c, 2, 58, 103
5, 12836, Note_on_c, 2, 58, 0
5, 12837, Note_on_c, 2, 53, 103
5, 12896, Note_on_c, 2, 53, 0
5, 12899, Note_on_c, 2, 60, 99
5, 12956, Note_on_c, 2, 60, 0
5, 12961, Note_on_c, 2, 50, 88
5, 13075, Note_on_c, 2, 50, 0
5, 13081, Note_on_c, 2, 50, 90
5, 13136, Note_on_c, 2, 50, 0
5, 13138, Note_on_c, 2, 50, 86
5, 13196, Note_on_c, 2, 50, 0
5, 13202, Note_on_c, 2, 50, 90
5, 13256, Note_on_c, 2, 50, 0
5, 13258, Note_on_c, 2, 50, 89
5, 13316, Note_on_c, 2, 50, 0
5, 13322, Note_on_c, 2, 50, 89
5, 13376, Note_on_c, 2, 50, 0
5, 13378, Note_on_c, 2, 50, 93
5, 13436, Note_on_c, 2, 50, 0
5, 13439, Note_on_c, 2, 50, 95
5, 13440, Note_on_c, 2, 57, 94
5, 13496, Note_on_c, 2, 57, 0
5, 13496, Note_on_c, 2, 50, 0
5, 13498, Note_on_c, 2, 57, 93
5, 13502, Note_on_c, 2, 50, 95
5, 13556, Note_on_c, 2, 50, 0
5, 13556, Note_on_c, 2, 57, 0
5, 13557, Note_on_c, 2, 57, 95
5, 13563, Note_on_c, 2, 50, 96
5, 13616, Note_on_c, 2, 50, 0
5, 13616, Note_on_c, 2, 57, 0
5, 13620, Note_on_c, 2, 57, 95
5, 13621, Note_on_c, 2, 50, 99
5, 13676, Note_on_c, 2, 50, 0
5, 13676, Note_on_c, 2, 57, 0
5, 13678, Note_on_c, 2, 57, 95
5, 13681, Note_on_c, 2, 50, 97
5, 13736, Note_on_c, 2, 50, 0
5, 13736, Note_on_c, 2, 57, 0
5, 13739, Note_on_c, 2, 50, 99
5, 13740, Note_on_c, 2, 57, 100
5, 13796, Note_on_c, 2, 57, 0
5, 13796, Note_on_c, 2, 50, 0
5, 13799, Note_on_c, 2, 57, 101
5, 13802, Note_on_c, 2, 50, 103
5, 13915, Note_on_c, 2, 50, 0
5, 13915, Note_on_c, 2, 57, 0
5, 13918, Note_on_c, 2, 55, 98
5, 13920, Note_on_c, 2, 67, 102
5, 13922, Note_on_c, 2, 62, 98
5, 14095, Note_on_c, 2, 62, 0
5, 14095, Note_on_c, 2, 67, 0
5, 14095, Note_on_c, 2, 55, 0
5, 14100, Note_on_c, 2, 58, 99
5, 14102, Note_on_c, 2, 51, 100
5, 14102, Note_on_c, 2, 63, 102
5, 14395, Note_on_c, 2, 63, 0
5, 14395, Note_on_c, 2, 51, 0
5, 14395, Note_on_c, 2, 58, 0
5, 14398, Note_on_c, 2, 53, 100
5, 14400, Note_on_c, 2, 58, 102
5, 14401, Note_on_c, 2, 46, 102
5, 14575, Note_on_c, 2, 46, 0
5, 14575, Note_on_c, 2, 58, 0
5, 14575, Note_on_c, 2, 53, 0
5, 14579, Note_on_c, 2, 65, 103
5, 14581, Note_on_c, 2, 53, 99
5, 14582, Note_on_c, 2, 60, 102
5, 14873, Note_on_c, 2, 60, 0
5, 14873, Note_on_c, 2, 53, 0
5, 14873, Note_on_c, 2, 65, 0
5, 14877, Note_on_c, 2, 55, 101
5, 14880, Note_on_c, 2, 48, 103
5, 14883, Note_on_c, 2, 60, 100
5, 15056, Note_on_c, 2, 60, 0
5, 15056, Note_on_c, 2, 48, 0
5, 15056, Note_on_c, 2, 55, 0
5, 15057, Note_on_c, 2, 56, 102
5, 15059, Note_on_c, 2, 44, 99
5, 15059, Note_on_c, 2, 51, 101
5, 15356, Note_on_c, 2, 51, 0
5, 15356, Note_on_c, 2, 44, 0
5, 15356, Note_on_c, 2, 56, 0
5, 15358, Note_on_c, 2, 63, 98
5, 15358, Note_on_c, 2, 58, 100
5, 15363, Note_on_c, 2, 51, 98
5, 15536, Note_on_c, 2, 51, 0
5, 15536, Note_on_c, 2, 58, 0
5, 15536, Note_on_c, 2, 63, 0
5, 15538, Note_on_c, 2, 58, 101
5, 15539, Note_on_c, 2, 46, 100
5, 15541, Note_on_c, 2, 53, 100
5, 15836, Note_on_c, 2, 53, 0
5, 15836, Note_on_c, 2, 46, 0
5, 15836, Note_on_c, 2, 58, 0
5, 15837, Note_on_c, 2, 45, 103
5, 15841, Note_on_c, 2, 52, 98
5, 15842, Note_on_c, 2, 57, 102
5, 16016, Note_on_c, 2, 57, 0
5, 16016, Note_on_c, 2, 52, 0
5, 16016, Note_on_c, 2, 45, 0
5, 16021, Note_on_c, 2, 65, 101
5, 16021, Note_on_c, 2, 53, 99
5, 16022, Note_on_c, 2, 60, 98
5, 16316, Note_on_c, 2, 60, 0
5, 16316, Note_on_c, 2, 53, 0
5, 16316, Note_on_c, 2, 65, 0
5, 16318, Note_on_c, 2, 55, 100
5, 16321, Note_on_c, 2, 60, 100
5, 16323, Note_on_c, 2, 48, 103
5, 16496, Note_on_c, 2, 48, 0
5, 16496, Note_on_c, 2, 60, 0
5, 16496, Note_on_c, 2, 55, 0
5, 16502, Note_on_c, 2, 55, 99
5, 16502, Note_on_c, 2, 50, 103
5, 16503, Note_on_c, 2, 43, 99
5, 16796, Note_on_c, 2, 43, 0
5, 16796, Note_on_c, 2, 50, 0
5, 16796, Note_on_c, 2, 55, 0
5, 16798, Note_on_c, 2, 62, 99
5, 16799, Note_on_c, 2, 57, 103
5, 16802, Note_on_c, 2, 50, 100
5, 16976, Note_on_c, 2, 50, 0
5, 16976, Note_on_c, 2, 57, 0
5, 16976, Note_on_c, 2, 62, 0
5, 16977, Note_on_c, 2, 46, 98
5, 16980, Note_on_c, 2, 53, 103
5, 16981, Note_on_c, 2, 58, 99
5, 17276, Note_on_c, 2, 58, 0
5, 17276, Note_on_c, 2, 53, 0
5, 17276, Note_on_c, 2, 46, 0
5, 17277, Note_on_c, 2, 60, 102
5, 17279, Note_on_c, 2, 53, 98
5, 17280, Note_on_c, 2, 65, 102
5, 17456, Note_on_c, 2, 65, 0
5, 17456, Note_on_c, 2, 53, 0
5, 17456, Note_on_c, 2, 60, 0
5, 17457, Note_on_c, 2, 55, 100
5, 17461, Note_on_c, 2, 48, 99
5, 17463, Note_on_c, 2, 60, 102
5, 17575, Note_on_c, 2, 60, 0
5, 17575, Note_on_c, 2, 48, 0
5, 17575, Note_on_c, 2, 55, 0
5, 17578, Note_on_c, 2, 55, 100
5, 17579, Note_on_c, 2, 60, 101
5, 17582, Note_on_c, 2, 48, 102
5, 17635, Note_on_c, 2, 60, 0
5, 17635, Note_on_c, 2, 55, 0
5, 17636, Note_on_c, 2, 48, 0
5, 17637, Note_on_c, 2, 60, 100
5, 17639, Note_on_c, 2, 55, 103
5, 17642, Note_on_c, 2, 48, 101
5, 17755, Note_on_c, 2, 48, 0
5, 17755, Note_on_c, 2, 55, 0
5, 17755, Note_on_c, 2, 60, 0
5, 17757, Note_on_c, 2, 50, 103
5, 17761, Note_on_c, 2, 62, 99
5, 17763, Note_on_c, 2, 57, 98
5, 17936, Note_on_c, 2, 57, 0
5, 17936, Note_on_c, 2, 62, 0
5, 17936, Note_on_c, 2, 50, 0
5, 17941, Note_on_c, 2, 53, 99
5, 17942, Note_on_c, 2, 58, 99
5, 17943, Note_on_c, 2, 46, 102
5, 18236, Note_on_c, 2, 46, 0
5, 18236, Note_on_c, 2, 58, 0
5, 18236, Note_on_c, 2, 53, 0
5, 18240, Note_on_c, 2, 60, 100
5, 18240, Note_on_c, 2, 65, 98
5, 18241, Note_on_c, 2, 53, 100
5, 18416, Note_on_c, 2, 53, 0
5, 18416, Note_on_c, 2, 65, 0
5, 18416, Note_on_c, 2, 60, 0
5, 18417, Note_on_c, 2, 48, 98
5, 18417, Note_on_c, 2, 55, 102
5, 18423, Note_on_c, 2, 60, 98
5, 18716, Note_on_c, 2, 60, 0
5, 18716, Note_on_c, 2, 55, 0
5, 18716, Note_on_c, 2, 48, 0
5, 18718, Note_on_c, 2, 57, 103
5, 18718, Note_on_c, 2, 50, 99
5, 18723, Note_on_c, 2, 62, 103
5, 18896, Note_on_c, 2, 62, 0
5, 18896, Note_on_c, 2, 50, 0
5, 18896, Note_on_c, 2, 57, 0
5, 18897, Note_on_c, 2, 58, 98
5, 18898, Note_on_c, 2, 46, 103
5, 18898, Note_on_c, 2, 53, 103
5, 19196, Note_on_c, 2, 53, 0
5, 19196, Note_on_c, 2, 46, 0
5, 19196, Note_on_c, 2, 58, 0
5, 19198, Note_on_c, 2, 60, 99
5, 19200, Note_on_c, 2, 53, 99
5, 19201, Note_on_c, 2, 65, 99
5, 19376, Note_on_c, 2, 65, 0
5, 19376, Note_on_c, 2, 53, 0
5, 19376, Note_on_c, 2, 60, 0
5, 19377, Note_on_c, 2, 48, 100
5, 19378, Note_on_c, 2, 55, 103
5, 19379, Note_on_c, 2, 60, 103
5, 19676, Note_on_c, 2, 60, 0
5, 19676, Note_on_c, 2, 55, 0
5, 19676, Note_on_c, 2, 48, 0
5, 19681, Note_on_c, 2, 57, 102
5, 19682, Note_on_c, 2, 50, 100
5, 19682, Note_on_c, 2, 62, 98
5, 19856, Note_on_c, 2, 62, 0
5, 19856, Note_on_c, 2, 50, 0
5, 19856, Note_on_c, 2, 57, 0
5, 19862, Note_on_c, 2, 46, 103
5, 19863, Note_on_c, 2, 58, 103
5, 19863, Note_on_c, 2, 53, 99
5, 20156, Note_on_c, 2, 53, 0
5, 20156, Note_on_c, 2, 58, 0
5, 20156, Note_on_c, 2, 46, 0
5, 20157, Note_on_c, 2, 60, 102
5, 20163, Note_on_c, 2, 65, 99
5, 20163, Note_on_c, 2, 53, 102
5, 20336, Note_on_c, 2, 53, 0
5, 20336, Note_on_c, 2, 65, 0
5, 20336, Note_on_c, 2, 60, 0
5, 20337, Note_on_c, 2, 60, 98
5, 20338, Note_on_c, 2, 55, 99
5, 20340, Note_on_c, 2, 48, 100
5, 20636, Note_on_c, 2, 48, 0
5, 20636, Note_on_c, 2, 55, 0
5, 20636, Note_on_c, 2, 60, 0
5, 20639, Note_on_c, 2, 57, 103
5, 20642, Note_on_c, 2, 62, 103
5, 20643, Note_on_c, 2, 50, 99
5, 20816, Note_on_c, 2, 50, 0
5, 20816, Note_on_c, 2, 62, 0
5, 20816, Note_on_c, 2, 57, 0
5, 20819, Note_on_c, 2, 53, 99
5, 20820, Note_on_c, 2, 58, 99
5, 20822, Note_on_c, 2, 46, 102
5, 21116, Note_on_c, 2, 46, 0
5, 21116, Note_on_c, 2, 58, 0
5, 21116, Note_on_c, 2, 53, 0
5, 21117, Note_on_c, 2, 65, 103
5, 21121, Note_on_c, 2, 53, 102
5, 21123, Note_on_c, 2, 60, 99
5, 21296, Note_on_c, 2, 60, 0
5, 21296, Note_on_c, 2, 53, 0
5, 21296, Note_on_c, 2, 65, 0
5, 21297, Note_on_c, 2, 60, 98
5, 21298, Note_on_c, 2, 55, 101
5, 21303, Note_on_c, 2, 48, 102
5, 21596, Note_on_c, 2, 48, 0
5, 21596, Note_on_c, 2, 55, 0
5, 21596, Note_on_c, 2, 60, 0
5, 21598, Note_on_c, 2, 46, 103
5, 21601, Note_on_c, 2, 53, 98
5, 21602, Note_on_c, 2, 58, 102
5, 22555, Note_on_c, 2, 58, 0
5, 22555, Note_on_c, 2, 53, 0
5, 22555, Note_on_c, 2, 46, 0
5, 22558, Note_on_c, 2, 57, 99
5, 22560, Note_on_c, 2, 62, 98
5, 22560, Note_on_c, 2, 50, 100
5, 23036, Note_on_c, 2, 50, 0
5, 23036, Note_on_c, 2, 62, 0
5, 23036, Note_on_c, 2, 57, 0
5, 23039, Note_on_c, 2, 46, 103
5, 23095, Note_on_c, 2, 46, 0
5, 23100, Note_on_c, 2, 46, 91
5, 23155, Note_on_c, 2, 46, 0
5, 23160, Note_on_c, 2, 46, 83
5, 23215, Note_on_c, 2, 46, 0
5, 23218, Note_on_c, 2, 46, 71
5, 23275, Note_on_c, 2, 46, 0
5, 23282, Note_on_c, 2, 46, 60
5, 23335, Note_on_c, 2, 46, 0
5, 23339, Note_on_c, 2, 46, 49
5, 23395, Note_on_c, 2, 46, 0
5, 23397, Note_on_c, 2, 46, 43
5, 23455, Note_on_c, 2, 46, 0
5, 23457, Note_on_c, 2, 46, 30
5, 23515, Note_on_c, 2, 46, 0
5, 23523, Note_on_c, 2, 53, 99
5, 23575, Note_on_c, 2, 53, 0
5, 23583, Note_on_c, 2, 53, 89
5, 23635, Note_on_c, 2, 53, 0
5, 23642, Note_on_c, 2, 53, 79
5, 23695, Note_on_c, 2, 53, 0
5, 23699, Note_on_c, 2, 53, 70
5, 23755, Note_on_c, 2, 53, 0
5, 23763, Note_on_c, 2, 53, 60
5, 23815, Note_on_c, 2, 53, 0
5, 23821, Note_on_c, 2, 53, 48
5, 23875, Note_on_c, 2, 53, 0
5, 23877, Note_on_c, 2, 53, 41
5, 23935, Note_on_c, 2, 53, 0
5, 23938, Note_on_c, 2, 53, 29
5, 23995, Note_on_c, 2, 53, 0
5, 23999, Note_on_c, 2, 48, 103
5, 24055, Note_on_c, 2, 48, 0
5, 24062, Note_on_c, 2, 48, 88
5, 24115, Note_on_c, 2, 48, 0
5, 24120, Note_on_c, 2, 48, 78
5, 24175, Note_on_c, 2, 48, 0
5, 24182, Note_on_c, 2, 48, 72
5, 24235, Note_on_c, 2, 48, 0
5, 24238, Note_on_c, 2, 48, 59
5, 24295, Note_on_c, 2, 48, 0
5, 24301, Note_on_c, 2, 48, 51
5, 24355, Note_on_c, 2, 48, 0
5, 24362, Note_on_c, 2, 48, 42
5, 24415, Note_on_c, 2, 48, 0
5, 24421, Note_on_c, 2, 48, 30
5, 24475, Note_on_c, 2, 48, 0
5, 24538, Note_on_c, 2, 55, 99
5, 24596, Note_on_c, 2, 55, 0
5, 24598, Note_on_c, 2, 62, 101
5, 24656, Note_on_c, 2, 62, 0
5, 24660, Note_on_c, 2, 57, 103
5, 24716, Note_on_c, 2, 57, 0
5, 24717, Note_on_c, 2, 62, 101
5, 24776, Note_on_c, 2, 62, 0
5, 24779, Note_on_c, 2, 60, 99
5, 24836, Note_on_c, 2, 60, 0
5, 24839, Note_on_c, 2, 55, 101
5, 24896, Note_on_c, 2, 55, 0
5, 24900, Note_on_c, 2, 62, 98
5, 24956, Note_on_c, 2, 62, 0
5, 24958, Note_on_c, 2, 51, 101
5, 25016, Note_on_c, 2, 51, 0
5, 25020, Note_on_c, 2, 58, 98
5, 25076, Note_on_c, 2, 58, 0
5, 25079, Note_on_c, 2, 65, 101
5, 25136, Note_on_c, 2, 65, 0
5, 25139, Note_on_c, 2, 51, 100
5, 25196, Note_on_c, 2, 51, 0
5, 25201, Note_on_c, 2, 65, 99
5, 25256, Note_on_c, 2, 65, 0
5, 25261, Note_on_c, 2, 63, 103
5, 25316, Note_on_c, 2, 63, 0
5, 25320, Note_on_c, 2, 58, 101
5, 25376, Note_on_c, 2, 58, 0
5, 25379, Note_on_c, 2, 51, 103
5, 25436, Note_on_c, 2, 51, 0
5, 25438, Note_on_c, 2, 46, 103
5, 25496, Note_on_c, 2, 46, 0
5, 25498, Note_on_c, 2, 53, 98
5, 25556, Note_on_c, 2, 53, 0
5, 25558, Note_on_c, 2, 60, 100
5, 25616, Note_on_c, 2, 60, 0
5, 25618, Note_on_c, 2, 46, 98
5, 25676, Note_on_c, 2, 46, 0
5, 25681, Note_on_c, 2, 60, 98
5, 25736, Note_on_c, 2, 60, 0
5, 25742, Note_on_c, 2, 58, 101
5, 25796, Note_on_c, 2, 58, 0
5, 25802, Note_on_c, 2, 53, 98
5, 25856, Note_on_c, 2, 53, 0
5, 25863, Note_on_c, 2, 60, 99
5, 25916, Note_on_c, 2, 60, 0
5, 25923, Note_on_c, 2, 50, 87
5, 26035, Note_on_c, 2, 50, 0
5, 26042, Note_on_c, 2, 50, 85
5, 26096, Note_on_c, 2, 50, 0
5, 26102, Note_on_c, 2, 50, 89
5, 26156, Note_on_c, 2, 50, 0
5, 26159, Note_on_c, 2, 50, 92
5, 26216, Note_on_c, 2, 50, 0
5, 26218, Note_on_c, 2, 50, 90
5, 26276, Note_on_c, 2, 50, 0
5, 26282, Note_on_c, 2, 50, 94
5, 26336, Note_on_c, 2, 50, 0
5, 26340, Note_on_c, 2, 50, 94
5, 26396, Note_on_c, 2, 50, 0
5, 26399, Note_on_c, 2, 57, 91
5, 26402, Note_on_c, 2, 50, 96
5, 26456, Note_on_c, 2, 50, 0
5, 26456, Note_on_c, 2, 57, 0
5, 26457, Note_on_c, 2, 50, 92
5, 26458, Note_on_c, 2, 57, 97
5, 26516, Note_on_c, 2, 57, 0
5, 26516, Note_on_c, 2, 50, 0
5, 26517, Note_on_c, 2, 57, 93
5, 26518, Note_on_c, 2, 50, 96
5, 26576, Note_on_c, 2, 50, 0
5, 26576, Note_on_c, 2, 57, 0
5, 26578, Note_on_c, 2, 57, 95
5, 26583, Note_on_c, 2, 50, 99
5, 26636, Note_on_c, 2, 50, 0
5, 26636, Note_on_c, 2, 57, 0
5, 26641, Note_on_c, 2, 57, 99
5, 26642, Note_on_c, 2, 50, 98
5, 26696, Note_on_c, 2, 50, 0
5, 26696, Note_on_c, 2, 57, 0
5, 26701, Note_on_c, 2, 57, 100
5, 26702, Note_on_c, 2, 50, 100
5, 26756, Note_on_c, 2, 50, 0
5, 26756, Note_on_c, 2, 57, 0
5, 26762, Note_on_c, 2, 57, 102
5, 26762, Note_on_c, 2, 50, 101
5, 26875, Note_on_c, 2, 50, 0
5, 26875, Note_on_c, 2, 57, 0
5, 26877, Note_on_c, 2, 55, 101
5, 26878, Note_on_c, 2, 67, 99
5, 26879, Note_on_c, 2, 62, 103
5, 27055, Note_on_c, 2, 62, 0
5, 27055, Note_on_c, 2, 67, 0
5, 27055, Note_on_c, 2, 55, 0
5, 27057, Note_on_c, 2, 58, 99
5, 27058, Note_on_c, 2, 63, 101
5, 27062, Note_on_c, 2, 51, 98
5, 27355, Note_on_c, 2, 51, 0
5, 27355, Note_on_c, 2, 63, 0
5, 27355, Note_on_c, 2, 58, 0
5, 27358, Note_on_c, 2, 58, 100
5, 27358, Note_on_c, 2, 46, 103
5, 27362, Note_on_c, 2, 53, 101
5, 27535, Note_on_c, 2, 53, 0
5, 27535, Note_on_c, 2, 46, 0
5, 27535, Note_on_c, 2, 58, 0
5, 27538, Note_on_c, 2, 65, 100
5, 27540, Note_on_c, 2, 60, 98
5, 27541, Note_on_c, 2, 53, 102
5, 27833, Note_on_c, 2, 53, 0
5, 27833, Note_on_c, 2, 60, 0
5, 27833, Note_on_c, 2, 65, 0
5, 27837, Note_on_c, 2, 60, 103
5, 27838, Note_on_c, 2, 55, 102
5, 27843, Note_on_c, 2, 48, 103
5, 28016, Note_on_c, 2, 48, 0
5, 28016, Note_on_c, 2, 55, 0
5, 28016, Note_on_c, 2, 60, 0
5, 28017, Note_on_c, 2, 51, 103
5, 28018, Note_on_c, 2, 44, 101
5, 28022, Note_on_c, 2, 56, 102
5, 28316, Note_on_c, 2, 56, 0
5, 28316, Note_on_c, 2, 44, 0
5, 28316, Note_on_c, 2, 51, 0
5, 28319, Note_on_c, 2, 58, 100
5, 28321, Note_on_c, 2, 51, 100
5, 28322, Note_on_c, 2, 63, 98
5, 28496, Note_on_c, 2, 63, 0
5, 28496, Note_on_c, 2, 51, 0
5, 28496, Note_on_c, 2, 58, 0
5, 28497, Note_on_c, 2, 46, 98
5, 28499, Note_on_c, 2, 58, 101
5, 28500, Note_on_c, 2, 53, 98
5, 28796, Note_on_c, 2, 53, 0
5, 28796, Note_on_c, 2, 58, 0
5, 28796, Note_on_c, 2, 46, 0
5, 28797, Note_on_c, 2, 57, 101
5, 28799, Note_on_c, 2, 52, 98
5, 28803, Note_on_c, 2, 45, 100
5, 28976, Note_on_c, 2, 45, 0
5, 28976, Note_on_c, 2, 52, 0
5, 28976, Note_on_c, 2, 57, 0
5, 28977, Note_on_c, 2, 65, 103
5, 28979, Note_on_c, 2, 53, 100
5, 28983, Note_on_c, 2, 60, 99
5, 29276, Note_on_c, 2, 60, 0
5, 29276, Note_on_c, 2, 53, 0
5, 29276, Note_on_c, 2, 65, 0
5, 29277, Note_on_c, 2, 60, 98
5, 29278, Note_on_c, 2, 55, 100
5, 29281, Note_on_c, 2, 48, 102
5, 29456, Note_on_c, 2, 48, 0
5, 29456, Note_on_c, 2, 55, 0
5, 29456, Note_on_c, 2, 60, 0
5, 29459, Note_on_c, 2, 55, 100
5, 29463, Note_on_c, 2, 50, 98
5, 29463, Note_on_c, 2, 43, 100
5, 29756, Note_on_c, 2, 43, 0
5, 29756, Note_on_c, 2, 50, 0
5, 29756, Note_on_c, 2, 55, 0
5, 29758, Note_on_c, 2, 50, 100
5, 29761, Note_on_c, 2, 57, 101
5, 29763, Note_on_c, 2, 62, 99
5, 29936, Note_on_c, 2, 62, 0
5, 29936, Note_on_c, 2, 57, 0
5, 29936, Note_on_c, 2, 50, 0
5, 29937, Note_on_c, 2, 58, 101
5, 29939, Note_on_c, 2, 53, 100
5, 29940, Note_on_c, 2, 46, 99
5, 30236, Note_on_c, 2, 46, 0
5, 30236, Note_on_c, 2, 53, 0
5, 30236, Note_on_c, 2, 58, 0
5, 30237, Note_on_c, 2, 53, 99
5, 30237, Note_on_c, 2, 60, 99
5, 30239, Note_on_c, 2, 65, 103
5, 30416, Note_on_c, 2, 65, 0
5, 30416, Note_on_c, 2, 60, 0
5, 30416, Note_on_c, 2, 53, 0
5, 30418, Note_on_c, 2, 48, 100
5, 30420, Note_on_c, 2, 55, 101
5, 30420, Note_on_c, 2, 60, 101
5, 30535, Note_on_c, 2, 60, 0
5, 30535, Note_on_c, 2, 55, 0
5, 30535, Note_on_c, 2, 48, 0
5, 30539, Note_on_c, 2, 60, 100
5, 30542, Note_on_c, 2, 55, 102
5, 30542, Note_on_c, 2, 48, 100
5, 30595, Note_on_c, 2, 55, 0
5, 30595, Note_on_c, 2, 60, 0
5, 30596, Note_on_c, 2, 48, 0
5, 30598, Note_on_c, 2, 48, 100
5, 30599, Note_on_c, 2, 55, 103
5, 30601, Note_on_c, 2, 60, 101
5, 30715, Note_on_c, 2, 60, 0
5, 30715, Note_on_c, 2, 55, 0
5, 30715, Note_on_c, 2, 48, 0
5, 30720, Note_on_c, 2, 50, 101
5, 30721, Note_on_c, 2, 57, 98
5, 30723, Note_on_c, 2, 62, 102
5, 30896, Note_on_c, 2, 62, 0
5, 30896, Note_on_c, 2, 57, 0
5, 30896, Note_on_c, 2, 50, 0
5, 30897, Note_on_c, 2, 46, 100
5, 30898, Note_on_c, 2, 53, 103
5, 30901, Note_on_c, 2, 58, 100
5, 31196, Note_on_c, 2, 58, 0
5, 31196, Note_on_c, 2, 53, 0
5, 31196, Note_on_c, 2, 46, 0
5, 31197, Note_on_c, 2, 60, 99
5, 31200, Note_on_c, 2, 53, 103
5, 31202, Note_on_c, 2, 65, 103
5, 31376, Note_on_c, 2, 65, 0
5, 31376, Note_on_c, 2, 53, 0
5, 31376, Note_on_c, 2, 60, 0
5, 31377, Note_on_c, 2, 48, 103
5, 31379, Note_on_c, 2, 60, 98
5, 31381, Note_on_c, 2, 55, 98
5, 31676, Note_on_c, 2, 55, 0
5, 31676, Note_on_c, 2, 60, 0
5, 31676, Note_on_c, 2, 48, 0
5, 31680, Note_on_c, 2, 57, 103
5, 31681, Note_on_c, 2, 62, 98
5, 31683, Note_on_c, 2, 50, 101
5, 31856, Note_on_c, 2, 50, 0
5, 31856, Note_on_c, 2, 62, 0
5, 31856, Note_on_c, 2, 57, 0
5, 31857, Note_on_c, 2, 46, 102
5, 31862, Note_on_c, 2, 58, 100
5, 31862, Note_on_c, 2, 53, 98
5, 32156, Note_on_c, 2, 53, 0
5, 32156, Note_on_c, 2, 58, 0
5, 32156, Note_on_c, 2, 46, 0
5, 32157, Note_on_c, 2, 60, 101
5, 32157, Note_on_c, 2, 65, 101
5, 32161, Note_on_c, 2, 53, 100
5, 32336, Note_on_c, 2, 53, 0
5, 32336, Note_on_c, 2, 65, 0
5, 32336, Note_on_c, 2, 60, 0
5, 32339, Note_on_c, 2, 55, 100
5, 32341, Note_on_c, 2, 48, 103
5, 32342, Note_on_c, 2, 60, 102
5, 32636, Note_on_c, 2, 60, 0
5, 32636, Note_on_c, 2, 48, 0
5, 32636, Note_on_c, 2, 55, 0
5, 32641, Note_on_c, 2, 50, 100
5, 32642, Note_on_c, 2, 57, 98
5, 32642, Note_on_c, 2, 62, 101
5, 32816, Note_on_c, 2, 62, 0
5, 32816, Note_on_c, 2, 57, 0
5, 32816, Note_on_c, 2, 50, 0
5, 32817, Note_on_c, 2, 46, 101
5, 32817, Note_on_c, 2, 58, 101
5, 32818, Note_on_c, 2, 53, 99
5, 33116, Note_on_c, 2, 53, 0
5, 33116, Note_on_c, 2, 58, 0
5, 33116, Note_on_c, 2, 46, 0
5, 33119, Note_on_c, 2, 60, 102
5, 33121, Note_on_c, 2, 65, 101
5, 33123, Note_on_c, 2, 53, 102
5, 33296, Note_on_c, 2, 53, 0
5, 33296, Note_on_c, 2, 65, 0
5, 33296, Note_on_c, 2, 60, 0
5, 33297, Note_on_c, 2, 60, 101
5, 33302, Note_on_c, 2, 48, 98
5, 33303, Note_on_c, 2, 55, 99
5, 33596, Note_on_c, 2, 55, 0
5, 33596, Note_on_c, 2, 48, 0
5, 33596, Note_on_c, 2, 60, 0
5, 33599, Note_on_c, 2, 50, 102
5, 33603, Note_on_c, 2, 57, 103
5, 33603, Note_on_c, 2, 62, 99
5, 33776, Note_on_c, 2, 62, 0
5, 33776, Note_on_c, 2, 57, 0
5, 33776, Note_on_c, 2, 50, 0
5, 33779, Note_on_c, 2, 46, 100
5, 33780, Note_on_c, 2, 58, 102
5, 33782, Note_on_c, 2, 53, 100
5, 34076, Note_on_c, 2, 53, 0
5, 34076, Note_on_c, 2, 58, 0
5, 34076, Note_on_c, 2, 46, 0
5, 34079, Note_on_c, 2, 65, 102
5, 34081, Note_on_c, 2, 60, 99
5, 34082, Note_on_c, 2, 53, 103
5, 34256, Note_on_c, 2, 53, 0
5, 34256, Note_on_c, 2, 60, 0
5, 34256, Note_on_c, 2, 65, 0
5, 34257, Note_on_c, 2, 55, 103
5, 34259, Note_on_c, 2, 48, 102
5, 34263, Note_on_c, 2, 60, 102
5, 34556, Note_on_c, 2, 60, 0
5, 34556, Note_on_c, 2, 48, 0
5, 34556, Note_on_c, 2, 55, 0
5, 34563, Note_on_c, 2, 58, 103
5, 34563, Note_on_c, 2, 53, 99
5, 34563, Note_on_c, 2, 46, 103
5, 35515, Note_on_c, 2, 46, 0
5, 35515, Note_on_c, 2, 53, 0
5, 35515, Note_on_c, 2, 58, 0
5, 35519, Note_on_c, 2, 50, 103
5, 35575, Note_on_c, 2, 50, 0
5, 35581, Note_on_c, 2, 50, 102
5, 35635, Note_on_c, 2, 50, 0
5, 35642, Note_on_c, 2, 57, 101
5, 35695, Note_on_c, 2, 57, 0
5, 35701, Note_on_c, 2, 50, 100
5, 35756, Note_on_c, 2, 50, 0
5, 35758, Note_on_c, 2, 64, 99
5, 35816, Note_on_c, 2, 64, 0
5, 35819, Note_on_c, 2, 50, 98
5, 35876, Note_on_c, 2, 50, 0
5, 35881, Note_on_c, 2, 62, 99
5, 35936, Note_on_c, 2, 62, 0
5, 35939, Note_on_c, 2, 50, 98
5, 35996, Note_on_c, 2, 50, 0
5, 35997, Note_on_c, 2, 54, 98
5, 36055, Note_on_c, 2, 54, 0
5, 36061, Note_on_c, 2, 55, 98
5, 36116, Note_on_c, 2, 55, 0
5, 36123, Note_on_c, 2, 60, 100
5, 36176, Note_on_c, 2, 60, 0
5, 36179, Note_on_c, 2, 54, 103
5, 36236, Note_on_c, 2, 54, 0
5, 36241, Note_on_c, 2, 55, 103
5, 36296, Note_on_c, 2, 55, 0
5, 36302, Note_on_c, 2, 60, 101
5, 36356, Note_on_c, 2, 60, 0
5, 36361, Note_on_c, 2, 52, 98
5, 36416, Note_on_c, 2, 52, 0
5, 36422, Note_on_c, 2, 50, 102
5, 36535, Note_on_c, 2, 50, 0
5, 36543, Note_on_c, 2, 50, 101
5, 36595, Note_on_c, 2, 50, 0
5, 36603, Note_on_c, 2, 57, 103
5, 36655, Note_on_c, 2, 57, 0
5, 36663, Note_on_c, 2, 50, 103
5, 36716, Note_on_c, 2, 50, 0
5, 36720, Note_on_c, 2, 64, 100
5, 36776, Note_on_c, 2, 64, 0
5, 36778, Note_on_c, 2, 50, 98
5, 36836, Note_on_c, 2, 50, 0
5, 36837, Note_on_c, 2, 62, 101
5, 36896, Note_on_c, 2, 62, 0
5, 36902, Note_on_c, 2, 50, 102
5, 36956, Note_on_c, 2, 50, 0
5, 36961, Note_on_c, 2, 54, 100
5, 37015, Note_on_c, 2, 54, 0
5, 37023, Note_on_c, 2, 55, 100
5, 37076, Note_on_c, 2, 55, 0
5, 37080, Note_on_c, 2, 60, 102
5, 37136, Note_on_c, 2, 60, 0
5, 37137, Note_on_c, 2, 54, 99
5, 37196, Note_on_c, 2, 54, 0
5, 37203, Note_on_c, 2, 55, 101
5, 37256, Note_on_c, 2, 55, 0
5, 37257, Note_on_c, 2, 60, 103
5, 37316, Note_on_c, 2, 60, 0
5, 37321, Note_on_c, 2, 52, 103
5, 37376, Note_on_c, 2, 52, 0
5, 37377, Note_on_c, 2, 50, 103
5, 37435, Note_on_c, 2, 50, 0
5, 37439, Note_on_c, 2, 48, 101
5, 37496, Note_on_c, 2, 48, 0
5, 37499, Note_on_c, 2, 50, 102
5, 37556, Note_on_c, 2, 50, 0
5, 37559, Note_on_c, 2, 57, 100
5, 37616, Note_on_c, 2, 57, 0
5, 37623, Note_on_c, 2, 50, 98
5, 37676, Note_on_c, 2, 50, 0
5, 37678, Note_on_c, 2, 64, 103
5, 37736, Note_on_c, 2, 64, 0
5, 37739, Note_on_c, 2, 50, 102
5, 37796, Note_on_c, 2, 50, 0
5, 37800, Note_on_c, 2, 62, 100
5, 37856, Note_on_c, 2, 62, 0
5, 37862, Note_on_c, 2, 50, 103
5, 37916, Note_on_c, 2, 50, 0
5, 37921, Note_on_c, 2, 54, 99
5, 37976, Note_on_c, 2, 54, 0
5, 37983, Note_on_c, 2, 55, 102
5, 38036, Note_on_c, 2, 55, 0
5, 38041, Note_on_c, 2, 60, 102
5, 38096, Note_on_c, 2, 60, 0
5, 38102, Note_on_c, 2, 54, 102
5, 38156, Note_on_c, 2, 54, 0
5, 38160, Note_on_c, 2, 55, 98
5, 38216, Note_on_c, 2, 55, 0
5, 38219, Note_on_c, 2, 60, 100
5, 38276, Note_on_c, 2, 60, 0
5, 38282, Note_on_c, 2, 52, 103
5, 38336, Note_on_c, 2, 52, 0
5, 38342, Note_on_c, 2, 50, 100
5, 38396, Note_on_c, 2, 50, 0
5, 38403, Note_on_c, 2, 48, 100
5, 38456, Note_on_c, 2, 48, 0
5, 38459, Note_on_c, 2, 50, 99
5, 38516, Note_on_c, 2, 50, 0
5, 38517, Note_on_c, 2, 57, 100
5, 38576, Note_on_c, 2, 57, 0
5, 38578, Note_on_c, 2, 50, 98
5, 38636, Note_on_c, 2, 50, 0
5, 38639, Note_on_c, 2, 64, 98
5, 38696, Note_on_c, 2, 64, 0
5, 38699, Note_on_c, 2, 50, 99
5, 38756, Note_on_c, 2, 50, 0
5, 38757, Note_on_c, 2, 62, 99
5, 38816, Note_on_c, 2, 62, 0
5, 38818, Note_on_c, 2, 50, 99
5, 38876, Note_on_c, 2, 50, 0
5, 38883, Note_on_c, 2, 54, 103
5, 38936, Note_on_c, 2, 54, 0
5, 38939, Note_on_c, 2, 55, 98
5, 38996, Note_on_c, 2, 55, 0
5, 39002, Note_on_c, 2, 60, 101
5, 39056, Note_on_c, 2, 60, 0
5, 39059, Note_on_c, 2, 54, 101
5, 39116, Note_on_c, 2, 54, 0
5, 39117, Note_on_c, 2, 55, 100
5, 39176, Note_on_c, 2, 55, 0
5, 39183, Note_on_c, 2, 60, 102
5, 39236, Note_on_c, 2, 60, 0
5, 39241, Note_on_c, 2, 52, 103
5, 39296, Note_on_c, 2, 52, 0
5, 39299, Note_on_c, 2, 50, 98
5, 39357, Note_on_c, 2, 50, 0
5, 39358, Note_on_c, 2, 50, 101
5, 39358, Note_on_c, 2, 62, 98
5, 39360, Note_on_c, 2, 67, 98
5, 39360, Note_on_c, 2, 55, 103
5, 39363, Note_on_c, 2, 43, 102
5, 39835, Note_on_c, 2, 55, 0
5, 39836, Note_on_c, 2, 67, 0
5, 39836, Note_on_c, 2, 50, 0
5, 39836, Note_on_c, 2, 62, 0
5, 39836, Note_on_c, 2, 43, 0
5, 39837, Note_on_c, 2, 51, 100
5, 39838, Note_on_c, 2, 63, 101
5, 39842, Note_on_c, 2, 58, 99
5, 40316, Note_on_c, 2, 58, 0
5, 40316, Note_on_c, 2, 63, 0
5, 40316, Note_on_c, 2, 51, 0
5, 40317, Note_on_c, 2, 46, 101
5, 40322, Note_on_c, 2, 53, 102
5, 40323, Note_on_c, 2, 58, 103
5, 40796, Note_on_c, 2, 58, 0
5, 40796, Note_on_c, 2, 53, 0
5, 40796, Note_on_c, 2, 46, 0
5, 40800, Note_on_c, 2, 50, 90
5, 40801, Note_on_c, 2, 57, 102
5, 40916, Note_on_c, 2, 57, 0
5, 40916, Note_on_c, 2, 50, 0
5, 40918, Note_on_c, 2, 50, 94
5, 40921, Note_on_c, 2, 57, 81
5, 40976, Note_on_c, 2, 57, 0
5, 40976, Note_on_c, 2, 50, 0
5, 40980, Note_on_c, 2, 50, 96
5, 40982, Note_on_c, 2, 57, 83
5, 41036, Note_on_c, 2, 57, 0
5, 41036, Note_on_c, 2, 50, 0
5, 41037, Note_on_c, 2, 50, 96
5, 41041, Note_on_c, 2, 57, 85
5, 41096, Note_on_c, 2, 57, 0
5, 41096, Note_on_c, 2, 50, 0
5, 41103, Note_on_c, 2, 57, 85
5, 41103, Note_on_c, 2, 50, 96
5, 41156, Note_on_c, 2, 50, 0
5, 41156, Note_on_c, 2, 57, 0
5, 41160, Note_on_c, 2, 50, 97
5, 41163, Note_on_c, 2, 57, 88
5, 41216, Note_on_c, 2, 57, 0
5, 41216, Note_on_c, 2, 50, 0
5, 41218, Note_on_c, 2, 50, 100
5, 41223, Note_on_c, 2, 57, 88
5, 41276, Note_on_c, 2, 57, 0
5, 41276, Note_on_c, 2, 50, 0
5, 41278, Note_on_c, 2, 50, 97
5, 41279, Note_on_c, 2, 57, 92
5, 41336, Note_on_c, 2, 57, 0
5, 41336, Note_on_c, 2, 50, 0
5, 41338, Note_on_c, 2, 57, 93
5, 41343, Note_on_c, 2, 50, 97
5, 41396, Note_on_c, 2, 50, 0
5, 41396, Note_on_c, 2, 57, 0
5, 41397, Note_on_c, 2, 57, 92
5, 41399, Note_on_c, 2, 50, 99
5, 41456, Note_on_c, 2, 50, 0
5, 41456, Note_on_c, 2, 57, 0
5, 41458, Note_on_c, 2, 57, 95
5, 41462, Note_on_c, 2, 50, 102
5, 41516, Note_on_c, 2, 50, 0
5, 41516, Note_on_c, 2, 57, 0
5, 41519, Note_on_c, 2, 50, 100
5, 41520, Note_on_c, 2, 57, 93
5, 41576, Note_on_c, 2, 57, 0
5, 41576, Note_on_c, 2, 50, 0
5, 41581, Note_on_c, 2, 57, 97
5, 41581, Note_on_c, 2, 50, 103
5, 41636, Note_on_c, 2, 50, 0
5, 41636, Note_on_c, 2, 57, 0
5, 41641, Note_on_c, 2, 50, 104
5, 41643, Note_on_c, 2, 57, 99
5, 41696, Note_on_c, 2, 57, 0
5, 41696, Note_on_c, 2, 50, 0
5, 41701, Note_on_c, 2, 50, 108
5, 41702, Note_on_c, 2, 57, 99
5, 41756, Note_on_c, 2, 57, 0
5, 41756, Note_on_c, 2, 50, 0
5, 41759, Note_on_c, 2, 62, 99
5, 41760, Note_on_c, 2, 67, 103
5, 41761, Note_on_c, 2, 55, 100
5, 41935, Note_on_c, 2, 55, 0
5, 41935, Note_on_c, 2, 67, 0
5, 41935, Note_on_c, 2, 62, 0
5, 41939, Note_on_c, 2, 51, 100
5, 41941, Note_on_c, 2, 63, 103
5, 41942, Note_on_c, 2, 58, 102
5, 42235, Note_on_c, 2, 58, 0
5, 42235, Note_on_c, 2, 63, 0
5, 42235, Note_on_c, 2, 51, 0
5, 42239, Note_on_c, 2, 58, 102
5, 42242, Note_on_c, 2, 46, 99
5, 42242, Note_on_c, 2, 53, 102
5, 42415, Note_on_c, 2, 53, 0
5, 42415, Note_on_c, 2, 46, 0
5, 42415, Note_on_c, 2, 58, 0
5, 42417, Note_on_c, 2, 60, 98
5, 42421, Note_on_c, 2, 65, 98
5, 42422, Note_on_c, 2, 53, 98
5, 42713, Note_on_c, 2, 53, 0
5, 42713, Note_on_c, 2, 65, 0
5, 42713, Note_on_c, 2, 60, 0
5, 42721, Note_on_c, 2, 60, 99
5, 42723, Note_on_c, 2, 55, 101
5, 42723, Note_on_c, 2, 48, 101
5, 42896, Note_on_c, 2, 48, 0
5, 42896, Note_on_c, 2, 55, 0
5, 42896, Note_on_c, 2, 60, 0
5, 42897, Note_on_c, 2, 44, 100
5, 42898, Note_on_c, 2, 51, 103
5, 42903, Note_on_c, 2, 56, 100
5, 43196, Note_on_c, 2, 56, 0
5, 43196, Note_on_c, 2, 51, 0
5, 43196, Note_on_c, 2, 44, 0
5, 43201, Note_on_c, 2, 51, 100
5, 43202, Note_on_c, 2, 58, 101
5, 43203, Note_on_c, 2, 63, 103
5, 43376, Note_on_c, 2, 63, 0
5, 43376, Note_on_c, 2, 58, 0
5, 43376, Note_on_c, 2, 51, 0
5, 43377, Note_on_c, 2, 53, 102
5, 43380, Note_on_c, 2, 46, 103
5, 43381, Note_on_c, 2, 58, 100
5, 43676, Note_on_c, 2, 58, 0
5, 43676, Note_on_c, 2, 46, 0
5, 43676, Note_on_c, 2, 53, 0
5, 43678, Note_on_c, 2, 52, 101
5, 43679, Note_on_c, 2, 57, 99
5, 43680, Note_on_c, 2, 45, 100
5, 43856, Note_on_c, 2, 45, 0
5, 43856, Note_on_c, 2, 57, 0
5, 43856, Note_on_c, 2, 52, 0
5, 43857, Note_on_c, 2, 65, 98
5, 43860, Note_on_c, 2, 60, 102
5, 43861, Note_on_c, 2, 53, 103
5, 44156, Note_on_c, 2, 53, 0
5, 44156, Note_on_c, 2, 60, 0
5, 44156, Note_on_c, 2, 65, 0
5, 44157, Note_on_c, 2, 60, 100
5, 44158, Note_on_c, 2, 55, 102
5, 44163, Note_on_c, 2, 48, 103
5, 44336, Note_on_c, 2, 48, 0
5, 44336, Note_on_c, 2, 55, 0
5, 44336, Note_on_c, 2, 60, 0
5, 44337, Note_on_c, 2, 43, 98
5, 44343, Note_on_c, 2, 50, 100
5, 44343, Note_on_c, 2, 55, 99
5, 44636, Note_on_c, 2, 55, 0
5, 44636, Note_on_c, 2, 50, 0
5, 44636, Note_on_c, 2, 43, 0
5, 44639, Note_on_c, 2, 50, 99
5, 44642, Note_on_c, 2, 62, 102
5, 44643, Note_on_c, 2, 57, 100
5, 44816, Note_on_c, 2, 57, 0
5, 44816, Note_on_c, 2, 62, 0
5, 44816, Note_on_c, 2, 50, 0
5, 44817, Note_on_c, 2, 53, 100
5, 44818, Note_on_c, 2, 46, 103
5, 44822, Note_on_c, 2, 58, 103
5, 45116, Note_on_c, 2, 58, 0
5, 45116, Note_on_c, 2, 46, 0
5, 45116, Note_on_c, 2, 53, 0
5, 45117, Note_on_c, 2, 65, 100
5, 45118, Note_on_c, 2, 53, 103
5, 45119, Note_on_c, 2, 60, 100
5, 45296, Note_on_c, 2, 60, 0
5, 45296, Note_on_c, 2, 53, 0
5, 45296, Note_on_c, 2, 65, 0
5, 45300, Note_on_c, 2, 48, 103
5, 45302, Note_on_c, 2, 55, 102
5, 45302, Note_on_c, 2, 60, 99
5, 45415, Note_on_c, 2, 60, 0
5, 45415, Note_on_c, 2, 55, 0
5, 45415, Note_on_c, 2, 48, 0
5, 45417, Note_on_c, 2, 48, 102
5, 45417, Note_on_c, 2, 55, 98
5, 45419, Note_on_c, 2, 60, 103
5, 45475, Note_on_c, 2, 60, 0
5, 45475, Note_on_c, 2, 55, 0
5, 45476, Note_on_c, 2, 48, 0
5, 45478, Note_on_c, 2, 55, 99
5, 45479, Note_on_c, 2, 60, 102
5, 45483, Note_on_c, 2, 48, 98
5, 45595, Note_on_c, 2, 48, 0
5, 45595, Note_on_c, 2, 60, 0
5, 45595, Note_on_c, 2, 55, 0
5, 45598, Note_on_c, 2, 50, 100
5, 45598, Note_on_c, 2, 62, 103
5, 45602, Note_on_c, 2, 57, 103
5, 45776, Note_on_c, 2, 57, 0
5, 45776, Note_on_c, 2, 62, 0
5, 45776, Note_on_c, 2, 50, 0
5, 45778, Note_on_c, 2, 58, 99
5, 45780, Note_on_c, 2, 53, 103
5, 45781, Note_on_c, 2, 46, 101
5, 46076, Note_on_c, 2, 46, 0
5, 46076, Note_on_c, 2, 53, 0
5, 46076, Note_on_c, 2, 58, 0
5, 46078, Note_on_c, 2, 60, 103
5, 46080, Note_on_c, 2, 53, 103
5, 46083, Note_on_c, 2, 65, 99
5, 46256, Note_on_c, 2, 65, 0
5, 46256, Note_on_c, 2, 53, 0
5, 46256, Note_on_c, 2, 60, 0
5, 46257, Note_on_c, 2, 48, 103
5, 46258, Note_on_c, 2, 60, 100
5, 46263, Note_on_c, 2, 55, 99
5, 46556, Note_on_c, 2, 55, 0
5, 46556, Note_on_c, 2, 60, 0
5, 46556, Note_on_c, 2, 48, 0
5, 46558, Note_on_c, 2, 57, 101
5, 46558, Note_on_c, 2, 62, 101
5, 46563, Note_on_c, 2, 50, 100
5, 46736, Note_on_c, 2, 50, 0
5, 46736, Note_on_c, 2, 62, 0
5, 46736, Note_on_c, 2, 57, 0
5, 46739, Note_on_c, 2, 58, 102
5, 46741, Note_on_c, 2, 46, 103
5, 46743, Note_on_c, 2, 53, 100
5, 47036, Note_on_c, 2, 53, 0
5, 47036, Note_on_c, 2, 46, 0
5, 47036, Note_on_c, 2, 58, 0
5, 47037, Note_on_c, 2, 53, 101
5, 47038, Note_on_c, 2, 65, 98
5, 47040, Note_on_c, 2, 60, 100
5, 47216, Note_on_c, 2, 60, 0
5, 47216, Note_on_c, 2, 65, 0
5, 47216, Note_on_c, 2, 53, 0
5, 47217, Note_on_c, 2, 55, 103
5, 47219, Note_on_c, 2, 60, 102
5, 47222, Note_on_c, 2, 48, 100
5, 47516, Note_on_c, 2, 48, 0
5, 47516, Note_on_c, 2, 60, 0
5, 47516, Note_on_c, 2, 55, 0
5, 47517, Note_on_c, 2, 57, 99
5, 47518, Note_on_c, 2, 50, 103
5, 47519, Note_on_c, 2, 62, 99
5, 47696, Note_on_c, 2, 62, 0
5, 47696, Note_on_c, 2, 50, 0
5, 47696, Note_on_c, 2, 57, 0
5, 47698, Note_on_c, 2, 53, 102
5, 47701, Note_on_c, 2, 58, 101
5, 47702, Note_on_c, 2, 46, 100
5, 47996, Note_on_c, 2, 46, 0
5, 47996, Note_on_c, 2, 58, 0
5, 47996, Note_on_c, 2, 53, 0
5, 48000, Note_on_c, 2, 53, 102
5, 48001, Note_on_c, 2, 65, 100
5, 48003, Note_on_c, 2, 60, 101
5, 48176, Note_on_c, 2, 60, 0
5, 48176, Note_on_c, 2, 65, 0
5, 48176, Note_on_c, 2, 53, 0
5, 48178, Note_on_c, 2, 55, 99
5, 48179, Note_on_c, 2, 48, 100
5, 48182, Note_on_c, 2, 60, 100
5, 48476, Note_on_c, 2, 60, 0
5, 48476, Note_on_c, 2, 48, 0
5, 48476, Note_on_c, 2, 55, 0
5, 48480, Note_on_c, 2, 50, 99
5, 48480, Note_on_c, 2, 57, 99
5, 48481, Note_on_c, 2, 62, 100
5, 48656, Note_on_c, 2, 62, 0
5, 48656, Note_on_c, 2, 57, 0
5, 48656, Note_on_c, 2, 50, 0
5, 48659, Note_on_c, 2, 53, 99
5, 48660, Note_on_c, 2, 58, 98
5, 48663, Note_on_c, 2, 46, 98
5, 48956, Note_on_c, 2, 46, 0
5, 48956, Note_on_c, 2, 58, 0
5, 48956, Note_on_c, 2, 53, 0
5, 48961, Note_on_c, 2, 65, 99
5, 48963, Note_on_c, 2, 60, 100
5, 48963, Note_on_c, 2, 53, 103
5, 49136, Note_on_c, 2, 53, 0
5, 49136, Note_on_c, 2, 60, 0
5, 49136, Note_on_c, 2, 65, 0
5, 49137, Note_on_c, 2, 48, 100
5, 49141, Note_on_c, 2, 60, 100
5, 49142, Note_on_c, 2, 55, 100
5, 49436, Note_on_c, 2, 55, 0
5, 49436, Note_on_c, 2, 60, 0
5, 49436, Note_on_c, 2, 48, 0
5, 49442, Note_on_c, 2, 43, 102
5, 49556, Note_on_c, 2, 43, 0
5, 49558, Note_on_c, 2, 43, 77
5, 49616, Note_on_c, 2, 43, 0
5, 49622, Note_on_c, 2, 43, 76
5, 49676, Note_on_c, 2, 43, 0
5, 49681, Note_on_c, 2, 43, 79
5, 49736, Note_on_c, 2, 43, 0
5, 49739, Note_on_c, 2, 43, 78
5, 49796, Note_on_c, 2, 43, 0
5, 49800, Note_on_c, 2, 43, 81
5, 49856, Note_on_c, 2, 43, 0
5, 49863, Note_on_c, 2, 43, 87
5, 49916, Note_on_c, 2, 43, 0
5, 49922, Note_on_c, 2, 53, 66
5, 49922, Note_on_c, 2, 46, 85
5, 49976, Note_on_c, 2, 46, 0
5, 49976, Note_on_c, 2, 53, 0
5, 49982, Note_on_c, 2, 53, 67
5, 49983, Note_on_c, 2, 46, 90
5, 50036, Note_on_c, 2, 46, 0
5, 50036, Note_on_c, 2, 53, 0
5, 50039, Note_on_c, 2, 53, 74
5, 50039, Note_on_c, 2, 46, 89
5, 50096, Note_on_c, 2, 46, 0
5, 50096, Note_on_c, 2, 53, 0
5, 50099, Note_on_c, 2, 46, 95
5, 50100, Note_on_c, 2, 53, 80
5, 50156, Note_on_c, 2, 53, 0
5, 50156, Note_on_c, 2, 46, 0
5, 50158, Note_on_c, 2, 46, 95
5, 50163, Note_on_c, 2, 53, 83
5, 50216, Note_on_c, 2, 53, 0
5, 50216, Note_on_c, 2, 46, 0
5, 50218, Note_on_c, 2, 53, 88
5, 50223, Note_on_c, 2, 46, 96
5, 50276, Note_on_c, 2, 46, 0
5, 50276, Note_on_c, 2, 53, 0
5, 50279, Note_on_c, 2, 53, 96
5, 50283, Note_on_c, 2, 46, 101
5, 50336, Note_on_c, 2, 46, 0
5, 50336, Note_on_c, 2, 53, 0
5, 50341, Note_on_c, 2, 53, 102
5, 50342, Note_on_c, 2, 46, 100
5, 50396, Note_on_c, 2, 46, 0
5, 50396, Note_on_c, 2, 53, 0
5, 50399, Note_on_c, 2, 62, 102
5, 50399, Note_on_c, 2, 50, 100
5, 50403, Note_on_c, 2, 57, 102
5, 50575, Note_on_c, 2, 57, 0
5, 50575, Note_on_c, 2, 50, 0
5, 50575, Note_on_c, 2, 62, 0
5, 50580, Note_on_c, 2, 46, 101
5, 50583, Note_on_c, 2, 53, 98
5, 50583, Note_on_c, 2, 58, 101
5, 50875, Note_on_c, 2, 58, 0
5, 50875, Note_on_c, 2, 53, 0
5, 50875, Note_on_c, 2, 46, 0
5, 50878, Note_on_c, 2, 48, 103
5, 50882, Note_on_c, 2, 41, 98
5, 50883, Note_on_c, 2, 53, 101
5, 51055, Note_on_c, 2, 53, 0
5, 51055, Note_on_c, 2, 41, 0
5, 51055, Note_on_c, 2, 48, 0
5, 51059, Note_on_c, 2, 60, 98
5, 51062, Note_on_c, 2, 48, 100
5, 51062, Note_on_c, 2, 55, 101
5, 51355, Note_on_c, 2, 55, 0
5, 51355, Note_on_c, 2, 48, 0
5, 51355, Note_on_c, 2, 60, 0
5, 51357, Note_on_c, 2, 57, 103
5, 51358, Note_on_c, 2, 50, 100
5, 51359, Note_on_c, 2, 62, 101
5, 51535, Note_on_c, 2, 62, 0
5, 51535, Note_on_c, 2, 50, 0
5, 51535, Note_on_c, 2, 57, 0
5, 51539, Note_on_c, 2, 46, 98
5, 51541, Note_on_c, 2, 53, 103
5, 51542, Note_on_c, 2, 58, 99
5, 51835, Note_on_c, 2, 58, 0
5, 51835, Note_on_c, 2, 53, 0
5, 51835, Note_on_c, 2, 46, 0
5, 51838, Note_on_c, 2, 48, 102
5, 51839, Note_on_c, 2, 53, 100
5, 51842, Note_on_c, 2, 41, 103
5, 52015, Note_on_c, 2, 41, 0
5, 52015, Note_on_c, 2, 53, 0
5, 52015, Note_on_c, 2, 48, 0
5, 52017, Note_on_c, 2, 55, 98
5, 52019, Note_on_c, 2, 48, 103
5, 52021, Note_on_c, 2, 60, 100
5, 52315, Note_on_c, 2, 60, 0
5, 52315, Note_on_c, 2, 48, 0
5, 52315, Note_on_c, 2, 55, 0
5, 52317, Note_on_c, 2, 62, 99
5, 52317, Note_on_c, 2, 57, 98
5, 52322, Note_on_c, 2, 50, 99
5, 52495, Note_on_c, 2, 50, 0
5, 52495, Note_on_c, 2, 57, 0
5, 52495, Note_on_c, 2, 62, 0
5, 52497, Note_on_c, 2, 53, 101
5, 52498, Note_on_c, 2, 46, 101
5, 52500, Note_on_c, 2, 58, 101
5, 52795, Note_on_c, 2, 58, 0
5, 52795, Note_on_c, 2, 46, 0
5, 52795, Note_on_c, 2, 53, 0
5, 52798, Note_on_c, 2, 41, 98
5, 52802, Note_on_c, 2, 53, 98
5, 52803, Note_on_c, 2, 48, 100
5, 52975, Note_on_c, 2, 48, 0
5, 52975, Note_on_c, 2, 53, 0
5, 52975, Note_on_c, 2, 41, 0
5, 52977, Note_on_c, 2, 55, 102
5, 52981, Note_on_c, 2, 60, 99
5, 52983, Note_on_c, 2, 48, 99
5, 53275, Note_on_c, 2, 48, 0
5, 53275, Note_on_c, 2, 60, 0
5, 53275, Note_on_c, 2, 55, 0
5, 53278, Note_on_c, 2, 57, 102
5, 53278, Note_on_c, 2, 50, 102
5, 53281, Note_on_c, 2, 62, 102
5, 53455, Note_on_c, 2, 62, 0
5, 53455, Note_on_c, 2, 50, 0
5, 53455, Note_on_c, 2, 57, 0
5, 53460, Note_on_c, 2, 46, 99
5, 53461, Note_on_c, 2, 58, 103
5, 53462, Note_on_c, 2, 53, 102
5, 53755, Note_on_c, 2, 53, 0
5, 53755, Note_on_c, 2, 58, 0
5, 53755, Note_on_c, 2, 46, 0
5, 53759, Note_on_c, 2, 48, 102
5, 53760, Note_on_c, 2, 41, 102
5, 53760, Note_on_c, 2, 53, 103
5, 53935, Note_on_c, 2, 53, 0
5, 53935, Note_on_c, 2, 41, 0
5, 53935, Note_on_c, 2, 48, 0
5, 53939, Note_on_c, 2, 60, 100
5, 53941, Note_on_c, 2, 48, 98
5, 53941, Note_on_c, 2, 55, 102
5, 54235, Note_on_c, 2, 55, 0
5, 54235, Note_on_c, 2, 48, 0
5, 54235, Note_on_c, 2, 60, 0
5, 54237, Note_on_c, 2, 50, 102
5, 54237, Note_on_c, 2, 57, 100
5, 54239, Note_on_c, 2, 62, 99
5, 54416, Note_on_c, 2, 62, 0
5, 54416, Note_on_c, 2, 57, 0
5, 54416, Note_on_c, 2, 50, 0
5, 54418, Note_on_c, 2, 53, 103
5, 54421, Note_on_c, 2, 58, 99
5, 54422, Note_on_c, 2, 46, 100
5, 54716, Note_on_c, 2, 46, 0
5, 54716, Note_on_c, 2, 58, 0
5, 54716, Note_on_c, 2, 53, 0
5, 54719, Note_on_c, 2, 65, 99
5, 54723, Note_on_c, 2, 60, 98
5, 54723, Note_on_c, 2, 53, 101
5, 54896, Note_on_c, 2, 53, 0
5, 54896, Note_on_c, 2, 60, 0
5, 54896, Note_on_c, 2, 65, 0
5, 54898, Note_on_c, 2, 48, 101
5, 54901, Note_on_c, 2, 60, 99
5, 54902, Note_on_c, 2, 55, 101
5, 55196, Note_on_c, 2, 55, 0
5, 55196, Note_on_c, 2, 60, 0
5, 55196, Note_on_c, 2, 48, 0
5, 55198, Note_on_c, 2, 57, 100
5, 55199, Note_on_c, 2, 50, 101
5, 55199, Note_on_c, 2, 62, 103
5, 55376, Note_on_c, 2, 62, 0
5, 55376, Note_on_c, 2, 50, 0
5, 55376, Note_on_c, 2, 57, 0
5, 55381, Note_on_c, 2, 46, 99
5, 55382, Note_on_c, 2, 58, 100
5, 55382, Note_on_c, 2, 53, 103
5, 55676, Note_on_c, 2, 53, 0
5, 55676, Note_on_c, 2, 58, 0
5, 55676, Note_on_c, 2, 46, 0
5, 55677, Note_on_c, 2, 53, 103
5, 55680, Note_on_c, 2, 65, 103
5, 55682, Note_on_c, 2, 60, 100
5, 55856, Note_on_c, 2, 60, 0
5, 55856, Note_on_c, 2, 65, 0
5, 55856, Note_on_c, 2, 53, 0
5, 55857, Note_on_c, 2, 60, 100
5, 55861, Note_on_c, 2, 55, 98
5, 55862, Note_on_c, 2, 48, 101
5, 56156, Note_on_c, 2, 48, 0
5, 56156, Note_on_c, 2, 55, 0
5, 56156, Note_on_c, 2, 60, 0
5, 56157, Note_on_c, 2, 50, 101
5, 56162, Note_on_c, 2, 57, 101
5, 56162, Note_on_c, 2, 62, 99
5, 56336, Note_on_c, 2, 62, 0
5, 56336, Note_on_c, 2, 57, 0
5, 56336, Note_on_c, 2, 50, 0
5, 56337, Note_on_c, 2, 46, 102
5, 56339, Note_on_c, 2, 58, 99
5, 56341, Note_on_c, 2, 53, 98
5, 56636, Note_on_c, 2, 53, 0
5, 56636, Note_on_c, 2, 58, 0
5, 56636, Note_on_c, 2, 46, 0
5, 56639, Note_on_c, 2, 60, 103
5, 56641, Note_on_c, 2, 53, 101
5, 56641, Note_on_c, 2, 65, 102
5, 56816, Note_on_c, 2, 65, 0
5, 56816, Note_on_c, 2, 53, 0
5, 56816, Note_on_c, 2, 60, 0
5, 56817, Note_on_c, 2, 60, 100
5, 56819, Note_on_c, 2, 55, 102
5, 56823, Note_on_c, 2, 48, 98
5, 57116, Note_on_c, 2, 48, 0
5, 57116, Note_on_c, 2, 55, 0
5, 57116, Note_on_c, 2, 60, 0
5, 57117, Note_on_c, 2, 50, 103
5, 57117, Note_on_c, 2, 57, 98
5, 57121, Note_on_c, 2, 62, 101
5, 57296, Note_on_c, 2, 62, 0
5, 57296, Note_on_c, 2, 57, 0
5, 57296, Note_on_c, 2, 50, 0
5, 57297, Note_on_c, 2, 53, 101
5, 57301, Note_on_c, 2, 58, 99
5, 57303, Note_on_c, 2, 46, 99
5, 57596, Note_on_c, 2, 46, 0
5, 57596, Note_on_c, 2, 58, 0
5, 57596, Note_on_c, 2, 53, 0
5, 57597, Note_on_c, 2, 65, 101
5, 57598, Note_on_c, 2, 53, 98
5, 57601, Note_on_c, 2, 60, 98
5, 57776, Note_on_c, 2, 60, 0
5, 57776, Note_on_c, 2, 53, 0
5, 57776, Note_on_c, 2, 65, 0
5, 57779, Note_on_c, 2, 55, 100
5, 57781, Note_on_c, 2, 48, 103
5, 57783, Note_on_c, 2, 60, 99
5, 58076, Note_on_c, 2, 60, 0
5, 58076, Note_on_c, 2, 48, 0
5, 58076, Note_on_c, 2, 55, 0
5, 58077, Note_on_c, 2, 62, 102
5, 58078, Note_on_c, 2, 50, 101
5, 58082, Note_on_c, 2, 57, 102
5, 58256, Note_on_c, 2, 57, 0
5, 58256, Note_on_c, 2, 50, 0
5, 58256, Note_on_c, 2, 62, 0
5, 58258, Note_on_c, 2, 58, 100
5, 58261, Note_on_c, 2, 53, 103
5, 58262, Note_on_c, 2, 46, 102
5, 58556, Note_on_c, 2, 46, 0
5, 58556, Note_on_c, 2, 53, 0
5, 58556, Note_on_c, 2, 58, 0
5, 58559, Note_on_c, 2, 60, 100
5, 58561, Note_on_c, 2, 65, 98
5, 58563, Note_on_c, 2, 53, 102
5, 58736, Note_on_c, 2, 53, 0
5, 58736, Note_on_c, 2, 65, 0
5, 58736, Note_on_c, 2, 60, 0
5, 58737, Note_on_c, 2, 55, 101
5, 58738, Note_on_c, 2, 48, 100
5, 58740, Note_on_c, 2, 60, 101
5, 59036, Note_on_c, 2, 60, 0
5, 59036, Note_on_c, 2, 48, 0
5, 59036, Note_on_c, 2, 55, 0
5, 59040, Note_on_c, 2, 57, 103
5, 59042, Note_on_c, 2, 50, 99
5, 59042, Note_on_c, 2, 62, 99
5, 59216, Note_on_c, 2, 62, 0
5, 59216, Note_on_c, 2, 50, 0
5, 59216, Note_on_c, 2, 57, 0
5, 59220, Note_on_c, 2, 46, 101
5, 59220, Note_on_c, 2, 58, 103
5, 59222, Note_on_c, 2, 53, 100
5, 59516, Note_on_c, 2, 53, 0
5, 59516, Note_on_c, 2, 58, 0
5, 59516, Note_on_c, 2, 46, 0
5, 59517, Note_on_c, 2, 60, 99
5, 59517, Note_on_c, 2, 65, 98
5, 59518, Note_on_c, 2, 53, 98
5, 59696, Note_on_c, 2, 53, 0
5, 59696, Note_on_c, 2, 65, 0
5, 59696, Note_on_c, 2, 60, 0
5, 59698, Note_on_c, 2, 48, 101
5, 59701, Note_on_c, 2, 60, 102
5, 59701, Note_on_c, 2, 55, 100
5, 59996, Note_on_c, 2, 55, 0
5, 59996, Note_on_c, 2, 60, 0
5, 59996, Note_on_c, 2, 48, 0
5, 60000, Control_c, 2, 11, 127
5, 60000, Note_on_c, 2, 62, 99
5, 60000, Note_on_c, 2, 57, 101
5, 60003, Note_on_c, 2, 50, 98
5, 60031, Control_c, 2, 11, 126
5, 60062, Control_c, 2, 11, 125
5, 60093, Control_c, 2, 11, 124
5, 60124, Control_c, 2, 11, 123
5, 60155, Control_c, 2, 11, 122
5, 60176, Note_on_c, 2, 50, 0
5, 60176, Note_on_c, 2, 57, 0
5, 60176, Note_on_c, 2, 62, 0
5, 60177, Note_on_c, 2, 58, 101
5, 60179, Note_on_c, 2, 53, 98
5, 60181, Note_on_c, 2, 46, 102
5, 60187, Control_c, 2, 11, 121
5, 60218, Control_c, 2, 11, 120
5, 60249, Control_c, 2, 11, 119
5, 60280, Control_c, 2, 11, 118
5, 60311, Control_c, 2, 11, 117
5, 60342, Control_c, 2, 11, 116
5, 60374, Control_c, 2, 11, 115
5, 60405, Control_c, 2, 11, 114
5, 60436, Control_c, 2, 11, 113
5, 60467, Control_c, 2, 11, 112
5, 60476, Note_on_c, 2, 46, 0
5, 60476, Note_on_c, 2, 53, 0
5, 60476, Note_on_c, 2, 58, 0
5, 60477, Note_on_c, 2, 53, 103
5, 60481, Note_on_c, 2, 65, 103
5, 60482, Note_on_c, 2, 60, 103
5, 60498, Control_c, 2, 11, 111
5, 60530, Control_c, 2, 11, 110
5, 60561, Control_c, 2, 11, 109
5, 60592, Control_c, 2, 11, 108
5, 60623, Control_c, 2, 11, 107
5, 60654, Control_c, 2, 11, 106
5, 60656, Note_on_c, 2, 60, 0
5, 60656, Note_on_c, 2, 65, 0
5, 60656, Note_on_c, 2, 53, 0
5, 60659, Note_on_c, 2, 60, 101
5, 60660, Note_on_c, 2, 48, 103
5, 60663, Note_on_c, 2, 55, 103
5, 60685, Control_c, 2, 11, 105
5, 60717, Control_c, 2, 11, 104
5, 60748, Control_c, 2, 11, 103
5, 60779, Control_c, 2, 11, 102
5, 60810, Control_c, 2, 11, 101
5, 60841, Control_c, 2, 11, 100
5, 60873, Control_c, 2, 11, 99
5, 60904, Control_c, 2, 11, 98
5, 60935, Control_c, 2, 11, 97
5, 60956, Note_on_c, 2, 55, 0
5, 60956, Note_on_c, 2, 48, 0
5, 60956, Note_on_c, 2, 60, 0
5, 60957, Note_on_c, 2, 57, 99
5, 60960, Note_on_c, 2, 62, 99
5, 60962, Note_on_c, 2, 50, 100
5, 60966, Control_c, 2, 11, 96
5, 60997, Control_c, 2, 11, 95
5, 61028, Control_c, 2, 11, 94
5, 61060, Control_c, 2, 11, 93
5, 61091, Control_c, 2, 11, 92
5, 61122, Control_c, 2, 11, 91
5, 61136, Note_on_c, 2, 50, 0
5, 61136, Note_on_c, 2, 62, 0
5, 61136, Note_on_c, 2, 57, 0
5, 61140, Note_on_c, 2, 53, 100
5, 61140, Note_on_c, 2, 58, 99
5, 61141, Note_on_c, 2, 46, 98
5, 61153, Control_c, 2, 11, 90
5, 61184, Control_c, 2, 11, 89
5, 61216, Control_c, 2, 11, 88
5, 61247, Control_c, 2, 11, 87
5, 61278, Control_c, 2, 11, 86
5, 61309, Control_c, 2, 11, 85
5, 61340, Control_c, 2, 11, 84
5, 61371, Control_c, 2, 11, 83
5, 61403, Control_c, 2, 11, 82
5, 61434, Control_c, 2, 11, 81
5, 61436, Note_on_c, 2, 46, 0
5, 61436, Note_on_c, 2, 58, 0
5, 61436, Note_on_c, 2, 53, 0
5, 61437, Note_on_c, 2, 65, 100
5, 61440, Note_on_c, 2, 53, 100
5, 61442, Note_on_c, 2, 60, 101
5, 61465, Control_c, 2, 11, 80
5, 61496, Control_c, 2, 11, 79
5, 61527, Control_c, 2, 11, 78
5, 61559, Control_c, 2, 11, 77
5, 61590, Control_c, 2, 11, 76
5, 61616, Note_on_c, 2, 60, 0
5, 61616, Note_on_c, 2, 53, 0
5, 61616, Note_on_c, 2, 65, 0
5, 61618, Note_on_c, 2, 60, 100
5, 61619, Note_on_c, 2, 48, 100
5, 61621, Note_on_c, 2, 55, 100
5, 61621, Control_c, 2, 11, 75
5, 61652, Control_c, 2, 11, 74
5, 61683, Control_c, 2, 11, 73
5, 61714, Control_c, 2, 11, 72
5, 61746, Control_c, 2, 11, 71
5, 61777, Control_c, 2, 11, 70
5, 61808, Control_c, 2, 11, 69
5, 61839, Control_c, 2, 11, 68
5, 61870, Control_c, 2, 11, 67
5, 61902, Control_c, 2, 11, 66
5, 61916, Note_on_c, 2, 55, 0
5, 61916, Note_on_c, 2, 48, 0
5, 61916, Note_on_c, 2, 60, 0
5, 61919, Note_on_c, 2, 50, 103
5, 61920, Note_on_c, 2, 62, 99
5, 61922, Note_on_c, 2, 57, 101
5, 61933, Control_c, 2, 11, 65
5, 61964, Control_c, 2, 11, 64
5, 61995, Control_c, 2, 11, 63
5, 62026, Control_c, 2, 11, 62
5, 62057, Control_c, 2, 11, 61
5, 62089, Control_c, 2, 11, 60
5, 62096, Note_on_c, 2, 57, 0
5, 62096, Note_on_c, 2, 62, 0
5, 62096, Note_on_c, 2, 50, 0
5, 62099, Note_on_c, 2, 53, 103
5, 62100, Note_on_c, 2, 46, 100
5, 62102, Note_on_c, 2, 58, 101
5, 62120, Control_c, 2, 11, 59
5, 62151, Control_c, 2, 11, 58
5, 62182, Control_c, 2, 11, 57
5, 62213, Control_c, 2, 11, 56
5, 62245, Control_c, 2, 11, 55
5, 62276, Control_c, 2, 11, 54
5, 62307, Control_c, 2, 11, 53
5, 62338, Control_c, 2, 11, 52
5, 62369, Control_c, 2, 11, 51
5, 62396, Note_on_c, 2, 58, 0
5, 62396, Note_on_c, 2, 46, 0
5, 62396, Note_on_c, 2, 53, 0
5, 62397, Note_on_c, 2, 53, 98
5, 62399, Note_on_c, 2, 65, 101
5, 62400, Control_c, 2, 11, 50
5, 62401, Note_on_c, 2, 60, 100
5, 62432, Control_c, 2, 11, 49
5, 62463, Control_c, 2, 11, 48
5, 62494, Control_c, 2, 11, 47
5, 62525, Control_c, 2, 11, 46
5, 62556, Control_c, 2, 11, 45
5, 62576, Note_on_c, 2, 60, 0
5, 62576, Note_on_c, 2, 65, 0
5, 62576, Note_on_c, 2, 53, 0
5, 62578, Note_on_c, 2, 60, 103
5, 62580, Note_on_c, 2, 55, 101
5, 62583, Note_on_c, 2, 48, 101
5, 62588, Control_c, 2, 11, 44
5, 62619, Control_c, 2, 11, 43
5, 62650, Control_c, 2, 11, 42
5, 62681, Control_c, 2, 11, 41
5, 62712, Control_c, 2, 11, 40
5, 62743, Control_c, 2, 11, 39
5, 62775, Control_c, 2, 11, 38
5, 62806, Control_c, 2, 11, 37
5, 62837, Control_c, 2, 11, 36
5, 62868, Control_c, 2, 11, 35
5, 62876, Note_on_c, 2, 48, 0
5, 62876, Note_on_c, 2, 55, 0
5, 62876, Note_on_c, 2, 60, 0
5, 62879, Note_on_c, 2, 50, 98
5, 62880, Note_on_c, 2, 57, 101
5, 62883, Note_on_c, 2, 62, 100
5, 62899, Control_c, 2, 11, 34
5, 62931, Control_c, 2, 11, 33
5, 62962, Control_c, 2, 11, 32
5, 62993, Control_c, 2, 11, 31
5, 63024, Control_c, 2, 11, 30
5, 63055, Control_c, 2, 11, 29
5, 63056, Note_on_c, 2, 62, 0
5, 63056, Note_on_c, 2, 57, 0
5, 63056, Note_on_c, 2, 50, 0
5, 63057, Note_on_c, 2, 58, 101
5, 63057, Note_on_c, 2, 46, 101
5, 63063, Note_on_c, 2, 53, 98
5, 63086, Control_c, 2, 11, 28
5, 63118, Control_c, 2, 11, 27
5, 63149, Control_c, 2, 11, 26
5, 63180, Control_c, 2, 11, 25
5, 63211, Control_c, 2, 11, 24
5, 63242, Control_c, 2, 11, 23
5, 63274, Control_c, 2, 11, 22
5, 63305, Control_c, 2, 11, 21
5, 63336, Control_c, 2, 11, 20
5, 63356, Note_on_c, 2, 53, 0
5, 63356, Note_on_c, 2, 46, 0
5, 63356, Note_on_c, 2, 58, 0
5, 63357, Note_on_c, 2, 60, 98
5, 63360, Note_on_c, 2, 53, 103
5, 63362, Note_on_c, 2, 65, 98
5, 63367, Control_c, 2, 11, 19
5, 63398, Control_c, 2, 11, 18
5, 63429, Control_c, 2, 11, 17
5, 63461, Control_c, 2, 11, 16
5, 63492, Control_c, 2, 11, 15
5, 63523, Control_c, 2, 11, 14
5, 63536, Note_on_c, 2, 65, 0
5, 63536, Note_on_c, 2, 53, 0
5, 63536, Note_on_c, 2, 60, 0
5, 63538, Note_on_c, 2, 48, 99
5, 63539, Note_on_c, 2, 55, 102
5, 63543, Note_on_c, 2, 60, 99
5, 63554, Control_c, 2, 11, 13
5, 63585, Control_c, 2, 11, 12
5, 63617, Control_c, 2, 11, 11
5, 63648, Control_c, 2, 11, 10
5, 63679, Control_c, 2, 11, 9
5, 63710, Control_c, 2, 11, 8
5, 63741, Control_c, 2, 11, 7
5, 63772, Control_c, 2, 11, 6
5, 63804, Control_c, 2, 11, 5
5, 63835, Control_c, 2, 11, 4
5, 63836, Note_on_c, 2, 60, 0
5, 63836, Note_on_c, 2, 55, 0
5, 63836, Note_on_c, 2, 48, 0
5, 63866, Control_c, 2, 11, 3
5, 63897, Control_c, 2, 11, 2
5, 63928, Control_c, 2, 11, 1
5, 63960, Control_c, 2, 11, 0
5, 64101, Control_c, 2, 11, 127
5, 64101, End_track
6, 0, Start_track
6, 0, MIDI_port, 0
6, 0, Program_c, 3, 94
6, 0, Control_c, 3, 7, 105
6, 0, Control_c, 3, 10, 64
6, 0, Control_c, 3, 91, 93
6, 0, Control_c, 3, 93, 10
6, 9240, Lyric_t, "Your"
6, 9720, Note_on_c, 3, 65, 79
6, 9836, Note_on_c, 3, 65, 0
6, 9840, Lyric_t, "cruel"
6, 9843, Note_on_c, 3, 65, 79
6, 10015, Note_on_c, 3, 65, 0
6, 10197, Note_on_c, 3, 65, 81
6, 10200, Lyric_t, "de"
6, 10316, Note_on_c, 3, 65, 0
6, 10320, Lyric_t, "vice,"
6, 10321, Note_on_c, 3, 65, 78
6, 10495, Note_on_c, 3, 65, 0
6, 10680, Lyric_t, "your"
6, 10683, Note_on_c, 3, 69, 78
6, 10796, Note_on_c, 3, 69, 0
6, 10800, Note_on_c, 3, 69, 78
6, 10800, Lyric_t, "blood"
6, 10975, Note_on_c, 3, 69, 0
6, 11160, Note_on_c, 3, 67, 83
6, 11160, Lyric_t, "like"
6, 11276, Note_on_c, 3, 67, 0
6, 11280, Lyric_t, "ice."
6, 11282, Note_on_c, 3, 67, 81
6, 11320, Pitch_bend_c, 3, 8192
6, 11322, Pitch_bend_c, 3, 8704
6, 11323, Pitch_bend_c, 3, 9216
6, 11324, Pitch_bend_c, 3, 9728
6, 11325, Pitch_bend_c, 3, 10240
6, 11326, Pitch_bend_c, 3, 10752
6, 11328, Pitch_bend_c, 3, 11264
6, 11329, Pitch_bend_c, 3, 11776
6, 11330, Pitch_bend_c, 3, 12288
6, 11331, Pitch_bend_c, 3, 12800
6, 11332, Pitch_bend_c, 3, 13312
6, 11334, Pitch_bend_c, 3, 13824
6, 11335, Pitch_bend_c, 3, 14336
6, 11336, Pitch_bend_c, 3, 14848
6, 11337, Pitch_bend_c, 3, 15360
6, 11338, Pitch_bend_c, 3, 15872
6, 11340, Pitch_bend_c, 3, 16383
6, 11515, Note_on_c, 3, 67, 0
6, 11533, Pitch_bend_c, 3, 8192
6, 11639, Note_on_c, 3, 70, 82
6, 11640, Lyric_t, "One"
6, 11756, Note_on_c, 3, 70, 0
6, 11759, Note_on_c, 3, 70, 83
6, 11760, Lyric_t, "look"
6, 11936, Note_on_c, 3, 70, 0
6, 12120, Note_on_c, 3, 70, 80
6, 12120, Lyric_t, "could"
6, 12236, Note_on_c, 3, 70, 0
6, 12239, Note_on_c, 3, 70, 79
6, 12240, Lyric_t, "kill."
6, 12416, Note_on_c, 3, 70, 0
6, 12598, Note_on_c, 3, 74, 81
6, 12600, Lyric_t, "My"
6, 12716, Note_on_c, 3, 74, 0
6, 12720, Lyric_t, "pain,"
6, 12722, Note_on_c, 3, 74, 82
6, 12896, Note_on_c, 3, 74, 0
6, 13080, Lyric_t, "your"
6, 13083, Note_on_c, 3, 72, 83
6, 13196, Note_on_c, 3, 72, 0
6, 13200, Lyric_t, "thrill."
6, 13203, Note_on_c, 3, 72, 78
6, 13250, Pitch_bend_c, 3, 8320
6, 13251, Pitch_bend_c, 3, 9216
6, 13252, Pitch_bend_c, 3, 10240
6, 13254, Pitch_bend_c, 3, 11264
6, 13255, Pitch_bend_c, 3, 12288
6, 13256, Pitch_bend_c, 3, 13312
6, 13257, Pitch_bend_c, 3, 14336
6, 13258, Pitch_bend_c, 3, 15360
6, 13260, Pitch_bend_c, 3, 16383
6, 13912, Note_on_c, 3, 72, 0
6, 13918, Pitch_bend_c, 3, 8192
6, 13980, Lyric_t, "I"
6, 13982, Note_on_c, 3, 70, 103
6, 14036, Note_on_c, 3, 70, 0
6, 14039, Note_on_c, 3, 70, 103
6, 14040, Lyric_t, "wan"
6, 14096, Note_on_c, 3, 70, 0
6, 14097, Note_on_c, 3, 70, 99
6, 14100, Lyric_t, "na"
6, 14156, Note_on_c, 3, 70, 0
6, 14160, Lyric_t, "love"
6, 14163, Note_on_c, 3, 70, 98
6, 14216, Note_on_c, 3, 70, 0
6, 14217, Note_on_c, 3, 70, 98
6, 14220, Lyric_t, "you"
6, 14276, Note_on_c, 3, 70, 0
6, 14277, Note_on_c, 3, 67, 101
6, 14280, Lyric_t, "but"
6, 14336, Note_on_c, 3, 67, 0
6, 14340, Lyric_t, "I"
6, 14342, Note_on_c, 3, 69, 102
6, 14396, Note_on_c, 3, 69, 0
6, 14400, Lyric_t, "bet"
6, 14403, Note_on_c, 3, 70, 103
6, 14456, Note_on_c, 3, 70, 0
6, 14459, Note_on_c, 3, 70, 98
6, 14460, Lyric_t, "ter"
6, 14516, Note_on_c, 3, 70, 0
6, 14520, Lyric_t, "not"
6, 14523, Note_on_c, 3, 70, 102
6, 14566, Pitch_bend_c, 3, 8192
6, 14568, Pitch_bend_c, 3, 7936
6, 14569, Pitch_bend_c, 3, 7552
6, 14570, Pitch_bend_c, 3, 7168
6, 14571, Pitch_bend_c, 3, 6784
6, 14572, Pitch_bend_c, 3, 6400
6, 14574, Pitch_bend_c, 3, 6144
6, 14575, Pitch_bend_c, 3, 5760
6, 14576, Pitch_bend_c, 3, 5376
6, 14577, Pitch_bend_c, 3, 4992
6, 14578, Pitch_bend_c, 3, 4608
6, 14580, Pitch_bend_c, 3, 4224
6, 14636, Note_on_c, 3, 70, 0
6, 14638, Note_on_c, 3, 69, 103
6, 14640, Pitch_bend_c, 3, 8192
6, 14640, Lyric_t, "touch."
6, 14726, Note_on_c, 3, 69, 0
6, 14940, Lyric_t, "I"
6, 14941, Note_on_c, 3, 75, 103
6, 14996, Note_on_c, 3, 75, 0
6, 15000, Lyric_t, "want"
6, 15001, Note_on_c, 3, 75, 98
6, 15056, Note_on_c, 3, 75, 0
6, 15060, Lyric_t, "to"
6, 15061, Note_on_c, 3, 75, 99
6, 15116, Note_on_c, 3, 75, 0
6, 15119, Note_on_c, 3, 75, 99
6, 15120, Lyric_t, "hold"
6, 15176, Note_on_c, 3, 75, 0
6, 15179, Note_on_c, 3, 75, 102
6, 15180, Lyric_t, "you"
6, 15236, Note_on_c, 3, 75, 0
6, 15239, Note_on_c, 3, 72, 101
6, 15240, Lyric_t, "but"
6, 15296, Note_on_c, 3, 72, 0
6, 15299, Note_on_c, 3, 74, 100
6, 15300, Lyric_t, "my"
6, 15356, Note_on_c, 3, 74, 0
6, 15360, Note_on_c, 3, 75, 102
6, 15360, Lyric_t, "sen"
6, 15475, Note_on_c, 3, 75, 0
6, 15480, Note_on_c, 3, 75, 98
6, 15480, Lyric_t, "ses"
6, 15596, Note_on_c, 3, 75, 0
6, 15600, Lyric_t, "tell"
6, 15602, Note_on_c, 3, 74, 98
6, 15676, Note_on_c, 3, 74, 0
6, 15680, Lyric_t, "me"
6, 15683, Note_on_c, 3, 72, 100
6, 15755, Note_on_c, 3, 72, 0
6, 15760, Note_on_c, 3, 70, 100
6, 15760, Lyric_t, "to"
6, 15836, Note_on_c, 3, 70, 0
6, 15839, Note_on_c, 3, 72, 100
6, 15840, Lyric_t, "stop."
6, 15896, Note_on_c, 3, 72, 0
6, 15897, Note_on_c, 3, 72, 98
6, 15900, Lyric_t, "I"
6, 15955, Note_on_c, 3, 72, 0
6, 15958, Note_on_c, 3, 72, 100
6, 15960, Lyric_t, "want"
6, 16015, Note_on_c, 3, 72, 0
6, 16020, Lyric_t, "to"
6, 16021, Note_on_c, 3, 72, 99
6, 16075, Note_on_c, 3, 72, 0
6, 16077, Note_on_c, 3, 72, 103
6, 16080, Lyric_t, "kiss"
6, 16135, Note_on_c, 3, 72, 0
6, 16140, Lyric_t, "you"
6, 16141, Note_on_c, 3, 69, 102
6, 16196, Note_on_c, 3, 69, 0
6, 16200, Lyric_t, "but"
6, 16202, Note_on_c, 3, 69, 99
6, 16256, Note_on_c, 3, 69, 0
6, 16260, Note_on_c, 3, 71, 99
6, 16260, Lyric_t, "I"
6, 16316, Note_on_c, 3, 71, 0
6, 16318, Note_on_c, 3, 72, 101
6, 16320, Lyric_t, "want"
6, 16376, Note_on_c, 3, 72, 0
6, 16377, Note_on_c, 3, 72, 101
6, 16380, Lyric_t, "it"
6, 16436, Note_on_c, 3, 72, 0
6, 16440, Lyric_t, "too"
6, 16442, Note_on_c, 3, 72, 102
6, 16488, Pitch_bend_c, 3, 8192
6, 16489, Pitch_bend_c, 3, 9088
6, 16490, Pitch_bend_c, 3, 9856
6, 16491, Pitch_bend_c, 3, 10752
6, 16492, Pitch_bend_c, 3, 11520
6, 16494, Pitch_bend_c, 3, 12288
6, 16495, Pitch_bend_c, 3, 13184
6, 16496, Pitch_bend_c, 3, 13952
6, 16497, Pitch_bend_c, 3, 14848
6, 16498, Pitch_bend_c, 3, 15616
6, 16500, Pitch_bend_c, 3, 16383
6, 16555, Note_on_c, 3, 72, 0
6, 16558, Pitch_bend_c, 3, 8192
6, 16560, Note_on_c, 3, 71, 102
6, 16560, Lyric_t, "much."
6, 16616, Note_on_c, 3, 71, 0
6, 16859, Note_on_c, 3, 77, 98
6, 16860, Lyric_t, "I"
6, 16916, Note_on_c, 3, 77, 0
6, 16917, Note_on_c, 3, 77, 102
6, 16920, Lyric_t, "want"
6, 16976, Note_on_c, 3, 77, 0
6, 16980, Lyric_t, "to"
6, 16981, Note_on_c, 3, 77, 99
6, 17036, Note_on_c, 3, 77, 0
6, 17039, Note_on_c, 3, 77, 101
6, 17040, Lyric_t, "taste"
6, 17096, Note_on_c, 3, 77, 0
6, 17098, Note_on_c, 3, 74, 101
6, 17100, Lyric_t, "you"
6, 17156, Note_on_c, 3, 74, 0
6, 17160, Lyric_t, "but"
6, 17162, Note_on_c, 3, 74, 103
6, 17216, Note_on_c, 3, 74, 0
6, 17217, Note_on_c, 3, 76, 98
6, 17220, Lyric_t, "your"
6, 17276, Note_on_c, 3, 76, 0
6, 17280, Lyric_t, "lips"
6, 17283, Note_on_c, 3, 77, 102
6, 17336, Note_on_c, 3, 77, 0
6, 17397, Note_on_c, 3, 77, 103
6, 17400, Lyric_t, "are"
6, 17516, Note_on_c, 3, 77, 0
6, 17520, Lyric_t, "ve"
6, 17521, Note_on_c, 3, 76, 101
6, 17576, Note_on_c, 3, 76, 0
6, 17578, Note_on_c, 3, 74, 103
6, 17580, Lyric_t, "no"
6, 17636, Note_on_c, 3, 74, 0
6, 17637, Note_on_c, 3, 76, 98
6, 17640, Lyric_t, "mous"
6, 17756, Note_on_c, 3, 76, 0
6, 17760, Lyric_t, "Poi"
6, 17763, Note_on_c, 3, 76, 103
6, 17812, Pitch_bend_c, 3, 8192
6, 17814, Pitch_bend_c, 3, 6656
6, 17815, Pitch_bend_c, 3, 5120
6, 17816, Pitch_bend_c, 3, 3584
6, 17817, Pitch_bend_c, 3, 2048
6, 17818, Pitch_bend_c, 3, 512
6, 17820, Pitch_bend_c, 3, 0
6, 17876, Note_on_c, 3, 76, 0
6, 17880, Lyric_t, "son."
6, 17881, Note_on_c, 3, 74, 103
6, 17884, Pitch_bend_c, 3, 8192
6, 17996, Note_on_c, 3, 74, 0
6, 18599, Note_on_c, 3, 76, 98
6, 18600, Lyric_t, "You're"
6, 18716, Note_on_c, 3, 76, 0
6, 18720, Lyric_t, "poi"
6, 18721, Note_on_c, 3, 77, 103
6, 18806, Note_on_c, 3, 77, 0
6, 18840, Lyric_t, "son"
6, 18842, Note_on_c, 3, 77, 99
6, 18926, Note_on_c, 3, 77, 0
6, 18958, Note_on_c, 3, 77, 100
6, 18960, Lyric_t, "run"
6, 19016, Note_on_c, 3, 77, 0
6, 19020, Note_on_c, 3, 77, 98
6, 19020, Lyric_t, "ning"
6, 19076, Note_on_c, 3, 77, 0
6, 19139, Note_on_c, 3, 77, 102
6, 19140, Lyric_t, "through"
6, 19196, Note_on_c, 3, 77, 0
6, 19257, Note_on_c, 3, 77, 99
6, 19260, Lyric_t, "my"
6, 19316, Note_on_c, 3, 77, 0
6, 19380, Lyric_t, "veins."
6, 19381, Note_on_c, 3, 76, 99
6, 19466, Note_on_c, 3, 76, 0
6, 19560, Lyric_t, "You're"
6, 19562, Note_on_c, 3, 76, 103
6, 19676, Note_on_c, 3, 76, 0
6, 19679, Note_on_c, 3, 76, 101
6, 19680, Lyric_t, "poi"
6, 19732, Pitch_bend_c, 3, 8192
6, 19734, Pitch_bend_c, 3, 6656
6, 19735, Pitch_bend_c, 3, 5120
6, 19736, Pitch_bend_c, 3, 3584
6, 19737, Pitch_bend_c, 3, 2048
6, 19738, Pitch_bend_c, 3, 512
6, 19740, Pitch_bend_c, 3, 0
6, 19796, Note_on_c, 3, 76, 0
6, 19799, Note_on_c, 3, 74, 103
6, 19800, Lyric_t, "son."
6, 19804, Pitch_bend_c, 3, 8192
6, 20155, Note_on_c, 3, 74, 0
6, 20637, Note_on_c, 3, 77, 98
6, 20640, Lyric_t, "I"
6, 20726, Note_on_c, 3, 77, 0
6, 20760, Lyric_t, "don't"
6, 20763, Note_on_c, 3, 77, 100
6, 20846, Note_on_c, 3, 77, 0
6, 20880, Lyric_t, "wan"
6, 20883, Note_on_c, 3, 77, 99
6, 20936, Note_on_c, 3, 77, 0
6, 20939, Note_on_c, 3, 77, 101
6, 20940, Lyric_t, "na"
6, 20996, Note_on_c, 3, 77, 0
6, 21060, Lyric_t, "break"
6, 21063, Note_on_c, 3, 77, 100
6, 21116, Note_on_c, 3, 77, 0
6, 21179, Note_on_c, 3, 77, 103
6, 21180, Lyric_t, "these"
6, 21236, Note_on_c, 3, 77, 0
6, 21300, Lyric_t, "chains."
6, 21301, Note_on_c, 3, 76, 101
6, 21386, Note_on_c, 3, 76, 0
6, 22680, Note_on_c, 3, 65, 102
6, 22680, Lyric_t, "Your"
6, 22796, Note_on_c, 3, 65, 0
6, 22800, Note_on_c, 3, 65, 103
6, 22800, Lyric_t, "mouth,"
6, 22975, Note_on_c, 3, 65, 0
6, 23160, Lyric_t, "so"
6, 23162, Note_on_c, 3, 65, 102
6, 23276, Note_on_c, 3, 65, 0
6, 23280, Note_on_c, 3, 65, 99
6, 23280, Lyric_t, "hot."
6, 23455, Note_on_c, 3, 65, 0
6, 23640, Lyric_t, "Your"
6, 23643, Note_on_c, 3, 69, 102
6, 23756, Note_on_c, 3, 69, 0
6, 23758, Note_on_c, 3, 69, 99
6, 23760, Lyric_t, "web,"
6, 23935, Note_on_c, 3, 69, 0
6, 24120, Lyric_t, "I'm"
6, 24121, Note_on_c, 3, 67, 102
6, 24236, Note_on_c, 3, 67, 0
6, 24240, Lyric_t, "caught."
6, 24242, Note_on_c, 3, 67, 98
6, 24280, Pitch_bend_c, 3, 8192
6, 24282, Pitch_bend_c, 3, 8704
6, 24283, Pitch_bend_c, 3, 9216
6, 24284, Pitch_bend_c, 3, 9728
6, 24285, Pitch_bend_c, 3, 10240
6, 24286, Pitch_bend_c, 3, 10752
6, 24288, Pitch_bend_c, 3, 11264
6, 24289, Pitch_bend_c, 3, 11776
6, 24290, Pitch_bend_c, 3, 12288
6, 24291, Pitch_bend_c, 3, 12800
6, 24292, Pitch_bend_c, 3, 13312
6, 24294, Pitch_bend_c, 3, 13824
6, 24295, Pitch_bend_c, 3, 14336
6, 24296, Pitch_bend_c, 3, 14848
6, 24297, Pitch_bend_c, 3, 15360
6, 24298, Pitch_bend_c, 3, 15872
6, 24300, Pitch_bend_c, 3, 16383
6, 24475, Note_on_c, 3, 67, 0
6, 24493, Pitch_bend_c, 3, 8192
6, 24600, Note_on_c, 3, 70, 99
6, 24600, Lyric_t, "Your"
6, 24716, Note_on_c, 3, 70, 0
6, 24719, Note_on_c, 3, 70, 99
6, 24720, Lyric_t, "skin,"
6, 24896, Note_on_c, 3, 70, 0
6, 25078, Note_on_c, 3, 70, 103
6, 25080, Lyric_t, "so"
6, 25196, Note_on_c, 3, 70, 0
6, 25200, Lyric_t, "wet."
6, 25203, Note_on_c, 3, 70, 98
6, 25376, Note_on_c, 3, 70, 0
6, 25560, Lyric_t, "Black"
6, 25561, Note_on_c, 3, 74, 101
6, 25676, Note_on_c, 3, 74, 0
6, 25677, Note_on_c, 3, 74, 103
6, 25680, Lyric_t, "lace"
6, 25856, Note_on_c, 3, 74, 0
6, 26040, Lyric_t, "on"
6, 26041, Note_on_c, 3, 72, 98
6, 26156, Note_on_c, 3, 72, 0
6, 26160, Lyric_t, "sweat."
6, 26162, Note_on_c, 3, 72, 98
6, 26210, Pitch_bend_c, 3, 8320
6, 26211, Pitch_bend_c, 3, 9216
6, 26212, Pitch_bend_c, 3, 10240
6, 26214, Pitch_bend_c, 3, 11264
6, 26215, Pitch_bend_c, 3, 12288
6, 26216, Pitch_bend_c, 3, 13312
6, 26217, Pitch_bend_c, 3, 14336
6, 26218, Pitch_bend_c, 3, 15360
6, 26220, Pitch_bend_c, 3, 16383
6, 26872, Note_on_c, 3, 72, 0
6, 26878, Pitch_bend_c, 3, 8192
6, 26940, Lyric_t, "I"
6, 26941, Note_on_c, 3, 70, 99
6, 26996, Note_on_c, 3, 70, 0
6, 27000, Note_on_c, 3, 70, 102
6, 27000, Lyric_t, "hear"
6, 27056, Note_on_c, 3, 70, 0
6, 27060, Lyric_t, "you"
6, 27063, Note_on_c, 3, 70, 100
6, 27116, Note_on_c, 3, 70, 0
6, 27117, Note_on_c, 3, 70, 98
6, 27120, Lyric_t, "cal"
6, 27176, Note_on_c, 3, 70, 0
6, 27180, Lyric_t, "ling"
6, 27181, Note_on_c, 3, 70, 102
6, 27236, Note_on_c, 3, 70, 0
6, 27240, Lyric_t, "and"
6, 27241, Note_on_c, 3, 67, 103
6, 27296, Note_on_c, 3, 67, 0
6, 27300, Lyric_t, "it's"
6, 27301, Note_on_c, 3, 69, 98
6, 27356, Note_on_c, 3, 69, 0
6, 27358, Note_on_c, 3, 70, 103
6, 27360, Lyric_t, "need"
6, 27416, Note_on_c, 3, 70, 0
6, 27418, Note_on_c, 3, 70, 102
6, 27420, Lyric_t, "les"
6, 27476, Note_on_c, 3, 70, 0
6, 27478, Note_on_c, 3, 70, 103
6, 27480, Lyric_t, "and"
6, 27524, Pitch_bend_c, 3, 8192
6, 27525, Pitch_bend_c, 3, 8704
6, 27526, Pitch_bend_c, 3, 9344
6, 27528, Pitch_bend_c, 3, 9984
6, 27529, Pitch_bend_c, 3, 10624
6, 27530, Pitch_bend_c, 3, 11264
6, 27531, Pitch_bend_c, 3, 11904
6, 27532, Pitch_bend_c, 3, 12544
6, 27534, Pitch_bend_c, 3, 13184
6, 27535, Pitch_bend_c, 3, 13824
6, 27536, Pitch_bend_c, 3, 14464
6, 27537, Pitch_bend_c, 3, 15104
6, 27538, Pitch_bend_c, 3, 15744
6, 27540, Pitch_bend_c, 3, 16383
6, 27596, Note_on_c, 3, 70, 0
6, 27600, Pitch_bend_c, 3, 8192
6, 27600, Lyric_t, "pins."
6, 27603, Note_on_c, 3, 69, 98
6, 27686, Note_on_c, 3, 69, 0
6, 27897, Note_on_c, 3, 75, 100
6, 27900, Lyric_t, "I"
6, 27956, Note_on_c, 3, 75, 0
6, 27957, Note_on_c, 3, 75, 101
6, 27960, Lyric_t, "want"
6, 28016, Note_on_c, 3, 75, 0
6, 28019, Note_on_c, 3, 75, 100
6, 28020, Lyric_t, "to"
6, 28076, Note_on_c, 3, 75, 0
6, 28078, Note_on_c, 3, 75, 103
6, 28080, Lyric_t, "hurt"
6, 28136, Note_on_c, 3, 75, 0
6, 28140, Lyric_t, "you"
6, 28141, Note_on_c, 3, 75, 102
6, 28196, Note_on_c, 3, 75, 0
6, 28200, Lyric_t, "just"
6, 28203, Note_on_c, 3, 72, 101
6, 28256, Note_on_c, 3, 72, 0
6, 28260, Lyric_t, "to"
6, 28263, Note_on_c, 3, 74, 98
6, 28316, Note_on_c, 3, 74, 0
6, 28317, Note_on_c, 3, 75, 101
6, 28320, Lyric_t, "hear"
6, 28435, Note_on_c, 3, 75, 0
6, 28440, Lyric_t, "you"
6, 28441, Note_on_c, 3, 75, 98
6, 28556, Note_on_c, 3, 75, 0
6, 28560, Note_on_c, 3, 74, 98
6, 28560, Lyric_t, "scream"
6, 28636, Note_on_c, 3, 74, 0
6, 28638, Note_on_c, 3, 72, 98
6, 28640, Lyric_t, "ing"
6, 28715, Note_on_c, 3, 72, 0
6, 28718, Note_on_c, 3, 70, 102
6, 28720, Lyric_t, "my"
6, 28796, Note_on_c, 3, 70, 0
6, 28800, Lyric_t, "name."
6, 28801, Note_on_c, 3, 72, 101
6, 28856, Note_on_c, 3, 72, 0
6, 28859, Note_on_c, 3, 72, 98
6, 28860, Lyric_t, "Don't"
6, 28915, Note_on_c, 3, 72, 0
6, 28918, Note_on_c, 3, 72, 102
6, 28920, Lyric_t, "wan"
6, 28975, Note_on_c, 3, 72, 0
6, 28980, Lyric_t, "na"
6, 28983, Note_on_c, 3, 72, 99
6, 29035, Note_on_c, 3, 72, 0
6, 29037, Note_on_c, 3, 72, 100
6, 29040, Lyric_t, "touch"
6, 29095, Note_on_c, 3, 72, 0
6, 29097, Note_on_c, 3, 69, 99
6, 29100, Lyric_t, "you"
6, 29156, Note_on_c, 3, 69, 0
6, 29160, Lyric_t, "but"
6, 29162, Note_on_c, 3, 69, 102
6, 29216, Note_on_c, 3, 69, 0
6, 29218, Note_on_c, 3, 71, 99
6, 29220, Lyric_t, "you're"
6, 29276, Note_on_c, 3, 71, 0
6, 29280, Lyric_t, "un"
6, 29281, Note_on_c, 3, 72, 101
6, 29336, Note_on_c, 3, 72, 0
6, 29337, Note_on_c, 3, 72, 100
6, 29340, Lyric_t, "der"
6, 29396, Note_on_c, 3, 72, 0
6, 29400, Lyric_t, "my"
6, 29401, Note_on_c, 3, 72, 99
6, 29448, Pitch_bend_c, 3, 8192
6, 29449, Pitch_bend_c, 3, 9088
6, 29450, Pitch_bend_c, 3, 9856
6, 29451, Pitch_bend_c, 3, 10752
6, 29452, Pitch_bend_c, 3, 11520
6, 29454, Pitch_bend_c, 3, 12288
6, 29455, Pitch_bend_c, 3, 13184
6, 29456, Pitch_bend_c, 3, 13952
6, 29457, Pitch_bend_c, 3, 14848
6, 29458, Pitch_bend_c, 3, 15616
6, 29460, Pitch_bend_c, 3, 16383
6, 29515, Note_on_c, 3, 72, 0
6, 29517, Note_on_c, 3, 71, 102
6, 29518, Pitch_bend_c, 3, 8192
6, 29520, Lyric_t, "skin."
6, 29576, Note_on_c, 3, 71, 0
6, 29818, Note_on_c, 3, 77, 98
6, 29820, Lyric_t, "I"
6, 29876, Note_on_c, 3, 77, 0
6, 29878, Note_on_c, 3, 77, 101
6, 29880, Lyric_t, "want"
6, 29936, Note_on_c, 3, 77, 0
6, 29939, Note_on_c, 3, 77, 101
6, 29940, Lyric_t, "to"
6, 29996, Note_on_c, 3, 77, 0
6, 29999, Note_on_c, 3, 77, 101
6, 30000, Lyric_t, "kiss"
6, 30056, Note_on_c, 3, 77, 0
6, 30058, Note_on_c, 3, 74, 102
6, 30060, Lyric_t, "you"
6, 30116, Note_on_c, 3, 74, 0
6, 30120, Lyric_t, "but"
6, 30122, Note_on_c, 3, 74, 100
6, 30176, Note_on_c, 3, 74, 0
6, 30180, Lyric_t, "your"
6, 30183, Note_on_c, 3, 76, 99
6, 30236, Note_on_c, 3, 76, 0
6, 30240, Lyric_t, "lips"
6, 30243, Note_on_c, 3, 77, 102
6, 30296, Note_on_c, 3, 77, 0
6, 30360, Lyric_t, "are"
6, 30361, Note_on_c, 3, 77, 99
6, 30476, Note_on_c, 3, 77, 0
6, 30478, Note_on_c, 3, 76, 98
6, 30480, Lyric_t, "ve"
6, 30536, Note_on_c, 3, 76, 0
6, 30540, Lyric_t, "nom"
6, 30542, Note_on_c, 3, 74, 101
6, 30596, Note_on_c, 3, 74, 0
6, 30600, Lyric_t, "ous"
6, 30601, Note_on_c, 3, 76, 99
6, 30716, Note_on_c, 3, 76, 0
6, 30720, Lyric_t, "Poi"
6, 30722, Note_on_c, 3, 76, 98
6, 30772, Pitch_bend_c, 3, 8192
6, 30774, Pitch_bend_c, 3, 6656
6, 30775, Pitch_bend_c, 3, 5120
6, 30776, Pitch_bend_c, 3, 3584
6, 30777, Pitch_bend_c, 3, 2048
6, 30778, Pitch_bend_c, 3, 512
6, 30780, Pitch_bend_c, 3, 0
6, 30836, Note_on_c, 3, 76, 0
6, 30838, Note_on_c, 3, 74, 100
6, 30840, Lyric_t, "son."
6, 30844, Pitch_bend_c, 3, 8192
6, 30956, Note_on_c, 3, 74, 0
6, 31558, Note_on_c, 3, 76, 102
6, 31560, Lyric_t, "You're"
6, 31676, Note_on_c, 3, 76, 0
6, 31680, Lyric_t, "poi"
6, 31683, Note_on_c, 3, 77, 99
6, 31766, Note_on_c, 3, 77, 0
6, 31799, Note_on_c, 3, 77, 99
6, 31800, Lyric_t, "son"
6, 31886, Note_on_c, 3, 77, 0
6, 31920, Lyric_t, "run"
6, 31923, Note_on_c, 3, 77, 102
6, 31976, Note_on_c, 3, 77, 0
6, 31979, Note_on_c, 3, 77, 98
6, 31980, Lyric_t, "ning"
6, 32036, Note_on_c, 3, 77, 0
6, 32100, Lyric_t, "through"
6, 32103, Note_on_c, 3, 77, 99
6, 32156, Note_on_c, 3, 77, 0
6, 32220, Note_on_c, 3, 77, 99
6, 32220, Lyric_t, "my"
6, 32276, Note_on_c, 3, 77, 0
6, 32340, Lyric_t, "veins."
6, 32342, Note_on_c, 3, 76, 102
6, 32426, Note_on_c, 3, 76, 0
6, 32517, Note_on_c, 3, 76, 99
6, 32520, Lyric_t, "You're"
6, 32636, Note_on_c, 3, 76, 0
6, 32639, Note_on_c, 3, 76, 98
6, 32640, Lyric_t, "poi"
6, 32692, Pitch_bend_c, 3, 8192
6, 32694, Pitch_bend_c, 3, 6656
6, 32695, Pitch_bend_c, 3, 5120
6, 32696, Pitch_bend_c, 3, 3584
6, 32697, Pitch_bend_c, 3, 2048
6, 32698, Pitch_bend_c, 3, 512
6, 32700, Pitch_bend_c, 3, 0
6, 32756, Note_on_c, 3, 76, 0
6, 32760, Lyric_t, "son."
6, 32761, Note_on_c, 3, 74, 101
6, 32764, Pitch_bend_c, 3, 8192
6, 33115, Note_on_c, 3, 74, 0
6, 33600, Note_on_c, 3, 77, 99
6, 33600, Lyric_t, "I"
6, 33686, Note_on_c, 3, 77, 0
6, 33719, Note_on_c, 3, 77, 98
6, 33720, Lyric_t, "don't"
6, 33806, Note_on_c, 3, 77, 0
6, 33840, Lyric_t, "wan"
6, 33842, Note_on_c, 3, 77, 98
6, 33896, Note_on_c, 3, 77, 0
6, 33900, Note_on_c, 3, 77, 98
6, 33900, Lyric_t, "na"
6, 33956, Note_on_c, 3, 77, 0
6, 34020, Lyric_t, "break"
6, 34023, Note_on_c, 3, 77, 100
6, 34076, Note_on_c, 3, 77, 0
6, 34140, Lyric_t, "these"
6, 34142, Note_on_c, 3, 77, 102
6, 34196, Note_on_c, 3, 77, 0
6, 34258, Note_on_c, 3, 76, 100
6, 34260, Lyric_t, "chains."
6, 34346, Note_on_c, 3, 76, 0
6, 34558, Note_on_c, 3, 76, 100
6, 34560, Lyric_t, "Poi"
6, 34611, Pitch_bend_c, 3, 8192
6, 34612, Pitch_bend_c, 3, 6912
6, 34614, Pitch_bend_c, 3, 5632
6, 34615, Pitch_bend_c, 3, 4352
6, 34616, Pitch_bend_c, 3, 3072
6, 34617, Pitch_bend_c, 3, 1792
6, 34618, Pitch_bend_c, 3, 512
6, 34620, Pitch_bend_c, 3, 0
6, 34675, Note_on_c, 3, 76, 0
6, 34680, Lyric_t, "son."
6, 34681, Note_on_c, 3, 76, 103
6, 35403, Pitch_bend_c, 3, 128
6, 35409, Pitch_bend_c, 3, 384
6, 35410, Pitch_bend_c, 3, 512
6, 35412, Pitch_bend_c, 3, 640
6, 35414, Pitch_bend_c, 3, 896
6, 35416, Pitch_bend_c, 3, 1024
6, 35420, Pitch_bend_c, 3, 1152
6, 35421, Pitch_bend_c, 3, 1280
6, 35422, Pitch_bend_c, 3, 1408
6, 35424, Pitch_bend_c, 3, 1536
6, 35425, Pitch_bend_c, 3, 1664
6, 35427, Pitch_bend_c, 3, 1792
6, 35430, Pitch_bend_c, 3, 1920
6, 35431, Pitch_bend_c, 3, 2176
6, 35436, Pitch_bend_c, 3, 2560
6, 35437, Pitch_bend_c, 3, 2688
6, 35438, Pitch_bend_c, 3, 2816
6, 35439, Pitch_bend_c, 3, 2944
6, 35442, Pitch_bend_c, 3, 3072
6, 35443, Pitch_bend_c, 3, 3200
6, 35445, Pitch_bend_c, 3, 3328
6, 35448, Pitch_bend_c, 3, 3456
6, 35449, Pitch_bend_c, 3, 3584
6, 35450, Pitch_bend_c, 3, 3712
6, 35452, Pitch_bend_c, 3, 3840
6, 35455, Pitch_bend_c, 3, 3968
6, 35456, Pitch_bend_c, 3, 4096
6, 35458, Pitch_bend_c, 3, 4224
6, 35460, Pitch_bend_c, 3, 4352
6, 35462, Pitch_bend_c, 3, 4480
6, 35463, Pitch_bend_c, 3, 4608
6, 35464, Pitch_bend_c, 3, 4736
6, 35469, Pitch_bend_c, 3, 5248
6, 35473, Pitch_bend_c, 3, 5376
6, 35474, Pitch_bend_c, 3, 5504
6, 35475, Pitch_bend_c, 3, 5632
6, 35476, Pitch_bend_c, 3, 5760
6, 35478, Pitch_bend_c, 3, 5888
6, 35479, Pitch_bend_c, 3, 6144
6, 35481, Pitch_bend_c, 3, 6272
6, 35482, Pitch_bend_c, 3, 6400
6, 35484, Pitch_bend_c, 3, 6528
6, 35485, Pitch_bend_c, 3, 6656
6, 35486, Pitch_bend_c, 3, 6784
6, 35487, Pitch_bend_c, 3, 7040
6, 35490, Pitch_bend_c, 3, 7168
6, 35491, Pitch_bend_c, 3, 7424
6, 35492, Pitch_bend_c, 3, 7552
6, 35493, Pitch_bend_c, 3, 7680
6, 35494, Pitch_bend_c, 3, 7936
6, 35496, Pitch_bend_c, 3, 8064
6, 35497, Pitch_bend_c, 3, 8192
6, 35498, Pitch_bend_c, 3, 8448
6, 35500, Pitch_bend_c, 3, 8704
6, 35502, Pitch_bend_c, 3, 8832
6, 35503, Pitch_bend_c, 3, 8960
6, 35504, Pitch_bend_c, 3, 9088
6, 35505, Pitch_bend_c, 3, 9216
6, 35509, Pitch_bend_c, 3, 9728
6, 35510, Pitch_bend_c, 3, 9856
6, 35511, Pitch_bend_c, 3, 9984
6, 35512, Pitch_bend_c, 3, 10240
6, 35514, Pitch_bend_c, 3, 10368
6, 35515, Pitch_bend_c, 3, 10496
6, 35516, Pitch_bend_c, 3, 10752
6, 35517, Pitch_bend_c, 3, 11264
6, 35518, Pitch_bend_c, 3, 12288
6, 35995, Note_on_c, 3, 76, 0
6, 36054, Pitch_bend_c, 3, 8192
6, 39480, Lyric_t, "One"
6, 39483, Note_on_c, 3, 70, 101
6, 39595, Note_on_c, 3, 70, 0
6, 39600, Lyric_t, "look"
6, 39603, Note_on_c, 3, 70, 99
6, 39835, Note_on_c, 3, 70, 0
6, 39960, Lyric_t, "could"
6, 39963, Note_on_c, 3, 70, 98
6, 40075, Note_on_c, 3, 70, 0
6, 40079, Note_on_c, 3, 70, 99
6, 40080, Lyric_t, "kill."
6, 40315, Note_on_c, 3, 70, 0
6, 40440, Lyric_t, "My"
6, 40442, Note_on_c, 3, 74, 103
6, 40556, Note_on_c, 3, 74, 0
6, 40559, Note_on_c, 3, 74, 101
6, 40560, Lyric_t, "pain,"
6, 40795, Note_on_c, 3, 74, 0
6, 40920, Note_on_c, 3, 72, 101
6, 40920, Lyric_t, "your"
6, 41036, Note_on_c, 3, 72, 0
6, 41039, Note_on_c, 3, 72, 99
6, 41040, Lyric_t, "thrill."
6, 41085, Pitch_bend_c, 3, 8320
6, 41086, Pitch_bend_c, 3, 8960
6, 41088, Pitch_bend_c, 3, 9600
6, 41089, Pitch_bend_c, 3, 10240
6, 41090, Pitch_bend_c, 3, 11008
6, 41091, Pitch_bend_c, 3, 11648
6, 41092, Pitch_bend_c, 3, 12288
6, 41094, Pitch_bend_c, 3, 12928
6, 41095, Pitch_bend_c, 3, 13696
6, 41096, Pitch_bend_c, 3, 14336
6, 41097, Pitch_bend_c, 3, 14976
6, 41098, Pitch_bend_c, 3, 15616
6, 41100, Pitch_bend_c, 3, 16383
6, 41755, Note_on_c, 3, 72, 0
6, 41784, Pitch_bend_c, 3, 8192
6, 41820, Lyric_t, "I"
6, 41822, Note_on_c, 3, 70, 98
6, 41876, Note_on_c, 3, 70, 0
6, 41880, Lyric_t, "wan"
6, 41882, Note_on_c, 3, 70, 103
6, 41936, Note_on_c, 3, 70, 0
6, 41940, Note_on_c, 3, 70, 98
6, 41940, Lyric_t, "na"
6, 41996, Note_on_c, 3, 70, 0
6, 42000, Lyric_t, "love"
6, 42003, Note_on_c, 3, 70, 98
6, 42056, Note_on_c, 3, 70, 0
6, 42060, Note_on_c, 3, 70, 100
6, 42060, Lyric_t, "you"
6, 42116, Note_on_c, 3, 70, 0
6, 42118, Note_on_c, 3, 67, 103
6, 42120, Lyric_t, "but"
6, 42176, Note_on_c, 3, 67, 0
6, 42180, Lyric_t, "I"
6, 42183, Note_on_c, 3, 69, 103
6, 42236, Note_on_c, 3, 69, 0
6, 42240, Lyric_t, "bet"
6, 42242, Note_on_c, 3, 70, 99
6, 42296, Note_on_c, 3, 70, 0
6, 42298, Note_on_c, 3, 70, 102
6, 42300, Lyric_t, "ter"
6, 42356, Note_on_c, 3, 70, 0
6, 42357, Note_on_c, 3, 70, 101
6, 42360, Lyric_t, "not"
6, 42406, Pitch_bend_c, 3, 8192
6, 42408, Pitch_bend_c, 3, 7936
6, 42409, Pitch_bend_c, 3, 7552
6, 42410, Pitch_bend_c, 3, 7168
6, 42411, Pitch_bend_c, 3, 6784
6, 42412, Pitch_bend_c, 3, 6400
6, 42414, Pitch_bend_c, 3, 6144
6, 42415, Pitch_bend_c, 3, 5760
6, 42416, Pitch_bend_c, 3, 5376
6, 42417, Pitch_bend_c, 3, 4992
6, 42418, Pitch_bend_c, 3, 4608
6, 42420, Pitch_bend_c, 3, 4224
6, 42476, Note_on_c, 3, 70, 0
6, 42480, Pitch_bend_c, 3, 8192
6, 42480, Lyric_t, "touch."
6, 42482, Note_on_c, 3, 69, 99
6, 42566, Note_on_c, 3, 69, 0
6, 42780, Lyric_t, "I"
6, 42782, Note_on_c, 3, 75, 100
6, 42836, Note_on_c, 3, 75, 0
6, 42839, Note_on_c, 3, 75, 98
6, 42840, Lyric_t, "want"
6, 42896, Note_on_c, 3, 75, 0
6, 42898, Note_on_c, 3, 75, 101
6, 42900, Lyric_t, "to"
6, 42956, Note_on_c, 3, 75, 0
6, 42959, Note_on_c, 3, 75, 99
6, 42960, Lyric_t, "hold"
6, 43016, Note_on_c, 3, 75, 0
6, 43020, Lyric_t, "you"
6, 43022, Note_on_c, 3, 75, 98
6, 43076, Note_on_c, 3, 75, 0
6, 43080, Lyric_t, "but"
6, 43082, Note_on_c, 3, 72, 98
6, 43136, Note_on_c, 3, 72, 0
6, 43140, Lyric_t, "my"
6, 43141, Note_on_c, 3, 74, 100
6, 43196, Note_on_c, 3, 74, 0
6, 43199, Note_on_c, 3, 75, 102
6, 43200, Lyric_t, "sen"
6, 43315, Note_on_c, 3, 75, 0
6, 43320, Lyric_t, "ses"
6, 43321, Note_on_c, 3, 75, 100
6, 43436, Note_on_c, 3, 75, 0
6, 43440, Note_on_c, 3, 74, 103
6, 43440, Lyric_t, "tell"
6, 43516, Note_on_c, 3, 74, 0
6, 43520, Lyric_t, "me"
6, 43523, Note_on_c, 3, 72, 99
6, 43595, Note_on_c, 3, 72, 0
6, 43600, Lyric_t, "to"
6, 43601, Note_on_c, 3, 70, 103
6, 43676, Note_on_c, 3, 70, 0
6, 43677, Note_on_c, 3, 72, 101
6, 43680, Lyric_t, "stop."
6, 43736, Note_on_c, 3, 72, 0
6, 43740, Lyric_t, "I"
6, 43743, Note_on_c, 3, 72, 102
6, 43795, Note_on_c, 3, 72, 0
6, 43799, Note_on_c, 3, 72, 98
6, 43800, Lyric_t, "want"
6, 43855, Note_on_c, 3, 72, 0
6, 43860, Lyric_t, "to"
6, 43861, Note_on_c, 3, 72, 98
6, 43915, Note_on_c, 3, 72, 0
6, 43918, Note_on_c, 3, 72, 103
6, 43920, Lyric_t, "kiss"
6, 43975, Note_on_c, 3, 72, 0
6, 43978, Note_on_c, 3, 69, 100
6, 43980, Lyric_t, "you"
6, 44036, Note_on_c, 3, 69, 0
6, 44037, Note_on_c, 3, 69, 100
6, 44040, Lyric_t, "but"
6, 44096, Note_on_c, 3, 69, 0
6, 44100, Lyric_t, "I"
6, 44101, Note_on_c, 3, 71, 101
6, 44156, Note_on_c, 3, 71, 0
6, 44160, Note_on_c, 3, 72, 98
6, 44160, Lyric_t, "want"
6, 44216, Note_on_c, 3, 72, 0
6, 44220, Note_on_c, 3, 72, 103
6, 44220, Lyric_t, "it"
6, 44276, Note_on_c, 3, 72, 0
6, 44278, Note_on_c, 3, 72, 100
6, 44280, Lyric_t, "too"
6, 44328, Pitch_bend_c, 3, 8192
6, 44329, Pitch_bend_c, 3, 9088
6, 44330, Pitch_bend_c, 3, 9856
6, 44331, Pitch_bend_c, 3, 10752
6, 44332, Pitch_bend_c, 3, 11520
6, 44334, Pitch_bend_c, 3, 12288
6, 44335, Pitch_bend_c, 3, 13184
6, 44336, Pitch_bend_c, 3, 13952
6, 44337, Pitch_bend_c, 3, 14848
6, 44338, Pitch_bend_c, 3, 15616
6, 44340, Pitch_bend_c, 3, 16383
6, 44395, Note_on_c, 3, 72, 0
6, 44398, Pitch_bend_c, 3, 8192
6, 44400, Note_on_c, 3, 71, 100
6, 44400, Lyric_t, "much."
6, 44456, Note_on_c, 3, 71, 0
6, 44700, Lyric_t, "I"
6, 44701, Note_on_c, 3, 77, 101
6, 44756, Note_on_c, 3, 77, 0
6, 44758, Note_on_c, 3, 77, 101
6, 44760, Lyric_t, "want"
6, 44816, Note_on_c, 3, 77, 0
6, 44818, Note_on_c, 3, 77, 98
6, 44820, Lyric_t, "to"
6, 44876, Note_on_c, 3, 77, 0
6, 44879, Note_on_c, 3, 77, 103
6, 44880, Lyric_t, "taste"
6, 44936, Note_on_c, 3, 77, 0
6, 44940, Lyric_t, "you"
6, 44943, Note_on_c, 3, 74, 100
6, 44996, Note_on_c, 3, 74, 0
6, 44997, Note_on_c, 3, 74, 102
6, 45000, Lyric_t, "but"
6, 45056, Note_on_c, 3, 74, 0
6, 45058, Note_on_c, 3, 76, 98
6, 45060, Lyric_t, "your"
6, 45116, Note_on_c, 3, 76, 0
6, 45120, Lyric_t, "lips"
6, 45123, Note_on_c, 3, 77, 98
6, 45176, Note_on_c, 3, 77, 0
6, 45240, Lyric_t, "are"
6, 45243, Note_on_c, 3, 77, 100
6, 45356, Note_on_c, 3, 77, 0
6, 45360, Lyric_t, "ve"
6, 45361, Note_on_c, 3, 76, 103
6, 45416, Note_on_c, 3, 76, 0
6, 45419, Note_on_c, 3, 74, 98
6, 45420, Lyric_t, "no"
6, 45476, Note_on_c, 3, 74, 0
6, 45480, Lyric_t, "mous"
6, 45482, Note_on_c, 3, 76, 98
6, 45596, Note_on_c, 3, 76, 0
6, 45597, Note_on_c, 3, 76, 102
6, 45600, Lyric_t, "Poi"
6, 45652, Pitch_bend_c, 3, 8192
6, 45654, Pitch_bend_c, 3, 6656
6, 45655, Pitch_bend_c, 3, 5120
6, 45656, Pitch_bend_c, 3, 3584
6, 45657, Pitch_bend_c, 3, 2048
6, 45658, Pitch_bend_c, 3, 512
6, 45660, Pitch_bend_c, 3, 0
6, 45716, Note_on_c, 3, 76, 0
6, 45718, Note_on_c, 3, 74, 102
6, 45720, Lyric_t, "son."
6, 45724, Pitch_bend_c, 3, 8192
6, 45836, Note_on_c, 3, 74, 0
6, 46440, Lyric_t, "You're"
6, 46443, Note_on_c, 3, 76, 100
6, 46556, Note_on_c, 3, 76, 0
6, 46557, Note_on_c, 3, 77, 102
6, 46560, Lyric_t, "poi"
6, 46646, Note_on_c, 3, 77, 0
6, 46679, Note_on_c, 3, 77, 98
6, 46680, Lyric_t, "son"
6, 46766, Note_on_c, 3, 77, 0
6, 46800, Lyric_t, "run"
6, 46803, Note_on_c, 3, 77, 98
6, 46856, Note_on_c, 3, 77, 0
6, 46857, Note_on_c, 3, 77, 102
6, 46860, Lyric_t, "ning"
6, 46916, Note_on_c, 3, 77, 0
6, 46980, Note_on_c, 3, 77, 101
6, 46980, Lyric_t, "through"
6, 47036, Note_on_c, 3, 77, 0
6, 47099, Note_on_c, 3, 79, 100
6, 47100, Lyric_t, "my"
6, 47156, Note_on_c, 3, 79, 0
6, 47220, Lyric_t, "veins."
6, 47223, Note_on_c, 3, 76, 102
6, 47306, Note_on_c, 3, 76, 0
6, 47400, Note_on_c, 3, 76, 101
6, 47400, Lyric_t, "You're"
6, 47516, Note_on_c, 3, 76, 0
6, 47520, Lyric_t, "poi"
6, 47521, Note_on_c, 3, 76, 101
6, 47572, Pitch_bend_c, 3, 8192
6, 47574, Pitch_bend_c, 3, 6656
6, 47575, Pitch_bend_c, 3, 5120
6, 47576, Pitch_bend_c, 3, 3584
6, 47577, Pitch_bend_c, 3, 2048
6, 47578, Pitch_bend_c, 3, 512
6, 47580, Pitch_bend_c, 3, 0
6, 47636, Note_on_c, 3, 76, 0
6, 47640, Lyric_t, "son."
6, 47641, Note_on_c, 3, 74, 100
6, 47644, Pitch_bend_c, 3, 8192
6, 47995, Note_on_c, 3, 74, 0
6, 48480, Note_on_c, 3, 77, 103
6, 48480, Lyric_t, "I"
6, 48566, Note_on_c, 3, 77, 0
6, 48600, Lyric_t, "don't"
6, 48603, Note_on_c, 3, 77, 102
6, 48686, Note_on_c, 3, 77, 0
6, 48720, Note_on_c, 3, 77, 100
6, 48720, Lyric_t, "wan"
6, 48776, Note_on_c, 3, 77, 0
6, 48777, Note_on_c, 3, 77, 98
6, 48780, Lyric_t, "na"
6, 48836, Note_on_c, 3, 77, 0
6, 48900, Lyric_t, "break"
6, 48901, Note_on_c, 3, 77, 102
6, 48956, Note_on_c, 3, 77, 0
6, 49020, Lyric_t, "these"
6, 49022, Note_on_c, 3, 77, 99
6, 49076, Note_on_c, 3, 77, 0
6, 49139, Note_on_c, 3, 76, 98
6, 49140, Lyric_t, "chains."
6, 49226, Note_on_c, 3, 76, 0
6, 49437, Note_on_c, 3, 76, 100
6, 49440, Lyric_t, "Poi"
6, 49486, Pitch_bend_c, 3, 8192
6, 49488, Pitch_bend_c, 3, 7424
6, 49489, Pitch_bend_c, 3, 6656
6, 49490, Pitch_bend_c, 3, 5888
6, 49491, Pitch_bend_c, 3, 5120
6, 49492, Pitch_bend_c, 3, 4352
6, 49494, Pitch_bend_c, 3, 3584
6, 49495, Pitch_bend_c, 3, 2816
6, 49496, Pitch_bend_c, 3, 2048
6, 49497, Pitch_bend_c, 3, 1280
6, 49498, Pitch_bend_c, 3, 512
6, 49500, Pitch_bend_c, 3, 0
6, 49501, Pitch_bend_c, 3, 0
6, 49556, Note_on_c, 3, 76, 0
6, 49560, Lyric_t, "son!"
6, 49562, Note_on_c, 3, 76, 100
6, 49800, Pitch_bend_c, 3, 128
6, 49830, Pitch_bend_c, 3, 1152
6, 49837, Pitch_bend_c, 3, 1920
6, 49846, Pitch_bend_c, 3, 2944
6, 49856, Pitch_bend_c, 3, 3712
6, 49863, Pitch_bend_c, 3, 4608
6, 49864, Pitch_bend_c, 3, 4864
6, 49867, Pitch_bend_c, 3, 5632
6, 49876, Pitch_bend_c, 3, 6400
6, 49878, Pitch_bend_c, 3, 6656
6, 49879, Pitch_bend_c, 3, 6784
6, 49880, Pitch_bend_c, 3, 7040
6, 49882, Pitch_bend_c, 3, 7296
6, 49885, Pitch_bend_c, 3, 7552
6, 49890, Pitch_bend_c, 3, 8064
6, 49891, Pitch_bend_c, 3, 8192
6, 49892, Pitch_bend_c, 3, 8320
6, 49893, Pitch_bend_c, 3, 8576
6, 49896, Pitch_bend_c, 3, 8832
6, 49897, Pitch_bend_c, 3, 8960
6, 49898, Pitch_bend_c, 3, 9088
6, 49900, Pitch_bend_c, 3, 9344
6, 49903, Pitch_bend_c, 3, 9472
6, 49904, Pitch_bend_c, 3, 9600
6, 49905, Pitch_bend_c, 3, 9856
6, 49906, Pitch_bend_c, 3, 9984
6, 49908, Pitch_bend_c, 3, 10240
6, 49909, Pitch_bend_c, 3, 10368
6, 49910, Pitch_bend_c, 3, 10624
6, 49911, Pitch_bend_c, 3, 10752
6, 49912, Pitch_bend_c, 3, 11136
6, 49914, Pitch_bend_c, 3, 11392
6, 49915, Pitch_bend_c, 3, 11776
6, 49916, Pitch_bend_c, 3, 11904
6, 49917, Pitch_bend_c, 3, 12160
6, 49918, Pitch_bend_c, 3, 12288
6, 50276, Note_on_c, 3, 76, 0
6, 50401, Pitch_bend_c, 3, 8192
6, 50459, Note_on_c, 3, 77, 98
6, 50460, Lyric_t, "I"
6, 50516, Note_on_c, 3, 77, 0
6, 50520, Note_on_c, 3, 77, 102
6, 50520, Lyric_t, "wan"
6, 50576, Note_on_c, 3, 77, 0
6, 50577, Note_on_c, 3, 77, 98
6, 50580, Lyric_t, "na"
6, 50636, Note_on_c, 3, 77, 0
6, 50638, Note_on_c, 3, 77, 102
6, 50640, Lyric_t, "love"
6, 50696, Note_on_c, 3, 77, 0
6, 50699, Note_on_c, 3, 77, 99
6, 50700, Lyric_t, "you"
6, 50756, Note_on_c, 3, 77, 0
6, 50758, Note_on_c, 3, 74, 103
6, 50760, Lyric_t, "but"
6, 50816, Note_on_c, 3, 74, 0
6, 50819, Note_on_c, 3, 76, 100
6, 50820, Lyric_t, "I"
6, 50876, Note_on_c, 3, 76, 0
6, 50878, Note_on_c, 3, 77, 99
6, 50880, Lyric_t, "bet"
6, 50936, Note_on_c, 3, 77, 0
6, 50940, Lyric_t, "ter"
6, 50943, Note_on_c, 3, 77, 100
6, 50996, Note_on_c, 3, 77, 0
6, 51000, Lyric_t, "not"
6, 51002, Note_on_c, 3, 77, 103
6, 51046, Pitch_bend_c, 3, 8192
6, 51048, Pitch_bend_c, 3, 7936
6, 51049, Pitch_bend_c, 3, 7552
6, 51050, Pitch_bend_c, 3, 7168
6, 51051, Pitch_bend_c, 3, 6784
6, 51052, Pitch_bend_c, 3, 6400
6, 51054, Pitch_bend_c, 3, 6144
6, 51055, Pitch_bend_c, 3, 5760
6, 51056, Pitch_bend_c, 3, 5376
6, 51057, Pitch_bend_c, 3, 4992
6, 51058, Pitch_bend_c, 3, 4608
6, 51060, Pitch_bend_c, 3, 4224
6, 51116, Note_on_c, 3, 77, 0
6, 51118, Note_on_c, 3, 76, 103
6, 51120, Pitch_bend_c, 3, 8192
6, 51120, Lyric_t, "touch."
6, 51206, Note_on_c, 3, 76, 0
6, 51240, Lyric_t, "Don't"
6, 51241, Note_on_c, 3, 76, 101
6, 51292, Pitch_bend_c, 3, 8192
6, 51294, Pitch_bend_c, 3, 8960
6, 51295, Pitch_bend_c, 3, 9600
6, 51296, Pitch_bend_c, 3, 10240
6, 51297, Pitch_bend_c, 3, 11008
6, 51298, Pitch_bend_c, 3, 11648
6, 51300, Pitch_bend_c, 3, 12288
6, 51355, Note_on_c, 3, 76, 0
6, 51360, Pitch_bend_c, 3, 8192
6, 51360, Lyric_t, "touch!"
6, 51361, Note_on_c, 3, 77, 98
6, 51386, Note_on_c, 3, 77, 0
6, 51420, Lyric_t, "I"
6, 51422, Note_on_c, 3, 77, 98
6, 51476, Note_on_c, 3, 77, 0
6, 51480, Lyric_t, "want"
6, 51483, Note_on_c, 3, 77, 101
6, 51536, Note_on_c, 3, 77, 0
6, 51540, Lyric_t, "to"
6, 51542, Note_on_c, 3, 77, 103
6, 51596, Note_on_c, 3, 77, 0
6, 51600, Lyric_t, "hold"
6, 51601, Note_on_c, 3, 77, 100
6, 51656, Note_on_c, 3, 77, 0
6, 51660, Note_on_c, 3, 77, 103
6, 51660, Lyric_t, "you"
6, 51716, Note_on_c, 3, 77, 0
6, 51720, Lyric_t, "but"
6, 51722, Note_on_c, 3, 74, 99
6, 51776, Note_on_c, 3, 74, 0
6, 51778, Note_on_c, 3, 76, 99
6, 51780, Lyric_t, "my"
6, 51836, Note_on_c, 3, 76, 0
6, 51840, Lyric_t, "sen"
6, 51843, Note_on_c, 3, 77, 103
6, 51955, Note_on_c, 3, 77, 0
6, 51958, Note_on_c, 3, 77, 101
6, 51960, Lyric_t, "ses"
6, 52076, Note_on_c, 3, 77, 0
6, 52080, Lyric_t, "tell"
6, 52082, Note_on_c, 3, 76, 102
6, 52156, Note_on_c, 3, 76, 0
6, 52159, Note_on_c, 3, 74, 98
6, 52160, Lyric_t, "me"
6, 52235, Note_on_c, 3, 74, 0
6, 52239, Note_on_c, 3, 76, 102
6, 52240, Lyric_t, "to"
6, 52316, Note_on_c, 3, 76, 0
6, 52318, Note_on_c, 3, 77, 99
6, 52320, Lyric_t, "stop."
6, 52376, Note_on_c, 3, 77, 0
6, 52379, Note_on_c, 3, 77, 102
6, 52380, Lyric_t, "I"
6, 52435, Note_on_c, 3, 77, 0
6, 52437, Note_on_c, 3, 77, 98
6, 52440, Lyric_t, "want"
6, 52495, Note_on_c, 3, 77, 0
6, 52500, Lyric_t, "to"
6, 52501, Note_on_c, 3, 77, 102
6, 52555, Note_on_c, 3, 77, 0
6, 52559, Note_on_c, 3, 77, 101
6, 52560, Lyric_t, "kiss"
6, 52615, Note_on_c, 3, 77, 0
6, 52620, Lyric_t, "you"
6, 52623, Note_on_c, 3, 77, 101
6, 52676, Note_on_c, 3, 77, 0
6, 52677, Note_on_c, 3, 74, 103
6, 52680, Lyric_t, "but"
6, 52736, Note_on_c, 3, 74, 0
6, 52739, Note_on_c, 3, 76, 98
6, 52740, Lyric_t, "I"
6, 52796, Note_on_c, 3, 76, 0
6, 52798, Note_on_c, 3, 77, 100
6, 52800, Lyric_t, "want"
6, 52856, Note_on_c, 3, 77, 0
6, 52858, Note_on_c, 3, 77, 98
6, 52860, Lyric_t, "it"
6, 52916, Note_on_c, 3, 77, 0
6, 52920, Lyric_t, "too"
6, 52922, Note_on_c, 3, 77, 102
6, 52968, Pitch_bend_c, 3, 8192
6, 52969, Pitch_bend_c, 3, 9088
6, 52970, Pitch_bend_c, 3, 9856
6, 52971, Pitch_bend_c, 3, 10752
6, 52972, Pitch_bend_c, 3, 11520
6, 52974, Pitch_bend_c, 3, 12288
6, 52975, Pitch_bend_c, 3, 13184
6, 52976, Pitch_bend_c, 3, 13952
6, 52977, Pitch_bend_c, 3, 14848
6, 52978, Pitch_bend_c, 3, 15616
6, 52980, Pitch_bend_c, 3, 16383
6, 53035, Note_on_c, 3, 77, 0
6, 53038, Pitch_bend_c, 3, 8192
6, 53040, Lyric_t, "much."
6, 53041, Note_on_c, 3, 76, 99
6, 53096, Note_on_c, 3, 76, 0
6, 53160, Note_on_c, 3, 76, 102
6, 53160, Lyric_t, "Too"
6, 53212, Pitch_bend_c, 3, 8192
6, 53214, Pitch_bend_c, 3, 8960
6, 53215, Pitch_bend_c, 3, 9600
6, 53216, Pitch_bend_c, 3, 10240
6, 53217, Pitch_bend_c, 3, 11008
6, 53218, Pitch_bend_c, 3, 11648
6, 53220, Pitch_bend_c, 3, 12288
6, 53277, Note_on_c, 3, 76, 0
6, 53280, Pitch_bend_c, 3, 8192
6, 53280, Lyric_t, "much."
6, 53283, Note_on_c, 3, 77, 101
6, 53306, Note_on_c, 3, 77, 0
6, 53340, Lyric_t, "I"
6, 53341, Note_on_c, 3, 77, 98
6, 53396, Note_on_c, 3, 77, 0
6, 53399, Note_on_c, 3, 77, 102
6, 53400, Lyric_t, "want"
6, 53456, Note_on_c, 3, 77, 0
6, 53460, Note_on_c, 3, 77, 100
6, 53460, Lyric_t, "to"
6, 53516, Note_on_c, 3, 77, 0
6, 53520, Note_on_c, 3, 77, 102
6, 53520, Lyric_t, "taste"
6, 53576, Note_on_c, 3, 77, 0
6, 53578, Note_on_c, 3, 77, 101
6, 53580, Lyric_t, "you"
6, 53636, Note_on_c, 3, 77, 0
6, 53640, Lyric_t, "but"
6, 53641, Note_on_c, 3, 74, 101
6, 53696, Note_on_c, 3, 74, 0
6, 53698, Note_on_c, 3, 76, 100
6, 53700, Lyric_t, "your"
6, 53756, Note_on_c, 3, 76, 0
6, 53760, Lyric_t, "lips"
6, 53761, Note_on_c, 3, 77, 101
6, 53816, Note_on_c, 3, 77, 0
6, 53880, Lyric_t, "are"
6, 53882, Note_on_c, 3, 77, 99
6, 53996, Note_on_c, 3, 77, 0
6, 54000, Lyric_t, "ve"
6, 54003, Note_on_c, 3, 76, 103
6, 54056, Note_on_c, 3, 76, 0
6, 54060, Note_on_c, 3, 74, 101
6, 54060, Lyric_t, "no"
6, 54116, Note_on_c, 3, 74, 0
6, 54117, Note_on_c, 3, 76, 102
6, 54120, Lyric_t, "mous"
6, 54236, Note_on_c, 3, 76, 0
6, 54240, Lyric_t, "Poi"
6, 54243, Note_on_c, 3, 76, 103
6, 54292, Pitch_bend_c, 3, 8192
6, 54294, Pitch_bend_c, 3, 6656
6, 54295, Pitch_bend_c, 3, 5120
6, 54296, Pitch_bend_c, 3, 3584
6, 54297, Pitch_bend_c, 3, 2048
6, 54298, Pitch_bend_c, 3, 512
6, 54300, Pitch_bend_c, 3, 0
6, 54356, Note_on_c, 3, 76, 0
6, 54359, Note_on_c, 3, 74, 99
6, 54360, Lyric_t, "son."
6, 54364, Pitch_bend_c, 3, 8192
6, 54476, Note_on_c, 3, 74, 0
6, 54480, Note_on_c, 3, 77, 101
6, 54480, Lyric_t, "Yea"
6, 54896, Note_on_c, 3, 77, 0
6, 54900, Lyric_t, "h!"
6, 54901, Note_on_c, 3, 76, 98
6, 55015, Note_on_c, 3, 76, 0
6, 55140, Lyric_t, "well"
6, 55143, Note_on_c, 3, 76, 103
6, 55195, Note_on_c, 3, 76, 0
6, 55198, Note_on_c, 3, 77, 98
6, 55200, Lyric_t, "I"
6, 55286, Note_on_c, 3, 77, 0
6, 55320, Lyric_t, "don't"
6, 55321, Note_on_c, 3, 77, 98
6, 55406, Note_on_c, 3, 77, 0
6, 55440, Lyric_t, "wan"
6, 55442, Note_on_c, 3, 77, 99
6, 55496, Note_on_c, 3, 77, 0
6, 55500, Note_on_c, 3, 77, 99
6, 55500, Lyric_t, "na"
6, 55556, Note_on_c, 3, 77, 0
6, 55620, Lyric_t, "break"
6, 55623, Note_on_c, 3, 77, 100
6, 55676, Note_on_c, 3, 77, 0
6, 55738, Note_on_c, 3, 77, 101
6, 55740, Lyric_t, "these"
6, 55796, Note_on_c, 3, 77, 0
6, 55857, Note_on_c, 3, 76, 102
6, 55860, Lyric_t, "chains."
6, 55946, Note_on_c, 3, 76, 0
6, 56160, Note_on_c, 3, 76, 99
6, 56160, Lyric_t, "poi"
6, 56212, Pitch_bend_c, 3, 8192
6, 56214, Pitch_bend_c, 3, 6656
6, 56215, Pitch_bend_c, 3, 5120
6, 56216, Pitch_bend_c, 3, 3584
6, 56217, Pitch_bend_c, 3, 2048
6, 56218, Pitch_bend_c, 3, 512
6, 56220, Pitch_bend_c, 3, 0
6, 56276, Note_on_c, 3, 76, 0
6, 56279, Note_on_c, 3, 74, 103
6, 56280, Pitch_bend_c, 3, 8192
6, 56280, Lyric_t, "son."
6, 56625, Pitch_bend_c, 3, 8320
6, 56626, Pitch_bend_c, 3, 7680
6, 56628, Pitch_bend_c, 3, 7040
6, 56629, Pitch_bend_c, 3, 6272
6, 56630, Pitch_bend_c, 3, 5632
6, 56631, Pitch_bend_c, 3, 4992
6, 56632, Pitch_bend_c, 3, 4224
6, 56634, Pitch_bend_c, 3, 3584
6, 56635, Pitch_bend_c, 3, 2944
6, 56636, Pitch_bend_c, 3, 2176
6, 56637, Pitch_bend_c, 3, 1536
6, 56638, Pitch_bend_c, 3, 896
6, 56640, Pitch_bend_c, 3, 128
6, 56875, Note_on_c, 3, 74, 0
6, 56880, Lyric_t, "No!"
6, 56881, Pitch_bend_c, 3, 8192
6, 56883, Note_on_c, 3, 72, 100
6, 56996, Note_on_c, 3, 72, 0
6, 57238, Note_on_c, 3, 77, 103
6, 57240, Lyric_t, "Run"
6, 57295, Note_on_c, 3, 77, 0
6, 57297, Note_on_c, 3, 74, 102
6, 57300, Lyric_t, "ning"
6, 57356, Note_on_c, 3, 74, 0
6, 57360, Note_on_c, 3, 77, 100
6, 57360, Lyric_t, "deep"
6, 57475, Note_on_c, 3, 77, 0
6, 57480, Lyric_t, "in"
6, 57483, Note_on_c, 3, 74, 100
6, 57536, Note_on_c, 3, 74, 0
6, 57539, Note_on_c, 3, 77, 99
6, 57540, Lyric_t, "side"
6, 57655, Note_on_c, 3, 77, 0
6, 57659, Note_on_c, 3, 77, 100
6, 57660, Lyric_t, "my"
6, 57776, Note_on_c, 3, 77, 0
6, 57780, Pitch_bend_c, 3, 16383
6, 57780, Note_on_c, 3, 74, 103
6, 57780, Lyric_t, "pain."
6, 57831, Pitch_bend_c, 3, 16383
6, 57832, Pitch_bend_c, 3, 15104
6, 57834, Pitch_bend_c, 3, 13952
6, 57835, Pitch_bend_c, 3, 12800
6, 57836, Pitch_bend_c, 3, 11648
6, 57837, Pitch_bend_c, 3, 10496
6, 57838, Pitch_bend_c, 3, 9344
6, 57840, Pitch_bend_c, 3, 8192
6, 57891, Pitch_bend_c, 3, 8192
6, 57892, Pitch_bend_c, 3, 6912
6, 57894, Pitch_bend_c, 3, 5632
6, 57895, Pitch_bend_c, 3, 4352
6, 57896, Pitch_bend_c, 3, 3072
6, 57897, Pitch_bend_c, 3, 1792
6, 57898, Pitch_bend_c, 3, 512
6, 57900, Pitch_bend_c, 3, 0
6, 57955, Note_on_c, 3, 74, 0
6, 57968, Pitch_bend_c, 3, 8192
6, 58198, Note_on_c, 3, 77, 100
6, 58200, Lyric_t, "Burn"
6, 58255, Note_on_c, 3, 77, 0
6, 58258, Note_on_c, 3, 74, 98
6, 58260, Lyric_t, "ning"
6, 58316, Note_on_c, 3, 74, 0
6, 58319, Note_on_c, 3, 77, 101
6, 58320, Lyric_t, "deep"
6, 58435, Note_on_c, 3, 77, 0
6, 58439, Note_on_c, 3, 74, 102
6, 58440, Lyric_t, "in"
6, 58496, Note_on_c, 3, 74, 0
6, 58500, Lyric_t, "side"
6, 58501, Note_on_c, 3, 77, 103
6, 58615, Note_on_c, 3, 77, 0
6, 58619, Note_on_c, 3, 77, 100
6, 58620, Lyric_t, "my"
6, 58670, Pitch_bend_c, 3, 8192
6, 58671, Pitch_bend_c, 3, 9216
6, 58672, Pitch_bend_c, 3, 10240
6, 58674, Pitch_bend_c, 3, 11264
6, 58675, Pitch_bend_c, 3, 12288
6, 58676, Pitch_bend_c, 3, 13312
6, 58677, Pitch_bend_c, 3, 14336
6, 58678, Pitch_bend_c, 3, 15360
6, 58680, Pitch_bend_c, 3, 16383
6, 58736, Note_on_c, 3, 77, 0
6, 58740, Lyric_t, "pain."
6, 58741, Note_on_c, 3, 74, 98
6, 58784, Pitch_bend_c, 3, 16383
6, 58785, Pitch_bend_c, 3, 15744
6, 58786, Pitch_bend_c, 3, 15104
6, 58788, Pitch_bend_c, 3, 14464
6, 58789, Pitch_bend_c, 3, 13824
6, 58790, Pitch_bend_c, 3, 13184
6, 58791, Pitch_bend_c, 3, 12544
6, 58792, Pitch_bend_c, 3, 11904
6, 58794, Pitch_bend_c, 3, 11264
6, 58795, Pitch_bend_c, 3, 10624
6, 58796, Pitch_bend_c, 3, 9984
6, 58797, Pitch_bend_c, 3, 9344
6, 58798, Pitch_bend_c, 3, 8704
6, 58800, Pitch_bend_c, 3, 8192
6, 58852, Pitch_bend_c, 3, 8192
6, 58854, Pitch_bend_c, 3, 6656
6, 58855, Pitch_bend_c, 3, 5120
6, 58856, Pitch_bend_c, 3, 3584
6, 58857, Pitch_bend_c, 3, 2048
6, 58858, Pitch_bend_c, 3, 512
6, 58860, Pitch_bend_c, 3, 0
6, 58915, Note_on_c, 3, 74, 0
6, 58932, Pitch_bend_c, 3, 8192
6, 58980, Lyric_t, "It's"
6, 58983, Note_on_c, 3, 76, 101
6, 59036, Note_on_c, 3, 76, 0
6, 59037, Note_on_c, 3, 76, 100
6, 59040, Pitch_bend_c, 3, 12288
6, 59040, Lyric_t, "poi"
6, 59080, Pitch_bend_c, 3, 12288
6, 59082, Pitch_bend_c, 3, 11648
6, 59083, Pitch_bend_c, 3, 10880
6, 59084, Pitch_bend_c, 3, 10112
6, 59085, Pitch_bend_c, 3, 9344
6, 59086, Pitch_bend_c, 3, 8576
6, 59088, Pitch_bend_c, 3, 7808
6, 59089, Pitch_bend_c, 3, 7040
6, 59090, Pitch_bend_c, 3, 6272
6, 59091, Pitch_bend_c, 3, 5504
6, 59092, Pitch_bend_c, 3, 4736
6, 59094, Pitch_bend_c, 3, 3968
6, 59095, Pitch_bend_c, 3, 3200
6, 59096, Pitch_bend_c, 3, 2432
6, 59097, Pitch_bend_c, 3, 1664
6, 59098, Pitch_bend_c, 3, 896
6, 59100, Pitch_bend_c, 3, 128
6, 59156, Note_on_c, 3, 76, 0
6, 59158, Note_on_c, 3, 74, 103
6, 59160, Pitch_bend_c, 3, 8192
6, 59160, Lyric_t, "son."
6, 59505, Pitch_bend_c, 3, 8320
6, 59506, Pitch_bend_c, 3, 7680
6, 59508, Pitch_bend_c, 3, 7040
6, 59509, Pitch_bend_c, 3, 6272
6, 59510, Pitch_bend_c, 3, 5632
6, 59511, Pitch_bend_c, 3, 4992
6, 59512, Pitch_bend_c, 3, 4224
6, 59514, Pitch_bend_c, 3, 3584
6, 59515, Pitch_bend_c, 3, 2944
6, 59516, Pitch_bend_c, 3, 2176
6, 59517, Pitch_bend_c, 3, 1536
6, 59518, Pitch_bend_c, 3, 896
6, 59520, Pitch_bend_c, 3, 128
6, 59636, Note_on_c, 3, 74, 0
6, 59728, Pitch_bend_c, 3, 8192
6, 60000, Control_c, 3, 11, 127
6, 60000, Lyric_t, "I"
6, 60003, Note_on_c, 3, 77, 101
6, 60031, Control_c, 3, 11, 126
6, 60062, Control_c, 3, 11, 125
6, 60086, Note_on_c, 3, 77, 0
6, 60093, Control_c, 3, 11, 124
6, 60118, Note_on_c, 3, 77, 103
6, 60120, Lyric_t, "don't"
6, 60124, Control_c, 3, 11, 123
6, 60155, Control_c, 3, 11, 122
6, 60187, Control_c, 3, 11, 121
6, 60206, Note_on_c, 3, 77, 0
6, 60218, Control_c, 3, 11, 120
6, 60240, Lyric_t, "wan"
6, 60241, Note_on_c, 3, 77, 100
6, 60249, Control_c, 3, 11, 119
6, 60280, Control_c, 3, 11, 118
6, 60296, Note_on_c, 3, 77, 0
6, 60297, Note_on_c, 3, 77, 103
6, 60300, Lyric_t, "na"
6, 60311, Control_c, 3, 11, 117
6, 60342, Control_c, 3, 11, 116
6, 60356, Note_on_c, 3, 77, 0
6, 60374, Control_c, 3, 11, 115
6, 60405, Control_c, 3, 11, 114
6, 60420, Lyric_t, "break"
6, 60421, Note_on_c, 3, 77, 103
6, 60436, Control_c, 3, 11, 113
6, 60467, Control_c, 3, 11, 112
6, 60476, Note_on_c, 3, 77, 0
6, 60498, Control_c, 3, 11, 111
6, 60530, Control_c, 3, 11, 110
6, 60538, Note_on_c, 3, 77, 102
6, 60540, Lyric_t, "these"
6, 60561, Control_c, 3, 11, 109
6, 60561, Pitch_bend_c, 3, 8192
6, 60571, Pitch_bend_c, 3, 8448
6, 60573, Pitch_bend_c, 3, 8704
6, 60576, Pitch_bend_c, 3, 9472
6, 60577, Pitch_bend_c, 3, 10240
6, 60579, Pitch_bend_c, 3, 10752
6, 60580, Pitch_bend_c, 3, 11008
6, 60582, Pitch_bend_c, 3, 11264
6, 60583, Pitch_bend_c, 3, 11520
6, 60584, Pitch_bend_c, 3, 11776
6, 60586, Pitch_bend_c, 3, 11904
6, 60588, Pitch_bend_c, 3, 12160
6, 60591, Pitch_bend_c, 3, 12928
6, 60592, Control_c, 3, 11, 108
6, 60592, Pitch_bend_c, 3, 13184
6, 60594, Pitch_bend_c, 3, 13440
6, 60595, Pitch_bend_c, 3, 13696
6, 60596, Pitch_bend_c, 3, 14592
6, 60597, Pitch_bend_c, 3, 14976
6, 60598, Pitch_bend_c, 3, 15360
6, 60600, Pitch_bend_c, 3, 16383
6, 60623, Control_c, 3, 11, 107
6, 60654, Control_c, 3, 11, 106
6, 60655, Note_on_c, 3, 77, 0
6, 60657, Note_on_c, 3, 74, 99
6, 60660, Pitch_bend_c, 3, 16383
6, 60660, Lyric_t, "chains."
6, 60685, Control_c, 3, 11, 105
6, 60717, Control_c, 3, 11, 104
6, 60748, Control_c, 3, 11, 103
6, 60765, Pitch_bend_c, 3, 16383
6, 60766, Pitch_bend_c, 3, 15616
6, 60768, Pitch_bend_c, 3, 14976
6, 60769, Pitch_bend_c, 3, 14336
6, 60770, Pitch_bend_c, 3, 13568
6, 60771, Pitch_bend_c, 3, 12928
6, 60772, Pitch_bend_c, 3, 12288
6, 60774, Pitch_bend_c, 3, 11520
6, 60775, Pitch_bend_c, 3, 10880
6, 60776, Pitch_bend_c, 3, 10240
6, 60777, Pitch_bend_c, 3, 9472
6, 60778, Pitch_bend_c, 3, 8832
6, 60779, Control_c, 3, 11, 102
6, 60780, Pitch_bend_c, 3, 8192
6, 60810, Control_c, 3, 11, 101
6, 60826, Pitch_bend_c, 3, 8192
6, 60828, Pitch_bend_c, 3, 7424
6, 60829, Pitch_bend_c, 3, 6656
6, 60830, Pitch_bend_c, 3, 6016
6, 60831, Pitch_bend_c, 3, 5248
6, 60832, Pitch_bend_c, 3, 4608
6, 60834, Pitch_bend_c, 3, 3840
6, 60835, Pitch_bend_c, 3, 3072
6, 60836, Pitch_bend_c, 3, 2432
6, 60837, Pitch_bend_c, 3, 1664
6, 60838, Pitch_bend_c, 3, 1024
6, 60840, Pitch_bend_c, 3, 256
6, 60841, Control_c, 3, 11, 100
6, 60841, Pitch_bend_c, 3, 0
6, 60873, Control_c, 3, 11, 99
6, 60891, Pitch_bend_c, 3, 128
6, 60892, Pitch_bend_c, 3, 1280
6, 60894, Pitch_bend_c, 3, 2432
6, 60895, Pitch_bend_c, 3, 3584
6, 60896, Pitch_bend_c, 3, 4736
6, 60897, Pitch_bend_c, 3, 5888
6, 60898, Pitch_bend_c, 3, 7040
6, 60900, Pitch_bend_c, 3, 8192
6, 60904, Control_c, 3, 11, 98
6, 60935, Control_c, 3, 11, 97
6, 60966, Control_c, 3, 11, 96
6, 60997, Control_c, 3, 11, 95
6, 61028, Control_c, 3, 11, 94
6, 61060, Control_c, 3, 11, 93
6, 61091, Control_c, 3, 11, 92
6, 61122, Control_c, 3, 11, 91
6, 61153, Control_c, 3, 11, 90
6, 61155, Pitch_bend_c, 3, 8192
6, 61156, Pitch_bend_c, 3, 7936
6, 61158, Pitch_bend_c, 3, 7680
6, 61159, Pitch_bend_c, 3, 7424
6, 61160, Pitch_bend_c, 3, 7040
6, 61161, Pitch_bend_c, 3, 6784
6, 61162, Pitch_bend_c, 3, 6528
6, 61164, Pitch_bend_c, 3, 6272
6, 61165, Pitch_bend_c, 3, 5888
6, 61166, Pitch_bend_c, 3, 5632
6, 61167, Pitch_bend_c, 3, 5376
6, 61168, Pitch_bend_c, 3, 5120
6, 61170, Pitch_bend_c, 3, 4736
6, 61171, Pitch_bend_c, 3, 4480
6, 61172, Pitch_bend_c, 3, 4224
6, 61173, Pitch_bend_c, 3, 3968
6, 61174, Pitch_bend_c, 3, 3584
6, 61176, Pitch_bend_c, 3, 3328
6, 61177, Pitch_bend_c, 3, 3072
6, 61178, Pitch_bend_c, 3, 2816
6, 61179, Pitch_bend_c, 3, 2432
6, 61180, Pitch_bend_c, 3, 2176
6, 61182, Pitch_bend_c, 3, 1920
6, 61183, Pitch_bend_c, 3, 1664
6, 61184, Control_c, 3, 11, 89
6, 61184, Pitch_bend_c, 3, 1280
6, 61185, Pitch_bend_c, 3, 1024
6, 61186, Pitch_bend_c, 3, 768
6, 61188, Pitch_bend_c, 3, 512
6, 61189, Pitch_bend_c, 3, 128
6, 61195, Note_on_c, 3, 74, 0
6, 61216, Control_c, 3, 11, 88
6, 61221, Pitch_bend_c, 3, 8192
6, 61247, Control_c, 3, 11, 87
6, 61278, Control_c, 3, 11, 86
6, 61309, Control_c, 3, 11, 85
6, 61340, Control_c, 3, 11, 84
6, 61371, Control_c, 3, 11, 83
6, 61403, Control_c, 3, 11, 82
6, 61434, Control_c, 3, 11, 81
6, 61465, Control_c, 3, 11, 80
6, 61496, Control_c, 3, 11, 79
6, 61527, Control_c, 3, 11, 78
6, 61559, Control_c, 3, 11, 77
6, 61581, Pitch_bend_c, 3, 16383
6, 61590, Control_c, 3, 11, 76
6, 61620, Lyric_t, "Poi"
6, 61621, Control_c, 3, 11, 75
6, 61623, Note_on_c, 3, 74, 100
6, 61652, Control_c, 3, 11, 74
6, 61683, Control_c, 3, 11, 73
6, 61714, Control_c, 3, 11, 72
6, 61723, Pitch_bend_c, 3, 16383
6, 61724, Pitch_bend_c, 3, 15744
6, 61725, Pitch_bend_c, 3, 15104
6, 61726, Pitch_bend_c, 3, 14592
6, 61728, Pitch_bend_c, 3, 13952
6, 61729, Pitch_bend_c, 3, 13440
6, 61730, Pitch_bend_c, 3, 12800
6, 61731, Pitch_bend_c, 3, 12288
6, 61732, Pitch_bend_c, 3, 11648
6, 61734, Pitch_bend_c, 3, 11008
6, 61735, Pitch_bend_c, 3, 10496
6, 61736, Pitch_bend_c, 3, 9856
6, 61737, Pitch_bend_c, 3, 9344
6, 61738, Pitch_bend_c, 3, 8704
6, 61740, Pitch_bend_c, 3, 8192
6, 61746, Control_c, 3, 11, 71
6, 61777, Control_c, 3, 11, 70
6, 61789, Pitch_bend_c, 3, 8192
6, 61790, Pitch_bend_c, 3, 7168
6, 61791, Pitch_bend_c, 3, 6272
6, 61792, Pitch_bend_c, 3, 5248
6, 61794, Pitch_bend_c, 3, 4352
6, 61795, Pitch_bend_c, 3, 3328
6, 61796, Pitch_bend_c, 3, 2432
6, 61797, Pitch_bend_c, 3, 1408
6, 61798, Pitch_bend_c, 3, 512
6, 61800, Pitch_bend_c, 3, 0
6, 61808, Control_c, 3, 11, 69
6, 61839, Control_c, 3, 11, 68
6, 61850, Pitch_bend_c, 3, 128
6, 61851, Pitch_bend_c, 3, 1152
6, 61852, Pitch_bend_c, 3, 2176
6, 61854, Pitch_bend_c, 3, 3200
6, 61855, Note_on_c, 3, 74, 0
6, 61855, Pitch_bend_c, 3, 4224
6, 61856, Pitch_bend_c, 3, 5248
6, 61857, Pitch_bend_c, 3, 6272
6, 61858, Pitch_bend_c, 3, 7296
6, 61860, Pitch_bend_c, 3, 8192
6, 61860, Lyric_t, "son!"
6, 61862, Note_on_c, 3, 74, 101
6, 61870, Control_c, 3, 11, 67
6, 61902, Control_c, 3, 11, 66
6, 61933, Control_c, 3, 11, 65
6, 61964, Control_c, 3, 11, 64
6, 61995, Control_c, 3, 11, 63
6, 62026, Control_c, 3, 11, 62
6, 62057, Control_c, 3, 11, 61
6, 62089, Control_c, 3, 11, 60
6, 62120, Control_c, 3, 11, 59
6, 62151, Control_c, 3, 11, 58
6, 62182, Control_c, 3, 11, 57
6, 62213, Control_c, 3, 11, 56
6, 62245, Control_c, 3, 11, 55
6, 62276, Control_c, 3, 11, 54
6, 62307, Control_c, 3, 11, 53
6, 62338, Control_c, 3, 11, 52
6, 62369, Control_c, 3, 11, 51
6, 62382, Pitch_bend_c, 3, 8192
6, 62383, Pitch_bend_c, 3, 7808
6, 62384, Pitch_bend_c, 3, 7296
6, 62385, Pitch_bend_c, 3, 6912
6, 62386, Pitch_bend_c, 3, 6400
6, 62388, Pitch_bend_c, 3, 6016
6, 62389, Pitch_bend_c, 3, 5504
6, 62390, Pitch_bend_c, 3, 5120
6, 62391, Pitch_bend_c, 3, 4608
6, 62392, Pitch_bend_c, 3, 4224
6, 62394, Pitch_bend_c, 3, 3712
6, 62395, Pitch_bend_c, 3, 3328
6, 62396, Pitch_bend_c, 3, 2816
6, 62397, Pitch_bend_c, 3, 2432
6, 62398, Pitch_bend_c, 3, 1920
6, 62400, Control_c, 3, 11, 50
6, 62400, Pitch_bend_c, 3, 1536
6, 62401, Pitch_bend_c, 3, 1024
6, 62402, Pitch_bend_c, 3, 640
6, 62403, Pitch_bend_c, 3, 128
6, 62432, Control_c, 3, 11, 49
6, 62463, Control_c, 3, 11, 48
6, 62494, Control_c, 3, 11, 47
6, 62525, Control_c, 3, 11, 46
6, 62556, Control_c, 3, 11, 45
6, 62588, Control_c, 3, 11, 44
6, 62619, Control_c, 3, 11, 43
6, 62650, Control_c, 3, 11, 42
6, 62681, Control_c, 3, 11, 41
6, 62712, Control_c, 3, 11, 40
6, 62743, Control_c, 3, 11, 39
6, 62755, Note_on_c, 3, 74, 0
6, 62775, Control_c, 3, 11, 38
6, 62806, Control_c, 3, 11, 37
6, 62837, Control_c, 3, 11, 36
6, 62868, Control_c, 3, 11, 35
6, 62878, Pitch_bend_c, 3, 8192
6, 62880, Lyric_t, "I"
6, 62882, Note_on_c, 3, 77, 98
6, 62899, Control_c, 3, 11, 34
6, 62931, Control_c, 3, 11, 33
6, 62962, Control_c, 3, 11, 32
6, 62966, Note_on_c, 3, 77, 0
6, 62993, Control_c, 3, 11, 31
6, 63000, Note_on_c, 3, 77, 98
6, 63000, Lyric_t, "don't"
6, 63024, Control_c, 3, 11, 30
6, 63055, Control_c, 3, 11, 29
6, 63086, Note_on_c, 3, 77, 0
6, 63086, Control_c, 3, 11, 28
6, 63118, Control_c, 3, 11, 27
6, 63120, Lyric_t, "wan"
6, 63123, Note_on_c, 3, 77, 103
6, 63149, Control_c, 3, 11, 26
6, 63176, Note_on_c, 3, 77, 0
6, 63180, Control_c, 3, 11, 25
6, 63180, Lyric_t, "na"
6, 63182, Note_on_c, 3, 77, 98
6, 63211, Control_c, 3, 11, 24
6, 63236, Note_on_c, 3, 77, 0
6, 63242, Control_c, 3, 11, 23
6, 63274, Control_c, 3, 11, 22
6, 63299, Note_on_c, 3, 77, 101
6, 63300, Lyric_t, "break"
6, 63305, Control_c, 3, 11, 21
6, 63336, Control_c, 3, 11, 20
6, 63356, Note_on_c, 3, 77, 0
6, 63367, Control_c, 3, 11, 19
6, 63398, Control_c, 3, 11, 18
6, 63420, Lyric_t, "these"
6, 63422, Note_on_c, 3, 77, 101
6, 63429, Control_c, 3, 11, 17
6, 63441, Pitch_bend_c, 3, 8192
6, 63451, Pitch_bend_c, 3, 8448
6, 63453, Pitch_bend_c, 3, 8704
6, 63456, Pitch_bend_c, 3, 9472
6, 63457, Pitch_bend_c, 3, 10240
6, 63459, Pitch_bend_c, 3, 10752
6, 63460, Pitch_bend_c, 3, 11008
6, 63461, Control_c, 3, 11, 16
6, 63462, Pitch_bend_c, 3, 11264
6, 63463, Pitch_bend_c, 3, 11520
6, 63464, Pitch_bend_c, 3, 11776
6, 63466, Pitch_bend_c, 3, 11904
6, 63468, Pitch_bend_c, 3, 12160
6, 63471, Pitch_bend_c, 3, 12928
6, 63472, Pitch_bend_c, 3, 13184
6, 63474, Pitch_bend_c, 3, 13440
6, 63475, Pitch_bend_c, 3, 13696
6, 63476, Pitch_bend_c, 3, 14592
6, 63477, Pitch_bend_c, 3, 14976
6, 63478, Pitch_bend_c, 3, 15360
6, 63480, Pitch_bend_c, 3, 16383
6, 63492, Control_c, 3, 11, 15
6, 63523, Control_c, 3, 11, 14
6, 63535, Note_on_c, 3, 77, 0
6, 63540, Pitch_bend_c, 3, 16383
6, 63540, Lyric_t, "chains."
6, 63543, Note_on_c, 3, 74, 98
6, 63554, Control_c, 3, 11, 13
6, 63585, Control_c, 3, 11, 12
6, 63617, Control_c, 3, 11, 11
6, 63645, Pitch_bend_c, 3, 16383
6, 63646, Pitch_bend_c, 3, 15616
6, 63648, Control_c, 3, 11, 10
6, 63648, Pitch_bend_c, 3, 14976
6, 63649, Pitch_bend_c, 3, 14336
6, 63650, Pitch_bend_c, 3, 13568
6, 63651, Pitch_bend_c, 3, 12928
6, 63652, Pitch_bend_c, 3, 12288
6, 63654, Pitch_bend_c, 3, 11520
6, 63655, Pitch_bend_c, 3, 10880
6, 63656, Pitch_bend_c, 3, 10240
6, 63657, Pitch_bend_c, 3, 9472
6, 63658, Pitch_bend_c, 3, 8832
6, 63660, Pitch_bend_c, 3, 8192
6, 63679, Control_c, 3, 11, 9
6, 63706, Pitch_bend_c, 3, 8192
6, 63708, Pitch_bend_c, 3, 7424
6, 63709, Pitch_bend_c, 3, 6656
6, 63710, Control_c, 3, 11, 8
6, 63710, Pitch_bend_c, 3, 6016
6, 63711, Pitch_bend_c, 3, 5248
6, 63712, Pitch_bend_c, 3, 4608
6, 63714, Pitch_bend_c, 3, 3840
6, 63715, Pitch_bend_c, 3, 3072
6, 63716, Pitch_bend_c, 3, 2432
6, 63717, Pitch_bend_c, 3, 1664
6, 63718, Pitch_bend_c, 3, 1024
6, 63720, Pitch_bend_c, 3, 256
6, 63721, Pitch_bend_c, 3, 0
6, 63741, Control_c, 3, 11, 7
6, 63771, Pitch_bend_c, 3, 128
6, 63772, Control_c, 3, 11, 6
6, 63772, Pitch_bend_c, 3, 1280
6, 63774, Pitch_bend_c, 3, 2432
6, 63775, Pitch_bend_c, 3, 3584
6, 63776, Pitch_bend_c, 3, 4736
6, 63777, Pitch_bend_c, 3, 5888
6, 63778, Pitch_bend_c, 3, 7040
6, 63780, Pitch_bend_c, 3, 8192
6, 63804, Control_c, 3, 11, 5
6, 63835, Control_c, 3, 11, 4
6, 63866, Control_c, 3, 11, 3
6, 63897, Control_c, 3, 11, 2
6, 63928, Control_c, 3, 11, 1
6, 63960, Control_c, 3, 11, 0
6, 64035, Pitch_bend_c, 3, 8192
6, 64036, Pitch_bend_c, 3, 7936
6, 64038, Pitch_bend_c, 3, 7680
6, 64039, Pitch_bend_c, 3, 7424
6, 64040, Pitch_bend_c, 3, 7040
6, 64041, Pitch_bend_c, 3, 6784
6, 64042, Pitch_bend_c, 3, 6528
6, 64044, Pitch_bend_c, 3, 6272
6, 64045, Pitch_bend_c, 3, 5888
6, 64046, Pitch_bend_c, 3, 5632
6, 64047, Pitch_bend_c, 3, 5376
6, 64048, Pitch_bend_c, 3, 5120
6, 64050, Pitch_bend_c, 3, 4736
6, 64051, Pitch_bend_c, 3, 4480
6, 64052, Pitch_bend_c, 3, 4224
6, 64053, Pitch_bend_c, 3, 3968
6, 64054, Pitch_bend_c, 3, 3584
6, 64056, Pitch_bend_c, 3, 3328
6, 64057, Pitch_bend_c, 3, 3072
6, 64058, Pitch_bend_c, 3, 2816
6, 64059, Pitch_bend_c, 3, 2432
6, 64060, Pitch_bend_c, 3, 2176
6, 64062, Pitch_bend_c, 3, 1920
6, 64063, Pitch_bend_c, 3, 1664
6, 64064, Pitch_bend_c, 3, 1280
6, 64065, Pitch_bend_c, 3, 1024
6, 64066, Pitch_bend_c, 3, 768
6, 64068, Pitch_bend_c, 3, 512
6, 64069, Pitch_bend_c, 3, 128
6, 64075, Note_on_c, 3, 74, 0
6, 64101, Control_c, 3, 11, 127
6, 64101, Pitch_bend_c, 3, 8192
6, 64101, End_track
7, 0, Start_track
7, 0, MIDI_port, 0
7, 0, Program_c, 4, 85
7, 0, Control_c, 4, 7, 85
7, 0, Control_c, 4, 10, 40
7, 0, Control_c, 4, 91, 99
7, 0, Control_c, 4, 93, 13
7, 13982, Note_on_c, 4, 62, 81
7, 14036, Note_on_c, 4, 62, 0
7, 14042, Note_on_c, 4, 62, 78
7, 14096, Note_on_c, 4, 62, 0
7, 14099, Note_on_c, 4, 62, 83
7, 14156, Note_on_c, 4, 62, 0
7, 14162, Note_on_c, 4, 62, 79
7, 14216, Note_on_c, 4, 62, 0
7, 14218, Note_on_c, 4, 62, 82
7, 14276, Note_on_c, 4, 62, 0
7, 14278, Note_on_c, 4, 58, 79
7, 14336, Note_on_c, 4, 58, 0
7, 14337, Note_on_c, 4, 60, 78
7, 14396, Note_on_c, 4, 60, 0
7, 14400, Note_on_c, 4, 62, 82
7, 14456, Note_on_c, 4, 62, 0
7, 14457, Note_on_c, 4, 62, 79
7, 14516, Note_on_c, 4, 62, 0
7, 14517, Note_on_c, 4, 62, 80
7, 14572, Pitch_bend_c, 4, 8192
7, 14574, Pitch_bend_c, 4, 6912
7, 14575, Pitch_bend_c, 4, 5504
7, 14576, Pitch_bend_c, 4, 4224
7, 14577, Pitch_bend_c, 4, 2816
7, 14578, Pitch_bend_c, 4, 1536
7, 14580, Pitch_bend_c, 4, 128
7, 14636, Note_on_c, 4, 62, 0
7, 14640, Pitch_bend_c, 4, 8192
7, 14641, Note_on_c, 4, 60, 80
7, 14726, Note_on_c, 4, 60, 0
7, 14761, Note_on_c, 4, 62, 119
7, 14876, Note_on_c, 4, 62, 0
7, 14882, Note_on_c, 4, 63, 118
7, 14936, Note_on_c, 4, 63, 0
7, 14938, Note_on_c, 4, 67, 78
7, 14996, Note_on_c, 4, 67, 0
7, 14999, Note_on_c, 4, 67, 79
7, 15056, Note_on_c, 4, 67, 0
7, 15061, Note_on_c, 4, 67, 79
7, 15116, Note_on_c, 4, 67, 0
7, 15122, Note_on_c, 4, 67, 81
7, 15176, Note_on_c, 4, 67, 0
7, 15177, Note_on_c, 4, 67, 78
7, 15236, Note_on_c, 4, 67, 0
7, 15243, Note_on_c, 4, 63, 81
7, 15296, Note_on_c, 4, 63, 0
7, 15303, Note_on_c, 4, 65, 81
7, 15356, Note_on_c, 4, 65, 0
7, 15360, Note_on_c, 4, 67, 78
7, 15475, Note_on_c, 4, 67, 0
7, 15481, Note_on_c, 4, 67, 83
7, 15596, Note_on_c, 4, 67, 0
7, 15601, Note_on_c, 4, 65, 81
7, 15676, Note_on_c, 4, 65, 0
7, 15683, Note_on_c, 4, 63, 81
7, 15755, Note_on_c, 4, 63, 0
7, 15763, Note_on_c, 4, 62, 81
7, 15836, Note_on_c, 4, 62, 0
7, 15841, Note_on_c, 4, 64, 78
7, 15896, Note_on_c, 4, 64, 0
7, 15899, Note_on_c, 4, 64, 78
7, 15955, Note_on_c, 4, 64, 0
7, 15960, Note_on_c, 4, 64, 78
7, 16015, Note_on_c, 4, 64, 0
7, 16017, Note_on_c, 4, 64, 81
7, 16075, Note_on_c, 4, 64, 0
7, 16078, Note_on_c, 4, 64, 80
7, 16135, Note_on_c, 4, 64, 0
7, 16140, Note_on_c, 4, 60, 79
7, 16196, Note_on_c, 4, 60, 0
7, 16198, Note_on_c, 4, 60, 82
7, 16256, Note_on_c, 4, 60, 0
7, 16258, Note_on_c, 4, 62, 78
7, 16316, Note_on_c, 4, 62, 0
7, 16318, Note_on_c, 4, 64, 78
7, 16376, Note_on_c, 4, 64, 0
7, 16383, Note_on_c, 4, 64, 82
7, 16436, Note_on_c, 4, 64, 0
7, 16443, Note_on_c, 4, 64, 80
7, 16489, Pitch_bend_c, 4, 8192
7, 16490, Pitch_bend_c, 4, 8576
7, 16491, Pitch_bend_c, 4, 9088
7, 16492, Pitch_bend_c, 4, 9472
7, 16494, Pitch_bend_c, 4, 9984
7, 16495, Pitch_bend_c, 4, 10368
7, 16496, Pitch_bend_c, 4, 10880
7, 16497, Pitch_bend_c, 4, 11264
7, 16498, Pitch_bend_c, 4, 11776
7, 16500, Pitch_bend_c, 4, 12288
7, 16501, Pitch_bend_c, 4, 12288
7, 16555, Note_on_c, 4, 64, 0
7, 16558, Pitch_bend_c, 4, 8192
7, 16562, Note_on_c, 4, 62, 79
7, 16616, Note_on_c, 4, 62, 0
7, 16681, Note_on_c, 4, 64, 122
7, 16730, Pitch_bend_c, 4, 8192
7, 16731, Pitch_bend_c, 4, 8704
7, 16732, Pitch_bend_c, 4, 9216
7, 16734, Pitch_bend_c, 4, 9728
7, 16735, Pitch_bend_c, 4, 10240
7, 16736, Pitch_bend_c, 4, 10752
7, 16737, Pitch_bend_c, 4, 11264
7, 16738, Pitch_bend_c, 4, 11776
7, 16740, Pitch_bend_c, 4, 12288
7, 16796, Note_on_c, 4, 64, 0
7, 16799, Note_on_c, 4, 65, 123
7, 16800, Pitch_bend_c, 4, 8192
7, 16856, Note_on_c, 4, 65, 0
7, 16858, Note_on_c, 4, 69, 82
7, 16916, Note_on_c, 4, 69, 0
7, 16922, Note_on_c, 4, 69, 82
7, 16976, Note_on_c, 4, 69, 0
7, 16983, Note_on_c, 4, 69, 80
7, 17036, Note_on_c, 4, 69, 0
7, 17042, Note_on_c, 4, 69, 80
7, 17096, Note_on_c, 4, 69, 0
7, 17103, Note_on_c, 4, 65, 82
7, 17156, Note_on_c, 4, 65, 0
7, 17158, Note_on_c, 4, 65, 79
7, 17216, Note_on_c, 4, 65, 0
7, 17218, Note_on_c, 4, 67, 81
7, 17276, Note_on_c, 4, 67, 0
7, 17279, Note_on_c, 4, 69, 81
7, 17336, Note_on_c, 4, 69, 0
7, 17403, Note_on_c, 4, 69, 80
7, 17516, Note_on_c, 4, 69, 0
7, 17523, Note_on_c, 4, 67, 82
7, 17576, Note_on_c, 4, 67, 0
7, 17578, Note_on_c, 4, 65, 81
7, 17636, Note_on_c, 4, 65, 0
7, 17638, Note_on_c, 4, 67, 79
7, 17756, Note_on_c, 4, 67, 0
7, 17758, Note_on_c, 4, 67, 83
7, 17811, Pitch_bend_c, 4, 8192
7, 17812, Pitch_bend_c, 4, 6912
7, 17814, Pitch_bend_c, 4, 5632
7, 17815, Pitch_bend_c, 4, 4352
7, 17816, Pitch_bend_c, 4, 3200
7, 17817, Pitch_bend_c, 4, 1920
7, 17818, Pitch_bend_c, 4, 640
7, 17820, Pitch_bend_c, 4, 0
7, 17876, Note_on_c, 4, 67, 0
7, 17880, Pitch_bend_c, 4, 8192
7, 17883, Note_on_c, 4, 65, 82
7, 17936, Note_on_c, 4, 65, 0
7, 17982, Pitch_bend_c, 4, 12288
7, 18000, Note_on_c, 4, 69, 81
7, 18201, Pitch_bend_c, 4, 12288
7, 18202, Pitch_bend_c, 4, 12160
7, 18204, Pitch_bend_c, 4, 12032
7, 18205, Pitch_bend_c, 4, 11904
7, 18206, Pitch_bend_c, 4, 11776
7, 18207, Pitch_bend_c, 4, 11648
7, 18208, Pitch_bend_c, 4, 11520
7, 18210, Pitch_bend_c, 4, 11392
7, 18211, Pitch_bend_c, 4, 11264
7, 18212, Pitch_bend_c, 4, 11136
7, 18213, Pitch_bend_c, 4, 11008
7, 18214, Pitch_bend_c, 4, 10880
7, 18216, Pitch_bend_c, 4, 10752
7, 18217, Pitch_bend_c, 4, 10624
7, 18218, Pitch_bend_c, 4, 10496
7, 18219, Pitch_bend_c, 4, 10368
7, 18220, Pitch_bend_c, 4, 10240
7, 18222, Pitch_bend_c, 4, 10112
7, 18223, Pitch_bend_c, 4, 9984
7, 18224, Pitch_bend_c, 4, 9856
7, 18225, Pitch_bend_c, 4, 9728
7, 18226, Pitch_bend_c, 4, 9600
7, 18228, Pitch_bend_c, 4, 9472
7, 18229, Pitch_bend_c, 4, 9344
7, 18230, Pitch_bend_c, 4, 9216
7, 18231, Pitch_bend_c, 4, 9088
7, 18232, Pitch_bend_c, 4, 8960
7, 18234, Pitch_bend_c, 4, 8832
7, 18235, Pitch_bend_c, 4, 8704
7, 18236, Pitch_bend_c, 4, 8576
7, 18237, Pitch_bend_c, 4, 8448
7, 18238, Pitch_bend_c, 4, 8320
7, 18240, Pitch_bend_c, 4, 8192
7, 18400, Pitch_bend_c, 4, 8192
7, 18402, Pitch_bend_c, 4, 7680
7, 18403, Pitch_bend_c, 4, 7168
7, 18404, Pitch_bend_c, 4, 6656
7, 18405, Pitch_bend_c, 4, 6144
7, 18406, Pitch_bend_c, 4, 5632
7, 18408, Pitch_bend_c, 4, 5120
7, 18409, Pitch_bend_c, 4, 4608
7, 18410, Pitch_bend_c, 4, 4096
7, 18411, Pitch_bend_c, 4, 3584
7, 18412, Pitch_bend_c, 4, 3072
7, 18414, Pitch_bend_c, 4, 2560
7, 18415, Pitch_bend_c, 4, 2048
7, 18416, Pitch_bend_c, 4, 1536
7, 18417, Pitch_bend_c, 4, 1024
7, 18418, Pitch_bend_c, 4, 512
7, 18420, Pitch_bend_c, 4, 0
7, 18535, Note_on_c, 4, 69, 0
7, 18582, Pitch_bend_c, 4, 8192
7, 18599, Note_on_c, 4, 72, 79
7, 18716, Note_on_c, 4, 72, 0
7, 18719, Note_on_c, 4, 74, 78
7, 18806, Note_on_c, 4, 74, 0
7, 18840, Note_on_c, 4, 74, 83
7, 18926, Note_on_c, 4, 74, 0
7, 18958, Note_on_c, 4, 74, 81
7, 19016, Note_on_c, 4, 74, 0
7, 19020, Note_on_c, 4, 74, 80
7, 19076, Note_on_c, 4, 74, 0
7, 19140, Note_on_c, 4, 72, 83
7, 19196, Note_on_c, 4, 72, 0
7, 19263, Note_on_c, 4, 72, 82
7, 19316, Note_on_c, 4, 72, 0
7, 19381, Note_on_c, 4, 72, 83
7, 19466, Note_on_c, 4, 72, 0
7, 19561, Note_on_c, 4, 67, 83
7, 19676, Note_on_c, 4, 67, 0
7, 19680, Note_on_c, 4, 67, 100
7, 19731, Pitch_bend_c, 4, 8192
7, 19732, Pitch_bend_c, 4, 6912
7, 19734, Pitch_bend_c, 4, 5632
7, 19735, Pitch_bend_c, 4, 4352
7, 19736, Pitch_bend_c, 4, 3200
7, 19737, Pitch_bend_c, 4, 1920
7, 19738, Pitch_bend_c, 4, 640
7, 19740, Pitch_bend_c, 4, 0
7, 19800, Note_on_c, 4, 67, 0
7, 19800, Pitch_bend_c, 4, 8192
7, 19802, Note_on_c, 4, 65, 78
7, 19856, Note_on_c, 4, 65, 0
7, 19902, Pitch_bend_c, 4, 12288
7, 19902, Pitch_bend_c, 4, 12288
7, 19920, Note_on_c, 4, 69, 79
7, 20121, Pitch_bend_c, 4, 12288
7, 20122, Pitch_bend_c, 4, 12160
7, 20124, Pitch_bend_c, 4, 12032
7, 20125, Pitch_bend_c, 4, 11904
7, 20126, Pitch_bend_c, 4, 11776
7, 20127, Pitch_bend_c, 4, 11648
7, 20128, Pitch_bend_c, 4, 11520
7, 20130, Pitch_bend_c, 4, 11392
7, 20131, Pitch_bend_c, 4, 11264
7, 20132, Pitch_bend_c, 4, 11136
7, 20133, Pitch_bend_c, 4, 11008
7, 20134, Pitch_bend_c, 4, 10880
7, 20136, Pitch_bend_c, 4, 10752
7, 20137, Pitch_bend_c, 4, 10624
7, 20138, Pitch_bend_c, 4, 10496
7, 20139, Pitch_bend_c, 4, 10368
7, 20140, Pitch_bend_c, 4, 10240
7, 20142, Pitch_bend_c, 4, 10112
7, 20143, Pitch_bend_c, 4, 9984
7, 20144, Pitch_bend_c, 4, 9856
7, 20145, Pitch_bend_c, 4, 9728
7, 20146, Pitch_bend_c, 4, 9600
7, 20148, Pitch_bend_c, 4, 9472
7, 20149, Pitch_bend_c, 4, 9344
7, 20150, Pitch_bend_c, 4, 9216
7, 20151, Pitch_bend_c, 4, 9088
7, 20152, Pitch_bend_c, 4, 8960
7, 20154, Pitch_bend_c, 4, 8832
7, 20155, Pitch_bend_c, 4, 8704
7, 20156, Pitch_bend_c, 4, 8576
7, 20157, Pitch_bend_c, 4, 8448
7, 20158, Pitch_bend_c, 4, 8320
7, 20160, Pitch_bend_c, 4, 8192
7, 20320, Pitch_bend_c, 4, 8192
7, 20322, Pitch_bend_c, 4, 7680
7, 20323, Pitch_bend_c, 4, 7168
7, 20324, Pitch_bend_c, 4, 6656
7, 20325, Pitch_bend_c, 4, 6144
7, 20326, Pitch_bend_c, 4, 5632
7, 20328, Pitch_bend_c, 4, 5120
7, 20329, Pitch_bend_c, 4, 4608
7, 20330, Pitch_bend_c, 4, 4096
7, 20331, Pitch_bend_c, 4, 3584
7, 20332, Pitch_bend_c, 4, 3072
7, 20334, Pitch_bend_c, 4, 2560
7, 20335, Pitch_bend_c, 4, 2048
7, 20336, Pitch_bend_c, 4, 1536
7, 20337, Pitch_bend_c, 4, 1024
7, 20338, Pitch_bend_c, 4, 512
7, 20340, Pitch_bend_c, 4, 0
7, 20455, Note_on_c, 4, 69, 0
7, 20502, Pitch_bend_c, 4, 8192
7, 20637, Note_on_c, 4, 74, 78
7, 20726, Note_on_c, 4, 74, 0
7, 20758, Note_on_c, 4, 74, 79
7, 20846, Note_on_c, 4, 74, 0
7, 20878, Note_on_c, 4, 74, 83
7, 20936, Note_on_c, 4, 74, 0
7, 20940, Note_on_c, 4, 74, 81
7, 20996, Note_on_c, 4, 74, 0
7, 21059, Note_on_c, 4, 72, 78
7, 21116, Note_on_c, 4, 72, 0
7, 21183, Note_on_c, 4, 72, 81
7, 21236, Note_on_c, 4, 72, 0
7, 21299, Note_on_c, 4, 72, 81
7, 21386, Note_on_c, 4, 72, 0
7, 26942, Note_on_c, 4, 62, 79
7, 26996, Note_on_c, 4, 62, 0
7, 27001, Note_on_c, 4, 62, 82
7, 27056, Note_on_c, 4, 62, 0
7, 27061, Note_on_c, 4, 62, 79
7, 27116, Note_on_c, 4, 62, 0
7, 27118, Note_on_c, 4, 62, 79
7, 27176, Note_on_c, 4, 62, 0
7, 27179, Note_on_c, 4, 62, 80
7, 27236, Note_on_c, 4, 62, 0
7, 27242, Note_on_c, 4, 58, 82
7, 27296, Note_on_c, 4, 58, 0
7, 27303, Note_on_c, 4, 60, 79
7, 27356, Note_on_c, 4, 60, 0
7, 27362, Note_on_c, 4, 62, 81
7, 27416, Note_on_c, 4, 62, 0
7, 27422, Note_on_c, 4, 62, 82
7, 27476, Note_on_c, 4, 62, 0
7, 27478, Note_on_c, 4, 62, 83
7, 27531, Pitch_bend_c, 4, 8192
7, 27532, Pitch_bend_c, 4, 8704
7, 27534, Pitch_bend_c, 4, 9344
7, 27535, Pitch_bend_c, 4, 9856
7, 27536, Pitch_bend_c, 4, 10496
7, 27537, Pitch_bend_c, 4, 11008
7, 27538, Pitch_bend_c, 4, 11648
7, 27540, Pitch_bend_c, 4, 12288
7, 27596, Note_on_c, 4, 62, 0
7, 27598, Note_on_c, 4, 60, 83
7, 27600, Pitch_bend_c, 4, 8192
7, 27686, Note_on_c, 4, 60, 0
7, 27722, Note_on_c, 4, 62, 118
7, 27768, Pitch_bend_c, 4, 8192
7, 27769, Pitch_bend_c, 4, 8704
7, 27770, Pitch_bend_c, 4, 9088
7, 27771, Pitch_bend_c, 4, 9472
7, 27772, Pitch_bend_c, 4, 9856
7, 27774, Pitch_bend_c, 4, 10240
7, 27775, Pitch_bend_c, 4, 10752
7, 27776, Pitch_bend_c, 4, 11136
7, 27777, Pitch_bend_c, 4, 11520
7, 27778, Pitch_bend_c, 4, 11904
7, 27780, Pitch_bend_c, 4, 12288
7, 27836, Note_on_c, 4, 62, 0
7, 27840, Pitch_bend_c, 4, 8192
7, 27840, Note_on_c, 4, 63, 122
7, 27896, Note_on_c, 4, 63, 0
7, 27898, Note_on_c, 4, 67, 79
7, 27956, Note_on_c, 4, 67, 0
7, 27963, Note_on_c, 4, 67, 83
7, 28016, Note_on_c, 4, 67, 0
7, 28017, Note_on_c, 4, 67, 80
7, 28076, Note_on_c, 4, 67, 0
7, 28080, Note_on_c, 4, 67, 78
7, 28136, Note_on_c, 4, 67, 0
7, 28141, Note_on_c, 4, 67, 81
7, 28196, Note_on_c, 4, 67, 0
7, 28203, Note_on_c, 4, 63, 79
7, 28256, Note_on_c, 4, 63, 0
7, 28257, Note_on_c, 4, 65, 83
7, 28316, Note_on_c, 4, 65, 0
7, 28322, Note_on_c, 4, 67, 83
7, 28435, Note_on_c, 4, 67, 0
7, 28437, Note_on_c, 4, 67, 83
7, 28556, Note_on_c, 4, 67, 0
7, 28561, Note_on_c, 4, 65, 78
7, 28637, Note_on_c, 4, 65, 0
7, 28640, Note_on_c, 4, 63, 82
7, 28716, Note_on_c, 4, 63, 0
7, 28722, Note_on_c, 4, 62, 79
7, 28796, Note_on_c, 4, 62, 0
7, 28797, Note_on_c, 4, 64, 82
7, 28856, Note_on_c, 4, 64, 0
7, 28859, Note_on_c, 4, 64, 78
7, 28915, Note_on_c, 4, 64, 0
7, 28918, Note_on_c, 4, 64, 83
7, 28975, Note_on_c, 4, 64, 0
7, 28981, Note_on_c, 4, 64, 79
7, 29035, Note_on_c, 4, 64, 0
7, 29038, Note_on_c, 4, 64, 82
7, 29095, Note_on_c, 4, 64, 0
7, 29101, Note_on_c, 4, 60, 79
7, 29156, Note_on_c, 4, 60, 0
7, 29163, Note_on_c, 4, 60, 78
7, 29216, Note_on_c, 4, 60, 0
7, 29218, Note_on_c, 4, 62, 79
7, 29276, Note_on_c, 4, 62, 0
7, 29281, Note_on_c, 4, 64, 80
7, 29336, Note_on_c, 4, 64, 0
7, 29337, Note_on_c, 4, 64, 81
7, 29396, Note_on_c, 4, 64, 0
7, 29402, Note_on_c, 4, 64, 82
7, 29449, Pitch_bend_c, 4, 8192
7, 29450, Pitch_bend_c, 4, 8576
7, 29451, Pitch_bend_c, 4, 9088
7, 29452, Pitch_bend_c, 4, 9472
7, 29454, Pitch_bend_c, 4, 9984
7, 29455, Pitch_bend_c, 4, 10368
7, 29456, Pitch_bend_c, 4, 10880
7, 29457, Pitch_bend_c, 4, 11264
7, 29458, Pitch_bend_c, 4, 11776
7, 29460, Pitch_bend_c, 4, 12288
7, 29461, Pitch_bend_c, 4, 12288
7, 29515, Note_on_c, 4, 64, 0
7, 29518, Pitch_bend_c, 4, 8192
7, 29519, Note_on_c, 4, 62, 79
7, 29576, Note_on_c, 4, 62, 0
7, 29641, Note_on_c, 4, 64, 122
7, 29690, Pitch_bend_c, 4, 8192
7, 29691, Pitch_bend_c, 4, 8704
7, 29692, Pitch_bend_c, 4, 9216
7, 29694, Pitch_bend_c, 4, 9728
7, 29695, Pitch_bend_c, 4, 10240
7, 29696, Pitch_bend_c, 4, 10752
7, 29697, Pitch_bend_c, 4, 11264
7, 29698, Pitch_bend_c, 4, 11776
7, 29700, Pitch_bend_c, 4, 12288
7, 29756, Note_on_c, 4, 64, 0
7, 29759, Note_on_c, 4, 65, 119
7, 29760, Pitch_bend_c, 4, 8192
7, 29816, Note_on_c, 4, 65, 0
7, 29817, Note_on_c, 4, 69, 81
7, 29876, Note_on_c, 4, 69, 0
7, 29878, Note_on_c, 4, 69, 80
7, 29936, Note_on_c, 4, 69, 0
7, 29941, Note_on_c, 4, 69, 80
7, 29996, Note_on_c, 4, 69, 0
7, 30001, Note_on_c, 4, 69, 81
7, 30056, Note_on_c, 4, 69, 0
7, 30057, Note_on_c, 4, 65, 80
7, 30116, Note_on_c, 4, 65, 0
7, 30121, Note_on_c, 4, 65, 82
7, 30176, Note_on_c, 4, 65, 0
7, 30182, Note_on_c, 4, 67, 82
7, 30236, Note_on_c, 4, 67, 0
7, 30242, Note_on_c, 4, 69, 79
7, 30296, Note_on_c, 4, 69, 0
7, 30360, Note_on_c, 4, 69, 78
7, 30476, Note_on_c, 4, 69, 0
7, 30481, Note_on_c, 4, 67, 80
7, 30536, Note_on_c, 4, 67, 0
7, 30541, Note_on_c, 4, 65, 78
7, 30596, Note_on_c, 4, 65, 0
7, 30601, Note_on_c, 4, 67, 78
7, 30716, Note_on_c, 4, 67, 0
7, 30719, Note_on_c, 4, 67, 83
7, 30771, Pitch_bend_c, 4, 8192
7, 30772, Pitch_bend_c, 4, 6912
7, 30774, Pitch_bend_c, 4, 5632
7, 30775, Pitch_bend_c, 4, 4352
7, 30776, Pitch_bend_c, 4, 3200
7, 30777, Pitch_bend_c, 4, 1920
7, 30778, Pitch_bend_c, 4, 640
7, 30780, Pitch_bend_c, 4, 0
7, 30836, Note_on_c, 4, 67, 0
7, 30837, Note_on_c, 4, 65, 80
7, 30840, Pitch_bend_c, 4, 8192
7, 30896, Note_on_c, 4, 65, 0
7, 30942, Pitch_bend_c, 4, 12288
7, 30962, Note_on_c, 4, 69, 79
7, 31161, Pitch_bend_c, 4, 12288
7, 31162, Pitch_bend_c, 4, 12160
7, 31164, Pitch_bend_c, 4, 12032
7, 31165, Pitch_bend_c, 4, 11904
7, 31166, Pitch_bend_c, 4, 11776
7, 31167, Pitch_bend_c, 4, 11648
7, 31168, Pitch_bend_c, 4, 11520
7, 31170, Pitch_bend_c, 4, 11392
7, 31171, Pitch_bend_c, 4, 11264
7, 31172, Pitch_bend_c, 4, 11136
7, 31173, Pitch_bend_c, 4, 11008
7, 31174, Pitch_bend_c, 4, 10880
7, 31176, Pitch_bend_c, 4, 10752
7, 31177, Pitch_bend_c, 4, 10624
7, 31178, Pitch_bend_c, 4, 10496
7, 31179, Pitch_bend_c, 4, 10368
7, 31180, Pitch_bend_c, 4, 10240
7, 31182, Pitch_bend_c, 4, 10112
7, 31183, Pitch_bend_c, 4, 9984
7, 31184, Pitch_bend_c, 4, 9856
7, 31185, Pitch_bend_c, 4, 9728
7, 31186, Pitch_bend_c, 4, 9600
7, 31188, Pitch_bend_c, 4, 9472
7, 31189, Pitch_bend_c, 4, 9344
7, 31190, Pitch_bend_c, 4, 9216
7, 31191, Pitch_bend_c, 4, 9088
7, 31192, Pitch_bend_c, 4, 8960
7, 31194, Pitch_bend_c, 4, 8832
7, 31195, Pitch_bend_c, 4, 8704
7, 31196, Pitch_bend_c, 4, 8576
7, 31197, Pitch_bend_c, 4, 8448
7, 31198, Pitch_bend_c, 4, 8320
7, 31200, Pitch_bend_c, 4, 8192
7, 31360, Pitch_bend_c, 4, 8192
7, 31362, Pitch_bend_c, 4, 7680
7, 31363, Pitch_bend_c, 4, 7168
7, 31364, Pitch_bend_c, 4, 6656
7, 31365, Pitch_bend_c, 4, 6144
7, 31366, Pitch_bend_c, 4, 5632
7, 31368, Pitch_bend_c, 4, 5120
7, 31369, Pitch_bend_c, 4, 4608
7, 31370, Pitch_bend_c, 4, 4096
7, 31371, Pitch_bend_c, 4, 3584
7, 31372, Pitch_bend_c, 4, 3072
7, 31374, Pitch_bend_c, 4, 2560
7, 31375, Pitch_bend_c, 4, 2048
7, 31376, Pitch_bend_c, 4, 1536
7, 31377, Pitch_bend_c, 4, 1024
7, 31378, Pitch_bend_c, 4, 512
7, 31380, Pitch_bend_c, 4, 0
7, 31495, Note_on_c, 4, 69, 0
7, 31542, Pitch_bend_c, 4, 8192
7, 31559, Note_on_c, 4, 72, 81
7, 31676, Note_on_c, 4, 72, 0
7, 31682, Note_on_c, 4, 74, 81
7, 31766, Note_on_c, 4, 74, 0
7, 31798, Note_on_c, 4, 74, 80
7, 31886, Note_on_c, 4, 74, 0
7, 31923, Note_on_c, 4, 74, 80
7, 31976, Note_on_c, 4, 74, 0
7, 31981, Note_on_c, 4, 74, 81
7, 32036, Note_on_c, 4, 74, 0
7, 32099, Note_on_c, 4, 72, 82
7, 32156, Note_on_c, 4, 72, 0
7, 32217, Note_on_c, 4, 72, 82
7, 32276, Note_on_c, 4, 72, 0
7, 32340, Note_on_c, 4, 72, 81
7, 32426, Note_on_c, 4, 72, 0
7, 32517, Note_on_c, 4, 67, 79
7, 32636, Note_on_c, 4, 67, 0
7, 32638, Note_on_c, 4, 67, 80
7, 32691, Pitch_bend_c, 4, 8192
7, 32692, Pitch_bend_c, 4, 6912
7, 32694, Pitch_bend_c, 4, 5632
7, 32695, Pitch_bend_c, 4, 4352
7, 32696, Pitch_bend_c, 4, 3200
7, 32697, Pitch_bend_c, 4, 1920
7, 32698, Pitch_bend_c, 4, 640
7, 32700, Pitch_bend_c, 4, 0
7, 32756, Note_on_c, 4, 67, 0
7, 32760, Pitch_bend_c, 4, 8192
7, 32762, Note_on_c, 4, 65, 83
7, 32816, Note_on_c, 4, 65, 0
7, 32862, Pitch_bend_c, 4, 12288
7, 32862, Pitch_bend_c, 4, 12288
7, 32880, Note_on_c, 4, 69, 82
7, 33081, Pitch_bend_c, 4, 12288
7, 33082, Pitch_bend_c, 4, 12160
7, 33084, Pitch_bend_c, 4, 12032
7, 33085, Pitch_bend_c, 4, 11904
7, 33086, Pitch_bend_c, 4, 11776
7, 33087, Pitch_bend_c, 4, 11648
7, 33088, Pitch_bend_c, 4, 11520
7, 33090, Pitch_bend_c, 4, 11392
7, 33091, Pitch_bend_c, 4, 11264
7, 33092, Pitch_bend_c, 4, 11136
7, 33093, Pitch_bend_c, 4, 11008
7, 33094, Pitch_bend_c, 4, 10880
7, 33096, Pitch_bend_c, 4, 10752
7, 33097, Pitch_bend_c, 4, 10624
7, 33098, Pitch_bend_c, 4, 10496
7, 33099, Pitch_bend_c, 4, 10368
7, 33100, Pitch_bend_c, 4, 10240
7, 33102, Pitch_bend_c, 4, 10112
7, 33103, Pitch_bend_c, 4, 9984
7, 33104, Pitch_bend_c, 4, 9856
7, 33105, Pitch_bend_c, 4, 9728
7, 33106, Pitch_bend_c, 4, 9600
7, 33108, Pitch_bend_c, 4, 9472
7, 33109, Pitch_bend_c, 4, 9344
7, 33110, Pitch_bend_c, 4, 9216
7, 33111, Pitch_bend_c, 4, 9088
7, 33112, Pitch_bend_c, 4, 8960
7, 33114, Pitch_bend_c, 4, 8832
7, 33115, Pitch_bend_c, 4, 8704
7, 33116, Pitch_bend_c, 4, 8576
7, 33117, Pitch_bend_c, 4, 8448
7, 33118, Pitch_bend_c, 4, 8320
7, 33120, Pitch_bend_c, 4, 8192
7, 33280, Pitch_bend_c, 4, 8192
7, 33282, Pitch_bend_c, 4, 7680
7, 33283, Pitch_bend_c, 4, 7168
7, 33284, Pitch_bend_c, 4, 6656
7, 33285, Pitch_bend_c, 4, 6144
7, 33286, Pitch_bend_c, 4, 5632
7, 33288, Pitch_bend_c, 4, 5120
7, 33289, Pitch_bend_c, 4, 4608
7, 33290, Pitch_bend_c, 4, 4096
7, 33291, Pitch_bend_c, 4, 3584
7, 33292, Pitch_bend_c, 4, 3072
7, 33294, Pitch_bend_c, 4, 2560
7, 33295, Pitch_bend_c, 4, 2048
7, 33296, Pitch_bend_c, 4, 1536
7, 33297, Pitch_bend_c, 4, 1024
7, 33298, Pitch_bend_c, 4, 512
7, 33300, Pitch_bend_c, 4, 0
7, 33415, Note_on_c, 4, 69, 0
7, 33462, Pitch_bend_c, 4, 8192
7, 33602, Note_on_c, 4, 74, 83
7, 33686, Note_on_c, 4, 74, 0
7, 33717, Note_on_c, 4, 74, 81
7, 33806, Note_on_c, 4, 74, 0
7, 33839, Note_on_c, 4, 74, 79
7, 33896, Note_on_c, 4, 74, 0
7, 33903, Note_on_c, 4, 74, 79
7, 33956, Note_on_c, 4, 74, 0
7, 34018, Note_on_c, 4, 72, 79
7, 34076, Note_on_c, 4, 72, 0
7, 34140, Note_on_c, 4, 72, 80
7, 34196, Note_on_c, 4, 72, 0
7, 34260, Note_on_c, 4, 72, 82
7, 34346, Note_on_c, 4, 72, 0
7, 39721, Note_on_c, 4, 62, 102
7, 39835, Note_on_c, 4, 62, 0
7, 39837, Note_on_c, 4, 62, 98
7, 39956, Note_on_c, 4, 62, 0
7, 40199, Note_on_c, 4, 65, 99
7, 40316, Note_on_c, 4, 65, 0
7, 40318, Note_on_c, 4, 65, 98
7, 40747, Pitch_bend_c, 4, 8192
7, 40750, Pitch_bend_c, 4, 8320
7, 40752, Pitch_bend_c, 4, 8448
7, 40754, Pitch_bend_c, 4, 8704
7, 40755, Pitch_bend_c, 4, 8832
7, 40758, Pitch_bend_c, 4, 9088
7, 40760, Pitch_bend_c, 4, 9472
7, 40761, Pitch_bend_c, 4, 9728
7, 40764, Pitch_bend_c, 4, 9856
7, 40765, Pitch_bend_c, 4, 10112
7, 40766, Pitch_bend_c, 4, 10240
7, 40767, Pitch_bend_c, 4, 10368
7, 40770, Pitch_bend_c, 4, 10624
7, 40771, Pitch_bend_c, 4, 10752
7, 40772, Pitch_bend_c, 4, 10880
7, 40773, Pitch_bend_c, 4, 11008
7, 40776, Pitch_bend_c, 4, 11136
7, 40777, Pitch_bend_c, 4, 11392
7, 40778, Pitch_bend_c, 4, 11520
7, 40779, Pitch_bend_c, 4, 11648
7, 40780, Pitch_bend_c, 4, 11904
7, 40782, Pitch_bend_c, 4, 12032
7, 40783, Pitch_bend_c, 4, 12160
7, 40785, Pitch_bend_c, 4, 12416
7, 40786, Pitch_bend_c, 4, 12544
7, 40788, Pitch_bend_c, 4, 12800
7, 40791, Pitch_bend_c, 4, 13312
7, 40792, Pitch_bend_c, 4, 13696
7, 40794, Pitch_bend_c, 4, 13952
7, 40795, Note_on_c, 4, 65, 0
7, 40795, Pitch_bend_c, 4, 14336
7, 40796, Pitch_bend_c, 4, 16383
7, 40798, Note_on_c, 4, 69, 100
7, 40800, Pitch_bend_c, 4, 8192
7, 41210, Pitch_bend_c, 4, 8192
7, 41235, Pitch_bend_c, 4, 8704
7, 41238, Pitch_bend_c, 4, 9088
7, 41240, Pitch_bend_c, 4, 9344
7, 41242, Pitch_bend_c, 4, 9600
7, 41245, Pitch_bend_c, 4, 9856
7, 41247, Pitch_bend_c, 4, 10112
7, 41250, Pitch_bend_c, 4, 10368
7, 41251, Pitch_bend_c, 4, 10624
7, 41252, Pitch_bend_c, 4, 10752
7, 41253, Pitch_bend_c, 4, 10880
7, 41254, Pitch_bend_c, 4, 11008
7, 41256, Pitch_bend_c, 4, 11264
7, 41257, Pitch_bend_c, 4, 11392
7, 41259, Pitch_bend_c, 4, 11648
7, 41260, Pitch_bend_c, 4, 11904
7, 41262, Pitch_bend_c, 4, 12160
7, 41263, Pitch_bend_c, 4, 12928
7, 41264, Pitch_bend_c, 4, 13440
7, 41265, Pitch_bend_c, 4, 13568
7, 41268, Pitch_bend_c, 4, 16256
7, 41269, Pitch_bend_c, 4, 16383
7, 41276, Note_on_c, 4, 69, 0
7, 41280, Pitch_bend_c, 4, 8192
7, 41282, Note_on_c, 4, 72, 102
7, 41756, Note_on_c, 4, 72, 0
7, 41818, Note_on_c, 4, 62, 78
7, 41876, Note_on_c, 4, 62, 0
7, 41881, Note_on_c, 4, 62, 79
7, 41936, Note_on_c, 4, 62, 0
7, 41939, Note_on_c, 4, 62, 78
7, 41996, Note_on_c, 4, 62, 0
7, 41999, Note_on_c, 4, 62, 79
7, 42056, Note_on_c, 4, 62, 0
7, 42063, Note_on_c, 4, 62, 79
7, 42116, Note_on_c, 4, 62, 0
7, 42119, Note_on_c, 4, 58, 83
7, 42176, Note_on_c, 4, 58, 0
7, 42183, Note_on_c, 4, 60, 78
7, 42236, Note_on_c, 4, 60, 0
7, 42240, Note_on_c, 4, 62, 81
7, 42296, Note_on_c, 4, 62, 0
7, 42300, Note_on_c, 4, 62, 82
7, 42356, Note_on_c, 4, 62, 0
7, 42363, Note_on_c, 4, 62, 79
7, 42412, Pitch_bend_c, 4, 8192
7, 42414, Pitch_bend_c, 4, 6912
7, 42415, Pitch_bend_c, 4, 5504
7, 42416, Pitch_bend_c, 4, 4224
7, 42417, Pitch_bend_c, 4, 2816
7, 42418, Pitch_bend_c, 4, 1536
7, 42420, Pitch_bend_c, 4, 128
7, 42476, Note_on_c, 4, 62, 0
7, 42477, Note_on_c, 4, 60, 80
7, 42480, Pitch_bend_c, 4, 8192
7, 42566, Note_on_c, 4, 60, 0
7, 42602, Note_on_c, 4, 62, 118
7, 42716, Note_on_c, 4, 62, 0
7, 42720, Note_on_c, 4, 63, 118
7, 42776, Note_on_c, 4, 63, 0
7, 42779, Note_on_c, 4, 67, 83
7, 42836, Note_on_c, 4, 67, 0
7, 42839, Note_on_c, 4, 67, 80
7, 42896, Note_on_c, 4, 67, 0
7, 42897, Note_on_c, 4, 67, 80
7, 42956, Note_on_c, 4, 67, 0
7, 42957, Note_on_c, 4, 67, 80
7, 43016, Note_on_c, 4, 67, 0
7, 43021, Note_on_c, 4, 67, 80
7, 43076, Note_on_c, 4, 67, 0
7, 43078, Note_on_c, 4, 63, 81
7, 43136, Note_on_c, 4, 63, 0
7, 43137, Note_on_c, 4, 65, 80
7, 43196, Note_on_c, 4, 65, 0
7, 43197, Note_on_c, 4, 67, 79
7, 43315, Note_on_c, 4, 67, 0
7, 43322, Note_on_c, 4, 67, 81
7, 43436, Note_on_c, 4, 67, 0
7, 43443, Note_on_c, 4, 65, 80
7, 43516, Note_on_c, 4, 65, 0
7, 43518, Note_on_c, 4, 63, 79
7, 43595, Note_on_c, 4, 63, 0
7, 43603, Note_on_c, 4, 62, 80
7, 43676, Note_on_c, 4, 62, 0
7, 43679, Note_on_c, 4, 64, 81
7, 43736, Note_on_c, 4, 64, 0
7, 43739, Note_on_c, 4, 64, 82
7, 43795, Note_on_c, 4, 64, 0
7, 43802, Note_on_c, 4, 64, 79
7, 43855, Note_on_c, 4, 64, 0
7, 43857, Note_on_c, 4, 64, 82
7, 43915, Note_on_c, 4, 64, 0
7, 43921, Note_on_c, 4, 64, 79
7, 43975, Note_on_c, 4, 64, 0
7, 43980, Note_on_c, 4, 60, 80
7, 44036, Note_on_c, 4, 60, 0
7, 44039, Note_on_c, 4, 60, 79
7, 44096, Note_on_c, 4, 60, 0
7, 44101, Note_on_c, 4, 62, 83
7, 44156, Note_on_c, 4, 62, 0
7, 44162, Note_on_c, 4, 64, 81
7, 44216, Note_on_c, 4, 64, 0
7, 44219, Note_on_c, 4, 64, 82
7, 44276, Note_on_c, 4, 64, 0
7, 44278, Note_on_c, 4, 64, 80
7, 44329, Pitch_bend_c, 4, 8192
7, 44330, Pitch_bend_c, 4, 8576
7, 44331, Pitch_bend_c, 4, 9088
7, 44332, Pitch_bend_c, 4, 9472
7, 44334, Pitch_bend_c, 4, 9984
7, 44335, Pitch_bend_c, 4, 10368
7, 44336, Pitch_bend_c, 4, 10880
7, 44337, Pitch_bend_c, 4, 11264
7, 44338, Pitch_bend_c, 4, 11776
7, 44340, Pitch_bend_c, 4, 12288
7, 44341, Pitch_bend_c, 4, 12288
7, 44395, Note_on_c, 4, 64, 0
7, 44398, Pitch_bend_c, 4, 8192
7, 44400, Note_on_c, 4, 62, 81
7, 44456, Note_on_c, 4, 62, 0
7, 44519, Note_on_c, 4, 64, 120
7, 44570, Pitch_bend_c, 4, 8192
7, 44571, Pitch_bend_c, 4, 8704
7, 44572, Pitch_bend_c, 4, 9216
7, 44574, Pitch_bend_c, 4, 9728
7, 44575, Pitch_bend_c, 4, 10240
7, 44576, Pitch_bend_c, 4, 10752
7, 44577, Pitch_bend_c, 4, 11264
7, 44578, Pitch_bend_c, 4, 11776
7, 44580, Pitch_bend_c, 4, 12288
7, 44636, Note_on_c, 4, 64, 0
7, 44640, Pitch_bend_c, 4, 8192
7, 44642, Note_on_c, 4, 65, 123
7, 44696, Note_on_c, 4, 65, 0
7, 44701, Note_on_c, 4, 69, 78
7, 44756, Note_on_c, 4, 69, 0
7, 44761, Note_on_c, 4, 69, 82
7, 44816, Note_on_c, 4, 69, 0
7, 44819, Note_on_c, 4, 69, 78
7, 44876, Note_on_c, 4, 69, 0
7, 44883, Note_on_c, 4, 69, 83
7, 44936, Note_on_c, 4, 69, 0
7, 44939, Note_on_c, 4, 65, 80
7, 44996, Note_on_c, 4, 65, 0
7, 45003, Note_on_c, 4, 65, 82
7, 45056, Note_on_c, 4, 65, 0
7, 45063, Note_on_c, 4, 67, 79
7, 45116, Note_on_c, 4, 67, 0
7, 45117, Note_on_c, 4, 69, 82
7, 45176, Note_on_c, 4, 69, 0
7, 45239, Note_on_c, 4, 69, 79
7, 45356, Note_on_c, 4, 69, 0
7, 45363, Note_on_c, 4, 67, 81
7, 45416, Note_on_c, 4, 67, 0
7, 45422, Note_on_c, 4, 65, 79
7, 45476, Note_on_c, 4, 65, 0
7, 45481, Note_on_c, 4, 67, 83
7, 45596, Note_on_c, 4, 67, 0
7, 45600, Note_on_c, 4, 67, 78
7, 45651, Pitch_bend_c, 4, 8192
7, 45652, Pitch_bend_c, 4, 6912
7, 45654, Pitch_bend_c, 4, 5632
7, 45655, Pitch_bend_c, 4, 4352
7, 45656, Pitch_bend_c, 4, 3200
7, 45657, Pitch_bend_c, 4, 1920
7, 45658, Pitch_bend_c, 4, 640
7, 45660, Pitch_bend_c, 4, 0
7, 45716, Note_on_c, 4, 67, 0
7, 45720, Pitch_bend_c, 4, 8192
7, 45722, Note_on_c, 4, 65, 79
7, 45776, Note_on_c, 4, 65, 0
7, 45822, Pitch_bend_c, 4, 12288
7, 45838, Note_on_c, 4, 69, 78
7, 46041, Pitch_bend_c, 4, 12288
7, 46042, Pitch_bend_c, 4, 12160
7, 46044, Pitch_bend_c, 4, 12032
7, 46045, Pitch_bend_c, 4, 11904
7, 46046, Pitch_bend_c, 4, 11776
7, 46047, Pitch_bend_c, 4, 11648
7, 46048, Pitch_bend_c, 4, 11520
7, 46050, Pitch_bend_c, 4, 11392
7, 46051, Pitch_bend_c, 4, 11264
7, 46052, Pitch_bend_c, 4, 11136
7, 46053, Pitch_bend_c, 4, 11008
7, 46054, Pitch_bend_c, 4, 10880
7, 46056, Pitch_bend_c, 4, 10752
7, 46057, Pitch_bend_c, 4, 10624
7, 46058, Pitch_bend_c, 4, 10496
7, 46059, Pitch_bend_c, 4, 10368
7, 46060, Pitch_bend_c, 4, 10240
7, 46062, Pitch_bend_c, 4, 10112
7, 46063, Pitch_bend_c, 4, 9984
7, 46064, Pitch_bend_c, 4, 9856
7, 46065, Pitch_bend_c, 4, 9728
7, 46066, Pitch_bend_c, 4, 9600
7, 46068, Pitch_bend_c, 4, 9472
7, 46069, Pitch_bend_c, 4, 9344
7, 46070, Pitch_bend_c, 4, 9216
7, 46071, Pitch_bend_c, 4, 9088
7, 46072, Pitch_bend_c, 4, 8960
7, 46074, Pitch_bend_c, 4, 8832
7, 46075, Pitch_bend_c, 4, 8704
7, 46076, Pitch_bend_c, 4, 8576
7, 46077, Pitch_bend_c, 4, 8448
7, 46078, Pitch_bend_c, 4, 8320
7, 46080, Pitch_bend_c, 4, 8192
7, 46240, Pitch_bend_c, 4, 8192
7, 46242, Pitch_bend_c, 4, 7680
7, 46243, Pitch_bend_c, 4, 7168
7, 46244, Pitch_bend_c, 4, 6656
7, 46245, Pitch_bend_c, 4, 6144
7, 46246, Pitch_bend_c, 4, 5632
7, 46248, Pitch_bend_c, 4, 5120
7, 46249, Pitch_bend_c, 4, 4608
7, 46250, Pitch_bend_c, 4, 4096
7, 46251, Pitch_bend_c, 4, 3584
7, 46252, Pitch_bend_c, 4, 3072
7, 46254, Pitch_bend_c, 4, 2560
7, 46255, Pitch_bend_c, 4, 2048
7, 46256, Pitch_bend_c, 4, 1536
7, 46257, Pitch_bend_c, 4, 1024
7, 46258, Pitch_bend_c, 4, 512
7, 46260, Pitch_bend_c, 4, 0
7, 46376, Note_on_c, 4, 69, 0
7, 46422, Pitch_bend_c, 4, 8192
7, 46443, Note_on_c, 4, 72, 83
7, 46556, Note_on_c, 4, 72, 0
7, 46558, Note_on_c, 4, 74, 78
7, 46646, Note_on_c, 4, 74, 0
7, 46678, Note_on_c, 4, 74, 80
7, 46766, Note_on_c, 4, 74, 0
7, 46799, Note_on_c, 4, 74, 80
7, 46856, Note_on_c, 4, 74, 0
7, 46857, Note_on_c, 4, 74, 83
7, 46916, Note_on_c, 4, 74, 0
7, 46980, Note_on_c, 4, 72, 83
7, 47036, Note_on_c, 4, 72, 0
7, 47102, Note_on_c, 4, 72, 81
7, 47156, Note_on_c, 4, 72, 0
7, 47223, Note_on_c, 4, 72, 79
7, 47306, Note_on_c, 4, 72, 0
7, 47398, Note_on_c, 4, 67, 82
7, 47516, Note_on_c, 4, 67, 0
7, 47519, Note_on_c, 4, 67, 79
7, 47571, Pitch_bend_c, 4, 8192
7, 47572, Pitch_bend_c, 4, 6912
7, 47574, Pitch_bend_c, 4, 5632
7, 47575, Pitch_bend_c, 4, 4352
7, 47576, Pitch_bend_c, 4, 3200
7, 47577, Pitch_bend_c, 4, 1920
7, 47578, Pitch_bend_c, 4, 640
7, 47580, Pitch_bend_c, 4, 0
7, 47636, Note_on_c, 4, 67, 0
7, 47639, Note_on_c, 4, 65, 81
7, 47640, Pitch_bend_c, 4, 8192
7, 47696, Note_on_c, 4, 65, 0
7, 47742, Pitch_bend_c, 4, 12288
7, 47742, Pitch_bend_c, 4, 12288
7, 47762, Note_on_c, 4, 69, 80
7, 47961, Pitch_bend_c, 4, 12288
7, 47962, Pitch_bend_c, 4, 12160
7, 47964, Pitch_bend_c, 4, 12032
7, 47965, Pitch_bend_c, 4, 11904
7, 47966, Pitch_bend_c, 4, 11776
7, 47967, Pitch_bend_c, 4, 11648
7, 47968, Pitch_bend_c, 4, 11520
7, 47970, Pitch_bend_c, 4, 11392
7, 47971, Pitch_bend_c, 4, 11264
7, 47972, Pitch_bend_c, 4, 11136
7, 47973, Pitch_bend_c, 4, 11008
7, 47974, Pitch_bend_c, 4, 10880
7, 47976, Pitch_bend_c, 4, 10752
7, 47977, Pitch_bend_c, 4, 10624
7, 47978, Pitch_bend_c, 4, 10496
7, 47979, Pitch_bend_c, 4, 10368
7, 47980, Pitch_bend_c, 4, 10240
7, 47982, Pitch_bend_c, 4, 10112
7, 47983, Pitch_bend_c, 4, 9984
7, 47984, Pitch_bend_c, 4, 9856
7, 47985, Pitch_bend_c, 4, 9728
7, 47986, Pitch_bend_c, 4, 9600
7, 47988, Pitch_bend_c, 4, 9472
7, 47989, Pitch_bend_c, 4, 9344
7, 47990, Pitch_bend_c, 4, 9216
7, 47991, Pitch_bend_c, 4, 9088
7, 47992, Pitch_bend_c, 4, 8960
7, 47994, Pitch_bend_c, 4, 8832
7, 47995, Pitch_bend_c, 4, 8704
7, 47996, Pitch_bend_c, 4, 8576
7, 47997, Pitch_bend_c, 4, 8448
7, 47998, Pitch_bend_c, 4, 8320
7, 48000, Pitch_bend_c, 4, 8192
7, 48160, Pitch_bend_c, 4, 8192
7, 48162, Pitch_bend_c, 4, 7680
7, 48163, Pitch_bend_c, 4, 7168
7, 48164, Pitch_bend_c, 4, 6656
7, 48165, Pitch_bend_c, 4, 6144
7, 48166, Pitch_bend_c, 4, 5632
7, 48168, Pitch_bend_c, 4, 5120
7, 48169, Pitch_bend_c, 4, 4608
7, 48170, Pitch_bend_c, 4, 4096
7, 48171, Pitch_bend_c, 4, 3584
7, 48172, Pitch_bend_c, 4, 3072
7, 48174, Pitch_bend_c, 4, 2560
7, 48175, Pitch_bend_c, 4, 2048
7, 48176, Pitch_bend_c, 4, 1536
7, 48177, Pitch_bend_c, 4, 1024
7, 48178, Pitch_bend_c, 4, 512
7, 48180, Pitch_bend_c, 4, 0
7, 48295, Note_on_c, 4, 69, 0
7, 48342, Pitch_bend_c, 4, 8192
7, 48480, Note_on_c, 4, 74, 79
7, 48566, Note_on_c, 4, 74, 0
7, 48597, Note_on_c, 4, 74, 78
7, 48686, Note_on_c, 4, 74, 0
7, 48719, Note_on_c, 4, 74, 81
7, 48776, Note_on_c, 4, 74, 0
7, 48781, Note_on_c, 4, 74, 81
7, 48836, Note_on_c, 4, 74, 0
7, 48902, Note_on_c, 4, 72, 80
7, 48956, Note_on_c, 4, 72, 0
7, 49021, Note_on_c, 4, 72, 83
7, 49076, Note_on_c, 4, 72, 0
7, 49143, Note_on_c, 4, 72, 80
7, 49226, Note_on_c, 4, 72, 0
7, 49681, Pitch_bend_c, 4, 8192
7, 49683, Note_on_c, 4, 69, 99
7, 49686, Pitch_bend_c, 4, 8064
7, 49689, Pitch_bend_c, 4, 7936
7, 49693, Pitch_bend_c, 4, 7808
7, 49696, Pitch_bend_c, 4, 7680
7, 49700, Pitch_bend_c, 4, 7552
7, 49704, Pitch_bend_c, 4, 7424
7, 49708, Pitch_bend_c, 4, 7296
7, 49712, Pitch_bend_c, 4, 7168
7, 49716, Pitch_bend_c, 4, 7040
7, 49719, Pitch_bend_c, 4, 6912
7, 49723, Pitch_bend_c, 4, 6784
7, 49726, Pitch_bend_c, 4, 6656
7, 49731, Pitch_bend_c, 4, 6528
7, 49735, Pitch_bend_c, 4, 6400
7, 49738, Pitch_bend_c, 4, 6272
7, 49742, Pitch_bend_c, 4, 6144
7, 49746, Pitch_bend_c, 4, 6016
7, 49749, Pitch_bend_c, 4, 5888
7, 49754, Pitch_bend_c, 4, 5760
7, 49758, Pitch_bend_c, 4, 5632
7, 49761, Pitch_bend_c, 4, 5504
7, 49765, Pitch_bend_c, 4, 5376
7, 49768, Pitch_bend_c, 4, 5248
7, 49772, Pitch_bend_c, 4, 5120
7, 49776, Pitch_bend_c, 4, 4992
7, 49780, Pitch_bend_c, 4, 4864
7, 49784, Pitch_bend_c, 4, 4736
7, 49788, Pitch_bend_c, 4, 4608
7, 49791, Pitch_bend_c, 4, 4480
7, 49795, Pitch_bend_c, 4, 4352
7, 49798, Pitch_bend_c, 4, 4224
7, 49803, Pitch_bend_c, 4, 4096
7, 49807, Pitch_bend_c, 4, 3968
7, 49810, Pitch_bend_c, 4, 3840
7, 49814, Pitch_bend_c, 4, 3712
7, 49818, Pitch_bend_c, 4, 3584
7, 49821, Pitch_bend_c, 4, 3456
7, 49826, Pitch_bend_c, 4, 3328
7, 49830, Pitch_bend_c, 4, 3200
7, 49833, Pitch_bend_c, 4, 3072
7, 49837, Pitch_bend_c, 4, 2944
7, 49840, Pitch_bend_c, 4, 2816
7, 49844, Pitch_bend_c, 4, 2688
7, 49848, Pitch_bend_c, 4, 2560
7, 49852, Pitch_bend_c, 4, 2432
7, 49856, Pitch_bend_c, 4, 2304
7, 49860, Pitch_bend_c, 4, 2176
7, 49863, Pitch_bend_c, 4, 2048
7, 49867, Pitch_bend_c, 4, 1920
7, 49870, Pitch_bend_c, 4, 1792
7, 49875, Pitch_bend_c, 4, 1664
7, 49879, Pitch_bend_c, 4, 1536
7, 49882, Pitch_bend_c, 4, 1408
7, 49886, Pitch_bend_c, 4, 1280
7, 49890, Pitch_bend_c, 4, 1152
7, 49893, Pitch_bend_c, 4, 1024
7, 49898, Pitch_bend_c, 4, 896
7, 49902, Pitch_bend_c, 4, 768
7, 49905, Pitch_bend_c, 4, 640
7, 49909, Pitch_bend_c, 4, 512
7, 49912, Pitch_bend_c, 4, 384
7, 49915, Note_on_c, 4, 69, 0
7, 49916, Pitch_bend_c, 4, 256
7, 49918, Note_on_c, 4, 62, 98
7, 49920, Pitch_bend_c, 4, 8192
7, 50143, Pitch_bend_c, 4, 8192
7, 50144, Pitch_bend_c, 4, 9216
7, 50145, Pitch_bend_c, 4, 10240
7, 50146, Pitch_bend_c, 4, 11264
7, 50148, Pitch_bend_c, 4, 12288
7, 50149, Pitch_bend_c, 4, 13312
7, 50150, Pitch_bend_c, 4, 14336
7, 50151, Pitch_bend_c, 4, 15360
7, 50152, Pitch_bend_c, 4, 16383
7, 50156, Note_on_c, 4, 62, 0
7, 50160, Pitch_bend_c, 4, 8192
7, 50161, Note_on_c, 4, 69, 98
7, 50396, Note_on_c, 4, 69, 0
7, 50458, Note_on_c, 4, 65, 83
7, 50516, Note_on_c, 4, 65, 0
7, 50523, Note_on_c, 4, 65, 78
7, 50576, Note_on_c, 4, 65, 0
7, 50583, Note_on_c, 4, 65, 78
7, 50636, Note_on_c, 4, 65, 0
7, 50637, Note_on_c, 4, 65, 80
7, 50696, Note_on_c, 4, 65, 0
7, 50701, Note_on_c, 4, 65, 82
7, 50756, Note_on_c, 4, 65, 0
7, 50763, Note_on_c, 4, 62, 79
7, 50816, Note_on_c, 4, 62, 0
7, 50823, Note_on_c, 4, 64, 82
7, 50876, Note_on_c, 4, 64, 0
7, 50879, Note_on_c, 4, 65, 81
7, 50936, Note_on_c, 4, 65, 0
7, 50942, Note_on_c, 4, 65, 78
7, 50996, Note_on_c, 4, 65, 0
7, 50998, Note_on_c, 4, 65, 79
7, 51050, Pitch_bend_c, 4, 8192
7, 51051, Pitch_bend_c, 4, 7680
7, 51052, Pitch_bend_c, 4, 7168
7, 51054, Pitch_bend_c, 4, 6656
7, 51055, Pitch_bend_c, 4, 6144
7, 51056, Pitch_bend_c, 4, 5632
7, 51057, Pitch_bend_c, 4, 5120
7, 51058, Pitch_bend_c, 4, 4608
7, 51060, Pitch_bend_c, 4, 4096
7, 51116, Note_on_c, 4, 65, 0
7, 51120, Note_on_c, 4, 64, 81
7, 51120, Pitch_bend_c, 4, 8192
7, 51206, Note_on_c, 4, 64, 0
7, 51243, Note_on_c, 4, 72, 121
7, 51289, Pitch_bend_c, 4, 8192
7, 51290, Pitch_bend_c, 4, 9216
7, 51291, Pitch_bend_c, 4, 10112
7, 51292, Pitch_bend_c, 4, 11008
7, 51294, Pitch_bend_c, 4, 11904
7, 51295, Pitch_bend_c, 4, 12800
7, 51296, Pitch_bend_c, 4, 13696
7, 51297, Pitch_bend_c, 4, 14592
7, 51298, Pitch_bend_c, 4, 15488
7, 51300, Pitch_bend_c, 4, 16383
7, 51356, Note_on_c, 4, 72, 0
7, 51360, Pitch_bend_c, 4, 8192
7, 51360, Note_on_c, 4, 74, 122
7, 51386, Note_on_c, 4, 74, 0
7, 51423, Note_on_c, 4, 65, 78
7, 51476, Note_on_c, 4, 65, 0
7, 51477, Note_on_c, 4, 65, 78
7, 51536, Note_on_c, 4, 65, 0
7, 51543, Note_on_c, 4, 65, 83
7, 51596, Note_on_c, 4, 65, 0
7, 51603, Note_on_c, 4, 65, 81
7, 51656, Note_on_c, 4, 65, 0
7, 51663, Note_on_c, 4, 65, 81
7, 51716, Note_on_c, 4, 65, 0
7, 51719, Note_on_c, 4, 62, 81
7, 51776, Note_on_c, 4, 62, 0
7, 51777, Note_on_c, 4, 64, 78
7, 51836, Note_on_c, 4, 64, 0
7, 51839, Note_on_c, 4, 65, 81
7, 51955, Note_on_c, 4, 65, 0
7, 51960, Note_on_c, 4, 65, 80
7, 52076, Note_on_c, 4, 65, 0
7, 52082, Note_on_c, 4, 64, 82
7, 52156, Note_on_c, 4, 64, 0
7, 52157, Note_on_c, 4, 62, 83
7, 52235, Note_on_c, 4, 62, 0
7, 52241, Note_on_c, 4, 64, 82
7, 52316, Note_on_c, 4, 64, 0
7, 52320, Note_on_c, 4, 65, 78
7, 52376, Note_on_c, 4, 65, 0
7, 52381, Note_on_c, 4, 65, 81
7, 52435, Note_on_c, 4, 65, 0
7, 52443, Note_on_c, 4, 65, 80
7, 52495, Note_on_c, 4, 65, 0
7, 52499, Note_on_c, 4, 65, 82
7, 52555, Note_on_c, 4, 65, 0
7, 52557, Note_on_c, 4, 65, 83
7, 52615, Note_on_c, 4, 65, 0
7, 52621, Note_on_c, 4, 65, 78
7, 52676, Note_on_c, 4, 65, 0
7, 52682, Note_on_c, 4, 62, 81
7, 52736, Note_on_c, 4, 62, 0
7, 52742, Note_on_c, 4, 64, 81
7, 52796, Note_on_c, 4, 64, 0
7, 52801, Note_on_c, 4, 65, 82
7, 52856, Note_on_c, 4, 65, 0
7, 52861, Note_on_c, 4, 65, 81
7, 52916, Note_on_c, 4, 65, 0
7, 52922, Note_on_c, 4, 65, 79
7, 52966, Pitch_bend_c, 4, 8192
7, 52968, Pitch_bend_c, 4, 8960
7, 52969, Pitch_bend_c, 4, 9728
7, 52970, Pitch_bend_c, 4, 10496
7, 52971, Pitch_bend_c, 4, 11264
7, 52972, Pitch_bend_c, 4, 12032
7, 52974, Pitch_bend_c, 4, 12672
7, 52975, Pitch_bend_c, 4, 13440
7, 52976, Pitch_bend_c, 4, 14208
7, 52977, Pitch_bend_c, 4, 14976
7, 52978, Pitch_bend_c, 4, 15744
7, 52980, Pitch_bend_c, 4, 16383
7, 53035, Note_on_c, 4, 65, 0
7, 53038, Pitch_bend_c, 4, 8192
7, 53040, Note_on_c, 4, 64, 83
7, 53096, Note_on_c, 4, 64, 0
7, 53160, Note_on_c, 4, 72, 102
7, 53205, Pitch_bend_c, 4, 8192
7, 53206, Pitch_bend_c, 4, 8960
7, 53208, Pitch_bend_c, 4, 9600
7, 53209, Pitch_bend_c, 4, 10240
7, 53210, Pitch_bend_c, 4, 11008
7, 53211, Pitch_bend_c, 4, 11648
7, 53212, Pitch_bend_c, 4, 12288
7, 53214, Pitch_bend_c, 4, 13056
7, 53215, Pitch_bend_c, 4, 13696
7, 53216, Pitch_bend_c, 4, 14336
7, 53217, Pitch_bend_c, 4, 15104
7, 53218, Pitch_bend_c, 4, 15744
7, 53220, Pitch_bend_c, 4, 16383
7, 53278, Note_on_c, 4, 74, 98
7, 53279, Note_on_c, 4, 72, 0
7, 53280, Pitch_bend_c, 4, 8192
7, 53306, Note_on_c, 4, 74, 0
7, 53342, Note_on_c, 4, 65, 83
7, 53396, Note_on_c, 4, 65, 0
7, 53401, Note_on_c, 4, 65, 81
7, 53456, Note_on_c, 4, 65, 0
7, 53459, Note_on_c, 4, 65, 81
7, 53516, Note_on_c, 4, 65, 0
7, 53522, Note_on_c, 4, 65, 78
7, 53576, Note_on_c, 4, 65, 0
7, 53579, Note_on_c, 4, 65, 82
7, 53636, Note_on_c, 4, 65, 0
7, 53640, Note_on_c, 4, 62, 82
7, 53696, Note_on_c, 4, 62, 0
7, 53702, Note_on_c, 4, 64, 78
7, 53756, Note_on_c, 4, 64, 0
7, 53760, Note_on_c, 4, 65, 78
7, 53816, Note_on_c, 4, 65, 0
7, 53877, Note_on_c, 4, 65, 82
7, 53996, Note_on_c, 4, 65, 0
7, 53998, Note_on_c, 4, 64, 78
7, 54056, Note_on_c, 4, 64, 0
7, 54061, Note_on_c, 4, 62, 78
7, 54116, Note_on_c, 4, 62, 0
7, 54122, Note_on_c, 4, 64, 82
7, 54236, Note_on_c, 4, 64, 0
7, 54238, Note_on_c, 4, 67, 79
7, 54291, Pitch_bend_c, 4, 8192
7, 54292, Pitch_bend_c, 4, 6912
7, 54294, Pitch_bend_c, 4, 5632
7, 54295, Pitch_bend_c, 4, 4352
7, 54296, Pitch_bend_c, 4, 3200
7, 54297, Pitch_bend_c, 4, 1920
7, 54298, Pitch_bend_c, 4, 640
7, 54300, Pitch_bend_c, 4, 0
7, 54356, Note_on_c, 4, 67, 0
7, 54357, Note_on_c, 4, 65, 82
7, 54360, Pitch_bend_c, 4, 8192
7, 54416, Note_on_c, 4, 65, 0
7, 54462, Pitch_bend_c, 4, 12288
7, 54481, Note_on_c, 4, 64, 80
7, 54681, Pitch_bend_c, 4, 12288
7, 54682, Pitch_bend_c, 4, 12160
7, 54684, Pitch_bend_c, 4, 12032
7, 54685, Pitch_bend_c, 4, 11904
7, 54686, Pitch_bend_c, 4, 11776
7, 54687, Pitch_bend_c, 4, 11648
7, 54688, Pitch_bend_c, 4, 11520
7, 54690, Pitch_bend_c, 4, 11392
7, 54691, Pitch_bend_c, 4, 11264
7, 54692, Pitch_bend_c, 4, 11136
7, 54693, Pitch_bend_c, 4, 11008
7, 54694, Pitch_bend_c, 4, 10880
7, 54696, Pitch_bend_c, 4, 10752
7, 54697, Pitch_bend_c, 4, 10624
7, 54698, Pitch_bend_c, 4, 10496
7, 54699, Pitch_bend_c, 4, 10368
7, 54700, Pitch_bend_c, 4, 10240
7, 54702, Pitch_bend_c, 4, 10112
7, 54703, Pitch_bend_c, 4, 9984
7, 54704, Pitch_bend_c, 4, 9856
7, 54705, Pitch_bend_c, 4, 9728
7, 54706, Pitch_bend_c, 4, 9600
7, 54708, Pitch_bend_c, 4, 9472
7, 54709, Pitch_bend_c, 4, 9344
7, 54710, Pitch_bend_c, 4, 9216
7, 54711, Pitch_bend_c, 4, 9088
7, 54712, Pitch_bend_c, 4, 8960
7, 54714, Pitch_bend_c, 4, 8832
7, 54715, Pitch_bend_c, 4, 8704
7, 54716, Pitch_bend_c, 4, 8576
7, 54717, Pitch_bend_c, 4, 8448
7, 54718, Pitch_bend_c, 4, 8320
7, 54720, Pitch_bend_c, 4, 8192
7, 54880, Pitch_bend_c, 4, 8192
7, 54882, Pitch_bend_c, 4, 7680
7, 54883, Pitch_bend_c, 4, 7168
7, 54884, Pitch_bend_c, 4, 6656
7, 54885, Pitch_bend_c, 4, 6144
7, 54886, Pitch_bend_c, 4, 5632
7, 54888, Pitch_bend_c, 4, 5120
7, 54889, Pitch_bend_c, 4, 4608
7, 54890, Pitch_bend_c, 4, 4096
7, 54891, Pitch_bend_c, 4, 3584
7, 54892, Pitch_bend_c, 4, 3072
7, 54894, Pitch_bend_c, 4, 2560
7, 54895, Pitch_bend_c, 4, 2048
7, 54896, Pitch_bend_c, 4, 1536
7, 54897, Pitch_bend_c, 4, 1024
7, 54898, Pitch_bend_c, 4, 512
7, 54900, Pitch_bend_c, 4, 0
7, 54956, Note_on_c, 4, 64, 0
7, 55062, Pitch_bend_c, 4, 8192
7, 56211, Pitch_bend_c, 4, 8192
7, 56212, Pitch_bend_c, 4, 6912
7, 56214, Pitch_bend_c, 4, 5632
7, 56215, Pitch_bend_c, 4, 4352
7, 56216, Pitch_bend_c, 4, 3200
7, 56217, Pitch_bend_c, 4, 1920
7, 56218, Pitch_bend_c, 4, 640
7, 56220, Pitch_bend_c, 4, 0
7, 56280, Pitch_bend_c, 4, 8192
7, 56400, Note_on_c, 4, 74, 101
7, 56578, Pitch_bend_c, 4, 8192
7, 56580, Pitch_bend_c, 4, 8064
7, 56581, Pitch_bend_c, 4, 7936
7, 56582, Pitch_bend_c, 4, 7808
7, 56583, Pitch_bend_c, 4, 7552
7, 56584, Pitch_bend_c, 4, 7424
7, 56586, Pitch_bend_c, 4, 7296
7, 56587, Pitch_bend_c, 4, 7168
7, 56588, Pitch_bend_c, 4, 6912
7, 56589, Pitch_bend_c, 4, 6784
7, 56590, Pitch_bend_c, 4, 6656
7, 56592, Pitch_bend_c, 4, 6528
7, 56593, Pitch_bend_c, 4, 6272
7, 56594, Pitch_bend_c, 4, 6144
7, 56595, Pitch_bend_c, 4, 6016
7, 56596, Pitch_bend_c, 4, 5888
7, 56598, Pitch_bend_c, 4, 5632
7, 56599, Pitch_bend_c, 4, 5504
7, 56600, Pitch_bend_c, 4, 5376
7, 56601, Pitch_bend_c, 4, 5248
7, 56602, Pitch_bend_c, 4, 4992
7, 56604, Pitch_bend_c, 4, 4864
7, 56605, Pitch_bend_c, 4, 4736
7, 56606, Pitch_bend_c, 4, 4608
7, 56607, Pitch_bend_c, 4, 4352
7, 56608, Pitch_bend_c, 4, 4224
7, 56610, Pitch_bend_c, 4, 4096
7, 56611, Pitch_bend_c, 4, 3840
7, 56612, Pitch_bend_c, 4, 3712
7, 56613, Pitch_bend_c, 4, 3584
7, 56614, Pitch_bend_c, 4, 3456
7, 56616, Pitch_bend_c, 4, 3200
7, 56617, Pitch_bend_c, 4, 3072
7, 56618, Pitch_bend_c, 4, 2944
7, 56619, Pitch_bend_c, 4, 2816
7, 56620, Pitch_bend_c, 4, 2560
7, 56622, Pitch_bend_c, 4, 2432
7, 56623, Pitch_bend_c, 4, 2304
7, 56624, Pitch_bend_c, 4, 2176
7, 56625, Pitch_bend_c, 4, 1920
7, 56626, Pitch_bend_c, 4, 1792
7, 56628, Pitch_bend_c, 4, 1664
7, 56629, Pitch_bend_c, 4, 1536
7, 56630, Pitch_bend_c, 4, 1280
7, 56631, Pitch_bend_c, 4, 1152
7, 56632, Pitch_bend_c, 4, 1024
7, 56634, Pitch_bend_c, 4, 896
7, 56635, Pitch_bend_c, 4, 640
7, 56636, Note_on_c, 4, 74, 0
7, 56636, Pitch_bend_c, 4, 512
7, 56637, Pitch_bend_c, 4, 384
7, 56638, Pitch_bend_c, 4, 128
7, 56638, Note_on_c, 4, 72, 100
7, 56640, Pitch_bend_c, 4, 8192
7, 57116, Note_on_c, 4, 72, 0
7, 57171, Pitch_bend_c, 4, 8192
7, 57172, Pitch_bend_c, 4, 6912
7, 57174, Pitch_bend_c, 4, 5632
7, 57175, Pitch_bend_c, 4, 4352
7, 57176, Pitch_bend_c, 4, 3200
7, 57177, Pitch_bend_c, 4, 1920
7, 57178, Pitch_bend_c, 4, 640
7, 57180, Pitch_bend_c, 4, 0
7, 57240, Pitch_bend_c, 4, 8192
7, 57360, Note_on_c, 4, 74, 101
7, 57538, Pitch_bend_c, 4, 8192
7, 57540, Pitch_bend_c, 4, 8064
7, 57541, Pitch_bend_c, 4, 7936
7, 57542, Pitch_bend_c, 4, 7808
7, 57543, Pitch_bend_c, 4, 7552
7, 57544, Pitch_bend_c, 4, 7424
7, 57546, Pitch_bend_c, 4, 7296
7, 57547, Pitch_bend_c, 4, 7168
7, 57548, Pitch_bend_c, 4, 6912
7, 57549, Pitch_bend_c, 4, 6784
7, 57550, Pitch_bend_c, 4, 6656
7, 57552, Pitch_bend_c, 4, 6528
7, 57553, Pitch_bend_c, 4, 6272
7, 57554, Pitch_bend_c, 4, 6144
7, 57555, Pitch_bend_c, 4, 6016
7, 57556, Pitch_bend_c, 4, 5888
7, 57558, Pitch_bend_c, 4, 5632
7, 57559, Pitch_bend_c, 4, 5504
7, 57560, Pitch_bend_c, 4, 5376
7, 57561, Pitch_bend_c, 4, 5248
7, 57562, Pitch_bend_c, 4, 4992
7, 57564, Pitch_bend_c, 4, 4864
7, 57565, Pitch_bend_c, 4, 4736
7, 57566, Pitch_bend_c, 4, 4608
7, 57567, Pitch_bend_c, 4, 4352
7, 57568, Pitch_bend_c, 4, 4224
7, 57570, Pitch_bend_c, 4, 4096
7, 57571, Pitch_bend_c, 4, 3840
7, 57572, Pitch_bend_c, 4, 3712
7, 57573, Pitch_bend_c, 4, 3584
7, 57574, Pitch_bend_c, 4, 3456
7, 57576, Pitch_bend_c, 4, 3200
7, 57577, Pitch_bend_c, 4, 3072
7, 57578, Pitch_bend_c, 4, 2944
7, 57579, Pitch_bend_c, 4, 2816
7, 57580, Pitch_bend_c, 4, 2560
7, 57582, Pitch_bend_c, 4, 2432
7, 57583, Pitch_bend_c, 4, 2304
7, 57584, Pitch_bend_c, 4, 2176
7, 57585, Pitch_bend_c, 4, 1920
7, 57586, Pitch_bend_c, 4, 1792
7, 57588, Pitch_bend_c, 4, 1664
7, 57589, Pitch_bend_c, 4, 1536
7, 57590, Pitch_bend_c, 4, 1280
7, 57591, Pitch_bend_c, 4, 1152
7, 57592, Pitch_bend_c, 4, 1024
7, 57594, Pitch_bend_c, 4, 896
7, 57595, Pitch_bend_c, 4, 640
7, 57596, Note_on_c, 4, 74, 0
7, 57596, Pitch_bend_c, 4, 512
7, 57597, Pitch_bend_c, 4, 384
7, 57598, Pitch_bend_c, 4, 128
7, 57600, Pitch_bend_c, 4, 8192
7, 57602, Note_on_c, 4, 72, 100
7, 58076, Note_on_c, 4, 72, 0
7, 58131, Pitch_bend_c, 4, 8192
7, 58132, Pitch_bend_c, 4, 6912
7, 58134, Pitch_bend_c, 4, 5632
7, 58135, Pitch_bend_c, 4, 4352
7, 58136, Pitch_bend_c, 4, 3200
7, 58137, Pitch_bend_c, 4, 1920
7, 58138, Pitch_bend_c, 4, 640
7, 58140, Pitch_bend_c, 4, 0
7, 58200, Pitch_bend_c, 4, 8192
7, 58323, Note_on_c, 4, 74, 101
7, 58498, Pitch_bend_c, 4, 8192
7, 58500, Pitch_bend_c, 4, 8064
7, 58501, Pitch_bend_c, 4, 7936
7, 58502, Pitch_bend_c, 4, 7808
7, 58503, Pitch_bend_c, 4, 7552
7, 58504, Pitch_bend_c, 4, 7424
7, 58506, Pitch_bend_c, 4, 7296
7, 58507, Pitch_bend_c, 4, 7168
7, 58508, Pitch_bend_c, 4, 6912
7, 58509, Pitch_bend_c, 4, 6784
7, 58510, Pitch_bend_c, 4, 6656
7, 58512, Pitch_bend_c, 4, 6528
7, 58513, Pitch_bend_c, 4, 6272
7, 58514, Pitch_bend_c, 4, 6144
7, 58515, Pitch_bend_c, 4, 6016
7, 58516, Pitch_bend_c, 4, 5888
7, 58518, Pitch_bend_c, 4, 5632
7, 58519, Pitch_bend_c, 4, 5504
7, 58520, Pitch_bend_c, 4, 5376
7, 58521, Pitch_bend_c, 4, 5248
7, 58522, Pitch_bend_c, 4, 4992
7, 58524, Pitch_bend_c, 4, 4864
7, 58525, Pitch_bend_c, 4, 4736
7, 58526, Pitch_bend_c, 4, 4608
7, 58527, Pitch_bend_c, 4, 4352
7, 58528, Pitch_bend_c, 4, 4224
7, 58530, Pitch_bend_c, 4, 4096
7, 58531, Pitch_bend_c, 4, 3840
7, 58532, Pitch_bend_c, 4, 3712
7, 58533, Pitch_bend_c, 4, 3584
7, 58534, Pitch_bend_c, 4, 3456
7, 58536, Pitch_bend_c, 4, 3200
7, 58537, Pitch_bend_c, 4, 3072
7, 58538, Pitch_bend_c, 4, 2944
7, 58539, Pitch_bend_c, 4, 2816
7, 58540, Pitch_bend_c, 4, 2560
7, 58542, Pitch_bend_c, 4, 2432
7, 58543, Pitch_bend_c, 4, 2304
7, 58544, Pitch_bend_c, 4, 2176
7, 58545, Pitch_bend_c, 4, 1920
7, 58546, Pitch_bend_c, 4, 1792
7, 58548, Pitch_bend_c, 4, 1664
7, 58549, Pitch_bend_c, 4, 1536
7, 58550, Pitch_bend_c, 4, 1280
7, 58551, Pitch_bend_c, 4, 1152
7, 58552, Pitch_bend_c, 4, 1024
7, 58554, Pitch_bend_c, 4, 896
7, 58555, Pitch_bend_c, 4, 640
7, 58556, Note_on_c, 4, 74, 0
7, 58556, Pitch_bend_c, 4, 512
7, 58557, Pitch_bend_c, 4, 384
7, 58558, Pitch_bend_c, 4, 128
7, 58560, Note_on_c, 4, 72, 103
7, 58560, Pitch_bend_c, 4, 8192
7, 59036, Note_on_c, 4, 72, 0
7, 59091, Pitch_bend_c, 4, 8192
7, 59092, Pitch_bend_c, 4, 6912
7, 59094, Pitch_bend_c, 4, 5632
7, 59095, Pitch_bend_c, 4, 4352
7, 59096, Pitch_bend_c, 4, 3200
7, 59097, Pitch_bend_c, 4, 1920
7, 59098, Pitch_bend_c, 4, 640
7, 59100, Pitch_bend_c, 4, 0
7, 59160, Pitch_bend_c, 4, 8192
7, 59278, Note_on_c, 4, 74, 102
7, 59458, Pitch_bend_c, 4, 8192
7, 59460, Pitch_bend_c, 4, 8064
7, 59461, Pitch_bend_c, 4, 7936
7, 59462, Pitch_bend_c, 4, 7808
7, 59463, Pitch_bend_c, 4, 7552
7, 59464, Pitch_bend_c, 4, 7424
7, 59466, Pitch_bend_c, 4, 7296
7, 59467, Pitch_bend_c, 4, 7168
7, 59468, Pitch_bend_c, 4, 6912
7, 59469, Pitch_bend_c, 4, 6784
7, 59470, Pitch_bend_c, 4, 6656
7, 59472, Pitch_bend_c, 4, 6528
7, 59473, Pitch_bend_c, 4, 6272
7, 59474, Pitch_bend_c, 4, 6144
7, 59475, Pitch_bend_c, 4, 6016
7, 59476, Pitch_bend_c, 4, 5888
7, 59478, Pitch_bend_c, 4, 5632
7, 59479, Pitch_bend_c, 4, 5504
7, 59480, Pitch_bend_c, 4, 5376
7, 59481, Pitch_bend_c, 4, 5248
7, 59482, Pitch_bend_c, 4, 4992
7, 59484, Pitch_bend_c, 4, 4864
7, 59485, Pitch_bend_c, 4, 4736
7, 59486, Pitch_bend_c, 4, 4608
7, 59487, Pitch_bend_c, 4, 4352
7, 59488, Pitch_bend_c, 4, 4224
7, 59490, Pitch_bend_c, 4, 4096
7, 59491, Pitch_bend_c, 4, 3840
7, 59492, Pitch_bend_c, 4, 3712
7, 59493, Pitch_bend_c, 4, 3584
7, 59494, Pitch_bend_c, 4, 3456
7, 59496, Pitch_bend_c, 4, 3200
7, 59497, Pitch_bend_c, 4, 3072
7, 59498, Pitch_bend_c, 4, 2944
7, 59499, Pitch_bend_c, 4, 2816
7, 59500, Pitch_bend_c, 4, 2560
7, 59502, Pitch_bend_c, 4, 2432
7, 59503, Pitch_bend_c, 4, 2304
7, 59504, Pitch_bend_c, 4, 2176
7, 59505, Pitch_bend_c, 4, 1920
7, 59506, Pitch_bend_c, 4, 1792
7, 59508, Pitch_bend_c, 4, 1664
7, 59509, Pitch_bend_c, 4, 1536
7, 59510, Pitch_bend_c, 4, 1280
7, 59511, Pitch_bend_c, 4, 1152
7, 59512, Pitch_bend_c, 4, 1024
7, 59514, Pitch_bend_c, 4, 896
7, 59515, Pitch_bend_c, 4, 640
7, 59516, Note_on_c, 4, 74, 0
7, 59516, Pitch_bend_c, 4, 512
7, 59517, Pitch_bend_c, 4, 384
7, 59518, Pitch_bend_c, 4, 128
7, 59520, Pitch_bend_c, 4, 8192
7, 59521, Note_on_c, 4, 72, 98
7, 59996, Note_on_c, 4, 72, 0
7, 60000, Control_c, 4, 11, 127
7, 60031, Control_c, 4, 11, 126
7, 60051, Pitch_bend_c, 4, 8192
7, 60052, Pitch_bend_c, 4, 6912
7, 60054, Pitch_bend_c, 4, 5632
7, 60055, Pitch_bend_c, 4, 4352
7, 60056, Pitch_bend_c, 4, 3200
7, 60057, Pitch_bend_c, 4, 1920
7, 60058, Pitch_bend_c, 4, 640
7, 60060, Pitch_bend_c, 4, 0
7, 60062, Control_c, 4, 11, 125
7, 60093, Control_c, 4, 11, 124
7, 60120, Pitch_bend_c, 4, 8192
7, 60124, Control_c, 4, 11, 123
7, 60155, Control_c, 4, 11, 122
7, 60187, Control_c, 4, 11, 121
7, 60218, Control_c, 4, 11, 120
7, 60240, Note_on_c, 4, 74, 101
7, 60249, Control_c, 4, 11, 119
7, 60280, Control_c, 4, 11, 118
7, 60311, Control_c, 4, 11, 117
7, 60342, Control_c, 4, 11, 116
7, 60374, Control_c, 4, 11, 115
7, 60405, Control_c, 4, 11, 114
7, 60418, Pitch_bend_c, 4, 8192
7, 60420, Pitch_bend_c, 4, 8064
7, 60421, Pitch_bend_c, 4, 7936
7, 60422, Pitch_bend_c, 4, 7808
7, 60423, Pitch_bend_c, 4, 7552
7, 60424, Pitch_bend_c, 4, 7424
7, 60426, Pitch_bend_c, 4, 7296
7, 60427, Pitch_bend_c, 4, 7168
7, 60428, Pitch_bend_c, 4, 6912
7, 60429, Pitch_bend_c, 4, 6784
7, 60430, Pitch_bend_c, 4, 6656
7, 60432, Pitch_bend_c, 4, 6528
7, 60433, Pitch_bend_c, 4, 6272
7, 60434, Pitch_bend_c, 4, 6144
7, 60435, Pitch_bend_c, 4, 6016
7, 60436, Pitch_bend_c, 4, 5888
7, 60436, Control_c, 4, 11, 113
7, 60438, Pitch_bend_c, 4, 5632
7, 60439, Pitch_bend_c, 4, 5504
7, 60440, Pitch_bend_c, 4, 5376
7, 60441, Pitch_bend_c, 4, 5248
7, 60442, Pitch_bend_c, 4, 4992
7, 60444, Pitch_bend_c, 4, 4864
7, 60445, Pitch_bend_c, 4, 4736
7, 60446, Pitch_bend_c, 4, 4608
7, 60447, Pitch_bend_c, 4, 4352
7, 60448, Pitch_bend_c, 4, 4224
7, 60450, Pitch_bend_c, 4, 4096
7, 60451, Pitch_bend_c, 4, 3840
7, 60452, Pitch_bend_c, 4, 3712
7, 60453, Pitch_bend_c, 4, 3584
7, 60454, Pitch_bend_c, 4, 3456
7, 60456, Pitch_bend_c, 4, 3200
7, 60457, Pitch_bend_c, 4, 3072
7, 60458, Pitch_bend_c, 4, 2944
7, 60459, Pitch_bend_c, 4, 2816
7, 60460, Pitch_bend_c, 4, 2560
7, 60462, Pitch_bend_c, 4, 2432
7, 60463, Pitch_bend_c, 4, 2304
7, 60464, Pitch_bend_c, 4, 2176
7, 60465, Pitch_bend_c, 4, 1920
7, 60466, Pitch_bend_c, 4, 1792
7, 60467, Control_c, 4, 11, 112
7, 60468, Pitch_bend_c, 4, 1664
7, 60469, Pitch_bend_c, 4, 1536
7, 60470, Pitch_bend_c, 4, 1280
7, 60471, Pitch_bend_c, 4, 1152
7, 60472, Pitch_bend_c, 4, 1024
7, 60474, Pitch_bend_c, 4, 896
7, 60475, Pitch_bend_c, 4, 640
7, 60476, Note_on_c, 4, 74, 0
7, 60476, Pitch_bend_c, 4, 512
7, 60477, Pitch_bend_c, 4, 384
7, 60478, Pitch_bend_c, 4, 128
7, 60478, Note_on_c, 4, 72, 100
7, 60480, Pitch_bend_c, 4, 8192
7, 60498, Control_c, 4, 11, 111
7, 60530, Control_c, 4, 11, 110
7, 60561, Control_c, 4, 11, 109
7, 60592, Control_c, 4, 11, 108
7, 60623, Control_c, 4, 11, 107
7, 60654, Control_c, 4, 11, 106
7, 60685, Control_c, 4, 11, 105
7, 60717, Control_c, 4, 11, 104
7, 60748, Control_c, 4, 11, 103
7, 60779, Control_c, 4, 11, 102
7, 60810, Control_c, 4, 11, 101
7, 60841, Control_c, 4, 11, 100
7, 60873, Control_c, 4, 11, 99
7, 60904, Control_c, 4, 11, 98
7, 60935, Control_c, 4, 11, 97
7, 60956, Note_on_c, 4, 72, 0
7, 60966, Control_c, 4, 11, 96
7, 60997, Control_c, 4, 11, 95
7, 61011, Pitch_bend_c, 4, 8192
7, 61012, Pitch_bend_c, 4, 6912
7, 61014, Pitch_bend_c, 4, 5632
7, 61015, Pitch_bend_c, 4, 4352
7, 61016, Pitch_bend_c, 4, 3200
7, 61017, Pitch_bend_c, 4, 1920
7, 61018, Pitch_bend_c, 4, 640
7, 61020, Pitch_bend_c, 4, 0
7, 61028, Control_c, 4, 11, 94
7, 61060, Control_c, 4, 11, 93
7, 61080, Pitch_bend_c, 4, 8192
7, 61091, Control_c, 4, 11, 92
7, 61122, Control_c, 4, 11, 91
7, 61153, Control_c, 4, 11, 90
7, 61184, Control_c, 4, 11, 89
7, 61200, Note_on_c, 4, 74, 101
7, 61216, Control_c, 4, 11, 88
7, 61247, Control_c, 4, 11, 87
7, 61278, Control_c, 4, 11, 86
7, 61309, Control_c, 4, 11, 85
7, 61340, Control_c, 4, 11, 84
7, 61371, Control_c, 4, 11, 83
7, 61378, Pitch_bend_c, 4, 8192
7, 61380, Pitch_bend_c, 4, 8064
7, 61381, Pitch_bend_c, 4, 7936
7, 61382, Pitch_bend_c, 4, 7808
7, 61383, Pitch_bend_c, 4, 7552
7, 61384, Pitch_bend_c, 4, 7424
7, 61386, Pitch_bend_c, 4, 7296
7, 61387, Pitch_bend_c, 4, 7168
7, 61388, Pitch_bend_c, 4, 6912
7, 61389, Pitch_bend_c, 4, 6784
7, 61390, Pitch_bend_c, 4, 6656
7, 61392, Pitch_bend_c, 4, 6528
7, 61393, Pitch_bend_c, 4, 6272
7, 61394, Pitch_bend_c, 4, 6144
7, 61395, Pitch_bend_c, 4, 6016
7, 61396, Pitch_bend_c, 4, 5888
7, 61398, Pitch_bend_c, 4, 5632
7, 61399, Pitch_bend_c, 4, 5504
7, 61400, Pitch_bend_c, 4, 5376
7, 61401, Pitch_bend_c, 4, 5248
7, 61402, Pitch_bend_c, 4, 4992
7, 61403, Control_c, 4, 11, 82
7, 61404, Pitch_bend_c, 4, 4864
7, 61405, Pitch_bend_c, 4, 4736
7, 61406, Pitch_bend_c, 4, 4608
7, 61407, Pitch_bend_c, 4, 4352
7, 61408, Pitch_bend_c, 4, 4224
7, 61410, Pitch_bend_c, 4, 4096
7, 61411, Pitch_bend_c, 4, 3840
7, 61412, Pitch_bend_c, 4, 3712
7, 61413, Pitch_bend_c, 4, 3584
7, 61414, Pitch_bend_c, 4, 3456
7, 61416, Pitch_bend_c, 4, 3200
7, 61417, Pitch_bend_c, 4, 3072
7, 61418, Pitch_bend_c, 4, 2944
7, 61419, Pitch_bend_c, 4, 2816
7, 61420, Pitch_bend_c, 4, 2560
7, 61422, Pitch_bend_c, 4, 2432
7, 61423, Pitch_bend_c, 4, 2304
7, 61424, Pitch_bend_c, 4, 2176
7, 61425, Pitch_bend_c, 4, 1920
7, 61426, Pitch_bend_c, 4, 1792
7, 61428, Pitch_bend_c, 4, 1664
7, 61429, Pitch_bend_c, 4, 1536
7, 61430, Pitch_bend_c, 4, 1280
7, 61431, Pitch_bend_c, 4, 1152
7, 61432, Pitch_bend_c, 4, 1024
7, 61434, Control_c, 4, 11, 81
7, 61434, Pitch_bend_c, 4, 896
7, 61435, Pitch_bend_c, 4, 640
7, 61436, Note_on_c, 4, 74, 0
7, 61436, Pitch_bend_c, 4, 512
7, 61437, Pitch_bend_c, 4, 384
7, 61438, Pitch_bend_c, 4, 128
7, 61440, Pitch_bend_c, 4, 8192
7, 61465, Control_c, 4, 11, 80
7, 61496, Control_c, 4, 11, 79
7, 61527, Control_c, 4, 11, 78
7, 61559, Control_c, 4, 11, 77
7, 61590, Control_c, 4, 11, 76
7, 61621, Control_c, 4, 11, 75
7, 61652, Control_c, 4, 11, 74
7, 61683, Control_c, 4, 11, 73
7, 61714, Control_c, 4, 11, 72
7, 61746, Control_c, 4, 11, 71
7, 61777, Control_c, 4, 11, 70
7, 61808, Control_c, 4, 11, 69
7, 61839, Control_c, 4, 11, 68
7, 61870, Control_c, 4, 11, 67
7, 61902, Control_c, 4, 11, 66
7, 61933, Control_c, 4, 11, 65
7, 61964, Control_c, 4, 11, 64
7, 61971, Pitch_bend_c, 4, 8192
7, 61972, Pitch_bend_c, 4, 6912
7, 61974, Pitch_bend_c, 4, 5632
7, 61975, Pitch_bend_c, 4, 4352
7, 61976, Pitch_bend_c, 4, 3200
7, 61977, Pitch_bend_c, 4, 1920
7, 61978, Pitch_bend_c, 4, 640
7, 61980, Pitch_bend_c, 4, 0
7, 61995, Control_c, 4, 11, 63
7, 62026, Control_c, 4, 11, 62
7, 62040, Pitch_bend_c, 4, 8192
7, 62057, Control_c, 4, 11, 61
7, 62089, Control_c, 4, 11, 60
7, 62120, Control_c, 4, 11, 59
7, 62151, Control_c, 4, 11, 58
7, 62158, Note_on_c, 4, 74, 101
7, 62182, Control_c, 4, 11, 57
7, 62213, Control_c, 4, 11, 56
7, 62245, Control_c, 4, 11, 55
7, 62276, Control_c, 4, 11, 54
7, 62307, Control_c, 4, 11, 53
7, 62338, Pitch_bend_c, 4, 8192
7, 62338, Control_c, 4, 11, 52
7, 62340, Pitch_bend_c, 4, 8064
7, 62341, Pitch_bend_c, 4, 7936
7, 62342, Pitch_bend_c, 4, 7808
7, 62343, Pitch_bend_c, 4, 7552
7, 62344, Pitch_bend_c, 4, 7424
7, 62346, Pitch_bend_c, 4, 7296
7, 62347, Pitch_bend_c, 4, 7168
7, 62348, Pitch_bend_c, 4, 6912
7, 62349, Pitch_bend_c, 4, 6784
7, 62350, Pitch_bend_c, 4, 6656
7, 62352, Pitch_bend_c, 4, 6528
7, 62353, Pitch_bend_c, 4, 6272
7, 62354, Pitch_bend_c, 4, 6144
7, 62355, Pitch_bend_c, 4, 6016
7, 62356, Pitch_bend_c, 4, 5888
7, 62358, Pitch_bend_c, 4, 5632
7, 62359, Pitch_bend_c, 4, 5504
7, 62360, Pitch_bend_c, 4, 5376
7, 62361, Pitch_bend_c, 4, 5248
7, 62362, Pitch_bend_c, 4, 4992
7, 62364, Pitch_bend_c, 4, 4864
7, 62365, Pitch_bend_c, 4, 4736
7, 62366, Pitch_bend_c, 4, 4608
7, 62367, Pitch_bend_c, 4, 4352
7, 62368, Pitch_bend_c, 4, 4224
7, 62369, Control_c, 4, 11, 51
7, 62370, Pitch_bend_c, 4, 4096
7, 62371, Pitch_bend_c, 4, 3840
7, 62372, Pitch_bend_c, 4, 3712
7, 62373, Pitch_bend_c, 4, 3584
7, 62374, Pitch_bend_c, 4, 3456
7, 62376, Pitch_bend_c, 4, 3200
7, 62377, Pitch_bend_c, 4, 3072
7, 62378, Pitch_bend_c, 4, 2944
7, 62379, Pitch_bend_c, 4, 2816
7, 62380, Pitch_bend_c, 4, 2560
7, 62382, Pitch_bend_c, 4, 2432
7, 62383, Pitch_bend_c, 4, 2304
7, 62384, Pitch_bend_c, 4, 2176
7, 62385, Pitch_bend_c, 4, 1920
7, 62386, Pitch_bend_c, 4, 1792
7, 62388, Pitch_bend_c, 4, 1664
7, 62389, Pitch_bend_c, 4, 1536
7, 62390, Pitch_bend_c, 4, 1280
7, 62391, Pitch_bend_c, 4, 1152
7, 62392, Pitch_bend_c, 4, 1024
7, 62394, Pitch_bend_c, 4, 896
7, 62395, Pitch_bend_c, 4, 640
7, 62396, Note_on_c, 4, 74, 0
7, 62396, Pitch_bend_c, 4, 512
7, 62397, Pitch_bend_c, 4, 384
7, 62397, Note_on_c, 4, 72, 103
7, 62398, Pitch_bend_c, 4, 128
7, 62400, Control_c, 4, 11, 50
7, 62400, Pitch_bend_c, 4, 8192
7, 62432, Control_c, 4, 11, 49
7, 62463, Control_c, 4, 11, 48
7, 62494, Control_c, 4, 11, 47
7, 62525, Control_c, 4, 11, 46
7, 62556, Control_c, 4, 11, 45
7, 62588, Control_c, 4, 11, 44
7, 62619, Control_c, 4, 11, 43
7, 62650, Control_c, 4, 11, 42
7, 62681, Control_c, 4, 11, 41
7, 62712, Control_c, 4, 11, 40
7, 62743, Control_c, 4, 11, 39
7, 62775, Control_c, 4, 11, 38
7, 62806, Control_c, 4, 11, 37
7, 62837, Control_c, 4, 11, 36
7, 62868, Control_c, 4, 11, 35
7, 62876, Note_on_c, 4, 72, 0
7, 62899, Control_c, 4, 11, 34
7, 62931, Pitch_bend_c, 4, 8192
7, 62931, Control_c, 4, 11, 33
7, 62932, Pitch_bend_c, 4, 6912
7, 62934, Pitch_bend_c, 4, 5632
7, 62935, Pitch_bend_c, 4, 4352
7, 62936, Pitch_bend_c, 4, 3200
7, 62937, Pitch_bend_c, 4, 1920
7, 62938, Pitch_bend_c, 4, 640
7, 62940, Pitch_bend_c, 4, 0
7, 62962, Control_c, 4, 11, 32
7, 62993, Control_c, 4, 11, 31
7, 63000, Pitch_bend_c, 4, 8192
7, 63024, Control_c, 4, 11, 30
7, 63055, Control_c, 4, 11, 29
7, 63086, Control_c, 4, 11, 28
7, 63118, Control_c, 4, 11, 27
7, 63121, Note_on_c, 4, 74, 101
7, 63149, Control_c, 4, 11, 26
7, 63180, Control_c, 4, 11, 25
7, 63211, Control_c, 4, 11, 24
7, 63242, Control_c, 4, 11, 23
7, 63274, Control_c, 4, 11, 22
7, 63298, Pitch_bend_c, 4, 8192
7, 63300, Pitch_bend_c, 4, 8064
7, 63301, Pitch_bend_c, 4, 7936
7, 63302, Pitch_bend_c, 4, 7808
7, 63303, Pitch_bend_c, 4, 7552
7, 63304, Pitch_bend_c, 4, 7424
7, 63305, Control_c, 4, 11, 21
7, 63306, Pitch_bend_c, 4, 7296
7, 63307, Pitch_bend_c, 4, 7168
7, 63308, Pitch_bend_c, 4, 6912
7, 63309, Pitch_bend_c, 4, 6784
7, 63310, Pitch_bend_c, 4, 6656
7, 63312, Pitch_bend_c, 4, 6528
7, 63313, Pitch_bend_c, 4, 6272
7, 63314, Pitch_bend_c, 4, 6144
7, 63315, Pitch_bend_c, 4, 6016
7, 63316, Pitch_bend_c, 4, 5888
7, 63318, Pitch_bend_c, 4, 5632
7, 63319, Pitch_bend_c, 4, 5504
7, 63320, Pitch_bend_c, 4, 5376
7, 63321, Pitch_bend_c, 4, 5248
7, 63322, Pitch_bend_c, 4, 4992
7, 63324, Pitch_bend_c, 4, 4864
7, 63325, Pitch_bend_c, 4, 4736
7, 63326, Pitch_bend_c, 4, 4608
7, 63327, Pitch_bend_c, 4, 4352
7, 63328, Pitch_bend_c, 4, 4224
7, 63330, Pitch_bend_c, 4, 4096
7, 63331, Pitch_bend_c, 4, 3840
7, 63332, Pitch_bend_c, 4, 3712
7, 63333, Pitch_bend_c, 4, 3584
7, 63334, Pitch_bend_c, 4, 3456
7, 63336, Pitch_bend_c, 4, 3200
7, 63336, Control_c, 4, 11, 20
7, 63337, Pitch_bend_c, 4, 3072
7, 63338, Pitch_bend_c, 4, 2944
7, 63339, Pitch_bend_c, 4, 2816
7, 63340, Pitch_bend_c, 4, 2560
7, 63342, Pitch_bend_c, 4, 2432
7, 63343, Pitch_bend_c, 4, 2304
7, 63344, Pitch_bend_c, 4, 2176
7, 63345, Pitch_bend_c, 4, 1920
7, 63346, Pitch_bend_c, 4, 1792
7, 63348, Pitch_bend_c, 4, 1664
7, 63349, Pitch_bend_c, 4, 1536
7, 63350, Pitch_bend_c, 4, 1280
7, 63351, Pitch_bend_c, 4, 1152
7, 63352, Pitch_bend_c, 4, 1024
7, 63354, Pitch_bend_c, 4, 896
7, 63355, Pitch_bend_c, 4, 640
7, 63356, Note_on_c, 4, 74, 0
7, 63356, Pitch_bend_c, 4, 512
7, 63357, Pitch_bend_c, 4, 384
7, 63358, Pitch_bend_c, 4, 128
7, 63360, Pitch_bend_c, 4, 8192
7, 63360, Note_on_c, 4, 72, 102
7, 63367, Control_c, 4, 11, 19
7, 63398, Control_c, 4, 11, 18
7, 63429, Control_c, 4, 11, 17
7, 63461, Control_c, 4, 11, 16
7, 63492, Control_c, 4, 11, 15
7, 63523, Control_c, 4, 11, 14
7, 63554, Control_c, 4, 11, 13
7, 63585, Control_c, 4, 11, 12
7, 63617, Control_c, 4, 11, 11
7, 63648, Control_c, 4, 11, 10
7, 63679, Control_c, 4, 11, 9
7, 63710, Control_c, 4, 11, 8
7, 63741, Control_c, 4, 11, 7
7, 63772, Control_c, 4, 11, 6
7, 63804, Control_c, 4, 11, 5
7, 63835, Control_c, 4, 11, 4
7, 63836, Note_on_c, 4, 72, 0
7, 63866, Control_c, 4, 11, 3
7, 63897, Control_c, 4, 11, 2
7, 63928, Control_c, 4, 11, 1
7, 63960, Control_c, 4, 11, 0
7, 64101, Control_c, 4, 11, 127
7, 64101, End_track
8, 0, Start_track
8, 0, MIDI_port, 0
8, 0, Program_c, 8, 85
8, 0, Control_c, 8, 7, 85
8, 0, Control_c, 8, 10, 88
8, 0, Control_c, 8, 93, 13
8, 0, Control_c, 8, 93, 13
8, 0, Control_c, 8, 91, 99
8, 0, Control_c, 8, 93, 13
8, 13981, Note_on_c, 8, 62, 83
8, 14036, Note_on_c, 8, 62, 0
8, 14043, Note_on_c, 8, 62, 82
8, 14096, Note_on_c, 8, 62, 0
8, 14097, Note_on_c, 8, 62, 82
8, 14156, Note_on_c, 8, 62, 0
8, 14161, Note_on_c, 8, 62, 78
8, 14216, Note_on_c, 8, 62, 0
8, 14217, Note_on_c, 8, 62, 79
8, 14276, Note_on_c, 8, 62, 0
8, 14283, Note_on_c, 8, 58, 80
8, 14336, Note_on_c, 8, 58, 0
8, 14340, Note_on_c, 8, 60, 81
8, 14396, Note_on_c, 8, 60, 0
8, 14397, Note_on_c, 8, 62, 82
8, 14456, Note_on_c, 8, 62, 0
8, 14459, Note_on_c, 8, 62, 83
8, 14516, Note_on_c, 8, 62, 0
8, 14518, Note_on_c, 8, 62, 82
8, 14568, Pitch_bend_c, 8, 8192
8, 14569, Pitch_bend_c, 8, 7296
8, 14570, Pitch_bend_c, 8, 6400
8, 14571, Pitch_bend_c, 8, 5504
8, 14572, Pitch_bend_c, 8, 4608
8, 14574, Pitch_bend_c, 8, 3712
8, 14575, Pitch_bend_c, 8, 2816
8, 14576, Pitch_bend_c, 8, 1920
8, 14577, Pitch_bend_c, 8, 1024
8, 14578, Pitch_bend_c, 8, 128
8, 14580, Pitch_bend_c, 8, 0
8, 14636, Note_on_c, 8, 62, 0
8, 14640, Note_on_c, 8, 60, 82
8, 14640, Pitch_bend_c, 8, 8192
8, 14726, Note_on_c, 8, 60, 0
8, 14761, Note_on_c, 8, 65, 123
8, 14876, Note_on_c, 8, 65, 0
8, 14877, Note_on_c, 8, 67, 118
8, 14936, Note_on_c, 8, 67, 0
8, 14939, Note_on_c, 8, 67, 78
8, 14996, Note_on_c, 8, 67, 0
8, 15000, Note_on_c, 8, 67, 79
8, 15056, Note_on_c, 8, 67, 0
8, 15060, Note_on_c, 8, 67, 82
8, 15116, Note_on_c, 8, 67, 0
8, 15120, Note_on_c, 8, 67, 79
8, 15176, Note_on_c, 8, 67, 0
8, 15179, Note_on_c, 8, 67, 83
8, 15236, Note_on_c, 8, 67, 0
8, 15240, Note_on_c, 8, 63, 80
8, 15296, Note_on_c, 8, 63, 0
8, 15299, Note_on_c, 8, 65, 83
8, 15356, Note_on_c, 8, 65, 0
8, 15361, Note_on_c, 8, 67, 82
8, 15475, Note_on_c, 8, 67, 0
8, 15479, Note_on_c, 8, 67, 80
8, 15596, Note_on_c, 8, 67, 0
8, 15597, Note_on_c, 8, 65, 81
8, 15676, Note_on_c, 8, 65, 0
8, 15682, Note_on_c, 8, 63, 80
8, 15755, Note_on_c, 8, 63, 0
8, 15762, Note_on_c, 8, 62, 80
8, 15836, Note_on_c, 8, 62, 0
8, 15842, Note_on_c, 8, 64, 83
8, 15896, Note_on_c, 8, 64, 0
8, 15900, Note_on_c, 8, 64, 81
8, 15955, Note_on_c, 8, 64, 0
8, 15960, Note_on_c, 8, 64, 81
8, 16015, Note_on_c, 8, 64, 0
8, 16022, Note_on_c, 8, 64, 83
8, 16075, Note_on_c, 8, 64, 0
8, 16078, Note_on_c, 8, 64, 78
8, 16135, Note_on_c, 8, 64, 0
8, 16137, Note_on_c, 8, 60, 78
8, 16196, Note_on_c, 8, 60, 0
8, 16198, Note_on_c, 8, 60, 81
8, 16256, Note_on_c, 8, 60, 0
8, 16262, Note_on_c, 8, 62, 83
8, 16316, Note_on_c, 8, 62, 0
8, 16317, Note_on_c, 8, 64, 81
8, 16376, Note_on_c, 8, 64, 0
8, 16379, Note_on_c, 8, 64, 81
8, 16436, Note_on_c, 8, 64, 0
8, 16439, Note_on_c, 8, 64, 82
8, 16489, Pitch_bend_c, 8, 8192
8, 16490, Pitch_bend_c, 8, 7296
8, 16491, Pitch_bend_c, 8, 6400
8, 16492, Pitch_bend_c, 8, 5504
8, 16494, Pitch_bend_c, 8, 4608
8, 16495, Pitch_bend_c, 8, 3712
8, 16496, Pitch_bend_c, 8, 2816
8, 16497, Pitch_bend_c, 8, 1920
8, 16498, Pitch_bend_c, 8, 1024
8, 16500, Pitch_bend_c, 8, 128
8, 16555, Note_on_c, 8, 64, 0
8, 16560, Pitch_bend_c, 8, 8192
8, 16563, Note_on_c, 8, 62, 81
8, 16616, Note_on_c, 8, 62, 0
8, 16682, Note_on_c, 8, 67, 121
8, 16730, Pitch_bend_c, 8, 8192
8, 16731, Pitch_bend_c, 8, 9216
8, 16732, Pitch_bend_c, 8, 10240
8, 16734, Pitch_bend_c, 8, 11264
8, 16735, Pitch_bend_c, 8, 12288
8, 16736, Pitch_bend_c, 8, 13312
8, 16737, Pitch_bend_c, 8, 14336
8, 16738, Pitch_bend_c, 8, 15360
8, 16740, Pitch_bend_c, 8, 16383
8, 16796, Note_on_c, 8, 67, 0
8, 16798, Note_on_c, 8, 69, 118
8, 16800, Pitch_bend_c, 8, 8192
8, 16856, Note_on_c, 8, 69, 0
8, 16857, Note_on_c, 8, 69, 80
8, 16916, Note_on_c, 8, 69, 0
8, 16920, Note_on_c, 8, 69, 79
8, 16976, Note_on_c, 8, 69, 0
8, 16980, Note_on_c, 8, 69, 82
8, 17036, Note_on_c, 8, 69, 0
8, 17043, Note_on_c, 8, 69, 78
8, 17096, Note_on_c, 8, 69, 0
8, 17101, Note_on_c, 8, 65, 79
8, 17156, Note_on_c, 8, 65, 0
8, 17162, Note_on_c, 8, 65, 78
8, 17216, Note_on_c, 8, 65, 0
8, 17222, Note_on_c, 8, 67, 82
8, 17276, Note_on_c, 8, 67, 0
8, 17278, Note_on_c, 8, 69, 78
8, 17336, Note_on_c, 8, 69, 0
8, 17400, Note_on_c, 8, 69, 80
8, 17516, Note_on_c, 8, 69, 0
8, 17518, Note_on_c, 8, 67, 82
8, 17576, Note_on_c, 8, 67, 0
8, 17579, Note_on_c, 8, 65, 78
8, 17636, Note_on_c, 8, 65, 0
8, 17641, Note_on_c, 8, 67, 83
8, 17756, Note_on_c, 8, 67, 0
8, 17758, Note_on_c, 8, 67, 79
8, 17811, Pitch_bend_c, 8, 8192
8, 17812, Pitch_bend_c, 8, 6912
8, 17814, Pitch_bend_c, 8, 5632
8, 17815, Pitch_bend_c, 8, 4352
8, 17816, Pitch_bend_c, 8, 3200
8, 17817, Pitch_bend_c, 8, 1920
8, 17818, Pitch_bend_c, 8, 640
8, 17820, Pitch_bend_c, 8, 0
8, 17876, Note_on_c, 8, 67, 0
8, 17880, Pitch_bend_c, 8, 8192
8, 17982, Pitch_bend_c, 8, 12288
8, 17982, Pitch_bend_c, 8, 12288
8, 18000, Note_on_c, 8, 69, 81
8, 18201, Pitch_bend_c, 8, 12288
8, 18202, Pitch_bend_c, 8, 12160
8, 18204, Pitch_bend_c, 8, 12032
8, 18205, Pitch_bend_c, 8, 11904
8, 18206, Pitch_bend_c, 8, 11776
8, 18207, Pitch_bend_c, 8, 11648
8, 18208, Pitch_bend_c, 8, 11520
8, 18210, Pitch_bend_c, 8, 11392
8, 18211, Pitch_bend_c, 8, 11264
8, 18212, Pitch_bend_c, 8, 11136
8, 18213, Pitch_bend_c, 8, 11008
8, 18214, Pitch_bend_c, 8, 10880
8, 18216, Pitch_bend_c, 8, 10752
8, 18217, Pitch_bend_c, 8, 10624
8, 18218, Pitch_bend_c, 8, 10496
8, 18219, Pitch_bend_c, 8, 10368
8, 18220, Pitch_bend_c, 8, 10240
8, 18222, Pitch_bend_c, 8, 10112
8, 18223, Pitch_bend_c, 8, 9984
8, 18224, Pitch_bend_c, 8, 9856
8, 18225, Pitch_bend_c, 8, 9728
8, 18226, Pitch_bend_c, 8, 9600
8, 18228, Pitch_bend_c, 8, 9472
8, 18229, Pitch_bend_c, 8, 9344
8, 18230, Pitch_bend_c, 8, 9216
8, 18231, Pitch_bend_c, 8, 9088
8, 18232, Pitch_bend_c, 8, 8960
8, 18234, Pitch_bend_c, 8, 8832
8, 18235, Pitch_bend_c, 8, 8704
8, 18236, Pitch_bend_c, 8, 8576
8, 18237, Pitch_bend_c, 8, 8448
8, 18238, Pitch_bend_c, 8, 8320
8, 18240, Pitch_bend_c, 8, 8192
8, 18400, Pitch_bend_c, 8, 8192
8, 18402, Pitch_bend_c, 8, 7680
8, 18403, Pitch_bend_c, 8, 7168
8, 18404, Pitch_bend_c, 8, 6656
8, 18405, Pitch_bend_c, 8, 6144
8, 18406, Pitch_bend_c, 8, 5632
8, 18408, Pitch_bend_c, 8, 5120
8, 18409, Pitch_bend_c, 8, 4608
8, 18410, Pitch_bend_c, 8, 4096
8, 18411, Pitch_bend_c, 8, 3584
8, 18412, Pitch_bend_c, 8, 3072
8, 18414, Pitch_bend_c, 8, 2560
8, 18415, Pitch_bend_c, 8, 2048
8, 18416, Pitch_bend_c, 8, 1536
8, 18417, Pitch_bend_c, 8, 1024
8, 18418, Pitch_bend_c, 8, 512
8, 18420, Pitch_bend_c, 8, 0
8, 18535, Note_on_c, 8, 69, 0
8, 18582, Pitch_bend_c, 8, 8192
8, 18603, Note_on_c, 8, 72, 80
8, 18716, Note_on_c, 8, 72, 0
8, 18723, Note_on_c, 8, 74, 78
8, 18806, Note_on_c, 8, 74, 0
8, 18838, Note_on_c, 8, 74, 81
8, 18926, Note_on_c, 8, 74, 0
8, 18961, Note_on_c, 8, 74, 80
8, 19016, Note_on_c, 8, 74, 0
8, 19017, Note_on_c, 8, 74, 83
8, 19076, Note_on_c, 8, 74, 0
8, 19143, Note_on_c, 8, 72, 79
8, 19196, Note_on_c, 8, 72, 0
8, 19260, Note_on_c, 8, 72, 83
8, 19316, Note_on_c, 8, 72, 0
8, 19378, Note_on_c, 8, 72, 79
8, 19466, Note_on_c, 8, 72, 0
8, 19560, Note_on_c, 8, 67, 100
8, 19680, Note_on_c, 8, 67, 0
8, 19680, Note_on_c, 8, 67, 100
8, 19731, Pitch_bend_c, 8, 8192
8, 19732, Pitch_bend_c, 8, 6912
8, 19734, Pitch_bend_c, 8, 5632
8, 19735, Pitch_bend_c, 8, 4352
8, 19736, Pitch_bend_c, 8, 3200
8, 19737, Pitch_bend_c, 8, 1920
8, 19738, Pitch_bend_c, 8, 640
8, 19740, Pitch_bend_c, 8, 0
8, 19800, Note_on_c, 8, 67, 0
8, 19800, Note_on_c, 8, 65, 78
8, 19800, Pitch_bend_c, 8, 8192
8, 19860, Note_on_c, 8, 65, 0
8, 19902, Pitch_bend_c, 8, 12288
8, 19902, Pitch_bend_c, 8, 12288
8, 19918, Note_on_c, 8, 69, 79
8, 20121, Pitch_bend_c, 8, 12288
8, 20122, Pitch_bend_c, 8, 12160
8, 20124, Pitch_bend_c, 8, 12032
8, 20125, Pitch_bend_c, 8, 11904
8, 20126, Pitch_bend_c, 8, 11776
8, 20127, Pitch_bend_c, 8, 11648
8, 20128, Pitch_bend_c, 8, 11520
8, 20130, Pitch_bend_c, 8, 11392
8, 20131, Pitch_bend_c, 8, 11264
8, 20132, Pitch_bend_c, 8, 11136
8, 20133, Pitch_bend_c, 8, 11008
8, 20134, Pitch_bend_c, 8, 10880
8, 20136, Pitch_bend_c, 8, 10752
8, 20137, Pitch_bend_c, 8, 10624
8, 20138, Pitch_bend_c, 8, 10496
8, 20139, Pitch_bend_c, 8, 10368
8, 20140, Pitch_bend_c, 8, 10240
8, 20142, Pitch_bend_c, 8, 10112
8, 20143, Pitch_bend_c, 8, 9984
8, 20144, Pitch_bend_c, 8, 9856
8, 20145, Pitch_bend_c, 8, 9728
8, 20146, Pitch_bend_c, 8, 9600
8, 20148, Pitch_bend_c, 8, 9472
8, 20149, Pitch_bend_c, 8, 9344
8, 20150, Pitch_bend_c, 8, 9216
8, 20151, Pitch_bend_c, 8, 9088
8, 20152, Pitch_bend_c, 8, 8960
8, 20154, Pitch_bend_c, 8, 8832
8, 20155, Pitch_bend_c, 8, 8704
8, 20156, Pitch_bend_c, 8, 8576
8, 20157, Pitch_bend_c, 8, 8448
8, 20158, Pitch_bend_c, 8, 8320
8, 20160, Pitch_bend_c, 8, 8192
8, 20320, Pitch_bend_c, 8, 8192
8, 20322, Pitch_bend_c, 8, 7680
8, 20323, Pitch_bend_c, 8, 7168
8, 20324, Pitch_bend_c, 8, 6656
8, 20325, Pitch_bend_c, 8, 6144
8, 20326, Pitch_bend_c, 8, 5632
8, 20328, Pitch_bend_c, 8, 5120
8, 20329, Pitch_bend_c, 8, 4608
8, 20330, Pitch_bend_c, 8, 4096
8, 20331, Pitch_bend_c, 8, 3584
8, 20332, Pitch_bend_c, 8, 3072
8, 20334, Pitch_bend_c, 8, 2560
8, 20335, Pitch_bend_c, 8, 2048
8, 20336, Pitch_bend_c, 8, 1536
8, 20337, Pitch_bend_c, 8, 1024
8, 20338, Pitch_bend_c, 8, 512
8, 20340, Pitch_bend_c, 8, 0
8, 20455, Note_on_c, 8, 69, 0
8, 20502, Pitch_bend_c, 8, 8192
8, 20637, Note_on_c, 8, 74, 79
8, 20726, Note_on_c, 8, 74, 0
8, 20757, Note_on_c, 8, 74, 80
8, 20846, Note_on_c, 8, 74, 0
8, 20878, Note_on_c, 8, 74, 80
8, 20936, Note_on_c, 8, 74, 0
8, 20940, Note_on_c, 8, 74, 82
8, 20996, Note_on_c, 8, 74, 0
8, 21063, Note_on_c, 8, 72, 82
8, 21116, Note_on_c, 8, 72, 0
8, 21178, Note_on_c, 8, 72, 79
8, 21236, Note_on_c, 8, 72, 0
8, 21302, Note_on_c, 8, 72, 80
8, 21386, Note_on_c, 8, 72, 0
8, 26939, Note_on_c, 8, 62, 78
8, 26996, Note_on_c, 8, 62, 0
8, 27001, Note_on_c, 8, 62, 80
8, 27056, Note_on_c, 8, 62, 0
8, 27059, Note_on_c, 8, 62, 79
8, 27116, Note_on_c, 8, 62, 0
8, 27123, Note_on_c, 8, 62, 81
8, 27176, Note_on_c, 8, 62, 0
8, 27181, Note_on_c, 8, 62, 79
8, 27236, Note_on_c, 8, 62, 0
8, 27241, Note_on_c, 8, 58, 81
8, 27296, Note_on_c, 8, 58, 0
8, 27298, Note_on_c, 8, 60, 78
8, 27356, Note_on_c, 8, 60, 0
8, 27358, Note_on_c, 8, 62, 83
8, 27416, Note_on_c, 8, 62, 0
8, 27421, Note_on_c, 8, 62, 83
8, 27476, Note_on_c, 8, 62, 0
8, 27482, Note_on_c, 8, 62, 81
8, 27519, Pitch_bend_c, 8, 8192
8, 27520, Pitch_bend_c, 8, 8320
8, 27522, Pitch_bend_c, 8, 8576
8, 27523, Pitch_bend_c, 8, 8832
8, 27524, Pitch_bend_c, 8, 9088
8, 27525, Pitch_bend_c, 8, 9344
8, 27526, Pitch_bend_c, 8, 9600
8, 27528, Pitch_bend_c, 8, 9856
8, 27529, Pitch_bend_c, 8, 10112
8, 27530, Pitch_bend_c, 8, 10240
8, 27531, Pitch_bend_c, 8, 10496
8, 27532, Pitch_bend_c, 8, 10752
8, 27534, Pitch_bend_c, 8, 11008
8, 27535, Pitch_bend_c, 8, 11264
8, 27536, Pitch_bend_c, 8, 11520
8, 27537, Pitch_bend_c, 8, 11776
8, 27538, Pitch_bend_c, 8, 12032
8, 27540, Pitch_bend_c, 8, 12288
8, 27596, Note_on_c, 8, 62, 0
8, 27600, Pitch_bend_c, 8, 8192
8, 27601, Note_on_c, 8, 60, 81
8, 27686, Note_on_c, 8, 60, 0
8, 27721, Note_on_c, 8, 65, 120
8, 27770, Pitch_bend_c, 8, 8192
8, 27771, Pitch_bend_c, 8, 9216
8, 27772, Pitch_bend_c, 8, 10240
8, 27774, Pitch_bend_c, 8, 11264
8, 27775, Pitch_bend_c, 8, 12288
8, 27776, Pitch_bend_c, 8, 13312
8, 27777, Pitch_bend_c, 8, 14336
8, 27778, Pitch_bend_c, 8, 15360
8, 27780, Pitch_bend_c, 8, 16383
8, 27836, Note_on_c, 8, 65, 0
8, 27837, Note_on_c, 8, 67, 123
8, 27840, Pitch_bend_c, 8, 8192
8, 27896, Note_on_c, 8, 67, 0
8, 27898, Note_on_c, 8, 67, 83
8, 27956, Note_on_c, 8, 67, 0
8, 27957, Note_on_c, 8, 67, 80
8, 28016, Note_on_c, 8, 67, 0
8, 28023, Note_on_c, 8, 67, 80
8, 28076, Note_on_c, 8, 67, 0
8, 28082, Note_on_c, 8, 67, 80
8, 28136, Note_on_c, 8, 67, 0
8, 28142, Note_on_c, 8, 67, 79
8, 28196, Note_on_c, 8, 67, 0
8, 28199, Note_on_c, 8, 63, 82
8, 28256, Note_on_c, 8, 63, 0
8, 28259, Note_on_c, 8, 65, 78
8, 28316, Note_on_c, 8, 65, 0
8, 28318, Note_on_c, 8, 67, 78
8, 28435, Note_on_c, 8, 67, 0
8, 28440, Note_on_c, 8, 67, 81
8, 28556, Note_on_c, 8, 67, 0
8, 28558, Note_on_c, 8, 65, 78
8, 28636, Note_on_c, 8, 65, 0
8, 28637, Note_on_c, 8, 63, 81
8, 28715, Note_on_c, 8, 63, 0
8, 28721, Note_on_c, 8, 62, 81
8, 28796, Note_on_c, 8, 62, 0
8, 28802, Note_on_c, 8, 64, 81
8, 28856, Note_on_c, 8, 64, 0
8, 28858, Note_on_c, 8, 64, 79
8, 28915, Note_on_c, 8, 64, 0
8, 28917, Note_on_c, 8, 64, 82
8, 28975, Note_on_c, 8, 64, 0
8, 28983, Note_on_c, 8, 64, 81
8, 29035, Note_on_c, 8, 64, 0
8, 29041, Note_on_c, 8, 64, 83
8, 29095, Note_on_c, 8, 64, 0
8, 29102, Note_on_c, 8, 60, 79
8, 29156, Note_on_c, 8, 60, 0
8, 29163, Note_on_c, 8, 60, 81
8, 29216, Note_on_c, 8, 60, 0
8, 29220, Note_on_c, 8, 62, 80
8, 29276, Note_on_c, 8, 62, 0
8, 29283, Note_on_c, 8, 64, 82
8, 29336, Note_on_c, 8, 64, 0
8, 29338, Note_on_c, 8, 64, 82
8, 29396, Note_on_c, 8, 64, 0
8, 29403, Note_on_c, 8, 64, 83
8, 29449, Pitch_bend_c, 8, 8192
8, 29450, Pitch_bend_c, 8, 7296
8, 29451, Pitch_bend_c, 8, 6400
8, 29452, Pitch_bend_c, 8, 5504
8, 29454, Pitch_bend_c, 8, 4608
8, 29455, Pitch_bend_c, 8, 3712
8, 29456, Pitch_bend_c, 8, 2816
8, 29457, Pitch_bend_c, 8, 1920
8, 29458, Pitch_bend_c, 8, 1024
8, 29460, Pitch_bend_c, 8, 128
8, 29515, Note_on_c, 8, 64, 0
8, 29520, Pitch_bend_c, 8, 8192
8, 29521, Note_on_c, 8, 62, 80
8, 29576, Note_on_c, 8, 62, 0
8, 29637, Note_on_c, 8, 67, 120
8, 29690, Pitch_bend_c, 8, 8192
8, 29691, Pitch_bend_c, 8, 9216
8, 29692, Pitch_bend_c, 8, 10240
8, 29694, Pitch_bend_c, 8, 11264
8, 29695, Pitch_bend_c, 8, 12288
8, 29696, Pitch_bend_c, 8, 13312
8, 29697, Pitch_bend_c, 8, 14336
8, 29698, Pitch_bend_c, 8, 15360
8, 29700, Pitch_bend_c, 8, 16383
8, 29756, Note_on_c, 8, 67, 0
8, 29760, Pitch_bend_c, 8, 8192
8, 29762, Note_on_c, 8, 69, 118
8, 29816, Note_on_c, 8, 69, 0
8, 29823, Note_on_c, 8, 69, 81
8, 29876, Note_on_c, 8, 69, 0
8, 29881, Note_on_c, 8, 69, 80
8, 29936, Note_on_c, 8, 69, 0
8, 29939, Note_on_c, 8, 69, 79
8, 29996, Note_on_c, 8, 69, 0
8, 29999, Note_on_c, 8, 69, 79
8, 30056, Note_on_c, 8, 69, 0
8, 30061, Note_on_c, 8, 65, 78
8, 30116, Note_on_c, 8, 65, 0
8, 30121, Note_on_c, 8, 65, 79
8, 30176, Note_on_c, 8, 65, 0
8, 30180, Note_on_c, 8, 67, 82
8, 30236, Note_on_c, 8, 67, 0
8, 30237, Note_on_c, 8, 69, 80
8, 30296, Note_on_c, 8, 69, 0
8, 30360, Note_on_c, 8, 69, 82
8, 30476, Note_on_c, 8, 69, 0
8, 30478, Note_on_c, 8, 67, 83
8, 30536, Note_on_c, 8, 67, 0
8, 30541, Note_on_c, 8, 65, 81
8, 30596, Note_on_c, 8, 65, 0
8, 30600, Note_on_c, 8, 67, 79
8, 30716, Note_on_c, 8, 67, 0
8, 30721, Note_on_c, 8, 67, 83
8, 30771, Pitch_bend_c, 8, 8192
8, 30772, Pitch_bend_c, 8, 6912
8, 30774, Pitch_bend_c, 8, 5632
8, 30775, Pitch_bend_c, 8, 4352
8, 30776, Pitch_bend_c, 8, 3200
8, 30777, Pitch_bend_c, 8, 1920
8, 30778, Pitch_bend_c, 8, 640
8, 30780, Pitch_bend_c, 8, 0
8, 30836, Note_on_c, 8, 67, 0
8, 30840, Pitch_bend_c, 8, 8192
8, 30843, Note_on_c, 8, 65, 80
8, 30896, Note_on_c, 8, 65, 0
8, 30942, Pitch_bend_c, 8, 12288
8, 30942, Pitch_bend_c, 8, 12288
8, 30960, Note_on_c, 8, 69, 83
8, 31161, Pitch_bend_c, 8, 12288
8, 31162, Pitch_bend_c, 8, 12160
8, 31164, Pitch_bend_c, 8, 12032
8, 31165, Pitch_bend_c, 8, 11904
8, 31166, Pitch_bend_c, 8, 11776
8, 31167, Pitch_bend_c, 8, 11648
8, 31168, Pitch_bend_c, 8, 11520
8, 31170, Pitch_bend_c, 8, 11392
8, 31171, Pitch_bend_c, 8, 11264
8, 31172, Pitch_bend_c, 8, 11136
8, 31173, Pitch_bend_c, 8, 11008
8, 31174, Pitch_bend_c, 8, 10880
8, 31176, Pitch_bend_c, 8, 10752
8, 31177, Pitch_bend_c, 8, 10624
8, 31178, Pitch_bend_c, 8, 10496
8, 31179, Pitch_bend_c, 8, 10368
8, 31180, Pitch_bend_c, 8, 10240
8, 31182, Pitch_bend_c, 8, 10112
8, 31183, Pitch_bend_c, 8, 9984
8, 31184, Pitch_bend_c, 8, 9856
8, 31185, Pitch_bend_c, 8, 9728
8, 31186, Pitch_bend_c, 8, 9600
8, 31188, Pitch_bend_c, 8, 9472
8, 31189, Pitch_bend_c, 8, 9344
8, 31190, Pitch_bend_c, 8, 9216
8, 31191, Pitch_bend_c, 8, 9088
8, 31192, Pitch_bend_c, 8, 8960
8, 31194, Pitch_bend_c, 8, 8832
8, 31195, Pitch_bend_c, 8, 8704
8, 31196, Pitch_bend_c, 8, 8576
8, 31197, Pitch_bend_c, 8, 8448
8, 31198, Pitch_bend_c, 8, 8320
8, 31200, Pitch_bend_c, 8, 8192
8, 31360, Pitch_bend_c, 8, 8192
8, 31362, Pitch_bend_c, 8, 7680
8, 31363, Pitch_bend_c, 8, 7168
8, 31364, Pitch_bend_c, 8, 6656
8, 31365, Pitch_bend_c, 8, 6144
8, 31366, Pitch_bend_c, 8, 5632
8, 31368, Pitch_bend_c, 8, 5120
8, 31369, Pitch_bend_c, 8, 4608
8, 31370, Pitch_bend_c, 8, 4096
8, 31371, Pitch_bend_c, 8, 3584
8, 31372, Pitch_bend_c, 8, 3072
8, 31374, Pitch_bend_c, 8, 2560
8, 31375, Pitch_bend_c, 8, 2048
8, 31376, Pitch_bend_c, 8, 1536
8, 31377, Pitch_bend_c, 8, 1024
8, 31378, Pitch_bend_c, 8, 512
8, 31380, Pitch_bend_c, 8, 0
8, 31492, Note_on_c, 8, 69, 0
8, 31542, Pitch_bend_c, 8, 8192
8, 31561, Note_on_c, 8, 72, 78
8, 31676, Note_on_c, 8, 72, 0
8, 31680, Note_on_c, 8, 74, 78
8, 31766, Note_on_c, 8, 74, 0
8, 31798, Note_on_c, 8, 74, 83
8, 31886, Note_on_c, 8, 74, 0
8, 31923, Note_on_c, 8, 74, 78
8, 31976, Note_on_c, 8, 74, 0
8, 31980, Note_on_c, 8, 74, 78
8, 32036, Note_on_c, 8, 74, 0
8, 32101, Note_on_c, 8, 72, 82
8, 32156, Note_on_c, 8, 72, 0
8, 32222, Note_on_c, 8, 72, 83
8, 32276, Note_on_c, 8, 72, 0
8, 32341, Note_on_c, 8, 72, 83
8, 32426, Note_on_c, 8, 72, 0
8, 32519, Note_on_c, 8, 67, 79
8, 32636, Note_on_c, 8, 67, 0
8, 32638, Note_on_c, 8, 67, 83
8, 32691, Pitch_bend_c, 8, 8192
8, 32692, Pitch_bend_c, 8, 6912
8, 32694, Pitch_bend_c, 8, 5632
8, 32695, Pitch_bend_c, 8, 4352
8, 32696, Pitch_bend_c, 8, 3200
8, 32697, Pitch_bend_c, 8, 1920
8, 32698, Pitch_bend_c, 8, 640
8, 32700, Pitch_bend_c, 8, 0
8, 32756, Note_on_c, 8, 67, 0
8, 32760, Pitch_bend_c, 8, 8192
8, 32762, Note_on_c, 8, 65, 81
8, 32816, Note_on_c, 8, 65, 0
8, 32862, Pitch_bend_c, 8, 12288
8, 32862, Pitch_bend_c, 8, 12288
8, 32862, Pitch_bend_c, 8, 12288
8, 32878, Note_on_c, 8, 69, 79
8, 33081, Pitch_bend_c, 8, 12288
8, 33082, Pitch_bend_c, 8, 12160
8, 33084, Pitch_bend_c, 8, 12032
8, 33085, Pitch_bend_c, 8, 11904
8, 33086, Pitch_bend_c, 8, 11776
8, 33087, Pitch_bend_c, 8, 11648
8, 33088, Pitch_bend_c, 8, 11520
8, 33090, Pitch_bend_c, 8, 11392
8, 33091, Pitch_bend_c, 8, 11264
8, 33092, Pitch_bend_c, 8, 11136
8, 33093, Pitch_bend_c, 8, 11008
8, 33094, Pitch_bend_c, 8, 10880
8, 33096, Pitch_bend_c, 8, 10752
8, 33097, Pitch_bend_c, 8, 10624
8, 33098, Pitch_bend_c, 8, 10496
8, 33099, Pitch_bend_c, 8, 10368
8, 33100, Pitch_bend_c, 8, 10240
8, 33102, Pitch_bend_c, 8, 10112
8, 33103, Pitch_bend_c, 8, 9984
8, 33104, Pitch_bend_c, 8, 9856
8, 33105, Pitch_bend_c, 8, 9728
8, 33106, Pitch_bend_c, 8, 9600
8, 33108, Pitch_bend_c, 8, 9472
8, 33109, Pitch_bend_c, 8, 9344
8, 33110, Pitch_bend_c, 8, 9216
8, 33111, Pitch_bend_c, 8, 9088
8, 33112, Pitch_bend_c, 8, 8960
8, 33114, Pitch_bend_c, 8, 8832
8, 33115, Pitch_bend_c, 8, 8704
8, 33116, Pitch_bend_c, 8, 8576
8, 33117, Pitch_bend_c, 8, 8448
8, 33118, Pitch_bend_c, 8, 8320
8, 33120, Pitch_bend_c, 8, 8192
8, 33280, Pitch_bend_c, 8, 8192
8, 33282, Pitch_bend_c, 8, 7680
8, 33283, Pitch_bend_c, 8, 7168
8, 33284, Pitch_bend_c, 8, 6656
8, 33285, Pitch_bend_c, 8, 6144
8, 33286, Pitch_bend_c, 8, 5632
8, 33288, Pitch_bend_c, 8, 5120
8, 33289, Pitch_bend_c, 8, 4608
8, 33290, Pitch_bend_c, 8, 4096
8, 33291, Pitch_bend_c, 8, 3584
8, 33292, Pitch_bend_c, 8, 3072
8, 33294, Pitch_bend_c, 8, 2560
8, 33295, Pitch_bend_c, 8, 2048
8, 33296, Pitch_bend_c, 8, 1536
8, 33297, Pitch_bend_c, 8, 1024
8, 33298, Pitch_bend_c, 8, 512
8, 33300, Pitch_bend_c, 8, 0
8, 33415, Note_on_c, 8, 69, 0
8, 33462, Pitch_bend_c, 8, 8192
8, 33599, Note_on_c, 8, 74, 83
8, 33686, Note_on_c, 8, 74, 0
8, 33723, Note_on_c, 8, 74, 79
8, 33806, Note_on_c, 8, 74, 0
8, 33840, Note_on_c, 8, 74, 81
8, 33896, Note_on_c, 8, 74, 0
8, 33902, Note_on_c, 8, 74, 79
8, 33956, Note_on_c, 8, 74, 0
8, 34019, Note_on_c, 8, 72, 81
8, 34076, Note_on_c, 8, 72, 0
8, 34143, Note_on_c, 8, 72, 81
8, 34196, Note_on_c, 8, 72, 0
8, 34262, Note_on_c, 8, 72, 80
8, 34346, Note_on_c, 8, 72, 0
8, 39721, Note_on_c, 8, 58, 98
8, 39836, Note_on_c, 8, 58, 0
8, 39839, Note_on_c, 8, 58, 101
8, 39955, Note_on_c, 8, 58, 0
8, 40203, Note_on_c, 8, 62, 99
8, 40316, Note_on_c, 8, 62, 0
8, 40321, Note_on_c, 8, 62, 103
8, 40689, Pitch_bend_c, 8, 8320
8, 40705, Pitch_bend_c, 8, 8576
8, 40710, Pitch_bend_c, 8, 8832
8, 40734, Pitch_bend_c, 8, 10240
8, 40735, Pitch_bend_c, 8, 10496
8, 40737, Pitch_bend_c, 8, 10624
8, 40738, Pitch_bend_c, 8, 11392
8, 40746, Pitch_bend_c, 8, 11648
8, 40748, Pitch_bend_c, 8, 11904
8, 40750, Pitch_bend_c, 8, 12160
8, 40752, Pitch_bend_c, 8, 12416
8, 40753, Pitch_bend_c, 8, 12672
8, 40755, Pitch_bend_c, 8, 12928
8, 40758, Pitch_bend_c, 8, 13184
8, 40760, Pitch_bend_c, 8, 13696
8, 40762, Pitch_bend_c, 8, 13952
8, 40764, Pitch_bend_c, 8, 14080
8, 40765, Pitch_bend_c, 8, 14336
8, 40766, Pitch_bend_c, 8, 14592
8, 40768, Pitch_bend_c, 8, 14848
8, 40771, Pitch_bend_c, 8, 15616
8, 40772, Pitch_bend_c, 8, 15872
8, 40774, Pitch_bend_c, 8, 16383
8, 40795, Note_on_c, 8, 62, 0
8, 40800, Pitch_bend_c, 8, 8192
8, 40801, Note_on_c, 8, 65, 101
8, 41173, Pitch_bend_c, 8, 8192
8, 41187, Pitch_bend_c, 8, 8448
8, 41197, Pitch_bend_c, 8, 8704
8, 41204, Pitch_bend_c, 8, 8960
8, 41211, Pitch_bend_c, 8, 9088
8, 41214, Pitch_bend_c, 8, 9344
8, 41221, Pitch_bend_c, 8, 9600
8, 41228, Pitch_bend_c, 8, 10368
8, 41235, Pitch_bend_c, 8, 10624
8, 41242, Pitch_bend_c, 8, 10880
8, 41245, Pitch_bend_c, 8, 11136
8, 41247, Pitch_bend_c, 8, 11904
8, 41250, Pitch_bend_c, 8, 12672
8, 41257, Pitch_bend_c, 8, 14976
8, 41259, Pitch_bend_c, 8, 15744
8, 41260, Pitch_bend_c, 8, 16383
8, 41276, Note_on_c, 8, 65, 0
8, 41279, Note_on_c, 8, 69, 99
8, 41281, Pitch_bend_c, 8, 8192
8, 41756, Note_on_c, 8, 69, 0
8, 41818, Note_on_c, 8, 62, 80
8, 41876, Note_on_c, 8, 62, 0
8, 41879, Note_on_c, 8, 62, 82
8, 41936, Note_on_c, 8, 62, 0
8, 41939, Note_on_c, 8, 62, 81
8, 41996, Note_on_c, 8, 62, 0
8, 42001, Note_on_c, 8, 62, 82
8, 42056, Note_on_c, 8, 62, 0
8, 42062, Note_on_c, 8, 62, 83
8, 42116, Note_on_c, 8, 62, 0
8, 42120, Note_on_c, 8, 58, 78
8, 42176, Note_on_c, 8, 58, 0
8, 42183, Note_on_c, 8, 60, 83
8, 42236, Note_on_c, 8, 60, 0
8, 42238, Note_on_c, 8, 62, 81
8, 42296, Note_on_c, 8, 62, 0
8, 42297, Note_on_c, 8, 62, 81
8, 42356, Note_on_c, 8, 62, 0
8, 42363, Note_on_c, 8, 62, 83
8, 42408, Pitch_bend_c, 8, 8192
8, 42409, Pitch_bend_c, 8, 7296
8, 42410, Pitch_bend_c, 8, 6400
8, 42411, Pitch_bend_c, 8, 5504
8, 42412, Pitch_bend_c, 8, 4608
8, 42414, Pitch_bend_c, 8, 3712
8, 42415, Pitch_bend_c, 8, 2816
8, 42416, Pitch_bend_c, 8, 1920
8, 42417, Pitch_bend_c, 8, 1024
8, 42418, Pitch_bend_c, 8, 128
8, 42420, Pitch_bend_c, 8, 0
8, 42476, Note_on_c, 8, 62, 0
8, 42478, Note_on_c, 8, 60, 80
8, 42480, Pitch_bend_c, 8, 8192
8, 42566, Note_on_c, 8, 60, 0
8, 42602, Note_on_c, 8, 65, 120
8, 42716, Note_on_c, 8, 65, 0
8, 42718, Note_on_c, 8, 67, 122
8, 42776, Note_on_c, 8, 67, 0
8, 42777, Note_on_c, 8, 67, 78
8, 42836, Note_on_c, 8, 67, 0
8, 42841, Note_on_c, 8, 67, 82
8, 42896, Note_on_c, 8, 67, 0
8, 42899, Note_on_c, 8, 67, 82
8, 42956, Note_on_c, 8, 67, 0
8, 42957, Note_on_c, 8, 67, 82
8, 43016, Note_on_c, 8, 67, 0
8, 43022, Note_on_c, 8, 67, 81
8, 43076, Note_on_c, 8, 67, 0
8, 43082, Note_on_c, 8, 63, 83
8, 43136, Note_on_c, 8, 63, 0
8, 43140, Note_on_c, 8, 65, 82
8, 43196, Note_on_c, 8, 65, 0
8, 43201, Note_on_c, 8, 67, 78
8, 43315, Note_on_c, 8, 67, 0
8, 43321, Note_on_c, 8, 67, 81
8, 43436, Note_on_c, 8, 67, 0
8, 43438, Note_on_c, 8, 65, 83
8, 43516, Note_on_c, 8, 65, 0
8, 43522, Note_on_c, 8, 63, 83
8, 43595, Note_on_c, 8, 63, 0
8, 43603, Note_on_c, 8, 62, 83
8, 43676, Note_on_c, 8, 62, 0
8, 43682, Note_on_c, 8, 64, 83
8, 43736, Note_on_c, 8, 64, 0
8, 43739, Note_on_c, 8, 64, 81
8, 43795, Note_on_c, 8, 64, 0
8, 43802, Note_on_c, 8, 64, 80
8, 43855, Note_on_c, 8, 64, 0
8, 43862, Note_on_c, 8, 64, 83
8, 43915, Note_on_c, 8, 64, 0
8, 43917, Note_on_c, 8, 64, 82
8, 43975, Note_on_c, 8, 64, 0
8, 43981, Note_on_c, 8, 60, 80
8, 44036, Note_on_c, 8, 60, 0
8, 44040, Note_on_c, 8, 60, 79
8, 44096, Note_on_c, 8, 60, 0
8, 44102, Note_on_c, 8, 62, 82
8, 44156, Note_on_c, 8, 62, 0
8, 44160, Note_on_c, 8, 64, 82
8, 44216, Note_on_c, 8, 64, 0
8, 44221, Note_on_c, 8, 64, 79
8, 44276, Note_on_c, 8, 64, 0
8, 44277, Note_on_c, 8, 64, 78
8, 44329, Pitch_bend_c, 8, 8192
8, 44330, Pitch_bend_c, 8, 7296
8, 44331, Pitch_bend_c, 8, 6400
8, 44332, Pitch_bend_c, 8, 5504
8, 44334, Pitch_bend_c, 8, 4608
8, 44335, Pitch_bend_c, 8, 3712
8, 44336, Pitch_bend_c, 8, 2816
8, 44337, Pitch_bend_c, 8, 1920
8, 44338, Pitch_bend_c, 8, 1024
8, 44340, Pitch_bend_c, 8, 128
8, 44395, Note_on_c, 8, 64, 0
8, 44398, Note_on_c, 8, 62, 78
8, 44400, Pitch_bend_c, 8, 8192
8, 44456, Note_on_c, 8, 62, 0
8, 44518, Note_on_c, 8, 67, 121
8, 44570, Pitch_bend_c, 8, 8192
8, 44571, Pitch_bend_c, 8, 9216
8, 44572, Pitch_bend_c, 8, 10240
8, 44574, Pitch_bend_c, 8, 11264
8, 44575, Pitch_bend_c, 8, 12288
8, 44576, Pitch_bend_c, 8, 13312
8, 44577, Pitch_bend_c, 8, 14336
8, 44578, Pitch_bend_c, 8, 15360
8, 44580, Pitch_bend_c, 8, 16383
8, 44636, Note_on_c, 8, 67, 0
8, 44639, Note_on_c, 8, 69, 122
8, 44640, Pitch_bend_c, 8, 8192
8, 44696, Note_on_c, 8, 69, 0
8, 44703, Note_on_c, 8, 69, 81
8, 44756, Note_on_c, 8, 69, 0
8, 44762, Note_on_c, 8, 69, 79
8, 44816, Note_on_c, 8, 69, 0
8, 44821, Note_on_c, 8, 69, 83
8, 44876, Note_on_c, 8, 69, 0
8, 44879, Note_on_c, 8, 69, 80
8, 44936, Note_on_c, 8, 69, 0
8, 44938, Note_on_c, 8, 65, 80
8, 44996, Note_on_c, 8, 65, 0
8, 45001, Note_on_c, 8, 65, 80
8, 45056, Note_on_c, 8, 65, 0
8, 45063, Note_on_c, 8, 67, 82
8, 45116, Note_on_c, 8, 67, 0
8, 45122, Note_on_c, 8, 69, 79
8, 45176, Note_on_c, 8, 69, 0
8, 45242, Note_on_c, 8, 69, 83
8, 45356, Note_on_c, 8, 69, 0
8, 45362, Note_on_c, 8, 67, 81
8, 45416, Note_on_c, 8, 67, 0
8, 45420, Note_on_c, 8, 65, 79
8, 45476, Note_on_c, 8, 65, 0
8, 45480, Note_on_c, 8, 67, 82
8, 45596, Note_on_c, 8, 67, 0
8, 45602, Note_on_c, 8, 67, 81
8, 45651, Pitch_bend_c, 8, 8192
8, 45652, Pitch_bend_c, 8, 6912
8, 45654, Pitch_bend_c, 8, 5632
8, 45655, Pitch_bend_c, 8, 4352
8, 45656, Pitch_bend_c, 8, 3200
8, 45657, Pitch_bend_c, 8, 1920
8, 45658, Pitch_bend_c, 8, 640
8, 45660, Pitch_bend_c, 8, 0
8, 45716, Note_on_c, 8, 67, 0
8, 45720, Pitch_bend_c, 8, 8192
8, 45723, Note_on_c, 8, 65, 78
8, 45776, Note_on_c, 8, 65, 0
8, 45822, Pitch_bend_c, 8, 12288
8, 45822, Pitch_bend_c, 8, 12288
8, 45842, Note_on_c, 8, 69, 81
8, 46041, Pitch_bend_c, 8, 12288
8, 46042, Pitch_bend_c, 8, 12160
8, 46044, Pitch_bend_c, 8, 12032
8, 46045, Pitch_bend_c, 8, 11904
8, 46046, Pitch_bend_c, 8, 11776
8, 46047, Pitch_bend_c, 8, 11648
8, 46048, Pitch_bend_c, 8, 11520
8, 46050, Pitch_bend_c, 8, 11392
8, 46051, Pitch_bend_c, 8, 11264
8, 46052, Pitch_bend_c, 8, 11136
8, 46053, Pitch_bend_c, 8, 11008
8, 46054, Pitch_bend_c, 8, 10880
8, 46056, Pitch_bend_c, 8, 10752
8, 46057, Pitch_bend_c, 8, 10624
8, 46058, Pitch_bend_c, 8, 10496
8, 46059, Pitch_bend_c, 8, 10368
8, 46060, Pitch_bend_c, 8, 10240
8, 46062, Pitch_bend_c, 8, 10112
8, 46063, Pitch_bend_c, 8, 9984
8, 46064, Pitch_bend_c, 8, 9856
8, 46065, Pitch_bend_c, 8, 9728
8, 46066, Pitch_bend_c, 8, 9600
8, 46068, Pitch_bend_c, 8, 9472
8, 46069, Pitch_bend_c, 8, 9344
8, 46070, Pitch_bend_c, 8, 9216
8, 46071, Pitch_bend_c, 8, 9088
8, 46072, Pitch_bend_c, 8, 8960
8, 46074, Pitch_bend_c, 8, 8832
8, 46075, Pitch_bend_c, 8, 8704
8, 46076, Pitch_bend_c, 8, 8576
8, 46077, Pitch_bend_c, 8, 8448
8, 46078, Pitch_bend_c, 8, 8320
8, 46080, Pitch_bend_c, 8, 8192
8, 46240, Pitch_bend_c, 8, 8192
8, 46242, Pitch_bend_c, 8, 7680
8, 46243, Pitch_bend_c, 8, 7168
8, 46244, Pitch_bend_c, 8, 6656
8, 46245, Pitch_bend_c, 8, 6144
8, 46246, Pitch_bend_c, 8, 5632
8, 46248, Pitch_bend_c, 8, 5120
8, 46249, Pitch_bend_c, 8, 4608
8, 46250, Pitch_bend_c, 8, 4096
8, 46251, Pitch_bend_c, 8, 3584
8, 46252, Pitch_bend_c, 8, 3072
8, 46254, Pitch_bend_c, 8, 2560
8, 46255, Pitch_bend_c, 8, 2048
8, 46256, Pitch_bend_c, 8, 1536
8, 46257, Pitch_bend_c, 8, 1024
8, 46258, Pitch_bend_c, 8, 512
8, 46260, Pitch_bend_c, 8, 0
8, 46375, Note_on_c, 8, 69, 0
8, 46422, Pitch_bend_c, 8, 8192
8, 46441, Note_on_c, 8, 72, 79
8, 46556, Note_on_c, 8, 72, 0
8, 46560, Note_on_c, 8, 74, 81
8, 46646, Note_on_c, 8, 74, 0
8, 46681, Note_on_c, 8, 74, 79
8, 46766, Note_on_c, 8, 74, 0
8, 46801, Note_on_c, 8, 74, 82
8, 46856, Note_on_c, 8, 74, 0
8, 46857, Note_on_c, 8, 74, 83
8, 46916, Note_on_c, 8, 74, 0
8, 46977, Note_on_c, 8, 72, 81
8, 47036, Note_on_c, 8, 72, 0
8, 47097, Note_on_c, 8, 72, 83
8, 47156, Note_on_c, 8, 72, 0
8, 47222, Note_on_c, 8, 72, 79
8, 47306, Note_on_c, 8, 72, 0
8, 47403, Note_on_c, 8, 67, 79
8, 47516, Note_on_c, 8, 67, 0
8, 47517, Note_on_c, 8, 67, 78
8, 47571, Pitch_bend_c, 8, 8192
8, 47572, Pitch_bend_c, 8, 6912
8, 47574, Pitch_bend_c, 8, 5632
8, 47575, Pitch_bend_c, 8, 4352
8, 47576, Pitch_bend_c, 8, 3200
8, 47577, Pitch_bend_c, 8, 1920
8, 47578, Pitch_bend_c, 8, 640
8, 47580, Pitch_bend_c, 8, 0
8, 47636, Note_on_c, 8, 67, 0
8, 47640, Pitch_bend_c, 8, 8192
8, 47642, Note_on_c, 8, 65, 83
8, 47696, Note_on_c, 8, 65, 0
8, 47742, Pitch_bend_c, 8, 12288
8, 47742, Pitch_bend_c, 8, 12288
8, 47762, Note_on_c, 8, 69, 79
8, 47961, Pitch_bend_c, 8, 12288
8, 47962, Pitch_bend_c, 8, 12160
8, 47964, Pitch_bend_c, 8, 12032
8, 47965, Pitch_bend_c, 8, 11904
8, 47966, Pitch_bend_c, 8, 11776
8, 47967, Pitch_bend_c, 8, 11648
8, 47968, Pitch_bend_c, 8, 11520
8, 47970, Pitch_bend_c, 8, 11392
8, 47971, Pitch_bend_c, 8, 11264
8, 47972, Pitch_bend_c, 8, 11136
8, 47973, Pitch_bend_c, 8, 11008
8, 47974, Pitch_bend_c, 8, 10880
8, 47976, Pitch_bend_c, 8, 10752
8, 47977, Pitch_bend_c, 8, 10624
8, 47978, Pitch_bend_c, 8, 10496
8, 47979, Pitch_bend_c, 8, 10368
8, 47980, Pitch_bend_c, 8, 10240
8, 47982, Pitch_bend_c, 8, 10112
8, 47983, Pitch_bend_c, 8, 9984
8, 47984, Pitch_bend_c, 8, 9856
8, 47985, Pitch_bend_c, 8, 9728
8, 47986, Pitch_bend_c, 8, 9600
8, 47988, Pitch_bend_c, 8, 9472
8, 47989, Pitch_bend_c, 8, 9344
8, 47990, Pitch_bend_c, 8, 9216
8, 47991, Pitch_bend_c, 8, 9088
8, 47992, Pitch_bend_c, 8, 8960
8, 47994, Pitch_bend_c, 8, 8832
8, 47995, Pitch_bend_c, 8, 8704
8, 47996, Pitch_bend_c, 8, 8576
8, 47997, Pitch_bend_c, 8, 8448
8, 47998, Pitch_bend_c, 8, 8320
8, 48000, Pitch_bend_c, 8, 8192
8, 48160, Pitch_bend_c, 8, 8192
8, 48162, Pitch_bend_c, 8, 7680
8, 48163, Pitch_bend_c, 8, 7168
8, 48164, Pitch_bend_c, 8, 6656
8, 48165, Pitch_bend_c, 8, 6144
8, 48166, Pitch_bend_c, 8, 5632
8, 48168, Pitch_bend_c, 8, 5120
8, 48169, Pitch_bend_c, 8, 4608
8, 48170, Pitch_bend_c, 8, 4096
8, 48171, Pitch_bend_c, 8, 3584
8, 48172, Pitch_bend_c, 8, 3072
8, 48174, Pitch_bend_c, 8, 2560
8, 48175, Pitch_bend_c, 8, 2048
8, 48176, Pitch_bend_c, 8, 1536
8, 48177, Pitch_bend_c, 8, 1024
8, 48178, Pitch_bend_c, 8, 512
8, 48180, Pitch_bend_c, 8, 0
8, 48295, Note_on_c, 8, 69, 0
8, 48342, Pitch_bend_c, 8, 8192
8, 48482, Note_on_c, 8, 74, 83
8, 48566, Note_on_c, 8, 74, 0
8, 48601, Note_on_c, 8, 74, 80
8, 48686, Note_on_c, 8, 74, 0
8, 48717, Note_on_c, 8, 74, 79
8, 48776, Note_on_c, 8, 74, 0
8, 48782, Note_on_c, 8, 74, 81
8, 48836, Note_on_c, 8, 74, 0
8, 48902, Note_on_c, 8, 72, 83
8, 48956, Note_on_c, 8, 72, 0
8, 49017, Note_on_c, 8, 72, 81
8, 49076, Note_on_c, 8, 72, 0
8, 49140, Note_on_c, 8, 72, 83
8, 49226, Note_on_c, 8, 72, 0
8, 50458, Note_on_c, 8, 65, 82
8, 50516, Note_on_c, 8, 65, 0
8, 50517, Note_on_c, 8, 65, 82
8, 50576, Note_on_c, 8, 65, 0
8, 50579, Note_on_c, 8, 65, 79
8, 50636, Note_on_c, 8, 65, 0
8, 50640, Note_on_c, 8, 65, 80
8, 50696, Note_on_c, 8, 65, 0
8, 50699, Note_on_c, 8, 65, 79
8, 50756, Note_on_c, 8, 65, 0
8, 50760, Note_on_c, 8, 62, 78
8, 50816, Note_on_c, 8, 62, 0
8, 50819, Note_on_c, 8, 64, 83
8, 50876, Note_on_c, 8, 64, 0
8, 50878, Note_on_c, 8, 65, 80
8, 50936, Note_on_c, 8, 65, 0
8, 50941, Note_on_c, 8, 65, 83
8, 50996, Note_on_c, 8, 65, 0
8, 51000, Note_on_c, 8, 65, 79
8, 51045, Pitch_bend_c, 8, 8192
8, 51046, Pitch_bend_c, 8, 7936
8, 51048, Pitch_bend_c, 8, 7552
8, 51049, Pitch_bend_c, 8, 7168
8, 51050, Pitch_bend_c, 8, 6912
8, 51051, Pitch_bend_c, 8, 6528
8, 51052, Pitch_bend_c, 8, 6144
8, 51054, Pitch_bend_c, 8, 5888
8, 51055, Pitch_bend_c, 8, 5504
8, 51056, Pitch_bend_c, 8, 5120
8, 51057, Pitch_bend_c, 8, 4864
8, 51058, Pitch_bend_c, 8, 4480
8, 51060, Pitch_bend_c, 8, 4096
8, 51116, Note_on_c, 8, 65, 0
8, 51120, Pitch_bend_c, 8, 8192
8, 51123, Note_on_c, 8, 64, 80
8, 51206, Note_on_c, 8, 64, 0
8, 51240, Note_on_c, 8, 67, 120
8, 51291, Pitch_bend_c, 8, 8192
8, 51292, Pitch_bend_c, 8, 9472
8, 51294, Pitch_bend_c, 8, 10624
8, 51295, Pitch_bend_c, 8, 11776
8, 51296, Pitch_bend_c, 8, 12928
8, 51297, Pitch_bend_c, 8, 14080
8, 51298, Pitch_bend_c, 8, 15232
8, 51300, Pitch_bend_c, 8, 16383
8, 51356, Note_on_c, 8, 67, 0
8, 51360, Pitch_bend_c, 8, 8192
8, 51361, Note_on_c, 8, 69, 118
8, 51386, Note_on_c, 8, 69, 0
8, 51418, Note_on_c, 8, 65, 80
8, 51476, Note_on_c, 8, 65, 0
8, 51477, Note_on_c, 8, 65, 80
8, 51536, Note_on_c, 8, 65, 0
8, 51537, Note_on_c, 8, 65, 78
8, 51596, Note_on_c, 8, 65, 0
8, 51603, Note_on_c, 8, 65, 80
8, 51656, Note_on_c, 8, 65, 0
8, 51660, Note_on_c, 8, 65, 82
8, 51716, Note_on_c, 8, 65, 0
8, 51721, Note_on_c, 8, 62, 78
8, 51776, Note_on_c, 8, 62, 0
8, 51780, Note_on_c, 8, 64, 83
8, 51836, Note_on_c, 8, 64, 0
8, 51842, Note_on_c, 8, 65, 83
8, 51955, Note_on_c, 8, 65, 0
8, 51963, Note_on_c, 8, 65, 78
8, 52076, Note_on_c, 8, 65, 0
8, 52079, Note_on_c, 8, 64, 83
8, 52158, Note_on_c, 8, 64, 0
8, 52160, Note_on_c, 8, 62, 83
8, 52237, Note_on_c, 8, 62, 0
8, 52242, Note_on_c, 8, 64, 79
8, 52316, Note_on_c, 8, 64, 0
8, 52319, Note_on_c, 8, 65, 82
8, 52376, Note_on_c, 8, 65, 0
8, 52380, Note_on_c, 8, 65, 83
8, 52435, Note_on_c, 8, 65, 0
8, 52438, Note_on_c, 8, 65, 82
8, 52495, Note_on_c, 8, 65, 0
8, 52498, Note_on_c, 8, 65, 83
8, 52555, Note_on_c, 8, 65, 0
8, 52560, Note_on_c, 8, 65, 81
8, 52615, Note_on_c, 8, 65, 0
8, 52617, Note_on_c, 8, 65, 81
8, 52676, Note_on_c, 8, 65, 0
8, 52681, Note_on_c, 8, 62, 83
8, 52736, Note_on_c, 8, 62, 0
8, 52739, Note_on_c, 8, 64, 81
8, 52796, Note_on_c, 8, 64, 0
8, 52801, Note_on_c, 8, 65, 79
8, 52856, Note_on_c, 8, 65, 0
8, 52863, Note_on_c, 8, 65, 79
8, 52916, Note_on_c, 8, 65, 0
8, 52923, Note_on_c, 8, 65, 78
8, 52968, Pitch_bend_c, 8, 8192
8, 52969, Pitch_bend_c, 8, 8960
8, 52970, Pitch_bend_c, 8, 9728
8, 52971, Pitch_bend_c, 8, 10624
8, 52972, Pitch_bend_c, 8, 11392
8, 52974, Pitch_bend_c, 8, 12288
8, 52975, Pitch_bend_c, 8, 13056
8, 52976, Pitch_bend_c, 8, 13824
8, 52977, Pitch_bend_c, 8, 14720
8, 52978, Pitch_bend_c, 8, 15488
8, 52980, Pitch_bend_c, 8, 16383
8, 53035, Note_on_c, 8, 65, 0
8, 53040, Pitch_bend_c, 8, 8192
8, 53043, Note_on_c, 8, 64, 81
8, 53096, Note_on_c, 8, 64, 0
8, 53160, Note_on_c, 8, 67, 100
8, 53210, Pitch_bend_c, 8, 8192
8, 53211, Pitch_bend_c, 8, 9216
8, 53211, Pitch_bend_c, 8, 8192
8, 53212, Pitch_bend_c, 8, 10240
8, 53212, Pitch_bend_c, 8, 9472
8, 53214, Pitch_bend_c, 8, 11264
8, 53214, Pitch_bend_c, 8, 10624
8, 53215, Pitch_bend_c, 8, 11776
8, 53215, Pitch_bend_c, 8, 12288
8, 53216, Pitch_bend_c, 8, 12928
8, 53216, Pitch_bend_c, 8, 13312
8, 53217, Pitch_bend_c, 8, 14080
8, 53217, Pitch_bend_c, 8, 14336
8, 53218, Pitch_bend_c, 8, 15360
8, 53218, Pitch_bend_c, 8, 15232
8, 53220, Pitch_bend_c, 8, 16383
8, 53220, Pitch_bend_c, 8, 16383
8, 53279, Note_on_c, 8, 67, 0
8, 53280, Note_on_c, 8, 69, 101
8, 53280, Pitch_bend_c, 8, 8192
8, 53280, Pitch_bend_c, 8, 8192
8, 53310, Note_on_c, 8, 69, 0
8, 53341, Note_on_c, 8, 65, 81
8, 53396, Note_on_c, 8, 65, 0
8, 53402, Note_on_c, 8, 65, 80
8, 53456, Note_on_c, 8, 65, 0
8, 53461, Note_on_c, 8, 65, 78
8, 53516, Note_on_c, 8, 65, 0
8, 53522, Note_on_c, 8, 65, 83
8, 53576, Note_on_c, 8, 65, 0
8, 53579, Note_on_c, 8, 65, 79
8, 53636, Note_on_c, 8, 65, 0
8, 53639, Note_on_c, 8, 62, 79
8, 53696, Note_on_c, 8, 62, 0
8, 53701, Note_on_c, 8, 64, 80
8, 53756, Note_on_c, 8, 64, 0
8, 53762, Note_on_c, 8, 65, 78
8, 53816, Note_on_c, 8, 65, 0
8, 53878, Note_on_c, 8, 65, 78
8, 53996, Note_on_c, 8, 65, 0
8, 54001, Note_on_c, 8, 64, 78
8, 54056, Note_on_c, 8, 64, 0
8, 54057, Note_on_c, 8, 62, 81
8, 54116, Note_on_c, 8, 62, 0
8, 54123, Note_on_c, 8, 64, 81
8, 54236, Note_on_c, 8, 64, 0
8, 54239, Note_on_c, 8, 67, 82
8, 54291, Pitch_bend_c, 8, 8192
8, 54292, Pitch_bend_c, 8, 6912
8, 54294, Pitch_bend_c, 8, 5632
8, 54295, Pitch_bend_c, 8, 4352
8, 54296, Pitch_bend_c, 8, 3200
8, 54297, Pitch_bend_c, 8, 1920
8, 54298, Pitch_bend_c, 8, 640
8, 54300, Pitch_bend_c, 8, 0
8, 54356, Note_on_c, 8, 67, 0
8, 54357, Note_on_c, 8, 65, 80
8, 54360, Pitch_bend_c, 8, 8192
8, 54416, Note_on_c, 8, 65, 0
8, 54462, Pitch_bend_c, 8, 12288
8, 54462, Pitch_bend_c, 8, 12288
8, 54483, Note_on_c, 8, 64, 83
8, 54681, Pitch_bend_c, 8, 12288
8, 54682, Pitch_bend_c, 8, 12160
8, 54684, Pitch_bend_c, 8, 12032
8, 54685, Pitch_bend_c, 8, 11904
8, 54686, Pitch_bend_c, 8, 11776
8, 54687, Pitch_bend_c, 8, 11648
8, 54688, Pitch_bend_c, 8, 11520
8, 54690, Pitch_bend_c, 8, 11392
8, 54691, Pitch_bend_c, 8, 11264
8, 54692, Pitch_bend_c, 8, 11136
8, 54693, Pitch_bend_c, 8, 11008
8, 54694, Pitch_bend_c, 8, 10880
8, 54696, Pitch_bend_c, 8, 10752
8, 54697, Pitch_bend_c, 8, 10624
8, 54698, Pitch_bend_c, 8, 10496
8, 54699, Pitch_bend_c, 8, 10368
8, 54700, Pitch_bend_c, 8, 10240
8, 54702, Pitch_bend_c, 8, 10112
8, 54703, Pitch_bend_c, 8, 9984
8, 54704, Pitch_bend_c, 8, 9856
8, 54705, Pitch_bend_c, 8, 9728
8, 54706, Pitch_bend_c, 8, 9600
8, 54708, Pitch_bend_c, 8, 9472
8, 54709, Pitch_bend_c, 8, 9344
8, 54710, Pitch_bend_c, 8, 9216
8, 54711, Pitch_bend_c, 8, 9088
8, 54712, Pitch_bend_c, 8, 8960
8, 54714, Pitch_bend_c, 8, 8832
8, 54715, Pitch_bend_c, 8, 8704
8, 54716, Pitch_bend_c, 8, 8576
8, 54717, Pitch_bend_c, 8, 8448
8, 54718, Pitch_bend_c, 8, 8320
8, 54720, Pitch_bend_c, 8, 8192
8, 54880, Pitch_bend_c, 8, 8192
8, 54882, Pitch_bend_c, 8, 7680
8, 54883, Pitch_bend_c, 8, 7168
8, 54884, Pitch_bend_c, 8, 6656
8, 54885, Pitch_bend_c, 8, 6144
8, 54886, Pitch_bend_c, 8, 5632
8, 54888, Pitch_bend_c, 8, 5120
8, 54889, Pitch_bend_c, 8, 4608
8, 54890, Pitch_bend_c, 8, 4096
8, 54891, Pitch_bend_c, 8, 3584
8, 54892, Pitch_bend_c, 8, 3072
8, 54894, Pitch_bend_c, 8, 2560
8, 54895, Pitch_bend_c, 8, 2048
8, 54896, Pitch_bend_c, 8, 1536
8, 54897, Pitch_bend_c, 8, 1024
8, 54898, Pitch_bend_c, 8, 512
8, 54900, Pitch_bend_c, 8, 0
8, 54956, Note_on_c, 8, 64, 0
8, 55062, Pitch_bend_c, 8, 8192
8, 56211, Pitch_bend_c, 8, 8192
8, 56212, Pitch_bend_c, 8, 6912
8, 56214, Pitch_bend_c, 8, 5632
8, 56215, Pitch_bend_c, 8, 4352
8, 56216, Pitch_bend_c, 8, 3200
8, 56217, Pitch_bend_c, 8, 1920
8, 56218, Pitch_bend_c, 8, 640
8, 56220, Pitch_bend_c, 8, 0
8, 56280, Pitch_bend_c, 8, 8192
8, 56401, Note_on_c, 8, 70, 102
8, 56580, Pitch_bend_c, 8, 8320
8, 56582, Pitch_bend_c, 8, 8192
8, 56584, Pitch_bend_c, 8, 8064
8, 56586, Pitch_bend_c, 8, 7936
8, 56588, Pitch_bend_c, 8, 7808
8, 56589, Pitch_bend_c, 8, 7680
8, 56592, Pitch_bend_c, 8, 7552
8, 56593, Pitch_bend_c, 8, 7424
8, 56595, Pitch_bend_c, 8, 7296
8, 56596, Pitch_bend_c, 8, 7168
8, 56599, Pitch_bend_c, 8, 7040
8, 56600, Pitch_bend_c, 8, 6912
8, 56602, Pitch_bend_c, 8, 6784
8, 56604, Pitch_bend_c, 8, 6656
8, 56606, Pitch_bend_c, 8, 6528
8, 56607, Pitch_bend_c, 8, 6400
8, 56610, Pitch_bend_c, 8, 6272
8, 56611, Pitch_bend_c, 8, 6144
8, 56613, Pitch_bend_c, 8, 6016
8, 56614, Pitch_bend_c, 8, 5888
8, 56617, Pitch_bend_c, 8, 5760
8, 56618, Pitch_bend_c, 8, 5632
8, 56620, Pitch_bend_c, 8, 5504
8, 56622, Pitch_bend_c, 8, 5376
8, 56624, Pitch_bend_c, 8, 5248
8, 56625, Pitch_bend_c, 8, 5120
8, 56628, Pitch_bend_c, 8, 4992
8, 56629, Pitch_bend_c, 8, 4864
8, 56631, Pitch_bend_c, 8, 4736
8, 56632, Pitch_bend_c, 8, 4608
8, 56635, Pitch_bend_c, 8, 4480
8, 56636, Note_on_c, 8, 70, 0
8, 56636, Pitch_bend_c, 8, 4352
8, 56638, Note_on_c, 8, 69, 99
8, 56638, Pitch_bend_c, 8, 4224
8, 56640, Pitch_bend_c, 8, 8192
8, 56800, Pitch_bend_c, 8, 8192
8, 56802, Pitch_bend_c, 8, 7552
8, 56803, Pitch_bend_c, 8, 7040
8, 56804, Pitch_bend_c, 8, 6400
8, 56805, Pitch_bend_c, 8, 5888
8, 56806, Pitch_bend_c, 8, 5248
8, 56808, Pitch_bend_c, 8, 4736
8, 56809, Pitch_bend_c, 8, 4096
8, 56810, Pitch_bend_c, 8, 3584
8, 56811, Pitch_bend_c, 8, 3072
8, 56812, Pitch_bend_c, 8, 2432
8, 56814, Pitch_bend_c, 8, 1920
8, 56815, Pitch_bend_c, 8, 1280
8, 56816, Pitch_bend_c, 8, 768
8, 56817, Pitch_bend_c, 8, 128
8, 56818, Pitch_bend_c, 8, 0
8, 56820, Pitch_bend_c, 8, 0
8, 57116, Note_on_c, 8, 69, 0
8, 57136, Pitch_bend_c, 8, 8192
8, 57171, Pitch_bend_c, 8, 8192
8, 57172, Pitch_bend_c, 8, 6912
8, 57174, Pitch_bend_c, 8, 5632
8, 57175, Pitch_bend_c, 8, 4352
8, 57176, Pitch_bend_c, 8, 3200
8, 57177, Pitch_bend_c, 8, 1920
8, 57178, Pitch_bend_c, 8, 640
8, 57180, Pitch_bend_c, 8, 0
8, 57240, Pitch_bend_c, 8, 8192
8, 57360, Note_on_c, 8, 70, 103
8, 57540, Pitch_bend_c, 8, 8320
8, 57542, Pitch_bend_c, 8, 8192
8, 57544, Pitch_bend_c, 8, 8064
8, 57546, Pitch_bend_c, 8, 7936
8, 57548, Pitch_bend_c, 8, 7808
8, 57549, Pitch_bend_c, 8, 7680
8, 57552, Pitch_bend_c, 8, 7552
8, 57553, Pitch_bend_c, 8, 7424
8, 57555, Pitch_bend_c, 8, 7296
8, 57556, Pitch_bend_c, 8, 7168
8, 57559, Pitch_bend_c, 8, 7040
8, 57560, Pitch_bend_c, 8, 6912
8, 57562, Pitch_bend_c, 8, 6784
8, 57564, Pitch_bend_c, 8, 6656
8, 57566, Pitch_bend_c, 8, 6528
8, 57567, Pitch_bend_c, 8, 6400
8, 57570, Pitch_bend_c, 8, 6272
8, 57571, Pitch_bend_c, 8, 6144
8, 57573, Pitch_bend_c, 8, 6016
8, 57574, Pitch_bend_c, 8, 5888
8, 57577, Pitch_bend_c, 8, 5760
8, 57578, Pitch_bend_c, 8, 5632
8, 57580, Pitch_bend_c, 8, 5504
8, 57582, Pitch_bend_c, 8, 5376
8, 57584, Pitch_bend_c, 8, 5248
8, 57585, Pitch_bend_c, 8, 5120
8, 57588, Pitch_bend_c, 8, 4992
8, 57589, Pitch_bend_c, 8, 4864
8, 57591, Pitch_bend_c, 8, 4736
8, 57592, Pitch_bend_c, 8, 4608
8, 57595, Pitch_bend_c, 8, 4480
8, 57596, Note_on_c, 8, 70, 0
8, 57596, Pitch_bend_c, 8, 4352
8, 57598, Pitch_bend_c, 8, 4224
8, 57600, Pitch_bend_c, 8, 8192
8, 57601, Note_on_c, 8, 69, 102
8, 57760, Pitch_bend_c, 8, 8192
8, 57762, Pitch_bend_c, 8, 7552
8, 57763, Pitch_bend_c, 8, 7040
8, 57764, Pitch_bend_c, 8, 6400
8, 57765, Pitch_bend_c, 8, 5888
8, 57766, Pitch_bend_c, 8, 5248
8, 57768, Pitch_bend_c, 8, 4736
8, 57769, Pitch_bend_c, 8, 4096
8, 57770, Pitch_bend_c, 8, 3584
8, 57771, Pitch_bend_c, 8, 3072
8, 57772, Pitch_bend_c, 8, 2432
8, 57774, Pitch_bend_c, 8, 1920
8, 57775, Pitch_bend_c, 8, 1280
8, 57776, Pitch_bend_c, 8, 768
8, 57777, Pitch_bend_c, 8, 128
8, 57778, Pitch_bend_c, 8, 0
8, 57780, Pitch_bend_c, 8, 0
8, 58076, Note_on_c, 8, 69, 0
8, 58131, Pitch_bend_c, 8, 8192
8, 58132, Pitch_bend_c, 8, 6912
8, 58134, Pitch_bend_c, 8, 5632
8, 58135, Pitch_bend_c, 8, 4352
8, 58136, Pitch_bend_c, 8, 3200
8, 58137, Pitch_bend_c, 8, 1920
8, 58138, Pitch_bend_c, 8, 640
8, 58140, Pitch_bend_c, 8, 0
8, 58200, Pitch_bend_c, 8, 8192
8, 58323, Note_on_c, 8, 70, 99
8, 58500, Pitch_bend_c, 8, 8320
8, 58502, Pitch_bend_c, 8, 8192
8, 58504, Pitch_bend_c, 8, 8064
8, 58506, Pitch_bend_c, 8, 7936
8, 58508, Pitch_bend_c, 8, 7808
8, 58509, Pitch_bend_c, 8, 7680
8, 58512, Pitch_bend_c, 8, 7552
8, 58513, Pitch_bend_c, 8, 7424
8, 58515, Pitch_bend_c, 8, 7296
8, 58516, Pitch_bend_c, 8, 7168
8, 58519, Pitch_bend_c, 8, 7040
8, 58520, Pitch_bend_c, 8, 6912
8, 58522, Pitch_bend_c, 8, 6784
8, 58524, Pitch_bend_c, 8, 6656
8, 58526, Pitch_bend_c, 8, 6528
8, 58527, Pitch_bend_c, 8, 6400
8, 58530, Pitch_bend_c, 8, 6272
8, 58531, Pitch_bend_c, 8, 6144
8, 58533, Pitch_bend_c, 8, 6016
8, 58534, Pitch_bend_c, 8, 5888
8, 58537, Pitch_bend_c, 8, 5760
8, 58538, Pitch_bend_c, 8, 5632
8, 58540, Pitch_bend_c, 8, 5504
8, 58542, Pitch_bend_c, 8, 5376
8, 58544, Pitch_bend_c, 8, 5248
8, 58545, Pitch_bend_c, 8, 5120
8, 58548, Pitch_bend_c, 8, 4992
8, 58549, Pitch_bend_c, 8, 4864
8, 58551, Pitch_bend_c, 8, 4736
8, 58552, Pitch_bend_c, 8, 4608
8, 58555, Pitch_bend_c, 8, 4480
8, 58556, Note_on_c, 8, 70, 0
8, 58556, Pitch_bend_c, 8, 4352
8, 58558, Pitch_bend_c, 8, 4224
8, 58560, Pitch_bend_c, 8, 8192
8, 58562, Note_on_c, 8, 69, 98
8, 58720, Pitch_bend_c, 8, 8192
8, 58722, Pitch_bend_c, 8, 7552
8, 58723, Pitch_bend_c, 8, 7040
8, 58724, Pitch_bend_c, 8, 6400
8, 58725, Pitch_bend_c, 8, 5888
8, 58726, Pitch_bend_c, 8, 5248
8, 58728, Pitch_bend_c, 8, 4736
8, 58729, Pitch_bend_c, 8, 4096
8, 58730, Pitch_bend_c, 8, 3584
8, 58731, Pitch_bend_c, 8, 3072
8, 58732, Pitch_bend_c, 8, 2432
8, 58734, Pitch_bend_c, 8, 1920
8, 58735, Pitch_bend_c, 8, 1280
8, 58736, Pitch_bend_c, 8, 768
8, 58737, Pitch_bend_c, 8, 128
8, 58738, Pitch_bend_c, 8, 0
8, 58740, Pitch_bend_c, 8, 0
8, 59036, Note_on_c, 8, 69, 0
8, 59091, Pitch_bend_c, 8, 8192
8, 59092, Pitch_bend_c, 8, 6912
8, 59094, Pitch_bend_c, 8, 5632
8, 59095, Pitch_bend_c, 8, 4352
8, 59096, Pitch_bend_c, 8, 3200
8, 59097, Pitch_bend_c, 8, 1920
8, 59098, Pitch_bend_c, 8, 640
8, 59100, Pitch_bend_c, 8, 0
8, 59160, Pitch_bend_c, 8, 8192
8, 59278, Note_on_c, 8, 70, 100
8, 59460, Pitch_bend_c, 8, 8320
8, 59462, Pitch_bend_c, 8, 8192
8, 59464, Pitch_bend_c, 8, 8064
8, 59466, Pitch_bend_c, 8, 7936
8, 59468, Pitch_bend_c, 8, 7808
8, 59469, Pitch_bend_c, 8, 7680
8, 59472, Pitch_bend_c, 8, 7552
8, 59473, Pitch_bend_c, 8, 7424
8, 59475, Pitch_bend_c, 8, 7296
8, 59476, Pitch_bend_c, 8, 7168
8, 59479, Pitch_bend_c, 8, 7040
8, 59480, Pitch_bend_c, 8, 6912
8, 59482, Pitch_bend_c, 8, 6784
8, 59484, Pitch_bend_c, 8, 6656
8, 59486, Pitch_bend_c, 8, 6528
8, 59487, Pitch_bend_c, 8, 6400
8, 59490, Pitch_bend_c, 8, 6272
8, 59491, Pitch_bend_c, 8, 6144
8, 59493, Pitch_bend_c, 8, 6016
8, 59494, Pitch_bend_c, 8, 5888
8, 59497, Pitch_bend_c, 8, 5760
8, 59498, Pitch_bend_c, 8, 5632
8, 59500, Pitch_bend_c, 8, 5504
8, 59502, Pitch_bend_c, 8, 5376
8, 59504, Pitch_bend_c, 8, 5248
8, 59505, Pitch_bend_c, 8, 5120
8, 59508, Pitch_bend_c, 8, 4992
8, 59509, Pitch_bend_c, 8, 4864
8, 59511, Pitch_bend_c, 8, 4736
8, 59512, Pitch_bend_c, 8, 4608
8, 59515, Pitch_bend_c, 8, 4480
8, 59516, Note_on_c, 8, 70, 0
8, 59516, Pitch_bend_c, 8, 4352
8, 59518, Pitch_bend_c, 8, 4224
8, 59520, Pitch_bend_c, 8, 8192
8, 59522, Note_on_c, 8, 69, 100
8, 59680, Pitch_bend_c, 8, 8192
8, 59682, Pitch_bend_c, 8, 7552
8, 59683, Pitch_bend_c, 8, 7040
8, 59684, Pitch_bend_c, 8, 6400
8, 59685, Pitch_bend_c, 8, 5888
8, 59686, Pitch_bend_c, 8, 5248
8, 59688, Pitch_bend_c, 8, 4736
8, 59689, Pitch_bend_c, 8, 4096
8, 59690, Pitch_bend_c, 8, 3584
8, 59691, Pitch_bend_c, 8, 3072
8, 59692, Pitch_bend_c, 8, 2432
8, 59694, Pitch_bend_c, 8, 1920
8, 59695, Pitch_bend_c, 8, 1280
8, 59696, Pitch_bend_c, 8, 768
8, 59697, Pitch_bend_c, 8, 128
8, 59698, Pitch_bend_c, 8, 0
8, 59700, Pitch_bend_c, 8, 0
8, 59996, Note_on_c, 8, 69, 0
8, 60000, Control_c, 8, 11, 127
8, 60031, Control_c, 8, 11, 126
8, 60051, Pitch_bend_c, 8, 8192
8, 60052, Pitch_bend_c, 8, 6912
8, 60054, Pitch_bend_c, 8, 5632
8, 60055, Pitch_bend_c, 8, 4352
8, 60056, Pitch_bend_c, 8, 3200
8, 60057, Pitch_bend_c, 8, 1920
8, 60058, Pitch_bend_c, 8, 640
8, 60060, Pitch_bend_c, 8, 0
8, 60062, Control_c, 8, 11, 125
8, 60093, Control_c, 8, 11, 124
8, 60120, Pitch_bend_c, 8, 8192
8, 60124, Control_c, 8, 11, 123
8, 60155, Control_c, 8, 11, 122
8, 60187, Control_c, 8, 11, 121
8, 60218, Control_c, 8, 11, 120
8, 60240, Note_on_c, 8, 70, 103
8, 60249, Control_c, 8, 11, 119
8, 60280, Control_c, 8, 11, 118
8, 60311, Control_c, 8, 11, 117
8, 60342, Control_c, 8, 11, 116
8, 60374, Control_c, 8, 11, 115
8, 60405, Control_c, 8, 11, 114
8, 60420, Pitch_bend_c, 8, 8320
8, 60422, Pitch_bend_c, 8, 8192
8, 60424, Pitch_bend_c, 8, 8064
8, 60426, Pitch_bend_c, 8, 7936
8, 60428, Pitch_bend_c, 8, 7808
8, 60429, Pitch_bend_c, 8, 7680
8, 60432, Pitch_bend_c, 8, 7552
8, 60433, Pitch_bend_c, 8, 7424
8, 60435, Pitch_bend_c, 8, 7296
8, 60436, Pitch_bend_c, 8, 7168
8, 60436, Control_c, 8, 11, 113
8, 60439, Pitch_bend_c, 8, 7040
8, 60440, Pitch_bend_c, 8, 6912
8, 60442, Pitch_bend_c, 8, 6784
8, 60444, Pitch_bend_c, 8, 6656
8, 60446, Pitch_bend_c, 8, 6528
8, 60447, Pitch_bend_c, 8, 6400
8, 60450, Pitch_bend_c, 8, 6272
8, 60451, Pitch_bend_c, 8, 6144
8, 60453, Pitch_bend_c, 8, 6016
8, 60454, Pitch_bend_c, 8, 5888
8, 60457, Pitch_bend_c, 8, 5760
8, 60458, Pitch_bend_c, 8, 5632
8, 60460, Pitch_bend_c, 8, 5504
8, 60462, Pitch_bend_c, 8, 5376
8, 60464, Pitch_bend_c, 8, 5248
8, 60465, Pitch_bend_c, 8, 5120
8, 60467, Control_c, 8, 11, 112
8, 60468, Pitch_bend_c, 8, 4992
8, 60469, Pitch_bend_c, 8, 4864
8, 60471, Pitch_bend_c, 8, 4736
8, 60472, Pitch_bend_c, 8, 4608
8, 60475, Pitch_bend_c, 8, 4480
8, 60476, Note_on_c, 8, 70, 0
8, 60476, Pitch_bend_c, 8, 4352
8, 60478, Pitch_bend_c, 8, 4224
8, 60478, Note_on_c, 8, 69, 99
8, 60480, Pitch_bend_c, 8, 8192
8, 60498, Control_c, 8, 11, 111
8, 60530, Control_c, 8, 11, 110
8, 60561, Control_c, 8, 11, 109
8, 60592, Control_c, 8, 11, 108
8, 60623, Control_c, 8, 11, 107
8, 60640, Pitch_bend_c, 8, 8192
8, 60642, Pitch_bend_c, 8, 7552
8, 60643, Pitch_bend_c, 8, 7040
8, 60644, Pitch_bend_c, 8, 6400
8, 60645, Pitch_bend_c, 8, 5888
8, 60646, Pitch_bend_c, 8, 5248
8, 60648, Pitch_bend_c, 8, 4736
8, 60649, Pitch_bend_c, 8, 4096
8, 60650, Pitch_bend_c, 8, 3584
8, 60651, Pitch_bend_c, 8, 3072
8, 60652, Pitch_bend_c, 8, 2432
8, 60654, Control_c, 8, 11, 106
8, 60654, Pitch_bend_c, 8, 1920
8, 60655, Pitch_bend_c, 8, 1280
8, 60656, Pitch_bend_c, 8, 768
8, 60657, Pitch_bend_c, 8, 128
8, 60658, Pitch_bend_c, 8, 0
8, 60660, Pitch_bend_c, 8, 0
8, 60685, Control_c, 8, 11, 105
8, 60717, Control_c, 8, 11, 104
8, 60748, Control_c, 8, 11, 103
8, 60779, Control_c, 8, 11, 102
8, 60810, Control_c, 8, 11, 101
8, 60841, Control_c, 8, 11, 100
8, 60873, Control_c, 8, 11, 99
8, 60904, Control_c, 8, 11, 98
8, 60935, Control_c, 8, 11, 97
8, 60956, Note_on_c, 8, 69, 0
8, 60966, Control_c, 8, 11, 96
8, 60997, Control_c, 8, 11, 95
8, 61011, Pitch_bend_c, 8, 8192
8, 61012, Pitch_bend_c, 8, 6912
8, 61014, Pitch_bend_c, 8, 5632
8, 61015, Pitch_bend_c, 8, 4352
8, 61016, Pitch_bend_c, 8, 3200
8, 61017, Pitch_bend_c, 8, 1920
8, 61018, Pitch_bend_c, 8, 640
8, 61020, Pitch_bend_c, 8, 0
8, 61028, Control_c, 8, 11, 94
8, 61060, Control_c, 8, 11, 93
8, 61080, Pitch_bend_c, 8, 8192
8, 61091, Control_c, 8, 11, 92
8, 61122, Control_c, 8, 11, 91
8, 61153, Control_c, 8, 11, 90
8, 61184, Control_c, 8, 11, 89
8, 61200, Note_on_c, 8, 70, 103
8, 61216, Control_c, 8, 11, 88
8, 61247, Control_c, 8, 11, 87
8, 61278, Control_c, 8, 11, 86
8, 61309, Control_c, 8, 11, 85
8, 61340, Control_c, 8, 11, 84
8, 61371, Control_c, 8, 11, 83
8, 61380, Pitch_bend_c, 8, 8320
8, 61382, Pitch_bend_c, 8, 8192
8, 61384, Pitch_bend_c, 8, 8064
8, 61386, Pitch_bend_c, 8, 7936
8, 61388, Pitch_bend_c, 8, 7808
8, 61389, Pitch_bend_c, 8, 7680
8, 61392, Pitch_bend_c, 8, 7552
8, 61393, Pitch_bend_c, 8, 7424
8, 61395, Pitch_bend_c, 8, 7296
8, 61396, Pitch_bend_c, 8, 7168
8, 61399, Pitch_bend_c, 8, 7040
8, 61400, Pitch_bend_c, 8, 6912
8, 61402, Pitch_bend_c, 8, 6784
8, 61403, Control_c, 8, 11, 82
8, 61404, Pitch_bend_c, 8, 6656
8, 61406, Pitch_bend_c, 8, 6528
8, 61407, Pitch_bend_c, 8, 6400
8, 61410, Pitch_bend_c, 8, 6272
8, 61411, Pitch_bend_c, 8, 6144
8, 61413, Pitch_bend_c, 8, 6016
8, 61414, Pitch_bend_c, 8, 5888
8, 61417, Pitch_bend_c, 8, 5760
8, 61418, Pitch_bend_c, 8, 5632
8, 61420, Pitch_bend_c, 8, 5504
8, 61422, Pitch_bend_c, 8, 5376
8, 61424, Pitch_bend_c, 8, 5248
8, 61425, Pitch_bend_c, 8, 5120
8, 61428, Pitch_bend_c, 8, 4992
8, 61429, Pitch_bend_c, 8, 4864
8, 61431, Pitch_bend_c, 8, 4736
8, 61432, Pitch_bend_c, 8, 4608
8, 61434, Control_c, 8, 11, 81
8, 61435, Pitch_bend_c, 8, 4480
8, 61436, Note_on_c, 8, 70, 0
8, 61436, Pitch_bend_c, 8, 4352
8, 61438, Pitch_bend_c, 8, 4224
8, 61440, Pitch_bend_c, 8, 8192
8, 61465, Control_c, 8, 11, 80
8, 61496, Control_c, 8, 11, 79
8, 61527, Control_c, 8, 11, 78
8, 61559, Control_c, 8, 11, 77
8, 61590, Control_c, 8, 11, 76
8, 61600, Pitch_bend_c, 8, 8192
8, 61602, Pitch_bend_c, 8, 7552
8, 61603, Pitch_bend_c, 8, 7040
8, 61604, Pitch_bend_c, 8, 6400
8, 61605, Pitch_bend_c, 8, 5888
8, 61606, Pitch_bend_c, 8, 5248
8, 61608, Pitch_bend_c, 8, 4736
8, 61609, Pitch_bend_c, 8, 4096
8, 61610, Pitch_bend_c, 8, 3584
8, 61611, Pitch_bend_c, 8, 3072
8, 61612, Pitch_bend_c, 8, 2432
8, 61614, Pitch_bend_c, 8, 1920
8, 61615, Pitch_bend_c, 8, 1280
8, 61616, Pitch_bend_c, 8, 768
8, 61617, Pitch_bend_c, 8, 128
8, 61618, Pitch_bend_c, 8, 0
8, 61620, Pitch_bend_c, 8, 0
8, 61621, Control_c, 8, 11, 75
8, 61652, Control_c, 8, 11, 74
8, 61683, Control_c, 8, 11, 73
8, 61714, Control_c, 8, 11, 72
8, 61746, Control_c, 8, 11, 71
8, 61777, Control_c, 8, 11, 70
8, 61808, Control_c, 8, 11, 69
8, 61839, Control_c, 8, 11, 68
8, 61870, Control_c, 8, 11, 67
8, 61902, Control_c, 8, 11, 66
8, 61933, Control_c, 8, 11, 65
8, 61936, Pitch_bend_c, 8, 8192
8, 61964, Control_c, 8, 11, 64
8, 61971, Pitch_bend_c, 8, 8192
8, 61972, Pitch_bend_c, 8, 6912
8, 61974, Pitch_bend_c, 8, 5632
8, 61975, Pitch_bend_c, 8, 4352
8, 61976, Pitch_bend_c, 8, 3200
8, 61977, Pitch_bend_c, 8, 1920
8, 61978, Pitch_bend_c, 8, 640
8, 61980, Pitch_bend_c, 8, 0
8, 61995, Control_c, 8, 11, 63
8, 62026, Control_c, 8, 11, 62
8, 62040, Pitch_bend_c, 8, 8192
8, 62057, Control_c, 8, 11, 61
8, 62089, Control_c, 8, 11, 60
8, 62120, Control_c, 8, 11, 59
8, 62151, Control_c, 8, 11, 58
8, 62162, Note_on_c, 8, 70, 99
8, 62182, Control_c, 8, 11, 57
8, 62213, Control_c, 8, 11, 56
8, 62245, Control_c, 8, 11, 55
8, 62276, Control_c, 8, 11, 54
8, 62307, Control_c, 8, 11, 53
8, 62338, Control_c, 8, 11, 52
8, 62340, Pitch_bend_c, 8, 8320
8, 62342, Pitch_bend_c, 8, 8192
8, 62344, Pitch_bend_c, 8, 8064
8, 62346, Pitch_bend_c, 8, 7936
8, 62348, Pitch_bend_c, 8, 7808
8, 62349, Pitch_bend_c, 8, 7680
8, 62352, Pitch_bend_c, 8, 7552
8, 62353, Pitch_bend_c, 8, 7424
8, 62355, Pitch_bend_c, 8, 7296
8, 62356, Pitch_bend_c, 8, 7168
8, 62359, Pitch_bend_c, 8, 7040
8, 62360, Pitch_bend_c, 8, 6912
8, 62362, Pitch_bend_c, 8, 6784
8, 62364, Pitch_bend_c, 8, 6656
8, 62366, Pitch_bend_c, 8, 6528
8, 62367, Pitch_bend_c, 8, 6400
8, 62369, Control_c, 8, 11, 51
8, 62370, Pitch_bend_c, 8, 6272
8, 62371, Pitch_bend_c, 8, 6144
8, 62373, Pitch_bend_c, 8, 6016
8, 62374, Pitch_bend_c, 8, 5888
8, 62377, Pitch_bend_c, 8, 5760
8, 62378, Pitch_bend_c, 8, 5632
8, 62380, Pitch_bend_c, 8, 5504
8, 62382, Pitch_bend_c, 8, 5376
8, 62384, Pitch_bend_c, 8, 5248
8, 62385, Pitch_bend_c, 8, 5120
8, 62388, Pitch_bend_c, 8, 4992
8, 62389, Pitch_bend_c, 8, 4864
8, 62391, Pitch_bend_c, 8, 4736
8, 62392, Pitch_bend_c, 8, 4608
8, 62395, Pitch_bend_c, 8, 4480
8, 62396, Note_on_c, 8, 70, 0
8, 62396, Pitch_bend_c, 8, 4352
8, 62398, Note_on_c, 8, 69, 102
8, 62398, Pitch_bend_c, 8, 4224
8, 62400, Control_c, 8, 11, 50
8, 62400, Pitch_bend_c, 8, 8192
8, 62432, Control_c, 8, 11, 49
8, 62463, Control_c, 8, 11, 48
8, 62494, Control_c, 8, 11, 47
8, 62525, Control_c, 8, 11, 46
8, 62556, Control_c, 8, 11, 45
8, 62560, Pitch_bend_c, 8, 8192
8, 62562, Pitch_bend_c, 8, 7552
8, 62563, Pitch_bend_c, 8, 7040
8, 62564, Pitch_bend_c, 8, 6400
8, 62565, Pitch_bend_c, 8, 5888
8, 62566, Pitch_bend_c, 8, 5248
8, 62568, Pitch_bend_c, 8, 4736
8, 62569, Pitch_bend_c, 8, 4096
8, 62570, Pitch_bend_c, 8, 3584
8, 62571, Pitch_bend_c, 8, 3072
8, 62572, Pitch_bend_c, 8, 2432
8, 62574, Pitch_bend_c, 8, 1920
8, 62575, Pitch_bend_c, 8, 1280
8, 62576, Pitch_bend_c, 8, 768
8, 62577, Pitch_bend_c, 8, 128
8, 62578, Pitch_bend_c, 8, 0
8, 62580, Pitch_bend_c, 8, 0
8, 62588, Control_c, 8, 11, 44
8, 62619, Control_c, 8, 11, 43
8, 62650, Control_c, 8, 11, 42
8, 62681, Control_c, 8, 11, 41
8, 62712, Control_c, 8, 11, 40
8, 62743, Control_c, 8, 11, 39
8, 62775, Control_c, 8, 11, 38
8, 62806, Control_c, 8, 11, 37
8, 62837, Control_c, 8, 11, 36
8, 62868, Control_c, 8, 11, 35
8, 62876, Note_on_c, 8, 69, 0
8, 62896, Pitch_bend_c, 8, 8192
8, 62899, Control_c, 8, 11, 34
8, 62931, Control_c, 8, 11, 33
8, 62931, Pitch_bend_c, 8, 8192
8, 62932, Pitch_bend_c, 8, 6912
8, 62934, Pitch_bend_c, 8, 5632
8, 62935, Pitch_bend_c, 8, 4352
8, 62936, Pitch_bend_c, 8, 3200
8, 62937, Pitch_bend_c, 8, 1920
8, 62938, Pitch_bend_c, 8, 640
8, 62940, Pitch_bend_c, 8, 0
8, 62962, Control_c, 8, 11, 32
8, 62993, Control_c, 8, 11, 31
8, 63000, Pitch_bend_c, 8, 8192
8, 63024, Control_c, 8, 11, 30
8, 63055, Control_c, 8, 11, 29
8, 63086, Control_c, 8, 11, 28
8, 63118, Control_c, 8, 11, 27
8, 63119, Note_on_c, 8, 70, 102
8, 63149, Control_c, 8, 11, 26
8, 63180, Control_c, 8, 11, 25
8, 63211, Control_c, 8, 11, 24
8, 63242, Control_c, 8, 11, 23
8, 63274, Control_c, 8, 11, 22
8, 63300, Pitch_bend_c, 8, 8320
8, 63302, Pitch_bend_c, 8, 8192
8, 63304, Pitch_bend_c, 8, 8064
8, 63305, Control_c, 8, 11, 21
8, 63306, Pitch_bend_c, 8, 7936
8, 63308, Pitch_bend_c, 8, 7808
8, 63309, Pitch_bend_c, 8, 7680
8, 63312, Pitch_bend_c, 8, 7552
8, 63313, Pitch_bend_c, 8, 7424
8, 63315, Pitch_bend_c, 8, 7296
8, 63316, Pitch_bend_c, 8, 7168
8, 63319, Pitch_bend_c, 8, 7040
8, 63320, Pitch_bend_c, 8, 6912
8, 63322, Pitch_bend_c, 8, 6784
8, 63324, Pitch_bend_c, 8, 6656
8, 63326, Pitch_bend_c, 8, 6528
8, 63327, Pitch_bend_c, 8, 6400
8, 63330, Pitch_bend_c, 8, 6272
8, 63331, Pitch_bend_c, 8, 6144
8, 63333, Pitch_bend_c, 8, 6016
8, 63334, Pitch_bend_c, 8, 5888
8, 63336, Control_c, 8, 11, 20
8, 63337, Pitch_bend_c, 8, 5760
8, 63338, Pitch_bend_c, 8, 5632
8, 63340, Pitch_bend_c, 8, 5504
8, 63342, Pitch_bend_c, 8, 5376
8, 63344, Pitch_bend_c, 8, 5248
8, 63345, Pitch_bend_c, 8, 5120
8, 63348, Pitch_bend_c, 8, 4992
8, 63349, Pitch_bend_c, 8, 4864
8, 63351, Pitch_bend_c, 8, 4736
8, 63352, Pitch_bend_c, 8, 4608
8, 63355, Pitch_bend_c, 8, 4480
8, 63356, Note_on_c, 8, 70, 0
8, 63356, Pitch_bend_c, 8, 4352
8, 63358, Pitch_bend_c, 8, 4224
8, 63360, Pitch_bend_c, 8, 8192
8, 63362, Note_on_c, 8, 69, 101
8, 63367, Control_c, 8, 11, 19
8, 63398, Control_c, 8, 11, 18
8, 63429, Control_c, 8, 11, 17
8, 63461, Control_c, 8, 11, 16
8, 63492, Control_c, 8, 11, 15
8, 63520, Pitch_bend_c, 8, 8192
8, 63522, Pitch_bend_c, 8, 7552
8, 63523, Control_c, 8, 11, 14
8, 63523, Pitch_bend_c, 8, 7040
8, 63524, Pitch_bend_c, 8, 6400
8, 63525, Pitch_bend_c, 8, 5888
8, 63526, Pitch_bend_c, 8, 5248
8, 63528, Pitch_bend_c, 8, 4736
8, 63529, Pitch_bend_c, 8, 4096
8, 63530, Pitch_bend_c, 8, 3584
8, 63531, Pitch_bend_c, 8, 3072
8, 63532, Pitch_bend_c, 8, 2432
8, 63534, Pitch_bend_c, 8, 1920
8, 63535, Pitch_bend_c, 8, 1280
8, 63536, Pitch_bend_c, 8, 768
8, 63537, Pitch_bend_c, 8, 128
8, 63538, Pitch_bend_c, 8, 0
8, 63540, Pitch_bend_c, 8, 0
8, 63554, Control_c, 8, 11, 13
8, 63585, Control_c, 8, 11, 12
8, 63617, Control_c, 8, 11, 11
8, 63648, Control_c, 8, 11, 10
8, 63679, Control_c, 8, 11, 9
8, 63710, Control_c, 8, 11, 8
8, 63741, Control_c, 8, 11, 7
8, 63772, Control_c, 8, 11, 6
8, 63804, Control_c, 8, 11, 5
8, 63835, Control_c, 8, 11, 4
8, 63836, Note_on_c, 8, 69, 0
8, 63866, Control_c, 8, 11, 3
8, 63897, Control_c, 8, 11, 2
8, 63928, Control_c, 8, 11, 1
8, 63960, Control_c, 8, 11, 0
8, 64101, Control_c, 8, 11, 127
8, 64101, End_track
9, 0, Start_track
9, 0, MIDI_port, 0
9, 0, Program_c, 5, 30
9, 0, Control_c, 5, 7, 123
9, 0, Control_c, 5, 10, 64
9, 0, Control_c, 5, 91, 61
9, 0, Control_c, 5, 93, 26
9, 1406, Control_c, 5, 11, 0
9, 1413, Control_c, 5, 11, 1
9, 1414, Control_c, 5, 11, 2
9, 1417, Control_c, 5, 11, 3
9, 1418, Control_c, 5, 11, 4
9, 1419, Control_c, 5, 11, 5
9, 1420, Control_c, 5, 11, 6
9, 1422, Control_c, 5, 11, 7
9, 1423, Control_c, 5, 11, 8
9, 1424, Control_c, 5, 11, 9
9, 1426, Control_c, 5, 11, 10
9, 1428, Control_c, 5, 11, 11
9, 1429, Control_c, 5, 11, 12
9, 1430, Control_c, 5, 11, 13
9, 1431, Control_c, 5, 11, 14
9, 1432, Control_c, 5, 11, 15
9, 1434, Control_c, 5, 11, 16
9, 1436, Control_c, 5, 11, 17
9, 1437, Control_c, 5, 11, 18
9, 1438, Control_c, 5, 11, 19
9, 1440, Control_c, 5, 11, 20
9, 1920, Note_on_c, 5, 50, 100
9, 1921, Control_c, 5, 11, 21
9, 1922, Control_c, 5, 11, 22
9, 1924, Control_c, 5, 11, 23
9, 1926, Control_c, 5, 11, 24
9, 1927, Control_c, 5, 11, 25
9, 1928, Control_c, 5, 11, 26
9, 1929, Control_c, 5, 11, 27
9, 1930, Control_c, 5, 11, 28
9, 1932, Control_c, 5, 11, 29
9, 1934, Control_c, 5, 11, 30
9, 1935, Control_c, 5, 11, 31
9, 1936, Control_c, 5, 11, 32
9, 1938, Control_c, 5, 11, 33
9, 1939, Control_c, 5, 11, 34
9, 1940, Control_c, 5, 11, 35
9, 1941, Control_c, 5, 11, 36
9, 1944, Control_c, 5, 11, 37
9, 1945, Control_c, 5, 11, 38
9, 1946, Control_c, 5, 11, 39
9, 1947, Control_c, 5, 11, 40
9, 1948, Control_c, 5, 11, 41
9, 1950, Control_c, 5, 11, 42
9, 1952, Control_c, 5, 11, 43
9, 1953, Control_c, 5, 11, 44
9, 1954, Control_c, 5, 11, 45
9, 1956, Control_c, 5, 11, 46
9, 1957, Control_c, 5, 11, 47
9, 1958, Control_c, 5, 11, 48
9, 1959, Control_c, 5, 11, 49
9, 1962, Control_c, 5, 11, 50
9, 1963, Control_c, 5, 11, 51
9, 1964, Control_c, 5, 11, 52
9, 1965, Control_c, 5, 11, 53
9, 1966, Control_c, 5, 11, 54
9, 1968, Control_c, 5, 11, 55
9, 1969, Control_c, 5, 11, 56
9, 1971, Control_c, 5, 11, 57
9, 1972, Control_c, 5, 11, 58
9, 1974, Control_c, 5, 11, 59
9, 1975, Control_c, 5, 11, 60
9, 1976, Control_c, 5, 11, 61
9, 1977, Control_c, 5, 11, 62
9, 1978, Control_c, 5, 11, 63
9, 1981, Control_c, 5, 11, 64
9, 1982, Control_c, 5, 11, 65
9, 1983, Control_c, 5, 11, 66
9, 1984, Control_c, 5, 11, 67
9, 1986, Control_c, 5, 11, 68
9, 1987, Control_c, 5, 11, 69
9, 1989, Control_c, 5, 11, 70
9, 1990, Control_c, 5, 11, 71
9, 1992, Control_c, 5, 11, 72
9, 1993, Control_c, 5, 11, 73
9, 1994, Control_c, 5, 11, 74
9, 1995, Control_c, 5, 11, 75
9, 1996, Control_c, 5, 11, 76
9, 1999, Control_c, 5, 11, 77
9, 2000, Control_c, 5, 11, 78
9, 2001, Control_c, 5, 11, 79
9, 2002, Control_c, 5, 11, 80
9, 2004, Control_c, 5, 11, 81
9, 2005, Control_c, 5, 11, 82
9, 2006, Control_c, 5, 11, 83
9, 2008, Control_c, 5, 11, 84
9, 2010, Control_c, 5, 11, 85
9, 2011, Control_c, 5, 11, 86
9, 2012, Control_c, 5, 11, 87
9, 2013, Control_c, 5, 11, 88
9, 2014, Control_c, 5, 11, 89
9, 2017, Control_c, 5, 11, 90
9, 2018, Control_c, 5, 11, 91
9, 2019, Control_c, 5, 11, 92
9, 2020, Control_c, 5, 11, 93
9, 2022, Control_c, 5, 11, 94
9, 2023, Control_c, 5, 11, 95
9, 2024, Control_c, 5, 11, 96
9, 2026, Control_c, 5, 11, 97
9, 2028, Control_c, 5, 11, 98
9, 2029, Control_c, 5, 11, 99
9, 2030, Control_c, 5, 11, 100
9, 2031, Control_c, 5, 11, 101
9, 2032, Control_c, 5, 11, 102
9, 2034, Control_c, 5, 11, 103
9, 2036, Control_c, 5, 11, 104
9, 2037, Control_c, 5, 11, 105
9, 2038, Control_c, 5, 11, 106
9, 2040, Control_c, 5, 11, 107
9, 2041, Control_c, 5, 11, 108
9, 2042, Control_c, 5, 11, 109
9, 2043, Control_c, 5, 11, 110
9, 2879, Note_on_c, 5, 50, 0
9, 36227, Control_c, 5, 11, 127
9, 36228, Control_c, 5, 101, 0
9, 36228, Control_c, 5, 100, 0
9, 36228, Control_c, 5, 6, 5
9, 36228, Control_c, 5, 38, 0
9, 36240, Note_on_c, 5, 43, 120
9, 36243, Pitch_bend_c, 5, 8320
9, 36414, Pitch_bend_c, 5, 8704
9, 36432, Pitch_bend_c, 5, 8832
9, 36460, Pitch_bend_c, 5, 9088
9, 36462, Pitch_bend_c, 5, 9216
9, 36481, Pitch_bend_c, 5, 9344
9, 36495, Pitch_bend_c, 5, 9600
9, 36505, Pitch_bend_c, 5, 9728
9, 36508, Pitch_bend_c, 5, 9856
9, 36510, Pitch_bend_c, 5, 9984
9, 36512, Pitch_bend_c, 5, 10112
9, 36514, Pitch_bend_c, 5, 10368
9, 36517, Pitch_bend_c, 5, 10496
9, 36519, Pitch_bend_c, 5, 10624
9, 36522, Pitch_bend_c, 5, 10752
9, 36523, Pitch_bend_c, 5, 10880
9, 36526, Pitch_bend_c, 5, 11008
9, 36528, Pitch_bend_c, 5, 11136
9, 36530, Pitch_bend_c, 5, 11264
9, 36532, Pitch_bend_c, 5, 11392
9, 36534, Pitch_bend_c, 5, 11520
9, 36535, Pitch_bend_c, 5, 11648
9, 36544, Pitch_bend_c, 5, 11904
9, 36554, Pitch_bend_c, 5, 12032
9, 36556, Pitch_bend_c, 5, 12160
9, 36559, Pitch_bend_c, 5, 12416
9, 36579, Pitch_bend_c, 5, 13056
9, 36583, Pitch_bend_c, 5, 13184
9, 36585, Pitch_bend_c, 5, 13312
9, 36588, Pitch_bend_c, 5, 13440
9, 36591, Pitch_bend_c, 5, 13568
9, 36592, Pitch_bend_c, 5, 13696
9, 36595, Pitch_bend_c, 5, 13824
9, 36596, Pitch_bend_c, 5, 13952
9, 36600, Pitch_bend_c, 5, 14208
9, 36607, Pitch_bend_c, 5, 14336
9, 36608, Pitch_bend_c, 5, 14592
9, 36610, Pitch_bend_c, 5, 14720
9, 36613, Pitch_bend_c, 5, 14848
9, 36615, Pitch_bend_c, 5, 14976
9, 36619, Pitch_bend_c, 5, 15104
9, 36620, Pitch_bend_c, 5, 15232
9, 36621, Pitch_bend_c, 5, 15360
9, 36625, Pitch_bend_c, 5, 15488
9, 36626, Pitch_bend_c, 5, 15616
9, 36627, Pitch_bend_c, 5, 15744
9, 36630, Pitch_bend_c, 5, 15872
9, 36632, Pitch_bend_c, 5, 16000
9, 36636, Pitch_bend_c, 5, 16128
9, 36637, Pitch_bend_c, 5, 16256
9, 36638, Pitch_bend_c, 5, 16383
9, 36658, Note_on_c, 5, 43, 0
9, 36659, Pitch_bend_c, 5, 8192
9, 36659, Control_c, 5, 101, 0
9, 36659, Control_c, 5, 100, 0
9, 36659, Control_c, 5, 6, 2
9, 36659, Control_c, 5, 38, 0
9, 36660, Note_on_c, 5, 57, 120
9, 36778, Note_on_c, 5, 57, 0
9, 36780, Note_on_c, 5, 64, 120
9, 36899, Note_on_c, 5, 64, 0
9, 36900, Note_on_c, 5, 62, 120
9, 36958, Note_on_c, 5, 62, 0
9, 36960, Pitch_bend_c, 5, 8192
9, 36960, Note_on_c, 5, 54, 120
9, 36961, Pitch_bend_c, 5, 7168
9, 36962, Pitch_bend_c, 5, 6144
9, 36963, Pitch_bend_c, 5, 4992
9, 36964, Pitch_bend_c, 5, 3968
9, 36966, Pitch_bend_c, 5, 2816
9, 36967, Pitch_bend_c, 5, 2944
9, 36968, Pitch_bend_c, 5, 3072
9, 36969, Pitch_bend_c, 5, 3200
9, 36970, Pitch_bend_c, 5, 3328
9, 36972, Pitch_bend_c, 5, 3584
9, 36973, Pitch_bend_c, 5, 3712
9, 36974, Pitch_bend_c, 5, 3840
9, 36975, Pitch_bend_c, 5, 3968
9, 36976, Pitch_bend_c, 5, 4096
9, 36978, Pitch_bend_c, 5, 4352
9, 36979, Pitch_bend_c, 5, 4480
9, 36980, Pitch_bend_c, 5, 4608
9, 36981, Pitch_bend_c, 5, 4736
9, 36982, Pitch_bend_c, 5, 4864
9, 36984, Pitch_bend_c, 5, 5120
9, 36985, Pitch_bend_c, 5, 5248
9, 36986, Pitch_bend_c, 5, 5376
9, 36987, Pitch_bend_c, 5, 5504
9, 36988, Pitch_bend_c, 5, 5632
9, 36990, Pitch_bend_c, 5, 5888
9, 36991, Pitch_bend_c, 5, 6016
9, 36992, Pitch_bend_c, 5, 6144
9, 36993, Pitch_bend_c, 5, 6272
9, 36994, Pitch_bend_c, 5, 6400
9, 36996, Pitch_bend_c, 5, 6656
9, 36997, Pitch_bend_c, 5, 6784
9, 36998, Pitch_bend_c, 5, 6912
9, 36999, Pitch_bend_c, 5, 7040
9, 37000, Pitch_bend_c, 5, 7168
9, 37002, Pitch_bend_c, 5, 7424
9, 37003, Pitch_bend_c, 5, 7552
9, 37004, Pitch_bend_c, 5, 7680
9, 37005, Pitch_bend_c, 5, 7808
9, 37006, Pitch_bend_c, 5, 7936
9, 37008, Pitch_bend_c, 5, 8192
9, 37079, Note_on_c, 5, 54, 0
9, 37080, Note_on_c, 5, 55, 120
9, 37139, Note_on_c, 5, 55, 0
9, 37140, Note_on_c, 5, 60, 120
9, 37259, Note_on_c, 5, 60, 0
9, 37260, Note_on_c, 5, 52, 120
9, 37266, Pitch_bend_c, 5, 8192
9, 37267, Pitch_bend_c, 5, 7808
9, 37268, Pitch_bend_c, 5, 7424
9, 37269, Pitch_bend_c, 5, 7040
9, 37270, Pitch_bend_c, 5, 6656
9, 37272, Pitch_bend_c, 5, 6272
9, 37273, Pitch_bend_c, 5, 5760
9, 37274, Pitch_bend_c, 5, 5376
9, 37275, Pitch_bend_c, 5, 4992
9, 37276, Pitch_bend_c, 5, 4608
9, 37278, Pitch_bend_c, 5, 4224
9, 37279, Pitch_bend_c, 5, 3840
9, 37280, Pitch_bend_c, 5, 3328
9, 37282, Pitch_bend_c, 5, 3456
9, 37284, Pitch_bend_c, 5, 3584
9, 37285, Pitch_bend_c, 5, 3712
9, 37287, Pitch_bend_c, 5, 3840
9, 37288, Pitch_bend_c, 5, 3968
9, 37290, Pitch_bend_c, 5, 4096
9, 37292, Pitch_bend_c, 5, 4224
9, 37293, Pitch_bend_c, 5, 4352
9, 37294, Pitch_bend_c, 5, 4480
9, 37296, Pitch_bend_c, 5, 4608
9, 37298, Pitch_bend_c, 5, 4736
9, 37299, Pitch_bend_c, 5, 4864
9, 37300, Pitch_bend_c, 5, 4992
9, 37303, Pitch_bend_c, 5, 5120
9, 37304, Pitch_bend_c, 5, 5248
9, 37305, Pitch_bend_c, 5, 5376
9, 37306, Pitch_bend_c, 5, 5504
9, 37309, Pitch_bend_c, 5, 5632
9, 37310, Pitch_bend_c, 5, 5760
9, 37311, Pitch_bend_c, 5, 5888
9, 37314, Pitch_bend_c, 5, 6016
9, 37315, Pitch_bend_c, 5, 6144
9, 37316, Pitch_bend_c, 5, 6272
9, 37317, Pitch_bend_c, 5, 6400
9, 37320, Pitch_bend_c, 5, 6528
9, 37321, Pitch_bend_c, 5, 6656
9, 37322, Pitch_bend_c, 5, 6784
9, 37324, Pitch_bend_c, 5, 6912
9, 37326, Pitch_bend_c, 5, 7040
9, 37327, Pitch_bend_c, 5, 7168
9, 37328, Pitch_bend_c, 5, 7296
9, 37330, Pitch_bend_c, 5, 7424
9, 37332, Pitch_bend_c, 5, 7552
9, 37333, Pitch_bend_c, 5, 7680
9, 37335, Pitch_bend_c, 5, 7808
9, 37336, Pitch_bend_c, 5, 7936
9, 37338, Pitch_bend_c, 5, 8064
9, 37339, Pitch_bend_c, 5, 8192
9, 37439, Note_on_c, 5, 52, 0
9, 37440, Note_on_c, 5, 50, 120
9, 37441, Pitch_bend_c, 5, 8192
9, 37442, Pitch_bend_c, 5, 7424
9, 37443, Pitch_bend_c, 5, 6656
9, 37444, Pitch_bend_c, 5, 5888
9, 37446, Pitch_bend_c, 5, 5120
9, 37447, Pitch_bend_c, 5, 4352
9, 37448, Pitch_bend_c, 5, 3456
9, 37449, Pitch_bend_c, 5, 3456
9, 37450, Pitch_bend_c, 5, 3584
9, 37452, Pitch_bend_c, 5, 3712
9, 37453, Pitch_bend_c, 5, 3840
9, 37454, Pitch_bend_c, 5, 4096
9, 37455, Pitch_bend_c, 5, 4224
9, 37456, Pitch_bend_c, 5, 4352
9, 37458, Pitch_bend_c, 5, 4480
9, 37459, Pitch_bend_c, 5, 4736
9, 37460, Pitch_bend_c, 5, 4864
9, 37461, Pitch_bend_c, 5, 4992
9, 37462, Pitch_bend_c, 5, 5248
9, 37464, Pitch_bend_c, 5, 5376
9, 37465, Pitch_bend_c, 5, 5504
9, 37466, Pitch_bend_c, 5, 5632
9, 37467, Pitch_bend_c, 5, 5888
9, 37468, Pitch_bend_c, 5, 6016
9, 37470, Pitch_bend_c, 5, 6144
9, 37471, Pitch_bend_c, 5, 6272
9, 37472, Pitch_bend_c, 5, 6528
9, 37473, Pitch_bend_c, 5, 6656
9, 37474, Pitch_bend_c, 5, 6784
9, 37476, Pitch_bend_c, 5, 7040
9, 37477, Pitch_bend_c, 5, 7168
9, 37478, Pitch_bend_c, 5, 7296
9, 37479, Pitch_bend_c, 5, 7424
9, 37480, Pitch_bend_c, 5, 7680
9, 37482, Pitch_bend_c, 5, 7808
9, 37483, Pitch_bend_c, 5, 7936
9, 37484, Pitch_bend_c, 5, 8192
9, 37662, Pitch_bend_c, 5, 8320
9, 37663, Pitch_bend_c, 5, 8192
9, 37664, Pitch_bend_c, 5, 7936
9, 37665, Pitch_bend_c, 5, 7808
9, 37666, Pitch_bend_c, 5, 7552
9, 37668, Pitch_bend_c, 5, 7424
9, 37669, Pitch_bend_c, 5, 7168
9, 37670, Pitch_bend_c, 5, 7040
9, 37671, Pitch_bend_c, 5, 6784
9, 37672, Pitch_bend_c, 5, 6656
9, 37674, Pitch_bend_c, 5, 6400
9, 37675, Pitch_bend_c, 5, 6272
9, 37676, Pitch_bend_c, 5, 6016
9, 37677, Pitch_bend_c, 5, 5888
9, 37678, Pitch_bend_c, 5, 5632
9, 37680, Pitch_bend_c, 5, 5504
9, 37681, Pitch_bend_c, 5, 5248
9, 37682, Pitch_bend_c, 5, 5120
9, 37683, Pitch_bend_c, 5, 4864
9, 37684, Pitch_bend_c, 5, 4736
9, 37686, Pitch_bend_c, 5, 4480
9, 37687, Pitch_bend_c, 5, 4352
9, 37688, Pitch_bend_c, 5, 4096
9, 37689, Pitch_bend_c, 5, 3968
9, 37690, Pitch_bend_c, 5, 3712
9, 37692, Pitch_bend_c, 5, 3584
9, 37693, Pitch_bend_c, 5, 3328
9, 37694, Pitch_bend_c, 5, 3200
9, 37695, Pitch_bend_c, 5, 2944
9, 37696, Pitch_bend_c, 5, 2816
9, 37698, Pitch_bend_c, 5, 2560
9, 37700, Pitch_bend_c, 5, 2688
9, 37702, Pitch_bend_c, 5, 2816
9, 37704, Pitch_bend_c, 5, 2944
9, 37706, Pitch_bend_c, 5, 3072
9, 37707, Pitch_bend_c, 5, 3200
9, 37710, Pitch_bend_c, 5, 3328
9, 37712, Pitch_bend_c, 5, 3456
9, 37713, Pitch_bend_c, 5, 3584
9, 37716, Pitch_bend_c, 5, 3712
9, 37717, Pitch_bend_c, 5, 3840
9, 37719, Pitch_bend_c, 5, 3968
9, 37722, Pitch_bend_c, 5, 4096
9, 37723, Pitch_bend_c, 5, 4224
9, 37725, Pitch_bend_c, 5, 4352
9, 37726, Pitch_bend_c, 5, 4480
9, 37729, Pitch_bend_c, 5, 4608
9, 37731, Pitch_bend_c, 5, 4736
9, 37732, Pitch_bend_c, 5, 4864
9, 37735, Pitch_bend_c, 5, 4992
9, 37736, Pitch_bend_c, 5, 5120
9, 37738, Pitch_bend_c, 5, 5248
9, 37740, Pitch_bend_c, 5, 5376
9, 37742, Pitch_bend_c, 5, 5504
9, 37744, Pitch_bend_c, 5, 5632
9, 37746, Pitch_bend_c, 5, 5760
9, 37748, Pitch_bend_c, 5, 5888
9, 37749, Pitch_bend_c, 5, 6016
9, 37752, Pitch_bend_c, 5, 6144
9, 37754, Pitch_bend_c, 5, 6272
9, 37755, Pitch_bend_c, 5, 6400
9, 37758, Pitch_bend_c, 5, 6528
9, 37759, Pitch_bend_c, 5, 6656
9, 37761, Pitch_bend_c, 5, 6784
9, 37764, Pitch_bend_c, 5, 6912
9, 37765, Pitch_bend_c, 5, 7040
9, 37767, Pitch_bend_c, 5, 7168
9, 37768, Pitch_bend_c, 5, 7296
9, 37771, Pitch_bend_c, 5, 7424
9, 37773, Pitch_bend_c, 5, 7552
9, 37774, Pitch_bend_c, 5, 7680
9, 37777, Pitch_bend_c, 5, 7808
9, 37778, Pitch_bend_c, 5, 7936
9, 37780, Pitch_bend_c, 5, 8064
9, 37782, Pitch_bend_c, 5, 8192
9, 37798, Note_on_c, 5, 50, 0
9, 37800, Note_on_c, 5, 72, 120
9, 37804, Pitch_bend_c, 5, 8192
9, 37809, Pitch_bend_c, 5, 8320
9, 37812, Pitch_bend_c, 5, 8448
9, 37814, Pitch_bend_c, 5, 8576
9, 37816, Pitch_bend_c, 5, 8832
9, 37819, Pitch_bend_c, 5, 8960
9, 37820, Pitch_bend_c, 5, 9088
9, 37822, Pitch_bend_c, 5, 9216
9, 37824, Pitch_bend_c, 5, 9472
9, 37825, Pitch_bend_c, 5, 9600
9, 37826, Pitch_bend_c, 5, 9984
9, 37827, Pitch_bend_c, 5, 10112
9, 37831, Pitch_bend_c, 5, 10752
9, 37832, Pitch_bend_c, 5, 10880
9, 37833, Pitch_bend_c, 5, 11136
9, 37834, Pitch_bend_c, 5, 11392
9, 37836, Pitch_bend_c, 5, 11648
9, 37837, Pitch_bend_c, 5, 11904
9, 37838, Pitch_bend_c, 5, 12032
9, 37839, Pitch_bend_c, 5, 12416
9, 37840, Pitch_bend_c, 5, 12544
9, 37842, Pitch_bend_c, 5, 12928
9, 37843, Pitch_bend_c, 5, 13312
9, 37844, Pitch_bend_c, 5, 13696
9, 37845, Pitch_bend_c, 5, 14208
9, 37846, Pitch_bend_c, 5, 14592
9, 37849, Pitch_bend_c, 5, 15616
9, 37850, Pitch_bend_c, 5, 16383
9, 38098, Note_on_c, 5, 72, 0
9, 38100, Pitch_bend_c, 5, 8192
9, 38100, Note_on_c, 5, 74, 120
9, 38129, Note_on_c, 5, 74, 0
9, 38130, Note_on_c, 5, 72, 120
9, 38159, Note_on_c, 5, 72, 0
9, 38160, Note_on_c, 5, 69, 120
9, 38189, Note_on_c, 5, 69, 0
9, 38190, Note_on_c, 5, 67, 120
9, 38219, Note_on_c, 5, 67, 0
9, 38220, Note_on_c, 5, 69, 120
9, 38249, Note_on_c, 5, 69, 0
9, 38250, Note_on_c, 5, 66, 120
9, 38253, Pitch_bend_c, 5, 8320
9, 38254, Pitch_bend_c, 5, 8448
9, 38256, Pitch_bend_c, 5, 8704
9, 38258, Pitch_bend_c, 5, 8832
9, 38259, Pitch_bend_c, 5, 9216
9, 38260, Pitch_bend_c, 5, 9856
9, 38261, Pitch_bend_c, 5, 10624
9, 38262, Pitch_bend_c, 5, 11264
9, 38264, Pitch_bend_c, 5, 12032
9, 38265, Pitch_bend_c, 5, 12160
9, 38266, Pitch_bend_c, 5, 12288
9, 38302, Pitch_bend_c, 5, 12288
9, 38303, Pitch_bend_c, 5, 11648
9, 38304, Pitch_bend_c, 5, 10368
9, 38306, Pitch_bend_c, 5, 10112
9, 38307, Pitch_bend_c, 5, 9728
9, 38308, Pitch_bend_c, 5, 9472
9, 38309, Pitch_bend_c, 5, 9088
9, 38310, Pitch_bend_c, 5, 8960
9, 38312, Pitch_bend_c, 5, 8832
9, 38313, Pitch_bend_c, 5, 8576
9, 38314, Pitch_bend_c, 5, 8448
9, 38315, Pitch_bend_c, 5, 8320
9, 38316, Pitch_bend_c, 5, 8192
9, 38318, Note_on_c, 5, 66, 0
9, 38320, Note_on_c, 5, 62, 120
9, 38358, Note_on_c, 5, 62, 0
9, 38360, Note_on_c, 5, 60, 120
9, 38778, Note_on_c, 5, 60, 0
9, 38820, Note_on_c, 5, 72, 120
9, 38850, Pitch_bend_c, 5, 16383
9, 38878, Note_on_c, 5, 72, 0
9, 38880, Pitch_bend_c, 5, 8192
9, 38880, Note_on_c, 5, 76, 120
9, 38909, Note_on_c, 5, 76, 0
9, 38910, Note_on_c, 5, 77, 120
9, 38939, Note_on_c, 5, 77, 0
9, 38940, Note_on_c, 5, 74, 120
9, 38969, Note_on_c, 5, 74, 0
9, 38970, Note_on_c, 5, 76, 120
9, 38999, Note_on_c, 5, 76, 0
9, 39000, Note_on_c, 5, 77, 120
9, 39029, Note_on_c, 5, 77, 0
9, 39030, Note_on_c, 5, 79, 120
9, 39059, Note_on_c, 5, 79, 0
9, 39060, Note_on_c, 5, 74, 120
9, 39089, Note_on_c, 5, 74, 0
9, 39090, Note_on_c, 5, 77, 120
9, 39119, Note_on_c, 5, 77, 0
9, 39120, Note_on_c, 5, 79, 120
9, 39149, Note_on_c, 5, 79, 0
9, 39150, Note_on_c, 5, 81, 120
9, 39179, Note_on_c, 5, 81, 0
9, 39180, Note_on_c, 5, 79, 120
9, 39209, Note_on_c, 5, 79, 0
9, 39210, Note_on_c, 5, 81, 120
9, 39239, Note_on_c, 5, 81, 0
9, 39240, Note_on_c, 5, 84, 120
9, 39269, Note_on_c, 5, 84, 0
9, 39270, Note_on_c, 5, 84, 120
9, 39299, Note_on_c, 5, 84, 0
9, 39300, Note_on_c, 5, 84, 120
9, 39303, Pitch_bend_c, 5, 8192
9, 39304, Pitch_bend_c, 5, 8320
9, 39307, Pitch_bend_c, 5, 8448
9, 39308, Pitch_bend_c, 5, 8704
9, 39309, Pitch_bend_c, 5, 8960
9, 39312, Pitch_bend_c, 5, 9088
9, 39316, Pitch_bend_c, 5, 10240
9, 39318, Pitch_bend_c, 5, 10496
9, 39319, Pitch_bend_c, 5, 10624
9, 39320, Pitch_bend_c, 5, 11392
9, 39321, Pitch_bend_c, 5, 11648
9, 39324, Pitch_bend_c, 5, 13184
9, 39326, Pitch_bend_c, 5, 14208
9, 39327, Pitch_bend_c, 5, 14464
9, 39328, Pitch_bend_c, 5, 15488
9, 39330, Pitch_bend_c, 5, 15744
9, 39331, Pitch_bend_c, 5, 16383
9, 39416, Pitch_bend_c, 5, 16383
9, 39417, Pitch_bend_c, 5, 14464
9, 39418, Pitch_bend_c, 5, 14080
9, 39420, Pitch_bend_c, 5, 13824
9, 39421, Pitch_bend_c, 5, 13440
9, 39422, Pitch_bend_c, 5, 13184
9, 39424, Pitch_bend_c, 5, 12928
9, 39426, Pitch_bend_c, 5, 12672
9, 39427, Pitch_bend_c, 5, 12544
9, 39428, Pitch_bend_c, 5, 12288
9, 39448, Pitch_bend_c, 5, 12416
9, 39451, Pitch_bend_c, 5, 12672
9, 39453, Pitch_bend_c, 5, 12928
9, 39457, Pitch_bend_c, 5, 13440
9, 39459, Pitch_bend_c, 5, 13696
9, 39462, Pitch_bend_c, 5, 13952
9, 39464, Pitch_bend_c, 5, 14720
9, 39465, Pitch_bend_c, 5, 14976
9, 39466, Pitch_bend_c, 5, 15232
9, 39469, Pitch_bend_c, 5, 15360
9, 39470, Pitch_bend_c, 5, 15616
9, 39471, Pitch_bend_c, 5, 16383
9, 39659, Note_on_c, 5, 84, 0
9, 39800, Pitch_bend_c, 5, 8192
9, 48000, Note_on_c, 5, 70, 100
9, 48059, Note_on_c, 5, 70, 0
9, 48060, Note_on_c, 5, 69, 100
9, 48119, Note_on_c, 5, 69, 0
9, 48120, Note_on_c, 5, 65, 100
9, 48179, Note_on_c, 5, 65, 0
9, 48180, Note_on_c, 5, 67, 100
9, 48216, Control_c, 5, 1, 0
9, 48229, Control_c, 5, 1, 5
9, 48241, Control_c, 5, 1, 11
9, 48255, Control_c, 5, 1, 13
9, 48262, Control_c, 5, 1, 15
9, 48264, Control_c, 5, 1, 16
9, 48266, Control_c, 5, 1, 18
9, 48267, Control_c, 5, 1, 20
9, 48270, Control_c, 5, 1, 22
9, 48271, Control_c, 5, 1, 24
9, 48273, Control_c, 5, 1, 26
9, 48274, Control_c, 5, 1, 28
9, 48276, Control_c, 5, 1, 30
9, 48277, Control_c, 5, 1, 32
9, 48278, Control_c, 5, 1, 38
9, 48279, Control_c, 5, 1, 40
9, 48280, Control_c, 5, 1, 42
9, 48283, Control_c, 5, 1, 44
9, 48285, Control_c, 5, 1, 46
9, 48288, Control_c, 5, 1, 48
9, 48289, Control_c, 5, 1, 49
9, 48290, Control_c, 5, 1, 50
9, 48291, Control_c, 5, 1, 52
9, 48294, Control_c, 5, 1, 54
9, 48296, Control_c, 5, 1, 55
9, 48298, Control_c, 5, 1, 56
9, 48300, Control_c, 5, 1, 59
9, 48301, Control_c, 5, 1, 60
9, 48302, Control_c, 5, 1, 62
9, 48304, Control_c, 5, 1, 66
9, 48306, Control_c, 5, 1, 67
9, 48307, Control_c, 5, 1, 71
9, 48430, Control_c, 5, 1, 37
9, 48432, Control_c, 5, 1, 31
9, 48452, Control_c, 5, 1, 3
9, 48462, Control_c, 5, 1, 0
9, 48478, Note_on_c, 5, 67, 0
9, 50160, Pitch_bend_c, 5, 8192
9, 50160, Note_on_c, 5, 76, 90
9, 50216, Pitch_bend_c, 5, 8320
9, 50252, Pitch_bend_c, 5, 8448
9, 50278, Pitch_bend_c, 5, 8576
9, 50290, Pitch_bend_c, 5, 8704
9, 50305, Pitch_bend_c, 5, 8832
9, 50312, Pitch_bend_c, 5, 8960
9, 50313, Pitch_bend_c, 5, 9088
9, 50323, Pitch_bend_c, 5, 9216
9, 50332, Pitch_bend_c, 5, 9344
9, 50344, Pitch_bend_c, 5, 9472
9, 50347, Pitch_bend_c, 5, 9600
9, 50350, Pitch_bend_c, 5, 9728
9, 50358, Pitch_bend_c, 5, 9984
9, 50365, Pitch_bend_c, 5, 10112
9, 50367, Pitch_bend_c, 5, 10240
9, 50373, Pitch_bend_c, 5, 10624
9, 50374, Pitch_bend_c, 5, 10752
9, 50378, Pitch_bend_c, 5, 10880
9, 50379, Pitch_bend_c, 5, 11008
9, 50383, Pitch_bend_c, 5, 11264
9, 50388, Pitch_bend_c, 5, 11392
9, 50390, Pitch_bend_c, 5, 11520
9, 50391, Pitch_bend_c, 5, 11648
9, 50392, Pitch_bend_c, 5, 11776
9, 50394, Pitch_bend_c, 5, 11904
9, 50397, Pitch_bend_c, 5, 12288
9, 50398, Note_on_c, 5, 76, 0
9, 50400, Note_on_c, 5, 76, 90
9, 50746, Pitch_bend_c, 5, 12288
9, 50751, Pitch_bend_c, 5, 8832
9, 50752, Pitch_bend_c, 5, 8320
9, 50754, Pitch_bend_c, 5, 4480
9, 50755, Pitch_bend_c, 5, 256
9, 50758, Note_on_c, 5, 76, 0
9, 50758, Pitch_bend_c, 5, 128
9, 50763, Pitch_bend_c, 5, 8192
9, 51120, Note_on_c, 5, 76, 100
9, 51153, Pitch_bend_c, 5, 8192
9, 51156, Pitch_bend_c, 5, 8576
9, 51159, Pitch_bend_c, 5, 8704
9, 51160, Pitch_bend_c, 5, 8832
9, 51163, Pitch_bend_c, 5, 9088
9, 51166, Pitch_bend_c, 5, 9216
9, 51168, Pitch_bend_c, 5, 9600
9, 51169, Pitch_bend_c, 5, 9728
9, 51170, Pitch_bend_c, 5, 9984
9, 51174, Pitch_bend_c, 5, 10624
9, 51175, Pitch_bend_c, 5, 10752
9, 51176, Pitch_bend_c, 5, 11008
9, 51177, Pitch_bend_c, 5, 11392
9, 51178, Pitch_bend_c, 5, 11520
9, 51180, Pitch_bend_c, 5, 12288
9, 51218, Pitch_bend_c, 5, 12288
9, 51219, Pitch_bend_c, 5, 11264
9, 51220, Pitch_bend_c, 5, 11136
9, 51222, Pitch_bend_c, 5, 10880
9, 51223, Pitch_bend_c, 5, 10752
9, 51224, Pitch_bend_c, 5, 10496
9, 51225, Pitch_bend_c, 5, 10240
9, 51228, Pitch_bend_c, 5, 10112
9, 51229, Pitch_bend_c, 5, 9856
9, 51230, Pitch_bend_c, 5, 9728
9, 51231, Pitch_bend_c, 5, 9344
9, 51232, Pitch_bend_c, 5, 9088
9, 51234, Pitch_bend_c, 5, 8576
9, 51235, Pitch_bend_c, 5, 8448
9, 51237, Pitch_bend_c, 5, 8192
9, 51273, Pitch_bend_c, 5, 8192
9, 51276, Pitch_bend_c, 5, 8576
9, 51279, Pitch_bend_c, 5, 8704
9, 51280, Pitch_bend_c, 5, 8832
9, 51283, Pitch_bend_c, 5, 9088
9, 51286, Pitch_bend_c, 5, 9216
9, 51288, Pitch_bend_c, 5, 9600
9, 51289, Pitch_bend_c, 5, 9728
9, 51290, Pitch_bend_c, 5, 9984
9, 51294, Pitch_bend_c, 5, 10624
9, 51295, Pitch_bend_c, 5, 10752
9, 51296, Pitch_bend_c, 5, 11008
9, 51297, Pitch_bend_c, 5, 11392
9, 51298, Pitch_bend_c, 5, 11520
9, 51300, Pitch_bend_c, 5, 12288
9, 51338, Pitch_bend_c, 5, 12288
9, 51339, Pitch_bend_c, 5, 11264
9, 51340, Pitch_bend_c, 5, 11136
9, 51342, Pitch_bend_c, 5, 10880
9, 51343, Pitch_bend_c, 5, 10752
9, 51344, Pitch_bend_c, 5, 10496
9, 51345, Pitch_bend_c, 5, 10240
9, 51348, Pitch_bend_c, 5, 10112
9, 51349, Pitch_bend_c, 5, 9856
9, 51350, Pitch_bend_c, 5, 9728
9, 51351, Pitch_bend_c, 5, 9344
9, 51352, Pitch_bend_c, 5, 9088
9, 51354, Pitch_bend_c, 5, 8576
9, 51355, Pitch_bend_c, 5, 8448
9, 51357, Pitch_bend_c, 5, 8192
9, 51393, Pitch_bend_c, 5, 8192
9, 51396, Pitch_bend_c, 5, 8576
9, 51399, Pitch_bend_c, 5, 8704
9, 51400, Pitch_bend_c, 5, 8832
9, 51403, Pitch_bend_c, 5, 9088
9, 51406, Pitch_bend_c, 5, 9216
9, 51408, Pitch_bend_c, 5, 9600
9, 51409, Pitch_bend_c, 5, 9728
9, 51410, Pitch_bend_c, 5, 9984
9, 51414, Pitch_bend_c, 5, 10624
9, 51415, Pitch_bend_c, 5, 10752
9, 51416, Pitch_bend_c, 5, 11008
9, 51417, Pitch_bend_c, 5, 11392
9, 51418, Pitch_bend_c, 5, 11520
9, 51420, Pitch_bend_c, 5, 12288
9, 51458, Pitch_bend_c, 5, 12288
9, 51459, Pitch_bend_c, 5, 11264
9, 51460, Pitch_bend_c, 5, 11136
9, 51462, Pitch_bend_c, 5, 10880
9, 51463, Pitch_bend_c, 5, 10752
9, 51464, Pitch_bend_c, 5, 10496
9, 51465, Pitch_bend_c, 5, 10240
9, 51468, Pitch_bend_c, 5, 10112
9, 51469, Pitch_bend_c, 5, 9856
9, 51470, Pitch_bend_c, 5, 9728
9, 51471, Pitch_bend_c, 5, 9344
9, 51472, Pitch_bend_c, 5, 9088
9, 51474, Pitch_bend_c, 5, 8576
9, 51475, Pitch_bend_c, 5, 8448
9, 51477, Pitch_bend_c, 5, 8192
9, 51513, Pitch_bend_c, 5, 8192
9, 51516, Pitch_bend_c, 5, 8576
9, 51519, Pitch_bend_c, 5, 8704
9, 51520, Pitch_bend_c, 5, 8832
9, 51523, Pitch_bend_c, 5, 9088
9, 51526, Pitch_bend_c, 5, 9216
9, 51528, Pitch_bend_c, 5, 9600
9, 51529, Pitch_bend_c, 5, 9728
9, 51530, Pitch_bend_c, 5, 9984
9, 51534, Pitch_bend_c, 5, 10624
9, 51535, Pitch_bend_c, 5, 10752
9, 51536, Pitch_bend_c, 5, 11008
9, 51537, Pitch_bend_c, 5, 11392
9, 51538, Pitch_bend_c, 5, 11520
9, 51540, Pitch_bend_c, 5, 12288
9, 51578, Pitch_bend_c, 5, 12288
9, 51579, Pitch_bend_c, 5, 11264
9, 51580, Pitch_bend_c, 5, 11136
9, 51582, Pitch_bend_c, 5, 10880
9, 51583, Pitch_bend_c, 5, 10752
9, 51584, Pitch_bend_c, 5, 10496
9, 51585, Pitch_bend_c, 5, 10240
9, 51588, Pitch_bend_c, 5, 10112
9, 51589, Pitch_bend_c, 5, 9856
9, 51590, Pitch_bend_c, 5, 9728
9, 51591, Pitch_bend_c, 5, 9344
9, 51592, Pitch_bend_c, 5, 9088
9, 51594, Pitch_bend_c, 5, 8576
9, 51595, Pitch_bend_c, 5, 8448
9, 51597, Pitch_bend_c, 5, 8192
9, 51598, Note_on_c, 5, 76, 0
9, 51600, Note_on_c, 5, 74, 100
9, 51839, Note_on_c, 5, 74, 0
9, 51840, Note_on_c, 5, 72, 100
9, 52319, Note_on_c, 5, 72, 0
9, 52320, Note_on_c, 5, 79, 100
9, 52410, Pitch_bend_c, 5, 8320
9, 52412, Pitch_bend_c, 5, 8448
9, 52413, Pitch_bend_c, 5, 8576
9, 52418, Pitch_bend_c, 5, 8704
9, 52428, Pitch_bend_c, 5, 8832
9, 52437, Pitch_bend_c, 5, 9088
9, 52440, Pitch_bend_c, 5, 9216
9, 52443, Pitch_bend_c, 5, 9344
9, 52447, Pitch_bend_c, 5, 9472
9, 52450, Pitch_bend_c, 5, 9600
9, 52453, Pitch_bend_c, 5, 9728
9, 52455, Pitch_bend_c, 5, 9856
9, 52458, Pitch_bend_c, 5, 10112
9, 52459, Pitch_bend_c, 5, 10240
9, 52460, Pitch_bend_c, 5, 10368
9, 52462, Pitch_bend_c, 5, 10496
9, 52467, Pitch_bend_c, 5, 10880
9, 52470, Pitch_bend_c, 5, 11008
9, 52471, Pitch_bend_c, 5, 11136
9, 52472, Pitch_bend_c, 5, 11392
9, 52473, Pitch_bend_c, 5, 11520
9, 52474, Pitch_bend_c, 5, 11648
9, 52476, Pitch_bend_c, 5, 11776
9, 52477, Pitch_bend_c, 5, 11904
9, 52478, Pitch_bend_c, 5, 12032
9, 52479, Pitch_bend_c, 5, 12160
9, 52483, Pitch_bend_c, 5, 12544
9, 52484, Pitch_bend_c, 5, 12672
9, 52485, Pitch_bend_c, 5, 12800
9, 52486, Pitch_bend_c, 5, 13056
9, 52488, Pitch_bend_c, 5, 13184
9, 52489, Pitch_bend_c, 5, 13440
9, 52490, Pitch_bend_c, 5, 13568
9, 52491, Pitch_bend_c, 5, 13952
9, 52492, Pitch_bend_c, 5, 14208
9, 52495, Pitch_bend_c, 5, 14336
9, 52496, Pitch_bend_c, 5, 14592
9, 52497, Pitch_bend_c, 5, 14464
9, 52498, Pitch_bend_c, 5, 15616
9, 52500, Pitch_bend_c, 5, 16383
9, 52562, Control_c, 5, 1, 0
9, 52566, Control_c, 5, 1, 3
9, 52568, Control_c, 5, 1, 9
9, 52575, Control_c, 5, 1, 17
9, 52582, Control_c, 5, 1, 25
9, 52590, Control_c, 5, 1, 33
9, 52597, Control_c, 5, 1, 39
9, 52604, Control_c, 5, 1, 47
9, 52614, Control_c, 5, 1, 55
9, 52621, Control_c, 5, 1, 65
9, 52628, Control_c, 5, 1, 73
9, 52630, Control_c, 5, 1, 75
9, 52633, Control_c, 5, 1, 81
9, 52640, Control_c, 5, 1, 83
9, 52642, Control_c, 5, 1, 90
9, 52730, Control_c, 5, 1, 34
9, 52737, Control_c, 5, 1, 26
9, 52798, Pitch_bend_c, 5, 8192
9, 52799, Note_on_c, 5, 79, 0
9, 52800, Control_c, 5, 1, 0
9, 52800, Note_on_c, 5, 79, 100
9, 52819, Pitch_bend_c, 5, 8192
9, 52820, Pitch_bend_c, 5, 8320
9, 52825, Pitch_bend_c, 5, 8448
9, 52830, Pitch_bend_c, 5, 8576
9, 52831, Pitch_bend_c, 5, 8704
9, 52833, Pitch_bend_c, 5, 8832
9, 52834, Pitch_bend_c, 5, 8960
9, 52838, Pitch_bend_c, 5, 9216
9, 52839, Pitch_bend_c, 5, 9472
9, 52840, Pitch_bend_c, 5, 9600
9, 52842, Pitch_bend_c, 5, 9728
9, 52843, Pitch_bend_c, 5, 9856
9, 52844, Pitch_bend_c, 5, 10240
9, 52845, Pitch_bend_c, 5, 10368
9, 52846, Pitch_bend_c, 5, 10752
9, 52848, Pitch_bend_c, 5, 11008
9, 52849, Pitch_bend_c, 5, 11136
9, 52850, Pitch_bend_c, 5, 11904
9, 52851, Pitch_bend_c, 5, 12160
9, 52852, Pitch_bend_c, 5, 12416
9, 52854, Pitch_bend_c, 5, 12800
9, 52855, Pitch_bend_c, 5, 13184
9, 52856, Pitch_bend_c, 5, 13696
9, 52857, Pitch_bend_c, 5, 14336
9, 52858, Pitch_bend_c, 5, 15104
9, 52860, Pitch_bend_c, 5, 15104
9, 52861, Pitch_bend_c, 5, 16383
9, 52920, Note_on_c, 5, 82, 100
9, 52979, Note_on_c, 5, 82, 0
9, 52980, Note_on_c, 5, 79, 100
9, 53039, Note_on_c, 5, 79, 0
9, 53065, Control_c, 5, 1, 0
9, 53067, Control_c, 5, 1, 5
9, 53068, Control_c, 5, 1, 7
9, 53071, Control_c, 5, 1, 13
9, 53073, Control_c, 5, 1, 19
9, 53074, Control_c, 5, 1, 25
9, 53076, Control_c, 5, 1, 33
9, 53077, Control_c, 5, 1, 41
9, 53082, Control_c, 5, 1, 56
9, 53084, Control_c, 5, 1, 62
9, 53086, Control_c, 5, 1, 68
9, 53088, Control_c, 5, 1, 71
9, 53098, Control_c, 5, 1, 73
9, 53106, Control_c, 5, 1, 75
9, 53107, Control_c, 5, 1, 76
9, 53120, Control_c, 5, 1, 75
9, 53134, Control_c, 5, 1, 73
9, 53144, Control_c, 5, 1, 72
9, 53146, Control_c, 5, 1, 71
9, 53154, Control_c, 5, 1, 69
9, 53156, Control_c, 5, 1, 63
9, 53163, Control_c, 5, 1, 57
9, 53192, Control_c, 5, 1, 31
9, 53199, Control_c, 5, 1, 25
9, 53206, Control_c, 5, 1, 19
9, 53214, Control_c, 5, 1, 13
9, 53223, Control_c, 5, 1, 11
9, 53233, Control_c, 5, 1, 5
9, 53235, Control_c, 5, 1, 3
9, 53236, Control_c, 5, 1, 0
9, 53264, Pitch_bend_c, 5, 16383
9, 53265, Pitch_bend_c, 5, 14976
9, 53266, Pitch_bend_c, 5, 14720
9, 53268, Pitch_bend_c, 5, 14336
9, 53269, Pitch_bend_c, 5, 14080
9, 53271, Pitch_bend_c, 5, 13056
9, 53272, Pitch_bend_c, 5, 12288
9, 53274, Pitch_bend_c, 5, 11520
9, 53275, Pitch_bend_c, 5, 11008
9, 53276, Pitch_bend_c, 5, 8576
9, 53277, Pitch_bend_c, 5, 8320
9, 53278, Note_on_c, 5, 79, 0
9, 53280, Note_on_c, 5, 79, 100
9, 53304, Pitch_bend_c, 5, 8192
9, 53307, Pitch_bend_c, 5, 8320
9, 53313, Pitch_bend_c, 5, 8448
9, 53316, Pitch_bend_c, 5, 8576
9, 53317, Pitch_bend_c, 5, 8704
9, 53322, Pitch_bend_c, 5, 8832
9, 53326, Pitch_bend_c, 5, 8960
9, 53332, Pitch_bend_c, 5, 9088
9, 53348, Pitch_bend_c, 5, 9216
9, 53373, Pitch_bend_c, 5, 9344
9, 53383, Pitch_bend_c, 5, 9472
9, 53400, Pitch_bend_c, 5, 9600
9, 53407, Pitch_bend_c, 5, 9728
9, 53421, Pitch_bend_c, 5, 9856
9, 53422, Pitch_bend_c, 5, 9984
9, 53425, Pitch_bend_c, 5, 10112
9, 53427, Pitch_bend_c, 5, 10240
9, 53434, Pitch_bend_c, 5, 10496
9, 53437, Pitch_bend_c, 5, 10624
9, 53439, Pitch_bend_c, 5, 10752
9, 53451, Pitch_bend_c, 5, 11648
9, 53454, Pitch_bend_c, 5, 11904
9, 53461, Pitch_bend_c, 5, 12032
9, 53468, Pitch_bend_c, 5, 12288
9, 53469, Pitch_bend_c, 5, 12416
9, 53470, Pitch_bend_c, 5, 12544
9, 53472, Pitch_bend_c, 5, 12672
9, 53473, Pitch_bend_c, 5, 12800
9, 53475, Pitch_bend_c, 5, 12928
9, 53478, Pitch_bend_c, 5, 13056
9, 53480, Pitch_bend_c, 5, 13184
9, 53481, Pitch_bend_c, 5, 13440
9, 53482, Pitch_bend_c, 5, 13568
9, 53484, Pitch_bend_c, 5, 13696
9, 53485, Pitch_bend_c, 5, 13824
9, 53487, Pitch_bend_c, 5, 13952
9, 53490, Pitch_bend_c, 5, 14336
9, 53492, Pitch_bend_c, 5, 14464
9, 53494, Pitch_bend_c, 5, 14592
9, 53496, Pitch_bend_c, 5, 14720
9, 53497, Pitch_bend_c, 5, 14848
9, 53498, Pitch_bend_c, 5, 14976
9, 53499, Pitch_bend_c, 5, 15104
9, 53500, Pitch_bend_c, 5, 15232
9, 53502, Pitch_bend_c, 5, 15360
9, 53503, Pitch_bend_c, 5, 15488
9, 53504, Pitch_bend_c, 5, 15616
9, 53505, Pitch_bend_c, 5, 15744
9, 53506, Pitch_bend_c, 5, 15872
9, 53508, Pitch_bend_c, 5, 16000
9, 53509, Pitch_bend_c, 5, 16256
9, 53510, Pitch_bend_c, 5, 16383
9, 53520, Note_on_c, 5, 84, 100
9, 53578, Note_on_c, 5, 79, 0
9, 53579, Note_on_c, 5, 84, 0
9, 53580, Note_on_c, 5, 79, 100
9, 53622, Pitch_bend_c, 5, 16383
9, 53623, Pitch_bend_c, 5, 15744
9, 53624, Pitch_bend_c, 5, 15232
9, 53625, Pitch_bend_c, 5, 14720
9, 53626, Pitch_bend_c, 5, 14080
9, 53628, Pitch_bend_c, 5, 13568
9, 53629, Pitch_bend_c, 5, 13056
9, 53630, Pitch_bend_c, 5, 12544
9, 53631, Pitch_bend_c, 5, 11904
9, 53632, Pitch_bend_c, 5, 11392
9, 53634, Pitch_bend_c, 5, 10880
9, 53635, Pitch_bend_c, 5, 10368
9, 53636, Pitch_bend_c, 5, 9728
9, 53637, Pitch_bend_c, 5, 9216
9, 53638, Pitch_bend_c, 5, 8704
9, 53640, Pitch_bend_c, 5, 8192
9, 53700, Pitch_bend_c, 5, 0
9, 53758, Note_on_c, 5, 79, 0
9, 53760, Note_on_c, 5, 79, 100
9, 53760, Pitch_bend_c, 5, 8192
9, 53769, Pitch_bend_c, 5, 8320
9, 53776, Pitch_bend_c, 5, 9088
9, 53784, Pitch_bend_c, 5, 9344
9, 53791, Pitch_bend_c, 5, 10624
9, 53792, Pitch_bend_c, 5, 10880
9, 53793, Pitch_bend_c, 5, 11136
9, 53794, Pitch_bend_c, 5, 12672
9, 53797, Pitch_bend_c, 5, 14464
9, 53798, Pitch_bend_c, 5, 15488
9, 53799, Pitch_bend_c, 5, 16383
9, 53818, Note_on_c, 5, 79, 0
9, 53820, Note_on_c, 5, 80, 100
9, 53879, Note_on_c, 5, 80, 0
9, 53880, Note_on_c, 5, 79, 100
9, 53930, Pitch_bend_c, 5, 16383
9, 53931, Pitch_bend_c, 5, 15360
9, 53932, Pitch_bend_c, 5, 14336
9, 53934, Pitch_bend_c, 5, 13312
9, 53935, Pitch_bend_c, 5, 12288
9, 53936, Pitch_bend_c, 5, 11264
9, 53937, Pitch_bend_c, 5, 10240
9, 53938, Pitch_bend_c, 5, 9216
9, 53940, Pitch_bend_c, 5, 8192
9, 53998, Note_on_c, 5, 79, 0
9, 54000, Note_on_c, 5, 77, 100
9, 54059, Note_on_c, 5, 77, 0
9, 54060, Note_on_c, 5, 76, 100
9, 54119, Note_on_c, 5, 76, 0
9, 54120, Note_on_c, 5, 74, 100
9, 54179, Note_on_c, 5, 74, 0
9, 54180, Note_on_c, 5, 76, 100
9, 54239, Note_on_c, 5, 76, 0
9, 54240, Note_on_c, 5, 74, 100
9, 54589, Note_on_c, 5, 74, 0
9, 54660, Note_on_c, 5, 72, 100
9, 54689, Note_on_c, 5, 72, 0
9, 54690, Note_on_c, 5, 72, 100
9, 54719, Note_on_c, 5, 72, 0
9, 54720, Note_on_c, 5, 84, 100
9, 54726, Pitch_bend_c, 5, 8320
9, 54727, Pitch_bend_c, 5, 8704
9, 54728, Pitch_bend_c, 5, 8832
9, 54729, Pitch_bend_c, 5, 9216
9, 54730, Pitch_bend_c, 5, 9472
9, 54732, Pitch_bend_c, 5, 9600
9, 54733, Pitch_bend_c, 5, 9856
9, 54734, Pitch_bend_c, 5, 10112
9, 54735, Pitch_bend_c, 5, 10368
9, 54736, Pitch_bend_c, 5, 10752
9, 54738, Pitch_bend_c, 5, 10880
9, 54739, Pitch_bend_c, 5, 11392
9, 54740, Pitch_bend_c, 5, 11648
9, 54742, Pitch_bend_c, 5, 12288
9, 54744, Pitch_bend_c, 5, 13056
9, 54745, Pitch_bend_c, 5, 13312
9, 54746, Pitch_bend_c, 5, 14080
9, 54747, Pitch_bend_c, 5, 14848
9, 54748, Pitch_bend_c, 5, 15616
9, 54750, Pitch_bend_c, 5, 16383
9, 54898, Note_on_c, 5, 84, 0
9, 54900, Pitch_bend_c, 5, 8192
9, 54900, Note_on_c, 5, 84, 100
9, 54924, Control_c, 5, 1, 0
9, 54926, Control_c, 5, 1, 9
9, 54927, Control_c, 5, 1, 27
9, 54932, Control_c, 5, 1, 41
9, 54933, Control_c, 5, 1, 47
9, 54934, Control_c, 5, 1, 48
9, 54936, Control_c, 5, 1, 54
9, 54937, Control_c, 5, 1, 56
9, 54939, Control_c, 5, 1, 58
9, 54942, Control_c, 5, 1, 60
9, 54943, Control_c, 5, 1, 62
9, 54950, Control_c, 5, 1, 66
9, 54952, Control_c, 5, 1, 67
9, 54954, Control_c, 5, 1, 68
9, 54956, Control_c, 5, 1, 69
9, 54966, Control_c, 5, 1, 70
9, 54967, Control_c, 5, 1, 69
9, 54969, Control_c, 5, 1, 68
9, 54981, Control_c, 5, 1, 66
9, 54993, Control_c, 5, 1, 65
9, 54999, Control_c, 5, 1, 64
9, 55086, Control_c, 5, 1, 57
9, 55089, Control_c, 5, 1, 54
9, 55092, Control_c, 5, 1, 53
9, 55112, Control_c, 5, 1, 52
9, 55122, Control_c, 5, 1, 51
9, 55123, Control_c, 5, 1, 50
9, 55125, Control_c, 5, 1, 48
9, 55128, Control_c, 5, 1, 42
9, 55130, Control_c, 5, 1, 40
9, 55132, Control_c, 5, 1, 31
9, 55141, Control_c, 5, 1, 27
9, 55143, Control_c, 5, 1, 26
9, 55146, Control_c, 5, 1, 25
9, 55147, Control_c, 5, 1, 24
9, 55148, Control_c, 5, 1, 23
9, 55149, Control_c, 5, 1, 22
9, 55152, Control_c, 5, 1, 20
9, 55161, Control_c, 5, 1, 18
9, 55171, Control_c, 5, 1, 16
9, 55180, Control_c, 5, 1, 10
9, 55183, Control_c, 5, 1, 9
9, 55189, Control_c, 5, 1, 4
9, 55191, Control_c, 5, 1, 0
9, 55198, Note_on_c, 5, 84, 0
9, 55200, Note_on_c, 5, 84, 100
9, 55206, Pitch_bend_c, 5, 8320
9, 55207, Pitch_bend_c, 5, 8704
9, 55208, Pitch_bend_c, 5, 8832
9, 55209, Pitch_bend_c, 5, 9216
9, 55210, Pitch_bend_c, 5, 9472
9, 55212, Pitch_bend_c, 5, 9600
9, 55213, Pitch_bend_c, 5, 9856
9, 55214, Pitch_bend_c, 5, 10112
9, 55215, Pitch_bend_c, 5, 10368
9, 55216, Pitch_bend_c, 5, 10752
9, 55218, Pitch_bend_c, 5, 10880
9, 55219, Pitch_bend_c, 5, 11392
9, 55220, Pitch_bend_c, 5, 11648
9, 55222, Pitch_bend_c, 5, 12288
9, 55224, Pitch_bend_c, 5, 13056
9, 55225, Pitch_bend_c, 5, 13312
9, 55226, Pitch_bend_c, 5, 14080
9, 55227, Pitch_bend_c, 5, 14848
9, 55228, Pitch_bend_c, 5, 15616
9, 55230, Pitch_bend_c, 5, 16383
9, 55378, Note_on_c, 5, 84, 0
9, 55380, Note_on_c, 5, 84, 100
9, 55404, Control_c, 5, 1, 0
9, 55406, Control_c, 5, 1, 23
9, 55411, Control_c, 5, 1, 25
9, 55413, Control_c, 5, 1, 27
9, 55414, Control_c, 5, 1, 29
9, 55416, Control_c, 5, 1, 30
9, 55417, Control_c, 5, 1, 31
9, 55419, Control_c, 5, 1, 34
9, 55420, Control_c, 5, 1, 35
9, 55438, Control_c, 5, 1, 36
9, 55440, Control_c, 5, 1, 37
9, 55447, Control_c, 5, 1, 38
9, 55449, Control_c, 5, 1, 39
9, 55453, Control_c, 5, 1, 40
9, 55454, Control_c, 5, 1, 41
9, 55460, Control_c, 5, 1, 42
9, 55466, Control_c, 5, 1, 43
9, 55542, Control_c, 5, 1, 43
9, 55555, Control_c, 5, 1, 41
9, 55568, Control_c, 5, 1, 40
9, 55569, Control_c, 5, 1, 39
9, 55603, Control_c, 5, 1, 37
9, 55606, Control_c, 5, 1, 38
9, 55608, Control_c, 5, 1, 42
9, 55610, Control_c, 5, 1, 40
9, 55612, Control_c, 5, 1, 31
9, 55618, Note_on_c, 5, 84, 0
9, 55619, Note_on_c, 5, 84, 100
9, 55621, Control_c, 5, 1, 27
9, 55623, Control_c, 5, 1, 26
9, 55626, Control_c, 5, 1, 25
9, 55627, Control_c, 5, 1, 24
9, 55628, Control_c, 5, 1, 23
9, 55629, Control_c, 5, 1, 22
9, 55632, Control_c, 5, 1, 20
9, 55641, Control_c, 5, 1, 18
9, 55651, Control_c, 5, 1, 16
9, 55660, Control_c, 5, 1, 10
9, 55663, Control_c, 5, 1, 9
9, 55669, Control_c, 5, 1, 4
9, 55671, Control_c, 5, 1, 0
9, 55738, Note_on_c, 5, 84, 0
9, 55740, Note_on_c, 5, 84, 100
9, 55740, Pitch_bend_c, 5, 8192
9, 55799, Note_on_c, 5, 84, 0
9, 55800, Note_on_c, 5, 82, 100
9, 55859, Note_on_c, 5, 82, 0
9, 55860, Note_on_c, 5, 81, 100
9, 55919, Note_on_c, 5, 81, 0
9, 55920, Note_on_c, 5, 79, 100
9, 55979, Note_on_c, 5, 79, 0
9, 55980, Note_on_c, 5, 81, 100
9, 56039, Note_on_c, 5, 81, 0
9, 56040, Note_on_c, 5, 77, 100
9, 56099, Note_on_c, 5, 77, 0
9, 56100, Note_on_c, 5, 76, 100
9, 56159, Note_on_c, 5, 76, 0
9, 56160, Note_on_c, 5, 77, 100
9, 56178, Pitch_bend_c, 5, 8192
9, 56203, Pitch_bend_c, 5, 8320
9, 56229, Pitch_bend_c, 5, 8448
9, 56234, Pitch_bend_c, 5, 8576
9, 56239, Pitch_bend_c, 5, 8704
9, 56241, Pitch_bend_c, 5, 8832
9, 56245, Pitch_bend_c, 5, 8960
9, 56250, Pitch_bend_c, 5, 9088
9, 56256, Pitch_bend_c, 5, 9344
9, 56259, Pitch_bend_c, 5, 9472
9, 56263, Pitch_bend_c, 5, 9728
9, 56279, Note_on_c, 5, 77, 0
9, 56280, Pitch_bend_c, 5, 8192
9, 56280, Note_on_c, 5, 84, 100
9, 56339, Note_on_c, 5, 84, 0
9, 56340, Note_on_c, 5, 77, 100
9, 56578, Note_on_c, 5, 77, 0
9, 56580, Note_on_c, 5, 74, 100
9, 56612, Control_c, 5, 1, 125
9, 56822, Control_c, 5, 1, 114
9, 56836, Control_c, 5, 1, 84
9, 56849, Control_c, 5, 1, 51
9, 56858, Control_c, 5, 1, 15
9, 56861, Control_c, 5, 1, 0
9, 56878, Note_on_c, 5, 74, 0
9, 56880, Note_on_c, 5, 75, 100
9, 56882, Pitch_bend_c, 5, 8448
9, 56884, Pitch_bend_c, 5, 9216
9, 56886, Pitch_bend_c, 5, 9728
9, 56887, Pitch_bend_c, 5, 11136
9, 56888, Pitch_bend_c, 5, 16383
9, 56939, Note_on_c, 5, 75, 0
9, 56940, Pitch_bend_c, 5, 8192
9, 56940, Note_on_c, 5, 75, 100
9, 56942, Pitch_bend_c, 5, 8448
9, 56943, Pitch_bend_c, 5, 8576
9, 56944, Pitch_bend_c, 5, 8960
9, 56947, Pitch_bend_c, 5, 10624
9, 56948, Pitch_bend_c, 5, 10880
9, 56949, Pitch_bend_c, 5, 11648
9, 56950, Pitch_bend_c, 5, 12672
9, 56952, Pitch_bend_c, 5, 16383
9, 56999, Note_on_c, 5, 75, 0
9, 57000, Pitch_bend_c, 5, 8192
9, 57000, Note_on_c, 5, 75, 100
9, 57002, Pitch_bend_c, 5, 8448
9, 57004, Pitch_bend_c, 5, 9216
9, 57006, Pitch_bend_c, 5, 9728
9, 57007, Pitch_bend_c, 5, 11136
9, 57008, Pitch_bend_c, 5, 16383
9, 57059, Note_on_c, 5, 75, 0
9, 57060, Pitch_bend_c, 5, 8192
9, 57060, Note_on_c, 5, 75, 100
9, 57062, Pitch_bend_c, 5, 8448
9, 57063, Pitch_bend_c, 5, 8576
9, 57064, Pitch_bend_c, 5, 8960
9, 57067, Pitch_bend_c, 5, 10624
9, 57068, Pitch_bend_c, 5, 10880
9, 57069, Pitch_bend_c, 5, 11648
9, 57070, Pitch_bend_c, 5, 12672
9, 57072, Pitch_bend_c, 5, 16383
9, 57119, Note_on_c, 5, 75, 0
9, 57120, Pitch_bend_c, 5, 8192
9, 57120, Note_on_c, 5, 77, 100
9, 57149, Note_on_c, 5, 77, 0
9, 57150, Note_on_c, 5, 74, 100
9, 57179, Note_on_c, 5, 74, 0
9, 57180, Note_on_c, 5, 74, 100
9, 57538, Note_on_c, 5, 74, 0
9, 57540, Note_on_c, 5, 79, 100
9, 57543, Pitch_bend_c, 5, 8320
9, 57550, Pitch_bend_c, 5, 8448
9, 57561, Pitch_bend_c, 5, 8576
9, 57565, Pitch_bend_c, 5, 8704
9, 57567, Pitch_bend_c, 5, 8832
9, 57570, Pitch_bend_c, 5, 8960
9, 57577, Pitch_bend_c, 5, 9088
9, 57580, Pitch_bend_c, 5, 9344
9, 57583, Pitch_bend_c, 5, 9856
9, 57585, Pitch_bend_c, 5, 10112
9, 57586, Pitch_bend_c, 5, 10368
9, 57589, Pitch_bend_c, 5, 10624
9, 57591, Pitch_bend_c, 5, 10880
9, 57594, Pitch_bend_c, 5, 11648
9, 57595, Pitch_bend_c, 5, 12416
9, 57596, Pitch_bend_c, 5, 13440
9, 57597, Pitch_bend_c, 5, 14464
9, 57598, Pitch_bend_c, 5, 14592
9, 57600, Pitch_bend_c, 5, 16383
9, 57659, Note_on_c, 5, 79, 0
9, 57660, Note_on_c, 5, 82, 100
9, 57719, Note_on_c, 5, 82, 0
9, 57720, Note_on_c, 5, 79, 100
9, 57762, Pitch_bend_c, 5, 16256
9, 57763, Pitch_bend_c, 5, 12928
9, 57764, Pitch_bend_c, 5, 11136
9, 57765, Pitch_bend_c, 5, 10624
9, 57768, Pitch_bend_c, 5, 10368
9, 57770, Pitch_bend_c, 5, 9600
9, 57772, Pitch_bend_c, 5, 9344
9, 57774, Pitch_bend_c, 5, 9088
9, 57776, Pitch_bend_c, 5, 8960
9, 57777, Pitch_bend_c, 5, 8832
9, 57780, Pitch_bend_c, 5, 8192
9, 57839, Note_on_c, 5, 79, 0
9, 57840, Note_on_c, 5, 86, 100
9, 57847, Pitch_bend_c, 5, 8320
9, 57849, Pitch_bend_c, 5, 8448
9, 57853, Control_c, 5, 1, 0
9, 57853, Pitch_bend_c, 5, 9216
9, 57854, Pitch_bend_c, 5, 9472
9, 57855, Pitch_bend_c, 5, 9728
9, 57856, Pitch_bend_c, 5, 10112
9, 57858, Pitch_bend_c, 5, 10240
9, 57859, Pitch_bend_c, 5, 10624
9, 57860, Pitch_bend_c, 5, 10880
9, 57861, Control_c, 5, 1, 16
9, 57861, Pitch_bend_c, 5, 11136
9, 57862, Pitch_bend_c, 5, 11392
9, 57864, Pitch_bend_c, 5, 11776
9, 57864, Control_c, 5, 1, 18
9, 57866, Control_c, 5, 1, 20
9, 57866, Pitch_bend_c, 5, 12288
9, 57867, Pitch_bend_c, 5, 12672
9, 57868, Control_c, 5, 1, 26
9, 57868, Pitch_bend_c, 5, 12928
9, 57870, Control_c, 5, 1, 28
9, 57870, Pitch_bend_c, 5, 13184
9, 57871, Pitch_bend_c, 5, 13568
9, 57871, Control_c, 5, 1, 29
9, 57872, Control_c, 5, 1, 30
9, 57872, Pitch_bend_c, 5, 13696
9, 57873, Pitch_bend_c, 5, 14720
9, 57874, Control_c, 5, 1, 32
9, 57874, Pitch_bend_c, 5, 14976
9, 57876, Control_c, 5, 1, 34
9, 57876, Pitch_bend_c, 5, 15744
9, 57877, Pitch_bend_c, 5, 16383
9, 57878, Control_c, 5, 1, 35
9, 57879, Control_c, 5, 1, 37
9, 57886, Control_c, 5, 1, 39
9, 57888, Control_c, 5, 1, 40
9, 57889, Control_c, 5, 1, 42
9, 57890, Control_c, 5, 1, 43
9, 57892, Control_c, 5, 1, 44
9, 57894, Control_c, 5, 1, 45
9, 57936, Control_c, 5, 1, 82
9, 57959, Note_on_c, 5, 86, 0
9, 57960, Note_on_c, 5, 86, 100
9, 57976, Control_c, 5, 1, 105
9, 58019, Note_on_c, 5, 86, 0
9, 58020, Note_on_c, 5, 86, 100
9, 58039, Control_c, 5, 1, 105
9, 58079, Note_on_c, 5, 86, 0
9, 58080, Note_on_c, 5, 86, 100
9, 58110, Control_c, 5, 1, 99
9, 58153, Control_c, 5, 1, 80
9, 58167, Control_c, 5, 1, 38
9, 58170, Control_c, 5, 1, 29
9, 58171, Control_c, 5, 1, 28
9, 58184, Control_c, 5, 1, 10
9, 58186, Control_c, 5, 1, 0
9, 58246, Pitch_bend_c, 5, 16383
9, 58248, Pitch_bend_c, 5, 15616
9, 58249, Pitch_bend_c, 5, 14848
9, 58250, Pitch_bend_c, 5, 14080
9, 58251, Pitch_bend_c, 5, 13312
9, 58252, Pitch_bend_c, 5, 12544
9, 58254, Pitch_bend_c, 5, 11904
9, 58255, Pitch_bend_c, 5, 11136
9, 58256, Pitch_bend_c, 5, 10368
9, 58257, Pitch_bend_c, 5, 9600
9, 58258, Note_on_c, 5, 86, 0
9, 58258, Pitch_bend_c, 5, 8832
9, 58260, Pitch_bend_c, 5, 8192
9, 58260, Note_on_c, 5, 86, 100
9, 58498, Note_on_c, 5, 86, 0
9, 58500, Note_on_c, 5, 86, 100
9, 58503, Pitch_bend_c, 5, 8192
9, 58506, Pitch_bend_c, 5, 8448
9, 58508, Pitch_bend_c, 5, 8704
9, 58509, Pitch_bend_c, 5, 8960
9, 58510, Pitch_bend_c, 5, 9216
9, 58513, Pitch_bend_c, 5, 9472
9, 58514, Control_c, 5, 1, 4
9, 58516, Pitch_bend_c, 5, 9984
9, 58518, Pitch_bend_c, 5, 10240
9, 58519, Pitch_bend_c, 5, 10368
9, 58520, Pitch_bend_c, 5, 10496
9, 58521, Pitch_bend_c, 5, 11008
9, 58522, Pitch_bend_c, 5, 11264
9, 58524, Pitch_bend_c, 5, 11520
9, 58525, Pitch_bend_c, 5, 11904
9, 58526, Pitch_bend_c, 5, 12160
9, 58527, Pitch_bend_c, 5, 12672
9, 58528, Pitch_bend_c, 5, 13056
9, 58530, Pitch_bend_c, 5, 13184
9, 58531, Pitch_bend_c, 5, 14208
9, 58532, Pitch_bend_c, 5, 14720
9, 58533, Control_c, 5, 1, 44
9, 58533, Pitch_bend_c, 5, 14976
9, 58534, Pitch_bend_c, 5, 16383
9, 58536, Control_c, 5, 1, 54
9, 58537, Control_c, 5, 1, 64
9, 58538, Control_c, 5, 1, 70
9, 58539, Control_c, 5, 1, 76
9, 58540, Control_c, 5, 1, 82
9, 58542, Control_c, 5, 1, 83
9, 58543, Control_c, 5, 1, 84
9, 58544, Control_c, 5, 1, 85
9, 58545, Control_c, 5, 1, 86
9, 58546, Control_c, 5, 1, 87
9, 58549, Control_c, 5, 1, 88
9, 58551, Control_c, 5, 1, 89
9, 58554, Control_c, 5, 1, 90
9, 58556, Control_c, 5, 1, 91
9, 58558, Control_c, 5, 1, 90
9, 58566, Control_c, 5, 1, 88
9, 58578, Control_c, 5, 1, 82
9, 58592, Control_c, 5, 1, 80
9, 58594, Control_c, 5, 1, 78
9, 58597, Control_c, 5, 1, 76
9, 58606, Control_c, 5, 1, 68
9, 58609, Control_c, 5, 1, 66
9, 58616, Control_c, 5, 1, 64
9, 58623, Control_c, 5, 1, 58
9, 58626, Control_c, 5, 1, 57
9, 58629, Control_c, 5, 1, 49
9, 58639, Control_c, 5, 1, 43
9, 58646, Control_c, 5, 1, 40
9, 58648, Control_c, 5, 1, 35
9, 58651, Control_c, 5, 1, 34
9, 58658, Control_c, 5, 1, 26
9, 58668, Control_c, 5, 1, 24
9, 58674, Control_c, 5, 1, 23
9, 58676, Control_c, 5, 1, 21
9, 58677, Control_c, 5, 1, 20
9, 58680, Control_c, 5, 1, 14
9, 58681, Control_c, 5, 1, 8
9, 58682, Control_c, 5, 1, 6
9, 58684, Control_c, 5, 1, 4
9, 58692, Control_c, 5, 1, 0
9, 58711, Pitch_bend_c, 5, 16383
9, 58712, Pitch_bend_c, 5, 16000
9, 58713, Pitch_bend_c, 5, 15616
9, 58714, Pitch_bend_c, 5, 15360
9, 58716, Pitch_bend_c, 5, 14976
9, 58717, Pitch_bend_c, 5, 14592
9, 58718, Pitch_bend_c, 5, 14336
9, 58719, Pitch_bend_c, 5, 13952
9, 58720, Pitch_bend_c, 5, 13568
9, 58722, Pitch_bend_c, 5, 13312
9, 58723, Pitch_bend_c, 5, 12928
9, 58724, Pitch_bend_c, 5, 12544
9, 58725, Pitch_bend_c, 5, 12288
9, 58726, Pitch_bend_c, 5, 11904
9, 58728, Pitch_bend_c, 5, 11520
9, 58729, Pitch_bend_c, 5, 11264
9, 58730, Pitch_bend_c, 5, 10880
9, 58731, Pitch_bend_c, 5, 10496
9, 58732, Pitch_bend_c, 5, 10240
9, 58734, Pitch_bend_c, 5, 9856
9, 58735, Pitch_bend_c, 5, 9472
9, 58736, Pitch_bend_c, 5, 9216
9, 58737, Pitch_bend_c, 5, 8832
9, 58738, Note_on_c, 5, 86, 0
9, 58738, Pitch_bend_c, 5, 8448
9, 58740, Pitch_bend_c, 5, 8192
9, 58740, Note_on_c, 5, 84, 100
9, 58799, Note_on_c, 5, 84, 0
9, 58800, Note_on_c, 5, 82, 100
9, 58859, Note_on_c, 5, 82, 0
9, 58860, Note_on_c, 5, 81, 100
9, 58919, Note_on_c, 5, 81, 0
9, 58920, Note_on_c, 5, 79, 100
9, 58979, Note_on_c, 5, 79, 0
9, 58980, Note_on_c, 5, 81, 100
9, 59039, Note_on_c, 5, 81, 0
9, 59040, Note_on_c, 5, 79, 100
9, 59099, Note_on_c, 5, 79, 0
9, 59100, Note_on_c, 5, 76, 100
9, 59130, Pitch_bend_c, 5, 12288
9, 59159, Note_on_c, 5, 76, 0
9, 59160, Pitch_bend_c, 5, 8192
9, 59160, Note_on_c, 5, 76, 100
9, 59189, Note_on_c, 5, 76, 0
9, 59190, Note_on_c, 5, 74, 100
9, 59219, Note_on_c, 5, 74, 0
9, 59220, Note_on_c, 5, 72, 100
9, 59250, Pitch_bend_c, 5, 16256
9, 59279, Note_on_c, 5, 72, 0
9, 59280, Pitch_bend_c, 5, 8192
9, 59280, Note_on_c, 5, 72, 100
9, 59399, Note_on_c, 5, 72, 0
9, 59400, Note_on_c, 5, 75, 100
9, 59402, Pitch_bend_c, 5, 8448
9, 59404, Pitch_bend_c, 5, 9216
9, 59406, Pitch_bend_c, 5, 9728
9, 59407, Pitch_bend_c, 5, 11136
9, 59408, Pitch_bend_c, 5, 16383
9, 59459, Note_on_c, 5, 75, 0
9, 59460, Pitch_bend_c, 5, 8192
9, 59460, Note_on_c, 5, 75, 100
9, 59462, Pitch_bend_c, 5, 8448
9, 59463, Pitch_bend_c, 5, 8576
9, 59464, Pitch_bend_c, 5, 8960
9, 59467, Pitch_bend_c, 5, 10624
9, 59468, Pitch_bend_c, 5, 10880
9, 59469, Pitch_bend_c, 5, 11648
9, 59470, Pitch_bend_c, 5, 12672
9, 59472, Pitch_bend_c, 5, 16383
9, 59519, Note_on_c, 5, 75, 0
9, 59520, Pitch_bend_c, 5, 8192
9, 59520, Note_on_c, 5, 75, 100
9, 59522, Pitch_bend_c, 5, 8448
9, 59524, Pitch_bend_c, 5, 9216
9, 59526, Pitch_bend_c, 5, 9728
9, 59527, Pitch_bend_c, 5, 11136
9, 59528, Pitch_bend_c, 5, 16383
9, 59579, Note_on_c, 5, 75, 0
9, 59580, Pitch_bend_c, 5, 8192
9, 59580, Note_on_c, 5, 75, 100
9, 59582, Pitch_bend_c, 5, 8448
9, 59583, Pitch_bend_c, 5, 8576
9, 59584, Pitch_bend_c, 5, 8960
9, 59587, Pitch_bend_c, 5, 10624
9, 59588, Pitch_bend_c, 5, 10880
9, 59589, Pitch_bend_c, 5, 11648
9, 59590, Pitch_bend_c, 5, 12672
9, 59592, Pitch_bend_c, 5, 16383
9, 59639, Note_on_c, 5, 75, 0
9, 59640, Note_on_c, 5, 75, 100
9, 59640, Pitch_bend_c, 5, 8192
9, 59642, Pitch_bend_c, 5, 8448
9, 59644, Pitch_bend_c, 5, 9216
9, 59646, Pitch_bend_c, 5, 9728
9, 59647, Pitch_bend_c, 5, 11136
9, 59648, Pitch_bend_c, 5, 16383
9, 59699, Note_on_c, 5, 75, 0
9, 59700, Pitch_bend_c, 5, 8192
9, 59700, Note_on_c, 5, 75, 100
9, 59702, Pitch_bend_c, 5, 8448
9, 59703, Pitch_bend_c, 5, 8576
9, 59704, Pitch_bend_c, 5, 8960
9, 59707, Pitch_bend_c, 5, 10624
9, 59708, Pitch_bend_c, 5, 10880
9, 59709, Pitch_bend_c, 5, 11648
9, 59710, Pitch_bend_c, 5, 12672
9, 59712, Pitch_bend_c, 5, 16383
9, 59759, Note_on_c, 5, 75, 0
9, 59760, Pitch_bend_c, 5, 8192
9, 59760, Note_on_c, 5, 75, 100
9, 59762, Pitch_bend_c, 5, 8448
9, 59764, Pitch_bend_c, 5, 9216
9, 59766, Pitch_bend_c, 5, 9728
9, 59767, Pitch_bend_c, 5, 11136
9, 59768, Pitch_bend_c, 5, 16383
9, 59819, Note_on_c, 5, 75, 0
9, 59820, Pitch_bend_c, 5, 8192
9, 59820, Note_on_c, 5, 75, 100
9, 59822, Pitch_bend_c, 5, 8448
9, 59823, Pitch_bend_c, 5, 8576
9, 59824, Pitch_bend_c, 5, 8960
9, 59827, Pitch_bend_c, 5, 10624
9, 59828, Pitch_bend_c, 5, 10880
9, 59829, Pitch_bend_c, 5, 11648
9, 59830, Pitch_bend_c, 5, 12672
9, 59832, Pitch_bend_c, 5, 16383
9, 59879, Note_on_c, 5, 75, 0
9, 59880, Pitch_bend_c, 5, 8192
9, 59880, Note_on_c, 5, 75, 100
9, 59882, Pitch_bend_c, 5, 8448
9, 59884, Pitch_bend_c, 5, 9216
9, 59886, Pitch_bend_c, 5, 9728
9, 59887, Pitch_bend_c, 5, 11136
9, 59888, Pitch_bend_c, 5, 16383
9, 59939, Note_on_c, 5, 75, 0
9, 59940, Note_on_c, 5, 75, 100
9, 59940, Pitch_bend_c, 5, 8192
9, 59942, Pitch_bend_c, 5, 8448
9, 59943, Pitch_bend_c, 5, 8576
9, 59944, Pitch_bend_c, 5, 8960
9, 59947, Pitch_bend_c, 5, 10624
9, 59948, Pitch_bend_c, 5, 10880
9, 59949, Pitch_bend_c, 5, 11648
9, 59950, Pitch_bend_c, 5, 12672
9, 59952, Pitch_bend_c, 5, 16383
9, 59999, Note_on_c, 5, 75, 0
9, 60000, Control_c, 5, 11, 127
9, 60000, Note_on_c, 5, 74, 100
9, 60000, Pitch_bend_c, 5, 8192
9, 60010, Control_c, 5, 1, 0
9, 60019, Control_c, 5, 1, 18
9, 60020, Control_c, 5, 1, 20
9, 60021, Control_c, 5, 1, 24
9, 60022, Control_c, 5, 1, 30
9, 60024, Control_c, 5, 1, 36
9, 60026, Control_c, 5, 1, 40
9, 60028, Control_c, 5, 1, 48
9, 60031, Control_c, 5, 11, 126
9, 60031, Control_c, 5, 1, 54
9, 60032, Control_c, 5, 1, 56
9, 60033, Control_c, 5, 1, 58
9, 60036, Control_c, 5, 1, 60
9, 60038, Control_c, 5, 1, 62
9, 60039, Control_c, 5, 1, 63
9, 60040, Control_c, 5, 1, 64
9, 60045, Control_c, 5, 1, 70
9, 60046, Control_c, 5, 1, 71
9, 60048, Control_c, 5, 1, 73
9, 60049, Control_c, 5, 1, 75
9, 60051, Control_c, 5, 1, 76
9, 60052, Control_c, 5, 1, 78
9, 60055, Control_c, 5, 1, 79
9, 60056, Control_c, 5, 1, 81
9, 60057, Control_c, 5, 1, 82
9, 60060, Control_c, 5, 1, 84
9, 60061, Control_c, 5, 1, 86
9, 60062, Control_c, 5, 11, 125
9, 60063, Control_c, 5, 1, 88
9, 60064, Control_c, 5, 1, 89
9, 60066, Control_c, 5, 1, 90
9, 60093, Control_c, 5, 11, 124
9, 60124, Control_c, 5, 11, 123
9, 60129, Control_c, 5, 1, 86
9, 60130, Control_c, 5, 1, 84
9, 60134, Control_c, 5, 1, 79
9, 60135, Control_c, 5, 1, 77
9, 60136, Control_c, 5, 1, 71
9, 60139, Control_c, 5, 1, 63
9, 60141, Control_c, 5, 1, 57
9, 60148, Control_c, 5, 1, 45
9, 60154, Control_c, 5, 1, 19
9, 60155, Control_c, 5, 11, 122
9, 60162, Control_c, 5, 1, 11
9, 60163, Control_c, 5, 1, 9
9, 60164, Control_c, 5, 1, 7
9, 60165, Control_c, 5, 1, 0
9, 60178, Note_on_c, 5, 74, 0
9, 60180, Note_on_c, 5, 72, 100
9, 60187, Control_c, 5, 11, 121
9, 60210, Pitch_bend_c, 5, 16383
9, 60218, Control_c, 5, 11, 120
9, 60239, Note_on_c, 5, 72, 0
9, 60240, Pitch_bend_c, 5, 8192
9, 60240, Note_on_c, 5, 77, 100
9, 60249, Control_c, 5, 11, 119
9, 60268, Note_on_c, 5, 77, 0
9, 60270, Note_on_c, 5, 74, 100
9, 60280, Control_c, 5, 11, 118
9, 60311, Control_c, 5, 11, 117
9, 60342, Control_c, 5, 11, 116
9, 60374, Control_c, 5, 11, 115
9, 60405, Control_c, 5, 11, 114
9, 60418, Note_on_c, 5, 74, 0
9, 60420, Note_on_c, 5, 72, 100
9, 60436, Control_c, 5, 11, 113
9, 60449, Note_on_c, 5, 72, 0
9, 60450, Note_on_c, 5, 74, 100
9, 60467, Control_c, 5, 11, 112
9, 60479, Note_on_c, 5, 74, 0
9, 60480, Note_on_c, 5, 77, 100
9, 60498, Control_c, 5, 11, 111
9, 60509, Note_on_c, 5, 77, 0
9, 60510, Note_on_c, 5, 74, 100
9, 60530, Control_c, 5, 11, 110
9, 60539, Note_on_c, 5, 74, 0
9, 60540, Note_on_c, 5, 72, 100
9, 60561, Control_c, 5, 11, 109
9, 60569, Note_on_c, 5, 72, 0
9, 60570, Note_on_c, 5, 69, 100
9, 60592, Control_c, 5, 11, 108
9, 60599, Note_on_c, 5, 69, 0
9, 60600, Note_on_c, 5, 74, 100
9, 60623, Control_c, 5, 11, 107
9, 60629, Note_on_c, 5, 74, 0
9, 60630, Note_on_c, 5, 72, 100
9, 60654, Control_c, 5, 11, 106
9, 60659, Note_on_c, 5, 72, 0
9, 60660, Note_on_c, 5, 68, 100
9, 60685, Control_c, 5, 11, 105
9, 60689, Note_on_c, 5, 68, 0
9, 60690, Note_on_c, 5, 67, 100
9, 60717, Control_c, 5, 11, 104
9, 60719, Note_on_c, 5, 67, 0
9, 60720, Note_on_c, 5, 72, 100
9, 60748, Control_c, 5, 11, 103
9, 60749, Note_on_c, 5, 72, 0
9, 60750, Note_on_c, 5, 68, 100
9, 60779, Note_on_c, 5, 68, 0
9, 60779, Control_c, 5, 11, 102
9, 60780, Note_on_c, 5, 65, 100
9, 60809, Note_on_c, 5, 65, 0
9, 60810, Control_c, 5, 11, 101
9, 60810, Note_on_c, 5, 67, 100
9, 60839, Note_on_c, 5, 67, 0
9, 60840, Note_on_c, 5, 72, 100
9, 60841, Control_c, 5, 11, 100
9, 60869, Note_on_c, 5, 72, 0
9, 60870, Note_on_c, 5, 69, 100
9, 60873, Control_c, 5, 11, 99
9, 60899, Note_on_c, 5, 69, 0
9, 60900, Note_on_c, 5, 72, 100
9, 60904, Control_c, 5, 11, 98
9, 60929, Note_on_c, 5, 72, 0
9, 60930, Note_on_c, 5, 69, 100
9, 60935, Control_c, 5, 11, 97
9, 60959, Note_on_c, 5, 69, 0
9, 60960, Note_on_c, 5, 68, 100
9, 60966, Control_c, 5, 11, 96
9, 60989, Note_on_c, 5, 68, 0
9, 60990, Note_on_c, 5, 67, 100
9, 60997, Control_c, 5, 11, 95
9, 61019, Note_on_c, 5, 67, 0
9, 61020, Note_on_c, 5, 72, 100
9, 61028, Control_c, 5, 11, 94
9, 61049, Note_on_c, 5, 72, 0
9, 61050, Note_on_c, 5, 69, 100
9, 61060, Control_c, 5, 11, 93
9, 61079, Note_on_c, 5, 69, 0
9, 61080, Note_on_c, 5, 72, 100
9, 61091, Control_c, 5, 11, 92
9, 61109, Note_on_c, 5, 72, 0
9, 61110, Note_on_c, 5, 69, 100
9, 61122, Control_c, 5, 11, 91
9, 61139, Note_on_c, 5, 69, 0
9, 61140, Note_on_c, 5, 68, 100
9, 61153, Control_c, 5, 11, 90
9, 61169, Note_on_c, 5, 68, 0
9, 61170, Note_on_c, 5, 67, 100
9, 61184, Control_c, 5, 11, 89
9, 61199, Note_on_c, 5, 67, 0
9, 61200, Note_on_c, 5, 72, 100
9, 61216, Control_c, 5, 11, 88
9, 61229, Note_on_c, 5, 72, 0
9, 61230, Note_on_c, 5, 69, 100
9, 61247, Control_c, 5, 11, 87
9, 61259, Note_on_c, 5, 69, 0
9, 61260, Note_on_c, 5, 72, 100
9, 61278, Control_c, 5, 11, 86
9, 61289, Note_on_c, 5, 72, 0
9, 61290, Note_on_c, 5, 69, 100
9, 61309, Control_c, 5, 11, 85
9, 61319, Note_on_c, 5, 69, 0
9, 61320, Note_on_c, 5, 68, 100
9, 61340, Control_c, 5, 11, 84
9, 61349, Note_on_c, 5, 68, 0
9, 61350, Note_on_c, 5, 67, 100
9, 61371, Control_c, 5, 11, 83
9, 61379, Note_on_c, 5, 67, 0
9, 61380, Note_on_c, 5, 72, 100
9, 61403, Control_c, 5, 11, 82
9, 61409, Note_on_c, 5, 72, 0
9, 61410, Note_on_c, 5, 69, 100
9, 61434, Control_c, 5, 11, 81
9, 61439, Note_on_c, 5, 69, 0
9, 61440, Note_on_c, 5, 72, 100
9, 61465, Control_c, 5, 11, 80
9, 61469, Note_on_c, 5, 72, 0
9, 61470, Note_on_c, 5, 69, 100
9, 61496, Control_c, 5, 11, 79
9, 61499, Note_on_c, 5, 69, 0
9, 61500, Note_on_c, 5, 68, 100
9, 61527, Control_c, 5, 11, 78
9, 61529, Note_on_c, 5, 68, 0
9, 61530, Note_on_c, 5, 67, 100
9, 61559, Note_on_c, 5, 67, 0
9, 61559, Control_c, 5, 11, 77
9, 61560, Note_on_c, 5, 72, 100
9, 61589, Note_on_c, 5, 72, 0
9, 61590, Control_c, 5, 11, 76
9, 61590, Note_on_c, 5, 69, 100
9, 61619, Note_on_c, 5, 69, 0
9, 61620, Note_on_c, 5, 69, 100
9, 61621, Control_c, 5, 11, 75
9, 61649, Note_on_c, 5, 69, 0
9, 61650, Note_on_c, 5, 69, 100
9, 61652, Control_c, 5, 11, 74
9, 61679, Note_on_c, 5, 69, 0
9, 61680, Note_on_c, 5, 74, 100
9, 61683, Control_c, 5, 11, 73
9, 61709, Note_on_c, 5, 74, 0
9, 61710, Note_on_c, 5, 77, 100
9, 61714, Control_c, 5, 11, 72
9, 61739, Note_on_c, 5, 77, 0
9, 61740, Note_on_c, 5, 79, 100
9, 61746, Control_c, 5, 11, 71
9, 61777, Control_c, 5, 11, 70
9, 61799, Note_on_c, 5, 79, 0
9, 61800, Note_on_c, 5, 74, 100
9, 61808, Control_c, 5, 11, 69
9, 61829, Note_on_c, 5, 74, 0
9, 61830, Note_on_c, 5, 77, 100
9, 61839, Control_c, 5, 11, 68
9, 61859, Note_on_c, 5, 77, 0
9, 61870, Control_c, 5, 11, 67
9, 61890, Note_on_c, 5, 81, 100
9, 61902, Control_c, 5, 11, 66
9, 61919, Note_on_c, 5, 81, 0
9, 61920, Note_on_c, 5, 79, 100
9, 61924, Pitch_bend_c, 5, 8320
9, 61927, Pitch_bend_c, 5, 9088
9, 61929, Pitch_bend_c, 5, 9216
9, 61930, Pitch_bend_c, 5, 9472
9, 61932, Pitch_bend_c, 5, 9856
9, 61933, Control_c, 5, 11, 65
9, 61933, Pitch_bend_c, 5, 9984
9, 61934, Pitch_bend_c, 5, 10368
9, 61935, Pitch_bend_c, 5, 10624
9, 61936, Pitch_bend_c, 5, 11648
9, 61938, Pitch_bend_c, 5, 12416
9, 61939, Pitch_bend_c, 5, 12672
9, 61940, Pitch_bend_c, 5, 13440
9, 61941, Pitch_bend_c, 5, 14208
9, 61942, Pitch_bend_c, 5, 15232
9, 61944, Pitch_bend_c, 5, 15488
9, 61945, Pitch_bend_c, 5, 16000
9, 61946, Pitch_bend_c, 5, 16383
9, 61964, Control_c, 5, 11, 64
9, 61995, Control_c, 5, 11, 63
9, 62026, Control_c, 5, 11, 62
9, 62039, Note_on_c, 5, 79, 0
9, 62040, Pitch_bend_c, 5, 8192
9, 62040, Note_on_c, 5, 84, 100
9, 62057, Control_c, 5, 11, 61
9, 62089, Control_c, 5, 11, 60
9, 62099, Note_on_c, 5, 84, 0
9, 62100, Note_on_c, 5, 79, 100
9, 62120, Control_c, 5, 11, 59
9, 62138, Pitch_bend_c, 5, 8192
9, 62139, Pitch_bend_c, 5, 8320
9, 62140, Pitch_bend_c, 5, 8448
9, 62142, Pitch_bend_c, 5, 8704
9, 62143, Pitch_bend_c, 5, 8960
9, 62144, Pitch_bend_c, 5, 9472
9, 62145, Pitch_bend_c, 5, 9600
9, 62146, Pitch_bend_c, 5, 10240
9, 62148, Pitch_bend_c, 5, 10624
9, 62149, Pitch_bend_c, 5, 10880
9, 62150, Pitch_bend_c, 5, 12544
9, 62151, Control_c, 5, 11, 58
9, 62151, Pitch_bend_c, 5, 13568
9, 62152, Pitch_bend_c, 5, 14592
9, 62154, Pitch_bend_c, 5, 14720
9, 62155, Pitch_bend_c, 5, 14976
9, 62156, Pitch_bend_c, 5, 15232
9, 62157, Pitch_bend_c, 5, 15360
9, 62158, Pitch_bend_c, 5, 16383
9, 62182, Control_c, 5, 11, 57
9, 62213, Control_c, 5, 11, 56
9, 62245, Control_c, 5, 11, 55
9, 62276, Control_c, 5, 11, 54
9, 62278, Note_on_c, 5, 79, 0
9, 62280, Note_on_c, 5, 77, 100
9, 62281, Pitch_bend_c, 5, 8192
9, 62307, Control_c, 5, 11, 53
9, 62338, Note_on_c, 5, 77, 0
9, 62338, Control_c, 5, 11, 52
9, 62340, Note_on_c, 5, 79, 100
9, 62369, Control_c, 5, 11, 51
9, 62398, Note_on_c, 5, 79, 0
9, 62400, Control_c, 5, 11, 50
9, 62400, Note_on_c, 5, 76, 100
9, 62404, Pitch_bend_c, 5, 8192
9, 62406, Pitch_bend_c, 5, 8320
9, 62408, Pitch_bend_c, 5, 8448
9, 62409, Pitch_bend_c, 5, 8576
9, 62410, Pitch_bend_c, 5, 8960
9, 62412, Pitch_bend_c, 5, 9216
9, 62413, Pitch_bend_c, 5, 9344
9, 62414, Pitch_bend_c, 5, 9856
9, 62415, Pitch_bend_c, 5, 10368
9, 62416, Pitch_bend_c, 5, 10496
9, 62418, Pitch_bend_c, 5, 11648
9, 62419, Pitch_bend_c, 5, 12032
9, 62420, Pitch_bend_c, 5, 12288
9, 62432, Control_c, 5, 11, 49
9, 62463, Control_c, 5, 11, 48
9, 62494, Control_c, 5, 11, 47
9, 62519, Note_on_c, 5, 76, 0
9, 62520, Note_on_c, 5, 84, 100
9, 62520, Pitch_bend_c, 5, 8192
9, 62525, Control_c, 5, 11, 46
9, 62556, Control_c, 5, 11, 45
9, 62579, Note_on_c, 5, 84, 0
9, 62580, Note_on_c, 5, 76, 100
9, 62588, Control_c, 5, 11, 44
9, 62606, Pitch_bend_c, 5, 8192
9, 62616, Pitch_bend_c, 5, 8448
9, 62618, Pitch_bend_c, 5, 8704
9, 62619, Control_c, 5, 11, 43
9, 62620, Pitch_bend_c, 5, 8832
9, 62622, Pitch_bend_c, 5, 9088
9, 62623, Pitch_bend_c, 5, 9216
9, 62625, Pitch_bend_c, 5, 9344
9, 62626, Pitch_bend_c, 5, 9600
9, 62629, Pitch_bend_c, 5, 9984
9, 62630, Pitch_bend_c, 5, 10368
9, 62631, Pitch_bend_c, 5, 10496
9, 62632, Pitch_bend_c, 5, 10752
9, 62634, Pitch_bend_c, 5, 10880
9, 62636, Pitch_bend_c, 5, 11392
9, 62637, Pitch_bend_c, 5, 11648
9, 62638, Pitch_bend_c, 5, 12032
9, 62640, Pitch_bend_c, 5, 12288
9, 62650, Control_c, 5, 11, 42
9, 62677, Pitch_bend_c, 5, 12288
9, 62678, Pitch_bend_c, 5, 12160
9, 62680, Pitch_bend_c, 5, 11136
9, 62681, Control_c, 5, 11, 41
9, 62682, Pitch_bend_c, 5, 10880
9, 62683, Pitch_bend_c, 5, 10624
9, 62686, Pitch_bend_c, 5, 9472
9, 62688, Pitch_bend_c, 5, 9216
9, 62689, Pitch_bend_c, 5, 8960
9, 62690, Pitch_bend_c, 5, 8704
9, 62691, Pitch_bend_c, 5, 8576
9, 62692, Pitch_bend_c, 5, 8448
9, 62694, Pitch_bend_c, 5, 8320
9, 62696, Pitch_bend_c, 5, 8192
9, 62712, Control_c, 5, 11, 40
9, 62743, Control_c, 5, 11, 39
9, 62758, Note_on_c, 5, 76, 0
9, 62760, Note_on_c, 5, 84, 100
9, 62775, Control_c, 5, 11, 38
9, 62806, Control_c, 5, 11, 37
9, 62819, Note_on_c, 5, 84, 0
9, 62820, Note_on_c, 5, 76, 100
9, 62837, Control_c, 5, 11, 36
9, 62868, Control_c, 5, 11, 35
9, 62879, Note_on_c, 5, 76, 0
9, 62880, Note_on_c, 5, 86, 100
9, 62884, Pitch_bend_c, 5, 8064
9, 62886, Pitch_bend_c, 5, 8192
9, 62890, Pitch_bend_c, 5, 8448
9, 62893, Pitch_bend_c, 5, 8704
9, 62894, Pitch_bend_c, 5, 8832
9, 62898, Pitch_bend_c, 5, 9472
9, 62899, Control_c, 5, 11, 34
9, 62900, Pitch_bend_c, 5, 10240
9, 62901, Pitch_bend_c, 5, 11008
9, 62902, Pitch_bend_c, 5, 11264
9, 62905, Pitch_bend_c, 5, 12288
9, 62906, Pitch_bend_c, 5, 13056
9, 62908, Pitch_bend_c, 5, 14080
9, 62910, Pitch_bend_c, 5, 15104
9, 62912, Pitch_bend_c, 5, 16128
9, 62913, Pitch_bend_c, 5, 16383
9, 62931, Control_c, 5, 11, 33
9, 62962, Control_c, 5, 11, 32
9, 62993, Control_c, 5, 11, 31
9, 62999, Note_on_c, 5, 86, 0
9, 63000, Note_on_c, 5, 86, 100
9, 63024, Control_c, 5, 11, 30
9, 63055, Control_c, 5, 11, 29
9, 63059, Note_on_c, 5, 86, 0
9, 63060, Note_on_c, 5, 86, 100
9, 63086, Control_c, 5, 11, 28
9, 63118, Control_c, 5, 11, 27
9, 63119, Note_on_c, 5, 86, 0
9, 63120, Note_on_c, 5, 86, 100
9, 63149, Control_c, 5, 11, 26
9, 63179, Note_on_c, 5, 86, 0
9, 63180, Control_c, 5, 11, 25
9, 63180, Note_on_c, 5, 86, 100
9, 63211, Control_c, 5, 11, 24
9, 63242, Control_c, 5, 11, 23
9, 63274, Control_c, 5, 11, 22
9, 63298, Note_on_c, 5, 86, 0
9, 63300, Note_on_c, 5, 86, 100
9, 63305, Control_c, 5, 11, 21
9, 63336, Control_c, 5, 11, 20
9, 63359, Note_on_c, 5, 86, 0
9, 63360, Note_on_c, 5, 86, 100
9, 63367, Control_c, 5, 11, 19
9, 63398, Control_c, 5, 11, 18
9, 63419, Note_on_c, 5, 86, 0
9, 63420, Note_on_c, 5, 86, 100
9, 63429, Control_c, 5, 11, 17
9, 63461, Control_c, 5, 11, 16
9, 63479, Note_on_c, 5, 86, 0
9, 63480, Note_on_c, 5, 86, 100
9, 63492, Control_c, 5, 11, 15
9, 63523, Control_c, 5, 11, 14
9, 63539, Note_on_c, 5, 86, 0
9, 63540, Note_on_c, 5, 86, 100
9, 63554, Control_c, 5, 11, 13
9, 63585, Control_c, 5, 11, 12
9, 63599, Note_on_c, 5, 86, 0
9, 63600, Note_on_c, 5, 86, 100
9, 63617, Control_c, 5, 11, 11
9, 63648, Control_c, 5, 11, 10
9, 63659, Note_on_c, 5, 86, 0
9, 63660, Note_on_c, 5, 86, 100
9, 63679, Control_c, 5, 11, 9
9, 63710, Control_c, 5, 11, 8
9, 63719, Note_on_c, 5, 86, 0
9, 63720, Note_on_c, 5, 86, 100
9, 63741, Control_c, 5, 11, 7
9, 63772, Control_c, 5, 11, 6
9, 63779, Note_on_c, 5, 86, 0
9, 63780, Note_on_c, 5, 86, 100
9, 63804, Control_c, 5, 11, 5
9, 63835, Control_c, 5, 11, 4
9, 63839, Note_on_c, 5, 86, 0
9, 63866, Control_c, 5, 11, 3
9, 63876, Pitch_bend_c, 5, 8192
9, 63897, Control_c, 5, 11, 2
9, 63928, Control_c, 5, 11, 1
9, 63960, Control_c, 5, 11, 0
9, 64101, Control_c, 5, 11, 127
9, 64101, End_track
10, 0, Start_track
10, 0, MIDI_port, 0
10, 0, Program_c, 12, 30
10, 0, Control_c, 12, 7, 123
10, 0, Control_c, 12, 10, 64
10, 0, Control_c, 12, 91, 61
10, 0, Control_c, 12, 93, 26
10, 49680, Pitch_bend_c, 12, 8192
10, 50160, Note_on_c, 12, 79, 90
10, 50168, Pitch_bend_c, 12, 8192
10, 50221, Pitch_bend_c, 12, 8320
10, 50250, Pitch_bend_c, 12, 8448
10, 50254, Pitch_bend_c, 12, 8576
10, 50256, Pitch_bend_c, 12, 8704
10, 50268, Pitch_bend_c, 12, 8832
10, 50277, Pitch_bend_c, 12, 8960
10, 50287, Pitch_bend_c, 12, 9088
10, 50288, Pitch_bend_c, 12, 9216
10, 50290, Pitch_bend_c, 12, 9344
10, 50293, Pitch_bend_c, 12, 9472
10, 50302, Pitch_bend_c, 12, 9600
10, 50310, Pitch_bend_c, 12, 9728
10, 50324, Pitch_bend_c, 12, 10240
10, 50326, Pitch_bend_c, 12, 10368
10, 50329, Pitch_bend_c, 12, 10496
10, 50330, Pitch_bend_c, 12, 10624
10, 50331, Pitch_bend_c, 12, 10752
10, 50334, Pitch_bend_c, 12, 10880
10, 50335, Pitch_bend_c, 12, 11008
10, 50337, Pitch_bend_c, 12, 11264
10, 50341, Pitch_bend_c, 12, 11392
10, 50342, Pitch_bend_c, 12, 11520
10, 50346, Pitch_bend_c, 12, 11648
10, 50347, Pitch_bend_c, 12, 11776
10, 50348, Pitch_bend_c, 12, 11904
10, 50349, Pitch_bend_c, 12, 12032
10, 50353, Pitch_bend_c, 12, 12288
10, 50355, Pitch_bend_c, 12, 12544
10, 50358, Pitch_bend_c, 12, 12672
10, 50359, Pitch_bend_c, 12, 12800
10, 50360, Pitch_bend_c, 12, 12928
10, 50361, Pitch_bend_c, 12, 13056
10, 50362, Pitch_bend_c, 12, 13184
10, 50364, Pitch_bend_c, 12, 13312
10, 50366, Pitch_bend_c, 12, 13568
10, 50368, Pitch_bend_c, 12, 13696
10, 50370, Pitch_bend_c, 12, 13824
10, 50371, Pitch_bend_c, 12, 14080
10, 50373, Pitch_bend_c, 12, 14208
10, 50374, Pitch_bend_c, 12, 14336
10, 50376, Pitch_bend_c, 12, 14592
10, 50378, Pitch_bend_c, 12, 14720
10, 50379, Pitch_bend_c, 12, 14848
10, 50380, Pitch_bend_c, 12, 15104
10, 50383, Pitch_bend_c, 12, 15360
10, 50385, Pitch_bend_c, 12, 15616
10, 50388, Pitch_bend_c, 12, 15872
10, 50390, Pitch_bend_c, 12, 16000
10, 50391, Pitch_bend_c, 12, 16128
10, 50394, Pitch_bend_c, 12, 16256
10, 50395, Pitch_bend_c, 12, 16383
10, 50398, Note_on_c, 12, 79, 0
10, 50400, Note_on_c, 12, 79, 90
10, 50733, Pitch_bend_c, 12, 16128
10, 50746, Pitch_bend_c, 12, 12288
10, 50751, Pitch_bend_c, 12, 8832
10, 50752, Pitch_bend_c, 12, 8320
10, 50754, Pitch_bend_c, 12, 4480
10, 50755, Pitch_bend_c, 12, 256
10, 50758, Note_on_c, 12, 79, 0
10, 50758, Pitch_bend_c, 12, 128
10, 50763, Pitch_bend_c, 12, 8192
10, 56910, Note_on_c, 12, 77, 100
10, 56939, Note_on_c, 12, 77, 0
10, 56970, Note_on_c, 12, 77, 100
10, 56999, Note_on_c, 12, 77, 0
10, 57030, Note_on_c, 12, 77, 100
10, 57059, Note_on_c, 12, 77, 0
10, 57090, Note_on_c, 12, 77, 100
10, 57119, Note_on_c, 12, 77, 0
10, 59430, Note_on_c, 12, 77, 100
10, 59459, Note_on_c, 12, 77, 0
10, 59490, Note_on_c, 12, 77, 100
10, 59519, Note_on_c, 12, 77, 0
10, 59550, Note_on_c, 12, 77, 100
10, 59579, Note_on_c, 12, 77, 0
10, 59610, Note_on_c, 12, 77, 100
10, 59639, Note_on_c, 12, 77, 0
10, 59670, Note_on_c, 12, 77, 100
10, 59699, Note_on_c, 12, 77, 0
10, 59730, Note_on_c, 12, 77, 100
10, 59759, Note_on_c, 12, 77, 0
10, 59790, Note_on_c, 12, 77, 100
10, 59819, Note_on_c, 12, 77, 0
10, 59850, Note_on_c, 12, 77, 100
10, 59879, Note_on_c, 12, 77, 0
10, 59910, Note_on_c, 12, 77, 100
10, 59939, Note_on_c, 12, 77, 0
10, 59970, Note_on_c, 12, 77, 100
10, 59999, Note_on_c, 12, 77, 0
10, 60000, Control_c, 12, 11, 127
10, 60031, Control_c, 12, 11, 126
10, 60062, Control_c, 12, 11, 125
10, 60093, Control_c, 12, 11, 124
10, 60124, Control_c, 12, 11, 123
10, 60155, Control_c, 12, 11, 122
10, 60187, Control_c, 12, 11, 121
10, 60218, Control_c, 12, 11, 120
10, 60249, Control_c, 12, 11, 119
10, 60280, Control_c, 12, 11, 118
10, 60311, Control_c, 12, 11, 117
10, 60342, Control_c, 12, 11, 116
10, 60374, Control_c, 12, 11, 115
10, 60405, Control_c, 12, 11, 114
10, 60436, Control_c, 12, 11, 113
10, 60467, Control_c, 12, 11, 112
10, 60498, Control_c, 12, 11, 111
10, 60530, Control_c, 12, 11, 110
10, 60561, Control_c, 12, 11, 109
10, 60592, Control_c, 12, 11, 108
10, 60623, Control_c, 12, 11, 107
10, 60654, Control_c, 12, 11, 106
10, 60685, Control_c, 12, 11, 105
10, 60717, Control_c, 12, 11, 104
10, 60748, Control_c, 12, 11, 103
10, 60779, Control_c, 12, 11, 102
10, 60810, Control_c, 12, 11, 101
10, 60841, Control_c, 12, 11, 100
10, 60873, Control_c, 12, 11, 99
10, 60904, Control_c, 12, 11, 98
10, 60935, Control_c, 12, 11, 97
10, 60966, Control_c, 12, 11, 96
10, 60997, Control_c, 12, 11, 95
10, 61028, Control_c, 12, 11, 94
10, 61060, Control_c, 12, 11, 93
10, 61091, Control_c, 12, 11, 92
10, 61122, Control_c, 12, 11, 91
10, 61153, Control_c, 12, 11, 90
10, 61184, Control_c, 12, 11, 89
10, 61216, Control_c, 12, 11, 88
10, 61247, Control_c, 12, 11, 87
10, 61278, Control_c, 12, 11, 86
10, 61309, Control_c, 12, 11, 85
10, 61340, Control_c, 12, 11, 84
10, 61371, Control_c, 12, 11, 83
10, 61403, Control_c, 12, 11, 82
10, 61434, Control_c, 12, 11, 81
10, 61465, Control_c, 12, 11, 80
10, 61496, Control_c, 12, 11, 79
10, 61527, Control_c, 12, 11, 78
10, 61559, Control_c, 12, 11, 77
10, 61590, Control_c, 12, 11, 76
10, 61621, Control_c, 12, 11, 75
10, 61652, Control_c, 12, 11, 74
10, 61683, Control_c, 12, 11, 73
10, 61714, Control_c, 12, 11, 72
10, 61746, Control_c, 12, 11, 71
10, 61777, Control_c, 12, 11, 70
10, 61808, Control_c, 12, 11, 69
10, 61839, Control_c, 12, 11, 68
10, 61870, Control_c, 12, 11, 67
10, 61902, Control_c, 12, 11, 66
10, 61933, Control_c, 12, 11, 65
10, 61964, Control_c, 12, 11, 64
10, 61995, Control_c, 12, 11, 63
10, 62026, Control_c, 12, 11, 62
10, 62057, Control_c, 12, 11, 61
10, 62089, Control_c, 12, 11, 60
10, 62120, Control_c, 12, 11, 59
10, 62151, Control_c, 12, 11, 58
10, 62182, Control_c, 12, 11, 57
10, 62213, Control_c, 12, 11, 56
10, 62245, Control_c, 12, 11, 55
10, 62276, Control_c, 12, 11, 54
10, 62307, Control_c, 12, 11, 53
10, 62338, Control_c, 12, 11, 52
10, 62369, Control_c, 12, 11, 51
10, 62400, Control_c, 12, 11, 50
10, 62432, Control_c, 12, 11, 49
10, 62463, Control_c, 12, 11, 48
10, 62494, Control_c, 12, 11, 47
10, 62525, Control_c, 12, 11, 46
10, 62556, Control_c, 12, 11, 45
10, 62588, Control_c, 12, 11, 44
10, 62619, Control_c, 12, 11, 43
10, 62650, Control_c, 12, 11, 42
10, 62681, Control_c, 12, 11, 41
10, 62712, Control_c, 12, 11, 40
10, 62743, Control_c, 12, 11, 39
10, 62775, Control_c, 12, 11, 38
10, 62806, Control_c, 12, 11, 37
10, 62837, Control_c, 12, 11, 36
10, 62868, Control_c, 12, 11, 35
10, 62899, Control_c, 12, 11, 34
10, 62931, Control_c, 12, 11, 33
10, 62962, Control_c, 12, 11, 32
10, 62993, Control_c, 12, 11, 31
10, 63024, Control_c, 12, 11, 30
10, 63055, Control_c, 12, 11, 29
10, 63086, Control_c, 12, 11, 28
10, 63118, Control_c, 12, 11, 27
10, 63149, Control_c, 12, 11, 26
10, 63180, Control_c, 12, 11, 25
10, 63211, Control_c, 12, 11, 24
10, 63242, Control_c, 12, 11, 23
10, 63274, Control_c, 12, 11, 22
10, 63305, Control_c, 12, 11, 21
10, 63336, Control_c, 12, 11, 20
10, 63367, Control_c, 12, 11, 19
10, 63398, Control_c, 12, 11, 18
10, 63429, Control_c, 12, 11, 17
10, 63461, Control_c, 12, 11, 16
10, 63492, Control_c, 12, 11, 15
10, 63523, Control_c, 12, 11, 14
10, 63554, Control_c, 12, 11, 13
10, 63585, Control_c, 12, 11, 12
10, 63617, Control_c, 12, 11, 11
10, 63648, Control_c, 12, 11, 10
10, 63679, Control_c, 12, 11, 9
10, 63710, Control_c, 12, 11, 8
10, 63741, Control_c, 12, 11, 7
10, 63772, Control_c, 12, 11, 6
10, 63804, Control_c, 12, 11, 5
10, 63835, Control_c, 12, 11, 4
10, 63866, Control_c, 12, 11, 3
10, 63897, Control_c, 12, 11, 2
10, 63928, Control_c, 12, 11, 1
10, 63960, Control_c, 12, 11, 0
10, 64101, Control_c, 12, 11, 127
10, 64101, End_track
11, 0, Start_track
11, 0, MIDI_port, 0
11, 0, Program_c, 6, 62
11, 0, Control_c, 6, 7, 100
11, 0, Control_c, 6, 10, 64
11, 0, Control_c, 6, 93, 40
11, 1, Control_c, 6, 91, 50
11, 2, Control_c, 6, 11, 127
11, 3, Control_c, 6, 1, 0
11, 4, Control_c, 6, 5, 40
11, 5, Control_c, 6, 65, 80
11, 840, Note_on_c, 6, 62, 1
11, 959, Note_on_c, 6, 62, 0
11, 960, Note_on_c, 6, 50, 100
11, 960, Note_on_c, 6, 38, 100
11, 960, Note_on_c, 6, 26, 100
11, 2879, Note_on_c, 6, 26, 0
11, 2879, Note_on_c, 6, 38, 0
11, 2879, Note_on_c, 6, 50, 0
11, 2879, End_track
12, 0, Start_track
12, 0, MIDI_port, 0
12, 0, Control_c, 7, 0, 8
12, 0, Control_c, 7, 32, 0
12, 0, Program_c, 7, 31
12, 0, Control_c, 7, 7, 100
12, 0, Control_c, 7, 10, 64
12, 0, Control_c, 7, 91, 35
12, 2160, Note_on_c, 7, 81, 100
12, 2879, Note_on_c, 7, 81, 0
12, 2879, End_track
13, 0, Start_track
13, 0, MIDI_port, 0
13, 0, Program_c, 10, 48
13, 0, Control_c, 10, 7, 110
13, 0, Control_c, 10, 10, 44
13, 0, Control_c, 10, 91, 77
13, 0, Control_c, 10, 93, 20
13, 15897, Note_on_c, 10, 72, 99
13, 15926, Note_on_c, 10, 72, 0
13, 15963, Note_on_c, 10, 72, 98
13, 15986, Note_on_c, 10, 72, 0
13, 16020, Note_on_c, 10, 72, 99
13, 16046, Note_on_c, 10, 72, 0
13, 16080, Note_on_c, 10, 72, 99
13, 16106, Note_on_c, 10, 72, 0
13, 16139, Note_on_c, 10, 72, 98
13, 16166, Note_on_c, 10, 72, 0
13, 16198, Note_on_c, 10, 72, 102
13, 16226, Note_on_c, 10, 72, 0
13, 16257, Note_on_c, 10, 72, 100
13, 16286, Note_on_c, 10, 72, 0
13, 16318, Note_on_c, 10, 72, 99
13, 16346, Note_on_c, 10, 72, 0
13, 16377, Note_on_c, 10, 72, 102
13, 16406, Note_on_c, 10, 72, 0
13, 16440, Note_on_c, 10, 72, 101
13, 16466, Note_on_c, 10, 72, 0
13, 16497, Note_on_c, 10, 71, 103
13, 16526, Note_on_c, 10, 71, 0
13, 16559, Note_on_c, 10, 71, 100
13, 16586, Note_on_c, 10, 71, 0
13, 16623, Note_on_c, 10, 71, 102
13, 16646, Note_on_c, 10, 71, 0
13, 16683, Note_on_c, 10, 71, 99
13, 16706, Note_on_c, 10, 71, 0
13, 16740, Note_on_c, 10, 71, 99
13, 16766, Note_on_c, 10, 71, 0
13, 16802, Note_on_c, 10, 81, 101
13, 16826, Note_on_c, 10, 81, 0
13, 16858, Note_on_c, 10, 81, 99
13, 16886, Note_on_c, 10, 81, 0
13, 16920, Note_on_c, 10, 81, 102
13, 16946, Note_on_c, 10, 81, 0
13, 16980, Note_on_c, 10, 81, 98
13, 17006, Note_on_c, 10, 81, 0
13, 17039, Note_on_c, 10, 81, 100
13, 17066, Note_on_c, 10, 81, 0
13, 17100, Note_on_c, 10, 81, 102
13, 17126, Note_on_c, 10, 81, 0
13, 17162, Note_on_c, 10, 81, 102
13, 17186, Note_on_c, 10, 81, 0
13, 17219, Note_on_c, 10, 81, 99
13, 17246, Note_on_c, 10, 81, 0
13, 17282, Note_on_c, 10, 77, 99
13, 17306, Note_on_c, 10, 77, 0
13, 17341, Note_on_c, 10, 77, 98
13, 17366, Note_on_c, 10, 77, 0
13, 17398, Note_on_c, 10, 77, 98
13, 17426, Note_on_c, 10, 77, 0
13, 17459, Note_on_c, 10, 76, 101
13, 17486, Note_on_c, 10, 76, 0
13, 17517, Note_on_c, 10, 76, 103
13, 17546, Note_on_c, 10, 76, 0
13, 17578, Note_on_c, 10, 76, 101
13, 17606, Note_on_c, 10, 76, 0
13, 17643, Note_on_c, 10, 76, 102
13, 17666, Note_on_c, 10, 76, 0
13, 17703, Note_on_c, 10, 76, 103
13, 17726, Note_on_c, 10, 76, 0
13, 28860, Note_on_c, 10, 72, 100
13, 28886, Note_on_c, 10, 72, 0
13, 28923, Note_on_c, 10, 72, 99
13, 28946, Note_on_c, 10, 72, 0
13, 28982, Note_on_c, 10, 72, 99
13, 29006, Note_on_c, 10, 72, 0
13, 29041, Note_on_c, 10, 72, 99
13, 29066, Note_on_c, 10, 72, 0
13, 29102, Note_on_c, 10, 72, 99
13, 29126, Note_on_c, 10, 72, 0
13, 29159, Note_on_c, 10, 72, 99
13, 29186, Note_on_c, 10, 72, 0
13, 29217, Note_on_c, 10, 72, 100
13, 29246, Note_on_c, 10, 72, 0
13, 29277, Note_on_c, 10, 72, 98
13, 29306, Note_on_c, 10, 72, 0
13, 29339, Note_on_c, 10, 72, 102
13, 29366, Note_on_c, 10, 72, 0
13, 29401, Note_on_c, 10, 72, 101
13, 29426, Note_on_c, 10, 72, 0
13, 29460, Note_on_c, 10, 71, 102
13, 29486, Note_on_c, 10, 71, 0
13, 29519, Note_on_c, 10, 71, 102
13, 29546, Note_on_c, 10, 71, 0
13, 29583, Note_on_c, 10, 71, 100
13, 29606, Note_on_c, 10, 71, 0
13, 29643, Note_on_c, 10, 71, 103
13, 29666, Note_on_c, 10, 71, 0
13, 29702, Note_on_c, 10, 71, 98
13, 29726, Note_on_c, 10, 71, 0
13, 29761, Note_on_c, 10, 77, 100
13, 29786, Note_on_c, 10, 77, 0
13, 29819, Note_on_c, 10, 77, 102
13, 29846, Note_on_c, 10, 77, 0
13, 29881, Note_on_c, 10, 77, 101
13, 29906, Note_on_c, 10, 77, 0
13, 29940, Note_on_c, 10, 77, 100
13, 29966, Note_on_c, 10, 77, 0
13, 29998, Note_on_c, 10, 77, 103
13, 30026, Note_on_c, 10, 77, 0
13, 30057, Note_on_c, 10, 77, 99
13, 30086, Note_on_c, 10, 77, 0
13, 30117, Note_on_c, 10, 77, 98
13, 30146, Note_on_c, 10, 77, 0
13, 30180, Note_on_c, 10, 77, 100
13, 30206, Note_on_c, 10, 77, 0
13, 30242, Note_on_c, 10, 77, 102
13, 30266, Note_on_c, 10, 77, 0
13, 30302, Note_on_c, 10, 77, 101
13, 30326, Note_on_c, 10, 77, 0
13, 30360, Note_on_c, 10, 77, 101
13, 30386, Note_on_c, 10, 77, 0
13, 30423, Note_on_c, 10, 76, 98
13, 30446, Note_on_c, 10, 76, 0
13, 30477, Note_on_c, 10, 76, 102
13, 30506, Note_on_c, 10, 76, 0
13, 30538, Note_on_c, 10, 76, 100
13, 30566, Note_on_c, 10, 76, 0
13, 30602, Note_on_c, 10, 76, 103
13, 30626, Note_on_c, 10, 76, 0
13, 30660, Note_on_c, 10, 76, 103
13, 30686, Note_on_c, 10, 76, 0
13, 43738, Note_on_c, 10, 72, 102
13, 43766, Note_on_c, 10, 72, 0
13, 43797, Note_on_c, 10, 72, 100
13, 43826, Note_on_c, 10, 72, 0
13, 43859, Note_on_c, 10, 72, 98
13, 43886, Note_on_c, 10, 72, 0
13, 43921, Note_on_c, 10, 72, 101
13, 43946, Note_on_c, 10, 72, 0
13, 43979, Note_on_c, 10, 72, 102
13, 44006, Note_on_c, 10, 72, 0
13, 44041, Note_on_c, 10, 72, 101
13, 44066, Note_on_c, 10, 72, 0
13, 44100, Note_on_c, 10, 72, 102
13, 44126, Note_on_c, 10, 72, 0
13, 44158, Note_on_c, 10, 72, 102
13, 44186, Note_on_c, 10, 72, 0
13, 44223, Note_on_c, 10, 72, 102
13, 44246, Note_on_c, 10, 72, 0
13, 44280, Note_on_c, 10, 72, 103
13, 44306, Note_on_c, 10, 72, 0
13, 44339, Note_on_c, 10, 71, 98
13, 44366, Note_on_c, 10, 71, 0
13, 44399, Note_on_c, 10, 71, 103
13, 44426, Note_on_c, 10, 71, 0
13, 44457, Note_on_c, 10, 71, 99
13, 44486, Note_on_c, 10, 71, 0
13, 44519, Note_on_c, 10, 71, 101
13, 44546, Note_on_c, 10, 71, 0
13, 44577, Note_on_c, 10, 71, 99
13, 44606, Note_on_c, 10, 71, 0
13, 44639, Note_on_c, 10, 81, 103
13, 44666, Note_on_c, 10, 81, 0
13, 44699, Note_on_c, 10, 81, 103
13, 44726, Note_on_c, 10, 81, 0
13, 44762, Note_on_c, 10, 81, 103
13, 44786, Note_on_c, 10, 81, 0
13, 44823, Note_on_c, 10, 81, 103
13, 44846, Note_on_c, 10, 81, 0
13, 44880, Note_on_c, 10, 81, 101
13, 44906, Note_on_c, 10, 81, 0
13, 44939, Note_on_c, 10, 81, 100
13, 44966, Note_on_c, 10, 81, 0
13, 45000, Note_on_c, 10, 81, 103
13, 45026, Note_on_c, 10, 81, 0
13, 45063, Note_on_c, 10, 81, 99
13, 45086, Note_on_c, 10, 81, 0
13, 45121, Note_on_c, 10, 77, 101
13, 45146, Note_on_c, 10, 77, 0
13, 45178, Note_on_c, 10, 77, 102
13, 45206, Note_on_c, 10, 77, 0
13, 45243, Note_on_c, 10, 77, 101
13, 45266, Note_on_c, 10, 77, 0
13, 45301, Note_on_c, 10, 76, 98
13, 45326, Note_on_c, 10, 76, 0
13, 45361, Note_on_c, 10, 76, 100
13, 45386, Note_on_c, 10, 76, 0
13, 45423, Note_on_c, 10, 76, 103
13, 45446, Note_on_c, 10, 76, 0
13, 45480, Note_on_c, 10, 76, 103
13, 45506, Note_on_c, 10, 76, 0
13, 45538, Note_on_c, 10, 76, 101
13, 45566, Note_on_c, 10, 76, 0
13, 45566, End_track
14, 0, Start_track
14, 0, MIDI_port, 0
14, 0, Program_c, 11, 48
14, 0, Control_c, 11, 7, 110
14, 0, Control_c, 11, 10, 84
14, 0, Control_c, 11, 91, 74
14, 0, Control_c, 11, 93, 20
14, 15901, Note_on_c, 11, 69, 102
14, 15926, Note_on_c, 11, 69, 0
14, 15958, Note_on_c, 11, 69, 102
14, 15986, Note_on_c, 11, 69, 0
14, 16021, Note_on_c, 11, 69, 101
14, 16046, Note_on_c, 11, 69, 0
14, 16078, Note_on_c, 11, 69, 99
14, 16106, Note_on_c, 11, 69, 0
14, 16140, Note_on_c, 11, 69, 99
14, 16166, Note_on_c, 11, 69, 0
14, 16198, Note_on_c, 11, 69, 99
14, 16226, Note_on_c, 11, 69, 0
14, 16261, Note_on_c, 11, 69, 102
14, 16286, Note_on_c, 11, 69, 0
14, 16321, Note_on_c, 11, 67, 102
14, 16346, Note_on_c, 11, 67, 0
14, 16377, Note_on_c, 11, 67, 101
14, 16406, Note_on_c, 11, 67, 0
14, 16440, Note_on_c, 11, 67, 98
14, 16466, Note_on_c, 11, 67, 0
14, 16497, Note_on_c, 11, 67, 102
14, 16526, Note_on_c, 11, 67, 0
14, 16557, Note_on_c, 11, 67, 98
14, 16586, Note_on_c, 11, 67, 0
14, 16621, Note_on_c, 11, 67, 101
14, 16646, Note_on_c, 11, 67, 0
14, 16681, Note_on_c, 11, 67, 98
14, 16706, Note_on_c, 11, 67, 0
14, 16742, Note_on_c, 11, 67, 99
14, 16766, Note_on_c, 11, 67, 0
14, 16800, Note_on_c, 11, 77, 100
14, 16826, Note_on_c, 11, 77, 0
14, 16857, Note_on_c, 11, 77, 102
14, 16886, Note_on_c, 11, 77, 0
14, 16921, Note_on_c, 11, 77, 98
14, 16946, Note_on_c, 11, 77, 0
14, 16977, Note_on_c, 11, 77, 102
14, 17006, Note_on_c, 11, 77, 0
14, 17043, Note_on_c, 11, 77, 101
14, 17066, Note_on_c, 11, 77, 0
14, 17101, Note_on_c, 11, 77, 99
14, 17126, Note_on_c, 11, 77, 0
14, 17161, Note_on_c, 11, 77, 101
14, 17186, Note_on_c, 11, 77, 0
14, 17218, Note_on_c, 11, 77, 100
14, 17246, Note_on_c, 11, 77, 0
14, 17283, Note_on_c, 11, 72, 100
14, 17306, Note_on_c, 11, 72, 0
14, 17338, Note_on_c, 11, 72, 102
14, 17366, Note_on_c, 11, 72, 0
14, 17403, Note_on_c, 11, 72, 101
14, 17426, Note_on_c, 11, 72, 0
14, 17462, Note_on_c, 11, 72, 102
14, 17486, Note_on_c, 11, 72, 0
14, 17522, Note_on_c, 11, 72, 102
14, 17546, Note_on_c, 11, 72, 0
14, 17577, Note_on_c, 11, 72, 101
14, 17606, Note_on_c, 11, 72, 0
14, 17641, Note_on_c, 11, 72, 102
14, 17666, Note_on_c, 11, 72, 0
14, 17701, Note_on_c, 11, 72, 102
14, 17726, Note_on_c, 11, 72, 0
14, 28858, Note_on_c, 11, 69, 101
14, 28886, Note_on_c, 11, 69, 0
14, 28919, Note_on_c, 11, 69, 99
14, 28946, Note_on_c, 11, 69, 0
14, 28977, Note_on_c, 11, 69, 98
14, 29006, Note_on_c, 11, 69, 0
14, 29039, Note_on_c, 11, 69, 102
14, 29066, Note_on_c, 11, 69, 0
14, 29100, Note_on_c, 11, 69, 103
14, 29126, Note_on_c, 11, 69, 0
14, 29161, Note_on_c, 11, 69, 103
14, 29186, Note_on_c, 11, 69, 0
14, 29219, Note_on_c, 11, 69, 98
14, 29246, Note_on_c, 11, 69, 0
14, 29281, Note_on_c, 11, 67, 98
14, 29306, Note_on_c, 11, 67, 0
14, 29338, Note_on_c, 11, 67, 102
14, 29366, Note_on_c, 11, 67, 0
14, 29398, Note_on_c, 11, 67, 98
14, 29426, Note_on_c, 11, 67, 0
14, 29461, Note_on_c, 11, 67, 103
14, 29486, Note_on_c, 11, 67, 0
14, 29520, Note_on_c, 11, 67, 102
14, 29546, Note_on_c, 11, 67, 0
14, 29577, Note_on_c, 11, 67, 99
14, 29606, Note_on_c, 11, 67, 0
14, 29638, Note_on_c, 11, 67, 99
14, 29666, Note_on_c, 11, 67, 0
14, 29699, Note_on_c, 11, 67, 103
14, 29726, Note_on_c, 11, 67, 0
14, 29761, Note_on_c, 11, 74, 99
14, 29786, Note_on_c, 11, 74, 0
14, 29820, Note_on_c, 11, 74, 99
14, 29846, Note_on_c, 11, 74, 0
14, 29883, Note_on_c, 11, 74, 103
14, 29906, Note_on_c, 11, 74, 0
14, 29942, Note_on_c, 11, 74, 100
14, 29966, Note_on_c, 11, 74, 0
14, 29998, Note_on_c, 11, 74, 100
14, 30026, Note_on_c, 11, 74, 0
14, 30057, Note_on_c, 11, 74, 103
14, 30086, Note_on_c, 11, 74, 0
14, 30117, Note_on_c, 11, 74, 98
14, 30146, Note_on_c, 11, 74, 0
14, 30182, Note_on_c, 11, 74, 99
14, 30206, Note_on_c, 11, 74, 0
14, 30239, Note_on_c, 11, 72, 102
14, 30266, Note_on_c, 11, 72, 0
14, 30297, Note_on_c, 11, 72, 98
14, 30326, Note_on_c, 11, 72, 0
14, 30362, Note_on_c, 11, 72, 103
14, 30386, Note_on_c, 11, 72, 0
14, 30421, Note_on_c, 11, 72, 101
14, 30446, Note_on_c, 11, 72, 0
14, 30480, Note_on_c, 11, 72, 102
14, 30506, Note_on_c, 11, 72, 0
14, 30539, Note_on_c, 11, 72, 99
14, 30566, Note_on_c, 11, 72, 0
14, 30598, Note_on_c, 11, 72, 100
14, 30626, Note_on_c, 11, 72, 0
14, 30661, Note_on_c, 11, 72, 102
14, 30686, Note_on_c, 11, 72, 0
14, 43741, Note_on_c, 11, 69, 99
14, 43766, Note_on_c, 11, 69, 0
14, 43798, Note_on_c, 11, 69, 100
14, 43826, Note_on_c, 11, 69, 0
14, 43863, Note_on_c, 11, 69, 99
14, 43886, Note_on_c, 11, 69, 0
14, 43923, Note_on_c, 11, 69, 102
14, 43946, Note_on_c, 11, 69, 0
14, 43983, Note_on_c, 11, 69, 101
14, 44006, Note_on_c, 11, 69, 0
14, 44042, Note_on_c, 11, 69, 99
14, 44066, Note_on_c, 11, 69, 0
14, 44098, Note_on_c, 11, 69, 102
14, 44126, Note_on_c, 11, 69, 0
14, 44160, Note_on_c, 11, 67, 102
14, 44186, Note_on_c, 11, 67, 0
14, 44222, Note_on_c, 11, 67, 103
14, 44246, Note_on_c, 11, 67, 0
14, 44280, Note_on_c, 11, 67, 98
14, 44306, Note_on_c, 11, 67, 0
14, 44338, Note_on_c, 11, 67, 102
14, 44366, Note_on_c, 11, 67, 0
14, 44400, Note_on_c, 11, 67, 100
14, 44426, Note_on_c, 11, 67, 0
14, 44457, Note_on_c, 11, 67, 99
14, 44486, Note_on_c, 11, 67, 0
14, 44520, Note_on_c, 11, 67, 101
14, 44546, Note_on_c, 11, 67, 0
14, 44577, Note_on_c, 11, 67, 102
14, 44606, Note_on_c, 11, 67, 0
14, 44640, Note_on_c, 11, 77, 102
14, 44666, Note_on_c, 11, 77, 0
14, 44700, Note_on_c, 11, 77, 101
14, 44726, Note_on_c, 11, 77, 0
14, 44762, Note_on_c, 11, 77, 100
14, 44786, Note_on_c, 11, 77, 0
14, 44822, Note_on_c, 11, 77, 100
14, 44846, Note_on_c, 11, 77, 0
14, 44881, Note_on_c, 11, 77, 103
14, 44906, Note_on_c, 11, 77, 0
14, 44938, Note_on_c, 11, 77, 99
14, 44966, Note_on_c, 11, 77, 0
14, 45003, Note_on_c, 11, 77, 100
14, 45026, Note_on_c, 11, 77, 0
14, 45059, Note_on_c, 11, 77, 100
14, 45086, Note_on_c, 11, 77, 0
14, 45120, Note_on_c, 11, 72, 99
14, 45146, Note_on_c, 11, 72, 0
14, 45180, Note_on_c, 11, 72, 102
14, 45206, Note_on_c, 11, 72, 0
14, 45237, Note_on_c, 11, 72, 103
14, 45266, Note_on_c, 11, 72, 0
14, 45301, Note_on_c, 11, 72, 98
14, 45326, Note_on_c, 11, 72, 0
14, 45362, Note_on_c, 11, 72, 102
14, 45386, Note_on_c, 11, 72, 0
14, 45421, Note_on_c, 11, 72, 102
14, 45446, Note_on_c, 11, 72, 0
14, 45482, Note_on_c, 11, 72, 100
14, 45506, Note_on_c, 11, 72, 0
14, 45538, Note_on_c, 11, 72, 100
14, 45566, Note_on_c, 11, 72, 0
14, 45566, End_track
0, 0, End_of_file
