0,0, Header,1,17,192,
1,0, Start_track,,,,
1,0, Tempo,697675,,,
1,0, Time_signature,4,2,24,8
1,0, Key_signature,0,major,,
1,56052, Tempo,697675,,,
1,56084, Tempo,695934,,,
1,56100, Tempo,694203,,,
1,56148, Tempo,692480,,,
1,56244, Tempo,691623,,,
1,56292, Tempo,690767,,,
1,56340, Tempo,689655,,,
1,56356, Tempo,688805,,,
1,56372, Tempo,687957,,,
1,56436, Tempo,686266,,,
1,56468, Tempo,685424,,,
1,56500, Tempo,684585,,,
1,56532, Tempo,683747,,,
1,56564, Tempo,682911,,,
1,56596, Tempo,682076,,,
1,56692, Tempo,681818,,,
1,61434, Tempo,682911,,,
1,61450, Tempo,685424,,,
1,61466, Tempo,687957,,,
1,62960, Tempo,688805,,,
1,62976, Tempo,686266,,,
1,62992, Tempo,683747,,,
1,63008, Tempo,682076,,,
1,63024, Tempo,680988,,,
1,63040, Tempo,677686,,,
1,68800, Tempo,676866,,,
1,68816, Tempo,677686,,,
1,68832, Tempo,678509,,,
1,68848, Tempo,679333,,,
1,68864, Tempo,680160,,,
1,75994, Tempo,680160,,,
1,76026, Tempo,679333,,,
1,76106, Tempo,677686,,,
1,76170, Tempo,676866,,,
1,76202, Tempo,676047,,,
1,76234, Tempo,674416,,,
1,83124, Tempo,674416,,,
1,83188, Tempo,677686,,,
1,83252, Tempo,680988,,,
1,83412, Tempo,683747,,,
1,83444, Tempo,684585,,,
1,83476, Tempo,685424,,,
1,83508, Tempo,687110,,,
1,83524, Tempo,688805,,,
1,83556, Tempo,689913,,,
1,83588, Tempo,691623,,,
1,83620, Tempo,692480,,,
1,83636, Tempo,694203,,,
1,83652, Tempo,695934,,,
1,83684, Tempo,697931,,,
1,83716, Tempo,701442,,,
1,83748, Tempo,703212,,,
1,83764, Tempo,704990,,,
1,83780, Tempo,706138,,,
1,83812, Tempo,707932,,,
1,84480, Time_signature,7,3,12,8
1,85152, Time_signature,4,2,24,8
1,85920, Time_signature,9,3,12,8
1,86708, Tempo,707034,,,
1,86724, Tempo,705882,,,
1,86756, Tempo,704100,,,
1,86784, Time_signature,4,2,24,8
1,86804, Tempo,702326,,,
1,86836, Tempo,700561,,,
1,86852, Tempo,698806,,,
1,86884, Tempo,697675,,,
1,86916, Tempo,696803,,,
1,86932, Tempo,695934,,,
1,87552, Time_signature,7,3,12,8
1,88212, Tempo,696803,,,
1,88224, Time_signature,4,2,24,8
1,88228, Tempo,697675,,,
1,88276, Tempo,698806,,,
1,88308, Tempo,699683,,,
1,88340, Tempo,701442,,,
1,88372, Tempo,703212,,,
1,88404, Tempo,704990,,,
1,88452, Tempo,706138,,,
1,88484, Tempo,707034,,,
1,88500, Tempo,707932,,,
1,88548, Tempo,709736,,,
1,88660, Tempo,711549,,,
1,88820, Tempo,705882,,,
1,88980, Tempo,714540,,,
1,89012, Tempo,714285,,,
1,89572, Tempo,714540,,,
1,89604, Tempo,713371,,,
1,89796, Tempo,710642,,,
1,89956, Tempo,707932,,,
1,90020, Tempo,706138,,,
1,90052, Tempo,704990,,,
1,90084, Tempo,704100,,,
1,90116, Tempo,703212,,,
1,90132, Tempo,701442,,,
1,90148, Tempo,699683,,,
1,90164, Tempo,697931,,,
1,90180, Tempo,696803,,,
1,90196, Tempo,693341,,,
1,90212, Tempo,689655,,,
1,90228, Tempo,687110,,,
1,90244, Tempo,682911,,,
1,90276, Tempo,680988,,,
1,90292, Tempo,678509,,,
1,90324, Tempo,676047,,,
1,90340, Tempo,673346,,,
1,90356, Tempo,672536,,,
1,90526, Tempo,672536,,,
1,90542, Tempo,671730,,,
1,90622, Tempo,670120,,,
1,90654, Tempo,669319,,,
1,90686, Tempo,666926,,,
1,90718, Tempo,665874,,,
1,90750, Tempo,664294,,,
1,90782, Tempo,661157,,,
1,90814, Tempo,659599,,,
1,90830, Tempo,658566,,,
1,90846, Tempo,657793,,,
1,90878, Tempo,657022,,,
1,90910, Tempo,653955,,,
1,90958, Tempo,652432,,,
1,90974, Tempo,651417,,,
1,91054, Tempo,649907,,,
1,91070, Tempo,649155,,,
1,104836, Tempo,648404,,,
1,104852, Tempo,647655,,,
1,104884, Tempo,646908,,,
1,104932, Tempo,645419,,,
1,104980, Tempo,644421,,,
1,105028, Tempo,642945,,,
1,105060, Tempo,641475,,,
1,105092, Tempo,640012,,,
1,105108, Tempo,639283,,,
1,105124, Tempo,638555,,,
1,120456, Tempo,637574,,,
1,120472, Tempo,638555,,,
1,120504, Tempo,639283,,,
1,120536, Tempo,640012,,,
1,120568, Tempo,641475,,,
1,120616, Tempo,642208,,,
1,120664, Tempo,642945,,,
1,120792, Tempo,644421,,,
1,120952, Tempo,645162,,,
1,121000, Tempo,645419,,,
1,121512, Tempo,645419,,,
1,121528, Tempo,646163,,,
1,121928, Tempo,647655,,,
1,122280, Tempo,649155,,,
1,122552, Tempo,649155,,,
1,122616, Tempo,649907,,,
1,122872, Tempo,652174,,,
1,123288, Tempo,653955,,,
1,123640, Tempo,655485,,,
1,123720, Tempo,656253,,,
1,123736, Tempo,657793,,,
1,123768, Tempo,659599,,,
1,123800, Tempo,661157,,,
1,124328, Tempo,660378,,,
1,124376, Tempo,661938,,,
1,124440, Tempo,664294,,,
1,124504, Tempo,665874,,,
1,124568, Tempo,666666,,,
1,124600, Tempo,666926,,,
1,124664, Tempo,667722,,,
1,124824, Tempo,668519,,,
1,124872, Tempo,670120,,,
1,124904, Tempo,671730,,,
1,124936, Tempo,673346,,,
1,124984, Tempo,674416,,,
1,125032, Tempo,676047,,,
1,125112, Tempo,677686,,,
1,125192, Tempo,679333,,,
1,126286, Tempo,678509,,,
1,126302, Tempo,679333,,,
1,126318, Tempo,680160,,,
1,126382, Tempo,681818,,,
1,126430, Tempo,682911,,,
1,126462, Tempo,683747,,,
1,126478, Tempo,685424,,,
1,126526, Tempo,687110,,,
1,126542, Tempo,687957,,,
1,126558, Tempo,688805,,,
1,126590, Tempo,689913,,,
1,126654, Tempo,691623,,,
1,126718, Tempo,693341,,,
1,126766, Tempo,695068,,,
1,126782, Tempo,696803,,,
1,126798, Tempo,697931,,,
1,126830, Tempo,699683,,,
1,126862, Tempo,700561,,,
1,126878, Tempo,701442,,,
1,126910, Tempo,703212,,,
1,126942, Tempo,704990,,,
1,126958, Tempo,705882,,,
1,126990, Tempo,707932,,,
1,127038, Tempo,710642,,,
1,127054, Tempo,711549,,,
1,127054, End_track,,,,
2,0, Start_track,,,,
2,0, Instrument_t,melody (harmonica)  ,,,
2,0, Channel_prefix,0,,,
2,0, Control_c,0,7,80,
2,0, Control_c,0,10,56,
2,0, Program_c,0,22,,
2,0, Control_c,0,0,0,
2,12, Program_c,0,22,,
2,48, Control_c,0,1,0,
2,12096, Note_on_c,0,69,72,
2,12180, Note_off_c,0,69,0,
2,12192, Note_on_c,0,71,72,
2,12276, Note_off_c,0,71,0,
2,12288, Note_on_c,0,72,72,
2,12468, Note_off_c,0,72,0,
2,12480, Note_on_c,0,71,72,
2,12516, Note_off_c,0,71,0,
2,12528, Note_on_c,0,69,72,
2,12612, Note_off_c,0,69,0,
2,12624, Note_on_c,0,71,72,
2,12756, Note_off_c,0,71,0,
2,12960, Note_on_c,0,69,72,
2,12996, Note_off_c,0,69,0,
2,13008, Note_on_c,0,71,72,
2,13044, Note_off_c,0,71,0,
2,13056, Note_on_c,0,72,72,
2,13092, Note_off_c,0,72,0,
2,13104, Note_on_c,0,74,72,
2,13332, Note_off_c,0,74,0,
2,13344, Note_on_c,0,72,72,
2,13428, Note_off_c,0,72,0,
2,13440, Note_on_c,0,71,72,
2,13488, Note_off_c,0,71,0,
2,13488, Note_on_c,0,69,72,
2,13620, Note_off_c,0,69,0,
2,13632, Note_on_c,0,72,72,
2,13716, Note_off_c,0,72,0,
2,13728, Note_on_c,0,74,72,
2,13812, Note_off_c,0,74,0,
2,13824, Note_on_c,0,76,72,
2,13956, Note_off_c,0,76,0,
2,13968, Note_on_c,0,74,72,
2,14100, Note_off_c,0,74,0,
2,14112, Note_on_c,0,72,72,
2,14196, Note_off_c,0,72,0,
2,14208, Note_on_c,0,71,72,
2,14292, Note_off_c,0,71,0,
2,14304, Note_on_c,0,69,72,
2,14484, Note_off_c,0,69,0,
2,14544, Note_on_c,0,67,72,
2,14580, Note_off_c,0,67,0,
2,14592, Note_on_c,0,67,72,
2,14676, Note_off_c,0,67,0,
2,14688, Note_on_c,0,69,72,
2,14964, Note_off_c,0,69,0,
2,15168, Note_on_c,0,69,72,
2,15252, Note_off_c,0,69,0,
2,15264, Note_on_c,0,71,72,
2,15348, Note_off_c,0,71,0,
2,15360, Note_on_c,0,72,72,
2,15540, Note_off_c,0,72,0,
2,15552, Note_on_c,0,71,72,
2,15636, Note_off_c,0,71,0,
2,15648, Note_on_c,0,69,72,
2,15684, Note_off_c,0,69,0,
2,15696, Note_on_c,0,71,72,
2,15828, Note_off_c,0,71,0,
2,16032, Note_on_c,0,69,72,
2,16068, Note_off_c,0,69,0,
2,16080, Note_on_c,0,71,72,
2,16116, Note_off_c,0,71,0,
2,16128, Note_on_c,0,72,72,
2,16260, Note_off_c,0,72,0,
2,16272, Note_on_c,0,74,72,
2,16404, Note_off_c,0,74,0,
2,16416, Note_on_c,0,72,72,
2,16500, Note_off_c,0,72,0,
2,16512, Note_on_c,0,71,72,
2,16560, Note_off_c,0,71,0,
2,16560, Note_on_c,0,69,72,
2,16692, Note_off_c,0,69,0,
2,16752, Note_on_c,0,72,72,
2,16788, Note_off_c,0,72,0,
2,16800, Note_on_c,0,74,72,
2,16836, Note_off_c,0,74,0,
2,16848, Note_on_c,0,76,72,
2,17028, Note_off_c,0,76,0,
2,17040, Note_on_c,0,74,72,
2,17172, Note_off_c,0,74,0,
2,17184, Note_on_c,0,72,72,
2,17268, Note_off_c,0,72,0,
2,17280, Note_on_c,0,71,72,
2,17460, Note_off_c,0,71,0,
2,17472, Note_on_c,0,69,72,
2,17556, Note_off_c,0,69,0,
2,17568, Note_on_c,0,67,72,
2,17652, Note_off_c,0,67,0,
2,17664, Note_on_c,0,67,72,
2,17760, Note_off_c,0,67,0,
2,17760, Note_on_c,0,69,72,
2,17844, Note_off_c,0,69,0,
2,17856, Note_on_c,0,69,72,
2,18036, Note_off_c,0,69,0,
2,18624, Note_on_c,0,72,72,
2,18708, Note_off_c,0,72,0,
2,18708, Note_on_c,0,76,72,
2,18816, Note_off_c,0,76,0,
2,18816, Note_on_c,0,74,72,
2,19188, Note_off_c,0,74,0,
2,19200, Note_on_c,0,74,72,
2,19440, Note_off_c,0,74,0,
2,19440, Note_on_c,0,72,72,
2,19488, Note_off_c,0,72,0,
2,19488, Note_on_c,0,71,72,
2,19584, Note_off_c,0,71,0,
2,19584, Note_on_c,0,72,72,
2,19680, Note_off_c,0,72,0,
2,19680, Note_on_c,0,69,72,
2,19764, Note_off_c,0,69,0,
2,19776, Note_on_c,0,69,72,
2,19860, Note_off_c,0,69,0,
2,19872, Note_on_c,0,71,72,
2,19956, Note_off_c,0,71,0,
2,19968, Note_on_c,0,72,72,
2,20064, Note_off_c,0,72,0,
2,20064, Note_on_c,0,74,72,
2,20148, Note_off_c,0,74,0,
2,20160, Note_on_c,0,76,72,
2,20244, Note_off_c,0,76,0,
2,20256, Note_on_c,0,74,72,
2,20340, Note_off_c,0,74,0,
2,20352, Note_on_c,0,74,72,
2,20400, Note_off_c,0,74,0,
2,20400, Note_on_c,0,72,72,
2,20532, Note_off_c,0,72,0,
2,20544, Note_on_c,0,71,72,
2,20676, Note_off_c,0,71,0,
2,20688, Note_on_c,0,67,72,
2,20724, Note_off_c,0,67,0,
2,20736, Note_on_c,0,67,72,
2,20820, Note_off_c,0,67,0,
2,20832, Note_on_c,0,69,72,
2,21108, Note_off_c,0,69,0,
2,21312, Note_on_c,0,69,72,
2,21396, Note_off_c,0,69,0,
2,21408, Note_on_c,0,71,72,
2,21492, Note_off_c,0,71,0,
2,21504, Note_on_c,0,72,72,
2,21684, Note_off_c,0,72,0,
2,21696, Note_on_c,0,71,72,
2,21780, Note_off_c,0,71,0,
2,21792, Note_on_c,0,69,72,
2,21828, Note_off_c,0,69,0,
2,21840, Note_on_c,0,71,72,
2,21888, Note_off_c,0,71,0,
2,21888, Note_on_c,0,69,72,
2,22068, Note_off_c,0,69,0,
2,22176, Note_on_c,0,69,72,
2,22212, Note_off_c,0,69,0,
2,22224, Note_on_c,0,71,72,
2,22260, Note_off_c,0,71,0,
2,22272, Note_on_c,0,72,72,
2,22452, Note_off_c,0,72,0,
2,22464, Note_on_c,0,74,72,
2,22500, Note_off_c,0,74,0,
2,22512, Note_on_c,0,72,72,
2,22596, Note_off_c,0,72,0,
2,22608, Note_on_c,0,71,72,
2,22656, Note_off_c,0,71,0,
2,22656, Note_on_c,0,69,72,
2,22836, Note_off_c,0,69,0,
2,22848, Note_on_c,0,72,72,
2,22932, Note_off_c,0,72,0,
2,22944, Note_on_c,0,74,72,
2,23028, Note_off_c,0,74,0,
2,23040, Note_on_c,0,76,72,
2,23172, Note_off_c,0,76,0,
2,23184, Note_on_c,0,74,72,
2,23316, Note_off_c,0,74,0,
2,23328, Note_on_c,0,72,72,
2,23412, Note_off_c,0,72,0,
2,23424, Note_on_c,0,71,72,
2,23556, Note_off_c,0,71,0,
2,23568, Note_on_c,0,69,72,
2,23700, Note_off_c,0,69,0,
2,23712, Note_on_c,0,67,72,
2,23796, Note_off_c,0,67,0,
2,23808, Note_on_c,0,67,72,
2,23892, Note_off_c,0,67,0,
2,23904, Note_on_c,0,69,72,
2,23988, Note_off_c,0,69,0,
2,24000, Note_on_c,0,69,72,
2,24180, Note_off_c,0,69,0,
2,24384, Note_on_c,0,69,72,
2,24468, Note_off_c,0,69,0,
2,24480, Note_on_c,0,71,72,
2,24564, Note_off_c,0,71,0,
2,24576, Note_on_c,0,72,72,
2,24756, Note_off_c,0,72,0,
2,24768, Note_on_c,0,74,72,
2,24852, Note_off_c,0,74,0,
2,24864, Note_on_c,0,72,72,
2,24900, Note_off_c,0,72,0,
2,24912, Note_on_c,0,71,72,
2,24960, Note_off_c,0,71,0,
2,24960, Note_on_c,0,69,72,
2,25140, Note_off_c,0,69,0,
2,25152, Note_on_c,0,69,72,
2,25236, Note_off_c,0,69,0,
2,25248, Note_on_c,0,71,72,
2,25332, Note_off_c,0,71,0,
2,25344, Note_on_c,0,72,72,
2,25476, Note_off_c,0,72,0,
2,25488, Note_on_c,0,74,72,
2,25620, Note_off_c,0,74,0,
2,25632, Note_on_c,0,72,72,
2,25716, Note_off_c,0,72,0,
2,25728, Note_on_c,0,71,72,
2,25776, Note_off_c,0,71,0,
2,25776, Note_on_c,0,69,72,
2,25908, Note_off_c,0,69,0,
2,25920, Note_on_c,0,72,72,
2,26004, Note_off_c,0,72,0,
2,26016, Note_on_c,0,74,72,
2,26100, Note_off_c,0,74,0,
2,26112, Note_on_c,0,76,72,
2,26244, Note_off_c,0,76,0,
2,26256, Note_on_c,0,74,72,
2,26340, Note_off_c,0,74,0,
2,26352, Note_on_c,0,72,72,
2,26484, Note_off_c,0,72,0,
2,26496, Note_on_c,0,71,72,
2,26544, Note_off_c,0,71,0,
2,26544, Note_on_c,0,69,72,
2,26628, Note_off_c,0,69,0,
2,26688, Note_on_c,0,69,72,
2,26772, Note_off_c,0,69,0,
2,26784, Note_on_c,0,67,72,
2,26868, Note_off_c,0,67,0,
2,26880, Note_on_c,0,67,72,
2,26964, Note_off_c,0,67,0,
2,26976, Note_on_c,0,69,72,
2,27060, Note_off_c,0,69,0,
2,27072, Note_on_c,0,69,72,
2,27240, Note_off_c,0,69,0,
2,31488, Note_on_c,0,72,90,
2,31956, Note_off_c,0,72,0,
2,31968, Note_on_c,0,72,90,
2,32004, Note_off_c,0,72,0,
2,32016, Note_on_c,0,71,90,
2,32148, Note_off_c,0,71,0,
2,32160, Note_on_c,0,72,90,
2,32244, Note_off_c,0,72,0,
2,32256, Note_on_c,0,71,90,
2,32340, Note_off_c,0,71,0,
2,32352, Note_on_c,0,69,90,
2,32628, Note_off_c,0,69,0,
2,33792, Note_on_c,0,72,90,
2,34740, Note_off_c,0,72,0,
2,34752, Note_on_c,0,71,90,
2,34836, Note_off_c,0,71,0,
2,34848, Note_on_c,0,72,90,
2,34884, Note_off_c,0,72,0,
2,34896, Note_on_c,0,71,90,
2,34992, Note_off_c,0,71,0,
2,34992, Note_on_c,0,69,90,
2,35040, Note_off_c,0,69,0,
2,35052, Note_on_c,0,69,90,
2,35328, Note_off_c,0,69,0,
2,35328, Note_on_c,0,69,90,
2,35460, Note_off_c,0,69,0,
2,35472, Note_on_c,0,67,90,
2,35508, Note_off_c,0,67,0,
2,35520, Note_on_c,0,69,90,
2,35604, Note_off_c,0,69,0,
2,35616, Note_on_c,0,67,90,
2,35652, Note_off_c,0,67,0,
2,35664, Note_on_c,0,69,90,
2,35748, Note_off_c,0,69,0,
2,35760, Note_on_c,0,67,90,
2,35796, Note_off_c,0,67,0,
2,35808, Note_on_c,0,69,90,
2,36084, Note_off_c,0,69,0,
2,36672, Note_on_c,0,69,90,
2,36756, Note_off_c,0,69,0,
2,36768, Note_on_c,0,71,90,
2,36852, Note_off_c,0,71,0,
2,36864, Note_on_c,0,72,90,
2,37044, Note_off_c,0,72,0,
2,37056, Note_on_c,0,71,90,
2,37092, Note_off_c,0,71,0,
2,37104, Note_on_c,0,69,90,
2,37188, Note_off_c,0,69,0,
2,37200, Note_on_c,0,71,90,
2,37428, Note_off_c,0,71,0,
2,37488, Note_on_c,0,69,90,
2,37524, Note_off_c,0,69,0,
2,37536, Note_on_c,0,71,90,
2,37620, Note_off_c,0,71,0,
2,37632, Note_on_c,0,72,90,
2,37812, Note_off_c,0,72,0,
2,37824, Note_on_c,0,74,90,
2,37908, Note_off_c,0,74,0,
2,37920, Note_on_c,0,72,90,
2,37956, Note_off_c,0,72,0,
2,37968, Note_on_c,0,71,90,
2,38016, Note_off_c,0,71,0,
2,38016, Note_on_c,0,69,90,
2,38196, Note_off_c,0,69,0,
2,38208, Note_on_c,0,72,90,
2,38292, Note_off_c,0,72,0,
2,38304, Note_on_c,0,74,90,
2,38388, Note_off_c,0,74,0,
2,38400, Note_on_c,0,76,90,
2,38580, Note_off_c,0,76,0,
2,38592, Note_on_c,0,74,90,
2,38676, Note_off_c,0,74,0,
2,38688, Note_on_c,0,72,90,
2,38772, Note_off_c,0,72,0,
2,38784, Note_on_c,0,71,90,
2,38868, Note_off_c,0,71,0,
2,38880, Note_on_c,0,69,90,
2,38964, Note_off_c,0,69,0,
2,38976, Note_on_c,0,67,90,
2,39060, Note_off_c,0,67,0,
2,39072, Note_on_c,0,67,90,
2,39252, Note_off_c,0,67,0,
2,39264, Note_on_c,0,69,90,
2,39540, Note_off_c,0,69,0,
2,39744, Note_on_c,0,69,90,
2,39828, Note_off_c,0,69,0,
2,39840, Note_on_c,0,71,90,
2,39924, Note_off_c,0,71,0,
2,39936, Note_on_c,0,72,90,
2,40116, Note_off_c,0,72,0,
2,40128, Note_on_c,0,74,90,
2,40212, Note_off_c,0,74,0,
2,40224, Note_on_c,0,72,90,
2,40308, Note_off_c,0,72,0,
2,40320, Note_on_c,0,71,90,
2,40356, Note_off_c,0,71,0,
2,40368, Note_on_c,0,69,90,
2,40572, Note_off_c,0,69,0,
2,40584, Note_on_c,0,69,90,
2,40632, Note_off_c,0,69,0,
2,40644, Note_on_c,0,71,90,
2,40692, Note_off_c,0,71,0,
2,40704, Note_on_c,0,72,90,
2,40884, Note_off_c,0,72,0,
2,40896, Note_on_c,0,74,90,
2,40980, Note_off_c,0,74,0,
2,40992, Note_on_c,0,72,90,
2,41028, Note_off_c,0,72,0,
2,41040, Note_on_c,0,71,90,
2,41088, Note_off_c,0,71,0,
2,41088, Note_on_c,0,69,90,
2,41268, Note_off_c,0,69,0,
2,41280, Note_on_c,0,72,90,
2,41364, Note_off_c,0,72,0,
2,41376, Note_on_c,0,74,90,
2,41460, Note_off_c,0,74,0,
2,41472, Note_on_c,0,76,90,
2,41652, Note_off_c,0,76,0,
2,41664, Note_on_c,0,74,90,
2,41748, Note_off_c,0,74,0,
2,41760, Note_on_c,0,72,90,
2,41844, Note_off_c,0,72,0,
2,41856, Note_on_c,0,71,90,
2,41940, Note_off_c,0,71,0,
2,41952, Note_on_c,0,69,90,
2,42036, Note_off_c,0,69,0,
2,42048, Note_on_c,0,67,90,
2,42132, Note_off_c,0,67,0,
2,42144, Note_on_c,0,67,90,
2,42324, Note_off_c,0,67,0,
2,42336, Note_on_c,0,69,90,
2,42612, Note_off_c,0,69,0,
2,44544, Note_on_c,0,72,90,
2,45012, Note_off_c,0,72,0,
2,45024, Note_on_c,0,72,90,
2,45060, Note_off_c,0,72,0,
2,45072, Note_on_c,0,71,90,
2,45204, Note_off_c,0,71,0,
2,45216, Note_on_c,0,72,90,
2,45300, Note_off_c,0,72,0,
2,45312, Note_on_c,0,71,90,
2,45396, Note_off_c,0,71,0,
2,45408, Note_on_c,0,69,90,
2,45684, Note_off_c,0,69,0,
2,46848, Note_on_c,0,72,90,
2,47796, Note_off_c,0,72,0,
2,47808, Note_on_c,0,71,90,
2,47892, Note_off_c,0,71,0,
2,47904, Note_on_c,0,72,90,
2,47940, Note_off_c,0,72,0,
2,47952, Note_on_c,0,71,90,
2,48048, Note_off_c,0,71,0,
2,48048, Note_on_c,0,69,90,
2,48096, Note_off_c,0,69,0,
2,48108, Note_on_c,0,69,90,
2,48384, Note_off_c,0,69,0,
2,48384, Note_on_c,0,69,90,
2,48516, Note_off_c,0,69,0,
2,48528, Note_on_c,0,67,90,
2,48564, Note_off_c,0,67,0,
2,48576, Note_on_c,0,69,90,
2,48660, Note_off_c,0,69,0,
2,48672, Note_on_c,0,67,90,
2,48708, Note_off_c,0,67,0,
2,48720, Note_on_c,0,69,90,
2,48804, Note_off_c,0,69,0,
2,48816, Note_on_c,0,67,90,
2,48852, Note_off_c,0,67,0,
2,48864, Note_on_c,0,69,90,
2,49140, Note_off_c,0,69,0,
2,49728, Note_on_c,0,69,90,
2,49812, Note_off_c,0,69,0,
2,49824, Note_on_c,0,71,90,
2,49908, Note_off_c,0,71,0,
2,49920, Note_on_c,0,72,90,
2,50100, Note_off_c,0,72,0,
2,50112, Note_on_c,0,71,90,
2,50148, Note_off_c,0,71,0,
2,50160, Note_on_c,0,69,90,
2,50244, Note_off_c,0,69,0,
2,50256, Note_on_c,0,71,90,
2,50484, Note_off_c,0,71,0,
2,50544, Note_on_c,0,69,90,
2,50580, Note_off_c,0,69,0,
2,50592, Note_on_c,0,71,90,
2,50676, Note_off_c,0,71,0,
2,50688, Note_on_c,0,72,90,
2,50868, Note_off_c,0,72,0,
2,50880, Note_on_c,0,74,90,
2,50964, Note_off_c,0,74,0,
2,50976, Note_on_c,0,72,90,
2,51012, Note_off_c,0,72,0,
2,51024, Note_on_c,0,71,90,
2,51072, Note_off_c,0,71,0,
2,51072, Note_on_c,0,69,90,
2,51252, Note_off_c,0,69,0,
2,51264, Note_on_c,0,72,90,
2,51348, Note_off_c,0,72,0,
2,51360, Note_on_c,0,74,90,
2,51444, Note_off_c,0,74,0,
2,51456, Note_on_c,0,76,90,
2,51636, Note_off_c,0,76,0,
2,51648, Note_on_c,0,74,90,
2,51732, Note_off_c,0,74,0,
2,51744, Note_on_c,0,72,90,
2,51828, Note_off_c,0,72,0,
2,51840, Note_on_c,0,71,90,
2,51924, Note_off_c,0,71,0,
2,51936, Note_on_c,0,69,90,
2,52020, Note_off_c,0,69,0,
2,52032, Note_on_c,0,67,90,
2,52116, Note_off_c,0,67,0,
2,52128, Note_on_c,0,67,90,
2,52308, Note_off_c,0,67,0,
2,52320, Note_on_c,0,69,90,
2,52596, Note_off_c,0,69,0,
2,52800, Note_on_c,0,69,90,
2,52884, Note_off_c,0,69,0,
2,52896, Note_on_c,0,71,90,
2,52980, Note_off_c,0,71,0,
2,52992, Note_on_c,0,72,90,
2,53172, Note_off_c,0,72,0,
2,53184, Note_on_c,0,74,90,
2,53268, Note_off_c,0,74,0,
2,53280, Note_on_c,0,72,90,
2,53364, Note_off_c,0,72,0,
2,53376, Note_on_c,0,71,90,
2,53412, Note_off_c,0,71,0,
2,53424, Note_on_c,0,69,90,
2,53628, Note_off_c,0,69,0,
2,53640, Note_on_c,0,69,90,
2,53688, Note_off_c,0,69,0,
2,53700, Note_on_c,0,71,90,
2,53748, Note_off_c,0,71,0,
2,53760, Note_on_c,0,72,90,
2,53940, Note_off_c,0,72,0,
2,53952, Note_on_c,0,74,90,
2,54036, Note_off_c,0,74,0,
2,54048, Note_on_c,0,72,90,
2,54084, Note_off_c,0,72,0,
2,54096, Note_on_c,0,71,90,
2,54144, Note_off_c,0,71,0,
2,54144, Note_on_c,0,69,90,
2,54324, Note_off_c,0,69,0,
2,54336, Note_on_c,0,72,90,
2,54420, Note_off_c,0,72,0,
2,54432, Note_on_c,0,74,90,
2,54516, Note_off_c,0,74,0,
2,54528, Note_on_c,0,76,90,
2,54708, Note_off_c,0,76,0,
2,54720, Note_on_c,0,74,90,
2,54804, Note_off_c,0,74,0,
2,54816, Note_on_c,0,72,90,
2,54900, Note_off_c,0,72,0,
2,54912, Note_on_c,0,71,90,
2,54996, Note_off_c,0,71,0,
2,55008, Note_on_c,0,69,90,
2,55092, Note_off_c,0,69,0,
2,55104, Note_on_c,0,67,90,
2,55188, Note_off_c,0,67,0,
2,55200, Note_on_c,0,67,90,
2,55380, Note_off_c,0,67,0,
2,55392, Note_on_c,0,69,90,
2,55668, Note_off_c,0,69,0,
2,60672, Note_on_c,0,72,90,
2,60720, Note_off_c,0,72,0,
2,60720, Note_on_c,0,74,90,
2,60768, Note_off_c,0,74,0,
2,60768, Note_on_c,0,72,90,
2,60816, Note_off_c,0,72,0,
2,60816, Note_on_c,0,74,90,
2,60864, Note_off_c,0,74,0,
2,60864, Note_on_c,0,72,90,
2,60912, Note_off_c,0,72,0,
2,60912, Note_on_c,0,74,90,
2,60960, Note_off_c,0,74,0,
2,60960, Note_on_c,0,72,90,
2,61008, Note_off_c,0,72,0,
2,61008, Note_on_c,0,74,90,
2,61056, Note_off_c,0,74,0,
2,61056, Note_on_c,0,72,90,
2,61188, Note_off_c,0,72,0,
2,61200, Note_on_c,0,71,90,
2,61284, Note_off_c,0,71,0,
2,61296, Note_on_c,0,69,90,
2,61428, Note_off_c,0,69,0,
2,63072, Note_on_c,0,76,90,
2,63156, Note_off_c,0,76,0,
2,63168, Note_on_c,0,74,90,
2,63252, Note_off_c,0,74,0,
2,63264, Note_on_c,0,72,90,
2,63348, Note_off_c,0,72,0,
2,63360, Note_on_c,0,74,90,
2,63444, Note_off_c,0,74,0,
2,63456, Note_on_c,0,72,90,
2,63540, Note_off_c,0,72,0,
2,63552, Note_on_c,0,69,90,
2,63636, Note_off_c,0,69,0,
2,63648, Note_on_c,0,67,90,
2,63684, Note_off_c,0,67,0,
2,63696, Note_on_c,0,69,90,
2,63828, Note_off_c,0,69,0,
2,63840, Note_on_c,0,72,90,
2,63972, Note_off_c,0,72,0,
2,63984, Note_on_c,0,69,90,
2,64020, Note_off_c,0,69,0,
2,64032, Note_on_c,0,69,90,
2,64068, Note_off_c,0,69,0,
2,64080, Note_on_c,0,67,90,
2,64116, Note_off_c,0,67,0,
2,64128, Note_on_c,0,69,90,
2,64176, Note_off_c,0,69,0,
2,64176, Note_on_c,0,64,90,
2,64212, Note_off_c,0,64,0,
2,64224, Note_on_c,0,64,90,
2,64308, Note_off_c,0,64,0,
2,64608, Note_on_c,0,72,90,
2,64692, Note_off_c,0,72,0,
2,64704, Note_on_c,0,72,90,
2,64788, Note_off_c,0,72,0,
2,64800, Note_on_c,0,76,90,
2,64884, Note_off_c,0,76,0,
2,64896, Note_on_c,0,74,90,
2,64980, Note_off_c,0,74,0,
2,64992, Note_on_c,0,72,90,
2,65076, Note_off_c,0,72,0,
2,65088, Note_on_c,0,69,90,
2,65124, Note_off_c,0,69,0,
2,65136, Note_on_c,0,67,90,
2,65172, Note_off_c,0,67,0,
2,65184, Note_on_c,0,72,90,
2,65364, Note_off_c,0,72,0,
2,65376, Note_on_c,0,69,90,
2,65664, Note_off_c,0,69,0,
2,66144, Note_on_c,0,76,90,
2,66228, Note_off_c,0,76,0,
2,66240, Note_on_c,0,74,90,
2,66324, Note_off_c,0,74,0,
2,66336, Note_on_c,0,72,90,
2,66420, Note_off_c,0,72,0,
2,66432, Note_on_c,0,74,90,
2,66516, Note_off_c,0,74,0,
2,66528, Note_on_c,0,72,90,
2,66612, Note_off_c,0,72,0,
2,66624, Note_on_c,0,69,90,
2,66708, Note_off_c,0,69,0,
2,66720, Note_on_c,0,67,90,
2,66804, Note_off_c,0,67,0,
2,66816, Note_on_c,0,69,90,
2,66900, Note_off_c,0,69,0,
2,66912, Note_on_c,0,72,90,
2,67044, Note_off_c,0,72,0,
2,67056, Note_on_c,0,69,90,
2,67092, Note_off_c,0,69,0,
2,67104, Note_on_c,0,69,90,
2,67140, Note_off_c,0,69,0,
2,67152, Note_on_c,0,67,90,
2,67188, Note_off_c,0,67,0,
2,67200, Note_on_c,0,69,90,
2,67248, Note_off_c,0,69,0,
2,67248, Note_on_c,0,64,90,
2,67284, Note_off_c,0,64,0,
2,67296, Note_on_c,0,64,90,
2,67380, Note_off_c,0,64,0,
2,67728, Note_on_c,0,69,90,
2,67764, Note_off_c,0,69,0,
2,67776, Note_on_c,0,72,90,
2,67860, Note_off_c,0,72,0,
2,67872, Note_on_c,0,76,90,
2,67956, Note_off_c,0,76,0,
2,67968, Note_on_c,0,74,90,
2,68052, Note_off_c,0,74,0,
2,68064, Note_on_c,0,72,90,
2,68100, Note_off_c,0,72,0,
2,68112, Note_on_c,0,74,90,
2,68196, Note_off_c,0,74,0,
2,68208, Note_on_c,0,69,90,
2,68244, Note_off_c,0,69,0,
2,68256, Note_on_c,0,72,90,
2,68448, Note_off_c,0,72,0,
2,68448, Note_on_c,0,69,90,
2,68484, Note_off_c,0,69,0,
2,68496, Note_on_c,0,69,90,
2,68724, Note_off_c,0,69,0,
2,71136, Note_on_c,0,74,90,
2,71172, Note_off_c,0,74,0,
2,71184, Note_on_c,0,74,90,
2,71220, Note_off_c,0,74,0,
2,71232, Note_on_c,0,74,90,
2,71316, Note_off_c,0,74,0,
2,71328, Note_on_c,0,74,90,
2,71364, Note_off_c,0,74,0,
2,71376, Note_on_c,0,72,90,
2,71508, Note_off_c,0,72,0,
2,71520, Note_on_c,0,72,90,
2,71796, Note_off_c,0,72,0,
2,73728, Note_on_c,0,76,90,
2,74196, Note_off_c,0,76,0,
2,74208, Note_on_c,0,78,90,
2,74244, Note_off_c,0,78,0,
2,74256, Note_on_c,0,74,90,
2,74340, Note_off_c,0,74,0,
2,74352, Note_on_c,0,72,90,
2,74580, Note_off_c,0,72,0,
2,76128, Note_on_c,0,76,90,
2,76212, Note_off_c,0,76,0,
2,76224, Note_on_c,0,74,90,
2,76308, Note_off_c,0,74,0,
2,76320, Note_on_c,0,72,90,
2,76404, Note_off_c,0,72,0,
2,76416, Note_on_c,0,74,90,
2,76500, Note_off_c,0,74,0,
2,76512, Note_on_c,0,72,90,
2,76596, Note_off_c,0,72,0,
2,76608, Note_on_c,0,69,90,
2,76692, Note_off_c,0,69,0,
2,76704, Note_on_c,0,67,90,
2,76788, Note_off_c,0,67,0,
2,76800, Note_on_c,0,69,90,
2,76884, Note_off_c,0,69,0,
2,76896, Note_on_c,0,72,90,
2,76980, Note_off_c,0,72,0,
2,77040, Note_on_c,0,69,90,
2,77076, Note_off_c,0,69,0,
2,77088, Note_on_c,0,69,90,
2,77124, Note_off_c,0,69,0,
2,77136, Note_on_c,0,67,90,
2,77172, Note_off_c,0,67,0,
2,77184, Note_on_c,0,69,90,
2,77220, Note_off_c,0,69,0,
2,77232, Note_on_c,0,64,90,
2,77364, Note_off_c,0,64,0,
2,77664, Note_on_c,0,69,90,
2,77700, Note_off_c,0,69,0,
2,77712, Note_on_c,0,72,90,
2,77844, Note_off_c,0,72,0,
2,77856, Note_on_c,0,76,90,
2,77940, Note_off_c,0,76,0,
2,77952, Note_on_c,0,74,90,
2,78036, Note_off_c,0,74,0,
2,78048, Note_on_c,0,72,90,
2,78084, Note_off_c,0,72,0,
2,78096, Note_on_c,0,69,90,
2,78180, Note_off_c,0,69,0,
2,78192, Note_on_c,0,67,90,
2,78228, Note_off_c,0,67,0,
2,78240, Note_on_c,0,72,90,
2,78420, Note_off_c,0,72,0,
2,78432, Note_on_c,0,69,90,
2,78624, Note_off_c,0,69,0,
2,79200, Note_on_c,0,76,90,
2,79284, Note_off_c,0,76,0,
2,79296, Note_on_c,0,74,90,
2,79380, Note_off_c,0,74,0,
2,79392, Note_on_c,0,72,90,
2,79476, Note_off_c,0,72,0,
2,79488, Note_on_c,0,74,90,
2,79572, Note_off_c,0,74,0,
2,79584, Note_on_c,0,72,90,
2,79668, Note_off_c,0,72,0,
2,79680, Note_on_c,0,69,90,
2,79764, Note_off_c,0,69,0,
2,79776, Note_on_c,0,67,90,
2,79812, Note_off_c,0,67,0,
2,79824, Note_on_c,0,69,90,
2,79956, Note_off_c,0,69,0,
2,79968, Note_on_c,0,72,90,
2,80052, Note_off_c,0,72,0,
2,80160, Note_on_c,0,69,90,
2,80196, Note_off_c,0,69,0,
2,80208, Note_on_c,0,67,90,
2,80244, Note_off_c,0,67,0,
2,80256, Note_on_c,0,69,90,
2,80292, Note_off_c,0,69,0,
2,80304, Note_on_c,0,64,90,
2,80436, Note_off_c,0,64,0,
2,80736, Note_on_c,0,72,90,
2,80820, Note_off_c,0,72,0,
2,80832, Note_on_c,0,72,90,
2,80916, Note_off_c,0,72,0,
2,80928, Note_on_c,0,76,90,
2,81012, Note_off_c,0,76,0,
2,81024, Note_on_c,0,74,90,
2,81108, Note_off_c,0,74,0,
2,81120, Note_on_c,0,72,90,
2,81204, Note_off_c,0,72,0,
2,81216, Note_on_c,0,69,90,
2,81300, Note_off_c,0,69,0,
2,81312, Note_on_c,0,72,90,
2,81492, Note_off_c,0,72,0,
2,81504, Note_on_c,0,69,90,
2,81588, Note_off_c,0,69,0,
2,81600, Note_on_c,0,69,90,
2,82548, Note_off_c,0,69,0,
2,82560, Note_on_c,0,71,90,
2,83076, Note_off_c,0,71,0,
2,83088, Note_on_c,0,69,90,
2,83304, Note_off_c,0,69,0,
2,105216, Note_on_c,0,81,120,
2,105312, Note_off_c,0,81,0,
2,105312, Note_on_c,0,81,120,
2,105408, Note_off_c,0,81,0,
2,105408, Note_on_c,0,81,120,
2,105456, Note_off_c,0,81,0,
2,105456, Note_on_c,0,84,120,
2,105600, Note_off_c,0,84,0,
2,105600, Note_on_c,0,83,120,
2,105696, Note_off_c,0,83,0,
2,105696, Note_on_c,0,81,120,
2,105792, Note_off_c,0,81,0,
2,105792, Note_on_c,0,79,120,
2,105840, Note_off_c,0,79,0,
2,105840, Note_on_c,0,81,120,
2,106080, Note_off_c,0,81,0,
2,106752, Note_on_c,0,81,120,
2,106848, Note_off_c,0,81,0,
2,106848, Note_on_c,0,81,120,
2,106896, Note_off_c,0,81,0,
2,106896, Note_on_c,0,81,120,
2,107040, Note_off_c,0,81,0,
2,107040, Note_on_c,0,84,120,
2,107136, Note_off_c,0,84,0,
2,107136, Note_on_c,0,83,120,
2,107184, Note_off_c,0,83,0,
2,107184, Note_on_c,0,81,120,
2,107232, Note_off_c,0,81,0,
2,107232, Note_on_c,0,83,120,
2,107424, Note_off_c,0,83,0,
2,107424, Note_on_c,0,83,120,
2,107508, Note_on_c,0,81,120,
2,107520, Note_off_c,0,83,0,
2,107808, Note_off_c,0,81,0,
2,108288, Note_on_c,0,81,120,
2,108384, Note_off_c,0,81,0,
2,108384, Note_on_c,0,81,120,
2,108480, Note_off_c,0,81,0,
2,108480, Note_on_c,0,81,120,
2,108528, Note_off_c,0,81,0,
2,108540, Note_on_c,0,88,120,
2,108672, Note_on_c,0,86,120,
2,108684, Note_off_c,0,88,0,
2,108768, Note_off_c,0,86,0,
2,108768, Note_on_c,0,84,120,
2,108816, Note_off_c,0,84,0,
2,108816, Note_on_c,0,83,120,
2,108912, Note_off_c,0,83,0,
2,108912, Note_on_c,0,83,120,
2,109056, Note_off_c,0,83,0,
2,109056, Note_on_c,0,84,120,
2,109104, Note_off_c,0,84,0,
2,109104, Note_on_c,0,83,120,
2,109152, Note_off_c,0,83,0,
2,109152, Note_on_c,0,81,120,
2,109332, Note_off_c,0,81,0,
2,109824, Note_on_c,0,81,120,
2,109920, Note_off_c,0,81,0,
2,109920, Note_on_c,0,81,120,
2,110016, Note_off_c,0,81,0,
2,110016, Note_on_c,0,81,120,
2,110112, Note_off_c,0,81,0,
2,110112, Note_on_c,0,88,120,
2,110208, Note_off_c,0,88,0,
2,110208, Note_on_c,0,86,120,
2,110304, Note_off_c,0,86,0,
2,110304, Note_on_c,0,84,120,
2,110400, Note_off_c,0,84,0,
2,110400, Note_on_c,0,83,120,
2,110496, Note_off_c,0,83,0,
2,110496, Note_on_c,0,83,120,
2,110580, Note_on_c,0,81,120,
2,110592, Note_off_c,0,83,0,
2,110880, Note_off_c,0,81,0,
2,111360, Note_on_c,0,81,120,
2,111456, Note_off_c,0,81,0,
2,111456, Note_on_c,0,81,120,
2,111552, Note_off_c,0,81,0,
2,111552, Note_on_c,0,81,120,
2,111600, Note_off_c,0,81,0,
2,111600, Note_on_c,0,84,120,
2,111744, Note_off_c,0,84,0,
2,111744, Note_on_c,0,83,120,
2,111840, Note_off_c,0,83,0,
2,111840, Note_on_c,0,81,120,
2,111984, Note_off_c,0,81,0,
2,111984, Note_on_c,0,83,120,
2,112032, Note_off_c,0,83,0,
2,112032, Note_on_c,0,83,120,
2,112128, Note_off_c,0,83,0,
2,112128, Note_on_c,0,81,120,
2,112416, Note_off_c,0,81,0,
2,112896, Note_on_c,0,81,120,
2,112992, Note_off_c,0,81,0,
2,112992, Note_on_c,0,81,120,
2,113088, Note_off_c,0,81,0,
2,113088, Note_on_c,0,81,120,
2,113184, Note_off_c,0,81,0,
2,113184, Note_on_c,0,84,120,
2,113232, Note_off_c,0,84,0,
2,113232, Note_on_c,0,83,120,
2,113376, Note_off_c,0,83,0,
2,113376, Note_on_c,0,81,120,
2,113424, Note_off_c,0,81,0,
2,113424, Note_on_c,0,83,120,
2,113520, Note_off_c,0,83,0,
2,113520, Note_on_c,0,83,120,
2,113664, Note_off_c,0,83,0,
2,113664, Note_on_c,0,81,120,
2,113940, Note_off_c,0,81,0,
2,114432, Note_on_c,0,81,120,
2,114528, Note_off_c,0,81,0,
2,114528, Note_on_c,0,81,120,
2,114624, Note_off_c,0,81,0,
2,114624, Note_on_c,0,81,120,
2,114672, Note_off_c,0,81,0,
2,114672, Note_on_c,0,84,120,
2,114816, Note_off_c,0,84,0,
2,114816, Note_on_c,0,83,120,
2,114864, Note_off_c,0,83,0,
2,114864, Note_on_c,0,83,120,
2,115008, Note_off_c,0,83,0,
2,115008, Note_on_c,0,81,120,
2,115056, Note_off_c,0,81,0,
2,115056, Note_on_c,0,79,120,
2,115104, Note_off_c,0,79,0,
2,115104, Note_on_c,0,81,120,
2,115488, Note_off_c,0,81,0,
2,115968, Note_on_c,0,81,120,
2,116064, Note_off_c,0,81,0,
2,116064, Note_on_c,0,81,120,
2,116112, Note_off_c,0,81,0,
2,116112, Note_on_c,0,81,120,
2,116208, Note_off_c,0,81,0,
2,116208, Note_on_c,0,88,120,
2,116352, Note_off_c,0,88,0,
2,116352, Note_on_c,0,86,120,
2,116448, Note_off_c,0,86,0,
2,116448, Note_on_c,0,84,120,
2,116496, Note_off_c,0,84,0,
2,116496, Note_on_c,0,86,120,
2,116592, Note_off_c,0,86,0,
2,116592, Note_on_c,0,88,120,
2,116736, Note_off_c,0,88,0,
2,116736, Note_on_c,0,86,120,
2,116928, Note_off_c,0,86,0,
2,116928, Note_on_c,0,84,120,
2,116976, Note_off_c,0,84,0,
2,116976, Note_on_c,0,83,120,
2,117216, Note_off_c,0,83,0,
2,117504, Note_on_c,0,81,120,
2,117600, Note_off_c,0,81,0,
2,117600, Note_on_c,0,81,120,
2,117648, Note_off_c,0,81,0,
2,117648, Note_on_c,0,81,120,
2,117744, Note_off_c,0,81,0,
2,117744, Note_on_c,0,84,120,
2,117888, Note_off_c,0,84,0,
2,117936, Note_on_c,0,79,120,
2,117984, Note_off_c,0,79,0,
2,117984, Note_on_c,0,84,120,
2,118080, Note_off_c,0,84,0,
2,118080, Note_on_c,0,84,120,
2,118176, Note_off_c,0,84,0,
2,118176, Note_on_c,0,84,127,
2,120480, Note_off_c,0,84,0,
2,120480, Note_on_c,0,83,127,
2,120864, Note_on_c,0,81,127,
2,120876, Note_off_c,0,83,0,
2,121056, Note_off_c,0,81,0,
2,124704, Note_on_c,0,72,100,
2,124896, Note_off_c,0,72,0,
2,124896, Note_on_c,0,74,100,
2,125088, Note_off_c,0,74,0,
2,125088, Note_on_c,0,76,100,
2,125280, Note_off_c,0,76,0,
2,125280, Note_on_c,0,75,100,
2,125280, Note_on_c,0,74,100,
2,125281, Note_off_c,0,75,0,
2,125472, Note_off_c,0,74,0,
2,125472, Note_on_c,0,72,100,
2,125664, Note_off_c,0,72,0,
2,125664, Note_on_c,0,71,100,
2,125856, Note_off_c,0,71,0,
2,125856, Note_on_c,0,72,100,
2,125952, Note_off_c,0,72,0,
2,125952, Note_on_c,0,71,100,
2,126048, Note_off_c,0,71,0,
2,126048, Note_on_c,0,69,100,
2,126096, Note_off_c,0,69,0,
2,126096, Note_on_c,0,68,100,
2,126096, Note_on_c,0,67,100,
2,126097, Note_off_c,0,68,0,
2,126240, Note_off_c,0,67,0,
2,126432, Note_on_c,0,67,100,
2,126624, Note_off_c,0,67,0,
2,126624, Note_on_c,0,72,100,
2,126720, Note_off_c,0,72,0,
2,126720, Note_on_c,0,67,100,
2,126816, Note_off_c,0,67,0,
2,126816, Note_on_c,0,68,100,
2,126816, Note_on_c,0,69,100,
2,126817, Note_off_c,0,68,0,
2,127764, Note_off_c,0,69,0,
2,127764, End_track,,,,
3,0, Start_track,,,,
3,0, Instrument_t,acoustic guitar     ,,,
3,0, Channel_prefix,1,,,
3,0, Control_c,1,7,90,
3,0, Control_c,1,10,89,
3,0, Program_c,1,24,,
3,0, Note_on_c,1,57,90,
3,96, Note_on_c,1,60,90,
3,180, Note_off_c,1,60,0,
3,192, Note_on_c,1,64,90,
3,276, Note_off_c,1,64,0,
3,288, Note_on_c,1,69,90,
3,372, Note_off_c,1,57,0,
3,372, Note_off_c,1,69,0,
3,384, Note_on_c,1,71,90,
3,384, Note_on_c,1,56,90,
3,468, Note_off_c,1,71,0,
3,480, Note_on_c,1,64,90,
3,564, Note_off_c,1,64,0,
3,576, Note_on_c,1,60,90,
3,660, Note_off_c,1,60,0,
3,672, Note_on_c,1,71,90,
3,756, Note_off_c,1,56,0,
3,756, Note_off_c,1,71,0,
3,768, Note_on_c,1,72,90,
3,768, Note_on_c,1,55,90,
3,852, Note_off_c,1,72,0,
3,864, Note_on_c,1,64,90,
3,948, Note_off_c,1,64,0,
3,960, Note_on_c,1,60,90,
3,1044, Note_off_c,1,60,0,
3,1056, Note_on_c,1,72,90,
3,1140, Note_off_c,1,55,0,
3,1140, Note_off_c,1,72,0,
3,1152, Note_on_c,1,66,90,
3,1152, Note_on_c,1,54,90,
3,1236, Note_off_c,1,66,0,
3,1248, Note_on_c,1,62,90,
3,1332, Note_off_c,1,62,0,
3,1344, Note_on_c,1,57,90,
3,1428, Note_off_c,1,57,0,
3,1440, Note_on_c,1,66,90,
3,1524, Note_off_c,1,66,0,
3,1536, Note_off_c,1,54,0,
3,1536, Note_on_c,1,53,90,
3,1536, Note_on_c,1,64,90,
3,1620, Note_off_c,1,64,0,
3,1632, Note_on_c,1,60,90,
3,1716, Note_off_c,1,60,0,
3,1728, Note_on_c,1,57,90,
3,1812, Note_off_c,1,57,0,
3,1824, Note_on_c,1,60,90,
3,1908, Note_off_c,1,53,0,
3,2004, Note_off_c,1,60,0,
3,2016, Note_on_c,1,64,90,
3,2100, Note_off_c,1,64,0,
3,2112, Note_on_c,1,60,90,
3,2196, Note_off_c,1,60,0,
3,2208, Note_on_c,1,57,90,
3,2292, Note_off_c,1,57,0,
3,2304, Note_on_c,1,59,90,
3,2304, Note_on_c,1,55,90,
3,2304, Note_on_c,1,47,90,
3,2388, Note_off_c,1,47,0,
3,2388, Note_off_c,1,55,0,
3,2388, Note_off_c,1,59,0,
3,2400, Note_on_c,1,45,90,
3,2400, Note_on_c,1,57,90,
3,2400, Note_on_c,1,60,90,
3,2484, Note_off_c,1,60,0,
3,2484, Note_off_c,1,57,0,
3,2484, Note_off_c,1,45,0,
3,2496, Note_on_c,1,60,90,
3,2496, Note_on_c,1,57,90,
3,2496, Note_on_c,1,45,90,
3,2772, Note_off_c,1,45,0,
3,2784, Note_on_c,1,45,90,
3,2868, Note_off_c,1,45,0,
3,2880, Note_on_c,1,53,90,
3,2964, Note_off_c,1,53,0,
3,2976, Note_on_c,1,52,90,
3,3060, Note_off_c,1,57,0,
3,3060, Note_off_c,1,60,0,
3,3060, Note_off_c,1,52,0,
3,3072, Note_on_c,1,45,90,
3,3168, Note_on_c,1,57,90,
3,3252, Note_off_c,1,57,0,
3,3264, Note_on_c,1,60,90,
3,3348, Note_off_c,1,60,0,
3,3360, Note_on_c,1,64,90,
3,3444, Note_off_c,1,45,0,
3,3444, Note_off_c,1,64,0,
3,3456, Note_on_c,1,71,90,
3,3456, Note_on_c,1,56,90,
3,3540, Note_off_c,1,71,0,
3,3552, Note_on_c,1,64,90,
3,3636, Note_off_c,1,64,0,
3,3648, Note_on_c,1,60,90,
3,3732, Note_off_c,1,60,0,
3,3744, Note_on_c,1,71,90,
3,3828, Note_off_c,1,56,0,
3,3828, Note_off_c,1,71,0,
3,3840, Note_on_c,1,55,90,
3,3840, Note_on_c,1,72,90,
3,3924, Note_off_c,1,72,0,
3,3936, Note_on_c,1,64,90,
3,4020, Note_off_c,1,64,0,
3,4032, Note_on_c,1,60,90,
3,4116, Note_off_c,1,60,0,
3,4128, Note_on_c,1,72,90,
3,4212, Note_off_c,1,55,0,
3,4212, Note_off_c,1,72,0,
3,4224, Note_on_c,1,66,90,
3,4224, Note_on_c,1,54,90,
3,4308, Note_off_c,1,66,0,
3,4320, Note_on_c,1,62,90,
3,4404, Note_off_c,1,62,0,
3,4416, Note_on_c,1,57,90,
3,4500, Note_off_c,1,57,0,
3,4512, Note_on_c,1,66,90,
3,4596, Note_off_c,1,54,0,
3,4596, Note_off_c,1,66,0,
3,4608, Note_on_c,1,53,90,
3,4608, Note_on_c,1,64,90,
3,4692, Note_off_c,1,64,0,
3,4704, Note_on_c,1,60,90,
3,4788, Note_off_c,1,60,0,
3,4800, Note_on_c,1,57,90,
3,4884, Note_off_c,1,57,0,
3,4896, Note_on_c,1,60,90,
3,5076, Note_off_c,1,60,0,
3,5088, Note_on_c,1,64,90,
3,5172, Note_off_c,1,64,0,
3,5184, Note_on_c,1,60,90,
3,5268, Note_off_c,1,60,0,
3,5280, Note_on_c,1,57,90,
3,5364, Note_off_c,1,53,0,
3,5364, Note_off_c,1,57,0,
3,5376, Note_on_c,1,47,90,
3,5376, Note_on_c,1,59,90,
3,5376, Note_on_c,1,55,90,
3,5460, Note_off_c,1,55,0,
3,5460, Note_off_c,1,59,0,
3,5460, Note_off_c,1,47,0,
3,5472, Note_on_c,1,45,90,
3,5472, Note_on_c,1,57,90,
3,5472, Note_on_c,1,60,90,
3,5556, Note_off_c,1,60,0,
3,5556, Note_off_c,1,57,0,
3,5556, Note_off_c,1,45,0,
3,5568, Note_on_c,1,45,90,
3,5568, Note_on_c,1,60,90,
3,5568, Note_on_c,1,57,90,
3,5940, Note_off_c,1,57,0,
3,5940, Note_off_c,1,60,0,
3,5940, Note_off_c,1,45,0,
3,5952, Note_on_c,1,45,90,
3,6036, Note_off_c,1,45,0,
3,6048, Note_on_c,1,47,90,
3,6132, Note_off_c,1,47,0,
3,6144, Note_on_c,1,48,90,
3,6240, Note_on_c,1,52,90,
3,6324, Note_off_c,1,52,0,
3,6336, Note_on_c,1,55,90,
3,6420, Note_off_c,1,55,0,
3,6432, Note_on_c,1,64,90,
3,6516, Note_off_c,1,48,0,
3,6516, Note_off_c,1,64,0,
3,6528, Note_on_c,1,66,90,
3,6528, Note_on_c,1,50,90,
3,6612, Note_off_c,1,66,0,
3,6624, Note_on_c,1,62,90,
3,6708, Note_off_c,1,62,0,
3,6720, Note_on_c,1,57,90,
3,6804, Note_off_c,1,57,0,
3,6816, Note_on_c,1,66,90,
3,6900, Note_off_c,1,50,0,
3,6900, Note_off_c,1,66,0,
3,6912, Note_on_c,1,53,90,
3,6912, Note_on_c,1,64,90,
3,6996, Note_off_c,1,64,0,
3,7008, Note_on_c,1,60,90,
3,7092, Note_off_c,1,60,0,
3,7104, Note_on_c,1,57,90,
3,7188, Note_off_c,1,57,0,
3,7200, Note_on_c,1,64,90,
3,7284, Note_off_c,1,53,0,
3,7284, Note_off_c,1,64,0,
3,7296, Note_on_c,1,59,90,
3,7296, Note_on_c,1,45,90,
3,7344, Note_off_c,1,59,0,
3,7344, Note_on_c,1,60,90,
3,7380, Note_off_c,1,60,0,
3,7392, Note_on_c,1,57,90,
3,7476, Note_off_c,1,45,0,
3,7476, Note_off_c,1,57,0,
3,7488, Note_on_c,1,45,90,
3,7572, Note_off_c,1,45,0,
3,7584, Note_on_c,1,47,90,
3,7668, Note_off_c,1,47,0,
3,7680, Note_on_c,1,48,90,
3,7680, Note_on_c,1,60,90,
3,7764, Note_off_c,1,60,0,
3,7776, Note_on_c,1,55,90,
3,7860, Note_off_c,1,55,0,
3,7872, Note_on_c,1,52,90,
3,7956, Note_off_c,1,52,0,
3,7968, Note_on_c,1,60,90,
3,8052, Note_off_c,1,48,0,
3,8052, Note_off_c,1,60,0,
3,8064, Note_on_c,1,43,90,
3,8064, Note_on_c,1,67,90,
3,8148, Note_off_c,1,67,0,
3,8160, Note_on_c,1,59,90,
3,8244, Note_off_c,1,59,0,
3,8256, Note_on_c,1,55,90,
3,8340, Note_off_c,1,55,0,
3,8352, Note_on_c,1,67,90,
3,8436, Note_off_c,1,43,0,
3,8436, Note_off_c,1,67,0,
3,8448, Note_on_c,1,57,70,
3,8448, Note_on_c,1,62,70,
3,8448, Note_on_c,1,67,70,
3,8448, Note_on_c,1,50,70,
3,8484, Note_off_c,1,67,0,
3,8484, Note_on_c,1,66,70,
3,8532, Note_off_c,1,62,0,
3,8532, Note_off_c,1,66,0,
3,8544, Note_on_c,1,66,70,
3,8544, Note_on_c,1,62,70,
3,8628, Note_off_c,1,62,0,
3,8628, Note_off_c,1,57,0,
3,8628, Note_off_c,1,50,0,
3,8628, Note_off_c,1,66,0,
3,8640, Note_on_c,1,62,70,
3,8640, Note_on_c,1,66,70,
3,8640, Note_on_c,1,50,70,
3,8640, Note_on_c,1,57,70,
3,9012, Note_off_c,1,57,0,
3,9012, Note_off_c,1,50,0,
3,9012, Note_off_c,1,66,0,
3,9012, Note_off_c,1,62,0,
3,9024, Note_on_c,1,45,90,
3,9108, Note_off_c,1,45,0,
3,9120, Note_on_c,1,47,90,
3,9204, Note_off_c,1,47,0,
3,9216, Note_on_c,1,48,90,
3,9312, Note_on_c,1,52,90,
3,9396, Note_off_c,1,52,0,
3,9408, Note_on_c,1,55,90,
3,9492, Note_off_c,1,55,0,
3,9504, Note_on_c,1,60,90,
3,9588, Note_off_c,1,48,0,
3,9588, Note_off_c,1,60,0,
3,9600, Note_on_c,1,66,90,
3,9600, Note_on_c,1,50,90,
3,9684, Note_off_c,1,66,0,
3,9696, Note_on_c,1,62,90,
3,9780, Note_off_c,1,62,0,
3,9792, Note_on_c,1,57,90,
3,9876, Note_off_c,1,57,0,
3,9888, Note_on_c,1,66,90,
3,9972, Note_off_c,1,50,0,
3,9972, Note_off_c,1,66,0,
3,9984, Note_on_c,1,53,90,
3,9984, Note_on_c,1,64,90,
3,10068, Note_off_c,1,64,0,
3,10080, Note_on_c,1,60,90,
3,10164, Note_off_c,1,60,0,
3,10176, Note_on_c,1,57,90,
3,10260, Note_off_c,1,57,0,
3,10272, Note_on_c,1,64,90,
3,10356, Note_off_c,1,53,0,
3,10356, Note_off_c,1,64,0,
3,10368, Note_on_c,1,59,90,
3,10368, Note_on_c,1,45,90,
3,10404, Note_off_c,1,59,0,
3,10404, Note_on_c,1,60,90,
3,10452, Note_off_c,1,60,0,
3,10464, Note_on_c,1,57,90,
3,10548, Note_off_c,1,45,0,
3,10548, Note_off_c,1,57,0,
3,10560, Note_on_c,1,45,90,
3,10644, Note_off_c,1,45,0,
3,10656, Note_on_c,1,47,90,
3,10740, Note_off_c,1,47,0,
3,10752, Note_on_c,1,48,90,
3,10848, Note_on_c,1,52,90,
3,10932, Note_off_c,1,52,0,
3,10944, Note_on_c,1,55,90,
3,11028, Note_off_c,1,55,0,
3,11040, Note_on_c,1,60,90,
3,11124, Note_off_c,1,48,0,
3,11124, Note_off_c,1,60,0,
3,11136, Note_on_c,1,50,90,
3,11232, Note_on_c,1,57,90,
3,11316, Note_off_c,1,57,0,
3,11328, Note_on_c,1,62,90,
3,11412, Note_off_c,1,62,0,
3,11424, Note_on_c,1,66,90,
3,11508, Note_off_c,1,50,0,
3,11508, Note_off_c,1,66,0,
3,11520, Note_on_c,1,60,80,
3,11520, Note_on_c,1,64,80,
3,11520, Note_on_c,1,57,80,
3,11520, Note_on_c,1,53,80,
3,11604, Note_off_c,1,53,0,
3,11604, Note_off_c,1,57,0,
3,11604, Note_off_c,1,64,0,
3,11604, Note_off_c,1,60,0,
3,11616, Note_on_c,1,53,80,
3,11616, Note_on_c,1,60,80,
3,11616, Note_on_c,1,64,80,
3,11616, Note_on_c,1,57,80,
3,11700, Note_off_c,1,57,0,
3,11700, Note_off_c,1,64,0,
3,11700, Note_off_c,1,60,0,
3,11700, Note_off_c,1,53,0,
3,11712, Note_on_c,1,64,80,
3,11712, Note_on_c,1,60,80,
3,11712, Note_on_c,1,57,80,
3,11712, Note_on_c,1,53,80,
3,12084, Note_off_c,1,53,0,
3,12084, Note_off_c,1,57,0,
3,12084, Note_off_c,1,60,0,
3,12084, Note_off_c,1,64,0,
3,12288, Note_on_c,1,57,90,
3,12384, Note_on_c,1,60,90,
3,12468, Note_off_c,1,60,0,
3,12480, Note_on_c,1,64,90,
3,12564, Note_off_c,1,64,0,
3,12576, Note_on_c,1,69,90,
3,12660, Note_off_c,1,57,0,
3,12660, Note_off_c,1,69,0,
3,12672, Note_on_c,1,71,90,
3,12672, Note_on_c,1,56,90,
3,12756, Note_off_c,1,71,0,
3,12768, Note_on_c,1,64,90,
3,12852, Note_off_c,1,64,0,
3,12864, Note_on_c,1,60,90,
3,12948, Note_off_c,1,60,0,
3,12960, Note_on_c,1,71,90,
3,13044, Note_off_c,1,56,0,
3,13044, Note_off_c,1,71,0,
3,13056, Note_on_c,1,55,90,
3,13056, Note_on_c,1,72,90,
3,13140, Note_off_c,1,72,0,
3,13152, Note_on_c,1,64,90,
3,13236, Note_off_c,1,64,0,
3,13248, Note_on_c,1,60,90,
3,13332, Note_off_c,1,60,0,
3,13344, Note_on_c,1,72,90,
3,13416, Note_off_c,1,55,0,
3,13428, Note_off_c,1,72,0,
3,13440, Note_on_c,1,54,90,
3,13440, Note_on_c,1,66,90,
3,13524, Note_off_c,1,66,0,
3,13536, Note_on_c,1,62,90,
3,13620, Note_off_c,1,62,0,
3,13632, Note_on_c,1,57,90,
3,13716, Note_off_c,1,57,0,
3,13728, Note_on_c,1,66,90,
3,13812, Note_off_c,1,54,0,
3,13812, Note_off_c,1,66,0,
3,13824, Note_on_c,1,53,90,
3,13824, Note_on_c,1,64,90,
3,13908, Note_off_c,1,64,0,
3,13920, Note_on_c,1,60,90,
3,14004, Note_off_c,1,60,0,
3,14016, Note_on_c,1,57,90,
3,14100, Note_off_c,1,57,0,
3,14112, Note_on_c,1,60,90,
3,14292, Note_off_c,1,60,0,
3,14304, Note_on_c,1,64,90,
3,14388, Note_off_c,1,64,0,
3,14400, Note_on_c,1,60,90,
3,14484, Note_off_c,1,60,0,
3,14496, Note_on_c,1,57,90,
3,14580, Note_off_c,1,53,0,
3,14580, Note_off_c,1,57,0,
3,14592, Note_on_c,1,59,90,
3,14592, Note_on_c,1,55,90,
3,14592, Note_on_c,1,47,90,
3,14676, Note_off_c,1,47,0,
3,14676, Note_off_c,1,55,0,
3,14676, Note_off_c,1,59,0,
3,14688, Note_on_c,1,57,90,
3,14688, Note_on_c,1,60,90,
3,14688, Note_on_c,1,45,90,
3,14772, Note_off_c,1,45,0,
3,14772, Note_off_c,1,60,0,
3,14772, Note_off_c,1,57,0,
3,14784, Note_on_c,1,60,90,
3,14784, Note_on_c,1,57,90,
3,14784, Note_on_c,1,45,90,
3,15156, Note_off_c,1,45,0,
3,15156, Note_off_c,1,57,0,
3,15156, Note_off_c,1,60,0,
3,15360, Note_on_c,1,57,90,
3,15456, Note_on_c,1,60,90,
3,15540, Note_off_c,1,60,0,
3,15552, Note_on_c,1,64,90,
3,15636, Note_off_c,1,64,0,
3,15648, Note_on_c,1,69,90,
3,15732, Note_off_c,1,57,0,
3,15732, Note_off_c,1,69,0,
3,15744, Note_on_c,1,71,90,
3,15744, Note_on_c,1,56,90,
3,15828, Note_off_c,1,71,0,
3,15840, Note_on_c,1,64,90,
3,15924, Note_off_c,1,64,0,
3,15936, Note_on_c,1,60,90,
3,16020, Note_off_c,1,60,0,
3,16032, Note_on_c,1,71,90,
3,16116, Note_off_c,1,56,0,
3,16116, Note_off_c,1,71,0,
3,16128, Note_on_c,1,55,90,
3,16128, Note_on_c,1,72,90,
3,16212, Note_off_c,1,72,0,
3,16224, Note_on_c,1,64,90,
3,16308, Note_off_c,1,64,0,
3,16320, Note_on_c,1,60,90,
3,16404, Note_off_c,1,60,0,
3,16416, Note_on_c,1,72,90,
3,16488, Note_off_c,1,55,0,
3,16500, Note_off_c,1,72,0,
3,16512, Note_on_c,1,54,90,
3,16512, Note_on_c,1,66,90,
3,16596, Note_off_c,1,66,0,
3,16608, Note_on_c,1,62,90,
3,16692, Note_off_c,1,62,0,
3,16704, Note_on_c,1,57,90,
3,16788, Note_off_c,1,57,0,
3,16800, Note_on_c,1,66,90,
3,16884, Note_off_c,1,54,0,
3,16884, Note_off_c,1,66,0,
3,16896, Note_on_c,1,53,90,
3,16896, Note_on_c,1,64,90,
3,16980, Note_off_c,1,64,0,
3,16992, Note_on_c,1,60,90,
3,17076, Note_off_c,1,60,0,
3,17088, Note_on_c,1,57,90,
3,17172, Note_off_c,1,57,0,
3,17184, Note_on_c,1,60,90,
3,17364, Note_off_c,1,60,0,
3,17376, Note_on_c,1,64,90,
3,17460, Note_off_c,1,64,0,
3,17472, Note_on_c,1,60,90,
3,17556, Note_off_c,1,60,0,
3,17568, Note_on_c,1,57,90,
3,17652, Note_off_c,1,53,0,
3,17652, Note_off_c,1,57,0,
3,17664, Note_on_c,1,59,90,
3,17664, Note_on_c,1,55,90,
3,17664, Note_on_c,1,47,90,
3,17748, Note_off_c,1,47,0,
3,17748, Note_off_c,1,55,0,
3,17748, Note_off_c,1,59,0,
3,17760, Note_on_c,1,57,90,
3,17760, Note_on_c,1,60,90,
3,17760, Note_on_c,1,45,90,
3,17844, Note_off_c,1,45,0,
3,17844, Note_off_c,1,60,0,
3,17844, Note_off_c,1,57,0,
3,17856, Note_on_c,1,60,90,
3,17856, Note_on_c,1,57,90,
3,17856, Note_on_c,1,45,90,
3,18228, Note_off_c,1,45,0,
3,18228, Note_off_c,1,57,0,
3,18228, Note_off_c,1,60,0,
3,18240, Note_on_c,1,45,90,
3,18324, Note_off_c,1,45,0,
3,18336, Note_on_c,1,47,90,
3,18420, Note_off_c,1,47,0,
3,18432, Note_on_c,1,48,90,
3,18528, Note_on_c,1,52,90,
3,18612, Note_off_c,1,52,0,
3,18624, Note_on_c,1,55,90,
3,18708, Note_off_c,1,55,0,
3,18720, Note_on_c,1,60,90,
3,18804, Note_off_c,1,48,0,
3,18804, Note_off_c,1,60,0,
3,18816, Note_on_c,1,66,90,
3,18816, Note_on_c,1,50,90,
3,18900, Note_off_c,1,66,0,
3,18912, Note_on_c,1,62,90,
3,18996, Note_off_c,1,62,0,
3,19008, Note_on_c,1,57,90,
3,19092, Note_off_c,1,57,0,
3,19104, Note_on_c,1,66,90,
3,19188, Note_off_c,1,50,0,
3,19188, Note_off_c,1,66,0,
3,19200, Note_on_c,1,53,90,
3,19200, Note_on_c,1,64,90,
3,19284, Note_off_c,1,64,0,
3,19296, Note_on_c,1,60,90,
3,19380, Note_off_c,1,60,0,
3,19392, Note_on_c,1,57,90,
3,19476, Note_off_c,1,57,0,
3,19488, Note_on_c,1,60,90,
3,19572, Note_off_c,1,53,0,
3,19572, Note_off_c,1,60,0,
3,19584, Note_on_c,1,59,90,
3,19620, Note_off_c,1,59,0,
3,19632, Note_on_c,1,60,90,
3,19668, Note_off_c,1,60,0,
3,19680, Note_on_c,1,57,90,
3,19680, Note_on_c,1,45,90,
3,19764, Note_off_c,1,45,0,
3,19764, Note_off_c,1,57,0,
3,19776, Note_on_c,1,45,90,
3,19860, Note_off_c,1,45,0,
3,19872, Note_on_c,1,47,90,
3,19956, Note_off_c,1,47,0,
3,19968, Note_on_c,1,48,90,
3,19968, Note_on_c,1,60,90,
3,20052, Note_off_c,1,60,0,
3,20064, Note_on_c,1,55,90,
3,20148, Note_off_c,1,55,0,
3,20160, Note_on_c,1,55,90,
3,20160, Note_on_c,1,52,90,
3,20160, Note_on_c,1,60,90,
3,20244, Note_off_c,1,60,0,
3,20244, Note_off_c,1,52,0,
3,20244, Note_off_c,1,55,0,
3,20256, Note_on_c,1,60,90,
3,20340, Note_off_c,1,48,0,
3,20340, Note_off_c,1,60,0,
3,20352, Note_on_c,1,67,90,
3,20352, Note_on_c,1,43,90,
3,20436, Note_off_c,1,67,0,
3,20448, Note_on_c,1,59,90,
3,20532, Note_off_c,1,59,0,
3,20544, Note_on_c,1,55,90,
3,20628, Note_off_c,1,55,0,
3,20640, Note_on_c,1,67,90,
3,20724, Note_off_c,1,43,0,
3,20724, Note_off_c,1,67,0,
3,20736, Note_on_c,1,50,90,
3,20736, Note_on_c,1,57,90,
3,20736, Note_on_c,1,62,90,
3,20736, Note_on_c,1,67,90,
3,20772, Note_off_c,1,67,0,
3,20772, Note_off_c,1,62,0,
3,20784, Note_on_c,1,66,90,
3,20820, Note_off_c,1,66,0,
3,20832, Note_on_c,1,62,90,
3,20832, Note_on_c,1,66,90,
3,20916, Note_off_c,1,66,0,
3,20916, Note_off_c,1,57,0,
3,20916, Note_off_c,1,50,0,
3,20916, Note_off_c,1,62,0,
3,20928, Note_on_c,1,50,90,
3,20928, Note_on_c,1,57,90,
3,20928, Note_on_c,1,62,90,
3,20928, Note_on_c,1,66,90,
3,21300, Note_off_c,1,66,0,
3,21300, Note_off_c,1,62,0,
3,21300, Note_off_c,1,57,0,
3,21300, Note_off_c,1,50,0,
3,21312, Note_on_c,1,45,90,
3,21396, Note_off_c,1,45,0,
3,21408, Note_on_c,1,47,90,
3,21492, Note_off_c,1,47,0,
3,21504, Note_on_c,1,48,90,
3,21600, Note_on_c,1,52,90,
3,21684, Note_off_c,1,52,0,
3,21696, Note_on_c,1,55,90,
3,21780, Note_off_c,1,55,0,
3,21792, Note_on_c,1,60,90,
3,21876, Note_off_c,1,48,0,
3,21876, Note_off_c,1,60,0,
3,21888, Note_on_c,1,66,90,
3,21888, Note_on_c,1,50,90,
3,21972, Note_off_c,1,66,0,
3,21984, Note_on_c,1,62,90,
3,22068, Note_off_c,1,62,0,
3,22080, Note_on_c,1,57,90,
3,22164, Note_off_c,1,57,0,
3,22176, Note_on_c,1,66,90,
3,22260, Note_off_c,1,50,0,
3,22260, Note_off_c,1,66,0,
3,22272, Note_on_c,1,53,90,
3,22272, Note_on_c,1,64,90,
3,22356, Note_off_c,1,64,0,
3,22368, Note_on_c,1,60,90,
3,22452, Note_off_c,1,60,0,
3,22464, Note_on_c,1,57,90,
3,22548, Note_off_c,1,57,0,
3,22560, Note_on_c,1,60,90,
3,22644, Note_off_c,1,53,0,
3,22644, Note_off_c,1,60,0,
3,22656, Note_on_c,1,59,90,
3,22692, Note_off_c,1,59,0,
3,22704, Note_on_c,1,60,90,
3,22740, Note_off_c,1,60,0,
3,22752, Note_on_c,1,57,90,
3,22752, Note_on_c,1,45,90,
3,22836, Note_off_c,1,45,0,
3,22836, Note_off_c,1,57,0,
3,22848, Note_on_c,1,45,90,
3,22932, Note_off_c,1,45,0,
3,22944, Note_on_c,1,47,90,
3,23028, Note_off_c,1,47,0,
3,23040, Note_on_c,1,48,90,
3,23040, Note_on_c,1,60,90,
3,23124, Note_off_c,1,60,0,
3,23136, Note_on_c,1,55,90,
3,23220, Note_off_c,1,55,0,
3,23232, Note_on_c,1,52,90,
3,23316, Note_off_c,1,52,0,
3,23328, Note_on_c,1,60,90,
3,23412, Note_off_c,1,48,0,
3,23412, Note_off_c,1,60,0,
3,23424, Note_on_c,1,50,90,
3,23424, Note_on_c,1,66,90,
3,23508, Note_off_c,1,66,0,
3,23520, Note_on_c,1,62,90,
3,23604, Note_off_c,1,62,0,
3,23616, Note_on_c,1,57,90,
3,23700, Note_off_c,1,57,0,
3,23712, Note_on_c,1,67,90,
3,23796, Note_off_c,1,50,0,
3,23796, Note_off_c,1,67,0,
3,23808, Note_on_c,1,53,70,
3,23808, Note_on_c,1,57,70,
3,23808, Note_on_c,1,60,70,
3,23808, Note_on_c,1,64,70,
3,23892, Note_off_c,1,64,0,
3,23892, Note_off_c,1,60,0,
3,23892, Note_off_c,1,57,0,
3,23892, Note_off_c,1,53,0,
3,23904, Note_on_c,1,64,70,
3,23904, Note_on_c,1,60,70,
3,23904, Note_on_c,1,57,70,
3,23904, Note_on_c,1,53,70,
3,23988, Note_off_c,1,53,0,
3,23988, Note_off_c,1,57,0,
3,23988, Note_off_c,1,60,0,
3,23988, Note_off_c,1,64,0,
3,24000, Note_on_c,1,53,70,
3,24000, Note_on_c,1,57,70,
3,24000, Note_on_c,1,60,70,
3,24000, Note_on_c,1,64,70,
3,24372, Note_off_c,1,64,0,
3,24372, Note_off_c,1,60,0,
3,24372, Note_off_c,1,57,0,
3,24372, Note_off_c,1,53,0,
3,24576, Note_on_c,1,57,90,
3,24672, Note_on_c,1,60,90,
3,24756, Note_off_c,1,60,0,
3,24768, Note_on_c,1,64,90,
3,24852, Note_off_c,1,64,0,
3,24864, Note_on_c,1,69,90,
3,24948, Note_off_c,1,57,0,
3,24948, Note_off_c,1,69,0,
3,24960, Note_on_c,1,71,90,
3,24960, Note_on_c,1,56,90,
3,25044, Note_off_c,1,71,0,
3,25056, Note_on_c,1,64,90,
3,25140, Note_off_c,1,64,0,
3,25152, Note_on_c,1,60,90,
3,25236, Note_off_c,1,60,0,
3,25248, Note_on_c,1,71,90,
3,25332, Note_off_c,1,56,0,
3,25332, Note_off_c,1,71,0,
3,25344, Note_on_c,1,55,90,
3,25344, Note_on_c,1,72,90,
3,25428, Note_off_c,1,72,0,
3,25440, Note_on_c,1,64,90,
3,25524, Note_off_c,1,64,0,
3,25536, Note_on_c,1,60,90,
3,25620, Note_off_c,1,60,0,
3,25632, Note_on_c,1,72,90,
3,25704, Note_off_c,1,55,0,
3,25716, Note_off_c,1,72,0,
3,25728, Note_on_c,1,54,90,
3,25728, Note_on_c,1,66,90,
3,25812, Note_off_c,1,66,0,
3,25824, Note_on_c,1,62,90,
3,25908, Note_off_c,1,62,0,
3,25920, Note_on_c,1,57,90,
3,26004, Note_off_c,1,57,0,
3,26016, Note_on_c,1,66,90,
3,26100, Note_off_c,1,54,0,
3,26100, Note_off_c,1,66,0,
3,26112, Note_on_c,1,53,90,
3,26112, Note_on_c,1,64,90,
3,26196, Note_off_c,1,64,0,
3,26208, Note_on_c,1,60,90,
3,26292, Note_off_c,1,60,0,
3,26304, Note_on_c,1,57,90,
3,26388, Note_off_c,1,57,0,
3,26400, Note_on_c,1,60,90,
3,26580, Note_off_c,1,60,0,
3,26592, Note_on_c,1,64,90,
3,26676, Note_off_c,1,64,0,
3,26688, Note_on_c,1,60,90,
3,26772, Note_off_c,1,60,0,
3,26784, Note_on_c,1,57,90,
3,26868, Note_off_c,1,53,0,
3,26868, Note_off_c,1,57,0,
3,26880, Note_on_c,1,59,90,
3,26880, Note_on_c,1,55,90,
3,26880, Note_on_c,1,47,90,
3,26964, Note_off_c,1,47,0,
3,26964, Note_off_c,1,55,0,
3,26964, Note_off_c,1,59,0,
3,26976, Note_on_c,1,57,90,
3,26976, Note_on_c,1,60,90,
3,26976, Note_on_c,1,45,90,
3,27060, Note_off_c,1,45,0,
3,27060, Note_off_c,1,60,0,
3,27060, Note_off_c,1,57,0,
3,27072, Note_on_c,1,60,90,
3,27072, Note_on_c,1,57,90,
3,27072, Note_on_c,1,45,90,
3,27348, Note_off_c,1,45,0,
3,27360, Note_on_c,1,45,90,
3,27444, Note_off_c,1,57,0,
3,27444, Note_off_c,1,60,0,
3,27444, Note_off_c,1,45,0,
3,27456, Note_on_c,1,53,90,
3,27540, Note_off_c,1,53,0,
3,27552, Note_on_c,1,52,90,
3,27636, Note_off_c,1,52,0,
3,27648, Note_on_c,1,45,90,
3,27684, Note_off_c,1,45,0,
3,27696, Note_on_c,1,45,90,
3,27744, Note_on_c,1,57,90,
3,27828, Note_off_c,1,57,0,
3,27840, Note_on_c,1,60,90,
3,27924, Note_off_c,1,60,0,
3,27936, Note_on_c,1,69,90,
3,28020, Note_off_c,1,45,0,
3,28020, Note_off_c,1,69,0,
3,28032, Note_on_c,1,56,90,
3,28032, Note_on_c,1,71,90,
3,28068, Note_off_c,1,71,0,
3,28080, Note_on_c,1,64,90,
3,28116, Note_off_c,1,64,0,
3,28128, Note_on_c,1,60,90,
3,28164, Note_off_c,1,60,0,
3,28176, Note_on_c,1,64,90,
3,28212, Note_off_c,1,64,0,
3,28224, Note_on_c,1,71,90,
3,28260, Note_off_c,1,71,0,
3,28272, Note_on_c,1,64,90,
3,28308, Note_off_c,1,64,0,
3,28320, Note_on_c,1,60,90,
3,28356, Note_off_c,1,56,0,
3,28356, Note_off_c,1,60,0,
3,28368, Note_on_c,1,56,90,
3,28404, Note_off_c,1,56,0,
3,28416, Note_on_c,1,55,90,
3,28464, Note_on_c,1,60,90,
3,28500, Note_off_c,1,60,0,
3,28512, Note_on_c,1,64,90,
3,28548, Note_off_c,1,64,0,
3,28560, Note_on_c,1,72,90,
3,28596, Note_off_c,1,72,0,
3,28608, Note_on_c,1,64,90,
3,28644, Note_off_c,1,64,0,
3,28656, Note_on_c,1,60,90,
3,28692, Note_off_c,1,55,0,
3,28692, Note_off_c,1,60,0,
3,28704, Note_on_c,1,55,90,
3,28788, Note_off_c,1,55,0,
3,28800, Note_on_c,1,54,90,
3,28848, Note_on_c,1,57,90,
3,28884, Note_off_c,1,57,0,
3,28896, Note_on_c,1,62,90,
3,28932, Note_off_c,1,62,0,
3,28944, Note_on_c,1,66,90,
3,28980, Note_off_c,1,66,0,
3,28992, Note_on_c,1,62,90,
3,29028, Note_off_c,1,62,0,
3,29040, Note_on_c,1,57,90,
3,29076, Note_off_c,1,54,0,
3,29076, Note_off_c,1,57,0,
3,29088, Note_on_c,1,54,90,
3,29148, Note_on_c,1,57,90,
3,29172, Note_off_c,1,57,0,
3,29172, Note_off_c,1,54,0,
3,29184, Note_on_c,1,53,90,
3,29232, Note_on_c,1,57,90,
3,29268, Note_off_c,1,57,0,
3,29280, Note_on_c,1,60,90,
3,29316, Note_off_c,1,60,0,
3,29328, Note_on_c,1,64,90,
3,29412, Note_off_c,1,64,0,
3,29424, Note_on_c,1,60,90,
3,29460, Note_off_c,1,60,0,
3,29472, Note_on_c,1,57,90,
3,29556, Note_off_c,1,53,0,
3,29556, Note_off_c,1,57,0,
3,29568, Note_on_c,1,53,90,
3,29616, Note_on_c,1,57,90,
3,29652, Note_off_c,1,57,0,
3,29664, Note_on_c,1,60,90,
3,29700, Note_off_c,1,60,0,
3,29712, Note_on_c,1,64,90,
3,29748, Note_off_c,1,64,0,
3,29760, Note_on_c,1,60,90,
3,29796, Note_off_c,1,60,0,
3,29808, Note_on_c,1,57,90,
3,29844, Note_off_c,1,53,0,
3,29844, Note_off_c,1,57,0,
3,29856, Note_on_c,1,53,90,
3,29940, Note_off_c,1,53,0,
3,29952, Note_on_c,1,59,90,
3,29952, Note_on_c,1,55,90,
3,29952, Note_on_c,1,47,90,
3,30036, Note_off_c,1,47,0,
3,30036, Note_off_c,1,55,0,
3,30036, Note_off_c,1,59,0,
3,30048, Note_on_c,1,57,90,
3,30048, Note_on_c,1,60,90,
3,30048, Note_on_c,1,45,90,
3,30132, Note_off_c,1,45,0,
3,30132, Note_off_c,1,60,0,
3,30132, Note_off_c,1,57,0,
3,30144, Note_on_c,1,60,90,
3,30144, Note_on_c,1,57,90,
3,30144, Note_on_c,1,45,90,
3,30516, Note_off_c,1,45,0,
3,30516, Note_off_c,1,57,0,
3,30516, Note_off_c,1,60,0,
3,30528, Note_on_c,1,47,90,
3,30528, Note_on_c,1,50,90,
3,30528, Note_on_c,1,55,90,
3,30528, Note_on_c,1,62,90,
3,30708, Note_off_c,1,62,0,
3,30708, Note_off_c,1,50,0,
3,30708, Note_off_c,1,47,0,
3,30720, Note_off_c,1,55,0,
3,30720, Note_on_c,1,52,90,
3,30720, Note_on_c,1,60,90,
3,30720, Note_on_c,1,67,90,
3,30720, Note_on_c,1,55,90,
3,30804, Note_off_c,1,55,0,
3,30804, Note_off_c,1,67,0,
3,30804, Note_off_c,1,60,0,
3,30804, Note_off_c,1,52,0,
3,30816, Note_on_c,1,52,90,
3,30816, Note_on_c,1,60,90,
3,30816, Note_on_c,1,67,90,
3,30816, Note_on_c,1,55,90,
3,30852, Note_off_c,1,55,0,
3,30852, Note_off_c,1,67,0,
3,30852, Note_off_c,1,60,0,
3,30852, Note_off_c,1,52,0,
3,30864, Note_on_c,1,60,90,
3,30864, Note_on_c,1,67,90,
3,30864, Note_on_c,1,55,90,
3,30900, Note_off_c,1,55,0,
3,30900, Note_off_c,1,67,0,
3,30900, Note_off_c,1,60,0,
3,30912, Note_on_c,1,52,90,
3,30912, Note_on_c,1,55,90,
3,30912, Note_on_c,1,67,90,
3,30912, Note_on_c,1,60,90,
3,30996, Note_off_c,1,60,0,
3,30996, Note_off_c,1,55,0,
3,30996, Note_off_c,1,52,0,
3,31008, Note_off_c,1,67,0,
3,31008, Note_on_c,1,52,90,
3,31008, Note_on_c,1,55,90,
3,31008, Note_on_c,1,67,90,
3,31188, Note_off_c,1,67,0,
3,31188, Note_off_c,1,55,0,
3,31188, Note_off_c,1,52,0,
3,31200, Note_on_c,1,60,90,
3,31200, Note_on_c,1,64,90,
3,31200, Note_on_c,1,55,90,
3,31380, Note_off_c,1,55,0,
3,31380, Note_off_c,1,64,0,
3,31380, Note_off_c,1,60,0,
3,31392, Note_on_c,1,64,90,
3,31392, Note_on_c,1,55,90,
3,31404, Note_on_c,1,62,90,
3,31572, Note_off_c,1,62,0,
3,31572, Note_off_c,1,55,0,
3,31572, Note_off_c,1,64,0,
3,31584, Note_on_c,1,57,90,
3,31584, Note_on_c,1,62,90,
3,31584, Note_on_c,1,66,90,
3,31776, Note_on_c,1,45,90,
3,31860, Note_off_c,1,45,0,
3,31860, Note_off_c,1,66,0,
3,31860, Note_off_c,1,62,0,
3,31860, Note_off_c,1,57,0,
3,31872, Note_on_c,1,57,90,
3,31872, Note_on_c,1,62,90,
3,31872, Note_on_c,1,66,90,
3,31956, Note_off_c,1,66,0,
3,31956, Note_off_c,1,62,0,
3,31956, Note_off_c,1,57,0,
3,31968, Note_on_c,1,66,90,
3,31968, Note_on_c,1,62,90,
3,31968, Note_on_c,1,57,90,
3,32004, Note_off_c,1,57,0,
3,32004, Note_off_c,1,62,0,
3,32004, Note_off_c,1,66,0,
3,32016, Note_on_c,1,57,90,
3,32016, Note_on_c,1,62,90,
3,32016, Note_on_c,1,66,90,
3,32052, Note_off_c,1,66,0,
3,32052, Note_off_c,1,62,0,
3,32052, Note_off_c,1,57,0,
3,32064, Note_on_c,1,66,90,
3,32064, Note_on_c,1,62,90,
3,32064, Note_on_c,1,57,90,
3,32148, Note_off_c,1,57,0,
3,32148, Note_off_c,1,62,0,
3,32148, Note_off_c,1,66,0,
3,32160, Note_on_c,1,64,90,
3,32160, Note_on_c,1,59,90,
3,32160, Note_on_c,1,55,90,
3,32244, Note_off_c,1,55,0,
3,32244, Note_off_c,1,59,0,
3,32244, Note_off_c,1,64,0,
3,32256, Note_on_c,1,52,90,
3,32256, Note_on_c,1,55,90,
3,32256, Note_on_c,1,60,90,
3,32256, Note_on_c,1,67,90,
3,32340, Note_off_c,1,67,0,
3,32340, Note_off_c,1,60,0,
3,32340, Note_off_c,1,55,0,
3,32340, Note_off_c,1,52,0,
3,32352, Note_on_c,1,60,90,
3,32352, Note_on_c,1,55,90,
3,32352, Note_on_c,1,52,90,
3,32352, Note_on_c,1,67,90,
3,32388, Note_off_c,1,67,0,
3,32388, Note_off_c,1,52,0,
3,32388, Note_off_c,1,55,0,
3,32388, Note_off_c,1,60,0,
3,32400, Note_on_c,1,67,90,
3,32400, Note_on_c,1,60,90,
3,32400, Note_on_c,1,55,90,
3,32436, Note_off_c,1,55,0,
3,32436, Note_off_c,1,60,0,
3,32436, Note_off_c,1,67,0,
3,32448, Note_on_c,1,55,90,
3,32448, Note_on_c,1,52,90,
3,32448, Note_on_c,1,60,90,
3,32448, Note_on_c,1,67,90,
3,32532, Note_off_c,1,67,0,
3,32532, Note_off_c,1,60,0,
3,32532, Note_off_c,1,52,0,
3,32532, Note_off_c,1,55,0,
3,32544, Note_on_c,1,55,90,
3,32544, Note_on_c,1,52,90,
3,32544, Note_on_c,1,60,90,
3,32544, Note_on_c,1,67,90,
3,32724, Note_off_c,1,67,0,
3,32724, Note_off_c,1,60,0,
3,32724, Note_off_c,1,52,0,
3,32724, Note_off_c,1,55,0,
3,32736, Note_on_c,1,55,90,
3,32736, Note_on_c,1,60,90,
3,32736, Note_on_c,1,64,90,
3,32820, Note_off_c,1,64,0,
3,32820, Note_off_c,1,60,0,
3,32820, Note_off_c,1,55,0,
3,32928, Note_on_c,1,64,90,
3,32928, Note_on_c,1,67,90,
3,32928, Note_on_c,1,71,90,
3,33012, Note_off_c,1,71,0,
3,33012, Note_off_c,1,67,0,
3,33012, Note_off_c,1,64,0,
3,33120, Note_on_c,1,62,90,
3,33120, Note_on_c,1,66,90,
3,33120, Note_on_c,1,69,90,
3,33204, Note_off_c,1,69,0,
3,33204, Note_off_c,1,66,0,
3,33204, Note_off_c,1,62,0,
3,33312, Note_on_c,1,60,90,
3,33312, Note_on_c,1,64,90,
3,33312, Note_on_c,1,67,90,
3,33396, Note_off_c,1,67,0,
3,33396, Note_off_c,1,64,0,
3,33396, Note_off_c,1,60,0,
3,33504, Note_on_c,1,62,90,
3,33504, Note_on_c,1,66,90,
3,33504, Note_on_c,1,69,90,
3,33588, Note_off_c,1,69,0,
3,33588, Note_off_c,1,66,0,
3,33588, Note_off_c,1,62,0,
3,33696, Note_on_c,1,52,90,
3,33696, Note_on_c,1,45,90,
3,33780, Note_off_c,1,45,0,
3,33780, Note_off_c,1,52,0,
3,33792, Note_on_c,1,52,90,
3,33792, Note_on_c,1,60,90,
3,33792, Note_on_c,1,67,90,
3,33792, Note_on_c,1,55,90,
3,33876, Note_off_c,1,55,0,
3,33876, Note_off_c,1,67,0,
3,33876, Note_off_c,1,60,0,
3,33876, Note_off_c,1,52,0,
3,33888, Note_on_c,1,52,90,
3,33888, Note_on_c,1,60,90,
3,33888, Note_on_c,1,67,90,
3,33888, Note_on_c,1,55,90,
3,33924, Note_off_c,1,55,0,
3,33924, Note_off_c,1,67,0,
3,33924, Note_off_c,1,60,0,
3,33924, Note_off_c,1,52,0,
3,33936, Note_on_c,1,60,90,
3,33936, Note_on_c,1,67,90,
3,33936, Note_on_c,1,55,90,
3,33972, Note_off_c,1,55,0,
3,33972, Note_off_c,1,67,0,
3,33972, Note_off_c,1,60,0,
3,33984, Note_on_c,1,52,90,
3,33984, Note_on_c,1,60,90,
3,33984, Note_on_c,1,67,90,
3,33984, Note_on_c,1,55,90,
3,34068, Note_off_c,1,55,0,
3,34068, Note_off_c,1,67,0,
3,34068, Note_off_c,1,60,0,
3,34068, Note_off_c,1,52,0,
3,34080, Note_on_c,1,52,90,
3,34080, Note_on_c,1,67,90,
3,34080, Note_on_c,1,55,90,
3,34260, Note_off_c,1,55,0,
3,34260, Note_off_c,1,67,0,
3,34260, Note_off_c,1,52,0,
3,34272, Note_on_c,1,60,90,
3,34272, Note_on_c,1,64,90,
3,34272, Note_on_c,1,55,90,
3,34452, Note_off_c,1,55,0,
3,34452, Note_off_c,1,64,0,
3,34452, Note_off_c,1,60,0,
3,34464, Note_on_c,1,64,90,
3,34464, Note_on_c,1,55,90,
3,34476, Note_on_c,1,62,90,
3,34644, Note_off_c,1,62,0,
3,34644, Note_off_c,1,55,0,
3,34644, Note_off_c,1,64,0,
3,34656, Note_on_c,1,57,90,
3,34656, Note_on_c,1,62,90,
3,34656, Note_on_c,1,66,90,
3,34740, Note_off_c,1,66,0,
3,34740, Note_off_c,1,62,0,
3,34740, Note_off_c,1,57,0,
3,34752, Note_on_c,1,57,90,
3,34752, Note_on_c,1,62,90,
3,34752, Note_on_c,1,66,90,
3,34836, Note_off_c,1,66,0,
3,34836, Note_off_c,1,62,0,
3,34836, Note_off_c,1,57,0,
3,34848, Note_on_c,1,57,90,
3,34848, Note_on_c,1,62,90,
3,34848, Note_on_c,1,66,90,
3,34848, Note_on_c,1,50,90,
3,35028, Note_off_c,1,66,0,
3,35028, Note_off_c,1,62,0,
3,35028, Note_off_c,1,57,0,
3,35040, Note_on_c,1,66,90,
3,35040, Note_on_c,1,62,90,
3,35040, Note_on_c,1,57,90,
3,35076, Note_off_c,1,57,0,
3,35076, Note_off_c,1,62,0,
3,35076, Note_off_c,1,66,0,
3,35088, Note_on_c,1,57,90,
3,35088, Note_on_c,1,62,90,
3,35088, Note_on_c,1,66,90,
3,35124, Note_off_c,1,66,0,
3,35124, Note_off_c,1,62,0,
3,35124, Note_off_c,1,57,0,
3,35136, Note_on_c,1,66,90,
3,35136, Note_on_c,1,62,90,
3,35136, Note_on_c,1,57,90,
3,35220, Note_off_c,1,57,0,
3,35220, Note_off_c,1,62,0,
3,35220, Note_off_c,1,66,0,
3,35232, Note_on_c,1,64,90,
3,35232, Note_on_c,1,59,90,
3,35232, Note_on_c,1,55,90,
3,35268, Note_off_c,1,55,0,
3,35268, Note_off_c,1,59,0,
3,35268, Note_off_c,1,64,0,
3,35280, Note_on_c,1,64,90,
3,35280, Note_on_c,1,59,90,
3,35280, Note_on_c,1,55,90,
3,35316, Note_off_c,1,59,0,
3,35316, Note_off_c,1,50,0,
3,35328, Note_off_c,1,64,0,
3,35328, Note_off_c,1,55,0,
3,35328, Note_on_c,1,52,90,
3,35328, Note_on_c,1,55,90,
3,35328, Note_on_c,1,60,90,
3,35328, Note_on_c,1,67,90,
3,35412, Note_off_c,1,67,0,
3,35412, Note_off_c,1,60,0,
3,35412, Note_off_c,1,55,0,
3,35412, Note_off_c,1,52,0,
3,35424, Note_on_c,1,60,90,
3,35424, Note_on_c,1,55,90,
3,35424, Note_on_c,1,52,90,
3,35424, Note_on_c,1,67,90,
3,35460, Note_off_c,1,67,0,
3,35460, Note_off_c,1,52,0,
3,35460, Note_off_c,1,55,0,
3,35460, Note_off_c,1,60,0,
3,35472, Note_on_c,1,67,90,
3,35472, Note_on_c,1,60,90,
3,35472, Note_on_c,1,55,90,
3,35508, Note_off_c,1,55,0,
3,35508, Note_off_c,1,60,0,
3,35508, Note_off_c,1,67,0,
3,35520, Note_on_c,1,55,90,
3,35520, Note_on_c,1,52,90,
3,35520, Note_on_c,1,60,90,
3,35520, Note_on_c,1,67,90,
3,35604, Note_off_c,1,67,0,
3,35604, Note_off_c,1,60,0,
3,35604, Note_off_c,1,52,0,
3,35604, Note_off_c,1,55,0,
3,35616, Note_on_c,1,55,90,
3,35616, Note_on_c,1,52,90,
3,35616, Note_on_c,1,60,90,
3,35616, Note_on_c,1,67,90,
3,35796, Note_off_c,1,67,0,
3,35796, Note_off_c,1,60,0,
3,35796, Note_off_c,1,52,0,
3,35796, Note_off_c,1,55,0,
3,35808, Note_on_c,1,55,90,
3,35808, Note_on_c,1,60,90,
3,35808, Note_on_c,1,64,90,
3,35892, Note_off_c,1,64,0,
3,35892, Note_off_c,1,60,0,
3,35892, Note_off_c,1,55,0,
3,36000, Note_on_c,1,64,90,
3,36000, Note_on_c,1,67,90,
3,36000, Note_on_c,1,71,90,
3,36084, Note_off_c,1,71,0,
3,36084, Note_off_c,1,67,0,
3,36084, Note_off_c,1,64,0,
3,36192, Note_on_c,1,62,90,
3,36192, Note_on_c,1,66,90,
3,36192, Note_on_c,1,69,90,
3,36276, Note_off_c,1,69,0,
3,36276, Note_off_c,1,66,0,
3,36276, Note_off_c,1,62,0,
3,36384, Note_on_c,1,60,90,
3,36384, Note_on_c,1,64,90,
3,36384, Note_on_c,1,67,90,
3,36468, Note_off_c,1,67,0,
3,36468, Note_off_c,1,64,0,
3,36468, Note_off_c,1,60,0,
3,36576, Note_on_c,1,62,90,
3,36576, Note_on_c,1,66,90,
3,36576, Note_on_c,1,69,90,
3,36768, Note_on_c,1,45,90,
3,36852, Note_off_c,1,45,0,
3,36852, Note_off_c,1,66,0,
3,36852, Note_off_c,1,62,0,
3,36864, Note_off_c,1,69,0,
3,36864, Note_on_c,1,48,90,
3,36864, Note_on_c,1,45,90,
3,36865, Note_off_c,1,45,0,
3,36960, Note_on_c,1,52,90,
3,37044, Note_off_c,1,52,0,
3,37056, Note_on_c,1,55,90,
3,37140, Note_off_c,1,55,0,
3,37152, Note_on_c,1,60,90,
3,37236, Note_off_c,1,48,0,
3,37236, Note_off_c,1,60,0,
3,37248, Note_on_c,1,47,90,
3,37344, Note_on_c,1,50,90,
3,37428, Note_off_c,1,50,0,
3,37440, Note_on_c,1,55,90,
3,37524, Note_off_c,1,55,0,
3,37536, Note_on_c,1,62,90,
3,37620, Note_off_c,1,47,0,
3,37620, Note_off_c,1,62,0,
3,37632, Note_on_c,1,59,90,
3,37632, Note_on_c,1,60,90,
3,37633, Note_off_c,1,59,0,
3,37716, Note_off_c,1,60,0,
3,37728, Note_on_c,1,57,90,
3,37812, Note_off_c,1,57,0,
3,37824, Note_on_c,1,45,90,
3,37920, Note_on_c,1,52,90,
3,38004, Note_off_c,1,52,0,
3,38016, Note_on_c,1,57,90,
3,38100, Note_off_c,1,57,0,
3,38112, Note_on_c,1,60,90,
3,38196, Note_off_c,1,45,0,
3,38196, Note_off_c,1,60,0,
3,38208, Note_on_c,1,45,90,
3,38292, Note_off_c,1,45,0,
3,38304, Note_on_c,1,47,90,
3,38388, Note_off_c,1,47,0,
3,38400, Note_on_c,1,48,90,
3,38496, Note_on_c,1,52,90,
3,38580, Note_off_c,1,52,0,
3,38592, Note_on_c,1,55,90,
3,38676, Note_off_c,1,55,0,
3,38688, Note_on_c,1,60,90,
3,38772, Note_off_c,1,48,0,
3,38772, Note_off_c,1,60,0,
3,38784, Note_on_c,1,47,90,
3,38880, Note_on_c,1,50,90,
3,38964, Note_off_c,1,50,0,
3,38976, Note_on_c,1,55,90,
3,39060, Note_off_c,1,47,0,
3,39060, Note_off_c,1,55,0,
3,39072, Note_on_c,1,64,90,
3,39072, Note_on_c,1,59,90,
3,39072, Note_on_c,1,57,90,
3,39072, Note_on_c,1,48,90,
3,39072, Note_on_c,1,41,90,
3,39252, Note_off_c,1,41,0,
3,39252, Note_off_c,1,48,0,
3,39252, Note_off_c,1,57,0,
3,39252, Note_off_c,1,59,0,
3,39252, Note_off_c,1,64,0,
3,39264, Note_on_c,1,64,90,
3,39264, Note_on_c,1,60,90,
3,39264, Note_on_c,1,57,90,
3,39264, Note_on_c,1,52,90,
3,39264, Note_on_c,1,45,90,
3,39732, Note_off_c,1,45,0,
3,39732, Note_off_c,1,52,0,
3,39732, Note_off_c,1,57,0,
3,39732, Note_off_c,1,60,0,
3,39732, Note_off_c,1,64,0,
3,39744, Note_on_c,1,45,90,
3,39828, Note_off_c,1,45,0,
3,39840, Note_on_c,1,47,90,
3,39924, Note_off_c,1,47,0,
3,39936, Note_on_c,1,48,90,
3,40032, Note_on_c,1,52,90,
3,40116, Note_off_c,1,52,0,
3,40128, Note_on_c,1,55,90,
3,40212, Note_off_c,1,55,0,
3,40224, Note_on_c,1,60,90,
3,40308, Note_off_c,1,48,0,
3,40308, Note_off_c,1,60,0,
3,40320, Note_on_c,1,47,90,
3,40416, Note_on_c,1,50,90,
3,40500, Note_off_c,1,50,0,
3,40512, Note_on_c,1,55,90,
3,40596, Note_off_c,1,55,0,
3,40608, Note_on_c,1,62,90,
3,40692, Note_off_c,1,47,0,
3,40692, Note_off_c,1,62,0,
3,40704, Note_on_c,1,59,90,
3,40704, Note_on_c,1,45,90,
3,40740, Note_off_c,1,59,0,
3,40752, Note_on_c,1,60,90,
3,40788, Note_off_c,1,60,0,
3,40800, Note_on_c,1,57,90,
3,40884, Note_off_c,1,45,0,
3,40884, Note_off_c,1,57,0,
3,40896, Note_on_c,1,45,90,
3,40992, Note_on_c,1,52,90,
3,41076, Note_off_c,1,52,0,
3,41088, Note_on_c,1,57,90,
3,41172, Note_off_c,1,57,0,
3,41184, Note_on_c,1,60,90,
3,41268, Note_off_c,1,45,0,
3,41268, Note_off_c,1,60,0,
3,41280, Note_on_c,1,45,90,
3,41364, Note_off_c,1,45,0,
3,41376, Note_on_c,1,47,90,
3,41460, Note_off_c,1,47,0,
3,41472, Note_on_c,1,48,90,
3,41568, Note_on_c,1,52,90,
3,41652, Note_off_c,1,52,0,
3,41664, Note_on_c,1,55,90,
3,41748, Note_off_c,1,55,0,
3,41760, Note_on_c,1,60,90,
3,41844, Note_off_c,1,48,0,
3,41844, Note_off_c,1,60,0,
3,41856, Note_on_c,1,47,90,
3,41952, Note_on_c,1,50,90,
3,42036, Note_off_c,1,50,0,
3,42048, Note_on_c,1,55,90,
3,42132, Note_off_c,1,47,0,
3,42132, Note_off_c,1,55,0,
3,42144, Note_on_c,1,48,90,
3,42144, Note_on_c,1,41,90,
3,42144, Note_on_c,1,53,90,
3,42144, Note_on_c,1,57,90,
3,42144, Note_on_c,1,60,90,
3,42144, Note_on_c,1,64,90,
3,42324, Note_off_c,1,64,0,
3,42324, Note_off_c,1,60,0,
3,42324, Note_off_c,1,57,0,
3,42324, Note_off_c,1,53,0,
3,42324, Note_off_c,1,41,0,
3,42324, Note_off_c,1,48,0,
3,42336, Note_on_c,1,64,90,
3,42336, Note_on_c,1,60,90,
3,42336, Note_on_c,1,57,90,
3,42336, Note_on_c,1,52,90,
3,42336, Note_on_c,1,45,90,
3,42804, Note_off_c,1,45,0,
3,42804, Note_off_c,1,52,0,
3,42804, Note_off_c,1,57,0,
3,42804, Note_off_c,1,60,0,
3,42804, Note_off_c,1,64,0,
3,42816, Note_on_c,1,45,90,
3,42900, Note_off_c,1,45,0,
3,42912, Note_on_c,1,47,90,
3,42996, Note_off_c,1,47,0,
3,43008, Note_on_c,1,48,90,
3,43104, Note_on_c,1,52,90,
3,43188, Note_off_c,1,52,0,
3,43200, Note_on_c,1,55,90,
3,43284, Note_off_c,1,55,0,
3,43296, Note_on_c,1,60,90,
3,43380, Note_off_c,1,48,0,
3,43380, Note_off_c,1,60,0,
3,43392, Note_on_c,1,47,90,
3,43488, Note_on_c,1,50,90,
3,43572, Note_off_c,1,50,0,
3,43584, Note_on_c,1,55,90,
3,43668, Note_off_c,1,55,0,
3,43680, Note_on_c,1,62,90,
3,43764, Note_off_c,1,47,0,
3,43764, Note_off_c,1,62,0,
3,43776, Note_on_c,1,52,90,
3,43776, Note_on_c,1,60,90,
3,43776, Note_on_c,1,67,90,
3,43776, Note_on_c,1,55,90,
3,43860, Note_off_c,1,55,0,
3,43860, Note_off_c,1,67,0,
3,43860, Note_off_c,1,60,0,
3,43860, Note_off_c,1,52,0,
3,43872, Note_on_c,1,52,90,
3,43872, Note_on_c,1,60,90,
3,43872, Note_on_c,1,67,90,
3,43872, Note_on_c,1,55,90,
3,43908, Note_off_c,1,55,0,
3,43908, Note_off_c,1,67,0,
3,43908, Note_off_c,1,60,0,
3,43908, Note_off_c,1,52,0,
3,43920, Note_on_c,1,60,90,
3,43920, Note_on_c,1,67,90,
3,43920, Note_on_c,1,55,90,
3,43956, Note_off_c,1,55,0,
3,43956, Note_off_c,1,67,0,
3,43956, Note_off_c,1,60,0,
3,43968, Note_on_c,1,52,90,
3,43968, Note_on_c,1,60,90,
3,43968, Note_on_c,1,67,90,
3,43968, Note_on_c,1,55,90,
3,44052, Note_off_c,1,55,0,
3,44052, Note_off_c,1,67,0,
3,44052, Note_off_c,1,60,0,
3,44052, Note_off_c,1,52,0,
3,44064, Note_on_c,1,52,90,
3,44064, Note_on_c,1,60,90,
3,44064, Note_on_c,1,55,90,
3,44244, Note_off_c,1,55,0,
3,44244, Note_off_c,1,60,0,
3,44244, Note_off_c,1,52,0,
3,44256, Note_on_c,1,60,90,
3,44256, Note_on_c,1,64,90,
3,44256, Note_on_c,1,55,90,
3,44436, Note_off_c,1,55,0,
3,44436, Note_off_c,1,64,0,
3,44436, Note_off_c,1,60,0,
3,44448, Note_on_c,1,64,90,
3,44448, Note_on_c,1,55,90,
3,44460, Note_on_c,1,62,90,
3,44628, Note_off_c,1,62,0,
3,44628, Note_off_c,1,55,0,
3,44628, Note_off_c,1,64,0,
3,44640, Note_on_c,1,57,90,
3,44640, Note_on_c,1,62,90,
3,44640, Note_on_c,1,66,90,
3,44832, Note_on_c,1,45,90,
3,44916, Note_off_c,1,45,0,
3,44916, Note_off_c,1,66,0,
3,44916, Note_off_c,1,62,0,
3,44916, Note_off_c,1,57,0,
3,44928, Note_on_c,1,57,90,
3,44928, Note_on_c,1,62,90,
3,44928, Note_on_c,1,66,90,
3,45012, Note_off_c,1,66,0,
3,45012, Note_off_c,1,62,0,
3,45012, Note_off_c,1,57,0,
3,45024, Note_on_c,1,66,90,
3,45024, Note_on_c,1,62,90,
3,45024, Note_on_c,1,57,90,
3,45060, Note_off_c,1,57,0,
3,45060, Note_off_c,1,62,0,
3,45060, Note_off_c,1,66,0,
3,45072, Note_on_c,1,57,90,
3,45072, Note_on_c,1,62,90,
3,45072, Note_on_c,1,66,90,
3,45108, Note_off_c,1,66,0,
3,45108, Note_off_c,1,62,0,
3,45108, Note_off_c,1,57,0,
3,45120, Note_on_c,1,66,90,
3,45120, Note_on_c,1,62,90,
3,45120, Note_on_c,1,57,90,
3,45204, Note_off_c,1,57,0,
3,45204, Note_off_c,1,62,0,
3,45204, Note_off_c,1,66,0,
3,45216, Note_on_c,1,64,90,
3,45216, Note_on_c,1,59,90,
3,45216, Note_on_c,1,55,90,
3,45300, Note_off_c,1,55,0,
3,45300, Note_off_c,1,59,0,
3,45300, Note_off_c,1,64,0,
3,45312, Note_on_c,1,52,90,
3,45312, Note_on_c,1,55,90,
3,45312, Note_on_c,1,60,90,
3,45312, Note_on_c,1,67,90,
3,45396, Note_off_c,1,67,0,
3,45396, Note_off_c,1,60,0,
3,45396, Note_off_c,1,55,0,
3,45396, Note_off_c,1,52,0,
3,45408, Note_on_c,1,60,90,
3,45408, Note_on_c,1,55,90,
3,45408, Note_on_c,1,52,90,
3,45408, Note_on_c,1,67,90,
3,45444, Note_off_c,1,67,0,
3,45444, Note_off_c,1,52,0,
3,45444, Note_off_c,1,55,0,
3,45444, Note_off_c,1,60,0,
3,45456, Note_on_c,1,67,90,
3,45456, Note_on_c,1,60,90,
3,45456, Note_on_c,1,55,90,
3,45492, Note_off_c,1,55,0,
3,45492, Note_off_c,1,60,0,
3,45492, Note_off_c,1,67,0,
3,45504, Note_on_c,1,55,90,
3,45504, Note_on_c,1,52,90,
3,45504, Note_on_c,1,60,90,
3,45504, Note_on_c,1,67,90,
3,45588, Note_off_c,1,67,0,
3,45588, Note_off_c,1,60,0,
3,45588, Note_off_c,1,52,0,
3,45588, Note_off_c,1,55,0,
3,45600, Note_on_c,1,55,90,
3,45600, Note_on_c,1,52,90,
3,45600, Note_on_c,1,67,90,
3,45780, Note_off_c,1,67,0,
3,45780, Note_off_c,1,52,0,
3,45780, Note_off_c,1,55,0,
3,45792, Note_on_c,1,55,90,
3,45792, Note_on_c,1,60,90,
3,45792, Note_on_c,1,64,90,
3,45876, Note_off_c,1,64,0,
3,45876, Note_off_c,1,60,0,
3,45876, Note_off_c,1,55,0,
3,45984, Note_on_c,1,64,90,
3,45984, Note_on_c,1,67,90,
3,45984, Note_on_c,1,71,90,
3,46068, Note_off_c,1,71,0,
3,46068, Note_off_c,1,67,0,
3,46068, Note_off_c,1,64,0,
3,46176, Note_on_c,1,62,90,
3,46176, Note_on_c,1,66,90,
3,46176, Note_on_c,1,69,90,
3,46260, Note_off_c,1,69,0,
3,46260, Note_off_c,1,66,0,
3,46260, Note_off_c,1,62,0,
3,46368, Note_on_c,1,60,90,
3,46368, Note_on_c,1,64,90,
3,46368, Note_on_c,1,67,90,
3,46452, Note_off_c,1,67,0,
3,46452, Note_off_c,1,64,0,
3,46452, Note_off_c,1,60,0,
3,46560, Note_on_c,1,62,90,
3,46560, Note_on_c,1,66,90,
3,46560, Note_on_c,1,69,90,
3,46644, Note_off_c,1,69,0,
3,46644, Note_off_c,1,66,0,
3,46644, Note_off_c,1,62,0,
3,46752, Note_on_c,1,52,90,
3,46752, Note_on_c,1,45,90,
3,46836, Note_off_c,1,45,0,
3,46836, Note_off_c,1,52,0,
3,46848, Note_on_c,1,52,90,
3,46848, Note_on_c,1,60,90,
3,46848, Note_on_c,1,67,90,
3,46848, Note_on_c,1,55,90,
3,46932, Note_off_c,1,55,0,
3,46932, Note_off_c,1,67,0,
3,46932, Note_off_c,1,60,0,
3,46932, Note_off_c,1,52,0,
3,46944, Note_on_c,1,52,90,
3,46944, Note_on_c,1,60,90,
3,46944, Note_on_c,1,67,90,
3,46944, Note_on_c,1,55,90,
3,46980, Note_off_c,1,55,0,
3,46980, Note_off_c,1,67,0,
3,46980, Note_off_c,1,60,0,
3,46980, Note_off_c,1,52,0,
3,46992, Note_on_c,1,60,90,
3,46992, Note_on_c,1,67,90,
3,46992, Note_on_c,1,55,90,
3,47028, Note_off_c,1,55,0,
3,47028, Note_off_c,1,67,0,
3,47028, Note_off_c,1,60,0,
3,47040, Note_on_c,1,52,90,
3,47040, Note_on_c,1,60,90,
3,47040, Note_on_c,1,67,90,
3,47040, Note_on_c,1,55,90,
3,47124, Note_off_c,1,55,0,
3,47124, Note_off_c,1,67,0,
3,47124, Note_off_c,1,60,0,
3,47124, Note_off_c,1,52,0,
3,47136, Note_on_c,1,52,90,
3,47136, Note_on_c,1,55,90,
3,47136, Note_on_c,1,67,64,
3,47316, Note_off_c,1,67,0,
3,47316, Note_off_c,1,55,0,
3,47316, Note_off_c,1,52,0,
3,47328, Note_on_c,1,60,90,
3,47328, Note_on_c,1,64,90,
3,47328, Note_on_c,1,55,90,
3,47508, Note_off_c,1,55,0,
3,47508, Note_off_c,1,64,0,
3,47508, Note_off_c,1,60,0,
3,47520, Note_on_c,1,64,90,
3,47520, Note_on_c,1,55,90,
3,47532, Note_on_c,1,62,90,
3,47700, Note_off_c,1,62,0,
3,47700, Note_off_c,1,55,0,
3,47700, Note_off_c,1,64,0,
3,47712, Note_on_c,1,57,90,
3,47712, Note_on_c,1,62,90,
3,47712, Note_on_c,1,66,90,
3,47796, Note_off_c,1,66,0,
3,47796, Note_off_c,1,62,0,
3,47796, Note_off_c,1,57,0,
3,47808, Note_on_c,1,57,90,
3,47808, Note_on_c,1,62,90,
3,47808, Note_on_c,1,66,90,
3,47892, Note_off_c,1,66,0,
3,47892, Note_off_c,1,62,0,
3,47892, Note_off_c,1,57,0,
3,47904, Note_on_c,1,45,90,
3,47904, Note_on_c,1,57,90,
3,47904, Note_on_c,1,62,90,
3,47904, Note_on_c,1,66,90,
3,48084, Note_off_c,1,66,0,
3,48084, Note_off_c,1,62,0,
3,48084, Note_off_c,1,57,0,
3,48096, Note_on_c,1,66,90,
3,48096, Note_on_c,1,62,90,
3,48096, Note_on_c,1,57,90,
3,48132, Note_off_c,1,57,0,
3,48132, Note_off_c,1,62,0,
3,48132, Note_off_c,1,66,0,
3,48144, Note_on_c,1,57,90,
3,48144, Note_on_c,1,62,90,
3,48144, Note_on_c,1,66,90,
3,48180, Note_off_c,1,66,0,
3,48180, Note_off_c,1,62,0,
3,48180, Note_off_c,1,57,0,
3,48192, Note_on_c,1,66,90,
3,48192, Note_on_c,1,62,90,
3,48192, Note_on_c,1,57,90,
3,48276, Note_off_c,1,57,0,
3,48276, Note_off_c,1,62,0,
3,48276, Note_off_c,1,66,0,
3,48288, Note_on_c,1,64,90,
3,48288, Note_on_c,1,59,90,
3,48288, Note_on_c,1,55,90,
3,48324, Note_off_c,1,55,0,
3,48324, Note_off_c,1,59,0,
3,48324, Note_off_c,1,64,0,
3,48336, Note_on_c,1,64,90,
3,48336, Note_on_c,1,59,90,
3,48336, Note_on_c,1,55,90,
3,48372, Note_off_c,1,59,0,
3,48372, Note_off_c,1,45,0,
3,48384, Note_off_c,1,64,0,
3,48384, Note_off_c,1,55,0,
3,48384, Note_on_c,1,52,90,
3,48384, Note_on_c,1,55,90,
3,48384, Note_on_c,1,60,90,
3,48384, Note_on_c,1,67,90,
3,48468, Note_off_c,1,67,0,
3,48468, Note_off_c,1,60,0,
3,48468, Note_off_c,1,55,0,
3,48468, Note_off_c,1,52,0,
3,48480, Note_on_c,1,60,90,
3,48480, Note_on_c,1,55,90,
3,48480, Note_on_c,1,52,90,
3,48480, Note_on_c,1,67,90,
3,48516, Note_off_c,1,67,0,
3,48516, Note_off_c,1,52,0,
3,48516, Note_off_c,1,55,0,
3,48516, Note_off_c,1,60,0,
3,48528, Note_on_c,1,67,90,
3,48528, Note_on_c,1,60,90,
3,48528, Note_on_c,1,55,90,
3,48564, Note_off_c,1,55,0,
3,48564, Note_off_c,1,60,0,
3,48564, Note_off_c,1,67,0,
3,48576, Note_on_c,1,55,90,
3,48576, Note_on_c,1,52,90,
3,48576, Note_on_c,1,60,90,
3,48576, Note_on_c,1,67,90,
3,48660, Note_off_c,1,67,0,
3,48660, Note_off_c,1,60,0,
3,48660, Note_off_c,1,52,0,
3,48660, Note_off_c,1,55,0,
3,48672, Note_on_c,1,55,90,
3,48672, Note_on_c,1,52,90,
3,48672, Note_on_c,1,67,90,
3,48852, Note_off_c,1,67,0,
3,48852, Note_off_c,1,52,0,
3,48852, Note_off_c,1,55,0,
3,48864, Note_on_c,1,55,90,
3,48864, Note_on_c,1,60,90,
3,48864, Note_on_c,1,64,90,
3,48948, Note_off_c,1,64,0,
3,48948, Note_off_c,1,60,0,
3,48948, Note_off_c,1,55,0,
3,49056, Note_on_c,1,64,90,
3,49056, Note_on_c,1,67,90,
3,49056, Note_on_c,1,71,90,
3,49140, Note_off_c,1,71,0,
3,49140, Note_off_c,1,67,0,
3,49140, Note_off_c,1,64,0,
3,49248, Note_on_c,1,62,90,
3,49248, Note_on_c,1,66,90,
3,49248, Note_on_c,1,69,90,
3,49332, Note_off_c,1,69,0,
3,49332, Note_off_c,1,66,0,
3,49332, Note_off_c,1,62,0,
3,49440, Note_on_c,1,60,90,
3,49440, Note_on_c,1,64,90,
3,49440, Note_on_c,1,67,90,
3,49524, Note_off_c,1,67,0,
3,49524, Note_off_c,1,64,0,
3,49524, Note_off_c,1,60,0,
3,49632, Note_on_c,1,62,90,
3,49632, Note_on_c,1,66,90,
3,49632, Note_on_c,1,69,90,
3,49824, Note_on_c,1,45,90,
3,49908, Note_off_c,1,45,0,
3,49908, Note_off_c,1,66,0,
3,49908, Note_off_c,1,62,0,
3,49920, Note_off_c,1,69,0,
3,49920, Note_on_c,1,48,90,
3,49920, Note_on_c,1,45,90,
3,49921, Note_off_c,1,45,0,
3,50016, Note_on_c,1,52,90,
3,50100, Note_off_c,1,52,0,
3,50112, Note_on_c,1,55,90,
3,50196, Note_off_c,1,55,0,
3,50208, Note_on_c,1,60,90,
3,50292, Note_off_c,1,48,0,
3,50292, Note_off_c,1,60,0,
3,50304, Note_on_c,1,47,90,
3,50400, Note_on_c,1,50,90,
3,50484, Note_off_c,1,50,0,
3,50496, Note_on_c,1,55,90,
3,50580, Note_off_c,1,55,0,
3,50592, Note_on_c,1,62,90,
3,50676, Note_off_c,1,47,0,
3,50676, Note_off_c,1,62,0,
3,50688, Note_on_c,1,59,90,
3,50688, Note_on_c,1,60,90,
3,50689, Note_off_c,1,59,0,
3,50772, Note_off_c,1,60,0,
3,50784, Note_on_c,1,57,90,
3,50868, Note_off_c,1,57,0,
3,50880, Note_on_c,1,45,90,
3,50976, Note_on_c,1,52,90,
3,51060, Note_off_c,1,52,0,
3,51072, Note_on_c,1,57,90,
3,51156, Note_off_c,1,57,0,
3,51168, Note_on_c,1,60,90,
3,51252, Note_off_c,1,45,0,
3,51252, Note_off_c,1,60,0,
3,51264, Note_on_c,1,45,90,
3,51348, Note_off_c,1,45,0,
3,51360, Note_on_c,1,47,90,
3,51444, Note_off_c,1,47,0,
3,51456, Note_on_c,1,48,90,
3,51552, Note_on_c,1,52,90,
3,51636, Note_off_c,1,52,0,
3,51648, Note_on_c,1,55,90,
3,51732, Note_off_c,1,55,0,
3,51744, Note_on_c,1,60,90,
3,51828, Note_off_c,1,48,0,
3,51828, Note_off_c,1,60,0,
3,51840, Note_on_c,1,47,90,
3,51936, Note_on_c,1,50,90,
3,52020, Note_off_c,1,50,0,
3,52032, Note_on_c,1,55,90,
3,52116, Note_off_c,1,47,0,
3,52116, Note_off_c,1,55,0,
3,52128, Note_on_c,1,64,90,
3,52128, Note_on_c,1,59,90,
3,52128, Note_on_c,1,57,90,
3,52128, Note_on_c,1,48,90,
3,52128, Note_on_c,1,41,90,
3,52308, Note_off_c,1,41,0,
3,52308, Note_off_c,1,48,0,
3,52308, Note_off_c,1,57,0,
3,52308, Note_off_c,1,59,0,
3,52308, Note_off_c,1,64,0,
3,52320, Note_on_c,1,64,90,
3,52320, Note_on_c,1,60,90,
3,52320, Note_on_c,1,57,90,
3,52320, Note_on_c,1,52,90,
3,52320, Note_on_c,1,45,90,
3,52788, Note_off_c,1,45,0,
3,52788, Note_off_c,1,52,0,
3,52788, Note_off_c,1,57,0,
3,52788, Note_off_c,1,60,0,
3,52788, Note_off_c,1,64,0,
3,52800, Note_on_c,1,45,90,
3,52884, Note_off_c,1,45,0,
3,52896, Note_on_c,1,47,90,
3,52980, Note_off_c,1,47,0,
3,52992, Note_on_c,1,48,90,
3,53088, Note_on_c,1,52,90,
3,53172, Note_off_c,1,52,0,
3,53184, Note_on_c,1,55,90,
3,53268, Note_off_c,1,55,0,
3,53280, Note_on_c,1,60,90,
3,53364, Note_off_c,1,48,0,
3,53364, Note_off_c,1,60,0,
3,53376, Note_on_c,1,47,90,
3,53472, Note_on_c,1,50,90,
3,53556, Note_off_c,1,50,0,
3,53568, Note_on_c,1,55,90,
3,53652, Note_off_c,1,55,0,
3,53664, Note_on_c,1,62,90,
3,53748, Note_off_c,1,47,0,
3,53748, Note_off_c,1,62,0,
3,53760, Note_on_c,1,59,90,
3,53760, Note_on_c,1,45,90,
3,53796, Note_off_c,1,59,0,
3,53808, Note_on_c,1,60,90,
3,53844, Note_off_c,1,60,0,
3,53856, Note_on_c,1,57,90,
3,53940, Note_off_c,1,45,0,
3,53940, Note_off_c,1,57,0,
3,53952, Note_on_c,1,45,90,
3,54048, Note_on_c,1,52,90,
3,54132, Note_off_c,1,52,0,
3,54144, Note_on_c,1,57,90,
3,54228, Note_off_c,1,57,0,
3,54240, Note_on_c,1,60,90,
3,54324, Note_off_c,1,45,0,
3,54324, Note_off_c,1,60,0,
3,54336, Note_on_c,1,45,90,
3,54420, Note_off_c,1,45,0,
3,54432, Note_on_c,1,47,90,
3,54516, Note_off_c,1,47,0,
3,54528, Note_on_c,1,48,90,
3,54624, Note_on_c,1,52,90,
3,54708, Note_off_c,1,52,0,
3,54720, Note_on_c,1,55,90,
3,54804, Note_off_c,1,55,0,
3,54816, Note_on_c,1,60,90,
3,54900, Note_off_c,1,48,0,
3,54900, Note_off_c,1,60,0,
3,54912, Note_on_c,1,47,90,
3,55008, Note_on_c,1,50,90,
3,55092, Note_off_c,1,50,0,
3,55104, Note_on_c,1,55,90,
3,55188, Note_off_c,1,47,0,
3,55188, Note_off_c,1,55,0,
3,55200, Note_on_c,1,48,90,
3,55200, Note_on_c,1,41,90,
3,55200, Note_on_c,1,53,90,
3,55200, Note_on_c,1,57,90,
3,55200, Note_on_c,1,60,90,
3,55200, Note_on_c,1,64,90,
3,55380, Note_off_c,1,64,0,
3,55380, Note_off_c,1,60,0,
3,55380, Note_off_c,1,57,0,
3,55380, Note_off_c,1,53,0,
3,55380, Note_off_c,1,41,0,
3,55380, Note_off_c,1,48,0,
3,55392, Note_on_c,1,64,90,
3,55392, Note_on_c,1,60,90,
3,55392, Note_on_c,1,57,90,
3,55392, Note_on_c,1,52,90,
3,55392, Note_on_c,1,45,90,
3,55860, Note_off_c,1,45,0,
3,55860, Note_off_c,1,52,0,
3,55860, Note_off_c,1,57,0,
3,55860, Note_off_c,1,60,0,
3,55860, Note_off_c,1,64,0,
3,55872, Note_on_c,1,45,90,
3,55956, Note_off_c,1,45,0,
3,55968, Note_on_c,1,47,90,
3,56052, Note_off_c,1,47,0,
3,56064, Note_on_c,1,48,90,
3,56160, Note_on_c,1,52,90,
3,56244, Note_off_c,1,52,0,
3,56256, Note_on_c,1,55,90,
3,56340, Note_off_c,1,55,0,
3,56352, Note_on_c,1,60,90,
3,56436, Note_off_c,1,48,0,
3,56436, Note_off_c,1,60,0,
3,56448, Note_on_c,1,47,90,
3,56544, Note_on_c,1,50,90,
3,56628, Note_off_c,1,50,0,
3,56640, Note_on_c,1,55,90,
3,56724, Note_off_c,1,55,0,
3,56736, Note_on_c,1,62,90,
3,56820, Note_off_c,1,47,0,
3,56820, Note_off_c,1,62,0,
3,56832, Note_on_c,1,52,90,
3,56832, Note_on_c,1,57,90,
3,56832, Note_on_c,1,60,90,
3,56832, Note_on_c,1,67,90,
3,56916, Note_off_c,1,67,0,
3,56916, Note_off_c,1,60,0,
3,56916, Note_off_c,1,57,0,
3,56916, Note_off_c,1,52,0,
3,56928, Note_on_c,1,67,90,
3,56928, Note_on_c,1,60,90,
3,56928, Note_on_c,1,57,90,
3,56928, Note_on_c,1,52,90,
3,56964, Note_off_c,1,52,0,
3,56964, Note_off_c,1,57,0,
3,56964, Note_off_c,1,60,0,
3,56964, Note_off_c,1,67,0,
3,56976, Note_on_c,1,52,90,
3,56976, Note_on_c,1,57,90,
3,56976, Note_on_c,1,60,90,
3,56976, Note_on_c,1,67,90,
3,57012, Note_off_c,1,67,0,
3,57012, Note_off_c,1,60,0,
3,57012, Note_off_c,1,57,0,
3,57012, Note_off_c,1,52,0,
3,57024, Note_on_c,1,67,90,
3,57024, Note_on_c,1,60,90,
3,57024, Note_on_c,1,57,90,
3,57024, Note_on_c,1,52,90,
3,57108, Note_off_c,1,52,0,
3,57108, Note_off_c,1,57,0,
3,57108, Note_off_c,1,60,0,
3,57108, Note_off_c,1,67,0,
3,57120, Note_on_c,1,52,90,
3,57120, Note_on_c,1,57,90,
3,57120, Note_on_c,1,60,90,
3,57120, Note_on_c,1,67,90,
3,57204, Note_off_c,1,67,0,
3,57204, Note_off_c,1,60,0,
3,57204, Note_off_c,1,57,0,
3,57204, Note_off_c,1,52,0,
3,57312, Note_on_c,1,55,90,
3,57312, Note_on_c,1,60,90,
3,57312, Note_on_c,1,64,90,
3,57396, Note_off_c,1,64,0,
3,57396, Note_off_c,1,60,0,
3,57396, Note_off_c,1,55,0,
3,57504, Note_on_c,1,64,90,
3,57504, Note_on_c,1,62,90,
3,57504, Note_on_c,1,55,90,
3,57588, Note_off_c,1,55,0,
3,57588, Note_off_c,1,62,0,
3,57588, Note_off_c,1,64,0,
3,57696, Note_on_c,1,57,90,
3,57696, Note_on_c,1,62,90,
3,57696, Note_on_c,1,66,90,
3,57888, Note_on_c,1,50,90,
3,57972, Note_off_c,1,66,0,
3,57972, Note_off_c,1,62,0,
3,57972, Note_off_c,1,57,0,
3,57984, Note_on_c,1,62,90,
3,57984, Note_on_c,1,66,90,
3,57984, Note_on_c,1,57,90,
3,58068, Note_off_c,1,57,0,
3,58068, Note_off_c,1,66,0,
3,58068, Note_off_c,1,62,0,
3,58080, Note_on_c,1,57,90,
3,58080, Note_on_c,1,62,90,
3,58080, Note_on_c,1,66,90,
3,58116, Note_off_c,1,66,0,
3,58116, Note_off_c,1,62,0,
3,58116, Note_off_c,1,57,0,
3,58128, Note_on_c,1,57,90,
3,58128, Note_on_c,1,62,90,
3,58128, Note_on_c,1,66,90,
3,58164, Note_off_c,1,66,0,
3,58164, Note_off_c,1,62,0,
3,58164, Note_off_c,1,57,0,
3,58176, Note_on_c,1,57,90,
3,58176, Note_on_c,1,62,90,
3,58176, Note_on_c,1,66,90,
3,58260, Note_off_c,1,66,0,
3,58260, Note_off_c,1,62,0,
3,58260, Note_off_c,1,57,0,
3,58272, Note_on_c,1,55,90,
3,58272, Note_on_c,1,59,90,
3,58272, Note_on_c,1,64,90,
3,58308, Note_off_c,1,64,0,
3,58308, Note_off_c,1,59,0,
3,58308, Note_off_c,1,55,0,
3,58320, Note_on_c,1,55,90,
3,58320, Note_on_c,1,59,90,
3,58320, Note_on_c,1,64,90,
3,58344, Note_off_c,1,50,0,
3,58356, Note_off_c,1,55,0,
3,58356, Note_off_c,1,59,0,
3,58368, Note_off_c,1,64,0,
3,58368, Note_on_c,1,52,90,
3,58368, Note_on_c,1,57,90,
3,58368, Note_on_c,1,60,90,
3,58368, Note_on_c,1,67,90,
3,58452, Note_off_c,1,67,0,
3,58452, Note_off_c,1,60,0,
3,58452, Note_off_c,1,57,0,
3,58452, Note_off_c,1,52,0,
3,58464, Note_on_c,1,67,90,
3,58464, Note_on_c,1,60,90,
3,58464, Note_on_c,1,57,90,
3,58464, Note_on_c,1,52,90,
3,58500, Note_off_c,1,52,0,
3,58500, Note_off_c,1,57,0,
3,58500, Note_off_c,1,60,0,
3,58500, Note_off_c,1,67,0,
3,58512, Note_on_c,1,52,90,
3,58512, Note_on_c,1,57,90,
3,58512, Note_on_c,1,60,90,
3,58512, Note_on_c,1,67,90,
3,58548, Note_off_c,1,67,0,
3,58548, Note_off_c,1,60,0,
3,58548, Note_off_c,1,57,0,
3,58548, Note_off_c,1,52,0,
3,58560, Note_on_c,1,67,90,
3,58560, Note_on_c,1,60,90,
3,58560, Note_on_c,1,57,90,
3,58560, Note_on_c,1,52,90,
3,58644, Note_off_c,1,52,0,
3,58644, Note_off_c,1,57,0,
3,58644, Note_off_c,1,60,0,
3,58644, Note_off_c,1,67,0,
3,58656, Note_on_c,1,52,90,
3,58656, Note_on_c,1,57,90,
3,58656, Note_on_c,1,60,90,
3,58656, Note_on_c,1,67,90,
3,58836, Note_off_c,1,67,0,
3,58836, Note_off_c,1,60,0,
3,58836, Note_off_c,1,57,0,
3,58836, Note_off_c,1,52,0,
3,58848, Note_on_c,1,55,90,
3,58848, Note_on_c,1,60,90,
3,58848, Note_on_c,1,64,90,
3,58932, Note_off_c,1,64,0,
3,58932, Note_off_c,1,60,0,
3,58932, Note_off_c,1,55,0,
3,59040, Note_on_c,1,64,90,
3,59040, Note_on_c,1,67,90,
3,59040, Note_on_c,1,71,90,
3,59124, Note_off_c,1,71,0,
3,59124, Note_off_c,1,67,0,
3,59124, Note_off_c,1,64,0,
3,59232, Note_on_c,1,62,90,
3,59232, Note_on_c,1,66,90,
3,59232, Note_on_c,1,69,90,
3,59316, Note_off_c,1,69,0,
3,59316, Note_off_c,1,66,0,
3,59316, Note_off_c,1,62,0,
3,59424, Note_on_c,1,60,90,
3,59424, Note_on_c,1,64,90,
3,59424, Note_on_c,1,67,90,
3,59508, Note_off_c,1,67,0,
3,59508, Note_off_c,1,64,0,
3,59508, Note_off_c,1,60,0,
3,59616, Note_on_c,1,69,90,
3,59616, Note_on_c,1,66,90,
3,59616, Note_on_c,1,62,90,
3,59712, Note_on_c,1,50,90,
3,59796, Note_off_c,1,50,0,
3,59796, Note_off_c,1,62,0,
3,59796, Note_off_c,1,66,0,
3,59796, Note_off_c,1,69,0,
3,59808, Note_on_c,1,45,90,
3,59904, Note_on_c,1,52,90,
3,59904, Note_on_c,1,60,90,
3,59904, Note_on_c,1,67,90,
3,59904, Note_on_c,1,55,90,
3,59988, Note_off_c,1,55,0,
3,59988, Note_off_c,1,67,0,
3,59988, Note_off_c,1,60,0,
3,59988, Note_off_c,1,52,0,
3,60000, Note_on_c,1,67,90,
3,60000, Note_on_c,1,60,90,
3,60000, Note_on_c,1,52,90,
3,60000, Note_on_c,1,55,90,
3,60036, Note_off_c,1,55,0,
3,60036, Note_off_c,1,52,0,
3,60036, Note_off_c,1,60,0,
3,60036, Note_off_c,1,67,0,
3,60048, Note_on_c,1,52,90,
3,60048, Note_on_c,1,60,90,
3,60048, Note_on_c,1,67,90,
3,60048, Note_on_c,1,55,90,
3,60084, Note_off_c,1,55,0,
3,60084, Note_off_c,1,67,0,
3,60084, Note_off_c,1,60,0,
3,60084, Note_off_c,1,52,0,
3,60096, Note_on_c,1,67,90,
3,60096, Note_on_c,1,60,90,
3,60096, Note_on_c,1,52,90,
3,60096, Note_on_c,1,55,90,
3,60180, Note_off_c,1,55,0,
3,60180, Note_off_c,1,52,0,
3,60180, Note_off_c,1,60,0,
3,60180, Note_off_c,1,67,0,
3,60192, Note_on_c,1,52,90,
3,60192, Note_on_c,1,60,90,
3,60192, Note_on_c,1,67,90,
3,60192, Note_on_c,1,55,90,
3,60276, Note_off_c,1,55,0,
3,60276, Note_off_c,1,67,0,
3,60276, Note_off_c,1,60,0,
3,60276, Note_off_c,1,45,0,
3,60276, Note_off_c,1,52,0,
3,60288, Note_on_c,1,64,90,
3,60288, Note_on_c,1,60,90,
3,60288, Note_on_c,1,55,90,
3,60324, Note_off_c,1,55,0,
3,60324, Note_off_c,1,60,0,
3,60324, Note_off_c,1,64,0,
3,60336, Note_on_c,1,55,90,
3,60336, Note_on_c,1,60,90,
3,60336, Note_on_c,1,64,90,
3,60372, Note_off_c,1,64,0,
3,60372, Note_off_c,1,60,0,
3,60372, Note_off_c,1,55,0,
3,60384, Note_on_c,1,55,90,
3,60384, Note_on_c,1,60,90,
3,60384, Note_on_c,1,64,90,
3,60468, Note_off_c,1,64,0,
3,60468, Note_off_c,1,60,0,
3,60468, Note_off_c,1,55,0,
3,60480, Note_on_c,1,64,90,
3,60480, Note_on_c,1,60,90,
3,60480, Note_on_c,1,55,90,
3,60564, Note_off_c,1,55,0,
3,60564, Note_off_c,1,60,0,
3,60564, Note_off_c,1,64,0,
3,60576, Note_on_c,1,55,90,
3,60576, Note_on_c,1,62,90,
3,60576, Note_on_c,1,64,90,
3,60756, Note_off_c,1,64,0,
3,60756, Note_off_c,1,62,0,
3,60756, Note_off_c,1,55,0,
3,60768, Note_on_c,1,57,90,
3,60768, Note_on_c,1,62,90,
3,60768, Note_on_c,1,66,90,
3,61044, Note_off_c,1,66,0,
3,61044, Note_off_c,1,62,0,
3,61044, Note_off_c,1,57,0,
3,61056, Note_on_c,1,62,90,
3,61056, Note_on_c,1,66,90,
3,61056, Note_on_c,1,57,90,
3,61140, Note_off_c,1,57,0,
3,61140, Note_off_c,1,66,0,
3,61140, Note_off_c,1,62,0,
3,61152, Note_on_c,1,57,90,
3,61152, Note_on_c,1,62,90,
3,61152, Note_on_c,1,66,90,
3,61188, Note_off_c,1,66,0,
3,61188, Note_off_c,1,62,0,
3,61188, Note_off_c,1,57,0,
3,61200, Note_on_c,1,57,90,
3,61200, Note_on_c,1,62,90,
3,61200, Note_on_c,1,66,90,
3,61236, Note_off_c,1,66,0,
3,61236, Note_off_c,1,62,0,
3,61236, Note_off_c,1,57,0,
3,61248, Note_on_c,1,57,90,
3,61248, Note_on_c,1,62,90,
3,61248, Note_on_c,1,66,90,
3,61332, Note_off_c,1,66,0,
3,61332, Note_off_c,1,62,0,
3,61332, Note_off_c,1,57,0,
3,61344, Note_on_c,1,55,90,
3,61344, Note_on_c,1,59,90,
3,61344, Note_on_c,1,64,90,
3,61380, Note_off_c,1,64,0,
3,61380, Note_off_c,1,59,0,
3,61380, Note_off_c,1,55,0,
3,61392, Note_on_c,1,55,90,
3,61392, Note_on_c,1,59,90,
3,61392, Note_on_c,1,64,90,
3,61428, Note_off_c,1,59,0,
3,61428, Note_off_c,1,55,0,
3,61440, Note_off_c,1,64,0,
3,61440, Note_on_c,1,52,90,
3,61440, Note_on_c,1,60,90,
3,61440, Note_on_c,1,67,90,
3,61440, Note_on_c,1,55,90,
3,61524, Note_off_c,1,55,0,
3,61524, Note_off_c,1,67,0,
3,61524, Note_off_c,1,60,0,
3,61524, Note_off_c,1,52,0,
3,61536, Note_on_c,1,67,90,
3,61536, Note_on_c,1,60,90,
3,61536, Note_on_c,1,55,90,
3,61572, Note_off_c,1,55,0,
3,61572, Note_off_c,1,60,0,
3,61572, Note_off_c,1,67,0,
3,61584, Note_on_c,1,60,90,
3,61584, Note_on_c,1,67,90,
3,61584, Note_on_c,1,55,90,
3,61620, Note_off_c,1,55,0,
3,61620, Note_off_c,1,67,0,
3,61620, Note_off_c,1,60,0,
3,61632, Note_on_c,1,67,90,
3,61632, Note_on_c,1,60,90,
3,61632, Note_on_c,1,52,90,
3,61632, Note_on_c,1,55,90,
3,61716, Note_off_c,1,55,0,
3,61716, Note_off_c,1,52,0,
3,61716, Note_off_c,1,60,0,
3,61716, Note_off_c,1,67,0,
3,61728, Note_on_c,1,52,90,
3,61728, Note_on_c,1,67,90,
3,61728, Note_on_c,1,55,90,
3,61908, Note_off_c,1,55,0,
3,61908, Note_off_c,1,67,0,
3,61908, Note_off_c,1,52,0,
3,61920, Note_on_c,1,55,90,
3,61920, Note_on_c,1,60,90,
3,61920, Note_on_c,1,64,90,
3,62100, Note_off_c,1,64,0,
3,62100, Note_off_c,1,60,0,
3,62100, Note_off_c,1,55,0,
3,62112, Note_on_c,1,64,90,
3,62112, Note_on_c,1,67,90,
3,62112, Note_on_c,1,71,90,
3,62292, Note_off_c,1,71,0,
3,62292, Note_off_c,1,67,0,
3,62292, Note_off_c,1,64,0,
3,62304, Note_on_c,1,62,90,
3,62304, Note_on_c,1,66,90,
3,62304, Note_on_c,1,69,90,
3,62484, Note_off_c,1,69,0,
3,62484, Note_off_c,1,66,0,
3,62484, Note_off_c,1,62,0,
3,62496, Note_on_c,1,60,90,
3,62496, Note_on_c,1,64,90,
3,62496, Note_on_c,1,67,90,
3,62580, Note_off_c,1,67,0,
3,62580, Note_off_c,1,64,0,
3,62580, Note_off_c,1,60,0,
3,62688, Note_on_c,1,69,90,
3,62688, Note_on_c,1,66,90,
3,62688, Note_on_c,1,62,90,
3,62868, Note_off_c,1,62,0,
3,62868, Note_off_c,1,66,0,
3,62868, Note_off_c,1,69,0,
3,62880, Note_on_c,1,45,90,
3,62964, Note_off_c,1,45,0,
3,62976, Note_on_c,1,48,90,
3,62976, Note_on_c,1,45,90,
3,62977, Note_off_c,1,45,0,
3,63072, Note_on_c,1,52,90,
3,63156, Note_off_c,1,52,0,
3,63168, Note_on_c,1,55,90,
3,63252, Note_off_c,1,55,0,
3,63264, Note_on_c,1,60,90,
3,63348, Note_off_c,1,48,0,
3,63348, Note_off_c,1,60,0,
3,63360, Note_on_c,1,47,90,
3,63456, Note_on_c,1,50,90,
3,63540, Note_off_c,1,50,0,
3,63552, Note_on_c,1,55,90,
3,63636, Note_off_c,1,55,0,
3,63648, Note_on_c,1,62,90,
3,63732, Note_off_c,1,47,0,
3,63732, Note_off_c,1,62,0,
3,63744, Note_on_c,1,59,90,
3,63780, Note_off_c,1,59,0,
3,63792, Note_on_c,1,60,90,
3,63828, Note_off_c,1,60,0,
3,63840, Note_on_c,1,57,90,
3,63924, Note_off_c,1,57,0,
3,63936, Note_on_c,1,45,90,
3,64032, Note_on_c,1,52,90,
3,64116, Note_off_c,1,52,0,
3,64128, Note_on_c,1,57,90,
3,64212, Note_off_c,1,57,0,
3,64224, Note_on_c,1,60,90,
3,64308, Note_off_c,1,45,0,
3,64308, Note_off_c,1,60,0,
3,64320, Note_on_c,1,45,90,
3,64404, Note_off_c,1,45,0,
3,64416, Note_on_c,1,47,90,
3,64500, Note_off_c,1,47,0,
3,64512, Note_on_c,1,48,90,
3,64608, Note_on_c,1,52,90,
3,64692, Note_off_c,1,52,0,
3,64704, Note_on_c,1,55,90,
3,64788, Note_off_c,1,55,0,
3,64800, Note_on_c,1,60,90,
3,64884, Note_off_c,1,48,0,
3,64884, Note_off_c,1,60,0,
3,64896, Note_on_c,1,47,90,
3,64992, Note_on_c,1,50,90,
3,65076, Note_off_c,1,50,0,
3,65088, Note_on_c,1,55,90,
3,65172, Note_off_c,1,47,0,
3,65172, Note_off_c,1,55,0,
3,65184, Note_on_c,1,48,90,
3,65184, Note_on_c,1,41,90,
3,65184, Note_on_c,1,53,90,
3,65184, Note_on_c,1,57,90,
3,65184, Note_on_c,1,60,90,
3,65184, Note_on_c,1,64,90,
3,65364, Note_off_c,1,64,0,
3,65364, Note_off_c,1,60,0,
3,65364, Note_off_c,1,57,0,
3,65364, Note_off_c,1,53,0,
3,65364, Note_off_c,1,41,0,
3,65364, Note_off_c,1,48,0,
3,65376, Note_on_c,1,64,90,
3,65376, Note_on_c,1,60,90,
3,65376, Note_on_c,1,57,90,
3,65376, Note_on_c,1,52,90,
3,65376, Note_on_c,1,45,90,
3,65844, Note_off_c,1,45,0,
3,65844, Note_off_c,1,52,0,
3,65844, Note_off_c,1,57,0,
3,65844, Note_off_c,1,60,0,
3,65844, Note_off_c,1,64,0,
3,65856, Note_on_c,1,45,90,
3,65940, Note_off_c,1,45,0,
3,65952, Note_on_c,1,47,90,
3,66036, Note_off_c,1,47,0,
3,66048, Note_on_c,1,48,90,
3,66144, Note_on_c,1,52,90,
3,66228, Note_off_c,1,52,0,
3,66240, Note_on_c,1,55,90,
3,66324, Note_off_c,1,55,0,
3,66336, Note_on_c,1,60,90,
3,66420, Note_off_c,1,48,0,
3,66420, Note_off_c,1,60,0,
3,66432, Note_on_c,1,47,90,
3,66528, Note_on_c,1,50,90,
3,66612, Note_off_c,1,50,0,
3,66624, Note_on_c,1,55,90,
3,66708, Note_off_c,1,55,0,
3,66720, Note_on_c,1,62,90,
3,66804, Note_off_c,1,47,0,
3,66804, Note_off_c,1,62,0,
3,66816, Note_on_c,1,59,90,
3,66816, Note_on_c,1,45,90,
3,66852, Note_off_c,1,59,0,
3,66864, Note_on_c,1,60,90,
3,66900, Note_off_c,1,60,0,
3,66912, Note_on_c,1,57,90,
3,66996, Note_off_c,1,45,0,
3,66996, Note_off_c,1,57,0,
3,67008, Note_on_c,1,45,90,
3,67104, Note_on_c,1,52,90,
3,67188, Note_off_c,1,52,0,
3,67200, Note_on_c,1,57,90,
3,67284, Note_off_c,1,57,0,
3,67296, Note_on_c,1,60,90,
3,67380, Note_off_c,1,45,0,
3,67380, Note_off_c,1,60,0,
3,67392, Note_on_c,1,45,90,
3,67476, Note_off_c,1,45,0,
3,67488, Note_on_c,1,47,90,
3,67572, Note_off_c,1,47,0,
3,67584, Note_on_c,1,48,90,
3,67680, Note_on_c,1,52,90,
3,67764, Note_off_c,1,52,0,
3,67776, Note_on_c,1,55,90,
3,67860, Note_off_c,1,55,0,
3,67872, Note_on_c,1,60,90,
3,67956, Note_off_c,1,48,0,
3,67956, Note_off_c,1,60,0,
3,67968, Note_on_c,1,47,90,
3,68064, Note_on_c,1,50,90,
3,68148, Note_off_c,1,50,0,
3,68160, Note_on_c,1,55,90,
3,68244, Note_off_c,1,47,0,
3,68244, Note_off_c,1,55,0,
3,68256, Note_on_c,1,48,90,
3,68256, Note_on_c,1,41,90,
3,68256, Note_on_c,1,53,90,
3,68256, Note_on_c,1,57,90,
3,68256, Note_on_c,1,60,90,
3,68256, Note_on_c,1,64,90,
3,68436, Note_off_c,1,64,0,
3,68436, Note_off_c,1,60,0,
3,68436, Note_off_c,1,57,0,
3,68436, Note_off_c,1,53,0,
3,68436, Note_off_c,1,41,0,
3,68436, Note_off_c,1,48,0,
3,68448, Note_on_c,1,64,90,
3,68448, Note_on_c,1,60,90,
3,68448, Note_on_c,1,57,90,
3,68448, Note_on_c,1,52,90,
3,68448, Note_on_c,1,45,90,
3,68916, Note_off_c,1,45,0,
3,68916, Note_off_c,1,52,0,
3,68916, Note_off_c,1,57,0,
3,68916, Note_off_c,1,60,0,
3,68916, Note_off_c,1,64,0,
3,68928, Note_on_c,1,45,90,
3,69012, Note_off_c,1,45,0,
3,69024, Note_on_c,1,47,90,
3,69108, Note_off_c,1,47,0,
3,69120, Note_on_c,1,48,90,
3,69216, Note_on_c,1,52,90,
3,69300, Note_off_c,1,52,0,
3,69312, Note_on_c,1,55,90,
3,69396, Note_off_c,1,55,0,
3,69408, Note_on_c,1,60,90,
3,69492, Note_off_c,1,48,0,
3,69492, Note_off_c,1,60,0,
3,69504, Note_on_c,1,47,90,
3,69600, Note_on_c,1,50,90,
3,69684, Note_off_c,1,50,0,
3,69696, Note_on_c,1,55,90,
3,69780, Note_off_c,1,55,0,
3,69792, Note_on_c,1,60,90,
3,69876, Note_off_c,1,47,0,
3,69972, Note_off_c,1,60,0,
3,69984, Note_on_c,1,67,90,
3,69984, Note_on_c,1,60,90,
3,69984, Note_on_c,1,52,90,
3,69984, Note_on_c,1,55,90,
3,70020, Note_off_c,1,55,0,
3,70020, Note_off_c,1,52,0,
3,70020, Note_off_c,1,60,0,
3,70020, Note_off_c,1,67,0,
3,70032, Note_on_c,1,60,90,
3,70032, Note_on_c,1,67,90,
3,70032, Note_on_c,1,55,90,
3,70068, Note_off_c,1,55,0,
3,70068, Note_off_c,1,67,0,
3,70068, Note_off_c,1,60,0,
3,70080, Note_on_c,1,67,90,
3,70080, Note_on_c,1,60,90,
3,70080, Note_on_c,1,52,90,
3,70080, Note_on_c,1,55,90,
3,70164, Note_off_c,1,55,0,
3,70164, Note_off_c,1,52,0,
3,70164, Note_off_c,1,60,0,
3,70164, Note_off_c,1,67,0,
3,70176, Note_on_c,1,52,90,
3,70176, Note_on_c,1,60,90,
3,70176, Note_on_c,1,67,90,
3,70176, Note_on_c,1,55,90,
3,70356, Note_off_c,1,55,0,
3,70356, Note_off_c,1,67,0,
3,70356, Note_off_c,1,60,0,
3,70356, Note_off_c,1,52,0,
3,70368, Note_on_c,1,60,90,
3,70368, Note_on_c,1,67,90,
3,70368, Note_on_c,1,52,90,
3,70368, Note_on_c,1,55,90,
3,70548, Note_off_c,1,55,0,
3,70548, Note_off_c,1,52,0,
3,70548, Note_off_c,1,67,0,
3,70548, Note_off_c,1,60,0,
3,70560, Note_on_c,1,64,90,
3,70560, Note_on_c,1,62,90,
3,70560, Note_on_c,1,55,90,
3,70740, Note_off_c,1,55,0,
3,70740, Note_off_c,1,62,0,
3,70740, Note_off_c,1,64,0,
3,70752, Note_on_c,1,57,90,
3,70752, Note_on_c,1,62,90,
3,70752, Note_on_c,1,66,90,
3,71172, Note_off_c,1,66,0,
3,71172, Note_off_c,1,62,0,
3,71172, Note_off_c,1,57,0,
3,71184, Note_on_c,1,57,90,
3,71184, Note_on_c,1,62,90,
3,71184, Note_on_c,1,66,90,
3,71220, Note_off_c,1,66,0,
3,71220, Note_off_c,1,62,0,
3,71220, Note_off_c,1,57,0,
3,71232, Note_on_c,1,57,90,
3,71232, Note_on_c,1,62,90,
3,71232, Note_on_c,1,66,90,
3,71316, Note_off_c,1,66,0,
3,71316, Note_off_c,1,62,0,
3,71316, Note_off_c,1,57,0,
3,71424, Note_on_c,1,52,90,
3,71424, Note_on_c,1,60,90,
3,71424, Note_on_c,1,67,90,
3,71424, Note_on_c,1,55,90,
3,71508, Note_off_c,1,55,0,
3,71508, Note_off_c,1,67,0,
3,71508, Note_off_c,1,60,0,
3,71508, Note_off_c,1,52,0,
3,71520, Note_on_c,1,67,90,
3,71520, Note_on_c,1,60,90,
3,71520, Note_on_c,1,52,90,
3,71520, Note_on_c,1,55,90,
3,71556, Note_off_c,1,55,0,
3,71556, Note_off_c,1,52,0,
3,71556, Note_off_c,1,60,0,
3,71556, Note_off_c,1,67,0,
3,71568, Note_on_c,1,60,90,
3,71568, Note_on_c,1,67,90,
3,71568, Note_on_c,1,55,90,
3,71604, Note_off_c,1,55,0,
3,71604, Note_off_c,1,67,0,
3,71604, Note_off_c,1,60,0,
3,71616, Note_on_c,1,67,90,
3,71616, Note_on_c,1,60,90,
3,71616, Note_on_c,1,52,90,
3,71616, Note_on_c,1,55,90,
3,71700, Note_off_c,1,55,0,
3,71700, Note_off_c,1,52,0,
3,71700, Note_off_c,1,60,0,
3,71700, Note_off_c,1,67,0,
3,71712, Note_on_c,1,52,90,
3,71712, Note_on_c,1,60,90,
3,71712, Note_on_c,1,67,90,
3,71712, Note_on_c,1,55,90,
3,71796, Note_off_c,1,55,0,
3,71796, Note_off_c,1,67,0,
3,71796, Note_off_c,1,60,0,
3,71796, Note_off_c,1,52,0,
3,71904, Note_on_c,1,55,90,
3,71904, Note_on_c,1,60,90,
3,71904, Note_on_c,1,64,90,
3,71988, Note_off_c,1,64,0,
3,71988, Note_off_c,1,60,0,
3,71988, Note_off_c,1,55,0,
3,72096, Note_on_c,1,64,90,
3,72096, Note_on_c,1,67,90,
3,72096, Note_on_c,1,71,90,
3,72180, Note_off_c,1,71,0,
3,72180, Note_off_c,1,67,0,
3,72180, Note_off_c,1,64,0,
3,72288, Note_on_c,1,62,90,
3,72288, Note_on_c,1,66,90,
3,72288, Note_on_c,1,69,90,
3,72372, Note_off_c,1,69,0,
3,72372, Note_off_c,1,66,0,
3,72372, Note_off_c,1,62,0,
3,72480, Note_on_c,1,60,90,
3,72480, Note_on_c,1,64,90,
3,72480, Note_on_c,1,67,90,
3,72564, Note_off_c,1,67,0,
3,72564, Note_off_c,1,64,0,
3,72564, Note_off_c,1,60,0,
3,72672, Note_on_c,1,62,90,
3,72672, Note_on_c,1,66,90,
3,72672, Note_on_c,1,69,90,
3,72852, Note_off_c,1,69,0,
3,72852, Note_off_c,1,66,0,
3,72852, Note_off_c,1,62,0,
3,72864, Note_on_c,1,45,90,
3,72960, Note_on_c,1,60,90,
3,72960, Note_on_c,1,55,90,
3,72960, Note_on_c,1,52,90,
3,72960, Note_on_c,1,67,90,
3,73044, Note_off_c,1,67,0,
3,73044, Note_off_c,1,52,0,
3,73044, Note_off_c,1,55,0,
3,73044, Note_off_c,1,60,0,
3,73056, Note_on_c,1,67,90,
3,73056, Note_on_c,1,60,90,
3,73056, Note_on_c,1,52,90,
3,73056, Note_on_c,1,55,90,
3,73092, Note_off_c,1,55,0,
3,73092, Note_off_c,1,52,0,
3,73092, Note_off_c,1,60,0,
3,73092, Note_off_c,1,67,0,
3,73104, Note_on_c,1,60,90,
3,73104, Note_on_c,1,67,90,
3,73104, Note_on_c,1,55,90,
3,73140, Note_off_c,1,55,0,
3,73140, Note_off_c,1,67,0,
3,73140, Note_off_c,1,60,0,
3,73152, Note_on_c,1,67,90,
3,73152, Note_on_c,1,60,90,
3,73152, Note_on_c,1,55,90,
3,73236, Note_off_c,1,55,0,
3,73236, Note_off_c,1,60,0,
3,73236, Note_off_c,1,67,0,
3,73248, Note_on_c,1,60,90,
3,73248, Note_on_c,1,67,90,
3,73248, Note_on_c,1,55,90,
3,73332, Note_off_c,1,55,0,
3,73332, Note_off_c,1,67,0,
3,73332, Note_off_c,1,45,0,
3,73332, Note_off_c,1,60,0,
3,73440, Note_on_c,1,60,90,
3,73440, Note_on_c,1,55,90,
3,73440, Note_on_c,1,64,90,
3,73524, Note_off_c,1,64,0,
3,73524, Note_off_c,1,55,0,
3,73524, Note_off_c,1,60,0,
3,73632, Note_on_c,1,64,90,
3,73632, Note_on_c,1,62,90,
3,73632, Note_on_c,1,55,90,
3,73716, Note_off_c,1,62,0,
3,73716, Note_off_c,1,64,0,
3,73728, Note_off_c,1,55,0,
3,73728, Note_on_c,1,64,90,
3,73728, Note_on_c,1,62,90,
3,73728, Note_on_c,1,55,90,
3,73812, Note_off_c,1,55,0,
3,73812, Note_off_c,1,62,0,
3,73812, Note_off_c,1,64,0,
3,73824, Note_on_c,1,57,90,
3,73824, Note_on_c,1,62,90,
3,73824, Note_on_c,1,66,90,
3,74244, Note_off_c,1,66,0,
3,74244, Note_off_c,1,62,0,
3,74244, Note_off_c,1,57,0,
3,74256, Note_on_c,1,57,90,
3,74256, Note_on_c,1,62,90,
3,74256, Note_on_c,1,66,90,
3,74292, Note_off_c,1,66,0,
3,74292, Note_off_c,1,62,0,
3,74292, Note_off_c,1,57,0,
3,74304, Note_on_c,1,57,90,
3,74304, Note_on_c,1,62,90,
3,74304, Note_on_c,1,66,90,
3,74388, Note_off_c,1,66,0,
3,74388, Note_off_c,1,62,0,
3,74388, Note_off_c,1,57,0,
3,74496, Note_on_c,1,52,90,
3,74496, Note_on_c,1,60,90,
3,74496, Note_on_c,1,67,90,
3,74496, Note_on_c,1,55,90,
3,74580, Note_off_c,1,55,0,
3,74580, Note_off_c,1,67,0,
3,74580, Note_off_c,1,60,0,
3,74580, Note_off_c,1,52,0,
3,74592, Note_on_c,1,67,90,
3,74592, Note_on_c,1,60,90,
3,74592, Note_on_c,1,55,90,
3,74628, Note_off_c,1,55,0,
3,74628, Note_off_c,1,60,0,
3,74628, Note_off_c,1,67,0,
3,74640, Note_on_c,1,60,90,
3,74640, Note_on_c,1,67,90,
3,74640, Note_on_c,1,55,90,
3,74676, Note_off_c,1,55,0,
3,74676, Note_off_c,1,67,0,
3,74676, Note_off_c,1,60,0,
3,74688, Note_on_c,1,67,90,
3,74688, Note_on_c,1,60,90,
3,74688, Note_on_c,1,52,90,
3,74688, Note_on_c,1,55,90,
3,74772, Note_off_c,1,55,0,
3,74772, Note_off_c,1,52,0,
3,74772, Note_off_c,1,60,0,
3,74772, Note_off_c,1,67,0,
3,74784, Note_on_c,1,52,90,
3,74784, Note_on_c,1,60,90,
3,74784, Note_on_c,1,67,90,
3,74784, Note_on_c,1,55,90,
3,74868, Note_off_c,1,55,0,
3,74868, Note_off_c,1,67,0,
3,74868, Note_off_c,1,60,0,
3,74868, Note_off_c,1,52,0,
3,74976, Note_on_c,1,55,90,
3,74976, Note_on_c,1,60,90,
3,74976, Note_on_c,1,67,90,
3,75060, Note_off_c,1,67,0,
3,75060, Note_off_c,1,60,0,
3,75060, Note_off_c,1,55,0,
3,75168, Note_on_c,1,64,90,
3,75168, Note_on_c,1,67,90,
3,75168, Note_on_c,1,71,90,
3,75252, Note_off_c,1,71,0,
3,75252, Note_off_c,1,67,0,
3,75252, Note_off_c,1,64,0,
3,75360, Note_on_c,1,62,90,
3,75360, Note_on_c,1,66,90,
3,75360, Note_on_c,1,69,90,
3,75444, Note_off_c,1,69,0,
3,75444, Note_off_c,1,66,0,
3,75444, Note_off_c,1,62,0,
3,75552, Note_on_c,1,60,90,
3,75552, Note_on_c,1,64,90,
3,75552, Note_on_c,1,67,90,
3,75636, Note_off_c,1,67,0,
3,75636, Note_off_c,1,64,0,
3,75636, Note_off_c,1,60,0,
3,75744, Note_on_c,1,62,90,
3,75744, Note_on_c,1,66,90,
3,75744, Note_on_c,1,69,90,
3,75924, Note_off_c,1,69,0,
3,75924, Note_off_c,1,66,0,
3,75924, Note_off_c,1,62,0,
3,75936, Note_on_c,1,45,90,
3,76032, Note_off_c,1,45,0,
3,76032, Note_on_c,1,48,90,
3,76032, Note_on_c,1,45,90,
3,76033, Note_off_c,1,45,0,
3,76128, Note_on_c,1,52,90,
3,76212, Note_off_c,1,52,0,
3,76224, Note_on_c,1,55,90,
3,76308, Note_off_c,1,55,0,
3,76320, Note_on_c,1,60,90,
3,76404, Note_off_c,1,48,0,
3,76404, Note_off_c,1,60,0,
3,76416, Note_on_c,1,47,90,
3,76512, Note_on_c,1,50,90,
3,76596, Note_off_c,1,50,0,
3,76608, Note_on_c,1,55,90,
3,76692, Note_off_c,1,55,0,
3,76704, Note_on_c,1,62,90,
3,76788, Note_off_c,1,47,0,
3,76788, Note_off_c,1,62,0,
3,76800, Note_on_c,1,59,90,
3,76836, Note_off_c,1,59,0,
3,76848, Note_on_c,1,60,90,
3,76884, Note_off_c,1,60,0,
3,76896, Note_on_c,1,57,90,
3,76980, Note_off_c,1,57,0,
3,76992, Note_on_c,1,45,90,
3,77088, Note_on_c,1,52,90,
3,77172, Note_off_c,1,52,0,
3,77184, Note_on_c,1,57,90,
3,77268, Note_off_c,1,57,0,
3,77280, Note_on_c,1,60,90,
3,77364, Note_off_c,1,45,0,
3,77364, Note_off_c,1,60,0,
3,77376, Note_on_c,1,45,90,
3,77460, Note_off_c,1,45,0,
3,77472, Note_on_c,1,47,90,
3,77556, Note_off_c,1,47,0,
3,77568, Note_on_c,1,48,90,
3,77664, Note_on_c,1,52,90,
3,77748, Note_off_c,1,52,0,
3,77760, Note_on_c,1,55,90,
3,77844, Note_off_c,1,55,0,
3,77856, Note_on_c,1,60,90,
3,77940, Note_off_c,1,48,0,
3,77940, Note_off_c,1,60,0,
3,77952, Note_on_c,1,47,90,
3,78048, Note_on_c,1,50,90,
3,78132, Note_off_c,1,50,0,
3,78144, Note_on_c,1,55,90,
3,78228, Note_off_c,1,47,0,
3,78228, Note_off_c,1,55,0,
3,78240, Note_on_c,1,48,90,
3,78240, Note_on_c,1,41,90,
3,78240, Note_on_c,1,53,90,
3,78240, Note_on_c,1,57,90,
3,78240, Note_on_c,1,60,90,
3,78240, Note_on_c,1,64,90,
3,78420, Note_off_c,1,64,0,
3,78420, Note_off_c,1,60,0,
3,78420, Note_off_c,1,57,0,
3,78420, Note_off_c,1,53,0,
3,78420, Note_off_c,1,41,0,
3,78420, Note_off_c,1,48,0,
3,78432, Note_on_c,1,64,90,
3,78432, Note_on_c,1,60,90,
3,78432, Note_on_c,1,57,90,
3,78432, Note_on_c,1,52,90,
3,78432, Note_on_c,1,45,90,
3,78900, Note_off_c,1,45,0,
3,78900, Note_off_c,1,52,0,
3,78900, Note_off_c,1,57,0,
3,78900, Note_off_c,1,60,0,
3,78900, Note_off_c,1,64,0,
3,78912, Note_on_c,1,45,90,
3,78996, Note_off_c,1,45,0,
3,79008, Note_on_c,1,47,90,
3,79092, Note_off_c,1,47,0,
3,79104, Note_on_c,1,48,90,
3,79200, Note_on_c,1,52,90,
3,79284, Note_off_c,1,52,0,
3,79296, Note_on_c,1,55,90,
3,79380, Note_off_c,1,55,0,
3,79392, Note_on_c,1,60,90,
3,79476, Note_off_c,1,48,0,
3,79476, Note_off_c,1,60,0,
3,79488, Note_on_c,1,47,90,
3,79584, Note_on_c,1,50,90,
3,79668, Note_off_c,1,50,0,
3,79680, Note_on_c,1,55,90,
3,79764, Note_off_c,1,55,0,
3,79776, Note_on_c,1,62,90,
3,79860, Note_off_c,1,47,0,
3,79860, Note_off_c,1,62,0,
3,79872, Note_on_c,1,59,90,
3,79872, Note_on_c,1,45,90,
3,79908, Note_off_c,1,59,0,
3,79920, Note_on_c,1,60,90,
3,79956, Note_off_c,1,60,0,
3,79968, Note_on_c,1,57,90,
3,80052, Note_off_c,1,45,0,
3,80052, Note_off_c,1,57,0,
3,80064, Note_on_c,1,45,90,
3,80160, Note_on_c,1,52,90,
3,80244, Note_off_c,1,52,0,
3,80256, Note_on_c,1,57,90,
3,80340, Note_off_c,1,57,0,
3,80352, Note_on_c,1,60,90,
3,80436, Note_off_c,1,45,0,
3,80436, Note_off_c,1,60,0,
3,80448, Note_on_c,1,45,90,
3,80532, Note_off_c,1,45,0,
3,80544, Note_on_c,1,47,90,
3,80628, Note_off_c,1,47,0,
3,80640, Note_on_c,1,48,90,
3,80736, Note_on_c,1,52,90,
3,80820, Note_off_c,1,52,0,
3,80832, Note_on_c,1,55,90,
3,80916, Note_off_c,1,55,0,
3,80928, Note_on_c,1,60,90,
3,81012, Note_off_c,1,48,0,
3,81012, Note_off_c,1,60,0,
3,81024, Note_on_c,1,47,90,
3,81120, Note_on_c,1,50,90,
3,81204, Note_off_c,1,50,0,
3,81216, Note_on_c,1,55,90,
3,81300, Note_off_c,1,47,0,
3,81300, Note_off_c,1,55,0,
3,81312, Note_on_c,1,48,90,
3,81312, Note_on_c,1,41,90,
3,81312, Note_on_c,1,53,90,
3,81312, Note_on_c,1,57,90,
3,81312, Note_on_c,1,60,90,
3,81312, Note_on_c,1,64,90,
3,81492, Note_off_c,1,64,0,
3,81492, Note_off_c,1,60,0,
3,81492, Note_off_c,1,57,0,
3,81492, Note_off_c,1,53,0,
3,81492, Note_off_c,1,41,0,
3,81492, Note_off_c,1,48,0,
3,81504, Note_on_c,1,64,90,
3,81504, Note_on_c,1,60,90,
3,81504, Note_on_c,1,57,90,
3,81504, Note_on_c,1,52,90,
3,81504, Note_on_c,1,45,90,
3,81972, Note_off_c,1,45,0,
3,81972, Note_off_c,1,52,0,
3,81972, Note_off_c,1,57,0,
3,81972, Note_off_c,1,60,0,
3,81972, Note_off_c,1,64,0,
3,81984, Note_on_c,1,45,90,
3,82068, Note_off_c,1,45,0,
3,82080, Note_on_c,1,47,90,
3,82164, Note_off_c,1,47,0,
3,82176, Note_on_c,1,48,90,
3,82272, Note_on_c,1,52,90,
3,82356, Note_off_c,1,52,0,
3,82368, Note_on_c,1,55,90,
3,82452, Note_off_c,1,55,0,
3,82464, Note_on_c,1,60,90,
3,82548, Note_off_c,1,48,0,
3,82548, Note_off_c,1,60,0,
3,82560, Note_on_c,1,47,90,
3,82656, Note_on_c,1,50,90,
3,82740, Note_off_c,1,50,0,
3,82752, Note_on_c,1,55,90,
3,82836, Note_off_c,1,55,0,
3,82848, Note_on_c,1,59,90,
3,82932, Note_off_c,1,47,0,
3,82932, Note_off_c,1,59,0,
3,82944, Note_on_c,1,66,90,
3,82944, Note_on_c,1,62,90,
3,82944, Note_on_c,1,57,90,
3,82944, Note_on_c,1,50,90,
3,83508, Note_off_c,1,50,0,
3,83508, Note_off_c,1,57,0,
3,83508, Note_off_c,1,62,0,
3,83508, Note_off_c,1,66,0,
3,83616, Note_on_c,1,62,90,
3,83616, Note_on_c,1,64,90,
3,83616, Note_on_c,1,57,90,
3,83616, Note_on_c,1,50,90,
3,83652, Note_off_c,1,50,0,
3,83652, Note_off_c,1,57,0,
3,83652, Note_off_c,1,64,0,
3,83652, Note_off_c,1,62,0,
3,83664, Note_on_c,1,62,90,
3,83664, Note_on_c,1,66,90,
3,83664, Note_on_c,1,57,90,
3,83664, Note_on_c,1,50,90,
3,83700, Note_off_c,1,50,0,
3,83700, Note_off_c,1,57,0,
3,83700, Note_off_c,1,66,0,
3,83700, Note_off_c,1,62,0,
3,83712, Note_on_c,1,50,90,
3,83712, Note_on_c,1,57,90,
3,83712, Note_on_c,1,62,90,
3,83712, Note_on_c,1,67,90,
3,83988, Note_off_c,1,67,0,
3,83988, Note_off_c,1,62,0,
3,83988, Note_off_c,1,57,0,
3,83988, Note_off_c,1,50,0,
3,84000, Note_on_c,1,50,90,
3,84000, Note_on_c,1,57,90,
3,84000, Note_on_c,1,62,90,
3,84000, Note_on_c,1,64,90,
3,84036, Note_off_c,1,64,0,
3,84036, Note_off_c,1,62,0,
3,84036, Note_off_c,1,57,0,
3,84036, Note_off_c,1,50,0,
3,84048, Note_on_c,1,50,90,
3,84048, Note_on_c,1,57,90,
3,84048, Note_on_c,1,62,90,
3,84048, Note_on_c,1,66,90,
3,84084, Note_off_c,1,66,0,
3,84084, Note_off_c,1,62,0,
3,84084, Note_off_c,1,57,0,
3,84084, Note_off_c,1,50,0,
3,84096, Note_on_c,1,50,90,
3,84096, Note_on_c,1,57,90,
3,84096, Note_on_c,1,67,90,
3,84372, Note_off_c,1,67,0,
3,84372, Note_off_c,1,57,0,
3,84372, Note_off_c,1,50,0,
3,84384, Note_on_c,1,50,90,
3,84384, Note_on_c,1,57,90,
3,84384, Note_on_c,1,64,90,
3,84420, Note_off_c,1,64,0,
3,84420, Note_off_c,1,57,0,
3,84420, Note_off_c,1,50,0,
3,84432, Note_on_c,1,50,90,
3,84432, Note_on_c,1,57,90,
3,84432, Note_on_c,1,66,90,
3,84480, Note_off_c,1,66,0,
3,84480, Note_off_c,1,57,0,
3,84480, Note_off_c,1,50,0,
3,84480, Note_on_c,1,50,90,
3,84480, Note_on_c,1,57,90,
3,84480, Note_on_c,1,62,90,
3,84480, Note_on_c,1,67,90,
3,84660, Note_off_c,1,67,0,
3,84660, Note_off_c,1,62,0,
3,84660, Note_off_c,1,57,0,
3,84660, Note_off_c,1,50,0,
3,84672, Note_on_c,1,67,90,
3,84672, Note_on_c,1,62,90,
3,84672, Note_on_c,1,57,90,
3,84672, Note_on_c,1,50,90,
3,84852, Note_off_c,1,50,0,
3,84852, Note_off_c,1,57,0,
3,84852, Note_off_c,1,62,0,
3,84852, Note_off_c,1,67,0,
3,84864, Note_on_c,1,50,90,
3,84864, Note_on_c,1,57,90,
3,84864, Note_on_c,1,62,90,
3,84864, Note_on_c,1,66,90,
3,85044, Note_off_c,1,66,0,
3,85044, Note_off_c,1,62,0,
3,85044, Note_off_c,1,57,0,
3,85044, Note_off_c,1,50,0,
3,85056, Note_on_c,1,48,90,
3,85056, Note_on_c,1,52,90,
3,85056, Note_on_c,1,55,90,
3,85056, Note_on_c,1,62,90,
3,85236, Note_off_c,1,62,0,
3,85236, Note_off_c,1,55,0,
3,85236, Note_off_c,1,52,0,
3,85248, Note_on_c,1,62,90,
3,85248, Note_on_c,1,55,90,
3,85332, Note_off_c,1,55,0,
3,85332, Note_off_c,1,62,0,
3,85344, Note_on_c,1,55,90,
3,85344, Note_on_c,1,62,90,
3,85344, Note_on_c,1,66,90,
3,85476, Note_off_c,1,66,0,
3,85476, Note_off_c,1,62,0,
3,85476, Note_off_c,1,55,0,
3,85488, Note_on_c,1,55,90,
3,85488, Note_on_c,1,62,90,
3,85488, Note_on_c,1,66,90,
3,85524, Note_off_c,1,66,0,
3,85524, Note_off_c,1,62,0,
3,85524, Note_off_c,1,55,0,
3,85536, Note_on_c,1,55,90,
3,85536, Note_on_c,1,62,90,
3,85536, Note_on_c,1,66,90,
3,85620, Note_off_c,1,66,0,
3,85620, Note_off_c,1,62,0,
3,85620, Note_off_c,1,55,0,
3,85632, Note_on_c,1,55,90,
3,85632, Note_on_c,1,62,90,
3,85632, Note_on_c,1,64,90,
3,85812, Note_off_c,1,64,0,
3,85812, Note_off_c,1,62,0,
3,85812, Note_off_c,1,48,0,
3,85812, Note_off_c,1,55,0,
3,85824, Note_on_c,1,48,90,
3,85824, Note_on_c,1,52,90,
3,85824, Note_on_c,1,55,90,
3,85824, Note_on_c,1,60,90,
3,86004, Note_off_c,1,60,0,
3,86004, Note_off_c,1,55,0,
3,86004, Note_off_c,1,52,0,
3,86016, Note_on_c,1,55,90,
3,86016, Note_on_c,1,60,90,
3,86100, Note_off_c,1,60,0,
3,86100, Note_off_c,1,55,0,
3,86112, Note_on_c,1,55,90,
3,86112, Note_on_c,1,62,90,
3,86112, Note_on_c,1,66,90,
3,86244, Note_off_c,1,66,0,
3,86244, Note_off_c,1,62,0,
3,86244, Note_off_c,1,55,0,
3,86256, Note_on_c,1,66,90,
3,86256, Note_on_c,1,62,90,
3,86256, Note_on_c,1,55,90,
3,86292, Note_off_c,1,55,0,
3,86292, Note_off_c,1,62,0,
3,86292, Note_off_c,1,66,0,
3,86304, Note_on_c,1,55,90,
3,86304, Note_on_c,1,62,90,
3,86304, Note_on_c,1,66,90,
3,86388, Note_off_c,1,66,0,
3,86388, Note_off_c,1,62,0,
3,86388, Note_off_c,1,55,0,
3,86400, Note_on_c,1,64,90,
3,86404, Note_on_c,1,50,90,
3,86404, Note_on_c,1,62,90,
3,86580, Note_off_c,1,64,0,
3,86584, Note_off_c,1,50,0,
3,86584, Note_off_c,1,62,0,
3,86592, Note_on_c,1,62,90,
3,86592, Note_on_c,1,64,90,
3,86596, Note_on_c,1,50,90,
3,86676, Note_off_c,1,64,0,
3,86676, Note_off_c,1,48,0,
3,86676, Note_off_c,1,62,0,
3,86680, Note_off_c,1,50,0,
3,86688, Note_on_c,1,50,90,
3,86688, Note_on_c,1,57,90,
3,86688, Note_on_c,1,62,90,
3,86688, Note_on_c,1,64,90,
3,86724, Note_off_c,1,64,0,
3,86724, Note_off_c,1,62,0,
3,86724, Note_off_c,1,57,0,
3,86724, Note_off_c,1,50,0,
3,86736, Note_on_c,1,50,90,
3,86736, Note_on_c,1,57,90,
3,86736, Note_on_c,1,62,90,
3,86736, Note_on_c,1,66,90,
3,86772, Note_off_c,1,66,0,
3,86772, Note_off_c,1,62,0,
3,86772, Note_off_c,1,57,0,
3,86772, Note_off_c,1,50,0,
3,86784, Note_on_c,1,50,90,
3,86784, Note_on_c,1,57,90,
3,86784, Note_on_c,1,62,90,
3,86784, Note_on_c,1,67,90,
3,87060, Note_off_c,1,67,0,
3,87060, Note_off_c,1,62,0,
3,87060, Note_off_c,1,57,0,
3,87060, Note_off_c,1,50,0,
3,87072, Note_on_c,1,50,90,
3,87072, Note_on_c,1,57,90,
3,87072, Note_on_c,1,62,90,
3,87072, Note_on_c,1,64,90,
3,87108, Note_off_c,1,64,0,
3,87108, Note_off_c,1,62,0,
3,87108, Note_off_c,1,57,0,
3,87108, Note_off_c,1,50,0,
3,87120, Note_on_c,1,50,90,
3,87120, Note_on_c,1,57,90,
3,87120, Note_on_c,1,62,90,
3,87120, Note_on_c,1,66,90,
3,87156, Note_off_c,1,66,0,
3,87156, Note_off_c,1,62,0,
3,87156, Note_off_c,1,57,0,
3,87156, Note_off_c,1,50,0,
3,87168, Note_on_c,1,50,90,
3,87168, Note_on_c,1,57,90,
3,87168, Note_on_c,1,67,90,
3,87444, Note_off_c,1,67,0,
3,87444, Note_off_c,1,57,0,
3,87444, Note_off_c,1,50,0,
3,87456, Note_on_c,1,50,90,
3,87456, Note_on_c,1,57,90,
3,87456, Note_on_c,1,64,90,
3,87492, Note_off_c,1,64,0,
3,87492, Note_off_c,1,57,0,
3,87492, Note_off_c,1,50,0,
3,87504, Note_on_c,1,50,90,
3,87504, Note_on_c,1,57,90,
3,87504, Note_on_c,1,66,90,
3,87552, Note_off_c,1,66,0,
3,87552, Note_off_c,1,57,0,
3,87552, Note_off_c,1,50,0,
3,87552, Note_on_c,1,50,90,
3,87552, Note_on_c,1,57,90,
3,87552, Note_on_c,1,62,90,
3,87552, Note_on_c,1,67,90,
3,87732, Note_off_c,1,67,0,
3,87732, Note_off_c,1,62,0,
3,87732, Note_off_c,1,57,0,
3,87732, Note_off_c,1,50,0,
3,87744, Note_on_c,1,67,90,
3,87744, Note_on_c,1,62,90,
3,87744, Note_on_c,1,57,90,
3,87744, Note_on_c,1,50,90,
3,87924, Note_off_c,1,50,0,
3,87924, Note_off_c,1,57,0,
3,87924, Note_off_c,1,62,0,
3,87924, Note_off_c,1,67,0,
3,87936, Note_on_c,1,50,90,
3,87936, Note_on_c,1,57,90,
3,87936, Note_on_c,1,62,90,
3,87936, Note_on_c,1,66,90,
3,88116, Note_off_c,1,66,0,
3,88116, Note_off_c,1,62,0,
3,88116, Note_off_c,1,57,0,
3,88116, Note_off_c,1,50,0,
3,88128, Note_on_c,1,59,90,
3,88128, Note_on_c,1,60,90,
3,88129, Note_off_c,1,59,0,
3,88132, Note_on_c,1,64,90,
3,88788, Note_off_c,1,60,0,
3,88788, Note_off_c,1,64,0,
3,88788, End_track,,,,
4,0, Start_track,,,,
4,0, Instrument_t,recorders 1&2       ,,,
4,0, Channel_prefix,2,,,
4,0, Control_c,2,7,45,
4,0, Control_c,2,10,44,
4,0, Program_c,2,74,,
4,0, Control_c,2,0,0,
4,12, Program_c,2,74,,
4,3072, Note_on_c,2,72,90,
4,3072, Note_on_c,2,76,90,
4,3828, Note_off_c,2,76,0,
4,3828, Note_off_c,2,72,0,
4,3840, Note_on_c,2,72,90,
4,3840, Note_on_c,2,69,90,
4,4596, Note_off_c,2,69,0,
4,4596, Note_off_c,2,72,0,
4,4608, Note_on_c,2,72,90,
4,4608, Note_on_c,2,69,90,
4,5364, Note_off_c,2,69,0,
4,5364, Note_off_c,2,72,0,
4,5376, Note_on_c,2,71,90,
4,5376, Note_on_c,2,74,90,
4,5460, Note_off_c,2,74,0,
4,5460, Note_off_c,2,71,0,
4,5472, Note_on_c,2,72,90,
4,5472, Note_on_c,2,76,90,
4,5556, Note_off_c,2,76,0,
4,5556, Note_off_c,2,72,0,
4,5568, Note_on_c,2,76,90,
4,5568, Note_on_c,2,72,90,
4,5940, Note_off_c,2,72,0,
4,5940, Note_off_c,2,76,0,
4,6144, Note_on_c,2,72,90,
4,6144, Note_on_c,2,76,90,
4,6516, Note_off_c,2,76,0,
4,6516, Note_off_c,2,72,0,
4,6528, Note_on_c,2,74,90,
4,6528, Note_on_c,2,78,90,
4,6900, Note_off_c,2,78,0,
4,6900, Note_off_c,2,74,0,
4,6912, Note_on_c,2,77,90,
4,6912, Note_on_c,2,81,90,
4,7092, Note_off_c,2,81,0,
4,7092, Note_off_c,2,77,0,
4,7104, Note_on_c,2,79,90,
4,7104, Note_on_c,2,74,90,
4,7188, Note_off_c,2,79,0,
4,7200, Note_on_c,2,77,90,
4,7284, Note_off_c,2,74,0,
4,7284, Note_off_c,2,77,0,
4,7296, Note_on_c,2,72,90,
4,7296, Note_on_c,2,76,90,
4,7572, Note_off_c,2,76,0,
4,7572, Note_off_c,2,72,0,
4,7584, Note_on_c,2,74,90,
4,7584, Note_on_c,2,79,90,
4,7668, Note_off_c,2,79,0,
4,7668, Note_off_c,2,74,0,
4,7680, Note_on_c,2,76,90,
4,7680, Note_on_c,2,79,90,
4,8052, Note_off_c,2,79,0,
4,8052, Note_off_c,2,76,0,
4,8064, Note_on_c,2,79,90,
4,8064, Note_on_c,2,74,90,
4,8436, Note_off_c,2,74,0,
4,8448, Note_off_c,2,79,0,
4,8448, Note_on_c,2,79,110,
4,8532, Note_off_c,2,79,0,
4,8544, Note_on_c,2,78,110,
4,8544, Note_on_c,2,81,110,
4,8628, Note_off_c,2,81,0,
4,8628, Note_off_c,2,78,0,
4,8640, Note_on_c,2,81,110,
4,8640, Note_on_c,2,78,110,
4,9012, Note_off_c,2,78,0,
4,9012, Note_off_c,2,81,0,
4,9216, Note_on_c,2,72,90,
4,9216, Note_on_c,2,76,90,
4,9396, Note_off_c,2,76,0,
4,9396, Note_off_c,2,72,0,
4,9408, Note_on_c,2,76,90,
4,9408, Note_on_c,2,81,90,
4,9492, Note_off_c,2,81,0,
4,9504, Note_on_c,2,79,90,
4,9588, Note_off_c,2,76,0,
4,9588, Note_off_c,2,79,0,
4,9600, Note_on_c,2,79,90,
4,9600, Note_on_c,2,74,90,
4,9684, Note_off_c,2,79,0,
4,9696, Note_on_c,2,78,90,
4,9780, Note_off_c,2,74,0,
4,9780, Note_off_c,2,78,0,
4,9792, Note_on_c,2,76,90,
4,9792, Note_on_c,2,69,90,
4,9876, Note_off_c,2,76,0,
4,9888, Note_on_c,2,74,90,
4,9972, Note_off_c,2,74,0,
4,9984, Note_off_c,2,69,0,
4,9984, Note_on_c,2,81,90,
4,9984, Note_on_c,2,77,90,
4,10164, Note_off_c,2,81,0,
4,10176, Note_on_c,2,84,90,
4,10260, Note_off_c,2,77,0,
4,10260, Note_off_c,2,84,0,
4,10272, Note_on_c,2,83,90,
4,10272, Note_on_c,2,79,90,
4,10356, Note_off_c,2,79,0,
4,10356, Note_off_c,2,83,0,
4,10368, Note_on_c,2,81,90,
4,10368, Note_on_c,2,84,90,
4,10644, Note_off_c,2,84,0,
4,10644, Note_off_c,2,81,0,
4,10656, Note_on_c,2,86,90,
4,10740, Note_off_c,2,86,0,
4,10752, Note_on_c,2,79,90,
4,10752, Note_on_c,2,88,90,
4,11124, Note_off_c,2,88,0,
4,11124, Note_off_c,2,79,0,
4,11136, Note_on_c,2,86,90,
4,11136, Note_on_c,2,78,90,
4,11508, Note_off_c,2,86,0,
4,11520, Note_off_c,2,78,0,
4,11520, Note_on_c,2,72,100,
4,11520, Note_on_c,2,79,100,
4,11604, Note_off_c,2,79,0,
4,11616, Note_on_c,2,81,100,
4,11700, Note_off_c,2,81,0,
4,11712, Note_on_c,2,81,100,
4,12084, Note_off_c,2,72,0,
4,12084, Note_off_c,2,81,0,
4,15360, Note_on_c,2,72,90,
4,15360, Note_on_c,2,76,90,
4,16116, Note_off_c,2,72,0,
4,16128, Note_off_c,2,76,0,
4,16128, Note_on_c,2,72,90,
4,16128, Note_on_c,2,69,90,
4,16884, Note_off_c,2,69,0,
4,16884, Note_off_c,2,72,0,
4,16896, Note_on_c,2,72,90,
4,16896, Note_on_c,2,69,90,
4,17652, Note_off_c,2,69,0,
4,17652, Note_off_c,2,72,0,
4,17664, Note_on_c,2,71,90,
4,17664, Note_on_c,2,74,90,
4,17748, Note_off_c,2,74,0,
4,17748, Note_off_c,2,71,0,
4,17760, Note_on_c,2,72,90,
4,17760, Note_on_c,2,76,90,
4,17844, Note_off_c,2,76,0,
4,17844, Note_off_c,2,72,0,
4,17856, Note_on_c,2,76,90,
4,17856, Note_on_c,2,72,90,
4,18228, Note_off_c,2,72,0,
4,18228, Note_off_c,2,76,0,
4,23040, Note_on_c,2,76,90,
4,23040, Note_on_c,2,79,90,
4,23412, Note_off_c,2,79,0,
4,23412, Note_off_c,2,76,0,
4,23424, Note_on_c,2,78,90,
4,23424, Note_on_c,2,74,90,
4,23796, Note_off_c,2,74,0,
4,23796, Note_off_c,2,78,0,
4,23808, Note_on_c,2,76,90,
4,23808, Note_on_c,2,79,90,
4,23892, Note_off_c,2,79,0,
4,23904, Note_on_c,2,81,90,
4,23988, Note_off_c,2,81,0,
4,24000, Note_on_c,2,81,90,
4,24372, Note_off_c,2,76,0,
4,24372, Note_off_c,2,81,0,
4,24576, Note_on_c,2,72,90,
4,24576, Note_on_c,2,76,90,
4,25332, Note_off_c,2,72,0,
4,25344, Note_off_c,2,76,0,
4,25344, Note_on_c,2,72,90,
4,25344, Note_on_c,2,69,90,
4,26100, Note_off_c,2,69,0,
4,26100, Note_off_c,2,72,0,
4,26112, Note_on_c,2,72,90,
4,26112, Note_on_c,2,69,90,
4,26868, Note_off_c,2,69,0,
4,26868, Note_off_c,2,72,0,
4,26880, Note_on_c,2,71,90,
4,26880, Note_on_c,2,74,90,
4,26964, Note_off_c,2,74,0,
4,26964, Note_off_c,2,71,0,
4,26976, Note_on_c,2,72,90,
4,26976, Note_on_c,2,76,90,
4,27060, Note_off_c,2,76,0,
4,27060, Note_off_c,2,72,0,
4,27072, Note_on_c,2,76,90,
4,27072, Note_on_c,2,72,90,
4,27444, Note_off_c,2,72,0,
4,27444, Note_off_c,2,76,0,
4,27648, Note_on_c,2,72,90,
4,27648, Note_on_c,2,76,90,
4,28404, Note_off_c,2,72,0,
4,28416, Note_off_c,2,76,0,
4,28416, Note_on_c,2,72,90,
4,28416, Note_on_c,2,69,90,
4,29172, Note_off_c,2,69,0,
4,29172, Note_off_c,2,72,0,
4,29184, Note_on_c,2,72,90,
4,29184, Note_on_c,2,69,90,
4,29940, Note_off_c,2,69,0,
4,29940, Note_off_c,2,72,0,
4,29952, Note_on_c,2,71,90,
4,29952, Note_on_c,2,74,90,
4,30036, Note_off_c,2,74,0,
4,30036, Note_off_c,2,71,0,
4,30048, Note_on_c,2,72,90,
4,30048, Note_on_c,2,76,90,
4,30132, Note_off_c,2,76,0,
4,30132, Note_off_c,2,72,0,
4,30144, Note_on_c,2,76,90,
4,30144, Note_on_c,2,72,90,
4,30516, Note_off_c,2,72,0,
4,30516, Note_off_c,2,76,0,
4,30516, End_track,,,,
5,0, Start_track,,,,
5,0, Instrument_t,recorders 3&4       ,,,
5,0, Channel_prefix,4,,,
5,0, Control_c,4,7,45,
5,0, Control_c,4,10,44,
5,0, Program_c,4,74,,
5,0, Control_c,4,0,0,
5,12, Program_c,4,74,,
5,2304, Note_on_c,4,55,90,
5,2388, Note_off_c,4,55,0,
5,2400, Note_on_c,4,57,90,
5,2484, Note_off_c,4,57,0,
5,2496, Note_on_c,4,57,90,
5,2868, Note_off_c,4,57,0,
5,3072, Note_on_c,4,57,90,
5,3072, Note_on_c,4,64,90,
5,3444, Note_off_c,4,57,0,
5,3456, Note_on_c,4,56,90,
5,3828, Note_off_c,4,56,0,
5,3840, Note_on_c,4,55,90,
5,4212, Note_off_c,4,64,0,
5,4212, Note_off_c,4,55,0,
5,4224, Note_on_c,4,62,90,
5,4224, Note_on_c,4,54,90,
5,4596, Note_off_c,4,54,0,
5,4608, Note_off_c,4,62,0,
5,4608, Note_on_c,4,53,90,
5,4608, Note_on_c,4,60,90,
5,5364, Note_off_c,4,60,0,
5,5376, Note_off_c,4,53,0,
5,5376, Note_on_c,4,57,90,
5,5376, Note_on_c,4,67,90,
5,5460, Note_off_c,4,67,0,
5,5472, Note_on_c,4,69,90,
5,5556, Note_off_c,4,57,0,
5,5556, Note_off_c,4,69,0,
5,5568, Note_on_c,4,57,90,
5,5568, Note_on_c,4,69,90,
5,5940, Note_off_c,4,69,0,
5,5940, Note_off_c,4,57,0,
5,6144, Note_on_c,4,67,90,
5,6144, Note_on_c,4,60,90,
5,6516, Note_off_c,4,60,0,
5,6516, Note_off_c,4,67,0,
5,6528, Note_on_c,4,62,90,
5,6528, Note_on_c,4,69,90,
5,6900, Note_off_c,4,69,0,
5,6900, Note_off_c,4,62,0,
5,6912, Note_on_c,4,65,90,
5,6912, Note_on_c,4,72,90,
5,7092, Note_off_c,4,72,0,
5,7104, Note_on_c,4,69,90,
5,7284, Note_off_c,4,65,0,
5,7284, Note_off_c,4,69,0,
5,7296, Note_on_c,4,69,90,
5,7296, Note_on_c,4,57,90,
5,7572, Note_off_c,4,57,0,
5,7572, Note_off_c,4,69,0,
5,7584, Note_on_c,4,67,90,
5,7584, Note_on_c,4,59,90,
5,7668, Note_off_c,4,59,0,
5,7668, Note_off_c,4,67,0,
5,7680, Note_on_c,4,60,90,
5,7680, Note_on_c,4,67,90,
5,8052, Note_off_c,4,67,0,
5,8052, Note_off_c,4,60,0,
5,8064, Note_on_c,4,67,90,
5,8064, Note_on_c,4,59,90,
5,8436, Note_off_c,4,59,0,
5,8448, Note_off_c,4,67,0,
5,8448, Note_on_c,4,62,110,
5,8448, Note_on_c,4,71,110,
5,8532, Note_off_c,4,71,0,
5,8544, Note_on_c,4,69,110,
5,8628, Note_off_c,4,62,0,
5,8628, Note_off_c,4,69,0,
5,8640, Note_on_c,4,69,110,
5,8640, Note_on_c,4,62,110,
5,9012, Note_off_c,4,62,0,
5,9012, Note_off_c,4,69,0,
5,9216, Note_on_c,4,60,90,
5,9216, Note_on_c,4,67,90,
5,9396, Note_off_c,4,67,0,
5,9408, Note_on_c,4,72,90,
5,9492, Note_off_c,4,72,0,
5,9504, Note_on_c,4,71,90,
5,9588, Note_off_c,4,60,0,
5,9588, Note_off_c,4,71,0,
5,9600, Note_on_c,4,71,90,
5,9600, Note_on_c,4,62,90,
5,9684, Note_off_c,4,71,0,
5,9696, Note_on_c,4,69,90,
5,9780, Note_off_c,4,69,0,
5,9792, Note_on_c,4,67,90,
5,9876, Note_off_c,4,67,0,
5,9888, Note_on_c,4,66,90,
5,9972, Note_off_c,4,66,0,
5,9984, Note_off_c,4,62,0,
5,9984, Note_on_c,4,72,90,
5,9984, Note_on_c,4,65,90,
5,10164, Note_off_c,4,72,0,
5,10176, Note_on_c,4,74,90,
5,10260, Note_off_c,4,65,0,
5,10272, Note_on_c,4,67,90,
5,10356, Note_off_c,4,74,0,
5,10356, Note_off_c,4,67,0,
5,10368, Note_on_c,4,69,90,
5,10368, Note_on_c,4,76,90,
5,10644, Note_off_c,4,76,0,
5,10644, Note_off_c,4,69,0,
5,10752, Note_on_c,4,72,90,
5,10752, Note_on_c,4,60,90,
5,11124, Note_off_c,4,60,0,
5,11124, Note_off_c,4,72,0,
5,11136, Note_on_c,4,62,90,
5,11136, Note_on_c,4,69,90,
5,11508, Note_off_c,4,69,0,
5,11520, Note_off_c,4,62,0,
5,11520, Note_on_c,4,64,100,
5,11520, Note_on_c,4,53,100,
5,11604, Note_off_c,4,64,0,
5,11616, Note_on_c,4,65,100,
5,11700, Note_off_c,4,65,0,
5,11712, Note_on_c,4,65,100,
5,12084, Note_off_c,4,53,0,
5,12084, Note_off_c,4,65,0,
5,12288, Note_on_c,4,57,90,
5,12660, Note_off_c,4,57,0,
5,12672, Note_on_c,4,56,90,
5,13044, Note_off_c,4,56,0,
5,13056, Note_on_c,4,55,90,
5,13428, Note_off_c,4,55,0,
5,13440, Note_on_c,4,54,90,
5,13812, Note_off_c,4,54,0,
5,13824, Note_on_c,4,53,90,
5,14592, Note_off_c,4,53,0,
5,14592, Note_on_c,4,55,90,
5,14676, Note_off_c,4,55,0,
5,14688, Note_on_c,4,57,90,
5,14772, Note_off_c,4,57,0,
5,14784, Note_on_c,4,57,90,
5,15156, Note_off_c,4,57,0,
5,15360, Note_on_c,4,57,90,
5,15360, Note_on_c,4,64,90,
5,15732, Note_off_c,4,57,0,
5,15744, Note_on_c,4,56,90,
5,16116, Note_off_c,4,56,0,
5,16128, Note_off_c,4,64,0,
5,16128, Note_on_c,4,55,90,
5,16128, Note_on_c,4,64,90,
5,16500, Note_off_c,4,64,0,
5,16500, Note_off_c,4,55,0,
5,16512, Note_on_c,4,54,90,
5,16512, Note_on_c,4,62,90,
5,16884, Note_off_c,4,62,0,
5,16884, Note_off_c,4,54,0,
5,16896, Note_on_c,4,60,90,
5,16896, Note_on_c,4,53,90,
5,17652, Note_off_c,4,53,0,
5,17652, Note_off_c,4,60,0,
5,17664, Note_on_c,4,55,90,
5,17664, Note_on_c,4,67,90,
5,17748, Note_off_c,4,67,0,
5,17748, Note_off_c,4,55,0,
5,17760, Note_on_c,4,57,90,
5,17760, Note_on_c,4,69,90,
5,17844, Note_off_c,4,69,0,
5,17844, Note_off_c,4,57,0,
5,17856, Note_on_c,4,57,90,
5,17856, Note_on_c,4,69,90,
5,18228, Note_off_c,4,69,0,
5,18228, Note_off_c,4,57,0,
5,18432, Note_on_c,4,60,90,
5,18804, Note_off_c,4,60,0,
5,18816, Note_on_c,4,62,90,
5,19188, Note_off_c,4,62,0,
5,19200, Note_on_c,4,62,90,
5,19380, Note_off_c,4,62,0,
5,19392, Note_on_c,4,60,90,
5,19476, Note_off_c,4,60,0,
5,19488, Note_on_c,4,59,90,
5,19572, Note_off_c,4,59,0,
5,19584, Note_on_c,4,60,90,
5,19860, Note_off_c,4,60,0,
5,19872, Note_on_c,4,62,90,
5,19956, Note_off_c,4,62,0,
5,19968, Note_on_c,4,64,90,
5,20340, Note_off_c,4,64,0,
5,20352, Note_on_c,4,62,90,
5,20724, Note_off_c,4,62,0,
5,20736, Note_on_c,4,55,90,
5,20820, Note_off_c,4,55,0,
5,20832, Note_on_c,4,57,90,
5,20916, Note_off_c,4,57,0,
5,20928, Note_on_c,4,57,90,
5,21300, Note_off_c,4,57,0,
5,21504, Note_on_c,4,60,90,
5,21504, Note_on_c,4,67,90,
5,21684, Note_off_c,4,67,0,
5,21696, Note_on_c,4,72,90,
5,21780, Note_off_c,4,72,0,
5,21792, Note_on_c,4,71,90,
5,21876, Note_off_c,4,60,0,
5,21876, Note_off_c,4,71,0,
5,21888, Note_on_c,4,71,90,
5,21888, Note_on_c,4,62,90,
5,21972, Note_off_c,4,71,0,
5,21984, Note_on_c,4,69,90,
5,22068, Note_off_c,4,69,0,
5,22080, Note_on_c,4,67,90,
5,22164, Note_off_c,4,67,0,
5,22176, Note_on_c,4,66,90,
5,22260, Note_off_c,4,62,0,
5,22260, Note_off_c,4,66,0,
5,22272, Note_on_c,4,65,90,
5,22272, Note_on_c,4,69,90,
5,22452, Note_off_c,4,69,0,
5,22464, Note_on_c,4,71,90,
5,22644, Note_off_c,4,65,0,
5,22644, Note_off_c,4,71,0,
5,22656, Note_on_c,4,72,90,
5,22656, Note_on_c,4,57,90,
5,22836, Note_off_c,4,72,0,
5,22932, Note_off_c,4,57,0,
5,22944, Note_on_c,4,59,90,
5,23028, Note_off_c,4,59,0,
5,23040, Note_on_c,4,60,90,
5,23040, Note_on_c,4,67,90,
5,23412, Note_off_c,4,67,0,
5,23412, Note_off_c,4,60,0,
5,23424, Note_on_c,4,69,90,
5,23424, Note_on_c,4,62,90,
5,23796, Note_off_c,4,62,0,
5,23796, Note_off_c,4,69,0,
5,23808, Note_on_c,4,53,90,
5,23808, Note_on_c,4,71,90,
5,23892, Note_off_c,4,71,0,
5,23904, Note_on_c,4,72,90,
5,23988, Note_off_c,4,72,0,
5,24000, Note_on_c,4,72,90,
5,24180, Note_off_c,4,72,0,
5,24372, Note_off_c,4,53,0,
5,24576, Note_on_c,4,64,90,
5,24576, Note_on_c,4,57,90,
5,24948, Note_off_c,4,57,0,
5,24960, Note_on_c,4,56,90,
5,25332, Note_off_c,4,64,0,
5,25332, Note_off_c,4,56,0,
5,25344, Note_on_c,4,55,90,
5,25344, Note_on_c,4,64,90,
5,25716, Note_off_c,4,64,0,
5,25716, Note_off_c,4,55,0,
5,25728, Note_on_c,4,62,90,
5,25728, Note_on_c,4,54,90,
5,26100, Note_off_c,4,62,0,
5,26112, Note_off_c,4,54,0,
5,26112, Note_on_c,4,53,90,
5,26112, Note_on_c,4,60,90,
5,26868, Note_off_c,4,60,0,
5,26868, Note_off_c,4,53,0,
5,26880, Note_on_c,4,55,90,
5,26880, Note_on_c,4,67,90,
5,26964, Note_off_c,4,67,0,
5,26964, Note_off_c,4,55,0,
5,26976, Note_on_c,4,57,90,
5,26976, Note_on_c,4,69,90,
5,27060, Note_off_c,4,69,0,
5,27060, Note_off_c,4,57,0,
5,27072, Note_on_c,4,57,90,
5,27072, Note_on_c,4,69,90,
5,27444, Note_off_c,4,69,0,
5,27444, Note_off_c,4,57,0,
5,27648, Note_on_c,4,64,90,
5,27648, Note_on_c,4,57,90,
5,28020, Note_off_c,4,57,0,
5,28032, Note_on_c,4,56,90,
5,28404, Note_off_c,4,64,0,
5,28404, Note_off_c,4,56,0,
5,28416, Note_on_c,4,55,90,
5,28416, Note_on_c,4,64,90,
5,28788, Note_off_c,4,64,0,
5,28788, Note_off_c,4,55,0,
5,28800, Note_on_c,4,62,90,
5,28800, Note_on_c,4,54,90,
5,29172, Note_off_c,4,62,0,
5,29184, Note_off_c,4,54,0,
5,29184, Note_on_c,4,53,90,
5,29184, Note_on_c,4,60,90,
5,29940, Note_off_c,4,60,0,
5,29940, Note_off_c,4,53,0,
5,29952, Note_on_c,4,55,90,
5,29952, Note_on_c,4,67,90,
5,30036, Note_off_c,4,67,0,
5,30036, Note_off_c,4,55,0,
5,30048, Note_on_c,4,57,90,
5,30048, Note_on_c,4,69,90,
5,30132, Note_off_c,4,69,0,
5,30132, Note_off_c,4,57,0,
5,30144, Note_on_c,4,57,90,
5,30144, Note_on_c,4,69,90,
5,30516, Note_off_c,4,69,0,
5,30516, Note_off_c,4,57,0,
5,30516, End_track,,,,
6,0, Start_track,,,,
6,0, Instrument_t,mute guitar         ,,,
6,0, Channel_prefix,5,,,
6,0, Control_c,5,7,85,
6,0, Control_c,5,10,64,
6,0, Program_c,5,28,,
6,0, Control_c,5,0,0,
6,12, Program_c,5,28,,
6,32832, Note_on_c,5,55,72,
6,32832, Note_on_c,5,60,72,
6,32832, Note_on_c,5,64,72,
6,32916, Note_off_c,5,64,0,
6,32916, Note_off_c,5,60,0,
6,32916, Note_off_c,5,55,0,
6,33024, Note_on_c,5,64,72,
6,33024, Note_on_c,5,67,72,
6,33024, Note_on_c,5,71,72,
6,33108, Note_off_c,5,71,0,
6,33108, Note_off_c,5,67,0,
6,33108, Note_off_c,5,64,0,
6,33216, Note_on_c,5,69,72,
6,33216, Note_on_c,5,66,72,
6,33216, Note_on_c,5,62,72,
6,33300, Note_off_c,5,62,0,
6,33300, Note_off_c,5,66,0,
6,33300, Note_off_c,5,69,0,
6,33408, Note_on_c,5,60,72,
6,33408, Note_on_c,5,67,72,
6,33408, Note_on_c,5,64,72,
6,33492, Note_off_c,5,64,0,
6,33492, Note_off_c,5,67,0,
6,33492, Note_off_c,5,60,0,
6,33600, Note_on_c,5,62,72,
6,33600, Note_on_c,5,66,72,
6,33600, Note_on_c,5,69,72,
6,33684, Note_off_c,5,69,0,
6,33684, Note_off_c,5,66,0,
6,33684, Note_off_c,5,62,0,
6,35904, Note_on_c,5,55,72,
6,35904, Note_on_c,5,60,72,
6,35904, Note_on_c,5,64,72,
6,35988, Note_off_c,5,64,0,
6,35988, Note_off_c,5,60,0,
6,35988, Note_off_c,5,55,0,
6,36096, Note_on_c,5,64,72,
6,36096, Note_on_c,5,67,72,
6,36096, Note_on_c,5,71,72,
6,36180, Note_off_c,5,71,0,
6,36180, Note_off_c,5,67,0,
6,36180, Note_off_c,5,64,0,
6,36288, Note_on_c,5,69,72,
6,36288, Note_on_c,5,66,72,
6,36288, Note_on_c,5,62,72,
6,36372, Note_off_c,5,62,0,
6,36372, Note_off_c,5,66,0,
6,36372, Note_off_c,5,69,0,
6,36480, Note_on_c,5,60,72,
6,36480, Note_on_c,5,67,72,
6,36480, Note_on_c,5,64,72,
6,36564, Note_off_c,5,64,0,
6,36564, Note_off_c,5,67,0,
6,36564, Note_off_c,5,60,0,
6,45888, Note_on_c,5,55,72,
6,45888, Note_on_c,5,60,72,
6,45888, Note_on_c,5,64,72,
6,45972, Note_off_c,5,64,0,
6,45972, Note_off_c,5,60,0,
6,45972, Note_off_c,5,55,0,
6,46080, Note_on_c,5,64,72,
6,46080, Note_on_c,5,67,72,
6,46080, Note_on_c,5,71,72,
6,46164, Note_off_c,5,71,0,
6,46164, Note_off_c,5,67,0,
6,46164, Note_off_c,5,64,0,
6,46272, Note_on_c,5,69,72,
6,46272, Note_on_c,5,66,72,
6,46272, Note_on_c,5,62,72,
6,46356, Note_off_c,5,62,0,
6,46356, Note_off_c,5,66,0,
6,46356, Note_off_c,5,69,0,
6,46464, Note_on_c,5,60,72,
6,46464, Note_on_c,5,67,72,
6,46464, Note_on_c,5,64,72,
6,46548, Note_off_c,5,64,0,
6,46548, Note_off_c,5,67,0,
6,46548, Note_off_c,5,60,0,
6,46656, Note_on_c,5,62,72,
6,46656, Note_on_c,5,66,72,
6,46656, Note_on_c,5,69,72,
6,46740, Note_off_c,5,69,0,
6,46740, Note_off_c,5,66,0,
6,46740, Note_off_c,5,62,0,
6,48960, Note_on_c,5,55,72,
6,48960, Note_on_c,5,60,72,
6,48960, Note_on_c,5,64,72,
6,49044, Note_off_c,5,64,0,
6,49044, Note_off_c,5,60,0,
6,49044, Note_off_c,5,55,0,
6,49152, Note_on_c,5,64,72,
6,49152, Note_on_c,5,67,72,
6,49152, Note_on_c,5,71,72,
6,49236, Note_off_c,5,71,0,
6,49236, Note_off_c,5,67,0,
6,49236, Note_off_c,5,64,0,
6,49344, Note_on_c,5,69,72,
6,49344, Note_on_c,5,66,72,
6,49344, Note_on_c,5,62,72,
6,49428, Note_off_c,5,62,0,
6,49428, Note_off_c,5,66,0,
6,49428, Note_off_c,5,69,0,
6,49536, Note_on_c,5,60,72,
6,49536, Note_on_c,5,67,72,
6,49536, Note_on_c,5,64,72,
6,49620, Note_off_c,5,64,0,
6,49620, Note_off_c,5,67,0,
6,49620, Note_off_c,5,60,0,
6,57216, Note_on_c,5,52,90,
6,57216, Note_on_c,5,55,90,
6,57216, Note_on_c,5,60,90,
6,57216, Note_on_c,5,67,90,
6,57300, Note_off_c,5,67,0,
6,57300, Note_off_c,5,60,0,
6,57300, Note_off_c,5,55,0,
6,57300, Note_off_c,5,52,0,
6,57408, Note_on_c,5,55,90,
6,57408, Note_on_c,5,62,90,
6,57408, Note_on_c,5,64,90,
6,57492, Note_off_c,5,64,0,
6,57492, Note_off_c,5,62,0,
6,57492, Note_off_c,5,55,0,
6,57600, Note_on_c,5,64,90,
6,57600, Note_on_c,5,62,90,
6,57600, Note_on_c,5,55,90,
6,57684, Note_off_c,5,55,0,
6,57684, Note_off_c,5,62,0,
6,57684, Note_off_c,5,64,0,
6,58944, Note_on_c,5,55,90,
6,58944, Note_on_c,5,60,90,
6,58944, Note_on_c,5,64,90,
6,59028, Note_off_c,5,64,0,
6,59028, Note_off_c,5,60,0,
6,59028, Note_off_c,5,55,0,
6,59136, Note_on_c,5,64,90,
6,59136, Note_on_c,5,67,90,
6,59136, Note_on_c,5,71,90,
6,59220, Note_off_c,5,71,0,
6,59220, Note_off_c,5,67,0,
6,59220, Note_off_c,5,64,0,
6,59520, Note_on_c,5,60,90,
6,59520, Note_on_c,5,64,90,
6,59520, Note_on_c,5,67,90,
6,59556, Note_off_c,5,67,0,
6,59556, Note_off_c,5,64,0,
6,59556, Note_off_c,5,60,0,
6,59568, Note_on_c,5,60,90,
6,59568, Note_on_c,5,64,90,
6,59568, Note_on_c,5,67,90,
6,59592, Note_off_c,5,67,0,
6,59604, Note_off_c,5,64,0,
6,59604, Note_off_c,5,60,0,
6,104352, Control_c,5,0,0,
6,104364, Program_c,5,25,,
6,105312, Note_on_c,5,45,100,
6,105312, Note_on_c,5,52,100,
6,105312, Note_on_c,5,57,100,
6,105312, Note_on_c,5,60,100,
6,105312, Note_on_c,5,64,100,
6,105312, Note_on_c,5,69,100,
6,105360, Note_off_c,5,69,0,
6,105360, Note_off_c,5,60,0,
6,105360, Note_off_c,5,57,0,
6,105360, Note_off_c,5,52,0,
6,105360, Note_off_c,5,45,0,
6,105360, Note_on_c,5,45,100,
6,105360, Note_on_c,5,52,100,
6,105360, Note_on_c,5,57,100,
6,105360, Note_on_c,5,60,100,
6,105360, Note_on_c,5,64,100,
6,105360, Note_on_c,5,69,100,
6,105361, Note_off_c,5,64,0,
6,105408, Note_off_c,5,60,0,
6,105408, Note_off_c,5,52,0,
6,105408, Note_off_c,5,45,0,
6,105408, Note_on_c,5,45,100,
6,105408, Note_on_c,5,52,100,
6,105408, Note_on_c,5,57,100,
6,105408, Note_on_c,5,60,100,
6,105408, Note_on_c,5,64,100,
6,105408, Note_on_c,5,69,100,
6,105409, Note_off_c,5,69,0,
6,105409, Note_off_c,5,64,0,
6,105409, Note_off_c,5,57,0,
6,105456, Note_off_c,5,52,0,
6,105456, Note_off_c,5,45,0,
6,105456, Note_off_c,5,60,0,
6,105456, Note_on_c,5,52,100,
6,105456, Note_on_c,5,45,100,
6,105456, Note_on_c,5,57,100,
6,105456, Note_on_c,5,60,100,
6,105456, Note_on_c,5,64,100,
6,105456, Note_on_c,5,69,100,
6,105457, Note_off_c,5,69,0,
6,105457, Note_off_c,5,64,0,
6,105457, Note_off_c,5,57,0,
6,105504, Note_off_c,5,45,0,
6,105504, Note_off_c,5,64,0,
6,105504, Note_off_c,5,57,0,
6,105504, Note_off_c,5,69,0,
6,105504, Note_off_c,5,52,0,
6,105504, Note_off_c,5,60,0,
6,105696, Note_on_c,5,43,100,
6,105696, Note_on_c,5,50,100,
6,105696, Note_on_c,5,55,100,
6,105696, Note_on_c,5,59,100,
6,105696, Note_on_c,5,62,100,
6,105696, Note_on_c,5,67,100,
6,105792, Note_off_c,5,67,0,
6,105792, Note_off_c,5,59,0,
6,105792, Note_off_c,5,55,0,
6,105792, Note_off_c,5,50,0,
6,105792, Note_off_c,5,43,0,
6,105792, Note_on_c,5,43,100,
6,105792, Note_on_c,5,50,100,
6,105792, Note_on_c,5,55,100,
6,105792, Note_on_c,5,59,100,
6,105792, Note_on_c,5,62,100,
6,105792, Note_on_c,5,67,100,
6,105793, Note_off_c,5,62,0,
6,105888, Note_off_c,5,59,0,
6,105888, Note_off_c,5,55,0,
6,105888, Note_off_c,5,50,0,
6,105888, Note_off_c,5,62,0,
6,105888, Note_off_c,5,43,0,
6,105888, Note_off_c,5,67,0,
6,106032, Note_on_c,5,41,100,
6,106032, Note_on_c,5,48,100,
6,106032, Note_on_c,5,53,100,
6,106032, Note_on_c,5,57,100,
6,106032, Note_on_c,5,60,100,
6,106032, Note_on_c,5,65,100,
6,106080, Note_off_c,5,65,0,
6,106080, Note_off_c,5,57,0,
6,106080, Note_off_c,5,53,0,
6,106080, Note_off_c,5,48,0,
6,106080, Note_off_c,5,41,0,
6,106080, Note_on_c,5,41,100,
6,106080, Note_on_c,5,48,100,
6,106080, Note_on_c,5,53,100,
6,106080, Note_on_c,5,57,100,
6,106080, Note_on_c,5,60,100,
6,106080, Note_on_c,5,65,100,
6,106081, Note_off_c,5,60,0,
6,106128, Note_off_c,5,57,0,
6,106128, Note_off_c,5,48,0,
6,106128, Note_off_c,5,41,0,
6,106128, Note_on_c,5,41,100,
6,106128, Note_on_c,5,48,100,
6,106128, Note_on_c,5,53,100,
6,106128, Note_on_c,5,57,100,
6,106128, Note_on_c,5,60,100,
6,106128, Note_on_c,5,65,100,
6,106129, Note_off_c,5,65,0,
6,106129, Note_off_c,5,60,0,
6,106129, Note_off_c,5,53,0,
6,106176, Note_off_c,5,48,0,
6,106176, Note_off_c,5,60,0,
6,106176, Note_off_c,5,53,0,
6,106176, Note_off_c,5,65,0,
6,106176, Note_off_c,5,41,0,
6,106176, Note_off_c,5,57,0,
6,106224, Note_on_c,5,41,100,
6,106224, Note_on_c,5,48,100,
6,106224, Note_on_c,5,53,100,
6,106224, Note_on_c,5,57,100,
6,106224, Note_on_c,5,60,100,
6,106224, Note_on_c,5,65,100,
6,106272, Note_off_c,5,65,0,
6,106272, Note_off_c,5,57,0,
6,106272, Note_off_c,5,53,0,
6,106272, Note_off_c,5,48,0,
6,106272, Note_off_c,5,41,0,
6,106272, Note_on_c,5,41,100,
6,106272, Note_on_c,5,48,100,
6,106272, Note_on_c,5,53,100,
6,106272, Note_on_c,5,57,100,
6,106272, Note_on_c,5,60,100,
6,106272, Note_on_c,5,65,100,
6,106273, Note_off_c,5,60,0,
6,106320, Note_off_c,5,57,0,
6,106320, Note_off_c,5,53,0,
6,106320, Note_off_c,5,48,0,
6,106320, Note_off_c,5,60,0,
6,106320, Note_off_c,5,41,0,
6,106320, Note_off_c,5,65,0,
6,106368, Note_on_c,5,65,100,
6,106368, Note_on_c,5,60,100,
6,106368, Note_on_c,5,57,100,
6,106368, Note_on_c,5,53,100,
6,106368, Note_on_c,5,48,100,
6,106368, Note_on_c,5,41,100,
6,106416, Note_off_c,5,41,0,
6,106416, Note_off_c,5,48,0,
6,106416, Note_off_c,5,53,0,
6,106416, Note_off_c,5,60,0,
6,106416, Note_off_c,5,65,0,
6,106416, Note_on_c,5,41,100,
6,106416, Note_on_c,5,48,100,
6,106416, Note_on_c,5,53,100,
6,106416, Note_on_c,5,57,100,
6,106416, Note_on_c,5,60,100,
6,106416, Note_on_c,5,65,100,
6,106417, Note_off_c,5,57,0,
6,106464, Note_off_c,5,53,0,
6,106464, Note_off_c,5,48,0,
6,106464, Note_off_c,5,57,0,
6,106464, Note_off_c,5,41,0,
6,106464, Note_off_c,5,60,0,
6,106464, Note_off_c,5,65,0,
6,106848, Note_on_c,5,45,100,
6,106848, Note_on_c,5,52,100,
6,106848, Note_on_c,5,57,100,
6,106848, Note_on_c,5,60,100,
6,106848, Note_on_c,5,64,100,
6,106848, Note_on_c,5,69,100,
6,106896, Note_off_c,5,69,0,
6,106896, Note_off_c,5,60,0,
6,106896, Note_off_c,5,57,0,
6,106896, Note_off_c,5,52,0,
6,106896, Note_off_c,5,45,0,
6,106896, Note_on_c,5,45,100,
6,106896, Note_on_c,5,52,100,
6,106896, Note_on_c,5,57,100,
6,106896, Note_on_c,5,60,100,
6,106896, Note_on_c,5,64,100,
6,106896, Note_on_c,5,69,100,
6,106897, Note_off_c,5,64,0,
6,106944, Note_off_c,5,60,0,
6,106944, Note_off_c,5,52,0,
6,106944, Note_off_c,5,45,0,
6,106944, Note_on_c,5,45,100,
6,106944, Note_on_c,5,52,100,
6,106944, Note_on_c,5,57,100,
6,106944, Note_on_c,5,60,100,
6,106944, Note_on_c,5,64,100,
6,106944, Note_on_c,5,69,100,
6,106945, Note_off_c,5,69,0,
6,106945, Note_off_c,5,64,0,
6,106945, Note_off_c,5,57,0,
6,106992, Note_off_c,5,52,0,
6,106992, Note_off_c,5,45,0,
6,106992, Note_off_c,5,60,0,
6,106992, Note_on_c,5,52,100,
6,106992, Note_on_c,5,45,100,
6,106992, Note_on_c,5,57,100,
6,106992, Note_on_c,5,60,100,
6,106992, Note_on_c,5,64,100,
6,106992, Note_on_c,5,69,100,
6,106993, Note_off_c,5,69,0,
6,106993, Note_off_c,5,64,0,
6,106993, Note_off_c,5,57,0,
6,107040, Note_off_c,5,45,0,
6,107040, Note_off_c,5,64,0,
6,107040, Note_off_c,5,57,0,
6,107040, Note_off_c,5,69,0,
6,107040, Note_off_c,5,52,0,
6,107040, Note_off_c,5,60,0,
6,107232, Note_on_c,5,43,100,
6,107232, Note_on_c,5,50,100,
6,107232, Note_on_c,5,55,100,
6,107232, Note_on_c,5,59,100,
6,107232, Note_on_c,5,62,100,
6,107232, Note_on_c,5,67,100,
6,107328, Note_off_c,5,67,0,
6,107328, Note_off_c,5,59,0,
6,107328, Note_off_c,5,55,0,
6,107328, Note_off_c,5,50,0,
6,107328, Note_off_c,5,43,0,
6,107328, Note_on_c,5,43,100,
6,107328, Note_on_c,5,50,100,
6,107328, Note_on_c,5,55,100,
6,107328, Note_on_c,5,59,100,
6,107328, Note_on_c,5,62,100,
6,107328, Note_on_c,5,67,100,
6,107329, Note_off_c,5,62,0,
6,107424, Note_off_c,5,59,0,
6,107424, Note_off_c,5,55,0,
6,107424, Note_off_c,5,50,0,
6,107424, Note_off_c,5,62,0,
6,107424, Note_off_c,5,43,0,
6,107424, Note_off_c,5,67,0,
6,107568, Note_on_c,5,41,100,
6,107568, Note_on_c,5,48,100,
6,107568, Note_on_c,5,53,100,
6,107568, Note_on_c,5,57,100,
6,107568, Note_on_c,5,60,100,
6,107568, Note_on_c,5,65,100,
6,107616, Note_off_c,5,65,0,
6,107616, Note_off_c,5,57,0,
6,107616, Note_off_c,5,53,0,
6,107616, Note_off_c,5,48,0,
6,107616, Note_off_c,5,41,0,
6,107616, Note_on_c,5,41,100,
6,107616, Note_on_c,5,48,100,
6,107616, Note_on_c,5,53,100,
6,107616, Note_on_c,5,57,100,
6,107616, Note_on_c,5,60,100,
6,107616, Note_on_c,5,65,100,
6,107617, Note_off_c,5,60,0,
6,107664, Note_off_c,5,57,0,
6,107664, Note_off_c,5,48,0,
6,107664, Note_off_c,5,41,0,
6,107664, Note_on_c,5,41,100,
6,107664, Note_on_c,5,48,100,
6,107664, Note_on_c,5,53,100,
6,107664, Note_on_c,5,57,100,
6,107664, Note_on_c,5,60,100,
6,107664, Note_on_c,5,65,100,
6,107665, Note_off_c,5,65,0,
6,107665, Note_off_c,5,60,0,
6,107665, Note_off_c,5,53,0,
6,107712, Note_off_c,5,48,0,
6,107712, Note_off_c,5,60,0,
6,107712, Note_off_c,5,53,0,
6,107712, Note_off_c,5,65,0,
6,107712, Note_off_c,5,41,0,
6,107712, Note_off_c,5,57,0,
6,107760, Note_on_c,5,41,100,
6,107760, Note_on_c,5,48,100,
6,107760, Note_on_c,5,53,100,
6,107760, Note_on_c,5,57,100,
6,107760, Note_on_c,5,60,100,
6,107760, Note_on_c,5,65,100,
6,107808, Note_off_c,5,65,0,
6,107808, Note_off_c,5,57,0,
6,107808, Note_off_c,5,53,0,
6,107808, Note_off_c,5,48,0,
6,107808, Note_off_c,5,41,0,
6,107808, Note_on_c,5,41,100,
6,107808, Note_on_c,5,48,100,
6,107808, Note_on_c,5,53,100,
6,107808, Note_on_c,5,57,100,
6,107808, Note_on_c,5,60,100,
6,107808, Note_on_c,5,65,100,
6,107809, Note_off_c,5,60,0,
6,107856, Note_off_c,5,57,0,
6,107856, Note_off_c,5,53,0,
6,107856, Note_off_c,5,48,0,
6,107856, Note_off_c,5,60,0,
6,107856, Note_off_c,5,41,0,
6,107856, Note_off_c,5,65,0,
6,107904, Note_on_c,5,65,100,
6,107904, Note_on_c,5,60,100,
6,107904, Note_on_c,5,57,100,
6,107904, Note_on_c,5,53,100,
6,107904, Note_on_c,5,48,100,
6,107904, Note_on_c,5,41,100,
6,107952, Note_off_c,5,41,0,
6,107952, Note_off_c,5,48,0,
6,107952, Note_off_c,5,53,0,
6,107952, Note_off_c,5,60,0,
6,107952, Note_off_c,5,65,0,
6,107952, Note_on_c,5,41,100,
6,107952, Note_on_c,5,48,100,
6,107952, Note_on_c,5,53,100,
6,107952, Note_on_c,5,57,100,
6,107952, Note_on_c,5,60,100,
6,107952, Note_on_c,5,65,100,
6,107953, Note_off_c,5,57,0,
6,108000, Note_off_c,5,53,0,
6,108000, Note_off_c,5,48,0,
6,108000, Note_off_c,5,57,0,
6,108000, Note_off_c,5,41,0,
6,108000, Note_off_c,5,60,0,
6,108000, Note_off_c,5,65,0,
6,108192, Program_c,5,25,,
6,108384, Note_on_c,5,45,100,
6,108384, Note_on_c,5,52,100,
6,108384, Note_on_c,5,57,100,
6,108384, Note_on_c,5,60,100,
6,108384, Note_on_c,5,64,100,
6,108384, Note_on_c,5,69,100,
6,108432, Note_off_c,5,69,0,
6,108432, Note_off_c,5,60,0,
6,108432, Note_off_c,5,57,0,
6,108432, Note_off_c,5,52,0,
6,108432, Note_off_c,5,45,0,
6,108432, Note_on_c,5,45,100,
6,108432, Note_on_c,5,52,100,
6,108432, Note_on_c,5,57,100,
6,108432, Note_on_c,5,60,100,
6,108432, Note_on_c,5,64,100,
6,108432, Note_on_c,5,69,100,
6,108433, Note_off_c,5,64,0,
6,108480, Note_off_c,5,60,0,
6,108480, Note_off_c,5,52,0,
6,108480, Note_off_c,5,45,0,
6,108480, Note_on_c,5,45,100,
6,108480, Note_on_c,5,52,100,
6,108480, Note_on_c,5,57,100,
6,108480, Note_on_c,5,60,100,
6,108480, Note_on_c,5,64,100,
6,108480, Note_on_c,5,69,100,
6,108481, Note_off_c,5,69,0,
6,108481, Note_off_c,5,64,0,
6,108481, Note_off_c,5,57,0,
6,108528, Note_off_c,5,52,0,
6,108528, Note_off_c,5,45,0,
6,108528, Note_off_c,5,60,0,
6,108528, Note_on_c,5,52,100,
6,108528, Note_on_c,5,45,100,
6,108528, Note_on_c,5,57,100,
6,108528, Note_on_c,5,60,100,
6,108528, Note_on_c,5,64,100,
6,108528, Note_on_c,5,69,100,
6,108529, Note_off_c,5,69,0,
6,108529, Note_off_c,5,64,0,
6,108529, Note_off_c,5,57,0,
6,108576, Note_off_c,5,45,0,
6,108576, Note_off_c,5,64,0,
6,108576, Note_off_c,5,57,0,
6,108576, Note_off_c,5,69,0,
6,108576, Note_off_c,5,52,0,
6,108576, Note_off_c,5,60,0,
6,108768, Note_on_c,5,43,100,
6,108768, Note_on_c,5,50,100,
6,108768, Note_on_c,5,55,100,
6,108768, Note_on_c,5,59,100,
6,108768, Note_on_c,5,62,100,
6,108768, Note_on_c,5,67,100,
6,108864, Note_off_c,5,67,0,
6,108864, Note_off_c,5,59,0,
6,108864, Note_off_c,5,55,0,
6,108864, Note_off_c,5,50,0,
6,108864, Note_off_c,5,43,0,
6,108864, Note_on_c,5,43,100,
6,108864, Note_on_c,5,50,100,
6,108864, Note_on_c,5,55,100,
6,108864, Note_on_c,5,59,100,
6,108864, Note_on_c,5,62,100,
6,108864, Note_on_c,5,67,100,
6,108865, Note_off_c,5,62,0,
6,108960, Note_off_c,5,59,0,
6,108960, Note_off_c,5,55,0,
6,108960, Note_off_c,5,50,0,
6,108960, Note_off_c,5,62,0,
6,108960, Note_off_c,5,43,0,
6,108960, Note_off_c,5,67,0,
6,109104, Note_on_c,5,41,100,
6,109104, Note_on_c,5,48,100,
6,109104, Note_on_c,5,53,100,
6,109104, Note_on_c,5,57,100,
6,109104, Note_on_c,5,60,100,
6,109104, Note_on_c,5,65,100,
6,109152, Note_off_c,5,65,0,
6,109152, Note_off_c,5,57,0,
6,109152, Note_off_c,5,53,0,
6,109152, Note_off_c,5,48,0,
6,109152, Note_off_c,5,41,0,
6,109152, Note_on_c,5,41,100,
6,109152, Note_on_c,5,48,100,
6,109152, Note_on_c,5,53,100,
6,109152, Note_on_c,5,57,100,
6,109152, Note_on_c,5,60,100,
6,109152, Note_on_c,5,65,100,
6,109153, Note_off_c,5,60,0,
6,109200, Note_off_c,5,57,0,
6,109200, Note_off_c,5,48,0,
6,109200, Note_off_c,5,41,0,
6,109200, Note_on_c,5,41,100,
6,109200, Note_on_c,5,48,100,
6,109200, Note_on_c,5,53,100,
6,109200, Note_on_c,5,57,100,
6,109200, Note_on_c,5,60,100,
6,109200, Note_on_c,5,65,100,
6,109201, Note_off_c,5,65,0,
6,109201, Note_off_c,5,60,0,
6,109201, Note_off_c,5,53,0,
6,109248, Note_off_c,5,48,0,
6,109248, Note_off_c,5,60,0,
6,109248, Note_off_c,5,53,0,
6,109248, Note_off_c,5,65,0,
6,109248, Note_off_c,5,41,0,
6,109248, Note_off_c,5,57,0,
6,109296, Note_on_c,5,41,100,
6,109296, Note_on_c,5,48,100,
6,109296, Note_on_c,5,53,100,
6,109296, Note_on_c,5,57,100,
6,109296, Note_on_c,5,60,100,
6,109296, Note_on_c,5,65,100,
6,109344, Note_off_c,5,65,0,
6,109344, Note_off_c,5,57,0,
6,109344, Note_off_c,5,53,0,
6,109344, Note_off_c,5,48,0,
6,109344, Note_off_c,5,41,0,
6,109344, Note_on_c,5,41,100,
6,109344, Note_on_c,5,48,100,
6,109344, Note_on_c,5,53,100,
6,109344, Note_on_c,5,57,100,
6,109344, Note_on_c,5,60,100,
6,109344, Note_on_c,5,65,100,
6,109345, Note_off_c,5,60,0,
6,109392, Note_off_c,5,57,0,
6,109392, Note_off_c,5,53,0,
6,109392, Note_off_c,5,48,0,
6,109392, Note_off_c,5,60,0,
6,109392, Note_off_c,5,41,0,
6,109392, Note_off_c,5,65,0,
6,109440, Note_on_c,5,65,100,
6,109440, Note_on_c,5,60,100,
6,109440, Note_on_c,5,57,100,
6,109440, Note_on_c,5,53,100,
6,109440, Note_on_c,5,48,100,
6,109440, Note_on_c,5,41,100,
6,109488, Note_off_c,5,41,0,
6,109488, Note_off_c,5,48,0,
6,109488, Note_off_c,5,53,0,
6,109488, Note_off_c,5,60,0,
6,109488, Note_off_c,5,65,0,
6,109488, Note_on_c,5,41,100,
6,109488, Note_on_c,5,48,100,
6,109488, Note_on_c,5,53,100,
6,109488, Note_on_c,5,57,100,
6,109488, Note_on_c,5,60,100,
6,109488, Note_on_c,5,65,100,
6,109489, Note_off_c,5,57,0,
6,109536, Note_off_c,5,53,0,
6,109536, Note_off_c,5,48,0,
6,109536, Note_off_c,5,57,0,
6,109536, Note_off_c,5,41,0,
6,109536, Note_off_c,5,60,0,
6,109536, Note_off_c,5,65,0,
6,109632, Note_on_c,5,41,100,
6,109728, Note_off_c,5,41,0,
6,109920, Note_on_c,5,45,100,
6,109920, Note_on_c,5,52,100,
6,109920, Note_on_c,5,57,100,
6,109920, Note_on_c,5,60,100,
6,109920, Note_on_c,5,64,100,
6,109920, Note_on_c,5,69,100,
6,109968, Note_off_c,5,69,0,
6,109968, Note_off_c,5,60,0,
6,109968, Note_off_c,5,57,0,
6,109968, Note_off_c,5,52,0,
6,109968, Note_off_c,5,45,0,
6,109968, Note_on_c,5,45,100,
6,109968, Note_on_c,5,52,100,
6,109968, Note_on_c,5,57,100,
6,109968, Note_on_c,5,60,100,
6,109968, Note_on_c,5,64,100,
6,109968, Note_on_c,5,69,100,
6,109969, Note_off_c,5,64,0,
6,110016, Note_off_c,5,60,0,
6,110016, Note_off_c,5,52,0,
6,110016, Note_off_c,5,45,0,
6,110016, Note_on_c,5,45,100,
6,110016, Note_on_c,5,52,100,
6,110016, Note_on_c,5,57,100,
6,110016, Note_on_c,5,60,100,
6,110016, Note_on_c,5,64,100,
6,110016, Note_on_c,5,69,100,
6,110017, Note_off_c,5,69,0,
6,110017, Note_off_c,5,64,0,
6,110017, Note_off_c,5,57,0,
6,110064, Note_off_c,5,52,0,
6,110064, Note_off_c,5,57,0,
6,110064, Note_off_c,5,45,0,
6,110064, Note_off_c,5,60,0,
6,110064, Note_on_c,5,52,100,
6,110064, Note_on_c,5,45,100,
6,110064, Note_on_c,5,57,100,
6,110064, Note_on_c,5,60,100,
6,110064, Note_on_c,5,64,100,
6,110064, Note_on_c,5,69,100,
6,110064, Note_on_c,5,43,100,
6,110065, Note_off_c,5,69,0,
6,110065, Note_off_c,5,64,0,
6,110112, Note_off_c,5,60,0,
6,110112, Note_off_c,5,57,0,
6,110112, Note_off_c,5,45,0,
6,110112, Note_off_c,5,64,0,
6,110112, Note_off_c,5,69,0,
6,110112, Note_off_c,5,52,0,
6,110112, Note_off_c,5,43,0,
6,110304, Note_on_c,5,43,100,
6,110304, Note_on_c,5,50,100,
6,110304, Note_on_c,5,55,100,
6,110304, Note_on_c,5,59,100,
6,110304, Note_on_c,5,62,100,
6,110304, Note_on_c,5,67,100,
6,110400, Note_off_c,5,67,0,
6,110400, Note_off_c,5,59,0,
6,110400, Note_off_c,5,55,0,
6,110400, Note_off_c,5,50,0,
6,110400, Note_off_c,5,43,0,
6,110400, Note_on_c,5,43,100,
6,110400, Note_on_c,5,50,100,
6,110400, Note_on_c,5,55,100,
6,110400, Note_on_c,5,59,100,
6,110400, Note_on_c,5,62,100,
6,110400, Note_on_c,5,67,100,
6,110401, Note_off_c,5,62,0,
6,110496, Note_off_c,5,59,0,
6,110496, Note_off_c,5,55,0,
6,110496, Note_off_c,5,50,0,
6,110496, Note_off_c,5,62,0,
6,110496, Note_off_c,5,43,0,
6,110496, Note_off_c,5,67,0,
6,110640, Note_on_c,5,41,100,
6,110640, Note_on_c,5,48,100,
6,110640, Note_on_c,5,53,100,
6,110640, Note_on_c,5,57,100,
6,110640, Note_on_c,5,60,100,
6,110640, Note_on_c,5,65,100,
6,110688, Note_off_c,5,65,0,
6,110688, Note_off_c,5,57,0,
6,110688, Note_off_c,5,53,0,
6,110688, Note_off_c,5,48,0,
6,110688, Note_off_c,5,41,0,
6,110688, Note_on_c,5,41,100,
6,110688, Note_on_c,5,48,100,
6,110688, Note_on_c,5,53,100,
6,110688, Note_on_c,5,57,100,
6,110688, Note_on_c,5,60,100,
6,110688, Note_on_c,5,65,100,
6,110689, Note_off_c,5,60,0,
6,110736, Note_off_c,5,57,0,
6,110736, Note_off_c,5,48,0,
6,110736, Note_off_c,5,41,0,
6,110736, Note_on_c,5,41,100,
6,110736, Note_on_c,5,48,100,
6,110736, Note_on_c,5,53,100,
6,110736, Note_on_c,5,57,100,
6,110736, Note_on_c,5,60,100,
6,110736, Note_on_c,5,65,100,
6,110737, Note_off_c,5,65,0,
6,110737, Note_off_c,5,60,0,
6,110737, Note_off_c,5,53,0,
6,110784, Note_off_c,5,48,0,
6,110784, Note_off_c,5,60,0,
6,110784, Note_off_c,5,53,0,
6,110784, Note_off_c,5,65,0,
6,110784, Note_off_c,5,41,0,
6,110784, Note_off_c,5,57,0,
6,110832, Note_on_c,5,41,100,
6,110832, Note_on_c,5,48,100,
6,110832, Note_on_c,5,53,100,
6,110832, Note_on_c,5,57,100,
6,110832, Note_on_c,5,60,100,
6,110832, Note_on_c,5,65,100,
6,110880, Note_off_c,5,65,0,
6,110880, Note_off_c,5,57,0,
6,110880, Note_off_c,5,53,0,
6,110880, Note_off_c,5,48,0,
6,110880, Note_off_c,5,41,0,
6,110880, Note_on_c,5,41,100,
6,110880, Note_on_c,5,48,100,
6,110880, Note_on_c,5,53,100,
6,110880, Note_on_c,5,57,100,
6,110880, Note_on_c,5,60,100,
6,110880, Note_on_c,5,65,100,
6,110881, Note_off_c,5,60,0,
6,110928, Note_off_c,5,57,0,
6,110928, Note_off_c,5,53,0,
6,110928, Note_off_c,5,48,0,
6,110928, Note_off_c,5,60,0,
6,110928, Note_off_c,5,41,0,
6,110928, Note_off_c,5,65,0,
6,110976, Note_on_c,5,65,100,
6,110976, Note_on_c,5,60,100,
6,110976, Note_on_c,5,57,100,
6,110976, Note_on_c,5,53,100,
6,110976, Note_on_c,5,48,100,
6,110976, Note_on_c,5,41,100,
6,111024, Note_off_c,5,41,0,
6,111024, Note_off_c,5,48,0,
6,111024, Note_off_c,5,53,0,
6,111024, Note_off_c,5,60,0,
6,111024, Note_off_c,5,65,0,
6,111024, Note_on_c,5,41,100,
6,111024, Note_on_c,5,48,100,
6,111024, Note_on_c,5,53,100,
6,111024, Note_on_c,5,57,100,
6,111024, Note_on_c,5,60,100,
6,111024, Note_on_c,5,65,100,
6,111025, Note_off_c,5,57,0,
6,111072, Note_off_c,5,53,0,
6,111072, Note_off_c,5,48,0,
6,111072, Note_off_c,5,57,0,
6,111072, Note_off_c,5,41,0,
6,111072, Note_off_c,5,60,0,
6,111072, Note_off_c,5,65,0,
6,111264, Program_c,5,25,,
6,111456, Note_on_c,5,45,100,
6,111456, Note_on_c,5,52,100,
6,111456, Note_on_c,5,57,100,
6,111456, Note_on_c,5,60,100,
6,111456, Note_on_c,5,64,100,
6,111456, Note_on_c,5,69,100,
6,111504, Note_off_c,5,69,0,
6,111504, Note_off_c,5,60,0,
6,111504, Note_off_c,5,57,0,
6,111504, Note_off_c,5,52,0,
6,111504, Note_off_c,5,45,0,
6,111504, Note_on_c,5,45,100,
6,111504, Note_on_c,5,52,100,
6,111504, Note_on_c,5,57,100,
6,111504, Note_on_c,5,60,100,
6,111504, Note_on_c,5,64,100,
6,111504, Note_on_c,5,69,100,
6,111505, Note_off_c,5,64,0,
6,111552, Note_off_c,5,60,0,
6,111552, Note_off_c,5,52,0,
6,111552, Note_off_c,5,45,0,
6,111552, Note_on_c,5,45,100,
6,111552, Note_on_c,5,52,100,
6,111552, Note_on_c,5,57,100,
6,111552, Note_on_c,5,60,100,
6,111552, Note_on_c,5,64,100,
6,111552, Note_on_c,5,69,100,
6,111553, Note_off_c,5,69,0,
6,111553, Note_off_c,5,64,0,
6,111553, Note_off_c,5,57,0,
6,111600, Note_off_c,5,52,0,
6,111600, Note_off_c,5,45,0,
6,111600, Note_off_c,5,60,0,
6,111600, Note_on_c,5,52,100,
6,111600, Note_on_c,5,45,100,
6,111600, Note_on_c,5,57,100,
6,111600, Note_on_c,5,60,100,
6,111600, Note_on_c,5,64,100,
6,111600, Note_on_c,5,69,100,
6,111601, Note_off_c,5,69,0,
6,111601, Note_off_c,5,64,0,
6,111601, Note_off_c,5,57,0,
6,111612, Note_on_c,5,43,100,
6,111648, Note_off_c,5,45,0,
6,111648, Note_off_c,5,64,0,
6,111648, Note_off_c,5,57,0,
6,111648, Note_off_c,5,69,0,
6,111648, Note_off_c,5,52,0,
6,111648, Note_off_c,5,60,0,
6,111648, Note_off_c,5,43,0,
6,111840, Note_on_c,5,43,100,
6,111840, Note_on_c,5,50,100,
6,111840, Note_on_c,5,55,100,
6,111840, Note_on_c,5,59,100,
6,111840, Note_on_c,5,62,100,
6,111840, Note_on_c,5,67,100,
6,111936, Note_off_c,5,67,0,
6,111936, Note_off_c,5,59,0,
6,111936, Note_off_c,5,55,0,
6,111936, Note_off_c,5,50,0,
6,111936, Note_off_c,5,43,0,
6,111936, Note_on_c,5,43,100,
6,111936, Note_on_c,5,50,100,
6,111936, Note_on_c,5,55,100,
6,111936, Note_on_c,5,59,100,
6,111936, Note_on_c,5,62,100,
6,111936, Note_on_c,5,67,100,
6,111937, Note_off_c,5,62,0,
6,112032, Note_off_c,5,59,0,
6,112032, Note_off_c,5,55,0,
6,112032, Note_off_c,5,50,0,
6,112032, Note_off_c,5,62,0,
6,112032, Note_off_c,5,43,0,
6,112032, Note_off_c,5,67,0,
6,112176, Note_on_c,5,41,100,
6,112176, Note_on_c,5,48,100,
6,112176, Note_on_c,5,53,100,
6,112176, Note_on_c,5,57,100,
6,112176, Note_on_c,5,60,100,
6,112176, Note_on_c,5,65,100,
6,112224, Note_off_c,5,65,0,
6,112224, Note_off_c,5,57,0,
6,112224, Note_off_c,5,53,0,
6,112224, Note_off_c,5,48,0,
6,112224, Note_off_c,5,41,0,
6,112224, Note_on_c,5,41,100,
6,112224, Note_on_c,5,48,100,
6,112224, Note_on_c,5,53,100,
6,112224, Note_on_c,5,57,100,
6,112224, Note_on_c,5,60,100,
6,112224, Note_on_c,5,65,100,
6,112225, Note_off_c,5,60,0,
6,112272, Note_off_c,5,57,0,
6,112272, Note_off_c,5,48,0,
6,112272, Note_off_c,5,41,0,
6,112272, Note_on_c,5,41,100,
6,112272, Note_on_c,5,48,100,
6,112272, Note_on_c,5,53,100,
6,112272, Note_on_c,5,57,100,
6,112272, Note_on_c,5,60,100,
6,112272, Note_on_c,5,65,100,
6,112273, Note_off_c,5,65,0,
6,112273, Note_off_c,5,60,0,
6,112273, Note_off_c,5,53,0,
6,112320, Note_off_c,5,48,0,
6,112320, Note_off_c,5,60,0,
6,112320, Note_off_c,5,53,0,
6,112320, Note_off_c,5,65,0,
6,112320, Note_off_c,5,41,0,
6,112320, Note_off_c,5,57,0,
6,112368, Note_on_c,5,41,100,
6,112368, Note_on_c,5,48,100,
6,112368, Note_on_c,5,53,100,
6,112368, Note_on_c,5,57,100,
6,112368, Note_on_c,5,60,100,
6,112368, Note_on_c,5,65,100,
6,112416, Note_off_c,5,65,0,
6,112416, Note_off_c,5,57,0,
6,112416, Note_off_c,5,53,0,
6,112416, Note_off_c,5,48,0,
6,112416, Note_off_c,5,41,0,
6,112416, Note_on_c,5,41,100,
6,112416, Note_on_c,5,48,100,
6,112416, Note_on_c,5,53,100,
6,112416, Note_on_c,5,57,100,
6,112416, Note_on_c,5,60,100,
6,112416, Note_on_c,5,65,100,
6,112417, Note_off_c,5,60,0,
6,112464, Note_off_c,5,57,0,
6,112464, Note_off_c,5,53,0,
6,112464, Note_off_c,5,48,0,
6,112464, Note_off_c,5,60,0,
6,112464, Note_off_c,5,41,0,
6,112464, Note_off_c,5,65,0,
6,112512, Note_on_c,5,65,100,
6,112512, Note_on_c,5,60,100,
6,112512, Note_on_c,5,57,100,
6,112512, Note_on_c,5,53,100,
6,112512, Note_on_c,5,48,100,
6,112512, Note_on_c,5,41,100,
6,112560, Note_off_c,5,41,0,
6,112560, Note_off_c,5,48,0,
6,112560, Note_off_c,5,53,0,
6,112560, Note_off_c,5,60,0,
6,112560, Note_off_c,5,65,0,
6,112560, Note_on_c,5,41,100,
6,112560, Note_on_c,5,48,100,
6,112560, Note_on_c,5,53,100,
6,112560, Note_on_c,5,57,100,
6,112560, Note_on_c,5,60,100,
6,112560, Note_on_c,5,65,100,
6,112561, Note_off_c,5,57,0,
6,112608, Note_off_c,5,53,0,
6,112608, Note_off_c,5,48,0,
6,112608, Note_off_c,5,57,0,
6,112608, Note_off_c,5,41,0,
6,112608, Note_off_c,5,60,0,
6,112608, Note_off_c,5,65,0,
6,112992, Note_on_c,5,45,100,
6,112992, Note_on_c,5,52,100,
6,112992, Note_on_c,5,57,100,
6,112992, Note_on_c,5,60,100,
6,112992, Note_on_c,5,64,100,
6,112992, Note_on_c,5,69,100,
6,113040, Note_off_c,5,69,0,
6,113040, Note_off_c,5,60,0,
6,113040, Note_off_c,5,57,0,
6,113040, Note_off_c,5,52,0,
6,113040, Note_off_c,5,45,0,
6,113040, Note_on_c,5,45,100,
6,113040, Note_on_c,5,52,100,
6,113040, Note_on_c,5,57,100,
6,113040, Note_on_c,5,60,100,
6,113040, Note_on_c,5,64,100,
6,113040, Note_on_c,5,69,100,
6,113041, Note_off_c,5,64,0,
6,113088, Note_off_c,5,60,0,
6,113088, Note_off_c,5,52,0,
6,113088, Note_off_c,5,45,0,
6,113088, Note_on_c,5,45,100,
6,113088, Note_on_c,5,52,100,
6,113088, Note_on_c,5,57,100,
6,113088, Note_on_c,5,60,100,
6,113088, Note_on_c,5,64,100,
6,113088, Note_on_c,5,69,100,
6,113089, Note_off_c,5,69,0,
6,113089, Note_off_c,5,64,0,
6,113089, Note_off_c,5,57,0,
6,113136, Note_off_c,5,52,0,
6,113136, Note_off_c,5,57,0,
6,113136, Note_off_c,5,45,0,
6,113136, Note_off_c,5,60,0,
6,113136, Note_on_c,5,52,100,
6,113136, Note_on_c,5,45,100,
6,113136, Note_on_c,5,57,100,
6,113136, Note_on_c,5,60,100,
6,113136, Note_on_c,5,64,100,
6,113136, Note_on_c,5,69,100,
6,113136, Note_on_c,5,43,100,
6,113137, Note_off_c,5,69,0,
6,113137, Note_off_c,5,64,0,
6,113184, Note_off_c,5,60,0,
6,113184, Note_off_c,5,57,0,
6,113184, Note_off_c,5,45,0,
6,113184, Note_off_c,5,64,0,
6,113184, Note_off_c,5,69,0,
6,113184, Note_off_c,5,52,0,
6,113184, Note_off_c,5,43,0,
6,113376, Note_on_c,5,43,100,
6,113376, Note_on_c,5,50,100,
6,113376, Note_on_c,5,55,100,
6,113376, Note_on_c,5,59,100,
6,113376, Note_on_c,5,62,100,
6,113376, Note_on_c,5,67,100,
6,113472, Note_off_c,5,67,0,
6,113472, Note_off_c,5,59,0,
6,113472, Note_off_c,5,55,0,
6,113472, Note_off_c,5,50,0,
6,113472, Note_off_c,5,43,0,
6,113472, Note_on_c,5,43,100,
6,113472, Note_on_c,5,50,100,
6,113472, Note_on_c,5,55,100,
6,113472, Note_on_c,5,59,100,
6,113472, Note_on_c,5,62,100,
6,113472, Note_on_c,5,67,100,
6,113473, Note_off_c,5,62,0,
6,113568, Note_off_c,5,59,0,
6,113568, Note_off_c,5,55,0,
6,113568, Note_off_c,5,50,0,
6,113568, Note_off_c,5,62,0,
6,113568, Note_off_c,5,43,0,
6,113568, Note_off_c,5,67,0,
6,113712, Note_on_c,5,41,100,
6,113712, Note_on_c,5,48,100,
6,113712, Note_on_c,5,53,100,
6,113712, Note_on_c,5,57,100,
6,113712, Note_on_c,5,60,100,
6,113712, Note_on_c,5,65,100,
6,113760, Note_off_c,5,65,0,
6,113760, Note_off_c,5,57,0,
6,113760, Note_off_c,5,53,0,
6,113760, Note_off_c,5,48,0,
6,113760, Note_off_c,5,41,0,
6,113760, Note_on_c,5,41,100,
6,113760, Note_on_c,5,48,100,
6,113760, Note_on_c,5,53,100,
6,113760, Note_on_c,5,57,100,
6,113760, Note_on_c,5,60,100,
6,113760, Note_on_c,5,65,100,
6,113761, Note_off_c,5,60,0,
6,113808, Note_off_c,5,57,0,
6,113808, Note_off_c,5,48,0,
6,113808, Note_off_c,5,41,0,
6,113808, Note_on_c,5,41,100,
6,113808, Note_on_c,5,48,100,
6,113808, Note_on_c,5,53,100,
6,113808, Note_on_c,5,57,100,
6,113808, Note_on_c,5,60,100,
6,113808, Note_on_c,5,65,100,
6,113809, Note_off_c,5,65,0,
6,113809, Note_off_c,5,60,0,
6,113809, Note_off_c,5,53,0,
6,113856, Note_off_c,5,48,0,
6,113856, Note_off_c,5,60,0,
6,113856, Note_off_c,5,53,0,
6,113856, Note_off_c,5,65,0,
6,113856, Note_off_c,5,41,0,
6,113856, Note_off_c,5,57,0,
6,113904, Note_on_c,5,41,100,
6,113904, Note_on_c,5,48,100,
6,113904, Note_on_c,5,53,100,
6,113904, Note_on_c,5,57,100,
6,113904, Note_on_c,5,60,100,
6,113904, Note_on_c,5,65,100,
6,113952, Note_off_c,5,65,0,
6,113952, Note_off_c,5,57,0,
6,113952, Note_off_c,5,53,0,
6,113952, Note_off_c,5,48,0,
6,113952, Note_off_c,5,41,0,
6,113952, Note_on_c,5,41,100,
6,113952, Note_on_c,5,48,100,
6,113952, Note_on_c,5,53,100,
6,113952, Note_on_c,5,57,100,
6,113952, Note_on_c,5,60,100,
6,113952, Note_on_c,5,65,100,
6,113953, Note_off_c,5,60,0,
6,114000, Note_off_c,5,57,0,
6,114000, Note_off_c,5,53,0,
6,114000, Note_off_c,5,48,0,
6,114000, Note_off_c,5,60,0,
6,114000, Note_off_c,5,41,0,
6,114000, Note_off_c,5,65,0,
6,114048, Note_on_c,5,65,100,
6,114048, Note_on_c,5,60,100,
6,114048, Note_on_c,5,57,100,
6,114048, Note_on_c,5,53,100,
6,114048, Note_on_c,5,48,100,
6,114048, Note_on_c,5,41,100,
6,114096, Note_off_c,5,41,0,
6,114096, Note_off_c,5,48,0,
6,114096, Note_off_c,5,53,0,
6,114096, Note_off_c,5,60,0,
6,114096, Note_off_c,5,65,0,
6,114096, Note_on_c,5,41,100,
6,114096, Note_on_c,5,48,100,
6,114096, Note_on_c,5,53,100,
6,114096, Note_on_c,5,57,100,
6,114096, Note_on_c,5,60,100,
6,114096, Note_on_c,5,65,100,
6,114097, Note_off_c,5,57,0,
6,114144, Note_off_c,5,53,0,
6,114144, Note_off_c,5,48,0,
6,114144, Note_off_c,5,57,0,
6,114144, Note_off_c,5,41,0,
6,114144, Note_off_c,5,60,0,
6,114144, Note_off_c,5,65,0,
6,114336, Program_c,5,25,,
6,114528, Note_on_c,5,45,100,
6,114528, Note_on_c,5,52,100,
6,114528, Note_on_c,5,57,100,
6,114528, Note_on_c,5,60,100,
6,114528, Note_on_c,5,64,100,
6,114528, Note_on_c,5,69,100,
6,114576, Note_off_c,5,69,0,
6,114576, Note_off_c,5,60,0,
6,114576, Note_off_c,5,57,0,
6,114576, Note_off_c,5,52,0,
6,114576, Note_off_c,5,45,0,
6,114576, Note_on_c,5,45,100,
6,114576, Note_on_c,5,52,100,
6,114576, Note_on_c,5,57,100,
6,114576, Note_on_c,5,60,100,
6,114576, Note_on_c,5,64,100,
6,114576, Note_on_c,5,69,100,
6,114577, Note_off_c,5,64,0,
6,114624, Note_off_c,5,60,0,
6,114624, Note_off_c,5,52,0,
6,114624, Note_off_c,5,45,0,
6,114624, Note_on_c,5,45,100,
6,114624, Note_on_c,5,52,100,
6,114624, Note_on_c,5,57,100,
6,114624, Note_on_c,5,60,100,
6,114624, Note_on_c,5,64,100,
6,114624, Note_on_c,5,69,100,
6,114625, Note_off_c,5,69,0,
6,114625, Note_off_c,5,64,0,
6,114625, Note_off_c,5,57,0,
6,114672, Note_off_c,5,52,0,
6,114672, Note_off_c,5,45,0,
6,114672, Note_off_c,5,60,0,
6,114672, Note_on_c,5,52,100,
6,114672, Note_on_c,5,45,100,
6,114672, Note_on_c,5,57,100,
6,114672, Note_on_c,5,60,100,
6,114672, Note_on_c,5,64,100,
6,114672, Note_on_c,5,69,100,
6,114673, Note_off_c,5,69,0,
6,114673, Note_off_c,5,64,0,
6,114673, Note_off_c,5,57,0,
6,114684, Note_on_c,5,43,100,
6,114720, Note_off_c,5,45,0,
6,114720, Note_off_c,5,64,0,
6,114720, Note_off_c,5,57,0,
6,114720, Note_off_c,5,69,0,
6,114720, Note_off_c,5,52,0,
6,114720, Note_off_c,5,60,0,
6,114720, Note_off_c,5,43,0,
6,114912, Note_on_c,5,43,100,
6,114912, Note_on_c,5,50,100,
6,114912, Note_on_c,5,55,100,
6,114912, Note_on_c,5,59,100,
6,114912, Note_on_c,5,62,100,
6,114912, Note_on_c,5,67,100,
6,115008, Note_off_c,5,67,0,
6,115008, Note_off_c,5,59,0,
6,115008, Note_off_c,5,55,0,
6,115008, Note_off_c,5,50,0,
6,115008, Note_off_c,5,43,0,
6,115008, Note_on_c,5,43,100,
6,115008, Note_on_c,5,50,100,
6,115008, Note_on_c,5,55,100,
6,115008, Note_on_c,5,59,100,
6,115008, Note_on_c,5,62,100,
6,115008, Note_on_c,5,67,100,
6,115009, Note_off_c,5,62,0,
6,115104, Note_off_c,5,59,0,
6,115104, Note_off_c,5,55,0,
6,115104, Note_off_c,5,50,0,
6,115104, Note_off_c,5,62,0,
6,115104, Note_off_c,5,43,0,
6,115104, Note_off_c,5,67,0,
6,115248, Note_on_c,5,41,100,
6,115248, Note_on_c,5,48,100,
6,115248, Note_on_c,5,53,100,
6,115248, Note_on_c,5,57,100,
6,115248, Note_on_c,5,60,100,
6,115248, Note_on_c,5,65,100,
6,115296, Note_off_c,5,65,0,
6,115296, Note_off_c,5,57,0,
6,115296, Note_off_c,5,53,0,
6,115296, Note_off_c,5,48,0,
6,115296, Note_off_c,5,41,0,
6,115296, Note_on_c,5,41,100,
6,115296, Note_on_c,5,48,100,
6,115296, Note_on_c,5,53,100,
6,115296, Note_on_c,5,57,100,
6,115296, Note_on_c,5,60,100,
6,115296, Note_on_c,5,65,100,
6,115297, Note_off_c,5,60,0,
6,115344, Note_off_c,5,57,0,
6,115344, Note_off_c,5,48,0,
6,115344, Note_off_c,5,41,0,
6,115344, Note_on_c,5,41,100,
6,115344, Note_on_c,5,48,100,
6,115344, Note_on_c,5,53,100,
6,115344, Note_on_c,5,57,100,
6,115344, Note_on_c,5,60,100,
6,115344, Note_on_c,5,65,100,
6,115345, Note_off_c,5,65,0,
6,115345, Note_off_c,5,60,0,
6,115345, Note_off_c,5,53,0,
6,115392, Note_off_c,5,48,0,
6,115392, Note_off_c,5,60,0,
6,115392, Note_off_c,5,53,0,
6,115392, Note_off_c,5,65,0,
6,115392, Note_off_c,5,41,0,
6,115392, Note_off_c,5,57,0,
6,115440, Note_on_c,5,41,100,
6,115440, Note_on_c,5,48,100,
6,115440, Note_on_c,5,53,100,
6,115440, Note_on_c,5,57,100,
6,115440, Note_on_c,5,60,100,
6,115440, Note_on_c,5,65,100,
6,115488, Note_off_c,5,65,0,
6,115488, Note_off_c,5,57,0,
6,115488, Note_off_c,5,53,0,
6,115488, Note_off_c,5,48,0,
6,115488, Note_off_c,5,41,0,
6,115488, Note_on_c,5,41,100,
6,115488, Note_on_c,5,48,100,
6,115488, Note_on_c,5,53,100,
6,115488, Note_on_c,5,57,100,
6,115488, Note_on_c,5,60,100,
6,115488, Note_on_c,5,65,100,
6,115489, Note_off_c,5,60,0,
6,115536, Note_off_c,5,57,0,
6,115536, Note_off_c,5,53,0,
6,115536, Note_off_c,5,48,0,
6,115536, Note_off_c,5,60,0,
6,115536, Note_off_c,5,41,0,
6,115536, Note_off_c,5,65,0,
6,115584, Note_on_c,5,65,100,
6,115584, Note_on_c,5,60,100,
6,115584, Note_on_c,5,57,100,
6,115584, Note_on_c,5,53,100,
6,115584, Note_on_c,5,48,100,
6,115584, Note_on_c,5,41,100,
6,115632, Note_off_c,5,41,0,
6,115632, Note_off_c,5,48,0,
6,115632, Note_off_c,5,53,0,
6,115632, Note_off_c,5,60,0,
6,115632, Note_off_c,5,65,0,
6,115632, Note_on_c,5,41,100,
6,115632, Note_on_c,5,48,100,
6,115632, Note_on_c,5,53,100,
6,115632, Note_on_c,5,57,100,
6,115632, Note_on_c,5,60,100,
6,115632, Note_on_c,5,65,100,
6,115633, Note_off_c,5,57,0,
6,115680, Note_off_c,5,53,0,
6,115680, Note_off_c,5,48,0,
6,115680, Note_off_c,5,57,0,
6,115680, Note_off_c,5,41,0,
6,115680, Note_off_c,5,60,0,
6,115680, Note_off_c,5,65,0,
6,117312, Note_on_c,5,45,100,
6,117360, Note_off_c,5,45,0,
6,117360, Note_on_c,5,45,100,
6,117408, Note_off_c,5,45,0,
6,117408, End_track,,,,
7,0, Start_track,,,,
7,0, Instrument_t,12 string guitar 2  ,,,
7,0, Channel_prefix,7,,,
7,0, Control_c,7,7,90,
7,0, Control_c,7,10,34,
7,0, Program_c,7,25,,
7,0, Control_c,7,0,8,
7,12, Program_c,7,25,,
7,30720, Note_on_c,7,57,90,
7,30720, Note_on_c,7,60,90,
7,30720, Note_on_c,7,67,90,
7,30720, Note_on_c,7,64,90,
7,30804, Note_off_c,7,64,0,
7,30804, Note_off_c,7,67,0,
7,30804, Note_off_c,7,60,0,
7,30804, Note_off_c,7,57,0,
7,30816, Note_on_c,7,67,90,
7,30816, Note_on_c,7,60,90,
7,30816, Note_on_c,7,57,90,
7,30816, Note_on_c,7,64,90,
7,30852, Note_off_c,7,64,0,
7,30852, Note_off_c,7,57,0,
7,30852, Note_off_c,7,60,0,
7,30852, Note_off_c,7,67,0,
7,30864, Note_on_c,7,57,90,
7,30864, Note_on_c,7,60,90,
7,30864, Note_on_c,7,67,90,
7,30864, Note_on_c,7,64,90,
7,30900, Note_off_c,7,64,0,
7,30900, Note_off_c,7,67,0,
7,30900, Note_off_c,7,60,0,
7,30900, Note_off_c,7,57,0,
7,30912, Note_on_c,7,57,90,
7,30912, Note_on_c,7,60,90,
7,30912, Note_on_c,7,67,90,
7,30912, Note_on_c,7,64,90,
7,30996, Note_off_c,7,64,0,
7,30996, Note_off_c,7,67,0,
7,30996, Note_off_c,7,60,0,
7,30996, Note_off_c,7,57,0,
7,31008, Note_on_c,7,60,90,
7,31008, Note_on_c,7,57,90,
7,31008, Note_on_c,7,67,90,
7,31008, Note_on_c,7,64,90,
7,31188, Note_off_c,7,64,0,
7,31188, Note_off_c,7,67,0,
7,31188, Note_off_c,7,57,0,
7,31188, Note_off_c,7,60,0,
7,31200, Note_on_c,7,57,90,
7,31200, Note_on_c,7,60,90,
7,31200, Note_on_c,7,64,90,
7,31380, Note_off_c,7,64,0,
7,31380, Note_off_c,7,60,0,
7,31380, Note_off_c,7,57,0,
7,31392, Note_on_c,7,57,90,
7,31392, Note_on_c,7,62,90,
7,31392, Note_on_c,7,64,90,
7,31572, Note_off_c,7,64,0,
7,31572, Note_off_c,7,62,0,
7,31572, Note_off_c,7,57,0,
7,31584, Note_on_c,7,57,90,
7,31584, Note_on_c,7,62,90,
7,31584, Note_on_c,7,66,90,
7,31776, Note_on_c,7,50,90,
7,31860, Note_off_c,7,66,0,
7,31860, Note_off_c,7,62,0,
7,31860, Note_off_c,7,57,0,
7,31872, Note_on_c,7,62,90,
7,31956, Note_off_c,7,62,0,
7,31968, Note_on_c,7,62,90,
7,32004, Note_off_c,7,62,0,
7,32016, Note_on_c,7,66,90,
7,32052, Note_off_c,7,66,0,
7,32064, Note_on_c,7,62,90,
7,32148, Note_off_c,7,62,0,
7,32160, Note_on_c,7,59,90,
7,32160, Note_on_c,7,55,90,
7,32196, Note_off_c,7,55,0,
7,32196, Note_off_c,7,59,0,
7,32208, Note_on_c,7,55,90,
7,32208, Note_on_c,7,59,90,
7,32244, Note_off_c,7,50,0,
7,32256, Note_off_c,7,55,0,
7,32256, Note_off_c,7,59,0,
7,32256, Note_on_c,7,57,90,
7,32256, Note_on_c,7,60,90,
7,32256, Note_on_c,7,67,90,
7,32256, Note_on_c,7,52,90,
7,32256, Note_on_c,7,64,90,
7,32340, Note_off_c,7,64,0,
7,32340, Note_off_c,7,52,0,
7,32340, Note_off_c,7,67,0,
7,32340, Note_off_c,7,60,0,
7,32340, Note_off_c,7,57,0,
7,32352, Note_on_c,7,67,90,
7,32352, Note_on_c,7,60,90,
7,32352, Note_on_c,7,57,90,
7,32352, Note_on_c,7,52,90,
7,32352, Note_on_c,7,64,90,
7,32388, Note_off_c,7,64,0,
7,32388, Note_off_c,7,52,0,
7,32388, Note_off_c,7,57,0,
7,32388, Note_off_c,7,60,0,
7,32388, Note_off_c,7,67,0,
7,32400, Note_on_c,7,52,90,
7,32400, Note_on_c,7,57,90,
7,32400, Note_on_c,7,60,90,
7,32400, Note_on_c,7,67,90,
7,32400, Note_on_c,7,64,90,
7,32436, Note_off_c,7,64,0,
7,32436, Note_off_c,7,67,0,
7,32436, Note_off_c,7,60,0,
7,32436, Note_off_c,7,57,0,
7,32436, Note_off_c,7,52,0,
7,32448, Note_on_c,7,67,90,
7,32448, Note_on_c,7,60,90,
7,32448, Note_on_c,7,57,90,
7,32448, Note_on_c,7,52,90,
7,32448, Note_on_c,7,64,90,
7,32532, Note_off_c,7,64,0,
7,32532, Note_off_c,7,52,0,
7,32532, Note_off_c,7,57,0,
7,32532, Note_off_c,7,60,0,
7,32532, Note_off_c,7,67,0,
7,32544, Note_on_c,7,67,90,
7,32544, Note_on_c,7,60,90,
7,32544, Note_on_c,7,57,90,
7,32544, Note_on_c,7,52,90,
7,32544, Note_on_c,7,64,90,
7,32628, Note_off_c,7,64,0,
7,32628, Note_off_c,7,52,0,
7,32628, Note_off_c,7,57,0,
7,32628, Note_off_c,7,60,0,
7,32628, Note_off_c,7,67,0,
7,32640, Note_on_c,7,52,90,
7,32640, Note_on_c,7,57,90,
7,32640, Note_on_c,7,60,90,
7,32640, Note_on_c,7,67,90,
7,32640, Note_on_c,7,64,90,
7,32724, Note_off_c,7,64,0,
7,32724, Note_off_c,7,67,0,
7,32724, Note_off_c,7,60,0,
7,32724, Note_off_c,7,57,0,
7,32724, Note_off_c,7,52,0,
7,32736, Note_on_c,7,52,90,
7,32736, Note_on_c,7,57,90,
7,32736, Note_on_c,7,60,90,
7,32736, Note_on_c,7,64,90,
7,32820, Note_off_c,7,64,0,
7,32820, Note_off_c,7,60,0,
7,32820, Note_off_c,7,57,0,
7,32820, Note_off_c,7,52,0,
7,32928, Note_on_c,7,50,90,
7,32928, Note_on_c,7,64,90,
7,32928, Note_on_c,7,67,90,
7,32928, Note_on_c,7,71,90,
7,33108, Note_off_c,7,71,0,
7,33108, Note_off_c,7,67,0,
7,33108, Note_off_c,7,64,0,
7,33120, Note_on_c,7,62,90,
7,33120, Note_on_c,7,66,90,
7,33120, Note_on_c,7,69,90,
7,33312, Note_off_c,7,69,0,
7,33312, Note_off_c,7,66,0,
7,33312, Note_off_c,7,62,0,
7,33324, Note_on_c,7,60,90,
7,33324, Note_on_c,7,64,90,
7,33324, Note_on_c,7,67,90,
7,33504, Note_off_c,7,67,0,
7,33504, Note_off_c,7,64,0,
7,33504, Note_off_c,7,60,0,
7,33516, Note_on_c,7,62,90,
7,33516, Note_on_c,7,66,90,
7,33516, Note_on_c,7,69,90,
7,33684, Note_off_c,7,69,0,
7,33684, Note_off_c,7,66,0,
7,33684, Note_off_c,7,50,0,
7,33684, Note_off_c,7,62,0,
7,33696, Note_on_c,7,45,90,
7,33696, Note_on_c,7,50,90,
7,33768, Note_off_c,7,50,0,
7,33780, Note_off_c,7,45,0,
7,33792, Note_on_c,7,52,90,
7,33792, Note_on_c,7,57,90,
7,33792, Note_on_c,7,60,90,
7,33792, Note_on_c,7,67,90,
7,33876, Note_off_c,7,67,0,
7,33876, Note_off_c,7,60,0,
7,33876, Note_off_c,7,57,0,
7,33876, Note_off_c,7,52,0,
7,33888, Note_on_c,7,67,90,
7,33888, Note_on_c,7,60,90,
7,33888, Note_on_c,7,57,90,
7,33888, Note_on_c,7,52,90,
7,33924, Note_off_c,7,52,0,
7,33924, Note_off_c,7,57,0,
7,33924, Note_off_c,7,60,0,
7,33924, Note_off_c,7,67,0,
7,33936, Note_on_c,7,52,90,
7,33936, Note_on_c,7,57,90,
7,33936, Note_on_c,7,60,90,
7,33936, Note_on_c,7,67,90,
7,33972, Note_off_c,7,67,0,
7,33972, Note_off_c,7,60,0,
7,33972, Note_off_c,7,57,0,
7,33972, Note_off_c,7,52,0,
7,33984, Note_on_c,7,52,90,
7,33984, Note_on_c,7,57,90,
7,33984, Note_on_c,7,60,90,
7,33984, Note_on_c,7,67,90,
7,34068, Note_off_c,7,67,0,
7,34068, Note_off_c,7,60,0,
7,34068, Note_off_c,7,57,0,
7,34068, Note_off_c,7,52,0,
7,34080, Note_on_c,7,67,90,
7,34080, Note_on_c,7,60,90,
7,34080, Note_on_c,7,57,90,
7,34260, Note_off_c,7,57,0,
7,34260, Note_off_c,7,60,0,
7,34260, Note_off_c,7,67,0,
7,34272, Note_on_c,7,52,90,
7,34272, Note_on_c,7,57,90,
7,34272, Note_on_c,7,60,90,
7,34272, Note_on_c,7,64,90,
7,34452, Note_off_c,7,64,0,
7,34452, Note_off_c,7,60,0,
7,34452, Note_off_c,7,57,0,
7,34452, Note_off_c,7,52,0,
7,34464, Note_on_c,7,57,90,
7,34464, Note_on_c,7,62,90,
7,34464, Note_on_c,7,64,90,
7,34644, Note_off_c,7,64,0,
7,34644, Note_off_c,7,62,0,
7,34644, Note_off_c,7,57,0,
7,34656, Note_on_c,7,57,90,
7,34656, Note_on_c,7,62,90,
7,34656, Note_on_c,7,66,90,
7,34848, Note_on_c,7,50,90,
7,34932, Note_off_c,7,66,0,
7,34932, Note_off_c,7,62,0,
7,34932, Note_off_c,7,57,0,
7,34944, Note_on_c,7,62,90,
7,35028, Note_off_c,7,62,0,
7,35040, Note_on_c,7,62,90,
7,35076, Note_off_c,7,62,0,
7,35088, Note_on_c,7,66,90,
7,35124, Note_off_c,7,66,0,
7,35136, Note_on_c,7,62,90,
7,35220, Note_off_c,7,62,0,
7,35232, Note_on_c,7,59,90,
7,35232, Note_on_c,7,55,90,
7,35268, Note_off_c,7,55,0,
7,35268, Note_off_c,7,59,0,
7,35280, Note_on_c,7,55,90,
7,35280, Note_on_c,7,59,90,
7,35316, Note_off_c,7,50,0,
7,35328, Note_off_c,7,55,0,
7,35328, Note_off_c,7,59,0,
7,35328, Note_on_c,7,52,90,
7,35328, Note_on_c,7,57,90,
7,35328, Note_on_c,7,60,90,
7,35328, Note_on_c,7,67,90,
7,35412, Note_off_c,7,67,0,
7,35412, Note_off_c,7,60,0,
7,35412, Note_off_c,7,57,0,
7,35412, Note_off_c,7,52,0,
7,35424, Note_on_c,7,67,90,
7,35424, Note_on_c,7,60,90,
7,35424, Note_on_c,7,57,90,
7,35424, Note_on_c,7,52,90,
7,35460, Note_off_c,7,52,0,
7,35460, Note_off_c,7,57,0,
7,35460, Note_off_c,7,60,0,
7,35460, Note_off_c,7,67,0,
7,35472, Note_on_c,7,52,90,
7,35472, Note_on_c,7,57,90,
7,35472, Note_on_c,7,60,90,
7,35472, Note_on_c,7,67,90,
7,35508, Note_off_c,7,67,0,
7,35508, Note_off_c,7,60,0,
7,35508, Note_off_c,7,57,0,
7,35508, Note_off_c,7,52,0,
7,35520, Note_on_c,7,52,90,
7,35520, Note_on_c,7,57,90,
7,35520, Note_on_c,7,60,90,
7,35520, Note_on_c,7,67,90,
7,35604, Note_off_c,7,67,0,
7,35604, Note_off_c,7,60,0,
7,35604, Note_off_c,7,57,0,
7,35604, Note_off_c,7,52,0,
7,35616, Note_on_c,7,52,90,
7,35616, Note_on_c,7,57,90,
7,35616, Note_on_c,7,60,90,
7,35616, Note_on_c,7,64,90,
7,35700, Note_off_c,7,64,0,
7,35700, Note_off_c,7,60,0,
7,35700, Note_off_c,7,57,0,
7,35700, Note_off_c,7,52,0,
7,35808, Note_on_c,7,52,90,
7,35808, Note_on_c,7,57,90,
7,35808, Note_on_c,7,60,90,
7,35808, Note_on_c,7,64,90,
7,35892, Note_off_c,7,64,0,
7,35892, Note_off_c,7,60,0,
7,35892, Note_off_c,7,57,0,
7,35892, Note_off_c,7,52,0,
7,36000, Note_on_c,7,64,90,
7,36000, Note_on_c,7,67,90,
7,36000, Note_on_c,7,71,90,
7,36084, Note_off_c,7,71,0,
7,36084, Note_off_c,7,67,0,
7,36084, Note_off_c,7,64,0,
7,36192, Note_on_c,7,62,90,
7,36192, Note_on_c,7,66,90,
7,36192, Note_on_c,7,69,90,
7,36276, Note_off_c,7,69,0,
7,36276, Note_off_c,7,66,0,
7,36276, Note_off_c,7,62,0,
7,36384, Note_on_c,7,60,90,
7,36384, Note_on_c,7,64,90,
7,36384, Note_on_c,7,67,90,
7,36468, Note_off_c,7,67,0,
7,36468, Note_off_c,7,64,0,
7,36468, Note_off_c,7,60,0,
7,36576, Note_on_c,7,62,90,
7,36576, Note_on_c,7,66,90,
7,36576, Note_on_c,7,69,90,
7,36852, Note_off_c,7,66,0,
7,36852, Note_off_c,7,62,0,
7,36864, Note_off_c,7,69,0,
7,36864, Note_on_c,7,48,90,
7,36864, Note_on_c,7,45,90,
7,36865, Note_off_c,7,45,0,
7,36960, Note_on_c,7,52,90,
7,37044, Note_off_c,7,52,0,
7,37056, Note_on_c,7,55,90,
7,37140, Note_off_c,7,55,0,
7,37152, Note_on_c,7,60,90,
7,37236, Note_off_c,7,48,0,
7,37236, Note_off_c,7,60,0,
7,37248, Note_on_c,7,47,90,
7,37344, Note_on_c,7,50,90,
7,37428, Note_off_c,7,50,0,
7,37440, Note_on_c,7,55,90,
7,37524, Note_off_c,7,55,0,
7,37536, Note_on_c,7,62,90,
7,37620, Note_off_c,7,47,0,
7,37620, Note_off_c,7,62,0,
7,37632, Note_on_c,7,59,90,
7,37632, Note_on_c,7,60,90,
7,37633, Note_off_c,7,59,0,
7,37716, Note_off_c,7,60,0,
7,37728, Note_on_c,7,57,90,
7,37812, Note_off_c,7,57,0,
7,37824, Note_on_c,7,45,90,
7,37920, Note_on_c,7,52,90,
7,38004, Note_off_c,7,52,0,
7,38016, Note_on_c,7,57,90,
7,38100, Note_off_c,7,57,0,
7,38112, Note_on_c,7,60,90,
7,38196, Note_off_c,7,45,0,
7,38196, Note_off_c,7,60,0,
7,38208, Note_on_c,7,45,90,
7,38292, Note_off_c,7,45,0,
7,38304, Note_on_c,7,47,90,
7,38388, Note_off_c,7,47,0,
7,38400, Note_on_c,7,48,90,
7,38496, Note_on_c,7,52,90,
7,38580, Note_off_c,7,52,0,
7,38592, Note_on_c,7,55,90,
7,38676, Note_off_c,7,55,0,
7,38688, Note_on_c,7,60,90,
7,38772, Note_off_c,7,48,0,
7,38772, Note_off_c,7,60,0,
7,38784, Note_on_c,7,47,90,
7,38880, Note_on_c,7,50,90,
7,38964, Note_off_c,7,50,0,
7,38976, Note_on_c,7,55,90,
7,39060, Note_off_c,7,47,0,
7,39060, Note_off_c,7,55,0,
7,39072, Note_on_c,7,64,90,
7,39072, Note_on_c,7,59,90,
7,39072, Note_on_c,7,57,90,
7,39072, Note_on_c,7,48,90,
7,39072, Note_on_c,7,41,90,
7,39252, Note_off_c,7,41,0,
7,39252, Note_off_c,7,48,0,
7,39252, Note_off_c,7,57,0,
7,39252, Note_off_c,7,59,0,
7,39252, Note_off_c,7,64,0,
7,39264, Note_on_c,7,64,90,
7,39264, Note_on_c,7,60,90,
7,39264, Note_on_c,7,57,90,
7,39264, Note_on_c,7,52,90,
7,39264, Note_on_c,7,45,90,
7,39732, Note_off_c,7,45,0,
7,39732, Note_off_c,7,52,0,
7,39732, Note_off_c,7,57,0,
7,39732, Note_off_c,7,60,0,
7,39732, Note_off_c,7,64,0,
7,39744, Note_on_c,7,45,90,
7,39828, Note_off_c,7,45,0,
7,39840, Note_on_c,7,47,90,
7,39924, Note_off_c,7,47,0,
7,39936, Note_on_c,7,48,90,
7,40032, Note_on_c,7,52,90,
7,40116, Note_off_c,7,52,0,
7,40128, Note_on_c,7,55,90,
7,40212, Note_off_c,7,55,0,
7,40224, Note_on_c,7,60,90,
7,40308, Note_off_c,7,48,0,
7,40308, Note_off_c,7,60,0,
7,40320, Note_on_c,7,47,90,
7,40416, Note_on_c,7,50,90,
7,40500, Note_off_c,7,50,0,
7,40512, Note_on_c,7,55,90,
7,40596, Note_off_c,7,55,0,
7,40608, Note_on_c,7,62,90,
7,40692, Note_off_c,7,47,0,
7,40692, Note_off_c,7,62,0,
7,40704, Note_on_c,7,59,90,
7,40704, Note_on_c,7,45,90,
7,40740, Note_off_c,7,59,0,
7,40752, Note_on_c,7,60,90,
7,40788, Note_off_c,7,60,0,
7,40800, Note_on_c,7,57,90,
7,40884, Note_off_c,7,45,0,
7,40884, Note_off_c,7,57,0,
7,40896, Note_on_c,7,45,90,
7,40992, Note_on_c,7,52,90,
7,41076, Note_off_c,7,52,0,
7,41088, Note_on_c,7,57,90,
7,41172, Note_off_c,7,57,0,
7,41184, Note_on_c,7,60,90,
7,41268, Note_off_c,7,45,0,
7,41268, Note_off_c,7,60,0,
7,41280, Note_on_c,7,45,90,
7,41364, Note_off_c,7,45,0,
7,41376, Note_on_c,7,47,90,
7,41460, Note_off_c,7,47,0,
7,41472, Note_on_c,7,48,90,
7,41568, Note_on_c,7,52,90,
7,41652, Note_off_c,7,52,0,
7,41664, Note_on_c,7,55,90,
7,41748, Note_off_c,7,55,0,
7,41760, Note_on_c,7,60,90,
7,41844, Note_off_c,7,48,0,
7,41844, Note_off_c,7,60,0,
7,41856, Note_on_c,7,47,90,
7,41952, Note_on_c,7,50,90,
7,42036, Note_off_c,7,50,0,
7,42048, Note_on_c,7,55,90,
7,42132, Note_off_c,7,47,0,
7,42132, Note_off_c,7,55,0,
7,42144, Note_on_c,7,48,90,
7,42144, Note_on_c,7,41,90,
7,42144, Note_on_c,7,53,90,
7,42144, Note_on_c,7,57,90,
7,42144, Note_on_c,7,60,90,
7,42144, Note_on_c,7,64,90,
7,42324, Note_off_c,7,64,0,
7,42324, Note_off_c,7,60,0,
7,42324, Note_off_c,7,57,0,
7,42324, Note_off_c,7,53,0,
7,42324, Note_off_c,7,41,0,
7,42324, Note_off_c,7,48,0,
7,42336, Note_on_c,7,64,90,
7,42336, Note_on_c,7,60,90,
7,42336, Note_on_c,7,57,90,
7,42336, Note_on_c,7,52,90,
7,42336, Note_on_c,7,45,90,
7,42804, Note_off_c,7,45,0,
7,42804, Note_off_c,7,52,0,
7,42804, Note_off_c,7,57,0,
7,42804, Note_off_c,7,60,0,
7,42804, Note_off_c,7,64,0,
7,42816, Note_on_c,7,45,90,
7,42900, Note_off_c,7,45,0,
7,42912, Note_on_c,7,47,90,
7,42996, Note_off_c,7,47,0,
7,43008, Note_on_c,7,48,90,
7,43104, Note_on_c,7,52,90,
7,43188, Note_off_c,7,52,0,
7,43200, Note_on_c,7,55,90,
7,43284, Note_off_c,7,55,0,
7,43296, Note_on_c,7,60,90,
7,43380, Note_off_c,7,48,0,
7,43380, Note_off_c,7,60,0,
7,43392, Note_on_c,7,47,90,
7,43488, Note_on_c,7,50,90,
7,43572, Note_off_c,7,50,0,
7,43584, Note_on_c,7,55,90,
7,43668, Note_off_c,7,55,0,
7,43680, Note_on_c,7,62,90,
7,43764, Note_off_c,7,47,0,
7,43764, Note_off_c,7,62,0,
7,43776, Note_on_c,7,52,90,
7,43776, Note_on_c,7,57,90,
7,43776, Note_on_c,7,60,90,
7,43776, Note_on_c,7,67,90,
7,43860, Note_off_c,7,67,0,
7,43860, Note_off_c,7,60,0,
7,43860, Note_off_c,7,57,0,
7,43860, Note_off_c,7,52,0,
7,43872, Note_on_c,7,67,90,
7,43872, Note_on_c,7,60,90,
7,43872, Note_on_c,7,57,90,
7,43872, Note_on_c,7,52,90,
7,43908, Note_off_c,7,52,0,
7,43908, Note_off_c,7,57,0,
7,43908, Note_off_c,7,60,0,
7,43908, Note_off_c,7,67,0,
7,43920, Note_on_c,7,52,90,
7,43920, Note_on_c,7,57,90,
7,43920, Note_on_c,7,60,90,
7,43920, Note_on_c,7,67,90,
7,43956, Note_off_c,7,67,0,
7,43956, Note_off_c,7,60,0,
7,43956, Note_off_c,7,57,0,
7,43956, Note_off_c,7,52,0,
7,43968, Note_on_c,7,52,90,
7,43968, Note_on_c,7,57,90,
7,43968, Note_on_c,7,60,90,
7,43968, Note_on_c,7,67,90,
7,44052, Note_off_c,7,67,0,
7,44052, Note_off_c,7,60,0,
7,44052, Note_off_c,7,57,0,
7,44052, Note_off_c,7,52,0,
7,44064, Note_on_c,7,67,90,
7,44064, Note_on_c,7,57,90,
7,44244, Note_off_c,7,57,0,
7,44244, Note_off_c,7,67,0,
7,44256, Note_on_c,7,52,90,
7,44256, Note_on_c,7,57,90,
7,44256, Note_on_c,7,60,90,
7,44256, Note_on_c,7,64,90,
7,44436, Note_off_c,7,64,0,
7,44436, Note_off_c,7,60,0,
7,44436, Note_off_c,7,57,0,
7,44436, Note_off_c,7,52,0,
7,44448, Note_on_c,7,57,90,
7,44448, Note_on_c,7,62,90,
7,44448, Note_on_c,7,64,90,
7,44628, Note_off_c,7,64,0,
7,44628, Note_off_c,7,62,0,
7,44628, Note_off_c,7,57,0,
7,44640, Note_on_c,7,57,90,
7,44640, Note_on_c,7,62,90,
7,44640, Note_on_c,7,66,90,
7,44832, Note_on_c,7,50,90,
7,44916, Note_off_c,7,66,0,
7,44916, Note_off_c,7,62,0,
7,44916, Note_off_c,7,57,0,
7,44928, Note_on_c,7,62,90,
7,45012, Note_off_c,7,62,0,
7,45024, Note_on_c,7,62,90,
7,45060, Note_off_c,7,62,0,
7,45072, Note_on_c,7,66,90,
7,45108, Note_off_c,7,66,0,
7,45120, Note_on_c,7,62,90,
7,45204, Note_off_c,7,62,0,
7,45216, Note_on_c,7,59,90,
7,45216, Note_on_c,7,55,90,
7,45252, Note_off_c,7,55,0,
7,45252, Note_off_c,7,59,0,
7,45264, Note_on_c,7,55,90,
7,45264, Note_on_c,7,59,90,
7,45300, Note_off_c,7,50,0,
7,45312, Note_off_c,7,55,0,
7,45312, Note_off_c,7,59,0,
7,45312, Note_on_c,7,57,90,
7,45312, Note_on_c,7,60,90,
7,45312, Note_on_c,7,67,90,
7,45312, Note_on_c,7,52,90,
7,45396, Note_off_c,7,52,0,
7,45396, Note_off_c,7,67,0,
7,45396, Note_off_c,7,60,0,
7,45396, Note_off_c,7,57,0,
7,45408, Note_on_c,7,67,90,
7,45408, Note_on_c,7,60,90,
7,45408, Note_on_c,7,57,90,
7,45408, Note_on_c,7,52,90,
7,45444, Note_off_c,7,52,0,
7,45444, Note_off_c,7,57,0,
7,45444, Note_off_c,7,60,0,
7,45444, Note_off_c,7,67,0,
7,45456, Note_on_c,7,52,90,
7,45456, Note_on_c,7,57,90,
7,45456, Note_on_c,7,60,90,
7,45456, Note_on_c,7,67,90,
7,45492, Note_off_c,7,67,0,
7,45492, Note_off_c,7,60,0,
7,45492, Note_off_c,7,57,0,
7,45492, Note_off_c,7,52,0,
7,45504, Note_on_c,7,67,90,
7,45504, Note_on_c,7,60,90,
7,45504, Note_on_c,7,57,90,
7,45504, Note_on_c,7,52,90,
7,45588, Note_off_c,7,52,0,
7,45588, Note_off_c,7,57,0,
7,45588, Note_off_c,7,60,0,
7,45588, Note_off_c,7,67,0,
7,45600, Note_on_c,7,67,90,
7,45600, Note_on_c,7,60,90,
7,45600, Note_on_c,7,57,90,
7,45600, Note_on_c,7,52,90,
7,45684, Note_off_c,7,52,0,
7,45684, Note_off_c,7,57,0,
7,45684, Note_off_c,7,60,0,
7,45684, Note_off_c,7,67,0,
7,45696, Note_on_c,7,52,90,
7,45696, Note_on_c,7,57,90,
7,45696, Note_on_c,7,60,90,
7,45696, Note_on_c,7,67,90,
7,45780, Note_off_c,7,67,0,
7,45780, Note_off_c,7,60,0,
7,45780, Note_off_c,7,57,0,
7,45780, Note_off_c,7,52,0,
7,45792, Note_on_c,7,52,90,
7,45792, Note_on_c,7,57,90,
7,45792, Note_on_c,7,60,90,
7,45792, Note_on_c,7,64,90,
7,45876, Note_off_c,7,64,0,
7,45876, Note_off_c,7,60,0,
7,45876, Note_off_c,7,57,0,
7,45876, Note_off_c,7,52,0,
7,45984, Note_on_c,7,50,90,
7,45984, Note_on_c,7,64,90,
7,45984, Note_on_c,7,67,90,
7,45984, Note_on_c,7,71,90,
7,46164, Note_off_c,7,71,0,
7,46164, Note_off_c,7,67,0,
7,46164, Note_off_c,7,64,0,
7,46176, Note_on_c,7,62,90,
7,46176, Note_on_c,7,66,90,
7,46176, Note_on_c,7,69,90,
7,46368, Note_off_c,7,69,0,
7,46368, Note_off_c,7,66,0,
7,46368, Note_off_c,7,62,0,
7,46380, Note_on_c,7,60,90,
7,46380, Note_on_c,7,64,90,
7,46380, Note_on_c,7,67,90,
7,46560, Note_off_c,7,67,0,
7,46560, Note_off_c,7,64,0,
7,46560, Note_off_c,7,60,0,
7,46572, Note_on_c,7,62,90,
7,46572, Note_on_c,7,66,90,
7,46572, Note_on_c,7,69,90,
7,46740, Note_off_c,7,69,0,
7,46740, Note_off_c,7,66,0,
7,46740, Note_off_c,7,50,0,
7,46740, Note_off_c,7,62,0,
7,46752, Note_on_c,7,45,90,
7,46752, Note_on_c,7,50,90,
7,46836, Note_off_c,7,50,0,
7,46836, Note_off_c,7,45,0,
7,46848, Note_on_c,7,52,90,
7,46848, Note_on_c,7,57,90,
7,46848, Note_on_c,7,60,90,
7,46848, Note_on_c,7,67,90,
7,46932, Note_off_c,7,67,0,
7,46932, Note_off_c,7,60,0,
7,46932, Note_off_c,7,57,0,
7,46932, Note_off_c,7,52,0,
7,46944, Note_on_c,7,67,90,
7,46944, Note_on_c,7,60,90,
7,46944, Note_on_c,7,57,90,
7,46944, Note_on_c,7,52,90,
7,46980, Note_off_c,7,52,0,
7,46980, Note_off_c,7,57,0,
7,46980, Note_off_c,7,60,0,
7,46980, Note_off_c,7,67,0,
7,46992, Note_on_c,7,52,90,
7,46992, Note_on_c,7,57,90,
7,46992, Note_on_c,7,60,90,
7,46992, Note_on_c,7,67,90,
7,47028, Note_off_c,7,67,0,
7,47028, Note_off_c,7,60,0,
7,47028, Note_off_c,7,57,0,
7,47028, Note_off_c,7,52,0,
7,47040, Note_on_c,7,52,90,
7,47040, Note_on_c,7,57,90,
7,47040, Note_on_c,7,60,90,
7,47040, Note_on_c,7,67,90,
7,47124, Note_off_c,7,67,0,
7,47124, Note_off_c,7,60,0,
7,47124, Note_off_c,7,57,0,
7,47124, Note_off_c,7,52,0,
7,47136, Note_on_c,7,67,90,
7,47136, Note_on_c,7,57,90,
7,47136, Note_on_c,7,60,64,
7,47316, Note_off_c,7,60,0,
7,47316, Note_off_c,7,57,0,
7,47316, Note_off_c,7,67,0,
7,47328, Note_on_c,7,52,90,
7,47328, Note_on_c,7,57,90,
7,47328, Note_on_c,7,60,90,
7,47328, Note_on_c,7,64,90,
7,47508, Note_off_c,7,64,0,
7,47508, Note_off_c,7,60,0,
7,47508, Note_off_c,7,57,0,
7,47508, Note_off_c,7,52,0,
7,47520, Note_on_c,7,57,90,
7,47520, Note_on_c,7,62,90,
7,47520, Note_on_c,7,64,90,
7,47700, Note_off_c,7,64,0,
7,47700, Note_off_c,7,62,0,
7,47700, Note_off_c,7,57,0,
7,47712, Note_on_c,7,57,90,
7,47712, Note_on_c,7,62,90,
7,47712, Note_on_c,7,66,90,
7,47904, Note_on_c,7,50,90,
7,47988, Note_off_c,7,66,0,
7,47988, Note_off_c,7,62,0,
7,47988, Note_off_c,7,57,0,
7,48000, Note_on_c,7,62,90,
7,48084, Note_off_c,7,62,0,
7,48096, Note_on_c,7,62,90,
7,48132, Note_off_c,7,62,0,
7,48144, Note_on_c,7,66,90,
7,48180, Note_off_c,7,66,0,
7,48192, Note_on_c,7,62,90,
7,48276, Note_off_c,7,62,0,
7,48288, Note_on_c,7,59,90,
7,48288, Note_on_c,7,55,90,
7,48324, Note_off_c,7,55,0,
7,48324, Note_off_c,7,59,0,
7,48336, Note_on_c,7,55,90,
7,48336, Note_on_c,7,59,90,
7,48372, Note_off_c,7,50,0,
7,48384, Note_off_c,7,55,0,
7,48384, Note_off_c,7,59,0,
7,48384, Note_on_c,7,52,90,
7,48384, Note_on_c,7,57,90,
7,48384, Note_on_c,7,60,90,
7,48384, Note_on_c,7,67,90,
7,48468, Note_off_c,7,67,0,
7,48468, Note_off_c,7,60,0,
7,48468, Note_off_c,7,57,0,
7,48468, Note_off_c,7,52,0,
7,48480, Note_on_c,7,67,90,
7,48480, Note_on_c,7,60,90,
7,48480, Note_on_c,7,57,90,
7,48480, Note_on_c,7,52,90,
7,48516, Note_off_c,7,52,0,
7,48516, Note_off_c,7,57,0,
7,48516, Note_off_c,7,60,0,
7,48516, Note_off_c,7,67,0,
7,48528, Note_on_c,7,52,90,
7,48528, Note_on_c,7,57,90,
7,48528, Note_on_c,7,60,90,
7,48528, Note_on_c,7,67,90,
7,48564, Note_off_c,7,67,0,
7,48564, Note_off_c,7,60,0,
7,48564, Note_off_c,7,57,0,
7,48564, Note_off_c,7,52,0,
7,48576, Note_on_c,7,52,90,
7,48576, Note_on_c,7,57,90,
7,48576, Note_on_c,7,60,90,
7,48576, Note_on_c,7,67,90,
7,48660, Note_off_c,7,67,0,
7,48660, Note_off_c,7,60,0,
7,48660, Note_off_c,7,57,0,
7,48660, Note_off_c,7,52,0,
7,48672, Note_on_c,7,57,90,
7,48672, Note_on_c,7,60,90,
7,48672, Note_on_c,7,64,90,
7,48756, Note_off_c,7,64,0,
7,48756, Note_off_c,7,60,0,
7,48756, Note_off_c,7,57,0,
7,48864, Note_on_c,7,52,90,
7,48864, Note_on_c,7,57,90,
7,48864, Note_on_c,7,60,90,
7,48864, Note_on_c,7,64,90,
7,48948, Note_off_c,7,64,0,
7,48948, Note_off_c,7,60,0,
7,48948, Note_off_c,7,57,0,
7,48948, Note_off_c,7,52,0,
7,49056, Note_on_c,7,64,90,
7,49056, Note_on_c,7,67,90,
7,49056, Note_on_c,7,71,90,
7,49140, Note_off_c,7,71,0,
7,49140, Note_off_c,7,67,0,
7,49140, Note_off_c,7,64,0,
7,49248, Note_on_c,7,62,90,
7,49248, Note_on_c,7,66,90,
7,49248, Note_on_c,7,69,90,
7,49332, Note_off_c,7,69,0,
7,49332, Note_off_c,7,66,0,
7,49332, Note_off_c,7,62,0,
7,49440, Note_on_c,7,60,90,
7,49440, Note_on_c,7,64,90,
7,49440, Note_on_c,7,67,90,
7,49524, Note_off_c,7,67,0,
7,49524, Note_off_c,7,64,0,
7,49524, Note_off_c,7,60,0,
7,49632, Note_on_c,7,62,90,
7,49632, Note_on_c,7,66,90,
7,49632, Note_on_c,7,69,90,
7,49908, Note_off_c,7,66,0,
7,49908, Note_off_c,7,62,0,
7,49920, Note_off_c,7,69,0,
7,49920, Note_on_c,7,48,90,
7,49920, Note_on_c,7,45,90,
7,49921, Note_off_c,7,45,0,
7,50016, Note_on_c,7,52,90,
7,50100, Note_off_c,7,52,0,
7,50112, Note_on_c,7,55,90,
7,50196, Note_off_c,7,55,0,
7,50208, Note_on_c,7,60,90,
7,50292, Note_off_c,7,48,0,
7,50292, Note_off_c,7,60,0,
7,50304, Note_on_c,7,47,90,
7,50400, Note_on_c,7,50,90,
7,50484, Note_off_c,7,50,0,
7,50496, Note_on_c,7,55,90,
7,50580, Note_off_c,7,55,0,
7,50592, Note_on_c,7,62,90,
7,50676, Note_off_c,7,47,0,
7,50676, Note_off_c,7,62,0,
7,50688, Note_on_c,7,59,90,
7,50688, Note_on_c,7,60,90,
7,50689, Note_off_c,7,59,0,
7,50772, Note_off_c,7,60,0,
7,50784, Note_on_c,7,57,90,
7,50868, Note_off_c,7,57,0,
7,50880, Note_on_c,7,45,90,
7,50976, Note_on_c,7,52,90,
7,51060, Note_off_c,7,52,0,
7,51072, Note_on_c,7,57,90,
7,51156, Note_off_c,7,57,0,
7,51168, Note_on_c,7,60,90,
7,51252, Note_off_c,7,45,0,
7,51252, Note_off_c,7,60,0,
7,51264, Note_on_c,7,45,90,
7,51348, Note_off_c,7,45,0,
7,51360, Note_on_c,7,47,90,
7,51444, Note_off_c,7,47,0,
7,51456, Note_on_c,7,48,90,
7,51552, Note_on_c,7,52,90,
7,51636, Note_off_c,7,52,0,
7,51648, Note_on_c,7,55,90,
7,51732, Note_off_c,7,55,0,
7,51744, Note_on_c,7,60,90,
7,51828, Note_off_c,7,48,0,
7,51828, Note_off_c,7,60,0,
7,51840, Note_on_c,7,47,90,
7,51936, Note_on_c,7,50,90,
7,52020, Note_off_c,7,50,0,
7,52032, Note_on_c,7,55,90,
7,52116, Note_off_c,7,47,0,
7,52116, Note_off_c,7,55,0,
7,52128, Note_on_c,7,64,90,
7,52128, Note_on_c,7,59,90,
7,52128, Note_on_c,7,57,90,
7,52128, Note_on_c,7,48,90,
7,52128, Note_on_c,7,41,90,
7,52308, Note_off_c,7,41,0,
7,52308, Note_off_c,7,48,0,
7,52308, Note_off_c,7,57,0,
7,52308, Note_off_c,7,59,0,
7,52308, Note_off_c,7,64,0,
7,52320, Note_on_c,7,64,90,
7,52320, Note_on_c,7,60,90,
7,52320, Note_on_c,7,57,90,
7,52320, Note_on_c,7,52,90,
7,52320, Note_on_c,7,45,90,
7,52788, Note_off_c,7,45,0,
7,52788, Note_off_c,7,52,0,
7,52788, Note_off_c,7,57,0,
7,52788, Note_off_c,7,60,0,
7,52788, Note_off_c,7,64,0,
7,52800, Note_on_c,7,45,90,
7,52884, Note_off_c,7,45,0,
7,52896, Note_on_c,7,47,90,
7,52980, Note_off_c,7,47,0,
7,52992, Note_on_c,7,48,90,
7,53088, Note_on_c,7,52,90,
7,53172, Note_off_c,7,52,0,
7,53184, Note_on_c,7,55,90,
7,53268, Note_off_c,7,55,0,
7,53280, Note_on_c,7,60,90,
7,53364, Note_off_c,7,48,0,
7,53364, Note_off_c,7,60,0,
7,53376, Note_on_c,7,47,90,
7,53472, Note_on_c,7,50,90,
7,53556, Note_off_c,7,50,0,
7,53568, Note_on_c,7,55,90,
7,53652, Note_off_c,7,55,0,
7,53664, Note_on_c,7,62,90,
7,53748, Note_off_c,7,47,0,
7,53748, Note_off_c,7,62,0,
7,53760, Note_on_c,7,59,90,
7,53760, Note_on_c,7,45,90,
7,53796, Note_off_c,7,59,0,
7,53808, Note_on_c,7,60,90,
7,53844, Note_off_c,7,60,0,
7,53856, Note_on_c,7,57,90,
7,53940, Note_off_c,7,45,0,
7,53940, Note_off_c,7,57,0,
7,53952, Note_on_c,7,45,90,
7,54048, Note_on_c,7,52,90,
7,54132, Note_off_c,7,52,0,
7,54144, Note_on_c,7,57,90,
7,54228, Note_off_c,7,57,0,
7,54240, Note_on_c,7,60,90,
7,54324, Note_off_c,7,45,0,
7,54324, Note_off_c,7,60,0,
7,54336, Note_on_c,7,45,90,
7,54420, Note_off_c,7,45,0,
7,54432, Note_on_c,7,47,90,
7,54516, Note_off_c,7,47,0,
7,54528, Note_on_c,7,48,90,
7,54624, Note_on_c,7,52,90,
7,54708, Note_off_c,7,52,0,
7,54720, Note_on_c,7,55,90,
7,54804, Note_off_c,7,55,0,
7,54816, Note_on_c,7,60,90,
7,54900, Note_off_c,7,48,0,
7,54900, Note_off_c,7,60,0,
7,54912, Note_on_c,7,47,90,
7,55008, Note_on_c,7,50,90,
7,55092, Note_off_c,7,50,0,
7,55104, Note_on_c,7,55,90,
7,55188, Note_off_c,7,47,0,
7,55188, Note_off_c,7,55,0,
7,55200, Note_on_c,7,48,90,
7,55200, Note_on_c,7,41,90,
7,55200, Note_on_c,7,53,90,
7,55200, Note_on_c,7,57,90,
7,55200, Note_on_c,7,60,90,
7,55200, Note_on_c,7,64,90,
7,55380, Note_off_c,7,64,0,
7,55380, Note_off_c,7,60,0,
7,55380, Note_off_c,7,57,0,
7,55380, Note_off_c,7,53,0,
7,55380, Note_off_c,7,41,0,
7,55380, Note_off_c,7,48,0,
7,55392, Note_on_c,7,64,90,
7,55392, Note_on_c,7,60,90,
7,55392, Note_on_c,7,57,90,
7,55392, Note_on_c,7,52,90,
7,55392, Note_on_c,7,45,90,
7,55860, Note_off_c,7,45,0,
7,55860, Note_off_c,7,52,0,
7,55860, Note_off_c,7,57,0,
7,55860, Note_off_c,7,60,0,
7,55860, Note_off_c,7,64,0,
7,55872, Note_on_c,7,45,90,
7,55956, Note_off_c,7,45,0,
7,55968, Note_on_c,7,47,90,
7,56052, Note_off_c,7,47,0,
7,56064, Note_on_c,7,48,90,
7,56160, Note_on_c,7,52,90,
7,56244, Note_off_c,7,52,0,
7,56256, Note_on_c,7,55,90,
7,56340, Note_off_c,7,55,0,
7,56352, Note_on_c,7,60,90,
7,56436, Note_off_c,7,48,0,
7,56436, Note_off_c,7,60,0,
7,56448, Note_on_c,7,47,90,
7,56544, Note_on_c,7,50,90,
7,56628, Note_off_c,7,50,0,
7,56640, Note_on_c,7,55,90,
7,56724, Note_off_c,7,55,0,
7,56736, Note_on_c,7,62,90,
7,56820, Note_off_c,7,47,0,
7,56820, Note_off_c,7,62,0,
7,56832, Note_on_c,7,52,90,
7,56832, Note_on_c,7,57,90,
7,56832, Note_on_c,7,60,90,
7,56832, Note_on_c,7,67,90,
7,56916, Note_off_c,7,67,0,
7,56916, Note_off_c,7,60,0,
7,56916, Note_off_c,7,57,0,
7,56916, Note_off_c,7,52,0,
7,56928, Note_on_c,7,67,90,
7,56928, Note_on_c,7,60,90,
7,56928, Note_on_c,7,57,90,
7,56928, Note_on_c,7,52,90,
7,56964, Note_off_c,7,52,0,
7,56964, Note_off_c,7,57,0,
7,56964, Note_off_c,7,60,0,
7,56964, Note_off_c,7,67,0,
7,56976, Note_on_c,7,52,90,
7,56976, Note_on_c,7,57,90,
7,56976, Note_on_c,7,67,90,
7,57012, Note_off_c,7,67,0,
7,57012, Note_off_c,7,57,0,
7,57012, Note_off_c,7,52,0,
7,57024, Note_on_c,7,67,90,
7,57024, Note_on_c,7,60,90,
7,57024, Note_on_c,7,57,90,
7,57024, Note_on_c,7,52,90,
7,57108, Note_off_c,7,52,0,
7,57108, Note_off_c,7,57,0,
7,57108, Note_off_c,7,60,0,
7,57108, Note_off_c,7,67,0,
7,57120, Note_on_c,7,57,90,
7,57120, Note_on_c,7,67,90,
7,57204, Note_off_c,7,67,0,
7,57204, Note_off_c,7,57,0,
7,57312, Note_on_c,7,55,90,
7,57312, Note_on_c,7,60,90,
7,57312, Note_on_c,7,64,90,
7,57396, Note_off_c,7,64,0,
7,57396, Note_off_c,7,60,0,
7,57396, Note_off_c,7,55,0,
7,57504, Note_on_c,7,64,90,
7,57504, Note_on_c,7,62,90,
7,57504, Note_on_c,7,55,90,
7,57588, Note_off_c,7,55,0,
7,57588, Note_off_c,7,62,0,
7,57588, Note_off_c,7,64,0,
7,57696, Note_on_c,7,57,90,
7,57696, Note_on_c,7,62,90,
7,57696, Note_on_c,7,66,90,
7,57972, Note_off_c,7,66,0,
7,57972, Note_off_c,7,62,0,
7,57972, Note_off_c,7,57,0,
7,57984, Note_on_c,7,57,90,
7,57984, Note_on_c,7,62,90,
7,57984, Note_on_c,7,66,90,
7,58068, Note_off_c,7,66,0,
7,58068, Note_off_c,7,62,0,
7,58068, Note_off_c,7,57,0,
7,58080, Note_on_c,7,57,90,
7,58080, Note_on_c,7,62,90,
7,58080, Note_on_c,7,66,90,
7,58116, Note_off_c,7,66,0,
7,58116, Note_off_c,7,62,0,
7,58116, Note_off_c,7,57,0,
7,58128, Note_on_c,7,57,90,
7,58128, Note_on_c,7,62,90,
7,58128, Note_on_c,7,66,90,
7,58164, Note_off_c,7,66,0,
7,58164, Note_off_c,7,62,0,
7,58164, Note_off_c,7,57,0,
7,58176, Note_on_c,7,57,90,
7,58176, Note_on_c,7,62,90,
7,58176, Note_on_c,7,66,90,
7,58260, Note_off_c,7,66,0,
7,58260, Note_off_c,7,62,0,
7,58260, Note_off_c,7,57,0,
7,58272, Note_on_c,7,59,90,
7,58272, Note_on_c,7,55,90,
7,58356, Note_off_c,7,55,0,
7,58356, Note_off_c,7,59,0,
7,58368, Note_on_c,7,52,90,
7,58368, Note_on_c,7,57,90,
7,58368, Note_on_c,7,60,90,
7,58368, Note_on_c,7,67,90,
7,58452, Note_off_c,7,67,0,
7,58452, Note_off_c,7,60,0,
7,58452, Note_off_c,7,57,0,
7,58452, Note_off_c,7,52,0,
7,58464, Note_on_c,7,67,90,
7,58464, Note_on_c,7,60,90,
7,58464, Note_on_c,7,57,90,
7,58464, Note_on_c,7,52,90,
7,58500, Note_off_c,7,52,0,
7,58500, Note_off_c,7,57,0,
7,58500, Note_off_c,7,60,0,
7,58500, Note_off_c,7,67,0,
7,58512, Note_on_c,7,52,90,
7,58512, Note_on_c,7,57,90,
7,58512, Note_on_c,7,60,90,
7,58512, Note_on_c,7,67,90,
7,58548, Note_off_c,7,67,0,
7,58548, Note_off_c,7,60,0,
7,58548, Note_off_c,7,57,0,
7,58548, Note_off_c,7,52,0,
7,58560, Note_on_c,7,67,90,
7,58560, Note_on_c,7,60,90,
7,58560, Note_on_c,7,57,90,
7,58560, Note_on_c,7,52,90,
7,58644, Note_off_c,7,52,0,
7,58644, Note_off_c,7,57,0,
7,58644, Note_off_c,7,60,0,
7,58644, Note_off_c,7,67,0,
7,58656, Note_on_c,7,57,90,
7,58656, Note_on_c,7,67,90,
7,58740, Note_off_c,7,67,0,
7,58740, Note_off_c,7,57,0,
7,58752, Note_on_c,7,64,90,
7,58752, Note_on_c,7,60,90,
7,58752, Note_on_c,7,57,90,
7,58752, Note_on_c,7,52,90,
7,58836, Note_off_c,7,52,0,
7,58836, Note_off_c,7,57,0,
7,58836, Note_off_c,7,60,0,
7,58836, Note_off_c,7,64,0,
7,58848, Note_on_c,7,52,90,
7,58848, Note_on_c,7,57,90,
7,58848, Note_on_c,7,60,90,
7,58848, Note_on_c,7,64,90,
7,59028, Note_off_c,7,64,0,
7,59028, Note_off_c,7,60,0,
7,59028, Note_off_c,7,57,0,
7,59028, Note_off_c,7,52,0,
7,59040, Note_on_c,7,64,90,
7,59040, Note_on_c,7,67,90,
7,59040, Note_on_c,7,71,90,
7,59124, Note_off_c,7,71,0,
7,59124, Note_off_c,7,67,0,
7,59124, Note_off_c,7,64,0,
7,59232, Note_on_c,7,62,90,
7,59232, Note_on_c,7,66,90,
7,59232, Note_on_c,7,69,90,
7,59316, Note_off_c,7,69,0,
7,59316, Note_off_c,7,66,0,
7,59316, Note_off_c,7,62,0,
7,59424, Note_on_c,7,60,90,
7,59424, Note_on_c,7,64,90,
7,59424, Note_on_c,7,67,90,
7,59508, Note_off_c,7,67,0,
7,59508, Note_off_c,7,64,0,
7,59508, Note_off_c,7,60,0,
7,59616, Note_on_c,7,69,90,
7,59616, Note_on_c,7,66,90,
7,59616, Note_on_c,7,62,90,
7,59796, Note_off_c,7,62,0,
7,59796, Note_off_c,7,66,0,
7,59796, Note_off_c,7,69,0,
7,59808, Note_on_c,7,45,90,
7,59892, Note_off_c,7,45,0,
7,59904, Note_on_c,7,52,90,
7,59904, Note_on_c,7,60,90,
7,59904, Note_on_c,7,67,90,
7,59904, Note_on_c,7,57,90,
7,59988, Note_off_c,7,57,0,
7,59988, Note_off_c,7,67,0,
7,59988, Note_off_c,7,60,0,
7,59988, Note_off_c,7,52,0,
7,60000, Note_on_c,7,67,90,
7,60000, Note_on_c,7,60,90,
7,60000, Note_on_c,7,52,90,
7,60000, Note_on_c,7,57,90,
7,60036, Note_off_c,7,57,0,
7,60036, Note_off_c,7,52,0,
7,60036, Note_off_c,7,60,0,
7,60036, Note_off_c,7,67,0,
7,60048, Note_on_c,7,52,90,
7,60048, Note_on_c,7,60,90,
7,60048, Note_on_c,7,67,90,
7,60048, Note_on_c,7,57,90,
7,60084, Note_off_c,7,57,0,
7,60084, Note_off_c,7,67,0,
7,60084, Note_off_c,7,60,0,
7,60084, Note_off_c,7,52,0,
7,60096, Note_on_c,7,67,90,
7,60096, Note_on_c,7,60,90,
7,60096, Note_on_c,7,52,90,
7,60096, Note_on_c,7,57,90,
7,60180, Note_off_c,7,57,0,
7,60180, Note_off_c,7,52,0,
7,60180, Note_off_c,7,60,0,
7,60180, Note_off_c,7,67,0,
7,60192, Note_on_c,7,60,90,
7,60192, Note_on_c,7,67,90,
7,60192, Note_on_c,7,57,90,
7,60276, Note_off_c,7,57,0,
7,60276, Note_off_c,7,67,0,
7,60276, Note_off_c,7,60,0,
7,60288, Note_on_c,7,52,90,
7,60288, Note_on_c,7,57,90,
7,60288, Note_on_c,7,60,90,
7,60288, Note_on_c,7,64,90,
7,60372, Note_off_c,7,64,0,
7,60372, Note_off_c,7,60,0,
7,60372, Note_off_c,7,57,0,
7,60372, Note_off_c,7,52,0,
7,60384, Note_on_c,7,52,90,
7,60384, Note_on_c,7,57,90,
7,60384, Note_on_c,7,60,90,
7,60384, Note_on_c,7,64,90,
7,60564, Note_off_c,7,64,0,
7,60564, Note_off_c,7,60,0,
7,60564, Note_off_c,7,57,0,
7,60564, Note_off_c,7,52,0,
7,60576, Note_on_c,7,55,90,
7,60576, Note_on_c,7,62,90,
7,60576, Note_on_c,7,64,90,
7,60660, Note_off_c,7,64,0,
7,60660, Note_off_c,7,62,0,
7,60660, Note_off_c,7,55,0,
7,60768, Note_on_c,7,57,90,
7,60768, Note_on_c,7,62,90,
7,60768, Note_on_c,7,66,90,
7,60960, Note_on_c,7,50,90,
7,61044, Note_off_c,7,66,0,
7,61044, Note_off_c,7,62,0,
7,61044, Note_off_c,7,57,0,
7,61056, Note_on_c,7,62,90,
7,61056, Note_on_c,7,66,90,
7,61056, Note_on_c,7,57,90,
7,61140, Note_off_c,7,57,0,
7,61140, Note_off_c,7,66,0,
7,61140, Note_off_c,7,62,0,
7,61152, Note_on_c,7,57,90,
7,61152, Note_on_c,7,62,90,
7,61152, Note_on_c,7,66,90,
7,61188, Note_off_c,7,66,0,
7,61188, Note_off_c,7,62,0,
7,61188, Note_off_c,7,57,0,
7,61200, Note_on_c,7,57,90,
7,61200, Note_on_c,7,62,90,
7,61200, Note_on_c,7,66,90,
7,61236, Note_off_c,7,66,0,
7,61236, Note_off_c,7,62,0,
7,61236, Note_off_c,7,57,0,
7,61248, Note_on_c,7,57,90,
7,61248, Note_on_c,7,62,90,
7,61248, Note_on_c,7,66,90,
7,61332, Note_off_c,7,50,0,
7,61344, Note_on_c,7,50,90,
7,61428, Note_off_c,7,62,0,
7,61428, Note_off_c,7,66,0,
7,61428, Note_off_c,7,50,0,
7,61440, Note_off_c,7,57,0,
7,61440, Note_on_c,7,52,90,
7,61440, Note_on_c,7,60,90,
7,61440, Note_on_c,7,67,90,
7,61440, Note_on_c,7,57,90,
7,61524, Note_off_c,7,57,0,
7,61524, Note_off_c,7,67,0,
7,61524, Note_off_c,7,60,0,
7,61524, Note_off_c,7,52,0,
7,61536, Note_on_c,7,67,90,
7,61536, Note_on_c,7,60,90,
7,61536, Note_on_c,7,57,90,
7,61536, Note_on_c,7,52,90,
7,61572, Note_off_c,7,52,0,
7,61572, Note_off_c,7,57,0,
7,61572, Note_off_c,7,60,0,
7,61572, Note_off_c,7,67,0,
7,61584, Note_on_c,7,60,90,
7,61584, Note_on_c,7,67,90,
7,61584, Note_on_c,7,57,90,
7,61584, Note_on_c,7,52,90,
7,61620, Note_off_c,7,52,0,
7,61620, Note_off_c,7,57,0,
7,61620, Note_off_c,7,67,0,
7,61620, Note_off_c,7,60,0,
7,61632, Note_on_c,7,67,90,
7,61632, Note_on_c,7,60,90,
7,61632, Note_on_c,7,52,90,
7,61632, Note_on_c,7,57,90,
7,61716, Note_off_c,7,57,0,
7,61716, Note_off_c,7,52,0,
7,61716, Note_off_c,7,60,0,
7,61716, Note_off_c,7,67,0,
7,61728, Note_on_c,7,60,90,
7,61728, Note_on_c,7,67,90,
7,61728, Note_on_c,7,57,90,
7,61812, Note_off_c,7,57,0,
7,61812, Note_off_c,7,67,0,
7,61812, Note_off_c,7,60,0,
7,61920, Note_on_c,7,60,90,
7,61920, Note_on_c,7,64,90,
7,61920, Note_on_c,7,57,90,
7,61920, Note_on_c,7,52,90,
7,62004, Note_off_c,7,52,0,
7,62004, Note_off_c,7,57,0,
7,62004, Note_off_c,7,64,0,
7,62004, Note_off_c,7,60,0,
7,62112, Note_on_c,7,64,90,
7,62112, Note_on_c,7,67,90,
7,62112, Note_on_c,7,71,90,
7,62292, Note_off_c,7,71,0,
7,62292, Note_off_c,7,67,0,
7,62292, Note_off_c,7,64,0,
7,62304, Note_on_c,7,62,90,
7,62304, Note_on_c,7,66,90,
7,62304, Note_on_c,7,69,90,
7,62484, Note_off_c,7,69,0,
7,62484, Note_off_c,7,66,0,
7,62484, Note_off_c,7,62,0,
7,62496, Note_on_c,7,60,90,
7,62496, Note_on_c,7,64,90,
7,62496, Note_on_c,7,67,90,
7,62580, Note_off_c,7,67,0,
7,62580, Note_off_c,7,64,0,
7,62580, Note_off_c,7,60,0,
7,62688, Note_on_c,7,69,90,
7,62688, Note_on_c,7,66,90,
7,62688, Note_on_c,7,62,90,
7,62868, Note_off_c,7,62,0,
7,62868, Note_off_c,7,66,0,
7,62868, Note_off_c,7,69,0,
7,62880, Note_on_c,7,45,90,
7,62964, Note_off_c,7,45,0,
7,62976, Note_on_c,7,48,90,
7,62976, Note_on_c,7,45,90,
7,62977, Note_off_c,7,45,0,
7,63072, Note_on_c,7,52,90,
7,63156, Note_off_c,7,52,0,
7,63168, Note_on_c,7,55,90,
7,63252, Note_off_c,7,55,0,
7,63264, Note_on_c,7,60,90,
7,63348, Note_off_c,7,48,0,
7,63348, Note_off_c,7,60,0,
7,63360, Note_on_c,7,47,90,
7,63456, Note_on_c,7,50,90,
7,63540, Note_off_c,7,50,0,
7,63552, Note_on_c,7,55,90,
7,63636, Note_off_c,7,55,0,
7,63648, Note_on_c,7,62,90,
7,63732, Note_off_c,7,47,0,
7,63732, Note_off_c,7,62,0,
7,63744, Note_on_c,7,59,90,
7,63780, Note_off_c,7,59,0,
7,63792, Note_on_c,7,60,90,
7,63828, Note_off_c,7,60,0,
7,63840, Note_on_c,7,57,90,
7,63924, Note_off_c,7,57,0,
7,63936, Note_on_c,7,45,90,
7,64032, Note_on_c,7,52,90,
7,64116, Note_off_c,7,52,0,
7,64128, Note_on_c,7,57,90,
7,64212, Note_off_c,7,57,0,
7,64224, Note_on_c,7,60,90,
7,64308, Note_off_c,7,45,0,
7,64308, Note_off_c,7,60,0,
7,64320, Note_on_c,7,45,90,
7,64404, Note_off_c,7,45,0,
7,64416, Note_on_c,7,47,90,
7,64500, Note_off_c,7,47,0,
7,64512, Note_on_c,7,48,90,
7,64608, Note_on_c,7,52,90,
7,64692, Note_off_c,7,52,0,
7,64704, Note_on_c,7,55,90,
7,64788, Note_off_c,7,55,0,
7,64800, Note_on_c,7,60,90,
7,64884, Note_off_c,7,48,0,
7,64884, Note_off_c,7,60,0,
7,64896, Note_on_c,7,47,90,
7,64992, Note_on_c,7,50,90,
7,65076, Note_off_c,7,50,0,
7,65088, Note_on_c,7,55,90,
7,65172, Note_off_c,7,47,0,
7,65172, Note_off_c,7,55,0,
7,65184, Note_on_c,7,48,90,
7,65184, Note_on_c,7,41,90,
7,65184, Note_on_c,7,53,90,
7,65184, Note_on_c,7,57,90,
7,65184, Note_on_c,7,60,90,
7,65184, Note_on_c,7,64,90,
7,65364, Note_off_c,7,64,0,
7,65364, Note_off_c,7,60,0,
7,65364, Note_off_c,7,57,0,
7,65364, Note_off_c,7,53,0,
7,65364, Note_off_c,7,41,0,
7,65364, Note_off_c,7,48,0,
7,65376, Note_on_c,7,64,90,
7,65376, Note_on_c,7,60,90,
7,65376, Note_on_c,7,57,90,
7,65376, Note_on_c,7,52,90,
7,65376, Note_on_c,7,45,90,
7,65844, Note_off_c,7,45,0,
7,65844, Note_off_c,7,52,0,
7,65844, Note_off_c,7,57,0,
7,65844, Note_off_c,7,60,0,
7,65844, Note_off_c,7,64,0,
7,65856, Note_on_c,7,45,90,
7,65940, Note_off_c,7,45,0,
7,65952, Note_on_c,7,47,90,
7,66036, Note_off_c,7,47,0,
7,66048, Note_on_c,7,48,90,
7,66048, Note_on_c,7,45,90,
7,66049, Note_off_c,7,45,0,
7,66144, Note_on_c,7,52,90,
7,66228, Note_off_c,7,52,0,
7,66240, Note_on_c,7,55,90,
7,66324, Note_off_c,7,55,0,
7,66336, Note_on_c,7,60,90,
7,66420, Note_off_c,7,48,0,
7,66420, Note_off_c,7,60,0,
7,66432, Note_on_c,7,47,90,
7,66528, Note_on_c,7,50,90,
7,66612, Note_off_c,7,50,0,
7,66624, Note_on_c,7,55,90,
7,66708, Note_off_c,7,55,0,
7,66720, Note_on_c,7,62,90,
7,66804, Note_off_c,7,47,0,
7,66804, Note_off_c,7,62,0,
7,66816, Note_on_c,7,59,90,
7,66816, Note_on_c,7,45,90,
7,66852, Note_off_c,7,59,0,
7,66864, Note_on_c,7,60,90,
7,66900, Note_off_c,7,60,0,
7,66912, Note_on_c,7,57,90,
7,66996, Note_off_c,7,45,0,
7,66996, Note_off_c,7,57,0,
7,67008, Note_on_c,7,45,90,
7,67104, Note_on_c,7,52,90,
7,67188, Note_off_c,7,52,0,
7,67200, Note_on_c,7,57,90,
7,67284, Note_off_c,7,57,0,
7,67296, Note_on_c,7,60,90,
7,67380, Note_off_c,7,45,0,
7,67380, Note_off_c,7,60,0,
7,67392, Note_on_c,7,45,90,
7,67476, Note_off_c,7,45,0,
7,67488, Note_on_c,7,47,90,
7,67572, Note_off_c,7,47,0,
7,67584, Note_on_c,7,48,90,
7,67680, Note_on_c,7,52,90,
7,67764, Note_off_c,7,52,0,
7,67776, Note_on_c,7,55,90,
7,67860, Note_off_c,7,55,0,
7,67872, Note_on_c,7,60,90,
7,67956, Note_off_c,7,48,0,
7,67956, Note_off_c,7,60,0,
7,67968, Note_on_c,7,47,90,
7,68064, Note_on_c,7,50,90,
7,68148, Note_off_c,7,50,0,
7,68160, Note_on_c,7,55,90,
7,68244, Note_off_c,7,47,0,
7,68244, Note_off_c,7,55,0,
7,68256, Note_on_c,7,48,90,
7,68256, Note_on_c,7,41,90,
7,68256, Note_on_c,7,53,90,
7,68256, Note_on_c,7,57,90,
7,68256, Note_on_c,7,60,90,
7,68256, Note_on_c,7,64,90,
7,68436, Note_off_c,7,64,0,
7,68436, Note_off_c,7,60,0,
7,68436, Note_off_c,7,57,0,
7,68436, Note_off_c,7,53,0,
7,68436, Note_off_c,7,41,0,
7,68436, Note_off_c,7,48,0,
7,68448, Note_on_c,7,64,90,
7,68448, Note_on_c,7,60,90,
7,68448, Note_on_c,7,57,90,
7,68448, Note_on_c,7,52,90,
7,68448, Note_on_c,7,45,90,
7,68916, Note_off_c,7,45,0,
7,68916, Note_off_c,7,52,0,
7,68916, Note_off_c,7,57,0,
7,68916, Note_off_c,7,60,0,
7,68916, Note_off_c,7,64,0,
7,68928, Note_on_c,7,45,90,
7,69012, Note_off_c,7,45,0,
7,69024, Note_on_c,7,47,90,
7,69108, Note_off_c,7,47,0,
7,69120, Note_on_c,7,48,90,
7,69216, Note_on_c,7,52,90,
7,69300, Note_off_c,7,52,0,
7,69312, Note_on_c,7,55,90,
7,69396, Note_off_c,7,55,0,
7,69408, Note_on_c,7,60,90,
7,69492, Note_off_c,7,48,0,
7,69492, Note_off_c,7,60,0,
7,69504, Note_on_c,7,47,90,
7,69600, Note_on_c,7,50,90,
7,69684, Note_off_c,7,50,0,
7,69696, Note_on_c,7,55,90,
7,69780, Note_off_c,7,55,0,
7,69792, Note_on_c,7,59,90,
7,69876, Note_off_c,7,47,0,
7,69888, Note_off_c,7,59,0,
7,69888, Note_on_c,7,52,90,
7,69888, Note_on_c,7,57,90,
7,69888, Note_on_c,7,60,90,
7,69888, Note_on_c,7,67,90,
7,69972, Note_off_c,7,67,0,
7,69972, Note_off_c,7,60,0,
7,69972, Note_off_c,7,57,0,
7,69972, Note_off_c,7,52,0,
7,69984, Note_on_c,7,67,90,
7,69984, Note_on_c,7,60,90,
7,69984, Note_on_c,7,57,90,
7,69984, Note_on_c,7,52,90,
7,70020, Note_off_c,7,52,0,
7,70020, Note_off_c,7,57,0,
7,70020, Note_off_c,7,60,0,
7,70020, Note_off_c,7,67,0,
7,70032, Note_on_c,7,57,90,
7,70032, Note_on_c,7,60,90,
7,70032, Note_on_c,7,67,90,
7,70032, Note_on_c,7,52,90,
7,70068, Note_off_c,7,52,0,
7,70068, Note_off_c,7,67,0,
7,70068, Note_off_c,7,60,0,
7,70068, Note_off_c,7,57,0,
7,70080, Note_on_c,7,67,90,
7,70080, Note_on_c,7,60,90,
7,70080, Note_on_c,7,57,90,
7,70080, Note_on_c,7,52,90,
7,70164, Note_off_c,7,52,0,
7,70164, Note_off_c,7,57,0,
7,70164, Note_off_c,7,60,0,
7,70164, Note_off_c,7,67,0,
7,70176, Note_on_c,7,52,90,
7,70176, Note_on_c,7,57,90,
7,70176, Note_on_c,7,60,90,
7,70176, Note_on_c,7,67,90,
7,70260, Note_off_c,7,67,0,
7,70260, Note_off_c,7,60,0,
7,70260, Note_off_c,7,57,0,
7,70260, Note_off_c,7,52,0,
7,70368, Note_on_c,7,55,90,
7,70368, Note_on_c,7,60,90,
7,70368, Note_on_c,7,64,90,
7,70452, Note_off_c,7,64,0,
7,70452, Note_off_c,7,60,0,
7,70452, Note_off_c,7,55,0,
7,70560, Note_on_c,7,64,90,
7,70560, Note_on_c,7,62,90,
7,70560, Note_on_c,7,55,90,
7,70644, Note_off_c,7,55,0,
7,70644, Note_off_c,7,62,0,
7,70644, Note_off_c,7,64,0,
7,70752, Note_on_c,7,57,90,
7,70752, Note_on_c,7,62,90,
7,70752, Note_on_c,7,66,90,
7,70884, Note_off_c,7,66,0,
7,70884, Note_off_c,7,62,0,
7,70884, Note_off_c,7,57,0,
7,70896, Note_on_c,7,57,90,
7,70896, Note_on_c,7,62,90,
7,70896, Note_on_c,7,66,90,
7,71028, Note_off_c,7,66,0,
7,71028, Note_off_c,7,62,0,
7,71028, Note_off_c,7,57,0,
7,71040, Note_on_c,7,50,90,
7,71040, Note_on_c,7,57,90,
7,71040, Note_on_c,7,62,90,
7,71040, Note_on_c,7,66,90,
7,71076, Note_off_c,7,66,0,
7,71076, Note_off_c,7,62,0,
7,71076, Note_off_c,7,57,0,
7,71088, Note_on_c,7,66,90,
7,71088, Note_on_c,7,62,90,
7,71088, Note_on_c,7,57,90,
7,71124, Note_off_c,7,57,0,
7,71124, Note_off_c,7,62,0,
7,71124, Note_off_c,7,50,0,
7,71124, Note_off_c,7,66,0,
7,71136, Note_on_c,7,57,90,
7,71136, Note_on_c,7,62,90,
7,71136, Note_on_c,7,66,90,
7,71172, Note_off_c,7,66,0,
7,71172, Note_off_c,7,62,0,
7,71172, Note_off_c,7,57,0,
7,71184, Note_on_c,7,57,90,
7,71184, Note_on_c,7,62,90,
7,71184, Note_on_c,7,66,90,
7,71220, Note_off_c,7,66,0,
7,71220, Note_off_c,7,62,0,
7,71220, Note_off_c,7,57,0,
7,71232, Note_on_c,7,57,90,
7,71232, Note_on_c,7,62,90,
7,71232, Note_on_c,7,66,90,
7,71268, Note_off_c,7,66,0,
7,71268, Note_off_c,7,62,0,
7,71268, Note_off_c,7,57,0,
7,71280, Note_on_c,7,66,90,
7,71280, Note_on_c,7,62,90,
7,71280, Note_on_c,7,57,90,
7,71316, Note_off_c,7,57,0,
7,71316, Note_off_c,7,62,0,
7,71316, Note_off_c,7,66,0,
7,71328, Note_on_c,7,59,90,
7,71328, Note_on_c,7,55,90,
7,71364, Note_off_c,7,55,0,
7,71364, Note_off_c,7,59,0,
7,71376, Note_on_c,7,59,90,
7,71376, Note_on_c,7,55,90,
7,71424, Note_off_c,7,55,0,
7,71424, Note_off_c,7,59,0,
7,71424, Note_on_c,7,52,90,
7,71424, Note_on_c,7,57,90,
7,71424, Note_on_c,7,60,90,
7,71424, Note_on_c,7,67,90,
7,71508, Note_off_c,7,67,0,
7,71508, Note_off_c,7,60,0,
7,71508, Note_off_c,7,57,0,
7,71508, Note_off_c,7,52,0,
7,71520, Note_on_c,7,67,90,
7,71520, Note_on_c,7,60,90,
7,71520, Note_on_c,7,57,90,
7,71520, Note_on_c,7,52,90,
7,71556, Note_off_c,7,52,0,
7,71556, Note_off_c,7,57,0,
7,71556, Note_off_c,7,60,0,
7,71556, Note_off_c,7,67,0,
7,71568, Note_on_c,7,57,90,
7,71568, Note_on_c,7,60,90,
7,71568, Note_on_c,7,67,90,
7,71568, Note_on_c,7,52,90,
7,71604, Note_off_c,7,52,0,
7,71604, Note_off_c,7,67,0,
7,71604, Note_off_c,7,60,0,
7,71604, Note_off_c,7,57,0,
7,71616, Note_on_c,7,67,90,
7,71616, Note_on_c,7,60,90,
7,71616, Note_on_c,7,57,90,
7,71616, Note_on_c,7,52,90,
7,71700, Note_off_c,7,52,0,
7,71700, Note_off_c,7,57,0,
7,71700, Note_off_c,7,60,0,
7,71700, Note_off_c,7,67,0,
7,71712, Note_on_c,7,52,90,
7,71712, Note_on_c,7,57,90,
7,71712, Note_on_c,7,60,90,
7,71712, Note_on_c,7,67,90,
7,71796, Note_off_c,7,67,0,
7,71796, Note_off_c,7,60,0,
7,71796, Note_off_c,7,57,0,
7,71796, Note_off_c,7,52,0,
7,71904, Note_on_c,7,55,90,
7,71904, Note_on_c,7,60,90,
7,71904, Note_on_c,7,64,90,
7,71988, Note_off_c,7,64,0,
7,71988, Note_off_c,7,60,0,
7,71988, Note_off_c,7,55,0,
7,72096, Note_on_c,7,64,90,
7,72096, Note_on_c,7,67,90,
7,72096, Note_on_c,7,71,90,
7,72180, Note_off_c,7,71,0,
7,72180, Note_off_c,7,67,0,
7,72180, Note_off_c,7,64,0,
7,72288, Note_on_c,7,62,90,
7,72288, Note_on_c,7,66,90,
7,72288, Note_on_c,7,69,90,
7,72372, Note_off_c,7,69,0,
7,72372, Note_off_c,7,66,0,
7,72372, Note_off_c,7,62,0,
7,72480, Note_on_c,7,60,90,
7,72480, Note_on_c,7,64,90,
7,72480, Note_on_c,7,67,90,
7,72564, Note_off_c,7,67,0,
7,72564, Note_off_c,7,64,0,
7,72564, Note_off_c,7,60,0,
7,72672, Note_on_c,7,62,90,
7,72672, Note_on_c,7,66,90,
7,72672, Note_on_c,7,69,90,
7,72852, Note_off_c,7,69,0,
7,72852, Note_off_c,7,66,0,
7,72852, Note_off_c,7,62,0,
7,72864, Note_on_c,7,45,90,
7,72960, Note_on_c,7,60,90,
7,72960, Note_on_c,7,52,90,
7,72960, Note_on_c,7,67,90,
7,72960, Note_on_c,7,57,90,
7,73044, Note_off_c,7,57,0,
7,73044, Note_off_c,7,67,0,
7,73044, Note_off_c,7,52,0,
7,73044, Note_off_c,7,60,0,
7,73056, Note_on_c,7,67,90,
7,73056, Note_on_c,7,60,90,
7,73056, Note_on_c,7,52,90,
7,73056, Note_on_c,7,57,90,
7,73092, Note_off_c,7,57,0,
7,73092, Note_off_c,7,52,0,
7,73092, Note_off_c,7,60,0,
7,73092, Note_off_c,7,67,0,
7,73104, Note_on_c,7,60,90,
7,73104, Note_on_c,7,67,90,
7,73104, Note_on_c,7,52,90,
7,73104, Note_on_c,7,57,90,
7,73140, Note_off_c,7,57,0,
7,73140, Note_off_c,7,52,0,
7,73140, Note_off_c,7,67,0,
7,73140, Note_off_c,7,60,0,
7,73152, Note_on_c,7,67,90,
7,73152, Note_on_c,7,60,90,
7,73152, Note_on_c,7,52,90,
7,73152, Note_on_c,7,57,90,
7,73236, Note_off_c,7,57,0,
7,73236, Note_off_c,7,52,0,
7,73236, Note_off_c,7,60,0,
7,73236, Note_off_c,7,67,0,
7,73248, Note_on_c,7,60,90,
7,73248, Note_on_c,7,67,90,
7,73248, Note_on_c,7,52,90,
7,73248, Note_on_c,7,57,90,
7,73332, Note_off_c,7,57,0,
7,73332, Note_off_c,7,52,0,
7,73332, Note_off_c,7,67,0,
7,73332, Note_off_c,7,45,0,
7,73332, Note_off_c,7,60,0,
7,73440, Note_on_c,7,60,90,
7,73440, Note_on_c,7,55,90,
7,73440, Note_on_c,7,64,90,
7,73524, Note_off_c,7,64,0,
7,73524, Note_off_c,7,55,0,
7,73524, Note_off_c,7,60,0,
7,73632, Note_on_c,7,64,90,
7,73632, Note_on_c,7,62,90,
7,73632, Note_on_c,7,55,90,
7,73716, Note_off_c,7,62,0,
7,73716, Note_off_c,7,64,0,
7,73728, Note_off_c,7,55,0,
7,73824, Note_on_c,7,57,90,
7,73824, Note_on_c,7,62,90,
7,73824, Note_on_c,7,66,90,
7,74004, Note_off_c,7,66,0,
7,74004, Note_off_c,7,62,0,
7,74004, Note_off_c,7,57,0,
7,74016, Note_on_c,7,57,90,
7,74016, Note_on_c,7,62,90,
7,74100, Note_off_c,7,62,0,
7,74100, Note_off_c,7,57,0,
7,74112, Note_on_c,7,57,90,
7,74112, Note_on_c,7,62,90,
7,74112, Note_on_c,7,66,90,
7,74196, Note_off_c,7,66,0,
7,74196, Note_off_c,7,62,0,
7,74196, Note_off_c,7,57,0,
7,74208, Note_on_c,7,57,90,
7,74208, Note_on_c,7,62,90,
7,74208, Note_on_c,7,66,90,
7,74244, Note_off_c,7,66,0,
7,74244, Note_off_c,7,62,0,
7,74244, Note_off_c,7,57,0,
7,74256, Note_on_c,7,57,90,
7,74256, Note_on_c,7,62,90,
7,74256, Note_on_c,7,66,90,
7,74292, Note_off_c,7,66,0,
7,74292, Note_off_c,7,62,0,
7,74292, Note_off_c,7,57,0,
7,74304, Note_on_c,7,57,90,
7,74304, Note_on_c,7,62,90,
7,74304, Note_on_c,7,66,90,
7,74388, Note_off_c,7,66,0,
7,74388, Note_off_c,7,62,0,
7,74388, Note_off_c,7,57,0,
7,74400, Note_on_c,7,55,90,
7,74400, Note_on_c,7,59,90,
7,74400, Note_on_c,7,64,90,
7,74436, Note_off_c,7,64,0,
7,74436, Note_off_c,7,59,0,
7,74436, Note_off_c,7,55,0,
7,74448, Note_on_c,7,64,90,
7,74448, Note_on_c,7,59,90,
7,74448, Note_on_c,7,55,90,
7,74484, Note_off_c,7,59,0,
7,74496, Note_off_c,7,64,0,
7,74496, Note_off_c,7,55,0,
7,74496, Note_on_c,7,52,90,
7,74496, Note_on_c,7,60,90,
7,74496, Note_on_c,7,67,90,
7,74496, Note_on_c,7,57,90,
7,74580, Note_off_c,7,57,0,
7,74580, Note_off_c,7,67,0,
7,74580, Note_off_c,7,60,0,
7,74580, Note_off_c,7,52,0,
7,74592, Note_on_c,7,67,90,
7,74592, Note_on_c,7,60,90,
7,74592, Note_on_c,7,57,90,
7,74592, Note_on_c,7,52,90,
7,74628, Note_off_c,7,52,0,
7,74628, Note_off_c,7,57,0,
7,74628, Note_off_c,7,60,0,
7,74628, Note_off_c,7,67,0,
7,74640, Note_on_c,7,60,90,
7,74640, Note_on_c,7,67,90,
7,74640, Note_on_c,7,57,90,
7,74640, Note_on_c,7,52,90,
7,74676, Note_off_c,7,52,0,
7,74676, Note_off_c,7,57,0,
7,74676, Note_off_c,7,67,0,
7,74676, Note_off_c,7,60,0,
7,74688, Note_on_c,7,67,90,
7,74688, Note_on_c,7,60,90,
7,74688, Note_on_c,7,52,90,
7,74688, Note_on_c,7,57,90,
7,74772, Note_off_c,7,57,0,
7,74772, Note_off_c,7,52,0,
7,74772, Note_off_c,7,60,0,
7,74772, Note_off_c,7,67,0,
7,74784, Note_on_c,7,52,90,
7,74784, Note_on_c,7,60,90,
7,74784, Note_on_c,7,67,90,
7,74784, Note_on_c,7,57,90,
7,74868, Note_off_c,7,57,0,
7,74868, Note_off_c,7,67,0,
7,74868, Note_off_c,7,60,0,
7,74868, Note_off_c,7,52,0,
7,74880, Note_on_c,7,52,90,
7,74880, Note_on_c,7,57,90,
7,74880, Note_on_c,7,60,90,
7,74880, Note_on_c,7,64,90,
7,74964, Note_off_c,7,64,0,
7,74964, Note_off_c,7,60,0,
7,74964, Note_off_c,7,57,0,
7,74964, Note_off_c,7,52,0,
7,74976, Note_on_c,7,60,90,
7,74976, Note_on_c,7,52,90,
7,74976, Note_on_c,7,57,90,
7,74976, Note_on_c,7,64,90,
7,75060, Note_off_c,7,64,0,
7,75060, Note_off_c,7,57,0,
7,75060, Note_off_c,7,52,0,
7,75060, Note_off_c,7,60,0,
7,75168, Note_on_c,7,64,90,
7,75168, Note_on_c,7,67,90,
7,75168, Note_on_c,7,71,90,
7,75252, Note_off_c,7,71,0,
7,75252, Note_off_c,7,67,0,
7,75252, Note_off_c,7,64,0,
7,75360, Note_on_c,7,62,90,
7,75360, Note_on_c,7,66,90,
7,75360, Note_on_c,7,69,90,
7,75444, Note_off_c,7,69,0,
7,75444, Note_off_c,7,66,0,
7,75444, Note_off_c,7,62,0,
7,75552, Note_on_c,7,60,90,
7,75552, Note_on_c,7,64,90,
7,75552, Note_on_c,7,67,90,
7,75636, Note_off_c,7,67,0,
7,75636, Note_off_c,7,64,0,
7,75636, Note_off_c,7,60,0,
7,75744, Note_on_c,7,62,90,
7,75744, Note_on_c,7,66,90,
7,75744, Note_on_c,7,69,90,
7,76020, Note_off_c,7,69,0,
7,76020, Note_off_c,7,66,0,
7,76020, Note_off_c,7,62,0,
7,76224, Note_on_c,7,55,90,
7,76308, Note_off_c,7,55,0,
7,76320, Note_on_c,7,60,90,
7,76404, Note_off_c,7,60,0,
7,76416, Note_on_c,7,47,90,
7,76512, Note_on_c,7,50,90,
7,76596, Note_off_c,7,50,0,
7,76608, Note_on_c,7,55,90,
7,76692, Note_off_c,7,55,0,
7,76704, Note_on_c,7,62,90,
7,76788, Note_off_c,7,47,0,
7,76788, Note_off_c,7,62,0,
7,76800, Note_on_c,7,59,90,
7,76836, Note_off_c,7,59,0,
7,76848, Note_on_c,7,60,90,
7,76884, Note_off_c,7,60,0,
7,76896, Note_on_c,7,57,90,
7,76980, Note_off_c,7,57,0,
7,76992, Note_on_c,7,45,90,
7,77088, Note_on_c,7,52,90,
7,77172, Note_off_c,7,52,0,
7,77184, Note_on_c,7,57,90,
7,77268, Note_off_c,7,57,0,
7,77280, Note_on_c,7,48,90,
7,77364, Note_off_c,7,45,0,
7,77364, Note_off_c,7,48,0,
7,77376, Note_on_c,7,45,90,
7,77460, Note_off_c,7,45,0,
7,77472, Note_on_c,7,47,90,
7,77556, Note_off_c,7,47,0,
7,77568, Note_on_c,7,48,90,
7,77664, Note_on_c,7,52,90,
7,77748, Note_off_c,7,52,0,
7,77760, Note_on_c,7,55,90,
7,77844, Note_off_c,7,55,0,
7,77856, Note_on_c,7,60,90,
7,77940, Note_off_c,7,48,0,
7,77940, Note_off_c,7,60,0,
7,77952, Note_on_c,7,47,90,
7,78048, Note_on_c,7,50,90,
7,78132, Note_off_c,7,50,0,
7,78144, Note_on_c,7,55,90,
7,78228, Note_off_c,7,47,0,
7,78228, Note_off_c,7,55,0,
7,78240, Note_on_c,7,48,90,
7,78240, Note_on_c,7,41,90,
7,78240, Note_on_c,7,53,90,
7,78240, Note_on_c,7,57,90,
7,78240, Note_on_c,7,60,90,
7,78240, Note_on_c,7,64,90,
7,78420, Note_off_c,7,64,0,
7,78420, Note_off_c,7,60,0,
7,78420, Note_off_c,7,57,0,
7,78420, Note_off_c,7,53,0,
7,78420, Note_off_c,7,41,0,
7,78420, Note_off_c,7,48,0,
7,78432, Note_on_c,7,64,90,
7,78432, Note_on_c,7,60,90,
7,78432, Note_on_c,7,57,90,
7,78432, Note_on_c,7,52,90,
7,78432, Note_on_c,7,45,90,
7,78900, Note_off_c,7,45,0,
7,78900, Note_off_c,7,52,0,
7,78900, Note_off_c,7,57,0,
7,78900, Note_off_c,7,60,0,
7,78900, Note_off_c,7,64,0,
7,78912, Note_on_c,7,45,90,
7,78996, Note_off_c,7,45,0,
7,79008, Note_on_c,7,47,90,
7,79092, Note_off_c,7,47,0,
7,79104, Note_on_c,7,48,90,
7,79200, Note_on_c,7,52,90,
7,79284, Note_off_c,7,52,0,
7,79296, Note_on_c,7,55,90,
7,79380, Note_off_c,7,55,0,
7,79392, Note_on_c,7,60,90,
7,79476, Note_off_c,7,48,0,
7,79476, Note_off_c,7,60,0,
7,79488, Note_on_c,7,47,90,
7,79584, Note_on_c,7,50,90,
7,79668, Note_off_c,7,50,0,
7,79680, Note_on_c,7,55,90,
7,79764, Note_off_c,7,55,0,
7,79776, Note_on_c,7,62,90,
7,79860, Note_off_c,7,47,0,
7,79860, Note_off_c,7,62,0,
7,79872, Note_on_c,7,59,90,
7,79872, Note_on_c,7,45,90,
7,79908, Note_off_c,7,59,0,
7,79920, Note_on_c,7,60,90,
7,79956, Note_off_c,7,60,0,
7,79968, Note_on_c,7,57,90,
7,80052, Note_off_c,7,45,0,
7,80052, Note_off_c,7,57,0,
7,80064, Note_on_c,7,45,90,
7,80160, Note_on_c,7,52,90,
7,80244, Note_off_c,7,52,0,
7,80256, Note_on_c,7,57,90,
7,80340, Note_off_c,7,57,0,
7,80352, Note_on_c,7,60,90,
7,80436, Note_off_c,7,45,0,
7,80436, Note_off_c,7,60,0,
7,80448, Note_on_c,7,45,90,
7,80532, Note_off_c,7,45,0,
7,80544, Note_on_c,7,47,90,
7,80628, Note_off_c,7,47,0,
7,80640, Note_on_c,7,48,90,
7,80736, Note_on_c,7,52,90,
7,80820, Note_off_c,7,52,0,
7,80832, Note_on_c,7,55,90,
7,80916, Note_off_c,7,55,0,
7,80928, Note_on_c,7,60,90,
7,81012, Note_off_c,7,48,0,
7,81012, Note_off_c,7,60,0,
7,81024, Note_on_c,7,47,90,
7,81120, Note_on_c,7,50,90,
7,81204, Note_off_c,7,50,0,
7,81216, Note_on_c,7,55,90,
7,81300, Note_off_c,7,47,0,
7,81300, Note_off_c,7,55,0,
7,81312, Note_on_c,7,48,90,
7,81312, Note_on_c,7,41,90,
7,81312, Note_on_c,7,53,90,
7,81312, Note_on_c,7,57,90,
7,81312, Note_on_c,7,60,90,
7,81312, Note_on_c,7,64,90,
7,81492, Note_off_c,7,64,0,
7,81492, Note_off_c,7,60,0,
7,81492, Note_off_c,7,57,0,
7,81492, Note_off_c,7,53,0,
7,81492, Note_off_c,7,41,0,
7,81492, Note_off_c,7,48,0,
7,81504, Note_on_c,7,64,90,
7,81504, Note_on_c,7,60,90,
7,81504, Note_on_c,7,57,90,
7,81504, Note_on_c,7,52,90,
7,81504, Note_on_c,7,45,90,
7,81972, Note_off_c,7,45,0,
7,81972, Note_off_c,7,52,0,
7,81972, Note_off_c,7,57,0,
7,81972, Note_off_c,7,60,0,
7,81972, Note_off_c,7,64,0,
7,81984, Note_on_c,7,45,90,
7,82068, Note_off_c,7,45,0,
7,82080, Note_on_c,7,47,90,
7,82164, Note_off_c,7,47,0,
7,82176, Note_on_c,7,60,90,
7,82260, Note_off_c,7,60,0,
7,82272, Note_on_c,7,64,90,
7,82356, Note_off_c,7,64,0,
7,82368, Note_on_c,7,67,90,
7,82452, Note_off_c,7,67,0,
7,82464, Note_on_c,7,60,90,
7,82548, Note_off_c,7,60,0,
7,82560, Note_on_c,7,59,90,
7,82644, Note_off_c,7,59,0,
7,82656, Note_on_c,7,62,90,
7,82740, Note_off_c,7,62,0,
7,82752, Note_on_c,7,67,90,
7,82836, Note_off_c,7,67,0,
7,82848, Note_on_c,7,59,90,
7,82932, Note_off_c,7,59,0,
7,82944, Note_on_c,7,66,90,
7,82944, Note_on_c,7,62,90,
7,82944, Note_on_c,7,57,90,
7,82944, Note_on_c,7,50,90,
7,83508, Note_off_c,7,50,0,
7,83508, Note_off_c,7,57,0,
7,83508, Note_off_c,7,62,0,
7,83508, Note_off_c,7,66,0,
7,83616, Note_on_c,7,62,90,
7,83616, Note_on_c,7,64,90,
7,83616, Note_on_c,7,57,90,
7,83616, Note_on_c,7,50,90,
7,83652, Note_off_c,7,50,0,
7,83652, Note_off_c,7,57,0,
7,83652, Note_off_c,7,64,0,
7,83652, Note_off_c,7,62,0,
7,83664, Note_on_c,7,62,90,
7,83664, Note_on_c,7,66,90,
7,83664, Note_on_c,7,57,90,
7,83664, Note_on_c,7,50,90,
7,83700, Note_off_c,7,50,0,
7,83700, Note_off_c,7,57,0,
7,83700, Note_off_c,7,66,0,
7,83700, Note_off_c,7,62,0,
7,83712, Note_on_c,7,50,90,
7,83712, Note_on_c,7,57,90,
7,83712, Note_on_c,7,62,90,
7,83712, Note_on_c,7,67,90,
7,83988, Note_off_c,7,67,0,
7,83988, Note_off_c,7,62,0,
7,83988, Note_off_c,7,57,0,
7,83988, Note_off_c,7,50,0,
7,84000, Note_on_c,7,50,90,
7,84000, Note_on_c,7,57,90,
7,84000, Note_on_c,7,62,90,
7,84000, Note_on_c,7,64,90,
7,84036, Note_off_c,7,64,0,
7,84036, Note_off_c,7,62,0,
7,84036, Note_off_c,7,57,0,
7,84036, Note_off_c,7,50,0,
7,84048, Note_on_c,7,50,90,
7,84048, Note_on_c,7,57,90,
7,84048, Note_on_c,7,62,90,
7,84048, Note_on_c,7,66,90,
7,84084, Note_off_c,7,66,0,
7,84084, Note_off_c,7,62,0,
7,84084, Note_off_c,7,57,0,
7,84084, Note_off_c,7,50,0,
7,84096, Note_on_c,7,50,90,
7,84096, Note_on_c,7,57,90,
7,84096, Note_on_c,7,67,90,
7,84372, Note_off_c,7,67,0,
7,84372, Note_off_c,7,57,0,
7,84372, Note_off_c,7,50,0,
7,84384, Note_on_c,7,50,90,
7,84384, Note_on_c,7,57,90,
7,84384, Note_on_c,7,64,90,
7,84420, Note_off_c,7,64,0,
7,84420, Note_off_c,7,57,0,
7,84420, Note_off_c,7,50,0,
7,84432, Note_on_c,7,50,90,
7,84432, Note_on_c,7,57,90,
7,84432, Note_on_c,7,66,90,
7,84480, Note_off_c,7,66,0,
7,84480, Note_off_c,7,57,0,
7,84480, Note_off_c,7,50,0,
7,84480, Note_on_c,7,50,90,
7,84480, Note_on_c,7,57,90,
7,84480, Note_on_c,7,62,90,
7,84480, Note_on_c,7,67,90,
7,84660, Note_off_c,7,67,0,
7,84660, Note_off_c,7,62,0,
7,84660, Note_off_c,7,57,0,
7,84660, Note_off_c,7,50,0,
7,84672, Note_on_c,7,67,90,
7,84672, Note_on_c,7,62,90,
7,84672, Note_on_c,7,57,90,
7,84672, Note_on_c,7,50,90,
7,84852, Note_off_c,7,50,0,
7,84852, Note_off_c,7,57,0,
7,84852, Note_off_c,7,62,0,
7,84852, Note_off_c,7,67,0,
7,84864, Note_on_c,7,50,90,
7,84864, Note_on_c,7,57,90,
7,84864, Note_on_c,7,62,90,
7,84864, Note_on_c,7,66,90,
7,85044, Note_off_c,7,66,0,
7,85044, Note_off_c,7,62,0,
7,85044, Note_off_c,7,57,0,
7,85044, Note_off_c,7,50,0,
7,85056, Note_on_c,7,48,90,
7,85056, Note_on_c,7,52,90,
7,85056, Note_on_c,7,55,90,
7,85056, Note_on_c,7,62,90,
7,85236, Note_off_c,7,62,0,
7,85236, Note_off_c,7,55,0,
7,85236, Note_off_c,7,52,0,
7,85248, Note_on_c,7,62,90,
7,85248, Note_on_c,7,55,90,
7,85332, Note_off_c,7,55,0,
7,85332, Note_off_c,7,62,0,
7,85344, Note_on_c,7,55,90,
7,85344, Note_on_c,7,62,90,
7,85344, Note_on_c,7,66,90,
7,85476, Note_off_c,7,66,0,
7,85476, Note_off_c,7,62,0,
7,85476, Note_off_c,7,55,0,
7,85488, Note_on_c,7,55,90,
7,85488, Note_on_c,7,62,90,
7,85488, Note_on_c,7,66,90,
7,85524, Note_off_c,7,66,0,
7,85524, Note_off_c,7,62,0,
7,85524, Note_off_c,7,55,0,
7,85536, Note_on_c,7,55,90,
7,85536, Note_on_c,7,62,90,
7,85536, Note_on_c,7,66,90,
7,85620, Note_off_c,7,66,0,
7,85620, Note_off_c,7,62,0,
7,85620, Note_off_c,7,55,0,
7,85632, Note_on_c,7,55,90,
7,85632, Note_on_c,7,62,90,
7,85632, Note_on_c,7,64,90,
7,85812, Note_off_c,7,64,0,
7,85812, Note_off_c,7,62,0,
7,85812, Note_off_c,7,48,0,
7,85812, Note_off_c,7,55,0,
7,85824, Note_on_c,7,48,90,
7,85824, Note_on_c,7,52,90,
7,85824, Note_on_c,7,55,90,
7,85824, Note_on_c,7,60,90,
7,86004, Note_off_c,7,60,0,
7,86004, Note_off_c,7,55,0,
7,86004, Note_off_c,7,52,0,
7,86016, Note_on_c,7,55,90,
7,86016, Note_on_c,7,60,90,
7,86100, Note_off_c,7,60,0,
7,86100, Note_off_c,7,55,0,
7,86112, Note_on_c,7,55,90,
7,86112, Note_on_c,7,62,90,
7,86112, Note_on_c,7,66,90,
7,86244, Note_off_c,7,66,0,
7,86244, Note_off_c,7,62,0,
7,86244, Note_off_c,7,55,0,
7,86256, Note_on_c,7,66,90,
7,86256, Note_on_c,7,62,90,
7,86256, Note_on_c,7,55,90,
7,86292, Note_off_c,7,55,0,
7,86292, Note_off_c,7,62,0,
7,86292, Note_off_c,7,66,0,
7,86304, Note_on_c,7,55,90,
7,86304, Note_on_c,7,62,90,
7,86304, Note_on_c,7,66,90,
7,86388, Note_off_c,7,66,0,
7,86388, Note_off_c,7,62,0,
7,86388, Note_off_c,7,55,0,
7,86400, Note_on_c,7,64,90,
7,86404, Note_on_c,7,50,90,
7,86404, Note_on_c,7,62,90,
7,86580, Note_off_c,7,64,0,
7,86584, Note_off_c,7,50,0,
7,86584, Note_off_c,7,62,0,
7,86592, Note_on_c,7,62,90,
7,86592, Note_on_c,7,64,90,
7,86596, Note_on_c,7,50,90,
7,86676, Note_off_c,7,64,0,
7,86676, Note_off_c,7,48,0,
7,86676, Note_off_c,7,62,0,
7,86680, Note_off_c,7,50,0,
7,86688, Note_on_c,7,50,90,
7,86688, Note_on_c,7,57,90,
7,86688, Note_on_c,7,62,90,
7,86688, Note_on_c,7,64,90,
7,86724, Note_off_c,7,64,0,
7,86724, Note_off_c,7,62,0,
7,86724, Note_off_c,7,57,0,
7,86724, Note_off_c,7,50,0,
7,86736, Note_on_c,7,50,90,
7,86736, Note_on_c,7,57,90,
7,86736, Note_on_c,7,62,90,
7,86736, Note_on_c,7,66,90,
7,86772, Note_off_c,7,66,0,
7,86772, Note_off_c,7,62,0,
7,86772, Note_off_c,7,57,0,
7,86772, Note_off_c,7,50,0,
7,86784, Note_on_c,7,50,90,
7,86784, Note_on_c,7,57,90,
7,86784, Note_on_c,7,62,90,
7,86784, Note_on_c,7,67,90,
7,87060, Note_off_c,7,67,0,
7,87060, Note_off_c,7,62,0,
7,87060, Note_off_c,7,57,0,
7,87060, Note_off_c,7,50,0,
7,87072, Note_on_c,7,50,90,
7,87072, Note_on_c,7,57,90,
7,87072, Note_on_c,7,62,90,
7,87072, Note_on_c,7,64,90,
7,87108, Note_off_c,7,64,0,
7,87108, Note_off_c,7,62,0,
7,87108, Note_off_c,7,57,0,
7,87108, Note_off_c,7,50,0,
7,87120, Note_on_c,7,50,90,
7,87120, Note_on_c,7,57,90,
7,87120, Note_on_c,7,62,90,
7,87120, Note_on_c,7,66,90,
7,87156, Note_off_c,7,66,0,
7,87156, Note_off_c,7,62,0,
7,87156, Note_off_c,7,57,0,
7,87156, Note_off_c,7,50,0,
7,87168, Note_on_c,7,50,90,
7,87168, Note_on_c,7,57,90,
7,87168, Note_on_c,7,67,90,
7,87444, Note_off_c,7,67,0,
7,87444, Note_off_c,7,57,0,
7,87444, Note_off_c,7,50,0,
7,87456, Note_on_c,7,50,90,
7,87456, Note_on_c,7,57,90,
7,87456, Note_on_c,7,64,90,
7,87492, Note_off_c,7,64,0,
7,87492, Note_off_c,7,57,0,
7,87492, Note_off_c,7,50,0,
7,87504, Note_on_c,7,50,90,
7,87504, Note_on_c,7,57,90,
7,87504, Note_on_c,7,66,90,
7,87552, Note_off_c,7,66,0,
7,87552, Note_off_c,7,57,0,
7,87552, Note_off_c,7,50,0,
7,87552, Note_on_c,7,50,90,
7,87552, Note_on_c,7,57,90,
7,87552, Note_on_c,7,62,90,
7,87552, Note_on_c,7,67,90,
7,87732, Note_off_c,7,67,0,
7,87732, Note_off_c,7,62,0,
7,87732, Note_off_c,7,57,0,
7,87732, Note_off_c,7,50,0,
7,87744, Note_on_c,7,67,90,
7,87744, Note_on_c,7,62,90,
7,87744, Note_on_c,7,57,90,
7,87744, Note_on_c,7,50,90,
7,87900, Note_off_c,7,67,0,
7,87924, Note_off_c,7,62,0,
7,87924, Note_off_c,7,57,0,
7,87924, Note_off_c,7,50,0,
7,87936, Note_on_c,7,50,90,
7,87936, Note_on_c,7,57,90,
7,87936, Note_on_c,7,62,90,
7,87936, Note_on_c,7,66,90,
7,88116, Note_off_c,7,66,0,
7,88116, Note_off_c,7,62,0,
7,88116, Note_off_c,7,57,0,
7,88116, Note_off_c,7,50,0,
7,88992, Note_on_c,7,59,90,
7,88992, Note_on_c,7,62,90,
7,89556, Note_off_c,7,62,0,
7,89556, Note_off_c,7,59,0,
7,89760, Note_on_c,7,52,90,
7,89760, Note_on_c,7,57,90,
7,89760, Note_on_c,7,60,90,
7,89760, Note_on_c,7,64,90,
7,89940, Note_off_c,7,64,0,
7,89940, Note_off_c,7,60,0,
7,89940, Note_off_c,7,57,0,
7,89940, Note_off_c,7,52,0,
7,89952, Note_on_c,7,64,90,
7,89952, Note_on_c,7,60,90,
7,89952, Note_on_c,7,57,90,
7,89952, Note_on_c,7,52,90,
7,90132, Note_off_c,7,52,0,
7,90132, Note_off_c,7,57,0,
7,90132, Note_off_c,7,60,0,
7,90132, Note_off_c,7,64,0,
7,90144, Note_on_c,7,64,90,
7,90144, Note_on_c,7,60,90,
7,90144, Note_on_c,7,52,90,
7,90144, Note_on_c,7,55,90,
7,90324, Note_off_c,7,55,0,
7,90324, Note_off_c,7,52,0,
7,90324, Note_off_c,7,60,0,
7,90324, Note_off_c,7,64,0,
7,90336, Note_on_c,7,64,90,
7,90336, Note_on_c,7,60,90,
7,90336, Note_on_c,7,52,90,
7,90336, Note_on_c,7,55,90,
7,90516, Note_off_c,7,55,0,
7,90516, Note_off_c,7,52,0,
7,90516, Note_off_c,7,60,0,
7,90516, Note_off_c,7,64,0,
7,90528, Note_on_c,7,53,90,
7,90528, Note_on_c,7,57,90,
7,90528, Note_on_c,7,60,90,
7,90528, Note_on_c,7,64,90,
7,90708, Note_off_c,7,64,0,
7,90708, Note_off_c,7,60,0,
7,90708, Note_off_c,7,57,0,
7,90708, Note_off_c,7,53,0,
7,90720, Note_on_c,7,53,90,
7,90720, Note_on_c,7,57,90,
7,90720, Note_on_c,7,60,90,
7,90720, Note_on_c,7,64,90,
7,90852, Note_off_c,7,64,0,
7,90852, Note_off_c,7,60,0,
7,90852, Note_off_c,7,57,0,
7,90852, Note_off_c,7,53,0,
7,90864, Note_on_c,7,64,90,
7,90864, Note_on_c,7,60,90,
7,90864, Note_on_c,7,57,90,
7,90864, Note_on_c,7,53,90,
7,90996, Note_off_c,7,53,0,
7,90996, Note_off_c,7,57,0,
7,90996, Note_off_c,7,60,0,
7,90996, Note_off_c,7,64,0,
7,91008, Note_on_c,7,53,90,
7,91008, Note_on_c,7,57,90,
7,91008, Note_on_c,7,60,90,
7,91008, Note_on_c,7,64,90,
7,91092, Note_off_c,7,64,0,
7,91092, Note_off_c,7,60,0,
7,91092, Note_off_c,7,57,0,
7,91092, Note_off_c,7,53,0,
7,91104, Note_on_c,7,64,90,
7,91104, Note_on_c,7,60,90,
7,91104, Note_on_c,7,57,90,
7,91104, Note_on_c,7,53,90,
7,91284, Note_off_c,7,53,0,
7,91284, Note_off_c,7,57,0,
7,91284, Note_off_c,7,60,0,
7,91284, Note_off_c,7,64,0,
7,91296, Note_on_c,7,52,90,
7,91296, Note_on_c,7,57,90,
7,91296, Note_on_c,7,60,90,
7,91296, Note_on_c,7,64,90,
7,91380, Note_off_c,7,64,0,
7,91380, Note_off_c,7,60,0,
7,91380, Note_off_c,7,57,0,
7,91380, Note_off_c,7,52,0,
7,91392, Note_on_c,7,52,90,
7,91392, Note_on_c,7,57,90,
7,91392, Note_on_c,7,60,90,
7,91392, Note_on_c,7,64,90,
7,91476, Note_off_c,7,64,0,
7,91476, Note_off_c,7,60,0,
7,91476, Note_off_c,7,57,0,
7,91476, Note_off_c,7,52,0,
7,91488, Note_on_c,7,64,90,
7,91488, Note_on_c,7,60,90,
7,91488, Note_on_c,7,57,90,
7,91488, Note_on_c,7,52,90,
7,91668, Note_off_c,7,52,0,
7,91668, Note_off_c,7,57,0,
7,91668, Note_off_c,7,60,0,
7,91668, Note_off_c,7,64,0,
7,91680, Note_on_c,7,55,90,
7,91680, Note_on_c,7,60,90,
7,91680, Note_on_c,7,64,90,
7,91680, Note_on_c,7,52,90,
7,91860, Note_off_c,7,52,0,
7,91860, Note_off_c,7,64,0,
7,91860, Note_off_c,7,60,0,
7,91860, Note_off_c,7,55,0,
7,91872, Note_on_c,7,64,90,
7,91872, Note_on_c,7,60,90,
7,91872, Note_on_c,7,55,90,
7,91872, Note_on_c,7,52,90,
7,92052, Note_off_c,7,52,0,
7,92052, Note_off_c,7,55,0,
7,92052, Note_off_c,7,60,0,
7,92052, Note_off_c,7,64,0,
7,92064, Note_on_c,7,53,90,
7,92064, Note_on_c,7,57,90,
7,92064, Note_on_c,7,60,90,
7,92064, Note_on_c,7,64,90,
7,92244, Note_off_c,7,64,0,
7,92244, Note_off_c,7,60,0,
7,92244, Note_off_c,7,57,0,
7,92244, Note_off_c,7,53,0,
7,92256, Note_on_c,7,53,90,
7,92256, Note_on_c,7,57,90,
7,92256, Note_on_c,7,60,90,
7,92256, Note_on_c,7,64,90,
7,92388, Note_off_c,7,64,0,
7,92388, Note_off_c,7,60,0,
7,92388, Note_off_c,7,57,0,
7,92388, Note_off_c,7,53,0,
7,92400, Note_on_c,7,64,90,
7,92400, Note_on_c,7,60,90,
7,92400, Note_on_c,7,57,90,
7,92400, Note_on_c,7,53,90,
7,92532, Note_off_c,7,53,0,
7,92532, Note_off_c,7,57,0,
7,92532, Note_off_c,7,60,0,
7,92532, Note_off_c,7,64,0,
7,92544, Note_on_c,7,53,90,
7,92544, Note_on_c,7,57,90,
7,92544, Note_on_c,7,60,90,
7,92544, Note_on_c,7,64,90,
7,92628, Note_off_c,7,64,0,
7,92628, Note_off_c,7,60,0,
7,92628, Note_off_c,7,57,0,
7,92628, Note_off_c,7,53,0,
7,92640, Note_on_c,7,64,90,
7,92640, Note_on_c,7,60,90,
7,92640, Note_on_c,7,57,90,
7,92640, Note_on_c,7,53,90,
7,92820, Note_off_c,7,53,0,
7,92820, Note_off_c,7,57,0,
7,92820, Note_off_c,7,60,0,
7,92820, Note_off_c,7,64,0,
7,92832, Note_on_c,7,52,90,
7,92832, Note_on_c,7,57,90,
7,92832, Note_on_c,7,60,90,
7,92832, Note_on_c,7,64,90,
7,93012, Note_off_c,7,64,0,
7,93012, Note_off_c,7,60,0,
7,93012, Note_off_c,7,57,0,
7,93012, Note_off_c,7,52,0,
7,93024, Note_on_c,7,64,90,
7,93024, Note_on_c,7,60,90,
7,93024, Note_on_c,7,57,90,
7,93024, Note_on_c,7,52,90,
7,93204, Note_off_c,7,52,0,
7,93204, Note_off_c,7,57,0,
7,93204, Note_off_c,7,60,0,
7,93204, Note_off_c,7,64,0,
7,93216, Note_on_c,7,64,90,
7,93216, Note_on_c,7,60,90,
7,93216, Note_on_c,7,52,90,
7,93216, Note_on_c,7,55,90,
7,93396, Note_off_c,7,55,0,
7,93396, Note_off_c,7,52,0,
7,93396, Note_off_c,7,60,0,
7,93396, Note_off_c,7,64,0,
7,93408, Note_on_c,7,64,90,
7,93408, Note_on_c,7,60,90,
7,93408, Note_on_c,7,52,90,
7,93408, Note_on_c,7,55,90,
7,93588, Note_off_c,7,55,0,
7,93588, Note_off_c,7,52,0,
7,93588, Note_off_c,7,60,0,
7,93588, Note_off_c,7,64,0,
7,93600, Note_on_c,7,53,90,
7,93600, Note_on_c,7,57,90,
7,93600, Note_on_c,7,60,90,
7,93600, Note_on_c,7,64,90,
7,93780, Note_off_c,7,64,0,
7,93780, Note_off_c,7,60,0,
7,93780, Note_off_c,7,57,0,
7,93780, Note_off_c,7,53,0,
7,93792, Note_on_c,7,53,90,
7,93792, Note_on_c,7,57,90,
7,93792, Note_on_c,7,60,90,
7,93792, Note_on_c,7,64,90,
7,93924, Note_off_c,7,64,0,
7,93924, Note_off_c,7,60,0,
7,93924, Note_off_c,7,57,0,
7,93924, Note_off_c,7,53,0,
7,93936, Note_on_c,7,64,90,
7,93936, Note_on_c,7,60,90,
7,93936, Note_on_c,7,57,90,
7,93936, Note_on_c,7,53,90,
7,94068, Note_off_c,7,53,0,
7,94068, Note_off_c,7,57,0,
7,94068, Note_off_c,7,60,0,
7,94068, Note_off_c,7,64,0,
7,94080, Note_on_c,7,53,90,
7,94080, Note_on_c,7,57,90,
7,94080, Note_on_c,7,60,90,
7,94080, Note_on_c,7,64,90,
7,94164, Note_off_c,7,64,0,
7,94164, Note_off_c,7,60,0,
7,94164, Note_off_c,7,57,0,
7,94164, Note_off_c,7,53,0,
7,94176, Note_on_c,7,64,90,
7,94176, Note_on_c,7,60,90,
7,94176, Note_on_c,7,57,90,
7,94176, Note_on_c,7,53,90,
7,94356, Note_off_c,7,53,0,
7,94356, Note_off_c,7,57,0,
7,94356, Note_off_c,7,60,0,
7,94356, Note_off_c,7,64,0,
7,94368, Note_on_c,7,52,90,
7,94368, Note_on_c,7,57,90,
7,94368, Note_on_c,7,60,90,
7,94368, Note_on_c,7,64,90,
7,94548, Note_off_c,7,64,0,
7,94548, Note_off_c,7,60,0,
7,94548, Note_off_c,7,57,0,
7,94548, Note_off_c,7,52,0,
7,94560, Note_on_c,7,64,90,
7,94560, Note_on_c,7,60,90,
7,94560, Note_on_c,7,57,90,
7,94560, Note_on_c,7,52,90,
7,94740, Note_off_c,7,52,0,
7,94740, Note_off_c,7,57,0,
7,94740, Note_off_c,7,60,0,
7,94740, Note_off_c,7,64,0,
7,94752, Note_on_c,7,64,90,
7,94752, Note_on_c,7,60,90,
7,94752, Note_on_c,7,52,90,
7,94752, Note_on_c,7,55,90,
7,94932, Note_off_c,7,55,0,
7,94932, Note_off_c,7,52,0,
7,94932, Note_off_c,7,60,0,
7,94932, Note_off_c,7,64,0,
7,94944, Note_on_c,7,64,90,
7,94944, Note_on_c,7,60,90,
7,94944, Note_on_c,7,52,90,
7,94944, Note_on_c,7,55,90,
7,95124, Note_off_c,7,55,0,
7,95124, Note_off_c,7,52,0,
7,95124, Note_off_c,7,60,0,
7,95124, Note_off_c,7,64,0,
7,95136, Note_on_c,7,53,90,
7,95136, Note_on_c,7,57,90,
7,95136, Note_on_c,7,60,90,
7,95136, Note_on_c,7,64,90,
7,95316, Note_off_c,7,64,0,
7,95316, Note_off_c,7,60,0,
7,95316, Note_off_c,7,57,0,
7,95316, Note_off_c,7,53,0,
7,95328, Note_on_c,7,53,90,
7,95328, Note_on_c,7,57,90,
7,95328, Note_on_c,7,60,90,
7,95328, Note_on_c,7,64,90,
7,95460, Note_off_c,7,64,0,
7,95460, Note_off_c,7,60,0,
7,95460, Note_off_c,7,57,0,
7,95460, Note_off_c,7,53,0,
7,95472, Note_on_c,7,64,90,
7,95472, Note_on_c,7,60,90,
7,95472, Note_on_c,7,57,90,
7,95472, Note_on_c,7,53,90,
7,95508, Note_off_c,7,53,0,
7,95508, Note_off_c,7,57,0,
7,95508, Note_off_c,7,60,0,
7,95508, Note_off_c,7,64,0,
7,95520, Note_on_c,7,53,90,
7,95520, Note_on_c,7,57,90,
7,95520, Note_on_c,7,60,90,
7,95520, Note_on_c,7,64,90,
7,95604, Note_off_c,7,64,0,
7,95604, Note_off_c,7,60,0,
7,95604, Note_off_c,7,57,0,
7,95604, Note_off_c,7,53,0,
7,95616, Note_on_c,7,53,90,
7,95616, Note_on_c,7,57,90,
7,95616, Note_on_c,7,60,90,
7,95616, Note_on_c,7,64,90,
7,95700, Note_off_c,7,64,0,
7,95700, Note_off_c,7,60,0,
7,95700, Note_off_c,7,57,0,
7,95700, Note_off_c,7,53,0,
7,95712, Note_on_c,7,64,90,
7,95712, Note_on_c,7,60,90,
7,95712, Note_on_c,7,57,90,
7,95712, Note_on_c,7,53,90,
7,95796, Note_off_c,7,53,0,
7,95796, Note_off_c,7,57,0,
7,95796, Note_off_c,7,60,0,
7,95796, Note_off_c,7,64,0,
7,95808, Note_on_c,7,53,90,
7,95808, Note_on_c,7,57,90,
7,95808, Note_on_c,7,60,90,
7,95808, Note_on_c,7,64,90,
7,95892, Note_off_c,7,64,0,
7,95892, Note_off_c,7,60,0,
7,95892, Note_off_c,7,57,0,
7,95892, Note_off_c,7,53,0,
7,95904, Note_on_c,7,52,90,
7,95904, Note_on_c,7,57,90,
7,95904, Note_on_c,7,60,90,
7,95904, Note_on_c,7,64,90,
7,96084, Note_off_c,7,64,0,
7,96084, Note_off_c,7,60,0,
7,96084, Note_off_c,7,57,0,
7,96084, Note_off_c,7,52,0,
7,96096, Note_on_c,7,64,90,
7,96096, Note_on_c,7,60,90,
7,96096, Note_on_c,7,57,90,
7,96096, Note_on_c,7,52,90,
7,96228, Note_off_c,7,52,0,
7,96228, Note_off_c,7,57,0,
7,96228, Note_off_c,7,60,0,
7,96228, Note_off_c,7,64,0,
7,96240, Note_on_c,7,52,90,
7,96240, Note_on_c,7,57,90,
7,96240, Note_on_c,7,60,90,
7,96240, Note_on_c,7,64,90,
7,96276, Note_off_c,7,64,0,
7,96276, Note_off_c,7,60,0,
7,96276, Note_off_c,7,57,0,
7,96276, Note_off_c,7,52,0,
7,96288, Note_on_c,7,64,90,
7,96288, Note_on_c,7,60,90,
7,96288, Note_on_c,7,52,90,
7,96288, Note_on_c,7,55,90,
7,96372, Note_off_c,7,55,0,
7,96372, Note_off_c,7,52,0,
7,96372, Note_off_c,7,60,0,
7,96372, Note_off_c,7,64,0,
7,96384, Note_on_c,7,64,90,
7,96384, Note_on_c,7,60,90,
7,96384, Note_on_c,7,55,90,
7,96384, Note_on_c,7,52,90,
7,96468, Note_off_c,7,52,0,
7,96468, Note_off_c,7,55,0,
7,96468, Note_off_c,7,60,0,
7,96468, Note_off_c,7,64,0,
7,96480, Note_on_c,7,64,90,
7,96480, Note_on_c,7,60,90,
7,96480, Note_on_c,7,52,90,
7,96480, Note_on_c,7,55,90,
7,96660, Note_off_c,7,55,0,
7,96660, Note_off_c,7,52,0,
7,96660, Note_off_c,7,60,0,
7,96660, Note_off_c,7,64,0,
7,96672, Note_on_c,7,53,90,
7,96672, Note_on_c,7,57,90,
7,96672, Note_on_c,7,60,90,
7,96672, Note_on_c,7,64,90,
7,96852, Note_off_c,7,64,0,
7,96852, Note_off_c,7,60,0,
7,96852, Note_off_c,7,57,0,
7,96852, Note_off_c,7,53,0,
7,96864, Note_on_c,7,53,90,
7,96864, Note_on_c,7,57,90,
7,96864, Note_on_c,7,60,90,
7,96864, Note_on_c,7,64,90,
7,96996, Note_off_c,7,64,0,
7,96996, Note_off_c,7,60,0,
7,96996, Note_off_c,7,57,0,
7,96996, Note_off_c,7,53,0,
7,97008, Note_on_c,7,64,90,
7,97008, Note_on_c,7,60,90,
7,97008, Note_on_c,7,57,90,
7,97008, Note_on_c,7,53,90,
7,97044, Note_off_c,7,53,0,
7,97044, Note_off_c,7,57,0,
7,97044, Note_off_c,7,60,0,
7,97044, Note_off_c,7,64,0,
7,97056, Note_on_c,7,53,90,
7,97056, Note_on_c,7,57,90,
7,97056, Note_on_c,7,60,90,
7,97056, Note_on_c,7,64,90,
7,97140, Note_off_c,7,64,0,
7,97140, Note_off_c,7,60,0,
7,97140, Note_off_c,7,57,0,
7,97140, Note_off_c,7,53,0,
7,97152, Note_on_c,7,53,90,
7,97152, Note_on_c,7,57,90,
7,97152, Note_on_c,7,60,90,
7,97152, Note_on_c,7,64,90,
7,97236, Note_off_c,7,64,0,
7,97236, Note_off_c,7,60,0,
7,97236, Note_off_c,7,57,0,
7,97236, Note_off_c,7,53,0,
7,97248, Note_on_c,7,64,90,
7,97248, Note_on_c,7,60,90,
7,97248, Note_on_c,7,57,90,
7,97248, Note_on_c,7,53,90,
7,97428, Note_off_c,7,53,0,
7,97428, Note_off_c,7,57,0,
7,97428, Note_off_c,7,60,0,
7,97428, Note_off_c,7,64,0,
7,97440, Note_on_c,7,52,90,
7,97440, Note_on_c,7,57,90,
7,97440, Note_on_c,7,60,90,
7,97440, Note_on_c,7,64,90,
7,97620, Note_off_c,7,64,0,
7,97620, Note_off_c,7,60,0,
7,97620, Note_off_c,7,57,0,
7,97620, Note_off_c,7,52,0,
7,97632, Note_on_c,7,64,90,
7,97632, Note_on_c,7,60,90,
7,97632, Note_on_c,7,57,90,
7,97632, Note_on_c,7,52,90,
7,97764, Note_off_c,7,52,0,
7,97764, Note_off_c,7,57,0,
7,97764, Note_off_c,7,60,0,
7,97764, Note_off_c,7,64,0,
7,97776, Note_on_c,7,52,90,
7,97776, Note_on_c,7,57,90,
7,97776, Note_on_c,7,60,90,
7,97776, Note_on_c,7,64,90,
7,97812, Note_off_c,7,64,0,
7,97812, Note_off_c,7,60,0,
7,97812, Note_off_c,7,57,0,
7,97812, Note_off_c,7,52,0,
7,97824, Note_on_c,7,64,90,
7,97824, Note_on_c,7,60,90,
7,97824, Note_on_c,7,52,90,
7,97824, Note_on_c,7,55,90,
7,97908, Note_off_c,7,55,0,
7,97908, Note_off_c,7,52,0,
7,97908, Note_off_c,7,60,0,
7,97908, Note_off_c,7,64,0,
7,97920, Note_on_c,7,64,90,
7,97920, Note_on_c,7,60,90,
7,97920, Note_on_c,7,55,90,
7,97920, Note_on_c,7,52,90,
7,98004, Note_off_c,7,52,0,
7,98004, Note_off_c,7,55,0,
7,98004, Note_off_c,7,60,0,
7,98004, Note_off_c,7,64,0,
7,98016, Note_on_c,7,64,90,
7,98016, Note_on_c,7,60,90,
7,98016, Note_on_c,7,52,90,
7,98016, Note_on_c,7,55,90,
7,98196, Note_off_c,7,55,0,
7,98196, Note_off_c,7,52,0,
7,98196, Note_off_c,7,60,0,
7,98196, Note_off_c,7,64,0,
7,98208, Note_on_c,7,53,90,
7,98208, Note_on_c,7,57,90,
7,98208, Note_on_c,7,60,90,
7,98208, Note_on_c,7,64,90,
7,98388, Note_off_c,7,64,0,
7,98388, Note_off_c,7,60,0,
7,98388, Note_off_c,7,57,0,
7,98388, Note_off_c,7,53,0,
7,98400, Note_on_c,7,53,90,
7,98400, Note_on_c,7,57,90,
7,98400, Note_on_c,7,60,90,
7,98400, Note_on_c,7,64,90,
7,98532, Note_off_c,7,64,0,
7,98532, Note_off_c,7,60,0,
7,98532, Note_off_c,7,57,0,
7,98532, Note_off_c,7,53,0,
7,98544, Note_on_c,7,64,90,
7,98544, Note_on_c,7,60,90,
7,98544, Note_on_c,7,57,90,
7,98544, Note_on_c,7,53,90,
7,98580, Note_off_c,7,53,0,
7,98580, Note_off_c,7,57,0,
7,98580, Note_off_c,7,60,0,
7,98580, Note_off_c,7,64,0,
7,98592, Note_on_c,7,53,90,
7,98592, Note_on_c,7,57,90,
7,98592, Note_on_c,7,60,90,
7,98592, Note_on_c,7,64,90,
7,98676, Note_off_c,7,64,0,
7,98676, Note_off_c,7,60,0,
7,98676, Note_off_c,7,57,0,
7,98676, Note_off_c,7,53,0,
7,98688, Note_on_c,7,53,90,
7,98688, Note_on_c,7,57,90,
7,98688, Note_on_c,7,60,90,
7,98688, Note_on_c,7,64,90,
7,98772, Note_off_c,7,64,0,
7,98772, Note_off_c,7,60,0,
7,98772, Note_off_c,7,57,0,
7,98772, Note_off_c,7,53,0,
7,98784, Note_on_c,7,64,90,
7,98784, Note_on_c,7,60,90,
7,98784, Note_on_c,7,57,90,
7,98784, Note_on_c,7,53,90,
7,98868, Note_off_c,7,53,0,
7,98868, Note_off_c,7,57,0,
7,98868, Note_off_c,7,60,0,
7,98868, Note_off_c,7,64,0,
7,98880, Note_on_c,7,53,90,
7,98880, Note_on_c,7,57,90,
7,98880, Note_on_c,7,60,90,
7,98880, Note_on_c,7,64,90,
7,98964, Note_off_c,7,64,0,
7,98964, Note_off_c,7,60,0,
7,98964, Note_off_c,7,57,0,
7,98964, Note_off_c,7,53,0,
7,98976, Note_on_c,7,52,90,
7,98976, Note_on_c,7,57,90,
7,98976, Note_on_c,7,60,90,
7,98976, Note_on_c,7,64,90,
7,99156, Note_off_c,7,64,0,
7,99156, Note_off_c,7,60,0,
7,99156, Note_off_c,7,57,0,
7,99156, Note_off_c,7,52,0,
7,99168, Note_on_c,7,64,90,
7,99168, Note_on_c,7,60,90,
7,99168, Note_on_c,7,57,90,
7,99168, Note_on_c,7,52,90,
7,99300, Note_off_c,7,52,0,
7,99300, Note_off_c,7,57,0,
7,99300, Note_off_c,7,60,0,
7,99300, Note_off_c,7,64,0,
7,99312, Note_on_c,7,52,90,
7,99312, Note_on_c,7,57,90,
7,99312, Note_on_c,7,60,90,
7,99312, Note_on_c,7,64,90,
7,99348, Note_off_c,7,64,0,
7,99348, Note_off_c,7,60,0,
7,99348, Note_off_c,7,57,0,
7,99348, Note_off_c,7,52,0,
7,99360, Note_on_c,7,64,90,
7,99360, Note_on_c,7,60,90,
7,99360, Note_on_c,7,52,90,
7,99360, Note_on_c,7,55,90,
7,99444, Note_off_c,7,55,0,
7,99444, Note_off_c,7,52,0,
7,99444, Note_off_c,7,60,0,
7,99444, Note_off_c,7,64,0,
7,99456, Note_on_c,7,64,90,
7,99456, Note_on_c,7,60,90,
7,99456, Note_on_c,7,55,90,
7,99456, Note_on_c,7,52,90,
7,99540, Note_off_c,7,52,0,
7,99540, Note_off_c,7,55,0,
7,99540, Note_off_c,7,60,0,
7,99540, Note_off_c,7,64,0,
7,99552, Note_on_c,7,64,90,
7,99552, Note_on_c,7,60,90,
7,99552, Note_on_c,7,52,90,
7,99552, Note_on_c,7,55,90,
7,99732, Note_off_c,7,55,0,
7,99732, Note_off_c,7,52,0,
7,99732, Note_off_c,7,60,0,
7,99732, Note_off_c,7,64,0,
7,99744, Note_on_c,7,53,90,
7,99744, Note_on_c,7,57,90,
7,99744, Note_on_c,7,60,90,
7,99744, Note_on_c,7,64,90,
7,99924, Note_off_c,7,64,0,
7,99924, Note_off_c,7,60,0,
7,99924, Note_off_c,7,57,0,
7,99924, Note_off_c,7,53,0,
7,99936, Note_on_c,7,53,90,
7,99936, Note_on_c,7,57,90,
7,99936, Note_on_c,7,60,90,
7,99936, Note_on_c,7,64,90,
7,100068, Note_off_c,7,64,0,
7,100068, Note_off_c,7,60,0,
7,100068, Note_off_c,7,57,0,
7,100068, Note_off_c,7,53,0,
7,100080, Note_on_c,7,64,90,
7,100080, Note_on_c,7,60,90,
7,100080, Note_on_c,7,57,90,
7,100080, Note_on_c,7,53,90,
7,100116, Note_off_c,7,53,0,
7,100116, Note_off_c,7,57,0,
7,100116, Note_off_c,7,60,0,
7,100116, Note_off_c,7,64,0,
7,100128, Note_on_c,7,53,90,
7,100128, Note_on_c,7,57,90,
7,100128, Note_on_c,7,60,90,
7,100128, Note_on_c,7,64,90,
7,100212, Note_off_c,7,64,0,
7,100212, Note_off_c,7,60,0,
7,100212, Note_off_c,7,57,0,
7,100212, Note_off_c,7,53,0,
7,100224, Note_on_c,7,53,90,
7,100224, Note_on_c,7,57,90,
7,100224, Note_on_c,7,60,90,
7,100224, Note_on_c,7,64,90,
7,100308, Note_off_c,7,64,0,
7,100308, Note_off_c,7,60,0,
7,100308, Note_off_c,7,57,0,
7,100308, Note_off_c,7,53,0,
7,100320, Note_on_c,7,64,90,
7,100320, Note_on_c,7,60,90,
7,100320, Note_on_c,7,57,90,
7,100320, Note_on_c,7,53,90,
7,100500, Note_off_c,7,53,0,
7,100500, Note_off_c,7,57,0,
7,100500, Note_off_c,7,60,0,
7,100500, Note_off_c,7,64,0,
7,100512, Note_on_c,7,52,90,
7,100512, Note_on_c,7,57,90,
7,100512, Note_on_c,7,60,90,
7,100512, Note_on_c,7,64,90,
7,100692, Note_off_c,7,64,0,
7,100692, Note_off_c,7,60,0,
7,100692, Note_off_c,7,57,0,
7,100692, Note_off_c,7,52,0,
7,100704, Note_on_c,7,64,90,
7,100704, Note_on_c,7,60,90,
7,100704, Note_on_c,7,57,90,
7,100704, Note_on_c,7,52,90,
7,100836, Note_off_c,7,52,0,
7,100836, Note_off_c,7,57,0,
7,100836, Note_off_c,7,60,0,
7,100836, Note_off_c,7,64,0,
7,100848, Note_on_c,7,52,90,
7,100848, Note_on_c,7,57,90,
7,100848, Note_on_c,7,60,90,
7,100848, Note_on_c,7,64,90,
7,100884, Note_off_c,7,64,0,
7,100884, Note_off_c,7,60,0,
7,100884, Note_off_c,7,57,0,
7,100884, Note_off_c,7,52,0,
7,100896, Note_on_c,7,64,90,
7,100896, Note_on_c,7,60,90,
7,100896, Note_on_c,7,52,90,
7,100896, Note_on_c,7,55,90,
7,100980, Note_off_c,7,55,0,
7,100980, Note_off_c,7,52,0,
7,100980, Note_off_c,7,60,0,
7,100980, Note_off_c,7,64,0,
7,100992, Note_on_c,7,64,90,
7,100992, Note_on_c,7,60,90,
7,100992, Note_on_c,7,55,90,
7,100992, Note_on_c,7,52,90,
7,101076, Note_off_c,7,52,0,
7,101076, Note_off_c,7,55,0,
7,101076, Note_off_c,7,60,0,
7,101076, Note_off_c,7,64,0,
7,101088, Note_on_c,7,64,90,
7,101088, Note_on_c,7,60,90,
7,101088, Note_on_c,7,52,90,
7,101088, Note_on_c,7,55,90,
7,101268, Note_off_c,7,55,0,
7,101268, Note_off_c,7,52,0,
7,101268, Note_off_c,7,60,0,
7,101268, Note_off_c,7,64,0,
7,101280, Note_on_c,7,53,90,
7,101280, Note_on_c,7,57,90,
7,101280, Note_on_c,7,60,90,
7,101280, Note_on_c,7,64,90,
7,101460, Note_off_c,7,64,0,
7,101460, Note_off_c,7,60,0,
7,101460, Note_off_c,7,57,0,
7,101460, Note_off_c,7,53,0,
7,101472, Note_on_c,7,53,90,
7,101472, Note_on_c,7,57,90,
7,101472, Note_on_c,7,60,90,
7,101472, Note_on_c,7,64,90,
7,101604, Note_off_c,7,64,0,
7,101604, Note_off_c,7,60,0,
7,101604, Note_off_c,7,57,0,
7,101604, Note_off_c,7,53,0,
7,101616, Note_on_c,7,64,90,
7,101616, Note_on_c,7,60,90,
7,101616, Note_on_c,7,57,90,
7,101616, Note_on_c,7,53,90,
7,101652, Note_off_c,7,53,0,
7,101652, Note_off_c,7,57,0,
7,101652, Note_off_c,7,60,0,
7,101652, Note_off_c,7,64,0,
7,101664, Note_on_c,7,53,90,
7,101664, Note_on_c,7,57,90,
7,101664, Note_on_c,7,60,90,
7,101664, Note_on_c,7,64,90,
7,101748, Note_off_c,7,64,0,
7,101748, Note_off_c,7,60,0,
7,101748, Note_off_c,7,57,0,
7,101748, Note_off_c,7,53,0,
7,101760, Note_on_c,7,53,90,
7,101760, Note_on_c,7,57,90,
7,101760, Note_on_c,7,60,90,
7,101760, Note_on_c,7,64,90,
7,101844, Note_off_c,7,64,0,
7,101844, Note_off_c,7,60,0,
7,101844, Note_off_c,7,57,0,
7,101844, Note_off_c,7,53,0,
7,101856, Note_on_c,7,64,90,
7,101856, Note_on_c,7,60,90,
7,101856, Note_on_c,7,57,90,
7,101856, Note_on_c,7,53,90,
7,102036, Note_off_c,7,53,0,
7,102036, Note_off_c,7,57,0,
7,102036, Note_off_c,7,60,0,
7,102036, Note_off_c,7,64,0,
7,102048, Note_on_c,7,57,90,
7,102048, Note_on_c,7,60,90,
7,102048, Note_on_c,7,64,90,
7,102048, Note_on_c,7,52,90,
7,102228, Note_off_c,7,52,0,
7,102228, Note_off_c,7,64,0,
7,102228, Note_off_c,7,60,0,
7,102228, Note_off_c,7,57,0,
7,102240, Note_on_c,7,57,90,
7,102240, Note_on_c,7,60,90,
7,102240, Note_on_c,7,64,90,
7,102240, Note_on_c,7,52,90,
7,102420, Note_off_c,7,52,0,
7,102420, Note_off_c,7,64,0,
7,102420, Note_off_c,7,60,0,
7,102420, Note_off_c,7,57,0,
7,102432, Note_on_c,7,60,90,
7,102432, Note_on_c,7,64,90,
7,102432, Note_on_c,7,52,90,
7,102432, Note_on_c,7,55,90,
7,102612, Note_off_c,7,55,0,
7,102612, Note_off_c,7,52,0,
7,102612, Note_off_c,7,64,0,
7,102612, Note_off_c,7,60,0,
7,102624, Note_on_c,7,64,90,
7,102624, Note_on_c,7,60,90,
7,102624, Note_on_c,7,52,90,
7,102624, Note_on_c,7,55,90,
7,102804, Note_off_c,7,55,0,
7,102804, Note_off_c,7,52,0,
7,102804, Note_off_c,7,60,0,
7,102804, Note_off_c,7,64,0,
7,102816, Note_on_c,7,53,90,
7,102816, Note_on_c,7,57,90,
7,102816, Note_on_c,7,60,90,
7,102816, Note_on_c,7,64,90,
7,102996, Note_off_c,7,64,0,
7,102996, Note_off_c,7,60,0,
7,102996, Note_off_c,7,57,0,
7,102996, Note_off_c,7,53,0,
7,103008, Note_on_c,7,53,90,
7,103008, Note_on_c,7,57,90,
7,103008, Note_on_c,7,60,90,
7,103008, Note_on_c,7,64,90,
7,103140, Note_off_c,7,64,0,
7,103140, Note_off_c,7,60,0,
7,103140, Note_off_c,7,57,0,
7,103140, Note_off_c,7,53,0,
7,103152, Note_on_c,7,64,90,
7,103152, Note_on_c,7,60,90,
7,103152, Note_on_c,7,57,90,
7,103152, Note_on_c,7,53,90,
7,103188, Note_off_c,7,53,0,
7,103188, Note_off_c,7,57,0,
7,103188, Note_off_c,7,60,0,
7,103188, Note_off_c,7,64,0,
7,103200, Note_on_c,7,53,90,
7,103200, Note_on_c,7,57,90,
7,103200, Note_on_c,7,60,90,
7,103200, Note_on_c,7,64,90,
7,103380, Note_off_c,7,64,0,
7,103380, Note_off_c,7,60,0,
7,103380, Note_off_c,7,57,0,
7,103380, Note_off_c,7,53,0,
7,103392, Note_on_c,7,64,90,
7,103392, Note_on_c,7,60,90,
7,103392, Note_on_c,7,57,90,
7,103392, Note_on_c,7,53,90,
7,103572, Note_off_c,7,53,0,
7,103572, Note_off_c,7,57,0,
7,103572, Note_off_c,7,60,0,
7,103572, Note_off_c,7,64,0,
7,103584, Note_on_c,7,57,90,
7,103584, Note_on_c,7,60,90,
7,103584, Note_on_c,7,64,90,
7,103584, Note_on_c,7,52,90,
7,103764, Note_off_c,7,52,0,
7,103764, Note_off_c,7,64,0,
7,103764, Note_off_c,7,60,0,
7,103764, Note_off_c,7,57,0,
7,103776, Note_on_c,7,57,90,
7,103776, Note_on_c,7,60,90,
7,103776, Note_on_c,7,64,90,
7,103776, Note_on_c,7,52,90,
7,103956, Note_off_c,7,52,0,
7,103956, Note_off_c,7,64,0,
7,103956, Note_off_c,7,60,0,
7,103956, Note_off_c,7,57,0,
7,103968, Note_on_c,7,60,90,
7,103968, Note_on_c,7,64,90,
7,103968, Note_on_c,7,52,90,
7,103968, Note_on_c,7,55,90,
7,104148, Note_off_c,7,55,0,
7,104148, Note_off_c,7,52,0,
7,104148, Note_off_c,7,64,0,
7,104148, Note_off_c,7,60,0,
7,104160, Note_on_c,7,64,90,
7,104160, Note_on_c,7,60,90,
7,104160, Note_on_c,7,52,90,
7,104160, Note_on_c,7,55,90,
7,104340, Note_off_c,7,55,0,
7,104340, Note_off_c,7,52,0,
7,104340, Note_off_c,7,60,0,
7,104340, Note_off_c,7,64,0,
7,104352, Note_on_c,7,53,90,
7,104352, Note_on_c,7,57,90,
7,104352, Note_on_c,7,60,90,
7,104352, Note_on_c,7,64,90,
7,104532, Note_off_c,7,64,0,
7,104532, Note_off_c,7,60,0,
7,104532, Note_off_c,7,57,0,
7,104532, Note_off_c,7,53,0,
7,104544, Note_on_c,7,53,90,
7,104544, Note_on_c,7,57,90,
7,104544, Note_on_c,7,60,90,
7,104544, Note_on_c,7,64,90,
7,104676, Note_off_c,7,64,0,
7,104676, Note_off_c,7,60,0,
7,104676, Note_off_c,7,57,0,
7,104676, Note_off_c,7,53,0,
7,104688, Note_on_c,7,64,90,
7,104688, Note_on_c,7,60,90,
7,104688, Note_on_c,7,57,90,
7,104688, Note_on_c,7,53,90,
7,104724, Note_off_c,7,53,0,
7,104724, Note_off_c,7,57,0,
7,104724, Note_off_c,7,60,0,
7,104724, Note_off_c,7,64,0,
7,104736, Note_on_c,7,53,90,
7,104736, Note_on_c,7,57,90,
7,104736, Note_on_c,7,60,90,
7,104736, Note_on_c,7,64,90,
7,104916, Note_off_c,7,64,0,
7,104916, Note_off_c,7,60,0,
7,104916, Note_off_c,7,57,0,
7,104916, Note_off_c,7,53,0,
7,104928, Note_on_c,7,64,90,
7,104928, Note_on_c,7,60,90,
7,104928, Note_on_c,7,57,90,
7,104928, Note_on_c,7,53,90,
7,105108, Note_off_c,7,53,0,
7,105108, Note_off_c,7,57,0,
7,105108, Note_off_c,7,60,0,
7,105108, Note_off_c,7,64,0,
7,105120, Note_on_c,7,45,110,
7,105120, Note_on_c,7,52,110,
7,105120, Note_on_c,7,57,110,
7,105120, Note_on_c,7,60,110,
7,105120, Note_on_c,7,64,110,
7,105120, Note_on_c,7,69,110,
7,105216, Note_off_c,7,69,0,
7,105216, Note_off_c,7,60,0,
7,105216, Note_off_c,7,57,0,
7,105216, Note_off_c,7,52,0,
7,105216, Note_off_c,7,45,0,
7,105216, Note_on_c,7,45,110,
7,105216, Note_on_c,7,52,110,
7,105216, Note_on_c,7,57,110,
7,105216, Note_on_c,7,60,110,
7,105216, Note_on_c,7,64,110,
7,105216, Note_on_c,7,69,110,
7,105217, Note_off_c,7,64,0,
7,105312, Note_off_c,7,60,0,
7,105312, Note_off_c,7,57,0,
7,105312, Note_off_c,7,52,0,
7,105312, Note_off_c,7,64,0,
7,105312, Note_off_c,7,45,0,
7,105312, Note_off_c,7,69,0,
7,105504, Note_on_c,7,43,110,
7,105504, Note_on_c,7,50,110,
7,105504, Note_on_c,7,67,110,
7,105504, Note_on_c,7,62,110,
7,105504, Note_on_c,7,59,110,
7,105504, Note_on_c,7,55,110,
7,105600, Note_off_c,7,55,0,
7,105600, Note_off_c,7,62,0,
7,105600, Note_off_c,7,67,0,
7,105600, Note_off_c,7,43,0,
7,105600, Note_on_c,7,43,110,
7,105600, Note_on_c,7,50,110,
7,105600, Note_on_c,7,55,110,
7,105600, Note_on_c,7,59,110,
7,105600, Note_on_c,7,62,110,
7,105600, Note_on_c,7,67,110,
7,105601, Note_off_c,7,59,0,
7,105601, Note_off_c,7,50,0,
7,105696, Note_off_c,7,50,0,
7,105696, Note_off_c,7,59,0,
7,105696, Note_off_c,7,43,0,
7,105696, Note_off_c,7,55,0,
7,105696, Note_off_c,7,62,0,
7,105696, Note_off_c,7,67,0,
7,105888, Note_on_c,7,48,110,
7,105888, Note_on_c,7,41,110,
7,105888, Note_on_c,7,53,110,
7,105888, Note_on_c,7,57,110,
7,105888, Note_on_c,7,60,110,
7,105888, Note_on_c,7,65,110,
7,105984, Note_off_c,7,65,0,
7,105984, Note_off_c,7,60,0,
7,105984, Note_off_c,7,57,0,
7,105984, Note_off_c,7,53,0,
7,105984, Note_off_c,7,41,0,
7,105984, Note_off_c,7,48,0,
7,106032, Note_on_c,7,65,110,
7,106032, Note_on_c,7,60,110,
7,106032, Note_on_c,7,57,110,
7,106032, Note_on_c,7,53,110,
7,106032, Note_on_c,7,48,110,
7,106032, Note_on_c,7,41,110,
7,106080, Note_off_c,7,41,0,
7,106080, Note_off_c,7,48,0,
7,106080, Note_off_c,7,53,0,
7,106080, Note_off_c,7,57,0,
7,106080, Note_off_c,7,60,0,
7,106080, Note_off_c,7,65,0,
7,106176, Note_on_c,7,65,110,
7,106176, Note_on_c,7,60,110,
7,106176, Note_on_c,7,57,110,
7,106176, Note_on_c,7,53,110,
7,106176, Note_on_c,7,48,110,
7,106176, Note_on_c,7,41,110,
7,106224, Note_off_c,7,41,0,
7,106224, Note_off_c,7,48,0,
7,106224, Note_off_c,7,53,0,
7,106224, Note_off_c,7,57,0,
7,106224, Note_off_c,7,60,0,
7,106224, Note_off_c,7,65,0,
7,106320, Note_on_c,7,65,110,
7,106320, Note_on_c,7,60,110,
7,106320, Note_on_c,7,57,110,
7,106320, Note_on_c,7,53,110,
7,106320, Note_on_c,7,48,110,
7,106320, Note_on_c,7,41,110,
7,106368, Note_off_c,7,41,0,
7,106368, Note_off_c,7,48,0,
7,106368, Note_off_c,7,53,0,
7,106368, Note_off_c,7,57,0,
7,106368, Note_off_c,7,60,0,
7,106368, Note_off_c,7,65,0,
7,106464, Note_on_c,7,65,110,
7,106464, Note_on_c,7,60,110,
7,106464, Note_on_c,7,57,110,
7,106464, Note_on_c,7,53,110,
7,106464, Note_on_c,7,48,110,
7,106464, Note_on_c,7,41,110,
7,106560, Note_off_c,7,41,0,
7,106560, Note_off_c,7,48,0,
7,106560, Note_off_c,7,53,0,
7,106560, Note_off_c,7,57,0,
7,106560, Note_off_c,7,60,0,
7,106560, Note_off_c,7,65,0,
7,106560, Note_on_c,7,43,110,
7,106560, Note_on_c,7,50,110,
7,106560, Note_on_c,7,55,110,
7,106560, Note_on_c,7,59,110,
7,106560, Note_on_c,7,62,110,
7,106560, Note_on_c,7,67,110,
7,106656, Note_off_c,7,67,0,
7,106656, Note_off_c,7,62,0,
7,106656, Note_off_c,7,59,0,
7,106656, Note_off_c,7,55,0,
7,106656, Note_off_c,7,50,0,
7,106656, Note_off_c,7,43,0,
7,106656, Note_on_c,7,45,110,
7,106656, Note_on_c,7,52,110,
7,106656, Note_on_c,7,57,110,
7,106656, Note_on_c,7,60,110,
7,106656, Note_on_c,7,64,110,
7,106656, Note_on_c,7,69,110,
7,106752, Note_off_c,7,69,0,
7,106752, Note_off_c,7,64,0,
7,106752, Note_off_c,7,60,0,
7,106752, Note_off_c,7,52,0,
7,106752, Note_off_c,7,45,0,
7,106752, Note_on_c,7,45,110,
7,106752, Note_on_c,7,52,110,
7,106752, Note_on_c,7,57,110,
7,106752, Note_on_c,7,60,110,
7,106752, Note_on_c,7,64,110,
7,106752, Note_on_c,7,69,110,
7,106753, Note_off_c,7,57,0,
7,106848, Note_off_c,7,52,0,
7,106848, Note_off_c,7,57,0,
7,106848, Note_off_c,7,45,0,
7,106848, Note_off_c,7,60,0,
7,106848, Note_off_c,7,64,0,
7,106848, Note_off_c,7,69,0,
7,107040, Note_on_c,7,43,110,
7,107040, Note_on_c,7,50,110,
7,107040, Note_on_c,7,67,110,
7,107040, Note_on_c,7,62,110,
7,107040, Note_on_c,7,59,110,
7,107040, Note_on_c,7,55,110,
7,107136, Note_off_c,7,55,0,
7,107136, Note_off_c,7,62,0,
7,107136, Note_off_c,7,67,0,
7,107136, Note_off_c,7,43,0,
7,107136, Note_on_c,7,43,110,
7,107136, Note_on_c,7,50,110,
7,107136, Note_on_c,7,55,110,
7,107136, Note_on_c,7,59,110,
7,107136, Note_on_c,7,62,110,
7,107136, Note_on_c,7,67,110,
7,107137, Note_off_c,7,59,0,
7,107137, Note_off_c,7,50,0,
7,107232, Note_off_c,7,50,0,
7,107232, Note_off_c,7,59,0,
7,107232, Note_off_c,7,43,0,
7,107232, Note_off_c,7,55,0,
7,107232, Note_off_c,7,62,0,
7,107232, Note_off_c,7,67,0,
7,107424, Note_on_c,7,48,110,
7,107424, Note_on_c,7,41,110,
7,107424, Note_on_c,7,53,110,
7,107424, Note_on_c,7,57,110,
7,107424, Note_on_c,7,60,110,
7,107424, Note_on_c,7,65,110,
7,107520, Note_off_c,7,65,0,
7,107520, Note_off_c,7,60,0,
7,107520, Note_off_c,7,57,0,
7,107520, Note_off_c,7,53,0,
7,107520, Note_off_c,7,41,0,
7,107520, Note_off_c,7,48,0,
7,107568, Note_on_c,7,65,110,
7,107568, Note_on_c,7,60,110,
7,107568, Note_on_c,7,57,110,
7,107568, Note_on_c,7,53,110,
7,107568, Note_on_c,7,48,110,
7,107568, Note_on_c,7,41,110,
7,107616, Note_off_c,7,41,0,
7,107616, Note_off_c,7,48,0,
7,107616, Note_off_c,7,53,0,
7,107616, Note_off_c,7,57,0,
7,107616, Note_off_c,7,60,0,
7,107616, Note_off_c,7,65,0,
7,107712, Note_on_c,7,65,110,
7,107712, Note_on_c,7,60,110,
7,107712, Note_on_c,7,57,110,
7,107712, Note_on_c,7,53,110,
7,107712, Note_on_c,7,48,110,
7,107712, Note_on_c,7,41,110,
7,107760, Note_off_c,7,41,0,
7,107760, Note_off_c,7,48,0,
7,107760, Note_off_c,7,53,0,
7,107760, Note_off_c,7,57,0,
7,107760, Note_off_c,7,60,0,
7,107760, Note_off_c,7,65,0,
7,107856, Note_on_c,7,65,110,
7,107856, Note_on_c,7,60,110,
7,107856, Note_on_c,7,57,110,
7,107856, Note_on_c,7,53,110,
7,107856, Note_on_c,7,48,110,
7,107856, Note_on_c,7,41,110,
7,107904, Note_off_c,7,41,0,
7,107904, Note_off_c,7,48,0,
7,107904, Note_off_c,7,53,0,
7,107904, Note_off_c,7,57,0,
7,107904, Note_off_c,7,60,0,
7,107904, Note_off_c,7,65,0,
7,108000, Note_on_c,7,65,110,
7,108000, Note_on_c,7,60,110,
7,108000, Note_on_c,7,57,110,
7,108000, Note_on_c,7,53,110,
7,108000, Note_on_c,7,48,110,
7,108000, Note_on_c,7,41,110,
7,108096, Note_off_c,7,41,0,
7,108096, Note_off_c,7,48,0,
7,108096, Note_off_c,7,53,0,
7,108096, Note_off_c,7,57,0,
7,108096, Note_off_c,7,60,0,
7,108096, Note_off_c,7,65,0,
7,108096, Note_on_c,7,43,110,
7,108096, Note_on_c,7,50,110,
7,108096, Note_on_c,7,55,110,
7,108096, Note_on_c,7,59,110,
7,108096, Note_on_c,7,62,110,
7,108096, Note_on_c,7,67,110,
7,108192, Note_off_c,7,67,0,
7,108192, Note_off_c,7,62,0,
7,108192, Note_off_c,7,59,0,
7,108192, Note_off_c,7,55,0,
7,108192, Note_off_c,7,50,0,
7,108192, Note_off_c,7,43,0,
7,108192, Note_on_c,7,45,110,
7,108192, Note_on_c,7,52,110,
7,108192, Note_on_c,7,57,110,
7,108192, Note_on_c,7,60,110,
7,108192, Note_on_c,7,64,110,
7,108192, Note_on_c,7,69,110,
7,108288, Note_off_c,7,69,0,
7,108288, Note_off_c,7,64,0,
7,108288, Note_off_c,7,60,0,
7,108288, Note_off_c,7,52,0,
7,108288, Note_off_c,7,45,0,
7,108288, Note_on_c,7,45,110,
7,108288, Note_on_c,7,52,110,
7,108288, Note_on_c,7,57,110,
7,108288, Note_on_c,7,60,110,
7,108288, Note_on_c,7,64,110,
7,108288, Note_on_c,7,69,110,
7,108289, Note_off_c,7,57,0,
7,108384, Note_off_c,7,52,0,
7,108384, Note_off_c,7,57,0,
7,108384, Note_off_c,7,45,0,
7,108384, Note_off_c,7,60,0,
7,108384, Note_off_c,7,64,0,
7,108384, Note_off_c,7,69,0,
7,108576, Note_on_c,7,43,110,
7,108576, Note_on_c,7,50,110,
7,108576, Note_on_c,7,67,110,
7,108576, Note_on_c,7,62,110,
7,108576, Note_on_c,7,59,110,
7,108576, Note_on_c,7,55,110,
7,108672, Note_off_c,7,55,0,
7,108672, Note_off_c,7,62,0,
7,108672, Note_off_c,7,67,0,
7,108672, Note_off_c,7,43,0,
7,108672, Note_on_c,7,43,110,
7,108672, Note_on_c,7,50,110,
7,108672, Note_on_c,7,55,110,
7,108672, Note_on_c,7,59,110,
7,108672, Note_on_c,7,62,110,
7,108672, Note_on_c,7,67,110,
7,108673, Note_off_c,7,59,0,
7,108673, Note_off_c,7,50,0,
7,108768, Note_off_c,7,50,0,
7,108768, Note_off_c,7,59,0,
7,108768, Note_off_c,7,43,0,
7,108768, Note_off_c,7,55,0,
7,108768, Note_off_c,7,62,0,
7,108768, Note_off_c,7,67,0,
7,108960, Note_on_c,7,48,110,
7,108960, Note_on_c,7,41,110,
7,108960, Note_on_c,7,53,110,
7,108960, Note_on_c,7,57,110,
7,108960, Note_on_c,7,60,110,
7,108960, Note_on_c,7,65,110,
7,109056, Note_off_c,7,65,0,
7,109056, Note_off_c,7,60,0,
7,109056, Note_off_c,7,57,0,
7,109056, Note_off_c,7,53,0,
7,109056, Note_off_c,7,41,0,
7,109056, Note_off_c,7,48,0,
7,109104, Note_on_c,7,65,110,
7,109104, Note_on_c,7,60,110,
7,109104, Note_on_c,7,57,110,
7,109104, Note_on_c,7,53,110,
7,109104, Note_on_c,7,48,110,
7,109104, Note_on_c,7,41,110,
7,109152, Note_off_c,7,41,0,
7,109152, Note_off_c,7,48,0,
7,109152, Note_off_c,7,53,0,
7,109152, Note_off_c,7,57,0,
7,109152, Note_off_c,7,60,0,
7,109152, Note_off_c,7,65,0,
7,109248, Note_on_c,7,65,110,
7,109248, Note_on_c,7,60,110,
7,109248, Note_on_c,7,57,110,
7,109248, Note_on_c,7,53,110,
7,109248, Note_on_c,7,48,110,
7,109248, Note_on_c,7,41,110,
7,109296, Note_off_c,7,41,0,
7,109296, Note_off_c,7,48,0,
7,109296, Note_off_c,7,53,0,
7,109296, Note_off_c,7,57,0,
7,109296, Note_off_c,7,60,0,
7,109296, Note_off_c,7,65,0,
7,109392, Note_on_c,7,65,110,
7,109392, Note_on_c,7,60,110,
7,109392, Note_on_c,7,57,110,
7,109392, Note_on_c,7,53,110,
7,109392, Note_on_c,7,48,110,
7,109392, Note_on_c,7,41,110,
7,109440, Note_off_c,7,41,0,
7,109440, Note_off_c,7,48,0,
7,109440, Note_off_c,7,53,0,
7,109440, Note_off_c,7,57,0,
7,109440, Note_off_c,7,60,0,
7,109440, Note_off_c,7,65,0,
7,109536, Note_on_c,7,65,110,
7,109536, Note_on_c,7,60,110,
7,109536, Note_on_c,7,57,110,
7,109536, Note_on_c,7,53,110,
7,109536, Note_on_c,7,48,110,
7,109536, Note_on_c,7,41,110,
7,109632, Note_off_c,7,41,0,
7,109632, Note_off_c,7,48,0,
7,109632, Note_off_c,7,53,0,
7,109632, Note_off_c,7,57,0,
7,109632, Note_off_c,7,60,0,
7,109632, Note_off_c,7,65,0,
7,109632, Note_on_c,7,43,110,
7,109632, Note_on_c,7,50,110,
7,109632, Note_on_c,7,55,110,
7,109632, Note_on_c,7,59,110,
7,109632, Note_on_c,7,62,110,
7,109632, Note_on_c,7,67,110,
7,109728, Note_off_c,7,67,0,
7,109728, Note_off_c,7,62,0,
7,109728, Note_off_c,7,59,0,
7,109728, Note_off_c,7,55,0,
7,109728, Note_off_c,7,50,0,
7,109728, Note_off_c,7,43,0,
7,109728, Note_on_c,7,45,110,
7,109728, Note_on_c,7,52,110,
7,109728, Note_on_c,7,57,110,
7,109728, Note_on_c,7,60,110,
7,109728, Note_on_c,7,64,110,
7,109728, Note_on_c,7,69,110,
7,109824, Note_off_c,7,69,0,
7,109824, Note_off_c,7,64,0,
7,109824, Note_off_c,7,60,0,
7,109824, Note_off_c,7,52,0,
7,109824, Note_off_c,7,45,0,
7,109824, Note_on_c,7,45,110,
7,109824, Note_on_c,7,52,110,
7,109824, Note_on_c,7,57,110,
7,109824, Note_on_c,7,60,110,
7,109824, Note_on_c,7,64,110,
7,109824, Note_on_c,7,69,110,
7,109825, Note_off_c,7,57,0,
7,109920, Note_off_c,7,52,0,
7,109920, Note_off_c,7,57,0,
7,109920, Note_off_c,7,45,0,
7,109920, Note_off_c,7,60,0,
7,109920, Note_off_c,7,64,0,
7,109920, Note_off_c,7,69,0,
7,110112, Note_on_c,7,43,110,
7,110112, Note_on_c,7,50,110,
7,110112, Note_on_c,7,67,110,
7,110112, Note_on_c,7,62,110,
7,110112, Note_on_c,7,59,110,
7,110112, Note_on_c,7,55,110,
7,110208, Note_off_c,7,55,0,
7,110208, Note_off_c,7,62,0,
7,110208, Note_off_c,7,67,0,
7,110208, Note_off_c,7,43,0,
7,110208, Note_on_c,7,43,110,
7,110208, Note_on_c,7,50,110,
7,110208, Note_on_c,7,55,110,
7,110208, Note_on_c,7,59,110,
7,110208, Note_on_c,7,62,110,
7,110208, Note_on_c,7,67,110,
7,110209, Note_off_c,7,59,0,
7,110209, Note_off_c,7,50,0,
7,110304, Note_off_c,7,50,0,
7,110304, Note_off_c,7,59,0,
7,110304, Note_off_c,7,43,0,
7,110304, Note_off_c,7,55,0,
7,110304, Note_off_c,7,62,0,
7,110304, Note_off_c,7,67,0,
7,110496, Note_on_c,7,48,110,
7,110496, Note_on_c,7,41,110,
7,110496, Note_on_c,7,53,110,
7,110496, Note_on_c,7,57,110,
7,110496, Note_on_c,7,60,110,
7,110496, Note_on_c,7,65,110,
7,110592, Note_off_c,7,65,0,
7,110592, Note_off_c,7,60,0,
7,110592, Note_off_c,7,57,0,
7,110592, Note_off_c,7,53,0,
7,110592, Note_off_c,7,41,0,
7,110592, Note_off_c,7,48,0,
7,110640, Note_on_c,7,65,110,
7,110640, Note_on_c,7,60,110,
7,110640, Note_on_c,7,57,110,
7,110640, Note_on_c,7,53,110,
7,110640, Note_on_c,7,48,110,
7,110640, Note_on_c,7,41,110,
7,110688, Note_off_c,7,41,0,
7,110688, Note_off_c,7,48,0,
7,110688, Note_off_c,7,53,0,
7,110688, Note_off_c,7,57,0,
7,110688, Note_off_c,7,60,0,
7,110688, Note_off_c,7,65,0,
7,110784, Note_on_c,7,65,110,
7,110784, Note_on_c,7,60,110,
7,110784, Note_on_c,7,57,110,
7,110784, Note_on_c,7,53,110,
7,110784, Note_on_c,7,48,110,
7,110784, Note_on_c,7,41,110,
7,110832, Note_off_c,7,41,0,
7,110832, Note_off_c,7,48,0,
7,110832, Note_off_c,7,53,0,
7,110832, Note_off_c,7,57,0,
7,110832, Note_off_c,7,60,0,
7,110832, Note_off_c,7,65,0,
7,110928, Note_on_c,7,65,110,
7,110928, Note_on_c,7,60,110,
7,110928, Note_on_c,7,57,110,
7,110928, Note_on_c,7,53,110,
7,110928, Note_on_c,7,48,110,
7,110928, Note_on_c,7,41,110,
7,110976, Note_off_c,7,41,0,
7,110976, Note_off_c,7,48,0,
7,110976, Note_off_c,7,53,0,
7,110976, Note_off_c,7,57,0,
7,110976, Note_off_c,7,60,0,
7,110976, Note_off_c,7,65,0,
7,111072, Note_on_c,7,65,110,
7,111072, Note_on_c,7,60,110,
7,111072, Note_on_c,7,57,110,
7,111072, Note_on_c,7,53,110,
7,111072, Note_on_c,7,48,110,
7,111072, Note_on_c,7,41,110,
7,111168, Note_off_c,7,41,0,
7,111168, Note_off_c,7,48,0,
7,111168, Note_off_c,7,53,0,
7,111168, Note_off_c,7,57,0,
7,111168, Note_off_c,7,60,0,
7,111168, Note_off_c,7,65,0,
7,111168, Note_on_c,7,43,110,
7,111168, Note_on_c,7,50,110,
7,111168, Note_on_c,7,55,110,
7,111168, Note_on_c,7,59,110,
7,111168, Note_on_c,7,62,110,
7,111168, Note_on_c,7,67,110,
7,111264, Note_off_c,7,67,0,
7,111264, Note_off_c,7,62,0,
7,111264, Note_off_c,7,59,0,
7,111264, Note_off_c,7,55,0,
7,111264, Note_off_c,7,50,0,
7,111264, Note_off_c,7,43,0,
7,111264, Note_on_c,7,45,110,
7,111264, Note_on_c,7,52,110,
7,111264, Note_on_c,7,57,110,
7,111264, Note_on_c,7,60,110,
7,111264, Note_on_c,7,64,110,
7,111264, Note_on_c,7,69,110,
7,111360, Note_off_c,7,69,0,
7,111360, Note_off_c,7,64,0,
7,111360, Note_off_c,7,60,0,
7,111360, Note_off_c,7,52,0,
7,111360, Note_off_c,7,45,0,
7,111360, Note_on_c,7,45,110,
7,111360, Note_on_c,7,52,110,
7,111360, Note_on_c,7,57,110,
7,111360, Note_on_c,7,60,110,
7,111360, Note_on_c,7,64,110,
7,111360, Note_on_c,7,69,110,
7,111361, Note_off_c,7,57,0,
7,111456, Note_off_c,7,52,0,
7,111456, Note_off_c,7,57,0,
7,111456, Note_off_c,7,45,0,
7,111456, Note_off_c,7,60,0,
7,111456, Note_off_c,7,64,0,
7,111456, Note_off_c,7,69,0,
7,111648, Note_on_c,7,43,110,
7,111648, Note_on_c,7,50,110,
7,111648, Note_on_c,7,67,110,
7,111648, Note_on_c,7,62,110,
7,111648, Note_on_c,7,59,110,
7,111648, Note_on_c,7,55,110,
7,111744, Note_off_c,7,55,0,
7,111744, Note_off_c,7,62,0,
7,111744, Note_off_c,7,67,0,
7,111744, Note_off_c,7,43,0,
7,111744, Note_on_c,7,43,110,
7,111744, Note_on_c,7,50,110,
7,111744, Note_on_c,7,55,110,
7,111744, Note_on_c,7,59,110,
7,111744, Note_on_c,7,62,110,
7,111744, Note_on_c,7,67,110,
7,111745, Note_off_c,7,59,0,
7,111745, Note_off_c,7,50,0,
7,111840, Note_off_c,7,50,0,
7,111840, Note_off_c,7,59,0,
7,111840, Note_off_c,7,43,0,
7,111840, Note_off_c,7,55,0,
7,111840, Note_off_c,7,62,0,
7,111840, Note_off_c,7,67,0,
7,112032, Note_on_c,7,48,110,
7,112032, Note_on_c,7,41,110,
7,112032, Note_on_c,7,53,110,
7,112032, Note_on_c,7,57,110,
7,112032, Note_on_c,7,60,110,
7,112032, Note_on_c,7,65,110,
7,112128, Note_off_c,7,65,0,
7,112128, Note_off_c,7,60,0,
7,112128, Note_off_c,7,57,0,
7,112128, Note_off_c,7,53,0,
7,112128, Note_off_c,7,41,0,
7,112128, Note_off_c,7,48,0,
7,112176, Note_on_c,7,65,110,
7,112176, Note_on_c,7,60,110,
7,112176, Note_on_c,7,57,110,
7,112176, Note_on_c,7,53,110,
7,112176, Note_on_c,7,48,110,
7,112176, Note_on_c,7,41,110,
7,112224, Note_off_c,7,41,0,
7,112224, Note_off_c,7,48,0,
7,112224, Note_off_c,7,53,0,
7,112224, Note_off_c,7,57,0,
7,112224, Note_off_c,7,60,0,
7,112224, Note_off_c,7,65,0,
7,112320, Note_on_c,7,65,110,
7,112320, Note_on_c,7,60,110,
7,112320, Note_on_c,7,57,110,
7,112320, Note_on_c,7,53,110,
7,112320, Note_on_c,7,48,110,
7,112320, Note_on_c,7,41,110,
7,112368, Note_off_c,7,41,0,
7,112368, Note_off_c,7,48,0,
7,112368, Note_off_c,7,53,0,
7,112368, Note_off_c,7,57,0,
7,112368, Note_off_c,7,60,0,
7,112368, Note_off_c,7,65,0,
7,112464, Note_on_c,7,65,110,
7,112464, Note_on_c,7,60,110,
7,112464, Note_on_c,7,57,110,
7,112464, Note_on_c,7,53,110,
7,112464, Note_on_c,7,48,110,
7,112464, Note_on_c,7,41,110,
7,112512, Note_off_c,7,41,0,
7,112512, Note_off_c,7,48,0,
7,112512, Note_off_c,7,53,0,
7,112512, Note_off_c,7,57,0,
7,112512, Note_off_c,7,60,0,
7,112512, Note_off_c,7,65,0,
7,112608, Note_on_c,7,65,110,
7,112608, Note_on_c,7,60,110,
7,112608, Note_on_c,7,57,110,
7,112608, Note_on_c,7,53,110,
7,112608, Note_on_c,7,48,110,
7,112608, Note_on_c,7,41,110,
7,112704, Note_off_c,7,41,0,
7,112704, Note_off_c,7,48,0,
7,112704, Note_off_c,7,53,0,
7,112704, Note_off_c,7,57,0,
7,112704, Note_off_c,7,60,0,
7,112704, Note_off_c,7,65,0,
7,112704, Note_on_c,7,43,110,
7,112704, Note_on_c,7,50,110,
7,112704, Note_on_c,7,55,110,
7,112704, Note_on_c,7,59,110,
7,112704, Note_on_c,7,62,110,
7,112704, Note_on_c,7,67,110,
7,112800, Note_off_c,7,67,0,
7,112800, Note_off_c,7,62,0,
7,112800, Note_off_c,7,59,0,
7,112800, Note_off_c,7,55,0,
7,112800, Note_off_c,7,50,0,
7,112800, Note_off_c,7,43,0,
7,112800, Note_on_c,7,45,110,
7,112800, Note_on_c,7,52,110,
7,112800, Note_on_c,7,57,110,
7,112800, Note_on_c,7,60,110,
7,112800, Note_on_c,7,64,110,
7,112800, Note_on_c,7,69,110,
7,112896, Note_off_c,7,69,0,
7,112896, Note_off_c,7,64,0,
7,112896, Note_off_c,7,60,0,
7,112896, Note_off_c,7,52,0,
7,112896, Note_off_c,7,45,0,
7,112896, Note_on_c,7,45,110,
7,112896, Note_on_c,7,52,110,
7,112896, Note_on_c,7,57,110,
7,112896, Note_on_c,7,60,110,
7,112896, Note_on_c,7,64,110,
7,112896, Note_on_c,7,69,110,
7,112897, Note_off_c,7,57,0,
7,112992, Note_off_c,7,52,0,
7,112992, Note_off_c,7,57,0,
7,112992, Note_off_c,7,45,0,
7,112992, Note_off_c,7,60,0,
7,112992, Note_off_c,7,64,0,
7,112992, Note_off_c,7,69,0,
7,113184, Note_on_c,7,43,110,
7,113184, Note_on_c,7,50,110,
7,113184, Note_on_c,7,67,110,
7,113184, Note_on_c,7,62,110,
7,113184, Note_on_c,7,59,110,
7,113184, Note_on_c,7,55,110,
7,113280, Note_off_c,7,55,0,
7,113280, Note_off_c,7,62,0,
7,113280, Note_off_c,7,67,0,
7,113280, Note_off_c,7,43,0,
7,113280, Note_on_c,7,43,110,
7,113280, Note_on_c,7,50,110,
7,113280, Note_on_c,7,55,110,
7,113280, Note_on_c,7,59,110,
7,113280, Note_on_c,7,62,110,
7,113280, Note_on_c,7,67,110,
7,113281, Note_off_c,7,59,0,
7,113281, Note_off_c,7,50,0,
7,113376, Note_off_c,7,50,0,
7,113376, Note_off_c,7,59,0,
7,113376, Note_off_c,7,43,0,
7,113376, Note_off_c,7,55,0,
7,113376, Note_off_c,7,62,0,
7,113376, Note_off_c,7,67,0,
7,113568, Note_on_c,7,48,110,
7,113568, Note_on_c,7,41,110,
7,113568, Note_on_c,7,53,110,
7,113568, Note_on_c,7,57,110,
7,113568, Note_on_c,7,60,110,
7,113568, Note_on_c,7,65,110,
7,113664, Note_off_c,7,65,0,
7,113664, Note_off_c,7,60,0,
7,113664, Note_off_c,7,57,0,
7,113664, Note_off_c,7,53,0,
7,113664, Note_off_c,7,41,0,
7,113664, Note_off_c,7,48,0,
7,113712, Note_on_c,7,65,110,
7,113712, Note_on_c,7,60,110,
7,113712, Note_on_c,7,57,110,
7,113712, Note_on_c,7,53,110,
7,113712, Note_on_c,7,48,110,
7,113712, Note_on_c,7,41,110,
7,113760, Note_off_c,7,41,0,
7,113760, Note_off_c,7,48,0,
7,113760, Note_off_c,7,53,0,
7,113760, Note_off_c,7,57,0,
7,113760, Note_off_c,7,60,0,
7,113760, Note_off_c,7,65,0,
7,113856, Note_on_c,7,65,110,
7,113856, Note_on_c,7,60,110,
7,113856, Note_on_c,7,57,110,
7,113856, Note_on_c,7,53,110,
7,113856, Note_on_c,7,48,110,
7,113856, Note_on_c,7,41,110,
7,113904, Note_off_c,7,41,0,
7,113904, Note_off_c,7,48,0,
7,113904, Note_off_c,7,53,0,
7,113904, Note_off_c,7,57,0,
7,113904, Note_off_c,7,60,0,
7,113904, Note_off_c,7,65,0,
7,114000, Note_on_c,7,65,110,
7,114000, Note_on_c,7,60,110,
7,114000, Note_on_c,7,57,110,
7,114000, Note_on_c,7,53,110,
7,114000, Note_on_c,7,48,110,
7,114000, Note_on_c,7,41,110,
7,114048, Note_off_c,7,41,0,
7,114048, Note_off_c,7,48,0,
7,114048, Note_off_c,7,53,0,
7,114048, Note_off_c,7,57,0,
7,114048, Note_off_c,7,60,0,
7,114048, Note_off_c,7,65,0,
7,114144, Note_on_c,7,65,110,
7,114144, Note_on_c,7,60,110,
7,114144, Note_on_c,7,57,110,
7,114144, Note_on_c,7,53,110,
7,114144, Note_on_c,7,48,110,
7,114144, Note_on_c,7,41,110,
7,114240, Note_off_c,7,41,0,
7,114240, Note_off_c,7,48,0,
7,114240, Note_off_c,7,53,0,
7,114240, Note_off_c,7,57,0,
7,114240, Note_off_c,7,60,0,
7,114240, Note_off_c,7,65,0,
7,114240, Note_on_c,7,43,110,
7,114240, Note_on_c,7,50,110,
7,114240, Note_on_c,7,55,110,
7,114240, Note_on_c,7,59,110,
7,114240, Note_on_c,7,62,110,
7,114240, Note_on_c,7,67,110,
7,114336, Note_off_c,7,67,0,
7,114336, Note_off_c,7,62,0,
7,114336, Note_off_c,7,59,0,
7,114336, Note_off_c,7,55,0,
7,114336, Note_off_c,7,50,0,
7,114336, Note_off_c,7,43,0,
7,114336, Note_on_c,7,45,110,
7,114336, Note_on_c,7,52,110,
7,114336, Note_on_c,7,57,110,
7,114336, Note_on_c,7,60,110,
7,114336, Note_on_c,7,64,110,
7,114336, Note_on_c,7,69,110,
7,114432, Note_off_c,7,69,0,
7,114432, Note_off_c,7,64,0,
7,114432, Note_off_c,7,60,0,
7,114432, Note_off_c,7,52,0,
7,114432, Note_off_c,7,45,0,
7,114432, Note_on_c,7,45,110,
7,114432, Note_on_c,7,52,110,
7,114432, Note_on_c,7,57,110,
7,114432, Note_on_c,7,60,110,
7,114432, Note_on_c,7,64,110,
7,114432, Note_on_c,7,69,110,
7,114433, Note_off_c,7,57,0,
7,114528, Note_off_c,7,52,0,
7,114528, Note_off_c,7,57,0,
7,114528, Note_off_c,7,45,0,
7,114528, Note_off_c,7,60,0,
7,114528, Note_off_c,7,64,0,
7,114528, Note_off_c,7,69,0,
7,114720, Note_on_c,7,43,110,
7,114720, Note_on_c,7,50,110,
7,114720, Note_on_c,7,67,110,
7,114720, Note_on_c,7,62,110,
7,114720, Note_on_c,7,59,110,
7,114720, Note_on_c,7,55,110,
7,114816, Note_off_c,7,55,0,
7,114816, Note_off_c,7,62,0,
7,114816, Note_off_c,7,67,0,
7,114816, Note_off_c,7,43,0,
7,114816, Note_on_c,7,43,110,
7,114816, Note_on_c,7,50,110,
7,114816, Note_on_c,7,55,110,
7,114816, Note_on_c,7,59,110,
7,114816, Note_on_c,7,62,110,
7,114816, Note_on_c,7,67,110,
7,114817, Note_off_c,7,59,0,
7,114817, Note_off_c,7,50,0,
7,114912, Note_off_c,7,50,0,
7,114912, Note_off_c,7,59,0,
7,114912, Note_off_c,7,43,0,
7,114912, Note_off_c,7,55,0,
7,114912, Note_off_c,7,62,0,
7,114912, Note_off_c,7,67,0,
7,115104, Note_on_c,7,48,110,
7,115104, Note_on_c,7,41,110,
7,115104, Note_on_c,7,53,110,
7,115104, Note_on_c,7,57,110,
7,115104, Note_on_c,7,60,110,
7,115104, Note_on_c,7,65,110,
7,115200, Note_off_c,7,65,0,
7,115200, Note_off_c,7,60,0,
7,115200, Note_off_c,7,57,0,
7,115200, Note_off_c,7,53,0,
7,115200, Note_off_c,7,41,0,
7,115200, Note_off_c,7,48,0,
7,115248, Note_on_c,7,65,110,
7,115248, Note_on_c,7,60,110,
7,115248, Note_on_c,7,57,110,
7,115248, Note_on_c,7,53,110,
7,115248, Note_on_c,7,48,110,
7,115248, Note_on_c,7,41,110,
7,115296, Note_off_c,7,41,0,
7,115296, Note_off_c,7,48,0,
7,115296, Note_off_c,7,53,0,
7,115296, Note_off_c,7,57,0,
7,115296, Note_off_c,7,60,0,
7,115296, Note_off_c,7,65,0,
7,115392, Note_on_c,7,65,110,
7,115392, Note_on_c,7,60,110,
7,115392, Note_on_c,7,57,110,
7,115392, Note_on_c,7,53,110,
7,115392, Note_on_c,7,48,110,
7,115392, Note_on_c,7,41,110,
7,115440, Note_off_c,7,41,0,
7,115440, Note_off_c,7,48,0,
7,115440, Note_off_c,7,53,0,
7,115440, Note_off_c,7,57,0,
7,115440, Note_off_c,7,60,0,
7,115440, Note_off_c,7,65,0,
7,115536, Note_on_c,7,65,110,
7,115536, Note_on_c,7,60,110,
7,115536, Note_on_c,7,57,110,
7,115536, Note_on_c,7,53,110,
7,115536, Note_on_c,7,48,110,
7,115536, Note_on_c,7,41,110,
7,115584, Note_off_c,7,41,0,
7,115584, Note_off_c,7,48,0,
7,115584, Note_off_c,7,53,0,
7,115584, Note_off_c,7,57,0,
7,115584, Note_off_c,7,60,0,
7,115584, Note_off_c,7,65,0,
7,115680, Note_on_c,7,65,110,
7,115680, Note_on_c,7,60,110,
7,115680, Note_on_c,7,57,110,
7,115680, Note_on_c,7,53,110,
7,115680, Note_on_c,7,48,110,
7,115680, Note_on_c,7,41,110,
7,115776, Note_off_c,7,41,0,
7,115776, Note_off_c,7,48,0,
7,115776, Note_off_c,7,53,0,
7,115776, Note_off_c,7,57,0,
7,115776, Note_off_c,7,60,0,
7,115776, Note_off_c,7,65,0,
7,115776, Note_on_c,7,43,110,
7,115776, Note_on_c,7,50,110,
7,115776, Note_on_c,7,55,110,
7,115776, Note_on_c,7,59,110,
7,115776, Note_on_c,7,62,110,
7,115776, Note_on_c,7,67,110,
7,115872, Note_off_c,7,67,0,
7,115872, Note_off_c,7,62,0,
7,115872, Note_off_c,7,59,0,
7,115872, Note_off_c,7,55,0,
7,115872, Note_off_c,7,50,0,
7,115872, Note_off_c,7,43,0,
7,115872, Note_on_c,7,45,110,
7,115872, Note_on_c,7,52,110,
7,115872, Note_on_c,7,57,110,
7,115872, Note_on_c,7,60,110,
7,115872, Note_on_c,7,64,110,
7,115872, Note_on_c,7,69,110,
7,115968, Note_off_c,7,69,0,
7,115968, Note_off_c,7,64,0,
7,115968, Note_off_c,7,60,0,
7,115968, Note_off_c,7,52,0,
7,115968, Note_off_c,7,45,0,
7,115968, Note_on_c,7,45,110,
7,115968, Note_on_c,7,52,110,
7,115968, Note_on_c,7,57,110,
7,115968, Note_on_c,7,60,110,
7,115968, Note_on_c,7,64,110,
7,115968, Note_on_c,7,69,110,
7,115969, Note_off_c,7,57,0,
7,116064, Note_off_c,7,52,0,
7,116064, Note_off_c,7,57,0,
7,116064, Note_off_c,7,45,0,
7,116064, Note_off_c,7,60,0,
7,116064, Note_off_c,7,64,0,
7,116064, Note_off_c,7,69,0,
7,116256, Note_on_c,7,43,110,
7,116256, Note_on_c,7,50,110,
7,116256, Note_on_c,7,67,110,
7,116256, Note_on_c,7,62,110,
7,116256, Note_on_c,7,59,110,
7,116256, Note_on_c,7,55,110,
7,116352, Note_off_c,7,55,0,
7,116352, Note_off_c,7,62,0,
7,116352, Note_off_c,7,67,0,
7,116352, Note_off_c,7,43,0,
7,116352, Note_on_c,7,43,110,
7,116352, Note_on_c,7,50,110,
7,116352, Note_on_c,7,55,110,
7,116352, Note_on_c,7,59,110,
7,116352, Note_on_c,7,62,110,
7,116352, Note_on_c,7,67,110,
7,116353, Note_off_c,7,59,0,
7,116353, Note_off_c,7,50,0,
7,116448, Note_off_c,7,50,0,
7,116448, Note_off_c,7,59,0,
7,116448, Note_off_c,7,43,0,
7,116448, Note_off_c,7,55,0,
7,116448, Note_off_c,7,62,0,
7,116448, Note_off_c,7,67,0,
7,116544, Note_on_c,7,60,120,
7,116544, Note_on_c,7,64,120,
7,116544, Note_on_c,7,57,120,
7,116544, Note_on_c,7,53,120,
7,116832, Note_off_c,7,53,0,
7,116832, Note_off_c,7,57,0,
7,116832, Note_off_c,7,64,0,
7,116832, Note_off_c,7,60,0,
7,116832, Note_on_c,7,53,110,
7,116832, Note_on_c,7,57,110,
7,116832, Note_on_c,7,60,110,
7,116832, Note_on_c,7,64,110,
7,117120, Note_off_c,7,57,0,
7,117120, Note_off_c,7,53,0,
7,117120, Note_on_c,7,53,110,
7,117120, Note_on_c,7,57,110,
7,117120, Note_on_c,7,64,110,
7,117120, Note_on_c,7,60,110,
7,117121, Note_off_c,7,60,0,
7,117121, Note_off_c,7,64,0,
7,117216, Note_off_c,7,57,0,
7,117216, Note_off_c,7,60,0,
7,117216, Note_off_c,7,64,0,
7,117216, Note_off_c,7,53,0,
7,117216, Note_on_c,7,64,120,
7,117216, Note_on_c,7,60,120,
7,117216, Note_on_c,7,57,120,
7,117216, Note_on_c,7,53,120,
7,117312, Note_off_c,7,53,0,
7,117312, Note_off_c,7,57,0,
7,117312, Note_off_c,7,60,0,
7,117312, Note_off_c,7,64,0,
7,117312, Note_on_c,7,53,110,
7,117312, Note_on_c,7,57,110,
7,117312, Note_on_c,7,60,110,
7,117312, Note_on_c,7,64,120,
7,117408, Note_off_c,7,64,0,
7,117408, Note_off_c,7,60,0,
7,117408, Note_off_c,7,57,0,
7,117408, Note_off_c,7,53,0,
7,117408, Note_on_c,7,45,110,
7,117408, Note_on_c,7,52,110,
7,117408, Note_on_c,7,57,110,
7,117408, Note_on_c,7,60,110,
7,117408, Note_on_c,7,64,110,
7,117408, Note_on_c,7,69,110,
7,117504, Note_off_c,7,64,0,
7,117504, Note_off_c,7,60,0,
7,117504, Note_off_c,7,57,0,
7,117504, Note_off_c,7,45,0,
7,117504, Note_on_c,7,45,110,
7,117504, Note_on_c,7,52,110,
7,117504, Note_on_c,7,57,110,
7,117504, Note_on_c,7,60,110,
7,117504, Note_on_c,7,64,110,
7,117504, Note_on_c,7,69,110,
7,117505, Note_off_c,7,69,0,
7,117505, Note_off_c,7,52,0,
7,117600, Note_off_c,7,52,0,
7,117600, Note_off_c,7,69,0,
7,117600, Note_off_c,7,45,0,
7,117600, Note_off_c,7,57,0,
7,117600, Note_off_c,7,60,0,
7,117600, Note_off_c,7,64,0,
7,117792, Note_on_c,7,43,110,
7,117792, Note_on_c,7,50,110,
7,117792, Note_on_c,7,67,110,
7,117792, Note_on_c,7,62,110,
7,117792, Note_on_c,7,59,110,
7,117792, Note_on_c,7,55,110,
7,117888, Note_off_c,7,55,0,
7,117888, Note_off_c,7,62,0,
7,117888, Note_off_c,7,67,0,
7,117888, Note_off_c,7,43,0,
7,117888, Note_on_c,7,43,110,
7,117888, Note_on_c,7,50,110,
7,117888, Note_on_c,7,55,110,
7,117888, Note_on_c,7,59,110,
7,117888, Note_on_c,7,62,110,
7,117888, Note_on_c,7,67,110,
7,117889, Note_off_c,7,59,0,
7,117889, Note_off_c,7,50,0,
7,117984, Note_off_c,7,50,0,
7,117984, Note_off_c,7,59,0,
7,117984, Note_off_c,7,43,0,
7,117984, Note_off_c,7,55,0,
7,117984, Note_off_c,7,62,0,
7,117984, Note_off_c,7,67,0,
7,118080, Note_on_c,7,60,120,
7,118080, Note_on_c,7,64,120,
7,118080, Note_on_c,7,57,120,
7,118080, Note_on_c,7,53,120,
7,118272, Note_off_c,7,53,0,
7,118272, Note_off_c,7,57,0,
7,118272, Note_off_c,7,64,0,
7,118272, Note_off_c,7,60,0,
7,118272, Note_on_c,7,53,110,
7,118272, Note_on_c,7,57,110,
7,118272, Note_on_c,7,60,110,
7,118272, Note_on_c,7,64,110,
7,118368, Note_off_c,7,64,0,
7,118368, Note_off_c,7,60,0,
7,118368, Note_off_c,7,57,0,
7,118368, Note_off_c,7,53,0,
7,118368, Note_on_c,7,64,120,
7,118368, Note_on_c,7,60,120,
7,118368, Note_on_c,7,57,120,
7,118368, Note_on_c,7,53,120,
7,118464, Note_off_c,7,53,0,
7,118464, Note_off_c,7,57,0,
7,118464, Note_off_c,7,64,0,
7,118464, Note_on_c,7,53,120,
7,118464, Note_on_c,7,57,120,
7,118464, Note_on_c,7,60,120,
7,118464, Note_on_c,7,64,120,
7,118465, Note_off_c,7,60,0,
7,118560, Note_off_c,7,57,0,
7,118560, Note_off_c,7,60,0,
7,118560, Note_off_c,7,53,0,
7,118560, Note_off_c,7,64,0,
7,118560, Note_on_c,7,64,120,
7,118560, Note_on_c,7,60,120,
7,118560, Note_on_c,7,57,120,
7,118560, Note_on_c,7,53,120,
7,118656, Note_off_c,7,53,0,
7,118656, Note_off_c,7,57,0,
7,118656, Note_off_c,7,60,0,
7,118656, Note_off_c,7,64,0,
7,118656, Note_on_c,7,53,110,
7,118656, Note_on_c,7,57,110,
7,118656, Note_on_c,7,64,110,
7,118656, Note_on_c,7,60,110,
7,118752, Note_off_c,7,60,0,
7,118752, Note_off_c,7,64,0,
7,118752, Note_off_c,7,57,0,
7,118752, Note_off_c,7,53,0,
7,118752, Note_on_c,7,64,120,
7,118752, Note_on_c,7,60,120,
7,118752, Note_on_c,7,57,120,
7,118752, Note_on_c,7,53,120,
7,118848, Note_off_c,7,53,0,
7,118848, Note_off_c,7,57,0,
7,118848, Note_off_c,7,60,0,
7,118848, Note_off_c,7,64,0,
7,118848, Note_on_c,7,64,120,
7,118848, Note_on_c,7,59,110,
7,118848, Note_on_c,7,55,110,
7,118848, Note_on_c,7,50,110,
7,118944, Note_off_c,7,50,0,
7,118944, Note_off_c,7,55,0,
7,118944, Note_off_c,7,59,0,
7,118944, Note_off_c,7,64,0,
7,118944, Note_on_c,7,52,100,
7,118944, Note_on_c,7,57,100,
7,118944, Note_on_c,7,60,100,
7,118944, Note_on_c,7,64,100,
7,119136, Note_off_c,7,60,0,
7,119136, Note_off_c,7,52,0,
7,119136, Note_on_c,7,52,100,
7,119136, Note_on_c,7,57,100,
7,119136, Note_on_c,7,60,100,
7,119136, Note_on_c,7,64,100,
7,119137, Note_off_c,7,64,0,
7,119137, Note_off_c,7,57,0,
7,119280, Note_off_c,7,57,0,
7,119280, Note_off_c,7,64,0,
7,119280, Note_off_c,7,52,0,
7,119280, Note_off_c,7,60,0,
7,119280, Note_on_c,7,64,100,
7,119280, Note_on_c,7,60,100,
7,119280, Note_on_c,7,57,100,
7,119280, Note_on_c,7,52,100,
7,119328, Note_off_c,7,52,0,
7,119328, Note_off_c,7,57,0,
7,119328, Note_off_c,7,60,0,
7,119328, Note_off_c,7,64,0,
7,119328, Note_on_c,7,52,100,
7,119328, Note_on_c,7,55,100,
7,119328, Note_on_c,7,60,100,
7,119328, Note_on_c,7,64,100,
7,119424, Note_off_c,7,64,0,
7,119424, Note_off_c,7,60,0,
7,119424, Note_off_c,7,55,0,
7,119424, Note_off_c,7,52,0,
7,119424, Note_on_c,7,64,100,
7,119424, Note_on_c,7,60,100,
7,119424, Note_on_c,7,55,100,
7,119424, Note_on_c,7,52,100,
7,119520, Note_off_c,7,52,0,
7,119520, Note_off_c,7,55,0,
7,119520, Note_off_c,7,60,0,
7,119520, Note_off_c,7,64,0,
7,119520, Note_on_c,7,52,100,
7,119520, Note_on_c,7,55,100,
7,119520, Note_on_c,7,60,100,
7,119520, Note_on_c,7,64,100,
7,119616, Note_off_c,7,64,0,
7,119616, Note_off_c,7,60,0,
7,119616, Note_off_c,7,55,0,
7,119616, Note_off_c,7,52,0,
7,119616, Note_on_c,7,64,100,
7,119616, Note_on_c,7,60,100,
7,119616, Note_on_c,7,55,100,
7,119616, Note_on_c,7,52,100,
7,119664, Note_off_c,7,52,0,
7,119664, Note_off_c,7,55,0,
7,119664, Note_off_c,7,60,0,
7,119664, Note_off_c,7,64,0,
7,119664, Note_on_c,7,52,100,
7,119664, Note_on_c,7,55,100,
7,119664, Note_on_c,7,60,100,
7,119664, Note_on_c,7,64,100,
7,119712, Note_off_c,7,64,0,
7,119712, Note_off_c,7,60,0,
7,119712, Note_off_c,7,55,0,
7,119712, Note_off_c,7,52,0,
7,119712, Note_on_c,7,64,100,
7,119712, Note_on_c,7,60,100,
7,119712, Note_on_c,7,57,100,
7,119712, Note_on_c,7,53,100,
7,119904, Note_off_c,7,53,0,
7,119904, Note_off_c,7,57,0,
7,119904, Note_off_c,7,60,0,
7,119904, Note_off_c,7,64,0,
7,119904, Note_on_c,7,53,100,
7,119904, Note_on_c,7,57,100,
7,119904, Note_on_c,7,60,100,
7,119904, Note_on_c,7,64,100,
7,120288, Note_off_c,7,60,0,
7,120288, Note_off_c,7,57,0,
7,120288, Note_off_c,7,53,0,
7,120288, Note_on_c,7,53,100,
7,120288, Note_on_c,7,57,100,
7,120288, Note_on_c,7,60,100,
7,120288, Note_on_c,7,64,100,
7,120289, Note_off_c,7,64,0,
7,120480, Note_off_c,7,60,0,
7,120480, Note_off_c,7,53,0,
7,120480, Note_on_c,7,52,97,
7,120480, Note_on_c,7,57,97,
7,120480, Note_on_c,7,60,97,
7,120480, Note_on_c,7,64,97,
7,120481, Note_off_c,7,64,0,
7,120481, Note_off_c,7,57,0,
7,120672, Note_off_c,7,52,0,
7,120672, Note_off_c,7,60,0,
7,120672, Note_on_c,7,52,97,
7,120672, Note_on_c,7,57,97,
7,120672, Note_on_c,7,60,97,
7,120672, Note_on_c,7,64,97,
7,120673, Note_off_c,7,64,0,
7,120673, Note_off_c,7,57,0,
7,120816, Note_off_c,7,52,0,
7,120816, Note_off_c,7,60,0,
7,120816, Note_on_c,7,52,97,
7,120816, Note_on_c,7,57,97,
7,120816, Note_on_c,7,60,97,
7,120816, Note_on_c,7,64,97,
7,120817, Note_off_c,7,64,0,
7,120817, Note_off_c,7,57,0,
7,120864, Note_off_c,7,64,0,
7,120864, Note_off_c,7,57,0,
7,120864, Note_off_c,7,52,0,
7,120864, Note_off_c,7,60,0,
7,120864, Note_on_c,7,64,97,
7,120864, Note_on_c,7,60,97,
7,120864, Note_on_c,7,52,97,
7,120864, Note_on_c,7,55,97,
7,121056, Note_off_c,7,55,0,
7,121056, Note_off_c,7,52,0,
7,121056, Note_off_c,7,64,0,
7,121056, Note_on_c,7,64,97,
7,121056, Note_on_c,7,60,97,
7,121056, Note_on_c,7,52,97,
7,121056, Note_on_c,7,55,97,
7,121057, Note_off_c,7,60,0,
7,121104, Note_off_c,7,64,0,
7,121104, Note_off_c,7,55,0,
7,121104, Note_on_c,7,64,97,
7,121104, Note_on_c,7,62,97,
7,121104, Note_on_c,7,55,97,
7,121104, Note_on_c,7,50,97,
7,121236, Note_off_c,7,62,0,
7,121248, Note_off_c,7,60,0,
7,121248, Note_off_c,7,52,0,
7,121248, Note_off_c,7,55,0,
7,121248, Note_off_c,7,50,0,
7,121248, Note_on_c,7,53,97,
7,121248, Note_on_c,7,57,97,
7,121248, Note_on_c,7,60,97,
7,121248, Note_on_c,7,64,97,
7,121249, Note_off_c,7,64,0,
7,121344, Note_off_c,7,53,0,
7,121356, Note_on_c,7,53,97,
7,121440, Note_off_c,7,64,0,
7,121440, Note_off_c,7,60,0,
7,121440, Note_on_c,7,64,97,
7,121536, Note_off_c,7,64,0,
7,121536, Note_on_c,7,60,97,
7,121620, Note_off_c,7,57,0,
7,121620, Note_off_c,7,53,0,
7,121632, Note_off_c,7,60,0,
7,121632, Note_on_c,7,64,97,
7,121632, Note_on_c,7,60,97,
7,121632, Note_on_c,7,57,97,
7,121632, Note_on_c,7,53,97,
7,121728, Note_off_c,7,53,0,
7,121728, Note_off_c,7,57,0,
7,121728, Note_off_c,7,64,0,
7,121728, Note_on_c,7,53,97,
7,121728, Note_on_c,7,57,97,
7,121728, Note_on_c,7,60,97,
7,121728, Note_on_c,7,64,97,
7,121729, Note_off_c,7,60,0,
7,121824, Note_off_c,7,57,0,
7,121824, Note_off_c,7,60,0,
7,121824, Note_off_c,7,53,0,
7,121824, Note_off_c,7,64,0,
7,121824, Note_on_c,7,64,97,
7,121824, Note_on_c,7,60,97,
7,121824, Note_on_c,7,57,97,
7,121824, Note_on_c,7,53,97,
7,122016, Note_off_c,7,53,0,
7,122016, Note_off_c,7,57,0,
7,122016, Note_off_c,7,64,0,
7,122016, Note_on_c,7,52,87,
7,122016, Note_on_c,7,57,87,
7,122016, Note_on_c,7,60,87,
7,122016, Note_on_c,7,64,87,
7,122017, Note_off_c,7,60,0,
7,122112, Note_off_c,7,57,0,
7,122112, Note_off_c,7,60,0,
7,122112, Note_off_c,7,52,0,
7,122112, Note_off_c,7,64,0,
7,122112, Note_on_c,7,52,87,
7,122112, Note_on_c,7,64,87,
7,122112, Note_on_c,7,60,87,
7,122112, Note_on_c,7,57,87,
7,122208, Note_off_c,7,57,0,
7,122208, Note_off_c,7,60,0,
7,122208, Note_off_c,7,52,0,
7,122208, Note_on_c,7,52,87,
7,122208, Note_on_c,7,57,87,
7,122208, Note_on_c,7,60,87,
7,122208, Note_on_c,7,64,87,
7,122209, Note_off_c,7,64,0,
7,122400, Note_off_c,7,60,0,
7,122400, Note_off_c,7,57,0,
7,122400, Note_off_c,7,64,0,
7,122400, Note_off_c,7,52,0,
7,122400, Note_on_c,7,64,87,
7,122400, Note_on_c,7,60,87,
7,122400, Note_on_c,7,55,87,
7,122400, Note_on_c,7,52,87,
7,122400, Note_on_c,7,62,87,
7,122400, Note_on_c,7,50,87,
7,122496, Note_off_c,7,52,0,
7,122496, Note_off_c,7,55,0,
7,122496, Note_off_c,7,64,0,
7,122496, Note_on_c,7,64,87,
7,122496, Note_on_c,7,60,87,
7,122496, Note_on_c,7,55,87,
7,122496, Note_on_c,7,52,87,
7,122497, Note_off_c,7,60,0,
7,122592, Note_off_c,7,60,0,
7,122592, Note_off_c,7,62,0,
7,122592, Note_off_c,7,50,0,
7,122592, Note_off_c,7,64,0,
7,122592, Note_off_c,7,55,0,
7,122592, Note_off_c,7,52,0,
7,122592, Note_on_c,7,52,87,
7,122592, Note_on_c,7,64,87,
7,122592, Note_on_c,7,60,87,
7,122592, Note_on_c,7,55,87,
7,122592, Note_on_c,7,50,87,
7,122592, Note_on_c,7,62,87,
7,122688, Note_off_c,7,55,0,
7,122688, Note_off_c,7,52,0,
7,122688, Note_on_c,7,52,87,
7,122688, Note_on_c,7,55,87,
7,122688, Note_on_c,7,60,87,
7,122688, Note_on_c,7,64,87,
7,122688, Note_on_c,7,50,87,
7,122688, Note_on_c,7,62,87,
7,122689, Note_off_c,7,62,0,
7,122689, Note_off_c,7,50,0,
7,122689, Note_off_c,7,64,0,
7,122689, Note_off_c,7,60,0,
7,122784, Note_off_c,7,55,0,
7,122784, Note_off_c,7,64,0,
7,122784, Note_off_c,7,60,0,
7,122784, Note_off_c,7,50,0,
7,122784, Note_off_c,7,62,0,
7,122784, Note_off_c,7,52,0,
7,122880, Note_on_c,7,53,87,
7,122880, Note_on_c,7,57,87,
7,122880, Note_on_c,7,60,87,
7,122880, Note_on_c,7,64,87,
7,122976, Note_off_c,7,64,0,
7,122976, Note_off_c,7,60,0,
7,122976, Note_off_c,7,57,0,
7,122976, Note_off_c,7,53,0,
7,122976, Note_on_c,7,64,87,
7,122976, Note_on_c,7,60,87,
7,122976, Note_on_c,7,57,87,
7,122976, Note_on_c,7,53,87,
7,123072, Note_off_c,7,53,0,
7,123072, Note_off_c,7,57,0,
7,123072, Note_off_c,7,60,0,
7,123072, Note_off_c,7,64,0,
7,123072, Note_on_c,7,53,87,
7,123072, Note_on_c,7,57,87,
7,123072, Note_on_c,7,60,87,
7,123072, Note_on_c,7,64,87,
7,123120, Note_off_c,7,64,0,
7,123120, Note_off_c,7,60,0,
7,123120, Note_off_c,7,53,0,
7,123120, Note_on_c,7,64,87,
7,123120, Note_on_c,7,60,87,
7,123120, Note_on_c,7,57,87,
7,123120, Note_on_c,7,53,87,
7,123121, Note_off_c,7,57,0,
7,123216, Note_off_c,7,60,0,
7,123216, Note_off_c,7,57,0,
7,123216, Note_off_c,7,64,0,
7,123216, Note_off_c,7,53,0,
7,123216, Note_on_c,7,53,87,
7,123216, Note_on_c,7,57,87,
7,123216, Note_on_c,7,60,87,
7,123216, Note_on_c,7,64,87,
7,123264, Note_off_c,7,60,0,
7,123264, Note_off_c,7,57,0,
7,123264, Note_off_c,7,53,0,
7,123264, Note_on_c,7,53,87,
7,123264, Note_on_c,7,57,87,
7,123264, Note_on_c,7,60,87,
7,123264, Note_on_c,7,64,87,
7,123265, Note_off_c,7,64,0,
7,123360, Note_off_c,7,60,0,
7,123360, Note_off_c,7,53,0,
7,123360, Note_on_c,7,53,87,
7,123360, Note_on_c,7,57,87,
7,123360, Note_on_c,7,60,87,
7,123360, Note_on_c,7,64,87,
7,123361, Note_off_c,7,64,0,
7,123361, Note_off_c,7,57,0,
7,123456, Note_off_c,7,53,0,
7,123456, Note_off_c,7,60,0,
7,123456, Note_on_c,7,53,87,
7,123456, Note_on_c,7,57,87,
7,123456, Note_on_c,7,60,87,
7,123456, Note_on_c,7,64,87,
7,123457, Note_off_c,7,64,0,
7,123457, Note_off_c,7,57,0,
7,123552, Note_off_c,7,53,0,
7,123552, Note_off_c,7,60,0,
7,123552, Note_on_c,7,52,87,
7,123552, Note_on_c,7,57,87,
7,123552, Note_on_c,7,60,87,
7,123552, Note_on_c,7,64,87,
7,123553, Note_off_c,7,64,0,
7,123553, Note_off_c,7,57,0,
7,123744, Note_off_c,7,52,0,
7,123744, Note_off_c,7,60,0,
7,123744, Note_on_c,7,52,87,
7,123744, Note_on_c,7,57,87,
7,123744, Note_on_c,7,60,87,
7,123744, Note_on_c,7,64,87,
7,123745, Note_off_c,7,64,0,
7,123745, Note_off_c,7,57,0,
7,123924, Note_off_c,7,52,0,
7,123936, Note_off_c,7,64,0,
7,123936, Note_off_c,7,57,0,
7,123936, Note_off_c,7,60,0,
7,123936, Note_on_c,7,64,87,
7,123936, Note_on_c,7,60,87,
7,123936, Note_on_c,7,52,87,
7,123936, Note_on_c,7,55,87,
7,123936, Note_on_c,7,50,87,
7,124128, Note_off_c,7,55,0,
7,124128, Note_off_c,7,52,0,
7,124128, Note_off_c,7,60,0,
7,124128, Note_off_c,7,64,0,
7,124128, Note_on_c,7,60,87,
7,124128, Note_on_c,7,52,87,
7,124128, Note_on_c,7,55,87,
7,124128, Note_on_c,7,64,87,
7,124128, Note_on_c,7,50,87,
7,124129, Note_off_c,7,50,0,
7,124308, Note_off_c,7,64,0,
7,124320, Note_off_c,7,55,0,
7,124320, Note_off_c,7,52,0,
7,124320, Note_off_c,7,50,0,
7,124320, Note_off_c,7,60,0,
7,124320, Note_on_c,7,53,97,
7,124320, Note_on_c,7,57,97,
7,124320, Note_on_c,7,60,97,
7,124320, Note_on_c,7,64,97,
7,126624, Note_off_c,7,64,0,
7,126624, Note_off_c,7,60,0,
7,126624, Note_off_c,7,57,0,
7,126624, Note_off_c,7,53,0,
7,126624, End_track,,,,
8,0, Start_track,,,,
8,0, Instrument_t,12 string guitar 1  ,,,
8,0, Channel_prefix,8,,,
8,0, Control_c,8,7,90,
8,0, Control_c,8,10,34,
8,0, Program_c,8,25,,
8,0, Control_c,8,0,8,
8,12, Program_c,8,25,,
8,42828, Note_on_c,8,45,90,
8,42912, Note_off_c,8,45,0,
8,42924, Note_on_c,8,47,90,
8,43008, Note_off_c,8,47,0,
8,43020, Note_on_c,8,48,90,
8,43116, Note_on_c,8,52,90,
8,43200, Note_off_c,8,52,0,
8,43212, Note_on_c,8,55,90,
8,43296, Note_off_c,8,55,0,
8,43308, Note_on_c,8,60,90,
8,43392, Note_off_c,8,48,0,
8,43392, Note_off_c,8,60,0,
8,43404, Note_on_c,8,47,90,
8,43500, Note_on_c,8,50,90,
8,43584, Note_off_c,8,50,0,
8,43596, Note_on_c,8,55,90,
8,43680, Note_off_c,8,55,0,
8,43692, Note_on_c,8,59,90,
8,43776, Note_off_c,8,47,0,
8,43776, Note_off_c,8,59,0,
8,43776, Note_on_c,8,45,90,
8,43956, Note_off_c,8,45,0,
8,55884, Note_on_c,8,45,90,
8,55968, Note_off_c,8,45,0,
8,55980, Note_on_c,8,47,90,
8,56064, Note_off_c,8,47,0,
8,56076, Note_on_c,8,48,90,
8,56172, Note_on_c,8,52,90,
8,56256, Note_off_c,8,52,0,
8,56268, Note_on_c,8,55,90,
8,56352, Note_off_c,8,55,0,
8,56364, Note_on_c,8,60,90,
8,56448, Note_off_c,8,48,0,
8,56448, Note_off_c,8,60,0,
8,56460, Note_on_c,8,47,90,
8,56556, Note_on_c,8,50,90,
8,56640, Note_off_c,8,50,0,
8,56652, Note_on_c,8,55,90,
8,56736, Note_off_c,8,55,0,
8,56748, Note_on_c,8,59,90,
8,56832, Note_off_c,8,47,0,
8,56832, Note_off_c,8,59,0,
8,56832, Note_on_c,8,45,90,
8,57780, Note_off_c,8,45,0,
8,69120, Note_on_c,8,48,90,
8,69216, Note_on_c,8,52,90,
8,69300, Note_off_c,8,52,0,
8,69312, Note_on_c,8,55,90,
8,69396, Note_off_c,8,55,0,
8,69408, Note_on_c,8,60,90,
8,69492, Note_off_c,8,48,0,
8,69492, Note_off_c,8,60,0,
8,69504, Note_on_c,8,47,90,
8,69600, Note_on_c,8,50,90,
8,69684, Note_off_c,8,50,0,
8,69696, Note_on_c,8,55,90,
8,69780, Note_off_c,8,55,0,
8,69792, Note_on_c,8,59,90,
8,69876, Note_off_c,8,47,0,
8,69888, Note_off_c,8,59,0,
8,69888, Note_on_c,8,45,90,
8,71028, Note_off_c,8,45,0,
8,81984, Note_on_c,8,45,90,
8,82068, Note_off_c,8,45,0,
8,82080, Note_on_c,8,47,90,
8,82164, Note_off_c,8,47,0,
8,82176, Note_on_c,8,48,90,
8,82272, Note_on_c,8,52,90,
8,82356, Note_off_c,8,52,0,
8,82368, Note_on_c,8,55,90,
8,82452, Note_off_c,8,55,0,
8,82464, Note_on_c,8,60,90,
8,82548, Note_off_c,8,48,0,
8,82548, Note_off_c,8,60,0,
8,82560, Note_on_c,8,47,90,
8,82656, Note_on_c,8,50,90,
8,82740, Note_off_c,8,50,0,
8,82752, Note_on_c,8,55,90,
8,82836, Note_off_c,8,55,0,
8,82848, Note_on_c,8,59,90,
8,82932, Note_off_c,8,47,0,
8,82932, Note_off_c,8,59,0,
8,82944, Note_on_c,8,66,90,
8,82944, Note_on_c,8,62,90,
8,82944, Note_on_c,8,57,90,
8,82944, Note_on_c,8,50,90,
8,83604, Note_off_c,8,50,0,
8,83604, Note_off_c,8,57,0,
8,83604, Note_off_c,8,62,0,
8,83604, Note_off_c,8,66,0,
8,88128, Note_on_c,8,48,90,
8,88128, Note_on_c,8,52,90,
8,88128, Note_on_c,8,55,90,
8,88128, Note_on_c,8,60,90,
8,88128, Note_on_c,8,64,90,
8,88308, Note_off_c,8,64,0,
8,88308, Note_off_c,8,60,0,
8,88308, Note_off_c,8,55,0,
8,88308, Note_off_c,8,52,0,
8,88320, Note_on_c,8,55,90,
8,88320, Note_on_c,8,60,90,
8,88320, Note_on_c,8,64,90,
8,88404, Note_off_c,8,64,0,
8,88404, Note_off_c,8,60,0,
8,88404, Note_off_c,8,55,0,
8,88416, Note_on_c,8,55,90,
8,88416, Note_on_c,8,62,90,
8,88416, Note_on_c,8,66,90,
8,88548, Note_off_c,8,66,0,
8,88548, Note_off_c,8,62,0,
8,88548, Note_off_c,8,55,0,
8,88560, Note_on_c,8,55,90,
8,88560, Note_on_c,8,62,90,
8,88560, Note_on_c,8,66,90,
8,88596, Note_off_c,8,66,0,
8,88596, Note_off_c,8,62,0,
8,88596, Note_off_c,8,55,0,
8,88608, Note_on_c,8,55,90,
8,88608, Note_on_c,8,62,90,
8,88608, Note_on_c,8,66,90,
8,88692, Note_off_c,8,66,0,
8,88692, Note_off_c,8,62,0,
8,88692, Note_off_c,8,55,0,
8,88704, Note_on_c,8,55,90,
8,88704, Note_on_c,8,62,90,
8,88704, Note_on_c,8,64,90,
8,88788, Note_off_c,8,64,0,
8,88788, Note_off_c,8,62,0,
8,88788, Note_off_c,8,55,0,
8,88800, Note_on_c,8,62,90,
8,88884, Note_off_c,8,48,0,
8,88896, Note_on_c,8,55,90,
8,88968, Note_off_c,8,55,0,
8,88980, Note_off_c,8,62,0,
8,88992, Note_on_c,8,47,90,
8,89184, Note_on_c,8,50,90,
8,89268, Note_off_c,8,50,0,
8,89280, Note_on_c,8,62,90,
8,89364, Note_off_c,8,62,0,
8,89376, Note_on_c,8,67,90,
8,89460, Note_off_c,8,67,0,
8,89472, Note_on_c,8,62,90,
8,89556, Note_off_c,8,47,0,
8,89556, Note_off_c,8,62,0,
8,89568, Note_on_c,8,59,90,
8,89604, Note_off_c,8,59,0,
8,89616, Note_on_c,8,57,90,
8,89652, Note_off_c,8,57,0,
8,89664, Note_on_c,8,55,90,
8,89748, Note_off_c,8,55,0,
8,89748, End_track,,,,
9,0, Start_track,,,,
9,0, Instrument_t,electric piano      ,,,
9,0, Channel_prefix,12,,,
9,0, Control_c,12,7,85,
9,0, Control_c,12,10,89,
9,0, Program_c,12,4,,
9,0, Control_c,12,0,0,
9,12, Program_c,12,4,,
9,30720, Note_on_c,12,57,90,
9,30720, Note_on_c,12,60,90,
9,30720, Note_on_c,12,64,90,
9,30720, Note_on_c,12,67,90,
9,30720, Note_on_c,12,33,90,
9,30852, Note_off_c,12,67,0,
9,30852, Note_off_c,12,64,0,
9,30852, Note_off_c,12,60,0,
9,30852, Note_off_c,12,57,0,
9,30864, Note_on_c,12,67,90,
9,30900, Note_off_c,12,67,0,
9,30912, Note_on_c,12,67,90,
9,30912, Note_on_c,12,64,90,
9,30912, Note_on_c,12,60,90,
9,30912, Note_on_c,12,57,90,
9,30996, Note_off_c,12,57,0,
9,30996, Note_off_c,12,60,0,
9,30996, Note_off_c,12,64,0,
9,30996, Note_off_c,12,67,0,
9,31008, Note_on_c,12,57,90,
9,31008, Note_on_c,12,60,90,
9,31008, Note_on_c,12,67,90,
9,31188, Note_off_c,12,67,0,
9,31188, Note_off_c,12,60,0,
9,31188, Note_off_c,12,57,0,
9,31200, Note_on_c,12,57,90,
9,31200, Note_on_c,12,60,90,
9,31200, Note_on_c,12,64,90,
9,31284, Note_off_c,12,64,0,
9,31284, Note_off_c,12,60,0,
9,31284, Note_off_c,12,57,0,
9,31380, Note_off_c,12,33,0,
9,31392, Note_on_c,12,38,90,
9,31392, Note_on_c,12,57,90,
9,31392, Note_on_c,12,67,90,
9,31392, Note_on_c,12,62,90,
9,31476, Note_off_c,12,62,0,
9,31476, Note_off_c,12,67,0,
9,31476, Note_off_c,12,57,0,
9,31584, Note_on_c,12,50,90,
9,31584, Note_on_c,12,57,90,
9,31584, Note_on_c,12,62,90,
9,31584, Note_on_c,12,66,90,
9,31668, Note_off_c,12,50,0,
9,31776, Note_on_c,12,50,90,
9,31956, Note_off_c,12,50,0,
9,31968, Note_on_c,12,50,90,
9,32052, Note_off_c,12,57,0,
9,32052, Note_off_c,12,62,0,
9,32052, Note_off_c,12,66,0,
9,32052, Note_off_c,12,50,0,
9,32064, Note_on_c,12,57,90,
9,32148, Note_off_c,12,57,0,
9,32160, Note_on_c,12,45,90,
9,32244, Note_off_c,12,38,0,
9,32244, Note_off_c,12,45,0,
9,32256, Note_on_c,12,57,90,
9,32256, Note_on_c,12,60,90,
9,32256, Note_on_c,12,64,90,
9,32256, Note_on_c,12,67,90,
9,32256, Note_on_c,12,33,90,
9,32388, Note_off_c,12,67,0,
9,32388, Note_off_c,12,64,0,
9,32388, Note_off_c,12,60,0,
9,32388, Note_off_c,12,57,0,
9,32400, Note_on_c,12,67,90,
9,32436, Note_off_c,12,67,0,
9,32448, Note_on_c,12,67,90,
9,32448, Note_on_c,12,64,90,
9,32448, Note_on_c,12,60,90,
9,32448, Note_on_c,12,57,90,
9,32532, Note_off_c,12,57,0,
9,32532, Note_off_c,12,60,0,
9,32532, Note_off_c,12,64,0,
9,32532, Note_off_c,12,67,0,
9,32544, Note_on_c,12,57,90,
9,32544, Note_on_c,12,60,90,
9,32544, Note_on_c,12,64,90,
9,32544, Note_on_c,12,67,90,
9,32724, Note_off_c,12,67,0,
9,32724, Note_off_c,12,64,0,
9,32724, Note_off_c,12,60,0,
9,32724, Note_off_c,12,57,0,
9,32736, Note_on_c,12,57,90,
9,32736, Note_on_c,12,60,90,
9,32736, Note_on_c,12,64,90,
9,32820, Note_off_c,12,64,0,
9,32820, Note_off_c,12,60,0,
9,32820, Note_off_c,12,33,0,
9,32820, Note_off_c,12,57,0,
9,32832, Note_on_c,12,45,90,
9,32928, Note_on_c,12,67,90,
9,32928, Note_on_c,12,71,90,
9,32928, Note_on_c,12,62,90,
9,33012, Note_off_c,12,62,0,
9,33012, Note_off_c,12,71,0,
9,33012, Note_off_c,12,67,0,
9,33024, Note_off_c,12,45,0,
9,33024, Note_on_c,12,50,90,
9,33120, Note_on_c,12,66,90,
9,33120, Note_on_c,12,69,90,
9,33120, Note_on_c,12,59,90,
9,33204, Note_off_c,12,59,0,
9,33204, Note_off_c,12,69,0,
9,33204, Note_off_c,12,66,0,
9,33312, Note_on_c,12,57,90,
9,33312, Note_on_c,12,64,90,
9,33312, Note_on_c,12,67,90,
9,33348, Note_off_c,12,50,0,
9,33360, Note_on_c,12,45,90,
9,33396, Note_off_c,12,57,0,
9,33396, Note_off_c,12,64,0,
9,33396, Note_off_c,12,67,0,
9,33396, Note_off_c,12,45,0,
9,33408, Note_on_c,12,38,90,
9,33504, Note_on_c,12,59,90,
9,33504, Note_on_c,12,66,90,
9,33504, Note_on_c,12,69,90,
9,33684, Note_off_c,12,38,0,
9,33696, Note_on_c,12,45,90,
9,33780, Note_off_c,12,59,0,
9,33780, Note_off_c,12,69,0,
9,33780, Note_off_c,12,45,0,
9,33792, Note_off_c,12,66,0,
9,33792, Note_on_c,12,57,90,
9,33792, Note_on_c,12,60,90,
9,33792, Note_on_c,12,64,90,
9,33792, Note_on_c,12,67,90,
9,33792, Note_on_c,12,33,90,
9,33924, Note_off_c,12,67,0,
9,33924, Note_off_c,12,64,0,
9,33924, Note_off_c,12,60,0,
9,33924, Note_off_c,12,57,0,
9,33936, Note_on_c,12,67,90,
9,33972, Note_off_c,12,67,0,
9,33984, Note_on_c,12,67,90,
9,33984, Note_on_c,12,64,90,
9,33984, Note_on_c,12,60,90,
9,33984, Note_on_c,12,57,90,
9,34068, Note_off_c,12,57,0,
9,34068, Note_off_c,12,60,0,
9,34068, Note_off_c,12,64,0,
9,34068, Note_off_c,12,67,0,
9,34080, Note_on_c,12,57,90,
9,34080, Note_on_c,12,67,90,
9,34164, Note_off_c,12,33,0,
9,34176, Note_on_c,12,33,90,
9,34260, Note_off_c,12,57,0,
9,34260, Note_off_c,12,67,0,
9,34272, Note_on_c,12,57,90,
9,34272, Note_on_c,12,60,90,
9,34272, Note_on_c,12,64,90,
9,34356, Note_off_c,12,64,0,
9,34356, Note_off_c,12,60,0,
9,34356, Note_off_c,12,57,0,
9,34452, Note_off_c,12,33,0,
9,34464, Note_on_c,12,38,90,
9,34464, Note_on_c,12,57,90,
9,34464, Note_on_c,12,67,90,
9,34464, Note_on_c,12,62,90,
9,34548, Note_off_c,12,62,0,
9,34548, Note_off_c,12,67,0,
9,34548, Note_off_c,12,57,0,
9,34656, Note_on_c,12,57,90,
9,34656, Note_on_c,12,62,90,
9,34656, Note_on_c,12,66,90,
9,34752, Note_on_c,12,50,90,
9,34836, Note_off_c,12,50,0,
9,34848, Note_on_c,12,50,90,
9,34932, Note_off_c,12,50,0,
9,34944, Note_on_c,12,55,90,
9,34980, Note_off_c,12,57,0,
9,34980, Note_off_c,12,55,0,
9,34992, Note_on_c,12,57,90,
9,35124, Note_off_c,12,62,0,
9,35124, Note_off_c,12,66,0,
9,35232, Note_on_c,12,45,90,
9,35316, Note_off_c,12,38,0,
9,35316, Note_off_c,12,57,0,
9,35316, Note_off_c,12,45,0,
9,35328, Note_on_c,12,57,90,
9,35328, Note_on_c,12,60,90,
9,35328, Note_on_c,12,64,90,
9,35328, Note_on_c,12,67,90,
9,35328, Note_on_c,12,33,90,
9,35412, Note_off_c,12,33,0,
9,35424, Note_on_c,12,33,90,
9,35460, Note_off_c,12,67,0,
9,35460, Note_off_c,12,64,0,
9,35460, Note_off_c,12,60,0,
9,35460, Note_off_c,12,57,0,
9,35472, Note_on_c,12,67,90,
9,35508, Note_off_c,12,67,0,
9,35520, Note_on_c,12,67,90,
9,35520, Note_on_c,12,64,90,
9,35520, Note_on_c,12,60,90,
9,35520, Note_on_c,12,57,90,
9,35604, Note_off_c,12,57,0,
9,35604, Note_off_c,12,60,0,
9,35604, Note_off_c,12,64,0,
9,35604, Note_off_c,12,33,0,
9,35604, Note_off_c,12,67,0,
9,35616, Note_on_c,12,57,90,
9,35616, Note_on_c,12,60,90,
9,35616, Note_on_c,12,64,90,
9,35616, Note_on_c,12,67,90,
9,35616, Note_on_c,12,33,90,
9,35700, Note_off_c,12,33,0,
9,35712, Note_on_c,12,33,90,
9,35796, Note_off_c,12,67,0,
9,35796, Note_off_c,12,64,0,
9,35796, Note_off_c,12,60,0,
9,35796, Note_off_c,12,57,0,
9,35808, Note_on_c,12,57,90,
9,35808, Note_on_c,12,60,90,
9,35808, Note_on_c,12,64,90,
9,35892, Note_off_c,12,64,0,
9,35892, Note_off_c,12,60,0,
9,35892, Note_off_c,12,33,0,
9,35892, Note_off_c,12,57,0,
9,35904, Note_on_c,12,33,90,
9,35988, Note_off_c,12,33,0,
9,36000, Note_on_c,12,67,90,
9,36000, Note_on_c,12,71,90,
9,36000, Note_on_c,12,62,90,
9,36060, Note_on_c,12,45,90,
9,36084, Note_off_c,12,45,0,
9,36084, Note_off_c,12,62,0,
9,36084, Note_off_c,12,71,0,
9,36084, Note_off_c,12,67,0,
9,36096, Note_on_c,12,50,90,
9,36192, Note_on_c,12,66,90,
9,36192, Note_on_c,12,69,90,
9,36192, Note_on_c,12,59,90,
9,36276, Note_off_c,12,59,0,
9,36276, Note_off_c,12,69,0,
9,36276, Note_off_c,12,66,0,
9,36384, Note_on_c,12,57,90,
9,36384, Note_on_c,12,64,90,
9,36384, Note_on_c,12,67,90,
9,36420, Note_off_c,12,50,0,
9,36432, Note_on_c,12,45,90,
9,36468, Note_off_c,12,57,0,
9,36468, Note_off_c,12,64,0,
9,36468, Note_off_c,12,67,0,
9,36468, Note_off_c,12,45,0,
9,36480, Note_on_c,12,38,90,
9,36576, Note_on_c,12,59,90,
9,36576, Note_on_c,12,66,90,
9,36576, Note_on_c,12,69,90,
9,36756, Note_off_c,12,38,0,
9,36852, Note_off_c,12,59,0,
9,36852, Note_off_c,12,69,0,
9,36864, Note_off_c,12,66,0,
9,36864, Note_on_c,12,60,90,
9,36864, Note_on_c,12,64,90,
9,36864, Note_on_c,12,67,90,
9,36864, Note_on_c,12,48,90,
9,36864, Note_on_c,12,47,90,
9,36865, Note_off_c,12,47,0,
9,37236, Note_off_c,12,48,0,
9,37236, Note_off_c,12,67,0,
9,37236, Note_off_c,12,64,0,
9,37236, Note_off_c,12,60,0,
9,37248, Note_on_c,12,47,90,
9,37248, Note_on_c,12,59,90,
9,37248, Note_on_c,12,62,90,
9,37248, Note_on_c,12,67,90,
9,37620, Note_off_c,12,67,0,
9,37620, Note_off_c,12,62,0,
9,37620, Note_off_c,12,59,0,
9,37620, Note_off_c,12,47,0,
9,37632, Note_on_c,12,45,90,
9,37632, Note_on_c,12,60,90,
9,37632, Note_on_c,12,64,90,
9,38196, Note_off_c,12,45,0,
9,38292, Note_off_c,12,60,0,
9,38292, Note_off_c,12,64,0,
9,38304, Note_on_c,12,47,90,
9,38304, Note_on_c,12,67,90,
9,38388, Note_off_c,12,67,0,
9,38388, Note_off_c,12,47,0,
9,38400, Note_on_c,12,67,90,
9,38400, Note_on_c,12,64,90,
9,38400, Note_on_c,12,60,90,
9,38400, Note_on_c,12,48,90,
9,38772, Note_off_c,12,48,0,
9,38772, Note_off_c,12,60,0,
9,38772, Note_off_c,12,64,0,
9,38772, Note_off_c,12,67,0,
9,38784, Note_on_c,12,47,90,
9,38784, Note_on_c,12,59,90,
9,38784, Note_on_c,12,62,90,
9,38784, Note_on_c,12,67,90,
9,39060, Note_off_c,12,67,0,
9,39060, Note_off_c,12,62,0,
9,39060, Note_off_c,12,59,0,
9,39060, Note_off_c,12,47,0,
9,39072, Note_on_c,12,41,90,
9,39072, Note_on_c,12,65,90,
9,39072, Note_on_c,12,60,90,
9,39072, Note_on_c,12,57,90,
9,39156, Note_off_c,12,57,0,
9,39156, Note_off_c,12,60,0,
9,39156, Note_off_c,12,65,0,
9,39156, Note_off_c,12,41,0,
9,39264, Note_on_c,12,60,90,
9,39264, Note_on_c,12,57,90,
9,39264, Note_on_c,12,64,90,
9,39264, Note_on_c,12,45,90,
9,39732, Note_off_c,12,45,0,
9,39732, Note_off_c,12,64,0,
9,39732, Note_off_c,12,57,0,
9,39732, Note_off_c,12,60,0,
9,39840, Note_on_c,12,47,90,
9,39840, Note_on_c,12,59,90,
9,39840, Note_on_c,12,62,90,
9,39840, Note_on_c,12,67,90,
9,39924, Note_off_c,12,67,0,
9,39924, Note_off_c,12,62,0,
9,39924, Note_off_c,12,59,0,
9,39924, Note_off_c,12,47,0,
9,39936, Note_on_c,12,60,90,
9,39936, Note_on_c,12,64,90,
9,39936, Note_on_c,12,67,90,
9,39936, Note_on_c,12,48,90,
9,40308, Note_off_c,12,48,0,
9,40308, Note_off_c,12,67,0,
9,40308, Note_off_c,12,64,0,
9,40308, Note_off_c,12,60,0,
9,40320, Note_on_c,12,47,90,
9,40320, Note_on_c,12,59,90,
9,40320, Note_on_c,12,62,90,
9,40320, Note_on_c,12,67,90,
9,40692, Note_off_c,12,67,0,
9,40692, Note_off_c,12,62,0,
9,40692, Note_off_c,12,59,0,
9,40692, Note_off_c,12,47,0,
9,40704, Note_on_c,12,45,90,
9,40704, Note_on_c,12,60,90,
9,40704, Note_on_c,12,64,90,
9,40704, Note_on_c,12,57,90,
9,41076, Note_off_c,12,57,0,
9,41076, Note_off_c,12,64,0,
9,41076, Note_off_c,12,60,0,
9,41088, Note_on_c,12,64,90,
9,41136, Note_off_c,12,64,0,
9,41148, Note_on_c,12,69,90,
9,41268, Note_off_c,12,69,0,
9,41280, Note_on_c,12,69,90,
9,41364, Note_off_c,12,45,0,
9,41364, Note_off_c,12,69,0,
9,41376, Note_on_c,12,47,90,
9,41376, Note_on_c,12,67,90,
9,41376, Note_on_c,12,62,90,
9,41376, Note_on_c,12,59,90,
9,41460, Note_off_c,12,59,0,
9,41460, Note_off_c,12,62,0,
9,41460, Note_off_c,12,67,0,
9,41460, Note_off_c,12,47,0,
9,41472, Note_on_c,12,64,90,
9,41472, Note_on_c,12,60,90,
9,41472, Note_on_c,12,48,90,
9,41664, Note_on_c,12,67,90,
9,41844, Note_off_c,12,67,0,
9,41844, Note_off_c,12,48,0,
9,41844, Note_off_c,12,60,0,
9,41844, Note_off_c,12,64,0,
9,41856, Note_on_c,12,47,90,
9,41856, Note_on_c,12,59,90,
9,41856, Note_on_c,12,62,90,
9,41856, Note_on_c,12,67,90,
9,42132, Note_off_c,12,67,0,
9,42132, Note_off_c,12,62,0,
9,42132, Note_off_c,12,59,0,
9,42132, Note_off_c,12,47,0,
9,42144, Note_on_c,12,41,90,
9,42144, Note_on_c,12,65,90,
9,42144, Note_on_c,12,60,90,
9,42144, Note_on_c,12,57,90,
9,42228, Note_off_c,12,57,0,
9,42228, Note_off_c,12,60,0,
9,42228, Note_off_c,12,65,0,
9,42228, Note_off_c,12,41,0,
9,42336, Note_on_c,12,60,90,
9,42336, Note_on_c,12,57,90,
9,42336, Note_on_c,12,64,90,
9,42336, Note_on_c,12,45,90,
9,42804, Note_off_c,12,45,0,
9,42804, Note_off_c,12,64,0,
9,42804, Note_off_c,12,57,0,
9,42804, Note_off_c,12,60,0,
9,42912, Note_on_c,12,47,90,
9,42912, Note_on_c,12,59,90,
9,42912, Note_on_c,12,62,90,
9,42912, Note_on_c,12,67,90,
9,42996, Note_off_c,12,67,0,
9,42996, Note_off_c,12,62,0,
9,42996, Note_off_c,12,59,0,
9,42996, Note_off_c,12,47,0,
9,43008, Note_on_c,12,60,90,
9,43008, Note_on_c,12,64,90,
9,43008, Note_on_c,12,67,90,
9,43008, Note_on_c,12,48,90,
9,43008, Note_on_c,12,62,90,
9,43009, Note_off_c,12,62,0,
9,43380, Note_off_c,12,48,0,
9,43380, Note_off_c,12,67,0,
9,43380, Note_off_c,12,64,0,
9,43380, Note_off_c,12,60,0,
9,43392, Note_on_c,12,47,90,
9,43392, Note_on_c,12,59,90,
9,43392, Note_on_c,12,62,90,
9,43392, Note_on_c,12,67,90,
9,43668, Note_off_c,12,47,0,
9,43680, Note_on_c,12,45,90,
9,43764, Note_off_c,12,59,0,
9,43764, Note_off_c,12,62,0,
9,43764, Note_off_c,12,67,0,
9,43764, Note_off_c,12,45,0,
9,43776, Note_on_c,12,57,90,
9,43776, Note_on_c,12,60,90,
9,43776, Note_on_c,12,64,90,
9,43776, Note_on_c,12,67,90,
9,43776, Note_on_c,12,33,90,
9,43908, Note_off_c,12,67,0,
9,43908, Note_off_c,12,64,0,
9,43908, Note_off_c,12,60,0,
9,43908, Note_off_c,12,57,0,
9,43920, Note_on_c,12,67,90,
9,43956, Note_off_c,12,67,0,
9,43968, Note_on_c,12,67,90,
9,43968, Note_on_c,12,64,90,
9,43968, Note_on_c,12,60,90,
9,43968, Note_on_c,12,57,90,
9,44052, Note_off_c,12,57,0,
9,44052, Note_off_c,12,60,0,
9,44052, Note_off_c,12,64,0,
9,44052, Note_off_c,12,67,0,
9,44064, Note_on_c,12,57,90,
9,44064, Note_on_c,12,67,90,
9,44064, Note_on_c,12,60,64,
9,44244, Note_off_c,12,60,0,
9,44244, Note_off_c,12,67,0,
9,44244, Note_off_c,12,57,0,
9,44256, Note_on_c,12,57,90,
9,44256, Note_on_c,12,60,90,
9,44256, Note_on_c,12,64,90,
9,44340, Note_off_c,12,64,0,
9,44340, Note_off_c,12,60,0,
9,44340, Note_off_c,12,57,0,
9,44436, Note_off_c,12,33,0,
9,44448, Note_on_c,12,38,90,
9,44448, Note_on_c,12,57,90,
9,44448, Note_on_c,12,67,90,
9,44448, Note_on_c,12,62,90,
9,44532, Note_off_c,12,62,0,
9,44532, Note_off_c,12,67,0,
9,44532, Note_off_c,12,57,0,
9,44640, Note_on_c,12,50,90,
9,44640, Note_on_c,12,57,90,
9,44640, Note_on_c,12,62,90,
9,44640, Note_on_c,12,66,90,
9,44724, Note_off_c,12,50,0,
9,44832, Note_on_c,12,50,90,
9,45012, Note_off_c,12,50,0,
9,45024, Note_on_c,12,50,90,
9,45108, Note_off_c,12,57,0,
9,45108, Note_off_c,12,62,0,
9,45108, Note_off_c,12,66,0,
9,45108, Note_off_c,12,50,0,
9,45120, Note_on_c,12,57,90,
9,45204, Note_off_c,12,57,0,
9,45216, Note_on_c,12,45,90,
9,45300, Note_off_c,12,38,0,
9,45300, Note_off_c,12,45,0,
9,45312, Note_on_c,12,57,90,
9,45312, Note_on_c,12,60,90,
9,45312, Note_on_c,12,64,90,
9,45312, Note_on_c,12,67,90,
9,45312, Note_on_c,12,33,90,
9,45444, Note_off_c,12,67,0,
9,45444, Note_off_c,12,64,0,
9,45444, Note_off_c,12,60,0,
9,45444, Note_off_c,12,57,0,
9,45456, Note_on_c,12,67,90,
9,45492, Note_off_c,12,67,0,
9,45504, Note_on_c,12,67,90,
9,45504, Note_on_c,12,64,90,
9,45504, Note_on_c,12,60,90,
9,45504, Note_on_c,12,57,90,
9,45588, Note_off_c,12,57,0,
9,45588, Note_off_c,12,60,0,
9,45588, Note_off_c,12,64,0,
9,45588, Note_off_c,12,67,0,
9,45600, Note_on_c,12,57,90,
9,45600, Note_on_c,12,67,64,
9,45780, Note_off_c,12,67,0,
9,45780, Note_off_c,12,57,0,
9,45792, Note_on_c,12,57,90,
9,45792, Note_on_c,12,60,90,
9,45792, Note_on_c,12,64,90,
9,45876, Note_off_c,12,64,0,
9,45876, Note_off_c,12,60,0,
9,45876, Note_off_c,12,33,0,
9,45876, Note_off_c,12,57,0,
9,45888, Note_on_c,12,45,90,
9,45984, Note_on_c,12,67,90,
9,45984, Note_on_c,12,71,90,
9,45984, Note_on_c,12,62,90,
9,46068, Note_off_c,12,62,0,
9,46068, Note_off_c,12,71,0,
9,46068, Note_off_c,12,67,0,
9,46080, Note_off_c,12,45,0,
9,46080, Note_on_c,12,50,90,
9,46176, Note_on_c,12,66,90,
9,46176, Note_on_c,12,69,90,
9,46176, Note_on_c,12,59,90,
9,46260, Note_off_c,12,59,0,
9,46260, Note_off_c,12,69,0,
9,46260, Note_off_c,12,66,0,
9,46368, Note_on_c,12,57,90,
9,46368, Note_on_c,12,64,90,
9,46368, Note_on_c,12,67,90,
9,46404, Note_off_c,12,50,0,
9,46416, Note_on_c,12,45,90,
9,46452, Note_off_c,12,57,0,
9,46452, Note_off_c,12,64,0,
9,46452, Note_off_c,12,67,0,
9,46452, Note_off_c,12,45,0,
9,46464, Note_on_c,12,38,90,
9,46560, Note_on_c,12,59,90,
9,46560, Note_on_c,12,66,90,
9,46560, Note_on_c,12,69,90,
9,46740, Note_off_c,12,38,0,
9,46752, Note_on_c,12,45,90,
9,46836, Note_off_c,12,59,0,
9,46836, Note_off_c,12,69,0,
9,46836, Note_off_c,12,45,0,
9,46848, Note_off_c,12,66,0,
9,46848, Note_on_c,12,57,90,
9,46848, Note_on_c,12,60,90,
9,46848, Note_on_c,12,64,90,
9,46848, Note_on_c,12,67,90,
9,46848, Note_on_c,12,33,90,
9,46980, Note_off_c,12,67,0,
9,46980, Note_off_c,12,64,0,
9,46980, Note_off_c,12,60,0,
9,46980, Note_off_c,12,57,0,
9,46992, Note_on_c,12,67,90,
9,47028, Note_off_c,12,67,0,
9,47040, Note_on_c,12,67,90,
9,47040, Note_on_c,12,64,90,
9,47040, Note_on_c,12,60,90,
9,47040, Note_on_c,12,57,90,
9,47124, Note_off_c,12,57,0,
9,47124, Note_off_c,12,60,0,
9,47124, Note_off_c,12,64,0,
9,47124, Note_off_c,12,67,0,
9,47136, Note_on_c,12,57,90,
9,47136, Note_on_c,12,67,90,
9,47220, Note_off_c,12,33,0,
9,47232, Note_on_c,12,33,90,
9,47316, Note_off_c,12,57,0,
9,47316, Note_off_c,12,67,0,
9,47328, Note_on_c,12,57,90,
9,47328, Note_on_c,12,60,90,
9,47328, Note_on_c,12,64,90,
9,47412, Note_off_c,12,64,0,
9,47412, Note_off_c,12,60,0,
9,47412, Note_off_c,12,57,0,
9,47508, Note_off_c,12,33,0,
9,47520, Note_on_c,12,38,90,
9,47520, Note_on_c,12,57,90,
9,47520, Note_on_c,12,67,90,
9,47520, Note_on_c,12,62,90,
9,47604, Note_off_c,12,62,0,
9,47604, Note_off_c,12,67,0,
9,47604, Note_off_c,12,57,0,
9,47712, Note_on_c,12,57,90,
9,47712, Note_on_c,12,62,90,
9,47712, Note_on_c,12,66,90,
9,47808, Note_on_c,12,50,90,
9,47892, Note_off_c,12,50,0,
9,47904, Note_on_c,12,50,90,
9,47988, Note_off_c,12,50,0,
9,48000, Note_on_c,12,55,90,
9,48036, Note_off_c,12,57,0,
9,48036, Note_off_c,12,55,0,
9,48048, Note_on_c,12,57,90,
9,48180, Note_off_c,12,62,0,
9,48180, Note_off_c,12,66,0,
9,48288, Note_on_c,12,45,90,
9,48372, Note_off_c,12,38,0,
9,48372, Note_off_c,12,57,0,
9,48372, Note_off_c,12,45,0,
9,48384, Note_on_c,12,57,90,
9,48384, Note_on_c,12,60,90,
9,48384, Note_on_c,12,64,90,
9,48384, Note_on_c,12,67,90,
9,48384, Note_on_c,12,33,90,
9,48468, Note_off_c,12,33,0,
9,48480, Note_on_c,12,33,90,
9,48516, Note_off_c,12,67,0,
9,48516, Note_off_c,12,64,0,
9,48516, Note_off_c,12,60,0,
9,48516, Note_off_c,12,57,0,
9,48528, Note_on_c,12,67,90,
9,48564, Note_off_c,12,67,0,
9,48576, Note_on_c,12,67,90,
9,48576, Note_on_c,12,64,90,
9,48576, Note_on_c,12,60,90,
9,48576, Note_on_c,12,57,90,
9,48660, Note_off_c,12,57,0,
9,48660, Note_off_c,12,60,0,
9,48660, Note_off_c,12,64,0,
9,48660, Note_off_c,12,33,0,
9,48660, Note_off_c,12,67,0,
9,48672, Note_on_c,12,60,90,
9,48672, Note_on_c,12,67,90,
9,48672, Note_on_c,12,33,90,
9,48756, Note_off_c,12,33,0,
9,48768, Note_on_c,12,33,90,
9,48852, Note_off_c,12,67,0,
9,48852, Note_off_c,12,60,0,
9,48864, Note_on_c,12,57,90,
9,48864, Note_on_c,12,60,90,
9,48864, Note_on_c,12,64,90,
9,48948, Note_off_c,12,64,0,
9,48948, Note_off_c,12,60,0,
9,48948, Note_off_c,12,33,0,
9,48948, Note_off_c,12,57,0,
9,48960, Note_on_c,12,33,90,
9,49044, Note_off_c,12,33,0,
9,49056, Note_on_c,12,67,90,
9,49056, Note_on_c,12,71,90,
9,49056, Note_on_c,12,62,90,
9,49116, Note_on_c,12,45,90,
9,49140, Note_off_c,12,45,0,
9,49140, Note_off_c,12,62,0,
9,49140, Note_off_c,12,71,0,
9,49140, Note_off_c,12,67,0,
9,49152, Note_on_c,12,50,90,
9,49248, Note_on_c,12,66,90,
9,49248, Note_on_c,12,69,90,
9,49248, Note_on_c,12,59,90,
9,49332, Note_off_c,12,59,0,
9,49332, Note_off_c,12,69,0,
9,49332, Note_off_c,12,66,0,
9,49440, Note_on_c,12,57,90,
9,49440, Note_on_c,12,64,90,
9,49440, Note_on_c,12,67,90,
9,49476, Note_off_c,12,50,0,
9,49488, Note_on_c,12,45,90,
9,49524, Note_off_c,12,57,0,
9,49524, Note_off_c,12,64,0,
9,49524, Note_off_c,12,67,0,
9,49524, Note_off_c,12,45,0,
9,49536, Note_on_c,12,38,90,
9,49632, Note_on_c,12,59,90,
9,49632, Note_on_c,12,66,90,
9,49632, Note_on_c,12,69,90,
9,49812, Note_off_c,12,38,0,
9,49908, Note_off_c,12,59,0,
9,49908, Note_off_c,12,69,0,
9,49920, Note_off_c,12,66,0,
9,49920, Note_on_c,12,60,90,
9,49920, Note_on_c,12,64,90,
9,49920, Note_on_c,12,67,90,
9,49920, Note_on_c,12,48,90,
9,49920, Note_on_c,12,47,90,
9,49921, Note_off_c,12,47,0,
9,50292, Note_off_c,12,48,0,
9,50292, Note_off_c,12,67,0,
9,50292, Note_off_c,12,64,0,
9,50292, Note_off_c,12,60,0,
9,50304, Note_on_c,12,47,90,
9,50304, Note_on_c,12,59,90,
9,50304, Note_on_c,12,62,90,
9,50304, Note_on_c,12,67,90,
9,50676, Note_off_c,12,67,0,
9,50676, Note_off_c,12,62,0,
9,50676, Note_off_c,12,59,0,
9,50676, Note_off_c,12,47,0,
9,50688, Note_on_c,12,45,90,
9,50688, Note_on_c,12,60,90,
9,50688, Note_on_c,12,64,90,
9,51252, Note_off_c,12,45,0,
9,51348, Note_off_c,12,60,0,
9,51348, Note_off_c,12,64,0,
9,51360, Note_on_c,12,47,90,
9,51360, Note_on_c,12,67,90,
9,51444, Note_off_c,12,67,0,
9,51444, Note_off_c,12,47,0,
9,51456, Note_on_c,12,67,90,
9,51456, Note_on_c,12,64,90,
9,51456, Note_on_c,12,60,90,
9,51456, Note_on_c,12,48,90,
9,51828, Note_off_c,12,48,0,
9,51828, Note_off_c,12,60,0,
9,51828, Note_off_c,12,64,0,
9,51828, Note_off_c,12,67,0,
9,51840, Note_on_c,12,47,90,
9,51840, Note_on_c,12,59,90,
9,51840, Note_on_c,12,62,90,
9,51840, Note_on_c,12,67,90,
9,52116, Note_off_c,12,67,0,
9,52116, Note_off_c,12,62,0,
9,52116, Note_off_c,12,59,0,
9,52116, Note_off_c,12,47,0,
9,52128, Note_on_c,12,41,90,
9,52128, Note_on_c,12,65,90,
9,52128, Note_on_c,12,60,90,
9,52128, Note_on_c,12,57,90,
9,52212, Note_off_c,12,57,0,
9,52212, Note_off_c,12,60,0,
9,52212, Note_off_c,12,65,0,
9,52212, Note_off_c,12,41,0,
9,52320, Note_on_c,12,60,90,
9,52320, Note_on_c,12,57,90,
9,52320, Note_on_c,12,64,90,
9,52320, Note_on_c,12,45,90,
9,52788, Note_off_c,12,45,0,
9,52788, Note_off_c,12,64,0,
9,52788, Note_off_c,12,57,0,
9,52788, Note_off_c,12,60,0,
9,52896, Note_on_c,12,47,90,
9,52896, Note_on_c,12,59,90,
9,52896, Note_on_c,12,62,90,
9,52896, Note_on_c,12,67,90,
9,52980, Note_off_c,12,67,0,
9,52980, Note_off_c,12,62,0,
9,52980, Note_off_c,12,59,0,
9,52980, Note_off_c,12,47,0,
9,52992, Note_on_c,12,60,90,
9,52992, Note_on_c,12,64,90,
9,52992, Note_on_c,12,67,90,
9,52992, Note_on_c,12,48,90,
9,53364, Note_off_c,12,48,0,
9,53364, Note_off_c,12,67,0,
9,53364, Note_off_c,12,64,0,
9,53364, Note_off_c,12,60,0,
9,53376, Note_on_c,12,47,90,
9,53376, Note_on_c,12,59,90,
9,53376, Note_on_c,12,62,90,
9,53376, Note_on_c,12,67,90,
9,53748, Note_off_c,12,67,0,
9,53748, Note_off_c,12,62,0,
9,53748, Note_off_c,12,59,0,
9,53748, Note_off_c,12,47,0,
9,53760, Note_on_c,12,45,90,
9,53760, Note_on_c,12,60,90,
9,53760, Note_on_c,12,64,90,
9,53760, Note_on_c,12,57,90,
9,54132, Note_off_c,12,57,0,
9,54132, Note_off_c,12,64,0,
9,54132, Note_off_c,12,60,0,
9,54144, Note_on_c,12,64,90,
9,54192, Note_off_c,12,64,0,
9,54204, Note_on_c,12,69,90,
9,54324, Note_off_c,12,69,0,
9,54336, Note_on_c,12,69,90,
9,54420, Note_off_c,12,45,0,
9,54420, Note_off_c,12,69,0,
9,54432, Note_on_c,12,47,90,
9,54432, Note_on_c,12,67,90,
9,54432, Note_on_c,12,62,90,
9,54432, Note_on_c,12,59,90,
9,54516, Note_off_c,12,59,0,
9,54516, Note_off_c,12,62,0,
9,54516, Note_off_c,12,67,0,
9,54516, Note_off_c,12,47,0,
9,54528, Note_on_c,12,64,90,
9,54528, Note_on_c,12,60,90,
9,54528, Note_on_c,12,48,90,
9,54720, Note_on_c,12,67,90,
9,54900, Note_off_c,12,67,0,
9,54900, Note_off_c,12,48,0,
9,54900, Note_off_c,12,60,0,
9,54900, Note_off_c,12,64,0,
9,54912, Note_on_c,12,47,90,
9,54912, Note_on_c,12,59,90,
9,54912, Note_on_c,12,62,90,
9,54912, Note_on_c,12,67,90,
9,55188, Note_off_c,12,67,0,
9,55188, Note_off_c,12,62,0,
9,55188, Note_off_c,12,59,0,
9,55188, Note_off_c,12,47,0,
9,55200, Note_on_c,12,41,90,
9,55200, Note_on_c,12,65,90,
9,55200, Note_on_c,12,60,90,
9,55200, Note_on_c,12,57,90,
9,55284, Note_off_c,12,57,0,
9,55284, Note_off_c,12,60,0,
9,55284, Note_off_c,12,65,0,
9,55284, Note_off_c,12,41,0,
9,55392, Note_on_c,12,60,90,
9,55392, Note_on_c,12,57,90,
9,55392, Note_on_c,12,64,90,
9,55392, Note_on_c,12,45,90,
9,55860, Note_off_c,12,45,0,
9,55860, Note_off_c,12,64,0,
9,55860, Note_off_c,12,57,0,
9,55860, Note_off_c,12,60,0,
9,55968, Note_on_c,12,47,90,
9,55968, Note_on_c,12,59,90,
9,55968, Note_on_c,12,62,90,
9,55968, Note_on_c,12,67,90,
9,56052, Note_off_c,12,67,0,
9,56052, Note_off_c,12,62,0,
9,56052, Note_off_c,12,59,0,
9,56052, Note_off_c,12,47,0,
9,56064, Note_on_c,12,60,90,
9,56064, Note_on_c,12,64,90,
9,56064, Note_on_c,12,67,90,
9,56064, Note_on_c,12,48,90,
9,56064, Note_on_c,12,62,90,
9,56065, Note_off_c,12,62,0,
9,56436, Note_off_c,12,48,0,
9,56436, Note_off_c,12,67,0,
9,56436, Note_off_c,12,64,0,
9,56436, Note_off_c,12,60,0,
9,56448, Note_on_c,12,47,90,
9,56448, Note_on_c,12,59,90,
9,56448, Note_on_c,12,62,90,
9,56448, Note_on_c,12,67,90,
9,56724, Note_off_c,12,47,0,
9,56736, Note_on_c,12,45,90,
9,56820, Note_off_c,12,59,0,
9,56820, Note_off_c,12,62,0,
9,56820, Note_off_c,12,67,0,
9,56820, Note_off_c,12,45,0,
9,56832, Note_on_c,12,57,90,
9,56832, Note_on_c,12,60,90,
9,56832, Note_on_c,12,64,90,
9,56832, Note_on_c,12,67,90,
9,56832, Note_on_c,12,33,90,
9,56964, Note_off_c,12,67,0,
9,56964, Note_off_c,12,64,0,
9,56964, Note_off_c,12,60,0,
9,56964, Note_off_c,12,57,0,
9,56976, Note_on_c,12,67,90,
9,57012, Note_off_c,12,67,0,
9,57024, Note_on_c,12,67,90,
9,57024, Note_on_c,12,64,90,
9,57024, Note_on_c,12,60,90,
9,57024, Note_on_c,12,57,90,
9,57108, Note_off_c,12,57,0,
9,57108, Note_off_c,12,60,0,
9,57108, Note_off_c,12,64,0,
9,57108, Note_off_c,12,67,0,
9,57120, Note_on_c,12,64,90,
9,57120, Note_on_c,12,67,90,
9,57204, Note_off_c,12,33,0,
9,57216, Note_on_c,12,33,90,
9,57300, Note_off_c,12,64,0,
9,57300, Note_off_c,12,67,0,
9,57312, Note_on_c,12,57,90,
9,57312, Note_on_c,12,60,90,
9,57312, Note_on_c,12,64,90,
9,57396, Note_off_c,12,64,0,
9,57396, Note_off_c,12,60,0,
9,57396, Note_off_c,12,33,0,
9,57396, Note_off_c,12,57,0,
9,57408, Note_on_c,12,33,90,
9,57492, Note_off_c,12,33,0,
9,57504, Note_on_c,12,38,90,
9,57504, Note_on_c,12,57,90,
9,57504, Note_on_c,12,67,90,
9,57504, Note_on_c,12,62,90,
9,57588, Note_off_c,12,62,0,
9,57588, Note_off_c,12,67,0,
9,57588, Note_off_c,12,57,0,
9,57696, Note_on_c,12,57,90,
9,57696, Note_on_c,12,62,90,
9,57696, Note_on_c,12,66,90,
9,57936, Note_on_c,12,50,90,
9,57972, Note_off_c,12,50,0,
9,57984, Note_on_c,12,54,90,
9,58068, Note_off_c,12,54,0,
9,58080, Note_on_c,12,50,90,
9,58116, Note_off_c,12,50,0,
9,58128, Note_on_c,12,55,90,
9,58164, Note_off_c,12,66,0,
9,58164, Note_off_c,12,62,0,
9,58164, Note_off_c,12,57,0,
9,58212, Note_off_c,12,55,0,
9,58224, Note_on_c,12,50,90,
9,58260, Note_off_c,12,50,0,
9,58272, Note_on_c,12,57,90,
9,58356, Note_off_c,12,38,0,
9,58356, Note_off_c,12,57,0,
9,58368, Note_on_c,12,57,90,
9,58368, Note_on_c,12,60,90,
9,58368, Note_on_c,12,64,90,
9,58368, Note_on_c,12,67,90,
9,58368, Note_on_c,12,33,90,
9,58500, Note_off_c,12,67,0,
9,58500, Note_off_c,12,64,0,
9,58500, Note_off_c,12,60,0,
9,58500, Note_off_c,12,57,0,
9,58512, Note_on_c,12,67,90,
9,58548, Note_off_c,12,33,0,
9,58548, Note_off_c,12,67,0,
9,58560, Note_on_c,12,67,90,
9,58560, Note_on_c,12,64,90,
9,58560, Note_on_c,12,60,90,
9,58560, Note_on_c,12,57,90,
9,58560, Note_on_c,12,33,90,
9,58644, Note_off_c,12,33,0,
9,58644, Note_off_c,12,57,0,
9,58644, Note_off_c,12,60,0,
9,58644, Note_off_c,12,64,0,
9,58644, Note_off_c,12,67,0,
9,58656, Note_on_c,12,60,90,
9,58656, Note_on_c,12,67,90,
9,58656, Note_on_c,12,33,90,
9,58740, Note_off_c,12,33,0,
9,58752, Note_on_c,12,33,90,
9,58836, Note_off_c,12,67,0,
9,58836, Note_off_c,12,60,0,
9,58848, Note_on_c,12,57,90,
9,58848, Note_on_c,12,60,90,
9,58848, Note_on_c,12,64,90,
9,58932, Note_off_c,12,64,0,
9,58932, Note_off_c,12,60,0,
9,58932, Note_off_c,12,57,0,
9,59028, Note_off_c,12,33,0,
9,59040, Note_on_c,12,67,90,
9,59040, Note_on_c,12,71,90,
9,59040, Note_on_c,12,62,90,
9,59124, Note_off_c,12,62,0,
9,59124, Note_off_c,12,71,0,
9,59124, Note_off_c,12,67,0,
9,59136, Note_on_c,12,50,90,
9,59232, Note_on_c,12,66,90,
9,59232, Note_on_c,12,69,90,
9,59232, Note_on_c,12,59,90,
9,59316, Note_off_c,12,59,0,
9,59316, Note_off_c,12,69,0,
9,59316, Note_off_c,12,66,0,
9,59424, Note_on_c,12,57,90,
9,59424, Note_on_c,12,64,90,
9,59424, Note_on_c,12,67,90,
9,59460, Note_off_c,12,50,0,
9,59472, Note_on_c,12,45,90,
9,59508, Note_off_c,12,57,0,
9,59508, Note_off_c,12,64,0,
9,59508, Note_off_c,12,67,0,
9,59508, Note_off_c,12,45,0,
9,59520, Note_on_c,12,38,90,
9,59616, Note_on_c,12,59,90,
9,59616, Note_on_c,12,66,90,
9,59616, Note_on_c,12,69,90,
9,59844, Note_off_c,12,38,0,
9,59856, Note_on_c,12,45,90,
9,59892, Note_off_c,12,59,0,
9,59892, Note_off_c,12,69,0,
9,59892, Note_off_c,12,45,0,
9,59904, Note_off_c,12,66,0,
9,59904, Note_on_c,12,57,90,
9,59904, Note_on_c,12,60,90,
9,59904, Note_on_c,12,64,90,
9,59904, Note_on_c,12,67,90,
9,59904, Note_on_c,12,33,90,
9,60036, Note_off_c,12,67,0,
9,60036, Note_off_c,12,64,0,
9,60036, Note_off_c,12,60,0,
9,60036, Note_off_c,12,57,0,
9,60048, Note_on_c,12,67,90,
9,60084, Note_off_c,12,67,0,
9,60096, Note_on_c,12,67,90,
9,60096, Note_on_c,12,64,90,
9,60096, Note_on_c,12,60,90,
9,60096, Note_on_c,12,57,90,
9,60180, Note_off_c,12,57,0,
9,60180, Note_off_c,12,60,0,
9,60180, Note_off_c,12,64,0,
9,60180, Note_off_c,12,67,0,
9,60192, Note_on_c,12,64,90,
9,60192, Note_on_c,12,67,90,
9,60276, Note_off_c,12,33,0,
9,60288, Note_on_c,12,33,90,
9,60372, Note_off_c,12,64,0,
9,60372, Note_off_c,12,67,0,
9,60384, Note_on_c,12,57,90,
9,60384, Note_on_c,12,60,90,
9,60384, Note_on_c,12,64,90,
9,60468, Note_off_c,12,64,0,
9,60468, Note_off_c,12,60,0,
9,60468, Note_off_c,12,33,0,
9,60468, Note_off_c,12,57,0,
9,60480, Note_on_c,12,33,90,
9,60564, Note_off_c,12,33,0,
9,60576, Note_on_c,12,38,90,
9,60576, Note_on_c,12,57,90,
9,60576, Note_on_c,12,67,90,
9,60576, Note_on_c,12,62,90,
9,60660, Note_off_c,12,62,0,
9,60660, Note_off_c,12,67,0,
9,60660, Note_off_c,12,57,0,
9,60768, Note_on_c,12,57,90,
9,60768, Note_on_c,12,62,90,
9,60768, Note_on_c,12,66,90,
9,60864, Note_on_c,12,50,90,
9,60948, Note_off_c,12,50,0,
9,60960, Note_on_c,12,50,90,
9,60996, Note_off_c,12,50,0,
9,61008, Note_on_c,12,50,90,
9,61236, Note_off_c,12,66,0,
9,61236, Note_off_c,12,62,0,
9,61236, Note_off_c,12,57,0,
9,61332, Note_off_c,12,50,0,
9,61344, Note_on_c,12,45,90,
9,61428, Note_off_c,12,38,0,
9,61428, Note_off_c,12,45,0,
9,61440, Note_on_c,12,57,90,
9,61440, Note_on_c,12,60,90,
9,61440, Note_on_c,12,64,90,
9,61440, Note_on_c,12,67,90,
9,61440, Note_on_c,12,33,90,
9,61572, Note_off_c,12,67,0,
9,61572, Note_off_c,12,64,0,
9,61572, Note_off_c,12,60,0,
9,61572, Note_off_c,12,57,0,
9,61584, Note_on_c,12,67,90,
9,61620, Note_off_c,12,67,0,
9,61632, Note_on_c,12,67,90,
9,61632, Note_on_c,12,64,90,
9,61632, Note_on_c,12,60,90,
9,61632, Note_on_c,12,57,90,
9,61716, Note_off_c,12,57,0,
9,61716, Note_off_c,12,60,0,
9,61716, Note_off_c,12,64,0,
9,61716, Note_off_c,12,67,0,
9,61728, Note_on_c,12,64,90,
9,61728, Note_on_c,12,67,90,
9,61812, Note_off_c,12,33,0,
9,61824, Note_on_c,12,45,90,
9,61908, Note_off_c,12,64,0,
9,61908, Note_off_c,12,67,0,
9,61920, Note_on_c,12,57,90,
9,61920, Note_on_c,12,60,90,
9,61920, Note_on_c,12,64,90,
9,61956, Note_off_c,12,45,0,
9,61968, Note_on_c,12,45,90,
9,62004, Note_off_c,12,57,0,
9,62004, Note_off_c,12,60,0,
9,62004, Note_off_c,12,64,0,
9,62004, Note_off_c,12,45,0,
9,62016, Note_on_c,12,33,90,
9,62100, Note_off_c,12,33,0,
9,62112, Note_on_c,12,67,90,
9,62112, Note_on_c,12,71,90,
9,62112, Note_on_c,12,62,90,
9,62196, Note_off_c,12,62,0,
9,62196, Note_off_c,12,71,0,
9,62196, Note_off_c,12,67,0,
9,62208, Note_on_c,12,50,90,
9,62304, Note_on_c,12,66,90,
9,62304, Note_on_c,12,69,90,
9,62304, Note_on_c,12,59,90,
9,62388, Note_off_c,12,59,0,
9,62388, Note_off_c,12,69,0,
9,62388, Note_off_c,12,66,0,
9,62496, Note_on_c,12,57,90,
9,62496, Note_on_c,12,64,90,
9,62496, Note_on_c,12,67,90,
9,62532, Note_off_c,12,50,0,
9,62544, Note_on_c,12,45,90,
9,62580, Note_off_c,12,57,0,
9,62580, Note_off_c,12,64,0,
9,62580, Note_off_c,12,67,0,
9,62580, Note_off_c,12,45,0,
9,62592, Note_on_c,12,38,90,
9,62688, Note_on_c,12,59,90,
9,62688, Note_on_c,12,66,90,
9,62688, Note_on_c,12,69,90,
9,62964, Note_off_c,12,69,0,
9,62964, Note_off_c,12,59,0,
9,62964, Note_off_c,12,38,0,
9,62976, Note_off_c,12,66,0,
9,62976, Note_on_c,12,48,90,
9,62976, Note_on_c,12,60,90,
9,62976, Note_on_c,12,64,90,
9,62976, Note_on_c,12,67,90,
9,63348, Note_off_c,12,67,0,
9,63348, Note_off_c,12,64,0,
9,63348, Note_off_c,12,60,0,
9,63348, Note_off_c,12,48,0,
9,63360, Note_on_c,12,47,90,
9,63360, Note_on_c,12,59,90,
9,63360, Note_on_c,12,62,90,
9,63360, Note_on_c,12,67,90,
9,63732, Note_off_c,12,67,0,
9,63732, Note_off_c,12,62,0,
9,63732, Note_off_c,12,59,0,
9,63744, Note_off_c,12,47,0,
9,63744, Note_on_c,12,45,90,
9,63744, Note_on_c,12,60,90,
9,63744, Note_on_c,12,64,90,
9,64404, Note_off_c,12,64,0,
9,64404, Note_off_c,12,60,0,
9,64404, Note_off_c,12,45,0,
9,64416, Note_on_c,12,47,90,
9,64416, Note_on_c,12,67,90,
9,64500, Note_off_c,12,67,0,
9,64500, Note_off_c,12,47,0,
9,64512, Note_on_c,12,48,90,
9,64512, Note_on_c,12,60,90,
9,64512, Note_on_c,12,64,90,
9,64512, Note_on_c,12,67,90,
9,64884, Note_off_c,12,67,0,
9,64884, Note_off_c,12,64,0,
9,64884, Note_off_c,12,60,0,
9,64884, Note_off_c,12,48,0,
9,64896, Note_on_c,12,47,90,
9,64896, Note_on_c,12,59,90,
9,64896, Note_on_c,12,62,90,
9,64896, Note_on_c,12,67,90,
9,65172, Note_off_c,12,67,0,
9,65172, Note_off_c,12,62,0,
9,65172, Note_off_c,12,59,0,
9,65172, Note_off_c,12,47,0,
9,65184, Note_on_c,12,41,90,
9,65184, Note_on_c,12,65,90,
9,65184, Note_on_c,12,60,90,
9,65184, Note_on_c,12,57,90,
9,65268, Note_off_c,12,57,0,
9,65268, Note_off_c,12,60,0,
9,65268, Note_off_c,12,65,0,
9,65268, Note_off_c,12,41,0,
9,65376, Note_on_c,12,45,90,
9,65376, Note_on_c,12,60,90,
9,65376, Note_on_c,12,57,90,
9,65376, Note_on_c,12,64,90,
9,65940, Note_off_c,12,64,0,
9,65940, Note_off_c,12,57,0,
9,65940, Note_off_c,12,60,0,
9,65940, Note_off_c,12,45,0,
9,65952, Note_on_c,12,47,90,
9,65952, Note_on_c,12,67,90,
9,66036, Note_off_c,12,67,0,
9,66036, Note_off_c,12,47,0,
9,66048, Note_on_c,12,48,90,
9,66048, Note_on_c,12,60,90,
9,66048, Note_on_c,12,64,90,
9,66048, Note_on_c,12,67,90,
9,66420, Note_off_c,12,67,0,
9,66420, Note_off_c,12,64,0,
9,66420, Note_off_c,12,60,0,
9,66420, Note_off_c,12,48,0,
9,66432, Note_on_c,12,47,90,
9,66432, Note_on_c,12,59,90,
9,66432, Note_on_c,12,62,90,
9,66432, Note_on_c,12,67,90,
9,66804, Note_off_c,12,67,0,
9,66804, Note_off_c,12,62,0,
9,66804, Note_off_c,12,59,0,
9,66816, Note_off_c,12,47,0,
9,66816, Note_on_c,12,45,90,
9,66816, Note_on_c,12,60,90,
9,66816, Note_on_c,12,64,90,
9,67476, Note_off_c,12,64,0,
9,67476, Note_off_c,12,60,0,
9,67476, Note_off_c,12,45,0,
9,67488, Note_on_c,12,47,90,
9,67488, Note_on_c,12,67,90,
9,67572, Note_off_c,12,67,0,
9,67572, Note_off_c,12,47,0,
9,67584, Note_on_c,12,48,90,
9,67584, Note_on_c,12,60,90,
9,67584, Note_on_c,12,64,90,
9,67584, Note_on_c,12,67,90,
9,67956, Note_off_c,12,67,0,
9,67956, Note_off_c,12,64,0,
9,67956, Note_off_c,12,60,0,
9,67956, Note_off_c,12,48,0,
9,67968, Note_on_c,12,47,90,
9,67968, Note_on_c,12,59,90,
9,67968, Note_on_c,12,62,90,
9,67968, Note_on_c,12,67,90,
9,68244, Note_off_c,12,67,0,
9,68244, Note_off_c,12,62,0,
9,68244, Note_off_c,12,59,0,
9,68244, Note_off_c,12,47,0,
9,68256, Note_on_c,12,41,90,
9,68256, Note_on_c,12,65,90,
9,68256, Note_on_c,12,60,90,
9,68256, Note_on_c,12,57,90,
9,68340, Note_off_c,12,57,0,
9,68340, Note_off_c,12,60,0,
9,68340, Note_off_c,12,65,0,
9,68340, Note_off_c,12,41,0,
9,68448, Note_on_c,12,45,90,
9,68448, Note_on_c,12,60,90,
9,68448, Note_on_c,12,57,90,
9,68448, Note_on_c,12,64,90,
9,69012, Note_off_c,12,64,0,
9,69012, Note_off_c,12,57,0,
9,69012, Note_off_c,12,60,0,
9,69012, Note_off_c,12,45,0,
9,69024, Note_on_c,12,67,90,
9,69024, Note_on_c,12,47,90,
9,69024, Note_on_c,12,59,90,
9,69024, Note_on_c,12,62,90,
9,69108, Note_off_c,12,62,0,
9,69108, Note_off_c,12,59,0,
9,69108, Note_off_c,12,47,0,
9,69108, Note_off_c,12,67,0,
9,69120, Note_on_c,12,48,90,
9,69120, Note_on_c,12,60,90,
9,69120, Note_on_c,12,64,90,
9,69120, Note_on_c,12,67,90,
9,69492, Note_off_c,12,67,0,
9,69492, Note_off_c,12,64,0,
9,69492, Note_off_c,12,60,0,
9,69492, Note_off_c,12,48,0,
9,69504, Note_on_c,12,47,90,
9,69504, Note_on_c,12,59,90,
9,69504, Note_on_c,12,62,90,
9,69504, Note_on_c,12,67,90,
9,69876, Note_off_c,12,67,0,
9,69876, Note_off_c,12,62,0,
9,69876, Note_off_c,12,59,0,
9,69888, Note_off_c,12,47,0,
9,69888, Note_on_c,12,57,90,
9,69888, Note_on_c,12,60,90,
9,69888, Note_on_c,12,64,90,
9,69888, Note_on_c,12,67,90,
9,69888, Note_on_c,12,33,90,
9,70020, Note_off_c,12,67,0,
9,70020, Note_off_c,12,64,0,
9,70020, Note_off_c,12,60,0,
9,70020, Note_off_c,12,57,0,
9,70032, Note_on_c,12,67,90,
9,70068, Note_off_c,12,67,0,
9,70080, Note_on_c,12,67,90,
9,70080, Note_on_c,12,64,90,
9,70080, Note_on_c,12,60,90,
9,70080, Note_on_c,12,57,90,
9,70164, Note_off_c,12,57,0,
9,70164, Note_off_c,12,60,0,
9,70164, Note_off_c,12,64,0,
9,70164, Note_off_c,12,67,0,
9,70176, Note_on_c,12,57,90,
9,70176, Note_on_c,12,60,90,
9,70176, Note_on_c,12,64,90,
9,70176, Note_on_c,12,67,90,
9,70356, Note_off_c,12,67,0,
9,70356, Note_off_c,12,64,0,
9,70356, Note_off_c,12,60,0,
9,70356, Note_off_c,12,57,0,
9,70368, Note_on_c,12,57,90,
9,70368, Note_on_c,12,60,90,
9,70368, Note_on_c,12,64,90,
9,70452, Note_off_c,12,64,0,
9,70452, Note_off_c,12,60,0,
9,70452, Note_off_c,12,57,0,
9,70548, Note_off_c,12,33,0,
9,70560, Note_on_c,12,38,90,
9,70560, Note_on_c,12,57,90,
9,70560, Note_on_c,12,67,90,
9,70560, Note_on_c,12,62,90,
9,70644, Note_off_c,12,62,0,
9,70644, Note_off_c,12,67,0,
9,70644, Note_off_c,12,57,0,
9,70752, Note_on_c,12,57,90,
9,70752, Note_on_c,12,62,90,
9,70752, Note_on_c,12,66,90,
9,71220, Note_off_c,12,66,0,
9,71220, Note_off_c,12,62,0,
9,71220, Note_off_c,12,57,0,
9,71412, Note_off_c,12,38,0,
9,71424, Note_on_c,12,57,90,
9,71424, Note_on_c,12,60,90,
9,71424, Note_on_c,12,64,90,
9,71424, Note_on_c,12,67,90,
9,71424, Note_on_c,12,33,90,
9,71556, Note_off_c,12,67,0,
9,71556, Note_off_c,12,64,0,
9,71556, Note_off_c,12,60,0,
9,71556, Note_off_c,12,57,0,
9,71568, Note_on_c,12,67,90,
9,71604, Note_off_c,12,67,0,
9,71616, Note_on_c,12,67,90,
9,71616, Note_on_c,12,64,90,
9,71616, Note_on_c,12,60,90,
9,71616, Note_on_c,12,57,90,
9,71700, Note_off_c,12,57,0,
9,71700, Note_off_c,12,60,0,
9,71700, Note_off_c,12,64,0,
9,71700, Note_off_c,12,67,0,
9,71712, Note_on_c,12,57,90,
9,71712, Note_on_c,12,60,90,
9,71712, Note_on_c,12,64,90,
9,71712, Note_on_c,12,67,90,
9,71892, Note_off_c,12,67,0,
9,71892, Note_off_c,12,64,0,
9,71892, Note_off_c,12,60,0,
9,71892, Note_off_c,12,57,0,
9,71904, Note_on_c,12,57,90,
9,71904, Note_on_c,12,60,90,
9,71904, Note_on_c,12,64,90,
9,71988, Note_off_c,12,64,0,
9,71988, Note_off_c,12,60,0,
9,71988, Note_off_c,12,57,0,
9,72084, Note_off_c,12,33,0,
9,72096, Note_on_c,12,67,90,
9,72096, Note_on_c,12,71,90,
9,72096, Note_on_c,12,62,90,
9,72096, Note_on_c,12,38,90,
9,72132, Note_off_c,12,38,0,
9,72144, Note_on_c,12,45,90,
9,72180, Note_off_c,12,62,0,
9,72180, Note_off_c,12,71,0,
9,72180, Note_off_c,12,67,0,
9,72192, Note_off_c,12,45,0,
9,72192, Note_on_c,12,50,90,
9,72288, Note_on_c,12,66,90,
9,72288, Note_on_c,12,69,90,
9,72288, Note_on_c,12,59,90,
9,72372, Note_off_c,12,59,0,
9,72372, Note_off_c,12,69,0,
9,72372, Note_off_c,12,66,0,
9,72468, Note_off_c,12,50,0,
9,72480, Note_on_c,12,57,90,
9,72480, Note_on_c,12,64,90,
9,72480, Note_on_c,12,67,90,
9,72480, Note_on_c,12,50,90,
9,72516, Note_off_c,12,50,0,
9,72528, Note_on_c,12,45,90,
9,72564, Note_off_c,12,67,0,
9,72564, Note_off_c,12,64,0,
9,72564, Note_off_c,12,57,0,
9,72564, Note_off_c,12,45,0,
9,72576, Note_on_c,12,38,90,
9,72672, Note_on_c,12,59,90,
9,72672, Note_on_c,12,66,90,
9,72672, Note_on_c,12,69,90,
9,72948, Note_off_c,12,69,0,
9,72948, Note_off_c,12,59,0,
9,72948, Note_off_c,12,38,0,
9,72960, Note_off_c,12,66,0,
9,72960, Note_on_c,12,57,90,
9,72960, Note_on_c,12,60,90,
9,72960, Note_on_c,12,64,90,
9,72960, Note_on_c,12,67,90,
9,72960, Note_on_c,12,33,90,
9,73092, Note_off_c,12,67,0,
9,73092, Note_off_c,12,64,0,
9,73092, Note_off_c,12,60,0,
9,73092, Note_off_c,12,57,0,
9,73104, Note_on_c,12,67,90,
9,73140, Note_off_c,12,67,0,
9,73152, Note_on_c,12,67,90,
9,73152, Note_on_c,12,64,90,
9,73152, Note_on_c,12,60,90,
9,73152, Note_on_c,12,57,90,
9,73236, Note_off_c,12,57,0,
9,73236, Note_off_c,12,60,0,
9,73236, Note_off_c,12,64,0,
9,73236, Note_off_c,12,33,0,
9,73236, Note_off_c,12,67,0,
9,73248, Note_on_c,12,57,90,
9,73248, Note_on_c,12,60,90,
9,73248, Note_on_c,12,64,90,
9,73248, Note_on_c,12,67,90,
9,73248, Note_on_c,12,33,90,
9,73428, Note_off_c,12,67,0,
9,73428, Note_off_c,12,64,0,
9,73428, Note_off_c,12,60,0,
9,73428, Note_off_c,12,57,0,
9,73440, Note_on_c,12,57,90,
9,73440, Note_on_c,12,60,90,
9,73440, Note_on_c,12,64,90,
9,73524, Note_off_c,12,64,0,
9,73524, Note_off_c,12,60,0,
9,73524, Note_off_c,12,57,0,
9,73620, Note_off_c,12,33,0,
9,73632, Note_on_c,12,38,90,
9,73632, Note_on_c,12,57,90,
9,73632, Note_on_c,12,67,90,
9,73632, Note_on_c,12,62,90,
9,73716, Note_off_c,12,62,0,
9,73716, Note_off_c,12,67,0,
9,73716, Note_off_c,12,57,0,
9,73824, Note_on_c,12,57,90,
9,73824, Note_on_c,12,62,90,
9,73824, Note_on_c,12,66,90,
9,74112, Note_on_c,12,54,90,
9,74196, Note_off_c,12,54,0,
9,74208, Note_on_c,12,50,90,
9,74244, Note_off_c,12,50,0,
9,74256, Note_on_c,12,55,90,
9,74292, Note_off_c,12,66,0,
9,74292, Note_off_c,12,62,0,
9,74292, Note_off_c,12,57,0,
9,74340, Note_off_c,12,55,0,
9,74352, Note_on_c,12,50,90,
9,74388, Note_off_c,12,50,0,
9,74400, Note_on_c,12,57,90,
9,74484, Note_off_c,12,38,0,
9,74484, Note_off_c,12,57,0,
9,74496, Note_on_c,12,57,90,
9,74496, Note_on_c,12,60,90,
9,74496, Note_on_c,12,64,90,
9,74496, Note_on_c,12,67,90,
9,74496, Note_on_c,12,33,90,
9,74628, Note_off_c,12,67,0,
9,74628, Note_off_c,12,64,0,
9,74628, Note_off_c,12,60,0,
9,74628, Note_off_c,12,57,0,
9,74640, Note_on_c,12,67,90,
9,74676, Note_off_c,12,67,0,
9,74688, Note_on_c,12,67,90,
9,74688, Note_on_c,12,64,90,
9,74688, Note_on_c,12,60,90,
9,74688, Note_on_c,12,57,90,
9,74772, Note_off_c,12,57,0,
9,74772, Note_off_c,12,60,0,
9,74772, Note_off_c,12,64,0,
9,74772, Note_off_c,12,67,0,
9,74784, Note_on_c,12,57,90,
9,74784, Note_on_c,12,60,90,
9,74784, Note_on_c,12,64,90,
9,74784, Note_on_c,12,67,90,
9,74964, Note_off_c,12,67,0,
9,74964, Note_off_c,12,64,0,
9,74964, Note_off_c,12,60,0,
9,74964, Note_off_c,12,57,0,
9,74976, Note_on_c,12,57,90,
9,74976, Note_on_c,12,60,90,
9,74976, Note_on_c,12,64,90,
9,75060, Note_off_c,12,64,0,
9,75060, Note_off_c,12,60,0,
9,75060, Note_off_c,12,57,0,
9,75156, Note_off_c,12,33,0,
9,75168, Note_on_c,12,67,90,
9,75168, Note_on_c,12,71,90,
9,75168, Note_on_c,12,62,90,
9,75168, Note_on_c,12,38,90,
9,75204, Note_off_c,12,38,0,
9,75216, Note_on_c,12,45,90,
9,75252, Note_off_c,12,62,0,
9,75252, Note_off_c,12,71,0,
9,75252, Note_off_c,12,67,0,
9,75264, Note_off_c,12,45,0,
9,75264, Note_on_c,12,50,90,
9,75360, Note_on_c,12,66,90,
9,75360, Note_on_c,12,69,90,
9,75360, Note_on_c,12,59,90,
9,75444, Note_off_c,12,59,0,
9,75444, Note_off_c,12,69,0,
9,75444, Note_off_c,12,66,0,
9,75540, Note_off_c,12,50,0,
9,75552, Note_on_c,12,57,90,
9,75552, Note_on_c,12,64,90,
9,75552, Note_on_c,12,67,90,
9,75552, Note_on_c,12,50,90,
9,75588, Note_off_c,12,50,0,
9,75600, Note_on_c,12,45,90,
9,75636, Note_off_c,12,67,0,
9,75636, Note_off_c,12,64,0,
9,75636, Note_off_c,12,57,0,
9,75636, Note_off_c,12,45,0,
9,75648, Note_on_c,12,38,90,
9,75744, Note_on_c,12,59,90,
9,75744, Note_on_c,12,66,90,
9,75744, Note_on_c,12,69,90,
9,76020, Note_off_c,12,69,0,
9,76020, Note_off_c,12,59,0,
9,76020, Note_off_c,12,38,0,
9,76032, Note_off_c,12,66,0,
9,76032, Note_on_c,12,60,90,
9,76032, Note_on_c,12,64,90,
9,76032, Note_on_c,12,67,90,
9,76032, Note_on_c,12,48,90,
9,76404, Note_off_c,12,48,0,
9,76404, Note_off_c,12,67,0,
9,76404, Note_off_c,12,64,0,
9,76404, Note_off_c,12,60,0,
9,76416, Note_on_c,12,59,90,
9,76416, Note_on_c,12,62,90,
9,76416, Note_on_c,12,67,90,
9,76416, Note_on_c,12,47,90,
9,76788, Note_off_c,12,47,0,
9,76788, Note_off_c,12,62,0,
9,76788, Note_off_c,12,59,0,
9,76800, Note_off_c,12,67,0,
9,76800, Note_on_c,12,60,90,
9,76800, Note_on_c,12,64,90,
9,76800, Note_on_c,12,45,90,
9,77184, Note_on_c,12,69,90,
9,77460, Note_off_c,12,69,0,
9,77460, Note_off_c,12,45,0,
9,77460, Note_off_c,12,64,0,
9,77460, Note_off_c,12,60,0,
9,77472, Note_on_c,12,59,90,
9,77472, Note_on_c,12,67,90,
9,77472, Note_on_c,12,47,90,
9,77556, Note_off_c,12,47,0,
9,77556, Note_off_c,12,67,0,
9,77556, Note_off_c,12,59,0,
9,77568, Note_on_c,12,60,90,
9,77568, Note_on_c,12,64,90,
9,77568, Note_on_c,12,67,90,
9,77568, Note_on_c,12,48,90,
9,77940, Note_off_c,12,48,0,
9,77940, Note_off_c,12,67,0,
9,77940, Note_off_c,12,64,0,
9,77940, Note_off_c,12,60,0,
9,77952, Note_on_c,12,59,90,
9,77952, Note_on_c,12,62,90,
9,77952, Note_on_c,12,67,90,
9,77952, Note_on_c,12,47,90,
9,78228, Note_off_c,12,47,0,
9,78228, Note_off_c,12,67,0,
9,78228, Note_off_c,12,62,0,
9,78228, Note_off_c,12,59,0,
9,78240, Note_on_c,12,60,90,
9,78240, Note_on_c,12,65,90,
9,78240, Note_on_c,12,69,90,
9,78240, Note_on_c,12,41,90,
9,78324, Note_off_c,12,41,0,
9,78324, Note_off_c,12,69,0,
9,78324, Note_off_c,12,65,0,
9,78324, Note_off_c,12,60,0,
9,78432, Note_on_c,12,64,90,
9,78432, Note_on_c,12,69,90,
9,78432, Note_on_c,12,72,90,
9,78432, Note_on_c,12,45,90,
9,78900, Note_off_c,12,45,0,
9,78912, Note_on_c,12,45,90,
9,78996, Note_off_c,12,72,0,
9,78996, Note_off_c,12,69,0,
9,78996, Note_off_c,12,64,0,
9,78996, Note_off_c,12,45,0,
9,79008, Note_on_c,12,67,90,
9,79008, Note_on_c,12,59,90,
9,79008, Note_on_c,12,47,90,
9,79092, Note_off_c,12,47,0,
9,79092, Note_off_c,12,59,0,
9,79092, Note_off_c,12,67,0,
9,79104, Note_on_c,12,60,90,
9,79104, Note_on_c,12,64,90,
9,79104, Note_on_c,12,67,90,
9,79104, Note_on_c,12,48,90,
9,79476, Note_off_c,12,48,0,
9,79476, Note_off_c,12,67,0,
9,79476, Note_off_c,12,64,0,
9,79476, Note_off_c,12,60,0,
9,79488, Note_on_c,12,59,90,
9,79488, Note_on_c,12,62,90,
9,79488, Note_on_c,12,67,90,
9,79488, Note_on_c,12,47,90,
9,79860, Note_off_c,12,47,0,
9,79860, Note_off_c,12,62,0,
9,79860, Note_off_c,12,59,0,
9,79872, Note_off_c,12,67,0,
9,79872, Note_on_c,12,60,90,
9,79872, Note_on_c,12,64,90,
9,79872, Note_on_c,12,45,90,
9,80352, Note_on_c,12,69,90,
9,80532, Note_off_c,12,69,0,
9,80532, Note_off_c,12,45,0,
9,80532, Note_off_c,12,64,0,
9,80532, Note_off_c,12,60,0,
9,80544, Note_on_c,12,59,90,
9,80544, Note_on_c,12,67,90,
9,80544, Note_on_c,12,47,90,
9,80628, Note_off_c,12,47,0,
9,80628, Note_off_c,12,67,0,
9,80628, Note_off_c,12,59,0,
9,80640, Note_on_c,12,60,90,
9,80640, Note_on_c,12,64,90,
9,80640, Note_on_c,12,67,90,
9,80640, Note_on_c,12,48,90,
9,81012, Note_off_c,12,48,0,
9,81012, Note_off_c,12,67,0,
9,81012, Note_off_c,12,64,0,
9,81012, Note_off_c,12,60,0,
9,81024, Note_on_c,12,59,90,
9,81024, Note_on_c,12,62,90,
9,81024, Note_on_c,12,67,90,
9,81024, Note_on_c,12,47,90,
9,81300, Note_off_c,12,47,0,
9,81300, Note_off_c,12,67,0,
9,81300, Note_off_c,12,62,0,
9,81300, Note_off_c,12,59,0,
9,81312, Note_on_c,12,60,90,
9,81312, Note_on_c,12,65,90,
9,81312, Note_on_c,12,69,90,
9,81312, Note_on_c,12,41,90,
9,81396, Note_off_c,12,41,0,
9,81396, Note_off_c,12,69,0,
9,81396, Note_off_c,12,65,0,
9,81396, Note_off_c,12,60,0,
9,81504, Note_on_c,12,64,90,
9,81504, Note_on_c,12,69,90,
9,81504, Note_on_c,12,72,90,
9,81504, Note_on_c,12,45,90,
9,82068, Note_off_c,12,45,0,
9,82068, Note_off_c,12,72,0,
9,82068, Note_off_c,12,69,0,
9,82068, Note_off_c,12,64,0,
9,82080, Note_on_c,12,67,90,
9,82080, Note_on_c,12,59,90,
9,82080, Note_on_c,12,47,90,
9,82164, Note_off_c,12,47,0,
9,82164, Note_off_c,12,59,0,
9,82164, Note_off_c,12,67,0,
9,82176, Note_on_c,12,60,90,
9,82176, Note_on_c,12,64,90,
9,82176, Note_on_c,12,67,90,
9,82176, Note_on_c,12,48,90,
9,82548, Note_off_c,12,48,0,
9,82548, Note_off_c,12,67,0,
9,82548, Note_off_c,12,64,0,
9,82548, Note_off_c,12,60,0,
9,82560, Note_on_c,12,59,90,
9,82560, Note_on_c,12,62,90,
9,82560, Note_on_c,12,67,90,
9,82560, Note_on_c,12,47,90,
9,82932, Note_off_c,12,47,0,
9,82932, Note_off_c,12,67,0,
9,82932, Note_off_c,12,62,0,
9,82944, Note_off_c,12,59,0,
9,82944, Note_on_c,12,67,90,
9,82944, Note_on_c,12,66,90,
9,82944, Note_on_c,12,62,90,
9,82944, Note_on_c,12,57,90,
9,82944, Note_on_c,12,50,90,
9,82945, Note_off_c,12,67,0,
9,83616, Note_off_c,12,66,0,
9,83616, Note_off_c,12,62,0,
9,83616, Note_off_c,12,57,0,
9,83616, Note_off_c,12,50,0,
9,83616, End_track,,,,
10,0, Start_track,,,,
10,0, Instrument_t,drum track          ,,,
10,0, Channel_prefix,9,,,
10,0, Control_c,9,7,90,
10,0, Program_c,9,33,,
10,62592, Note_on_c,9,40,64,
10,62676, Note_off_c,9,40,0,
10,62688, Note_on_c,9,47,114,
10,62772, Note_off_c,9,47,0,
10,62784, Note_on_c,9,43,114,
10,62868, Note_off_c,9,43,0,
10,62880, Note_on_c,9,35,124,
10,62964, Note_off_c,9,35,0,
10,62976, Note_on_c,9,42,84,
10,62976, Note_on_c,9,35,84,
10,62976, Note_on_c,9,57,94,
10,63048, Note_off_c,9,57,0,
10,63060, Note_off_c,9,35,0,
10,63060, Note_off_c,9,42,0,
10,63168, Note_on_c,9,42,84,
10,63168, Note_on_c,9,40,84,
10,63252, Note_off_c,9,42,0,
10,63264, Note_on_c,9,42,84,
10,63348, Note_off_c,9,40,0,
10,63348, Note_off_c,9,42,0,
10,63360, Note_on_c,9,42,84,
10,63360, Note_on_c,9,35,84,
10,63444, Note_off_c,9,35,0,
10,63444, Note_off_c,9,42,0,
10,63456, Note_on_c,9,42,84,
10,63540, Note_off_c,9,42,0,
10,63552, Note_on_c,9,42,84,
10,63552, Note_on_c,9,40,84,
10,63636, Note_off_c,9,42,0,
10,63648, Note_on_c,9,42,84,
10,63732, Note_off_c,9,40,0,
10,63732, Note_off_c,9,42,0,
10,63744, Note_on_c,9,35,84,
10,63744, Note_on_c,9,42,84,
10,63828, Note_off_c,9,42,0,
10,63828, Note_off_c,9,35,0,
10,63840, Note_on_c,9,42,84,
10,63924, Note_off_c,9,42,0,
10,63936, Note_on_c,9,40,84,
10,63936, Note_on_c,9,42,84,
10,64020, Note_off_c,9,42,0,
10,64032, Note_on_c,9,42,84,
10,64116, Note_off_c,9,40,0,
10,64116, Note_off_c,9,42,0,
10,64128, Note_on_c,9,35,84,
10,64128, Note_on_c,9,42,84,
10,64212, Note_off_c,9,42,0,
10,64212, Note_off_c,9,35,0,
10,64224, Note_on_c,9,35,84,
10,64224, Note_on_c,9,42,84,
10,64308, Note_off_c,9,42,0,
10,64308, Note_off_c,9,35,0,
10,64320, Note_on_c,9,40,84,
10,64320, Note_on_c,9,35,84,
10,64320, Note_on_c,9,42,84,
10,64404, Note_off_c,9,42,0,
10,64404, Note_off_c,9,35,0,
10,64404, Note_off_c,9,40,0,
10,64416, Note_on_c,9,35,84,
10,64416, Note_on_c,9,42,84,
10,64500, Note_off_c,9,42,0,
10,64500, Note_off_c,9,35,0,
10,64512, Note_on_c,9,35,84,
10,64512, Note_on_c,9,42,84,
10,64596, Note_off_c,9,42,0,
10,64596, Note_off_c,9,35,0,
10,64608, Note_on_c,9,42,84,
10,64692, Note_off_c,9,42,0,
10,64704, Note_on_c,9,40,84,
10,64704, Note_on_c,9,42,84,
10,64788, Note_off_c,9,42,0,
10,64788, Note_off_c,9,40,0,
10,64800, Note_on_c,9,42,84,
10,64884, Note_off_c,9,42,0,
10,64896, Note_on_c,9,35,84,
10,64896, Note_on_c,9,42,84,
10,64980, Note_off_c,9,42,0,
10,64980, Note_off_c,9,35,0,
10,64992, Note_on_c,9,48,84,
10,65028, Note_off_c,9,48,0,
10,65040, Note_on_c,9,48,84,
10,65076, Note_off_c,9,48,0,
10,65088, Note_on_c,9,48,84,
10,65124, Note_off_c,9,48,0,
10,65136, Note_on_c,9,48,84,
10,65172, Note_off_c,9,48,0,
10,65184, Note_on_c,9,35,84,
10,65184, Note_on_c,9,42,84,
10,65268, Note_off_c,9,42,0,
10,65280, Note_on_c,9,42,84,
10,65364, Note_off_c,9,35,0,
10,65364, Note_off_c,9,42,0,
10,65376, Note_on_c,9,35,84,
10,65376, Note_on_c,9,42,84,
10,65460, Note_off_c,9,42,0,
10,65460, Note_off_c,9,35,0,
10,65472, Note_on_c,9,40,84,
10,65472, Note_on_c,9,42,84,
10,65556, Note_off_c,9,42,0,
10,65556, Note_off_c,9,40,0,
10,65568, Note_on_c,9,42,84,
10,65652, Note_off_c,9,42,0,
10,65664, Note_on_c,9,42,84,
10,65748, Note_off_c,9,42,0,
10,65760, Note_on_c,9,35,84,
10,65760, Note_on_c,9,42,84,
10,65844, Note_off_c,9,42,0,
10,65844, Note_off_c,9,35,0,
10,65856, Note_on_c,9,40,84,
10,65856, Note_on_c,9,42,84,
10,65940, Note_off_c,9,42,0,
10,65940, Note_off_c,9,40,0,
10,65952, Note_on_c,9,35,84,
10,65952, Note_on_c,9,42,84,
10,66036, Note_off_c,9,42,0,
10,66036, Note_off_c,9,35,0,
10,66048, Note_on_c,9,35,84,
10,66048, Note_on_c,9,42,84,
10,66132, Note_off_c,9,42,0,
10,66132, Note_off_c,9,35,0,
10,66144, Note_on_c,9,42,84,
10,66228, Note_off_c,9,42,0,
10,66240, Note_on_c,9,40,84,
10,66240, Note_on_c,9,42,84,
10,66324, Note_off_c,9,42,0,
10,66336, Note_on_c,9,42,84,
10,66420, Note_off_c,9,40,0,
10,66420, Note_off_c,9,42,0,
10,66432, Note_on_c,9,35,84,
10,66432, Note_on_c,9,42,84,
10,66516, Note_off_c,9,42,0,
10,66516, Note_off_c,9,35,0,
10,66528, Note_on_c,9,35,84,
10,66528, Note_on_c,9,42,84,
10,66612, Note_off_c,9,42,0,
10,66612, Note_off_c,9,35,0,
10,66624, Note_on_c,9,40,84,
10,66624, Note_on_c,9,35,84,
10,66624, Note_on_c,9,42,84,
10,66708, Note_off_c,9,42,0,
10,66708, Note_off_c,9,35,0,
10,66708, Note_off_c,9,40,0,
10,66720, Note_on_c,9,35,84,
10,66720, Note_on_c,9,42,84,
10,66804, Note_off_c,9,42,0,
10,66804, Note_off_c,9,35,0,
10,66816, Note_on_c,9,35,84,
10,66816, Note_on_c,9,42,84,
10,66900, Note_off_c,9,42,0,
10,66900, Note_off_c,9,35,0,
10,66912, Note_on_c,9,42,84,
10,66996, Note_off_c,9,42,0,
10,67008, Note_on_c,9,40,84,
10,67008, Note_on_c,9,42,84,
10,67092, Note_off_c,9,42,0,
10,67104, Note_on_c,9,42,84,
10,67188, Note_off_c,9,40,0,
10,67188, Note_off_c,9,42,0,
10,67200, Note_on_c,9,35,84,
10,67200, Note_on_c,9,42,84,
10,67284, Note_off_c,9,42,0,
10,67284, Note_off_c,9,35,0,
10,67296, Note_on_c,9,35,84,
10,67296, Note_on_c,9,42,84,
10,67380, Note_off_c,9,42,0,
10,67380, Note_off_c,9,35,0,
10,67392, Note_on_c,9,40,84,
10,67392, Note_on_c,9,35,84,
10,67392, Note_on_c,9,42,84,
10,67476, Note_off_c,9,42,0,
10,67476, Note_off_c,9,35,0,
10,67476, Note_off_c,9,40,0,
10,67488, Note_on_c,9,35,84,
10,67488, Note_on_c,9,42,84,
10,67572, Note_off_c,9,42,0,
10,67572, Note_off_c,9,35,0,
10,67584, Note_on_c,9,35,84,
10,67584, Note_on_c,9,42,84,
10,67668, Note_off_c,9,42,0,
10,67668, Note_off_c,9,35,0,
10,67680, Note_on_c,9,42,84,
10,67764, Note_off_c,9,42,0,
10,67776, Note_on_c,9,40,84,
10,67776, Note_on_c,9,42,84,
10,67860, Note_off_c,9,42,0,
10,67860, Note_off_c,9,40,0,
10,67872, Note_on_c,9,42,84,
10,67956, Note_off_c,9,42,0,
10,67968, Note_on_c,9,35,84,
10,67968, Note_on_c,9,42,84,
10,68052, Note_off_c,9,42,0,
10,68100, Note_off_c,9,35,0,
10,68112, Note_on_c,9,48,84,
10,68148, Note_off_c,9,48,0,
10,68160, Note_on_c,9,48,84,
10,68196, Note_off_c,9,48,0,
10,68208, Note_on_c,9,48,84,
10,68244, Note_off_c,9,48,0,
10,68256, Note_on_c,9,35,84,
10,68256, Note_on_c,9,42,84,
10,68340, Note_off_c,9,42,0,
10,68352, Note_on_c,9,42,84,
10,68436, Note_off_c,9,35,0,
10,68436, Note_off_c,9,42,0,
10,68448, Note_on_c,9,35,84,
10,68448, Note_on_c,9,42,84,
10,68532, Note_off_c,9,42,0,
10,68532, Note_off_c,9,35,0,
10,68544, Note_on_c,9,40,84,
10,68544, Note_on_c,9,42,84,
10,68628, Note_off_c,9,42,0,
10,68628, Note_off_c,9,40,0,
10,68640, Note_on_c,9,42,84,
10,68724, Note_off_c,9,42,0,
10,68736, Note_on_c,9,42,84,
10,68820, Note_off_c,9,42,0,
10,68832, Note_on_c,9,35,84,
10,68832, Note_on_c,9,42,84,
10,68916, Note_off_c,9,42,0,
10,68916, Note_off_c,9,35,0,
10,68928, Note_on_c,9,40,84,
10,68928, Note_on_c,9,42,84,
10,69012, Note_off_c,9,42,0,
10,69012, Note_off_c,9,40,0,
10,69024, Note_on_c,9,35,84,
10,69024, Note_on_c,9,42,84,
10,69108, Note_off_c,9,42,0,
10,69108, Note_off_c,9,35,0,
10,69120, Note_on_c,9,42,64,
10,69120, Note_on_c,9,35,64,
10,69204, Note_off_c,9,42,0,
10,69216, Note_on_c,9,42,64,
10,69300, Note_off_c,9,35,0,
10,69300, Note_off_c,9,42,0,
10,69312, Note_on_c,9,42,64,
10,69312, Note_on_c,9,40,64,
10,69396, Note_off_c,9,42,0,
10,69408, Note_on_c,9,42,64,
10,69492, Note_off_c,9,40,0,
10,69492, Note_off_c,9,42,0,
10,69504, Note_on_c,9,42,64,
10,69504, Note_on_c,9,35,64,
10,69588, Note_off_c,9,35,0,
10,69588, Note_off_c,9,42,0,
10,69600, Note_on_c,9,42,64,
10,69600, Note_on_c,9,40,64,
10,69636, Note_off_c,9,40,0,
10,69648, Note_on_c,9,40,64,
10,69684, Note_off_c,9,42,0,
10,69732, Note_off_c,9,40,0,
10,69744, Note_on_c,9,40,64,
10,69780, Note_off_c,9,40,0,
10,69792, Note_on_c,9,40,64,
10,69828, Note_off_c,9,40,0,
10,69840, Note_on_c,9,40,64,
10,69876, Note_off_c,9,40,0,
10,69888, Note_on_c,9,35,64,
10,69888, Note_on_c,9,59,64,
10,69924, Note_off_c,9,59,0,
10,69972, Note_off_c,9,35,0,
10,69984, Note_on_c,9,59,64,
10,70020, Note_off_c,9,59,0,
10,70080, Note_on_c,9,40,64,
10,70080, Note_on_c,9,59,64,
10,70116, Note_off_c,9,59,0,
10,70164, Note_off_c,9,40,0,
10,70176, Note_on_c,9,35,64,
10,70176, Note_on_c,9,59,64,
10,70212, Note_off_c,9,59,0,
10,70272, Note_on_c,9,59,64,
10,70308, Note_off_c,9,59,0,
10,70356, Note_off_c,9,35,0,
10,70368, Note_on_c,9,35,64,
10,70368, Note_on_c,9,59,64,
10,70404, Note_off_c,9,59,0,
10,70452, Note_off_c,9,35,0,
10,70464, Note_on_c,9,40,64,
10,70464, Note_on_c,9,59,64,
10,70500, Note_off_c,9,59,0,
10,70548, Note_off_c,9,40,0,
10,70560, Note_on_c,9,35,64,
10,70560, Note_on_c,9,59,64,
10,70596, Note_off_c,9,59,0,
10,70644, Note_off_c,9,35,0,
10,70656, Note_on_c,9,35,64,
10,70656, Note_on_c,9,59,64,
10,70692, Note_off_c,9,59,0,
10,70692, Note_off_c,9,35,0,
10,70704, Note_on_c,9,40,64,
10,70740, Note_off_c,9,40,0,
10,70752, Note_on_c,9,35,64,
10,70752, Note_on_c,9,59,64,
10,70788, Note_off_c,9,59,0,
10,70836, Note_off_c,9,35,0,
10,70848, Note_on_c,9,40,64,
10,70848, Note_on_c,9,59,64,
10,70884, Note_off_c,9,59,0,
10,70932, Note_off_c,9,40,0,
10,70944, Note_on_c,9,59,64,
10,70980, Note_off_c,9,59,0,
10,70992, Note_on_c,9,40,64,
10,71028, Note_off_c,9,40,0,
10,71040, Note_on_c,9,35,64,
10,71040, Note_on_c,9,59,64,
10,71076, Note_off_c,9,59,0,
10,71076, Note_off_c,9,35,0,
10,71088, Note_on_c,9,40,64,
10,71124, Note_off_c,9,40,0,
10,71136, Note_on_c,9,40,64,
10,71136, Note_on_c,9,59,64,
10,71172, Note_off_c,9,59,0,
10,71172, Note_off_c,9,40,0,
10,71184, Note_on_c,9,35,64,
10,71220, Note_off_c,9,35,0,
10,71232, Note_on_c,9,35,64,
10,71232, Note_on_c,9,59,64,
10,71268, Note_off_c,9,59,0,
10,71268, Note_off_c,9,35,0,
10,71280, Note_on_c,9,40,64,
10,71316, Note_off_c,9,40,0,
10,71328, Note_on_c,9,40,64,
10,71328, Note_on_c,9,59,64,
10,71364, Note_off_c,9,59,0,
10,71364, Note_off_c,9,40,0,
10,71376, Note_on_c,9,40,64,
10,71412, Note_off_c,9,40,0,
10,71424, Note_on_c,9,35,64,
10,71424, Note_on_c,9,59,64,
10,71460, Note_off_c,9,59,0,
10,71520, Note_on_c,9,59,64,
10,71556, Note_off_c,9,59,0,
10,71604, Note_off_c,9,35,0,
10,71616, Note_on_c,9,40,64,
10,71616, Note_on_c,9,59,64,
10,71652, Note_off_c,9,59,0,
10,71652, Note_off_c,9,40,0,
10,71712, Note_on_c,9,35,64,
10,71712, Note_on_c,9,59,64,
10,71748, Note_off_c,9,59,0,
10,71808, Note_on_c,9,59,64,
10,71844, Note_off_c,9,59,0,
10,71892, Note_off_c,9,35,0,
10,71904, Note_on_c,9,35,64,
10,71904, Note_on_c,9,59,64,
10,71940, Note_off_c,9,59,0,
10,71988, Note_off_c,9,35,0,
10,72000, Note_on_c,9,40,64,
10,72000, Note_on_c,9,59,64,
10,72036, Note_off_c,9,59,0,
10,72036, Note_off_c,9,40,0,
10,72096, Note_on_c,9,35,64,
10,72096, Note_on_c,9,59,64,
10,72132, Note_off_c,9,59,0,
10,72192, Note_on_c,9,59,64,
10,72228, Note_off_c,9,59,0,
10,72276, Note_off_c,9,35,0,
10,72288, Note_on_c,9,59,64,
10,72288, Note_on_c,9,35,64,
10,72324, Note_off_c,9,35,0,
10,72324, Note_off_c,9,59,0,
10,72384, Note_on_c,9,59,64,
10,72384, Note_on_c,9,40,64,
10,72420, Note_off_c,9,40,0,
10,72420, Note_off_c,9,59,0,
10,72480, Note_on_c,9,59,64,
10,72480, Note_on_c,9,35,64,
10,72516, Note_off_c,9,35,0,
10,72516, Note_off_c,9,59,0,
10,72576, Note_on_c,9,59,64,
10,72612, Note_off_c,9,59,0,
10,72624, Note_on_c,9,47,64,
10,72660, Note_off_c,9,47,0,
10,72672, Note_on_c,9,59,64,
10,72672, Note_on_c,9,47,64,
10,72708, Note_off_c,9,47,0,
10,72708, Note_off_c,9,59,0,
10,72768, Note_on_c,9,59,64,
10,72768, Note_on_c,9,40,64,
10,72804, Note_off_c,9,40,0,
10,72804, Note_off_c,9,59,0,
10,72864, Note_on_c,9,59,64,
10,72864, Note_on_c,9,35,64,
10,72900, Note_off_c,9,35,0,
10,72900, Note_off_c,9,59,0,
10,72960, Note_on_c,9,59,64,
10,72960, Note_on_c,9,35,64,
10,72996, Note_off_c,9,35,0,
10,72996, Note_off_c,9,59,0,
10,73056, Note_on_c,9,59,64,
10,73092, Note_off_c,9,59,0,
10,73152, Note_on_c,9,59,64,
10,73152, Note_on_c,9,40,64,
10,73188, Note_off_c,9,40,0,
10,73188, Note_off_c,9,59,0,
10,73248, Note_on_c,9,59,64,
10,73248, Note_on_c,9,35,64,
10,73284, Note_off_c,9,35,0,
10,73284, Note_off_c,9,59,0,
10,73344, Note_on_c,9,59,64,
10,73380, Note_off_c,9,59,0,
10,73440, Note_on_c,9,59,64,
10,73440, Note_on_c,9,35,64,
10,73476, Note_off_c,9,35,0,
10,73476, Note_off_c,9,59,0,
10,73536, Note_on_c,9,59,64,
10,73536, Note_on_c,9,40,64,
10,73572, Note_off_c,9,40,0,
10,73572, Note_off_c,9,59,0,
10,73632, Note_on_c,9,59,64,
10,73632, Note_on_c,9,35,64,
10,73668, Note_off_c,9,35,0,
10,73668, Note_off_c,9,59,0,
10,73728, Note_on_c,9,59,64,
10,73764, Note_off_c,9,59,0,
10,73776, Note_on_c,9,40,64,
10,73812, Note_off_c,9,40,0,
10,73824, Note_on_c,9,59,64,
10,73824, Note_on_c,9,35,64,
10,73860, Note_off_c,9,35,0,
10,73860, Note_off_c,9,59,0,
10,73920, Note_on_c,9,59,64,
10,73920, Note_on_c,9,40,64,
10,73956, Note_off_c,9,40,0,
10,73956, Note_off_c,9,59,0,
10,74016, Note_on_c,9,59,64,
10,74052, Note_off_c,9,59,0,
10,74064, Note_on_c,9,40,64,
10,74100, Note_off_c,9,40,0,
10,74112, Note_on_c,9,59,64,
10,74112, Note_on_c,9,35,64,
10,74148, Note_off_c,9,35,0,
10,74148, Note_off_c,9,59,0,
10,74160, Note_on_c,9,40,64,
10,74196, Note_off_c,9,40,0,
10,74208, Note_on_c,9,59,64,
10,74208, Note_on_c,9,40,64,
10,74244, Note_off_c,9,40,0,
10,74244, Note_off_c,9,59,0,
10,74256, Note_on_c,9,35,64,
10,74292, Note_off_c,9,35,0,
10,74304, Note_on_c,9,59,64,
10,74304, Note_on_c,9,35,64,
10,74340, Note_off_c,9,35,0,
10,74340, Note_off_c,9,59,0,
10,74352, Note_on_c,9,40,64,
10,74388, Note_off_c,9,40,0,
10,74400, Note_on_c,9,59,64,
10,74400, Note_on_c,9,40,64,
10,74436, Note_off_c,9,40,0,
10,74436, Note_off_c,9,59,0,
10,74448, Note_on_c,9,40,64,
10,74484, Note_off_c,9,40,0,
10,74496, Note_on_c,9,59,64,
10,74496, Note_on_c,9,35,64,
10,74532, Note_off_c,9,35,0,
10,74532, Note_off_c,9,59,0,
10,74592, Note_on_c,9,59,64,
10,74628, Note_off_c,9,59,0,
10,74688, Note_on_c,9,59,64,
10,74688, Note_on_c,9,40,64,
10,74724, Note_off_c,9,40,0,
10,74724, Note_off_c,9,59,0,
10,74784, Note_on_c,9,59,64,
10,74784, Note_on_c,9,35,64,
10,74820, Note_off_c,9,35,0,
10,74820, Note_off_c,9,59,0,
10,74880, Note_on_c,9,59,64,
10,74916, Note_off_c,9,59,0,
10,74976, Note_on_c,9,59,64,
10,74976, Note_on_c,9,35,64,
10,75012, Note_off_c,9,35,0,
10,75012, Note_off_c,9,59,0,
10,75072, Note_on_c,9,59,64,
10,75072, Note_on_c,9,40,64,
10,75108, Note_off_c,9,40,0,
10,75108, Note_off_c,9,59,0,
10,75168, Note_on_c,9,59,64,
10,75168, Note_on_c,9,35,64,
10,75204, Note_off_c,9,35,0,
10,75204, Note_off_c,9,59,0,
10,75264, Note_on_c,9,59,64,
10,75300, Note_off_c,9,59,0,
10,75360, Note_on_c,9,59,64,
10,75360, Note_on_c,9,35,64,
10,75396, Note_off_c,9,35,0,
10,75396, Note_off_c,9,59,0,
10,75456, Note_on_c,9,59,64,
10,75456, Note_on_c,9,40,64,
10,75492, Note_off_c,9,40,0,
10,75492, Note_off_c,9,59,0,
10,75552, Note_on_c,9,59,64,
10,75552, Note_on_c,9,35,64,
10,75588, Note_off_c,9,35,0,
10,75588, Note_off_c,9,59,0,
10,75648, Note_on_c,9,40,64,
10,75684, Note_off_c,9,40,0,
10,75792, Note_on_c,9,40,64,
10,75828, Note_off_c,9,40,0,
10,75840, Note_on_c,9,40,64,
10,75876, Note_off_c,9,40,0,
10,75936, Note_on_c,9,40,64,
10,75972, Note_off_c,9,40,0,
10,76032, Note_on_c,9,35,64,
10,76032, Note_on_c,9,57,90,
10,76068, Note_off_c,9,35,0,
10,76128, Note_on_c,9,35,64,
10,76164, Note_off_c,9,35,0,
10,76212, Note_off_c,9,57,0,
10,76224, Note_on_c,9,42,64,
10,76224, Note_on_c,9,40,64,
10,76260, Note_off_c,9,40,0,
10,76260, Note_off_c,9,42,0,
10,76320, Note_on_c,9,42,64,
10,76356, Note_off_c,9,42,0,
10,76368, Note_on_c,9,35,64,
10,76404, Note_off_c,9,35,0,
10,76416, Note_on_c,9,35,64,
10,76416, Note_on_c,9,42,64,
10,76452, Note_off_c,9,42,0,
10,76452, Note_off_c,9,35,0,
10,76512, Note_on_c,9,42,64,
10,76548, Note_off_c,9,42,0,
10,76608, Note_on_c,9,42,64,
10,76608, Note_on_c,9,40,64,
10,76644, Note_off_c,9,40,0,
10,76644, Note_off_c,9,42,0,
10,76704, Note_on_c,9,42,64,
10,76740, Note_off_c,9,42,0,
10,76800, Note_on_c,9,35,64,
10,76800, Note_on_c,9,42,64,
10,76836, Note_off_c,9,42,0,
10,76836, Note_off_c,9,35,0,
10,76896, Note_on_c,9,42,64,
10,76932, Note_off_c,9,42,0,
10,76992, Note_on_c,9,42,64,
10,76992, Note_on_c,9,40,64,
10,77028, Note_off_c,9,40,0,
10,77028, Note_off_c,9,42,0,
10,77088, Note_on_c,9,42,64,
10,77124, Note_off_c,9,42,0,
10,77136, Note_on_c,9,42,64,
10,77172, Note_off_c,9,42,0,
10,77184, Note_on_c,9,35,64,
10,77184, Note_on_c,9,42,64,
10,77220, Note_off_c,9,42,0,
10,77220, Note_off_c,9,35,0,
10,77280, Note_on_c,9,42,64,
10,77316, Note_off_c,9,42,0,
10,77376, Note_on_c,9,42,64,
10,77376, Note_on_c,9,40,64,
10,77412, Note_off_c,9,40,0,
10,77412, Note_off_c,9,42,0,
10,77472, Note_on_c,9,42,64,
10,77508, Note_off_c,9,42,0,
10,77520, Note_on_c,9,35,64,
10,77520, Note_on_c,9,42,64,
10,77556, Note_off_c,9,42,0,
10,77556, Note_off_c,9,35,0,
10,77568, Note_on_c,9,35,64,
10,77568, Note_on_c,9,42,64,
10,77604, Note_off_c,9,42,0,
10,77604, Note_off_c,9,35,0,
10,77664, Note_on_c,9,42,64,
10,77700, Note_off_c,9,42,0,
10,77760, Note_on_c,9,42,64,
10,77760, Note_on_c,9,40,64,
10,77796, Note_off_c,9,40,0,
10,77796, Note_off_c,9,42,0,
10,77856, Note_on_c,9,42,64,
10,77892, Note_off_c,9,42,0,
10,77904, Note_on_c,9,42,64,
10,77940, Note_off_c,9,42,0,
10,77952, Note_on_c,9,35,64,
10,77952, Note_on_c,9,42,64,
10,77988, Note_off_c,9,42,0,
10,77988, Note_off_c,9,35,0,
10,78000, Note_on_c,9,40,64,
10,78036, Note_off_c,9,40,0,
10,78048, Note_on_c,9,42,64,
10,78048, Note_on_c,9,40,64,
10,78084, Note_off_c,9,40,0,
10,78084, Note_off_c,9,42,0,
10,78096, Note_on_c,9,40,64,
10,78132, Note_off_c,9,40,0,
10,78144, Note_on_c,9,42,64,
10,78144, Note_on_c,9,40,64,
10,78180, Note_off_c,9,40,0,
10,78180, Note_off_c,9,42,0,
10,78192, Note_on_c,9,40,64,
10,78228, Note_off_c,9,40,0,
10,78240, Note_on_c,9,42,64,
10,78240, Note_on_c,9,35,64,
10,78240, Note_on_c,9,40,64,
10,78276, Note_off_c,9,40,0,
10,78276, Note_off_c,9,35,0,
10,78276, Note_off_c,9,42,0,
10,78336, Note_on_c,9,42,64,
10,78372, Note_off_c,9,42,0,
10,78432, Note_on_c,9,42,64,
10,78468, Note_off_c,9,42,0,
10,78528, Note_on_c,9,35,64,
10,78528, Note_on_c,9,42,64,
10,78528, Note_on_c,9,40,64,
10,78564, Note_off_c,9,40,0,
10,78564, Note_off_c,9,42,0,
10,78564, Note_off_c,9,35,0,
10,78624, Note_on_c,9,42,64,
10,78660, Note_off_c,9,42,0,
10,78672, Note_on_c,9,42,64,
10,78708, Note_off_c,9,42,0,
10,78720, Note_on_c,9,42,64,
10,78756, Note_off_c,9,42,0,
10,78816, Note_on_c,9,35,64,
10,78816, Note_on_c,9,42,64,
10,78852, Note_off_c,9,42,0,
10,78852, Note_off_c,9,35,0,
10,78912, Note_on_c,9,42,64,
10,78912, Note_on_c,9,40,64,
10,78948, Note_off_c,9,40,0,
10,78948, Note_off_c,9,42,0,
10,79008, Note_on_c,9,42,64,
10,79044, Note_off_c,9,42,0,
10,79056, Note_on_c,9,42,64,
10,79092, Note_off_c,9,42,0,
10,79104, Note_on_c,9,35,64,
10,79104, Note_on_c,9,42,64,
10,79140, Note_off_c,9,42,0,
10,79140, Note_off_c,9,35,0,
10,79200, Note_on_c,9,42,64,
10,79236, Note_off_c,9,42,0,
10,79296, Note_on_c,9,42,64,
10,79296, Note_on_c,9,40,64,
10,79332, Note_off_c,9,40,0,
10,79332, Note_off_c,9,42,0,
10,79392, Note_on_c,9,42,64,
10,79428, Note_off_c,9,42,0,
10,79488, Note_on_c,9,35,64,
10,79488, Note_on_c,9,42,64,
10,79524, Note_off_c,9,42,0,
10,79524, Note_off_c,9,35,0,
10,79584, Note_on_c,9,35,64,
10,79584, Note_on_c,9,42,64,
10,79620, Note_off_c,9,42,0,
10,79620, Note_off_c,9,35,0,
10,79680, Note_on_c,9,42,64,
10,79680, Note_on_c,9,40,64,
10,79716, Note_off_c,9,40,0,
10,79716, Note_off_c,9,42,0,
10,79776, Note_on_c,9,35,64,
10,79776, Note_on_c,9,42,64,
10,79812, Note_off_c,9,42,0,
10,79812, Note_off_c,9,35,0,
10,79872, Note_on_c,9,35,64,
10,79872, Note_on_c,9,42,64,
10,79908, Note_off_c,9,42,0,
10,79908, Note_off_c,9,35,0,
10,79968, Note_on_c,9,42,64,
10,80004, Note_off_c,9,42,0,
10,80064, Note_on_c,9,42,64,
10,80064, Note_on_c,9,40,64,
10,80100, Note_off_c,9,40,0,
10,80100, Note_off_c,9,42,0,
10,80160, Note_on_c,9,42,64,
10,80196, Note_off_c,9,42,0,
10,80208, Note_on_c,9,35,64,
10,80208, Note_on_c,9,42,64,
10,80244, Note_off_c,9,42,0,
10,80244, Note_off_c,9,35,0,
10,80256, Note_on_c,9,35,64,
10,80256, Note_on_c,9,42,64,
10,80292, Note_off_c,9,42,0,
10,80292, Note_off_c,9,35,0,
10,80352, Note_on_c,9,35,64,
10,80352, Note_on_c,9,42,64,
10,80388, Note_off_c,9,42,0,
10,80388, Note_off_c,9,35,0,
10,80448, Note_on_c,9,42,64,
10,80448, Note_on_c,9,40,64,
10,80484, Note_off_c,9,40,0,
10,80484, Note_off_c,9,42,0,
10,80544, Note_on_c,9,35,64,
10,80544, Note_on_c,9,42,64,
10,80580, Note_off_c,9,42,0,
10,80580, Note_off_c,9,35,0,
10,80640, Note_on_c,9,35,64,
10,80640, Note_on_c,9,42,64,
10,80676, Note_off_c,9,42,0,
10,80676, Note_off_c,9,35,0,
10,80736, Note_on_c,9,42,64,
10,80772, Note_off_c,9,42,0,
10,80832, Note_on_c,9,42,64,
10,80832, Note_on_c,9,40,64,
10,80868, Note_off_c,9,40,0,
10,80868, Note_off_c,9,42,0,
10,80928, Note_on_c,9,42,64,
10,80964, Note_off_c,9,42,0,
10,80976, Note_on_c,9,35,64,
10,80976, Note_on_c,9,42,64,
10,81012, Note_off_c,9,42,0,
10,81012, Note_off_c,9,35,0,
10,81024, Note_on_c,9,35,64,
10,81024, Note_on_c,9,42,64,
10,81060, Note_off_c,9,42,0,
10,81060, Note_off_c,9,35,0,
10,81120, Note_on_c,9,42,64,
10,81120, Note_on_c,9,40,64,
10,81156, Note_off_c,9,40,0,
10,81156, Note_off_c,9,42,0,
10,81168, Note_on_c,9,40,64,
10,81204, Note_off_c,9,40,0,
10,81216, Note_on_c,9,42,64,
10,81216, Note_on_c,9,40,64,
10,81252, Note_off_c,9,40,0,
10,81252, Note_off_c,9,42,0,
10,81264, Note_on_c,9,40,64,
10,81300, Note_off_c,9,40,0,
10,81312, Note_on_c,9,35,64,
10,81312, Note_on_c,9,42,64,
10,81312, Note_on_c,9,40,64,
10,81348, Note_off_c,9,40,0,
10,81348, Note_off_c,9,42,0,
10,81348, Note_off_c,9,35,0,
10,81408, Note_on_c,9,42,64,
10,81444, Note_off_c,9,42,0,
10,81504, Note_on_c,9,35,64,
10,81504, Note_on_c,9,42,64,
10,81540, Note_off_c,9,42,0,
10,81540, Note_off_c,9,35,0,
10,81600, Note_on_c,9,42,64,
10,81600, Note_on_c,9,40,64,
10,81636, Note_off_c,9,40,0,
10,81636, Note_off_c,9,42,0,
10,81696, Note_on_c,9,42,64,
10,81732, Note_off_c,9,42,0,
10,81744, Note_on_c,9,42,64,
10,81780, Note_off_c,9,42,0,
10,81792, Note_on_c,9,42,64,
10,81828, Note_off_c,9,42,0,
10,81888, Note_on_c,9,35,64,
10,81888, Note_on_c,9,42,64,
10,81924, Note_off_c,9,42,0,
10,81924, Note_off_c,9,35,0,
10,81984, Note_on_c,9,42,64,
10,81984, Note_on_c,9,40,64,
10,82020, Note_off_c,9,40,0,
10,82020, Note_off_c,9,42,0,
10,82080, Note_on_c,9,42,64,
10,82116, Note_off_c,9,42,0,
10,82128, Note_on_c,9,42,64,
10,82164, Note_off_c,9,42,0,
10,82176, Note_on_c,9,42,64,
10,82176, Note_on_c,9,35,64,
10,82212, Note_off_c,9,35,0,
10,82212, Note_off_c,9,42,0,
10,82272, Note_on_c,9,42,64,
10,82272, Note_on_c,9,35,64,
10,82308, Note_off_c,9,35,0,
10,82308, Note_off_c,9,42,0,
10,82368, Note_on_c,9,42,64,
10,82368, Note_on_c,9,40,64,
10,82404, Note_off_c,9,40,0,
10,82404, Note_off_c,9,42,0,
10,82464, Note_on_c,9,42,64,
10,82464, Note_on_c,9,35,64,
10,82500, Note_off_c,9,35,0,
10,82500, Note_off_c,9,42,0,
10,82512, Note_on_c,9,42,64,
10,82548, Note_off_c,9,42,0,
10,82560, Note_on_c,9,42,64,
10,82560, Note_on_c,9,35,64,
10,82596, Note_off_c,9,35,0,
10,82596, Note_off_c,9,42,0,
10,82656, Note_on_c,9,42,64,
10,82656, Note_on_c,9,35,64,
10,82692, Note_off_c,9,35,0,
10,82692, Note_off_c,9,42,0,
10,82752, Note_on_c,9,42,64,
10,82752, Note_on_c,9,40,64,
10,82788, Note_off_c,9,40,0,
10,82788, Note_off_c,9,42,0,
10,82848, Note_on_c,9,42,64,
10,82848, Note_on_c,9,40,64,
10,82884, Note_off_c,9,40,0,
10,82884, Note_off_c,9,42,0,
10,82896, Note_on_c,9,40,64,
10,82932, Note_off_c,9,40,0,
10,82944, Note_on_c,9,40,64,
10,82944, Note_on_c,9,35,64,
10,82944, Note_on_c,9,57,94,
10,82980, Note_off_c,9,57,0,
10,82980, Note_off_c,9,35,0,
10,82980, Note_off_c,9,40,0,
10,83616, Note_on_c,9,43,64,
10,83652, Note_off_c,9,43,0,
10,83664, Note_on_c,9,43,64,
10,83700, Note_off_c,9,43,0,
10,83712, Note_on_c,9,43,64,
10,83748, Note_off_c,9,43,0,
10,84000, Note_on_c,9,43,64,
10,84036, Note_off_c,9,43,0,
10,84048, Note_on_c,9,43,64,
10,84084, Note_off_c,9,43,0,
10,84096, Note_on_c,9,43,64,
10,84132, Note_off_c,9,43,0,
10,84384, Note_on_c,9,43,64,
10,84420, Note_off_c,9,43,0,
10,84432, Note_on_c,9,43,64,
10,84468, Note_off_c,9,43,0,
10,84480, Note_on_c,9,43,64,
10,84512, Note_off_c,9,43,0,
10,84672, Note_on_c,9,43,64,
10,84704, Note_off_c,9,43,0,
10,84864, Note_on_c,9,43,64,
10,84896, Note_off_c,9,43,0,
10,85056, Note_on_c,9,35,94,
10,85056, Note_on_c,9,57,94,
10,85088, Note_off_c,9,57,0,
10,85088, Note_off_c,9,35,0,
10,86688, Note_on_c,9,43,114,
10,86724, Note_off_c,9,43,0,
10,86736, Note_on_c,9,43,114,
10,86772, Note_off_c,9,43,0,
10,86784, Note_on_c,9,43,114,
10,86820, Note_off_c,9,43,0,
10,87072, Note_on_c,9,43,114,
10,87108, Note_off_c,9,43,0,
10,87120, Note_on_c,9,43,114,
10,87156, Note_off_c,9,43,0,
10,87168, Note_on_c,9,43,114,
10,87204, Note_off_c,9,43,0,
10,87456, Note_on_c,9,43,114,
10,87492, Note_off_c,9,43,0,
10,87504, Note_on_c,9,43,114,
10,87540, Note_off_c,9,43,0,
10,87552, Note_on_c,9,43,114,
10,87584, Note_off_c,9,43,0,
10,87744, Note_on_c,9,43,114,
10,87776, Note_off_c,9,43,0,
10,87936, Note_on_c,9,43,114,
10,87968, Note_off_c,9,43,0,
10,88128, Note_on_c,9,35,114,
10,88128, Note_on_c,9,57,124,
10,88160, Note_off_c,9,57,0,
10,88160, Note_off_c,9,35,0,
10,88308, Note_on_c,9,35,94,
10,88320, Note_on_c,9,42,94,
10,88344, Note_off_c,9,35,0,
10,88356, Note_off_c,9,42,0,
10,88416, Note_on_c,9,40,94,
10,88424, Note_on_c,9,42,94,
10,88452, Note_off_c,9,40,0,
10,88460, Note_off_c,9,42,0,
10,88520, Note_on_c,9,42,94,
10,88556, Note_off_c,9,42,0,
10,88608, Note_on_c,9,35,94,
10,88616, Note_on_c,9,42,94,
10,88644, Note_off_c,9,35,0,
10,88652, Note_off_c,9,42,0,
10,88704, Note_on_c,9,35,94,
10,88712, Note_on_c,9,42,94,
10,88740, Note_off_c,9,35,0,
10,88748, Note_off_c,9,42,0,
10,88800, Note_on_c,9,40,94,
10,88808, Note_on_c,9,42,94,
10,88836, Note_off_c,9,40,0,
10,88844, Note_off_c,9,42,0,
10,88904, Note_on_c,9,42,94,
10,88940, Note_off_c,9,42,0,
10,88992, Note_on_c,9,35,94,
10,88992, Note_on_c,9,57,127,
10,89028, Note_off_c,9,57,0,
10,89028, Note_off_c,9,35,0,
10,89088, Note_on_c,9,40,94,
10,89124, Note_off_c,9,40,0,
10,89136, Note_on_c,9,40,94,
10,89172, Note_off_c,9,40,0,
10,89184, Note_on_c,9,40,94,
10,89220, Note_off_c,9,40,0,
10,89284, Note_on_c,9,47,94,
10,89320, Note_off_c,9,47,0,
10,89332, Note_on_c,9,47,94,
10,89368, Note_off_c,9,47,0,
10,89376, Note_on_c,9,47,94,
10,89412, Note_off_c,9,47,0,
10,89476, Note_on_c,9,43,94,
10,89512, Note_off_c,9,43,0,
10,89568, Note_on_c,9,42,94,
10,89568, Note_on_c,9,43,94,
10,89604, Note_off_c,9,43,0,
10,89604, Note_off_c,9,42,0,
10,89664, Note_on_c,9,35,94,
10,89700, Note_off_c,9,35,0,
10,89760, Note_on_c,9,57,127,
10,89760, Note_on_c,9,35,94,
10,89796, Note_off_c,9,35,0,
10,89796, Note_off_c,9,57,0,
10,89952, Note_on_c,9,42,94,
10,89952, Note_on_c,9,40,94,
10,89988, Note_off_c,9,40,0,
10,89988, Note_off_c,9,42,0,
10,90048, Note_on_c,9,42,94,
10,90084, Note_off_c,9,42,0,
10,90144, Note_on_c,9,42,94,
10,90144, Note_on_c,9,35,94,
10,90180, Note_off_c,9,35,0,
10,90180, Note_off_c,9,42,0,
10,90240, Note_on_c,9,42,94,
10,90240, Note_on_c,9,35,94,
10,90276, Note_off_c,9,35,0,
10,90276, Note_off_c,9,42,0,
10,90336, Note_on_c,9,42,94,
10,90336, Note_on_c,9,40,94,
10,90372, Note_off_c,9,40,0,
10,90372, Note_off_c,9,42,0,
10,90432, Note_on_c,9,42,94,
10,90468, Note_off_c,9,42,0,
10,90480, Note_on_c,9,35,94,
10,90516, Note_off_c,9,35,0,
10,90528, Note_on_c,9,42,94,
10,90528, Note_on_c,9,35,94,
10,90564, Note_off_c,9,35,0,
10,90564, Note_off_c,9,42,0,
10,90624, Note_on_c,9,42,94,
10,90624, Note_on_c,9,40,94,
10,90660, Note_off_c,9,40,0,
10,90660, Note_off_c,9,42,0,
10,90720, Note_on_c,9,42,94,
10,90756, Note_off_c,9,42,0,
10,90768, Note_on_c,9,40,94,
10,90804, Note_off_c,9,40,0,
10,90816, Note_on_c,9,42,94,
10,90816, Note_on_c,9,35,94,
10,90852, Note_off_c,9,35,0,
10,90852, Note_off_c,9,42,0,
10,90912, Note_on_c,9,42,94,
10,90912, Note_on_c,9,35,94,
10,90948, Note_off_c,9,35,0,
10,90948, Note_off_c,9,42,0,
10,91008, Note_on_c,9,42,94,
10,91008, Note_on_c,9,40,94,
10,91044, Note_off_c,9,40,0,
10,91044, Note_off_c,9,42,0,
10,91056, Note_on_c,9,35,94,
10,91092, Note_off_c,9,35,0,
10,91104, Note_on_c,9,42,94,
10,91104, Note_on_c,9,40,94,
10,91140, Note_off_c,9,40,0,
10,91140, Note_off_c,9,42,0,
10,91152, Note_on_c,9,35,94,
10,91188, Note_off_c,9,35,0,
10,91200, Note_on_c,9,42,94,
10,91200, Note_on_c,9,40,94,
10,91236, Note_off_c,9,40,0,
10,91236, Note_off_c,9,42,0,
10,91296, Note_on_c,9,42,94,
10,91296, Note_on_c,9,35,94,
10,91332, Note_off_c,9,35,0,
10,91332, Note_off_c,9,42,0,
10,91392, Note_on_c,9,42,94,
10,91392, Note_on_c,9,35,94,
10,91428, Note_off_c,9,35,0,
10,91428, Note_off_c,9,42,0,
10,91488, Note_on_c,9,42,94,
10,91488, Note_on_c,9,40,94,
10,91524, Note_off_c,9,40,0,
10,91524, Note_off_c,9,42,0,
10,91584, Note_on_c,9,42,94,
10,91620, Note_off_c,9,42,0,
10,91632, Note_on_c,9,35,94,
10,91668, Note_off_c,9,35,0,
10,91680, Note_on_c,9,42,94,
10,91680, Note_on_c,9,35,94,
10,91716, Note_off_c,9,35,0,
10,91716, Note_off_c,9,42,0,
10,91776, Note_on_c,9,42,94,
10,91776, Note_on_c,9,35,94,
10,91812, Note_off_c,9,35,0,
10,91812, Note_off_c,9,42,0,
10,91872, Note_on_c,9,42,94,
10,91872, Note_on_c,9,40,94,
10,91908, Note_off_c,9,40,0,
10,91908, Note_off_c,9,42,0,
10,91968, Note_on_c,9,42,94,
10,92004, Note_off_c,9,42,0,
10,92016, Note_on_c,9,35,94,
10,92052, Note_off_c,9,35,0,
10,92064, Note_on_c,9,42,94,
10,92064, Note_on_c,9,35,94,
10,92100, Note_off_c,9,35,0,
10,92100, Note_off_c,9,42,0,
10,92160, Note_on_c,9,42,94,
10,92160, Note_on_c,9,35,94,
10,92196, Note_off_c,9,35,0,
10,92196, Note_off_c,9,42,0,
10,92256, Note_on_c,9,42,94,
10,92256, Note_on_c,9,40,94,
10,92292, Note_off_c,9,40,0,
10,92292, Note_off_c,9,42,0,
10,92352, Note_on_c,9,42,94,
10,92388, Note_off_c,9,42,0,
10,92448, Note_on_c,9,42,94,
10,92448, Note_on_c,9,35,94,
10,92484, Note_off_c,9,35,0,
10,92484, Note_off_c,9,42,0,
10,92496, Note_on_c,9,40,94,
10,92532, Note_off_c,9,40,0,
10,92544, Note_on_c,9,42,94,
10,92544, Note_on_c,9,40,94,
10,92580, Note_off_c,9,40,0,
10,92580, Note_off_c,9,42,0,
10,92592, Note_on_c,9,35,94,
10,92628, Note_off_c,9,35,0,
10,92640, Note_on_c,9,42,94,
10,92640, Note_on_c,9,40,94,
10,92676, Note_off_c,9,40,0,
10,92676, Note_off_c,9,42,0,
10,92736, Note_on_c,9,42,94,
10,92736, Note_on_c,9,35,94,
10,92772, Note_off_c,9,35,0,
10,92772, Note_off_c,9,42,0,
10,92832, Note_on_c,9,42,94,
10,92832, Note_on_c,9,35,94,
10,92868, Note_off_c,9,35,0,
10,92868, Note_off_c,9,42,0,
10,92928, Note_on_c,9,42,94,
10,92928, Note_on_c,9,35,94,
10,92964, Note_off_c,9,35,0,
10,92964, Note_off_c,9,42,0,
10,93024, Note_on_c,9,42,94,
10,93024, Note_on_c,9,40,94,
10,93060, Note_off_c,9,40,0,
10,93060, Note_off_c,9,42,0,
10,93120, Note_on_c,9,42,94,
10,93156, Note_off_c,9,42,0,
10,93168, Note_on_c,9,35,94,
10,93204, Note_off_c,9,35,0,
10,93216, Note_on_c,9,42,94,
10,93216, Note_on_c,9,35,94,
10,93252, Note_off_c,9,35,0,
10,93252, Note_off_c,9,42,0,
10,93312, Note_on_c,9,42,94,
10,93312, Note_on_c,9,35,94,
10,93348, Note_off_c,9,35,0,
10,93348, Note_off_c,9,42,0,
10,93408, Note_on_c,9,42,94,
10,93408, Note_on_c,9,40,94,
10,93444, Note_off_c,9,40,0,
10,93444, Note_off_c,9,42,0,
10,93504, Note_on_c,9,42,94,
10,93540, Note_off_c,9,42,0,
10,93552, Note_on_c,9,35,94,
10,93588, Note_off_c,9,35,0,
10,93600, Note_on_c,9,42,94,
10,93600, Note_on_c,9,35,94,
10,93636, Note_off_c,9,35,0,
10,93636, Note_off_c,9,42,0,
10,93696, Note_on_c,9,42,94,
10,93696, Note_on_c,9,35,94,
10,93732, Note_off_c,9,35,0,
10,93732, Note_off_c,9,42,0,
10,93792, Note_on_c,9,42,94,
10,93792, Note_on_c,9,40,94,
10,93828, Note_off_c,9,40,0,
10,93828, Note_off_c,9,42,0,
10,93888, Note_on_c,9,42,94,
10,93924, Note_off_c,9,42,0,
10,93936, Note_on_c,9,35,94,
10,93972, Note_off_c,9,35,0,
10,93984, Note_on_c,9,42,94,
10,93984, Note_on_c,9,35,94,
10,94020, Note_off_c,9,35,0,
10,94020, Note_off_c,9,42,0,
10,94080, Note_on_c,9,42,94,
10,94080, Note_on_c,9,35,94,
10,94116, Note_off_c,9,35,0,
10,94116, Note_off_c,9,42,0,
10,94176, Note_on_c,9,42,94,
10,94176, Note_on_c,9,40,94,
10,94212, Note_off_c,9,40,0,
10,94212, Note_off_c,9,42,0,
10,94272, Note_on_c,9,42,94,
10,94308, Note_off_c,9,42,0,
10,94320, Note_on_c,9,35,94,
10,94356, Note_off_c,9,35,0,
10,94368, Note_on_c,9,42,94,
10,94368, Note_on_c,9,35,94,
10,94404, Note_off_c,9,35,0,
10,94404, Note_off_c,9,42,0,
10,94464, Note_on_c,9,42,94,
10,94464, Note_on_c,9,35,94,
10,94500, Note_off_c,9,35,0,
10,94500, Note_off_c,9,42,0,
10,94560, Note_on_c,9,42,94,
10,94560, Note_on_c,9,40,94,
10,94596, Note_off_c,9,40,0,
10,94596, Note_off_c,9,42,0,
10,94656, Note_on_c,9,42,94,
10,94692, Note_off_c,9,42,0,
10,94704, Note_on_c,9,35,94,
10,94740, Note_off_c,9,35,0,
10,94752, Note_on_c,9,42,94,
10,94752, Note_on_c,9,35,94,
10,94788, Note_off_c,9,35,0,
10,94788, Note_off_c,9,42,0,
10,94848, Note_on_c,9,42,94,
10,94848, Note_on_c,9,35,94,
10,94884, Note_off_c,9,35,0,
10,94884, Note_off_c,9,42,0,
10,94944, Note_on_c,9,42,94,
10,94944, Note_on_c,9,40,94,
10,94980, Note_off_c,9,40,0,
10,94980, Note_off_c,9,42,0,
10,95040, Note_on_c,9,42,94,
10,95076, Note_off_c,9,42,0,
10,95088, Note_on_c,9,35,94,
10,95124, Note_off_c,9,35,0,
10,95136, Note_on_c,9,42,94,
10,95136, Note_on_c,9,35,94,
10,95172, Note_off_c,9,35,0,
10,95172, Note_off_c,9,42,0,
10,95232, Note_on_c,9,42,94,
10,95232, Note_on_c,9,35,94,
10,95268, Note_off_c,9,35,0,
10,95268, Note_off_c,9,42,0,
10,95328, Note_on_c,9,42,94,
10,95328, Note_on_c,9,40,94,
10,95364, Note_off_c,9,40,0,
10,95364, Note_off_c,9,42,0,
10,95376, Note_on_c,9,35,94,
10,95412, Note_off_c,9,35,0,
10,95424, Note_on_c,9,42,94,
10,95424, Note_on_c,9,35,94,
10,95460, Note_off_c,9,35,0,
10,95460, Note_off_c,9,42,0,
10,95472, Note_on_c,9,35,94,
10,95508, Note_off_c,9,35,0,
10,95520, Note_on_c,9,42,94,
10,95520, Note_on_c,9,35,94,
10,95556, Note_off_c,9,35,0,
10,95556, Note_off_c,9,42,0,
10,95568, Note_on_c,9,35,94,
10,95604, Note_off_c,9,35,0,
10,95616, Note_on_c,9,42,94,
10,95616, Note_on_c,9,35,94,
10,95652, Note_off_c,9,35,0,
10,95652, Note_off_c,9,42,0,
10,95664, Note_on_c,9,35,94,
10,95700, Note_off_c,9,35,0,
10,95712, Note_on_c,9,42,94,
10,95712, Note_on_c,9,40,94,
10,95712, Note_on_c,9,35,94,
10,95748, Note_off_c,9,35,0,
10,95748, Note_off_c,9,40,0,
10,95748, Note_off_c,9,42,0,
10,95760, Note_on_c,9,35,94,
10,95796, Note_off_c,9,35,0,
10,95808, Note_on_c,9,42,94,
10,95808, Note_on_c,9,35,94,
10,95844, Note_off_c,9,35,0,
10,95844, Note_off_c,9,42,0,
10,95856, Note_on_c,9,35,94,
10,95892, Note_off_c,9,35,0,
10,95904, Note_on_c,9,57,104,
10,95904, Note_on_c,9,35,94,
10,95940, Note_off_c,9,35,0,
10,95940, Note_off_c,9,57,0,
10,96000, Note_on_c,9,42,94,
10,96000, Note_on_c,9,35,94,
10,96036, Note_off_c,9,35,0,
10,96036, Note_off_c,9,42,0,
10,96096, Note_on_c,9,42,94,
10,96096, Note_on_c,9,40,94,
10,96132, Note_off_c,9,40,0,
10,96132, Note_off_c,9,42,0,
10,96192, Note_on_c,9,42,94,
10,96228, Note_off_c,9,42,0,
10,96240, Note_on_c,9,35,94,
10,96276, Note_off_c,9,35,0,
10,96288, Note_on_c,9,42,94,
10,96288, Note_on_c,9,35,94,
10,96324, Note_off_c,9,35,0,
10,96324, Note_off_c,9,42,0,
10,96384, Note_on_c,9,42,94,
10,96396, Note_on_c,9,35,94,
10,96420, Note_off_c,9,42,0,
10,96432, Note_off_c,9,35,0,
10,96480, Note_on_c,9,42,94,
10,96480, Note_on_c,9,40,94,
10,96516, Note_off_c,9,40,0,
10,96516, Note_off_c,9,42,0,
10,96576, Note_on_c,9,42,94,
10,96612, Note_off_c,9,42,0,
10,96624, Note_on_c,9,35,94,
10,96660, Note_off_c,9,35,0,
10,96672, Note_on_c,9,42,94,
10,96672, Note_on_c,9,35,94,
10,96708, Note_off_c,9,35,0,
10,96708, Note_off_c,9,42,0,
10,96768, Note_on_c,9,42,94,
10,96768, Note_on_c,9,35,94,
10,96804, Note_off_c,9,35,0,
10,96804, Note_off_c,9,42,0,
10,96864, Note_on_c,9,42,94,
10,96864, Note_on_c,9,40,94,
10,96900, Note_off_c,9,40,0,
10,96900, Note_off_c,9,42,0,
10,96960, Note_on_c,9,42,94,
10,96996, Note_off_c,9,42,0,
10,97008, Note_on_c,9,35,94,
10,97044, Note_off_c,9,35,0,
10,97056, Note_on_c,9,42,94,
10,97056, Note_on_c,9,35,94,
10,97092, Note_off_c,9,35,0,
10,97092, Note_off_c,9,42,0,
10,97152, Note_on_c,9,42,94,
10,97188, Note_off_c,9,42,0,
10,97200, Note_on_c,9,35,94,
10,97236, Note_off_c,9,35,0,
10,97248, Note_on_c,9,42,94,
10,97248, Note_on_c,9,40,94,
10,97284, Note_off_c,9,40,0,
10,97284, Note_off_c,9,42,0,
10,97344, Note_on_c,9,42,94,
10,97380, Note_off_c,9,42,0,
10,97392, Note_on_c,9,35,94,
10,97428, Note_off_c,9,35,0,
10,97440, Note_on_c,9,42,94,
10,97440, Note_on_c,9,35,94,
10,97476, Note_off_c,9,35,0,
10,97476, Note_off_c,9,42,0,
10,97536, Note_on_c,9,42,94,
10,97536, Note_on_c,9,35,94,
10,97572, Note_off_c,9,35,0,
10,97572, Note_off_c,9,42,0,
10,97632, Note_on_c,9,42,94,
10,97632, Note_on_c,9,40,94,
10,97668, Note_off_c,9,40,0,
10,97668, Note_off_c,9,42,0,
10,97728, Note_on_c,9,42,94,
10,97764, Note_off_c,9,42,0,
10,97776, Note_on_c,9,35,94,
10,97812, Note_off_c,9,35,0,
10,97824, Note_on_c,9,42,94,
10,97824, Note_on_c,9,35,94,
10,97860, Note_off_c,9,35,0,
10,97860, Note_off_c,9,42,0,
10,97920, Note_on_c,9,42,94,
10,97920, Note_on_c,9,35,94,
10,97956, Note_off_c,9,35,0,
10,97956, Note_off_c,9,42,0,
10,98016, Note_on_c,9,42,94,
10,98016, Note_on_c,9,40,94,
10,98052, Note_off_c,9,40,0,
10,98052, Note_off_c,9,42,0,
10,98112, Note_on_c,9,42,94,
10,98112, Note_on_c,9,40,94,
10,98148, Note_off_c,9,40,0,
10,98148, Note_off_c,9,42,0,
10,98208, Note_on_c,9,46,94,
10,98208, Note_on_c,9,47,94,
10,98220, Note_off_c,9,47,0,
10,98232, Note_on_c,9,43,94,
10,98244, Note_off_c,9,43,0,
10,98256, Note_on_c,9,43,94,
10,98268, Note_off_c,9,43,0,
10,98280, Note_on_c,9,43,94,
10,98292, Note_off_c,9,43,0,
10,98304, Note_on_c,9,43,94,
10,98316, Note_off_c,9,43,0,
10,98328, Note_on_c,9,43,94,
10,98340, Note_off_c,9,46,0,
10,98340, Note_off_c,9,43,0,
10,98352, Note_on_c,9,46,94,
10,98352, Note_on_c,9,47,94,
10,98364, Note_off_c,9,47,0,
10,98376, Note_on_c,9,43,94,
10,98388, Note_off_c,9,43,0,
10,98400, Note_on_c,9,43,94,
10,98412, Note_off_c,9,43,0,
10,98424, Note_on_c,9,43,94,
10,98436, Note_off_c,9,43,0,
10,98448, Note_on_c,9,43,94,
10,98460, Note_off_c,9,43,0,
10,98472, Note_on_c,9,43,94,
10,98484, Note_off_c,9,46,0,
10,98484, Note_off_c,9,43,0,
10,98496, Note_on_c,9,46,94,
10,98496, Note_on_c,9,47,94,
10,98508, Note_off_c,9,47,0,
10,98520, Note_on_c,9,43,94,
10,98532, Note_off_c,9,43,0,
10,98544, Note_on_c,9,43,94,
10,98556, Note_off_c,9,43,0,
10,98568, Note_on_c,9,43,94,
10,98580, Note_off_c,9,43,0,
10,98592, Note_on_c,9,43,94,
10,98604, Note_off_c,9,43,0,
10,98616, Note_on_c,9,43,94,
10,98628, Note_off_c,9,43,0,
10,98640, Note_on_c,9,43,94,
10,98652, Note_off_c,9,43,0,
10,98664, Note_on_c,9,43,94,
10,98676, Note_off_c,9,46,0,
10,98676, Note_off_c,9,43,0,
10,98688, Note_on_c,9,46,94,
10,98688, Note_on_c,9,47,94,
10,98700, Note_off_c,9,47,0,
10,98712, Note_on_c,9,43,94,
10,98724, Note_off_c,9,43,0,
10,98736, Note_on_c,9,43,94,
10,98748, Note_off_c,9,43,0,
10,98760, Note_on_c,9,43,94,
10,98772, Note_off_c,9,43,0,
10,98784, Note_on_c,9,47,94,
10,98796, Note_off_c,9,47,0,
10,98808, Note_on_c,9,43,94,
10,98820, Note_off_c,9,43,0,
10,98832, Note_on_c,9,43,94,
10,98844, Note_off_c,9,43,0,
10,98856, Note_on_c,9,43,94,
10,98868, Note_off_c,9,46,0,
10,98868, Note_off_c,9,43,0,
10,98880, Note_on_c,9,46,94,
10,98880, Note_on_c,9,40,94,
10,98964, Note_off_c,9,40,0,
10,98964, Note_off_c,9,46,0,
10,98976, Note_on_c,9,57,104,
10,98976, Note_on_c,9,35,94,
10,99012, Note_off_c,9,35,0,
10,99012, Note_off_c,9,57,0,
10,99072, Note_on_c,9,35,94,
10,99108, Note_off_c,9,35,0,
10,99168, Note_on_c,9,42,94,
10,99168, Note_on_c,9,40,94,
10,99204, Note_off_c,9,40,0,
10,99204, Note_off_c,9,42,0,
10,99264, Note_on_c,9,42,94,
10,99300, Note_off_c,9,42,0,
10,99312, Note_on_c,9,35,94,
10,99348, Note_off_c,9,35,0,
10,99360, Note_on_c,9,42,94,
10,99360, Note_on_c,9,35,94,
10,99396, Note_off_c,9,35,0,
10,99396, Note_off_c,9,42,0,
10,99456, Note_on_c,9,42,94,
10,99456, Note_on_c,9,35,94,
10,99492, Note_off_c,9,35,0,
10,99492, Note_off_c,9,42,0,
10,99552, Note_on_c,9,42,94,
10,99552, Note_on_c,9,40,94,
10,99588, Note_off_c,9,40,0,
10,99588, Note_off_c,9,42,0,
10,99648, Note_on_c,9,42,94,
10,99684, Note_off_c,9,42,0,
10,99744, Note_on_c,9,42,94,
10,99744, Note_on_c,9,35,94,
10,99780, Note_off_c,9,35,0,
10,99780, Note_off_c,9,42,0,
10,99840, Note_on_c,9,42,94,
10,99840, Note_on_c,9,35,94,
10,99876, Note_off_c,9,35,0,
10,99876, Note_off_c,9,42,0,
10,99936, Note_on_c,9,42,94,
10,99936, Note_on_c,9,40,94,
10,99972, Note_off_c,9,40,0,
10,99972, Note_off_c,9,42,0,
10,100032, Note_on_c,9,42,94,
10,100068, Note_off_c,9,42,0,
10,100128, Note_on_c,9,42,94,
10,100164, Note_off_c,9,42,0,
10,100176, Note_on_c,9,40,94,
10,100212, Note_off_c,9,40,0,
10,100224, Note_on_c,9,42,94,
10,100224, Note_on_c,9,35,94,
10,100260, Note_off_c,9,35,0,
10,100260, Note_off_c,9,42,0,
10,100320, Note_on_c,9,42,94,
10,100320, Note_on_c,9,40,94,
10,100356, Note_off_c,9,40,0,
10,100356, Note_off_c,9,42,0,
10,100416, Note_on_c,9,42,94,
10,100452, Note_off_c,9,42,0,
10,100464, Note_on_c,9,35,94,
10,100500, Note_off_c,9,35,0,
10,100512, Note_on_c,9,35,94,
10,100512, Note_on_c,9,57,94,
10,100548, Note_off_c,9,57,0,
10,100548, Note_off_c,9,35,0,
10,100704, Note_on_c,9,42,94,
10,100704, Note_on_c,9,40,94,
10,100740, Note_off_c,9,40,0,
10,100740, Note_off_c,9,42,0,
10,100800, Note_on_c,9,42,94,
10,100836, Note_off_c,9,42,0,
10,100896, Note_on_c,9,42,94,
10,100896, Note_on_c,9,35,94,
10,100932, Note_off_c,9,35,0,
10,100932, Note_off_c,9,42,0,
10,100992, Note_on_c,9,42,94,
10,100992, Note_on_c,9,35,94,
10,101028, Note_off_c,9,35,0,
10,101028, Note_off_c,9,42,0,
10,101088, Note_on_c,9,42,94,
10,101088, Note_on_c,9,40,94,
10,101124, Note_off_c,9,40,0,
10,101124, Note_off_c,9,42,0,
10,101184, Note_on_c,9,42,94,
10,101220, Note_off_c,9,42,0,
10,101280, Note_on_c,9,42,94,
10,101280, Note_on_c,9,35,94,
10,101316, Note_off_c,9,35,0,
10,101316, Note_off_c,9,42,0,
10,101376, Note_on_c,9,42,94,
10,101376, Note_on_c,9,35,94,
10,101412, Note_off_c,9,35,0,
10,101412, Note_off_c,9,42,0,
10,101472, Note_on_c,9,42,94,
10,101472, Note_on_c,9,40,94,
10,101508, Note_off_c,9,40,0,
10,101508, Note_off_c,9,42,0,
10,101568, Note_on_c,9,42,94,
10,101604, Note_off_c,9,42,0,
10,101664, Note_on_c,9,42,94,
10,101700, Note_off_c,9,42,0,
10,101712, Note_on_c,9,40,94,
10,101748, Note_off_c,9,40,0,
10,101760, Note_on_c,9,42,94,
10,101760, Note_on_c,9,35,94,
10,101796, Note_off_c,9,35,0,
10,101796, Note_off_c,9,42,0,
10,101856, Note_on_c,9,42,94,
10,101856, Note_on_c,9,40,94,
10,101892, Note_off_c,9,40,0,
10,101892, Note_off_c,9,42,0,
10,101952, Note_on_c,9,42,94,
10,101988, Note_off_c,9,42,0,
10,102048, Note_on_c,9,57,90,
10,102048, Note_on_c,9,35,90,
10,102096, Note_off_c,9,35,0,
10,102096, Note_off_c,9,57,0,
10,102144, Note_on_c,9,42,90,
10,102144, Note_on_c,9,35,90,
10,102192, Note_off_c,9,35,0,
10,102192, Note_off_c,9,42,0,
10,102240, Note_on_c,9,42,90,
10,102240, Note_on_c,9,40,90,
10,102288, Note_off_c,9,40,0,
10,102288, Note_off_c,9,42,0,
10,102336, Note_on_c,9,42,90,
10,102384, Note_off_c,9,42,0,
10,102432, Note_on_c,9,42,90,
10,102432, Note_on_c,9,35,90,
10,102480, Note_off_c,9,35,0,
10,102480, Note_off_c,9,42,0,
10,102528, Note_on_c,9,42,90,
10,102576, Note_off_c,9,42,0,
10,102624, Note_on_c,9,42,90,
10,102624, Note_on_c,9,40,90,
10,102672, Note_off_c,9,40,0,
10,102672, Note_off_c,9,42,0,
10,102720, Note_on_c,9,42,90,
10,102768, Note_off_c,9,42,0,
10,102816, Note_on_c,9,35,90,
10,102816, Note_on_c,9,42,90,
10,102864, Note_off_c,9,42,0,
10,102864, Note_off_c,9,35,0,
10,102912, Note_on_c,9,35,90,
10,102912, Note_on_c,9,42,90,
10,102960, Note_off_c,9,42,0,
10,102960, Note_off_c,9,35,0,
10,103008, Note_on_c,9,40,90,
10,103008, Note_on_c,9,42,90,
10,103056, Note_off_c,9,42,0,
10,103056, Note_off_c,9,40,0,
10,103104, Note_on_c,9,42,90,
10,103152, Note_off_c,9,42,0,
10,103200, Note_on_c,9,35,90,
10,103200, Note_on_c,9,42,90,
10,103248, Note_off_c,9,42,0,
10,103248, Note_off_c,9,35,0,
10,103296, Note_on_c,9,42,90,
10,103344, Note_off_c,9,42,0,
10,103344, Note_on_c,9,35,90,
10,103392, Note_off_c,9,35,0,
10,103392, Note_on_c,9,40,90,
10,103392, Note_on_c,9,42,90,
10,103440, Note_off_c,9,42,0,
10,103440, Note_off_c,9,40,0,
10,103488, Note_on_c,9,42,90,
10,103536, Note_off_c,9,42,0,
10,103584, Note_on_c,9,35,90,
10,103584, Note_on_c,9,42,90,
10,103632, Note_off_c,9,42,0,
10,103632, Note_off_c,9,35,0,
10,103680, Note_on_c,9,35,90,
10,103680, Note_on_c,9,42,90,
10,103728, Note_off_c,9,42,0,
10,103728, Note_off_c,9,35,0,
10,103776, Note_on_c,9,40,90,
10,103776, Note_on_c,9,42,90,
10,103824, Note_off_c,9,42,0,
10,103824, Note_off_c,9,40,0,
10,103872, Note_on_c,9,42,90,
10,103920, Note_off_c,9,42,0,
10,103968, Note_on_c,9,35,90,
10,103968, Note_on_c,9,42,90,
10,104016, Note_off_c,9,42,0,
10,104016, Note_off_c,9,35,0,
10,104064, Note_on_c,9,42,90,
10,104064, Note_on_c,9,35,90,
10,104112, Note_off_c,9,35,0,
10,104112, Note_off_c,9,42,0,
10,104160, Note_on_c,9,40,90,
10,104160, Note_on_c,9,42,90,
10,104208, Note_off_c,9,42,0,
10,104208, Note_off_c,9,40,0,
10,104256, Note_on_c,9,42,90,
10,104304, Note_off_c,9,42,0,
10,104352, Note_on_c,9,40,90,
10,104400, Note_off_c,9,40,0,
10,104448, Note_on_c,9,35,90,
10,104496, Note_off_c,9,35,0,
10,104496, Note_on_c,9,40,90,
10,104544, Note_off_c,9,40,0,
10,104592, Note_on_c,9,35,90,
10,104640, Note_off_c,9,35,0,
10,104640, Note_on_c,9,40,90,
10,104688, Note_off_c,9,40,0,
10,104736, Note_on_c,9,35,90,
10,104784, Note_off_c,9,35,0,
10,104784, Note_on_c,9,40,90,
10,104832, Note_off_c,9,40,0,
10,104880, Note_on_c,9,35,90,
10,104928, Note_off_c,9,35,0,
10,104928, Note_on_c,9,40,90,
10,104976, Note_off_c,9,40,0,
10,105024, Note_on_c,9,40,90,
10,105072, Note_off_c,9,40,0,
10,105120, Note_on_c,9,35,110,
10,105120, Note_on_c,9,57,110,
10,105168, Note_off_c,9,57,0,
10,105168, Note_off_c,9,35,0,
10,105216, Note_on_c,9,35,110,
10,105264, Note_off_c,9,35,0,
10,105312, Note_on_c,9,40,110,
10,105312, Note_on_c,9,42,110,
10,105360, Note_off_c,9,42,0,
10,105360, Note_off_c,9,40,0,
10,105408, Note_on_c,9,42,110,
10,105456, Note_off_c,9,42,0,
10,105504, Note_on_c,9,35,110,
10,105504, Note_on_c,9,42,110,
10,105552, Note_off_c,9,42,0,
10,105552, Note_off_c,9,35,0,
10,105600, Note_on_c,9,35,110,
10,105600, Note_on_c,9,42,110,
10,105648, Note_off_c,9,42,0,
10,105648, Note_off_c,9,35,0,
10,105696, Note_on_c,9,40,110,
10,105696, Note_on_c,9,42,110,
10,105744, Note_off_c,9,42,0,
10,105744, Note_off_c,9,40,0,
10,105792, Note_on_c,9,42,110,
10,105840, Note_off_c,9,42,0,
10,105888, Note_on_c,9,42,110,
10,105888, Note_on_c,9,35,110,
10,105936, Note_off_c,9,35,0,
10,105936, Note_off_c,9,42,0,
10,105984, Note_on_c,9,42,110,
10,105984, Note_on_c,9,40,110,
10,106032, Note_off_c,9,40,0,
10,106032, Note_off_c,9,42,0,
10,106032, Note_on_c,9,35,110,
10,106080, Note_off_c,9,35,0,
10,106080, Note_on_c,9,42,110,
10,106128, Note_off_c,9,42,0,
10,106128, Note_on_c,9,40,110,
10,106176, Note_off_c,9,40,0,
10,106176, Note_on_c,9,42,110,
10,106176, Note_on_c,9,35,110,
10,106224, Note_off_c,9,35,0,
10,106224, Note_off_c,9,42,0,
10,106272, Note_on_c,9,42,110,
10,106272, Note_on_c,9,40,110,
10,106320, Note_off_c,9,40,0,
10,106320, Note_off_c,9,42,0,
10,106320, Note_on_c,9,35,110,
10,106368, Note_off_c,9,35,0,
10,106368, Note_on_c,9,42,110,
10,106416, Note_off_c,9,42,0,
10,106416, Note_on_c,9,40,110,
10,106464, Note_off_c,9,40,0,
10,106464, Note_on_c,9,42,110,
10,106464, Note_on_c,9,35,110,
10,106512, Note_off_c,9,35,0,
10,106512, Note_off_c,9,42,0,
10,106560, Note_on_c,9,42,110,
10,106560, Note_on_c,9,35,110,
10,106560, Note_on_c,9,40,110,
10,106608, Note_off_c,9,40,0,
10,106608, Note_off_c,9,35,0,
10,106608, Note_off_c,9,42,0,
10,106656, Note_on_c,9,35,110,
10,106656, Note_on_c,9,42,110,
10,106704, Note_off_c,9,42,0,
10,106704, Note_off_c,9,35,0,
10,106752, Note_on_c,9,35,110,
10,106752, Note_on_c,9,42,110,
10,106800, Note_off_c,9,42,0,
10,106800, Note_off_c,9,35,0,
10,106848, Note_on_c,9,40,110,
10,106848, Note_on_c,9,42,110,
10,106896, Note_off_c,9,42,0,
10,106896, Note_off_c,9,40,0,
10,106944, Note_on_c,9,42,110,
10,106992, Note_off_c,9,42,0,
10,107040, Note_on_c,9,35,110,
10,107040, Note_on_c,9,42,110,
10,107088, Note_off_c,9,42,0,
10,107088, Note_off_c,9,35,0,
10,107136, Note_on_c,9,35,110,
10,107136, Note_on_c,9,42,110,
10,107184, Note_off_c,9,42,0,
10,107184, Note_off_c,9,35,0,
10,107232, Note_on_c,9,40,110,
10,107232, Note_on_c,9,42,110,
10,107280, Note_off_c,9,42,0,
10,107280, Note_off_c,9,40,0,
10,107328, Note_on_c,9,42,110,
10,107376, Note_off_c,9,42,0,
10,107424, Note_on_c,9,42,110,
10,107424, Note_on_c,9,35,110,
10,107472, Note_off_c,9,35,0,
10,107472, Note_off_c,9,42,0,
10,107520, Note_on_c,9,42,110,
10,107520, Note_on_c,9,40,110,
10,107568, Note_off_c,9,40,0,
10,107568, Note_off_c,9,42,0,
10,107568, Note_on_c,9,35,110,
10,107616, Note_off_c,9,35,0,
10,107616, Note_on_c,9,42,110,
10,107664, Note_off_c,9,42,0,
10,107664, Note_on_c,9,40,110,
10,107712, Note_off_c,9,40,0,
10,107712, Note_on_c,9,42,110,
10,107712, Note_on_c,9,35,110,
10,107760, Note_off_c,9,35,0,
10,107760, Note_off_c,9,42,0,
10,107808, Note_on_c,9,42,110,
10,107808, Note_on_c,9,40,110,
10,107856, Note_off_c,9,40,0,
10,107856, Note_off_c,9,42,0,
10,107856, Note_on_c,9,35,110,
10,107904, Note_off_c,9,35,0,
10,107904, Note_on_c,9,42,110,
10,107952, Note_off_c,9,42,0,
10,107952, Note_on_c,9,40,110,
10,108000, Note_off_c,9,40,0,
10,108000, Note_on_c,9,42,110,
10,108000, Note_on_c,9,35,110,
10,108048, Note_off_c,9,35,0,
10,108048, Note_off_c,9,42,0,
10,108096, Note_on_c,9,42,110,
10,108096, Note_on_c,9,35,110,
10,108096, Note_on_c,9,40,110,
10,108144, Note_off_c,9,40,0,
10,108144, Note_off_c,9,35,0,
10,108144, Note_off_c,9,42,0,
10,108192, Note_on_c,9,35,110,
10,108192, Note_on_c,9,42,120,
10,108240, Note_off_c,9,42,0,
10,108240, Note_off_c,9,35,0,
10,108288, Note_on_c,9,35,110,
10,108288, Note_on_c,9,42,120,
10,108336, Note_off_c,9,42,0,
10,108336, Note_off_c,9,35,0,
10,108384, Note_on_c,9,40,110,
10,108384, Note_on_c,9,42,110,
10,108432, Note_off_c,9,42,0,
10,108432, Note_off_c,9,40,0,
10,108480, Note_on_c,9,42,110,
10,108528, Note_off_c,9,42,0,
10,108576, Note_on_c,9,35,110,
10,108576, Note_on_c,9,42,110,
10,108624, Note_off_c,9,42,0,
10,108624, Note_off_c,9,35,0,
10,108672, Note_on_c,9,35,110,
10,108672, Note_on_c,9,42,110,
10,108720, Note_off_c,9,42,0,
10,108720, Note_off_c,9,35,0,
10,108768, Note_on_c,9,40,110,
10,108768, Note_on_c,9,42,110,
10,108816, Note_off_c,9,42,0,
10,108816, Note_off_c,9,40,0,
10,108864, Note_on_c,9,42,110,
10,108912, Note_off_c,9,42,0,
10,108960, Note_on_c,9,42,110,
10,108960, Note_on_c,9,35,110,
10,109008, Note_off_c,9,35,0,
10,109008, Note_off_c,9,42,0,
10,109056, Note_on_c,9,42,110,
10,109056, Note_on_c,9,40,110,
10,109104, Note_off_c,9,40,0,
10,109104, Note_off_c,9,42,0,
10,109104, Note_on_c,9,35,110,
10,109152, Note_off_c,9,35,0,
10,109152, Note_on_c,9,42,110,
10,109200, Note_off_c,9,42,0,
10,109200, Note_on_c,9,40,110,
10,109248, Note_off_c,9,40,0,
10,109248, Note_on_c,9,42,110,
10,109248, Note_on_c,9,35,110,
10,109296, Note_off_c,9,35,0,
10,109296, Note_off_c,9,42,0,
10,109344, Note_on_c,9,42,110,
10,109344, Note_on_c,9,40,110,
10,109392, Note_off_c,9,40,0,
10,109392, Note_off_c,9,42,0,
10,109392, Note_on_c,9,35,110,
10,109440, Note_off_c,9,35,0,
10,109440, Note_on_c,9,42,110,
10,109488, Note_off_c,9,42,0,
10,109488, Note_on_c,9,40,110,
10,109536, Note_off_c,9,40,0,
10,109536, Note_on_c,9,42,110,
10,109536, Note_on_c,9,35,110,
10,109584, Note_off_c,9,35,0,
10,109584, Note_off_c,9,42,0,
10,109632, Note_on_c,9,42,110,
10,109632, Note_on_c,9,35,110,
10,109632, Note_on_c,9,40,110,
10,109680, Note_off_c,9,40,0,
10,109680, Note_off_c,9,35,0,
10,109680, Note_off_c,9,42,0,
10,109728, Note_on_c,9,35,110,
10,109728, Note_on_c,9,42,110,
10,109776, Note_off_c,9,42,0,
10,109776, Note_off_c,9,35,0,
10,109824, Note_on_c,9,35,110,
10,109824, Note_on_c,9,42,110,
10,109872, Note_off_c,9,42,0,
10,109872, Note_off_c,9,35,0,
10,109920, Note_on_c,9,40,110,
10,109920, Note_on_c,9,42,110,
10,109968, Note_off_c,9,42,0,
10,109968, Note_off_c,9,40,0,
10,110016, Note_on_c,9,42,110,
10,110064, Note_off_c,9,42,0,
10,110112, Note_on_c,9,35,110,
10,110112, Note_on_c,9,42,110,
10,110160, Note_off_c,9,42,0,
10,110160, Note_off_c,9,35,0,
10,110208, Note_on_c,9,35,110,
10,110208, Note_on_c,9,42,110,
10,110256, Note_off_c,9,42,0,
10,110256, Note_off_c,9,35,0,
10,110304, Note_on_c,9,40,110,
10,110304, Note_on_c,9,42,110,
10,110352, Note_off_c,9,42,0,
10,110352, Note_off_c,9,40,0,
10,110400, Note_on_c,9,42,110,
10,110448, Note_off_c,9,42,0,
10,110496, Note_on_c,9,42,110,
10,110496, Note_on_c,9,35,110,
10,110544, Note_off_c,9,35,0,
10,110544, Note_off_c,9,42,0,
10,110592, Note_on_c,9,42,110,
10,110592, Note_on_c,9,40,110,
10,110640, Note_off_c,9,40,0,
10,110640, Note_off_c,9,42,0,
10,110640, Note_on_c,9,35,110,
10,110688, Note_off_c,9,35,0,
10,110688, Note_on_c,9,42,110,
10,110736, Note_off_c,9,42,0,
10,110736, Note_on_c,9,40,110,
10,110784, Note_off_c,9,40,0,
10,110784, Note_on_c,9,42,110,
10,110784, Note_on_c,9,35,110,
10,110832, Note_off_c,9,35,0,
10,110832, Note_off_c,9,42,0,
10,110880, Note_on_c,9,42,110,
10,110880, Note_on_c,9,40,110,
10,110928, Note_off_c,9,40,0,
10,110928, Note_off_c,9,42,0,
10,110928, Note_on_c,9,35,110,
10,110976, Note_off_c,9,35,0,
10,110976, Note_on_c,9,42,110,
10,111024, Note_off_c,9,42,0,
10,111024, Note_on_c,9,40,110,
10,111072, Note_off_c,9,40,0,
10,111072, Note_on_c,9,42,110,
10,111072, Note_on_c,9,35,110,
10,111120, Note_off_c,9,35,0,
10,111120, Note_off_c,9,42,0,
10,111168, Note_on_c,9,42,110,
10,111168, Note_on_c,9,35,110,
10,111168, Note_on_c,9,40,110,
10,111216, Note_off_c,9,40,0,
10,111216, Note_off_c,9,35,0,
10,111216, Note_off_c,9,42,0,
10,111264, Note_on_c,9,35,110,
10,111264, Note_on_c,9,42,110,
10,111312, Note_off_c,9,42,0,
10,111312, Note_off_c,9,35,0,
10,111360, Note_on_c,9,35,110,
10,111360, Note_on_c,9,42,110,
10,111408, Note_off_c,9,42,0,
10,111408, Note_off_c,9,35,0,
10,111456, Note_on_c,9,40,110,
10,111456, Note_on_c,9,42,110,
10,111504, Note_off_c,9,42,0,
10,111504, Note_off_c,9,40,0,
10,111552, Note_on_c,9,42,110,
10,111600, Note_off_c,9,42,0,
10,111648, Note_on_c,9,35,110,
10,111648, Note_on_c,9,42,110,
10,111696, Note_off_c,9,42,0,
10,111696, Note_off_c,9,35,0,
10,111744, Note_on_c,9,35,110,
10,111744, Note_on_c,9,42,110,
10,111792, Note_off_c,9,42,0,
10,111792, Note_off_c,9,35,0,
10,111840, Note_on_c,9,40,110,
10,111840, Note_on_c,9,42,110,
10,111888, Note_off_c,9,42,0,
10,111888, Note_off_c,9,40,0,
10,111936, Note_on_c,9,42,110,
10,111984, Note_off_c,9,42,0,
10,112032, Note_on_c,9,42,110,
10,112032, Note_on_c,9,35,110,
10,112080, Note_off_c,9,35,0,
10,112080, Note_off_c,9,42,0,
10,112128, Note_on_c,9,42,110,
10,112128, Note_on_c,9,40,110,
10,112176, Note_off_c,9,40,0,
10,112176, Note_off_c,9,42,0,
10,112176, Note_on_c,9,35,110,
10,112224, Note_off_c,9,35,0,
10,112224, Note_on_c,9,42,110,
10,112272, Note_off_c,9,42,0,
10,112272, Note_on_c,9,40,110,
10,112320, Note_off_c,9,40,0,
10,112320, Note_on_c,9,42,110,
10,112320, Note_on_c,9,35,110,
10,112368, Note_off_c,9,35,0,
10,112368, Note_off_c,9,42,0,
10,112416, Note_on_c,9,42,110,
10,112416, Note_on_c,9,40,110,
10,112464, Note_off_c,9,40,0,
10,112464, Note_off_c,9,42,0,
10,112464, Note_on_c,9,35,110,
10,112512, Note_off_c,9,35,0,
10,112512, Note_on_c,9,42,110,
10,112560, Note_off_c,9,42,0,
10,112560, Note_on_c,9,40,110,
10,112608, Note_off_c,9,40,0,
10,112608, Note_on_c,9,42,110,
10,112608, Note_on_c,9,35,110,
10,112656, Note_off_c,9,35,0,
10,112656, Note_off_c,9,42,0,
10,112704, Note_on_c,9,42,110,
10,112704, Note_on_c,9,35,110,
10,112704, Note_on_c,9,40,110,
10,112752, Note_off_c,9,40,0,
10,112752, Note_off_c,9,35,0,
10,112752, Note_off_c,9,42,0,
10,112800, Note_on_c,9,35,110,
10,112800, Note_on_c,9,42,110,
10,112848, Note_off_c,9,42,0,
10,112848, Note_off_c,9,35,0,
10,112896, Note_on_c,9,35,110,
10,112896, Note_on_c,9,42,110,
10,112944, Note_off_c,9,42,0,
10,112944, Note_off_c,9,35,0,
10,112992, Note_on_c,9,40,110,
10,112992, Note_on_c,9,42,110,
10,113040, Note_off_c,9,42,0,
10,113040, Note_off_c,9,40,0,
10,113088, Note_on_c,9,42,110,
10,113136, Note_off_c,9,42,0,
10,113184, Note_on_c,9,35,110,
10,113184, Note_on_c,9,42,110,
10,113232, Note_off_c,9,42,0,
10,113232, Note_off_c,9,35,0,
10,113280, Note_on_c,9,35,110,
10,113280, Note_on_c,9,42,110,
10,113328, Note_off_c,9,42,0,
10,113328, Note_off_c,9,35,0,
10,113376, Note_on_c,9,40,110,
10,113376, Note_on_c,9,42,110,
10,113424, Note_off_c,9,42,0,
10,113424, Note_off_c,9,40,0,
10,113472, Note_on_c,9,42,110,
10,113520, Note_off_c,9,42,0,
10,113568, Note_on_c,9,42,110,
10,113568, Note_on_c,9,35,110,
10,113616, Note_off_c,9,35,0,
10,113616, Note_off_c,9,42,0,
10,113664, Note_on_c,9,42,110,
10,113664, Note_on_c,9,40,110,
10,113712, Note_off_c,9,40,0,
10,113712, Note_off_c,9,42,0,
10,113712, Note_on_c,9,35,110,
10,113760, Note_off_c,9,35,0,
10,113760, Note_on_c,9,42,110,
10,113808, Note_off_c,9,42,0,
10,113808, Note_on_c,9,40,110,
10,113856, Note_off_c,9,40,0,
10,113856, Note_on_c,9,42,110,
10,113856, Note_on_c,9,35,110,
10,113904, Note_off_c,9,35,0,
10,113904, Note_off_c,9,42,0,
10,113952, Note_on_c,9,42,110,
10,113952, Note_on_c,9,40,110,
10,114000, Note_off_c,9,40,0,
10,114000, Note_off_c,9,42,0,
10,114000, Note_on_c,9,35,110,
10,114048, Note_off_c,9,35,0,
10,114048, Note_on_c,9,42,110,
10,114096, Note_off_c,9,42,0,
10,114096, Note_on_c,9,40,110,
10,114144, Note_off_c,9,40,0,
10,114144, Note_on_c,9,42,110,
10,114144, Note_on_c,9,35,110,
10,114192, Note_off_c,9,35,0,
10,114192, Note_off_c,9,42,0,
10,114240, Note_on_c,9,42,110,
10,114240, Note_on_c,9,35,110,
10,114240, Note_on_c,9,40,110,
10,114288, Note_off_c,9,40,0,
10,114288, Note_off_c,9,35,0,
10,114288, Note_off_c,9,42,0,
10,114336, Note_on_c,9,35,110,
10,114336, Note_on_c,9,42,110,
10,114384, Note_off_c,9,42,0,
10,114384, Note_off_c,9,35,0,
10,114432, Note_on_c,9,35,110,
10,114432, Note_on_c,9,42,110,
10,114480, Note_off_c,9,42,0,
10,114480, Note_off_c,9,35,0,
10,114528, Note_on_c,9,40,110,
10,114528, Note_on_c,9,42,110,
10,114576, Note_off_c,9,42,0,
10,114576, Note_off_c,9,40,0,
10,114624, Note_on_c,9,42,110,
10,114672, Note_off_c,9,42,0,
10,114720, Note_on_c,9,35,110,
10,114720, Note_on_c,9,42,110,
10,114768, Note_off_c,9,42,0,
10,114768, Note_off_c,9,35,0,
10,114816, Note_on_c,9,35,110,
10,114816, Note_on_c,9,42,110,
10,114864, Note_off_c,9,42,0,
10,114864, Note_off_c,9,35,0,
10,114912, Note_on_c,9,40,110,
10,114912, Note_on_c,9,42,110,
10,114960, Note_off_c,9,42,0,
10,114960, Note_off_c,9,40,0,
10,115008, Note_on_c,9,42,110,
10,115056, Note_off_c,9,42,0,
10,115104, Note_on_c,9,40,100,
10,115152, Note_off_c,9,40,0,
10,115200, Note_on_c,9,35,100,
10,115248, Note_off_c,9,35,0,
10,115248, Note_on_c,9,40,100,
10,115296, Note_off_c,9,40,0,
10,115344, Note_on_c,9,35,100,
10,115392, Note_off_c,9,35,0,
10,115392, Note_on_c,9,40,100,
10,115440, Note_off_c,9,40,0,
10,115488, Note_on_c,9,35,100,
10,115536, Note_off_c,9,35,0,
10,115536, Note_on_c,9,40,100,
10,115584, Note_off_c,9,40,0,
10,115632, Note_on_c,9,35,100,
10,115680, Note_off_c,9,35,0,
10,115680, Note_on_c,9,40,100,
10,115728, Note_off_c,9,40,0,
10,115728, Note_on_c,9,40,100,
10,115776, Note_off_c,9,40,0,
10,115776, Note_on_c,9,40,100,
10,115824, Note_off_c,9,40,0,
10,115824, Note_on_c,9,40,100,
10,115872, Note_off_c,9,40,0,
10,115872, Note_on_c,9,35,100,
10,115872, Note_on_c,9,57,100,
10,115920, Note_off_c,9,57,0,
10,115920, Note_off_c,9,35,0,
10,115968, Note_on_c,9,35,100,
10,115968, Note_on_c,9,57,100,
10,116016, Note_off_c,9,57,0,
10,116016, Note_off_c,9,35,0,
10,116064, Note_on_c,9,40,100,
10,116112, Note_off_c,9,40,0,
10,116112, Note_on_c,9,40,100,
10,116160, Note_off_c,9,40,0,
10,116160, Note_on_c,9,40,100,
10,116208, Note_off_c,9,40,0,
10,116208, Note_on_c,9,40,100,
10,116256, Note_off_c,9,40,0,
10,116256, Note_on_c,9,35,100,
10,116304, Note_off_c,9,35,0,
10,116352, Note_on_c,9,35,100,
10,116352, Note_on_c,9,57,100,
10,116400, Note_off_c,9,57,0,
10,116400, Note_off_c,9,35,0,
10,116448, Note_on_c,9,40,100,
10,116496, Note_off_c,9,40,0,
10,116544, Note_on_c,9,35,100,
10,116544, Note_on_c,9,57,100,
10,116592, Note_off_c,9,57,0,
10,116592, Note_off_c,9,35,0,
10,116736, Note_on_c,9,35,100,
10,116784, Note_off_c,9,35,0,
10,116832, Note_on_c,9,40,100,
10,116832, Note_on_c,9,42,100,
10,116880, Note_off_c,9,42,0,
10,116880, Note_off_c,9,40,0,
10,117024, Note_on_c,9,35,100,
10,117024, Note_on_c,9,42,100,
10,117072, Note_off_c,9,42,0,
10,117072, Note_off_c,9,35,0,
10,117120, Note_on_c,9,40,100,
10,117168, Note_off_c,9,40,0,
10,117168, Note_on_c,9,40,100,
10,117216, Note_off_c,9,40,0,
10,117216, Note_on_c,9,40,100,
10,117216, Note_on_c,9,42,100,
10,117264, Note_off_c,9,42,0,
10,117264, Note_on_c,9,40,100,
10,117265, Note_off_c,9,40,0,
10,117312, Note_off_c,9,40,0,
10,117312, Note_on_c,9,40,100,
10,117312, Note_on_c,9,42,100,
10,117360, Note_off_c,9,42,0,
10,117360, Note_on_c,9,40,100,
10,117361, Note_off_c,9,40,0,
10,117408, Note_off_c,9,40,0,
10,117408, Note_on_c,9,35,100,
10,117408, Note_on_c,9,57,100,
10,117456, Note_off_c,9,57,0,
10,117456, Note_off_c,9,35,0,
10,117504, Note_on_c,9,35,100,
10,117504, Note_on_c,9,57,100,
10,117552, Note_off_c,9,57,0,
10,117552, Note_off_c,9,35,0,
10,117600, Note_on_c,9,40,100,
10,117648, Note_off_c,9,40,0,
10,117648, Note_on_c,9,40,100,
10,117696, Note_off_c,9,40,0,
10,117696, Note_on_c,9,40,100,
10,117744, Note_off_c,9,40,0,
10,117744, Note_on_c,9,40,100,
10,117792, Note_off_c,9,40,0,
10,117792, Note_on_c,9,35,100,
10,117840, Note_off_c,9,35,0,
10,117888, Note_on_c,9,35,100,
10,117888, Note_on_c,9,57,100,
10,117936, Note_off_c,9,57,0,
10,117936, Note_off_c,9,35,0,
10,117984, Note_on_c,9,40,100,
10,118032, Note_off_c,9,40,0,
10,118080, Note_on_c,9,35,100,
10,118080, Note_on_c,9,57,100,
10,118128, Note_off_c,9,57,0,
10,118128, Note_off_c,9,35,0,
10,118272, Note_on_c,9,35,100,
10,118272, Note_on_c,9,42,100,
10,118320, Note_off_c,9,42,0,
10,118320, Note_off_c,9,35,0,
10,118368, Note_on_c,9,40,100,
10,118368, Note_on_c,9,42,100,
10,118416, Note_off_c,9,42,0,
10,118416, Note_off_c,9,40,0,
10,118464, Note_on_c,9,42,100,
10,118512, Note_off_c,9,42,0,
10,118512, Note_on_c,9,35,100,
10,118560, Note_off_c,9,35,0,
10,118560, Note_on_c,9,35,100,
10,118560, Note_on_c,9,42,100,
10,118608, Note_off_c,9,42,0,
10,118608, Note_off_c,9,35,0,
10,118656, Note_on_c,9,42,100,
10,118656, Note_on_c,9,50,100,
10,118704, Note_off_c,9,50,0,
10,118704, Note_off_c,9,42,0,
10,118704, Note_on_c,9,47,100,
10,118752, Note_off_c,9,47,0,
10,118752, Note_on_c,9,42,100,
10,118752, Note_on_c,9,43,100,
10,118800, Note_off_c,9,43,0,
10,118800, Note_off_c,9,42,0,
10,118848, Note_on_c,9,42,100,
10,118896, Note_off_c,9,42,0,
10,118944, Note_on_c,9,57,100,
10,118944, Note_on_c,9,35,100,
10,118944, Note_on_c,9,42,100,
10,118992, Note_off_c,9,42,0,
10,118992, Note_off_c,9,35,0,
10,118992, Note_off_c,9,57,0,
10,119040, Note_on_c,9,42,100,
10,119088, Note_off_c,9,42,0,
10,119136, Note_on_c,9,40,100,
10,119136, Note_on_c,9,42,100,
10,119184, Note_off_c,9,42,0,
10,119184, Note_off_c,9,40,0,
10,119232, Note_on_c,9,42,100,
10,119280, Note_off_c,9,42,0,
10,119328, Note_on_c,9,35,100,
10,119328, Note_on_c,9,42,100,
10,119376, Note_off_c,9,42,0,
10,119376, Note_off_c,9,35,0,
10,119424, Note_on_c,9,35,100,
10,119424, Note_on_c,9,42,100,
10,119472, Note_off_c,9,42,0,
10,119472, Note_off_c,9,35,0,
10,119520, Note_on_c,9,40,100,
10,119520, Note_on_c,9,42,100,
10,119568, Note_off_c,9,42,0,
10,119568, Note_off_c,9,40,0,
10,119616, Note_on_c,9,42,100,
10,119664, Note_off_c,9,42,0,
10,119664, Note_on_c,9,35,100,
10,119664, Note_on_c,9,42,100,
10,119712, Note_off_c,9,42,0,
10,119712, Note_off_c,9,35,0,
10,119712, Note_on_c,9,57,100,
10,119712, Note_on_c,9,35,100,
10,119712, Note_on_c,9,42,100,
10,119760, Note_off_c,9,42,0,
10,119760, Note_off_c,9,35,0,
10,119760, Note_off_c,9,57,0,
10,119808, Note_on_c,9,42,100,
10,119856, Note_off_c,9,42,0,
10,119904, Note_on_c,9,40,100,
10,119904, Note_on_c,9,42,100,
10,119952, Note_off_c,9,42,0,
10,119952, Note_off_c,9,40,0,
10,120000, Note_on_c,9,42,100,
10,120048, Note_off_c,9,42,0,
10,120048, Note_on_c,9,42,100,
10,120096, Note_off_c,9,42,0,
10,120096, Note_on_c,9,35,100,
10,120096, Note_on_c,9,42,100,
10,120144, Note_off_c,9,42,0,
10,120144, Note_off_c,9,35,0,
10,120192, Note_on_c,9,35,100,
10,120192, Note_on_c,9,42,100,
10,120240, Note_off_c,9,42,0,
10,120240, Note_off_c,9,35,0,
10,120288, Note_on_c,9,40,100,
10,120288, Note_on_c,9,42,100,
10,120336, Note_off_c,9,42,0,
10,120336, Note_off_c,9,40,0,
10,120384, Note_on_c,9,42,100,
10,120432, Note_off_c,9,42,0,
10,120432, Note_on_c,9,35,100,
10,120432, Note_on_c,9,42,100,
10,120480, Note_off_c,9,42,0,
10,120480, Note_on_c,9,42,100,
10,120480, Note_on_c,9,35,100,
10,120481, Note_off_c,9,35,0,
10,120528, Note_off_c,9,35,0,
10,120528, Note_off_c,9,42,0,
10,120576, Note_on_c,9,42,100,
10,120624, Note_off_c,9,42,0,
10,120672, Note_on_c,9,42,100,
10,120672, Note_on_c,9,40,100,
10,120720, Note_off_c,9,40,0,
10,120720, Note_off_c,9,42,0,
10,120768, Note_on_c,9,42,100,
10,120816, Note_off_c,9,42,0,
10,120816, Note_on_c,9,42,100,
10,120864, Note_off_c,9,42,0,
10,120864, Note_on_c,9,42,100,
10,120864, Note_on_c,9,35,100,
10,120912, Note_off_c,9,35,0,
10,120912, Note_off_c,9,42,0,
10,120960, Note_on_c,9,42,100,
10,120960, Note_on_c,9,35,100,
10,121008, Note_off_c,9,35,0,
10,121008, Note_off_c,9,42,0,
10,121056, Note_on_c,9,42,100,
10,121056, Note_on_c,9,40,100,
10,121104, Note_off_c,9,40,0,
10,121104, Note_off_c,9,42,0,
10,121152, Note_on_c,9,42,100,
10,121200, Note_off_c,9,42,0,
10,121248, Note_on_c,9,42,100,
10,121248, Note_on_c,9,35,100,
10,121296, Note_off_c,9,35,0,
10,121296, Note_off_c,9,42,0,
10,121344, Note_on_c,9,42,100,
10,121344, Note_on_c,9,35,100,
10,121392, Note_off_c,9,35,0,
10,121392, Note_off_c,9,42,0,
10,121440, Note_on_c,9,42,100,
10,121440, Note_on_c,9,40,100,
10,121488, Note_off_c,9,40,0,
10,121488, Note_off_c,9,42,0,
10,121536, Note_on_c,9,42,100,
10,121584, Note_off_c,9,42,0,
10,121584, Note_on_c,9,42,100,
10,121632, Note_off_c,9,42,0,
10,121632, Note_on_c,9,42,100,
10,121632, Note_on_c,9,35,100,
10,121680, Note_off_c,9,35,0,
10,121680, Note_off_c,9,42,0,
10,121680, Note_on_c,9,40,100,
10,121728, Note_off_c,9,40,0,
10,121728, Note_on_c,9,42,100,
10,121728, Note_on_c,9,35,100,
10,121776, Note_off_c,9,35,0,
10,121776, Note_off_c,9,42,0,
10,121824, Note_on_c,9,42,100,
10,121824, Note_on_c,9,40,100,
10,121872, Note_off_c,9,40,0,
10,121872, Note_off_c,9,42,0,
10,121920, Note_on_c,9,42,100,
10,121968, Note_off_c,9,42,0,
10,121968, Note_on_c,9,42,100,
10,121968, Note_on_c,9,35,100,
10,122016, Note_off_c,9,35,0,
10,122016, Note_off_c,9,42,0,
10,122016, Note_on_c,9,42,100,
10,122016, Note_on_c,9,35,100,
10,122064, Note_off_c,9,35,0,
10,122064, Note_off_c,9,42,0,
10,122112, Note_on_c,9,42,100,
10,122160, Note_off_c,9,42,0,
10,122208, Note_on_c,9,42,100,
10,122208, Note_on_c,9,40,100,
10,122256, Note_off_c,9,40,0,
10,122256, Note_off_c,9,42,0,
10,122304, Note_on_c,9,42,100,
10,122352, Note_off_c,9,42,0,
10,122352, Note_on_c,9,42,100,
10,122400, Note_off_c,9,42,0,
10,122400, Note_on_c,9,42,100,
10,122400, Note_on_c,9,35,100,
10,122448, Note_off_c,9,35,0,
10,122448, Note_off_c,9,42,0,
10,122496, Note_on_c,9,42,100,
10,122496, Note_on_c,9,35,100,
10,122544, Note_off_c,9,35,0,
10,122544, Note_off_c,9,42,0,
10,122592, Note_on_c,9,42,100,
10,122592, Note_on_c,9,40,100,
10,122640, Note_off_c,9,40,0,
10,122640, Note_off_c,9,42,0,
10,122688, Note_on_c,9,42,100,
10,122736, Note_off_c,9,42,0,
10,122736, Note_on_c,9,35,100,
10,122736, Note_on_c,9,42,100,
10,122784, Note_off_c,9,42,0,
10,122784, Note_on_c,9,42,100,
10,122784, Note_on_c,9,35,100,
10,122785, Note_off_c,9,35,0,
10,122832, Note_off_c,9,35,0,
10,122832, Note_off_c,9,42,0,
10,122880, Note_on_c,9,42,100,
10,122880, Note_on_c,9,35,100,
10,122928, Note_off_c,9,35,0,
10,122928, Note_off_c,9,42,0,
10,122976, Note_on_c,9,42,100,
10,122976, Note_on_c,9,40,100,
10,123024, Note_off_c,9,40,0,
10,123024, Note_off_c,9,42,0,
10,123072, Note_on_c,9,42,100,
10,123120, Note_off_c,9,42,0,
10,123120, Note_on_c,9,42,100,
10,123168, Note_off_c,9,42,0,
10,123168, Note_on_c,9,42,100,
10,123168, Note_on_c,9,35,100,
10,123216, Note_off_c,9,35,0,
10,123216, Note_off_c,9,42,0,
10,123264, Note_on_c,9,42,100,
10,123312, Note_off_c,9,42,0,
10,123360, Note_on_c,9,42,100,
10,123360, Note_on_c,9,40,100,
10,123408, Note_off_c,9,40,0,
10,123408, Note_off_c,9,42,0,
10,123456, Note_on_c,9,42,100,
10,123504, Note_off_c,9,42,0,
10,123504, Note_on_c,9,42,100,
10,123504, Note_on_c,9,35,100,
10,123552, Note_off_c,9,35,0,
10,123552, Note_off_c,9,42,0,
10,123552, Note_on_c,9,35,100,
10,123552, Note_on_c,9,57,100,
10,123600, Note_off_c,9,57,0,
10,123600, Note_off_c,9,35,0,
10,123648, Note_on_c,9,42,100,
10,123696, Note_off_c,9,42,0,
10,123744, Note_on_c,9,42,100,
10,123744, Note_on_c,9,40,100,
10,123792, Note_off_c,9,40,0,
10,123792, Note_off_c,9,42,0,
10,123840, Note_on_c,9,42,100,
10,123888, Note_off_c,9,42,0,
10,123888, Note_on_c,9,42,100,
10,123936, Note_off_c,9,42,0,
10,123936, Note_on_c,9,42,100,
10,123936, Note_on_c,9,35,100,
10,123984, Note_off_c,9,35,0,
10,123984, Note_off_c,9,42,0,
10,124032, Note_on_c,9,42,100,
10,124032, Note_on_c,9,35,100,
10,124080, Note_off_c,9,35,0,
10,124080, Note_off_c,9,42,0,
10,124128, Note_on_c,9,42,100,
10,124128, Note_on_c,9,40,100,
10,124176, Note_off_c,9,40,0,
10,124176, Note_off_c,9,42,0,
10,124224, Note_on_c,9,42,100,
10,124272, Note_off_c,9,42,0,
10,124272, Note_on_c,9,42,100,
10,124320, Note_off_c,9,42,0,
10,124320, Note_on_c,9,57,127,
10,124320, Note_on_c,9,35,127,
10,124368, Note_off_c,9,35,0,
10,124368, Note_off_c,9,57,0,
10,124368, End_track,,,,
11,0, Start_track,,,,
11,0, Instrument_t,bass                ,,,
11,0, Channel_prefix,6,,,
11,0, Control_c,6,7,82,
11,0, Control_c,6,10,49,
11,0, Program_c,6,28,,
11,0, Control_c,6,0,126,
11,12, Program_c,6,28,,
11,62976, Note_on_c,6,36,110,
11,63348, Note_off_c,6,36,0,
11,63360, Note_on_c,6,35,110,
11,63744, Note_off_c,6,35,0,
11,63744, Note_on_c,6,33,110,
11,64404, Note_off_c,6,33,0,
11,64416, Note_on_c,6,35,110,
11,64500, Note_off_c,6,35,0,
11,64512, Note_on_c,6,36,110,
11,64884, Note_off_c,6,36,0,
11,64896, Note_on_c,6,35,110,
11,65172, Note_off_c,6,35,0,
11,65184, Note_on_c,6,29,110,
11,65268, Note_off_c,6,29,0,
11,65376, Note_on_c,6,33,110,
11,65940, Note_off_c,6,33,0,
11,65952, Note_on_c,6,35,110,
11,66036, Note_off_c,6,35,0,
11,66048, Note_on_c,6,36,110,
11,66420, Note_off_c,6,36,0,
11,66432, Note_on_c,6,35,110,
11,66816, Note_off_c,6,35,0,
11,66816, Note_on_c,6,33,110,
11,67380, Note_off_c,6,33,0,
11,67392, Note_on_c,6,33,110,
11,67476, Note_off_c,6,33,0,
11,67488, Note_on_c,6,35,110,
11,67572, Note_off_c,6,35,0,
11,67584, Note_on_c,6,36,110,
11,67956, Note_off_c,6,36,0,
11,67968, Note_on_c,6,35,110,
11,68244, Note_off_c,6,35,0,
11,68256, Note_on_c,6,29,110,
11,68340, Note_off_c,6,29,0,
11,68448, Note_on_c,6,33,110,
11,69012, Note_off_c,6,33,0,
11,69024, Note_on_c,6,35,110,
11,69108, Note_off_c,6,35,0,
11,69120, Note_on_c,6,36,110,
11,69492, Note_off_c,6,36,0,
11,69504, Note_on_c,6,35,110,
11,69876, Note_off_c,6,35,0,
11,69888, Note_on_c,6,33,110,
11,70260, Note_off_c,6,33,0,
11,70272, Note_on_c,6,45,110,
11,70356, Note_off_c,6,45,0,
11,70368, Note_on_c,6,40,110,
11,70548, Note_off_c,6,40,0,
11,70560, Note_on_c,6,38,110,
11,70740, Note_off_c,6,38,0,
11,70752, Note_on_c,6,45,110,
11,70932, Note_off_c,6,45,0,
11,70944, Note_on_c,6,50,110,
11,71028, Note_off_c,6,50,0,
11,71040, Note_on_c,6,42,110,
11,71124, Note_off_c,6,42,0,
11,71136, Note_on_c,6,38,110,
11,71172, Note_off_c,6,38,0,
11,71184, Note_on_c,6,43,110,
11,71268, Note_off_c,6,43,0,
11,71280, Note_on_c,6,38,110,
11,71316, Note_off_c,6,38,0,
11,71328, Note_on_c,6,45,110,
11,71412, Note_off_c,6,45,0,
11,71424, Note_on_c,6,33,110,
11,71700, Note_off_c,6,33,0,
11,71712, Note_on_c,6,40,110,
11,71796, Note_off_c,6,40,0,
11,71808, Note_on_c,6,45,110,
11,71892, Note_off_c,6,45,0,
11,71904, Note_on_c,6,40,110,
11,72084, Note_off_c,6,40,0,
11,72096, Note_on_c,6,38,110,
11,72132, Note_off_c,6,38,0,
11,72144, Note_on_c,6,45,110,
11,72192, Note_off_c,6,45,0,
11,72192, Note_on_c,6,50,110,
11,72468, Note_off_c,6,50,0,
11,72480, Note_on_c,6,50,110,
11,72516, Note_off_c,6,50,0,
11,72528, Note_on_c,6,45,110,
11,72564, Note_off_c,6,45,0,
11,72576, Note_on_c,6,38,110,
11,72852, Note_off_c,6,38,0,
11,72864, Note_on_c,6,45,110,
11,72900, Note_off_c,6,45,0,
11,72912, Note_on_c,6,40,110,
11,72948, Note_off_c,6,40,0,
11,72960, Note_on_c,6,33,110,
11,73236, Note_off_c,6,33,0,
11,73260, Note_on_c,6,45,110,
11,73440, Note_off_c,6,45,0,
11,73440, Note_on_c,6,40,110,
11,73620, Note_off_c,6,40,0,
11,73632, Note_on_c,6,38,110,
11,73812, Note_off_c,6,38,0,
11,73824, Note_on_c,6,33,110,
11,73908, Note_off_c,6,33,0,
11,73920, Note_on_c,6,38,110,
11,74196, Note_off_c,6,38,0,
11,74208, Note_on_c,6,38,110,
11,74244, Note_off_c,6,38,0,
11,74256, Note_on_c,6,43,110,
11,74340, Note_off_c,6,43,0,
11,74352, Note_on_c,6,38,110,
11,74388, Note_off_c,6,38,0,
11,74400, Note_on_c,6,45,110,
11,74484, Note_off_c,6,45,0,
11,74496, Note_on_c,6,33,110,
11,74772, Note_off_c,6,33,0,
11,74784, Note_on_c,6,33,110,
11,74964, Note_off_c,6,33,0,
11,74976, Note_on_c,6,40,110,
11,75156, Note_off_c,6,40,0,
11,75168, Note_on_c,6,38,110,
11,75204, Note_off_c,6,38,0,
11,75216, Note_on_c,6,45,110,
11,75264, Note_off_c,6,45,0,
11,75264, Note_on_c,6,50,110,
11,75540, Note_off_c,6,50,0,
11,75552, Note_on_c,6,50,110,
11,75588, Note_off_c,6,50,0,
11,75600, Note_on_c,6,45,110,
11,75636, Note_off_c,6,45,0,
11,75648, Note_on_c,6,38,110,
11,75924, Note_off_c,6,38,0,
11,75936, Note_on_c,6,40,110,
11,75972, Note_off_c,6,40,0,
11,75984, Note_on_c,6,38,110,
11,76020, Note_off_c,6,38,0,
11,76032, Note_on_c,6,36,110,
11,76404, Note_off_c,6,36,0,
11,76416, Note_on_c,6,35,110,
11,76788, Note_off_c,6,35,0,
11,76800, Note_on_c,6,33,110,
11,77172, Note_off_c,6,33,0,
11,77184, Note_on_c,6,45,110,
11,77268, Note_off_c,6,45,0,
11,77280, Note_on_c,6,40,110,
11,77364, Note_off_c,6,40,0,
11,77376, Note_on_c,6,33,110,
11,77460, Note_off_c,6,33,0,
11,77472, Note_on_c,6,35,110,
11,77556, Note_off_c,6,35,0,
11,77568, Note_on_c,6,36,110,
11,77940, Note_off_c,6,36,0,
11,77952, Note_on_c,6,35,110,
11,78228, Note_off_c,6,35,0,
11,78240, Note_on_c,6,29,110,
11,78324, Note_off_c,6,29,0,
11,78432, Note_on_c,6,33,110,
11,78900, Note_off_c,6,33,0,
11,78912, Note_on_c,6,33,110,
11,78996, Note_off_c,6,33,0,
11,79008, Note_on_c,6,35,110,
11,79092, Note_off_c,6,35,0,
11,79104, Note_on_c,6,36,110,
11,79476, Note_off_c,6,36,0,
11,79488, Note_on_c,6,35,110,
11,79860, Note_off_c,6,35,0,
11,79872, Note_on_c,6,33,110,
11,80532, Note_off_c,6,33,0,
11,80544, Note_on_c,6,35,110,
11,80628, Note_off_c,6,35,0,
11,80640, Note_on_c,6,36,110,
11,81012, Note_off_c,6,36,0,
11,81024, Note_on_c,6,35,110,
11,81300, Note_off_c,6,35,0,
11,81312, Note_on_c,6,29,110,
11,81396, Note_off_c,6,29,0,
11,81504, Note_on_c,6,33,110,
11,81972, Note_off_c,6,33,0,
11,82032, Note_on_c,6,33,110,
11,82068, Note_off_c,6,33,0,
11,82080, Note_on_c,6,35,110,
11,82116, Note_off_c,6,35,0,
11,82128, Note_on_c,6,35,110,
11,82176, Note_off_c,6,35,0,
11,82176, Note_on_c,6,36,110,
11,82548, Note_off_c,6,36,0,
11,82560, Note_on_c,6,35,110,
11,82944, Note_off_c,6,35,0,
11,82944, Note_on_c,6,38,110,
11,83604, Note_off_c,6,38,0,
11,83616, Note_on_c,6,38,110,
11,83652, Note_off_c,6,38,0,
11,83664, Note_on_c,6,38,110,
11,83712, Note_off_c,6,38,0,
11,83712, Note_on_c,6,38,110,
11,83988, Note_off_c,6,38,0,
11,84000, Note_on_c,6,38,110,
11,84036, Note_off_c,6,38,0,
11,84048, Note_on_c,6,38,110,
11,84084, Note_off_c,6,38,0,
11,84096, Note_on_c,6,38,110,
11,84372, Note_off_c,6,38,0,
11,84384, Note_on_c,6,38,110,
11,84420, Note_off_c,6,38,0,
11,84432, Note_on_c,6,38,110,
11,84480, Note_off_c,6,38,0,
11,84480, Note_on_c,6,38,110,
11,84660, Note_off_c,6,38,0,
11,84672, Note_on_c,6,38,110,
11,84852, Note_off_c,6,38,0,
11,84864, Note_on_c,6,38,110,
11,85044, Note_off_c,6,38,0,
11,85056, Note_on_c,6,36,110,
11,85140, Note_off_c,6,36,0,
11,85152, Note_on_c,6,36,110,
11,85524, Note_off_c,6,36,0,
11,85536, Note_on_c,6,36,110,
11,85908, Note_off_c,6,36,0,
11,85920, Note_on_c,6,36,110,
11,86292, Note_off_c,6,36,0,
11,86304, Note_on_c,6,36,110,
11,86676, Note_off_c,6,36,0,
11,86688, Note_on_c,6,38,110,
11,86724, Note_off_c,6,38,0,
11,86736, Note_on_c,6,38,110,
11,86772, Note_off_c,6,38,0,
11,86784, Note_on_c,6,38,110,
11,87060, Note_off_c,6,38,0,
11,87072, Note_on_c,6,38,110,
11,87108, Note_off_c,6,38,0,
11,87120, Note_on_c,6,38,110,
11,87156, Note_off_c,6,38,0,
11,87168, Note_on_c,6,38,110,
11,87444, Note_off_c,6,38,0,
11,87456, Note_on_c,6,38,110,
11,87492, Note_off_c,6,38,0,
11,87504, Note_on_c,6,38,110,
11,87552, Note_off_c,6,38,0,
11,87552, Note_on_c,6,38,110,
11,87732, Note_off_c,6,38,0,
11,87744, Note_on_c,6,38,110,
11,87924, Note_off_c,6,38,0,
11,87936, Note_on_c,6,38,110,
11,88116, Note_off_c,6,38,0,
11,88128, Note_on_c,6,36,110,
11,88212, Note_off_c,6,36,0,
11,88224, Note_on_c,6,36,110,
11,88596, Note_off_c,6,36,0,
11,88608, Note_on_c,6,36,110,
11,88980, Note_off_c,6,36,0,
11,88992, Note_on_c,6,35,110,
11,89364, Note_off_c,6,35,0,
11,89376, Note_on_c,6,35,110,
11,89748, Note_off_c,6,35,0,
11,89760, Note_on_c,6,33,110,
11,90132, Note_off_c,6,33,0,
11,90144, Note_on_c,6,31,110,
11,90228, Note_off_c,6,31,0,
11,90240, Note_on_c,6,31,110,
11,90468, Note_off_c,6,31,0,
11,90480, Note_on_c,6,31,110,
11,90516, Note_off_c,6,31,0,
11,90528, Note_on_c,6,29,110,
11,90612, Note_off_c,6,29,0,
11,90624, Note_on_c,6,29,110,
11,90756, Note_off_c,6,29,0,
11,90768, Note_on_c,6,29,110,
11,90804, Note_off_c,6,29,0,
11,90816, Note_on_c,6,29,110,
11,90852, Note_off_c,6,29,0,
11,90864, Note_on_c,6,29,110,
11,90900, Note_off_c,6,29,0,
11,90912, Note_on_c,6,29,110,
11,90948, Note_off_c,6,29,0,
11,90960, Note_on_c,6,29,110,
11,90996, Note_off_c,6,29,0,
11,91008, Note_on_c,6,29,110,
11,91092, Note_off_c,6,29,0,
11,91104, Note_on_c,6,29,110,
11,91140, Note_off_c,6,29,0,
11,91152, Note_on_c,6,29,110,
11,91188, Note_off_c,6,29,0,
11,91200, Note_on_c,6,31,110,
11,91236, Note_off_c,6,31,0,
11,91248, Note_on_c,6,29,110,
11,91284, Note_off_c,6,29,0,
11,91296, Note_on_c,6,33,110,
11,91380, Note_off_c,6,33,0,
11,91392, Note_on_c,6,33,110,
11,91620, Note_off_c,6,33,0,
11,91632, Note_on_c,6,33,110,
11,91668, Note_off_c,6,33,0,
11,91680, Note_on_c,6,31,110,
11,91776, Note_off_c,6,31,0,
11,91788, Note_on_c,6,31,110,
11,92004, Note_off_c,6,31,0,
11,92016, Note_on_c,6,31,110,
11,92052, Note_off_c,6,31,0,
11,92064, Note_on_c,6,29,110,
11,92196, Note_off_c,6,29,0,
11,92208, Note_on_c,6,29,110,
11,92340, Note_off_c,6,29,0,
11,92352, Note_on_c,6,29,110,
11,92484, Note_off_c,6,29,0,
11,92496, Note_on_c,6,29,110,
11,92532, Note_off_c,6,29,0,
11,92544, Note_on_c,6,29,110,
11,92580, Note_off_c,6,29,0,
11,92592, Note_on_c,6,29,110,
11,92628, Note_off_c,6,29,0,
11,92640, Note_on_c,6,29,110,
11,92676, Note_off_c,6,29,0,
11,92688, Note_on_c,6,29,110,
11,92724, Note_off_c,6,29,0,
11,92736, Note_on_c,6,29,110,
11,92772, Note_off_c,6,29,0,
11,92784, Note_on_c,6,31,110,
11,92820, Note_off_c,6,31,0,
11,92832, Note_on_c,6,33,110,
11,92916, Note_off_c,6,33,0,
11,92928, Note_on_c,6,33,110,
11,93156, Note_off_c,6,33,0,
11,93168, Note_on_c,6,33,110,
11,93204, Note_off_c,6,33,0,
11,93216, Note_on_c,6,31,110,
11,93312, Note_off_c,6,31,0,
11,93324, Note_on_c,6,31,110,
11,93540, Note_off_c,6,31,0,
11,93552, Note_on_c,6,31,110,
11,93588, Note_off_c,6,31,0,
11,93600, Note_on_c,6,29,110,
11,93684, Note_off_c,6,29,0,
11,93696, Note_on_c,6,29,110,
11,93732, Note_off_c,6,29,0,
11,93744, Note_on_c,6,29,110,
11,93780, Note_off_c,6,29,0,
11,93792, Note_on_c,6,29,110,
11,93924, Note_off_c,6,29,0,
11,93936, Note_on_c,6,29,110,
11,93972, Note_off_c,6,29,0,
11,93984, Note_on_c,6,29,110,
11,94020, Note_off_c,6,29,0,
11,94032, Note_on_c,6,29,110,
11,94068, Note_off_c,6,29,0,
11,94080, Note_on_c,6,29,110,
11,94116, Note_off_c,6,29,0,
11,94128, Note_on_c,6,29,110,
11,94164, Note_off_c,6,29,0,
11,94176, Note_on_c,6,29,110,
11,94212, Note_off_c,6,29,0,
11,94224, Note_on_c,6,29,110,
11,94260, Note_off_c,6,29,0,
11,94272, Note_on_c,6,29,110,
11,94308, Note_off_c,6,29,0,
11,94320, Note_on_c,6,31,110,
11,94356, Note_off_c,6,31,0,
11,94368, Note_on_c,6,33,110,
11,94452, Note_off_c,6,33,0,
11,94464, Note_on_c,6,33,110,
11,94692, Note_off_c,6,33,0,
11,94704, Note_on_c,6,33,110,
11,94740, Note_off_c,6,33,0,
11,94752, Note_on_c,6,31,110,
11,94848, Note_off_c,6,31,0,
11,94860, Note_on_c,6,31,110,
11,95076, Note_off_c,6,31,0,
11,95088, Note_on_c,6,31,110,
11,95124, Note_off_c,6,31,0,
11,95136, Note_on_c,6,29,110,
11,95220, Note_off_c,6,29,0,
11,95232, Note_on_c,6,29,110,
11,95268, Note_off_c,6,29,0,
11,95280, Note_on_c,6,29,110,
11,95316, Note_off_c,6,29,0,
11,95328, Note_on_c,6,29,110,
11,95364, Note_off_c,6,29,0,
11,95376, Note_on_c,6,29,110,
11,95412, Note_off_c,6,29,0,
11,95424, Note_on_c,6,29,110,
11,95460, Note_off_c,6,29,0,
11,95472, Note_on_c,6,29,110,
11,95508, Note_off_c,6,29,0,
11,95520, Note_on_c,6,29,110,
11,95556, Note_off_c,6,29,0,
11,95568, Note_on_c,6,29,110,
11,95604, Note_off_c,6,29,0,
11,95616, Note_on_c,6,29,110,
11,95652, Note_off_c,6,29,0,
11,95664, Note_on_c,6,29,110,
11,95700, Note_off_c,6,29,0,
11,95712, Note_on_c,6,29,110,
11,95748, Note_off_c,6,29,0,
11,95760, Note_on_c,6,29,110,
11,95796, Note_off_c,6,29,0,
11,95808, Note_on_c,6,29,110,
11,95844, Note_off_c,6,29,0,
11,95856, Note_on_c,6,31,110,
11,95892, Note_off_c,6,31,0,
11,95904, Note_on_c,6,33,110,
11,95988, Note_off_c,6,33,0,
11,96000, Note_on_c,6,33,110,
11,96228, Note_off_c,6,33,0,
11,96240, Note_on_c,6,33,110,
11,96276, Note_off_c,6,33,0,
11,96288, Note_on_c,6,31,110,
11,96372, Note_off_c,6,31,0,
11,96384, Note_on_c,6,31,110,
11,96516, Note_off_c,6,31,0,
11,96528, Note_on_c,6,31,110,
11,96564, Note_off_c,6,31,0,
11,96576, Note_on_c,6,38,110,
11,96612, Note_off_c,6,38,0,
11,96624, Note_on_c,6,31,110,
11,96660, Note_off_c,6,31,0,
11,96672, Note_on_c,6,29,110,
11,96756, Note_off_c,6,29,0,
11,96768, Note_on_c,6,29,110,
11,96996, Note_off_c,6,29,0,
11,97008, Note_on_c,6,29,110,
11,97044, Note_off_c,6,29,0,
11,97056, Note_on_c,6,29,110,
11,97092, Note_off_c,6,29,0,
11,97104, Note_on_c,6,29,110,
11,97188, Note_off_c,6,29,0,
11,97200, Note_on_c,6,29,110,
11,97236, Note_off_c,6,29,0,
11,97248, Note_on_c,6,29,110,
11,97284, Note_off_c,6,29,0,
11,97296, Note_on_c,6,29,110,
11,97332, Note_off_c,6,29,0,
11,97344, Note_on_c,6,29,110,
11,97380, Note_off_c,6,29,0,
11,97392, Note_on_c,6,29,110,
11,97428, Note_off_c,6,29,0,
11,97440, Note_on_c,6,33,110,
11,97524, Note_off_c,6,33,0,
11,97536, Note_on_c,6,33,110,
11,97668, Note_off_c,6,33,0,
11,97680, Note_on_c,6,28,110,
11,97716, Note_off_c,6,28,0,
11,97728, Note_on_c,6,33,110,
11,97764, Note_off_c,6,33,0,
11,97776, Note_on_c,6,28,110,
11,97812, Note_off_c,6,28,0,
11,97824, Note_on_c,6,31,110,
11,97920, Note_off_c,6,31,0,
11,97932, Note_on_c,6,31,110,
11,98100, Note_off_c,6,31,0,
11,98112, Note_on_c,6,31,110,
11,98148, Note_off_c,6,31,0,
11,98160, Note_on_c,6,31,110,
11,98196, Note_off_c,6,31,0,
11,98208, Note_on_c,6,29,110,
11,98340, Note_off_c,6,29,0,
11,98352, Note_on_c,6,29,110,
11,98484, Note_off_c,6,29,0,
11,98496, Note_on_c,6,29,110,
11,98676, Note_off_c,6,29,0,
11,98688, Note_on_c,6,29,110,
11,98772, Note_off_c,6,29,0,
11,98784, Note_on_c,6,29,110,
11,98868, Note_off_c,6,29,0,
11,98880, Note_on_c,6,31,110,
11,98964, Note_off_c,6,31,0,
11,98976, Note_on_c,6,33,110,
11,99060, Note_off_c,6,33,0,
11,99072, Note_on_c,6,33,110,
11,99204, Note_off_c,6,33,0,
11,99216, Note_on_c,6,33,110,
11,99252, Note_off_c,6,33,0,
11,99264, Note_on_c,6,40,110,
11,99300, Note_off_c,6,40,0,
11,99312, Note_on_c,6,40,110,
11,99348, Note_off_c,6,40,0,
11,99360, Note_on_c,6,31,110,
11,99444, Note_off_c,6,31,0,
11,99456, Note_on_c,6,31,110,
11,99588, Note_off_c,6,31,0,
11,99600, Note_on_c,6,31,110,
11,99636, Note_off_c,6,31,0,
11,99648, Note_on_c,6,38,110,
11,99684, Note_off_c,6,38,0,
11,99696, Note_on_c,6,31,110,
11,99732, Note_off_c,6,31,0,
11,99744, Note_on_c,6,29,110,
11,99828, Note_off_c,6,29,0,
11,99840, Note_on_c,6,29,110,
11,99972, Note_off_c,6,29,0,
11,99984, Note_on_c,6,29,110,
11,100020, Note_off_c,6,29,0,
11,100032, Note_on_c,6,35,110,
11,100068, Note_off_c,6,35,0,
11,100080, Note_on_c,6,36,110,
11,100164, Note_off_c,6,36,0,
11,100176, Note_on_c,6,41,110,
11,100212, Note_off_c,6,41,0,
11,100224, Note_on_c,6,36,110,
11,100260, Note_off_c,6,36,0,
11,100272, Note_on_c,6,36,110,
11,100308, Note_off_c,6,36,0,
11,100320, Note_on_c,6,41,110,
11,100356, Note_off_c,6,41,0,
11,100368, Note_on_c,6,36,110,
11,100404, Note_off_c,6,36,0,
11,100416, Note_on_c,6,29,110,
11,100452, Note_off_c,6,29,0,
11,100464, Note_on_c,6,29,110,
11,100500, Note_off_c,6,29,0,
11,100512, Note_on_c,6,33,110,
11,100596, Note_off_c,6,33,0,
11,100608, Note_on_c,6,33,110,
11,100740, Note_off_c,6,33,0,
11,100752, Note_on_c,6,40,110,
11,100788, Note_off_c,6,40,0,
11,100800, Note_on_c,6,28,110,
11,100836, Note_off_c,6,28,0,
11,100848, Note_on_c,6,31,110,
11,100884, Note_off_c,6,31,0,
11,100896, Note_on_c,6,31,110,
11,100980, Note_off_c,6,31,0,
11,100992, Note_on_c,6,31,110,
11,101124, Note_off_c,6,31,0,
11,101136, Note_on_c,6,31,110,
11,101172, Note_off_c,6,31,0,
11,101184, Note_on_c,6,31,110,
11,101220, Note_off_c,6,31,0,
11,101232, Note_on_c,6,31,110,
11,101268, Note_off_c,6,31,0,
11,101280, Note_on_c,6,29,110,
11,101364, Note_off_c,6,29,0,
11,101376, Note_on_c,6,29,110,
11,101460, Note_off_c,6,29,0,
11,101472, Note_on_c,6,29,110,
11,101508, Note_off_c,6,29,0,
11,101520, Note_on_c,6,29,110,
11,101604, Note_off_c,6,29,0,
11,101616, Note_on_c,6,29,110,
11,101700, Note_off_c,6,29,0,
11,101712, Note_on_c,6,29,110,
11,101748, Note_off_c,6,29,0,
11,101760, Note_on_c,6,29,110,
11,101796, Note_off_c,6,29,0,
11,101808, Note_on_c,6,29,110,
11,101844, Note_off_c,6,29,0,
11,101856, Note_on_c,6,29,110,
11,101892, Note_off_c,6,29,0,
11,101904, Note_on_c,6,29,110,
11,101940, Note_off_c,6,29,0,
11,101952, Note_on_c,6,29,110,
11,101988, Note_off_c,6,29,0,
11,102000, Note_on_c,6,31,110,
11,102036, Note_off_c,6,31,0,
11,102048, Note_on_c,6,33,110,
11,102144, Note_off_c,6,33,0,
11,102144, Note_on_c,6,33,110,
11,102336, Note_off_c,6,33,0,
11,102336, Note_on_c,6,40,110,
11,102384, Note_off_c,6,40,0,
11,102384, Note_on_c,6,33,110,
11,102432, Note_off_c,6,33,0,
11,102432, Note_on_c,6,31,110,
11,102528, Note_off_c,6,31,0,
11,102528, Note_on_c,6,31,110,
11,102672, Note_off_c,6,31,0,
11,102672, Note_on_c,6,41,110,
11,102720, Note_off_c,6,41,0,
11,102720, Note_on_c,6,31,110,
11,102768, Note_off_c,6,31,0,
11,102768, Note_on_c,6,29,110,
11,102816, Note_off_c,6,29,0,
11,102816, Note_on_c,6,29,110,
11,102912, Note_off_c,6,29,0,
11,102912, Note_on_c,6,29,110,
11,103152, Note_off_c,6,29,0,
11,103152, Note_on_c,6,29,110,
11,103200, Note_off_c,6,29,0,
11,103200, Note_on_c,6,36,110,
11,103248, Note_off_c,6,36,0,
11,103248, Note_on_c,6,41,110,
11,103344, Note_off_c,6,41,0,
11,103344, Note_on_c,6,36,110,
11,103392, Note_off_c,6,36,0,
11,103392, Note_on_c,6,29,110,
11,103440, Note_off_c,6,29,0,
11,103440, Note_on_c,6,36,110,
11,103488, Note_off_c,6,36,0,
11,103488, Note_on_c,6,29,110,
11,103536, Note_off_c,6,29,0,
11,103536, Note_on_c,6,31,110,
11,103584, Note_off_c,6,31,0,
11,103584, Note_on_c,6,33,110,
11,103680, Note_off_c,6,33,0,
11,103680, Note_on_c,6,33,110,
11,103872, Note_off_c,6,33,0,
11,103872, Note_on_c,6,33,110,
11,103920, Note_off_c,6,33,0,
11,103920, Note_on_c,6,33,110,
11,103968, Note_off_c,6,33,0,
11,103968, Note_on_c,6,31,110,
11,104064, Note_off_c,6,31,0,
11,104064, Note_on_c,6,31,110,
11,104208, Note_off_c,6,31,0,
11,104208, Note_on_c,6,31,110,
11,104256, Note_off_c,6,31,0,
11,104256, Note_on_c,6,38,110,
11,104304, Note_off_c,6,38,0,
11,104304, Note_on_c,6,31,110,
11,104352, Note_off_c,6,31,0,
11,104352, Note_on_c,6,29,110,
11,104448, Note_off_c,6,29,0,
11,104448, Note_on_c,6,29,110,
11,104496, Note_off_c,6,29,0,
11,104496, Note_on_c,6,29,110,
11,104592, Note_off_c,6,29,0,
11,104592, Note_on_c,6,29,110,
11,104640, Note_off_c,6,29,0,
11,104640, Note_on_c,6,29,110,
11,104784, Note_off_c,6,29,0,
11,104784, Note_on_c,6,29,110,
11,104880, Note_off_c,6,29,0,
11,104880, Note_on_c,6,29,110,
11,104928, Note_off_c,6,29,0,
11,104928, Note_on_c,6,29,110,
11,105024, Note_off_c,6,29,0,
11,105024, Note_on_c,6,31,110,
11,105120, Note_off_c,6,31,0,
11,105120, Note_on_c,6,33,110,
11,105216, Note_off_c,6,33,0,
11,105216, Note_on_c,6,33,110,
11,105312, Note_off_c,6,33,0,
11,105504, Note_on_c,6,31,110,
11,105600, Note_off_c,6,31,0,
11,105600, Note_on_c,6,31,110,
11,105696, Note_off_c,6,31,0,
11,105840, Note_on_c,6,28,110,
11,105888, Note_off_c,6,28,0,
11,105888, Note_on_c,6,29,110,
11,105984, Note_off_c,6,29,0,
11,105984, Note_on_c,6,29,110,
11,106032, Note_off_c,6,29,0,
11,106032, Note_on_c,6,29,110,
11,106128, Note_off_c,6,29,0,
11,106128, Note_on_c,6,29,110,
11,106176, Note_off_c,6,29,0,
11,106176, Note_on_c,6,29,110,
11,106320, Note_off_c,6,29,0,
11,106320, Note_on_c,6,29,110,
11,106416, Note_off_c,6,29,0,
11,106416, Note_on_c,6,29,110,
11,106464, Note_off_c,6,29,0,
11,106464, Note_on_c,6,29,110,
11,106560, Note_off_c,6,29,0,
11,106560, Note_on_c,6,31,110,
11,106656, Note_off_c,6,31,0,
11,106656, Note_on_c,6,33,110,
11,106752, Note_off_c,6,33,0,
11,106752, Note_on_c,6,33,110,
11,106848, Note_off_c,6,33,0,
11,107040, Note_on_c,6,31,110,
11,107136, Note_off_c,6,31,0,
11,107136, Note_on_c,6,31,110,
11,107232, Note_off_c,6,31,0,
11,107376, Note_on_c,6,28,110,
11,107424, Note_off_c,6,28,0,
11,107424, Note_on_c,6,29,110,
11,107520, Note_off_c,6,29,0,
11,107520, Note_on_c,6,29,110,
11,107568, Note_off_c,6,29,0,
11,107568, Note_on_c,6,29,110,
11,107664, Note_off_c,6,29,0,
11,107664, Note_on_c,6,29,110,
11,107712, Note_off_c,6,29,0,
11,107712, Note_on_c,6,29,110,
11,107856, Note_off_c,6,29,0,
11,107856, Note_on_c,6,29,110,
11,107952, Note_off_c,6,29,0,
11,107952, Note_on_c,6,29,110,
11,108000, Note_off_c,6,29,0,
11,108000, Note_on_c,6,29,110,
11,108096, Note_off_c,6,29,0,
11,108096, Note_on_c,6,31,110,
11,108192, Note_off_c,6,31,0,
11,108192, Note_on_c,6,33,110,
11,108288, Note_off_c,6,33,0,
11,108288, Note_on_c,6,33,110,
11,108384, Note_off_c,6,33,0,
11,108576, Note_on_c,6,31,110,
11,108672, Note_off_c,6,31,0,
11,108672, Note_on_c,6,31,110,
11,108768, Note_off_c,6,31,0,
11,108912, Note_on_c,6,28,110,
11,108960, Note_off_c,6,28,0,
11,108960, Note_on_c,6,29,110,
11,109056, Note_off_c,6,29,0,
11,109056, Note_on_c,6,29,110,
11,109104, Note_off_c,6,29,0,
11,109104, Note_on_c,6,29,110,
11,109200, Note_off_c,6,29,0,
11,109200, Note_on_c,6,29,110,
11,109248, Note_off_c,6,29,0,
11,109248, Note_on_c,6,29,110,
11,109392, Note_off_c,6,29,0,
11,109392, Note_on_c,6,29,110,
11,109488, Note_off_c,6,29,0,
11,109488, Note_on_c,6,29,110,
11,109536, Note_off_c,6,29,0,
11,109536, Note_on_c,6,29,110,
11,109632, Note_off_c,6,29,0,
11,109632, Note_on_c,6,31,110,
11,109728, Note_off_c,6,31,0,
11,109728, Note_on_c,6,33,110,
11,109824, Note_off_c,6,33,0,
11,109824, Note_on_c,6,33,110,
11,109920, Note_off_c,6,33,0,
11,110112, Note_on_c,6,31,110,
11,110208, Note_off_c,6,31,0,
11,110208, Note_on_c,6,31,110,
11,110304, Note_off_c,6,31,0,
11,110448, Note_on_c,6,28,110,
11,110496, Note_off_c,6,28,0,
11,110496, Note_on_c,6,29,110,
11,110592, Note_off_c,6,29,0,
11,110592, Note_on_c,6,29,110,
11,110640, Note_off_c,6,29,0,
11,110640, Note_on_c,6,29,110,
11,110736, Note_off_c,6,29,0,
11,110736, Note_on_c,6,29,110,
11,110784, Note_off_c,6,29,0,
11,110784, Note_on_c,6,29,110,
11,110928, Note_off_c,6,29,0,
11,110928, Note_on_c,6,29,110,
11,111024, Note_off_c,6,29,0,
11,111024, Note_on_c,6,29,110,
11,111072, Note_off_c,6,29,0,
11,111072, Note_on_c,6,29,110,
11,111168, Note_off_c,6,29,0,
11,111168, Note_on_c,6,31,110,
11,111264, Note_off_c,6,31,0,
11,111264, Note_on_c,6,33,110,
11,111360, Note_off_c,6,33,0,
11,111360, Note_on_c,6,33,110,
11,111456, Note_off_c,6,33,0,
11,111648, Note_on_c,6,31,110,
11,111744, Note_off_c,6,31,0,
11,111744, Note_on_c,6,31,110,
11,111840, Note_off_c,6,31,0,
11,111984, Note_on_c,6,28,110,
11,112032, Note_off_c,6,28,0,
11,112032, Note_on_c,6,29,110,
11,112128, Note_off_c,6,29,0,
11,112128, Note_on_c,6,29,110,
11,112176, Note_off_c,6,29,0,
11,112176, Note_on_c,6,29,110,
11,112272, Note_off_c,6,29,0,
11,112272, Note_on_c,6,29,110,
11,112320, Note_off_c,6,29,0,
11,112320, Note_on_c,6,29,110,
11,112464, Note_off_c,6,29,0,
11,112464, Note_on_c,6,29,110,
11,112560, Note_off_c,6,29,0,
11,112560, Note_on_c,6,29,110,
11,112608, Note_off_c,6,29,0,
11,112608, Note_on_c,6,29,110,
11,112704, Note_off_c,6,29,0,
11,112704, Note_on_c,6,31,110,
11,112800, Note_off_c,6,31,0,
11,112800, Note_on_c,6,33,110,
11,112896, Note_off_c,6,33,0,
11,112896, Note_on_c,6,33,110,
11,112992, Note_off_c,6,33,0,
11,113184, Note_on_c,6,31,110,
11,113280, Note_off_c,6,31,0,
11,113280, Note_on_c,6,31,110,
11,113376, Note_off_c,6,31,0,
11,113520, Note_on_c,6,28,110,
11,113568, Note_off_c,6,28,0,
11,113568, Note_on_c,6,29,110,
11,113664, Note_off_c,6,29,0,
11,113664, Note_on_c,6,29,110,
11,113712, Note_off_c,6,29,0,
11,113712, Note_on_c,6,29,110,
11,113808, Note_off_c,6,29,0,
11,113808, Note_on_c,6,29,110,
11,113856, Note_off_c,6,29,0,
11,113856, Note_on_c,6,29,110,
11,114000, Note_off_c,6,29,0,
11,114000, Note_on_c,6,29,110,
11,114096, Note_off_c,6,29,0,
11,114096, Note_on_c,6,29,110,
11,114144, Note_off_c,6,29,0,
11,114144, Note_on_c,6,29,110,
11,114240, Note_off_c,6,29,0,
11,114240, Note_on_c,6,31,110,
11,114336, Note_off_c,6,31,0,
11,114336, Note_on_c,6,33,110,
11,114432, Note_off_c,6,33,0,
11,114432, Note_on_c,6,33,110,
11,114528, Note_off_c,6,33,0,
11,114720, Note_on_c,6,31,110,
11,114816, Note_off_c,6,31,0,
11,114816, Note_on_c,6,31,110,
11,114912, Note_off_c,6,31,0,
11,115056, Note_on_c,6,28,110,
11,115104, Note_off_c,6,28,0,
11,115104, Note_on_c,6,29,110,
11,115200, Note_off_c,6,29,0,
11,115200, Note_on_c,6,29,110,
11,115248, Note_off_c,6,29,0,
11,115248, Note_on_c,6,29,110,
11,115344, Note_off_c,6,29,0,
11,115344, Note_on_c,6,29,110,
11,115392, Note_off_c,6,29,0,
11,115392, Note_on_c,6,29,110,
11,115536, Note_off_c,6,29,0,
11,115536, Note_on_c,6,29,110,
11,115632, Note_off_c,6,29,0,
11,115632, Note_on_c,6,29,110,
11,115680, Note_off_c,6,29,0,
11,115680, Note_on_c,6,29,110,
11,115776, Note_off_c,6,29,0,
11,115776, Note_on_c,6,31,110,
11,115872, Note_off_c,6,31,0,
11,115872, Note_on_c,6,33,110,
11,115968, Note_off_c,6,33,0,
11,115968, Note_on_c,6,33,110,
11,116064, Note_off_c,6,33,0,
11,116208, Note_on_c,6,29,100,
11,116256, Note_off_c,6,29,0,
11,116256, Note_on_c,6,31,110,
11,116352, Note_off_c,6,31,0,
11,116352, Note_on_c,6,31,110,
11,116448, Note_off_c,6,31,0,
11,116592, Note_on_c,6,29,110,
11,116736, Note_off_c,6,29,0,
11,116736, Note_on_c,6,29,100,
11,116832, Note_off_c,6,29,0,
11,116832, Note_on_c,6,29,100,
11,116976, Note_off_c,6,29,0,
11,116976, Note_on_c,6,28,100,
11,117024, Note_off_c,6,28,0,
11,117024, Note_on_c,6,29,100,
11,117072, Note_off_c,6,29,0,
11,117072, Note_on_c,6,28,100,
11,117120, Note_off_c,6,28,0,
11,117120, Note_on_c,6,30,100,
11,117264, Note_off_c,6,30,0,
11,117264, Note_on_c,6,30,100,
11,117312, Note_off_c,6,30,0,
11,117312, Note_on_c,6,30,100,
11,117360, Note_off_c,6,30,0,
11,117360, Note_on_c,6,31,100,
11,117408, Note_off_c,6,31,0,
11,117408, Note_on_c,6,33,100,
11,117504, Note_off_c,6,33,0,
11,117504, Note_on_c,6,33,100,
11,117600, Note_off_c,6,33,0,
11,117792, Note_on_c,6,31,100,
11,117888, Note_off_c,6,31,0,
11,117888, Note_on_c,6,31,100,
11,117984, Note_off_c,6,31,0,
11,118080, Note_on_c,6,29,100,
11,118272, Note_off_c,6,29,0,
11,118272, Note_on_c,6,28,100,
11,118368, Note_off_c,6,28,0,
11,118368, Note_on_c,6,29,100,
11,118512, Note_off_c,6,29,0,
11,118512, Note_on_c,6,33,100,
11,118560, Note_off_c,6,33,0,
11,118560, Note_on_c,6,36,100,
11,118608, Note_off_c,6,36,0,
11,118608, Note_on_c,6,41,100,
11,118656, Note_off_c,6,41,0,
11,118656, Note_on_c,6,38,100,
11,118704, Note_off_c,6,38,0,
11,118704, Note_on_c,6,36,100,
11,118752, Note_off_c,6,36,0,
11,118752, Note_on_c,6,33,100,
11,118800, Note_off_c,6,33,0,
11,118800, Note_on_c,6,31,100,
11,118848, Note_off_c,6,31,0,
11,118848, Note_on_c,6,29,100,
11,118896, Note_off_c,6,29,0,
11,118896, Note_on_c,6,31,100,
11,118944, Note_off_c,6,31,0,
11,118944, Note_on_c,6,33,100,
11,119136, Note_off_c,6,33,0,
11,119136, Note_on_c,6,33,100,
11,119280, Note_off_c,6,33,0,
11,119280, Note_on_c,6,33,100,
11,119328, Note_off_c,6,33,0,
11,119328, Note_on_c,6,31,100,
11,119424, Note_off_c,6,31,0,
11,119424, Note_on_c,6,31,100,
11,119520, Note_off_c,6,31,0,
11,119520, Note_on_c,6,38,100,
11,119616, Note_off_c,6,38,0,
11,119616, Note_on_c,6,29,100,
11,119808, Note_off_c,6,29,0,
11,119808, Note_on_c,6,29,100,
11,119904, Note_off_c,6,29,0,
11,119904, Note_on_c,6,29,100,
11,120036, Note_off_c,6,29,0,
11,120048, Note_on_c,6,29,100,
11,120096, Note_off_c,6,29,0,
11,120096, Note_on_c,6,29,100,
11,120144, Note_off_c,6,29,0,
11,120144, Note_on_c,6,29,100,
11,120192, Note_off_c,6,29,0,
11,120192, Note_on_c,6,29,100,
11,120336, Note_off_c,6,29,0,
11,120336, Note_on_c,6,28,100,
11,120384, Note_off_c,6,28,0,
11,120384, Note_on_c,6,29,100,
11,120432, Note_off_c,6,29,0,
11,120432, Note_on_c,6,28,100,
11,120480, Note_off_c,6,28,0,
11,120480, Note_on_c,6,33,100,
11,120576, Note_off_c,6,33,0,
11,120576, Note_on_c,6,29,100,
11,120672, Note_off_c,6,29,0,
11,120672, Note_on_c,6,33,100,
11,120816, Note_off_c,6,33,0,
11,120816, Note_on_c,6,33,100,
11,120864, Note_off_c,6,33,0,
11,120864, Note_on_c,6,31,100,
11,120960, Note_off_c,6,31,0,
11,120960, Note_on_c,6,31,100,
11,121056, Note_off_c,6,31,0,
11,121056, Note_on_c,6,38,100,
11,121104, Note_off_c,6,38,0,
11,121104, Note_on_c,6,31,100,
11,121152, Note_off_c,6,31,0,
11,121152, Note_on_c,6,29,100,
11,121344, Note_off_c,6,29,0,
11,121344, Note_on_c,6,29,100,
11,121440, Note_off_c,6,29,0,
11,121440, Note_on_c,6,29,100,
11,121584, Note_off_c,6,29,0,
11,121584, Note_on_c,6,33,100,
11,121632, Note_off_c,6,33,0,
11,121632, Note_on_c,6,36,100,
11,121680, Note_off_c,6,36,0,
11,121680, Note_on_c,6,41,100,
11,121776, Note_off_c,6,41,0,
11,121776, Note_on_c,6,36,100,
11,121824, Note_off_c,6,36,0,
11,121824, Note_on_c,6,41,100,
11,121872, Note_off_c,6,41,0,
11,121872, Note_on_c,6,29,100,
11,121920, Note_off_c,6,29,0,
11,121920, Note_on_c,6,29,100,
11,121968, Note_off_c,6,29,0,
11,121968, Note_on_c,6,31,100,
11,122016, Note_off_c,6,31,0,
11,122016, Note_on_c,6,33,100,
11,122112, Note_off_c,6,33,0,
11,122112, Note_on_c,6,28,100,
11,122208, Note_off_c,6,28,0,
11,122208, Note_on_c,6,33,100,
11,122352, Note_off_c,6,33,0,
11,122352, Note_on_c,6,33,100,
11,122400, Note_off_c,6,33,0,
11,122400, Note_on_c,6,31,100,
11,122496, Note_off_c,6,31,0,
11,122496, Note_on_c,6,31,100,
11,122592, Note_off_c,6,31,0,
11,122592, Note_on_c,6,38,100,
11,122640, Note_off_c,6,38,0,
11,122640, Note_on_c,6,31,100,
11,122688, Note_off_c,6,31,0,
11,122688, Note_on_c,6,29,100,
11,122784, Note_off_c,6,29,0,
11,122784, Note_on_c,6,29,100,
11,122880, Note_off_c,6,29,0,
11,122880, Note_on_c,6,29,100,
11,122976, Note_off_c,6,29,0,
11,122976, Note_on_c,6,29,100,
11,123120, Note_off_c,6,29,0,
11,123120, Note_on_c,6,33,100,
11,123168, Note_off_c,6,33,0,
11,123168, Note_on_c,6,36,100,
11,123216, Note_off_c,6,36,0,
11,123216, Note_on_c,6,41,100,
11,123264, Note_off_c,6,41,0,
11,123264, Note_on_c,6,41,100,
11,123312, Note_off_c,6,41,0,
11,123312, Note_on_c,6,36,100,
11,123360, Note_off_c,6,36,0,
11,123360, Note_on_c,6,36,100,
11,123408, Note_off_c,6,36,0,
11,123408, Note_on_c,6,41,100,
11,123456, Note_off_c,6,41,0,
11,123456, Note_on_c,6,29,100,
11,123492, Note_off_c,6,29,0,
11,123504, Note_on_c,6,31,100,
11,123552, Note_off_c,6,31,0,
11,123552, Note_on_c,6,33,100,
11,123648, Note_off_c,6,33,0,
11,123648, Note_on_c,6,33,100,
11,123744, Note_off_c,6,33,0,
11,123744, Note_on_c,6,33,100,
11,123936, Note_off_c,6,33,0,
11,123936, Note_on_c,6,31,100,
11,124032, Note_off_c,6,31,0,
11,124032, Note_on_c,6,31,100,
11,124128, Note_off_c,6,31,0,
11,124128, Note_on_c,6,31,100,
11,124320, Note_off_c,6,31,0,
11,124320, Note_on_c,6,29,127,
11,125856, Note_off_c,6,29,0,
11,125856, End_track,,,,
12,0, Start_track,,,,
12,0, Instrument_t,12 string guitar 3  ,,,
12,0, Channel_prefix,11,,,
12,0, Control_c,11,7,90,
12,0, Control_c,11,10,34,
12,0, Program_c,11,25,,
12,0, Control_c,11,0,8,
12,12, Program_c,11,25,,
12,88128, Note_on_c,11,62,90,
12,88308, Note_off_c,11,62,0,
12,88320, Note_on_c,11,52,90,
12,88320, Note_on_c,11,62,90,
12,88404, Note_off_c,11,62,0,
12,88404, Note_off_c,11,52,0,
12,88704, Note_on_c,11,55,90,
12,88704, Note_on_c,11,62,90,
12,88704, Note_on_c,11,64,90,
12,88788, Note_off_c,11,64,0,
12,88788, Note_off_c,11,62,0,
12,88788, Note_off_c,11,55,0,
12,88800, Note_on_c,11,55,90,
12,88808, Note_on_c,11,64,90,
12,88980, Note_off_c,11,55,0,
12,88988, Note_off_c,11,64,0,
12,88992, Note_on_c,11,55,90,
12,88992, Note_on_c,11,62,90,
12,88992, Note_on_c,11,64,90,
12,89172, Note_off_c,11,64,0,
12,89172, Note_off_c,11,62,0,
12,89172, Note_off_c,11,55,0,
12,89184, Note_on_c,11,55,90,
12,89184, Note_on_c,11,62,90,
12,89184, Note_on_c,11,66,90,
12,89364, Note_off_c,11,66,0,
12,89364, Note_off_c,11,62,0,
12,89364, Note_off_c,11,55,0,
12,89376, Note_on_c,11,55,90,
12,89376, Note_on_c,11,62,90,
12,89376, Note_on_c,11,66,90,
12,89556, Note_off_c,11,66,0,
12,89556, Note_off_c,11,62,0,
12,89556, Note_off_c,11,55,0,
12,89568, Note_on_c,11,55,90,
12,89568, Note_on_c,11,62,90,
12,89568, Note_on_c,11,64,90,
12,89748, Note_off_c,11,64,0,
12,89748, Note_off_c,11,62,0,
12,89748, Note_off_c,11,55,0,
12,89748, End_track,,,,
13,0, Start_track,,,,
13,0, Instrument_t,electric guitar     ,,,
13,0, Channel_prefix,10,,,
13,0, Control_c,10,7,103,
13,0, Control_c,10,10,94,
13,0, Program_c,10,29,,
13,0, Control_c,10,0,0,
13,12, Program_c,10,29,,
13,89760, Note_on_c,10,62,90,
13,89761, Note_off_c,10,62,0,
13,89772, Note_on_c,10,64,90,
13,90132, Note_off_c,10,64,0,
13,90144, Note_on_c,10,69,90,
13,90180, Note_off_c,10,69,0,
13,90192, Note_on_c,10,67,90,
13,90228, Note_off_c,10,67,0,
13,90240, Note_on_c,10,64,90,
13,90276, Note_off_c,10,64,0,
13,90288, Note_on_c,10,62,90,
13,90324, Note_off_c,10,62,0,
13,90336, Note_on_c,10,60,90,
13,90372, Note_off_c,10,60,0,
13,90384, Note_on_c,10,57,90,
13,90420, Note_off_c,10,57,0,
13,90432, Note_on_c,10,62,90,
13,90468, Note_off_c,10,62,0,
13,90480, Note_on_c,10,60,90,
13,90528, Note_off_c,10,60,0,
13,90528, Note_on_c,10,57,90,
13,90564, Note_off_c,10,57,0,
13,90576, Note_on_c,10,55,90,
13,90612, Note_off_c,10,55,0,
13,90624, Note_on_c,10,53,90,
13,90900, Note_off_c,10,53,0,
13,91008, Note_on_c,10,67,90,
13,91044, Note_off_c,10,67,0,
13,91056, Note_on_c,10,69,90,
13,91092, Note_off_c,10,69,0,
13,91104, Note_on_c,10,72,90,
13,91188, Note_off_c,10,72,0,
13,91200, Note_on_c,10,72,90,
13,91284, Note_off_c,10,72,0,
13,91296, Note_on_c,10,72,90,
13,91296, Note_on_c,10,74,90,
13,91297, Note_off_c,10,72,0,
13,91476, Note_off_c,10,74,0,
13,91488, Note_on_c,10,72,90,
13,91572, Note_off_c,10,72,0,
13,91584, Note_on_c,10,69,90,
13,91668, Note_off_c,10,69,0,
13,91680, Note_on_c,10,69,90,
13,91716, Note_off_c,10,69,0,
13,91728, Note_on_c,10,67,90,
13,91764, Note_off_c,10,67,0,
13,91776, Note_on_c,10,69,90,
13,91860, Note_off_c,10,69,0,
13,91872, Note_on_c,10,72,90,
13,92004, Note_off_c,10,72,0,
13,92016, Note_on_c,10,74,90,
13,92064, Note_off_c,10,74,0,
13,92064, Note_on_c,10,72,90,
13,92100, Note_off_c,10,72,0,
13,92112, Note_on_c,10,69,90,
13,92148, Note_off_c,10,69,0,
13,92160, Note_on_c,10,67,90,
13,92196, Note_off_c,10,67,0,
13,92208, Note_on_c,10,65,90,
13,92244, Note_off_c,10,65,0,
13,92256, Note_on_c,10,67,90,
13,92292, Note_off_c,10,67,0,
13,92304, Note_on_c,10,69,90,
13,92532, Note_off_c,10,69,0,
13,92544, Note_on_c,10,62,90,
13,92580, Note_off_c,10,62,0,
13,92592, Note_on_c,10,64,90,
13,92628, Note_off_c,10,64,0,
13,92640, Note_on_c,10,69,90,
13,92676, Note_off_c,10,69,0,
13,92688, Note_on_c,10,67,90,
13,92724, Note_off_c,10,67,0,
13,92736, Note_on_c,10,64,90,
13,92772, Note_off_c,10,64,0,
13,92784, Note_on_c,10,62,90,
13,92820, Note_off_c,10,62,0,
13,92832, Note_on_c,10,72,90,
13,92868, Note_off_c,10,72,0,
13,92880, Note_on_c,10,69,90,
13,92916, Note_off_c,10,69,0,
13,92928, Note_on_c,10,74,90,
13,92964, Note_off_c,10,74,0,
13,92976, Note_on_c,10,72,90,
13,93012, Note_off_c,10,72,0,
13,93024, Note_on_c,10,69,90,
13,93060, Note_off_c,10,69,0,
13,93072, Note_on_c,10,67,90,
13,93108, Note_off_c,10,67,0,
13,93120, Note_on_c,10,64,90,
13,93156, Note_off_c,10,64,0,
13,93168, Note_on_c,10,67,90,
13,93204, Note_off_c,10,67,0,
13,93216, Note_on_c,10,69,90,
13,93312, Note_on_c,10,72,90,
13,93348, Note_off_c,10,72,0,
13,93348, Note_off_c,10,69,0,
13,93360, Note_on_c,10,69,90,
13,93396, Note_off_c,10,69,0,
13,93408, Note_on_c,10,72,90,
13,93492, Note_off_c,10,72,0,
13,93504, Note_on_c,10,72,90,
13,93588, Note_off_c,10,72,0,
13,93600, Note_on_c,10,67,90,
13,93684, Note_off_c,10,67,0,
13,93696, Note_on_c,10,81,90,
13,93732, Note_off_c,10,81,0,
13,93744, Note_on_c,10,79,90,
13,93780, Note_off_c,10,79,0,
13,93792, Note_on_c,10,76,90,
13,93828, Note_off_c,10,76,0,
13,93840, Note_on_c,10,74,90,
13,93876, Note_off_c,10,74,0,
13,93888, Note_on_c,10,72,90,
13,93924, Note_off_c,10,72,0,
13,93936, Note_on_c,10,69,90,
13,93972, Note_off_c,10,69,0,
13,93984, Note_on_c,10,74,90,
13,94020, Note_off_c,10,74,0,
13,94032, Note_on_c,10,72,90,
13,94068, Note_off_c,10,72,0,
13,94080, Note_on_c,10,69,90,
13,94116, Note_off_c,10,69,0,
13,94128, Note_on_c,10,67,90,
13,94164, Note_off_c,10,67,0,
13,94176, Note_on_c,10,69,90,
13,94212, Note_off_c,10,69,0,
13,94224, Note_on_c,10,67,90,
13,94260, Note_off_c,10,67,0,
13,94272, Note_on_c,10,65,90,
13,94368, Note_off_c,10,65,0,
13,94368, Note_on_c,10,65,90,
13,94368, Note_on_c,10,69,90,
13,94369, Note_off_c,10,65,0,
13,94452, Note_off_c,10,69,0,
13,94464, Note_on_c,10,72,90,
13,94500, Note_off_c,10,72,0,
13,94512, Note_on_c,10,77,90,
13,94548, Note_off_c,10,77,0,
13,94560, Note_on_c,10,74,90,
13,94596, Note_off_c,10,74,0,
13,94608, Note_on_c,10,72,90,
13,94644, Note_off_c,10,72,0,
13,94656, Note_on_c,10,69,90,
13,94692, Note_off_c,10,69,0,
13,94704, Note_on_c,10,72,90,
13,94740, Note_off_c,10,72,0,
13,94752, Note_on_c,10,74,90,
13,94788, Note_off_c,10,74,0,
13,94800, Note_on_c,10,76,90,
13,94836, Note_off_c,10,76,0,
13,94848, Note_on_c,10,79,90,
13,94884, Note_off_c,10,79,0,
13,94896, Note_on_c,10,76,90,
13,94932, Note_off_c,10,76,0,
13,94944, Note_on_c,10,79,90,
13,94980, Note_off_c,10,79,0,
13,94992, Note_on_c,10,81,90,
13,95028, Note_off_c,10,81,0,
13,95040, Note_on_c,10,84,90,
13,95124, Note_off_c,10,84,0,
13,95136, Note_on_c,10,74,90,
13,95136, Note_on_c,10,76,90,
13,95137, Note_off_c,10,74,0,
13,95220, Note_off_c,10,76,0,
13,95232, Note_on_c,10,74,90,
13,95268, Note_off_c,10,74,0,
13,95280, Note_on_c,10,72,90,
13,95316, Note_off_c,10,72,0,
13,95328, Note_on_c,10,74,90,
13,95364, Note_off_c,10,74,0,
13,95376, Note_on_c,10,72,90,
13,95412, Note_off_c,10,72,0,
13,95424, Note_on_c,10,72,90,
13,95460, Note_off_c,10,72,0,
13,95472, Note_on_c,10,79,90,
13,95508, Note_off_c,10,79,0,
13,95520, Note_on_c,10,81,90,
13,95604, Note_off_c,10,81,0,
13,95616, Note_on_c,10,79,90,
13,95652, Note_off_c,10,79,0,
13,95664, Note_on_c,10,76,90,
13,95700, Note_off_c,10,76,0,
13,95712, Note_on_c,10,74,90,
13,95712, Note_on_c,10,76,90,
13,95713, Note_off_c,10,74,0,
13,95748, Note_off_c,10,76,0,
13,95760, Note_on_c,10,74,90,
13,95796, Note_off_c,10,74,0,
13,95808, Note_on_c,10,72,90,
13,95844, Note_off_c,10,72,0,
13,95856, Note_on_c,10,69,90,
13,95892, Note_off_c,10,69,0,
13,95904, Note_on_c,10,72,90,
13,95940, Note_off_c,10,72,0,
13,95952, Note_on_c,10,76,90,
13,95952, Note_on_c,10,74,90,
13,95953, Note_off_c,10,74,0,
13,95988, Note_off_c,10,76,0,
13,96000, Note_on_c,10,74,90,
13,96032, Note_off_c,10,74,0,
13,96032, Note_on_c,10,72,90,
13,96064, Note_off_c,10,72,0,
13,96064, Note_on_c,10,69,90,
13,96096, Note_off_c,10,69,0,
13,96096, Note_on_c,10,72,90,
13,96132, Note_off_c,10,72,0,
13,96144, Note_on_c,10,76,90,
13,96144, Note_on_c,10,74,90,
13,96145, Note_off_c,10,74,0,
13,96180, Note_off_c,10,76,0,
13,96192, Note_on_c,10,74,90,
13,96224, Note_off_c,10,74,0,
13,96224, Note_on_c,10,72,90,
13,96256, Note_off_c,10,72,0,
13,96256, Note_on_c,10,69,90,
13,96288, Note_off_c,10,69,0,
13,96288, Note_on_c,10,72,90,
13,96324, Note_off_c,10,72,0,
13,96336, Note_on_c,10,76,90,
13,96336, Note_on_c,10,74,90,
13,96337, Note_off_c,10,74,0,
13,96372, Note_off_c,10,76,0,
13,96384, Note_on_c,10,74,90,
13,96416, Note_off_c,10,74,0,
13,96416, Note_on_c,10,72,90,
13,96448, Note_off_c,10,72,0,
13,96448, Note_on_c,10,69,90,
13,96480, Note_off_c,10,69,0,
13,96480, Note_on_c,10,72,90,
13,96516, Note_off_c,10,72,0,
13,96528, Note_on_c,10,76,90,
13,96528, Note_on_c,10,74,90,
13,96529, Note_off_c,10,74,0,
13,96564, Note_off_c,10,76,0,
13,96576, Note_on_c,10,74,90,
13,96608, Note_off_c,10,74,0,
13,96608, Note_on_c,10,72,90,
13,96640, Note_off_c,10,72,0,
13,96640, Note_on_c,10,69,90,
13,96672, Note_off_c,10,69,0,
13,96672, Note_on_c,10,72,90,
13,96708, Note_off_c,10,72,0,
13,96720, Note_on_c,10,76,90,
13,96720, Note_on_c,10,74,90,
13,96721, Note_off_c,10,74,0,
13,96756, Note_off_c,10,76,0,
13,96768, Note_on_c,10,74,90,
13,96800, Note_off_c,10,74,0,
13,96800, Note_on_c,10,72,90,
13,96832, Note_off_c,10,72,0,
13,96832, Note_on_c,10,69,90,
13,96864, Note_off_c,10,69,0,
13,96864, Note_on_c,10,72,90,
13,96900, Note_off_c,10,72,0,
13,96912, Note_on_c,10,76,90,
13,96912, Note_on_c,10,74,90,
13,96913, Note_off_c,10,74,0,
13,96948, Note_off_c,10,76,0,
13,96960, Note_on_c,10,74,90,
13,96992, Note_off_c,10,74,0,
13,96992, Note_on_c,10,72,90,
13,97024, Note_off_c,10,72,0,
13,97024, Note_on_c,10,69,90,
13,97056, Note_off_c,10,69,0,
13,97056, Note_on_c,10,72,90,
13,97092, Note_off_c,10,72,0,
13,97104, Note_on_c,10,76,90,
13,97104, Note_on_c,10,74,90,
13,97105, Note_off_c,10,74,0,
13,97140, Note_off_c,10,76,0,
13,97152, Note_on_c,10,74,90,
13,97184, Note_off_c,10,74,0,
13,97184, Note_on_c,10,72,90,
13,97216, Note_off_c,10,72,0,
13,97216, Note_on_c,10,69,90,
13,97248, Note_off_c,10,69,0,
13,97248, Note_on_c,10,72,90,
13,97284, Note_off_c,10,72,0,
13,97296, Note_on_c,10,76,90,
13,97296, Note_on_c,10,74,90,
13,97297, Note_off_c,10,74,0,
13,97332, Note_off_c,10,76,0,
13,97344, Note_on_c,10,74,90,
13,97376, Note_off_c,10,74,0,
13,97376, Note_on_c,10,72,90,
13,97408, Note_off_c,10,72,0,
13,97408, Note_on_c,10,69,90,
13,97440, Note_off_c,10,69,0,
13,97440, Note_on_c,10,72,90,
13,97476, Note_off_c,10,72,0,
13,97488, Note_on_c,10,76,90,
13,97488, Note_on_c,10,74,90,
13,97489, Note_off_c,10,74,0,
13,97524, Note_off_c,10,76,0,
13,97536, Note_on_c,10,74,90,
13,97568, Note_off_c,10,74,0,
13,97568, Note_on_c,10,72,90,
13,97600, Note_off_c,10,72,0,
13,97600, Note_on_c,10,69,90,
13,97632, Note_off_c,10,69,0,
13,97632, Note_on_c,10,72,90,
13,97668, Note_off_c,10,72,0,
13,97680, Note_on_c,10,76,90,
13,97680, Note_on_c,10,74,90,
13,97681, Note_off_c,10,74,0,
13,97716, Note_off_c,10,76,0,
13,97728, Note_on_c,10,74,90,
13,97760, Note_off_c,10,74,0,
13,97760, Note_on_c,10,72,90,
13,97792, Note_off_c,10,72,0,
13,97792, Note_on_c,10,69,90,
13,97824, Note_off_c,10,69,0,
13,97828, Note_on_c,10,72,90,
13,97864, Note_off_c,10,72,0,
13,97876, Note_on_c,10,79,90,
13,97912, Note_off_c,10,79,0,
13,97924, Note_on_c,10,81,90,
13,98244, Note_off_c,10,81,0,
13,98256, Note_on_c,10,79,90,
13,98292, Note_off_c,10,79,0,
13,98304, Note_on_c,10,76,90,
13,98340, Note_off_c,10,76,0,
13,98352, Note_on_c,10,74,90,
13,98388, Note_off_c,10,74,0,
13,98400, Note_on_c,10,76,90,
13,98436, Note_off_c,10,76,0,
13,98448, Note_on_c,10,74,90,
13,98484, Note_off_c,10,74,0,
13,98496, Note_on_c,10,72,90,
13,98532, Note_off_c,10,72,0,
13,98544, Note_on_c,10,69,90,
13,98580, Note_off_c,10,69,0,
13,98592, Note_on_c,10,72,90,
13,98628, Note_off_c,10,72,0,
13,98640, Note_on_c,10,74,90,
13,98676, Note_off_c,10,74,0,
13,98688, Note_on_c,10,72,90,
13,98724, Note_off_c,10,72,0,
13,98736, Note_on_c,10,69,90,
13,98772, Note_off_c,10,69,0,
13,98784, Note_on_c,10,72,90,
13,98820, Note_off_c,10,72,0,
13,98832, Note_on_c,10,74,90,
13,98868, Note_off_c,10,74,0,
13,98880, Note_on_c,10,76,90,
13,98916, Note_off_c,10,76,0,
13,98928, Note_on_c,10,79,90,
13,98964, Note_off_c,10,79,0,
13,98976, Note_on_c,10,76,90,
13,99008, Note_off_c,10,76,0,
13,99008, Note_on_c,10,74,90,
13,99040, Note_off_c,10,74,0,
13,99040, Note_on_c,10,72,90,
13,99072, Note_off_c,10,72,0,
13,99072, Note_on_c,10,69,90,
13,99636, Note_off_c,10,69,0,
13,99840, Note_on_c,10,74,90,
13,99876, Note_off_c,10,74,0,
13,99888, Note_on_c,10,76,90,
13,99936, Note_on_c,10,79,90,
13,99972, Note_off_c,10,79,0,
13,99984, Note_on_c,10,81,90,
13,100068, Note_off_c,10,76,0,
13,100068, Note_off_c,10,81,0,
13,100080, Note_on_c,10,79,90,
13,100164, Note_off_c,10,79,0,
13,100176, Note_on_c,10,74,90,
13,100176, Note_on_c,10,76,90,
13,100177, Note_off_c,10,74,0,
13,100212, Note_off_c,10,76,0,
13,100224, Note_on_c,10,74,90,
13,100256, Note_off_c,10,74,0,
13,100256, Note_on_c,10,72,90,
13,100288, Note_off_c,10,72,0,
13,100288, Note_on_c,10,69,90,
13,100320, Note_off_c,10,69,0,
13,100320, Note_on_c,10,74,90,
13,100356, Note_off_c,10,74,0,
13,100368, Note_on_c,10,72,90,
13,100404, Note_off_c,10,72,0,
13,100416, Note_on_c,10,69,90,
13,100452, Note_off_c,10,69,0,
13,100464, Note_on_c,10,74,90,
13,100500, Note_off_c,10,74,0,
13,100512, Note_on_c,10,74,90,
13,100596, Note_off_c,10,74,0,
13,100608, Note_on_c,10,76,90,
13,101268, Note_off_c,10,76,0,
13,101376, Note_on_c,10,81,90,
13,101412, Note_off_c,10,81,0,
13,101424, Note_on_c,10,84,90,
13,101652, Note_off_c,10,84,0,
13,101664, Note_on_c,10,81,90,
13,101664, Note_on_c,10,84,90,
13,101665, Note_off_c,10,81,0,
13,101748, Note_off_c,10,84,0,
13,101760, Note_on_c,10,81,90,
13,101844, Note_off_c,10,81,0,
13,101856, Note_on_c,10,79,60,
13,101904, Note_off_c,10,79,0,
13,101904, Note_on_c,10,81,60,
13,101952, Note_off_c,10,81,0,
13,101952, Note_on_c,10,79,60,
13,102000, Note_off_c,10,79,0,
13,102000, Note_on_c,10,79,90,
13,102804, Note_off_c,10,79,0,
13,102900, Note_on_c,10,77,90,
13,103188, Note_off_c,10,77,0,
13,103200, Note_on_c,10,81,90,
13,103284, Note_off_c,10,81,0,
13,103296, Note_on_c,10,79,90,
13,103308, Note_off_c,10,79,0,
13,103320, Note_on_c,10,77,90,
13,103332, Note_off_c,10,77,0,
13,103344, Note_on_c,10,76,90,
13,103380, Note_off_c,10,76,0,
13,103392, Note_on_c,10,74,90,
13,103428, Note_off_c,10,74,0,
13,103440, Note_on_c,10,72,90,
13,103476, Note_off_c,10,72,0,
13,103488, Note_on_c,10,74,90,
13,103524, Note_off_c,10,74,0,
13,103536, Note_on_c,10,72,90,
13,103572, Note_off_c,10,72,0,
13,103584, Note_on_c,10,74,90,
13,103620, Note_off_c,10,74,0,
13,103632, Note_on_c,10,76,90,
13,103668, Note_off_c,10,76,0,
13,103680, Note_on_c,10,74,90,
13,103716, Note_off_c,10,74,0,
13,103728, Note_on_c,10,72,90,
13,103764, Note_off_c,10,72,0,
13,103776, Note_on_c,10,69,60,
13,104148, Note_off_c,10,69,0,
13,104416, Note_on_c,10,76,90,
13,104448, Note_off_c,10,76,0,
13,104448, Note_on_c,10,84,90,
13,104480, Note_off_c,10,84,0,
13,104480, Note_on_c,10,81,90,
13,104512, Note_off_c,10,81,0,
13,104512, Note_on_c,10,76,90,
13,104544, Note_off_c,10,76,0,
13,104544, Note_on_c,10,84,90,
13,104576, Note_off_c,10,84,0,
13,104576, Note_on_c,10,81,90,
13,104608, Note_off_c,10,81,0,
13,104608, Note_on_c,10,76,90,
13,104640, Note_off_c,10,76,0,
13,104640, Note_on_c,10,84,90,
13,104672, Note_off_c,10,84,0,
13,104672, Note_on_c,10,81,90,
13,104704, Note_off_c,10,81,0,
13,104704, Note_on_c,10,76,90,
13,104736, Note_off_c,10,76,0,
13,104736, Note_on_c,10,84,90,
13,104768, Note_off_c,10,84,0,
13,104768, Note_on_c,10,81,90,
13,104800, Note_off_c,10,81,0,
13,104800, Note_on_c,10,76,90,
13,104832, Note_off_c,10,76,0,
13,104832, Note_on_c,10,84,90,
13,104864, Note_off_c,10,84,0,
13,104864, Note_on_c,10,81,90,
13,104896, Note_off_c,10,81,0,
13,104896, Note_on_c,10,76,90,
13,104928, Note_off_c,10,76,0,
13,104928, Note_on_c,10,84,90,
13,104976, Note_off_c,10,84,0,
13,104976, Note_on_c,10,86,90,
13,105108, Note_off_c,10,86,0,
13,105108, End_track,,,,
14,0, Start_track,,,,
14,0, Instrument_t,electric guitar 2   ,,,
14,0, Channel_prefix,3,,,
14,0, Control_c,3,7,100,
14,0, Program_c,3,30,,
14,0, Control_c,3,0,0,
14,12, Program_c,3,30,,
14,99168, Note_on_c,3,72,90,
14,99348, Note_off_c,3,72,0,
14,99360, Note_on_c,3,71,90,
14,99540, Note_off_c,3,71,0,
14,99552, Note_on_c,3,72,90,
14,99684, Note_off_c,3,72,0,
14,99684, Note_on_c,3,71,64,
14,99708, Note_off_c,3,71,0,
14,99708, Note_on_c,3,70,64,
14,99732, Note_off_c,3,70,0,
14,99732, Note_on_c,3,69,90,
14,100308, Note_off_c,3,69,0,
14,100704, Note_on_c,3,72,90,
14,100884, Note_off_c,3,72,0,
14,100896, Note_on_c,3,71,90,
14,101076, Note_off_c,3,71,0,
14,101088, Note_on_c,3,72,90,
14,101220, Note_off_c,3,72,0,
14,101220, Note_on_c,3,71,64,
14,101244, Note_off_c,3,71,0,
14,101244, Note_on_c,3,70,64,
14,101268, Note_off_c,3,70,0,
14,101268, Note_on_c,3,69,90,
14,101844, Note_off_c,3,69,0,
14,102240, Note_on_c,3,72,90,
14,102420, Note_off_c,3,72,0,
14,102432, Note_on_c,3,71,90,
14,102612, Note_off_c,3,71,0,
14,102624, Note_on_c,3,72,90,
14,102756, Note_off_c,3,72,0,
14,102756, Note_on_c,3,71,64,
14,102780, Note_off_c,3,71,0,
14,102780, Note_on_c,3,70,64,
14,102804, Note_off_c,3,70,0,
14,102804, Note_on_c,3,69,90,
14,103380, Note_off_c,3,69,0,
14,103776, Note_on_c,3,72,90,
14,103956, Note_off_c,3,72,0,
14,103968, Note_on_c,3,71,90,
14,104148, Note_off_c,3,71,0,
14,104160, Note_on_c,3,72,90,
14,104292, Note_off_c,3,72,0,
14,104292, Note_on_c,3,71,64,
14,104316, Note_off_c,3,71,0,
14,104316, Note_on_c,3,70,64,
14,104340, Note_off_c,3,70,0,
14,104340, Note_on_c,3,69,90,
14,104916, Note_off_c,3,69,0,
14,110496, Note_on_c,3,65,90,
14,110640, Note_off_c,3,65,0,
14,110640, Note_on_c,3,69,90,
14,110784, Note_off_c,3,69,0,
14,110784, Note_on_c,3,72,90,
14,110928, Note_off_c,3,72,0,
14,110928, Note_on_c,3,74,90,
14,110929, Note_off_c,3,74,0,
14,110940, Note_on_c,3,76,90,
14,111072, Note_off_c,3,76,0,
14,111072, Note_on_c,3,74,90,
14,111168, Note_off_c,3,74,0,
14,111168, Note_on_c,3,72,90,
14,111264, Note_off_c,3,72,0,
14,111264, Note_on_c,3,69,90,
14,111360, Note_off_c,3,69,0,
14,111360, Note_on_c,3,69,90,
14,111456, Note_off_c,3,69,0,
14,111648, Note_on_c,3,67,90,
14,111744, Note_off_c,3,67,0,
14,111744, Note_on_c,3,67,90,
14,111840, Note_off_c,3,67,0,
14,112032, Note_on_c,3,65,90,
14,112164, Note_off_c,3,65,0,
14,112164, Note_on_c,3,67,90,
14,112165, Note_off_c,3,67,0,
14,112176, Note_on_c,3,69,90,
14,112320, Note_off_c,3,69,0,
14,112320, Note_on_c,3,72,90,
14,112464, Note_off_c,3,72,0,
14,112464, Note_on_c,3,74,90,
14,112464, Note_on_c,3,76,90,
14,112465, Note_off_c,3,74,0,
14,112608, Note_off_c,3,76,0,
14,112608, Note_on_c,3,74,90,
14,112704, Note_off_c,3,74,0,
14,112704, Note_on_c,3,72,90,
14,112800, Note_off_c,3,72,0,
14,112800, Note_on_c,3,69,90,
14,112896, Note_off_c,3,69,0,
14,112896, Note_on_c,3,69,90,
14,112992, Note_off_c,3,69,0,
14,113184, Note_on_c,3,67,90,
14,113280, Note_off_c,3,67,0,
14,113280, Note_on_c,3,67,90,
14,113376, Note_off_c,3,67,0,
14,113568, Note_on_c,3,65,90,
14,113700, Note_off_c,3,65,0,
14,113700, Note_on_c,3,67,90,
14,113701, Note_off_c,3,67,0,
14,113712, Note_on_c,3,69,90,
14,113856, Note_off_c,3,69,0,
14,113856, Note_on_c,3,72,90,
14,114000, Note_off_c,3,72,0,
14,114000, Note_on_c,3,74,90,
14,114000, Note_on_c,3,76,90,
14,114001, Note_off_c,3,74,0,
14,114144, Note_off_c,3,76,0,
14,114144, Note_on_c,3,74,90,
14,114240, Note_off_c,3,74,0,
14,114240, Note_on_c,3,72,90,
14,114336, Note_off_c,3,72,0,
14,114336, Note_on_c,3,69,90,
14,114432, Note_off_c,3,69,0,
14,114432, Note_on_c,3,69,90,
14,114528, Note_off_c,3,69,0,
14,114720, Note_on_c,3,67,90,
14,114816, Note_off_c,3,67,0,
14,114816, Note_on_c,3,67,90,
14,114912, Note_off_c,3,67,0,
14,115104, Note_on_c,3,65,90,
14,115236, Note_off_c,3,65,0,
14,115236, Note_on_c,3,67,90,
14,115237, Note_off_c,3,67,0,
14,115248, Note_on_c,3,69,90,
14,115392, Note_off_c,3,69,0,
14,115392, Note_on_c,3,72,90,
14,115536, Note_off_c,3,72,0,
14,115536, Note_on_c,3,74,90,
14,115536, Note_on_c,3,76,90,
14,115537, Note_off_c,3,74,0,
14,115680, Note_off_c,3,76,0,
14,115680, Note_on_c,3,74,90,
14,115776, Note_off_c,3,74,0,
14,115776, Note_on_c,3,72,90,
14,115872, Note_off_c,3,72,0,
14,115872, Note_on_c,3,69,90,
14,115968, Note_off_c,3,69,0,
14,115968, Note_on_c,3,69,90,
14,116064, Note_off_c,3,69,0,
14,116256, Note_on_c,3,67,90,
14,116352, Note_off_c,3,67,0,
14,116352, Note_on_c,3,67,90,
14,116448, Note_off_c,3,67,0,
14,116544, Note_on_c,3,65,90,
14,117024, Note_off_c,3,65,0,
14,117408, Note_on_c,3,69,90,
14,117504, Note_off_c,3,69,0,
14,117504, Note_on_c,3,69,90,
14,117600, Note_off_c,3,69,0,
14,117792, Note_on_c,3,67,90,
14,117888, Note_off_c,3,67,0,
14,117888, Note_on_c,3,67,90,
14,117984, Note_off_c,3,67,0,
14,118080, Note_on_c,3,65,90,
14,118560, Note_off_c,3,65,0,
14,118944, Note_on_c,3,67,90,
14,118944, Note_on_c,3,69,90,
14,118945, Note_off_c,3,67,0,
14,119424, Note_off_c,3,69,0,
14,119424, Note_on_c,3,72,90,
14,119520, Note_off_c,3,72,0,
14,119520, Note_on_c,3,74,90,
14,119568, Note_off_c,3,74,0,
14,119568, Note_on_c,3,69,90,
14,119712, Note_off_c,3,69,0,
14,119712, Note_on_c,3,67,90,
14,119760, Note_off_c,3,67,0,
14,119760, Note_on_c,3,69,90,
14,119904, Note_off_c,3,69,0,
14,119904, Note_on_c,3,67,90,
14,119904, Note_on_c,3,69,90,
14,119905, Note_off_c,3,67,0,
14,120288, Note_off_c,3,69,0,
14,120288, Note_on_c,3,60,90,
14,120288, Note_on_c,3,62,90,
14,120289, Note_off_c,3,60,0,
14,120480, Note_off_c,3,62,0,
14,120480, Note_on_c,3,62,90,
14,120480, Note_on_c,3,64,90,
14,120481, Note_off_c,3,62,0,
14,120864, Note_off_c,3,64,0,
14,120864, Note_on_c,3,65,90,
14,120864, Note_on_c,3,67,90,
14,120865, Note_off_c,3,65,0,
14,121056, Note_off_c,3,67,0,
14,121056, Note_on_c,3,69,90,
14,121068, Note_on_c,3,67,90,
14,121069, Note_off_c,3,67,0,
14,121248, Note_off_c,3,69,0,
14,121248, Note_on_c,3,72,90,
14,121248, Note_on_c,3,70,90,
14,121249, Note_off_c,3,70,0,
14,121824, Note_off_c,3,72,0,
14,121824, Note_on_c,3,69,90,
14,121824, Note_on_c,3,71,90,
14,121825, Note_off_c,3,69,0,
14,122112, Note_off_c,3,71,0,
14,122112, Note_on_c,3,70,90,
14,122112, Note_on_c,3,72,90,
14,122113, Note_off_c,3,70,0,
14,122400, Note_off_c,3,72,0,
14,122400, Note_on_c,3,71,90,
14,122400, Note_on_c,3,69,90,
14,122401, Note_off_c,3,69,0,
14,122688, Note_off_c,3,71,0,
14,122700, Note_on_c,3,70,90,
14,122700, Note_on_c,3,72,90,
14,122701, Note_off_c,3,70,0,
14,122976, Note_off_c,3,72,0,
14,122976, Note_on_c,3,69,90,
14,122976, Note_on_c,3,71,90,
14,122977, Note_off_c,3,69,0,
14,123264, Note_off_c,3,71,0,
14,123264, Note_on_c,3,70,90,
14,123264, Note_on_c,3,72,90,
14,123265, Note_off_c,3,70,0,
14,123456, Note_off_c,3,72,0,
14,123456, Note_on_c,3,74,90,
14,123456, Note_on_c,3,72,90,
14,123457, Note_off_c,3,72,0,
14,123744, Note_off_c,3,74,0,
14,123744, Note_on_c,3,70,90,
14,123744, Note_on_c,3,72,90,
14,123745, Note_off_c,3,70,0,
14,123936, Note_off_c,3,72,0,
14,123936, Note_on_c,3,69,90,
14,123936, Note_on_c,3,71,90,
14,123937, Note_off_c,3,69,0,
14,124128, Note_off_c,3,71,0,
14,124128, Note_on_c,3,72,90,
14,124128, Note_on_c,3,74,90,
14,124129, Note_off_c,3,72,0,
14,124320, Note_off_c,3,74,0,
14,124320, Note_on_c,3,70,90,
14,124320, Note_on_c,3,72,90,
14,124321, Note_off_c,3,70,0,
14,124896, Note_off_c,3,72,0,
14,124896, End_track,,,,
15,0, Start_track,,,,
15,0, Instrument_t,guitar fret noise   ,,,
15,0, Channel_prefix,13,,,
15,0, Control_c,13,7,42,
15,0, Control_c,13,10,91,
15,0, Program_c,13,120,,
15,0, Control_c,13,0,0,
15,12, Program_c,13,120,,
15,324, Note_on_c,13,58,94,
15,360, Note_off_c,13,58,0,
15,744, Note_on_c,13,61,94,
15,756, Note_off_c,13,61,0,
15,1116, Note_on_c,13,55,94,
15,1140, Note_off_c,13,55,0,
15,1512, Note_on_c,13,61,94,
15,1524, Note_off_c,13,61,0,
15,2268, Note_on_c,13,63,94,
15,2280, Note_off_c,13,63,0,
15,3024, Note_on_c,13,52,94,
15,3060, Note_off_c,13,52,0,
15,3420, Note_on_c,13,62,94,
15,3444, Note_off_c,13,62,0,
15,3804, Note_on_c,13,54,94,
15,3828, Note_off_c,13,54,0,
15,4200, Note_on_c,13,59,94,
15,4212, Note_off_c,13,59,0,
15,4584, Note_on_c,13,55,94,
15,4596, Note_off_c,13,55,0,
15,5340, Note_on_c,13,62,94,
15,5364, Note_off_c,13,62,0,
15,6492, Note_on_c,13,62,94,
15,6516, Note_off_c,13,62,0,
15,7272, Note_on_c,13,67,94,
15,7284, Note_off_c,13,67,0,
15,8400, Note_on_c,13,59,94,
15,8424, Note_off_c,13,59,0,
15,9192, Note_on_c,13,64,94,
15,9216, Note_off_c,13,64,0,
15,9564, Note_on_c,13,55,94,
15,9588, Note_off_c,13,55,0,
15,9948, Note_on_c,13,61,94,
15,9972, Note_off_c,13,61,0,
15,10728, Note_on_c,13,60,94,
15,10740, Note_off_c,13,60,0,
15,11112, Note_on_c,13,63,94,
15,11124, Note_off_c,13,63,0,
15,18396, Note_on_c,13,63,94,
15,18420, Note_off_c,13,63,0,
15,18420, End_track,,,,
0,0, End_of_file,,,,
