0,0, Header,1,13,192,,,,,,,,,,,,,,,,,,,,,,,
1,0, Start_track,,,,,,,,,,,,,,,,,,,,,,,,,,
1,0, Time_signature,4,2,24,8,,,,,,,,,,,,,,,,,,,,,,
1,0, Tempo,681818,,,,,,,,,,,,,,,,,,,,,,,,,
1,0, End_track,,,,,,,,,,,,,,,,,,,,,,,,,,
2,0, Start_track,,,,,,,,,,,,,,,,,,,,,,,,,,
2,0, Instrument_t,Piano   ,,,,,,,,,,,,,,,,,,,,,,,,,
2,108, Control_c,0,121,0,,,,,,,,,,,,,,,,,,,,,,,
2,109, Control_c,0,11,127,,,,,,,,,,,,,,,,,,,,,,,
2,110, Control_c,0,101,0,,,,,,,,,,,,,,,,,,,,,,,
2,160, Control_c,0,100,0,,,,,,,,,,,,,,,,,,,,,,,
2,248, Control_c,0,6,2,,,,,,,,,,,,,,,,,,,,,,,
2,249, Control_c,0,91,81,,,,,,,,,,,,,,,,,,,,,,,
2,340, Control_c,0,10,38,,,,,,,,,,,,,,,,,,,,,,,
2,396, Control_c,0,32,0,,,,,,,,,,,,,,,,,,,,,,,
2,397, Control_c,0,0,0,,,,,,,,,,,,,,,,,,,,,,,
2,398, Program_c,0,1,,,,,,,,,,,,,,,,,,,,,,,,
2,399, Control_c,0,93,18,,,,,,,,,,,,,,,,,,,,,,,
2,432, Control_c,0,121,0,,,,,,,,,,,,,,,,,,,,,,,
2,529, Control_c,0,7,103,,,,,,,,,,,,,,,,,,,,,,,
2,57984, Note_on_c,0,61,112,,,,,,,,,,,,,,,,,,,,,,,
2,58074, Note_on_c,0,61,0,,,,,,,,,,,,,,,,,,,,,,,
2,58080, Note_on_c,0,62,110,,,,,,,,,,,,,,,,,,,,,,,
2,58172, Note_on_c,0,62,0,,,,,,,,,,,,,,,,,,,,,,,
2,58176, Note_on_c,0,69,104,,,,,,,,,,,,,,,,,,,,,,,
2,58272, Note_on_c,0,66,107,,,,,,,,,,,,,,,,,,,,,,,
2,58289, Note_on_c,0,69,0,,,,,,,,,,,,,,,,,,,,,,,
2,58604, Note_on_c,0,66,0,,,,,,,,,,,,,,,,,,,,,,,
2,58656, Note_on_c,0,62,122,,,,,,,,,,,,,,,,,,,,,,,
2,58752, Note_on_c,0,61,107,,,,,,,,,,,,,,,,,,,,,,,
2,58757, Note_on_c,0,62,0,,,,,,,,,,,,,,,,,,,,,,,
2,58848, Note_on_c,0,61,0,,,,,,,,,,,,,,,,,,,,,,,
2,58848, Note_on_c,0,62,114,,,,,,,,,,,,,,,,,,,,,,,
2,58944, Note_on_c,0,69,101,,,,,,,,,,,,,,,,,,,,,,,
2,58948, Note_on_c,0,62,0,,,,,,,,,,,,,,,,,,,,,,,
2,59040, Note_on_c,0,66,112,,,,,,,,,,,,,,,,,,,,,,,
2,59041, Note_on_c,0,69,0,,,,,,,,,,,,,,,,,,,,,,,
2,59243, Note_on_c,0,66,0,,,,,,,,,,,,,,,,,,,,,,,
2,59424, Note_on_c,0,62,114,,,,,,,,,,,,,,,,,,,,,,,
2,59520, Note_on_c,0,61,107,,,,,,,,,,,,,,,,,,,,,,,
2,59526, Note_on_c,0,62,0,,,,,,,,,,,,,,,,,,,,,,,
2,59612, Note_on_c,0,61,0,,,,,,,,,,,,,,,,,,,,,,,
2,59616, Note_on_c,0,62,104,,,,,,,,,,,,,,,,,,,,,,,
2,59707, Note_on_c,0,62,0,,,,,,,,,,,,,,,,,,,,,,,
2,59712, Note_on_c,0,69,98,,,,,,,,,,,,,,,,,,,,,,,
2,59805, Note_on_c,0,69,0,,,,,,,,,,,,,,,,,,,,,,,
2,59808, Note_on_c,0,66,103,,,,,,,,,,,,,,,,,,,,,,,
2,59979, Note_on_c,0,66,0,,,,,,,,,,,,,,,,,,,,,,,
2,60192, Note_on_c,0,62,114,,,,,,,,,,,,,,,,,,,,,,,
2,60288, Note_on_c,0,61,103,,,,,,,,,,,,,,,,,,,,,,,
2,60297, Note_on_c,0,62,0,,,,,,,,,,,,,,,,,,,,,,,
2,60380, Note_on_c,0,61,0,,,,,,,,,,,,,,,,,,,,,,,
2,60384, Note_on_c,0,62,101,,,,,,,,,,,,,,,,,,,,,,,
2,60476, Note_on_c,0,62,0,,,,,,,,,,,,,,,,,,,,,,,
2,60480, Note_on_c,0,69,101,,,,,,,,,,,,,,,,,,,,,,,
2,60576, Note_on_c,0,66,99,,,,,,,,,,,,,,,,,,,,,,,
2,60577, Note_on_c,0,69,0,,,,,,,,,,,,,,,,,,,,,,,
2,60683, Note_on_c,0,66,0,,,,,,,,,,,,,,,,,,,,,,,
2,60960, Note_on_c,0,62,122,,,,,,,,,,,,,,,,,,,,,,,
2,61056, Note_on_c,0,61,103,,,,,,,,,,,,,,,,,,,,,,,
2,61069, Note_on_c,0,62,0,,,,,,,,,,,,,,,,,,,,,,,
2,61147, Note_on_c,0,61,0,,,,,,,,,,,,,,,,,,,,,,,
2,61152, Note_on_c,0,62,104,,,,,,,,,,,,,,,,,,,,,,,
2,61246, Note_on_c,0,62,0,,,,,,,,,,,,,,,,,,,,,,,
2,61248, Note_on_c,0,69,98,,,,,,,,,,,,,,,,,,,,,,,
2,61344, Note_on_c,0,66,112,,,,,,,,,,,,,,,,,,,,,,,
2,61346, Note_on_c,0,69,0,,,,,,,,,,,,,,,,,,,,,,,
2,61574, Note_on_c,0,66,0,,,,,,,,,,,,,,,,,,,,,,,
2,61728, Note_on_c,0,62,118,,,,,,,,,,,,,,,,,,,,,,,
2,61824, Note_on_c,0,61,99,,,,,,,,,,,,,,,,,,,,,,,
2,61832, Note_on_c,0,62,0,,,,,,,,,,,,,,,,,,,,,,,
2,61914, Note_on_c,0,61,0,,,,,,,,,,,,,,,,,,,,,,,
2,61920, Note_on_c,0,62,91,,,,,,,,,,,,,,,,,,,,,,,
2,62015, Note_on_c,0,62,0,,,,,,,,,,,,,,,,,,,,,,,
2,62016, Note_on_c,0,69,101,,,,,,,,,,,,,,,,,,,,,,,
2,62112, Note_on_c,0,66,103,,,,,,,,,,,,,,,,,,,,,,,
2,62117, Note_on_c,0,69,0,,,,,,,,,,,,,,,,,,,,,,,
2,62410, Note_on_c,0,66,0,,,,,,,,,,,,,,,,,,,,,,,
2,62496, Note_on_c,0,62,118,,,,,,,,,,,,,,,,,,,,,,,
2,62592, Note_on_c,0,61,103,,,,,,,,,,,,,,,,,,,,,,,
2,62595, Note_on_c,0,62,0,,,,,,,,,,,,,,,,,,,,,,,
2,62674, Note_on_c,0,61,0,,,,,,,,,,,,,,,,,,,,,,,
2,62688, Note_on_c,0,62,95,,,,,,,,,,,,,,,,,,,,,,,
2,62775, Note_on_c,0,62,0,,,,,,,,,,,,,,,,,,,,,,,
2,62784, Note_on_c,0,69,95,,,,,,,,,,,,,,,,,,,,,,,
2,62870, Note_on_c,0,69,0,,,,,,,,,,,,,,,,,,,,,,,
2,62880, Note_on_c,0,66,107,,,,,,,,,,,,,,,,,,,,,,,
2,63180, Note_on_c,0,66,0,,,,,,,,,,,,,,,,,,,,,,,
2,63264, Note_on_c,0,62,127,,,,,,,,,,,,,,,,,,,,,,,
2,63360, Note_on_c,0,61,103,,,,,,,,,,,,,,,,,,,,,,,
2,63374, Note_on_c,0,62,0,,,,,,,,,,,,,,,,,,,,,,,
2,63444, Note_on_c,0,61,0,,,,,,,,,,,,,,,,,,,,,,,
2,63456, Note_on_c,0,62,101,,,,,,,,,,,,,,,,,,,,,,,
2,63545, Note_on_c,0,62,0,,,,,,,,,,,,,,,,,,,,,,,
2,63552, Note_on_c,0,69,101,,,,,,,,,,,,,,,,,,,,,,,
2,63646, Note_on_c,0,69,0,,,,,,,,,,,,,,,,,,,,,,,
2,63648, Note_on_c,0,66,112,,,,,,,,,,,,,,,,,,,,,,,
2,63844, Note_on_c,0,66,0,,,,,,,,,,,,,,,,,,,,,,,
2,63844, End_track,,,,,,,,,,,,,,,,,,,,,,,,,,
3,0, Start_track,,,,,,,,,,,,,,,,,,,,,,,,,,
3,0, Instrument_t,Bass    ,,,,,,,,,,,,,,,,,,,,,,,,,
3,108, Control_c,1,121,0,,,,,,,,,,,,,,,,,,,,,,,
3,109, Control_c,1,11,127,,,,,,,,,,,,,,,,,,,,,,,
3,110, Control_c,1,101,0,,,,,,,,,,,,,,,,,,,,,,,
3,160, Control_c,1,100,0,,,,,,,,,,,,,,,,,,,,,,,
3,248, Control_c,1,6,2,,,,,,,,,,,,,,,,,,,,,,,
3,249, Control_c,1,91,0,,,,,,,,,,,,,,,,,,,,,,,
3,340, Control_c,1,10,64,,,,,,,,,,,,,,,,,,,,,,,
3,396, Control_c,1,32,0,,,,,,,,,,,,,,,,,,,,,,,
3,397, Control_c,1,0,0,,,,,,,,,,,,,,,,,,,,,,,
3,398, Program_c,1,35,,,,,,,,,,,,,,,,,,,,,,,,
3,399, Control_c,1,93,18,,,,,,,,,,,,,,,,,,,,,,,
3,432, Control_c,1,121,0,,,,,,,,,,,,,,,,,,,,,,,
3,529, Control_c,1,7,98,,,,,,,,,,,,,,,,,,,,,,,
3,14592, Note_on_c,1,28,127,,,,,,,,,,,,,,,,,,,,,,,
3,14684, Note_on_c,1,28,0,,,,,,,,,,,,,,,,,,,,,,,
3,14736, Note_on_c,1,25,107,,,,,,,,,,,,,,,,,,,,,,,
3,14771, Note_on_c,1,25,0,,,,,,,,,,,,,,,,,,,,,,,
3,14784, Note_on_c,1,28,127,,,,,,,,,,,,,,,,,,,,,,,
3,14860, Note_on_c,1,28,0,,,,,,,,,,,,,,,,,,,,,,,
3,14928, Note_on_c,1,33,127,,,,,,,,,,,,,,,,,,,,,,,
3,15012, Note_on_c,1,33,0,,,,,,,,,,,,,,,,,,,,,,,
3,15024, Note_on_c,1,35,118,,,,,,,,,,,,,,,,,,,,,,,
3,15048, Note_on_c,1,35,0,,,,,,,,,,,,,,,,,,,,,,,
3,15072, Note_on_c,1,35,118,,,,,,,,,,,,,,,,,,,,,,,
3,15107, Note_on_c,1,35,0,,,,,,,,,,,,,,,,,,,,,,,
3,15120, Note_on_c,1,33,127,,,,,,,,,,,,,,,,,,,,,,,
3,15159, Note_on_c,1,33,0,,,,,,,,,,,,,,,,,,,,,,,
3,15168, Note_on_c,1,35,127,,,,,,,,,,,,,,,,,,,,,,,
3,15251, Note_on_c,1,35,0,,,,,,,,,,,,,,,,,,,,,,,
3,15264, Note_on_c,1,33,127,,,,,,,,,,,,,,,,,,,,,,,
3,15342, Note_on_c,1,33,0,,,,,,,,,,,,,,,,,,,,,,,
3,15360, Note_on_c,1,30,127,,,,,,,,,,,,,,,,,,,,,,,
3,15430, Note_on_c,1,30,0,,,,,,,,,,,,,,,,,,,,,,,
3,15456, Note_on_c,1,30,127,,,,,,,,,,,,,,,,,,,,,,,
3,15528, Note_on_c,1,30,0,,,,,,,,,,,,,,,,,,,,,,,
3,15552, Note_on_c,1,30,127,,,,,,,,,,,,,,,,,,,,,,,
3,15646, Note_on_c,1,30,0,,,,,,,,,,,,,,,,,,,,,,,
3,15696, Note_on_c,1,30,112,,,,,,,,,,,,,,,,,,,,,,,
3,15733, Note_on_c,1,30,0,,,,,,,,,,,,,,,,,,,,,,,
3,15744, Note_on_c,1,33,127,,,,,,,,,,,,,,,,,,,,,,,
3,15820, Note_on_c,1,33,0,,,,,,,,,,,,,,,,,,,,,,,
3,15840, Note_on_c,1,33,127,,,,,,,,,,,,,,,,,,,,,,,
3,15907, Note_on_c,1,33,0,,,,,,,,,,,,,,,,,,,,,,,
3,15936, Note_on_c,1,33,127,,,,,,,,,,,,,,,,,,,,,,,
3,16042, Note_on_c,1,33,0,,,,,,,,,,,,,,,,,,,,,,,
3,16128, Note_on_c,1,40,127,,,,,,,,,,,,,,,,,,,,,,,
3,16143, Note_on_c,1,40,0,,,,,,,,,,,,,,,,,,,,,,,
3,16176, Note_on_c,1,40,114,,,,,,,,,,,,,,,,,,,,,,,
3,16199, Note_on_c,1,40,0,,,,,,,,,,,,,,,,,,,,,,,
3,16224, Note_on_c,1,40,114,,,,,,,,,,,,,,,,,,,,,,,
3,16252, Note_on_c,1,40,0,,,,,,,,,,,,,,,,,,,,,,,
3,16272, Note_on_c,1,40,114,,,,,,,,,,,,,,,,,,,,,,,
3,16298, Note_on_c,1,40,0,,,,,,,,,,,,,,,,,,,,,,,
3,16320, Note_on_c,1,40,127,,,,,,,,,,,,,,,,,,,,,,,
3,16398, Note_on_c,1,40,0,,,,,,,,,,,,,,,,,,,,,,,
3,16464, Note_on_c,1,33,127,,,,,,,,,,,,,,,,,,,,,,,
3,16491, Note_on_c,1,33,0,,,,,,,,,,,,,,,,,,,,,,,
3,16512, Note_on_c,1,35,127,,,,,,,,,,,,,,,,,,,,,,,
3,16544, Note_on_c,1,35,0,,,,,,,,,,,,,,,,,,,,,,,
3,16560, Note_on_c,1,33,110,,,,,,,,,,,,,,,,,,,,,,,
3,16594, Note_on_c,1,33,0,,,,,,,,,,,,,,,,,,,,,,,
3,16608, Note_on_c,1,35,127,,,,,,,,,,,,,,,,,,,,,,,
3,16641, Note_on_c,1,35,0,,,,,,,,,,,,,,,,,,,,,,,
3,16656, Note_on_c,1,33,127,,,,,,,,,,,,,,,,,,,,,,,
3,16690, Note_on_c,1,33,0,,,,,,,,,,,,,,,,,,,,,,,
3,16704, Note_on_c,1,35,127,,,,,,,,,,,,,,,,,,,,,,,
3,16777, Note_on_c,1,35,0,,,,,,,,,,,,,,,,,,,,,,,
3,16800, Note_on_c,1,33,127,,,,,,,,,,,,,,,,,,,,,,,
3,16888, Note_on_c,1,33,0,,,,,,,,,,,,,,,,,,,,,,,
3,16896, Note_on_c,1,30,127,,,,,,,,,,,,,,,,,,,,,,,
3,16974, Note_on_c,1,30,0,,,,,,,,,,,,,,,,,,,,,,,
3,16992, Note_on_c,1,30,127,,,,,,,,,,,,,,,,,,,,,,,
3,17058, Note_on_c,1,30,0,,,,,,,,,,,,,,,,,,,,,,,
3,17088, Note_on_c,1,30,127,,,,,,,,,,,,,,,,,,,,,,,
3,17205, Note_on_c,1,30,0,,,,,,,,,,,,,,,,,,,,,,,
3,17280, Note_on_c,1,33,127,,,,,,,,,,,,,,,,,,,,,,,
3,17304, Note_on_c,1,33,0,,,,,,,,,,,,,,,,,,,,,,,
3,17328, Note_on_c,1,33,114,,,,,,,,,,,,,,,,,,,,,,,
3,17351, Note_on_c,1,33,0,,,,,,,,,,,,,,,,,,,,,,,
3,17376, Note_on_c,1,33,114,,,,,,,,,,,,,,,,,,,,,,,
3,17401, Note_on_c,1,33,0,,,,,,,,,,,,,,,,,,,,,,,
3,17424, Note_on_c,1,33,110,,,,,,,,,,,,,,,,,,,,,,,
3,17458, Note_on_c,1,33,0,,,,,,,,,,,,,,,,,,,,,,,
3,17472, Note_on_c,1,33,127,,,,,,,,,,,,,,,,,,,,,,,
3,17540, Note_on_c,1,33,0,,,,,,,,,,,,,,,,,,,,,,,
3,17568, Note_on_c,1,33,122,,,,,,,,,,,,,,,,,,,,,,,
3,17644, Note_on_c,1,33,0,,,,,,,,,,,,,,,,,,,,,,,
3,17664, Note_on_c,1,40,127,,,,,,,,,,,,,,,,,,,,,,,
3,17743, Note_on_c,1,40,0,,,,,,,,,,,,,,,,,,,,,,,
3,17760, Note_on_c,1,40,122,,,,,,,,,,,,,,,,,,,,,,,
3,17837, Note_on_c,1,40,0,,,,,,,,,,,,,,,,,,,,,,,
3,17856, Note_on_c,1,40,122,,,,,,,,,,,,,,,,,,,,,,,
3,17968, Note_on_c,1,40,0,,,,,,,,,,,,,,,,,,,,,,,
3,18000, Note_on_c,1,33,127,,,,,,,,,,,,,,,,,,,,,,,
3,18033, Note_on_c,1,33,0,,,,,,,,,,,,,,,,,,,,,,,
3,18048, Note_on_c,1,35,127,,,,,,,,,,,,,,,,,,,,,,,
3,18079, Note_on_c,1,35,0,,,,,,,,,,,,,,,,,,,,,,,
3,18096, Note_on_c,1,33,122,,,,,,,,,,,,,,,,,,,,,,,
3,18127, Note_on_c,1,33,0,,,,,,,,,,,,,,,,,,,,,,,
3,18144, Note_on_c,1,35,127,,,,,,,,,,,,,,,,,,,,,,,
3,18176, Note_on_c,1,35,0,,,,,,,,,,,,,,,,,,,,,,,
3,18192, Note_on_c,1,33,127,,,,,,,,,,,,,,,,,,,,,,,
3,18229, Note_on_c,1,33,0,,,,,,,,,,,,,,,,,,,,,,,
3,18240, Note_on_c,1,35,127,,,,,,,,,,,,,,,,,,,,,,,
3,18316, Note_on_c,1,35,0,,,,,,,,,,,,,,,,,,,,,,,
3,18336, Note_on_c,1,33,127,,,,,,,,,,,,,,,,,,,,,,,
3,18422, Note_on_c,1,33,0,,,,,,,,,,,,,,,,,,,,,,,
3,18432, Note_on_c,1,30,127,,,,,,,,,,,,,,,,,,,,,,,
3,18507, Note_on_c,1,30,0,,,,,,,,,,,,,,,,,,,,,,,
3,18528, Note_on_c,1,30,112,,,,,,,,,,,,,,,,,,,,,,,
3,18599, Note_on_c,1,30,0,,,,,,,,,,,,,,,,,,,,,,,
3,18624, Note_on_c,1,30,112,,,,,,,,,,,,,,,,,,,,,,,
3,18711, Note_on_c,1,30,0,,,,,,,,,,,,,,,,,,,,,,,
3,18768, Note_on_c,1,30,112,,,,,,,,,,,,,,,,,,,,,,,
3,18810, Note_on_c,1,30,0,,,,,,,,,,,,,,,,,,,,,,,
3,18816, Note_on_c,1,33,127,,,,,,,,,,,,,,,,,,,,,,,
3,18891, Note_on_c,1,33,0,,,,,,,,,,,,,,,,,,,,,,,
3,18912, Note_on_c,1,33,118,,,,,,,,,,,,,,,,,,,,,,,
3,18980, Note_on_c,1,33,0,,,,,,,,,,,,,,,,,,,,,,,
3,19008, Note_on_c,1,33,127,,,,,,,,,,,,,,,,,,,,,,,
3,19082, Note_on_c,1,33,0,,,,,,,,,,,,,,,,,,,,,,,
3,19152, Note_on_c,1,33,95,,,,,,,,,,,,,,,,,,,,,,,
3,19192, Note_on_c,1,33,0,,,,,,,,,,,,,,,,,,,,,,,
3,19200, Note_on_c,1,40,122,,,,,,,,,,,,,,,,,,,,,,,
3,19231, Note_on_c,1,40,0,,,,,,,,,,,,,,,,,,,,,,,
3,19248, Note_on_c,1,40,107,,,,,,,,,,,,,,,,,,,,,,,
3,19279, Note_on_c,1,40,0,,,,,,,,,,,,,,,,,,,,,,,
3,19296, Note_on_c,1,40,110,,,,,,,,,,,,,,,,,,,,,,,
3,19328, Note_on_c,1,40,0,,,,,,,,,,,,,,,,,,,,,,,
3,19344, Note_on_c,1,40,122,,,,,,,,,,,,,,,,,,,,,,,
3,19374, Note_on_c,1,40,0,,,,,,,,,,,,,,,,,,,,,,,
3,19392, Note_on_c,1,40,122,,,,,,,,,,,,,,,,,,,,,,,
3,19488, Note_on_c,1,40,0,,,,,,,,,,,,,,,,,,,,,,,
3,19536, Note_on_c,1,33,127,,,,,,,,,,,,,,,,,,,,,,,
3,19566, Note_on_c,1,33,0,,,,,,,,,,,,,,,,,,,,,,,
3,19584, Note_on_c,1,35,127,,,,,,,,,,,,,,,,,,,,,,,
3,19616, Note_on_c,1,35,0,,,,,,,,,,,,,,,,,,,,,,,
3,19632, Note_on_c,1,33,127,,,,,,,,,,,,,,,,,,,,,,,
3,19661, Note_on_c,1,33,0,,,,,,,,,,,,,,,,,,,,,,,
3,19680, Note_on_c,1,35,114,,,,,,,,,,,,,,,,,,,,,,,
3,19717, Note_on_c,1,35,0,,,,,,,,,,,,,,,,,,,,,,,
3,19728, Note_on_c,1,33,127,,,,,,,,,,,,,,,,,,,,,,,
3,19760, Note_on_c,1,33,0,,,,,,,,,,,,,,,,,,,,,,,
3,19776, Note_on_c,1,35,127,,,,,,,,,,,,,,,,,,,,,,,
3,19853, Note_on_c,1,35,0,,,,,,,,,,,,,,,,,,,,,,,
3,19872, Note_on_c,1,33,127,,,,,,,,,,,,,,,,,,,,,,,
3,19936, Note_on_c,1,33,0,,,,,,,,,,,,,,,,,,,,,,,
3,19968, Note_on_c,1,38,127,,,,,,,,,,,,,,,,,,,,,,,
3,20076, Note_on_c,1,38,0,,,,,,,,,,,,,,,,,,,,,,,
3,20160, Note_on_c,1,38,127,,,,,,,,,,,,,,,,,,,,,,,
3,20261, Note_on_c,1,38,0,,,,,,,,,,,,,,,,,,,,,,,
3,20304, Note_on_c,1,38,127,,,,,,,,,,,,,,,,,,,,,,,
3,20351, Note_on_c,1,38,0,,,,,,,,,,,,,,,,,,,,,,,
3,20352, Note_on_c,1,40,122,,,,,,,,,,,,,,,,,,,,,,,
3,20382, Note_on_c,1,40,0,,,,,,,,,,,,,,,,,,,,,,,
3,20400, Note_on_c,1,40,110,,,,,,,,,,,,,,,,,,,,,,,
3,20433, Note_on_c,1,40,0,,,,,,,,,,,,,,,,,,,,,,,
3,20448, Note_on_c,1,40,122,,,,,,,,,,,,,,,,,,,,,,,
3,20494, Note_on_c,1,40,0,,,,,,,,,,,,,,,,,,,,,,,
3,20544, Note_on_c,1,40,127,,,,,,,,,,,,,,,,,,,,,,,
3,20630, Note_on_c,1,40,0,,,,,,,,,,,,,,,,,,,,,,,
3,20688, Note_on_c,1,40,127,,,,,,,,,,,,,,,,,,,,,,,
3,20716, Note_on_c,1,40,0,,,,,,,,,,,,,,,,,,,,,,,
3,20736, Note_on_c,1,42,112,,,,,,,,,,,,,,,,,,,,,,,
3,20760, Note_on_c,1,42,0,,,,,,,,,,,,,,,,,,,,,,,
3,20784, Note_on_c,1,42,112,,,,,,,,,,,,,,,,,,,,,,,
3,20806, Note_on_c,1,42,0,,,,,,,,,,,,,,,,,,,,,,,
3,20832, Note_on_c,1,42,112,,,,,,,,,,,,,,,,,,,,,,,
3,20856, Note_on_c,1,42,0,,,,,,,,,,,,,,,,,,,,,,,
3,20880, Note_on_c,1,40,118,,,,,,,,,,,,,,,,,,,,,,,
3,20918, Note_on_c,1,40,0,,,,,,,,,,,,,,,,,,,,,,,
3,20928, Note_on_c,1,42,127,,,,,,,,,,,,,,,,,,,,,,,
3,20992, Note_on_c,1,42,0,,,,,,,,,,,,,,,,,,,,,,,
3,21072, Note_on_c,1,40,127,,,,,,,,,,,,,,,,,,,,,,,
3,21099, Note_on_c,1,40,0,,,,,,,,,,,,,,,,,,,,,,,
3,21120, Note_on_c,1,42,112,,,,,,,,,,,,,,,,,,,,,,,
3,21144, Note_on_c,1,42,0,,,,,,,,,,,,,,,,,,,,,,,
3,21168, Note_on_c,1,42,107,,,,,,,,,,,,,,,,,,,,,,,
3,21211, Note_on_c,1,42,0,,,,,,,,,,,,,,,,,,,,,,,
3,21264, Note_on_c,1,40,127,,,,,,,,,,,,,,,,,,,,,,,
3,21293, Note_on_c,1,40,0,,,,,,,,,,,,,,,,,,,,,,,
3,21312, Note_on_c,1,42,112,,,,,,,,,,,,,,,,,,,,,,,
3,21363, Note_on_c,1,42,0,,,,,,,,,,,,,,,,,,,,,,,
3,21408, Note_on_c,1,42,112,,,,,,,,,,,,,,,,,,,,,,,
3,21485, Note_on_c,1,42,0,,,,,,,,,,,,,,,,,,,,,,,
3,21552, Note_on_c,1,38,127,,,,,,,,,,,,,,,,,,,,,,,
3,21570, Note_on_c,1,38,0,,,,,,,,,,,,,,,,,,,,,,,
3,21600, Note_on_c,1,38,127,,,,,,,,,,,,,,,,,,,,,,,
3,21659, Note_on_c,1,38,0,,,,,,,,,,,,,,,,,,,,,,,
3,21696, Note_on_c,1,38,127,,,,,,,,,,,,,,,,,,,,,,,
3,21807, Note_on_c,1,38,0,,,,,,,,,,,,,,,,,,,,,,,
3,21840, Note_on_c,1,38,127,,,,,,,,,,,,,,,,,,,,,,,
3,21875, Note_on_c,1,38,0,,,,,,,,,,,,,,,,,,,,,,,
3,21888, Note_on_c,1,40,127,,,,,,,,,,,,,,,,,,,,,,,
3,21918, Note_on_c,1,40,0,,,,,,,,,,,,,,,,,,,,,,,
3,21936, Note_on_c,1,40,122,,,,,,,,,,,,,,,,,,,,,,,
3,21964, Note_on_c,1,40,0,,,,,,,,,,,,,,,,,,,,,,,
3,21984, Note_on_c,1,40,127,,,,,,,,,,,,,,,,,,,,,,,
3,22018, Note_on_c,1,40,0,,,,,,,,,,,,,,,,,,,,,,,
3,22080, Note_on_c,1,40,127,,,,,,,,,,,,,,,,,,,,,,,
3,22168, Note_on_c,1,40,0,,,,,,,,,,,,,,,,,,,,,,,
3,22272, Note_on_c,1,42,127,,,,,,,,,,,,,,,,,,,,,,,
3,22300, Note_on_c,1,42,0,,,,,,,,,,,,,,,,,,,,,,,
3,22320, Note_on_c,1,42,107,,,,,,,,,,,,,,,,,,,,,,,
3,22345, Note_on_c,1,42,0,,,,,,,,,,,,,,,,,,,,,,,
3,22368, Note_on_c,1,42,107,,,,,,,,,,,,,,,,,,,,,,,
3,22393, Note_on_c,1,42,0,,,,,,,,,,,,,,,,,,,,,,,
3,22416, Note_on_c,1,40,127,,,,,,,,,,,,,,,,,,,,,,,
3,22454, Note_on_c,1,40,0,,,,,,,,,,,,,,,,,,,,,,,
3,22464, Note_on_c,1,42,127,,,,,,,,,,,,,,,,,,,,,,,
3,22531, Note_on_c,1,42,0,,,,,,,,,,,,,,,,,,,,,,,
3,22608, Note_on_c,1,42,127,,,,,,,,,,,,,,,,,,,,,,,
3,22650, Note_on_c,1,42,0,,,,,,,,,,,,,,,,,,,,,,,
3,22704, Note_on_c,1,42,127,,,,,,,,,,,,,,,,,,,,,,,
3,22758, Note_on_c,1,42,0,,,,,,,,,,,,,,,,,,,,,,,
3,22800, Note_on_c,1,40,127,,,,,,,,,,,,,,,,,,,,,,,
3,22835, Note_on_c,1,40,0,,,,,,,,,,,,,,,,,,,,,,,
3,22848, Note_on_c,1,42,127,,,,,,,,,,,,,,,,,,,,,,,
3,22915, Note_on_c,1,42,0,,,,,,,,,,,,,,,,,,,,,,,
3,22944, Note_on_c,1,42,127,,,,,,,,,,,,,,,,,,,,,,,
3,22999, Note_on_c,1,42,0,,,,,,,,,,,,,,,,,,,,,,,
3,23040, Note_on_c,1,38,127,,,,,,,,,,,,,,,,,,,,,,,
3,23149, Note_on_c,1,38,0,,,,,,,,,,,,,,,,,,,,,,,
3,23232, Note_on_c,1,38,127,,,,,,,,,,,,,,,,,,,,,,,
3,23333, Note_on_c,1,38,0,,,,,,,,,,,,,,,,,,,,,,,
3,23376, Note_on_c,1,38,127,,,,,,,,,,,,,,,,,,,,,,,
3,23409, Note_on_c,1,38,0,,,,,,,,,,,,,,,,,,,,,,,
3,23424, Note_on_c,1,40,127,,,,,,,,,,,,,,,,,,,,,,,
3,23452, Note_on_c,1,40,0,,,,,,,,,,,,,,,,,,,,,,,
3,23472, Note_on_c,1,40,118,,,,,,,,,,,,,,,,,,,,,,,
3,23497, Note_on_c,1,40,0,,,,,,,,,,,,,,,,,,,,,,,
3,23520, Note_on_c,1,40,127,,,,,,,,,,,,,,,,,,,,,,,
3,23572, Note_on_c,1,40,0,,,,,,,,,,,,,,,,,,,,,,,
3,23616, Note_on_c,1,40,127,,,,,,,,,,,,,,,,,,,,,,,
3,23718, Note_on_c,1,40,0,,,,,,,,,,,,,,,,,,,,,,,
3,23808, Note_on_c,1,45,127,,,,,,,,,,,,,,,,,,,,,,,
3,23964, Note_on_c,1,45,0,,,,,,,,,,,,,,,,,,,,,,,
3,24000, Note_on_c,1,44,112,,,,,,,,,,,,,,,,,,,,,,,
3,24164, Note_on_c,1,44,0,,,,,,,,,,,,,,,,,,,,,,,
3,24192, Note_on_c,1,42,127,,,,,,,,,,,,,,,,,,,,,,,
3,24343, Note_on_c,1,42,0,,,,,,,,,,,,,,,,,,,,,,,
3,24384, Note_on_c,1,45,127,,,,,,,,,,,,,,,,,,,,,,,
3,24550, Note_on_c,1,45,0,,,,,,,,,,,,,,,,,,,,,,,
3,24576, Note_on_c,1,47,127,,,,,,,,,,,,,,,,,,,,,,,
3,24594, Note_on_c,1,47,0,,,,,,,,,,,,,,,,,,,,,,,
3,24624, Note_on_c,1,47,122,,,,,,,,,,,,,,,,,,,,,,,
3,24649, Note_on_c,1,47,0,,,,,,,,,,,,,,,,,,,,,,,
3,24672, Note_on_c,1,47,122,,,,,,,,,,,,,,,,,,,,,,,
3,24711, Note_on_c,1,47,0,,,,,,,,,,,,,,,,,,,,,,,
3,24720, Note_on_c,1,45,127,,,,,,,,,,,,,,,,,,,,,,,
3,24762, Note_on_c,1,45,0,,,,,,,,,,,,,,,,,,,,,,,
3,24768, Note_on_c,1,47,127,,,,,,,,,,,,,,,,,,,,,,,
3,24864, Note_on_c,1,47,0,,,,,,,,,,,,,,,,,,,,,,,
3,24912, Note_on_c,1,47,127,,,,,,,,,,,,,,,,,,,,,,,
3,24976, Note_on_c,1,47,0,,,,,,,,,,,,,,,,,,,,,,,
3,25008, Note_on_c,1,47,127,,,,,,,,,,,,,,,,,,,,,,,
3,25085, Note_on_c,1,47,0,,,,,,,,,,,,,,,,,,,,,,,
3,25104, Note_on_c,1,45,127,,,,,,,,,,,,,,,,,,,,,,,
3,25139, Note_on_c,1,45,0,,,,,,,,,,,,,,,,,,,,,,,
3,25152, Note_on_c,1,47,127,,,,,,,,,,,,,,,,,,,,,,,
3,25229, Note_on_c,1,47,0,,,,,,,,,,,,,,,,,,,,,,,
3,25248, Note_on_c,1,47,127,,,,,,,,,,,,,,,,,,,,,,,
3,25310, Note_on_c,1,47,0,,,,,,,,,,,,,,,,,,,,,,,
3,25344, Note_on_c,1,45,127,,,,,,,,,,,,,,,,,,,,,,,
3,25382, Note_on_c,1,45,0,,,,,,,,,,,,,,,,,,,,,,,
3,25392, Note_on_c,1,47,127,,,,,,,,,,,,,,,,,,,,,,,
3,25437, Note_on_c,1,47,0,,,,,,,,,,,,,,,,,,,,,,,
3,25488, Note_on_c,1,45,127,,,,,,,,,,,,,,,,,,,,,,,
3,25522, Note_on_c,1,45,0,,,,,,,,,,,,,,,,,,,,,,,
3,25536, Note_on_c,1,47,127,,,,,,,,,,,,,,,,,,,,,,,
3,25589, Note_on_c,1,47,0,,,,,,,,,,,,,,,,,,,,,,,
3,25632, Note_on_c,1,45,127,,,,,,,,,,,,,,,,,,,,,,,
3,25669, Note_on_c,1,45,0,,,,,,,,,,,,,,,,,,,,,,,
3,25680, Note_on_c,1,47,127,,,,,,,,,,,,,,,,,,,,,,,
3,25718, Note_on_c,1,47,0,,,,,,,,,,,,,,,,,,,,,,,
3,25776, Note_on_c,1,47,127,,,,,,,,,,,,,,,,,,,,,,,
3,25828, Note_on_c,1,47,0,,,,,,,,,,,,,,,,,,,,,,,
3,25872, Note_on_c,1,45,127,,,,,,,,,,,,,,,,,,,,,,,
3,25906, Note_on_c,1,45,0,,,,,,,,,,,,,,,,,,,,,,,
3,25920, Note_on_c,1,47,127,,,,,,,,,,,,,,,,,,,,,,,
3,25977, Note_on_c,1,47,0,,,,,,,,,,,,,,,,,,,,,,,
3,26016, Note_on_c,1,47,127,,,,,,,,,,,,,,,,,,,,,,,
3,26077, Note_on_c,1,47,0,,,,,,,,,,,,,,,,,,,,,,,
3,26112, Note_on_c,1,38,127,,,,,,,,,,,,,,,,,,,,,,,
3,26182, Note_on_c,1,38,0,,,,,,,,,,,,,,,,,,,,,,,
3,26208, Note_on_c,1,38,127,,,,,,,,,,,,,,,,,,,,,,,
3,26285, Note_on_c,1,38,0,,,,,,,,,,,,,,,,,,,,,,,
3,26304, Note_on_c,1,38,127,,,,,,,,,,,,,,,,,,,,,,,
3,26421, Note_on_c,1,38,0,,,,,,,,,,,,,,,,,,,,,,,
3,26448, Note_on_c,1,38,122,,,,,,,,,,,,,,,,,,,,,,,
3,26489, Note_on_c,1,38,0,,,,,,,,,,,,,,,,,,,,,,,
3,26496, Note_on_c,1,42,107,,,,,,,,,,,,,,,,,,,,,,,
3,26522, Note_on_c,1,42,0,,,,,,,,,,,,,,,,,,,,,,,
3,26544, Note_on_c,1,42,103,,,,,,,,,,,,,,,,,,,,,,,
3,26570, Note_on_c,1,42,0,,,,,,,,,,,,,,,,,,,,,,,
3,26592, Note_on_c,1,42,99,,,,,,,,,,,,,,,,,,,,,,,
3,26618, Note_on_c,1,42,0,,,,,,,,,,,,,,,,,,,,,,,
3,26640, Note_on_c,1,42,99,,,,,,,,,,,,,,,,,,,,,,,
3,26669, Note_on_c,1,42,0,,,,,,,,,,,,,,,,,,,,,,,
3,26696, Note_on_c,1,42,107,,,,,,,,,,,,,,,,,,,,,,,
3,26764, Note_on_c,1,42,0,,,,,,,,,,,,,,,,,,,,,,,
3,26784, Note_on_c,1,42,107,,,,,,,,,,,,,,,,,,,,,,,
3,26849, Note_on_c,1,42,0,,,,,,,,,,,,,,,,,,,,,,,
3,26880, Note_on_c,1,45,127,,,,,,,,,,,,,,,,,,,,,,,
3,26905, Note_on_c,1,45,0,,,,,,,,,,,,,,,,,,,,,,,
3,26928, Note_on_c,1,45,107,,,,,,,,,,,,,,,,,,,,,,,
3,26951, Note_on_c,1,45,0,,,,,,,,,,,,,,,,,,,,,,,
3,26976, Note_on_c,1,45,118,,,,,,,,,,,,,,,,,,,,,,,
3,26999, Note_on_c,1,45,0,,,,,,,,,,,,,,,,,,,,,,,
3,27024, Note_on_c,1,45,118,,,,,,,,,,,,,,,,,,,,,,,
3,27043, Note_on_c,1,45,0,,,,,,,,,,,,,,,,,,,,,,,
3,27072, Note_on_c,1,45,127,,,,,,,,,,,,,,,,,,,,,,,
3,27185, Note_on_c,1,45,0,,,,,,,,,,,,,,,,,,,,,,,
3,27216, Note_on_c,1,40,127,,,,,,,,,,,,,,,,,,,,,,,
3,27297, Note_on_c,1,40,0,,,,,,,,,,,,,,,,,,,,,,,
3,27312, Note_on_c,1,42,107,,,,,,,,,,,,,,,,,,,,,,,
3,27331, Note_on_c,1,42,0,,,,,,,,,,,,,,,,,,,,,,,
3,27360, Note_on_c,1,42,112,,,,,,,,,,,,,,,,,,,,,,,
3,27383, Note_on_c,1,42,0,,,,,,,,,,,,,,,,,,,,,,,
3,27408, Note_on_c,1,42,107,,,,,,,,,,,,,,,,,,,,,,,
3,27433, Note_on_c,1,42,0,,,,,,,,,,,,,,,,,,,,,,,
3,27456, Note_on_c,1,42,99,,,,,,,,,,,,,,,,,,,,,,,
3,27534, Note_on_c,1,42,0,,,,,,,,,,,,,,,,,,,,,,,
3,27552, Note_on_c,1,42,112,,,,,,,,,,,,,,,,,,,,,,,
3,27620, Note_on_c,1,42,0,,,,,,,,,,,,,,,,,,,,,,,
3,27648, Note_on_c,1,38,127,,,,,,,,,,,,,,,,,,,,,,,
3,27718, Note_on_c,1,38,0,,,,,,,,,,,,,,,,,,,,,,,
3,27744, Note_on_c,1,38,127,,,,,,,,,,,,,,,,,,,,,,,
3,27821, Note_on_c,1,38,0,,,,,,,,,,,,,,,,,,,,,,,
3,27840, Note_on_c,1,38,127,,,,,,,,,,,,,,,,,,,,,,,
3,27957, Note_on_c,1,38,0,,,,,,,,,,,,,,,,,,,,,,,
3,27984, Note_on_c,1,38,122,,,,,,,,,,,,,,,,,,,,,,,
3,28025, Note_on_c,1,38,0,,,,,,,,,,,,,,,,,,,,,,,
3,28032, Note_on_c,1,42,107,,,,,,,,,,,,,,,,,,,,,,,
3,28058, Note_on_c,1,42,0,,,,,,,,,,,,,,,,,,,,,,,
3,28080, Note_on_c,1,42,103,,,,,,,,,,,,,,,,,,,,,,,
3,28106, Note_on_c,1,42,0,,,,,,,,,,,,,,,,,,,,,,,
3,28128, Note_on_c,1,42,99,,,,,,,,,,,,,,,,,,,,,,,
3,28154, Note_on_c,1,42,0,,,,,,,,,,,,,,,,,,,,,,,
3,28176, Note_on_c,1,42,99,,,,,,,,,,,,,,,,,,,,,,,
3,28205, Note_on_c,1,42,0,,,,,,,,,,,,,,,,,,,,,,,
3,28232, Note_on_c,1,42,107,,,,,,,,,,,,,,,,,,,,,,,
3,28300, Note_on_c,1,42,0,,,,,,,,,,,,,,,,,,,,,,,
3,28320, Note_on_c,1,42,107,,,,,,,,,,,,,,,,,,,,,,,
3,28385, Note_on_c,1,42,0,,,,,,,,,,,,,,,,,,,,,,,
3,28416, Note_on_c,1,45,127,,,,,,,,,,,,,,,,,,,,,,,
3,28441, Note_on_c,1,45,0,,,,,,,,,,,,,,,,,,,,,,,
3,28464, Note_on_c,1,45,107,,,,,,,,,,,,,,,,,,,,,,,
3,28487, Note_on_c,1,45,0,,,,,,,,,,,,,,,,,,,,,,,
3,28512, Note_on_c,1,45,118,,,,,,,,,,,,,,,,,,,,,,,
3,28535, Note_on_c,1,45,0,,,,,,,,,,,,,,,,,,,,,,,
3,28560, Note_on_c,1,45,118,,,,,,,,,,,,,,,,,,,,,,,
3,28579, Note_on_c,1,45,0,,,,,,,,,,,,,,,,,,,,,,,
3,28608, Note_on_c,1,45,127,,,,,,,,,,,,,,,,,,,,,,,
3,28721, Note_on_c,1,45,0,,,,,,,,,,,,,,,,,,,,,,,
3,28752, Note_on_c,1,40,127,,,,,,,,,,,,,,,,,,,,,,,
3,28833, Note_on_c,1,40,0,,,,,,,,,,,,,,,,,,,,,,,
3,28848, Note_on_c,1,42,107,,,,,,,,,,,,,,,,,,,,,,,
3,28867, Note_on_c,1,42,0,,,,,,,,,,,,,,,,,,,,,,,
3,28896, Note_on_c,1,42,112,,,,,,,,,,,,,,,,,,,,,,,
3,28919, Note_on_c,1,42,0,,,,,,,,,,,,,,,,,,,,,,,
3,28944, Note_on_c,1,42,107,,,,,,,,,,,,,,,,,,,,,,,
3,28969, Note_on_c,1,42,0,,,,,,,,,,,,,,,,,,,,,,,
3,28992, Note_on_c,1,42,99,,,,,,,,,,,,,,,,,,,,,,,
3,29070, Note_on_c,1,42,0,,,,,,,,,,,,,,,,,,,,,,,
3,29088, Note_on_c,1,42,112,,,,,,,,,,,,,,,,,,,,,,,
3,29156, Note_on_c,1,42,0,,,,,,,,,,,,,,,,,,,,,,,
3,29184, Note_on_c,1,38,127,,,,,,,,,,,,,,,,,,,,,,,
3,29254, Note_on_c,1,38,0,,,,,,,,,,,,,,,,,,,,,,,
3,29280, Note_on_c,1,38,127,,,,,,,,,,,,,,,,,,,,,,,
3,29357, Note_on_c,1,38,0,,,,,,,,,,,,,,,,,,,,,,,
3,29376, Note_on_c,1,38,127,,,,,,,,,,,,,,,,,,,,,,,
3,29493, Note_on_c,1,38,0,,,,,,,,,,,,,,,,,,,,,,,
3,29520, Note_on_c,1,38,122,,,,,,,,,,,,,,,,,,,,,,,
3,29561, Note_on_c,1,38,0,,,,,,,,,,,,,,,,,,,,,,,
3,29568, Note_on_c,1,42,107,,,,,,,,,,,,,,,,,,,,,,,
3,29594, Note_on_c,1,42,0,,,,,,,,,,,,,,,,,,,,,,,
3,29616, Note_on_c,1,42,103,,,,,,,,,,,,,,,,,,,,,,,
3,29642, Note_on_c,1,42,0,,,,,,,,,,,,,,,,,,,,,,,
3,29664, Note_on_c,1,42,99,,,,,,,,,,,,,,,,,,,,,,,
3,29690, Note_on_c,1,42,0,,,,,,,,,,,,,,,,,,,,,,,
3,29712, Note_on_c,1,42,99,,,,,,,,,,,,,,,,,,,,,,,
3,29741, Note_on_c,1,42,0,,,,,,,,,,,,,,,,,,,,,,,
3,29768, Note_on_c,1,42,107,,,,,,,,,,,,,,,,,,,,,,,
3,29836, Note_on_c,1,42,0,,,,,,,,,,,,,,,,,,,,,,,
3,29856, Note_on_c,1,42,107,,,,,,,,,,,,,,,,,,,,,,,
3,29921, Note_on_c,1,42,0,,,,,,,,,,,,,,,,,,,,,,,
3,29952, Note_on_c,1,45,127,,,,,,,,,,,,,,,,,,,,,,,
3,29977, Note_on_c,1,45,0,,,,,,,,,,,,,,,,,,,,,,,
3,30000, Note_on_c,1,45,107,,,,,,,,,,,,,,,,,,,,,,,
3,30023, Note_on_c,1,45,0,,,,,,,,,,,,,,,,,,,,,,,
3,30048, Note_on_c,1,45,118,,,,,,,,,,,,,,,,,,,,,,,
3,30071, Note_on_c,1,45,0,,,,,,,,,,,,,,,,,,,,,,,
3,30096, Note_on_c,1,45,118,,,,,,,,,,,,,,,,,,,,,,,
3,30115, Note_on_c,1,45,0,,,,,,,,,,,,,,,,,,,,,,,
3,30144, Note_on_c,1,45,127,,,,,,,,,,,,,,,,,,,,,,,
3,30257, Note_on_c,1,45,0,,,,,,,,,,,,,,,,,,,,,,,
3,30288, Note_on_c,1,40,127,,,,,,,,,,,,,,,,,,,,,,,
3,30369, Note_on_c,1,40,0,,,,,,,,,,,,,,,,,,,,,,,
3,30384, Note_on_c,1,42,107,,,,,,,,,,,,,,,,,,,,,,,
3,30403, Note_on_c,1,42,0,,,,,,,,,,,,,,,,,,,,,,,
3,30432, Note_on_c,1,42,112,,,,,,,,,,,,,,,,,,,,,,,
3,30455, Note_on_c,1,42,0,,,,,,,,,,,,,,,,,,,,,,,
3,30480, Note_on_c,1,42,107,,,,,,,,,,,,,,,,,,,,,,,
3,30505, Note_on_c,1,42,0,,,,,,,,,,,,,,,,,,,,,,,
3,30528, Note_on_c,1,42,99,,,,,,,,,,,,,,,,,,,,,,,
3,30606, Note_on_c,1,42,0,,,,,,,,,,,,,,,,,,,,,,,
3,30624, Note_on_c,1,42,112,,,,,,,,,,,,,,,,,,,,,,,
3,30692, Note_on_c,1,42,0,,,,,,,,,,,,,,,,,,,,,,,
3,30720, Note_on_c,1,38,127,,,,,,,,,,,,,,,,,,,,,,,
3,30790, Note_on_c,1,38,0,,,,,,,,,,,,,,,,,,,,,,,
3,30816, Note_on_c,1,38,127,,,,,,,,,,,,,,,,,,,,,,,
3,30893, Note_on_c,1,38,0,,,,,,,,,,,,,,,,,,,,,,,
3,30912, Note_on_c,1,38,127,,,,,,,,,,,,,,,,,,,,,,,
3,31029, Note_on_c,1,38,0,,,,,,,,,,,,,,,,,,,,,,,
3,31056, Note_on_c,1,38,122,,,,,,,,,,,,,,,,,,,,,,,
3,31097, Note_on_c,1,38,0,,,,,,,,,,,,,,,,,,,,,,,
3,31104, Note_on_c,1,42,107,,,,,,,,,,,,,,,,,,,,,,,
3,31130, Note_on_c,1,42,0,,,,,,,,,,,,,,,,,,,,,,,
3,31152, Note_on_c,1,42,103,,,,,,,,,,,,,,,,,,,,,,,
3,31178, Note_on_c,1,42,0,,,,,,,,,,,,,,,,,,,,,,,
3,31200, Note_on_c,1,42,99,,,,,,,,,,,,,,,,,,,,,,,
3,31226, Note_on_c,1,42,0,,,,,,,,,,,,,,,,,,,,,,,
3,31248, Note_on_c,1,42,99,,,,,,,,,,,,,,,,,,,,,,,
3,31277, Note_on_c,1,42,0,,,,,,,,,,,,,,,,,,,,,,,
3,31304, Note_on_c,1,42,107,,,,,,,,,,,,,,,,,,,,,,,
3,31372, Note_on_c,1,42,0,,,,,,,,,,,,,,,,,,,,,,,
3,31392, Note_on_c,1,42,107,,,,,,,,,,,,,,,,,,,,,,,
3,31457, Note_on_c,1,42,0,,,,,,,,,,,,,,,,,,,,,,,
3,31488, Note_on_c,1,45,127,,,,,,,,,,,,,,,,,,,,,,,
3,31513, Note_on_c,1,45,0,,,,,,,,,,,,,,,,,,,,,,,
3,31536, Note_on_c,1,45,107,,,,,,,,,,,,,,,,,,,,,,,
3,31559, Note_on_c,1,45,0,,,,,,,,,,,,,,,,,,,,,,,
3,31584, Note_on_c,1,45,118,,,,,,,,,,,,,,,,,,,,,,,
3,31607, Note_on_c,1,45,0,,,,,,,,,,,,,,,,,,,,,,,
3,31632, Note_on_c,1,45,118,,,,,,,,,,,,,,,,,,,,,,,
3,31651, Note_on_c,1,45,0,,,,,,,,,,,,,,,,,,,,,,,
3,31680, Note_on_c,1,45,127,,,,,,,,,,,,,,,,,,,,,,,
3,31793, Note_on_c,1,45,0,,,,,,,,,,,,,,,,,,,,,,,
3,31824, Note_on_c,1,40,127,,,,,,,,,,,,,,,,,,,,,,,
3,31863, Note_on_c,1,40,0,,,,,,,,,,,,,,,,,,,,,,,
3,31864, Note_on_c,1,42,107,,,,,,,,,,,,,,,,,,,,,,,
3,31941, Note_on_c,1,42,0,,,,,,,,,,,,,,,,,,,,,,,
3,33024, Note_on_c,1,28,127,,,,,,,,,,,,,,,,,,,,,,,
3,33065, Note_on_c,1,28,0,,,,,,,,,,,,,,,,,,,,,,,
3,33072, Note_on_c,1,30,127,,,,,,,,,,,,,,,,,,,,,,,
3,33116, Note_on_c,1,30,0,,,,,,,,,,,,,,,,,,,,,,,
3,33168, Note_on_c,1,30,127,,,,,,,,,,,,,,,,,,,,,,,
3,33218, Note_on_c,1,30,0,,,,,,,,,,,,,,,,,,,,,,,
3,33264, Note_on_c,1,30,127,,,,,,,,,,,,,,,,,,,,,,,
3,33298, Note_on_c,1,30,0,,,,,,,,,,,,,,,,,,,,,,,
3,33312, Note_on_c,1,33,127,,,,,,,,,,,,,,,,,,,,,,,
3,33372, Note_on_c,1,33,0,,,,,,,,,,,,,,,,,,,,,,,
3,33408, Note_on_c,1,30,127,,,,,,,,,,,,,,,,,,,,,,,
3,33566, Note_on_c,1,30,0,,,,,,,,,,,,,,,,,,,,,,,
3,33600, Note_on_c,1,30,127,,,,,,,,,,,,,,,,,,,,,,,
3,33749, Note_on_c,1,30,0,,,,,,,,,,,,,,,,,,,,,,,
3,33792, Note_on_c,1,33,127,,,,,,,,,,,,,,,,,,,,,,,
3,33818, Note_on_c,1,33,0,,,,,,,,,,,,,,,,,,,,,,,
3,33840, Note_on_c,1,33,127,,,,,,,,,,,,,,,,,,,,,,,
3,33864, Note_on_c,1,33,0,,,,,,,,,,,,,,,,,,,,,,,
3,33888, Note_on_c,1,33,127,,,,,,,,,,,,,,,,,,,,,,,
3,33914, Note_on_c,1,33,0,,,,,,,,,,,,,,,,,,,,,,,
3,33936, Note_on_c,1,33,122,,,,,,,,,,,,,,,,,,,,,,,
3,33967, Note_on_c,1,33,0,,,,,,,,,,,,,,,,,,,,,,,
3,33984, Note_on_c,1,33,127,,,,,,,,,,,,,,,,,,,,,,,
3,34052, Note_on_c,1,33,0,,,,,,,,,,,,,,,,,,,,,,,
3,34080, Note_on_c,1,33,127,,,,,,,,,,,,,,,,,,,,,,,
3,34146, Note_on_c,1,33,0,,,,,,,,,,,,,,,,,,,,,,,
3,34176, Note_on_c,1,28,127,,,,,,,,,,,,,,,,,,,,,,,
3,34268, Note_on_c,1,28,0,,,,,,,,,,,,,,,,,,,,,,,
3,34320, Note_on_c,1,25,107,,,,,,,,,,,,,,,,,,,,,,,
3,34355, Note_on_c,1,25,0,,,,,,,,,,,,,,,,,,,,,,,
3,34368, Note_on_c,1,28,127,,,,,,,,,,,,,,,,,,,,,,,
3,34444, Note_on_c,1,28,0,,,,,,,,,,,,,,,,,,,,,,,
3,34512, Note_on_c,1,33,127,,,,,,,,,,,,,,,,,,,,,,,
3,34596, Note_on_c,1,33,0,,,,,,,,,,,,,,,,,,,,,,,
3,34608, Note_on_c,1,35,118,,,,,,,,,,,,,,,,,,,,,,,
3,34632, Note_on_c,1,35,0,,,,,,,,,,,,,,,,,,,,,,,
3,34656, Note_on_c,1,35,118,,,,,,,,,,,,,,,,,,,,,,,
3,34691, Note_on_c,1,35,0,,,,,,,,,,,,,,,,,,,,,,,
3,34704, Note_on_c,1,33,127,,,,,,,,,,,,,,,,,,,,,,,
3,34743, Note_on_c,1,33,0,,,,,,,,,,,,,,,,,,,,,,,
3,34752, Note_on_c,1,35,127,,,,,,,,,,,,,,,,,,,,,,,
3,34835, Note_on_c,1,35,0,,,,,,,,,,,,,,,,,,,,,,,
3,34848, Note_on_c,1,33,127,,,,,,,,,,,,,,,,,,,,,,,
3,34926, Note_on_c,1,33,0,,,,,,,,,,,,,,,,,,,,,,,
3,34944, Note_on_c,1,30,127,,,,,,,,,,,,,,,,,,,,,,,
3,35014, Note_on_c,1,30,0,,,,,,,,,,,,,,,,,,,,,,,
3,35040, Note_on_c,1,30,127,,,,,,,,,,,,,,,,,,,,,,,
3,35112, Note_on_c,1,30,0,,,,,,,,,,,,,,,,,,,,,,,
3,35136, Note_on_c,1,30,127,,,,,,,,,,,,,,,,,,,,,,,
3,35230, Note_on_c,1,30,0,,,,,,,,,,,,,,,,,,,,,,,
3,35280, Note_on_c,1,30,112,,,,,,,,,,,,,,,,,,,,,,,
3,35317, Note_on_c,1,30,0,,,,,,,,,,,,,,,,,,,,,,,
3,35328, Note_on_c,1,33,127,,,,,,,,,,,,,,,,,,,,,,,
3,35404, Note_on_c,1,33,0,,,,,,,,,,,,,,,,,,,,,,,
3,35424, Note_on_c,1,33,127,,,,,,,,,,,,,,,,,,,,,,,
3,35491, Note_on_c,1,33,0,,,,,,,,,,,,,,,,,,,,,,,
3,35520, Note_on_c,1,33,127,,,,,,,,,,,,,,,,,,,,,,,
3,35626, Note_on_c,1,33,0,,,,,,,,,,,,,,,,,,,,,,,
3,35712, Note_on_c,1,40,127,,,,,,,,,,,,,,,,,,,,,,,
3,35727, Note_on_c,1,40,0,,,,,,,,,,,,,,,,,,,,,,,
3,35760, Note_on_c,1,40,114,,,,,,,,,,,,,,,,,,,,,,,
3,35783, Note_on_c,1,40,0,,,,,,,,,,,,,,,,,,,,,,,
3,35808, Note_on_c,1,40,114,,,,,,,,,,,,,,,,,,,,,,,
3,35836, Note_on_c,1,40,0,,,,,,,,,,,,,,,,,,,,,,,
3,35856, Note_on_c,1,40,114,,,,,,,,,,,,,,,,,,,,,,,
3,35882, Note_on_c,1,40,0,,,,,,,,,,,,,,,,,,,,,,,
3,35904, Note_on_c,1,40,127,,,,,,,,,,,,,,,,,,,,,,,
3,35982, Note_on_c,1,40,0,,,,,,,,,,,,,,,,,,,,,,,
3,36048, Note_on_c,1,33,127,,,,,,,,,,,,,,,,,,,,,,,
3,36075, Note_on_c,1,33,0,,,,,,,,,,,,,,,,,,,,,,,
3,36096, Note_on_c,1,35,127,,,,,,,,,,,,,,,,,,,,,,,
3,36128, Note_on_c,1,35,0,,,,,,,,,,,,,,,,,,,,,,,
3,36144, Note_on_c,1,33,110,,,,,,,,,,,,,,,,,,,,,,,
3,36178, Note_on_c,1,33,0,,,,,,,,,,,,,,,,,,,,,,,
3,36192, Note_on_c,1,35,127,,,,,,,,,,,,,,,,,,,,,,,
3,36225, Note_on_c,1,35,0,,,,,,,,,,,,,,,,,,,,,,,
3,36240, Note_on_c,1,33,127,,,,,,,,,,,,,,,,,,,,,,,
3,36274, Note_on_c,1,33,0,,,,,,,,,,,,,,,,,,,,,,,
3,36288, Note_on_c,1,35,127,,,,,,,,,,,,,,,,,,,,,,,
3,36361, Note_on_c,1,35,0,,,,,,,,,,,,,,,,,,,,,,,
3,36384, Note_on_c,1,33,127,,,,,,,,,,,,,,,,,,,,,,,
3,36472, Note_on_c,1,33,0,,,,,,,,,,,,,,,,,,,,,,,
3,36480, Note_on_c,1,30,127,,,,,,,,,,,,,,,,,,,,,,,
3,36558, Note_on_c,1,30,0,,,,,,,,,,,,,,,,,,,,,,,
3,36576, Note_on_c,1,30,127,,,,,,,,,,,,,,,,,,,,,,,
3,36642, Note_on_c,1,30,0,,,,,,,,,,,,,,,,,,,,,,,
3,36672, Note_on_c,1,30,127,,,,,,,,,,,,,,,,,,,,,,,
3,36789, Note_on_c,1,30,0,,,,,,,,,,,,,,,,,,,,,,,
3,36864, Note_on_c,1,33,127,,,,,,,,,,,,,,,,,,,,,,,
3,36888, Note_on_c,1,33,0,,,,,,,,,,,,,,,,,,,,,,,
3,36912, Note_on_c,1,33,114,,,,,,,,,,,,,,,,,,,,,,,
3,36935, Note_on_c,1,33,0,,,,,,,,,,,,,,,,,,,,,,,
3,36960, Note_on_c,1,33,114,,,,,,,,,,,,,,,,,,,,,,,
3,36985, Note_on_c,1,33,0,,,,,,,,,,,,,,,,,,,,,,,
3,37008, Note_on_c,1,33,110,,,,,,,,,,,,,,,,,,,,,,,
3,37042, Note_on_c,1,33,0,,,,,,,,,,,,,,,,,,,,,,,
3,37056, Note_on_c,1,33,127,,,,,,,,,,,,,,,,,,,,,,,
3,37124, Note_on_c,1,33,0,,,,,,,,,,,,,,,,,,,,,,,
3,37152, Note_on_c,1,33,122,,,,,,,,,,,,,,,,,,,,,,,
3,37228, Note_on_c,1,33,0,,,,,,,,,,,,,,,,,,,,,,,
3,37248, Note_on_c,1,40,127,,,,,,,,,,,,,,,,,,,,,,,
3,37327, Note_on_c,1,40,0,,,,,,,,,,,,,,,,,,,,,,,
3,37344, Note_on_c,1,40,122,,,,,,,,,,,,,,,,,,,,,,,
3,37421, Note_on_c,1,40,0,,,,,,,,,,,,,,,,,,,,,,,
3,37440, Note_on_c,1,40,122,,,,,,,,,,,,,,,,,,,,,,,
3,37552, Note_on_c,1,40,0,,,,,,,,,,,,,,,,,,,,,,,
3,37584, Note_on_c,1,33,127,,,,,,,,,,,,,,,,,,,,,,,
3,37617, Note_on_c,1,33,0,,,,,,,,,,,,,,,,,,,,,,,
3,37632, Note_on_c,1,35,127,,,,,,,,,,,,,,,,,,,,,,,
3,37663, Note_on_c,1,35,0,,,,,,,,,,,,,,,,,,,,,,,
3,37680, Note_on_c,1,33,122,,,,,,,,,,,,,,,,,,,,,,,
3,37711, Note_on_c,1,33,0,,,,,,,,,,,,,,,,,,,,,,,
3,37728, Note_on_c,1,35,127,,,,,,,,,,,,,,,,,,,,,,,
3,37760, Note_on_c,1,35,0,,,,,,,,,,,,,,,,,,,,,,,
3,37776, Note_on_c,1,33,127,,,,,,,,,,,,,,,,,,,,,,,
3,37813, Note_on_c,1,33,0,,,,,,,,,,,,,,,,,,,,,,,
3,37824, Note_on_c,1,35,127,,,,,,,,,,,,,,,,,,,,,,,
3,37900, Note_on_c,1,35,0,,,,,,,,,,,,,,,,,,,,,,,
3,37920, Note_on_c,1,33,127,,,,,,,,,,,,,,,,,,,,,,,
3,38006, Note_on_c,1,33,0,,,,,,,,,,,,,,,,,,,,,,,
3,38016, Note_on_c,1,30,127,,,,,,,,,,,,,,,,,,,,,,,
3,38091, Note_on_c,1,30,0,,,,,,,,,,,,,,,,,,,,,,,
3,38112, Note_on_c,1,30,112,,,,,,,,,,,,,,,,,,,,,,,
3,38183, Note_on_c,1,30,0,,,,,,,,,,,,,,,,,,,,,,,
3,38208, Note_on_c,1,30,112,,,,,,,,,,,,,,,,,,,,,,,
3,38295, Note_on_c,1,30,0,,,,,,,,,,,,,,,,,,,,,,,
3,38352, Note_on_c,1,30,112,,,,,,,,,,,,,,,,,,,,,,,
3,38394, Note_on_c,1,30,0,,,,,,,,,,,,,,,,,,,,,,,
3,38400, Note_on_c,1,33,127,,,,,,,,,,,,,,,,,,,,,,,
3,38475, Note_on_c,1,33,0,,,,,,,,,,,,,,,,,,,,,,,
3,38496, Note_on_c,1,33,118,,,,,,,,,,,,,,,,,,,,,,,
3,38564, Note_on_c,1,33,0,,,,,,,,,,,,,,,,,,,,,,,
3,38592, Note_on_c,1,33,127,,,,,,,,,,,,,,,,,,,,,,,
3,38666, Note_on_c,1,33,0,,,,,,,,,,,,,,,,,,,,,,,
3,38736, Note_on_c,1,33,95,,,,,,,,,,,,,,,,,,,,,,,
3,38776, Note_on_c,1,33,0,,,,,,,,,,,,,,,,,,,,,,,
3,38784, Note_on_c,1,40,122,,,,,,,,,,,,,,,,,,,,,,,
3,38815, Note_on_c,1,40,0,,,,,,,,,,,,,,,,,,,,,,,
3,38832, Note_on_c,1,40,107,,,,,,,,,,,,,,,,,,,,,,,
3,38863, Note_on_c,1,40,0,,,,,,,,,,,,,,,,,,,,,,,
3,38880, Note_on_c,1,40,110,,,,,,,,,,,,,,,,,,,,,,,
3,38912, Note_on_c,1,40,0,,,,,,,,,,,,,,,,,,,,,,,
3,38928, Note_on_c,1,40,122,,,,,,,,,,,,,,,,,,,,,,,
3,38958, Note_on_c,1,40,0,,,,,,,,,,,,,,,,,,,,,,,
3,38976, Note_on_c,1,40,122,,,,,,,,,,,,,,,,,,,,,,,
3,39072, Note_on_c,1,40,0,,,,,,,,,,,,,,,,,,,,,,,
3,39120, Note_on_c,1,33,127,,,,,,,,,,,,,,,,,,,,,,,
3,39150, Note_on_c,1,33,0,,,,,,,,,,,,,,,,,,,,,,,
3,39168, Note_on_c,1,35,127,,,,,,,,,,,,,,,,,,,,,,,
3,39200, Note_on_c,1,35,0,,,,,,,,,,,,,,,,,,,,,,,
3,39216, Note_on_c,1,33,127,,,,,,,,,,,,,,,,,,,,,,,
3,39245, Note_on_c,1,33,0,,,,,,,,,,,,,,,,,,,,,,,
3,39264, Note_on_c,1,35,114,,,,,,,,,,,,,,,,,,,,,,,
3,39301, Note_on_c,1,35,0,,,,,,,,,,,,,,,,,,,,,,,
3,39312, Note_on_c,1,33,127,,,,,,,,,,,,,,,,,,,,,,,
3,39344, Note_on_c,1,33,0,,,,,,,,,,,,,,,,,,,,,,,
3,39360, Note_on_c,1,35,127,,,,,,,,,,,,,,,,,,,,,,,
3,39437, Note_on_c,1,35,0,,,,,,,,,,,,,,,,,,,,,,,
3,39456, Note_on_c,1,33,127,,,,,,,,,,,,,,,,,,,,,,,
3,39520, Note_on_c,1,33,0,,,,,,,,,,,,,,,,,,,,,,,
3,39552, Note_on_c,1,38,127,,,,,,,,,,,,,,,,,,,,,,,
3,39660, Note_on_c,1,38,0,,,,,,,,,,,,,,,,,,,,,,,
3,39744, Note_on_c,1,38,127,,,,,,,,,,,,,,,,,,,,,,,
3,39845, Note_on_c,1,38,0,,,,,,,,,,,,,,,,,,,,,,,
3,39888, Note_on_c,1,38,127,,,,,,,,,,,,,,,,,,,,,,,
3,39935, Note_on_c,1,38,0,,,,,,,,,,,,,,,,,,,,,,,
3,39936, Note_on_c,1,40,122,,,,,,,,,,,,,,,,,,,,,,,
3,39966, Note_on_c,1,40,0,,,,,,,,,,,,,,,,,,,,,,,
3,39984, Note_on_c,1,40,110,,,,,,,,,,,,,,,,,,,,,,,
3,40017, Note_on_c,1,40,0,,,,,,,,,,,,,,,,,,,,,,,
3,40032, Note_on_c,1,40,122,,,,,,,,,,,,,,,,,,,,,,,
3,40078, Note_on_c,1,40,0,,,,,,,,,,,,,,,,,,,,,,,
3,40128, Note_on_c,1,40,127,,,,,,,,,,,,,,,,,,,,,,,
3,40214, Note_on_c,1,40,0,,,,,,,,,,,,,,,,,,,,,,,
3,40272, Note_on_c,1,40,127,,,,,,,,,,,,,,,,,,,,,,,
3,40300, Note_on_c,1,40,0,,,,,,,,,,,,,,,,,,,,,,,
3,40320, Note_on_c,1,42,112,,,,,,,,,,,,,,,,,,,,,,,
3,40344, Note_on_c,1,42,0,,,,,,,,,,,,,,,,,,,,,,,
3,40368, Note_on_c,1,42,112,,,,,,,,,,,,,,,,,,,,,,,
3,40390, Note_on_c,1,42,0,,,,,,,,,,,,,,,,,,,,,,,
3,40416, Note_on_c,1,42,112,,,,,,,,,,,,,,,,,,,,,,,
3,40440, Note_on_c,1,42,0,,,,,,,,,,,,,,,,,,,,,,,
3,40464, Note_on_c,1,40,118,,,,,,,,,,,,,,,,,,,,,,,
3,40502, Note_on_c,1,40,0,,,,,,,,,,,,,,,,,,,,,,,
3,40512, Note_on_c,1,42,127,,,,,,,,,,,,,,,,,,,,,,,
3,40576, Note_on_c,1,42,0,,,,,,,,,,,,,,,,,,,,,,,
3,40656, Note_on_c,1,40,127,,,,,,,,,,,,,,,,,,,,,,,
3,40683, Note_on_c,1,40,0,,,,,,,,,,,,,,,,,,,,,,,
3,40704, Note_on_c,1,42,112,,,,,,,,,,,,,,,,,,,,,,,
3,40728, Note_on_c,1,42,0,,,,,,,,,,,,,,,,,,,,,,,
3,40752, Note_on_c,1,42,107,,,,,,,,,,,,,,,,,,,,,,,
3,40795, Note_on_c,1,42,0,,,,,,,,,,,,,,,,,,,,,,,
3,40848, Note_on_c,1,40,127,,,,,,,,,,,,,,,,,,,,,,,
3,40877, Note_on_c,1,40,0,,,,,,,,,,,,,,,,,,,,,,,
3,40896, Note_on_c,1,42,112,,,,,,,,,,,,,,,,,,,,,,,
3,40947, Note_on_c,1,42,0,,,,,,,,,,,,,,,,,,,,,,,
3,40992, Note_on_c,1,42,112,,,,,,,,,,,,,,,,,,,,,,,
3,41069, Note_on_c,1,42,0,,,,,,,,,,,,,,,,,,,,,,,
3,41136, Note_on_c,1,38,127,,,,,,,,,,,,,,,,,,,,,,,
3,41154, Note_on_c,1,38,0,,,,,,,,,,,,,,,,,,,,,,,
3,41184, Note_on_c,1,38,127,,,,,,,,,,,,,,,,,,,,,,,
3,41243, Note_on_c,1,38,0,,,,,,,,,,,,,,,,,,,,,,,
3,41280, Note_on_c,1,38,127,,,,,,,,,,,,,,,,,,,,,,,
3,41391, Note_on_c,1,38,0,,,,,,,,,,,,,,,,,,,,,,,
3,41424, Note_on_c,1,38,127,,,,,,,,,,,,,,,,,,,,,,,
3,41459, Note_on_c,1,38,0,,,,,,,,,,,,,,,,,,,,,,,
3,41472, Note_on_c,1,40,127,,,,,,,,,,,,,,,,,,,,,,,
3,41502, Note_on_c,1,40,0,,,,,,,,,,,,,,,,,,,,,,,
3,41520, Note_on_c,1,40,122,,,,,,,,,,,,,,,,,,,,,,,
3,41548, Note_on_c,1,40,0,,,,,,,,,,,,,,,,,,,,,,,
3,41568, Note_on_c,1,40,127,,,,,,,,,,,,,,,,,,,,,,,
3,41602, Note_on_c,1,40,0,,,,,,,,,,,,,,,,,,,,,,,
3,41664, Note_on_c,1,40,127,,,,,,,,,,,,,,,,,,,,,,,
3,41752, Note_on_c,1,40,0,,,,,,,,,,,,,,,,,,,,,,,
3,41856, Note_on_c,1,42,127,,,,,,,,,,,,,,,,,,,,,,,
3,41884, Note_on_c,1,42,0,,,,,,,,,,,,,,,,,,,,,,,
3,41904, Note_on_c,1,42,107,,,,,,,,,,,,,,,,,,,,,,,
3,41929, Note_on_c,1,42,0,,,,,,,,,,,,,,,,,,,,,,,
3,41952, Note_on_c,1,42,107,,,,,,,,,,,,,,,,,,,,,,,
3,41977, Note_on_c,1,42,0,,,,,,,,,,,,,,,,,,,,,,,
3,42000, Note_on_c,1,40,127,,,,,,,,,,,,,,,,,,,,,,,
3,42038, Note_on_c,1,40,0,,,,,,,,,,,,,,,,,,,,,,,
3,42048, Note_on_c,1,42,127,,,,,,,,,,,,,,,,,,,,,,,
3,42115, Note_on_c,1,42,0,,,,,,,,,,,,,,,,,,,,,,,
3,42192, Note_on_c,1,42,127,,,,,,,,,,,,,,,,,,,,,,,
3,42234, Note_on_c,1,42,0,,,,,,,,,,,,,,,,,,,,,,,
3,42288, Note_on_c,1,42,127,,,,,,,,,,,,,,,,,,,,,,,
3,42342, Note_on_c,1,42,0,,,,,,,,,,,,,,,,,,,,,,,
3,42384, Note_on_c,1,40,127,,,,,,,,,,,,,,,,,,,,,,,
3,42419, Note_on_c,1,40,0,,,,,,,,,,,,,,,,,,,,,,,
3,42432, Note_on_c,1,42,127,,,,,,,,,,,,,,,,,,,,,,,
3,42499, Note_on_c,1,42,0,,,,,,,,,,,,,,,,,,,,,,,
3,42528, Note_on_c,1,42,127,,,,,,,,,,,,,,,,,,,,,,,
3,42583, Note_on_c,1,42,0,,,,,,,,,,,,,,,,,,,,,,,
3,42624, Note_on_c,1,38,127,,,,,,,,,,,,,,,,,,,,,,,
3,42733, Note_on_c,1,38,0,,,,,,,,,,,,,,,,,,,,,,,
3,42816, Note_on_c,1,38,127,,,,,,,,,,,,,,,,,,,,,,,
3,42917, Note_on_c,1,38,0,,,,,,,,,,,,,,,,,,,,,,,
3,42960, Note_on_c,1,38,127,,,,,,,,,,,,,,,,,,,,,,,
3,42993, Note_on_c,1,38,0,,,,,,,,,,,,,,,,,,,,,,,
3,43008, Note_on_c,1,40,127,,,,,,,,,,,,,,,,,,,,,,,
3,43036, Note_on_c,1,40,0,,,,,,,,,,,,,,,,,,,,,,,
3,43056, Note_on_c,1,40,118,,,,,,,,,,,,,,,,,,,,,,,
3,43081, Note_on_c,1,40,0,,,,,,,,,,,,,,,,,,,,,,,
3,43104, Note_on_c,1,40,127,,,,,,,,,,,,,,,,,,,,,,,
3,43156, Note_on_c,1,40,0,,,,,,,,,,,,,,,,,,,,,,,
3,43200, Note_on_c,1,40,127,,,,,,,,,,,,,,,,,,,,,,,
3,43302, Note_on_c,1,40,0,,,,,,,,,,,,,,,,,,,,,,,
3,43392, Note_on_c,1,45,127,,,,,,,,,,,,,,,,,,,,,,,
3,43548, Note_on_c,1,45,0,,,,,,,,,,,,,,,,,,,,,,,
3,43584, Note_on_c,1,44,112,,,,,,,,,,,,,,,,,,,,,,,
3,43748, Note_on_c,1,44,0,,,,,,,,,,,,,,,,,,,,,,,
3,43776, Note_on_c,1,42,127,,,,,,,,,,,,,,,,,,,,,,,
3,43927, Note_on_c,1,42,0,,,,,,,,,,,,,,,,,,,,,,,
3,43968, Note_on_c,1,45,127,,,,,,,,,,,,,,,,,,,,,,,
3,44134, Note_on_c,1,45,0,,,,,,,,,,,,,,,,,,,,,,,
3,44160, Note_on_c,1,47,127,,,,,,,,,,,,,,,,,,,,,,,
3,44178, Note_on_c,1,47,0,,,,,,,,,,,,,,,,,,,,,,,
3,44208, Note_on_c,1,47,122,,,,,,,,,,,,,,,,,,,,,,,
3,44233, Note_on_c,1,47,0,,,,,,,,,,,,,,,,,,,,,,,
3,44256, Note_on_c,1,47,122,,,,,,,,,,,,,,,,,,,,,,,
3,44295, Note_on_c,1,47,0,,,,,,,,,,,,,,,,,,,,,,,
3,44304, Note_on_c,1,45,127,,,,,,,,,,,,,,,,,,,,,,,
3,44346, Note_on_c,1,45,0,,,,,,,,,,,,,,,,,,,,,,,
3,44352, Note_on_c,1,47,127,,,,,,,,,,,,,,,,,,,,,,,
3,44448, Note_on_c,1,47,0,,,,,,,,,,,,,,,,,,,,,,,
3,44496, Note_on_c,1,47,127,,,,,,,,,,,,,,,,,,,,,,,
3,44560, Note_on_c,1,47,0,,,,,,,,,,,,,,,,,,,,,,,
3,44592, Note_on_c,1,47,127,,,,,,,,,,,,,,,,,,,,,,,
3,44669, Note_on_c,1,47,0,,,,,,,,,,,,,,,,,,,,,,,
3,44688, Note_on_c,1,45,127,,,,,,,,,,,,,,,,,,,,,,,
3,44723, Note_on_c,1,45,0,,,,,,,,,,,,,,,,,,,,,,,
3,44736, Note_on_c,1,47,127,,,,,,,,,,,,,,,,,,,,,,,
3,44813, Note_on_c,1,47,0,,,,,,,,,,,,,,,,,,,,,,,
3,44832, Note_on_c,1,47,127,,,,,,,,,,,,,,,,,,,,,,,
3,44894, Note_on_c,1,47,0,,,,,,,,,,,,,,,,,,,,,,,
3,44928, Note_on_c,1,45,127,,,,,,,,,,,,,,,,,,,,,,,
3,44966, Note_on_c,1,45,0,,,,,,,,,,,,,,,,,,,,,,,
3,44976, Note_on_c,1,47,127,,,,,,,,,,,,,,,,,,,,,,,
3,45021, Note_on_c,1,47,0,,,,,,,,,,,,,,,,,,,,,,,
3,45072, Note_on_c,1,45,127,,,,,,,,,,,,,,,,,,,,,,,
3,45106, Note_on_c,1,45,0,,,,,,,,,,,,,,,,,,,,,,,
3,45120, Note_on_c,1,47,127,,,,,,,,,,,,,,,,,,,,,,,
3,45173, Note_on_c,1,47,0,,,,,,,,,,,,,,,,,,,,,,,
3,45216, Note_on_c,1,45,127,,,,,,,,,,,,,,,,,,,,,,,
3,45253, Note_on_c,1,45,0,,,,,,,,,,,,,,,,,,,,,,,
3,45264, Note_on_c,1,47,127,,,,,,,,,,,,,,,,,,,,,,,
3,45302, Note_on_c,1,47,0,,,,,,,,,,,,,,,,,,,,,,,
3,45360, Note_on_c,1,47,127,,,,,,,,,,,,,,,,,,,,,,,
3,45412, Note_on_c,1,47,0,,,,,,,,,,,,,,,,,,,,,,,
3,45456, Note_on_c,1,45,127,,,,,,,,,,,,,,,,,,,,,,,
3,45490, Note_on_c,1,45,0,,,,,,,,,,,,,,,,,,,,,,,
3,45504, Note_on_c,1,47,127,,,,,,,,,,,,,,,,,,,,,,,
3,45561, Note_on_c,1,47,0,,,,,,,,,,,,,,,,,,,,,,,
3,45600, Note_on_c,1,47,127,,,,,,,,,,,,,,,,,,,,,,,
3,45661, Note_on_c,1,47,0,,,,,,,,,,,,,,,,,,,,,,,
3,45696, Note_on_c,1,38,127,,,,,,,,,,,,,,,,,,,,,,,
3,45766, Note_on_c,1,38,0,,,,,,,,,,,,,,,,,,,,,,,
3,45792, Note_on_c,1,38,127,,,,,,,,,,,,,,,,,,,,,,,
3,45869, Note_on_c,1,38,0,,,,,,,,,,,,,,,,,,,,,,,
3,45888, Note_on_c,1,38,127,,,,,,,,,,,,,,,,,,,,,,,
3,46005, Note_on_c,1,38,0,,,,,,,,,,,,,,,,,,,,,,,
3,46032, Note_on_c,1,38,122,,,,,,,,,,,,,,,,,,,,,,,
3,46073, Note_on_c,1,38,0,,,,,,,,,,,,,,,,,,,,,,,
3,46080, Note_on_c,1,42,107,,,,,,,,,,,,,,,,,,,,,,,
3,46106, Note_on_c,1,42,0,,,,,,,,,,,,,,,,,,,,,,,
3,46128, Note_on_c,1,42,103,,,,,,,,,,,,,,,,,,,,,,,
3,46154, Note_on_c,1,42,0,,,,,,,,,,,,,,,,,,,,,,,
3,46176, Note_on_c,1,42,99,,,,,,,,,,,,,,,,,,,,,,,
3,46202, Note_on_c,1,42,0,,,,,,,,,,,,,,,,,,,,,,,
3,46224, Note_on_c,1,42,99,,,,,,,,,,,,,,,,,,,,,,,
3,46253, Note_on_c,1,42,0,,,,,,,,,,,,,,,,,,,,,,,
3,46280, Note_on_c,1,42,107,,,,,,,,,,,,,,,,,,,,,,,
3,46348, Note_on_c,1,42,0,,,,,,,,,,,,,,,,,,,,,,,
3,46368, Note_on_c,1,42,107,,,,,,,,,,,,,,,,,,,,,,,
3,46433, Note_on_c,1,42,0,,,,,,,,,,,,,,,,,,,,,,,
3,46464, Note_on_c,1,45,127,,,,,,,,,,,,,,,,,,,,,,,
3,46489, Note_on_c,1,45,0,,,,,,,,,,,,,,,,,,,,,,,
3,46512, Note_on_c,1,45,107,,,,,,,,,,,,,,,,,,,,,,,
3,46535, Note_on_c,1,45,0,,,,,,,,,,,,,,,,,,,,,,,
3,46560, Note_on_c,1,45,118,,,,,,,,,,,,,,,,,,,,,,,
3,46583, Note_on_c,1,45,0,,,,,,,,,,,,,,,,,,,,,,,
3,46608, Note_on_c,1,45,118,,,,,,,,,,,,,,,,,,,,,,,
3,46627, Note_on_c,1,45,0,,,,,,,,,,,,,,,,,,,,,,,
3,46656, Note_on_c,1,45,127,,,,,,,,,,,,,,,,,,,,,,,
3,46769, Note_on_c,1,45,0,,,,,,,,,,,,,,,,,,,,,,,
3,46800, Note_on_c,1,40,127,,,,,,,,,,,,,,,,,,,,,,,
3,46881, Note_on_c,1,40,0,,,,,,,,,,,,,,,,,,,,,,,
3,46896, Note_on_c,1,42,107,,,,,,,,,,,,,,,,,,,,,,,
3,46915, Note_on_c,1,42,0,,,,,,,,,,,,,,,,,,,,,,,
3,46944, Note_on_c,1,42,112,,,,,,,,,,,,,,,,,,,,,,,
3,46967, Note_on_c,1,42,0,,,,,,,,,,,,,,,,,,,,,,,
3,46992, Note_on_c,1,42,107,,,,,,,,,,,,,,,,,,,,,,,
3,47017, Note_on_c,1,42,0,,,,,,,,,,,,,,,,,,,,,,,
3,47040, Note_on_c,1,42,99,,,,,,,,,,,,,,,,,,,,,,,
3,47118, Note_on_c,1,42,0,,,,,,,,,,,,,,,,,,,,,,,
3,47136, Note_on_c,1,42,112,,,,,,,,,,,,,,,,,,,,,,,
3,47204, Note_on_c,1,42,0,,,,,,,,,,,,,,,,,,,,,,,
3,47232, Note_on_c,1,38,127,,,,,,,,,,,,,,,,,,,,,,,
3,47302, Note_on_c,1,38,0,,,,,,,,,,,,,,,,,,,,,,,
3,47328, Note_on_c,1,38,127,,,,,,,,,,,,,,,,,,,,,,,
3,47405, Note_on_c,1,38,0,,,,,,,,,,,,,,,,,,,,,,,
3,47424, Note_on_c,1,38,127,,,,,,,,,,,,,,,,,,,,,,,
3,47541, Note_on_c,1,38,0,,,,,,,,,,,,,,,,,,,,,,,
3,47568, Note_on_c,1,38,122,,,,,,,,,,,,,,,,,,,,,,,
3,47609, Note_on_c,1,38,0,,,,,,,,,,,,,,,,,,,,,,,
3,47616, Note_on_c,1,42,107,,,,,,,,,,,,,,,,,,,,,,,
3,47642, Note_on_c,1,42,0,,,,,,,,,,,,,,,,,,,,,,,
3,47664, Note_on_c,1,42,103,,,,,,,,,,,,,,,,,,,,,,,
3,47690, Note_on_c,1,42,0,,,,,,,,,,,,,,,,,,,,,,,
3,47712, Note_on_c,1,42,99,,,,,,,,,,,,,,,,,,,,,,,
3,47738, Note_on_c,1,42,0,,,,,,,,,,,,,,,,,,,,,,,
3,47760, Note_on_c,1,42,99,,,,,,,,,,,,,,,,,,,,,,,
3,47789, Note_on_c,1,42,0,,,,,,,,,,,,,,,,,,,,,,,
3,47816, Note_on_c,1,42,107,,,,,,,,,,,,,,,,,,,,,,,
3,47884, Note_on_c,1,42,0,,,,,,,,,,,,,,,,,,,,,,,
3,47904, Note_on_c,1,42,107,,,,,,,,,,,,,,,,,,,,,,,
3,47969, Note_on_c,1,42,0,,,,,,,,,,,,,,,,,,,,,,,
3,48000, Note_on_c,1,45,127,,,,,,,,,,,,,,,,,,,,,,,
3,48025, Note_on_c,1,45,0,,,,,,,,,,,,,,,,,,,,,,,
3,48048, Note_on_c,1,45,107,,,,,,,,,,,,,,,,,,,,,,,
3,48071, Note_on_c,1,45,0,,,,,,,,,,,,,,,,,,,,,,,
3,48096, Note_on_c,1,45,118,,,,,,,,,,,,,,,,,,,,,,,
3,48119, Note_on_c,1,45,0,,,,,,,,,,,,,,,,,,,,,,,
3,48144, Note_on_c,1,45,118,,,,,,,,,,,,,,,,,,,,,,,
3,48163, Note_on_c,1,45,0,,,,,,,,,,,,,,,,,,,,,,,
3,48192, Note_on_c,1,45,127,,,,,,,,,,,,,,,,,,,,,,,
3,48305, Note_on_c,1,45,0,,,,,,,,,,,,,,,,,,,,,,,
3,48336, Note_on_c,1,40,127,,,,,,,,,,,,,,,,,,,,,,,
3,48417, Note_on_c,1,40,0,,,,,,,,,,,,,,,,,,,,,,,
3,48432, Note_on_c,1,42,107,,,,,,,,,,,,,,,,,,,,,,,
3,48451, Note_on_c,1,42,0,,,,,,,,,,,,,,,,,,,,,,,
3,48480, Note_on_c,1,42,112,,,,,,,,,,,,,,,,,,,,,,,
3,48503, Note_on_c,1,42,0,,,,,,,,,,,,,,,,,,,,,,,
3,48528, Note_on_c,1,42,107,,,,,,,,,,,,,,,,,,,,,,,
3,48553, Note_on_c,1,42,0,,,,,,,,,,,,,,,,,,,,,,,
3,48576, Note_on_c,1,42,99,,,,,,,,,,,,,,,,,,,,,,,
3,48654, Note_on_c,1,42,0,,,,,,,,,,,,,,,,,,,,,,,
3,48672, Note_on_c,1,42,112,,,,,,,,,,,,,,,,,,,,,,,
3,48740, Note_on_c,1,42,0,,,,,,,,,,,,,,,,,,,,,,,
3,48768, Note_on_c,1,38,127,,,,,,,,,,,,,,,,,,,,,,,
3,48838, Note_on_c,1,38,0,,,,,,,,,,,,,,,,,,,,,,,
3,48864, Note_on_c,1,38,127,,,,,,,,,,,,,,,,,,,,,,,
3,48941, Note_on_c,1,38,0,,,,,,,,,,,,,,,,,,,,,,,
3,48960, Note_on_c,1,38,127,,,,,,,,,,,,,,,,,,,,,,,
3,49077, Note_on_c,1,38,0,,,,,,,,,,,,,,,,,,,,,,,
3,49104, Note_on_c,1,38,122,,,,,,,,,,,,,,,,,,,,,,,
3,49145, Note_on_c,1,38,0,,,,,,,,,,,,,,,,,,,,,,,
3,49152, Note_on_c,1,42,107,,,,,,,,,,,,,,,,,,,,,,,
3,49178, Note_on_c,1,42,0,,,,,,,,,,,,,,,,,,,,,,,
3,49200, Note_on_c,1,42,103,,,,,,,,,,,,,,,,,,,,,,,
3,49226, Note_on_c,1,42,0,,,,,,,,,,,,,,,,,,,,,,,
3,49248, Note_on_c,1,42,99,,,,,,,,,,,,,,,,,,,,,,,
3,49274, Note_on_c,1,42,0,,,,,,,,,,,,,,,,,,,,,,,
3,49296, Note_on_c,1,42,99,,,,,,,,,,,,,,,,,,,,,,,
3,49325, Note_on_c,1,42,0,,,,,,,,,,,,,,,,,,,,,,,
3,49352, Note_on_c,1,42,107,,,,,,,,,,,,,,,,,,,,,,,
3,49420, Note_on_c,1,42,0,,,,,,,,,,,,,,,,,,,,,,,
3,49440, Note_on_c,1,42,107,,,,,,,,,,,,,,,,,,,,,,,
3,49505, Note_on_c,1,42,0,,,,,,,,,,,,,,,,,,,,,,,
3,49536, Note_on_c,1,45,127,,,,,,,,,,,,,,,,,,,,,,,
3,49561, Note_on_c,1,45,0,,,,,,,,,,,,,,,,,,,,,,,
3,49584, Note_on_c,1,45,107,,,,,,,,,,,,,,,,,,,,,,,
3,49607, Note_on_c,1,45,0,,,,,,,,,,,,,,,,,,,,,,,
3,49632, Note_on_c,1,45,118,,,,,,,,,,,,,,,,,,,,,,,
3,49655, Note_on_c,1,45,0,,,,,,,,,,,,,,,,,,,,,,,
3,49680, Note_on_c,1,45,118,,,,,,,,,,,,,,,,,,,,,,,
3,49699, Note_on_c,1,45,0,,,,,,,,,,,,,,,,,,,,,,,
3,49728, Note_on_c,1,45,127,,,,,,,,,,,,,,,,,,,,,,,
3,49841, Note_on_c,1,45,0,,,,,,,,,,,,,,,,,,,,,,,
3,49872, Note_on_c,1,40,127,,,,,,,,,,,,,,,,,,,,,,,
3,49953, Note_on_c,1,40,0,,,,,,,,,,,,,,,,,,,,,,,
3,49968, Note_on_c,1,42,107,,,,,,,,,,,,,,,,,,,,,,,
3,49987, Note_on_c,1,42,0,,,,,,,,,,,,,,,,,,,,,,,
3,50016, Note_on_c,1,42,112,,,,,,,,,,,,,,,,,,,,,,,
3,50039, Note_on_c,1,42,0,,,,,,,,,,,,,,,,,,,,,,,
3,50064, Note_on_c,1,42,107,,,,,,,,,,,,,,,,,,,,,,,
3,50089, Note_on_c,1,42,0,,,,,,,,,,,,,,,,,,,,,,,
3,50112, Note_on_c,1,42,99,,,,,,,,,,,,,,,,,,,,,,,
3,50190, Note_on_c,1,42,0,,,,,,,,,,,,,,,,,,,,,,,
3,50208, Note_on_c,1,42,112,,,,,,,,,,,,,,,,,,,,,,,
3,50276, Note_on_c,1,42,0,,,,,,,,,,,,,,,,,,,,,,,
3,50304, Note_on_c,1,38,127,,,,,,,,,,,,,,,,,,,,,,,
3,50374, Note_on_c,1,38,0,,,,,,,,,,,,,,,,,,,,,,,
3,50400, Note_on_c,1,38,127,,,,,,,,,,,,,,,,,,,,,,,
3,50477, Note_on_c,1,38,0,,,,,,,,,,,,,,,,,,,,,,,
3,50496, Note_on_c,1,38,127,,,,,,,,,,,,,,,,,,,,,,,
3,50613, Note_on_c,1,38,0,,,,,,,,,,,,,,,,,,,,,,,
3,50640, Note_on_c,1,38,122,,,,,,,,,,,,,,,,,,,,,,,
3,50681, Note_on_c,1,38,0,,,,,,,,,,,,,,,,,,,,,,,
3,50688, Note_on_c,1,42,107,,,,,,,,,,,,,,,,,,,,,,,
3,50714, Note_on_c,1,42,0,,,,,,,,,,,,,,,,,,,,,,,
3,50736, Note_on_c,1,42,103,,,,,,,,,,,,,,,,,,,,,,,
3,50762, Note_on_c,1,42,0,,,,,,,,,,,,,,,,,,,,,,,
3,50784, Note_on_c,1,42,99,,,,,,,,,,,,,,,,,,,,,,,
3,50810, Note_on_c,1,42,0,,,,,,,,,,,,,,,,,,,,,,,
3,50832, Note_on_c,1,42,99,,,,,,,,,,,,,,,,,,,,,,,
3,50861, Note_on_c,1,42,0,,,,,,,,,,,,,,,,,,,,,,,
3,50888, Note_on_c,1,42,107,,,,,,,,,,,,,,,,,,,,,,,
3,50956, Note_on_c,1,42,0,,,,,,,,,,,,,,,,,,,,,,,
3,50976, Note_on_c,1,42,107,,,,,,,,,,,,,,,,,,,,,,,
3,51041, Note_on_c,1,42,0,,,,,,,,,,,,,,,,,,,,,,,
3,51072, Note_on_c,1,45,127,,,,,,,,,,,,,,,,,,,,,,,
3,51097, Note_on_c,1,45,0,,,,,,,,,,,,,,,,,,,,,,,
3,51120, Note_on_c,1,45,107,,,,,,,,,,,,,,,,,,,,,,,
3,51143, Note_on_c,1,45,0,,,,,,,,,,,,,,,,,,,,,,,
3,51168, Note_on_c,1,45,118,,,,,,,,,,,,,,,,,,,,,,,
3,51191, Note_on_c,1,45,0,,,,,,,,,,,,,,,,,,,,,,,
3,51216, Note_on_c,1,45,118,,,,,,,,,,,,,,,,,,,,,,,
3,51235, Note_on_c,1,45,0,,,,,,,,,,,,,,,,,,,,,,,
3,51264, Note_on_c,1,45,127,,,,,,,,,,,,,,,,,,,,,,,
3,51377, Note_on_c,1,45,0,,,,,,,,,,,,,,,,,,,,,,,
3,51408, Note_on_c,1,40,127,,,,,,,,,,,,,,,,,,,,,,,
3,51489, Note_on_c,1,40,0,,,,,,,,,,,,,,,,,,,,,,,
3,51504, Note_on_c,1,42,107,,,,,,,,,,,,,,,,,,,,,,,
3,51523, Note_on_c,1,42,0,,,,,,,,,,,,,,,,,,,,,,,
3,51552, Note_on_c,1,42,112,,,,,,,,,,,,,,,,,,,,,,,
3,51575, Note_on_c,1,42,0,,,,,,,,,,,,,,,,,,,,,,,
3,51600, Note_on_c,1,42,107,,,,,,,,,,,,,,,,,,,,,,,
3,51625, Note_on_c,1,42,0,,,,,,,,,,,,,,,,,,,,,,,
3,51648, Note_on_c,1,42,99,,,,,,,,,,,,,,,,,,,,,,,
3,51726, Note_on_c,1,42,0,,,,,,,,,,,,,,,,,,,,,,,
3,51744, Note_on_c,1,42,112,,,,,,,,,,,,,,,,,,,,,,,
3,51812, Note_on_c,1,42,0,,,,,,,,,,,,,,,,,,,,,,,
3,51840, Note_on_c,1,38,127,,,,,,,,,,,,,,,,,,,,,,,
3,51910, Note_on_c,1,38,0,,,,,,,,,,,,,,,,,,,,,,,
3,51936, Note_on_c,1,38,127,,,,,,,,,,,,,,,,,,,,,,,
3,52013, Note_on_c,1,38,0,,,,,,,,,,,,,,,,,,,,,,,
3,52032, Note_on_c,1,38,127,,,,,,,,,,,,,,,,,,,,,,,
3,52149, Note_on_c,1,38,0,,,,,,,,,,,,,,,,,,,,,,,
3,52176, Note_on_c,1,38,122,,,,,,,,,,,,,,,,,,,,,,,
3,52217, Note_on_c,1,38,0,,,,,,,,,,,,,,,,,,,,,,,
3,52224, Note_on_c,1,42,107,,,,,,,,,,,,,,,,,,,,,,,
3,52250, Note_on_c,1,42,0,,,,,,,,,,,,,,,,,,,,,,,
3,52272, Note_on_c,1,42,103,,,,,,,,,,,,,,,,,,,,,,,
3,52298, Note_on_c,1,42,0,,,,,,,,,,,,,,,,,,,,,,,
3,52320, Note_on_c,1,42,99,,,,,,,,,,,,,,,,,,,,,,,
3,52346, Note_on_c,1,42,0,,,,,,,,,,,,,,,,,,,,,,,
3,52368, Note_on_c,1,42,99,,,,,,,,,,,,,,,,,,,,,,,
3,52397, Note_on_c,1,42,0,,,,,,,,,,,,,,,,,,,,,,,
3,52424, Note_on_c,1,42,107,,,,,,,,,,,,,,,,,,,,,,,
3,52492, Note_on_c,1,42,0,,,,,,,,,,,,,,,,,,,,,,,
3,52512, Note_on_c,1,42,107,,,,,,,,,,,,,,,,,,,,,,,
3,52577, Note_on_c,1,42,0,,,,,,,,,,,,,,,,,,,,,,,
3,52608, Note_on_c,1,45,127,,,,,,,,,,,,,,,,,,,,,,,
3,52633, Note_on_c,1,45,0,,,,,,,,,,,,,,,,,,,,,,,
3,52656, Note_on_c,1,45,107,,,,,,,,,,,,,,,,,,,,,,,
3,52679, Note_on_c,1,45,0,,,,,,,,,,,,,,,,,,,,,,,
3,52704, Note_on_c,1,45,118,,,,,,,,,,,,,,,,,,,,,,,
3,52727, Note_on_c,1,45,0,,,,,,,,,,,,,,,,,,,,,,,
3,52752, Note_on_c,1,45,118,,,,,,,,,,,,,,,,,,,,,,,
3,52771, Note_on_c,1,45,0,,,,,,,,,,,,,,,,,,,,,,,
3,52800, Note_on_c,1,45,127,,,,,,,,,,,,,,,,,,,,,,,
3,52913, Note_on_c,1,45,0,,,,,,,,,,,,,,,,,,,,,,,
3,52944, Note_on_c,1,40,127,,,,,,,,,,,,,,,,,,,,,,,
3,53025, Note_on_c,1,40,0,,,,,,,,,,,,,,,,,,,,,,,
3,53040, Note_on_c,1,42,107,,,,,,,,,,,,,,,,,,,,,,,
3,53059, Note_on_c,1,42,0,,,,,,,,,,,,,,,,,,,,,,,
3,53088, Note_on_c,1,42,112,,,,,,,,,,,,,,,,,,,,,,,
3,53111, Note_on_c,1,42,0,,,,,,,,,,,,,,,,,,,,,,,
3,53136, Note_on_c,1,42,107,,,,,,,,,,,,,,,,,,,,,,,
3,53161, Note_on_c,1,42,0,,,,,,,,,,,,,,,,,,,,,,,
3,53184, Note_on_c,1,42,99,,,,,,,,,,,,,,,,,,,,,,,
3,53262, Note_on_c,1,42,0,,,,,,,,,,,,,,,,,,,,,,,
3,53280, Note_on_c,1,42,112,,,,,,,,,,,,,,,,,,,,,,,
3,53348, Note_on_c,1,42,0,,,,,,,,,,,,,,,,,,,,,,,
3,53376, Note_on_c,1,38,127,,,,,,,,,,,,,,,,,,,,,,,
3,53446, Note_on_c,1,38,0,,,,,,,,,,,,,,,,,,,,,,,
3,53472, Note_on_c,1,38,127,,,,,,,,,,,,,,,,,,,,,,,
3,53549, Note_on_c,1,38,0,,,,,,,,,,,,,,,,,,,,,,,
3,53568, Note_on_c,1,38,127,,,,,,,,,,,,,,,,,,,,,,,
3,53685, Note_on_c,1,38,0,,,,,,,,,,,,,,,,,,,,,,,
3,53712, Note_on_c,1,38,122,,,,,,,,,,,,,,,,,,,,,,,
3,53753, Note_on_c,1,38,0,,,,,,,,,,,,,,,,,,,,,,,
3,53760, Note_on_c,1,42,107,,,,,,,,,,,,,,,,,,,,,,,
3,53786, Note_on_c,1,42,0,,,,,,,,,,,,,,,,,,,,,,,
3,53808, Note_on_c,1,42,103,,,,,,,,,,,,,,,,,,,,,,,
3,53834, Note_on_c,1,42,0,,,,,,,,,,,,,,,,,,,,,,,
3,53856, Note_on_c,1,42,99,,,,,,,,,,,,,,,,,,,,,,,
3,53882, Note_on_c,1,42,0,,,,,,,,,,,,,,,,,,,,,,,
3,53904, Note_on_c,1,42,99,,,,,,,,,,,,,,,,,,,,,,,
3,53933, Note_on_c,1,42,0,,,,,,,,,,,,,,,,,,,,,,,
3,53960, Note_on_c,1,42,107,,,,,,,,,,,,,,,,,,,,,,,
3,54028, Note_on_c,1,42,0,,,,,,,,,,,,,,,,,,,,,,,
3,54048, Note_on_c,1,42,107,,,,,,,,,,,,,,,,,,,,,,,
3,54113, Note_on_c,1,42,0,,,,,,,,,,,,,,,,,,,,,,,
3,54144, Note_on_c,1,45,127,,,,,,,,,,,,,,,,,,,,,,,
3,54169, Note_on_c,1,45,0,,,,,,,,,,,,,,,,,,,,,,,
3,54192, Note_on_c,1,45,107,,,,,,,,,,,,,,,,,,,,,,,
3,54215, Note_on_c,1,45,0,,,,,,,,,,,,,,,,,,,,,,,
3,54240, Note_on_c,1,45,118,,,,,,,,,,,,,,,,,,,,,,,
3,54263, Note_on_c,1,45,0,,,,,,,,,,,,,,,,,,,,,,,
3,54288, Note_on_c,1,45,118,,,,,,,,,,,,,,,,,,,,,,,
3,54307, Note_on_c,1,45,0,,,,,,,,,,,,,,,,,,,,,,,
3,54336, Note_on_c,1,45,127,,,,,,,,,,,,,,,,,,,,,,,
3,54449, Note_on_c,1,45,0,,,,,,,,,,,,,,,,,,,,,,,
3,54480, Note_on_c,1,40,127,,,,,,,,,,,,,,,,,,,,,,,
3,54561, Note_on_c,1,40,0,,,,,,,,,,,,,,,,,,,,,,,
3,54576, Note_on_c,1,42,107,,,,,,,,,,,,,,,,,,,,,,,
3,54595, Note_on_c,1,42,0,,,,,,,,,,,,,,,,,,,,,,,
3,54624, Note_on_c,1,42,112,,,,,,,,,,,,,,,,,,,,,,,
3,54647, Note_on_c,1,42,0,,,,,,,,,,,,,,,,,,,,,,,
3,54672, Note_on_c,1,42,107,,,,,,,,,,,,,,,,,,,,,,,
3,54697, Note_on_c,1,42,0,,,,,,,,,,,,,,,,,,,,,,,
3,54720, Note_on_c,1,42,99,,,,,,,,,,,,,,,,,,,,,,,
3,54798, Note_on_c,1,42,0,,,,,,,,,,,,,,,,,,,,,,,
3,54816, Note_on_c,1,42,112,,,,,,,,,,,,,,,,,,,,,,,
3,54884, Note_on_c,1,42,0,,,,,,,,,,,,,,,,,,,,,,,
3,54912, Note_on_c,1,38,127,,,,,,,,,,,,,,,,,,,,,,,
3,54982, Note_on_c,1,38,0,,,,,,,,,,,,,,,,,,,,,,,
3,55008, Note_on_c,1,38,127,,,,,,,,,,,,,,,,,,,,,,,
3,55085, Note_on_c,1,38,0,,,,,,,,,,,,,,,,,,,,,,,
3,55104, Note_on_c,1,38,127,,,,,,,,,,,,,,,,,,,,,,,
3,55221, Note_on_c,1,38,0,,,,,,,,,,,,,,,,,,,,,,,
3,55248, Note_on_c,1,38,122,,,,,,,,,,,,,,,,,,,,,,,
3,55289, Note_on_c,1,38,0,,,,,,,,,,,,,,,,,,,,,,,
3,55296, Note_on_c,1,42,107,,,,,,,,,,,,,,,,,,,,,,,
3,55322, Note_on_c,1,42,0,,,,,,,,,,,,,,,,,,,,,,,
3,55344, Note_on_c,1,42,103,,,,,,,,,,,,,,,,,,,,,,,
3,55370, Note_on_c,1,42,0,,,,,,,,,,,,,,,,,,,,,,,
3,55392, Note_on_c,1,42,99,,,,,,,,,,,,,,,,,,,,,,,
3,55418, Note_on_c,1,42,0,,,,,,,,,,,,,,,,,,,,,,,
3,55440, Note_on_c,1,42,99,,,,,,,,,,,,,,,,,,,,,,,
3,55469, Note_on_c,1,42,0,,,,,,,,,,,,,,,,,,,,,,,
3,55496, Note_on_c,1,42,107,,,,,,,,,,,,,,,,,,,,,,,
3,55564, Note_on_c,1,42,0,,,,,,,,,,,,,,,,,,,,,,,
3,55584, Note_on_c,1,42,107,,,,,,,,,,,,,,,,,,,,,,,
3,55649, Note_on_c,1,42,0,,,,,,,,,,,,,,,,,,,,,,,
3,55680, Note_on_c,1,45,127,,,,,,,,,,,,,,,,,,,,,,,
3,55705, Note_on_c,1,45,0,,,,,,,,,,,,,,,,,,,,,,,
3,55728, Note_on_c,1,45,107,,,,,,,,,,,,,,,,,,,,,,,
3,55751, Note_on_c,1,45,0,,,,,,,,,,,,,,,,,,,,,,,
3,55776, Note_on_c,1,45,118,,,,,,,,,,,,,,,,,,,,,,,
3,55799, Note_on_c,1,45,0,,,,,,,,,,,,,,,,,,,,,,,
3,55824, Note_on_c,1,45,118,,,,,,,,,,,,,,,,,,,,,,,
3,55843, Note_on_c,1,45,0,,,,,,,,,,,,,,,,,,,,,,,
3,55872, Note_on_c,1,45,127,,,,,,,,,,,,,,,,,,,,,,,
3,55985, Note_on_c,1,45,0,,,,,,,,,,,,,,,,,,,,,,,
3,56016, Note_on_c,1,40,127,,,,,,,,,,,,,,,,,,,,,,,
3,56097, Note_on_c,1,40,0,,,,,,,,,,,,,,,,,,,,,,,
3,56112, Note_on_c,1,42,107,,,,,,,,,,,,,,,,,,,,,,,
3,56131, Note_on_c,1,42,0,,,,,,,,,,,,,,,,,,,,,,,
3,56160, Note_on_c,1,42,112,,,,,,,,,,,,,,,,,,,,,,,
3,56183, Note_on_c,1,42,0,,,,,,,,,,,,,,,,,,,,,,,
3,56208, Note_on_c,1,42,107,,,,,,,,,,,,,,,,,,,,,,,
3,56233, Note_on_c,1,42,0,,,,,,,,,,,,,,,,,,,,,,,
3,56256, Note_on_c,1,42,99,,,,,,,,,,,,,,,,,,,,,,,
3,56334, Note_on_c,1,42,0,,,,,,,,,,,,,,,,,,,,,,,
3,56352, Note_on_c,1,42,112,,,,,,,,,,,,,,,,,,,,,,,
3,56420, Note_on_c,1,42,0,,,,,,,,,,,,,,,,,,,,,,,
3,56448, Note_on_c,1,38,127,,,,,,,,,,,,,,,,,,,,,,,
3,56518, Note_on_c,1,38,0,,,,,,,,,,,,,,,,,,,,,,,
3,56544, Note_on_c,1,38,127,,,,,,,,,,,,,,,,,,,,,,,
3,56621, Note_on_c,1,38,0,,,,,,,,,,,,,,,,,,,,,,,
3,56640, Note_on_c,1,38,127,,,,,,,,,,,,,,,,,,,,,,,
3,56757, Note_on_c,1,38,0,,,,,,,,,,,,,,,,,,,,,,,
3,56784, Note_on_c,1,38,122,,,,,,,,,,,,,,,,,,,,,,,
3,56825, Note_on_c,1,38,0,,,,,,,,,,,,,,,,,,,,,,,
3,56832, Note_on_c,1,42,107,,,,,,,,,,,,,,,,,,,,,,,
3,56858, Note_on_c,1,42,0,,,,,,,,,,,,,,,,,,,,,,,
3,56880, Note_on_c,1,42,103,,,,,,,,,,,,,,,,,,,,,,,
3,56906, Note_on_c,1,42,0,,,,,,,,,,,,,,,,,,,,,,,
3,56928, Note_on_c,1,42,99,,,,,,,,,,,,,,,,,,,,,,,
3,56954, Note_on_c,1,42,0,,,,,,,,,,,,,,,,,,,,,,,
3,56976, Note_on_c,1,42,99,,,,,,,,,,,,,,,,,,,,,,,
3,57005, Note_on_c,1,42,0,,,,,,,,,,,,,,,,,,,,,,,
3,57032, Note_on_c,1,42,107,,,,,,,,,,,,,,,,,,,,,,,
3,57100, Note_on_c,1,42,0,,,,,,,,,,,,,,,,,,,,,,,
3,57120, Note_on_c,1,42,107,,,,,,,,,,,,,,,,,,,,,,,
3,57185, Note_on_c,1,42,0,,,,,,,,,,,,,,,,,,,,,,,
3,57216, Note_on_c,1,45,127,,,,,,,,,,,,,,,,,,,,,,,
3,57241, Note_on_c,1,45,0,,,,,,,,,,,,,,,,,,,,,,,
3,57264, Note_on_c,1,45,107,,,,,,,,,,,,,,,,,,,,,,,
3,57287, Note_on_c,1,45,0,,,,,,,,,,,,,,,,,,,,,,,
3,57312, Note_on_c,1,45,118,,,,,,,,,,,,,,,,,,,,,,,
3,57335, Note_on_c,1,45,0,,,,,,,,,,,,,,,,,,,,,,,
3,57360, Note_on_c,1,45,118,,,,,,,,,,,,,,,,,,,,,,,
3,57379, Note_on_c,1,45,0,,,,,,,,,,,,,,,,,,,,,,,
3,57408, Note_on_c,1,45,127,,,,,,,,,,,,,,,,,,,,,,,
3,57521, Note_on_c,1,45,0,,,,,,,,,,,,,,,,,,,,,,,
3,57552, Note_on_c,1,40,127,,,,,,,,,,,,,,,,,,,,,,,
3,57633, Note_on_c,1,40,0,,,,,,,,,,,,,,,,,,,,,,,
3,57648, Note_on_c,1,42,107,,,,,,,,,,,,,,,,,,,,,,,
3,57667, Note_on_c,1,42,0,,,,,,,,,,,,,,,,,,,,,,,
3,57696, Note_on_c,1,42,112,,,,,,,,,,,,,,,,,,,,,,,
3,57719, Note_on_c,1,42,0,,,,,,,,,,,,,,,,,,,,,,,
3,57744, Note_on_c,1,42,107,,,,,,,,,,,,,,,,,,,,,,,
3,57769, Note_on_c,1,42,0,,,,,,,,,,,,,,,,,,,,,,,
3,57792, Note_on_c,1,42,99,,,,,,,,,,,,,,,,,,,,,,,
3,57870, Note_on_c,1,42,0,,,,,,,,,,,,,,,,,,,,,,,
3,57888, Note_on_c,1,42,112,,,,,,,,,,,,,,,,,,,,,,,
3,57956, Note_on_c,1,42,0,,,,,,,,,,,,,,,,,,,,,,,
3,57984, Note_on_c,1,38,127,,,,,,,,,,,,,,,,,,,,,,,
3,58054, Note_on_c,1,38,0,,,,,,,,,,,,,,,,,,,,,,,
3,58080, Note_on_c,1,38,127,,,,,,,,,,,,,,,,,,,,,,,
3,58157, Note_on_c,1,38,0,,,,,,,,,,,,,,,,,,,,,,,
3,58176, Note_on_c,1,38,127,,,,,,,,,,,,,,,,,,,,,,,
3,58293, Note_on_c,1,38,0,,,,,,,,,,,,,,,,,,,,,,,
3,58320, Note_on_c,1,38,122,,,,,,,,,,,,,,,,,,,,,,,
3,58361, Note_on_c,1,38,0,,,,,,,,,,,,,,,,,,,,,,,
3,58368, Note_on_c,1,42,107,,,,,,,,,,,,,,,,,,,,,,,
3,58394, Note_on_c,1,42,0,,,,,,,,,,,,,,,,,,,,,,,
3,58416, Note_on_c,1,42,103,,,,,,,,,,,,,,,,,,,,,,,
3,58442, Note_on_c,1,42,0,,,,,,,,,,,,,,,,,,,,,,,
3,58464, Note_on_c,1,42,99,,,,,,,,,,,,,,,,,,,,,,,
3,58490, Note_on_c,1,42,0,,,,,,,,,,,,,,,,,,,,,,,
3,58512, Note_on_c,1,42,99,,,,,,,,,,,,,,,,,,,,,,,
3,58541, Note_on_c,1,42,0,,,,,,,,,,,,,,,,,,,,,,,
3,58568, Note_on_c,1,42,107,,,,,,,,,,,,,,,,,,,,,,,
3,58636, Note_on_c,1,42,0,,,,,,,,,,,,,,,,,,,,,,,
3,58656, Note_on_c,1,42,107,,,,,,,,,,,,,,,,,,,,,,,
3,58721, Note_on_c,1,42,0,,,,,,,,,,,,,,,,,,,,,,,
3,58752, Note_on_c,1,45,127,,,,,,,,,,,,,,,,,,,,,,,
3,58777, Note_on_c,1,45,0,,,,,,,,,,,,,,,,,,,,,,,
3,58800, Note_on_c,1,45,107,,,,,,,,,,,,,,,,,,,,,,,
3,58823, Note_on_c,1,45,0,,,,,,,,,,,,,,,,,,,,,,,
3,58848, Note_on_c,1,45,118,,,,,,,,,,,,,,,,,,,,,,,
3,58871, Note_on_c,1,45,0,,,,,,,,,,,,,,,,,,,,,,,
3,58896, Note_on_c,1,45,118,,,,,,,,,,,,,,,,,,,,,,,
3,58915, Note_on_c,1,45,0,,,,,,,,,,,,,,,,,,,,,,,
3,58944, Note_on_c,1,45,127,,,,,,,,,,,,,,,,,,,,,,,
3,59057, Note_on_c,1,45,0,,,,,,,,,,,,,,,,,,,,,,,
3,59088, Note_on_c,1,40,127,,,,,,,,,,,,,,,,,,,,,,,
3,59169, Note_on_c,1,40,0,,,,,,,,,,,,,,,,,,,,,,,
3,59184, Note_on_c,1,42,107,,,,,,,,,,,,,,,,,,,,,,,
3,59203, Note_on_c,1,42,0,,,,,,,,,,,,,,,,,,,,,,,
3,59232, Note_on_c,1,42,112,,,,,,,,,,,,,,,,,,,,,,,
3,59255, Note_on_c,1,42,0,,,,,,,,,,,,,,,,,,,,,,,
3,59280, Note_on_c,1,42,107,,,,,,,,,,,,,,,,,,,,,,,
3,59305, Note_on_c,1,42,0,,,,,,,,,,,,,,,,,,,,,,,
3,59328, Note_on_c,1,42,99,,,,,,,,,,,,,,,,,,,,,,,
3,59406, Note_on_c,1,42,0,,,,,,,,,,,,,,,,,,,,,,,
3,59424, Note_on_c,1,42,112,,,,,,,,,,,,,,,,,,,,,,,
3,59492, Note_on_c,1,42,0,,,,,,,,,,,,,,,,,,,,,,,
3,59520, Note_on_c,1,38,127,,,,,,,,,,,,,,,,,,,,,,,
3,59590, Note_on_c,1,38,0,,,,,,,,,,,,,,,,,,,,,,,
3,59616, Note_on_c,1,38,127,,,,,,,,,,,,,,,,,,,,,,,
3,59693, Note_on_c,1,38,0,,,,,,,,,,,,,,,,,,,,,,,
3,59712, Note_on_c,1,38,127,,,,,,,,,,,,,,,,,,,,,,,
3,59829, Note_on_c,1,38,0,,,,,,,,,,,,,,,,,,,,,,,
3,59856, Note_on_c,1,38,122,,,,,,,,,,,,,,,,,,,,,,,
3,59897, Note_on_c,1,38,0,,,,,,,,,,,,,,,,,,,,,,,
3,59904, Note_on_c,1,42,107,,,,,,,,,,,,,,,,,,,,,,,
3,59930, Note_on_c,1,42,0,,,,,,,,,,,,,,,,,,,,,,,
3,59952, Note_on_c,1,42,103,,,,,,,,,,,,,,,,,,,,,,,
3,59978, Note_on_c,1,42,0,,,,,,,,,,,,,,,,,,,,,,,
3,60000, Note_on_c,1,42,99,,,,,,,,,,,,,,,,,,,,,,,
3,60026, Note_on_c,1,42,0,,,,,,,,,,,,,,,,,,,,,,,
3,60048, Note_on_c,1,42,99,,,,,,,,,,,,,,,,,,,,,,,
3,60077, Note_on_c,1,42,0,,,,,,,,,,,,,,,,,,,,,,,
3,60104, Note_on_c,1,42,107,,,,,,,,,,,,,,,,,,,,,,,
3,60172, Note_on_c,1,42,0,,,,,,,,,,,,,,,,,,,,,,,
3,60192, Note_on_c,1,42,107,,,,,,,,,,,,,,,,,,,,,,,
3,60257, Note_on_c,1,42,0,,,,,,,,,,,,,,,,,,,,,,,
3,60288, Note_on_c,1,45,127,,,,,,,,,,,,,,,,,,,,,,,
3,60313, Note_on_c,1,45,0,,,,,,,,,,,,,,,,,,,,,,,
3,60336, Note_on_c,1,45,107,,,,,,,,,,,,,,,,,,,,,,,
3,60359, Note_on_c,1,45,0,,,,,,,,,,,,,,,,,,,,,,,
3,60384, Note_on_c,1,45,118,,,,,,,,,,,,,,,,,,,,,,,
3,60407, Note_on_c,1,45,0,,,,,,,,,,,,,,,,,,,,,,,
3,60432, Note_on_c,1,45,118,,,,,,,,,,,,,,,,,,,,,,,
3,60451, Note_on_c,1,45,0,,,,,,,,,,,,,,,,,,,,,,,
3,60480, Note_on_c,1,45,127,,,,,,,,,,,,,,,,,,,,,,,
3,60593, Note_on_c,1,45,0,,,,,,,,,,,,,,,,,,,,,,,
3,60624, Note_on_c,1,40,127,,,,,,,,,,,,,,,,,,,,,,,
3,60705, Note_on_c,1,40,0,,,,,,,,,,,,,,,,,,,,,,,
3,60720, Note_on_c,1,42,107,,,,,,,,,,,,,,,,,,,,,,,
3,60739, Note_on_c,1,42,0,,,,,,,,,,,,,,,,,,,,,,,
3,60768, Note_on_c,1,42,112,,,,,,,,,,,,,,,,,,,,,,,
3,60791, Note_on_c,1,42,0,,,,,,,,,,,,,,,,,,,,,,,
3,60816, Note_on_c,1,42,107,,,,,,,,,,,,,,,,,,,,,,,
3,60841, Note_on_c,1,42,0,,,,,,,,,,,,,,,,,,,,,,,
3,60864, Note_on_c,1,42,99,,,,,,,,,,,,,,,,,,,,,,,
3,60942, Note_on_c,1,42,0,,,,,,,,,,,,,,,,,,,,,,,
3,60960, Note_on_c,1,42,112,,,,,,,,,,,,,,,,,,,,,,,
3,61028, Note_on_c,1,42,0,,,,,,,,,,,,,,,,,,,,,,,
3,61056, Note_on_c,1,38,127,,,,,,,,,,,,,,,,,,,,,,,
3,61126, Note_on_c,1,38,0,,,,,,,,,,,,,,,,,,,,,,,
3,61152, Note_on_c,1,38,127,,,,,,,,,,,,,,,,,,,,,,,
3,61229, Note_on_c,1,38,0,,,,,,,,,,,,,,,,,,,,,,,
3,61248, Note_on_c,1,38,127,,,,,,,,,,,,,,,,,,,,,,,
3,61365, Note_on_c,1,38,0,,,,,,,,,,,,,,,,,,,,,,,
3,61392, Note_on_c,1,38,122,,,,,,,,,,,,,,,,,,,,,,,
3,61433, Note_on_c,1,38,0,,,,,,,,,,,,,,,,,,,,,,,
3,61440, Note_on_c,1,42,107,,,,,,,,,,,,,,,,,,,,,,,
3,61466, Note_on_c,1,42,0,,,,,,,,,,,,,,,,,,,,,,,
3,61488, Note_on_c,1,42,103,,,,,,,,,,,,,,,,,,,,,,,
3,61514, Note_on_c,1,42,0,,,,,,,,,,,,,,,,,,,,,,,
3,61536, Note_on_c,1,42,99,,,,,,,,,,,,,,,,,,,,,,,
3,61562, Note_on_c,1,42,0,,,,,,,,,,,,,,,,,,,,,,,
3,61584, Note_on_c,1,42,99,,,,,,,,,,,,,,,,,,,,,,,
3,61613, Note_on_c,1,42,0,,,,,,,,,,,,,,,,,,,,,,,
3,61640, Note_on_c,1,42,107,,,,,,,,,,,,,,,,,,,,,,,
3,61708, Note_on_c,1,42,0,,,,,,,,,,,,,,,,,,,,,,,
3,61728, Note_on_c,1,42,107,,,,,,,,,,,,,,,,,,,,,,,
3,61793, Note_on_c,1,42,0,,,,,,,,,,,,,,,,,,,,,,,
3,61824, Note_on_c,1,45,127,,,,,,,,,,,,,,,,,,,,,,,
3,61849, Note_on_c,1,45,0,,,,,,,,,,,,,,,,,,,,,,,
3,61872, Note_on_c,1,45,107,,,,,,,,,,,,,,,,,,,,,,,
3,61895, Note_on_c,1,45,0,,,,,,,,,,,,,,,,,,,,,,,
3,61920, Note_on_c,1,45,118,,,,,,,,,,,,,,,,,,,,,,,
3,61943, Note_on_c,1,45,0,,,,,,,,,,,,,,,,,,,,,,,
3,61968, Note_on_c,1,45,118,,,,,,,,,,,,,,,,,,,,,,,
3,61987, Note_on_c,1,45,0,,,,,,,,,,,,,,,,,,,,,,,
3,62016, Note_on_c,1,45,127,,,,,,,,,,,,,,,,,,,,,,,
3,62129, Note_on_c,1,45,0,,,,,,,,,,,,,,,,,,,,,,,
3,62160, Note_on_c,1,40,127,,,,,,,,,,,,,,,,,,,,,,,
3,62241, Note_on_c,1,40,0,,,,,,,,,,,,,,,,,,,,,,,
3,62256, Note_on_c,1,42,107,,,,,,,,,,,,,,,,,,,,,,,
3,62275, Note_on_c,1,42,0,,,,,,,,,,,,,,,,,,,,,,,
3,62304, Note_on_c,1,42,112,,,,,,,,,,,,,,,,,,,,,,,
3,62327, Note_on_c,1,42,0,,,,,,,,,,,,,,,,,,,,,,,
3,62352, Note_on_c,1,42,107,,,,,,,,,,,,,,,,,,,,,,,
3,62377, Note_on_c,1,42,0,,,,,,,,,,,,,,,,,,,,,,,
3,62400, Note_on_c,1,42,99,,,,,,,,,,,,,,,,,,,,,,,
3,62478, Note_on_c,1,42,0,,,,,,,,,,,,,,,,,,,,,,,
3,62496, Note_on_c,1,42,112,,,,,,,,,,,,,,,,,,,,,,,
3,62564, Note_on_c,1,42,0,,,,,,,,,,,,,,,,,,,,,,,
3,62592, Note_on_c,1,38,127,,,,,,,,,,,,,,,,,,,,,,,
3,62662, Note_on_c,1,38,0,,,,,,,,,,,,,,,,,,,,,,,
3,62688, Note_on_c,1,38,127,,,,,,,,,,,,,,,,,,,,,,,
3,62765, Note_on_c,1,38,0,,,,,,,,,,,,,,,,,,,,,,,
3,62784, Note_on_c,1,38,127,,,,,,,,,,,,,,,,,,,,,,,
3,62901, Note_on_c,1,38,0,,,,,,,,,,,,,,,,,,,,,,,
3,62928, Note_on_c,1,38,122,,,,,,,,,,,,,,,,,,,,,,,
3,62969, Note_on_c,1,38,0,,,,,,,,,,,,,,,,,,,,,,,
3,62976, Note_on_c,1,42,107,,,,,,,,,,,,,,,,,,,,,,,
3,63002, Note_on_c,1,42,0,,,,,,,,,,,,,,,,,,,,,,,
3,63024, Note_on_c,1,42,103,,,,,,,,,,,,,,,,,,,,,,,
3,63050, Note_on_c,1,42,0,,,,,,,,,,,,,,,,,,,,,,,
3,63072, Note_on_c,1,42,99,,,,,,,,,,,,,,,,,,,,,,,
3,63098, Note_on_c,1,42,0,,,,,,,,,,,,,,,,,,,,,,,
3,63120, Note_on_c,1,42,99,,,,,,,,,,,,,,,,,,,,,,,
3,63149, Note_on_c,1,42,0,,,,,,,,,,,,,,,,,,,,,,,
3,63176, Note_on_c,1,42,107,,,,,,,,,,,,,,,,,,,,,,,
3,63244, Note_on_c,1,42,0,,,,,,,,,,,,,,,,,,,,,,,
3,63264, Note_on_c,1,42,107,,,,,,,,,,,,,,,,,,,,,,,
3,63329, Note_on_c,1,42,0,,,,,,,,,,,,,,,,,,,,,,,
3,63360, Note_on_c,1,45,127,,,,,,,,,,,,,,,,,,,,,,,
3,63385, Note_on_c,1,45,0,,,,,,,,,,,,,,,,,,,,,,,
3,63408, Note_on_c,1,45,107,,,,,,,,,,,,,,,,,,,,,,,
3,63431, Note_on_c,1,45,0,,,,,,,,,,,,,,,,,,,,,,,
3,63456, Note_on_c,1,45,118,,,,,,,,,,,,,,,,,,,,,,,
3,63479, Note_on_c,1,45,0,,,,,,,,,,,,,,,,,,,,,,,
3,63504, Note_on_c,1,45,118,,,,,,,,,,,,,,,,,,,,,,,
3,63523, Note_on_c,1,45,0,,,,,,,,,,,,,,,,,,,,,,,
3,63552, Note_on_c,1,45,127,,,,,,,,,,,,,,,,,,,,,,,
3,63647, Note_on_c,1,45,0,,,,,,,,,,,,,,,,,,,,,,,
3,63648, Note_on_c,1,30,112,,,,,,,,,,,,,,,,,,,,,,,
3,64509, Note_on_c,1,30,0,,,,,,,,,,,,,,,,,,,,,,,
3,64512, Note_on_c,1,30,45,,,,,,,,,,,,,,,,,,,,,,,
3,64522, Note_on_c,1,30,0,,,,,,,,,,,,,,,,,,,,,,,
3,64522, End_track,,,,,,,,,,,,,,,,,,,,,,,,,,
4,0, Start_track,,,,,,,,,,,,,,,,,,,,,,,,,,
4,0, Instrument_t,NYLON   ,,,,,,,,,,,,,,,,,,,,,,,,,
4,108, Control_c,2,121,0,,,,,,,,,,,,,,,,,,,,,,,
4,109, Control_c,2,11,127,,,,,,,,,,,,,,,,,,,,,,,
4,110, Control_c,2,101,0,,,,,,,,,,,,,,,,,,,,,,,
4,160, Control_c,2,100,0,,,,,,,,,,,,,,,,,,,,,,,
4,248, Control_c,2,6,2,,,,,,,,,,,,,,,,,,,,,,,
4,249, Control_c,2,91,73,,,,,,,,,,,,,,,,,,,,,,,
4,340, Control_c,2,10,84,,,,,,,,,,,,,,,,,,,,,,,
4,396, Control_c,2,32,0,,,,,,,,,,,,,,,,,,,,,,,
4,397, Control_c,2,0,0,,,,,,,,,,,,,,,,,,,,,,,
4,398, Program_c,2,24,,,,,,,,,,,,,,,,,,,,,,,,
4,399, Control_c,2,93,12,,,,,,,,,,,,,,,,,,,,,,,
4,432, Control_c,2,121,0,,,,,,,,,,,,,,,,,,,,,,,
4,529, Control_c,2,7,96,,,,,,,,,,,,,,,,,,,,,,,
4,19968, Note_on_c,2,50,127,,,,,,,,,,,,,,,,,,,,,,,
4,20143, Note_on_c,2,50,0,,,,,,,,,,,,,,,,,,,,,,,
4,34608, Note_on_c,2,42,107,,,,,,,,,,,,,,,,,,,,,,,
4,34651, Note_on_c,2,42,0,,,,,,,,,,,,,,,,,,,,,,,
4,34656, Note_on_c,2,45,122,,,,,,,,,,,,,,,,,,,,,,,
4,34703, Note_on_c,2,45,0,,,,,,,,,,,,,,,,,,,,,,,
4,34704, Note_on_c,2,47,127,,,,,,,,,,,,,,,,,,,,,,,
4,34752, Note_on_c,2,52,127,,,,,,,,,,,,,,,,,,,,,,,
4,34755, Note_on_c,2,47,0,,,,,,,,,,,,,,,,,,,,,,,
4,34848, Note_on_c,2,49,107,,,,,,,,,,,,,,,,,,,,,,,
4,34858, Note_on_c,2,52,0,,,,,,,,,,,,,,,,,,,,,,,
4,34896, Note_on_c,2,52,118,,,,,,,,,,,,,,,,,,,,,,,
4,34900, Note_on_c,2,49,0,,,,,,,,,,,,,,,,,,,,,,,
4,34944, Note_on_c,2,52,0,,,,,,,,,,,,,,,,,,,,,,,
4,34944, Note_on_c,2,54,107,,,,,,,,,,,,,,,,,,,,,,,
4,35141, Note_on_c,2,54,0,,,,,,,,,,,,,,,,,,,,,,,
4,36144, Note_on_c,2,42,127,,,,,,,,,,,,,,,,,,,,,,,
4,36184, Note_on_c,2,42,0,,,,,,,,,,,,,,,,,,,,,,,
4,36192, Note_on_c,2,45,122,,,,,,,,,,,,,,,,,,,,,,,
4,36235, Note_on_c,2,45,0,,,,,,,,,,,,,,,,,,,,,,,
4,36240, Note_on_c,2,47,127,,,,,,,,,,,,,,,,,,,,,,,
4,36288, Note_on_c,2,47,0,,,,,,,,,,,,,,,,,,,,,,,
4,36288, Note_on_c,2,52,127,,,,,,,,,,,,,,,,,,,,,,,
4,36384, Note_on_c,2,49,112,,,,,,,,,,,,,,,,,,,,,,,
4,36398, Note_on_c,2,52,0,,,,,,,,,,,,,,,,,,,,,,,
4,36432, Note_on_c,2,52,118,,,,,,,,,,,,,,,,,,,,,,,
4,36434, Note_on_c,2,49,0,,,,,,,,,,,,,,,,,,,,,,,
4,36478, Note_on_c,2,52,0,,,,,,,,,,,,,,,,,,,,,,,
4,36480, Note_on_c,2,54,112,,,,,,,,,,,,,,,,,,,,,,,
4,36665, Note_on_c,2,54,0,,,,,,,,,,,,,,,,,,,,,,,
4,37680, Note_on_c,2,42,107,,,,,,,,,,,,,,,,,,,,,,,
4,37723, Note_on_c,2,42,0,,,,,,,,,,,,,,,,,,,,,,,
4,37728, Note_on_c,2,45,127,,,,,,,,,,,,,,,,,,,,,,,
4,37769, Note_on_c,2,45,0,,,,,,,,,,,,,,,,,,,,,,,
4,37776, Note_on_c,2,47,127,,,,,,,,,,,,,,,,,,,,,,,
4,37817, Note_on_c,2,47,0,,,,,,,,,,,,,,,,,,,,,,,
4,37824, Note_on_c,2,52,127,,,,,,,,,,,,,,,,,,,,,,,
4,37920, Note_on_c,2,49,107,,,,,,,,,,,,,,,,,,,,,,,
4,37933, Note_on_c,2,52,0,,,,,,,,,,,,,,,,,,,,,,,
4,37965, Note_on_c,2,49,0,,,,,,,,,,,,,,,,,,,,,,,
4,37968, Note_on_c,2,52,114,,,,,,,,,,,,,,,,,,,,,,,
4,38016, Note_on_c,2,54,107,,,,,,,,,,,,,,,,,,,,,,,
4,38017, Note_on_c,2,52,0,,,,,,,,,,,,,,,,,,,,,,,
4,38197, Note_on_c,2,54,0,,,,,,,,,,,,,,,,,,,,,,,
4,39216, Note_on_c,2,42,112,,,,,,,,,,,,,,,,,,,,,,,
4,39254, Note_on_c,2,42,0,,,,,,,,,,,,,,,,,,,,,,,
4,39264, Note_on_c,2,45,127,,,,,,,,,,,,,,,,,,,,,,,
4,39307, Note_on_c,2,45,0,,,,,,,,,,,,,,,,,,,,,,,
4,39312, Note_on_c,2,47,127,,,,,,,,,,,,,,,,,,,,,,,
4,39351, Note_on_c,2,47,0,,,,,,,,,,,,,,,,,,,,,,,
4,39360, Note_on_c,2,52,127,,,,,,,,,,,,,,,,,,,,,,,
4,39454, Note_on_c,2,52,0,,,,,,,,,,,,,,,,,,,,,,,
4,39456, Note_on_c,2,49,112,,,,,,,,,,,,,,,,,,,,,,,
4,39495, Note_on_c,2,49,0,,,,,,,,,,,,,,,,,,,,,,,
4,39504, Note_on_c,2,52,122,,,,,,,,,,,,,,,,,,,,,,,
4,39552, Note_on_c,2,50,127,,,,,,,,,,,,,,,,,,,,,,,
4,39557, Note_on_c,2,52,0,,,,,,,,,,,,,,,,,,,,,,,
4,39727, Note_on_c,2,50,0,,,,,,,,,,,,,,,,,,,,,,,
4,39727, End_track,,,,,,,,,,,,,,,,,,,,,,,,,,
5,0, Start_track,,,,,,,,,,,,,,,,,,,,,,,,,,
5,0, Instrument_t,RHYTHM  ,,,,,,,,,,,,,,,,,,,,,,,,,
5,108, Control_c,3,121,0,,,,,,,,,,,,,,,,,,,,,,,
5,109, Control_c,3,11,127,,,,,,,,,,,,,,,,,,,,,,,
5,110, Control_c,3,101,0,,,,,,,,,,,,,,,,,,,,,,,
5,160, Control_c,3,100,0,,,,,,,,,,,,,,,,,,,,,,,
5,248, Control_c,3,6,2,,,,,,,,,,,,,,,,,,,,,,,
5,249, Control_c,3,91,80,,,,,,,,,,,,,,,,,,,,,,,
5,340, Control_c,3,10,74,,,,,,,,,,,,,,,,,,,,,,,
5,396, Control_c,3,32,0,,,,,,,,,,,,,,,,,,,,,,,
5,397, Control_c,3,0,0,,,,,,,,,,,,,,,,,,,,,,,
5,398, Program_c,3,25,,,,,,,,,,,,,,,,,,,,,,,,
5,399, Control_c,3,93,75,,,,,,,,,,,,,,,,,,,,,,,
5,432, Control_c,3,121,0,,,,,,,,,,,,,,,,,,,,,,,
5,529, Control_c,3,7,80,,,,,,,,,,,,,,,,,,,,,,,
5,1536, Note_on_c,3,54,127,,,,,,,,,,,,,,,,,,,,,,,
5,1536, Note_on_c,3,57,118,,,,,,,,,,,,,,,,,,,,,,,
5,1536, Note_on_c,3,61,127,,,,,,,,,,,,,,,,,,,,,,,
5,1536, Note_on_c,3,66,127,,,,,,,,,,,,,,,,,,,,,,,
5,1536, Note_on_c,3,69,122,,,,,,,,,,,,,,,,,,,,,,,
5,1543, Control_c,3,64,127,,,,,,,,,,,,,,,,,,,,,,,
5,1595, Note_on_c,3,57,0,,,,,,,,,,,,,,,,,,,,,,,
5,1599, Note_on_c,3,61,0,,,,,,,,,,,,,,,,,,,,,,,
5,1627, Note_on_c,3,54,0,,,,,,,,,,,,,,,,,,,,,,,
5,1632, Note_on_c,3,57,98,,,,,,,,,,,,,,,,,,,,,,,
5,1632, Note_on_c,3,61,59,,,,,,,,,,,,,,,,,,,,,,,
5,1642, Note_on_c,3,69,0,,,,,,,,,,,,,,,,,,,,,,,
5,1643, Note_on_c,3,66,0,,,,,,,,,,,,,,,,,,,,,,,
5,1648, Note_on_c,3,61,0,,,,,,,,,,,,,,,,,,,,,,,
5,1653, Note_on_c,3,57,0,,,,,,,,,,,,,,,,,,,,,,,
5,1680, Note_on_c,3,54,107,,,,,,,,,,,,,,,,,,,,,,,
5,1680, Note_on_c,3,57,66,,,,,,,,,,,,,,,,,,,,,,,
5,1680, Note_on_c,3,61,99,,,,,,,,,,,,,,,,,,,,,,,
5,1680, Note_on_c,3,66,80,,,,,,,,,,,,,,,,,,,,,,,
5,1689, Note_on_c,3,66,0,,,,,,,,,,,,,,,,,,,,,,,
5,1690, Note_on_c,3,57,0,,,,,,,,,,,,,,,,,,,,,,,
5,1696, Note_on_c,3,61,0,,,,,,,,,,,,,,,,,,,,,,,
5,1698, Note_on_c,3,54,0,,,,,,,,,,,,,,,,,,,,,,,
5,1728, Note_on_c,3,54,112,,,,,,,,,,,,,,,,,,,,,,,
5,1728, Note_on_c,3,57,122,,,,,,,,,,,,,,,,,,,,,,,
5,1728, Note_on_c,3,61,127,,,,,,,,,,,,,,,,,,,,,,,
5,1728, Note_on_c,3,66,127,,,,,,,,,,,,,,,,,,,,,,,
5,1728, Note_on_c,3,69,127,,,,,,,,,,,,,,,,,,,,,,,
5,1749, Note_on_c,3,57,0,,,,,,,,,,,,,,,,,,,,,,,
5,1762, Note_on_c,3,61,0,,,,,,,,,,,,,,,,,,,,,,,
5,1776, Note_on_c,3,57,87,,,,,,,,,,,,,,,,,,,,,,,
5,1786, Note_on_c,3,69,0,,,,,,,,,,,,,,,,,,,,,,,
5,1791, Note_on_c,3,66,0,,,,,,,,,,,,,,,,,,,,,,,
5,1803, Note_on_c,3,54,0,,,,,,,,,,,,,,,,,,,,,,,
5,1803, Note_on_c,3,57,0,,,,,,,,,,,,,,,,,,,,,,,
5,1824, Note_on_c,3,61,99,,,,,,,,,,,,,,,,,,,,,,,
5,1824, Note_on_c,3,66,74,,,,,,,,,,,,,,,,,,,,,,,
5,1840, Note_on_c,3,61,0,,,,,,,,,,,,,,,,,,,,,,,
5,1841, Note_on_c,3,66,0,,,,,,,,,,,,,,,,,,,,,,,
5,1872, Note_on_c,3,54,107,,,,,,,,,,,,,,,,,,,,,,,
5,1872, Note_on_c,3,57,127,,,,,,,,,,,,,,,,,,,,,,,
5,1872, Note_on_c,3,61,127,,,,,,,,,,,,,,,,,,,,,,,
5,1872, Note_on_c,3,69,122,,,,,,,,,,,,,,,,,,,,,,,
5,1872, Control_c,3,64,0,,,,,,,,,,,,,,,,,,,,,,,
5,1872, Note_on_c,3,66,112,,,,,,,,,,,,,,,,,,,,,,,
5,1892, Note_on_c,3,57,0,,,,,,,,,,,,,,,,,,,,,,,
5,1898, Control_c,3,64,127,,,,,,,,,,,,,,,,,,,,,,,
5,1920, Note_on_c,3,57,88,,,,,,,,,,,,,,,,,,,,,,,
5,1929, Note_on_c,3,61,0,,,,,,,,,,,,,,,,,,,,,,,
5,1932, Note_on_c,3,69,0,,,,,,,,,,,,,,,,,,,,,,,
5,1934, Note_on_c,3,54,0,,,,,,,,,,,,,,,,,,,,,,,
5,1942, Note_on_c,3,66,0,,,,,,,,,,,,,,,,,,,,,,,
5,1945, Note_on_c,3,57,0,,,,,,,,,,,,,,,,,,,,,,,
5,1968, Note_on_c,3,52,95,,,,,,,,,,,,,,,,,,,,,,,
5,1968, Note_on_c,3,61,92,,,,,,,,,,,,,,,,,,,,,,,
5,1968, Note_on_c,3,64,101,,,,,,,,,,,,,,,,,,,,,,,
5,1968, Note_on_c,3,69,85,,,,,,,,,,,,,,,,,,,,,,,
5,1987, Note_on_c,3,61,0,,,,,,,,,,,,,,,,,,,,,,,
5,1992, Note_on_c,3,52,0,,,,,,,,,,,,,,,,,,,,,,,
5,1994, Note_on_c,3,69,0,,,,,,,,,,,,,,,,,,,,,,,
5,1995, Note_on_c,3,64,0,,,,,,,,,,,,,,,,,,,,,,,
5,2013, Control_c,3,64,0,,,,,,,,,,,,,,,,,,,,,,,
5,2016, Note_on_c,3,52,127,,,,,,,,,,,,,,,,,,,,,,,
5,2016, Note_on_c,3,57,114,,,,,,,,,,,,,,,,,,,,,,,
5,2016, Note_on_c,3,61,112,,,,,,,,,,,,,,,,,,,,,,,
5,2016, Note_on_c,3,64,127,,,,,,,,,,,,,,,,,,,,,,,
5,2016, Note_on_c,3,69,118,,,,,,,,,,,,,,,,,,,,,,,
5,2039, Control_c,3,64,127,,,,,,,,,,,,,,,,,,,,,,,
5,2088, Note_on_c,3,52,0,,,,,,,,,,,,,,,,,,,,,,,
5,2092, Note_on_c,3,61,0,,,,,,,,,,,,,,,,,,,,,,,
5,2095, Note_on_c,3,57,0,,,,,,,,,,,,,,,,,,,,,,,
5,2096, Note_on_c,3,64,0,,,,,,,,,,,,,,,,,,,,,,,
5,2096, Note_on_c,3,69,0,,,,,,,,,,,,,,,,,,,,,,,
5,2110, Control_c,3,64,0,,,,,,,,,,,,,,,,,,,,,,,
5,2112, Note_on_c,3,52,127,,,,,,,,,,,,,,,,,,,,,,,
5,2112, Note_on_c,3,57,122,,,,,,,,,,,,,,,,,,,,,,,
5,2112, Note_on_c,3,61,127,,,,,,,,,,,,,,,,,,,,,,,
5,2112, Note_on_c,3,64,127,,,,,,,,,,,,,,,,,,,,,,,
5,2112, Note_on_c,3,69,118,,,,,,,,,,,,,,,,,,,,,,,
5,2128, Control_c,3,64,127,,,,,,,,,,,,,,,,,,,,,,,
5,2167, Note_on_c,3,61,0,,,,,,,,,,,,,,,,,,,,,,,
5,2177, Note_on_c,3,64,0,,,,,,,,,,,,,,,,,,,,,,,
5,2187, Note_on_c,3,69,0,,,,,,,,,,,,,,,,,,,,,,,
5,2188, Note_on_c,3,57,0,,,,,,,,,,,,,,,,,,,,,,,
5,2200, Note_on_c,3,52,0,,,,,,,,,,,,,,,,,,,,,,,
5,2208, Note_on_c,3,57,76,,,,,,,,,,,,,,,,,,,,,,,
5,2208, Note_on_c,3,61,99,,,,,,,,,,,,,,,,,,,,,,,
5,2223, Note_on_c,3,57,0,,,,,,,,,,,,,,,,,,,,,,,
5,2224, Note_on_c,3,61,0,,,,,,,,,,,,,,,,,,,,,,,
5,2256, Note_on_c,3,52,114,,,,,,,,,,,,,,,,,,,,,,,
5,2256, Note_on_c,3,61,95,,,,,,,,,,,,,,,,,,,,,,,
5,2275, Note_on_c,3,61,0,,,,,,,,,,,,,,,,,,,,,,,
5,2276, Note_on_c,3,52,0,,,,,,,,,,,,,,,,,,,,,,,
5,2300, Control_c,3,64,0,,,,,,,,,,,,,,,,,,,,,,,
5,2304, Note_on_c,3,52,127,,,,,,,,,,,,,,,,,,,,,,,
5,2304, Note_on_c,3,59,127,,,,,,,,,,,,,,,,,,,,,,,
5,2304, Note_on_c,3,64,127,,,,,,,,,,,,,,,,,,,,,,,
5,2304, Note_on_c,3,69,114,,,,,,,,,,,,,,,,,,,,,,,
5,2330, Control_c,3,64,127,,,,,,,,,,,,,,,,,,,,,,,
5,2367, Note_on_c,3,59,0,,,,,,,,,,,,,,,,,,,,,,,
5,2374, Note_on_c,3,69,0,,,,,,,,,,,,,,,,,,,,,,,
5,2376, Note_on_c,3,64,0,,,,,,,,,,,,,,,,,,,,,,,
5,2400, Note_on_c,3,59,85,,,,,,,,,,,,,,,,,,,,,,,
5,2400, Note_on_c,3,64,87,,,,,,,,,,,,,,,,,,,,,,,
5,2400, Note_on_c,3,69,55,,,,,,,,,,,,,,,,,,,,,,,
5,2407, Note_on_c,3,52,0,,,,,,,,,,,,,,,,,,,,,,,
5,2416, Note_on_c,3,59,0,,,,,,,,,,,,,,,,,,,,,,,
5,2416, Note_on_c,3,69,0,,,,,,,,,,,,,,,,,,,,,,,
5,2417, Note_on_c,3,64,0,,,,,,,,,,,,,,,,,,,,,,,
5,2448, Note_on_c,3,52,93,,,,,,,,,,,,,,,,,,,,,,,
5,2448, Note_on_c,3,59,73,,,,,,,,,,,,,,,,,,,,,,,
5,2448, Note_on_c,3,64,104,,,,,,,,,,,,,,,,,,,,,,,
5,2448, Note_on_c,3,69,66,,,,,,,,,,,,,,,,,,,,,,,
5,2456, Note_on_c,3,69,0,,,,,,,,,,,,,,,,,,,,,,,
5,2461, Note_on_c,3,59,0,,,,,,,,,,,,,,,,,,,,,,,
5,2463, Note_on_c,3,64,0,,,,,,,,,,,,,,,,,,,,,,,
5,2469, Note_on_c,3,52,0,,,,,,,,,,,,,,,,,,,,,,,
5,2496, Note_on_c,3,52,127,,,,,,,,,,,,,,,,,,,,,,,
5,2496, Note_on_c,3,59,122,,,,,,,,,,,,,,,,,,,,,,,
5,2496, Note_on_c,3,64,127,,,,,,,,,,,,,,,,,,,,,,,
5,2496, Note_on_c,3,69,122,,,,,,,,,,,,,,,,,,,,,,,
5,2518, Note_on_c,3,59,0,,,,,,,,,,,,,,,,,,,,,,,
5,2534, Note_on_c,3,64,0,,,,,,,,,,,,,,,,,,,,,,,
5,2544, Note_on_c,3,59,91,,,,,,,,,,,,,,,,,,,,,,,
5,2565, Note_on_c,3,52,0,,,,,,,,,,,,,,,,,,,,,,,
5,2566, Note_on_c,3,59,0,,,,,,,,,,,,,,,,,,,,,,,
5,2571, Note_on_c,3,69,0,,,,,,,,,,,,,,,,,,,,,,,
5,2592, Note_on_c,3,64,110,,,,,,,,,,,,,,,,,,,,,,,
5,2611, Note_on_c,3,64,0,,,,,,,,,,,,,,,,,,,,,,,
5,2631, Control_c,3,64,0,,,,,,,,,,,,,,,,,,,,,,,
5,2640, Note_on_c,3,52,127,,,,,,,,,,,,,,,,,,,,,,,
5,2640, Note_on_c,3,59,122,,,,,,,,,,,,,,,,,,,,,,,
5,2640, Note_on_c,3,64,127,,,,,,,,,,,,,,,,,,,,,,,
5,2640, Note_on_c,3,69,118,,,,,,,,,,,,,,,,,,,,,,,
5,2657, Control_c,3,64,127,,,,,,,,,,,,,,,,,,,,,,,
5,2697, Note_on_c,3,52,0,,,,,,,,,,,,,,,,,,,,,,,
5,2700, Note_on_c,3,64,0,,,,,,,,,,,,,,,,,,,,,,,
5,2715, Note_on_c,3,59,0,,,,,,,,,,,,,,,,,,,,,,,
5,2720, Note_on_c,3,69,0,,,,,,,,,,,,,,,,,,,,,,,
5,2736, Note_on_c,3,47,101,,,,,,,,,,,,,,,,,,,,,,,
5,2736, Note_on_c,3,59,85,,,,,,,,,,,,,,,,,,,,,,,
5,2736, Note_on_c,3,63,107,,,,,,,,,,,,,,,,,,,,,,,
5,2736, Note_on_c,3,66,99,,,,,,,,,,,,,,,,,,,,,,,
5,2751, Note_on_c,3,63,0,,,,,,,,,,,,,,,,,,,,,,,
5,2754, Control_c,3,64,127,,,,,,,,,,,,,,,,,,,,,,,
5,2757, Note_on_c,3,59,0,,,,,,,,,,,,,,,,,,,,,,,
5,2758, Note_on_c,3,66,0,,,,,,,,,,,,,,,,,,,,,,,
5,2765, Note_on_c,3,47,0,,,,,,,,,,,,,,,,,,,,,,,
5,2784, Note_on_c,3,47,127,,,,,,,,,,,,,,,,,,,,,,,
5,2784, Note_on_c,3,59,118,,,,,,,,,,,,,,,,,,,,,,,
5,2784, Note_on_c,3,63,127,,,,,,,,,,,,,,,,,,,,,,,
5,2784, Note_on_c,3,66,103,,,,,,,,,,,,,,,,,,,,,,,
5,2855, Note_on_c,3,63,0,,,,,,,,,,,,,,,,,,,,,,,
5,2860, Note_on_c,3,47,0,,,,,,,,,,,,,,,,,,,,,,,
5,2863, Note_on_c,3,59,0,,,,,,,,,,,,,,,,,,,,,,,
5,2863, Note_on_c,3,66,0,,,,,,,,,,,,,,,,,,,,,,,
5,2880, Note_on_c,3,47,127,,,,,,,,,,,,,,,,,,,,,,,
5,2880, Note_on_c,3,59,122,,,,,,,,,,,,,,,,,,,,,,,
5,2880, Note_on_c,3,63,127,,,,,,,,,,,,,,,,,,,,,,,
5,2880, Note_on_c,3,66,112,,,,,,,,,,,,,,,,,,,,,,,
5,2882, Control_c,3,64,0,,,,,,,,,,,,,,,,,,,,,,,
5,2899, Control_c,3,64,127,,,,,,,,,,,,,,,,,,,,,,,
5,2936, Note_on_c,3,63,0,,,,,,,,,,,,,,,,,,,,,,,
5,2946, Note_on_c,3,66,0,,,,,,,,,,,,,,,,,,,,,,,
5,2958, Note_on_c,3,59,0,,,,,,,,,,,,,,,,,,,,,,,
5,2960, Note_on_c,3,47,0,,,,,,,,,,,,,,,,,,,,,,,
5,2976, Note_on_c,3,59,98,,,,,,,,,,,,,,,,,,,,,,,
5,2976, Note_on_c,3,63,127,,,,,,,,,,,,,,,,,,,,,,,
5,2976, Note_on_c,3,66,107,,,,,,,,,,,,,,,,,,,,,,,
5,2997, Note_on_c,3,59,0,,,,,,,,,,,,,,,,,,,,,,,
5,3001, Note_on_c,3,63,0,,,,,,,,,,,,,,,,,,,,,,,
5,3017, Note_on_c,3,66,0,,,,,,,,,,,,,,,,,,,,,,,
5,3024, Note_on_c,3,47,85,,,,,,,,,,,,,,,,,,,,,,,
5,3024, Note_on_c,3,59,101,,,,,,,,,,,,,,,,,,,,,,,
5,3024, Note_on_c,3,66,46,,,,,,,,,,,,,,,,,,,,,,,
5,3034, Note_on_c,3,66,0,,,,,,,,,,,,,,,,,,,,,,,
5,3054, Note_on_c,3,47,0,,,,,,,,,,,,,,,,,,,,,,,
5,3054, Note_on_c,3,59,0,,,,,,,,,,,,,,,,,,,,,,,
5,3072, Note_on_c,3,54,112,,,,,,,,,,,,,,,,,,,,,,,
5,3072, Note_on_c,3,57,122,,,,,,,,,,,,,,,,,,,,,,,
5,3072, Note_on_c,3,61,127,,,,,,,,,,,,,,,,,,,,,,,
5,3072, Note_on_c,3,66,112,,,,,,,,,,,,,,,,,,,,,,,
5,3072, Note_on_c,3,69,127,,,,,,,,,,,,,,,,,,,,,,,
5,3074, Control_c,3,64,0,,,,,,,,,,,,,,,,,,,,,,,
5,3105, Control_c,3,64,127,,,,,,,,,,,,,,,,,,,,,,,
5,3141, Note_on_c,3,57,0,,,,,,,,,,,,,,,,,,,,,,,
5,3144, Note_on_c,3,61,0,,,,,,,,,,,,,,,,,,,,,,,
5,3167, Note_on_c,3,54,0,,,,,,,,,,,,,,,,,,,,,,,
5,3168, Note_on_c,3,57,70,,,,,,,,,,,,,,,,,,,,,,,
5,3187, Note_on_c,3,69,0,,,,,,,,,,,,,,,,,,,,,,,
5,3188, Note_on_c,3,66,0,,,,,,,,,,,,,,,,,,,,,,,
5,3197, Note_on_c,3,57,0,,,,,,,,,,,,,,,,,,,,,,,
5,3216, Note_on_c,3,54,61,,,,,,,,,,,,,,,,,,,,,,,
5,3216, Note_on_c,3,57,74,,,,,,,,,,,,,,,,,,,,,,,
5,3216, Note_on_c,3,61,88,,,,,,,,,,,,,,,,,,,,,,,
5,3216, Note_on_c,3,66,74,,,,,,,,,,,,,,,,,,,,,,,
5,3216, Note_on_c,3,69,95,,,,,,,,,,,,,,,,,,,,,,,
5,3234, Note_on_c,3,54,0,,,,,,,,,,,,,,,,,,,,,,,
5,3234, Note_on_c,3,61,0,,,,,,,,,,,,,,,,,,,,,,,
5,3237, Note_on_c,3,69,0,,,,,,,,,,,,,,,,,,,,,,,
5,3241, Note_on_c,3,57,0,,,,,,,,,,,,,,,,,,,,,,,
5,3242, Note_on_c,3,66,0,,,,,,,,,,,,,,,,,,,,,,,
5,3264, Note_on_c,3,54,112,,,,,,,,,,,,,,,,,,,,,,,
5,3264, Note_on_c,3,57,101,,,,,,,,,,,,,,,,,,,,,,,
5,3264, Note_on_c,3,61,112,,,,,,,,,,,,,,,,,,,,,,,
5,3264, Note_on_c,3,66,112,,,,,,,,,,,,,,,,,,,,,,,
5,3264, Note_on_c,3,69,127,,,,,,,,,,,,,,,,,,,,,,,
5,3286, Note_on_c,3,57,0,,,,,,,,,,,,,,,,,,,,,,,
5,3297, Note_on_c,3,61,0,,,,,,,,,,,,,,,,,,,,,,,
5,3312, Note_on_c,3,57,73,,,,,,,,,,,,,,,,,,,,,,,
5,3312, Note_on_c,3,69,0,,,,,,,,,,,,,,,,,,,,,,,
5,3317, Note_on_c,3,54,0,,,,,,,,,,,,,,,,,,,,,,,
5,3333, Note_on_c,3,66,0,,,,,,,,,,,,,,,,,,,,,,,
5,3347, Note_on_c,3,57,0,,,,,,,,,,,,,,,,,,,,,,,
5,3360, Note_on_c,3,57,78,,,,,,,,,,,,,,,,,,,,,,,
5,3360, Note_on_c,3,61,95,,,,,,,,,,,,,,,,,,,,,,,
5,3360, Note_on_c,3,66,78,,,,,,,,,,,,,,,,,,,,,,,
5,3360, Note_on_c,3,69,88,,,,,,,,,,,,,,,,,,,,,,,
5,3376, Note_on_c,3,61,0,,,,,,,,,,,,,,,,,,,,,,,
5,3381, Note_on_c,3,57,0,,,,,,,,,,,,,,,,,,,,,,,
5,3381, Note_on_c,3,69,0,,,,,,,,,,,,,,,,,,,,,,,
5,3382, Note_on_c,3,66,0,,,,,,,,,,,,,,,,,,,,,,,
5,3408, Note_on_c,3,54,112,,,,,,,,,,,,,,,,,,,,,,,
5,3408, Note_on_c,3,57,118,,,,,,,,,,,,,,,,,,,,,,,
5,3408, Note_on_c,3,61,127,,,,,,,,,,,,,,,,,,,,,,,
5,3408, Note_on_c,3,66,112,,,,,,,,,,,,,,,,,,,,,,,
5,3408, Note_on_c,3,69,122,,,,,,,,,,,,,,,,,,,,,,,
5,3431, Control_c,3,64,127,,,,,,,,,,,,,,,,,,,,,,,
5,3453, Note_on_c,3,61,0,,,,,,,,,,,,,,,,,,,,,,,
5,3471, Note_on_c,3,69,0,,,,,,,,,,,,,,,,,,,,,,,
5,3472, Note_on_c,3,54,0,,,,,,,,,,,,,,,,,,,,,,,
5,3477, Note_on_c,3,66,0,,,,,,,,,,,,,,,,,,,,,,,
5,3480, Note_on_c,3,57,0,,,,,,,,,,,,,,,,,,,,,,,
5,3504, Note_on_c,3,52,122,,,,,,,,,,,,,,,,,,,,,,,
5,3504, Note_on_c,3,57,114,,,,,,,,,,,,,,,,,,,,,,,
5,3504, Note_on_c,3,61,107,,,,,,,,,,,,,,,,,,,,,,,
5,3504, Note_on_c,3,64,127,,,,,,,,,,,,,,,,,,,,,,,
5,3504, Note_on_c,3,69,104,,,,,,,,,,,,,,,,,,,,,,,
5,3515, Control_c,3,64,0,,,,,,,,,,,,,,,,,,,,,,,
5,3523, Note_on_c,3,57,0,,,,,,,,,,,,,,,,,,,,,,,
5,3533, Control_c,3,64,127,,,,,,,,,,,,,,,,,,,,,,,
5,3536, Note_on_c,3,61,0,,,,,,,,,,,,,,,,,,,,,,,
5,3539, Note_on_c,3,52,0,,,,,,,,,,,,,,,,,,,,,,,
5,3539, Note_on_c,3,64,0,,,,,,,,,,,,,,,,,,,,,,,
5,3546, Note_on_c,3,69,0,,,,,,,,,,,,,,,,,,,,,,,
5,3552, Note_on_c,3,52,127,,,,,,,,,,,,,,,,,,,,,,,
5,3552, Note_on_c,3,57,114,,,,,,,,,,,,,,,,,,,,,,,
5,3552, Note_on_c,3,61,112,,,,,,,,,,,,,,,,,,,,,,,
5,3552, Note_on_c,3,64,122,,,,,,,,,,,,,,,,,,,,,,,
5,3552, Note_on_c,3,69,83,,,,,,,,,,,,,,,,,,,,,,,
5,3625, Note_on_c,3,52,0,,,,,,,,,,,,,,,,,,,,,,,
5,3625, Note_on_c,3,61,0,,,,,,,,,,,,,,,,,,,,,,,
5,3628, Note_on_c,3,69,0,,,,,,,,,,,,,,,,,,,,,,,
5,3631, Note_on_c,3,64,0,,,,,,,,,,,,,,,,,,,,,,,
5,3638, Note_on_c,3,57,0,,,,,,,,,,,,,,,,,,,,,,,
5,3648, Note_on_c,3,52,122,,,,,,,,,,,,,,,,,,,,,,,
5,3648, Note_on_c,3,57,98,,,,,,,,,,,,,,,,,,,,,,,
5,3648, Note_on_c,3,61,127,,,,,,,,,,,,,,,,,,,,,,,
5,3648, Note_on_c,3,64,127,,,,,,,,,,,,,,,,,,,,,,,
5,3648, Note_on_c,3,69,118,,,,,,,,,,,,,,,,,,,,,,,
5,3655, Control_c,3,64,0,,,,,,,,,,,,,,,,,,,,,,,
5,3669, Note_on_c,3,57,0,,,,,,,,,,,,,,,,,,,,,,,
5,3673, Control_c,3,64,127,,,,,,,,,,,,,,,,,,,,,,,
5,3696, Note_on_c,3,57,76,,,,,,,,,,,,,,,,,,,,,,,
5,3697, Note_on_c,3,61,0,,,,,,,,,,,,,,,,,,,,,,,
5,3708, Note_on_c,3,64,0,,,,,,,,,,,,,,,,,,,,,,,
5,3717, Note_on_c,3,69,0,,,,,,,,,,,,,,,,,,,,,,,
5,3738, Note_on_c,3,57,0,,,,,,,,,,,,,,,,,,,,,,,
5,3740, Note_on_c,3,52,0,,,,,,,,,,,,,,,,,,,,,,,
5,3744, Note_on_c,3,57,80,,,,,,,,,,,,,,,,,,,,,,,
5,3744, Note_on_c,3,61,95,,,,,,,,,,,,,,,,,,,,,,,
5,3744, Note_on_c,3,64,93,,,,,,,,,,,,,,,,,,,,,,,
5,3744, Note_on_c,3,69,93,,,,,,,,,,,,,,,,,,,,,,,
5,3761, Note_on_c,3,61,0,,,,,,,,,,,,,,,,,,,,,,,
5,3762, Note_on_c,3,57,0,,,,,,,,,,,,,,,,,,,,,,,
5,3763, Note_on_c,3,64,0,,,,,,,,,,,,,,,,,,,,,,,
5,3792, Note_on_c,3,52,110,,,,,,,,,,,,,,,,,,,,,,,
5,3792, Note_on_c,3,57,67,,,,,,,,,,,,,,,,,,,,,,,
5,3792, Note_on_c,3,64,93,,,,,,,,,,,,,,,,,,,,,,,
5,3805, Note_on_c,3,64,0,,,,,,,,,,,,,,,,,,,,,,,
5,3814, Note_on_c,3,52,0,,,,,,,,,,,,,,,,,,,,,,,
5,3814, Note_on_c,3,57,0,,,,,,,,,,,,,,,,,,,,,,,
5,3816, Note_on_c,3,69,0,,,,,,,,,,,,,,,,,,,,,,,
5,3840, Note_on_c,3,52,127,,,,,,,,,,,,,,,,,,,,,,,
5,3840, Note_on_c,3,59,122,,,,,,,,,,,,,,,,,,,,,,,
5,3840, Note_on_c,3,64,127,,,,,,,,,,,,,,,,,,,,,,,
5,3840, Note_on_c,3,69,118,,,,,,,,,,,,,,,,,,,,,,,
5,3842, Control_c,3,64,0,,,,,,,,,,,,,,,,,,,,,,,
5,3868, Control_c,3,64,127,,,,,,,,,,,,,,,,,,,,,,,
5,3907, Note_on_c,3,59,0,,,,,,,,,,,,,,,,,,,,,,,
5,3914, Note_on_c,3,64,0,,,,,,,,,,,,,,,,,,,,,,,
5,3920, Note_on_c,3,69,0,,,,,,,,,,,,,,,,,,,,,,,
5,3933, Note_on_c,3,52,0,,,,,,,,,,,,,,,,,,,,,,,
5,3936, Note_on_c,3,59,85,,,,,,,,,,,,,,,,,,,,,,,
5,3936, Note_on_c,3,64,93,,,,,,,,,,,,,,,,,,,,,,,
5,3936, Note_on_c,3,69,80,,,,,,,,,,,,,,,,,,,,,,,
5,3950, Note_on_c,3,64,0,,,,,,,,,,,,,,,,,,,,,,,
5,3953, Note_on_c,3,59,0,,,,,,,,,,,,,,,,,,,,,,,
5,3956, Note_on_c,3,69,0,,,,,,,,,,,,,,,,,,,,,,,
5,3984, Note_on_c,3,52,101,,,,,,,,,,,,,,,,,,,,,,,
5,3984, Note_on_c,3,59,95,,,,,,,,,,,,,,,,,,,,,,,
5,3984, Note_on_c,3,64,107,,,,,,,,,,,,,,,,,,,,,,,
5,3984, Note_on_c,3,69,73,,,,,,,,,,,,,,,,,,,,,,,
5,4000, Note_on_c,3,64,0,,,,,,,,,,,,,,,,,,,,,,,
5,4001, Note_on_c,3,59,0,,,,,,,,,,,,,,,,,,,,,,,
5,4002, Note_on_c,3,52,0,,,,,,,,,,,,,,,,,,,,,,,
5,4004, Note_on_c,3,69,0,,,,,,,,,,,,,,,,,,,,,,,
5,4032, Note_on_c,3,52,127,,,,,,,,,,,,,,,,,,,,,,,
5,4032, Note_on_c,3,59,127,,,,,,,,,,,,,,,,,,,,,,,
5,4032, Note_on_c,3,64,127,,,,,,,,,,,,,,,,,,,,,,,
5,4032, Note_on_c,3,69,122,,,,,,,,,,,,,,,,,,,,,,,
5,4052, Note_on_c,3,59,0,,,,,,,,,,,,,,,,,,,,,,,
5,4065, Note_on_c,3,64,0,,,,,,,,,,,,,,,,,,,,,,,
5,4079, Note_on_c,3,69,0,,,,,,,,,,,,,,,,,,,,,,,
5,4080, Note_on_c,3,59,88,,,,,,,,,,,,,,,,,,,,,,,
5,4080, Note_on_c,3,69,66,,,,,,,,,,,,,,,,,,,,,,,
5,4090, Note_on_c,3,69,0,,,,,,,,,,,,,,,,,,,,,,,
5,4093, Note_on_c,3,52,0,,,,,,,,,,,,,,,,,,,,,,,
5,4103, Note_on_c,3,59,0,,,,,,,,,,,,,,,,,,,,,,,
5,4128, Note_on_c,3,59,73,,,,,,,,,,,,,,,,,,,,,,,
5,4128, Note_on_c,3,64,110,,,,,,,,,,,,,,,,,,,,,,,
5,4141, Note_on_c,3,59,0,,,,,,,,,,,,,,,,,,,,,,,
5,4148, Note_on_c,3,64,0,,,,,,,,,,,,,,,,,,,,,,,
5,4174, Control_c,3,64,0,,,,,,,,,,,,,,,,,,,,,,,
5,4176, Note_on_c,3,52,127,,,,,,,,,,,,,,,,,,,,,,,
5,4176, Note_on_c,3,59,127,,,,,,,,,,,,,,,,,,,,,,,
5,4176, Note_on_c,3,64,127,,,,,,,,,,,,,,,,,,,,,,,
5,4176, Note_on_c,3,69,118,,,,,,,,,,,,,,,,,,,,,,,
5,4191, Control_c,3,64,127,,,,,,,,,,,,,,,,,,,,,,,
5,4235, Note_on_c,3,52,0,,,,,,,,,,,,,,,,,,,,,,,
5,4238, Note_on_c,3,64,0,,,,,,,,,,,,,,,,,,,,,,,
5,4248, Note_on_c,3,59,0,,,,,,,,,,,,,,,,,,,,,,,
5,4252, Note_on_c,3,69,0,,,,,,,,,,,,,,,,,,,,,,,
5,4270, Control_c,3,64,0,,,,,,,,,,,,,,,,,,,,,,,
5,4272, Note_on_c,3,47,118,,,,,,,,,,,,,,,,,,,,,,,
5,4272, Note_on_c,3,59,118,,,,,,,,,,,,,,,,,,,,,,,
5,4272, Note_on_c,3,63,127,,,,,,,,,,,,,,,,,,,,,,,
5,4272, Note_on_c,3,66,112,,,,,,,,,,,,,,,,,,,,,,,
5,4288, Control_c,3,64,127,,,,,,,,,,,,,,,,,,,,,,,
5,4324, Note_on_c,3,63,0,,,,,,,,,,,,,,,,,,,,,,,
5,4343, Note_on_c,3,66,0,,,,,,,,,,,,,,,,,,,,,,,
5,4350, Note_on_c,3,59,0,,,,,,,,,,,,,,,,,,,,,,,
5,4351, Note_on_c,3,47,0,,,,,,,,,,,,,,,,,,,,,,,
5,4368, Note_on_c,3,47,122,,,,,,,,,,,,,,,,,,,,,,,
5,4368, Note_on_c,3,59,122,,,,,,,,,,,,,,,,,,,,,,,
5,4368, Note_on_c,3,63,127,,,,,,,,,,,,,,,,,,,,,,,
5,4368, Note_on_c,3,66,112,,,,,,,,,,,,,,,,,,,,,,,
5,4403, Note_on_c,3,59,0,,,,,,,,,,,,,,,,,,,,,,,
5,4407, Note_on_c,3,63,0,,,,,,,,,,,,,,,,,,,,,,,
5,4416, Note_on_c,3,59,93,,,,,,,,,,,,,,,,,,,,,,,
5,4416, Note_on_c,3,63,70,,,,,,,,,,,,,,,,,,,,,,,
5,4425, Note_on_c,3,63,0,,,,,,,,,,,,,,,,,,,,,,,
5,4439, Note_on_c,3,66,0,,,,,,,,,,,,,,,,,,,,,,,
5,4442, Note_on_c,3,47,0,,,,,,,,,,,,,,,,,,,,,,,
5,4445, Note_on_c,3,59,0,,,,,,,,,,,,,,,,,,,,,,,
5,4464, Note_on_c,3,47,127,,,,,,,,,,,,,,,,,,,,,,,
5,4464, Note_on_c,3,59,110,,,,,,,,,,,,,,,,,,,,,,,
5,4464, Note_on_c,3,63,127,,,,,,,,,,,,,,,,,,,,,,,
5,4464, Note_on_c,3,66,112,,,,,,,,,,,,,,,,,,,,,,,
5,4480, Note_on_c,3,63,0,,,,,,,,,,,,,,,,,,,,,,,
5,4485, Note_on_c,3,59,0,,,,,,,,,,,,,,,,,,,,,,,
5,4485, Note_on_c,3,66,0,,,,,,,,,,,,,,,,,,,,,,,
5,4493, Note_on_c,3,47,0,,,,,,,,,,,,,,,,,,,,,,,
5,4512, Note_on_c,3,47,107,,,,,,,,,,,,,,,,,,,,,,,
5,4512, Note_on_c,3,59,118,,,,,,,,,,,,,,,,,,,,,,,
5,4512, Note_on_c,3,63,127,,,,,,,,,,,,,,,,,,,,,,,
5,4512, Note_on_c,3,66,112,,,,,,,,,,,,,,,,,,,,,,,
5,4539, Note_on_c,3,59,0,,,,,,,,,,,,,,,,,,,,,,,
5,4545, Note_on_c,3,63,0,,,,,,,,,,,,,,,,,,,,,,,
5,4560, Note_on_c,3,59,93,,,,,,,,,,,,,,,,,,,,,,,
5,4565, Note_on_c,3,47,0,,,,,,,,,,,,,,,,,,,,,,,
5,4582, Note_on_c,3,66,0,,,,,,,,,,,,,,,,,,,,,,,
5,4592, Note_on_c,3,59,0,,,,,,,,,,,,,,,,,,,,,,,
5,4603, Control_c,3,64,0,,,,,,,,,,,,,,,,,,,,,,,
5,4608, Note_on_c,3,54,112,,,,,,,,,,,,,,,,,,,,,,,
5,4608, Note_on_c,3,57,127,,,,,,,,,,,,,,,,,,,,,,,
5,4608, Note_on_c,3,61,127,,,,,,,,,,,,,,,,,,,,,,,
5,4608, Note_on_c,3,66,112,,,,,,,,,,,,,,,,,,,,,,,
5,4608, Note_on_c,3,69,127,,,,,,,,,,,,,,,,,,,,,,,
5,4633, Control_c,3,64,127,,,,,,,,,,,,,,,,,,,,,,,
5,4670, Note_on_c,3,57,0,,,,,,,,,,,,,,,,,,,,,,,
5,4671, Note_on_c,3,61,0,,,,,,,,,,,,,,,,,,,,,,,
5,4678, Note_on_c,3,69,0,,,,,,,,,,,,,,,,,,,,,,,
5,4688, Note_on_c,3,66,0,,,,,,,,,,,,,,,,,,,,,,,
5,4698, Note_on_c,3,54,0,,,,,,,,,,,,,,,,,,,,,,,
5,4704, Note_on_c,3,57,91,,,,,,,,,,,,,,,,,,,,,,,
5,4704, Note_on_c,3,61,64,,,,,,,,,,,,,,,,,,,,,,,
5,4704, Note_on_c,3,66,40,,,,,,,,,,,,,,,,,,,,,,,
5,4704, Note_on_c,3,69,80,,,,,,,,,,,,,,,,,,,,,,,
5,4713, Note_on_c,3,61,0,,,,,,,,,,,,,,,,,,,,,,,
5,4718, Note_on_c,3,66,0,,,,,,,,,,,,,,,,,,,,,,,
5,4723, Note_on_c,3,69,0,,,,,,,,,,,,,,,,,,,,,,,
5,4732, Note_on_c,3,57,0,,,,,,,,,,,,,,,,,,,,,,,
5,4752, Note_on_c,3,54,78,,,,,,,,,,,,,,,,,,,,,,,
5,4752, Note_on_c,3,57,74,,,,,,,,,,,,,,,,,,,,,,,
5,4752, Note_on_c,3,61,86,,,,,,,,,,,,,,,,,,,,,,,
5,4752, Note_on_c,3,66,72,,,,,,,,,,,,,,,,,,,,,,,
5,4752, Note_on_c,3,69,88,,,,,,,,,,,,,,,,,,,,,,,
5,4770, Note_on_c,3,61,0,,,,,,,,,,,,,,,,,,,,,,,
5,4771, Note_on_c,3,69,0,,,,,,,,,,,,,,,,,,,,,,,
5,4774, Note_on_c,3,54,0,,,,,,,,,,,,,,,,,,,,,,,
5,4777, Note_on_c,3,57,0,,,,,,,,,,,,,,,,,,,,,,,
5,4781, Note_on_c,3,66,0,,,,,,,,,,,,,,,,,,,,,,,
5,4800, Note_on_c,3,54,103,,,,,,,,,,,,,,,,,,,,,,,
5,4800, Note_on_c,3,57,91,,,,,,,,,,,,,,,,,,,,,,,
5,4800, Note_on_c,3,61,112,,,,,,,,,,,,,,,,,,,,,,,
5,4800, Note_on_c,3,66,127,,,,,,,,,,,,,,,,,,,,,,,
5,4800, Note_on_c,3,69,127,,,,,,,,,,,,,,,,,,,,,,,
5,4827, Note_on_c,3,57,0,,,,,,,,,,,,,,,,,,,,,,,
5,4837, Note_on_c,3,61,0,,,,,,,,,,,,,,,,,,,,,,,
5,4848, Note_on_c,3,57,76,,,,,,,,,,,,,,,,,,,,,,,
5,4861, Note_on_c,3,69,0,,,,,,,,,,,,,,,,,,,,,,,
5,4865, Note_on_c,3,54,0,,,,,,,,,,,,,,,,,,,,,,,
5,4865, Note_on_c,3,66,0,,,,,,,,,,,,,,,,,,,,,,,
5,4887, Note_on_c,3,57,0,,,,,,,,,,,,,,,,,,,,,,,
5,4896, Note_on_c,3,61,99,,,,,,,,,,,,,,,,,,,,,,,
5,4896, Note_on_c,3,66,82,,,,,,,,,,,,,,,,,,,,,,,
5,4896, Note_on_c,3,69,93,,,,,,,,,,,,,,,,,,,,,,,
5,4909, Note_on_c,3,69,0,,,,,,,,,,,,,,,,,,,,,,,
5,4913, Note_on_c,3,61,0,,,,,,,,,,,,,,,,,,,,,,,
5,4917, Note_on_c,3,66,0,,,,,,,,,,,,,,,,,,,,,,,
5,4937, Control_c,3,64,0,,,,,,,,,,,,,,,,,,,,,,,
5,4944, Note_on_c,3,54,107,,,,,,,,,,,,,,,,,,,,,,,
5,4944, Note_on_c,3,57,118,,,,,,,,,,,,,,,,,,,,,,,
5,4944, Note_on_c,3,61,127,,,,,,,,,,,,,,,,,,,,,,,
5,4944, Note_on_c,3,66,112,,,,,,,,,,,,,,,,,,,,,,,
5,4944, Note_on_c,3,69,127,,,,,,,,,,,,,,,,,,,,,,,
5,4955, Control_c,3,64,127,,,,,,,,,,,,,,,,,,,,,,,
5,4969, Note_on_c,3,57,0,,,,,,,,,,,,,,,,,,,,,,,
5,4992, Note_on_c,3,57,85,,,,,,,,,,,,,,,,,,,,,,,
5,5001, Note_on_c,3,61,0,,,,,,,,,,,,,,,,,,,,,,,
5,5004, Note_on_c,3,69,0,,,,,,,,,,,,,,,,,,,,,,,
5,5007, Note_on_c,3,54,0,,,,,,,,,,,,,,,,,,,,,,,
5,5016, Note_on_c,3,66,0,,,,,,,,,,,,,,,,,,,,,,,
5,5021, Note_on_c,3,57,0,,,,,,,,,,,,,,,,,,,,,,,
5,5040, Note_on_c,3,52,110,,,,,,,,,,,,,,,,,,,,,,,
5,5040, Note_on_c,3,57,82,,,,,,,,,,,,,,,,,,,,,,,
5,5040, Note_on_c,3,61,95,,,,,,,,,,,,,,,,,,,,,,,
5,5040, Note_on_c,3,64,110,,,,,,,,,,,,,,,,,,,,,,,
5,5040, Note_on_c,3,66,67,,,,,,,,,,,,,,,,,,,,,,,
5,5040, Note_on_c,3,69,98,,,,,,,,,,,,,,,,,,,,,,,
5,5045, Note_on_c,3,66,0,,,,,,,,,,,,,,,,,,,,,,,
5,5053, Note_on_c,3,57,0,,,,,,,,,,,,,,,,,,,,,,,
5,5061, Note_on_c,3,61,0,,,,,,,,,,,,,,,,,,,,,,,
5,5063, Note_on_c,3,52,0,,,,,,,,,,,,,,,,,,,,,,,
5,5065, Note_on_c,3,64,0,,,,,,,,,,,,,,,,,,,,,,,
5,5065, Note_on_c,3,69,0,,,,,,,,,,,,,,,,,,,,,,,
5,5084, Control_c,3,64,0,,,,,,,,,,,,,,,,,,,,,,,
5,5088, Note_on_c,3,52,127,,,,,,,,,,,,,,,,,,,,,,,
5,5088, Note_on_c,3,57,127,,,,,,,,,,,,,,,,,,,,,,,
5,5088, Note_on_c,3,61,127,,,,,,,,,,,,,,,,,,,,,,,
5,5088, Note_on_c,3,64,127,,,,,,,,,,,,,,,,,,,,,,,
5,5088, Note_on_c,3,69,118,,,,,,,,,,,,,,,,,,,,,,,
5,5106, Control_c,3,64,127,,,,,,,,,,,,,,,,,,,,,,,
5,5146, Note_on_c,3,57,0,,,,,,,,,,,,,,,,,,,,,,,
5,5154, Note_on_c,3,52,0,,,,,,,,,,,,,,,,,,,,,,,
5,5159, Note_on_c,3,61,0,,,,,,,,,,,,,,,,,,,,,,,
5,5160, Note_on_c,3,69,0,,,,,,,,,,,,,,,,,,,,,,,
5,5162, Note_on_c,3,64,0,,,,,,,,,,,,,,,,,,,,,,,
5,5184, Note_on_c,3,52,127,,,,,,,,,,,,,,,,,,,,,,,
5,5184, Note_on_c,3,57,118,,,,,,,,,,,,,,,,,,,,,,,
5,5184, Note_on_c,3,61,127,,,,,,,,,,,,,,,,,,,,,,,
5,5184, Note_on_c,3,64,127,,,,,,,,,,,,,,,,,,,,,,,
5,5184, Note_on_c,3,66,107,,,,,,,,,,,,,,,,,,,,,,,
5,5184, Note_on_c,3,69,122,,,,,,,,,,,,,,,,,,,,,,,
5,5187, Note_on_c,3,66,0,,,,,,,,,,,,,,,,,,,,,,,
5,5208, Note_on_c,3,57,0,,,,,,,,,,,,,,,,,,,,,,,
5,5257, Note_on_c,3,61,0,,,,,,,,,,,,,,,,,,,,,,,
5,5279, Note_on_c,3,52,0,,,,,,,,,,,,,,,,,,,,,,,
5,5280, Note_on_c,3,57,107,,,,,,,,,,,,,,,,,,,,,,,
5,5288, Note_on_c,3,64,0,,,,,,,,,,,,,,,,,,,,,,,
5,5306, Note_on_c,3,69,0,,,,,,,,,,,,,,,,,,,,,,,
5,5328, Note_on_c,3,52,107,,,,,,,,,,,,,,,,,,,,,,,
5,5328, Note_on_c,3,61,103,,,,,,,,,,,,,,,,,,,,,,,
5,5337, Note_on_c,3,57,0,,,,,,,,,,,,,,,,,,,,,,,
5,5350, Note_on_c,3,52,0,,,,,,,,,,,,,,,,,,,,,,,
5,5357, Note_on_c,3,61,0,,,,,,,,,,,,,,,,,,,,,,,
5,5374, Control_c,3,64,0,,,,,,,,,,,,,,,,,,,,,,,
5,5376, Note_on_c,3,49,88,,,,,,,,,,,,,,,,,,,,,,,
5,5376, Note_on_c,3,52,127,,,,,,,,,,,,,,,,,,,,,,,
5,5376, Note_on_c,3,59,127,,,,,,,,,,,,,,,,,,,,,,,
5,5376, Note_on_c,3,64,127,,,,,,,,,,,,,,,,,,,,,,,
5,5376, Note_on_c,3,66,88,,,,,,,,,,,,,,,,,,,,,,,
5,5376, Note_on_c,3,69,118,,,,,,,,,,,,,,,,,,,,,,,
5,5379, Note_on_c,3,66,0,,,,,,,,,,,,,,,,,,,,,,,
5,5380, Note_on_c,3,49,0,,,,,,,,,,,,,,,,,,,,,,,
5,5400, Control_c,3,64,127,,,,,,,,,,,,,,,,,,,,,,,
5,5442, Note_on_c,3,59,0,,,,,,,,,,,,,,,,,,,,,,,
5,5452, Note_on_c,3,64,0,,,,,,,,,,,,,,,,,,,,,,,
5,5462, Note_on_c,3,69,0,,,,,,,,,,,,,,,,,,,,,,,
5,5470, Note_on_c,3,52,0,,,,,,,,,,,,,,,,,,,,,,,
5,5472, Note_on_c,3,59,88,,,,,,,,,,,,,,,,,,,,,,,
5,5472, Note_on_c,3,64,98,,,,,,,,,,,,,,,,,,,,,,,
5,5472, Note_on_c,3,69,73,,,,,,,,,,,,,,,,,,,,,,,
5,5491, Note_on_c,3,64,0,,,,,,,,,,,,,,,,,,,,,,,
5,5494, Note_on_c,3,59,0,,,,,,,,,,,,,,,,,,,,,,,
5,5498, Note_on_c,3,69,0,,,,,,,,,,,,,,,,,,,,,,,
5,5520, Note_on_c,3,52,93,,,,,,,,,,,,,,,,,,,,,,,
5,5520, Note_on_c,3,59,85,,,,,,,,,,,,,,,,,,,,,,,
5,5520, Note_on_c,3,64,114,,,,,,,,,,,,,,,,,,,,,,,
5,5520, Note_on_c,3,69,76,,,,,,,,,,,,,,,,,,,,,,,
5,5533, Note_on_c,3,69,0,,,,,,,,,,,,,,,,,,,,,,,
5,5537, Note_on_c,3,59,0,,,,,,,,,,,,,,,,,,,,,,,
5,5541, Note_on_c,3,64,0,,,,,,,,,,,,,,,,,,,,,,,
5,5544, Note_on_c,3,52,0,,,,,,,,,,,,,,,,,,,,,,,
5,5563, Control_c,3,64,0,,,,,,,,,,,,,,,,,,,,,,,
5,5568, Note_on_c,3,52,127,,,,,,,,,,,,,,,,,,,,,,,
5,5568, Note_on_c,3,59,127,,,,,,,,,,,,,,,,,,,,,,,
5,5568, Note_on_c,3,64,127,,,,,,,,,,,,,,,,,,,,,,,
5,5568, Note_on_c,3,69,118,,,,,,,,,,,,,,,,,,,,,,,
5,5581, Control_c,3,64,127,,,,,,,,,,,,,,,,,,,,,,,
5,5599, Note_on_c,3,59,0,,,,,,,,,,,,,,,,,,,,,,,
5,5613, Note_on_c,3,64,0,,,,,,,,,,,,,,,,,,,,,,,
5,5616, Note_on_c,3,59,88,,,,,,,,,,,,,,,,,,,,,,,
5,5643, Note_on_c,3,59,0,,,,,,,,,,,,,,,,,,,,,,,
5,5646, Note_on_c,3,69,0,,,,,,,,,,,,,,,,,,,,,,,
5,5647, Note_on_c,3,52,0,,,,,,,,,,,,,,,,,,,,,,,
5,5664, Note_on_c,3,64,118,,,,,,,,,,,,,,,,,,,,,,,
5,5688, Note_on_c,3,64,0,,,,,,,,,,,,,,,,,,,,,,,
5,5705, Control_c,3,64,0,,,,,,,,,,,,,,,,,,,,,,,
5,5712, Note_on_c,3,52,127,,,,,,,,,,,,,,,,,,,,,,,
5,5712, Note_on_c,3,59,127,,,,,,,,,,,,,,,,,,,,,,,
5,5712, Note_on_c,3,64,127,,,,,,,,,,,,,,,,,,,,,,,
5,5712, Note_on_c,3,66,103,,,,,,,,,,,,,,,,,,,,,,,
5,5712, Note_on_c,3,69,122,,,,,,,,,,,,,,,,,,,,,,,
5,5716, Note_on_c,3,66,0,,,,,,,,,,,,,,,,,,,,,,,
5,5731, Control_c,3,64,127,,,,,,,,,,,,,,,,,,,,,,,
5,5754, Note_on_c,3,59,0,,,,,,,,,,,,,,,,,,,,,,,
5,5760, Note_on_c,3,59,56,,,,,,,,,,,,,,,,,,,,,,,
5,5772, Note_on_c,3,59,0,,,,,,,,,,,,,,,,,,,,,,,
5,5774, Note_on_c,3,52,0,,,,,,,,,,,,,,,,,,,,,,,
5,5784, Note_on_c,3,64,0,,,,,,,,,,,,,,,,,,,,,,,
5,5794, Note_on_c,3,69,0,,,,,,,,,,,,,,,,,,,,,,,
5,5808, Note_on_c,3,47,85,,,,,,,,,,,,,,,,,,,,,,,
5,5808, Note_on_c,3,59,82,,,,,,,,,,,,,,,,,,,,,,,
5,5808, Note_on_c,3,63,99,,,,,,,,,,,,,,,,,,,,,,,
5,5808, Note_on_c,3,66,82,,,,,,,,,,,,,,,,,,,,,,,
5,5824, Note_on_c,3,63,0,,,,,,,,,,,,,,,,,,,,,,,
5,5827, Note_on_c,3,59,0,,,,,,,,,,,,,,,,,,,,,,,
5,5832, Note_on_c,3,47,0,,,,,,,,,,,,,,,,,,,,,,,
5,5832, Note_on_c,3,66,0,,,,,,,,,,,,,,,,,,,,,,,
5,5856, Note_on_c,3,47,127,,,,,,,,,,,,,,,,,,,,,,,
5,5856, Note_on_c,3,59,127,,,,,,,,,,,,,,,,,,,,,,,
5,5856, Note_on_c,3,63,127,,,,,,,,,,,,,,,,,,,,,,,
5,5856, Note_on_c,3,66,112,,,,,,,,,,,,,,,,,,,,,,,
5,5864, Control_c,3,64,0,,,,,,,,,,,,,,,,,,,,,,,
5,5886, Control_c,3,64,127,,,,,,,,,,,,,,,,,,,,,,,
5,5931, Note_on_c,3,63,0,,,,,,,,,,,,,,,,,,,,,,,
5,5933, Note_on_c,3,47,0,,,,,,,,,,,,,,,,,,,,,,,
5,5933, Note_on_c,3,59,0,,,,,,,,,,,,,,,,,,,,,,,
5,5936, Note_on_c,3,66,0,,,,,,,,,,,,,,,,,,,,,,,
5,5952, Note_on_c,3,47,127,,,,,,,,,,,,,,,,,,,,,,,
5,5952, Note_on_c,3,59,122,,,,,,,,,,,,,,,,,,,,,,,
5,5952, Note_on_c,3,63,127,,,,,,,,,,,,,,,,,,,,,,,
5,5952, Note_on_c,3,66,112,,,,,,,,,,,,,,,,,,,,,,,
5,6019, Note_on_c,3,63,0,,,,,,,,,,,,,,,,,,,,,,,
5,6024, Note_on_c,3,66,0,,,,,,,,,,,,,,,,,,,,,,,
5,6028, Note_on_c,3,47,0,,,,,,,,,,,,,,,,,,,,,,,
5,6029, Note_on_c,3,59,0,,,,,,,,,,,,,,,,,,,,,,,
5,6048, Note_on_c,3,47,104,,,,,,,,,,,,,,,,,,,,,,,
5,6048, Note_on_c,3,59,127,,,,,,,,,,,,,,,,,,,,,,,
5,6048, Note_on_c,3,63,127,,,,,,,,,,,,,,,,,,,,,,,
5,6048, Note_on_c,3,66,107,,,,,,,,,,,,,,,,,,,,,,,
5,6069, Note_on_c,3,59,0,,,,,,,,,,,,,,,,,,,,,,,
5,6077, Note_on_c,3,63,0,,,,,,,,,,,,,,,,,,,,,,,
5,6096, Note_on_c,3,47,0,,,,,,,,,,,,,,,,,,,,,,,
5,6096, Note_on_c,3,59,85,,,,,,,,,,,,,,,,,,,,,,,
5,6120, Note_on_c,3,59,0,,,,,,,,,,,,,,,,,,,,,,,
5,6123, Note_on_c,3,66,0,,,,,,,,,,,,,,,,,,,,,,,
5,6144, Note_on_c,3,54,127,,,,,,,,,,,,,,,,,,,,,,,
5,6144, Note_on_c,3,57,127,,,,,,,,,,,,,,,,,,,,,,,
5,6144, Note_on_c,3,59,122,,,,,,,,,,,,,,,,,,,,,,,
5,6144, Note_on_c,3,61,127,,,,,,,,,,,,,,,,,,,,,,,
5,6144, Note_on_c,3,66,112,,,,,,,,,,,,,,,,,,,,,,,
5,6144, Note_on_c,3,69,127,,,,,,,,,,,,,,,,,,,,,,,
5,6149, Control_c,3,64,0,,,,,,,,,,,,,,,,,,,,,,,
5,6179, Control_c,3,64,127,,,,,,,,,,,,,,,,,,,,,,,
5,6180, Note_on_c,3,59,0,,,,,,,,,,,,,,,,,,,,,,,
5,6202, Note_on_c,3,57,0,,,,,,,,,,,,,,,,,,,,,,,
5,6214, Note_on_c,3,61,0,,,,,,,,,,,,,,,,,,,,,,,
5,6217, Note_on_c,3,69,0,,,,,,,,,,,,,,,,,,,,,,,
5,6232, Note_on_c,3,54,0,,,,,,,,,,,,,,,,,,,,,,,
5,6240, Note_on_c,3,57,87,,,,,,,,,,,,,,,,,,,,,,,
5,6259, Note_on_c,3,66,0,,,,,,,,,,,,,,,,,,,,,,,
5,6269, Note_on_c,3,57,0,,,,,,,,,,,,,,,,,,,,,,,
5,6288, Note_on_c,3,54,88,,,,,,,,,,,,,,,,,,,,,,,
5,6288, Note_on_c,3,61,103,,,,,,,,,,,,,,,,,,,,,,,
5,6312, Note_on_c,3,54,0,,,,,,,,,,,,,,,,,,,,,,,
5,6314, Note_on_c,3,61,0,,,,,,,,,,,,,,,,,,,,,,,
5,6329, Control_c,3,64,0,,,,,,,,,,,,,,,,,,,,,,,
5,6336, Note_on_c,3,54,112,,,,,,,,,,,,,,,,,,,,,,,
5,6336, Note_on_c,3,57,122,,,,,,,,,,,,,,,,,,,,,,,
5,6336, Note_on_c,3,61,112,,,,,,,,,,,,,,,,,,,,,,,
5,6336, Note_on_c,3,66,107,,,,,,,,,,,,,,,,,,,,,,,
5,6336, Note_on_c,3,69,127,,,,,,,,,,,,,,,,,,,,,,,
5,6346, Control_c,3,64,127,,,,,,,,,,,,,,,,,,,,,,,
5,6380, Note_on_c,3,57,0,,,,,,,,,,,,,,,,,,,,,,,
5,6394, Note_on_c,3,61,0,,,,,,,,,,,,,,,,,,,,,,,
5,6415, Note_on_c,3,54,0,,,,,,,,,,,,,,,,,,,,,,,
5,6415, Note_on_c,3,69,0,,,,,,,,,,,,,,,,,,,,,,,
5,6420, Note_on_c,3,66,0,,,,,,,,,,,,,,,,,,,,,,,
5,6432, Note_on_c,3,57,93,,,,,,,,,,,,,,,,,,,,,,,
5,6432, Note_on_c,3,61,99,,,,,,,,,,,,,,,,,,,,,,,
5,6432, Note_on_c,3,66,57,,,,,,,,,,,,,,,,,,,,,,,
5,6432, Note_on_c,3,69,80,,,,,,,,,,,,,,,,,,,,,,,
5,6447, Note_on_c,3,69,0,,,,,,,,,,,,,,,,,,,,,,,
5,6448, Note_on_c,3,61,0,,,,,,,,,,,,,,,,,,,,,,,
5,6449, Note_on_c,3,66,0,,,,,,,,,,,,,,,,,,,,,,,
5,6455, Note_on_c,3,57,0,,,,,,,,,,,,,,,,,,,,,,,
5,6480, Note_on_c,3,54,112,,,,,,,,,,,,,,,,,,,,,,,
5,6480, Note_on_c,3,57,114,,,,,,,,,,,,,,,,,,,,,,,
5,6480, Note_on_c,3,61,112,,,,,,,,,,,,,,,,,,,,,,,
5,6480, Note_on_c,3,66,107,,,,,,,,,,,,,,,,,,,,,,,
5,6480, Note_on_c,3,69,127,,,,,,,,,,,,,,,,,,,,,,,
5,6487, Control_c,3,64,0,,,,,,,,,,,,,,,,,,,,,,,
5,6505, Control_c,3,64,127,,,,,,,,,,,,,,,,,,,,,,,
5,6514, Note_on_c,3,57,0,,,,,,,,,,,,,,,,,,,,,,,
5,6528, Note_on_c,3,57,80,,,,,,,,,,,,,,,,,,,,,,,
5,6538, Note_on_c,3,61,0,,,,,,,,,,,,,,,,,,,,,,,
5,6547, Note_on_c,3,54,0,,,,,,,,,,,,,,,,,,,,,,,
5,6547, Note_on_c,3,69,0,,,,,,,,,,,,,,,,,,,,,,,
5,6554, Note_on_c,3,57,0,,,,,,,,,,,,,,,,,,,,,,,
5,6561, Note_on_c,3,66,0,,,,,,,,,,,,,,,,,,,,,,,
5,6576, Note_on_c,3,52,110,,,,,,,,,,,,,,,,,,,,,,,
5,6576, Note_on_c,3,57,70,,,,,,,,,,,,,,,,,,,,,,,
5,6576, Note_on_c,3,61,99,,,,,,,,,,,,,,,,,,,,,,,
5,6576, Note_on_c,3,64,101,,,,,,,,,,,,,,,,,,,,,,,
5,6576, Note_on_c,3,69,74,,,,,,,,,,,,,,,,,,,,,,,
5,6587, Note_on_c,3,57,0,,,,,,,,,,,,,,,,,,,,,,,
5,6588, Note_on_c,3,69,0,,,,,,,,,,,,,,,,,,,,,,,
5,6594, Note_on_c,3,61,0,,,,,,,,,,,,,,,,,,,,,,,
5,6600, Note_on_c,3,64,0,,,,,,,,,,,,,,,,,,,,,,,
5,6602, Note_on_c,3,52,0,,,,,,,,,,,,,,,,,,,,,,,
5,6624, Note_on_c,3,52,127,,,,,,,,,,,,,,,,,,,,,,,
5,6624, Note_on_c,3,57,127,,,,,,,,,,,,,,,,,,,,,,,
5,6624, Note_on_c,3,61,127,,,,,,,,,,,,,,,,,,,,,,,
5,6624, Note_on_c,3,69,122,,,,,,,,,,,,,,,,,,,,,,,
5,6624, Control_c,3,64,0,,,,,,,,,,,,,,,,,,,,,,,
5,6624, Note_on_c,3,64,127,,,,,,,,,,,,,,,,,,,,,,,
5,6651, Control_c,3,64,127,,,,,,,,,,,,,,,,,,,,,,,
5,6695, Note_on_c,3,69,0,,,,,,,,,,,,,,,,,,,,,,,
5,6696, Note_on_c,3,57,0,,,,,,,,,,,,,,,,,,,,,,,
5,6696, Note_on_c,3,61,0,,,,,,,,,,,,,,,,,,,,,,,
5,6697, Note_on_c,3,52,0,,,,,,,,,,,,,,,,,,,,,,,
5,6699, Note_on_c,3,64,0,,,,,,,,,,,,,,,,,,,,,,,
5,6720, Note_on_c,3,52,122,,,,,,,,,,,,,,,,,,,,,,,
5,6720, Note_on_c,3,57,122,,,,,,,,,,,,,,,,,,,,,,,
5,6720, Note_on_c,3,61,127,,,,,,,,,,,,,,,,,,,,,,,
5,6720, Note_on_c,3,64,127,,,,,,,,,,,,,,,,,,,,,,,
5,6720, Note_on_c,3,69,110,,,,,,,,,,,,,,,,,,,,,,,
5,6734, Control_c,3,64,127,,,,,,,,,,,,,,,,,,,,,,,
5,6787, Note_on_c,3,61,0,,,,,,,,,,,,,,,,,,,,,,,
5,6796, Note_on_c,3,57,0,,,,,,,,,,,,,,,,,,,,,,,
5,6797, Note_on_c,3,64,0,,,,,,,,,,,,,,,,,,,,,,,
5,6802, Note_on_c,3,69,0,,,,,,,,,,,,,,,,,,,,,,,
5,6813, Note_on_c,3,52,0,,,,,,,,,,,,,,,,,,,,,,,
5,6816, Note_on_c,3,57,85,,,,,,,,,,,,,,,,,,,,,,,
5,6816, Note_on_c,3,61,99,,,,,,,,,,,,,,,,,,,,,,,
5,6816, Note_on_c,3,69,70,,,,,,,,,,,,,,,,,,,,,,,
5,6831, Note_on_c,3,61,0,,,,,,,,,,,,,,,,,,,,,,,
5,6834, Note_on_c,3,57,0,,,,,,,,,,,,,,,,,,,,,,,
5,6839, Note_on_c,3,69,0,,,,,,,,,,,,,,,,,,,,,,,
5,6864, Note_on_c,3,52,114,,,,,,,,,,,,,,,,,,,,,,,
5,6864, Note_on_c,3,64,104,,,,,,,,,,,,,,,,,,,,,,,
5,6881, Note_on_c,3,64,0,,,,,,,,,,,,,,,,,,,,,,,
5,6885, Note_on_c,3,52,0,,,,,,,,,,,,,,,,,,,,,,,
5,6912, Note_on_c,3,52,127,,,,,,,,,,,,,,,,,,,,,,,
5,6912, Note_on_c,3,59,127,,,,,,,,,,,,,,,,,,,,,,,
5,6912, Note_on_c,3,64,127,,,,,,,,,,,,,,,,,,,,,,,
5,6912, Note_on_c,3,69,114,,,,,,,,,,,,,,,,,,,,,,,
5,6914, Control_c,3,64,0,,,,,,,,,,,,,,,,,,,,,,,
5,6949, Control_c,3,64,127,,,,,,,,,,,,,,,,,,,,,,,
5,6982, Note_on_c,3,59,0,,,,,,,,,,,,,,,,,,,,,,,
5,6987, Note_on_c,3,64,0,,,,,,,,,,,,,,,,,,,,,,,
5,7005, Note_on_c,3,52,0,,,,,,,,,,,,,,,,,,,,,,,
5,7008, Note_on_c,3,59,91,,,,,,,,,,,,,,,,,,,,,,,
5,7008, Note_on_c,3,64,95,,,,,,,,,,,,,,,,,,,,,,,
5,7024, Note_on_c,3,64,0,,,,,,,,,,,,,,,,,,,,,,,
5,7027, Note_on_c,3,59,0,,,,,,,,,,,,,,,,,,,,,,,
5,7036, Note_on_c,3,69,0,,,,,,,,,,,,,,,,,,,,,,,
5,7056, Note_on_c,3,52,80,,,,,,,,,,,,,,,,,,,,,,,
5,7056, Note_on_c,3,59,80,,,,,,,,,,,,,,,,,,,,,,,
5,7056, Note_on_c,3,64,107,,,,,,,,,,,,,,,,,,,,,,,
5,7070, Note_on_c,3,59,0,,,,,,,,,,,,,,,,,,,,,,,
5,7073, Note_on_c,3,64,0,,,,,,,,,,,,,,,,,,,,,,,
5,7076, Note_on_c,3,52,0,,,,,,,,,,,,,,,,,,,,,,,
5,7104, Note_on_c,3,52,114,,,,,,,,,,,,,,,,,,,,,,,
5,7104, Note_on_c,3,59,122,,,,,,,,,,,,,,,,,,,,,,,
5,7104, Note_on_c,3,64,127,,,,,,,,,,,,,,,,,,,,,,,
5,7104, Note_on_c,3,69,118,,,,,,,,,,,,,,,,,,,,,,,
5,7127, Note_on_c,3,59,0,,,,,,,,,,,,,,,,,,,,,,,
5,7145, Note_on_c,3,64,0,,,,,,,,,,,,,,,,,,,,,,,
5,7152, Note_on_c,3,59,88,,,,,,,,,,,,,,,,,,,,,,,
5,7173, Note_on_c,3,69,0,,,,,,,,,,,,,,,,,,,,,,,
5,7178, Note_on_c,3,59,0,,,,,,,,,,,,,,,,,,,,,,,
5,7179, Note_on_c,3,52,0,,,,,,,,,,,,,,,,,,,,,,,
5,7200, Note_on_c,3,64,114,,,,,,,,,,,,,,,,,,,,,,,
5,7221, Note_on_c,3,64,0,,,,,,,,,,,,,,,,,,,,,,,
5,7248, Note_on_c,3,52,122,,,,,,,,,,,,,,,,,,,,,,,
5,7248, Note_on_c,3,59,122,,,,,,,,,,,,,,,,,,,,,,,
5,7248, Note_on_c,3,64,127,,,,,,,,,,,,,,,,,,,,,,,
5,7248, Note_on_c,3,66,95,,,,,,,,,,,,,,,,,,,,,,,
5,7248, Note_on_c,3,69,122,,,,,,,,,,,,,,,,,,,,,,,
5,7252, Note_on_c,3,66,0,,,,,,,,,,,,,,,,,,,,,,,
5,7278, Note_on_c,3,59,0,,,,,,,,,,,,,,,,,,,,,,,
5,7296, Note_on_c,3,59,74,,,,,,,,,,,,,,,,,,,,,,,
5,7304, Note_on_c,3,52,0,,,,,,,,,,,,,,,,,,,,,,,
5,7310, Note_on_c,3,64,0,,,,,,,,,,,,,,,,,,,,,,,
5,7321, Note_on_c,3,59,0,,,,,,,,,,,,,,,,,,,,,,,
5,7323, Note_on_c,3,69,0,,,,,,,,,,,,,,,,,,,,,,,
5,7334, Control_c,3,64,0,,,,,,,,,,,,,,,,,,,,,,,
5,7344, Note_on_c,3,47,118,,,,,,,,,,,,,,,,,,,,,,,
5,7344, Note_on_c,3,59,118,,,,,,,,,,,,,,,,,,,,,,,
5,7344, Note_on_c,3,63,127,,,,,,,,,,,,,,,,,,,,,,,
5,7344, Note_on_c,3,66,107,,,,,,,,,,,,,,,,,,,,,,,
5,7357, Control_c,3,64,127,,,,,,,,,,,,,,,,,,,,,,,
5,7373, Note_on_c,3,59,0,,,,,,,,,,,,,,,,,,,,,,,
5,7392, Note_on_c,3,59,85,,,,,,,,,,,,,,,,,,,,,,,
5,7403, Note_on_c,3,63,0,,,,,,,,,,,,,,,,,,,,,,,
5,7414, Note_on_c,3,66,0,,,,,,,,,,,,,,,,,,,,,,,
5,7417, Note_on_c,3,59,0,,,,,,,,,,,,,,,,,,,,,,,
5,7420, Note_on_c,3,47,0,,,,,,,,,,,,,,,,,,,,,,,
5,7440, Note_on_c,3,47,122,,,,,,,,,,,,,,,,,,,,,,,
5,7440, Note_on_c,3,59,122,,,,,,,,,,,,,,,,,,,,,,,
5,7440, Note_on_c,3,63,127,,,,,,,,,,,,,,,,,,,,,,,
5,7440, Note_on_c,3,66,107,,,,,,,,,,,,,,,,,,,,,,,
5,7496, Note_on_c,3,59,0,,,,,,,,,,,,,,,,,,,,,,,
5,7512, Note_on_c,3,63,0,,,,,,,,,,,,,,,,,,,,,,,
5,7517, Note_on_c,3,66,0,,,,,,,,,,,,,,,,,,,,,,,
5,7519, Note_on_c,3,47,0,,,,,,,,,,,,,,,,,,,,,,,
5,7536, Note_on_c,3,47,122,,,,,,,,,,,,,,,,,,,,,,,
5,7536, Note_on_c,3,57,101,,,,,,,,,,,,,,,,,,,,,,,
5,7536, Note_on_c,3,64,104,,,,,,,,,,,,,,,,,,,,,,,
5,7536, Note_on_c,3,66,82,,,,,,,,,,,,,,,,,,,,,,,
5,7554, Note_on_c,3,66,0,,,,,,,,,,,,,,,,,,,,,,,
5,7560, Note_on_c,3,57,0,,,,,,,,,,,,,,,,,,,,,,,
5,7563, Note_on_c,3,47,0,,,,,,,,,,,,,,,,,,,,,,,
5,7565, Note_on_c,3,64,0,,,,,,,,,,,,,,,,,,,,,,,
5,7584, Note_on_c,3,47,118,,,,,,,,,,,,,,,,,,,,,,,
5,7584, Note_on_c,3,59,114,,,,,,,,,,,,,,,,,,,,,,,
5,7584, Note_on_c,3,64,118,,,,,,,,,,,,,,,,,,,,,,,
5,7584, Note_on_c,3,66,107,,,,,,,,,,,,,,,,,,,,,,,
5,7595, Note_on_c,3,64,0,,,,,,,,,,,,,,,,,,,,,,,
5,7646, Note_on_c,3,47,0,,,,,,,,,,,,,,,,,,,,,,,
5,7653, Note_on_c,3,59,0,,,,,,,,,,,,,,,,,,,,,,,
5,7655, Note_on_c,3,66,0,,,,,,,,,,,,,,,,,,,,,,,
5,7664, Control_c,3,64,0,,,,,,,,,,,,,,,,,,,,,,,
5,7680, Note_on_c,3,54,127,,,,,,,,,,,,,,,,,,,,,,,
5,7680, Note_on_c,3,57,118,,,,,,,,,,,,,,,,,,,,,,,
5,7680, Note_on_c,3,61,127,,,,,,,,,,,,,,,,,,,,,,,
5,7680, Note_on_c,3,66,127,,,,,,,,,,,,,,,,,,,,,,,
5,7680, Note_on_c,3,69,122,,,,,,,,,,,,,,,,,,,,,,,
5,7687, Control_c,3,64,127,,,,,,,,,,,,,,,,,,,,,,,
5,7739, Note_on_c,3,57,0,,,,,,,,,,,,,,,,,,,,,,,
5,7743, Note_on_c,3,61,0,,,,,,,,,,,,,,,,,,,,,,,
5,7771, Note_on_c,3,54,0,,,,,,,,,,,,,,,,,,,,,,,
5,7776, Note_on_c,3,57,98,,,,,,,,,,,,,,,,,,,,,,,
5,7776, Note_on_c,3,61,59,,,,,,,,,,,,,,,,,,,,,,,
5,7786, Note_on_c,3,69,0,,,,,,,,,,,,,,,,,,,,,,,
5,7787, Note_on_c,3,66,0,,,,,,,,,,,,,,,,,,,,,,,
5,7792, Note_on_c,3,61,0,,,,,,,,,,,,,,,,,,,,,,,
5,7797, Note_on_c,3,57,0,,,,,,,,,,,,,,,,,,,,,,,
5,7824, Note_on_c,3,54,107,,,,,,,,,,,,,,,,,,,,,,,
5,7824, Note_on_c,3,57,66,,,,,,,,,,,,,,,,,,,,,,,
5,7824, Note_on_c,3,61,99,,,,,,,,,,,,,,,,,,,,,,,
5,7824, Note_on_c,3,66,80,,,,,,,,,,,,,,,,,,,,,,,
5,7833, Note_on_c,3,66,0,,,,,,,,,,,,,,,,,,,,,,,
5,7834, Note_on_c,3,57,0,,,,,,,,,,,,,,,,,,,,,,,
5,7840, Note_on_c,3,61,0,,,,,,,,,,,,,,,,,,,,,,,
5,7842, Note_on_c,3,54,0,,,,,,,,,,,,,,,,,,,,,,,
5,7872, Note_on_c,3,54,112,,,,,,,,,,,,,,,,,,,,,,,
5,7872, Note_on_c,3,57,122,,,,,,,,,,,,,,,,,,,,,,,
5,7872, Note_on_c,3,61,127,,,,,,,,,,,,,,,,,,,,,,,
5,7872, Note_on_c,3,66,127,,,,,,,,,,,,,,,,,,,,,,,
5,7872, Note_on_c,3,69,127,,,,,,,,,,,,,,,,,,,,,,,
5,7893, Note_on_c,3,57,0,,,,,,,,,,,,,,,,,,,,,,,
5,7906, Note_on_c,3,61,0,,,,,,,,,,,,,,,,,,,,,,,
5,7920, Note_on_c,3,57,87,,,,,,,,,,,,,,,,,,,,,,,
5,7930, Note_on_c,3,69,0,,,,,,,,,,,,,,,,,,,,,,,
5,7935, Note_on_c,3,66,0,,,,,,,,,,,,,,,,,,,,,,,
5,7947, Note_on_c,3,54,0,,,,,,,,,,,,,,,,,,,,,,,
5,7947, Note_on_c,3,57,0,,,,,,,,,,,,,,,,,,,,,,,
5,7968, Note_on_c,3,61,99,,,,,,,,,,,,,,,,,,,,,,,
5,7968, Note_on_c,3,66,74,,,,,,,,,,,,,,,,,,,,,,,
5,7984, Note_on_c,3,61,0,,,,,,,,,,,,,,,,,,,,,,,
5,7985, Note_on_c,3,66,0,,,,,,,,,,,,,,,,,,,,,,,
5,8016, Note_on_c,3,54,107,,,,,,,,,,,,,,,,,,,,,,,
5,8016, Note_on_c,3,57,127,,,,,,,,,,,,,,,,,,,,,,,
5,8016, Note_on_c,3,61,127,,,,,,,,,,,,,,,,,,,,,,,
5,8016, Note_on_c,3,69,122,,,,,,,,,,,,,,,,,,,,,,,
5,8016, Control_c,3,64,0,,,,,,,,,,,,,,,,,,,,,,,
5,8016, Note_on_c,3,66,112,,,,,,,,,,,,,,,,,,,,,,,
5,8036, Note_on_c,3,57,0,,,,,,,,,,,,,,,,,,,,,,,
5,8042, Control_c,3,64,127,,,,,,,,,,,,,,,,,,,,,,,
5,8064, Note_on_c,3,57,88,,,,,,,,,,,,,,,,,,,,,,,
5,8073, Note_on_c,3,61,0,,,,,,,,,,,,,,,,,,,,,,,
5,8076, Note_on_c,3,69,0,,,,,,,,,,,,,,,,,,,,,,,
5,8078, Note_on_c,3,54,0,,,,,,,,,,,,,,,,,,,,,,,
5,8086, Note_on_c,3,66,0,,,,,,,,,,,,,,,,,,,,,,,
5,8089, Note_on_c,3,57,0,,,,,,,,,,,,,,,,,,,,,,,
5,8112, Note_on_c,3,52,95,,,,,,,,,,,,,,,,,,,,,,,
5,8112, Note_on_c,3,61,92,,,,,,,,,,,,,,,,,,,,,,,
5,8112, Note_on_c,3,64,101,,,,,,,,,,,,,,,,,,,,,,,
5,8112, Note_on_c,3,69,85,,,,,,,,,,,,,,,,,,,,,,,
5,8131, Note_on_c,3,61,0,,,,,,,,,,,,,,,,,,,,,,,
5,8136, Note_on_c,3,52,0,,,,,,,,,,,,,,,,,,,,,,,
5,8138, Note_on_c,3,69,0,,,,,,,,,,,,,,,,,,,,,,,
5,8139, Note_on_c,3,64,0,,,,,,,,,,,,,,,,,,,,,,,
5,8157, Control_c,3,64,0,,,,,,,,,,,,,,,,,,,,,,,
5,8160, Note_on_c,3,52,127,,,,,,,,,,,,,,,,,,,,,,,
5,8160, Note_on_c,3,57,114,,,,,,,,,,,,,,,,,,,,,,,
5,8160, Note_on_c,3,61,112,,,,,,,,,,,,,,,,,,,,,,,
5,8160, Note_on_c,3,64,127,,,,,,,,,,,,,,,,,,,,,,,
5,8160, Note_on_c,3,69,118,,,,,,,,,,,,,,,,,,,,,,,
5,8183, Control_c,3,64,127,,,,,,,,,,,,,,,,,,,,,,,
5,8232, Note_on_c,3,52,0,,,,,,,,,,,,,,,,,,,,,,,
5,8236, Note_on_c,3,61,0,,,,,,,,,,,,,,,,,,,,,,,
5,8239, Note_on_c,3,57,0,,,,,,,,,,,,,,,,,,,,,,,
5,8240, Note_on_c,3,64,0,,,,,,,,,,,,,,,,,,,,,,,
5,8240, Note_on_c,3,69,0,,,,,,,,,,,,,,,,,,,,,,,
5,8254, Control_c,3,64,0,,,,,,,,,,,,,,,,,,,,,,,
5,8256, Note_on_c,3,52,127,,,,,,,,,,,,,,,,,,,,,,,
5,8256, Note_on_c,3,57,122,,,,,,,,,,,,,,,,,,,,,,,
5,8256, Note_on_c,3,61,127,,,,,,,,,,,,,,,,,,,,,,,
5,8256, Note_on_c,3,64,127,,,,,,,,,,,,,,,,,,,,,,,
5,8256, Note_on_c,3,69,118,,,,,,,,,,,,,,,,,,,,,,,
5,8272, Control_c,3,64,127,,,,,,,,,,,,,,,,,,,,,,,
5,8311, Note_on_c,3,61,0,,,,,,,,,,,,,,,,,,,,,,,
5,8321, Note_on_c,3,64,0,,,,,,,,,,,,,,,,,,,,,,,
5,8331, Note_on_c,3,69,0,,,,,,,,,,,,,,,,,,,,,,,
5,8332, Note_on_c,3,57,0,,,,,,,,,,,,,,,,,,,,,,,
5,8344, Note_on_c,3,52,0,,,,,,,,,,,,,,,,,,,,,,,
5,8352, Note_on_c,3,57,76,,,,,,,,,,,,,,,,,,,,,,,
5,8352, Note_on_c,3,61,99,,,,,,,,,,,,,,,,,,,,,,,
5,8367, Note_on_c,3,57,0,,,,,,,,,,,,,,,,,,,,,,,
5,8368, Note_on_c,3,61,0,,,,,,,,,,,,,,,,,,,,,,,
5,8400, Note_on_c,3,52,114,,,,,,,,,,,,,,,,,,,,,,,
5,8400, Note_on_c,3,61,95,,,,,,,,,,,,,,,,,,,,,,,
5,8419, Note_on_c,3,61,0,,,,,,,,,,,,,,,,,,,,,,,
5,8420, Note_on_c,3,52,0,,,,,,,,,,,,,,,,,,,,,,,
5,8444, Control_c,3,64,0,,,,,,,,,,,,,,,,,,,,,,,
5,8448, Note_on_c,3,52,127,,,,,,,,,,,,,,,,,,,,,,,
5,8448, Note_on_c,3,59,127,,,,,,,,,,,,,,,,,,,,,,,
5,8448, Note_on_c,3,64,127,,,,,,,,,,,,,,,,,,,,,,,
5,8448, Note_on_c,3,69,114,,,,,,,,,,,,,,,,,,,,,,,
5,8474, Control_c,3,64,127,,,,,,,,,,,,,,,,,,,,,,,
5,8511, Note_on_c,3,59,0,,,,,,,,,,,,,,,,,,,,,,,
5,8518, Note_on_c,3,69,0,,,,,,,,,,,,,,,,,,,,,,,
5,8520, Note_on_c,3,64,0,,,,,,,,,,,,,,,,,,,,,,,
5,8544, Note_on_c,3,59,85,,,,,,,,,,,,,,,,,,,,,,,
5,8544, Note_on_c,3,64,87,,,,,,,,,,,,,,,,,,,,,,,
5,8544, Note_on_c,3,69,55,,,,,,,,,,,,,,,,,,,,,,,
5,8551, Note_on_c,3,52,0,,,,,,,,,,,,,,,,,,,,,,,
5,8560, Note_on_c,3,59,0,,,,,,,,,,,,,,,,,,,,,,,
5,8560, Note_on_c,3,69,0,,,,,,,,,,,,,,,,,,,,,,,
5,8561, Note_on_c,3,64,0,,,,,,,,,,,,,,,,,,,,,,,
5,8592, Note_on_c,3,52,93,,,,,,,,,,,,,,,,,,,,,,,
5,8592, Note_on_c,3,59,73,,,,,,,,,,,,,,,,,,,,,,,
5,8592, Note_on_c,3,64,104,,,,,,,,,,,,,,,,,,,,,,,
5,8592, Note_on_c,3,69,66,,,,,,,,,,,,,,,,,,,,,,,
5,8600, Note_on_c,3,69,0,,,,,,,,,,,,,,,,,,,,,,,
5,8605, Note_on_c,3,59,0,,,,,,,,,,,,,,,,,,,,,,,
5,8607, Note_on_c,3,64,0,,,,,,,,,,,,,,,,,,,,,,,
5,8613, Note_on_c,3,52,0,,,,,,,,,,,,,,,,,,,,,,,
5,8640, Note_on_c,3,52,127,,,,,,,,,,,,,,,,,,,,,,,
5,8640, Note_on_c,3,59,122,,,,,,,,,,,,,,,,,,,,,,,
5,8640, Note_on_c,3,64,127,,,,,,,,,,,,,,,,,,,,,,,
5,8640, Note_on_c,3,69,122,,,,,,,,,,,,,,,,,,,,,,,
5,8662, Note_on_c,3,59,0,,,,,,,,,,,,,,,,,,,,,,,
5,8678, Note_on_c,3,64,0,,,,,,,,,,,,,,,,,,,,,,,
5,8688, Note_on_c,3,59,91,,,,,,,,,,,,,,,,,,,,,,,
5,8709, Note_on_c,3,52,0,,,,,,,,,,,,,,,,,,,,,,,
5,8710, Note_on_c,3,59,0,,,,,,,,,,,,,,,,,,,,,,,
5,8715, Note_on_c,3,69,0,,,,,,,,,,,,,,,,,,,,,,,
5,8736, Note_on_c,3,64,110,,,,,,,,,,,,,,,,,,,,,,,
5,8755, Note_on_c,3,64,0,,,,,,,,,,,,,,,,,,,,,,,
5,8775, Control_c,3,64,0,,,,,,,,,,,,,,,,,,,,,,,
5,8784, Note_on_c,3,52,127,,,,,,,,,,,,,,,,,,,,,,,
5,8784, Note_on_c,3,59,122,,,,,,,,,,,,,,,,,,,,,,,
5,8784, Note_on_c,3,64,127,,,,,,,,,,,,,,,,,,,,,,,
5,8784, Note_on_c,3,69,118,,,,,,,,,,,,,,,,,,,,,,,
5,8801, Control_c,3,64,127,,,,,,,,,,,,,,,,,,,,,,,
5,8841, Note_on_c,3,52,0,,,,,,,,,,,,,,,,,,,,,,,
5,8844, Note_on_c,3,64,0,,,,,,,,,,,,,,,,,,,,,,,
5,8859, Note_on_c,3,59,0,,,,,,,,,,,,,,,,,,,,,,,
5,8864, Note_on_c,3,69,0,,,,,,,,,,,,,,,,,,,,,,,
5,8880, Note_on_c,3,47,101,,,,,,,,,,,,,,,,,,,,,,,
5,8880, Note_on_c,3,59,85,,,,,,,,,,,,,,,,,,,,,,,
5,8880, Note_on_c,3,63,107,,,,,,,,,,,,,,,,,,,,,,,
5,8880, Note_on_c,3,66,99,,,,,,,,,,,,,,,,,,,,,,,
5,8895, Note_on_c,3,63,0,,,,,,,,,,,,,,,,,,,,,,,
5,8898, Control_c,3,64,127,,,,,,,,,,,,,,,,,,,,,,,
5,8901, Note_on_c,3,59,0,,,,,,,,,,,,,,,,,,,,,,,
5,8902, Note_on_c,3,66,0,,,,,,,,,,,,,,,,,,,,,,,
5,8909, Note_on_c,3,47,0,,,,,,,,,,,,,,,,,,,,,,,
5,8928, Note_on_c,3,47,127,,,,,,,,,,,,,,,,,,,,,,,
5,8928, Note_on_c,3,59,118,,,,,,,,,,,,,,,,,,,,,,,
5,8928, Note_on_c,3,63,127,,,,,,,,,,,,,,,,,,,,,,,
5,8928, Note_on_c,3,66,103,,,,,,,,,,,,,,,,,,,,,,,
5,8999, Note_on_c,3,63,0,,,,,,,,,,,,,,,,,,,,,,,
5,9004, Note_on_c,3,47,0,,,,,,,,,,,,,,,,,,,,,,,
5,9007, Note_on_c,3,59,0,,,,,,,,,,,,,,,,,,,,,,,
5,9007, Note_on_c,3,66,0,,,,,,,,,,,,,,,,,,,,,,,
5,9024, Note_on_c,3,47,127,,,,,,,,,,,,,,,,,,,,,,,
5,9024, Note_on_c,3,59,122,,,,,,,,,,,,,,,,,,,,,,,
5,9024, Note_on_c,3,63,127,,,,,,,,,,,,,,,,,,,,,,,
5,9024, Note_on_c,3,66,112,,,,,,,,,,,,,,,,,,,,,,,
5,9026, Control_c,3,64,0,,,,,,,,,,,,,,,,,,,,,,,
5,9043, Control_c,3,64,127,,,,,,,,,,,,,,,,,,,,,,,
5,9080, Note_on_c,3,63,0,,,,,,,,,,,,,,,,,,,,,,,
5,9090, Note_on_c,3,66,0,,,,,,,,,,,,,,,,,,,,,,,
5,9102, Note_on_c,3,59,0,,,,,,,,,,,,,,,,,,,,,,,
5,9104, Note_on_c,3,47,0,,,,,,,,,,,,,,,,,,,,,,,
5,9120, Note_on_c,3,59,98,,,,,,,,,,,,,,,,,,,,,,,
5,9120, Note_on_c,3,63,127,,,,,,,,,,,,,,,,,,,,,,,
5,9120, Note_on_c,3,66,107,,,,,,,,,,,,,,,,,,,,,,,
5,9141, Note_on_c,3,59,0,,,,,,,,,,,,,,,,,,,,,,,
5,9145, Note_on_c,3,63,0,,,,,,,,,,,,,,,,,,,,,,,
5,9161, Note_on_c,3,66,0,,,,,,,,,,,,,,,,,,,,,,,
5,9168, Note_on_c,3,47,85,,,,,,,,,,,,,,,,,,,,,,,
5,9168, Note_on_c,3,59,101,,,,,,,,,,,,,,,,,,,,,,,
5,9168, Note_on_c,3,66,46,,,,,,,,,,,,,,,,,,,,,,,
5,9178, Note_on_c,3,66,0,,,,,,,,,,,,,,,,,,,,,,,
5,9198, Note_on_c,3,47,0,,,,,,,,,,,,,,,,,,,,,,,
5,9198, Note_on_c,3,59,0,,,,,,,,,,,,,,,,,,,,,,,
5,9216, Note_on_c,3,54,112,,,,,,,,,,,,,,,,,,,,,,,
5,9216, Note_on_c,3,57,122,,,,,,,,,,,,,,,,,,,,,,,
5,9216, Note_on_c,3,61,127,,,,,,,,,,,,,,,,,,,,,,,
5,9216, Note_on_c,3,66,112,,,,,,,,,,,,,,,,,,,,,,,
5,9216, Note_on_c,3,69,127,,,,,,,,,,,,,,,,,,,,,,,
5,9218, Control_c,3,64,0,,,,,,,,,,,,,,,,,,,,,,,
5,9249, Control_c,3,64,127,,,,,,,,,,,,,,,,,,,,,,,
5,9285, Note_on_c,3,57,0,,,,,,,,,,,,,,,,,,,,,,,
5,9288, Note_on_c,3,61,0,,,,,,,,,,,,,,,,,,,,,,,
5,9311, Note_on_c,3,54,0,,,,,,,,,,,,,,,,,,,,,,,
5,9312, Note_on_c,3,57,70,,,,,,,,,,,,,,,,,,,,,,,
5,9331, Note_on_c,3,69,0,,,,,,,,,,,,,,,,,,,,,,,
5,9332, Note_on_c,3,66,0,,,,,,,,,,,,,,,,,,,,,,,
5,9341, Note_on_c,3,57,0,,,,,,,,,,,,,,,,,,,,,,,
5,9360, Note_on_c,3,54,61,,,,,,,,,,,,,,,,,,,,,,,
5,9360, Note_on_c,3,57,74,,,,,,,,,,,,,,,,,,,,,,,
5,9360, Note_on_c,3,61,88,,,,,,,,,,,,,,,,,,,,,,,
5,9360, Note_on_c,3,66,74,,,,,,,,,,,,,,,,,,,,,,,
5,9360, Note_on_c,3,69,95,,,,,,,,,,,,,,,,,,,,,,,
5,9378, Note_on_c,3,54,0,,,,,,,,,,,,,,,,,,,,,,,
5,9378, Note_on_c,3,61,0,,,,,,,,,,,,,,,,,,,,,,,
5,9381, Note_on_c,3,69,0,,,,,,,,,,,,,,,,,,,,,,,
5,9385, Note_on_c,3,57,0,,,,,,,,,,,,,,,,,,,,,,,
5,9386, Note_on_c,3,66,0,,,,,,,,,,,,,,,,,,,,,,,
5,9408, Note_on_c,3,54,112,,,,,,,,,,,,,,,,,,,,,,,
5,9408, Note_on_c,3,57,101,,,,,,,,,,,,,,,,,,,,,,,
5,9408, Note_on_c,3,61,112,,,,,,,,,,,,,,,,,,,,,,,
5,9408, Note_on_c,3,66,112,,,,,,,,,,,,,,,,,,,,,,,
5,9408, Note_on_c,3,69,127,,,,,,,,,,,,,,,,,,,,,,,
5,9430, Note_on_c,3,57,0,,,,,,,,,,,,,,,,,,,,,,,
5,9441, Note_on_c,3,61,0,,,,,,,,,,,,,,,,,,,,,,,
5,9456, Note_on_c,3,57,73,,,,,,,,,,,,,,,,,,,,,,,
5,9456, Note_on_c,3,69,0,,,,,,,,,,,,,,,,,,,,,,,
5,9461, Note_on_c,3,54,0,,,,,,,,,,,,,,,,,,,,,,,
5,9477, Note_on_c,3,66,0,,,,,,,,,,,,,,,,,,,,,,,
5,9491, Note_on_c,3,57,0,,,,,,,,,,,,,,,,,,,,,,,
5,9504, Note_on_c,3,57,78,,,,,,,,,,,,,,,,,,,,,,,
5,9504, Note_on_c,3,61,95,,,,,,,,,,,,,,,,,,,,,,,
5,9504, Note_on_c,3,66,78,,,,,,,,,,,,,,,,,,,,,,,
5,9504, Note_on_c,3,69,88,,,,,,,,,,,,,,,,,,,,,,,
5,9520, Note_on_c,3,61,0,,,,,,,,,,,,,,,,,,,,,,,
5,9525, Note_on_c,3,57,0,,,,,,,,,,,,,,,,,,,,,,,
5,9525, Note_on_c,3,69,0,,,,,,,,,,,,,,,,,,,,,,,
5,9526, Note_on_c,3,66,0,,,,,,,,,,,,,,,,,,,,,,,
5,9552, Note_on_c,3,54,112,,,,,,,,,,,,,,,,,,,,,,,
5,9552, Note_on_c,3,57,118,,,,,,,,,,,,,,,,,,,,,,,
5,9552, Note_on_c,3,61,127,,,,,,,,,,,,,,,,,,,,,,,
5,9552, Note_on_c,3,66,112,,,,,,,,,,,,,,,,,,,,,,,
5,9552, Note_on_c,3,69,122,,,,,,,,,,,,,,,,,,,,,,,
5,9575, Control_c,3,64,127,,,,,,,,,,,,,,,,,,,,,,,
5,9597, Note_on_c,3,61,0,,,,,,,,,,,,,,,,,,,,,,,
5,9615, Note_on_c,3,69,0,,,,,,,,,,,,,,,,,,,,,,,
5,9616, Note_on_c,3,54,0,,,,,,,,,,,,,,,,,,,,,,,
5,9621, Note_on_c,3,66,0,,,,,,,,,,,,,,,,,,,,,,,
5,9624, Note_on_c,3,57,0,,,,,,,,,,,,,,,,,,,,,,,
5,9648, Note_on_c,3,52,122,,,,,,,,,,,,,,,,,,,,,,,
5,9648, Note_on_c,3,57,114,,,,,,,,,,,,,,,,,,,,,,,
5,9648, Note_on_c,3,61,107,,,,,,,,,,,,,,,,,,,,,,,
5,9648, Note_on_c,3,64,127,,,,,,,,,,,,,,,,,,,,,,,
5,9648, Note_on_c,3,69,104,,,,,,,,,,,,,,,,,,,,,,,
5,9659, Control_c,3,64,0,,,,,,,,,,,,,,,,,,,,,,,
5,9667, Note_on_c,3,57,0,,,,,,,,,,,,,,,,,,,,,,,
5,9677, Control_c,3,64,127,,,,,,,,,,,,,,,,,,,,,,,
5,9680, Note_on_c,3,61,0,,,,,,,,,,,,,,,,,,,,,,,
5,9683, Note_on_c,3,52,0,,,,,,,,,,,,,,,,,,,,,,,
5,9683, Note_on_c,3,64,0,,,,,,,,,,,,,,,,,,,,,,,
5,9690, Note_on_c,3,69,0,,,,,,,,,,,,,,,,,,,,,,,
5,9696, Note_on_c,3,52,127,,,,,,,,,,,,,,,,,,,,,,,
5,9696, Note_on_c,3,57,114,,,,,,,,,,,,,,,,,,,,,,,
5,9696, Note_on_c,3,61,112,,,,,,,,,,,,,,,,,,,,,,,
5,9696, Note_on_c,3,64,122,,,,,,,,,,,,,,,,,,,,,,,
5,9696, Note_on_c,3,69,83,,,,,,,,,,,,,,,,,,,,,,,
5,9769, Note_on_c,3,52,0,,,,,,,,,,,,,,,,,,,,,,,
5,9769, Note_on_c,3,61,0,,,,,,,,,,,,,,,,,,,,,,,
5,9772, Note_on_c,3,69,0,,,,,,,,,,,,,,,,,,,,,,,
5,9775, Note_on_c,3,64,0,,,,,,,,,,,,,,,,,,,,,,,
5,9782, Note_on_c,3,57,0,,,,,,,,,,,,,,,,,,,,,,,
5,9792, Note_on_c,3,52,122,,,,,,,,,,,,,,,,,,,,,,,
5,9792, Note_on_c,3,57,98,,,,,,,,,,,,,,,,,,,,,,,
5,9792, Note_on_c,3,61,127,,,,,,,,,,,,,,,,,,,,,,,
5,9792, Note_on_c,3,64,127,,,,,,,,,,,,,,,,,,,,,,,
5,9792, Note_on_c,3,69,118,,,,,,,,,,,,,,,,,,,,,,,
5,9799, Control_c,3,64,0,,,,,,,,,,,,,,,,,,,,,,,
5,9813, Note_on_c,3,57,0,,,,,,,,,,,,,,,,,,,,,,,
5,9817, Control_c,3,64,127,,,,,,,,,,,,,,,,,,,,,,,
5,9840, Note_on_c,3,57,76,,,,,,,,,,,,,,,,,,,,,,,
5,9841, Note_on_c,3,61,0,,,,,,,,,,,,,,,,,,,,,,,
5,9852, Note_on_c,3,64,0,,,,,,,,,,,,,,,,,,,,,,,
5,9861, Note_on_c,3,69,0,,,,,,,,,,,,,,,,,,,,,,,
5,9882, Note_on_c,3,57,0,,,,,,,,,,,,,,,,,,,,,,,
5,9884, Note_on_c,3,52,0,,,,,,,,,,,,,,,,,,,,,,,
5,9888, Note_on_c,3,57,80,,,,,,,,,,,,,,,,,,,,,,,
5,9888, Note_on_c,3,61,95,,,,,,,,,,,,,,,,,,,,,,,
5,9888, Note_on_c,3,64,93,,,,,,,,,,,,,,,,,,,,,,,
5,9888, Note_on_c,3,69,93,,,,,,,,,,,,,,,,,,,,,,,
5,9905, Note_on_c,3,61,0,,,,,,,,,,,,,,,,,,,,,,,
5,9906, Note_on_c,3,57,0,,,,,,,,,,,,,,,,,,,,,,,
5,9907, Note_on_c,3,64,0,,,,,,,,,,,,,,,,,,,,,,,
5,9936, Note_on_c,3,52,110,,,,,,,,,,,,,,,,,,,,,,,
5,9936, Note_on_c,3,57,67,,,,,,,,,,,,,,,,,,,,,,,
5,9936, Note_on_c,3,64,93,,,,,,,,,,,,,,,,,,,,,,,
5,9949, Note_on_c,3,64,0,,,,,,,,,,,,,,,,,,,,,,,
5,9958, Note_on_c,3,52,0,,,,,,,,,,,,,,,,,,,,,,,
5,9958, Note_on_c,3,57,0,,,,,,,,,,,,,,,,,,,,,,,
5,9960, Note_on_c,3,69,0,,,,,,,,,,,,,,,,,,,,,,,
5,9984, Note_on_c,3,52,127,,,,,,,,,,,,,,,,,,,,,,,
5,9984, Note_on_c,3,59,122,,,,,,,,,,,,,,,,,,,,,,,
5,9984, Note_on_c,3,64,127,,,,,,,,,,,,,,,,,,,,,,,
5,9984, Note_on_c,3,69,118,,,,,,,,,,,,,,,,,,,,,,,
5,9986, Control_c,3,64,0,,,,,,,,,,,,,,,,,,,,,,,
5,10012, Control_c,3,64,127,,,,,,,,,,,,,,,,,,,,,,,
5,10051, Note_on_c,3,59,0,,,,,,,,,,,,,,,,,,,,,,,
5,10058, Note_on_c,3,64,0,,,,,,,,,,,,,,,,,,,,,,,
5,10064, Note_on_c,3,69,0,,,,,,,,,,,,,,,,,,,,,,,
5,10077, Note_on_c,3,52,0,,,,,,,,,,,,,,,,,,,,,,,
5,10080, Note_on_c,3,59,85,,,,,,,,,,,,,,,,,,,,,,,
5,10080, Note_on_c,3,64,93,,,,,,,,,,,,,,,,,,,,,,,
5,10080, Note_on_c,3,69,80,,,,,,,,,,,,,,,,,,,,,,,
5,10094, Note_on_c,3,64,0,,,,,,,,,,,,,,,,,,,,,,,
5,10097, Note_on_c,3,59,0,,,,,,,,,,,,,,,,,,,,,,,
5,10100, Note_on_c,3,69,0,,,,,,,,,,,,,,,,,,,,,,,
5,10128, Note_on_c,3,52,101,,,,,,,,,,,,,,,,,,,,,,,
5,10128, Note_on_c,3,59,95,,,,,,,,,,,,,,,,,,,,,,,
5,10128, Note_on_c,3,64,107,,,,,,,,,,,,,,,,,,,,,,,
5,10128, Note_on_c,3,69,73,,,,,,,,,,,,,,,,,,,,,,,
5,10144, Note_on_c,3,64,0,,,,,,,,,,,,,,,,,,,,,,,
5,10145, Note_on_c,3,59,0,,,,,,,,,,,,,,,,,,,,,,,
5,10146, Note_on_c,3,52,0,,,,,,,,,,,,,,,,,,,,,,,
5,10148, Note_on_c,3,69,0,,,,,,,,,,,,,,,,,,,,,,,
5,10176, Note_on_c,3,52,127,,,,,,,,,,,,,,,,,,,,,,,
5,10176, Note_on_c,3,59,127,,,,,,,,,,,,,,,,,,,,,,,
5,10176, Note_on_c,3,64,127,,,,,,,,,,,,,,,,,,,,,,,
5,10176, Note_on_c,3,69,122,,,,,,,,,,,,,,,,,,,,,,,
5,10196, Note_on_c,3,59,0,,,,,,,,,,,,,,,,,,,,,,,
5,10209, Note_on_c,3,64,0,,,,,,,,,,,,,,,,,,,,,,,
5,10223, Note_on_c,3,69,0,,,,,,,,,,,,,,,,,,,,,,,
5,10224, Note_on_c,3,59,88,,,,,,,,,,,,,,,,,,,,,,,
5,10224, Note_on_c,3,69,66,,,,,,,,,,,,,,,,,,,,,,,
5,10234, Note_on_c,3,69,0,,,,,,,,,,,,,,,,,,,,,,,
5,10237, Note_on_c,3,52,0,,,,,,,,,,,,,,,,,,,,,,,
5,10247, Note_on_c,3,59,0,,,,,,,,,,,,,,,,,,,,,,,
5,10272, Note_on_c,3,59,73,,,,,,,,,,,,,,,,,,,,,,,
5,10272, Note_on_c,3,64,110,,,,,,,,,,,,,,,,,,,,,,,
5,10285, Note_on_c,3,59,0,,,,,,,,,,,,,,,,,,,,,,,
5,10292, Note_on_c,3,64,0,,,,,,,,,,,,,,,,,,,,,,,
5,10318, Control_c,3,64,0,,,,,,,,,,,,,,,,,,,,,,,
5,10320, Note_on_c,3,52,127,,,,,,,,,,,,,,,,,,,,,,,
5,10320, Note_on_c,3,59,127,,,,,,,,,,,,,,,,,,,,,,,
5,10320, Note_on_c,3,64,127,,,,,,,,,,,,,,,,,,,,,,,
5,10320, Note_on_c,3,69,118,,,,,,,,,,,,,,,,,,,,,,,
5,10335, Control_c,3,64,127,,,,,,,,,,,,,,,,,,,,,,,
5,10379, Note_on_c,3,52,0,,,,,,,,,,,,,,,,,,,,,,,
5,10382, Note_on_c,3,64,0,,,,,,,,,,,,,,,,,,,,,,,
5,10392, Note_on_c,3,59,0,,,,,,,,,,,,,,,,,,,,,,,
5,10396, Note_on_c,3,69,0,,,,,,,,,,,,,,,,,,,,,,,
5,10414, Control_c,3,64,0,,,,,,,,,,,,,,,,,,,,,,,
5,10416, Note_on_c,3,47,118,,,,,,,,,,,,,,,,,,,,,,,
5,10416, Note_on_c,3,59,118,,,,,,,,,,,,,,,,,,,,,,,
5,10416, Note_on_c,3,63,127,,,,,,,,,,,,,,,,,,,,,,,
5,10416, Note_on_c,3,66,112,,,,,,,,,,,,,,,,,,,,,,,
5,10432, Control_c,3,64,127,,,,,,,,,,,,,,,,,,,,,,,
5,10468, Note_on_c,3,63,0,,,,,,,,,,,,,,,,,,,,,,,
5,10487, Note_on_c,3,66,0,,,,,,,,,,,,,,,,,,,,,,,
5,10494, Note_on_c,3,59,0,,,,,,,,,,,,,,,,,,,,,,,
5,10495, Note_on_c,3,47,0,,,,,,,,,,,,,,,,,,,,,,,
5,10512, Note_on_c,3,47,122,,,,,,,,,,,,,,,,,,,,,,,
5,10512, Note_on_c,3,59,122,,,,,,,,,,,,,,,,,,,,,,,
5,10512, Note_on_c,3,63,127,,,,,,,,,,,,,,,,,,,,,,,
5,10512, Note_on_c,3,66,112,,,,,,,,,,,,,,,,,,,,,,,
5,10547, Note_on_c,3,59,0,,,,,,,,,,,,,,,,,,,,,,,
5,10551, Note_on_c,3,63,0,,,,,,,,,,,,,,,,,,,,,,,
5,10560, Note_on_c,3,59,93,,,,,,,,,,,,,,,,,,,,,,,
5,10560, Note_on_c,3,63,70,,,,,,,,,,,,,,,,,,,,,,,
5,10569, Note_on_c,3,63,0,,,,,,,,,,,,,,,,,,,,,,,
5,10583, Note_on_c,3,66,0,,,,,,,,,,,,,,,,,,,,,,,
5,10586, Note_on_c,3,47,0,,,,,,,,,,,,,,,,,,,,,,,
5,10589, Note_on_c,3,59,0,,,,,,,,,,,,,,,,,,,,,,,
5,10608, Note_on_c,3,47,127,,,,,,,,,,,,,,,,,,,,,,,
5,10608, Note_on_c,3,59,110,,,,,,,,,,,,,,,,,,,,,,,
5,10608, Note_on_c,3,63,127,,,,,,,,,,,,,,,,,,,,,,,
5,10608, Note_on_c,3,66,112,,,,,,,,,,,,,,,,,,,,,,,
5,10624, Note_on_c,3,63,0,,,,,,,,,,,,,,,,,,,,,,,
5,10629, Note_on_c,3,59,0,,,,,,,,,,,,,,,,,,,,,,,
5,10629, Note_on_c,3,66,0,,,,,,,,,,,,,,,,,,,,,,,
5,10637, Note_on_c,3,47,0,,,,,,,,,,,,,,,,,,,,,,,
5,10656, Note_on_c,3,47,107,,,,,,,,,,,,,,,,,,,,,,,
5,10656, Note_on_c,3,59,118,,,,,,,,,,,,,,,,,,,,,,,
5,10656, Note_on_c,3,63,127,,,,,,,,,,,,,,,,,,,,,,,
5,10656, Note_on_c,3,66,112,,,,,,,,,,,,,,,,,,,,,,,
5,10683, Note_on_c,3,59,0,,,,,,,,,,,,,,,,,,,,,,,
5,10689, Note_on_c,3,63,0,,,,,,,,,,,,,,,,,,,,,,,
5,10704, Note_on_c,3,59,93,,,,,,,,,,,,,,,,,,,,,,,
5,10709, Note_on_c,3,47,0,,,,,,,,,,,,,,,,,,,,,,,
5,10726, Note_on_c,3,66,0,,,,,,,,,,,,,,,,,,,,,,,
5,10736, Note_on_c,3,59,0,,,,,,,,,,,,,,,,,,,,,,,
5,10747, Control_c,3,64,0,,,,,,,,,,,,,,,,,,,,,,,
5,10752, Note_on_c,3,54,112,,,,,,,,,,,,,,,,,,,,,,,
5,10752, Note_on_c,3,57,127,,,,,,,,,,,,,,,,,,,,,,,
5,10752, Note_on_c,3,61,127,,,,,,,,,,,,,,,,,,,,,,,
5,10752, Note_on_c,3,66,112,,,,,,,,,,,,,,,,,,,,,,,
5,10752, Note_on_c,3,69,127,,,,,,,,,,,,,,,,,,,,,,,
5,10777, Control_c,3,64,127,,,,,,,,,,,,,,,,,,,,,,,
5,10814, Note_on_c,3,57,0,,,,,,,,,,,,,,,,,,,,,,,
5,10815, Note_on_c,3,61,0,,,,,,,,,,,,,,,,,,,,,,,
5,10822, Note_on_c,3,69,0,,,,,,,,,,,,,,,,,,,,,,,
5,10832, Note_on_c,3,66,0,,,,,,,,,,,,,,,,,,,,,,,
5,10842, Note_on_c,3,54,0,,,,,,,,,,,,,,,,,,,,,,,
5,10848, Note_on_c,3,57,91,,,,,,,,,,,,,,,,,,,,,,,
5,10848, Note_on_c,3,61,64,,,,,,,,,,,,,,,,,,,,,,,
5,10848, Note_on_c,3,66,40,,,,,,,,,,,,,,,,,,,,,,,
5,10848, Note_on_c,3,69,80,,,,,,,,,,,,,,,,,,,,,,,
5,10857, Note_on_c,3,61,0,,,,,,,,,,,,,,,,,,,,,,,
5,10862, Note_on_c,3,66,0,,,,,,,,,,,,,,,,,,,,,,,
5,10867, Note_on_c,3,69,0,,,,,,,,,,,,,,,,,,,,,,,
5,10876, Note_on_c,3,57,0,,,,,,,,,,,,,,,,,,,,,,,
5,10896, Note_on_c,3,54,78,,,,,,,,,,,,,,,,,,,,,,,
5,10896, Note_on_c,3,57,74,,,,,,,,,,,,,,,,,,,,,,,
5,10896, Note_on_c,3,61,86,,,,,,,,,,,,,,,,,,,,,,,
5,10896, Note_on_c,3,66,72,,,,,,,,,,,,,,,,,,,,,,,
5,10896, Note_on_c,3,69,88,,,,,,,,,,,,,,,,,,,,,,,
5,10914, Note_on_c,3,61,0,,,,,,,,,,,,,,,,,,,,,,,
5,10915, Note_on_c,3,69,0,,,,,,,,,,,,,,,,,,,,,,,
5,10918, Note_on_c,3,54,0,,,,,,,,,,,,,,,,,,,,,,,
5,10921, Note_on_c,3,57,0,,,,,,,,,,,,,,,,,,,,,,,
5,10925, Note_on_c,3,66,0,,,,,,,,,,,,,,,,,,,,,,,
5,10944, Note_on_c,3,54,103,,,,,,,,,,,,,,,,,,,,,,,
5,10944, Note_on_c,3,57,91,,,,,,,,,,,,,,,,,,,,,,,
5,10944, Note_on_c,3,61,112,,,,,,,,,,,,,,,,,,,,,,,
5,10944, Note_on_c,3,66,127,,,,,,,,,,,,,,,,,,,,,,,
5,10944, Note_on_c,3,69,127,,,,,,,,,,,,,,,,,,,,,,,
5,10971, Note_on_c,3,57,0,,,,,,,,,,,,,,,,,,,,,,,
5,10981, Note_on_c,3,61,0,,,,,,,,,,,,,,,,,,,,,,,
5,10992, Note_on_c,3,57,76,,,,,,,,,,,,,,,,,,,,,,,
5,11005, Note_on_c,3,69,0,,,,,,,,,,,,,,,,,,,,,,,
5,11009, Note_on_c,3,54,0,,,,,,,,,,,,,,,,,,,,,,,
5,11009, Note_on_c,3,66,0,,,,,,,,,,,,,,,,,,,,,,,
5,11031, Note_on_c,3,57,0,,,,,,,,,,,,,,,,,,,,,,,
5,11040, Note_on_c,3,61,99,,,,,,,,,,,,,,,,,,,,,,,
5,11040, Note_on_c,3,66,82,,,,,,,,,,,,,,,,,,,,,,,
5,11040, Note_on_c,3,69,93,,,,,,,,,,,,,,,,,,,,,,,
5,11053, Note_on_c,3,69,0,,,,,,,,,,,,,,,,,,,,,,,
5,11057, Note_on_c,3,61,0,,,,,,,,,,,,,,,,,,,,,,,
5,11061, Note_on_c,3,66,0,,,,,,,,,,,,,,,,,,,,,,,
5,11081, Control_c,3,64,0,,,,,,,,,,,,,,,,,,,,,,,
5,11088, Note_on_c,3,54,107,,,,,,,,,,,,,,,,,,,,,,,
5,11088, Note_on_c,3,57,118,,,,,,,,,,,,,,,,,,,,,,,
5,11088, Note_on_c,3,61,127,,,,,,,,,,,,,,,,,,,,,,,
5,11088, Note_on_c,3,66,112,,,,,,,,,,,,,,,,,,,,,,,
5,11088, Note_on_c,3,69,127,,,,,,,,,,,,,,,,,,,,,,,
5,11099, Control_c,3,64,127,,,,,,,,,,,,,,,,,,,,,,,
5,11113, Note_on_c,3,57,0,,,,,,,,,,,,,,,,,,,,,,,
5,11136, Note_on_c,3,57,85,,,,,,,,,,,,,,,,,,,,,,,
5,11145, Note_on_c,3,61,0,,,,,,,,,,,,,,,,,,,,,,,
5,11148, Note_on_c,3,69,0,,,,,,,,,,,,,,,,,,,,,,,
5,11151, Note_on_c,3,54,0,,,,,,,,,,,,,,,,,,,,,,,
5,11160, Note_on_c,3,66,0,,,,,,,,,,,,,,,,,,,,,,,
5,11165, Note_on_c,3,57,0,,,,,,,,,,,,,,,,,,,,,,,
5,11184, Note_on_c,3,52,110,,,,,,,,,,,,,,,,,,,,,,,
5,11184, Note_on_c,3,57,82,,,,,,,,,,,,,,,,,,,,,,,
5,11184, Note_on_c,3,61,95,,,,,,,,,,,,,,,,,,,,,,,
5,11184, Note_on_c,3,64,110,,,,,,,,,,,,,,,,,,,,,,,
5,11184, Note_on_c,3,66,67,,,,,,,,,,,,,,,,,,,,,,,
5,11184, Note_on_c,3,69,98,,,,,,,,,,,,,,,,,,,,,,,
5,11189, Note_on_c,3,66,0,,,,,,,,,,,,,,,,,,,,,,,
5,11197, Note_on_c,3,57,0,,,,,,,,,,,,,,,,,,,,,,,
5,11205, Note_on_c,3,61,0,,,,,,,,,,,,,,,,,,,,,,,
5,11207, Note_on_c,3,52,0,,,,,,,,,,,,,,,,,,,,,,,
5,11209, Note_on_c,3,64,0,,,,,,,,,,,,,,,,,,,,,,,
5,11209, Note_on_c,3,69,0,,,,,,,,,,,,,,,,,,,,,,,
5,11228, Control_c,3,64,0,,,,,,,,,,,,,,,,,,,,,,,
5,11232, Note_on_c,3,52,127,,,,,,,,,,,,,,,,,,,,,,,
5,11232, Note_on_c,3,57,127,,,,,,,,,,,,,,,,,,,,,,,
5,11232, Note_on_c,3,61,127,,,,,,,,,,,,,,,,,,,,,,,
5,11232, Note_on_c,3,64,127,,,,,,,,,,,,,,,,,,,,,,,
5,11232, Note_on_c,3,69,118,,,,,,,,,,,,,,,,,,,,,,,
5,11250, Control_c,3,64,127,,,,,,,,,,,,,,,,,,,,,,,
5,11290, Note_on_c,3,57,0,,,,,,,,,,,,,,,,,,,,,,,
5,11298, Note_on_c,3,52,0,,,,,,,,,,,,,,,,,,,,,,,
5,11303, Note_on_c,3,61,0,,,,,,,,,,,,,,,,,,,,,,,
5,11304, Note_on_c,3,69,0,,,,,,,,,,,,,,,,,,,,,,,
5,11306, Note_on_c,3,64,0,,,,,,,,,,,,,,,,,,,,,,,
5,11328, Note_on_c,3,52,127,,,,,,,,,,,,,,,,,,,,,,,
5,11328, Note_on_c,3,57,118,,,,,,,,,,,,,,,,,,,,,,,
5,11328, Note_on_c,3,61,127,,,,,,,,,,,,,,,,,,,,,,,
5,11328, Note_on_c,3,64,127,,,,,,,,,,,,,,,,,,,,,,,
5,11328, Note_on_c,3,66,107,,,,,,,,,,,,,,,,,,,,,,,
5,11328, Note_on_c,3,69,122,,,,,,,,,,,,,,,,,,,,,,,
5,11331, Note_on_c,3,66,0,,,,,,,,,,,,,,,,,,,,,,,
5,11352, Note_on_c,3,57,0,,,,,,,,,,,,,,,,,,,,,,,
5,11401, Note_on_c,3,61,0,,,,,,,,,,,,,,,,,,,,,,,
5,11423, Note_on_c,3,52,0,,,,,,,,,,,,,,,,,,,,,,,
5,11424, Note_on_c,3,57,107,,,,,,,,,,,,,,,,,,,,,,,
5,11432, Note_on_c,3,64,0,,,,,,,,,,,,,,,,,,,,,,,
5,11450, Note_on_c,3,69,0,,,,,,,,,,,,,,,,,,,,,,,
5,11472, Note_on_c,3,52,107,,,,,,,,,,,,,,,,,,,,,,,
5,11472, Note_on_c,3,61,103,,,,,,,,,,,,,,,,,,,,,,,
5,11481, Note_on_c,3,57,0,,,,,,,,,,,,,,,,,,,,,,,
5,11494, Note_on_c,3,52,0,,,,,,,,,,,,,,,,,,,,,,,
5,11501, Note_on_c,3,61,0,,,,,,,,,,,,,,,,,,,,,,,
5,11518, Control_c,3,64,0,,,,,,,,,,,,,,,,,,,,,,,
5,11520, Note_on_c,3,49,88,,,,,,,,,,,,,,,,,,,,,,,
5,11520, Note_on_c,3,52,127,,,,,,,,,,,,,,,,,,,,,,,
5,11520, Note_on_c,3,59,127,,,,,,,,,,,,,,,,,,,,,,,
5,11520, Note_on_c,3,64,127,,,,,,,,,,,,,,,,,,,,,,,
5,11520, Note_on_c,3,66,88,,,,,,,,,,,,,,,,,,,,,,,
5,11520, Note_on_c,3,69,118,,,,,,,,,,,,,,,,,,,,,,,
5,11523, Note_on_c,3,66,0,,,,,,,,,,,,,,,,,,,,,,,
5,11524, Note_on_c,3,49,0,,,,,,,,,,,,,,,,,,,,,,,
5,11544, Control_c,3,64,127,,,,,,,,,,,,,,,,,,,,,,,
5,11586, Note_on_c,3,59,0,,,,,,,,,,,,,,,,,,,,,,,
5,11596, Note_on_c,3,64,0,,,,,,,,,,,,,,,,,,,,,,,
5,11606, Note_on_c,3,69,0,,,,,,,,,,,,,,,,,,,,,,,
5,11614, Note_on_c,3,52,0,,,,,,,,,,,,,,,,,,,,,,,
5,11616, Note_on_c,3,59,88,,,,,,,,,,,,,,,,,,,,,,,
5,11616, Note_on_c,3,64,98,,,,,,,,,,,,,,,,,,,,,,,
5,11616, Note_on_c,3,69,73,,,,,,,,,,,,,,,,,,,,,,,
5,11635, Note_on_c,3,64,0,,,,,,,,,,,,,,,,,,,,,,,
5,11638, Note_on_c,3,59,0,,,,,,,,,,,,,,,,,,,,,,,
5,11642, Note_on_c,3,69,0,,,,,,,,,,,,,,,,,,,,,,,
5,11664, Note_on_c,3,52,93,,,,,,,,,,,,,,,,,,,,,,,
5,11664, Note_on_c,3,59,85,,,,,,,,,,,,,,,,,,,,,,,
5,11664, Note_on_c,3,64,114,,,,,,,,,,,,,,,,,,,,,,,
5,11664, Note_on_c,3,69,76,,,,,,,,,,,,,,,,,,,,,,,
5,11677, Note_on_c,3,69,0,,,,,,,,,,,,,,,,,,,,,,,
5,11681, Note_on_c,3,59,0,,,,,,,,,,,,,,,,,,,,,,,
5,11685, Note_on_c,3,64,0,,,,,,,,,,,,,,,,,,,,,,,
5,11688, Note_on_c,3,52,0,,,,,,,,,,,,,,,,,,,,,,,
5,11707, Control_c,3,64,0,,,,,,,,,,,,,,,,,,,,,,,
5,11712, Note_on_c,3,52,127,,,,,,,,,,,,,,,,,,,,,,,
5,11712, Note_on_c,3,59,127,,,,,,,,,,,,,,,,,,,,,,,
5,11712, Note_on_c,3,64,127,,,,,,,,,,,,,,,,,,,,,,,
5,11712, Note_on_c,3,69,118,,,,,,,,,,,,,,,,,,,,,,,
5,11725, Control_c,3,64,127,,,,,,,,,,,,,,,,,,,,,,,
5,11743, Note_on_c,3,59,0,,,,,,,,,,,,,,,,,,,,,,,
5,11757, Note_on_c,3,64,0,,,,,,,,,,,,,,,,,,,,,,,
5,11760, Note_on_c,3,59,88,,,,,,,,,,,,,,,,,,,,,,,
5,11787, Note_on_c,3,59,0,,,,,,,,,,,,,,,,,,,,,,,
5,11790, Note_on_c,3,69,0,,,,,,,,,,,,,,,,,,,,,,,
5,11791, Note_on_c,3,52,0,,,,,,,,,,,,,,,,,,,,,,,
5,11808, Note_on_c,3,64,118,,,,,,,,,,,,,,,,,,,,,,,
5,11832, Note_on_c,3,64,0,,,,,,,,,,,,,,,,,,,,,,,
5,11849, Control_c,3,64,0,,,,,,,,,,,,,,,,,,,,,,,
5,11856, Note_on_c,3,52,127,,,,,,,,,,,,,,,,,,,,,,,
5,11856, Note_on_c,3,59,127,,,,,,,,,,,,,,,,,,,,,,,
5,11856, Note_on_c,3,64,127,,,,,,,,,,,,,,,,,,,,,,,
5,11856, Note_on_c,3,66,103,,,,,,,,,,,,,,,,,,,,,,,
5,11856, Note_on_c,3,69,122,,,,,,,,,,,,,,,,,,,,,,,
5,11860, Note_on_c,3,66,0,,,,,,,,,,,,,,,,,,,,,,,
5,11875, Control_c,3,64,127,,,,,,,,,,,,,,,,,,,,,,,
5,11898, Note_on_c,3,59,0,,,,,,,,,,,,,,,,,,,,,,,
5,11904, Note_on_c,3,59,56,,,,,,,,,,,,,,,,,,,,,,,
5,11916, Note_on_c,3,59,0,,,,,,,,,,,,,,,,,,,,,,,
5,11918, Note_on_c,3,52,0,,,,,,,,,,,,,,,,,,,,,,,
5,11928, Note_on_c,3,64,0,,,,,,,,,,,,,,,,,,,,,,,
5,11938, Note_on_c,3,69,0,,,,,,,,,,,,,,,,,,,,,,,
5,11952, Note_on_c,3,47,85,,,,,,,,,,,,,,,,,,,,,,,
5,11952, Note_on_c,3,59,82,,,,,,,,,,,,,,,,,,,,,,,
5,11952, Note_on_c,3,63,99,,,,,,,,,,,,,,,,,,,,,,,
5,11952, Note_on_c,3,66,82,,,,,,,,,,,,,,,,,,,,,,,
5,11968, Note_on_c,3,63,0,,,,,,,,,,,,,,,,,,,,,,,
5,11971, Note_on_c,3,59,0,,,,,,,,,,,,,,,,,,,,,,,
5,11976, Note_on_c,3,47,0,,,,,,,,,,,,,,,,,,,,,,,
5,11976, Note_on_c,3,66,0,,,,,,,,,,,,,,,,,,,,,,,
5,12000, Note_on_c,3,47,127,,,,,,,,,,,,,,,,,,,,,,,
5,12000, Note_on_c,3,59,127,,,,,,,,,,,,,,,,,,,,,,,
5,12000, Note_on_c,3,63,127,,,,,,,,,,,,,,,,,,,,,,,
5,12000, Note_on_c,3,66,112,,,,,,,,,,,,,,,,,,,,,,,
5,12008, Control_c,3,64,0,,,,,,,,,,,,,,,,,,,,,,,
5,12030, Control_c,3,64,127,,,,,,,,,,,,,,,,,,,,,,,
5,12075, Note_on_c,3,63,0,,,,,,,,,,,,,,,,,,,,,,,
5,12077, Note_on_c,3,47,0,,,,,,,,,,,,,,,,,,,,,,,
5,12077, Note_on_c,3,59,0,,,,,,,,,,,,,,,,,,,,,,,
5,12080, Note_on_c,3,66,0,,,,,,,,,,,,,,,,,,,,,,,
5,12096, Note_on_c,3,47,127,,,,,,,,,,,,,,,,,,,,,,,
5,12096, Note_on_c,3,59,122,,,,,,,,,,,,,,,,,,,,,,,
5,12096, Note_on_c,3,63,127,,,,,,,,,,,,,,,,,,,,,,,
5,12096, Note_on_c,3,66,112,,,,,,,,,,,,,,,,,,,,,,,
5,12163, Note_on_c,3,63,0,,,,,,,,,,,,,,,,,,,,,,,
5,12168, Note_on_c,3,66,0,,,,,,,,,,,,,,,,,,,,,,,
5,12172, Note_on_c,3,47,0,,,,,,,,,,,,,,,,,,,,,,,
5,12173, Note_on_c,3,59,0,,,,,,,,,,,,,,,,,,,,,,,
5,12192, Note_on_c,3,47,104,,,,,,,,,,,,,,,,,,,,,,,
5,12192, Note_on_c,3,59,127,,,,,,,,,,,,,,,,,,,,,,,
5,12192, Note_on_c,3,63,127,,,,,,,,,,,,,,,,,,,,,,,
5,12192, Note_on_c,3,66,107,,,,,,,,,,,,,,,,,,,,,,,
5,12213, Note_on_c,3,59,0,,,,,,,,,,,,,,,,,,,,,,,
5,12221, Note_on_c,3,63,0,,,,,,,,,,,,,,,,,,,,,,,
5,12240, Note_on_c,3,47,0,,,,,,,,,,,,,,,,,,,,,,,
5,12240, Note_on_c,3,59,85,,,,,,,,,,,,,,,,,,,,,,,
5,12264, Note_on_c,3,59,0,,,,,,,,,,,,,,,,,,,,,,,
5,12267, Note_on_c,3,66,0,,,,,,,,,,,,,,,,,,,,,,,
5,12281, Control_c,3,64,0,,,,,,,,,,,,,,,,,,,,,,,
5,12288, Note_on_c,3,50,127,,,,,,,,,,,,,,,,,,,,,,,
5,12288, Note_on_c,3,57,122,,,,,,,,,,,,,,,,,,,,,,,
5,12288, Note_on_c,3,62,127,,,,,,,,,,,,,,,,,,,,,,,
5,12288, Note_on_c,3,66,103,,,,,,,,,,,,,,,,,,,,,,,
5,12288, Note_on_c,3,69,114,,,,,,,,,,,,,,,,,,,,,,,
5,12300, Control_c,3,64,127,,,,,,,,,,,,,,,,,,,,,,,
5,12358, Note_on_c,3,50,0,,,,,,,,,,,,,,,,,,,,,,,
5,12359, Note_on_c,3,57,0,,,,,,,,,,,,,,,,,,,,,,,
5,12366, Note_on_c,3,62,0,,,,,,,,,,,,,,,,,,,,,,,
5,12367, Note_on_c,3,66,0,,,,,,,,,,,,,,,,,,,,,,,
5,12384, Note_on_c,3,50,118,,,,,,,,,,,,,,,,,,,,,,,
5,12384, Note_on_c,3,57,107,,,,,,,,,,,,,,,,,,,,,,,
5,12384, Note_on_c,3,62,101,,,,,,,,,,,,,,,,,,,,,,,
5,12384, Note_on_c,3,66,66,,,,,,,,,,,,,,,,,,,,,,,
5,12406, Note_on_c,3,57,0,,,,,,,,,,,,,,,,,,,,,,,
5,12432, Note_on_c,3,57,87,,,,,,,,,,,,,,,,,,,,,,,
5,12448, Note_on_c,3,62,0,,,,,,,,,,,,,,,,,,,,,,,
5,12454, Note_on_c,3,66,0,,,,,,,,,,,,,,,,,,,,,,,
5,12454, Note_on_c,3,69,0,,,,,,,,,,,,,,,,,,,,,,,
5,12455, Note_on_c,3,50,0,,,,,,,,,,,,,,,,,,,,,,,
5,12458, Note_on_c,3,57,0,,,,,,,,,,,,,,,,,,,,,,,
5,12480, Note_on_c,3,50,127,,,,,,,,,,,,,,,,,,,,,,,
5,12480, Note_on_c,3,57,110,,,,,,,,,,,,,,,,,,,,,,,
5,12480, Note_on_c,3,62,127,,,,,,,,,,,,,,,,,,,,,,,
5,12480, Note_on_c,3,66,99,,,,,,,,,,,,,,,,,,,,,,,
5,12480, Note_on_c,3,69,107,,,,,,,,,,,,,,,,,,,,,,,
5,12501, Note_on_c,3,57,0,,,,,,,,,,,,,,,,,,,,,,,
5,12516, Note_on_c,3,62,0,,,,,,,,,,,,,,,,,,,,,,,
5,12517, Note_on_c,3,50,0,,,,,,,,,,,,,,,,,,,,,,,
5,12528, Note_on_c,3,57,91,,,,,,,,,,,,,,,,,,,,,,,
5,12562, Note_on_c,3,57,0,,,,,,,,,,,,,,,,,,,,,,,
5,12576, Note_on_c,3,50,95,,,,,,,,,,,,,,,,,,,,,,,
5,12576, Note_on_c,3,57,59,,,,,,,,,,,,,,,,,,,,,,,
5,12576, Note_on_c,3,62,101,,,,,,,,,,,,,,,,,,,,,,,
5,12598, Note_on_c,3,66,0,,,,,,,,,,,,,,,,,,,,,,,
5,12598, Note_on_c,3,69,0,,,,,,,,,,,,,,,,,,,,,,,
5,12600, Note_on_c,3,57,0,,,,,,,,,,,,,,,,,,,,,,,
5,12606, Note_on_c,3,62,0,,,,,,,,,,,,,,,,,,,,,,,
5,12610, Note_on_c,3,50,0,,,,,,,,,,,,,,,,,,,,,,,
5,12624, Note_on_c,3,52,118,,,,,,,,,,,,,,,,,,,,,,,
5,12624, Note_on_c,3,59,104,,,,,,,,,,,,,,,,,,,,,,,
5,12624, Note_on_c,3,64,104,,,,,,,,,,,,,,,,,,,,,,,
5,12624, Note_on_c,3,69,101,,,,,,,,,,,,,,,,,,,,,,,
5,12631, Control_c,3,64,0,,,,,,,,,,,,,,,,,,,,,,,
5,12653, Control_c,3,64,127,,,,,,,,,,,,,,,,,,,,,,,
5,12696, Note_on_c,3,69,0,,,,,,,,,,,,,,,,,,,,,,,
5,12699, Note_on_c,3,52,0,,,,,,,,,,,,,,,,,,,,,,,
5,12699, Note_on_c,3,59,0,,,,,,,,,,,,,,,,,,,,,,,
5,12706, Note_on_c,3,64,0,,,,,,,,,,,,,,,,,,,,,,,
5,12720, Note_on_c,3,52,127,,,,,,,,,,,,,,,,,,,,,,,
5,12720, Note_on_c,3,59,114,,,,,,,,,,,,,,,,,,,,,,,
5,12720, Note_on_c,3,64,107,,,,,,,,,,,,,,,,,,,,,,,
5,12720, Note_on_c,3,69,95,,,,,,,,,,,,,,,,,,,,,,,
5,12783, Note_on_c,3,52,0,,,,,,,,,,,,,,,,,,,,,,,
5,12791, Note_on_c,3,59,0,,,,,,,,,,,,,,,,,,,,,,,
5,12792, Note_on_c,3,69,0,,,,,,,,,,,,,,,,,,,,,,,
5,12793, Note_on_c,3,64,0,,,,,,,,,,,,,,,,,,,,,,,
5,12816, Note_on_c,3,52,114,,,,,,,,,,,,,,,,,,,,,,,
5,12816, Note_on_c,3,59,101,,,,,,,,,,,,,,,,,,,,,,,
5,12816, Note_on_c,3,64,110,,,,,,,,,,,,,,,,,,,,,,,
5,12816, Note_on_c,3,69,91,,,,,,,,,,,,,,,,,,,,,,,
5,12836, Note_on_c,3,59,0,,,,,,,,,,,,,,,,,,,,,,,
5,12841, Note_on_c,3,64,0,,,,,,,,,,,,,,,,,,,,,,,
5,12843, Note_on_c,3,52,0,,,,,,,,,,,,,,,,,,,,,,,
5,12843, Note_on_c,3,69,0,,,,,,,,,,,,,,,,,,,,,,,
5,12864, Note_on_c,3,52,127,,,,,,,,,,,,,,,,,,,,,,,
5,12864, Note_on_c,3,59,98,,,,,,,,,,,,,,,,,,,,,,,
5,12864, Note_on_c,3,64,110,,,,,,,,,,,,,,,,,,,,,,,
5,12864, Note_on_c,3,69,93,,,,,,,,,,,,,,,,,,,,,,,
5,12938, Note_on_c,3,52,0,,,,,,,,,,,,,,,,,,,,,,,
5,12945, Note_on_c,3,59,0,,,,,,,,,,,,,,,,,,,,,,,
5,12947, Note_on_c,3,69,0,,,,,,,,,,,,,,,,,,,,,,,
5,12959, Note_on_c,3,64,0,,,,,,,,,,,,,,,,,,,,,,,
5,12960, Note_on_c,3,52,127,,,,,,,,,,,,,,,,,,,,,,,
5,12960, Note_on_c,3,57,118,,,,,,,,,,,,,,,,,,,,,,,
5,12960, Note_on_c,3,64,78,,,,,,,,,,,,,,,,,,,,,,,
5,12960, Note_on_c,3,69,101,,,,,,,,,,,,,,,,,,,,,,,
5,12979, Control_c,3,64,0,,,,,,,,,,,,,,,,,,,,,,,
5,12995, Note_on_c,3,64,0,,,,,,,,,,,,,,,,,,,,,,,
5,12995, Note_on_c,3,69,0,,,,,,,,,,,,,,,,,,,,,,,
5,12996, Note_on_c,3,52,0,,,,,,,,,,,,,,,,,,,,,,,
5,13012, Note_on_c,3,57,0,,,,,,,,,,,,,,,,,,,,,,,
5,13056, Note_on_c,3,54,107,,,,,,,,,,,,,,,,,,,,,,,
5,13056, Note_on_c,3,57,107,,,,,,,,,,,,,,,,,,,,,,,
5,13056, Note_on_c,3,61,107,,,,,,,,,,,,,,,,,,,,,,,
5,13056, Note_on_c,3,66,103,,,,,,,,,,,,,,,,,,,,,,,
5,13056, Note_on_c,3,69,110,,,,,,,,,,,,,,,,,,,,,,,
5,13058, Control_c,3,64,127,,,,,,,,,,,,,,,,,,,,,,,
5,13114, Note_on_c,3,54,0,,,,,,,,,,,,,,,,,,,,,,,
5,13125, Note_on_c,3,57,0,,,,,,,,,,,,,,,,,,,,,,,
5,13126, Note_on_c,3,61,0,,,,,,,,,,,,,,,,,,,,,,,
5,13136, Note_on_c,3,66,0,,,,,,,,,,,,,,,,,,,,,,,
5,13152, Note_on_c,3,54,103,,,,,,,,,,,,,,,,,,,,,,,
5,13152, Note_on_c,3,57,93,,,,,,,,,,,,,,,,,,,,,,,
5,13152, Note_on_c,3,61,95,,,,,,,,,,,,,,,,,,,,,,,
5,13152, Note_on_c,3,66,61,,,,,,,,,,,,,,,,,,,,,,,
5,13169, Note_on_c,3,57,0,,,,,,,,,,,,,,,,,,,,,,,
5,13187, Note_on_c,3,66,0,,,,,,,,,,,,,,,,,,,,,,,
5,13199, Note_on_c,3,61,0,,,,,,,,,,,,,,,,,,,,,,,
5,13200, Note_on_c,3,57,76,,,,,,,,,,,,,,,,,,,,,,,
5,13210, Note_on_c,3,69,0,,,,,,,,,,,,,,,,,,,,,,,
5,13213, Note_on_c,3,54,0,,,,,,,,,,,,,,,,,,,,,,,
5,13240, Note_on_c,3,57,0,,,,,,,,,,,,,,,,,,,,,,,
5,13248, Note_on_c,3,54,112,,,,,,,,,,,,,,,,,,,,,,,
5,13248, Note_on_c,3,57,93,,,,,,,,,,,,,,,,,,,,,,,
5,13248, Note_on_c,3,61,107,,,,,,,,,,,,,,,,,,,,,,,
5,13248, Note_on_c,3,66,99,,,,,,,,,,,,,,,,,,,,,,,
5,13248, Note_on_c,3,69,114,,,,,,,,,,,,,,,,,,,,,,,
5,13272, Note_on_c,3,57,0,,,,,,,,,,,,,,,,,,,,,,,
5,13287, Note_on_c,3,61,0,,,,,,,,,,,,,,,,,,,,,,,
5,13296, Note_on_c,3,57,76,,,,,,,,,,,,,,,,,,,,,,,
5,13308, Note_on_c,3,54,0,,,,,,,,,,,,,,,,,,,,,,,
5,13314, Note_on_c,3,66,0,,,,,,,,,,,,,,,,,,,,,,,
5,13316, Note_on_c,3,69,0,,,,,,,,,,,,,,,,,,,,,,,
5,13329, Note_on_c,3,57,0,,,,,,,,,,,,,,,,,,,,,,,
5,13344, Note_on_c,3,54,78,,,,,,,,,,,,,,,,,,,,,,,
5,13344, Note_on_c,3,61,95,,,,,,,,,,,,,,,,,,,,,,,
5,13360, Note_on_c,3,54,0,,,,,,,,,,,,,,,,,,,,,,,
5,13369, Note_on_c,3,61,0,,,,,,,,,,,,,,,,,,,,,,,
5,13392, Note_on_c,3,54,112,,,,,,,,,,,,,,,,,,,,,,,
5,13392, Note_on_c,3,57,114,,,,,,,,,,,,,,,,,,,,,,,
5,13392, Note_on_c,3,61,112,,,,,,,,,,,,,,,,,,,,,,,
5,13392, Note_on_c,3,66,107,,,,,,,,,,,,,,,,,,,,,,,
5,13392, Note_on_c,3,69,118,,,,,,,,,,,,,,,,,,,,,,,
5,13415, Control_c,3,64,127,,,,,,,,,,,,,,,,,,,,,,,
5,13459, Note_on_c,3,69,0,,,,,,,,,,,,,,,,,,,,,,,
5,13463, Note_on_c,3,57,0,,,,,,,,,,,,,,,,,,,,,,,
5,13463, Note_on_c,3,61,0,,,,,,,,,,,,,,,,,,,,,,,
5,13467, Note_on_c,3,54,0,,,,,,,,,,,,,,,,,,,,,,,
5,13467, Note_on_c,3,66,0,,,,,,,,,,,,,,,,,,,,,,,
5,13488, Note_on_c,3,54,112,,,,,,,,,,,,,,,,,,,,,,,
5,13488, Note_on_c,3,57,110,,,,,,,,,,,,,,,,,,,,,,,
5,13488, Note_on_c,3,61,107,,,,,,,,,,,,,,,,,,,,,,,
5,13488, Note_on_c,3,66,95,,,,,,,,,,,,,,,,,,,,,,,
5,13488, Note_on_c,3,69,110,,,,,,,,,,,,,,,,,,,,,,,
5,13490, Control_c,3,64,0,,,,,,,,,,,,,,,,,,,,,,,
5,13507, Control_c,3,64,127,,,,,,,,,,,,,,,,,,,,,,,
5,13556, Note_on_c,3,61,0,,,,,,,,,,,,,,,,,,,,,,,
5,13559, Note_on_c,3,57,0,,,,,,,,,,,,,,,,,,,,,,,
5,13559, Note_on_c,3,69,0,,,,,,,,,,,,,,,,,,,,,,,
5,13564, Note_on_c,3,54,0,,,,,,,,,,,,,,,,,,,,,,,
5,13566, Note_on_c,3,66,0,,,,,,,,,,,,,,,,,,,,,,,
5,13584, Note_on_c,3,54,107,,,,,,,,,,,,,,,,,,,,,,,
5,13584, Note_on_c,3,57,83,,,,,,,,,,,,,,,,,,,,,,,
5,13584, Note_on_c,3,61,95,,,,,,,,,,,,,,,,,,,,,,,
5,13584, Note_on_c,3,66,80,,,,,,,,,,,,,,,,,,,,,,,
5,13584, Note_on_c,3,69,88,,,,,,,,,,,,,,,,,,,,,,,
5,13602, Note_on_c,3,69,0,,,,,,,,,,,,,,,,,,,,,,,
5,13606, Note_on_c,3,57,0,,,,,,,,,,,,,,,,,,,,,,,
5,13606, Note_on_c,3,61,0,,,,,,,,,,,,,,,,,,,,,,,
5,13607, Note_on_c,3,54,0,,,,,,,,,,,,,,,,,,,,,,,
5,13608, Note_on_c,3,66,0,,,,,,,,,,,,,,,,,,,,,,,
5,13622, Control_c,3,64,0,,,,,,,,,,,,,,,,,,,,,,,
5,13632, Note_on_c,3,54,107,,,,,,,,,,,,,,,,,,,,,,,
5,13632, Note_on_c,3,57,101,,,,,,,,,,,,,,,,,,,,,,,
5,13632, Note_on_c,3,61,103,,,,,,,,,,,,,,,,,,,,,,,
5,13632, Note_on_c,3,66,103,,,,,,,,,,,,,,,,,,,,,,,
5,13632, Note_on_c,3,69,118,,,,,,,,,,,,,,,,,,,,,,,
5,13644, Control_c,3,64,127,,,,,,,,,,,,,,,,,,,,,,,
5,13715, Note_on_c,3,69,0,,,,,,,,,,,,,,,,,,,,,,,
5,13718, Note_on_c,3,54,0,,,,,,,,,,,,,,,,,,,,,,,
5,13719, Note_on_c,3,61,0,,,,,,,,,,,,,,,,,,,,,,,
5,13721, Note_on_c,3,57,0,,,,,,,,,,,,,,,,,,,,,,,
5,13723, Note_on_c,3,66,0,,,,,,,,,,,,,,,,,,,,,,,
5,13728, Note_on_c,3,54,112,,,,,,,,,,,,,,,,,,,,,,,
5,13728, Note_on_c,3,57,118,,,,,,,,,,,,,,,,,,,,,,,
5,13728, Note_on_c,3,61,107,,,,,,,,,,,,,,,,,,,,,,,
5,13728, Note_on_c,3,66,88,,,,,,,,,,,,,,,,,,,,,,,
5,13728, Note_on_c,3,69,110,,,,,,,,,,,,,,,,,,,,,,,
5,13765, Note_on_c,3,54,0,,,,,,,,,,,,,,,,,,,,,,,
5,13766, Note_on_c,3,61,0,,,,,,,,,,,,,,,,,,,,,,,
5,13767, Control_c,3,64,0,,,,,,,,,,,,,,,,,,,,,,,
5,13769, Note_on_c,3,57,0,,,,,,,,,,,,,,,,,,,,,,,
5,13769, Note_on_c,3,66,0,,,,,,,,,,,,,,,,,,,,,,,
5,13771, Note_on_c,3,69,0,,,,,,,,,,,,,,,,,,,,,,,
5,13824, Note_on_c,3,54,127,,,,,,,,,,,,,,,,,,,,,,,
5,13824, Note_on_c,3,57,118,,,,,,,,,,,,,,,,,,,,,,,
5,13824, Note_on_c,3,61,127,,,,,,,,,,,,,,,,,,,,,,,
5,13824, Note_on_c,3,66,127,,,,,,,,,,,,,,,,,,,,,,,
5,13824, Note_on_c,3,69,122,,,,,,,,,,,,,,,,,,,,,,,
5,13831, Control_c,3,64,127,,,,,,,,,,,,,,,,,,,,,,,
5,13883, Note_on_c,3,57,0,,,,,,,,,,,,,,,,,,,,,,,
5,13887, Note_on_c,3,61,0,,,,,,,,,,,,,,,,,,,,,,,
5,13915, Note_on_c,3,54,0,,,,,,,,,,,,,,,,,,,,,,,
5,13920, Note_on_c,3,57,98,,,,,,,,,,,,,,,,,,,,,,,
5,13920, Note_on_c,3,61,59,,,,,,,,,,,,,,,,,,,,,,,
5,13930, Note_on_c,3,69,0,,,,,,,,,,,,,,,,,,,,,,,
5,13931, Note_on_c,3,66,0,,,,,,,,,,,,,,,,,,,,,,,
5,13936, Note_on_c,3,61,0,,,,,,,,,,,,,,,,,,,,,,,
5,13941, Note_on_c,3,57,0,,,,,,,,,,,,,,,,,,,,,,,
5,13968, Note_on_c,3,54,107,,,,,,,,,,,,,,,,,,,,,,,
5,13968, Note_on_c,3,57,66,,,,,,,,,,,,,,,,,,,,,,,
5,13968, Note_on_c,3,61,99,,,,,,,,,,,,,,,,,,,,,,,
5,13968, Note_on_c,3,66,80,,,,,,,,,,,,,,,,,,,,,,,
5,13977, Note_on_c,3,66,0,,,,,,,,,,,,,,,,,,,,,,,
5,13978, Note_on_c,3,57,0,,,,,,,,,,,,,,,,,,,,,,,
5,13984, Note_on_c,3,61,0,,,,,,,,,,,,,,,,,,,,,,,
5,13986, Note_on_c,3,54,0,,,,,,,,,,,,,,,,,,,,,,,
5,14016, Note_on_c,3,54,112,,,,,,,,,,,,,,,,,,,,,,,
5,14016, Note_on_c,3,57,122,,,,,,,,,,,,,,,,,,,,,,,
5,14016, Note_on_c,3,61,127,,,,,,,,,,,,,,,,,,,,,,,
5,14016, Note_on_c,3,66,127,,,,,,,,,,,,,,,,,,,,,,,
5,14016, Note_on_c,3,69,127,,,,,,,,,,,,,,,,,,,,,,,
5,14037, Note_on_c,3,57,0,,,,,,,,,,,,,,,,,,,,,,,
5,14050, Note_on_c,3,61,0,,,,,,,,,,,,,,,,,,,,,,,
5,14064, Note_on_c,3,57,87,,,,,,,,,,,,,,,,,,,,,,,
5,14074, Note_on_c,3,69,0,,,,,,,,,,,,,,,,,,,,,,,
5,14079, Note_on_c,3,66,0,,,,,,,,,,,,,,,,,,,,,,,
5,14091, Note_on_c,3,54,0,,,,,,,,,,,,,,,,,,,,,,,
5,14091, Note_on_c,3,57,0,,,,,,,,,,,,,,,,,,,,,,,
5,14112, Note_on_c,3,61,99,,,,,,,,,,,,,,,,,,,,,,,
5,14112, Note_on_c,3,66,74,,,,,,,,,,,,,,,,,,,,,,,
5,14128, Note_on_c,3,61,0,,,,,,,,,,,,,,,,,,,,,,,
5,14129, Note_on_c,3,66,0,,,,,,,,,,,,,,,,,,,,,,,
5,14160, Note_on_c,3,54,107,,,,,,,,,,,,,,,,,,,,,,,
5,14160, Note_on_c,3,57,127,,,,,,,,,,,,,,,,,,,,,,,
5,14160, Note_on_c,3,61,127,,,,,,,,,,,,,,,,,,,,,,,
5,14160, Note_on_c,3,69,122,,,,,,,,,,,,,,,,,,,,,,,
5,14160, Control_c,3,64,0,,,,,,,,,,,,,,,,,,,,,,,
5,14160, Note_on_c,3,66,112,,,,,,,,,,,,,,,,,,,,,,,
5,14180, Note_on_c,3,57,0,,,,,,,,,,,,,,,,,,,,,,,
5,14186, Control_c,3,64,127,,,,,,,,,,,,,,,,,,,,,,,
5,14208, Note_on_c,3,57,88,,,,,,,,,,,,,,,,,,,,,,,
5,14217, Note_on_c,3,61,0,,,,,,,,,,,,,,,,,,,,,,,
5,14220, Note_on_c,3,69,0,,,,,,,,,,,,,,,,,,,,,,,
5,14222, Note_on_c,3,54,0,,,,,,,,,,,,,,,,,,,,,,,
5,14230, Note_on_c,3,66,0,,,,,,,,,,,,,,,,,,,,,,,
5,14233, Note_on_c,3,57,0,,,,,,,,,,,,,,,,,,,,,,,
5,14256, Note_on_c,3,52,95,,,,,,,,,,,,,,,,,,,,,,,
5,14256, Note_on_c,3,61,92,,,,,,,,,,,,,,,,,,,,,,,
5,14256, Note_on_c,3,64,101,,,,,,,,,,,,,,,,,,,,,,,
5,14256, Note_on_c,3,69,85,,,,,,,,,,,,,,,,,,,,,,,
5,14275, Note_on_c,3,61,0,,,,,,,,,,,,,,,,,,,,,,,
5,14280, Note_on_c,3,52,0,,,,,,,,,,,,,,,,,,,,,,,
5,14282, Note_on_c,3,69,0,,,,,,,,,,,,,,,,,,,,,,,
5,14283, Note_on_c,3,64,0,,,,,,,,,,,,,,,,,,,,,,,
5,14301, Control_c,3,64,0,,,,,,,,,,,,,,,,,,,,,,,
5,14304, Note_on_c,3,52,127,,,,,,,,,,,,,,,,,,,,,,,
5,14304, Note_on_c,3,57,114,,,,,,,,,,,,,,,,,,,,,,,
5,14304, Note_on_c,3,61,112,,,,,,,,,,,,,,,,,,,,,,,
5,14304, Note_on_c,3,64,127,,,,,,,,,,,,,,,,,,,,,,,
5,14304, Note_on_c,3,69,118,,,,,,,,,,,,,,,,,,,,,,,
5,14327, Control_c,3,64,127,,,,,,,,,,,,,,,,,,,,,,,
5,14376, Note_on_c,3,52,0,,,,,,,,,,,,,,,,,,,,,,,
5,14380, Note_on_c,3,61,0,,,,,,,,,,,,,,,,,,,,,,,
5,14383, Note_on_c,3,57,0,,,,,,,,,,,,,,,,,,,,,,,
5,14384, Note_on_c,3,64,0,,,,,,,,,,,,,,,,,,,,,,,
5,14384, Note_on_c,3,69,0,,,,,,,,,,,,,,,,,,,,,,,
5,14398, Control_c,3,64,0,,,,,,,,,,,,,,,,,,,,,,,
5,14400, Note_on_c,3,52,127,,,,,,,,,,,,,,,,,,,,,,,
5,14400, Note_on_c,3,57,122,,,,,,,,,,,,,,,,,,,,,,,
5,14400, Note_on_c,3,61,127,,,,,,,,,,,,,,,,,,,,,,,
5,14400, Note_on_c,3,64,127,,,,,,,,,,,,,,,,,,,,,,,
5,14400, Note_on_c,3,69,118,,,,,,,,,,,,,,,,,,,,,,,
5,14416, Control_c,3,64,127,,,,,,,,,,,,,,,,,,,,,,,
5,14455, Note_on_c,3,61,0,,,,,,,,,,,,,,,,,,,,,,,
5,14465, Note_on_c,3,64,0,,,,,,,,,,,,,,,,,,,,,,,
5,14475, Note_on_c,3,69,0,,,,,,,,,,,,,,,,,,,,,,,
5,14476, Note_on_c,3,57,0,,,,,,,,,,,,,,,,,,,,,,,
5,14488, Note_on_c,3,52,0,,,,,,,,,,,,,,,,,,,,,,,
5,14496, Note_on_c,3,57,76,,,,,,,,,,,,,,,,,,,,,,,
5,14496, Note_on_c,3,61,99,,,,,,,,,,,,,,,,,,,,,,,
5,14511, Note_on_c,3,57,0,,,,,,,,,,,,,,,,,,,,,,,
5,14512, Note_on_c,3,61,0,,,,,,,,,,,,,,,,,,,,,,,
5,14544, Note_on_c,3,52,114,,,,,,,,,,,,,,,,,,,,,,,
5,14544, Note_on_c,3,61,95,,,,,,,,,,,,,,,,,,,,,,,
5,14563, Note_on_c,3,61,0,,,,,,,,,,,,,,,,,,,,,,,
5,14564, Note_on_c,3,52,0,,,,,,,,,,,,,,,,,,,,,,,
5,14588, Control_c,3,64,0,,,,,,,,,,,,,,,,,,,,,,,
5,14592, Note_on_c,3,52,127,,,,,,,,,,,,,,,,,,,,,,,
5,14592, Note_on_c,3,59,127,,,,,,,,,,,,,,,,,,,,,,,
5,14592, Note_on_c,3,64,127,,,,,,,,,,,,,,,,,,,,,,,
5,14592, Note_on_c,3,69,114,,,,,,,,,,,,,,,,,,,,,,,
5,14618, Control_c,3,64,127,,,,,,,,,,,,,,,,,,,,,,,
5,14655, Note_on_c,3,59,0,,,,,,,,,,,,,,,,,,,,,,,
5,14662, Note_on_c,3,69,0,,,,,,,,,,,,,,,,,,,,,,,
5,14664, Note_on_c,3,64,0,,,,,,,,,,,,,,,,,,,,,,,
5,14688, Note_on_c,3,59,85,,,,,,,,,,,,,,,,,,,,,,,
5,14688, Note_on_c,3,64,87,,,,,,,,,,,,,,,,,,,,,,,
5,14688, Note_on_c,3,69,55,,,,,,,,,,,,,,,,,,,,,,,
5,14695, Note_on_c,3,52,0,,,,,,,,,,,,,,,,,,,,,,,
5,14704, Note_on_c,3,59,0,,,,,,,,,,,,,,,,,,,,,,,
5,14704, Note_on_c,3,69,0,,,,,,,,,,,,,,,,,,,,,,,
5,14705, Note_on_c,3,64,0,,,,,,,,,,,,,,,,,,,,,,,
5,14736, Note_on_c,3,52,93,,,,,,,,,,,,,,,,,,,,,,,
5,14736, Note_on_c,3,59,73,,,,,,,,,,,,,,,,,,,,,,,
5,14736, Note_on_c,3,64,104,,,,,,,,,,,,,,,,,,,,,,,
5,14736, Note_on_c,3,69,66,,,,,,,,,,,,,,,,,,,,,,,
5,14744, Note_on_c,3,69,0,,,,,,,,,,,,,,,,,,,,,,,
5,14749, Note_on_c,3,59,0,,,,,,,,,,,,,,,,,,,,,,,
5,14751, Note_on_c,3,64,0,,,,,,,,,,,,,,,,,,,,,,,
5,14757, Note_on_c,3,52,0,,,,,,,,,,,,,,,,,,,,,,,
5,14784, Note_on_c,3,52,127,,,,,,,,,,,,,,,,,,,,,,,
5,14784, Note_on_c,3,59,122,,,,,,,,,,,,,,,,,,,,,,,
5,14784, Note_on_c,3,64,127,,,,,,,,,,,,,,,,,,,,,,,
5,14784, Note_on_c,3,69,122,,,,,,,,,,,,,,,,,,,,,,,
5,14806, Note_on_c,3,59,0,,,,,,,,,,,,,,,,,,,,,,,
5,14822, Note_on_c,3,64,0,,,,,,,,,,,,,,,,,,,,,,,
5,14832, Note_on_c,3,59,91,,,,,,,,,,,,,,,,,,,,,,,
5,14853, Note_on_c,3,52,0,,,,,,,,,,,,,,,,,,,,,,,
5,14854, Note_on_c,3,59,0,,,,,,,,,,,,,,,,,,,,,,,
5,14859, Note_on_c,3,69,0,,,,,,,,,,,,,,,,,,,,,,,
5,14880, Note_on_c,3,64,110,,,,,,,,,,,,,,,,,,,,,,,
5,14899, Note_on_c,3,64,0,,,,,,,,,,,,,,,,,,,,,,,
5,14919, Control_c,3,64,0,,,,,,,,,,,,,,,,,,,,,,,
5,14928, Note_on_c,3,52,127,,,,,,,,,,,,,,,,,,,,,,,
5,14928, Note_on_c,3,59,122,,,,,,,,,,,,,,,,,,,,,,,
5,14928, Note_on_c,3,64,127,,,,,,,,,,,,,,,,,,,,,,,
5,14928, Note_on_c,3,69,118,,,,,,,,,,,,,,,,,,,,,,,
5,14945, Control_c,3,64,127,,,,,,,,,,,,,,,,,,,,,,,
5,14985, Note_on_c,3,52,0,,,,,,,,,,,,,,,,,,,,,,,
5,14988, Note_on_c,3,64,0,,,,,,,,,,,,,,,,,,,,,,,
5,15003, Note_on_c,3,59,0,,,,,,,,,,,,,,,,,,,,,,,
5,15008, Note_on_c,3,69,0,,,,,,,,,,,,,,,,,,,,,,,
5,15024, Note_on_c,3,47,101,,,,,,,,,,,,,,,,,,,,,,,
5,15024, Note_on_c,3,59,85,,,,,,,,,,,,,,,,,,,,,,,
5,15024, Note_on_c,3,63,107,,,,,,,,,,,,,,,,,,,,,,,
5,15024, Note_on_c,3,66,99,,,,,,,,,,,,,,,,,,,,,,,
5,15039, Note_on_c,3,63,0,,,,,,,,,,,,,,,,,,,,,,,
5,15042, Control_c,3,64,127,,,,,,,,,,,,,,,,,,,,,,,
5,15045, Note_on_c,3,59,0,,,,,,,,,,,,,,,,,,,,,,,
5,15046, Note_on_c,3,66,0,,,,,,,,,,,,,,,,,,,,,,,
5,15053, Note_on_c,3,47,0,,,,,,,,,,,,,,,,,,,,,,,
5,15072, Note_on_c,3,47,127,,,,,,,,,,,,,,,,,,,,,,,
5,15072, Note_on_c,3,59,118,,,,,,,,,,,,,,,,,,,,,,,
5,15072, Note_on_c,3,63,127,,,,,,,,,,,,,,,,,,,,,,,
5,15072, Note_on_c,3,66,103,,,,,,,,,,,,,,,,,,,,,,,
5,15143, Note_on_c,3,63,0,,,,,,,,,,,,,,,,,,,,,,,
5,15148, Note_on_c,3,47,0,,,,,,,,,,,,,,,,,,,,,,,
5,15151, Note_on_c,3,59,0,,,,,,,,,,,,,,,,,,,,,,,
5,15151, Note_on_c,3,66,0,,,,,,,,,,,,,,,,,,,,,,,
5,15168, Note_on_c,3,47,127,,,,,,,,,,,,,,,,,,,,,,,
5,15168, Note_on_c,3,59,122,,,,,,,,,,,,,,,,,,,,,,,
5,15168, Note_on_c,3,63,127,,,,,,,,,,,,,,,,,,,,,,,
5,15168, Note_on_c,3,66,112,,,,,,,,,,,,,,,,,,,,,,,
5,15170, Control_c,3,64,0,,,,,,,,,,,,,,,,,,,,,,,
5,15187, Control_c,3,64,127,,,,,,,,,,,,,,,,,,,,,,,
5,15224, Note_on_c,3,63,0,,,,,,,,,,,,,,,,,,,,,,,
5,15234, Note_on_c,3,66,0,,,,,,,,,,,,,,,,,,,,,,,
5,15246, Note_on_c,3,59,0,,,,,,,,,,,,,,,,,,,,,,,
5,15248, Note_on_c,3,47,0,,,,,,,,,,,,,,,,,,,,,,,
5,15264, Note_on_c,3,59,98,,,,,,,,,,,,,,,,,,,,,,,
5,15264, Note_on_c,3,63,127,,,,,,,,,,,,,,,,,,,,,,,
5,15264, Note_on_c,3,66,107,,,,,,,,,,,,,,,,,,,,,,,
5,15285, Note_on_c,3,59,0,,,,,,,,,,,,,,,,,,,,,,,
5,15289, Note_on_c,3,63,0,,,,,,,,,,,,,,,,,,,,,,,
5,15305, Note_on_c,3,66,0,,,,,,,,,,,,,,,,,,,,,,,
5,15312, Note_on_c,3,47,85,,,,,,,,,,,,,,,,,,,,,,,
5,15312, Note_on_c,3,59,101,,,,,,,,,,,,,,,,,,,,,,,
5,15312, Note_on_c,3,66,46,,,,,,,,,,,,,,,,,,,,,,,
5,15322, Note_on_c,3,66,0,,,,,,,,,,,,,,,,,,,,,,,
5,15342, Note_on_c,3,47,0,,,,,,,,,,,,,,,,,,,,,,,
5,15342, Note_on_c,3,59,0,,,,,,,,,,,,,,,,,,,,,,,
5,15360, Note_on_c,3,54,112,,,,,,,,,,,,,,,,,,,,,,,
5,15360, Note_on_c,3,57,122,,,,,,,,,,,,,,,,,,,,,,,
5,15360, Note_on_c,3,61,127,,,,,,,,,,,,,,,,,,,,,,,
5,15360, Note_on_c,3,66,112,,,,,,,,,,,,,,,,,,,,,,,
5,15360, Note_on_c,3,69,127,,,,,,,,,,,,,,,,,,,,,,,
5,15362, Control_c,3,64,0,,,,,,,,,,,,,,,,,,,,,,,
5,15393, Control_c,3,64,127,,,,,,,,,,,,,,,,,,,,,,,
5,15429, Note_on_c,3,57,0,,,,,,,,,,,,,,,,,,,,,,,
5,15432, Note_on_c,3,61,0,,,,,,,,,,,,,,,,,,,,,,,
5,15455, Note_on_c,3,54,0,,,,,,,,,,,,,,,,,,,,,,,
5,15456, Note_on_c,3,57,70,,,,,,,,,,,,,,,,,,,,,,,
5,15475, Note_on_c,3,69,0,,,,,,,,,,,,,,,,,,,,,,,
5,15476, Note_on_c,3,66,0,,,,,,,,,,,,,,,,,,,,,,,
5,15485, Note_on_c,3,57,0,,,,,,,,,,,,,,,,,,,,,,,
5,15504, Note_on_c,3,54,61,,,,,,,,,,,,,,,,,,,,,,,
5,15504, Note_on_c,3,57,74,,,,,,,,,,,,,,,,,,,,,,,
5,15504, Note_on_c,3,61,88,,,,,,,,,,,,,,,,,,,,,,,
5,15504, Note_on_c,3,66,74,,,,,,,,,,,,,,,,,,,,,,,
5,15504, Note_on_c,3,69,95,,,,,,,,,,,,,,,,,,,,,,,
5,15522, Note_on_c,3,54,0,,,,,,,,,,,,,,,,,,,,,,,
5,15522, Note_on_c,3,61,0,,,,,,,,,,,,,,,,,,,,,,,
5,15525, Note_on_c,3,69,0,,,,,,,,,,,,,,,,,,,,,,,
5,15529, Note_on_c,3,57,0,,,,,,,,,,,,,,,,,,,,,,,
5,15530, Note_on_c,3,66,0,,,,,,,,,,,,,,,,,,,,,,,
5,15552, Note_on_c,3,54,112,,,,,,,,,,,,,,,,,,,,,,,
5,15552, Note_on_c,3,57,101,,,,,,,,,,,,,,,,,,,,,,,
5,15552, Note_on_c,3,61,112,,,,,,,,,,,,,,,,,,,,,,,
5,15552, Note_on_c,3,66,112,,,,,,,,,,,,,,,,,,,,,,,
5,15552, Note_on_c,3,69,127,,,,,,,,,,,,,,,,,,,,,,,
5,15574, Note_on_c,3,57,0,,,,,,,,,,,,,,,,,,,,,,,
5,15585, Note_on_c,3,61,0,,,,,,,,,,,,,,,,,,,,,,,
5,15600, Note_on_c,3,57,73,,,,,,,,,,,,,,,,,,,,,,,
5,15600, Note_on_c,3,69,0,,,,,,,,,,,,,,,,,,,,,,,
5,15605, Note_on_c,3,54,0,,,,,,,,,,,,,,,,,,,,,,,
5,15621, Note_on_c,3,66,0,,,,,,,,,,,,,,,,,,,,,,,
5,15635, Note_on_c,3,57,0,,,,,,,,,,,,,,,,,,,,,,,
5,15648, Note_on_c,3,57,78,,,,,,,,,,,,,,,,,,,,,,,
5,15648, Note_on_c,3,61,95,,,,,,,,,,,,,,,,,,,,,,,
5,15648, Note_on_c,3,66,78,,,,,,,,,,,,,,,,,,,,,,,
5,15648, Note_on_c,3,69,88,,,,,,,,,,,,,,,,,,,,,,,
5,15664, Note_on_c,3,61,0,,,,,,,,,,,,,,,,,,,,,,,
5,15669, Note_on_c,3,57,0,,,,,,,,,,,,,,,,,,,,,,,
5,15669, Note_on_c,3,69,0,,,,,,,,,,,,,,,,,,,,,,,
5,15670, Note_on_c,3,66,0,,,,,,,,,,,,,,,,,,,,,,,
5,15696, Note_on_c,3,54,112,,,,,,,,,,,,,,,,,,,,,,,
5,15696, Note_on_c,3,57,118,,,,,,,,,,,,,,,,,,,,,,,
5,15696, Note_on_c,3,61,127,,,,,,,,,,,,,,,,,,,,,,,
5,15696, Note_on_c,3,66,112,,,,,,,,,,,,,,,,,,,,,,,
5,15696, Note_on_c,3,69,122,,,,,,,,,,,,,,,,,,,,,,,
5,15719, Control_c,3,64,127,,,,,,,,,,,,,,,,,,,,,,,
5,15741, Note_on_c,3,61,0,,,,,,,,,,,,,,,,,,,,,,,
5,15759, Note_on_c,3,69,0,,,,,,,,,,,,,,,,,,,,,,,
5,15760, Note_on_c,3,54,0,,,,,,,,,,,,,,,,,,,,,,,
5,15765, Note_on_c,3,66,0,,,,,,,,,,,,,,,,,,,,,,,
5,15768, Note_on_c,3,57,0,,,,,,,,,,,,,,,,,,,,,,,
5,15792, Note_on_c,3,52,122,,,,,,,,,,,,,,,,,,,,,,,
5,15792, Note_on_c,3,57,114,,,,,,,,,,,,,,,,,,,,,,,
5,15792, Note_on_c,3,61,107,,,,,,,,,,,,,,,,,,,,,,,
5,15792, Note_on_c,3,64,127,,,,,,,,,,,,,,,,,,,,,,,
5,15792, Note_on_c,3,69,104,,,,,,,,,,,,,,,,,,,,,,,
5,15803, Control_c,3,64,0,,,,,,,,,,,,,,,,,,,,,,,
5,15811, Note_on_c,3,57,0,,,,,,,,,,,,,,,,,,,,,,,
5,15821, Control_c,3,64,127,,,,,,,,,,,,,,,,,,,,,,,
5,15824, Note_on_c,3,61,0,,,,,,,,,,,,,,,,,,,,,,,
5,15827, Note_on_c,3,52,0,,,,,,,,,,,,,,,,,,,,,,,
5,15827, Note_on_c,3,64,0,,,,,,,,,,,,,,,,,,,,,,,
5,15834, Note_on_c,3,69,0,,,,,,,,,,,,,,,,,,,,,,,
5,15840, Note_on_c,3,52,127,,,,,,,,,,,,,,,,,,,,,,,
5,15840, Note_on_c,3,57,114,,,,,,,,,,,,,,,,,,,,,,,
5,15840, Note_on_c,3,61,112,,,,,,,,,,,,,,,,,,,,,,,
5,15840, Note_on_c,3,64,122,,,,,,,,,,,,,,,,,,,,,,,
5,15840, Note_on_c,3,69,83,,,,,,,,,,,,,,,,,,,,,,,
5,15913, Note_on_c,3,52,0,,,,,,,,,,,,,,,,,,,,,,,
5,15913, Note_on_c,3,61,0,,,,,,,,,,,,,,,,,,,,,,,
5,15916, Note_on_c,3,69,0,,,,,,,,,,,,,,,,,,,,,,,
5,15919, Note_on_c,3,64,0,,,,,,,,,,,,,,,,,,,,,,,
5,15926, Note_on_c,3,57,0,,,,,,,,,,,,,,,,,,,,,,,
5,15936, Note_on_c,3,52,122,,,,,,,,,,,,,,,,,,,,,,,
5,15936, Note_on_c,3,57,98,,,,,,,,,,,,,,,,,,,,,,,
5,15936, Note_on_c,3,61,127,,,,,,,,,,,,,,,,,,,,,,,
5,15936, Note_on_c,3,64,127,,,,,,,,,,,,,,,,,,,,,,,
5,15936, Note_on_c,3,69,118,,,,,,,,,,,,,,,,,,,,,,,
5,15943, Control_c,3,64,0,,,,,,,,,,,,,,,,,,,,,,,
5,15957, Note_on_c,3,57,0,,,,,,,,,,,,,,,,,,,,,,,
5,15961, Control_c,3,64,127,,,,,,,,,,,,,,,,,,,,,,,
5,15984, Note_on_c,3,57,76,,,,,,,,,,,,,,,,,,,,,,,
5,15985, Note_on_c,3,61,0,,,,,,,,,,,,,,,,,,,,,,,
5,15996, Note_on_c,3,64,0,,,,,,,,,,,,,,,,,,,,,,,
5,16005, Note_on_c,3,69,0,,,,,,,,,,,,,,,,,,,,,,,
5,16026, Note_on_c,3,57,0,,,,,,,,,,,,,,,,,,,,,,,
5,16028, Note_on_c,3,52,0,,,,,,,,,,,,,,,,,,,,,,,
5,16032, Note_on_c,3,57,80,,,,,,,,,,,,,,,,,,,,,,,
5,16032, Note_on_c,3,61,95,,,,,,,,,,,,,,,,,,,,,,,
5,16032, Note_on_c,3,64,93,,,,,,,,,,,,,,,,,,,,,,,
5,16032, Note_on_c,3,69,93,,,,,,,,,,,,,,,,,,,,,,,
5,16049, Note_on_c,3,61,0,,,,,,,,,,,,,,,,,,,,,,,
5,16050, Note_on_c,3,57,0,,,,,,,,,,,,,,,,,,,,,,,
5,16051, Note_on_c,3,64,0,,,,,,,,,,,,,,,,,,,,,,,
5,16080, Note_on_c,3,52,110,,,,,,,,,,,,,,,,,,,,,,,
5,16080, Note_on_c,3,57,67,,,,,,,,,,,,,,,,,,,,,,,
5,16080, Note_on_c,3,64,93,,,,,,,,,,,,,,,,,,,,,,,
5,16093, Note_on_c,3,64,0,,,,,,,,,,,,,,,,,,,,,,,
5,16102, Note_on_c,3,52,0,,,,,,,,,,,,,,,,,,,,,,,
5,16102, Note_on_c,3,57,0,,,,,,,,,,,,,,,,,,,,,,,
5,16104, Note_on_c,3,69,0,,,,,,,,,,,,,,,,,,,,,,,
5,16128, Note_on_c,3,52,127,,,,,,,,,,,,,,,,,,,,,,,
5,16128, Note_on_c,3,59,122,,,,,,,,,,,,,,,,,,,,,,,
5,16128, Note_on_c,3,64,127,,,,,,,,,,,,,,,,,,,,,,,
5,16128, Note_on_c,3,69,118,,,,,,,,,,,,,,,,,,,,,,,
5,16130, Control_c,3,64,0,,,,,,,,,,,,,,,,,,,,,,,
5,16156, Control_c,3,64,127,,,,,,,,,,,,,,,,,,,,,,,
5,16195, Note_on_c,3,59,0,,,,,,,,,,,,,,,,,,,,,,,
5,16202, Note_on_c,3,64,0,,,,,,,,,,,,,,,,,,,,,,,
5,16208, Note_on_c,3,69,0,,,,,,,,,,,,,,,,,,,,,,,
5,16221, Note_on_c,3,52,0,,,,,,,,,,,,,,,,,,,,,,,
5,16224, Note_on_c,3,59,85,,,,,,,,,,,,,,,,,,,,,,,
5,16224, Note_on_c,3,64,93,,,,,,,,,,,,,,,,,,,,,,,
5,16224, Note_on_c,3,69,80,,,,,,,,,,,,,,,,,,,,,,,
5,16238, Note_on_c,3,64,0,,,,,,,,,,,,,,,,,,,,,,,
5,16241, Note_on_c,3,59,0,,,,,,,,,,,,,,,,,,,,,,,
5,16244, Note_on_c,3,69,0,,,,,,,,,,,,,,,,,,,,,,,
5,16272, Note_on_c,3,52,101,,,,,,,,,,,,,,,,,,,,,,,
5,16272, Note_on_c,3,59,95,,,,,,,,,,,,,,,,,,,,,,,
5,16272, Note_on_c,3,64,107,,,,,,,,,,,,,,,,,,,,,,,
5,16272, Note_on_c,3,69,73,,,,,,,,,,,,,,,,,,,,,,,
5,16288, Note_on_c,3,64,0,,,,,,,,,,,,,,,,,,,,,,,
5,16289, Note_on_c,3,59,0,,,,,,,,,,,,,,,,,,,,,,,
5,16290, Note_on_c,3,52,0,,,,,,,,,,,,,,,,,,,,,,,
5,16292, Note_on_c,3,69,0,,,,,,,,,,,,,,,,,,,,,,,
5,16320, Note_on_c,3,52,127,,,,,,,,,,,,,,,,,,,,,,,
5,16320, Note_on_c,3,59,127,,,,,,,,,,,,,,,,,,,,,,,
5,16320, Note_on_c,3,64,127,,,,,,,,,,,,,,,,,,,,,,,
5,16320, Note_on_c,3,69,122,,,,,,,,,,,,,,,,,,,,,,,
5,16340, Note_on_c,3,59,0,,,,,,,,,,,,,,,,,,,,,,,
5,16353, Note_on_c,3,64,0,,,,,,,,,,,,,,,,,,,,,,,
5,16367, Note_on_c,3,69,0,,,,,,,,,,,,,,,,,,,,,,,
5,16368, Note_on_c,3,59,88,,,,,,,,,,,,,,,,,,,,,,,
5,16368, Note_on_c,3,69,66,,,,,,,,,,,,,,,,,,,,,,,
5,16378, Note_on_c,3,69,0,,,,,,,,,,,,,,,,,,,,,,,
5,16381, Note_on_c,3,52,0,,,,,,,,,,,,,,,,,,,,,,,
5,16391, Note_on_c,3,59,0,,,,,,,,,,,,,,,,,,,,,,,
5,16416, Note_on_c,3,59,73,,,,,,,,,,,,,,,,,,,,,,,
5,16416, Note_on_c,3,64,110,,,,,,,,,,,,,,,,,,,,,,,
5,16429, Note_on_c,3,59,0,,,,,,,,,,,,,,,,,,,,,,,
5,16436, Note_on_c,3,64,0,,,,,,,,,,,,,,,,,,,,,,,
5,16462, Control_c,3,64,0,,,,,,,,,,,,,,,,,,,,,,,
5,16464, Note_on_c,3,52,127,,,,,,,,,,,,,,,,,,,,,,,
5,16464, Note_on_c,3,59,127,,,,,,,,,,,,,,,,,,,,,,,
5,16464, Note_on_c,3,64,127,,,,,,,,,,,,,,,,,,,,,,,
5,16464, Note_on_c,3,69,118,,,,,,,,,,,,,,,,,,,,,,,
5,16479, Control_c,3,64,127,,,,,,,,,,,,,,,,,,,,,,,
5,16523, Note_on_c,3,52,0,,,,,,,,,,,,,,,,,,,,,,,
5,16526, Note_on_c,3,64,0,,,,,,,,,,,,,,,,,,,,,,,
5,16536, Note_on_c,3,59,0,,,,,,,,,,,,,,,,,,,,,,,
5,16540, Note_on_c,3,69,0,,,,,,,,,,,,,,,,,,,,,,,
5,16558, Control_c,3,64,0,,,,,,,,,,,,,,,,,,,,,,,
5,16560, Note_on_c,3,47,118,,,,,,,,,,,,,,,,,,,,,,,
5,16560, Note_on_c,3,59,118,,,,,,,,,,,,,,,,,,,,,,,
5,16560, Note_on_c,3,63,127,,,,,,,,,,,,,,,,,,,,,,,
5,16560, Note_on_c,3,66,112,,,,,,,,,,,,,,,,,,,,,,,
5,16576, Control_c,3,64,127,,,,,,,,,,,,,,,,,,,,,,,
5,16612, Note_on_c,3,63,0,,,,,,,,,,,,,,,,,,,,,,,
5,16631, Note_on_c,3,66,0,,,,,,,,,,,,,,,,,,,,,,,
5,16638, Note_on_c,3,59,0,,,,,,,,,,,,,,,,,,,,,,,
5,16639, Note_on_c,3,47,0,,,,,,,,,,,,,,,,,,,,,,,
5,16656, Note_on_c,3,47,122,,,,,,,,,,,,,,,,,,,,,,,
5,16656, Note_on_c,3,59,122,,,,,,,,,,,,,,,,,,,,,,,
5,16656, Note_on_c,3,63,127,,,,,,,,,,,,,,,,,,,,,,,
5,16656, Note_on_c,3,66,112,,,,,,,,,,,,,,,,,,,,,,,
5,16691, Note_on_c,3,59,0,,,,,,,,,,,,,,,,,,,,,,,
5,16695, Note_on_c,3,63,0,,,,,,,,,,,,,,,,,,,,,,,
5,16704, Note_on_c,3,59,93,,,,,,,,,,,,,,,,,,,,,,,
5,16704, Note_on_c,3,63,70,,,,,,,,,,,,,,,,,,,,,,,
5,16713, Note_on_c,3,63,0,,,,,,,,,,,,,,,,,,,,,,,
5,16727, Note_on_c,3,66,0,,,,,,,,,,,,,,,,,,,,,,,
5,16730, Note_on_c,3,47,0,,,,,,,,,,,,,,,,,,,,,,,
5,16733, Note_on_c,3,59,0,,,,,,,,,,,,,,,,,,,,,,,
5,16752, Note_on_c,3,47,127,,,,,,,,,,,,,,,,,,,,,,,
5,16752, Note_on_c,3,59,110,,,,,,,,,,,,,,,,,,,,,,,
5,16752, Note_on_c,3,63,127,,,,,,,,,,,,,,,,,,,,,,,
5,16752, Note_on_c,3,66,112,,,,,,,,,,,,,,,,,,,,,,,
5,16768, Note_on_c,3,63,0,,,,,,,,,,,,,,,,,,,,,,,
5,16773, Note_on_c,3,59,0,,,,,,,,,,,,,,,,,,,,,,,
5,16773, Note_on_c,3,66,0,,,,,,,,,,,,,,,,,,,,,,,
5,16781, Note_on_c,3,47,0,,,,,,,,,,,,,,,,,,,,,,,
5,16800, Note_on_c,3,47,107,,,,,,,,,,,,,,,,,,,,,,,
5,16800, Note_on_c,3,59,118,,,,,,,,,,,,,,,,,,,,,,,
5,16800, Note_on_c,3,63,127,,,,,,,,,,,,,,,,,,,,,,,
5,16800, Note_on_c,3,66,112,,,,,,,,,,,,,,,,,,,,,,,
5,16827, Note_on_c,3,59,0,,,,,,,,,,,,,,,,,,,,,,,
5,16833, Note_on_c,3,63,0,,,,,,,,,,,,,,,,,,,,,,,
5,16848, Note_on_c,3,59,93,,,,,,,,,,,,,,,,,,,,,,,
5,16853, Note_on_c,3,47,0,,,,,,,,,,,,,,,,,,,,,,,
5,16870, Note_on_c,3,66,0,,,,,,,,,,,,,,,,,,,,,,,
5,16880, Note_on_c,3,59,0,,,,,,,,,,,,,,,,,,,,,,,
5,16891, Control_c,3,64,0,,,,,,,,,,,,,,,,,,,,,,,
5,16896, Note_on_c,3,54,112,,,,,,,,,,,,,,,,,,,,,,,
5,16896, Note_on_c,3,57,127,,,,,,,,,,,,,,,,,,,,,,,
5,16896, Note_on_c,3,61,127,,,,,,,,,,,,,,,,,,,,,,,
5,16896, Note_on_c,3,66,112,,,,,,,,,,,,,,,,,,,,,,,
5,16896, Note_on_c,3,69,127,,,,,,,,,,,,,,,,,,,,,,,
5,16921, Control_c,3,64,127,,,,,,,,,,,,,,,,,,,,,,,
5,16958, Note_on_c,3,57,0,,,,,,,,,,,,,,,,,,,,,,,
5,16959, Note_on_c,3,61,0,,,,,,,,,,,,,,,,,,,,,,,
5,16966, Note_on_c,3,69,0,,,,,,,,,,,,,,,,,,,,,,,
5,16976, Note_on_c,3,66,0,,,,,,,,,,,,,,,,,,,,,,,
5,16986, Note_on_c,3,54,0,,,,,,,,,,,,,,,,,,,,,,,
5,16992, Note_on_c,3,57,91,,,,,,,,,,,,,,,,,,,,,,,
5,16992, Note_on_c,3,61,64,,,,,,,,,,,,,,,,,,,,,,,
5,16992, Note_on_c,3,66,40,,,,,,,,,,,,,,,,,,,,,,,
5,16992, Note_on_c,3,69,80,,,,,,,,,,,,,,,,,,,,,,,
5,17001, Note_on_c,3,61,0,,,,,,,,,,,,,,,,,,,,,,,
5,17006, Note_on_c,3,66,0,,,,,,,,,,,,,,,,,,,,,,,
5,17011, Note_on_c,3,69,0,,,,,,,,,,,,,,,,,,,,,,,
5,17020, Note_on_c,3,57,0,,,,,,,,,,,,,,,,,,,,,,,
5,17040, Note_on_c,3,54,78,,,,,,,,,,,,,,,,,,,,,,,
5,17040, Note_on_c,3,57,74,,,,,,,,,,,,,,,,,,,,,,,
5,17040, Note_on_c,3,61,86,,,,,,,,,,,,,,,,,,,,,,,
5,17040, Note_on_c,3,66,72,,,,,,,,,,,,,,,,,,,,,,,
5,17040, Note_on_c,3,69,88,,,,,,,,,,,,,,,,,,,,,,,
5,17058, Note_on_c,3,61,0,,,,,,,,,,,,,,,,,,,,,,,
5,17059, Note_on_c,3,69,0,,,,,,,,,,,,,,,,,,,,,,,
5,17062, Note_on_c,3,54,0,,,,,,,,,,,,,,,,,,,,,,,
5,17065, Note_on_c,3,57,0,,,,,,,,,,,,,,,,,,,,,,,
5,17069, Note_on_c,3,66,0,,,,,,,,,,,,,,,,,,,,,,,
5,17088, Note_on_c,3,54,103,,,,,,,,,,,,,,,,,,,,,,,
5,17088, Note_on_c,3,57,91,,,,,,,,,,,,,,,,,,,,,,,
5,17088, Note_on_c,3,61,112,,,,,,,,,,,,,,,,,,,,,,,
5,17088, Note_on_c,3,66,127,,,,,,,,,,,,,,,,,,,,,,,
5,17088, Note_on_c,3,69,127,,,,,,,,,,,,,,,,,,,,,,,
5,17115, Note_on_c,3,57,0,,,,,,,,,,,,,,,,,,,,,,,
5,17125, Note_on_c,3,61,0,,,,,,,,,,,,,,,,,,,,,,,
5,17136, Note_on_c,3,57,76,,,,,,,,,,,,,,,,,,,,,,,
5,17149, Note_on_c,3,69,0,,,,,,,,,,,,,,,,,,,,,,,
5,17153, Note_on_c,3,54,0,,,,,,,,,,,,,,,,,,,,,,,
5,17153, Note_on_c,3,66,0,,,,,,,,,,,,,,,,,,,,,,,
5,17175, Note_on_c,3,57,0,,,,,,,,,,,,,,,,,,,,,,,
5,17184, Note_on_c,3,61,99,,,,,,,,,,,,,,,,,,,,,,,
5,17184, Note_on_c,3,66,82,,,,,,,,,,,,,,,,,,,,,,,
5,17184, Note_on_c,3,69,93,,,,,,,,,,,,,,,,,,,,,,,
5,17197, Note_on_c,3,69,0,,,,,,,,,,,,,,,,,,,,,,,
5,17201, Note_on_c,3,61,0,,,,,,,,,,,,,,,,,,,,,,,
5,17205, Note_on_c,3,66,0,,,,,,,,,,,,,,,,,,,,,,,
5,17225, Control_c,3,64,0,,,,,,,,,,,,,,,,,,,,,,,
5,17232, Note_on_c,3,54,107,,,,,,,,,,,,,,,,,,,,,,,
5,17232, Note_on_c,3,57,118,,,,,,,,,,,,,,,,,,,,,,,
5,17232, Note_on_c,3,61,127,,,,,,,,,,,,,,,,,,,,,,,
5,17232, Note_on_c,3,66,112,,,,,,,,,,,,,,,,,,,,,,,
5,17232, Note_on_c,3,69,127,,,,,,,,,,,,,,,,,,,,,,,
5,17243, Control_c,3,64,127,,,,,,,,,,,,,,,,,,,,,,,
5,17257, Note_on_c,3,57,0,,,,,,,,,,,,,,,,,,,,,,,
5,17280, Note_on_c,3,57,85,,,,,,,,,,,,,,,,,,,,,,,
5,17289, Note_on_c,3,61,0,,,,,,,,,,,,,,,,,,,,,,,
5,17292, Note_on_c,3,69,0,,,,,,,,,,,,,,,,,,,,,,,
5,17295, Note_on_c,3,54,0,,,,,,,,,,,,,,,,,,,,,,,
5,17304, Note_on_c,3,66,0,,,,,,,,,,,,,,,,,,,,,,,
5,17309, Note_on_c,3,57,0,,,,,,,,,,,,,,,,,,,,,,,
5,17328, Note_on_c,3,52,110,,,,,,,,,,,,,,,,,,,,,,,
5,17328, Note_on_c,3,57,82,,,,,,,,,,,,,,,,,,,,,,,
5,17328, Note_on_c,3,61,95,,,,,,,,,,,,,,,,,,,,,,,
5,17328, Note_on_c,3,64,110,,,,,,,,,,,,,,,,,,,,,,,
5,17328, Note_on_c,3,66,67,,,,,,,,,,,,,,,,,,,,,,,
5,17328, Note_on_c,3,69,98,,,,,,,,,,,,,,,,,,,,,,,
5,17333, Note_on_c,3,66,0,,,,,,,,,,,,,,,,,,,,,,,
5,17341, Note_on_c,3,57,0,,,,,,,,,,,,,,,,,,,,,,,
5,17349, Note_on_c,3,61,0,,,,,,,,,,,,,,,,,,,,,,,
5,17351, Note_on_c,3,52,0,,,,,,,,,,,,,,,,,,,,,,,
5,17353, Note_on_c,3,64,0,,,,,,,,,,,,,,,,,,,,,,,
5,17353, Note_on_c,3,69,0,,,,,,,,,,,,,,,,,,,,,,,
5,17372, Control_c,3,64,0,,,,,,,,,,,,,,,,,,,,,,,
5,17376, Note_on_c,3,52,127,,,,,,,,,,,,,,,,,,,,,,,
5,17376, Note_on_c,3,57,127,,,,,,,,,,,,,,,,,,,,,,,
5,17376, Note_on_c,3,61,127,,,,,,,,,,,,,,,,,,,,,,,
5,17376, Note_on_c,3,64,127,,,,,,,,,,,,,,,,,,,,,,,
5,17376, Note_on_c,3,69,118,,,,,,,,,,,,,,,,,,,,,,,
5,17394, Control_c,3,64,127,,,,,,,,,,,,,,,,,,,,,,,
5,17434, Note_on_c,3,57,0,,,,,,,,,,,,,,,,,,,,,,,
5,17442, Note_on_c,3,52,0,,,,,,,,,,,,,,,,,,,,,,,
5,17447, Note_on_c,3,61,0,,,,,,,,,,,,,,,,,,,,,,,
5,17448, Note_on_c,3,69,0,,,,,,,,,,,,,,,,,,,,,,,
5,17450, Note_on_c,3,64,0,,,,,,,,,,,,,,,,,,,,,,,
5,17472, Note_on_c,3,52,127,,,,,,,,,,,,,,,,,,,,,,,
5,17472, Note_on_c,3,57,118,,,,,,,,,,,,,,,,,,,,,,,
5,17472, Note_on_c,3,61,127,,,,,,,,,,,,,,,,,,,,,,,
5,17472, Note_on_c,3,64,127,,,,,,,,,,,,,,,,,,,,,,,
5,17472, Note_on_c,3,66,107,,,,,,,,,,,,,,,,,,,,,,,
5,17472, Note_on_c,3,69,122,,,,,,,,,,,,,,,,,,,,,,,
5,17475, Note_on_c,3,66,0,,,,,,,,,,,,,,,,,,,,,,,
5,17496, Note_on_c,3,57,0,,,,,,,,,,,,,,,,,,,,,,,
5,17545, Note_on_c,3,61,0,,,,,,,,,,,,,,,,,,,,,,,
5,17567, Note_on_c,3,52,0,,,,,,,,,,,,,,,,,,,,,,,
5,17568, Note_on_c,3,57,107,,,,,,,,,,,,,,,,,,,,,,,
5,17576, Note_on_c,3,64,0,,,,,,,,,,,,,,,,,,,,,,,
5,17594, Note_on_c,3,69,0,,,,,,,,,,,,,,,,,,,,,,,
5,17616, Note_on_c,3,52,107,,,,,,,,,,,,,,,,,,,,,,,
5,17616, Note_on_c,3,61,103,,,,,,,,,,,,,,,,,,,,,,,
5,17625, Note_on_c,3,57,0,,,,,,,,,,,,,,,,,,,,,,,
5,17638, Note_on_c,3,52,0,,,,,,,,,,,,,,,,,,,,,,,
5,17645, Note_on_c,3,61,0,,,,,,,,,,,,,,,,,,,,,,,
5,17662, Control_c,3,64,0,,,,,,,,,,,,,,,,,,,,,,,
5,17664, Note_on_c,3,49,88,,,,,,,,,,,,,,,,,,,,,,,
5,17664, Note_on_c,3,52,127,,,,,,,,,,,,,,,,,,,,,,,
5,17664, Note_on_c,3,59,127,,,,,,,,,,,,,,,,,,,,,,,
5,17664, Note_on_c,3,64,127,,,,,,,,,,,,,,,,,,,,,,,
5,17664, Note_on_c,3,66,88,,,,,,,,,,,,,,,,,,,,,,,
5,17664, Note_on_c,3,69,118,,,,,,,,,,,,,,,,,,,,,,,
5,17667, Note_on_c,3,66,0,,,,,,,,,,,,,,,,,,,,,,,
5,17668, Note_on_c,3,49,0,,,,,,,,,,,,,,,,,,,,,,,
5,17688, Control_c,3,64,127,,,,,,,,,,,,,,,,,,,,,,,
5,17730, Note_on_c,3,59,0,,,,,,,,,,,,,,,,,,,,,,,
5,17740, Note_on_c,3,64,0,,,,,,,,,,,,,,,,,,,,,,,
5,17750, Note_on_c,3,69,0,,,,,,,,,,,,,,,,,,,,,,,
5,17758, Note_on_c,3,52,0,,,,,,,,,,,,,,,,,,,,,,,
5,17760, Note_on_c,3,59,88,,,,,,,,,,,,,,,,,,,,,,,
5,17760, Note_on_c,3,64,98,,,,,,,,,,,,,,,,,,,,,,,
5,17760, Note_on_c,3,69,73,,,,,,,,,,,,,,,,,,,,,,,
5,17779, Note_on_c,3,64,0,,,,,,,,,,,,,,,,,,,,,,,
5,17782, Note_on_c,3,59,0,,,,,,,,,,,,,,,,,,,,,,,
5,17786, Note_on_c,3,69,0,,,,,,,,,,,,,,,,,,,,,,,
5,17808, Note_on_c,3,52,93,,,,,,,,,,,,,,,,,,,,,,,
5,17808, Note_on_c,3,59,85,,,,,,,,,,,,,,,,,,,,,,,
5,17808, Note_on_c,3,64,114,,,,,,,,,,,,,,,,,,,,,,,
5,17808, Note_on_c,3,69,76,,,,,,,,,,,,,,,,,,,,,,,
5,17821, Note_on_c,3,69,0,,,,,,,,,,,,,,,,,,,,,,,
5,17825, Note_on_c,3,59,0,,,,,,,,,,,,,,,,,,,,,,,
5,17829, Note_on_c,3,64,0,,,,,,,,,,,,,,,,,,,,,,,
5,17832, Note_on_c,3,52,0,,,,,,,,,,,,,,,,,,,,,,,
5,17851, Control_c,3,64,0,,,,,,,,,,,,,,,,,,,,,,,
5,17856, Note_on_c,3,52,127,,,,,,,,,,,,,,,,,,,,,,,
5,17856, Note_on_c,3,59,127,,,,,,,,,,,,,,,,,,,,,,,
5,17856, Note_on_c,3,64,127,,,,,,,,,,,,,,,,,,,,,,,
5,17856, Note_on_c,3,69,118,,,,,,,,,,,,,,,,,,,,,,,
5,17869, Control_c,3,64,127,,,,,,,,,,,,,,,,,,,,,,,
5,17887, Note_on_c,3,59,0,,,,,,,,,,,,,,,,,,,,,,,
5,17901, Note_on_c,3,64,0,,,,,,,,,,,,,,,,,,,,,,,
5,17904, Note_on_c,3,59,88,,,,,,,,,,,,,,,,,,,,,,,
5,17931, Note_on_c,3,59,0,,,,,,,,,,,,,,,,,,,,,,,
5,17934, Note_on_c,3,69,0,,,,,,,,,,,,,,,,,,,,,,,
5,17935, Note_on_c,3,52,0,,,,,,,,,,,,,,,,,,,,,,,
5,17952, Note_on_c,3,64,118,,,,,,,,,,,,,,,,,,,,,,,
5,17976, Note_on_c,3,64,0,,,,,,,,,,,,,,,,,,,,,,,
5,17993, Control_c,3,64,0,,,,,,,,,,,,,,,,,,,,,,,
5,18000, Note_on_c,3,52,127,,,,,,,,,,,,,,,,,,,,,,,
5,18000, Note_on_c,3,59,127,,,,,,,,,,,,,,,,,,,,,,,
5,18000, Note_on_c,3,64,127,,,,,,,,,,,,,,,,,,,,,,,
5,18000, Note_on_c,3,66,103,,,,,,,,,,,,,,,,,,,,,,,
5,18000, Note_on_c,3,69,122,,,,,,,,,,,,,,,,,,,,,,,
5,18004, Note_on_c,3,66,0,,,,,,,,,,,,,,,,,,,,,,,
5,18019, Control_c,3,64,127,,,,,,,,,,,,,,,,,,,,,,,
5,18042, Note_on_c,3,59,0,,,,,,,,,,,,,,,,,,,,,,,
5,18048, Note_on_c,3,59,56,,,,,,,,,,,,,,,,,,,,,,,
5,18060, Note_on_c,3,59,0,,,,,,,,,,,,,,,,,,,,,,,
5,18062, Note_on_c,3,52,0,,,,,,,,,,,,,,,,,,,,,,,
5,18072, Note_on_c,3,64,0,,,,,,,,,,,,,,,,,,,,,,,
5,18082, Note_on_c,3,69,0,,,,,,,,,,,,,,,,,,,,,,,
5,18096, Note_on_c,3,47,85,,,,,,,,,,,,,,,,,,,,,,,
5,18096, Note_on_c,3,59,82,,,,,,,,,,,,,,,,,,,,,,,
5,18096, Note_on_c,3,63,99,,,,,,,,,,,,,,,,,,,,,,,
5,18096, Note_on_c,3,66,82,,,,,,,,,,,,,,,,,,,,,,,
5,18112, Note_on_c,3,63,0,,,,,,,,,,,,,,,,,,,,,,,
5,18115, Note_on_c,3,59,0,,,,,,,,,,,,,,,,,,,,,,,
5,18120, Note_on_c,3,47,0,,,,,,,,,,,,,,,,,,,,,,,
5,18120, Note_on_c,3,66,0,,,,,,,,,,,,,,,,,,,,,,,
5,18144, Note_on_c,3,47,127,,,,,,,,,,,,,,,,,,,,,,,
5,18144, Note_on_c,3,59,127,,,,,,,,,,,,,,,,,,,,,,,
5,18144, Note_on_c,3,63,127,,,,,,,,,,,,,,,,,,,,,,,
5,18144, Note_on_c,3,66,112,,,,,,,,,,,,,,,,,,,,,,,
5,18152, Control_c,3,64,0,,,,,,,,,,,,,,,,,,,,,,,
5,18174, Control_c,3,64,127,,,,,,,,,,,,,,,,,,,,,,,
5,18219, Note_on_c,3,63,0,,,,,,,,,,,,,,,,,,,,,,,
5,18221, Note_on_c,3,47,0,,,,,,,,,,,,,,,,,,,,,,,
5,18221, Note_on_c,3,59,0,,,,,,,,,,,,,,,,,,,,,,,
5,18224, Note_on_c,3,66,0,,,,,,,,,,,,,,,,,,,,,,,
5,18240, Note_on_c,3,47,127,,,,,,,,,,,,,,,,,,,,,,,
5,18240, Note_on_c,3,59,122,,,,,,,,,,,,,,,,,,,,,,,
5,18240, Note_on_c,3,63,127,,,,,,,,,,,,,,,,,,,,,,,
5,18240, Note_on_c,3,66,112,,,,,,,,,,,,,,,,,,,,,,,
5,18307, Note_on_c,3,63,0,,,,,,,,,,,,,,,,,,,,,,,
5,18312, Note_on_c,3,66,0,,,,,,,,,,,,,,,,,,,,,,,
5,18316, Note_on_c,3,47,0,,,,,,,,,,,,,,,,,,,,,,,
5,18317, Note_on_c,3,59,0,,,,,,,,,,,,,,,,,,,,,,,
5,18336, Note_on_c,3,47,104,,,,,,,,,,,,,,,,,,,,,,,
5,18336, Note_on_c,3,59,127,,,,,,,,,,,,,,,,,,,,,,,
5,18336, Note_on_c,3,63,127,,,,,,,,,,,,,,,,,,,,,,,
5,18336, Note_on_c,3,66,107,,,,,,,,,,,,,,,,,,,,,,,
5,18357, Note_on_c,3,59,0,,,,,,,,,,,,,,,,,,,,,,,
5,18365, Note_on_c,3,63,0,,,,,,,,,,,,,,,,,,,,,,,
5,18384, Note_on_c,3,47,0,,,,,,,,,,,,,,,,,,,,,,,
5,18384, Note_on_c,3,59,85,,,,,,,,,,,,,,,,,,,,,,,
5,18408, Note_on_c,3,59,0,,,,,,,,,,,,,,,,,,,,,,,
5,18411, Note_on_c,3,66,0,,,,,,,,,,,,,,,,,,,,,,,
5,18432, Note_on_c,3,54,127,,,,,,,,,,,,,,,,,,,,,,,
5,18432, Note_on_c,3,57,127,,,,,,,,,,,,,,,,,,,,,,,
5,18432, Note_on_c,3,59,122,,,,,,,,,,,,,,,,,,,,,,,
5,18432, Note_on_c,3,61,127,,,,,,,,,,,,,,,,,,,,,,,
5,18432, Note_on_c,3,66,112,,,,,,,,,,,,,,,,,,,,,,,
5,18432, Note_on_c,3,69,127,,,,,,,,,,,,,,,,,,,,,,,
5,18437, Control_c,3,64,0,,,,,,,,,,,,,,,,,,,,,,,
5,18467, Control_c,3,64,127,,,,,,,,,,,,,,,,,,,,,,,
5,18468, Note_on_c,3,59,0,,,,,,,,,,,,,,,,,,,,,,,
5,18490, Note_on_c,3,57,0,,,,,,,,,,,,,,,,,,,,,,,
5,18502, Note_on_c,3,61,0,,,,,,,,,,,,,,,,,,,,,,,
5,18505, Note_on_c,3,69,0,,,,,,,,,,,,,,,,,,,,,,,
5,18520, Note_on_c,3,54,0,,,,,,,,,,,,,,,,,,,,,,,
5,18528, Note_on_c,3,57,87,,,,,,,,,,,,,,,,,,,,,,,
5,18547, Note_on_c,3,66,0,,,,,,,,,,,,,,,,,,,,,,,
5,18557, Note_on_c,3,57,0,,,,,,,,,,,,,,,,,,,,,,,
5,18576, Note_on_c,3,54,88,,,,,,,,,,,,,,,,,,,,,,,
5,18576, Note_on_c,3,61,103,,,,,,,,,,,,,,,,,,,,,,,
5,18600, Note_on_c,3,54,0,,,,,,,,,,,,,,,,,,,,,,,
5,18602, Note_on_c,3,61,0,,,,,,,,,,,,,,,,,,,,,,,
5,18617, Control_c,3,64,0,,,,,,,,,,,,,,,,,,,,,,,
5,18624, Note_on_c,3,54,112,,,,,,,,,,,,,,,,,,,,,,,
5,18624, Note_on_c,3,57,122,,,,,,,,,,,,,,,,,,,,,,,
5,18624, Note_on_c,3,61,112,,,,,,,,,,,,,,,,,,,,,,,
5,18624, Note_on_c,3,66,107,,,,,,,,,,,,,,,,,,,,,,,
5,18624, Note_on_c,3,69,127,,,,,,,,,,,,,,,,,,,,,,,
5,18634, Control_c,3,64,127,,,,,,,,,,,,,,,,,,,,,,,
5,18668, Note_on_c,3,57,0,,,,,,,,,,,,,,,,,,,,,,,
5,18682, Note_on_c,3,61,0,,,,,,,,,,,,,,,,,,,,,,,
5,18703, Note_on_c,3,54,0,,,,,,,,,,,,,,,,,,,,,,,
5,18703, Note_on_c,3,69,0,,,,,,,,,,,,,,,,,,,,,,,
5,18708, Note_on_c,3,66,0,,,,,,,,,,,,,,,,,,,,,,,
5,18720, Note_on_c,3,57,93,,,,,,,,,,,,,,,,,,,,,,,
5,18720, Note_on_c,3,61,99,,,,,,,,,,,,,,,,,,,,,,,
5,18720, Note_on_c,3,66,57,,,,,,,,,,,,,,,,,,,,,,,
5,18720, Note_on_c,3,69,80,,,,,,,,,,,,,,,,,,,,,,,
5,18735, Note_on_c,3,69,0,,,,,,,,,,,,,,,,,,,,,,,
5,18736, Note_on_c,3,61,0,,,,,,,,,,,,,,,,,,,,,,,
5,18737, Note_on_c,3,66,0,,,,,,,,,,,,,,,,,,,,,,,
5,18743, Note_on_c,3,57,0,,,,,,,,,,,,,,,,,,,,,,,
5,18768, Note_on_c,3,54,112,,,,,,,,,,,,,,,,,,,,,,,
5,18768, Note_on_c,3,57,114,,,,,,,,,,,,,,,,,,,,,,,
5,18768, Note_on_c,3,61,112,,,,,,,,,,,,,,,,,,,,,,,
5,18768, Note_on_c,3,66,107,,,,,,,,,,,,,,,,,,,,,,,
5,18768, Note_on_c,3,69,127,,,,,,,,,,,,,,,,,,,,,,,
5,18775, Control_c,3,64,0,,,,,,,,,,,,,,,,,,,,,,,
5,18793, Control_c,3,64,127,,,,,,,,,,,,,,,,,,,,,,,
5,18802, Note_on_c,3,57,0,,,,,,,,,,,,,,,,,,,,,,,
5,18816, Note_on_c,3,57,80,,,,,,,,,,,,,,,,,,,,,,,
5,18826, Note_on_c,3,61,0,,,,,,,,,,,,,,,,,,,,,,,
5,18835, Note_on_c,3,54,0,,,,,,,,,,,,,,,,,,,,,,,
5,18835, Note_on_c,3,69,0,,,,,,,,,,,,,,,,,,,,,,,
5,18842, Note_on_c,3,57,0,,,,,,,,,,,,,,,,,,,,,,,
5,18849, Note_on_c,3,66,0,,,,,,,,,,,,,,,,,,,,,,,
5,18864, Note_on_c,3,52,110,,,,,,,,,,,,,,,,,,,,,,,
5,18864, Note_on_c,3,57,70,,,,,,,,,,,,,,,,,,,,,,,
5,18864, Note_on_c,3,61,99,,,,,,,,,,,,,,,,,,,,,,,
5,18864, Note_on_c,3,64,101,,,,,,,,,,,,,,,,,,,,,,,
5,18864, Note_on_c,3,69,74,,,,,,,,,,,,,,,,,,,,,,,
5,18875, Note_on_c,3,57,0,,,,,,,,,,,,,,,,,,,,,,,
5,18876, Note_on_c,3,69,0,,,,,,,,,,,,,,,,,,,,,,,
5,18882, Note_on_c,3,61,0,,,,,,,,,,,,,,,,,,,,,,,
5,18888, Note_on_c,3,64,0,,,,,,,,,,,,,,,,,,,,,,,
5,18890, Note_on_c,3,52,0,,,,,,,,,,,,,,,,,,,,,,,
5,18912, Note_on_c,3,52,127,,,,,,,,,,,,,,,,,,,,,,,
5,18912, Note_on_c,3,57,127,,,,,,,,,,,,,,,,,,,,,,,
5,18912, Note_on_c,3,61,127,,,,,,,,,,,,,,,,,,,,,,,
5,18912, Note_on_c,3,69,122,,,,,,,,,,,,,,,,,,,,,,,
5,18912, Control_c,3,64,0,,,,,,,,,,,,,,,,,,,,,,,
5,18912, Note_on_c,3,64,127,,,,,,,,,,,,,,,,,,,,,,,
5,18939, Control_c,3,64,127,,,,,,,,,,,,,,,,,,,,,,,
5,18983, Note_on_c,3,69,0,,,,,,,,,,,,,,,,,,,,,,,
5,18984, Note_on_c,3,57,0,,,,,,,,,,,,,,,,,,,,,,,
5,18984, Note_on_c,3,61,0,,,,,,,,,,,,,,,,,,,,,,,
5,18985, Note_on_c,3,52,0,,,,,,,,,,,,,,,,,,,,,,,
5,18987, Note_on_c,3,64,0,,,,,,,,,,,,,,,,,,,,,,,
5,19008, Note_on_c,3,52,122,,,,,,,,,,,,,,,,,,,,,,,
5,19008, Note_on_c,3,57,122,,,,,,,,,,,,,,,,,,,,,,,
5,19008, Note_on_c,3,61,127,,,,,,,,,,,,,,,,,,,,,,,
5,19008, Note_on_c,3,64,127,,,,,,,,,,,,,,,,,,,,,,,
5,19008, Note_on_c,3,69,110,,,,,,,,,,,,,,,,,,,,,,,
5,19022, Control_c,3,64,127,,,,,,,,,,,,,,,,,,,,,,,
5,19075, Note_on_c,3,61,0,,,,,,,,,,,,,,,,,,,,,,,
5,19084, Note_on_c,3,57,0,,,,,,,,,,,,,,,,,,,,,,,
5,19085, Note_on_c,3,64,0,,,,,,,,,,,,,,,,,,,,,,,
5,19090, Note_on_c,3,69,0,,,,,,,,,,,,,,,,,,,,,,,
5,19101, Note_on_c,3,52,0,,,,,,,,,,,,,,,,,,,,,,,
5,19104, Note_on_c,3,57,85,,,,,,,,,,,,,,,,,,,,,,,
5,19104, Note_on_c,3,61,99,,,,,,,,,,,,,,,,,,,,,,,
5,19104, Note_on_c,3,69,70,,,,,,,,,,,,,,,,,,,,,,,
5,19119, Note_on_c,3,61,0,,,,,,,,,,,,,,,,,,,,,,,
5,19122, Note_on_c,3,57,0,,,,,,,,,,,,,,,,,,,,,,,
5,19127, Note_on_c,3,69,0,,,,,,,,,,,,,,,,,,,,,,,
5,19152, Note_on_c,3,52,114,,,,,,,,,,,,,,,,,,,,,,,
5,19152, Note_on_c,3,64,104,,,,,,,,,,,,,,,,,,,,,,,
5,19169, Note_on_c,3,64,0,,,,,,,,,,,,,,,,,,,,,,,
5,19173, Note_on_c,3,52,0,,,,,,,,,,,,,,,,,,,,,,,
5,19200, Note_on_c,3,52,127,,,,,,,,,,,,,,,,,,,,,,,
5,19200, Note_on_c,3,59,127,,,,,,,,,,,,,,,,,,,,,,,
5,19200, Note_on_c,3,64,127,,,,,,,,,,,,,,,,,,,,,,,
5,19200, Note_on_c,3,69,114,,,,,,,,,,,,,,,,,,,,,,,
5,19202, Control_c,3,64,0,,,,,,,,,,,,,,,,,,,,,,,
5,19237, Control_c,3,64,127,,,,,,,,,,,,,,,,,,,,,,,
5,19270, Note_on_c,3,59,0,,,,,,,,,,,,,,,,,,,,,,,
5,19275, Note_on_c,3,64,0,,,,,,,,,,,,,,,,,,,,,,,
5,19293, Note_on_c,3,52,0,,,,,,,,,,,,,,,,,,,,,,,
5,19296, Note_on_c,3,59,91,,,,,,,,,,,,,,,,,,,,,,,
5,19296, Note_on_c,3,64,95,,,,,,,,,,,,,,,,,,,,,,,
5,19312, Note_on_c,3,64,0,,,,,,,,,,,,,,,,,,,,,,,
5,19315, Note_on_c,3,59,0,,,,,,,,,,,,,,,,,,,,,,,
5,19324, Note_on_c,3,69,0,,,,,,,,,,,,,,,,,,,,,,,
5,19344, Note_on_c,3,52,80,,,,,,,,,,,,,,,,,,,,,,,
5,19344, Note_on_c,3,59,80,,,,,,,,,,,,,,,,,,,,,,,
5,19344, Note_on_c,3,64,107,,,,,,,,,,,,,,,,,,,,,,,
5,19358, Note_on_c,3,59,0,,,,,,,,,,,,,,,,,,,,,,,
5,19361, Note_on_c,3,64,0,,,,,,,,,,,,,,,,,,,,,,,
5,19364, Note_on_c,3,52,0,,,,,,,,,,,,,,,,,,,,,,,
5,19392, Note_on_c,3,52,114,,,,,,,,,,,,,,,,,,,,,,,
5,19392, Note_on_c,3,59,122,,,,,,,,,,,,,,,,,,,,,,,
5,19392, Note_on_c,3,64,127,,,,,,,,,,,,,,,,,,,,,,,
5,19392, Note_on_c,3,69,118,,,,,,,,,,,,,,,,,,,,,,,
5,19415, Note_on_c,3,59,0,,,,,,,,,,,,,,,,,,,,,,,
5,19433, Note_on_c,3,64,0,,,,,,,,,,,,,,,,,,,,,,,
5,19440, Note_on_c,3,59,88,,,,,,,,,,,,,,,,,,,,,,,
5,19461, Note_on_c,3,69,0,,,,,,,,,,,,,,,,,,,,,,,
5,19466, Note_on_c,3,59,0,,,,,,,,,,,,,,,,,,,,,,,
5,19467, Note_on_c,3,52,0,,,,,,,,,,,,,,,,,,,,,,,
5,19488, Note_on_c,3,64,114,,,,,,,,,,,,,,,,,,,,,,,
5,19509, Note_on_c,3,64,0,,,,,,,,,,,,,,,,,,,,,,,
5,19536, Note_on_c,3,52,122,,,,,,,,,,,,,,,,,,,,,,,
5,19536, Note_on_c,3,59,122,,,,,,,,,,,,,,,,,,,,,,,
5,19536, Note_on_c,3,64,127,,,,,,,,,,,,,,,,,,,,,,,
5,19536, Note_on_c,3,66,95,,,,,,,,,,,,,,,,,,,,,,,
5,19536, Note_on_c,3,69,122,,,,,,,,,,,,,,,,,,,,,,,
5,19540, Note_on_c,3,66,0,,,,,,,,,,,,,,,,,,,,,,,
5,19566, Note_on_c,3,59,0,,,,,,,,,,,,,,,,,,,,,,,
5,19584, Note_on_c,3,59,74,,,,,,,,,,,,,,,,,,,,,,,
5,19592, Note_on_c,3,52,0,,,,,,,,,,,,,,,,,,,,,,,
5,19598, Note_on_c,3,64,0,,,,,,,,,,,,,,,,,,,,,,,
5,19609, Note_on_c,3,59,0,,,,,,,,,,,,,,,,,,,,,,,
5,19611, Note_on_c,3,69,0,,,,,,,,,,,,,,,,,,,,,,,
5,19622, Control_c,3,64,0,,,,,,,,,,,,,,,,,,,,,,,
5,19632, Note_on_c,3,47,118,,,,,,,,,,,,,,,,,,,,,,,
5,19632, Note_on_c,3,59,118,,,,,,,,,,,,,,,,,,,,,,,
5,19632, Note_on_c,3,63,127,,,,,,,,,,,,,,,,,,,,,,,
5,19632, Note_on_c,3,66,107,,,,,,,,,,,,,,,,,,,,,,,
5,19645, Control_c,3,64,127,,,,,,,,,,,,,,,,,,,,,,,
5,19661, Note_on_c,3,59,0,,,,,,,,,,,,,,,,,,,,,,,
5,19680, Note_on_c,3,59,85,,,,,,,,,,,,,,,,,,,,,,,
5,19691, Note_on_c,3,63,0,,,,,,,,,,,,,,,,,,,,,,,
5,19702, Note_on_c,3,66,0,,,,,,,,,,,,,,,,,,,,,,,
5,19705, Note_on_c,3,59,0,,,,,,,,,,,,,,,,,,,,,,,
5,19708, Note_on_c,3,47,0,,,,,,,,,,,,,,,,,,,,,,,
5,19728, Note_on_c,3,47,122,,,,,,,,,,,,,,,,,,,,,,,
5,19728, Note_on_c,3,59,122,,,,,,,,,,,,,,,,,,,,,,,
5,19728, Note_on_c,3,63,127,,,,,,,,,,,,,,,,,,,,,,,
5,19728, Note_on_c,3,66,107,,,,,,,,,,,,,,,,,,,,,,,
5,19784, Note_on_c,3,59,0,,,,,,,,,,,,,,,,,,,,,,,
5,19800, Note_on_c,3,63,0,,,,,,,,,,,,,,,,,,,,,,,
5,19805, Note_on_c,3,66,0,,,,,,,,,,,,,,,,,,,,,,,
5,19807, Note_on_c,3,47,0,,,,,,,,,,,,,,,,,,,,,,,
5,19824, Note_on_c,3,47,122,,,,,,,,,,,,,,,,,,,,,,,
5,19824, Note_on_c,3,57,101,,,,,,,,,,,,,,,,,,,,,,,
5,19824, Note_on_c,3,64,104,,,,,,,,,,,,,,,,,,,,,,,
5,19824, Note_on_c,3,66,82,,,,,,,,,,,,,,,,,,,,,,,
5,19842, Note_on_c,3,66,0,,,,,,,,,,,,,,,,,,,,,,,
5,19848, Note_on_c,3,57,0,,,,,,,,,,,,,,,,,,,,,,,
5,19851, Note_on_c,3,47,0,,,,,,,,,,,,,,,,,,,,,,,
5,19853, Note_on_c,3,64,0,,,,,,,,,,,,,,,,,,,,,,,
5,19872, Note_on_c,3,47,118,,,,,,,,,,,,,,,,,,,,,,,
5,19872, Note_on_c,3,59,114,,,,,,,,,,,,,,,,,,,,,,,
5,19872, Note_on_c,3,64,118,,,,,,,,,,,,,,,,,,,,,,,
5,19872, Note_on_c,3,66,107,,,,,,,,,,,,,,,,,,,,,,,
5,19883, Note_on_c,3,64,0,,,,,,,,,,,,,,,,,,,,,,,
5,19934, Note_on_c,3,47,0,,,,,,,,,,,,,,,,,,,,,,,
5,19941, Note_on_c,3,59,0,,,,,,,,,,,,,,,,,,,,,,,
5,19943, Note_on_c,3,66,0,,,,,,,,,,,,,,,,,,,,,,,
5,19952, Control_c,3,64,0,,,,,,,,,,,,,,,,,,,,,,,
5,19968, Note_on_c,3,50,127,,,,,,,,,,,,,,,,,,,,,,,
5,19968, Note_on_c,3,57,107,,,,,,,,,,,,,,,,,,,,,,,
5,19968, Note_on_c,3,62,127,,,,,,,,,,,,,,,,,,,,,,,
5,19968, Note_on_c,3,66,103,,,,,,,,,,,,,,,,,,,,,,,
5,19968, Note_on_c,3,69,118,,,,,,,,,,,,,,,,,,,,,,,
5,19980, Control_c,3,64,127,,,,,,,,,,,,,,,,,,,,,,,
5,19989, Note_on_c,3,57,0,,,,,,,,,,,,,,,,,,,,,,,
5,20016, Note_on_c,3,57,71,,,,,,,,,,,,,,,,,,,,,,,
5,20028, Note_on_c,3,62,0,,,,,,,,,,,,,,,,,,,,,,,
5,20030, Note_on_c,3,66,0,,,,,,,,,,,,,,,,,,,,,,,
5,20030, Note_on_c,3,69,0,,,,,,,,,,,,,,,,,,,,,,,
5,20037, Note_on_c,3,57,0,,,,,,,,,,,,,,,,,,,,,,,
5,20064, Note_on_c,3,57,98,,,,,,,,,,,,,,,,,,,,,,,
5,20064, Note_on_c,3,62,122,,,,,,,,,,,,,,,,,,,,,,,
5,20064, Note_on_c,3,66,95,,,,,,,,,,,,,,,,,,,,,,,
5,20064, Note_on_c,3,69,107,,,,,,,,,,,,,,,,,,,,,,,
5,20083, Note_on_c,3,50,0,,,,,,,,,,,,,,,,,,,,,,,
5,20086, Note_on_c,3,57,0,,,,,,,,,,,,,,,,,,,,,,,
5,20095, Note_on_c,3,62,0,,,,,,,,,,,,,,,,,,,,,,,
5,20098, Note_on_c,3,66,0,,,,,,,,,,,,,,,,,,,,,,,
5,20100, Note_on_c,3,69,0,,,,,,,,,,,,,,,,,,,,,,,
5,20112, Note_on_c,3,50,98,,,,,,,,,,,,,,,,,,,,,,,
5,20112, Note_on_c,3,57,66,,,,,,,,,,,,,,,,,,,,,,,
5,20136, Note_on_c,3,57,0,,,,,,,,,,,,,,,,,,,,,,,
5,20142, Note_on_c,3,50,0,,,,,,,,,,,,,,,,,,,,,,,
5,20160, Note_on_c,3,50,101,,,,,,,,,,,,,,,,,,,,,,,
5,20160, Note_on_c,3,57,80,,,,,,,,,,,,,,,,,,,,,,,
5,20160, Note_on_c,3,62,104,,,,,,,,,,,,,,,,,,,,,,,
5,20160, Note_on_c,3,66,80,,,,,,,,,,,,,,,,,,,,,,,
5,20160, Note_on_c,3,69,91,,,,,,,,,,,,,,,,,,,,,,,
5,20179, Note_on_c,3,57,0,,,,,,,,,,,,,,,,,,,,,,,
5,20188, Note_on_c,3,62,0,,,,,,,,,,,,,,,,,,,,,,,
5,20190, Note_on_c,3,69,0,,,,,,,,,,,,,,,,,,,,,,,
5,20194, Note_on_c,3,66,0,,,,,,,,,,,,,,,,,,,,,,,
5,20208, Note_on_c,3,57,82,,,,,,,,,,,,,,,,,,,,,,,
5,20235, Note_on_c,3,57,0,,,,,,,,,,,,,,,,,,,,,,,
5,20254, Note_on_c,3,50,0,,,,,,,,,,,,,,,,,,,,,,,
5,20256, Note_on_c,3,57,82,,,,,,,,,,,,,,,,,,,,,,,
5,20256, Note_on_c,3,62,98,,,,,,,,,,,,,,,,,,,,,,,
5,20256, Note_on_c,3,66,61,,,,,,,,,,,,,,,,,,,,,,,
5,20256, Note_on_c,3,69,83,,,,,,,,,,,,,,,,,,,,,,,
5,20268, Note_on_c,3,66,0,,,,,,,,,,,,,,,,,,,,,,,
5,20274, Note_on_c,3,57,0,,,,,,,,,,,,,,,,,,,,,,,
5,20276, Note_on_c,3,62,0,,,,,,,,,,,,,,,,,,,,,,,
5,20304, Note_on_c,3,50,104,,,,,,,,,,,,,,,,,,,,,,,
5,20304, Note_on_c,3,59,74,,,,,,,,,,,,,,,,,,,,,,,
5,20321, Note_on_c,3,69,0,,,,,,,,,,,,,,,,,,,,,,,
5,20332, Note_on_c,3,59,0,,,,,,,,,,,,,,,,,,,,,,,
5,20334, Note_on_c,3,50,0,,,,,,,,,,,,,,,,,,,,,,,
5,20352, Note_on_c,3,52,118,,,,,,,,,,,,,,,,,,,,,,,
5,20352, Note_on_c,3,59,88,,,,,,,,,,,,,,,,,,,,,,,
5,20352, Note_on_c,3,64,110,,,,,,,,,,,,,,,,,,,,,,,
5,20352, Note_on_c,3,68,86,,,,,,,,,,,,,,,,,,,,,,,
5,20353, Control_c,3,64,0,,,,,,,,,,,,,,,,,,,,,,,
5,20401, Control_c,3,64,127,,,,,,,,,,,,,,,,,,,,,,,
5,20422, Note_on_c,3,68,0,,,,,,,,,,,,,,,,,,,,,,,
5,20423, Note_on_c,3,64,0,,,,,,,,,,,,,,,,,,,,,,,
5,20431, Note_on_c,3,59,0,,,,,,,,,,,,,,,,,,,,,,,
5,20448, Note_on_c,3,59,85,,,,,,,,,,,,,,,,,,,,,,,
5,20448, Note_on_c,3,64,104,,,,,,,,,,,,,,,,,,,,,,,
5,20448, Note_on_c,3,68,78,,,,,,,,,,,,,,,,,,,,,,,
5,20462, Note_on_c,3,52,0,,,,,,,,,,,,,,,,,,,,,,,
5,20472, Note_on_c,3,59,0,,,,,,,,,,,,,,,,,,,,,,,
5,20480, Note_on_c,3,64,0,,,,,,,,,,,,,,,,,,,,,,,
5,20496, Note_on_c,3,52,98,,,,,,,,,,,,,,,,,,,,,,,
5,20496, Note_on_c,3,59,74,,,,,,,,,,,,,,,,,,,,,,,
5,20496, Note_on_c,3,64,70,,,,,,,,,,,,,,,,,,,,,,,
5,20512, Note_on_c,3,64,0,,,,,,,,,,,,,,,,,,,,,,,
5,20515, Note_on_c,3,68,0,,,,,,,,,,,,,,,,,,,,,,,
5,20524, Note_on_c,3,52,0,,,,,,,,,,,,,,,,,,,,,,,
5,20529, Note_on_c,3,59,0,,,,,,,,,,,,,,,,,,,,,,,
5,20544, Note_on_c,3,52,101,,,,,,,,,,,,,,,,,,,,,,,
5,20544, Note_on_c,3,59,85,,,,,,,,,,,,,,,,,,,,,,,
5,20544, Note_on_c,3,64,93,,,,,,,,,,,,,,,,,,,,,,,
5,20544, Note_on_c,3,68,78,,,,,,,,,,,,,,,,,,,,,,,
5,20568, Note_on_c,3,59,0,,,,,,,,,,,,,,,,,,,,,,,
5,20574, Note_on_c,3,64,0,,,,,,,,,,,,,,,,,,,,,,,
5,20581, Note_on_c,3,68,0,,,,,,,,,,,,,,,,,,,,,,,
5,20592, Note_on_c,3,59,71,,,,,,,,,,,,,,,,,,,,,,,
5,20592, Note_on_c,3,64,61,,,,,,,,,,,,,,,,,,,,,,,
5,20592, Note_on_c,3,68,37,,,,,,,,,,,,,,,,,,,,,,,
5,20600, Note_on_c,3,64,0,,,,,,,,,,,,,,,,,,,,,,,
5,20602, Note_on_c,3,68,0,,,,,,,,,,,,,,,,,,,,,,,
5,20616, Note_on_c,3,59,0,,,,,,,,,,,,,,,,,,,,,,,
5,20627, Note_on_c,3,52,0,,,,,,,,,,,,,,,,,,,,,,,
5,20640, Note_on_c,3,59,88,,,,,,,,,,,,,,,,,,,,,,,
5,20640, Note_on_c,3,64,88,,,,,,,,,,,,,,,,,,,,,,,
5,20640, Note_on_c,3,68,56,,,,,,,,,,,,,,,,,,,,,,,
5,20651, Note_on_c,3,68,0,,,,,,,,,,,,,,,,,,,,,,,
5,20655, Note_on_c,3,64,0,,,,,,,,,,,,,,,,,,,,,,,
5,20668, Note_on_c,3,59,0,,,,,,,,,,,,,,,,,,,,,,,
5,20688, Note_on_c,3,52,80,,,,,,,,,,,,,,,,,,,,,,,
5,20688, Note_on_c,3,57,82,,,,,,,,,,,,,,,,,,,,,,,
5,20688, Note_on_c,3,61,103,,,,,,,,,,,,,,,,,,,,,,,
5,20688, Note_on_c,3,66,80,,,,,,,,,,,,,,,,,,,,,,,
5,20705, Control_c,3,64,0,,,,,,,,,,,,,,,,,,,,,,,
5,20722, Note_on_c,3,52,0,,,,,,,,,,,,,,,,,,,,,,,
5,20736, Note_on_c,3,54,103,,,,,,,,,,,,,,,,,,,,,,,
5,20756, Note_on_c,3,57,0,,,,,,,,,,,,,,,,,,,,,,,
5,20758, Control_c,3,64,127,,,,,,,,,,,,,,,,,,,,,,,
5,20770, Note_on_c,3,61,0,,,,,,,,,,,,,,,,,,,,,,,
5,20784, Note_on_c,3,57,91,,,,,,,,,,,,,,,,,,,,,,,
5,20802, Note_on_c,3,66,0,,,,,,,,,,,,,,,,,,,,,,,
5,20812, Note_on_c,3,57,0,,,,,,,,,,,,,,,,,,,,,,,
5,20832, Note_on_c,3,57,88,,,,,,,,,,,,,,,,,,,,,,,
5,20832, Note_on_c,3,61,99,,,,,,,,,,,,,,,,,,,,,,,
5,20832, Note_on_c,3,66,78,,,,,,,,,,,,,,,,,,,,,,,
5,20839, Note_on_c,3,54,0,,,,,,,,,,,,,,,,,,,,,,,
5,20857, Note_on_c,3,57,0,,,,,,,,,,,,,,,,,,,,,,,
5,20867, Note_on_c,3,61,0,,,,,,,,,,,,,,,,,,,,,,,
5,20880, Note_on_c,3,54,92,,,,,,,,,,,,,,,,,,,,,,,
5,20880, Note_on_c,3,57,74,,,,,,,,,,,,,,,,,,,,,,,
5,20901, Note_on_c,3,66,0,,,,,,,,,,,,,,,,,,,,,,,
5,20904, Note_on_c,3,57,0,,,,,,,,,,,,,,,,,,,,,,,
5,20905, Note_on_c,3,54,0,,,,,,,,,,,,,,,,,,,,,,,
5,20928, Note_on_c,3,54,92,,,,,,,,,,,,,,,,,,,,,,,
5,20928, Note_on_c,3,57,93,,,,,,,,,,,,,,,,,,,,,,,
5,20928, Note_on_c,3,61,103,,,,,,,,,,,,,,,,,,,,,,,
5,20928, Control_c,3,64,0,,,,,,,,,,,,,,,,,,,,,,,
5,20928, Note_on_c,3,66,92,,,,,,,,,,,,,,,,,,,,,,,
5,20962, Note_on_c,3,57,0,,,,,,,,,,,,,,,,,,,,,,,
5,20968, Control_c,3,64,127,,,,,,,,,,,,,,,,,,,,,,,
5,20976, Note_on_c,3,57,74,,,,,,,,,,,,,,,,,,,,,,,
5,20991, Note_on_c,3,61,0,,,,,,,,,,,,,,,,,,,,,,,
5,20997, Note_on_c,3,66,0,,,,,,,,,,,,,,,,,,,,,,,
5,21004, Note_on_c,3,57,0,,,,,,,,,,,,,,,,,,,,,,,
5,21023, Note_on_c,3,54,0,,,,,,,,,,,,,,,,,,,,,,,
5,21024, Note_on_c,3,57,74,,,,,,,,,,,,,,,,,,,,,,,
5,21024, Note_on_c,3,61,92,,,,,,,,,,,,,,,,,,,,,,,
5,21024, Note_on_c,3,66,67,,,,,,,,,,,,,,,,,,,,,,,
5,21038, Note_on_c,3,57,0,,,,,,,,,,,,,,,,,,,,,,,
5,21038, Note_on_c,3,66,0,,,,,,,,,,,,,,,,,,,,,,,
5,21046, Note_on_c,3,61,0,,,,,,,,,,,,,,,,,,,,,,,
5,21072, Note_on_c,3,54,74,,,,,,,,,,,,,,,,,,,,,,,
5,21072, Note_on_c,3,57,85,,,,,,,,,,,,,,,,,,,,,,,
5,21072, Note_on_c,3,61,95,,,,,,,,,,,,,,,,,,,,,,,
5,21072, Note_on_c,3,66,92,,,,,,,,,,,,,,,,,,,,,,,
5,21072, Note_on_c,3,69,107,,,,,,,,,,,,,,,,,,,,,,,
5,21079, Control_c,3,64,0,,,,,,,,,,,,,,,,,,,,,,,
5,21102, Note_on_c,3,54,0,,,,,,,,,,,,,,,,,,,,,,,
5,21113, Control_c,3,64,127,,,,,,,,,,,,,,,,,,,,,,,
5,21120, Note_on_c,3,54,80,,,,,,,,,,,,,,,,,,,,,,,
5,21134, Note_on_c,3,57,0,,,,,,,,,,,,,,,,,,,,,,,
5,21134, Note_on_c,3,69,0,,,,,,,,,,,,,,,,,,,,,,,
5,21138, Note_on_c,3,61,0,,,,,,,,,,,,,,,,,,,,,,,
5,21138, Note_on_c,3,66,0,,,,,,,,,,,,,,,,,,,,,,,
5,21168, Note_on_c,3,57,93,,,,,,,,,,,,,,,,,,,,,,,
5,21168, Note_on_c,3,61,99,,,,,,,,,,,,,,,,,,,,,,,
5,21168, Note_on_c,3,66,99,,,,,,,,,,,,,,,,,,,,,,,
5,21168, Note_on_c,3,69,107,,,,,,,,,,,,,,,,,,,,,,,
5,21190, Note_on_c,3,54,0,,,,,,,,,,,,,,,,,,,,,,,
5,21216, Note_on_c,3,54,95,,,,,,,,,,,,,,,,,,,,,,,
5,21217, Note_on_c,3,69,0,,,,,,,,,,,,,,,,,,,,,,,
5,21223, Note_on_c,3,57,0,,,,,,,,,,,,,,,,,,,,,,,
5,21228, Note_on_c,3,66,0,,,,,,,,,,,,,,,,,,,,,,,
5,21229, Note_on_c,3,61,0,,,,,,,,,,,,,,,,,,,,,,,
5,21264, Note_on_c,3,57,98,,,,,,,,,,,,,,,,,,,,,,,
5,21264, Note_on_c,3,61,103,,,,,,,,,,,,,,,,,,,,,,,
5,21264, Note_on_c,3,66,92,,,,,,,,,,,,,,,,,,,,,,,
5,21279, Note_on_c,3,54,0,,,,,,,,,,,,,,,,,,,,,,,
5,21312, Note_on_c,3,54,103,,,,,,,,,,,,,,,,,,,,,,,
5,21319, Note_on_c,3,57,0,,,,,,,,,,,,,,,,,,,,,,,
5,21323, Note_on_c,3,61,0,,,,,,,,,,,,,,,,,,,,,,,
5,21330, Note_on_c,3,66,0,,,,,,,,,,,,,,,,,,,,,,,
5,21360, Note_on_c,3,57,114,,,,,,,,,,,,,,,,,,,,,,,
5,21360, Note_on_c,3,61,86,,,,,,,,,,,,,,,,,,,,,,,
5,21360, Note_on_c,3,66,52,,,,,,,,,,,,,,,,,,,,,,,
5,21369, Note_on_c,3,61,0,,,,,,,,,,,,,,,,,,,,,,,
5,21375, Note_on_c,3,54,0,,,,,,,,,,,,,,,,,,,,,,,
5,21376, Note_on_c,3,66,0,,,,,,,,,,,,,,,,,,,,,,,
5,21387, Note_on_c,3,57,0,,,,,,,,,,,,,,,,,,,,,,,
5,21408, Note_on_c,3,54,107,,,,,,,,,,,,,,,,,,,,,,,
5,21408, Note_on_c,3,57,91,,,,,,,,,,,,,,,,,,,,,,,
5,21408, Note_on_c,3,61,107,,,,,,,,,,,,,,,,,,,,,,,
5,21408, Note_on_c,3,66,92,,,,,,,,,,,,,,,,,,,,,,,
5,21422, Note_on_c,3,54,0,,,,,,,,,,,,,,,,,,,,,,,
5,21430, Note_on_c,3,57,0,,,,,,,,,,,,,,,,,,,,,,,
5,21438, Note_on_c,3,61,0,,,,,,,,,,,,,,,,,,,,,,,
5,21445, Note_on_c,3,66,0,,,,,,,,,,,,,,,,,,,,,,,
5,21456, Note_on_c,3,57,98,,,,,,,,,,,,,,,,,,,,,,,
5,21456, Note_on_c,3,66,52,,,,,,,,,,,,,,,,,,,,,,,
5,21462, Note_on_c,3,66,0,,,,,,,,,,,,,,,,,,,,,,,
5,21478, Note_on_c,3,57,0,,,,,,,,,,,,,,,,,,,,,,,
5,21491, Control_c,3,64,0,,,,,,,,,,,,,,,,,,,,,,,
5,21504, Note_on_c,3,50,127,,,,,,,,,,,,,,,,,,,,,,,
5,21504, Note_on_c,3,57,110,,,,,,,,,,,,,,,,,,,,,,,
5,21504, Note_on_c,3,62,127,,,,,,,,,,,,,,,,,,,,,,,
5,21504, Note_on_c,3,66,103,,,,,,,,,,,,,,,,,,,,,,,
5,21549, Control_c,3,64,127,,,,,,,,,,,,,,,,,,,,,,,
5,21563, Note_on_c,3,57,0,,,,,,,,,,,,,,,,,,,,,,,
5,21564, Note_on_c,3,66,0,,,,,,,,,,,,,,,,,,,,,,,
5,21566, Note_on_c,3,62,0,,,,,,,,,,,,,,,,,,,,,,,
5,21592, Note_on_c,3,50,0,,,,,,,,,,,,,,,,,,,,,,,
5,21600, Note_on_c,3,50,114,,,,,,,,,,,,,,,,,,,,,,,
5,21600, Note_on_c,3,57,107,,,,,,,,,,,,,,,,,,,,,,,
5,21600, Note_on_c,3,62,118,,,,,,,,,,,,,,,,,,,,,,,
5,21600, Note_on_c,3,66,82,,,,,,,,,,,,,,,,,,,,,,,
5,21621, Note_on_c,3,57,0,,,,,,,,,,,,,,,,,,,,,,,
5,21624, Note_on_c,3,62,0,,,,,,,,,,,,,,,,,,,,,,,
5,21636, Note_on_c,3,66,0,,,,,,,,,,,,,,,,,,,,,,,
5,21648, Note_on_c,3,57,88,,,,,,,,,,,,,,,,,,,,,,,
5,21648, Note_on_c,3,62,74,,,,,,,,,,,,,,,,,,,,,,,
5,21648, Note_on_c,3,66,44,,,,,,,,,,,,,,,,,,,,,,,
5,21660, Note_on_c,3,62,0,,,,,,,,,,,,,,,,,,,,,,,
5,21664, Note_on_c,3,66,0,,,,,,,,,,,,,,,,,,,,,,,
5,21668, Note_on_c,3,50,0,,,,,,,,,,,,,,,,,,,,,,,
5,21674, Note_on_c,3,57,0,,,,,,,,,,,,,,,,,,,,,,,
5,21689, Control_c,3,64,0,,,,,,,,,,,,,,,,,,,,,,,
5,21696, Note_on_c,3,50,122,,,,,,,,,,,,,,,,,,,,,,,
5,21696, Note_on_c,3,57,118,,,,,,,,,,,,,,,,,,,,,,,
5,21696, Note_on_c,3,62,127,,,,,,,,,,,,,,,,,,,,,,,
5,21696, Note_on_c,3,66,95,,,,,,,,,,,,,,,,,,,,,,,
5,21729, Control_c,3,64,127,,,,,,,,,,,,,,,,,,,,,,,
5,21734, Note_on_c,3,57,0,,,,,,,,,,,,,,,,,,,,,,,
5,21744, Note_on_c,3,57,85,,,,,,,,,,,,,,,,,,,,,,,
5,21765, Note_on_c,3,62,0,,,,,,,,,,,,,,,,,,,,,,,
5,21772, Note_on_c,3,57,0,,,,,,,,,,,,,,,,,,,,,,,
5,21779, Note_on_c,3,66,0,,,,,,,,,,,,,,,,,,,,,,,
5,21787, Note_on_c,3,50,0,,,,,,,,,,,,,,,,,,,,,,,
5,21792, Note_on_c,3,50,95,,,,,,,,,,,,,,,,,,,,,,,
5,21792, Note_on_c,3,57,76,,,,,,,,,,,,,,,,,,,,,,,
5,21792, Note_on_c,3,62,114,,,,,,,,,,,,,,,,,,,,,,,
5,21792, Note_on_c,3,66,66,,,,,,,,,,,,,,,,,,,,,,,
5,21808, Note_on_c,3,66,0,,,,,,,,,,,,,,,,,,,,,,,
5,21810, Note_on_c,3,57,0,,,,,,,,,,,,,,,,,,,,,,,
5,21816, Note_on_c,3,62,0,,,,,,,,,,,,,,,,,,,,,,,
5,21820, Note_on_c,3,50,0,,,,,,,,,,,,,,,,,,,,,,,
5,21839, Control_c,3,64,0,,,,,,,,,,,,,,,,,,,,,,,
5,21840, Note_on_c,3,52,127,,,,,,,,,,,,,,,,,,,,,,,
5,21840, Note_on_c,3,59,101,,,,,,,,,,,,,,,,,,,,,,,
5,21840, Note_on_c,3,64,118,,,,,,,,,,,,,,,,,,,,,,,
5,21840, Note_on_c,3,68,99,,,,,,,,,,,,,,,,,,,,,,,
5,21879, Control_c,3,64,127,,,,,,,,,,,,,,,,,,,,,,,
5,21911, Note_on_c,3,59,0,,,,,,,,,,,,,,,,,,,,,,,
5,21913, Note_on_c,3,68,0,,,,,,,,,,,,,,,,,,,,,,,
5,21914, Note_on_c,3,64,0,,,,,,,,,,,,,,,,,,,,,,,
5,21917, Note_on_c,3,52,0,,,,,,,,,,,,,,,,,,,,,,,
5,21936, Note_on_c,3,52,110,,,,,,,,,,,,,,,,,,,,,,,
5,21936, Note_on_c,3,59,107,,,,,,,,,,,,,,,,,,,,,,,
5,21936, Note_on_c,3,64,118,,,,,,,,,,,,,,,,,,,,,,,
5,21936, Note_on_c,3,68,92,,,,,,,,,,,,,,,,,,,,,,,
5,21937, Control_c,3,64,0,,,,,,,,,,,,,,,,,,,,,,,
5,21971, Control_c,3,64,127,,,,,,,,,,,,,,,,,,,,,,,
5,22008, Note_on_c,3,59,0,,,,,,,,,,,,,,,,,,,,,,,
5,22011, Note_on_c,3,68,0,,,,,,,,,,,,,,,,,,,,,,,
5,22013, Note_on_c,3,64,0,,,,,,,,,,,,,,,,,,,,,,,
5,22014, Note_on_c,3,52,0,,,,,,,,,,,,,,,,,,,,,,,
5,22032, Note_on_c,3,52,114,,,,,,,,,,,,,,,,,,,,,,,
5,22032, Note_on_c,3,59,104,,,,,,,,,,,,,,,,,,,,,,,
5,22032, Note_on_c,3,64,107,,,,,,,,,,,,,,,,,,,,,,,
5,22032, Note_on_c,3,68,86,,,,,,,,,,,,,,,,,,,,,,,
5,22104, Note_on_c,3,59,0,,,,,,,,,,,,,,,,,,,,,,,
5,22104, Note_on_c,3,68,0,,,,,,,,,,,,,,,,,,,,,,,
5,22109, Note_on_c,3,64,0,,,,,,,,,,,,,,,,,,,,,,,
5,22117, Note_on_c,3,52,0,,,,,,,,,,,,,,,,,,,,,,,
5,22128, Note_on_c,3,59,101,,,,,,,,,,,,,,,,,,,,,,,
5,22128, Note_on_c,3,64,110,,,,,,,,,,,,,,,,,,,,,,,
5,22128, Note_on_c,3,68,92,,,,,,,,,,,,,,,,,,,,,,,
5,22152, Note_on_c,3,59,0,,,,,,,,,,,,,,,,,,,,,,,
5,22176, Note_on_c,3,52,95,,,,,,,,,,,,,,,,,,,,,,,
5,22176, Note_on_c,3,59,98,,,,,,,,,,,,,,,,,,,,,,,
5,22188, Note_on_c,3,68,0,,,,,,,,,,,,,,,,,,,,,,,
5,22195, Note_on_c,3,64,0,,,,,,,,,,,,,,,,,,,,,,,
5,22213, Note_on_c,3,59,0,,,,,,,,,,,,,,,,,,,,,,,
5,22216, Note_on_c,3,52,0,,,,,,,,,,,,,,,,,,,,,,,
5,22224, Note_on_c,3,61,103,,,,,,,,,,,,,,,,,,,,,,,
5,22241, Note_on_c,3,61,0,,,,,,,,,,,,,,,,,,,,,,,
5,22272, Note_on_c,3,54,107,,,,,,,,,,,,,,,,,,,,,,,
5,22272, Note_on_c,3,57,110,,,,,,,,,,,,,,,,,,,,,,,
5,22272, Note_on_c,3,61,112,,,,,,,,,,,,,,,,,,,,,,,
5,22272, Note_on_c,3,66,95,,,,,,,,,,,,,,,,,,,,,,,
5,22273, Control_c,3,64,0,,,,,,,,,,,,,,,,,,,,,,,
5,22317, Control_c,3,64,127,,,,,,,,,,,,,,,,,,,,,,,
5,22335, Note_on_c,3,57,0,,,,,,,,,,,,,,,,,,,,,,,
5,22335, Note_on_c,3,61,0,,,,,,,,,,,,,,,,,,,,,,,
5,22340, Note_on_c,3,66,0,,,,,,,,,,,,,,,,,,,,,,,
5,22347, Note_on_c,3,54,0,,,,,,,,,,,,,,,,,,,,,,,
5,22368, Note_on_c,3,54,103,,,,,,,,,,,,,,,,,,,,,,,
5,22368, Note_on_c,3,57,104,,,,,,,,,,,,,,,,,,,,,,,
5,22368, Note_on_c,3,61,107,,,,,,,,,,,,,,,,,,,,,,,
5,22368, Note_on_c,3,66,82,,,,,,,,,,,,,,,,,,,,,,,
5,22392, Note_on_c,3,57,0,,,,,,,,,,,,,,,,,,,,,,,
5,22398, Note_on_c,3,61,0,,,,,,,,,,,,,,,,,,,,,,,
5,22416, Note_on_c,3,57,85,,,,,,,,,,,,,,,,,,,,,,,
5,22416, Note_on_c,3,61,46,,,,,,,,,,,,,,,,,,,,,,,
5,22425, Note_on_c,3,61,0,,,,,,,,,,,,,,,,,,,,,,,
5,22435, Note_on_c,3,54,0,,,,,,,,,,,,,,,,,,,,,,,
5,22438, Note_on_c,3,66,0,,,,,,,,,,,,,,,,,,,,,,,
5,22444, Note_on_c,3,57,0,,,,,,,,,,,,,,,,,,,,,,,
5,22458, Control_c,3,64,0,,,,,,,,,,,,,,,,,,,,,,,
5,22464, Note_on_c,3,54,103,,,,,,,,,,,,,,,,,,,,,,,
5,22464, Note_on_c,3,57,98,,,,,,,,,,,,,,,,,,,,,,,
5,22464, Note_on_c,3,61,112,,,,,,,,,,,,,,,,,,,,,,,
5,22464, Note_on_c,3,66,88,,,,,,,,,,,,,,,,,,,,,,,
5,22488, Note_on_c,3,57,0,,,,,,,,,,,,,,,,,,,,,,,
5,22495, Note_on_c,3,61,0,,,,,,,,,,,,,,,,,,,,,,,
5,22498, Control_c,3,64,127,,,,,,,,,,,,,,,,,,,,,,,
5,22512, Note_on_c,3,57,78,,,,,,,,,,,,,,,,,,,,,,,
5,22512, Note_on_c,3,61,58,,,,,,,,,,,,,,,,,,,,,,,
5,22524, Note_on_c,3,61,0,,,,,,,,,,,,,,,,,,,,,,,
5,22534, Note_on_c,3,57,0,,,,,,,,,,,,,,,,,,,,,,,
5,22539, Note_on_c,3,66,0,,,,,,,,,,,,,,,,,,,,,,,
5,22560, Note_on_c,3,57,80,,,,,,,,,,,,,,,,,,,,,,,
5,22560, Note_on_c,3,61,92,,,,,,,,,,,,,,,,,,,,,,,
5,22560, Note_on_c,3,66,70,,,,,,,,,,,,,,,,,,,,,,,
5,22569, Note_on_c,3,54,0,,,,,,,,,,,,,,,,,,,,,,,
5,22582, Note_on_c,3,57,0,,,,,,,,,,,,,,,,,,,,,,,
5,22582, Note_on_c,3,61,0,,,,,,,,,,,,,,,,,,,,,,,
5,22582, Note_on_c,3,66,0,,,,,,,,,,,,,,,,,,,,,,,
5,22608, Note_on_c,3,54,103,,,,,,,,,,,,,,,,,,,,,,,
5,22608, Note_on_c,3,57,93,,,,,,,,,,,,,,,,,,,,,,,
5,22608, Note_on_c,3,61,103,,,,,,,,,,,,,,,,,,,,,,,
5,22608, Note_on_c,3,66,95,,,,,,,,,,,,,,,,,,,,,,,
5,22612, Control_c,3,64,0,,,,,,,,,,,,,,,,,,,,,,,
5,22646, Control_c,3,64,127,,,,,,,,,,,,,,,,,,,,,,,
5,22671, Note_on_c,3,57,0,,,,,,,,,,,,,,,,,,,,,,,
5,22674, Note_on_c,3,61,0,,,,,,,,,,,,,,,,,,,,,,,
5,22677, Note_on_c,3,66,0,,,,,,,,,,,,,,,,,,,,,,,
5,22679, Note_on_c,3,54,0,,,,,,,,,,,,,,,,,,,,,,,
5,22704, Note_on_c,3,54,103,,,,,,,,,,,,,,,,,,,,,,,
5,22704, Note_on_c,3,57,104,,,,,,,,,,,,,,,,,,,,,,,
5,22704, Note_on_c,3,61,107,,,,,,,,,,,,,,,,,,,,,,,
5,22704, Note_on_c,3,66,99,,,,,,,,,,,,,,,,,,,,,,,
5,22726, Control_c,3,64,0,,,,,,,,,,,,,,,,,,,,,,,
5,22752, Control_c,3,64,127,,,,,,,,,,,,,,,,,,,,,,,
5,22776, Note_on_c,3,61,0,,,,,,,,,,,,,,,,,,,,,,,
5,22776, Note_on_c,3,66,0,,,,,,,,,,,,,,,,,,,,,,,
5,22784, Note_on_c,3,57,0,,,,,,,,,,,,,,,,,,,,,,,
5,22800, Note_on_c,3,57,91,,,,,,,,,,,,,,,,,,,,,,,
5,22800, Note_on_c,3,61,103,,,,,,,,,,,,,,,,,,,,,,,
5,22800, Note_on_c,3,66,95,,,,,,,,,,,,,,,,,,,,,,,
5,22805, Note_on_c,3,54,0,,,,,,,,,,,,,,,,,,,,,,,
5,22835, Note_on_c,3,57,0,,,,,,,,,,,,,,,,,,,,,,,
5,22848, Note_on_c,3,54,107,,,,,,,,,,,,,,,,,,,,,,,
5,22861, Note_on_c,3,61,0,,,,,,,,,,,,,,,,,,,,,,,
5,22864, Note_on_c,3,66,0,,,,,,,,,,,,,,,,,,,,,,,
5,22896, Note_on_c,3,57,118,,,,,,,,,,,,,,,,,,,,,,,
5,22896, Note_on_c,3,61,112,,,,,,,,,,,,,,,,,,,,,,,
5,22896, Note_on_c,3,66,99,,,,,,,,,,,,,,,,,,,,,,,
5,22920, Note_on_c,3,54,0,,,,,,,,,,,,,,,,,,,,,,,
5,22938, Note_on_c,3,57,0,,,,,,,,,,,,,,,,,,,,,,,
5,22941, Note_on_c,3,61,0,,,,,,,,,,,,,,,,,,,,,,,
5,22944, Note_on_c,3,54,107,,,,,,,,,,,,,,,,,,,,,,,
5,22964, Note_on_c,3,66,0,,,,,,,,,,,,,,,,,,,,,,,
5,22976, Note_on_c,3,54,0,,,,,,,,,,,,,,,,,,,,,,,
5,22992, Note_on_c,3,57,85,,,,,,,,,,,,,,,,,,,,,,,
5,23010, Note_on_c,3,57,0,,,,,,,,,,,,,,,,,,,,,,,
5,23025, Control_c,3,64,0,,,,,,,,,,,,,,,,,,,,,,,
5,23040, Note_on_c,3,50,127,,,,,,,,,,,,,,,,,,,,,,,
5,23040, Note_on_c,3,57,118,,,,,,,,,,,,,,,,,,,,,,,
5,23040, Note_on_c,3,62,127,,,,,,,,,,,,,,,,,,,,,,,
5,23040, Note_on_c,3,66,107,,,,,,,,,,,,,,,,,,,,,,,
5,23073, Control_c,3,64,127,,,,,,,,,,,,,,,,,,,,,,,
5,23105, Note_on_c,3,57,0,,,,,,,,,,,,,,,,,,,,,,,
5,23105, Note_on_c,3,62,0,,,,,,,,,,,,,,,,,,,,,,,
5,23108, Note_on_c,3,66,0,,,,,,,,,,,,,,,,,,,,,,,
5,23127, Note_on_c,3,50,0,,,,,,,,,,,,,,,,,,,,,,,
5,23136, Note_on_c,3,57,114,,,,,,,,,,,,,,,,,,,,,,,
5,23136, Note_on_c,3,62,127,,,,,,,,,,,,,,,,,,,,,,,
5,23136, Note_on_c,3,66,92,,,,,,,,,,,,,,,,,,,,,,,
5,23161, Note_on_c,3,57,0,,,,,,,,,,,,,,,,,,,,,,,
5,23170, Note_on_c,3,62,0,,,,,,,,,,,,,,,,,,,,,,,
5,23184, Note_on_c,3,50,118,,,,,,,,,,,,,,,,,,,,,,,
5,23184, Note_on_c,3,57,67,,,,,,,,,,,,,,,,,,,,,,,
5,23200, Note_on_c,3,66,0,,,,,,,,,,,,,,,,,,,,,,,
5,23207, Note_on_c,3,57,0,,,,,,,,,,,,,,,,,,,,,,,
5,23216, Note_on_c,3,50,0,,,,,,,,,,,,,,,,,,,,,,,
5,23222, Control_c,3,64,0,,,,,,,,,,,,,,,,,,,,,,,
5,23232, Note_on_c,3,50,122,,,,,,,,,,,,,,,,,,,,,,,
5,23232, Note_on_c,3,57,107,,,,,,,,,,,,,,,,,,,,,,,
5,23232, Note_on_c,3,62,127,,,,,,,,,,,,,,,,,,,,,,,
5,23232, Note_on_c,3,66,99,,,,,,,,,,,,,,,,,,,,,,,
5,23257, Control_c,3,64,127,,,,,,,,,,,,,,,,,,,,,,,
5,23304, Note_on_c,3,57,0,,,,,,,,,,,,,,,,,,,,,,,
5,23307, Note_on_c,3,62,0,,,,,,,,,,,,,,,,,,,,,,,
5,23307, Note_on_c,3,66,0,,,,,,,,,,,,,,,,,,,,,,,
5,23328, Note_on_c,3,57,114,,,,,,,,,,,,,,,,,,,,,,,
5,23328, Note_on_c,3,62,118,,,,,,,,,,,,,,,,,,,,,,,
5,23328, Note_on_c,3,66,82,,,,,,,,,,,,,,,,,,,,,,,
5,23330, Note_on_c,3,50,0,,,,,,,,,,,,,,,,,,,,,,,
5,23353, Note_on_c,3,57,0,,,,,,,,,,,,,,,,,,,,,,,
5,23359, Note_on_c,3,62,0,,,,,,,,,,,,,,,,,,,,,,,
5,23364, Note_on_c,3,66,0,,,,,,,,,,,,,,,,,,,,,,,
5,23376, Note_on_c,3,50,110,,,,,,,,,,,,,,,,,,,,,,,
5,23376, Note_on_c,3,59,85,,,,,,,,,,,,,,,,,,,,,,,
5,23405, Note_on_c,3,59,0,,,,,,,,,,,,,,,,,,,,,,,
5,23411, Note_on_c,3,50,0,,,,,,,,,,,,,,,,,,,,,,,
5,23420, Control_c,3,64,0,,,,,,,,,,,,,,,,,,,,,,,
5,23424, Note_on_c,3,52,127,,,,,,,,,,,,,,,,,,,,,,,
5,23424, Note_on_c,3,59,101,,,,,,,,,,,,,,,,,,,,,,,
5,23424, Note_on_c,3,64,127,,,,,,,,,,,,,,,,,,,,,,,
5,23424, Note_on_c,3,68,99,,,,,,,,,,,,,,,,,,,,,,,
5,23460, Control_c,3,64,127,,,,,,,,,,,,,,,,,,,,,,,
5,23490, Note_on_c,3,64,0,,,,,,,,,,,,,,,,,,,,,,,
5,23491, Note_on_c,3,68,0,,,,,,,,,,,,,,,,,,,,,,,
5,23496, Note_on_c,3,59,0,,,,,,,,,,,,,,,,,,,,,,,
5,23520, Note_on_c,3,59,98,,,,,,,,,,,,,,,,,,,,,,,
5,23520, Note_on_c,3,64,114,,,,,,,,,,,,,,,,,,,,,,,
5,23520, Note_on_c,3,68,95,,,,,,,,,,,,,,,,,,,,,,,
5,23525, Note_on_c,3,52,0,,,,,,,,,,,,,,,,,,,,,,,
5,23542, Note_on_c,3,59,0,,,,,,,,,,,,,,,,,,,,,,,
5,23546, Note_on_c,3,64,0,,,,,,,,,,,,,,,,,,,,,,,
5,23549, Note_on_c,3,68,0,,,,,,,,,,,,,,,,,,,,,,,
5,23568, Note_on_c,3,52,107,,,,,,,,,,,,,,,,,,,,,,,
5,23568, Note_on_c,3,59,101,,,,,,,,,,,,,,,,,,,,,,,
5,23568, Note_on_c,3,64,76,,,,,,,,,,,,,,,,,,,,,,,
5,23568, Note_on_c,3,68,70,,,,,,,,,,,,,,,,,,,,,,,
5,23576, Note_on_c,3,64,0,,,,,,,,,,,,,,,,,,,,,,,
5,23576, Note_on_c,3,68,0,,,,,,,,,,,,,,,,,,,,,,,
5,23595, Note_on_c,3,52,0,,,,,,,,,,,,,,,,,,,,,,,
5,23598, Note_on_c,3,59,0,,,,,,,,,,,,,,,,,,,,,,,
5,23601, Control_c,3,64,0,,,,,,,,,,,,,,,,,,,,,,,
5,23616, Note_on_c,3,52,118,,,,,,,,,,,,,,,,,,,,,,,
5,23616, Note_on_c,3,59,83,,,,,,,,,,,,,,,,,,,,,,,
5,23616, Note_on_c,3,64,110,,,,,,,,,,,,,,,,,,,,,,,
5,23616, Note_on_c,3,68,80,,,,,,,,,,,,,,,,,,,,,,,
5,23631, Note_on_c,3,59,0,,,,,,,,,,,,,,,,,,,,,,,
5,23632, Control_c,3,64,127,,,,,,,,,,,,,,,,,,,,,,,
5,23635, Note_on_c,3,68,0,,,,,,,,,,,,,,,,,,,,,,,
5,23639, Note_on_c,3,64,0,,,,,,,,,,,,,,,,,,,,,,,
5,23664, Note_on_c,3,59,114,,,,,,,,,,,,,,,,,,,,,,,
5,23664, Note_on_c,3,64,127,,,,,,,,,,,,,,,,,,,,,,,
5,23664, Note_on_c,3,68,103,,,,,,,,,,,,,,,,,,,,,,,
5,23686, Note_on_c,3,52,0,,,,,,,,,,,,,,,,,,,,,,,
5,23699, Note_on_c,3,64,0,,,,,,,,,,,,,,,,,,,,,,,
5,23712, Note_on_c,3,52,122,,,,,,,,,,,,,,,,,,,,,,,
5,23712, Note_on_c,3,68,0,,,,,,,,,,,,,,,,,,,,,,,
5,23744, Note_on_c,3,52,0,,,,,,,,,,,,,,,,,,,,,,,
5,23745, Note_on_c,3,59,0,,,,,,,,,,,,,,,,,,,,,,,
5,23760, Note_on_c,3,61,37,,,,,,,,,,,,,,,,,,,,,,,
5,23778, Note_on_c,3,61,0,,,,,,,,,,,,,,,,,,,,,,,
5,23794, Control_c,3,64,0,,,,,,,,,,,,,,,,,,,,,,,
5,23808, Note_on_c,3,57,127,,,,,,,,,,,,,,,,,,,,,,,
5,23808, Note_on_c,3,61,107,,,,,,,,,,,,,,,,,,,,,,,
5,23808, Note_on_c,3,64,127,,,,,,,,,,,,,,,,,,,,,,,
5,23808, Note_on_c,3,69,107,,,,,,,,,,,,,,,,,,,,,,,
5,23838, Control_c,3,64,127,,,,,,,,,,,,,,,,,,,,,,,
5,23871, Note_on_c,3,61,0,,,,,,,,,,,,,,,,,,,,,,,
5,23881, Note_on_c,3,69,0,,,,,,,,,,,,,,,,,,,,,,,
5,23882, Note_on_c,3,64,0,,,,,,,,,,,,,,,,,,,,,,,
5,23904, Note_on_c,3,61,95,,,,,,,,,,,,,,,,,,,,,,,
5,23904, Note_on_c,3,64,98,,,,,,,,,,,,,,,,,,,,,,,
5,23904, Note_on_c,3,69,87,,,,,,,,,,,,,,,,,,,,,,,
5,23908, Note_on_c,3,57,0,,,,,,,,,,,,,,,,,,,,,,,
5,23931, Note_on_c,3,61,0,,,,,,,,,,,,,,,,,,,,,,,
5,23952, Note_on_c,3,57,101,,,,,,,,,,,,,,,,,,,,,,,
5,23952, Note_on_c,3,61,53,,,,,,,,,,,,,,,,,,,,,,,
5,23969, Note_on_c,3,61,0,,,,,,,,,,,,,,,,,,,,,,,
5,23974, Note_on_c,3,64,0,,,,,,,,,,,,,,,,,,,,,,,
5,23975, Note_on_c,3,69,0,,,,,,,,,,,,,,,,,,,,,,,
5,23984, Note_on_c,3,57,0,,,,,,,,,,,,,,,,,,,,,,,
5,23995, Control_c,3,64,0,,,,,,,,,,,,,,,,,,,,,,,
5,24000, Note_on_c,3,56,127,,,,,,,,,,,,,,,,,,,,,,,
5,24000, Note_on_c,3,61,107,,,,,,,,,,,,,,,,,,,,,,,
5,24000, Note_on_c,3,68,107,,,,,,,,,,,,,,,,,,,,,,,
5,24035, Control_c,3,64,127,,,,,,,,,,,,,,,,,,,,,,,
5,24063, Note_on_c,3,61,0,,,,,,,,,,,,,,,,,,,,,,,
5,24084, Note_on_c,3,56,0,,,,,,,,,,,,,,,,,,,,,,,
5,24096, Note_on_c,3,61,86,,,,,,,,,,,,,,,,,,,,,,,
5,24104, Note_on_c,3,68,0,,,,,,,,,,,,,,,,,,,,,,,
5,24124, Note_on_c,3,61,0,,,,,,,,,,,,,,,,,,,,,,,
5,24144, Note_on_c,3,56,107,,,,,,,,,,,,,,,,,,,,,,,
5,24144, Note_on_c,3,57,83,,,,,,,,,,,,,,,,,,,,,,,
5,24169, Note_on_c,3,56,0,,,,,,,,,,,,,,,,,,,,,,,
5,24171, Note_on_c,3,57,0,,,,,,,,,,,,,,,,,,,,,,,
5,24186, Control_c,3,64,0,,,,,,,,,,,,,,,,,,,,,,,
5,24192, Note_on_c,3,54,112,,,,,,,,,,,,,,,,,,,,,,,
5,24192, Note_on_c,3,57,98,,,,,,,,,,,,,,,,,,,,,,,
5,24192, Note_on_c,3,61,107,,,,,,,,,,,,,,,,,,,,,,,
5,24192, Note_on_c,3,66,103,,,,,,,,,,,,,,,,,,,,,,,
5,24235, Control_c,3,64,127,,,,,,,,,,,,,,,,,,,,,,,
5,24249, Note_on_c,3,57,0,,,,,,,,,,,,,,,,,,,,,,,
5,24259, Note_on_c,3,61,0,,,,,,,,,,,,,,,,,,,,,,,
5,24283, Note_on_c,3,54,0,,,,,,,,,,,,,,,,,,,,,,,
5,24288, Note_on_c,3,57,104,,,,,,,,,,,,,,,,,,,,,,,
5,24288, Note_on_c,3,61,80,,,,,,,,,,,,,,,,,,,,,,,
5,24310, Note_on_c,3,57,0,,,,,,,,,,,,,,,,,,,,,,,
5,24328, Note_on_c,3,61,0,,,,,,,,,,,,,,,,,,,,,,,
5,24336, Note_on_c,3,54,95,,,,,,,,,,,,,,,,,,,,,,,
5,24336, Note_on_c,3,57,87,,,,,,,,,,,,,,,,,,,,,,,
5,24336, Note_on_c,3,61,37,,,,,,,,,,,,,,,,,,,,,,,
5,24350, Note_on_c,3,61,0,,,,,,,,,,,,,,,,,,,,,,,
5,24351, Note_on_c,3,54,0,,,,,,,,,,,,,,,,,,,,,,,
5,24353, Note_on_c,3,66,0,,,,,,,,,,,,,,,,,,,,,,,
5,24361, Note_on_c,3,57,0,,,,,,,,,,,,,,,,,,,,,,,
5,24380, Control_c,3,64,0,,,,,,,,,,,,,,,,,,,,,,,
5,24384, Note_on_c,3,45,114,,,,,,,,,,,,,,,,,,,,,,,
5,24384, Note_on_c,3,57,104,,,,,,,,,,,,,,,,,,,,,,,
5,24384, Note_on_c,3,61,99,,,,,,,,,,,,,,,,,,,,,,,
5,24384, Note_on_c,3,64,107,,,,,,,,,,,,,,,,,,,,,,,
5,24384, Note_on_c,3,69,104,,,,,,,,,,,,,,,,,,,,,,,
5,24425, Control_c,3,64,127,,,,,,,,,,,,,,,,,,,,,,,
5,24448, Note_on_c,3,57,0,,,,,,,,,,,,,,,,,,,,,,,
5,24454, Note_on_c,3,61,0,,,,,,,,,,,,,,,,,,,,,,,
5,24454, Note_on_c,3,69,0,,,,,,,,,,,,,,,,,,,,,,,
5,24459, Note_on_c,3,64,0,,,,,,,,,,,,,,,,,,,,,,,
5,24465, Note_on_c,3,45,0,,,,,,,,,,,,,,,,,,,,,,,
5,24480, Note_on_c,3,57,104,,,,,,,,,,,,,,,,,,,,,,,
5,24480, Note_on_c,3,61,88,,,,,,,,,,,,,,,,,,,,,,,
5,24480, Note_on_c,3,64,91,,,,,,,,,,,,,,,,,,,,,,,
5,24480, Note_on_c,3,69,88,,,,,,,,,,,,,,,,,,,,,,,
5,24495, Note_on_c,3,57,0,,,,,,,,,,,,,,,,,,,,,,,
5,24498, Note_on_c,3,61,0,,,,,,,,,,,,,,,,,,,,,,,
5,24498, Note_on_c,3,64,0,,,,,,,,,,,,,,,,,,,,,,,
5,24503, Note_on_c,3,69,0,,,,,,,,,,,,,,,,,,,,,,,
5,24528, Note_on_c,3,59,76,,,,,,,,,,,,,,,,,,,,,,,
5,24544, Note_on_c,3,59,0,,,,,,,,,,,,,,,,,,,,,,,
5,24574, Control_c,3,64,0,,,,,,,,,,,,,,,,,,,,,,,
5,24576, Note_on_c,3,59,114,,,,,,,,,,,,,,,,,,,,,,,
5,24576, Note_on_c,3,64,127,,,,,,,,,,,,,,,,,,,,,,,
5,24576, Note_on_c,3,66,112,,,,,,,,,,,,,,,,,,,,,,,
5,24576, Note_on_c,3,71,110,,,,,,,,,,,,,,,,,,,,,,,
5,24613, Control_c,3,64,127,,,,,,,,,,,,,,,,,,,,,,,
5,24653, Note_on_c,3,59,0,,,,,,,,,,,,,,,,,,,,,,,
5,24672, Note_on_c,3,59,80,,,,,,,,,,,,,,,,,,,,,,,
5,24691, Note_on_c,3,66,0,,,,,,,,,,,,,,,,,,,,,,,
5,24693, Note_on_c,3,64,0,,,,,,,,,,,,,,,,,,,,,,,
5,24695, Note_on_c,3,71,0,,,,,,,,,,,,,,,,,,,,,,,
5,24698, Note_on_c,3,59,0,,,,,,,,,,,,,,,,,,,,,,,
5,24720, Note_on_c,3,59,83,,,,,,,,,,,,,,,,,,,,,,,
5,24720, Note_on_c,3,64,85,,,,,,,,,,,,,,,,,,,,,,,
5,24720, Note_on_c,3,66,67,,,,,,,,,,,,,,,,,,,,,,,
5,24720, Note_on_c,3,71,59,,,,,,,,,,,,,,,,,,,,,,,
5,24745, Note_on_c,3,66,0,,,,,,,,,,,,,,,,,,,,,,,
5,24748, Note_on_c,3,71,0,,,,,,,,,,,,,,,,,,,,,,,
5,24750, Note_on_c,3,64,0,,,,,,,,,,,,,,,,,,,,,,,
5,24752, Note_on_c,3,59,0,,,,,,,,,,,,,,,,,,,,,,,
5,24768, Note_on_c,3,59,114,,,,,,,,,,,,,,,,,,,,,,,
5,24768, Note_on_c,3,64,127,,,,,,,,,,,,,,,,,,,,,,,
5,24768, Note_on_c,3,66,107,,,,,,,,,,,,,,,,,,,,,,,
5,24768, Note_on_c,3,71,110,,,,,,,,,,,,,,,,,,,,,,,
5,24777, Control_c,3,64,0,,,,,,,,,,,,,,,,,,,,,,,
5,24812, Control_c,3,64,127,,,,,,,,,,,,,,,,,,,,,,,
5,24839, Note_on_c,3,64,0,,,,,,,,,,,,,,,,,,,,,,,
5,24843, Note_on_c,3,66,0,,,,,,,,,,,,,,,,,,,,,,,
5,24846, Note_on_c,3,71,0,,,,,,,,,,,,,,,,,,,,,,,
5,24851, Note_on_c,3,59,0,,,,,,,,,,,,,,,,,,,,,,,
5,24864, Note_on_c,3,59,76,,,,,,,,,,,,,,,,,,,,,,,
5,24864, Note_on_c,3,64,98,,,,,,,,,,,,,,,,,,,,,,,
5,24864, Note_on_c,3,66,80,,,,,,,,,,,,,,,,,,,,,,,
5,24864, Note_on_c,3,71,76,,,,,,,,,,,,,,,,,,,,,,,
5,24882, Note_on_c,3,59,0,,,,,,,,,,,,,,,,,,,,,,,
5,24884, Note_on_c,3,71,0,,,,,,,,,,,,,,,,,,,,,,,
5,24887, Note_on_c,3,66,0,,,,,,,,,,,,,,,,,,,,,,,
5,24888, Note_on_c,3,64,0,,,,,,,,,,,,,,,,,,,,,,,
5,24912, Note_on_c,3,59,104,,,,,,,,,,,,,,,,,,,,,,,
5,24912, Note_on_c,3,64,122,,,,,,,,,,,,,,,,,,,,,,,
5,24912, Note_on_c,3,66,99,,,,,,,,,,,,,,,,,,,,,,,
5,24912, Note_on_c,3,71,110,,,,,,,,,,,,,,,,,,,,,,,
5,24915, Control_c,3,64,0,,,,,,,,,,,,,,,,,,,,,,,
5,24945, Control_c,3,64,127,,,,,,,,,,,,,,,,,,,,,,,
5,24973, Note_on_c,3,71,0,,,,,,,,,,,,,,,,,,,,,,,
5,24974, Note_on_c,3,66,0,,,,,,,,,,,,,,,,,,,,,,,
5,24976, Note_on_c,3,64,0,,,,,,,,,,,,,,,,,,,,,,,
5,24978, Note_on_c,3,59,0,,,,,,,,,,,,,,,,,,,,,,,
5,25003, Control_c,3,64,0,,,,,,,,,,,,,,,,,,,,,,,
5,25008, Note_on_c,3,59,118,,,,,,,,,,,,,,,,,,,,,,,
5,25008, Note_on_c,3,64,127,,,,,,,,,,,,,,,,,,,,,,,
5,25008, Note_on_c,3,66,103,,,,,,,,,,,,,,,,,,,,,,,
5,25008, Note_on_c,3,71,107,,,,,,,,,,,,,,,,,,,,,,,
5,25034, Control_c,3,64,127,,,,,,,,,,,,,,,,,,,,,,,
5,25081, Note_on_c,3,71,0,,,,,,,,,,,,,,,,,,,,,,,
5,25085, Note_on_c,3,59,0,,,,,,,,,,,,,,,,,,,,,,,
5,25087, Note_on_c,3,64,0,,,,,,,,,,,,,,,,,,,,,,,
5,25088, Note_on_c,3,66,0,,,,,,,,,,,,,,,,,,,,,,,
5,25104, Note_on_c,3,59,110,,,,,,,,,,,,,,,,,,,,,,,
5,25104, Note_on_c,3,64,122,,,,,,,,,,,,,,,,,,,,,,,
5,25104, Note_on_c,3,66,92,,,,,,,,,,,,,,,,,,,,,,,
5,25104, Note_on_c,3,71,101,,,,,,,,,,,,,,,,,,,,,,,
5,25116, Control_c,3,64,0,,,,,,,,,,,,,,,,,,,,,,,
5,25147, Control_c,3,64,127,,,,,,,,,,,,,,,,,,,,,,,
5,25177, Note_on_c,3,59,0,,,,,,,,,,,,,,,,,,,,,,,
5,25187, Note_on_c,3,64,0,,,,,,,,,,,,,,,,,,,,,,,
5,25200, Note_on_c,3,59,101,,,,,,,,,,,,,,,,,,,,,,,
5,25200, Note_on_c,3,64,87,,,,,,,,,,,,,,,,,,,,,,,
5,25217, Note_on_c,3,71,0,,,,,,,,,,,,,,,,,,,,,,,
5,25218, Note_on_c,3,64,0,,,,,,,,,,,,,,,,,,,,,,,
5,25221, Note_on_c,3,66,0,,,,,,,,,,,,,,,,,,,,,,,
5,25224, Note_on_c,3,59,0,,,,,,,,,,,,,,,,,,,,,,,
5,25248, Note_on_c,3,59,95,,,,,,,,,,,,,,,,,,,,,,,
5,25248, Note_on_c,3,64,122,,,,,,,,,,,,,,,,,,,,,,,
5,25248, Note_on_c,3,66,103,,,,,,,,,,,,,,,,,,,,,,,
5,25248, Note_on_c,3,71,110,,,,,,,,,,,,,,,,,,,,,,,
5,25276, Note_on_c,3,59,0,,,,,,,,,,,,,,,,,,,,,,,
5,25296, Note_on_c,3,59,68,,,,,,,,,,,,,,,,,,,,,,,
5,25311, Note_on_c,3,64,0,,,,,,,,,,,,,,,,,,,,,,,
5,25312, Note_on_c,3,66,0,,,,,,,,,,,,,,,,,,,,,,,
5,25314, Note_on_c,3,71,0,,,,,,,,,,,,,,,,,,,,,,,
5,25324, Note_on_c,3,59,0,,,,,,,,,,,,,,,,,,,,,,,
5,25335, Control_c,3,64,0,,,,,,,,,,,,,,,,,,,,,,,
5,25344, Note_on_c,3,59,107,,,,,,,,,,,,,,,,,,,,,,,
5,25344, Note_on_c,3,64,127,,,,,,,,,,,,,,,,,,,,,,,
5,25344, Note_on_c,3,66,107,,,,,,,,,,,,,,,,,,,,,,,
5,25344, Note_on_c,3,71,114,,,,,,,,,,,,,,,,,,,,,,,
5,25375, Control_c,3,64,127,,,,,,,,,,,,,,,,,,,,,,,
5,25411, Note_on_c,3,71,0,,,,,,,,,,,,,,,,,,,,,,,
5,25417, Note_on_c,3,59,0,,,,,,,,,,,,,,,,,,,,,,,
5,25418, Note_on_c,3,64,0,,,,,,,,,,,,,,,,,,,,,,,
5,25418, Note_on_c,3,66,0,,,,,,,,,,,,,,,,,,,,,,,
5,25440, Note_on_c,3,59,85,,,,,,,,,,,,,,,,,,,,,,,
5,25440, Note_on_c,3,64,93,,,,,,,,,,,,,,,,,,,,,,,
5,25440, Note_on_c,3,66,70,,,,,,,,,,,,,,,,,,,,,,,
5,25440, Note_on_c,3,71,76,,,,,,,,,,,,,,,,,,,,,,,
5,25459, Note_on_c,3,59,0,,,,,,,,,,,,,,,,,,,,,,,
5,25463, Note_on_c,3,66,0,,,,,,,,,,,,,,,,,,,,,,,
5,25465, Note_on_c,3,64,0,,,,,,,,,,,,,,,,,,,,,,,
5,25472, Note_on_c,3,71,0,,,,,,,,,,,,,,,,,,,,,,,
5,25488, Note_on_c,3,59,78,,,,,,,,,,,,,,,,,,,,,,,
5,25488, Note_on_c,3,64,83,,,,,,,,,,,,,,,,,,,,,,,
5,25488, Note_on_c,3,66,67,,,,,,,,,,,,,,,,,,,,,,,
5,25505, Note_on_c,3,66,0,,,,,,,,,,,,,,,,,,,,,,,
5,25506, Note_on_c,3,64,0,,,,,,,,,,,,,,,,,,,,,,,
5,25508, Note_on_c,3,59,0,,,,,,,,,,,,,,,,,,,,,,,
5,25533, Control_c,3,64,0,,,,,,,,,,,,,,,,,,,,,,,
5,25536, Note_on_c,3,59,118,,,,,,,,,,,,,,,,,,,,,,,
5,25536, Note_on_c,3,64,127,,,,,,,,,,,,,,,,,,,,,,,
5,25536, Note_on_c,3,66,112,,,,,,,,,,,,,,,,,,,,,,,
5,25536, Note_on_c,3,71,110,,,,,,,,,,,,,,,,,,,,,,,
5,25573, Control_c,3,64,127,,,,,,,,,,,,,,,,,,,,,,,
5,25608, Note_on_c,3,64,0,,,,,,,,,,,,,,,,,,,,,,,
5,25609, Note_on_c,3,66,0,,,,,,,,,,,,,,,,,,,,,,,
5,25610, Note_on_c,3,59,0,,,,,,,,,,,,,,,,,,,,,,,
5,25611, Note_on_c,3,71,0,,,,,,,,,,,,,,,,,,,,,,,
5,25632, Note_on_c,3,59,85,,,,,,,,,,,,,,,,,,,,,,,
5,25632, Note_on_c,3,64,98,,,,,,,,,,,,,,,,,,,,,,,
5,25632, Note_on_c,3,66,61,,,,,,,,,,,,,,,,,,,,,,,
5,25632, Note_on_c,3,71,66,,,,,,,,,,,,,,,,,,,,,,,
5,25642, Note_on_c,3,71,0,,,,,,,,,,,,,,,,,,,,,,,
5,25646, Note_on_c,3,66,0,,,,,,,,,,,,,,,,,,,,,,,
5,25648, Note_on_c,3,64,0,,,,,,,,,,,,,,,,,,,,,,,
5,25652, Note_on_c,3,59,0,,,,,,,,,,,,,,,,,,,,,,,
5,25680, Note_on_c,3,59,104,,,,,,,,,,,,,,,,,,,,,,,
5,25680, Note_on_c,3,64,127,,,,,,,,,,,,,,,,,,,,,,,
5,25680, Control_c,3,64,0,,,,,,,,,,,,,,,,,,,,,,,
5,25680, Note_on_c,3,66,103,,,,,,,,,,,,,,,,,,,,,,,
5,25680, Note_on_c,3,71,114,,,,,,,,,,,,,,,,,,,,,,,
5,25714, Control_c,3,64,127,,,,,,,,,,,,,,,,,,,,,,,
5,25741, Note_on_c,3,71,0,,,,,,,,,,,,,,,,,,,,,,,
5,25745, Note_on_c,3,66,0,,,,,,,,,,,,,,,,,,,,,,,
5,25747, Note_on_c,3,59,0,,,,,,,,,,,,,,,,,,,,,,,
5,25747, Note_on_c,3,64,0,,,,,,,,,,,,,,,,,,,,,,,
5,25776, Note_on_c,3,59,118,,,,,,,,,,,,,,,,,,,,,,,
5,25776, Note_on_c,3,64,127,,,,,,,,,,,,,,,,,,,,,,,
5,25776, Note_on_c,3,66,103,,,,,,,,,,,,,,,,,,,,,,,
5,25776, Note_on_c,3,71,101,,,,,,,,,,,,,,,,,,,,,,,
5,25781, Control_c,3,64,0,,,,,,,,,,,,,,,,,,,,,,,
5,25816, Control_c,3,64,127,,,,,,,,,,,,,,,,,,,,,,,
5,25840, Note_on_c,3,71,0,,,,,,,,,,,,,,,,,,,,,,,
5,25844, Note_on_c,3,59,0,,,,,,,,,,,,,,,,,,,,,,,
5,25845, Note_on_c,3,66,0,,,,,,,,,,,,,,,,,,,,,,,
5,25847, Note_on_c,3,64,0,,,,,,,,,,,,,,,,,,,,,,,
5,25872, Note_on_c,3,59,114,,,,,,,,,,,,,,,,,,,,,,,
5,25872, Note_on_c,3,64,118,,,,,,,,,,,,,,,,,,,,,,,
5,25872, Note_on_c,3,66,92,,,,,,,,,,,,,,,,,,,,,,,
5,25872, Note_on_c,3,71,101,,,,,,,,,,,,,,,,,,,,,,,
5,25900, Control_c,3,64,0,,,,,,,,,,,,,,,,,,,,,,,
5,25935, Control_c,3,64,127,,,,,,,,,,,,,,,,,,,,,,,
5,25937, Note_on_c,3,59,0,,,,,,,,,,,,,,,,,,,,,,,
5,25943, Note_on_c,3,71,0,,,,,,,,,,,,,,,,,,,,,,,
5,25944, Note_on_c,3,66,0,,,,,,,,,,,,,,,,,,,,,,,
5,25946, Note_on_c,3,64,0,,,,,,,,,,,,,,,,,,,,,,,
5,25968, Note_on_c,3,59,95,,,,,,,,,,,,,,,,,,,,,,,
5,25968, Note_on_c,3,64,98,,,,,,,,,,,,,,,,,,,,,,,
5,25968, Note_on_c,3,66,78,,,,,,,,,,,,,,,,,,,,,,,
5,25968, Note_on_c,3,71,85,,,,,,,,,,,,,,,,,,,,,,,
5,25991, Note_on_c,3,66,0,,,,,,,,,,,,,,,,,,,,,,,
5,25993, Note_on_c,3,59,0,,,,,,,,,,,,,,,,,,,,,,,
5,25993, Note_on_c,3,64,0,,,,,,,,,,,,,,,,,,,,,,,
5,25993, Note_on_c,3,71,0,,,,,,,,,,,,,,,,,,,,,,,
5,26016, Note_on_c,3,59,107,,,,,,,,,,,,,,,,,,,,,,,
5,26016, Note_on_c,3,64,127,,,,,,,,,,,,,,,,,,,,,,,
5,26016, Note_on_c,3,66,103,,,,,,,,,,,,,,,,,,,,,,,
5,26016, Note_on_c,3,71,110,,,,,,,,,,,,,,,,,,,,,,,
5,26067, Control_c,3,64,0,,,,,,,,,,,,,,,,,,,,,,,
5,26069, Note_on_c,3,71,0,,,,,,,,,,,,,,,,,,,,,,,
5,26071, Note_on_c,3,66,0,,,,,,,,,,,,,,,,,,,,,,,
5,26072, Note_on_c,3,64,0,,,,,,,,,,,,,,,,,,,,,,,
5,26074, Note_on_c,3,59,0,,,,,,,,,,,,,,,,,,,,,,,
5,26112, Note_on_c,3,54,103,,,,,,,,,,,,,,,,,,,,,,,
5,26112, Note_on_c,3,57,118,,,,,,,,,,,,,,,,,,,,,,,
5,26112, Note_on_c,3,64,118,,,,,,,,,,,,,,,,,,,,,,,
5,26118, Control_c,3,64,127,,,,,,,,,,,,,,,,,,,,,,,
5,26188, Note_on_c,3,64,0,,,,,,,,,,,,,,,,,,,,,,,
5,26190, Note_on_c,3,54,0,,,,,,,,,,,,,,,,,,,,,,,
5,26192, Control_c,3,64,0,,,,,,,,,,,,,,,,,,,,,,,
5,26193, Note_on_c,3,57,0,,,,,,,,,,,,,,,,,,,,,,,
5,26208, Note_on_c,3,54,92,,,,,,,,,,,,,,,,,,,,,,,
5,26208, Note_on_c,3,57,110,,,,,,,,,,,,,,,,,,,,,,,
5,26208, Note_on_c,3,61,88,,,,,,,,,,,,,,,,,,,,,,,
5,26294, Note_on_c,3,54,0,,,,,,,,,,,,,,,,,,,,,,,
5,26295, Note_on_c,3,61,0,,,,,,,,,,,,,,,,,,,,,,,
5,26297, Note_on_c,3,57,0,,,,,,,,,,,,,,,,,,,,,,,
5,26304, Note_on_c,3,54,103,,,,,,,,,,,,,,,,,,,,,,,
5,26304, Note_on_c,3,57,127,,,,,,,,,,,,,,,,,,,,,,,
5,26304, Note_on_c,3,61,92,,,,,,,,,,,,,,,,,,,,,,,
5,26312, Control_c,3,64,127,,,,,,,,,,,,,,,,,,,,,,,
5,26352, Note_on_c,3,54,0,,,,,,,,,,,,,,,,,,,,,,,
5,26368, Note_on_c,3,61,0,,,,,,,,,,,,,,,,,,,,,,,
5,26373, Note_on_c,3,57,0,,,,,,,,,,,,,,,,,,,,,,,
5,26400, Note_on_c,3,54,86,,,,,,,,,,,,,,,,,,,,,,,
5,26428, Note_on_c,3,54,0,,,,,,,,,,,,,,,,,,,,,,,
5,26429, Control_c,3,64,0,,,,,,,,,,,,,,,,,,,,,,,
5,26448, Note_on_c,3,54,92,,,,,,,,,,,,,,,,,,,,,,,
5,26448, Note_on_c,3,57,114,,,,,,,,,,,,,,,,,,,,,,,
5,26448, Note_on_c,3,64,114,,,,,,,,,,,,,,,,,,,,,,,
5,26469, Control_c,3,64,127,,,,,,,,,,,,,,,,,,,,,,,
5,26498, Note_on_c,3,54,0,,,,,,,,,,,,,,,,,,,,,,,
5,26527, Note_on_c,3,57,0,,,,,,,,,,,,,,,,,,,,,,,
5,26544, Note_on_c,3,54,86,,,,,,,,,,,,,,,,,,,,,,,
5,26552, Note_on_c,3,64,0,,,,,,,,,,,,,,,,,,,,,,,
5,26573, Note_on_c,3,54,0,,,,,,,,,,,,,,,,,,,,,,,
5,26578, Control_c,3,64,0,,,,,,,,,,,,,,,,,,,,,,,
5,26592, Note_on_c,3,54,99,,,,,,,,,,,,,,,,,,,,,,,
5,26592, Note_on_c,3,57,110,,,,,,,,,,,,,,,,,,,,,,,
5,26592, Note_on_c,3,61,78,,,,,,,,,,,,,,,,,,,,,,,
5,26618, Control_c,3,64,127,,,,,,,,,,,,,,,,,,,,,,,
5,26671, Control_c,3,64,0,,,,,,,,,,,,,,,,,,,,,,,
5,26673, Note_on_c,3,54,0,,,,,,,,,,,,,,,,,,,,,,,
5,26674, Note_on_c,3,61,0,,,,,,,,,,,,,,,,,,,,,,,
5,26677, Note_on_c,3,57,0,,,,,,,,,,,,,,,,,,,,,,,
5,26688, Note_on_c,3,54,107,,,,,,,,,,,,,,,,,,,,,,,
5,26688, Note_on_c,3,57,127,,,,,,,,,,,,,,,,,,,,,,,
5,26688, Note_on_c,3,61,86,,,,,,,,,,,,,,,,,,,,,,,
5,26710, Control_c,3,64,127,,,,,,,,,,,,,,,,,,,,,,,
5,26752, Note_on_c,3,54,0,,,,,,,,,,,,,,,,,,,,,,,
5,26758, Note_on_c,3,61,0,,,,,,,,,,,,,,,,,,,,,,,
5,26768, Note_on_c,3,57,0,,,,,,,,,,,,,,,,,,,,,,,
5,26784, Note_on_c,3,54,88,,,,,,,,,,,,,,,,,,,,,,,
5,26832, Note_on_c,3,57,95,,,,,,,,,,,,,,,,,,,,,,,
5,26843, Note_on_c,3,54,0,,,,,,,,,,,,,,,,,,,,,,,
5,26864, Note_on_c,3,57,0,,,,,,,,,,,,,,,,,,,,,,,
5,26870, Control_c,3,64,0,,,,,,,,,,,,,,,,,,,,,,,
5,26880, Note_on_c,3,54,103,,,,,,,,,,,,,,,,,,,,,,,
5,26880, Note_on_c,3,57,122,,,,,,,,,,,,,,,,,,,,,,,
5,26880, Note_on_c,3,64,122,,,,,,,,,,,,,,,,,,,,,,,
5,26918, Control_c,3,64,127,,,,,,,,,,,,,,,,,,,,,,,
5,26950, Note_on_c,3,64,0,,,,,,,,,,,,,,,,,,,,,,,
5,26951, Note_on_c,3,54,0,,,,,,,,,,,,,,,,,,,,,,,
5,26955, Note_on_c,3,57,0,,,,,,,,,,,,,,,,,,,,,,,
5,26971, Control_c,3,64,0,,,,,,,,,,,,,,,,,,,,,,,
5,26976, Note_on_c,3,54,99,,,,,,,,,,,,,,,,,,,,,,,
5,26976, Note_on_c,3,57,118,,,,,,,,,,,,,,,,,,,,,,,
5,26976, Note_on_c,3,61,82,,,,,,,,,,,,,,,,,,,,,,,
5,27010, Control_c,3,64,127,,,,,,,,,,,,,,,,,,,,,,,
5,27048, Note_on_c,3,61,0,,,,,,,,,,,,,,,,,,,,,,,
5,27050, Control_c,3,64,0,,,,,,,,,,,,,,,,,,,,,,,
5,27052, Note_on_c,3,54,0,,,,,,,,,,,,,,,,,,,,,,,
5,27053, Note_on_c,3,57,0,,,,,,,,,,,,,,,,,,,,,,,
5,27072, Note_on_c,3,54,103,,,,,,,,,,,,,,,,,,,,,,,
5,27072, Note_on_c,3,57,127,,,,,,,,,,,,,,,,,,,,,,,
5,27072, Note_on_c,3,61,88,,,,,,,,,,,,,,,,,,,,,,,
5,27094, Control_c,3,64,127,,,,,,,,,,,,,,,,,,,,,,,
5,27123, Note_on_c,3,54,0,,,,,,,,,,,,,,,,,,,,,,,
5,27147, Note_on_c,3,57,0,,,,,,,,,,,,,,,,,,,,,,,
5,27147, Note_on_c,3,61,0,,,,,,,,,,,,,,,,,,,,,,,
5,27168, Note_on_c,3,54,99,,,,,,,,,,,,,,,,,,,,,,,
5,27191, Control_c,3,64,0,,,,,,,,,,,,,,,,,,,,,,,
5,27216, Note_on_c,3,57,107,,,,,,,,,,,,,,,,,,,,,,,
5,27216, Note_on_c,3,64,107,,,,,,,,,,,,,,,,,,,,,,,
5,27235, Control_c,3,64,127,,,,,,,,,,,,,,,,,,,,,,,
5,27263, Note_on_c,3,54,0,,,,,,,,,,,,,,,,,,,,,,,
5,27290, Note_on_c,3,57,0,,,,,,,,,,,,,,,,,,,,,,,
5,27308, Note_on_c,3,64,0,,,,,,,,,,,,,,,,,,,,,,,
5,27312, Note_on_c,3,54,95,,,,,,,,,,,,,,,,,,,,,,,
5,27312, Note_on_c,3,57,98,,,,,,,,,,,,,,,,,,,,,,,
5,27312, Note_on_c,3,61,86,,,,,,,,,,,,,,,,,,,,,,,
5,27341, Note_on_c,3,57,0,,,,,,,,,,,,,,,,,,,,,,,
5,27344, Note_on_c,3,54,0,,,,,,,,,,,,,,,,,,,,,,,
5,27345, Note_on_c,3,61,0,,,,,,,,,,,,,,,,,,,,,,,
5,27360, Note_on_c,3,54,99,,,,,,,,,,,,,,,,,,,,,,,
5,27360, Note_on_c,3,57,110,,,,,,,,,,,,,,,,,,,,,,,
5,27360, Note_on_c,3,61,86,,,,,,,,,,,,,,,,,,,,,,,
5,27363, Control_c,3,64,0,,,,,,,,,,,,,,,,,,,,,,,
5,27411, Control_c,3,64,127,,,,,,,,,,,,,,,,,,,,,,,
5,27431, Note_on_c,3,61,0,,,,,,,,,,,,,,,,,,,,,,,
5,27437, Note_on_c,3,54,0,,,,,,,,,,,,,,,,,,,,,,,
5,27439, Note_on_c,3,57,0,,,,,,,,,,,,,,,,,,,,,,,
5,27451, Control_c,3,64,0,,,,,,,,,,,,,,,,,,,,,,,
5,27456, Note_on_c,3,54,95,,,,,,,,,,,,,,,,,,,,,,,
5,27456, Note_on_c,3,57,114,,,,,,,,,,,,,,,,,,,,,,,
5,27456, Note_on_c,3,61,86,,,,,,,,,,,,,,,,,,,,,,,
5,27490, Control_c,3,64,127,,,,,,,,,,,,,,,,,,,,,,,
5,27523, Note_on_c,3,61,0,,,,,,,,,,,,,,,,,,,,,,,
5,27526, Note_on_c,3,54,0,,,,,,,,,,,,,,,,,,,,,,,
5,27532, Note_on_c,3,57,0,,,,,,,,,,,,,,,,,,,,,,,
5,27552, Note_on_c,3,54,95,,,,,,,,,,,,,,,,,,,,,,,
5,27579, Note_on_c,3,54,0,,,,,,,,,,,,,,,,,,,,,,,
5,27600, Note_on_c,3,54,59,,,,,,,,,,,,,,,,,,,,,,,
5,27600, Note_on_c,3,57,74,,,,,,,,,,,,,,,,,,,,,,,
5,27600, Note_on_c,3,61,74,,,,,,,,,,,,,,,,,,,,,,,
5,27619, Note_on_c,3,54,0,,,,,,,,,,,,,,,,,,,,,,,
5,27622, Note_on_c,3,57,0,,,,,,,,,,,,,,,,,,,,,,,
5,27623, Note_on_c,3,61,0,,,,,,,,,,,,,,,,,,,,,,,
5,27628, Control_c,3,64,0,,,,,,,,,,,,,,,,,,,,,,,
5,27648, Note_on_c,3,54,92,,,,,,,,,,,,,,,,,,,,,,,
5,27648, Note_on_c,3,57,110,,,,,,,,,,,,,,,,,,,,,,,
5,27648, Note_on_c,3,64,110,,,,,,,,,,,,,,,,,,,,,,,
5,27681, Control_c,3,64,127,,,,,,,,,,,,,,,,,,,,,,,
5,27717, Note_on_c,3,64,0,,,,,,,,,,,,,,,,,,,,,,,
5,27721, Note_on_c,3,54,0,,,,,,,,,,,,,,,,,,,,,,,
5,27721, Note_on_c,3,57,0,,,,,,,,,,,,,,,,,,,,,,,
5,27729, Control_c,3,64,0,,,,,,,,,,,,,,,,,,,,,,,
5,27744, Note_on_c,3,54,95,,,,,,,,,,,,,,,,,,,,,,,
5,27744, Note_on_c,3,57,114,,,,,,,,,,,,,,,,,,,,,,,
5,27744, Note_on_c,3,61,59,,,,,,,,,,,,,,,,,,,,,,,
5,27773, Control_c,3,64,127,,,,,,,,,,,,,,,,,,,,,,,
5,27813, Control_c,3,64,0,,,,,,,,,,,,,,,,,,,,,,,
5,27817, Note_on_c,3,54,0,,,,,,,,,,,,,,,,,,,,,,,
5,27819, Note_on_c,3,57,0,,,,,,,,,,,,,,,,,,,,,,,
5,27819, Note_on_c,3,61,0,,,,,,,,,,,,,,,,,,,,,,,
5,27840, Note_on_c,3,54,107,,,,,,,,,,,,,,,,,,,,,,,
5,27840, Note_on_c,3,57,127,,,,,,,,,,,,,,,,,,,,,,,
5,27840, Note_on_c,3,61,67,,,,,,,,,,,,,,,,,,,,,,,
5,27866, Control_c,3,64,127,,,,,,,,,,,,,,,,,,,,,,,
5,27902, Note_on_c,3,54,0,,,,,,,,,,,,,,,,,,,,,,,
5,27917, Note_on_c,3,61,0,,,,,,,,,,,,,,,,,,,,,,,
5,27927, Note_on_c,3,57,0,,,,,,,,,,,,,,,,,,,,,,,
5,27936, Note_on_c,3,54,95,,,,,,,,,,,,,,,,,,,,,,,
5,27963, Control_c,3,64,0,,,,,,,,,,,,,,,,,,,,,,,
5,27973, Note_on_c,3,54,0,,,,,,,,,,,,,,,,,,,,,,,
5,27984, Note_on_c,3,54,64,,,,,,,,,,,,,,,,,,,,,,,
5,27984, Note_on_c,3,57,114,,,,,,,,,,,,,,,,,,,,,,,
5,27984, Note_on_c,3,64,110,,,,,,,,,,,,,,,,,,,,,,,
5,28011, Control_c,3,64,127,,,,,,,,,,,,,,,,,,,,,,,
5,28035, Note_on_c,3,54,0,,,,,,,,,,,,,,,,,,,,,,,
5,28080, Note_on_c,3,54,92,,,,,,,,,,,,,,,,,,,,,,,
5,28094, Note_on_c,3,64,0,,,,,,,,,,,,,,,,,,,,,,,
5,28098, Note_on_c,3,57,0,,,,,,,,,,,,,,,,,,,,,,,
5,28117, Control_c,3,64,0,,,,,,,,,,,,,,,,,,,,,,,
5,28128, Note_on_c,3,57,114,,,,,,,,,,,,,,,,,,,,,,,
5,28128, Note_on_c,3,61,88,,,,,,,,,,,,,,,,,,,,,,,
5,28165, Control_c,3,64,127,,,,,,,,,,,,,,,,,,,,,,,
5,28197, Note_on_c,3,54,0,,,,,,,,,,,,,,,,,,,,,,,
5,28197, Note_on_c,3,61,0,,,,,,,,,,,,,,,,,,,,,,,
5,28203, Note_on_c,3,57,0,,,,,,,,,,,,,,,,,,,,,,,
5,28208, Control_c,3,64,0,,,,,,,,,,,,,,,,,,,,,,,
5,28224, Note_on_c,3,54,107,,,,,,,,,,,,,,,,,,,,,,,
5,28224, Note_on_c,3,57,118,,,,,,,,,,,,,,,,,,,,,,,
5,28224, Note_on_c,3,61,88,,,,,,,,,,,,,,,,,,,,,,,
5,28261, Control_c,3,64,127,,,,,,,,,,,,,,,,,,,,,,,
5,28294, Note_on_c,3,61,0,,,,,,,,,,,,,,,,,,,,,,,
5,28297, Note_on_c,3,54,0,,,,,,,,,,,,,,,,,,,,,,,
5,28305, Note_on_c,3,57,0,,,,,,,,,,,,,,,,,,,,,,,
5,28320, Note_on_c,3,54,92,,,,,,,,,,,,,,,,,,,,,,,
5,28352, Note_on_c,3,54,0,,,,,,,,,,,,,,,,,,,,,,,
5,28368, Note_on_c,3,54,50,,,,,,,,,,,,,,,,,,,,,,,
5,28368, Note_on_c,3,57,101,,,,,,,,,,,,,,,,,,,,,,,
5,28368, Note_on_c,3,61,82,,,,,,,,,,,,,,,,,,,,,,,
5,28392, Note_on_c,3,54,0,,,,,,,,,,,,,,,,,,,,,,,
5,28392, Control_c,3,64,0,,,,,,,,,,,,,,,,,,,,,,,
5,28393, Note_on_c,3,61,0,,,,,,,,,,,,,,,,,,,,,,,
5,28399, Note_on_c,3,57,0,,,,,,,,,,,,,,,,,,,,,,,
5,28416, Note_on_c,3,54,103,,,,,,,,,,,,,,,,,,,,,,,
5,28416, Note_on_c,3,57,127,,,,,,,,,,,,,,,,,,,,,,,
5,28416, Note_on_c,3,64,127,,,,,,,,,,,,,,,,,,,,,,,
5,28445, Control_c,3,64,127,,,,,,,,,,,,,,,,,,,,,,,
5,28485, Note_on_c,3,64,0,,,,,,,,,,,,,,,,,,,,,,,
5,28486, Note_on_c,3,54,0,,,,,,,,,,,,,,,,,,,,,,,
5,28494, Note_on_c,3,57,0,,,,,,,,,,,,,,,,,,,,,,,
5,28503, Control_c,3,64,0,,,,,,,,,,,,,,,,,,,,,,,
5,28512, Note_on_c,3,54,107,,,,,,,,,,,,,,,,,,,,,,,
5,28512, Note_on_c,3,57,122,,,,,,,,,,,,,,,,,,,,,,,
5,28512, Note_on_c,3,61,82,,,,,,,,,,,,,,,,,,,,,,,
5,28551, Control_c,3,64,127,,,,,,,,,,,,,,,,,,,,,,,
5,28583, Note_on_c,3,54,0,,,,,,,,,,,,,,,,,,,,,,,
5,28585, Note_on_c,3,61,0,,,,,,,,,,,,,,,,,,,,,,,
5,28588, Note_on_c,3,57,0,,,,,,,,,,,,,,,,,,,,,,,
5,28591, Control_c,3,64,0,,,,,,,,,,,,,,,,,,,,,,,
5,28608, Note_on_c,3,54,107,,,,,,,,,,,,,,,,,,,,,,,
5,28608, Note_on_c,3,57,122,,,,,,,,,,,,,,,,,,,,,,,
5,28608, Note_on_c,3,61,99,,,,,,,,,,,,,,,,,,,,,,,
5,28644, Control_c,3,64,127,,,,,,,,,,,,,,,,,,,,,,,
5,28661, Note_on_c,3,54,0,,,,,,,,,,,,,,,,,,,,,,,
5,28682, Note_on_c,3,57,0,,,,,,,,,,,,,,,,,,,,,,,
5,28688, Note_on_c,3,61,0,,,,,,,,,,,,,,,,,,,,,,,
5,28704, Note_on_c,3,54,99,,,,,,,,,,,,,,,,,,,,,,,
5,28723, Control_c,3,64,0,,,,,,,,,,,,,,,,,,,,,,,
5,28752, Note_on_c,3,57,114,,,,,,,,,,,,,,,,,,,,,,,
5,28752, Note_on_c,3,64,114,,,,,,,,,,,,,,,,,,,,,,,
5,28780, Control_c,3,64,127,,,,,,,,,,,,,,,,,,,,,,,
5,28805, Note_on_c,3,54,0,,,,,,,,,,,,,,,,,,,,,,,
5,28841, Note_on_c,3,57,0,,,,,,,,,,,,,,,,,,,,,,,
5,28848, Note_on_c,3,54,95,,,,,,,,,,,,,,,,,,,,,,,
5,28865, Note_on_c,3,64,0,,,,,,,,,,,,,,,,,,,,,,,
5,28876, Control_c,3,64,0,,,,,,,,,,,,,,,,,,,,,,,
5,28885, Note_on_c,3,54,0,,,,,,,,,,,,,,,,,,,,,,,
5,28896, Note_on_c,3,54,78,,,,,,,,,,,,,,,,,,,,,,,
5,28896, Note_on_c,3,57,110,,,,,,,,,,,,,,,,,,,,,,,
5,28896, Note_on_c,3,61,51,,,,,,,,,,,,,,,,,,,,,,,
5,28930, Control_c,3,64,127,,,,,,,,,,,,,,,,,,,,,,,
5,28968, Note_on_c,3,61,0,,,,,,,,,,,,,,,,,,,,,,,
5,28972, Note_on_c,3,54,0,,,,,,,,,,,,,,,,,,,,,,,
5,28974, Note_on_c,3,57,0,,,,,,,,,,,,,,,,,,,,,,,
5,28978, Control_c,3,64,0,,,,,,,,,,,,,,,,,,,,,,,
5,28992, Note_on_c,3,54,107,,,,,,,,,,,,,,,,,,,,,,,
5,28992, Note_on_c,3,57,127,,,,,,,,,,,,,,,,,,,,,,,
5,28992, Note_on_c,3,61,64,,,,,,,,,,,,,,,,,,,,,,,
5,29026, Control_c,3,64,127,,,,,,,,,,,,,,,,,,,,,,,
5,29055, Note_on_c,3,61,0,,,,,,,,,,,,,,,,,,,,,,,
5,29060, Note_on_c,3,54,0,,,,,,,,,,,,,,,,,,,,,,,
5,29065, Note_on_c,3,57,0,,,,,,,,,,,,,,,,,,,,,,,
5,29070, Control_c,3,64,0,,,,,,,,,,,,,,,,,,,,,,,
5,29088, Note_on_c,3,54,103,,,,,,,,,,,,,,,,,,,,,,,
5,29088, Note_on_c,3,57,110,,,,,,,,,,,,,,,,,,,,,,,
5,29088, Note_on_c,3,61,80,,,,,,,,,,,,,,,,,,,,,,,
5,29106, Control_c,3,64,127,,,,,,,,,,,,,,,,,,,,,,,
5,29115, Note_on_c,3,54,0,,,,,,,,,,,,,,,,,,,,,,,
5,29129, Note_on_c,3,61,0,,,,,,,,,,,,,,,,,,,,,,,
5,29136, Note_on_c,3,54,88,,,,,,,,,,,,,,,,,,,,,,,
5,29153, Note_on_c,3,57,0,,,,,,,,,,,,,,,,,,,,,,,
5,29170, Note_on_c,3,54,0,,,,,,,,,,,,,,,,,,,,,,,
5,29177, Control_c,3,64,0,,,,,,,,,,,,,,,,,,,,,,,
5,29184, Note_on_c,3,54,95,,,,,,,,,,,,,,,,,,,,,,,
5,29184, Note_on_c,3,57,118,,,,,,,,,,,,,,,,,,,,,,,
5,29184, Note_on_c,3,64,122,,,,,,,,,,,,,,,,,,,,,,,
5,29225, Control_c,3,64,127,,,,,,,,,,,,,,,,,,,,,,,
5,29260, Note_on_c,3,54,0,,,,,,,,,,,,,,,,,,,,,,,
5,29263, Note_on_c,3,64,0,,,,,,,,,,,,,,,,,,,,,,,
5,29266, Note_on_c,3,57,0,,,,,,,,,,,,,,,,,,,,,,,
5,29280, Note_on_c,3,54,103,,,,,,,,,,,,,,,,,,,,,,,
5,29280, Note_on_c,3,57,118,,,,,,,,,,,,,,,,,,,,,,,
5,29280, Note_on_c,3,61,46,,,,,,,,,,,,,,,,,,,,,,,
5,29282, Control_c,3,64,0,,,,,,,,,,,,,,,,,,,,,,,
5,29322, Control_c,3,64,127,,,,,,,,,,,,,,,,,,,,,,,
5,29342, Note_on_c,3,61,0,,,,,,,,,,,,,,,,,,,,,,,
5,29355, Note_on_c,3,54,0,,,,,,,,,,,,,,,,,,,,,,,
5,29357, Control_c,3,64,0,,,,,,,,,,,,,,,,,,,,,,,
5,29359, Note_on_c,3,57,0,,,,,,,,,,,,,,,,,,,,,,,
5,29376, Note_on_c,3,54,107,,,,,,,,,,,,,,,,,,,,,,,
5,29376, Note_on_c,3,57,122,,,,,,,,,,,,,,,,,,,,,,,
5,29376, Note_on_c,3,61,82,,,,,,,,,,,,,,,,,,,,,,,
5,29401, Control_c,3,64,127,,,,,,,,,,,,,,,,,,,,,,,
5,29425, Note_on_c,3,54,0,,,,,,,,,,,,,,,,,,,,,,,
5,29443, Note_on_c,3,61,0,,,,,,,,,,,,,,,,,,,,,,,
5,29449, Note_on_c,3,57,0,,,,,,,,,,,,,,,,,,,,,,,
5,29472, Note_on_c,3,54,99,,,,,,,,,,,,,,,,,,,,,,,
5,29497, Control_c,3,64,0,,,,,,,,,,,,,,,,,,,,,,,
5,29508, Note_on_c,3,54,0,,,,,,,,,,,,,,,,,,,,,,,
5,29520, Note_on_c,3,54,74,,,,,,,,,,,,,,,,,,,,,,,
5,29520, Note_on_c,3,57,114,,,,,,,,,,,,,,,,,,,,,,,
5,29520, Note_on_c,3,64,114,,,,,,,,,,,,,,,,,,,,,,,
5,29545, Control_c,3,64,127,,,,,,,,,,,,,,,,,,,,,,,
5,29570, Note_on_c,3,54,0,,,,,,,,,,,,,,,,,,,,,,,
5,29611, Note_on_c,3,64,0,,,,,,,,,,,,,,,,,,,,,,,
5,29616, Note_on_c,3,54,88,,,,,,,,,,,,,,,,,,,,,,,
5,29638, Note_on_c,3,57,0,,,,,,,,,,,,,,,,,,,,,,,
5,29638, Control_c,3,64,0,,,,,,,,,,,,,,,,,,,,,,,
5,29664, Note_on_c,3,57,118,,,,,,,,,,,,,,,,,,,,,,,
5,29664, Note_on_c,3,61,74,,,,,,,,,,,,,,,,,,,,,,,
5,29682, Control_c,3,64,127,,,,,,,,,,,,,,,,,,,,,,,
5,29734, Control_c,3,64,0,,,,,,,,,,,,,,,,,,,,,,,
5,29738, Note_on_c,3,61,0,,,,,,,,,,,,,,,,,,,,,,,
5,29740, Note_on_c,3,54,0,,,,,,,,,,,,,,,,,,,,,,,
5,29747, Note_on_c,3,57,0,,,,,,,,,,,,,,,,,,,,,,,
5,29760, Note_on_c,3,54,107,,,,,,,,,,,,,,,,,,,,,,,
5,29760, Note_on_c,3,57,122,,,,,,,,,,,,,,,,,,,,,,,
5,29760, Note_on_c,3,61,88,,,,,,,,,,,,,,,,,,,,,,,
5,29779, Control_c,3,64,127,,,,,,,,,,,,,,,,,,,,,,,
5,29817, Note_on_c,3,54,0,,,,,,,,,,,,,,,,,,,,,,,
5,29820, Note_on_c,3,61,0,,,,,,,,,,,,,,,,,,,,,,,
5,29837, Note_on_c,3,57,0,,,,,,,,,,,,,,,,,,,,,,,
5,29856, Note_on_c,3,54,86,,,,,,,,,,,,,,,,,,,,,,,
5,29856, Note_on_c,3,57,107,,,,,,,,,,,,,,,,,,,,,,,
5,29856, Note_on_c,3,61,92,,,,,,,,,,,,,,,,,,,,,,,
5,29878, Note_on_c,3,54,0,,,,,,,,,,,,,,,,,,,,,,,
5,29880, Note_on_c,3,57,0,,,,,,,,,,,,,,,,,,,,,,,
5,29882, Note_on_c,3,61,0,,,,,,,,,,,,,,,,,,,,,,,
5,29904, Note_on_c,3,54,88,,,,,,,,,,,,,,,,,,,,,,,
5,29929, Control_c,3,64,0,,,,,,,,,,,,,,,,,,,,,,,
5,29952, Note_on_c,3,57,110,,,,,,,,,,,,,,,,,,,,,,,
5,29952, Note_on_c,3,64,114,,,,,,,,,,,,,,,,,,,,,,,
5,29978, Control_c,3,64,127,,,,,,,,,,,,,,,,,,,,,,,
5,30004, Note_on_c,3,54,0,,,,,,,,,,,,,,,,,,,,,,,
5,30025, Note_on_c,3,64,0,,,,,,,,,,,,,,,,,,,,,,,
5,30026, Note_on_c,3,57,0,,,,,,,,,,,,,,,,,,,,,,,
5,30044, Control_c,3,64,0,,,,,,,,,,,,,,,,,,,,,,,
5,30048, Note_on_c,3,54,95,,,,,,,,,,,,,,,,,,,,,,,
5,30048, Note_on_c,3,57,110,,,,,,,,,,,,,,,,,,,,,,,
5,30048, Note_on_c,3,61,92,,,,,,,,,,,,,,,,,,,,,,,
5,30087, Control_c,3,64,127,,,,,,,,,,,,,,,,,,,,,,,
5,30116, Note_on_c,3,61,0,,,,,,,,,,,,,,,,,,,,,,,
5,30118, Control_c,3,64,0,,,,,,,,,,,,,,,,,,,,,,,
5,30123, Note_on_c,3,54,0,,,,,,,,,,,,,,,,,,,,,,,
5,30123, Note_on_c,3,57,0,,,,,,,,,,,,,,,,,,,,,,,
5,30144, Note_on_c,3,54,103,,,,,,,,,,,,,,,,,,,,,,,
5,30144, Note_on_c,3,57,127,,,,,,,,,,,,,,,,,,,,,,,
5,30144, Note_on_c,3,61,72,,,,,,,,,,,,,,,,,,,,,,,
5,30165, Control_c,3,64,127,,,,,,,,,,,,,,,,,,,,,,,
5,30197, Note_on_c,3,54,0,,,,,,,,,,,,,,,,,,,,,,,
5,30210, Note_on_c,3,61,0,,,,,,,,,,,,,,,,,,,,,,,
5,30221, Note_on_c,3,57,0,,,,,,,,,,,,,,,,,,,,,,,
5,30240, Note_on_c,3,54,95,,,,,,,,,,,,,,,,,,,,,,,
5,30266, Control_c,3,64,0,,,,,,,,,,,,,,,,,,,,,,,
5,30280, Note_on_c,3,54,0,,,,,,,,,,,,,,,,,,,,,,,
5,30288, Note_on_c,3,54,48,,,,,,,,,,,,,,,,,,,,,,,
5,30288, Note_on_c,3,57,110,,,,,,,,,,,,,,,,,,,,,,,
5,30288, Note_on_c,3,64,110,,,,,,,,,,,,,,,,,,,,,,,
5,30319, Control_c,3,64,127,,,,,,,,,,,,,,,,,,,,,,,
5,30334, Note_on_c,3,54,0,,,,,,,,,,,,,,,,,,,,,,,
5,30363, Note_on_c,3,57,0,,,,,,,,,,,,,,,,,,,,,,,
5,30384, Note_on_c,3,54,95,,,,,,,,,,,,,,,,,,,,,,,
5,30407, Control_c,3,64,0,,,,,,,,,,,,,,,,,,,,,,,
5,30415, Note_on_c,3,64,0,,,,,,,,,,,,,,,,,,,,,,,
5,30432, Note_on_c,3,57,118,,,,,,,,,,,,,,,,,,,,,,,
5,30432, Note_on_c,3,61,52,,,,,,,,,,,,,,,,,,,,,,,
5,30456, Control_c,3,64,127,,,,,,,,,,,,,,,,,,,,,,,
5,30501, Note_on_c,3,61,0,,,,,,,,,,,,,,,,,,,,,,,
5,30508, Note_on_c,3,54,0,,,,,,,,,,,,,,,,,,,,,,,
5,30511, Note_on_c,3,57,0,,,,,,,,,,,,,,,,,,,,,,,
5,30517, Control_c,3,64,0,,,,,,,,,,,,,,,,,,,,,,,
5,30528, Note_on_c,3,54,99,,,,,,,,,,,,,,,,,,,,,,,
5,30528, Note_on_c,3,57,107,,,,,,,,,,,,,,,,,,,,,,,
5,30528, Note_on_c,3,61,82,,,,,,,,,,,,,,,,,,,,,,,
5,30557, Control_c,3,64,127,,,,,,,,,,,,,,,,,,,,,,,
5,30599, Note_on_c,3,61,0,,,,,,,,,,,,,,,,,,,,,,,
5,30609, Note_on_c,3,54,0,,,,,,,,,,,,,,,,,,,,,,,
5,30610, Note_on_c,3,57,0,,,,,,,,,,,,,,,,,,,,,,,
5,30624, Note_on_c,3,54,103,,,,,,,,,,,,,,,,,,,,,,,
5,30624, Note_on_c,3,57,122,,,,,,,,,,,,,,,,,,,,,,,
5,30624, Note_on_c,3,61,74,,,,,,,,,,,,,,,,,,,,,,,
5,30669, Note_on_c,3,61,0,,,,,,,,,,,,,,,,,,,,,,,
5,30696, Note_on_c,3,57,0,,,,,,,,,,,,,,,,,,,,,,,
5,30702, Control_c,3,64,0,,,,,,,,,,,,,,,,,,,,,,,
5,30710, Note_on_c,3,54,0,,,,,,,,,,,,,,,,,,,,,,,
5,30720, Note_on_c,3,54,67,,,,,,,,,,,,,,,,,,,,,,,
5,30720, Note_on_c,3,57,114,,,,,,,,,,,,,,,,,,,,,,,
5,30720, Note_on_c,3,64,110,,,,,,,,,,,,,,,,,,,,,,,
5,30750, Control_c,3,64,127,,,,,,,,,,,,,,,,,,,,,,,
5,30791, Note_on_c,3,54,0,,,,,,,,,,,,,,,,,,,,,,,
5,30802, Note_on_c,3,57,0,,,,,,,,,,,,,,,,,,,,,,,
5,30803, Note_on_c,3,64,0,,,,,,,,,,,,,,,,,,,,,,,
5,30816, Note_on_c,3,54,103,,,,,,,,,,,,,,,,,,,,,,,
5,30816, Note_on_c,3,57,107,,,,,,,,,,,,,,,,,,,,,,,
5,30816, Note_on_c,3,61,80,,,,,,,,,,,,,,,,,,,,,,,
5,30825, Control_c,3,64,0,,,,,,,,,,,,,,,,,,,,,,,
5,30865, Control_c,3,64,127,,,,,,,,,,,,,,,,,,,,,,,
5,30878, Note_on_c,3,61,0,,,,,,,,,,,,,,,,,,,,,,,
5,30892, Note_on_c,3,54,0,,,,,,,,,,,,,,,,,,,,,,,
5,30894, Note_on_c,3,57,0,,,,,,,,,,,,,,,,,,,,,,,
5,30900, Control_c,3,64,0,,,,,,,,,,,,,,,,,,,,,,,
5,30912, Note_on_c,3,54,88,,,,,,,,,,,,,,,,,,,,,,,
5,30912, Note_on_c,3,57,114,,,,,,,,,,,,,,,,,,,,,,,
5,30912, Note_on_c,3,61,92,,,,,,,,,,,,,,,,,,,,,,,
5,30944, Control_c,3,64,127,,,,,,,,,,,,,,,,,,,,,,,
5,30984, Note_on_c,3,61,0,,,,,,,,,,,,,,,,,,,,,,,
5,30987, Note_on_c,3,54,0,,,,,,,,,,,,,,,,,,,,,,,
5,31005, Note_on_c,3,57,0,,,,,,,,,,,,,,,,,,,,,,,
5,31008, Note_on_c,3,54,92,,,,,,,,,,,,,,,,,,,,,,,
5,31008, Note_on_c,3,57,59,,,,,,,,,,,,,,,,,,,,,,,
5,31029, Note_on_c,3,57,0,,,,,,,,,,,,,,,,,,,,,,,
5,31041, Control_c,3,64,0,,,,,,,,,,,,,,,,,,,,,,,
5,31047, Note_on_c,3,54,0,,,,,,,,,,,,,,,,,,,,,,,
5,31056, Note_on_c,3,54,70,,,,,,,,,,,,,,,,,,,,,,,
5,31056, Note_on_c,3,57,110,,,,,,,,,,,,,,,,,,,,,,,
5,31056, Note_on_c,3,64,114,,,,,,,,,,,,,,,,,,,,,,,
5,31089, Control_c,3,64,127,,,,,,,,,,,,,,,,,,,,,,,
5,31120, Note_on_c,3,54,0,,,,,,,,,,,,,,,,,,,,,,,
5,31152, Note_on_c,3,54,86,,,,,,,,,,,,,,,,,,,,,,,
5,31168, Note_on_c,3,57,0,,,,,,,,,,,,,,,,,,,,,,,
5,31172, Note_on_c,3,64,0,,,,,,,,,,,,,,,,,,,,,,,
5,31181, Control_c,3,64,0,,,,,,,,,,,,,,,,,,,,,,,
5,31192, Note_on_c,3,54,0,,,,,,,,,,,,,,,,,,,,,,,
5,31200, Note_on_c,3,54,92,,,,,,,,,,,,,,,,,,,,,,,
5,31200, Note_on_c,3,57,118,,,,,,,,,,,,,,,,,,,,,,,
5,31200, Note_on_c,3,61,86,,,,,,,,,,,,,,,,,,,,,,,
5,31234, Control_c,3,64,127,,,,,,,,,,,,,,,,,,,,,,,
5,31250, Note_on_c,3,61,0,,,,,,,,,,,,,,,,,,,,,,,
5,31272, Note_on_c,3,54,0,,,,,,,,,,,,,,,,,,,,,,,
5,31272, Note_on_c,3,57,0,,,,,,,,,,,,,,,,,,,,,,,
5,31287, Control_c,3,64,0,,,,,,,,,,,,,,,,,,,,,,,
5,31296, Note_on_c,3,54,95,,,,,,,,,,,,,,,,,,,,,,,
5,31296, Note_on_c,3,57,114,,,,,,,,,,,,,,,,,,,,,,,
5,31296, Note_on_c,3,61,67,,,,,,,,,,,,,,,,,,,,,,,
5,31335, Control_c,3,64,127,,,,,,,,,,,,,,,,,,,,,,,
5,31367, Note_on_c,3,61,0,,,,,,,,,,,,,,,,,,,,,,,
5,31373, Note_on_c,3,54,0,,,,,,,,,,,,,,,,,,,,,,,
5,31380, Note_on_c,3,57,0,,,,,,,,,,,,,,,,,,,,,,,
5,31392, Note_on_c,3,54,95,,,,,,,,,,,,,,,,,,,,,,,
5,31392, Note_on_c,3,57,88,,,,,,,,,,,,,,,,,,,,,,,
5,31400, Note_on_c,3,57,0,,,,,,,,,,,,,,,,,,,,,,,
5,31428, Note_on_c,3,54,0,,,,,,,,,,,,,,,,,,,,,,,
5,31440, Note_on_c,3,54,64,,,,,,,,,,,,,,,,,,,,,,,
5,31471, Control_c,3,64,0,,,,,,,,,,,,,,,,,,,,,,,
5,31482, Note_on_c,3,54,0,,,,,,,,,,,,,,,,,,,,,,,
5,31488, Note_on_c,3,54,92,,,,,,,,,,,,,,,,,,,,,,,
5,31488, Note_on_c,3,57,127,,,,,,,,,,,,,,,,,,,,,,,
5,31488, Note_on_c,3,63,86,,,,,,,,,,,,,,,,,,,,,,,
5,31488, Note_on_c,3,64,127,,,,,,,,,,,,,,,,,,,,,,,
5,31491, Note_on_c,3,63,0,,,,,,,,,,,,,,,,,,,,,,,
5,31555, Control_c,3,64,127,,,,,,,,,,,,,,,,,,,,,,,
5,31561, Note_on_c,3,54,0,,,,,,,,,,,,,,,,,,,,,,,
5,31561, Note_on_c,3,64,0,,,,,,,,,,,,,,,,,,,,,,,
5,31570, Note_on_c,3,57,0,,,,,,,,,,,,,,,,,,,,,,,
5,31584, Note_on_c,3,54,95,,,,,,,,,,,,,,,,,,,,,,,
5,31584, Note_on_c,3,57,110,,,,,,,,,,,,,,,,,,,,,,,
5,31584, Note_on_c,3,61,72,,,,,,,,,,,,,,,,,,,,,,,
5,31642, Note_on_c,3,61,0,,,,,,,,,,,,,,,,,,,,,,,
5,31656, Control_c,3,64,0,,,,,,,,,,,,,,,,,,,,,,,
5,31659, Note_on_c,3,54,0,,,,,,,,,,,,,,,,,,,,,,,
5,31660, Note_on_c,3,57,0,,,,,,,,,,,,,,,,,,,,,,,
5,31680, Note_on_c,3,54,103,,,,,,,,,,,,,,,,,,,,,,,
5,31680, Note_on_c,3,57,122,,,,,,,,,,,,,,,,,,,,,,,
5,31680, Note_on_c,3,61,103,,,,,,,,,,,,,,,,,,,,,,,
5,31717, Control_c,3,64,127,,,,,,,,,,,,,,,,,,,,,,,
5,31746, Note_on_c,3,54,0,,,,,,,,,,,,,,,,,,,,,,,
5,31751, Note_on_c,3,61,0,,,,,,,,,,,,,,,,,,,,,,,
5,31765, Note_on_c,3,57,0,,,,,,,,,,,,,,,,,,,,,,,
5,31776, Note_on_c,3,54,80,,,,,,,,,,,,,,,,,,,,,,,
5,31805, Note_on_c,3,54,0,,,,,,,,,,,,,,,,,,,,,,,
5,31814, Control_c,3,64,0,,,,,,,,,,,,,,,,,,,,,,,
5,31824, Note_on_c,3,49,110,,,,,,,,,,,,,,,,,,,,,,,
5,31824, Note_on_c,3,54,88,,,,,,,,,,,,,,,,,,,,,,,
5,31824, Note_on_c,3,57,110,,,,,,,,,,,,,,,,,,,,,,,
5,32624, Note_on_c,3,49,0,,,,,,,,,,,,,,,,,,,,,,,
5,32624, Note_on_c,3,54,0,,,,,,,,,,,,,,,,,,,,,,,
5,32624, Note_on_c,3,57,0,,,,,,,,,,,,,,,,,,,,,,,
5,33024, Note_on_c,3,54,112,,,,,,,,,,,,,,,,,,,,,,,
5,33024, Note_on_c,3,57,127,,,,,,,,,,,,,,,,,,,,,,,
5,33024, Note_on_c,3,61,103,,,,,,,,,,,,,,,,,,,,,,,
5,33024, Note_on_c,3,64,122,,,,,,,,,,,,,,,,,,,,,,,
5,33047, Control_c,3,64,127,,,,,,,,,,,,,,,,,,,,,,,
5,33050, Note_on_c,3,61,0,,,,,,,,,,,,,,,,,,,,,,,
5,33052, Note_on_c,3,54,0,,,,,,,,,,,,,,,,,,,,,,,
5,33053, Note_on_c,3,57,0,,,,,,,,,,,,,,,,,,,,,,,
5,33056, Note_on_c,3,64,0,,,,,,,,,,,,,,,,,,,,,,,
5,33072, Note_on_c,3,54,99,,,,,,,,,,,,,,,,,,,,,,,
5,33072, Note_on_c,3,57,114,,,,,,,,,,,,,,,,,,,,,,,
5,33072, Note_on_c,3,61,99,,,,,,,,,,,,,,,,,,,,,,,
5,33072, Note_on_c,3,66,103,,,,,,,,,,,,,,,,,,,,,,,
5,33141, Note_on_c,3,57,0,,,,,,,,,,,,,,,,,,,,,,,
5,33141, Note_on_c,3,61,0,,,,,,,,,,,,,,,,,,,,,,,
5,33142, Note_on_c,3,54,0,,,,,,,,,,,,,,,,,,,,,,,
5,33145, Note_on_c,3,66,0,,,,,,,,,,,,,,,,,,,,,,,
5,33158, Control_c,3,64,0,,,,,,,,,,,,,,,,,,,,,,,
5,33168, Note_on_c,3,54,107,,,,,,,,,,,,,,,,,,,,,,,
5,33168, Note_on_c,3,57,122,,,,,,,,,,,,,,,,,,,,,,,
5,33168, Note_on_c,3,61,103,,,,,,,,,,,,,,,,,,,,,,,
5,33168, Note_on_c,3,66,103,,,,,,,,,,,,,,,,,,,,,,,
5,33203, Control_c,3,64,127,,,,,,,,,,,,,,,,,,,,,,,
5,33234, Note_on_c,3,61,0,,,,,,,,,,,,,,,,,,,,,,,
5,33235, Note_on_c,3,66,0,,,,,,,,,,,,,,,,,,,,,,,
5,33237, Note_on_c,3,54,0,,,,,,,,,,,,,,,,,,,,,,,
5,33237, Note_on_c,3,57,0,,,,,,,,,,,,,,,,,,,,,,,
5,33264, Note_on_c,3,54,107,,,,,,,,,,,,,,,,,,,,,,,
5,33264, Note_on_c,3,57,122,,,,,,,,,,,,,,,,,,,,,,,
5,33264, Note_on_c,3,61,95,,,,,,,,,,,,,,,,,,,,,,,
5,33264, Note_on_c,3,66,99,,,,,,,,,,,,,,,,,,,,,,,
5,33293, Note_on_c,3,57,0,,,,,,,,,,,,,,,,,,,,,,,
5,33293, Note_on_c,3,61,0,,,,,,,,,,,,,,,,,,,,,,,
5,33298, Note_on_c,3,54,0,,,,,,,,,,,,,,,,,,,,,,,
5,33310, Note_on_c,3,66,0,,,,,,,,,,,,,,,,,,,,,,,
5,33312, Note_on_c,3,54,107,,,,,,,,,,,,,,,,,,,,,,,
5,33312, Note_on_c,3,57,127,,,,,,,,,,,,,,,,,,,,,,,
5,33312, Note_on_c,3,61,99,,,,,,,,,,,,,,,,,,,,,,,
5,33312, Note_on_c,3,69,114,,,,,,,,,,,,,,,,,,,,,,,
5,33345, Control_c,3,64,0,,,,,,,,,,,,,,,,,,,,,,,
5,33378, Note_on_c,3,57,0,,,,,,,,,,,,,,,,,,,,,,,
5,33378, Note_on_c,3,61,0,,,,,,,,,,,,,,,,,,,,,,,
5,33379, Note_on_c,3,69,0,,,,,,,,,,,,,,,,,,,,,,,
5,33380, Note_on_c,3,54,0,,,,,,,,,,,,,,,,,,,,,,,
5,33408, Note_on_c,3,54,127,,,,,,,,,,,,,,,,,,,,,,,
5,33408, Note_on_c,3,57,118,,,,,,,,,,,,,,,,,,,,,,,
5,33408, Note_on_c,3,61,127,,,,,,,,,,,,,,,,,,,,,,,
5,33408, Note_on_c,3,66,127,,,,,,,,,,,,,,,,,,,,,,,
5,33408, Note_on_c,3,69,122,,,,,,,,,,,,,,,,,,,,,,,
5,33415, Control_c,3,64,127,,,,,,,,,,,,,,,,,,,,,,,
5,33467, Note_on_c,3,57,0,,,,,,,,,,,,,,,,,,,,,,,
5,33471, Note_on_c,3,61,0,,,,,,,,,,,,,,,,,,,,,,,
5,33499, Note_on_c,3,54,0,,,,,,,,,,,,,,,,,,,,,,,
5,33504, Note_on_c,3,57,98,,,,,,,,,,,,,,,,,,,,,,,
5,33504, Note_on_c,3,61,59,,,,,,,,,,,,,,,,,,,,,,,
5,33514, Note_on_c,3,69,0,,,,,,,,,,,,,,,,,,,,,,,
5,33515, Note_on_c,3,66,0,,,,,,,,,,,,,,,,,,,,,,,
5,33520, Note_on_c,3,61,0,,,,,,,,,,,,,,,,,,,,,,,
5,33525, Note_on_c,3,57,0,,,,,,,,,,,,,,,,,,,,,,,
5,33552, Note_on_c,3,54,107,,,,,,,,,,,,,,,,,,,,,,,
5,33552, Note_on_c,3,57,66,,,,,,,,,,,,,,,,,,,,,,,
5,33552, Note_on_c,3,61,99,,,,,,,,,,,,,,,,,,,,,,,
5,33552, Note_on_c,3,66,80,,,,,,,,,,,,,,,,,,,,,,,
5,33561, Note_on_c,3,66,0,,,,,,,,,,,,,,,,,,,,,,,
5,33562, Note_on_c,3,57,0,,,,,,,,,,,,,,,,,,,,,,,
5,33568, Note_on_c,3,61,0,,,,,,,,,,,,,,,,,,,,,,,
5,33570, Note_on_c,3,54,0,,,,,,,,,,,,,,,,,,,,,,,
5,33600, Note_on_c,3,54,112,,,,,,,,,,,,,,,,,,,,,,,
5,33600, Note_on_c,3,57,122,,,,,,,,,,,,,,,,,,,,,,,
5,33600, Note_on_c,3,61,127,,,,,,,,,,,,,,,,,,,,,,,
5,33600, Note_on_c,3,66,127,,,,,,,,,,,,,,,,,,,,,,,
5,33600, Note_on_c,3,69,127,,,,,,,,,,,,,,,,,,,,,,,
5,33621, Note_on_c,3,57,0,,,,,,,,,,,,,,,,,,,,,,,
5,33634, Note_on_c,3,61,0,,,,,,,,,,,,,,,,,,,,,,,
5,33648, Note_on_c,3,57,87,,,,,,,,,,,,,,,,,,,,,,,
5,33658, Note_on_c,3,69,0,,,,,,,,,,,,,,,,,,,,,,,
5,33663, Note_on_c,3,66,0,,,,,,,,,,,,,,,,,,,,,,,
5,33675, Note_on_c,3,54,0,,,,,,,,,,,,,,,,,,,,,,,
5,33675, Note_on_c,3,57,0,,,,,,,,,,,,,,,,,,,,,,,
5,33696, Note_on_c,3,61,99,,,,,,,,,,,,,,,,,,,,,,,
5,33696, Note_on_c,3,66,74,,,,,,,,,,,,,,,,,,,,,,,
5,33712, Note_on_c,3,61,0,,,,,,,,,,,,,,,,,,,,,,,
5,33713, Note_on_c,3,66,0,,,,,,,,,,,,,,,,,,,,,,,
5,33744, Note_on_c,3,54,107,,,,,,,,,,,,,,,,,,,,,,,
5,33744, Note_on_c,3,57,127,,,,,,,,,,,,,,,,,,,,,,,
5,33744, Note_on_c,3,61,127,,,,,,,,,,,,,,,,,,,,,,,
5,33744, Note_on_c,3,66,112,,,,,,,,,,,,,,,,,,,,,,,
5,33744, Note_on_c,3,69,122,,,,,,,,,,,,,,,,,,,,,,,
5,33758, Control_c,3,64,0,,,,,,,,,,,,,,,,,,,,,,,
5,33764, Note_on_c,3,57,0,,,,,,,,,,,,,,,,,,,,,,,
5,33770, Control_c,3,64,127,,,,,,,,,,,,,,,,,,,,,,,
5,33792, Note_on_c,3,57,88,,,,,,,,,,,,,,,,,,,,,,,
5,33801, Note_on_c,3,61,0,,,,,,,,,,,,,,,,,,,,,,,
5,33804, Note_on_c,3,69,0,,,,,,,,,,,,,,,,,,,,,,,
5,33806, Note_on_c,3,54,0,,,,,,,,,,,,,,,,,,,,,,,
5,33814, Note_on_c,3,66,0,,,,,,,,,,,,,,,,,,,,,,,
5,33817, Note_on_c,3,57,0,,,,,,,,,,,,,,,,,,,,,,,
5,33840, Note_on_c,3,52,95,,,,,,,,,,,,,,,,,,,,,,,
5,33840, Note_on_c,3,61,92,,,,,,,,,,,,,,,,,,,,,,,
5,33840, Note_on_c,3,64,101,,,,,,,,,,,,,,,,,,,,,,,
5,33840, Note_on_c,3,69,85,,,,,,,,,,,,,,,,,,,,,,,
5,33859, Note_on_c,3,61,0,,,,,,,,,,,,,,,,,,,,,,,
5,33864, Note_on_c,3,52,0,,,,,,,,,,,,,,,,,,,,,,,
5,33866, Note_on_c,3,69,0,,,,,,,,,,,,,,,,,,,,,,,
5,33867, Note_on_c,3,64,0,,,,,,,,,,,,,,,,,,,,,,,
5,33885, Control_c,3,64,0,,,,,,,,,,,,,,,,,,,,,,,
5,33888, Note_on_c,3,52,127,,,,,,,,,,,,,,,,,,,,,,,
5,33888, Note_on_c,3,57,114,,,,,,,,,,,,,,,,,,,,,,,
5,33888, Note_on_c,3,61,112,,,,,,,,,,,,,,,,,,,,,,,
5,33888, Note_on_c,3,64,127,,,,,,,,,,,,,,,,,,,,,,,
5,33888, Note_on_c,3,69,118,,,,,,,,,,,,,,,,,,,,,,,
5,33911, Control_c,3,64,127,,,,,,,,,,,,,,,,,,,,,,,
5,33960, Note_on_c,3,52,0,,,,,,,,,,,,,,,,,,,,,,,
5,33964, Note_on_c,3,61,0,,,,,,,,,,,,,,,,,,,,,,,
5,33967, Note_on_c,3,57,0,,,,,,,,,,,,,,,,,,,,,,,
5,33968, Note_on_c,3,64,0,,,,,,,,,,,,,,,,,,,,,,,
5,33968, Note_on_c,3,69,0,,,,,,,,,,,,,,,,,,,,,,,
5,33982, Control_c,3,64,0,,,,,,,,,,,,,,,,,,,,,,,
5,33984, Note_on_c,3,52,127,,,,,,,,,,,,,,,,,,,,,,,
5,33984, Note_on_c,3,57,122,,,,,,,,,,,,,,,,,,,,,,,
5,33984, Note_on_c,3,61,127,,,,,,,,,,,,,,,,,,,,,,,
5,33984, Note_on_c,3,64,127,,,,,,,,,,,,,,,,,,,,,,,
5,33984, Note_on_c,3,69,118,,,,,,,,,,,,,,,,,,,,,,,
5,34000, Control_c,3,64,127,,,,,,,,,,,,,,,,,,,,,,,
5,34039, Note_on_c,3,61,0,,,,,,,,,,,,,,,,,,,,,,,
5,34049, Note_on_c,3,64,0,,,,,,,,,,,,,,,,,,,,,,,
5,34059, Note_on_c,3,69,0,,,,,,,,,,,,,,,,,,,,,,,
5,34060, Note_on_c,3,57,0,,,,,,,,,,,,,,,,,,,,,,,
5,34072, Note_on_c,3,52,0,,,,,,,,,,,,,,,,,,,,,,,
5,34080, Note_on_c,3,57,76,,,,,,,,,,,,,,,,,,,,,,,
5,34080, Note_on_c,3,61,99,,,,,,,,,,,,,,,,,,,,,,,
5,34095, Note_on_c,3,57,0,,,,,,,,,,,,,,,,,,,,,,,
5,34096, Note_on_c,3,61,0,,,,,,,,,,,,,,,,,,,,,,,
5,34128, Note_on_c,3,52,114,,,,,,,,,,,,,,,,,,,,,,,
5,34128, Note_on_c,3,61,95,,,,,,,,,,,,,,,,,,,,,,,
5,34147, Note_on_c,3,61,0,,,,,,,,,,,,,,,,,,,,,,,
5,34148, Note_on_c,3,52,0,,,,,,,,,,,,,,,,,,,,,,,
5,34172, Control_c,3,64,0,,,,,,,,,,,,,,,,,,,,,,,
5,34176, Note_on_c,3,52,127,,,,,,,,,,,,,,,,,,,,,,,
5,34176, Note_on_c,3,59,127,,,,,,,,,,,,,,,,,,,,,,,
5,34176, Note_on_c,3,64,127,,,,,,,,,,,,,,,,,,,,,,,
5,34176, Note_on_c,3,69,114,,,,,,,,,,,,,,,,,,,,,,,
5,34202, Control_c,3,64,127,,,,,,,,,,,,,,,,,,,,,,,
5,34239, Note_on_c,3,59,0,,,,,,,,,,,,,,,,,,,,,,,
5,34246, Note_on_c,3,69,0,,,,,,,,,,,,,,,,,,,,,,,
5,34248, Note_on_c,3,64,0,,,,,,,,,,,,,,,,,,,,,,,
5,34272, Note_on_c,3,59,85,,,,,,,,,,,,,,,,,,,,,,,
5,34272, Note_on_c,3,64,87,,,,,,,,,,,,,,,,,,,,,,,
5,34272, Note_on_c,3,69,55,,,,,,,,,,,,,,,,,,,,,,,
5,34279, Note_on_c,3,52,0,,,,,,,,,,,,,,,,,,,,,,,
5,34288, Note_on_c,3,59,0,,,,,,,,,,,,,,,,,,,,,,,
5,34288, Note_on_c,3,69,0,,,,,,,,,,,,,,,,,,,,,,,
5,34289, Note_on_c,3,64,0,,,,,,,,,,,,,,,,,,,,,,,
5,34320, Note_on_c,3,52,93,,,,,,,,,,,,,,,,,,,,,,,
5,34320, Note_on_c,3,59,73,,,,,,,,,,,,,,,,,,,,,,,
5,34320, Note_on_c,3,64,104,,,,,,,,,,,,,,,,,,,,,,,
5,34320, Note_on_c,3,69,66,,,,,,,,,,,,,,,,,,,,,,,
5,34328, Note_on_c,3,69,0,,,,,,,,,,,,,,,,,,,,,,,
5,34333, Note_on_c,3,59,0,,,,,,,,,,,,,,,,,,,,,,,
5,34335, Note_on_c,3,64,0,,,,,,,,,,,,,,,,,,,,,,,
5,34341, Note_on_c,3,52,0,,,,,,,,,,,,,,,,,,,,,,,
5,34368, Note_on_c,3,52,127,,,,,,,,,,,,,,,,,,,,,,,
5,34368, Note_on_c,3,59,122,,,,,,,,,,,,,,,,,,,,,,,
5,34368, Note_on_c,3,64,127,,,,,,,,,,,,,,,,,,,,,,,
5,34368, Note_on_c,3,69,122,,,,,,,,,,,,,,,,,,,,,,,
5,34390, Note_on_c,3,59,0,,,,,,,,,,,,,,,,,,,,,,,
5,34406, Note_on_c,3,64,0,,,,,,,,,,,,,,,,,,,,,,,
5,34416, Note_on_c,3,59,91,,,,,,,,,,,,,,,,,,,,,,,
5,34437, Note_on_c,3,52,0,,,,,,,,,,,,,,,,,,,,,,,
5,34438, Note_on_c,3,59,0,,,,,,,,,,,,,,,,,,,,,,,
5,34443, Note_on_c,3,69,0,,,,,,,,,,,,,,,,,,,,,,,
5,34464, Note_on_c,3,64,110,,,,,,,,,,,,,,,,,,,,,,,
5,34483, Note_on_c,3,64,0,,,,,,,,,,,,,,,,,,,,,,,
5,34503, Control_c,3,64,0,,,,,,,,,,,,,,,,,,,,,,,
5,34512, Note_on_c,3,52,127,,,,,,,,,,,,,,,,,,,,,,,
5,34512, Note_on_c,3,59,122,,,,,,,,,,,,,,,,,,,,,,,
5,34512, Note_on_c,3,64,127,,,,,,,,,,,,,,,,,,,,,,,
5,34512, Note_on_c,3,69,118,,,,,,,,,,,,,,,,,,,,,,,
5,34529, Control_c,3,64,127,,,,,,,,,,,,,,,,,,,,,,,
5,34569, Note_on_c,3,52,0,,,,,,,,,,,,,,,,,,,,,,,
5,34572, Note_on_c,3,64,0,,,,,,,,,,,,,,,,,,,,,,,
5,34587, Note_on_c,3,59,0,,,,,,,,,,,,,,,,,,,,,,,
5,34592, Note_on_c,3,69,0,,,,,,,,,,,,,,,,,,,,,,,
5,34608, Note_on_c,3,47,101,,,,,,,,,,,,,,,,,,,,,,,
5,34608, Note_on_c,3,59,85,,,,,,,,,,,,,,,,,,,,,,,
5,34608, Note_on_c,3,63,107,,,,,,,,,,,,,,,,,,,,,,,
5,34608, Note_on_c,3,66,99,,,,,,,,,,,,,,,,,,,,,,,
5,34623, Note_on_c,3,63,0,,,,,,,,,,,,,,,,,,,,,,,
5,34626, Control_c,3,64,127,,,,,,,,,,,,,,,,,,,,,,,
5,34629, Note_on_c,3,59,0,,,,,,,,,,,,,,,,,,,,,,,
5,34630, Note_on_c,3,66,0,,,,,,,,,,,,,,,,,,,,,,,
5,34637, Note_on_c,3,47,0,,,,,,,,,,,,,,,,,,,,,,,
5,34656, Note_on_c,3,47,127,,,,,,,,,,,,,,,,,,,,,,,
5,34656, Note_on_c,3,59,118,,,,,,,,,,,,,,,,,,,,,,,
5,34656, Note_on_c,3,63,127,,,,,,,,,,,,,,,,,,,,,,,
5,34656, Note_on_c,3,66,103,,,,,,,,,,,,,,,,,,,,,,,
5,34727, Note_on_c,3,63,0,,,,,,,,,,,,,,,,,,,,,,,
5,34732, Note_on_c,3,47,0,,,,,,,,,,,,,,,,,,,,,,,
5,34735, Note_on_c,3,59,0,,,,,,,,,,,,,,,,,,,,,,,
5,34735, Note_on_c,3,66,0,,,,,,,,,,,,,,,,,,,,,,,
5,34752, Note_on_c,3,47,127,,,,,,,,,,,,,,,,,,,,,,,
5,34752, Note_on_c,3,59,122,,,,,,,,,,,,,,,,,,,,,,,
5,34752, Note_on_c,3,63,127,,,,,,,,,,,,,,,,,,,,,,,
5,34752, Note_on_c,3,66,112,,,,,,,,,,,,,,,,,,,,,,,
5,34754, Control_c,3,64,0,,,,,,,,,,,,,,,,,,,,,,,
5,34771, Control_c,3,64,127,,,,,,,,,,,,,,,,,,,,,,,
5,34808, Note_on_c,3,63,0,,,,,,,,,,,,,,,,,,,,,,,
5,34818, Note_on_c,3,66,0,,,,,,,,,,,,,,,,,,,,,,,
5,34830, Note_on_c,3,59,0,,,,,,,,,,,,,,,,,,,,,,,
5,34832, Note_on_c,3,47,0,,,,,,,,,,,,,,,,,,,,,,,
5,34848, Note_on_c,3,59,98,,,,,,,,,,,,,,,,,,,,,,,
5,34848, Note_on_c,3,63,127,,,,,,,,,,,,,,,,,,,,,,,
5,34848, Note_on_c,3,66,107,,,,,,,,,,,,,,,,,,,,,,,
5,34869, Note_on_c,3,59,0,,,,,,,,,,,,,,,,,,,,,,,
5,34873, Note_on_c,3,63,0,,,,,,,,,,,,,,,,,,,,,,,
5,34889, Note_on_c,3,66,0,,,,,,,,,,,,,,,,,,,,,,,
5,34896, Note_on_c,3,47,85,,,,,,,,,,,,,,,,,,,,,,,
5,34896, Note_on_c,3,59,101,,,,,,,,,,,,,,,,,,,,,,,
5,34896, Note_on_c,3,66,46,,,,,,,,,,,,,,,,,,,,,,,
5,34906, Note_on_c,3,66,0,,,,,,,,,,,,,,,,,,,,,,,
5,34926, Note_on_c,3,47,0,,,,,,,,,,,,,,,,,,,,,,,
5,34926, Note_on_c,3,59,0,,,,,,,,,,,,,,,,,,,,,,,
5,34944, Note_on_c,3,54,112,,,,,,,,,,,,,,,,,,,,,,,
5,34944, Note_on_c,3,57,122,,,,,,,,,,,,,,,,,,,,,,,
5,34944, Note_on_c,3,61,127,,,,,,,,,,,,,,,,,,,,,,,
5,34944, Note_on_c,3,66,112,,,,,,,,,,,,,,,,,,,,,,,
5,34944, Note_on_c,3,69,127,,,,,,,,,,,,,,,,,,,,,,,
5,34946, Control_c,3,64,0,,,,,,,,,,,,,,,,,,,,,,,
5,34977, Control_c,3,64,127,,,,,,,,,,,,,,,,,,,,,,,
5,35013, Note_on_c,3,57,0,,,,,,,,,,,,,,,,,,,,,,,
5,35016, Note_on_c,3,61,0,,,,,,,,,,,,,,,,,,,,,,,
5,35039, Note_on_c,3,54,0,,,,,,,,,,,,,,,,,,,,,,,
5,35040, Note_on_c,3,57,70,,,,,,,,,,,,,,,,,,,,,,,
5,35059, Note_on_c,3,69,0,,,,,,,,,,,,,,,,,,,,,,,
5,35060, Note_on_c,3,66,0,,,,,,,,,,,,,,,,,,,,,,,
5,35069, Note_on_c,3,57,0,,,,,,,,,,,,,,,,,,,,,,,
5,35088, Note_on_c,3,54,61,,,,,,,,,,,,,,,,,,,,,,,
5,35088, Note_on_c,3,57,74,,,,,,,,,,,,,,,,,,,,,,,
5,35088, Note_on_c,3,61,88,,,,,,,,,,,,,,,,,,,,,,,
5,35088, Note_on_c,3,66,74,,,,,,,,,,,,,,,,,,,,,,,
5,35088, Note_on_c,3,69,95,,,,,,,,,,,,,,,,,,,,,,,
5,35106, Note_on_c,3,54,0,,,,,,,,,,,,,,,,,,,,,,,
5,35106, Note_on_c,3,61,0,,,,,,,,,,,,,,,,,,,,,,,
5,35109, Note_on_c,3,69,0,,,,,,,,,,,,,,,,,,,,,,,
5,35113, Note_on_c,3,57,0,,,,,,,,,,,,,,,,,,,,,,,
5,35114, Note_on_c,3,66,0,,,,,,,,,,,,,,,,,,,,,,,
5,35136, Note_on_c,3,54,112,,,,,,,,,,,,,,,,,,,,,,,
5,35136, Note_on_c,3,57,101,,,,,,,,,,,,,,,,,,,,,,,
5,35136, Note_on_c,3,61,112,,,,,,,,,,,,,,,,,,,,,,,
5,35136, Note_on_c,3,66,112,,,,,,,,,,,,,,,,,,,,,,,
5,35136, Note_on_c,3,69,127,,,,,,,,,,,,,,,,,,,,,,,
5,35158, Note_on_c,3,57,0,,,,,,,,,,,,,,,,,,,,,,,
5,35169, Note_on_c,3,61,0,,,,,,,,,,,,,,,,,,,,,,,
5,35184, Note_on_c,3,57,73,,,,,,,,,,,,,,,,,,,,,,,
5,35184, Note_on_c,3,69,0,,,,,,,,,,,,,,,,,,,,,,,
5,35189, Note_on_c,3,54,0,,,,,,,,,,,,,,,,,,,,,,,
5,35205, Note_on_c,3,66,0,,,,,,,,,,,,,,,,,,,,,,,
5,35219, Note_on_c,3,57,0,,,,,,,,,,,,,,,,,,,,,,,
5,35232, Note_on_c,3,57,78,,,,,,,,,,,,,,,,,,,,,,,
5,35232, Note_on_c,3,61,95,,,,,,,,,,,,,,,,,,,,,,,
5,35232, Note_on_c,3,66,78,,,,,,,,,,,,,,,,,,,,,,,
5,35232, Note_on_c,3,69,88,,,,,,,,,,,,,,,,,,,,,,,
5,35248, Note_on_c,3,61,0,,,,,,,,,,,,,,,,,,,,,,,
5,35253, Note_on_c,3,57,0,,,,,,,,,,,,,,,,,,,,,,,
5,35253, Note_on_c,3,69,0,,,,,,,,,,,,,,,,,,,,,,,
5,35254, Note_on_c,3,66,0,,,,,,,,,,,,,,,,,,,,,,,
5,35280, Note_on_c,3,54,112,,,,,,,,,,,,,,,,,,,,,,,
5,35280, Note_on_c,3,57,118,,,,,,,,,,,,,,,,,,,,,,,
5,35280, Note_on_c,3,61,127,,,,,,,,,,,,,,,,,,,,,,,
5,35280, Note_on_c,3,66,112,,,,,,,,,,,,,,,,,,,,,,,
5,35280, Note_on_c,3,69,122,,,,,,,,,,,,,,,,,,,,,,,
5,35303, Control_c,3,64,127,,,,,,,,,,,,,,,,,,,,,,,
5,35325, Note_on_c,3,61,0,,,,,,,,,,,,,,,,,,,,,,,
5,35343, Note_on_c,3,69,0,,,,,,,,,,,,,,,,,,,,,,,
5,35344, Note_on_c,3,54,0,,,,,,,,,,,,,,,,,,,,,,,
5,35349, Note_on_c,3,66,0,,,,,,,,,,,,,,,,,,,,,,,
5,35352, Note_on_c,3,57,0,,,,,,,,,,,,,,,,,,,,,,,
5,35376, Note_on_c,3,52,122,,,,,,,,,,,,,,,,,,,,,,,
5,35376, Note_on_c,3,57,114,,,,,,,,,,,,,,,,,,,,,,,
5,35376, Note_on_c,3,61,107,,,,,,,,,,,,,,,,,,,,,,,
5,35376, Note_on_c,3,64,127,,,,,,,,,,,,,,,,,,,,,,,
5,35376, Note_on_c,3,69,104,,,,,,,,,,,,,,,,,,,,,,,
5,35387, Control_c,3,64,0,,,,,,,,,,,,,,,,,,,,,,,
5,35395, Note_on_c,3,57,0,,,,,,,,,,,,,,,,,,,,,,,
5,35405, Control_c,3,64,127,,,,,,,,,,,,,,,,,,,,,,,
5,35408, Note_on_c,3,61,0,,,,,,,,,,,,,,,,,,,,,,,
5,35411, Note_on_c,3,52,0,,,,,,,,,,,,,,,,,,,,,,,
5,35411, Note_on_c,3,64,0,,,,,,,,,,,,,,,,,,,,,,,
5,35418, Note_on_c,3,69,0,,,,,,,,,,,,,,,,,,,,,,,
5,35424, Note_on_c,3,52,127,,,,,,,,,,,,,,,,,,,,,,,
5,35424, Note_on_c,3,57,114,,,,,,,,,,,,,,,,,,,,,,,
5,35424, Note_on_c,3,61,112,,,,,,,,,,,,,,,,,,,,,,,
5,35424, Note_on_c,3,64,122,,,,,,,,,,,,,,,,,,,,,,,
5,35424, Note_on_c,3,69,83,,,,,,,,,,,,,,,,,,,,,,,
5,35497, Note_on_c,3,52,0,,,,,,,,,,,,,,,,,,,,,,,
5,35497, Note_on_c,3,61,0,,,,,,,,,,,,,,,,,,,,,,,
5,35500, Note_on_c,3,69,0,,,,,,,,,,,,,,,,,,,,,,,
5,35503, Note_on_c,3,64,0,,,,,,,,,,,,,,,,,,,,,,,
5,35510, Note_on_c,3,57,0,,,,,,,,,,,,,,,,,,,,,,,
5,35520, Note_on_c,3,52,122,,,,,,,,,,,,,,,,,,,,,,,
5,35520, Note_on_c,3,57,98,,,,,,,,,,,,,,,,,,,,,,,
5,35520, Note_on_c,3,61,127,,,,,,,,,,,,,,,,,,,,,,,
5,35520, Note_on_c,3,64,127,,,,,,,,,,,,,,,,,,,,,,,
5,35520, Note_on_c,3,69,118,,,,,,,,,,,,,,,,,,,,,,,
5,35527, Control_c,3,64,0,,,,,,,,,,,,,,,,,,,,,,,
5,35541, Note_on_c,3,57,0,,,,,,,,,,,,,,,,,,,,,,,
5,35545, Control_c,3,64,127,,,,,,,,,,,,,,,,,,,,,,,
5,35568, Note_on_c,3,57,76,,,,,,,,,,,,,,,,,,,,,,,
5,35569, Note_on_c,3,61,0,,,,,,,,,,,,,,,,,,,,,,,
5,35580, Note_on_c,3,64,0,,,,,,,,,,,,,,,,,,,,,,,
5,35589, Note_on_c,3,69,0,,,,,,,,,,,,,,,,,,,,,,,
5,35610, Note_on_c,3,57,0,,,,,,,,,,,,,,,,,,,,,,,
5,35612, Note_on_c,3,52,0,,,,,,,,,,,,,,,,,,,,,,,
5,35616, Note_on_c,3,57,80,,,,,,,,,,,,,,,,,,,,,,,
5,35616, Note_on_c,3,61,95,,,,,,,,,,,,,,,,,,,,,,,
5,35616, Note_on_c,3,64,93,,,,,,,,,,,,,,,,,,,,,,,
5,35616, Note_on_c,3,69,93,,,,,,,,,,,,,,,,,,,,,,,
5,35633, Note_on_c,3,61,0,,,,,,,,,,,,,,,,,,,,,,,
5,35634, Note_on_c,3,57,0,,,,,,,,,,,,,,,,,,,,,,,
5,35635, Note_on_c,3,64,0,,,,,,,,,,,,,,,,,,,,,,,
5,35664, Note_on_c,3,52,110,,,,,,,,,,,,,,,,,,,,,,,
5,35664, Note_on_c,3,57,67,,,,,,,,,,,,,,,,,,,,,,,
5,35664, Note_on_c,3,64,93,,,,,,,,,,,,,,,,,,,,,,,
5,35677, Note_on_c,3,64,0,,,,,,,,,,,,,,,,,,,,,,,
5,35686, Note_on_c,3,52,0,,,,,,,,,,,,,,,,,,,,,,,
5,35686, Note_on_c,3,57,0,,,,,,,,,,,,,,,,,,,,,,,
5,35688, Note_on_c,3,69,0,,,,,,,,,,,,,,,,,,,,,,,
5,35712, Note_on_c,3,52,127,,,,,,,,,,,,,,,,,,,,,,,
5,35712, Note_on_c,3,59,122,,,,,,,,,,,,,,,,,,,,,,,
5,35712, Note_on_c,3,64,127,,,,,,,,,,,,,,,,,,,,,,,
5,35712, Note_on_c,3,69,118,,,,,,,,,,,,,,,,,,,,,,,
5,35714, Control_c,3,64,0,,,,,,,,,,,,,,,,,,,,,,,
5,35740, Control_c,3,64,127,,,,,,,,,,,,,,,,,,,,,,,
5,35779, Note_on_c,3,59,0,,,,,,,,,,,,,,,,,,,,,,,
5,35786, Note_on_c,3,64,0,,,,,,,,,,,,,,,,,,,,,,,
5,35792, Note_on_c,3,69,0,,,,,,,,,,,,,,,,,,,,,,,
5,35805, Note_on_c,3,52,0,,,,,,,,,,,,,,,,,,,,,,,
5,35808, Note_on_c,3,59,85,,,,,,,,,,,,,,,,,,,,,,,
5,35808, Note_on_c,3,64,93,,,,,,,,,,,,,,,,,,,,,,,
5,35808, Note_on_c,3,69,80,,,,,,,,,,,,,,,,,,,,,,,
5,35822, Note_on_c,3,64,0,,,,,,,,,,,,,,,,,,,,,,,
5,35825, Note_on_c,3,59,0,,,,,,,,,,,,,,,,,,,,,,,
5,35828, Note_on_c,3,69,0,,,,,,,,,,,,,,,,,,,,,,,
5,35856, Note_on_c,3,52,101,,,,,,,,,,,,,,,,,,,,,,,
5,35856, Note_on_c,3,59,95,,,,,,,,,,,,,,,,,,,,,,,
5,35856, Note_on_c,3,64,107,,,,,,,,,,,,,,,,,,,,,,,
5,35856, Note_on_c,3,69,73,,,,,,,,,,,,,,,,,,,,,,,
5,35872, Note_on_c,3,64,0,,,,,,,,,,,,,,,,,,,,,,,
5,35873, Note_on_c,3,59,0,,,,,,,,,,,,,,,,,,,,,,,
5,35874, Note_on_c,3,52,0,,,,,,,,,,,,,,,,,,,,,,,
5,35876, Note_on_c,3,69,0,,,,,,,,,,,,,,,,,,,,,,,
5,35904, Note_on_c,3,52,127,,,,,,,,,,,,,,,,,,,,,,,
5,35904, Note_on_c,3,59,127,,,,,,,,,,,,,,,,,,,,,,,
5,35904, Note_on_c,3,64,127,,,,,,,,,,,,,,,,,,,,,,,
5,35904, Note_on_c,3,69,122,,,,,,,,,,,,,,,,,,,,,,,
5,35924, Note_on_c,3,59,0,,,,,,,,,,,,,,,,,,,,,,,
5,35937, Note_on_c,3,64,0,,,,,,,,,,,,,,,,,,,,,,,
5,35951, Note_on_c,3,69,0,,,,,,,,,,,,,,,,,,,,,,,
5,35952, Note_on_c,3,59,88,,,,,,,,,,,,,,,,,,,,,,,
5,35952, Note_on_c,3,69,66,,,,,,,,,,,,,,,,,,,,,,,
5,35962, Note_on_c,3,69,0,,,,,,,,,,,,,,,,,,,,,,,
5,35965, Note_on_c,3,52,0,,,,,,,,,,,,,,,,,,,,,,,
5,35975, Note_on_c,3,59,0,,,,,,,,,,,,,,,,,,,,,,,
5,36000, Note_on_c,3,59,73,,,,,,,,,,,,,,,,,,,,,,,
5,36000, Note_on_c,3,64,110,,,,,,,,,,,,,,,,,,,,,,,
5,36013, Note_on_c,3,59,0,,,,,,,,,,,,,,,,,,,,,,,
5,36020, Note_on_c,3,64,0,,,,,,,,,,,,,,,,,,,,,,,
5,36046, Control_c,3,64,0,,,,,,,,,,,,,,,,,,,,,,,
5,36048, Note_on_c,3,52,127,,,,,,,,,,,,,,,,,,,,,,,
5,36048, Note_on_c,3,59,127,,,,,,,,,,,,,,,,,,,,,,,
5,36048, Note_on_c,3,64,127,,,,,,,,,,,,,,,,,,,,,,,
5,36048, Note_on_c,3,69,118,,,,,,,,,,,,,,,,,,,,,,,
5,36063, Control_c,3,64,127,,,,,,,,,,,,,,,,,,,,,,,
5,36107, Note_on_c,3,52,0,,,,,,,,,,,,,,,,,,,,,,,
5,36110, Note_on_c,3,64,0,,,,,,,,,,,,,,,,,,,,,,,
5,36120, Note_on_c,3,59,0,,,,,,,,,,,,,,,,,,,,,,,
5,36124, Note_on_c,3,69,0,,,,,,,,,,,,,,,,,,,,,,,
5,36142, Control_c,3,64,0,,,,,,,,,,,,,,,,,,,,,,,
5,36144, Note_on_c,3,47,118,,,,,,,,,,,,,,,,,,,,,,,
5,36144, Note_on_c,3,59,118,,,,,,,,,,,,,,,,,,,,,,,
5,36144, Note_on_c,3,63,127,,,,,,,,,,,,,,,,,,,,,,,
5,36144, Note_on_c,3,66,112,,,,,,,,,,,,,,,,,,,,,,,
5,36160, Control_c,3,64,127,,,,,,,,,,,,,,,,,,,,,,,
5,36196, Note_on_c,3,63,0,,,,,,,,,,,,,,,,,,,,,,,
5,36215, Note_on_c,3,66,0,,,,,,,,,,,,,,,,,,,,,,,
5,36222, Note_on_c,3,59,0,,,,,,,,,,,,,,,,,,,,,,,
5,36223, Note_on_c,3,47,0,,,,,,,,,,,,,,,,,,,,,,,
5,36240, Note_on_c,3,47,122,,,,,,,,,,,,,,,,,,,,,,,
5,36240, Note_on_c,3,59,122,,,,,,,,,,,,,,,,,,,,,,,
5,36240, Note_on_c,3,63,127,,,,,,,,,,,,,,,,,,,,,,,
5,36240, Note_on_c,3,66,112,,,,,,,,,,,,,,,,,,,,,,,
5,36275, Note_on_c,3,59,0,,,,,,,,,,,,,,,,,,,,,,,
5,36279, Note_on_c,3,63,0,,,,,,,,,,,,,,,,,,,,,,,
5,36288, Note_on_c,3,59,93,,,,,,,,,,,,,,,,,,,,,,,
5,36288, Note_on_c,3,63,70,,,,,,,,,,,,,,,,,,,,,,,
5,36297, Note_on_c,3,63,0,,,,,,,,,,,,,,,,,,,,,,,
5,36311, Note_on_c,3,66,0,,,,,,,,,,,,,,,,,,,,,,,
5,36314, Note_on_c,3,47,0,,,,,,,,,,,,,,,,,,,,,,,
5,36317, Note_on_c,3,59,0,,,,,,,,,,,,,,,,,,,,,,,
5,36336, Note_on_c,3,47,127,,,,,,,,,,,,,,,,,,,,,,,
5,36336, Note_on_c,3,59,110,,,,,,,,,,,,,,,,,,,,,,,
5,36336, Note_on_c,3,63,127,,,,,,,,,,,,,,,,,,,,,,,
5,36336, Note_on_c,3,66,112,,,,,,,,,,,,,,,,,,,,,,,
5,36352, Note_on_c,3,63,0,,,,,,,,,,,,,,,,,,,,,,,
5,36357, Note_on_c,3,59,0,,,,,,,,,,,,,,,,,,,,,,,
5,36357, Note_on_c,3,66,0,,,,,,,,,,,,,,,,,,,,,,,
5,36365, Note_on_c,3,47,0,,,,,,,,,,,,,,,,,,,,,,,
5,36384, Note_on_c,3,47,107,,,,,,,,,,,,,,,,,,,,,,,
5,36384, Note_on_c,3,59,118,,,,,,,,,,,,,,,,,,,,,,,
5,36384, Note_on_c,3,63,127,,,,,,,,,,,,,,,,,,,,,,,
5,36384, Note_on_c,3,66,112,,,,,,,,,,,,,,,,,,,,,,,
5,36411, Note_on_c,3,59,0,,,,,,,,,,,,,,,,,,,,,,,
5,36417, Note_on_c,3,63,0,,,,,,,,,,,,,,,,,,,,,,,
5,36432, Note_on_c,3,59,93,,,,,,,,,,,,,,,,,,,,,,,
5,36437, Note_on_c,3,47,0,,,,,,,,,,,,,,,,,,,,,,,
5,36454, Note_on_c,3,66,0,,,,,,,,,,,,,,,,,,,,,,,
5,36464, Note_on_c,3,59,0,,,,,,,,,,,,,,,,,,,,,,,
5,36475, Control_c,3,64,0,,,,,,,,,,,,,,,,,,,,,,,
5,36480, Note_on_c,3,54,112,,,,,,,,,,,,,,,,,,,,,,,
5,36480, Note_on_c,3,57,127,,,,,,,,,,,,,,,,,,,,,,,
5,36480, Note_on_c,3,61,127,,,,,,,,,,,,,,,,,,,,,,,
5,36480, Note_on_c,3,66,112,,,,,,,,,,,,,,,,,,,,,,,
5,36480, Note_on_c,3,69,127,,,,,,,,,,,,,,,,,,,,,,,
5,36505, Control_c,3,64,127,,,,,,,,,,,,,,,,,,,,,,,
5,36542, Note_on_c,3,57,0,,,,,,,,,,,,,,,,,,,,,,,
5,36543, Note_on_c,3,61,0,,,,,,,,,,,,,,,,,,,,,,,
5,36550, Note_on_c,3,69,0,,,,,,,,,,,,,,,,,,,,,,,
5,36560, Note_on_c,3,66,0,,,,,,,,,,,,,,,,,,,,,,,
5,36570, Note_on_c,3,54,0,,,,,,,,,,,,,,,,,,,,,,,
5,36576, Note_on_c,3,57,91,,,,,,,,,,,,,,,,,,,,,,,
5,36576, Note_on_c,3,61,64,,,,,,,,,,,,,,,,,,,,,,,
5,36576, Note_on_c,3,66,40,,,,,,,,,,,,,,,,,,,,,,,
5,36576, Note_on_c,3,69,80,,,,,,,,,,,,,,,,,,,,,,,
5,36585, Note_on_c,3,61,0,,,,,,,,,,,,,,,,,,,,,,,
5,36590, Note_on_c,3,66,0,,,,,,,,,,,,,,,,,,,,,,,
5,36595, Note_on_c,3,69,0,,,,,,,,,,,,,,,,,,,,,,,
5,36604, Note_on_c,3,57,0,,,,,,,,,,,,,,,,,,,,,,,
5,36624, Note_on_c,3,54,78,,,,,,,,,,,,,,,,,,,,,,,
5,36624, Note_on_c,3,57,74,,,,,,,,,,,,,,,,,,,,,,,
5,36624, Note_on_c,3,61,86,,,,,,,,,,,,,,,,,,,,,,,
5,36624, Note_on_c,3,66,72,,,,,,,,,,,,,,,,,,,,,,,
5,36624, Note_on_c,3,69,88,,,,,,,,,,,,,,,,,,,,,,,
5,36642, Note_on_c,3,61,0,,,,,,,,,,,,,,,,,,,,,,,
5,36643, Note_on_c,3,69,0,,,,,,,,,,,,,,,,,,,,,,,
5,36646, Note_on_c,3,54,0,,,,,,,,,,,,,,,,,,,,,,,
5,36649, Note_on_c,3,57,0,,,,,,,,,,,,,,,,,,,,,,,
5,36653, Note_on_c,3,66,0,,,,,,,,,,,,,,,,,,,,,,,
5,36672, Note_on_c,3,54,103,,,,,,,,,,,,,,,,,,,,,,,
5,36672, Note_on_c,3,57,91,,,,,,,,,,,,,,,,,,,,,,,
5,36672, Note_on_c,3,61,112,,,,,,,,,,,,,,,,,,,,,,,
5,36672, Note_on_c,3,66,127,,,,,,,,,,,,,,,,,,,,,,,
5,36672, Note_on_c,3,69,127,,,,,,,,,,,,,,,,,,,,,,,
5,36699, Note_on_c,3,57,0,,,,,,,,,,,,,,,,,,,,,,,
5,36709, Note_on_c,3,61,0,,,,,,,,,,,,,,,,,,,,,,,
5,36720, Note_on_c,3,57,76,,,,,,,,,,,,,,,,,,,,,,,
5,36733, Note_on_c,3,69,0,,,,,,,,,,,,,,,,,,,,,,,
5,36737, Note_on_c,3,54,0,,,,,,,,,,,,,,,,,,,,,,,
5,36737, Note_on_c,3,66,0,,,,,,,,,,,,,,,,,,,,,,,
5,36759, Note_on_c,3,57,0,,,,,,,,,,,,,,,,,,,,,,,
5,36768, Note_on_c,3,61,99,,,,,,,,,,,,,,,,,,,,,,,
5,36768, Note_on_c,3,66,82,,,,,,,,,,,,,,,,,,,,,,,
5,36768, Note_on_c,3,69,93,,,,,,,,,,,,,,,,,,,,,,,
5,36781, Note_on_c,3,69,0,,,,,,,,,,,,,,,,,,,,,,,
5,36785, Note_on_c,3,61,0,,,,,,,,,,,,,,,,,,,,,,,
5,36789, Note_on_c,3,66,0,,,,,,,,,,,,,,,,,,,,,,,
5,36809, Control_c,3,64,0,,,,,,,,,,,,,,,,,,,,,,,
5,36816, Note_on_c,3,54,107,,,,,,,,,,,,,,,,,,,,,,,
5,36816, Note_on_c,3,57,118,,,,,,,,,,,,,,,,,,,,,,,
5,36816, Note_on_c,3,61,127,,,,,,,,,,,,,,,,,,,,,,,
5,36816, Note_on_c,3,66,112,,,,,,,,,,,,,,,,,,,,,,,
5,36816, Note_on_c,3,69,127,,,,,,,,,,,,,,,,,,,,,,,
5,36827, Control_c,3,64,127,,,,,,,,,,,,,,,,,,,,,,,
5,36841, Note_on_c,3,57,0,,,,,,,,,,,,,,,,,,,,,,,
5,36864, Note_on_c,3,57,85,,,,,,,,,,,,,,,,,,,,,,,
5,36873, Note_on_c,3,61,0,,,,,,,,,,,,,,,,,,,,,,,
5,36876, Note_on_c,3,69,0,,,,,,,,,,,,,,,,,,,,,,,
5,36879, Note_on_c,3,54,0,,,,,,,,,,,,,,,,,,,,,,,
5,36888, Note_on_c,3,66,0,,,,,,,,,,,,,,,,,,,,,,,
5,36893, Note_on_c,3,57,0,,,,,,,,,,,,,,,,,,,,,,,
5,36912, Note_on_c,3,52,110,,,,,,,,,,,,,,,,,,,,,,,
5,36912, Note_on_c,3,57,82,,,,,,,,,,,,,,,,,,,,,,,
5,36912, Note_on_c,3,61,95,,,,,,,,,,,,,,,,,,,,,,,
5,36912, Note_on_c,3,64,110,,,,,,,,,,,,,,,,,,,,,,,
5,36912, Note_on_c,3,66,67,,,,,,,,,,,,,,,,,,,,,,,
5,36912, Note_on_c,3,69,98,,,,,,,,,,,,,,,,,,,,,,,
5,36917, Note_on_c,3,66,0,,,,,,,,,,,,,,,,,,,,,,,
5,36925, Note_on_c,3,57,0,,,,,,,,,,,,,,,,,,,,,,,
5,36933, Note_on_c,3,61,0,,,,,,,,,,,,,,,,,,,,,,,
5,36935, Note_on_c,3,52,0,,,,,,,,,,,,,,,,,,,,,,,
5,36937, Note_on_c,3,64,0,,,,,,,,,,,,,,,,,,,,,,,
5,36937, Note_on_c,3,69,0,,,,,,,,,,,,,,,,,,,,,,,
5,36956, Control_c,3,64,0,,,,,,,,,,,,,,,,,,,,,,,
5,36960, Note_on_c,3,52,127,,,,,,,,,,,,,,,,,,,,,,,
5,36960, Note_on_c,3,57,127,,,,,,,,,,,,,,,,,,,,,,,
5,36960, Note_on_c,3,61,127,,,,,,,,,,,,,,,,,,,,,,,
5,36960, Note_on_c,3,64,127,,,,,,,,,,,,,,,,,,,,,,,
5,36960, Note_on_c,3,69,118,,,,,,,,,,,,,,,,,,,,,,,
5,36978, Control_c,3,64,127,,,,,,,,,,,,,,,,,,,,,,,
5,37018, Note_on_c,3,57,0,,,,,,,,,,,,,,,,,,,,,,,
5,37026, Note_on_c,3,52,0,,,,,,,,,,,,,,,,,,,,,,,
5,37031, Note_on_c,3,61,0,,,,,,,,,,,,,,,,,,,,,,,
5,37032, Note_on_c,3,69,0,,,,,,,,,,,,,,,,,,,,,,,
5,37034, Note_on_c,3,64,0,,,,,,,,,,,,,,,,,,,,,,,
5,37056, Note_on_c,3,52,127,,,,,,,,,,,,,,,,,,,,,,,
5,37056, Note_on_c,3,57,118,,,,,,,,,,,,,,,,,,,,,,,
5,37056, Note_on_c,3,61,127,,,,,,,,,,,,,,,,,,,,,,,
5,37056, Note_on_c,3,64,127,,,,,,,,,,,,,,,,,,,,,,,
5,37056, Note_on_c,3,66,107,,,,,,,,,,,,,,,,,,,,,,,
5,37056, Note_on_c,3,69,122,,,,,,,,,,,,,,,,,,,,,,,
5,37059, Note_on_c,3,66,0,,,,,,,,,,,,,,,,,,,,,,,
5,37080, Note_on_c,3,57,0,,,,,,,,,,,,,,,,,,,,,,,
5,37129, Note_on_c,3,61,0,,,,,,,,,,,,,,,,,,,,,,,
5,37151, Note_on_c,3,52,0,,,,,,,,,,,,,,,,,,,,,,,
5,37152, Note_on_c,3,57,107,,,,,,,,,,,,,,,,,,,,,,,
5,37160, Note_on_c,3,64,0,,,,,,,,,,,,,,,,,,,,,,,
5,37178, Note_on_c,3,69,0,,,,,,,,,,,,,,,,,,,,,,,
5,37200, Note_on_c,3,52,107,,,,,,,,,,,,,,,,,,,,,,,
5,37200, Note_on_c,3,61,103,,,,,,,,,,,,,,,,,,,,,,,
5,37209, Note_on_c,3,57,0,,,,,,,,,,,,,,,,,,,,,,,
5,37222, Note_on_c,3,52,0,,,,,,,,,,,,,,,,,,,,,,,
5,37229, Note_on_c,3,61,0,,,,,,,,,,,,,,,,,,,,,,,
5,37246, Control_c,3,64,0,,,,,,,,,,,,,,,,,,,,,,,
5,37248, Note_on_c,3,49,88,,,,,,,,,,,,,,,,,,,,,,,
5,37248, Note_on_c,3,52,127,,,,,,,,,,,,,,,,,,,,,,,
5,37248, Note_on_c,3,59,127,,,,,,,,,,,,,,,,,,,,,,,
5,37248, Note_on_c,3,64,127,,,,,,,,,,,,,,,,,,,,,,,
5,37248, Note_on_c,3,66,88,,,,,,,,,,,,,,,,,,,,,,,
5,37248, Note_on_c,3,69,118,,,,,,,,,,,,,,,,,,,,,,,
5,37251, Note_on_c,3,66,0,,,,,,,,,,,,,,,,,,,,,,,
5,37252, Note_on_c,3,49,0,,,,,,,,,,,,,,,,,,,,,,,
5,37272, Control_c,3,64,127,,,,,,,,,,,,,,,,,,,,,,,
5,37314, Note_on_c,3,59,0,,,,,,,,,,,,,,,,,,,,,,,
5,37324, Note_on_c,3,64,0,,,,,,,,,,,,,,,,,,,,,,,
5,37334, Note_on_c,3,69,0,,,,,,,,,,,,,,,,,,,,,,,
5,37342, Note_on_c,3,52,0,,,,,,,,,,,,,,,,,,,,,,,
5,37344, Note_on_c,3,59,88,,,,,,,,,,,,,,,,,,,,,,,
5,37344, Note_on_c,3,64,98,,,,,,,,,,,,,,,,,,,,,,,
5,37344, Note_on_c,3,69,73,,,,,,,,,,,,,,,,,,,,,,,
5,37363, Note_on_c,3,64,0,,,,,,,,,,,,,,,,,,,,,,,
5,37366, Note_on_c,3,59,0,,,,,,,,,,,,,,,,,,,,,,,
5,37370, Note_on_c,3,69,0,,,,,,,,,,,,,,,,,,,,,,,
5,37392, Note_on_c,3,52,93,,,,,,,,,,,,,,,,,,,,,,,
5,37392, Note_on_c,3,59,85,,,,,,,,,,,,,,,,,,,,,,,
5,37392, Note_on_c,3,64,114,,,,,,,,,,,,,,,,,,,,,,,
5,37392, Note_on_c,3,69,76,,,,,,,,,,,,,,,,,,,,,,,
5,37405, Note_on_c,3,69,0,,,,,,,,,,,,,,,,,,,,,,,
5,37409, Note_on_c,3,59,0,,,,,,,,,,,,,,,,,,,,,,,
5,37413, Note_on_c,3,64,0,,,,,,,,,,,,,,,,,,,,,,,
5,37416, Note_on_c,3,52,0,,,,,,,,,,,,,,,,,,,,,,,
5,37435, Control_c,3,64,0,,,,,,,,,,,,,,,,,,,,,,,
5,37440, Note_on_c,3,52,127,,,,,,,,,,,,,,,,,,,,,,,
5,37440, Note_on_c,3,59,127,,,,,,,,,,,,,,,,,,,,,,,
5,37440, Note_on_c,3,64,127,,,,,,,,,,,,,,,,,,,,,,,
5,37440, Note_on_c,3,69,118,,,,,,,,,,,,,,,,,,,,,,,
5,37453, Control_c,3,64,127,,,,,,,,,,,,,,,,,,,,,,,
5,37471, Note_on_c,3,59,0,,,,,,,,,,,,,,,,,,,,,,,
5,37485, Note_on_c,3,64,0,,,,,,,,,,,,,,,,,,,,,,,
5,37488, Note_on_c,3,59,88,,,,,,,,,,,,,,,,,,,,,,,
5,37515, Note_on_c,3,59,0,,,,,,,,,,,,,,,,,,,,,,,
5,37518, Note_on_c,3,69,0,,,,,,,,,,,,,,,,,,,,,,,
5,37519, Note_on_c,3,52,0,,,,,,,,,,,,,,,,,,,,,,,
5,37536, Note_on_c,3,64,118,,,,,,,,,,,,,,,,,,,,,,,
5,37560, Note_on_c,3,64,0,,,,,,,,,,,,,,,,,,,,,,,
5,37577, Control_c,3,64,0,,,,,,,,,,,,,,,,,,,,,,,
5,37584, Note_on_c,3,52,127,,,,,,,,,,,,,,,,,,,,,,,
5,37584, Note_on_c,3,59,127,,,,,,,,,,,,,,,,,,,,,,,
5,37584, Note_on_c,3,64,127,,,,,,,,,,,,,,,,,,,,,,,
5,37584, Note_on_c,3,66,103,,,,,,,,,,,,,,,,,,,,,,,
5,37584, Note_on_c,3,69,122,,,,,,,,,,,,,,,,,,,,,,,
5,37588, Note_on_c,3,66,0,,,,,,,,,,,,,,,,,,,,,,,
5,37603, Control_c,3,64,127,,,,,,,,,,,,,,,,,,,,,,,
5,37626, Note_on_c,3,59,0,,,,,,,,,,,,,,,,,,,,,,,
5,37632, Note_on_c,3,59,56,,,,,,,,,,,,,,,,,,,,,,,
5,37644, Note_on_c,3,59,0,,,,,,,,,,,,,,,,,,,,,,,
5,37646, Note_on_c,3,52,0,,,,,,,,,,,,,,,,,,,,,,,
5,37656, Note_on_c,3,64,0,,,,,,,,,,,,,,,,,,,,,,,
5,37666, Note_on_c,3,69,0,,,,,,,,,,,,,,,,,,,,,,,
5,37680, Note_on_c,3,47,85,,,,,,,,,,,,,,,,,,,,,,,
5,37680, Note_on_c,3,59,82,,,,,,,,,,,,,,,,,,,,,,,
5,37680, Note_on_c,3,63,99,,,,,,,,,,,,,,,,,,,,,,,
5,37680, Note_on_c,3,66,82,,,,,,,,,,,,,,,,,,,,,,,
5,37696, Note_on_c,3,63,0,,,,,,,,,,,,,,,,,,,,,,,
5,37699, Note_on_c,3,59,0,,,,,,,,,,,,,,,,,,,,,,,
5,37704, Note_on_c,3,47,0,,,,,,,,,,,,,,,,,,,,,,,
5,37704, Note_on_c,3,66,0,,,,,,,,,,,,,,,,,,,,,,,
5,37728, Note_on_c,3,47,127,,,,,,,,,,,,,,,,,,,,,,,
5,37728, Note_on_c,3,59,127,,,,,,,,,,,,,,,,,,,,,,,
5,37728, Note_on_c,3,63,127,,,,,,,,,,,,,,,,,,,,,,,
5,37728, Note_on_c,3,66,112,,,,,,,,,,,,,,,,,,,,,,,
5,37736, Control_c,3,64,0,,,,,,,,,,,,,,,,,,,,,,,
5,37758, Control_c,3,64,127,,,,,,,,,,,,,,,,,,,,,,,
5,37803, Note_on_c,3,63,0,,,,,,,,,,,,,,,,,,,,,,,
5,37805, Note_on_c,3,47,0,,,,,,,,,,,,,,,,,,,,,,,
5,37805, Note_on_c,3,59,0,,,,,,,,,,,,,,,,,,,,,,,
5,37808, Note_on_c,3,66,0,,,,,,,,,,,,,,,,,,,,,,,
5,37824, Note_on_c,3,47,127,,,,,,,,,,,,,,,,,,,,,,,
5,37824, Note_on_c,3,59,122,,,,,,,,,,,,,,,,,,,,,,,
5,37824, Note_on_c,3,63,127,,,,,,,,,,,,,,,,,,,,,,,
5,37824, Note_on_c,3,66,112,,,,,,,,,,,,,,,,,,,,,,,
5,37891, Note_on_c,3,63,0,,,,,,,,,,,,,,,,,,,,,,,
5,37896, Note_on_c,3,66,0,,,,,,,,,,,,,,,,,,,,,,,
5,37900, Note_on_c,3,47,0,,,,,,,,,,,,,,,,,,,,,,,
5,37901, Note_on_c,3,59,0,,,,,,,,,,,,,,,,,,,,,,,
5,37920, Note_on_c,3,47,104,,,,,,,,,,,,,,,,,,,,,,,
5,37920, Note_on_c,3,59,127,,,,,,,,,,,,,,,,,,,,,,,
5,37920, Note_on_c,3,63,127,,,,,,,,,,,,,,,,,,,,,,,
5,37920, Note_on_c,3,66,107,,,,,,,,,,,,,,,,,,,,,,,
5,37941, Note_on_c,3,59,0,,,,,,,,,,,,,,,,,,,,,,,
5,37949, Note_on_c,3,63,0,,,,,,,,,,,,,,,,,,,,,,,
5,37968, Note_on_c,3,47,0,,,,,,,,,,,,,,,,,,,,,,,
5,37968, Note_on_c,3,59,85,,,,,,,,,,,,,,,,,,,,,,,
5,37992, Note_on_c,3,59,0,,,,,,,,,,,,,,,,,,,,,,,
5,37995, Note_on_c,3,66,0,,,,,,,,,,,,,,,,,,,,,,,
5,38016, Note_on_c,3,54,127,,,,,,,,,,,,,,,,,,,,,,,
5,38016, Note_on_c,3,57,127,,,,,,,,,,,,,,,,,,,,,,,
5,38016, Note_on_c,3,59,122,,,,,,,,,,,,,,,,,,,,,,,
5,38016, Note_on_c,3,61,127,,,,,,,,,,,,,,,,,,,,,,,
5,38016, Note_on_c,3,66,112,,,,,,,,,,,,,,,,,,,,,,,
5,38016, Note_on_c,3,69,127,,,,,,,,,,,,,,,,,,,,,,,
5,38021, Control_c,3,64,0,,,,,,,,,,,,,,,,,,,,,,,
5,38051, Control_c,3,64,127,,,,,,,,,,,,,,,,,,,,,,,
5,38052, Note_on_c,3,59,0,,,,,,,,,,,,,,,,,,,,,,,
5,38074, Note_on_c,3,57,0,,,,,,,,,,,,,,,,,,,,,,,
5,38086, Note_on_c,3,61,0,,,,,,,,,,,,,,,,,,,,,,,
5,38089, Note_on_c,3,69,0,,,,,,,,,,,,,,,,,,,,,,,
5,38104, Note_on_c,3,54,0,,,,,,,,,,,,,,,,,,,,,,,
5,38112, Note_on_c,3,57,87,,,,,,,,,,,,,,,,,,,,,,,
5,38131, Note_on_c,3,66,0,,,,,,,,,,,,,,,,,,,,,,,
5,38141, Note_on_c,3,57,0,,,,,,,,,,,,,,,,,,,,,,,
5,38160, Note_on_c,3,54,88,,,,,,,,,,,,,,,,,,,,,,,
5,38160, Note_on_c,3,61,103,,,,,,,,,,,,,,,,,,,,,,,
5,38184, Note_on_c,3,54,0,,,,,,,,,,,,,,,,,,,,,,,
5,38186, Note_on_c,3,61,0,,,,,,,,,,,,,,,,,,,,,,,
5,38201, Control_c,3,64,0,,,,,,,,,,,,,,,,,,,,,,,
5,38208, Note_on_c,3,54,112,,,,,,,,,,,,,,,,,,,,,,,
5,38208, Note_on_c,3,57,122,,,,,,,,,,,,,,,,,,,,,,,
5,38208, Note_on_c,3,61,112,,,,,,,,,,,,,,,,,,,,,,,
5,38208, Note_on_c,3,66,107,,,,,,,,,,,,,,,,,,,,,,,
5,38208, Note_on_c,3,69,127,,,,,,,,,,,,,,,,,,,,,,,
5,38218, Control_c,3,64,127,,,,,,,,,,,,,,,,,,,,,,,
5,38252, Note_on_c,3,57,0,,,,,,,,,,,,,,,,,,,,,,,
5,38266, Note_on_c,3,61,0,,,,,,,,,,,,,,,,,,,,,,,
5,38287, Note_on_c,3,54,0,,,,,,,,,,,,,,,,,,,,,,,
5,38287, Note_on_c,3,69,0,,,,,,,,,,,,,,,,,,,,,,,
5,38292, Note_on_c,3,66,0,,,,,,,,,,,,,,,,,,,,,,,
5,38304, Note_on_c,3,57,93,,,,,,,,,,,,,,,,,,,,,,,
5,38304, Note_on_c,3,61,99,,,,,,,,,,,,,,,,,,,,,,,
5,38304, Note_on_c,3,66,57,,,,,,,,,,,,,,,,,,,,,,,
5,38304, Note_on_c,3,69,80,,,,,,,,,,,,,,,,,,,,,,,
5,38319, Note_on_c,3,69,0,,,,,,,,,,,,,,,,,,,,,,,
5,38320, Note_on_c,3,61,0,,,,,,,,,,,,,,,,,,,,,,,
5,38321, Note_on_c,3,66,0,,,,,,,,,,,,,,,,,,,,,,,
5,38327, Note_on_c,3,57,0,,,,,,,,,,,,,,,,,,,,,,,
5,38352, Note_on_c,3,54,112,,,,,,,,,,,,,,,,,,,,,,,
5,38352, Note_on_c,3,57,114,,,,,,,,,,,,,,,,,,,,,,,
5,38352, Note_on_c,3,61,112,,,,,,,,,,,,,,,,,,,,,,,
5,38352, Note_on_c,3,66,107,,,,,,,,,,,,,,,,,,,,,,,
5,38352, Note_on_c,3,69,127,,,,,,,,,,,,,,,,,,,,,,,
5,38359, Control_c,3,64,0,,,,,,,,,,,,,,,,,,,,,,,
5,38377, Control_c,3,64,127,,,,,,,,,,,,,,,,,,,,,,,
5,38386, Note_on_c,3,57,0,,,,,,,,,,,,,,,,,,,,,,,
5,38400, Note_on_c,3,57,80,,,,,,,,,,,,,,,,,,,,,,,
5,38410, Note_on_c,3,61,0,,,,,,,,,,,,,,,,,,,,,,,
5,38419, Note_on_c,3,54,0,,,,,,,,,,,,,,,,,,,,,,,
5,38419, Note_on_c,3,69,0,,,,,,,,,,,,,,,,,,,,,,,
5,38426, Note_on_c,3,57,0,,,,,,,,,,,,,,,,,,,,,,,
5,38433, Note_on_c,3,66,0,,,,,,,,,,,,,,,,,,,,,,,
5,38448, Note_on_c,3,52,110,,,,,,,,,,,,,,,,,,,,,,,
5,38448, Note_on_c,3,57,70,,,,,,,,,,,,,,,,,,,,,,,
5,38448, Note_on_c,3,61,99,,,,,,,,,,,,,,,,,,,,,,,
5,38448, Note_on_c,3,64,101,,,,,,,,,,,,,,,,,,,,,,,
5,38448, Note_on_c,3,69,74,,,,,,,,,,,,,,,,,,,,,,,
5,38459, Note_on_c,3,57,0,,,,,,,,,,,,,,,,,,,,,,,
5,38460, Note_on_c,3,69,0,,,,,,,,,,,,,,,,,,,,,,,
5,38466, Note_on_c,3,61,0,,,,,,,,,,,,,,,,,,,,,,,
5,38472, Note_on_c,3,64,0,,,,,,,,,,,,,,,,,,,,,,,
5,38474, Note_on_c,3,52,0,,,,,,,,,,,,,,,,,,,,,,,
5,38496, Note_on_c,3,52,127,,,,,,,,,,,,,,,,,,,,,,,
5,38496, Note_on_c,3,57,127,,,,,,,,,,,,,,,,,,,,,,,
5,38496, Note_on_c,3,61,127,,,,,,,,,,,,,,,,,,,,,,,
5,38496, Note_on_c,3,69,122,,,,,,,,,,,,,,,,,,,,,,,
5,38496, Control_c,3,64,0,,,,,,,,,,,,,,,,,,,,,,,
5,38496, Note_on_c,3,64,127,,,,,,,,,,,,,,,,,,,,,,,
5,38523, Control_c,3,64,127,,,,,,,,,,,,,,,,,,,,,,,
5,38567, Note_on_c,3,69,0,,,,,,,,,,,,,,,,,,,,,,,
5,38568, Note_on_c,3,57,0,,,,,,,,,,,,,,,,,,,,,,,
5,38568, Note_on_c,3,61,0,,,,,,,,,,,,,,,,,,,,,,,
5,38569, Note_on_c,3,52,0,,,,,,,,,,,,,,,,,,,,,,,
5,38571, Note_on_c,3,64,0,,,,,,,,,,,,,,,,,,,,,,,
5,38592, Note_on_c,3,52,122,,,,,,,,,,,,,,,,,,,,,,,
5,38592, Note_on_c,3,57,122,,,,,,,,,,,,,,,,,,,,,,,
5,38592, Note_on_c,3,61,127,,,,,,,,,,,,,,,,,,,,,,,
5,38592, Note_on_c,3,64,127,,,,,,,,,,,,,,,,,,,,,,,
5,38592, Note_on_c,3,69,110,,,,,,,,,,,,,,,,,,,,,,,
5,38606, Control_c,3,64,127,,,,,,,,,,,,,,,,,,,,,,,
5,38659, Note_on_c,3,61,0,,,,,,,,,,,,,,,,,,,,,,,
5,38668, Note_on_c,3,57,0,,,,,,,,,,,,,,,,,,,,,,,
5,38669, Note_on_c,3,64,0,,,,,,,,,,,,,,,,,,,,,,,
5,38674, Note_on_c,3,69,0,,,,,,,,,,,,,,,,,,,,,,,
5,38685, Note_on_c,3,52,0,,,,,,,,,,,,,,,,,,,,,,,
5,38688, Note_on_c,3,57,85,,,,,,,,,,,,,,,,,,,,,,,
5,38688, Note_on_c,3,61,99,,,,,,,,,,,,,,,,,,,,,,,
5,38688, Note_on_c,3,69,70,,,,,,,,,,,,,,,,,,,,,,,
5,38703, Note_on_c,3,61,0,,,,,,,,,,,,,,,,,,,,,,,
5,38706, Note_on_c,3,57,0,,,,,,,,,,,,,,,,,,,,,,,
5,38711, Note_on_c,3,69,0,,,,,,,,,,,,,,,,,,,,,,,
5,38736, Note_on_c,3,52,114,,,,,,,,,,,,,,,,,,,,,,,
5,38736, Note_on_c,3,64,104,,,,,,,,,,,,,,,,,,,,,,,
5,38753, Note_on_c,3,64,0,,,,,,,,,,,,,,,,,,,,,,,
5,38757, Note_on_c,3,52,0,,,,,,,,,,,,,,,,,,,,,,,
5,38784, Note_on_c,3,52,127,,,,,,,,,,,,,,,,,,,,,,,
5,38784, Note_on_c,3,59,127,,,,,,,,,,,,,,,,,,,,,,,
5,38784, Note_on_c,3,64,127,,,,,,,,,,,,,,,,,,,,,,,
5,38784, Note_on_c,3,69,114,,,,,,,,,,,,,,,,,,,,,,,
5,38786, Control_c,3,64,0,,,,,,,,,,,,,,,,,,,,,,,
5,38821, Control_c,3,64,127,,,,,,,,,,,,,,,,,,,,,,,
5,38854, Note_on_c,3,59,0,,,,,,,,,,,,,,,,,,,,,,,
5,38859, Note_on_c,3,64,0,,,,,,,,,,,,,,,,,,,,,,,
5,38877, Note_on_c,3,52,0,,,,,,,,,,,,,,,,,,,,,,,
5,38880, Note_on_c,3,59,91,,,,,,,,,,,,,,,,,,,,,,,
5,38880, Note_on_c,3,64,95,,,,,,,,,,,,,,,,,,,,,,,
5,38896, Note_on_c,3,64,0,,,,,,,,,,,,,,,,,,,,,,,
5,38899, Note_on_c,3,59,0,,,,,,,,,,,,,,,,,,,,,,,
5,38908, Note_on_c,3,69,0,,,,,,,,,,,,,,,,,,,,,,,
5,38928, Note_on_c,3,52,80,,,,,,,,,,,,,,,,,,,,,,,
5,38928, Note_on_c,3,59,80,,,,,,,,,,,,,,,,,,,,,,,
5,38928, Note_on_c,3,64,107,,,,,,,,,,,,,,,,,,,,,,,
5,38942, Note_on_c,3,59,0,,,,,,,,,,,,,,,,,,,,,,,
5,38945, Note_on_c,3,64,0,,,,,,,,,,,,,,,,,,,,,,,
5,38948, Note_on_c,3,52,0,,,,,,,,,,,,,,,,,,,,,,,
5,38976, Note_on_c,3,52,114,,,,,,,,,,,,,,,,,,,,,,,
5,38976, Note_on_c,3,59,122,,,,,,,,,,,,,,,,,,,,,,,
5,38976, Note_on_c,3,64,127,,,,,,,,,,,,,,,,,,,,,,,
5,38976, Note_on_c,3,69,118,,,,,,,,,,,,,,,,,,,,,,,
5,38999, Note_on_c,3,59,0,,,,,,,,,,,,,,,,,,,,,,,
5,39017, Note_on_c,3,64,0,,,,,,,,,,,,,,,,,,,,,,,
5,39024, Note_on_c,3,59,88,,,,,,,,,,,,,,,,,,,,,,,
5,39045, Note_on_c,3,69,0,,,,,,,,,,,,,,,,,,,,,,,
5,39050, Note_on_c,3,59,0,,,,,,,,,,,,,,,,,,,,,,,
5,39051, Note_on_c,3,52,0,,,,,,,,,,,,,,,,,,,,,,,
5,39072, Note_on_c,3,64,114,,,,,,,,,,,,,,,,,,,,,,,
5,39093, Note_on_c,3,64,0,,,,,,,,,,,,,,,,,,,,,,,
5,39120, Note_on_c,3,52,122,,,,,,,,,,,,,,,,,,,,,,,
5,39120, Note_on_c,3,59,122,,,,,,,,,,,,,,,,,,,,,,,
5,39120, Note_on_c,3,64,127,,,,,,,,,,,,,,,,,,,,,,,
5,39120, Note_on_c,3,66,95,,,,,,,,,,,,,,,,,,,,,,,
5,39120, Note_on_c,3,69,122,,,,,,,,,,,,,,,,,,,,,,,
5,39124, Note_on_c,3,66,0,,,,,,,,,,,,,,,,,,,,,,,
5,39150, Note_on_c,3,59,0,,,,,,,,,,,,,,,,,,,,,,,
5,39168, Note_on_c,3,59,74,,,,,,,,,,,,,,,,,,,,,,,
5,39176, Note_on_c,3,52,0,,,,,,,,,,,,,,,,,,,,,,,
5,39182, Note_on_c,3,64,0,,,,,,,,,,,,,,,,,,,,,,,
5,39193, Note_on_c,3,59,0,,,,,,,,,,,,,,,,,,,,,,,
5,39195, Note_on_c,3,69,0,,,,,,,,,,,,,,,,,,,,,,,
5,39206, Control_c,3,64,0,,,,,,,,,,,,,,,,,,,,,,,
5,39216, Note_on_c,3,47,118,,,,,,,,,,,,,,,,,,,,,,,
5,39216, Note_on_c,3,59,118,,,,,,,,,,,,,,,,,,,,,,,
5,39216, Note_on_c,3,63,127,,,,,,,,,,,,,,,,,,,,,,,
5,39216, Note_on_c,3,66,107,,,,,,,,,,,,,,,,,,,,,,,
5,39229, Control_c,3,64,127,,,,,,,,,,,,,,,,,,,,,,,
5,39245, Note_on_c,3,59,0,,,,,,,,,,,,,,,,,,,,,,,
5,39264, Note_on_c,3,59,85,,,,,,,,,,,,,,,,,,,,,,,
5,39275, Note_on_c,3,63,0,,,,,,,,,,,,,,,,,,,,,,,
5,39286, Note_on_c,3,66,0,,,,,,,,,,,,,,,,,,,,,,,
5,39289, Note_on_c,3,59,0,,,,,,,,,,,,,,,,,,,,,,,
5,39292, Note_on_c,3,47,0,,,,,,,,,,,,,,,,,,,,,,,
5,39312, Note_on_c,3,47,122,,,,,,,,,,,,,,,,,,,,,,,
5,39312, Note_on_c,3,59,122,,,,,,,,,,,,,,,,,,,,,,,
5,39312, Note_on_c,3,63,127,,,,,,,,,,,,,,,,,,,,,,,
5,39312, Note_on_c,3,66,107,,,,,,,,,,,,,,,,,,,,,,,
5,39368, Note_on_c,3,59,0,,,,,,,,,,,,,,,,,,,,,,,
5,39384, Note_on_c,3,63,0,,,,,,,,,,,,,,,,,,,,,,,
5,39389, Note_on_c,3,66,0,,,,,,,,,,,,,,,,,,,,,,,
5,39391, Note_on_c,3,47,0,,,,,,,,,,,,,,,,,,,,,,,
5,39408, Note_on_c,3,47,122,,,,,,,,,,,,,,,,,,,,,,,
5,39408, Note_on_c,3,57,101,,,,,,,,,,,,,,,,,,,,,,,
5,39408, Note_on_c,3,64,104,,,,,,,,,,,,,,,,,,,,,,,
5,39408, Note_on_c,3,66,82,,,,,,,,,,,,,,,,,,,,,,,
5,39426, Note_on_c,3,66,0,,,,,,,,,,,,,,,,,,,,,,,
5,39432, Note_on_c,3,57,0,,,,,,,,,,,,,,,,,,,,,,,
5,39435, Note_on_c,3,47,0,,,,,,,,,,,,,,,,,,,,,,,
5,39437, Note_on_c,3,64,0,,,,,,,,,,,,,,,,,,,,,,,
5,39456, Note_on_c,3,47,118,,,,,,,,,,,,,,,,,,,,,,,
5,39456, Note_on_c,3,59,114,,,,,,,,,,,,,,,,,,,,,,,
5,39456, Note_on_c,3,64,118,,,,,,,,,,,,,,,,,,,,,,,
5,39456, Note_on_c,3,66,107,,,,,,,,,,,,,,,,,,,,,,,
5,39467, Note_on_c,3,64,0,,,,,,,,,,,,,,,,,,,,,,,
5,39518, Note_on_c,3,47,0,,,,,,,,,,,,,,,,,,,,,,,
5,39525, Note_on_c,3,59,0,,,,,,,,,,,,,,,,,,,,,,,
5,39527, Note_on_c,3,66,0,,,,,,,,,,,,,,,,,,,,,,,
5,39536, Control_c,3,64,0,,,,,,,,,,,,,,,,,,,,,,,
5,39552, Note_on_c,3,50,127,,,,,,,,,,,,,,,,,,,,,,,
5,39552, Note_on_c,3,57,107,,,,,,,,,,,,,,,,,,,,,,,
5,39552, Note_on_c,3,62,127,,,,,,,,,,,,,,,,,,,,,,,
5,39552, Note_on_c,3,66,103,,,,,,,,,,,,,,,,,,,,,,,
5,39552, Note_on_c,3,69,118,,,,,,,,,,,,,,,,,,,,,,,
5,39564, Control_c,3,64,127,,,,,,,,,,,,,,,,,,,,,,,
5,39573, Note_on_c,3,57,0,,,,,,,,,,,,,,,,,,,,,,,
5,39600, Note_on_c,3,57,71,,,,,,,,,,,,,,,,,,,,,,,
5,39612, Note_on_c,3,62,0,,,,,,,,,,,,,,,,,,,,,,,
5,39614, Note_on_c,3,66,0,,,,,,,,,,,,,,,,,,,,,,,
5,39614, Note_on_c,3,69,0,,,,,,,,,,,,,,,,,,,,,,,
5,39621, Note_on_c,3,57,0,,,,,,,,,,,,,,,,,,,,,,,
5,39648, Note_on_c,3,57,98,,,,,,,,,,,,,,,,,,,,,,,
5,39648, Note_on_c,3,62,122,,,,,,,,,,,,,,,,,,,,,,,
5,39648, Note_on_c,3,66,95,,,,,,,,,,,,,,,,,,,,,,,
5,39648, Note_on_c,3,69,107,,,,,,,,,,,,,,,,,,,,,,,
5,39667, Note_on_c,3,50,0,,,,,,,,,,,,,,,,,,,,,,,
5,39670, Note_on_c,3,57,0,,,,,,,,,,,,,,,,,,,,,,,
5,39679, Note_on_c,3,62,0,,,,,,,,,,,,,,,,,,,,,,,
5,39682, Note_on_c,3,66,0,,,,,,,,,,,,,,,,,,,,,,,
5,39684, Note_on_c,3,69,0,,,,,,,,,,,,,,,,,,,,,,,
5,39696, Note_on_c,3,50,98,,,,,,,,,,,,,,,,,,,,,,,
5,39696, Note_on_c,3,57,66,,,,,,,,,,,,,,,,,,,,,,,
5,39720, Note_on_c,3,57,0,,,,,,,,,,,,,,,,,,,,,,,
5,39726, Note_on_c,3,50,0,,,,,,,,,,,,,,,,,,,,,,,
5,39744, Note_on_c,3,50,101,,,,,,,,,,,,,,,,,,,,,,,
5,39744, Note_on_c,3,57,80,,,,,,,,,,,,,,,,,,,,,,,
5,39744, Note_on_c,3,62,104,,,,,,,,,,,,,,,,,,,,,,,
5,39744, Note_on_c,3,66,80,,,,,,,,,,,,,,,,,,,,,,,
5,39744, Note_on_c,3,69,91,,,,,,,,,,,,,,,,,,,,,,,
5,39763, Note_on_c,3,57,0,,,,,,,,,,,,,,,,,,,,,,,
5,39772, Note_on_c,3,62,0,,,,,,,,,,,,,,,,,,,,,,,
5,39774, Note_on_c,3,69,0,,,,,,,,,,,,,,,,,,,,,,,
5,39778, Note_on_c,3,66,0,,,,,,,,,,,,,,,,,,,,,,,
5,39792, Note_on_c,3,57,82,,,,,,,,,,,,,,,,,,,,,,,
5,39819, Note_on_c,3,57,0,,,,,,,,,,,,,,,,,,,,,,,
5,39838, Note_on_c,3,50,0,,,,,,,,,,,,,,,,,,,,,,,
5,39840, Note_on_c,3,57,82,,,,,,,,,,,,,,,,,,,,,,,
5,39840, Note_on_c,3,62,98,,,,,,,,,,,,,,,,,,,,,,,
5,39840, Note_on_c,3,66,61,,,,,,,,,,,,,,,,,,,,,,,
5,39840, Note_on_c,3,69,83,,,,,,,,,,,,,,,,,,,,,,,
5,39852, Note_on_c,3,66,0,,,,,,,,,,,,,,,,,,,,,,,
5,39858, Note_on_c,3,57,0,,,,,,,,,,,,,,,,,,,,,,,
5,39860, Note_on_c,3,62,0,,,,,,,,,,,,,,,,,,,,,,,
5,39888, Note_on_c,3,50,104,,,,,,,,,,,,,,,,,,,,,,,
5,39888, Note_on_c,3,59,74,,,,,,,,,,,,,,,,,,,,,,,
5,39905, Note_on_c,3,69,0,,,,,,,,,,,,,,,,,,,,,,,
5,39916, Note_on_c,3,59,0,,,,,,,,,,,,,,,,,,,,,,,
5,39918, Note_on_c,3,50,0,,,,,,,,,,,,,,,,,,,,,,,
5,39936, Note_on_c,3,52,118,,,,,,,,,,,,,,,,,,,,,,,
5,39936, Note_on_c,3,59,88,,,,,,,,,,,,,,,,,,,,,,,
5,39936, Note_on_c,3,64,110,,,,,,,,,,,,,,,,,,,,,,,
5,39936, Note_on_c,3,68,86,,,,,,,,,,,,,,,,,,,,,,,
5,39937, Control_c,3,64,0,,,,,,,,,,,,,,,,,,,,,,,
5,39985, Control_c,3,64,127,,,,,,,,,,,,,,,,,,,,,,,
5,40006, Note_on_c,3,68,0,,,,,,,,,,,,,,,,,,,,,,,
5,40007, Note_on_c,3,64,0,,,,,,,,,,,,,,,,,,,,,,,
5,40015, Note_on_c,3,59,0,,,,,,,,,,,,,,,,,,,,,,,
5,40032, Note_on_c,3,59,85,,,,,,,,,,,,,,,,,,,,,,,
5,40032, Note_on_c,3,64,104,,,,,,,,,,,,,,,,,,,,,,,
5,40032, Note_on_c,3,68,78,,,,,,,,,,,,,,,,,,,,,,,
5,40046, Note_on_c,3,52,0,,,,,,,,,,,,,,,,,,,,,,,
5,40056, Note_on_c,3,59,0,,,,,,,,,,,,,,,,,,,,,,,
5,40064, Note_on_c,3,64,0,,,,,,,,,,,,,,,,,,,,,,,
5,40080, Note_on_c,3,52,98,,,,,,,,,,,,,,,,,,,,,,,
5,40080, Note_on_c,3,59,74,,,,,,,,,,,,,,,,,,,,,,,
5,40080, Note_on_c,3,64,70,,,,,,,,,,,,,,,,,,,,,,,
5,40096, Note_on_c,3,64,0,,,,,,,,,,,,,,,,,,,,,,,
5,40099, Note_on_c,3,68,0,,,,,,,,,,,,,,,,,,,,,,,
5,40108, Note_on_c,3,52,0,,,,,,,,,,,,,,,,,,,,,,,
5,40113, Note_on_c,3,59,0,,,,,,,,,,,,,,,,,,,,,,,
5,40128, Note_on_c,3,52,101,,,,,,,,,,,,,,,,,,,,,,,
5,40128, Note_on_c,3,59,85,,,,,,,,,,,,,,,,,,,,,,,
5,40128, Note_on_c,3,64,93,,,,,,,,,,,,,,,,,,,,,,,
5,40128, Note_on_c,3,68,78,,,,,,,,,,,,,,,,,,,,,,,
5,40152, Note_on_c,3,59,0,,,,,,,,,,,,,,,,,,,,,,,
5,40158, Note_on_c,3,64,0,,,,,,,,,,,,,,,,,,,,,,,
5,40165, Note_on_c,3,68,0,,,,,,,,,,,,,,,,,,,,,,,
5,40176, Note_on_c,3,59,71,,,,,,,,,,,,,,,,,,,,,,,
5,40176, Note_on_c,3,64,61,,,,,,,,,,,,,,,,,,,,,,,
5,40176, Note_on_c,3,68,37,,,,,,,,,,,,,,,,,,,,,,,
5,40184, Note_on_c,3,64,0,,,,,,,,,,,,,,,,,,,,,,,
5,40186, Note_on_c,3,68,0,,,,,,,,,,,,,,,,,,,,,,,
5,40200, Note_on_c,3,59,0,,,,,,,,,,,,,,,,,,,,,,,
5,40211, Note_on_c,3,52,0,,,,,,,,,,,,,,,,,,,,,,,
5,40224, Note_on_c,3,59,88,,,,,,,,,,,,,,,,,,,,,,,
5,40224, Note_on_c,3,64,88,,,,,,,,,,,,,,,,,,,,,,,
5,40224, Note_on_c,3,68,56,,,,,,,,,,,,,,,,,,,,,,,
5,40235, Note_on_c,3,68,0,,,,,,,,,,,,,,,,,,,,,,,
5,40239, Note_on_c,3,64,0,,,,,,,,,,,,,,,,,,,,,,,
5,40252, Note_on_c,3,59,0,,,,,,,,,,,,,,,,,,,,,,,
5,40272, Note_on_c,3,52,80,,,,,,,,,,,,,,,,,,,,,,,
5,40272, Note_on_c,3,57,82,,,,,,,,,,,,,,,,,,,,,,,
5,40272, Note_on_c,3,61,103,,,,,,,,,,,,,,,,,,,,,,,
5,40272, Note_on_c,3,66,80,,,,,,,,,,,,,,,,,,,,,,,
5,40289, Control_c,3,64,0,,,,,,,,,,,,,,,,,,,,,,,
5,40306, Note_on_c,3,52,0,,,,,,,,,,,,,,,,,,,,,,,
5,40320, Note_on_c,3,54,103,,,,,,,,,,,,,,,,,,,,,,,
5,40340, Note_on_c,3,57,0,,,,,,,,,,,,,,,,,,,,,,,
5,40342, Control_c,3,64,127,,,,,,,,,,,,,,,,,,,,,,,
5,40354, Note_on_c,3,61,0,,,,,,,,,,,,,,,,,,,,,,,
5,40368, Note_on_c,3,57,91,,,,,,,,,,,,,,,,,,,,,,,
5,40386, Note_on_c,3,66,0,,,,,,,,,,,,,,,,,,,,,,,
5,40396, Note_on_c,3,57,0,,,,,,,,,,,,,,,,,,,,,,,
5,40416, Note_on_c,3,57,88,,,,,,,,,,,,,,,,,,,,,,,
5,40416, Note_on_c,3,61,99,,,,,,,,,,,,,,,,,,,,,,,
5,40416, Note_on_c,3,66,78,,,,,,,,,,,,,,,,,,,,,,,
5,40423, Note_on_c,3,54,0,,,,,,,,,,,,,,,,,,,,,,,
5,40441, Note_on_c,3,57,0,,,,,,,,,,,,,,,,,,,,,,,
5,40451, Note_on_c,3,61,0,,,,,,,,,,,,,,,,,,,,,,,
5,40464, Note_on_c,3,54,92,,,,,,,,,,,,,,,,,,,,,,,
5,40464, Note_on_c,3,57,74,,,,,,,,,,,,,,,,,,,,,,,
5,40485, Note_on_c,3,66,0,,,,,,,,,,,,,,,,,,,,,,,
5,40488, Note_on_c,3,57,0,,,,,,,,,,,,,,,,,,,,,,,
5,40489, Note_on_c,3,54,0,,,,,,,,,,,,,,,,,,,,,,,
5,40512, Note_on_c,3,54,92,,,,,,,,,,,,,,,,,,,,,,,
5,40512, Note_on_c,3,57,93,,,,,,,,,,,,,,,,,,,,,,,
5,40512, Note_on_c,3,61,103,,,,,,,,,,,,,,,,,,,,,,,
5,40512, Control_c,3,64,0,,,,,,,,,,,,,,,,,,,,,,,
5,40512, Note_on_c,3,66,92,,,,,,,,,,,,,,,,,,,,,,,
5,40546, Note_on_c,3,57,0,,,,,,,,,,,,,,,,,,,,,,,
5,40552, Control_c,3,64,127,,,,,,,,,,,,,,,,,,,,,,,
5,40560, Note_on_c,3,57,74,,,,,,,,,,,,,,,,,,,,,,,
5,40575, Note_on_c,3,61,0,,,,,,,,,,,,,,,,,,,,,,,
5,40581, Note_on_c,3,66,0,,,,,,,,,,,,,,,,,,,,,,,
5,40588, Note_on_c,3,57,0,,,,,,,,,,,,,,,,,,,,,,,
5,40607, Note_on_c,3,54,0,,,,,,,,,,,,,,,,,,,,,,,
5,40608, Note_on_c,3,57,74,,,,,,,,,,,,,,,,,,,,,,,
5,40608, Note_on_c,3,61,92,,,,,,,,,,,,,,,,,,,,,,,
5,40608, Note_on_c,3,66,67,,,,,,,,,,,,,,,,,,,,,,,
5,40622, Note_on_c,3,57,0,,,,,,,,,,,,,,,,,,,,,,,
5,40622, Note_on_c,3,66,0,,,,,,,,,,,,,,,,,,,,,,,
5,40630, Note_on_c,3,61,0,,,,,,,,,,,,,,,,,,,,,,,
5,40656, Note_on_c,3,54,74,,,,,,,,,,,,,,,,,,,,,,,
5,40656, Note_on_c,3,57,85,,,,,,,,,,,,,,,,,,,,,,,
5,40656, Note_on_c,3,61,95,,,,,,,,,,,,,,,,,,,,,,,
5,40656, Note_on_c,3,66,92,,,,,,,,,,,,,,,,,,,,,,,
5,40656, Note_on_c,3,69,107,,,,,,,,,,,,,,,,,,,,,,,
5,40663, Control_c,3,64,0,,,,,,,,,,,,,,,,,,,,,,,
5,40686, Note_on_c,3,54,0,,,,,,,,,,,,,,,,,,,,,,,
5,40697, Control_c,3,64,127,,,,,,,,,,,,,,,,,,,,,,,
5,40704, Note_on_c,3,54,80,,,,,,,,,,,,,,,,,,,,,,,
5,40718, Note_on_c,3,57,0,,,,,,,,,,,,,,,,,,,,,,,
5,40718, Note_on_c,3,69,0,,,,,,,,,,,,,,,,,,,,,,,
5,40722, Note_on_c,3,61,0,,,,,,,,,,,,,,,,,,,,,,,
5,40722, Note_on_c,3,66,0,,,,,,,,,,,,,,,,,,,,,,,
5,40752, Note_on_c,3,57,93,,,,,,,,,,,,,,,,,,,,,,,
5,40752, Note_on_c,3,61,99,,,,,,,,,,,,,,,,,,,,,,,
5,40752, Note_on_c,3,66,99,,,,,,,,,,,,,,,,,,,,,,,
5,40752, Note_on_c,3,69,107,,,,,,,,,,,,,,,,,,,,,,,
5,40774, Note_on_c,3,54,0,,,,,,,,,,,,,,,,,,,,,,,
5,40800, Note_on_c,3,54,95,,,,,,,,,,,,,,,,,,,,,,,
5,40801, Note_on_c,3,69,0,,,,,,,,,,,,,,,,,,,,,,,
5,40807, Note_on_c,3,57,0,,,,,,,,,,,,,,,,,,,,,,,
5,40812, Note_on_c,3,66,0,,,,,,,,,,,,,,,,,,,,,,,
5,40813, Note_on_c,3,61,0,,,,,,,,,,,,,,,,,,,,,,,
5,40848, Note_on_c,3,57,98,,,,,,,,,,,,,,,,,,,,,,,
5,40848, Note_on_c,3,61,103,,,,,,,,,,,,,,,,,,,,,,,
5,40848, Note_on_c,3,66,92,,,,,,,,,,,,,,,,,,,,,,,
5,40863, Note_on_c,3,54,0,,,,,,,,,,,,,,,,,,,,,,,
5,40896, Note_on_c,3,54,103,,,,,,,,,,,,,,,,,,,,,,,
5,40903, Note_on_c,3,57,0,,,,,,,,,,,,,,,,,,,,,,,
5,40907, Note_on_c,3,61,0,,,,,,,,,,,,,,,,,,,,,,,
5,40914, Note_on_c,3,66,0,,,,,,,,,,,,,,,,,,,,,,,
5,40944, Note_on_c,3,57,114,,,,,,,,,,,,,,,,,,,,,,,
5,40944, Note_on_c,3,61,86,,,,,,,,,,,,,,,,,,,,,,,
5,40944, Note_on_c,3,66,52,,,,,,,,,,,,,,,,,,,,,,,
5,40953, Note_on_c,3,61,0,,,,,,,,,,,,,,,,,,,,,,,
5,40959, Note_on_c,3,54,0,,,,,,,,,,,,,,,,,,,,,,,
5,40960, Note_on_c,3,66,0,,,,,,,,,,,,,,,,,,,,,,,
5,40971, Note_on_c,3,57,0,,,,,,,,,,,,,,,,,,,,,,,
5,40992, Note_on_c,3,54,107,,,,,,,,,,,,,,,,,,,,,,,
5,40992, Note_on_c,3,57,91,,,,,,,,,,,,,,,,,,,,,,,
5,40992, Note_on_c,3,61,107,,,,,,,,,,,,,,,,,,,,,,,
5,40992, Note_on_c,3,66,92,,,,,,,,,,,,,,,,,,,,,,,
5,41006, Note_on_c,3,54,0,,,,,,,,,,,,,,,,,,,,,,,
5,41014, Note_on_c,3,57,0,,,,,,,,,,,,,,,,,,,,,,,
5,41022, Note_on_c,3,61,0,,,,,,,,,,,,,,,,,,,,,,,
5,41029, Note_on_c,3,66,0,,,,,,,,,,,,,,,,,,,,,,,
5,41040, Note_on_c,3,57,98,,,,,,,,,,,,,,,,,,,,,,,
5,41040, Note_on_c,3,66,52,,,,,,,,,,,,,,,,,,,,,,,
5,41046, Note_on_c,3,66,0,,,,,,,,,,,,,,,,,,,,,,,
5,41062, Note_on_c,3,57,0,,,,,,,,,,,,,,,,,,,,,,,
5,41075, Control_c,3,64,0,,,,,,,,,,,,,,,,,,,,,,,
5,41088, Note_on_c,3,50,127,,,,,,,,,,,,,,,,,,,,,,,
5,41088, Note_on_c,3,57,110,,,,,,,,,,,,,,,,,,,,,,,
5,41088, Note_on_c,3,62,127,,,,,,,,,,,,,,,,,,,,,,,
5,41088, Note_on_c,3,66,103,,,,,,,,,,,,,,,,,,,,,,,
5,41133, Control_c,3,64,127,,,,,,,,,,,,,,,,,,,,,,,
5,41147, Note_on_c,3,57,0,,,,,,,,,,,,,,,,,,,,,,,
5,41148, Note_on_c,3,66,0,,,,,,,,,,,,,,,,,,,,,,,
5,41150, Note_on_c,3,62,0,,,,,,,,,,,,,,,,,,,,,,,
5,41176, Note_on_c,3,50,0,,,,,,,,,,,,,,,,,,,,,,,
5,41184, Note_on_c,3,50,114,,,,,,,,,,,,,,,,,,,,,,,
5,41184, Note_on_c,3,57,107,,,,,,,,,,,,,,,,,,,,,,,
5,41184, Note_on_c,3,62,118,,,,,,,,,,,,,,,,,,,,,,,
5,41184, Note_on_c,3,66,82,,,,,,,,,,,,,,,,,,,,,,,
5,41205, Note_on_c,3,57,0,,,,,,,,,,,,,,,,,,,,,,,
5,41208, Note_on_c,3,62,0,,,,,,,,,,,,,,,,,,,,,,,
5,41220, Note_on_c,3,66,0,,,,,,,,,,,,,,,,,,,,,,,
5,41232, Note_on_c,3,57,88,,,,,,,,,,,,,,,,,,,,,,,
5,41232, Note_on_c,3,62,74,,,,,,,,,,,,,,,,,,,,,,,
5,41232, Note_on_c,3,66,44,,,,,,,,,,,,,,,,,,,,,,,
5,41244, Note_on_c,3,62,0,,,,,,,,,,,,,,,,,,,,,,,
5,41248, Note_on_c,3,66,0,,,,,,,,,,,,,,,,,,,,,,,
5,41252, Note_on_c,3,50,0,,,,,,,,,,,,,,,,,,,,,,,
5,41258, Note_on_c,3,57,0,,,,,,,,,,,,,,,,,,,,,,,
5,41273, Control_c,3,64,0,,,,,,,,,,,,,,,,,,,,,,,
5,41280, Note_on_c,3,50,122,,,,,,,,,,,,,,,,,,,,,,,
5,41280, Note_on_c,3,57,118,,,,,,,,,,,,,,,,,,,,,,,
5,41280, Note_on_c,3,62,127,,,,,,,,,,,,,,,,,,,,,,,
5,41280, Note_on_c,3,66,95,,,,,,,,,,,,,,,,,,,,,,,
5,41313, Control_c,3,64,127,,,,,,,,,,,,,,,,,,,,,,,
5,41318, Note_on_c,3,57,0,,,,,,,,,,,,,,,,,,,,,,,
5,41328, Note_on_c,3,57,85,,,,,,,,,,,,,,,,,,,,,,,
5,41349, Note_on_c,3,62,0,,,,,,,,,,,,,,,,,,,,,,,
5,41356, Note_on_c,3,57,0,,,,,,,,,,,,,,,,,,,,,,,
5,41363, Note_on_c,3,66,0,,,,,,,,,,,,,,,,,,,,,,,
5,41371, Note_on_c,3,50,0,,,,,,,,,,,,,,,,,,,,,,,
5,41376, Note_on_c,3,50,95,,,,,,,,,,,,,,,,,,,,,,,
5,41376, Note_on_c,3,57,76,,,,,,,,,,,,,,,,,,,,,,,
5,41376, Note_on_c,3,62,114,,,,,,,,,,,,,,,,,,,,,,,
5,41376, Note_on_c,3,66,66,,,,,,,,,,,,,,,,,,,,,,,
5,41392, Note_on_c,3,66,0,,,,,,,,,,,,,,,,,,,,,,,
5,41394, Note_on_c,3,57,0,,,,,,,,,,,,,,,,,,,,,,,
5,41400, Note_on_c,3,62,0,,,,,,,,,,,,,,,,,,,,,,,
5,41404, Note_on_c,3,50,0,,,,,,,,,,,,,,,,,,,,,,,
5,41423, Control_c,3,64,0,,,,,,,,,,,,,,,,,,,,,,,
5,41424, Note_on_c,3,52,127,,,,,,,,,,,,,,,,,,,,,,,
5,41424, Note_on_c,3,59,101,,,,,,,,,,,,,,,,,,,,,,,
5,41424, Note_on_c,3,64,118,,,,,,,,,,,,,,,,,,,,,,,
5,41424, Note_on_c,3,68,99,,,,,,,,,,,,,,,,,,,,,,,
5,41463, Control_c,3,64,127,,,,,,,,,,,,,,,,,,,,,,,
5,41495, Note_on_c,3,59,0,,,,,,,,,,,,,,,,,,,,,,,
5,41497, Note_on_c,3,68,0,,,,,,,,,,,,,,,,,,,,,,,
5,41498, Note_on_c,3,64,0,,,,,,,,,,,,,,,,,,,,,,,
5,41501, Note_on_c,3,52,0,,,,,,,,,,,,,,,,,,,,,,,
5,41520, Note_on_c,3,52,110,,,,,,,,,,,,,,,,,,,,,,,
5,41520, Note_on_c,3,59,107,,,,,,,,,,,,,,,,,,,,,,,
5,41520, Note_on_c,3,64,118,,,,,,,,,,,,,,,,,,,,,,,
5,41520, Note_on_c,3,68,92,,,,,,,,,,,,,,,,,,,,,,,
5,41521, Control_c,3,64,0,,,,,,,,,,,,,,,,,,,,,,,
5,41555, Control_c,3,64,127,,,,,,,,,,,,,,,,,,,,,,,
5,41592, Note_on_c,3,59,0,,,,,,,,,,,,,,,,,,,,,,,
5,41595, Note_on_c,3,68,0,,,,,,,,,,,,,,,,,,,,,,,
5,41597, Note_on_c,3,64,0,,,,,,,,,,,,,,,,,,,,,,,
5,41598, Note_on_c,3,52,0,,,,,,,,,,,,,,,,,,,,,,,
5,41616, Note_on_c,3,52,114,,,,,,,,,,,,,,,,,,,,,,,
5,41616, Note_on_c,3,59,104,,,,,,,,,,,,,,,,,,,,,,,
5,41616, Note_on_c,3,64,107,,,,,,,,,,,,,,,,,,,,,,,
5,41616, Note_on_c,3,68,86,,,,,,,,,,,,,,,,,,,,,,,
5,41688, Note_on_c,3,59,0,,,,,,,,,,,,,,,,,,,,,,,
5,41688, Note_on_c,3,68,0,,,,,,,,,,,,,,,,,,,,,,,
5,41693, Note_on_c,3,64,0,,,,,,,,,,,,,,,,,,,,,,,
5,41701, Note_on_c,3,52,0,,,,,,,,,,,,,,,,,,,,,,,
5,41712, Note_on_c,3,59,101,,,,,,,,,,,,,,,,,,,,,,,
5,41712, Note_on_c,3,64,110,,,,,,,,,,,,,,,,,,,,,,,
5,41712, Note_on_c,3,68,92,,,,,,,,,,,,,,,,,,,,,,,
5,41736, Note_on_c,3,59,0,,,,,,,,,,,,,,,,,,,,,,,
5,41760, Note_on_c,3,52,95,,,,,,,,,,,,,,,,,,,,,,,
5,41760, Note_on_c,3,59,98,,,,,,,,,,,,,,,,,,,,,,,
5,41772, Note_on_c,3,68,0,,,,,,,,,,,,,,,,,,,,,,,
5,41779, Note_on_c,3,64,0,,,,,,,,,,,,,,,,,,,,,,,
5,41797, Note_on_c,3,59,0,,,,,,,,,,,,,,,,,,,,,,,
5,41800, Note_on_c,3,52,0,,,,,,,,,,,,,,,,,,,,,,,
5,41808, Note_on_c,3,61,103,,,,,,,,,,,,,,,,,,,,,,,
5,41825, Note_on_c,3,61,0,,,,,,,,,,,,,,,,,,,,,,,
5,41856, Note_on_c,3,54,107,,,,,,,,,,,,,,,,,,,,,,,
5,41856, Note_on_c,3,57,110,,,,,,,,,,,,,,,,,,,,,,,
5,41856, Note_on_c,3,61,112,,,,,,,,,,,,,,,,,,,,,,,
5,41856, Note_on_c,3,66,95,,,,,,,,,,,,,,,,,,,,,,,
5,41857, Control_c,3,64,0,,,,,,,,,,,,,,,,,,,,,,,
5,41901, Control_c,3,64,127,,,,,,,,,,,,,,,,,,,,,,,
5,41919, Note_on_c,3,57,0,,,,,,,,,,,,,,,,,,,,,,,
5,41919, Note_on_c,3,61,0,,,,,,,,,,,,,,,,,,,,,,,
5,41924, Note_on_c,3,66,0,,,,,,,,,,,,,,,,,,,,,,,
5,41931, Note_on_c,3,54,0,,,,,,,,,,,,,,,,,,,,,,,
5,41952, Note_on_c,3,54,103,,,,,,,,,,,,,,,,,,,,,,,
5,41952, Note_on_c,3,57,104,,,,,,,,,,,,,,,,,,,,,,,
5,41952, Note_on_c,3,61,107,,,,,,,,,,,,,,,,,,,,,,,
5,41952, Note_on_c,3,66,82,,,,,,,,,,,,,,,,,,,,,,,
5,41976, Note_on_c,3,57,0,,,,,,,,,,,,,,,,,,,,,,,
5,41982, Note_on_c,3,61,0,,,,,,,,,,,,,,,,,,,,,,,
5,42000, Note_on_c,3,57,85,,,,,,,,,,,,,,,,,,,,,,,
5,42000, Note_on_c,3,61,46,,,,,,,,,,,,,,,,,,,,,,,
5,42009, Note_on_c,3,61,0,,,,,,,,,,,,,,,,,,,,,,,
5,42019, Note_on_c,3,54,0,,,,,,,,,,,,,,,,,,,,,,,
5,42022, Note_on_c,3,66,0,,,,,,,,,,,,,,,,,,,,,,,
5,42028, Note_on_c,3,57,0,,,,,,,,,,,,,,,,,,,,,,,
5,42042, Control_c,3,64,0,,,,,,,,,,,,,,,,,,,,,,,
5,42048, Note_on_c,3,54,103,,,,,,,,,,,,,,,,,,,,,,,
5,42048, Note_on_c,3,57,98,,,,,,,,,,,,,,,,,,,,,,,
5,42048, Note_on_c,3,61,112,,,,,,,,,,,,,,,,,,,,,,,
5,42048, Note_on_c,3,66,88,,,,,,,,,,,,,,,,,,,,,,,
5,42072, Note_on_c,3,57,0,,,,,,,,,,,,,,,,,,,,,,,
5,42079, Note_on_c,3,61,0,,,,,,,,,,,,,,,,,,,,,,,
5,42082, Control_c,3,64,127,,,,,,,,,,,,,,,,,,,,,,,
5,42096, Note_on_c,3,57,78,,,,,,,,,,,,,,,,,,,,,,,
5,42096, Note_on_c,3,61,58,,,,,,,,,,,,,,,,,,,,,,,
5,42108, Note_on_c,3,61,0,,,,,,,,,,,,,,,,,,,,,,,
5,42118, Note_on_c,3,57,0,,,,,,,,,,,,,,,,,,,,,,,
5,42123, Note_on_c,3,66,0,,,,,,,,,,,,,,,,,,,,,,,
5,42144, Note_on_c,3,57,80,,,,,,,,,,,,,,,,,,,,,,,
5,42144, Note_on_c,3,61,92,,,,,,,,,,,,,,,,,,,,,,,
5,42144, Note_on_c,3,66,70,,,,,,,,,,,,,,,,,,,,,,,
5,42153, Note_on_c,3,54,0,,,,,,,,,,,,,,,,,,,,,,,
5,42166, Note_on_c,3,57,0,,,,,,,,,,,,,,,,,,,,,,,
5,42166, Note_on_c,3,61,0,,,,,,,,,,,,,,,,,,,,,,,
5,42166, Note_on_c,3,66,0,,,,,,,,,,,,,,,,,,,,,,,
5,42192, Note_on_c,3,54,103,,,,,,,,,,,,,,,,,,,,,,,
5,42192, Note_on_c,3,57,93,,,,,,,,,,,,,,,,,,,,,,,
5,42192, Note_on_c,3,61,103,,,,,,,,,,,,,,,,,,,,,,,
5,42192, Note_on_c,3,66,95,,,,,,,,,,,,,,,,,,,,,,,
5,42196, Control_c,3,64,0,,,,,,,,,,,,,,,,,,,,,,,
5,42230, Control_c,3,64,127,,,,,,,,,,,,,,,,,,,,,,,
5,42255, Note_on_c,3,57,0,,,,,,,,,,,,,,,,,,,,,,,
5,42258, Note_on_c,3,61,0,,,,,,,,,,,,,,,,,,,,,,,
5,42261, Note_on_c,3,66,0,,,,,,,,,,,,,,,,,,,,,,,
5,42263, Note_on_c,3,54,0,,,,,,,,,,,,,,,,,,,,,,,
5,42288, Note_on_c,3,54,103,,,,,,,,,,,,,,,,,,,,,,,
5,42288, Note_on_c,3,57,104,,,,,,,,,,,,,,,,,,,,,,,
5,42288, Note_on_c,3,61,107,,,,,,,,,,,,,,,,,,,,,,,
5,42288, Note_on_c,3,66,99,,,,,,,,,,,,,,,,,,,,,,,
5,42310, Control_c,3,64,0,,,,,,,,,,,,,,,,,,,,,,,
5,42336, Control_c,3,64,127,,,,,,,,,,,,,,,,,,,,,,,
5,42360, Note_on_c,3,61,0,,,,,,,,,,,,,,,,,,,,,,,
5,42360, Note_on_c,3,66,0,,,,,,,,,,,,,,,,,,,,,,,
5,42368, Note_on_c,3,57,0,,,,,,,,,,,,,,,,,,,,,,,
5,42384, Note_on_c,3,57,91,,,,,,,,,,,,,,,,,,,,,,,
5,42384, Note_on_c,3,61,103,,,,,,,,,,,,,,,,,,,,,,,
5,42384, Note_on_c,3,66,95,,,,,,,,,,,,,,,,,,,,,,,
5,42389, Note_on_c,3,54,0,,,,,,,,,,,,,,,,,,,,,,,
5,42419, Note_on_c,3,57,0,,,,,,,,,,,,,,,,,,,,,,,
5,42432, Note_on_c,3,54,107,,,,,,,,,,,,,,,,,,,,,,,
5,42445, Note_on_c,3,61,0,,,,,,,,,,,,,,,,,,,,,,,
5,42448, Note_on_c,3,66,0,,,,,,,,,,,,,,,,,,,,,,,
5,42480, Note_on_c,3,57,118,,,,,,,,,,,,,,,,,,,,,,,
5,42480, Note_on_c,3,61,112,,,,,,,,,,,,,,,,,,,,,,,
5,42480, Note_on_c,3,66,99,,,,,,,,,,,,,,,,,,,,,,,
5,42504, Note_on_c,3,54,0,,,,,,,,,,,,,,,,,,,,,,,
5,42522, Note_on_c,3,57,0,,,,,,,,,,,,,,,,,,,,,,,
5,42525, Note_on_c,3,61,0,,,,,,,,,,,,,,,,,,,,,,,
5,42528, Note_on_c,3,54,107,,,,,,,,,,,,,,,,,,,,,,,
5,42548, Note_on_c,3,66,0,,,,,,,,,,,,,,,,,,,,,,,
5,42560, Note_on_c,3,54,0,,,,,,,,,,,,,,,,,,,,,,,
5,42576, Note_on_c,3,57,85,,,,,,,,,,,,,,,,,,,,,,,
5,42594, Note_on_c,3,57,0,,,,,,,,,,,,,,,,,,,,,,,
5,42609, Control_c,3,64,0,,,,,,,,,,,,,,,,,,,,,,,
5,42624, Note_on_c,3,50,127,,,,,,,,,,,,,,,,,,,,,,,
5,42624, Note_on_c,3,57,118,,,,,,,,,,,,,,,,,,,,,,,
5,42624, Note_on_c,3,62,127,,,,,,,,,,,,,,,,,,,,,,,
5,42624, Note_on_c,3,66,107,,,,,,,,,,,,,,,,,,,,,,,
5,42657, Control_c,3,64,127,,,,,,,,,,,,,,,,,,,,,,,
5,42689, Note_on_c,3,57,0,,,,,,,,,,,,,,,,,,,,,,,
5,42689, Note_on_c,3,62,0,,,,,,,,,,,,,,,,,,,,,,,
5,42692, Note_on_c,3,66,0,,,,,,,,,,,,,,,,,,,,,,,
5,42711, Note_on_c,3,50,0,,,,,,,,,,,,,,,,,,,,,,,
5,42720, Note_on_c,3,57,114,,,,,,,,,,,,,,,,,,,,,,,
5,42720, Note_on_c,3,62,127,,,,,,,,,,,,,,,,,,,,,,,
5,42720, Note_on_c,3,66,92,,,,,,,,,,,,,,,,,,,,,,,
5,42745, Note_on_c,3,57,0,,,,,,,,,,,,,,,,,,,,,,,
5,42754, Note_on_c,3,62,0,,,,,,,,,,,,,,,,,,,,,,,
5,42768, Note_on_c,3,50,118,,,,,,,,,,,,,,,,,,,,,,,
5,42768, Note_on_c,3,57,67,,,,,,,,,,,,,,,,,,,,,,,
5,42784, Note_on_c,3,66,0,,,,,,,,,,,,,,,,,,,,,,,
5,42791, Note_on_c,3,57,0,,,,,,,,,,,,,,,,,,,,,,,
5,42800, Note_on_c,3,50,0,,,,,,,,,,,,,,,,,,,,,,,
5,42806, Control_c,3,64,0,,,,,,,,,,,,,,,,,,,,,,,
5,42816, Note_on_c,3,50,122,,,,,,,,,,,,,,,,,,,,,,,
5,42816, Note_on_c,3,57,107,,,,,,,,,,,,,,,,,,,,,,,
5,42816, Note_on_c,3,62,127,,,,,,,,,,,,,,,,,,,,,,,
5,42816, Note_on_c,3,66,99,,,,,,,,,,,,,,,,,,,,,,,
5,42841, Control_c,3,64,127,,,,,,,,,,,,,,,,,,,,,,,
5,42888, Note_on_c,3,57,0,,,,,,,,,,,,,,,,,,,,,,,
5,42891, Note_on_c,3,62,0,,,,,,,,,,,,,,,,,,,,,,,
5,42891, Note_on_c,3,66,0,,,,,,,,,,,,,,,,,,,,,,,
5,42912, Note_on_c,3,57,114,,,,,,,,,,,,,,,,,,,,,,,
5,42912, Note_on_c,3,62,118,,,,,,,,,,,,,,,,,,,,,,,
5,42912, Note_on_c,3,66,82,,,,,,,,,,,,,,,,,,,,,,,
5,42914, Note_on_c,3,50,0,,,,,,,,,,,,,,,,,,,,,,,
5,42937, Note_on_c,3,57,0,,,,,,,,,,,,,,,,,,,,,,,
5,42943, Note_on_c,3,62,0,,,,,,,,,,,,,,,,,,,,,,,
5,42948, Note_on_c,3,66,0,,,,,,,,,,,,,,,,,,,,,,,
5,42960, Note_on_c,3,50,110,,,,,,,,,,,,,,,,,,,,,,,
5,42960, Note_on_c,3,59,85,,,,,,,,,,,,,,,,,,,,,,,
5,42989, Note_on_c,3,59,0,,,,,,,,,,,,,,,,,,,,,,,
5,42995, Note_on_c,3,50,0,,,,,,,,,,,,,,,,,,,,,,,
5,43004, Control_c,3,64,0,,,,,,,,,,,,,,,,,,,,,,,
5,43008, Note_on_c,3,52,127,,,,,,,,,,,,,,,,,,,,,,,
5,43008, Note_on_c,3,59,101,,,,,,,,,,,,,,,,,,,,,,,
5,43008, Note_on_c,3,64,127,,,,,,,,,,,,,,,,,,,,,,,
5,43008, Note_on_c,3,68,99,,,,,,,,,,,,,,,,,,,,,,,
5,43044, Control_c,3,64,127,,,,,,,,,,,,,,,,,,,,,,,
5,43074, Note_on_c,3,64,0,,,,,,,,,,,,,,,,,,,,,,,
5,43075, Note_on_c,3,68,0,,,,,,,,,,,,,,,,,,,,,,,
5,43080, Note_on_c,3,59,0,,,,,,,,,,,,,,,,,,,,,,,
5,43104, Note_on_c,3,59,98,,,,,,,,,,,,,,,,,,,,,,,
5,43104, Note_on_c,3,64,114,,,,,,,,,,,,,,,,,,,,,,,
5,43104, Note_on_c,3,68,95,,,,,,,,,,,,,,,,,,,,,,,
5,43109, Note_on_c,3,52,0,,,,,,,,,,,,,,,,,,,,,,,
5,43126, Note_on_c,3,59,0,,,,,,,,,,,,,,,,,,,,,,,
5,43130, Note_on_c,3,64,0,,,,,,,,,,,,,,,,,,,,,,,
5,43133, Note_on_c,3,68,0,,,,,,,,,,,,,,,,,,,,,,,
5,43152, Note_on_c,3,52,107,,,,,,,,,,,,,,,,,,,,,,,
5,43152, Note_on_c,3,59,101,,,,,,,,,,,,,,,,,,,,,,,
5,43152, Note_on_c,3,64,76,,,,,,,,,,,,,,,,,,,,,,,
5,43152, Note_on_c,3,68,70,,,,,,,,,,,,,,,,,,,,,,,
5,43160, Note_on_c,3,64,0,,,,,,,,,,,,,,,,,,,,,,,
5,43160, Note_on_c,3,68,0,,,,,,,,,,,,,,,,,,,,,,,
5,43179, Note_on_c,3,52,0,,,,,,,,,,,,,,,,,,,,,,,
5,43182, Note_on_c,3,59,0,,,,,,,,,,,,,,,,,,,,,,,
5,43185, Control_c,3,64,0,,,,,,,,,,,,,,,,,,,,,,,
5,43200, Note_on_c,3,52,118,,,,,,,,,,,,,,,,,,,,,,,
5,43200, Note_on_c,3,59,83,,,,,,,,,,,,,,,,,,,,,,,
5,43200, Note_on_c,3,64,110,,,,,,,,,,,,,,,,,,,,,,,
5,43200, Note_on_c,3,68,80,,,,,,,,,,,,,,,,,,,,,,,
5,43215, Note_on_c,3,59,0,,,,,,,,,,,,,,,,,,,,,,,
5,43216, Control_c,3,64,127,,,,,,,,,,,,,,,,,,,,,,,
5,43219, Note_on_c,3,68,0,,,,,,,,,,,,,,,,,,,,,,,
5,43223, Note_on_c,3,64,0,,,,,,,,,,,,,,,,,,,,,,,
5,43248, Note_on_c,3,59,114,,,,,,,,,,,,,,,,,,,,,,,
5,43248, Note_on_c,3,64,127,,,,,,,,,,,,,,,,,,,,,,,
5,43248, Note_on_c,3,68,103,,,,,,,,,,,,,,,,,,,,,,,
5,43270, Note_on_c,3,52,0,,,,,,,,,,,,,,,,,,,,,,,
5,43283, Note_on_c,3,64,0,,,,,,,,,,,,,,,,,,,,,,,
5,43296, Note_on_c,3,52,122,,,,,,,,,,,,,,,,,,,,,,,
5,43296, Note_on_c,3,68,0,,,,,,,,,,,,,,,,,,,,,,,
5,43328, Note_on_c,3,52,0,,,,,,,,,,,,,,,,,,,,,,,
5,43329, Note_on_c,3,59,0,,,,,,,,,,,,,,,,,,,,,,,
5,43344, Note_on_c,3,61,37,,,,,,,,,,,,,,,,,,,,,,,
5,43362, Note_on_c,3,61,0,,,,,,,,,,,,,,,,,,,,,,,
5,43378, Control_c,3,64,0,,,,,,,,,,,,,,,,,,,,,,,
5,43392, Note_on_c,3,57,127,,,,,,,,,,,,,,,,,,,,,,,
5,43392, Note_on_c,3,61,107,,,,,,,,,,,,,,,,,,,,,,,
5,43392, Note_on_c,3,64,127,,,,,,,,,,,,,,,,,,,,,,,
5,43392, Note_on_c,3,69,107,,,,,,,,,,,,,,,,,,,,,,,
5,43422, Control_c,3,64,127,,,,,,,,,,,,,,,,,,,,,,,
5,43455, Note_on_c,3,61,0,,,,,,,,,,,,,,,,,,,,,,,
5,43465, Note_on_c,3,69,0,,,,,,,,,,,,,,,,,,,,,,,
5,43466, Note_on_c,3,64,0,,,,,,,,,,,,,,,,,,,,,,,
5,43488, Note_on_c,3,61,95,,,,,,,,,,,,,,,,,,,,,,,
5,43488, Note_on_c,3,64,98,,,,,,,,,,,,,,,,,,,,,,,
5,43488, Note_on_c,3,69,87,,,,,,,,,,,,,,,,,,,,,,,
5,43492, Note_on_c,3,57,0,,,,,,,,,,,,,,,,,,,,,,,
5,43515, Note_on_c,3,61,0,,,,,,,,,,,,,,,,,,,,,,,
5,43536, Note_on_c,3,57,101,,,,,,,,,,,,,,,,,,,,,,,
5,43536, Note_on_c,3,61,53,,,,,,,,,,,,,,,,,,,,,,,
5,43553, Note_on_c,3,61,0,,,,,,,,,,,,,,,,,,,,,,,
5,43558, Note_on_c,3,64,0,,,,,,,,,,,,,,,,,,,,,,,
5,43559, Note_on_c,3,69,0,,,,,,,,,,,,,,,,,,,,,,,
5,43568, Note_on_c,3,57,0,,,,,,,,,,,,,,,,,,,,,,,
5,43579, Control_c,3,64,0,,,,,,,,,,,,,,,,,,,,,,,
5,43584, Note_on_c,3,56,127,,,,,,,,,,,,,,,,,,,,,,,
5,43584, Note_on_c,3,61,107,,,,,,,,,,,,,,,,,,,,,,,
5,43584, Note_on_c,3,68,107,,,,,,,,,,,,,,,,,,,,,,,
5,43619, Control_c,3,64,127,,,,,,,,,,,,,,,,,,,,,,,
5,43647, Note_on_c,3,61,0,,,,,,,,,,,,,,,,,,,,,,,
5,43668, Note_on_c,3,56,0,,,,,,,,,,,,,,,,,,,,,,,
5,43680, Note_on_c,3,61,86,,,,,,,,,,,,,,,,,,,,,,,
5,43688, Note_on_c,3,68,0,,,,,,,,,,,,,,,,,,,,,,,
5,43708, Note_on_c,3,61,0,,,,,,,,,,,,,,,,,,,,,,,
5,43728, Note_on_c,3,56,107,,,,,,,,,,,,,,,,,,,,,,,
5,43728, Note_on_c,3,57,83,,,,,,,,,,,,,,,,,,,,,,,
5,43753, Note_on_c,3,56,0,,,,,,,,,,,,,,,,,,,,,,,
5,43755, Note_on_c,3,57,0,,,,,,,,,,,,,,,,,,,,,,,
5,43770, Control_c,3,64,0,,,,,,,,,,,,,,,,,,,,,,,
5,43776, Note_on_c,3,54,112,,,,,,,,,,,,,,,,,,,,,,,
5,43776, Note_on_c,3,57,98,,,,,,,,,,,,,,,,,,,,,,,
5,43776, Note_on_c,3,61,107,,,,,,,,,,,,,,,,,,,,,,,
5,43776, Note_on_c,3,66,103,,,,,,,,,,,,,,,,,,,,,,,
5,43819, Control_c,3,64,127,,,,,,,,,,,,,,,,,,,,,,,
5,43833, Note_on_c,3,57,0,,,,,,,,,,,,,,,,,,,,,,,
5,43843, Note_on_c,3,61,0,,,,,,,,,,,,,,,,,,,,,,,
5,43867, Note_on_c,3,54,0,,,,,,,,,,,,,,,,,,,,,,,
5,43872, Note_on_c,3,57,104,,,,,,,,,,,,,,,,,,,,,,,
5,43872, Note_on_c,3,61,80,,,,,,,,,,,,,,,,,,,,,,,
5,43894, Note_on_c,3,57,0,,,,,,,,,,,,,,,,,,,,,,,
5,43912, Note_on_c,3,61,0,,,,,,,,,,,,,,,,,,,,,,,
5,43920, Note_on_c,3,54,95,,,,,,,,,,,,,,,,,,,,,,,
5,43920, Note_on_c,3,57,87,,,,,,,,,,,,,,,,,,,,,,,
5,43920, Note_on_c,3,61,37,,,,,,,,,,,,,,,,,,,,,,,
5,43934, Note_on_c,3,61,0,,,,,,,,,,,,,,,,,,,,,,,
5,43935, Note_on_c,3,54,0,,,,,,,,,,,,,,,,,,,,,,,
5,43937, Note_on_c,3,66,0,,,,,,,,,,,,,,,,,,,,,,,
5,43945, Note_on_c,3,57,0,,,,,,,,,,,,,,,,,,,,,,,
5,43964, Control_c,3,64,0,,,,,,,,,,,,,,,,,,,,,,,
5,43968, Note_on_c,3,45,114,,,,,,,,,,,,,,,,,,,,,,,
5,43968, Note_on_c,3,57,104,,,,,,,,,,,,,,,,,,,,,,,
5,43968, Note_on_c,3,61,99,,,,,,,,,,,,,,,,,,,,,,,
5,43968, Note_on_c,3,64,107,,,,,,,,,,,,,,,,,,,,,,,
5,43968, Note_on_c,3,69,104,,,,,,,,,,,,,,,,,,,,,,,
5,44009, Control_c,3,64,127,,,,,,,,,,,,,,,,,,,,,,,
5,44032, Note_on_c,3,57,0,,,,,,,,,,,,,,,,,,,,,,,
5,44038, Note_on_c,3,61,0,,,,,,,,,,,,,,,,,,,,,,,
5,44038, Note_on_c,3,69,0,,,,,,,,,,,,,,,,,,,,,,,
5,44043, Note_on_c,3,64,0,,,,,,,,,,,,,,,,,,,,,,,
5,44049, Note_on_c,3,45,0,,,,,,,,,,,,,,,,,,,,,,,
5,44064, Note_on_c,3,57,104,,,,,,,,,,,,,,,,,,,,,,,
5,44064, Note_on_c,3,61,88,,,,,,,,,,,,,,,,,,,,,,,
5,44064, Note_on_c,3,64,91,,,,,,,,,,,,,,,,,,,,,,,
5,44064, Note_on_c,3,69,88,,,,,,,,,,,,,,,,,,,,,,,
5,44079, Note_on_c,3,57,0,,,,,,,,,,,,,,,,,,,,,,,
5,44082, Note_on_c,3,61,0,,,,,,,,,,,,,,,,,,,,,,,
5,44082, Note_on_c,3,64,0,,,,,,,,,,,,,,,,,,,,,,,
5,44087, Note_on_c,3,69,0,,,,,,,,,,,,,,,,,,,,,,,
5,44112, Note_on_c,3,59,76,,,,,,,,,,,,,,,,,,,,,,,
5,44128, Note_on_c,3,59,0,,,,,,,,,,,,,,,,,,,,,,,
5,44158, Control_c,3,64,0,,,,,,,,,,,,,,,,,,,,,,,
5,44160, Note_on_c,3,59,114,,,,,,,,,,,,,,,,,,,,,,,
5,44160, Note_on_c,3,64,127,,,,,,,,,,,,,,,,,,,,,,,
5,44160, Note_on_c,3,66,112,,,,,,,,,,,,,,,,,,,,,,,
5,44160, Note_on_c,3,71,110,,,,,,,,,,,,,,,,,,,,,,,
5,44197, Control_c,3,64,127,,,,,,,,,,,,,,,,,,,,,,,
5,44237, Note_on_c,3,59,0,,,,,,,,,,,,,,,,,,,,,,,
5,44256, Note_on_c,3,59,80,,,,,,,,,,,,,,,,,,,,,,,
5,44275, Note_on_c,3,66,0,,,,,,,,,,,,,,,,,,,,,,,
5,44277, Note_on_c,3,64,0,,,,,,,,,,,,,,,,,,,,,,,
5,44279, Note_on_c,3,71,0,,,,,,,,,,,,,,,,,,,,,,,
5,44282, Note_on_c,3,59,0,,,,,,,,,,,,,,,,,,,,,,,
5,44304, Note_on_c,3,59,83,,,,,,,,,,,,,,,,,,,,,,,
5,44304, Note_on_c,3,64,85,,,,,,,,,,,,,,,,,,,,,,,
5,44304, Note_on_c,3,66,67,,,,,,,,,,,,,,,,,,,,,,,
5,44304, Note_on_c,3,71,59,,,,,,,,,,,,,,,,,,,,,,,
5,44329, Note_on_c,3,66,0,,,,,,,,,,,,,,,,,,,,,,,
5,44332, Note_on_c,3,71,0,,,,,,,,,,,,,,,,,,,,,,,
5,44334, Note_on_c,3,64,0,,,,,,,,,,,,,,,,,,,,,,,
5,44336, Note_on_c,3,59,0,,,,,,,,,,,,,,,,,,,,,,,
5,44352, Note_on_c,3,59,114,,,,,,,,,,,,,,,,,,,,,,,
5,44352, Note_on_c,3,64,127,,,,,,,,,,,,,,,,,,,,,,,
5,44352, Note_on_c,3,66,107,,,,,,,,,,,,,,,,,,,,,,,
5,44352, Note_on_c,3,71,110,,,,,,,,,,,,,,,,,,,,,,,
5,44361, Control_c,3,64,0,,,,,,,,,,,,,,,,,,,,,,,
5,44396, Control_c,3,64,127,,,,,,,,,,,,,,,,,,,,,,,
5,44423, Note_on_c,3,64,0,,,,,,,,,,,,,,,,,,,,,,,
5,44427, Note_on_c,3,66,0,,,,,,,,,,,,,,,,,,,,,,,
5,44430, Note_on_c,3,71,0,,,,,,,,,,,,,,,,,,,,,,,
5,44435, Note_on_c,3,59,0,,,,,,,,,,,,,,,,,,,,,,,
5,44448, Note_on_c,3,59,76,,,,,,,,,,,,,,,,,,,,,,,
5,44448, Note_on_c,3,64,98,,,,,,,,,,,,,,,,,,,,,,,
5,44448, Note_on_c,3,66,80,,,,,,,,,,,,,,,,,,,,,,,
5,44448, Note_on_c,3,71,76,,,,,,,,,,,,,,,,,,,,,,,
5,44466, Note_on_c,3,59,0,,,,,,,,,,,,,,,,,,,,,,,
5,44468, Note_on_c,3,71,0,,,,,,,,,,,,,,,,,,,,,,,
5,44471, Note_on_c,3,66,0,,,,,,,,,,,,,,,,,,,,,,,
5,44472, Note_on_c,3,64,0,,,,,,,,,,,,,,,,,,,,,,,
5,44496, Note_on_c,3,59,104,,,,,,,,,,,,,,,,,,,,,,,
5,44496, Note_on_c,3,64,122,,,,,,,,,,,,,,,,,,,,,,,
5,44496, Note_on_c,3,66,99,,,,,,,,,,,,,,,,,,,,,,,
5,44496, Note_on_c,3,71,110,,,,,,,,,,,,,,,,,,,,,,,
5,44499, Control_c,3,64,0,,,,,,,,,,,,,,,,,,,,,,,
5,44529, Control_c,3,64,127,,,,,,,,,,,,,,,,,,,,,,,
5,44557, Note_on_c,3,71,0,,,,,,,,,,,,,,,,,,,,,,,
5,44558, Note_on_c,3,66,0,,,,,,,,,,,,,,,,,,,,,,,
5,44560, Note_on_c,3,64,0,,,,,,,,,,,,,,,,,,,,,,,
5,44562, Note_on_c,3,59,0,,,,,,,,,,,,,,,,,,,,,,,
5,44587, Control_c,3,64,0,,,,,,,,,,,,,,,,,,,,,,,
5,44592, Note_on_c,3,59,118,,,,,,,,,,,,,,,,,,,,,,,
5,44592, Note_on_c,3,64,127,,,,,,,,,,,,,,,,,,,,,,,
5,44592, Note_on_c,3,66,103,,,,,,,,,,,,,,,,,,,,,,,
5,44592, Note_on_c,3,71,107,,,,,,,,,,,,,,,,,,,,,,,
5,44618, Control_c,3,64,127,,,,,,,,,,,,,,,,,,,,,,,
5,44665, Note_on_c,3,71,0,,,,,,,,,,,,,,,,,,,,,,,
5,44669, Note_on_c,3,59,0,,,,,,,,,,,,,,,,,,,,,,,
5,44671, Note_on_c,3,64,0,,,,,,,,,,,,,,,,,,,,,,,
5,44672, Note_on_c,3,66,0,,,,,,,,,,,,,,,,,,,,,,,
5,44688, Note_on_c,3,59,110,,,,,,,,,,,,,,,,,,,,,,,
5,44688, Note_on_c,3,64,122,,,,,,,,,,,,,,,,,,,,,,,
5,44688, Note_on_c,3,66,92,,,,,,,,,,,,,,,,,,,,,,,
5,44688, Note_on_c,3,71,101,,,,,,,,,,,,,,,,,,,,,,,
5,44700, Control_c,3,64,0,,,,,,,,,,,,,,,,,,,,,,,
5,44731, Control_c,3,64,127,,,,,,,,,,,,,,,,,,,,,,,
5,44761, Note_on_c,3,59,0,,,,,,,,,,,,,,,,,,,,,,,
5,44771, Note_on_c,3,64,0,,,,,,,,,,,,,,,,,,,,,,,
5,44784, Note_on_c,3,59,101,,,,,,,,,,,,,,,,,,,,,,,
5,44784, Note_on_c,3,64,87,,,,,,,,,,,,,,,,,,,,,,,
5,44801, Note_on_c,3,71,0,,,,,,,,,,,,,,,,,,,,,,,
5,44802, Note_on_c,3,64,0,,,,,,,,,,,,,,,,,,,,,,,
5,44805, Note_on_c,3,66,0,,,,,,,,,,,,,,,,,,,,,,,
5,44808, Note_on_c,3,59,0,,,,,,,,,,,,,,,,,,,,,,,
5,44832, Note_on_c,3,59,95,,,,,,,,,,,,,,,,,,,,,,,
5,44832, Note_on_c,3,64,122,,,,,,,,,,,,,,,,,,,,,,,
5,44832, Note_on_c,3,66,103,,,,,,,,,,,,,,,,,,,,,,,
5,44832, Note_on_c,3,71,110,,,,,,,,,,,,,,,,,,,,,,,
5,44860, Note_on_c,3,59,0,,,,,,,,,,,,,,,,,,,,,,,
5,44880, Note_on_c,3,59,68,,,,,,,,,,,,,,,,,,,,,,,
5,44895, Note_on_c,3,64,0,,,,,,,,,,,,,,,,,,,,,,,
5,44896, Note_on_c,3,66,0,,,,,,,,,,,,,,,,,,,,,,,
5,44898, Note_on_c,3,71,0,,,,,,,,,,,,,,,,,,,,,,,
5,44908, Note_on_c,3,59,0,,,,,,,,,,,,,,,,,,,,,,,
5,44919, Control_c,3,64,0,,,,,,,,,,,,,,,,,,,,,,,
5,44928, Note_on_c,3,59,107,,,,,,,,,,,,,,,,,,,,,,,
5,44928, Note_on_c,3,64,127,,,,,,,,,,,,,,,,,,,,,,,
5,44928, Note_on_c,3,66,107,,,,,,,,,,,,,,,,,,,,,,,
5,44928, Note_on_c,3,71,114,,,,,,,,,,,,,,,,,,,,,,,
5,44959, Control_c,3,64,127,,,,,,,,,,,,,,,,,,,,,,,
5,44995, Note_on_c,3,71,0,,,,,,,,,,,,,,,,,,,,,,,
5,45001, Note_on_c,3,59,0,,,,,,,,,,,,,,,,,,,,,,,
5,45002, Note_on_c,3,64,0,,,,,,,,,,,,,,,,,,,,,,,
5,45002, Note_on_c,3,66,0,,,,,,,,,,,,,,,,,,,,,,,
5,45024, Note_on_c,3,59,85,,,,,,,,,,,,,,,,,,,,,,,
5,45024, Note_on_c,3,64,93,,,,,,,,,,,,,,,,,,,,,,,
5,45024, Note_on_c,3,66,70,,,,,,,,,,,,,,,,,,,,,,,
5,45024, Note_on_c,3,71,76,,,,,,,,,,,,,,,,,,,,,,,
5,45043, Note_on_c,3,59,0,,,,,,,,,,,,,,,,,,,,,,,
5,45047, Note_on_c,3,66,0,,,,,,,,,,,,,,,,,,,,,,,
5,45049, Note_on_c,3,64,0,,,,,,,,,,,,,,,,,,,,,,,
5,45056, Note_on_c,3,71,0,,,,,,,,,,,,,,,,,,,,,,,
5,45072, Note_on_c,3,59,78,,,,,,,,,,,,,,,,,,,,,,,
5,45072, Note_on_c,3,64,83,,,,,,,,,,,,,,,,,,,,,,,
5,45072, Note_on_c,3,66,67,,,,,,,,,,,,,,,,,,,,,,,
5,45089, Note_on_c,3,66,0,,,,,,,,,,,,,,,,,,,,,,,
5,45090, Note_on_c,3,64,0,,,,,,,,,,,,,,,,,,,,,,,
5,45092, Note_on_c,3,59,0,,,,,,,,,,,,,,,,,,,,,,,
5,45117, Control_c,3,64,0,,,,,,,,,,,,,,,,,,,,,,,
5,45120, Note_on_c,3,59,118,,,,,,,,,,,,,,,,,,,,,,,
5,45120, Note_on_c,3,64,127,,,,,,,,,,,,,,,,,,,,,,,
5,45120, Note_on_c,3,66,112,,,,,,,,,,,,,,,,,,,,,,,
5,45120, Note_on_c,3,71,110,,,,,,,,,,,,,,,,,,,,,,,
5,45157, Control_c,3,64,127,,,,,,,,,,,,,,,,,,,,,,,
5,45192, Note_on_c,3,64,0,,,,,,,,,,,,,,,,,,,,,,,
5,45193, Note_on_c,3,66,0,,,,,,,,,,,,,,,,,,,,,,,
5,45194, Note_on_c,3,59,0,,,,,,,,,,,,,,,,,,,,,,,
5,45195, Note_on_c,3,71,0,,,,,,,,,,,,,,,,,,,,,,,
5,45216, Note_on_c,3,59,85,,,,,,,,,,,,,,,,,,,,,,,
5,45216, Note_on_c,3,64,98,,,,,,,,,,,,,,,,,,,,,,,
5,45216, Note_on_c,3,66,61,,,,,,,,,,,,,,,,,,,,,,,
5,45216, Note_on_c,3,71,66,,,,,,,,,,,,,,,,,,,,,,,
5,45226, Note_on_c,3,71,0,,,,,,,,,,,,,,,,,,,,,,,
5,45230, Note_on_c,3,66,0,,,,,,,,,,,,,,,,,,,,,,,
5,45232, Note_on_c,3,64,0,,,,,,,,,,,,,,,,,,,,,,,
5,45236, Note_on_c,3,59,0,,,,,,,,,,,,,,,,,,,,,,,
5,45264, Note_on_c,3,59,104,,,,,,,,,,,,,,,,,,,,,,,
5,45264, Note_on_c,3,64,127,,,,,,,,,,,,,,,,,,,,,,,
5,45264, Control_c,3,64,0,,,,,,,,,,,,,,,,,,,,,,,
5,45264, Note_on_c,3,66,103,,,,,,,,,,,,,,,,,,,,,,,
5,45264, Note_on_c,3,71,114,,,,,,,,,,,,,,,,,,,,,,,
5,45298, Control_c,3,64,127,,,,,,,,,,,,,,,,,,,,,,,
5,45325, Note_on_c,3,71,0,,,,,,,,,,,,,,,,,,,,,,,
5,45329, Note_on_c,3,66,0,,,,,,,,,,,,,,,,,,,,,,,
5,45331, Note_on_c,3,59,0,,,,,,,,,,,,,,,,,,,,,,,
5,45331, Note_on_c,3,64,0,,,,,,,,,,,,,,,,,,,,,,,
5,45360, Note_on_c,3,59,118,,,,,,,,,,,,,,,,,,,,,,,
5,45360, Note_on_c,3,64,127,,,,,,,,,,,,,,,,,,,,,,,
5,45360, Note_on_c,3,66,103,,,,,,,,,,,,,,,,,,,,,,,
5,45360, Note_on_c,3,71,101,,,,,,,,,,,,,,,,,,,,,,,
5,45365, Control_c,3,64,0,,,,,,,,,,,,,,,,,,,,,,,
5,45400, Control_c,3,64,127,,,,,,,,,,,,,,,,,,,,,,,
5,45424, Note_on_c,3,71,0,,,,,,,,,,,,,,,,,,,,,,,
5,45428, Note_on_c,3,59,0,,,,,,,,,,,,,,,,,,,,,,,
5,45429, Note_on_c,3,66,0,,,,,,,,,,,,,,,,,,,,,,,
5,45431, Note_on_c,3,64,0,,,,,,,,,,,,,,,,,,,,,,,
5,45456, Note_on_c,3,59,114,,,,,,,,,,,,,,,,,,,,,,,
5,45456, Note_on_c,3,64,118,,,,,,,,,,,,,,,,,,,,,,,
5,45456, Note_on_c,3,66,92,,,,,,,,,,,,,,,,,,,,,,,
5,45456, Note_on_c,3,71,101,,,,,,,,,,,,,,,,,,,,,,,
5,45484, Control_c,3,64,0,,,,,,,,,,,,,,,,,,,,,,,
5,45519, Control_c,3,64,127,,,,,,,,,,,,,,,,,,,,,,,
5,45521, Note_on_c,3,59,0,,,,,,,,,,,,,,,,,,,,,,,
5,45527, Note_on_c,3,71,0,,,,,,,,,,,,,,,,,,,,,,,
5,45528, Note_on_c,3,66,0,,,,,,,,,,,,,,,,,,,,,,,
5,45530, Note_on_c,3,64,0,,,,,,,,,,,,,,,,,,,,,,,
5,45552, Note_on_c,3,59,95,,,,,,,,,,,,,,,,,,,,,,,
5,45552, Note_on_c,3,64,98,,,,,,,,,,,,,,,,,,,,,,,
5,45552, Note_on_c,3,66,78,,,,,,,,,,,,,,,,,,,,,,,
5,45552, Note_on_c,3,71,85,,,,,,,,,,,,,,,,,,,,,,,
5,45575, Note_on_c,3,66,0,,,,,,,,,,,,,,,,,,,,,,,
5,45577, Note_on_c,3,59,0,,,,,,,,,,,,,,,,,,,,,,,
5,45577, Note_on_c,3,64,0,,,,,,,,,,,,,,,,,,,,,,,
5,45577, Note_on_c,3,71,0,,,,,,,,,,,,,,,,,,,,,,,
5,45600, Note_on_c,3,59,107,,,,,,,,,,,,,,,,,,,,,,,
5,45600, Note_on_c,3,64,127,,,,,,,,,,,,,,,,,,,,,,,
5,45600, Note_on_c,3,66,103,,,,,,,,,,,,,,,,,,,,,,,
5,45600, Note_on_c,3,71,110,,,,,,,,,,,,,,,,,,,,,,,
5,45651, Control_c,3,64,0,,,,,,,,,,,,,,,,,,,,,,,
5,45653, Note_on_c,3,71,0,,,,,,,,,,,,,,,,,,,,,,,
5,45655, Note_on_c,3,66,0,,,,,,,,,,,,,,,,,,,,,,,
5,45656, Note_on_c,3,64,0,,,,,,,,,,,,,,,,,,,,,,,
5,45658, Note_on_c,3,59,0,,,,,,,,,,,,,,,,,,,,,,,
5,45696, Note_on_c,3,54,103,,,,,,,,,,,,,,,,,,,,,,,
5,45696, Note_on_c,3,57,118,,,,,,,,,,,,,,,,,,,,,,,
5,45696, Note_on_c,3,64,118,,,,,,,,,,,,,,,,,,,,,,,
5,45702, Control_c,3,64,127,,,,,,,,,,,,,,,,,,,,,,,
5,45772, Note_on_c,3,64,0,,,,,,,,,,,,,,,,,,,,,,,
5,45774, Note_on_c,3,54,0,,,,,,,,,,,,,,,,,,,,,,,
5,45776, Control_c,3,64,0,,,,,,,,,,,,,,,,,,,,,,,
5,45777, Note_on_c,3,57,0,,,,,,,,,,,,,,,,,,,,,,,
5,45792, Note_on_c,3,54,92,,,,,,,,,,,,,,,,,,,,,,,
5,45792, Note_on_c,3,57,110,,,,,,,,,,,,,,,,,,,,,,,
5,45792, Note_on_c,3,61,88,,,,,,,,,,,,,,,,,,,,,,,
5,45878, Note_on_c,3,54,0,,,,,,,,,,,,,,,,,,,,,,,
5,45879, Note_on_c,3,61,0,,,,,,,,,,,,,,,,,,,,,,,
5,45881, Note_on_c,3,57,0,,,,,,,,,,,,,,,,,,,,,,,
5,45888, Note_on_c,3,54,103,,,,,,,,,,,,,,,,,,,,,,,
5,45888, Note_on_c,3,57,127,,,,,,,,,,,,,,,,,,,,,,,
5,45888, Note_on_c,3,61,92,,,,,,,,,,,,,,,,,,,,,,,
5,45896, Control_c,3,64,127,,,,,,,,,,,,,,,,,,,,,,,
5,45936, Note_on_c,3,54,0,,,,,,,,,,,,,,,,,,,,,,,
5,45952, Note_on_c,3,61,0,,,,,,,,,,,,,,,,,,,,,,,
5,45957, Note_on_c,3,57,0,,,,,,,,,,,,,,,,,,,,,,,
5,45984, Note_on_c,3,54,86,,,,,,,,,,,,,,,,,,,,,,,
5,46012, Note_on_c,3,54,0,,,,,,,,,,,,,,,,,,,,,,,
5,46013, Control_c,3,64,0,,,,,,,,,,,,,,,,,,,,,,,
5,46032, Note_on_c,3,54,92,,,,,,,,,,,,,,,,,,,,,,,
5,46032, Note_on_c,3,57,114,,,,,,,,,,,,,,,,,,,,,,,
5,46032, Note_on_c,3,64,114,,,,,,,,,,,,,,,,,,,,,,,
5,46053, Control_c,3,64,127,,,,,,,,,,,,,,,,,,,,,,,
5,46082, Note_on_c,3,54,0,,,,,,,,,,,,,,,,,,,,,,,
5,46111, Note_on_c,3,57,0,,,,,,,,,,,,,,,,,,,,,,,
5,46128, Note_on_c,3,54,86,,,,,,,,,,,,,,,,,,,,,,,
5,46136, Note_on_c,3,64,0,,,,,,,,,,,,,,,,,,,,,,,
5,46157, Note_on_c,3,54,0,,,,,,,,,,,,,,,,,,,,,,,
5,46162, Control_c,3,64,0,,,,,,,,,,,,,,,,,,,,,,,
5,46176, Note_on_c,3,54,99,,,,,,,,,,,,,,,,,,,,,,,
5,46176, Note_on_c,3,57,110,,,,,,,,,,,,,,,,,,,,,,,
5,46176, Note_on_c,3,61,78,,,,,,,,,,,,,,,,,,,,,,,
5,46202, Control_c,3,64,127,,,,,,,,,,,,,,,,,,,,,,,
5,46255, Control_c,3,64,0,,,,,,,,,,,,,,,,,,,,,,,
5,46257, Note_on_c,3,54,0,,,,,,,,,,,,,,,,,,,,,,,
5,46258, Note_on_c,3,61,0,,,,,,,,,,,,,,,,,,,,,,,
5,46261, Note_on_c,3,57,0,,,,,,,,,,,,,,,,,,,,,,,
5,46272, Note_on_c,3,54,107,,,,,,,,,,,,,,,,,,,,,,,
5,46272, Note_on_c,3,57,127,,,,,,,,,,,,,,,,,,,,,,,
5,46272, Note_on_c,3,61,86,,,,,,,,,,,,,,,,,,,,,,,
5,46294, Control_c,3,64,127,,,,,,,,,,,,,,,,,,,,,,,
5,46336, Note_on_c,3,54,0,,,,,,,,,,,,,,,,,,,,,,,
5,46342, Note_on_c,3,61,0,,,,,,,,,,,,,,,,,,,,,,,
5,46352, Note_on_c,3,57,0,,,,,,,,,,,,,,,,,,,,,,,
5,46368, Note_on_c,3,54,88,,,,,,,,,,,,,,,,,,,,,,,
5,46416, Note_on_c,3,57,95,,,,,,,,,,,,,,,,,,,,,,,
5,46427, Note_on_c,3,54,0,,,,,,,,,,,,,,,,,,,,,,,
5,46448, Note_on_c,3,57,0,,,,,,,,,,,,,,,,,,,,,,,
5,46454, Control_c,3,64,0,,,,,,,,,,,,,,,,,,,,,,,
5,46464, Note_on_c,3,54,103,,,,,,,,,,,,,,,,,,,,,,,
5,46464, Note_on_c,3,57,122,,,,,,,,,,,,,,,,,,,,,,,
5,46464, Note_on_c,3,64,122,,,,,,,,,,,,,,,,,,,,,,,
5,46502, Control_c,3,64,127,,,,,,,,,,,,,,,,,,,,,,,
5,46534, Note_on_c,3,64,0,,,,,,,,,,,,,,,,,,,,,,,
5,46535, Note_on_c,3,54,0,,,,,,,,,,,,,,,,,,,,,,,
5,46539, Note_on_c,3,57,0,,,,,,,,,,,,,,,,,,,,,,,
5,46555, Control_c,3,64,0,,,,,,,,,,,,,,,,,,,,,,,
5,46560, Note_on_c,3,54,99,,,,,,,,,,,,,,,,,,,,,,,
5,46560, Note_on_c,3,57,118,,,,,,,,,,,,,,,,,,,,,,,
5,46560, Note_on_c,3,61,82,,,,,,,,,,,,,,,,,,,,,,,
5,46594, Control_c,3,64,127,,,,,,,,,,,,,,,,,,,,,,,
5,46632, Note_on_c,3,61,0,,,,,,,,,,,,,,,,,,,,,,,
5,46634, Control_c,3,64,0,,,,,,,,,,,,,,,,,,,,,,,
5,46636, Note_on_c,3,54,0,,,,,,,,,,,,,,,,,,,,,,,
5,46637, Note_on_c,3,57,0,,,,,,,,,,,,,,,,,,,,,,,
5,46656, Note_on_c,3,54,103,,,,,,,,,,,,,,,,,,,,,,,
5,46656, Note_on_c,3,57,127,,,,,,,,,,,,,,,,,,,,,,,
5,46656, Note_on_c,3,61,88,,,,,,,,,,,,,,,,,,,,,,,
5,46678, Control_c,3,64,127,,,,,,,,,,,,,,,,,,,,,,,
5,46707, Note_on_c,3,54,0,,,,,,,,,,,,,,,,,,,,,,,
5,46731, Note_on_c,3,57,0,,,,,,,,,,,,,,,,,,,,,,,
5,46731, Note_on_c,3,61,0,,,,,,,,,,,,,,,,,,,,,,,
5,46752, Note_on_c,3,54,99,,,,,,,,,,,,,,,,,,,,,,,
5,46775, Control_c,3,64,0,,,,,,,,,,,,,,,,,,,,,,,
5,46800, Note_on_c,3,57,107,,,,,,,,,,,,,,,,,,,,,,,
5,46800, Note_on_c,3,64,107,,,,,,,,,,,,,,,,,,,,,,,
5,46819, Control_c,3,64,127,,,,,,,,,,,,,,,,,,,,,,,
5,46847, Note_on_c,3,54,0,,,,,,,,,,,,,,,,,,,,,,,
5,46874, Note_on_c,3,57,0,,,,,,,,,,,,,,,,,,,,,,,
5,46892, Note_on_c,3,64,0,,,,,,,,,,,,,,,,,,,,,,,
5,46896, Note_on_c,3,54,95,,,,,,,,,,,,,,,,,,,,,,,
5,46896, Note_on_c,3,57,98,,,,,,,,,,,,,,,,,,,,,,,
5,46896, Note_on_c,3,61,86,,,,,,,,,,,,,,,,,,,,,,,
5,46925, Note_on_c,3,57,0,,,,,,,,,,,,,,,,,,,,,,,
5,46928, Note_on_c,3,54,0,,,,,,,,,,,,,,,,,,,,,,,
5,46929, Note_on_c,3,61,0,,,,,,,,,,,,,,,,,,,,,,,
5,46944, Note_on_c,3,54,99,,,,,,,,,,,,,,,,,,,,,,,
5,46944, Note_on_c,3,57,110,,,,,,,,,,,,,,,,,,,,,,,
5,46944, Note_on_c,3,61,86,,,,,,,,,,,,,,,,,,,,,,,
5,46947, Control_c,3,64,0,,,,,,,,,,,,,,,,,,,,,,,
5,46995, Control_c,3,64,127,,,,,,,,,,,,,,,,,,,,,,,
5,47015, Note_on_c,3,61,0,,,,,,,,,,,,,,,,,,,,,,,
5,47021, Note_on_c,3,54,0,,,,,,,,,,,,,,,,,,,,,,,
5,47023, Note_on_c,3,57,0,,,,,,,,,,,,,,,,,,,,,,,
5,47035, Control_c,3,64,0,,,,,,,,,,,,,,,,,,,,,,,
5,47040, Note_on_c,3,54,95,,,,,,,,,,,,,,,,,,,,,,,
5,47040, Note_on_c,3,57,114,,,,,,,,,,,,,,,,,,,,,,,
5,47040, Note_on_c,3,61,86,,,,,,,,,,,,,,,,,,,,,,,
5,47074, Control_c,3,64,127,,,,,,,,,,,,,,,,,,,,,,,
5,47107, Note_on_c,3,61,0,,,,,,,,,,,,,,,,,,,,,,,
5,47110, Note_on_c,3,54,0,,,,,,,,,,,,,,,,,,,,,,,
5,47116, Note_on_c,3,57,0,,,,,,,,,,,,,,,,,,,,,,,
5,47136, Note_on_c,3,54,95,,,,,,,,,,,,,,,,,,,,,,,
5,47163, Note_on_c,3,54,0,,,,,,,,,,,,,,,,,,,,,,,
5,47184, Note_on_c,3,54,59,,,,,,,,,,,,,,,,,,,,,,,
5,47184, Note_on_c,3,57,74,,,,,,,,,,,,,,,,,,,,,,,
5,47184, Note_on_c,3,61,74,,,,,,,,,,,,,,,,,,,,,,,
5,47203, Note_on_c,3,54,0,,,,,,,,,,,,,,,,,,,,,,,
5,47206, Note_on_c,3,57,0,,,,,,,,,,,,,,,,,,,,,,,
5,47207, Note_on_c,3,61,0,,,,,,,,,,,,,,,,,,,,,,,
5,47212, Control_c,3,64,0,,,,,,,,,,,,,,,,,,,,,,,
5,47232, Note_on_c,3,54,92,,,,,,,,,,,,,,,,,,,,,,,
5,47232, Note_on_c,3,57,110,,,,,,,,,,,,,,,,,,,,,,,
5,47232, Note_on_c,3,64,110,,,,,,,,,,,,,,,,,,,,,,,
5,47265, Control_c,3,64,127,,,,,,,,,,,,,,,,,,,,,,,
5,47301, Note_on_c,3,64,0,,,,,,,,,,,,,,,,,,,,,,,
5,47305, Note_on_c,3,54,0,,,,,,,,,,,,,,,,,,,,,,,
5,47305, Note_on_c,3,57,0,,,,,,,,,,,,,,,,,,,,,,,
5,47313, Control_c,3,64,0,,,,,,,,,,,,,,,,,,,,,,,
5,47328, Note_on_c,3,54,95,,,,,,,,,,,,,,,,,,,,,,,
5,47328, Note_on_c,3,57,114,,,,,,,,,,,,,,,,,,,,,,,
5,47328, Note_on_c,3,61,59,,,,,,,,,,,,,,,,,,,,,,,
5,47357, Control_c,3,64,127,,,,,,,,,,,,,,,,,,,,,,,
5,47397, Control_c,3,64,0,,,,,,,,,,,,,,,,,,,,,,,
5,47401, Note_on_c,3,54,0,,,,,,,,,,,,,,,,,,,,,,,
5,47403, Note_on_c,3,57,0,,,,,,,,,,,,,,,,,,,,,,,
5,47403, Note_on_c,3,61,0,,,,,,,,,,,,,,,,,,,,,,,
5,47424, Note_on_c,3,54,107,,,,,,,,,,,,,,,,,,,,,,,
5,47424, Note_on_c,3,57,127,,,,,,,,,,,,,,,,,,,,,,,
5,47424, Note_on_c,3,61,67,,,,,,,,,,,,,,,,,,,,,,,
5,47450, Control_c,3,64,127,,,,,,,,,,,,,,,,,,,,,,,
5,47486, Note_on_c,3,54,0,,,,,,,,,,,,,,,,,,,,,,,
5,47501, Note_on_c,3,61,0,,,,,,,,,,,,,,,,,,,,,,,
5,47511, Note_on_c,3,57,0,,,,,,,,,,,,,,,,,,,,,,,
5,47520, Note_on_c,3,54,95,,,,,,,,,,,,,,,,,,,,,,,
5,47547, Control_c,3,64,0,,,,,,,,,,,,,,,,,,,,,,,
5,47557, Note_on_c,3,54,0,,,,,,,,,,,,,,,,,,,,,,,
5,47568, Note_on_c,3,54,64,,,,,,,,,,,,,,,,,,,,,,,
5,47568, Note_on_c,3,57,114,,,,,,,,,,,,,,,,,,,,,,,
5,47568, Note_on_c,3,64,110,,,,,,,,,,,,,,,,,,,,,,,
5,47595, Control_c,3,64,127,,,,,,,,,,,,,,,,,,,,,,,
5,47619, Note_on_c,3,54,0,,,,,,,,,,,,,,,,,,,,,,,
5,47664, Note_on_c,3,54,92,,,,,,,,,,,,,,,,,,,,,,,
5,47678, Note_on_c,3,64,0,,,,,,,,,,,,,,,,,,,,,,,
5,47682, Note_on_c,3,57,0,,,,,,,,,,,,,,,,,,,,,,,
5,47701, Control_c,3,64,0,,,,,,,,,,,,,,,,,,,,,,,
5,47712, Note_on_c,3,57,114,,,,,,,,,,,,,,,,,,,,,,,
5,47712, Note_on_c,3,61,88,,,,,,,,,,,,,,,,,,,,,,,
5,47749, Control_c,3,64,127,,,,,,,,,,,,,,,,,,,,,,,
5,47781, Note_on_c,3,54,0,,,,,,,,,,,,,,,,,,,,,,,
5,47781, Note_on_c,3,61,0,,,,,,,,,,,,,,,,,,,,,,,
5,47787, Note_on_c,3,57,0,,,,,,,,,,,,,,,,,,,,,,,
5,47792, Control_c,3,64,0,,,,,,,,,,,,,,,,,,,,,,,
5,47808, Note_on_c,3,54,107,,,,,,,,,,,,,,,,,,,,,,,
5,47808, Note_on_c,3,57,118,,,,,,,,,,,,,,,,,,,,,,,
5,47808, Note_on_c,3,61,88,,,,,,,,,,,,,,,,,,,,,,,
5,47845, Control_c,3,64,127,,,,,,,,,,,,,,,,,,,,,,,
5,47878, Note_on_c,3,61,0,,,,,,,,,,,,,,,,,,,,,,,
5,47881, Note_on_c,3,54,0,,,,,,,,,,,,,,,,,,,,,,,
5,47889, Note_on_c,3,57,0,,,,,,,,,,,,,,,,,,,,,,,
5,47904, Note_on_c,3,54,92,,,,,,,,,,,,,,,,,,,,,,,
5,47936, Note_on_c,3,54,0,,,,,,,,,,,,,,,,,,,,,,,
5,47952, Note_on_c,3,54,50,,,,,,,,,,,,,,,,,,,,,,,
5,47952, Note_on_c,3,57,101,,,,,,,,,,,,,,,,,,,,,,,
5,47952, Note_on_c,3,61,82,,,,,,,,,,,,,,,,,,,,,,,
5,47976, Note_on_c,3,54,0,,,,,,,,,,,,,,,,,,,,,,,
5,47976, Control_c,3,64,0,,,,,,,,,,,,,,,,,,,,,,,
5,47977, Note_on_c,3,61,0,,,,,,,,,,,,,,,,,,,,,,,
5,47983, Note_on_c,3,57,0,,,,,,,,,,,,,,,,,,,,,,,
5,48000, Note_on_c,3,54,103,,,,,,,,,,,,,,,,,,,,,,,
5,48000, Note_on_c,3,57,127,,,,,,,,,,,,,,,,,,,,,,,
5,48000, Note_on_c,3,64,127,,,,,,,,,,,,,,,,,,,,,,,
5,48029, Control_c,3,64,127,,,,,,,,,,,,,,,,,,,,,,,
5,48069, Note_on_c,3,64,0,,,,,,,,,,,,,,,,,,,,,,,
5,48070, Note_on_c,3,54,0,,,,,,,,,,,,,,,,,,,,,,,
5,48078, Note_on_c,3,57,0,,,,,,,,,,,,,,,,,,,,,,,
5,48087, Control_c,3,64,0,,,,,,,,,,,,,,,,,,,,,,,
5,48096, Note_on_c,3,54,107,,,,,,,,,,,,,,,,,,,,,,,
5,48096, Note_on_c,3,57,122,,,,,,,,,,,,,,,,,,,,,,,
5,48096, Note_on_c,3,61,82,,,,,,,,,,,,,,,,,,,,,,,
5,48135, Control_c,3,64,127,,,,,,,,,,,,,,,,,,,,,,,
5,48167, Note_on_c,3,54,0,,,,,,,,,,,,,,,,,,,,,,,
5,48169, Note_on_c,3,61,0,,,,,,,,,,,,,,,,,,,,,,,
5,48172, Note_on_c,3,57,0,,,,,,,,,,,,,,,,,,,,,,,
5,48175, Control_c,3,64,0,,,,,,,,,,,,,,,,,,,,,,,
5,48192, Note_on_c,3,54,107,,,,,,,,,,,,,,,,,,,,,,,
5,48192, Note_on_c,3,57,122,,,,,,,,,,,,,,,,,,,,,,,
5,48192, Note_on_c,3,61,99,,,,,,,,,,,,,,,,,,,,,,,
5,48228, Control_c,3,64,127,,,,,,,,,,,,,,,,,,,,,,,
5,48245, Note_on_c,3,54,0,,,,,,,,,,,,,,,,,,,,,,,
5,48266, Note_on_c,3,57,0,,,,,,,,,,,,,,,,,,,,,,,
5,48272, Note_on_c,3,61,0,,,,,,,,,,,,,,,,,,,,,,,
5,48288, Note_on_c,3,54,99,,,,,,,,,,,,,,,,,,,,,,,
5,48307, Control_c,3,64,0,,,,,,,,,,,,,,,,,,,,,,,
5,48336, Note_on_c,3,57,114,,,,,,,,,,,,,,,,,,,,,,,
5,48336, Note_on_c,3,64,114,,,,,,,,,,,,,,,,,,,,,,,
5,48364, Control_c,3,64,127,,,,,,,,,,,,,,,,,,,,,,,
5,48389, Note_on_c,3,54,0,,,,,,,,,,,,,,,,,,,,,,,
5,48425, Note_on_c,3,57,0,,,,,,,,,,,,,,,,,,,,,,,
5,48432, Note_on_c,3,54,95,,,,,,,,,,,,,,,,,,,,,,,
5,48449, Note_on_c,3,64,0,,,,,,,,,,,,,,,,,,,,,,,
5,48460, Control_c,3,64,0,,,,,,,,,,,,,,,,,,,,,,,
5,48469, Note_on_c,3,54,0,,,,,,,,,,,,,,,,,,,,,,,
5,48480, Note_on_c,3,54,78,,,,,,,,,,,,,,,,,,,,,,,
5,48480, Note_on_c,3,57,110,,,,,,,,,,,,,,,,,,,,,,,
5,48480, Note_on_c,3,61,51,,,,,,,,,,,,,,,,,,,,,,,
5,48514, Control_c,3,64,127,,,,,,,,,,,,,,,,,,,,,,,
5,48552, Note_on_c,3,61,0,,,,,,,,,,,,,,,,,,,,,,,
5,48556, Note_on_c,3,54,0,,,,,,,,,,,,,,,,,,,,,,,
5,48558, Note_on_c,3,57,0,,,,,,,,,,,,,,,,,,,,,,,
5,48562, Control_c,3,64,0,,,,,,,,,,,,,,,,,,,,,,,
5,48576, Note_on_c,3,54,107,,,,,,,,,,,,,,,,,,,,,,,
5,48576, Note_on_c,3,57,127,,,,,,,,,,,,,,,,,,,,,,,
5,48576, Note_on_c,3,61,64,,,,,,,,,,,,,,,,,,,,,,,
5,48610, Control_c,3,64,127,,,,,,,,,,,,,,,,,,,,,,,
5,48639, Note_on_c,3,61,0,,,,,,,,,,,,,,,,,,,,,,,
5,48644, Note_on_c,3,54,0,,,,,,,,,,,,,,,,,,,,,,,
5,48649, Note_on_c,3,57,0,,,,,,,,,,,,,,,,,,,,,,,
5,48654, Control_c,3,64,0,,,,,,,,,,,,,,,,,,,,,,,
5,48672, Note_on_c,3,54,103,,,,,,,,,,,,,,,,,,,,,,,
5,48672, Note_on_c,3,57,110,,,,,,,,,,,,,,,,,,,,,,,
5,48672, Note_on_c,3,61,80,,,,,,,,,,,,,,,,,,,,,,,
5,48690, Control_c,3,64,127,,,,,,,,,,,,,,,,,,,,,,,
5,48699, Note_on_c,3,54,0,,,,,,,,,,,,,,,,,,,,,,,
5,48713, Note_on_c,3,61,0,,,,,,,,,,,,,,,,,,,,,,,
5,48720, Note_on_c,3,54,88,,,,,,,,,,,,,,,,,,,,,,,
5,48737, Note_on_c,3,57,0,,,,,,,,,,,,,,,,,,,,,,,
5,48754, Note_on_c,3,54,0,,,,,,,,,,,,,,,,,,,,,,,
5,48761, Control_c,3,64,0,,,,,,,,,,,,,,,,,,,,,,,
5,48768, Note_on_c,3,54,103,,,,,,,,,,,,,,,,,,,,,,,
5,48768, Note_on_c,3,57,118,,,,,,,,,,,,,,,,,,,,,,,
5,48768, Note_on_c,3,64,122,,,,,,,,,,,,,,,,,,,,,,,
5,48768, Note_on_c,3,64,118,,,,,,,,,,,,,,,,,,,,,,,
5,48774, Control_c,3,64,127,,,,,,,,,,,,,,,,,,,,,,,
5,48844, Note_on_c,3,64,0,,,,,,,,,,,,,,,,,,,,,,,
5,48846, Note_on_c,3,54,0,,,,,,,,,,,,,,,,,,,,,,,
5,48847, Note_on_c,3,64,0,,,,,,,,,,,,,,,,,,,,,,,
5,48848, Control_c,3,64,0,,,,,,,,,,,,,,,,,,,,,,,
5,48849, Note_on_c,3,57,0,,,,,,,,,,,,,,,,,,,,,,,
5,48864, Note_on_c,3,54,92,,,,,,,,,,,,,,,,,,,,,,,
5,48864, Note_on_c,3,57,110,,,,,,,,,,,,,,,,,,,,,,,
5,48864, Note_on_c,3,61,88,,,,,,,,,,,,,,,,,,,,,,,
5,48950, Note_on_c,3,54,0,,,,,,,,,,,,,,,,,,,,,,,
5,48951, Note_on_c,3,61,0,,,,,,,,,,,,,,,,,,,,,,,
5,48953, Note_on_c,3,57,0,,,,,,,,,,,,,,,,,,,,,,,
5,48960, Note_on_c,3,54,103,,,,,,,,,,,,,,,,,,,,,,,
5,48960, Note_on_c,3,57,127,,,,,,,,,,,,,,,,,,,,,,,
5,48960, Note_on_c,3,61,92,,,,,,,,,,,,,,,,,,,,,,,
5,48968, Control_c,3,64,127,,,,,,,,,,,,,,,,,,,,,,,
5,49008, Note_on_c,3,54,0,,,,,,,,,,,,,,,,,,,,,,,
5,49024, Note_on_c,3,61,0,,,,,,,,,,,,,,,,,,,,,,,
5,49029, Note_on_c,3,57,0,,,,,,,,,,,,,,,,,,,,,,,
5,49056, Note_on_c,3,54,86,,,,,,,,,,,,,,,,,,,,,,,
5,49084, Note_on_c,3,54,0,,,,,,,,,,,,,,,,,,,,,,,
5,49085, Control_c,3,64,0,,,,,,,,,,,,,,,,,,,,,,,
5,49104, Note_on_c,3,54,92,,,,,,,,,,,,,,,,,,,,,,,
5,49104, Note_on_c,3,57,114,,,,,,,,,,,,,,,,,,,,,,,
5,49104, Note_on_c,3,64,114,,,,,,,,,,,,,,,,,,,,,,,
5,49125, Control_c,3,64,127,,,,,,,,,,,,,,,,,,,,,,,
5,49154, Note_on_c,3,54,0,,,,,,,,,,,,,,,,,,,,,,,
5,49183, Note_on_c,3,57,0,,,,,,,,,,,,,,,,,,,,,,,
5,49200, Note_on_c,3,54,86,,,,,,,,,,,,,,,,,,,,,,,
5,49208, Note_on_c,3,64,0,,,,,,,,,,,,,,,,,,,,,,,
5,49229, Note_on_c,3,54,0,,,,,,,,,,,,,,,,,,,,,,,
5,49234, Control_c,3,64,0,,,,,,,,,,,,,,,,,,,,,,,
5,49248, Note_on_c,3,54,99,,,,,,,,,,,,,,,,,,,,,,,
5,49248, Note_on_c,3,57,110,,,,,,,,,,,,,,,,,,,,,,,
5,49248, Note_on_c,3,61,78,,,,,,,,,,,,,,,,,,,,,,,
5,49274, Control_c,3,64,127,,,,,,,,,,,,,,,,,,,,,,,
5,49327, Control_c,3,64,0,,,,,,,,,,,,,,,,,,,,,,,
5,49329, Note_on_c,3,54,0,,,,,,,,,,,,,,,,,,,,,,,
5,49330, Note_on_c,3,61,0,,,,,,,,,,,,,,,,,,,,,,,
5,49333, Note_on_c,3,57,0,,,,,,,,,,,,,,,,,,,,,,,
5,49344, Note_on_c,3,54,107,,,,,,,,,,,,,,,,,,,,,,,
5,49344, Note_on_c,3,57,127,,,,,,,,,,,,,,,,,,,,,,,
5,49344, Note_on_c,3,61,86,,,,,,,,,,,,,,,,,,,,,,,
5,49366, Control_c,3,64,127,,,,,,,,,,,,,,,,,,,,,,,
5,49408, Note_on_c,3,54,0,,,,,,,,,,,,,,,,,,,,,,,
5,49414, Note_on_c,3,61,0,,,,,,,,,,,,,,,,,,,,,,,
5,49424, Note_on_c,3,57,0,,,,,,,,,,,,,,,,,,,,,,,
5,49440, Note_on_c,3,54,88,,,,,,,,,,,,,,,,,,,,,,,
5,49488, Note_on_c,3,57,95,,,,,,,,,,,,,,,,,,,,,,,
5,49499, Note_on_c,3,54,0,,,,,,,,,,,,,,,,,,,,,,,
5,49520, Note_on_c,3,57,0,,,,,,,,,,,,,,,,,,,,,,,
5,49526, Control_c,3,64,0,,,,,,,,,,,,,,,,,,,,,,,
5,49536, Note_on_c,3,54,103,,,,,,,,,,,,,,,,,,,,,,,
5,49536, Note_on_c,3,57,122,,,,,,,,,,,,,,,,,,,,,,,
5,49536, Note_on_c,3,64,122,,,,,,,,,,,,,,,,,,,,,,,
5,49574, Control_c,3,64,127,,,,,,,,,,,,,,,,,,,,,,,
5,49606, Note_on_c,3,64,0,,,,,,,,,,,,,,,,,,,,,,,
5,49607, Note_on_c,3,54,0,,,,,,,,,,,,,,,,,,,,,,,
5,49611, Note_on_c,3,57,0,,,,,,,,,,,,,,,,,,,,,,,
5,49627, Control_c,3,64,0,,,,,,,,,,,,,,,,,,,,,,,
5,49632, Note_on_c,3,54,99,,,,,,,,,,,,,,,,,,,,,,,
5,49632, Note_on_c,3,57,118,,,,,,,,,,,,,,,,,,,,,,,
5,49632, Note_on_c,3,61,82,,,,,,,,,,,,,,,,,,,,,,,
5,49666, Control_c,3,64,127,,,,,,,,,,,,,,,,,,,,,,,
5,49704, Note_on_c,3,61,0,,,,,,,,,,,,,,,,,,,,,,,
5,49706, Control_c,3,64,0,,,,,,,,,,,,,,,,,,,,,,,
5,49708, Note_on_c,3,54,0,,,,,,,,,,,,,,,,,,,,,,,
5,49709, Note_on_c,3,57,0,,,,,,,,,,,,,,,,,,,,,,,
5,49728, Note_on_c,3,54,103,,,,,,,,,,,,,,,,,,,,,,,
5,49728, Note_on_c,3,57,127,,,,,,,,,,,,,,,,,,,,,,,
5,49728, Note_on_c,3,61,88,,,,,,,,,,,,,,,,,,,,,,,
5,49750, Control_c,3,64,127,,,,,,,,,,,,,,,,,,,,,,,
5,49779, Note_on_c,3,54,0,,,,,,,,,,,,,,,,,,,,,,,
5,49803, Note_on_c,3,57,0,,,,,,,,,,,,,,,,,,,,,,,
5,49803, Note_on_c,3,61,0,,,,,,,,,,,,,,,,,,,,,,,
5,49824, Note_on_c,3,54,99,,,,,,,,,,,,,,,,,,,,,,,
5,49847, Control_c,3,64,0,,,,,,,,,,,,,,,,,,,,,,,
5,49872, Note_on_c,3,57,107,,,,,,,,,,,,,,,,,,,,,,,
5,49872, Note_on_c,3,64,107,,,,,,,,,,,,,,,,,,,,,,,
5,49891, Control_c,3,64,127,,,,,,,,,,,,,,,,,,,,,,,
5,49919, Note_on_c,3,54,0,,,,,,,,,,,,,,,,,,,,,,,
5,49946, Note_on_c,3,57,0,,,,,,,,,,,,,,,,,,,,,,,
5,49964, Note_on_c,3,64,0,,,,,,,,,,,,,,,,,,,,,,,
5,49968, Note_on_c,3,54,95,,,,,,,,,,,,,,,,,,,,,,,
5,49968, Note_on_c,3,57,98,,,,,,,,,,,,,,,,,,,,,,,
5,49968, Note_on_c,3,61,86,,,,,,,,,,,,,,,,,,,,,,,
5,49997, Note_on_c,3,57,0,,,,,,,,,,,,,,,,,,,,,,,
5,50000, Note_on_c,3,54,0,,,,,,,,,,,,,,,,,,,,,,,
5,50001, Note_on_c,3,61,0,,,,,,,,,,,,,,,,,,,,,,,
5,50016, Note_on_c,3,54,99,,,,,,,,,,,,,,,,,,,,,,,
5,50016, Note_on_c,3,57,110,,,,,,,,,,,,,,,,,,,,,,,
5,50016, Note_on_c,3,61,86,,,,,,,,,,,,,,,,,,,,,,,
5,50019, Control_c,3,64,0,,,,,,,,,,,,,,,,,,,,,,,
5,50067, Control_c,3,64,127,,,,,,,,,,,,,,,,,,,,,,,
5,50087, Note_on_c,3,61,0,,,,,,,,,,,,,,,,,,,,,,,
5,50093, Note_on_c,3,54,0,,,,,,,,,,,,,,,,,,,,,,,
5,50095, Note_on_c,3,57,0,,,,,,,,,,,,,,,,,,,,,,,
5,50107, Control_c,3,64,0,,,,,,,,,,,,,,,,,,,,,,,
5,50112, Note_on_c,3,54,95,,,,,,,,,,,,,,,,,,,,,,,
5,50112, Note_on_c,3,57,114,,,,,,,,,,,,,,,,,,,,,,,
5,50112, Note_on_c,3,61,86,,,,,,,,,,,,,,,,,,,,,,,
5,50146, Control_c,3,64,127,,,,,,,,,,,,,,,,,,,,,,,
5,50179, Note_on_c,3,61,0,,,,,,,,,,,,,,,,,,,,,,,
5,50182, Note_on_c,3,54,0,,,,,,,,,,,,,,,,,,,,,,,
5,50188, Note_on_c,3,57,0,,,,,,,,,,,,,,,,,,,,,,,
5,50208, Note_on_c,3,54,95,,,,,,,,,,,,,,,,,,,,,,,
5,50235, Note_on_c,3,54,0,,,,,,,,,,,,,,,,,,,,,,,
5,50256, Note_on_c,3,54,59,,,,,,,,,,,,,,,,,,,,,,,
5,50256, Note_on_c,3,57,74,,,,,,,,,,,,,,,,,,,,,,,
5,50256, Note_on_c,3,61,74,,,,,,,,,,,,,,,,,,,,,,,
5,50275, Note_on_c,3,54,0,,,,,,,,,,,,,,,,,,,,,,,
5,50278, Note_on_c,3,57,0,,,,,,,,,,,,,,,,,,,,,,,
5,50279, Note_on_c,3,61,0,,,,,,,,,,,,,,,,,,,,,,,
5,50284, Control_c,3,64,0,,,,,,,,,,,,,,,,,,,,,,,
5,50304, Note_on_c,3,54,92,,,,,,,,,,,,,,,,,,,,,,,
5,50304, Note_on_c,3,57,110,,,,,,,,,,,,,,,,,,,,,,,
5,50304, Note_on_c,3,64,110,,,,,,,,,,,,,,,,,,,,,,,
5,50337, Control_c,3,64,127,,,,,,,,,,,,,,,,,,,,,,,
5,50373, Note_on_c,3,64,0,,,,,,,,,,,,,,,,,,,,,,,
5,50377, Note_on_c,3,54,0,,,,,,,,,,,,,,,,,,,,,,,
5,50377, Note_on_c,3,57,0,,,,,,,,,,,,,,,,,,,,,,,
5,50385, Control_c,3,64,0,,,,,,,,,,,,,,,,,,,,,,,
5,50400, Note_on_c,3,54,95,,,,,,,,,,,,,,,,,,,,,,,
5,50400, Note_on_c,3,57,114,,,,,,,,,,,,,,,,,,,,,,,
5,50400, Note_on_c,3,61,59,,,,,,,,,,,,,,,,,,,,,,,
5,50429, Control_c,3,64,127,,,,,,,,,,,,,,,,,,,,,,,
5,50469, Control_c,3,64,0,,,,,,,,,,,,,,,,,,,,,,,
5,50473, Note_on_c,3,54,0,,,,,,,,,,,,,,,,,,,,,,,
5,50475, Note_on_c,3,57,0,,,,,,,,,,,,,,,,,,,,,,,
5,50475, Note_on_c,3,61,0,,,,,,,,,,,,,,,,,,,,,,,
5,50496, Note_on_c,3,54,107,,,,,,,,,,,,,,,,,,,,,,,
5,50496, Note_on_c,3,57,127,,,,,,,,,,,,,,,,,,,,,,,
5,50496, Note_on_c,3,61,67,,,,,,,,,,,,,,,,,,,,,,,
5,50522, Control_c,3,64,127,,,,,,,,,,,,,,,,,,,,,,,
5,50558, Note_on_c,3,54,0,,,,,,,,,,,,,,,,,,,,,,,
5,50573, Note_on_c,3,61,0,,,,,,,,,,,,,,,,,,,,,,,
5,50583, Note_on_c,3,57,0,,,,,,,,,,,,,,,,,,,,,,,
5,50592, Note_on_c,3,54,95,,,,,,,,,,,,,,,,,,,,,,,
5,50619, Control_c,3,64,0,,,,,,,,,,,,,,,,,,,,,,,
5,50629, Note_on_c,3,54,0,,,,,,,,,,,,,,,,,,,,,,,
5,50640, Note_on_c,3,54,64,,,,,,,,,,,,,,,,,,,,,,,
5,50640, Note_on_c,3,57,114,,,,,,,,,,,,,,,,,,,,,,,
5,50640, Note_on_c,3,64,110,,,,,,,,,,,,,,,,,,,,,,,
5,50667, Control_c,3,64,127,,,,,,,,,,,,,,,,,,,,,,,
5,50691, Note_on_c,3,54,0,,,,,,,,,,,,,,,,,,,,,,,
5,50736, Note_on_c,3,54,92,,,,,,,,,,,,,,,,,,,,,,,
5,50750, Note_on_c,3,64,0,,,,,,,,,,,,,,,,,,,,,,,
5,50754, Note_on_c,3,57,0,,,,,,,,,,,,,,,,,,,,,,,
5,50773, Control_c,3,64,0,,,,,,,,,,,,,,,,,,,,,,,
5,50784, Note_on_c,3,57,114,,,,,,,,,,,,,,,,,,,,,,,
5,50784, Note_on_c,3,61,88,,,,,,,,,,,,,,,,,,,,,,,
5,50821, Control_c,3,64,127,,,,,,,,,,,,,,,,,,,,,,,
5,50853, Note_on_c,3,54,0,,,,,,,,,,,,,,,,,,,,,,,
5,50853, Note_on_c,3,61,0,,,,,,,,,,,,,,,,,,,,,,,
5,50859, Note_on_c,3,57,0,,,,,,,,,,,,,,,,,,,,,,,
5,50864, Control_c,3,64,0,,,,,,,,,,,,,,,,,,,,,,,
5,50880, Note_on_c,3,54,107,,,,,,,,,,,,,,,,,,,,,,,
5,50880, Note_on_c,3,57,118,,,,,,,,,,,,,,,,,,,,,,,
5,50880, Note_on_c,3,61,88,,,,,,,,,,,,,,,,,,,,,,,
5,50917, Control_c,3,64,127,,,,,,,,,,,,,,,,,,,,,,,
5,50950, Note_on_c,3,61,0,,,,,,,,,,,,,,,,,,,,,,,
5,50953, Note_on_c,3,54,0,,,,,,,,,,,,,,,,,,,,,,,
5,50961, Note_on_c,3,57,0,,,,,,,,,,,,,,,,,,,,,,,
5,50976, Note_on_c,3,54,92,,,,,,,,,,,,,,,,,,,,,,,
5,51008, Note_on_c,3,54,0,,,,,,,,,,,,,,,,,,,,,,,
5,51024, Note_on_c,3,54,50,,,,,,,,,,,,,,,,,,,,,,,
5,51024, Note_on_c,3,57,101,,,,,,,,,,,,,,,,,,,,,,,
5,51024, Note_on_c,3,61,82,,,,,,,,,,,,,,,,,,,,,,,
5,51048, Note_on_c,3,54,0,,,,,,,,,,,,,,,,,,,,,,,
5,51048, Control_c,3,64,0,,,,,,,,,,,,,,,,,,,,,,,
5,51049, Note_on_c,3,61,0,,,,,,,,,,,,,,,,,,,,,,,
5,51055, Note_on_c,3,57,0,,,,,,,,,,,,,,,,,,,,,,,
5,51072, Note_on_c,3,54,103,,,,,,,,,,,,,,,,,,,,,,,
5,51072, Note_on_c,3,57,127,,,,,,,,,,,,,,,,,,,,,,,
5,51072, Note_on_c,3,64,127,,,,,,,,,,,,,,,,,,,,,,,
5,51101, Control_c,3,64,127,,,,,,,,,,,,,,,,,,,,,,,
5,51141, Note_on_c,3,64,0,,,,,,,,,,,,,,,,,,,,,,,
5,51142, Note_on_c,3,54,0,,,,,,,,,,,,,,,,,,,,,,,
5,51150, Note_on_c,3,57,0,,,,,,,,,,,,,,,,,,,,,,,
5,51159, Control_c,3,64,0,,,,,,,,,,,,,,,,,,,,,,,
5,51168, Note_on_c,3,54,107,,,,,,,,,,,,,,,,,,,,,,,
5,51168, Note_on_c,3,57,122,,,,,,,,,,,,,,,,,,,,,,,
5,51168, Note_on_c,3,61,82,,,,,,,,,,,,,,,,,,,,,,,
5,51207, Control_c,3,64,127,,,,,,,,,,,,,,,,,,,,,,,
5,51239, Note_on_c,3,54,0,,,,,,,,,,,,,,,,,,,,,,,
5,51241, Note_on_c,3,61,0,,,,,,,,,,,,,,,,,,,,,,,
5,51244, Note_on_c,3,57,0,,,,,,,,,,,,,,,,,,,,,,,
5,51247, Control_c,3,64,0,,,,,,,,,,,,,,,,,,,,,,,
5,51264, Note_on_c,3,54,107,,,,,,,,,,,,,,,,,,,,,,,
5,51264, Note_on_c,3,57,122,,,,,,,,,,,,,,,,,,,,,,,
5,51264, Note_on_c,3,61,99,,,,,,,,,,,,,,,,,,,,,,,
5,51300, Control_c,3,64,127,,,,,,,,,,,,,,,,,,,,,,,
5,51317, Note_on_c,3,54,0,,,,,,,,,,,,,,,,,,,,,,,
5,51338, Note_on_c,3,57,0,,,,,,,,,,,,,,,,,,,,,,,
5,51344, Note_on_c,3,61,0,,,,,,,,,,,,,,,,,,,,,,,
5,51360, Note_on_c,3,54,99,,,,,,,,,,,,,,,,,,,,,,,
5,51379, Control_c,3,64,0,,,,,,,,,,,,,,,,,,,,,,,
5,51408, Note_on_c,3,57,114,,,,,,,,,,,,,,,,,,,,,,,
5,51408, Note_on_c,3,64,114,,,,,,,,,,,,,,,,,,,,,,,
5,51436, Control_c,3,64,127,,,,,,,,,,,,,,,,,,,,,,,
5,51461, Note_on_c,3,54,0,,,,,,,,,,,,,,,,,,,,,,,
5,51497, Note_on_c,3,57,0,,,,,,,,,,,,,,,,,,,,,,,
5,51504, Note_on_c,3,54,95,,,,,,,,,,,,,,,,,,,,,,,
5,51521, Note_on_c,3,64,0,,,,,,,,,,,,,,,,,,,,,,,
5,51532, Control_c,3,64,0,,,,,,,,,,,,,,,,,,,,,,,
5,51541, Note_on_c,3,54,0,,,,,,,,,,,,,,,,,,,,,,,
5,51552, Note_on_c,3,54,78,,,,,,,,,,,,,,,,,,,,,,,
5,51552, Note_on_c,3,57,110,,,,,,,,,,,,,,,,,,,,,,,
5,51552, Note_on_c,3,61,51,,,,,,,,,,,,,,,,,,,,,,,
5,51586, Control_c,3,64,127,,,,,,,,,,,,,,,,,,,,,,,
5,51624, Note_on_c,3,61,0,,,,,,,,,,,,,,,,,,,,,,,
5,51628, Note_on_c,3,54,0,,,,,,,,,,,,,,,,,,,,,,,
5,51630, Note_on_c,3,57,0,,,,,,,,,,,,,,,,,,,,,,,
5,51634, Control_c,3,64,0,,,,,,,,,,,,,,,,,,,,,,,
5,51648, Note_on_c,3,54,107,,,,,,,,,,,,,,,,,,,,,,,
5,51648, Note_on_c,3,57,127,,,,,,,,,,,,,,,,,,,,,,,
5,51648, Note_on_c,3,61,64,,,,,,,,,,,,,,,,,,,,,,,
5,51682, Control_c,3,64,127,,,,,,,,,,,,,,,,,,,,,,,
5,51711, Note_on_c,3,61,0,,,,,,,,,,,,,,,,,,,,,,,
5,51716, Note_on_c,3,54,0,,,,,,,,,,,,,,,,,,,,,,,
5,51721, Note_on_c,3,57,0,,,,,,,,,,,,,,,,,,,,,,,
5,51726, Control_c,3,64,0,,,,,,,,,,,,,,,,,,,,,,,
5,51744, Note_on_c,3,54,103,,,,,,,,,,,,,,,,,,,,,,,
5,51744, Note_on_c,3,57,110,,,,,,,,,,,,,,,,,,,,,,,
5,51744, Note_on_c,3,61,80,,,,,,,,,,,,,,,,,,,,,,,
5,51762, Control_c,3,64,127,,,,,,,,,,,,,,,,,,,,,,,
5,51771, Note_on_c,3,54,0,,,,,,,,,,,,,,,,,,,,,,,
5,51785, Note_on_c,3,61,0,,,,,,,,,,,,,,,,,,,,,,,
5,51792, Note_on_c,3,54,88,,,,,,,,,,,,,,,,,,,,,,,
5,51809, Note_on_c,3,57,0,,,,,,,,,,,,,,,,,,,,,,,
5,51826, Note_on_c,3,54,0,,,,,,,,,,,,,,,,,,,,,,,
5,51833, Control_c,3,64,0,,,,,,,,,,,,,,,,,,,,,,,
5,51840, Note_on_c,3,54,103,,,,,,,,,,,,,,,,,,,,,,,
5,51840, Note_on_c,3,57,118,,,,,,,,,,,,,,,,,,,,,,,
5,51840, Note_on_c,3,64,122,,,,,,,,,,,,,,,,,,,,,,,
5,51840, Note_on_c,3,64,118,,,,,,,,,,,,,,,,,,,,,,,
5,51846, Control_c,3,64,127,,,,,,,,,,,,,,,,,,,,,,,
5,51916, Note_on_c,3,64,0,,,,,,,,,,,,,,,,,,,,,,,
5,51918, Note_on_c,3,54,0,,,,,,,,,,,,,,,,,,,,,,,
5,51919, Note_on_c,3,64,0,,,,,,,,,,,,,,,,,,,,,,,
5,51920, Control_c,3,64,0,,,,,,,,,,,,,,,,,,,,,,,
5,51921, Note_on_c,3,57,0,,,,,,,,,,,,,,,,,,,,,,,
5,51936, Note_on_c,3,54,92,,,,,,,,,,,,,,,,,,,,,,,
5,51936, Note_on_c,3,57,110,,,,,,,,,,,,,,,,,,,,,,,
5,51936, Note_on_c,3,61,88,,,,,,,,,,,,,,,,,,,,,,,
5,52022, Note_on_c,3,54,0,,,,,,,,,,,,,,,,,,,,,,,
5,52023, Note_on_c,3,61,0,,,,,,,,,,,,,,,,,,,,,,,
5,52025, Note_on_c,3,57,0,,,,,,,,,,,,,,,,,,,,,,,
5,52032, Note_on_c,3,54,103,,,,,,,,,,,,,,,,,,,,,,,
5,52032, Note_on_c,3,57,127,,,,,,,,,,,,,,,,,,,,,,,
5,52032, Note_on_c,3,61,92,,,,,,,,,,,,,,,,,,,,,,,
5,52040, Control_c,3,64,127,,,,,,,,,,,,,,,,,,,,,,,
5,52080, Note_on_c,3,54,0,,,,,,,,,,,,,,,,,,,,,,,
5,52096, Note_on_c,3,61,0,,,,,,,,,,,,,,,,,,,,,,,
5,52101, Note_on_c,3,57,0,,,,,,,,,,,,,,,,,,,,,,,
5,52128, Note_on_c,3,54,86,,,,,,,,,,,,,,,,,,,,,,,
5,52156, Note_on_c,3,54,0,,,,,,,,,,,,,,,,,,,,,,,
5,52157, Control_c,3,64,0,,,,,,,,,,,,,,,,,,,,,,,
5,52176, Note_on_c,3,54,92,,,,,,,,,,,,,,,,,,,,,,,
5,52176, Note_on_c,3,57,114,,,,,,,,,,,,,,,,,,,,,,,
5,52176, Note_on_c,3,64,114,,,,,,,,,,,,,,,,,,,,,,,
5,52197, Control_c,3,64,127,,,,,,,,,,,,,,,,,,,,,,,
5,52226, Note_on_c,3,54,0,,,,,,,,,,,,,,,,,,,,,,,
5,52255, Note_on_c,3,57,0,,,,,,,,,,,,,,,,,,,,,,,
5,52272, Note_on_c,3,54,86,,,,,,,,,,,,,,,,,,,,,,,
5,52280, Note_on_c,3,64,0,,,,,,,,,,,,,,,,,,,,,,,
5,52301, Note_on_c,3,54,0,,,,,,,,,,,,,,,,,,,,,,,
5,52306, Control_c,3,64,0,,,,,,,,,,,,,,,,,,,,,,,
5,52320, Note_on_c,3,54,99,,,,,,,,,,,,,,,,,,,,,,,
5,52320, Note_on_c,3,57,110,,,,,,,,,,,,,,,,,,,,,,,
5,52320, Note_on_c,3,61,78,,,,,,,,,,,,,,,,,,,,,,,
5,52346, Control_c,3,64,127,,,,,,,,,,,,,,,,,,,,,,,
5,52399, Control_c,3,64,0,,,,,,,,,,,,,,,,,,,,,,,
5,52401, Note_on_c,3,54,0,,,,,,,,,,,,,,,,,,,,,,,
5,52402, Note_on_c,3,61,0,,,,,,,,,,,,,,,,,,,,,,,
5,52405, Note_on_c,3,57,0,,,,,,,,,,,,,,,,,,,,,,,
5,52416, Note_on_c,3,54,107,,,,,,,,,,,,,,,,,,,,,,,
5,52416, Note_on_c,3,57,127,,,,,,,,,,,,,,,,,,,,,,,
5,52416, Note_on_c,3,61,86,,,,,,,,,,,,,,,,,,,,,,,
5,52438, Control_c,3,64,127,,,,,,,,,,,,,,,,,,,,,,,
5,52480, Note_on_c,3,54,0,,,,,,,,,,,,,,,,,,,,,,,
5,52486, Note_on_c,3,61,0,,,,,,,,,,,,,,,,,,,,,,,
5,52496, Note_on_c,3,57,0,,,,,,,,,,,,,,,,,,,,,,,
5,52512, Note_on_c,3,54,88,,,,,,,,,,,,,,,,,,,,,,,
5,52560, Note_on_c,3,57,95,,,,,,,,,,,,,,,,,,,,,,,
5,52571, Note_on_c,3,54,0,,,,,,,,,,,,,,,,,,,,,,,
5,52592, Note_on_c,3,57,0,,,,,,,,,,,,,,,,,,,,,,,
5,52598, Control_c,3,64,0,,,,,,,,,,,,,,,,,,,,,,,
5,52608, Note_on_c,3,54,103,,,,,,,,,,,,,,,,,,,,,,,
5,52608, Note_on_c,3,57,122,,,,,,,,,,,,,,,,,,,,,,,
5,52608, Note_on_c,3,64,122,,,,,,,,,,,,,,,,,,,,,,,
5,52646, Control_c,3,64,127,,,,,,,,,,,,,,,,,,,,,,,
5,52678, Note_on_c,3,64,0,,,,,,,,,,,,,,,,,,,,,,,
5,52679, Note_on_c,3,54,0,,,,,,,,,,,,,,,,,,,,,,,
5,52683, Note_on_c,3,57,0,,,,,,,,,,,,,,,,,,,,,,,
5,52699, Control_c,3,64,0,,,,,,,,,,,,,,,,,,,,,,,
5,52704, Note_on_c,3,54,99,,,,,,,,,,,,,,,,,,,,,,,
5,52704, Note_on_c,3,57,118,,,,,,,,,,,,,,,,,,,,,,,
5,52704, Note_on_c,3,61,82,,,,,,,,,,,,,,,,,,,,,,,
5,52738, Control_c,3,64,127,,,,,,,,,,,,,,,,,,,,,,,
5,52776, Note_on_c,3,61,0,,,,,,,,,,,,,,,,,,,,,,,
5,52778, Control_c,3,64,0,,,,,,,,,,,,,,,,,,,,,,,
5,52780, Note_on_c,3,54,0,,,,,,,,,,,,,,,,,,,,,,,
5,52781, Note_on_c,3,57,0,,,,,,,,,,,,,,,,,,,,,,,
5,52800, Note_on_c,3,54,103,,,,,,,,,,,,,,,,,,,,,,,
5,52800, Note_on_c,3,57,127,,,,,,,,,,,,,,,,,,,,,,,
5,52800, Note_on_c,3,61,88,,,,,,,,,,,,,,,,,,,,,,,
5,52822, Control_c,3,64,127,,,,,,,,,,,,,,,,,,,,,,,
5,52851, Note_on_c,3,54,0,,,,,,,,,,,,,,,,,,,,,,,
5,52875, Note_on_c,3,57,0,,,,,,,,,,,,,,,,,,,,,,,
5,52875, Note_on_c,3,61,0,,,,,,,,,,,,,,,,,,,,,,,
5,52896, Note_on_c,3,54,99,,,,,,,,,,,,,,,,,,,,,,,
5,52919, Control_c,3,64,0,,,,,,,,,,,,,,,,,,,,,,,
5,52944, Note_on_c,3,57,107,,,,,,,,,,,,,,,,,,,,,,,
5,52944, Note_on_c,3,64,107,,,,,,,,,,,,,,,,,,,,,,,
5,52963, Control_c,3,64,127,,,,,,,,,,,,,,,,,,,,,,,
5,52991, Note_on_c,3,54,0,,,,,,,,,,,,,,,,,,,,,,,
5,53018, Note_on_c,3,57,0,,,,,,,,,,,,,,,,,,,,,,,
5,53036, Note_on_c,3,64,0,,,,,,,,,,,,,,,,,,,,,,,
5,53040, Note_on_c,3,54,95,,,,,,,,,,,,,,,,,,,,,,,
5,53040, Note_on_c,3,57,98,,,,,,,,,,,,,,,,,,,,,,,
5,53040, Note_on_c,3,61,86,,,,,,,,,,,,,,,,,,,,,,,
5,53069, Note_on_c,3,57,0,,,,,,,,,,,,,,,,,,,,,,,
5,53072, Note_on_c,3,54,0,,,,,,,,,,,,,,,,,,,,,,,
5,53073, Note_on_c,3,61,0,,,,,,,,,,,,,,,,,,,,,,,
5,53088, Note_on_c,3,54,99,,,,,,,,,,,,,,,,,,,,,,,
5,53088, Note_on_c,3,57,110,,,,,,,,,,,,,,,,,,,,,,,
5,53088, Note_on_c,3,61,86,,,,,,,,,,,,,,,,,,,,,,,
5,53091, Control_c,3,64,0,,,,,,,,,,,,,,,,,,,,,,,
5,53139, Control_c,3,64,127,,,,,,,,,,,,,,,,,,,,,,,
5,53159, Note_on_c,3,61,0,,,,,,,,,,,,,,,,,,,,,,,
5,53165, Note_on_c,3,54,0,,,,,,,,,,,,,,,,,,,,,,,
5,53167, Note_on_c,3,57,0,,,,,,,,,,,,,,,,,,,,,,,
5,53179, Control_c,3,64,0,,,,,,,,,,,,,,,,,,,,,,,
5,53184, Note_on_c,3,54,95,,,,,,,,,,,,,,,,,,,,,,,
5,53184, Note_on_c,3,57,114,,,,,,,,,,,,,,,,,,,,,,,
5,53184, Note_on_c,3,61,86,,,,,,,,,,,,,,,,,,,,,,,
5,53218, Control_c,3,64,127,,,,,,,,,,,,,,,,,,,,,,,
5,53251, Note_on_c,3,61,0,,,,,,,,,,,,,,,,,,,,,,,
5,53254, Note_on_c,3,54,0,,,,,,,,,,,,,,,,,,,,,,,
5,53260, Note_on_c,3,57,0,,,,,,,,,,,,,,,,,,,,,,,
5,53280, Note_on_c,3,54,95,,,,,,,,,,,,,,,,,,,,,,,
5,53307, Note_on_c,3,54,0,,,,,,,,,,,,,,,,,,,,,,,
5,53328, Note_on_c,3,54,59,,,,,,,,,,,,,,,,,,,,,,,
5,53328, Note_on_c,3,57,74,,,,,,,,,,,,,,,,,,,,,,,
5,53328, Note_on_c,3,61,74,,,,,,,,,,,,,,,,,,,,,,,
5,53347, Note_on_c,3,54,0,,,,,,,,,,,,,,,,,,,,,,,
5,53350, Note_on_c,3,57,0,,,,,,,,,,,,,,,,,,,,,,,
5,53351, Note_on_c,3,61,0,,,,,,,,,,,,,,,,,,,,,,,
5,53356, Control_c,3,64,0,,,,,,,,,,,,,,,,,,,,,,,
5,53376, Note_on_c,3,54,92,,,,,,,,,,,,,,,,,,,,,,,
5,53376, Note_on_c,3,57,110,,,,,,,,,,,,,,,,,,,,,,,
5,53376, Note_on_c,3,64,110,,,,,,,,,,,,,,,,,,,,,,,
5,53409, Control_c,3,64,127,,,,,,,,,,,,,,,,,,,,,,,
5,53445, Note_on_c,3,64,0,,,,,,,,,,,,,,,,,,,,,,,
5,53449, Note_on_c,3,54,0,,,,,,,,,,,,,,,,,,,,,,,
5,53449, Note_on_c,3,57,0,,,,,,,,,,,,,,,,,,,,,,,
5,53457, Control_c,3,64,0,,,,,,,,,,,,,,,,,,,,,,,
5,53472, Note_on_c,3,54,95,,,,,,,,,,,,,,,,,,,,,,,
5,53472, Note_on_c,3,57,114,,,,,,,,,,,,,,,,,,,,,,,
5,53472, Note_on_c,3,61,59,,,,,,,,,,,,,,,,,,,,,,,
5,53501, Control_c,3,64,127,,,,,,,,,,,,,,,,,,,,,,,
5,53541, Control_c,3,64,0,,,,,,,,,,,,,,,,,,,,,,,
5,53545, Note_on_c,3,54,0,,,,,,,,,,,,,,,,,,,,,,,
5,53547, Note_on_c,3,57,0,,,,,,,,,,,,,,,,,,,,,,,
5,53547, Note_on_c,3,61,0,,,,,,,,,,,,,,,,,,,,,,,
5,53568, Note_on_c,3,54,107,,,,,,,,,,,,,,,,,,,,,,,
5,53568, Note_on_c,3,57,127,,,,,,,,,,,,,,,,,,,,,,,
5,53568, Note_on_c,3,61,67,,,,,,,,,,,,,,,,,,,,,,,
5,53594, Control_c,3,64,127,,,,,,,,,,,,,,,,,,,,,,,
5,53630, Note_on_c,3,54,0,,,,,,,,,,,,,,,,,,,,,,,
5,53645, Note_on_c,3,61,0,,,,,,,,,,,,,,,,,,,,,,,
5,53655, Note_on_c,3,57,0,,,,,,,,,,,,,,,,,,,,,,,
5,53664, Note_on_c,3,54,95,,,,,,,,,,,,,,,,,,,,,,,
5,53691, Control_c,3,64,0,,,,,,,,,,,,,,,,,,,,,,,
5,53701, Note_on_c,3,54,0,,,,,,,,,,,,,,,,,,,,,,,
5,53712, Note_on_c,3,54,64,,,,,,,,,,,,,,,,,,,,,,,
5,53712, Note_on_c,3,57,114,,,,,,,,,,,,,,,,,,,,,,,
5,53712, Note_on_c,3,64,110,,,,,,,,,,,,,,,,,,,,,,,
5,53739, Control_c,3,64,127,,,,,,,,,,,,,,,,,,,,,,,
5,53763, Note_on_c,3,54,0,,,,,,,,,,,,,,,,,,,,,,,
5,53808, Note_on_c,3,54,92,,,,,,,,,,,,,,,,,,,,,,,
5,53822, Note_on_c,3,64,0,,,,,,,,,,,,,,,,,,,,,,,
5,53826, Note_on_c,3,57,0,,,,,,,,,,,,,,,,,,,,,,,
5,53845, Control_c,3,64,0,,,,,,,,,,,,,,,,,,,,,,,
5,53856, Note_on_c,3,57,114,,,,,,,,,,,,,,,,,,,,,,,
5,53856, Note_on_c,3,61,88,,,,,,,,,,,,,,,,,,,,,,,
5,53893, Control_c,3,64,127,,,,,,,,,,,,,,,,,,,,,,,
5,53925, Note_on_c,3,54,0,,,,,,,,,,,,,,,,,,,,,,,
5,53925, Note_on_c,3,61,0,,,,,,,,,,,,,,,,,,,,,,,
5,53931, Note_on_c,3,57,0,,,,,,,,,,,,,,,,,,,,,,,
5,53936, Control_c,3,64,0,,,,,,,,,,,,,,,,,,,,,,,
5,53952, Note_on_c,3,54,107,,,,,,,,,,,,,,,,,,,,,,,
5,53952, Note_on_c,3,57,118,,,,,,,,,,,,,,,,,,,,,,,
5,53952, Note_on_c,3,61,88,,,,,,,,,,,,,,,,,,,,,,,
5,53989, Control_c,3,64,127,,,,,,,,,,,,,,,,,,,,,,,
5,54022, Note_on_c,3,61,0,,,,,,,,,,,,,,,,,,,,,,,
5,54025, Note_on_c,3,54,0,,,,,,,,,,,,,,,,,,,,,,,
5,54033, Note_on_c,3,57,0,,,,,,,,,,,,,,,,,,,,,,,
5,54048, Note_on_c,3,54,92,,,,,,,,,,,,,,,,,,,,,,,
5,54080, Note_on_c,3,54,0,,,,,,,,,,,,,,,,,,,,,,,
5,54096, Note_on_c,3,54,50,,,,,,,,,,,,,,,,,,,,,,,
5,54096, Note_on_c,3,57,101,,,,,,,,,,,,,,,,,,,,,,,
5,54096, Note_on_c,3,61,82,,,,,,,,,,,,,,,,,,,,,,,
5,54120, Note_on_c,3,54,0,,,,,,,,,,,,,,,,,,,,,,,
5,54120, Control_c,3,64,0,,,,,,,,,,,,,,,,,,,,,,,
5,54121, Note_on_c,3,61,0,,,,,,,,,,,,,,,,,,,,,,,
5,54127, Note_on_c,3,57,0,,,,,,,,,,,,,,,,,,,,,,,
5,54144, Note_on_c,3,54,103,,,,,,,,,,,,,,,,,,,,,,,
5,54144, Note_on_c,3,57,127,,,,,,,,,,,,,,,,,,,,,,,
5,54144, Note_on_c,3,64,127,,,,,,,,,,,,,,,,,,,,,,,
5,54173, Control_c,3,64,127,,,,,,,,,,,,,,,,,,,,,,,
5,54213, Note_on_c,3,64,0,,,,,,,,,,,,,,,,,,,,,,,
5,54214, Note_on_c,3,54,0,,,,,,,,,,,,,,,,,,,,,,,
5,54222, Note_on_c,3,57,0,,,,,,,,,,,,,,,,,,,,,,,
5,54231, Control_c,3,64,0,,,,,,,,,,,,,,,,,,,,,,,
5,54240, Note_on_c,3,54,107,,,,,,,,,,,,,,,,,,,,,,,
5,54240, Note_on_c,3,57,122,,,,,,,,,,,,,,,,,,,,,,,
5,54240, Note_on_c,3,61,82,,,,,,,,,,,,,,,,,,,,,,,
5,54279, Control_c,3,64,127,,,,,,,,,,,,,,,,,,,,,,,
5,54311, Note_on_c,3,54,0,,,,,,,,,,,,,,,,,,,,,,,
5,54313, Note_on_c,3,61,0,,,,,,,,,,,,,,,,,,,,,,,
5,54316, Note_on_c,3,57,0,,,,,,,,,,,,,,,,,,,,,,,
5,54319, Control_c,3,64,0,,,,,,,,,,,,,,,,,,,,,,,
5,54336, Note_on_c,3,54,107,,,,,,,,,,,,,,,,,,,,,,,
5,54336, Note_on_c,3,57,122,,,,,,,,,,,,,,,,,,,,,,,
5,54336, Note_on_c,3,61,99,,,,,,,,,,,,,,,,,,,,,,,
5,54372, Control_c,3,64,127,,,,,,,,,,,,,,,,,,,,,,,
5,54389, Note_on_c,3,54,0,,,,,,,,,,,,,,,,,,,,,,,
5,54410, Note_on_c,3,57,0,,,,,,,,,,,,,,,,,,,,,,,
5,54416, Note_on_c,3,61,0,,,,,,,,,,,,,,,,,,,,,,,
5,54432, Note_on_c,3,54,99,,,,,,,,,,,,,,,,,,,,,,,
5,54451, Control_c,3,64,0,,,,,,,,,,,,,,,,,,,,,,,
5,54480, Note_on_c,3,57,114,,,,,,,,,,,,,,,,,,,,,,,
5,54480, Note_on_c,3,64,114,,,,,,,,,,,,,,,,,,,,,,,
5,54508, Control_c,3,64,127,,,,,,,,,,,,,,,,,,,,,,,
5,54533, Note_on_c,3,54,0,,,,,,,,,,,,,,,,,,,,,,,
5,54569, Note_on_c,3,57,0,,,,,,,,,,,,,,,,,,,,,,,
5,54576, Note_on_c,3,54,95,,,,,,,,,,,,,,,,,,,,,,,
5,54593, Note_on_c,3,64,0,,,,,,,,,,,,,,,,,,,,,,,
5,54604, Control_c,3,64,0,,,,,,,,,,,,,,,,,,,,,,,
5,54613, Note_on_c,3,54,0,,,,,,,,,,,,,,,,,,,,,,,
5,54624, Note_on_c,3,54,78,,,,,,,,,,,,,,,,,,,,,,,
5,54624, Note_on_c,3,57,110,,,,,,,,,,,,,,,,,,,,,,,
5,54624, Note_on_c,3,61,51,,,,,,,,,,,,,,,,,,,,,,,
5,54658, Control_c,3,64,127,,,,,,,,,,,,,,,,,,,,,,,
5,54696, Note_on_c,3,61,0,,,,,,,,,,,,,,,,,,,,,,,
5,54700, Note_on_c,3,54,0,,,,,,,,,,,,,,,,,,,,,,,
5,54702, Note_on_c,3,57,0,,,,,,,,,,,,,,,,,,,,,,,
5,54706, Control_c,3,64,0,,,,,,,,,,,,,,,,,,,,,,,
5,54720, Note_on_c,3,54,107,,,,,,,,,,,,,,,,,,,,,,,
5,54720, Note_on_c,3,57,127,,,,,,,,,,,,,,,,,,,,,,,
5,54720, Note_on_c,3,61,64,,,,,,,,,,,,,,,,,,,,,,,
5,54754, Control_c,3,64,127,,,,,,,,,,,,,,,,,,,,,,,
5,54783, Note_on_c,3,61,0,,,,,,,,,,,,,,,,,,,,,,,
5,54788, Note_on_c,3,54,0,,,,,,,,,,,,,,,,,,,,,,,
5,54793, Note_on_c,3,57,0,,,,,,,,,,,,,,,,,,,,,,,
5,54798, Control_c,3,64,0,,,,,,,,,,,,,,,,,,,,,,,
5,54816, Note_on_c,3,54,103,,,,,,,,,,,,,,,,,,,,,,,
5,54816, Note_on_c,3,57,110,,,,,,,,,,,,,,,,,,,,,,,
5,54816, Note_on_c,3,61,80,,,,,,,,,,,,,,,,,,,,,,,
5,54834, Control_c,3,64,127,,,,,,,,,,,,,,,,,,,,,,,
5,54843, Note_on_c,3,54,0,,,,,,,,,,,,,,,,,,,,,,,
5,54857, Note_on_c,3,61,0,,,,,,,,,,,,,,,,,,,,,,,
5,54864, Note_on_c,3,54,88,,,,,,,,,,,,,,,,,,,,,,,
5,54881, Note_on_c,3,57,0,,,,,,,,,,,,,,,,,,,,,,,
5,54898, Note_on_c,3,54,0,,,,,,,,,,,,,,,,,,,,,,,
5,54905, Control_c,3,64,0,,,,,,,,,,,,,,,,,,,,,,,
5,54912, Note_on_c,3,54,103,,,,,,,,,,,,,,,,,,,,,,,
5,54912, Note_on_c,3,57,118,,,,,,,,,,,,,,,,,,,,,,,
5,54912, Note_on_c,3,64,122,,,,,,,,,,,,,,,,,,,,,,,
5,54912, Note_on_c,3,64,118,,,,,,,,,,,,,,,,,,,,,,,
5,54918, Control_c,3,64,127,,,,,,,,,,,,,,,,,,,,,,,
5,54988, Note_on_c,3,64,0,,,,,,,,,,,,,,,,,,,,,,,
5,54990, Note_on_c,3,54,0,,,,,,,,,,,,,,,,,,,,,,,
5,54991, Note_on_c,3,64,0,,,,,,,,,,,,,,,,,,,,,,,
5,54992, Control_c,3,64,0,,,,,,,,,,,,,,,,,,,,,,,
5,54993, Note_on_c,3,57,0,,,,,,,,,,,,,,,,,,,,,,,
5,55008, Note_on_c,3,54,92,,,,,,,,,,,,,,,,,,,,,,,
5,55008, Note_on_c,3,57,110,,,,,,,,,,,,,,,,,,,,,,,
5,55008, Note_on_c,3,61,88,,,,,,,,,,,,,,,,,,,,,,,
5,55094, Note_on_c,3,54,0,,,,,,,,,,,,,,,,,,,,,,,
5,55095, Note_on_c,3,61,0,,,,,,,,,,,,,,,,,,,,,,,
5,55097, Note_on_c,3,57,0,,,,,,,,,,,,,,,,,,,,,,,
5,55104, Note_on_c,3,54,103,,,,,,,,,,,,,,,,,,,,,,,
5,55104, Note_on_c,3,57,127,,,,,,,,,,,,,,,,,,,,,,,
5,55104, Note_on_c,3,61,92,,,,,,,,,,,,,,,,,,,,,,,
5,55112, Control_c,3,64,127,,,,,,,,,,,,,,,,,,,,,,,
5,55152, Note_on_c,3,54,0,,,,,,,,,,,,,,,,,,,,,,,
5,55168, Note_on_c,3,61,0,,,,,,,,,,,,,,,,,,,,,,,
5,55173, Note_on_c,3,57,0,,,,,,,,,,,,,,,,,,,,,,,
5,55200, Note_on_c,3,54,86,,,,,,,,,,,,,,,,,,,,,,,
5,55228, Note_on_c,3,54,0,,,,,,,,,,,,,,,,,,,,,,,
5,55229, Control_c,3,64,0,,,,,,,,,,,,,,,,,,,,,,,
5,55248, Note_on_c,3,54,92,,,,,,,,,,,,,,,,,,,,,,,
5,55248, Note_on_c,3,57,114,,,,,,,,,,,,,,,,,,,,,,,
5,55248, Note_on_c,3,64,114,,,,,,,,,,,,,,,,,,,,,,,
5,55269, Control_c,3,64,127,,,,,,,,,,,,,,,,,,,,,,,
5,55298, Note_on_c,3,54,0,,,,,,,,,,,,,,,,,,,,,,,
5,55327, Note_on_c,3,57,0,,,,,,,,,,,,,,,,,,,,,,,
5,55344, Note_on_c,3,54,86,,,,,,,,,,,,,,,,,,,,,,,
5,55352, Note_on_c,3,64,0,,,,,,,,,,,,,,,,,,,,,,,
5,55373, Note_on_c,3,54,0,,,,,,,,,,,,,,,,,,,,,,,
5,55378, Control_c,3,64,0,,,,,,,,,,,,,,,,,,,,,,,
5,55392, Note_on_c,3,54,99,,,,,,,,,,,,,,,,,,,,,,,
5,55392, Note_on_c,3,57,110,,,,,,,,,,,,,,,,,,,,,,,
5,55392, Note_on_c,3,61,78,,,,,,,,,,,,,,,,,,,,,,,
5,55418, Control_c,3,64,127,,,,,,,,,,,,,,,,,,,,,,,
5,55471, Control_c,3,64,0,,,,,,,,,,,,,,,,,,,,,,,
5,55473, Note_on_c,3,54,0,,,,,,,,,,,,,,,,,,,,,,,
5,55474, Note_on_c,3,61,0,,,,,,,,,,,,,,,,,,,,,,,
5,55477, Note_on_c,3,57,0,,,,,,,,,,,,,,,,,,,,,,,
5,55488, Note_on_c,3,54,107,,,,,,,,,,,,,,,,,,,,,,,
5,55488, Note_on_c,3,57,127,,,,,,,,,,,,,,,,,,,,,,,
5,55488, Note_on_c,3,61,86,,,,,,,,,,,,,,,,,,,,,,,
5,55510, Control_c,3,64,127,,,,,,,,,,,,,,,,,,,,,,,
5,55552, Note_on_c,3,54,0,,,,,,,,,,,,,,,,,,,,,,,
5,55558, Note_on_c,3,61,0,,,,,,,,,,,,,,,,,,,,,,,
5,55568, Note_on_c,3,57,0,,,,,,,,,,,,,,,,,,,,,,,
5,55584, Note_on_c,3,54,88,,,,,,,,,,,,,,,,,,,,,,,
5,55632, Note_on_c,3,57,95,,,,,,,,,,,,,,,,,,,,,,,
5,55643, Note_on_c,3,54,0,,,,,,,,,,,,,,,,,,,,,,,
5,55664, Note_on_c,3,57,0,,,,,,,,,,,,,,,,,,,,,,,
5,55670, Control_c,3,64,0,,,,,,,,,,,,,,,,,,,,,,,
5,55680, Note_on_c,3,54,103,,,,,,,,,,,,,,,,,,,,,,,
5,55680, Note_on_c,3,57,122,,,,,,,,,,,,,,,,,,,,,,,
5,55680, Note_on_c,3,64,122,,,,,,,,,,,,,,,,,,,,,,,
5,55718, Control_c,3,64,127,,,,,,,,,,,,,,,,,,,,,,,
5,55750, Note_on_c,3,64,0,,,,,,,,,,,,,,,,,,,,,,,
5,55751, Note_on_c,3,54,0,,,,,,,,,,,,,,,,,,,,,,,
5,55755, Note_on_c,3,57,0,,,,,,,,,,,,,,,,,,,,,,,
5,55771, Control_c,3,64,0,,,,,,,,,,,,,,,,,,,,,,,
5,55776, Note_on_c,3,54,99,,,,,,,,,,,,,,,,,,,,,,,
5,55776, Note_on_c,3,57,118,,,,,,,,,,,,,,,,,,,,,,,
5,55776, Note_on_c,3,61,82,,,,,,,,,,,,,,,,,,,,,,,
5,55810, Control_c,3,64,127,,,,,,,,,,,,,,,,,,,,,,,
5,55848, Note_on_c,3,61,0,,,,,,,,,,,,,,,,,,,,,,,
5,55850, Control_c,3,64,0,,,,,,,,,,,,,,,,,,,,,,,
5,55852, Note_on_c,3,54,0,,,,,,,,,,,,,,,,,,,,,,,
5,55853, Note_on_c,3,57,0,,,,,,,,,,,,,,,,,,,,,,,
5,55872, Note_on_c,3,54,103,,,,,,,,,,,,,,,,,,,,,,,
5,55872, Note_on_c,3,57,127,,,,,,,,,,,,,,,,,,,,,,,
5,55872, Note_on_c,3,61,88,,,,,,,,,,,,,,,,,,,,,,,
5,55894, Control_c,3,64,127,,,,,,,,,,,,,,,,,,,,,,,
5,55923, Note_on_c,3,54,0,,,,,,,,,,,,,,,,,,,,,,,
5,55947, Note_on_c,3,57,0,,,,,,,,,,,,,,,,,,,,,,,
5,55947, Note_on_c,3,61,0,,,,,,,,,,,,,,,,,,,,,,,
5,55968, Note_on_c,3,54,99,,,,,,,,,,,,,,,,,,,,,,,
5,55991, Control_c,3,64,0,,,,,,,,,,,,,,,,,,,,,,,
5,56016, Note_on_c,3,57,107,,,,,,,,,,,,,,,,,,,,,,,
5,56016, Note_on_c,3,64,107,,,,,,,,,,,,,,,,,,,,,,,
5,56035, Control_c,3,64,127,,,,,,,,,,,,,,,,,,,,,,,
5,56063, Note_on_c,3,54,0,,,,,,,,,,,,,,,,,,,,,,,
5,56090, Note_on_c,3,57,0,,,,,,,,,,,,,,,,,,,,,,,
5,56108, Note_on_c,3,64,0,,,,,,,,,,,,,,,,,,,,,,,
5,56112, Note_on_c,3,54,95,,,,,,,,,,,,,,,,,,,,,,,
5,56112, Note_on_c,3,57,98,,,,,,,,,,,,,,,,,,,,,,,
5,56112, Note_on_c,3,61,86,,,,,,,,,,,,,,,,,,,,,,,
5,56141, Note_on_c,3,57,0,,,,,,,,,,,,,,,,,,,,,,,
5,56144, Note_on_c,3,54,0,,,,,,,,,,,,,,,,,,,,,,,
5,56145, Note_on_c,3,61,0,,,,,,,,,,,,,,,,,,,,,,,
5,56160, Note_on_c,3,54,99,,,,,,,,,,,,,,,,,,,,,,,
5,56160, Note_on_c,3,57,110,,,,,,,,,,,,,,,,,,,,,,,
5,56160, Note_on_c,3,61,86,,,,,,,,,,,,,,,,,,,,,,,
5,56163, Control_c,3,64,0,,,,,,,,,,,,,,,,,,,,,,,
5,56211, Control_c,3,64,127,,,,,,,,,,,,,,,,,,,,,,,
5,56231, Note_on_c,3,61,0,,,,,,,,,,,,,,,,,,,,,,,
5,56237, Note_on_c,3,54,0,,,,,,,,,,,,,,,,,,,,,,,
5,56239, Note_on_c,3,57,0,,,,,,,,,,,,,,,,,,,,,,,
5,56251, Control_c,3,64,0,,,,,,,,,,,,,,,,,,,,,,,
5,56256, Note_on_c,3,54,95,,,,,,,,,,,,,,,,,,,,,,,
5,56256, Note_on_c,3,57,114,,,,,,,,,,,,,,,,,,,,,,,
5,56256, Note_on_c,3,61,86,,,,,,,,,,,,,,,,,,,,,,,
5,56290, Control_c,3,64,127,,,,,,,,,,,,,,,,,,,,,,,
5,56323, Note_on_c,3,61,0,,,,,,,,,,,,,,,,,,,,,,,
5,56326, Note_on_c,3,54,0,,,,,,,,,,,,,,,,,,,,,,,
5,56332, Note_on_c,3,57,0,,,,,,,,,,,,,,,,,,,,,,,
5,56352, Note_on_c,3,54,95,,,,,,,,,,,,,,,,,,,,,,,
5,56379, Note_on_c,3,54,0,,,,,,,,,,,,,,,,,,,,,,,
5,56400, Note_on_c,3,54,59,,,,,,,,,,,,,,,,,,,,,,,
5,56400, Note_on_c,3,57,74,,,,,,,,,,,,,,,,,,,,,,,
5,56400, Note_on_c,3,61,74,,,,,,,,,,,,,,,,,,,,,,,
5,56419, Note_on_c,3,54,0,,,,,,,,,,,,,,,,,,,,,,,
5,56422, Note_on_c,3,57,0,,,,,,,,,,,,,,,,,,,,,,,
5,56423, Note_on_c,3,61,0,,,,,,,,,,,,,,,,,,,,,,,
5,56428, Control_c,3,64,0,,,,,,,,,,,,,,,,,,,,,,,
5,56448, Note_on_c,3,54,92,,,,,,,,,,,,,,,,,,,,,,,
5,56448, Note_on_c,3,57,110,,,,,,,,,,,,,,,,,,,,,,,
5,56448, Note_on_c,3,64,110,,,,,,,,,,,,,,,,,,,,,,,
5,56481, Control_c,3,64,127,,,,,,,,,,,,,,,,,,,,,,,
5,56517, Note_on_c,3,64,0,,,,,,,,,,,,,,,,,,,,,,,
5,56521, Note_on_c,3,54,0,,,,,,,,,,,,,,,,,,,,,,,
5,56521, Note_on_c,3,57,0,,,,,,,,,,,,,,,,,,,,,,,
5,56529, Control_c,3,64,0,,,,,,,,,,,,,,,,,,,,,,,
5,56544, Note_on_c,3,54,95,,,,,,,,,,,,,,,,,,,,,,,
5,56544, Note_on_c,3,57,114,,,,,,,,,,,,,,,,,,,,,,,
5,56544, Note_on_c,3,61,59,,,,,,,,,,,,,,,,,,,,,,,
5,56573, Control_c,3,64,127,,,,,,,,,,,,,,,,,,,,,,,
5,56613, Control_c,3,64,0,,,,,,,,,,,,,,,,,,,,,,,
5,56617, Note_on_c,3,54,0,,,,,,,,,,,,,,,,,,,,,,,
5,56619, Note_on_c,3,57,0,,,,,,,,,,,,,,,,,,,,,,,
5,56619, Note_on_c,3,61,0,,,,,,,,,,,,,,,,,,,,,,,
5,56640, Note_on_c,3,54,107,,,,,,,,,,,,,,,,,,,,,,,
5,56640, Note_on_c,3,57,127,,,,,,,,,,,,,,,,,,,,,,,
5,56640, Note_on_c,3,61,67,,,,,,,,,,,,,,,,,,,,,,,
5,56666, Control_c,3,64,127,,,,,,,,,,,,,,,,,,,,,,,
5,56702, Note_on_c,3,54,0,,,,,,,,,,,,,,,,,,,,,,,
5,56717, Note_on_c,3,61,0,,,,,,,,,,,,,,,,,,,,,,,
5,56727, Note_on_c,3,57,0,,,,,,,,,,,,,,,,,,,,,,,
5,56736, Note_on_c,3,54,95,,,,,,,,,,,,,,,,,,,,,,,
5,56763, Control_c,3,64,0,,,,,,,,,,,,,,,,,,,,,,,
5,56773, Note_on_c,3,54,0,,,,,,,,,,,,,,,,,,,,,,,
5,56784, Note_on_c,3,54,64,,,,,,,,,,,,,,,,,,,,,,,
5,56784, Note_on_c,3,57,114,,,,,,,,,,,,,,,,,,,,,,,
5,56784, Note_on_c,3,64,110,,,,,,,,,,,,,,,,,,,,,,,
5,56811, Control_c,3,64,127,,,,,,,,,,,,,,,,,,,,,,,
5,56835, Note_on_c,3,54,0,,,,,,,,,,,,,,,,,,,,,,,
5,56880, Note_on_c,3,54,92,,,,,,,,,,,,,,,,,,,,,,,
5,56894, Note_on_c,3,64,0,,,,,,,,,,,,,,,,,,,,,,,
5,56898, Note_on_c,3,57,0,,,,,,,,,,,,,,,,,,,,,,,
5,56917, Control_c,3,64,0,,,,,,,,,,,,,,,,,,,,,,,
5,56928, Note_on_c,3,57,114,,,,,,,,,,,,,,,,,,,,,,,
5,56928, Note_on_c,3,61,88,,,,,,,,,,,,,,,,,,,,,,,
5,56965, Control_c,3,64,127,,,,,,,,,,,,,,,,,,,,,,,
5,56997, Note_on_c,3,54,0,,,,,,,,,,,,,,,,,,,,,,,
5,56997, Note_on_c,3,61,0,,,,,,,,,,,,,,,,,,,,,,,
5,57003, Note_on_c,3,57,0,,,,,,,,,,,,,,,,,,,,,,,
5,57008, Control_c,3,64,0,,,,,,,,,,,,,,,,,,,,,,,
5,57024, Note_on_c,3,54,107,,,,,,,,,,,,,,,,,,,,,,,
5,57024, Note_on_c,3,57,118,,,,,,,,,,,,,,,,,,,,,,,
5,57024, Note_on_c,3,61,88,,,,,,,,,,,,,,,,,,,,,,,
5,57061, Control_c,3,64,127,,,,,,,,,,,,,,,,,,,,,,,
5,57094, Note_on_c,3,61,0,,,,,,,,,,,,,,,,,,,,,,,
5,57097, Note_on_c,3,54,0,,,,,,,,,,,,,,,,,,,,,,,
5,57105, Note_on_c,3,57,0,,,,,,,,,,,,,,,,,,,,,,,
5,57120, Note_on_c,3,54,92,,,,,,,,,,,,,,,,,,,,,,,
5,57152, Note_on_c,3,54,0,,,,,,,,,,,,,,,,,,,,,,,
5,57168, Note_on_c,3,54,50,,,,,,,,,,,,,,,,,,,,,,,
5,57168, Note_on_c,3,57,101,,,,,,,,,,,,,,,,,,,,,,,
5,57168, Note_on_c,3,61,82,,,,,,,,,,,,,,,,,,,,,,,
5,57192, Note_on_c,3,54,0,,,,,,,,,,,,,,,,,,,,,,,
5,57192, Control_c,3,64,0,,,,,,,,,,,,,,,,,,,,,,,
5,57193, Note_on_c,3,61,0,,,,,,,,,,,,,,,,,,,,,,,
5,57199, Note_on_c,3,57,0,,,,,,,,,,,,,,,,,,,,,,,
5,57216, Note_on_c,3,54,103,,,,,,,,,,,,,,,,,,,,,,,
5,57216, Note_on_c,3,57,127,,,,,,,,,,,,,,,,,,,,,,,
5,57216, Note_on_c,3,64,127,,,,,,,,,,,,,,,,,,,,,,,
5,57245, Control_c,3,64,127,,,,,,,,,,,,,,,,,,,,,,,
5,57285, Note_on_c,3,64,0,,,,,,,,,,,,,,,,,,,,,,,
5,57286, Note_on_c,3,54,0,,,,,,,,,,,,,,,,,,,,,,,
5,57294, Note_on_c,3,57,0,,,,,,,,,,,,,,,,,,,,,,,
5,57303, Control_c,3,64,0,,,,,,,,,,,,,,,,,,,,,,,
5,57312, Note_on_c,3,54,107,,,,,,,,,,,,,,,,,,,,,,,
5,57312, Note_on_c,3,57,122,,,,,,,,,,,,,,,,,,,,,,,
5,57312, Note_on_c,3,61,82,,,,,,,,,,,,,,,,,,,,,,,
5,57351, Control_c,3,64,127,,,,,,,,,,,,,,,,,,,,,,,
5,57383, Note_on_c,3,54,0,,,,,,,,,,,,,,,,,,,,,,,
5,57385, Note_on_c,3,61,0,,,,,,,,,,,,,,,,,,,,,,,
5,57388, Note_on_c,3,57,0,,,,,,,,,,,,,,,,,,,,,,,
5,57391, Control_c,3,64,0,,,,,,,,,,,,,,,,,,,,,,,
5,57408, Note_on_c,3,54,107,,,,,,,,,,,,,,,,,,,,,,,
5,57408, Note_on_c,3,57,122,,,,,,,,,,,,,,,,,,,,,,,
5,57408, Note_on_c,3,61,99,,,,,,,,,,,,,,,,,,,,,,,
5,57444, Control_c,3,64,127,,,,,,,,,,,,,,,,,,,,,,,
5,57461, Note_on_c,3,54,0,,,,,,,,,,,,,,,,,,,,,,,
5,57482, Note_on_c,3,57,0,,,,,,,,,,,,,,,,,,,,,,,
5,57488, Note_on_c,3,61,0,,,,,,,,,,,,,,,,,,,,,,,
5,57504, Note_on_c,3,54,99,,,,,,,,,,,,,,,,,,,,,,,
5,57523, Control_c,3,64,0,,,,,,,,,,,,,,,,,,,,,,,
5,57552, Note_on_c,3,57,114,,,,,,,,,,,,,,,,,,,,,,,
5,57552, Note_on_c,3,64,114,,,,,,,,,,,,,,,,,,,,,,,
5,57580, Control_c,3,64,127,,,,,,,,,,,,,,,,,,,,,,,
5,57605, Note_on_c,3,54,0,,,,,,,,,,,,,,,,,,,,,,,
5,57641, Note_on_c,3,57,0,,,,,,,,,,,,,,,,,,,,,,,
5,57648, Note_on_c,3,54,95,,,,,,,,,,,,,,,,,,,,,,,
5,57665, Note_on_c,3,64,0,,,,,,,,,,,,,,,,,,,,,,,
5,57676, Control_c,3,64,0,,,,,,,,,,,,,,,,,,,,,,,
5,57685, Note_on_c,3,54,0,,,,,,,,,,,,,,,,,,,,,,,
5,57696, Note_on_c,3,54,78,,,,,,,,,,,,,,,,,,,,,,,
5,57696, Note_on_c,3,57,110,,,,,,,,,,,,,,,,,,,,,,,
5,57696, Note_on_c,3,61,51,,,,,,,,,,,,,,,,,,,,,,,
5,57730, Control_c,3,64,127,,,,,,,,,,,,,,,,,,,,,,,
5,57768, Note_on_c,3,61,0,,,,,,,,,,,,,,,,,,,,,,,
5,57772, Note_on_c,3,54,0,,,,,,,,,,,,,,,,,,,,,,,
5,57774, Note_on_c,3,57,0,,,,,,,,,,,,,,,,,,,,,,,
5,57778, Control_c,3,64,0,,,,,,,,,,,,,,,,,,,,,,,
5,57792, Note_on_c,3,54,107,,,,,,,,,,,,,,,,,,,,,,,
5,57792, Note_on_c,3,57,127,,,,,,,,,,,,,,,,,,,,,,,
5,57792, Note_on_c,3,61,64,,,,,,,,,,,,,,,,,,,,,,,
5,57826, Control_c,3,64,127,,,,,,,,,,,,,,,,,,,,,,,
5,57855, Note_on_c,3,61,0,,,,,,,,,,,,,,,,,,,,,,,
5,57860, Note_on_c,3,54,0,,,,,,,,,,,,,,,,,,,,,,,
5,57865, Note_on_c,3,57,0,,,,,,,,,,,,,,,,,,,,,,,
5,57870, Control_c,3,64,0,,,,,,,,,,,,,,,,,,,,,,,
5,57888, Note_on_c,3,54,103,,,,,,,,,,,,,,,,,,,,,,,
5,57888, Note_on_c,3,57,110,,,,,,,,,,,,,,,,,,,,,,,
5,57888, Note_on_c,3,61,80,,,,,,,,,,,,,,,,,,,,,,,
5,57906, Control_c,3,64,127,,,,,,,,,,,,,,,,,,,,,,,
5,57915, Note_on_c,3,54,0,,,,,,,,,,,,,,,,,,,,,,,
5,57929, Note_on_c,3,61,0,,,,,,,,,,,,,,,,,,,,,,,
5,57936, Note_on_c,3,54,88,,,,,,,,,,,,,,,,,,,,,,,
5,57953, Note_on_c,3,57,0,,,,,,,,,,,,,,,,,,,,,,,
5,57970, Note_on_c,3,54,0,,,,,,,,,,,,,,,,,,,,,,,
5,57977, Control_c,3,64,0,,,,,,,,,,,,,,,,,,,,,,,
5,57984, Note_on_c,3,54,103,,,,,,,,,,,,,,,,,,,,,,,
5,57984, Note_on_c,3,57,118,,,,,,,,,,,,,,,,,,,,,,,
5,57984, Note_on_c,3,64,122,,,,,,,,,,,,,,,,,,,,,,,
5,57984, Note_on_c,3,64,118,,,,,,,,,,,,,,,,,,,,,,,
5,57990, Control_c,3,64,127,,,,,,,,,,,,,,,,,,,,,,,
5,58060, Note_on_c,3,64,0,,,,,,,,,,,,,,,,,,,,,,,
5,58062, Note_on_c,3,54,0,,,,,,,,,,,,,,,,,,,,,,,
5,58063, Note_on_c,3,64,0,,,,,,,,,,,,,,,,,,,,,,,
5,58064, Control_c,3,64,0,,,,,,,,,,,,,,,,,,,,,,,
5,58065, Note_on_c,3,57,0,,,,,,,,,,,,,,,,,,,,,,,
5,58080, Note_on_c,3,54,92,,,,,,,,,,,,,,,,,,,,,,,
5,58080, Note_on_c,3,57,110,,,,,,,,,,,,,,,,,,,,,,,
5,58080, Note_on_c,3,61,88,,,,,,,,,,,,,,,,,,,,,,,
5,58166, Note_on_c,3,54,0,,,,,,,,,,,,,,,,,,,,,,,
5,58167, Note_on_c,3,61,0,,,,,,,,,,,,,,,,,,,,,,,
5,58169, Note_on_c,3,57,0,,,,,,,,,,,,,,,,,,,,,,,
5,58176, Note_on_c,3,54,103,,,,,,,,,,,,,,,,,,,,,,,
5,58176, Note_on_c,3,57,127,,,,,,,,,,,,,,,,,,,,,,,
5,58176, Note_on_c,3,61,92,,,,,,,,,,,,,,,,,,,,,,,
5,58184, Control_c,3,64,127,,,,,,,,,,,,,,,,,,,,,,,
5,58224, Note_on_c,3,54,0,,,,,,,,,,,,,,,,,,,,,,,
5,58240, Note_on_c,3,61,0,,,,,,,,,,,,,,,,,,,,,,,
5,58245, Note_on_c,3,57,0,,,,,,,,,,,,,,,,,,,,,,,
5,58272, Note_on_c,3,54,86,,,,,,,,,,,,,,,,,,,,,,,
5,58300, Note_on_c,3,54,0,,,,,,,,,,,,,,,,,,,,,,,
5,58301, Control_c,3,64,0,,,,,,,,,,,,,,,,,,,,,,,
5,58320, Note_on_c,3,54,92,,,,,,,,,,,,,,,,,,,,,,,
5,58320, Note_on_c,3,57,114,,,,,,,,,,,,,,,,,,,,,,,
5,58320, Note_on_c,3,64,114,,,,,,,,,,,,,,,,,,,,,,,
5,58341, Control_c,3,64,127,,,,,,,,,,,,,,,,,,,,,,,
5,58370, Note_on_c,3,54,0,,,,,,,,,,,,,,,,,,,,,,,
5,58399, Note_on_c,3,57,0,,,,,,,,,,,,,,,,,,,,,,,
5,58416, Note_on_c,3,54,86,,,,,,,,,,,,,,,,,,,,,,,
5,58424, Note_on_c,3,64,0,,,,,,,,,,,,,,,,,,,,,,,
5,58445, Note_on_c,3,54,0,,,,,,,,,,,,,,,,,,,,,,,
5,58450, Control_c,3,64,0,,,,,,,,,,,,,,,,,,,,,,,
5,58464, Note_on_c,3,54,99,,,,,,,,,,,,,,,,,,,,,,,
5,58464, Note_on_c,3,57,110,,,,,,,,,,,,,,,,,,,,,,,
5,58464, Note_on_c,3,61,78,,,,,,,,,,,,,,,,,,,,,,,
5,58490, Control_c,3,64,127,,,,,,,,,,,,,,,,,,,,,,,
5,58543, Control_c,3,64,0,,,,,,,,,,,,,,,,,,,,,,,
5,58545, Note_on_c,3,54,0,,,,,,,,,,,,,,,,,,,,,,,
5,58546, Note_on_c,3,61,0,,,,,,,,,,,,,,,,,,,,,,,
5,58549, Note_on_c,3,57,0,,,,,,,,,,,,,,,,,,,,,,,
5,58560, Note_on_c,3,54,107,,,,,,,,,,,,,,,,,,,,,,,
5,58560, Note_on_c,3,57,127,,,,,,,,,,,,,,,,,,,,,,,
5,58560, Note_on_c,3,61,86,,,,,,,,,,,,,,,,,,,,,,,
5,58582, Control_c,3,64,127,,,,,,,,,,,,,,,,,,,,,,,
5,58624, Note_on_c,3,54,0,,,,,,,,,,,,,,,,,,,,,,,
5,58630, Note_on_c,3,61,0,,,,,,,,,,,,,,,,,,,,,,,
5,58640, Note_on_c,3,57,0,,,,,,,,,,,,,,,,,,,,,,,
5,58656, Note_on_c,3,54,88,,,,,,,,,,,,,,,,,,,,,,,
5,58704, Note_on_c,3,57,95,,,,,,,,,,,,,,,,,,,,,,,
5,58715, Note_on_c,3,54,0,,,,,,,,,,,,,,,,,,,,,,,
5,58736, Note_on_c,3,57,0,,,,,,,,,,,,,,,,,,,,,,,
5,58742, Control_c,3,64,0,,,,,,,,,,,,,,,,,,,,,,,
5,58752, Note_on_c,3,54,103,,,,,,,,,,,,,,,,,,,,,,,
5,58752, Note_on_c,3,57,122,,,,,,,,,,,,,,,,,,,,,,,
5,58752, Note_on_c,3,64,122,,,,,,,,,,,,,,,,,,,,,,,
5,58790, Control_c,3,64,127,,,,,,,,,,,,,,,,,,,,,,,
5,58822, Note_on_c,3,64,0,,,,,,,,,,,,,,,,,,,,,,,
5,58823, Note_on_c,3,54,0,,,,,,,,,,,,,,,,,,,,,,,
5,58827, Note_on_c,3,57,0,,,,,,,,,,,,,,,,,,,,,,,
5,58843, Control_c,3,64,0,,,,,,,,,,,,,,,,,,,,,,,
5,58848, Note_on_c,3,54,99,,,,,,,,,,,,,,,,,,,,,,,
5,58848, Note_on_c,3,57,118,,,,,,,,,,,,,,,,,,,,,,,
5,58848, Note_on_c,3,61,82,,,,,,,,,,,,,,,,,,,,,,,
5,58882, Control_c,3,64,127,,,,,,,,,,,,,,,,,,,,,,,
5,58920, Note_on_c,3,61,0,,,,,,,,,,,,,,,,,,,,,,,
5,58922, Control_c,3,64,0,,,,,,,,,,,,,,,,,,,,,,,
5,58924, Note_on_c,3,54,0,,,,,,,,,,,,,,,,,,,,,,,
5,58925, Note_on_c,3,57,0,,,,,,,,,,,,,,,,,,,,,,,
5,58944, Note_on_c,3,54,103,,,,,,,,,,,,,,,,,,,,,,,
5,58944, Note_on_c,3,57,127,,,,,,,,,,,,,,,,,,,,,,,
5,58944, Note_on_c,3,61,88,,,,,,,,,,,,,,,,,,,,,,,
5,58966, Control_c,3,64,127,,,,,,,,,,,,,,,,,,,,,,,
5,58995, Note_on_c,3,54,0,,,,,,,,,,,,,,,,,,,,,,,
5,59019, Note_on_c,3,57,0,,,,,,,,,,,,,,,,,,,,,,,
5,59019, Note_on_c,3,61,0,,,,,,,,,,,,,,,,,,,,,,,
5,59040, Note_on_c,3,54,99,,,,,,,,,,,,,,,,,,,,,,,
5,59063, Control_c,3,64,0,,,,,,,,,,,,,,,,,,,,,,,
5,59088, Note_on_c,3,57,107,,,,,,,,,,,,,,,,,,,,,,,
5,59088, Note_on_c,3,64,107,,,,,,,,,,,,,,,,,,,,,,,
5,59107, Control_c,3,64,127,,,,,,,,,,,,,,,,,,,,,,,
5,59135, Note_on_c,3,54,0,,,,,,,,,,,,,,,,,,,,,,,
5,59162, Note_on_c,3,57,0,,,,,,,,,,,,,,,,,,,,,,,
5,59180, Note_on_c,3,64,0,,,,,,,,,,,,,,,,,,,,,,,
5,59184, Note_on_c,3,54,95,,,,,,,,,,,,,,,,,,,,,,,
5,59184, Note_on_c,3,57,98,,,,,,,,,,,,,,,,,,,,,,,
5,59184, Note_on_c,3,61,86,,,,,,,,,,,,,,,,,,,,,,,
5,59213, Note_on_c,3,57,0,,,,,,,,,,,,,,,,,,,,,,,
5,59216, Note_on_c,3,54,0,,,,,,,,,,,,,,,,,,,,,,,
5,59217, Note_on_c,3,61,0,,,,,,,,,,,,,,,,,,,,,,,
5,59232, Note_on_c,3,54,99,,,,,,,,,,,,,,,,,,,,,,,
5,59232, Note_on_c,3,57,110,,,,,,,,,,,,,,,,,,,,,,,
5,59232, Note_on_c,3,61,86,,,,,,,,,,,,,,,,,,,,,,,
5,59235, Control_c,3,64,0,,,,,,,,,,,,,,,,,,,,,,,
5,59283, Control_c,3,64,127,,,,,,,,,,,,,,,,,,,,,,,
5,59303, Note_on_c,3,61,0,,,,,,,,,,,,,,,,,,,,,,,
5,59309, Note_on_c,3,54,0,,,,,,,,,,,,,,,,,,,,,,,
5,59311, Note_on_c,3,57,0,,,,,,,,,,,,,,,,,,,,,,,
5,59323, Control_c,3,64,0,,,,,,,,,,,,,,,,,,,,,,,
5,59328, Note_on_c,3,54,95,,,,,,,,,,,,,,,,,,,,,,,
5,59328, Note_on_c,3,57,114,,,,,,,,,,,,,,,,,,,,,,,
5,59328, Note_on_c,3,61,86,,,,,,,,,,,,,,,,,,,,,,,
5,59362, Control_c,3,64,127,,,,,,,,,,,,,,,,,,,,,,,
5,59395, Note_on_c,3,61,0,,,,,,,,,,,,,,,,,,,,,,,
5,59398, Note_on_c,3,54,0,,,,,,,,,,,,,,,,,,,,,,,
5,59404, Note_on_c,3,57,0,,,,,,,,,,,,,,,,,,,,,,,
5,59424, Note_on_c,3,54,95,,,,,,,,,,,,,,,,,,,,,,,
5,59451, Note_on_c,3,54,0,,,,,,,,,,,,,,,,,,,,,,,
5,59472, Note_on_c,3,54,59,,,,,,,,,,,,,,,,,,,,,,,
5,59472, Note_on_c,3,57,74,,,,,,,,,,,,,,,,,,,,,,,
5,59472, Note_on_c,3,61,74,,,,,,,,,,,,,,,,,,,,,,,
5,59491, Note_on_c,3,54,0,,,,,,,,,,,,,,,,,,,,,,,
5,59494, Note_on_c,3,57,0,,,,,,,,,,,,,,,,,,,,,,,
5,59495, Note_on_c,3,61,0,,,,,,,,,,,,,,,,,,,,,,,
5,59500, Control_c,3,64,0,,,,,,,,,,,,,,,,,,,,,,,
5,59520, Note_on_c,3,54,92,,,,,,,,,,,,,,,,,,,,,,,
5,59520, Note_on_c,3,57,110,,,,,,,,,,,,,,,,,,,,,,,
5,59520, Note_on_c,3,64,110,,,,,,,,,,,,,,,,,,,,,,,
5,59553, Control_c,3,64,127,,,,,,,,,,,,,,,,,,,,,,,
5,59589, Note_on_c,3,64,0,,,,,,,,,,,,,,,,,,,,,,,
5,59593, Note_on_c,3,54,0,,,,,,,,,,,,,,,,,,,,,,,
5,59593, Note_on_c,3,57,0,,,,,,,,,,,,,,,,,,,,,,,
5,59601, Control_c,3,64,0,,,,,,,,,,,,,,,,,,,,,,,
5,59616, Note_on_c,3,54,95,,,,,,,,,,,,,,,,,,,,,,,
5,59616, Note_on_c,3,57,114,,,,,,,,,,,,,,,,,,,,,,,
5,59616, Note_on_c,3,61,59,,,,,,,,,,,,,,,,,,,,,,,
5,59645, Control_c,3,64,127,,,,,,,,,,,,,,,,,,,,,,,
5,59685, Control_c,3,64,0,,,,,,,,,,,,,,,,,,,,,,,
5,59689, Note_on_c,3,54,0,,,,,,,,,,,,,,,,,,,,,,,
5,59691, Note_on_c,3,57,0,,,,,,,,,,,,,,,,,,,,,,,
5,59691, Note_on_c,3,61,0,,,,,,,,,,,,,,,,,,,,,,,
5,59712, Note_on_c,3,54,107,,,,,,,,,,,,,,,,,,,,,,,
5,59712, Note_on_c,3,57,127,,,,,,,,,,,,,,,,,,,,,,,
5,59712, Note_on_c,3,61,67,,,,,,,,,,,,,,,,,,,,,,,
5,59738, Control_c,3,64,127,,,,,,,,,,,,,,,,,,,,,,,
5,59774, Note_on_c,3,54,0,,,,,,,,,,,,,,,,,,,,,,,
5,59789, Note_on_c,3,61,0,,,,,,,,,,,,,,,,,,,,,,,
5,59799, Note_on_c,3,57,0,,,,,,,,,,,,,,,,,,,,,,,
5,59808, Note_on_c,3,54,95,,,,,,,,,,,,,,,,,,,,,,,
5,59835, Control_c,3,64,0,,,,,,,,,,,,,,,,,,,,,,,
5,59845, Note_on_c,3,54,0,,,,,,,,,,,,,,,,,,,,,,,
5,59856, Note_on_c,3,54,64,,,,,,,,,,,,,,,,,,,,,,,
5,59856, Note_on_c,3,57,114,,,,,,,,,,,,,,,,,,,,,,,
5,59856, Note_on_c,3,64,110,,,,,,,,,,,,,,,,,,,,,,,
5,59883, Control_c,3,64,127,,,,,,,,,,,,,,,,,,,,,,,
5,59907, Note_on_c,3,54,0,,,,,,,,,,,,,,,,,,,,,,,
5,59952, Note_on_c,3,54,92,,,,,,,,,,,,,,,,,,,,,,,
5,59966, Note_on_c,3,64,0,,,,,,,,,,,,,,,,,,,,,,,
5,59970, Note_on_c,3,57,0,,,,,,,,,,,,,,,,,,,,,,,
5,59989, Control_c,3,64,0,,,,,,,,,,,,,,,,,,,,,,,
5,60000, Note_on_c,3,57,114,,,,,,,,,,,,,,,,,,,,,,,
5,60000, Note_on_c,3,61,88,,,,,,,,,,,,,,,,,,,,,,,
5,60037, Control_c,3,64,127,,,,,,,,,,,,,,,,,,,,,,,
5,60069, Note_on_c,3,54,0,,,,,,,,,,,,,,,,,,,,,,,
5,60069, Note_on_c,3,61,0,,,,,,,,,,,,,,,,,,,,,,,
5,60075, Note_on_c,3,57,0,,,,,,,,,,,,,,,,,,,,,,,
5,60080, Control_c,3,64,0,,,,,,,,,,,,,,,,,,,,,,,
5,60096, Note_on_c,3,54,107,,,,,,,,,,,,,,,,,,,,,,,
5,60096, Note_on_c,3,57,118,,,,,,,,,,,,,,,,,,,,,,,
5,60096, Note_on_c,3,61,88,,,,,,,,,,,,,,,,,,,,,,,
5,60133, Control_c,3,64,127,,,,,,,,,,,,,,,,,,,,,,,
5,60166, Note_on_c,3,61,0,,,,,,,,,,,,,,,,,,,,,,,
5,60169, Note_on_c,3,54,0,,,,,,,,,,,,,,,,,,,,,,,
5,60177, Note_on_c,3,57,0,,,,,,,,,,,,,,,,,,,,,,,
5,60192, Note_on_c,3,54,92,,,,,,,,,,,,,,,,,,,,,,,
5,60224, Note_on_c,3,54,0,,,,,,,,,,,,,,,,,,,,,,,
5,60240, Note_on_c,3,54,50,,,,,,,,,,,,,,,,,,,,,,,
5,60240, Note_on_c,3,57,101,,,,,,,,,,,,,,,,,,,,,,,
5,60240, Note_on_c,3,61,82,,,,,,,,,,,,,,,,,,,,,,,
5,60264, Note_on_c,3,54,0,,,,,,,,,,,,,,,,,,,,,,,
5,60264, Control_c,3,64,0,,,,,,,,,,,,,,,,,,,,,,,
5,60265, Note_on_c,3,61,0,,,,,,,,,,,,,,,,,,,,,,,
5,60271, Note_on_c,3,57,0,,,,,,,,,,,,,,,,,,,,,,,
5,60288, Note_on_c,3,54,103,,,,,,,,,,,,,,,,,,,,,,,
5,60288, Note_on_c,3,57,127,,,,,,,,,,,,,,,,,,,,,,,
5,60288, Note_on_c,3,64,127,,,,,,,,,,,,,,,,,,,,,,,
5,60317, Control_c,3,64,127,,,,,,,,,,,,,,,,,,,,,,,
5,60357, Note_on_c,3,64,0,,,,,,,,,,,,,,,,,,,,,,,
5,60358, Note_on_c,3,54,0,,,,,,,,,,,,,,,,,,,,,,,
5,60366, Note_on_c,3,57,0,,,,,,,,,,,,,,,,,,,,,,,
5,60375, Control_c,3,64,0,,,,,,,,,,,,,,,,,,,,,,,
5,60384, Note_on_c,3,54,107,,,,,,,,,,,,,,,,,,,,,,,
5,60384, Note_on_c,3,57,122,,,,,,,,,,,,,,,,,,,,,,,
5,60384, Note_on_c,3,61,82,,,,,,,,,,,,,,,,,,,,,,,
5,60423, Control_c,3,64,127,,,,,,,,,,,,,,,,,,,,,,,
5,60455, Note_on_c,3,54,0,,,,,,,,,,,,,,,,,,,,,,,
5,60457, Note_on_c,3,61,0,,,,,,,,,,,,,,,,,,,,,,,
5,60460, Note_on_c,3,57,0,,,,,,,,,,,,,,,,,,,,,,,
5,60463, Control_c,3,64,0,,,,,,,,,,,,,,,,,,,,,,,
5,60480, Note_on_c,3,54,107,,,,,,,,,,,,,,,,,,,,,,,
5,60480, Note_on_c,3,57,122,,,,,,,,,,,,,,,,,,,,,,,
5,60480, Note_on_c,3,61,99,,,,,,,,,,,,,,,,,,,,,,,
5,60516, Control_c,3,64,127,,,,,,,,,,,,,,,,,,,,,,,
5,60533, Note_on_c,3,54,0,,,,,,,,,,,,,,,,,,,,,,,
5,60554, Note_on_c,3,57,0,,,,,,,,,,,,,,,,,,,,,,,
5,60560, Note_on_c,3,61,0,,,,,,,,,,,,,,,,,,,,,,,
5,60576, Note_on_c,3,54,99,,,,,,,,,,,,,,,,,,,,,,,
5,60595, Control_c,3,64,0,,,,,,,,,,,,,,,,,,,,,,,
5,60624, Note_on_c,3,57,114,,,,,,,,,,,,,,,,,,,,,,,
5,60624, Note_on_c,3,64,114,,,,,,,,,,,,,,,,,,,,,,,
5,60652, Control_c,3,64,127,,,,,,,,,,,,,,,,,,,,,,,
5,60677, Note_on_c,3,54,0,,,,,,,,,,,,,,,,,,,,,,,
5,60713, Note_on_c,3,57,0,,,,,,,,,,,,,,,,,,,,,,,
5,60720, Note_on_c,3,54,95,,,,,,,,,,,,,,,,,,,,,,,
5,60737, Note_on_c,3,64,0,,,,,,,,,,,,,,,,,,,,,,,
5,60748, Control_c,3,64,0,,,,,,,,,,,,,,,,,,,,,,,
5,60757, Note_on_c,3,54,0,,,,,,,,,,,,,,,,,,,,,,,
5,60768, Note_on_c,3,54,78,,,,,,,,,,,,,,,,,,,,,,,
5,60768, Note_on_c,3,57,110,,,,,,,,,,,,,,,,,,,,,,,
5,60768, Note_on_c,3,61,51,,,,,,,,,,,,,,,,,,,,,,,
5,60802, Control_c,3,64,127,,,,,,,,,,,,,,,,,,,,,,,
5,60840, Note_on_c,3,61,0,,,,,,,,,,,,,,,,,,,,,,,
5,60844, Note_on_c,3,54,0,,,,,,,,,,,,,,,,,,,,,,,
5,60846, Note_on_c,3,57,0,,,,,,,,,,,,,,,,,,,,,,,
5,60850, Control_c,3,64,0,,,,,,,,,,,,,,,,,,,,,,,
5,60864, Note_on_c,3,54,107,,,,,,,,,,,,,,,,,,,,,,,
5,60864, Note_on_c,3,57,127,,,,,,,,,,,,,,,,,,,,,,,
5,60864, Note_on_c,3,61,64,,,,,,,,,,,,,,,,,,,,,,,
5,60898, Control_c,3,64,127,,,,,,,,,,,,,,,,,,,,,,,
5,60927, Note_on_c,3,61,0,,,,,,,,,,,,,,,,,,,,,,,
5,60932, Note_on_c,3,54,0,,,,,,,,,,,,,,,,,,,,,,,
5,60937, Note_on_c,3,57,0,,,,,,,,,,,,,,,,,,,,,,,
5,60942, Control_c,3,64,0,,,,,,,,,,,,,,,,,,,,,,,
5,60960, Note_on_c,3,54,103,,,,,,,,,,,,,,,,,,,,,,,
5,60960, Note_on_c,3,57,110,,,,,,,,,,,,,,,,,,,,,,,
5,60960, Note_on_c,3,61,80,,,,,,,,,,,,,,,,,,,,,,,
5,60978, Control_c,3,64,127,,,,,,,,,,,,,,,,,,,,,,,
5,60987, Note_on_c,3,54,0,,,,,,,,,,,,,,,,,,,,,,,
5,61001, Note_on_c,3,61,0,,,,,,,,,,,,,,,,,,,,,,,
5,61008, Note_on_c,3,54,88,,,,,,,,,,,,,,,,,,,,,,,
5,61025, Note_on_c,3,57,0,,,,,,,,,,,,,,,,,,,,,,,
5,61042, Note_on_c,3,54,0,,,,,,,,,,,,,,,,,,,,,,,
5,61049, Control_c,3,64,0,,,,,,,,,,,,,,,,,,,,,,,
5,61056, Note_on_c,3,54,95,,,,,,,,,,,,,,,,,,,,,,,
5,61056, Note_on_c,3,57,118,,,,,,,,,,,,,,,,,,,,,,,
5,61056, Note_on_c,3,64,122,,,,,,,,,,,,,,,,,,,,,,,
5,61097, Control_c,3,64,127,,,,,,,,,,,,,,,,,,,,,,,
5,61132, Note_on_c,3,54,0,,,,,,,,,,,,,,,,,,,,,,,
5,61135, Note_on_c,3,64,0,,,,,,,,,,,,,,,,,,,,,,,
5,61138, Note_on_c,3,57,0,,,,,,,,,,,,,,,,,,,,,,,
5,61152, Note_on_c,3,54,103,,,,,,,,,,,,,,,,,,,,,,,
5,61152, Note_on_c,3,57,118,,,,,,,,,,,,,,,,,,,,,,,
5,61152, Note_on_c,3,61,46,,,,,,,,,,,,,,,,,,,,,,,
5,61154, Control_c,3,64,0,,,,,,,,,,,,,,,,,,,,,,,
5,61194, Control_c,3,64,127,,,,,,,,,,,,,,,,,,,,,,,
5,61214, Note_on_c,3,61,0,,,,,,,,,,,,,,,,,,,,,,,
5,61227, Note_on_c,3,54,0,,,,,,,,,,,,,,,,,,,,,,,
5,61229, Control_c,3,64,0,,,,,,,,,,,,,,,,,,,,,,,
5,61231, Note_on_c,3,57,0,,,,,,,,,,,,,,,,,,,,,,,
5,61248, Note_on_c,3,54,107,,,,,,,,,,,,,,,,,,,,,,,
5,61248, Note_on_c,3,57,122,,,,,,,,,,,,,,,,,,,,,,,
5,61248, Note_on_c,3,61,82,,,,,,,,,,,,,,,,,,,,,,,
5,61273, Control_c,3,64,127,,,,,,,,,,,,,,,,,,,,,,,
5,61297, Note_on_c,3,54,0,,,,,,,,,,,,,,,,,,,,,,,
5,61315, Note_on_c,3,61,0,,,,,,,,,,,,,,,,,,,,,,,
5,61321, Note_on_c,3,57,0,,,,,,,,,,,,,,,,,,,,,,,
5,61344, Note_on_c,3,54,99,,,,,,,,,,,,,,,,,,,,,,,
5,61369, Control_c,3,64,0,,,,,,,,,,,,,,,,,,,,,,,
5,61380, Note_on_c,3,54,0,,,,,,,,,,,,,,,,,,,,,,,
5,61392, Note_on_c,3,54,74,,,,,,,,,,,,,,,,,,,,,,,
5,61392, Note_on_c,3,57,114,,,,,,,,,,,,,,,,,,,,,,,
5,61392, Note_on_c,3,64,114,,,,,,,,,,,,,,,,,,,,,,,
5,61417, Control_c,3,64,127,,,,,,,,,,,,,,,,,,,,,,,
5,61442, Note_on_c,3,54,0,,,,,,,,,,,,,,,,,,,,,,,
5,61483, Note_on_c,3,64,0,,,,,,,,,,,,,,,,,,,,,,,
5,61488, Note_on_c,3,54,88,,,,,,,,,,,,,,,,,,,,,,,
5,61510, Note_on_c,3,57,0,,,,,,,,,,,,,,,,,,,,,,,
5,61510, Control_c,3,64,0,,,,,,,,,,,,,,,,,,,,,,,
5,61536, Note_on_c,3,57,118,,,,,,,,,,,,,,,,,,,,,,,
5,61536, Note_on_c,3,61,74,,,,,,,,,,,,,,,,,,,,,,,
5,61554, Control_c,3,64,127,,,,,,,,,,,,,,,,,,,,,,,
5,61606, Control_c,3,64,0,,,,,,,,,,,,,,,,,,,,,,,
5,61610, Note_on_c,3,61,0,,,,,,,,,,,,,,,,,,,,,,,
5,61612, Note_on_c,3,54,0,,,,,,,,,,,,,,,,,,,,,,,
5,61619, Note_on_c,3,57,0,,,,,,,,,,,,,,,,,,,,,,,
5,61632, Note_on_c,3,54,107,,,,,,,,,,,,,,,,,,,,,,,
5,61632, Note_on_c,3,57,122,,,,,,,,,,,,,,,,,,,,,,,
5,61632, Note_on_c,3,61,88,,,,,,,,,,,,,,,,,,,,,,,
5,61651, Control_c,3,64,127,,,,,,,,,,,,,,,,,,,,,,,
5,61689, Note_on_c,3,54,0,,,,,,,,,,,,,,,,,,,,,,,
5,61692, Note_on_c,3,61,0,,,,,,,,,,,,,,,,,,,,,,,
5,61709, Note_on_c,3,57,0,,,,,,,,,,,,,,,,,,,,,,,
5,61728, Note_on_c,3,54,86,,,,,,,,,,,,,,,,,,,,,,,
5,61728, Note_on_c,3,57,107,,,,,,,,,,,,,,,,,,,,,,,
5,61728, Note_on_c,3,61,92,,,,,,,,,,,,,,,,,,,,,,,
5,61750, Note_on_c,3,54,0,,,,,,,,,,,,,,,,,,,,,,,
5,61752, Note_on_c,3,57,0,,,,,,,,,,,,,,,,,,,,,,,
5,61754, Note_on_c,3,61,0,,,,,,,,,,,,,,,,,,,,,,,
5,61776, Note_on_c,3,54,88,,,,,,,,,,,,,,,,,,,,,,,
5,61801, Control_c,3,64,0,,,,,,,,,,,,,,,,,,,,,,,
5,61824, Note_on_c,3,57,110,,,,,,,,,,,,,,,,,,,,,,,
5,61824, Note_on_c,3,64,114,,,,,,,,,,,,,,,,,,,,,,,
5,61850, Control_c,3,64,127,,,,,,,,,,,,,,,,,,,,,,,
5,61876, Note_on_c,3,54,0,,,,,,,,,,,,,,,,,,,,,,,
5,61897, Note_on_c,3,64,0,,,,,,,,,,,,,,,,,,,,,,,
5,61898, Note_on_c,3,57,0,,,,,,,,,,,,,,,,,,,,,,,
5,61916, Control_c,3,64,0,,,,,,,,,,,,,,,,,,,,,,,
5,61920, Note_on_c,3,54,95,,,,,,,,,,,,,,,,,,,,,,,
5,61920, Note_on_c,3,57,110,,,,,,,,,,,,,,,,,,,,,,,
5,61920, Note_on_c,3,61,92,,,,,,,,,,,,,,,,,,,,,,,
5,61959, Control_c,3,64,127,,,,,,,,,,,,,,,,,,,,,,,
5,61988, Note_on_c,3,61,0,,,,,,,,,,,,,,,,,,,,,,,
5,61990, Control_c,3,64,0,,,,,,,,,,,,,,,,,,,,,,,
5,61995, Note_on_c,3,54,0,,,,,,,,,,,,,,,,,,,,,,,
5,61995, Note_on_c,3,57,0,,,,,,,,,,,,,,,,,,,,,,,
5,62016, Note_on_c,3,54,103,,,,,,,,,,,,,,,,,,,,,,,
5,62016, Note_on_c,3,57,127,,,,,,,,,,,,,,,,,,,,,,,
5,62016, Note_on_c,3,61,72,,,,,,,,,,,,,,,,,,,,,,,
5,62037, Control_c,3,64,127,,,,,,,,,,,,,,,,,,,,,,,
5,62069, Note_on_c,3,54,0,,,,,,,,,,,,,,,,,,,,,,,
5,62082, Note_on_c,3,61,0,,,,,,,,,,,,,,,,,,,,,,,
5,62093, Note_on_c,3,57,0,,,,,,,,,,,,,,,,,,,,,,,
5,62112, Note_on_c,3,54,95,,,,,,,,,,,,,,,,,,,,,,,
5,62138, Control_c,3,64,0,,,,,,,,,,,,,,,,,,,,,,,
5,62152, Note_on_c,3,54,0,,,,,,,,,,,,,,,,,,,,,,,
5,62160, Note_on_c,3,54,48,,,,,,,,,,,,,,,,,,,,,,,
5,62160, Note_on_c,3,57,110,,,,,,,,,,,,,,,,,,,,,,,
5,62160, Note_on_c,3,64,110,,,,,,,,,,,,,,,,,,,,,,,
5,62191, Control_c,3,64,127,,,,,,,,,,,,,,,,,,,,,,,
5,62206, Note_on_c,3,54,0,,,,,,,,,,,,,,,,,,,,,,,
5,62235, Note_on_c,3,57,0,,,,,,,,,,,,,,,,,,,,,,,
5,62256, Note_on_c,3,54,95,,,,,,,,,,,,,,,,,,,,,,,
5,62279, Control_c,3,64,0,,,,,,,,,,,,,,,,,,,,,,,
5,62287, Note_on_c,3,64,0,,,,,,,,,,,,,,,,,,,,,,,
5,62304, Note_on_c,3,57,118,,,,,,,,,,,,,,,,,,,,,,,
5,62304, Note_on_c,3,61,52,,,,,,,,,,,,,,,,,,,,,,,
5,62328, Control_c,3,64,127,,,,,,,,,,,,,,,,,,,,,,,
5,62373, Note_on_c,3,61,0,,,,,,,,,,,,,,,,,,,,,,,
5,62380, Note_on_c,3,54,0,,,,,,,,,,,,,,,,,,,,,,,
5,62383, Note_on_c,3,57,0,,,,,,,,,,,,,,,,,,,,,,,
5,62389, Control_c,3,64,0,,,,,,,,,,,,,,,,,,,,,,,
5,62400, Note_on_c,3,54,99,,,,,,,,,,,,,,,,,,,,,,,
5,62400, Note_on_c,3,57,107,,,,,,,,,,,,,,,,,,,,,,,
5,62400, Note_on_c,3,61,82,,,,,,,,,,,,,,,,,,,,,,,
5,62429, Control_c,3,64,127,,,,,,,,,,,,,,,,,,,,,,,
5,62471, Note_on_c,3,61,0,,,,,,,,,,,,,,,,,,,,,,,
5,62481, Note_on_c,3,54,0,,,,,,,,,,,,,,,,,,,,,,,
5,62482, Note_on_c,3,57,0,,,,,,,,,,,,,,,,,,,,,,,
5,62496, Note_on_c,3,54,103,,,,,,,,,,,,,,,,,,,,,,,
5,62496, Note_on_c,3,57,122,,,,,,,,,,,,,,,,,,,,,,,
5,62496, Note_on_c,3,61,74,,,,,,,,,,,,,,,,,,,,,,,
5,62541, Note_on_c,3,61,0,,,,,,,,,,,,,,,,,,,,,,,
5,62568, Note_on_c,3,57,0,,,,,,,,,,,,,,,,,,,,,,,
5,62574, Control_c,3,64,0,,,,,,,,,,,,,,,,,,,,,,,
5,62582, Note_on_c,3,54,0,,,,,,,,,,,,,,,,,,,,,,,
5,62592, Note_on_c,3,54,67,,,,,,,,,,,,,,,,,,,,,,,
5,62592, Note_on_c,3,57,114,,,,,,,,,,,,,,,,,,,,,,,
5,62592, Note_on_c,3,64,110,,,,,,,,,,,,,,,,,,,,,,,
5,62622, Control_c,3,64,127,,,,,,,,,,,,,,,,,,,,,,,
5,62663, Note_on_c,3,54,0,,,,,,,,,,,,,,,,,,,,,,,
5,62674, Note_on_c,3,57,0,,,,,,,,,,,,,,,,,,,,,,,
5,62675, Note_on_c,3,64,0,,,,,,,,,,,,,,,,,,,,,,,
5,62688, Note_on_c,3,54,103,,,,,,,,,,,,,,,,,,,,,,,
5,62688, Note_on_c,3,57,107,,,,,,,,,,,,,,,,,,,,,,,
5,62688, Note_on_c,3,61,80,,,,,,,,,,,,,,,,,,,,,,,
5,62697, Control_c,3,64,0,,,,,,,,,,,,,,,,,,,,,,,
5,62737, Control_c,3,64,127,,,,,,,,,,,,,,,,,,,,,,,
5,62750, Note_on_c,3,61,0,,,,,,,,,,,,,,,,,,,,,,,
5,62764, Note_on_c,3,54,0,,,,,,,,,,,,,,,,,,,,,,,
5,62766, Note_on_c,3,57,0,,,,,,,,,,,,,,,,,,,,,,,
5,62772, Control_c,3,64,0,,,,,,,,,,,,,,,,,,,,,,,
5,62784, Note_on_c,3,54,88,,,,,,,,,,,,,,,,,,,,,,,
5,62784, Note_on_c,3,57,114,,,,,,,,,,,,,,,,,,,,,,,
5,62784, Note_on_c,3,61,92,,,,,,,,,,,,,,,,,,,,,,,
5,62816, Control_c,3,64,127,,,,,,,,,,,,,,,,,,,,,,,
5,62856, Note_on_c,3,61,0,,,,,,,,,,,,,,,,,,,,,,,
5,62859, Note_on_c,3,54,0,,,,,,,,,,,,,,,,,,,,,,,
5,62877, Note_on_c,3,57,0,,,,,,,,,,,,,,,,,,,,,,,
5,62880, Note_on_c,3,54,92,,,,,,,,,,,,,,,,,,,,,,,
5,62880, Note_on_c,3,57,59,,,,,,,,,,,,,,,,,,,,,,,
5,62901, Note_on_c,3,57,0,,,,,,,,,,,,,,,,,,,,,,,
5,62913, Control_c,3,64,0,,,,,,,,,,,,,,,,,,,,,,,
5,62919, Note_on_c,3,54,0,,,,,,,,,,,,,,,,,,,,,,,
5,62928, Note_on_c,3,54,70,,,,,,,,,,,,,,,,,,,,,,,
5,62928, Note_on_c,3,57,110,,,,,,,,,,,,,,,,,,,,,,,
5,62928, Note_on_c,3,64,114,,,,,,,,,,,,,,,,,,,,,,,
5,62961, Control_c,3,64,127,,,,,,,,,,,,,,,,,,,,,,,
5,62992, Note_on_c,3,54,0,,,,,,,,,,,,,,,,,,,,,,,
5,63024, Note_on_c,3,54,86,,,,,,,,,,,,,,,,,,,,,,,
5,63040, Note_on_c,3,57,0,,,,,,,,,,,,,,,,,,,,,,,
5,63044, Note_on_c,3,64,0,,,,,,,,,,,,,,,,,,,,,,,
5,63053, Control_c,3,64,0,,,,,,,,,,,,,,,,,,,,,,,
5,63064, Note_on_c,3,54,0,,,,,,,,,,,,,,,,,,,,,,,
5,63072, Note_on_c,3,54,92,,,,,,,,,,,,,,,,,,,,,,,
5,63072, Note_on_c,3,57,118,,,,,,,,,,,,,,,,,,,,,,,
5,63072, Note_on_c,3,61,86,,,,,,,,,,,,,,,,,,,,,,,
5,63106, Control_c,3,64,127,,,,,,,,,,,,,,,,,,,,,,,
5,63122, Note_on_c,3,61,0,,,,,,,,,,,,,,,,,,,,,,,
5,63144, Note_on_c,3,54,0,,,,,,,,,,,,,,,,,,,,,,,
5,63144, Note_on_c,3,57,0,,,,,,,,,,,,,,,,,,,,,,,
5,63159, Control_c,3,64,0,,,,,,,,,,,,,,,,,,,,,,,
5,63168, Note_on_c,3,54,95,,,,,,,,,,,,,,,,,,,,,,,
5,63168, Note_on_c,3,57,114,,,,,,,,,,,,,,,,,,,,,,,
5,63168, Note_on_c,3,61,67,,,,,,,,,,,,,,,,,,,,,,,
5,63207, Control_c,3,64,127,,,,,,,,,,,,,,,,,,,,,,,
5,63239, Note_on_c,3,61,0,,,,,,,,,,,,,,,,,,,,,,,
5,63245, Note_on_c,3,54,0,,,,,,,,,,,,,,,,,,,,,,,
5,63252, Note_on_c,3,57,0,,,,,,,,,,,,,,,,,,,,,,,
5,63264, Note_on_c,3,54,95,,,,,,,,,,,,,,,,,,,,,,,
5,63264, Note_on_c,3,57,88,,,,,,,,,,,,,,,,,,,,,,,
5,63272, Note_on_c,3,57,0,,,,,,,,,,,,,,,,,,,,,,,
5,63300, Note_on_c,3,54,0,,,,,,,,,,,,,,,,,,,,,,,
5,63312, Note_on_c,3,54,64,,,,,,,,,,,,,,,,,,,,,,,
5,63343, Control_c,3,64,0,,,,,,,,,,,,,,,,,,,,,,,
5,63354, Note_on_c,3,54,0,,,,,,,,,,,,,,,,,,,,,,,
5,63360, Note_on_c,3,54,92,,,,,,,,,,,,,,,,,,,,,,,
5,63360, Note_on_c,3,57,127,,,,,,,,,,,,,,,,,,,,,,,
5,63360, Note_on_c,3,63,86,,,,,,,,,,,,,,,,,,,,,,,
5,63360, Note_on_c,3,64,127,,,,,,,,,,,,,,,,,,,,,,,
5,63363, Note_on_c,3,63,0,,,,,,,,,,,,,,,,,,,,,,,
5,63427, Control_c,3,64,127,,,,,,,,,,,,,,,,,,,,,,,
5,63433, Note_on_c,3,54,0,,,,,,,,,,,,,,,,,,,,,,,
5,63433, Note_on_c,3,64,0,,,,,,,,,,,,,,,,,,,,,,,
5,63442, Note_on_c,3,57,0,,,,,,,,,,,,,,,,,,,,,,,
5,63456, Note_on_c,3,54,95,,,,,,,,,,,,,,,,,,,,,,,
5,63456, Note_on_c,3,57,110,,,,,,,,,,,,,,,,,,,,,,,
5,63456, Note_on_c,3,61,72,,,,,,,,,,,,,,,,,,,,,,,
5,63514, Note_on_c,3,61,0,,,,,,,,,,,,,,,,,,,,,,,
5,63528, Control_c,3,64,0,,,,,,,,,,,,,,,,,,,,,,,
5,63531, Note_on_c,3,54,0,,,,,,,,,,,,,,,,,,,,,,,
5,63532, Note_on_c,3,57,0,,,,,,,,,,,,,,,,,,,,,,,
5,63552, Note_on_c,3,54,103,,,,,,,,,,,,,,,,,,,,,,,
5,63552, Note_on_c,3,57,122,,,,,,,,,,,,,,,,,,,,,,,
5,63552, Note_on_c,3,61,103,,,,,,,,,,,,,,,,,,,,,,,
5,63589, Control_c,3,64,127,,,,,,,,,,,,,,,,,,,,,,,
5,63618, Note_on_c,3,54,0,,,,,,,,,,,,,,,,,,,,,,,
5,63623, Note_on_c,3,61,0,,,,,,,,,,,,,,,,,,,,,,,
5,63637, Note_on_c,3,57,0,,,,,,,,,,,,,,,,,,,,,,,
5,63648, Note_on_c,3,54,80,,,,,,,,,,,,,,,,,,,,,,,
5,63677, Note_on_c,3,54,0,,,,,,,,,,,,,,,,,,,,,,,
5,63677, End_track,,,,,,,,,,,,,,,,,,,,,,,,,,
6,0, Start_track,,,,,,,,,,,,,,,,,,,,,,,,,,
6,0, Instrument_t,SLOSTR  ,,,,,,,,,,,,,,,,,,,,,,,,,
6,100, Control_c,4,121,0,,,,,,,,,,,,,,,,,,,,,,,
6,101, Control_c,4,11,127,,,,,,,,,,,,,,,,,,,,,,,
6,102, Control_c,4,101,0,,,,,,,,,,,,,,,,,,,,,,,
6,152, Control_c,4,100,0,,,,,,,,,,,,,,,,,,,,,,,
6,240, Control_c,4,6,2,,,,,,,,,,,,,,,,,,,,,,,
6,241, Control_c,4,91,44,,,,,,,,,,,,,,,,,,,,,,,
6,332, Control_c,4,10,62,,,,,,,,,,,,,,,,,,,,,,,
6,388, Control_c,4,32,0,,,,,,,,,,,,,,,,,,,,,,,
6,389, Control_c,4,0,0,,,,,,,,,,,,,,,,,,,,,,,
6,390, Program_c,4,49,,,,,,,,,,,,,,,,,,,,,,,,
6,391, Control_c,4,93,26,,,,,,,,,,,,,,,,,,,,,,,
6,424, Control_c,4,121,0,,,,,,,,,,,,,,,,,,,,,,,
6,521, Control_c,4,7,86,,,,,,,,,,,,,,,,,,,,,,,
6,1536, Note_on_c,4,54,127,,,,,,,,,,,,,,,,,,,,,,,
6,1595, Note_on_c,4,54,0,,,,,,,,,,,,,,,,,,,,,,,
6,1728, Note_on_c,4,54,127,,,,,,,,,,,,,,,,,,,,,,,
6,1787, Note_on_c,4,54,0,,,,,,,,,,,,,,,,,,,,,,,
6,1872, Note_on_c,4,54,127,,,,,,,,,,,,,,,,,,,,,,,
6,2014, Note_on_c,4,54,0,,,,,,,,,,,,,,,,,,,,,,,
6,2016, Note_on_c,4,52,127,,,,,,,,,,,,,,,,,,,,,,,
6,2067, Note_on_c,4,52,0,,,,,,,,,,,,,,,,,,,,,,,
6,2112, Note_on_c,4,52,127,,,,,,,,,,,,,,,,,,,,,,,
6,2174, Note_on_c,4,52,0,,,,,,,,,,,,,,,,,,,,,,,
6,2304, Note_on_c,4,59,122,,,,,,,,,,,,,,,,,,,,,,,
6,2700, Note_on_c,4,59,0,,,,,,,,,,,,,,,,,,,,,,,
6,2736, Note_on_c,4,57,122,,,,,,,,,,,,,,,,,,,,,,,
6,2776, Note_on_c,4,57,0,,,,,,,,,,,,,,,,,,,,,,,
6,2832, Note_on_c,4,57,127,,,,,,,,,,,,,,,,,,,,,,,
6,2918, Note_on_c,4,57,0,,,,,,,,,,,,,,,,,,,,,,,
6,2928, Note_on_c,4,54,112,,,,,,,,,,,,,,,,,,,,,,,
6,2959, Note_on_c,4,54,0,,,,,,,,,,,,,,,,,,,,,,,
6,2976, Note_on_c,4,57,127,,,,,,,,,,,,,,,,,,,,,,,
6,3057, Note_on_c,4,57,0,,,,,,,,,,,,,,,,,,,,,,,
6,3072, Note_on_c,4,54,112,,,,,,,,,,,,,,,,,,,,,,,
6,3143, Note_on_c,4,54,0,,,,,,,,,,,,,,,,,,,,,,,
6,3264, Note_on_c,4,54,127,,,,,,,,,,,,,,,,,,,,,,,
6,3319, Note_on_c,4,54,0,,,,,,,,,,,,,,,,,,,,,,,
6,3408, Note_on_c,4,54,127,,,,,,,,,,,,,,,,,,,,,,,
6,3508, Note_on_c,4,54,0,,,,,,,,,,,,,,,,,,,,,,,
6,3552, Note_on_c,4,52,127,,,,,,,,,,,,,,,,,,,,,,,
6,3605, Note_on_c,4,52,0,,,,,,,,,,,,,,,,,,,,,,,
6,3648, Note_on_c,4,52,127,,,,,,,,,,,,,,,,,,,,,,,
6,3703, Note_on_c,4,52,0,,,,,,,,,,,,,,,,,,,,,,,
6,3840, Note_on_c,4,59,122,,,,,,,,,,,,,,,,,,,,,,,
6,4235, Note_on_c,4,59,0,,,,,,,,,,,,,,,,,,,,,,,
6,4272, Note_on_c,4,57,127,,,,,,,,,,,,,,,,,,,,,,,
6,4315, Note_on_c,4,57,0,,,,,,,,,,,,,,,,,,,,,,,
6,4368, Note_on_c,4,57,127,,,,,,,,,,,,,,,,,,,,,,,
6,4444, Note_on_c,4,57,0,,,,,,,,,,,,,,,,,,,,,,,
6,4464, Note_on_c,4,54,112,,,,,,,,,,,,,,,,,,,,,,,
6,4496, Note_on_c,4,54,0,,,,,,,,,,,,,,,,,,,,,,,
6,4512, Note_on_c,4,57,127,,,,,,,,,,,,,,,,,,,,,,,
6,4576, Note_on_c,4,57,0,,,,,,,,,,,,,,,,,,,,,,,
6,4608, Note_on_c,4,54,127,,,,,,,,,,,,,,,,,,,,,,,
6,4686, Note_on_c,4,54,0,,,,,,,,,,,,,,,,,,,,,,,
6,4800, Note_on_c,4,54,127,,,,,,,,,,,,,,,,,,,,,,,
6,4868, Note_on_c,4,54,0,,,,,,,,,,,,,,,,,,,,,,,
6,4944, Note_on_c,4,54,127,,,,,,,,,,,,,,,,,,,,,,,
6,5022, Note_on_c,4,54,0,,,,,,,,,,,,,,,,,,,,,,,
6,5040, Note_on_c,4,52,118,,,,,,,,,,,,,,,,,,,,,,,
6,5073, Note_on_c,4,52,0,,,,,,,,,,,,,,,,,,,,,,,
6,5088, Note_on_c,4,52,122,,,,,,,,,,,,,,,,,,,,,,,
6,5155, Note_on_c,4,52,0,,,,,,,,,,,,,,,,,,,,,,,
6,5184, Note_on_c,4,52,127,,,,,,,,,,,,,,,,,,,,,,,
6,5258, Note_on_c,4,52,0,,,,,,,,,,,,,,,,,,,,,,,
6,5376, Note_on_c,4,59,127,,,,,,,,,,,,,,,,,,,,,,,
6,5705, Note_on_c,4,59,0,,,,,,,,,,,,,,,,,,,,,,,
6,5712, Note_on_c,4,59,114,,,,,,,,,,,,,,,,,,,,,,,
6,5769, Note_on_c,4,59,0,,,,,,,,,,,,,,,,,,,,,,,
6,5808, Note_on_c,4,57,127,,,,,,,,,,,,,,,,,,,,,,,
6,5852, Note_on_c,4,57,0,,,,,,,,,,,,,,,,,,,,,,,
6,5904, Note_on_c,4,59,122,,,,,,,,,,,,,,,,,,,,,,,
6,5983, Note_on_c,4,59,0,,,,,,,,,,,,,,,,,,,,,,,
6,6000, Note_on_c,4,57,127,,,,,,,,,,,,,,,,,,,,,,,
6,6033, Note_on_c,4,57,0,,,,,,,,,,,,,,,,,,,,,,,
6,6048, Note_on_c,4,54,112,,,,,,,,,,,,,,,,,,,,,,,
6,6097, Note_on_c,4,54,0,,,,,,,,,,,,,,,,,,,,,,,
6,6144, Note_on_c,4,54,127,,,,,,,,,,,,,,,,,,,,,,,
6,6218, Note_on_c,4,54,0,,,,,,,,,,,,,,,,,,,,,,,
6,6336, Note_on_c,4,54,127,,,,,,,,,,,,,,,,,,,,,,,
6,6407, Note_on_c,4,54,0,,,,,,,,,,,,,,,,,,,,,,,
6,6480, Note_on_c,4,54,127,,,,,,,,,,,,,,,,,,,,,,,
6,6557, Note_on_c,4,54,0,,,,,,,,,,,,,,,,,,,,,,,
6,6576, Note_on_c,4,52,122,,,,,,,,,,,,,,,,,,,,,,,
6,6604, Note_on_c,4,52,0,,,,,,,,,,,,,,,,,,,,,,,
6,6624, Note_on_c,4,52,127,,,,,,,,,,,,,,,,,,,,,,,
6,6682, Note_on_c,4,52,0,,,,,,,,,,,,,,,,,,,,,,,
6,6720, Note_on_c,4,52,127,,,,,,,,,,,,,,,,,,,,,,,
6,6794, Note_on_c,4,52,0,,,,,,,,,,,,,,,,,,,,,,,
6,6912, Note_on_c,4,59,127,,,,,,,,,,,,,,,,,,,,,,,
6,7240, Note_on_c,4,59,0,,,,,,,,,,,,,,,,,,,,,,,
6,7248, Note_on_c,4,57,127,,,,,,,,,,,,,,,,,,,,,,,
6,7305, Note_on_c,4,57,0,,,,,,,,,,,,,,,,,,,,,,,
6,7344, Note_on_c,4,54,127,,,,,,,,,,,,,,,,,,,,,,,
6,7401, Note_on_c,4,54,0,,,,,,,,,,,,,,,,,,,,,,,
6,7440, Note_on_c,4,57,127,,,,,,,,,,,,,,,,,,,,,,,
6,7522, Note_on_c,4,57,0,,,,,,,,,,,,,,,,,,,,,,,
6,7536, Note_on_c,4,54,112,,,,,,,,,,,,,,,,,,,,,,,
6,7565, Note_on_c,4,54,0,,,,,,,,,,,,,,,,,,,,,,,
6,7584, Note_on_c,4,57,127,,,,,,,,,,,,,,,,,,,,,,,
6,7636, Note_on_c,4,57,0,,,,,,,,,,,,,,,,,,,,,,,
6,7680, Note_on_c,4,54,127,,,,,,,,,,,,,,,,,,,,,,,
6,7739, Note_on_c,4,54,0,,,,,,,,,,,,,,,,,,,,,,,
6,7872, Note_on_c,4,54,127,,,,,,,,,,,,,,,,,,,,,,,
6,7931, Note_on_c,4,54,0,,,,,,,,,,,,,,,,,,,,,,,
6,8016, Note_on_c,4,54,127,,,,,,,,,,,,,,,,,,,,,,,
6,8158, Note_on_c,4,54,0,,,,,,,,,,,,,,,,,,,,,,,
6,8160, Note_on_c,4,52,127,,,,,,,,,,,,,,,,,,,,,,,
6,8211, Note_on_c,4,52,0,,,,,,,,,,,,,,,,,,,,,,,
6,8256, Note_on_c,4,52,127,,,,,,,,,,,,,,,,,,,,,,,
6,8318, Note_on_c,4,52,0,,,,,,,,,,,,,,,,,,,,,,,
6,8448, Note_on_c,4,59,122,,,,,,,,,,,,,,,,,,,,,,,
6,8844, Note_on_c,4,59,0,,,,,,,,,,,,,,,,,,,,,,,
6,8880, Note_on_c,4,57,122,,,,,,,,,,,,,,,,,,,,,,,
6,8920, Note_on_c,4,57,0,,,,,,,,,,,,,,,,,,,,,,,
6,8976, Note_on_c,4,57,127,,,,,,,,,,,,,,,,,,,,,,,
6,9062, Note_on_c,4,57,0,,,,,,,,,,,,,,,,,,,,,,,
6,9072, Note_on_c,4,54,112,,,,,,,,,,,,,,,,,,,,,,,
6,9103, Note_on_c,4,54,0,,,,,,,,,,,,,,,,,,,,,,,
6,9120, Note_on_c,4,57,127,,,,,,,,,,,,,,,,,,,,,,,
6,9201, Note_on_c,4,57,0,,,,,,,,,,,,,,,,,,,,,,,
6,9216, Note_on_c,4,54,112,,,,,,,,,,,,,,,,,,,,,,,
6,9287, Note_on_c,4,54,0,,,,,,,,,,,,,,,,,,,,,,,
6,9408, Note_on_c,4,54,127,,,,,,,,,,,,,,,,,,,,,,,
6,9463, Note_on_c,4,54,0,,,,,,,,,,,,,,,,,,,,,,,
6,9552, Note_on_c,4,54,127,,,,,,,,,,,,,,,,,,,,,,,
6,9652, Note_on_c,4,54,0,,,,,,,,,,,,,,,,,,,,,,,
6,9696, Note_on_c,4,52,127,,,,,,,,,,,,,,,,,,,,,,,
6,9749, Note_on_c,4,52,0,,,,,,,,,,,,,,,,,,,,,,,
6,9792, Note_on_c,4,52,127,,,,,,,,,,,,,,,,,,,,,,,
6,9847, Note_on_c,4,52,0,,,,,,,,,,,,,,,,,,,,,,,
6,9984, Note_on_c,4,59,122,,,,,,,,,,,,,,,,,,,,,,,
6,10379, Note_on_c,4,59,0,,,,,,,,,,,,,,,,,,,,,,,
6,10416, Note_on_c,4,57,127,,,,,,,,,,,,,,,,,,,,,,,
6,10459, Note_on_c,4,57,0,,,,,,,,,,,,,,,,,,,,,,,
6,10512, Note_on_c,4,57,127,,,,,,,,,,,,,,,,,,,,,,,
6,10588, Note_on_c,4,57,0,,,,,,,,,,,,,,,,,,,,,,,
6,10608, Note_on_c,4,54,112,,,,,,,,,,,,,,,,,,,,,,,
6,10640, Note_on_c,4,54,0,,,,,,,,,,,,,,,,,,,,,,,
6,10656, Note_on_c,4,57,127,,,,,,,,,,,,,,,,,,,,,,,
6,10720, Note_on_c,4,57,0,,,,,,,,,,,,,,,,,,,,,,,
6,10752, Note_on_c,4,54,127,,,,,,,,,,,,,,,,,,,,,,,
6,10830, Note_on_c,4,54,0,,,,,,,,,,,,,,,,,,,,,,,
6,10944, Note_on_c,4,54,127,,,,,,,,,,,,,,,,,,,,,,,
6,11012, Note_on_c,4,54,0,,,,,,,,,,,,,,,,,,,,,,,
6,11088, Note_on_c,4,54,127,,,,,,,,,,,,,,,,,,,,,,,
6,11166, Note_on_c,4,54,0,,,,,,,,,,,,,,,,,,,,,,,
6,11184, Note_on_c,4,52,118,,,,,,,,,,,,,,,,,,,,,,,
6,11217, Note_on_c,4,52,0,,,,,,,,,,,,,,,,,,,,,,,
6,11232, Note_on_c,4,52,122,,,,,,,,,,,,,,,,,,,,,,,
6,11299, Note_on_c,4,52,0,,,,,,,,,,,,,,,,,,,,,,,
6,11328, Note_on_c,4,52,127,,,,,,,,,,,,,,,,,,,,,,,
6,11402, Note_on_c,4,52,0,,,,,,,,,,,,,,,,,,,,,,,
6,11520, Note_on_c,4,59,127,,,,,,,,,,,,,,,,,,,,,,,
6,11849, Note_on_c,4,59,0,,,,,,,,,,,,,,,,,,,,,,,
6,11856, Note_on_c,4,59,114,,,,,,,,,,,,,,,,,,,,,,,
6,11913, Note_on_c,4,59,0,,,,,,,,,,,,,,,,,,,,,,,
6,11952, Note_on_c,4,57,127,,,,,,,,,,,,,,,,,,,,,,,
6,11996, Note_on_c,4,57,0,,,,,,,,,,,,,,,,,,,,,,,
6,12048, Note_on_c,4,59,122,,,,,,,,,,,,,,,,,,,,,,,
6,12127, Note_on_c,4,59,0,,,,,,,,,,,,,,,,,,,,,,,
6,12144, Note_on_c,4,57,127,,,,,,,,,,,,,,,,,,,,,,,
6,12177, Note_on_c,4,57,0,,,,,,,,,,,,,,,,,,,,,,,
6,12192, Note_on_c,4,54,112,,,,,,,,,,,,,,,,,,,,,,,
6,12241, Note_on_c,4,54,0,,,,,,,,,,,,,,,,,,,,,,,
6,12288, Note_on_c,4,50,101,,,,,,,,,,,,,,,,,,,,,,,
6,12669, Note_on_c,4,50,0,,,,,,,,,,,,,,,,,,,,,,,
6,12672, Note_on_c,4,52,110,,,,,,,,,,,,,,,,,,,,,,,
6,13056, Note_on_c,4,54,103,,,,,,,,,,,,,,,,,,,,,,,
6,13060, Note_on_c,4,52,0,,,,,,,,,,,,,,,,,,,,,,,
6,13440, Note_on_c,4,42,86,,,,,,,,,,,,,,,,,,,,,,,
6,13456, Note_on_c,4,54,0,,,,,,,,,,,,,,,,,,,,,,,
6,13797, Note_on_c,4,42,0,,,,,,,,,,,,,,,,,,,,,,,
6,13824, Note_on_c,4,54,127,,,,,,,,,,,,,,,,,,,,,,,
6,13883, Note_on_c,4,54,0,,,,,,,,,,,,,,,,,,,,,,,
6,14016, Note_on_c,4,54,127,,,,,,,,,,,,,,,,,,,,,,,
6,14075, Note_on_c,4,54,0,,,,,,,,,,,,,,,,,,,,,,,
6,14160, Note_on_c,4,54,127,,,,,,,,,,,,,,,,,,,,,,,
6,14302, Note_on_c,4,54,0,,,,,,,,,,,,,,,,,,,,,,,
6,14304, Note_on_c,4,52,127,,,,,,,,,,,,,,,,,,,,,,,
6,14355, Note_on_c,4,52,0,,,,,,,,,,,,,,,,,,,,,,,
6,14400, Note_on_c,4,52,127,,,,,,,,,,,,,,,,,,,,,,,
6,14462, Note_on_c,4,52,0,,,,,,,,,,,,,,,,,,,,,,,
6,14592, Note_on_c,4,59,122,,,,,,,,,,,,,,,,,,,,,,,
6,14988, Note_on_c,4,59,0,,,,,,,,,,,,,,,,,,,,,,,
6,15024, Note_on_c,4,57,122,,,,,,,,,,,,,,,,,,,,,,,
6,15064, Note_on_c,4,57,0,,,,,,,,,,,,,,,,,,,,,,,
6,15120, Note_on_c,4,57,127,,,,,,,,,,,,,,,,,,,,,,,
6,15206, Note_on_c,4,57,0,,,,,,,,,,,,,,,,,,,,,,,
6,15216, Note_on_c,4,54,112,,,,,,,,,,,,,,,,,,,,,,,
6,15247, Note_on_c,4,54,0,,,,,,,,,,,,,,,,,,,,,,,
6,15264, Note_on_c,4,57,127,,,,,,,,,,,,,,,,,,,,,,,
6,15345, Note_on_c,4,57,0,,,,,,,,,,,,,,,,,,,,,,,
6,15360, Note_on_c,4,54,112,,,,,,,,,,,,,,,,,,,,,,,
6,15431, Note_on_c,4,54,0,,,,,,,,,,,,,,,,,,,,,,,
6,15552, Note_on_c,4,54,127,,,,,,,,,,,,,,,,,,,,,,,
6,15607, Note_on_c,4,54,0,,,,,,,,,,,,,,,,,,,,,,,
6,15696, Note_on_c,4,54,127,,,,,,,,,,,,,,,,,,,,,,,
6,15796, Note_on_c,4,54,0,,,,,,,,,,,,,,,,,,,,,,,
6,15840, Note_on_c,4,52,127,,,,,,,,,,,,,,,,,,,,,,,
6,15893, Note_on_c,4,52,0,,,,,,,,,,,,,,,,,,,,,,,
6,15936, Note_on_c,4,52,127,,,,,,,,,,,,,,,,,,,,,,,
6,15991, Note_on_c,4,52,0,,,,,,,,,,,,,,,,,,,,,,,
6,16128, Note_on_c,4,59,122,,,,,,,,,,,,,,,,,,,,,,,
6,16523, Note_on_c,4,59,0,,,,,,,,,,,,,,,,,,,,,,,
6,16560, Note_on_c,4,57,127,,,,,,,,,,,,,,,,,,,,,,,
6,16603, Note_on_c,4,57,0,,,,,,,,,,,,,,,,,,,,,,,
6,16656, Note_on_c,4,57,127,,,,,,,,,,,,,,,,,,,,,,,
6,16732, Note_on_c,4,57,0,,,,,,,,,,,,,,,,,,,,,,,
6,16752, Note_on_c,4,54,112,,,,,,,,,,,,,,,,,,,,,,,
6,16784, Note_on_c,4,54,0,,,,,,,,,,,,,,,,,,,,,,,
6,16800, Note_on_c,4,57,127,,,,,,,,,,,,,,,,,,,,,,,
6,16864, Note_on_c,4,57,0,,,,,,,,,,,,,,,,,,,,,,,
6,16896, Note_on_c,4,54,127,,,,,,,,,,,,,,,,,,,,,,,
6,16974, Note_on_c,4,54,0,,,,,,,,,,,,,,,,,,,,,,,
6,17088, Note_on_c,4,54,127,,,,,,,,,,,,,,,,,,,,,,,
6,17156, Note_on_c,4,54,0,,,,,,,,,,,,,,,,,,,,,,,
6,17232, Note_on_c,4,54,127,,,,,,,,,,,,,,,,,,,,,,,
6,17310, Note_on_c,4,54,0,,,,,,,,,,,,,,,,,,,,,,,
6,17328, Note_on_c,4,52,118,,,,,,,,,,,,,,,,,,,,,,,
6,17361, Note_on_c,4,52,0,,,,,,,,,,,,,,,,,,,,,,,
6,17376, Note_on_c,4,52,122,,,,,,,,,,,,,,,,,,,,,,,
6,17443, Note_on_c,4,52,0,,,,,,,,,,,,,,,,,,,,,,,
6,17472, Note_on_c,4,52,127,,,,,,,,,,,,,,,,,,,,,,,
6,17546, Note_on_c,4,52,0,,,,,,,,,,,,,,,,,,,,,,,
6,17664, Note_on_c,4,59,127,,,,,,,,,,,,,,,,,,,,,,,
6,17993, Note_on_c,4,59,0,,,,,,,,,,,,,,,,,,,,,,,
6,18000, Note_on_c,4,59,114,,,,,,,,,,,,,,,,,,,,,,,
6,18057, Note_on_c,4,59,0,,,,,,,,,,,,,,,,,,,,,,,
6,18096, Note_on_c,4,57,127,,,,,,,,,,,,,,,,,,,,,,,
6,18140, Note_on_c,4,57,0,,,,,,,,,,,,,,,,,,,,,,,
6,18192, Note_on_c,4,59,122,,,,,,,,,,,,,,,,,,,,,,,
6,18271, Note_on_c,4,59,0,,,,,,,,,,,,,,,,,,,,,,,
6,18288, Note_on_c,4,57,127,,,,,,,,,,,,,,,,,,,,,,,
6,18321, Note_on_c,4,57,0,,,,,,,,,,,,,,,,,,,,,,,
6,18336, Note_on_c,4,54,112,,,,,,,,,,,,,,,,,,,,,,,
6,18385, Note_on_c,4,54,0,,,,,,,,,,,,,,,,,,,,,,,
6,18432, Note_on_c,4,54,127,,,,,,,,,,,,,,,,,,,,,,,
6,18506, Note_on_c,4,54,0,,,,,,,,,,,,,,,,,,,,,,,
6,18624, Note_on_c,4,54,127,,,,,,,,,,,,,,,,,,,,,,,
6,18695, Note_on_c,4,54,0,,,,,,,,,,,,,,,,,,,,,,,
6,18768, Note_on_c,4,54,127,,,,,,,,,,,,,,,,,,,,,,,
6,18845, Note_on_c,4,54,0,,,,,,,,,,,,,,,,,,,,,,,
6,18864, Note_on_c,4,52,122,,,,,,,,,,,,,,,,,,,,,,,
6,18892, Note_on_c,4,52,0,,,,,,,,,,,,,,,,,,,,,,,
6,18912, Note_on_c,4,52,127,,,,,,,,,,,,,,,,,,,,,,,
6,18970, Note_on_c,4,52,0,,,,,,,,,,,,,,,,,,,,,,,
6,19008, Note_on_c,4,52,127,,,,,,,,,,,,,,,,,,,,,,,
6,19082, Note_on_c,4,52,0,,,,,,,,,,,,,,,,,,,,,,,
6,19200, Note_on_c,4,59,127,,,,,,,,,,,,,,,,,,,,,,,
6,19528, Note_on_c,4,59,0,,,,,,,,,,,,,,,,,,,,,,,
6,19536, Note_on_c,4,57,127,,,,,,,,,,,,,,,,,,,,,,,
6,19593, Note_on_c,4,57,0,,,,,,,,,,,,,,,,,,,,,,,
6,19632, Note_on_c,4,54,127,,,,,,,,,,,,,,,,,,,,,,,
6,19689, Note_on_c,4,54,0,,,,,,,,,,,,,,,,,,,,,,,
6,19728, Note_on_c,4,57,127,,,,,,,,,,,,,,,,,,,,,,,
6,19810, Note_on_c,4,57,0,,,,,,,,,,,,,,,,,,,,,,,
6,19824, Note_on_c,4,54,112,,,,,,,,,,,,,,,,,,,,,,,
6,19853, Note_on_c,4,54,0,,,,,,,,,,,,,,,,,,,,,,,
6,19872, Note_on_c,4,57,127,,,,,,,,,,,,,,,,,,,,,,,
6,19924, Note_on_c,4,57,0,,,,,,,,,,,,,,,,,,,,,,,
6,26112, Note_on_c,4,57,110,,,,,,,,,,,,,,,,,,,,,,,
6,26488, Note_on_c,4,61,82,,,,,,,,,,,,,,,,,,,,,,,
6,26504, Note_on_c,4,57,0,,,,,,,,,,,,,,,,,,,,,,,
6,26880, Note_on_c,4,64,101,,,,,,,,,,,,,,,,,,,,,,,
6,26887, Note_on_c,4,61,0,,,,,,,,,,,,,,,,,,,,,,,
6,27261, Note_on_c,4,64,0,,,,,,,,,,,,,,,,,,,,,,,
6,27264, Note_on_c,4,61,82,,,,,,,,,,,,,,,,,,,,,,,
6,27646, Note_on_c,4,61,0,,,,,,,,,,,,,,,,,,,,,,,
6,27656, Note_on_c,4,57,87,,,,,,,,,,,,,,,,,,,,,,,
6,28032, Note_on_c,4,61,88,,,,,,,,,,,,,,,,,,,,,,,
6,28034, Note_on_c,4,57,0,,,,,,,,,,,,,,,,,,,,,,,
6,28416, Note_on_c,4,64,95,,,,,,,,,,,,,,,,,,,,,,,
6,28428, Note_on_c,4,61,0,,,,,,,,,,,,,,,,,,,,,,,
6,28797, Note_on_c,4,64,0,,,,,,,,,,,,,,,,,,,,,,,
6,28800, Note_on_c,4,61,99,,,,,,,,,,,,,,,,,,,,,,,
6,29179, Note_on_c,4,61,0,,,,,,,,,,,,,,,,,,,,,,,
6,29184, Note_on_c,4,57,98,,,,,,,,,,,,,,,,,,,,,,,
6,29566, Note_on_c,4,57,0,,,,,,,,,,,,,,,,,,,,,,,
6,29568, Note_on_c,4,61,95,,,,,,,,,,,,,,,,,,,,,,,
6,29945, Note_on_c,4,61,0,,,,,,,,,,,,,,,,,,,,,,,
6,29952, Note_on_c,4,64,93,,,,,,,,,,,,,,,,,,,,,,,
6,30332, Note_on_c,4,64,0,,,,,,,,,,,,,,,,,,,,,,,
6,30336, Note_on_c,4,61,95,,,,,,,,,,,,,,,,,,,,,,,
6,30723, Note_on_c,4,61,0,,,,,,,,,,,,,,,,,,,,,,,
6,30728, Note_on_c,4,57,93,,,,,,,,,,,,,,,,,,,,,,,
6,31104, Note_on_c,4,61,95,,,,,,,,,,,,,,,,,,,,,,,
6,31105, Note_on_c,4,57,0,,,,,,,,,,,,,,,,,,,,,,,
6,31470, Note_on_c,4,61,0,,,,,,,,,,,,,,,,,,,,,,,
6,31472, Note_on_c,4,64,91,,,,,,,,,,,,,,,,,,,,,,,
6,31851, Note_on_c,4,64,0,,,,,,,,,,,,,,,,,,,,,,,
6,33408, Note_on_c,4,54,127,,,,,,,,,,,,,,,,,,,,,,,
6,33467, Note_on_c,4,54,0,,,,,,,,,,,,,,,,,,,,,,,
6,33600, Note_on_c,4,54,127,,,,,,,,,,,,,,,,,,,,,,,
6,33659, Note_on_c,4,54,0,,,,,,,,,,,,,,,,,,,,,,,
6,33744, Note_on_c,4,54,127,,,,,,,,,,,,,,,,,,,,,,,
6,33886, Note_on_c,4,54,0,,,,,,,,,,,,,,,,,,,,,,,
6,33888, Note_on_c,4,52,127,,,,,,,,,,,,,,,,,,,,,,,
6,33939, Note_on_c,4,52,0,,,,,,,,,,,,,,,,,,,,,,,
6,33984, Note_on_c,4,52,127,,,,,,,,,,,,,,,,,,,,,,,
6,34046, Note_on_c,4,52,0,,,,,,,,,,,,,,,,,,,,,,,
6,34176, Note_on_c,4,59,122,,,,,,,,,,,,,,,,,,,,,,,
6,34572, Note_on_c,4,59,0,,,,,,,,,,,,,,,,,,,,,,,
6,34608, Note_on_c,4,57,122,,,,,,,,,,,,,,,,,,,,,,,
6,34648, Note_on_c,4,57,0,,,,,,,,,,,,,,,,,,,,,,,
6,34704, Note_on_c,4,57,127,,,,,,,,,,,,,,,,,,,,,,,
6,34790, Note_on_c,4,57,0,,,,,,,,,,,,,,,,,,,,,,,
6,34800, Note_on_c,4,54,112,,,,,,,,,,,,,,,,,,,,,,,
6,34831, Note_on_c,4,54,0,,,,,,,,,,,,,,,,,,,,,,,
6,34848, Note_on_c,4,57,127,,,,,,,,,,,,,,,,,,,,,,,
6,34929, Note_on_c,4,57,0,,,,,,,,,,,,,,,,,,,,,,,
6,34944, Note_on_c,4,54,112,,,,,,,,,,,,,,,,,,,,,,,
6,35015, Note_on_c,4,54,0,,,,,,,,,,,,,,,,,,,,,,,
6,35136, Note_on_c,4,54,127,,,,,,,,,,,,,,,,,,,,,,,
6,35191, Note_on_c,4,54,0,,,,,,,,,,,,,,,,,,,,,,,
6,35280, Note_on_c,4,54,127,,,,,,,,,,,,,,,,,,,,,,,
6,35380, Note_on_c,4,54,0,,,,,,,,,,,,,,,,,,,,,,,
6,35424, Note_on_c,4,52,127,,,,,,,,,,,,,,,,,,,,,,,
6,35477, Note_on_c,4,52,0,,,,,,,,,,,,,,,,,,,,,,,
6,35520, Note_on_c,4,52,127,,,,,,,,,,,,,,,,,,,,,,,
6,35575, Note_on_c,4,52,0,,,,,,,,,,,,,,,,,,,,,,,
6,35712, Note_on_c,4,59,122,,,,,,,,,,,,,,,,,,,,,,,
6,36107, Note_on_c,4,59,0,,,,,,,,,,,,,,,,,,,,,,,
6,36144, Note_on_c,4,57,127,,,,,,,,,,,,,,,,,,,,,,,
6,36187, Note_on_c,4,57,0,,,,,,,,,,,,,,,,,,,,,,,
6,36240, Note_on_c,4,57,127,,,,,,,,,,,,,,,,,,,,,,,
6,36316, Note_on_c,4,57,0,,,,,,,,,,,,,,,,,,,,,,,
6,36336, Note_on_c,4,54,112,,,,,,,,,,,,,,,,,,,,,,,
6,36368, Note_on_c,4,54,0,,,,,,,,,,,,,,,,,,,,,,,
6,36384, Note_on_c,4,57,127,,,,,,,,,,,,,,,,,,,,,,,
6,36448, Note_on_c,4,57,0,,,,,,,,,,,,,,,,,,,,,,,
6,36480, Note_on_c,4,54,127,,,,,,,,,,,,,,,,,,,,,,,
6,36558, Note_on_c,4,54,0,,,,,,,,,,,,,,,,,,,,,,,
6,36672, Note_on_c,4,54,127,,,,,,,,,,,,,,,,,,,,,,,
6,36740, Note_on_c,4,54,0,,,,,,,,,,,,,,,,,,,,,,,
6,36816, Note_on_c,4,54,127,,,,,,,,,,,,,,,,,,,,,,,
6,36894, Note_on_c,4,54,0,,,,,,,,,,,,,,,,,,,,,,,
6,36912, Note_on_c,4,52,118,,,,,,,,,,,,,,,,,,,,,,,
6,36945, Note_on_c,4,52,0,,,,,,,,,,,,,,,,,,,,,,,
6,36960, Note_on_c,4,52,122,,,,,,,,,,,,,,,,,,,,,,,
6,37027, Note_on_c,4,52,0,,,,,,,,,,,,,,,,,,,,,,,
6,37056, Note_on_c,4,52,127,,,,,,,,,,,,,,,,,,,,,,,
6,37130, Note_on_c,4,52,0,,,,,,,,,,,,,,,,,,,,,,,
6,37248, Note_on_c,4,59,127,,,,,,,,,,,,,,,,,,,,,,,
6,37577, Note_on_c,4,59,0,,,,,,,,,,,,,,,,,,,,,,,
6,37584, Note_on_c,4,59,114,,,,,,,,,,,,,,,,,,,,,,,
6,37641, Note_on_c,4,59,0,,,,,,,,,,,,,,,,,,,,,,,
6,37680, Note_on_c,4,57,127,,,,,,,,,,,,,,,,,,,,,,,
6,37724, Note_on_c,4,57,0,,,,,,,,,,,,,,,,,,,,,,,
6,37776, Note_on_c,4,59,122,,,,,,,,,,,,,,,,,,,,,,,
6,37855, Note_on_c,4,59,0,,,,,,,,,,,,,,,,,,,,,,,
6,37872, Note_on_c,4,57,127,,,,,,,,,,,,,,,,,,,,,,,
6,37905, Note_on_c,4,57,0,,,,,,,,,,,,,,,,,,,,,,,
6,37920, Note_on_c,4,54,112,,,,,,,,,,,,,,,,,,,,,,,
6,37969, Note_on_c,4,54,0,,,,,,,,,,,,,,,,,,,,,,,
6,38016, Note_on_c,4,54,127,,,,,,,,,,,,,,,,,,,,,,,
6,38090, Note_on_c,4,54,0,,,,,,,,,,,,,,,,,,,,,,,
6,38208, Note_on_c,4,54,127,,,,,,,,,,,,,,,,,,,,,,,
6,38279, Note_on_c,4,54,0,,,,,,,,,,,,,,,,,,,,,,,
6,38352, Note_on_c,4,54,127,,,,,,,,,,,,,,,,,,,,,,,
6,38429, Note_on_c,4,54,0,,,,,,,,,,,,,,,,,,,,,,,
6,38448, Note_on_c,4,52,122,,,,,,,,,,,,,,,,,,,,,,,
6,38476, Note_on_c,4,52,0,,,,,,,,,,,,,,,,,,,,,,,
6,38496, Note_on_c,4,52,127,,,,,,,,,,,,,,,,,,,,,,,
6,38554, Note_on_c,4,52,0,,,,,,,,,,,,,,,,,,,,,,,
6,38592, Note_on_c,4,52,127,,,,,,,,,,,,,,,,,,,,,,,
6,38666, Note_on_c,4,52,0,,,,,,,,,,,,,,,,,,,,,,,
6,38784, Note_on_c,4,59,127,,,,,,,,,,,,,,,,,,,,,,,
6,39112, Note_on_c,4,59,0,,,,,,,,,,,,,,,,,,,,,,,
6,39120, Note_on_c,4,57,127,,,,,,,,,,,,,,,,,,,,,,,
6,39177, Note_on_c,4,57,0,,,,,,,,,,,,,,,,,,,,,,,
6,39216, Note_on_c,4,54,127,,,,,,,,,,,,,,,,,,,,,,,
6,39273, Note_on_c,4,54,0,,,,,,,,,,,,,,,,,,,,,,,
6,39312, Note_on_c,4,57,127,,,,,,,,,,,,,,,,,,,,,,,
6,39394, Note_on_c,4,57,0,,,,,,,,,,,,,,,,,,,,,,,
6,39408, Note_on_c,4,54,112,,,,,,,,,,,,,,,,,,,,,,,
6,39437, Note_on_c,4,54,0,,,,,,,,,,,,,,,,,,,,,,,
6,39456, Note_on_c,4,57,127,,,,,,,,,,,,,,,,,,,,,,,
6,39508, Note_on_c,4,57,0,,,,,,,,,,,,,,,,,,,,,,,
6,45696, Note_on_c,4,57,110,,,,,,,,,,,,,,,,,,,,,,,
6,46072, Note_on_c,4,61,82,,,,,,,,,,,,,,,,,,,,,,,
6,46088, Note_on_c,4,57,0,,,,,,,,,,,,,,,,,,,,,,,
6,46464, Note_on_c,4,64,101,,,,,,,,,,,,,,,,,,,,,,,
6,46471, Note_on_c,4,61,0,,,,,,,,,,,,,,,,,,,,,,,
6,46845, Note_on_c,4,64,0,,,,,,,,,,,,,,,,,,,,,,,
6,46848, Note_on_c,4,61,82,,,,,,,,,,,,,,,,,,,,,,,
6,47230, Note_on_c,4,61,0,,,,,,,,,,,,,,,,,,,,,,,
6,47240, Note_on_c,4,57,87,,,,,,,,,,,,,,,,,,,,,,,
6,47616, Note_on_c,4,61,88,,,,,,,,,,,,,,,,,,,,,,,
6,47618, Note_on_c,4,57,0,,,,,,,,,,,,,,,,,,,,,,,
6,48000, Note_on_c,4,64,95,,,,,,,,,,,,,,,,,,,,,,,
6,48012, Note_on_c,4,61,0,,,,,,,,,,,,,,,,,,,,,,,
6,48381, Note_on_c,4,64,0,,,,,,,,,,,,,,,,,,,,,,,
6,48384, Note_on_c,4,61,99,,,,,,,,,,,,,,,,,,,,,,,
6,48763, Note_on_c,4,61,0,,,,,,,,,,,,,,,,,,,,,,,
6,48768, Note_on_c,4,57,110,,,,,,,,,,,,,,,,,,,,,,,
6,49144, Note_on_c,4,61,82,,,,,,,,,,,,,,,,,,,,,,,
6,49160, Note_on_c,4,57,0,,,,,,,,,,,,,,,,,,,,,,,
6,49536, Note_on_c,4,64,101,,,,,,,,,,,,,,,,,,,,,,,
6,49543, Note_on_c,4,61,0,,,,,,,,,,,,,,,,,,,,,,,
6,49917, Note_on_c,4,64,0,,,,,,,,,,,,,,,,,,,,,,,
6,49920, Note_on_c,4,61,82,,,,,,,,,,,,,,,,,,,,,,,
6,50302, Note_on_c,4,61,0,,,,,,,,,,,,,,,,,,,,,,,
6,50312, Note_on_c,4,57,87,,,,,,,,,,,,,,,,,,,,,,,
6,50688, Note_on_c,4,61,88,,,,,,,,,,,,,,,,,,,,,,,
6,50690, Note_on_c,4,57,0,,,,,,,,,,,,,,,,,,,,,,,
6,51072, Note_on_c,4,64,95,,,,,,,,,,,,,,,,,,,,,,,
6,51084, Note_on_c,4,61,0,,,,,,,,,,,,,,,,,,,,,,,
6,51453, Note_on_c,4,64,0,,,,,,,,,,,,,,,,,,,,,,,
6,51456, Note_on_c,4,61,99,,,,,,,,,,,,,,,,,,,,,,,
6,51835, Note_on_c,4,61,0,,,,,,,,,,,,,,,,,,,,,,,
6,51840, Note_on_c,4,57,110,,,,,,,,,,,,,,,,,,,,,,,
6,52216, Note_on_c,4,61,82,,,,,,,,,,,,,,,,,,,,,,,
6,52232, Note_on_c,4,57,0,,,,,,,,,,,,,,,,,,,,,,,
6,52608, Note_on_c,4,64,101,,,,,,,,,,,,,,,,,,,,,,,
6,52615, Note_on_c,4,61,0,,,,,,,,,,,,,,,,,,,,,,,
6,52989, Note_on_c,4,64,0,,,,,,,,,,,,,,,,,,,,,,,
6,52992, Note_on_c,4,61,82,,,,,,,,,,,,,,,,,,,,,,,
6,53374, Note_on_c,4,61,0,,,,,,,,,,,,,,,,,,,,,,,
6,53384, Note_on_c,4,57,87,,,,,,,,,,,,,,,,,,,,,,,
6,53760, Note_on_c,4,61,88,,,,,,,,,,,,,,,,,,,,,,,
6,53762, Note_on_c,4,57,0,,,,,,,,,,,,,,,,,,,,,,,
6,54144, Note_on_c,4,64,95,,,,,,,,,,,,,,,,,,,,,,,
6,54156, Note_on_c,4,61,0,,,,,,,,,,,,,,,,,,,,,,,
6,54525, Note_on_c,4,64,0,,,,,,,,,,,,,,,,,,,,,,,
6,54528, Note_on_c,4,61,99,,,,,,,,,,,,,,,,,,,,,,,
6,54907, Note_on_c,4,61,0,,,,,,,,,,,,,,,,,,,,,,,
6,54912, Note_on_c,4,57,110,,,,,,,,,,,,,,,,,,,,,,,
6,55288, Note_on_c,4,61,82,,,,,,,,,,,,,,,,,,,,,,,
6,55304, Note_on_c,4,57,0,,,,,,,,,,,,,,,,,,,,,,,
6,55680, Note_on_c,4,64,101,,,,,,,,,,,,,,,,,,,,,,,
6,55687, Note_on_c,4,61,0,,,,,,,,,,,,,,,,,,,,,,,
6,56061, Note_on_c,4,64,0,,,,,,,,,,,,,,,,,,,,,,,
6,56064, Note_on_c,4,61,82,,,,,,,,,,,,,,,,,,,,,,,
6,56446, Note_on_c,4,61,0,,,,,,,,,,,,,,,,,,,,,,,
6,56456, Note_on_c,4,57,87,,,,,,,,,,,,,,,,,,,,,,,
6,56832, Note_on_c,4,61,88,,,,,,,,,,,,,,,,,,,,,,,
6,56834, Note_on_c,4,57,0,,,,,,,,,,,,,,,,,,,,,,,
6,57216, Note_on_c,4,64,95,,,,,,,,,,,,,,,,,,,,,,,
6,57228, Note_on_c,4,61,0,,,,,,,,,,,,,,,,,,,,,,,
6,57597, Note_on_c,4,64,0,,,,,,,,,,,,,,,,,,,,,,,
6,57600, Note_on_c,4,61,99,,,,,,,,,,,,,,,,,,,,,,,
6,57979, Note_on_c,4,61,0,,,,,,,,,,,,,,,,,,,,,,,
6,57984, Note_on_c,4,57,117,,,,,,,,,,,,,,,,,,,,,,,
6,58360, Note_on_c,4,61,89,,,,,,,,,,,,,,,,,,,,,,,
6,58376, Note_on_c,4,57,0,,,,,,,,,,,,,,,,,,,,,,,
6,58752, Note_on_c,4,64,108,,,,,,,,,,,,,,,,,,,,,,,
6,58759, Note_on_c,4,61,0,,,,,,,,,,,,,,,,,,,,,,,
6,59133, Note_on_c,4,64,0,,,,,,,,,,,,,,,,,,,,,,,
6,59136, Note_on_c,4,61,89,,,,,,,,,,,,,,,,,,,,,,,
6,59518, Note_on_c,4,61,0,,,,,,,,,,,,,,,,,,,,,,,
6,59528, Note_on_c,4,57,94,,,,,,,,,,,,,,,,,,,,,,,
6,59904, Note_on_c,4,61,95,,,,,,,,,,,,,,,,,,,,,,,
6,59906, Note_on_c,4,57,0,,,,,,,,,,,,,,,,,,,,,,,
6,60288, Note_on_c,4,64,102,,,,,,,,,,,,,,,,,,,,,,,
6,60300, Note_on_c,4,61,0,,,,,,,,,,,,,,,,,,,,,,,
6,60669, Note_on_c,4,64,0,,,,,,,,,,,,,,,,,,,,,,,
6,60672, Note_on_c,4,61,106,,,,,,,,,,,,,,,,,,,,,,,
6,61051, Note_on_c,4,61,0,,,,,,,,,,,,,,,,,,,,,,,
6,61056, Note_on_c,4,57,105,,,,,,,,,,,,,,,,,,,,,,,
6,61438, Note_on_c,4,57,0,,,,,,,,,,,,,,,,,,,,,,,
6,61440, Note_on_c,4,61,102,,,,,,,,,,,,,,,,,,,,,,,
6,61817, Note_on_c,4,61,0,,,,,,,,,,,,,,,,,,,,,,,
6,61824, Note_on_c,4,64,100,,,,,,,,,,,,,,,,,,,,,,,
6,62204, Note_on_c,4,64,0,,,,,,,,,,,,,,,,,,,,,,,
6,62208, Note_on_c,4,61,102,,,,,,,,,,,,,,,,,,,,,,,
6,62595, Note_on_c,4,61,0,,,,,,,,,,,,,,,,,,,,,,,
6,62600, Note_on_c,4,57,100,,,,,,,,,,,,,,,,,,,,,,,
6,62976, Note_on_c,4,61,102,,,,,,,,,,,,,,,,,,,,,,,
6,62977, Note_on_c,4,57,0,,,,,,,,,,,,,,,,,,,,,,,
6,63342, Note_on_c,4,61,0,,,,,,,,,,,,,,,,,,,,,,,
6,63344, Note_on_c,4,64,98,,,,,,,,,,,,,,,,,,,,,,,
6,63648, Note_on_c,4,61,104,,,,,,,,,,,,,,,,,,,,,,,
6,63723, Note_on_c,4,64,0,,,,,,,,,,,,,,,,,,,,,,,
6,64036, Note_on_c,4,61,0,,,,,,,,,,,,,,,,,,,,,,,
6,64036, End_track,,,,,,,,,,,,,,,,,,,,,,,,,,
7,0, Start_track,,,,,,,,,,,,,,,,,,,,,,,,,,
7,0, Instrument_t,STRINGS ,,,,,,,,,,,,,,,,,,,,,,,,,
7,108, Control_c,5,121,0,,,,,,,,,,,,,,,,,,,,,,,
7,109, Control_c,5,11,127,,,,,,,,,,,,,,,,,,,,,,,
7,110, Control_c,5,101,0,,,,,,,,,,,,,,,,,,,,,,,
7,160, Control_c,5,100,0,,,,,,,,,,,,,,,,,,,,,,,
7,248, Control_c,5,6,2,,,,,,,,,,,,,,,,,,,,,,,
7,249, Control_c,5,91,52,,,,,,,,,,,,,,,,,,,,,,,
7,340, Control_c,5,10,58,,,,,,,,,,,,,,,,,,,,,,,
7,396, Control_c,5,32,0,,,,,,,,,,,,,,,,,,,,,,,
7,397, Control_c,5,0,0,,,,,,,,,,,,,,,,,,,,,,,
7,398, Program_c,5,48,,,,,,,,,,,,,,,,,,,,,,,,
7,399, Control_c,5,93,23,,,,,,,,,,,,,,,,,,,,,,,
7,432, Control_c,5,121,0,,,,,,,,,,,,,,,,,,,,,,,
7,529, Control_c,5,7,82,,,,,,,,,,,,,,,,,,,,,,,
7,13824, Note_on_c,5,42,127,,,,,,,,,,,,,,,,,,,,,,,
7,14203, Note_on_c,5,42,0,,,,,,,,,,,,,,,,,,,,,,,
7,14208, Note_on_c,5,45,127,,,,,,,,,,,,,,,,,,,,,,,
7,14592, Note_on_c,5,52,127,,,,,,,,,,,,,,,,,,,,,,,
7,14594, Note_on_c,5,45,0,,,,,,,,,,,,,,,,,,,,,,,
7,14976, Note_on_c,5,47,127,,,,,,,,,,,,,,,,,,,,,,,
7,14977, Note_on_c,5,52,0,,,,,,,,,,,,,,,,,,,,,,,
7,15353, Note_on_c,5,47,0,,,,,,,,,,,,,,,,,,,,,,,
7,15360, Note_on_c,5,42,127,,,,,,,,,,,,,,,,,,,,,,,
7,15740, Note_on_c,5,42,0,,,,,,,,,,,,,,,,,,,,,,,
7,15744, Note_on_c,5,45,127,,,,,,,,,,,,,,,,,,,,,,,
7,16128, Note_on_c,5,52,127,,,,,,,,,,,,,,,,,,,,,,,
7,16129, Note_on_c,5,45,0,,,,,,,,,,,,,,,,,,,,,,,
7,16508, Note_on_c,5,52,0,,,,,,,,,,,,,,,,,,,,,,,
7,16512, Note_on_c,5,47,127,,,,,,,,,,,,,,,,,,,,,,,
7,16888, Note_on_c,5,47,0,,,,,,,,,,,,,,,,,,,,,,,
7,16896, Note_on_c,5,42,127,,,,,,,,,,,,,,,,,,,,,,,
7,17271, Note_on_c,5,42,0,,,,,,,,,,,,,,,,,,,,,,,
7,17280, Note_on_c,5,45,127,,,,,,,,,,,,,,,,,,,,,,,
7,17655, Note_on_c,5,45,0,,,,,,,,,,,,,,,,,,,,,,,
7,17664, Note_on_c,5,52,127,,,,,,,,,,,,,,,,,,,,,,,
7,18048, Note_on_c,5,47,127,,,,,,,,,,,,,,,,,,,,,,,
7,18056, Note_on_c,5,52,0,,,,,,,,,,,,,,,,,,,,,,,
7,18423, Note_on_c,5,47,0,,,,,,,,,,,,,,,,,,,,,,,
7,18432, Note_on_c,5,42,127,,,,,,,,,,,,,,,,,,,,,,,
7,18813, Note_on_c,5,42,0,,,,,,,,,,,,,,,,,,,,,,,
7,18816, Note_on_c,5,45,127,,,,,,,,,,,,,,,,,,,,,,,
7,19193, Note_on_c,5,45,0,,,,,,,,,,,,,,,,,,,,,,,
7,19200, Note_on_c,5,52,127,,,,,,,,,,,,,,,,,,,,,,,
7,19584, Note_on_c,5,47,127,,,,,,,,,,,,,,,,,,,,,,,
7,19586, Note_on_c,5,52,0,,,,,,,,,,,,,,,,,,,,,,,
7,19967, Note_on_c,5,47,0,,,,,,,,,,,,,,,,,,,,,,,
7,19968, Note_on_c,5,38,127,,,,,,,,,,,,,,,,,,,,,,,
7,20360, Note_on_c,5,40,127,,,,,,,,,,,,,,,,,,,,,,,
7,20370, Note_on_c,5,38,0,,,,,,,,,,,,,,,,,,,,,,,
7,20736, Note_on_c,5,42,112,,,,,,,,,,,,,,,,,,,,,,,
7,20746, Note_on_c,5,40,0,,,,,,,,,,,,,,,,,,,,,,,
7,21506, Note_on_c,5,42,0,,,,,,,,,,,,,,,,,,,,,,,
7,21512, Note_on_c,5,38,127,,,,,,,,,,,,,,,,,,,,,,,
7,21898, Note_on_c,5,38,0,,,,,,,,,,,,,,,,,,,,,,,
7,21904, Note_on_c,5,40,127,,,,,,,,,,,,,,,,,,,,,,,
7,22261, Note_on_c,5,40,0,,,,,,,,,,,,,,,,,,,,,,,
7,22264, Note_on_c,5,42,112,,,,,,,,,,,,,,,,,,,,,,,
7,23041, Note_on_c,5,42,0,,,,,,,,,,,,,,,,,,,,,,,
7,23048, Note_on_c,5,38,127,,,,,,,,,,,,,,,,,,,,,,,
7,23423, Note_on_c,5,38,0,,,,,,,,,,,,,,,,,,,,,,,
7,23424, Note_on_c,5,40,127,,,,,,,,,,,,,,,,,,,,,,,
7,23811, Note_on_c,5,40,0,,,,,,,,,,,,,,,,,,,,,,,
7,23816, Note_on_c,5,45,127,,,,,,,,,,,,,,,,,,,,,,,
7,24008, Note_on_c,5,44,112,,,,,,,,,,,,,,,,,,,,,,,
7,24008, Note_on_c,5,45,0,,,,,,,,,,,,,,,,,,,,,,,
7,24192, Note_on_c,5,42,107,,,,,,,,,,,,,,,,,,,,,,,
7,24193, Note_on_c,5,44,0,,,,,,,,,,,,,,,,,,,,,,,
7,24380, Note_on_c,5,42,0,,,,,,,,,,,,,,,,,,,,,,,
7,24384, Note_on_c,5,45,122,,,,,,,,,,,,,,,,,,,,,,,
7,24575, Note_on_c,5,45,0,,,,,,,,,,,,,,,,,,,,,,,
7,24576, Note_on_c,5,47,114,,,,,,,,,,,,,,,,,,,,,,,
7,26112, Note_on_c,5,38,114,,,,,,,,,,,,,,,,,,,,,,,
7,26125, Note_on_c,5,47,0,,,,,,,,,,,,,,,,,,,,,,,
7,26496, Note_on_c,5,38,0,,,,,,,,,,,,,,,,,,,,,,,
7,26496, Note_on_c,5,42,103,,,,,,,,,,,,,,,,,,,,,,,
7,26875, Note_on_c,5,42,0,,,,,,,,,,,,,,,,,,,,,,,
7,26880, Note_on_c,5,45,110,,,,,,,,,,,,,,,,,,,,,,,
7,27262, Note_on_c,5,45,0,,,,,,,,,,,,,,,,,,,,,,,
7,27264, Note_on_c,5,42,95,,,,,,,,,,,,,,,,,,,,,,,
7,27642, Note_on_c,5,42,0,,,,,,,,,,,,,,,,,,,,,,,
7,27648, Note_on_c,5,38,118,,,,,,,,,,,,,,,,,,,,,,,
7,28032, Note_on_c,5,42,103,,,,,,,,,,,,,,,,,,,,,,,
7,28038, Note_on_c,5,38,0,,,,,,,,,,,,,,,,,,,,,,,
7,28416, Note_on_c,5,45,104,,,,,,,,,,,,,,,,,,,,,,,
7,28418, Note_on_c,5,42,0,,,,,,,,,,,,,,,,,,,,,,,
7,28798, Note_on_c,5,45,0,,,,,,,,,,,,,,,,,,,,,,,
7,28800, Note_on_c,5,42,103,,,,,,,,,,,,,,,,,,,,,,,
7,29181, Note_on_c,5,42,0,,,,,,,,,,,,,,,,,,,,,,,
7,29184, Note_on_c,5,38,118,,,,,,,,,,,,,,,,,,,,,,,
7,29568, Note_on_c,5,42,103,,,,,,,,,,,,,,,,,,,,,,,
7,29569, Note_on_c,5,38,0,,,,,,,,,,,,,,,,,,,,,,,
7,29952, Note_on_c,5,45,118,,,,,,,,,,,,,,,,,,,,,,,
7,29958, Note_on_c,5,42,0,,,,,,,,,,,,,,,,,,,,,,,
7,30335, Note_on_c,5,45,0,,,,,,,,,,,,,,,,,,,,,,,
7,30336, Note_on_c,5,42,99,,,,,,,,,,,,,,,,,,,,,,,
7,30707, Note_on_c,5,42,0,,,,,,,,,,,,,,,,,,,,,,,
7,30720, Note_on_c,5,38,122,,,,,,,,,,,,,,,,,,,,,,,
7,31104, Note_on_c,5,42,99,,,,,,,,,,,,,,,,,,,,,,,
7,31118, Note_on_c,5,38,0,,,,,,,,,,,,,,,,,,,,,,,
7,31484, Note_on_c,5,42,0,,,,,,,,,,,,,,,,,,,,,,,
7,31488, Note_on_c,5,45,110,,,,,,,,,,,,,,,,,,,,,,,
7,31871, Note_on_c,5,45,0,,,,,,,,,,,,,,,,,,,,,,,
7,33408, Note_on_c,5,42,127,,,,,,,,,,,,,,,,,,,,,,,
7,33787, Note_on_c,5,42,0,,,,,,,,,,,,,,,,,,,,,,,
7,33792, Note_on_c,5,45,127,,,,,,,,,,,,,,,,,,,,,,,
7,34176, Note_on_c,5,52,127,,,,,,,,,,,,,,,,,,,,,,,
7,34178, Note_on_c,5,45,0,,,,,,,,,,,,,,,,,,,,,,,
7,34560, Note_on_c,5,47,127,,,,,,,,,,,,,,,,,,,,,,,
7,34561, Note_on_c,5,52,0,,,,,,,,,,,,,,,,,,,,,,,
7,34937, Note_on_c,5,47,0,,,,,,,,,,,,,,,,,,,,,,,
7,34944, Note_on_c,5,42,127,,,,,,,,,,,,,,,,,,,,,,,
7,35324, Note_on_c,5,42,0,,,,,,,,,,,,,,,,,,,,,,,
7,35328, Note_on_c,5,45,127,,,,,,,,,,,,,,,,,,,,,,,
7,35712, Note_on_c,5,52,127,,,,,,,,,,,,,,,,,,,,,,,
7,35713, Note_on_c,5,45,0,,,,,,,,,,,,,,,,,,,,,,,
7,36092, Note_on_c,5,52,0,,,,,,,,,,,,,,,,,,,,,,,
7,36096, Note_on_c,5,47,127,,,,,,,,,,,,,,,,,,,,,,,
7,36472, Note_on_c,5,47,0,,,,,,,,,,,,,,,,,,,,,,,
7,36480, Note_on_c,5,42,127,,,,,,,,,,,,,,,,,,,,,,,
7,36855, Note_on_c,5,42,0,,,,,,,,,,,,,,,,,,,,,,,
7,36864, Note_on_c,5,45,127,,,,,,,,,,,,,,,,,,,,,,,
7,37239, Note_on_c,5,45,0,,,,,,,,,,,,,,,,,,,,,,,
7,37248, Note_on_c,5,52,127,,,,,,,,,,,,,,,,,,,,,,,
7,37632, Note_on_c,5,47,127,,,,,,,,,,,,,,,,,,,,,,,
7,37640, Note_on_c,5,52,0,,,,,,,,,,,,,,,,,,,,,,,
7,38007, Note_on_c,5,47,0,,,,,,,,,,,,,,,,,,,,,,,
7,38016, Note_on_c,5,42,127,,,,,,,,,,,,,,,,,,,,,,,
7,38397, Note_on_c,5,42,0,,,,,,,,,,,,,,,,,,,,,,,
7,38400, Note_on_c,5,45,127,,,,,,,,,,,,,,,,,,,,,,,
7,38777, Note_on_c,5,45,0,,,,,,,,,,,,,,,,,,,,,,,
7,38784, Note_on_c,5,52,127,,,,,,,,,,,,,,,,,,,,,,,
7,39168, Note_on_c,5,47,127,,,,,,,,,,,,,,,,,,,,,,,
7,39170, Note_on_c,5,52,0,,,,,,,,,,,,,,,,,,,,,,,
7,39551, Note_on_c,5,47,0,,,,,,,,,,,,,,,,,,,,,,,
7,39552, Note_on_c,5,38,127,,,,,,,,,,,,,,,,,,,,,,,
7,39944, Note_on_c,5,40,127,,,,,,,,,,,,,,,,,,,,,,,
7,39954, Note_on_c,5,38,0,,,,,,,,,,,,,,,,,,,,,,,
7,40320, Note_on_c,5,42,112,,,,,,,,,,,,,,,,,,,,,,,
7,40330, Note_on_c,5,40,0,,,,,,,,,,,,,,,,,,,,,,,
7,41090, Note_on_c,5,42,0,,,,,,,,,,,,,,,,,,,,,,,
7,41096, Note_on_c,5,38,127,,,,,,,,,,,,,,,,,,,,,,,
7,41482, Note_on_c,5,38,0,,,,,,,,,,,,,,,,,,,,,,,
7,41488, Note_on_c,5,40,127,,,,,,,,,,,,,,,,,,,,,,,
7,41845, Note_on_c,5,40,0,,,,,,,,,,,,,,,,,,,,,,,
7,41848, Note_on_c,5,42,112,,,,,,,,,,,,,,,,,,,,,,,
7,42625, Note_on_c,5,42,0,,,,,,,,,,,,,,,,,,,,,,,
7,42632, Note_on_c,5,38,127,,,,,,,,,,,,,,,,,,,,,,,
7,43007, Note_on_c,5,38,0,,,,,,,,,,,,,,,,,,,,,,,
7,43008, Note_on_c,5,40,127,,,,,,,,,,,,,,,,,,,,,,,
7,43395, Note_on_c,5,40,0,,,,,,,,,,,,,,,,,,,,,,,
7,43400, Note_on_c,5,45,127,,,,,,,,,,,,,,,,,,,,,,,
7,43592, Note_on_c,5,44,112,,,,,,,,,,,,,,,,,,,,,,,
7,43592, Note_on_c,5,45,0,,,,,,,,,,,,,,,,,,,,,,,
7,43776, Note_on_c,5,42,107,,,,,,,,,,,,,,,,,,,,,,,
7,43777, Note_on_c,5,44,0,,,,,,,,,,,,,,,,,,,,,,,
7,43964, Note_on_c,5,42,0,,,,,,,,,,,,,,,,,,,,,,,
7,43968, Note_on_c,5,45,122,,,,,,,,,,,,,,,,,,,,,,,
7,44159, Note_on_c,5,45,0,,,,,,,,,,,,,,,,,,,,,,,
7,44160, Note_on_c,5,47,114,,,,,,,,,,,,,,,,,,,,,,,
7,45696, Note_on_c,5,38,114,,,,,,,,,,,,,,,,,,,,,,,
7,45709, Note_on_c,5,47,0,,,,,,,,,,,,,,,,,,,,,,,
7,46080, Note_on_c,5,38,0,,,,,,,,,,,,,,,,,,,,,,,
7,46080, Note_on_c,5,42,103,,,,,,,,,,,,,,,,,,,,,,,
7,46459, Note_on_c,5,42,0,,,,,,,,,,,,,,,,,,,,,,,
7,46464, Note_on_c,5,45,110,,,,,,,,,,,,,,,,,,,,,,,
7,46846, Note_on_c,5,45,0,,,,,,,,,,,,,,,,,,,,,,,
7,46848, Note_on_c,5,42,95,,,,,,,,,,,,,,,,,,,,,,,
7,47226, Note_on_c,5,42,0,,,,,,,,,,,,,,,,,,,,,,,
7,47232, Note_on_c,5,38,118,,,,,,,,,,,,,,,,,,,,,,,
7,47616, Note_on_c,5,42,103,,,,,,,,,,,,,,,,,,,,,,,
7,47622, Note_on_c,5,38,0,,,,,,,,,,,,,,,,,,,,,,,
7,48000, Note_on_c,5,45,104,,,,,,,,,,,,,,,,,,,,,,,
7,48002, Note_on_c,5,42,0,,,,,,,,,,,,,,,,,,,,,,,
7,48382, Note_on_c,5,45,0,,,,,,,,,,,,,,,,,,,,,,,
7,48384, Note_on_c,5,42,103,,,,,,,,,,,,,,,,,,,,,,,
7,48765, Note_on_c,5,42,0,,,,,,,,,,,,,,,,,,,,,,,
7,48768, Note_on_c,5,38,114,,,,,,,,,,,,,,,,,,,,,,,
7,49152, Note_on_c,5,38,0,,,,,,,,,,,,,,,,,,,,,,,
7,49152, Note_on_c,5,42,103,,,,,,,,,,,,,,,,,,,,,,,
7,49531, Note_on_c,5,42,0,,,,,,,,,,,,,,,,,,,,,,,
7,49536, Note_on_c,5,45,110,,,,,,,,,,,,,,,,,,,,,,,
7,49918, Note_on_c,5,45,0,,,,,,,,,,,,,,,,,,,,,,,
7,49920, Note_on_c,5,42,95,,,,,,,,,,,,,,,,,,,,,,,
7,50298, Note_on_c,5,42,0,,,,,,,,,,,,,,,,,,,,,,,
7,50304, Note_on_c,5,38,118,,,,,,,,,,,,,,,,,,,,,,,
7,50688, Note_on_c,5,42,103,,,,,,,,,,,,,,,,,,,,,,,
7,50694, Note_on_c,5,38,0,,,,,,,,,,,,,,,,,,,,,,,
7,51072, Note_on_c,5,45,104,,,,,,,,,,,,,,,,,,,,,,,
7,51074, Note_on_c,5,42,0,,,,,,,,,,,,,,,,,,,,,,,
7,51454, Note_on_c,5,45,0,,,,,,,,,,,,,,,,,,,,,,,
7,51456, Note_on_c,5,42,103,,,,,,,,,,,,,,,,,,,,,,,
7,51837, Note_on_c,5,42,0,,,,,,,,,,,,,,,,,,,,,,,
7,51840, Note_on_c,5,38,114,,,,,,,,,,,,,,,,,,,,,,,
7,52224, Note_on_c,5,38,0,,,,,,,,,,,,,,,,,,,,,,,
7,52224, Note_on_c,5,42,103,,,,,,,,,,,,,,,,,,,,,,,
7,52603, Note_on_c,5,42,0,,,,,,,,,,,,,,,,,,,,,,,
7,52608, Note_on_c,5,45,110,,,,,,,,,,,,,,,,,,,,,,,
7,52990, Note_on_c,5,45,0,,,,,,,,,,,,,,,,,,,,,,,
7,52992, Note_on_c,5,42,95,,,,,,,,,,,,,,,,,,,,,,,
7,53370, Note_on_c,5,42,0,,,,,,,,,,,,,,,,,,,,,,,
7,53376, Note_on_c,5,38,118,,,,,,,,,,,,,,,,,,,,,,,
7,53760, Note_on_c,5,42,103,,,,,,,,,,,,,,,,,,,,,,,
7,53766, Note_on_c,5,38,0,,,,,,,,,,,,,,,,,,,,,,,
7,54144, Note_on_c,5,45,104,,,,,,,,,,,,,,,,,,,,,,,
7,54146, Note_on_c,5,42,0,,,,,,,,,,,,,,,,,,,,,,,
7,54526, Note_on_c,5,45,0,,,,,,,,,,,,,,,,,,,,,,,
7,54528, Note_on_c,5,42,103,,,,,,,,,,,,,,,,,,,,,,,
7,54909, Note_on_c,5,42,0,,,,,,,,,,,,,,,,,,,,,,,
7,54912, Note_on_c,5,38,114,,,,,,,,,,,,,,,,,,,,,,,
7,55296, Note_on_c,5,38,0,,,,,,,,,,,,,,,,,,,,,,,
7,55296, Note_on_c,5,42,103,,,,,,,,,,,,,,,,,,,,,,,
7,55675, Note_on_c,5,42,0,,,,,,,,,,,,,,,,,,,,,,,
7,55680, Note_on_c,5,45,110,,,,,,,,,,,,,,,,,,,,,,,
7,56062, Note_on_c,5,45,0,,,,,,,,,,,,,,,,,,,,,,,
7,56064, Note_on_c,5,42,95,,,,,,,,,,,,,,,,,,,,,,,
7,56442, Note_on_c,5,42,0,,,,,,,,,,,,,,,,,,,,,,,
7,56448, Note_on_c,5,38,118,,,,,,,,,,,,,,,,,,,,,,,
7,56832, Note_on_c,5,42,103,,,,,,,,,,,,,,,,,,,,,,,
7,56838, Note_on_c,5,38,0,,,,,,,,,,,,,,,,,,,,,,,
7,57216, Note_on_c,5,45,104,,,,,,,,,,,,,,,,,,,,,,,
7,57218, Note_on_c,5,42,0,,,,,,,,,,,,,,,,,,,,,,,
7,57598, Note_on_c,5,45,0,,,,,,,,,,,,,,,,,,,,,,,
7,57600, Note_on_c,5,42,103,,,,,,,,,,,,,,,,,,,,,,,
7,57981, Note_on_c,5,42,0,,,,,,,,,,,,,,,,,,,,,,,
7,57984, Note_on_c,5,38,114,,,,,,,,,,,,,,,,,,,,,,,
7,58368, Note_on_c,5,38,0,,,,,,,,,,,,,,,,,,,,,,,
7,58368, Note_on_c,5,42,103,,,,,,,,,,,,,,,,,,,,,,,
7,58747, Note_on_c,5,42,0,,,,,,,,,,,,,,,,,,,,,,,
7,58752, Note_on_c,5,45,110,,,,,,,,,,,,,,,,,,,,,,,
7,59134, Note_on_c,5,45,0,,,,,,,,,,,,,,,,,,,,,,,
7,59136, Note_on_c,5,42,95,,,,,,,,,,,,,,,,,,,,,,,
7,59514, Note_on_c,5,42,0,,,,,,,,,,,,,,,,,,,,,,,
7,59520, Note_on_c,5,38,118,,,,,,,,,,,,,,,,,,,,,,,
7,59904, Note_on_c,5,42,103,,,,,,,,,,,,,,,,,,,,,,,
7,59910, Note_on_c,5,38,0,,,,,,,,,,,,,,,,,,,,,,,
7,60288, Note_on_c,5,45,104,,,,,,,,,,,,,,,,,,,,,,,
7,60290, Note_on_c,5,42,0,,,,,,,,,,,,,,,,,,,,,,,
7,60670, Note_on_c,5,45,0,,,,,,,,,,,,,,,,,,,,,,,
7,60672, Note_on_c,5,42,103,,,,,,,,,,,,,,,,,,,,,,,
7,61053, Note_on_c,5,42,0,,,,,,,,,,,,,,,,,,,,,,,
7,61056, Note_on_c,5,38,118,,,,,,,,,,,,,,,,,,,,,,,
7,61440, Note_on_c,5,42,103,,,,,,,,,,,,,,,,,,,,,,,
7,61441, Note_on_c,5,38,0,,,,,,,,,,,,,,,,,,,,,,,
7,61824, Note_on_c,5,45,118,,,,,,,,,,,,,,,,,,,,,,,
7,61830, Note_on_c,5,42,0,,,,,,,,,,,,,,,,,,,,,,,
7,62207, Note_on_c,5,45,0,,,,,,,,,,,,,,,,,,,,,,,
7,62208, Note_on_c,5,42,99,,,,,,,,,,,,,,,,,,,,,,,
7,62579, Note_on_c,5,42,0,,,,,,,,,,,,,,,,,,,,,,,
7,62592, Note_on_c,5,38,122,,,,,,,,,,,,,,,,,,,,,,,
7,62976, Note_on_c,5,42,99,,,,,,,,,,,,,,,,,,,,,,,
7,62990, Note_on_c,5,38,0,,,,,,,,,,,,,,,,,,,,,,,
7,63356, Note_on_c,5,42,0,,,,,,,,,,,,,,,,,,,,,,,
7,63360, Note_on_c,5,45,110,,,,,,,,,,,,,,,,,,,,,,,
7,63743, Note_on_c,5,45,0,,,,,,,,,,,,,,,,,,,,,,,
7,63743, End_track,,,,,,,,,,,,,,,,,,,,,,,,,,
8,0, Start_track,,,,,,,,,,,,,,,,,,,,,,,,,,
8,0, Instrument_t,VIOLIN  ,,,,,,,,,,,,,,,,,,,,,,,,,
8,108, Control_c,6,121,0,,,,,,,,,,,,,,,,,,,,,,,
8,109, Control_c,6,11,127,,,,,,,,,,,,,,,,,,,,,,,
8,110, Control_c,6,101,0,,,,,,,,,,,,,,,,,,,,,,,
8,160, Control_c,6,100,0,,,,,,,,,,,,,,,,,,,,,,,
8,248, Control_c,6,6,2,,,,,,,,,,,,,,,,,,,,,,,
8,249, Control_c,6,91,78,,,,,,,,,,,,,,,,,,,,,,,
8,340, Control_c,6,10,98,,,,,,,,,,,,,,,,,,,,,,,
8,396, Control_c,6,32,0,,,,,,,,,,,,,,,,,,,,,,,
8,397, Control_c,6,0,0,,,,,,,,,,,,,,,,,,,,,,,
8,398, Program_c,6,40,,,,,,,,,,,,,,,,,,,,,,,,
8,399, Control_c,6,93,30,,,,,,,,,,,,,,,,,,,,,,,
8,432, Control_c,6,121,0,,,,,,,,,,,,,,,,,,,,,,,
8,529, Control_c,6,7,68,,,,,,,,,,,,,,,,,,,,,,,
8,13824, Note_on_c,6,54,127,,,,,,,,,,,,,,,,,,,,,,,
8,14202, Note_on_c,6,54,0,,,,,,,,,,,,,,,,,,,,,,,
8,14208, Note_on_c,6,57,122,,,,,,,,,,,,,,,,,,,,,,,
8,14574, Note_on_c,6,57,0,,,,,,,,,,,,,,,,,,,,,,,
8,14592, Note_on_c,6,64,122,,,,,,,,,,,,,,,,,,,,,,,
8,14972, Note_on_c,6,64,0,,,,,,,,,,,,,,,,,,,,,,,
8,14976, Note_on_c,6,59,107,,,,,,,,,,,,,,,,,,,,,,,
8,15349, Note_on_c,6,59,0,,,,,,,,,,,,,,,,,,,,,,,
8,15360, Note_on_c,6,54,107,,,,,,,,,,,,,,,,,,,,,,,
8,15744, Note_on_c,6,57,127,,,,,,,,,,,,,,,,,,,,,,,
8,15748, Note_on_c,6,54,0,,,,,,,,,,,,,,,,,,,,,,,
8,16102, Note_on_c,6,57,0,,,,,,,,,,,,,,,,,,,,,,,
8,16128, Note_on_c,6,64,122,,,,,,,,,,,,,,,,,,,,,,,
8,16500, Note_on_c,6,64,0,,,,,,,,,,,,,,,,,,,,,,,
8,16512, Note_on_c,6,59,118,,,,,,,,,,,,,,,,,,,,,,,
8,16893, Note_on_c,6,59,0,,,,,,,,,,,,,,,,,,,,,,,
8,16896, Note_on_c,6,54,107,,,,,,,,,,,,,,,,,,,,,,,
8,17267, Note_on_c,6,54,0,,,,,,,,,,,,,,,,,,,,,,,
8,17280, Note_on_c,6,57,127,,,,,,,,,,,,,,,,,,,,,,,
8,17645, Note_on_c,6,57,0,,,,,,,,,,,,,,,,,,,,,,,
8,17664, Note_on_c,6,64,122,,,,,,,,,,,,,,,,,,,,,,,
8,18032, Note_on_c,6,64,0,,,,,,,,,,,,,,,,,,,,,,,
8,18048, Note_on_c,6,59,118,,,,,,,,,,,,,,,,,,,,,,,
8,18424, Note_on_c,6,59,0,,,,,,,,,,,,,,,,,,,,,,,
8,18432, Note_on_c,6,54,107,,,,,,,,,,,,,,,,,,,,,,,
8,18812, Note_on_c,6,54,0,,,,,,,,,,,,,,,,,,,,,,,
8,18816, Note_on_c,6,57,122,,,,,,,,,,,,,,,,,,,,,,,
8,19179, Note_on_c,6,57,0,,,,,,,,,,,,,,,,,,,,,,,
8,19200, Note_on_c,6,64,118,,,,,,,,,,,,,,,,,,,,,,,
8,19558, Note_on_c,6,64,0,,,,,,,,,,,,,,,,,,,,,,,
8,19584, Note_on_c,6,59,110,,,,,,,,,,,,,,,,,,,,,,,
8,19947, Note_on_c,6,59,0,,,,,,,,,,,,,,,,,,,,,,,
8,19968, Note_on_c,6,50,127,,,,,,,,,,,,,,,,,,,,,,,
8,20346, Note_on_c,6,50,0,,,,,,,,,,,,,,,,,,,,,,,
8,20352, Note_on_c,6,52,127,,,,,,,,,,,,,,,,,,,,,,,
8,20736, Note_on_c,6,54,127,,,,,,,,,,,,,,,,,,,,,,,
8,20739, Note_on_c,6,52,0,,,,,,,,,,,,,,,,,,,,,,,
8,21496, Note_on_c,6,50,127,,,,,,,,,,,,,,,,,,,,,,,
8,21503, Note_on_c,6,54,0,,,,,,,,,,,,,,,,,,,,,,,
8,21891, Note_on_c,6,50,0,,,,,,,,,,,,,,,,,,,,,,,
8,21896, Note_on_c,6,52,127,,,,,,,,,,,,,,,,,,,,,,,
8,22264, Note_on_c,6,54,127,,,,,,,,,,,,,,,,,,,,,,,
8,22273, Note_on_c,6,52,0,,,,,,,,,,,,,,,,,,,,,,,
8,23045, Note_on_c,6,54,0,,,,,,,,,,,,,,,,,,,,,,,
8,23048, Note_on_c,6,50,127,,,,,,,,,,,,,,,,,,,,,,,
8,23421, Note_on_c,6,50,0,,,,,,,,,,,,,,,,,,,,,,,
8,23424, Note_on_c,6,52,127,,,,,,,,,,,,,,,,,,,,,,,
8,23807, Note_on_c,6,52,0,,,,,,,,,,,,,,,,,,,,,,,
8,23808, Note_on_c,6,57,122,,,,,,,,,,,,,,,,,,,,,,,
8,24005, Note_on_c,6,57,0,,,,,,,,,,,,,,,,,,,,,,,
8,24008, Note_on_c,6,56,107,,,,,,,,,,,,,,,,,,,,,,,
8,24197, Note_on_c,6,56,0,,,,,,,,,,,,,,,,,,,,,,,
8,24200, Note_on_c,6,54,112,,,,,,,,,,,,,,,,,,,,,,,
8,24384, Note_on_c,6,54,0,,,,,,,,,,,,,,,,,,,,,,,
8,24384, Note_on_c,6,57,127,,,,,,,,,,,,,,,,,,,,,,,
8,24563, Note_on_c,6,57,0,,,,,,,,,,,,,,,,,,,,,,,
8,24576, Note_on_c,6,59,122,,,,,,,,,,,,,,,,,,,,,,,
8,26115, Note_on_c,6,59,0,,,,,,,,,,,,,,,,,,,,,,,
8,33408, Note_on_c,6,54,127,,,,,,,,,,,,,,,,,,,,,,,
8,33786, Note_on_c,6,54,0,,,,,,,,,,,,,,,,,,,,,,,
8,33792, Note_on_c,6,57,122,,,,,,,,,,,,,,,,,,,,,,,
8,34158, Note_on_c,6,57,0,,,,,,,,,,,,,,,,,,,,,,,
8,34176, Note_on_c,6,64,122,,,,,,,,,,,,,,,,,,,,,,,
8,34556, Note_on_c,6,64,0,,,,,,,,,,,,,,,,,,,,,,,
8,34560, Note_on_c,6,59,107,,,,,,,,,,,,,,,,,,,,,,,
8,34933, Note_on_c,6,59,0,,,,,,,,,,,,,,,,,,,,,,,
8,34944, Note_on_c,6,54,107,,,,,,,,,,,,,,,,,,,,,,,
8,35328, Note_on_c,6,57,127,,,,,,,,,,,,,,,,,,,,,,,
8,35332, Note_on_c,6,54,0,,,,,,,,,,,,,,,,,,,,,,,
8,35686, Note_on_c,6,57,0,,,,,,,,,,,,,,,,,,,,,,,
8,35712, Note_on_c,6,64,122,,,,,,,,,,,,,,,,,,,,,,,
8,36084, Note_on_c,6,64,0,,,,,,,,,,,,,,,,,,,,,,,
8,36096, Note_on_c,6,59,118,,,,,,,,,,,,,,,,,,,,,,,
8,36477, Note_on_c,6,59,0,,,,,,,,,,,,,,,,,,,,,,,
8,36480, Note_on_c,6,54,107,,,,,,,,,,,,,,,,,,,,,,,
8,36851, Note_on_c,6,54,0,,,,,,,,,,,,,,,,,,,,,,,
8,36864, Note_on_c,6,57,127,,,,,,,,,,,,,,,,,,,,,,,
8,37229, Note_on_c,6,57,0,,,,,,,,,,,,,,,,,,,,,,,
8,37248, Note_on_c,6,64,122,,,,,,,,,,,,,,,,,,,,,,,
8,37616, Note_on_c,6,64,0,,,,,,,,,,,,,,,,,,,,,,,
8,37632, Note_on_c,6,59,118,,,,,,,,,,,,,,,,,,,,,,,
8,38008, Note_on_c,6,59,0,,,,,,,,,,,,,,,,,,,,,,,
8,38016, Note_on_c,6,54,107,,,,,,,,,,,,,,,,,,,,,,,
8,38396, Note_on_c,6,54,0,,,,,,,,,,,,,,,,,,,,,,,
8,38400, Note_on_c,6,57,122,,,,,,,,,,,,,,,,,,,,,,,
8,38763, Note_on_c,6,57,0,,,,,,,,,,,,,,,,,,,,,,,
8,38784, Note_on_c,6,64,118,,,,,,,,,,,,,,,,,,,,,,,
8,39142, Note_on_c,6,64,0,,,,,,,,,,,,,,,,,,,,,,,
8,39168, Note_on_c,6,59,110,,,,,,,,,,,,,,,,,,,,,,,
8,39531, Note_on_c,6,59,0,,,,,,,,,,,,,,,,,,,,,,,
8,39552, Note_on_c,6,50,127,,,,,,,,,,,,,,,,,,,,,,,
8,39930, Note_on_c,6,50,0,,,,,,,,,,,,,,,,,,,,,,,
8,39936, Note_on_c,6,52,127,,,,,,,,,,,,,,,,,,,,,,,
8,40320, Note_on_c,6,54,127,,,,,,,,,,,,,,,,,,,,,,,
8,40323, Note_on_c,6,52,0,,,,,,,,,,,,,,,,,,,,,,,
8,41080, Note_on_c,6,50,127,,,,,,,,,,,,,,,,,,,,,,,
8,41087, Note_on_c,6,54,0,,,,,,,,,,,,,,,,,,,,,,,
8,41475, Note_on_c,6,50,0,,,,,,,,,,,,,,,,,,,,,,,
8,41480, Note_on_c,6,52,127,,,,,,,,,,,,,,,,,,,,,,,
8,41848, Note_on_c,6,54,127,,,,,,,,,,,,,,,,,,,,,,,
8,41857, Note_on_c,6,52,0,,,,,,,,,,,,,,,,,,,,,,,
8,42629, Note_on_c,6,54,0,,,,,,,,,,,,,,,,,,,,,,,
8,42632, Note_on_c,6,50,127,,,,,,,,,,,,,,,,,,,,,,,
8,43005, Note_on_c,6,50,0,,,,,,,,,,,,,,,,,,,,,,,
8,43008, Note_on_c,6,52,127,,,,,,,,,,,,,,,,,,,,,,,
8,43391, Note_on_c,6,52,0,,,,,,,,,,,,,,,,,,,,,,,
8,43392, Note_on_c,6,57,122,,,,,,,,,,,,,,,,,,,,,,,
8,43589, Note_on_c,6,57,0,,,,,,,,,,,,,,,,,,,,,,,
8,43592, Note_on_c,6,56,107,,,,,,,,,,,,,,,,,,,,,,,
8,43781, Note_on_c,6,56,0,,,,,,,,,,,,,,,,,,,,,,,
8,43784, Note_on_c,6,54,112,,,,,,,,,,,,,,,,,,,,,,,
8,43968, Note_on_c,6,54,0,,,,,,,,,,,,,,,,,,,,,,,
8,43968, Note_on_c,6,57,127,,,,,,,,,,,,,,,,,,,,,,,
8,44147, Note_on_c,6,57,0,,,,,,,,,,,,,,,,,,,,,,,
8,44160, Note_on_c,6,59,122,,,,,,,,,,,,,,,,,,,,,,,
8,45699, Note_on_c,6,59,0,,,,,,,,,,,,,,,,,,,,,,,
8,57984, Note_on_c,6,54,127,,,,,,,,,,,,,,,,,,,,,,,
8,58363, Note_on_c,6,54,0,,,,,,,,,,,,,,,,,,,,,,,
8,58368, Note_on_c,6,57,127,,,,,,,,,,,,,,,,,,,,,,,
8,58745, Note_on_c,6,57,0,,,,,,,,,,,,,,,,,,,,,,,
8,58752, Note_on_c,6,64,127,,,,,,,,,,,,,,,,,,,,,,,
8,59130, Note_on_c,6,64,0,,,,,,,,,,,,,,,,,,,,,,,
8,59136, Note_on_c,6,61,107,,,,,,,,,,,,,,,,,,,,,,,
8,59516, Note_on_c,6,61,0,,,,,,,,,,,,,,,,,,,,,,,
8,59520, Note_on_c,6,54,127,,,,,,,,,,,,,,,,,,,,,,,
8,59897, Note_on_c,6,54,0,,,,,,,,,,,,,,,,,,,,,,,
8,59904, Note_on_c,6,57,127,,,,,,,,,,,,,,,,,,,,,,,
8,60282, Note_on_c,6,57,0,,,,,,,,,,,,,,,,,,,,,,,
8,60288, Note_on_c,6,64,127,,,,,,,,,,,,,,,,,,,,,,,
8,60651, Note_on_c,6,64,0,,,,,,,,,,,,,,,,,,,,,,,
8,60672, Note_on_c,6,61,112,,,,,,,,,,,,,,,,,,,,,,,
8,61055, Note_on_c,6,61,0,,,,,,,,,,,,,,,,,,,,,,,
8,61056, Note_on_c,6,54,112,,,,,,,,,,,,,,,,,,,,,,,
8,61440, Note_on_c,6,57,127,,,,,,,,,,,,,,,,,,,,,,,
8,61445, Note_on_c,6,54,0,,,,,,,,,,,,,,,,,,,,,,,
8,61816, Note_on_c,6,57,0,,,,,,,,,,,,,,,,,,,,,,,
8,61824, Note_on_c,6,64,127,,,,,,,,,,,,,,,,,,,,,,,
8,62197, Note_on_c,6,64,0,,,,,,,,,,,,,,,,,,,,,,,
8,62208, Note_on_c,6,61,112,,,,,,,,,,,,,,,,,,,,,,,
8,62585, Note_on_c,6,61,0,,,,,,,,,,,,,,,,,,,,,,,
8,62592, Note_on_c,6,54,127,,,,,,,,,,,,,,,,,,,,,,,
8,62976, Note_on_c,6,57,127,,,,,,,,,,,,,,,,,,,,,,,
8,62982, Note_on_c,6,54,0,,,,,,,,,,,,,,,,,,,,,,,
8,63351, Note_on_c,6,57,0,,,,,,,,,,,,,,,,,,,,,,,
8,63360, Note_on_c,6,64,127,,,,,,,,,,,,,,,,,,,,,,,
8,63630, Note_on_c,6,64,0,,,,,,,,,,,,,,,,,,,,,,,
8,63648, Note_on_c,6,61,103,,,,,,,,,,,,,,,,,,,,,,,
8,64169, Note_on_c,6,61,0,,,,,,,,,,,,,,,,,,,,,,,
8,64169, End_track,,,,,,,,,,,,,,,,,,,,,,,,,,
9,0, Start_track,,,,,,,,,,,,,,,,,,,,,,,,,,
9,0, Instrument_t,STEELGTR,,,,,,,,,,,,,,,,,,,,,,,,,
9,108, Control_c,7,121,0,,,,,,,,,,,,,,,,,,,,,,,
9,109, Control_c,7,11,127,,,,,,,,,,,,,,,,,,,,,,,
9,110, Control_c,7,101,0,,,,,,,,,,,,,,,,,,,,,,,
9,160, Control_c,7,100,0,,,,,,,,,,,,,,,,,,,,,,,
9,248, Control_c,7,6,2,,,,,,,,,,,,,,,,,,,,,,,
9,249, Control_c,7,91,59,,,,,,,,,,,,,,,,,,,,,,,
9,340, Control_c,7,10,64,,,,,,,,,,,,,,,,,,,,,,,
9,396, Control_c,7,32,0,,,,,,,,,,,,,,,,,,,,,,,
9,397, Control_c,7,0,0,,,,,,,,,,,,,,,,,,,,,,,
9,398, Program_c,7,25,,,,,,,,,,,,,,,,,,,,,,,,
9,399, Control_c,7,93,27,,,,,,,,,,,,,,,,,,,,,,,
9,432, Control_c,7,121,0,,,,,,,,,,,,,,,,,,,,,,,
9,529, Control_c,7,7,88,,,,,,,,,,,,,,,,,,,,,,,
9,19968, Note_on_c,7,62,127,,,,,,,,,,,,,,,,,,,,,,,
9,20064, Note_on_c,7,69,127,,,,,,,,,,,,,,,,,,,,,,,
9,20160, Note_on_c,7,64,122,,,,,,,,,,,,,,,,,,,,,,,
9,20172, Note_on_c,7,62,0,,,,,,,,,,,,,,,,,,,,,,,
9,20297, Note_on_c,7,69,0,,,,,,,,,,,,,,,,,,,,,,,
9,20304, Note_on_c,7,64,0,,,,,,,,,,,,,,,,,,,,,,,
9,20352, Note_on_c,7,68,107,,,,,,,,,,,,,,,,,,,,,,,
9,20400, Note_on_c,7,69,127,,,,,,,,,,,,,,,,,,,,,,,
9,20411, Note_on_c,7,68,0,,,,,,,,,,,,,,,,,,,,,,,
9,20448, Note_on_c,7,68,103,,,,,,,,,,,,,,,,,,,,,,,
9,20457, Note_on_c,7,69,0,,,,,,,,,,,,,,,,,,,,,,,
9,20496, Note_on_c,7,64,118,,,,,,,,,,,,,,,,,,,,,,,
9,20589, Note_on_c,7,68,0,,,,,,,,,,,,,,,,,,,,,,,
9,20592, Note_on_c,7,59,104,,,,,,,,,,,,,,,,,,,,,,,
9,20689, Note_on_c,7,64,0,,,,,,,,,,,,,,,,,,,,,,,
9,20705, Note_on_c,7,59,0,,,,,,,,,,,,,,,,,,,,,,,
9,20832, Note_on_c,7,47,122,,,,,,,,,,,,,,,,,,,,,,,
9,20880, Note_on_c,7,49,99,,,,,,,,,,,,,,,,,,,,,,,
9,20893, Note_on_c,7,47,0,,,,,,,,,,,,,,,,,,,,,,,
9,20916, Note_on_c,7,49,0,,,,,,,,,,,,,,,,,,,,,,,
9,20928, Note_on_c,7,52,114,,,,,,,,,,,,,,,,,,,,,,,
9,21102, Note_on_c,7,52,0,,,,,,,,,,,,,,,,,,,,,,,
9,21120, Note_on_c,7,47,127,,,,,,,,,,,,,,,,,,,,,,,
9,21168, Note_on_c,7,49,99,,,,,,,,,,,,,,,,,,,,,,,
9,21178, Note_on_c,7,47,0,,,,,,,,,,,,,,,,,,,,,,,
9,21216, Note_on_c,7,52,107,,,,,,,,,,,,,,,,,,,,,,,
9,21224, Note_on_c,7,49,0,,,,,,,,,,,,,,,,,,,,,,,
9,21264, Note_on_c,7,54,95,,,,,,,,,,,,,,,,,,,,,,,
9,21276, Note_on_c,7,52,0,,,,,,,,,,,,,,,,,,,,,,,
9,21312, Note_on_c,7,57,122,,,,,,,,,,,,,,,,,,,,,,,
9,21323, Note_on_c,7,54,0,,,,,,,,,,,,,,,,,,,,,,,
9,21456, Note_on_c,7,59,107,,,,,,,,,,,,,,,,,,,,,,,
9,21470, Note_on_c,7,57,0,,,,,,,,,,,,,,,,,,,,,,,
9,21504, Note_on_c,7,54,112,,,,,,,,,,,,,,,,,,,,,,,
9,21504, Note_on_c,7,62,127,,,,,,,,,,,,,,,,,,,,,,,
9,21506, Note_on_c,7,59,0,,,,,,,,,,,,,,,,,,,,,,,
9,21600, Note_on_c,7,69,127,,,,,,,,,,,,,,,,,,,,,,,
9,21670, Note_on_c,7,54,0,,,,,,,,,,,,,,,,,,,,,,,
9,21696, Note_on_c,7,64,122,,,,,,,,,,,,,,,,,,,,,,,
9,21708, Note_on_c,7,62,0,,,,,,,,,,,,,,,,,,,,,,,
9,21833, Note_on_c,7,69,0,,,,,,,,,,,,,,,,,,,,,,,
9,21840, Note_on_c,7,64,0,,,,,,,,,,,,,,,,,,,,,,,
9,21888, Note_on_c,7,68,107,,,,,,,,,,,,,,,,,,,,,,,
9,21936, Note_on_c,7,69,127,,,,,,,,,,,,,,,,,,,,,,,
9,21947, Note_on_c,7,68,0,,,,,,,,,,,,,,,,,,,,,,,
9,21984, Note_on_c,7,68,103,,,,,,,,,,,,,,,,,,,,,,,
9,21993, Note_on_c,7,69,0,,,,,,,,,,,,,,,,,,,,,,,
9,22032, Note_on_c,7,64,118,,,,,,,,,,,,,,,,,,,,,,,
9,22125, Note_on_c,7,68,0,,,,,,,,,,,,,,,,,,,,,,,
9,22128, Note_on_c,7,59,104,,,,,,,,,,,,,,,,,,,,,,,
9,22225, Note_on_c,7,64,0,,,,,,,,,,,,,,,,,,,,,,,
9,22241, Note_on_c,7,59,0,,,,,,,,,,,,,,,,,,,,,,,
9,22368, Note_on_c,7,47,122,,,,,,,,,,,,,,,,,,,,,,,
9,22416, Note_on_c,7,49,99,,,,,,,,,,,,,,,,,,,,,,,
9,22429, Note_on_c,7,47,0,,,,,,,,,,,,,,,,,,,,,,,
9,22452, Note_on_c,7,49,0,,,,,,,,,,,,,,,,,,,,,,,
9,22464, Note_on_c,7,52,114,,,,,,,,,,,,,,,,,,,,,,,
9,22638, Note_on_c,7,52,0,,,,,,,,,,,,,,,,,,,,,,,
9,22656, Note_on_c,7,47,127,,,,,,,,,,,,,,,,,,,,,,,
9,22704, Note_on_c,7,49,99,,,,,,,,,,,,,,,,,,,,,,,
9,22714, Note_on_c,7,47,0,,,,,,,,,,,,,,,,,,,,,,,
9,22752, Note_on_c,7,52,107,,,,,,,,,,,,,,,,,,,,,,,
9,22760, Note_on_c,7,49,0,,,,,,,,,,,,,,,,,,,,,,,
9,22800, Note_on_c,7,54,95,,,,,,,,,,,,,,,,,,,,,,,
9,22812, Note_on_c,7,52,0,,,,,,,,,,,,,,,,,,,,,,,
9,22848, Note_on_c,7,57,122,,,,,,,,,,,,,,,,,,,,,,,
9,22859, Note_on_c,7,54,0,,,,,,,,,,,,,,,,,,,,,,,
9,22992, Note_on_c,7,59,107,,,,,,,,,,,,,,,,,,,,,,,
9,23006, Note_on_c,7,57,0,,,,,,,,,,,,,,,,,,,,,,,
9,23040, Note_on_c,7,62,127,,,,,,,,,,,,,,,,,,,,,,,
9,23042, Note_on_c,7,59,0,,,,,,,,,,,,,,,,,,,,,,,
9,23136, Note_on_c,7,69,127,,,,,,,,,,,,,,,,,,,,,,,
9,23232, Note_on_c,7,64,122,,,,,,,,,,,,,,,,,,,,,,,
9,23244, Note_on_c,7,62,0,,,,,,,,,,,,,,,,,,,,,,,
9,23369, Note_on_c,7,69,0,,,,,,,,,,,,,,,,,,,,,,,
9,23376, Note_on_c,7,64,0,,,,,,,,,,,,,,,,,,,,,,,
9,23424, Note_on_c,7,68,107,,,,,,,,,,,,,,,,,,,,,,,
9,23472, Note_on_c,7,69,127,,,,,,,,,,,,,,,,,,,,,,,
9,23483, Note_on_c,7,68,0,,,,,,,,,,,,,,,,,,,,,,,
9,23520, Note_on_c,7,68,103,,,,,,,,,,,,,,,,,,,,,,,
9,23529, Note_on_c,7,69,0,,,,,,,,,,,,,,,,,,,,,,,
9,23568, Note_on_c,7,64,118,,,,,,,,,,,,,,,,,,,,,,,
9,23661, Note_on_c,7,68,0,,,,,,,,,,,,,,,,,,,,,,,
9,23664, Note_on_c,7,59,104,,,,,,,,,,,,,,,,,,,,,,,
9,23761, Note_on_c,7,64,0,,,,,,,,,,,,,,,,,,,,,,,
9,23777, Note_on_c,7,59,0,,,,,,,,,,,,,,,,,,,,,,,
9,23808, Note_on_c,7,59,107,,,,,,,,,,,,,,,,,,,,,,,
9,23856, Note_on_c,7,64,93,,,,,,,,,,,,,,,,,,,,,,,
9,23868, Note_on_c,7,59,0,,,,,,,,,,,,,,,,,,,,,,,
9,23952, Note_on_c,7,59,91,,,,,,,,,,,,,,,,,,,,,,,
9,23954, Note_on_c,7,64,0,,,,,,,,,,,,,,,,,,,,,,,
9,24000, Note_on_c,7,64,98,,,,,,,,,,,,,,,,,,,,,,,
9,24016, Note_on_c,7,59,0,,,,,,,,,,,,,,,,,,,,,,,
9,24096, Note_on_c,7,59,83,,,,,,,,,,,,,,,,,,,,,,,
9,24099, Note_on_c,7,64,0,,,,,,,,,,,,,,,,,,,,,,,
9,24144, Note_on_c,7,64,91,,,,,,,,,,,,,,,,,,,,,,,
9,24162, Note_on_c,7,59,0,,,,,,,,,,,,,,,,,,,,,,,
9,24240, Note_on_c,7,59,85,,,,,,,,,,,,,,,,,,,,,,,
9,24244, Note_on_c,7,64,0,,,,,,,,,,,,,,,,,,,,,,,
9,24288, Note_on_c,7,64,98,,,,,,,,,,,,,,,,,,,,,,,
9,24305, Note_on_c,7,59,0,,,,,,,,,,,,,,,,,,,,,,,
9,24384, Note_on_c,7,59,83,,,,,,,,,,,,,,,,,,,,,,,
9,24410, Note_on_c,7,64,0,,,,,,,,,,,,,,,,,,,,,,,
9,24432, Note_on_c,7,64,93,,,,,,,,,,,,,,,,,,,,,,,
9,24440, Note_on_c,7,59,0,,,,,,,,,,,,,,,,,,,,,,,
9,24567, Note_on_c,7,64,0,,,,,,,,,,,,,,,,,,,,,,,
9,24576, Note_on_c,7,59,98,,,,,,,,,,,,,,,,,,,,,,,
9,24624, Note_on_c,7,64,91,,,,,,,,,,,,,,,,,,,,,,,
9,24637, Note_on_c,7,59,0,,,,,,,,,,,,,,,,,,,,,,,
9,24672, Note_on_c,7,66,95,,,,,,,,,,,,,,,,,,,,,,,
9,24678, Note_on_c,7,64,0,,,,,,,,,,,,,,,,,,,,,,,
9,24768, Note_on_c,7,59,82,,,,,,,,,,,,,,,,,,,,,,,
9,24796, Note_on_c,7,66,0,,,,,,,,,,,,,,,,,,,,,,,
9,24816, Note_on_c,7,64,87,,,,,,,,,,,,,,,,,,,,,,,
9,24838, Note_on_c,7,59,0,,,,,,,,,,,,,,,,,,,,,,,
9,24912, Note_on_c,7,59,95,,,,,,,,,,,,,,,,,,,,,,,
9,24920, Note_on_c,7,64,0,,,,,,,,,,,,,,,,,,,,,,,
9,25008, Note_on_c,7,66,92,,,,,,,,,,,,,,,,,,,,,,,
9,25026, Note_on_c,7,59,0,,,,,,,,,,,,,,,,,,,,,,,
9,25103, Note_on_c,7,66,0,,,,,,,,,,,,,,,,,,,,,,,
9,25104, Note_on_c,7,59,101,,,,,,,,,,,,,,,,,,,,,,,
9,25152, Note_on_c,7,64,87,,,,,,,,,,,,,,,,,,,,,,,
9,25170, Note_on_c,7,59,0,,,,,,,,,,,,,,,,,,,,,,,
9,25200, Note_on_c,7,66,95,,,,,,,,,,,,,,,,,,,,,,,
9,25213, Note_on_c,7,64,0,,,,,,,,,,,,,,,,,,,,,,,
9,25248, Note_on_c,7,59,93,,,,,,,,,,,,,,,,,,,,,,,
9,25257, Note_on_c,7,66,0,,,,,,,,,,,,,,,,,,,,,,,
9,25392, Note_on_c,7,64,93,,,,,,,,,,,,,,,,,,,,,,,
9,25415, Note_on_c,7,59,0,,,,,,,,,,,,,,,,,,,,,,,
9,25440, Note_on_c,7,66,95,,,,,,,,,,,,,,,,,,,,,,,
9,25447, Note_on_c,7,64,0,,,,,,,,,,,,,,,,,,,,,,,
9,25488, Note_on_c,7,59,98,,,,,,,,,,,,,,,,,,,,,,,
9,25490, Note_on_c,7,66,0,,,,,,,,,,,,,,,,,,,,,,,
9,25536, Note_on_c,7,64,107,,,,,,,,,,,,,,,,,,,,,,,
9,25561, Note_on_c,7,59,0,,,,,,,,,,,,,,,,,,,,,,,
9,25584, Note_on_c,7,66,88,,,,,,,,,,,,,,,,,,,,,,,
9,25586, Note_on_c,7,64,0,,,,,,,,,,,,,,,,,,,,,,,
9,25680, Note_on_c,7,59,107,,,,,,,,,,,,,,,,,,,,,,,
9,25691, Note_on_c,7,66,0,,,,,,,,,,,,,,,,,,,,,,,
9,25776, Note_on_c,7,66,103,,,,,,,,,,,,,,,,,,,,,,,
9,25786, Note_on_c,7,59,0,,,,,,,,,,,,,,,,,,,,,,,
9,25824, Note_on_c,7,59,107,,,,,,,,,,,,,,,,,,,,,,,
9,25845, Note_on_c,7,66,0,,,,,,,,,,,,,,,,,,,,,,,
9,25872, Note_on_c,7,64,107,,,,,,,,,,,,,,,,,,,,,,,
9,25882, Note_on_c,7,59,0,,,,,,,,,,,,,,,,,,,,,,,
9,25920, Note_on_c,7,66,99,,,,,,,,,,,,,,,,,,,,,,,
9,25929, Note_on_c,7,64,0,,,,,,,,,,,,,,,,,,,,,,,
9,25968, Note_on_c,7,59,104,,,,,,,,,,,,,,,,,,,,,,,
9,25985, Note_on_c,7,66,0,,,,,,,,,,,,,,,,,,,,,,,
9,26016, Note_on_c,7,64,104,,,,,,,,,,,,,,,,,,,,,,,
9,26030, Note_on_c,7,59,0,,,,,,,,,,,,,,,,,,,,,,,
9,26091, Note_on_c,7,64,0,,,,,,,,,,,,,,,,,,,,,,,
9,34608, Note_on_c,7,42,107,,,,,,,,,,,,,,,,,,,,,,,
9,34651, Note_on_c,7,42,0,,,,,,,,,,,,,,,,,,,,,,,
9,34656, Note_on_c,7,45,122,,,,,,,,,,,,,,,,,,,,,,,
9,34703, Note_on_c,7,45,0,,,,,,,,,,,,,,,,,,,,,,,
9,34704, Note_on_c,7,47,127,,,,,,,,,,,,,,,,,,,,,,,
9,34752, Note_on_c,7,52,127,,,,,,,,,,,,,,,,,,,,,,,
9,34755, Note_on_c,7,47,0,,,,,,,,,,,,,,,,,,,,,,,
9,34848, Note_on_c,7,49,107,,,,,,,,,,,,,,,,,,,,,,,
9,34858, Note_on_c,7,52,0,,,,,,,,,,,,,,,,,,,,,,,
9,34896, Note_on_c,7,52,118,,,,,,,,,,,,,,,,,,,,,,,
9,34900, Note_on_c,7,49,0,,,,,,,,,,,,,,,,,,,,,,,
9,34944, Note_on_c,7,52,0,,,,,,,,,,,,,,,,,,,,,,,
9,34944, Note_on_c,7,54,107,,,,,,,,,,,,,,,,,,,,,,,
9,35141, Note_on_c,7,54,0,,,,,,,,,,,,,,,,,,,,,,,
9,36144, Note_on_c,7,42,127,,,,,,,,,,,,,,,,,,,,,,,
9,36184, Note_on_c,7,42,0,,,,,,,,,,,,,,,,,,,,,,,
9,36192, Note_on_c,7,45,122,,,,,,,,,,,,,,,,,,,,,,,
9,36235, Note_on_c,7,45,0,,,,,,,,,,,,,,,,,,,,,,,
9,36240, Note_on_c,7,47,127,,,,,,,,,,,,,,,,,,,,,,,
9,36288, Note_on_c,7,47,0,,,,,,,,,,,,,,,,,,,,,,,
9,36288, Note_on_c,7,52,127,,,,,,,,,,,,,,,,,,,,,,,
9,36384, Note_on_c,7,49,112,,,,,,,,,,,,,,,,,,,,,,,
9,36398, Note_on_c,7,52,0,,,,,,,,,,,,,,,,,,,,,,,
9,36432, Note_on_c,7,52,118,,,,,,,,,,,,,,,,,,,,,,,
9,36434, Note_on_c,7,49,0,,,,,,,,,,,,,,,,,,,,,,,
9,36478, Note_on_c,7,52,0,,,,,,,,,,,,,,,,,,,,,,,
9,36480, Note_on_c,7,54,112,,,,,,,,,,,,,,,,,,,,,,,
9,36665, Note_on_c,7,54,0,,,,,,,,,,,,,,,,,,,,,,,
9,37680, Note_on_c,7,42,107,,,,,,,,,,,,,,,,,,,,,,,
9,37723, Note_on_c,7,42,0,,,,,,,,,,,,,,,,,,,,,,,
9,37728, Note_on_c,7,45,127,,,,,,,,,,,,,,,,,,,,,,,
9,37769, Note_on_c,7,45,0,,,,,,,,,,,,,,,,,,,,,,,
9,37776, Note_on_c,7,47,127,,,,,,,,,,,,,,,,,,,,,,,
9,37817, Note_on_c,7,47,0,,,,,,,,,,,,,,,,,,,,,,,
9,37824, Note_on_c,7,52,127,,,,,,,,,,,,,,,,,,,,,,,
9,37920, Note_on_c,7,49,107,,,,,,,,,,,,,,,,,,,,,,,
9,37933, Note_on_c,7,52,0,,,,,,,,,,,,,,,,,,,,,,,
9,37965, Note_on_c,7,49,0,,,,,,,,,,,,,,,,,,,,,,,
9,37968, Note_on_c,7,52,114,,,,,,,,,,,,,,,,,,,,,,,
9,38016, Note_on_c,7,54,107,,,,,,,,,,,,,,,,,,,,,,,
9,38017, Note_on_c,7,52,0,,,,,,,,,,,,,,,,,,,,,,,
9,38197, Note_on_c,7,54,0,,,,,,,,,,,,,,,,,,,,,,,
9,39216, Note_on_c,7,42,112,,,,,,,,,,,,,,,,,,,,,,,
9,39254, Note_on_c,7,42,0,,,,,,,,,,,,,,,,,,,,,,,
9,39264, Note_on_c,7,45,127,,,,,,,,,,,,,,,,,,,,,,,
9,39307, Note_on_c,7,45,0,,,,,,,,,,,,,,,,,,,,,,,
9,39312, Note_on_c,7,47,127,,,,,,,,,,,,,,,,,,,,,,,
9,39351, Note_on_c,7,47,0,,,,,,,,,,,,,,,,,,,,,,,
9,39360, Note_on_c,7,52,127,,,,,,,,,,,,,,,,,,,,,,,
9,39454, Note_on_c,7,52,0,,,,,,,,,,,,,,,,,,,,,,,
9,39456, Note_on_c,7,49,112,,,,,,,,,,,,,,,,,,,,,,,
9,39495, Note_on_c,7,49,0,,,,,,,,,,,,,,,,,,,,,,,
9,39504, Note_on_c,7,52,122,,,,,,,,,,,,,,,,,,,,,,,
9,39552, Note_on_c,7,62,127,,,,,,,,,,,,,,,,,,,,,,,
9,39557, Note_on_c,7,52,0,,,,,,,,,,,,,,,,,,,,,,,
9,39648, Note_on_c,7,69,127,,,,,,,,,,,,,,,,,,,,,,,
9,39744, Note_on_c,7,64,122,,,,,,,,,,,,,,,,,,,,,,,
9,39756, Note_on_c,7,62,0,,,,,,,,,,,,,,,,,,,,,,,
9,39881, Note_on_c,7,69,0,,,,,,,,,,,,,,,,,,,,,,,
9,39888, Note_on_c,7,64,0,,,,,,,,,,,,,,,,,,,,,,,
9,39936, Note_on_c,7,68,107,,,,,,,,,,,,,,,,,,,,,,,
9,39984, Note_on_c,7,69,127,,,,,,,,,,,,,,,,,,,,,,,
9,39995, Note_on_c,7,68,0,,,,,,,,,,,,,,,,,,,,,,,
9,40032, Note_on_c,7,68,103,,,,,,,,,,,,,,,,,,,,,,,
9,40041, Note_on_c,7,69,0,,,,,,,,,,,,,,,,,,,,,,,
9,40080, Note_on_c,7,64,118,,,,,,,,,,,,,,,,,,,,,,,
9,40173, Note_on_c,7,68,0,,,,,,,,,,,,,,,,,,,,,,,
9,40176, Note_on_c,7,59,104,,,,,,,,,,,,,,,,,,,,,,,
9,40273, Note_on_c,7,64,0,,,,,,,,,,,,,,,,,,,,,,,
9,40289, Note_on_c,7,59,0,,,,,,,,,,,,,,,,,,,,,,,
9,40416, Note_on_c,7,47,122,,,,,,,,,,,,,,,,,,,,,,,
9,40464, Note_on_c,7,49,99,,,,,,,,,,,,,,,,,,,,,,,
9,40477, Note_on_c,7,47,0,,,,,,,,,,,,,,,,,,,,,,,
9,40500, Note_on_c,7,49,0,,,,,,,,,,,,,,,,,,,,,,,
9,40512, Note_on_c,7,52,114,,,,,,,,,,,,,,,,,,,,,,,
9,40686, Note_on_c,7,52,0,,,,,,,,,,,,,,,,,,,,,,,
9,40704, Note_on_c,7,47,127,,,,,,,,,,,,,,,,,,,,,,,
9,40752, Note_on_c,7,49,99,,,,,,,,,,,,,,,,,,,,,,,
9,40762, Note_on_c,7,47,0,,,,,,,,,,,,,,,,,,,,,,,
9,40800, Note_on_c,7,52,107,,,,,,,,,,,,,,,,,,,,,,,
9,40808, Note_on_c,7,49,0,,,,,,,,,,,,,,,,,,,,,,,
9,40848, Note_on_c,7,54,95,,,,,,,,,,,,,,,,,,,,,,,
9,40860, Note_on_c,7,52,0,,,,,,,,,,,,,,,,,,,,,,,
9,40896, Note_on_c,7,57,122,,,,,,,,,,,,,,,,,,,,,,,
9,40907, Note_on_c,7,54,0,,,,,,,,,,,,,,,,,,,,,,,
9,41040, Note_on_c,7,59,107,,,,,,,,,,,,,,,,,,,,,,,
9,41054, Note_on_c,7,57,0,,,,,,,,,,,,,,,,,,,,,,,
9,41088, Note_on_c,7,54,112,,,,,,,,,,,,,,,,,,,,,,,
9,41088, Note_on_c,7,62,127,,,,,,,,,,,,,,,,,,,,,,,
9,41090, Note_on_c,7,59,0,,,,,,,,,,,,,,,,,,,,,,,
9,41184, Note_on_c,7,69,127,,,,,,,,,,,,,,,,,,,,,,,
9,41254, Note_on_c,7,54,0,,,,,,,,,,,,,,,,,,,,,,,
9,41280, Note_on_c,7,64,122,,,,,,,,,,,,,,,,,,,,,,,
9,41292, Note_on_c,7,62,0,,,,,,,,,,,,,,,,,,,,,,,
9,41417, Note_on_c,7,69,0,,,,,,,,,,,,,,,,,,,,,,,
9,41424, Note_on_c,7,64,0,,,,,,,,,,,,,,,,,,,,,,,
9,41472, Note_on_c,7,68,107,,,,,,,,,,,,,,,,,,,,,,,
9,41520, Note_on_c,7,69,127,,,,,,,,,,,,,,,,,,,,,,,
9,41531, Note_on_c,7,68,0,,,,,,,,,,,,,,,,,,,,,,,
9,41568, Note_on_c,7,68,103,,,,,,,,,,,,,,,,,,,,,,,
9,41577, Note_on_c,7,69,0,,,,,,,,,,,,,,,,,,,,,,,
9,41616, Note_on_c,7,64,118,,,,,,,,,,,,,,,,,,,,,,,
9,41709, Note_on_c,7,68,0,,,,,,,,,,,,,,,,,,,,,,,
9,41712, Note_on_c,7,59,104,,,,,,,,,,,,,,,,,,,,,,,
9,41809, Note_on_c,7,64,0,,,,,,,,,,,,,,,,,,,,,,,
9,41825, Note_on_c,7,59,0,,,,,,,,,,,,,,,,,,,,,,,
9,41952, Note_on_c,7,47,122,,,,,,,,,,,,,,,,,,,,,,,
9,42000, Note_on_c,7,49,99,,,,,,,,,,,,,,,,,,,,,,,
9,42013, Note_on_c,7,47,0,,,,,,,,,,,,,,,,,,,,,,,
9,42036, Note_on_c,7,49,0,,,,,,,,,,,,,,,,,,,,,,,
9,42048, Note_on_c,7,52,114,,,,,,,,,,,,,,,,,,,,,,,
9,42222, Note_on_c,7,52,0,,,,,,,,,,,,,,,,,,,,,,,
9,42240, Note_on_c,7,47,127,,,,,,,,,,,,,,,,,,,,,,,
9,42288, Note_on_c,7,49,99,,,,,,,,,,,,,,,,,,,,,,,
9,42298, Note_on_c,7,47,0,,,,,,,,,,,,,,,,,,,,,,,
9,42336, Note_on_c,7,52,107,,,,,,,,,,,,,,,,,,,,,,,
9,42344, Note_on_c,7,49,0,,,,,,,,,,,,,,,,,,,,,,,
9,42384, Note_on_c,7,54,95,,,,,,,,,,,,,,,,,,,,,,,
9,42396, Note_on_c,7,52,0,,,,,,,,,,,,,,,,,,,,,,,
9,42432, Note_on_c,7,57,122,,,,,,,,,,,,,,,,,,,,,,,
9,42443, Note_on_c,7,54,0,,,,,,,,,,,,,,,,,,,,,,,
9,42576, Note_on_c,7,59,107,,,,,,,,,,,,,,,,,,,,,,,
9,42590, Note_on_c,7,57,0,,,,,,,,,,,,,,,,,,,,,,,
9,42624, Note_on_c,7,62,127,,,,,,,,,,,,,,,,,,,,,,,
9,42626, Note_on_c,7,59,0,,,,,,,,,,,,,,,,,,,,,,,
9,42720, Note_on_c,7,69,127,,,,,,,,,,,,,,,,,,,,,,,
9,42816, Note_on_c,7,64,122,,,,,,,,,,,,,,,,,,,,,,,
9,42828, Note_on_c,7,62,0,,,,,,,,,,,,,,,,,,,,,,,
9,42953, Note_on_c,7,69,0,,,,,,,,,,,,,,,,,,,,,,,
9,42960, Note_on_c,7,64,0,,,,,,,,,,,,,,,,,,,,,,,
9,43008, Note_on_c,7,68,107,,,,,,,,,,,,,,,,,,,,,,,
9,43056, Note_on_c,7,69,127,,,,,,,,,,,,,,,,,,,,,,,
9,43067, Note_on_c,7,68,0,,,,,,,,,,,,,,,,,,,,,,,
9,43104, Note_on_c,7,68,103,,,,,,,,,,,,,,,,,,,,,,,
9,43113, Note_on_c,7,69,0,,,,,,,,,,,,,,,,,,,,,,,
9,43152, Note_on_c,7,64,118,,,,,,,,,,,,,,,,,,,,,,,
9,43245, Note_on_c,7,68,0,,,,,,,,,,,,,,,,,,,,,,,
9,43248, Note_on_c,7,59,104,,,,,,,,,,,,,,,,,,,,,,,
9,43345, Note_on_c,7,64,0,,,,,,,,,,,,,,,,,,,,,,,
9,43361, Note_on_c,7,59,0,,,,,,,,,,,,,,,,,,,,,,,
9,43392, Note_on_c,7,59,107,,,,,,,,,,,,,,,,,,,,,,,
9,43440, Note_on_c,7,64,93,,,,,,,,,,,,,,,,,,,,,,,
9,43452, Note_on_c,7,59,0,,,,,,,,,,,,,,,,,,,,,,,
9,43536, Note_on_c,7,59,91,,,,,,,,,,,,,,,,,,,,,,,
9,43538, Note_on_c,7,64,0,,,,,,,,,,,,,,,,,,,,,,,
9,43584, Note_on_c,7,64,98,,,,,,,,,,,,,,,,,,,,,,,
9,43600, Note_on_c,7,59,0,,,,,,,,,,,,,,,,,,,,,,,
9,43680, Note_on_c,7,59,83,,,,,,,,,,,,,,,,,,,,,,,
9,43683, Note_on_c,7,64,0,,,,,,,,,,,,,,,,,,,,,,,
9,43728, Note_on_c,7,64,91,,,,,,,,,,,,,,,,,,,,,,,
9,43746, Note_on_c,7,59,0,,,,,,,,,,,,,,,,,,,,,,,
9,43824, Note_on_c,7,59,85,,,,,,,,,,,,,,,,,,,,,,,
9,43828, Note_on_c,7,64,0,,,,,,,,,,,,,,,,,,,,,,,
9,43872, Note_on_c,7,64,98,,,,,,,,,,,,,,,,,,,,,,,
9,43889, Note_on_c,7,59,0,,,,,,,,,,,,,,,,,,,,,,,
9,43968, Note_on_c,7,59,83,,,,,,,,,,,,,,,,,,,,,,,
9,43994, Note_on_c,7,64,0,,,,,,,,,,,,,,,,,,,,,,,
9,44016, Note_on_c,7,64,93,,,,,,,,,,,,,,,,,,,,,,,
9,44024, Note_on_c,7,59,0,,,,,,,,,,,,,,,,,,,,,,,
9,44151, Note_on_c,7,64,0,,,,,,,,,,,,,,,,,,,,,,,
9,44160, Note_on_c,7,59,98,,,,,,,,,,,,,,,,,,,,,,,
9,44208, Note_on_c,7,64,91,,,,,,,,,,,,,,,,,,,,,,,
9,44221, Note_on_c,7,59,0,,,,,,,,,,,,,,,,,,,,,,,
9,44256, Note_on_c,7,66,95,,,,,,,,,,,,,,,,,,,,,,,
9,44262, Note_on_c,7,64,0,,,,,,,,,,,,,,,,,,,,,,,
9,44352, Note_on_c,7,59,82,,,,,,,,,,,,,,,,,,,,,,,
9,44380, Note_on_c,7,66,0,,,,,,,,,,,,,,,,,,,,,,,
9,44400, Note_on_c,7,64,87,,,,,,,,,,,,,,,,,,,,,,,
9,44422, Note_on_c,7,59,0,,,,,,,,,,,,,,,,,,,,,,,
9,44496, Note_on_c,7,59,95,,,,,,,,,,,,,,,,,,,,,,,
9,44504, Note_on_c,7,64,0,,,,,,,,,,,,,,,,,,,,,,,
9,44592, Note_on_c,7,66,92,,,,,,,,,,,,,,,,,,,,,,,
9,44610, Note_on_c,7,59,0,,,,,,,,,,,,,,,,,,,,,,,
9,44687, Note_on_c,7,66,0,,,,,,,,,,,,,,,,,,,,,,,
9,44688, Note_on_c,7,59,101,,,,,,,,,,,,,,,,,,,,,,,
9,44736, Note_on_c,7,64,87,,,,,,,,,,,,,,,,,,,,,,,
9,44754, Note_on_c,7,59,0,,,,,,,,,,,,,,,,,,,,,,,
9,44784, Note_on_c,7,66,95,,,,,,,,,,,,,,,,,,,,,,,
9,44797, Note_on_c,7,64,0,,,,,,,,,,,,,,,,,,,,,,,
9,44832, Note_on_c,7,59,93,,,,,,,,,,,,,,,,,,,,,,,
9,44841, Note_on_c,7,66,0,,,,,,,,,,,,,,,,,,,,,,,
9,44976, Note_on_c,7,64,93,,,,,,,,,,,,,,,,,,,,,,,
9,44999, Note_on_c,7,59,0,,,,,,,,,,,,,,,,,,,,,,,
9,45024, Note_on_c,7,66,95,,,,,,,,,,,,,,,,,,,,,,,
9,45031, Note_on_c,7,64,0,,,,,,,,,,,,,,,,,,,,,,,
9,45072, Note_on_c,7,59,98,,,,,,,,,,,,,,,,,,,,,,,
9,45074, Note_on_c,7,66,0,,,,,,,,,,,,,,,,,,,,,,,
9,45120, Note_on_c,7,64,107,,,,,,,,,,,,,,,,,,,,,,,
9,45145, Note_on_c,7,59,0,,,,,,,,,,,,,,,,,,,,,,,
9,45168, Note_on_c,7,66,88,,,,,,,,,,,,,,,,,,,,,,,
9,45170, Note_on_c,7,64,0,,,,,,,,,,,,,,,,,,,,,,,
9,45264, Note_on_c,7,59,107,,,,,,,,,,,,,,,,,,,,,,,
9,45275, Note_on_c,7,66,0,,,,,,,,,,,,,,,,,,,,,,,
9,45360, Note_on_c,7,66,103,,,,,,,,,,,,,,,,,,,,,,,
9,45370, Note_on_c,7,59,0,,,,,,,,,,,,,,,,,,,,,,,
9,45408, Note_on_c,7,59,107,,,,,,,,,,,,,,,,,,,,,,,
9,45429, Note_on_c,7,66,0,,,,,,,,,,,,,,,,,,,,,,,
9,45456, Note_on_c,7,64,107,,,,,,,,,,,,,,,,,,,,,,,
9,45466, Note_on_c,7,59,0,,,,,,,,,,,,,,,,,,,,,,,
9,45504, Note_on_c,7,66,99,,,,,,,,,,,,,,,,,,,,,,,
9,45513, Note_on_c,7,64,0,,,,,,,,,,,,,,,,,,,,,,,
9,45552, Note_on_c,7,59,104,,,,,,,,,,,,,,,,,,,,,,,
9,45569, Note_on_c,7,66,0,,,,,,,,,,,,,,,,,,,,,,,
9,45600, Note_on_c,7,64,104,,,,,,,,,,,,,,,,,,,,,,,
9,45614, Note_on_c,7,59,0,,,,,,,,,,,,,,,,,,,,,,,
9,45675, Note_on_c,7,64,0,,,,,,,,,,,,,,,,,,,,,,,
9,45675, End_track,,,,,,,,,,,,,,,,,,,,,,,,,,
10,0, Start_track,,,,,,,,,,,,,,,,,,,,,,,,,,
10,0, Instrument_t,CLEANGTR,,,,,,,,,,,,,,,,,,,,,,,,,
10,108, Control_c,8,121,0,,,,,,,,,,,,,,,,,,,,,,,
10,109, Control_c,8,11,127,,,,,,,,,,,,,,,,,,,,,,,
10,110, Control_c,8,101,0,,,,,,,,,,,,,,,,,,,,,,,
10,160, Control_c,8,101,0,,,,,,,,,,,,,,,,,,,,,,,
10,160, Control_c,8,100,0,,,,,,,,,,,,,,,,,,,,,,,
10,248, Control_c,8,6,5,,,,,,,,,,,,,,,,,,,,,,,
10,249, Control_c,8,91,101,,,,,,,,,,,,,,,,,,,,,,,
10,340, Control_c,8,10,103,,,,,,,,,,,,,,,,,,,,,,,
10,396, Control_c,8,32,0,,,,,,,,,,,,,,,,,,,,,,,
10,397, Control_c,8,0,0,,,,,,,,,,,,,,,,,,,,,,,
10,398, Program_c,8,27,,,,,,,,,,,,,,,,,,,,,,,,
10,399, Control_c,8,93,40,,,,,,,,,,,,,,,,,,,,,,,
10,432, Control_c,8,121,0,,,,,,,,,,,,,,,,,,,,,,,
10,529, Control_c,8,7,76,,,,,,,,,,,,,,,,,,,,,,,
10,20160, Note_on_c,8,64,127,,,,,,,,,,,,,,,,,,,,,,,
10,20419, Note_on_c,8,64,0,,,,,,,,,,,,,,,,,,,,,,,
10,20496, Note_on_c,8,64,127,,,,,,,,,,,,,,,,,,,,,,,
10,20592, Note_on_c,8,59,118,,,,,,,,,,,,,,,,,,,,,,,
10,20600, Note_on_c,8,64,0,,,,,,,,,,,,,,,,,,,,,,,
10,20726, Note_on_c,8,59,0,,,,,,,,,,,,,,,,,,,,,,,
10,20976, Note_on_c,8,57,98,,,,,,,,,,,,,,,,,,,,,,,
10,21139, Note_on_c,8,57,0,,,,,,,,,,,,,,,,,,,,,,,
10,21264, Note_on_c,8,57,107,,,,,,,,,,,,,,,,,,,,,,,
10,21472, Note_on_c,8,57,0,,,,,,,,,,,,,,,,,,,,,,,
10,21696, Note_on_c,8,64,127,,,,,,,,,,,,,,,,,,,,,,,
10,21955, Note_on_c,8,64,0,,,,,,,,,,,,,,,,,,,,,,,
10,22032, Note_on_c,8,64,127,,,,,,,,,,,,,,,,,,,,,,,
10,22128, Note_on_c,8,59,118,,,,,,,,,,,,,,,,,,,,,,,
10,22136, Note_on_c,8,64,0,,,,,,,,,,,,,,,,,,,,,,,
10,22262, Note_on_c,8,59,0,,,,,,,,,,,,,,,,,,,,,,,
10,22512, Note_on_c,8,57,98,,,,,,,,,,,,,,,,,,,,,,,
10,22675, Note_on_c,8,57,0,,,,,,,,,,,,,,,,,,,,,,,
10,22800, Note_on_c,8,57,107,,,,,,,,,,,,,,,,,,,,,,,
10,23008, Note_on_c,8,57,0,,,,,,,,,,,,,,,,,,,,,,,
10,39744, Note_on_c,8,64,127,,,,,,,,,,,,,,,,,,,,,,,
10,40003, Note_on_c,8,64,0,,,,,,,,,,,,,,,,,,,,,,,
10,40080, Note_on_c,8,64,127,,,,,,,,,,,,,,,,,,,,,,,
10,40176, Note_on_c,8,59,118,,,,,,,,,,,,,,,,,,,,,,,
10,40184, Note_on_c,8,64,0,,,,,,,,,,,,,,,,,,,,,,,
10,40310, Note_on_c,8,59,0,,,,,,,,,,,,,,,,,,,,,,,
10,40560, Note_on_c,8,57,98,,,,,,,,,,,,,,,,,,,,,,,
10,40723, Note_on_c,8,57,0,,,,,,,,,,,,,,,,,,,,,,,
10,40848, Note_on_c,8,57,107,,,,,,,,,,,,,,,,,,,,,,,
10,41056, Note_on_c,8,57,0,,,,,,,,,,,,,,,,,,,,,,,
10,41280, Note_on_c,8,64,127,,,,,,,,,,,,,,,,,,,,,,,
10,41539, Note_on_c,8,64,0,,,,,,,,,,,,,,,,,,,,,,,
10,41616, Note_on_c,8,64,127,,,,,,,,,,,,,,,,,,,,,,,
10,41712, Note_on_c,8,59,118,,,,,,,,,,,,,,,,,,,,,,,
10,41720, Note_on_c,8,64,0,,,,,,,,,,,,,,,,,,,,,,,
10,41846, Note_on_c,8,59,0,,,,,,,,,,,,,,,,,,,,,,,
10,42096, Note_on_c,8,57,98,,,,,,,,,,,,,,,,,,,,,,,
10,42259, Note_on_c,8,57,0,,,,,,,,,,,,,,,,,,,,,,,
10,42384, Note_on_c,8,57,107,,,,,,,,,,,,,,,,,,,,,,,
10,42592, Note_on_c,8,57,0,,,,,,,,,,,,,,,,,,,,,,,
10,45696, Note_on_c,8,57,127,,,,,,,,,,,,,,,,,,,,,,,
10,45696, Note_on_c,8,61,107,,,,,,,,,,,,,,,,,,,,,,,
10,45867, Note_on_c,8,61,0,,,,,,,,,,,,,,,,,,,,,,,
10,45869, Note_on_c,8,57,0,,,,,,,,,,,,,,,,,,,,,,,
10,45888, Note_on_c,8,57,118,,,,,,,,,,,,,,,,,,,,,,,
10,45888, Note_on_c,8,61,103,,,,,,,,,,,,,,,,,,,,,,,
10,46002, Note_on_c,8,61,0,,,,,,,,,,,,,,,,,,,,,,,
10,46004, Note_on_c,8,57,0,,,,,,,,,,,,,,,,,,,,,,,
10,46032, Note_on_c,8,57,110,,,,,,,,,,,,,,,,,,,,,,,
10,46032, Note_on_c,8,61,86,,,,,,,,,,,,,,,,,,,,,,,
10,46152, Note_on_c,8,57,0,,,,,,,,,,,,,,,,,,,,,,,
10,46152, Note_on_c,8,61,0,,,,,,,,,,,,,,,,,,,,,,,
10,46176, Note_on_c,8,57,114,,,,,,,,,,,,,,,,,,,,,,,
10,46176, Note_on_c,8,61,82,,,,,,,,,,,,,,,,,,,,,,,
10,46270, Note_on_c,8,57,0,,,,,,,,,,,,,,,,,,,,,,,
10,46272, Note_on_c,8,57,114,,,,,,,,,,,,,,,,,,,,,,,
10,46272, Note_on_c,8,61,0,,,,,,,,,,,,,,,,,,,,,,,
10,46272, Note_on_c,8,61,86,,,,,,,,,,,,,,,,,,,,,,,
10,46432, Note_on_c,8,57,0,,,,,,,,,,,,,,,,,,,,,,,
10,46435, Note_on_c,8,61,0,,,,,,,,,,,,,,,,,,,,,,,
10,46464, Note_on_c,8,57,114,,,,,,,,,,,,,,,,,,,,,,,
10,46464, Note_on_c,8,61,86,,,,,,,,,,,,,,,,,,,,,,,
10,46623, Note_on_c,8,57,0,,,,,,,,,,,,,,,,,,,,,,,
10,46625, Note_on_c,8,61,0,,,,,,,,,,,,,,,,,,,,,,,
10,46656, Note_on_c,8,57,118,,,,,,,,,,,,,,,,,,,,,,,
10,46656, Note_on_c,8,61,88,,,,,,,,,,,,,,,,,,,,,,,
10,46782, Note_on_c,8,57,0,,,,,,,,,,,,,,,,,,,,,,,
10,46786, Note_on_c,8,61,0,,,,,,,,,,,,,,,,,,,,,,,
10,46800, Note_on_c,8,57,114,,,,,,,,,,,,,,,,,,,,,,,
10,46800, Note_on_c,8,61,80,,,,,,,,,,,,,,,,,,,,,,,
10,46915, Note_on_c,8,57,0,,,,,,,,,,,,,,,,,,,,,,,
10,46919, Note_on_c,8,61,0,,,,,,,,,,,,,,,,,,,,,,,
10,46944, Note_on_c,8,57,118,,,,,,,,,,,,,,,,,,,,,,,
10,46944, Note_on_c,8,61,86,,,,,,,,,,,,,,,,,,,,,,,
10,47078, Note_on_c,8,57,0,,,,,,,,,,,,,,,,,,,,,,,
10,47080, Note_on_c,8,61,0,,,,,,,,,,,,,,,,,,,,,,,
10,47088, Note_on_c,8,57,110,,,,,,,,,,,,,,,,,,,,,,,
10,47088, Note_on_c,8,61,82,,,,,,,,,,,,,,,,,,,,,,,
10,47197, Note_on_c,8,57,0,,,,,,,,,,,,,,,,,,,,,,,
10,47201, Note_on_c,8,61,0,,,,,,,,,,,,,,,,,,,,,,,
10,47232, Note_on_c,8,57,122,,,,,,,,,,,,,,,,,,,,,,,
10,47232, Note_on_c,8,61,95,,,,,,,,,,,,,,,,,,,,,,,
10,47402, Note_on_c,8,57,0,,,,,,,,,,,,,,,,,,,,,,,
10,47405, Note_on_c,8,61,0,,,,,,,,,,,,,,,,,,,,,,,
10,47424, Note_on_c,8,57,122,,,,,,,,,,,,,,,,,,,,,,,
10,47424, Note_on_c,8,61,92,,,,,,,,,,,,,,,,,,,,,,,
10,47538, Note_on_c,8,57,0,,,,,,,,,,,,,,,,,,,,,,,
10,47542, Note_on_c,8,61,0,,,,,,,,,,,,,,,,,,,,,,,
10,47568, Note_on_c,8,57,110,,,,,,,,,,,,,,,,,,,,,,,
10,47568, Note_on_c,8,61,82,,,,,,,,,,,,,,,,,,,,,,,
10,47694, Note_on_c,8,57,0,,,,,,,,,,,,,,,,,,,,,,,
10,47697, Note_on_c,8,61,0,,,,,,,,,,,,,,,,,,,,,,,
10,47712, Note_on_c,8,57,114,,,,,,,,,,,,,,,,,,,,,,,
10,47712, Note_on_c,8,61,86,,,,,,,,,,,,,,,,,,,,,,,
10,47829, Note_on_c,8,57,0,,,,,,,,,,,,,,,,,,,,,,,
10,47831, Note_on_c,8,61,0,,,,,,,,,,,,,,,,,,,,,,,
10,47856, Note_on_c,8,57,114,,,,,,,,,,,,,,,,,,,,,,,
10,47856, Note_on_c,8,61,86,,,,,,,,,,,,,,,,,,,,,,,
10,47973, Note_on_c,8,61,0,,,,,,,,,,,,,,,,,,,,,,,
10,47974, Note_on_c,8,57,0,,,,,,,,,,,,,,,,,,,,,,,
10,48000, Note_on_c,8,57,114,,,,,,,,,,,,,,,,,,,,,,,
10,48000, Note_on_c,8,61,82,,,,,,,,,,,,,,,,,,,,,,,
10,48169, Note_on_c,8,57,0,,,,,,,,,,,,,,,,,,,,,,,
10,48170, Note_on_c,8,61,0,,,,,,,,,,,,,,,,,,,,,,,
10,48192, Note_on_c,8,57,110,,,,,,,,,,,,,,,,,,,,,,,
10,48192, Note_on_c,8,61,82,,,,,,,,,,,,,,,,,,,,,,,
10,48315, Note_on_c,8,61,0,,,,,,,,,,,,,,,,,,,,,,,
10,48317, Note_on_c,8,57,0,,,,,,,,,,,,,,,,,,,,,,,
10,48336, Note_on_c,8,57,114,,,,,,,,,,,,,,,,,,,,,,,
10,48336, Note_on_c,8,61,86,,,,,,,,,,,,,,,,,,,,,,,
10,48447, Note_on_c,8,57,0,,,,,,,,,,,,,,,,,,,,,,,
10,48449, Note_on_c,8,61,0,,,,,,,,,,,,,,,,,,,,,,,
10,48480, Note_on_c,8,57,110,,,,,,,,,,,,,,,,,,,,,,,
10,48480, Note_on_c,8,61,78,,,,,,,,,,,,,,,,,,,,,,,
10,48612, Note_on_c,8,61,0,,,,,,,,,,,,,,,,,,,,,,,
10,48613, Note_on_c,8,57,0,,,,,,,,,,,,,,,,,,,,,,,
10,48624, Note_on_c,8,57,118,,,,,,,,,,,,,,,,,,,,,,,
10,48624, Note_on_c,8,61,92,,,,,,,,,,,,,,,,,,,,,,,
10,48727, Note_on_c,8,57,0,,,,,,,,,,,,,,,,,,,,,,,
10,48727, Note_on_c,8,61,0,,,,,,,,,,,,,,,,,,,,,,,
10,48768, Note_on_c,8,57,114,,,,,,,,,,,,,,,,,,,,,,,
10,48768, Note_on_c,8,61,86,,,,,,,,,,,,,,,,,,,,,,,
10,48943, Note_on_c,8,57,0,,,,,,,,,,,,,,,,,,,,,,,
10,48944, Note_on_c,8,61,0,,,,,,,,,,,,,,,,,,,,,,,
10,48960, Note_on_c,8,57,114,,,,,,,,,,,,,,,,,,,,,,,
10,48960, Note_on_c,8,61,80,,,,,,,,,,,,,,,,,,,,,,,
10,49075, Note_on_c,8,57,0,,,,,,,,,,,,,,,,,,,,,,,
10,49075, Note_on_c,8,61,0,,,,,,,,,,,,,,,,,,,,,,,
10,49104, Note_on_c,8,57,107,,,,,,,,,,,,,,,,,,,,,,,
10,49104, Note_on_c,8,61,80,,,,,,,,,,,,,,,,,,,,,,,
10,49225, Note_on_c,8,57,0,,,,,,,,,,,,,,,,,,,,,,,
10,49225, Note_on_c,8,61,0,,,,,,,,,,,,,,,,,,,,,,,
10,49248, Note_on_c,8,57,107,,,,,,,,,,,,,,,,,,,,,,,
10,49248, Note_on_c,8,61,82,,,,,,,,,,,,,,,,,,,,,,,
10,49364, Note_on_c,8,57,0,,,,,,,,,,,,,,,,,,,,,,,
10,49365, Note_on_c,8,61,0,,,,,,,,,,,,,,,,,,,,,,,
10,49392, Note_on_c,8,57,107,,,,,,,,,,,,,,,,,,,,,,,
10,49392, Note_on_c,8,61,78,,,,,,,,,,,,,,,,,,,,,,,
10,49502, Note_on_c,8,61,0,,,,,,,,,,,,,,,,,,,,,,,
10,49504, Note_on_c,8,57,0,,,,,,,,,,,,,,,,,,,,,,,
10,49536, Note_on_c,8,57,114,,,,,,,,,,,,,,,,,,,,,,,
10,49536, Note_on_c,8,61,80,,,,,,,,,,,,,,,,,,,,,,,
10,49700, Note_on_c,8,57,0,,,,,,,,,,,,,,,,,,,,,,,
10,49702, Note_on_c,8,61,0,,,,,,,,,,,,,,,,,,,,,,,
10,49728, Note_on_c,8,57,114,,,,,,,,,,,,,,,,,,,,,,,
10,49728, Note_on_c,8,61,88,,,,,,,,,,,,,,,,,,,,,,,
10,49840, Note_on_c,8,61,0,,,,,,,,,,,,,,,,,,,,,,,
10,49842, Note_on_c,8,57,0,,,,,,,,,,,,,,,,,,,,,,,
10,49872, Note_on_c,8,57,104,,,,,,,,,,,,,,,,,,,,,,,
10,49872, Note_on_c,8,61,78,,,,,,,,,,,,,,,,,,,,,,,
10,49989, Note_on_c,8,61,0,,,,,,,,,,,,,,,,,,,,,,,
10,49992, Note_on_c,8,57,0,,,,,,,,,,,,,,,,,,,,,,,
10,50016, Note_on_c,8,57,110,,,,,,,,,,,,,,,,,,,,,,,
10,50016, Note_on_c,8,61,80,,,,,,,,,,,,,,,,,,,,,,,
10,50133, Note_on_c,8,57,0,,,,,,,,,,,,,,,,,,,,,,,
10,50133, Note_on_c,8,61,0,,,,,,,,,,,,,,,,,,,,,,,
10,50160, Note_on_c,8,57,114,,,,,,,,,,,,,,,,,,,,,,,
10,50160, Note_on_c,8,61,78,,,,,,,,,,,,,,,,,,,,,,,
10,50273, Note_on_c,8,57,0,,,,,,,,,,,,,,,,,,,,,,,
10,50274, Note_on_c,8,61,0,,,,,,,,,,,,,,,,,,,,,,,
10,50304, Note_on_c,8,57,114,,,,,,,,,,,,,,,,,,,,,,,
10,50304, Note_on_c,8,61,95,,,,,,,,,,,,,,,,,,,,,,,
10,50473, Note_on_c,8,57,0,,,,,,,,,,,,,,,,,,,,,,,
10,50473, Note_on_c,8,61,0,,,,,,,,,,,,,,,,,,,,,,,
10,50496, Note_on_c,8,57,114,,,,,,,,,,,,,,,,,,,,,,,
10,50496, Note_on_c,8,61,92,,,,,,,,,,,,,,,,,,,,,,,
10,50610, Note_on_c,8,61,0,,,,,,,,,,,,,,,,,,,,,,,
10,50611, Note_on_c,8,57,0,,,,,,,,,,,,,,,,,,,,,,,
10,50640, Note_on_c,8,57,110,,,,,,,,,,,,,,,,,,,,,,,
10,50640, Note_on_c,8,61,78,,,,,,,,,,,,,,,,,,,,,,,
10,50760, Note_on_c,8,57,0,,,,,,,,,,,,,,,,,,,,,,,
10,50761, Note_on_c,8,61,0,,,,,,,,,,,,,,,,,,,,,,,
10,50784, Note_on_c,8,57,107,,,,,,,,,,,,,,,,,,,,,,,
10,50784, Note_on_c,8,61,78,,,,,,,,,,,,,,,,,,,,,,,
10,50909, Note_on_c,8,57,0,,,,,,,,,,,,,,,,,,,,,,,
10,50911, Note_on_c,8,61,0,,,,,,,,,,,,,,,,,,,,,,,
10,50928, Note_on_c,8,57,110,,,,,,,,,,,,,,,,,,,,,,,
10,50928, Note_on_c,8,61,82,,,,,,,,,,,,,,,,,,,,,,,
10,51050, Note_on_c,8,61,0,,,,,,,,,,,,,,,,,,,,,,,
10,51051, Note_on_c,8,57,0,,,,,,,,,,,,,,,,,,,,,,,
10,51072, Note_on_c,8,57,107,,,,,,,,,,,,,,,,,,,,,,,
10,51072, Note_on_c,8,61,82,,,,,,,,,,,,,,,,,,,,,,,
10,51247, Note_on_c,8,57,0,,,,,,,,,,,,,,,,,,,,,,,
10,51249, Note_on_c,8,61,0,,,,,,,,,,,,,,,,,,,,,,,
10,51264, Note_on_c,8,57,107,,,,,,,,,,,,,,,,,,,,,,,
10,51264, Note_on_c,8,61,80,,,,,,,,,,,,,,,,,,,,,,,
10,51379, Note_on_c,8,57,0,,,,,,,,,,,,,,,,,,,,,,,
10,51388, Note_on_c,8,61,0,,,,,,,,,,,,,,,,,,,,,,,
10,51408, Note_on_c,8,57,107,,,,,,,,,,,,,,,,,,,,,,,
10,51408, Note_on_c,8,61,64,,,,,,,,,,,,,,,,,,,,,,,
10,51534, Note_on_c,8,57,0,,,,,,,,,,,,,,,,,,,,,,,
10,51536, Note_on_c,8,61,0,,,,,,,,,,,,,,,,,,,,,,,
10,51552, Note_on_c,8,57,107,,,,,,,,,,,,,,,,,,,,,,,
10,51552, Note_on_c,8,61,82,,,,,,,,,,,,,,,,,,,,,,,
10,51672, Note_on_c,8,57,0,,,,,,,,,,,,,,,,,,,,,,,
10,51673, Note_on_c,8,61,0,,,,,,,,,,,,,,,,,,,,,,,
10,51696, Note_on_c,8,57,107,,,,,,,,,,,,,,,,,,,,,,,
10,51696, Note_on_c,8,61,80,,,,,,,,,,,,,,,,,,,,,,,
10,51790, Note_on_c,8,57,0,,,,,,,,,,,,,,,,,,,,,,,
10,51791, Note_on_c,8,61,0,,,,,,,,,,,,,,,,,,,,,,,
10,51840, Note_on_c,8,57,127,,,,,,,,,,,,,,,,,,,,,,,
10,51840, Note_on_c,8,61,107,,,,,,,,,,,,,,,,,,,,,,,
10,52011, Note_on_c,8,61,0,,,,,,,,,,,,,,,,,,,,,,,
10,52013, Note_on_c,8,57,0,,,,,,,,,,,,,,,,,,,,,,,
10,52032, Note_on_c,8,57,118,,,,,,,,,,,,,,,,,,,,,,,
10,52032, Note_on_c,8,61,103,,,,,,,,,,,,,,,,,,,,,,,
10,52146, Note_on_c,8,61,0,,,,,,,,,,,,,,,,,,,,,,,
10,52148, Note_on_c,8,57,0,,,,,,,,,,,,,,,,,,,,,,,
10,52176, Note_on_c,8,57,110,,,,,,,,,,,,,,,,,,,,,,,
10,52176, Note_on_c,8,61,86,,,,,,,,,,,,,,,,,,,,,,,
10,52296, Note_on_c,8,57,0,,,,,,,,,,,,,,,,,,,,,,,
10,52296, Note_on_c,8,61,0,,,,,,,,,,,,,,,,,,,,,,,
10,52320, Note_on_c,8,57,114,,,,,,,,,,,,,,,,,,,,,,,
10,52320, Note_on_c,8,61,82,,,,,,,,,,,,,,,,,,,,,,,
10,52414, Note_on_c,8,57,0,,,,,,,,,,,,,,,,,,,,,,,
10,52416, Note_on_c,8,57,114,,,,,,,,,,,,,,,,,,,,,,,
10,52416, Note_on_c,8,61,0,,,,,,,,,,,,,,,,,,,,,,,
10,52416, Note_on_c,8,61,86,,,,,,,,,,,,,,,,,,,,,,,
10,52576, Note_on_c,8,57,0,,,,,,,,,,,,,,,,,,,,,,,
10,52579, Note_on_c,8,61,0,,,,,,,,,,,,,,,,,,,,,,,
10,52608, Note_on_c,8,57,114,,,,,,,,,,,,,,,,,,,,,,,
10,52608, Note_on_c,8,61,86,,,,,,,,,,,,,,,,,,,,,,,
10,52767, Note_on_c,8,57,0,,,,,,,,,,,,,,,,,,,,,,,
10,52769, Note_on_c,8,61,0,,,,,,,,,,,,,,,,,,,,,,,
10,52800, Note_on_c,8,57,118,,,,,,,,,,,,,,,,,,,,,,,
10,52800, Note_on_c,8,61,88,,,,,,,,,,,,,,,,,,,,,,,
10,52926, Note_on_c,8,57,0,,,,,,,,,,,,,,,,,,,,,,,
10,52930, Note_on_c,8,61,0,,,,,,,,,,,,,,,,,,,,,,,
10,52944, Note_on_c,8,57,114,,,,,,,,,,,,,,,,,,,,,,,
10,52944, Note_on_c,8,61,80,,,,,,,,,,,,,,,,,,,,,,,
10,53059, Note_on_c,8,57,0,,,,,,,,,,,,,,,,,,,,,,,
10,53063, Note_on_c,8,61,0,,,,,,,,,,,,,,,,,,,,,,,
10,53088, Note_on_c,8,57,118,,,,,,,,,,,,,,,,,,,,,,,
10,53088, Note_on_c,8,61,86,,,,,,,,,,,,,,,,,,,,,,,
10,53222, Note_on_c,8,57,0,,,,,,,,,,,,,,,,,,,,,,,
10,53224, Note_on_c,8,61,0,,,,,,,,,,,,,,,,,,,,,,,
10,53232, Note_on_c,8,57,110,,,,,,,,,,,,,,,,,,,,,,,
10,53232, Note_on_c,8,61,82,,,,,,,,,,,,,,,,,,,,,,,
10,53341, Note_on_c,8,57,0,,,,,,,,,,,,,,,,,,,,,,,
10,53345, Note_on_c,8,61,0,,,,,,,,,,,,,,,,,,,,,,,
10,53376, Note_on_c,8,57,122,,,,,,,,,,,,,,,,,,,,,,,
10,53376, Note_on_c,8,61,95,,,,,,,,,,,,,,,,,,,,,,,
10,53546, Note_on_c,8,57,0,,,,,,,,,,,,,,,,,,,,,,,
10,53549, Note_on_c,8,61,0,,,,,,,,,,,,,,,,,,,,,,,
10,53568, Note_on_c,8,57,122,,,,,,,,,,,,,,,,,,,,,,,
10,53568, Note_on_c,8,61,92,,,,,,,,,,,,,,,,,,,,,,,
10,53682, Note_on_c,8,57,0,,,,,,,,,,,,,,,,,,,,,,,
10,53686, Note_on_c,8,61,0,,,,,,,,,,,,,,,,,,,,,,,
10,53712, Note_on_c,8,57,110,,,,,,,,,,,,,,,,,,,,,,,
10,53712, Note_on_c,8,61,82,,,,,,,,,,,,,,,,,,,,,,,
10,53838, Note_on_c,8,57,0,,,,,,,,,,,,,,,,,,,,,,,
10,53841, Note_on_c,8,61,0,,,,,,,,,,,,,,,,,,,,,,,
10,53856, Note_on_c,8,57,114,,,,,,,,,,,,,,,,,,,,,,,
10,53856, Note_on_c,8,61,86,,,,,,,,,,,,,,,,,,,,,,,
10,53973, Note_on_c,8,57,0,,,,,,,,,,,,,,,,,,,,,,,
10,53975, Note_on_c,8,61,0,,,,,,,,,,,,,,,,,,,,,,,
10,54000, Note_on_c,8,57,114,,,,,,,,,,,,,,,,,,,,,,,
10,54000, Note_on_c,8,61,86,,,,,,,,,,,,,,,,,,,,,,,
10,54117, Note_on_c,8,61,0,,,,,,,,,,,,,,,,,,,,,,,
10,54118, Note_on_c,8,57,0,,,,,,,,,,,,,,,,,,,,,,,
10,54144, Note_on_c,8,57,114,,,,,,,,,,,,,,,,,,,,,,,
10,54144, Note_on_c,8,61,82,,,,,,,,,,,,,,,,,,,,,,,
10,54313, Note_on_c,8,57,0,,,,,,,,,,,,,,,,,,,,,,,
10,54314, Note_on_c,8,61,0,,,,,,,,,,,,,,,,,,,,,,,
10,54336, Note_on_c,8,57,110,,,,,,,,,,,,,,,,,,,,,,,
10,54336, Note_on_c,8,61,82,,,,,,,,,,,,,,,,,,,,,,,
10,54459, Note_on_c,8,61,0,,,,,,,,,,,,,,,,,,,,,,,
10,54461, Note_on_c,8,57,0,,,,,,,,,,,,,,,,,,,,,,,
10,54480, Note_on_c,8,57,114,,,,,,,,,,,,,,,,,,,,,,,
10,54480, Note_on_c,8,61,86,,,,,,,,,,,,,,,,,,,,,,,
10,54591, Note_on_c,8,57,0,,,,,,,,,,,,,,,,,,,,,,,
10,54593, Note_on_c,8,61,0,,,,,,,,,,,,,,,,,,,,,,,
10,54624, Note_on_c,8,57,110,,,,,,,,,,,,,,,,,,,,,,,
10,54624, Note_on_c,8,61,78,,,,,,,,,,,,,,,,,,,,,,,
10,54756, Note_on_c,8,61,0,,,,,,,,,,,,,,,,,,,,,,,
10,54757, Note_on_c,8,57,0,,,,,,,,,,,,,,,,,,,,,,,
10,54768, Note_on_c,8,57,118,,,,,,,,,,,,,,,,,,,,,,,
10,54768, Note_on_c,8,61,92,,,,,,,,,,,,,,,,,,,,,,,
10,54871, Note_on_c,8,57,0,,,,,,,,,,,,,,,,,,,,,,,
10,54871, Note_on_c,8,61,0,,,,,,,,,,,,,,,,,,,,,,,
10,54912, Note_on_c,8,57,114,,,,,,,,,,,,,,,,,,,,,,,
10,54912, Note_on_c,8,61,86,,,,,,,,,,,,,,,,,,,,,,,
10,55087, Note_on_c,8,57,0,,,,,,,,,,,,,,,,,,,,,,,
10,55088, Note_on_c,8,61,0,,,,,,,,,,,,,,,,,,,,,,,
10,55104, Note_on_c,8,57,114,,,,,,,,,,,,,,,,,,,,,,,
10,55104, Note_on_c,8,61,80,,,,,,,,,,,,,,,,,,,,,,,
10,55219, Note_on_c,8,57,0,,,,,,,,,,,,,,,,,,,,,,,
10,55219, Note_on_c,8,61,0,,,,,,,,,,,,,,,,,,,,,,,
10,55248, Note_on_c,8,57,107,,,,,,,,,,,,,,,,,,,,,,,
10,55248, Note_on_c,8,61,80,,,,,,,,,,,,,,,,,,,,,,,
10,55369, Note_on_c,8,57,0,,,,,,,,,,,,,,,,,,,,,,,
10,55369, Note_on_c,8,61,0,,,,,,,,,,,,,,,,,,,,,,,
10,55392, Note_on_c,8,57,107,,,,,,,,,,,,,,,,,,,,,,,
10,55392, Note_on_c,8,61,82,,,,,,,,,,,,,,,,,,,,,,,
10,55508, Note_on_c,8,57,0,,,,,,,,,,,,,,,,,,,,,,,
10,55509, Note_on_c,8,61,0,,,,,,,,,,,,,,,,,,,,,,,
10,55536, Note_on_c,8,57,107,,,,,,,,,,,,,,,,,,,,,,,
10,55536, Note_on_c,8,61,78,,,,,,,,,,,,,,,,,,,,,,,
10,55646, Note_on_c,8,61,0,,,,,,,,,,,,,,,,,,,,,,,
10,55648, Note_on_c,8,57,0,,,,,,,,,,,,,,,,,,,,,,,
10,55680, Note_on_c,8,57,114,,,,,,,,,,,,,,,,,,,,,,,
10,55680, Note_on_c,8,61,80,,,,,,,,,,,,,,,,,,,,,,,
10,55844, Note_on_c,8,57,0,,,,,,,,,,,,,,,,,,,,,,,
10,55846, Note_on_c,8,61,0,,,,,,,,,,,,,,,,,,,,,,,
10,55872, Note_on_c,8,57,114,,,,,,,,,,,,,,,,,,,,,,,
10,55872, Note_on_c,8,61,88,,,,,,,,,,,,,,,,,,,,,,,
10,55984, Note_on_c,8,61,0,,,,,,,,,,,,,,,,,,,,,,,
10,55986, Note_on_c,8,57,0,,,,,,,,,,,,,,,,,,,,,,,
10,56016, Note_on_c,8,57,104,,,,,,,,,,,,,,,,,,,,,,,
10,56016, Note_on_c,8,61,78,,,,,,,,,,,,,,,,,,,,,,,
10,56133, Note_on_c,8,61,0,,,,,,,,,,,,,,,,,,,,,,,
10,56136, Note_on_c,8,57,0,,,,,,,,,,,,,,,,,,,,,,,
10,56160, Note_on_c,8,57,110,,,,,,,,,,,,,,,,,,,,,,,
10,56160, Note_on_c,8,61,80,,,,,,,,,,,,,,,,,,,,,,,
10,56277, Note_on_c,8,57,0,,,,,,,,,,,,,,,,,,,,,,,
10,56277, Note_on_c,8,61,0,,,,,,,,,,,,,,,,,,,,,,,
10,56304, Note_on_c,8,57,114,,,,,,,,,,,,,,,,,,,,,,,
10,56304, Note_on_c,8,61,78,,,,,,,,,,,,,,,,,,,,,,,
10,56417, Note_on_c,8,57,0,,,,,,,,,,,,,,,,,,,,,,,
10,56418, Note_on_c,8,61,0,,,,,,,,,,,,,,,,,,,,,,,
10,56448, Note_on_c,8,57,114,,,,,,,,,,,,,,,,,,,,,,,
10,56448, Note_on_c,8,61,95,,,,,,,,,,,,,,,,,,,,,,,
10,56617, Note_on_c,8,57,0,,,,,,,,,,,,,,,,,,,,,,,
10,56617, Note_on_c,8,61,0,,,,,,,,,,,,,,,,,,,,,,,
10,56640, Note_on_c,8,57,114,,,,,,,,,,,,,,,,,,,,,,,
10,56640, Note_on_c,8,61,92,,,,,,,,,,,,,,,,,,,,,,,
10,56754, Note_on_c,8,61,0,,,,,,,,,,,,,,,,,,,,,,,
10,56755, Note_on_c,8,57,0,,,,,,,,,,,,,,,,,,,,,,,
10,56784, Note_on_c,8,57,110,,,,,,,,,,,,,,,,,,,,,,,
10,56784, Note_on_c,8,61,78,,,,,,,,,,,,,,,,,,,,,,,
10,56904, Note_on_c,8,57,0,,,,,,,,,,,,,,,,,,,,,,,
10,56905, Note_on_c,8,61,0,,,,,,,,,,,,,,,,,,,,,,,
10,56928, Note_on_c,8,57,107,,,,,,,,,,,,,,,,,,,,,,,
10,56928, Note_on_c,8,61,78,,,,,,,,,,,,,,,,,,,,,,,
10,57053, Note_on_c,8,57,0,,,,,,,,,,,,,,,,,,,,,,,
10,57055, Note_on_c,8,61,0,,,,,,,,,,,,,,,,,,,,,,,
10,57072, Note_on_c,8,57,110,,,,,,,,,,,,,,,,,,,,,,,
10,57072, Note_on_c,8,61,82,,,,,,,,,,,,,,,,,,,,,,,
10,57194, Note_on_c,8,61,0,,,,,,,,,,,,,,,,,,,,,,,
10,57195, Note_on_c,8,57,0,,,,,,,,,,,,,,,,,,,,,,,
10,57216, Note_on_c,8,57,107,,,,,,,,,,,,,,,,,,,,,,,
10,57216, Note_on_c,8,61,82,,,,,,,,,,,,,,,,,,,,,,,
10,57391, Note_on_c,8,57,0,,,,,,,,,,,,,,,,,,,,,,,
10,57393, Note_on_c,8,61,0,,,,,,,,,,,,,,,,,,,,,,,
10,57408, Note_on_c,8,57,107,,,,,,,,,,,,,,,,,,,,,,,
10,57408, Note_on_c,8,61,80,,,,,,,,,,,,,,,,,,,,,,,
10,57523, Note_on_c,8,57,0,,,,,,,,,,,,,,,,,,,,,,,
10,57532, Note_on_c,8,61,0,,,,,,,,,,,,,,,,,,,,,,,
10,57552, Note_on_c,8,57,107,,,,,,,,,,,,,,,,,,,,,,,
10,57552, Note_on_c,8,61,64,,,,,,,,,,,,,,,,,,,,,,,
10,57678, Note_on_c,8,57,0,,,,,,,,,,,,,,,,,,,,,,,
10,57680, Note_on_c,8,61,0,,,,,,,,,,,,,,,,,,,,,,,
10,57696, Note_on_c,8,57,107,,,,,,,,,,,,,,,,,,,,,,,
10,57696, Note_on_c,8,61,82,,,,,,,,,,,,,,,,,,,,,,,
10,57816, Note_on_c,8,57,0,,,,,,,,,,,,,,,,,,,,,,,
10,57817, Note_on_c,8,61,0,,,,,,,,,,,,,,,,,,,,,,,
10,57840, Note_on_c,8,57,107,,,,,,,,,,,,,,,,,,,,,,,
10,57840, Note_on_c,8,61,80,,,,,,,,,,,,,,,,,,,,,,,
10,57934, Note_on_c,8,57,0,,,,,,,,,,,,,,,,,,,,,,,
10,57935, Note_on_c,8,61,0,,,,,,,,,,,,,,,,,,,,,,,
10,57935, End_track,,,,,,,,,,,,,,,,,,,,,,,,,,
11,0, Start_track,,,,,,,,,,,,,,,,,,,,,,,,,,
11,0, Instrument_t,DRUMS  U,,,,,,,,,,,,,,,,,,,,,,,,,
11,0, Tempo,491803,,,,,,,,,,,,,,,,,,,,,,,,,
11,0, Instrument_t,drums     ,,,,,,,,,,,,,,,,,,,,,,,,,
11,0, Tempo,681818,,,,,,,,,,,,,,,,,,,,,,,,,
11,0, Instrument_t,drums,,,,,,,,,,,,,,,,,,,,,,,,,
11,108, Control_c,9,121,0,,,,,,,,,,,,,,,,,,,,,,,
11,108, Control_c,9,121,0,,,,,,,,,,,,,,,,,,,,,,,
11,108, Control_c,9,121,0,,,,,,,,,,,,,,,,,,,,,,,
11,109, Control_c,9,11,127,,,,,,,,,,,,,,,,,,,,,,,
11,109, Control_c,9,11,127,,,,,,,,,,,,,,,,,,,,,,,
11,109, Control_c,9,11,127,,,,,,,,,,,,,,,,,,,,,,,
11,110, Control_c,9,101,0,,,,,,,,,,,,,,,,,,,,,,,
11,110, Control_c,9,101,0,,,,,,,,,,,,,,,,,,,,,,,
11,110, Control_c,9,101,0,,,,,,,,,,,,,,,,,,,,,,,
11,160, Control_c,9,100,0,,,,,,,,,,,,,,,,,,,,,,,
11,160, Control_c,9,100,0,,,,,,,,,,,,,,,,,,,,,,,
11,160, Control_c,9,100,0,,,,,,,,,,,,,,,,,,,,,,,
11,248, Control_c,9,6,2,,,,,,,,,,,,,,,,,,,,,,,
11,248, Control_c,9,6,2,,,,,,,,,,,,,,,,,,,,,,,
11,248, Control_c,9,6,2,,,,,,,,,,,,,,,,,,,,,,,
11,249, Control_c,9,91,24,,,,,,,,,,,,,,,,,,,,,,,
11,249, Control_c,9,91,24,,,,,,,,,,,,,,,,,,,,,,,
11,249, Control_c,9,91,24,,,,,,,,,,,,,,,,,,,,,,,
11,340, Control_c,9,10,64,,,,,,,,,,,,,,,,,,,,,,,
11,340, Control_c,9,10,64,,,,,,,,,,,,,,,,,,,,,,,
11,340, Control_c,9,10,64,,,,,,,,,,,,,,,,,,,,,,,
11,396, Control_c,9,32,0,,,,,,,,,,,,,,,,,,,,,,,
11,396, Control_c,9,32,0,,,,,,,,,,,,,,,,,,,,,,,
11,396, Control_c,9,32,0,,,,,,,,,,,,,,,,,,,,,,,
11,397, Control_c,9,0,0,,,,,,,,,,,,,,,,,,,,,,,
11,397, Control_c,9,0,0,,,,,,,,,,,,,,,,,,,,,,,
11,397, Control_c,9,0,0,,,,,,,,,,,,,,,,,,,,,,,
11,398, Program_c,9,0,,,,,,,,,,,,,,,,,,,,,,,,
11,398, Program_c,9,0,,,,,,,,,,,,,,,,,,,,,,,,
11,398, Program_c,9,0,,,,,,,,,,,,,,,,,,,,,,,,
11,399, Control_c,9,93,23,,,,,,,,,,,,,,,,,,,,,,,
11,399, Control_c,9,93,23,,,,,,,,,,,,,,,,,,,,,,,
11,399, Control_c,9,93,23,,,,,,,,,,,,,,,,,,,,,,,
11,432, Control_c,9,121,0,,,,,,,,,,,,,,,,,,,,,,,
11,432, Control_c,9,121,0,,,,,,,,,,,,,,,,,,,,,,,
11,432, Control_c,9,121,0,,,,,,,,,,,,,,,,,,,,,,,
11,529, Control_c,9,7,115,,,,,,,,,,,,,,,,,,,,,,,
11,529, Control_c,9,7,115,,,,,,,,,,,,,,,,,,,,,,,
11,529, Control_c,9,7,115,,,,,,,,,,,,,,,,,,,,,,,
11,768, Note_on_c,9,44,77,,,,,,,,,,,,,,,,,,,,,,,
11,776, Note_on_c,9,44,0,,,,,,,,,,,,,,,,,,,,,,,
11,960, Note_on_c,9,44,77,,,,,,,,,,,,,,,,,,,,,,,
11,968, Note_on_c,9,44,0,,,,,,,,,,,,,,,,,,,,,,,
11,1152, Note_on_c,9,44,77,,,,,,,,,,,,,,,,,,,,,,,
11,1160, Note_on_c,9,44,0,,,,,,,,,,,,,,,,,,,,,,,
11,1344, Note_on_c,9,44,96,,,,,,,,,,,,,,,,,,,,,,,
11,1391, Note_on_c,9,44,0,,,,,,,,,,,,,,,,,,,,,,,
11,1536, Note_on_c,9,42,112,,,,,,,,,,,,,,,,,,,,,,,
11,1544, Note_on_c,9,42,0,,,,,,,,,,,,,,,,,,,,,,,
11,1584, Note_on_c,9,42,82,,,,,,,,,,,,,,,,,,,,,,,
11,1592, Note_on_c,9,42,0,,,,,,,,,,,,,,,,,,,,,,,
11,1632, Note_on_c,9,42,103,,,,,,,,,,,,,,,,,,,,,,,
11,1640, Note_on_c,9,42,0,,,,,,,,,,,,,,,,,,,,,,,
11,1680, Note_on_c,9,42,74,,,,,,,,,,,,,,,,,,,,,,,
11,1688, Note_on_c,9,42,0,,,,,,,,,,,,,,,,,,,,,,,
11,1728, Note_on_c,9,44,112,,,,,,,,,,,,,,,,,,,,,,,
11,1736, Note_on_c,9,44,0,,,,,,,,,,,,,,,,,,,,,,,
11,1776, Note_on_c,9,42,82,,,,,,,,,,,,,,,,,,,,,,,
11,1784, Note_on_c,9,42,0,,,,,,,,,,,,,,,,,,,,,,,
11,1824, Note_on_c,9,42,95,,,,,,,,,,,,,,,,,,,,,,,
11,1832, Note_on_c,9,42,0,,,,,,,,,,,,,,,,,,,,,,,
11,1872, Note_on_c,9,42,103,,,,,,,,,,,,,,,,,,,,,,,
11,1880, Note_on_c,9,42,0,,,,,,,,,,,,,,,,,,,,,,,
11,1920, Note_on_c,9,42,82,,,,,,,,,,,,,,,,,,,,,,,
11,1928, Note_on_c,9,42,0,,,,,,,,,,,,,,,,,,,,,,,
11,1968, Note_on_c,9,42,99,,,,,,,,,,,,,,,,,,,,,,,
11,1976, Note_on_c,9,42,0,,,,,,,,,,,,,,,,,,,,,,,
11,2016, Note_on_c,9,42,107,,,,,,,,,,,,,,,,,,,,,,,
11,2024, Note_on_c,9,42,0,,,,,,,,,,,,,,,,,,,,,,,
11,2064, Note_on_c,9,42,88,,,,,,,,,,,,,,,,,,,,,,,
11,2072, Note_on_c,9,42,0,,,,,,,,,,,,,,,,,,,,,,,
11,2112, Note_on_c,9,44,112,,,,,,,,,,,,,,,,,,,,,,,
11,2120, Note_on_c,9,44,0,,,,,,,,,,,,,,,,,,,,,,,
11,2160, Note_on_c,9,42,92,,,,,,,,,,,,,,,,,,,,,,,
11,2168, Note_on_c,9,42,0,,,,,,,,,,,,,,,,,,,,,,,
11,2208, Note_on_c,9,42,99,,,,,,,,,,,,,,,,,,,,,,,
11,2216, Note_on_c,9,42,0,,,,,,,,,,,,,,,,,,,,,,,
11,2256, Note_on_c,9,42,103,,,,,,,,,,,,,,,,,,,,,,,
11,2264, Note_on_c,9,42,0,,,,,,,,,,,,,,,,,,,,,,,
11,2304, Note_on_c,9,42,127,,,,,,,,,,,,,,,,,,,,,,,
11,2312, Note_on_c,9,42,0,,,,,,,,,,,,,,,,,,,,,,,
11,2352, Note_on_c,9,42,82,,,,,,,,,,,,,,,,,,,,,,,
11,2360, Note_on_c,9,42,0,,,,,,,,,,,,,,,,,,,,,,,
11,2400, Note_on_c,9,42,107,,,,,,,,,,,,,,,,,,,,,,,
11,2408, Note_on_c,9,42,0,,,,,,,,,,,,,,,,,,,,,,,
11,2448, Note_on_c,9,42,99,,,,,,,,,,,,,,,,,,,,,,,
11,2456, Note_on_c,9,42,0,,,,,,,,,,,,,,,,,,,,,,,
11,2496, Note_on_c,9,44,112,,,,,,,,,,,,,,,,,,,,,,,
11,2504, Note_on_c,9,44,0,,,,,,,,,,,,,,,,,,,,,,,
11,2544, Note_on_c,9,42,103,,,,,,,,,,,,,,,,,,,,,,,
11,2552, Note_on_c,9,42,0,,,,,,,,,,,,,,,,,,,,,,,
11,2592, Note_on_c,9,42,107,,,,,,,,,,,,,,,,,,,,,,,
11,2600, Note_on_c,9,42,0,,,,,,,,,,,,,,,,,,,,,,,
11,2640, Note_on_c,9,42,112,,,,,,,,,,,,,,,,,,,,,,,
11,2648, Note_on_c,9,42,0,,,,,,,,,,,,,,,,,,,,,,,
11,2688, Note_on_c,9,42,99,,,,,,,,,,,,,,,,,,,,,,,
11,2696, Note_on_c,9,42,0,,,,,,,,,,,,,,,,,,,,,,,
11,2736, Note_on_c,9,42,107,,,,,,,,,,,,,,,,,,,,,,,
11,2744, Note_on_c,9,42,0,,,,,,,,,,,,,,,,,,,,,,,
11,2784, Note_on_c,9,42,107,,,,,,,,,,,,,,,,,,,,,,,
11,2792, Note_on_c,9,42,0,,,,,,,,,,,,,,,,,,,,,,,
11,2832, Note_on_c,9,42,107,,,,,,,,,,,,,,,,,,,,,,,
11,2840, Note_on_c,9,42,0,,,,,,,,,,,,,,,,,,,,,,,
11,2880, Note_on_c,9,42,112,,,,,,,,,,,,,,,,,,,,,,,
11,2888, Note_on_c,9,42,0,,,,,,,,,,,,,,,,,,,,,,,
11,2928, Note_on_c,9,42,107,,,,,,,,,,,,,,,,,,,,,,,
11,2936, Note_on_c,9,42,0,,,,,,,,,,,,,,,,,,,,,,,
11,2976, Note_on_c,9,42,107,,,,,,,,,,,,,,,,,,,,,,,
11,2984, Note_on_c,9,42,0,,,,,,,,,,,,,,,,,,,,,,,
11,3024, Note_on_c,9,42,107,,,,,,,,,,,,,,,,,,,,,,,
11,3032, Note_on_c,9,42,0,,,,,,,,,,,,,,,,,,,,,,,
11,3072, Note_on_c,9,42,112,,,,,,,,,,,,,,,,,,,,,,,
11,3080, Note_on_c,9,42,0,,,,,,,,,,,,,,,,,,,,,,,
11,3120, Note_on_c,9,42,92,,,,,,,,,,,,,,,,,,,,,,,
11,3128, Note_on_c,9,42,0,,,,,,,,,,,,,,,,,,,,,,,
11,3168, Note_on_c,9,42,103,,,,,,,,,,,,,,,,,,,,,,,
11,3176, Note_on_c,9,42,0,,,,,,,,,,,,,,,,,,,,,,,
11,3216, Note_on_c,9,42,107,,,,,,,,,,,,,,,,,,,,,,,
11,3224, Note_on_c,9,42,0,,,,,,,,,,,,,,,,,,,,,,,
11,3264, Note_on_c,9,44,112,,,,,,,,,,,,,,,,,,,,,,,
11,3272, Note_on_c,9,44,0,,,,,,,,,,,,,,,,,,,,,,,
11,3312, Note_on_c,9,42,99,,,,,,,,,,,,,,,,,,,,,,,
11,3320, Note_on_c,9,42,0,,,,,,,,,,,,,,,,,,,,,,,
11,3360, Note_on_c,9,42,99,,,,,,,,,,,,,,,,,,,,,,,
11,3368, Note_on_c,9,42,0,,,,,,,,,,,,,,,,,,,,,,,
11,3408, Note_on_c,9,42,112,,,,,,,,,,,,,,,,,,,,,,,
11,3416, Note_on_c,9,42,0,,,,,,,,,,,,,,,,,,,,,,,
11,3456, Note_on_c,9,42,95,,,,,,,,,,,,,,,,,,,,,,,
11,3464, Note_on_c,9,42,0,,,,,,,,,,,,,,,,,,,,,,,
11,3504, Note_on_c,9,42,112,,,,,,,,,,,,,,,,,,,,,,,
11,3512, Note_on_c,9,42,0,,,,,,,,,,,,,,,,,,,,,,,
11,3552, Note_on_c,9,42,103,,,,,,,,,,,,,,,,,,,,,,,
11,3560, Note_on_c,9,42,0,,,,,,,,,,,,,,,,,,,,,,,
11,3600, Note_on_c,9,42,107,,,,,,,,,,,,,,,,,,,,,,,
11,3608, Note_on_c,9,42,0,,,,,,,,,,,,,,,,,,,,,,,
11,3648, Note_on_c,9,44,112,,,,,,,,,,,,,,,,,,,,,,,
11,3656, Note_on_c,9,44,0,,,,,,,,,,,,,,,,,,,,,,,
11,3696, Note_on_c,9,42,103,,,,,,,,,,,,,,,,,,,,,,,
11,3704, Note_on_c,9,42,0,,,,,,,,,,,,,,,,,,,,,,,
11,3744, Note_on_c,9,42,107,,,,,,,,,,,,,,,,,,,,,,,
11,3752, Note_on_c,9,42,0,,,,,,,,,,,,,,,,,,,,,,,
11,3792, Note_on_c,9,42,107,,,,,,,,,,,,,,,,,,,,,,,
11,3800, Note_on_c,9,42,0,,,,,,,,,,,,,,,,,,,,,,,
11,3840, Note_on_c,9,42,112,,,,,,,,,,,,,,,,,,,,,,,
11,3848, Note_on_c,9,42,0,,,,,,,,,,,,,,,,,,,,,,,
11,3888, Note_on_c,9,42,99,,,,,,,,,,,,,,,,,,,,,,,
11,3896, Note_on_c,9,42,0,,,,,,,,,,,,,,,,,,,,,,,
11,3936, Note_on_c,9,42,99,,,,,,,,,,,,,,,,,,,,,,,
11,3944, Note_on_c,9,42,0,,,,,,,,,,,,,,,,,,,,,,,
11,3984, Note_on_c,9,42,103,,,,,,,,,,,,,,,,,,,,,,,
11,3992, Note_on_c,9,42,0,,,,,,,,,,,,,,,,,,,,,,,
11,4032, Note_on_c,9,44,112,,,,,,,,,,,,,,,,,,,,,,,
11,4040, Note_on_c,9,44,0,,,,,,,,,,,,,,,,,,,,,,,
11,4080, Note_on_c,9,42,99,,,,,,,,,,,,,,,,,,,,,,,
11,4088, Note_on_c,9,42,0,,,,,,,,,,,,,,,,,,,,,,,
11,4128, Note_on_c,9,42,107,,,,,,,,,,,,,,,,,,,,,,,
11,4136, Note_on_c,9,42,0,,,,,,,,,,,,,,,,,,,,,,,
11,4176, Note_on_c,9,42,112,,,,,,,,,,,,,,,,,,,,,,,
11,4184, Note_on_c,9,42,0,,,,,,,,,,,,,,,,,,,,,,,
11,4224, Note_on_c,9,42,103,,,,,,,,,,,,,,,,,,,,,,,
11,4232, Note_on_c,9,42,0,,,,,,,,,,,,,,,,,,,,,,,
11,4272, Note_on_c,9,42,107,,,,,,,,,,,,,,,,,,,,,,,
11,4280, Note_on_c,9,42,0,,,,,,,,,,,,,,,,,,,,,,,
11,4320, Note_on_c,9,42,107,,,,,,,,,,,,,,,,,,,,,,,
11,4328, Note_on_c,9,42,0,,,,,,,,,,,,,,,,,,,,,,,
11,4368, Note_on_c,9,42,103,,,,,,,,,,,,,,,,,,,,,,,
11,4376, Note_on_c,9,42,0,,,,,,,,,,,,,,,,,,,,,,,
11,4416, Note_on_c,9,44,107,,,,,,,,,,,,,,,,,,,,,,,
11,4424, Note_on_c,9,44,0,,,,,,,,,,,,,,,,,,,,,,,
11,4464, Note_on_c,9,42,112,,,,,,,,,,,,,,,,,,,,,,,
11,4472, Note_on_c,9,42,0,,,,,,,,,,,,,,,,,,,,,,,
11,4512, Note_on_c,9,44,112,,,,,,,,,,,,,,,,,,,,,,,
11,4520, Note_on_c,9,44,0,,,,,,,,,,,,,,,,,,,,,,,
11,4560, Note_on_c,9,42,112,,,,,,,,,,,,,,,,,,,,,,,
11,4568, Note_on_c,9,42,0,,,,,,,,,,,,,,,,,,,,,,,
11,4608, Note_on_c,9,42,107,,,,,,,,,,,,,,,,,,,,,,,
11,4616, Note_on_c,9,42,0,,,,,,,,,,,,,,,,,,,,,,,
11,4656, Note_on_c,9,42,92,,,,,,,,,,,,,,,,,,,,,,,
11,4664, Note_on_c,9,42,0,,,,,,,,,,,,,,,,,,,,,,,
11,4704, Note_on_c,9,42,103,,,,,,,,,,,,,,,,,,,,,,,
11,4712, Note_on_c,9,42,0,,,,,,,,,,,,,,,,,,,,,,,
11,4752, Note_on_c,9,42,107,,,,,,,,,,,,,,,,,,,,,,,
11,4760, Note_on_c,9,42,0,,,,,,,,,,,,,,,,,,,,,,,
11,4800, Note_on_c,9,44,127,,,,,,,,,,,,,,,,,,,,,,,
11,4808, Note_on_c,9,44,0,,,,,,,,,,,,,,,,,,,,,,,
11,4848, Note_on_c,9,42,95,,,,,,,,,,,,,,,,,,,,,,,
11,4856, Note_on_c,9,42,0,,,,,,,,,,,,,,,,,,,,,,,
11,4896, Note_on_c,9,42,99,,,,,,,,,,,,,,,,,,,,,,,
11,4904, Note_on_c,9,42,0,,,,,,,,,,,,,,,,,,,,,,,
11,4944, Note_on_c,9,42,112,,,,,,,,,,,,,,,,,,,,,,,
11,4952, Note_on_c,9,42,0,,,,,,,,,,,,,,,,,,,,,,,
11,4992, Note_on_c,9,42,92,,,,,,,,,,,,,,,,,,,,,,,
11,5000, Note_on_c,9,42,0,,,,,,,,,,,,,,,,,,,,,,,
11,5040, Note_on_c,9,42,107,,,,,,,,,,,,,,,,,,,,,,,
11,5048, Note_on_c,9,42,0,,,,,,,,,,,,,,,,,,,,,,,
11,5088, Note_on_c,9,42,103,,,,,,,,,,,,,,,,,,,,,,,
11,5096, Note_on_c,9,42,0,,,,,,,,,,,,,,,,,,,,,,,
11,5136, Note_on_c,9,42,107,,,,,,,,,,,,,,,,,,,,,,,
11,5144, Note_on_c,9,42,0,,,,,,,,,,,,,,,,,,,,,,,
11,5184, Note_on_c,9,44,112,,,,,,,,,,,,,,,,,,,,,,,
11,5192, Note_on_c,9,44,0,,,,,,,,,,,,,,,,,,,,,,,
11,5232, Note_on_c,9,42,112,,,,,,,,,,,,,,,,,,,,,,,
11,5240, Note_on_c,9,42,0,,,,,,,,,,,,,,,,,,,,,,,
11,5280, Note_on_c,9,42,103,,,,,,,,,,,,,,,,,,,,,,,
11,5288, Note_on_c,9,42,0,,,,,,,,,,,,,,,,,,,,,,,
11,5328, Note_on_c,9,42,112,,,,,,,,,,,,,,,,,,,,,,,
11,5336, Note_on_c,9,42,0,,,,,,,,,,,,,,,,,,,,,,,
11,5376, Note_on_c,9,42,99,,,,,,,,,,,,,,,,,,,,,,,
11,5384, Note_on_c,9,42,0,,,,,,,,,,,,,,,,,,,,,,,
11,5424, Note_on_c,9,42,103,,,,,,,,,,,,,,,,,,,,,,,
11,5432, Note_on_c,9,42,0,,,,,,,,,,,,,,,,,,,,,,,
11,5472, Note_on_c,9,42,95,,,,,,,,,,,,,,,,,,,,,,,
11,5480, Note_on_c,9,42,0,,,,,,,,,,,,,,,,,,,,,,,
11,5520, Note_on_c,9,42,103,,,,,,,,,,,,,,,,,,,,,,,
11,5528, Note_on_c,9,42,0,,,,,,,,,,,,,,,,,,,,,,,
11,5568, Note_on_c,9,44,112,,,,,,,,,,,,,,,,,,,,,,,
11,5576, Note_on_c,9,44,0,,,,,,,,,,,,,,,,,,,,,,,
11,5616, Note_on_c,9,42,107,,,,,,,,,,,,,,,,,,,,,,,
11,5624, Note_on_c,9,42,0,,,,,,,,,,,,,,,,,,,,,,,
11,5664, Note_on_c,9,42,99,,,,,,,,,,,,,,,,,,,,,,,
11,5672, Note_on_c,9,42,0,,,,,,,,,,,,,,,,,,,,,,,
11,5712, Note_on_c,9,42,112,,,,,,,,,,,,,,,,,,,,,,,
11,5720, Note_on_c,9,42,0,,,,,,,,,,,,,,,,,,,,,,,
11,5760, Note_on_c,9,42,103,,,,,,,,,,,,,,,,,,,,,,,
11,5768, Note_on_c,9,42,0,,,,,,,,,,,,,,,,,,,,,,,
11,5808, Note_on_c,9,42,107,,,,,,,,,,,,,,,,,,,,,,,
11,5816, Note_on_c,9,42,0,,,,,,,,,,,,,,,,,,,,,,,
11,5856, Note_on_c,9,42,107,,,,,,,,,,,,,,,,,,,,,,,
11,5864, Note_on_c,9,42,0,,,,,,,,,,,,,,,,,,,,,,,
11,5904, Note_on_c,9,42,107,,,,,,,,,,,,,,,,,,,,,,,
11,5912, Note_on_c,9,42,0,,,,,,,,,,,,,,,,,,,,,,,
11,5952, Note_on_c,9,44,112,,,,,,,,,,,,,,,,,,,,,,,
11,5960, Note_on_c,9,44,0,,,,,,,,,,,,,,,,,,,,,,,
11,6000, Note_on_c,9,42,107,,,,,,,,,,,,,,,,,,,,,,,
11,6008, Note_on_c,9,42,0,,,,,,,,,,,,,,,,,,,,,,,
11,6048, Note_on_c,9,44,107,,,,,,,,,,,,,,,,,,,,,,,
11,6056, Note_on_c,9,44,0,,,,,,,,,,,,,,,,,,,,,,,
11,6096, Note_on_c,9,42,107,,,,,,,,,,,,,,,,,,,,,,,
11,6104, Note_on_c,9,42,0,,,,,,,,,,,,,,,,,,,,,,,
11,6144, Note_on_c,9,42,112,,,,,,,,,,,,,,,,,,,,,,,
11,6152, Note_on_c,9,42,0,,,,,,,,,,,,,,,,,,,,,,,
11,6192, Note_on_c,9,42,103,,,,,,,,,,,,,,,,,,,,,,,
11,6200, Note_on_c,9,42,0,,,,,,,,,,,,,,,,,,,,,,,
11,6240, Note_on_c,9,42,99,,,,,,,,,,,,,,,,,,,,,,,
11,6248, Note_on_c,9,42,0,,,,,,,,,,,,,,,,,,,,,,,
11,6288, Note_on_c,9,42,107,,,,,,,,,,,,,,,,,,,,,,,
11,6296, Note_on_c,9,42,0,,,,,,,,,,,,,,,,,,,,,,,
11,6336, Note_on_c,9,44,112,,,,,,,,,,,,,,,,,,,,,,,
11,6344, Note_on_c,9,44,0,,,,,,,,,,,,,,,,,,,,,,,
11,6384, Note_on_c,9,42,107,,,,,,,,,,,,,,,,,,,,,,,
11,6392, Note_on_c,9,42,0,,,,,,,,,,,,,,,,,,,,,,,
11,6432, Note_on_c,9,42,107,,,,,,,,,,,,,,,,,,,,,,,
11,6440, Note_on_c,9,42,0,,,,,,,,,,,,,,,,,,,,,,,
11,6480, Note_on_c,9,42,112,,,,,,,,,,,,,,,,,,,,,,,
11,6488, Note_on_c,9,42,0,,,,,,,,,,,,,,,,,,,,,,,
11,6528, Note_on_c,9,42,95,,,,,,,,,,,,,,,,,,,,,,,
11,6536, Note_on_c,9,42,0,,,,,,,,,,,,,,,,,,,,,,,
11,6576, Note_on_c,9,42,107,,,,,,,,,,,,,,,,,,,,,,,
11,6584, Note_on_c,9,42,0,,,,,,,,,,,,,,,,,,,,,,,
11,6624, Note_on_c,9,42,107,,,,,,,,,,,,,,,,,,,,,,,
11,6632, Note_on_c,9,42,0,,,,,,,,,,,,,,,,,,,,,,,
11,6672, Note_on_c,9,42,107,,,,,,,,,,,,,,,,,,,,,,,
11,6680, Note_on_c,9,42,0,,,,,,,,,,,,,,,,,,,,,,,
11,6720, Note_on_c,9,44,107,,,,,,,,,,,,,,,,,,,,,,,
11,6728, Note_on_c,9,44,0,,,,,,,,,,,,,,,,,,,,,,,
11,6768, Note_on_c,9,42,107,,,,,,,,,,,,,,,,,,,,,,,
11,6776, Note_on_c,9,42,0,,,,,,,,,,,,,,,,,,,,,,,
11,6816, Note_on_c,9,42,103,,,,,,,,,,,,,,,,,,,,,,,
11,6824, Note_on_c,9,42,0,,,,,,,,,,,,,,,,,,,,,,,
11,6864, Note_on_c,9,42,107,,,,,,,,,,,,,,,,,,,,,,,
11,6872, Note_on_c,9,42,0,,,,,,,,,,,,,,,,,,,,,,,
11,6912, Note_on_c,9,42,112,,,,,,,,,,,,,,,,,,,,,,,
11,6920, Note_on_c,9,42,0,,,,,,,,,,,,,,,,,,,,,,,
11,6960, Note_on_c,9,42,103,,,,,,,,,,,,,,,,,,,,,,,
11,6968, Note_on_c,9,42,0,,,,,,,,,,,,,,,,,,,,,,,
11,7008, Note_on_c,9,42,99,,,,,,,,,,,,,,,,,,,,,,,
11,7016, Note_on_c,9,42,0,,,,,,,,,,,,,,,,,,,,,,,
11,7056, Note_on_c,9,42,103,,,,,,,,,,,,,,,,,,,,,,,
11,7064, Note_on_c,9,42,0,,,,,,,,,,,,,,,,,,,,,,,
11,7104, Note_on_c,9,44,103,,,,,,,,,,,,,,,,,,,,,,,
11,7112, Note_on_c,9,44,0,,,,,,,,,,,,,,,,,,,,,,,
11,7152, Note_on_c,9,42,107,,,,,,,,,,,,,,,,,,,,,,,
11,7160, Note_on_c,9,42,0,,,,,,,,,,,,,,,,,,,,,,,
11,7200, Note_on_c,9,42,107,,,,,,,,,,,,,,,,,,,,,,,
11,7208, Note_on_c,9,42,0,,,,,,,,,,,,,,,,,,,,,,,
11,7248, Note_on_c,9,42,107,,,,,,,,,,,,,,,,,,,,,,,
11,7256, Note_on_c,9,42,0,,,,,,,,,,,,,,,,,,,,,,,
11,7296, Note_on_c,9,42,99,,,,,,,,,,,,,,,,,,,,,,,
11,7304, Note_on_c,9,42,0,,,,,,,,,,,,,,,,,,,,,,,
11,7344, Note_on_c,9,42,107,,,,,,,,,,,,,,,,,,,,,,,
11,7352, Note_on_c,9,42,0,,,,,,,,,,,,,,,,,,,,,,,
11,7392, Note_on_c,9,42,107,,,,,,,,,,,,,,,,,,,,,,,
11,7400, Note_on_c,9,42,0,,,,,,,,,,,,,,,,,,,,,,,
11,7440, Note_on_c,9,42,112,,,,,,,,,,,,,,,,,,,,,,,
11,7448, Note_on_c,9,42,0,,,,,,,,,,,,,,,,,,,,,,,
11,7488, Note_on_c,9,44,107,,,,,,,,,,,,,,,,,,,,,,,
11,7496, Note_on_c,9,44,0,,,,,,,,,,,,,,,,,,,,,,,
11,7536, Note_on_c,9,42,112,,,,,,,,,,,,,,,,,,,,,,,
11,7544, Note_on_c,9,42,0,,,,,,,,,,,,,,,,,,,,,,,
11,7584, Note_on_c,9,42,107,,,,,,,,,,,,,,,,,,,,,,,
11,7592, Note_on_c,9,42,0,,,,,,,,,,,,,,,,,,,,,,,
11,7632, Note_on_c,9,42,112,,,,,,,,,,,,,,,,,,,,,,,
11,7640, Note_on_c,9,42,0,,,,,,,,,,,,,,,,,,,,,,,
11,7680, Note_on_c,9,42,112,,,,,,,,,,,,,,,,,,,,,,,
11,7688, Note_on_c,9,42,0,,,,,,,,,,,,,,,,,,,,,,,
11,7728, Note_on_c,9,42,82,,,,,,,,,,,,,,,,,,,,,,,
11,7736, Note_on_c,9,42,0,,,,,,,,,,,,,,,,,,,,,,,
11,7776, Note_on_c,9,42,103,,,,,,,,,,,,,,,,,,,,,,,
11,7784, Note_on_c,9,42,0,,,,,,,,,,,,,,,,,,,,,,,
11,7824, Note_on_c,9,42,74,,,,,,,,,,,,,,,,,,,,,,,
11,7832, Note_on_c,9,42,0,,,,,,,,,,,,,,,,,,,,,,,
11,7872, Note_on_c,9,44,112,,,,,,,,,,,,,,,,,,,,,,,
11,7880, Note_on_c,9,44,0,,,,,,,,,,,,,,,,,,,,,,,
11,7920, Note_on_c,9,42,82,,,,,,,,,,,,,,,,,,,,,,,
11,7928, Note_on_c,9,42,0,,,,,,,,,,,,,,,,,,,,,,,
11,7968, Note_on_c,9,42,95,,,,,,,,,,,,,,,,,,,,,,,
11,7976, Note_on_c,9,42,0,,,,,,,,,,,,,,,,,,,,,,,
11,8016, Note_on_c,9,42,103,,,,,,,,,,,,,,,,,,,,,,,
11,8024, Note_on_c,9,42,0,,,,,,,,,,,,,,,,,,,,,,,
11,8064, Note_on_c,9,42,82,,,,,,,,,,,,,,,,,,,,,,,
11,8072, Note_on_c,9,42,0,,,,,,,,,,,,,,,,,,,,,,,
11,8112, Note_on_c,9,42,99,,,,,,,,,,,,,,,,,,,,,,,
11,8120, Note_on_c,9,42,0,,,,,,,,,,,,,,,,,,,,,,,
11,8160, Note_on_c,9,42,107,,,,,,,,,,,,,,,,,,,,,,,
11,8168, Note_on_c,9,42,0,,,,,,,,,,,,,,,,,,,,,,,
11,8208, Note_on_c,9,42,88,,,,,,,,,,,,,,,,,,,,,,,
11,8216, Note_on_c,9,42,0,,,,,,,,,,,,,,,,,,,,,,,
11,8256, Note_on_c,9,44,112,,,,,,,,,,,,,,,,,,,,,,,
11,8264, Note_on_c,9,44,0,,,,,,,,,,,,,,,,,,,,,,,
11,8304, Note_on_c,9,42,92,,,,,,,,,,,,,,,,,,,,,,,
11,8312, Note_on_c,9,42,0,,,,,,,,,,,,,,,,,,,,,,,
11,8352, Note_on_c,9,42,99,,,,,,,,,,,,,,,,,,,,,,,
11,8360, Note_on_c,9,42,0,,,,,,,,,,,,,,,,,,,,,,,
11,8400, Note_on_c,9,42,103,,,,,,,,,,,,,,,,,,,,,,,
11,8408, Note_on_c,9,42,0,,,,,,,,,,,,,,,,,,,,,,,
11,8448, Note_on_c,9,42,127,,,,,,,,,,,,,,,,,,,,,,,
11,8456, Note_on_c,9,42,0,,,,,,,,,,,,,,,,,,,,,,,
11,8496, Note_on_c,9,42,82,,,,,,,,,,,,,,,,,,,,,,,
11,8504, Note_on_c,9,42,0,,,,,,,,,,,,,,,,,,,,,,,
11,8544, Note_on_c,9,42,107,,,,,,,,,,,,,,,,,,,,,,,
11,8552, Note_on_c,9,42,0,,,,,,,,,,,,,,,,,,,,,,,
11,8592, Note_on_c,9,42,99,,,,,,,,,,,,,,,,,,,,,,,
11,8600, Note_on_c,9,42,0,,,,,,,,,,,,,,,,,,,,,,,
11,8640, Note_on_c,9,44,112,,,,,,,,,,,,,,,,,,,,,,,
11,8648, Note_on_c,9,44,0,,,,,,,,,,,,,,,,,,,,,,,
11,8688, Note_on_c,9,42,103,,,,,,,,,,,,,,,,,,,,,,,
11,8696, Note_on_c,9,42,0,,,,,,,,,,,,,,,,,,,,,,,
11,8736, Note_on_c,9,42,107,,,,,,,,,,,,,,,,,,,,,,,
11,8744, Note_on_c,9,42,0,,,,,,,,,,,,,,,,,,,,,,,
11,8784, Note_on_c,9,42,112,,,,,,,,,,,,,,,,,,,,,,,
11,8792, Note_on_c,9,42,0,,,,,,,,,,,,,,,,,,,,,,,
11,8832, Note_on_c,9,42,99,,,,,,,,,,,,,,,,,,,,,,,
11,8840, Note_on_c,9,42,0,,,,,,,,,,,,,,,,,,,,,,,
11,8880, Note_on_c,9,42,107,,,,,,,,,,,,,,,,,,,,,,,
11,8888, Note_on_c,9,42,0,,,,,,,,,,,,,,,,,,,,,,,
11,8928, Note_on_c,9,42,107,,,,,,,,,,,,,,,,,,,,,,,
11,8936, Note_on_c,9,42,0,,,,,,,,,,,,,,,,,,,,,,,
11,8976, Note_on_c,9,42,107,,,,,,,,,,,,,,,,,,,,,,,
11,8984, Note_on_c,9,42,0,,,,,,,,,,,,,,,,,,,,,,,
11,9024, Note_on_c,9,42,112,,,,,,,,,,,,,,,,,,,,,,,
11,9032, Note_on_c,9,42,0,,,,,,,,,,,,,,,,,,,,,,,
11,9072, Note_on_c,9,42,107,,,,,,,,,,,,,,,,,,,,,,,
11,9080, Note_on_c,9,42,0,,,,,,,,,,,,,,,,,,,,,,,
11,9120, Note_on_c,9,42,107,,,,,,,,,,,,,,,,,,,,,,,
11,9128, Note_on_c,9,42,0,,,,,,,,,,,,,,,,,,,,,,,
11,9168, Note_on_c,9,42,107,,,,,,,,,,,,,,,,,,,,,,,
11,9176, Note_on_c,9,42,0,,,,,,,,,,,,,,,,,,,,,,,
11,9216, Note_on_c,9,42,112,,,,,,,,,,,,,,,,,,,,,,,
11,9224, Note_on_c,9,42,0,,,,,,,,,,,,,,,,,,,,,,,
11,9264, Note_on_c,9,42,92,,,,,,,,,,,,,,,,,,,,,,,
11,9272, Note_on_c,9,42,0,,,,,,,,,,,,,,,,,,,,,,,
11,9312, Note_on_c,9,42,103,,,,,,,,,,,,,,,,,,,,,,,
11,9320, Note_on_c,9,42,0,,,,,,,,,,,,,,,,,,,,,,,
11,9360, Note_on_c,9,42,107,,,,,,,,,,,,,,,,,,,,,,,
11,9368, Note_on_c,9,42,0,,,,,,,,,,,,,,,,,,,,,,,
11,9408, Note_on_c,9,44,112,,,,,,,,,,,,,,,,,,,,,,,
11,9416, Note_on_c,9,44,0,,,,,,,,,,,,,,,,,,,,,,,
11,9456, Note_on_c,9,42,99,,,,,,,,,,,,,,,,,,,,,,,
11,9464, Note_on_c,9,42,0,,,,,,,,,,,,,,,,,,,,,,,
11,9504, Note_on_c,9,42,99,,,,,,,,,,,,,,,,,,,,,,,
11,9512, Note_on_c,9,42,0,,,,,,,,,,,,,,,,,,,,,,,
11,9552, Note_on_c,9,42,112,,,,,,,,,,,,,,,,,,,,,,,
11,9560, Note_on_c,9,42,0,,,,,,,,,,,,,,,,,,,,,,,
11,9600, Note_on_c,9,42,95,,,,,,,,,,,,,,,,,,,,,,,
11,9608, Note_on_c,9,42,0,,,,,,,,,,,,,,,,,,,,,,,
11,9648, Note_on_c,9,42,112,,,,,,,,,,,,,,,,,,,,,,,
11,9656, Note_on_c,9,42,0,,,,,,,,,,,,,,,,,,,,,,,
11,9696, Note_on_c,9,42,103,,,,,,,,,,,,,,,,,,,,,,,
11,9704, Note_on_c,9,42,0,,,,,,,,,,,,,,,,,,,,,,,
11,9744, Note_on_c,9,42,107,,,,,,,,,,,,,,,,,,,,,,,
11,9752, Note_on_c,9,42,0,,,,,,,,,,,,,,,,,,,,,,,
11,9792, Note_on_c,9,44,112,,,,,,,,,,,,,,,,,,,,,,,
11,9800, Note_on_c,9,44,0,,,,,,,,,,,,,,,,,,,,,,,
11,9840, Note_on_c,9,42,103,,,,,,,,,,,,,,,,,,,,,,,
11,9848, Note_on_c,9,42,0,,,,,,,,,,,,,,,,,,,,,,,
11,9888, Note_on_c,9,42,107,,,,,,,,,,,,,,,,,,,,,,,
11,9896, Note_on_c,9,42,0,,,,,,,,,,,,,,,,,,,,,,,
11,9936, Note_on_c,9,42,107,,,,,,,,,,,,,,,,,,,,,,,
11,9944, Note_on_c,9,42,0,,,,,,,,,,,,,,,,,,,,,,,
11,9984, Note_on_c,9,42,112,,,,,,,,,,,,,,,,,,,,,,,
11,9992, Note_on_c,9,42,0,,,,,,,,,,,,,,,,,,,,,,,
11,10032, Note_on_c,9,42,99,,,,,,,,,,,,,,,,,,,,,,,
11,10040, Note_on_c,9,42,0,,,,,,,,,,,,,,,,,,,,,,,
11,10080, Note_on_c,9,42,99,,,,,,,,,,,,,,,,,,,,,,,
11,10088, Note_on_c,9,42,0,,,,,,,,,,,,,,,,,,,,,,,
11,10128, Note_on_c,9,42,103,,,,,,,,,,,,,,,,,,,,,,,
11,10136, Note_on_c,9,42,0,,,,,,,,,,,,,,,,,,,,,,,
11,10176, Note_on_c,9,44,112,,,,,,,,,,,,,,,,,,,,,,,
11,10184, Note_on_c,9,44,0,,,,,,,,,,,,,,,,,,,,,,,
11,10224, Note_on_c,9,42,99,,,,,,,,,,,,,,,,,,,,,,,
11,10232, Note_on_c,9,42,0,,,,,,,,,,,,,,,,,,,,,,,
11,10272, Note_on_c,9,42,107,,,,,,,,,,,,,,,,,,,,,,,
11,10280, Note_on_c,9,42,0,,,,,,,,,,,,,,,,,,,,,,,
11,10320, Note_on_c,9,42,112,,,,,,,,,,,,,,,,,,,,,,,
11,10328, Note_on_c,9,42,0,,,,,,,,,,,,,,,,,,,,,,,
11,10368, Note_on_c,9,42,103,,,,,,,,,,,,,,,,,,,,,,,
11,10376, Note_on_c,9,42,0,,,,,,,,,,,,,,,,,,,,,,,
11,10416, Note_on_c,9,42,107,,,,,,,,,,,,,,,,,,,,,,,
11,10424, Note_on_c,9,42,0,,,,,,,,,,,,,,,,,,,,,,,
11,10464, Note_on_c,9,42,107,,,,,,,,,,,,,,,,,,,,,,,
11,10472, Note_on_c,9,42,0,,,,,,,,,,,,,,,,,,,,,,,
11,10512, Note_on_c,9,42,103,,,,,,,,,,,,,,,,,,,,,,,
11,10520, Note_on_c,9,42,0,,,,,,,,,,,,,,,,,,,,,,,
11,10560, Note_on_c,9,44,107,,,,,,,,,,,,,,,,,,,,,,,
11,10568, Note_on_c,9,44,0,,,,,,,,,,,,,,,,,,,,,,,
11,10608, Note_on_c,9,42,112,,,,,,,,,,,,,,,,,,,,,,,
11,10616, Note_on_c,9,42,0,,,,,,,,,,,,,,,,,,,,,,,
11,10656, Note_on_c,9,44,112,,,,,,,,,,,,,,,,,,,,,,,
11,10664, Note_on_c,9,44,0,,,,,,,,,,,,,,,,,,,,,,,
11,10704, Note_on_c,9,42,112,,,,,,,,,,,,,,,,,,,,,,,
11,10712, Note_on_c,9,42,0,,,,,,,,,,,,,,,,,,,,,,,
11,10752, Note_on_c,9,42,107,,,,,,,,,,,,,,,,,,,,,,,
11,10760, Note_on_c,9,42,0,,,,,,,,,,,,,,,,,,,,,,,
11,10800, Note_on_c,9,42,92,,,,,,,,,,,,,,,,,,,,,,,
11,10808, Note_on_c,9,42,0,,,,,,,,,,,,,,,,,,,,,,,
11,10848, Note_on_c,9,42,103,,,,,,,,,,,,,,,,,,,,,,,
11,10856, Note_on_c,9,42,0,,,,,,,,,,,,,,,,,,,,,,,
11,10896, Note_on_c,9,42,107,,,,,,,,,,,,,,,,,,,,,,,
11,10904, Note_on_c,9,42,0,,,,,,,,,,,,,,,,,,,,,,,
11,10944, Note_on_c,9,44,127,,,,,,,,,,,,,,,,,,,,,,,
11,10952, Note_on_c,9,44,0,,,,,,,,,,,,,,,,,,,,,,,
11,10992, Note_on_c,9,42,95,,,,,,,,,,,,,,,,,,,,,,,
11,11000, Note_on_c,9,42,0,,,,,,,,,,,,,,,,,,,,,,,
11,11040, Note_on_c,9,42,99,,,,,,,,,,,,,,,,,,,,,,,
11,11048, Note_on_c,9,42,0,,,,,,,,,,,,,,,,,,,,,,,
11,11088, Note_on_c,9,42,112,,,,,,,,,,,,,,,,,,,,,,,
11,11096, Note_on_c,9,42,0,,,,,,,,,,,,,,,,,,,,,,,
11,11136, Note_on_c,9,42,92,,,,,,,,,,,,,,,,,,,,,,,
11,11144, Note_on_c,9,42,0,,,,,,,,,,,,,,,,,,,,,,,
11,11184, Note_on_c,9,42,107,,,,,,,,,,,,,,,,,,,,,,,
11,11192, Note_on_c,9,42,0,,,,,,,,,,,,,,,,,,,,,,,
11,11232, Note_on_c,9,42,103,,,,,,,,,,,,,,,,,,,,,,,
11,11240, Note_on_c,9,42,0,,,,,,,,,,,,,,,,,,,,,,,
11,11280, Note_on_c,9,42,107,,,,,,,,,,,,,,,,,,,,,,,
11,11288, Note_on_c,9,42,0,,,,,,,,,,,,,,,,,,,,,,,
11,11328, Note_on_c,9,44,112,,,,,,,,,,,,,,,,,,,,,,,
11,11336, Note_on_c,9,44,0,,,,,,,,,,,,,,,,,,,,,,,
11,11376, Note_on_c,9,42,112,,,,,,,,,,,,,,,,,,,,,,,
11,11384, Note_on_c,9,42,0,,,,,,,,,,,,,,,,,,,,,,,
11,11424, Note_on_c,9,42,103,,,,,,,,,,,,,,,,,,,,,,,
11,11432, Note_on_c,9,42,0,,,,,,,,,,,,,,,,,,,,,,,
11,11472, Note_on_c,9,42,112,,,,,,,,,,,,,,,,,,,,,,,
11,11480, Note_on_c,9,42,0,,,,,,,,,,,,,,,,,,,,,,,
11,11520, Note_on_c,9,42,99,,,,,,,,,,,,,,,,,,,,,,,
11,11528, Note_on_c,9,42,0,,,,,,,,,,,,,,,,,,,,,,,
11,11568, Note_on_c,9,42,103,,,,,,,,,,,,,,,,,,,,,,,
11,11576, Note_on_c,9,42,0,,,,,,,,,,,,,,,,,,,,,,,
11,11616, Note_on_c,9,42,95,,,,,,,,,,,,,,,,,,,,,,,
11,11624, Note_on_c,9,42,0,,,,,,,,,,,,,,,,,,,,,,,
11,11664, Note_on_c,9,42,103,,,,,,,,,,,,,,,,,,,,,,,
11,11672, Note_on_c,9,42,0,,,,,,,,,,,,,,,,,,,,,,,
11,11712, Note_on_c,9,44,112,,,,,,,,,,,,,,,,,,,,,,,
11,11720, Note_on_c,9,44,0,,,,,,,,,,,,,,,,,,,,,,,
11,11760, Note_on_c,9,42,107,,,,,,,,,,,,,,,,,,,,,,,
11,11768, Note_on_c,9,42,0,,,,,,,,,,,,,,,,,,,,,,,
11,11808, Note_on_c,9,42,99,,,,,,,,,,,,,,,,,,,,,,,
11,11816, Note_on_c,9,42,0,,,,,,,,,,,,,,,,,,,,,,,
11,11856, Note_on_c,9,42,112,,,,,,,,,,,,,,,,,,,,,,,
11,11864, Note_on_c,9,42,0,,,,,,,,,,,,,,,,,,,,,,,
11,11904, Note_on_c,9,42,103,,,,,,,,,,,,,,,,,,,,,,,
11,11912, Note_on_c,9,42,0,,,,,,,,,,,,,,,,,,,,,,,
11,11952, Note_on_c,9,42,107,,,,,,,,,,,,,,,,,,,,,,,
11,11960, Note_on_c,9,42,0,,,,,,,,,,,,,,,,,,,,,,,
11,12000, Note_on_c,9,42,107,,,,,,,,,,,,,,,,,,,,,,,
11,12008, Note_on_c,9,42,0,,,,,,,,,,,,,,,,,,,,,,,
11,12048, Note_on_c,9,42,107,,,,,,,,,,,,,,,,,,,,,,,
11,12056, Note_on_c,9,42,0,,,,,,,,,,,,,,,,,,,,,,,
11,12096, Note_on_c,9,44,112,,,,,,,,,,,,,,,,,,,,,,,
11,12104, Note_on_c,9,44,0,,,,,,,,,,,,,,,,,,,,,,,
11,12144, Note_on_c,9,42,107,,,,,,,,,,,,,,,,,,,,,,,
11,12152, Note_on_c,9,42,0,,,,,,,,,,,,,,,,,,,,,,,
11,12192, Note_on_c,9,44,107,,,,,,,,,,,,,,,,,,,,,,,
11,12200, Note_on_c,9,44,0,,,,,,,,,,,,,,,,,,,,,,,
11,12240, Note_on_c,9,42,107,,,,,,,,,,,,,,,,,,,,,,,
11,12248, Note_on_c,9,42,0,,,,,,,,,,,,,,,,,,,,,,,
11,12288, Note_on_c,9,42,112,,,,,,,,,,,,,,,,,,,,,,,
11,12296, Note_on_c,9,42,0,,,,,,,,,,,,,,,,,,,,,,,
11,12336, Note_on_c,9,42,82,,,,,,,,,,,,,,,,,,,,,,,
11,12344, Note_on_c,9,42,0,,,,,,,,,,,,,,,,,,,,,,,
11,12384, Note_on_c,9,42,103,,,,,,,,,,,,,,,,,,,,,,,
11,12392, Note_on_c,9,42,0,,,,,,,,,,,,,,,,,,,,,,,
11,12432, Note_on_c,9,42,74,,,,,,,,,,,,,,,,,,,,,,,
11,12440, Note_on_c,9,42,0,,,,,,,,,,,,,,,,,,,,,,,
11,12480, Note_on_c,9,44,112,,,,,,,,,,,,,,,,,,,,,,,
11,12488, Note_on_c,9,44,0,,,,,,,,,,,,,,,,,,,,,,,
11,12528, Note_on_c,9,42,82,,,,,,,,,,,,,,,,,,,,,,,
11,12536, Note_on_c,9,42,0,,,,,,,,,,,,,,,,,,,,,,,
11,12576, Note_on_c,9,42,95,,,,,,,,,,,,,,,,,,,,,,,
11,12584, Note_on_c,9,42,0,,,,,,,,,,,,,,,,,,,,,,,
11,12624, Note_on_c,9,42,103,,,,,,,,,,,,,,,,,,,,,,,
11,12632, Note_on_c,9,42,0,,,,,,,,,,,,,,,,,,,,,,,
11,12672, Note_on_c,9,42,82,,,,,,,,,,,,,,,,,,,,,,,
11,12680, Note_on_c,9,42,0,,,,,,,,,,,,,,,,,,,,,,,
11,12720, Note_on_c,9,42,99,,,,,,,,,,,,,,,,,,,,,,,
11,12728, Note_on_c,9,42,0,,,,,,,,,,,,,,,,,,,,,,,
11,12768, Note_on_c,9,42,107,,,,,,,,,,,,,,,,,,,,,,,
11,12776, Note_on_c,9,42,0,,,,,,,,,,,,,,,,,,,,,,,
11,12816, Note_on_c,9,42,88,,,,,,,,,,,,,,,,,,,,,,,
11,12824, Note_on_c,9,42,0,,,,,,,,,,,,,,,,,,,,,,,
11,12864, Note_on_c,9,44,112,,,,,,,,,,,,,,,,,,,,,,,
11,12872, Note_on_c,9,44,0,,,,,,,,,,,,,,,,,,,,,,,
11,12912, Note_on_c,9,42,92,,,,,,,,,,,,,,,,,,,,,,,
11,12920, Note_on_c,9,42,0,,,,,,,,,,,,,,,,,,,,,,,
11,12960, Note_on_c,9,42,99,,,,,,,,,,,,,,,,,,,,,,,
11,12968, Note_on_c,9,42,0,,,,,,,,,,,,,,,,,,,,,,,
11,13008, Note_on_c,9,42,103,,,,,,,,,,,,,,,,,,,,,,,
11,13016, Note_on_c,9,42,0,,,,,,,,,,,,,,,,,,,,,,,
11,13056, Note_on_c,9,42,127,,,,,,,,,,,,,,,,,,,,,,,
11,13064, Note_on_c,9,42,0,,,,,,,,,,,,,,,,,,,,,,,
11,13104, Note_on_c,9,42,82,,,,,,,,,,,,,,,,,,,,,,,
11,13112, Note_on_c,9,42,0,,,,,,,,,,,,,,,,,,,,,,,
11,13152, Note_on_c,9,42,107,,,,,,,,,,,,,,,,,,,,,,,
11,13160, Note_on_c,9,42,0,,,,,,,,,,,,,,,,,,,,,,,
11,13200, Note_on_c,9,42,99,,,,,,,,,,,,,,,,,,,,,,,
11,13208, Note_on_c,9,42,0,,,,,,,,,,,,,,,,,,,,,,,
11,13248, Note_on_c,9,44,112,,,,,,,,,,,,,,,,,,,,,,,
11,13256, Note_on_c,9,44,0,,,,,,,,,,,,,,,,,,,,,,,
11,13296, Note_on_c,9,42,103,,,,,,,,,,,,,,,,,,,,,,,
11,13304, Note_on_c,9,42,0,,,,,,,,,,,,,,,,,,,,,,,
11,13344, Note_on_c,9,42,107,,,,,,,,,,,,,,,,,,,,,,,
11,13352, Note_on_c,9,42,0,,,,,,,,,,,,,,,,,,,,,,,
11,13392, Note_on_c,9,42,112,,,,,,,,,,,,,,,,,,,,,,,
11,13400, Note_on_c,9,42,0,,,,,,,,,,,,,,,,,,,,,,,
11,13440, Note_on_c,9,42,99,,,,,,,,,,,,,,,,,,,,,,,
11,13448, Note_on_c,9,42,0,,,,,,,,,,,,,,,,,,,,,,,
11,13488, Note_on_c,9,42,107,,,,,,,,,,,,,,,,,,,,,,,
11,13496, Note_on_c,9,42,0,,,,,,,,,,,,,,,,,,,,,,,
11,13536, Note_on_c,9,42,107,,,,,,,,,,,,,,,,,,,,,,,
11,13544, Note_on_c,9,42,0,,,,,,,,,,,,,,,,,,,,,,,
11,13584, Note_on_c,9,42,107,,,,,,,,,,,,,,,,,,,,,,,
11,13592, Note_on_c,9,42,0,,,,,,,,,,,,,,,,,,,,,,,
11,13632, Note_on_c,9,42,112,,,,,,,,,,,,,,,,,,,,,,,
11,13640, Note_on_c,9,42,0,,,,,,,,,,,,,,,,,,,,,,,
11,13680, Note_on_c,9,42,107,,,,,,,,,,,,,,,,,,,,,,,
11,13688, Note_on_c,9,42,0,,,,,,,,,,,,,,,,,,,,,,,
11,13728, Note_on_c,9,42,107,,,,,,,,,,,,,,,,,,,,,,,
11,13736, Note_on_c,9,42,0,,,,,,,,,,,,,,,,,,,,,,,
11,13776, Note_on_c,9,42,107,,,,,,,,,,,,,,,,,,,,,,,
11,13784, Note_on_c,9,42,0,,,,,,,,,,,,,,,,,,,,,,,
11,13824, Note_on_c,9,42,112,,,,,,,,,,,,,,,,,,,,,,,
11,13832, Note_on_c,9,42,0,,,,,,,,,,,,,,,,,,,,,,,
11,13872, Note_on_c,9,42,82,,,,,,,,,,,,,,,,,,,,,,,
11,13880, Note_on_c,9,42,0,,,,,,,,,,,,,,,,,,,,,,,
11,13920, Note_on_c,9,42,103,,,,,,,,,,,,,,,,,,,,,,,
11,13928, Note_on_c,9,42,0,,,,,,,,,,,,,,,,,,,,,,,
11,13968, Note_on_c,9,42,74,,,,,,,,,,,,,,,,,,,,,,,
11,13976, Note_on_c,9,42,0,,,,,,,,,,,,,,,,,,,,,,,
11,14016, Note_on_c,9,44,112,,,,,,,,,,,,,,,,,,,,,,,
11,14024, Note_on_c,9,44,0,,,,,,,,,,,,,,,,,,,,,,,
11,14064, Note_on_c,9,42,82,,,,,,,,,,,,,,,,,,,,,,,
11,14072, Note_on_c,9,42,0,,,,,,,,,,,,,,,,,,,,,,,
11,14112, Note_on_c,9,42,95,,,,,,,,,,,,,,,,,,,,,,,
11,14120, Note_on_c,9,42,0,,,,,,,,,,,,,,,,,,,,,,,
11,14160, Note_on_c,9,42,103,,,,,,,,,,,,,,,,,,,,,,,
11,14168, Note_on_c,9,42,0,,,,,,,,,,,,,,,,,,,,,,,
11,14208, Note_on_c,9,42,82,,,,,,,,,,,,,,,,,,,,,,,
11,14216, Note_on_c,9,42,0,,,,,,,,,,,,,,,,,,,,,,,
11,14256, Note_on_c,9,42,99,,,,,,,,,,,,,,,,,,,,,,,
11,14264, Note_on_c,9,42,0,,,,,,,,,,,,,,,,,,,,,,,
11,14304, Note_on_c,9,40,108,,,,,,,,,,,,,,,,,,,,,,,
11,14304, Note_on_c,9,40,0,,,,,,,,,,,,,,,,,,,,,,,
11,14304, Note_on_c,9,40,127,,,,,,,,,,,,,,,,,,,,,,,
11,14304, Note_on_c,9,42,107,,,,,,,,,,,,,,,,,,,,,,,
11,14312, Note_on_c,9,40,0,,,,,,,,,,,,,,,,,,,,,,,
11,14312, Note_on_c,9,42,0,,,,,,,,,,,,,,,,,,,,,,,
11,14352, Note_on_c,9,42,88,,,,,,,,,,,,,,,,,,,,,,,
11,14360, Note_on_c,9,42,0,,,,,,,,,,,,,,,,,,,,,,,
11,14400, Note_on_c,9,40,127,,,,,,,,,,,,,,,,,,,,,,,
11,14400, Note_on_c,9,44,112,,,,,,,,,,,,,,,,,,,,,,,
11,14408, Note_on_c,9,40,0,,,,,,,,,,,,,,,,,,,,,,,
11,14408, Note_on_c,9,44,0,,,,,,,,,,,,,,,,,,,,,,,
11,14448, Note_on_c,9,42,92,,,,,,,,,,,,,,,,,,,,,,,
11,14456, Note_on_c,9,42,0,,,,,,,,,,,,,,,,,,,,,,,
11,14496, Note_on_c,9,40,127,,,,,,,,,,,,,,,,,,,,,,,
11,14496, Note_on_c,9,42,99,,,,,,,,,,,,,,,,,,,,,,,
11,14504, Note_on_c,9,40,0,,,,,,,,,,,,,,,,,,,,,,,
11,14504, Note_on_c,9,42,0,,,,,,,,,,,,,,,,,,,,,,,
11,14544, Note_on_c,9,40,112,,,,,,,,,,,,,,,,,,,,,,,
11,14544, Note_on_c,9,42,103,,,,,,,,,,,,,,,,,,,,,,,
11,14552, Note_on_c,9,40,0,,,,,,,,,,,,,,,,,,,,,,,
11,14552, Note_on_c,9,42,0,,,,,,,,,,,,,,,,,,,,,,,
11,14592, Note_on_c,9,36,86,,,,,,,,,,,,,,,,,,,,,,,
11,14592, Note_on_c,9,49,99,,,,,,,,,,,,,,,,,,,,,,,
11,14600, Note_on_c,9,36,0,,,,,,,,,,,,,,,,,,,,,,,
11,14600, Note_on_c,9,49,0,,,,,,,,,,,,,,,,,,,,,,,
11,14688, Note_on_c,9,36,94,,,,,,,,,,,,,,,,,,,,,,,
11,14696, Note_on_c,9,36,0,,,,,,,,,,,,,,,,,,,,,,,
11,14784, Note_on_c,9,40,127,,,,,,,,,,,,,,,,,,,,,,,
11,14784, Note_on_c,9,51,107,,,,,,,,,,,,,,,,,,,,,,,
11,14792, Note_on_c,9,40,0,,,,,,,,,,,,,,,,,,,,,,,
11,14792, Note_on_c,9,51,0,,,,,,,,,,,,,,,,,,,,,,,
11,14928, Note_on_c,9,40,104,,,,,,,,,,,,,,,,,,,,,,,
11,14936, Note_on_c,9,40,0,,,,,,,,,,,,,,,,,,,,,,,
11,14976, Note_on_c,9,36,90,,,,,,,,,,,,,,,,,,,,,,,
11,14976, Note_on_c,9,51,88,,,,,,,,,,,,,,,,,,,,,,,
11,14984, Note_on_c,9,36,0,,,,,,,,,,,,,,,,,,,,,,,
11,14984, Note_on_c,9,51,0,,,,,,,,,,,,,,,,,,,,,,,
11,15024, Note_on_c,9,40,127,,,,,,,,,,,,,,,,,,,,,,,
11,15032, Note_on_c,9,40,0,,,,,,,,,,,,,,,,,,,,,,,
11,15072, Note_on_c,9,36,90,,,,,,,,,,,,,,,,,,,,,,,
11,15072, Note_on_c,9,51,92,,,,,,,,,,,,,,,,,,,,,,,
11,15080, Note_on_c,9,36,0,,,,,,,,,,,,,,,,,,,,,,,
11,15080, Note_on_c,9,51,0,,,,,,,,,,,,,,,,,,,,,,,
11,15168, Note_on_c,9,40,127,,,,,,,,,,,,,,,,,,,,,,,
11,15168, Note_on_c,9,51,112,,,,,,,,,,,,,,,,,,,,,,,
11,15176, Note_on_c,9,40,0,,,,,,,,,,,,,,,,,,,,,,,
11,15176, Note_on_c,9,51,0,,,,,,,,,,,,,,,,,,,,,,,
11,15216, Note_on_c,9,40,72,,,,,,,,,,,,,,,,,,,,,,,
11,15224, Note_on_c,9,40,0,,,,,,,,,,,,,,,,,,,,,,,
11,15240, Note_on_c,9,40,66,,,,,,,,,,,,,,,,,,,,,,,
11,15248, Note_on_c,9,40,0,,,,,,,,,,,,,,,,,,,,,,,
11,15264, Note_on_c,9,40,76,,,,,,,,,,,,,,,,,,,,,,,
11,15264, Note_on_c,9,51,64,,,,,,,,,,,,,,,,,,,,,,,
11,15272, Note_on_c,9,40,0,,,,,,,,,,,,,,,,,,,,,,,
11,15272, Note_on_c,9,51,0,,,,,,,,,,,,,,,,,,,,,,,
11,15312, Note_on_c,9,40,66,,,,,,,,,,,,,,,,,,,,,,,
11,15320, Note_on_c,9,40,0,,,,,,,,,,,,,,,,,,,,,,,
11,15360, Note_on_c,9,36,94,,,,,,,,,,,,,,,,,,,,,,,
11,15360, Note_on_c,9,51,107,,,,,,,,,,,,,,,,,,,,,,,
11,15368, Note_on_c,9,36,0,,,,,,,,,,,,,,,,,,,,,,,
11,15368, Note_on_c,9,51,0,,,,,,,,,,,,,,,,,,,,,,,
11,15456, Note_on_c,9,36,94,,,,,,,,,,,,,,,,,,,,,,,
11,15456, Note_on_c,9,51,58,,,,,,,,,,,,,,,,,,,,,,,
11,15464, Note_on_c,9,36,0,,,,,,,,,,,,,,,,,,,,,,,
11,15464, Note_on_c,9,51,0,,,,,,,,,,,,,,,,,,,,,,,
11,15552, Note_on_c,9,40,127,,,,,,,,,,,,,,,,,,,,,,,
11,15552, Note_on_c,9,51,112,,,,,,,,,,,,,,,,,,,,,,,
11,15560, Note_on_c,9,40,0,,,,,,,,,,,,,,,,,,,,,,,
11,15560, Note_on_c,9,51,0,,,,,,,,,,,,,,,,,,,,,,,
11,15648, Note_on_c,9,51,78,,,,,,,,,,,,,,,,,,,,,,,
11,15656, Note_on_c,9,51,0,,,,,,,,,,,,,,,,,,,,,,,
11,15696, Note_on_c,9,40,107,,,,,,,,,,,,,,,,,,,,,,,
11,15704, Note_on_c,9,40,0,,,,,,,,,,,,,,,,,,,,,,,
11,15744, Note_on_c,9,36,99,,,,,,,,,,,,,,,,,,,,,,,
11,15744, Note_on_c,9,51,64,,,,,,,,,,,,,,,,,,,,,,,
11,15752, Note_on_c,9,36,0,,,,,,,,,,,,,,,,,,,,,,,
11,15752, Note_on_c,9,51,0,,,,,,,,,,,,,,,,,,,,,,,
11,15792, Note_on_c,9,40,127,,,,,,,,,,,,,,,,,,,,,,,
11,15800, Note_on_c,9,40,0,,,,,,,,,,,,,,,,,,,,,,,
11,15840, Note_on_c,9,36,94,,,,,,,,,,,,,,,,,,,,,,,
11,15840, Note_on_c,9,51,112,,,,,,,,,,,,,,,,,,,,,,,
11,15848, Note_on_c,9,36,0,,,,,,,,,,,,,,,,,,,,,,,
11,15848, Note_on_c,9,51,0,,,,,,,,,,,,,,,,,,,,,,,
11,15936, Note_on_c,9,40,127,,,,,,,,,,,,,,,,,,,,,,,
11,15936, Note_on_c,9,51,112,,,,,,,,,,,,,,,,,,,,,,,
11,15944, Note_on_c,9,40,0,,,,,,,,,,,,,,,,,,,,,,,
11,15944, Note_on_c,9,51,0,,,,,,,,,,,,,,,,,,,,,,,
11,15984, Note_on_c,9,40,80,,,,,,,,,,,,,,,,,,,,,,,
11,15992, Note_on_c,9,40,0,,,,,,,,,,,,,,,,,,,,,,,
11,16008, Note_on_c,9,40,66,,,,,,,,,,,,,,,,,,,,,,,
11,16016, Note_on_c,9,40,0,,,,,,,,,,,,,,,,,,,,,,,
11,16032, Note_on_c,9,40,84,,,,,,,,,,,,,,,,,,,,,,,
11,16032, Note_on_c,9,51,82,,,,,,,,,,,,,,,,,,,,,,,
11,16040, Note_on_c,9,40,0,,,,,,,,,,,,,,,,,,,,,,,
11,16040, Note_on_c,9,51,0,,,,,,,,,,,,,,,,,,,,,,,
11,16080, Note_on_c,9,40,63,,,,,,,,,,,,,,,,,,,,,,,
11,16088, Note_on_c,9,40,0,,,,,,,,,,,,,,,,,,,,,,,
11,16128, Note_on_c,9,36,99,,,,,,,,,,,,,,,,,,,,,,,
11,16128, Note_on_c,9,51,127,,,,,,,,,,,,,,,,,,,,,,,
11,16136, Note_on_c,9,36,0,,,,,,,,,,,,,,,,,,,,,,,
11,16136, Note_on_c,9,51,0,,,,,,,,,,,,,,,,,,,,,,,
11,16224, Note_on_c,9,36,94,,,,,,,,,,,,,,,,,,,,,,,
11,16224, Note_on_c,9,51,72,,,,,,,,,,,,,,,,,,,,,,,
11,16232, Note_on_c,9,36,0,,,,,,,,,,,,,,,,,,,,,,,
11,16232, Note_on_c,9,51,0,,,,,,,,,,,,,,,,,,,,,,,
11,16272, Note_on_c,9,40,40,,,,,,,,,,,,,,,,,,,,,,,
11,16280, Note_on_c,9,40,0,,,,,,,,,,,,,,,,,,,,,,,
11,16320, Note_on_c,9,40,127,,,,,,,,,,,,,,,,,,,,,,,
11,16320, Note_on_c,9,51,127,,,,,,,,,,,,,,,,,,,,,,,
11,16328, Note_on_c,9,40,0,,,,,,,,,,,,,,,,,,,,,,,
11,16328, Note_on_c,9,51,0,,,,,,,,,,,,,,,,,,,,,,,
11,16416, Note_on_c,9,51,92,,,,,,,,,,,,,,,,,,,,,,,
11,16424, Note_on_c,9,51,0,,,,,,,,,,,,,,,,,,,,,,,
11,16464, Note_on_c,9,40,107,,,,,,,,,,,,,,,,,,,,,,,
11,16472, Note_on_c,9,40,0,,,,,,,,,,,,,,,,,,,,,,,
11,16512, Note_on_c,9,36,99,,,,,,,,,,,,,,,,,,,,,,,
11,16512, Note_on_c,9,51,92,,,,,,,,,,,,,,,,,,,,,,,
11,16520, Note_on_c,9,36,0,,,,,,,,,,,,,,,,,,,,,,,
11,16520, Note_on_c,9,51,0,,,,,,,,,,,,,,,,,,,,,,,
11,16560, Note_on_c,9,40,127,,,,,,,,,,,,,,,,,,,,,,,
11,16568, Note_on_c,9,40,0,,,,,,,,,,,,,,,,,,,,,,,
11,16608, Note_on_c,9,36,86,,,,,,,,,,,,,,,,,,,,,,,
11,16608, Note_on_c,9,51,127,,,,,,,,,,,,,,,,,,,,,,,
11,16616, Note_on_c,9,36,0,,,,,,,,,,,,,,,,,,,,,,,
11,16616, Note_on_c,9,51,0,,,,,,,,,,,,,,,,,,,,,,,
11,16704, Note_on_c,9,40,127,,,,,,,,,,,,,,,,,,,,,,,
11,16704, Note_on_c,9,51,112,,,,,,,,,,,,,,,,,,,,,,,
11,16712, Note_on_c,9,40,0,,,,,,,,,,,,,,,,,,,,,,,
11,16712, Note_on_c,9,51,0,,,,,,,,,,,,,,,,,,,,,,,
11,16752, Note_on_c,9,40,84,,,,,,,,,,,,,,,,,,,,,,,
11,16760, Note_on_c,9,40,0,,,,,,,,,,,,,,,,,,,,,,,
11,16776, Note_on_c,9,40,66,,,,,,,,,,,,,,,,,,,,,,,
11,16784, Note_on_c,9,40,0,,,,,,,,,,,,,,,,,,,,,,,
11,16800, Note_on_c,9,40,89,,,,,,,,,,,,,,,,,,,,,,,
11,16800, Note_on_c,9,51,112,,,,,,,,,,,,,,,,,,,,,,,
11,16808, Note_on_c,9,40,0,,,,,,,,,,,,,,,,,,,,,,,
11,16808, Note_on_c,9,51,0,,,,,,,,,,,,,,,,,,,,,,,
11,16848, Note_on_c,9,40,66,,,,,,,,,,,,,,,,,,,,,,,
11,16856, Note_on_c,9,40,0,,,,,,,,,,,,,,,,,,,,,,,
11,16896, Note_on_c,9,36,99,,,,,,,,,,,,,,,,,,,,,,,
11,16896, Note_on_c,9,51,112,,,,,,,,,,,,,,,,,,,,,,,
11,16904, Note_on_c,9,36,0,,,,,,,,,,,,,,,,,,,,,,,
11,16904, Note_on_c,9,51,0,,,,,,,,,,,,,,,,,,,,,,,
11,16992, Note_on_c,9,36,94,,,,,,,,,,,,,,,,,,,,,,,
11,16992, Note_on_c,9,51,82,,,,,,,,,,,,,,,,,,,,,,,
11,17000, Note_on_c,9,36,0,,,,,,,,,,,,,,,,,,,,,,,
11,17000, Note_on_c,9,51,0,,,,,,,,,,,,,,,,,,,,,,,
11,17088, Note_on_c,9,40,127,,,,,,,,,,,,,,,,,,,,,,,
11,17088, Note_on_c,9,51,127,,,,,,,,,,,,,,,,,,,,,,,
11,17096, Note_on_c,9,40,0,,,,,,,,,,,,,,,,,,,,,,,
11,17096, Note_on_c,9,51,0,,,,,,,,,,,,,,,,,,,,,,,
11,17184, Note_on_c,9,51,78,,,,,,,,,,,,,,,,,,,,,,,
11,17192, Note_on_c,9,51,0,,,,,,,,,,,,,,,,,,,,,,,
11,17232, Note_on_c,9,40,98,,,,,,,,,,,,,,,,,,,,,,,
11,17240, Note_on_c,9,40,0,,,,,,,,,,,,,,,,,,,,,,,
11,17280, Note_on_c,9,36,99,,,,,,,,,,,,,,,,,,,,,,,
11,17280, Note_on_c,9,51,86,,,,,,,,,,,,,,,,,,,,,,,
11,17288, Note_on_c,9,36,0,,,,,,,,,,,,,,,,,,,,,,,
11,17288, Note_on_c,9,51,0,,,,,,,,,,,,,,,,,,,,,,,
11,17328, Note_on_c,9,40,127,,,,,,,,,,,,,,,,,,,,,,,
11,17336, Note_on_c,9,40,0,,,,,,,,,,,,,,,,,,,,,,,
11,17376, Note_on_c,9,36,90,,,,,,,,,,,,,,,,,,,,,,,
11,17376, Note_on_c,9,51,127,,,,,,,,,,,,,,,,,,,,,,,
11,17384, Note_on_c,9,36,0,,,,,,,,,,,,,,,,,,,,,,,
11,17384, Note_on_c,9,51,0,,,,,,,,,,,,,,,,,,,,,,,
11,17472, Note_on_c,9,40,127,,,,,,,,,,,,,,,,,,,,,,,
11,17472, Note_on_c,9,51,112,,,,,,,,,,,,,,,,,,,,,,,
11,17480, Note_on_c,9,40,0,,,,,,,,,,,,,,,,,,,,,,,
11,17480, Note_on_c,9,51,0,,,,,,,,,,,,,,,,,,,,,,,
11,17520, Note_on_c,9,40,76,,,,,,,,,,,,,,,,,,,,,,,
11,17528, Note_on_c,9,40,0,,,,,,,,,,,,,,,,,,,,,,,
11,17544, Note_on_c,9,40,63,,,,,,,,,,,,,,,,,,,,,,,
11,17552, Note_on_c,9,40,0,,,,,,,,,,,,,,,,,,,,,,,
11,17568, Note_on_c,9,40,84,,,,,,,,,,,,,,,,,,,,,,,
11,17576, Note_on_c,9,40,0,,,,,,,,,,,,,,,,,,,,,,,
11,17616, Note_on_c,9,40,69,,,,,,,,,,,,,,,,,,,,,,,
11,17624, Note_on_c,9,40,0,,,,,,,,,,,,,,,,,,,,,,,
11,17664, Note_on_c,9,36,94,,,,,,,,,,,,,,,,,,,,,,,
11,17664, Note_on_c,9,51,112,,,,,,,,,,,,,,,,,,,,,,,
11,17672, Note_on_c,9,36,0,,,,,,,,,,,,,,,,,,,,,,,
11,17672, Note_on_c,9,51,0,,,,,,,,,,,,,,,,,,,,,,,
11,17760, Note_on_c,9,36,86,,,,,,,,,,,,,,,,,,,,,,,
11,17760, Note_on_c,9,51,70,,,,,,,,,,,,,,,,,,,,,,,
11,17768, Note_on_c,9,36,0,,,,,,,,,,,,,,,,,,,,,,,
11,17768, Note_on_c,9,51,0,,,,,,,,,,,,,,,,,,,,,,,
11,17808, Note_on_c,9,40,66,,,,,,,,,,,,,,,,,,,,,,,
11,17816, Note_on_c,9,40,0,,,,,,,,,,,,,,,,,,,,,,,
11,17856, Note_on_c,9,40,127,,,,,,,,,,,,,,,,,,,,,,,
11,17856, Note_on_c,9,51,112,,,,,,,,,,,,,,,,,,,,,,,
11,17864, Note_on_c,9,40,0,,,,,,,,,,,,,,,,,,,,,,,
11,17864, Note_on_c,9,51,0,,,,,,,,,,,,,,,,,,,,,,,
11,18000, Note_on_c,9,40,88,,,,,,,,,,,,,,,,,,,,,,,
11,18008, Note_on_c,9,40,0,,,,,,,,,,,,,,,,,,,,,,,
11,18048, Note_on_c,9,36,94,,,,,,,,,,,,,,,,,,,,,,,
11,18048, Note_on_c,9,51,74,,,,,,,,,,,,,,,,,,,,,,,
11,18056, Note_on_c,9,36,0,,,,,,,,,,,,,,,,,,,,,,,
11,18056, Note_on_c,9,51,0,,,,,,,,,,,,,,,,,,,,,,,
11,18096, Note_on_c,9,40,127,,,,,,,,,,,,,,,,,,,,,,,
11,18104, Note_on_c,9,40,0,,,,,,,,,,,,,,,,,,,,,,,
11,18144, Note_on_c,9,36,79,,,,,,,,,,,,,,,,,,,,,,,
11,18144, Note_on_c,9,51,112,,,,,,,,,,,,,,,,,,,,,,,
11,18152, Note_on_c,9,36,0,,,,,,,,,,,,,,,,,,,,,,,
11,18152, Note_on_c,9,51,0,,,,,,,,,,,,,,,,,,,,,,,
11,18240, Note_on_c,9,40,127,,,,,,,,,,,,,,,,,,,,,,,
11,18240, Note_on_c,9,51,112,,,,,,,,,,,,,,,,,,,,,,,
11,18248, Note_on_c,9,40,0,,,,,,,,,,,,,,,,,,,,,,,
11,18248, Note_on_c,9,51,0,,,,,,,,,,,,,,,,,,,,,,,
11,18288, Note_on_c,9,40,80,,,,,,,,,,,,,,,,,,,,,,,
11,18296, Note_on_c,9,40,0,,,,,,,,,,,,,,,,,,,,,,,
11,18312, Note_on_c,9,40,69,,,,,,,,,,,,,,,,,,,,,,,
11,18320, Note_on_c,9,40,0,,,,,,,,,,,,,,,,,,,,,,,
11,18336, Note_on_c,9,40,80,,,,,,,,,,,,,,,,,,,,,,,
11,18336, Note_on_c,9,51,82,,,,,,,,,,,,,,,,,,,,,,,
11,18344, Note_on_c,9,40,0,,,,,,,,,,,,,,,,,,,,,,,
11,18344, Note_on_c,9,51,0,,,,,,,,,,,,,,,,,,,,,,,
11,18384, Note_on_c,9,40,63,,,,,,,,,,,,,,,,,,,,,,,
11,18392, Note_on_c,9,40,0,,,,,,,,,,,,,,,,,,,,,,,
11,18432, Note_on_c,9,36,99,,,,,,,,,,,,,,,,,,,,,,,
11,18432, Note_on_c,9,51,112,,,,,,,,,,,,,,,,,,,,,,,
11,18440, Note_on_c,9,36,0,,,,,,,,,,,,,,,,,,,,,,,
11,18440, Note_on_c,9,51,0,,,,,,,,,,,,,,,,,,,,,,,
11,18528, Note_on_c,9,36,90,,,,,,,,,,,,,,,,,,,,,,,
11,18528, Note_on_c,9,51,78,,,,,,,,,,,,,,,,,,,,,,,
11,18536, Note_on_c,9,36,0,,,,,,,,,,,,,,,,,,,,,,,
11,18536, Note_on_c,9,51,0,,,,,,,,,,,,,,,,,,,,,,,
11,18624, Note_on_c,9,40,127,,,,,,,,,,,,,,,,,,,,,,,
11,18624, Note_on_c,9,51,112,,,,,,,,,,,,,,,,,,,,,,,
11,18632, Note_on_c,9,40,0,,,,,,,,,,,,,,,,,,,,,,,
11,18632, Note_on_c,9,51,0,,,,,,,,,,,,,,,,,,,,,,,
11,18720, Note_on_c,9,51,52,,,,,,,,,,,,,,,,,,,,,,,
11,18728, Note_on_c,9,51,0,,,,,,,,,,,,,,,,,,,,,,,
11,18768, Note_on_c,9,40,110,,,,,,,,,,,,,,,,,,,,,,,
11,18776, Note_on_c,9,40,0,,,,,,,,,,,,,,,,,,,,,,,
11,18816, Note_on_c,9,36,90,,,,,,,,,,,,,,,,,,,,,,,
11,18816, Note_on_c,9,51,95,,,,,,,,,,,,,,,,,,,,,,,
11,18824, Note_on_c,9,36,0,,,,,,,,,,,,,,,,,,,,,,,
11,18824, Note_on_c,9,51,0,,,,,,,,,,,,,,,,,,,,,,,
11,18864, Note_on_c,9,40,127,,,,,,,,,,,,,,,,,,,,,,,
11,18872, Note_on_c,9,40,0,,,,,,,,,,,,,,,,,,,,,,,
11,18912, Note_on_c,9,36,90,,,,,,,,,,,,,,,,,,,,,,,
11,18912, Note_on_c,9,51,112,,,,,,,,,,,,,,,,,,,,,,,
11,18920, Note_on_c,9,36,0,,,,,,,,,,,,,,,,,,,,,,,
11,18920, Note_on_c,9,51,0,,,,,,,,,,,,,,,,,,,,,,,
11,19008, Note_on_c,9,40,127,,,,,,,,,,,,,,,,,,,,,,,
11,19008, Note_on_c,9,51,112,,,,,,,,,,,,,,,,,,,,,,,
11,19016, Note_on_c,9,40,0,,,,,,,,,,,,,,,,,,,,,,,
11,19016, Note_on_c,9,51,0,,,,,,,,,,,,,,,,,,,,,,,
11,19104, Note_on_c,9,40,98,,,,,,,,,,,,,,,,,,,,,,,
11,19104, Note_on_c,9,51,59,,,,,,,,,,,,,,,,,,,,,,,
11,19112, Note_on_c,9,40,0,,,,,,,,,,,,,,,,,,,,,,,
11,19112, Note_on_c,9,51,0,,,,,,,,,,,,,,,,,,,,,,,
11,19152, Note_on_c,9,40,104,,,,,,,,,,,,,,,,,,,,,,,
11,19160, Note_on_c,9,40,0,,,,,,,,,,,,,,,,,,,,,,,
11,19200, Note_on_c,9,36,94,,,,,,,,,,,,,,,,,,,,,,,
11,19200, Note_on_c,9,51,112,,,,,,,,,,,,,,,,,,,,,,,
11,19208, Note_on_c,9,36,0,,,,,,,,,,,,,,,,,,,,,,,
11,19208, Note_on_c,9,51,0,,,,,,,,,,,,,,,,,,,,,,,
11,19296, Note_on_c,9,36,94,,,,,,,,,,,,,,,,,,,,,,,
11,19296, Note_on_c,9,51,67,,,,,,,,,,,,,,,,,,,,,,,
11,19304, Note_on_c,9,36,0,,,,,,,,,,,,,,,,,,,,,,,
11,19304, Note_on_c,9,51,0,,,,,,,,,,,,,,,,,,,,,,,
11,19392, Note_on_c,9,40,127,,,,,,,,,,,,,,,,,,,,,,,
11,19392, Note_on_c,9,51,112,,,,,,,,,,,,,,,,,,,,,,,
11,19400, Note_on_c,9,40,0,,,,,,,,,,,,,,,,,,,,,,,
11,19400, Note_on_c,9,51,0,,,,,,,,,,,,,,,,,,,,,,,
11,19488, Note_on_c,9,51,44,,,,,,,,,,,,,,,,,,,,,,,
11,19496, Note_on_c,9,51,0,,,,,,,,,,,,,,,,,,,,,,,
11,19536, Note_on_c,9,40,101,,,,,,,,,,,,,,,,,,,,,,,
11,19544, Note_on_c,9,40,0,,,,,,,,,,,,,,,,,,,,,,,
11,19584, Note_on_c,9,36,90,,,,,,,,,,,,,,,,,,,,,,,
11,19584, Note_on_c,9,51,103,,,,,,,,,,,,,,,,,,,,,,,
11,19592, Note_on_c,9,36,0,,,,,,,,,,,,,,,,,,,,,,,
11,19592, Note_on_c,9,51,0,,,,,,,,,,,,,,,,,,,,,,,
11,19632, Note_on_c,9,40,118,,,,,,,,,,,,,,,,,,,,,,,
11,19640, Note_on_c,9,40,0,,,,,,,,,,,,,,,,,,,,,,,
11,19656, Note_on_c,9,40,114,,,,,,,,,,,,,,,,,,,,,,,
11,19664, Note_on_c,9,40,0,,,,,,,,,,,,,,,,,,,,,,,
11,19680, Note_on_c,9,36,90,,,,,,,,,,,,,,,,,,,,,,,
11,19680, Note_on_c,9,40,127,,,,,,,,,,,,,,,,,,,,,,,
11,19680, Note_on_c,9,51,112,,,,,,,,,,,,,,,,,,,,,,,
11,19688, Note_on_c,9,36,0,,,,,,,,,,,,,,,,,,,,,,,
11,19688, Note_on_c,9,40,0,,,,,,,,,,,,,,,,,,,,,,,
11,19688, Note_on_c,9,51,0,,,,,,,,,,,,,,,,,,,,,,,
11,19728, Note_on_c,9,40,127,,,,,,,,,,,,,,,,,,,,,,,
11,19736, Note_on_c,9,40,0,,,,,,,,,,,,,,,,,,,,,,,
11,19776, Note_on_c,9,40,120,,,,,,,,,,,,,,,,,,,,,,,
11,19776, Note_on_c,9,51,103,,,,,,,,,,,,,,,,,,,,,,,
11,19784, Note_on_c,9,40,0,,,,,,,,,,,,,,,,,,,,,,,
11,19784, Note_on_c,9,51,0,,,,,,,,,,,,,,,,,,,,,,,
11,19824, Note_on_c,9,40,124,,,,,,,,,,,,,,,,,,,,,,,
11,19832, Note_on_c,9,40,0,,,,,,,,,,,,,,,,,,,,,,,
11,19872, Note_on_c,9,36,127,,,,,,,,,,,,,,,,,,,,,,,
11,19872, Note_on_c,9,51,103,,,,,,,,,,,,,,,,,,,,,,,
11,19880, Note_on_c,9,36,0,,,,,,,,,,,,,,,,,,,,,,,
11,19880, Note_on_c,9,51,0,,,,,,,,,,,,,,,,,,,,,,,
11,19968, Note_on_c,9,36,95,,,,,,,,,,,,,,,,,,,,,,,
11,19968, Note_on_c,9,42,112,,,,,,,,,,,,,,,,,,,,,,,
11,19968, Note_on_c,9,52,88,,,,,,,,,,,,,,,,,,,,,,,
11,19976, Note_on_c,9,36,0,,,,,,,,,,,,,,,,,,,,,,,
11,19976, Note_on_c,9,42,0,,,,,,,,,,,,,,,,,,,,,,,
11,19976, Note_on_c,9,52,0,,,,,,,,,,,,,,,,,,,,,,,
11,20016, Note_on_c,9,42,88,,,,,,,,,,,,,,,,,,,,,,,
11,20024, Note_on_c,9,42,0,,,,,,,,,,,,,,,,,,,,,,,
11,20064, Note_on_c,9,36,100,,,,,,,,,,,,,,,,,,,,,,,
11,20064, Note_on_c,9,42,107,,,,,,,,,,,,,,,,,,,,,,,
11,20072, Note_on_c,9,36,0,,,,,,,,,,,,,,,,,,,,,,,
11,20072, Note_on_c,9,42,0,,,,,,,,,,,,,,,,,,,,,,,
11,20112, Note_on_c,9,42,103,,,,,,,,,,,,,,,,,,,,,,,
11,20120, Note_on_c,9,42,0,,,,,,,,,,,,,,,,,,,,,,,
11,20160, Note_on_c,9,40,127,,,,,,,,,,,,,,,,,,,,,,,
11,20160, Note_on_c,9,42,103,,,,,,,,,,,,,,,,,,,,,,,
11,20160, Note_on_c,9,54,112,,,,,,,,,,,,,,,,,,,,,,,
11,20168, Note_on_c,9,40,0,,,,,,,,,,,,,,,,,,,,,,,
11,20168, Note_on_c,9,42,0,,,,,,,,,,,,,,,,,,,,,,,
11,20168, Note_on_c,9,54,0,,,,,,,,,,,,,,,,,,,,,,,
11,20208, Note_on_c,9,42,95,,,,,,,,,,,,,,,,,,,,,,,
11,20216, Note_on_c,9,42,0,,,,,,,,,,,,,,,,,,,,,,,
11,20256, Note_on_c,9,42,107,,,,,,,,,,,,,,,,,,,,,,,
11,20264, Note_on_c,9,42,0,,,,,,,,,,,,,,,,,,,,,,,
11,20304, Note_on_c,9,40,103,,,,,,,,,,,,,,,,,,,,,,,
11,20304, Note_on_c,9,42,103,,,,,,,,,,,,,,,,,,,,,,,
11,20312, Note_on_c,9,40,0,,,,,,,,,,,,,,,,,,,,,,,
11,20312, Note_on_c,9,42,0,,,,,,,,,,,,,,,,,,,,,,,
11,20352, Note_on_c,9,42,67,,,,,,,,,,,,,,,,,,,,,,,
11,20360, Note_on_c,9,42,0,,,,,,,,,,,,,,,,,,,,,,,
11,20400, Note_on_c,9,40,118,,,,,,,,,,,,,,,,,,,,,,,
11,20400, Note_on_c,9,42,99,,,,,,,,,,,,,,,,,,,,,,,
11,20408, Note_on_c,9,40,0,,,,,,,,,,,,,,,,,,,,,,,
11,20408, Note_on_c,9,42,0,,,,,,,,,,,,,,,,,,,,,,,
11,20448, Note_on_c,9,36,100,,,,,,,,,,,,,,,,,,,,,,,
11,20448, Note_on_c,9,42,112,,,,,,,,,,,,,,,,,,,,,,,
11,20456, Note_on_c,9,36,0,,,,,,,,,,,,,,,,,,,,,,,
11,20456, Note_on_c,9,42,0,,,,,,,,,,,,,,,,,,,,,,,
11,20496, Note_on_c,9,42,103,,,,,,,,,,,,,,,,,,,,,,,
11,20504, Note_on_c,9,42,0,,,,,,,,,,,,,,,,,,,,,,,
11,20544, Note_on_c,9,40,127,,,,,,,,,,,,,,,,,,,,,,,
11,20544, Note_on_c,9,42,95,,,,,,,,,,,,,,,,,,,,,,,
11,20544, Note_on_c,9,54,127,,,,,,,,,,,,,,,,,,,,,,,
11,20552, Note_on_c,9,40,0,,,,,,,,,,,,,,,,,,,,,,,
11,20552, Note_on_c,9,42,0,,,,,,,,,,,,,,,,,,,,,,,
11,20552, Note_on_c,9,54,0,,,,,,,,,,,,,,,,,,,,,,,
11,20592, Note_on_c,9,40,80,,,,,,,,,,,,,,,,,,,,,,,
11,20592, Note_on_c,9,42,99,,,,,,,,,,,,,,,,,,,,,,,
11,20600, Note_on_c,9,40,0,,,,,,,,,,,,,,,,,,,,,,,
11,20600, Note_on_c,9,42,0,,,,,,,,,,,,,,,,,,,,,,,
11,20616, Note_on_c,9,40,75,,,,,,,,,,,,,,,,,,,,,,,
11,20624, Note_on_c,9,40,0,,,,,,,,,,,,,,,,,,,,,,,
11,20640, Note_on_c,9,40,84,,,,,,,,,,,,,,,,,,,,,,,
11,20640, Note_on_c,9,42,112,,,,,,,,,,,,,,,,,,,,,,,
11,20648, Note_on_c,9,40,0,,,,,,,,,,,,,,,,,,,,,,,
11,20648, Note_on_c,9,42,0,,,,,,,,,,,,,,,,,,,,,,,
11,20688, Note_on_c,9,40,89,,,,,,,,,,,,,,,,,,,,,,,
11,20688, Note_on_c,9,42,103,,,,,,,,,,,,,,,,,,,,,,,
11,20696, Note_on_c,9,40,0,,,,,,,,,,,,,,,,,,,,,,,
11,20696, Note_on_c,9,42,0,,,,,,,,,,,,,,,,,,,,,,,
11,20736, Note_on_c,9,36,95,,,,,,,,,,,,,,,,,,,,,,,
11,20736, Note_on_c,9,42,103,,,,,,,,,,,,,,,,,,,,,,,
11,20744, Note_on_c,9,36,0,,,,,,,,,,,,,,,,,,,,,,,
11,20744, Note_on_c,9,42,0,,,,,,,,,,,,,,,,,,,,,,,
11,20784, Note_on_c,9,42,92,,,,,,,,,,,,,,,,,,,,,,,
11,20792, Note_on_c,9,42,0,,,,,,,,,,,,,,,,,,,,,,,
11,20832, Note_on_c,9,36,100,,,,,,,,,,,,,,,,,,,,,,,
11,20832, Note_on_c,9,42,112,,,,,,,,,,,,,,,,,,,,,,,
11,20840, Note_on_c,9,36,0,,,,,,,,,,,,,,,,,,,,,,,
11,20840, Note_on_c,9,42,0,,,,,,,,,,,,,,,,,,,,,,,
11,20880, Note_on_c,9,42,103,,,,,,,,,,,,,,,,,,,,,,,
11,20888, Note_on_c,9,42,0,,,,,,,,,,,,,,,,,,,,,,,
11,20928, Note_on_c,9,40,117,,,,,,,,,,,,,,,,,,,,,,,
11,20928, Note_on_c,9,42,112,,,,,,,,,,,,,,,,,,,,,,,
11,20928, Note_on_c,9,54,112,,,,,,,,,,,,,,,,,,,,,,,
11,20936, Note_on_c,9,40,0,,,,,,,,,,,,,,,,,,,,,,,
11,20936, Note_on_c,9,42,0,,,,,,,,,,,,,,,,,,,,,,,
11,20936, Note_on_c,9,54,0,,,,,,,,,,,,,,,,,,,,,,,
11,20976, Note_on_c,9,42,99,,,,,,,,,,,,,,,,,,,,,,,
11,20984, Note_on_c,9,42,0,,,,,,,,,,,,,,,,,,,,,,,
11,21024, Note_on_c,9,40,117,,,,,,,,,,,,,,,,,,,,,,,
11,21024, Note_on_c,9,42,82,,,,,,,,,,,,,,,,,,,,,,,
11,21032, Note_on_c,9,40,0,,,,,,,,,,,,,,,,,,,,,,,
11,21032, Note_on_c,9,42,0,,,,,,,,,,,,,,,,,,,,,,,
11,21072, Note_on_c,9,40,120,,,,,,,,,,,,,,,,,,,,,,,
11,21072, Note_on_c,9,42,107,,,,,,,,,,,,,,,,,,,,,,,
11,21080, Note_on_c,9,40,0,,,,,,,,,,,,,,,,,,,,,,,
11,21080, Note_on_c,9,42,0,,,,,,,,,,,,,,,,,,,,,,,
11,21120, Note_on_c,9,42,82,,,,,,,,,,,,,,,,,,,,,,,
11,21128, Note_on_c,9,42,0,,,,,,,,,,,,,,,,,,,,,,,
11,21168, Note_on_c,9,40,120,,,,,,,,,,,,,,,,,,,,,,,
11,21168, Note_on_c,9,42,103,,,,,,,,,,,,,,,,,,,,,,,
11,21176, Note_on_c,9,40,0,,,,,,,,,,,,,,,,,,,,,,,
11,21176, Note_on_c,9,42,0,,,,,,,,,,,,,,,,,,,,,,,
11,21216, Note_on_c,9,36,100,,,,,,,,,,,,,,,,,,,,,,,
11,21216, Note_on_c,9,42,112,,,,,,,,,,,,,,,,,,,,,,,
11,21224, Note_on_c,9,36,0,,,,,,,,,,,,,,,,,,,,,,,
11,21224, Note_on_c,9,42,0,,,,,,,,,,,,,,,,,,,,,,,
11,21264, Note_on_c,9,42,107,,,,,,,,,,,,,,,,,,,,,,,
11,21272, Note_on_c,9,42,0,,,,,,,,,,,,,,,,,,,,,,,
11,21312, Note_on_c,9,40,127,,,,,,,,,,,,,,,,,,,,,,,
11,21312, Note_on_c,9,42,112,,,,,,,,,,,,,,,,,,,,,,,
11,21312, Note_on_c,9,54,127,,,,,,,,,,,,,,,,,,,,,,,
11,21320, Note_on_c,9,40,0,,,,,,,,,,,,,,,,,,,,,,,
11,21320, Note_on_c,9,42,0,,,,,,,,,,,,,,,,,,,,,,,
11,21320, Note_on_c,9,54,0,,,,,,,,,,,,,,,,,,,,,,,
11,21360, Note_on_c,9,42,112,,,,,,,,,,,,,,,,,,,,,,,
11,21368, Note_on_c,9,42,0,,,,,,,,,,,,,,,,,,,,,,,
11,21408, Note_on_c,9,40,114,,,,,,,,,,,,,,,,,,,,,,,
11,21408, Note_on_c,9,42,107,,,,,,,,,,,,,,,,,,,,,,,
11,21416, Note_on_c,9,40,0,,,,,,,,,,,,,,,,,,,,,,,
11,21416, Note_on_c,9,42,0,,,,,,,,,,,,,,,,,,,,,,,
11,21456, Note_on_c,9,40,104,,,,,,,,,,,,,,,,,,,,,,,
11,21456, Note_on_c,9,42,112,,,,,,,,,,,,,,,,,,,,,,,
11,21464, Note_on_c,9,40,0,,,,,,,,,,,,,,,,,,,,,,,
11,21464, Note_on_c,9,42,0,,,,,,,,,,,,,,,,,,,,,,,
11,21504, Note_on_c,9,36,95,,,,,,,,,,,,,,,,,,,,,,,
11,21504, Note_on_c,9,42,99,,,,,,,,,,,,,,,,,,,,,,,
11,21512, Note_on_c,9,36,0,,,,,,,,,,,,,,,,,,,,,,,
11,21512, Note_on_c,9,42,0,,,,,,,,,,,,,,,,,,,,,,,
11,21552, Note_on_c,9,42,92,,,,,,,,,,,,,,,,,,,,,,,
11,21560, Note_on_c,9,42,0,,,,,,,,,,,,,,,,,,,,,,,
11,21600, Note_on_c,9,36,100,,,,,,,,,,,,,,,,,,,,,,,
11,21600, Note_on_c,9,42,107,,,,,,,,,,,,,,,,,,,,,,,
11,21608, Note_on_c,9,36,0,,,,,,,,,,,,,,,,,,,,,,,
11,21608, Note_on_c,9,42,0,,,,,,,,,,,,,,,,,,,,,,,
11,21648, Note_on_c,9,42,107,,,,,,,,,,,,,,,,,,,,,,,
11,21656, Note_on_c,9,42,0,,,,,,,,,,,,,,,,,,,,,,,
11,21696, Note_on_c,9,40,127,,,,,,,,,,,,,,,,,,,,,,,
11,21696, Note_on_c,9,42,112,,,,,,,,,,,,,,,,,,,,,,,
11,21696, Note_on_c,9,54,127,,,,,,,,,,,,,,,,,,,,,,,
11,21704, Note_on_c,9,40,0,,,,,,,,,,,,,,,,,,,,,,,
11,21704, Note_on_c,9,42,0,,,,,,,,,,,,,,,,,,,,,,,
11,21704, Note_on_c,9,54,0,,,,,,,,,,,,,,,,,,,,,,,
11,21744, Note_on_c,9,42,103,,,,,,,,,,,,,,,,,,,,,,,
11,21752, Note_on_c,9,42,0,,,,,,,,,,,,,,,,,,,,,,,
11,21792, Note_on_c,9,42,92,,,,,,,,,,,,,,,,,,,,,,,
11,21800, Note_on_c,9,42,0,,,,,,,,,,,,,,,,,,,,,,,
11,21840, Note_on_c,9,40,83,,,,,,,,,,,,,,,,,,,,,,,
11,21840, Note_on_c,9,42,112,,,,,,,,,,,,,,,,,,,,,,,
11,21848, Note_on_c,9,40,0,,,,,,,,,,,,,,,,,,,,,,,
11,21848, Note_on_c,9,42,0,,,,,,,,,,,,,,,,,,,,,,,
11,21888, Note_on_c,9,42,92,,,,,,,,,,,,,,,,,,,,,,,
11,21896, Note_on_c,9,42,0,,,,,,,,,,,,,,,,,,,,,,,
11,21936, Note_on_c,9,40,76,,,,,,,,,,,,,,,,,,,,,,,
11,21936, Note_on_c,9,42,112,,,,,,,,,,,,,,,,,,,,,,,
11,21944, Note_on_c,9,40,0,,,,,,,,,,,,,,,,,,,,,,,
11,21944, Note_on_c,9,42,0,,,,,,,,,,,,,,,,,,,,,,,
11,21984, Note_on_c,9,36,100,,,,,,,,,,,,,,,,,,,,,,,
11,21984, Note_on_c,9,42,112,,,,,,,,,,,,,,,,,,,,,,,
11,21992, Note_on_c,9,36,0,,,,,,,,,,,,,,,,,,,,,,,
11,21992, Note_on_c,9,42,0,,,,,,,,,,,,,,,,,,,,,,,
11,22032, Note_on_c,9,42,103,,,,,,,,,,,,,,,,,,,,,,,
11,22040, Note_on_c,9,42,0,,,,,,,,,,,,,,,,,,,,,,,
11,22080, Note_on_c,9,40,127,,,,,,,,,,,,,,,,,,,,,,,
11,22080, Note_on_c,9,42,107,,,,,,,,,,,,,,,,,,,,,,,
11,22080, Note_on_c,9,54,127,,,,,,,,,,,,,,,,,,,,,,,
11,22088, Note_on_c,9,40,0,,,,,,,,,,,,,,,,,,,,,,,
11,22088, Note_on_c,9,42,0,,,,,,,,,,,,,,,,,,,,,,,
11,22088, Note_on_c,9,54,0,,,,,,,,,,,,,,,,,,,,,,,
11,22128, Note_on_c,9,42,112,,,,,,,,,,,,,,,,,,,,,,,
11,22136, Note_on_c,9,42,0,,,,,,,,,,,,,,,,,,,,,,,
11,22176, Note_on_c,9,42,107,,,,,,,,,,,,,,,,,,,,,,,
11,22184, Note_on_c,9,42,0,,,,,,,,,,,,,,,,,,,,,,,
11,22224, Note_on_c,9,42,112,,,,,,,,,,,,,,,,,,,,,,,
11,22232, Note_on_c,9,42,0,,,,,,,,,,,,,,,,,,,,,,,
11,22272, Note_on_c,9,36,95,,,,,,,,,,,,,,,,,,,,,,,
11,22272, Note_on_c,9,42,107,,,,,,,,,,,,,,,,,,,,,,,
11,22280, Note_on_c,9,36,0,,,,,,,,,,,,,,,,,,,,,,,
11,22280, Note_on_c,9,42,0,,,,,,,,,,,,,,,,,,,,,,,
11,22320, Note_on_c,9,42,103,,,,,,,,,,,,,,,,,,,,,,,
11,22328, Note_on_c,9,42,0,,,,,,,,,,,,,,,,,,,,,,,
11,22368, Note_on_c,9,36,100,,,,,,,,,,,,,,,,,,,,,,,
11,22368, Note_on_c,9,42,107,,,,,,,,,,,,,,,,,,,,,,,
11,22376, Note_on_c,9,36,0,,,,,,,,,,,,,,,,,,,,,,,
11,22376, Note_on_c,9,42,0,,,,,,,,,,,,,,,,,,,,,,,
11,22416, Note_on_c,9,42,112,,,,,,,,,,,,,,,,,,,,,,,
11,22424, Note_on_c,9,42,0,,,,,,,,,,,,,,,,,,,,,,,
11,22464, Note_on_c,9,40,122,,,,,,,,,,,,,,,,,,,,,,,
11,22464, Note_on_c,9,42,127,,,,,,,,,,,,,,,,,,,,,,,
11,22464, Note_on_c,9,54,112,,,,,,,,,,,,,,,,,,,,,,,
11,22472, Note_on_c,9,40,0,,,,,,,,,,,,,,,,,,,,,,,
11,22472, Note_on_c,9,42,0,,,,,,,,,,,,,,,,,,,,,,,
11,22472, Note_on_c,9,54,0,,,,,,,,,,,,,,,,,,,,,,,
11,22512, Note_on_c,9,42,107,,,,,,,,,,,,,,,,,,,,,,,
11,22520, Note_on_c,9,42,0,,,,,,,,,,,,,,,,,,,,,,,
11,22560, Note_on_c,9,40,114,,,,,,,,,,,,,,,,,,,,,,,
11,22560, Note_on_c,9,42,99,,,,,,,,,,,,,,,,,,,,,,,
11,22568, Note_on_c,9,40,0,,,,,,,,,,,,,,,,,,,,,,,
11,22568, Note_on_c,9,42,0,,,,,,,,,,,,,,,,,,,,,,,
11,22608, Note_on_c,9,40,127,,,,,,,,,,,,,,,,,,,,,,,
11,22608, Note_on_c,9,42,127,,,,,,,,,,,,,,,,,,,,,,,
11,22616, Note_on_c,9,40,0,,,,,,,,,,,,,,,,,,,,,,,
11,22616, Note_on_c,9,42,0,,,,,,,,,,,,,,,,,,,,,,,
11,22656, Note_on_c,9,42,95,,,,,,,,,,,,,,,,,,,,,,,
11,22664, Note_on_c,9,42,0,,,,,,,,,,,,,,,,,,,,,,,
11,22704, Note_on_c,9,40,127,,,,,,,,,,,,,,,,,,,,,,,
11,22704, Note_on_c,9,42,112,,,,,,,,,,,,,,,,,,,,,,,
11,22712, Note_on_c,9,40,0,,,,,,,,,,,,,,,,,,,,,,,
11,22712, Note_on_c,9,42,0,,,,,,,,,,,,,,,,,,,,,,,
11,22752, Note_on_c,9,36,100,,,,,,,,,,,,,,,,,,,,,,,
11,22752, Note_on_c,9,40,127,,,,,,,,,,,,,,,,,,,,,,,
11,22752, Note_on_c,9,42,112,,,,,,,,,,,,,,,,,,,,,,,
11,22760, Note_on_c,9,36,0,,,,,,,,,,,,,,,,,,,,,,,
11,22760, Note_on_c,9,40,0,,,,,,,,,,,,,,,,,,,,,,,
11,22760, Note_on_c,9,42,0,,,,,,,,,,,,,,,,,,,,,,,
11,22800, Note_on_c,9,42,112,,,,,,,,,,,,,,,,,,,,,,,
11,22808, Note_on_c,9,42,0,,,,,,,,,,,,,,,,,,,,,,,
11,22848, Note_on_c,9,40,127,,,,,,,,,,,,,,,,,,,,,,,
11,22848, Note_on_c,9,42,107,,,,,,,,,,,,,,,,,,,,,,,
11,22848, Note_on_c,9,54,127,,,,,,,,,,,,,,,,,,,,,,,
11,22856, Note_on_c,9,40,0,,,,,,,,,,,,,,,,,,,,,,,
11,22856, Note_on_c,9,42,0,,,,,,,,,,,,,,,,,,,,,,,
11,22856, Note_on_c,9,54,0,,,,,,,,,,,,,,,,,,,,,,,
11,22896, Note_on_c,9,40,118,,,,,,,,,,,,,,,,,,,,,,,
11,22896, Note_on_c,9,42,112,,,,,,,,,,,,,,,,,,,,,,,
11,22904, Note_on_c,9,40,0,,,,,,,,,,,,,,,,,,,,,,,
11,22904, Note_on_c,9,42,0,,,,,,,,,,,,,,,,,,,,,,,
11,22920, Note_on_c,9,40,110,,,,,,,,,,,,,,,,,,,,,,,
11,22928, Note_on_c,9,40,0,,,,,,,,,,,,,,,,,,,,,,,
11,22944, Note_on_c,9,40,127,,,,,,,,,,,,,,,,,,,,,,,
11,22944, Note_on_c,9,42,112,,,,,,,,,,,,,,,,,,,,,,,
11,22952, Note_on_c,9,40,0,,,,,,,,,,,,,,,,,,,,,,,
11,22952, Note_on_c,9,42,0,,,,,,,,,,,,,,,,,,,,,,,
11,22992, Note_on_c,9,40,118,,,,,,,,,,,,,,,,,,,,,,,
11,22992, Note_on_c,9,42,107,,,,,,,,,,,,,,,,,,,,,,,
11,23000, Note_on_c,9,40,0,,,,,,,,,,,,,,,,,,,,,,,
11,23000, Note_on_c,9,42,0,,,,,,,,,,,,,,,,,,,,,,,
11,23040, Note_on_c,9,36,95,,,,,,,,,,,,,,,,,,,,,,,
11,23040, Note_on_c,9,42,107,,,,,,,,,,,,,,,,,,,,,,,
11,23048, Note_on_c,9,36,0,,,,,,,,,,,,,,,,,,,,,,,
11,23048, Note_on_c,9,42,0,,,,,,,,,,,,,,,,,,,,,,,
11,23088, Note_on_c,9,42,107,,,,,,,,,,,,,,,,,,,,,,,
11,23096, Note_on_c,9,42,0,,,,,,,,,,,,,,,,,,,,,,,
11,23136, Note_on_c,9,36,100,,,,,,,,,,,,,,,,,,,,,,,
11,23136, Note_on_c,9,42,99,,,,,,,,,,,,,,,,,,,,,,,
11,23144, Note_on_c,9,36,0,,,,,,,,,,,,,,,,,,,,,,,
11,23144, Note_on_c,9,42,0,,,,,,,,,,,,,,,,,,,,,,,
11,23184, Note_on_c,9,42,112,,,,,,,,,,,,,,,,,,,,,,,
11,23192, Note_on_c,9,42,0,,,,,,,,,,,,,,,,,,,,,,,
11,23232, Note_on_c,9,40,127,,,,,,,,,,,,,,,,,,,,,,,
11,23232, Note_on_c,9,42,112,,,,,,,,,,,,,,,,,,,,,,,
11,23232, Note_on_c,9,54,127,,,,,,,,,,,,,,,,,,,,,,,
11,23240, Note_on_c,9,40,0,,,,,,,,,,,,,,,,,,,,,,,
11,23240, Note_on_c,9,42,0,,,,,,,,,,,,,,,,,,,,,,,
11,23240, Note_on_c,9,54,0,,,,,,,,,,,,,,,,,,,,,,,
11,23280, Note_on_c,9,42,112,,,,,,,,,,,,,,,,,,,,,,,
11,23288, Note_on_c,9,42,0,,,,,,,,,,,,,,,,,,,,,,,
11,23328, Note_on_c,9,42,99,,,,,,,,,,,,,,,,,,,,,,,
11,23336, Note_on_c,9,42,0,,,,,,,,,,,,,,,,,,,,,,,
11,23376, Note_on_c,9,40,91,,,,,,,,,,,,,,,,,,,,,,,
11,23376, Note_on_c,9,42,112,,,,,,,,,,,,,,,,,,,,,,,
11,23384, Note_on_c,9,40,0,,,,,,,,,,,,,,,,,,,,,,,
11,23384, Note_on_c,9,42,0,,,,,,,,,,,,,,,,,,,,,,,
11,23424, Note_on_c,9,42,92,,,,,,,,,,,,,,,,,,,,,,,
11,23432, Note_on_c,9,42,0,,,,,,,,,,,,,,,,,,,,,,,
11,23472, Note_on_c,9,40,87,,,,,,,,,,,,,,,,,,,,,,,
11,23472, Note_on_c,9,42,112,,,,,,,,,,,,,,,,,,,,,,,
11,23480, Note_on_c,9,40,0,,,,,,,,,,,,,,,,,,,,,,,
11,23480, Note_on_c,9,42,0,,,,,,,,,,,,,,,,,,,,,,,
11,23520, Note_on_c,9,36,100,,,,,,,,,,,,,,,,,,,,,,,
11,23520, Note_on_c,9,42,107,,,,,,,,,,,,,,,,,,,,,,,
11,23528, Note_on_c,9,36,0,,,,,,,,,,,,,,,,,,,,,,,
11,23528, Note_on_c,9,42,0,,,,,,,,,,,,,,,,,,,,,,,
11,23568, Note_on_c,9,42,112,,,,,,,,,,,,,,,,,,,,,,,
11,23576, Note_on_c,9,42,0,,,,,,,,,,,,,,,,,,,,,,,
11,23616, Note_on_c,9,42,112,,,,,,,,,,,,,,,,,,,,,,,
11,23616, Note_on_c,9,54,127,,,,,,,,,,,,,,,,,,,,,,,
11,23624, Note_on_c,9,40,127,,,,,,,,,,,,,,,,,,,,,,,
11,23624, Note_on_c,9,42,0,,,,,,,,,,,,,,,,,,,,,,,
11,23624, Note_on_c,9,54,0,,,,,,,,,,,,,,,,,,,,,,,
11,23632, Note_on_c,9,40,0,,,,,,,,,,,,,,,,,,,,,,,
11,23664, Note_on_c,9,42,107,,,,,,,,,,,,,,,,,,,,,,,
11,23672, Note_on_c,9,42,0,,,,,,,,,,,,,,,,,,,,,,,
11,23712, Note_on_c,9,42,99,,,,,,,,,,,,,,,,,,,,,,,
11,23720, Note_on_c,9,42,0,,,,,,,,,,,,,,,,,,,,,,,
11,23760, Note_on_c,9,40,104,,,,,,,,,,,,,,,,,,,,,,,
11,23760, Note_on_c,9,42,112,,,,,,,,,,,,,,,,,,,,,,,
11,23768, Note_on_c,9,40,0,,,,,,,,,,,,,,,,,,,,,,,
11,23768, Note_on_c,9,42,0,,,,,,,,,,,,,,,,,,,,,,,
11,23808, Note_on_c,9,36,127,,,,,,,,,,,,,,,,,,,,,,,
11,23808, Note_on_c,9,42,107,,,,,,,,,,,,,,,,,,,,,,,
11,23808, Note_on_c,9,49,82,,,,,,,,,,,,,,,,,,,,,,,
11,23816, Note_on_c,9,36,0,,,,,,,,,,,,,,,,,,,,,,,
11,23816, Note_on_c,9,42,0,,,,,,,,,,,,,,,,,,,,,,,
11,23816, Note_on_c,9,49,0,,,,,,,,,,,,,,,,,,,,,,,
11,23856, Note_on_c,9,42,107,,,,,,,,,,,,,,,,,,,,,,,
11,23864, Note_on_c,9,42,0,,,,,,,,,,,,,,,,,,,,,,,
11,23904, Note_on_c,9,42,99,,,,,,,,,,,,,,,,,,,,,,,
11,23912, Note_on_c,9,42,0,,,,,,,,,,,,,,,,,,,,,,,
11,23952, Note_on_c,9,40,127,,,,,,,,,,,,,,,,,,,,,,,
11,23952, Note_on_c,9,42,112,,,,,,,,,,,,,,,,,,,,,,,
11,23960, Note_on_c,9,40,0,,,,,,,,,,,,,,,,,,,,,,,
11,23960, Note_on_c,9,42,0,,,,,,,,,,,,,,,,,,,,,,,
11,24000, Note_on_c,9,36,114,,,,,,,,,,,,,,,,,,,,,,,
11,24000, Note_on_c,9,42,112,,,,,,,,,,,,,,,,,,,,,,,
11,24000, Note_on_c,9,49,82,,,,,,,,,,,,,,,,,,,,,,,
11,24000, Note_on_c,9,54,127,,,,,,,,,,,,,,,,,,,,,,,
11,24008, Note_on_c,9,36,0,,,,,,,,,,,,,,,,,,,,,,,
11,24008, Note_on_c,9,42,0,,,,,,,,,,,,,,,,,,,,,,,
11,24008, Note_on_c,9,49,0,,,,,,,,,,,,,,,,,,,,,,,
11,24008, Note_on_c,9,54,0,,,,,,,,,,,,,,,,,,,,,,,
11,24048, Note_on_c,9,42,112,,,,,,,,,,,,,,,,,,,,,,,
11,24056, Note_on_c,9,42,0,,,,,,,,,,,,,,,,,,,,,,,
11,24096, Note_on_c,9,42,95,,,,,,,,,,,,,,,,,,,,,,,
11,24104, Note_on_c,9,42,0,,,,,,,,,,,,,,,,,,,,,,,
11,24144, Note_on_c,9,40,127,,,,,,,,,,,,,,,,,,,,,,,
11,24144, Note_on_c,9,42,107,,,,,,,,,,,,,,,,,,,,,,,
11,24152, Note_on_c,9,40,0,,,,,,,,,,,,,,,,,,,,,,,
11,24152, Note_on_c,9,42,0,,,,,,,,,,,,,,,,,,,,,,,
11,24192, Note_on_c,9,36,101,,,,,,,,,,,,,,,,,,,,,,,
11,24192, Note_on_c,9,42,95,,,,,,,,,,,,,,,,,,,,,,,
11,24192, Note_on_c,9,49,82,,,,,,,,,,,,,,,,,,,,,,,
11,24200, Note_on_c,9,36,0,,,,,,,,,,,,,,,,,,,,,,,
11,24200, Note_on_c,9,42,0,,,,,,,,,,,,,,,,,,,,,,,
11,24200, Note_on_c,9,49,0,,,,,,,,,,,,,,,,,,,,,,,
11,24240, Note_on_c,9,42,107,,,,,,,,,,,,,,,,,,,,,,,
11,24248, Note_on_c,9,42,0,,,,,,,,,,,,,,,,,,,,,,,
11,24288, Note_on_c,9,40,127,,,,,,,,,,,,,,,,,,,,,,,
11,24288, Note_on_c,9,42,107,,,,,,,,,,,,,,,,,,,,,,,
11,24296, Note_on_c,9,40,0,,,,,,,,,,,,,,,,,,,,,,,
11,24296, Note_on_c,9,42,0,,,,,,,,,,,,,,,,,,,,,,,
11,24336, Note_on_c,9,40,127,,,,,,,,,,,,,,,,,,,,,,,
11,24336, Note_on_c,9,42,107,,,,,,,,,,,,,,,,,,,,,,,
11,24344, Note_on_c,9,40,0,,,,,,,,,,,,,,,,,,,,,,,
11,24344, Note_on_c,9,42,0,,,,,,,,,,,,,,,,,,,,,,,
11,24384, Note_on_c,9,40,127,,,,,,,,,,,,,,,,,,,,,,,
11,24384, Note_on_c,9,42,103,,,,,,,,,,,,,,,,,,,,,,,
11,24384, Note_on_c,9,49,78,,,,,,,,,,,,,,,,,,,,,,,
11,24384, Note_on_c,9,54,112,,,,,,,,,,,,,,,,,,,,,,,
11,24392, Note_on_c,9,40,0,,,,,,,,,,,,,,,,,,,,,,,
11,24392, Note_on_c,9,42,0,,,,,,,,,,,,,,,,,,,,,,,
11,24392, Note_on_c,9,49,0,,,,,,,,,,,,,,,,,,,,,,,
11,24392, Note_on_c,9,54,0,,,,,,,,,,,,,,,,,,,,,,,
11,24432, Note_on_c,9,42,107,,,,,,,,,,,,,,,,,,,,,,,
11,24440, Note_on_c,9,42,0,,,,,,,,,,,,,,,,,,,,,,,
11,24480, Note_on_c,9,40,127,,,,,,,,,,,,,,,,,,,,,,,
11,24480, Note_on_c,9,42,107,,,,,,,,,,,,,,,,,,,,,,,
11,24488, Note_on_c,9,40,0,,,,,,,,,,,,,,,,,,,,,,,
11,24488, Note_on_c,9,42,0,,,,,,,,,,,,,,,,,,,,,,,
11,24528, Note_on_c,9,40,127,,,,,,,,,,,,,,,,,,,,,,,
11,24528, Note_on_c,9,42,107,,,,,,,,,,,,,,,,,,,,,,,
11,24536, Note_on_c,9,40,0,,,,,,,,,,,,,,,,,,,,,,,
11,24536, Note_on_c,9,42,0,,,,,,,,,,,,,,,,,,,,,,,
11,24576, Note_on_c,9,36,127,,,,,,,,,,,,,,,,,,,,,,,
11,24576, Note_on_c,9,42,103,,,,,,,,,,,,,,,,,,,,,,,
11,24584, Note_on_c,9,36,0,,,,,,,,,,,,,,,,,,,,,,,
11,24584, Note_on_c,9,42,0,,,,,,,,,,,,,,,,,,,,,,,
11,24624, Note_on_c,9,40,83,,,,,,,,,,,,,,,,,,,,,,,
11,24624, Note_on_c,9,42,103,,,,,,,,,,,,,,,,,,,,,,,
11,24632, Note_on_c,9,40,0,,,,,,,,,,,,,,,,,,,,,,,
11,24632, Note_on_c,9,42,0,,,,,,,,,,,,,,,,,,,,,,,
11,24672, Note_on_c,9,36,127,,,,,,,,,,,,,,,,,,,,,,,
11,24672, Note_on_c,9,40,85,,,,,,,,,,,,,,,,,,,,,,,
11,24672, Note_on_c,9,42,103,,,,,,,,,,,,,,,,,,,,,,,
11,24680, Note_on_c,9,36,0,,,,,,,,,,,,,,,,,,,,,,,
11,24680, Note_on_c,9,40,0,,,,,,,,,,,,,,,,,,,,,,,
11,24680, Note_on_c,9,42,0,,,,,,,,,,,,,,,,,,,,,,,
11,24720, Note_on_c,9,42,112,,,,,,,,,,,,,,,,,,,,,,,
11,24728, Note_on_c,9,42,0,,,,,,,,,,,,,,,,,,,,,,,
11,24768, Note_on_c,9,40,127,,,,,,,,,,,,,,,,,,,,,,,
11,24768, Note_on_c,9,42,107,,,,,,,,,,,,,,,,,,,,,,,
11,24768, Note_on_c,9,54,127,,,,,,,,,,,,,,,,,,,,,,,
11,24776, Note_on_c,9,40,0,,,,,,,,,,,,,,,,,,,,,,,
11,24776, Note_on_c,9,42,0,,,,,,,,,,,,,,,,,,,,,,,
11,24776, Note_on_c,9,54,0,,,,,,,,,,,,,,,,,,,,,,,
11,24816, Note_on_c,9,42,107,,,,,,,,,,,,,,,,,,,,,,,
11,24824, Note_on_c,9,42,0,,,,,,,,,,,,,,,,,,,,,,,
11,24864, Note_on_c,9,42,103,,,,,,,,,,,,,,,,,,,,,,,
11,24872, Note_on_c,9,42,0,,,,,,,,,,,,,,,,,,,,,,,
11,24912, Note_on_c,9,40,122,,,,,,,,,,,,,,,,,,,,,,,
11,24912, Note_on_c,9,42,107,,,,,,,,,,,,,,,,,,,,,,,
11,24920, Note_on_c,9,40,0,,,,,,,,,,,,,,,,,,,,,,,
11,24920, Note_on_c,9,42,0,,,,,,,,,,,,,,,,,,,,,,,
11,24960, Note_on_c,9,42,88,,,,,,,,,,,,,,,,,,,,,,,
11,24968, Note_on_c,9,42,0,,,,,,,,,,,,,,,,,,,,,,,
11,25008, Note_on_c,9,40,122,,,,,,,,,,,,,,,,,,,,,,,
11,25008, Note_on_c,9,42,107,,,,,,,,,,,,,,,,,,,,,,,
11,25016, Note_on_c,9,40,0,,,,,,,,,,,,,,,,,,,,,,,
11,25016, Note_on_c,9,42,0,,,,,,,,,,,,,,,,,,,,,,,
11,25056, Note_on_c,9,36,127,,,,,,,,,,,,,,,,,,,,,,,
11,25056, Note_on_c,9,40,114,,,,,,,,,,,,,,,,,,,,,,,
11,25056, Note_on_c,9,42,107,,,,,,,,,,,,,,,,,,,,,,,
11,25064, Note_on_c,9,36,0,,,,,,,,,,,,,,,,,,,,,,,
11,25064, Note_on_c,9,40,0,,,,,,,,,,,,,,,,,,,,,,,
11,25064, Note_on_c,9,42,0,,,,,,,,,,,,,,,,,,,,,,,
11,25104, Note_on_c,9,42,103,,,,,,,,,,,,,,,,,,,,,,,
11,25112, Note_on_c,9,42,0,,,,,,,,,,,,,,,,,,,,,,,
11,25152, Note_on_c,9,40,127,,,,,,,,,,,,,,,,,,,,,,,
11,25152, Note_on_c,9,42,103,,,,,,,,,,,,,,,,,,,,,,,
11,25152, Note_on_c,9,54,127,,,,,,,,,,,,,,,,,,,,,,,
11,25160, Note_on_c,9,40,0,,,,,,,,,,,,,,,,,,,,,,,
11,25160, Note_on_c,9,42,0,,,,,,,,,,,,,,,,,,,,,,,
11,25160, Note_on_c,9,54,0,,,,,,,,,,,,,,,,,,,,,,,
11,25200, Note_on_c,9,36,127,,,,,,,,,,,,,,,,,,,,,,,
11,25200, Note_on_c,9,42,107,,,,,,,,,,,,,,,,,,,,,,,
11,25208, Note_on_c,9,36,0,,,,,,,,,,,,,,,,,,,,,,,
11,25208, Note_on_c,9,42,0,,,,,,,,,,,,,,,,,,,,,,,
11,25248, Note_on_c,9,40,127,,,,,,,,,,,,,,,,,,,,,,,
11,25248, Note_on_c,9,42,103,,,,,,,,,,,,,,,,,,,,,,,
11,25256, Note_on_c,9,40,0,,,,,,,,,,,,,,,,,,,,,,,
11,25256, Note_on_c,9,42,0,,,,,,,,,,,,,,,,,,,,,,,
11,25296, Note_on_c,9,42,112,,,,,,,,,,,,,,,,,,,,,,,
11,25304, Note_on_c,9,42,0,,,,,,,,,,,,,,,,,,,,,,,
11,25344, Note_on_c,9,42,103,,,,,,,,,,,,,,,,,,,,,,,
11,25352, Note_on_c,9,42,0,,,,,,,,,,,,,,,,,,,,,,,
11,25392, Note_on_c,9,40,127,,,,,,,,,,,,,,,,,,,,,,,
11,25392, Note_on_c,9,42,92,,,,,,,,,,,,,,,,,,,,,,,
11,25400, Note_on_c,9,40,0,,,,,,,,,,,,,,,,,,,,,,,
11,25400, Note_on_c,9,42,0,,,,,,,,,,,,,,,,,,,,,,,
11,25440, Note_on_c,9,36,127,,,,,,,,,,,,,,,,,,,,,,,
11,25440, Note_on_c,9,42,95,,,,,,,,,,,,,,,,,,,,,,,
11,25448, Note_on_c,9,36,0,,,,,,,,,,,,,,,,,,,,,,,
11,25448, Note_on_c,9,42,0,,,,,,,,,,,,,,,,,,,,,,,
11,25488, Note_on_c,9,42,88,,,,,,,,,,,,,,,,,,,,,,,
11,25496, Note_on_c,9,42,0,,,,,,,,,,,,,,,,,,,,,,,
11,25536, Note_on_c,9,40,127,,,,,,,,,,,,,,,,,,,,,,,
11,25536, Note_on_c,9,44,107,,,,,,,,,,,,,,,,,,,,,,,
11,25536, Note_on_c,9,54,112,,,,,,,,,,,,,,,,,,,,,,,
11,25544, Note_on_c,9,40,0,,,,,,,,,,,,,,,,,,,,,,,
11,25544, Note_on_c,9,44,0,,,,,,,,,,,,,,,,,,,,,,,
11,25544, Note_on_c,9,54,0,,,,,,,,,,,,,,,,,,,,,,,
11,25584, Note_on_c,9,42,82,,,,,,,,,,,,,,,,,,,,,,,
11,25592, Note_on_c,9,42,0,,,,,,,,,,,,,,,,,,,,,,,
11,25632, Note_on_c,9,36,101,,,,,,,,,,,,,,,,,,,,,,,
11,25632, Note_on_c,9,42,107,,,,,,,,,,,,,,,,,,,,,,,
11,25640, Note_on_c,9,36,0,,,,,,,,,,,,,,,,,,,,,,,
11,25640, Note_on_c,9,42,0,,,,,,,,,,,,,,,,,,,,,,,
11,25680, Note_on_c,9,40,127,,,,,,,,,,,,,,,,,,,,,,,
11,25680, Note_on_c,9,42,88,,,,,,,,,,,,,,,,,,,,,,,
11,25688, Note_on_c,9,40,0,,,,,,,,,,,,,,,,,,,,,,,
11,25688, Note_on_c,9,42,0,,,,,,,,,,,,,,,,,,,,,,,
11,25728, Note_on_c,9,42,103,,,,,,,,,,,,,,,,,,,,,,,
11,25736, Note_on_c,9,42,0,,,,,,,,,,,,,,,,,,,,,,,
11,25776, Note_on_c,9,40,127,,,,,,,,,,,,,,,,,,,,,,,
11,25776, Note_on_c,9,42,88,,,,,,,,,,,,,,,,,,,,,,,
11,25784, Note_on_c,9,40,0,,,,,,,,,,,,,,,,,,,,,,,
11,25784, Note_on_c,9,42,0,,,,,,,,,,,,,,,,,,,,,,,
11,25824, Note_on_c,9,36,101,,,,,,,,,,,,,,,,,,,,,,,
11,25824, Note_on_c,9,40,127,,,,,,,,,,,,,,,,,,,,,,,
11,25824, Note_on_c,9,42,107,,,,,,,,,,,,,,,,,,,,,,,
11,25832, Note_on_c,9,36,0,,,,,,,,,,,,,,,,,,,,,,,
11,25832, Note_on_c,9,40,0,,,,,,,,,,,,,,,,,,,,,,,
11,25832, Note_on_c,9,42,0,,,,,,,,,,,,,,,,,,,,,,,
11,25872, Note_on_c,9,40,127,,,,,,,,,,,,,,,,,,,,,,,
11,25872, Note_on_c,9,42,95,,,,,,,,,,,,,,,,,,,,,,,
11,25880, Note_on_c,9,40,0,,,,,,,,,,,,,,,,,,,,,,,
11,25880, Note_on_c,9,42,0,,,,,,,,,,,,,,,,,,,,,,,
11,25920, Note_on_c,9,40,127,,,,,,,,,,,,,,,,,,,,,,,
11,25920, Note_on_c,9,44,99,,,,,,,,,,,,,,,,,,,,,,,
11,25920, Note_on_c,9,54,112,,,,,,,,,,,,,,,,,,,,,,,
11,25928, Note_on_c,9,40,0,,,,,,,,,,,,,,,,,,,,,,,
11,25928, Note_on_c,9,44,0,,,,,,,,,,,,,,,,,,,,,,,
11,25928, Note_on_c,9,54,0,,,,,,,,,,,,,,,,,,,,,,,
11,25968, Note_on_c,9,40,127,,,,,,,,,,,,,,,,,,,,,,,
11,25968, Note_on_c,9,42,95,,,,,,,,,,,,,,,,,,,,,,,
11,25976, Note_on_c,9,40,0,,,,,,,,,,,,,,,,,,,,,,,
11,25976, Note_on_c,9,42,0,,,,,,,,,,,,,,,,,,,,,,,
11,26016, Note_on_c,9,40,127,,,,,,,,,,,,,,,,,,,,,,,
11,26016, Note_on_c,9,42,103,,,,,,,,,,,,,,,,,,,,,,,
11,26024, Note_on_c,9,40,0,,,,,,,,,,,,,,,,,,,,,,,
11,26024, Note_on_c,9,42,0,,,,,,,,,,,,,,,,,,,,,,,
11,26064, Note_on_c,9,42,99,,,,,,,,,,,,,,,,,,,,,,,
11,26072, Note_on_c,9,42,0,,,,,,,,,,,,,,,,,,,,,,,
11,26112, Note_on_c,9,36,86,,,,,,,,,,,,,,,,,,,,,,,
11,26112, Note_on_c,9,49,99,,,,,,,,,,,,,,,,,,,,,,,
11,26112, Note_on_c,9,54,112,,,,,,,,,,,,,,,,,,,,,,,
11,26120, Note_on_c,9,36,0,,,,,,,,,,,,,,,,,,,,,,,
11,26120, Note_on_c,9,49,0,,,,,,,,,,,,,,,,,,,,,,,
11,26120, Note_on_c,9,54,0,,,,,,,,,,,,,,,,,,,,,,,
11,26160, Note_on_c,9,54,41,,,,,,,,,,,,,,,,,,,,,,,
11,26168, Note_on_c,9,54,0,,,,,,,,,,,,,,,,,,,,,,,
11,26208, Note_on_c,9,36,94,,,,,,,,,,,,,,,,,,,,,,,
11,26208, Note_on_c,9,54,88,,,,,,,,,,,,,,,,,,,,,,,
11,26216, Note_on_c,9,36,0,,,,,,,,,,,,,,,,,,,,,,,
11,26216, Note_on_c,9,54,0,,,,,,,,,,,,,,,,,,,,,,,
11,26256, Note_on_c,9,54,53,,,,,,,,,,,,,,,,,,,,,,,
11,26264, Note_on_c,9,54,0,,,,,,,,,,,,,,,,,,,,,,,
11,26304, Note_on_c,9,40,127,,,,,,,,,,,,,,,,,,,,,,,
11,26304, Note_on_c,9,51,107,,,,,,,,,,,,,,,,,,,,,,,
11,26304, Note_on_c,9,54,112,,,,,,,,,,,,,,,,,,,,,,,
11,26312, Note_on_c,9,40,0,,,,,,,,,,,,,,,,,,,,,,,
11,26312, Note_on_c,9,51,0,,,,,,,,,,,,,,,,,,,,,,,
11,26312, Note_on_c,9,54,0,,,,,,,,,,,,,,,,,,,,,,,
11,26352, Note_on_c,9,54,46,,,,,,,,,,,,,,,,,,,,,,,
11,26360, Note_on_c,9,54,0,,,,,,,,,,,,,,,,,,,,,,,
11,26400, Note_on_c,9,54,66,,,,,,,,,,,,,,,,,,,,,,,
11,26408, Note_on_c,9,54,0,,,,,,,,,,,,,,,,,,,,,,,
11,26448, Note_on_c,9,40,104,,,,,,,,,,,,,,,,,,,,,,,
11,26448, Note_on_c,9,54,57,,,,,,,,,,,,,,,,,,,,,,,
11,26456, Note_on_c,9,40,0,,,,,,,,,,,,,,,,,,,,,,,
11,26456, Note_on_c,9,54,0,,,,,,,,,,,,,,,,,,,,,,,
11,26496, Note_on_c,9,36,90,,,,,,,,,,,,,,,,,,,,,,,
11,26496, Note_on_c,9,51,88,,,,,,,,,,,,,,,,,,,,,,,
11,26496, Note_on_c,9,54,112,,,,,,,,,,,,,,,,,,,,,,,
11,26504, Note_on_c,9,36,0,,,,,,,,,,,,,,,,,,,,,,,
11,26504, Note_on_c,9,51,0,,,,,,,,,,,,,,,,,,,,,,,
11,26504, Note_on_c,9,54,0,,,,,,,,,,,,,,,,,,,,,,,
11,26544, Note_on_c,9,40,127,,,,,,,,,,,,,,,,,,,,,,,
11,26544, Note_on_c,9,54,67,,,,,,,,,,,,,,,,,,,,,,,
11,26552, Note_on_c,9,40,0,,,,,,,,,,,,,,,,,,,,,,,
11,26552, Note_on_c,9,54,0,,,,,,,,,,,,,,,,,,,,,,,
11,26592, Note_on_c,9,36,90,,,,,,,,,,,,,,,,,,,,,,,
11,26592, Note_on_c,9,51,92,,,,,,,,,,,,,,,,,,,,,,,
11,26592, Note_on_c,9,54,78,,,,,,,,,,,,,,,,,,,,,,,
11,26600, Note_on_c,9,36,0,,,,,,,,,,,,,,,,,,,,,,,
11,26600, Note_on_c,9,51,0,,,,,,,,,,,,,,,,,,,,,,,
11,26600, Note_on_c,9,54,0,,,,,,,,,,,,,,,,,,,,,,,
11,26640, Note_on_c,9,54,66,,,,,,,,,,,,,,,,,,,,,,,
11,26648, Note_on_c,9,54,0,,,,,,,,,,,,,,,,,,,,,,,
11,26688, Note_on_c,9,40,127,,,,,,,,,,,,,,,,,,,,,,,
11,26688, Note_on_c,9,51,112,,,,,,,,,,,,,,,,,,,,,,,
11,26688, Note_on_c,9,54,112,,,,,,,,,,,,,,,,,,,,,,,
11,26696, Note_on_c,9,40,0,,,,,,,,,,,,,,,,,,,,,,,
11,26696, Note_on_c,9,51,0,,,,,,,,,,,,,,,,,,,,,,,
11,26696, Note_on_c,9,54,0,,,,,,,,,,,,,,,,,,,,,,,
11,26736, Note_on_c,9,40,72,,,,,,,,,,,,,,,,,,,,,,,
11,26736, Note_on_c,9,54,57,,,,,,,,,,,,,,,,,,,,,,,
11,26744, Note_on_c,9,40,0,,,,,,,,,,,,,,,,,,,,,,,
11,26744, Note_on_c,9,54,0,,,,,,,,,,,,,,,,,,,,,,,
11,26760, Note_on_c,9,40,66,,,,,,,,,,,,,,,,,,,,,,,
11,26768, Note_on_c,9,40,0,,,,,,,,,,,,,,,,,,,,,,,
11,26784, Note_on_c,9,40,76,,,,,,,,,,,,,,,,,,,,,,,
11,26784, Note_on_c,9,51,64,,,,,,,,,,,,,,,,,,,,,,,
11,26784, Note_on_c,9,54,80,,,,,,,,,,,,,,,,,,,,,,,
11,26792, Note_on_c,9,40,0,,,,,,,,,,,,,,,,,,,,,,,
11,26792, Note_on_c,9,51,0,,,,,,,,,,,,,,,,,,,,,,,
11,26792, Note_on_c,9,54,0,,,,,,,,,,,,,,,,,,,,,,,
11,26832, Note_on_c,9,40,66,,,,,,,,,,,,,,,,,,,,,,,
11,26832, Note_on_c,9,54,57,,,,,,,,,,,,,,,,,,,,,,,
11,26840, Note_on_c,9,40,0,,,,,,,,,,,,,,,,,,,,,,,
11,26840, Note_on_c,9,54,0,,,,,,,,,,,,,,,,,,,,,,,
11,26880, Note_on_c,9,36,86,,,,,,,,,,,,,,,,,,,,,,,
11,26880, Note_on_c,9,54,112,,,,,,,,,,,,,,,,,,,,,,,
11,26888, Note_on_c,9,36,0,,,,,,,,,,,,,,,,,,,,,,,
11,26888, Note_on_c,9,54,0,,,,,,,,,,,,,,,,,,,,,,,
11,26928, Note_on_c,9,54,44,,,,,,,,,,,,,,,,,,,,,,,
11,26936, Note_on_c,9,54,0,,,,,,,,,,,,,,,,,,,,,,,
11,26976, Note_on_c,9,36,94,,,,,,,,,,,,,,,,,,,,,,,
11,26976, Note_on_c,9,54,64,,,,,,,,,,,,,,,,,,,,,,,
11,26984, Note_on_c,9,36,0,,,,,,,,,,,,,,,,,,,,,,,
11,26984, Note_on_c,9,54,0,,,,,,,,,,,,,,,,,,,,,,,
11,27024, Note_on_c,9,54,52,,,,,,,,,,,,,,,,,,,,,,,
11,27032, Note_on_c,9,54,0,,,,,,,,,,,,,,,,,,,,,,,
11,27072, Note_on_c,9,40,127,,,,,,,,,,,,,,,,,,,,,,,
11,27072, Note_on_c,9,51,107,,,,,,,,,,,,,,,,,,,,,,,
11,27072, Note_on_c,9,54,112,,,,,,,,,,,,,,,,,,,,,,,
11,27080, Note_on_c,9,40,0,,,,,,,,,,,,,,,,,,,,,,,
11,27080, Note_on_c,9,51,0,,,,,,,,,,,,,,,,,,,,,,,
11,27080, Note_on_c,9,54,0,,,,,,,,,,,,,,,,,,,,,,,
11,27120, Note_on_c,9,54,44,,,,,,,,,,,,,,,,,,,,,,,
11,27128, Note_on_c,9,54,0,,,,,,,,,,,,,,,,,,,,,,,
11,27168, Note_on_c,9,54,67,,,,,,,,,,,,,,,,,,,,,,,
11,27176, Note_on_c,9,54,0,,,,,,,,,,,,,,,,,,,,,,,
11,27216, Note_on_c,9,40,104,,,,,,,,,,,,,,,,,,,,,,,
11,27216, Note_on_c,9,54,50,,,,,,,,,,,,,,,,,,,,,,,
11,27224, Note_on_c,9,40,0,,,,,,,,,,,,,,,,,,,,,,,
11,27224, Note_on_c,9,54,0,,,,,,,,,,,,,,,,,,,,,,,
11,27264, Note_on_c,9,36,90,,,,,,,,,,,,,,,,,,,,,,,
11,27264, Note_on_c,9,51,88,,,,,,,,,,,,,,,,,,,,,,,
11,27264, Note_on_c,9,54,112,,,,,,,,,,,,,,,,,,,,,,,
11,27272, Note_on_c,9,36,0,,,,,,,,,,,,,,,,,,,,,,,
11,27272, Note_on_c,9,51,0,,,,,,,,,,,,,,,,,,,,,,,
11,27272, Note_on_c,9,54,0,,,,,,,,,,,,,,,,,,,,,,,
11,27312, Note_on_c,9,40,127,,,,,,,,,,,,,,,,,,,,,,,
11,27312, Note_on_c,9,54,51,,,,,,,,,,,,,,,,,,,,,,,
11,27320, Note_on_c,9,40,0,,,,,,,,,,,,,,,,,,,,,,,
11,27320, Note_on_c,9,54,0,,,,,,,,,,,,,,,,,,,,,,,
11,27360, Note_on_c,9,36,90,,,,,,,,,,,,,,,,,,,,,,,
11,27360, Note_on_c,9,51,92,,,,,,,,,,,,,,,,,,,,,,,
11,27360, Note_on_c,9,54,86,,,,,,,,,,,,,,,,,,,,,,,
11,27368, Note_on_c,9,36,0,,,,,,,,,,,,,,,,,,,,,,,
11,27368, Note_on_c,9,51,0,,,,,,,,,,,,,,,,,,,,,,,
11,27368, Note_on_c,9,54,0,,,,,,,,,,,,,,,,,,,,,,,
11,27408, Note_on_c,9,54,70,,,,,,,,,,,,,,,,,,,,,,,
11,27416, Note_on_c,9,54,0,,,,,,,,,,,,,,,,,,,,,,,
11,27456, Note_on_c,9,40,127,,,,,,,,,,,,,,,,,,,,,,,
11,27456, Note_on_c,9,51,112,,,,,,,,,,,,,,,,,,,,,,,
11,27456, Note_on_c,9,54,112,,,,,,,,,,,,,,,,,,,,,,,
11,27464, Note_on_c,9,40,0,,,,,,,,,,,,,,,,,,,,,,,
11,27464, Note_on_c,9,51,0,,,,,,,,,,,,,,,,,,,,,,,
11,27464, Note_on_c,9,54,0,,,,,,,,,,,,,,,,,,,,,,,
11,27504, Note_on_c,9,40,72,,,,,,,,,,,,,,,,,,,,,,,
11,27504, Note_on_c,9,54,58,,,,,,,,,,,,,,,,,,,,,,,
11,27512, Note_on_c,9,40,0,,,,,,,,,,,,,,,,,,,,,,,
11,27512, Note_on_c,9,54,0,,,,,,,,,,,,,,,,,,,,,,,
11,27528, Note_on_c,9,40,66,,,,,,,,,,,,,,,,,,,,,,,
11,27536, Note_on_c,9,40,0,,,,,,,,,,,,,,,,,,,,,,,
11,27552, Note_on_c,9,40,76,,,,,,,,,,,,,,,,,,,,,,,
11,27552, Note_on_c,9,51,64,,,,,,,,,,,,,,,,,,,,,,,
11,27552, Note_on_c,9,54,61,,,,,,,,,,,,,,,,,,,,,,,
11,27560, Note_on_c,9,40,0,,,,,,,,,,,,,,,,,,,,,,,
11,27560, Note_on_c,9,51,0,,,,,,,,,,,,,,,,,,,,,,,
11,27560, Note_on_c,9,54,0,,,,,,,,,,,,,,,,,,,,,,,
11,27600, Note_on_c,9,40,66,,,,,,,,,,,,,,,,,,,,,,,
11,27600, Note_on_c,9,54,64,,,,,,,,,,,,,,,,,,,,,,,
11,27608, Note_on_c,9,40,0,,,,,,,,,,,,,,,,,,,,,,,
11,27608, Note_on_c,9,54,0,,,,,,,,,,,,,,,,,,,,,,,
11,27648, Note_on_c,9,36,94,,,,,,,,,,,,,,,,,,,,,,,
11,27648, Note_on_c,9,49,73,,,,,,,,,,,,,,,,,,,,,,,
11,27648, Note_on_c,9,51,107,,,,,,,,,,,,,,,,,,,,,,,
11,27648, Note_on_c,9,54,112,,,,,,,,,,,,,,,,,,,,,,,
11,27656, Note_on_c,9,36,0,,,,,,,,,,,,,,,,,,,,,,,
11,27656, Note_on_c,9,49,0,,,,,,,,,,,,,,,,,,,,,,,
11,27656, Note_on_c,9,51,0,,,,,,,,,,,,,,,,,,,,,,,
11,27656, Note_on_c,9,54,0,,,,,,,,,,,,,,,,,,,,,,,
11,27696, Note_on_c,9,54,74,,,,,,,,,,,,,,,,,,,,,,,
11,27704, Note_on_c,9,54,0,,,,,,,,,,,,,,,,,,,,,,,
11,27744, Note_on_c,9,36,94,,,,,,,,,,,,,,,,,,,,,,,
11,27744, Note_on_c,9,51,58,,,,,,,,,,,,,,,,,,,,,,,
11,27744, Note_on_c,9,54,61,,,,,,,,,,,,,,,,,,,,,,,
11,27752, Note_on_c,9,36,0,,,,,,,,,,,,,,,,,,,,,,,
11,27752, Note_on_c,9,51,0,,,,,,,,,,,,,,,,,,,,,,,
11,27752, Note_on_c,9,54,0,,,,,,,,,,,,,,,,,,,,,,,
11,27792, Note_on_c,9,54,56,,,,,,,,,,,,,,,,,,,,,,,
11,27800, Note_on_c,9,54,0,,,,,,,,,,,,,,,,,,,,,,,
11,27840, Note_on_c,9,40,127,,,,,,,,,,,,,,,,,,,,,,,
11,27840, Note_on_c,9,51,112,,,,,,,,,,,,,,,,,,,,,,,
11,27840, Note_on_c,9,54,112,,,,,,,,,,,,,,,,,,,,,,,
11,27848, Note_on_c,9,40,0,,,,,,,,,,,,,,,,,,,,,,,
11,27848, Note_on_c,9,51,0,,,,,,,,,,,,,,,,,,,,,,,
11,27848, Note_on_c,9,54,0,,,,,,,,,,,,,,,,,,,,,,,
11,27888, Note_on_c,9,54,67,,,,,,,,,,,,,,,,,,,,,,,
11,27896, Note_on_c,9,54,0,,,,,,,,,,,,,,,,,,,,,,,
11,27936, Note_on_c,9,51,78,,,,,,,,,,,,,,,,,,,,,,,
11,27936, Note_on_c,9,54,70,,,,,,,,,,,,,,,,,,,,,,,
11,27944, Note_on_c,9,51,0,,,,,,,,,,,,,,,,,,,,,,,
11,27944, Note_on_c,9,54,0,,,,,,,,,,,,,,,,,,,,,,,
11,27984, Note_on_c,9,40,107,,,,,,,,,,,,,,,,,,,,,,,
11,27984, Note_on_c,9,54,66,,,,,,,,,,,,,,,,,,,,,,,
11,27992, Note_on_c,9,40,0,,,,,,,,,,,,,,,,,,,,,,,
11,27992, Note_on_c,9,54,0,,,,,,,,,,,,,,,,,,,,,,,
11,28032, Note_on_c,9,36,99,,,,,,,,,,,,,,,,,,,,,,,
11,28032, Note_on_c,9,51,64,,,,,,,,,,,,,,,,,,,,,,,
11,28032, Note_on_c,9,54,112,,,,,,,,,,,,,,,,,,,,,,,
11,28040, Note_on_c,9,36,0,,,,,,,,,,,,,,,,,,,,,,,
11,28040, Note_on_c,9,51,0,,,,,,,,,,,,,,,,,,,,,,,
11,28040, Note_on_c,9,54,0,,,,,,,,,,,,,,,,,,,,,,,
11,28080, Note_on_c,9,40,127,,,,,,,,,,,,,,,,,,,,,,,
11,28080, Note_on_c,9,54,52,,,,,,,,,,,,,,,,,,,,,,,
11,28088, Note_on_c,9,40,0,,,,,,,,,,,,,,,,,,,,,,,
11,28088, Note_on_c,9,54,0,,,,,,,,,,,,,,,,,,,,,,,
11,28128, Note_on_c,9,36,94,,,,,,,,,,,,,,,,,,,,,,,
11,28128, Note_on_c,9,51,112,,,,,,,,,,,,,,,,,,,,,,,
11,28128, Note_on_c,9,54,67,,,,,,,,,,,,,,,,,,,,,,,
11,28136, Note_on_c,9,36,0,,,,,,,,,,,,,,,,,,,,,,,
11,28136, Note_on_c,9,51,0,,,,,,,,,,,,,,,,,,,,,,,
11,28136, Note_on_c,9,54,0,,,,,,,,,,,,,,,,,,,,,,,
11,28176, Note_on_c,9,54,72,,,,,,,,,,,,,,,,,,,,,,,
11,28184, Note_on_c,9,54,0,,,,,,,,,,,,,,,,,,,,,,,
11,28224, Note_on_c,9,40,127,,,,,,,,,,,,,,,,,,,,,,,
11,28224, Note_on_c,9,51,112,,,,,,,,,,,,,,,,,,,,,,,
11,28224, Note_on_c,9,54,112,,,,,,,,,,,,,,,,,,,,,,,
11,28232, Note_on_c,9,40,0,,,,,,,,,,,,,,,,,,,,,,,
11,28232, Note_on_c,9,51,0,,,,,,,,,,,,,,,,,,,,,,,
11,28232, Note_on_c,9,54,0,,,,,,,,,,,,,,,,,,,,,,,
11,28272, Note_on_c,9,40,80,,,,,,,,,,,,,,,,,,,,,,,
11,28272, Note_on_c,9,54,78,,,,,,,,,,,,,,,,,,,,,,,
11,28280, Note_on_c,9,40,0,,,,,,,,,,,,,,,,,,,,,,,
11,28280, Note_on_c,9,54,0,,,,,,,,,,,,,,,,,,,,,,,
11,28296, Note_on_c,9,40,66,,,,,,,,,,,,,,,,,,,,,,,
11,28304, Note_on_c,9,40,0,,,,,,,,,,,,,,,,,,,,,,,
11,28320, Note_on_c,9,40,84,,,,,,,,,,,,,,,,,,,,,,,
11,28320, Note_on_c,9,51,82,,,,,,,,,,,,,,,,,,,,,,,
11,28320, Note_on_c,9,54,82,,,,,,,,,,,,,,,,,,,,,,,
11,28328, Note_on_c,9,40,0,,,,,,,,,,,,,,,,,,,,,,,
11,28328, Note_on_c,9,51,0,,,,,,,,,,,,,,,,,,,,,,,
11,28328, Note_on_c,9,54,0,,,,,,,,,,,,,,,,,,,,,,,
11,28368, Note_on_c,9,40,63,,,,,,,,,,,,,,,,,,,,,,,
11,28368, Note_on_c,9,54,80,,,,,,,,,,,,,,,,,,,,,,,
11,28376, Note_on_c,9,40,0,,,,,,,,,,,,,,,,,,,,,,,
11,28376, Note_on_c,9,54,0,,,,,,,,,,,,,,,,,,,,,,,
11,28416, Note_on_c,9,36,99,,,,,,,,,,,,,,,,,,,,,,,
11,28416, Note_on_c,9,51,127,,,,,,,,,,,,,,,,,,,,,,,
11,28416, Note_on_c,9,54,112,,,,,,,,,,,,,,,,,,,,,,,
11,28424, Note_on_c,9,36,0,,,,,,,,,,,,,,,,,,,,,,,
11,28424, Note_on_c,9,51,0,,,,,,,,,,,,,,,,,,,,,,,
11,28424, Note_on_c,9,54,0,,,,,,,,,,,,,,,,,,,,,,,
11,28464, Note_on_c,9,54,66,,,,,,,,,,,,,,,,,,,,,,,
11,28472, Note_on_c,9,54,0,,,,,,,,,,,,,,,,,,,,,,,
11,28512, Note_on_c,9,36,94,,,,,,,,,,,,,,,,,,,,,,,
11,28512, Note_on_c,9,51,72,,,,,,,,,,,,,,,,,,,,,,,
11,28512, Note_on_c,9,54,57,,,,,,,,,,,,,,,,,,,,,,,
11,28520, Note_on_c,9,36,0,,,,,,,,,,,,,,,,,,,,,,,
11,28520, Note_on_c,9,51,0,,,,,,,,,,,,,,,,,,,,,,,
11,28520, Note_on_c,9,54,0,,,,,,,,,,,,,,,,,,,,,,,
11,28560, Note_on_c,9,40,40,,,,,,,,,,,,,,,,,,,,,,,
11,28560, Note_on_c,9,54,61,,,,,,,,,,,,,,,,,,,,,,,
11,28568, Note_on_c,9,40,0,,,,,,,,,,,,,,,,,,,,,,,
11,28568, Note_on_c,9,54,0,,,,,,,,,,,,,,,,,,,,,,,
11,28608, Note_on_c,9,40,127,,,,,,,,,,,,,,,,,,,,,,,
11,28608, Note_on_c,9,51,127,,,,,,,,,,,,,,,,,,,,,,,
11,28608, Note_on_c,9,54,107,,,,,,,,,,,,,,,,,,,,,,,
11,28616, Note_on_c,9,40,0,,,,,,,,,,,,,,,,,,,,,,,
11,28616, Note_on_c,9,51,0,,,,,,,,,,,,,,,,,,,,,,,
11,28616, Note_on_c,9,54,0,,,,,,,,,,,,,,,,,,,,,,,
11,28656, Note_on_c,9,54,56,,,,,,,,,,,,,,,,,,,,,,,
11,28664, Note_on_c,9,54,0,,,,,,,,,,,,,,,,,,,,,,,
11,28704, Note_on_c,9,51,92,,,,,,,,,,,,,,,,,,,,,,,
11,28704, Note_on_c,9,54,80,,,,,,,,,,,,,,,,,,,,,,,
11,28712, Note_on_c,9,51,0,,,,,,,,,,,,,,,,,,,,,,,
11,28712, Note_on_c,9,54,0,,,,,,,,,,,,,,,,,,,,,,,
11,28752, Note_on_c,9,40,107,,,,,,,,,,,,,,,,,,,,,,,
11,28752, Note_on_c,9,54,80,,,,,,,,,,,,,,,,,,,,,,,
11,28760, Note_on_c,9,40,0,,,,,,,,,,,,,,,,,,,,,,,
11,28760, Note_on_c,9,54,0,,,,,,,,,,,,,,,,,,,,,,,
11,28800, Note_on_c,9,36,99,,,,,,,,,,,,,,,,,,,,,,,
11,28800, Note_on_c,9,51,92,,,,,,,,,,,,,,,,,,,,,,,
11,28800, Note_on_c,9,54,107,,,,,,,,,,,,,,,,,,,,,,,
11,28808, Note_on_c,9,36,0,,,,,,,,,,,,,,,,,,,,,,,
11,28808, Note_on_c,9,51,0,,,,,,,,,,,,,,,,,,,,,,,
11,28808, Note_on_c,9,54,0,,,,,,,,,,,,,,,,,,,,,,,
11,28848, Note_on_c,9,40,127,,,,,,,,,,,,,,,,,,,,,,,
11,28848, Note_on_c,9,54,70,,,,,,,,,,,,,,,,,,,,,,,
11,28856, Note_on_c,9,40,0,,,,,,,,,,,,,,,,,,,,,,,
11,28856, Note_on_c,9,54,0,,,,,,,,,,,,,,,,,,,,,,,
11,28896, Note_on_c,9,36,86,,,,,,,,,,,,,,,,,,,,,,,
11,28896, Note_on_c,9,51,127,,,,,,,,,,,,,,,,,,,,,,,
11,28896, Note_on_c,9,54,64,,,,,,,,,,,,,,,,,,,,,,,
11,28904, Note_on_c,9,36,0,,,,,,,,,,,,,,,,,,,,,,,
11,28904, Note_on_c,9,51,0,,,,,,,,,,,,,,,,,,,,,,,
11,28904, Note_on_c,9,54,0,,,,,,,,,,,,,,,,,,,,,,,
11,28944, Note_on_c,9,54,70,,,,,,,,,,,,,,,,,,,,,,,
11,28952, Note_on_c,9,54,0,,,,,,,,,,,,,,,,,,,,,,,
11,28992, Note_on_c,9,40,127,,,,,,,,,,,,,,,,,,,,,,,
11,28992, Note_on_c,9,51,112,,,,,,,,,,,,,,,,,,,,,,,
11,28992, Note_on_c,9,54,107,,,,,,,,,,,,,,,,,,,,,,,
11,29000, Note_on_c,9,40,0,,,,,,,,,,,,,,,,,,,,,,,
11,29000, Note_on_c,9,51,0,,,,,,,,,,,,,,,,,,,,,,,
11,29000, Note_on_c,9,54,0,,,,,,,,,,,,,,,,,,,,,,,
11,29040, Note_on_c,9,40,84,,,,,,,,,,,,,,,,,,,,,,,
11,29040, Note_on_c,9,54,58,,,,,,,,,,,,,,,,,,,,,,,
11,29048, Note_on_c,9,40,0,,,,,,,,,,,,,,,,,,,,,,,
11,29048, Note_on_c,9,54,0,,,,,,,,,,,,,,,,,,,,,,,
11,29064, Note_on_c,9,40,66,,,,,,,,,,,,,,,,,,,,,,,
11,29072, Note_on_c,9,40,0,,,,,,,,,,,,,,,,,,,,,,,
11,29088, Note_on_c,9,40,89,,,,,,,,,,,,,,,,,,,,,,,
11,29088, Note_on_c,9,51,112,,,,,,,,,,,,,,,,,,,,,,,
11,29088, Note_on_c,9,54,70,,,,,,,,,,,,,,,,,,,,,,,
11,29096, Note_on_c,9,40,0,,,,,,,,,,,,,,,,,,,,,,,
11,29096, Note_on_c,9,51,0,,,,,,,,,,,,,,,,,,,,,,,
11,29096, Note_on_c,9,54,0,,,,,,,,,,,,,,,,,,,,,,,
11,29136, Note_on_c,9,40,66,,,,,,,,,,,,,,,,,,,,,,,
11,29136, Note_on_c,9,54,80,,,,,,,,,,,,,,,,,,,,,,,
11,29144, Note_on_c,9,40,0,,,,,,,,,,,,,,,,,,,,,,,
11,29144, Note_on_c,9,54,0,,,,,,,,,,,,,,,,,,,,,,,
11,29184, Note_on_c,9,36,99,,,,,,,,,,,,,,,,,,,,,,,
11,29184, Note_on_c,9,51,112,,,,,,,,,,,,,,,,,,,,,,,
11,29184, Note_on_c,9,54,107,,,,,,,,,,,,,,,,,,,,,,,
11,29192, Note_on_c,9,36,0,,,,,,,,,,,,,,,,,,,,,,,
11,29192, Note_on_c,9,51,0,,,,,,,,,,,,,,,,,,,,,,,
11,29192, Note_on_c,9,54,0,,,,,,,,,,,,,,,,,,,,,,,
11,29200, Note_on_c,9,49,78,,,,,,,,,,,,,,,,,,,,,,,
11,29208, Note_on_c,9,49,0,,,,,,,,,,,,,,,,,,,,,,,
11,29232, Note_on_c,9,54,52,,,,,,,,,,,,,,,,,,,,,,,
11,29240, Note_on_c,9,54,0,,,,,,,,,,,,,,,,,,,,,,,
11,29280, Note_on_c,9,36,94,,,,,,,,,,,,,,,,,,,,,,,
11,29280, Note_on_c,9,51,82,,,,,,,,,,,,,,,,,,,,,,,
11,29280, Note_on_c,9,54,58,,,,,,,,,,,,,,,,,,,,,,,
11,29288, Note_on_c,9,36,0,,,,,,,,,,,,,,,,,,,,,,,
11,29288, Note_on_c,9,51,0,,,,,,,,,,,,,,,,,,,,,,,
11,29288, Note_on_c,9,54,0,,,,,,,,,,,,,,,,,,,,,,,
11,29328, Note_on_c,9,54,59,,,,,,,,,,,,,,,,,,,,,,,
11,29336, Note_on_c,9,54,0,,,,,,,,,,,,,,,,,,,,,,,
11,29376, Note_on_c,9,40,127,,,,,,,,,,,,,,,,,,,,,,,
11,29376, Note_on_c,9,51,127,,,,,,,,,,,,,,,,,,,,,,,
11,29376, Note_on_c,9,54,107,,,,,,,,,,,,,,,,,,,,,,,
11,29384, Note_on_c,9,40,0,,,,,,,,,,,,,,,,,,,,,,,
11,29384, Note_on_c,9,51,0,,,,,,,,,,,,,,,,,,,,,,,
11,29384, Note_on_c,9,54,0,,,,,,,,,,,,,,,,,,,,,,,
11,29424, Note_on_c,9,54,52,,,,,,,,,,,,,,,,,,,,,,,
11,29432, Note_on_c,9,54,0,,,,,,,,,,,,,,,,,,,,,,,
11,29472, Note_on_c,9,51,78,,,,,,,,,,,,,,,,,,,,,,,
11,29472, Note_on_c,9,54,78,,,,,,,,,,,,,,,,,,,,,,,
11,29480, Note_on_c,9,51,0,,,,,,,,,,,,,,,,,,,,,,,
11,29480, Note_on_c,9,54,0,,,,,,,,,,,,,,,,,,,,,,,
11,29520, Note_on_c,9,40,98,,,,,,,,,,,,,,,,,,,,,,,
11,29520, Note_on_c,9,54,70,,,,,,,,,,,,,,,,,,,,,,,
11,29528, Note_on_c,9,40,0,,,,,,,,,,,,,,,,,,,,,,,
11,29528, Note_on_c,9,54,0,,,,,,,,,,,,,,,,,,,,,,,
11,29568, Note_on_c,9,36,99,,,,,,,,,,,,,,,,,,,,,,,
11,29568, Note_on_c,9,51,86,,,,,,,,,,,,,,,,,,,,,,,
11,29568, Note_on_c,9,54,103,,,,,,,,,,,,,,,,,,,,,,,
11,29576, Note_on_c,9,36,0,,,,,,,,,,,,,,,,,,,,,,,
11,29576, Note_on_c,9,51,0,,,,,,,,,,,,,,,,,,,,,,,
11,29576, Note_on_c,9,54,0,,,,,,,,,,,,,,,,,,,,,,,
11,29616, Note_on_c,9,40,127,,,,,,,,,,,,,,,,,,,,,,,
11,29616, Note_on_c,9,54,70,,,,,,,,,,,,,,,,,,,,,,,
11,29624, Note_on_c,9,40,0,,,,,,,,,,,,,,,,,,,,,,,
11,29624, Note_on_c,9,54,0,,,,,,,,,,,,,,,,,,,,,,,
11,29664, Note_on_c,9,36,90,,,,,,,,,,,,,,,,,,,,,,,
11,29664, Note_on_c,9,51,127,,,,,,,,,,,,,,,,,,,,,,,
11,29664, Note_on_c,9,54,57,,,,,,,,,,,,,,,,,,,,,,,
11,29672, Note_on_c,9,36,0,,,,,,,,,,,,,,,,,,,,,,,
11,29672, Note_on_c,9,51,0,,,,,,,,,,,,,,,,,,,,,,,
11,29672, Note_on_c,9,54,0,,,,,,,,,,,,,,,,,,,,,,,
11,29712, Note_on_c,9,54,74,,,,,,,,,,,,,,,,,,,,,,,
11,29720, Note_on_c,9,54,0,,,,,,,,,,,,,,,,,,,,,,,
11,29760, Note_on_c,9,40,127,,,,,,,,,,,,,,,,,,,,,,,
11,29760, Note_on_c,9,51,112,,,,,,,,,,,,,,,,,,,,,,,
11,29760, Note_on_c,9,54,107,,,,,,,,,,,,,,,,,,,,,,,
11,29768, Note_on_c,9,40,0,,,,,,,,,,,,,,,,,,,,,,,
11,29768, Note_on_c,9,51,0,,,,,,,,,,,,,,,,,,,,,,,
11,29768, Note_on_c,9,54,0,,,,,,,,,,,,,,,,,,,,,,,
11,29808, Note_on_c,9,40,76,,,,,,,,,,,,,,,,,,,,,,,
11,29808, Note_on_c,9,54,61,,,,,,,,,,,,,,,,,,,,,,,
11,29816, Note_on_c,9,40,0,,,,,,,,,,,,,,,,,,,,,,,
11,29816, Note_on_c,9,54,0,,,,,,,,,,,,,,,,,,,,,,,
11,29832, Note_on_c,9,40,63,,,,,,,,,,,,,,,,,,,,,,,
11,29840, Note_on_c,9,40,0,,,,,,,,,,,,,,,,,,,,,,,
11,29856, Note_on_c,9,40,84,,,,,,,,,,,,,,,,,,,,,,,
11,29856, Note_on_c,9,54,72,,,,,,,,,,,,,,,,,,,,,,,
11,29864, Note_on_c,9,40,0,,,,,,,,,,,,,,,,,,,,,,,
11,29864, Note_on_c,9,54,0,,,,,,,,,,,,,,,,,,,,,,,
11,29904, Note_on_c,9,40,69,,,,,,,,,,,,,,,,,,,,,,,
11,29904, Note_on_c,9,54,66,,,,,,,,,,,,,,,,,,,,,,,
11,29912, Note_on_c,9,40,0,,,,,,,,,,,,,,,,,,,,,,,
11,29912, Note_on_c,9,54,0,,,,,,,,,,,,,,,,,,,,,,,
11,29952, Note_on_c,9,36,94,,,,,,,,,,,,,,,,,,,,,,,
11,29952, Note_on_c,9,51,112,,,,,,,,,,,,,,,,,,,,,,,
11,29952, Note_on_c,9,54,112,,,,,,,,,,,,,,,,,,,,,,,
11,29960, Note_on_c,9,36,0,,,,,,,,,,,,,,,,,,,,,,,
11,29960, Note_on_c,9,51,0,,,,,,,,,,,,,,,,,,,,,,,
11,29960, Note_on_c,9,54,0,,,,,,,,,,,,,,,,,,,,,,,
11,30000, Note_on_c,9,54,61,,,,,,,,,,,,,,,,,,,,,,,
11,30008, Note_on_c,9,54,0,,,,,,,,,,,,,,,,,,,,,,,
11,30048, Note_on_c,9,36,86,,,,,,,,,,,,,,,,,,,,,,,
11,30048, Note_on_c,9,51,70,,,,,,,,,,,,,,,,,,,,,,,
11,30048, Note_on_c,9,54,70,,,,,,,,,,,,,,,,,,,,,,,
11,30056, Note_on_c,9,36,0,,,,,,,,,,,,,,,,,,,,,,,
11,30056, Note_on_c,9,51,0,,,,,,,,,,,,,,,,,,,,,,,
11,30056, Note_on_c,9,54,0,,,,,,,,,,,,,,,,,,,,,,,
11,30096, Note_on_c,9,40,66,,,,,,,,,,,,,,,,,,,,,,,
11,30096, Note_on_c,9,54,56,,,,,,,,,,,,,,,,,,,,,,,
11,30104, Note_on_c,9,40,0,,,,,,,,,,,,,,,,,,,,,,,
11,30104, Note_on_c,9,54,0,,,,,,,,,,,,,,,,,,,,,,,
11,30144, Note_on_c,9,40,127,,,,,,,,,,,,,,,,,,,,,,,
11,30144, Note_on_c,9,51,112,,,,,,,,,,,,,,,,,,,,,,,
11,30144, Note_on_c,9,54,103,,,,,,,,,,,,,,,,,,,,,,,
11,30152, Note_on_c,9,40,0,,,,,,,,,,,,,,,,,,,,,,,
11,30152, Note_on_c,9,51,0,,,,,,,,,,,,,,,,,,,,,,,
11,30152, Note_on_c,9,54,0,,,,,,,,,,,,,,,,,,,,,,,
11,30192, Note_on_c,9,54,59,,,,,,,,,,,,,,,,,,,,,,,
11,30200, Note_on_c,9,54,0,,,,,,,,,,,,,,,,,,,,,,,
11,30240, Note_on_c,9,54,72,,,,,,,,,,,,,,,,,,,,,,,
11,30248, Note_on_c,9,54,0,,,,,,,,,,,,,,,,,,,,,,,
11,30288, Note_on_c,9,40,88,,,,,,,,,,,,,,,,,,,,,,,
11,30288, Note_on_c,9,54,86,,,,,,,,,,,,,,,,,,,,,,,
11,30296, Note_on_c,9,40,0,,,,,,,,,,,,,,,,,,,,,,,
11,30296, Note_on_c,9,54,0,,,,,,,,,,,,,,,,,,,,,,,
11,30336, Note_on_c,9,36,94,,,,,,,,,,,,,,,,,,,,,,,
11,30336, Note_on_c,9,51,74,,,,,,,,,,,,,,,,,,,,,,,
11,30336, Note_on_c,9,54,103,,,,,,,,,,,,,,,,,,,,,,,
11,30344, Note_on_c,9,36,0,,,,,,,,,,,,,,,,,,,,,,,
11,30344, Note_on_c,9,51,0,,,,,,,,,,,,,,,,,,,,,,,
11,30344, Note_on_c,9,54,0,,,,,,,,,,,,,,,,,,,,,,,
11,30384, Note_on_c,9,40,127,,,,,,,,,,,,,,,,,,,,,,,
11,30384, Note_on_c,9,54,44,,,,,,,,,,,,,,,,,,,,,,,
11,30392, Note_on_c,9,40,0,,,,,,,,,,,,,,,,,,,,,,,
11,30392, Note_on_c,9,54,0,,,,,,,,,,,,,,,,,,,,,,,
11,30432, Note_on_c,9,36,79,,,,,,,,,,,,,,,,,,,,,,,
11,30432, Note_on_c,9,51,112,,,,,,,,,,,,,,,,,,,,,,,
11,30432, Note_on_c,9,54,80,,,,,,,,,,,,,,,,,,,,,,,
11,30440, Note_on_c,9,36,0,,,,,,,,,,,,,,,,,,,,,,,
11,30440, Note_on_c,9,51,0,,,,,,,,,,,,,,,,,,,,,,,
11,30440, Note_on_c,9,54,0,,,,,,,,,,,,,,,,,,,,,,,
11,30480, Note_on_c,9,54,72,,,,,,,,,,,,,,,,,,,,,,,
11,30488, Note_on_c,9,54,0,,,,,,,,,,,,,,,,,,,,,,,
11,30528, Note_on_c,9,40,127,,,,,,,,,,,,,,,,,,,,,,,
11,30528, Note_on_c,9,51,112,,,,,,,,,,,,,,,,,,,,,,,
11,30528, Note_on_c,9,54,103,,,,,,,,,,,,,,,,,,,,,,,
11,30536, Note_on_c,9,40,0,,,,,,,,,,,,,,,,,,,,,,,
11,30536, Note_on_c,9,51,0,,,,,,,,,,,,,,,,,,,,,,,
11,30536, Note_on_c,9,54,0,,,,,,,,,,,,,,,,,,,,,,,
11,30576, Note_on_c,9,40,80,,,,,,,,,,,,,,,,,,,,,,,
11,30576, Note_on_c,9,54,82,,,,,,,,,,,,,,,,,,,,,,,
11,30584, Note_on_c,9,40,0,,,,,,,,,,,,,,,,,,,,,,,
11,30584, Note_on_c,9,54,0,,,,,,,,,,,,,,,,,,,,,,,
11,30600, Note_on_c,9,40,69,,,,,,,,,,,,,,,,,,,,,,,
11,30608, Note_on_c,9,40,0,,,,,,,,,,,,,,,,,,,,,,,
11,30624, Note_on_c,9,40,80,,,,,,,,,,,,,,,,,,,,,,,
11,30624, Note_on_c,9,51,82,,,,,,,,,,,,,,,,,,,,,,,
11,30624, Note_on_c,9,54,78,,,,,,,,,,,,,,,,,,,,,,,
11,30632, Note_on_c,9,40,0,,,,,,,,,,,,,,,,,,,,,,,
11,30632, Note_on_c,9,51,0,,,,,,,,,,,,,,,,,,,,,,,
11,30632, Note_on_c,9,54,0,,,,,,,,,,,,,,,,,,,,,,,
11,30672, Note_on_c,9,40,63,,,,,,,,,,,,,,,,,,,,,,,
11,30672, Note_on_c,9,54,88,,,,,,,,,,,,,,,,,,,,,,,
11,30680, Note_on_c,9,40,0,,,,,,,,,,,,,,,,,,,,,,,
11,30680, Note_on_c,9,54,0,,,,,,,,,,,,,,,,,,,,,,,
11,30720, Note_on_c,9,36,99,,,,,,,,,,,,,,,,,,,,,,,
11,30720, Note_on_c,9,51,112,,,,,,,,,,,,,,,,,,,,,,,
11,30720, Note_on_c,9,54,107,,,,,,,,,,,,,,,,,,,,,,,
11,30728, Note_on_c,9,36,0,,,,,,,,,,,,,,,,,,,,,,,
11,30728, Note_on_c,9,49,64,,,,,,,,,,,,,,,,,,,,,,,
11,30728, Note_on_c,9,51,0,,,,,,,,,,,,,,,,,,,,,,,
11,30728, Note_on_c,9,54,0,,,,,,,,,,,,,,,,,,,,,,,
11,30736, Note_on_c,9,49,0,,,,,,,,,,,,,,,,,,,,,,,
11,30768, Note_on_c,9,54,74,,,,,,,,,,,,,,,,,,,,,,,
11,30776, Note_on_c,9,54,0,,,,,,,,,,,,,,,,,,,,,,,
11,30816, Note_on_c,9,36,90,,,,,,,,,,,,,,,,,,,,,,,
11,30816, Note_on_c,9,51,78,,,,,,,,,,,,,,,,,,,,,,,
11,30816, Note_on_c,9,54,61,,,,,,,,,,,,,,,,,,,,,,,
11,30824, Note_on_c,9,36,0,,,,,,,,,,,,,,,,,,,,,,,
11,30824, Note_on_c,9,51,0,,,,,,,,,,,,,,,,,,,,,,,
11,30824, Note_on_c,9,54,0,,,,,,,,,,,,,,,,,,,,,,,
11,30864, Note_on_c,9,54,80,,,,,,,,,,,,,,,,,,,,,,,
11,30872, Note_on_c,9,54,0,,,,,,,,,,,,,,,,,,,,,,,
11,30912, Note_on_c,9,40,127,,,,,,,,,,,,,,,,,,,,,,,
11,30912, Note_on_c,9,51,112,,,,,,,,,,,,,,,,,,,,,,,
11,30912, Note_on_c,9,54,107,,,,,,,,,,,,,,,,,,,,,,,
11,30920, Note_on_c,9,40,0,,,,,,,,,,,,,,,,,,,,,,,
11,30920, Note_on_c,9,51,0,,,,,,,,,,,,,,,,,,,,,,,
11,30920, Note_on_c,9,54,0,,,,,,,,,,,,,,,,,,,,,,,
11,30960, Note_on_c,9,54,74,,,,,,,,,,,,,,,,,,,,,,,
11,30968, Note_on_c,9,54,0,,,,,,,,,,,,,,,,,,,,,,,
11,31008, Note_on_c,9,51,52,,,,,,,,,,,,,,,,,,,,,,,
11,31008, Note_on_c,9,54,64,,,,,,,,,,,,,,,,,,,,,,,
11,31016, Note_on_c,9,51,0,,,,,,,,,,,,,,,,,,,,,,,
11,31016, Note_on_c,9,54,0,,,,,,,,,,,,,,,,,,,,,,,
11,31056, Note_on_c,9,40,110,,,,,,,,,,,,,,,,,,,,,,,
11,31056, Note_on_c,9,54,72,,,,,,,,,,,,,,,,,,,,,,,
11,31064, Note_on_c,9,40,0,,,,,,,,,,,,,,,,,,,,,,,
11,31064, Note_on_c,9,54,0,,,,,,,,,,,,,,,,,,,,,,,
11,31104, Note_on_c,9,36,90,,,,,,,,,,,,,,,,,,,,,,,
11,31104, Note_on_c,9,51,95,,,,,,,,,,,,,,,,,,,,,,,
11,31104, Note_on_c,9,54,107,,,,,,,,,,,,,,,,,,,,,,,
11,31112, Note_on_c,9,36,0,,,,,,,,,,,,,,,,,,,,,,,
11,31112, Note_on_c,9,51,0,,,,,,,,,,,,,,,,,,,,,,,
11,31112, Note_on_c,9,54,0,,,,,,,,,,,,,,,,,,,,,,,
11,31152, Note_on_c,9,40,127,,,,,,,,,,,,,,,,,,,,,,,
11,31152, Note_on_c,9,54,52,,,,,,,,,,,,,,,,,,,,,,,
11,31160, Note_on_c,9,40,0,,,,,,,,,,,,,,,,,,,,,,,
11,31160, Note_on_c,9,54,0,,,,,,,,,,,,,,,,,,,,,,,
11,31200, Note_on_c,9,36,90,,,,,,,,,,,,,,,,,,,,,,,
11,31200, Note_on_c,9,51,112,,,,,,,,,,,,,,,,,,,,,,,
11,31200, Note_on_c,9,54,52,,,,,,,,,,,,,,,,,,,,,,,
11,31208, Note_on_c,9,36,0,,,,,,,,,,,,,,,,,,,,,,,
11,31208, Note_on_c,9,51,0,,,,,,,,,,,,,,,,,,,,,,,
11,31208, Note_on_c,9,54,0,,,,,,,,,,,,,,,,,,,,,,,
11,31248, Note_on_c,9,54,78,,,,,,,,,,,,,,,,,,,,,,,
11,31256, Note_on_c,9,54,0,,,,,,,,,,,,,,,,,,,,,,,
11,31296, Note_on_c,9,40,127,,,,,,,,,,,,,,,,,,,,,,,
11,31296, Note_on_c,9,51,112,,,,,,,,,,,,,,,,,,,,,,,
11,31296, Note_on_c,9,54,103,,,,,,,,,,,,,,,,,,,,,,,
11,31304, Note_on_c,9,40,0,,,,,,,,,,,,,,,,,,,,,,,
11,31304, Note_on_c,9,51,0,,,,,,,,,,,,,,,,,,,,,,,
11,31304, Note_on_c,9,54,0,,,,,,,,,,,,,,,,,,,,,,,
11,31344, Note_on_c,9,54,67,,,,,,,,,,,,,,,,,,,,,,,
11,31352, Note_on_c,9,54,0,,,,,,,,,,,,,,,,,,,,,,,
11,31392, Note_on_c,9,40,98,,,,,,,,,,,,,,,,,,,,,,,
11,31392, Note_on_c,9,51,59,,,,,,,,,,,,,,,,,,,,,,,
11,31392, Note_on_c,9,54,78,,,,,,,,,,,,,,,,,,,,,,,
11,31400, Note_on_c,9,40,0,,,,,,,,,,,,,,,,,,,,,,,
11,31400, Note_on_c,9,51,0,,,,,,,,,,,,,,,,,,,,,,,
11,31400, Note_on_c,9,54,0,,,,,,,,,,,,,,,,,,,,,,,
11,31440, Note_on_c,9,40,104,,,,,,,,,,,,,,,,,,,,,,,
11,31440, Note_on_c,9,54,88,,,,,,,,,,,,,,,,,,,,,,,
11,31448, Note_on_c,9,40,0,,,,,,,,,,,,,,,,,,,,,,,
11,31448, Note_on_c,9,54,0,,,,,,,,,,,,,,,,,,,,,,,
11,31488, Note_on_c,9,36,94,,,,,,,,,,,,,,,,,,,,,,,
11,31488, Note_on_c,9,51,112,,,,,,,,,,,,,,,,,,,,,,,
11,31488, Note_on_c,9,54,107,,,,,,,,,,,,,,,,,,,,,,,
11,31496, Note_on_c,9,36,0,,,,,,,,,,,,,,,,,,,,,,,
11,31496, Note_on_c,9,51,0,,,,,,,,,,,,,,,,,,,,,,,
11,31496, Note_on_c,9,54,0,,,,,,,,,,,,,,,,,,,,,,,
11,31536, Note_on_c,9,54,74,,,,,,,,,,,,,,,,,,,,,,,
11,31544, Note_on_c,9,54,0,,,,,,,,,,,,,,,,,,,,,,,
11,31584, Note_on_c,9,36,94,,,,,,,,,,,,,,,,,,,,,,,
11,31584, Note_on_c,9,51,67,,,,,,,,,,,,,,,,,,,,,,,
11,31584, Note_on_c,9,54,61,,,,,,,,,,,,,,,,,,,,,,,
11,31592, Note_on_c,9,36,0,,,,,,,,,,,,,,,,,,,,,,,
11,31592, Note_on_c,9,51,0,,,,,,,,,,,,,,,,,,,,,,,
11,31592, Note_on_c,9,54,0,,,,,,,,,,,,,,,,,,,,,,,
11,31632, Note_on_c,9,54,72,,,,,,,,,,,,,,,,,,,,,,,
11,31640, Note_on_c,9,54,0,,,,,,,,,,,,,,,,,,,,,,,
11,31680, Note_on_c,9,40,127,,,,,,,,,,,,,,,,,,,,,,,
11,31680, Note_on_c,9,51,112,,,,,,,,,,,,,,,,,,,,,,,
11,31680, Note_on_c,9,54,103,,,,,,,,,,,,,,,,,,,,,,,
11,31688, Note_on_c,9,40,0,,,,,,,,,,,,,,,,,,,,,,,
11,31688, Note_on_c,9,51,0,,,,,,,,,,,,,,,,,,,,,,,
11,31688, Note_on_c,9,54,0,,,,,,,,,,,,,,,,,,,,,,,
11,31728, Note_on_c,9,54,67,,,,,,,,,,,,,,,,,,,,,,,
11,31736, Note_on_c,9,54,0,,,,,,,,,,,,,,,,,,,,,,,
11,31776, Note_on_c,9,51,44,,,,,,,,,,,,,,,,,,,,,,,
11,31776, Note_on_c,9,54,61,,,,,,,,,,,,,,,,,,,,,,,
11,31784, Note_on_c,9,51,0,,,,,,,,,,,,,,,,,,,,,,,
11,31784, Note_on_c,9,54,0,,,,,,,,,,,,,,,,,,,,,,,
11,31824, Note_on_c,9,40,101,,,,,,,,,,,,,,,,,,,,,,,
11,31824, Note_on_c,9,54,82,,,,,,,,,,,,,,,,,,,,,,,
11,31832, Note_on_c,9,40,0,,,,,,,,,,,,,,,,,,,,,,,
11,31832, Note_on_c,9,54,0,,,,,,,,,,,,,,,,,,,,,,,
11,31872, Note_on_c,9,36,90,,,,,,,,,,,,,,,,,,,,,,,
11,31872, Note_on_c,9,54,107,,,,,,,,,,,,,,,,,,,,,,,
11,31880, Note_on_c,9,36,0,,,,,,,,,,,,,,,,,,,,,,,
11,31880, Note_on_c,9,49,52,,,,,,,,,,,,,,,,,,,,,,,
11,31880, Note_on_c,9,54,0,,,,,,,,,,,,,,,,,,,,,,,
11,31888, Note_on_c,9,49,0,,,,,,,,,,,,,,,,,,,,,,,
11,32736, Note_on_c,9,40,116,,,,,,,,,,,,,,,,,,,,,,,
11,32736, Note_on_c,9,41,100,,,,,,,,,,,,,,,,,,,,,,,
11,32744, Note_on_c,9,40,0,,,,,,,,,,,,,,,,,,,,,,,
11,32744, Note_on_c,9,41,0,,,,,,,,,,,,,,,,,,,,,,,
11,32832, Note_on_c,9,40,127,,,,,,,,,,,,,,,,,,,,,,,
11,32840, Note_on_c,9,40,0,,,,,,,,,,,,,,,,,,,,,,,
11,32880, Note_on_c,9,40,115,,,,,,,,,,,,,,,,,,,,,,,
11,32880, Note_on_c,9,41,100,,,,,,,,,,,,,,,,,,,,,,,
11,32888, Note_on_c,9,40,0,,,,,,,,,,,,,,,,,,,,,,,
11,32888, Note_on_c,9,41,0,,,,,,,,,,,,,,,,,,,,,,,
11,32976, Note_on_c,9,40,119,,,,,,,,,,,,,,,,,,,,,,,
11,32984, Note_on_c,9,40,0,,,,,,,,,,,,,,,,,,,,,,,
11,33016, Note_on_c,9,40,110,,,,,,,,,,,,,,,,,,,,,,,
11,33021, Note_on_c,9,40,0,,,,,,,,,,,,,,,,,,,,,,,
11,33024, Note_on_c,9,40,115,,,,,,,,,,,,,,,,,,,,,,,
11,33024, Note_on_c,9,41,100,,,,,,,,,,,,,,,,,,,,,,,
11,33032, Note_on_c,9,40,0,,,,,,,,,,,,,,,,,,,,,,,
11,33032, Note_on_c,9,41,0,,,,,,,,,,,,,,,,,,,,,,,
11,33120, Note_on_c,9,40,127,,,,,,,,,,,,,,,,,,,,,,,
11,33128, Note_on_c,9,40,0,,,,,,,,,,,,,,,,,,,,,,,
11,33216, Note_on_c,9,40,118,,,,,,,,,,,,,,,,,,,,,,,
11,33224, Note_on_c,9,40,0,,,,,,,,,,,,,,,,,,,,,,,
11,33264, Note_on_c,9,40,119,,,,,,,,,,,,,,,,,,,,,,,
11,33264, Note_on_c,9,41,100,,,,,,,,,,,,,,,,,,,,,,,
11,33272, Note_on_c,9,40,0,,,,,,,,,,,,,,,,,,,,,,,
11,33272, Note_on_c,9,41,0,,,,,,,,,,,,,,,,,,,,,,,
11,33312, Note_on_c,9,40,127,,,,,,,,,,,,,,,,,,,,,,,
11,33312, Note_on_c,9,41,100,,,,,,,,,,,,,,,,,,,,,,,
11,33320, Note_on_c,9,40,0,,,,,,,,,,,,,,,,,,,,,,,
11,33320, Note_on_c,9,41,0,,,,,,,,,,,,,,,,,,,,,,,
11,33360, Note_on_c,9,40,127,,,,,,,,,,,,,,,,,,,,,,,
11,33368, Note_on_c,9,40,0,,,,,,,,,,,,,,,,,,,,,,,
11,33408, Note_on_c,9,36,86,,,,,,,,,,,,,,,,,,,,,,,
11,33408, Note_on_c,9,42,95,,,,,,,,,,,,,,,,,,,,,,,
11,33408, Note_on_c,9,49,82,,,,,,,,,,,,,,,,,,,,,,,
11,33416, Note_on_c,9,36,0,,,,,,,,,,,,,,,,,,,,,,,
11,33416, Note_on_c,9,42,0,,,,,,,,,,,,,,,,,,,,,,,
11,33416, Note_on_c,9,49,0,,,,,,,,,,,,,,,,,,,,,,,
11,33456, Note_on_c,9,42,88,,,,,,,,,,,,,,,,,,,,,,,
11,33464, Note_on_c,9,42,0,,,,,,,,,,,,,,,,,,,,,,,
11,33504, Note_on_c,9,36,94,,,,,,,,,,,,,,,,,,,,,,,
11,33504, Note_on_c,9,42,107,,,,,,,,,,,,,,,,,,,,,,,
11,33512, Note_on_c,9,36,0,,,,,,,,,,,,,,,,,,,,,,,
11,33512, Note_on_c,9,42,0,,,,,,,,,,,,,,,,,,,,,,,
11,33552, Note_on_c,9,42,95,,,,,,,,,,,,,,,,,,,,,,,
11,33560, Note_on_c,9,42,0,,,,,,,,,,,,,,,,,,,,,,,
11,33600, Note_on_c,9,40,127,,,,,,,,,,,,,,,,,,,,,,,
11,33600, Note_on_c,9,42,112,,,,,,,,,,,,,,,,,,,,,,,
11,33600, Note_on_c,9,51,107,,,,,,,,,,,,,,,,,,,,,,,
11,33608, Note_on_c,9,40,0,,,,,,,,,,,,,,,,,,,,,,,
11,33608, Note_on_c,9,42,0,,,,,,,,,,,,,,,,,,,,,,,
11,33608, Note_on_c,9,51,0,,,,,,,,,,,,,,,,,,,,,,,
11,33648, Note_on_c,9,42,99,,,,,,,,,,,,,,,,,,,,,,,
11,33656, Note_on_c,9,42,0,,,,,,,,,,,,,,,,,,,,,,,
11,33696, Note_on_c,9,42,107,,,,,,,,,,,,,,,,,,,,,,,
11,33704, Note_on_c,9,42,0,,,,,,,,,,,,,,,,,,,,,,,
11,33744, Note_on_c,9,40,104,,,,,,,,,,,,,,,,,,,,,,,
11,33744, Note_on_c,9,42,103,,,,,,,,,,,,,,,,,,,,,,,
11,33752, Note_on_c,9,40,0,,,,,,,,,,,,,,,,,,,,,,,
11,33752, Note_on_c,9,42,0,,,,,,,,,,,,,,,,,,,,,,,
11,33792, Note_on_c,9,36,90,,,,,,,,,,,,,,,,,,,,,,,
11,33792, Note_on_c,9,42,112,,,,,,,,,,,,,,,,,,,,,,,
11,33792, Note_on_c,9,51,88,,,,,,,,,,,,,,,,,,,,,,,
11,33800, Note_on_c,9,36,0,,,,,,,,,,,,,,,,,,,,,,,
11,33800, Note_on_c,9,42,0,,,,,,,,,,,,,,,,,,,,,,,
11,33800, Note_on_c,9,51,0,,,,,,,,,,,,,,,,,,,,,,,
11,33840, Note_on_c,9,40,127,,,,,,,,,,,,,,,,,,,,,,,
11,33840, Note_on_c,9,42,88,,,,,,,,,,,,,,,,,,,,,,,
11,33848, Note_on_c,9,40,0,,,,,,,,,,,,,,,,,,,,,,,
11,33848, Note_on_c,9,42,0,,,,,,,,,,,,,,,,,,,,,,,
11,33888, Note_on_c,9,36,90,,,,,,,,,,,,,,,,,,,,,,,
11,33888, Note_on_c,9,42,88,,,,,,,,,,,,,,,,,,,,,,,
11,33888, Note_on_c,9,51,92,,,,,,,,,,,,,,,,,,,,,,,
11,33896, Note_on_c,9,36,0,,,,,,,,,,,,,,,,,,,,,,,
11,33896, Note_on_c,9,42,0,,,,,,,,,,,,,,,,,,,,,,,
11,33896, Note_on_c,9,51,0,,,,,,,,,,,,,,,,,,,,,,,
11,33936, Note_on_c,9,42,92,,,,,,,,,,,,,,,,,,,,,,,
11,33944, Note_on_c,9,42,0,,,,,,,,,,,,,,,,,,,,,,,
11,33984, Note_on_c,9,40,127,,,,,,,,,,,,,,,,,,,,,,,
11,33984, Note_on_c,9,42,107,,,,,,,,,,,,,,,,,,,,,,,
11,33984, Note_on_c,9,51,112,,,,,,,,,,,,,,,,,,,,,,,
11,33992, Note_on_c,9,40,0,,,,,,,,,,,,,,,,,,,,,,,
11,33992, Note_on_c,9,42,0,,,,,,,,,,,,,,,,,,,,,,,
11,33992, Note_on_c,9,51,0,,,,,,,,,,,,,,,,,,,,,,,
11,34032, Note_on_c,9,40,72,,,,,,,,,,,,,,,,,,,,,,,
11,34032, Note_on_c,9,42,92,,,,,,,,,,,,,,,,,,,,,,,
11,34040, Note_on_c,9,40,0,,,,,,,,,,,,,,,,,,,,,,,
11,34040, Note_on_c,9,42,0,,,,,,,,,,,,,,,,,,,,,,,
11,34056, Note_on_c,9,40,66,,,,,,,,,,,,,,,,,,,,,,,
11,34064, Note_on_c,9,40,0,,,,,,,,,,,,,,,,,,,,,,,
11,34080, Note_on_c,9,40,76,,,,,,,,,,,,,,,,,,,,,,,
11,34080, Note_on_c,9,42,92,,,,,,,,,,,,,,,,,,,,,,,
11,34080, Note_on_c,9,51,64,,,,,,,,,,,,,,,,,,,,,,,
11,34088, Note_on_c,9,40,0,,,,,,,,,,,,,,,,,,,,,,,
11,34088, Note_on_c,9,42,0,,,,,,,,,,,,,,,,,,,,,,,
11,34088, Note_on_c,9,51,0,,,,,,,,,,,,,,,,,,,,,,,
11,34128, Note_on_c,9,40,66,,,,,,,,,,,,,,,,,,,,,,,
11,34128, Note_on_c,9,42,95,,,,,,,,,,,,,,,,,,,,,,,
11,34136, Note_on_c,9,40,0,,,,,,,,,,,,,,,,,,,,,,,
11,34136, Note_on_c,9,42,0,,,,,,,,,,,,,,,,,,,,,,,
11,34176, Note_on_c,9,36,86,,,,,,,,,,,,,,,,,,,,,,,
11,34176, Note_on_c,9,42,127,,,,,,,,,,,,,,,,,,,,,,,
11,34184, Note_on_c,9,36,0,,,,,,,,,,,,,,,,,,,,,,,
11,34184, Note_on_c,9,42,0,,,,,,,,,,,,,,,,,,,,,,,
11,34224, Note_on_c,9,42,92,,,,,,,,,,,,,,,,,,,,,,,
11,34232, Note_on_c,9,42,0,,,,,,,,,,,,,,,,,,,,,,,
11,34272, Note_on_c,9,36,94,,,,,,,,,,,,,,,,,,,,,,,
11,34272, Note_on_c,9,42,88,,,,,,,,,,,,,,,,,,,,,,,
11,34280, Note_on_c,9,36,0,,,,,,,,,,,,,,,,,,,,,,,
11,34280, Note_on_c,9,42,0,,,,,,,,,,,,,,,,,,,,,,,
11,34320, Note_on_c,9,42,88,,,,,,,,,,,,,,,,,,,,,,,
11,34328, Note_on_c,9,42,0,,,,,,,,,,,,,,,,,,,,,,,
11,34368, Note_on_c,9,40,127,,,,,,,,,,,,,,,,,,,,,,,
11,34368, Note_on_c,9,42,103,,,,,,,,,,,,,,,,,,,,,,,
11,34368, Note_on_c,9,51,107,,,,,,,,,,,,,,,,,,,,,,,
11,34376, Note_on_c,9,40,0,,,,,,,,,,,,,,,,,,,,,,,
11,34376, Note_on_c,9,42,0,,,,,,,,,,,,,,,,,,,,,,,
11,34376, Note_on_c,9,51,0,,,,,,,,,,,,,,,,,,,,,,,
11,34416, Note_on_c,9,42,74,,,,,,,,,,,,,,,,,,,,,,,
11,34424, Note_on_c,9,42,0,,,,,,,,,,,,,,,,,,,,,,,
11,34464, Note_on_c,9,42,92,,,,,,,,,,,,,,,,,,,,,,,
11,34472, Note_on_c,9,42,0,,,,,,,,,,,,,,,,,,,,,,,
11,34512, Note_on_c,9,40,104,,,,,,,,,,,,,,,,,,,,,,,
11,34512, Note_on_c,9,42,99,,,,,,,,,,,,,,,,,,,,,,,
11,34520, Note_on_c,9,40,0,,,,,,,,,,,,,,,,,,,,,,,
11,34520, Note_on_c,9,42,0,,,,,,,,,,,,,,,,,,,,,,,
11,34560, Note_on_c,9,36,90,,,,,,,,,,,,,,,,,,,,,,,
11,34560, Note_on_c,9,42,127,,,,,,,,,,,,,,,,,,,,,,,
11,34560, Note_on_c,9,51,88,,,,,,,,,,,,,,,,,,,,,,,
11,34568, Note_on_c,9,36,0,,,,,,,,,,,,,,,,,,,,,,,
11,34568, Note_on_c,9,42,0,,,,,,,,,,,,,,,,,,,,,,,
11,34568, Note_on_c,9,51,0,,,,,,,,,,,,,,,,,,,,,,,
11,34608, Note_on_c,9,40,127,,,,,,,,,,,,,,,,,,,,,,,
11,34608, Note_on_c,9,42,92,,,,,,,,,,,,,,,,,,,,,,,
11,34616, Note_on_c,9,40,0,,,,,,,,,,,,,,,,,,,,,,,
11,34616, Note_on_c,9,42,0,,,,,,,,,,,,,,,,,,,,,,,
11,34656, Note_on_c,9,36,90,,,,,,,,,,,,,,,,,,,,,,,
11,34656, Note_on_c,9,42,95,,,,,,,,,,,,,,,,,,,,,,,
11,34656, Note_on_c,9,51,92,,,,,,,,,,,,,,,,,,,,,,,
11,34664, Note_on_c,9,36,0,,,,,,,,,,,,,,,,,,,,,,,
11,34664, Note_on_c,9,42,0,,,,,,,,,,,,,,,,,,,,,,,
11,34664, Note_on_c,9,51,0,,,,,,,,,,,,,,,,,,,,,,,
11,34704, Note_on_c,9,42,103,,,,,,,,,,,,,,,,,,,,,,,
11,34712, Note_on_c,9,42,0,,,,,,,,,,,,,,,,,,,,,,,
11,34752, Note_on_c,9,40,127,,,,,,,,,,,,,,,,,,,,,,,
11,34752, Note_on_c,9,42,112,,,,,,,,,,,,,,,,,,,,,,,
11,34752, Note_on_c,9,51,112,,,,,,,,,,,,,,,,,,,,,,,
11,34760, Note_on_c,9,40,0,,,,,,,,,,,,,,,,,,,,,,,
11,34760, Note_on_c,9,42,0,,,,,,,,,,,,,,,,,,,,,,,
11,34760, Note_on_c,9,51,0,,,,,,,,,,,,,,,,,,,,,,,
11,34800, Note_on_c,9,40,72,,,,,,,,,,,,,,,,,,,,,,,
11,34800, Note_on_c,9,42,82,,,,,,,,,,,,,,,,,,,,,,,
11,34808, Note_on_c,9,40,0,,,,,,,,,,,,,,,,,,,,,,,
11,34808, Note_on_c,9,42,0,,,,,,,,,,,,,,,,,,,,,,,
11,34824, Note_on_c,9,40,66,,,,,,,,,,,,,,,,,,,,,,,
11,34832, Note_on_c,9,40,0,,,,,,,,,,,,,,,,,,,,,,,
11,34848, Note_on_c,9,40,76,,,,,,,,,,,,,,,,,,,,,,,
11,34848, Note_on_c,9,42,88,,,,,,,,,,,,,,,,,,,,,,,
11,34848, Note_on_c,9,51,64,,,,,,,,,,,,,,,,,,,,,,,
11,34856, Note_on_c,9,40,0,,,,,,,,,,,,,,,,,,,,,,,
11,34856, Note_on_c,9,42,0,,,,,,,,,,,,,,,,,,,,,,,
11,34856, Note_on_c,9,51,0,,,,,,,,,,,,,,,,,,,,,,,
11,34896, Note_on_c,9,40,66,,,,,,,,,,,,,,,,,,,,,,,
11,34896, Note_on_c,9,42,82,,,,,,,,,,,,,,,,,,,,,,,
11,34904, Note_on_c,9,40,0,,,,,,,,,,,,,,,,,,,,,,,
11,34904, Note_on_c,9,42,0,,,,,,,,,,,,,,,,,,,,,,,
11,34944, Note_on_c,9,36,94,,,,,,,,,,,,,,,,,,,,,,,
11,34944, Note_on_c,9,42,127,,,,,,,,,,,,,,,,,,,,,,,
11,34944, Note_on_c,9,51,107,,,,,,,,,,,,,,,,,,,,,,,
11,34952, Note_on_c,9,36,0,,,,,,,,,,,,,,,,,,,,,,,
11,34952, Note_on_c,9,42,0,,,,,,,,,,,,,,,,,,,,,,,
11,34952, Note_on_c,9,51,0,,,,,,,,,,,,,,,,,,,,,,,
11,34992, Note_on_c,9,42,92,,,,,,,,,,,,,,,,,,,,,,,
11,35000, Note_on_c,9,42,0,,,,,,,,,,,,,,,,,,,,,,,
11,35040, Note_on_c,9,36,94,,,,,,,,,,,,,,,,,,,,,,,
11,35040, Note_on_c,9,42,95,,,,,,,,,,,,,,,,,,,,,,,
11,35040, Note_on_c,9,51,58,,,,,,,,,,,,,,,,,,,,,,,
11,35048, Note_on_c,9,36,0,,,,,,,,,,,,,,,,,,,,,,,
11,35048, Note_on_c,9,42,0,,,,,,,,,,,,,,,,,,,,,,,
11,35048, Note_on_c,9,51,0,,,,,,,,,,,,,,,,,,,,,,,
11,35088, Note_on_c,9,42,86,,,,,,,,,,,,,,,,,,,,,,,
11,35096, Note_on_c,9,42,0,,,,,,,,,,,,,,,,,,,,,,,
11,35136, Note_on_c,9,40,127,,,,,,,,,,,,,,,,,,,,,,,
11,35136, Note_on_c,9,42,127,,,,,,,,,,,,,,,,,,,,,,,
11,35136, Note_on_c,9,51,112,,,,,,,,,,,,,,,,,,,,,,,
11,35144, Note_on_c,9,40,0,,,,,,,,,,,,,,,,,,,,,,,
11,35144, Note_on_c,9,42,0,,,,,,,,,,,,,,,,,,,,,,,
11,35144, Note_on_c,9,51,0,,,,,,,,,,,,,,,,,,,,,,,
11,35184, Note_on_c,9,42,86,,,,,,,,,,,,,,,,,,,,,,,
11,35192, Note_on_c,9,42,0,,,,,,,,,,,,,,,,,,,,,,,
11,35232, Note_on_c,9,42,95,,,,,,,,,,,,,,,,,,,,,,,
11,35232, Note_on_c,9,51,78,,,,,,,,,,,,,,,,,,,,,,,
11,35240, Note_on_c,9,42,0,,,,,,,,,,,,,,,,,,,,,,,
11,35240, Note_on_c,9,51,0,,,,,,,,,,,,,,,,,,,,,,,
11,35280, Note_on_c,9,40,107,,,,,,,,,,,,,,,,,,,,,,,
11,35280, Note_on_c,9,42,99,,,,,,,,,,,,,,,,,,,,,,,
11,35288, Note_on_c,9,40,0,,,,,,,,,,,,,,,,,,,,,,,
11,35288, Note_on_c,9,42,0,,,,,,,,,,,,,,,,,,,,,,,
11,35328, Note_on_c,9,36,99,,,,,,,,,,,,,,,,,,,,,,,
11,35328, Note_on_c,9,42,127,,,,,,,,,,,,,,,,,,,,,,,
11,35328, Note_on_c,9,51,64,,,,,,,,,,,,,,,,,,,,,,,
11,35336, Note_on_c,9,36,0,,,,,,,,,,,,,,,,,,,,,,,
11,35336, Note_on_c,9,42,0,,,,,,,,,,,,,,,,,,,,,,,
11,35336, Note_on_c,9,51,0,,,,,,,,,,,,,,,,,,,,,,,
11,35376, Note_on_c,9,40,127,,,,,,,,,,,,,,,,,,,,,,,
11,35376, Note_on_c,9,42,103,,,,,,,,,,,,,,,,,,,,,,,
11,35384, Note_on_c,9,40,0,,,,,,,,,,,,,,,,,,,,,,,
11,35384, Note_on_c,9,42,0,,,,,,,,,,,,,,,,,,,,,,,
11,35424, Note_on_c,9,36,94,,,,,,,,,,,,,,,,,,,,,,,
11,35424, Note_on_c,9,42,95,,,,,,,,,,,,,,,,,,,,,,,
11,35424, Note_on_c,9,51,112,,,,,,,,,,,,,,,,,,,,,,,
11,35432, Note_on_c,9,36,0,,,,,,,,,,,,,,,,,,,,,,,
11,35432, Note_on_c,9,42,0,,,,,,,,,,,,,,,,,,,,,,,
11,35432, Note_on_c,9,51,0,,,,,,,,,,,,,,,,,,,,,,,
11,35472, Note_on_c,9,42,95,,,,,,,,,,,,,,,,,,,,,,,
11,35480, Note_on_c,9,42,0,,,,,,,,,,,,,,,,,,,,,,,
11,35520, Note_on_c,9,40,127,,,,,,,,,,,,,,,,,,,,,,,
11,35520, Note_on_c,9,42,112,,,,,,,,,,,,,,,,,,,,,,,
11,35520, Note_on_c,9,51,112,,,,,,,,,,,,,,,,,,,,,,,
11,35528, Note_on_c,9,40,0,,,,,,,,,,,,,,,,,,,,,,,
11,35528, Note_on_c,9,42,0,,,,,,,,,,,,,,,,,,,,,,,
11,35528, Note_on_c,9,51,0,,,,,,,,,,,,,,,,,,,,,,,
11,35568, Note_on_c,9,40,80,,,,,,,,,,,,,,,,,,,,,,,
11,35568, Note_on_c,9,42,95,,,,,,,,,,,,,,,,,,,,,,,
11,35576, Note_on_c,9,40,0,,,,,,,,,,,,,,,,,,,,,,,
11,35576, Note_on_c,9,42,0,,,,,,,,,,,,,,,,,,,,,,,
11,35592, Note_on_c,9,40,66,,,,,,,,,,,,,,,,,,,,,,,
11,35600, Note_on_c,9,40,0,,,,,,,,,,,,,,,,,,,,,,,
11,35616, Note_on_c,9,40,84,,,,,,,,,,,,,,,,,,,,,,,
11,35616, Note_on_c,9,42,99,,,,,,,,,,,,,,,,,,,,,,,
11,35616, Note_on_c,9,51,82,,,,,,,,,,,,,,,,,,,,,,,
11,35624, Note_on_c,9,40,0,,,,,,,,,,,,,,,,,,,,,,,
11,35624, Note_on_c,9,42,0,,,,,,,,,,,,,,,,,,,,,,,
11,35624, Note_on_c,9,51,0,,,,,,,,,,,,,,,,,,,,,,,
11,35664, Note_on_c,9,40,63,,,,,,,,,,,,,,,,,,,,,,,
11,35664, Note_on_c,9,42,107,,,,,,,,,,,,,,,,,,,,,,,
11,35672, Note_on_c,9,40,0,,,,,,,,,,,,,,,,,,,,,,,
11,35672, Note_on_c,9,42,0,,,,,,,,,,,,,,,,,,,,,,,
11,35712, Note_on_c,9,36,99,,,,,,,,,,,,,,,,,,,,,,,
11,35712, Note_on_c,9,42,127,,,,,,,,,,,,,,,,,,,,,,,
11,35712, Note_on_c,9,51,127,,,,,,,,,,,,,,,,,,,,,,,
11,35720, Note_on_c,9,36,0,,,,,,,,,,,,,,,,,,,,,,,
11,35720, Note_on_c,9,42,0,,,,,,,,,,,,,,,,,,,,,,,
11,35720, Note_on_c,9,51,0,,,,,,,,,,,,,,,,,,,,,,,
11,35760, Note_on_c,9,42,103,,,,,,,,,,,,,,,,,,,,,,,
11,35768, Note_on_c,9,42,0,,,,,,,,,,,,,,,,,,,,,,,
11,35808, Note_on_c,9,36,94,,,,,,,,,,,,,,,,,,,,,,,
11,35808, Note_on_c,9,42,88,,,,,,,,,,,,,,,,,,,,,,,
11,35808, Note_on_c,9,51,72,,,,,,,,,,,,,,,,,,,,,,,
11,35816, Note_on_c,9,36,0,,,,,,,,,,,,,,,,,,,,,,,
11,35816, Note_on_c,9,42,0,,,,,,,,,,,,,,,,,,,,,,,
11,35816, Note_on_c,9,51,0,,,,,,,,,,,,,,,,,,,,,,,
11,35856, Note_on_c,9,40,40,,,,,,,,,,,,,,,,,,,,,,,
11,35856, Note_on_c,9,42,99,,,,,,,,,,,,,,,,,,,,,,,
11,35864, Note_on_c,9,40,0,,,,,,,,,,,,,,,,,,,,,,,
11,35864, Note_on_c,9,42,0,,,,,,,,,,,,,,,,,,,,,,,
11,35904, Note_on_c,9,40,127,,,,,,,,,,,,,,,,,,,,,,,
11,35904, Note_on_c,9,42,107,,,,,,,,,,,,,,,,,,,,,,,
11,35904, Note_on_c,9,51,127,,,,,,,,,,,,,,,,,,,,,,,
11,35912, Note_on_c,9,40,0,,,,,,,,,,,,,,,,,,,,,,,
11,35912, Note_on_c,9,42,0,,,,,,,,,,,,,,,,,,,,,,,
11,35912, Note_on_c,9,51,0,,,,,,,,,,,,,,,,,,,,,,,
11,35952, Note_on_c,9,42,95,,,,,,,,,,,,,,,,,,,,,,,
11,35960, Note_on_c,9,42,0,,,,,,,,,,,,,,,,,,,,,,,
11,36000, Note_on_c,9,42,95,,,,,,,,,,,,,,,,,,,,,,,
11,36000, Note_on_c,9,51,92,,,,,,,,,,,,,,,,,,,,,,,
11,36008, Note_on_c,9,42,0,,,,,,,,,,,,,,,,,,,,,,,
11,36008, Note_on_c,9,51,0,,,,,,,,,,,,,,,,,,,,,,,
11,36048, Note_on_c,9,40,107,,,,,,,,,,,,,,,,,,,,,,,
11,36048, Note_on_c,9,42,112,,,,,,,,,,,,,,,,,,,,,,,
11,36056, Note_on_c,9,40,0,,,,,,,,,,,,,,,,,,,,,,,
11,36056, Note_on_c,9,42,0,,,,,,,,,,,,,,,,,,,,,,,
11,36096, Note_on_c,9,36,99,,,,,,,,,,,,,,,,,,,,,,,
11,36096, Note_on_c,9,42,112,,,,,,,,,,,,,,,,,,,,,,,
11,36096, Note_on_c,9,51,92,,,,,,,,,,,,,,,,,,,,,,,
11,36104, Note_on_c,9,36,0,,,,,,,,,,,,,,,,,,,,,,,
11,36104, Note_on_c,9,42,0,,,,,,,,,,,,,,,,,,,,,,,
11,36104, Note_on_c,9,51,0,,,,,,,,,,,,,,,,,,,,,,,
11,36144, Note_on_c,9,40,127,,,,,,,,,,,,,,,,,,,,,,,
11,36144, Note_on_c,9,42,107,,,,,,,,,,,,,,,,,,,,,,,
11,36152, Note_on_c,9,40,0,,,,,,,,,,,,,,,,,,,,,,,
11,36152, Note_on_c,9,42,0,,,,,,,,,,,,,,,,,,,,,,,
11,36192, Note_on_c,9,36,86,,,,,,,,,,,,,,,,,,,,,,,
11,36192, Note_on_c,9,42,92,,,,,,,,,,,,,,,,,,,,,,,
11,36192, Note_on_c,9,51,127,,,,,,,,,,,,,,,,,,,,,,,
11,36200, Note_on_c,9,36,0,,,,,,,,,,,,,,,,,,,,,,,
11,36200, Note_on_c,9,42,0,,,,,,,,,,,,,,,,,,,,,,,
11,36200, Note_on_c,9,51,0,,,,,,,,,,,,,,,,,,,,,,,
11,36240, Note_on_c,9,42,95,,,,,,,,,,,,,,,,,,,,,,,
11,36248, Note_on_c,9,42,0,,,,,,,,,,,,,,,,,,,,,,,
11,36288, Note_on_c,9,40,127,,,,,,,,,,,,,,,,,,,,,,,
11,36288, Note_on_c,9,42,99,,,,,,,,,,,,,,,,,,,,,,,
11,36288, Note_on_c,9,51,112,,,,,,,,,,,,,,,,,,,,,,,
11,36296, Note_on_c,9,40,0,,,,,,,,,,,,,,,,,,,,,,,
11,36296, Note_on_c,9,42,0,,,,,,,,,,,,,,,,,,,,,,,
11,36296, Note_on_c,9,51,0,,,,,,,,,,,,,,,,,,,,,,,
11,36336, Note_on_c,9,40,84,,,,,,,,,,,,,,,,,,,,,,,
11,36336, Note_on_c,9,42,99,,,,,,,,,,,,,,,,,,,,,,,
11,36344, Note_on_c,9,40,0,,,,,,,,,,,,,,,,,,,,,,,
11,36344, Note_on_c,9,42,0,,,,,,,,,,,,,,,,,,,,,,,
11,36360, Note_on_c,9,40,66,,,,,,,,,,,,,,,,,,,,,,,
11,36368, Note_on_c,9,40,0,,,,,,,,,,,,,,,,,,,,,,,
11,36384, Note_on_c,9,40,89,,,,,,,,,,,,,,,,,,,,,,,
11,36384, Note_on_c,9,42,103,,,,,,,,,,,,,,,,,,,,,,,
11,36384, Note_on_c,9,51,112,,,,,,,,,,,,,,,,,,,,,,,
11,36392, Note_on_c,9,40,0,,,,,,,,,,,,,,,,,,,,,,,
11,36392, Note_on_c,9,42,0,,,,,,,,,,,,,,,,,,,,,,,
11,36392, Note_on_c,9,51,0,,,,,,,,,,,,,,,,,,,,,,,
11,36432, Note_on_c,9,40,66,,,,,,,,,,,,,,,,,,,,,,,
11,36432, Note_on_c,9,42,112,,,,,,,,,,,,,,,,,,,,,,,
11,36440, Note_on_c,9,40,0,,,,,,,,,,,,,,,,,,,,,,,
11,36440, Note_on_c,9,42,0,,,,,,,,,,,,,,,,,,,,,,,
11,36480, Note_on_c,9,36,99,,,,,,,,,,,,,,,,,,,,,,,
11,36480, Note_on_c,9,42,127,,,,,,,,,,,,,,,,,,,,,,,
11,36480, Note_on_c,9,51,112,,,,,,,,,,,,,,,,,,,,,,,
11,36488, Note_on_c,9,36,0,,,,,,,,,,,,,,,,,,,,,,,
11,36488, Note_on_c,9,42,0,,,,,,,,,,,,,,,,,,,,,,,
11,36488, Note_on_c,9,51,0,,,,,,,,,,,,,,,,,,,,,,,
11,36528, Note_on_c,9,42,103,,,,,,,,,,,,,,,,,,,,,,,
11,36536, Note_on_c,9,42,0,,,,,,,,,,,,,,,,,,,,,,,
11,36576, Note_on_c,9,36,94,,,,,,,,,,,,,,,,,,,,,,,
11,36576, Note_on_c,9,42,92,,,,,,,,,,,,,,,,,,,,,,,
11,36576, Note_on_c,9,51,82,,,,,,,,,,,,,,,,,,,,,,,
11,36584, Note_on_c,9,36,0,,,,,,,,,,,,,,,,,,,,,,,
11,36584, Note_on_c,9,42,0,,,,,,,,,,,,,,,,,,,,,,,
11,36584, Note_on_c,9,51,0,,,,,,,,,,,,,,,,,,,,,,,
11,36624, Note_on_c,9,42,99,,,,,,,,,,,,,,,,,,,,,,,
11,36632, Note_on_c,9,42,0,,,,,,,,,,,,,,,,,,,,,,,
11,36672, Note_on_c,9,40,127,,,,,,,,,,,,,,,,,,,,,,,
11,36672, Note_on_c,9,42,112,,,,,,,,,,,,,,,,,,,,,,,
11,36672, Note_on_c,9,51,127,,,,,,,,,,,,,,,,,,,,,,,
11,36680, Note_on_c,9,40,0,,,,,,,,,,,,,,,,,,,,,,,
11,36680, Note_on_c,9,42,0,,,,,,,,,,,,,,,,,,,,,,,
11,36680, Note_on_c,9,51,0,,,,,,,,,,,,,,,,,,,,,,,
11,36720, Note_on_c,9,42,88,,,,,,,,,,,,,,,,,,,,,,,
11,36728, Note_on_c,9,42,0,,,,,,,,,,,,,,,,,,,,,,,
11,36768, Note_on_c,9,42,86,,,,,,,,,,,,,,,,,,,,,,,
11,36768, Note_on_c,9,51,78,,,,,,,,,,,,,,,,,,,,,,,
11,36776, Note_on_c,9,42,0,,,,,,,,,,,,,,,,,,,,,,,
11,36776, Note_on_c,9,51,0,,,,,,,,,,,,,,,,,,,,,,,
11,36816, Note_on_c,9,40,98,,,,,,,,,,,,,,,,,,,,,,,
11,36816, Note_on_c,9,42,107,,,,,,,,,,,,,,,,,,,,,,,
11,36824, Note_on_c,9,40,0,,,,,,,,,,,,,,,,,,,,,,,
11,36824, Note_on_c,9,42,0,,,,,,,,,,,,,,,,,,,,,,,
11,36864, Note_on_c,9,36,99,,,,,,,,,,,,,,,,,,,,,,,
11,36864, Note_on_c,9,42,112,,,,,,,,,,,,,,,,,,,,,,,
11,36864, Note_on_c,9,51,86,,,,,,,,,,,,,,,,,,,,,,,
11,36872, Note_on_c,9,36,0,,,,,,,,,,,,,,,,,,,,,,,
11,36872, Note_on_c,9,42,0,,,,,,,,,,,,,,,,,,,,,,,
11,36872, Note_on_c,9,51,0,,,,,,,,,,,,,,,,,,,,,,,
11,36912, Note_on_c,9,40,127,,,,,,,,,,,,,,,,,,,,,,,
11,36912, Note_on_c,9,42,103,,,,,,,,,,,,,,,,,,,,,,,
11,36920, Note_on_c,9,40,0,,,,,,,,,,,,,,,,,,,,,,,
11,36920, Note_on_c,9,42,0,,,,,,,,,,,,,,,,,,,,,,,
11,36960, Note_on_c,9,36,90,,,,,,,,,,,,,,,,,,,,,,,
11,36960, Note_on_c,9,42,88,,,,,,,,,,,,,,,,,,,,,,,
11,36960, Note_on_c,9,51,127,,,,,,,,,,,,,,,,,,,,,,,
11,36968, Note_on_c,9,36,0,,,,,,,,,,,,,,,,,,,,,,,
11,36968, Note_on_c,9,42,0,,,,,,,,,,,,,,,,,,,,,,,
11,36968, Note_on_c,9,51,0,,,,,,,,,,,,,,,,,,,,,,,
11,37008, Note_on_c,9,42,99,,,,,,,,,,,,,,,,,,,,,,,
11,37016, Note_on_c,9,42,0,,,,,,,,,,,,,,,,,,,,,,,
11,37056, Note_on_c,9,40,127,,,,,,,,,,,,,,,,,,,,,,,
11,37056, Note_on_c,9,42,103,,,,,,,,,,,,,,,,,,,,,,,
11,37056, Note_on_c,9,51,112,,,,,,,,,,,,,,,,,,,,,,,
11,37064, Note_on_c,9,40,0,,,,,,,,,,,,,,,,,,,,,,,
11,37064, Note_on_c,9,42,0,,,,,,,,,,,,,,,,,,,,,,,
11,37064, Note_on_c,9,51,0,,,,,,,,,,,,,,,,,,,,,,,
11,37104, Note_on_c,9,40,76,,,,,,,,,,,,,,,,,,,,,,,
11,37104, Note_on_c,9,42,92,,,,,,,,,,,,,,,,,,,,,,,
11,37112, Note_on_c,9,40,0,,,,,,,,,,,,,,,,,,,,,,,
11,37112, Note_on_c,9,42,0,,,,,,,,,,,,,,,,,,,,,,,
11,37128, Note_on_c,9,40,63,,,,,,,,,,,,,,,,,,,,,,,
11,37136, Note_on_c,9,40,0,,,,,,,,,,,,,,,,,,,,,,,
11,37152, Note_on_c,9,40,84,,,,,,,,,,,,,,,,,,,,,,,
11,37152, Note_on_c,9,42,88,,,,,,,,,,,,,,,,,,,,,,,
11,37160, Note_on_c,9,40,0,,,,,,,,,,,,,,,,,,,,,,,
11,37160, Note_on_c,9,42,0,,,,,,,,,,,,,,,,,,,,,,,
11,37200, Note_on_c,9,40,69,,,,,,,,,,,,,,,,,,,,,,,
11,37200, Note_on_c,9,42,107,,,,,,,,,,,,,,,,,,,,,,,
11,37208, Note_on_c,9,40,0,,,,,,,,,,,,,,,,,,,,,,,
11,37208, Note_on_c,9,42,0,,,,,,,,,,,,,,,,,,,,,,,
11,37248, Note_on_c,9,36,94,,,,,,,,,,,,,,,,,,,,,,,
11,37248, Note_on_c,9,42,127,,,,,,,,,,,,,,,,,,,,,,,
11,37248, Note_on_c,9,51,112,,,,,,,,,,,,,,,,,,,,,,,
11,37256, Note_on_c,9,36,0,,,,,,,,,,,,,,,,,,,,,,,
11,37256, Note_on_c,9,42,0,,,,,,,,,,,,,,,,,,,,,,,
11,37256, Note_on_c,9,51,0,,,,,,,,,,,,,,,,,,,,,,,
11,37296, Note_on_c,9,42,107,,,,,,,,,,,,,,,,,,,,,,,
11,37304, Note_on_c,9,42,0,,,,,,,,,,,,,,,,,,,,,,,
11,37344, Note_on_c,9,36,86,,,,,,,,,,,,,,,,,,,,,,,
11,37344, Note_on_c,9,42,92,,,,,,,,,,,,,,,,,,,,,,,
11,37344, Note_on_c,9,51,70,,,,,,,,,,,,,,,,,,,,,,,
11,37352, Note_on_c,9,36,0,,,,,,,,,,,,,,,,,,,,,,,
11,37352, Note_on_c,9,42,0,,,,,,,,,,,,,,,,,,,,,,,
11,37352, Note_on_c,9,51,0,,,,,,,,,,,,,,,,,,,,,,,
11,37392, Note_on_c,9,40,66,,,,,,,,,,,,,,,,,,,,,,,
11,37392, Note_on_c,9,42,103,,,,,,,,,,,,,,,,,,,,,,,
11,37400, Note_on_c,9,40,0,,,,,,,,,,,,,,,,,,,,,,,
11,37400, Note_on_c,9,42,0,,,,,,,,,,,,,,,,,,,,,,,
11,37440, Note_on_c,9,40,127,,,,,,,,,,,,,,,,,,,,,,,
11,37440, Note_on_c,9,42,99,,,,,,,,,,,,,,,,,,,,,,,
11,37440, Note_on_c,9,51,112,,,,,,,,,,,,,,,,,,,,,,,
11,37448, Note_on_c,9,40,0,,,,,,,,,,,,,,,,,,,,,,,
11,37448, Note_on_c,9,42,0,,,,,,,,,,,,,,,,,,,,,,,
11,37448, Note_on_c,9,51,0,,,,,,,,,,,,,,,,,,,,,,,
11,37488, Note_on_c,9,42,95,,,,,,,,,,,,,,,,,,,,,,,
11,37496, Note_on_c,9,42,0,,,,,,,,,,,,,,,,,,,,,,,
11,37536, Note_on_c,9,42,95,,,,,,,,,,,,,,,,,,,,,,,
11,37544, Note_on_c,9,42,0,,,,,,,,,,,,,,,,,,,,,,,
11,37584, Note_on_c,9,40,88,,,,,,,,,,,,,,,,,,,,,,,
11,37584, Note_on_c,9,42,107,,,,,,,,,,,,,,,,,,,,,,,
11,37592, Note_on_c,9,40,0,,,,,,,,,,,,,,,,,,,,,,,
11,37592, Note_on_c,9,42,0,,,,,,,,,,,,,,,,,,,,,,,
11,37632, Note_on_c,9,36,94,,,,,,,,,,,,,,,,,,,,,,,
11,37632, Note_on_c,9,42,112,,,,,,,,,,,,,,,,,,,,,,,
11,37632, Note_on_c,9,51,74,,,,,,,,,,,,,,,,,,,,,,,
11,37640, Note_on_c,9,36,0,,,,,,,,,,,,,,,,,,,,,,,
11,37640, Note_on_c,9,42,0,,,,,,,,,,,,,,,,,,,,,,,
11,37640, Note_on_c,9,51,0,,,,,,,,,,,,,,,,,,,,,,,
11,37680, Note_on_c,9,40,127,,,,,,,,,,,,,,,,,,,,,,,
11,37680, Note_on_c,9,42,107,,,,,,,,,,,,,,,,,,,,,,,
11,37688, Note_on_c,9,40,0,,,,,,,,,,,,,,,,,,,,,,,
11,37688, Note_on_c,9,42,0,,,,,,,,,,,,,,,,,,,,,,,
11,37728, Note_on_c,9,36,79,,,,,,,,,,,,,,,,,,,,,,,
11,37728, Note_on_c,9,42,95,,,,,,,,,,,,,,,,,,,,,,,
11,37728, Note_on_c,9,51,112,,,,,,,,,,,,,,,,,,,,,,,
11,37736, Note_on_c,9,36,0,,,,,,,,,,,,,,,,,,,,,,,
11,37736, Note_on_c,9,42,0,,,,,,,,,,,,,,,,,,,,,,,
11,37736, Note_on_c,9,51,0,,,,,,,,,,,,,,,,,,,,,,,
11,37776, Note_on_c,9,42,107,,,,,,,,,,,,,,,,,,,,,,,
11,37784, Note_on_c,9,42,0,,,,,,,,,,,,,,,,,,,,,,,
11,37824, Note_on_c,9,40,127,,,,,,,,,,,,,,,,,,,,,,,
11,37824, Note_on_c,9,42,107,,,,,,,,,,,,,,,,,,,,,,,
11,37824, Note_on_c,9,51,112,,,,,,,,,,,,,,,,,,,,,,,
11,37832, Note_on_c,9,40,0,,,,,,,,,,,,,,,,,,,,,,,
11,37832, Note_on_c,9,42,0,,,,,,,,,,,,,,,,,,,,,,,
11,37832, Note_on_c,9,51,0,,,,,,,,,,,,,,,,,,,,,,,
11,37872, Note_on_c,9,40,80,,,,,,,,,,,,,,,,,,,,,,,
11,37872, Note_on_c,9,42,103,,,,,,,,,,,,,,,,,,,,,,,
11,37880, Note_on_c,9,40,0,,,,,,,,,,,,,,,,,,,,,,,
11,37880, Note_on_c,9,42,0,,,,,,,,,,,,,,,,,,,,,,,
11,37896, Note_on_c,9,40,69,,,,,,,,,,,,,,,,,,,,,,,
11,37904, Note_on_c,9,40,0,,,,,,,,,,,,,,,,,,,,,,,
11,37920, Note_on_c,9,40,80,,,,,,,,,,,,,,,,,,,,,,,
11,37920, Note_on_c,9,42,99,,,,,,,,,,,,,,,,,,,,,,,
11,37920, Note_on_c,9,51,82,,,,,,,,,,,,,,,,,,,,,,,
11,37928, Note_on_c,9,40,0,,,,,,,,,,,,,,,,,,,,,,,
11,37928, Note_on_c,9,42,0,,,,,,,,,,,,,,,,,,,,,,,
11,37928, Note_on_c,9,51,0,,,,,,,,,,,,,,,,,,,,,,,
11,37968, Note_on_c,9,40,63,,,,,,,,,,,,,,,,,,,,,,,
11,37968, Note_on_c,9,42,103,,,,,,,,,,,,,,,,,,,,,,,
11,37976, Note_on_c,9,40,0,,,,,,,,,,,,,,,,,,,,,,,
11,37976, Note_on_c,9,42,0,,,,,,,,,,,,,,,,,,,,,,,
11,38016, Note_on_c,9,36,99,,,,,,,,,,,,,,,,,,,,,,,
11,38016, Note_on_c,9,42,112,,,,,,,,,,,,,,,,,,,,,,,
11,38016, Note_on_c,9,51,112,,,,,,,,,,,,,,,,,,,,,,,
11,38024, Note_on_c,9,36,0,,,,,,,,,,,,,,,,,,,,,,,
11,38024, Note_on_c,9,42,0,,,,,,,,,,,,,,,,,,,,,,,
11,38024, Note_on_c,9,51,0,,,,,,,,,,,,,,,,,,,,,,,
11,38064, Note_on_c,9,42,103,,,,,,,,,,,,,,,,,,,,,,,
11,38072, Note_on_c,9,42,0,,,,,,,,,,,,,,,,,,,,,,,
11,38112, Note_on_c,9,36,90,,,,,,,,,,,,,,,,,,,,,,,
11,38112, Note_on_c,9,42,95,,,,,,,,,,,,,,,,,,,,,,,
11,38112, Note_on_c,9,51,78,,,,,,,,,,,,,,,,,,,,,,,
11,38120, Note_on_c,9,36,0,,,,,,,,,,,,,,,,,,,,,,,
11,38120, Note_on_c,9,42,0,,,,,,,,,,,,,,,,,,,,,,,
11,38120, Note_on_c,9,51,0,,,,,,,,,,,,,,,,,,,,,,,
11,38160, Note_on_c,9,42,103,,,,,,,,,,,,,,,,,,,,,,,
11,38168, Note_on_c,9,42,0,,,,,,,,,,,,,,,,,,,,,,,
11,38208, Note_on_c,9,40,127,,,,,,,,,,,,,,,,,,,,,,,
11,38208, Note_on_c,9,42,107,,,,,,,,,,,,,,,,,,,,,,,
11,38208, Note_on_c,9,51,112,,,,,,,,,,,,,,,,,,,,,,,
11,38216, Note_on_c,9,40,0,,,,,,,,,,,,,,,,,,,,,,,
11,38216, Note_on_c,9,42,0,,,,,,,,,,,,,,,,,,,,,,,
11,38216, Note_on_c,9,51,0,,,,,,,,,,,,,,,,,,,,,,,
11,38256, Note_on_c,9,42,103,,,,,,,,,,,,,,,,,,,,,,,
11,38264, Note_on_c,9,42,0,,,,,,,,,,,,,,,,,,,,,,,
11,38304, Note_on_c,9,42,88,,,,,,,,,,,,,,,,,,,,,,,
11,38304, Note_on_c,9,51,52,,,,,,,,,,,,,,,,,,,,,,,
11,38312, Note_on_c,9,42,0,,,,,,,,,,,,,,,,,,,,,,,
11,38312, Note_on_c,9,51,0,,,,,,,,,,,,,,,,,,,,,,,
11,38352, Note_on_c,9,40,110,,,,,,,,,,,,,,,,,,,,,,,
11,38352, Note_on_c,9,42,107,,,,,,,,,,,,,,,,,,,,,,,
11,38360, Note_on_c,9,40,0,,,,,,,,,,,,,,,,,,,,,,,
11,38360, Note_on_c,9,42,0,,,,,,,,,,,,,,,,,,,,,,,
11,38400, Note_on_c,9,36,90,,,,,,,,,,,,,,,,,,,,,,,
11,38400, Note_on_c,9,42,112,,,,,,,,,,,,,,,,,,,,,,,
11,38400, Note_on_c,9,51,95,,,,,,,,,,,,,,,,,,,,,,,
11,38408, Note_on_c,9,36,0,,,,,,,,,,,,,,,,,,,,,,,
11,38408, Note_on_c,9,42,0,,,,,,,,,,,,,,,,,,,,,,,
11,38408, Note_on_c,9,51,0,,,,,,,,,,,,,,,,,,,,,,,
11,38448, Note_on_c,9,40,127,,,,,,,,,,,,,,,,,,,,,,,
11,38448, Note_on_c,9,42,103,,,,,,,,,,,,,,,,,,,,,,,
11,38456, Note_on_c,9,40,0,,,,,,,,,,,,,,,,,,,,,,,
11,38456, Note_on_c,9,42,0,,,,,,,,,,,,,,,,,,,,,,,
11,38496, Note_on_c,9,36,90,,,,,,,,,,,,,,,,,,,,,,,
11,38496, Note_on_c,9,42,86,,,,,,,,,,,,,,,,,,,,,,,
11,38496, Note_on_c,9,51,112,,,,,,,,,,,,,,,,,,,,,,,
11,38504, Note_on_c,9,36,0,,,,,,,,,,,,,,,,,,,,,,,
11,38504, Note_on_c,9,42,0,,,,,,,,,,,,,,,,,,,,,,,
11,38504, Note_on_c,9,51,0,,,,,,,,,,,,,,,,,,,,,,,
11,38544, Note_on_c,9,42,95,,,,,,,,,,,,,,,,,,,,,,,
11,38552, Note_on_c,9,42,0,,,,,,,,,,,,,,,,,,,,,,,
11,38592, Note_on_c,9,40,127,,,,,,,,,,,,,,,,,,,,,,,
11,38592, Note_on_c,9,42,107,,,,,,,,,,,,,,,,,,,,,,,
11,38592, Note_on_c,9,51,112,,,,,,,,,,,,,,,,,,,,,,,
11,38600, Note_on_c,9,40,0,,,,,,,,,,,,,,,,,,,,,,,
11,38600, Note_on_c,9,42,0,,,,,,,,,,,,,,,,,,,,,,,
11,38600, Note_on_c,9,51,0,,,,,,,,,,,,,,,,,,,,,,,
11,38640, Note_on_c,9,42,103,,,,,,,,,,,,,,,,,,,,,,,
11,38648, Note_on_c,9,42,0,,,,,,,,,,,,,,,,,,,,,,,
11,38688, Note_on_c,9,40,98,,,,,,,,,,,,,,,,,,,,,,,
11,38688, Note_on_c,9,42,103,,,,,,,,,,,,,,,,,,,,,,,
11,38688, Note_on_c,9,51,59,,,,,,,,,,,,,,,,,,,,,,,
11,38696, Note_on_c,9,40,0,,,,,,,,,,,,,,,,,,,,,,,
11,38696, Note_on_c,9,42,0,,,,,,,,,,,,,,,,,,,,,,,
11,38696, Note_on_c,9,51,0,,,,,,,,,,,,,,,,,,,,,,,
11,38736, Note_on_c,9,40,104,,,,,,,,,,,,,,,,,,,,,,,
11,38736, Note_on_c,9,42,107,,,,,,,,,,,,,,,,,,,,,,,
11,38744, Note_on_c,9,40,0,,,,,,,,,,,,,,,,,,,,,,,
11,38744, Note_on_c,9,42,0,,,,,,,,,,,,,,,,,,,,,,,
11,38784, Note_on_c,9,36,94,,,,,,,,,,,,,,,,,,,,,,,
11,38784, Note_on_c,9,42,112,,,,,,,,,,,,,,,,,,,,,,,
11,38784, Note_on_c,9,51,112,,,,,,,,,,,,,,,,,,,,,,,
11,38792, Note_on_c,9,36,0,,,,,,,,,,,,,,,,,,,,,,,
11,38792, Note_on_c,9,42,0,,,,,,,,,,,,,,,,,,,,,,,
11,38792, Note_on_c,9,51,0,,,,,,,,,,,,,,,,,,,,,,,
11,38832, Note_on_c,9,42,107,,,,,,,,,,,,,,,,,,,,,,,
11,38840, Note_on_c,9,42,0,,,,,,,,,,,,,,,,,,,,,,,
11,38880, Note_on_c,9,36,94,,,,,,,,,,,,,,,,,,,,,,,
11,38880, Note_on_c,9,42,92,,,,,,,,,,,,,,,,,,,,,,,
11,38880, Note_on_c,9,51,67,,,,,,,,,,,,,,,,,,,,,,,
11,38888, Note_on_c,9,36,0,,,,,,,,,,,,,,,,,,,,,,,
11,38888, Note_on_c,9,42,0,,,,,,,,,,,,,,,,,,,,,,,
11,38888, Note_on_c,9,51,0,,,,,,,,,,,,,,,,,,,,,,,
11,38928, Note_on_c,9,42,99,,,,,,,,,,,,,,,,,,,,,,,
11,38936, Note_on_c,9,42,0,,,,,,,,,,,,,,,,,,,,,,,
11,38976, Note_on_c,9,40,127,,,,,,,,,,,,,,,,,,,,,,,
11,38976, Note_on_c,9,42,112,,,,,,,,,,,,,,,,,,,,,,,
11,38976, Note_on_c,9,51,112,,,,,,,,,,,,,,,,,,,,,,,
11,38984, Note_on_c,9,40,0,,,,,,,,,,,,,,,,,,,,,,,
11,38984, Note_on_c,9,42,0,,,,,,,,,,,,,,,,,,,,,,,
11,38984, Note_on_c,9,51,0,,,,,,,,,,,,,,,,,,,,,,,
11,39024, Note_on_c,9,42,86,,,,,,,,,,,,,,,,,,,,,,,
11,39032, Note_on_c,9,42,0,,,,,,,,,,,,,,,,,,,,,,,
11,39072, Note_on_c,9,42,86,,,,,,,,,,,,,,,,,,,,,,,
11,39072, Note_on_c,9,51,44,,,,,,,,,,,,,,,,,,,,,,,
11,39080, Note_on_c,9,42,0,,,,,,,,,,,,,,,,,,,,,,,
11,39080, Note_on_c,9,51,0,,,,,,,,,,,,,,,,,,,,,,,
11,39120, Note_on_c,9,40,101,,,,,,,,,,,,,,,,,,,,,,,
11,39120, Note_on_c,9,42,99,,,,,,,,,,,,,,,,,,,,,,,
11,39128, Note_on_c,9,40,0,,,,,,,,,,,,,,,,,,,,,,,
11,39128, Note_on_c,9,42,0,,,,,,,,,,,,,,,,,,,,,,,
11,39168, Note_on_c,9,36,90,,,,,,,,,,,,,,,,,,,,,,,
11,39168, Note_on_c,9,42,112,,,,,,,,,,,,,,,,,,,,,,,
11,39168, Note_on_c,9,51,103,,,,,,,,,,,,,,,,,,,,,,,
11,39176, Note_on_c,9,36,0,,,,,,,,,,,,,,,,,,,,,,,
11,39176, Note_on_c,9,42,0,,,,,,,,,,,,,,,,,,,,,,,
11,39176, Note_on_c,9,51,0,,,,,,,,,,,,,,,,,,,,,,,
11,39216, Note_on_c,9,40,118,,,,,,,,,,,,,,,,,,,,,,,
11,39216, Note_on_c,9,42,107,,,,,,,,,,,,,,,,,,,,,,,
11,39224, Note_on_c,9,40,0,,,,,,,,,,,,,,,,,,,,,,,
11,39224, Note_on_c,9,42,0,,,,,,,,,,,,,,,,,,,,,,,
11,39240, Note_on_c,9,40,114,,,,,,,,,,,,,,,,,,,,,,,
11,39248, Note_on_c,9,40,0,,,,,,,,,,,,,,,,,,,,,,,
11,39264, Note_on_c,9,36,90,,,,,,,,,,,,,,,,,,,,,,,
11,39264, Note_on_c,9,40,127,,,,,,,,,,,,,,,,,,,,,,,
11,39264, Note_on_c,9,42,95,,,,,,,,,,,,,,,,,,,,,,,
11,39264, Note_on_c,9,51,112,,,,,,,,,,,,,,,,,,,,,,,
11,39272, Note_on_c,9,36,0,,,,,,,,,,,,,,,,,,,,,,,
11,39272, Note_on_c,9,40,0,,,,,,,,,,,,,,,,,,,,,,,
11,39272, Note_on_c,9,42,0,,,,,,,,,,,,,,,,,,,,,,,
11,39272, Note_on_c,9,51,0,,,,,,,,,,,,,,,,,,,,,,,
11,39312, Note_on_c,9,40,127,,,,,,,,,,,,,,,,,,,,,,,
11,39312, Note_on_c,9,42,103,,,,,,,,,,,,,,,,,,,,,,,
11,39320, Note_on_c,9,40,0,,,,,,,,,,,,,,,,,,,,,,,
11,39320, Note_on_c,9,42,0,,,,,,,,,,,,,,,,,,,,,,,
11,39360, Note_on_c,9,40,120,,,,,,,,,,,,,,,,,,,,,,,
11,39360, Note_on_c,9,42,112,,,,,,,,,,,,,,,,,,,,,,,
11,39360, Note_on_c,9,51,103,,,,,,,,,,,,,,,,,,,,,,,
11,39368, Note_on_c,9,40,0,,,,,,,,,,,,,,,,,,,,,,,
11,39368, Note_on_c,9,42,0,,,,,,,,,,,,,,,,,,,,,,,
11,39368, Note_on_c,9,51,0,,,,,,,,,,,,,,,,,,,,,,,
11,39408, Note_on_c,9,40,124,,,,,,,,,,,,,,,,,,,,,,,
11,39408, Note_on_c,9,42,107,,,,,,,,,,,,,,,,,,,,,,,
11,39416, Note_on_c,9,40,0,,,,,,,,,,,,,,,,,,,,,,,
11,39416, Note_on_c,9,42,0,,,,,,,,,,,,,,,,,,,,,,,
11,39456, Note_on_c,9,36,127,,,,,,,,,,,,,,,,,,,,,,,
11,39456, Note_on_c,9,42,95,,,,,,,,,,,,,,,,,,,,,,,
11,39456, Note_on_c,9,51,103,,,,,,,,,,,,,,,,,,,,,,,
11,39464, Note_on_c,9,36,0,,,,,,,,,,,,,,,,,,,,,,,
11,39464, Note_on_c,9,42,0,,,,,,,,,,,,,,,,,,,,,,,
11,39464, Note_on_c,9,51,0,,,,,,,,,,,,,,,,,,,,,,,
11,39552, Note_on_c,9,36,95,,,,,,,,,,,,,,,,,,,,,,,
11,39552, Note_on_c,9,42,112,,,,,,,,,,,,,,,,,,,,,,,
11,39552, Note_on_c,9,52,88,,,,,,,,,,,,,,,,,,,,,,,
11,39560, Note_on_c,9,36,0,,,,,,,,,,,,,,,,,,,,,,,
11,39560, Note_on_c,9,42,0,,,,,,,,,,,,,,,,,,,,,,,
11,39560, Note_on_c,9,52,0,,,,,,,,,,,,,,,,,,,,,,,
11,39600, Note_on_c,9,42,88,,,,,,,,,,,,,,,,,,,,,,,
11,39608, Note_on_c,9,42,0,,,,,,,,,,,,,,,,,,,,,,,
11,39648, Note_on_c,9,36,100,,,,,,,,,,,,,,,,,,,,,,,
11,39648, Note_on_c,9,42,107,,,,,,,,,,,,,,,,,,,,,,,
11,39656, Note_on_c,9,36,0,,,,,,,,,,,,,,,,,,,,,,,
11,39656, Note_on_c,9,42,0,,,,,,,,,,,,,,,,,,,,,,,
11,39696, Note_on_c,9,42,103,,,,,,,,,,,,,,,,,,,,,,,
11,39704, Note_on_c,9,42,0,,,,,,,,,,,,,,,,,,,,,,,
11,39744, Note_on_c,9,40,127,,,,,,,,,,,,,,,,,,,,,,,
11,39744, Note_on_c,9,42,103,,,,,,,,,,,,,,,,,,,,,,,
11,39744, Note_on_c,9,54,112,,,,,,,,,,,,,,,,,,,,,,,
11,39752, Note_on_c,9,40,0,,,,,,,,,,,,,,,,,,,,,,,
11,39752, Note_on_c,9,42,0,,,,,,,,,,,,,,,,,,,,,,,
11,39752, Note_on_c,9,54,0,,,,,,,,,,,,,,,,,,,,,,,
11,39792, Note_on_c,9,42,95,,,,,,,,,,,,,,,,,,,,,,,
11,39800, Note_on_c,9,42,0,,,,,,,,,,,,,,,,,,,,,,,
11,39840, Note_on_c,9,42,107,,,,,,,,,,,,,,,,,,,,,,,
11,39848, Note_on_c,9,42,0,,,,,,,,,,,,,,,,,,,,,,,
11,39888, Note_on_c,9,40,103,,,,,,,,,,,,,,,,,,,,,,,
11,39888, Note_on_c,9,42,103,,,,,,,,,,,,,,,,,,,,,,,
11,39896, Note_on_c,9,40,0,,,,,,,,,,,,,,,,,,,,,,,
11,39896, Note_on_c,9,42,0,,,,,,,,,,,,,,,,,,,,,,,
11,39936, Note_on_c,9,42,67,,,,,,,,,,,,,,,,,,,,,,,
11,39944, Note_on_c,9,42,0,,,,,,,,,,,,,,,,,,,,,,,
11,39984, Note_on_c,9,40,118,,,,,,,,,,,,,,,,,,,,,,,
11,39984, Note_on_c,9,42,99,,,,,,,,,,,,,,,,,,,,,,,
11,39992, Note_on_c,9,40,0,,,,,,,,,,,,,,,,,,,,,,,
11,39992, Note_on_c,9,42,0,,,,,,,,,,,,,,,,,,,,,,,
11,40032, Note_on_c,9,36,100,,,,,,,,,,,,,,,,,,,,,,,
11,40032, Note_on_c,9,42,112,,,,,,,,,,,,,,,,,,,,,,,
11,40040, Note_on_c,9,36,0,,,,,,,,,,,,,,,,,,,,,,,
11,40040, Note_on_c,9,42,0,,,,,,,,,,,,,,,,,,,,,,,
11,40080, Note_on_c,9,42,103,,,,,,,,,,,,,,,,,,,,,,,
11,40088, Note_on_c,9,42,0,,,,,,,,,,,,,,,,,,,,,,,
11,40128, Note_on_c,9,40,127,,,,,,,,,,,,,,,,,,,,,,,
11,40128, Note_on_c,9,42,95,,,,,,,,,,,,,,,,,,,,,,,
11,40128, Note_on_c,9,54,127,,,,,,,,,,,,,,,,,,,,,,,
11,40136, Note_on_c,9,40,0,,,,,,,,,,,,,,,,,,,,,,,
11,40136, Note_on_c,9,42,0,,,,,,,,,,,,,,,,,,,,,,,
11,40136, Note_on_c,9,54,0,,,,,,,,,,,,,,,,,,,,,,,
11,40176, Note_on_c,9,40,80,,,,,,,,,,,,,,,,,,,,,,,
11,40176, Note_on_c,9,42,99,,,,,,,,,,,,,,,,,,,,,,,
11,40184, Note_on_c,9,40,0,,,,,,,,,,,,,,,,,,,,,,,
11,40184, Note_on_c,9,42,0,,,,,,,,,,,,,,,,,,,,,,,
11,40200, Note_on_c,9,40,75,,,,,,,,,,,,,,,,,,,,,,,
11,40208, Note_on_c,9,40,0,,,,,,,,,,,,,,,,,,,,,,,
11,40224, Note_on_c,9,40,84,,,,,,,,,,,,,,,,,,,,,,,
11,40224, Note_on_c,9,42,112,,,,,,,,,,,,,,,,,,,,,,,
11,40232, Note_on_c,9,40,0,,,,,,,,,,,,,,,,,,,,,,,
11,40232, Note_on_c,9,42,0,,,,,,,,,,,,,,,,,,,,,,,
11,40272, Note_on_c,9,40,89,,,,,,,,,,,,,,,,,,,,,,,
11,40272, Note_on_c,9,42,103,,,,,,,,,,,,,,,,,,,,,,,
11,40280, Note_on_c,9,40,0,,,,,,,,,,,,,,,,,,,,,,,
11,40280, Note_on_c,9,42,0,,,,,,,,,,,,,,,,,,,,,,,
11,40320, Note_on_c,9,36,95,,,,,,,,,,,,,,,,,,,,,,,
11,40320, Note_on_c,9,42,103,,,,,,,,,,,,,,,,,,,,,,,
11,40328, Note_on_c,9,36,0,,,,,,,,,,,,,,,,,,,,,,,
11,40328, Note_on_c,9,42,0,,,,,,,,,,,,,,,,,,,,,,,
11,40368, Note_on_c,9,42,92,,,,,,,,,,,,,,,,,,,,,,,
11,40376, Note_on_c,9,42,0,,,,,,,,,,,,,,,,,,,,,,,
11,40416, Note_on_c,9,36,100,,,,,,,,,,,,,,,,,,,,,,,
11,40416, Note_on_c,9,42,112,,,,,,,,,,,,,,,,,,,,,,,
11,40424, Note_on_c,9,36,0,,,,,,,,,,,,,,,,,,,,,,,
11,40424, Note_on_c,9,42,0,,,,,,,,,,,,,,,,,,,,,,,
11,40464, Note_on_c,9,42,103,,,,,,,,,,,,,,,,,,,,,,,
11,40472, Note_on_c,9,42,0,,,,,,,,,,,,,,,,,,,,,,,
11,40512, Note_on_c,9,40,117,,,,,,,,,,,,,,,,,,,,,,,
11,40512, Note_on_c,9,42,112,,,,,,,,,,,,,,,,,,,,,,,
11,40512, Note_on_c,9,54,112,,,,,,,,,,,,,,,,,,,,,,,
11,40520, Note_on_c,9,40,0,,,,,,,,,,,,,,,,,,,,,,,
11,40520, Note_on_c,9,42,0,,,,,,,,,,,,,,,,,,,,,,,
11,40520, Note_on_c,9,54,0,,,,,,,,,,,,,,,,,,,,,,,
11,40560, Note_on_c,9,42,99,,,,,,,,,,,,,,,,,,,,,,,
11,40568, Note_on_c,9,42,0,,,,,,,,,,,,,,,,,,,,,,,
11,40608, Note_on_c,9,40,117,,,,,,,,,,,,,,,,,,,,,,,
11,40608, Note_on_c,9,42,82,,,,,,,,,,,,,,,,,,,,,,,
11,40616, Note_on_c,9,40,0,,,,,,,,,,,,,,,,,,,,,,,
11,40616, Note_on_c,9,42,0,,,,,,,,,,,,,,,,,,,,,,,
11,40656, Note_on_c,9,40,120,,,,,,,,,,,,,,,,,,,,,,,
11,40656, Note_on_c,9,42,107,,,,,,,,,,,,,,,,,,,,,,,
11,40664, Note_on_c,9,40,0,,,,,,,,,,,,,,,,,,,,,,,
11,40664, Note_on_c,9,42,0,,,,,,,,,,,,,,,,,,,,,,,
11,40704, Note_on_c,9,42,82,,,,,,,,,,,,,,,,,,,,,,,
11,40712, Note_on_c,9,42,0,,,,,,,,,,,,,,,,,,,,,,,
11,40752, Note_on_c,9,40,120,,,,,,,,,,,,,,,,,,,,,,,
11,40752, Note_on_c,9,42,103,,,,,,,,,,,,,,,,,,,,,,,
11,40760, Note_on_c,9,40,0,,,,,,,,,,,,,,,,,,,,,,,
11,40760, Note_on_c,9,42,0,,,,,,,,,,,,,,,,,,,,,,,
11,40800, Note_on_c,9,36,100,,,,,,,,,,,,,,,,,,,,,,,
11,40800, Note_on_c,9,42,112,,,,,,,,,,,,,,,,,,,,,,,
11,40808, Note_on_c,9,36,0,,,,,,,,,,,,,,,,,,,,,,,
11,40808, Note_on_c,9,42,0,,,,,,,,,,,,,,,,,,,,,,,
11,40848, Note_on_c,9,42,107,,,,,,,,,,,,,,,,,,,,,,,
11,40856, Note_on_c,9,42,0,,,,,,,,,,,,,,,,,,,,,,,
11,40896, Note_on_c,9,40,127,,,,,,,,,,,,,,,,,,,,,,,
11,40896, Note_on_c,9,42,112,,,,,,,,,,,,,,,,,,,,,,,
11,40896, Note_on_c,9,54,127,,,,,,,,,,,,,,,,,,,,,,,
11,40904, Note_on_c,9,40,0,,,,,,,,,,,,,,,,,,,,,,,
11,40904, Note_on_c,9,42,0,,,,,,,,,,,,,,,,,,,,,,,
11,40904, Note_on_c,9,54,0,,,,,,,,,,,,,,,,,,,,,,,
11,40944, Note_on_c,9,42,112,,,,,,,,,,,,,,,,,,,,,,,
11,40952, Note_on_c,9,42,0,,,,,,,,,,,,,,,,,,,,,,,
11,40992, Note_on_c,9,40,114,,,,,,,,,,,,,,,,,,,,,,,
11,40992, Note_on_c,9,42,107,,,,,,,,,,,,,,,,,,,,,,,
11,41000, Note_on_c,9,40,0,,,,,,,,,,,,,,,,,,,,,,,
11,41000, Note_on_c,9,42,0,,,,,,,,,,,,,,,,,,,,,,,
11,41040, Note_on_c,9,40,104,,,,,,,,,,,,,,,,,,,,,,,
11,41040, Note_on_c,9,42,112,,,,,,,,,,,,,,,,,,,,,,,
11,41048, Note_on_c,9,40,0,,,,,,,,,,,,,,,,,,,,,,,
11,41048, Note_on_c,9,42,0,,,,,,,,,,,,,,,,,,,,,,,
11,41088, Note_on_c,9,36,95,,,,,,,,,,,,,,,,,,,,,,,
11,41088, Note_on_c,9,42,99,,,,,,,,,,,,,,,,,,,,,,,
11,41096, Note_on_c,9,36,0,,,,,,,,,,,,,,,,,,,,,,,
11,41096, Note_on_c,9,42,0,,,,,,,,,,,,,,,,,,,,,,,
11,41136, Note_on_c,9,42,92,,,,,,,,,,,,,,,,,,,,,,,
11,41144, Note_on_c,9,42,0,,,,,,,,,,,,,,,,,,,,,,,
11,41184, Note_on_c,9,36,100,,,,,,,,,,,,,,,,,,,,,,,
11,41184, Note_on_c,9,42,107,,,,,,,,,,,,,,,,,,,,,,,
11,41192, Note_on_c,9,36,0,,,,,,,,,,,,,,,,,,,,,,,
11,41192, Note_on_c,9,42,0,,,,,,,,,,,,,,,,,,,,,,,
11,41232, Note_on_c,9,42,107,,,,,,,,,,,,,,,,,,,,,,,
11,41240, Note_on_c,9,42,0,,,,,,,,,,,,,,,,,,,,,,,
11,41280, Note_on_c,9,40,127,,,,,,,,,,,,,,,,,,,,,,,
11,41280, Note_on_c,9,42,112,,,,,,,,,,,,,,,,,,,,,,,
11,41280, Note_on_c,9,54,127,,,,,,,,,,,,,,,,,,,,,,,
11,41288, Note_on_c,9,40,0,,,,,,,,,,,,,,,,,,,,,,,
11,41288, Note_on_c,9,42,0,,,,,,,,,,,,,,,,,,,,,,,
11,41288, Note_on_c,9,54,0,,,,,,,,,,,,,,,,,,,,,,,
11,41328, Note_on_c,9,42,103,,,,,,,,,,,,,,,,,,,,,,,
11,41336, Note_on_c,9,42,0,,,,,,,,,,,,,,,,,,,,,,,
11,41376, Note_on_c,9,42,92,,,,,,,,,,,,,,,,,,,,,,,
11,41384, Note_on_c,9,42,0,,,,,,,,,,,,,,,,,,,,,,,
11,41424, Note_on_c,9,40,83,,,,,,,,,,,,,,,,,,,,,,,
11,41424, Note_on_c,9,42,112,,,,,,,,,,,,,,,,,,,,,,,
11,41432, Note_on_c,9,40,0,,,,,,,,,,,,,,,,,,,,,,,
11,41432, Note_on_c,9,42,0,,,,,,,,,,,,,,,,,,,,,,,
11,41472, Note_on_c,9,42,92,,,,,,,,,,,,,,,,,,,,,,,
11,41480, Note_on_c,9,42,0,,,,,,,,,,,,,,,,,,,,,,,
11,41520, Note_on_c,9,40,76,,,,,,,,,,,,,,,,,,,,,,,
11,41520, Note_on_c,9,42,112,,,,,,,,,,,,,,,,,,,,,,,
11,41528, Note_on_c,9,40,0,,,,,,,,,,,,,,,,,,,,,,,
11,41528, Note_on_c,9,42,0,,,,,,,,,,,,,,,,,,,,,,,
11,41568, Note_on_c,9,36,100,,,,,,,,,,,,,,,,,,,,,,,
11,41568, Note_on_c,9,42,112,,,,,,,,,,,,,,,,,,,,,,,
11,41576, Note_on_c,9,36,0,,,,,,,,,,,,,,,,,,,,,,,
11,41576, Note_on_c,9,42,0,,,,,,,,,,,,,,,,,,,,,,,
11,41616, Note_on_c,9,42,103,,,,,,,,,,,,,,,,,,,,,,,
11,41624, Note_on_c,9,42,0,,,,,,,,,,,,,,,,,,,,,,,
11,41664, Note_on_c,9,40,127,,,,,,,,,,,,,,,,,,,,,,,
11,41664, Note_on_c,9,42,107,,,,,,,,,,,,,,,,,,,,,,,
11,41664, Note_on_c,9,54,127,,,,,,,,,,,,,,,,,,,,,,,
11,41672, Note_on_c,9,40,0,,,,,,,,,,,,,,,,,,,,,,,
11,41672, Note_on_c,9,42,0,,,,,,,,,,,,,,,,,,,,,,,
11,41672, Note_on_c,9,54,0,,,,,,,,,,,,,,,,,,,,,,,
11,41712, Note_on_c,9,42,112,,,,,,,,,,,,,,,,,,,,,,,
11,41720, Note_on_c,9,42,0,,,,,,,,,,,,,,,,,,,,,,,
11,41760, Note_on_c,9,42,107,,,,,,,,,,,,,,,,,,,,,,,
11,41768, Note_on_c,9,42,0,,,,,,,,,,,,,,,,,,,,,,,
11,41808, Note_on_c,9,42,112,,,,,,,,,,,,,,,,,,,,,,,
11,41816, Note_on_c,9,42,0,,,,,,,,,,,,,,,,,,,,,,,
11,41856, Note_on_c,9,36,95,,,,,,,,,,,,,,,,,,,,,,,
11,41856, Note_on_c,9,42,107,,,,,,,,,,,,,,,,,,,,,,,
11,41864, Note_on_c,9,36,0,,,,,,,,,,,,,,,,,,,,,,,
11,41864, Note_on_c,9,42,0,,,,,,,,,,,,,,,,,,,,,,,
11,41904, Note_on_c,9,42,103,,,,,,,,,,,,,,,,,,,,,,,
11,41912, Note_on_c,9,42,0,,,,,,,,,,,,,,,,,,,,,,,
11,41952, Note_on_c,9,36,100,,,,,,,,,,,,,,,,,,,,,,,
11,41952, Note_on_c,9,42,107,,,,,,,,,,,,,,,,,,,,,,,
11,41960, Note_on_c,9,36,0,,,,,,,,,,,,,,,,,,,,,,,
11,41960, Note_on_c,9,42,0,,,,,,,,,,,,,,,,,,,,,,,
11,42000, Note_on_c,9,42,112,,,,,,,,,,,,,,,,,,,,,,,
11,42008, Note_on_c,9,42,0,,,,,,,,,,,,,,,,,,,,,,,
11,42048, Note_on_c,9,40,122,,,,,,,,,,,,,,,,,,,,,,,
11,42048, Note_on_c,9,42,127,,,,,,,,,,,,,,,,,,,,,,,
11,42048, Note_on_c,9,54,112,,,,,,,,,,,,,,,,,,,,,,,
11,42056, Note_on_c,9,40,0,,,,,,,,,,,,,,,,,,,,,,,
11,42056, Note_on_c,9,42,0,,,,,,,,,,,,,,,,,,,,,,,
11,42056, Note_on_c,9,54,0,,,,,,,,,,,,,,,,,,,,,,,
11,42096, Note_on_c,9,42,107,,,,,,,,,,,,,,,,,,,,,,,
11,42104, Note_on_c,9,42,0,,,,,,,,,,,,,,,,,,,,,,,
11,42144, Note_on_c,9,40,114,,,,,,,,,,,,,,,,,,,,,,,
11,42144, Note_on_c,9,42,99,,,,,,,,,,,,,,,,,,,,,,,
11,42152, Note_on_c,9,40,0,,,,,,,,,,,,,,,,,,,,,,,
11,42152, Note_on_c,9,42,0,,,,,,,,,,,,,,,,,,,,,,,
11,42192, Note_on_c,9,40,127,,,,,,,,,,,,,,,,,,,,,,,
11,42192, Note_on_c,9,42,127,,,,,,,,,,,,,,,,,,,,,,,
11,42200, Note_on_c,9,40,0,,,,,,,,,,,,,,,,,,,,,,,
11,42200, Note_on_c,9,42,0,,,,,,,,,,,,,,,,,,,,,,,
11,42240, Note_on_c,9,42,95,,,,,,,,,,,,,,,,,,,,,,,
11,42248, Note_on_c,9,42,0,,,,,,,,,,,,,,,,,,,,,,,
11,42288, Note_on_c,9,40,127,,,,,,,,,,,,,,,,,,,,,,,
11,42288, Note_on_c,9,42,112,,,,,,,,,,,,,,,,,,,,,,,
11,42296, Note_on_c,9,40,0,,,,,,,,,,,,,,,,,,,,,,,
11,42296, Note_on_c,9,42,0,,,,,,,,,,,,,,,,,,,,,,,
11,42336, Note_on_c,9,36,100,,,,,,,,,,,,,,,,,,,,,,,
11,42336, Note_on_c,9,40,127,,,,,,,,,,,,,,,,,,,,,,,
11,42336, Note_on_c,9,42,112,,,,,,,,,,,,,,,,,,,,,,,
11,42344, Note_on_c,9,36,0,,,,,,,,,,,,,,,,,,,,,,,
11,42344, Note_on_c,9,40,0,,,,,,,,,,,,,,,,,,,,,,,
11,42344, Note_on_c,9,42,0,,,,,,,,,,,,,,,,,,,,,,,
11,42384, Note_on_c,9,42,112,,,,,,,,,,,,,,,,,,,,,,,
11,42392, Note_on_c,9,42,0,,,,,,,,,,,,,,,,,,,,,,,
11,42432, Note_on_c,9,40,127,,,,,,,,,,,,,,,,,,,,,,,
11,42432, Note_on_c,9,42,107,,,,,,,,,,,,,,,,,,,,,,,
11,42432, Note_on_c,9,54,127,,,,,,,,,,,,,,,,,,,,,,,
11,42440, Note_on_c,9,40,0,,,,,,,,,,,,,,,,,,,,,,,
11,42440, Note_on_c,9,42,0,,,,,,,,,,,,,,,,,,,,,,,
11,42440, Note_on_c,9,54,0,,,,,,,,,,,,,,,,,,,,,,,
11,42480, Note_on_c,9,40,118,,,,,,,,,,,,,,,,,,,,,,,
11,42480, Note_on_c,9,42,112,,,,,,,,,,,,,,,,,,,,,,,
11,42488, Note_on_c,9,40,0,,,,,,,,,,,,,,,,,,,,,,,
11,42488, Note_on_c,9,42,0,,,,,,,,,,,,,,,,,,,,,,,
11,42504, Note_on_c,9,40,110,,,,,,,,,,,,,,,,,,,,,,,
11,42512, Note_on_c,9,40,0,,,,,,,,,,,,,,,,,,,,,,,
11,42528, Note_on_c,9,40,127,,,,,,,,,,,,,,,,,,,,,,,
11,42528, Note_on_c,9,42,112,,,,,,,,,,,,,,,,,,,,,,,
11,42536, Note_on_c,9,40,0,,,,,,,,,,,,,,,,,,,,,,,
11,42536, Note_on_c,9,42,0,,,,,,,,,,,,,,,,,,,,,,,
11,42576, Note_on_c,9,40,118,,,,,,,,,,,,,,,,,,,,,,,
11,42576, Note_on_c,9,42,107,,,,,,,,,,,,,,,,,,,,,,,
11,42584, Note_on_c,9,40,0,,,,,,,,,,,,,,,,,,,,,,,
11,42584, Note_on_c,9,42,0,,,,,,,,,,,,,,,,,,,,,,,
11,42624, Note_on_c,9,36,95,,,,,,,,,,,,,,,,,,,,,,,
11,42624, Note_on_c,9,42,107,,,,,,,,,,,,,,,,,,,,,,,
11,42632, Note_on_c,9,36,0,,,,,,,,,,,,,,,,,,,,,,,
11,42632, Note_on_c,9,42,0,,,,,,,,,,,,,,,,,,,,,,,
11,42672, Note_on_c,9,42,107,,,,,,,,,,,,,,,,,,,,,,,
11,42680, Note_on_c,9,42,0,,,,,,,,,,,,,,,,,,,,,,,
11,42720, Note_on_c,9,36,100,,,,,,,,,,,,,,,,,,,,,,,
11,42720, Note_on_c,9,42,99,,,,,,,,,,,,,,,,,,,,,,,
11,42728, Note_on_c,9,36,0,,,,,,,,,,,,,,,,,,,,,,,
11,42728, Note_on_c,9,42,0,,,,,,,,,,,,,,,,,,,,,,,
11,42768, Note_on_c,9,42,112,,,,,,,,,,,,,,,,,,,,,,,
11,42776, Note_on_c,9,42,0,,,,,,,,,,,,,,,,,,,,,,,
11,42816, Note_on_c,9,40,127,,,,,,,,,,,,,,,,,,,,,,,
11,42816, Note_on_c,9,42,112,,,,,,,,,,,,,,,,,,,,,,,
11,42816, Note_on_c,9,54,127,,,,,,,,,,,,,,,,,,,,,,,
11,42824, Note_on_c,9,40,0,,,,,,,,,,,,,,,,,,,,,,,
11,42824, Note_on_c,9,42,0,,,,,,,,,,,,,,,,,,,,,,,
11,42824, Note_on_c,9,54,0,,,,,,,,,,,,,,,,,,,,,,,
11,42864, Note_on_c,9,42,112,,,,,,,,,,,,,,,,,,,,,,,
11,42872, Note_on_c,9,42,0,,,,,,,,,,,,,,,,,,,,,,,
11,42912, Note_on_c,9,42,99,,,,,,,,,,,,,,,,,,,,,,,
11,42920, Note_on_c,9,42,0,,,,,,,,,,,,,,,,,,,,,,,
11,42960, Note_on_c,9,40,91,,,,,,,,,,,,,,,,,,,,,,,
11,42960, Note_on_c,9,42,112,,,,,,,,,,,,,,,,,,,,,,,
11,42968, Note_on_c,9,40,0,,,,,,,,,,,,,,,,,,,,,,,
11,42968, Note_on_c,9,42,0,,,,,,,,,,,,,,,,,,,,,,,
11,43008, Note_on_c,9,42,92,,,,,,,,,,,,,,,,,,,,,,,
11,43016, Note_on_c,9,42,0,,,,,,,,,,,,,,,,,,,,,,,
11,43056, Note_on_c,9,40,87,,,,,,,,,,,,,,,,,,,,,,,
11,43056, Note_on_c,9,42,112,,,,,,,,,,,,,,,,,,,,,,,
11,43064, Note_on_c,9,40,0,,,,,,,,,,,,,,,,,,,,,,,
11,43064, Note_on_c,9,42,0,,,,,,,,,,,,,,,,,,,,,,,
11,43104, Note_on_c,9,36,100,,,,,,,,,,,,,,,,,,,,,,,
11,43104, Note_on_c,9,42,107,,,,,,,,,,,,,,,,,,,,,,,
11,43112, Note_on_c,9,36,0,,,,,,,,,,,,,,,,,,,,,,,
11,43112, Note_on_c,9,42,0,,,,,,,,,,,,,,,,,,,,,,,
11,43152, Note_on_c,9,42,112,,,,,,,,,,,,,,,,,,,,,,,
11,43160, Note_on_c,9,42,0,,,,,,,,,,,,,,,,,,,,,,,
11,43200, Note_on_c,9,42,112,,,,,,,,,,,,,,,,,,,,,,,
11,43200, Note_on_c,9,54,127,,,,,,,,,,,,,,,,,,,,,,,
11,43208, Note_on_c,9,40,127,,,,,,,,,,,,,,,,,,,,,,,
11,43208, Note_on_c,9,42,0,,,,,,,,,,,,,,,,,,,,,,,
11,43208, Note_on_c,9,54,0,,,,,,,,,,,,,,,,,,,,,,,
11,43216, Note_on_c,9,40,0,,,,,,,,,,,,,,,,,,,,,,,
11,43248, Note_on_c,9,42,107,,,,,,,,,,,,,,,,,,,,,,,
11,43256, Note_on_c,9,42,0,,,,,,,,,,,,,,,,,,,,,,,
11,43296, Note_on_c,9,42,99,,,,,,,,,,,,,,,,,,,,,,,
11,43304, Note_on_c,9,42,0,,,,,,,,,,,,,,,,,,,,,,,
11,43344, Note_on_c,9,40,104,,,,,,,,,,,,,,,,,,,,,,,
11,43344, Note_on_c,9,42,112,,,,,,,,,,,,,,,,,,,,,,,
11,43352, Note_on_c,9,40,0,,,,,,,,,,,,,,,,,,,,,,,
11,43352, Note_on_c,9,42,0,,,,,,,,,,,,,,,,,,,,,,,
11,43392, Note_on_c,9,36,127,,,,,,,,,,,,,,,,,,,,,,,
11,43392, Note_on_c,9,42,107,,,,,,,,,,,,,,,,,,,,,,,
11,43392, Note_on_c,9,49,82,,,,,,,,,,,,,,,,,,,,,,,
11,43400, Note_on_c,9,36,0,,,,,,,,,,,,,,,,,,,,,,,
11,43400, Note_on_c,9,42,0,,,,,,,,,,,,,,,,,,,,,,,
11,43400, Note_on_c,9,49,0,,,,,,,,,,,,,,,,,,,,,,,
11,43440, Note_on_c,9,42,107,,,,,,,,,,,,,,,,,,,,,,,
11,43448, Note_on_c,9,42,0,,,,,,,,,,,,,,,,,,,,,,,
11,43488, Note_on_c,9,42,99,,,,,,,,,,,,,,,,,,,,,,,
11,43496, Note_on_c,9,42,0,,,,,,,,,,,,,,,,,,,,,,,
11,43536, Note_on_c,9,40,127,,,,,,,,,,,,,,,,,,,,,,,
11,43536, Note_on_c,9,42,112,,,,,,,,,,,,,,,,,,,,,,,
11,43544, Note_on_c,9,40,0,,,,,,,,,,,,,,,,,,,,,,,
11,43544, Note_on_c,9,42,0,,,,,,,,,,,,,,,,,,,,,,,
11,43584, Note_on_c,9,36,114,,,,,,,,,,,,,,,,,,,,,,,
11,43584, Note_on_c,9,42,112,,,,,,,,,,,,,,,,,,,,,,,
11,43584, Note_on_c,9,49,82,,,,,,,,,,,,,,,,,,,,,,,
11,43584, Note_on_c,9,54,127,,,,,,,,,,,,,,,,,,,,,,,
11,43592, Note_on_c,9,36,0,,,,,,,,,,,,,,,,,,,,,,,
11,43592, Note_on_c,9,42,0,,,,,,,,,,,,,,,,,,,,,,,
11,43592, Note_on_c,9,49,0,,,,,,,,,,,,,,,,,,,,,,,
11,43592, Note_on_c,9,54,0,,,,,,,,,,,,,,,,,,,,,,,
11,43632, Note_on_c,9,42,112,,,,,,,,,,,,,,,,,,,,,,,
11,43640, Note_on_c,9,42,0,,,,,,,,,,,,,,,,,,,,,,,
11,43680, Note_on_c,9,42,95,,,,,,,,,,,,,,,,,,,,,,,
11,43688, Note_on_c,9,42,0,,,,,,,,,,,,,,,,,,,,,,,
11,43728, Note_on_c,9,40,127,,,,,,,,,,,,,,,,,,,,,,,
11,43728, Note_on_c,9,42,107,,,,,,,,,,,,,,,,,,,,,,,
11,43736, Note_on_c,9,40,0,,,,,,,,,,,,,,,,,,,,,,,
11,43736, Note_on_c,9,42,0,,,,,,,,,,,,,,,,,,,,,,,
11,43776, Note_on_c,9,36,101,,,,,,,,,,,,,,,,,,,,,,,
11,43776, Note_on_c,9,42,95,,,,,,,,,,,,,,,,,,,,,,,
11,43776, Note_on_c,9,49,82,,,,,,,,,,,,,,,,,,,,,,,
11,43784, Note_on_c,9,36,0,,,,,,,,,,,,,,,,,,,,,,,
11,43784, Note_on_c,9,42,0,,,,,,,,,,,,,,,,,,,,,,,
11,43784, Note_on_c,9,49,0,,,,,,,,,,,,,,,,,,,,,,,
11,43824, Note_on_c,9,42,107,,,,,,,,,,,,,,,,,,,,,,,
11,43832, Note_on_c,9,42,0,,,,,,,,,,,,,,,,,,,,,,,
11,43872, Note_on_c,9,40,127,,,,,,,,,,,,,,,,,,,,,,,
11,43872, Note_on_c,9,42,107,,,,,,,,,,,,,,,,,,,,,,,
11,43880, Note_on_c,9,40,0,,,,,,,,,,,,,,,,,,,,,,,
11,43880, Note_on_c,9,42,0,,,,,,,,,,,,,,,,,,,,,,,
11,43920, Note_on_c,9,40,127,,,,,,,,,,,,,,,,,,,,,,,
11,43920, Note_on_c,9,42,107,,,,,,,,,,,,,,,,,,,,,,,
11,43928, Note_on_c,9,40,0,,,,,,,,,,,,,,,,,,,,,,,
11,43928, Note_on_c,9,42,0,,,,,,,,,,,,,,,,,,,,,,,
11,43968, Note_on_c,9,40,127,,,,,,,,,,,,,,,,,,,,,,,
11,43968, Note_on_c,9,42,103,,,,,,,,,,,,,,,,,,,,,,,
11,43968, Note_on_c,9,49,78,,,,,,,,,,,,,,,,,,,,,,,
11,43968, Note_on_c,9,54,112,,,,,,,,,,,,,,,,,,,,,,,
11,43976, Note_on_c,9,40,0,,,,,,,,,,,,,,,,,,,,,,,
11,43976, Note_on_c,9,42,0,,,,,,,,,,,,,,,,,,,,,,,
11,43976, Note_on_c,9,49,0,,,,,,,,,,,,,,,,,,,,,,,
11,43976, Note_on_c,9,54,0,,,,,,,,,,,,,,,,,,,,,,,
11,44016, Note_on_c,9,42,107,,,,,,,,,,,,,,,,,,,,,,,
11,44024, Note_on_c,9,42,0,,,,,,,,,,,,,,,,,,,,,,,
11,44064, Note_on_c,9,40,127,,,,,,,,,,,,,,,,,,,,,,,
11,44064, Note_on_c,9,42,107,,,,,,,,,,,,,,,,,,,,,,,
11,44072, Note_on_c,9,40,0,,,,,,,,,,,,,,,,,,,,,,,
11,44072, Note_on_c,9,42,0,,,,,,,,,,,,,,,,,,,,,,,
11,44112, Note_on_c,9,40,127,,,,,,,,,,,,,,,,,,,,,,,
11,44112, Note_on_c,9,42,107,,,,,,,,,,,,,,,,,,,,,,,
11,44120, Note_on_c,9,40,0,,,,,,,,,,,,,,,,,,,,,,,
11,44120, Note_on_c,9,42,0,,,,,,,,,,,,,,,,,,,,,,,
11,44160, Note_on_c,9,36,127,,,,,,,,,,,,,,,,,,,,,,,
11,44160, Note_on_c,9,42,103,,,,,,,,,,,,,,,,,,,,,,,
11,44168, Note_on_c,9,36,0,,,,,,,,,,,,,,,,,,,,,,,
11,44168, Note_on_c,9,42,0,,,,,,,,,,,,,,,,,,,,,,,
11,44208, Note_on_c,9,40,83,,,,,,,,,,,,,,,,,,,,,,,
11,44208, Note_on_c,9,42,103,,,,,,,,,,,,,,,,,,,,,,,
11,44216, Note_on_c,9,40,0,,,,,,,,,,,,,,,,,,,,,,,
11,44216, Note_on_c,9,42,0,,,,,,,,,,,,,,,,,,,,,,,
11,44256, Note_on_c,9,36,127,,,,,,,,,,,,,,,,,,,,,,,
11,44256, Note_on_c,9,40,85,,,,,,,,,,,,,,,,,,,,,,,
11,44256, Note_on_c,9,42,103,,,,,,,,,,,,,,,,,,,,,,,
11,44264, Note_on_c,9,36,0,,,,,,,,,,,,,,,,,,,,,,,
11,44264, Note_on_c,9,40,0,,,,,,,,,,,,,,,,,,,,,,,
11,44264, Note_on_c,9,42,0,,,,,,,,,,,,,,,,,,,,,,,
11,44304, Note_on_c,9,42,112,,,,,,,,,,,,,,,,,,,,,,,
11,44312, Note_on_c,9,42,0,,,,,,,,,,,,,,,,,,,,,,,
11,44352, Note_on_c,9,40,127,,,,,,,,,,,,,,,,,,,,,,,
11,44352, Note_on_c,9,42,107,,,,,,,,,,,,,,,,,,,,,,,
11,44352, Note_on_c,9,54,127,,,,,,,,,,,,,,,,,,,,,,,
11,44360, Note_on_c,9,40,0,,,,,,,,,,,,,,,,,,,,,,,
11,44360, Note_on_c,9,42,0,,,,,,,,,,,,,,,,,,,,,,,
11,44360, Note_on_c,9,54,0,,,,,,,,,,,,,,,,,,,,,,,
11,44400, Note_on_c,9,42,107,,,,,,,,,,,,,,,,,,,,,,,
11,44408, Note_on_c,9,42,0,,,,,,,,,,,,,,,,,,,,,,,
11,44448, Note_on_c,9,42,103,,,,,,,,,,,,,,,,,,,,,,,
11,44456, Note_on_c,9,42,0,,,,,,,,,,,,,,,,,,,,,,,
11,44496, Note_on_c,9,40,122,,,,,,,,,,,,,,,,,,,,,,,
11,44496, Note_on_c,9,42,107,,,,,,,,,,,,,,,,,,,,,,,
11,44504, Note_on_c,9,40,0,,,,,,,,,,,,,,,,,,,,,,,
11,44504, Note_on_c,9,42,0,,,,,,,,,,,,,,,,,,,,,,,
11,44544, Note_on_c,9,42,88,,,,,,,,,,,,,,,,,,,,,,,
11,44552, Note_on_c,9,42,0,,,,,,,,,,,,,,,,,,,,,,,
11,44592, Note_on_c,9,40,122,,,,,,,,,,,,,,,,,,,,,,,
11,44592, Note_on_c,9,42,107,,,,,,,,,,,,,,,,,,,,,,,
11,44600, Note_on_c,9,40,0,,,,,,,,,,,,,,,,,,,,,,,
11,44600, Note_on_c,9,42,0,,,,,,,,,,,,,,,,,,,,,,,
11,44640, Note_on_c,9,36,127,,,,,,,,,,,,,,,,,,,,,,,
11,44640, Note_on_c,9,40,114,,,,,,,,,,,,,,,,,,,,,,,
11,44640, Note_on_c,9,42,107,,,,,,,,,,,,,,,,,,,,,,,
11,44648, Note_on_c,9,36,0,,,,,,,,,,,,,,,,,,,,,,,
11,44648, Note_on_c,9,40,0,,,,,,,,,,,,,,,,,,,,,,,
11,44648, Note_on_c,9,42,0,,,,,,,,,,,,,,,,,,,,,,,
11,44688, Note_on_c,9,42,103,,,,,,,,,,,,,,,,,,,,,,,
11,44696, Note_on_c,9,42,0,,,,,,,,,,,,,,,,,,,,,,,
11,44736, Note_on_c,9,40,127,,,,,,,,,,,,,,,,,,,,,,,
11,44736, Note_on_c,9,42,103,,,,,,,,,,,,,,,,,,,,,,,
11,44736, Note_on_c,9,54,127,,,,,,,,,,,,,,,,,,,,,,,
11,44744, Note_on_c,9,40,0,,,,,,,,,,,,,,,,,,,,,,,
11,44744, Note_on_c,9,42,0,,,,,,,,,,,,,,,,,,,,,,,
11,44744, Note_on_c,9,54,0,,,,,,,,,,,,,,,,,,,,,,,
11,44784, Note_on_c,9,36,127,,,,,,,,,,,,,,,,,,,,,,,
11,44784, Note_on_c,9,42,107,,,,,,,,,,,,,,,,,,,,,,,
11,44792, Note_on_c,9,36,0,,,,,,,,,,,,,,,,,,,,,,,
11,44792, Note_on_c,9,42,0,,,,,,,,,,,,,,,,,,,,,,,
11,44832, Note_on_c,9,40,127,,,,,,,,,,,,,,,,,,,,,,,
11,44832, Note_on_c,9,42,103,,,,,,,,,,,,,,,,,,,,,,,
11,44840, Note_on_c,9,40,0,,,,,,,,,,,,,,,,,,,,,,,
11,44840, Note_on_c,9,42,0,,,,,,,,,,,,,,,,,,,,,,,
11,44880, Note_on_c,9,42,112,,,,,,,,,,,,,,,,,,,,,,,
11,44888, Note_on_c,9,42,0,,,,,,,,,,,,,,,,,,,,,,,
11,44928, Note_on_c,9,42,103,,,,,,,,,,,,,,,,,,,,,,,
11,44936, Note_on_c,9,42,0,,,,,,,,,,,,,,,,,,,,,,,
11,44976, Note_on_c,9,40,127,,,,,,,,,,,,,,,,,,,,,,,
11,44976, Note_on_c,9,42,92,,,,,,,,,,,,,,,,,,,,,,,
11,44984, Note_on_c,9,40,0,,,,,,,,,,,,,,,,,,,,,,,
11,44984, Note_on_c,9,42,0,,,,,,,,,,,,,,,,,,,,,,,
11,45024, Note_on_c,9,36,127,,,,,,,,,,,,,,,,,,,,,,,
11,45024, Note_on_c,9,42,95,,,,,,,,,,,,,,,,,,,,,,,
11,45032, Note_on_c,9,36,0,,,,,,,,,,,,,,,,,,,,,,,
11,45032, Note_on_c,9,42,0,,,,,,,,,,,,,,,,,,,,,,,
11,45072, Note_on_c,9,42,88,,,,,,,,,,,,,,,,,,,,,,,
11,45080, Note_on_c,9,42,0,,,,,,,,,,,,,,,,,,,,,,,
11,45120, Note_on_c,9,40,127,,,,,,,,,,,,,,,,,,,,,,,
11,45120, Note_on_c,9,44,107,,,,,,,,,,,,,,,,,,,,,,,
11,45120, Note_on_c,9,54,112,,,,,,,,,,,,,,,,,,,,,,,
11,45128, Note_on_c,9,40,0,,,,,,,,,,,,,,,,,,,,,,,
11,45128, Note_on_c,9,44,0,,,,,,,,,,,,,,,,,,,,,,,
11,45128, Note_on_c,9,54,0,,,,,,,,,,,,,,,,,,,,,,,
11,45168, Note_on_c,9,42,82,,,,,,,,,,,,,,,,,,,,,,,
11,45176, Note_on_c,9,42,0,,,,,,,,,,,,,,,,,,,,,,,
11,45216, Note_on_c,9,36,101,,,,,,,,,,,,,,,,,,,,,,,
11,45216, Note_on_c,9,42,107,,,,,,,,,,,,,,,,,,,,,,,
11,45224, Note_on_c,9,36,0,,,,,,,,,,,,,,,,,,,,,,,
11,45224, Note_on_c,9,42,0,,,,,,,,,,,,,,,,,,,,,,,
11,45264, Note_on_c,9,40,127,,,,,,,,,,,,,,,,,,,,,,,
11,45264, Note_on_c,9,42,88,,,,,,,,,,,,,,,,,,,,,,,
11,45272, Note_on_c,9,40,0,,,,,,,,,,,,,,,,,,,,,,,
11,45272, Note_on_c,9,42,0,,,,,,,,,,,,,,,,,,,,,,,
11,45312, Note_on_c,9,42,103,,,,,,,,,,,,,,,,,,,,,,,
11,45320, Note_on_c,9,42,0,,,,,,,,,,,,,,,,,,,,,,,
11,45360, Note_on_c,9,40,127,,,,,,,,,,,,,,,,,,,,,,,
11,45360, Note_on_c,9,42,88,,,,,,,,,,,,,,,,,,,,,,,
11,45368, Note_on_c,9,40,0,,,,,,,,,,,,,,,,,,,,,,,
11,45368, Note_on_c,9,42,0,,,,,,,,,,,,,,,,,,,,,,,
11,45408, Note_on_c,9,36,101,,,,,,,,,,,,,,,,,,,,,,,
11,45408, Note_on_c,9,40,127,,,,,,,,,,,,,,,,,,,,,,,
11,45408, Note_on_c,9,42,107,,,,,,,,,,,,,,,,,,,,,,,
11,45416, Note_on_c,9,36,0,,,,,,,,,,,,,,,,,,,,,,,
11,45416, Note_on_c,9,40,0,,,,,,,,,,,,,,,,,,,,,,,
11,45416, Note_on_c,9,42,0,,,,,,,,,,,,,,,,,,,,,,,
11,45456, Note_on_c,9,40,127,,,,,,,,,,,,,,,,,,,,,,,
11,45456, Note_on_c,9,42,95,,,,,,,,,,,,,,,,,,,,,,,
11,45464, Note_on_c,9,40,0,,,,,,,,,,,,,,,,,,,,,,,
11,45464, Note_on_c,9,42,0,,,,,,,,,,,,,,,,,,,,,,,
11,45504, Note_on_c,9,40,127,,,,,,,,,,,,,,,,,,,,,,,
11,45504, Note_on_c,9,44,99,,,,,,,,,,,,,,,,,,,,,,,
11,45504, Note_on_c,9,54,112,,,,,,,,,,,,,,,,,,,,,,,
11,45512, Note_on_c,9,40,0,,,,,,,,,,,,,,,,,,,,,,,
11,45512, Note_on_c,9,44,0,,,,,,,,,,,,,,,,,,,,,,,
11,45512, Note_on_c,9,54,0,,,,,,,,,,,,,,,,,,,,,,,
11,45552, Note_on_c,9,40,127,,,,,,,,,,,,,,,,,,,,,,,
11,45552, Note_on_c,9,42,95,,,,,,,,,,,,,,,,,,,,,,,
11,45560, Note_on_c,9,40,0,,,,,,,,,,,,,,,,,,,,,,,
11,45560, Note_on_c,9,42,0,,,,,,,,,,,,,,,,,,,,,,,
11,45600, Note_on_c,9,40,127,,,,,,,,,,,,,,,,,,,,,,,
11,45600, Note_on_c,9,42,103,,,,,,,,,,,,,,,,,,,,,,,
11,45608, Note_on_c,9,40,0,,,,,,,,,,,,,,,,,,,,,,,
11,45608, Note_on_c,9,42,0,,,,,,,,,,,,,,,,,,,,,,,
11,45648, Note_on_c,9,42,99,,,,,,,,,,,,,,,,,,,,,,,
11,45656, Note_on_c,9,42,0,,,,,,,,,,,,,,,,,,,,,,,
11,45696, Note_on_c,9,36,86,,,,,,,,,,,,,,,,,,,,,,,
11,45696, Note_on_c,9,49,99,,,,,,,,,,,,,,,,,,,,,,,
11,45696, Note_on_c,9,54,112,,,,,,,,,,,,,,,,,,,,,,,
11,45704, Note_on_c,9,36,0,,,,,,,,,,,,,,,,,,,,,,,
11,45704, Note_on_c,9,49,0,,,,,,,,,,,,,,,,,,,,,,,
11,45704, Note_on_c,9,54,0,,,,,,,,,,,,,,,,,,,,,,,
11,45744, Note_on_c,9,54,41,,,,,,,,,,,,,,,,,,,,,,,
11,45752, Note_on_c,9,54,0,,,,,,,,,,,,,,,,,,,,,,,
11,45792, Note_on_c,9,36,94,,,,,,,,,,,,,,,,,,,,,,,
11,45792, Note_on_c,9,54,88,,,,,,,,,,,,,,,,,,,,,,,
11,45800, Note_on_c,9,36,0,,,,,,,,,,,,,,,,,,,,,,,
11,45800, Note_on_c,9,54,0,,,,,,,,,,,,,,,,,,,,,,,
11,45840, Note_on_c,9,54,53,,,,,,,,,,,,,,,,,,,,,,,
11,45848, Note_on_c,9,54,0,,,,,,,,,,,,,,,,,,,,,,,
11,45888, Note_on_c,9,40,127,,,,,,,,,,,,,,,,,,,,,,,
11,45888, Note_on_c,9,51,107,,,,,,,,,,,,,,,,,,,,,,,
11,45888, Note_on_c,9,54,112,,,,,,,,,,,,,,,,,,,,,,,
11,45896, Note_on_c,9,40,0,,,,,,,,,,,,,,,,,,,,,,,
11,45896, Note_on_c,9,51,0,,,,,,,,,,,,,,,,,,,,,,,
11,45896, Note_on_c,9,54,0,,,,,,,,,,,,,,,,,,,,,,,
11,45936, Note_on_c,9,54,46,,,,,,,,,,,,,,,,,,,,,,,
11,45944, Note_on_c,9,54,0,,,,,,,,,,,,,,,,,,,,,,,
11,45984, Note_on_c,9,54,66,,,,,,,,,,,,,,,,,,,,,,,
11,45992, Note_on_c,9,54,0,,,,,,,,,,,,,,,,,,,,,,,
11,46032, Note_on_c,9,40,104,,,,,,,,,,,,,,,,,,,,,,,
11,46032, Note_on_c,9,54,57,,,,,,,,,,,,,,,,,,,,,,,
11,46040, Note_on_c,9,40,0,,,,,,,,,,,,,,,,,,,,,,,
11,46040, Note_on_c,9,54,0,,,,,,,,,,,,,,,,,,,,,,,
11,46080, Note_on_c,9,36,90,,,,,,,,,,,,,,,,,,,,,,,
11,46080, Note_on_c,9,51,88,,,,,,,,,,,,,,,,,,,,,,,
11,46080, Note_on_c,9,54,112,,,,,,,,,,,,,,,,,,,,,,,
11,46088, Note_on_c,9,36,0,,,,,,,,,,,,,,,,,,,,,,,
11,46088, Note_on_c,9,51,0,,,,,,,,,,,,,,,,,,,,,,,
11,46088, Note_on_c,9,54,0,,,,,,,,,,,,,,,,,,,,,,,
11,46128, Note_on_c,9,40,127,,,,,,,,,,,,,,,,,,,,,,,
11,46128, Note_on_c,9,54,67,,,,,,,,,,,,,,,,,,,,,,,
11,46136, Note_on_c,9,40,0,,,,,,,,,,,,,,,,,,,,,,,
11,46136, Note_on_c,9,54,0,,,,,,,,,,,,,,,,,,,,,,,
11,46176, Note_on_c,9,36,90,,,,,,,,,,,,,,,,,,,,,,,
11,46176, Note_on_c,9,51,92,,,,,,,,,,,,,,,,,,,,,,,
11,46176, Note_on_c,9,54,78,,,,,,,,,,,,,,,,,,,,,,,
11,46184, Note_on_c,9,36,0,,,,,,,,,,,,,,,,,,,,,,,
11,46184, Note_on_c,9,51,0,,,,,,,,,,,,,,,,,,,,,,,
11,46184, Note_on_c,9,54,0,,,,,,,,,,,,,,,,,,,,,,,
11,46224, Note_on_c,9,54,66,,,,,,,,,,,,,,,,,,,,,,,
11,46232, Note_on_c,9,54,0,,,,,,,,,,,,,,,,,,,,,,,
11,46272, Note_on_c,9,40,127,,,,,,,,,,,,,,,,,,,,,,,
11,46272, Note_on_c,9,51,112,,,,,,,,,,,,,,,,,,,,,,,
11,46272, Note_on_c,9,54,112,,,,,,,,,,,,,,,,,,,,,,,
11,46280, Note_on_c,9,40,0,,,,,,,,,,,,,,,,,,,,,,,
11,46280, Note_on_c,9,51,0,,,,,,,,,,,,,,,,,,,,,,,
11,46280, Note_on_c,9,54,0,,,,,,,,,,,,,,,,,,,,,,,
11,46320, Note_on_c,9,40,72,,,,,,,,,,,,,,,,,,,,,,,
11,46320, Note_on_c,9,54,57,,,,,,,,,,,,,,,,,,,,,,,
11,46328, Note_on_c,9,40,0,,,,,,,,,,,,,,,,,,,,,,,
11,46328, Note_on_c,9,54,0,,,,,,,,,,,,,,,,,,,,,,,
11,46344, Note_on_c,9,40,66,,,,,,,,,,,,,,,,,,,,,,,
11,46352, Note_on_c,9,40,0,,,,,,,,,,,,,,,,,,,,,,,
11,46368, Note_on_c,9,40,76,,,,,,,,,,,,,,,,,,,,,,,
11,46368, Note_on_c,9,51,64,,,,,,,,,,,,,,,,,,,,,,,
11,46368, Note_on_c,9,54,80,,,,,,,,,,,,,,,,,,,,,,,
11,46376, Note_on_c,9,40,0,,,,,,,,,,,,,,,,,,,,,,,
11,46376, Note_on_c,9,51,0,,,,,,,,,,,,,,,,,,,,,,,
11,46376, Note_on_c,9,54,0,,,,,,,,,,,,,,,,,,,,,,,
11,46416, Note_on_c,9,40,66,,,,,,,,,,,,,,,,,,,,,,,
11,46416, Note_on_c,9,54,57,,,,,,,,,,,,,,,,,,,,,,,
11,46424, Note_on_c,9,40,0,,,,,,,,,,,,,,,,,,,,,,,
11,46424, Note_on_c,9,54,0,,,,,,,,,,,,,,,,,,,,,,,
11,46464, Note_on_c,9,36,86,,,,,,,,,,,,,,,,,,,,,,,
11,46464, Note_on_c,9,54,112,,,,,,,,,,,,,,,,,,,,,,,
11,46472, Note_on_c,9,36,0,,,,,,,,,,,,,,,,,,,,,,,
11,46472, Note_on_c,9,54,0,,,,,,,,,,,,,,,,,,,,,,,
11,46512, Note_on_c,9,54,44,,,,,,,,,,,,,,,,,,,,,,,
11,46520, Note_on_c,9,54,0,,,,,,,,,,,,,,,,,,,,,,,
11,46560, Note_on_c,9,36,94,,,,,,,,,,,,,,,,,,,,,,,
11,46560, Note_on_c,9,54,64,,,,,,,,,,,,,,,,,,,,,,,
11,46568, Note_on_c,9,36,0,,,,,,,,,,,,,,,,,,,,,,,
11,46568, Note_on_c,9,54,0,,,,,,,,,,,,,,,,,,,,,,,
11,46608, Note_on_c,9,54,52,,,,,,,,,,,,,,,,,,,,,,,
11,46616, Note_on_c,9,54,0,,,,,,,,,,,,,,,,,,,,,,,
11,46656, Note_on_c,9,40,127,,,,,,,,,,,,,,,,,,,,,,,
11,46656, Note_on_c,9,51,107,,,,,,,,,,,,,,,,,,,,,,,
11,46656, Note_on_c,9,54,112,,,,,,,,,,,,,,,,,,,,,,,
11,46664, Note_on_c,9,40,0,,,,,,,,,,,,,,,,,,,,,,,
11,46664, Note_on_c,9,51,0,,,,,,,,,,,,,,,,,,,,,,,
11,46664, Note_on_c,9,54,0,,,,,,,,,,,,,,,,,,,,,,,
11,46704, Note_on_c,9,54,44,,,,,,,,,,,,,,,,,,,,,,,
11,46712, Note_on_c,9,54,0,,,,,,,,,,,,,,,,,,,,,,,
11,46752, Note_on_c,9,54,67,,,,,,,,,,,,,,,,,,,,,,,
11,46760, Note_on_c,9,54,0,,,,,,,,,,,,,,,,,,,,,,,
11,46800, Note_on_c,9,40,104,,,,,,,,,,,,,,,,,,,,,,,
11,46800, Note_on_c,9,54,50,,,,,,,,,,,,,,,,,,,,,,,
11,46808, Note_on_c,9,40,0,,,,,,,,,,,,,,,,,,,,,,,
11,46808, Note_on_c,9,54,0,,,,,,,,,,,,,,,,,,,,,,,
11,46848, Note_on_c,9,36,90,,,,,,,,,,,,,,,,,,,,,,,
11,46848, Note_on_c,9,51,88,,,,,,,,,,,,,,,,,,,,,,,
11,46848, Note_on_c,9,54,112,,,,,,,,,,,,,,,,,,,,,,,
11,46856, Note_on_c,9,36,0,,,,,,,,,,,,,,,,,,,,,,,
11,46856, Note_on_c,9,51,0,,,,,,,,,,,,,,,,,,,,,,,
11,46856, Note_on_c,9,54,0,,,,,,,,,,,,,,,,,,,,,,,
11,46896, Note_on_c,9,40,127,,,,,,,,,,,,,,,,,,,,,,,
11,46896, Note_on_c,9,54,51,,,,,,,,,,,,,,,,,,,,,,,
11,46904, Note_on_c,9,40,0,,,,,,,,,,,,,,,,,,,,,,,
11,46904, Note_on_c,9,54,0,,,,,,,,,,,,,,,,,,,,,,,
11,46944, Note_on_c,9,36,90,,,,,,,,,,,,,,,,,,,,,,,
11,46944, Note_on_c,9,51,92,,,,,,,,,,,,,,,,,,,,,,,
11,46944, Note_on_c,9,54,86,,,,,,,,,,,,,,,,,,,,,,,
11,46952, Note_on_c,9,36,0,,,,,,,,,,,,,,,,,,,,,,,
11,46952, Note_on_c,9,51,0,,,,,,,,,,,,,,,,,,,,,,,
11,46952, Note_on_c,9,54,0,,,,,,,,,,,,,,,,,,,,,,,
11,46992, Note_on_c,9,54,70,,,,,,,,,,,,,,,,,,,,,,,
11,47000, Note_on_c,9,54,0,,,,,,,,,,,,,,,,,,,,,,,
11,47040, Note_on_c,9,40,127,,,,,,,,,,,,,,,,,,,,,,,
11,47040, Note_on_c,9,51,112,,,,,,,,,,,,,,,,,,,,,,,
11,47040, Note_on_c,9,54,112,,,,,,,,,,,,,,,,,,,,,,,
11,47048, Note_on_c,9,40,0,,,,,,,,,,,,,,,,,,,,,,,
11,47048, Note_on_c,9,51,0,,,,,,,,,,,,,,,,,,,,,,,
11,47048, Note_on_c,9,54,0,,,,,,,,,,,,,,,,,,,,,,,
11,47088, Note_on_c,9,40,72,,,,,,,,,,,,,,,,,,,,,,,
11,47088, Note_on_c,9,54,58,,,,,,,,,,,,,,,,,,,,,,,
11,47096, Note_on_c,9,40,0,,,,,,,,,,,,,,,,,,,,,,,
11,47096, Note_on_c,9,54,0,,,,,,,,,,,,,,,,,,,,,,,
11,47112, Note_on_c,9,40,66,,,,,,,,,,,,,,,,,,,,,,,
11,47120, Note_on_c,9,40,0,,,,,,,,,,,,,,,,,,,,,,,
11,47136, Note_on_c,9,40,76,,,,,,,,,,,,,,,,,,,,,,,
11,47136, Note_on_c,9,51,64,,,,,,,,,,,,,,,,,,,,,,,
11,47136, Note_on_c,9,54,61,,,,,,,,,,,,,,,,,,,,,,,
11,47144, Note_on_c,9,40,0,,,,,,,,,,,,,,,,,,,,,,,
11,47144, Note_on_c,9,51,0,,,,,,,,,,,,,,,,,,,,,,,
11,47144, Note_on_c,9,54,0,,,,,,,,,,,,,,,,,,,,,,,
11,47184, Note_on_c,9,40,66,,,,,,,,,,,,,,,,,,,,,,,
11,47184, Note_on_c,9,54,64,,,,,,,,,,,,,,,,,,,,,,,
11,47192, Note_on_c,9,40,0,,,,,,,,,,,,,,,,,,,,,,,
11,47192, Note_on_c,9,54,0,,,,,,,,,,,,,,,,,,,,,,,
11,47232, Note_on_c,9,36,94,,,,,,,,,,,,,,,,,,,,,,,
11,47232, Note_on_c,9,49,73,,,,,,,,,,,,,,,,,,,,,,,
11,47232, Note_on_c,9,51,107,,,,,,,,,,,,,,,,,,,,,,,
11,47232, Note_on_c,9,54,112,,,,,,,,,,,,,,,,,,,,,,,
11,47240, Note_on_c,9,36,0,,,,,,,,,,,,,,,,,,,,,,,
11,47240, Note_on_c,9,49,0,,,,,,,,,,,,,,,,,,,,,,,
11,47240, Note_on_c,9,51,0,,,,,,,,,,,,,,,,,,,,,,,
11,47240, Note_on_c,9,54,0,,,,,,,,,,,,,,,,,,,,,,,
11,47280, Note_on_c,9,54,74,,,,,,,,,,,,,,,,,,,,,,,
11,47288, Note_on_c,9,54,0,,,,,,,,,,,,,,,,,,,,,,,
11,47328, Note_on_c,9,36,94,,,,,,,,,,,,,,,,,,,,,,,
11,47328, Note_on_c,9,51,58,,,,,,,,,,,,,,,,,,,,,,,
11,47328, Note_on_c,9,54,61,,,,,,,,,,,,,,,,,,,,,,,
11,47336, Note_on_c,9,36,0,,,,,,,,,,,,,,,,,,,,,,,
11,47336, Note_on_c,9,51,0,,,,,,,,,,,,,,,,,,,,,,,
11,47336, Note_on_c,9,54,0,,,,,,,,,,,,,,,,,,,,,,,
11,47376, Note_on_c,9,54,56,,,,,,,,,,,,,,,,,,,,,,,
11,47384, Note_on_c,9,54,0,,,,,,,,,,,,,,,,,,,,,,,
11,47424, Note_on_c,9,40,127,,,,,,,,,,,,,,,,,,,,,,,
11,47424, Note_on_c,9,51,112,,,,,,,,,,,,,,,,,,,,,,,
11,47424, Note_on_c,9,54,112,,,,,,,,,,,,,,,,,,,,,,,
11,47432, Note_on_c,9,40,0,,,,,,,,,,,,,,,,,,,,,,,
11,47432, Note_on_c,9,51,0,,,,,,,,,,,,,,,,,,,,,,,
11,47432, Note_on_c,9,54,0,,,,,,,,,,,,,,,,,,,,,,,
11,47472, Note_on_c,9,54,67,,,,,,,,,,,,,,,,,,,,,,,
11,47480, Note_on_c,9,54,0,,,,,,,,,,,,,,,,,,,,,,,
11,47520, Note_on_c,9,51,78,,,,,,,,,,,,,,,,,,,,,,,
11,47520, Note_on_c,9,54,70,,,,,,,,,,,,,,,,,,,,,,,
11,47528, Note_on_c,9,51,0,,,,,,,,,,,,,,,,,,,,,,,
11,47528, Note_on_c,9,54,0,,,,,,,,,,,,,,,,,,,,,,,
11,47568, Note_on_c,9,40,107,,,,,,,,,,,,,,,,,,,,,,,
11,47568, Note_on_c,9,54,66,,,,,,,,,,,,,,,,,,,,,,,
11,47576, Note_on_c,9,40,0,,,,,,,,,,,,,,,,,,,,,,,
11,47576, Note_on_c,9,54,0,,,,,,,,,,,,,,,,,,,,,,,
11,47616, Note_on_c,9,36,99,,,,,,,,,,,,,,,,,,,,,,,
11,47616, Note_on_c,9,51,64,,,,,,,,,,,,,,,,,,,,,,,
11,47616, Note_on_c,9,54,112,,,,,,,,,,,,,,,,,,,,,,,
11,47624, Note_on_c,9,36,0,,,,,,,,,,,,,,,,,,,,,,,
11,47624, Note_on_c,9,51,0,,,,,,,,,,,,,,,,,,,,,,,
11,47624, Note_on_c,9,54,0,,,,,,,,,,,,,,,,,,,,,,,
11,47664, Note_on_c,9,40,127,,,,,,,,,,,,,,,,,,,,,,,
11,47664, Note_on_c,9,54,52,,,,,,,,,,,,,,,,,,,,,,,
11,47672, Note_on_c,9,40,0,,,,,,,,,,,,,,,,,,,,,,,
11,47672, Note_on_c,9,54,0,,,,,,,,,,,,,,,,,,,,,,,
11,47712, Note_on_c,9,36,94,,,,,,,,,,,,,,,,,,,,,,,
11,47712, Note_on_c,9,51,112,,,,,,,,,,,,,,,,,,,,,,,
11,47712, Note_on_c,9,54,67,,,,,,,,,,,,,,,,,,,,,,,
11,47720, Note_on_c,9,36,0,,,,,,,,,,,,,,,,,,,,,,,
11,47720, Note_on_c,9,51,0,,,,,,,,,,,,,,,,,,,,,,,
11,47720, Note_on_c,9,54,0,,,,,,,,,,,,,,,,,,,,,,,
11,47760, Note_on_c,9,54,72,,,,,,,,,,,,,,,,,,,,,,,
11,47768, Note_on_c,9,54,0,,,,,,,,,,,,,,,,,,,,,,,
11,47808, Note_on_c,9,40,127,,,,,,,,,,,,,,,,,,,,,,,
11,47808, Note_on_c,9,51,112,,,,,,,,,,,,,,,,,,,,,,,
11,47808, Note_on_c,9,54,112,,,,,,,,,,,,,,,,,,,,,,,
11,47816, Note_on_c,9,40,0,,,,,,,,,,,,,,,,,,,,,,,
11,47816, Note_on_c,9,51,0,,,,,,,,,,,,,,,,,,,,,,,
11,47816, Note_on_c,9,54,0,,,,,,,,,,,,,,,,,,,,,,,
11,47856, Note_on_c,9,40,80,,,,,,,,,,,,,,,,,,,,,,,
11,47856, Note_on_c,9,54,78,,,,,,,,,,,,,,,,,,,,,,,
11,47864, Note_on_c,9,40,0,,,,,,,,,,,,,,,,,,,,,,,
11,47864, Note_on_c,9,54,0,,,,,,,,,,,,,,,,,,,,,,,
11,47880, Note_on_c,9,40,66,,,,,,,,,,,,,,,,,,,,,,,
11,47888, Note_on_c,9,40,0,,,,,,,,,,,,,,,,,,,,,,,
11,47904, Note_on_c,9,40,84,,,,,,,,,,,,,,,,,,,,,,,
11,47904, Note_on_c,9,51,82,,,,,,,,,,,,,,,,,,,,,,,
11,47904, Note_on_c,9,54,82,,,,,,,,,,,,,,,,,,,,,,,
11,47912, Note_on_c,9,40,0,,,,,,,,,,,,,,,,,,,,,,,
11,47912, Note_on_c,9,51,0,,,,,,,,,,,,,,,,,,,,,,,
11,47912, Note_on_c,9,54,0,,,,,,,,,,,,,,,,,,,,,,,
11,47952, Note_on_c,9,40,63,,,,,,,,,,,,,,,,,,,,,,,
11,47952, Note_on_c,9,54,80,,,,,,,,,,,,,,,,,,,,,,,
11,47960, Note_on_c,9,40,0,,,,,,,,,,,,,,,,,,,,,,,
11,47960, Note_on_c,9,54,0,,,,,,,,,,,,,,,,,,,,,,,
11,48000, Note_on_c,9,36,99,,,,,,,,,,,,,,,,,,,,,,,
11,48000, Note_on_c,9,51,127,,,,,,,,,,,,,,,,,,,,,,,
11,48000, Note_on_c,9,54,112,,,,,,,,,,,,,,,,,,,,,,,
11,48008, Note_on_c,9,36,0,,,,,,,,,,,,,,,,,,,,,,,
11,48008, Note_on_c,9,51,0,,,,,,,,,,,,,,,,,,,,,,,
11,48008, Note_on_c,9,54,0,,,,,,,,,,,,,,,,,,,,,,,
11,48048, Note_on_c,9,54,66,,,,,,,,,,,,,,,,,,,,,,,
11,48056, Note_on_c,9,54,0,,,,,,,,,,,,,,,,,,,,,,,
11,48096, Note_on_c,9,36,94,,,,,,,,,,,,,,,,,,,,,,,
11,48096, Note_on_c,9,51,72,,,,,,,,,,,,,,,,,,,,,,,
11,48096, Note_on_c,9,54,57,,,,,,,,,,,,,,,,,,,,,,,
11,48104, Note_on_c,9,36,0,,,,,,,,,,,,,,,,,,,,,,,
11,48104, Note_on_c,9,51,0,,,,,,,,,,,,,,,,,,,,,,,
11,48104, Note_on_c,9,54,0,,,,,,,,,,,,,,,,,,,,,,,
11,48144, Note_on_c,9,40,40,,,,,,,,,,,,,,,,,,,,,,,
11,48144, Note_on_c,9,54,61,,,,,,,,,,,,,,,,,,,,,,,
11,48152, Note_on_c,9,40,0,,,,,,,,,,,,,,,,,,,,,,,
11,48152, Note_on_c,9,54,0,,,,,,,,,,,,,,,,,,,,,,,
11,48192, Note_on_c,9,40,127,,,,,,,,,,,,,,,,,,,,,,,
11,48192, Note_on_c,9,51,127,,,,,,,,,,,,,,,,,,,,,,,
11,48192, Note_on_c,9,54,107,,,,,,,,,,,,,,,,,,,,,,,
11,48200, Note_on_c,9,40,0,,,,,,,,,,,,,,,,,,,,,,,
11,48200, Note_on_c,9,51,0,,,,,,,,,,,,,,,,,,,,,,,
11,48200, Note_on_c,9,54,0,,,,,,,,,,,,,,,,,,,,,,,
11,48240, Note_on_c,9,54,56,,,,,,,,,,,,,,,,,,,,,,,
11,48248, Note_on_c,9,54,0,,,,,,,,,,,,,,,,,,,,,,,
11,48288, Note_on_c,9,51,92,,,,,,,,,,,,,,,,,,,,,,,
11,48288, Note_on_c,9,54,80,,,,,,,,,,,,,,,,,,,,,,,
11,48296, Note_on_c,9,51,0,,,,,,,,,,,,,,,,,,,,,,,
11,48296, Note_on_c,9,54,0,,,,,,,,,,,,,,,,,,,,,,,
11,48336, Note_on_c,9,40,107,,,,,,,,,,,,,,,,,,,,,,,
11,48336, Note_on_c,9,54,80,,,,,,,,,,,,,,,,,,,,,,,
11,48344, Note_on_c,9,40,0,,,,,,,,,,,,,,,,,,,,,,,
11,48344, Note_on_c,9,54,0,,,,,,,,,,,,,,,,,,,,,,,
11,48384, Note_on_c,9,36,99,,,,,,,,,,,,,,,,,,,,,,,
11,48384, Note_on_c,9,51,92,,,,,,,,,,,,,,,,,,,,,,,
11,48384, Note_on_c,9,54,107,,,,,,,,,,,,,,,,,,,,,,,
11,48392, Note_on_c,9,36,0,,,,,,,,,,,,,,,,,,,,,,,
11,48392, Note_on_c,9,51,0,,,,,,,,,,,,,,,,,,,,,,,
11,48392, Note_on_c,9,54,0,,,,,,,,,,,,,,,,,,,,,,,
11,48432, Note_on_c,9,40,127,,,,,,,,,,,,,,,,,,,,,,,
11,48432, Note_on_c,9,54,70,,,,,,,,,,,,,,,,,,,,,,,
11,48440, Note_on_c,9,40,0,,,,,,,,,,,,,,,,,,,,,,,
11,48440, Note_on_c,9,54,0,,,,,,,,,,,,,,,,,,,,,,,
11,48480, Note_on_c,9,36,86,,,,,,,,,,,,,,,,,,,,,,,
11,48480, Note_on_c,9,51,127,,,,,,,,,,,,,,,,,,,,,,,
11,48480, Note_on_c,9,54,64,,,,,,,,,,,,,,,,,,,,,,,
11,48488, Note_on_c,9,36,0,,,,,,,,,,,,,,,,,,,,,,,
11,48488, Note_on_c,9,51,0,,,,,,,,,,,,,,,,,,,,,,,
11,48488, Note_on_c,9,54,0,,,,,,,,,,,,,,,,,,,,,,,
11,48528, Note_on_c,9,54,70,,,,,,,,,,,,,,,,,,,,,,,
11,48536, Note_on_c,9,54,0,,,,,,,,,,,,,,,,,,,,,,,
11,48576, Note_on_c,9,40,127,,,,,,,,,,,,,,,,,,,,,,,
11,48576, Note_on_c,9,51,112,,,,,,,,,,,,,,,,,,,,,,,
11,48576, Note_on_c,9,54,107,,,,,,,,,,,,,,,,,,,,,,,
11,48584, Note_on_c,9,40,0,,,,,,,,,,,,,,,,,,,,,,,
11,48584, Note_on_c,9,51,0,,,,,,,,,,,,,,,,,,,,,,,
11,48584, Note_on_c,9,54,0,,,,,,,,,,,,,,,,,,,,,,,
11,48624, Note_on_c,9,40,84,,,,,,,,,,,,,,,,,,,,,,,
11,48624, Note_on_c,9,54,58,,,,,,,,,,,,,,,,,,,,,,,
11,48632, Note_on_c,9,40,0,,,,,,,,,,,,,,,,,,,,,,,
11,48632, Note_on_c,9,54,0,,,,,,,,,,,,,,,,,,,,,,,
11,48648, Note_on_c,9,40,66,,,,,,,,,,,,,,,,,,,,,,,
11,48656, Note_on_c,9,40,0,,,,,,,,,,,,,,,,,,,,,,,
11,48672, Note_on_c,9,40,89,,,,,,,,,,,,,,,,,,,,,,,
11,48672, Note_on_c,9,51,112,,,,,,,,,,,,,,,,,,,,,,,
11,48672, Note_on_c,9,54,70,,,,,,,,,,,,,,,,,,,,,,,
11,48680, Note_on_c,9,40,0,,,,,,,,,,,,,,,,,,,,,,,
11,48680, Note_on_c,9,51,0,,,,,,,,,,,,,,,,,,,,,,,
11,48680, Note_on_c,9,54,0,,,,,,,,,,,,,,,,,,,,,,,
11,48720, Note_on_c,9,40,66,,,,,,,,,,,,,,,,,,,,,,,
11,48720, Note_on_c,9,54,80,,,,,,,,,,,,,,,,,,,,,,,
11,48728, Note_on_c,9,40,0,,,,,,,,,,,,,,,,,,,,,,,
11,48728, Note_on_c,9,54,0,,,,,,,,,,,,,,,,,,,,,,,
11,48768, Note_on_c,9,36,86,,,,,,,,,,,,,,,,,,,,,,,
11,48768, Note_on_c,9,49,99,,,,,,,,,,,,,,,,,,,,,,,
11,48768, Note_on_c,9,54,112,,,,,,,,,,,,,,,,,,,,,,,
11,48776, Note_on_c,9,36,0,,,,,,,,,,,,,,,,,,,,,,,
11,48776, Note_on_c,9,49,0,,,,,,,,,,,,,,,,,,,,,,,
11,48776, Note_on_c,9,54,0,,,,,,,,,,,,,,,,,,,,,,,
11,48816, Note_on_c,9,54,41,,,,,,,,,,,,,,,,,,,,,,,
11,48824, Note_on_c,9,54,0,,,,,,,,,,,,,,,,,,,,,,,
11,48864, Note_on_c,9,36,94,,,,,,,,,,,,,,,,,,,,,,,
11,48864, Note_on_c,9,54,88,,,,,,,,,,,,,,,,,,,,,,,
11,48872, Note_on_c,9,36,0,,,,,,,,,,,,,,,,,,,,,,,
11,48872, Note_on_c,9,54,0,,,,,,,,,,,,,,,,,,,,,,,
11,48912, Note_on_c,9,54,53,,,,,,,,,,,,,,,,,,,,,,,
11,48920, Note_on_c,9,54,0,,,,,,,,,,,,,,,,,,,,,,,
11,48960, Note_on_c,9,40,127,,,,,,,,,,,,,,,,,,,,,,,
11,48960, Note_on_c,9,51,107,,,,,,,,,,,,,,,,,,,,,,,
11,48960, Note_on_c,9,54,112,,,,,,,,,,,,,,,,,,,,,,,
11,48968, Note_on_c,9,40,0,,,,,,,,,,,,,,,,,,,,,,,
11,48968, Note_on_c,9,51,0,,,,,,,,,,,,,,,,,,,,,,,
11,48968, Note_on_c,9,54,0,,,,,,,,,,,,,,,,,,,,,,,
11,49008, Note_on_c,9,54,46,,,,,,,,,,,,,,,,,,,,,,,
11,49016, Note_on_c,9,54,0,,,,,,,,,,,,,,,,,,,,,,,
11,49056, Note_on_c,9,54,66,,,,,,,,,,,,,,,,,,,,,,,
11,49064, Note_on_c,9,54,0,,,,,,,,,,,,,,,,,,,,,,,
11,49104, Note_on_c,9,40,104,,,,,,,,,,,,,,,,,,,,,,,
11,49104, Note_on_c,9,54,57,,,,,,,,,,,,,,,,,,,,,,,
11,49112, Note_on_c,9,40,0,,,,,,,,,,,,,,,,,,,,,,,
11,49112, Note_on_c,9,54,0,,,,,,,,,,,,,,,,,,,,,,,
11,49152, Note_on_c,9,36,90,,,,,,,,,,,,,,,,,,,,,,,
11,49152, Note_on_c,9,51,88,,,,,,,,,,,,,,,,,,,,,,,
11,49152, Note_on_c,9,54,112,,,,,,,,,,,,,,,,,,,,,,,
11,49160, Note_on_c,9,36,0,,,,,,,,,,,,,,,,,,,,,,,
11,49160, Note_on_c,9,51,0,,,,,,,,,,,,,,,,,,,,,,,
11,49160, Note_on_c,9,54,0,,,,,,,,,,,,,,,,,,,,,,,
11,49200, Note_on_c,9,40,127,,,,,,,,,,,,,,,,,,,,,,,
11,49200, Note_on_c,9,54,67,,,,,,,,,,,,,,,,,,,,,,,
11,49208, Note_on_c,9,40,0,,,,,,,,,,,,,,,,,,,,,,,
11,49208, Note_on_c,9,54,0,,,,,,,,,,,,,,,,,,,,,,,
11,49248, Note_on_c,9,36,90,,,,,,,,,,,,,,,,,,,,,,,
11,49248, Note_on_c,9,51,92,,,,,,,,,,,,,,,,,,,,,,,
11,49248, Note_on_c,9,54,78,,,,,,,,,,,,,,,,,,,,,,,
11,49256, Note_on_c,9,36,0,,,,,,,,,,,,,,,,,,,,,,,
11,49256, Note_on_c,9,51,0,,,,,,,,,,,,,,,,,,,,,,,
11,49256, Note_on_c,9,54,0,,,,,,,,,,,,,,,,,,,,,,,
11,49296, Note_on_c,9,54,66,,,,,,,,,,,,,,,,,,,,,,,
11,49304, Note_on_c,9,54,0,,,,,,,,,,,,,,,,,,,,,,,
11,49344, Note_on_c,9,40,127,,,,,,,,,,,,,,,,,,,,,,,
11,49344, Note_on_c,9,51,112,,,,,,,,,,,,,,,,,,,,,,,
11,49344, Note_on_c,9,54,112,,,,,,,,,,,,,,,,,,,,,,,
11,49352, Note_on_c,9,40,0,,,,,,,,,,,,,,,,,,,,,,,
11,49352, Note_on_c,9,51,0,,,,,,,,,,,,,,,,,,,,,,,
11,49352, Note_on_c,9,54,0,,,,,,,,,,,,,,,,,,,,,,,
11,49392, Note_on_c,9,40,72,,,,,,,,,,,,,,,,,,,,,,,
11,49392, Note_on_c,9,54,57,,,,,,,,,,,,,,,,,,,,,,,
11,49400, Note_on_c,9,40,0,,,,,,,,,,,,,,,,,,,,,,,
11,49400, Note_on_c,9,54,0,,,,,,,,,,,,,,,,,,,,,,,
11,49416, Note_on_c,9,40,66,,,,,,,,,,,,,,,,,,,,,,,
11,49424, Note_on_c,9,40,0,,,,,,,,,,,,,,,,,,,,,,,
11,49440, Note_on_c,9,40,76,,,,,,,,,,,,,,,,,,,,,,,
11,49440, Note_on_c,9,51,64,,,,,,,,,,,,,,,,,,,,,,,
11,49440, Note_on_c,9,54,80,,,,,,,,,,,,,,,,,,,,,,,
11,49448, Note_on_c,9,40,0,,,,,,,,,,,,,,,,,,,,,,,
11,49448, Note_on_c,9,51,0,,,,,,,,,,,,,,,,,,,,,,,
11,49448, Note_on_c,9,54,0,,,,,,,,,,,,,,,,,,,,,,,
11,49488, Note_on_c,9,40,66,,,,,,,,,,,,,,,,,,,,,,,
11,49488, Note_on_c,9,54,57,,,,,,,,,,,,,,,,,,,,,,,
11,49496, Note_on_c,9,40,0,,,,,,,,,,,,,,,,,,,,,,,
11,49496, Note_on_c,9,54,0,,,,,,,,,,,,,,,,,,,,,,,
11,49536, Note_on_c,9,36,86,,,,,,,,,,,,,,,,,,,,,,,
11,49536, Note_on_c,9,54,112,,,,,,,,,,,,,,,,,,,,,,,
11,49544, Note_on_c,9,36,0,,,,,,,,,,,,,,,,,,,,,,,
11,49544, Note_on_c,9,54,0,,,,,,,,,,,,,,,,,,,,,,,
11,49584, Note_on_c,9,54,44,,,,,,,,,,,,,,,,,,,,,,,
11,49592, Note_on_c,9,54,0,,,,,,,,,,,,,,,,,,,,,,,
11,49632, Note_on_c,9,36,94,,,,,,,,,,,,,,,,,,,,,,,
11,49632, Note_on_c,9,54,64,,,,,,,,,,,,,,,,,,,,,,,
11,49640, Note_on_c,9,36,0,,,,,,,,,,,,,,,,,,,,,,,
11,49640, Note_on_c,9,54,0,,,,,,,,,,,,,,,,,,,,,,,
11,49680, Note_on_c,9,54,52,,,,,,,,,,,,,,,,,,,,,,,
11,49688, Note_on_c,9,54,0,,,,,,,,,,,,,,,,,,,,,,,
11,49728, Note_on_c,9,40,127,,,,,,,,,,,,,,,,,,,,,,,
11,49728, Note_on_c,9,51,107,,,,,,,,,,,,,,,,,,,,,,,
11,49728, Note_on_c,9,54,112,,,,,,,,,,,,,,,,,,,,,,,
11,49736, Note_on_c,9,40,0,,,,,,,,,,,,,,,,,,,,,,,
11,49736, Note_on_c,9,51,0,,,,,,,,,,,,,,,,,,,,,,,
11,49736, Note_on_c,9,54,0,,,,,,,,,,,,,,,,,,,,,,,
11,49776, Note_on_c,9,54,44,,,,,,,,,,,,,,,,,,,,,,,
11,49784, Note_on_c,9,54,0,,,,,,,,,,,,,,,,,,,,,,,
11,49824, Note_on_c,9,54,67,,,,,,,,,,,,,,,,,,,,,,,
11,49832, Note_on_c,9,54,0,,,,,,,,,,,,,,,,,,,,,,,
11,49872, Note_on_c,9,40,104,,,,,,,,,,,,,,,,,,,,,,,
11,49872, Note_on_c,9,54,50,,,,,,,,,,,,,,,,,,,,,,,
11,49880, Note_on_c,9,40,0,,,,,,,,,,,,,,,,,,,,,,,
11,49880, Note_on_c,9,54,0,,,,,,,,,,,,,,,,,,,,,,,
11,49920, Note_on_c,9,36,90,,,,,,,,,,,,,,,,,,,,,,,
11,49920, Note_on_c,9,51,88,,,,,,,,,,,,,,,,,,,,,,,
11,49920, Note_on_c,9,54,112,,,,,,,,,,,,,,,,,,,,,,,
11,49928, Note_on_c,9,36,0,,,,,,,,,,,,,,,,,,,,,,,
11,49928, Note_on_c,9,51,0,,,,,,,,,,,,,,,,,,,,,,,
11,49928, Note_on_c,9,54,0,,,,,,,,,,,,,,,,,,,,,,,
11,49968, Note_on_c,9,40,127,,,,,,,,,,,,,,,,,,,,,,,
11,49968, Note_on_c,9,54,51,,,,,,,,,,,,,,,,,,,,,,,
11,49976, Note_on_c,9,40,0,,,,,,,,,,,,,,,,,,,,,,,
11,49976, Note_on_c,9,54,0,,,,,,,,,,,,,,,,,,,,,,,
11,50016, Note_on_c,9,36,90,,,,,,,,,,,,,,,,,,,,,,,
11,50016, Note_on_c,9,51,92,,,,,,,,,,,,,,,,,,,,,,,
11,50016, Note_on_c,9,54,86,,,,,,,,,,,,,,,,,,,,,,,
11,50024, Note_on_c,9,36,0,,,,,,,,,,,,,,,,,,,,,,,
11,50024, Note_on_c,9,51,0,,,,,,,,,,,,,,,,,,,,,,,
11,50024, Note_on_c,9,54,0,,,,,,,,,,,,,,,,,,,,,,,
11,50064, Note_on_c,9,54,70,,,,,,,,,,,,,,,,,,,,,,,
11,50072, Note_on_c,9,54,0,,,,,,,,,,,,,,,,,,,,,,,
11,50112, Note_on_c,9,40,127,,,,,,,,,,,,,,,,,,,,,,,
11,50112, Note_on_c,9,51,112,,,,,,,,,,,,,,,,,,,,,,,
11,50112, Note_on_c,9,54,112,,,,,,,,,,,,,,,,,,,,,,,
11,50120, Note_on_c,9,40,0,,,,,,,,,,,,,,,,,,,,,,,
11,50120, Note_on_c,9,51,0,,,,,,,,,,,,,,,,,,,,,,,
11,50120, Note_on_c,9,54,0,,,,,,,,,,,,,,,,,,,,,,,
11,50160, Note_on_c,9,40,72,,,,,,,,,,,,,,,,,,,,,,,
11,50160, Note_on_c,9,54,58,,,,,,,,,,,,,,,,,,,,,,,
11,50168, Note_on_c,9,40,0,,,,,,,,,,,,,,,,,,,,,,,
11,50168, Note_on_c,9,54,0,,,,,,,,,,,,,,,,,,,,,,,
11,50184, Note_on_c,9,40,66,,,,,,,,,,,,,,,,,,,,,,,
11,50192, Note_on_c,9,40,0,,,,,,,,,,,,,,,,,,,,,,,
11,50208, Note_on_c,9,40,76,,,,,,,,,,,,,,,,,,,,,,,
11,50208, Note_on_c,9,51,64,,,,,,,,,,,,,,,,,,,,,,,
11,50208, Note_on_c,9,54,61,,,,,,,,,,,,,,,,,,,,,,,
11,50216, Note_on_c,9,40,0,,,,,,,,,,,,,,,,,,,,,,,
11,50216, Note_on_c,9,51,0,,,,,,,,,,,,,,,,,,,,,,,
11,50216, Note_on_c,9,54,0,,,,,,,,,,,,,,,,,,,,,,,
11,50256, Note_on_c,9,40,66,,,,,,,,,,,,,,,,,,,,,,,
11,50256, Note_on_c,9,54,64,,,,,,,,,,,,,,,,,,,,,,,
11,50264, Note_on_c,9,40,0,,,,,,,,,,,,,,,,,,,,,,,
11,50264, Note_on_c,9,54,0,,,,,,,,,,,,,,,,,,,,,,,
11,50304, Note_on_c,9,36,94,,,,,,,,,,,,,,,,,,,,,,,
11,50304, Note_on_c,9,49,73,,,,,,,,,,,,,,,,,,,,,,,
11,50304, Note_on_c,9,51,107,,,,,,,,,,,,,,,,,,,,,,,
11,50304, Note_on_c,9,54,112,,,,,,,,,,,,,,,,,,,,,,,
11,50312, Note_on_c,9,36,0,,,,,,,,,,,,,,,,,,,,,,,
11,50312, Note_on_c,9,49,0,,,,,,,,,,,,,,,,,,,,,,,
11,50312, Note_on_c,9,51,0,,,,,,,,,,,,,,,,,,,,,,,
11,50312, Note_on_c,9,54,0,,,,,,,,,,,,,,,,,,,,,,,
11,50352, Note_on_c,9,54,74,,,,,,,,,,,,,,,,,,,,,,,
11,50360, Note_on_c,9,54,0,,,,,,,,,,,,,,,,,,,,,,,
11,50400, Note_on_c,9,36,94,,,,,,,,,,,,,,,,,,,,,,,
11,50400, Note_on_c,9,51,58,,,,,,,,,,,,,,,,,,,,,,,
11,50400, Note_on_c,9,54,61,,,,,,,,,,,,,,,,,,,,,,,
11,50408, Note_on_c,9,36,0,,,,,,,,,,,,,,,,,,,,,,,
11,50408, Note_on_c,9,51,0,,,,,,,,,,,,,,,,,,,,,,,
11,50408, Note_on_c,9,54,0,,,,,,,,,,,,,,,,,,,,,,,
11,50448, Note_on_c,9,54,56,,,,,,,,,,,,,,,,,,,,,,,
11,50456, Note_on_c,9,54,0,,,,,,,,,,,,,,,,,,,,,,,
11,50496, Note_on_c,9,40,127,,,,,,,,,,,,,,,,,,,,,,,
11,50496, Note_on_c,9,51,112,,,,,,,,,,,,,,,,,,,,,,,
11,50496, Note_on_c,9,54,112,,,,,,,,,,,,,,,,,,,,,,,
11,50504, Note_on_c,9,40,0,,,,,,,,,,,,,,,,,,,,,,,
11,50504, Note_on_c,9,51,0,,,,,,,,,,,,,,,,,,,,,,,
11,50504, Note_on_c,9,54,0,,,,,,,,,,,,,,,,,,,,,,,
11,50544, Note_on_c,9,54,67,,,,,,,,,,,,,,,,,,,,,,,
11,50552, Note_on_c,9,54,0,,,,,,,,,,,,,,,,,,,,,,,
11,50592, Note_on_c,9,51,78,,,,,,,,,,,,,,,,,,,,,,,
11,50592, Note_on_c,9,54,70,,,,,,,,,,,,,,,,,,,,,,,
11,50600, Note_on_c,9,51,0,,,,,,,,,,,,,,,,,,,,,,,
11,50600, Note_on_c,9,54,0,,,,,,,,,,,,,,,,,,,,,,,
11,50640, Note_on_c,9,40,107,,,,,,,,,,,,,,,,,,,,,,,
11,50640, Note_on_c,9,54,66,,,,,,,,,,,,,,,,,,,,,,,
11,50648, Note_on_c,9,40,0,,,,,,,,,,,,,,,,,,,,,,,
11,50648, Note_on_c,9,54,0,,,,,,,,,,,,,,,,,,,,,,,
11,50688, Note_on_c,9,36,99,,,,,,,,,,,,,,,,,,,,,,,
11,50688, Note_on_c,9,51,64,,,,,,,,,,,,,,,,,,,,,,,
11,50688, Note_on_c,9,54,112,,,,,,,,,,,,,,,,,,,,,,,
11,50696, Note_on_c,9,36,0,,,,,,,,,,,,,,,,,,,,,,,
11,50696, Note_on_c,9,51,0,,,,,,,,,,,,,,,,,,,,,,,
11,50696, Note_on_c,9,54,0,,,,,,,,,,,,,,,,,,,,,,,
11,50736, Note_on_c,9,40,127,,,,,,,,,,,,,,,,,,,,,,,
11,50736, Note_on_c,9,54,52,,,,,,,,,,,,,,,,,,,,,,,
11,50744, Note_on_c,9,40,0,,,,,,,,,,,,,,,,,,,,,,,
11,50744, Note_on_c,9,54,0,,,,,,,,,,,,,,,,,,,,,,,
11,50784, Note_on_c,9,36,94,,,,,,,,,,,,,,,,,,,,,,,
11,50784, Note_on_c,9,51,112,,,,,,,,,,,,,,,,,,,,,,,
11,50784, Note_on_c,9,54,67,,,,,,,,,,,,,,,,,,,,,,,
11,50792, Note_on_c,9,36,0,,,,,,,,,,,,,,,,,,,,,,,
11,50792, Note_on_c,9,51,0,,,,,,,,,,,,,,,,,,,,,,,
11,50792, Note_on_c,9,54,0,,,,,,,,,,,,,,,,,,,,,,,
11,50832, Note_on_c,9,54,72,,,,,,,,,,,,,,,,,,,,,,,
11,50840, Note_on_c,9,54,0,,,,,,,,,,,,,,,,,,,,,,,
11,50880, Note_on_c,9,40,127,,,,,,,,,,,,,,,,,,,,,,,
11,50880, Note_on_c,9,51,112,,,,,,,,,,,,,,,,,,,,,,,
11,50880, Note_on_c,9,54,112,,,,,,,,,,,,,,,,,,,,,,,
11,50888, Note_on_c,9,40,0,,,,,,,,,,,,,,,,,,,,,,,
11,50888, Note_on_c,9,51,0,,,,,,,,,,,,,,,,,,,,,,,
11,50888, Note_on_c,9,54,0,,,,,,,,,,,,,,,,,,,,,,,
11,50928, Note_on_c,9,40,80,,,,,,,,,,,,,,,,,,,,,,,
11,50928, Note_on_c,9,54,78,,,,,,,,,,,,,,,,,,,,,,,
11,50936, Note_on_c,9,40,0,,,,,,,,,,,,,,,,,,,,,,,
11,50936, Note_on_c,9,54,0,,,,,,,,,,,,,,,,,,,,,,,
11,50952, Note_on_c,9,40,66,,,,,,,,,,,,,,,,,,,,,,,
11,50960, Note_on_c,9,40,0,,,,,,,,,,,,,,,,,,,,,,,
11,50976, Note_on_c,9,40,84,,,,,,,,,,,,,,,,,,,,,,,
11,50976, Note_on_c,9,51,82,,,,,,,,,,,,,,,,,,,,,,,
11,50976, Note_on_c,9,54,82,,,,,,,,,,,,,,,,,,,,,,,
11,50984, Note_on_c,9,40,0,,,,,,,,,,,,,,,,,,,,,,,
11,50984, Note_on_c,9,51,0,,,,,,,,,,,,,,,,,,,,,,,
11,50984, Note_on_c,9,54,0,,,,,,,,,,,,,,,,,,,,,,,
11,51024, Note_on_c,9,40,63,,,,,,,,,,,,,,,,,,,,,,,
11,51024, Note_on_c,9,54,80,,,,,,,,,,,,,,,,,,,,,,,
11,51032, Note_on_c,9,40,0,,,,,,,,,,,,,,,,,,,,,,,
11,51032, Note_on_c,9,54,0,,,,,,,,,,,,,,,,,,,,,,,
11,51072, Note_on_c,9,36,99,,,,,,,,,,,,,,,,,,,,,,,
11,51072, Note_on_c,9,51,127,,,,,,,,,,,,,,,,,,,,,,,
11,51072, Note_on_c,9,54,112,,,,,,,,,,,,,,,,,,,,,,,
11,51080, Note_on_c,9,36,0,,,,,,,,,,,,,,,,,,,,,,,
11,51080, Note_on_c,9,51,0,,,,,,,,,,,,,,,,,,,,,,,
11,51080, Note_on_c,9,54,0,,,,,,,,,,,,,,,,,,,,,,,
11,51120, Note_on_c,9,54,66,,,,,,,,,,,,,,,,,,,,,,,
11,51128, Note_on_c,9,54,0,,,,,,,,,,,,,,,,,,,,,,,
11,51168, Note_on_c,9,36,94,,,,,,,,,,,,,,,,,,,,,,,
11,51168, Note_on_c,9,51,72,,,,,,,,,,,,,,,,,,,,,,,
11,51168, Note_on_c,9,54,57,,,,,,,,,,,,,,,,,,,,,,,
11,51176, Note_on_c,9,36,0,,,,,,,,,,,,,,,,,,,,,,,
11,51176, Note_on_c,9,51,0,,,,,,,,,,,,,,,,,,,,,,,
11,51176, Note_on_c,9,54,0,,,,,,,,,,,,,,,,,,,,,,,
11,51216, Note_on_c,9,40,40,,,,,,,,,,,,,,,,,,,,,,,
11,51216, Note_on_c,9,54,61,,,,,,,,,,,,,,,,,,,,,,,
11,51224, Note_on_c,9,40,0,,,,,,,,,,,,,,,,,,,,,,,
11,51224, Note_on_c,9,54,0,,,,,,,,,,,,,,,,,,,,,,,
11,51264, Note_on_c,9,40,127,,,,,,,,,,,,,,,,,,,,,,,
11,51264, Note_on_c,9,51,127,,,,,,,,,,,,,,,,,,,,,,,
11,51264, Note_on_c,9,54,107,,,,,,,,,,,,,,,,,,,,,,,
11,51272, Note_on_c,9,40,0,,,,,,,,,,,,,,,,,,,,,,,
11,51272, Note_on_c,9,51,0,,,,,,,,,,,,,,,,,,,,,,,
11,51272, Note_on_c,9,54,0,,,,,,,,,,,,,,,,,,,,,,,
11,51312, Note_on_c,9,54,56,,,,,,,,,,,,,,,,,,,,,,,
11,51320, Note_on_c,9,54,0,,,,,,,,,,,,,,,,,,,,,,,
11,51360, Note_on_c,9,51,92,,,,,,,,,,,,,,,,,,,,,,,
11,51360, Note_on_c,9,54,80,,,,,,,,,,,,,,,,,,,,,,,
11,51368, Note_on_c,9,51,0,,,,,,,,,,,,,,,,,,,,,,,
11,51368, Note_on_c,9,54,0,,,,,,,,,,,,,,,,,,,,,,,
11,51408, Note_on_c,9,40,107,,,,,,,,,,,,,,,,,,,,,,,
11,51408, Note_on_c,9,54,80,,,,,,,,,,,,,,,,,,,,,,,
11,51416, Note_on_c,9,40,0,,,,,,,,,,,,,,,,,,,,,,,
11,51416, Note_on_c,9,54,0,,,,,,,,,,,,,,,,,,,,,,,
11,51456, Note_on_c,9,36,99,,,,,,,,,,,,,,,,,,,,,,,
11,51456, Note_on_c,9,51,92,,,,,,,,,,,,,,,,,,,,,,,
11,51456, Note_on_c,9,54,107,,,,,,,,,,,,,,,,,,,,,,,
11,51464, Note_on_c,9,36,0,,,,,,,,,,,,,,,,,,,,,,,
11,51464, Note_on_c,9,51,0,,,,,,,,,,,,,,,,,,,,,,,
11,51464, Note_on_c,9,54,0,,,,,,,,,,,,,,,,,,,,,,,
11,51504, Note_on_c,9,40,127,,,,,,,,,,,,,,,,,,,,,,,
11,51504, Note_on_c,9,54,70,,,,,,,,,,,,,,,,,,,,,,,
11,51512, Note_on_c,9,40,0,,,,,,,,,,,,,,,,,,,,,,,
11,51512, Note_on_c,9,54,0,,,,,,,,,,,,,,,,,,,,,,,
11,51552, Note_on_c,9,36,86,,,,,,,,,,,,,,,,,,,,,,,
11,51552, Note_on_c,9,51,127,,,,,,,,,,,,,,,,,,,,,,,
11,51552, Note_on_c,9,54,64,,,,,,,,,,,,,,,,,,,,,,,
11,51560, Note_on_c,9,36,0,,,,,,,,,,,,,,,,,,,,,,,
11,51560, Note_on_c,9,51,0,,,,,,,,,,,,,,,,,,,,,,,
11,51560, Note_on_c,9,54,0,,,,,,,,,,,,,,,,,,,,,,,
11,51600, Note_on_c,9,54,70,,,,,,,,,,,,,,,,,,,,,,,
11,51608, Note_on_c,9,54,0,,,,,,,,,,,,,,,,,,,,,,,
11,51648, Note_on_c,9,40,127,,,,,,,,,,,,,,,,,,,,,,,
11,51648, Note_on_c,9,51,112,,,,,,,,,,,,,,,,,,,,,,,
11,51648, Note_on_c,9,54,107,,,,,,,,,,,,,,,,,,,,,,,
11,51656, Note_on_c,9,40,0,,,,,,,,,,,,,,,,,,,,,,,
11,51656, Note_on_c,9,51,0,,,,,,,,,,,,,,,,,,,,,,,
11,51656, Note_on_c,9,54,0,,,,,,,,,,,,,,,,,,,,,,,
11,51696, Note_on_c,9,40,84,,,,,,,,,,,,,,,,,,,,,,,
11,51696, Note_on_c,9,54,58,,,,,,,,,,,,,,,,,,,,,,,
11,51704, Note_on_c,9,40,0,,,,,,,,,,,,,,,,,,,,,,,
11,51704, Note_on_c,9,54,0,,,,,,,,,,,,,,,,,,,,,,,
11,51720, Note_on_c,9,40,66,,,,,,,,,,,,,,,,,,,,,,,
11,51728, Note_on_c,9,40,0,,,,,,,,,,,,,,,,,,,,,,,
11,51744, Note_on_c,9,40,89,,,,,,,,,,,,,,,,,,,,,,,
11,51744, Note_on_c,9,51,112,,,,,,,,,,,,,,,,,,,,,,,
11,51744, Note_on_c,9,54,70,,,,,,,,,,,,,,,,,,,,,,,
11,51752, Note_on_c,9,40,0,,,,,,,,,,,,,,,,,,,,,,,
11,51752, Note_on_c,9,51,0,,,,,,,,,,,,,,,,,,,,,,,
11,51752, Note_on_c,9,54,0,,,,,,,,,,,,,,,,,,,,,,,
11,51792, Note_on_c,9,40,66,,,,,,,,,,,,,,,,,,,,,,,
11,51792, Note_on_c,9,54,80,,,,,,,,,,,,,,,,,,,,,,,
11,51800, Note_on_c,9,40,0,,,,,,,,,,,,,,,,,,,,,,,
11,51800, Note_on_c,9,54,0,,,,,,,,,,,,,,,,,,,,,,,
11,51840, Note_on_c,9,36,86,,,,,,,,,,,,,,,,,,,,,,,
11,51840, Note_on_c,9,49,99,,,,,,,,,,,,,,,,,,,,,,,
11,51840, Note_on_c,9,54,112,,,,,,,,,,,,,,,,,,,,,,,
11,51848, Note_on_c,9,36,0,,,,,,,,,,,,,,,,,,,,,,,
11,51848, Note_on_c,9,49,0,,,,,,,,,,,,,,,,,,,,,,,
11,51848, Note_on_c,9,54,0,,,,,,,,,,,,,,,,,,,,,,,
11,51888, Note_on_c,9,54,41,,,,,,,,,,,,,,,,,,,,,,,
11,51896, Note_on_c,9,54,0,,,,,,,,,,,,,,,,,,,,,,,
11,51936, Note_on_c,9,36,94,,,,,,,,,,,,,,,,,,,,,,,
11,51936, Note_on_c,9,54,88,,,,,,,,,,,,,,,,,,,,,,,
11,51944, Note_on_c,9,36,0,,,,,,,,,,,,,,,,,,,,,,,
11,51944, Note_on_c,9,54,0,,,,,,,,,,,,,,,,,,,,,,,
11,51984, Note_on_c,9,54,53,,,,,,,,,,,,,,,,,,,,,,,
11,51992, Note_on_c,9,54,0,,,,,,,,,,,,,,,,,,,,,,,
11,52032, Note_on_c,9,40,127,,,,,,,,,,,,,,,,,,,,,,,
11,52032, Note_on_c,9,51,107,,,,,,,,,,,,,,,,,,,,,,,
11,52032, Note_on_c,9,54,112,,,,,,,,,,,,,,,,,,,,,,,
11,52040, Note_on_c,9,40,0,,,,,,,,,,,,,,,,,,,,,,,
11,52040, Note_on_c,9,51,0,,,,,,,,,,,,,,,,,,,,,,,
11,52040, Note_on_c,9,54,0,,,,,,,,,,,,,,,,,,,,,,,
11,52080, Note_on_c,9,54,46,,,,,,,,,,,,,,,,,,,,,,,
11,52088, Note_on_c,9,54,0,,,,,,,,,,,,,,,,,,,,,,,
11,52128, Note_on_c,9,54,66,,,,,,,,,,,,,,,,,,,,,,,
11,52136, Note_on_c,9,54,0,,,,,,,,,,,,,,,,,,,,,,,
11,52176, Note_on_c,9,40,104,,,,,,,,,,,,,,,,,,,,,,,
11,52176, Note_on_c,9,54,57,,,,,,,,,,,,,,,,,,,,,,,
11,52184, Note_on_c,9,40,0,,,,,,,,,,,,,,,,,,,,,,,
11,52184, Note_on_c,9,54,0,,,,,,,,,,,,,,,,,,,,,,,
11,52224, Note_on_c,9,36,90,,,,,,,,,,,,,,,,,,,,,,,
11,52224, Note_on_c,9,51,88,,,,,,,,,,,,,,,,,,,,,,,
11,52224, Note_on_c,9,54,112,,,,,,,,,,,,,,,,,,,,,,,
11,52232, Note_on_c,9,36,0,,,,,,,,,,,,,,,,,,,,,,,
11,52232, Note_on_c,9,51,0,,,,,,,,,,,,,,,,,,,,,,,
11,52232, Note_on_c,9,54,0,,,,,,,,,,,,,,,,,,,,,,,
11,52272, Note_on_c,9,40,127,,,,,,,,,,,,,,,,,,,,,,,
11,52272, Note_on_c,9,54,67,,,,,,,,,,,,,,,,,,,,,,,
11,52280, Note_on_c,9,40,0,,,,,,,,,,,,,,,,,,,,,,,
11,52280, Note_on_c,9,54,0,,,,,,,,,,,,,,,,,,,,,,,
11,52320, Note_on_c,9,36,90,,,,,,,,,,,,,,,,,,,,,,,
11,52320, Note_on_c,9,51,92,,,,,,,,,,,,,,,,,,,,,,,
11,52320, Note_on_c,9,54,78,,,,,,,,,,,,,,,,,,,,,,,
11,52328, Note_on_c,9,36,0,,,,,,,,,,,,,,,,,,,,,,,
11,52328, Note_on_c,9,51,0,,,,,,,,,,,,,,,,,,,,,,,
11,52328, Note_on_c,9,54,0,,,,,,,,,,,,,,,,,,,,,,,
11,52368, Note_on_c,9,54,66,,,,,,,,,,,,,,,,,,,,,,,
11,52376, Note_on_c,9,54,0,,,,,,,,,,,,,,,,,,,,,,,
11,52416, Note_on_c,9,40,127,,,,,,,,,,,,,,,,,,,,,,,
11,52416, Note_on_c,9,51,112,,,,,,,,,,,,,,,,,,,,,,,
11,52416, Note_on_c,9,54,112,,,,,,,,,,,,,,,,,,,,,,,
11,52424, Note_on_c,9,40,0,,,,,,,,,,,,,,,,,,,,,,,
11,52424, Note_on_c,9,51,0,,,,,,,,,,,,,,,,,,,,,,,
11,52424, Note_on_c,9,54,0,,,,,,,,,,,,,,,,,,,,,,,
11,52464, Note_on_c,9,40,72,,,,,,,,,,,,,,,,,,,,,,,
11,52464, Note_on_c,9,54,57,,,,,,,,,,,,,,,,,,,,,,,
11,52472, Note_on_c,9,40,0,,,,,,,,,,,,,,,,,,,,,,,
11,52472, Note_on_c,9,54,0,,,,,,,,,,,,,,,,,,,,,,,
11,52488, Note_on_c,9,40,66,,,,,,,,,,,,,,,,,,,,,,,
11,52496, Note_on_c,9,40,0,,,,,,,,,,,,,,,,,,,,,,,
11,52512, Note_on_c,9,40,76,,,,,,,,,,,,,,,,,,,,,,,
11,52512, Note_on_c,9,51,64,,,,,,,,,,,,,,,,,,,,,,,
11,52512, Note_on_c,9,54,80,,,,,,,,,,,,,,,,,,,,,,,
11,52520, Note_on_c,9,40,0,,,,,,,,,,,,,,,,,,,,,,,
11,52520, Note_on_c,9,51,0,,,,,,,,,,,,,,,,,,,,,,,
11,52520, Note_on_c,9,54,0,,,,,,,,,,,,,,,,,,,,,,,
11,52560, Note_on_c,9,40,66,,,,,,,,,,,,,,,,,,,,,,,
11,52560, Note_on_c,9,54,57,,,,,,,,,,,,,,,,,,,,,,,
11,52568, Note_on_c,9,40,0,,,,,,,,,,,,,,,,,,,,,,,
11,52568, Note_on_c,9,54,0,,,,,,,,,,,,,,,,,,,,,,,
11,52608, Note_on_c,9,36,86,,,,,,,,,,,,,,,,,,,,,,,
11,52608, Note_on_c,9,54,112,,,,,,,,,,,,,,,,,,,,,,,
11,52616, Note_on_c,9,36,0,,,,,,,,,,,,,,,,,,,,,,,
11,52616, Note_on_c,9,54,0,,,,,,,,,,,,,,,,,,,,,,,
11,52656, Note_on_c,9,54,44,,,,,,,,,,,,,,,,,,,,,,,
11,52664, Note_on_c,9,54,0,,,,,,,,,,,,,,,,,,,,,,,
11,52704, Note_on_c,9,36,94,,,,,,,,,,,,,,,,,,,,,,,
11,52704, Note_on_c,9,54,64,,,,,,,,,,,,,,,,,,,,,,,
11,52712, Note_on_c,9,36,0,,,,,,,,,,,,,,,,,,,,,,,
11,52712, Note_on_c,9,54,0,,,,,,,,,,,,,,,,,,,,,,,
11,52752, Note_on_c,9,54,52,,,,,,,,,,,,,,,,,,,,,,,
11,52760, Note_on_c,9,54,0,,,,,,,,,,,,,,,,,,,,,,,
11,52800, Note_on_c,9,40,127,,,,,,,,,,,,,,,,,,,,,,,
11,52800, Note_on_c,9,51,107,,,,,,,,,,,,,,,,,,,,,,,
11,52800, Note_on_c,9,54,112,,,,,,,,,,,,,,,,,,,,,,,
11,52808, Note_on_c,9,40,0,,,,,,,,,,,,,,,,,,,,,,,
11,52808, Note_on_c,9,51,0,,,,,,,,,,,,,,,,,,,,,,,
11,52808, Note_on_c,9,54,0,,,,,,,,,,,,,,,,,,,,,,,
11,52848, Note_on_c,9,54,44,,,,,,,,,,,,,,,,,,,,,,,
11,52856, Note_on_c,9,54,0,,,,,,,,,,,,,,,,,,,,,,,
11,52896, Note_on_c,9,54,67,,,,,,,,,,,,,,,,,,,,,,,
11,52904, Note_on_c,9,54,0,,,,,,,,,,,,,,,,,,,,,,,
11,52944, Note_on_c,9,40,104,,,,,,,,,,,,,,,,,,,,,,,
11,52944, Note_on_c,9,54,50,,,,,,,,,,,,,,,,,,,,,,,
11,52952, Note_on_c,9,40,0,,,,,,,,,,,,,,,,,,,,,,,
11,52952, Note_on_c,9,54,0,,,,,,,,,,,,,,,,,,,,,,,
11,52992, Note_on_c,9,36,90,,,,,,,,,,,,,,,,,,,,,,,
11,52992, Note_on_c,9,51,88,,,,,,,,,,,,,,,,,,,,,,,
11,52992, Note_on_c,9,54,112,,,,,,,,,,,,,,,,,,,,,,,
11,53000, Note_on_c,9,36,0,,,,,,,,,,,,,,,,,,,,,,,
11,53000, Note_on_c,9,51,0,,,,,,,,,,,,,,,,,,,,,,,
11,53000, Note_on_c,9,54,0,,,,,,,,,,,,,,,,,,,,,,,
11,53040, Note_on_c,9,40,127,,,,,,,,,,,,,,,,,,,,,,,
11,53040, Note_on_c,9,54,51,,,,,,,,,,,,,,,,,,,,,,,
11,53048, Note_on_c,9,40,0,,,,,,,,,,,,,,,,,,,,,,,
11,53048, Note_on_c,9,54,0,,,,,,,,,,,,,,,,,,,,,,,
11,53088, Note_on_c,9,36,90,,,,,,,,,,,,,,,,,,,,,,,
11,53088, Note_on_c,9,51,92,,,,,,,,,,,,,,,,,,,,,,,
11,53088, Note_on_c,9,54,86,,,,,,,,,,,,,,,,,,,,,,,
11,53096, Note_on_c,9,36,0,,,,,,,,,,,,,,,,,,,,,,,
11,53096, Note_on_c,9,51,0,,,,,,,,,,,,,,,,,,,,,,,
11,53096, Note_on_c,9,54,0,,,,,,,,,,,,,,,,,,,,,,,
11,53136, Note_on_c,9,54,70,,,,,,,,,,,,,,,,,,,,,,,
11,53144, Note_on_c,9,54,0,,,,,,,,,,,,,,,,,,,,,,,
11,53184, Note_on_c,9,40,127,,,,,,,,,,,,,,,,,,,,,,,
11,53184, Note_on_c,9,51,112,,,,,,,,,,,,,,,,,,,,,,,
11,53184, Note_on_c,9,54,112,,,,,,,,,,,,,,,,,,,,,,,
11,53192, Note_on_c,9,40,0,,,,,,,,,,,,,,,,,,,,,,,
11,53192, Note_on_c,9,51,0,,,,,,,,,,,,,,,,,,,,,,,
11,53192, Note_on_c,9,54,0,,,,,,,,,,,,,,,,,,,,,,,
11,53232, Note_on_c,9,40,72,,,,,,,,,,,,,,,,,,,,,,,
11,53232, Note_on_c,9,54,58,,,,,,,,,,,,,,,,,,,,,,,
11,53240, Note_on_c,9,40,0,,,,,,,,,,,,,,,,,,,,,,,
11,53240, Note_on_c,9,54,0,,,,,,,,,,,,,,,,,,,,,,,
11,53256, Note_on_c,9,40,66,,,,,,,,,,,,,,,,,,,,,,,
11,53264, Note_on_c,9,40,0,,,,,,,,,,,,,,,,,,,,,,,
11,53280, Note_on_c,9,40,76,,,,,,,,,,,,,,,,,,,,,,,
11,53280, Note_on_c,9,51,64,,,,,,,,,,,,,,,,,,,,,,,
11,53280, Note_on_c,9,54,61,,,,,,,,,,,,,,,,,,,,,,,
11,53288, Note_on_c,9,40,0,,,,,,,,,,,,,,,,,,,,,,,
11,53288, Note_on_c,9,51,0,,,,,,,,,,,,,,,,,,,,,,,
11,53288, Note_on_c,9,54,0,,,,,,,,,,,,,,,,,,,,,,,
11,53328, Note_on_c,9,40,66,,,,,,,,,,,,,,,,,,,,,,,
11,53328, Note_on_c,9,54,64,,,,,,,,,,,,,,,,,,,,,,,
11,53336, Note_on_c,9,40,0,,,,,,,,,,,,,,,,,,,,,,,
11,53336, Note_on_c,9,54,0,,,,,,,,,,,,,,,,,,,,,,,
11,53376, Note_on_c,9,36,94,,,,,,,,,,,,,,,,,,,,,,,
11,53376, Note_on_c,9,49,73,,,,,,,,,,,,,,,,,,,,,,,
11,53376, Note_on_c,9,51,107,,,,,,,,,,,,,,,,,,,,,,,
11,53376, Note_on_c,9,54,112,,,,,,,,,,,,,,,,,,,,,,,
11,53384, Note_on_c,9,36,0,,,,,,,,,,,,,,,,,,,,,,,
11,53384, Note_on_c,9,49,0,,,,,,,,,,,,,,,,,,,,,,,
11,53384, Note_on_c,9,51,0,,,,,,,,,,,,,,,,,,,,,,,
11,53384, Note_on_c,9,54,0,,,,,,,,,,,,,,,,,,,,,,,
11,53424, Note_on_c,9,54,74,,,,,,,,,,,,,,,,,,,,,,,
11,53432, Note_on_c,9,54,0,,,,,,,,,,,,,,,,,,,,,,,
11,53472, Note_on_c,9,36,94,,,,,,,,,,,,,,,,,,,,,,,
11,53472, Note_on_c,9,51,58,,,,,,,,,,,,,,,,,,,,,,,
11,53472, Note_on_c,9,54,61,,,,,,,,,,,,,,,,,,,,,,,
11,53480, Note_on_c,9,36,0,,,,,,,,,,,,,,,,,,,,,,,
11,53480, Note_on_c,9,51,0,,,,,,,,,,,,,,,,,,,,,,,
11,53480, Note_on_c,9,54,0,,,,,,,,,,,,,,,,,,,,,,,
11,53520, Note_on_c,9,54,56,,,,,,,,,,,,,,,,,,,,,,,
11,53528, Note_on_c,9,54,0,,,,,,,,,,,,,,,,,,,,,,,
11,53568, Note_on_c,9,40,127,,,,,,,,,,,,,,,,,,,,,,,
11,53568, Note_on_c,9,51,112,,,,,,,,,,,,,,,,,,,,,,,
11,53568, Note_on_c,9,54,112,,,,,,,,,,,,,,,,,,,,,,,
11,53576, Note_on_c,9,40,0,,,,,,,,,,,,,,,,,,,,,,,
11,53576, Note_on_c,9,51,0,,,,,,,,,,,,,,,,,,,,,,,
11,53576, Note_on_c,9,54,0,,,,,,,,,,,,,,,,,,,,,,,
11,53616, Note_on_c,9,54,67,,,,,,,,,,,,,,,,,,,,,,,
11,53624, Note_on_c,9,54,0,,,,,,,,,,,,,,,,,,,,,,,
11,53664, Note_on_c,9,51,78,,,,,,,,,,,,,,,,,,,,,,,
11,53664, Note_on_c,9,54,70,,,,,,,,,,,,,,,,,,,,,,,
11,53672, Note_on_c,9,51,0,,,,,,,,,,,,,,,,,,,,,,,
11,53672, Note_on_c,9,54,0,,,,,,,,,,,,,,,,,,,,,,,
11,53712, Note_on_c,9,40,107,,,,,,,,,,,,,,,,,,,,,,,
11,53712, Note_on_c,9,54,66,,,,,,,,,,,,,,,,,,,,,,,
11,53720, Note_on_c,9,40,0,,,,,,,,,,,,,,,,,,,,,,,
11,53720, Note_on_c,9,54,0,,,,,,,,,,,,,,,,,,,,,,,
11,53760, Note_on_c,9,36,99,,,,,,,,,,,,,,,,,,,,,,,
11,53760, Note_on_c,9,51,64,,,,,,,,,,,,,,,,,,,,,,,
11,53760, Note_on_c,9,54,112,,,,,,,,,,,,,,,,,,,,,,,
11,53768, Note_on_c,9,36,0,,,,,,,,,,,,,,,,,,,,,,,
11,53768, Note_on_c,9,51,0,,,,,,,,,,,,,,,,,,,,,,,
11,53768, Note_on_c,9,54,0,,,,,,,,,,,,,,,,,,,,,,,
11,53808, Note_on_c,9,40,127,,,,,,,,,,,,,,,,,,,,,,,
11,53808, Note_on_c,9,54,52,,,,,,,,,,,,,,,,,,,,,,,
11,53816, Note_on_c,9,40,0,,,,,,,,,,,,,,,,,,,,,,,
11,53816, Note_on_c,9,54,0,,,,,,,,,,,,,,,,,,,,,,,
11,53856, Note_on_c,9,36,94,,,,,,,,,,,,,,,,,,,,,,,
11,53856, Note_on_c,9,51,112,,,,,,,,,,,,,,,,,,,,,,,
11,53856, Note_on_c,9,54,67,,,,,,,,,,,,,,,,,,,,,,,
11,53864, Note_on_c,9,36,0,,,,,,,,,,,,,,,,,,,,,,,
11,53864, Note_on_c,9,51,0,,,,,,,,,,,,,,,,,,,,,,,
11,53864, Note_on_c,9,54,0,,,,,,,,,,,,,,,,,,,,,,,
11,53904, Note_on_c,9,54,72,,,,,,,,,,,,,,,,,,,,,,,
11,53912, Note_on_c,9,54,0,,,,,,,,,,,,,,,,,,,,,,,
11,53952, Note_on_c,9,40,127,,,,,,,,,,,,,,,,,,,,,,,
11,53952, Note_on_c,9,51,112,,,,,,,,,,,,,,,,,,,,,,,
11,53952, Note_on_c,9,54,112,,,,,,,,,,,,,,,,,,,,,,,
11,53960, Note_on_c,9,40,0,,,,,,,,,,,,,,,,,,,,,,,
11,53960, Note_on_c,9,51,0,,,,,,,,,,,,,,,,,,,,,,,
11,53960, Note_on_c,9,54,0,,,,,,,,,,,,,,,,,,,,,,,
11,54000, Note_on_c,9,40,80,,,,,,,,,,,,,,,,,,,,,,,
11,54000, Note_on_c,9,54,78,,,,,,,,,,,,,,,,,,,,,,,
11,54008, Note_on_c,9,40,0,,,,,,,,,,,,,,,,,,,,,,,
11,54008, Note_on_c,9,54,0,,,,,,,,,,,,,,,,,,,,,,,
11,54024, Note_on_c,9,40,66,,,,,,,,,,,,,,,,,,,,,,,
11,54032, Note_on_c,9,40,0,,,,,,,,,,,,,,,,,,,,,,,
11,54048, Note_on_c,9,40,84,,,,,,,,,,,,,,,,,,,,,,,
11,54048, Note_on_c,9,51,82,,,,,,,,,,,,,,,,,,,,,,,
11,54048, Note_on_c,9,54,82,,,,,,,,,,,,,,,,,,,,,,,
11,54056, Note_on_c,9,40,0,,,,,,,,,,,,,,,,,,,,,,,
11,54056, Note_on_c,9,51,0,,,,,,,,,,,,,,,,,,,,,,,
11,54056, Note_on_c,9,54,0,,,,,,,,,,,,,,,,,,,,,,,
11,54096, Note_on_c,9,40,63,,,,,,,,,,,,,,,,,,,,,,,
11,54096, Note_on_c,9,54,80,,,,,,,,,,,,,,,,,,,,,,,
11,54104, Note_on_c,9,40,0,,,,,,,,,,,,,,,,,,,,,,,
11,54104, Note_on_c,9,54,0,,,,,,,,,,,,,,,,,,,,,,,
11,54144, Note_on_c,9,36,99,,,,,,,,,,,,,,,,,,,,,,,
11,54144, Note_on_c,9,51,127,,,,,,,,,,,,,,,,,,,,,,,
11,54144, Note_on_c,9,54,112,,,,,,,,,,,,,,,,,,,,,,,
11,54152, Note_on_c,9,36,0,,,,,,,,,,,,,,,,,,,,,,,
11,54152, Note_on_c,9,51,0,,,,,,,,,,,,,,,,,,,,,,,
11,54152, Note_on_c,9,54,0,,,,,,,,,,,,,,,,,,,,,,,
11,54192, Note_on_c,9,54,66,,,,,,,,,,,,,,,,,,,,,,,
11,54200, Note_on_c,9,54,0,,,,,,,,,,,,,,,,,,,,,,,
11,54240, Note_on_c,9,36,94,,,,,,,,,,,,,,,,,,,,,,,
11,54240, Note_on_c,9,51,72,,,,,,,,,,,,,,,,,,,,,,,
11,54240, Note_on_c,9,54,57,,,,,,,,,,,,,,,,,,,,,,,
11,54248, Note_on_c,9,36,0,,,,,,,,,,,,,,,,,,,,,,,
11,54248, Note_on_c,9,51,0,,,,,,,,,,,,,,,,,,,,,,,
11,54248, Note_on_c,9,54,0,,,,,,,,,,,,,,,,,,,,,,,
11,54288, Note_on_c,9,40,40,,,,,,,,,,,,,,,,,,,,,,,
11,54288, Note_on_c,9,54,61,,,,,,,,,,,,,,,,,,,,,,,
11,54296, Note_on_c,9,40,0,,,,,,,,,,,,,,,,,,,,,,,
11,54296, Note_on_c,9,54,0,,,,,,,,,,,,,,,,,,,,,,,
11,54336, Note_on_c,9,40,127,,,,,,,,,,,,,,,,,,,,,,,
11,54336, Note_on_c,9,51,127,,,,,,,,,,,,,,,,,,,,,,,
11,54336, Note_on_c,9,54,107,,,,,,,,,,,,,,,,,,,,,,,
11,54344, Note_on_c,9,40,0,,,,,,,,,,,,,,,,,,,,,,,
11,54344, Note_on_c,9,51,0,,,,,,,,,,,,,,,,,,,,,,,
11,54344, Note_on_c,9,54,0,,,,,,,,,,,,,,,,,,,,,,,
11,54384, Note_on_c,9,54,56,,,,,,,,,,,,,,,,,,,,,,,
11,54392, Note_on_c,9,54,0,,,,,,,,,,,,,,,,,,,,,,,
11,54432, Note_on_c,9,51,92,,,,,,,,,,,,,,,,,,,,,,,
11,54432, Note_on_c,9,54,80,,,,,,,,,,,,,,,,,,,,,,,
11,54440, Note_on_c,9,51,0,,,,,,,,,,,,,,,,,,,,,,,
11,54440, Note_on_c,9,54,0,,,,,,,,,,,,,,,,,,,,,,,
11,54480, Note_on_c,9,40,107,,,,,,,,,,,,,,,,,,,,,,,
11,54480, Note_on_c,9,54,80,,,,,,,,,,,,,,,,,,,,,,,
11,54488, Note_on_c,9,40,0,,,,,,,,,,,,,,,,,,,,,,,
11,54488, Note_on_c,9,54,0,,,,,,,,,,,,,,,,,,,,,,,
11,54528, Note_on_c,9,36,99,,,,,,,,,,,,,,,,,,,,,,,
11,54528, Note_on_c,9,51,92,,,,,,,,,,,,,,,,,,,,,,,
11,54528, Note_on_c,9,54,107,,,,,,,,,,,,,,,,,,,,,,,
11,54536, Note_on_c,9,36,0,,,,,,,,,,,,,,,,,,,,,,,
11,54536, Note_on_c,9,51,0,,,,,,,,,,,,,,,,,,,,,,,
11,54536, Note_on_c,9,54,0,,,,,,,,,,,,,,,,,,,,,,,
11,54576, Note_on_c,9,40,127,,,,,,,,,,,,,,,,,,,,,,,
11,54576, Note_on_c,9,54,70,,,,,,,,,,,,,,,,,,,,,,,
11,54584, Note_on_c,9,40,0,,,,,,,,,,,,,,,,,,,,,,,
11,54584, Note_on_c,9,54,0,,,,,,,,,,,,,,,,,,,,,,,
11,54624, Note_on_c,9,36,86,,,,,,,,,,,,,,,,,,,,,,,
11,54624, Note_on_c,9,51,127,,,,,,,,,,,,,,,,,,,,,,,
11,54624, Note_on_c,9,54,64,,,,,,,,,,,,,,,,,,,,,,,
11,54632, Note_on_c,9,36,0,,,,,,,,,,,,,,,,,,,,,,,
11,54632, Note_on_c,9,51,0,,,,,,,,,,,,,,,,,,,,,,,
11,54632, Note_on_c,9,54,0,,,,,,,,,,,,,,,,,,,,,,,
11,54672, Note_on_c,9,54,70,,,,,,,,,,,,,,,,,,,,,,,
11,54680, Note_on_c,9,54,0,,,,,,,,,,,,,,,,,,,,,,,
11,54720, Note_on_c,9,40,127,,,,,,,,,,,,,,,,,,,,,,,
11,54720, Note_on_c,9,51,112,,,,,,,,,,,,,,,,,,,,,,,
11,54720, Note_on_c,9,54,107,,,,,,,,,,,,,,,,,,,,,,,
11,54728, Note_on_c,9,40,0,,,,,,,,,,,,,,,,,,,,,,,
11,54728, Note_on_c,9,51,0,,,,,,,,,,,,,,,,,,,,,,,
11,54728, Note_on_c,9,54,0,,,,,,,,,,,,,,,,,,,,,,,
11,54768, Note_on_c,9,40,84,,,,,,,,,,,,,,,,,,,,,,,
11,54768, Note_on_c,9,54,58,,,,,,,,,,,,,,,,,,,,,,,
11,54776, Note_on_c,9,40,0,,,,,,,,,,,,,,,,,,,,,,,
11,54776, Note_on_c,9,54,0,,,,,,,,,,,,,,,,,,,,,,,
11,54792, Note_on_c,9,40,66,,,,,,,,,,,,,,,,,,,,,,,
11,54800, Note_on_c,9,40,0,,,,,,,,,,,,,,,,,,,,,,,
11,54816, Note_on_c,9,40,89,,,,,,,,,,,,,,,,,,,,,,,
11,54816, Note_on_c,9,51,112,,,,,,,,,,,,,,,,,,,,,,,
11,54816, Note_on_c,9,54,70,,,,,,,,,,,,,,,,,,,,,,,
11,54824, Note_on_c,9,40,0,,,,,,,,,,,,,,,,,,,,,,,
11,54824, Note_on_c,9,51,0,,,,,,,,,,,,,,,,,,,,,,,
11,54824, Note_on_c,9,54,0,,,,,,,,,,,,,,,,,,,,,,,
11,54864, Note_on_c,9,40,66,,,,,,,,,,,,,,,,,,,,,,,
11,54864, Note_on_c,9,54,80,,,,,,,,,,,,,,,,,,,,,,,
11,54872, Note_on_c,9,40,0,,,,,,,,,,,,,,,,,,,,,,,
11,54872, Note_on_c,9,54,0,,,,,,,,,,,,,,,,,,,,,,,
11,54912, Note_on_c,9,36,86,,,,,,,,,,,,,,,,,,,,,,,
11,54912, Note_on_c,9,49,99,,,,,,,,,,,,,,,,,,,,,,,
11,54912, Note_on_c,9,54,112,,,,,,,,,,,,,,,,,,,,,,,
11,54920, Note_on_c,9,36,0,,,,,,,,,,,,,,,,,,,,,,,
11,54920, Note_on_c,9,49,0,,,,,,,,,,,,,,,,,,,,,,,
11,54920, Note_on_c,9,54,0,,,,,,,,,,,,,,,,,,,,,,,
11,54960, Note_on_c,9,54,41,,,,,,,,,,,,,,,,,,,,,,,
11,54968, Note_on_c,9,54,0,,,,,,,,,,,,,,,,,,,,,,,
11,55008, Note_on_c,9,36,94,,,,,,,,,,,,,,,,,,,,,,,
11,55008, Note_on_c,9,54,88,,,,,,,,,,,,,,,,,,,,,,,
11,55016, Note_on_c,9,36,0,,,,,,,,,,,,,,,,,,,,,,,
11,55016, Note_on_c,9,54,0,,,,,,,,,,,,,,,,,,,,,,,
11,55056, Note_on_c,9,54,53,,,,,,,,,,,,,,,,,,,,,,,
11,55064, Note_on_c,9,54,0,,,,,,,,,,,,,,,,,,,,,,,
11,55104, Note_on_c,9,40,127,,,,,,,,,,,,,,,,,,,,,,,
11,55104, Note_on_c,9,51,107,,,,,,,,,,,,,,,,,,,,,,,
11,55104, Note_on_c,9,54,112,,,,,,,,,,,,,,,,,,,,,,,
11,55112, Note_on_c,9,40,0,,,,,,,,,,,,,,,,,,,,,,,
11,55112, Note_on_c,9,51,0,,,,,,,,,,,,,,,,,,,,,,,
11,55112, Note_on_c,9,54,0,,,,,,,,,,,,,,,,,,,,,,,
11,55152, Note_on_c,9,54,46,,,,,,,,,,,,,,,,,,,,,,,
11,55160, Note_on_c,9,54,0,,,,,,,,,,,,,,,,,,,,,,,
11,55200, Note_on_c,9,54,66,,,,,,,,,,,,,,,,,,,,,,,
11,55208, Note_on_c,9,54,0,,,,,,,,,,,,,,,,,,,,,,,
11,55248, Note_on_c,9,40,104,,,,,,,,,,,,,,,,,,,,,,,
11,55248, Note_on_c,9,54,57,,,,,,,,,,,,,,,,,,,,,,,
11,55256, Note_on_c,9,40,0,,,,,,,,,,,,,,,,,,,,,,,
11,55256, Note_on_c,9,54,0,,,,,,,,,,,,,,,,,,,,,,,
11,55296, Note_on_c,9,36,90,,,,,,,,,,,,,,,,,,,,,,,
11,55296, Note_on_c,9,51,88,,,,,,,,,,,,,,,,,,,,,,,
11,55296, Note_on_c,9,54,112,,,,,,,,,,,,,,,,,,,,,,,
11,55304, Note_on_c,9,36,0,,,,,,,,,,,,,,,,,,,,,,,
11,55304, Note_on_c,9,51,0,,,,,,,,,,,,,,,,,,,,,,,
11,55304, Note_on_c,9,54,0,,,,,,,,,,,,,,,,,,,,,,,
11,55344, Note_on_c,9,40,127,,,,,,,,,,,,,,,,,,,,,,,
11,55344, Note_on_c,9,54,67,,,,,,,,,,,,,,,,,,,,,,,
11,55352, Note_on_c,9,40,0,,,,,,,,,,,,,,,,,,,,,,,
11,55352, Note_on_c,9,54,0,,,,,,,,,,,,,,,,,,,,,,,
11,55392, Note_on_c,9,36,90,,,,,,,,,,,,,,,,,,,,,,,
11,55392, Note_on_c,9,51,92,,,,,,,,,,,,,,,,,,,,,,,
11,55392, Note_on_c,9,54,78,,,,,,,,,,,,,,,,,,,,,,,
11,55400, Note_on_c,9,36,0,,,,,,,,,,,,,,,,,,,,,,,
11,55400, Note_on_c,9,51,0,,,,,,,,,,,,,,,,,,,,,,,
11,55400, Note_on_c,9,54,0,,,,,,,,,,,,,,,,,,,,,,,
11,55440, Note_on_c,9,54,66,,,,,,,,,,,,,,,,,,,,,,,
11,55448, Note_on_c,9,54,0,,,,,,,,,,,,,,,,,,,,,,,
11,55488, Note_on_c,9,40,127,,,,,,,,,,,,,,,,,,,,,,,
11,55488, Note_on_c,9,51,112,,,,,,,,,,,,,,,,,,,,,,,
11,55488, Note_on_c,9,54,112,,,,,,,,,,,,,,,,,,,,,,,
11,55496, Note_on_c,9,40,0,,,,,,,,,,,,,,,,,,,,,,,
11,55496, Note_on_c,9,51,0,,,,,,,,,,,,,,,,,,,,,,,
11,55496, Note_on_c,9,54,0,,,,,,,,,,,,,,,,,,,,,,,
11,55536, Note_on_c,9,40,72,,,,,,,,,,,,,,,,,,,,,,,
11,55536, Note_on_c,9,54,57,,,,,,,,,,,,,,,,,,,,,,,
11,55544, Note_on_c,9,40,0,,,,,,,,,,,,,,,,,,,,,,,
11,55544, Note_on_c,9,54,0,,,,,,,,,,,,,,,,,,,,,,,
11,55560, Note_on_c,9,40,66,,,,,,,,,,,,,,,,,,,,,,,
11,55568, Note_on_c,9,40,0,,,,,,,,,,,,,,,,,,,,,,,
11,55584, Note_on_c,9,40,76,,,,,,,,,,,,,,,,,,,,,,,
11,55584, Note_on_c,9,51,64,,,,,,,,,,,,,,,,,,,,,,,
11,55584, Note_on_c,9,54,80,,,,,,,,,,,,,,,,,,,,,,,
11,55592, Note_on_c,9,40,0,,,,,,,,,,,,,,,,,,,,,,,
11,55592, Note_on_c,9,51,0,,,,,,,,,,,,,,,,,,,,,,,
11,55592, Note_on_c,9,54,0,,,,,,,,,,,,,,,,,,,,,,,
11,55632, Note_on_c,9,40,66,,,,,,,,,,,,,,,,,,,,,,,
11,55632, Note_on_c,9,54,57,,,,,,,,,,,,,,,,,,,,,,,
11,55640, Note_on_c,9,40,0,,,,,,,,,,,,,,,,,,,,,,,
11,55640, Note_on_c,9,54,0,,,,,,,,,,,,,,,,,,,,,,,
11,55680, Note_on_c,9,36,86,,,,,,,,,,,,,,,,,,,,,,,
11,55680, Note_on_c,9,54,112,,,,,,,,,,,,,,,,,,,,,,,
11,55688, Note_on_c,9,36,0,,,,,,,,,,,,,,,,,,,,,,,
11,55688, Note_on_c,9,54,0,,,,,,,,,,,,,,,,,,,,,,,
11,55728, Note_on_c,9,54,44,,,,,,,,,,,,,,,,,,,,,,,
11,55736, Note_on_c,9,54,0,,,,,,,,,,,,,,,,,,,,,,,
11,55776, Note_on_c,9,36,94,,,,,,,,,,,,,,,,,,,,,,,
11,55776, Note_on_c,9,54,64,,,,,,,,,,,,,,,,,,,,,,,
11,55784, Note_on_c,9,36,0,,,,,,,,,,,,,,,,,,,,,,,
11,55784, Note_on_c,9,54,0,,,,,,,,,,,,,,,,,,,,,,,
11,55824, Note_on_c,9,54,52,,,,,,,,,,,,,,,,,,,,,,,
11,55832, Note_on_c,9,54,0,,,,,,,,,,,,,,,,,,,,,,,
11,55872, Note_on_c,9,40,127,,,,,,,,,,,,,,,,,,,,,,,
11,55872, Note_on_c,9,51,107,,,,,,,,,,,,,,,,,,,,,,,
11,55872, Note_on_c,9,54,112,,,,,,,,,,,,,,,,,,,,,,,
11,55880, Note_on_c,9,40,0,,,,,,,,,,,,,,,,,,,,,,,
11,55880, Note_on_c,9,51,0,,,,,,,,,,,,,,,,,,,,,,,
11,55880, Note_on_c,9,54,0,,,,,,,,,,,,,,,,,,,,,,,
11,55920, Note_on_c,9,54,44,,,,,,,,,,,,,,,,,,,,,,,
11,55928, Note_on_c,9,54,0,,,,,,,,,,,,,,,,,,,,,,,
11,55968, Note_on_c,9,54,67,,,,,,,,,,,,,,,,,,,,,,,
11,55976, Note_on_c,9,54,0,,,,,,,,,,,,,,,,,,,,,,,
11,56016, Note_on_c,9,40,104,,,,,,,,,,,,,,,,,,,,,,,
11,56016, Note_on_c,9,54,50,,,,,,,,,,,,,,,,,,,,,,,
11,56024, Note_on_c,9,40,0,,,,,,,,,,,,,,,,,,,,,,,
11,56024, Note_on_c,9,54,0,,,,,,,,,,,,,,,,,,,,,,,
11,56064, Note_on_c,9,36,90,,,,,,,,,,,,,,,,,,,,,,,
11,56064, Note_on_c,9,51,88,,,,,,,,,,,,,,,,,,,,,,,
11,56064, Note_on_c,9,54,112,,,,,,,,,,,,,,,,,,,,,,,
11,56072, Note_on_c,9,36,0,,,,,,,,,,,,,,,,,,,,,,,
11,56072, Note_on_c,9,51,0,,,,,,,,,,,,,,,,,,,,,,,
11,56072, Note_on_c,9,54,0,,,,,,,,,,,,,,,,,,,,,,,
11,56112, Note_on_c,9,40,127,,,,,,,,,,,,,,,,,,,,,,,
11,56112, Note_on_c,9,54,51,,,,,,,,,,,,,,,,,,,,,,,
11,56120, Note_on_c,9,40,0,,,,,,,,,,,,,,,,,,,,,,,
11,56120, Note_on_c,9,54,0,,,,,,,,,,,,,,,,,,,,,,,
11,56160, Note_on_c,9,36,90,,,,,,,,,,,,,,,,,,,,,,,
11,56160, Note_on_c,9,51,92,,,,,,,,,,,,,,,,,,,,,,,
11,56160, Note_on_c,9,54,86,,,,,,,,,,,,,,,,,,,,,,,
11,56168, Note_on_c,9,36,0,,,,,,,,,,,,,,,,,,,,,,,
11,56168, Note_on_c,9,51,0,,,,,,,,,,,,,,,,,,,,,,,
11,56168, Note_on_c,9,54,0,,,,,,,,,,,,,,,,,,,,,,,
11,56208, Note_on_c,9,54,70,,,,,,,,,,,,,,,,,,,,,,,
11,56216, Note_on_c,9,54,0,,,,,,,,,,,,,,,,,,,,,,,
11,56256, Note_on_c,9,40,127,,,,,,,,,,,,,,,,,,,,,,,
11,56256, Note_on_c,9,51,112,,,,,,,,,,,,,,,,,,,,,,,
11,56256, Note_on_c,9,54,112,,,,,,,,,,,,,,,,,,,,,,,
11,56264, Note_on_c,9,40,0,,,,,,,,,,,,,,,,,,,,,,,
11,56264, Note_on_c,9,51,0,,,,,,,,,,,,,,,,,,,,,,,
11,56264, Note_on_c,9,54,0,,,,,,,,,,,,,,,,,,,,,,,
11,56304, Note_on_c,9,40,72,,,,,,,,,,,,,,,,,,,,,,,
11,56304, Note_on_c,9,54,58,,,,,,,,,,,,,,,,,,,,,,,
11,56312, Note_on_c,9,40,0,,,,,,,,,,,,,,,,,,,,,,,
11,56312, Note_on_c,9,54,0,,,,,,,,,,,,,,,,,,,,,,,
11,56328, Note_on_c,9,40,66,,,,,,,,,,,,,,,,,,,,,,,
11,56336, Note_on_c,9,40,0,,,,,,,,,,,,,,,,,,,,,,,
11,56352, Note_on_c,9,40,76,,,,,,,,,,,,,,,,,,,,,,,
11,56352, Note_on_c,9,51,64,,,,,,,,,,,,,,,,,,,,,,,
11,56352, Note_on_c,9,54,61,,,,,,,,,,,,,,,,,,,,,,,
11,56360, Note_on_c,9,40,0,,,,,,,,,,,,,,,,,,,,,,,
11,56360, Note_on_c,9,51,0,,,,,,,,,,,,,,,,,,,,,,,
11,56360, Note_on_c,9,54,0,,,,,,,,,,,,,,,,,,,,,,,
11,56400, Note_on_c,9,40,66,,,,,,,,,,,,,,,,,,,,,,,
11,56400, Note_on_c,9,54,64,,,,,,,,,,,,,,,,,,,,,,,
11,56408, Note_on_c,9,40,0,,,,,,,,,,,,,,,,,,,,,,,
11,56408, Note_on_c,9,54,0,,,,,,,,,,,,,,,,,,,,,,,
11,56448, Note_on_c,9,36,94,,,,,,,,,,,,,,,,,,,,,,,
11,56448, Note_on_c,9,49,73,,,,,,,,,,,,,,,,,,,,,,,
11,56448, Note_on_c,9,51,107,,,,,,,,,,,,,,,,,,,,,,,
11,56448, Note_on_c,9,54,112,,,,,,,,,,,,,,,,,,,,,,,
11,56456, Note_on_c,9,36,0,,,,,,,,,,,,,,,,,,,,,,,
11,56456, Note_on_c,9,49,0,,,,,,,,,,,,,,,,,,,,,,,
11,56456, Note_on_c,9,51,0,,,,,,,,,,,,,,,,,,,,,,,
11,56456, Note_on_c,9,54,0,,,,,,,,,,,,,,,,,,,,,,,
11,56496, Note_on_c,9,54,74,,,,,,,,,,,,,,,,,,,,,,,
11,56504, Note_on_c,9,54,0,,,,,,,,,,,,,,,,,,,,,,,
11,56544, Note_on_c,9,36,94,,,,,,,,,,,,,,,,,,,,,,,
11,56544, Note_on_c,9,51,58,,,,,,,,,,,,,,,,,,,,,,,
11,56544, Note_on_c,9,54,61,,,,,,,,,,,,,,,,,,,,,,,
11,56552, Note_on_c,9,36,0,,,,,,,,,,,,,,,,,,,,,,,
11,56552, Note_on_c,9,51,0,,,,,,,,,,,,,,,,,,,,,,,
11,56552, Note_on_c,9,54,0,,,,,,,,,,,,,,,,,,,,,,,
11,56592, Note_on_c,9,54,56,,,,,,,,,,,,,,,,,,,,,,,
11,56600, Note_on_c,9,54,0,,,,,,,,,,,,,,,,,,,,,,,
11,56640, Note_on_c,9,40,127,,,,,,,,,,,,,,,,,,,,,,,
11,56640, Note_on_c,9,51,112,,,,,,,,,,,,,,,,,,,,,,,
11,56640, Note_on_c,9,54,112,,,,,,,,,,,,,,,,,,,,,,,
11,56648, Note_on_c,9,40,0,,,,,,,,,,,,,,,,,,,,,,,
11,56648, Note_on_c,9,51,0,,,,,,,,,,,,,,,,,,,,,,,
11,56648, Note_on_c,9,54,0,,,,,,,,,,,,,,,,,,,,,,,
11,56688, Note_on_c,9,54,67,,,,,,,,,,,,,,,,,,,,,,,
11,56696, Note_on_c,9,54,0,,,,,,,,,,,,,,,,,,,,,,,
11,56736, Note_on_c,9,51,78,,,,,,,,,,,,,,,,,,,,,,,
11,56736, Note_on_c,9,54,70,,,,,,,,,,,,,,,,,,,,,,,
11,56744, Note_on_c,9,51,0,,,,,,,,,,,,,,,,,,,,,,,
11,56744, Note_on_c,9,54,0,,,,,,,,,,,,,,,,,,,,,,,
11,56784, Note_on_c,9,40,107,,,,,,,,,,,,,,,,,,,,,,,
11,56784, Note_on_c,9,54,66,,,,,,,,,,,,,,,,,,,,,,,
11,56792, Note_on_c,9,40,0,,,,,,,,,,,,,,,,,,,,,,,
11,56792, Note_on_c,9,54,0,,,,,,,,,,,,,,,,,,,,,,,
11,56832, Note_on_c,9,36,99,,,,,,,,,,,,,,,,,,,,,,,
11,56832, Note_on_c,9,51,64,,,,,,,,,,,,,,,,,,,,,,,
11,56832, Note_on_c,9,54,112,,,,,,,,,,,,,,,,,,,,,,,
11,56840, Note_on_c,9,36,0,,,,,,,,,,,,,,,,,,,,,,,
11,56840, Note_on_c,9,51,0,,,,,,,,,,,,,,,,,,,,,,,
11,56840, Note_on_c,9,54,0,,,,,,,,,,,,,,,,,,,,,,,
11,56880, Note_on_c,9,40,127,,,,,,,,,,,,,,,,,,,,,,,
11,56880, Note_on_c,9,54,52,,,,,,,,,,,,,,,,,,,,,,,
11,56888, Note_on_c,9,40,0,,,,,,,,,,,,,,,,,,,,,,,
11,56888, Note_on_c,9,54,0,,,,,,,,,,,,,,,,,,,,,,,
11,56928, Note_on_c,9,36,94,,,,,,,,,,,,,,,,,,,,,,,
11,56928, Note_on_c,9,51,112,,,,,,,,,,,,,,,,,,,,,,,
11,56928, Note_on_c,9,54,67,,,,,,,,,,,,,,,,,,,,,,,
11,56936, Note_on_c,9,36,0,,,,,,,,,,,,,,,,,,,,,,,
11,56936, Note_on_c,9,51,0,,,,,,,,,,,,,,,,,,,,,,,
11,56936, Note_on_c,9,54,0,,,,,,,,,,,,,,,,,,,,,,,
11,56976, Note_on_c,9,54,72,,,,,,,,,,,,,,,,,,,,,,,
11,56984, Note_on_c,9,54,0,,,,,,,,,,,,,,,,,,,,,,,
11,57024, Note_on_c,9,40,127,,,,,,,,,,,,,,,,,,,,,,,
11,57024, Note_on_c,9,51,112,,,,,,,,,,,,,,,,,,,,,,,
11,57024, Note_on_c,9,54,112,,,,,,,,,,,,,,,,,,,,,,,
11,57032, Note_on_c,9,40,0,,,,,,,,,,,,,,,,,,,,,,,
11,57032, Note_on_c,9,51,0,,,,,,,,,,,,,,,,,,,,,,,
11,57032, Note_on_c,9,54,0,,,,,,,,,,,,,,,,,,,,,,,
11,57072, Note_on_c,9,40,80,,,,,,,,,,,,,,,,,,,,,,,
11,57072, Note_on_c,9,54,78,,,,,,,,,,,,,,,,,,,,,,,
11,57080, Note_on_c,9,40,0,,,,,,,,,,,,,,,,,,,,,,,
11,57080, Note_on_c,9,54,0,,,,,,,,,,,,,,,,,,,,,,,
11,57096, Note_on_c,9,40,66,,,,,,,,,,,,,,,,,,,,,,,
11,57104, Note_on_c,9,40,0,,,,,,,,,,,,,,,,,,,,,,,
11,57120, Note_on_c,9,40,84,,,,,,,,,,,,,,,,,,,,,,,
11,57120, Note_on_c,9,51,82,,,,,,,,,,,,,,,,,,,,,,,
11,57120, Note_on_c,9,54,82,,,,,,,,,,,,,,,,,,,,,,,
11,57128, Note_on_c,9,40,0,,,,,,,,,,,,,,,,,,,,,,,
11,57128, Note_on_c,9,51,0,,,,,,,,,,,,,,,,,,,,,,,
11,57128, Note_on_c,9,54,0,,,,,,,,,,,,,,,,,,,,,,,
11,57168, Note_on_c,9,40,63,,,,,,,,,,,,,,,,,,,,,,,
11,57168, Note_on_c,9,54,80,,,,,,,,,,,,,,,,,,,,,,,
11,57176, Note_on_c,9,40,0,,,,,,,,,,,,,,,,,,,,,,,
11,57176, Note_on_c,9,54,0,,,,,,,,,,,,,,,,,,,,,,,
11,57216, Note_on_c,9,36,99,,,,,,,,,,,,,,,,,,,,,,,
11,57216, Note_on_c,9,51,127,,,,,,,,,,,,,,,,,,,,,,,
11,57216, Note_on_c,9,54,112,,,,,,,,,,,,,,,,,,,,,,,
11,57224, Note_on_c,9,36,0,,,,,,,,,,,,,,,,,,,,,,,
11,57224, Note_on_c,9,51,0,,,,,,,,,,,,,,,,,,,,,,,
11,57224, Note_on_c,9,54,0,,,,,,,,,,,,,,,,,,,,,,,
11,57264, Note_on_c,9,54,66,,,,,,,,,,,,,,,,,,,,,,,
11,57272, Note_on_c,9,54,0,,,,,,,,,,,,,,,,,,,,,,,
11,57312, Note_on_c,9,36,94,,,,,,,,,,,,,,,,,,,,,,,
11,57312, Note_on_c,9,51,72,,,,,,,,,,,,,,,,,,,,,,,
11,57312, Note_on_c,9,54,57,,,,,,,,,,,,,,,,,,,,,,,
11,57320, Note_on_c,9,36,0,,,,,,,,,,,,,,,,,,,,,,,
11,57320, Note_on_c,9,51,0,,,,,,,,,,,,,,,,,,,,,,,
11,57320, Note_on_c,9,54,0,,,,,,,,,,,,,,,,,,,,,,,
11,57360, Note_on_c,9,40,40,,,,,,,,,,,,,,,,,,,,,,,
11,57360, Note_on_c,9,54,61,,,,,,,,,,,,,,,,,,,,,,,
11,57368, Note_on_c,9,40,0,,,,,,,,,,,,,,,,,,,,,,,
11,57368, Note_on_c,9,54,0,,,,,,,,,,,,,,,,,,,,,,,
11,57408, Note_on_c,9,40,127,,,,,,,,,,,,,,,,,,,,,,,
11,57408, Note_on_c,9,51,127,,,,,,,,,,,,,,,,,,,,,,,
11,57408, Note_on_c,9,54,107,,,,,,,,,,,,,,,,,,,,,,,
11,57416, Note_on_c,9,40,0,,,,,,,,,,,,,,,,,,,,,,,
11,57416, Note_on_c,9,51,0,,,,,,,,,,,,,,,,,,,,,,,
11,57416, Note_on_c,9,54,0,,,,,,,,,,,,,,,,,,,,,,,
11,57456, Note_on_c,9,54,56,,,,,,,,,,,,,,,,,,,,,,,
11,57464, Note_on_c,9,54,0,,,,,,,,,,,,,,,,,,,,,,,
11,57504, Note_on_c,9,51,92,,,,,,,,,,,,,,,,,,,,,,,
11,57504, Note_on_c,9,54,80,,,,,,,,,,,,,,,,,,,,,,,
11,57512, Note_on_c,9,51,0,,,,,,,,,,,,,,,,,,,,,,,
11,57512, Note_on_c,9,54,0,,,,,,,,,,,,,,,,,,,,,,,
11,57552, Note_on_c,9,40,107,,,,,,,,,,,,,,,,,,,,,,,
11,57552, Note_on_c,9,54,80,,,,,,,,,,,,,,,,,,,,,,,
11,57560, Note_on_c,9,40,0,,,,,,,,,,,,,,,,,,,,,,,
11,57560, Note_on_c,9,54,0,,,,,,,,,,,,,,,,,,,,,,,
11,57600, Note_on_c,9,36,99,,,,,,,,,,,,,,,,,,,,,,,
11,57600, Note_on_c,9,51,92,,,,,,,,,,,,,,,,,,,,,,,
11,57600, Note_on_c,9,54,107,,,,,,,,,,,,,,,,,,,,,,,
11,57608, Note_on_c,9,36,0,,,,,,,,,,,,,,,,,,,,,,,
11,57608, Note_on_c,9,51,0,,,,,,,,,,,,,,,,,,,,,,,
11,57608, Note_on_c,9,54,0,,,,,,,,,,,,,,,,,,,,,,,
11,57648, Note_on_c,9,40,127,,,,,,,,,,,,,,,,,,,,,,,
11,57648, Note_on_c,9,54,70,,,,,,,,,,,,,,,,,,,,,,,
11,57656, Note_on_c,9,40,0,,,,,,,,,,,,,,,,,,,,,,,
11,57656, Note_on_c,9,54,0,,,,,,,,,,,,,,,,,,,,,,,
11,57696, Note_on_c,9,36,86,,,,,,,,,,,,,,,,,,,,,,,
11,57696, Note_on_c,9,51,127,,,,,,,,,,,,,,,,,,,,,,,
11,57696, Note_on_c,9,54,64,,,,,,,,,,,,,,,,,,,,,,,
11,57704, Note_on_c,9,36,0,,,,,,,,,,,,,,,,,,,,,,,
11,57704, Note_on_c,9,51,0,,,,,,,,,,,,,,,,,,,,,,,
11,57704, Note_on_c,9,54,0,,,,,,,,,,,,,,,,,,,,,,,
11,57744, Note_on_c,9,54,70,,,,,,,,,,,,,,,,,,,,,,,
11,57752, Note_on_c,9,54,0,,,,,,,,,,,,,,,,,,,,,,,
11,57792, Note_on_c,9,40,127,,,,,,,,,,,,,,,,,,,,,,,
11,57792, Note_on_c,9,51,112,,,,,,,,,,,,,,,,,,,,,,,
11,57792, Note_on_c,9,54,107,,,,,,,,,,,,,,,,,,,,,,,
11,57800, Note_on_c,9,40,0,,,,,,,,,,,,,,,,,,,,,,,
11,57800, Note_on_c,9,51,0,,,,,,,,,,,,,,,,,,,,,,,
11,57800, Note_on_c,9,54,0,,,,,,,,,,,,,,,,,,,,,,,
11,57840, Note_on_c,9,40,84,,,,,,,,,,,,,,,,,,,,,,,
11,57840, Note_on_c,9,54,58,,,,,,,,,,,,,,,,,,,,,,,
11,57848, Note_on_c,9,40,0,,,,,,,,,,,,,,,,,,,,,,,
11,57848, Note_on_c,9,54,0,,,,,,,,,,,,,,,,,,,,,,,
11,57864, Note_on_c,9,40,66,,,,,,,,,,,,,,,,,,,,,,,
11,57872, Note_on_c,9,40,0,,,,,,,,,,,,,,,,,,,,,,,
11,57888, Note_on_c,9,40,89,,,,,,,,,,,,,,,,,,,,,,,
11,57888, Note_on_c,9,51,112,,,,,,,,,,,,,,,,,,,,,,,
11,57888, Note_on_c,9,54,70,,,,,,,,,,,,,,,,,,,,,,,
11,57896, Note_on_c,9,40,0,,,,,,,,,,,,,,,,,,,,,,,
11,57896, Note_on_c,9,51,0,,,,,,,,,,,,,,,,,,,,,,,
11,57896, Note_on_c,9,54,0,,,,,,,,,,,,,,,,,,,,,,,
11,57936, Note_on_c,9,40,66,,,,,,,,,,,,,,,,,,,,,,,
11,57936, Note_on_c,9,54,80,,,,,,,,,,,,,,,,,,,,,,,
11,57944, Note_on_c,9,40,0,,,,,,,,,,,,,,,,,,,,,,,
11,57944, Note_on_c,9,54,0,,,,,,,,,,,,,,,,,,,,,,,
11,57984, Note_on_c,9,36,86,,,,,,,,,,,,,,,,,,,,,,,
11,57984, Note_on_c,9,49,99,,,,,,,,,,,,,,,,,,,,,,,
11,57984, Note_on_c,9,54,112,,,,,,,,,,,,,,,,,,,,,,,
11,57992, Note_on_c,9,36,0,,,,,,,,,,,,,,,,,,,,,,,
11,57992, Note_on_c,9,49,0,,,,,,,,,,,,,,,,,,,,,,,
11,57992, Note_on_c,9,54,0,,,,,,,,,,,,,,,,,,,,,,,
11,58032, Note_on_c,9,54,41,,,,,,,,,,,,,,,,,,,,,,,
11,58040, Note_on_c,9,54,0,,,,,,,,,,,,,,,,,,,,,,,
11,58080, Note_on_c,9,36,94,,,,,,,,,,,,,,,,,,,,,,,
11,58080, Note_on_c,9,54,88,,,,,,,,,,,,,,,,,,,,,,,
11,58088, Note_on_c,9,36,0,,,,,,,,,,,,,,,,,,,,,,,
11,58088, Note_on_c,9,54,0,,,,,,,,,,,,,,,,,,,,,,,
11,58128, Note_on_c,9,54,53,,,,,,,,,,,,,,,,,,,,,,,
11,58136, Note_on_c,9,54,0,,,,,,,,,,,,,,,,,,,,,,,
11,58176, Note_on_c,9,40,127,,,,,,,,,,,,,,,,,,,,,,,
11,58176, Note_on_c,9,51,107,,,,,,,,,,,,,,,,,,,,,,,
11,58176, Note_on_c,9,54,112,,,,,,,,,,,,,,,,,,,,,,,
11,58184, Note_on_c,9,40,0,,,,,,,,,,,,,,,,,,,,,,,
11,58184, Note_on_c,9,51,0,,,,,,,,,,,,,,,,,,,,,,,
11,58184, Note_on_c,9,54,0,,,,,,,,,,,,,,,,,,,,,,,
11,58224, Note_on_c,9,54,46,,,,,,,,,,,,,,,,,,,,,,,
11,58232, Note_on_c,9,54,0,,,,,,,,,,,,,,,,,,,,,,,
11,58272, Note_on_c,9,54,66,,,,,,,,,,,,,,,,,,,,,,,
11,58280, Note_on_c,9,54,0,,,,,,,,,,,,,,,,,,,,,,,
11,58320, Note_on_c,9,40,104,,,,,,,,,,,,,,,,,,,,,,,
11,58320, Note_on_c,9,54,57,,,,,,,,,,,,,,,,,,,,,,,
11,58328, Note_on_c,9,40,0,,,,,,,,,,,,,,,,,,,,,,,
11,58328, Note_on_c,9,54,0,,,,,,,,,,,,,,,,,,,,,,,
11,58368, Note_on_c,9,36,90,,,,,,,,,,,,,,,,,,,,,,,
11,58368, Note_on_c,9,51,88,,,,,,,,,,,,,,,,,,,,,,,
11,58368, Note_on_c,9,54,112,,,,,,,,,,,,,,,,,,,,,,,
11,58376, Note_on_c,9,36,0,,,,,,,,,,,,,,,,,,,,,,,
11,58376, Note_on_c,9,51,0,,,,,,,,,,,,,,,,,,,,,,,
11,58376, Note_on_c,9,54,0,,,,,,,,,,,,,,,,,,,,,,,
11,58416, Note_on_c,9,40,127,,,,,,,,,,,,,,,,,,,,,,,
11,58416, Note_on_c,9,54,67,,,,,,,,,,,,,,,,,,,,,,,
11,58424, Note_on_c,9,40,0,,,,,,,,,,,,,,,,,,,,,,,
11,58424, Note_on_c,9,54,0,,,,,,,,,,,,,,,,,,,,,,,
11,58464, Note_on_c,9,36,90,,,,,,,,,,,,,,,,,,,,,,,
11,58464, Note_on_c,9,51,92,,,,,,,,,,,,,,,,,,,,,,,
11,58464, Note_on_c,9,54,78,,,,,,,,,,,,,,,,,,,,,,,
11,58472, Note_on_c,9,36,0,,,,,,,,,,,,,,,,,,,,,,,
11,58472, Note_on_c,9,51,0,,,,,,,,,,,,,,,,,,,,,,,
11,58472, Note_on_c,9,54,0,,,,,,,,,,,,,,,,,,,,,,,
11,58512, Note_on_c,9,54,66,,,,,,,,,,,,,,,,,,,,,,,
11,58520, Note_on_c,9,54,0,,,,,,,,,,,,,,,,,,,,,,,
11,58560, Note_on_c,9,40,127,,,,,,,,,,,,,,,,,,,,,,,
11,58560, Note_on_c,9,51,112,,,,,,,,,,,,,,,,,,,,,,,
11,58560, Note_on_c,9,54,112,,,,,,,,,,,,,,,,,,,,,,,
11,58568, Note_on_c,9,40,0,,,,,,,,,,,,,,,,,,,,,,,
11,58568, Note_on_c,9,51,0,,,,,,,,,,,,,,,,,,,,,,,
11,58568, Note_on_c,9,54,0,,,,,,,,,,,,,,,,,,,,,,,
11,58608, Note_on_c,9,40,72,,,,,,,,,,,,,,,,,,,,,,,
11,58608, Note_on_c,9,54,57,,,,,,,,,,,,,,,,,,,,,,,
11,58616, Note_on_c,9,40,0,,,,,,,,,,,,,,,,,,,,,,,
11,58616, Note_on_c,9,54,0,,,,,,,,,,,,,,,,,,,,,,,
11,58632, Note_on_c,9,40,66,,,,,,,,,,,,,,,,,,,,,,,
11,58640, Note_on_c,9,40,0,,,,,,,,,,,,,,,,,,,,,,,
11,58656, Note_on_c,9,40,76,,,,,,,,,,,,,,,,,,,,,,,
11,58656, Note_on_c,9,51,64,,,,,,,,,,,,,,,,,,,,,,,
11,58656, Note_on_c,9,54,80,,,,,,,,,,,,,,,,,,,,,,,
11,58664, Note_on_c,9,40,0,,,,,,,,,,,,,,,,,,,,,,,
11,58664, Note_on_c,9,51,0,,,,,,,,,,,,,,,,,,,,,,,
11,58664, Note_on_c,9,54,0,,,,,,,,,,,,,,,,,,,,,,,
11,58704, Note_on_c,9,40,66,,,,,,,,,,,,,,,,,,,,,,,
11,58704, Note_on_c,9,54,57,,,,,,,,,,,,,,,,,,,,,,,
11,58712, Note_on_c,9,40,0,,,,,,,,,,,,,,,,,,,,,,,
11,58712, Note_on_c,9,54,0,,,,,,,,,,,,,,,,,,,,,,,
11,58752, Note_on_c,9,36,86,,,,,,,,,,,,,,,,,,,,,,,
11,58752, Note_on_c,9,54,112,,,,,,,,,,,,,,,,,,,,,,,
11,58760, Note_on_c,9,36,0,,,,,,,,,,,,,,,,,,,,,,,
11,58760, Note_on_c,9,54,0,,,,,,,,,,,,,,,,,,,,,,,
11,58800, Note_on_c,9,54,44,,,,,,,,,,,,,,,,,,,,,,,
11,58808, Note_on_c,9,54,0,,,,,,,,,,,,,,,,,,,,,,,
11,58848, Note_on_c,9,36,94,,,,,,,,,,,,,,,,,,,,,,,
11,58848, Note_on_c,9,54,64,,,,,,,,,,,,,,,,,,,,,,,
11,58856, Note_on_c,9,36,0,,,,,,,,,,,,,,,,,,,,,,,
11,58856, Note_on_c,9,54,0,,,,,,,,,,,,,,,,,,,,,,,
11,58896, Note_on_c,9,54,52,,,,,,,,,,,,,,,,,,,,,,,
11,58904, Note_on_c,9,54,0,,,,,,,,,,,,,,,,,,,,,,,
11,58944, Note_on_c,9,40,127,,,,,,,,,,,,,,,,,,,,,,,
11,58944, Note_on_c,9,51,107,,,,,,,,,,,,,,,,,,,,,,,
11,58944, Note_on_c,9,54,112,,,,,,,,,,,,,,,,,,,,,,,
11,58952, Note_on_c,9,40,0,,,,,,,,,,,,,,,,,,,,,,,
11,58952, Note_on_c,9,51,0,,,,,,,,,,,,,,,,,,,,,,,
11,58952, Note_on_c,9,54,0,,,,,,,,,,,,,,,,,,,,,,,
11,58992, Note_on_c,9,54,44,,,,,,,,,,,,,,,,,,,,,,,
11,59000, Note_on_c,9,54,0,,,,,,,,,,,,,,,,,,,,,,,
11,59040, Note_on_c,9,54,67,,,,,,,,,,,,,,,,,,,,,,,
11,59048, Note_on_c,9,54,0,,,,,,,,,,,,,,,,,,,,,,,
11,59088, Note_on_c,9,40,104,,,,,,,,,,,,,,,,,,,,,,,
11,59088, Note_on_c,9,54,50,,,,,,,,,,,,,,,,,,,,,,,
11,59096, Note_on_c,9,40,0,,,,,,,,,,,,,,,,,,,,,,,
11,59096, Note_on_c,9,54,0,,,,,,,,,,,,,,,,,,,,,,,
11,59136, Note_on_c,9,36,90,,,,,,,,,,,,,,,,,,,,,,,
11,59136, Note_on_c,9,51,88,,,,,,,,,,,,,,,,,,,,,,,
11,59136, Note_on_c,9,54,112,,,,,,,,,,,,,,,,,,,,,,,
11,59144, Note_on_c,9,36,0,,,,,,,,,,,,,,,,,,,,,,,
11,59144, Note_on_c,9,51,0,,,,,,,,,,,,,,,,,,,,,,,
11,59144, Note_on_c,9,54,0,,,,,,,,,,,,,,,,,,,,,,,
11,59184, Note_on_c,9,40,127,,,,,,,,,,,,,,,,,,,,,,,
11,59184, Note_on_c,9,54,51,,,,,,,,,,,,,,,,,,,,,,,
11,59192, Note_on_c,9,40,0,,,,,,,,,,,,,,,,,,,,,,,
11,59192, Note_on_c,9,54,0,,,,,,,,,,,,,,,,,,,,,,,
11,59232, Note_on_c,9,36,90,,,,,,,,,,,,,,,,,,,,,,,
11,59232, Note_on_c,9,51,92,,,,,,,,,,,,,,,,,,,,,,,
11,59232, Note_on_c,9,54,86,,,,,,,,,,,,,,,,,,,,,,,
11,59240, Note_on_c,9,36,0,,,,,,,,,,,,,,,,,,,,,,,
11,59240, Note_on_c,9,51,0,,,,,,,,,,,,,,,,,,,,,,,
11,59240, Note_on_c,9,54,0,,,,,,,,,,,,,,,,,,,,,,,
11,59280, Note_on_c,9,54,70,,,,,,,,,,,,,,,,,,,,,,,
11,59288, Note_on_c,9,54,0,,,,,,,,,,,,,,,,,,,,,,,
11,59328, Note_on_c,9,40,127,,,,,,,,,,,,,,,,,,,,,,,
11,59328, Note_on_c,9,51,112,,,,,,,,,,,,,,,,,,,,,,,
11,59328, Note_on_c,9,54,112,,,,,,,,,,,,,,,,,,,,,,,
11,59336, Note_on_c,9,40,0,,,,,,,,,,,,,,,,,,,,,,,
11,59336, Note_on_c,9,51,0,,,,,,,,,,,,,,,,,,,,,,,
11,59336, Note_on_c,9,54,0,,,,,,,,,,,,,,,,,,,,,,,
11,59376, Note_on_c,9,40,72,,,,,,,,,,,,,,,,,,,,,,,
11,59376, Note_on_c,9,54,58,,,,,,,,,,,,,,,,,,,,,,,
11,59384, Note_on_c,9,40,0,,,,,,,,,,,,,,,,,,,,,,,
11,59384, Note_on_c,9,54,0,,,,,,,,,,,,,,,,,,,,,,,
11,59400, Note_on_c,9,40,66,,,,,,,,,,,,,,,,,,,,,,,
11,59408, Note_on_c,9,40,0,,,,,,,,,,,,,,,,,,,,,,,
11,59424, Note_on_c,9,40,76,,,,,,,,,,,,,,,,,,,,,,,
11,59424, Note_on_c,9,51,64,,,,,,,,,,,,,,,,,,,,,,,
11,59424, Note_on_c,9,54,61,,,,,,,,,,,,,,,,,,,,,,,
11,59432, Note_on_c,9,40,0,,,,,,,,,,,,,,,,,,,,,,,
11,59432, Note_on_c,9,51,0,,,,,,,,,,,,,,,,,,,,,,,
11,59432, Note_on_c,9,54,0,,,,,,,,,,,,,,,,,,,,,,,
11,59472, Note_on_c,9,40,66,,,,,,,,,,,,,,,,,,,,,,,
11,59472, Note_on_c,9,54,64,,,,,,,,,,,,,,,,,,,,,,,
11,59480, Note_on_c,9,40,0,,,,,,,,,,,,,,,,,,,,,,,
11,59480, Note_on_c,9,54,0,,,,,,,,,,,,,,,,,,,,,,,
11,59520, Note_on_c,9,36,94,,,,,,,,,,,,,,,,,,,,,,,
11,59520, Note_on_c,9,49,73,,,,,,,,,,,,,,,,,,,,,,,
11,59520, Note_on_c,9,51,107,,,,,,,,,,,,,,,,,,,,,,,
11,59520, Note_on_c,9,54,112,,,,,,,,,,,,,,,,,,,,,,,
11,59528, Note_on_c,9,36,0,,,,,,,,,,,,,,,,,,,,,,,
11,59528, Note_on_c,9,49,0,,,,,,,,,,,,,,,,,,,,,,,
11,59528, Note_on_c,9,51,0,,,,,,,,,,,,,,,,,,,,,,,
11,59528, Note_on_c,9,54,0,,,,,,,,,,,,,,,,,,,,,,,
11,59568, Note_on_c,9,54,74,,,,,,,,,,,,,,,,,,,,,,,
11,59576, Note_on_c,9,54,0,,,,,,,,,,,,,,,,,,,,,,,
11,59616, Note_on_c,9,36,94,,,,,,,,,,,,,,,,,,,,,,,
11,59616, Note_on_c,9,51,58,,,,,,,,,,,,,,,,,,,,,,,
11,59616, Note_on_c,9,54,61,,,,,,,,,,,,,,,,,,,,,,,
11,59624, Note_on_c,9,36,0,,,,,,,,,,,,,,,,,,,,,,,
11,59624, Note_on_c,9,51,0,,,,,,,,,,,,,,,,,,,,,,,
11,59624, Note_on_c,9,54,0,,,,,,,,,,,,,,,,,,,,,,,
11,59664, Note_on_c,9,54,56,,,,,,,,,,,,,,,,,,,,,,,
11,59672, Note_on_c,9,54,0,,,,,,,,,,,,,,,,,,,,,,,
11,59712, Note_on_c,9,40,127,,,,,,,,,,,,,,,,,,,,,,,
11,59712, Note_on_c,9,51,112,,,,,,,,,,,,,,,,,,,,,,,
11,59712, Note_on_c,9,54,112,,,,,,,,,,,,,,,,,,,,,,,
11,59720, Note_on_c,9,40,0,,,,,,,,,,,,,,,,,,,,,,,
11,59720, Note_on_c,9,51,0,,,,,,,,,,,,,,,,,,,,,,,
11,59720, Note_on_c,9,54,0,,,,,,,,,,,,,,,,,,,,,,,
11,59760, Note_on_c,9,54,67,,,,,,,,,,,,,,,,,,,,,,,
11,59768, Note_on_c,9,54,0,,,,,,,,,,,,,,,,,,,,,,,
11,59808, Note_on_c,9,51,78,,,,,,,,,,,,,,,,,,,,,,,
11,59808, Note_on_c,9,54,70,,,,,,,,,,,,,,,,,,,,,,,
11,59816, Note_on_c,9,51,0,,,,,,,,,,,,,,,,,,,,,,,
11,59816, Note_on_c,9,54,0,,,,,,,,,,,,,,,,,,,,,,,
11,59856, Note_on_c,9,40,107,,,,,,,,,,,,,,,,,,,,,,,
11,59856, Note_on_c,9,54,66,,,,,,,,,,,,,,,,,,,,,,,
11,59864, Note_on_c,9,40,0,,,,,,,,,,,,,,,,,,,,,,,
11,59864, Note_on_c,9,54,0,,,,,,,,,,,,,,,,,,,,,,,
11,59904, Note_on_c,9,36,99,,,,,,,,,,,,,,,,,,,,,,,
11,59904, Note_on_c,9,51,64,,,,,,,,,,,,,,,,,,,,,,,
11,59904, Note_on_c,9,54,112,,,,,,,,,,,,,,,,,,,,,,,
11,59912, Note_on_c,9,36,0,,,,,,,,,,,,,,,,,,,,,,,
11,59912, Note_on_c,9,51,0,,,,,,,,,,,,,,,,,,,,,,,
11,59912, Note_on_c,9,54,0,,,,,,,,,,,,,,,,,,,,,,,
11,59952, Note_on_c,9,40,127,,,,,,,,,,,,,,,,,,,,,,,
11,59952, Note_on_c,9,54,52,,,,,,,,,,,,,,,,,,,,,,,
11,59960, Note_on_c,9,40,0,,,,,,,,,,,,,,,,,,,,,,,
11,59960, Note_on_c,9,54,0,,,,,,,,,,,,,,,,,,,,,,,
11,60000, Note_on_c,9,36,94,,,,,,,,,,,,,,,,,,,,,,,
11,60000, Note_on_c,9,51,112,,,,,,,,,,,,,,,,,,,,,,,
11,60000, Note_on_c,9,54,67,,,,,,,,,,,,,,,,,,,,,,,
11,60008, Note_on_c,9,36,0,,,,,,,,,,,,,,,,,,,,,,,
11,60008, Note_on_c,9,51,0,,,,,,,,,,,,,,,,,,,,,,,
11,60008, Note_on_c,9,54,0,,,,,,,,,,,,,,,,,,,,,,,
11,60048, Note_on_c,9,54,72,,,,,,,,,,,,,,,,,,,,,,,
11,60056, Note_on_c,9,54,0,,,,,,,,,,,,,,,,,,,,,,,
11,60096, Note_on_c,9,40,127,,,,,,,,,,,,,,,,,,,,,,,
11,60096, Note_on_c,9,51,112,,,,,,,,,,,,,,,,,,,,,,,
11,60096, Note_on_c,9,54,112,,,,,,,,,,,,,,,,,,,,,,,
11,60104, Note_on_c,9,40,0,,,,,,,,,,,,,,,,,,,,,,,
11,60104, Note_on_c,9,51,0,,,,,,,,,,,,,,,,,,,,,,,
11,60104, Note_on_c,9,54,0,,,,,,,,,,,,,,,,,,,,,,,
11,60144, Note_on_c,9,40,80,,,,,,,,,,,,,,,,,,,,,,,
11,60144, Note_on_c,9,54,78,,,,,,,,,,,,,,,,,,,,,,,
11,60152, Note_on_c,9,40,0,,,,,,,,,,,,,,,,,,,,,,,
11,60152, Note_on_c,9,54,0,,,,,,,,,,,,,,,,,,,,,,,
11,60168, Note_on_c,9,40,66,,,,,,,,,,,,,,,,,,,,,,,
11,60176, Note_on_c,9,40,0,,,,,,,,,,,,,,,,,,,,,,,
11,60192, Note_on_c,9,40,84,,,,,,,,,,,,,,,,,,,,,,,
11,60192, Note_on_c,9,51,82,,,,,,,,,,,,,,,,,,,,,,,
11,60192, Note_on_c,9,54,82,,,,,,,,,,,,,,,,,,,,,,,
11,60200, Note_on_c,9,40,0,,,,,,,,,,,,,,,,,,,,,,,
11,60200, Note_on_c,9,51,0,,,,,,,,,,,,,,,,,,,,,,,
11,60200, Note_on_c,9,54,0,,,,,,,,,,,,,,,,,,,,,,,
11,60240, Note_on_c,9,40,63,,,,,,,,,,,,,,,,,,,,,,,
11,60240, Note_on_c,9,54,80,,,,,,,,,,,,,,,,,,,,,,,
11,60248, Note_on_c,9,40,0,,,,,,,,,,,,,,,,,,,,,,,
11,60248, Note_on_c,9,54,0,,,,,,,,,,,,,,,,,,,,,,,
11,60288, Note_on_c,9,36,99,,,,,,,,,,,,,,,,,,,,,,,
11,60288, Note_on_c,9,51,127,,,,,,,,,,,,,,,,,,,,,,,
11,60288, Note_on_c,9,54,112,,,,,,,,,,,,,,,,,,,,,,,
11,60296, Note_on_c,9,36,0,,,,,,,,,,,,,,,,,,,,,,,
11,60296, Note_on_c,9,51,0,,,,,,,,,,,,,,,,,,,,,,,
11,60296, Note_on_c,9,54,0,,,,,,,,,,,,,,,,,,,,,,,
11,60336, Note_on_c,9,54,66,,,,,,,,,,,,,,,,,,,,,,,
11,60344, Note_on_c,9,54,0,,,,,,,,,,,,,,,,,,,,,,,
11,60384, Note_on_c,9,36,94,,,,,,,,,,,,,,,,,,,,,,,
11,60384, Note_on_c,9,51,72,,,,,,,,,,,,,,,,,,,,,,,
11,60384, Note_on_c,9,54,57,,,,,,,,,,,,,,,,,,,,,,,
11,60392, Note_on_c,9,36,0,,,,,,,,,,,,,,,,,,,,,,,
11,60392, Note_on_c,9,51,0,,,,,,,,,,,,,,,,,,,,,,,
11,60392, Note_on_c,9,54,0,,,,,,,,,,,,,,,,,,,,,,,
11,60432, Note_on_c,9,40,40,,,,,,,,,,,,,,,,,,,,,,,
11,60432, Note_on_c,9,54,61,,,,,,,,,,,,,,,,,,,,,,,
11,60440, Note_on_c,9,40,0,,,,,,,,,,,,,,,,,,,,,,,
11,60440, Note_on_c,9,54,0,,,,,,,,,,,,,,,,,,,,,,,
11,60480, Note_on_c,9,40,127,,,,,,,,,,,,,,,,,,,,,,,
11,60480, Note_on_c,9,51,127,,,,,,,,,,,,,,,,,,,,,,,
11,60480, Note_on_c,9,54,107,,,,,,,,,,,,,,,,,,,,,,,
11,60488, Note_on_c,9,40,0,,,,,,,,,,,,,,,,,,,,,,,
11,60488, Note_on_c,9,51,0,,,,,,,,,,,,,,,,,,,,,,,
11,60488, Note_on_c,9,54,0,,,,,,,,,,,,,,,,,,,,,,,
11,60528, Note_on_c,9,54,56,,,,,,,,,,,,,,,,,,,,,,,
11,60536, Note_on_c,9,54,0,,,,,,,,,,,,,,,,,,,,,,,
11,60576, Note_on_c,9,51,92,,,,,,,,,,,,,,,,,,,,,,,
11,60576, Note_on_c,9,54,80,,,,,,,,,,,,,,,,,,,,,,,
11,60584, Note_on_c,9,51,0,,,,,,,,,,,,,,,,,,,,,,,
11,60584, Note_on_c,9,54,0,,,,,,,,,,,,,,,,,,,,,,,
11,60624, Note_on_c,9,40,107,,,,,,,,,,,,,,,,,,,,,,,
11,60624, Note_on_c,9,54,80,,,,,,,,,,,,,,,,,,,,,,,
11,60632, Note_on_c,9,40,0,,,,,,,,,,,,,,,,,,,,,,,
11,60632, Note_on_c,9,54,0,,,,,,,,,,,,,,,,,,,,,,,
11,60672, Note_on_c,9,36,99,,,,,,,,,,,,,,,,,,,,,,,
11,60672, Note_on_c,9,51,92,,,,,,,,,,,,,,,,,,,,,,,
11,60672, Note_on_c,9,54,107,,,,,,,,,,,,,,,,,,,,,,,
11,60680, Note_on_c,9,36,0,,,,,,,,,,,,,,,,,,,,,,,
11,60680, Note_on_c,9,51,0,,,,,,,,,,,,,,,,,,,,,,,
11,60680, Note_on_c,9,54,0,,,,,,,,,,,,,,,,,,,,,,,
11,60720, Note_on_c,9,40,127,,,,,,,,,,,,,,,,,,,,,,,
11,60720, Note_on_c,9,54,70,,,,,,,,,,,,,,,,,,,,,,,
11,60728, Note_on_c,9,40,0,,,,,,,,,,,,,,,,,,,,,,,
11,60728, Note_on_c,9,54,0,,,,,,,,,,,,,,,,,,,,,,,
11,60768, Note_on_c,9,36,86,,,,,,,,,,,,,,,,,,,,,,,
11,60768, Note_on_c,9,51,127,,,,,,,,,,,,,,,,,,,,,,,
11,60768, Note_on_c,9,54,64,,,,,,,,,,,,,,,,,,,,,,,
11,60776, Note_on_c,9,36,0,,,,,,,,,,,,,,,,,,,,,,,
11,60776, Note_on_c,9,51,0,,,,,,,,,,,,,,,,,,,,,,,
11,60776, Note_on_c,9,54,0,,,,,,,,,,,,,,,,,,,,,,,
11,60816, Note_on_c,9,54,70,,,,,,,,,,,,,,,,,,,,,,,
11,60824, Note_on_c,9,54,0,,,,,,,,,,,,,,,,,,,,,,,
11,60864, Note_on_c,9,40,127,,,,,,,,,,,,,,,,,,,,,,,
11,60864, Note_on_c,9,51,112,,,,,,,,,,,,,,,,,,,,,,,
11,60864, Note_on_c,9,54,107,,,,,,,,,,,,,,,,,,,,,,,
11,60872, Note_on_c,9,40,0,,,,,,,,,,,,,,,,,,,,,,,
11,60872, Note_on_c,9,51,0,,,,,,,,,,,,,,,,,,,,,,,
11,60872, Note_on_c,9,54,0,,,,,,,,,,,,,,,,,,,,,,,
11,60912, Note_on_c,9,40,84,,,,,,,,,,,,,,,,,,,,,,,
11,60912, Note_on_c,9,54,58,,,,,,,,,,,,,,,,,,,,,,,
11,60920, Note_on_c,9,40,0,,,,,,,,,,,,,,,,,,,,,,,
11,60920, Note_on_c,9,54,0,,,,,,,,,,,,,,,,,,,,,,,
11,60936, Note_on_c,9,40,66,,,,,,,,,,,,,,,,,,,,,,,
11,60944, Note_on_c,9,40,0,,,,,,,,,,,,,,,,,,,,,,,
11,60960, Note_on_c,9,40,89,,,,,,,,,,,,,,,,,,,,,,,
11,60960, Note_on_c,9,51,112,,,,,,,,,,,,,,,,,,,,,,,
11,60960, Note_on_c,9,54,70,,,,,,,,,,,,,,,,,,,,,,,
11,60968, Note_on_c,9,40,0,,,,,,,,,,,,,,,,,,,,,,,
11,60968, Note_on_c,9,51,0,,,,,,,,,,,,,,,,,,,,,,,
11,60968, Note_on_c,9,54,0,,,,,,,,,,,,,,,,,,,,,,,
11,61008, Note_on_c,9,40,66,,,,,,,,,,,,,,,,,,,,,,,
11,61008, Note_on_c,9,54,80,,,,,,,,,,,,,,,,,,,,,,,
11,61016, Note_on_c,9,40,0,,,,,,,,,,,,,,,,,,,,,,,
11,61016, Note_on_c,9,54,0,,,,,,,,,,,,,,,,,,,,,,,
11,61056, Note_on_c,9,36,99,,,,,,,,,,,,,,,,,,,,,,,
11,61056, Note_on_c,9,51,112,,,,,,,,,,,,,,,,,,,,,,,
11,61056, Note_on_c,9,54,107,,,,,,,,,,,,,,,,,,,,,,,
11,61064, Note_on_c,9,36,0,,,,,,,,,,,,,,,,,,,,,,,
11,61064, Note_on_c,9,51,0,,,,,,,,,,,,,,,,,,,,,,,
11,61064, Note_on_c,9,54,0,,,,,,,,,,,,,,,,,,,,,,,
11,61072, Note_on_c,9,49,78,,,,,,,,,,,,,,,,,,,,,,,
11,61080, Note_on_c,9,49,0,,,,,,,,,,,,,,,,,,,,,,,
11,61104, Note_on_c,9,54,52,,,,,,,,,,,,,,,,,,,,,,,
11,61112, Note_on_c,9,54,0,,,,,,,,,,,,,,,,,,,,,,,
11,61152, Note_on_c,9,36,94,,,,,,,,,,,,,,,,,,,,,,,
11,61152, Note_on_c,9,51,82,,,,,,,,,,,,,,,,,,,,,,,
11,61152, Note_on_c,9,54,58,,,,,,,,,,,,,,,,,,,,,,,
11,61160, Note_on_c,9,36,0,,,,,,,,,,,,,,,,,,,,,,,
11,61160, Note_on_c,9,51,0,,,,,,,,,,,,,,,,,,,,,,,
11,61160, Note_on_c,9,54,0,,,,,,,,,,,,,,,,,,,,,,,
11,61200, Note_on_c,9,54,59,,,,,,,,,,,,,,,,,,,,,,,
11,61208, Note_on_c,9,54,0,,,,,,,,,,,,,,,,,,,,,,,
11,61248, Note_on_c,9,40,127,,,,,,,,,,,,,,,,,,,,,,,
11,61248, Note_on_c,9,51,127,,,,,,,,,,,,,,,,,,,,,,,
11,61248, Note_on_c,9,54,107,,,,,,,,,,,,,,,,,,,,,,,
11,61256, Note_on_c,9,40,0,,,,,,,,,,,,,,,,,,,,,,,
11,61256, Note_on_c,9,51,0,,,,,,,,,,,,,,,,,,,,,,,
11,61256, Note_on_c,9,54,0,,,,,,,,,,,,,,,,,,,,,,,
11,61296, Note_on_c,9,54,52,,,,,,,,,,,,,,,,,,,,,,,
11,61304, Note_on_c,9,54,0,,,,,,,,,,,,,,,,,,,,,,,
11,61344, Note_on_c,9,51,78,,,,,,,,,,,,,,,,,,,,,,,
11,61344, Note_on_c,9,54,78,,,,,,,,,,,,,,,,,,,,,,,
11,61352, Note_on_c,9,51,0,,,,,,,,,,,,,,,,,,,,,,,
11,61352, Note_on_c,9,54,0,,,,,,,,,,,,,,,,,,,,,,,
11,61392, Note_on_c,9,40,98,,,,,,,,,,,,,,,,,,,,,,,
11,61392, Note_on_c,9,54,70,,,,,,,,,,,,,,,,,,,,,,,
11,61400, Note_on_c,9,40,0,,,,,,,,,,,,,,,,,,,,,,,
11,61400, Note_on_c,9,54,0,,,,,,,,,,,,,,,,,,,,,,,
11,61440, Note_on_c,9,36,99,,,,,,,,,,,,,,,,,,,,,,,
11,61440, Note_on_c,9,51,86,,,,,,,,,,,,,,,,,,,,,,,
11,61440, Note_on_c,9,54,103,,,,,,,,,,,,,,,,,,,,,,,
11,61448, Note_on_c,9,36,0,,,,,,,,,,,,,,,,,,,,,,,
11,61448, Note_on_c,9,51,0,,,,,,,,,,,,,,,,,,,,,,,
11,61448, Note_on_c,9,54,0,,,,,,,,,,,,,,,,,,,,,,,
11,61488, Note_on_c,9,40,127,,,,,,,,,,,,,,,,,,,,,,,
11,61488, Note_on_c,9,54,70,,,,,,,,,,,,,,,,,,,,,,,
11,61496, Note_on_c,9,40,0,,,,,,,,,,,,,,,,,,,,,,,
11,61496, Note_on_c,9,54,0,,,,,,,,,,,,,,,,,,,,,,,
11,61536, Note_on_c,9,36,90,,,,,,,,,,,,,,,,,,,,,,,
11,61536, Note_on_c,9,51,127,,,,,,,,,,,,,,,,,,,,,,,
11,61536, Note_on_c,9,54,57,,,,,,,,,,,,,,,,,,,,,,,
11,61544, Note_on_c,9,36,0,,,,,,,,,,,,,,,,,,,,,,,
11,61544, Note_on_c,9,51,0,,,,,,,,,,,,,,,,,,,,,,,
11,61544, Note_on_c,9,54,0,,,,,,,,,,,,,,,,,,,,,,,
11,61584, Note_on_c,9,54,74,,,,,,,,,,,,,,,,,,,,,,,
11,61592, Note_on_c,9,54,0,,,,,,,,,,,,,,,,,,,,,,,
11,61632, Note_on_c,9,40,127,,,,,,,,,,,,,,,,,,,,,,,
11,61632, Note_on_c,9,51,112,,,,,,,,,,,,,,,,,,,,,,,
11,61632, Note_on_c,9,54,107,,,,,,,,,,,,,,,,,,,,,,,
11,61640, Note_on_c,9,40,0,,,,,,,,,,,,,,,,,,,,,,,
11,61640, Note_on_c,9,51,0,,,,,,,,,,,,,,,,,,,,,,,
11,61640, Note_on_c,9,54,0,,,,,,,,,,,,,,,,,,,,,,,
11,61680, Note_on_c,9,40,76,,,,,,,,,,,,,,,,,,,,,,,
11,61680, Note_on_c,9,54,61,,,,,,,,,,,,,,,,,,,,,,,
11,61688, Note_on_c,9,40,0,,,,,,,,,,,,,,,,,,,,,,,
11,61688, Note_on_c,9,54,0,,,,,,,,,,,,,,,,,,,,,,,
11,61704, Note_on_c,9,40,63,,,,,,,,,,,,,,,,,,,,,,,
11,61712, Note_on_c,9,40,0,,,,,,,,,,,,,,,,,,,,,,,
11,61728, Note_on_c,9,40,84,,,,,,,,,,,,,,,,,,,,,,,
11,61728, Note_on_c,9,54,72,,,,,,,,,,,,,,,,,,,,,,,
11,61736, Note_on_c,9,40,0,,,,,,,,,,,,,,,,,,,,,,,
11,61736, Note_on_c,9,54,0,,,,,,,,,,,,,,,,,,,,,,,
11,61776, Note_on_c,9,40,69,,,,,,,,,,,,,,,,,,,,,,,
11,61776, Note_on_c,9,54,66,,,,,,,,,,,,,,,,,,,,,,,
11,61784, Note_on_c,9,40,0,,,,,,,,,,,,,,,,,,,,,,,
11,61784, Note_on_c,9,54,0,,,,,,,,,,,,,,,,,,,,,,,
11,61824, Note_on_c,9,36,94,,,,,,,,,,,,,,,,,,,,,,,
11,61824, Note_on_c,9,51,112,,,,,,,,,,,,,,,,,,,,,,,
11,61824, Note_on_c,9,54,112,,,,,,,,,,,,,,,,,,,,,,,
11,61832, Note_on_c,9,36,0,,,,,,,,,,,,,,,,,,,,,,,
11,61832, Note_on_c,9,51,0,,,,,,,,,,,,,,,,,,,,,,,
11,61832, Note_on_c,9,54,0,,,,,,,,,,,,,,,,,,,,,,,
11,61872, Note_on_c,9,54,61,,,,,,,,,,,,,,,,,,,,,,,
11,61880, Note_on_c,9,54,0,,,,,,,,,,,,,,,,,,,,,,,
11,61920, Note_on_c,9,36,86,,,,,,,,,,,,,,,,,,,,,,,
11,61920, Note_on_c,9,51,70,,,,,,,,,,,,,,,,,,,,,,,
11,61920, Note_on_c,9,54,70,,,,,,,,,,,,,,,,,,,,,,,
11,61928, Note_on_c,9,36,0,,,,,,,,,,,,,,,,,,,,,,,
11,61928, Note_on_c,9,51,0,,,,,,,,,,,,,,,,,,,,,,,
11,61928, Note_on_c,9,54,0,,,,,,,,,,,,,,,,,,,,,,,
11,61968, Note_on_c,9,40,66,,,,,,,,,,,,,,,,,,,,,,,
11,61968, Note_on_c,9,54,56,,,,,,,,,,,,,,,,,,,,,,,
11,61976, Note_on_c,9,40,0,,,,,,,,,,,,,,,,,,,,,,,
11,61976, Note_on_c,9,54,0,,,,,,,,,,,,,,,,,,,,,,,
11,62016, Note_on_c,9,40,127,,,,,,,,,,,,,,,,,,,,,,,
11,62016, Note_on_c,9,51,112,,,,,,,,,,,,,,,,,,,,,,,
11,62016, Note_on_c,9,54,103,,,,,,,,,,,,,,,,,,,,,,,
11,62024, Note_on_c,9,40,0,,,,,,,,,,,,,,,,,,,,,,,
11,62024, Note_on_c,9,51,0,,,,,,,,,,,,,,,,,,,,,,,
11,62024, Note_on_c,9,54,0,,,,,,,,,,,,,,,,,,,,,,,
11,62064, Note_on_c,9,54,59,,,,,,,,,,,,,,,,,,,,,,,
11,62072, Note_on_c,9,54,0,,,,,,,,,,,,,,,,,,,,,,,
11,62112, Note_on_c,9,54,72,,,,,,,,,,,,,,,,,,,,,,,
11,62120, Note_on_c,9,54,0,,,,,,,,,,,,,,,,,,,,,,,
11,62160, Note_on_c,9,40,88,,,,,,,,,,,,,,,,,,,,,,,
11,62160, Note_on_c,9,54,86,,,,,,,,,,,,,,,,,,,,,,,
11,62168, Note_on_c,9,40,0,,,,,,,,,,,,,,,,,,,,,,,
11,62168, Note_on_c,9,54,0,,,,,,,,,,,,,,,,,,,,,,,
11,62208, Note_on_c,9,36,94,,,,,,,,,,,,,,,,,,,,,,,
11,62208, Note_on_c,9,51,74,,,,,,,,,,,,,,,,,,,,,,,
11,62208, Note_on_c,9,54,103,,,,,,,,,,,,,,,,,,,,,,,
11,62216, Note_on_c,9,36,0,,,,,,,,,,,,,,,,,,,,,,,
11,62216, Note_on_c,9,51,0,,,,,,,,,,,,,,,,,,,,,,,
11,62216, Note_on_c,9,54,0,,,,,,,,,,,,,,,,,,,,,,,
11,62256, Note_on_c,9,40,127,,,,,,,,,,,,,,,,,,,,,,,
11,62256, Note_on_c,9,54,44,,,,,,,,,,,,,,,,,,,,,,,
11,62264, Note_on_c,9,40,0,,,,,,,,,,,,,,,,,,,,,,,
11,62264, Note_on_c,9,54,0,,,,,,,,,,,,,,,,,,,,,,,
11,62304, Note_on_c,9,36,79,,,,,,,,,,,,,,,,,,,,,,,
11,62304, Note_on_c,9,51,112,,,,,,,,,,,,,,,,,,,,,,,
11,62304, Note_on_c,9,54,80,,,,,,,,,,,,,,,,,,,,,,,
11,62312, Note_on_c,9,36,0,,,,,,,,,,,,,,,,,,,,,,,
11,62312, Note_on_c,9,51,0,,,,,,,,,,,,,,,,,,,,,,,
11,62312, Note_on_c,9,54,0,,,,,,,,,,,,,,,,,,,,,,,
11,62352, Note_on_c,9,54,72,,,,,,,,,,,,,,,,,,,,,,,
11,62360, Note_on_c,9,54,0,,,,,,,,,,,,,,,,,,,,,,,
11,62400, Note_on_c,9,40,127,,,,,,,,,,,,,,,,,,,,,,,
11,62400, Note_on_c,9,51,112,,,,,,,,,,,,,,,,,,,,,,,
11,62400, Note_on_c,9,54,103,,,,,,,,,,,,,,,,,,,,,,,
11,62408, Note_on_c,9,40,0,,,,,,,,,,,,,,,,,,,,,,,
11,62408, Note_on_c,9,51,0,,,,,,,,,,,,,,,,,,,,,,,
11,62408, Note_on_c,9,54,0,,,,,,,,,,,,,,,,,,,,,,,
11,62448, Note_on_c,9,40,80,,,,,,,,,,,,,,,,,,,,,,,
11,62448, Note_on_c,9,54,82,,,,,,,,,,,,,,,,,,,,,,,
11,62456, Note_on_c,9,40,0,,,,,,,,,,,,,,,,,,,,,,,
11,62456, Note_on_c,9,54,0,,,,,,,,,,,,,,,,,,,,,,,
11,62472, Note_on_c,9,40,69,,,,,,,,,,,,,,,,,,,,,,,
11,62480, Note_on_c,9,40,0,,,,,,,,,,,,,,,,,,,,,,,
11,62496, Note_on_c,9,40,80,,,,,,,,,,,,,,,,,,,,,,,
11,62496, Note_on_c,9,51,82,,,,,,,,,,,,,,,,,,,,,,,
11,62496, Note_on_c,9,54,78,,,,,,,,,,,,,,,,,,,,,,,
11,62504, Note_on_c,9,40,0,,,,,,,,,,,,,,,,,,,,,,,
11,62504, Note_on_c,9,51,0,,,,,,,,,,,,,,,,,,,,,,,
11,62504, Note_on_c,9,54,0,,,,,,,,,,,,,,,,,,,,,,,
11,62544, Note_on_c,9,40,63,,,,,,,,,,,,,,,,,,,,,,,
11,62544, Note_on_c,9,54,88,,,,,,,,,,,,,,,,,,,,,,,
11,62552, Note_on_c,9,40,0,,,,,,,,,,,,,,,,,,,,,,,
11,62552, Note_on_c,9,54,0,,,,,,,,,,,,,,,,,,,,,,,
11,62592, Note_on_c,9,36,99,,,,,,,,,,,,,,,,,,,,,,,
11,62592, Note_on_c,9,51,112,,,,,,,,,,,,,,,,,,,,,,,
11,62592, Note_on_c,9,54,107,,,,,,,,,,,,,,,,,,,,,,,
11,62600, Note_on_c,9,36,0,,,,,,,,,,,,,,,,,,,,,,,
11,62600, Note_on_c,9,49,64,,,,,,,,,,,,,,,,,,,,,,,
11,62600, Note_on_c,9,51,0,,,,,,,,,,,,,,,,,,,,,,,
11,62600, Note_on_c,9,54,0,,,,,,,,,,,,,,,,,,,,,,,
11,62608, Note_on_c,9,49,0,,,,,,,,,,,,,,,,,,,,,,,
11,62640, Note_on_c,9,54,74,,,,,,,,,,,,,,,,,,,,,,,
11,62648, Note_on_c,9,54,0,,,,,,,,,,,,,,,,,,,,,,,
11,62688, Note_on_c,9,36,90,,,,,,,,,,,,,,,,,,,,,,,
11,62688, Note_on_c,9,51,78,,,,,,,,,,,,,,,,,,,,,,,
11,62688, Note_on_c,9,54,61,,,,,,,,,,,,,,,,,,,,,,,
11,62696, Note_on_c,9,36,0,,,,,,,,,,,,,,,,,,,,,,,
11,62696, Note_on_c,9,51,0,,,,,,,,,,,,,,,,,,,,,,,
11,62696, Note_on_c,9,54,0,,,,,,,,,,,,,,,,,,,,,,,
11,62736, Note_on_c,9,54,80,,,,,,,,,,,,,,,,,,,,,,,
11,62744, Note_on_c,9,54,0,,,,,,,,,,,,,,,,,,,,,,,
11,62784, Note_on_c,9,40,127,,,,,,,,,,,,,,,,,,,,,,,
11,62784, Note_on_c,9,51,112,,,,,,,,,,,,,,,,,,,,,,,
11,62784, Note_on_c,9,54,107,,,,,,,,,,,,,,,,,,,,,,,
11,62792, Note_on_c,9,40,0,,,,,,,,,,,,,,,,,,,,,,,
11,62792, Note_on_c,9,51,0,,,,,,,,,,,,,,,,,,,,,,,
11,62792, Note_on_c,9,54,0,,,,,,,,,,,,,,,,,,,,,,,
11,62832, Note_on_c,9,54,74,,,,,,,,,,,,,,,,,,,,,,,
11,62840, Note_on_c,9,54,0,,,,,,,,,,,,,,,,,,,,,,,
11,62880, Note_on_c,9,51,52,,,,,,,,,,,,,,,,,,,,,,,
11,62880, Note_on_c,9,54,64,,,,,,,,,,,,,,,,,,,,,,,
11,62888, Note_on_c,9,51,0,,,,,,,,,,,,,,,,,,,,,,,
11,62888, Note_on_c,9,54,0,,,,,,,,,,,,,,,,,,,,,,,
11,62928, Note_on_c,9,40,110,,,,,,,,,,,,,,,,,,,,,,,
11,62928, Note_on_c,9,54,72,,,,,,,,,,,,,,,,,,,,,,,
11,62936, Note_on_c,9,40,0,,,,,,,,,,,,,,,,,,,,,,,
11,62936, Note_on_c,9,54,0,,,,,,,,,,,,,,,,,,,,,,,
11,62976, Note_on_c,9,36,90,,,,,,,,,,,,,,,,,,,,,,,
11,62976, Note_on_c,9,51,95,,,,,,,,,,,,,,,,,,,,,,,
11,62976, Note_on_c,9,54,107,,,,,,,,,,,,,,,,,,,,,,,
11,62984, Note_on_c,9,36,0,,,,,,,,,,,,,,,,,,,,,,,
11,62984, Note_on_c,9,51,0,,,,,,,,,,,,,,,,,,,,,,,
11,62984, Note_on_c,9,54,0,,,,,,,,,,,,,,,,,,,,,,,
11,63024, Note_on_c,9,40,127,,,,,,,,,,,,,,,,,,,,,,,
11,63024, Note_on_c,9,54,52,,,,,,,,,,,,,,,,,,,,,,,
11,63032, Note_on_c,9,40,0,,,,,,,,,,,,,,,,,,,,,,,
11,63032, Note_on_c,9,54,0,,,,,,,,,,,,,,,,,,,,,,,
11,63072, Note_on_c,9,36,90,,,,,,,,,,,,,,,,,,,,,,,
11,63072, Note_on_c,9,51,112,,,,,,,,,,,,,,,,,,,,,,,
11,63072, Note_on_c,9,54,52,,,,,,,,,,,,,,,,,,,,,,,
11,63080, Note_on_c,9,36,0,,,,,,,,,,,,,,,,,,,,,,,
11,63080, Note_on_c,9,51,0,,,,,,,,,,,,,,,,,,,,,,,
11,63080, Note_on_c,9,54,0,,,,,,,,,,,,,,,,,,,,,,,
11,63120, Note_on_c,9,54,78,,,,,,,,,,,,,,,,,,,,,,,
11,63128, Note_on_c,9,54,0,,,,,,,,,,,,,,,,,,,,,,,
11,63168, Note_on_c,9,40,127,,,,,,,,,,,,,,,,,,,,,,,
11,63168, Note_on_c,9,51,112,,,,,,,,,,,,,,,,,,,,,,,
11,63168, Note_on_c,9,54,103,,,,,,,,,,,,,,,,,,,,,,,
11,63176, Note_on_c,9,40,0,,,,,,,,,,,,,,,,,,,,,,,
11,63176, Note_on_c,9,51,0,,,,,,,,,,,,,,,,,,,,,,,
11,63176, Note_on_c,9,54,0,,,,,,,,,,,,,,,,,,,,,,,
11,63216, Note_on_c,9,54,67,,,,,,,,,,,,,,,,,,,,,,,
11,63224, Note_on_c,9,54,0,,,,,,,,,,,,,,,,,,,,,,,
11,63264, Note_on_c,9,40,98,,,,,,,,,,,,,,,,,,,,,,,
11,63264, Note_on_c,9,51,59,,,,,,,,,,,,,,,,,,,,,,,
11,63264, Note_on_c,9,54,78,,,,,,,,,,,,,,,,,,,,,,,
11,63272, Note_on_c,9,40,0,,,,,,,,,,,,,,,,,,,,,,,
11,63272, Note_on_c,9,51,0,,,,,,,,,,,,,,,,,,,,,,,
11,63272, Note_on_c,9,54,0,,,,,,,,,,,,,,,,,,,,,,,
11,63312, Note_on_c,9,40,104,,,,,,,,,,,,,,,,,,,,,,,
11,63312, Note_on_c,9,54,88,,,,,,,,,,,,,,,,,,,,,,,
11,63320, Note_on_c,9,40,0,,,,,,,,,,,,,,,,,,,,,,,
11,63320, Note_on_c,9,54,0,,,,,,,,,,,,,,,,,,,,,,,
11,63360, Note_on_c,9,36,114,,,,,,,,,,,,,,,,,,,,,,,
11,63360, Note_on_c,9,54,107,,,,,,,,,,,,,,,,,,,,,,,
11,63368, Note_on_c,9,36,0,,,,,,,,,,,,,,,,,,,,,,,
11,63368, Note_on_c,9,54,0,,,,,,,,,,,,,,,,,,,,,,,
11,63408, Note_on_c,9,54,74,,,,,,,,,,,,,,,,,,,,,,,
11,63416, Note_on_c,9,54,0,,,,,,,,,,,,,,,,,,,,,,,
11,63456, Note_on_c,9,40,122,,,,,,,,,,,,,,,,,,,,,,,
11,63456, Note_on_c,9,54,61,,,,,,,,,,,,,,,,,,,,,,,
11,63464, Note_on_c,9,40,0,,,,,,,,,,,,,,,,,,,,,,,
11,63464, Note_on_c,9,54,0,,,,,,,,,,,,,,,,,,,,,,,
11,63504, Note_on_c,9,40,122,,,,,,,,,,,,,,,,,,,,,,,
11,63504, Note_on_c,9,54,72,,,,,,,,,,,,,,,,,,,,,,,
11,63512, Note_on_c,9,40,0,,,,,,,,,,,,,,,,,,,,,,,
11,63512, Note_on_c,9,54,0,,,,,,,,,,,,,,,,,,,,,,,
11,63552, Note_on_c,9,40,110,,,,,,,,,,,,,,,,,,,,,,,
11,63552, Note_on_c,9,54,103,,,,,,,,,,,,,,,,,,,,,,,
11,63560, Note_on_c,9,40,0,,,,,,,,,,,,,,,,,,,,,,,
11,63560, Note_on_c,9,54,0,,,,,,,,,,,,,,,,,,,,,,,
11,63600, Note_on_c,9,40,122,,,,,,,,,,,,,,,,,,,,,,,
11,63600, Note_on_c,9,54,67,,,,,,,,,,,,,,,,,,,,,,,
11,63608, Note_on_c,9,40,0,,,,,,,,,,,,,,,,,,,,,,,
11,63608, Note_on_c,9,54,0,,,,,,,,,,,,,,,,,,,,,,,
11,63648, Note_on_c,9,36,127,,,,,,,,,,,,,,,,,,,,,,,
11,63648, Note_on_c,9,49,112,,,,,,,,,,,,,,,,,,,,,,,
11,63656, Note_on_c,9,36,0,,,,,,,,,,,,,,,,,,,,,,,
11,63656, Note_on_c,9,49,0,,,,,,,,,,,,,,,,,,,,,,,
11,63656, End_track,,,,,,,,,,,,,,,,,,,,,,,,,,
12,0, Start_track,,,,,,,,,,,,,,,,,,,,,,,,,,
12,0, Instrument_t,TIMPANI ,,,,,,,,,,,,,,,,,,,,,,,,,
12,5, System_exclusive,5,126,127,9,1,247,,,,,,,,,,,,,,,,,,,,
12,13, System_exclusive,10,65,16,66,18,64,0,127,0,65,247,,,,,,,,,,,,,,,
12,24, System_exclusive,25,65,16,66,18,64,1,16,2,0,1,3,2,2,2,2,2,2,1,1,1,1,1,1,23,247
12,36, System_exclusive,10,65,16,66,18,64,1,51,90,50,247,,,,,,,,,,,,,,,
12,56, System_exclusive,10,65,16,66,18,64,1,58,90,43,247,,,,,,,,,,,,,,,
12,108, Control_c,10,121,0,,,,,,,,,,,,,,,,,,,,,,,
12,109, Control_c,10,11,127,,,,,,,,,,,,,,,,,,,,,,,
12,110, Control_c,10,101,0,,,,,,,,,,,,,,,,,,,,,,,
12,160, Control_c,10,101,0,,,,,,,,,,,,,,,,,,,,,,,
12,160, Control_c,10,100,0,,,,,,,,,,,,,,,,,,,,,,,
12,248, Control_c,10,6,2,,,,,,,,,,,,,,,,,,,,,,,
12,249, Control_c,10,91,74,,,,,,,,,,,,,,,,,,,,,,,
12,340, Control_c,10,10,71,,,,,,,,,,,,,,,,,,,,,,,
12,396, Control_c,10,32,0,,,,,,,,,,,,,,,,,,,,,,,
12,397, Control_c,10,0,0,,,,,,,,,,,,,,,,,,,,,,,
12,398, Program_c,10,47,,,,,,,,,,,,,,,,,,,,,,,,
12,399, Control_c,10,93,24,,,,,,,,,,,,,,,,,,,,,,,
12,432, Control_c,10,121,0,,,,,,,,,,,,,,,,,,,,,,,
12,529, Control_c,10,7,84,,,,,,,,,,,,,,,,,,,,,,,
12,33024, Note_on_c,10,40,101,,,,,,,,,,,,,,,,,,,,,,,
12,33059, Note_on_c,10,40,0,,,,,,,,,,,,,,,,,,,,,,,
12,33072, Note_on_c,10,42,86,,,,,,,,,,,,,,,,,,,,,,,
12,33106, Note_on_c,10,42,0,,,,,,,,,,,,,,,,,,,,,,,
12,33168, Note_on_c,10,42,95,,,,,,,,,,,,,,,,,,,,,,,
12,33203, Note_on_c,10,42,0,,,,,,,,,,,,,,,,,,,,,,,
12,33264, Note_on_c,10,42,82,,,,,,,,,,,,,,,,,,,,,,,
12,33295, Note_on_c,10,42,0,,,,,,,,,,,,,,,,,,,,,,,
12,33312, Note_on_c,10,45,91,,,,,,,,,,,,,,,,,,,,,,,
12,33345, Note_on_c,10,45,0,,,,,,,,,,,,,,,,,,,,,,,
12,33408, Note_on_c,10,45,127,,,,,,,,,,,,,,,,,,,,,,,
12,33453, Note_on_c,10,45,0,,,,,,,,,,,,,,,,,,,,,,,
12,33453, End_track,,,,,,,,,,,,,,,,,,,,,,,,,,
0,0, End_of_file,,,,,,,,,,,,,,,,,,,,,,,,,,
