0, 0, Header, 0, 1, 384
1, 0, Start_track
1, 0, Title_t, "SUPERSTI"
1, 0, Time_signature, 4, 2, 24, 8
1, 0, Tempo, 594050
1, 1, System_exclusive, 5, 126, 127, 9, 1, 247
1, 393, Program_c, 0, 0
1, 397, Control_c, 0, 7, 90
1, 397, Control_c, 0, 10, 64
1, 397, Control_c, 0, 11, 127
1, 401, Control_c, 0, 91, 64
1, 401, Control_c, 0, 93, 0
1, 413, Program_c, 1, 33
1, 417, Control_c, 1, 7, 110
1, 417, Control_c, 1, 10, 64
1, 417, Control_c, 1, 11, 127
1, 421, Control_c, 1, 91, 0
1, 421, Control_c, 1, 93, 0
1, 433, Program_c, 2, 7
1, 437, Control_c, 2, 7, 100
1, 437, Control_c, 2, 10, 27
1, 437, Control_c, 2, 11, 127
1, 441, Control_c, 2, 93, 54
1, 441, Control_c, 2, 91, 64
1, 453, Program_c, 3, 66
1, 457, Control_c, 3, 7, 90
1, 457, Control_c, 3, 10, 64
1, 457, Control_c, 3, 11, 127
1, 461, Control_c, 3, 91, 102
1, 461, Control_c, 3, 93, 0
1, 473, Program_c, 4, 61
1, 477, Control_c, 4, 7, 80
1, 477, Control_c, 4, 10, 64
1, 477, Control_c, 4, 11, 127
1, 481, Control_c, 4, 91, 64
1, 481, Control_c, 4, 93, 54
1, 493, Program_c, 5, 28
1, 497, Control_c, 5, 7, 80
1, 497, Control_c, 5, 10, 100
1, 497, Control_c, 5, 11, 127
1, 501, Control_c, 5, 91, 64
1, 501, Control_c, 5, 93, 44
1, 577, Control_c, 9, 11, 127
1, 577, Control_c, 9, 7, 114
1, 581, Control_c, 9, 91, 34
1, 581, Control_c, 9, 93, 0
1, 1536, Note_on_c, 9, 42, 127
1, 1545, Note_off_c, 9, 42, 127
1, 1920, Note_on_c, 9, 42, 127
1, 1929, Note_off_c, 9, 42, 127
1, 2304, Note_on_c, 9, 42, 127
1, 2313, Note_off_c, 9, 42, 127
1, 2688, Note_on_c, 9, 42, 127
1, 2697, Note_off_c, 9, 42, 127
1, 3072, Note_on_c, 9, 36, 127
1, 3072, Note_on_c, 9, 49, 84
1, 3081, Note_off_c, 9, 49, 84
1, 3081, Note_off_c, 9, 36, 127
1, 3264, Note_on_c, 9, 42, 77
1, 3273, Note_off_c, 9, 42, 77
1, 3456, Note_on_c, 9, 39, 126
1, 3456, Note_on_c, 9, 40, 127
1, 3456, Note_on_c, 9, 42, 122
1, 3456, Note_on_c, 9, 36, 127
1, 3465, Note_off_c, 9, 36, 127
1, 3465, Note_off_c, 9, 42, 122
1, 3465, Note_off_c, 9, 40, 127
1, 3465, Note_off_c, 9, 39, 126
1, 3584, Note_on_c, 9, 42, 112
1, 3593, Note_off_c, 9, 42, 112
1, 3648, Note_on_c, 9, 42, 62
1, 3657, Note_off_c, 9, 42, 62
1, 3840, Note_on_c, 9, 42, 117
1, 3840, Note_on_c, 9, 36, 127
1, 3849, Note_off_c, 9, 36, 127
1, 3849, Note_off_c, 9, 42, 117
1, 4032, Note_on_c, 9, 42, 63
1, 4041, Note_off_c, 9, 42, 63
1, 4224, Note_on_c, 9, 39, 122
1, 4224, Note_on_c, 9, 40, 127
1, 4224, Note_on_c, 9, 42, 126
1, 4224, Note_on_c, 9, 36, 127
1, 4233, Note_off_c, 9, 36, 127
1, 4233, Note_off_c, 9, 42, 126
1, 4233, Note_off_c, 9, 40, 127
1, 4233, Note_off_c, 9, 39, 122
1, 4416, Note_on_c, 9, 42, 64
1, 4425, Note_off_c, 9, 42, 64
1, 4544, Note_on_c, 9, 42, 112
1, 4553, Note_off_c, 9, 42, 112
1, 4608, Note_on_c, 9, 36, 127
1, 4608, Note_on_c, 9, 42, 109
1, 4617, Note_off_c, 9, 42, 109
1, 4617, Note_off_c, 9, 36, 127
1, 4800, Note_on_c, 9, 42, 67
1, 4809, Note_off_c, 9, 42, 67
1, 4992, Note_on_c, 9, 39, 126
1, 4992, Note_on_c, 9, 40, 127
1, 4992, Note_on_c, 9, 42, 124
1, 4992, Note_on_c, 9, 36, 127
1, 5001, Note_off_c, 9, 36, 127
1, 5001, Note_off_c, 9, 42, 124
1, 5001, Note_off_c, 9, 40, 127
1, 5001, Note_off_c, 9, 39, 126
1, 5120, Note_on_c, 9, 42, 105
1, 5129, Note_off_c, 9, 42, 105
1, 5184, Note_on_c, 9, 42, 73
1, 5193, Note_off_c, 9, 42, 73
1, 5376, Note_on_c, 9, 36, 127
1, 5376, Note_on_c, 9, 42, 107
1, 5385, Note_off_c, 9, 42, 107
1, 5385, Note_off_c, 9, 36, 127
1, 5568, Note_on_c, 9, 42, 78
1, 5577, Note_off_c, 9, 42, 78
1, 5696, Note_on_c, 9, 42, 110
1, 5705, Note_off_c, 9, 42, 110
1, 5760, Note_on_c, 9, 39, 127
1, 5760, Note_on_c, 9, 40, 127
1, 5760, Note_on_c, 9, 42, 127
1, 5760, Note_on_c, 9, 36, 127
1, 5769, Note_off_c, 9, 36, 127
1, 5769, Note_off_c, 9, 42, 127
1, 5769, Note_off_c, 9, 40, 127
1, 5769, Note_off_c, 9, 39, 127
1, 5952, Note_on_c, 9, 42, 71
1, 5961, Note_off_c, 9, 42, 71
1, 6144, Note_on_c, 9, 36, 127
1, 6144, Note_on_c, 9, 42, 115
1, 6153, Note_off_c, 9, 42, 115
1, 6153, Note_off_c, 9, 36, 127
1, 6336, Note_on_c, 9, 42, 57
1, 6345, Note_off_c, 9, 42, 57
1, 6528, Note_on_c, 9, 39, 124
1, 6528, Note_on_c, 9, 40, 127
1, 6528, Note_on_c, 9, 42, 126
1, 6528, Note_on_c, 9, 36, 127
1, 6537, Note_off_c, 9, 36, 127
1, 6537, Note_off_c, 9, 42, 126
1, 6537, Note_off_c, 9, 40, 127
1, 6537, Note_off_c, 9, 39, 124
1, 6656, Note_on_c, 9, 42, 102
1, 6665, Note_off_c, 9, 42, 102
1, 6720, Note_on_c, 9, 42, 66
1, 6729, Note_off_c, 9, 42, 66
1, 6912, Note_on_c, 9, 36, 127
1, 6912, Note_on_c, 9, 42, 110
1, 6921, Note_off_c, 9, 42, 110
1, 6921, Note_off_c, 9, 36, 127
1, 7104, Note_on_c, 9, 42, 76
1, 7113, Note_off_c, 9, 42, 76
1, 7232, Note_on_c, 9, 46, 91
1, 7232, Note_on_c, 9, 42, 109
1, 7241, Note_off_c, 9, 42, 109
1, 7241, Note_off_c, 9, 46, 91
1, 7296, Note_on_c, 9, 39, 127
1, 7296, Note_on_c, 9, 40, 127
1, 7296, Note_on_c, 9, 42, 105
1, 7296, Note_on_c, 9, 36, 127
1, 7305, Note_off_c, 9, 36, 127
1, 7305, Note_off_c, 9, 42, 105
1, 7305, Note_off_c, 9, 40, 127
1, 7305, Note_off_c, 9, 39, 127
1, 7488, Note_on_c, 9, 42, 87
1, 7497, Note_off_c, 9, 42, 87
1, 7680, Note_on_c, 9, 42, 84
1, 7680, Note_on_c, 9, 36, 127
1, 7689, Note_off_c, 9, 36, 127
1, 7689, Note_off_c, 9, 42, 84
1, 7872, Note_on_c, 9, 42, 78
1, 7881, Note_off_c, 9, 42, 78
1, 8064, Note_on_c, 9, 39, 127
1, 8064, Note_on_c, 9, 42, 120
1, 8064, Note_on_c, 9, 40, 126
1, 8064, Note_on_c, 9, 36, 127
1, 8073, Note_off_c, 9, 36, 127
1, 8073, Note_off_c, 9, 40, 126
1, 8073, Note_off_c, 9, 42, 120
1, 8073, Note_off_c, 9, 39, 127
1, 8192, Note_on_c, 9, 42, 107
1, 8201, Note_off_c, 9, 42, 107
1, 8256, Note_on_c, 9, 42, 70
1, 8265, Note_off_c, 9, 42, 70
1, 8448, Note_on_c, 9, 42, 113
1, 8448, Note_on_c, 9, 36, 127
1, 8457, Note_off_c, 9, 36, 127
1, 8457, Note_off_c, 9, 42, 113
1, 8576, Note_on_c, 0, 44, 103
1, 8576, Note_on_c, 2, 44, 114
1, 8601, Note_off_c, 2, 44, 114
1, 8640, Note_on_c, 0, 46, 120
1, 8640, Note_on_c, 2, 46, 127
1, 8640, Note_on_c, 9, 42, 75
1, 8649, Note_off_c, 9, 42, 75
1, 8653, Note_off_c, 0, 44, 103
1, 8681, Note_off_c, 0, 46, 120
1, 8703, Note_off_c, 2, 46, 127
1, 8768, Note_on_c, 2, 44, 96
1, 8768, Note_on_c, 9, 42, 110
1, 8777, Note_off_c, 9, 42, 110
1, 8783, Note_off_c, 2, 44, 96
1, 8832, Note_on_c, 0, 49, 127
1, 8832, Note_on_c, 2, 49, 125
1, 8832, Note_on_c, 9, 39, 124
1, 8832, Note_on_c, 9, 42, 127
1, 8832, Note_on_c, 9, 40, 127
1, 8832, Note_on_c, 9, 36, 127
1, 8841, Note_off_c, 9, 36, 127
1, 8841, Note_off_c, 9, 40, 127
1, 8841, Note_off_c, 9, 42, 127
1, 8841, Note_off_c, 9, 39, 124
1, 8885, Note_off_c, 0, 49, 127
1, 8899, Note_off_c, 2, 49, 125
1, 9024, Note_on_c, 0, 51, 126
1, 9024, Note_on_c, 2, 51, 127
1, 9024, Note_on_c, 9, 42, 82
1, 9033, Note_off_c, 9, 42, 82
1, 9077, Note_off_c, 2, 51, 127
1, 9087, Note_off_c, 0, 51, 126
1, 9216, Note_on_c, 0, 27, 125
1, 9216, Note_on_c, 1, 27, 105
1, 9216, Note_on_c, 9, 36, 127
1, 9216, Note_on_c, 9, 49, 84
1, 9225, Note_off_c, 9, 49, 84
1, 9225, Note_off_c, 9, 36, 127
1, 9344, Note_on_c, 0, 39, 102
1, 9367, Note_off_c, 1, 27, 105
1, 9373, Note_off_c, 0, 27, 125
1, 9385, Note_off_c, 0, 39, 102
1, 9408, Note_on_c, 0, 51, 121
1, 9408, Note_on_c, 1, 39, 98
1, 9408, Note_on_c, 2, 51, 115
1, 9408, Note_on_c, 5, 49, 127
1, 9408, Note_on_c, 9, 42, 77
1, 9417, Note_off_c, 9, 42, 77
1, 9437, Note_off_c, 5, 49, 127
1, 9451, Note_off_c, 0, 51, 121
1, 9459, Note_off_c, 2, 51, 115
1, 9473, Note_off_c, 1, 39, 98
1, 9536, Note_on_c, 0, 39, 116
1, 9536, Note_on_c, 1, 27, 61
1, 9569, Note_off_c, 1, 27, 61
1, 9573, Note_off_c, 0, 39, 116
1, 9600, Note_on_c, 0, 49, 118
1, 9600, Note_on_c, 1, 37, 92
1, 9600, Note_on_c, 2, 49, 106
1, 9600, Note_on_c, 5, 51, 127
1, 9600, Note_on_c, 9, 39, 126
1, 9600, Note_on_c, 9, 40, 127
1, 9600, Note_on_c, 9, 42, 122
1, 9600, Note_on_c, 9, 36, 127
1, 9609, Note_off_c, 9, 36, 127
1, 9609, Note_off_c, 9, 42, 122
1, 9609, Note_off_c, 9, 40, 127
1, 9609, Note_off_c, 9, 39, 126
1, 9621, Note_off_c, 5, 51, 127
1, 9699, Note_off_c, 1, 37, 92
1, 9699, Note_off_c, 0, 49, 118
1, 9713, Note_off_c, 2, 49, 106
1, 9728, Note_on_c, 0, 51, 104
1, 9728, Note_on_c, 1, 39, 90
1, 9728, Note_on_c, 2, 51, 88
1, 9728, Note_on_c, 9, 42, 112
1, 9737, Note_off_c, 9, 42, 112
1, 9759, Note_off_c, 0, 51, 104
1, 9767, Note_off_c, 2, 51, 88
1, 9777, Note_off_c, 1, 39, 90
1, 9792, Note_on_c, 0, 27, 116
1, 9792, Note_on_c, 1, 27, 97
1, 9792, Note_on_c, 2, 39, 111
1, 9792, Note_on_c, 9, 42, 62
1, 9801, Note_off_c, 9, 42, 62
1, 9817, Note_off_c, 2, 39, 111
1, 9837, Note_off_c, 0, 27, 116
1, 9931, Note_off_c, 1, 27, 97
1, 9984, Note_on_c, 0, 54, 127
1, 9984, Note_on_c, 0, 49, 117
1, 9984, Note_on_c, 1, 30, 104
1, 9984, Note_on_c, 2, 54, 112
1, 9984, Note_on_c, 2, 49, 107
1, 9984, Note_on_c, 5, 51, 127
1, 9984, Note_on_c, 9, 42, 117
1, 9984, Note_on_c, 9, 36, 127
1, 9993, Note_off_c, 9, 36, 127
1, 9993, Note_off_c, 9, 42, 117
1, 10007, Note_off_c, 2, 54, 112
1, 10009, Note_off_c, 5, 51, 127
1, 10023, Note_off_c, 2, 49, 107
1, 10031, Note_off_c, 0, 49, 117
1, 10035, Note_off_c, 0, 54, 127
1, 10067, Note_off_c, 1, 30, 104
1, 10112, Note_on_c, 1, 32, 74
1, 10176, Note_on_c, 0, 39, 95
1, 10176, Note_on_c, 1, 34, 93
1, 10176, Note_on_c, 2, 39, 88
1, 10176, Note_on_c, 9, 42, 63
1, 10177, Note_off_c, 1, 32, 74
1, 10185, Note_off_c, 9, 42, 63
1, 10189, Note_off_c, 2, 39, 88
1, 10191, Note_off_c, 0, 39, 95
1, 10237, Note_off_c, 1, 34, 93
1, 10304, Note_on_c, 0, 54, 127
1, 10304, Note_on_c, 0, 49, 107
1, 10304, Note_on_c, 1, 37, 98
1, 10304, Note_on_c, 2, 51, 115
1, 10339, Note_off_c, 2, 51, 115
1, 10368, Note_on_c, 5, 51, 127
1, 10368, Note_on_c, 9, 39, 122
1, 10368, Note_on_c, 9, 40, 127
1, 10368, Note_on_c, 9, 42, 126
1, 10368, Note_on_c, 9, 36, 127
1, 10377, Note_off_c, 9, 36, 127
1, 10377, Note_off_c, 9, 42, 126
1, 10377, Note_off_c, 9, 40, 127
1, 10377, Note_off_c, 9, 39, 122
1, 10409, Note_off_c, 5, 51, 127
1, 10479, Note_off_c, 1, 37, 98
1, 10496, Note_on_c, 0, 39, 106
1, 10496, Note_on_c, 1, 34, 88
1, 10496, Note_on_c, 2, 39, 94
1, 10499, Note_off_c, 0, 49, 107
1, 10507, Note_off_c, 2, 39, 94
1, 10523, Note_off_c, 0, 39, 106
1, 10541, Note_off_c, 0, 54, 127
1, 10545, Note_off_c, 1, 34, 88
1, 10560, Note_on_c, 0, 49, 112
1, 10560, Note_on_c, 1, 39, 100
1, 10560, Note_on_c, 2, 49, 108
1, 10560, Note_on_c, 5, 49, 104
1, 10560, Note_on_c, 9, 42, 64
1, 10569, Note_off_c, 9, 42, 64
1, 10573, Note_off_c, 5, 49, 104
1, 10601, Note_off_c, 0, 49, 112
1, 10641, Note_off_c, 1, 39, 100
1, 10671, Note_off_c, 2, 49, 108
1, 10688, Note_on_c, 1, 39, 97
1, 10688, Note_on_c, 2, 51, 96
1, 10688, Note_on_c, 5, 51, 127
1, 10688, Note_on_c, 9, 42, 112
1, 10697, Note_off_c, 9, 42, 112
1, 10721, Note_off_c, 2, 51, 96
1, 10752, Note_on_c, 0, 27, 121
1, 10752, Note_on_c, 1, 27, 104
1, 10752, Note_on_c, 2, 39, 127
1, 10752, Note_on_c, 9, 36, 127
1, 10752, Note_on_c, 9, 42, 109
1, 10761, Note_off_c, 9, 42, 109
1, 10761, Note_off_c, 9, 36, 127
1, 10761, Note_off_c, 1, 39, 97
1, 10813, Note_off_c, 2, 39, 127
1, 10905, Note_off_c, 0, 27, 121
1, 10915, Note_off_c, 1, 27, 104
1, 10921, Note_off_c, 5, 51, 127
1, 10944, Note_on_c, 0, 51, 127
1, 10944, Note_on_c, 1, 39, 104
1, 10944, Note_on_c, 2, 51, 127
1, 10944, Note_on_c, 5, 49, 127
1, 10944, Note_on_c, 9, 42, 67
1, 10953, Note_off_c, 9, 42, 67
1, 10971, Note_off_c, 5, 49, 127
1, 10989, Note_off_c, 2, 51, 127
1, 10989, Note_off_c, 0, 51, 127
1, 11003, Note_off_c, 1, 39, 104
1, 11072, Note_on_c, 0, 39, 98
1, 11072, Note_on_c, 1, 27, 79
1, 11099, Note_off_c, 0, 39, 98
1, 11107, Note_off_c, 1, 27, 79
1, 11136, Note_on_c, 0, 49, 126
1, 11136, Note_on_c, 1, 37, 96
1, 11136, Note_on_c, 2, 49, 115
1, 11136, Note_on_c, 5, 51, 126
1, 11136, Note_on_c, 9, 39, 126
1, 11136, Note_on_c, 9, 40, 127
1, 11136, Note_on_c, 9, 42, 124
1, 11136, Note_on_c, 9, 36, 127
1, 11145, Note_off_c, 9, 36, 127
1, 11145, Note_off_c, 9, 42, 124
1, 11145, Note_off_c, 9, 40, 127
1, 11145, Note_off_c, 9, 39, 126
1, 11167, Note_off_c, 5, 51, 126
1, 11201, Note_off_c, 0, 49, 126
1, 11257, Note_off_c, 2, 49, 115
1, 11264, Note_on_c, 0, 51, 122
1, 11264, Note_on_c, 1, 39, 98
1, 11264, Note_on_c, 2, 51, 94
1, 11264, Note_on_c, 9, 42, 105
1, 11267, Note_off_c, 1, 37, 96
1, 11273, Note_off_c, 9, 42, 105
1, 11297, Note_off_c, 0, 51, 122
1, 11305, Note_off_c, 2, 51, 94
1, 11328, Note_on_c, 0, 39, 107
1, 11328, Note_on_c, 2, 39, 108
1, 11328, Note_on_c, 5, 49, 123
1, 11328, Note_on_c, 9, 42, 73
1, 11337, Note_off_c, 9, 42, 73
1, 11337, Note_off_c, 1, 39, 98
1, 11341, Note_off_c, 5, 49, 123
1, 11347, Note_off_c, 0, 39, 107
1, 11367, Note_off_c, 2, 39, 108
1, 11456, Note_on_c, 1, 37, 77
1, 11493, Note_off_c, 1, 37, 77
1, 11520, Note_on_c, 1, 44, 105
1, 11520, Note_on_c, 2, 46, 117
1, 11520, Note_on_c, 2, 45, 120
1, 11520, Note_on_c, 5, 54, 127
1, 11520, Note_on_c, 9, 36, 127
1, 11520, Note_on_c, 9, 42, 107
1, 11529, Note_off_c, 9, 42, 107
1, 11529, Note_off_c, 9, 36, 127
1, 11541, Pitch_bend_c, 1, 9728
1, 11551, Pitch_bend_c, 1, 16383
1, 11555, Note_off_c, 2, 45, 120
1, 11565, Note_off_c, 5, 54, 127
1, 11613, Note_off_c, 1, 44, 105
1, 11637, Pitch_bend_c, 1, 15648
1, 11649, Pitch_bend_c, 1, 11360
1, 11667, Pitch_bend_c, 1, 9088
1, 11679, Note_off_c, 2, 46, 117
1, 11679, Pitch_bend_c, 1, 8448
1, 11685, Pitch_bend_c, 1, 8192
1, 11712, Note_on_c, 0, 54, 124
1, 11712, Note_on_c, 0, 49, 106
1, 11712, Note_on_c, 1, 42, 107
1, 11712, Note_on_c, 2, 49, 87
1, 11712, Note_on_c, 5, 56, 127
1, 11712, Note_on_c, 9, 42, 78
1, 11721, Note_off_c, 9, 42, 78
1, 11729, Note_off_c, 0, 49, 106
1, 11751, Note_off_c, 0, 54, 124
1, 11763, Note_off_c, 5, 56, 127
1, 11793, Note_off_c, 2, 49, 87
1, 11803, Note_off_c, 1, 42, 107
1, 11840, Note_on_c, 2, 45, 109
1, 11840, Note_on_c, 2, 46, 92
1, 11840, Note_on_c, 9, 42, 110
1, 11849, Note_off_c, 9, 42, 110
1, 11887, Note_off_c, 2, 46, 92
1, 11904, Note_on_c, 0, 56, 121
1, 11904, Note_on_c, 0, 51, 118
1, 11904, Note_on_c, 1, 42, 100
1, 11904, Note_on_c, 2, 44, 85
1, 11904, Note_on_c, 5, 54, 127
1, 11904, Note_on_c, 9, 39, 127
1, 11904, Note_on_c, 9, 40, 127
1, 11904, Note_on_c, 9, 42, 127
1, 11904, Note_on_c, 9, 36, 127
1, 11909, Note_off_c, 2, 45, 109
1, 11913, Note_off_c, 9, 36, 127
1, 11913, Note_off_c, 9, 42, 127
1, 11913, Note_off_c, 9, 40, 127
1, 11913, Note_off_c, 9, 39, 127
1, 11951, Note_off_c, 5, 54, 127
1, 11981, Note_off_c, 0, 51, 118
1, 12009, Note_off_c, 2, 44, 85
1, 12032, Note_on_c, 2, 42, 95
1, 12039, Note_off_c, 0, 56, 121
1, 12071, Note_off_c, 1, 42, 100
1, 12077, Note_off_c, 2, 42, 95
1, 12096, Note_on_c, 0, 54, 114
1, 12096, Note_on_c, 0, 49, 110
1, 12096, Note_on_c, 1, 39, 93
1, 12096, Note_on_c, 2, 44, 95
1, 12096, Note_on_c, 5, 49, 127
1, 12096, Note_on_c, 9, 42, 71
1, 12105, Note_off_c, 9, 42, 71
1, 12121, Note_off_c, 5, 49, 127
1, 12131, Note_off_c, 0, 49, 110
1, 12137, Note_off_c, 0, 54, 114
1, 12193, Note_off_c, 2, 44, 95
1, 12205, Note_off_c, 1, 39, 93
1, 12224, Note_on_c, 0, 54, 127
1, 12224, Note_on_c, 0, 49, 112
1, 12224, Note_on_c, 1, 37, 89
1, 12224, Note_on_c, 2, 42, 88
1, 12249, Note_off_c, 0, 49, 112
1, 12265, Note_off_c, 2, 42, 88
1, 12267, Note_off_c, 0, 54, 127
1, 12273, Note_off_c, 1, 37, 89
1, 12288, Note_on_c, 0, 27, 110
1, 12288, Note_on_c, 1, 27, 88
1, 12288, Note_on_c, 1, 29, 97
1, 12288, Note_on_c, 2, 39, 127
1, 12288, Note_on_c, 5, 51, 127
1, 12288, Note_on_c, 9, 36, 127
1, 12288, Note_on_c, 9, 42, 115
1, 12297, Note_off_c, 9, 42, 115
1, 12297, Note_off_c, 9, 36, 127
1, 12301, Note_off_c, 1, 29, 97
1, 12377, Note_off_c, 0, 27, 110
1, 12395, Note_off_c, 5, 51, 127
1, 12416, Note_on_c, 0, 39, 96
1, 12441, Note_off_c, 2, 39, 127
1, 12447, Note_off_c, 0, 39, 96
1, 12480, Note_on_c, 0, 51, 125
1, 12480, Note_on_c, 1, 39, 107
1, 12480, Note_on_c, 2, 51, 117
1, 12480, Note_on_c, 5, 49, 127
1, 12480, Note_on_c, 9, 42, 57
1, 12487, Note_off_c, 1, 27, 88
1, 12489, Note_off_c, 9, 42, 57
1, 12507, Note_off_c, 5, 49, 127
1, 12521, Note_off_c, 0, 51, 125
1, 12531, Note_off_c, 2, 51, 117
1, 12553, Note_off_c, 1, 39, 107
1, 12608, Note_on_c, 0, 39, 84
1, 12608, Note_on_c, 1, 27, 69
1, 12608, Note_on_c, 2, 39, 75
1, 12619, Note_off_c, 2, 39, 75
1, 12627, Note_off_c, 1, 27, 69
1, 12627, Note_off_c, 0, 39, 84
1, 12672, Note_on_c, 0, 49, 126
1, 12672, Note_on_c, 1, 37, 101
1, 12672, Note_on_c, 2, 49, 112
1, 12672, Note_on_c, 5, 51, 127
1, 12672, Note_on_c, 9, 39, 124
1, 12672, Note_on_c, 9, 40, 127
1, 12672, Note_on_c, 9, 42, 126
1, 12672, Note_on_c, 9, 36, 127
1, 12681, Note_off_c, 9, 36, 127
1, 12681, Note_off_c, 9, 42, 126
1, 12681, Note_off_c, 9, 40, 127
1, 12681, Note_off_c, 9, 39, 124
1, 12731, Note_off_c, 0, 49, 126
1, 12733, Note_off_c, 5, 51, 127
1, 12751, Note_off_c, 2, 49, 112
1, 12775, Note_off_c, 1, 37, 101
1, 12800, Note_on_c, 0, 51, 127
1, 12800, Note_on_c, 1, 39, 90
1, 12800, Note_on_c, 2, 51, 92
1, 12800, Note_on_c, 9, 42, 102
1, 12809, Note_off_c, 9, 42, 102
1, 12831, Note_off_c, 2, 51, 92
1, 12843, Note_off_c, 1, 39, 90
1, 12845, Note_off_c, 0, 51, 127
1, 12864, Note_on_c, 1, 27, 98
1, 12864, Note_on_c, 2, 39, 127
1, 12864, Note_on_c, 5, 49, 122
1, 12864, Note_on_c, 9, 42, 66
1, 12873, Note_off_c, 9, 42, 66
1, 12885, Note_off_c, 5, 49, 122
1, 12899, Note_off_c, 2, 39, 127
1, 12997, Note_off_c, 1, 27, 98
1, 13056, Note_on_c, 0, 51, 121
1, 13056, Note_on_c, 0, 54, 123
1, 13056, Note_on_c, 1, 30, 118
1, 13056, Note_on_c, 2, 54, 108
1, 13056, Note_on_c, 2, 49, 108
1, 13056, Note_on_c, 5, 51, 127
1, 13056, Note_on_c, 9, 36, 127
1, 13056, Note_on_c, 9, 42, 110
1, 13065, Note_off_c, 9, 42, 110
1, 13065, Note_off_c, 9, 36, 127
1, 13069, Note_off_c, 0, 54, 123
1, 13085, Note_off_c, 2, 54, 108
1, 13089, Note_off_c, 0, 51, 121
1, 13099, Note_off_c, 5, 51, 127
1, 13103, Note_off_c, 2, 49, 108
1, 13143, Note_off_c, 1, 30, 118
1, 13184, Note_on_c, 1, 32, 79
1, 13243, Note_off_c, 1, 32, 79
1, 13248, Note_on_c, 1, 34, 93
1, 13248, Note_on_c, 5, 49, 114
1, 13248, Note_on_c, 9, 42, 76
1, 13257, Note_off_c, 9, 42, 76
1, 13265, Note_off_c, 5, 49, 114
1, 13321, Note_off_c, 1, 34, 93
1, 13376, Note_on_c, 0, 54, 125
1, 13376, Note_on_c, 0, 49, 118
1, 13376, Note_on_c, 1, 37, 102
1, 13376, Note_on_c, 2, 54, 108
1, 13376, Note_on_c, 2, 49, 110
1, 13376, Note_on_c, 9, 46, 91
1, 13376, Note_on_c, 9, 42, 109
1, 13385, Note_off_c, 9, 42, 109
1, 13385, Note_off_c, 9, 46, 91
1, 13399, Note_off_c, 0, 49, 118
1, 13409, Note_off_c, 0, 54, 125
1, 13419, Note_off_c, 2, 54, 108
1, 13423, Note_off_c, 2, 49, 110
1, 13440, Note_on_c, 5, 51, 127
1, 13440, Note_on_c, 9, 39, 127
1, 13440, Note_on_c, 9, 40, 127
1, 13440, Note_on_c, 9, 42, 105
1, 13440, Note_on_c, 9, 36, 127
1, 13449, Note_off_c, 9, 36, 127
1, 13449, Note_off_c, 9, 42, 105
1, 13449, Note_off_c, 9, 40, 127
1, 13449, Note_off_c, 9, 39, 127
1, 13471, Note_off_c, 5, 51, 127
1, 13541, Note_off_c, 1, 37, 102
1, 13568, Note_on_c, 0, 39, 103
1, 13568, Note_on_c, 1, 34, 87
1, 13613, Note_off_c, 0, 39, 103
1, 13619, Note_off_c, 1, 34, 87
1, 13632, Note_on_c, 0, 54, 121
1, 13632, Note_on_c, 0, 49, 119
1, 13632, Note_on_c, 1, 39, 101
1, 13632, Note_on_c, 2, 54, 112
1, 13632, Note_on_c, 2, 49, 112
1, 13632, Note_on_c, 9, 42, 87
1, 13641, Note_off_c, 9, 42, 87
1, 13699, Note_off_c, 0, 49, 119
1, 13709, Note_off_c, 0, 54, 121
1, 13717, Note_off_c, 1, 39, 101
1, 13760, Note_on_c, 1, 39, 87
1, 13760, Note_on_c, 5, 56, 127
1, 13781, Pitch_bend_c, 5, 9728
1, 13791, Pitch_bend_c, 5, 11552
1, 13805, Pitch_bend_c, 5, 13312
1, 13811, Note_off_c, 2, 54, 112
1, 13824, Note_on_c, 0, 27, 116
1, 13824, Note_on_c, 1, 27, 107
1, 13824, Note_on_c, 2, 39, 111
1, 13824, Note_on_c, 9, 42, 84
1, 13824, Note_on_c, 9, 36, 127
1, 13825, Pitch_bend_c, 5, 13088
1, 13833, Note_off_c, 9, 36, 127
1, 13833, Note_off_c, 9, 42, 84
1, 13833, Note_off_c, 5, 56, 127
1, 13833, Note_off_c, 2, 49, 112
1, 13833, Pitch_bend_c, 5, 10016
1, 13845, Note_off_c, 1, 39, 87
1, 13851, Pitch_bend_c, 5, 8320
1, 13859, Pitch_bend_c, 5, 8192
1, 13915, Note_off_c, 0, 27, 116
1, 13941, Note_off_c, 2, 39, 111
1, 13952, Note_on_c, 5, 54, 109
1, 13952, Note_on_c, 5, 56, 87
1, 13979, Note_off_c, 5, 56, 87
1, 13985, Note_off_c, 5, 54, 109
1, 13999, Note_off_c, 1, 27, 107
1, 14016, Note_on_c, 0, 66, 125
1, 14016, Note_on_c, 0, 61, 118
1, 14016, Note_on_c, 1, 39, 107
1, 14016, Note_on_c, 2, 51, 114
1, 14016, Note_on_c, 5, 56, 127
1, 14016, Note_on_c, 9, 42, 78
1, 14025, Note_off_c, 9, 42, 78
1, 14045, Note_off_c, 0, 66, 125
1, 14049, Note_off_c, 0, 61, 118
1, 14069, Note_off_c, 2, 51, 114
1, 14081, Note_off_c, 5, 56, 127
1, 14085, Note_off_c, 1, 39, 107
1, 14144, Note_on_c, 1, 27, 72
1, 14181, Note_off_c, 1, 27, 72
1, 14208, Note_on_c, 0, 39, 99
1, 14208, Note_on_c, 1, 37, 102
1, 14208, Note_on_c, 2, 49, 121
1, 14208, Note_on_c, 5, 54, 127
1, 14208, Note_on_c, 9, 39, 127
1, 14208, Note_on_c, 9, 42, 120
1, 14208, Note_on_c, 9, 40, 126
1, 14208, Note_on_c, 9, 36, 127
1, 14217, Note_off_c, 9, 36, 127
1, 14217, Note_off_c, 9, 40, 126
1, 14217, Note_off_c, 9, 42, 120
1, 14217, Note_off_c, 9, 39, 127
1, 14243, Note_off_c, 0, 39, 99
1, 14269, Note_off_c, 5, 54, 127
1, 14317, Note_off_c, 1, 37, 102
1, 14336, Note_on_c, 1, 39, 101
1, 14336, Note_on_c, 9, 42, 107
1, 14345, Note_off_c, 9, 42, 107
1, 14345, Note_off_c, 2, 49, 121
1, 14393, Note_off_c, 1, 39, 101
1, 14400, Note_on_c, 0, 27, 113
1, 14400, Note_on_c, 2, 51, 110
1, 14400, Note_on_c, 5, 51, 127
1, 14400, Note_on_c, 9, 42, 70
1, 14409, Note_off_c, 9, 42, 70
1, 14441, Note_off_c, 5, 51, 127
1, 14457, Note_off_c, 2, 51, 110
1, 14469, Note_off_c, 0, 27, 113
1, 14528, Note_on_c, 0, 39, 91
1, 14547, Note_off_c, 0, 39, 91
1, 14577, Control_c, 3, 1, 1
1, 14583, Control_c, 3, 1, 10
1, 14592, Note_on_c, 0, 66, 127
1, 14592, Note_on_c, 0, 61, 118
1, 14592, Note_on_c, 1, 44, 102
1, 14592, Note_on_c, 2, 44, 110
1, 14592, Note_on_c, 5, 51, 127
1, 14592, Note_on_c, 9, 42, 113
1, 14592, Note_on_c, 9, 36, 127
1, 14598, Note_on_c, 3, 61, 127
1, 14601, Note_off_c, 9, 36, 127
1, 14601, Note_off_c, 9, 42, 113
1, 14601, Control_c, 3, 1, 12
1, 14615, Note_off_c, 0, 61, 118
1, 14619, Control_c, 3, 1, 22
1, 14625, Pitch_bend_c, 1, 9024
1, 14631, Note_off_c, 0, 66, 127
1, 14633, Pitch_bend_c, 1, 11456
1, 14635, Control_c, 3, 1, 24
1, 14637, Note_off_c, 5, 51, 127
1, 14651, Note_off_c, 2, 44, 110
1, 14655, Pitch_bend_c, 1, 12896
1, 14659, Pitch_bend_c, 1, 14144
1, 14661, Control_c, 3, 1, 22
1, 14677, Pitch_bend_c, 1, 14336
1, 14681, Control_c, 3, 1, 23
1, 14685, Note_off_c, 1, 44, 102
1, 14689, Pitch_bend_c, 1, 13888
1, 14689, Control_c, 3, 1, 27
1, 14709, Pitch_bend_c, 1, 12640
1, 14709, Control_c, 3, 1, 29
1, 14717, Pitch_bend_c, 1, 10912
1, 14729, Control_c, 3, 1, 29
1, 14731, Pitch_bend_c, 1, 9344
1, 14743, Pitch_bend_c, 1, 8320
1, 14745, Note_off_c, 3, 61, 127
1, 14749, Control_c, 3, 1, 19
1, 14751, Pitch_bend_c, 1, 8192
1, 14763, Control_c, 3, 1, 12
1, 14779, Control_c, 3, 1, 9
1, 14784, Note_on_c, 0, 39, 108
1, 14784, Note_on_c, 1, 42, 100
1, 14784, Note_on_c, 2, 45, 105
1, 14784, Note_on_c, 9, 42, 75
1, 14786, Note_on_c, 3, 63, 118
1, 14793, Note_off_c, 9, 42, 75
1, 14817, Control_c, 3, 1, 13
1, 14821, Note_off_c, 3, 63, 118
1, 14827, Note_off_c, 0, 39, 108
1, 14831, Pitch_bend_c, 1, 8960
1, 14837, Control_c, 3, 1, 16
1, 14841, Pitch_bend_c, 1, 11872
1, 14857, Pitch_bend_c, 1, 15264
1, 14857, Control_c, 3, 1, 17
1, 14871, Pitch_bend_c, 1, 16383
1, 14873, Control_c, 3, 1, 19
1, 14879, Note_off_c, 2, 45, 105
1, 14887, Control_c, 3, 1, 22
1, 14893, Note_off_c, 1, 42, 100
1, 14906, Note_on_c, 3, 63, 127
1, 14912, Note_on_c, 0, 66, 106
1, 14912, Note_on_c, 2, 46, 98
1, 14912, Note_on_c, 9, 42, 110
1, 14919, Pitch_bend_c, 1, 15744
1, 14921, Note_off_c, 9, 42, 110
1, 14921, Control_c, 3, 1, 25
1, 14925, Pitch_bend_c, 1, 12256
1, 14927, Control_c, 3, 1, 28
1, 14929, Note_off_c, 0, 66, 106
1, 14943, Pitch_bend_c, 1, 8864
1, 14945, Control_c, 3, 1, 32
1, 14955, Pitch_bend_c, 1, 8352
1, 14963, Pitch_bend_c, 1, 8192
1, 14965, Control_c, 3, 1, 34
1, 14976, Note_on_c, 1, 42, 109
1, 14976, Note_on_c, 5, 51, 127
1, 14976, Note_on_c, 9, 39, 124
1, 14976, Note_on_c, 9, 42, 127
1, 14976, Note_on_c, 9, 40, 127
1, 14976, Note_on_c, 9, 36, 127
1, 14983, Note_off_c, 2, 46, 98
1, 14985, Note_off_c, 9, 36, 127
1, 14985, Note_off_c, 9, 40, 127
1, 14985, Note_off_c, 9, 42, 127
1, 14985, Note_off_c, 9, 39, 124
1, 14985, Control_c, 3, 1, 36
1, 14997, Control_c, 3, 1, 39
1, 15015, Control_c, 3, 1, 41
1, 15019, Note_off_c, 5, 51, 127
1, 15033, Note_off_c, 3, 63, 127
1, 15033, Control_c, 3, 1, 43
1, 15049, Control_c, 3, 1, 45
1, 15094, Note_on_c, 3, 63, 127
1, 15104, Note_on_c, 0, 39, 98
1, 15104, Note_on_c, 2, 49, 110
1, 15107, Control_c, 3, 1, 47
1, 15121, Control_c, 3, 1, 22
1, 15141, Control_c, 1, 1, 10
1, 15141, Control_c, 3, 1, 5
1, 15147, Note_off_c, 1, 42, 109
1, 15155, Note_off_c, 0, 39, 98
1, 15157, Control_c, 1, 1, 24
1, 15161, Control_c, 3, 1, 0
1, 15163, Note_off_c, 3, 63, 127
1, 15168, Note_on_c, 0, 56, 118
1, 15168, Note_on_c, 1, 39, 97
1, 15168, Note_on_c, 5, 49, 103
1, 15168, Note_on_c, 9, 42, 82
1, 15175, Control_c, 1, 1, 5
1, 15177, Note_off_c, 9, 42, 82
1, 15177, Note_off_c, 2, 49, 110
1, 15181, Note_off_c, 5, 49, 103
1, 15207, Control_c, 1, 1, 0
1, 15237, Pitch_bend_c, 3, 7552
1, 15245, Note_off_c, 0, 56, 118
1, 15247, Pitch_bend_c, 3, 4480
1, 15249, Note_off_c, 1, 39, 97
1, 15261, Pitch_bend_c, 3, 2880
1, 15284, Note_on_c, 3, 66, 127
1, 15289, Pitch_bend_c, 3, 3264
1, 15296, Note_on_c, 0, 58, 116
1, 15296, Note_on_c, 1, 37, 90
1, 15296, Note_on_c, 2, 51, 117
1, 15305, Pitch_bend_c, 3, 4736
1, 15317, Pitch_bend_c, 3, 6656
1, 15331, Pitch_bend_c, 3, 7616
1, 15333, Note_off_c, 0, 58, 116
1, 15335, Note_off_c, 2, 51, 117
1, 15335, Note_off_c, 1, 37, 90
1, 15347, Pitch_bend_c, 3, 8064
1, 15360, Note_on_c, 0, 27, 103
1, 15360, Note_on_c, 1, 27, 105
1, 15360, Note_on_c, 9, 36, 127
1, 15360, Note_on_c, 9, 49, 84
1, 15363, Pitch_bend_c, 3, 8192
1, 15369, Note_off_c, 9, 49, 84
1, 15369, Note_off_c, 9, 36, 127
1, 15435, Note_off_c, 0, 27, 103
1, 15435, Control_c, 3, 1, 2
1, 15449, Control_c, 3, 1, 6
1, 15465, Control_c, 3, 1, 9
1, 15485, Control_c, 3, 1, 12
1, 15507, Control_c, 3, 1, 14
1, 15511, Note_off_c, 1, 27, 105
1, 15521, Control_c, 3, 1, 15
1, 15537, Control_c, 3, 1, 20
1, 15552, Note_on_c, 0, 54, 106
1, 15552, Note_on_c, 1, 39, 98
1, 15552, Note_on_c, 2, 51, 115
1, 15552, Note_on_c, 5, 51, 126
1, 15552, Note_on_c, 9, 42, 77
1, 15557, Control_c, 3, 1, 25
1, 15561, Note_off_c, 9, 42, 77
1, 15573, Control_c, 3, 1, 26
1, 15579, Note_off_c, 0, 54, 106
1, 15589, Control_c, 3, 1, 11
1, 15595, Note_off_c, 5, 51, 126
1, 15603, Note_off_c, 2, 51, 115
1, 15609, Control_c, 3, 1, 1
1, 15617, Note_off_c, 1, 39, 98
1, 15625, Control_c, 3, 1, 0
1, 15649, Note_off_c, 3, 66, 127
1, 15680, Note_on_c, 1, 27, 61
1, 15687, Pitch_bend_c, 3, 7296
1, 15699, Pitch_bend_c, 3, 6336
1, 15713, Note_off_c, 1, 27, 61
1, 15713, Pitch_bend_c, 3, 2048
1, 15725, Pitch_bend_c, 3, 1792
1, 15736, Note_on_c, 3, 63, 127
1, 15744, Note_on_c, 1, 37, 92
1, 15744, Note_on_c, 2, 49, 106
1, 15744, Note_on_c, 9, 39, 126
1, 15744, Note_on_c, 9, 40, 127
1, 15744, Note_on_c, 9, 42, 122
1, 15744, Note_on_c, 9, 36, 127
1, 15745, Pitch_bend_c, 3, 3456
1, 15753, Note_off_c, 9, 36, 127
1, 15753, Note_off_c, 9, 42, 122
1, 15753, Note_off_c, 9, 40, 127
1, 15753, Note_off_c, 9, 39, 126
1, 15753, Pitch_bend_c, 3, 5440
1, 15765, Pitch_bend_c, 3, 7680
1, 15787, Pitch_bend_c, 3, 8192
1, 15843, Note_off_c, 1, 37, 92
1, 15857, Note_off_c, 2, 49, 106
1, 15867, Control_c, 3, 1, 9
1, 15872, Note_on_c, 1, 39, 90
1, 15872, Note_on_c, 2, 51, 88
1, 15883, Control_c, 3, 1, 16
1, 15895, Control_c, 3, 1, 17
1, 15911, Note_off_c, 2, 51, 88
1, 15921, Note_off_c, 1, 39, 90
1, 15931, Control_c, 3, 1, 20
1, 15936, Note_on_c, 0, 54, 121
1, 15936, Note_on_c, 0, 49, 118
1, 15936, Note_on_c, 1, 27, 97
1, 15936, Note_on_c, 2, 39, 111
1, 15936, Note_on_c, 5, 51, 118
1, 15936, Note_on_c, 9, 42, 62
1, 15945, Note_off_c, 9, 42, 62
1, 15961, Note_off_c, 2, 39, 111
1, 15961, Note_off_c, 0, 49, 118
1, 15963, Control_c, 3, 1, 21
1, 15971, Control_c, 3, 1, 25
1, 15973, Note_off_c, 0, 54, 121
1, 15979, Note_off_c, 5, 51, 118
1, 15991, Control_c, 3, 1, 28
1, 16003, Control_c, 3, 1, 34
1, 16021, Control_c, 3, 1, 42
1, 16041, Control_c, 3, 1, 46
1, 16065, Control_c, 3, 1, 48
1, 16075, Note_off_c, 1, 27, 97
1, 16075, Control_c, 3, 1, 51
1, 16095, Control_c, 3, 1, 53
1, 16121, Control_c, 3, 1, 54
1, 16128, Note_on_c, 1, 30, 104
1, 16128, Note_on_c, 2, 54, 112
1, 16128, Note_on_c, 2, 49, 107
1, 16128, Note_on_c, 5, 51, 127
1, 16128, Note_on_c, 9, 42, 117
1, 16128, Note_on_c, 9, 36, 127
1, 16137, Note_off_c, 9, 36, 127
1, 16137, Note_off_c, 9, 42, 117
1, 16137, Control_c, 3, 1, 52
1, 16151, Note_off_c, 2, 54, 112
1, 16153, Control_c, 3, 1, 49
1, 16167, Note_off_c, 2, 49, 107
1, 16169, Control_c, 3, 1, 39
1, 16175, Note_off_c, 5, 51, 127
1, 16189, Control_c, 3, 1, 31
1, 16201, Control_c, 3, 1, 21
1, 16211, Note_off_c, 1, 30, 104
1, 16221, Control_c, 3, 1, 14
1, 16237, Control_c, 3, 1, 6
1, 16256, Note_on_c, 1, 32, 74
1, 16257, Control_c, 3, 1, 0
1, 16309, Note_off_c, 3, 63, 127
1, 16320, Note_on_c, 1, 34, 93
1, 16320, Note_on_c, 2, 39, 88
1, 16320, Note_on_c, 9, 42, 63
1, 16321, Note_off_c, 1, 32, 74
1, 16322, Note_on_c, 3, 61, 94
1, 16329, Note_off_c, 9, 42, 63
1, 16333, Note_off_c, 2, 39, 88
1, 16375, Note_off_c, 3, 61, 94
1, 16381, Note_off_c, 1, 34, 93
1, 16396, Note_on_c, 3, 58, 89
1, 16431, Note_off_c, 3, 58, 89
1, 16448, Note_on_c, 0, 51, 127
1, 16448, Note_on_c, 1, 37, 98
1, 16448, Note_on_c, 2, 51, 115
1, 16483, Note_off_c, 2, 51, 115
1, 16485, Note_off_c, 0, 51, 127
1, 16512, Note_on_c, 5, 51, 127
1, 16512, Note_on_c, 9, 39, 122
1, 16512, Note_on_c, 9, 40, 127
1, 16512, Note_on_c, 9, 42, 126
1, 16512, Note_on_c, 9, 36, 127
1, 16521, Note_off_c, 9, 36, 127
1, 16521, Note_off_c, 9, 42, 126
1, 16521, Note_off_c, 9, 40, 127
1, 16521, Note_off_c, 9, 39, 122
1, 16569, Note_off_c, 5, 51, 127
1, 16623, Note_off_c, 1, 37, 98
1, 16640, Note_on_c, 0, 39, 108
1, 16640, Note_on_c, 1, 34, 88
1, 16640, Note_on_c, 2, 39, 94
1, 16651, Note_off_c, 2, 39, 94
1, 16689, Note_off_c, 1, 34, 88
1, 16704, Note_on_c, 0, 49, 120
1, 16704, Note_on_c, 1, 39, 100
1, 16704, Note_on_c, 2, 49, 108
1, 16704, Note_on_c, 9, 42, 64
1, 16707, Note_off_c, 0, 39, 108
1, 16713, Note_off_c, 9, 42, 64
1, 16781, Note_off_c, 0, 49, 120
1, 16785, Note_off_c, 1, 39, 100
1, 16815, Note_off_c, 2, 49, 108
1, 16832, Note_on_c, 0, 51, 118
1, 16832, Note_on_c, 1, 39, 97
1, 16832, Note_on_c, 2, 51, 96
1, 16832, Note_on_c, 5, 54, 127
1, 16865, Note_off_c, 2, 51, 96
1, 16879, Note_off_c, 0, 51, 118
1, 16896, Note_on_c, 0, 27, 118
1, 16896, Note_on_c, 1, 27, 104
1, 16896, Note_on_c, 2, 39, 127
1, 16896, Note_on_c, 9, 36, 127
1, 16896, Note_on_c, 9, 42, 109
1, 16905, Note_off_c, 9, 42, 109
1, 16905, Note_off_c, 9, 36, 127
1, 16905, Note_off_c, 1, 39, 97
1, 16957, Note_off_c, 2, 39, 127
1, 17059, Note_off_c, 1, 27, 104
1, 17061, Note_off_c, 5, 54, 127
1, 17088, Note_on_c, 0, 54, 123
1, 17088, Note_on_c, 0, 49, 114
1, 17088, Note_on_c, 1, 39, 104
1, 17088, Note_on_c, 2, 51, 127
1, 17088, Note_on_c, 5, 51, 126
1, 17088, Note_on_c, 9, 42, 67
1, 17097, Note_off_c, 9, 42, 67
1, 17111, Note_off_c, 0, 49, 114
1, 17113, Note_off_c, 5, 51, 126
1, 17123, Note_off_c, 0, 54, 123
1, 17123, Note_off_c, 0, 27, 118
1, 17133, Note_off_c, 2, 51, 127
1, 17147, Note_off_c, 1, 39, 104
1, 17216, Note_on_c, 1, 27, 79
1, 17251, Note_off_c, 1, 27, 79
1, 17280, Note_on_c, 0, 54, 127
1, 17280, Note_on_c, 0, 49, 120
1, 17280, Note_on_c, 1, 37, 96
1, 17280, Note_on_c, 2, 49, 115
1, 17280, Note_on_c, 5, 51, 127
1, 17280, Note_on_c, 9, 39, 126
1, 17280, Note_on_c, 9, 40, 127
1, 17280, Note_on_c, 9, 42, 124
1, 17280, Note_on_c, 9, 36, 127
1, 17289, Note_off_c, 9, 36, 127
1, 17289, Note_off_c, 9, 42, 124
1, 17289, Note_off_c, 9, 40, 127
1, 17289, Note_off_c, 9, 39, 126
1, 17307, Note_off_c, 5, 51, 127
1, 17401, Note_off_c, 2, 49, 115
1, 17403, Note_off_c, 0, 49, 120
1, 17408, Note_on_c, 1, 39, 98
1, 17408, Note_on_c, 2, 51, 94
1, 17411, Note_off_c, 1, 37, 96
1, 17413, Note_off_c, 0, 54, 127
1, 17449, Note_off_c, 2, 51, 94
1, 17472, Note_on_c, 0, 39, 104
1, 17472, Note_on_c, 2, 39, 108
1, 17472, Note_on_c, 5, 49, 113
1, 17472, Note_on_c, 9, 42, 73
1, 17481, Note_off_c, 9, 42, 73
1, 17481, Note_off_c, 1, 39, 98
1, 17495, Note_off_c, 5, 49, 113
1, 17511, Note_off_c, 2, 39, 108
1, 17513, Note_off_c, 0, 39, 104
1, 17600, Note_on_c, 1, 37, 77
1, 17637, Note_off_c, 1, 37, 77
1, 17662, Note_on_c, 3, 61, 122
1, 17664, Note_on_c, 1, 44, 105
1, 17664, Note_on_c, 2, 46, 117
1, 17664, Note_on_c, 2, 45, 120
1, 17664, Note_on_c, 5, 51, 125
1, 17664, Note_on_c, 9, 36, 127
1, 17664, Note_on_c, 9, 42, 107
1, 17673, Note_off_c, 9, 42, 107
1, 17673, Note_off_c, 9, 36, 127
1, 17677, Control_c, 3, 1, 11
1, 17685, Pitch_bend_c, 1, 11264
1, 17689, Note_off_c, 5, 51, 125
1, 17691, Note_off_c, 3, 61, 122
1, 17699, Note_off_c, 2, 45, 120
1, 17699, Pitch_bend_c, 1, 16383
1, 17699, Control_c, 3, 1, 18
1, 17713, Control_c, 3, 1, 18
1, 17733, Control_c, 3, 1, 17
1, 17742, Note_on_c, 3, 58, 127
1, 17751, Control_c, 3, 1, 19
1, 17757, Note_off_c, 1, 44, 105
1, 17775, Control_c, 3, 1, 24
1, 17781, Pitch_bend_c, 1, 14752
1, 17785, Control_c, 3, 1, 29
1, 17792, Note_on_c, 0, 39, 81
1, 17797, Pitch_bend_c, 1, 11360
1, 17803, Control_c, 3, 1, 39
1, 17811, Pitch_bend_c, 1, 9088
1, 17823, Note_off_c, 2, 46, 117
1, 17823, Pitch_bend_c, 1, 8448
1, 17825, Note_off_c, 0, 39, 81
1, 17825, Control_c, 3, 1, 47
1, 17829, Pitch_bend_c, 1, 8192
1, 17845, Control_c, 3, 1, 51
1, 17856, Note_on_c, 1, 42, 107
1, 17856, Note_on_c, 2, 49, 87
1, 17856, Note_on_c, 5, 49, 112
1, 17856, Note_on_c, 9, 42, 78
1, 17856, Note_on_c, 9, 36, 127
1, 17857, Control_c, 3, 1, 52
1, 17865, Note_off_c, 9, 36, 127
1, 17865, Note_off_c, 9, 42, 78
1, 17873, Note_off_c, 5, 49, 112
1, 17875, Control_c, 3, 1, 49
1, 17895, Control_c, 3, 1, 35
1, 17915, Control_c, 3, 1, 13
1, 17935, Control_c, 3, 1, 4
1, 17937, Note_off_c, 2, 49, 87
1, 17947, Note_off_c, 1, 42, 107
1, 17947, Control_c, 3, 1, 0
1, 17955, Note_off_c, 3, 58, 127
1, 17984, Note_on_c, 0, 39, 110
1, 17984, Note_on_c, 2, 45, 109
1, 17984, Note_on_c, 2, 46, 92
1, 18025, Note_off_c, 0, 39, 110
1, 18031, Note_off_c, 2, 46, 92
1, 18048, Note_on_c, 1, 42, 100
1, 18048, Note_on_c, 2, 44, 85
1, 18048, Note_on_c, 5, 51, 112
1, 18048, Note_on_c, 9, 39, 127
1, 18048, Note_on_c, 9, 40, 127
1, 18048, Note_on_c, 9, 42, 127
1, 18048, Note_on_c, 9, 36, 127
1, 18050, Note_on_c, 3, 56, 127
1, 18053, Note_off_c, 2, 45, 109
1, 18057, Note_off_c, 9, 36, 127
1, 18057, Note_off_c, 9, 42, 127
1, 18057, Note_off_c, 9, 40, 127
1, 18057, Note_off_c, 9, 39, 127
1, 18075, Note_off_c, 5, 51, 112
1, 18105, Control_c, 3, 1, 2
1, 18113, Control_c, 3, 1, 4
1, 18129, Control_c, 3, 1, 6
1, 18145, Control_c, 3, 1, 8
1, 18153, Note_off_c, 2, 44, 85
1, 18163, Control_c, 3, 1, 10
1, 18176, Note_on_c, 0, 39, 89
1, 18176, Note_on_c, 2, 42, 95
1, 18176, Note_on_c, 5, 49, 108
1, 18183, Control_c, 3, 1, 12
1, 18189, Note_off_c, 5, 49, 108
1, 18197, Note_off_c, 0, 39, 89
1, 18203, Control_c, 3, 1, 14
1, 18213, Note_off_c, 3, 56, 127
1, 18215, Note_off_c, 1, 42, 100
1, 18221, Note_off_c, 2, 42, 95
1, 18237, Control_c, 3, 1, 8
1, 18240, Note_on_c, 0, 56, 121
1, 18240, Note_on_c, 0, 51, 107
1, 18240, Note_on_c, 1, 39, 93
1, 18240, Note_on_c, 2, 44, 95
1, 18240, Note_on_c, 5, 56, 127
1, 18240, Note_on_c, 9, 42, 71
1, 18240, Note_on_c, 9, 36, 127
1, 18244, Note_on_c, 3, 54, 108
1, 18249, Note_off_c, 9, 36, 127
1, 18249, Note_off_c, 9, 42, 71
1, 18267, Control_c, 3, 1, 0
1, 18271, Note_off_c, 3, 54, 108
1, 18293, Note_off_c, 0, 51, 107
1, 18297, Note_off_c, 5, 56, 127
1, 18321, Control_c, 3, 1, 1
1, 18325, Control_c, 3, 1, 4
1, 18329, Note_off_c, 0, 56, 121
1, 18337, Note_off_c, 2, 44, 95
1, 18349, Note_off_c, 1, 39, 93
1, 18354, Note_on_c, 3, 56, 127
1, 18361, Control_c, 3, 1, 16
1, 18368, Note_on_c, 0, 54, 102
1, 18368, Note_on_c, 1, 37, 89
1, 18368, Note_on_c, 2, 42, 88
1, 18368, Note_on_c, 5, 54, 127
1, 18379, Control_c, 3, 1, 25
1, 18397, Note_off_c, 0, 54, 102
1, 18399, Control_c, 3, 1, 29
1, 18407, Note_off_c, 5, 54, 127
1, 18409, Note_off_c, 2, 42, 88
1, 18417, Note_off_c, 1, 37, 89
1, 18417, Control_c, 3, 1, 31
1, 18432, Note_on_c, 0, 27, 115
1, 18432, Note_on_c, 1, 27, 88
1, 18432, Note_on_c, 1, 29, 97
1, 18432, Note_on_c, 2, 39, 127
1, 18432, Note_on_c, 9, 36, 127
1, 18432, Note_on_c, 9, 42, 115
1, 18433, Control_c, 3, 1, 34
1, 18441, Note_off_c, 9, 42, 115
1, 18441, Note_off_c, 9, 36, 127
1, 18445, Note_off_c, 1, 29, 97
1, 18457, Control_c, 3, 1, 35
1, 18473, Control_c, 3, 1, 37
1, 18495, Control_c, 3, 1, 38
1, 18523, Control_c, 3, 1, 39
1, 18531, Note_off_c, 0, 27, 115
1, 18543, Control_c, 3, 1, 37
1, 18560, Note_on_c, 0, 39, 93
1, 18571, Control_c, 3, 1, 38
1, 18585, Note_off_c, 2, 39, 127
1, 18585, Control_c, 3, 1, 39
1, 18587, Note_off_c, 0, 39, 93
1, 18595, Control_c, 3, 1, 44
1, 18619, Control_c, 3, 1, 46
1, 18623, Note_off_c, 3, 56, 127
1, 18624, Note_on_c, 0, 54, 121
1, 18624, Note_on_c, 0, 49, 112
1, 18624, Note_on_c, 1, 39, 107
1, 18624, Note_on_c, 2, 51, 117
1, 18624, Note_on_c, 3, 54, 118
1, 18624, Note_on_c, 5, 49, 118
1, 18624, Note_on_c, 9, 42, 57
1, 18631, Note_off_c, 1, 27, 88
1, 18633, Note_off_c, 9, 42, 57
1, 18641, Note_off_c, 5, 49, 118
1, 18647, Control_c, 3, 1, 55
1, 18653, Control_c, 3, 1, 58
1, 18659, Note_off_c, 0, 49, 112
1, 18667, Note_off_c, 0, 54, 121
1, 18675, Note_off_c, 2, 51, 117
1, 18679, Control_c, 3, 1, 57
1, 18687, Control_c, 3, 1, 53
1, 18697, Note_off_c, 1, 39, 107
1, 18703, Control_c, 3, 1, 52
1, 18723, Control_c, 3, 1, 54
1, 18749, Note_off_c, 3, 54, 118
1, 18749, Control_c, 3, 1, 52
1, 18752, Note_on_c, 1, 27, 69
1, 18752, Note_on_c, 2, 39, 75
1, 18761, Control_c, 3, 1, 41
1, 18763, Note_off_c, 2, 39, 75
1, 18771, Note_off_c, 1, 27, 69
1, 18777, Control_c, 3, 1, 12
1, 18797, Control_c, 3, 1, 2
1, 18811, Control_c, 3, 1, 0
1, 18816, Note_on_c, 0, 49, 96
1, 18816, Note_on_c, 1, 37, 101
1, 18816, Note_on_c, 2, 49, 112
1, 18816, Note_on_c, 5, 51, 118
1, 18816, Note_on_c, 9, 39, 124
1, 18816, Note_on_c, 9, 40, 127
1, 18816, Note_on_c, 9, 42, 126
1, 18816, Note_on_c, 9, 36, 127
1, 18825, Note_off_c, 9, 36, 127
1, 18825, Note_off_c, 9, 42, 126
1, 18825, Note_off_c, 9, 40, 127
1, 18825, Note_off_c, 9, 39, 124
1, 18839, Note_off_c, 5, 51, 118
1, 18843, Note_off_c, 0, 49, 96
1, 18895, Note_off_c, 2, 49, 112
1, 18919, Note_off_c, 1, 37, 101
1, 18944, Note_on_c, 1, 39, 90
1, 18944, Note_on_c, 2, 51, 92
1, 18975, Note_off_c, 2, 51, 92
1, 18987, Note_off_c, 1, 39, 90
1, 19008, Note_on_c, 0, 54, 127
1, 19008, Note_on_c, 0, 49, 120
1, 19008, Note_on_c, 1, 27, 98
1, 19008, Note_on_c, 2, 39, 127
1, 19008, Note_on_c, 5, 49, 113
1, 19008, Note_on_c, 9, 42, 66
1, 19017, Note_off_c, 9, 42, 66
1, 19021, Note_off_c, 5, 49, 113
1, 19043, Note_off_c, 2, 39, 127
1, 19043, Note_off_c, 0, 49, 120
1, 19057, Note_off_c, 0, 54, 127
1, 19141, Note_off_c, 1, 27, 98
1, 19200, Note_on_c, 1, 30, 118
1, 19200, Note_on_c, 2, 54, 108
1, 19200, Note_on_c, 2, 49, 108
1, 19200, Note_on_c, 5, 51, 127
1, 19200, Note_on_c, 9, 36, 127
1, 19200, Note_on_c, 9, 42, 110
1, 19209, Note_off_c, 9, 42, 110
1, 19209, Note_off_c, 9, 36, 127
1, 19227, Note_off_c, 5, 51, 127
1, 19229, Note_off_c, 2, 54, 108
1, 19247, Note_off_c, 2, 49, 108
1, 19287, Note_off_c, 1, 30, 118
1, 19328, Note_on_c, 0, 39, 93
1, 19328, Note_on_c, 1, 32, 79
1, 19353, Note_off_c, 0, 39, 93
1, 19387, Note_off_c, 1, 32, 79
1, 19392, Note_on_c, 1, 34, 93
1, 19392, Note_on_c, 5, 49, 123
1, 19392, Note_on_c, 9, 42, 76
1, 19401, Note_off_c, 9, 42, 76
1, 19409, Note_off_c, 5, 49, 123
1, 19465, Note_off_c, 1, 34, 93
1, 19520, Note_on_c, 0, 51, 124
1, 19520, Note_on_c, 1, 37, 102
1, 19520, Note_on_c, 2, 54, 108
1, 19520, Note_on_c, 2, 49, 110
1, 19520, Note_on_c, 9, 46, 91
1, 19529, Note_off_c, 9, 46, 91
1, 19563, Note_off_c, 2, 54, 108
1, 19565, Note_off_c, 0, 51, 124
1, 19567, Note_off_c, 2, 49, 110
1, 19584, Note_on_c, 5, 54, 127
1, 19584, Note_on_c, 9, 39, 127
1, 19584, Note_on_c, 9, 40, 127
1, 19584, Note_on_c, 9, 42, 105
1, 19584, Note_on_c, 9, 36, 127
1, 19593, Note_off_c, 9, 36, 127
1, 19593, Note_off_c, 9, 42, 105
1, 19593, Note_off_c, 9, 40, 127
1, 19593, Note_off_c, 9, 39, 127
1, 19671, Note_off_c, 5, 54, 127
1, 19685, Note_off_c, 1, 37, 102
1, 19712, Note_on_c, 0, 39, 99
1, 19712, Note_on_c, 1, 34, 87
1, 19712, Note_on_c, 5, 51, 111
1, 19753, Note_off_c, 5, 51, 111
1, 19755, Note_off_c, 0, 39, 99
1, 19763, Note_off_c, 1, 34, 87
1, 19776, Note_on_c, 0, 49, 119
1, 19776, Note_on_c, 1, 39, 101
1, 19776, Note_on_c, 2, 54, 112
1, 19776, Note_on_c, 2, 49, 112
1, 19776, Note_on_c, 5, 56, 117
1, 19776, Note_on_c, 9, 42, 87
1, 19785, Note_off_c, 9, 42, 87
1, 19833, Note_off_c, 0, 49, 119
1, 19849, Note_off_c, 5, 56, 117
1, 19861, Note_off_c, 1, 39, 101
1, 19904, Note_on_c, 0, 51, 110
1, 19904, Note_on_c, 1, 39, 87
1, 19904, Note_on_c, 5, 54, 127
1, 19937, Note_off_c, 0, 51, 110
1, 19955, Note_off_c, 2, 54, 112
1, 19968, Note_on_c, 0, 27, 118
1, 19968, Note_on_c, 1, 27, 107
1, 19968, Note_on_c, 2, 39, 111
1, 19968, Note_on_c, 9, 42, 84
1, 19968, Note_on_c, 9, 36, 127
1, 19977, Note_off_c, 9, 36, 127
1, 19977, Note_off_c, 9, 42, 84
1, 19977, Note_off_c, 2, 49, 112
1, 19989, Note_off_c, 1, 39, 87
1, 20075, Note_off_c, 0, 27, 118
1, 20085, Note_off_c, 2, 39, 111
1, 20143, Note_off_c, 1, 27, 107
1, 20143, Note_off_c, 5, 54, 127
1, 20160, Note_on_c, 0, 49, 117
1, 20160, Note_on_c, 0, 54, 123
1, 20160, Note_on_c, 1, 39, 107
1, 20160, Note_on_c, 2, 51, 114
1, 20160, Note_on_c, 5, 51, 127
1, 20160, Note_on_c, 9, 42, 78
1, 20169, Note_off_c, 9, 42, 78
1, 20181, Note_off_c, 0, 54, 123
1, 20203, Note_off_c, 0, 49, 117
1, 20209, Note_off_c, 5, 51, 127
1, 20213, Note_off_c, 2, 51, 114
1, 20229, Note_off_c, 1, 39, 107
1, 20288, Note_on_c, 1, 27, 72
1, 20325, Note_off_c, 1, 27, 72
1, 20352, Note_on_c, 0, 54, 127
1, 20352, Note_on_c, 0, 49, 121
1, 20352, Note_on_c, 1, 37, 102
1, 20352, Note_on_c, 2, 49, 121
1, 20352, Note_on_c, 5, 49, 127
1, 20352, Note_on_c, 9, 39, 127
1, 20352, Note_on_c, 9, 42, 120
1, 20352, Note_on_c, 9, 40, 126
1, 20352, Note_on_c, 9, 36, 127
1, 20361, Note_off_c, 9, 36, 127
1, 20361, Note_off_c, 9, 40, 126
1, 20361, Note_off_c, 9, 42, 120
1, 20361, Note_off_c, 9, 39, 127
1, 20377, Note_off_c, 5, 49, 127
1, 20379, Note_off_c, 0, 49, 121
1, 20391, Note_off_c, 0, 54, 127
1, 20461, Note_off_c, 1, 37, 102
1, 20480, Note_on_c, 1, 39, 101
1, 20489, Note_off_c, 2, 49, 121
1, 20537, Note_off_c, 1, 39, 101
1, 20544, Note_on_c, 2, 51, 110
1, 20544, Note_on_c, 5, 51, 127
1, 20544, Note_on_c, 9, 42, 70
1, 20544, Note_on_c, 9, 36, 127
1, 20553, Note_off_c, 9, 36, 127
1, 20553, Note_off_c, 9, 42, 70
1, 20597, Note_off_c, 5, 51, 127
1, 20601, Note_off_c, 2, 51, 110
1, 20733, Control_c, 3, 1, 3
1, 20736, Note_on_c, 0, 54, 123
1, 20736, Note_on_c, 0, 49, 114
1, 20736, Note_on_c, 1, 44, 102
1, 20736, Note_on_c, 2, 44, 110
1, 20736, Note_on_c, 5, 56, 127
1, 20736, Note_on_c, 9, 42, 113
1, 20736, Note_on_c, 9, 36, 127
1, 20740, Note_on_c, 3, 61, 127
1, 20741, Control_c, 3, 1, 7
1, 20741, Pitch_bend_c, 5, 8672
1, 20745, Note_off_c, 9, 36, 127
1, 20745, Note_off_c, 9, 42, 113
1, 20749, Pitch_bend_c, 5, 9120
1, 20759, Note_off_c, 0, 49, 114
1, 20759, Control_c, 3, 1, 26
1, 20767, Pitch_bend_c, 5, 11744
1, 20769, Pitch_bend_c, 1, 9024
1, 20771, Note_off_c, 0, 54, 123
1, 20777, Pitch_bend_c, 1, 11456
1, 20777, Pitch_bend_c, 5, 13248
1, 20779, Control_c, 3, 1, 31
1, 20793, Pitch_bend_c, 5, 13792
1, 20795, Note_off_c, 2, 44, 110
1, 20795, Control_c, 3, 1, 35
1, 20799, Pitch_bend_c, 1, 13472
1, 20805, Pitch_bend_c, 1, 14144
1, 20805, Pitch_bend_c, 5, 13920
1, 20819, Pitch_bend_c, 5, 13408
1, 20821, Pitch_bend_c, 1, 14336
1, 20827, Note_off_c, 3, 61, 127
1, 20827, Control_c, 3, 1, 33
1, 20829, Note_off_c, 1, 44, 102
1, 20831, Note_off_c, 5, 56, 127
1, 20833, Pitch_bend_c, 1, 13888
1, 20835, Pitch_bend_c, 5, 12768
1, 20847, Control_c, 3, 1, 31
1, 20853, Pitch_bend_c, 1, 12640
1, 20853, Pitch_bend_c, 5, 11968
1, 20858, Note_on_c, 3, 63, 120
1, 20861, Pitch_bend_c, 1, 10912
1, 20861, Pitch_bend_c, 5, 11296
1, 20875, Pitch_bend_c, 1, 8736
1, 20875, Control_c, 3, 1, 26
1, 20877, Pitch_bend_c, 5, 10912
1, 20883, Control_c, 3, 1, 21
1, 20889, Pitch_bend_c, 5, 10464
1, 20893, Pitch_bend_c, 1, 8320
1, 20895, Pitch_bend_c, 1, 8192
1, 20901, Note_off_c, 3, 63, 120
1, 20903, Pitch_bend_c, 5, 9248
1, 20905, Control_c, 3, 1, 16
1, 20919, Control_c, 3, 1, 14
1, 20919, Pitch_bend_c, 5, 8384
1, 20928, Note_on_c, 1, 42, 100
1, 20928, Note_on_c, 2, 45, 105
1, 20928, Note_on_c, 5, 56, 127
1, 20928, Note_on_c, 9, 42, 75
1, 20931, Pitch_bend_c, 5, 8192
1, 20937, Note_off_c, 9, 42, 75
1, 20939, Control_c, 3, 1, 17
1, 20955, Control_c, 3, 1, 20
1, 20973, Control_c, 3, 1, 24
1, 20975, Pitch_bend_c, 1, 9696
1, 20989, Pitch_bend_c, 1, 11872
1, 20997, Control_c, 3, 1, 30
1, 21001, Pitch_bend_c, 1, 15264
1, 21009, Control_c, 3, 1, 35
1, 21013, Note_off_c, 5, 56, 127
1, 21015, Pitch_bend_c, 1, 16383
1, 21023, Note_off_c, 2, 45, 105
1, 21025, Control_c, 3, 1, 39
1, 21037, Note_off_c, 1, 42, 100
1, 21048, Note_on_c, 3, 63, 127
1, 21056, Note_on_c, 0, 49, 89
1, 21056, Note_on_c, 2, 46, 98
1, 21056, Note_on_c, 5, 54, 97
1, 21057, Control_c, 3, 1, 47
1, 21063, Pitch_bend_c, 1, 14656
1, 21065, Control_c, 3, 1, 53
1, 21067, Note_off_c, 0, 49, 89
1, 21077, Pitch_bend_c, 1, 12256
1, 21083, Note_off_c, 5, 54, 97
1, 21087, Pitch_bend_c, 1, 8864
1, 21099, Pitch_bend_c, 1, 8352
1, 21099, Control_c, 3, 1, 49
1, 21105, Note_off_c, 3, 63, 127
1, 21107, Pitch_bend_c, 1, 8192
1, 21117, Control_c, 3, 1, 47
1, 21120, Note_on_c, 1, 42, 109
1, 21120, Note_on_c, 5, 56, 124
1, 21120, Note_on_c, 9, 39, 124
1, 21120, Note_on_c, 9, 42, 127
1, 21120, Note_on_c, 9, 40, 127
1, 21120, Note_on_c, 9, 36, 127
1, 21127, Note_off_c, 2, 46, 98
1, 21129, Note_off_c, 9, 36, 127
1, 21129, Note_off_c, 9, 40, 127
1, 21129, Note_off_c, 9, 42, 127
1, 21129, Note_off_c, 9, 39, 124
1, 21133, Control_c, 3, 1, 44
1, 21159, Control_c, 3, 1, 46
1, 21169, Control_c, 3, 1, 53
1, 21201, Control_c, 3, 1, 54
1, 21203, Note_off_c, 5, 56, 124
1, 21213, Control_c, 3, 1, 55
1, 21236, Note_on_c, 3, 63, 126
1, 21243, Control_c, 3, 1, 16
1, 21248, Note_on_c, 2, 49, 110
1, 21248, Note_on_c, 5, 54, 122
1, 21261, Control_c, 3, 1, 1
1, 21281, Control_c, 3, 1, 0
1, 21285, Control_c, 1, 1, 10
1, 21291, Note_off_c, 1, 42, 109
1, 21297, Note_off_c, 3, 63, 126
1, 21301, Note_off_c, 5, 54, 122
1, 21301, Control_c, 1, 1, 24
1, 21312, Note_on_c, 0, 54, 121
1, 21312, Note_on_c, 0, 49, 93
1, 21312, Note_on_c, 1, 39, 97
1, 21312, Note_on_c, 5, 51, 116
1, 21312, Note_on_c, 9, 42, 82
1, 21319, Control_c, 1, 1, 10
1, 21321, Note_off_c, 9, 42, 82
1, 21321, Note_off_c, 2, 49, 110
1, 21327, Note_off_c, 0, 49, 93
1, 21331, Control_c, 1, 1, 5
1, 21343, Note_off_c, 5, 51, 116
1, 21347, Note_off_c, 0, 54, 121
1, 21351, Control_c, 1, 1, 0
1, 21369, Pitch_bend_c, 3, 7296
1, 21379, Pitch_bend_c, 3, 3392
1, 21393, Note_off_c, 1, 39, 97
1, 21395, Pitch_bend_c, 3, 960
1, 21424, Note_on_c, 3, 66, 127
1, 21425, Pitch_bend_c, 3, 3456
1, 21439, Pitch_bend_c, 3, 7808
1, 21440, Note_on_c, 0, 49, 107
1, 21440, Note_on_c, 1, 37, 90
1, 21440, Note_on_c, 2, 51, 117
1, 21440, Note_on_c, 5, 54, 127
1, 21455, Pitch_bend_c, 3, 8128
1, 21459, Pitch_bend_c, 3, 8192
1, 21467, Note_off_c, 0, 49, 107
1, 21479, Note_off_c, 2, 51, 117
1, 21479, Note_off_c, 1, 37, 90
1, 21491, Note_off_c, 5, 54, 127
1, 21504, Note_on_c, 0, 27, 117
1, 21504, Note_on_c, 1, 27, 105
1, 21504, Note_on_c, 2, 39, 127
1, 21504, Note_on_c, 9, 36, 127
1, 21504, Note_on_c, 9, 49, 84
1, 21513, Note_off_c, 9, 49, 84
1, 21513, Note_off_c, 9, 36, 127
1, 21595, Control_c, 3, 1, 3
1, 21603, Control_c, 3, 1, 7
1, 21619, Control_c, 3, 1, 14
1, 21639, Control_c, 3, 1, 24
1, 21645, Note_off_c, 2, 39, 127
1, 21655, Note_off_c, 1, 27, 105
1, 21655, Control_c, 3, 1, 32
1, 21673, Control_c, 3, 1, 42
1, 21693, Control_c, 3, 1, 49
1, 21696, Note_on_c, 0, 54, 118
1, 21696, Note_on_c, 0, 49, 113
1, 21696, Note_on_c, 1, 39, 98
1, 21696, Note_on_c, 2, 51, 115
1, 21696, Note_on_c, 5, 49, 127
1, 21696, Note_on_c, 9, 42, 77
1, 21705, Note_off_c, 9, 42, 77
1, 21709, Control_c, 3, 1, 54
1, 21715, Note_off_c, 0, 27, 117
1, 21723, Note_off_c, 0, 49, 113
1, 21729, Note_off_c, 5, 49, 127
1, 21729, Control_c, 3, 1, 19
1, 21735, Note_off_c, 0, 54, 118
1, 21747, Note_off_c, 2, 51, 115
1, 21749, Control_c, 3, 1, 0
1, 21761, Note_off_c, 1, 39, 98
1, 21781, Note_off_c, 3, 66, 127
1, 21824, Note_on_c, 1, 27, 61
1, 21839, Pitch_bend_c, 3, 7936
1, 21847, Pitch_bend_c, 3, 5952
1, 21855, Pitch_bend_c, 3, 2688
1, 21857, Note_off_c, 1, 27, 61
1, 21873, Pitch_bend_c, 3, 448
1, 21884, Note_on_c, 3, 63, 127
1, 21888, Note_on_c, 0, 54, 127
1, 21888, Note_on_c, 0, 49, 124
1, 21888, Note_on_c, 1, 37, 92
1, 21888, Note_on_c, 2, 49, 106
1, 21888, Note_on_c, 5, 51, 127
1, 21888, Note_on_c, 9, 39, 126
1, 21888, Note_on_c, 9, 40, 127
1, 21888, Note_on_c, 9, 42, 122
1, 21888, Note_on_c, 9, 36, 127
1, 21895, Pitch_bend_c, 3, 960
1, 21897, Note_off_c, 9, 36, 127
1, 21897, Note_off_c, 9, 42, 122
1, 21897, Note_off_c, 9, 40, 127
1, 21897, Note_off_c, 9, 39, 126
1, 21899, Pitch_bend_c, 3, 2240
1, 21911, Pitch_bend_c, 3, 4032
1, 21925, Pitch_bend_c, 3, 5696
1, 21929, Note_off_c, 0, 49, 124
1, 21931, Note_off_c, 5, 51, 127
1, 21939, Note_off_c, 0, 54, 127
1, 21941, Pitch_bend_c, 3, 7424
1, 21957, Pitch_bend_c, 3, 8128
1, 21965, Pitch_bend_c, 3, 8192
1, 21987, Note_off_c, 1, 37, 92
1, 22001, Note_off_c, 2, 49, 106
1, 22016, Note_on_c, 1, 39, 90
1, 22016, Note_on_c, 2, 51, 88
1, 22055, Note_off_c, 2, 51, 88
1, 22065, Note_off_c, 1, 39, 90
1, 22080, Note_on_c, 0, 39, 107
1, 22080, Note_on_c, 1, 27, 97
1, 22080, Note_on_c, 2, 39, 111
1, 22080, Note_on_c, 5, 49, 113
1, 22080, Note_on_c, 9, 42, 62
1, 22089, Note_off_c, 9, 42, 62
1, 22097, Note_off_c, 5, 49, 113
1, 22105, Note_off_c, 2, 39, 111
1, 22119, Control_c, 3, 1, 1
1, 22123, Control_c, 3, 1, 7
1, 22131, Note_off_c, 0, 39, 107
1, 22143, Control_c, 3, 1, 14
1, 22159, Control_c, 3, 1, 27
1, 22179, Control_c, 3, 1, 34
1, 22195, Control_c, 3, 1, 40
1, 22215, Control_c, 3, 1, 50
1, 22219, Note_off_c, 1, 27, 97
1, 22235, Control_c, 3, 1, 56
1, 22251, Control_c, 3, 1, 60
1, 22267, Control_c, 3, 1, 63
1, 22272, Note_on_c, 1, 30, 104
1, 22272, Note_on_c, 2, 54, 112
1, 22272, Note_on_c, 2, 49, 107
1, 22272, Note_on_c, 5, 51, 127
1, 22272, Note_on_c, 9, 42, 117
1, 22272, Note_on_c, 9, 36, 127
1, 22281, Note_off_c, 9, 36, 127
1, 22281, Note_off_c, 9, 42, 117
1, 22287, Control_c, 3, 1, 65
1, 22295, Note_off_c, 2, 54, 112
1, 22303, Control_c, 3, 1, 67
1, 22311, Note_off_c, 2, 49, 107
1, 22319, Note_off_c, 5, 51, 127
1, 22339, Control_c, 3, 1, 69
1, 22355, Note_off_c, 1, 30, 104
1, 22363, Control_c, 3, 1, 71
1, 22387, Control_c, 3, 1, 73
1, 22395, Control_c, 3, 1, 75
1, 22400, Note_on_c, 1, 32, 74
1, 22415, Control_c, 3, 1, 63
1, 22431, Control_c, 3, 1, 27
1, 22447, Note_off_c, 3, 63, 127
1, 22451, Control_c, 3, 1, 1
1, 22464, Note_on_c, 1, 34, 93
1, 22464, Note_on_c, 2, 39, 88
1, 22464, Note_on_c, 5, 49, 118
1, 22464, Note_on_c, 9, 42, 63
1, 22465, Note_off_c, 1, 32, 74
1, 22467, Control_c, 3, 1, 0
1, 22468, Note_on_c, 3, 61, 102
1, 22473, Note_off_c, 9, 42, 63
1, 22477, Note_off_c, 2, 39, 88
1, 22481, Note_off_c, 5, 49, 118
1, 22507, Note_off_c, 3, 61, 102
1, 22525, Note_off_c, 1, 34, 93
1, 22536, Note_on_c, 3, 58, 100
1, 22577, Note_off_c, 3, 58, 100
1, 22592, Note_on_c, 0, 49, 115
1, 22592, Note_on_c, 1, 37, 98
1, 22592, Note_on_c, 2, 51, 115
1, 22619, Pitch_bend_c, 3, 8000
1, 22627, Note_off_c, 2, 51, 115
1, 22627, Pitch_bend_c, 3, 4800
1, 22629, Note_off_c, 0, 49, 115
1, 22641, Pitch_bend_c, 3, 2240
1, 22656, Note_on_c, 5, 54, 127
1, 22656, Note_on_c, 9, 39, 122
1, 22656, Note_on_c, 9, 40, 127
1, 22656, Note_on_c, 9, 42, 126
1, 22656, Note_on_c, 9, 36, 127
1, 22657, Pitch_bend_c, 3, 1408
1, 22658, Note_on_c, 3, 63, 127
1, 22665, Note_off_c, 9, 36, 127
1, 22665, Note_off_c, 9, 42, 126
1, 22665, Note_off_c, 9, 40, 127
1, 22665, Note_off_c, 9, 39, 122
1, 22679, Pitch_bend_c, 3, 1024
1, 22687, Pitch_bend_c, 3, 2112
1, 22695, Pitch_bend_c, 3, 3776
1, 22709, Pitch_bend_c, 3, 6400
1, 22723, Pitch_bend_c, 3, 8064
1, 22737, Pitch_bend_c, 3, 8192
1, 22747, Note_off_c, 5, 54, 127
1, 22767, Note_off_c, 1, 37, 98
1, 22784, Note_on_c, 0, 39, 97
1, 22784, Note_on_c, 1, 34, 88
1, 22784, Note_on_c, 2, 39, 94
1, 22784, Note_on_c, 5, 51, 113
1, 22795, Note_off_c, 2, 39, 94
1, 22827, Note_off_c, 5, 51, 113
1, 22833, Note_off_c, 1, 34, 88
1, 22835, Note_off_c, 0, 39, 97
1, 22848, Note_on_c, 0, 51, 124
1, 22848, Note_on_c, 1, 39, 100
1, 22848, Note_on_c, 2, 49, 108
1, 22848, Note_on_c, 5, 56, 125
1, 22848, Note_on_c, 9, 42, 64
1, 22851, Control_c, 3, 1, 1
1, 22857, Note_off_c, 9, 42, 64
1, 22861, Control_c, 3, 1, 16
1, 22885, Control_c, 3, 1, 22
1, 22897, Control_c, 3, 1, 30
1, 22913, Note_off_c, 5, 56, 125
1, 22917, Control_c, 3, 1, 39
1, 22929, Note_off_c, 1, 39, 100
1, 22933, Control_c, 3, 1, 53
1, 22953, Control_c, 3, 1, 63
1, 22959, Note_off_c, 2, 49, 108
1, 22961, Note_off_c, 0, 51, 124
1, 22973, Control_c, 3, 1, 72
1, 22976, Note_on_c, 0, 49, 120
1, 22976, Note_on_c, 1, 39, 97
1, 22976, Note_on_c, 2, 51, 96
1, 22976, Note_on_c, 5, 54, 127
1, 22991, Control_c, 3, 1, 78
1, 23005, Control_c, 3, 1, 82
1, 23009, Note_off_c, 2, 51, 96
1, 23019, Note_off_c, 0, 49, 120
1, 23023, Control_c, 3, 1, 86
1, 23040, Note_on_c, 0, 27, 110
1, 23040, Note_on_c, 1, 27, 104
1, 23040, Note_on_c, 2, 39, 127
1, 23040, Note_on_c, 9, 36, 127
1, 23040, Note_on_c, 9, 42, 109
1, 23043, Control_c, 3, 1, 89
1, 23045, Note_off_c, 5, 54, 127
1, 23049, Note_off_c, 9, 42, 109
1, 23049, Note_off_c, 9, 36, 127
1, 23049, Note_off_c, 1, 39, 97
1, 23067, Control_c, 3, 1, 90
1, 23081, Control_c, 3, 1, 68
1, 23091, Note_off_c, 3, 63, 127
1, 23095, Control_c, 3, 1, 25
1, 23101, Note_off_c, 2, 39, 127
1, 23113, Control_c, 3, 1, 0
1, 23123, Note_off_c, 0, 27, 110
1, 23168, Note_on_c, 0, 39, 98
1, 23203, Note_off_c, 1, 27, 104
1, 23215, Note_off_c, 0, 39, 98
1, 23232, Note_on_c, 0, 54, 127
1, 23232, Note_on_c, 0, 49, 108
1, 23232, Note_on_c, 1, 39, 104
1, 23232, Note_on_c, 2, 51, 127
1, 23232, Note_on_c, 5, 49, 127
1, 23232, Note_on_c, 9, 42, 67
1, 23241, Note_off_c, 9, 42, 67
1, 23253, Note_off_c, 0, 49, 108
1, 23263, Note_off_c, 5, 49, 127
1, 23273, Note_off_c, 0, 54, 127
1, 23277, Note_off_c, 2, 51, 127
1, 23291, Note_off_c, 1, 39, 104
1, 23360, Note_on_c, 1, 27, 79
1, 23395, Note_off_c, 1, 27, 79
1, 23424, Note_on_c, 0, 54, 127
1, 23424, Note_on_c, 0, 49, 123
1, 23424, Note_on_c, 1, 37, 96
1, 23424, Note_on_c, 2, 49, 115
1, 23424, Note_on_c, 5, 51, 127
1, 23424, Note_on_c, 9, 39, 126
1, 23424, Note_on_c, 9, 40, 127
1, 23424, Note_on_c, 9, 42, 124
1, 23424, Note_on_c, 9, 36, 127
1, 23433, Note_off_c, 9, 36, 127
1, 23433, Note_off_c, 9, 42, 124
1, 23433, Note_off_c, 9, 40, 127
1, 23433, Note_off_c, 9, 39, 126
1, 23461, Note_off_c, 0, 49, 123
1, 23475, Note_off_c, 0, 54, 127
1, 23511, Note_off_c, 5, 51, 127
1, 23545, Note_off_c, 2, 49, 115
1, 23552, Note_on_c, 1, 39, 98
1, 23552, Note_on_c, 2, 51, 94
1, 23552, Note_on_c, 5, 49, 111
1, 23555, Note_off_c, 1, 37, 96
1, 23571, Note_off_c, 5, 49, 111
1, 23593, Note_off_c, 2, 51, 94
1, 23616, Note_on_c, 0, 39, 105
1, 23616, Note_on_c, 2, 39, 108
1, 23616, Note_on_c, 5, 51, 127
1, 23616, Note_on_c, 9, 42, 73
1, 23625, Note_off_c, 9, 42, 73
1, 23625, Note_off_c, 1, 39, 98
1, 23641, Control_c, 3, 1, 3
1, 23653, Control_c, 3, 1, 8
1, 23655, Note_off_c, 2, 39, 108
1, 23661, Note_off_c, 5, 51, 127
1, 23661, Note_off_c, 0, 39, 105
1, 23673, Control_c, 3, 1, 15
1, 23693, Control_c, 3, 1, 12
1, 23713, Control_c, 3, 1, 7
1, 23734, Note_on_c, 3, 58, 122
1, 23744, Note_on_c, 1, 37, 77
1, 23745, Control_c, 3, 1, 7
1, 23761, Control_c, 3, 1, 0
1, 23765, Note_off_c, 3, 58, 122
1, 23781, Note_off_c, 1, 37, 77
1, 23808, Note_on_c, 0, 54, 118
1, 23808, Note_on_c, 0, 49, 114
1, 23808, Note_on_c, 1, 44, 105
1, 23808, Note_on_c, 2, 46, 117
1, 23808, Note_on_c, 2, 45, 120
1, 23808, Note_on_c, 5, 54, 127
1, 23808, Note_on_c, 9, 36, 127
1, 23808, Note_on_c, 9, 42, 107
1, 23816, Note_on_c, 3, 61, 127
1, 23817, Note_off_c, 9, 42, 107
1, 23817, Note_off_c, 9, 36, 127
1, 23829, Pitch_bend_c, 1, 11264
1, 23831, Note_off_c, 0, 49, 114
1, 23837, Note_off_c, 0, 54, 118
1, 23843, Note_off_c, 2, 45, 120
1, 23843, Pitch_bend_c, 1, 16383
1, 23853, Note_off_c, 3, 61, 127
1, 23859, Note_off_c, 5, 54, 127
1, 23881, Pitch_bend_c, 3, 7808
1, 23887, Pitch_bend_c, 3, 4608
1, 23901, Note_off_c, 1, 44, 105
1, 23901, Pitch_bend_c, 3, 2496
1, 23915, Pitch_bend_c, 3, 2240
1, 23925, Pitch_bend_c, 1, 16288
1, 23929, Pitch_bend_c, 1, 14752
1, 23930, Note_on_c, 3, 56, 127
1, 23941, Pitch_bend_c, 1, 11360
1, 23947, Pitch_bend_c, 3, 7936
1, 23955, Pitch_bend_c, 1, 8448
1, 23957, Pitch_bend_c, 3, 8192
1, 23967, Note_off_c, 2, 46, 117
1, 23973, Pitch_bend_c, 1, 8192
1, 24000, Note_on_c, 1, 42, 107
1, 24000, Note_on_c, 2, 49, 87
1, 24000, Note_on_c, 5, 51, 108
1, 24000, Note_on_c, 9, 42, 78
1, 24000, Note_on_c, 9, 36, 127
1, 24009, Note_off_c, 9, 36, 127
1, 24009, Note_off_c, 9, 42, 78
1, 24045, Note_off_c, 5, 51, 108
1, 24059, Control_c, 3, 1, 2
1, 24067, Control_c, 3, 1, 12
1, 24081, Note_off_c, 2, 49, 87
1, 24089, Control_c, 3, 1, 22
1, 24091, Note_off_c, 1, 42, 107
1, 24109, Control_c, 3, 1, 29
1, 24121, Control_c, 3, 1, 36
1, 24128, Note_on_c, 0, 56, 123
1, 24128, Note_on_c, 0, 51, 118
1, 24128, Note_on_c, 2, 45, 109
1, 24128, Note_on_c, 2, 46, 92
1, 24139, Note_off_c, 3, 56, 127
1, 24141, Control_c, 3, 1, 42
1, 24161, Control_c, 3, 1, 44
1, 24175, Note_off_c, 2, 46, 92
1, 24190, Note_on_c, 3, 56, 127
1, 24192, Note_on_c, 1, 42, 100
1, 24192, Note_on_c, 2, 44, 85
1, 24192, Note_on_c, 5, 56, 127
1, 24192, Note_on_c, 9, 39, 127
1, 24192, Note_on_c, 9, 40, 127
1, 24192, Note_on_c, 9, 42, 127
1, 24192, Note_on_c, 9, 36, 127
1, 24197, Note_off_c, 2, 45, 109
1, 24201, Note_off_c, 9, 36, 127
1, 24201, Note_off_c, 9, 42, 127
1, 24201, Note_off_c, 9, 40, 127
1, 24201, Note_off_c, 9, 39, 127
1, 24213, Control_c, 3, 1, 55
1, 24231, Control_c, 3, 1, 63
1, 24249, Control_c, 3, 1, 67
1, 24273, Note_off_c, 5, 56, 127
1, 24273, Control_c, 3, 1, 69
1, 24297, Note_off_c, 2, 44, 85
1, 24297, Control_c, 3, 1, 70
1, 24301, Note_off_c, 0, 51, 118
1, 24301, Control_c, 3, 1, 72
1, 24320, Note_on_c, 0, 39, 102
1, 24320, Note_on_c, 2, 42, 95
1, 24320, Note_on_c, 5, 54, 114
1, 24335, Control_c, 3, 1, 71
1, 24339, Control_c, 3, 1, 67
1, 24343, Note_off_c, 0, 56, 123
1, 24355, Control_c, 3, 1, 51
1, 24359, Note_off_c, 1, 42, 100
1, 24363, Note_off_c, 5, 54, 114
1, 24363, Note_off_c, 3, 56, 127
1, 24365, Note_off_c, 2, 42, 95
1, 24375, Note_off_c, 0, 39, 102
1, 24377, Control_c, 3, 1, 36
1, 24384, Note_on_c, 0, 54, 123
1, 24384, Note_on_c, 0, 49, 112
1, 24384, Note_on_c, 1, 39, 93
1, 24384, Note_on_c, 2, 44, 95
1, 24384, Note_on_c, 5, 51, 112
1, 24384, Note_on_c, 9, 42, 71
1, 24384, Note_on_c, 9, 36, 127
1, 24391, Control_c, 3, 1, 29
1, 24393, Note_off_c, 9, 36, 127
1, 24393, Note_off_c, 9, 42, 71
1, 24398, Note_on_c, 3, 54, 90
1, 24417, Note_off_c, 3, 54, 90
1, 24421, Note_off_c, 0, 49, 112
1, 24423, Note_off_c, 5, 51, 112
1, 24429, Note_off_c, 0, 54, 123
1, 24433, Control_c, 3, 1, 25
1, 24449, Control_c, 3, 1, 21
1, 24477, Control_c, 3, 1, 23
1, 24481, Note_off_c, 2, 44, 95
1, 24481, Control_c, 3, 1, 28
1, 24493, Note_off_c, 1, 39, 93
1, 24502, Note_on_c, 3, 56, 127
1, 24509, Control_c, 3, 1, 32
1, 24512, Note_on_c, 1, 37, 89
1, 24512, Note_on_c, 2, 42, 88
1, 24512, Note_on_c, 5, 54, 127
1, 24521, Control_c, 3, 1, 40
1, 24537, Control_c, 3, 1, 44
1, 24543, Note_off_c, 5, 54, 127
1, 24553, Note_off_c, 2, 42, 88
1, 24553, Control_c, 3, 1, 47
1, 24561, Note_off_c, 1, 37, 89
1, 24576, Note_on_c, 0, 27, 117
1, 24576, Note_on_c, 1, 27, 88
1, 24576, Note_on_c, 1, 29, 97
1, 24576, Note_on_c, 2, 39, 127
1, 24576, Note_on_c, 9, 36, 127
1, 24576, Note_on_c, 9, 42, 115
1, 24577, Control_c, 3, 1, 50
1, 24585, Note_off_c, 9, 42, 115
1, 24585, Note_off_c, 9, 36, 127
1, 24589, Note_off_c, 1, 29, 97
1, 24589, Control_c, 3, 1, 54
1, 24609, Control_c, 3, 1, 55
1, 24625, Control_c, 3, 1, 57
1, 24685, Control_c, 3, 1, 58
1, 24703, Control_c, 3, 1, 59
1, 24704, Note_on_c, 5, 51, 127
1, 24719, Control_c, 3, 1, 62
1, 24729, Note_off_c, 2, 39, 127
1, 24735, Control_c, 3, 1, 56
1, 24743, Note_off_c, 5, 51, 127
1, 24755, Control_c, 3, 1, 29
1, 24763, Note_off_c, 0, 27, 117
1, 24767, Note_off_c, 3, 56, 127
1, 24768, Note_on_c, 0, 49, 117
1, 24768, Note_on_c, 0, 54, 111
1, 24768, Note_on_c, 1, 39, 107
1, 24768, Note_on_c, 2, 51, 117
1, 24768, Note_on_c, 9, 42, 57
1, 24773, Control_c, 3, 1, 4
1, 24775, Note_off_c, 1, 27, 88
1, 24777, Note_off_c, 9, 42, 57
1, 24778, Note_on_c, 3, 54, 113
1, 24787, Note_off_c, 0, 54, 111
1, 24807, Control_c, 3, 1, 0
1, 24815, Note_off_c, 0, 49, 117
1, 24817, Note_off_c, 3, 54, 113
1, 24819, Note_off_c, 2, 51, 117
1, 24841, Note_off_c, 1, 39, 107
1, 24896, Note_on_c, 1, 27, 69
1, 24896, Note_on_c, 2, 39, 75
1, 24896, Note_on_c, 5, 54, 127
1, 24907, Note_off_c, 2, 39, 75
1, 24915, Note_off_c, 1, 27, 69
1, 24941, Note_off_c, 5, 54, 127
1, 24960, Note_on_c, 1, 37, 101
1, 24960, Note_on_c, 2, 49, 112
1, 24960, Note_on_c, 9, 39, 124
1, 24960, Note_on_c, 9, 40, 127
1, 24960, Note_on_c, 9, 42, 126
1, 24960, Note_on_c, 9, 36, 127
1, 24969, Note_off_c, 9, 36, 127
1, 24969, Note_off_c, 9, 42, 126
1, 24969, Note_off_c, 9, 40, 127
1, 24969, Note_off_c, 9, 39, 124
1, 25039, Note_off_c, 2, 49, 112
1, 25063, Note_off_c, 1, 37, 101
1, 25088, Note_on_c, 0, 54, 116
1, 25088, Note_on_c, 0, 49, 107
1, 25088, Note_on_c, 1, 39, 90
1, 25088, Note_on_c, 2, 51, 92
1, 25088, Note_on_c, 5, 56, 127
1, 25107, Note_off_c, 0, 49, 107
1, 25119, Note_off_c, 2, 51, 92
1, 25119, Note_off_c, 0, 54, 116
1, 25131, Note_off_c, 1, 39, 90
1, 25137, Note_off_c, 5, 56, 127
1, 25152, Note_on_c, 0, 27, 112
1, 25152, Note_on_c, 1, 27, 98
1, 25152, Note_on_c, 2, 39, 127
1, 25152, Note_on_c, 9, 42, 66
1, 25161, Note_off_c, 9, 42, 66
1, 25187, Note_off_c, 2, 39, 127
1, 25221, Note_off_c, 0, 27, 112
1, 25280, Note_on_c, 5, 54, 127
1, 25285, Note_off_c, 1, 27, 98
1, 25325, Note_off_c, 5, 54, 127
1, 25344, Note_on_c, 1, 30, 118
1, 25344, Note_on_c, 2, 54, 108
1, 25344, Note_on_c, 2, 49, 108
1, 25344, Note_on_c, 9, 36, 127
1, 25344, Note_on_c, 9, 42, 110
1, 25353, Note_off_c, 9, 42, 110
1, 25353, Note_off_c, 9, 36, 127
1, 25373, Note_off_c, 2, 54, 108
1, 25391, Note_off_c, 2, 49, 108
1, 25431, Note_off_c, 1, 30, 118
1, 25472, Note_on_c, 0, 39, 93
1, 25472, Note_on_c, 1, 32, 79
1, 25472, Note_on_c, 5, 51, 124
1, 25503, Note_off_c, 0, 39, 93
1, 25511, Note_off_c, 5, 51, 124
1, 25531, Note_off_c, 1, 32, 79
1, 25536, Note_on_c, 0, 49, 96
1, 25536, Note_on_c, 1, 34, 93
1, 25536, Note_on_c, 9, 42, 76
1, 25545, Note_off_c, 9, 42, 76
1, 25561, Note_off_c, 0, 49, 96
1, 25609, Note_off_c, 1, 34, 93
1, 25664, Note_on_c, 1, 37, 102
1, 25664, Note_on_c, 2, 54, 108
1, 25664, Note_on_c, 2, 49, 110
1, 25664, Note_on_c, 5, 49, 123
1, 25664, Note_on_c, 9, 46, 91
1, 25673, Note_off_c, 9, 46, 91
1, 25691, Note_off_c, 5, 49, 123
1, 25707, Note_off_c, 2, 54, 108
1, 25711, Note_off_c, 2, 49, 110
1, 25728, Note_on_c, 0, 51, 127
1, 25728, Note_on_c, 9, 39, 127
1, 25728, Note_on_c, 9, 40, 127
1, 25728, Note_on_c, 9, 42, 105
1, 25728, Note_on_c, 9, 36, 127
1, 25737, Note_off_c, 9, 36, 127
1, 25737, Note_off_c, 9, 42, 105
1, 25737, Note_off_c, 9, 40, 127
1, 25737, Note_off_c, 9, 39, 127
1, 25797, Note_off_c, 0, 51, 127
1, 25829, Note_off_c, 1, 37, 102
1, 25856, Note_on_c, 0, 39, 103
1, 25856, Note_on_c, 1, 34, 87
1, 25856, Note_on_c, 5, 49, 110
1, 25875, Note_off_c, 5, 49, 110
1, 25907, Note_off_c, 1, 34, 87
1, 25915, Note_off_c, 0, 39, 103
1, 25920, Note_on_c, 0, 49, 127
1, 25920, Note_on_c, 1, 39, 101
1, 25920, Note_on_c, 2, 54, 112
1, 25920, Note_on_c, 2, 49, 112
1, 25920, Note_on_c, 5, 51, 127
1, 25920, Note_on_c, 9, 42, 87
1, 25929, Note_off_c, 9, 42, 87
1, 25969, Note_off_c, 5, 51, 127
1, 26005, Note_off_c, 1, 39, 101
1, 26029, Note_off_c, 0, 49, 127
1, 26048, Note_on_c, 0, 51, 125
1, 26048, Note_on_c, 1, 39, 87
1, 26048, Note_on_c, 5, 49, 98
1, 26061, Note_off_c, 5, 49, 98
1, 26093, Note_off_c, 0, 51, 125
1, 26099, Note_off_c, 2, 54, 112
1, 26112, Note_on_c, 0, 27, 118
1, 26112, Note_on_c, 1, 27, 107
1, 26112, Note_on_c, 2, 39, 111
1, 26112, Note_on_c, 9, 42, 84
1, 26112, Note_on_c, 9, 36, 127
1, 26121, Note_off_c, 9, 36, 127
1, 26121, Note_off_c, 9, 42, 84
1, 26121, Note_off_c, 2, 49, 112
1, 26133, Note_off_c, 1, 39, 87
1, 26229, Note_off_c, 2, 39, 111
1, 26240, Note_on_c, 5, 51, 118
1, 26273, Note_off_c, 5, 51, 118
1, 26279, Note_off_c, 0, 27, 118
1, 26287, Note_off_c, 1, 27, 107
1, 26304, Note_on_c, 0, 54, 122
1, 26304, Note_on_c, 0, 49, 88
1, 26304, Note_on_c, 1, 39, 107
1, 26304, Note_on_c, 2, 51, 114
1, 26304, Note_on_c, 9, 42, 78
1, 26313, Note_off_c, 9, 42, 78
1, 26323, Note_off_c, 0, 49, 88
1, 26345, Note_off_c, 0, 54, 122
1, 26357, Note_off_c, 2, 51, 114
1, 26373, Note_off_c, 1, 39, 107
1, 26432, Note_on_c, 1, 27, 72
1, 26432, Note_on_c, 5, 54, 121
1, 26461, Note_off_c, 5, 54, 121
1, 26469, Note_off_c, 1, 27, 72
1, 26496, Note_on_c, 0, 39, 95
1, 26496, Note_on_c, 1, 37, 102
1, 26496, Note_on_c, 2, 49, 121
1, 26496, Note_on_c, 9, 39, 127
1, 26496, Note_on_c, 9, 42, 120
1, 26496, Note_on_c, 9, 40, 126
1, 26496, Note_on_c, 9, 36, 127
1, 26505, Note_off_c, 9, 36, 127
1, 26505, Note_off_c, 9, 40, 126
1, 26505, Note_off_c, 9, 42, 120
1, 26505, Note_off_c, 9, 39, 127
1, 26557, Note_off_c, 0, 39, 95
1, 26605, Note_off_c, 1, 37, 102
1, 26624, Note_on_c, 0, 54, 121
1, 26624, Note_on_c, 0, 49, 110
1, 26624, Note_on_c, 1, 39, 101
1, 26624, Note_on_c, 5, 51, 110
1, 26633, Note_off_c, 2, 49, 121
1, 26647, Note_off_c, 5, 51, 110
1, 26649, Note_off_c, 0, 49, 110
1, 26667, Note_off_c, 0, 54, 121
1, 26681, Note_off_c, 1, 39, 101
1, 26688, Note_on_c, 0, 27, 105
1, 26688, Note_on_c, 2, 51, 110
1, 26688, Note_on_c, 5, 56, 123
1, 26688, Note_on_c, 9, 42, 70
1, 26688, Note_on_c, 9, 36, 127
1, 26697, Note_off_c, 9, 36, 127
1, 26697, Note_off_c, 9, 42, 70
1, 26731, Note_off_c, 5, 56, 123
1, 26743, Note_off_c, 0, 27, 105
1, 26745, Note_off_c, 2, 51, 110
1, 26869, Control_c, 3, 1, 1
1, 26877, Control_c, 3, 1, 9
1, 26880, Note_on_c, 0, 58, 127
1, 26880, Note_on_c, 0, 57, 127
1, 26880, Note_on_c, 0, 56, 125
1, 26880, Note_on_c, 0, 61, 118
1, 26880, Note_on_c, 1, 44, 102
1, 26880, Note_on_c, 2, 44, 110
1, 26880, Note_on_c, 5, 54, 127
1, 26880, Note_on_c, 9, 42, 113
1, 26880, Note_on_c, 9, 36, 127
1, 26889, Note_off_c, 9, 36, 127
1, 26889, Note_off_c, 9, 42, 113
1, 26890, Note_on_c, 3, 61, 127
1, 26893, Control_c, 3, 1, 11
1, 26911, Note_off_c, 0, 56, 125
1, 26913, Pitch_bend_c, 1, 9760
1, 26915, Control_c, 3, 1, 18
1, 26919, Note_off_c, 0, 57, 127
1, 26925, Pitch_bend_c, 1, 11456
1, 26929, Control_c, 3, 1, 23
1, 26933, Note_off_c, 5, 54, 127
1, 26939, Note_off_c, 2, 44, 110
1, 26943, Pitch_bend_c, 1, 13824
1, 26951, Control_c, 3, 1, 26
1, 26953, Pitch_bend_c, 1, 14144
1, 26965, Pitch_bend_c, 1, 14208
1, 26967, Control_c, 3, 1, 28
1, 26973, Note_off_c, 1, 44, 102
1, 26985, Pitch_bend_c, 1, 13888
1, 26989, Note_off_c, 0, 58, 127
1, 26997, Pitch_bend_c, 1, 12160
1, 27007, Control_c, 3, 1, 29
1, 27011, Pitch_bend_c, 1, 10176
1, 27019, Control_c, 3, 1, 32
1, 27023, Pitch_bend_c, 1, 8736
1, 27037, Pitch_bend_c, 1, 8320
1, 27039, Pitch_bend_c, 1, 8192
1, 27041, Note_off_c, 3, 61, 127
1, 27047, Control_c, 3, 1, 29
1, 27057, Control_c, 3, 1, 25
1, 27072, Note_on_c, 0, 56, 111
1, 27072, Note_on_c, 1, 42, 100
1, 27072, Note_on_c, 2, 45, 105
1, 27072, Note_on_c, 5, 51, 114
1, 27072, Note_on_c, 9, 42, 75
1, 27075, Control_c, 3, 1, 23
1, 27079, Note_off_c, 0, 61, 118
1, 27080, Note_on_c, 3, 63, 81
1, 27081, Note_off_c, 9, 42, 75
1, 27097, Note_off_c, 3, 63, 81
1, 27103, Note_off_c, 5, 51, 114
1, 27111, Control_c, 3, 1, 28
1, 27119, Pitch_bend_c, 1, 9696
1, 27133, Note_off_c, 0, 56, 111
1, 27133, Pitch_bend_c, 1, 13088
1, 27133, Control_c, 3, 1, 30
1, 27147, Pitch_bend_c, 1, 16160
1, 27157, Control_c, 3, 1, 31
1, 27163, Pitch_bend_c, 1, 16383
1, 27167, Note_off_c, 2, 45, 105
1, 27181, Note_off_c, 1, 42, 100
1, 27190, Note_on_c, 3, 63, 127
1, 27197, Control_c, 3, 1, 38
1, 27200, Note_on_c, 2, 46, 98
1, 27201, Control_c, 3, 1, 51
1, 27207, Pitch_bend_c, 1, 14656
1, 27219, Control_c, 3, 1, 57
1, 27221, Pitch_bend_c, 1, 12256
1, 27231, Pitch_bend_c, 1, 8352
1, 27237, Control_c, 3, 1, 60
1, 27251, Pitch_bend_c, 1, 8192
1, 27259, Control_c, 3, 1, 62
1, 27264, Note_on_c, 0, 54, 127
1, 27264, Note_on_c, 1, 42, 109
1, 27264, Note_on_c, 5, 49, 112
1, 27264, Note_on_c, 9, 39, 124
1, 27264, Note_on_c, 9, 42, 127
1, 27264, Note_on_c, 9, 40, 127
1, 27264, Note_on_c, 9, 36, 127
1, 27271, Note_off_c, 2, 46, 98
1, 27273, Note_off_c, 9, 36, 127
1, 27273, Note_off_c, 9, 40, 127
1, 27273, Note_off_c, 9, 42, 127
1, 27273, Note_off_c, 9, 39, 124
1, 27287, Control_c, 3, 1, 61
1, 27289, Note_off_c, 5, 49, 112
1, 27291, Note_off_c, 3, 63, 127
1, 27295, Control_c, 3, 1, 54
1, 27309, Control_c, 3, 1, 35
1, 27329, Control_c, 3, 1, 20
1, 27339, Note_off_c, 0, 54, 127
1, 27345, Control_c, 3, 1, 15
1, 27380, Note_on_c, 3, 63, 124
1, 27385, Control_c, 3, 1, 12
1, 27392, Note_on_c, 2, 49, 110
1, 27419, Control_c, 3, 1, 4
1, 27429, Control_c, 1, 1, 1
1, 27433, Control_c, 1, 1, 20
1, 27435, Note_off_c, 1, 42, 109
1, 27439, Control_c, 3, 1, 0
1, 27451, Note_off_c, 3, 63, 124
1, 27453, Control_c, 1, 1, 21
1, 27456, Note_on_c, 0, 56, 125
1, 27456, Note_on_c, 1, 39, 97
1, 27456, Note_on_c, 5, 51, 127
1, 27456, Note_on_c, 9, 42, 82
1, 27465, Note_off_c, 9, 42, 82
1, 27465, Note_off_c, 2, 49, 110
1, 27469, Control_c, 1, 1, 5
1, 27495, Control_c, 1, 1, 0
1, 27497, Pitch_bend_c, 3, 7552
1, 27511, Pitch_bend_c, 3, 4096
1, 27517, Note_off_c, 5, 51, 127
1, 27529, Note_off_c, 0, 56, 125
1, 27533, Pitch_bend_c, 3, 1152
1, 27534, Note_on_c, 3, 66, 127
1, 27537, Note_off_c, 1, 39, 97
1, 27541, Pitch_bend_c, 3, 704
1, 27565, Pitch_bend_c, 3, 1856
1, 27571, Pitch_bend_c, 3, 4672
1, 27584, Note_on_c, 0, 54, 115
1, 27584, Note_on_c, 1, 37, 90
1, 27584, Note_on_c, 2, 51, 117
1, 27585, Pitch_bend_c, 3, 5952
1, 27597, Pitch_bend_c, 3, 7424
1, 27613, Note_off_c, 0, 54, 115
1, 27613, Pitch_bend_c, 3, 8064
1, 27621, Pitch_bend_c, 3, 8192
1, 27623, Note_off_c, 2, 51, 117
1, 27623, Note_off_c, 1, 37, 90
1, 27648, Note_on_c, 0, 27, 114
1, 27648, Note_on_c, 1, 27, 105
1, 27648, Note_on_c, 9, 36, 127
1, 27648, Note_on_c, 9, 49, 84
1, 27657, Note_off_c, 9, 49, 84
1, 27657, Note_off_c, 9, 36, 127
1, 27683, Control_c, 3, 1, 2
1, 27687, Control_c, 3, 1, 6
1, 27703, Control_c, 3, 1, 10
1, 27727, Control_c, 3, 1, 13
1, 27737, Note_off_c, 0, 27, 114
1, 27743, Control_c, 3, 1, 17
1, 27759, Control_c, 3, 1, 23
1, 27779, Control_c, 3, 1, 30
1, 27795, Control_c, 3, 1, 36
1, 27799, Note_off_c, 1, 27, 105
1, 27811, Control_c, 3, 1, 45
1, 27831, Control_c, 3, 1, 51
1, 27840, Note_on_c, 1, 39, 98
1, 27840, Note_on_c, 2, 51, 115
1, 27840, Note_on_c, 4, 63, 116
1, 27840, Note_on_c, 4, 75, 116
1, 27840, Note_on_c, 5, 51, 127
1, 27840, Note_on_c, 9, 42, 77
1, 27847, Control_c, 3, 1, 57
1, 27849, Note_off_c, 9, 42, 77
1, 27873, Control_c, 3, 1, 43
1, 27883, Note_off_c, 5, 51, 127
1, 27885, Control_c, 3, 1, 13
1, 27891, Note_off_c, 2, 51, 115
1, 27899, Note_off_c, 3, 66, 127
1, 27903, Control_c, 3, 1, 0
1, 27905, Note_off_c, 1, 39, 98
1, 27933, Note_off_c, 4, 75, 116
1, 27933, Note_off_c, 4, 63, 116
1, 27968, Note_on_c, 1, 27, 61
1, 27983, Pitch_bend_c, 3, 7936
1, 27987, Pitch_bend_c, 3, 4544
1, 28001, Note_off_c, 1, 27, 61
1, 28005, Pitch_bend_c, 3, 448
1, 28017, Pitch_bend_c, 3, 0
1, 28032, Note_on_c, 1, 37, 92
1, 28032, Note_on_c, 2, 49, 106
1, 28032, Note_on_c, 3, 63, 127
1, 28032, Note_on_c, 5, 49, 108
1, 28032, Note_on_c, 9, 39, 126
1, 28032, Note_on_c, 9, 40, 127
1, 28032, Note_on_c, 9, 42, 122
1, 28032, Note_on_c, 9, 36, 127
1, 28041, Note_off_c, 9, 36, 127
1, 28041, Note_off_c, 9, 42, 122
1, 28041, Note_off_c, 9, 40, 127
1, 28041, Note_off_c, 9, 39, 126
1, 28049, Note_off_c, 5, 49, 108
1, 28051, Pitch_bend_c, 3, 768
1, 28057, Pitch_bend_c, 3, 4800
1, 28071, Pitch_bend_c, 3, 8000
1, 28085, Pitch_bend_c, 3, 8192
1, 28131, Note_off_c, 1, 37, 92
1, 28145, Note_off_c, 2, 49, 106
1, 28160, Note_on_c, 1, 39, 90
1, 28160, Note_on_c, 2, 51, 88
1, 28160, Note_on_c, 4, 63, 116
1, 28160, Note_on_c, 4, 75, 116
1, 28160, Note_on_c, 5, 51, 127
1, 28193, Control_c, 3, 1, 3
1, 28197, Note_off_c, 5, 51, 127
1, 28199, Note_off_c, 2, 51, 88
1, 28207, Control_c, 3, 1, 11
1, 28209, Note_off_c, 1, 39, 90
1, 28224, Note_on_c, 0, 54, 124
1, 28224, Note_on_c, 0, 49, 107
1, 28224, Note_on_c, 1, 27, 97
1, 28224, Note_on_c, 2, 39, 111
1, 28224, Note_on_c, 9, 42, 62
1, 28227, Control_c, 3, 1, 19
1, 28233, Note_off_c, 9, 42, 62
1, 28235, Note_off_c, 0, 49, 107
1, 28247, Control_c, 3, 1, 33
1, 28249, Note_off_c, 2, 39, 111
1, 28253, Note_off_c, 4, 75, 116
1, 28253, Note_off_c, 4, 63, 116
1, 28255, Note_off_c, 0, 54, 124
1, 28267, Control_c, 3, 1, 40
1, 28279, Control_c, 3, 1, 48
1, 28299, Control_c, 3, 1, 54
1, 28315, Control_c, 3, 1, 63
1, 28335, Control_c, 3, 1, 70
1, 28355, Control_c, 3, 1, 74
1, 28363, Note_off_c, 1, 27, 97
1, 28371, Control_c, 3, 1, 77
1, 28387, Control_c, 3, 1, 79
1, 28416, Note_on_c, 0, 54, 127
1, 28416, Note_on_c, 0, 49, 122
1, 28416, Note_on_c, 1, 30, 104
1, 28416, Note_on_c, 2, 54, 112
1, 28416, Note_on_c, 2, 49, 107
1, 28416, Note_on_c, 4, 54, 116
1, 28416, Note_on_c, 4, 66, 116
1, 28416, Note_on_c, 5, 51, 127
1, 28416, Note_on_c, 9, 42, 117
1, 28416, Note_on_c, 9, 36, 127
1, 28425, Note_off_c, 9, 36, 127
1, 28425, Note_off_c, 9, 42, 117
1, 28439, Note_off_c, 2, 54, 112
1, 28455, Note_off_c, 2, 49, 107
1, 28459, Note_off_c, 5, 51, 127
1, 28465, Control_c, 3, 1, 77
1, 28481, Control_c, 3, 1, 76
1, 28483, Note_off_c, 0, 49, 122
1, 28499, Note_off_c, 1, 30, 104
1, 28509, Note_off_c, 4, 66, 116
1, 28509, Note_off_c, 4, 54, 116
1, 28509, Control_c, 3, 1, 75
1, 28511, Note_off_c, 0, 54, 127
1, 28517, Control_c, 3, 1, 43
1, 28537, Control_c, 3, 1, 5
1, 28544, Note_on_c, 1, 32, 74
1, 28544, Note_on_c, 4, 56, 116
1, 28544, Note_on_c, 4, 68, 116
1, 28549, Control_c, 3, 1, 0
1, 28569, Note_off_c, 3, 63, 127
1, 28600, Note_on_c, 3, 61, 108
1, 28608, Note_on_c, 0, 39, 104
1, 28608, Note_on_c, 1, 34, 93
1, 28608, Note_on_c, 2, 39, 88
1, 28608, Note_on_c, 4, 58, 116
1, 28608, Note_on_c, 4, 70, 116
1, 28608, Note_on_c, 9, 42, 63
1, 28609, Note_off_c, 1, 32, 74
1, 28617, Note_off_c, 9, 42, 63
1, 28621, Note_off_c, 2, 39, 88
1, 28637, Note_off_c, 4, 68, 116
1, 28637, Note_off_c, 4, 56, 116
1, 28651, Note_off_c, 0, 39, 104
1, 28651, Note_off_c, 3, 61, 108
1, 28669, Note_off_c, 1, 34, 93
1, 28674, Note_on_c, 3, 58, 98
1, 28697, Note_off_c, 3, 58, 98
1, 28701, Note_off_c, 4, 70, 116
1, 28701, Note_off_c, 4, 58, 116
1, 28736, Note_on_c, 0, 54, 118
1, 28736, Note_on_c, 0, 49, 109
1, 28736, Note_on_c, 1, 37, 98
1, 28736, Note_on_c, 2, 51, 115
1, 28736, Note_on_c, 4, 61, 116
1, 28736, Note_on_c, 4, 73, 116
1, 28736, Note_on_c, 5, 54, 127
1, 28765, Note_off_c, 0, 49, 109
1, 28771, Note_off_c, 2, 51, 115
1, 28773, Note_off_c, 0, 54, 118
1, 28779, Note_off_c, 5, 54, 127
1, 28800, Note_on_c, 9, 39, 122
1, 28800, Note_on_c, 9, 40, 127
1, 28800, Note_on_c, 9, 42, 126
1, 28800, Note_on_c, 9, 36, 127
1, 28809, Note_off_c, 9, 36, 127
1, 28809, Note_off_c, 9, 42, 126
1, 28809, Note_off_c, 9, 40, 127
1, 28809, Note_off_c, 9, 39, 122
1, 28911, Note_off_c, 1, 37, 98
1, 28925, Note_off_c, 4, 73, 116
1, 28925, Note_off_c, 4, 61, 116
1, 28928, Note_on_c, 0, 39, 108
1, 28928, Note_on_c, 1, 34, 88
1, 28928, Note_on_c, 2, 39, 94
1, 28928, Note_on_c, 4, 58, 116
1, 28928, Note_on_c, 4, 70, 116
1, 28928, Note_on_c, 5, 51, 105
1, 28939, Note_off_c, 2, 39, 94
1, 28951, Note_off_c, 5, 51, 105
1, 28969, Note_off_c, 4, 70, 116
1, 28969, Note_off_c, 4, 58, 116
1, 28977, Note_off_c, 1, 34, 88
1, 28992, Note_on_c, 0, 56, 120
1, 28992, Note_on_c, 0, 51, 112
1, 28992, Note_on_c, 1, 39, 100
1, 28992, Note_on_c, 2, 49, 108
1, 28992, Note_on_c, 4, 63, 116
1, 28992, Note_on_c, 4, 75, 116
1, 28992, Note_on_c, 5, 56, 127
1, 28992, Note_on_c, 9, 42, 64
1, 29001, Note_off_c, 9, 42, 64
1, 29001, Note_off_c, 0, 39, 108
1, 29041, Note_off_c, 0, 51, 112
1, 29053, Note_off_c, 5, 56, 127
1, 29073, Note_off_c, 1, 39, 100
1, 29073, Note_off_c, 0, 56, 120
1, 29085, Note_off_c, 4, 75, 116
1, 29085, Note_off_c, 4, 63, 116
1, 29103, Note_off_c, 2, 49, 108
1, 29120, Note_on_c, 0, 54, 113
1, 29120, Note_on_c, 0, 51, 99
1, 29120, Note_on_c, 1, 39, 97
1, 29120, Note_on_c, 2, 51, 96
1, 29120, Note_on_c, 4, 63, 116
1, 29120, Note_on_c, 4, 75, 116
1, 29120, Note_on_c, 5, 54, 109
1, 29135, Note_off_c, 0, 51, 99
1, 29153, Note_off_c, 5, 54, 109
1, 29153, Note_off_c, 2, 51, 96
1, 29159, Note_off_c, 0, 54, 113
1, 29171, Note_off_c, 4, 75, 116
1, 29171, Note_off_c, 4, 63, 116
1, 29184, Note_on_c, 0, 27, 112
1, 29184, Note_on_c, 1, 27, 104
1, 29184, Note_on_c, 2, 39, 127
1, 29184, Note_on_c, 9, 36, 127
1, 29184, Note_on_c, 9, 42, 109
1, 29193, Note_off_c, 9, 42, 109
1, 29193, Note_off_c, 9, 36, 127
1, 29193, Note_off_c, 1, 39, 97
1, 29245, Note_off_c, 2, 39, 127
1, 29267, Note_off_c, 0, 27, 112
1, 29347, Note_off_c, 1, 27, 104
1, 29376, Note_on_c, 0, 54, 102
1, 29376, Note_on_c, 0, 49, 104
1, 29376, Note_on_c, 1, 39, 104
1, 29376, Note_on_c, 2, 51, 127
1, 29376, Note_on_c, 4, 63, 116
1, 29376, Note_on_c, 4, 75, 116
1, 29376, Note_on_c, 5, 51, 127
1, 29376, Note_on_c, 9, 42, 67
1, 29385, Note_off_c, 9, 42, 67
1, 29401, Note_off_c, 0, 49, 104
1, 29405, Note_off_c, 0, 54, 102
1, 29421, Note_off_c, 2, 51, 127
1, 29425, Note_off_c, 4, 75, 116
1, 29425, Note_off_c, 4, 63, 116
1, 29427, Note_off_c, 5, 51, 127
1, 29435, Note_off_c, 1, 39, 104
1, 29504, Note_on_c, 1, 27, 79
1, 29539, Note_off_c, 1, 27, 79
1, 29568, Note_on_c, 0, 39, 101
1, 29568, Note_on_c, 1, 37, 96
1, 29568, Note_on_c, 2, 49, 115
1, 29568, Note_on_c, 4, 61, 115
1, 29568, Note_on_c, 4, 73, 115
1, 29568, Note_on_c, 5, 49, 108
1, 29568, Note_on_c, 9, 39, 126
1, 29568, Note_on_c, 9, 40, 127
1, 29568, Note_on_c, 9, 42, 124
1, 29568, Note_on_c, 9, 36, 127
1, 29577, Note_off_c, 9, 36, 127
1, 29577, Note_off_c, 9, 42, 124
1, 29577, Note_off_c, 9, 40, 127
1, 29577, Note_off_c, 9, 39, 126
1, 29585, Note_off_c, 5, 49, 108
1, 29627, Note_off_c, 0, 39, 101
1, 29661, Note_off_c, 4, 73, 115
1, 29661, Note_off_c, 4, 61, 115
1, 29689, Note_off_c, 2, 49, 115
1, 29696, Note_on_c, 0, 54, 109
1, 29696, Note_on_c, 0, 49, 90
1, 29696, Note_on_c, 1, 39, 98
1, 29696, Note_on_c, 2, 51, 94
1, 29696, Note_on_c, 4, 63, 115
1, 29696, Note_on_c, 4, 75, 115
1, 29699, Note_off_c, 1, 37, 96
1, 29709, Note_off_c, 0, 49, 90
1, 29733, Note_off_c, 0, 54, 109
1, 29737, Note_off_c, 2, 51, 94
1, 29743, Note_off_c, 4, 75, 115
1, 29743, Note_off_c, 4, 63, 115
1, 29760, Note_on_c, 0, 27, 108
1, 29760, Note_on_c, 2, 39, 108
1, 29760, Note_on_c, 5, 51, 124
1, 29760, Note_on_c, 9, 42, 73
1, 29769, Note_off_c, 9, 42, 73
1, 29769, Note_off_c, 1, 39, 98
1, 29795, Note_off_c, 5, 51, 124
1, 29799, Note_off_c, 2, 39, 108
1, 29827, Note_off_c, 0, 27, 108
1, 29888, Note_on_c, 0, 39, 93
1, 29888, Note_on_c, 1, 37, 77
1, 29917, Note_off_c, 0, 39, 93
1, 29925, Note_off_c, 1, 37, 77
1, 29952, Note_on_c, 0, 54, 127
1, 29952, Note_on_c, 0, 49, 115
1, 29952, Note_on_c, 1, 44, 105
1, 29952, Note_on_c, 2, 46, 117
1, 29952, Note_on_c, 2, 45, 120
1, 29952, Note_on_c, 3, 61, 127
1, 29952, Note_on_c, 4, 70, 115
1, 29952, Note_on_c, 4, 82, 115
1, 29952, Note_on_c, 5, 54, 127
1, 29952, Note_on_c, 9, 36, 127
1, 29952, Note_on_c, 9, 42, 107
1, 29961, Note_off_c, 9, 42, 107
1, 29961, Note_off_c, 9, 36, 127
1, 29973, Pitch_bend_c, 1, 8704
1, 29975, Note_off_c, 0, 49, 115
1, 29975, Pitch_bend_c, 1, 13184
1, 29981, Note_off_c, 3, 61, 127
1, 29987, Note_off_c, 2, 45, 120
1, 29991, Note_off_c, 5, 54, 127
1, 29991, Pitch_bend_c, 1, 16383
1, 29997, Note_off_c, 0, 54, 127
1, 30009, Note_off_c, 4, 82, 115
1, 30009, Note_off_c, 4, 70, 115
1, 30023, Pitch_bend_c, 3, 7360
1, 30033, Pitch_bend_c, 3, 4736
1, 30045, Note_off_c, 1, 44, 105
1, 30045, Pitch_bend_c, 3, 2368
1, 30068, Note_on_c, 3, 56, 127
1, 30069, Pitch_bend_c, 1, 16288
1, 30073, Pitch_bend_c, 1, 13792
1, 30073, Pitch_bend_c, 3, 7552
1, 30085, Pitch_bend_c, 3, 8192
1, 30091, Pitch_bend_c, 1, 10112
1, 30107, Pitch_bend_c, 1, 8448
1, 30111, Note_off_c, 2, 46, 117
1, 30117, Pitch_bend_c, 1, 8192
1, 30144, Note_on_c, 0, 39, 95
1, 30144, Note_on_c, 1, 42, 107
1, 30144, Note_on_c, 2, 49, 87
1, 30144, Note_on_c, 4, 68, 115
1, 30144, Note_on_c, 4, 80, 115
1, 30144, Note_on_c, 5, 56, 127
1, 30144, Note_on_c, 9, 42, 78
1, 30144, Note_on_c, 9, 36, 127
1, 30153, Note_off_c, 9, 36, 127
1, 30153, Note_off_c, 9, 42, 78
1, 30187, Control_c, 3, 1, 8
1, 30189, Note_off_c, 5, 56, 127
1, 30191, Note_off_c, 0, 39, 95
1, 30195, Note_off_c, 4, 80, 115
1, 30195, Note_off_c, 4, 68, 115
1, 30205, Control_c, 3, 1, 29
1, 30225, Note_off_c, 2, 49, 87
1, 30229, Control_c, 3, 1, 38
1, 30235, Note_off_c, 1, 42, 107
1, 30241, Control_c, 3, 1, 43
1, 30259, Control_c, 3, 1, 46
1, 30272, Note_on_c, 2, 45, 109
1, 30272, Note_on_c, 2, 46, 92
1, 30277, Control_c, 3, 1, 50
1, 30289, Note_off_c, 3, 56, 127
1, 30299, Control_c, 3, 1, 52
1, 30319, Note_off_c, 2, 46, 92
1, 30331, Control_c, 3, 1, 56
1, 30336, Note_on_c, 0, 51, 127
1, 30336, Note_on_c, 0, 56, 127
1, 30336, Note_on_c, 1, 42, 100
1, 30336, Note_on_c, 2, 44, 85
1, 30336, Note_on_c, 4, 66, 115
1, 30336, Note_on_c, 4, 78, 115
1, 30336, Note_on_c, 5, 54, 127
1, 30336, Note_on_c, 9, 39, 127
1, 30336, Note_on_c, 9, 40, 127
1, 30336, Note_on_c, 9, 42, 127
1, 30336, Note_on_c, 9, 36, 127
1, 30341, Note_off_c, 2, 45, 109
1, 30342, Note_on_c, 3, 56, 124
1, 30345, Note_off_c, 9, 36, 127
1, 30345, Note_off_c, 9, 42, 127
1, 30345, Note_off_c, 9, 40, 127
1, 30345, Note_off_c, 9, 39, 127
1, 30365, Control_c, 3, 1, 57
1, 30375, Control_c, 3, 1, 59
1, 30379, Note_off_c, 5, 54, 127
1, 30389, Control_c, 3, 1, 66
1, 30399, Note_off_c, 4, 78, 115
1, 30399, Note_off_c, 4, 66, 115
1, 30405, Control_c, 3, 1, 68
1, 30421, Control_c, 3, 1, 69
1, 30441, Note_off_c, 2, 44, 85
1, 30441, Control_c, 3, 1, 71
1, 30463, Note_off_c, 0, 51, 127
1, 30463, Control_c, 3, 1, 72
1, 30464, Note_on_c, 2, 42, 95
1, 30475, Note_off_c, 0, 56, 127
1, 30489, Note_off_c, 3, 56, 124
1, 30491, Control_c, 3, 1, 71
1, 30503, Note_off_c, 1, 42, 100
1, 30503, Control_c, 3, 1, 65
1, 30509, Note_off_c, 2, 42, 95
1, 30513, Control_c, 3, 1, 57
1, 30528, Note_on_c, 0, 49, 111
1, 30528, Note_on_c, 0, 54, 119
1, 30528, Note_on_c, 1, 39, 93
1, 30528, Note_on_c, 2, 44, 95
1, 30528, Note_on_c, 5, 49, 126
1, 30528, Note_on_c, 9, 42, 71
1, 30528, Note_on_c, 9, 36, 127
1, 30529, Control_c, 3, 1, 39
1, 30537, Note_off_c, 9, 36, 127
1, 30537, Note_off_c, 9, 42, 71
1, 30540, Note_on_c, 3, 54, 95
1, 30559, Note_off_c, 5, 49, 126
1, 30565, Note_off_c, 3, 54, 95
1, 30569, Control_c, 3, 1, 38
1, 30583, Note_off_c, 0, 54, 119
1, 30593, Control_c, 3, 1, 37
1, 30605, Control_c, 3, 1, 38
1, 30625, Note_off_c, 2, 44, 95
1, 30627, Control_c, 3, 1, 44
1, 30635, Note_off_c, 0, 49, 111
1, 30637, Note_off_c, 1, 39, 93
1, 30637, Control_c, 3, 1, 46
1, 30648, Note_on_c, 3, 56, 127
1, 30656, Note_on_c, 1, 37, 89
1, 30656, Note_on_c, 2, 42, 88
1, 30656, Note_on_c, 5, 51, 127
1, 30657, Control_c, 3, 1, 59
1, 30675, Control_c, 3, 1, 67
1, 30681, Note_off_c, 5, 51, 127
1, 30693, Control_c, 3, 1, 71
1, 30697, Note_off_c, 2, 42, 88
1, 30705, Note_off_c, 1, 37, 89
1, 30711, Control_c, 3, 1, 73
1, 30720, Note_on_c, 0, 27, 120
1, 30720, Note_on_c, 1, 27, 88
1, 30720, Note_on_c, 1, 29, 97
1, 30720, Note_on_c, 2, 39, 127
1, 30720, Note_on_c, 9, 36, 127
1, 30720, Note_on_c, 9, 42, 115
1, 30727, Control_c, 3, 1, 77
1, 30729, Note_off_c, 9, 42, 115
1, 30729, Note_off_c, 9, 36, 127
1, 30733, Note_off_c, 1, 29, 97
1, 30745, Control_c, 3, 1, 80
1, 30765, Control_c, 3, 1, 82
1, 30785, Control_c, 3, 1, 84
1, 30809, Control_c, 3, 1, 85
1, 30827, Control_c, 3, 1, 86
1, 30833, Note_off_c, 0, 27, 120
1, 30835, Control_c, 3, 1, 87
1, 30848, Note_on_c, 0, 39, 110
1, 30848, Note_on_c, 5, 49, 113
1, 30855, Control_c, 3, 1, 89
1, 30873, Note_off_c, 5, 49, 113
1, 30873, Note_off_c, 2, 39, 127
1, 30879, Note_off_c, 0, 39, 110
1, 30883, Control_c, 3, 1, 90
1, 30895, Control_c, 3, 1, 88
1, 30911, Control_c, 3, 1, 72
1, 30912, Note_on_c, 0, 54, 127
1, 30912, Note_on_c, 0, 49, 127
1, 30912, Note_on_c, 1, 39, 107
1, 30912, Note_on_c, 2, 51, 117
1, 30912, Note_on_c, 4, 63, 115
1, 30912, Note_on_c, 4, 75, 115
1, 30912, Note_on_c, 5, 51, 127
1, 30912, Note_on_c, 9, 42, 57
1, 30919, Note_off_c, 1, 27, 88
1, 30919, Note_off_c, 3, 56, 127
1, 30921, Note_off_c, 9, 42, 57
1, 30922, Note_on_c, 3, 54, 112
1, 30925, Control_c, 3, 1, 24
1, 30945, Note_off_c, 0, 49, 127
1, 30953, Note_off_c, 0, 54, 127
1, 30953, Control_c, 3, 1, 0
1, 30963, Note_off_c, 5, 51, 127
1, 30963, Note_off_c, 2, 51, 117
1, 30985, Note_off_c, 1, 39, 107
1, 30997, Note_off_c, 3, 54, 112
1, 31005, Note_off_c, 4, 75, 115
1, 31005, Note_off_c, 4, 63, 115
1, 31040, Note_on_c, 1, 27, 69
1, 31040, Note_on_c, 2, 39, 75
1, 31051, Note_off_c, 2, 39, 75
1, 31059, Note_off_c, 1, 27, 69
1, 31104, Note_on_c, 1, 37, 101
1, 31104, Note_on_c, 2, 49, 112
1, 31104, Note_on_c, 5, 49, 126
1, 31104, Note_on_c, 9, 39, 124
1, 31104, Note_on_c, 9, 40, 127
1, 31104, Note_on_c, 9, 42, 126
1, 31104, Note_on_c, 9, 36, 127
1, 31113, Note_off_c, 9, 36, 127
1, 31113, Note_off_c, 9, 42, 126
1, 31113, Note_off_c, 9, 40, 127
1, 31113, Note_off_c, 9, 39, 124
1, 31127, Note_off_c, 5, 49, 126
1, 31183, Note_off_c, 2, 49, 112
1, 31207, Note_off_c, 1, 37, 101
1, 31232, Note_on_c, 1, 39, 90
1, 31232, Note_on_c, 2, 51, 92
1, 31232, Note_on_c, 4, 63, 115
1, 31232, Note_on_c, 4, 75, 115
1, 31263, Note_off_c, 2, 51, 92
1, 31275, Note_off_c, 1, 39, 90
1, 31296, Note_on_c, 0, 49, 114
1, 31296, Note_on_c, 0, 54, 109
1, 31296, Note_on_c, 1, 27, 98
1, 31296, Note_on_c, 2, 39, 127
1, 31296, Note_on_c, 5, 51, 127
1, 31296, Note_on_c, 9, 42, 66
1, 31305, Note_off_c, 9, 42, 66
1, 31305, Note_off_c, 0, 54, 109
1, 31323, Note_off_c, 0, 49, 114
1, 31325, Note_off_c, 4, 75, 115
1, 31325, Note_off_c, 4, 63, 115
1, 31331, Note_off_c, 2, 39, 127
1, 31335, Note_off_c, 5, 51, 127
1, 31429, Note_off_c, 1, 27, 98
1, 31488, Note_on_c, 0, 54, 125
1, 31488, Note_on_c, 0, 49, 118
1, 31488, Note_on_c, 1, 30, 118
1, 31488, Note_on_c, 2, 54, 108
1, 31488, Note_on_c, 2, 49, 108
1, 31488, Note_on_c, 4, 54, 115
1, 31488, Note_on_c, 4, 66, 115
1, 31488, Note_on_c, 5, 54, 127
1, 31488, Note_on_c, 9, 36, 127
1, 31488, Note_on_c, 9, 42, 110
1, 31497, Note_off_c, 9, 42, 110
1, 31497, Note_off_c, 9, 36, 127
1, 31517, Note_off_c, 2, 54, 108
1, 31535, Note_off_c, 5, 54, 127
1, 31535, Note_off_c, 2, 49, 108
1, 31543, Note_off_c, 0, 49, 118
1, 31547, Note_off_c, 0, 54, 125
1, 31575, Note_off_c, 1, 30, 118
1, 31581, Note_off_c, 4, 66, 115
1, 31581, Note_off_c, 4, 54, 115
1, 31616, Note_on_c, 1, 32, 79
1, 31616, Note_on_c, 4, 56, 115
1, 31616, Note_on_c, 4, 68, 115
1, 31675, Note_off_c, 1, 32, 79
1, 31680, Note_on_c, 0, 39, 110
1, 31680, Note_on_c, 1, 34, 93
1, 31680, Note_on_c, 4, 58, 115
1, 31680, Note_on_c, 4, 70, 115
1, 31680, Note_on_c, 5, 56, 126
1, 31680, Note_on_c, 9, 42, 76
1, 31689, Note_off_c, 9, 42, 76
1, 31709, Note_off_c, 4, 68, 115
1, 31709, Note_off_c, 4, 56, 115
1, 31725, Note_off_c, 0, 39, 110
1, 31731, Note_off_c, 5, 56, 126
1, 31753, Note_off_c, 1, 34, 93
1, 31773, Note_off_c, 4, 70, 115
1, 31773, Note_off_c, 4, 58, 115
1, 31808, Note_on_c, 0, 51, 125
1, 31808, Note_on_c, 0, 56, 126
1, 31808, Note_on_c, 1, 37, 102
1, 31808, Note_on_c, 2, 54, 108
1, 31808, Note_on_c, 2, 49, 110
1, 31808, Note_on_c, 4, 61, 115
1, 31808, Note_on_c, 4, 73, 115
1, 31808, Note_on_c, 9, 46, 91
1, 31817, Note_off_c, 9, 46, 91
1, 31851, Note_off_c, 2, 54, 108
1, 31855, Note_off_c, 2, 49, 110
1, 31872, Note_on_c, 5, 54, 127
1, 31872, Note_on_c, 9, 39, 127
1, 31872, Note_on_c, 9, 40, 127
1, 31872, Note_on_c, 9, 42, 105
1, 31872, Note_on_c, 9, 36, 127
1, 31881, Note_off_c, 9, 36, 127
1, 31881, Note_off_c, 9, 42, 105
1, 31881, Note_off_c, 9, 40, 127
1, 31881, Note_off_c, 9, 39, 127
1, 31917, Note_off_c, 5, 54, 127
1, 31973, Note_off_c, 1, 37, 102
1, 31997, Note_off_c, 4, 73, 115
1, 31997, Note_off_c, 4, 61, 115
1, 32000, Note_on_c, 0, 39, 112
1, 32000, Note_on_c, 1, 34, 87
1, 32000, Note_on_c, 4, 58, 115
1, 32000, Note_on_c, 4, 70, 115
1, 32001, Note_off_c, 0, 51, 125
1, 32009, Note_off_c, 0, 56, 126
1, 32041, Note_off_c, 4, 70, 115
1, 32041, Note_off_c, 4, 58, 115
1, 32049, Note_off_c, 0, 39, 112
1, 32051, Note_off_c, 1, 34, 87
1, 32064, Note_on_c, 0, 54, 127
1, 32064, Note_on_c, 1, 39, 101
1, 32064, Note_on_c, 2, 54, 112
1, 32064, Note_on_c, 2, 49, 112
1, 32064, Note_on_c, 4, 63, 115
1, 32064, Note_on_c, 4, 75, 115
1, 32064, Note_on_c, 5, 49, 122
1, 32064, Note_on_c, 9, 42, 87
1, 32073, Note_off_c, 9, 42, 87
1, 32091, Note_off_c, 5, 49, 122
1, 32128, Note_on_c, 0, 49, 118
1, 32149, Note_off_c, 1, 39, 101
1, 32157, Note_off_c, 4, 75, 115
1, 32157, Note_off_c, 4, 63, 115
1, 32192, Note_on_c, 1, 39, 87
1, 32192, Note_on_c, 4, 63, 115
1, 32192, Note_on_c, 4, 75, 115
1, 32192, Note_on_c, 5, 51, 126
1, 32203, Note_off_c, 0, 54, 127
1, 32227, Note_off_c, 5, 51, 126
1, 32243, Note_off_c, 4, 75, 115
1, 32243, Note_off_c, 4, 63, 115
1, 32243, Note_off_c, 2, 54, 112
1, 32256, Note_on_c, 0, 27, 124
1, 32256, Note_on_c, 1, 27, 107
1, 32256, Note_on_c, 2, 39, 111
1, 32256, Note_on_c, 9, 42, 84
1, 32256, Note_on_c, 9, 36, 127
1, 32265, Note_off_c, 9, 36, 127
1, 32265, Note_off_c, 9, 42, 84
1, 32265, Note_off_c, 0, 49, 118
1, 32265, Note_off_c, 2, 49, 112
1, 32277, Note_off_c, 1, 39, 87
1, 32373, Note_off_c, 2, 39, 111
1, 32384, Note_on_c, 5, 49, 123
1, 32403, Note_off_c, 5, 49, 123
1, 32431, Note_off_c, 1, 27, 107
1, 32445, Note_off_c, 0, 27, 124
1, 32448, Note_on_c, 0, 54, 114
1, 32448, Note_on_c, 0, 49, 100
1, 32448, Note_on_c, 1, 39, 107
1, 32448, Note_on_c, 2, 51, 114
1, 32448, Note_on_c, 4, 63, 115
1, 32448, Note_on_c, 4, 75, 115
1, 32448, Note_on_c, 5, 51, 127
1, 32448, Note_on_c, 9, 42, 78
1, 32457, Note_off_c, 9, 42, 78
1, 32463, Note_off_c, 0, 49, 100
1, 32481, Note_off_c, 0, 54, 114
1, 32493, Note_off_c, 5, 51, 127
1, 32497, Note_off_c, 4, 75, 115
1, 32497, Note_off_c, 4, 63, 115
1, 32501, Note_off_c, 2, 51, 114
1, 32517, Note_off_c, 1, 39, 107
1, 32576, Note_on_c, 1, 27, 72
1, 32613, Note_off_c, 1, 27, 72
1, 32640, Note_on_c, 0, 54, 127
1, 32640, Note_on_c, 0, 49, 124
1, 32640, Note_on_c, 1, 37, 102
1, 32640, Note_on_c, 2, 49, 121
1, 32640, Note_on_c, 4, 61, 115
1, 32640, Note_on_c, 4, 73, 115
1, 32640, Note_on_c, 5, 49, 127
1, 32640, Note_on_c, 9, 39, 127
1, 32640, Note_on_c, 9, 42, 120
1, 32640, Note_on_c, 9, 40, 126
1, 32640, Note_on_c, 9, 36, 127
1, 32649, Note_off_c, 9, 36, 127
1, 32649, Note_off_c, 9, 40, 126
1, 32649, Note_off_c, 9, 42, 120
1, 32649, Note_off_c, 9, 39, 127
1, 32663, Note_off_c, 0, 49, 124
1, 32671, Note_off_c, 5, 49, 127
1, 32671, Note_off_c, 0, 54, 127
1, 32733, Note_off_c, 4, 73, 115
1, 32733, Note_off_c, 4, 61, 115
1, 32749, Note_off_c, 1, 37, 102
1, 32768, Note_on_c, 1, 39, 101
1, 32768, Note_on_c, 4, 63, 115
1, 32768, Note_on_c, 4, 75, 115
1, 32777, Note_off_c, 2, 49, 121
1, 32815, Note_off_c, 4, 75, 115
1, 32815, Note_off_c, 4, 63, 115
1, 32825, Note_off_c, 1, 39, 101
1, 32832, Note_on_c, 0, 39, 90
1, 32832, Note_on_c, 2, 51, 110
1, 32832, Note_on_c, 5, 51, 119
1, 32832, Note_on_c, 9, 42, 70
1, 32832, Note_on_c, 9, 36, 127
1, 32841, Note_off_c, 9, 36, 127
1, 32841, Note_off_c, 9, 42, 70
1, 32873, Note_off_c, 5, 51, 119
1, 32883, Note_off_c, 0, 39, 90
1, 32889, Note_off_c, 2, 51, 110
1, 33023, Pitch_bend_c, 3, 8320
1, 33024, Note_on_c, 0, 54, 115
1, 33024, Note_on_c, 0, 49, 110
1, 33024, Note_on_c, 1, 44, 102
1, 33024, Note_on_c, 2, 44, 110
1, 33024, Note_on_c, 4, 70, 115
1, 33024, Note_on_c, 4, 82, 115
1, 33024, Note_on_c, 5, 58, 125
1, 33024, Note_on_c, 9, 42, 113
1, 33024, Note_on_c, 9, 36, 127
1, 33027, Pitch_bend_c, 3, 9088
1, 33030, Note_on_c, 3, 68, 127
1, 33033, Note_off_c, 9, 36, 127
1, 33033, Note_off_c, 9, 42, 113
1, 33045, Note_off_c, 0, 49, 110
1, 33051, Pitch_bend_c, 3, 10912
1, 33055, Note_off_c, 0, 54, 115
1, 33057, Pitch_bend_c, 1, 9760
1, 33057, Pitch_bend_c, 3, 12640
1, 33069, Pitch_bend_c, 1, 11456
1, 33077, Pitch_bend_c, 3, 13216
1, 33081, Note_off_c, 4, 82, 115
1, 33081, Note_off_c, 4, 70, 115
1, 33083, Note_off_c, 2, 44, 110
1, 33085, Note_off_c, 5, 58, 125
1, 33085, Pitch_bend_c, 3, 13056
1, 33087, Pitch_bend_c, 1, 13824
1, 33097, Pitch_bend_c, 1, 14432
1, 33097, Pitch_bend_c, 3, 11872
1, 33117, Note_off_c, 1, 44, 102
1, 33117, Pitch_bend_c, 1, 14208
1, 33117, Pitch_bend_c, 3, 11232
1, 33125, Pitch_bend_c, 3, 10880
1, 33129, Pitch_bend_c, 1, 13888
1, 33141, Pitch_bend_c, 1, 12160
1, 33141, Pitch_bend_c, 3, 10528
1, 33153, Pitch_bend_c, 3, 10368
1, 33155, Pitch_bend_c, 1, 10176
1, 33157, Note_off_c, 3, 68, 127
1, 33167, Pitch_bend_c, 1, 8736
1, 33175, Pitch_bend_c, 3, 9376
1, 33181, Pitch_bend_c, 1, 8320
1, 33183, Pitch_bend_c, 1, 8192
1, 33199, Pitch_bend_c, 3, 8320
1, 33203, Pitch_bend_c, 3, 8192
1, 33216, Note_on_c, 1, 42, 100
1, 33216, Note_on_c, 2, 45, 105
1, 33216, Note_on_c, 3, 68, 117
1, 33216, Note_on_c, 4, 68, 115
1, 33216, Note_on_c, 4, 80, 115
1, 33216, Note_on_c, 5, 56, 127
1, 33216, Note_on_c, 9, 42, 75
1, 33225, Note_off_c, 9, 42, 75
1, 33263, Pitch_bend_c, 1, 8448
1, 33265, Note_off_c, 5, 56, 127
1, 33267, Note_off_c, 4, 80, 115
1, 33267, Note_off_c, 4, 68, 115
1, 33267, Pitch_bend_c, 1, 10784
1, 33283, Pitch_bend_c, 1, 14240
1, 33297, Pitch_bend_c, 1, 16160
1, 33307, Pitch_bend_c, 1, 16383
1, 33311, Note_off_c, 2, 45, 105
1, 33317, Note_off_c, 3, 68, 117
1, 33325, Note_off_c, 1, 42, 100
1, 33341, Control_c, 3, 1, 11
1, 33344, Note_on_c, 2, 46, 98
1, 33351, Pitch_bend_c, 1, 14656
1, 33355, Control_c, 3, 1, 25
1, 33365, Pitch_bend_c, 1, 10944
1, 33379, Pitch_bend_c, 1, 8352
1, 33379, Control_c, 3, 1, 32
1, 33393, Control_c, 3, 1, 35
1, 33395, Pitch_bend_c, 1, 8192
1, 33404, Note_on_c, 3, 68, 120
1, 33408, Note_on_c, 1, 42, 109
1, 33408, Note_on_c, 4, 66, 115
1, 33408, Note_on_c, 4, 78, 115
1, 33408, Note_on_c, 5, 54, 125
1, 33408, Note_on_c, 9, 39, 124
1, 33408, Note_on_c, 9, 42, 127
1, 33408, Note_on_c, 9, 40, 127
1, 33408, Note_on_c, 9, 36, 127
1, 33415, Note_off_c, 2, 46, 98
1, 33417, Note_off_c, 9, 36, 127
1, 33417, Note_off_c, 9, 40, 127
1, 33417, Note_off_c, 9, 42, 127
1, 33417, Note_off_c, 9, 39, 124
1, 33417, Control_c, 3, 1, 42
1, 33429, Control_c, 3, 1, 42
1, 33439, Note_off_c, 3, 68, 120
1, 33445, Control_c, 3, 1, 26
1, 33447, Note_off_c, 5, 54, 125
1, 33465, Control_c, 3, 1, 17
1, 33471, Note_off_c, 4, 78, 115
1, 33471, Note_off_c, 4, 66, 115
1, 33485, Control_c, 3, 1, 13
1, 33505, Control_c, 3, 1, 12
1, 33529, Control_c, 3, 1, 13
1, 33536, Note_on_c, 2, 49, 110
1, 33537, Control_c, 3, 1, 15
1, 33567, Control_c, 3, 1, 16
1, 33573, Control_c, 1, 1, 10
1, 33579, Note_off_c, 1, 42, 109
1, 33589, Control_c, 1, 1, 24
1, 33593, Control_c, 3, 1, 18
1, 33600, Note_on_c, 0, 37, 105
1, 33600, Note_on_c, 1, 39, 97
1, 33600, Note_on_c, 5, 49, 103
1, 33600, Note_on_c, 9, 42, 82
1, 33602, Note_on_c, 3, 68, 126
1, 33607, Control_c, 1, 1, 5
1, 33609, Note_off_c, 9, 42, 82
1, 33609, Note_off_c, 2, 49, 110
1, 33619, Note_off_c, 5, 49, 103
1, 33619, Control_c, 3, 1, 20
1, 33625, Control_c, 3, 1, 23
1, 33639, Control_c, 1, 1, 0
1, 33643, Control_c, 3, 1, 26
1, 33645, Note_off_c, 3, 68, 126
1, 33661, Control_c, 3, 1, 28
1, 33671, Note_off_c, 0, 37, 105
1, 33681, Note_off_c, 1, 39, 97
1, 33689, Control_c, 3, 1, 30
1, 33712, Note_on_c, 3, 66, 119
1, 33717, Control_c, 3, 1, 31
1, 33728, Note_on_c, 1, 37, 90
1, 33728, Note_on_c, 2, 51, 117
1, 33728, Note_on_c, 5, 51, 127
1, 33739, Control_c, 3, 1, 34
1, 33751, Control_c, 3, 1, 36
1, 33761, Note_off_c, 5, 51, 127
1, 33767, Note_off_c, 2, 51, 117
1, 33767, Note_off_c, 1, 37, 90
1, 33769, Control_c, 3, 1, 37
1, 33789, Control_c, 3, 1, 39
1, 33792, Note_on_c, 0, 27, 123
1, 33792, Note_on_c, 1, 27, 105
1, 33792, Note_on_c, 2, 39, 127
1, 33792, Note_on_c, 9, 36, 127
1, 33792, Note_on_c, 9, 49, 84
1, 33801, Note_off_c, 9, 49, 84
1, 33801, Note_off_c, 9, 36, 127
1, 33819, Control_c, 3, 1, 40
1, 33823, Control_c, 3, 1, 46
1, 33843, Control_c, 3, 1, 54
1, 33861, Control_c, 3, 1, 67
1, 33881, Control_c, 3, 1, 74
1, 33897, Control_c, 3, 1, 81
1, 33917, Control_c, 3, 1, 85
1, 33920, Note_on_c, 5, 49, 123
1, 33931, Control_c, 3, 1, 88
1, 33933, Note_off_c, 2, 39, 127
1, 33943, Note_off_c, 5, 49, 123
1, 33943, Note_off_c, 1, 27, 105
1, 33949, Control_c, 3, 1, 94
1, 33951, Note_off_c, 3, 66, 119
1, 33984, Note_on_c, 0, 49, 105
1, 33984, Note_on_c, 1, 39, 98
1, 33984, Note_on_c, 2, 51, 115
1, 33984, Note_on_c, 4, 63, 114
1, 33984, Note_on_c, 4, 75, 114
1, 33984, Note_on_c, 5, 51, 127
1, 33984, Note_on_c, 9, 42, 77
1, 33986, Note_on_c, 3, 63, 127
1, 33993, Note_off_c, 9, 42, 77
1, 34001, Note_off_c, 0, 27, 123
1, 34007, Note_off_c, 0, 49, 105
1, 34007, Control_c, 3, 1, 98
1, 34025, Control_c, 3, 1, 101
1, 34035, Note_off_c, 2, 51, 115
1, 34039, Note_off_c, 5, 51, 127
1, 34041, Control_c, 3, 1, 98
1, 34049, Note_off_c, 1, 39, 98
1, 34057, Control_c, 3, 1, 93
1, 34077, Note_off_c, 4, 75, 114
1, 34077, Note_off_c, 4, 63, 114
1, 34077, Control_c, 3, 1, 87
1, 34093, Control_c, 3, 1, 79
1, 34112, Note_on_c, 1, 27, 61
1, 34115, Control_c, 3, 1, 76
1, 34117, Note_off_c, 3, 63, 127
1, 34131, Control_c, 3, 1, 71
1, 34145, Note_off_c, 1, 27, 61
1, 34151, Control_c, 3, 1, 68
1, 34173, Control_c, 3, 1, 71
1, 34176, Note_on_c, 0, 54, 122
1, 34176, Note_on_c, 0, 49, 119
1, 34176, Note_on_c, 1, 37, 92
1, 34176, Note_on_c, 2, 49, 106
1, 34176, Note_on_c, 5, 49, 127
1, 34176, Note_on_c, 9, 39, 126
1, 34176, Note_on_c, 9, 40, 127
1, 34176, Note_on_c, 9, 42, 122
1, 34176, Note_on_c, 9, 36, 127
1, 34180, Note_on_c, 3, 63, 127
1, 34185, Note_off_c, 9, 36, 127
1, 34185, Note_off_c, 9, 42, 122
1, 34185, Note_off_c, 9, 40, 127
1, 34185, Note_off_c, 9, 39, 126
1, 34201, Control_c, 3, 1, 80
1, 34203, Note_off_c, 5, 49, 127
1, 34207, Note_off_c, 0, 49, 119
1, 34209, Note_off_c, 0, 54, 122
1, 34221, Control_c, 3, 1, 84
1, 34245, Control_c, 3, 1, 79
1, 34261, Control_c, 3, 1, 77
1, 34273, Control_c, 3, 1, 70
1, 34275, Note_off_c, 1, 37, 92
1, 34289, Note_off_c, 2, 49, 106
1, 34297, Control_c, 3, 1, 63
1, 34304, Note_on_c, 1, 39, 90
1, 34304, Note_on_c, 2, 51, 88
1, 34304, Note_on_c, 4, 63, 114
1, 34304, Note_on_c, 4, 75, 114
1, 34311, Control_c, 3, 1, 57
1, 34327, Control_c, 3, 1, 49
1, 34337, Note_off_c, 3, 63, 127
1, 34343, Note_off_c, 2, 51, 88
1, 34345, Control_c, 3, 1, 42
1, 34353, Note_off_c, 1, 39, 90
1, 34367, Control_c, 3, 1, 41
1, 34368, Note_on_c, 0, 39, 108
1, 34368, Note_on_c, 1, 27, 97
1, 34368, Note_on_c, 2, 39, 111
1, 34368, Note_on_c, 5, 51, 121
1, 34368, Note_on_c, 9, 42, 62
1, 34370, Note_on_c, 3, 61, 96
1, 34377, Note_off_c, 9, 42, 62
1, 34391, Control_c, 3, 1, 42
1, 34393, Note_off_c, 2, 39, 111
1, 34397, Note_off_c, 4, 75, 114
1, 34397, Note_off_c, 4, 63, 114
1, 34399, Control_c, 3, 1, 47
1, 34407, Note_off_c, 5, 51, 121
1, 34419, Note_off_c, 3, 61, 96
1, 34419, Control_c, 3, 1, 50
1, 34441, Note_off_c, 0, 39, 108
1, 34457, Control_c, 3, 1, 51
1, 34480, Note_on_c, 3, 58, 118
1, 34485, Control_c, 3, 1, 56
1, 34491, Control_c, 3, 1, 58
1, 34507, Note_off_c, 1, 27, 97
1, 34517, Note_off_c, 3, 58, 118
1, 34521, Control_c, 3, 1, 57
1, 34537, Control_c, 3, 1, 59
1, 34549, Control_c, 3, 1, 64
1, 34560, Note_on_c, 0, 54, 123
1, 34560, Note_on_c, 0, 49, 95
1, 34560, Note_on_c, 1, 30, 104
1, 34560, Note_on_c, 2, 54, 112
1, 34560, Note_on_c, 2, 49, 107
1, 34560, Note_on_c, 3, 61, 127
1, 34560, Note_on_c, 4, 54, 114
1, 34560, Note_on_c, 4, 66, 114
1, 34560, Note_on_c, 5, 54, 127
1, 34560, Note_on_c, 9, 42, 117
1, 34560, Note_on_c, 9, 36, 127
1, 34569, Note_off_c, 9, 36, 127
1, 34569, Note_off_c, 9, 42, 117
1, 34575, Note_off_c, 0, 49, 95
1, 34581, Control_c, 3, 1, 68
1, 34583, Note_off_c, 2, 54, 112
1, 34599, Note_off_c, 2, 49, 107
1, 34599, Control_c, 3, 1, 74
1, 34601, Note_off_c, 0, 54, 123
1, 34605, Note_off_c, 5, 54, 127
1, 34615, Control_c, 3, 1, 78
1, 34635, Note_off_c, 3, 61, 127
1, 34635, Control_c, 3, 1, 80
1, 34640, Note_on_c, 3, 63, 126
1, 34643, Note_off_c, 1, 30, 104
1, 34651, Control_c, 3, 1, 82
1, 34653, Note_off_c, 4, 66, 114
1, 34653, Note_off_c, 4, 54, 114
1, 34675, Control_c, 3, 1, 86
1, 34688, Note_on_c, 1, 32, 74
1, 34688, Note_on_c, 4, 56, 114
1, 34688, Note_on_c, 4, 68, 114
1, 34699, Control_c, 3, 1, 85
1, 34705, Control_c, 3, 1, 82
1, 34729, Control_c, 3, 1, 84
1, 34743, Control_c, 3, 1, 83
1, 34752, Note_on_c, 0, 39, 96
1, 34752, Note_on_c, 1, 34, 93
1, 34752, Note_on_c, 2, 39, 88
1, 34752, Note_on_c, 4, 58, 114
1, 34752, Note_on_c, 4, 70, 114
1, 34752, Note_on_c, 5, 56, 127
1, 34752, Note_on_c, 9, 42, 63
1, 34753, Note_off_c, 1, 32, 74
1, 34761, Note_off_c, 9, 42, 63
1, 34763, Control_c, 3, 1, 79
1, 34765, Note_off_c, 2, 39, 88
1, 34781, Note_off_c, 4, 68, 114
1, 34781, Note_off_c, 4, 56, 114
1, 34783, Control_c, 3, 1, 76
1, 34795, Control_c, 3, 1, 71
1, 34803, Note_off_c, 5, 56, 127
1, 34813, Note_off_c, 1, 34, 93
1, 34813, Note_off_c, 0, 39, 96
1, 34819, Control_c, 3, 1, 70
1, 34835, Control_c, 3, 1, 71
1, 34845, Note_off_c, 4, 70, 114
1, 34845, Note_off_c, 4, 58, 114
1, 34855, Control_c, 3, 1, 74
1, 34867, Control_c, 3, 1, 81
1, 34880, Note_on_c, 0, 54, 113
1, 34880, Note_on_c, 0, 49, 110
1, 34880, Note_on_c, 1, 37, 98
1, 34880, Note_on_c, 2, 51, 115
1, 34880, Note_on_c, 4, 61, 114
1, 34880, Note_on_c, 4, 73, 114
1, 34885, Control_c, 3, 1, 80
1, 34905, Control_c, 3, 1, 66
1, 34915, Note_off_c, 2, 51, 115
1, 34921, Control_c, 3, 1, 50
1, 34929, Note_off_c, 0, 49, 110
1, 34931, Note_off_c, 3, 63, 126
1, 34941, Note_off_c, 0, 54, 113
1, 34941, Control_c, 3, 1, 27
1, 34944, Note_on_c, 5, 54, 127
1, 34944, Note_on_c, 9, 39, 122
1, 34944, Note_on_c, 9, 40, 127
1, 34944, Note_on_c, 9, 42, 126
1, 34944, Note_on_c, 9, 36, 127
1, 34953, Note_off_c, 9, 36, 127
1, 34953, Note_off_c, 9, 42, 126
1, 34953, Note_off_c, 9, 40, 127
1, 34953, Note_off_c, 9, 39, 122
1, 34959, Control_c, 3, 1, 0
1, 34993, Note_off_c, 5, 54, 127
1, 35055, Note_off_c, 1, 37, 98
1, 35069, Note_off_c, 4, 73, 114
1, 35069, Note_off_c, 4, 61, 114
1, 35072, Note_on_c, 0, 39, 100
1, 35072, Note_on_c, 1, 34, 88
1, 35072, Note_on_c, 2, 39, 94
1, 35072, Note_on_c, 4, 58, 114
1, 35072, Note_on_c, 4, 70, 114
1, 35083, Note_off_c, 2, 39, 94
1, 35113, Note_off_c, 4, 70, 114
1, 35113, Note_off_c, 4, 58, 114
1, 35121, Note_off_c, 1, 34, 88
1, 35136, Note_on_c, 0, 56, 120
1, 35136, Note_on_c, 0, 51, 118
1, 35136, Note_on_c, 1, 39, 100
1, 35136, Note_on_c, 2, 49, 108
1, 35136, Note_on_c, 4, 63, 114
1, 35136, Note_on_c, 4, 75, 114
1, 35136, Note_on_c, 9, 42, 64
1, 35145, Note_off_c, 9, 42, 64
1, 35157, Note_off_c, 0, 39, 100
1, 35181, Note_off_c, 0, 51, 118
1, 35213, Note_off_c, 0, 56, 120
1, 35217, Note_off_c, 1, 39, 100
1, 35229, Note_off_c, 4, 75, 114
1, 35229, Note_off_c, 4, 63, 114
1, 35247, Note_off_c, 2, 49, 108
1, 35264, Note_on_c, 0, 54, 111
1, 35264, Note_on_c, 0, 49, 99
1, 35264, Note_on_c, 1, 39, 97
1, 35264, Note_on_c, 2, 51, 96
1, 35264, Note_on_c, 4, 63, 114
1, 35264, Note_on_c, 4, 75, 114
1, 35264, Note_on_c, 5, 51, 127
1, 35297, Note_off_c, 2, 51, 96
1, 35297, Note_off_c, 0, 49, 99
1, 35303, Note_off_c, 0, 54, 111
1, 35315, Note_off_c, 4, 75, 114
1, 35315, Note_off_c, 4, 63, 114
1, 35319, Note_off_c, 5, 51, 127
1, 35328, Note_on_c, 0, 27, 116
1, 35328, Note_on_c, 1, 27, 104
1, 35328, Note_on_c, 2, 39, 127
1, 35328, Note_on_c, 9, 36, 127
1, 35328, Note_on_c, 9, 42, 109
1, 35337, Note_off_c, 9, 42, 109
1, 35337, Note_off_c, 9, 36, 127
1, 35337, Note_off_c, 1, 39, 97
1, 35389, Note_off_c, 2, 39, 127
1, 35443, Note_off_c, 0, 27, 116
1, 35456, Note_on_c, 5, 49, 118
1, 35481, Note_off_c, 5, 49, 118
1, 35491, Note_off_c, 1, 27, 104
1, 35520, Note_on_c, 0, 54, 114
1, 35520, Note_on_c, 0, 49, 117
1, 35520, Note_on_c, 1, 39, 104
1, 35520, Note_on_c, 2, 51, 127
1, 35520, Note_on_c, 4, 63, 114
1, 35520, Note_on_c, 4, 75, 114
1, 35520, Note_on_c, 5, 51, 127
1, 35520, Note_on_c, 9, 42, 67
1, 35529, Note_off_c, 9, 42, 67
1, 35545, Note_off_c, 0, 49, 117
1, 35549, Note_off_c, 0, 54, 114
1, 35565, Note_off_c, 2, 51, 127
1, 35569, Note_off_c, 5, 51, 127
1, 35569, Note_off_c, 4, 75, 114
1, 35569, Note_off_c, 4, 63, 114
1, 35579, Note_off_c, 1, 39, 104
1, 35648, Note_on_c, 1, 27, 79
1, 35683, Note_off_c, 1, 27, 79
1, 35712, Note_on_c, 0, 39, 106
1, 35712, Note_on_c, 1, 37, 96
1, 35712, Note_on_c, 2, 49, 115
1, 35712, Note_on_c, 4, 61, 114
1, 35712, Note_on_c, 4, 73, 114
1, 35712, Note_on_c, 5, 49, 127
1, 35712, Note_on_c, 9, 39, 126
1, 35712, Note_on_c, 9, 40, 127
1, 35712, Note_on_c, 9, 42, 124
1, 35712, Note_on_c, 9, 36, 127
1, 35721, Note_off_c, 9, 36, 127
1, 35721, Note_off_c, 9, 42, 124
1, 35721, Note_off_c, 9, 40, 127
1, 35721, Note_off_c, 9, 39, 126
1, 35743, Note_off_c, 5, 49, 127
1, 35783, Note_off_c, 0, 39, 106
1, 35805, Note_off_c, 4, 73, 114
1, 35805, Note_off_c, 4, 61, 114
1, 35833, Note_off_c, 2, 49, 115
1, 35840, Note_on_c, 0, 54, 90
1, 35840, Note_on_c, 1, 39, 98
1, 35840, Note_on_c, 2, 51, 94
1, 35840, Note_on_c, 4, 63, 114
1, 35840, Note_on_c, 4, 75, 114
1, 35843, Note_off_c, 1, 37, 96
1, 35859, Note_off_c, 0, 54, 90
1, 35881, Note_off_c, 2, 51, 94
1, 35887, Note_off_c, 4, 75, 114
1, 35887, Note_off_c, 4, 63, 114
1, 35904, Note_on_c, 0, 27, 109
1, 35904, Note_on_c, 2, 39, 108
1, 35904, Note_on_c, 5, 51, 127
1, 35904, Note_on_c, 9, 42, 73
1, 35913, Note_off_c, 9, 42, 73
1, 35913, Note_off_c, 1, 39, 98
1, 35943, Note_off_c, 2, 39, 108
1, 35955, Note_off_c, 0, 27, 109
1, 35957, Note_off_c, 5, 51, 127
1, 36032, Note_on_c, 1, 37, 77
1, 36069, Note_off_c, 1, 37, 77
1, 36096, Note_on_c, 1, 44, 105
1, 36096, Note_on_c, 2, 46, 117
1, 36096, Note_on_c, 2, 45, 120
1, 36096, Note_on_c, 4, 70, 114
1, 36096, Note_on_c, 4, 82, 114
1, 36096, Note_on_c, 5, 58, 123
1, 36096, Note_on_c, 9, 36, 127
1, 36096, Note_on_c, 9, 42, 107
1, 36105, Note_off_c, 9, 42, 107
1, 36105, Note_off_c, 9, 36, 127
1, 36108, Note_on_c, 3, 61, 127
1, 36117, Pitch_bend_c, 1, 9728
1, 36127, Pitch_bend_c, 1, 13184
1, 36131, Note_off_c, 2, 45, 120
1, 36135, Pitch_bend_c, 1, 16383
1, 36141, Note_off_c, 3, 61, 127
1, 36151, Note_off_c, 5, 58, 123
1, 36153, Note_off_c, 4, 82, 114
1, 36153, Note_off_c, 4, 70, 114
1, 36189, Note_off_c, 1, 44, 105
1, 36212, Note_on_c, 3, 58, 127
1, 36213, Pitch_bend_c, 1, 15648
1, 36223, Control_c, 3, 1, 13
1, 36225, Pitch_bend_c, 1, 13792
1, 36235, Pitch_bend_c, 1, 10112
1, 36239, Control_c, 3, 1, 26
1, 36251, Pitch_bend_c, 1, 8448
1, 36255, Note_off_c, 2, 46, 117
1, 36259, Control_c, 3, 1, 32
1, 36261, Pitch_bend_c, 1, 8192
1, 36273, Control_c, 3, 1, 35
1, 36288, Note_on_c, 1, 42, 107
1, 36288, Note_on_c, 2, 49, 87
1, 36288, Note_on_c, 4, 68, 114
1, 36288, Note_on_c, 4, 80, 114
1, 36288, Note_on_c, 5, 56, 127
1, 36288, Note_on_c, 9, 42, 78
1, 36288, Note_on_c, 9, 36, 127
1, 36289, Control_c, 3, 1, 38
1, 36297, Note_off_c, 9, 36, 127
1, 36297, Note_off_c, 9, 42, 78
1, 36311, Control_c, 3, 1, 42
1, 36327, Control_c, 3, 1, 43
1, 36339, Note_off_c, 4, 80, 114
1, 36339, Note_off_c, 4, 68, 114
1, 36347, Control_c, 3, 1, 44
1, 36349, Note_off_c, 5, 56, 127
1, 36369, Note_off_c, 2, 49, 87
1, 36379, Note_off_c, 1, 42, 107
1, 36416, Note_on_c, 2, 45, 109
1, 36416, Note_on_c, 2, 46, 92
1, 36417, Control_c, 3, 1, 48
1, 36433, Control_c, 3, 1, 55
1, 36453, Note_off_c, 3, 58, 127
1, 36463, Note_off_c, 2, 46, 92
1, 36463, Control_c, 3, 1, 52
1, 36477, Control_c, 3, 1, 46
1, 36480, Note_on_c, 1, 42, 100
1, 36480, Note_on_c, 2, 44, 85
1, 36480, Note_on_c, 4, 66, 114
1, 36480, Note_on_c, 4, 78, 114
1, 36480, Note_on_c, 5, 54, 127
1, 36480, Note_on_c, 9, 39, 127
1, 36480, Note_on_c, 9, 40, 127
1, 36480, Note_on_c, 9, 42, 127
1, 36480, Note_on_c, 9, 36, 127
1, 36485, Note_off_c, 2, 45, 109
1, 36487, Control_c, 3, 1, 28
1, 36489, Note_off_c, 9, 36, 127
1, 36489, Note_off_c, 9, 42, 127
1, 36489, Note_off_c, 9, 40, 127
1, 36489, Note_off_c, 9, 39, 127
1, 36492, Note_on_c, 3, 56, 127
1, 36525, Control_c, 3, 1, 23
1, 36535, Note_off_c, 5, 54, 127
1, 36543, Note_off_c, 4, 78, 114
1, 36543, Note_off_c, 4, 66, 114
1, 36543, Control_c, 3, 1, 23
1, 36561, Control_c, 3, 1, 22
1, 36585, Note_off_c, 2, 44, 85
1, 36597, Control_c, 3, 1, 19
1, 36608, Note_on_c, 2, 42, 95
1, 36617, Control_c, 3, 1, 18
1, 36639, Note_off_c, 3, 56, 127
1, 36647, Note_off_c, 1, 42, 100
1, 36653, Note_off_c, 2, 42, 95
1, 36672, Note_on_c, 0, 49, 127
1, 36672, Note_on_c, 1, 39, 93
1, 36672, Note_on_c, 2, 44, 95
1, 36672, Note_on_c, 5, 56, 126
1, 36672, Note_on_c, 9, 42, 71
1, 36672, Note_on_c, 9, 36, 127
1, 36680, Note_on_c, 3, 54, 102
1, 36681, Note_off_c, 9, 36, 127
1, 36681, Note_off_c, 9, 42, 71
1, 36705, Control_c, 3, 1, 21
1, 36713, Note_off_c, 3, 54, 102
1, 36735, Note_off_c, 5, 56, 126
1, 36749, Control_c, 3, 1, 20
1, 36759, Control_c, 3, 1, 23
1, 36769, Note_off_c, 2, 44, 95
1, 36779, Control_c, 3, 1, 24
1, 36781, Note_off_c, 1, 39, 93
1, 36792, Note_on_c, 3, 56, 127
1, 36800, Note_on_c, 1, 37, 89
1, 36800, Note_on_c, 2, 42, 88
1, 36800, Note_on_c, 5, 54, 127
1, 36803, Control_c, 3, 1, 28
1, 36811, Control_c, 3, 1, 33
1, 36833, Control_c, 3, 1, 35
1, 36841, Note_off_c, 2, 42, 88
1, 36845, Note_off_c, 5, 54, 127
1, 36849, Note_off_c, 1, 37, 89
1, 36851, Control_c, 3, 1, 37
1, 36853, Note_off_c, 0, 49, 127
1, 36864, Note_on_c, 0, 27, 119
1, 36864, Note_on_c, 1, 27, 88
1, 36864, Note_on_c, 1, 29, 97
1, 36864, Note_on_c, 2, 39, 127
1, 36864, Note_on_c, 9, 36, 127
1, 36864, Note_on_c, 9, 42, 115
1, 36873, Note_off_c, 9, 42, 115
1, 36873, Note_off_c, 9, 36, 127
1, 36877, Note_off_c, 1, 29, 97
1, 36877, Control_c, 3, 1, 39
1, 36887, Control_c, 3, 1, 41
1, 36907, Control_c, 3, 1, 42
1, 36957, Control_c, 3, 1, 44
1, 37003, Control_c, 3, 1, 43
1, 37007, Note_off_c, 0, 27, 119
1, 37017, Note_off_c, 2, 39, 127
1, 37023, Control_c, 3, 1, 44
1, 37027, Control_c, 3, 1, 46
1, 37035, Note_off_c, 3, 56, 127
1, 37045, Control_c, 3, 1, 47
1, 37052, Note_on_c, 3, 54, 119
1, 37056, Note_on_c, 0, 49, 125
1, 37056, Note_on_c, 0, 54, 123
1, 37056, Note_on_c, 1, 39, 107
1, 37056, Note_on_c, 2, 51, 117
1, 37056, Note_on_c, 4, 63, 114
1, 37056, Note_on_c, 4, 75, 114
1, 37056, Note_on_c, 5, 51, 127
1, 37056, Note_on_c, 9, 42, 57
1, 37063, Note_off_c, 1, 27, 88
1, 37065, Note_off_c, 9, 42, 57
1, 37071, Control_c, 3, 1, 53
1, 37075, Note_off_c, 0, 54, 123
1, 37083, Control_c, 3, 1, 55
1, 37091, Note_off_c, 0, 49, 125
1, 37105, Note_off_c, 5, 51, 127
1, 37107, Note_off_c, 2, 51, 117
1, 37107, Control_c, 3, 1, 51
1, 37109, Note_off_c, 3, 54, 119
1, 37121, Control_c, 3, 1, 38
1, 37129, Note_off_c, 1, 39, 107
1, 37141, Control_c, 3, 1, 30
1, 37149, Note_off_c, 4, 75, 114
1, 37149, Note_off_c, 4, 63, 114
1, 37155, Control_c, 3, 1, 10
1, 37177, Control_c, 3, 1, 0
1, 37184, Note_on_c, 1, 27, 69
1, 37184, Note_on_c, 2, 39, 75
1, 37195, Note_off_c, 2, 39, 75
1, 37203, Note_off_c, 1, 27, 69
1, 37248, Note_on_c, 0, 39, 96
1, 37248, Note_on_c, 1, 37, 101
1, 37248, Note_on_c, 2, 49, 112
1, 37248, Note_on_c, 9, 39, 124
1, 37248, Note_on_c, 9, 40, 127
1, 37248, Note_on_c, 9, 42, 126
1, 37248, Note_on_c, 9, 36, 127
1, 37257, Note_off_c, 9, 36, 127
1, 37257, Note_off_c, 9, 42, 126
1, 37257, Note_off_c, 9, 40, 127
1, 37257, Note_off_c, 9, 39, 124
1, 37319, Note_off_c, 0, 39, 96
1, 37327, Note_off_c, 2, 49, 112
1, 37351, Note_off_c, 1, 37, 101
1, 37376, Note_on_c, 0, 54, 111
1, 37376, Note_on_c, 1, 39, 90
1, 37376, Note_on_c, 2, 51, 92
1, 37376, Note_on_c, 4, 63, 114
1, 37376, Note_on_c, 4, 75, 114
1, 37376, Note_on_c, 5, 49, 108
1, 37393, Note_off_c, 5, 49, 108
1, 37399, Note_off_c, 0, 54, 111
1, 37407, Note_off_c, 2, 51, 92
1, 37419, Note_off_c, 1, 39, 90
1, 37440, Note_on_c, 0, 27, 88
1, 37440, Note_on_c, 1, 27, 98
1, 37440, Note_on_c, 2, 39, 127
1, 37440, Note_on_c, 5, 51, 127
1, 37440, Note_on_c, 9, 42, 66
1, 37449, Note_off_c, 9, 42, 66
1, 37469, Note_off_c, 4, 75, 114
1, 37469, Note_off_c, 4, 63, 114
1, 37475, Note_off_c, 2, 39, 127
1, 37487, Note_off_c, 5, 51, 127
1, 37487, Note_off_c, 0, 27, 88
1, 37573, Note_off_c, 1, 27, 98
1, 37632, Note_on_c, 0, 57, 127
1, 37632, Note_on_c, 0, 58, 127
1, 37632, Note_on_c, 0, 56, 118
1, 37632, Note_on_c, 0, 61, 125
1, 37632, Note_on_c, 1, 30, 118
1, 37632, Note_on_c, 2, 54, 108
1, 37632, Note_on_c, 2, 49, 108
1, 37632, Note_on_c, 4, 54, 114
1, 37632, Note_on_c, 4, 66, 114
1, 37632, Note_on_c, 5, 49, 124
1, 37632, Note_on_c, 9, 36, 127
1, 37632, Note_on_c, 9, 42, 110
1, 37641, Note_off_c, 9, 42, 110
1, 37641, Note_off_c, 9, 36, 127
1, 37659, Note_off_c, 5, 49, 124
1, 37661, Note_off_c, 2, 54, 108
1, 37661, Note_off_c, 0, 56, 118
1, 37675, Note_off_c, 0, 58, 127
1, 37679, Note_off_c, 2, 49, 108
1, 37689, Note_off_c, 0, 57, 127
1, 37719, Note_off_c, 1, 30, 118
1, 37725, Note_off_c, 4, 66, 114
1, 37725, Note_off_c, 4, 54, 114
1, 37760, Note_on_c, 1, 32, 79
1, 37760, Note_on_c, 4, 56, 114
1, 37760, Note_on_c, 4, 68, 114
1, 37773, Note_off_c, 0, 61, 125
1, 37819, Note_off_c, 1, 32, 79
1, 37824, Note_on_c, 0, 56, 118
1, 37824, Note_on_c, 0, 61, 100
1, 37824, Note_on_c, 1, 34, 93
1, 37824, Note_on_c, 4, 58, 114
1, 37824, Note_on_c, 4, 70, 114
1, 37824, Note_on_c, 9, 42, 76
1, 37833, Note_off_c, 9, 42, 76
1, 37843, Note_off_c, 0, 61, 100
1, 37853, Note_off_c, 4, 68, 114
1, 37853, Note_off_c, 4, 56, 114
1, 37867, Note_off_c, 0, 56, 118
1, 37897, Note_off_c, 1, 34, 93
1, 37917, Note_off_c, 4, 70, 114
1, 37917, Note_off_c, 4, 58, 114
1, 37952, Note_on_c, 1, 37, 102
1, 37952, Note_on_c, 2, 54, 108
1, 37952, Note_on_c, 2, 49, 110
1, 37952, Note_on_c, 4, 61, 114
1, 37952, Note_on_c, 4, 73, 114
1, 37952, Note_on_c, 5, 51, 124
1, 37952, Note_on_c, 9, 46, 91
1, 37961, Note_off_c, 9, 46, 91
1, 37991, Note_off_c, 5, 51, 124
1, 37995, Note_off_c, 2, 54, 108
1, 37999, Note_off_c, 2, 49, 110
1, 38016, Note_on_c, 0, 54, 127
1, 38016, Note_on_c, 9, 39, 127
1, 38016, Note_on_c, 9, 40, 127
1, 38016, Note_on_c, 9, 42, 105
1, 38016, Note_on_c, 9, 36, 127
1, 38025, Note_off_c, 9, 36, 127
1, 38025, Note_off_c, 9, 42, 105
1, 38025, Note_off_c, 9, 40, 127
1, 38025, Note_off_c, 9, 39, 127
1, 38073, Note_off_c, 0, 54, 127
1, 38117, Note_off_c, 1, 37, 102
1, 38141, Note_off_c, 4, 73, 114
1, 38141, Note_off_c, 4, 61, 114
1, 38144, Note_on_c, 1, 34, 87
1, 38144, Note_on_c, 4, 58, 113
1, 38144, Note_on_c, 4, 70, 113
1, 38185, Note_off_c, 4, 70, 113
1, 38185, Note_off_c, 4, 58, 113
1, 38195, Note_off_c, 1, 34, 87
1, 38208, Note_on_c, 0, 56, 127
1, 38208, Note_on_c, 1, 39, 101
1, 38208, Note_on_c, 2, 54, 112
1, 38208, Note_on_c, 2, 49, 112
1, 38208, Note_on_c, 4, 63, 113
1, 38208, Note_on_c, 4, 75, 113
1, 38208, Note_on_c, 9, 42, 87
1, 38217, Note_off_c, 9, 42, 87
1, 38293, Note_off_c, 1, 39, 101
1, 38301, Note_off_c, 4, 75, 113
1, 38301, Note_off_c, 4, 63, 113
1, 38303, Note_off_c, 0, 56, 127
1, 38336, Note_on_c, 0, 54, 127
1, 38336, Note_on_c, 1, 39, 87
1, 38336, Note_on_c, 4, 63, 113
1, 38336, Note_on_c, 4, 75, 113
1, 38377, Note_off_c, 0, 54, 127
1, 38387, Note_off_c, 4, 75, 113
1, 38387, Note_off_c, 4, 63, 113
1, 38387, Note_off_c, 2, 54, 112
1, 38400, Note_on_c, 0, 27, 110
1, 38400, Note_on_c, 1, 27, 107
1, 38400, Note_on_c, 2, 39, 111
1, 38400, Note_on_c, 9, 42, 84
1, 38400, Note_on_c, 9, 36, 127
1, 38409, Note_off_c, 9, 36, 127
1, 38409, Note_off_c, 9, 42, 84
1, 38409, Note_off_c, 2, 49, 112
1, 38421, Note_off_c, 1, 39, 87
1, 38517, Note_off_c, 2, 39, 111
1, 38553, Note_off_c, 0, 27, 110
1, 38575, Note_off_c, 1, 27, 107
1, 38592, Note_on_c, 0, 54, 112
1, 38592, Note_on_c, 0, 49, 118
1, 38592, Note_on_c, 1, 39, 107
1, 38592, Note_on_c, 2, 51, 114
1, 38592, Note_on_c, 4, 63, 113
1, 38592, Note_on_c, 4, 75, 113
1, 38592, Note_on_c, 5, 49, 114
1, 38592, Note_on_c, 9, 42, 78
1, 38601, Note_off_c, 9, 42, 78
1, 38611, Note_off_c, 5, 49, 114
1, 38611, Note_off_c, 0, 49, 118
1, 38623, Note_off_c, 0, 54, 112
1, 38641, Note_off_c, 4, 75, 113
1, 38641, Note_off_c, 4, 63, 113
1, 38645, Note_off_c, 2, 51, 114
1, 38661, Note_off_c, 1, 39, 107
1, 38720, Note_on_c, 1, 27, 72
1, 38720, Note_on_c, 5, 51, 127
1, 38757, Note_off_c, 1, 27, 72
1, 38761, Note_off_c, 5, 51, 127
1, 38784, Note_on_c, 0, 39, 110
1, 38784, Note_on_c, 1, 37, 102
1, 38784, Note_on_c, 2, 49, 121
1, 38784, Note_on_c, 4, 61, 113
1, 38784, Note_on_c, 4, 73, 113
1, 38784, Note_on_c, 9, 39, 127
1, 38784, Note_on_c, 9, 42, 120
1, 38784, Note_on_c, 9, 40, 126
1, 38784, Note_on_c, 9, 36, 127
1, 38793, Note_off_c, 9, 36, 127
1, 38793, Note_off_c, 9, 40, 126
1, 38793, Note_off_c, 9, 42, 120
1, 38793, Note_off_c, 9, 39, 127
1, 38867, Note_off_c, 0, 39, 110
1, 38877, Note_off_c, 4, 73, 113
1, 38877, Note_off_c, 4, 61, 113
1, 38893, Note_off_c, 1, 37, 102
1, 38912, Note_on_c, 0, 54, 111
1, 38912, Note_on_c, 0, 49, 115
1, 38912, Note_on_c, 1, 39, 101
1, 38912, Note_on_c, 4, 63, 113
1, 38912, Note_on_c, 4, 75, 113
1, 38912, Note_on_c, 5, 49, 105
1, 38921, Note_off_c, 2, 49, 121
1, 38927, Note_off_c, 5, 49, 105
1, 38931, Note_off_c, 0, 49, 115
1, 38943, Note_off_c, 0, 54, 111
1, 38959, Note_off_c, 4, 75, 113
1, 38959, Note_off_c, 4, 63, 113
1, 38969, Note_off_c, 1, 39, 101
1, 38976, Note_on_c, 0, 27, 118
1, 38976, Note_on_c, 2, 51, 110
1, 38976, Note_on_c, 5, 51, 127
1, 38976, Note_on_c, 9, 42, 70
1, 38976, Note_on_c, 9, 36, 127
1, 38985, Note_off_c, 9, 36, 127
1, 38985, Note_off_c, 9, 42, 70
1, 39023, Note_off_c, 5, 51, 127
1, 39033, Note_off_c, 2, 51, 110
1, 39129, Note_off_c, 0, 27, 118
1, 39168, Note_on_c, 0, 49, 109
1, 39168, Note_on_c, 0, 54, 98
1, 39168, Note_on_c, 1, 44, 102
1, 39168, Note_on_c, 2, 44, 110
1, 39168, Note_on_c, 4, 70, 113
1, 39168, Note_on_c, 4, 82, 113
1, 39168, Note_on_c, 5, 56, 122
1, 39168, Note_on_c, 9, 42, 113
1, 39168, Note_on_c, 9, 36, 127
1, 39177, Note_off_c, 9, 36, 127
1, 39177, Note_off_c, 9, 42, 113
1, 39177, Note_off_c, 0, 54, 98
1, 39201, Pitch_bend_c, 1, 10688
1, 39203, Note_off_c, 0, 49, 109
1, 39217, Note_off_c, 5, 56, 122
1, 39217, Pitch_bend_c, 1, 11456
1, 39225, Note_off_c, 4, 82, 113
1, 39225, Note_off_c, 4, 70, 113
1, 39227, Note_off_c, 2, 44, 110
1, 39231, Pitch_bend_c, 1, 14144
1, 39253, Pitch_bend_c, 1, 14432
1, 39261, Note_off_c, 1, 44, 102
1, 39261, Pitch_bend_c, 1, 14208
1, 39273, Pitch_bend_c, 1, 13888
1, 39285, Pitch_bend_c, 1, 12160
1, 39299, Pitch_bend_c, 1, 9344
1, 39319, Pitch_bend_c, 1, 8320
1, 39327, Pitch_bend_c, 1, 8192
1, 39360, Note_on_c, 0, 27, 107
1, 39360, Note_on_c, 1, 42, 100
1, 39360, Note_on_c, 2, 45, 105
1, 39360, Note_on_c, 4, 68, 113
1, 39360, Note_on_c, 4, 80, 113
1, 39360, Note_on_c, 5, 54, 121
1, 39360, Note_on_c, 9, 42, 75
1, 39366, Note_on_c, 3, 58, 127
1, 39369, Note_off_c, 9, 42, 75
1, 39399, Note_off_c, 3, 58, 127
1, 39407, Pitch_bend_c, 1, 8448
1, 39411, Note_off_c, 4, 80, 113
1, 39411, Note_off_c, 4, 68, 113
1, 39411, Pitch_bend_c, 1, 10784
1, 39413, Note_off_c, 5, 54, 121
1, 39427, Pitch_bend_c, 1, 14240
1, 39441, Note_off_c, 0, 27, 107
1, 39441, Pitch_bend_c, 1, 16383
1, 39455, Note_off_c, 2, 45, 105
1, 39469, Note_off_c, 1, 42, 100
1, 39474, Note_on_c, 3, 58, 127
1, 39483, Control_c, 3, 1, 7
1, 39488, Note_on_c, 2, 46, 98
1, 39493, Control_c, 3, 1, 25
1, 39495, Pitch_bend_c, 1, 14656
1, 39509, Pitch_bend_c, 1, 10944
1, 39511, Control_c, 3, 1, 33
1, 39523, Pitch_bend_c, 1, 8352
1, 39529, Control_c, 3, 1, 46
1, 39539, Pitch_bend_c, 1, 8192
1, 39549, Control_c, 3, 1, 57
1, 39552, Note_on_c, 1, 42, 109
1, 39552, Note_on_c, 4, 66, 113
1, 39552, Note_on_c, 4, 78, 113
1, 39552, Note_on_c, 5, 56, 125
1, 39552, Note_on_c, 9, 39, 124
1, 39552, Note_on_c, 9, 42, 127
1, 39552, Note_on_c, 9, 40, 127
1, 39552, Note_on_c, 9, 36, 127
1, 39559, Note_off_c, 2, 46, 98
1, 39561, Note_off_c, 9, 36, 127
1, 39561, Note_off_c, 9, 40, 127
1, 39561, Note_off_c, 9, 42, 127
1, 39561, Note_off_c, 9, 39, 124
1, 39565, Control_c, 3, 1, 61
1, 39583, Control_c, 3, 1, 68
1, 39603, Control_c, 3, 1, 77
1, 39615, Note_off_c, 4, 78, 113
1, 39615, Note_off_c, 4, 66, 113
1, 39617, Note_off_c, 5, 56, 125
1, 39625, Control_c, 3, 1, 83
1, 39637, Control_c, 3, 1, 91
1, 39657, Control_c, 3, 1, 96
1, 39673, Control_c, 3, 1, 100
1, 39680, Note_on_c, 2, 49, 110
1, 39680, Note_on_c, 5, 54, 125
1, 39695, Control_c, 3, 1, 102
1, 39703, Note_off_c, 3, 58, 127
1, 39713, Control_c, 3, 1, 98
1, 39717, Control_c, 1, 1, 10
1, 39723, Note_off_c, 1, 42, 109
1, 39727, Control_c, 3, 1, 58
1, 39733, Control_c, 1, 1, 24
1, 39735, Note_off_c, 5, 54, 125
1, 39744, Note_on_c, 1, 39, 97
1, 39744, Note_on_c, 5, 51, 124
1, 39744, Note_on_c, 9, 42, 82
1, 39745, Control_c, 3, 1, 41
1, 39746, Note_on_c, 3, 58, 119
1, 39751, Control_c, 1, 1, 10
1, 39753, Note_off_c, 9, 42, 82
1, 39753, Note_off_c, 2, 49, 110
1, 39763, Control_c, 1, 1, 5
1, 39769, Control_c, 3, 1, 0
1, 39783, Control_c, 1, 1, 0
1, 39785, Note_off_c, 3, 58, 119
1, 39805, Note_off_c, 5, 51, 124
1, 39825, Note_off_c, 1, 39, 97
1, 39872, Note_on_c, 1, 37, 90
1, 39872, Note_on_c, 2, 51, 117
1, 39911, Note_off_c, 2, 51, 117
1, 39911, Note_off_c, 1, 37, 90
1, 39936, Note_on_c, 0, 56, 127
1, 39936, Note_on_c, 0, 50, 127
1, 39936, Note_on_c, 0, 34, 127
1, 39936, Note_on_c, 1, 34, 107
1, 39936, Note_on_c, 2, 56, 90
1, 39936, Note_on_c, 2, 62, 97
1, 39936, Note_on_c, 2, 34, 100
1, 39936, Note_on_c, 4, 65, 125
1, 39936, Note_on_c, 9, 36, 127
1, 39936, Note_on_c, 9, 49, 84
1, 39937, Pitch_bend_c, 3, 2112
1, 39940, Note_on_c, 3, 65, 127
1, 39945, Note_off_c, 9, 49, 84
1, 39945, Note_off_c, 9, 36, 127
1, 39959, Pitch_bend_c, 3, 3200
1, 39979, Pitch_bend_c, 3, 5248
1, 39983, Note_off_c, 1, 34, 107
1, 39987, Pitch_bend_c, 3, 7552
1, 39993, Note_off_c, 0, 34, 127
1, 40005, Pitch_bend_c, 3, 7936
1, 40007, Pitch_bend_c, 3, 8192
1, 40043, Note_off_c, 2, 34, 100
1, 40064, Note_on_c, 1, 34, 107
1, 40064, Note_on_c, 5, 58, 127
1, 40089, Note_off_c, 2, 56, 90
1, 40101, Note_off_c, 2, 62, 97
1, 40105, Note_off_c, 5, 58, 127
1, 40128, Note_on_c, 0, 34, 121
1, 40128, Note_on_c, 2, 34, 97
1, 40128, Note_on_c, 9, 42, 77
1, 40137, Note_off_c, 9, 42, 77
1, 40161, Control_c, 3, 1, 4
1, 40165, Note_off_c, 0, 34, 121
1, 40167, Note_off_c, 2, 34, 97
1, 40179, Control_c, 3, 1, 8
1, 40187, Note_off_c, 1, 34, 107
1, 40195, Control_c, 3, 1, 13
1, 40215, Control_c, 3, 1, 17
1, 40221, Note_off_c, 3, 65, 127
1, 40231, Control_c, 3, 1, 23
1, 40251, Control_c, 3, 1, 26
1, 40256, Note_on_c, 1, 38, 107
1, 40256, Note_on_c, 2, 56, 85
1, 40256, Note_on_c, 2, 62, 94
1, 40256, Note_on_c, 5, 58, 123
1, 40267, Control_c, 3, 1, 28
1, 40283, Note_off_c, 5, 58, 123
1, 40285, Note_off_c, 2, 56, 85
1, 40287, Control_c, 3, 1, 31
1, 40297, Note_off_c, 2, 62, 94
1, 40318, Note_on_c, 3, 65, 127
1, 40320, Note_on_c, 2, 34, 107
1, 40320, Note_on_c, 9, 39, 126
1, 40320, Note_on_c, 9, 40, 127
1, 40320, Note_on_c, 9, 42, 122
1, 40320, Note_on_c, 9, 36, 127
1, 40320, Note_on_c, 9, 54, 99
1, 40329, Note_off_c, 9, 54, 99
1, 40329, Note_off_c, 9, 36, 127
1, 40329, Note_off_c, 9, 42, 122
1, 40329, Note_off_c, 9, 40, 127
1, 40329, Note_off_c, 9, 39, 126
1, 40335, Control_c, 3, 1, 33
1, 40343, Control_c, 3, 1, 34
1, 40357, Control_c, 3, 1, 37
1, 40359, Note_off_c, 1, 38, 107
1, 40375, Note_off_c, 2, 34, 107
1, 40375, Control_c, 3, 1, 40
1, 40433, Control_c, 3, 1, 41
1, 40448, Note_on_c, 1, 41, 107
1, 40448, Note_on_c, 5, 46, 116
1, 40449, Control_c, 3, 1, 44
1, 40461, Note_off_c, 4, 65, 125
1, 40471, Control_c, 3, 1, 26
1, 40479, Note_off_c, 5, 46, 116
1, 40487, Control_c, 3, 1, 0
1, 40499, Note_off_c, 3, 65, 127
1, 40508, Note_on_c, 3, 63, 109
1, 40512, Note_on_c, 0, 34, 127
1, 40512, Note_on_c, 2, 34, 97
1, 40512, Note_on_c, 9, 42, 62
1, 40515, Note_off_c, 0, 50, 127
1, 40519, Note_off_c, 0, 56, 127
1, 40521, Note_off_c, 9, 42, 62
1, 40543, Note_off_c, 3, 63, 109
1, 40555, Note_off_c, 0, 34, 127
1, 40557, Note_off_c, 1, 41, 107
1, 40561, Note_off_c, 2, 34, 97
1, 40634, Note_on_c, 3, 65, 124
1, 40640, Note_on_c, 1, 46, 107
1, 40647, Control_c, 3, 1, 37
1, 40667, Control_c, 3, 1, 62
1, 40681, Control_c, 3, 1, 60
1, 40699, Control_c, 3, 1, 36
1, 40704, Note_on_c, 0, 51, 127
1, 40704, Note_on_c, 0, 57, 127
1, 40704, Note_on_c, 0, 35, 127
1, 40704, Note_on_c, 1, 35, 107
1, 40704, Note_on_c, 2, 57, 97
1, 40704, Note_on_c, 2, 35, 113
1, 40704, Note_on_c, 2, 63, 98
1, 40704, Note_on_c, 4, 66, 125
1, 40704, Note_on_c, 5, 47, 127
1, 40704, Note_on_c, 9, 42, 117
1, 40704, Note_on_c, 9, 36, 127
1, 40713, Note_off_c, 9, 36, 127
1, 40713, Note_off_c, 9, 42, 117
1, 40719, Control_c, 3, 1, 13
1, 40721, Note_off_c, 1, 46, 107
1, 40735, Control_c, 3, 1, 3
1, 40743, Note_off_c, 0, 35, 127
1, 40743, Note_off_c, 3, 65, 124
1, 40749, Note_off_c, 5, 47, 127
1, 40755, Control_c, 3, 1, 0
1, 40767, Note_off_c, 2, 35, 113
1, 40815, Note_off_c, 1, 35, 107
1, 40832, Note_on_c, 1, 39, 107
1, 40832, Note_on_c, 5, 59, 109
1, 40845, Note_off_c, 2, 57, 97
1, 40857, Note_off_c, 5, 59, 109
1, 40891, Note_off_c, 2, 63, 98
1, 40896, Note_on_c, 0, 35, 124
1, 40896, Note_on_c, 2, 35, 110
1, 40896, Note_on_c, 9, 42, 63
1, 40905, Note_off_c, 9, 42, 63
1, 40915, Note_off_c, 1, 39, 107
1, 40931, Note_off_c, 0, 35, 124
1, 40947, Note_off_c, 2, 35, 110
1, 41024, Note_on_c, 1, 42, 107
1, 41024, Note_on_c, 2, 57, 99
1, 41024, Note_on_c, 2, 63, 101
1, 41024, Note_on_c, 5, 59, 127
1, 41063, Note_off_c, 5, 59, 127
1, 41073, Note_off_c, 2, 57, 99
1, 41088, Note_on_c, 0, 35, 118
1, 41088, Note_on_c, 2, 35, 110
1, 41088, Note_on_c, 9, 39, 122
1, 41088, Note_on_c, 9, 40, 127
1, 41088, Note_on_c, 9, 42, 126
1, 41088, Note_on_c, 9, 36, 127
1, 41088, Note_on_c, 9, 54, 106
1, 41091, Note_off_c, 2, 63, 101
1, 41097, Note_off_c, 9, 54, 106
1, 41097, Note_off_c, 9, 36, 127
1, 41097, Note_off_c, 9, 42, 126
1, 41097, Note_off_c, 9, 40, 127
1, 41097, Note_off_c, 9, 39, 122
1, 41107, Note_off_c, 1, 42, 107
1, 41111, Note_off_c, 0, 35, 118
1, 41135, Note_off_c, 2, 35, 110
1, 41203, Note_off_c, 4, 66, 125
1, 41216, Note_on_c, 1, 47, 107
1, 41216, Note_on_c, 5, 47, 119
1, 41257, Note_off_c, 5, 47, 119
1, 41280, Note_on_c, 0, 35, 127
1, 41280, Note_on_c, 2, 35, 106
1, 41280, Note_on_c, 9, 42, 64
1, 41284, Note_on_c, 3, 58, 127
1, 41289, Note_off_c, 9, 42, 64
1, 41297, Note_off_c, 1, 47, 107
1, 41309, Note_off_c, 0, 57, 127
1, 41317, Note_off_c, 0, 51, 127
1, 41337, Note_off_c, 3, 58, 127
1, 41337, Note_off_c, 0, 35, 127
1, 41345, Note_off_c, 2, 35, 106
1, 41408, Note_on_c, 1, 46, 106
1, 41408, Note_on_c, 5, 58, 114
1, 41427, Note_off_c, 5, 58, 114
1, 41429, Control_c, 3, 1, 1
1, 41437, Control_c, 3, 1, 25
1, 41466, Note_on_c, 3, 65, 127
1, 41472, Note_on_c, 0, 56, 127
1, 41472, Note_on_c, 0, 50, 125
1, 41472, Note_on_c, 0, 34, 127
1, 41472, Note_on_c, 2, 34, 113
1, 41472, Note_on_c, 2, 56, 100
1, 41472, Note_on_c, 2, 62, 106
1, 41472, Note_on_c, 4, 65, 125
1, 41472, Note_on_c, 5, 46, 114
1, 41472, Note_on_c, 9, 36, 127
1, 41472, Note_on_c, 9, 42, 109
1, 41479, Control_c, 3, 1, 56
1, 41481, Note_off_c, 9, 42, 109
1, 41481, Note_off_c, 9, 36, 127
1, 41493, Control_c, 3, 1, 63
1, 41501, Note_off_c, 1, 46, 106
1, 41513, Note_off_c, 5, 46, 114
1, 41513, Control_c, 3, 1, 67
1, 41531, Note_off_c, 2, 34, 113
1, 41535, Control_c, 3, 1, 69
1, 41537, Note_off_c, 0, 34, 127
1, 41545, Control_c, 3, 1, 72
1, 41567, Control_c, 3, 1, 75
1, 41581, Control_c, 3, 1, 78
1, 41600, Note_on_c, 1, 41, 106
1, 41600, Note_on_c, 5, 58, 127
1, 41619, Control_c, 3, 1, 81
1, 41629, Note_off_c, 5, 58, 127
1, 41661, Note_off_c, 2, 56, 100
1, 41663, Control_c, 3, 1, 78
1, 41664, Note_on_c, 0, 34, 127
1, 41664, Note_on_c, 2, 34, 97
1, 41664, Note_on_c, 9, 42, 67
1, 41673, Note_off_c, 9, 42, 67
1, 41673, Control_c, 3, 1, 71
1, 41677, Note_off_c, 2, 62, 106
1, 41683, Note_off_c, 1, 41, 106
1, 41689, Control_c, 3, 1, 62
1, 41709, Control_c, 3, 1, 56
1, 41715, Note_off_c, 2, 34, 97
1, 41715, Note_off_c, 0, 34, 127
1, 41727, Control_c, 3, 1, 47
1, 41743, Control_c, 3, 1, 41
1, 41763, Control_c, 3, 1, 38
1, 41767, Note_off_c, 3, 65, 127
1, 41781, Control_c, 3, 1, 43
1, 41792, Note_on_c, 1, 38, 106
1, 41792, Note_on_c, 2, 56, 101
1, 41792, Note_on_c, 2, 62, 104
1, 41792, Note_on_c, 5, 58, 125
1, 41797, Control_c, 3, 1, 49
1, 41813, Note_off_c, 5, 58, 125
1, 41815, Control_c, 3, 1, 54
1, 41833, Note_off_c, 2, 56, 101
1, 41835, Control_c, 3, 1, 56
1, 41845, Note_off_c, 2, 62, 104
1, 41852, Note_on_c, 3, 65, 127
1, 41856, Note_on_c, 0, 34, 127
1, 41856, Note_on_c, 2, 34, 107
1, 41856, Note_on_c, 9, 39, 126
1, 41856, Note_on_c, 9, 40, 127
1, 41856, Note_on_c, 9, 42, 124
1, 41856, Note_on_c, 9, 36, 127
1, 41856, Note_on_c, 9, 54, 108
1, 41859, Note_off_c, 1, 38, 106
1, 41865, Note_off_c, 9, 54, 108
1, 41865, Note_off_c, 9, 36, 127
1, 41865, Note_off_c, 9, 42, 124
1, 41865, Note_off_c, 9, 40, 127
1, 41865, Note_off_c, 9, 39, 126
1, 41865, Control_c, 3, 1, 63
1, 41873, Control_c, 3, 1, 66
1, 41911, Note_off_c, 0, 34, 127
1, 41913, Control_c, 3, 1, 64
1, 41923, Note_off_c, 2, 34, 107
1, 41929, Control_c, 3, 1, 61
1, 41933, Note_off_c, 3, 65, 127
1, 41941, Control_c, 3, 1, 58
1, 41951, Note_off_c, 4, 65, 125
1, 41968, Note_on_c, 3, 63, 122
1, 41973, Control_c, 3, 1, 52
1, 41977, Control_c, 3, 1, 43
1, 41984, Note_on_c, 1, 34, 106
1, 41984, Note_on_c, 5, 46, 123
1, 41997, Control_c, 3, 1, 30
1, 42015, Control_c, 3, 1, 18
1, 42017, Note_off_c, 3, 63, 122
1, 42023, Note_off_c, 5, 46, 123
1, 42047, Control_c, 3, 1, 20
1, 42048, Note_on_c, 0, 34, 127
1, 42048, Note_on_c, 2, 34, 98
1, 42048, Note_on_c, 9, 42, 73
1, 42053, Control_c, 3, 1, 27
1, 42057, Note_off_c, 9, 42, 73
1, 42071, Control_c, 3, 1, 33
1, 42087, Control_c, 3, 1, 41
1, 42093, Note_off_c, 2, 34, 98
1, 42095, Note_off_c, 1, 34, 106
1, 42095, Note_off_c, 0, 56, 127
1, 42103, Note_off_c, 0, 34, 127
1, 42103, Control_c, 3, 1, 50
1, 42121, Note_off_c, 0, 50, 125
1, 42125, Control_c, 3, 1, 56
1, 42128, Note_on_c, 3, 63, 122
1, 42139, Control_c, 3, 1, 58
1, 42159, Control_c, 3, 1, 66
1, 42176, Note_on_c, 1, 33, 106
1, 42176, Note_on_c, 2, 61, 87
1, 42176, Note_on_c, 2, 55, 92
1, 42176, Note_on_c, 5, 57, 112
1, 42177, Control_c, 3, 1, 68
1, 42195, Note_off_c, 5, 57, 112
1, 42199, Control_c, 3, 1, 65
1, 42223, Control_c, 3, 1, 67
1, 42237, Control_c, 3, 1, 72
1, 42240, Note_on_c, 0, 55, 127
1, 42240, Note_on_c, 0, 49, 127
1, 42240, Note_on_c, 0, 33, 127
1, 42240, Note_on_c, 2, 33, 104
1, 42240, Note_on_c, 4, 64, 125
1, 42240, Note_on_c, 5, 45, 117
1, 42240, Note_on_c, 9, 36, 127
1, 42240, Note_on_c, 9, 42, 107
1, 42249, Note_off_c, 9, 42, 107
1, 42249, Note_off_c, 9, 36, 127
1, 42257, Control_c, 3, 1, 73
1, 42267, Note_off_c, 3, 63, 122
1, 42269, Control_c, 3, 1, 74
1, 42281, Note_off_c, 5, 45, 117
1, 42285, Note_off_c, 0, 33, 127
1, 42289, Control_c, 3, 1, 77
1, 42301, Control_c, 3, 1, 79
1, 42314, Note_on_c, 3, 61, 127
1, 42327, Note_off_c, 2, 33, 104
1, 42329, Note_off_c, 1, 33, 106
1, 42343, Control_c, 3, 1, 80
1, 42368, Note_on_c, 1, 37, 106
1, 42368, Note_on_c, 5, 57, 119
1, 42371, Control_c, 3, 1, 78
1, 42377, Note_off_c, 3, 61, 127
1, 42377, Control_c, 3, 1, 69
1, 42395, Control_c, 3, 1, 64
1, 42399, Note_off_c, 5, 57, 119
1, 42409, Control_c, 3, 1, 65
1, 42431, Control_c, 3, 1, 68
1, 42432, Note_on_c, 0, 33, 121
1, 42432, Note_on_c, 2, 33, 106
1, 42432, Note_on_c, 9, 42, 78
1, 42432, Note_on_c, 9, 36, 127
1, 42441, Note_off_c, 9, 36, 127
1, 42441, Note_off_c, 9, 42, 78
1, 42441, Note_off_c, 1, 37, 106
1, 42445, Control_c, 3, 1, 71
1, 42465, Control_c, 3, 1, 70
1, 42481, Note_off_c, 2, 61, 87
1, 42487, Control_c, 3, 1, 60
1, 42491, Note_off_c, 0, 33, 121
1, 42493, Note_off_c, 2, 55, 92
1, 42495, Note_off_c, 2, 33, 106
1, 42501, Control_c, 3, 1, 51
1, 42510, Note_on_c, 3, 63, 127
1, 42541, Control_c, 3, 1, 62
1, 42555, Control_c, 3, 1, 64
1, 42560, Note_on_c, 1, 40, 106
1, 42560, Note_on_c, 2, 55, 99
1, 42560, Note_on_c, 2, 61, 103
1, 42560, Note_on_c, 5, 57, 127
1, 42571, Note_off_c, 3, 63, 127
1, 42577, Control_c, 3, 1, 65
1, 42587, Note_off_c, 5, 57, 127
1, 42591, Control_c, 3, 1, 52
1, 42609, Control_c, 3, 1, 10
1, 42615, Note_off_c, 2, 55, 99
1, 42619, Note_off_c, 2, 61, 103
1, 42624, Note_on_c, 0, 33, 125
1, 42624, Note_on_c, 2, 33, 104
1, 42624, Note_on_c, 9, 39, 127
1, 42624, Note_on_c, 9, 40, 127
1, 42624, Note_on_c, 9, 42, 127
1, 42624, Note_on_c, 9, 36, 127
1, 42624, Note_on_c, 9, 54, 112
1, 42631, Control_c, 3, 1, 0
1, 42633, Note_off_c, 9, 54, 112
1, 42633, Note_off_c, 9, 36, 127
1, 42633, Note_off_c, 9, 42, 127
1, 42633, Note_off_c, 9, 40, 127
1, 42633, Note_off_c, 9, 39, 127
1, 42647, Note_off_c, 1, 40, 106
1, 42681, Note_off_c, 4, 64, 125
1, 42685, Note_off_c, 0, 33, 125
1, 42691, Note_off_c, 2, 33, 104
1, 42698, Note_on_c, 3, 66, 127
1, 42743, Control_c, 3, 1, 5
1, 42751, Control_c, 3, 1, 19
1, 42752, Note_on_c, 1, 45, 106
1, 42752, Note_on_c, 5, 45, 118
1, 42769, Control_c, 3, 1, 47
1, 42789, Note_off_c, 5, 45, 118
1, 42793, Control_c, 3, 1, 62
1, 42805, Control_c, 3, 1, 74
1, 42816, Note_on_c, 0, 33, 114
1, 42816, Note_on_c, 2, 33, 104
1, 42816, Note_on_c, 9, 42, 71
1, 42816, Note_on_c, 9, 36, 127
1, 42825, Note_off_c, 9, 36, 127
1, 42825, Note_off_c, 9, 42, 71
1, 42827, Control_c, 3, 1, 79
1, 42835, Note_off_c, 0, 49, 127
1, 42839, Note_off_c, 0, 55, 127
1, 42843, Control_c, 3, 1, 82
1, 42847, Note_off_c, 0, 33, 114
1, 42847, Note_off_c, 1, 45, 106
1, 42859, Control_c, 3, 1, 87
1, 42877, Control_c, 3, 1, 88
1, 42881, Note_off_c, 2, 33, 104
1, 42931, Control_c, 3, 1, 90
1, 42944, Note_on_c, 1, 44, 106
1, 42944, Note_on_c, 5, 56, 93
1, 42951, Control_c, 3, 1, 91
1, 42963, Note_off_c, 5, 56, 93
1, 42975, Control_c, 3, 1, 88
1, 42987, Control_c, 3, 1, 83
1, 42999, Note_off_c, 1, 44, 106
1, 43003, Control_c, 3, 1, 73
1, 43008, Note_on_c, 0, 32, 127
1, 43008, Note_on_c, 0, 54, 127
1, 43008, Note_on_c, 0, 48, 127
1, 43008, Note_on_c, 1, 32, 106
1, 43008, Note_on_c, 2, 32, 113
1, 43008, Note_on_c, 4, 63, 125
1, 43008, Note_on_c, 4, 75, 125
1, 43008, Note_on_c, 5, 44, 121
1, 43008, Note_on_c, 9, 36, 123
1, 43008, Note_on_c, 9, 49, 91
1, 43017, Note_off_c, 9, 49, 91
1, 43017, Note_off_c, 9, 36, 123
1, 43021, Control_c, 3, 1, 57
1, 43023, Note_off_c, 3, 66, 127
1, 43039, Control_c, 3, 1, 27
1, 43041, Note_off_c, 5, 44, 121
1, 43059, Control_c, 3, 1, 16
1, 43084, Note_on_c, 3, 63, 127
1, 43087, Control_c, 3, 1, 19
1, 43095, Note_off_c, 1, 32, 106
1, 43099, Note_off_c, 0, 32, 127
1, 43117, Control_c, 3, 1, 28
1, 43135, Control_c, 3, 1, 31
1, 43136, Note_on_c, 1, 44, 106
1, 43136, Note_on_c, 5, 56, 127
1, 43151, Control_c, 3, 1, 32
1, 43159, Note_off_c, 5, 56, 127
1, 43163, Note_off_c, 3, 63, 127
1, 43165, Control_c, 3, 1, 33
1, 43175, Note_off_c, 1, 44, 106
1, 43193, Note_off_c, 2, 32, 113
1, 43196, Note_on_c, 3, 61, 123
1, 43200, Note_on_c, 0, 32, 120
1, 43200, Note_on_c, 1, 32, 106
1, 43200, Note_on_c, 2, 60, 74
1, 43200, Note_on_c, 2, 54, 72
1, 43200, Note_on_c, 5, 48, 127
1, 43200, Note_on_c, 9, 46, 92
1, 43200, Note_on_c, 9, 40, 104
1, 43209, Note_off_c, 9, 40, 104
1, 43209, Note_off_c, 9, 46, 92
1, 43215, Control_c, 3, 1, 35
1, 43217, Note_off_c, 2, 60, 74
1, 43221, Control_c, 3, 1, 38
1, 43239, Control_c, 3, 1, 33
1, 43241, Note_off_c, 5, 48, 127
1, 43249, Note_off_c, 2, 54, 72
1, 43257, Control_c, 3, 1, 28
1, 43263, Note_off_c, 3, 61, 123
1, 43267, Note_off_c, 0, 32, 120
1, 43272, Note_on_c, 3, 58, 112
1, 43275, Control_c, 3, 1, 27
1, 43305, Control_c, 3, 1, 19
1, 43307, Note_off_c, 1, 32, 106
1, 43313, Control_c, 3, 1, 17
1, 43328, Note_on_c, 9, 36, 114
1, 43335, Control_c, 3, 1, 18
1, 43337, Note_off_c, 9, 36, 114
1, 43343, Note_off_c, 3, 58, 112
1, 43345, Control_c, 3, 1, 21
1, 43363, Control_c, 3, 1, 26
1, 43382, Note_on_c, 3, 56, 116
1, 43392, Note_on_c, 0, 32, 113
1, 43392, Note_on_c, 1, 36, 105
1, 43392, Note_on_c, 2, 32, 100
1, 43392, Note_on_c, 5, 49, 127
1, 43392, Note_on_c, 9, 46, 83
1, 43392, Note_on_c, 9, 54, 110
1, 43393, Control_c, 3, 1, 31
1, 43401, Note_off_c, 9, 54, 110
1, 43401, Note_off_c, 9, 46, 83
1, 43401, Control_c, 3, 1, 37
1, 43419, Control_c, 3, 1, 40
1, 43425, Note_off_c, 5, 49, 127
1, 43431, Note_off_c, 2, 32, 100
1, 43435, Control_c, 3, 1, 43
1, 43437, Note_off_c, 0, 32, 113
1, 43451, Note_off_c, 0, 48, 127
1, 43461, Control_c, 3, 1, 44
1, 43462, Note_on_c, 3, 54, 127
1, 43463, Note_off_c, 3, 56, 116
1, 43481, Note_off_c, 0, 54, 127
1, 43491, Note_off_c, 1, 36, 105
1, 43493, Control_c, 3, 1, 51
1, 43511, Control_c, 3, 1, 47
1, 43520, Note_on_c, 0, 54, 127
1, 43520, Note_on_c, 2, 54, 92
1, 43520, Note_on_c, 2, 60, 100
1, 43525, Control_c, 3, 1, 40
1, 43541, Note_off_c, 2, 54, 92
1, 43557, Note_off_c, 2, 60, 100
1, 43563, Control_c, 3, 1, 44
1, 43579, Control_c, 3, 1, 48
1, 43584, Note_on_c, 0, 48, 127
1, 43584, Note_on_c, 0, 32, 124
1, 43584, Note_on_c, 1, 36, 105
1, 43584, Note_on_c, 5, 50, 127
1, 43584, Note_on_c, 9, 46, 80
1, 43584, Note_on_c, 9, 36, 127
1, 43593, Note_off_c, 9, 36, 127
1, 43593, Note_off_c, 9, 46, 80
1, 43593, Note_off_c, 0, 54, 127
1, 43605, Control_c, 3, 1, 49
1, 43615, Control_c, 3, 1, 51
1, 43623, Note_off_c, 5, 50, 127
1, 43639, Note_off_c, 0, 48, 127
1, 43641, Note_off_c, 0, 32, 124
1, 43647, Control_c, 3, 1, 50
1, 43661, Control_c, 3, 1, 51
1, 43669, Control_c, 3, 1, 59
1, 43681, Note_off_c, 1, 36, 105
1, 43689, Control_c, 3, 1, 69
1, 43705, Control_c, 3, 1, 75
1, 43712, Note_on_c, 2, 32, 84
1, 43723, Control_c, 3, 1, 80
1, 43741, Note_off_c, 2, 32, 84
1, 43743, Control_c, 3, 1, 83
1, 43759, Control_c, 3, 1, 86
1, 43776, Note_on_c, 0, 54, 127
1, 43776, Note_on_c, 0, 48, 122
1, 43776, Note_on_c, 0, 32, 127
1, 43776, Note_on_c, 1, 37, 105
1, 43776, Note_on_c, 2, 54, 100
1, 43776, Note_on_c, 2, 60, 101
1, 43776, Note_on_c, 5, 51, 127
1, 43776, Note_on_c, 9, 46, 101
1, 43776, Note_on_c, 9, 40, 111
1, 43783, Control_c, 3, 1, 88
1, 43785, Note_off_c, 9, 40, 111
1, 43785, Note_off_c, 9, 46, 101
1, 43795, Control_c, 3, 1, 91
1, 43813, Note_off_c, 5, 51, 127
1, 43821, Note_off_c, 0, 32, 127
1, 43829, Control_c, 3, 1, 92
1, 43831, Control_c, 3, 1, 94
1, 43849, Control_c, 3, 1, 96
1, 43869, Note_off_c, 1, 37, 105
1, 43873, Control_c, 3, 1, 94
1, 43889, Control_c, 3, 1, 92
1, 43904, Note_on_c, 1, 32, 105
1, 43911, Control_c, 3, 1, 95
1, 43925, Control_c, 3, 1, 98
1, 43927, Note_off_c, 2, 54, 100
1, 43939, Control_c, 3, 1, 87
1, 43941, Note_off_c, 2, 60, 101
1, 43945, Note_off_c, 3, 54, 127
1, 43951, Note_off_c, 1, 32, 105
1, 43957, Control_c, 3, 1, 66
1, 43959, Note_off_c, 0, 48, 122
1, 43966, Note_on_c, 3, 56, 123
1, 43968, Note_on_c, 0, 32, 112
1, 43968, Note_on_c, 1, 37, 105
1, 43968, Note_on_c, 2, 32, 98
1, 43968, Note_on_c, 5, 54, 127
1, 43968, Note_on_c, 9, 46, 107
1, 43977, Note_off_c, 9, 46, 107
1, 43983, Note_off_c, 0, 54, 127
1, 43989, Control_c, 3, 1, 2
1, 44003, Note_off_c, 2, 32, 98
1, 44003, Control_c, 3, 1, 0
1, 44007, Note_off_c, 0, 32, 112
1, 44019, Note_off_c, 5, 54, 127
1, 44035, Note_off_c, 3, 56, 123
1, 44061, Note_off_c, 1, 37, 105
1, 44096, Note_on_c, 0, 54, 127
1, 44096, Note_on_c, 0, 48, 119
1, 44096, Note_on_c, 2, 54, 93
1, 44096, Note_on_c, 2, 60, 107
1, 44096, Note_on_c, 9, 36, 116
1, 44105, Note_off_c, 9, 36, 116
1, 44125, Note_off_c, 2, 54, 93
1, 44127, Note_off_c, 0, 48, 119
1, 44139, Note_off_c, 2, 60, 107
1, 44149, Note_off_c, 0, 54, 127
1, 44160, Note_on_c, 0, 32, 125
1, 44160, Note_on_c, 1, 38, 105
1, 44160, Note_on_c, 5, 56, 118
1, 44160, Note_on_c, 9, 40, 126
1, 44160, Note_on_c, 9, 54, 110
1, 44169, Note_off_c, 9, 54, 110
1, 44169, Note_off_c, 9, 40, 126
1, 44205, Note_off_c, 0, 32, 125
1, 44211, Note_off_c, 5, 56, 118
1, 44263, Note_off_c, 1, 38, 105
1, 44288, Note_on_c, 2, 54, 93
1, 44288, Note_on_c, 2, 60, 103
1, 44288, Note_on_c, 9, 45, 112
1, 44297, Note_off_c, 9, 45, 112
1, 44313, Note_off_c, 2, 54, 93
1, 44331, Note_off_c, 2, 60, 103
1, 44352, Note_on_c, 0, 32, 114
1, 44352, Note_on_c, 1, 39, 105
1, 44352, Note_on_c, 5, 57, 127
1, 44352, Note_on_c, 9, 41, 99
1, 44361, Note_off_c, 9, 41, 99
1, 44403, Note_off_c, 0, 32, 114
1, 44409, Note_off_c, 5, 57, 127
1, 44445, Note_off_c, 1, 39, 105
1, 44461, Note_off_c, 4, 75, 125
1, 44480, Note_on_c, 9, 36, 125
1, 44489, Note_off_c, 9, 36, 125
1, 44501, Note_off_c, 4, 63, 125
1, 44544, Note_on_c, 0, 34, 127
1, 44544, Note_on_c, 0, 70, 127
1, 44544, Note_on_c, 0, 58, 127
1, 44544, Note_on_c, 1, 34, 105
1, 44544, Note_on_c, 2, 62, 113
1, 44544, Note_on_c, 2, 66, 108
1, 44544, Note_on_c, 4, 78, 125
1, 44544, Note_on_c, 4, 82, 125
1, 44544, Note_on_c, 5, 58, 127
1, 44544, Note_on_c, 9, 49, 118
1, 44544, Note_on_c, 9, 40, 127
1, 44553, Note_off_c, 9, 40, 127
1, 44553, Note_off_c, 9, 49, 118
1, 44595, Note_off_c, 5, 58, 127
1, 44608, Note_on_c, 4, 66, 125
1, 44693, Note_off_c, 1, 34, 105
1, 44701, Note_off_c, 2, 62, 113
1, 44709, Note_off_c, 0, 58, 127
1, 44715, Note_off_c, 2, 66, 108
1, 44729, Note_off_c, 0, 70, 127
1, 44733, Note_off_c, 0, 34, 127
1, 44761, Note_off_c, 4, 82, 125
1, 44777, Note_off_c, 4, 78, 125
1, 44807, Control_c, 3, 1, 10
1, 44819, Note_off_c, 4, 66, 125
1, 44823, Control_c, 3, 1, 16
1, 44841, Control_c, 3, 1, 19
1, 44883, Control_c, 3, 1, 21
1, 44899, Control_c, 3, 1, 23
1, 44911, Control_c, 3, 1, 29
1, 44928, Note_on_c, 9, 54, 106
1, 44931, Control_c, 3, 1, 31
1, 44932, Note_on_c, 3, 66, 120
1, 44937, Note_off_c, 9, 54, 106
1, 44951, Control_c, 3, 1, 44
1, 44965, Control_c, 3, 1, 50
1, 44967, Note_off_c, 3, 66, 120
1, 44983, Control_c, 3, 1, 56
1, 45003, Control_c, 3, 1, 58
1, 45006, Note_on_c, 3, 66, 126
1, 45043, Control_c, 3, 1, 60
1, 45059, Control_c, 3, 1, 67
1, 45075, Control_c, 3, 1, 70
1, 45091, Control_c, 3, 1, 72
1, 45109, Control_c, 3, 1, 75
1, 45120, Note_on_c, 9, 40, 127
1, 45129, Note_off_c, 9, 40, 127
1, 45129, Control_c, 3, 1, 77
1, 45151, Control_c, 3, 1, 80
1, 45163, Control_c, 3, 1, 84
1, 45201, Control_c, 3, 1, 81
1, 45217, Control_c, 3, 1, 79
1, 45243, Control_c, 3, 1, 82
1, 45259, Control_c, 3, 1, 84
1, 45269, Note_off_c, 3, 66, 126
1, 45277, Control_c, 3, 1, 85
1, 45297, Control_c, 3, 1, 80
1, 45311, Control_c, 3, 1, 73
1, 45316, Note_on_c, 3, 63, 127
1, 45339, Control_c, 3, 1, 53
1, 45345, Control_c, 3, 1, 41
1, 45351, Note_off_c, 3, 63, 127
1, 45363, Control_c, 3, 1, 25
1, 45381, Control_c, 3, 1, 19
1, 45397, Control_c, 3, 1, 13
1, 45419, Control_c, 3, 1, 6
1, 45436, Note_on_c, 3, 57, 127
1, 45440, Note_on_c, 9, 40, 111
1, 45449, Note_off_c, 9, 40, 111
1, 45449, Control_c, 3, 1, 0
1, 45481, Control_c, 3, 1, 7
1, 45489, Control_c, 3, 1, 30
1, 45504, Note_on_c, 9, 45, 127
1, 45505, Control_c, 3, 1, 60
1, 45513, Note_off_c, 9, 45, 127
1, 45523, Control_c, 3, 1, 97
1, 45549, Control_c, 3, 1, 110
1, 45561, Control_c, 3, 1, 117
1, 45579, Control_c, 3, 1, 114
1, 45595, Control_c, 3, 1, 93
1, 45617, Control_c, 3, 1, 68
1, 45637, Control_c, 3, 1, 43
1, 45649, Control_c, 3, 1, 8
1, 45653, Note_off_c, 3, 57, 127
1, 45671, Control_c, 3, 1, 0
1, 45694, Note_on_c, 3, 56, 127
1, 45696, Note_on_c, 9, 45, 127
1, 45696, Note_on_c, 9, 54, 106
1, 45705, Note_off_c, 9, 54, 106
1, 45705, Note_off_c, 9, 45, 127
1, 45719, Control_c, 3, 1, 1
1, 45723, Control_c, 3, 1, 4
1, 45739, Control_c, 3, 1, 12
1, 45765, Control_c, 3, 1, 17
1, 45777, Control_c, 3, 1, 20
1, 45793, Control_c, 3, 1, 24
1, 45815, Control_c, 3, 1, 25
1, 45824, Note_on_c, 1, 34, 104
1, 45824, Note_on_c, 2, 37, 88
1, 45824, Note_on_c, 9, 41, 94
1, 45833, Note_off_c, 9, 41, 94
1, 45835, Control_c, 3, 1, 19
1, 45847, Note_off_c, 3, 56, 127
1, 45849, Note_off_c, 2, 37, 88
1, 45849, Control_c, 3, 1, 12
1, 45853, Note_off_c, 1, 34, 104
1, 45869, Control_c, 3, 1, 9
1, 45883, Control_c, 3, 1, 4
1, 45888, Note_on_c, 1, 37, 104
1, 45888, Note_on_c, 2, 49, 112
1, 45900, Note_on_c, 3, 54, 86
1, 45903, Control_c, 3, 1, 2
1, 45923, Note_off_c, 3, 54, 86
1, 45931, Control_c, 3, 1, 0
1, 45953, Note_off_c, 2, 49, 112
1, 45957, Note_off_c, 1, 37, 104
1, 46000, Note_on_c, 3, 56, 127
1, 46016, Note_on_c, 1, 39, 104
1, 46016, Note_on_c, 2, 51, 101
1, 46016, Note_on_c, 9, 36, 116
1, 46025, Note_off_c, 9, 36, 116
1, 46057, Note_off_c, 2, 51, 101
1, 46059, Note_off_c, 1, 39, 104
1, 46065, Note_off_c, 3, 56, 127
1, 46080, Note_on_c, 0, 27, 122
1, 46080, Note_on_c, 1, 27, 105
1, 46080, Note_on_c, 2, 39, 127
1, 46080, Note_on_c, 9, 36, 127
1, 46080, Note_on_c, 9, 49, 84
1, 46080, Note_on_c, 9, 54, 89
1, 46089, Note_off_c, 9, 54, 89
1, 46089, Note_off_c, 9, 49, 84
1, 46089, Note_off_c, 9, 36, 127
1, 46115, Control_c, 3, 1, 2
1, 46119, Control_c, 3, 1, 6
1, 46135, Control_c, 3, 1, 10
1, 46159, Control_c, 3, 1, 13
1, 46175, Control_c, 3, 1, 17
1, 46191, Control_c, 3, 1, 23
1, 46211, Control_c, 3, 1, 30
1, 46221, Note_off_c, 2, 39, 127
1, 46227, Control_c, 3, 1, 36
1, 46231, Note_off_c, 1, 27, 105
1, 46243, Control_c, 3, 1, 45
1, 46253, Note_off_c, 0, 27, 122
1, 46263, Control_c, 3, 1, 51
1, 46272, Note_on_c, 0, 39, 114
1, 46272, Note_on_c, 1, 39, 98
1, 46272, Note_on_c, 2, 51, 115
1, 46272, Note_on_c, 4, 63, 116
1, 46272, Note_on_c, 4, 75, 116
1, 46272, Note_on_c, 5, 51, 112
1, 46272, Note_on_c, 9, 42, 77
1, 46272, Note_on_c, 9, 54, 53
1, 46279, Control_c, 3, 1, 57
1, 46281, Note_off_c, 9, 54, 53
1, 46281, Note_off_c, 9, 42, 77
1, 46285, Note_off_c, 5, 51, 112
1, 46305, Control_c, 3, 1, 43
1, 46315, Note_off_c, 0, 39, 114
1, 46317, Control_c, 3, 1, 13
1, 46323, Note_off_c, 2, 51, 115
1, 46335, Control_c, 3, 1, 0
1, 46337, Note_off_c, 1, 39, 98
1, 46365, Note_off_c, 4, 75, 116
1, 46365, Note_off_c, 4, 63, 116
1, 46400, Note_on_c, 1, 27, 61
1, 46415, Pitch_bend_c, 3, 4544
1, 46433, Note_off_c, 1, 27, 61
1, 46437, Pitch_bend_c, 3, 448
1, 46449, Pitch_bend_c, 3, 0
1, 46464, Note_on_c, 0, 54, 114
1, 46464, Note_on_c, 0, 49, 100
1, 46464, Note_on_c, 1, 37, 92
1, 46464, Note_on_c, 2, 49, 106
1, 46464, Note_on_c, 3, 63, 127
1, 46464, Note_on_c, 9, 39, 126
1, 46464, Note_on_c, 9, 40, 127
1, 46464, Note_on_c, 9, 42, 122
1, 46464, Note_on_c, 9, 36, 127
1, 46464, Note_on_c, 9, 54, 112
1, 46473, Note_off_c, 9, 54, 112
1, 46473, Note_off_c, 9, 36, 127
1, 46473, Note_off_c, 9, 42, 122
1, 46473, Note_off_c, 9, 40, 127
1, 46473, Note_off_c, 9, 39, 126
1, 46479, Note_off_c, 0, 49, 100
1, 46483, Pitch_bend_c, 3, 4800
1, 46491, Note_off_c, 0, 54, 114
1, 46503, Pitch_bend_c, 3, 8000
1, 46517, Pitch_bend_c, 3, 8192
1, 46563, Note_off_c, 1, 37, 92
1, 46577, Note_off_c, 2, 49, 106
1, 46592, Note_on_c, 1, 39, 90
1, 46592, Note_on_c, 2, 51, 88
1, 46592, Note_on_c, 4, 63, 116
1, 46592, Note_on_c, 4, 75, 116
1, 46592, Note_on_c, 5, 49, 107
1, 46613, Note_off_c, 5, 49, 107
1, 46625, Control_c, 3, 1, 3
1, 46631, Note_off_c, 2, 51, 88
1, 46639, Control_c, 3, 1, 11
1, 46641, Note_off_c, 1, 39, 90
1, 46656, Note_on_c, 0, 39, 117
1, 46656, Note_on_c, 1, 27, 97
1, 46656, Note_on_c, 2, 39, 111
1, 46656, Note_on_c, 5, 51, 118
1, 46656, Note_on_c, 9, 42, 62
1, 46656, Note_on_c, 9, 54, 61
1, 46659, Control_c, 3, 1, 19
1, 46665, Note_off_c, 9, 54, 61
1, 46665, Note_off_c, 9, 42, 62
1, 46679, Control_c, 3, 1, 33
1, 46681, Note_off_c, 2, 39, 111
1, 46685, Note_off_c, 4, 75, 116
1, 46685, Note_off_c, 4, 63, 116
1, 46699, Control_c, 3, 1, 40
1, 46701, Note_off_c, 5, 51, 118
1, 46711, Control_c, 3, 1, 48
1, 46727, Note_off_c, 0, 39, 117
1, 46731, Control_c, 3, 1, 54
1, 46747, Control_c, 3, 1, 63
1, 46767, Control_c, 3, 1, 70
1, 46784, Note_on_c, 5, 54, 127
1, 46787, Control_c, 3, 1, 74
1, 46795, Note_off_c, 1, 27, 97
1, 46803, Control_c, 3, 1, 77
1, 46815, Note_off_c, 5, 54, 127
1, 46819, Control_c, 3, 1, 79
1, 46848, Note_on_c, 0, 54, 127
1, 46848, Note_on_c, 0, 49, 125
1, 46848, Note_on_c, 1, 30, 104
1, 46848, Note_on_c, 2, 54, 112
1, 46848, Note_on_c, 2, 49, 107
1, 46848, Note_on_c, 4, 54, 116
1, 46848, Note_on_c, 4, 66, 116
1, 46848, Note_on_c, 9, 42, 117
1, 46848, Note_on_c, 9, 36, 127
1, 46848, Note_on_c, 9, 54, 104
1, 46857, Note_off_c, 9, 54, 104
1, 46857, Note_off_c, 9, 36, 127
1, 46857, Note_off_c, 9, 42, 117
1, 46871, Note_off_c, 2, 54, 112
1, 46887, Note_off_c, 2, 49, 107
1, 46897, Control_c, 3, 1, 77
1, 46913, Control_c, 3, 1, 76
1, 46931, Note_off_c, 1, 30, 104
1, 46941, Note_off_c, 4, 66, 116
1, 46941, Note_off_c, 4, 54, 116
1, 46941, Control_c, 3, 1, 75
1, 46949, Control_c, 3, 1, 43
1, 46969, Control_c, 3, 1, 5
1, 46976, Note_on_c, 1, 32, 74
1, 46976, Note_on_c, 4, 56, 116
1, 46976, Note_on_c, 4, 68, 116
1, 46976, Note_on_c, 5, 49, 114
1, 46981, Control_c, 3, 1, 0
1, 46999, Note_off_c, 5, 49, 114
1, 47001, Note_off_c, 3, 63, 127
1, 47015, Note_off_c, 0, 49, 125
1, 47032, Note_on_c, 3, 61, 108
1, 47039, Note_off_c, 0, 54, 127
1, 47040, Note_on_c, 1, 34, 93
1, 47040, Note_on_c, 2, 39, 88
1, 47040, Note_on_c, 4, 58, 116
1, 47040, Note_on_c, 4, 70, 116
1, 47040, Note_on_c, 5, 51, 127
1, 47040, Note_on_c, 9, 42, 63
1, 47040, Note_on_c, 9, 54, 51
1, 47041, Note_off_c, 1, 32, 74
1, 47049, Note_off_c, 9, 54, 51
1, 47049, Note_off_c, 9, 42, 63
1, 47053, Note_off_c, 2, 39, 88
1, 47069, Note_off_c, 4, 68, 116
1, 47069, Note_off_c, 4, 56, 116
1, 47083, Note_off_c, 3, 61, 108
1, 47095, Note_off_c, 5, 51, 127
1, 47101, Note_off_c, 1, 34, 93
1, 47104, Note_on_c, 0, 39, 109
1, 47106, Note_on_c, 3, 58, 98
1, 47127, Note_off_c, 0, 39, 109
1, 47129, Note_off_c, 3, 58, 98
1, 47133, Note_off_c, 4, 70, 116
1, 47133, Note_off_c, 4, 58, 116
1, 47168, Note_on_c, 1, 37, 98
1, 47168, Note_on_c, 2, 51, 115
1, 47168, Note_on_c, 4, 61, 116
1, 47168, Note_on_c, 4, 73, 116
1, 47168, Note_on_c, 5, 54, 127
1, 47203, Note_off_c, 2, 51, 115
1, 47211, Note_off_c, 5, 54, 127
1, 47232, Note_on_c, 0, 56, 127
1, 47232, Note_on_c, 0, 51, 121
1, 47232, Note_on_c, 9, 39, 122
1, 47232, Note_on_c, 9, 40, 127
1, 47232, Note_on_c, 9, 42, 126
1, 47232, Note_on_c, 9, 36, 127
1, 47232, Note_on_c, 9, 54, 106
1, 47241, Note_off_c, 9, 54, 106
1, 47241, Note_off_c, 9, 36, 127
1, 47241, Note_off_c, 9, 42, 126
1, 47241, Note_off_c, 9, 40, 127
1, 47241, Note_off_c, 9, 39, 122
1, 47341, Note_off_c, 0, 51, 121
1, 47343, Note_off_c, 1, 37, 98
1, 47357, Note_off_c, 4, 73, 116
1, 47357, Note_off_c, 4, 61, 116
1, 47360, Note_on_c, 1, 34, 88
1, 47360, Note_on_c, 2, 39, 94
1, 47360, Note_on_c, 4, 58, 116
1, 47360, Note_on_c, 4, 70, 116
1, 47369, Note_off_c, 0, 56, 127
1, 47371, Note_off_c, 2, 39, 94
1, 47401, Note_off_c, 4, 70, 116
1, 47401, Note_off_c, 4, 58, 116
1, 47409, Note_off_c, 1, 34, 88
1, 47424, Note_on_c, 0, 54, 116
1, 47424, Note_on_c, 0, 49, 120
1, 47424, Note_on_c, 1, 39, 100
1, 47424, Note_on_c, 2, 49, 108
1, 47424, Note_on_c, 4, 63, 116
1, 47424, Note_on_c, 4, 75, 116
1, 47424, Note_on_c, 5, 56, 127
1, 47424, Note_on_c, 9, 42, 64
1, 47424, Note_on_c, 9, 54, 59
1, 47433, Note_off_c, 9, 54, 59
1, 47433, Note_off_c, 9, 42, 64
1, 47481, Note_off_c, 5, 56, 127
1, 47483, Note_off_c, 0, 49, 120
1, 47493, Note_off_c, 0, 54, 116
1, 47505, Note_off_c, 1, 39, 100
1, 47517, Note_off_c, 4, 75, 116
1, 47517, Note_off_c, 4, 63, 116
1, 47535, Note_off_c, 2, 49, 108
1, 47552, Note_on_c, 1, 39, 97
1, 47552, Note_on_c, 2, 51, 96
1, 47552, Note_on_c, 4, 63, 116
1, 47552, Note_on_c, 4, 75, 116
1, 47552, Note_on_c, 5, 54, 127
1, 47585, Note_off_c, 2, 51, 96
1, 47589, Note_off_c, 5, 54, 127
1, 47603, Note_off_c, 4, 75, 116
1, 47603, Note_off_c, 4, 63, 116
1, 47616, Note_on_c, 0, 27, 121
1, 47616, Note_on_c, 1, 27, 104
1, 47616, Note_on_c, 2, 39, 127
1, 47616, Note_on_c, 9, 36, 127
1, 47616, Note_on_c, 9, 42, 109
1, 47616, Note_on_c, 9, 54, 112
1, 47625, Note_off_c, 9, 54, 112
1, 47625, Note_off_c, 9, 42, 109
1, 47625, Note_off_c, 9, 36, 127
1, 47625, Note_off_c, 1, 39, 97
1, 47677, Note_off_c, 2, 39, 127
1, 47744, Note_on_c, 5, 49, 110
1, 47757, Note_off_c, 0, 27, 121
1, 47767, Note_off_c, 5, 49, 110
1, 47779, Note_off_c, 1, 27, 104
1, 47808, Note_on_c, 0, 54, 127
1, 47808, Note_on_c, 0, 49, 125
1, 47808, Note_on_c, 1, 39, 104
1, 47808, Note_on_c, 2, 51, 127
1, 47808, Note_on_c, 4, 63, 116
1, 47808, Note_on_c, 4, 75, 116
1, 47808, Note_on_c, 5, 51, 126
1, 47808, Note_on_c, 9, 42, 67
1, 47808, Note_on_c, 9, 54, 66
1, 47817, Note_off_c, 9, 54, 66
1, 47817, Note_off_c, 9, 42, 67
1, 47825, Note_off_c, 0, 49, 125
1, 47839, Note_off_c, 0, 54, 127
1, 47841, Note_off_c, 5, 51, 126
1, 47853, Note_off_c, 2, 51, 127
1, 47857, Note_off_c, 4, 75, 116
1, 47857, Note_off_c, 4, 63, 116
1, 47867, Note_off_c, 1, 39, 104
1, 47936, Note_on_c, 1, 27, 79
1, 47971, Note_off_c, 1, 27, 79
1, 48000, Note_on_c, 0, 39, 107
1, 48000, Note_on_c, 1, 37, 96
1, 48000, Note_on_c, 2, 49, 115
1, 48000, Note_on_c, 4, 61, 115
1, 48000, Note_on_c, 4, 73, 115
1, 48000, Note_on_c, 5, 51, 127
1, 48000, Note_on_c, 9, 39, 126
1, 48000, Note_on_c, 9, 40, 127
1, 48000, Note_on_c, 9, 42, 124
1, 48000, Note_on_c, 9, 36, 127
1, 48000, Note_on_c, 9, 54, 110
1, 48009, Note_off_c, 9, 54, 110
1, 48009, Note_off_c, 9, 36, 127
1, 48009, Note_off_c, 9, 42, 124
1, 48009, Note_off_c, 9, 40, 127
1, 48009, Note_off_c, 9, 39, 126
1, 48045, Note_off_c, 5, 51, 127
1, 48045, Note_off_c, 0, 39, 107
1, 48093, Note_off_c, 4, 73, 115
1, 48093, Note_off_c, 4, 61, 115
1, 48121, Note_off_c, 2, 49, 115
1, 48128, Note_on_c, 0, 54, 118
1, 48128, Note_on_c, 0, 49, 112
1, 48128, Note_on_c, 1, 39, 98
1, 48128, Note_on_c, 2, 51, 94
1, 48128, Note_on_c, 4, 63, 115
1, 48128, Note_on_c, 4, 75, 115
1, 48131, Note_off_c, 1, 37, 96
1, 48143, Note_off_c, 0, 49, 112
1, 48159, Note_off_c, 0, 54, 118
1, 48169, Note_off_c, 2, 51, 94
1, 48175, Note_off_c, 4, 75, 115
1, 48175, Note_off_c, 4, 63, 115
1, 48192, Note_on_c, 0, 27, 125
1, 48192, Note_on_c, 2, 39, 108
1, 48192, Note_on_c, 5, 49, 110
1, 48192, Note_on_c, 9, 42, 73
1, 48192, Note_on_c, 9, 54, 52
1, 48201, Note_off_c, 9, 54, 52
1, 48201, Note_off_c, 9, 42, 73
1, 48201, Note_off_c, 1, 39, 98
1, 48209, Note_off_c, 5, 49, 110
1, 48231, Note_off_c, 2, 39, 108
1, 48249, Note_off_c, 0, 27, 125
1, 48316, Note_on_c, 9, 54, 65
1, 48320, Note_on_c, 1, 37, 77
1, 48325, Note_off_c, 9, 54, 65
1, 48357, Note_off_c, 1, 37, 77
1, 48384, Note_on_c, 0, 58, 127
1, 48384, Note_on_c, 0, 57, 123
1, 48384, Note_on_c, 0, 56, 117
1, 48384, Note_on_c, 0, 61, 118
1, 48384, Note_on_c, 1, 44, 105
1, 48384, Note_on_c, 2, 46, 117
1, 48384, Note_on_c, 2, 45, 120
1, 48384, Note_on_c, 4, 70, 115
1, 48384, Note_on_c, 4, 82, 115
1, 48384, Note_on_c, 9, 36, 127
1, 48384, Note_on_c, 9, 42, 107
1, 48384, Note_on_c, 9, 54, 112
1, 48393, Note_off_c, 9, 54, 112
1, 48393, Note_off_c, 9, 42, 107
1, 48393, Note_off_c, 9, 36, 127
1, 48405, Pitch_bend_c, 1, 9728
1, 48413, Note_off_c, 0, 56, 117
1, 48415, Pitch_bend_c, 1, 14912
1, 48419, Note_off_c, 2, 45, 120
1, 48427, Note_off_c, 0, 57, 123
1, 48427, Pitch_bend_c, 1, 16383
1, 48441, Note_off_c, 4, 82, 115
1, 48441, Note_off_c, 4, 70, 115
1, 48443, Note_off_c, 0, 58, 127
1, 48477, Note_off_c, 1, 44, 105
1, 48501, Pitch_bend_c, 1, 15648
1, 48512, Note_on_c, 5, 49, 126
1, 48513, Pitch_bend_c, 1, 12640
1, 48525, Pitch_bend_c, 1, 10112
1, 48539, Note_off_c, 5, 49, 126
1, 48539, Pitch_bend_c, 1, 8448
1, 48543, Note_off_c, 2, 46, 117
1, 48549, Pitch_bend_c, 1, 8192
1, 48576, Note_on_c, 0, 57, 102
1, 48576, Note_on_c, 0, 56, 119
1, 48576, Note_on_c, 1, 42, 107
1, 48576, Note_on_c, 2, 49, 87
1, 48576, Note_on_c, 4, 68, 115
1, 48576, Note_on_c, 4, 80, 115
1, 48576, Note_on_c, 5, 51, 122
1, 48576, Note_on_c, 9, 42, 78
1, 48576, Note_on_c, 9, 36, 127
1, 48576, Note_on_c, 9, 54, 54
1, 48583, Note_off_c, 0, 61, 118
1, 48585, Note_off_c, 9, 54, 54
1, 48585, Note_off_c, 9, 36, 127
1, 48585, Note_off_c, 9, 42, 78
1, 48601, Note_off_c, 0, 57, 102
1, 48623, Note_off_c, 5, 51, 122
1, 48627, Note_off_c, 4, 80, 115
1, 48627, Note_off_c, 4, 68, 115
1, 48629, Note_off_c, 0, 56, 119
1, 48657, Note_off_c, 2, 49, 87
1, 48667, Note_off_c, 1, 42, 107
1, 48704, Note_on_c, 2, 45, 109
1, 48704, Note_on_c, 2, 46, 92
1, 48751, Note_off_c, 2, 46, 92
1, 48768, Note_on_c, 0, 54, 127
1, 48768, Note_on_c, 1, 42, 100
1, 48768, Note_on_c, 2, 44, 85
1, 48768, Note_on_c, 4, 66, 115
1, 48768, Note_on_c, 4, 78, 115
1, 48768, Note_on_c, 5, 54, 106
1, 48768, Note_on_c, 9, 39, 127
1, 48768, Note_on_c, 9, 40, 127
1, 48768, Note_on_c, 9, 42, 127
1, 48768, Note_on_c, 9, 36, 127
1, 48768, Note_on_c, 9, 54, 114
1, 48773, Note_off_c, 2, 45, 109
1, 48777, Note_off_c, 9, 54, 114
1, 48777, Note_off_c, 9, 36, 127
1, 48777, Note_off_c, 9, 42, 127
1, 48777, Note_off_c, 9, 40, 127
1, 48777, Note_off_c, 9, 39, 127
1, 48781, Note_off_c, 5, 54, 106
1, 48831, Note_off_c, 4, 78, 115
1, 48831, Note_off_c, 4, 66, 115
1, 48831, Note_off_c, 0, 54, 127
1, 48873, Note_off_c, 2, 44, 85
1, 48896, Note_on_c, 2, 42, 95
1, 48935, Note_off_c, 1, 42, 100
1, 48941, Note_off_c, 2, 42, 95
1, 48960, Note_on_c, 0, 56, 127
1, 48960, Note_on_c, 1, 39, 93
1, 48960, Note_on_c, 2, 44, 95
1, 48960, Note_on_c, 9, 42, 71
1, 48960, Note_on_c, 9, 36, 127
1, 48960, Note_on_c, 9, 54, 63
1, 48969, Note_off_c, 9, 54, 63
1, 48969, Note_off_c, 9, 36, 127
1, 48969, Note_off_c, 9, 42, 71
1, 49045, Note_off_c, 0, 56, 127
1, 49057, Note_off_c, 2, 44, 95
1, 49069, Note_off_c, 1, 39, 93
1, 49088, Note_on_c, 0, 54, 123
1, 49088, Note_on_c, 1, 37, 89
1, 49088, Note_on_c, 2, 42, 88
1, 49125, Note_off_c, 0, 54, 123
1, 49129, Note_off_c, 2, 42, 88
1, 49137, Note_off_c, 1, 37, 89
1, 49152, Note_on_c, 0, 27, 120
1, 49152, Note_on_c, 1, 27, 88
1, 49152, Note_on_c, 1, 29, 97
1, 49152, Note_on_c, 2, 39, 127
1, 49152, Note_on_c, 9, 36, 127
1, 49152, Note_on_c, 9, 42, 115
1, 49152, Note_on_c, 9, 54, 110
1, 49161, Note_off_c, 9, 54, 110
1, 49161, Note_off_c, 9, 42, 115
1, 49161, Note_off_c, 9, 36, 127
1, 49165, Note_off_c, 1, 29, 97
1, 49241, Note_off_c, 0, 27, 120
1, 49280, Note_on_c, 5, 49, 118
1, 49305, Note_off_c, 5, 49, 118
1, 49305, Note_off_c, 2, 39, 127
1, 49344, Note_on_c, 1, 39, 107
1, 49344, Note_on_c, 2, 51, 117
1, 49344, Note_on_c, 4, 63, 115
1, 49344, Note_on_c, 4, 75, 115
1, 49344, Note_on_c, 5, 51, 127
1, 49344, Note_on_c, 9, 42, 57
1, 49344, Note_on_c, 9, 54, 54
1, 49351, Note_off_c, 1, 27, 88
1, 49353, Note_off_c, 9, 54, 54
1, 49353, Note_off_c, 9, 42, 57
1, 49391, Note_off_c, 5, 51, 127
1, 49395, Note_off_c, 2, 51, 117
1, 49417, Note_off_c, 1, 39, 107
1, 49437, Note_off_c, 4, 75, 115
1, 49437, Note_off_c, 4, 63, 115
1, 49472, Note_on_c, 1, 27, 69
1, 49472, Note_on_c, 2, 39, 75
1, 49483, Note_off_c, 2, 39, 75
1, 49491, Note_off_c, 1, 27, 69
1, 49536, Note_on_c, 0, 54, 127
1, 49536, Note_on_c, 0, 49, 124
1, 49536, Note_on_c, 1, 37, 101
1, 49536, Note_on_c, 2, 49, 112
1, 49536, Note_on_c, 9, 39, 124
1, 49536, Note_on_c, 9, 40, 127
1, 49536, Note_on_c, 9, 42, 126
1, 49536, Note_on_c, 9, 36, 127
1, 49536, Note_on_c, 9, 54, 112
1, 49545, Note_off_c, 9, 54, 112
1, 49545, Note_off_c, 9, 36, 127
1, 49545, Note_off_c, 9, 42, 126
1, 49545, Note_off_c, 9, 40, 127
1, 49545, Note_off_c, 9, 39, 124
1, 49573, Note_off_c, 0, 49, 124
1, 49585, Note_off_c, 0, 54, 127
1, 49615, Note_off_c, 2, 49, 112
1, 49639, Note_off_c, 1, 37, 101
1, 49664, Note_on_c, 1, 39, 90
1, 49664, Note_on_c, 2, 51, 92
1, 49664, Note_on_c, 4, 63, 115
1, 49664, Note_on_c, 4, 75, 115
1, 49664, Note_on_c, 5, 49, 112
1, 49681, Note_off_c, 5, 49, 112
1, 49695, Note_off_c, 2, 51, 92
1, 49707, Note_off_c, 1, 39, 90
1, 49728, Note_on_c, 0, 39, 103
1, 49728, Note_on_c, 1, 27, 98
1, 49728, Note_on_c, 2, 39, 127
1, 49728, Note_on_c, 5, 51, 127
1, 49728, Note_on_c, 9, 42, 66
1, 49728, Note_on_c, 9, 54, 46
1, 49737, Note_off_c, 9, 54, 46
1, 49737, Note_off_c, 9, 42, 66
1, 49755, Note_off_c, 0, 39, 103
1, 49757, Note_off_c, 4, 75, 115
1, 49757, Note_off_c, 4, 63, 115
1, 49763, Note_off_c, 2, 39, 127
1, 49769, Note_off_c, 5, 51, 127
1, 49861, Note_off_c, 1, 27, 98
1, 49920, Note_on_c, 0, 56, 126
1, 49920, Note_on_c, 0, 51, 127
1, 49920, Note_on_c, 1, 30, 118
1, 49920, Note_on_c, 2, 54, 108
1, 49920, Note_on_c, 2, 49, 108
1, 49920, Note_on_c, 4, 54, 115
1, 49920, Note_on_c, 4, 66, 115
1, 49920, Note_on_c, 5, 54, 114
1, 49920, Note_on_c, 9, 36, 127
1, 49920, Note_on_c, 9, 42, 110
1, 49920, Note_on_c, 9, 54, 117
1, 49929, Note_off_c, 9, 54, 117
1, 49929, Note_off_c, 9, 42, 110
1, 49929, Note_off_c, 9, 36, 127
1, 49949, Note_off_c, 2, 54, 108
1, 49967, Note_off_c, 2, 49, 108
1, 49971, Note_off_c, 5, 54, 114
1, 50007, Note_off_c, 1, 30, 118
1, 50013, Note_off_c, 4, 66, 115
1, 50013, Note_off_c, 4, 54, 115
1, 50044, Note_on_c, 9, 54, 70
1, 50048, Note_on_c, 1, 32, 79
1, 50048, Note_on_c, 4, 56, 115
1, 50048, Note_on_c, 4, 68, 115
1, 50053, Note_off_c, 9, 54, 70
1, 50077, Note_off_c, 0, 51, 127
1, 50101, Note_off_c, 0, 56, 126
1, 50107, Note_off_c, 1, 32, 79
1, 50112, Note_on_c, 0, 39, 114
1, 50112, Note_on_c, 1, 34, 93
1, 50112, Note_on_c, 4, 58, 115
1, 50112, Note_on_c, 4, 70, 115
1, 50112, Note_on_c, 9, 42, 76
1, 50112, Note_on_c, 9, 54, 62
1, 50121, Note_off_c, 9, 54, 62
1, 50121, Note_off_c, 9, 42, 76
1, 50141, Note_off_c, 4, 68, 115
1, 50141, Note_off_c, 4, 56, 115
1, 50155, Note_off_c, 0, 39, 114
1, 50185, Note_off_c, 1, 34, 93
1, 50205, Note_off_c, 4, 70, 115
1, 50205, Note_off_c, 4, 58, 115
1, 50240, Note_on_c, 0, 54, 127
1, 50240, Note_on_c, 0, 49, 118
1, 50240, Note_on_c, 1, 37, 102
1, 50240, Note_on_c, 2, 54, 108
1, 50240, Note_on_c, 2, 49, 110
1, 50240, Note_on_c, 4, 61, 115
1, 50240, Note_on_c, 4, 73, 115
1, 50240, Note_on_c, 5, 56, 127
1, 50240, Note_on_c, 9, 46, 91
1, 50249, Note_off_c, 9, 46, 91
1, 50271, Note_off_c, 0, 49, 118
1, 50279, Note_off_c, 0, 54, 127
1, 50283, Note_off_c, 5, 56, 127
1, 50283, Note_off_c, 2, 54, 108
1, 50287, Note_off_c, 2, 49, 110
1, 50304, Note_on_c, 9, 39, 127
1, 50304, Note_on_c, 9, 40, 127
1, 50304, Note_on_c, 9, 42, 105
1, 50304, Note_on_c, 9, 36, 127
1, 50304, Note_on_c, 9, 54, 114
1, 50313, Note_off_c, 9, 54, 114
1, 50313, Note_off_c, 9, 36, 127
1, 50313, Note_off_c, 9, 42, 105
1, 50313, Note_off_c, 9, 40, 127
1, 50313, Note_off_c, 9, 39, 127
1, 50405, Note_off_c, 1, 37, 102
1, 50429, Note_off_c, 4, 73, 115
1, 50429, Note_off_c, 4, 61, 115
1, 50432, Note_on_c, 0, 39, 111
1, 50432, Note_on_c, 1, 34, 87
1, 50432, Note_on_c, 4, 58, 115
1, 50432, Note_on_c, 4, 70, 115
1, 50473, Note_off_c, 4, 70, 115
1, 50473, Note_off_c, 4, 58, 115
1, 50473, Note_off_c, 0, 39, 111
1, 50483, Note_off_c, 1, 34, 87
1, 50496, Note_on_c, 0, 49, 115
1, 50496, Note_on_c, 1, 39, 101
1, 50496, Note_on_c, 2, 54, 112
1, 50496, Note_on_c, 2, 49, 112
1, 50496, Note_on_c, 4, 63, 115
1, 50496, Note_on_c, 4, 75, 115
1, 50496, Note_on_c, 5, 54, 127
1, 50496, Note_on_c, 9, 42, 87
1, 50496, Note_on_c, 9, 54, 70
1, 50505, Note_off_c, 9, 54, 70
1, 50505, Note_off_c, 9, 42, 87
1, 50541, Note_off_c, 5, 54, 127
1, 50581, Note_off_c, 1, 39, 101
1, 50585, Note_off_c, 0, 49, 115
1, 50589, Note_off_c, 4, 75, 115
1, 50589, Note_off_c, 4, 63, 115
1, 50620, Note_on_c, 9, 54, 71
1, 50624, Note_on_c, 0, 51, 118
1, 50624, Note_on_c, 1, 39, 87
1, 50624, Note_on_c, 4, 63, 115
1, 50624, Note_on_c, 4, 75, 115
1, 50629, Note_off_c, 9, 54, 71
1, 50661, Note_off_c, 0, 51, 118
1, 50675, Note_off_c, 4, 75, 115
1, 50675, Note_off_c, 4, 63, 115
1, 50675, Note_off_c, 2, 54, 112
1, 50688, Note_on_c, 0, 27, 121
1, 50688, Note_on_c, 1, 27, 107
1, 50688, Note_on_c, 2, 39, 111
1, 50688, Note_on_c, 9, 42, 84
1, 50688, Note_on_c, 9, 36, 127
1, 50688, Note_on_c, 9, 54, 114
1, 50697, Note_off_c, 9, 54, 114
1, 50697, Note_off_c, 9, 36, 127
1, 50697, Note_off_c, 9, 42, 84
1, 50697, Note_off_c, 2, 49, 112
1, 50709, Note_off_c, 1, 39, 87
1, 50805, Note_off_c, 2, 39, 111
1, 50816, Note_on_c, 5, 49, 127
1, 50821, Note_off_c, 0, 27, 121
1, 50841, Note_off_c, 5, 49, 127
1, 50863, Note_off_c, 1, 27, 107
1, 50880, Note_on_c, 0, 51, 127
1, 50880, Note_on_c, 1, 39, 107
1, 50880, Note_on_c, 2, 51, 114
1, 50880, Note_on_c, 4, 63, 115
1, 50880, Note_on_c, 4, 75, 115
1, 50880, Note_on_c, 5, 51, 127
1, 50880, Note_on_c, 9, 42, 78
1, 50880, Note_on_c, 9, 54, 56
1, 50889, Note_off_c, 9, 54, 56
1, 50889, Note_off_c, 9, 42, 78
1, 50923, Note_off_c, 0, 51, 127
1, 50925, Note_off_c, 5, 51, 127
1, 50929, Note_off_c, 4, 75, 115
1, 50929, Note_off_c, 4, 63, 115
1, 50933, Note_off_c, 2, 51, 114
1, 50949, Note_off_c, 1, 39, 107
1, 51008, Note_on_c, 1, 27, 72
1, 51045, Note_off_c, 1, 27, 72
1, 51072, Note_on_c, 0, 49, 121
1, 51072, Note_on_c, 1, 37, 102
1, 51072, Note_on_c, 2, 49, 121
1, 51072, Note_on_c, 4, 61, 115
1, 51072, Note_on_c, 4, 73, 115
1, 51072, Note_on_c, 9, 39, 127
1, 51072, Note_on_c, 9, 42, 120
1, 51072, Note_on_c, 9, 40, 126
1, 51072, Note_on_c, 9, 36, 127
1, 51072, Note_on_c, 9, 54, 112
1, 51081, Note_off_c, 9, 54, 112
1, 51081, Note_off_c, 9, 36, 127
1, 51081, Note_off_c, 9, 40, 126
1, 51081, Note_off_c, 9, 42, 120
1, 51081, Note_off_c, 9, 39, 127
1, 51115, Note_off_c, 0, 49, 121
1, 51165, Note_off_c, 4, 73, 115
1, 51165, Note_off_c, 4, 61, 115
1, 51181, Note_off_c, 1, 37, 102
1, 51200, Note_on_c, 1, 39, 101
1, 51200, Note_on_c, 4, 63, 115
1, 51200, Note_on_c, 4, 75, 115
1, 51200, Note_on_c, 5, 49, 118
1, 51209, Note_off_c, 2, 49, 121
1, 51223, Note_off_c, 5, 49, 118
1, 51247, Note_off_c, 4, 75, 115
1, 51247, Note_off_c, 4, 63, 115
1, 51257, Note_off_c, 1, 39, 101
1, 51264, Note_on_c, 0, 51, 127
1, 51264, Note_on_c, 2, 51, 110
1, 51264, Note_on_c, 5, 51, 127
1, 51264, Note_on_c, 9, 42, 70
1, 51264, Note_on_c, 9, 36, 127
1, 51264, Note_on_c, 9, 54, 57
1, 51273, Note_off_c, 9, 54, 57
1, 51273, Note_off_c, 9, 36, 127
1, 51273, Note_off_c, 9, 42, 70
1, 51299, Note_off_c, 0, 51, 127
1, 51305, Note_off_c, 5, 51, 127
1, 51321, Note_off_c, 2, 51, 110
1, 51392, Note_on_c, 0, 39, 112
1, 51419, Control_c, 3, 1, 3
1, 51427, Control_c, 3, 1, 9
1, 51429, Note_off_c, 0, 39, 112
1, 51449, Control_c, 3, 1, 15
1, 51456, Note_on_c, 0, 54, 121
1, 51456, Note_on_c, 0, 49, 118
1, 51456, Note_on_c, 1, 44, 102
1, 51456, Note_on_c, 2, 44, 110
1, 51456, Note_on_c, 4, 70, 115
1, 51456, Note_on_c, 4, 82, 115
1, 51456, Note_on_c, 9, 42, 113
1, 51456, Note_on_c, 9, 36, 127
1, 51456, Note_on_c, 9, 54, 117
1, 51458, Note_on_c, 3, 61, 126
1, 51465, Note_off_c, 9, 54, 117
1, 51465, Note_off_c, 9, 36, 127
1, 51465, Note_off_c, 9, 42, 113
1, 51477, Control_c, 3, 1, 22
1, 51483, Control_c, 3, 1, 30
1, 51489, Pitch_bend_c, 1, 8512
1, 51493, Pitch_bend_c, 1, 11456
1, 51495, Note_off_c, 0, 49, 118
1, 51503, Control_c, 3, 1, 35
1, 51505, Note_off_c, 0, 54, 121
1, 51507, Note_off_c, 3, 61, 126
1, 51513, Note_off_c, 4, 82, 115
1, 51513, Note_off_c, 4, 70, 115
1, 51515, Note_off_c, 2, 44, 110
1, 51519, Pitch_bend_c, 1, 12896
1, 51523, Pitch_bend_c, 1, 14144
1, 51533, Control_c, 3, 1, 36
1, 51541, Pitch_bend_c, 1, 14432
1, 51543, Control_c, 3, 1, 38
1, 51549, Note_off_c, 1, 44, 102
1, 51549, Pitch_bend_c, 1, 13888
1, 51557, Control_c, 3, 1, 39
1, 51572, Note_on_c, 3, 63, 126
1, 51573, Pitch_bend_c, 1, 12640
1, 51579, Control_c, 3, 1, 41
1, 51581, Pitch_bend_c, 1, 11616
1, 51591, Pitch_bend_c, 1, 9344
1, 51607, Pitch_bend_c, 1, 8320
1, 51611, Control_c, 3, 1, 42
1, 51615, Pitch_bend_c, 1, 8192
1, 51629, Note_off_c, 3, 63, 126
1, 51647, Control_c, 3, 1, 43
1, 51648, Note_on_c, 0, 39, 110
1, 51648, Note_on_c, 1, 42, 100
1, 51648, Note_on_c, 2, 45, 105
1, 51648, Note_on_c, 4, 68, 115
1, 51648, Note_on_c, 4, 80, 115
1, 51648, Note_on_c, 5, 54, 127
1, 51648, Note_on_c, 9, 42, 75
1, 51648, Note_on_c, 9, 54, 64
1, 51657, Note_off_c, 9, 54, 64
1, 51657, Note_off_c, 9, 42, 75
1, 51661, Control_c, 3, 1, 45
1, 51679, Note_off_c, 0, 39, 110
1, 51691, Note_off_c, 5, 54, 127
1, 51695, Pitch_bend_c, 1, 8960
1, 51699, Note_off_c, 4, 80, 115
1, 51699, Note_off_c, 4, 68, 115
1, 51705, Pitch_bend_c, 1, 11872
1, 51719, Control_c, 3, 1, 47
1, 51721, Pitch_bend_c, 1, 15264
1, 51733, Control_c, 3, 1, 49
1, 51735, Pitch_bend_c, 1, 16383
1, 51743, Note_off_c, 2, 45, 105
1, 51757, Note_off_c, 1, 42, 100
1, 51762, Note_on_c, 3, 63, 127
1, 51765, Control_c, 3, 1, 54
1, 51776, Note_on_c, 0, 54, 121
1, 51776, Note_on_c, 0, 49, 110
1, 51776, Note_on_c, 2, 46, 98
1, 51783, Pitch_bend_c, 1, 15744
1, 51789, Pitch_bend_c, 1, 13504
1, 51789, Control_c, 3, 1, 51
1, 51801, Pitch_bend_c, 1, 9792
1, 51807, Control_c, 3, 1, 50
1, 51815, Pitch_bend_c, 1, 8352
1, 51819, Note_off_c, 0, 49, 110
1, 51823, Note_off_c, 0, 54, 121
1, 51827, Pitch_bend_c, 1, 8192
1, 51827, Control_c, 3, 1, 49
1, 51840, Note_on_c, 1, 42, 109
1, 51840, Note_on_c, 4, 66, 115
1, 51840, Note_on_c, 4, 78, 115
1, 51840, Note_on_c, 5, 56, 127
1, 51840, Note_on_c, 9, 39, 124
1, 51840, Note_on_c, 9, 42, 127
1, 51840, Note_on_c, 9, 40, 127
1, 51840, Note_on_c, 9, 36, 127
1, 51840, Note_on_c, 9, 54, 110
1, 51841, Control_c, 3, 1, 54
1, 51847, Note_off_c, 2, 46, 98
1, 51849, Note_off_c, 9, 54, 110
1, 51849, Note_off_c, 9, 36, 127
1, 51849, Note_off_c, 9, 40, 127
1, 51849, Note_off_c, 9, 42, 127
1, 51849, Note_off_c, 9, 39, 124
1, 51859, Note_off_c, 3, 63, 127
1, 51863, Control_c, 3, 1, 56
1, 51887, Control_c, 3, 1, 57
1, 51903, Note_off_c, 4, 78, 115
1, 51903, Note_off_c, 4, 66, 115
1, 51915, Note_off_c, 5, 56, 127
1, 51954, Note_on_c, 3, 63, 126
1, 51955, Control_c, 3, 1, 61
1, 51968, Note_on_c, 0, 39, 115
1, 51968, Note_on_c, 2, 49, 110
1, 51968, Note_on_c, 5, 54, 124
1, 51973, Control_c, 3, 1, 67
1, 51985, Control_c, 3, 1, 73
1, 51997, Note_off_c, 0, 39, 115
1, 52005, Control_c, 1, 1, 10
1, 52005, Control_c, 3, 1, 75
1, 52007, Note_off_c, 5, 54, 124
1, 52011, Note_off_c, 1, 42, 109
1, 52021, Control_c, 1, 1, 24
1, 52027, Control_c, 3, 1, 69
1, 52032, Note_on_c, 0, 56, 125
1, 52032, Note_on_c, 0, 51, 127
1, 52032, Note_on_c, 1, 39, 97
1, 52032, Note_on_c, 5, 51, 122
1, 52032, Note_on_c, 9, 42, 82
1, 52032, Note_on_c, 9, 54, 57
1, 52039, Control_c, 1, 1, 5
1, 52039, Control_c, 3, 1, 44
1, 52041, Note_off_c, 9, 54, 57
1, 52041, Note_off_c, 9, 42, 82
1, 52041, Note_off_c, 2, 49, 110
1, 52059, Control_c, 3, 1, 19
1, 52071, Control_c, 1, 1, 0
1, 52075, Note_off_c, 5, 51, 122
1, 52077, Control_c, 3, 1, 0
1, 52087, Note_off_c, 0, 51, 127
1, 52101, Note_off_c, 0, 56, 125
1, 52113, Note_off_c, 1, 39, 97
1, 52127, Note_off_c, 3, 63, 126
1, 52141, Pitch_bend_c, 3, 7520
1, 52150, Note_on_c, 3, 66, 127
1, 52153, Pitch_bend_c, 3, 4896
1, 52160, Note_on_c, 1, 37, 90
1, 52160, Note_on_c, 2, 51, 117
1, 52160, Note_on_c, 5, 54, 127
1, 52169, Pitch_bend_c, 3, 2624
1, 52181, Pitch_bend_c, 3, 1824
1, 52183, Control_c, 3, 1, 17
1, 52189, Note_off_c, 5, 54, 127
1, 52193, Pitch_bend_c, 3, 1664
1, 52199, Note_off_c, 2, 51, 117
1, 52199, Note_off_c, 1, 37, 90
1, 52203, Control_c, 3, 1, 29
1, 52209, Pitch_bend_c, 3, 2368
1, 52219, Control_c, 3, 1, 38
1, 52223, Pitch_bend_c, 3, 3616
1, 52224, Note_on_c, 0, 27, 103
1, 52224, Note_on_c, 1, 27, 105
1, 52224, Note_on_c, 9, 36, 127
1, 52224, Note_on_c, 9, 49, 84
1, 52233, Note_off_c, 9, 49, 84
1, 52233, Note_off_c, 9, 36, 127
1, 52239, Pitch_bend_c, 3, 5152
1, 52249, Control_c, 3, 1, 36
1, 52253, Pitch_bend_c, 3, 6112
1, 52259, Control_c, 3, 1, 33
1, 52263, Pitch_bend_c, 3, 7040
1, 52279, Pitch_bend_c, 3, 7456
1, 52281, Control_c, 3, 1, 32
1, 52293, Pitch_bend_c, 3, 7744
1, 52299, Note_off_c, 0, 27, 103
1, 52299, Control_c, 3, 1, 31
1, 52309, Pitch_bend_c, 3, 7840
1, 52313, Control_c, 3, 1, 30
1, 52329, Control_c, 3, 1, 31
1, 52343, Pitch_bend_c, 3, 7776
1, 52345, Control_c, 3, 1, 35
1, 52363, Pitch_bend_c, 3, 7936
1, 52365, Control_c, 3, 1, 40
1, 52375, Note_off_c, 1, 27, 105
1, 52379, Pitch_bend_c, 3, 8064
1, 52385, Control_c, 3, 1, 42
1, 52395, Pitch_bend_c, 3, 8160
1, 52399, Control_c, 3, 1, 45
1, 52405, Pitch_bend_c, 3, 8192
1, 52416, Note_on_c, 0, 54, 106
1, 52416, Note_on_c, 1, 39, 98
1, 52416, Note_on_c, 2, 51, 115
1, 52416, Note_on_c, 4, 63, 116
1, 52416, Note_on_c, 4, 75, 116
1, 52416, Note_on_c, 5, 51, 126
1, 52416, Note_on_c, 9, 42, 77
1, 52421, Control_c, 3, 1, 47
1, 52425, Note_off_c, 9, 42, 77
1, 52437, Control_c, 3, 1, 50
1, 52443, Note_off_c, 0, 54, 106
1, 52453, Control_c, 3, 1, 55
1, 52459, Note_off_c, 5, 51, 126
1, 52467, Note_off_c, 2, 51, 115
1, 52473, Control_c, 3, 1, 59
1, 52481, Note_off_c, 1, 39, 98
1, 52489, Control_c, 3, 1, 0
1, 52495, Control_c, 3, 1, 48
1, 52507, Control_c, 3, 1, 4
1, 52509, Note_off_c, 4, 75, 116
1, 52509, Note_off_c, 4, 63, 116
1, 52517, Note_off_c, 3, 66, 127
1, 52525, Control_c, 3, 1, 0
1, 52544, Note_on_c, 1, 27, 61
1, 52551, Pitch_bend_c, 3, 7296
1, 52563, Pitch_bend_c, 3, 6336
1, 52577, Note_off_c, 1, 27, 61
1, 52577, Pitch_bend_c, 3, 2048
1, 52589, Pitch_bend_c, 3, 1792
1, 52600, Note_on_c, 3, 63, 127
1, 52608, Note_on_c, 1, 37, 92
1, 52608, Note_on_c, 2, 49, 106
1, 52608, Note_on_c, 9, 39, 126
1, 52608, Note_on_c, 9, 40, 127
1, 52608, Note_on_c, 9, 42, 122
1, 52608, Note_on_c, 9, 36, 127
1, 52608, Note_on_c, 9, 54, 99
1, 52609, Pitch_bend_c, 3, 3456
1, 52617, Note_off_c, 9, 54, 99
1, 52617, Note_off_c, 9, 36, 127
1, 52617, Note_off_c, 9, 42, 122
1, 52617, Note_off_c, 9, 40, 127
1, 52617, Note_off_c, 9, 39, 126
1, 52617, Pitch_bend_c, 3, 5440
1, 52629, Pitch_bend_c, 3, 7680
1, 52651, Pitch_bend_c, 3, 8192
1, 52707, Note_off_c, 1, 37, 92
1, 52721, Note_off_c, 2, 49, 106
1, 52731, Control_c, 3, 1, 9
1, 52736, Note_on_c, 1, 39, 90
1, 52736, Note_on_c, 2, 51, 88
1, 52736, Note_on_c, 4, 63, 116
1, 52736, Note_on_c, 4, 75, 116
1, 52747, Control_c, 3, 1, 16
1, 52759, Control_c, 3, 1, 17
1, 52775, Note_off_c, 2, 51, 88
1, 52785, Note_off_c, 1, 39, 90
1, 52795, Control_c, 3, 1, 20
1, 52800, Note_on_c, 0, 54, 121
1, 52800, Note_on_c, 0, 49, 118
1, 52800, Note_on_c, 1, 27, 97
1, 52800, Note_on_c, 2, 39, 111
1, 52800, Note_on_c, 5, 51, 118
1, 52800, Note_on_c, 9, 42, 62
1, 52809, Note_off_c, 9, 42, 62
1, 52825, Note_off_c, 2, 39, 111
1, 52825, Note_off_c, 0, 49, 118
1, 52827, Control_c, 3, 1, 21
1, 52829, Note_off_c, 4, 75, 116
1, 52829, Note_off_c, 4, 63, 116
1, 52835, Control_c, 3, 1, 25
1, 52837, Note_off_c, 0, 54, 121
1, 52843, Note_off_c, 5, 51, 118
1, 52855, Control_c, 3, 1, 28
1, 52867, Control_c, 3, 1, 34
1, 52885, Control_c, 3, 1, 42
1, 52905, Control_c, 3, 1, 46
1, 52929, Control_c, 3, 1, 48
1, 52939, Note_off_c, 1, 27, 97
1, 52939, Control_c, 3, 1, 51
1, 52959, Control_c, 3, 1, 53
1, 52985, Control_c, 3, 1, 54
1, 52992, Note_on_c, 1, 30, 104
1, 52992, Note_on_c, 2, 54, 112
1, 52992, Note_on_c, 2, 49, 107
1, 52992, Note_on_c, 4, 54, 116
1, 52992, Note_on_c, 4, 66, 116
1, 52992, Note_on_c, 5, 51, 127
1, 52992, Note_on_c, 9, 42, 117
1, 52992, Note_on_c, 9, 36, 127
1, 53001, Note_off_c, 9, 36, 127
1, 53001, Note_off_c, 9, 42, 117
1, 53001, Control_c, 3, 1, 52
1, 53015, Note_off_c, 2, 54, 112
1, 53017, Control_c, 3, 1, 49
1, 53031, Note_off_c, 2, 49, 107
1, 53033, Control_c, 3, 1, 39
1, 53039, Note_off_c, 5, 51, 127
1, 53053, Control_c, 3, 1, 31
1, 53065, Control_c, 3, 1, 21
1, 53075, Note_off_c, 1, 30, 104
1, 53085, Note_off_c, 4, 66, 116
1, 53085, Note_off_c, 4, 54, 116
1, 53085, Control_c, 3, 1, 14
1, 53101, Control_c, 3, 1, 6
1, 53120, Note_on_c, 1, 32, 74
1, 53120, Note_on_c, 4, 56, 116
1, 53120, Note_on_c, 4, 68, 116
1, 53121, Control_c, 3, 1, 0
1, 53173, Note_off_c, 3, 63, 127
1, 53184, Note_on_c, 1, 34, 93
1, 53184, Note_on_c, 2, 39, 88
1, 53184, Note_on_c, 4, 58, 116
1, 53184, Note_on_c, 4, 70, 116
1, 53184, Note_on_c, 9, 42, 63
1, 53185, Note_off_c, 1, 32, 74
1, 53186, Note_on_c, 3, 61, 94
1, 53193, Note_off_c, 9, 42, 63
1, 53197, Note_off_c, 2, 39, 88
1, 53213, Note_off_c, 4, 68, 116
1, 53213, Note_off_c, 4, 56, 116
1, 53239, Note_off_c, 3, 61, 94
1, 53245, Note_off_c, 1, 34, 93
1, 53260, Note_on_c, 3, 58, 89
1, 53277, Note_off_c, 4, 70, 116
1, 53277, Note_off_c, 4, 58, 116
1, 53295, Note_off_c, 3, 58, 89
1, 53312, Note_on_c, 0, 51, 127
1, 53312, Note_on_c, 1, 37, 98
1, 53312, Note_on_c, 2, 51, 115
1, 53312, Note_on_c, 4, 61, 116
1, 53312, Note_on_c, 4, 73, 116
1, 53347, Note_off_c, 2, 51, 115
1, 53349, Note_off_c, 0, 51, 127
1, 53376, Note_on_c, 5, 51, 127
1, 53376, Note_on_c, 9, 39, 122
1, 53376, Note_on_c, 9, 40, 127
1, 53376, Note_on_c, 9, 42, 126
1, 53376, Note_on_c, 9, 36, 127
1, 53376, Note_on_c, 9, 54, 106
1, 53385, Note_off_c, 9, 54, 106
1, 53385, Note_off_c, 9, 36, 127
1, 53385, Note_off_c, 9, 42, 126
1, 53385, Note_off_c, 9, 40, 127
1, 53385, Note_off_c, 9, 39, 122
1, 53433, Note_off_c, 5, 51, 127
1, 53487, Note_off_c, 1, 37, 98
1, 53501, Note_off_c, 4, 73, 116
1, 53501, Note_off_c, 4, 61, 116
1, 53504, Note_on_c, 0, 39, 108
1, 53504, Note_on_c, 1, 34, 88
1, 53504, Note_on_c, 2, 39, 94
1, 53504, Note_on_c, 4, 58, 116
1, 53504, Note_on_c, 4, 70, 116
1, 53515, Note_off_c, 2, 39, 94
1, 53545, Note_off_c, 4, 70, 116
1, 53545, Note_off_c, 4, 58, 116
1, 53553, Note_off_c, 1, 34, 88
1, 53568, Note_on_c, 0, 49, 120
1, 53568, Note_on_c, 1, 39, 100
1, 53568, Note_on_c, 2, 49, 108
1, 53568, Note_on_c, 4, 63, 116
1, 53568, Note_on_c, 4, 75, 116
1, 53568, Note_on_c, 9, 42, 64
1, 53571, Note_off_c, 0, 39, 108
1, 53577, Note_off_c, 9, 42, 64
1, 53645, Note_off_c, 0, 49, 120
1, 53649, Note_off_c, 1, 39, 100
1, 53661, Note_off_c, 4, 75, 116
1, 53661, Note_off_c, 4, 63, 116
1, 53679, Note_off_c, 2, 49, 108
1, 53696, Note_on_c, 0, 51, 118
1, 53696, Note_on_c, 1, 39, 97
1, 53696, Note_on_c, 2, 51, 96
1, 53696, Note_on_c, 4, 63, 116
1, 53696, Note_on_c, 4, 75, 116
1, 53696, Note_on_c, 5, 54, 127
1, 53729, Note_off_c, 2, 51, 96
1, 53743, Note_off_c, 0, 51, 118
1, 53747, Note_off_c, 4, 75, 116
1, 53747, Note_off_c, 4, 63, 116
1, 53760, Note_on_c, 0, 27, 118
1, 53760, Note_on_c, 1, 27, 104
1, 53760, Note_on_c, 2, 39, 127
1, 53760, Note_on_c, 9, 36, 127
1, 53760, Note_on_c, 9, 42, 109
1, 53769, Note_off_c, 9, 42, 109
1, 53769, Note_off_c, 9, 36, 127
1, 53769, Note_off_c, 1, 39, 97
1, 53821, Note_off_c, 2, 39, 127
1, 53923, Note_off_c, 1, 27, 104
1, 53925, Note_off_c, 5, 54, 127
1, 53952, Note_on_c, 0, 54, 123
1, 53952, Note_on_c, 0, 49, 114
1, 53952, Note_on_c, 1, 39, 104
1, 53952, Note_on_c, 2, 51, 127
1, 53952, Note_on_c, 4, 63, 116
1, 53952, Note_on_c, 4, 75, 116
1, 53952, Note_on_c, 5, 51, 126
1, 53952, Note_on_c, 9, 42, 67
1, 53961, Note_off_c, 9, 42, 67
1, 53975, Note_off_c, 0, 49, 114
1, 53977, Note_off_c, 5, 51, 126
1, 53987, Note_off_c, 0, 54, 123
1, 53987, Note_off_c, 0, 27, 118
1, 53997, Note_off_c, 2, 51, 127
1, 54001, Note_off_c, 4, 75, 116
1, 54001, Note_off_c, 4, 63, 116
1, 54011, Note_off_c, 1, 39, 104
1, 54080, Note_on_c, 1, 27, 79
1, 54115, Note_off_c, 1, 27, 79
1, 54144, Note_on_c, 0, 54, 127
1, 54144, Note_on_c, 0, 49, 120
1, 54144, Note_on_c, 1, 37, 96
1, 54144, Note_on_c, 2, 49, 115
1, 54144, Note_on_c, 4, 61, 115
1, 54144, Note_on_c, 4, 73, 115
1, 54144, Note_on_c, 5, 51, 127
1, 54144, Note_on_c, 9, 39, 126
1, 54144, Note_on_c, 9, 40, 127
1, 54144, Note_on_c, 9, 42, 124
1, 54144, Note_on_c, 9, 36, 127
1, 54144, Note_on_c, 9, 54, 108
1, 54153, Note_off_c, 9, 54, 108
1, 54153, Note_off_c, 9, 36, 127
1, 54153, Note_off_c, 9, 42, 124
1, 54153, Note_off_c, 9, 40, 127
1, 54153, Note_off_c, 9, 39, 126
1, 54171, Note_off_c, 5, 51, 127
1, 54237, Note_off_c, 4, 73, 115
1, 54237, Note_off_c, 4, 61, 115
1, 54265, Note_off_c, 2, 49, 115
1, 54267, Note_off_c, 0, 49, 120
1, 54272, Note_on_c, 1, 39, 98
1, 54272, Note_on_c, 2, 51, 94
1, 54272, Note_on_c, 4, 63, 115
1, 54272, Note_on_c, 4, 75, 115
1, 54275, Note_off_c, 1, 37, 96
1, 54277, Note_off_c, 0, 54, 127
1, 54313, Note_off_c, 2, 51, 94
1, 54319, Note_off_c, 4, 75, 115
1, 54319, Note_off_c, 4, 63, 115
1, 54336, Note_on_c, 0, 39, 104
1, 54336, Note_on_c, 2, 39, 108
1, 54336, Note_on_c, 5, 49, 113
1, 54336, Note_on_c, 9, 42, 73
1, 54345, Note_off_c, 9, 42, 73
1, 54345, Note_off_c, 1, 39, 98
1, 54359, Note_off_c, 5, 49, 113
1, 54375, Note_off_c, 2, 39, 108
1, 54377, Note_off_c, 0, 39, 104
1, 54464, Note_on_c, 1, 37, 77
1, 54501, Note_off_c, 1, 37, 77
1, 54526, Note_on_c, 3, 61, 122
1, 54528, Note_on_c, 1, 44, 105
1, 54528, Note_on_c, 2, 46, 117
1, 54528, Note_on_c, 2, 45, 120
1, 54528, Note_on_c, 4, 70, 115
1, 54528, Note_on_c, 4, 82, 115
1, 54528, Note_on_c, 5, 51, 125
1, 54528, Note_on_c, 9, 36, 127
1, 54528, Note_on_c, 9, 42, 107
1, 54537, Note_off_c, 9, 42, 107
1, 54537, Note_off_c, 9, 36, 127
1, 54541, Control_c, 3, 1, 11
1, 54549, Pitch_bend_c, 1, 9728
1, 54553, Note_off_c, 5, 51, 125
1, 54555, Note_off_c, 3, 61, 122
1, 54559, Pitch_bend_c, 1, 16383
1, 54563, Note_off_c, 2, 45, 120
1, 54563, Control_c, 3, 1, 18
1, 54577, Control_c, 3, 1, 18
1, 54585, Note_off_c, 4, 82, 115
1, 54585, Note_off_c, 4, 70, 115
1, 54597, Control_c, 3, 1, 17
1, 54606, Note_on_c, 3, 58, 127
1, 54615, Control_c, 3, 1, 19
1, 54621, Note_off_c, 1, 44, 105
1, 54639, Control_c, 3, 1, 24
1, 54645, Pitch_bend_c, 1, 15648
1, 54649, Control_c, 3, 1, 29
1, 54656, Note_on_c, 0, 39, 81
1, 54657, Pitch_bend_c, 1, 11360
1, 54667, Control_c, 3, 1, 39
1, 54675, Pitch_bend_c, 1, 9088
1, 54687, Note_off_c, 2, 46, 117
1, 54687, Pitch_bend_c, 1, 8448
1, 54689, Note_off_c, 0, 39, 81
1, 54689, Control_c, 3, 1, 47
1, 54693, Pitch_bend_c, 1, 8192
1, 54709, Control_c, 3, 1, 51
1, 54720, Note_on_c, 1, 42, 107
1, 54720, Note_on_c, 2, 49, 87
1, 54720, Note_on_c, 4, 68, 115
1, 54720, Note_on_c, 4, 80, 115
1, 54720, Note_on_c, 5, 49, 112
1, 54720, Note_on_c, 9, 42, 78
1, 54720, Note_on_c, 9, 36, 127
1, 54721, Control_c, 3, 1, 52
1, 54729, Note_off_c, 9, 36, 127
1, 54729, Note_off_c, 9, 42, 78
1, 54737, Note_off_c, 5, 49, 112
1, 54739, Control_c, 3, 1, 49
1, 54759, Control_c, 3, 1, 35
1, 54771, Note_off_c, 4, 80, 115
1, 54771, Note_off_c, 4, 68, 115
1, 54779, Control_c, 3, 1, 13
1, 54799, Control_c, 3, 1, 4
1, 54801, Note_off_c, 2, 49, 87
1, 54811, Note_off_c, 1, 42, 107
1, 54811, Control_c, 3, 1, 0
1, 54819, Note_off_c, 3, 58, 127
1, 54848, Note_on_c, 0, 39, 110
1, 54848, Note_on_c, 2, 45, 109
1, 54848, Note_on_c, 2, 46, 92
1, 54889, Note_off_c, 0, 39, 110
1, 54895, Note_off_c, 2, 46, 92
1, 54912, Note_on_c, 1, 42, 100
1, 54912, Note_on_c, 2, 44, 85
1, 54912, Note_on_c, 4, 66, 115
1, 54912, Note_on_c, 4, 78, 115
1, 54912, Note_on_c, 5, 51, 112
1, 54912, Note_on_c, 9, 39, 127
1, 54912, Note_on_c, 9, 40, 127
1, 54912, Note_on_c, 9, 42, 127
1, 54912, Note_on_c, 9, 36, 127
1, 54912, Note_on_c, 9, 54, 112
1, 54914, Note_on_c, 3, 56, 127
1, 54917, Note_off_c, 2, 45, 109
1, 54921, Note_off_c, 9, 54, 112
1, 54921, Note_off_c, 9, 36, 127
1, 54921, Note_off_c, 9, 42, 127
1, 54921, Note_off_c, 9, 40, 127
1, 54921, Note_off_c, 9, 39, 127
1, 54939, Note_off_c, 5, 51, 112
1, 54969, Control_c, 3, 1, 2
1, 54975, Note_off_c, 4, 78, 115
1, 54975, Note_off_c, 4, 66, 115
1, 54977, Control_c, 3, 1, 4
1, 54993, Control_c, 3, 1, 6
1, 55009, Control_c, 3, 1, 8
1, 55017, Note_off_c, 2, 44, 85
1, 55027, Control_c, 3, 1, 10
1, 55040, Note_on_c, 0, 39, 89
1, 55040, Note_on_c, 2, 42, 95
1, 55040, Note_on_c, 5, 49, 108
1, 55047, Control_c, 3, 1, 12
1, 55053, Note_off_c, 5, 49, 108
1, 55061, Note_off_c, 0, 39, 89
1, 55067, Control_c, 3, 1, 14
1, 55077, Note_off_c, 3, 56, 127
1, 55079, Note_off_c, 1, 42, 100
1, 55085, Note_off_c, 2, 42, 95
1, 55101, Control_c, 3, 1, 8
1, 55104, Note_on_c, 0, 56, 121
1, 55104, Note_on_c, 0, 51, 107
1, 55104, Note_on_c, 1, 39, 93
1, 55104, Note_on_c, 2, 44, 95
1, 55104, Note_on_c, 5, 56, 127
1, 55104, Note_on_c, 9, 42, 71
1, 55104, Note_on_c, 9, 36, 127
1, 55108, Note_on_c, 3, 54, 108
1, 55113, Note_off_c, 9, 36, 127
1, 55113, Note_off_c, 9, 42, 71
1, 55131, Control_c, 3, 1, 0
1, 55135, Note_off_c, 3, 54, 108
1, 55157, Note_off_c, 0, 51, 107
1, 55161, Note_off_c, 5, 56, 127
1, 55185, Control_c, 3, 1, 1
1, 55189, Control_c, 3, 1, 4
1, 55193, Note_off_c, 0, 56, 121
1, 55201, Note_off_c, 2, 44, 95
1, 55213, Note_off_c, 1, 39, 93
1, 55218, Note_on_c, 3, 56, 127
1, 55225, Control_c, 3, 1, 16
1, 55232, Note_on_c, 0, 54, 102
1, 55232, Note_on_c, 1, 37, 89
1, 55232, Note_on_c, 2, 42, 88
1, 55232, Note_on_c, 5, 54, 127
1, 55243, Control_c, 3, 1, 25
1, 55261, Note_off_c, 0, 54, 102
1, 55263, Control_c, 3, 1, 29
1, 55271, Note_off_c, 5, 54, 127
1, 55273, Note_off_c, 2, 42, 88
1, 55281, Note_off_c, 1, 37, 89
1, 55281, Control_c, 3, 1, 31
1, 55296, Note_on_c, 0, 27, 115
1, 55296, Note_on_c, 1, 27, 88
1, 55296, Note_on_c, 1, 29, 97
1, 55296, Note_on_c, 2, 39, 127
1, 55296, Note_on_c, 9, 36, 127
1, 55296, Note_on_c, 9, 42, 115
1, 55297, Control_c, 3, 1, 34
1, 55305, Note_off_c, 9, 42, 115
1, 55305, Note_off_c, 9, 36, 127
1, 55309, Note_off_c, 1, 29, 97
1, 55321, Control_c, 3, 1, 35
1, 55337, Control_c, 3, 1, 37
1, 55359, Control_c, 3, 1, 38
1, 55387, Control_c, 3, 1, 39
1, 55395, Note_off_c, 0, 27, 115
1, 55407, Control_c, 3, 1, 37
1, 55424, Note_on_c, 0, 39, 93
1, 55435, Control_c, 3, 1, 38
1, 55449, Note_off_c, 2, 39, 127
1, 55449, Control_c, 3, 1, 39
1, 55451, Note_off_c, 0, 39, 93
1, 55459, Control_c, 3, 1, 44
1, 55483, Control_c, 3, 1, 46
1, 55487, Note_off_c, 3, 56, 127
1, 55488, Note_on_c, 0, 54, 121
1, 55488, Note_on_c, 0, 49, 112
1, 55488, Note_on_c, 1, 39, 107
1, 55488, Note_on_c, 2, 51, 117
1, 55488, Note_on_c, 3, 54, 118
1, 55488, Note_on_c, 4, 63, 115
1, 55488, Note_on_c, 4, 75, 115
1, 55488, Note_on_c, 5, 49, 118
1, 55488, Note_on_c, 9, 42, 57
1, 55495, Note_off_c, 1, 27, 88
1, 55497, Note_off_c, 9, 42, 57
1, 55505, Note_off_c, 5, 49, 118
1, 55511, Control_c, 3, 1, 55
1, 55517, Control_c, 3, 1, 58
1, 55523, Note_off_c, 0, 49, 112
1, 55531, Note_off_c, 0, 54, 121
1, 55539, Note_off_c, 2, 51, 117
1, 55543, Control_c, 3, 1, 57
1, 55551, Control_c, 3, 1, 53
1, 55561, Note_off_c, 1, 39, 107
1, 55567, Control_c, 3, 1, 52
1, 55581, Note_off_c, 4, 75, 115
1, 55581, Note_off_c, 4, 63, 115
1, 55587, Control_c, 3, 1, 54
1, 55613, Note_off_c, 3, 54, 118
1, 55613, Control_c, 3, 1, 52
1, 55616, Note_on_c, 1, 27, 69
1, 55616, Note_on_c, 2, 39, 75
1, 55625, Control_c, 3, 1, 41
1, 55627, Note_off_c, 2, 39, 75
1, 55635, Note_off_c, 1, 27, 69
1, 55641, Control_c, 3, 1, 12
1, 55661, Control_c, 3, 1, 2
1, 55675, Control_c, 3, 1, 0
1, 55680, Note_on_c, 0, 49, 96
1, 55680, Note_on_c, 1, 37, 101
1, 55680, Note_on_c, 2, 49, 112
1, 55680, Note_on_c, 5, 51, 118
1, 55680, Note_on_c, 9, 39, 124
1, 55680, Note_on_c, 9, 40, 127
1, 55680, Note_on_c, 9, 42, 126
1, 55680, Note_on_c, 9, 36, 127
1, 55680, Note_on_c, 9, 54, 110
1, 55689, Note_off_c, 9, 54, 110
1, 55689, Note_off_c, 9, 36, 127
1, 55689, Note_off_c, 9, 42, 126
1, 55689, Note_off_c, 9, 40, 127
1, 55689, Note_off_c, 9, 39, 124
1, 55703, Note_off_c, 5, 51, 118
1, 55707, Note_off_c, 0, 49, 96
1, 55759, Note_off_c, 2, 49, 112
1, 55783, Note_off_c, 1, 37, 101
1, 55808, Note_on_c, 1, 39, 90
1, 55808, Note_on_c, 2, 51, 92
1, 55808, Note_on_c, 4, 63, 115
1, 55808, Note_on_c, 4, 75, 115
1, 55839, Note_off_c, 2, 51, 92
1, 55851, Note_off_c, 1, 39, 90
1, 55872, Note_on_c, 0, 54, 127
1, 55872, Note_on_c, 0, 49, 120
1, 55872, Note_on_c, 1, 27, 98
1, 55872, Note_on_c, 2, 39, 127
1, 55872, Note_on_c, 5, 49, 113
1, 55872, Note_on_c, 9, 42, 66
1, 55881, Note_off_c, 9, 42, 66
1, 55885, Note_off_c, 5, 49, 113
1, 55901, Note_off_c, 4, 75, 115
1, 55901, Note_off_c, 4, 63, 115
1, 55907, Note_off_c, 2, 39, 127
1, 55907, Note_off_c, 0, 49, 120
1, 55921, Note_off_c, 0, 54, 127
1, 56005, Note_off_c, 1, 27, 98
1, 56064, Note_on_c, 1, 30, 118
1, 56064, Note_on_c, 2, 54, 108
1, 56064, Note_on_c, 2, 49, 108
1, 56064, Note_on_c, 4, 54, 115
1, 56064, Note_on_c, 4, 66, 115
1, 56064, Note_on_c, 5, 51, 127
1, 56064, Note_on_c, 9, 36, 127
1, 56064, Note_on_c, 9, 42, 110
1, 56073, Note_off_c, 9, 42, 110
1, 56073, Note_off_c, 9, 36, 127
1, 56091, Note_off_c, 5, 51, 127
1, 56093, Note_off_c, 2, 54, 108
1, 56111, Note_off_c, 2, 49, 108
1, 56151, Note_off_c, 1, 30, 118
1, 56157, Note_off_c, 4, 66, 115
1, 56157, Note_off_c, 4, 54, 115
1, 56192, Note_on_c, 0, 39, 93
1, 56192, Note_on_c, 1, 32, 79
1, 56192, Note_on_c, 4, 56, 115
1, 56192, Note_on_c, 4, 68, 115
1, 56217, Note_off_c, 0, 39, 93
1, 56251, Note_off_c, 1, 32, 79
1, 56256, Note_on_c, 1, 34, 93
1, 56256, Note_on_c, 4, 58, 115
1, 56256, Note_on_c, 4, 70, 115
1, 56256, Note_on_c, 5, 49, 123
1, 56256, Note_on_c, 9, 42, 76
1, 56265, Note_off_c, 9, 42, 76
1, 56273, Note_off_c, 5, 49, 123
1, 56285, Note_off_c, 4, 68, 115
1, 56285, Note_off_c, 4, 56, 115
1, 56329, Note_off_c, 1, 34, 93
1, 56349, Note_off_c, 4, 70, 115
1, 56349, Note_off_c, 4, 58, 115
1, 56384, Note_on_c, 0, 51, 124
1, 56384, Note_on_c, 1, 37, 102
1, 56384, Note_on_c, 2, 54, 108
1, 56384, Note_on_c, 2, 49, 110
1, 56384, Note_on_c, 4, 61, 115
1, 56384, Note_on_c, 4, 73, 115
1, 56384, Note_on_c, 9, 46, 91
1, 56393, Note_off_c, 9, 46, 91
1, 56427, Note_off_c, 2, 54, 108
1, 56429, Note_off_c, 0, 51, 124
1, 56431, Note_off_c, 2, 49, 110
1, 56448, Note_on_c, 5, 54, 127
1, 56448, Note_on_c, 9, 39, 127
1, 56448, Note_on_c, 9, 40, 127
1, 56448, Note_on_c, 9, 42, 105
1, 56448, Note_on_c, 9, 36, 127
1, 56448, Note_on_c, 9, 54, 110
1, 56457, Note_off_c, 9, 54, 110
1, 56457, Note_off_c, 9, 36, 127
1, 56457, Note_off_c, 9, 42, 105
1, 56457, Note_off_c, 9, 40, 127
1, 56457, Note_off_c, 9, 39, 127
1, 56535, Note_off_c, 5, 54, 127
1, 56549, Note_off_c, 1, 37, 102
1, 56573, Note_off_c, 4, 73, 115
1, 56573, Note_off_c, 4, 61, 115
1, 56576, Note_on_c, 0, 39, 99
1, 56576, Note_on_c, 1, 34, 87
1, 56576, Note_on_c, 4, 58, 115
1, 56576, Note_on_c, 4, 70, 115
1, 56576, Note_on_c, 5, 51, 111
1, 56617, Note_off_c, 5, 51, 111
1, 56617, Note_off_c, 4, 70, 115
1, 56617, Note_off_c, 4, 58, 115
1, 56619, Note_off_c, 0, 39, 99
1, 56627, Note_off_c, 1, 34, 87
1, 56640, Note_on_c, 0, 49, 119
1, 56640, Note_on_c, 1, 39, 101
1, 56640, Note_on_c, 2, 54, 112
1, 56640, Note_on_c, 2, 49, 112
1, 56640, Note_on_c, 4, 63, 115
1, 56640, Note_on_c, 4, 75, 115
1, 56640, Note_on_c, 5, 56, 117
1, 56640, Note_on_c, 9, 42, 87
1, 56649, Note_off_c, 9, 42, 87
1, 56697, Note_off_c, 0, 49, 119
1, 56713, Note_off_c, 5, 56, 117
1, 56725, Note_off_c, 1, 39, 101
1, 56733, Note_off_c, 4, 75, 115
1, 56733, Note_off_c, 4, 63, 115
1, 56768, Note_on_c, 0, 51, 110
1, 56768, Note_on_c, 1, 39, 87
1, 56768, Note_on_c, 4, 63, 115
1, 56768, Note_on_c, 4, 75, 115
1, 56768, Note_on_c, 5, 54, 127
1, 56801, Note_off_c, 0, 51, 110
1, 56819, Note_off_c, 4, 75, 115
1, 56819, Note_off_c, 4, 63, 115
1, 56819, Note_off_c, 2, 54, 112
1, 56832, Note_on_c, 0, 27, 118
1, 56832, Note_on_c, 1, 27, 107
1, 56832, Note_on_c, 2, 39, 111
1, 56832, Note_on_c, 9, 42, 84
1, 56832, Note_on_c, 9, 36, 127
1, 56841, Note_off_c, 9, 36, 127
1, 56841, Note_off_c, 9, 42, 84
1, 56841, Note_off_c, 2, 49, 112
1, 56853, Note_off_c, 1, 39, 87
1, 56939, Note_off_c, 0, 27, 118
1, 56949, Note_off_c, 2, 39, 111
1, 57007, Note_off_c, 1, 27, 107
1, 57007, Note_off_c, 5, 54, 127
1, 57024, Note_on_c, 0, 49, 117
1, 57024, Note_on_c, 0, 54, 123
1, 57024, Note_on_c, 1, 39, 107
1, 57024, Note_on_c, 2, 51, 114
1, 57024, Note_on_c, 4, 63, 115
1, 57024, Note_on_c, 4, 75, 115
1, 57024, Note_on_c, 5, 51, 127
1, 57024, Note_on_c, 9, 42, 78
1, 57033, Note_off_c, 9, 42, 78
1, 57045, Note_off_c, 0, 54, 123
1, 57067, Note_off_c, 0, 49, 117
1, 57073, Note_off_c, 5, 51, 127
1, 57073, Note_off_c, 4, 75, 115
1, 57073, Note_off_c, 4, 63, 115
1, 57077, Note_off_c, 2, 51, 114
1, 57093, Note_off_c, 1, 39, 107
1, 57152, Note_on_c, 1, 27, 72
1, 57189, Note_off_c, 1, 27, 72
1, 57216, Note_on_c, 0, 54, 127
1, 57216, Note_on_c, 0, 49, 121
1, 57216, Note_on_c, 1, 37, 102
1, 57216, Note_on_c, 2, 49, 121
1, 57216, Note_on_c, 4, 61, 115
1, 57216, Note_on_c, 4, 73, 115
1, 57216, Note_on_c, 5, 49, 127
1, 57216, Note_on_c, 9, 39, 127
1, 57216, Note_on_c, 9, 42, 120
1, 57216, Note_on_c, 9, 40, 126
1, 57216, Note_on_c, 9, 36, 127
1, 57216, Note_on_c, 9, 54, 106
1, 57225, Note_off_c, 9, 54, 106
1, 57225, Note_off_c, 9, 36, 127
1, 57225, Note_off_c, 9, 40, 126
1, 57225, Note_off_c, 9, 42, 120
1, 57225, Note_off_c, 9, 39, 127
1, 57241, Note_off_c, 5, 49, 127
1, 57243, Note_off_c, 0, 49, 121
1, 57255, Note_off_c, 0, 54, 127
1, 57309, Note_off_c, 4, 73, 115
1, 57309, Note_off_c, 4, 61, 115
1, 57325, Note_off_c, 1, 37, 102
1, 57344, Note_on_c, 1, 39, 101
1, 57344, Note_on_c, 4, 63, 115
1, 57344, Note_on_c, 4, 75, 115
1, 57353, Note_off_c, 2, 49, 121
1, 57391, Note_off_c, 4, 75, 115
1, 57391, Note_off_c, 4, 63, 115
1, 57401, Note_off_c, 1, 39, 101
1, 57408, Note_on_c, 2, 51, 110
1, 57408, Note_on_c, 5, 51, 127
1, 57408, Note_on_c, 9, 42, 70
1, 57408, Note_on_c, 9, 36, 127
1, 57417, Note_off_c, 9, 36, 127
1, 57417, Note_off_c, 9, 42, 70
1, 57461, Note_off_c, 5, 51, 127
1, 57465, Note_off_c, 2, 51, 110
1, 57597, Control_c, 3, 1, 3
1, 57600, Note_on_c, 0, 54, 123
1, 57600, Note_on_c, 0, 49, 114
1, 57600, Note_on_c, 1, 44, 102
1, 57600, Note_on_c, 2, 44, 110
1, 57600, Note_on_c, 4, 70, 115
1, 57600, Note_on_c, 4, 82, 115
1, 57600, Note_on_c, 5, 56, 127
1, 57600, Note_on_c, 9, 42, 113
1, 57600, Note_on_c, 9, 36, 127
1, 57604, Note_on_c, 3, 61, 127
1, 57605, Control_c, 3, 1, 7
1, 57605, Pitch_bend_c, 5, 8672
1, 57609, Note_off_c, 9, 36, 127
1, 57609, Note_off_c, 9, 42, 113
1, 57613, Pitch_bend_c, 5, 9120
1, 57623, Note_off_c, 0, 49, 114
1, 57623, Control_c, 3, 1, 26
1, 57631, Pitch_bend_c, 5, 11744
1, 57633, Pitch_bend_c, 1, 9024
1, 57635, Note_off_c, 0, 54, 123
1, 57641, Pitch_bend_c, 1, 11456
1, 57641, Pitch_bend_c, 5, 12864
1, 57643, Control_c, 3, 1, 31
1, 57653, Pitch_bend_c, 5, 13568
1, 57657, Note_off_c, 4, 82, 115
1, 57657, Note_off_c, 4, 70, 115
1, 57659, Note_off_c, 2, 44, 110
1, 57659, Control_c, 3, 1, 35
1, 57663, Pitch_bend_c, 1, 12896
1, 57667, Pitch_bend_c, 1, 14144
1, 57667, Pitch_bend_c, 5, 13920
1, 57683, Pitch_bend_c, 5, 13664
1, 57685, Pitch_bend_c, 1, 14336
1, 57691, Note_off_c, 3, 61, 127
1, 57691, Control_c, 3, 1, 33
1, 57693, Note_off_c, 1, 44, 102
1, 57695, Note_off_c, 5, 56, 127
1, 57695, Pitch_bend_c, 5, 12768
1, 57697, Pitch_bend_c, 1, 13888
1, 57711, Control_c, 3, 1, 31
1, 57717, Pitch_bend_c, 1, 12640
1, 57717, Pitch_bend_c, 5, 11968
1, 57722, Note_on_c, 3, 63, 120
1, 57725, Pitch_bend_c, 1, 10912
1, 57725, Pitch_bend_c, 5, 11520
1, 57737, Pitch_bend_c, 5, 10912
1, 57739, Pitch_bend_c, 1, 9344
1, 57739, Control_c, 3, 1, 26
1, 57747, Control_c, 3, 1, 21
1, 57751, Pitch_bend_c, 1, 8320
1, 57753, Pitch_bend_c, 5, 10464
1, 57759, Pitch_bend_c, 1, 8192
1, 57765, Note_off_c, 3, 63, 120
1, 57767, Pitch_bend_c, 5, 9248
1, 57769, Control_c, 3, 1, 16
1, 57783, Control_c, 3, 1, 14
1, 57783, Pitch_bend_c, 5, 8384
1, 57792, Note_on_c, 1, 42, 100
1, 57792, Note_on_c, 2, 45, 105
1, 57792, Note_on_c, 4, 68, 115
1, 57792, Note_on_c, 4, 80, 115
1, 57792, Note_on_c, 5, 56, 127
1, 57792, Note_on_c, 9, 42, 75
1, 57795, Pitch_bend_c, 5, 8192
1, 57801, Note_off_c, 9, 42, 75
1, 57803, Control_c, 3, 1, 17
1, 57819, Control_c, 3, 1, 20
1, 57837, Control_c, 3, 1, 24
1, 57839, Pitch_bend_c, 1, 8960
1, 57843, Note_off_c, 4, 80, 115
1, 57843, Note_off_c, 4, 68, 115
1, 57849, Pitch_bend_c, 1, 11872
1, 57861, Control_c, 3, 1, 30
1, 57865, Pitch_bend_c, 1, 15264
1, 57873, Control_c, 3, 1, 35
1, 57877, Note_off_c, 5, 56, 127
1, 57879, Pitch_bend_c, 1, 16383
1, 57887, Note_off_c, 2, 45, 105
1, 57889, Control_c, 3, 1, 39
1, 57901, Note_off_c, 1, 42, 100
1, 57912, Note_on_c, 3, 63, 127
1, 57920, Note_on_c, 0, 49, 89
1, 57920, Note_on_c, 2, 46, 98
1, 57920, Note_on_c, 5, 54, 97
1, 57921, Control_c, 3, 1, 47
1, 57927, Pitch_bend_c, 1, 15744
1, 57929, Control_c, 3, 1, 53
1, 57931, Note_off_c, 0, 49, 89
1, 57933, Pitch_bend_c, 1, 12256
1, 57947, Note_off_c, 5, 54, 97
1, 57951, Pitch_bend_c, 1, 8864
1, 57963, Pitch_bend_c, 1, 8352
1, 57963, Control_c, 3, 1, 49
1, 57969, Note_off_c, 3, 63, 127
1, 57971, Pitch_bend_c, 1, 8192
1, 57981, Control_c, 3, 1, 47
1, 57984, Note_on_c, 1, 42, 109
1, 57984, Note_on_c, 4, 66, 115
1, 57984, Note_on_c, 4, 78, 115
1, 57984, Note_on_c, 5, 56, 124
1, 57984, Note_on_c, 9, 39, 124
1, 57984, Note_on_c, 9, 42, 127
1, 57984, Note_on_c, 9, 40, 127
1, 57984, Note_on_c, 9, 36, 127
1, 57984, Note_on_c, 9, 54, 106
1, 57991, Note_off_c, 2, 46, 98
1, 57993, Note_off_c, 9, 54, 106
1, 57993, Note_off_c, 9, 36, 127
1, 57993, Note_off_c, 9, 40, 127
1, 57993, Note_off_c, 9, 42, 127
1, 57993, Note_off_c, 9, 39, 124
1, 57997, Control_c, 3, 1, 44
1, 58023, Control_c, 3, 1, 46
1, 58033, Control_c, 3, 1, 53
1, 58047, Note_off_c, 4, 78, 115
1, 58047, Note_off_c, 4, 66, 115
1, 58065, Control_c, 3, 1, 54
1, 58067, Note_off_c, 5, 56, 124
1, 58077, Control_c, 3, 1, 55
1, 58100, Note_on_c, 3, 63, 126
1, 58107, Control_c, 3, 1, 16
1, 58112, Note_on_c, 2, 49, 110
1, 58112, Note_on_c, 5, 54, 122
1, 58125, Control_c, 3, 1, 1
1, 58145, Control_c, 3, 1, 0
1, 58149, Control_c, 1, 1, 10
1, 58155, Note_off_c, 1, 42, 109
1, 58161, Note_off_c, 3, 63, 126
1, 58165, Note_off_c, 5, 54, 122
1, 58165, Control_c, 1, 1, 24
1, 58176, Note_on_c, 0, 54, 121
1, 58176, Note_on_c, 0, 49, 93
1, 58176, Note_on_c, 1, 39, 97
1, 58176, Note_on_c, 5, 51, 116
1, 58176, Note_on_c, 9, 42, 82
1, 58183, Control_c, 1, 1, 10
1, 58185, Note_off_c, 9, 42, 82
1, 58185, Note_off_c, 2, 49, 110
1, 58191, Note_off_c, 0, 49, 93
1, 58195, Control_c, 1, 1, 5
1, 58207, Note_off_c, 5, 51, 116
1, 58211, Note_off_c, 0, 54, 121
1, 58215, Control_c, 1, 1, 0
1, 58233, Pitch_bend_c, 3, 7296
1, 58243, Pitch_bend_c, 3, 3392
1, 58257, Note_off_c, 1, 39, 97
1, 58259, Pitch_bend_c, 3, 960
1, 58288, Note_on_c, 3, 66, 127
1, 58289, Pitch_bend_c, 3, 3456
1, 58303, Pitch_bend_c, 3, 7808
1, 58304, Note_on_c, 0, 49, 107
1, 58304, Note_on_c, 1, 37, 90
1, 58304, Note_on_c, 2, 51, 117
1, 58304, Note_on_c, 5, 54, 127
1, 58319, Pitch_bend_c, 3, 8128
1, 58323, Pitch_bend_c, 3, 8192
1, 58331, Note_off_c, 0, 49, 107
1, 58343, Note_off_c, 2, 51, 117
1, 58343, Note_off_c, 1, 37, 90
1, 58355, Note_off_c, 5, 54, 127
1, 58368, Note_on_c, 0, 27, 117
1, 58368, Note_on_c, 1, 27, 105
1, 58368, Note_on_c, 2, 39, 127
1, 58368, Note_on_c, 9, 36, 127
1, 58368, Note_on_c, 9, 49, 84
1, 58368, Note_on_c, 9, 54, 89
1, 58377, Note_off_c, 9, 54, 89
1, 58377, Note_off_c, 9, 49, 84
1, 58377, Note_off_c, 9, 36, 127
1, 58459, Control_c, 3, 1, 3
1, 58467, Control_c, 3, 1, 7
1, 58483, Control_c, 3, 1, 14
1, 58503, Control_c, 3, 1, 24
1, 58509, Note_off_c, 2, 39, 127
1, 58519, Note_off_c, 1, 27, 105
1, 58519, Control_c, 3, 1, 32
1, 58537, Control_c, 3, 1, 42
1, 58557, Control_c, 3, 1, 49
1, 58560, Note_on_c, 0, 54, 118
1, 58560, Note_on_c, 0, 49, 113
1, 58560, Note_on_c, 1, 39, 98
1, 58560, Note_on_c, 2, 51, 115
1, 58560, Note_on_c, 4, 63, 116
1, 58560, Note_on_c, 4, 75, 116
1, 58560, Note_on_c, 5, 49, 127
1, 58560, Note_on_c, 9, 42, 77
1, 58560, Note_on_c, 9, 54, 53
1, 58569, Note_off_c, 9, 54, 53
1, 58569, Note_off_c, 9, 42, 77
1, 58573, Control_c, 3, 1, 54
1, 58579, Note_off_c, 0, 27, 117
1, 58587, Note_off_c, 0, 49, 113
1, 58593, Note_off_c, 5, 49, 127
1, 58593, Control_c, 3, 1, 19
1, 58599, Note_off_c, 0, 54, 118
1, 58611, Note_off_c, 2, 51, 115
1, 58613, Control_c, 3, 1, 0
1, 58625, Note_off_c, 1, 39, 98
1, 58645, Note_off_c, 3, 66, 127
1, 58653, Note_off_c, 4, 75, 116
1, 58653, Note_off_c, 4, 63, 116
1, 58688, Note_on_c, 1, 27, 61
1, 58703, Pitch_bend_c, 3, 5952
1, 58719, Pitch_bend_c, 3, 2688
1, 58721, Note_off_c, 1, 27, 61
1, 58737, Pitch_bend_c, 3, 448
1, 58748, Note_on_c, 3, 63, 127
1, 58752, Note_on_c, 0, 54, 127
1, 58752, Note_on_c, 0, 49, 124
1, 58752, Note_on_c, 1, 37, 92
1, 58752, Note_on_c, 2, 49, 106
1, 58752, Note_on_c, 5, 51, 127
1, 58752, Note_on_c, 9, 39, 126
1, 58752, Note_on_c, 9, 40, 127
1, 58752, Note_on_c, 9, 42, 122
1, 58752, Note_on_c, 9, 36, 127
1, 58752, Note_on_c, 9, 54, 112
1, 58759, Pitch_bend_c, 3, 2240
1, 58761, Note_off_c, 9, 54, 112
1, 58761, Note_off_c, 9, 36, 127
1, 58761, Note_off_c, 9, 42, 122
1, 58761, Note_off_c, 9, 40, 127
1, 58761, Note_off_c, 9, 39, 126
1, 58775, Pitch_bend_c, 3, 4032
1, 58789, Pitch_bend_c, 3, 5696
1, 58793, Note_off_c, 0, 49, 124
1, 58795, Note_off_c, 5, 51, 127
1, 58803, Note_off_c, 0, 54, 127
1, 58805, Pitch_bend_c, 3, 7424
1, 58821, Pitch_bend_c, 3, 8128
1, 58829, Pitch_bend_c, 3, 8192
1, 58851, Note_off_c, 1, 37, 92
1, 58865, Note_off_c, 2, 49, 106
1, 58880, Note_on_c, 1, 39, 90
1, 58880, Note_on_c, 2, 51, 88
1, 58880, Note_on_c, 4, 63, 116
1, 58880, Note_on_c, 4, 75, 116
1, 58919, Note_off_c, 2, 51, 88
1, 58929, Note_off_c, 1, 39, 90
1, 58944, Note_on_c, 0, 39, 107
1, 58944, Note_on_c, 1, 27, 97
1, 58944, Note_on_c, 2, 39, 111
1, 58944, Note_on_c, 5, 49, 113
1, 58944, Note_on_c, 9, 42, 62
1, 58944, Note_on_c, 9, 54, 61
1, 58953, Note_off_c, 9, 54, 61
1, 58953, Note_off_c, 9, 42, 62
1, 58961, Note_off_c, 5, 49, 113
1, 58969, Note_off_c, 2, 39, 111
1, 58973, Note_off_c, 4, 75, 116
1, 58973, Note_off_c, 4, 63, 116
1, 58983, Control_c, 3, 1, 1
1, 58987, Control_c, 3, 1, 7
1, 58995, Note_off_c, 0, 39, 107
1, 59007, Control_c, 3, 1, 14
1, 59023, Control_c, 3, 1, 27
1, 59043, Control_c, 3, 1, 34
1, 59059, Control_c, 3, 1, 40
1, 59079, Control_c, 3, 1, 50
1, 59083, Note_off_c, 1, 27, 97
1, 59099, Control_c, 3, 1, 56
1, 59115, Control_c, 3, 1, 60
1, 59131, Control_c, 3, 1, 63
1, 59136, Note_on_c, 1, 30, 104
1, 59136, Note_on_c, 2, 54, 112
1, 59136, Note_on_c, 2, 49, 107
1, 59136, Note_on_c, 4, 54, 116
1, 59136, Note_on_c, 4, 66, 116
1, 59136, Note_on_c, 5, 51, 127
1, 59136, Note_on_c, 9, 42, 117
1, 59136, Note_on_c, 9, 36, 127
1, 59136, Note_on_c, 9, 54, 104
1, 59145, Note_off_c, 9, 54, 104
1, 59145, Note_off_c, 9, 36, 127
1, 59145, Note_off_c, 9, 42, 117
1, 59151, Control_c, 3, 1, 65
1, 59159, Note_off_c, 2, 54, 112
1, 59167, Control_c, 3, 1, 67
1, 59175, Note_off_c, 2, 49, 107
1, 59183, Note_off_c, 5, 51, 127
1, 59203, Control_c, 3, 1, 69
1, 59219, Note_off_c, 1, 30, 104
1, 59227, Control_c, 3, 1, 71
1, 59229, Note_off_c, 4, 66, 116
1, 59229, Note_off_c, 4, 54, 116
1, 59251, Control_c, 3, 1, 73
1, 59259, Control_c, 3, 1, 75
1, 59264, Note_on_c, 1, 32, 74
1, 59264, Note_on_c, 4, 56, 116
1, 59264, Note_on_c, 4, 68, 116
1, 59279, Control_c, 3, 1, 63
1, 59295, Control_c, 3, 1, 27
1, 59311, Note_off_c, 3, 63, 127
1, 59315, Control_c, 3, 1, 1
1, 59328, Note_on_c, 1, 34, 93
1, 59328, Note_on_c, 2, 39, 88
1, 59328, Note_on_c, 4, 58, 116
1, 59328, Note_on_c, 4, 70, 116
1, 59328, Note_on_c, 5, 49, 118
1, 59328, Note_on_c, 9, 42, 63
1, 59328, Note_on_c, 9, 54, 51
1, 59329, Note_off_c, 1, 32, 74
1, 59331, Control_c, 3, 1, 0
1, 59332, Note_on_c, 3, 61, 102
1, 59337, Note_off_c, 9, 54, 51
1, 59337, Note_off_c, 9, 42, 63
1, 59341, Note_off_c, 2, 39, 88
1, 59345, Note_off_c, 5, 49, 118
1, 59357, Note_off_c, 4, 68, 116
1, 59357, Note_off_c, 4, 56, 116
1, 59371, Note_off_c, 3, 61, 102
1, 59389, Note_off_c, 1, 34, 93
1, 59400, Note_on_c, 3, 58, 100
1, 59421, Note_off_c, 4, 70, 116
1, 59421, Note_off_c, 4, 58, 116
1, 59441, Note_off_c, 3, 58, 100
1, 59456, Note_on_c, 0, 49, 115
1, 59456, Note_on_c, 1, 37, 98
1, 59456, Note_on_c, 2, 51, 115
1, 59456, Note_on_c, 4, 61, 116
1, 59456, Note_on_c, 4, 73, 116
1, 59483, Pitch_bend_c, 3, 8000
1, 59491, Note_off_c, 2, 51, 115
1, 59491, Pitch_bend_c, 3, 4800
1, 59493, Note_off_c, 0, 49, 115
1, 59505, Pitch_bend_c, 3, 2240
1, 59520, Note_on_c, 5, 54, 127
1, 59520, Note_on_c, 9, 39, 122
1, 59520, Note_on_c, 9, 40, 127
1, 59520, Note_on_c, 9, 42, 126
1, 59520, Note_on_c, 9, 36, 127
1, 59520, Note_on_c, 9, 54, 106
1, 59521, Pitch_bend_c, 3, 1408
1, 59522, Note_on_c, 3, 63, 127
1, 59529, Note_off_c, 9, 54, 106
1, 59529, Note_off_c, 9, 36, 127
1, 59529, Note_off_c, 9, 42, 126
1, 59529, Note_off_c, 9, 40, 127
1, 59529, Note_off_c, 9, 39, 122
1, 59543, Pitch_bend_c, 3, 2112
1, 59559, Pitch_bend_c, 3, 3776
1, 59573, Pitch_bend_c, 3, 6400
1, 59587, Pitch_bend_c, 3, 8064
1, 59601, Pitch_bend_c, 3, 8192
1, 59611, Note_off_c, 5, 54, 127
1, 59631, Note_off_c, 1, 37, 98
1, 59645, Note_off_c, 4, 73, 116
1, 59645, Note_off_c, 4, 61, 116
1, 59648, Note_on_c, 0, 39, 97
1, 59648, Note_on_c, 1, 34, 88
1, 59648, Note_on_c, 2, 39, 94
1, 59648, Note_on_c, 4, 58, 116
1, 59648, Note_on_c, 4, 70, 116
1, 59648, Note_on_c, 5, 51, 113
1, 59659, Note_off_c, 2, 39, 94
1, 59689, Note_off_c, 4, 70, 116
1, 59689, Note_off_c, 4, 58, 116
1, 59691, Note_off_c, 5, 51, 113
1, 59697, Note_off_c, 1, 34, 88
1, 59699, Note_off_c, 0, 39, 97
1, 59712, Note_on_c, 0, 51, 124
1, 59712, Note_on_c, 1, 39, 100
1, 59712, Note_on_c, 2, 49, 108
1, 59712, Note_on_c, 4, 63, 116
1, 59712, Note_on_c, 4, 75, 116
1, 59712, Note_on_c, 5, 56, 125
1, 59712, Note_on_c, 9, 42, 64
1, 59712, Note_on_c, 9, 54, 59
1, 59715, Control_c, 3, 1, 1
1, 59721, Note_off_c, 9, 54, 59
1, 59721, Note_off_c, 9, 42, 64
1, 59725, Control_c, 3, 1, 16
1, 59749, Control_c, 3, 1, 22
1, 59761, Control_c, 3, 1, 30
1, 59777, Note_off_c, 5, 56, 125
1, 59781, Control_c, 3, 1, 39
1, 59793, Note_off_c, 1, 39, 100
1, 59797, Control_c, 3, 1, 53
1, 59805, Note_off_c, 4, 75, 116
1, 59805, Note_off_c, 4, 63, 116
1, 59817, Control_c, 3, 1, 63
1, 59823, Note_off_c, 2, 49, 108
1, 59825, Note_off_c, 0, 51, 124
1, 59837, Control_c, 3, 1, 72
1, 59840, Note_on_c, 0, 49, 120
1, 59840, Note_on_c, 1, 39, 97
1, 59840, Note_on_c, 2, 51, 96
1, 59840, Note_on_c, 4, 63, 116
1, 59840, Note_on_c, 4, 75, 116
1, 59840, Note_on_c, 5, 54, 127
1, 59855, Control_c, 3, 1, 78
1, 59869, Control_c, 3, 1, 82
1, 59873, Note_off_c, 2, 51, 96
1, 59883, Note_off_c, 0, 49, 120
1, 59887, Control_c, 3, 1, 86
1, 59891, Note_off_c, 4, 75, 116
1, 59891, Note_off_c, 4, 63, 116
1, 59904, Note_on_c, 0, 27, 110
1, 59904, Note_on_c, 1, 27, 104
1, 59904, Note_on_c, 2, 39, 127
1, 59904, Note_on_c, 9, 36, 127
1, 59904, Note_on_c, 9, 42, 109
1, 59904, Note_on_c, 9, 54, 112
1, 59907, Control_c, 3, 1, 89
1, 59909, Note_off_c, 5, 54, 127
1, 59913, Note_off_c, 9, 54, 112
1, 59913, Note_off_c, 9, 42, 109
1, 59913, Note_off_c, 9, 36, 127
1, 59913, Note_off_c, 1, 39, 97
1, 59931, Control_c, 3, 1, 90
1, 59945, Control_c, 3, 1, 68
1, 59955, Note_off_c, 3, 63, 127
1, 59959, Control_c, 3, 1, 25
1, 59965, Note_off_c, 2, 39, 127
1, 59977, Control_c, 3, 1, 0
1, 59987, Note_off_c, 0, 27, 110
1, 60032, Note_on_c, 0, 39, 98
1, 60067, Note_off_c, 1, 27, 104
1, 60079, Note_off_c, 0, 39, 98
1, 60096, Note_on_c, 0, 54, 127
1, 60096, Note_on_c, 0, 49, 108
1, 60096, Note_on_c, 1, 39, 104
1, 60096, Note_on_c, 2, 51, 127
1, 60096, Note_on_c, 4, 63, 116
1, 60096, Note_on_c, 4, 75, 116
1, 60096, Note_on_c, 5, 49, 127
1, 60096, Note_on_c, 9, 42, 67
1, 60096, Note_on_c, 9, 54, 66
1, 60105, Note_off_c, 9, 54, 66
1, 60105, Note_off_c, 9, 42, 67
1, 60117, Note_off_c, 0, 49, 108
1, 60127, Note_off_c, 5, 49, 127
1, 60137, Note_off_c, 0, 54, 127
1, 60141, Note_off_c, 2, 51, 127
1, 60145, Note_off_c, 4, 75, 116
1, 60145, Note_off_c, 4, 63, 116
1, 60155, Note_off_c, 1, 39, 104
1, 60224, Note_on_c, 1, 27, 79
1, 60259, Note_off_c, 1, 27, 79
1, 60288, Note_on_c, 0, 54, 127
1, 60288, Note_on_c, 0, 49, 123
1, 60288, Note_on_c, 1, 37, 96
1, 60288, Note_on_c, 2, 49, 115
1, 60288, Note_on_c, 4, 61, 115
1, 60288, Note_on_c, 4, 73, 115
1, 60288, Note_on_c, 5, 51, 127
1, 60288, Note_on_c, 9, 39, 126
1, 60288, Note_on_c, 9, 40, 127
1, 60288, Note_on_c, 9, 42, 124
1, 60288, Note_on_c, 9, 36, 127
1, 60288, Note_on_c, 9, 54, 110
1, 60297, Note_off_c, 9, 54, 110
1, 60297, Note_off_c, 9, 36, 127
1, 60297, Note_off_c, 9, 42, 124
1, 60297, Note_off_c, 9, 40, 127
1, 60297, Note_off_c, 9, 39, 126
1, 60325, Note_off_c, 0, 49, 123
1, 60339, Note_off_c, 0, 54, 127
1, 60375, Note_off_c, 5, 51, 127
1, 60381, Note_off_c, 4, 73, 115
1, 60381, Note_off_c, 4, 61, 115
1, 60409, Note_off_c, 2, 49, 115
1, 60416, Note_on_c, 1, 39, 98
1, 60416, Note_on_c, 2, 51, 94
1, 60416, Note_on_c, 4, 63, 115
1, 60416, Note_on_c, 4, 75, 115
1, 60416, Note_on_c, 5, 49, 111
1, 60419, Note_off_c, 1, 37, 96
1, 60435, Note_off_c, 5, 49, 111
1, 60457, Note_off_c, 2, 51, 94
1, 60463, Note_off_c, 4, 75, 115
1, 60463, Note_off_c, 4, 63, 115
1, 60480, Note_on_c, 0, 39, 105
1, 60480, Note_on_c, 2, 39, 108
1, 60480, Note_on_c, 5, 51, 127
1, 60480, Note_on_c, 9, 42, 73
1, 60480, Note_on_c, 9, 54, 52
1, 60489, Note_off_c, 9, 54, 52
1, 60489, Note_off_c, 9, 42, 73
1, 60489, Note_off_c, 1, 39, 98
1, 60505, Control_c, 3, 1, 3
1, 60517, Control_c, 3, 1, 8
1, 60519, Note_off_c, 2, 39, 108
1, 60525, Note_off_c, 5, 51, 127
1, 60525, Note_off_c, 0, 39, 105
1, 60537, Control_c, 3, 1, 15
1, 60557, Control_c, 3, 1, 12
1, 60577, Control_c, 3, 1, 7
1, 60598, Note_on_c, 3, 58, 122
1, 60604, Note_on_c, 9, 54, 65
1, 60608, Note_on_c, 1, 37, 77
1, 60609, Control_c, 3, 1, 7
1, 60613, Note_off_c, 9, 54, 65
1, 60625, Control_c, 3, 1, 0
1, 60629, Note_off_c, 3, 58, 122
1, 60645, Note_off_c, 1, 37, 77
1, 60672, Note_on_c, 0, 54, 118
1, 60672, Note_on_c, 0, 49, 114
1, 60672, Note_on_c, 1, 44, 105
1, 60672, Note_on_c, 2, 46, 117
1, 60672, Note_on_c, 2, 45, 120
1, 60672, Note_on_c, 4, 70, 115
1, 60672, Note_on_c, 4, 82, 115
1, 60672, Note_on_c, 5, 54, 127
1, 60672, Note_on_c, 9, 36, 127
1, 60672, Note_on_c, 9, 42, 107
1, 60672, Note_on_c, 9, 54, 112
1, 60680, Note_on_c, 3, 61, 127
1, 60681, Note_off_c, 9, 54, 112
1, 60681, Note_off_c, 9, 42, 107
1, 60681, Note_off_c, 9, 36, 127
1, 60693, Pitch_bend_c, 1, 11264
1, 60695, Note_off_c, 0, 49, 114
1, 60701, Note_off_c, 0, 54, 118
1, 60707, Note_off_c, 2, 45, 120
1, 60707, Pitch_bend_c, 1, 16383
1, 60717, Note_off_c, 3, 61, 127
1, 60723, Note_off_c, 5, 54, 127
1, 60729, Note_off_c, 4, 82, 115
1, 60729, Note_off_c, 4, 70, 115
1, 60745, Pitch_bend_c, 3, 7808
1, 60751, Pitch_bend_c, 3, 4608
1, 60765, Note_off_c, 1, 44, 105
1, 60765, Pitch_bend_c, 3, 2496
1, 60779, Pitch_bend_c, 3, 2240
1, 60789, Pitch_bend_c, 1, 14752
1, 60794, Note_on_c, 3, 56, 127
1, 60805, Pitch_bend_c, 1, 11360
1, 60811, Pitch_bend_c, 3, 7936
1, 60819, Pitch_bend_c, 1, 9088
1, 60821, Pitch_bend_c, 3, 8192
1, 60831, Note_off_c, 2, 46, 117
1, 60831, Pitch_bend_c, 1, 8448
1, 60837, Pitch_bend_c, 1, 8192
1, 60864, Note_on_c, 1, 42, 107
1, 60864, Note_on_c, 2, 49, 87
1, 60864, Note_on_c, 4, 68, 115
1, 60864, Note_on_c, 4, 80, 115
1, 60864, Note_on_c, 5, 51, 108
1, 60864, Note_on_c, 9, 42, 78
1, 60864, Note_on_c, 9, 36, 127
1, 60864, Note_on_c, 9, 54, 54
1, 60873, Note_off_c, 9, 54, 54
1, 60873, Note_off_c, 9, 36, 127
1, 60873, Note_off_c, 9, 42, 78
1, 60909, Note_off_c, 5, 51, 108
1, 60915, Note_off_c, 4, 80, 115
1, 60915, Note_off_c, 4, 68, 115
1, 60923, Control_c, 3, 1, 2
1, 60931, Control_c, 3, 1, 12
1, 60945, Note_off_c, 2, 49, 87
1, 60953, Control_c, 3, 1, 22
1, 60955, Note_off_c, 1, 42, 107
1, 60973, Control_c, 3, 1, 29
1, 60985, Control_c, 3, 1, 36
1, 60992, Note_on_c, 0, 56, 123
1, 60992, Note_on_c, 0, 51, 118
1, 60992, Note_on_c, 2, 45, 109
1, 60992, Note_on_c, 2, 46, 92
1, 61003, Note_off_c, 3, 56, 127
1, 61005, Control_c, 3, 1, 42
1, 61025, Control_c, 3, 1, 44
1, 61039, Note_off_c, 2, 46, 92
1, 61054, Note_on_c, 3, 56, 127
1, 61056, Note_on_c, 1, 42, 100
1, 61056, Note_on_c, 2, 44, 85
1, 61056, Note_on_c, 4, 66, 115
1, 61056, Note_on_c, 4, 78, 115
1, 61056, Note_on_c, 5, 56, 127
1, 61056, Note_on_c, 9, 39, 127
1, 61056, Note_on_c, 9, 40, 127
1, 61056, Note_on_c, 9, 42, 127
1, 61056, Note_on_c, 9, 36, 127
1, 61056, Note_on_c, 9, 54, 114
1, 61061, Note_off_c, 2, 45, 109
1, 61065, Note_off_c, 9, 54, 114
1, 61065, Note_off_c, 9, 36, 127
1, 61065, Note_off_c, 9, 42, 127
1, 61065, Note_off_c, 9, 40, 127
1, 61065, Note_off_c, 9, 39, 127
1, 61077, Control_c, 3, 1, 55
1, 61095, Control_c, 3, 1, 63
1, 61113, Control_c, 3, 1, 67
1, 61119, Note_off_c, 4, 78, 115
1, 61119, Note_off_c, 4, 66, 115
1, 61137, Note_off_c, 5, 56, 127
1, 61137, Control_c, 3, 1, 69
1, 61161, Note_off_c, 2, 44, 85
1, 61161, Control_c, 3, 1, 70
1, 61165, Note_off_c, 0, 51, 118
1, 61165, Control_c, 3, 1, 72
1, 61184, Note_on_c, 0, 39, 102
1, 61184, Note_on_c, 2, 42, 95
1, 61184, Note_on_c, 5, 54, 114
1, 61199, Control_c, 3, 1, 71
1, 61203, Control_c, 3, 1, 67
1, 61207, Note_off_c, 0, 56, 123
1, 61219, Control_c, 3, 1, 51
1, 61223, Note_off_c, 1, 42, 100
1, 61227, Note_off_c, 5, 54, 114
1, 61227, Note_off_c, 3, 56, 127
1, 61229, Note_off_c, 2, 42, 95
1, 61239, Note_off_c, 0, 39, 102
1, 61241, Control_c, 3, 1, 36
1, 61248, Note_on_c, 0, 54, 123
1, 61248, Note_on_c, 0, 49, 112
1, 61248, Note_on_c, 1, 39, 93
1, 61248, Note_on_c, 2, 44, 95
1, 61248, Note_on_c, 5, 51, 112
1, 61248, Note_on_c, 9, 42, 71
1, 61248, Note_on_c, 9, 36, 127
1, 61248, Note_on_c, 9, 54, 63
1, 61255, Control_c, 3, 1, 29
1, 61257, Note_off_c, 9, 54, 63
1, 61257, Note_off_c, 9, 36, 127
1, 61257, Note_off_c, 9, 42, 71
1, 61262, Note_on_c, 3, 54, 90
1, 61281, Note_off_c, 3, 54, 90
1, 61285, Note_off_c, 0, 49, 112
1, 61287, Note_off_c, 5, 51, 112
1, 61293, Note_off_c, 0, 54, 123
1, 61297, Control_c, 3, 1, 25
1, 61313, Control_c, 3, 1, 21
1, 61341, Control_c, 3, 1, 23
1, 61345, Note_off_c, 2, 44, 95
1, 61345, Control_c, 3, 1, 28
1, 61357, Note_off_c, 1, 39, 93
1, 61366, Note_on_c, 3, 56, 127
1, 61373, Control_c, 3, 1, 32
1, 61376, Note_on_c, 1, 37, 89
1, 61376, Note_on_c, 2, 42, 88
1, 61376, Note_on_c, 5, 54, 127
1, 61385, Control_c, 3, 1, 40
1, 61401, Control_c, 3, 1, 44
1, 61407, Note_off_c, 5, 54, 127
1, 61417, Note_off_c, 2, 42, 88
1, 61417, Control_c, 3, 1, 47
1, 61425, Note_off_c, 1, 37, 89
1, 61440, Note_on_c, 0, 27, 117
1, 61440, Note_on_c, 1, 27, 88
1, 61440, Note_on_c, 1, 29, 97
1, 61440, Note_on_c, 2, 39, 127
1, 61440, Note_on_c, 9, 36, 127
1, 61440, Note_on_c, 9, 42, 115
1, 61440, Note_on_c, 9, 54, 110
1, 61441, Control_c, 3, 1, 50
1, 61449, Note_off_c, 9, 54, 110
1, 61449, Note_off_c, 9, 42, 115
1, 61449, Note_off_c, 9, 36, 127
1, 61453, Note_off_c, 1, 29, 97
1, 61453, Control_c, 3, 1, 54
1, 61473, Control_c, 3, 1, 55
1, 61489, Control_c, 3, 1, 57
1, 61549, Control_c, 3, 1, 58
1, 61567, Control_c, 3, 1, 59
1, 61568, Note_on_c, 5, 51, 127
1, 61583, Control_c, 3, 1, 62
1, 61593, Note_off_c, 2, 39, 127
1, 61599, Control_c, 3, 1, 56
1, 61607, Note_off_c, 5, 51, 127
1, 61619, Control_c, 3, 1, 29
1, 61627, Note_off_c, 0, 27, 117
1, 61631, Note_off_c, 3, 56, 127
1, 61632, Note_on_c, 0, 49, 117
1, 61632, Note_on_c, 0, 54, 111
1, 61632, Note_on_c, 1, 39, 107
1, 61632, Note_on_c, 2, 51, 117
1, 61632, Note_on_c, 4, 63, 115
1, 61632, Note_on_c, 4, 75, 115
1, 61632, Note_on_c, 9, 42, 57
1, 61632, Note_on_c, 9, 54, 54
1, 61637, Control_c, 3, 1, 4
1, 61639, Note_off_c, 1, 27, 88
1, 61641, Note_off_c, 9, 54, 54
1, 61641, Note_off_c, 9, 42, 57
1, 61642, Note_on_c, 3, 54, 113
1, 61651, Note_off_c, 0, 54, 111
1, 61671, Control_c, 3, 1, 0
1, 61679, Note_off_c, 0, 49, 117
1, 61681, Note_off_c, 3, 54, 113
1, 61683, Note_off_c, 2, 51, 117
1, 61705, Note_off_c, 1, 39, 107
1, 61725, Note_off_c, 4, 75, 115
1, 61725, Note_off_c, 4, 63, 115
1, 61760, Note_on_c, 1, 27, 69
1, 61760, Note_on_c, 2, 39, 75
1, 61760, Note_on_c, 5, 54, 127
1, 61771, Note_off_c, 2, 39, 75
1, 61779, Note_off_c, 1, 27, 69
1, 61805, Note_off_c, 5, 54, 127
1, 61824, Note_on_c, 1, 37, 101
1, 61824, Note_on_c, 2, 49, 112
1, 61824, Note_on_c, 9, 39, 124
1, 61824, Note_on_c, 9, 40, 127
1, 61824, Note_on_c, 9, 42, 126
1, 61824, Note_on_c, 9, 36, 127
1, 61824, Note_on_c, 9, 54, 112
1, 61833, Note_off_c, 9, 54, 112
1, 61833, Note_off_c, 9, 36, 127
1, 61833, Note_off_c, 9, 42, 126
1, 61833, Note_off_c, 9, 40, 127
1, 61833, Note_off_c, 9, 39, 124
1, 61903, Note_off_c, 2, 49, 112
1, 61927, Note_off_c, 1, 37, 101
1, 61952, Note_on_c, 0, 54, 116
1, 61952, Note_on_c, 0, 49, 107
1, 61952, Note_on_c, 1, 39, 90
1, 61952, Note_on_c, 2, 51, 92
1, 61952, Note_on_c, 4, 63, 115
1, 61952, Note_on_c, 4, 75, 115
1, 61952, Note_on_c, 5, 56, 127
1, 61971, Note_off_c, 0, 49, 107
1, 61983, Note_off_c, 2, 51, 92
1, 61983, Note_off_c, 0, 54, 116
1, 61995, Note_off_c, 1, 39, 90
1, 62001, Note_off_c, 5, 56, 127
1, 62016, Note_on_c, 0, 27, 112
1, 62016, Note_on_c, 1, 27, 98
1, 62016, Note_on_c, 2, 39, 127
1, 62016, Note_on_c, 9, 42, 66
1, 62016, Note_on_c, 9, 54, 46
1, 62025, Note_off_c, 9, 54, 46
1, 62025, Note_off_c, 9, 42, 66
1, 62045, Note_off_c, 4, 75, 115
1, 62045, Note_off_c, 4, 63, 115
1, 62051, Note_off_c, 2, 39, 127
1, 62085, Note_off_c, 0, 27, 112
1, 62144, Note_on_c, 5, 54, 127
1, 62149, Note_off_c, 1, 27, 98
1, 62189, Note_off_c, 5, 54, 127
1, 62208, Note_on_c, 1, 30, 118
1, 62208, Note_on_c, 2, 54, 108
1, 62208, Note_on_c, 2, 49, 108
1, 62208, Note_on_c, 4, 54, 115
1, 62208, Note_on_c, 4, 66, 115
1, 62208, Note_on_c, 9, 36, 127
1, 62208, Note_on_c, 9, 42, 110
1, 62208, Note_on_c, 9, 54, 117
1, 62217, Note_off_c, 9, 54, 117
1, 62217, Note_off_c, 9, 42, 110
1, 62217, Note_off_c, 9, 36, 127
1, 62237, Note_off_c, 2, 54, 108
1, 62255, Note_off_c, 2, 49, 108
1, 62295, Note_off_c, 1, 30, 118
1, 62301, Note_off_c, 4, 66, 115
1, 62301, Note_off_c, 4, 54, 115
1, 62332, Note_on_c, 9, 54, 70
1, 62336, Note_on_c, 0, 39, 93
1, 62336, Note_on_c, 1, 32, 79
1, 62336, Note_on_c, 4, 56, 115
1, 62336, Note_on_c, 4, 68, 115
1, 62336, Note_on_c, 5, 51, 124
1, 62341, Note_off_c, 9, 54, 70
1, 62367, Note_off_c, 0, 39, 93
1, 62375, Note_off_c, 5, 51, 124
1, 62395, Note_off_c, 1, 32, 79
1, 62400, Note_on_c, 0, 49, 96
1, 62400, Note_on_c, 1, 34, 93
1, 62400, Note_on_c, 4, 58, 115
1, 62400, Note_on_c, 4, 70, 115
1, 62400, Note_on_c, 9, 42, 76
1, 62400, Note_on_c, 9, 54, 62
1, 62409, Note_off_c, 9, 54, 62
1, 62409, Note_off_c, 9, 42, 76
1, 62425, Note_off_c, 0, 49, 96
1, 62429, Note_off_c, 4, 68, 115
1, 62429, Note_off_c, 4, 56, 115
1, 62473, Note_off_c, 1, 34, 93
1, 62493, Note_off_c, 4, 70, 115
1, 62493, Note_off_c, 4, 58, 115
1, 62528, Note_on_c, 1, 37, 102
1, 62528, Note_on_c, 2, 54, 108
1, 62528, Note_on_c, 2, 49, 110
1, 62528, Note_on_c, 4, 61, 115
1, 62528, Note_on_c, 4, 73, 115
1, 62528, Note_on_c, 5, 49, 123
1, 62528, Note_on_c, 9, 46, 91
1, 62537, Note_off_c, 9, 46, 91
1, 62555, Note_off_c, 5, 49, 123
1, 62571, Note_off_c, 2, 54, 108
1, 62575, Note_off_c, 2, 49, 110
1, 62592, Note_on_c, 0, 51, 127
1, 62592, Note_on_c, 9, 39, 127
1, 62592, Note_on_c, 9, 40, 127
1, 62592, Note_on_c, 9, 42, 105
1, 62592, Note_on_c, 9, 36, 127
1, 62592, Note_on_c, 9, 54, 114
1, 62601, Note_off_c, 9, 54, 114
1, 62601, Note_off_c, 9, 36, 127
1, 62601, Note_off_c, 9, 42, 105
1, 62601, Note_off_c, 9, 40, 127
1, 62601, Note_off_c, 9, 39, 127
1, 62661, Note_off_c, 0, 51, 127
1, 62693, Note_off_c, 1, 37, 102
1, 62717, Note_off_c, 4, 73, 115
1, 62717, Note_off_c, 4, 61, 115
1, 62720, Note_on_c, 0, 39, 103
1, 62720, Note_on_c, 1, 34, 87
1, 62720, Note_on_c, 4, 58, 115
1, 62720, Note_on_c, 4, 70, 115
1, 62720, Note_on_c, 5, 49, 110
1, 62739, Note_off_c, 5, 49, 110
1, 62761, Note_off_c, 4, 70, 115
1, 62761, Note_off_c, 4, 58, 115
1, 62771, Note_off_c, 1, 34, 87
1, 62779, Note_off_c, 0, 39, 103
1, 62784, Note_on_c, 0, 49, 127
1, 62784, Note_on_c, 1, 39, 101
1, 62784, Note_on_c, 2, 54, 112
1, 62784, Note_on_c, 2, 49, 112
1, 62784, Note_on_c, 4, 63, 115
1, 62784, Note_on_c, 4, 75, 115
1, 62784, Note_on_c, 5, 51, 127
1, 62784, Note_on_c, 9, 42, 87
1, 62784, Note_on_c, 9, 54, 70
1, 62793, Note_off_c, 9, 54, 70
1, 62793, Note_off_c, 9, 42, 87
1, 62833, Note_off_c, 5, 51, 127
1, 62869, Note_off_c, 1, 39, 101
1, 62877, Note_off_c, 4, 75, 115
1, 62877, Note_off_c, 4, 63, 115
1, 62893, Note_off_c, 0, 49, 127
1, 62908, Note_on_c, 9, 54, 71
1, 62912, Note_on_c, 0, 51, 125
1, 62912, Note_on_c, 1, 39, 87
1, 62912, Note_on_c, 4, 63, 115
1, 62912, Note_on_c, 4, 75, 115
1, 62912, Note_on_c, 5, 49, 98
1, 62917, Note_off_c, 9, 54, 71
1, 62925, Note_off_c, 5, 49, 98
1, 62957, Note_off_c, 0, 51, 125
1, 62963, Note_off_c, 4, 75, 115
1, 62963, Note_off_c, 4, 63, 115
1, 62963, Note_off_c, 2, 54, 112
1, 62976, Note_on_c, 0, 27, 118
1, 62976, Note_on_c, 1, 27, 107
1, 62976, Note_on_c, 2, 39, 111
1, 62976, Note_on_c, 9, 42, 84
1, 62976, Note_on_c, 9, 36, 127
1, 62976, Note_on_c, 9, 54, 114
1, 62985, Note_off_c, 9, 54, 114
1, 62985, Note_off_c, 9, 36, 127
1, 62985, Note_off_c, 9, 42, 84
1, 62985, Note_off_c, 2, 49, 112
1, 62997, Note_off_c, 1, 39, 87
1, 63093, Note_off_c, 2, 39, 111
1, 63104, Note_on_c, 5, 51, 118
1, 63137, Note_off_c, 5, 51, 118
1, 63143, Note_off_c, 0, 27, 118
1, 63151, Note_off_c, 1, 27, 107
1, 63168, Note_on_c, 0, 54, 122
1, 63168, Note_on_c, 0, 49, 88
1, 63168, Note_on_c, 1, 39, 107
1, 63168, Note_on_c, 2, 51, 114
1, 63168, Note_on_c, 4, 63, 115
1, 63168, Note_on_c, 4, 75, 115
1, 63168, Note_on_c, 9, 42, 78
1, 63168, Note_on_c, 9, 54, 56
1, 63177, Note_off_c, 9, 54, 56
1, 63177, Note_off_c, 9, 42, 78
1, 63187, Note_off_c, 0, 49, 88
1, 63209, Note_off_c, 0, 54, 122
1, 63217, Note_off_c, 4, 75, 115
1, 63217, Note_off_c, 4, 63, 115
1, 63221, Note_off_c, 2, 51, 114
1, 63237, Note_off_c, 1, 39, 107
1, 63296, Note_on_c, 1, 27, 72
1, 63296, Note_on_c, 5, 54, 121
1, 63325, Note_off_c, 5, 54, 121
1, 63333, Note_off_c, 1, 27, 72
1, 63360, Note_on_c, 0, 39, 95
1, 63360, Note_on_c, 1, 37, 102
1, 63360, Note_on_c, 2, 49, 121
1, 63360, Note_on_c, 4, 61, 115
1, 63360, Note_on_c, 4, 73, 115
1, 63360, Note_on_c, 9, 39, 127
1, 63360, Note_on_c, 9, 42, 120
1, 63360, Note_on_c, 9, 40, 126
1, 63360, Note_on_c, 9, 36, 127
1, 63360, Note_on_c, 9, 54, 112
1, 63369, Note_off_c, 9, 54, 112
1, 63369, Note_off_c, 9, 36, 127
1, 63369, Note_off_c, 9, 40, 126
1, 63369, Note_off_c, 9, 42, 120
1, 63369, Note_off_c, 9, 39, 127
1, 63421, Note_off_c, 0, 39, 95
1, 63453, Note_off_c, 4, 73, 115
1, 63453, Note_off_c, 4, 61, 115
1, 63469, Note_off_c, 1, 37, 102
1, 63488, Note_on_c, 0, 54, 121
1, 63488, Note_on_c, 0, 49, 110
1, 63488, Note_on_c, 1, 39, 101
1, 63488, Note_on_c, 4, 63, 115
1, 63488, Note_on_c, 4, 75, 115
1, 63488, Note_on_c, 5, 51, 110
1, 63497, Note_off_c, 2, 49, 121
1, 63511, Note_off_c, 5, 51, 110
1, 63513, Note_off_c, 0, 49, 110
1, 63531, Note_off_c, 0, 54, 121
1, 63535, Note_off_c, 4, 75, 115
1, 63535, Note_off_c, 4, 63, 115
1, 63545, Note_off_c, 1, 39, 101
1, 63552, Note_on_c, 0, 27, 105
1, 63552, Note_on_c, 2, 51, 110
1, 63552, Note_on_c, 5, 56, 123
1, 63552, Note_on_c, 9, 42, 70
1, 63552, Note_on_c, 9, 36, 127
1, 63552, Note_on_c, 9, 54, 57
1, 63561, Note_off_c, 9, 54, 57
1, 63561, Note_off_c, 9, 36, 127
1, 63561, Note_off_c, 9, 42, 70
1, 63595, Note_off_c, 5, 56, 123
1, 63607, Note_off_c, 0, 27, 105
1, 63609, Note_off_c, 2, 51, 110
1, 63744, Note_on_c, 0, 58, 127
1, 63744, Note_on_c, 0, 57, 127
1, 63744, Note_on_c, 0, 56, 125
1, 63744, Note_on_c, 0, 61, 118
1, 63744, Note_on_c, 1, 44, 102
1, 63744, Note_on_c, 2, 44, 110
1, 63744, Note_on_c, 4, 70, 115
1, 63744, Note_on_c, 4, 82, 115
1, 63744, Note_on_c, 5, 54, 127
1, 63744, Note_on_c, 9, 42, 113
1, 63744, Note_on_c, 9, 36, 127
1, 63744, Note_on_c, 9, 54, 117
1, 63753, Note_off_c, 9, 54, 117
1, 63753, Note_off_c, 9, 36, 127
1, 63753, Note_off_c, 9, 42, 113
1, 63754, Note_on_c, 3, 68, 127
1, 63775, Note_off_c, 0, 56, 125
1, 63777, Pitch_bend_c, 1, 9024
1, 63781, Pitch_bend_c, 3, 9376
1, 63783, Note_off_c, 0, 57, 127
1, 63785, Pitch_bend_c, 1, 11456
1, 63787, Pitch_bend_c, 3, 10912
1, 63797, Note_off_c, 5, 54, 127
1, 63801, Note_off_c, 4, 82, 115
1, 63801, Note_off_c, 4, 70, 115
1, 63801, Pitch_bend_c, 3, 12064
1, 63803, Note_off_c, 2, 44, 110
1, 63807, Pitch_bend_c, 1, 13472
1, 63813, Pitch_bend_c, 1, 14144
1, 63815, Pitch_bend_c, 3, 11968
1, 63829, Pitch_bend_c, 1, 14336
1, 63829, Pitch_bend_c, 3, 11200
1, 63837, Note_off_c, 1, 44, 102
1, 63841, Pitch_bend_c, 1, 13888
1, 63841, Pitch_bend_c, 3, 9152
1, 63853, Note_off_c, 0, 58, 127
1, 63861, Pitch_bend_c, 1, 12640
1, 63861, Pitch_bend_c, 3, 8256
1, 63865, Pitch_bend_c, 3, 8192
1, 63869, Pitch_bend_c, 1, 10912
1, 63883, Pitch_bend_c, 1, 8736
1, 63891, Note_off_c, 3, 68, 127
1, 63901, Pitch_bend_c, 1, 8320
1, 63903, Pitch_bend_c, 1, 8192
1, 63928, Note_on_c, 3, 66, 127
1, 63936, Note_on_c, 0, 56, 111
1, 63936, Note_on_c, 1, 42, 100
1, 63936, Note_on_c, 2, 45, 105
1, 63936, Note_on_c, 4, 68, 115
1, 63936, Note_on_c, 4, 80, 115
1, 63936, Note_on_c, 5, 51, 114
1, 63936, Note_on_c, 9, 42, 75
1, 63936, Note_on_c, 9, 54, 64
1, 63943, Note_off_c, 0, 61, 118
1, 63945, Note_off_c, 9, 54, 64
1, 63945, Note_off_c, 9, 42, 75
1, 63967, Note_off_c, 5, 51, 114
1, 63983, Pitch_bend_c, 1, 9696
1, 63987, Note_off_c, 4, 80, 115
1, 63987, Note_off_c, 4, 68, 115
1, 63997, Note_off_c, 0, 56, 111
1, 63997, Pitch_bend_c, 1, 11872
1, 64007, Note_off_c, 3, 66, 127
1, 64009, Pitch_bend_c, 1, 15264
1, 64023, Pitch_bend_c, 1, 16383
1, 64031, Note_off_c, 2, 45, 105
1, 64045, Note_off_c, 1, 42, 100
1, 64064, Note_on_c, 2, 46, 98
1, 64071, Pitch_bend_c, 1, 14656
1, 64083, Control_c, 3, 1, 9
1, 64085, Pitch_bend_c, 1, 12256
1, 64095, Pitch_bend_c, 1, 8864
1, 64099, Control_c, 3, 1, 21
1, 64107, Pitch_bend_c, 1, 8352
1, 64115, Pitch_bend_c, 1, 8192
1, 64117, Control_c, 3, 1, 30
1, 64128, Note_on_c, 0, 54, 127
1, 64128, Note_on_c, 1, 42, 109
1, 64128, Note_on_c, 4, 66, 115
1, 64128, Note_on_c, 4, 78, 115
1, 64128, Note_on_c, 5, 49, 112
1, 64128, Note_on_c, 9, 39, 124
1, 64128, Note_on_c, 9, 42, 127
1, 64128, Note_on_c, 9, 40, 127
1, 64128, Note_on_c, 9, 36, 127
1, 64128, Note_on_c, 9, 54, 110
1, 64135, Note_off_c, 2, 46, 98
1, 64137, Note_off_c, 9, 54, 110
1, 64137, Note_off_c, 9, 36, 127
1, 64137, Note_off_c, 9, 40, 127
1, 64137, Note_off_c, 9, 42, 127
1, 64137, Note_off_c, 9, 39, 124
1, 64137, Control_c, 3, 1, 34
1, 64140, Note_on_c, 3, 68, 127
1, 64153, Note_off_c, 5, 49, 112
1, 64169, Control_c, 3, 1, 37
1, 64171, Control_c, 3, 1, 42
1, 64189, Control_c, 3, 1, 50
1, 64191, Note_off_c, 4, 78, 115
1, 64191, Note_off_c, 4, 66, 115
1, 64203, Note_off_c, 0, 54, 127
1, 64209, Control_c, 3, 1, 54
1, 64227, Control_c, 3, 1, 55
1, 64247, Control_c, 3, 1, 56
1, 64256, Note_on_c, 2, 49, 110
1, 64261, Control_c, 3, 1, 57
1, 64279, Control_c, 3, 1, 60
1, 64293, Control_c, 1, 1, 1
1, 64297, Control_c, 1, 1, 20
1, 64299, Note_off_c, 1, 42, 109
1, 64301, Control_c, 3, 1, 58
1, 64317, Control_c, 1, 1, 21
1, 64320, Note_on_c, 0, 56, 125
1, 64320, Note_on_c, 1, 39, 97
1, 64320, Note_on_c, 5, 51, 127
1, 64320, Note_on_c, 9, 42, 82
1, 64320, Note_on_c, 9, 54, 57
1, 64321, Control_c, 3, 1, 50
1, 64329, Note_off_c, 9, 54, 57
1, 64329, Note_off_c, 9, 42, 82
1, 64329, Note_off_c, 2, 49, 110
1, 64333, Note_off_c, 3, 68, 127
1, 64333, Control_c, 1, 1, 5
1, 64333, Control_c, 3, 1, 38
1, 64351, Control_c, 3, 1, 26
1, 64359, Control_c, 1, 1, 0
1, 64381, Note_off_c, 5, 51, 127
1, 64387, Control_c, 3, 1, 26
1, 64393, Note_off_c, 0, 56, 125
1, 64401, Note_off_c, 1, 39, 97
1, 64419, Control_c, 3, 1, 27
1, 64425, Control_c, 3, 1, 31
1, 64447, Control_c, 3, 1, 29
1, 64448, Note_on_c, 0, 54, 115
1, 64448, Note_on_c, 1, 37, 90
1, 64448, Note_on_c, 2, 51, 117
1, 64452, Note_on_c, 3, 66, 127
1, 64471, Control_c, 3, 1, 26
1, 64477, Note_off_c, 0, 54, 115
1, 64477, Control_c, 3, 1, 34
1, 64487, Note_off_c, 2, 51, 117
1, 64487, Note_off_c, 1, 37, 90
1, 64499, Control_c, 3, 1, 36
1, 64512, Note_on_c, 0, 27, 114
1, 64512, Note_on_c, 1, 27, 105
1, 64512, Note_on_c, 2, 39, 127
1, 64512, Note_on_c, 9, 36, 127
1, 64512, Note_on_c, 9, 49, 84
1, 64513, Control_c, 3, 1, 39
1, 64521, Note_off_c, 9, 49, 84
1, 64521, Note_off_c, 9, 36, 127
1, 64535, Control_c, 3, 1, 45
1, 64555, Control_c, 3, 1, 54
1, 64567, Control_c, 3, 1, 61
1, 64585, Control_c, 3, 1, 75
1, 64601, Note_off_c, 0, 27, 114
1, 64605, Control_c, 3, 1, 84
1, 64621, Control_c, 3, 1, 90
1, 64643, Control_c, 3, 1, 94
1, 64653, Note_off_c, 2, 39, 127
1, 64663, Note_off_c, 1, 27, 105
1, 64663, Control_c, 3, 1, 96
1, 64675, Control_c, 3, 1, 100
1, 64695, Control_c, 3, 1, 103
1, 64704, Note_on_c, 1, 39, 98
1, 64704, Note_on_c, 2, 51, 115
1, 64704, Note_on_c, 4, 63, 116
1, 64704, Note_on_c, 4, 75, 116
1, 64704, Note_on_c, 5, 51, 127
1, 64704, Note_on_c, 9, 42, 77
1, 64713, Note_off_c, 9, 42, 77
1, 64713, Control_c, 3, 1, 106
1, 64745, Control_c, 3, 1, 105
1, 64747, Note_off_c, 5, 51, 127
1, 64753, Control_c, 3, 1, 99
1, 64755, Note_off_c, 2, 51, 115
1, 64755, Note_off_c, 3, 66, 127
1, 64769, Note_off_c, 1, 39, 98
1, 64771, Control_c, 3, 1, 86
1, 64785, Control_c, 3, 1, 61
1, 64797, Note_off_c, 4, 75, 116
1, 64797, Note_off_c, 4, 63, 116
1, 64805, Control_c, 3, 1, 54
1, 64819, Control_c, 3, 1, 52
1, 64832, Note_on_c, 1, 27, 61
1, 64836, Note_on_c, 3, 61, 127
1, 64857, Control_c, 3, 1, 67
1, 64865, Note_off_c, 1, 27, 61
1, 64881, Control_c, 3, 1, 67
1, 64893, Control_c, 3, 1, 56
1, 64896, Note_on_c, 1, 37, 92
1, 64896, Note_on_c, 2, 49, 106
1, 64896, Note_on_c, 5, 49, 108
1, 64896, Note_on_c, 9, 39, 126
1, 64896, Note_on_c, 9, 40, 127
1, 64896, Note_on_c, 9, 42, 122
1, 64896, Note_on_c, 9, 36, 127
1, 64896, Note_on_c, 9, 54, 99
1, 64897, Note_off_c, 3, 61, 127
1, 64905, Note_off_c, 9, 54, 99
1, 64905, Note_off_c, 9, 36, 127
1, 64905, Note_off_c, 9, 42, 122
1, 64905, Note_off_c, 9, 40, 127
1, 64905, Note_off_c, 9, 39, 126
1, 64913, Note_off_c, 5, 49, 108
1, 64915, Control_c, 3, 1, 52
1, 64944, Note_on_c, 3, 63, 121
1, 64951, Control_c, 3, 1, 50
1, 64965, Control_c, 3, 1, 56
1, 64981, Control_c, 3, 1, 63
1, 64995, Note_off_c, 1, 37, 92
1, 65003, Control_c, 3, 1, 69
1, 65009, Note_off_c, 2, 49, 106
1, 65019, Control_c, 3, 1, 72
1, 65024, Note_on_c, 1, 39, 90
1, 65024, Note_on_c, 2, 51, 88
1, 65024, Note_on_c, 4, 63, 116
1, 65024, Note_on_c, 4, 75, 116
1, 65024, Note_on_c, 5, 51, 127
1, 65035, Control_c, 3, 1, 78
1, 65053, Control_c, 3, 1, 85
1, 65061, Note_off_c, 5, 51, 127
1, 65063, Note_off_c, 2, 51, 88
1, 65073, Note_off_c, 1, 39, 90
1, 65073, Control_c, 3, 1, 91
1, 65088, Note_on_c, 0, 54, 124
1, 65088, Note_on_c, 0, 49, 107
1, 65088, Note_on_c, 1, 27, 97
1, 65088, Note_on_c, 2, 39, 111
1, 65088, Note_on_c, 9, 42, 62
1, 65091, Control_c, 3, 1, 94
1, 65097, Note_off_c, 9, 42, 62
1, 65099, Note_off_c, 0, 49, 107
1, 65107, Control_c, 3, 1, 97
1, 65113, Note_off_c, 2, 39, 111
1, 65117, Note_off_c, 4, 75, 116
1, 65117, Note_off_c, 4, 63, 116
1, 65119, Note_off_c, 0, 54, 124
1, 65127, Control_c, 3, 1, 100
1, 65145, Control_c, 3, 1, 102
1, 65173, Control_c, 3, 1, 104
1, 65185, Control_c, 3, 1, 107
1, 65205, Control_c, 3, 1, 108
1, 65223, Control_c, 3, 1, 106
1, 65227, Note_off_c, 1, 27, 97
1, 65235, Control_c, 3, 1, 102
1, 65257, Control_c, 3, 1, 96
1, 65269, Control_c, 3, 1, 83
1, 65280, Note_on_c, 0, 54, 127
1, 65280, Note_on_c, 0, 49, 122
1, 65280, Note_on_c, 1, 30, 104
1, 65280, Note_on_c, 2, 54, 112
1, 65280, Note_on_c, 2, 49, 107
1, 65280, Note_on_c, 4, 54, 116
1, 65280, Note_on_c, 4, 66, 116
1, 65280, Note_on_c, 5, 51, 127
1, 65280, Note_on_c, 9, 42, 117
1, 65280, Note_on_c, 9, 36, 127
1, 65289, Note_off_c, 9, 36, 127
1, 65289, Note_off_c, 9, 42, 117
1, 65289, Control_c, 3, 1, 69
1, 65303, Note_off_c, 2, 54, 112
1, 65307, Control_c, 3, 1, 56
1, 65319, Note_off_c, 2, 49, 107
1, 65323, Note_off_c, 5, 51, 127
1, 65323, Control_c, 3, 1, 48
1, 65345, Control_c, 3, 1, 38
1, 65347, Note_off_c, 0, 49, 122
1, 65359, Control_c, 3, 1, 28
1, 65363, Note_off_c, 1, 30, 104
1, 65373, Note_off_c, 4, 66, 116
1, 65373, Note_off_c, 4, 54, 116
1, 65375, Note_off_c, 0, 54, 127
1, 65377, Control_c, 3, 1, 25
1, 65397, Control_c, 3, 1, 18
1, 65408, Note_on_c, 1, 32, 74
1, 65408, Note_on_c, 4, 56, 116
1, 65408, Note_on_c, 4, 68, 116
1, 65413, Control_c, 3, 1, 11
1, 65431, Control_c, 3, 1, 0
1, 65447, Note_off_c, 3, 63, 121
1, 65472, Note_on_c, 0, 39, 104
1, 65472, Note_on_c, 1, 34, 93
1, 65472, Note_on_c, 2, 39, 88
1, 65472, Note_on_c, 4, 58, 116
1, 65472, Note_on_c, 4, 70, 116
1, 65472, Note_on_c, 9, 42, 63
1, 65473, Note_off_c, 1, 32, 74
1, 65481, Note_off_c, 9, 42, 63
1, 65485, Note_off_c, 2, 39, 88
1, 65486, Note_on_c, 3, 61, 116
1, 65501, Note_off_c, 4, 68, 116
1, 65501, Note_off_c, 4, 56, 116
1, 65515, Note_off_c, 0, 39, 104
1, 65533, Note_off_c, 1, 34, 93
1, 65543, Note_off_c, 3, 61, 116
1, 65565, Note_off_c, 4, 70, 116
1, 65565, Note_off_c, 4, 58, 116
1, 65600, Note_on_c, 0, 54, 118
1, 65600, Note_on_c, 0, 49, 109
1, 65600, Note_on_c, 1, 37, 98
1, 65600, Note_on_c, 2, 51, 115
1, 65600, Note_on_c, 4, 61, 116
1, 65600, Note_on_c, 4, 73, 116
1, 65600, Note_on_c, 5, 54, 127
1, 65604, Note_on_c, 3, 58, 95
1, 65621, Note_off_c, 3, 58, 95
1, 65629, Note_off_c, 0, 49, 109
1, 65635, Note_off_c, 2, 51, 115
1, 65637, Note_off_c, 0, 54, 118
1, 65643, Note_off_c, 5, 54, 127
1, 65664, Note_on_c, 9, 39, 122
1, 65664, Note_on_c, 9, 40, 127
1, 65664, Note_on_c, 9, 42, 126
1, 65664, Note_on_c, 9, 36, 127
1, 65664, Note_on_c, 9, 54, 106
1, 65673, Note_off_c, 9, 54, 106
1, 65673, Note_off_c, 9, 36, 127
1, 65673, Note_off_c, 9, 42, 126
1, 65673, Note_off_c, 9, 40, 127
1, 65673, Note_off_c, 9, 39, 122
1, 65680, Note_on_c, 3, 63, 121
1, 65755, Control_c, 3, 1, 8
1, 65773, Control_c, 3, 1, 20
1, 65775, Note_off_c, 1, 37, 98
1, 65789, Note_off_c, 4, 73, 116
1, 65789, Note_off_c, 4, 61, 116
1, 65791, Control_c, 3, 1, 35
1, 65792, Note_on_c, 0, 39, 108
1, 65792, Note_on_c, 1, 34, 88
1, 65792, Note_on_c, 2, 39, 94
1, 65792, Note_on_c, 4, 58, 116
1, 65792, Note_on_c, 4, 70, 116
1, 65792, Note_on_c, 5, 51, 105
1, 65803, Note_off_c, 2, 39, 94
1, 65815, Note_off_c, 5, 51, 105
1, 65815, Control_c, 3, 1, 41
1, 65827, Control_c, 3, 1, 46
1, 65833, Note_off_c, 4, 70, 116
1, 65833, Note_off_c, 4, 58, 116
1, 65841, Note_off_c, 1, 34, 88
1, 65853, Control_c, 3, 1, 44
1, 65856, Note_on_c, 0, 56, 120
1, 65856, Note_on_c, 0, 51, 112
1, 65856, Note_on_c, 1, 39, 100
1, 65856, Note_on_c, 2, 49, 108
1, 65856, Note_on_c, 4, 63, 116
1, 65856, Note_on_c, 4, 75, 116
1, 65856, Note_on_c, 5, 56, 127
1, 65856, Note_on_c, 9, 42, 64
1, 65865, Note_off_c, 9, 42, 64
1, 65865, Note_off_c, 0, 39, 108
1, 65865, Control_c, 3, 1, 41
1, 65891, Control_c, 3, 1, 38
1, 65899, Control_c, 3, 1, 32
1, 65905, Note_off_c, 0, 51, 112
1, 65917, Note_off_c, 5, 56, 127
1, 65917, Control_c, 3, 1, 26
1, 65931, Note_off_c, 3, 63, 121
1, 65937, Note_off_c, 1, 39, 100
1, 65937, Note_off_c, 0, 56, 120
1, 65941, Control_c, 3, 1, 19
1, 65949, Note_off_c, 4, 75, 116
1, 65949, Note_off_c, 4, 63, 116
1, 65959, Control_c, 3, 1, 4
1, 65967, Note_off_c, 2, 49, 108
1, 65971, Control_c, 3, 1, 0
1, 65984, Note_on_c, 0, 54, 113
1, 65984, Note_on_c, 0, 51, 99
1, 65984, Note_on_c, 1, 39, 97
1, 65984, Note_on_c, 2, 51, 96
1, 65984, Note_on_c, 4, 63, 116
1, 65984, Note_on_c, 4, 75, 116
1, 65984, Note_on_c, 5, 54, 109
1, 65999, Note_off_c, 0, 51, 99
1, 66017, Note_off_c, 5, 54, 109
1, 66017, Note_off_c, 2, 51, 96
1, 66023, Note_off_c, 0, 54, 113
1, 66035, Note_off_c, 4, 75, 116
1, 66035, Note_off_c, 4, 63, 116
1, 66048, Note_on_c, 0, 27, 112
1, 66048, Note_on_c, 1, 27, 104
1, 66048, Note_on_c, 2, 39, 127
1, 66048, Note_on_c, 9, 36, 127
1, 66048, Note_on_c, 9, 42, 109
1, 66057, Note_off_c, 9, 42, 109
1, 66057, Note_off_c, 9, 36, 127
1, 66057, Note_off_c, 1, 39, 97
1, 66109, Note_off_c, 2, 39, 127
1, 66131, Note_off_c, 0, 27, 112
1, 66211, Note_off_c, 1, 27, 104
1, 66240, Note_on_c, 0, 54, 102
1, 66240, Note_on_c, 0, 49, 104
1, 66240, Note_on_c, 1, 39, 104
1, 66240, Note_on_c, 2, 51, 127
1, 66240, Note_on_c, 4, 63, 116
1, 66240, Note_on_c, 4, 75, 116
1, 66240, Note_on_c, 5, 51, 127
1, 66240, Note_on_c, 9, 42, 67
1, 66249, Note_off_c, 9, 42, 67
1, 66265, Note_off_c, 0, 49, 104
1, 66269, Note_off_c, 0, 54, 102
1, 66285, Note_off_c, 2, 51, 127
1, 66289, Note_off_c, 4, 75, 116
1, 66289, Note_off_c, 4, 63, 116
1, 66291, Note_off_c, 5, 51, 127
1, 66299, Note_off_c, 1, 39, 104
1, 66368, Note_on_c, 1, 27, 79
1, 66403, Note_off_c, 1, 27, 79
1, 66432, Note_on_c, 0, 39, 101
1, 66432, Note_on_c, 1, 37, 96
1, 66432, Note_on_c, 2, 49, 115
1, 66432, Note_on_c, 4, 61, 115
1, 66432, Note_on_c, 4, 73, 115
1, 66432, Note_on_c, 5, 49, 108
1, 66432, Note_on_c, 9, 39, 126
1, 66432, Note_on_c, 9, 40, 127
1, 66432, Note_on_c, 9, 42, 124
1, 66432, Note_on_c, 9, 36, 127
1, 66432, Note_on_c, 9, 54, 108
1, 66441, Note_off_c, 9, 54, 108
1, 66441, Note_off_c, 9, 36, 127
1, 66441, Note_off_c, 9, 42, 124
1, 66441, Note_off_c, 9, 40, 127
1, 66441, Note_off_c, 9, 39, 126
1, 66449, Note_off_c, 5, 49, 108
1, 66491, Note_off_c, 0, 39, 101
1, 66525, Note_off_c, 4, 73, 115
1, 66525, Note_off_c, 4, 61, 115
1, 66553, Note_off_c, 2, 49, 115
1, 66560, Note_on_c, 0, 54, 109
1, 66560, Note_on_c, 0, 49, 90
1, 66560, Note_on_c, 1, 39, 98
1, 66560, Note_on_c, 2, 51, 94
1, 66560, Note_on_c, 4, 63, 115
1, 66560, Note_on_c, 4, 75, 115
1, 66563, Note_off_c, 1, 37, 96
1, 66573, Note_off_c, 0, 49, 90
1, 66597, Note_off_c, 0, 54, 109
1, 66601, Note_off_c, 2, 51, 94
1, 66607, Note_off_c, 4, 75, 115
1, 66607, Note_off_c, 4, 63, 115
1, 66624, Note_on_c, 0, 27, 108
1, 66624, Note_on_c, 2, 39, 108
1, 66624, Note_on_c, 5, 51, 124
1, 66624, Note_on_c, 9, 42, 73
1, 66633, Note_off_c, 9, 42, 73
1, 66633, Note_off_c, 1, 39, 98
1, 66659, Note_off_c, 5, 51, 124
1, 66663, Note_off_c, 2, 39, 108
1, 66691, Note_off_c, 0, 27, 108
1, 66752, Note_on_c, 0, 39, 93
1, 66752, Note_on_c, 1, 37, 77
1, 66781, Note_off_c, 0, 39, 93
1, 66789, Note_off_c, 1, 37, 77
1, 66816, Note_on_c, 0, 54, 127
1, 66816, Note_on_c, 0, 49, 115
1, 66816, Note_on_c, 1, 44, 105
1, 66816, Note_on_c, 2, 46, 117
1, 66816, Note_on_c, 2, 45, 120
1, 66816, Note_on_c, 3, 61, 127
1, 66816, Note_on_c, 4, 70, 115
1, 66816, Note_on_c, 4, 82, 115
1, 66816, Note_on_c, 5, 54, 127
1, 66816, Note_on_c, 9, 36, 127
1, 66816, Note_on_c, 9, 42, 107
1, 66825, Note_off_c, 9, 42, 107
1, 66825, Note_off_c, 9, 36, 127
1, 66837, Pitch_bend_c, 1, 11264
1, 66839, Note_off_c, 0, 49, 115
1, 66845, Note_off_c, 3, 61, 127
1, 66851, Note_off_c, 2, 45, 120
1, 66851, Pitch_bend_c, 1, 16383
1, 66855, Note_off_c, 5, 54, 127
1, 66861, Note_off_c, 0, 54, 127
1, 66873, Note_off_c, 4, 82, 115
1, 66873, Note_off_c, 4, 70, 115
1, 66887, Pitch_bend_c, 3, 7360
1, 66897, Pitch_bend_c, 3, 4736
1, 66909, Note_off_c, 1, 44, 105
1, 66909, Pitch_bend_c, 3, 2368
1, 66932, Note_on_c, 3, 56, 127
1, 66933, Pitch_bend_c, 1, 16288
1, 66937, Pitch_bend_c, 1, 14752
1, 66937, Pitch_bend_c, 3, 7552
1, 66949, Pitch_bend_c, 1, 11360
1, 66949, Pitch_bend_c, 3, 8192
1, 66963, Pitch_bend_c, 1, 8448
1, 66975, Note_off_c, 2, 46, 117
1, 66981, Pitch_bend_c, 1, 8192
1, 67008, Note_on_c, 0, 39, 95
1, 67008, Note_on_c, 1, 42, 107
1, 67008, Note_on_c, 2, 49, 87
1, 67008, Note_on_c, 4, 68, 115
1, 67008, Note_on_c, 4, 80, 115
1, 67008, Note_on_c, 5, 56, 127
1, 67008, Note_on_c, 9, 42, 78
1, 67008, Note_on_c, 9, 36, 127
1, 67017, Note_off_c, 9, 36, 127
1, 67017, Note_off_c, 9, 42, 78
1, 67051, Control_c, 3, 1, 8
1, 67053, Note_off_c, 5, 56, 127
1, 67055, Note_off_c, 0, 39, 95
1, 67059, Note_off_c, 4, 80, 115
1, 67059, Note_off_c, 4, 68, 115
1, 67069, Control_c, 3, 1, 29
1, 67089, Note_off_c, 2, 49, 87
1, 67093, Control_c, 3, 1, 38
1, 67099, Note_off_c, 1, 42, 107
1, 67105, Control_c, 3, 1, 43
1, 67123, Control_c, 3, 1, 46
1, 67136, Note_on_c, 2, 45, 109
1, 67136, Note_on_c, 2, 46, 92
1, 67141, Control_c, 3, 1, 50
1, 67153, Note_off_c, 3, 56, 127
1, 67163, Control_c, 3, 1, 52
1, 67183, Note_off_c, 2, 46, 92
1, 67195, Control_c, 3, 1, 56
1, 67200, Note_on_c, 0, 51, 127
1, 67200, Note_on_c, 0, 56, 127
1, 67200, Note_on_c, 1, 42, 100
1, 67200, Note_on_c, 2, 44, 85
1, 67200, Note_on_c, 4, 66, 115
1, 67200, Note_on_c, 4, 78, 115
1, 67200, Note_on_c, 5, 54, 127
1, 67200, Note_on_c, 9, 39, 127
1, 67200, Note_on_c, 9, 40, 127
1, 67200, Note_on_c, 9, 42, 127
1, 67200, Note_on_c, 9, 36, 127
1, 67200, Note_on_c, 9, 54, 112
1, 67205, Note_off_c, 2, 45, 109
1, 67206, Note_on_c, 3, 56, 124
1, 67209, Note_off_c, 9, 54, 112
1, 67209, Note_off_c, 9, 36, 127
1, 67209, Note_off_c, 9, 42, 127
1, 67209, Note_off_c, 9, 40, 127
1, 67209, Note_off_c, 9, 39, 127
1, 67229, Control_c, 3, 1, 57
1, 67239, Control_c, 3, 1, 59
1, 67243, Note_off_c, 5, 54, 127
1, 67253, Control_c, 3, 1, 66
1, 67263, Note_off_c, 4, 78, 115
1, 67263, Note_off_c, 4, 66, 115
1, 67269, Control_c, 3, 1, 68
1, 67285, Control_c, 3, 1, 69
1, 67305, Note_off_c, 2, 44, 85
1, 67305, Control_c, 3, 1, 71
1, 67327, Note_off_c, 0, 51, 127
1, 67327, Control_c, 3, 1, 72
1, 67328, Note_on_c, 2, 42, 95
1, 67339, Note_off_c, 0, 56, 127
1, 67353, Note_off_c, 3, 56, 124
1, 67355, Control_c, 3, 1, 71
1, 67367, Note_off_c, 1, 42, 100
1, 67367, Control_c, 3, 1, 65
1, 67373, Note_off_c, 2, 42, 95
1, 67377, Control_c, 3, 1, 57
1, 67392, Note_on_c, 0, 49, 111
1, 67392, Note_on_c, 0, 54, 119
1, 67392, Note_on_c, 1, 39, 93
1, 67392, Note_on_c, 2, 44, 95
1, 67392, Note_on_c, 5, 49, 126
1, 67392, Note_on_c, 9, 42, 71
1, 67392, Note_on_c, 9, 36, 127
1, 67393, Control_c, 3, 1, 39
1, 67401, Note_off_c, 9, 36, 127
1, 67401, Note_off_c, 9, 42, 71
1, 67404, Note_on_c, 3, 54, 95
1, 67423, Note_off_c, 5, 49, 126
1, 67429, Note_off_c, 3, 54, 95
1, 67433, Control_c, 3, 1, 38
1, 67447, Note_off_c, 0, 54, 119
1, 67457, Control_c, 3, 1, 37
1, 67469, Control_c, 3, 1, 38
1, 67489, Note_off_c, 2, 44, 95
1, 67491, Control_c, 3, 1, 44
1, 67499, Note_off_c, 0, 49, 111
1, 67501, Note_off_c, 1, 39, 93
1, 67501, Control_c, 3, 1, 46
1, 67512, Note_on_c, 3, 56, 127
1, 67520, Note_on_c, 1, 37, 89
1, 67520, Note_on_c, 2, 42, 88
1, 67520, Note_on_c, 5, 51, 127
1, 67521, Control_c, 3, 1, 59
1, 67539, Control_c, 3, 1, 67
1, 67545, Note_off_c, 5, 51, 127
1, 67557, Control_c, 3, 1, 71
1, 67561, Note_off_c, 2, 42, 88
1, 67569, Note_off_c, 1, 37, 89
1, 67575, Control_c, 3, 1, 73
1, 67584, Note_on_c, 0, 27, 120
1, 67584, Note_on_c, 1, 27, 88
1, 67584, Note_on_c, 1, 29, 97
1, 67584, Note_on_c, 2, 39, 127
1, 67584, Note_on_c, 9, 36, 127
1, 67584, Note_on_c, 9, 42, 115
1, 67591, Control_c, 3, 1, 77
1, 67593, Note_off_c, 9, 42, 115
1, 67593, Note_off_c, 9, 36, 127
1, 67597, Note_off_c, 1, 29, 97
1, 67609, Control_c, 3, 1, 80
1, 67629, Control_c, 3, 1, 82
1, 67649, Control_c, 3, 1, 84
1, 67673, Control_c, 3, 1, 85
1, 67691, Control_c, 3, 1, 86
1, 67697, Note_off_c, 0, 27, 120
1, 67699, Control_c, 3, 1, 87
1, 67712, Note_on_c, 0, 39, 110
1, 67712, Note_on_c, 5, 49, 113
1, 67719, Control_c, 3, 1, 89
1, 67737, Note_off_c, 5, 49, 113
1, 67737, Note_off_c, 2, 39, 127
1, 67743, Note_off_c, 0, 39, 110
1, 67747, Control_c, 3, 1, 90
1, 67759, Control_c, 3, 1, 88
1, 67775, Control_c, 3, 1, 72
1, 67776, Note_on_c, 0, 54, 127
1, 67776, Note_on_c, 0, 49, 127
1, 67776, Note_on_c, 1, 39, 107
1, 67776, Note_on_c, 2, 51, 117
1, 67776, Note_on_c, 4, 63, 115
1, 67776, Note_on_c, 4, 75, 115
1, 67776, Note_on_c, 5, 51, 127
1, 67776, Note_on_c, 9, 42, 57
1, 67783, Note_off_c, 1, 27, 88
1, 67783, Note_off_c, 3, 56, 127
1, 67785, Note_off_c, 9, 42, 57
1, 67786, Note_on_c, 3, 54, 112
1, 67789, Control_c, 3, 1, 24
1, 67809, Note_off_c, 0, 49, 127
1, 67817, Note_off_c, 0, 54, 127
1, 67817, Control_c, 3, 1, 0
1, 67827, Note_off_c, 5, 51, 127
1, 67827, Note_off_c, 2, 51, 117
1, 67849, Note_off_c, 1, 39, 107
1, 67861, Note_off_c, 3, 54, 112
1, 67869, Note_off_c, 4, 75, 115
1, 67869, Note_off_c, 4, 63, 115
1, 67904, Note_on_c, 1, 27, 69
1, 67904, Note_on_c, 2, 39, 75
1, 67915, Note_off_c, 2, 39, 75
1, 67923, Note_off_c, 1, 27, 69
1, 67968, Note_on_c, 1, 37, 101
1, 67968, Note_on_c, 2, 49, 112
1, 67968, Note_on_c, 5, 49, 126
1, 67968, Note_on_c, 9, 39, 124
1, 67968, Note_on_c, 9, 40, 127
1, 67968, Note_on_c, 9, 42, 126
1, 67968, Note_on_c, 9, 36, 127
1, 67968, Note_on_c, 9, 54, 110
1, 67977, Note_off_c, 9, 54, 110
1, 67977, Note_off_c, 9, 36, 127
1, 67977, Note_off_c, 9, 42, 126
1, 67977, Note_off_c, 9, 40, 127
1, 67977, Note_off_c, 9, 39, 124
1, 67991, Note_off_c, 5, 49, 126
1, 68047, Note_off_c, 2, 49, 112
1, 68071, Note_off_c, 1, 37, 101
1, 68096, Note_on_c, 1, 39, 90
1, 68096, Note_on_c, 2, 51, 92
1, 68096, Note_on_c, 4, 63, 115
1, 68096, Note_on_c, 4, 75, 115
1, 68127, Note_off_c, 2, 51, 92
1, 68139, Note_off_c, 1, 39, 90
1, 68160, Note_on_c, 0, 49, 114
1, 68160, Note_on_c, 0, 54, 109
1, 68160, Note_on_c, 1, 27, 98
1, 68160, Note_on_c, 2, 39, 127
1, 68160, Note_on_c, 5, 51, 127
1, 68160, Note_on_c, 9, 42, 66
1, 68169, Note_off_c, 9, 42, 66
1, 68169, Note_off_c, 0, 54, 109
1, 68187, Note_off_c, 0, 49, 114
1, 68189, Note_off_c, 4, 75, 115
1, 68189, Note_off_c, 4, 63, 115
1, 68195, Note_off_c, 2, 39, 127
1, 68199, Note_off_c, 5, 51, 127
1, 68293, Note_off_c, 1, 27, 98
1, 68352, Note_on_c, 0, 54, 125
1, 68352, Note_on_c, 0, 49, 118
1, 68352, Note_on_c, 1, 30, 118
1, 68352, Note_on_c, 2, 54, 108
1, 68352, Note_on_c, 2, 49, 108
1, 68352, Note_on_c, 4, 54, 115
1, 68352, Note_on_c, 4, 66, 115
1, 68352, Note_on_c, 5, 54, 127
1, 68352, Note_on_c, 9, 36, 127
1, 68352, Note_on_c, 9, 42, 110
1, 68361, Note_off_c, 9, 42, 110
1, 68361, Note_off_c, 9, 36, 127
1, 68381, Note_off_c, 2, 54, 108
1, 68399, Note_off_c, 5, 54, 127
1, 68399, Note_off_c, 2, 49, 108
1, 68407, Note_off_c, 0, 49, 118
1, 68411, Note_off_c, 0, 54, 125
1, 68439, Note_off_c, 1, 30, 118
1, 68445, Note_off_c, 4, 66, 115
1, 68445, Note_off_c, 4, 54, 115
1, 68480, Note_on_c, 1, 32, 79
1, 68480, Note_on_c, 4, 56, 115
1, 68480, Note_on_c, 4, 68, 115
1, 68539, Note_off_c, 1, 32, 79
1, 68544, Note_on_c, 0, 39, 110
1, 68544, Note_on_c, 1, 34, 93
1, 68544, Note_on_c, 4, 58, 115
1, 68544, Note_on_c, 4, 70, 115
1, 68544, Note_on_c, 5, 56, 126
1, 68544, Note_on_c, 9, 42, 76
1, 68553, Note_off_c, 9, 42, 76
1, 68573, Note_off_c, 4, 68, 115
1, 68573, Note_off_c, 4, 56, 115
1, 68589, Note_off_c, 0, 39, 110
1, 68595, Note_off_c, 5, 56, 126
1, 68617, Note_off_c, 1, 34, 93
1, 68637, Note_off_c, 4, 70, 115
1, 68637, Note_off_c, 4, 58, 115
1, 68672, Note_on_c, 0, 51, 125
1, 68672, Note_on_c, 0, 56, 126
1, 68672, Note_on_c, 1, 37, 102
1, 68672, Note_on_c, 2, 54, 108
1, 68672, Note_on_c, 2, 49, 110
1, 68672, Note_on_c, 4, 61, 115
1, 68672, Note_on_c, 4, 73, 115
1, 68672, Note_on_c, 9, 46, 91
1, 68681, Note_off_c, 9, 46, 91
1, 68715, Note_off_c, 2, 54, 108
1, 68719, Note_off_c, 2, 49, 110
1, 68736, Note_on_c, 5, 54, 127
1, 68736, Note_on_c, 9, 39, 127
1, 68736, Note_on_c, 9, 40, 127
1, 68736, Note_on_c, 9, 42, 105
1, 68736, Note_on_c, 9, 36, 127
1, 68736, Note_on_c, 9, 54, 110
1, 68745, Note_off_c, 9, 54, 110
1, 68745, Note_off_c, 9, 36, 127
1, 68745, Note_off_c, 9, 42, 105
1, 68745, Note_off_c, 9, 40, 127
1, 68745, Note_off_c, 9, 39, 127
1, 68781, Note_off_c, 5, 54, 127
1, 68837, Note_off_c, 1, 37, 102
1, 68861, Note_off_c, 4, 73, 115
1, 68861, Note_off_c, 4, 61, 115
1, 68864, Note_on_c, 0, 39, 112
1, 68864, Note_on_c, 1, 34, 87
1, 68864, Note_on_c, 4, 58, 115
1, 68864, Note_on_c, 4, 70, 115
1, 68865, Note_off_c, 0, 51, 125
1, 68873, Note_off_c, 0, 56, 126
1, 68905, Note_off_c, 4, 70, 115
1, 68905, Note_off_c, 4, 58, 115
1, 68913, Note_off_c, 0, 39, 112
1, 68915, Note_off_c, 1, 34, 87
1, 68928, Note_on_c, 0, 54, 127
1, 68928, Note_on_c, 1, 39, 101
1, 68928, Note_on_c, 2, 54, 112
1, 68928, Note_on_c, 2, 49, 112
1, 68928, Note_on_c, 4, 63, 115
1, 68928, Note_on_c, 4, 75, 115
1, 68928, Note_on_c, 5, 49, 122
1, 68928, Note_on_c, 9, 42, 87
1, 68937, Note_off_c, 9, 42, 87
1, 68955, Note_off_c, 5, 49, 122
1, 68992, Note_on_c, 0, 49, 118
1, 69013, Note_off_c, 1, 39, 101
1, 69021, Note_off_c, 4, 75, 115
1, 69021, Note_off_c, 4, 63, 115
1, 69056, Note_on_c, 1, 39, 87
1, 69056, Note_on_c, 4, 63, 115
1, 69056, Note_on_c, 4, 75, 115
1, 69056, Note_on_c, 5, 51, 126
1, 69067, Note_off_c, 0, 54, 127
1, 69091, Note_off_c, 5, 51, 126
1, 69107, Note_off_c, 4, 75, 115
1, 69107, Note_off_c, 4, 63, 115
1, 69107, Note_off_c, 2, 54, 112
1, 69120, Note_on_c, 0, 27, 124
1, 69120, Note_on_c, 1, 27, 107
1, 69120, Note_on_c, 2, 39, 111
1, 69120, Note_on_c, 9, 42, 84
1, 69120, Note_on_c, 9, 36, 127
1, 69129, Note_off_c, 9, 36, 127
1, 69129, Note_off_c, 9, 42, 84
1, 69129, Note_off_c, 0, 49, 118
1, 69129, Note_off_c, 2, 49, 112
1, 69141, Note_off_c, 1, 39, 87
1, 69237, Note_off_c, 2, 39, 111
1, 69248, Note_on_c, 5, 49, 123
1, 69267, Note_off_c, 5, 49, 123
1, 69295, Note_off_c, 1, 27, 107
1, 69309, Note_off_c, 0, 27, 124
1, 69312, Note_on_c, 0, 54, 114
1, 69312, Note_on_c, 0, 49, 100
1, 69312, Note_on_c, 1, 39, 107
1, 69312, Note_on_c, 2, 51, 114
1, 69312, Note_on_c, 4, 63, 115
1, 69312, Note_on_c, 4, 75, 115
1, 69312, Note_on_c, 5, 51, 127
1, 69312, Note_on_c, 9, 42, 78
1, 69321, Note_off_c, 9, 42, 78
1, 69327, Note_off_c, 0, 49, 100
1, 69345, Note_off_c, 0, 54, 114
1, 69357, Note_off_c, 5, 51, 127
1, 69361, Note_off_c, 4, 75, 115
1, 69361, Note_off_c, 4, 63, 115
1, 69365, Note_off_c, 2, 51, 114
1, 69381, Note_off_c, 1, 39, 107
1, 69440, Note_on_c, 1, 27, 72
1, 69477, Note_off_c, 1, 27, 72
1, 69504, Note_on_c, 0, 54, 127
1, 69504, Note_on_c, 0, 49, 124
1, 69504, Note_on_c, 1, 37, 102
1, 69504, Note_on_c, 2, 49, 121
1, 69504, Note_on_c, 4, 61, 115
1, 69504, Note_on_c, 4, 73, 115
1, 69504, Note_on_c, 5, 49, 127
1, 69504, Note_on_c, 9, 39, 127
1, 69504, Note_on_c, 9, 42, 120
1, 69504, Note_on_c, 9, 40, 126
1, 69504, Note_on_c, 9, 36, 127
1, 69504, Note_on_c, 9, 54, 106
1, 69513, Note_off_c, 9, 54, 106
1, 69513, Note_off_c, 9, 36, 127
1, 69513, Note_off_c, 9, 40, 126
1, 69513, Note_off_c, 9, 42, 120
1, 69513, Note_off_c, 9, 39, 127
1, 69527, Note_off_c, 0, 49, 124
1, 69535, Note_off_c, 5, 49, 127
1, 69535, Note_off_c, 0, 54, 127
1, 69597, Note_off_c, 4, 73, 115
1, 69597, Note_off_c, 4, 61, 115
1, 69613, Note_off_c, 1, 37, 102
1, 69632, Note_on_c, 1, 39, 101
1, 69632, Note_on_c, 4, 63, 115
1, 69632, Note_on_c, 4, 75, 115
1, 69641, Note_off_c, 2, 49, 121
1, 69679, Note_off_c, 4, 75, 115
1, 69679, Note_off_c, 4, 63, 115
1, 69689, Note_off_c, 1, 39, 101
1, 69696, Note_on_c, 0, 39, 90
1, 69696, Note_on_c, 2, 51, 110
1, 69696, Note_on_c, 5, 51, 119
1, 69696, Note_on_c, 9, 42, 70
1, 69696, Note_on_c, 9, 36, 127
1, 69705, Note_off_c, 9, 36, 127
1, 69705, Note_off_c, 9, 42, 70
1, 69737, Note_off_c, 5, 51, 119
1, 69747, Note_off_c, 0, 39, 90
1, 69753, Note_off_c, 2, 51, 110
1, 69887, Pitch_bend_c, 3, 8320
1, 69888, Note_on_c, 0, 54, 115
1, 69888, Note_on_c, 0, 49, 110
1, 69888, Note_on_c, 1, 44, 102
1, 69888, Note_on_c, 2, 44, 110
1, 69888, Note_on_c, 4, 70, 115
1, 69888, Note_on_c, 4, 82, 115
1, 69888, Note_on_c, 5, 58, 125
1, 69888, Note_on_c, 9, 42, 113
1, 69888, Note_on_c, 9, 36, 127
1, 69891, Pitch_bend_c, 3, 9088
1, 69894, Note_on_c, 3, 68, 127
1, 69897, Note_off_c, 9, 36, 127
1, 69897, Note_off_c, 9, 42, 113
1, 69909, Note_off_c, 0, 49, 110
1, 69915, Pitch_bend_c, 3, 10912
1, 69919, Note_off_c, 0, 54, 115
1, 69921, Pitch_bend_c, 1, 9760
1, 69921, Pitch_bend_c, 3, 12640
1, 69933, Pitch_bend_c, 1, 11456
1, 69941, Pitch_bend_c, 3, 13216
1, 69945, Note_off_c, 4, 82, 115
1, 69945, Note_off_c, 4, 70, 115
1, 69947, Note_off_c, 2, 44, 110
1, 69949, Note_off_c, 5, 58, 125
1, 69949, Pitch_bend_c, 3, 13056
1, 69951, Pitch_bend_c, 1, 13824
1, 69961, Pitch_bend_c, 1, 14144
1, 69961, Pitch_bend_c, 3, 11872
1, 69973, Pitch_bend_c, 1, 14208
1, 69981, Note_off_c, 1, 44, 102
1, 69981, Pitch_bend_c, 3, 11232
1, 69989, Pitch_bend_c, 3, 10880
1, 69993, Pitch_bend_c, 1, 13888
1, 70005, Pitch_bend_c, 1, 12160
1, 70005, Pitch_bend_c, 3, 10528
1, 70017, Pitch_bend_c, 3, 10368
1, 70019, Pitch_bend_c, 1, 10176
1, 70021, Note_off_c, 3, 68, 127
1, 70031, Pitch_bend_c, 1, 8736
1, 70039, Pitch_bend_c, 3, 9376
1, 70045, Pitch_bend_c, 1, 8320
1, 70047, Pitch_bend_c, 1, 8192
1, 70063, Pitch_bend_c, 3, 8320
1, 70067, Pitch_bend_c, 3, 8192
1, 70080, Note_on_c, 1, 42, 100
1, 70080, Note_on_c, 2, 45, 105
1, 70080, Note_on_c, 3, 68, 117
1, 70080, Note_on_c, 4, 68, 115
1, 70080, Note_on_c, 4, 80, 115
1, 70080, Note_on_c, 5, 56, 127
1, 70080, Note_on_c, 9, 42, 75
1, 70089, Note_off_c, 9, 42, 75
1, 70127, Pitch_bend_c, 1, 9696
1, 70129, Note_off_c, 5, 56, 127
1, 70131, Note_off_c, 4, 80, 115
1, 70131, Note_off_c, 4, 68, 115
1, 70141, Pitch_bend_c, 1, 13088
1, 70155, Pitch_bend_c, 1, 16160
1, 70171, Pitch_bend_c, 1, 16383
1, 70175, Note_off_c, 2, 45, 105
1, 70181, Note_off_c, 3, 68, 117
1, 70189, Note_off_c, 1, 42, 100
1, 70205, Control_c, 3, 1, 11
1, 70208, Note_on_c, 2, 46, 98
1, 70215, Pitch_bend_c, 1, 14656
1, 70219, Control_c, 3, 1, 25
1, 70229, Pitch_bend_c, 1, 12256
1, 70239, Pitch_bend_c, 1, 8352
1, 70243, Control_c, 3, 1, 32
1, 70257, Control_c, 3, 1, 35
1, 70259, Pitch_bend_c, 1, 8192
1, 70268, Note_on_c, 3, 68, 120
1, 70272, Note_on_c, 1, 42, 109
1, 70272, Note_on_c, 4, 66, 115
1, 70272, Note_on_c, 4, 78, 115
1, 70272, Note_on_c, 5, 54, 125
1, 70272, Note_on_c, 9, 39, 124
1, 70272, Note_on_c, 9, 42, 127
1, 70272, Note_on_c, 9, 40, 127
1, 70272, Note_on_c, 9, 36, 127
1, 70272, Note_on_c, 9, 54, 106
1, 70279, Note_off_c, 2, 46, 98
1, 70281, Note_off_c, 9, 54, 106
1, 70281, Note_off_c, 9, 36, 127
1, 70281, Note_off_c, 9, 40, 127
1, 70281, Note_off_c, 9, 42, 127
1, 70281, Note_off_c, 9, 39, 124
1, 70281, Control_c, 3, 1, 42
1, 70293, Control_c, 3, 1, 42
1, 70303, Note_off_c, 3, 68, 120
1, 70309, Control_c, 3, 1, 26
1, 70311, Note_off_c, 5, 54, 125
1, 70329, Control_c, 3, 1, 17
1, 70335, Note_off_c, 4, 78, 115
1, 70335, Note_off_c, 4, 66, 115
1, 70349, Control_c, 3, 1, 13
1, 70369, Control_c, 3, 1, 12
1, 70393, Control_c, 3, 1, 13
1, 70400, Note_on_c, 2, 49, 110
1, 70401, Control_c, 3, 1, 15
1, 70431, Control_c, 3, 1, 16
1, 70437, Control_c, 1, 1, 10
1, 70443, Note_off_c, 1, 42, 109
1, 70453, Control_c, 1, 1, 24
1, 70457, Control_c, 3, 1, 18
1, 70464, Note_on_c, 0, 37, 105
1, 70464, Note_on_c, 1, 39, 97
1, 70464, Note_on_c, 5, 49, 103
1, 70464, Note_on_c, 9, 42, 82
1, 70466, Note_on_c, 3, 68, 126
1, 70471, Control_c, 1, 1, 5
1, 70473, Note_off_c, 9, 42, 82
1, 70473, Note_off_c, 2, 49, 110
1, 70483, Note_off_c, 5, 49, 103
1, 70483, Control_c, 3, 1, 20
1, 70489, Control_c, 3, 1, 23
1, 70503, Control_c, 1, 1, 0
1, 70507, Control_c, 3, 1, 26
1, 70509, Note_off_c, 3, 68, 126
1, 70525, Control_c, 3, 1, 28
1, 70535, Note_off_c, 0, 37, 105
1, 70545, Note_off_c, 1, 39, 97
1, 70553, Control_c, 3, 1, 30
1, 70576, Note_on_c, 3, 66, 119
1, 70581, Control_c, 3, 1, 31
1, 70592, Note_on_c, 1, 37, 90
1, 70592, Note_on_c, 2, 51, 117
1, 70592, Note_on_c, 5, 51, 127
1, 70603, Control_c, 3, 1, 34
1, 70615, Control_c, 3, 1, 36
1, 70625, Note_off_c, 5, 51, 127
1, 70631, Note_off_c, 2, 51, 117
1, 70631, Note_off_c, 1, 37, 90
1, 70633, Control_c, 3, 1, 37
1, 70653, Control_c, 3, 1, 39
1, 70656, Note_on_c, 0, 27, 123
1, 70656, Note_on_c, 1, 27, 105
1, 70656, Note_on_c, 2, 39, 127
1, 70656, Note_on_c, 9, 36, 127
1, 70656, Note_on_c, 9, 49, 84
1, 70656, Note_on_c, 9, 54, 89
1, 70665, Note_off_c, 9, 54, 89
1, 70665, Note_off_c, 9, 49, 84
1, 70665, Note_off_c, 9, 36, 127
1, 70683, Control_c, 3, 1, 40
1, 70687, Control_c, 3, 1, 46
1, 70707, Control_c, 3, 1, 54
1, 70725, Control_c, 3, 1, 67
1, 70745, Control_c, 3, 1, 74
1, 70761, Control_c, 3, 1, 81
1, 70781, Control_c, 3, 1, 85
1, 70784, Note_on_c, 5, 49, 123
1, 70795, Control_c, 3, 1, 88
1, 70797, Note_off_c, 2, 39, 127
1, 70807, Note_off_c, 5, 49, 123
1, 70807, Note_off_c, 1, 27, 105
1, 70813, Control_c, 3, 1, 94
1, 70815, Note_off_c, 3, 66, 119
1, 70848, Note_on_c, 0, 49, 105
1, 70848, Note_on_c, 1, 39, 98
1, 70848, Note_on_c, 2, 51, 115
1, 70848, Note_on_c, 4, 63, 114
1, 70848, Note_on_c, 4, 75, 114
1, 70848, Note_on_c, 5, 51, 127
1, 70848, Note_on_c, 9, 42, 77
1, 70848, Note_on_c, 9, 54, 53
1, 70850, Note_on_c, 3, 63, 127
1, 70857, Note_off_c, 9, 54, 53
1, 70857, Note_off_c, 9, 42, 77
1, 70865, Note_off_c, 0, 27, 123
1, 70871, Note_off_c, 0, 49, 105
1, 70871, Control_c, 3, 1, 98
1, 70889, Control_c, 3, 1, 101
1, 70899, Note_off_c, 2, 51, 115
1, 70903, Note_off_c, 5, 51, 127
1, 70905, Control_c, 3, 1, 98
1, 70913, Note_off_c, 1, 39, 98
1, 70921, Control_c, 3, 1, 93
1, 70941, Note_off_c, 4, 75, 114
1, 70941, Note_off_c, 4, 63, 114
1, 70941, Control_c, 3, 1, 87
1, 70957, Control_c, 3, 1, 79
1, 70976, Note_on_c, 1, 27, 61
1, 70979, Control_c, 3, 1, 76
1, 70981, Note_off_c, 3, 63, 127
1, 70995, Control_c, 3, 1, 71
1, 71009, Note_off_c, 1, 27, 61
1, 71015, Control_c, 3, 1, 68
1, 71037, Control_c, 3, 1, 71
1, 71040, Note_on_c, 0, 54, 122
1, 71040, Note_on_c, 0, 49, 119
1, 71040, Note_on_c, 1, 37, 92
1, 71040, Note_on_c, 2, 49, 106
1, 71040, Note_on_c, 5, 49, 127
1, 71040, Note_on_c, 9, 39, 126
1, 71040, Note_on_c, 9, 40, 127
1, 71040, Note_on_c, 9, 42, 122
1, 71040, Note_on_c, 9, 36, 127
1, 71040, Note_on_c, 9, 54, 112
1, 71044, Note_on_c, 3, 63, 127
1, 71049, Note_off_c, 9, 54, 112
1, 71049, Note_off_c, 9, 36, 127
1, 71049, Note_off_c, 9, 42, 122
1, 71049, Note_off_c, 9, 40, 127
1, 71049, Note_off_c, 9, 39, 126
1, 71065, Control_c, 3, 1, 80
1, 71067, Note_off_c, 5, 49, 127
1, 71071, Note_off_c, 0, 49, 119
1, 71073, Note_off_c, 0, 54, 122
1, 71085, Control_c, 3, 1, 84
1, 71109, Control_c, 3, 1, 79
1, 71125, Control_c, 3, 1, 77
1, 71137, Control_c, 3, 1, 70
1, 71139, Note_off_c, 1, 37, 92
1, 71153, Note_off_c, 2, 49, 106
1, 71161, Control_c, 3, 1, 63
1, 71168, Note_on_c, 1, 39, 90
1, 71168, Note_on_c, 2, 51, 88
1, 71168, Note_on_c, 4, 63, 114
1, 71168, Note_on_c, 4, 75, 114
1, 71175, Control_c, 3, 1, 57
1, 71191, Control_c, 3, 1, 49
1, 71201, Note_off_c, 3, 63, 127
1, 71207, Note_off_c, 2, 51, 88
1, 71209, Control_c, 3, 1, 42
1, 71217, Note_off_c, 1, 39, 90
1, 71231, Control_c, 3, 1, 41
1, 71232, Note_on_c, 0, 39, 108
1, 71232, Note_on_c, 1, 27, 97
1, 71232, Note_on_c, 2, 39, 111
1, 71232, Note_on_c, 5, 51, 121
1, 71232, Note_on_c, 9, 42, 62
1, 71232, Note_on_c, 9, 54, 61
1, 71234, Note_on_c, 3, 61, 96
1, 71241, Note_off_c, 9, 54, 61
1, 71241, Note_off_c, 9, 42, 62
1, 71255, Control_c, 3, 1, 42
1, 71257, Note_off_c, 2, 39, 111
1, 71261, Note_off_c, 4, 75, 114
1, 71261, Note_off_c, 4, 63, 114
1, 71263, Control_c, 3, 1, 47
1, 71271, Note_off_c, 5, 51, 121
1, 71283, Note_off_c, 3, 61, 96
1, 71283, Control_c, 3, 1, 50
1, 71305, Note_off_c, 0, 39, 108
1, 71321, Control_c, 3, 1, 51
1, 71344, Note_on_c, 3, 58, 118
1, 71349, Control_c, 3, 1, 56
1, 71355, Control_c, 3, 1, 58
1, 71371, Note_off_c, 1, 27, 97
1, 71381, Note_off_c, 3, 58, 118
1, 71385, Control_c, 3, 1, 57
1, 71401, Control_c, 3, 1, 59
1, 71413, Control_c, 3, 1, 64
1, 71424, Note_on_c, 0, 54, 123
1, 71424, Note_on_c, 0, 49, 95
1, 71424, Note_on_c, 1, 30, 104
1, 71424, Note_on_c, 2, 54, 112
1, 71424, Note_on_c, 2, 49, 107
1, 71424, Note_on_c, 3, 61, 127
1, 71424, Note_on_c, 4, 54, 114
1, 71424, Note_on_c, 4, 66, 114
1, 71424, Note_on_c, 5, 54, 127
1, 71424, Note_on_c, 9, 42, 117
1, 71424, Note_on_c, 9, 36, 127
1, 71424, Note_on_c, 9, 54, 104
1, 71433, Note_off_c, 9, 54, 104
1, 71433, Note_off_c, 9, 36, 127
1, 71433, Note_off_c, 9, 42, 117
1, 71439, Note_off_c, 0, 49, 95
1, 71445, Control_c, 3, 1, 68
1, 71447, Note_off_c, 2, 54, 112
1, 71463, Note_off_c, 2, 49, 107
1, 71463, Control_c, 3, 1, 74
1, 71465, Note_off_c, 0, 54, 123
1, 71469, Note_off_c, 5, 54, 127
1, 71479, Control_c, 3, 1, 78
1, 71499, Note_off_c, 3, 61, 127
1, 71499, Control_c, 3, 1, 80
1, 71504, Note_on_c, 3, 63, 126
1, 71507, Note_off_c, 1, 30, 104
1, 71515, Control_c, 3, 1, 82
1, 71517, Note_off_c, 4, 66, 114
1, 71517, Note_off_c, 4, 54, 114
1, 71539, Control_c, 3, 1, 86
1, 71552, Note_on_c, 1, 32, 74
1, 71552, Note_on_c, 4, 56, 114
1, 71552, Note_on_c, 4, 68, 114
1, 71563, Control_c, 3, 1, 85
1, 71569, Control_c, 3, 1, 82
1, 71593, Control_c, 3, 1, 84
1, 71607, Control_c, 3, 1, 83
1, 71616, Note_on_c, 0, 39, 96
1, 71616, Note_on_c, 1, 34, 93
1, 71616, Note_on_c, 2, 39, 88
1, 71616, Note_on_c, 4, 58, 114
1, 71616, Note_on_c, 4, 70, 114
1, 71616, Note_on_c, 5, 56, 127
1, 71616, Note_on_c, 9, 42, 63
1, 71616, Note_on_c, 9, 54, 51
1, 71617, Note_off_c, 1, 32, 74
1, 71625, Note_off_c, 9, 54, 51
1, 71625, Note_off_c, 9, 42, 63
1, 71627, Control_c, 3, 1, 79
1, 71629, Note_off_c, 2, 39, 88
1, 71645, Note_off_c, 4, 68, 114
1, 71645, Note_off_c, 4, 56, 114
1, 71647, Control_c, 3, 1, 76
1, 71659, Control_c, 3, 1, 71
1, 71667, Note_off_c, 5, 56, 127
1, 71677, Note_off_c, 1, 34, 93
1, 71677, Note_off_c, 0, 39, 96
1, 71683, Control_c, 3, 1, 70
1, 71699, Control_c, 3, 1, 71
1, 71709, Note_off_c, 4, 70, 114
1, 71709, Note_off_c, 4, 58, 114
1, 71719, Control_c, 3, 1, 74
1, 71731, Control_c, 3, 1, 81
1, 71744, Note_on_c, 0, 54, 113
1, 71744, Note_on_c, 0, 49, 110
1, 71744, Note_on_c, 1, 37, 98
1, 71744, Note_on_c, 2, 51, 115
1, 71744, Note_on_c, 4, 61, 114
1, 71744, Note_on_c, 4, 73, 114
1, 71749, Control_c, 3, 1, 80
1, 71769, Control_c, 3, 1, 66
1, 71779, Note_off_c, 2, 51, 115
1, 71785, Control_c, 3, 1, 50
1, 71793, Note_off_c, 0, 49, 110
1, 71795, Note_off_c, 3, 63, 126
1, 71805, Note_off_c, 0, 54, 113
1, 71805, Control_c, 3, 1, 27
1, 71808, Note_on_c, 5, 54, 127
1, 71808, Note_on_c, 9, 39, 122
1, 71808, Note_on_c, 9, 40, 127
1, 71808, Note_on_c, 9, 42, 126
1, 71808, Note_on_c, 9, 36, 127
1, 71808, Note_on_c, 9, 54, 106
1, 71817, Note_off_c, 9, 54, 106
1, 71817, Note_off_c, 9, 36, 127
1, 71817, Note_off_c, 9, 42, 126
1, 71817, Note_off_c, 9, 40, 127
1, 71817, Note_off_c, 9, 39, 122
1, 71823, Control_c, 3, 1, 0
1, 71857, Note_off_c, 5, 54, 127
1, 71919, Note_off_c, 1, 37, 98
1, 71933, Note_off_c, 4, 73, 114
1, 71933, Note_off_c, 4, 61, 114
1, 71936, Note_on_c, 0, 39, 100
1, 71936, Note_on_c, 1, 34, 88
1, 71936, Note_on_c, 2, 39, 94
1, 71936, Note_on_c, 4, 58, 114
1, 71936, Note_on_c, 4, 70, 114
1, 71947, Note_off_c, 2, 39, 94
1, 71977, Note_off_c, 4, 70, 114
1, 71977, Note_off_c, 4, 58, 114
1, 71985, Note_off_c, 1, 34, 88
1, 72000, Note_on_c, 0, 56, 120
1, 72000, Note_on_c, 0, 51, 118
1, 72000, Note_on_c, 1, 39, 100
1, 72000, Note_on_c, 2, 49, 108
1, 72000, Note_on_c, 4, 63, 114
1, 72000, Note_on_c, 4, 75, 114
1, 72000, Note_on_c, 9, 42, 64
1, 72000, Note_on_c, 9, 54, 59
1, 72009, Note_off_c, 9, 54, 59
1, 72009, Note_off_c, 9, 42, 64
1, 72021, Note_off_c, 0, 39, 100
1, 72045, Note_off_c, 0, 51, 118
1, 72077, Note_off_c, 0, 56, 120
1, 72081, Note_off_c, 1, 39, 100
1, 72093, Note_off_c, 4, 75, 114
1, 72093, Note_off_c, 4, 63, 114
1, 72111, Note_off_c, 2, 49, 108
1, 72128, Note_on_c, 0, 54, 111
1, 72128, Note_on_c, 0, 49, 99
1, 72128, Note_on_c, 1, 39, 97
1, 72128, Note_on_c, 2, 51, 96
1, 72128, Note_on_c, 4, 63, 114
1, 72128, Note_on_c, 4, 75, 114
1, 72128, Note_on_c, 5, 51, 127
1, 72161, Note_off_c, 2, 51, 96
1, 72161, Note_off_c, 0, 49, 99
1, 72167, Note_off_c, 0, 54, 111
1, 72179, Note_off_c, 4, 75, 114
1, 72179, Note_off_c, 4, 63, 114
1, 72183, Note_off_c, 5, 51, 127
1, 72192, Note_on_c, 0, 27, 116
1, 72192, Note_on_c, 1, 27, 104
1, 72192, Note_on_c, 2, 39, 127
1, 72192, Note_on_c, 9, 36, 127
1, 72192, Note_on_c, 9, 42, 109
1, 72192, Note_on_c, 9, 54, 112
1, 72201, Note_off_c, 9, 54, 112
1, 72201, Note_off_c, 9, 42, 109
1, 72201, Note_off_c, 9, 36, 127
1, 72201, Note_off_c, 1, 39, 97
1, 72253, Note_off_c, 2, 39, 127
1, 72307, Note_off_c, 0, 27, 116
1, 72320, Note_on_c, 5, 49, 118
1, 72345, Note_off_c, 5, 49, 118
1, 72355, Note_off_c, 1, 27, 104
1, 72384, Note_on_c, 0, 54, 114
1, 72384, Note_on_c, 0, 49, 117
1, 72384, Note_on_c, 1, 39, 104
1, 72384, Note_on_c, 2, 51, 127
1, 72384, Note_on_c, 4, 63, 114
1, 72384, Note_on_c, 4, 75, 114
1, 72384, Note_on_c, 5, 51, 127
1, 72384, Note_on_c, 9, 42, 67
1, 72384, Note_on_c, 9, 54, 66
1, 72393, Note_off_c, 9, 54, 66
1, 72393, Note_off_c, 9, 42, 67
1, 72409, Note_off_c, 0, 49, 117
1, 72413, Note_off_c, 0, 54, 114
1, 72429, Note_off_c, 2, 51, 127
1, 72433, Note_off_c, 5, 51, 127
1, 72433, Note_off_c, 4, 75, 114
1, 72433, Note_off_c, 4, 63, 114
1, 72443, Note_off_c, 1, 39, 104
1, 72512, Note_on_c, 1, 27, 79
1, 72547, Note_off_c, 1, 27, 79
1, 72576, Note_on_c, 0, 39, 106
1, 72576, Note_on_c, 1, 37, 96
1, 72576, Note_on_c, 2, 49, 115
1, 72576, Note_on_c, 4, 61, 114
1, 72576, Note_on_c, 4, 73, 114
1, 72576, Note_on_c, 5, 49, 127
1, 72576, Note_on_c, 9, 39, 126
1, 72576, Note_on_c, 9, 40, 127
1, 72576, Note_on_c, 9, 42, 124
1, 72576, Note_on_c, 9, 36, 127
1, 72576, Note_on_c, 9, 54, 110
1, 72585, Note_off_c, 9, 54, 110
1, 72585, Note_off_c, 9, 36, 127
1, 72585, Note_off_c, 9, 42, 124
1, 72585, Note_off_c, 9, 40, 127
1, 72585, Note_off_c, 9, 39, 126
1, 72607, Note_off_c, 5, 49, 127
1, 72647, Note_off_c, 0, 39, 106
1, 72669, Note_off_c, 4, 73, 114
1, 72669, Note_off_c, 4, 61, 114
1, 72697, Note_off_c, 2, 49, 115
1, 72704, Note_on_c, 0, 54, 90
1, 72704, Note_on_c, 1, 39, 98
1, 72704, Note_on_c, 2, 51, 94
1, 72704, Note_on_c, 4, 63, 114
1, 72704, Note_on_c, 4, 75, 114
1, 72707, Note_off_c, 1, 37, 96
1, 72723, Note_off_c, 0, 54, 90
1, 72745, Note_off_c, 2, 51, 94
1, 72751, Note_off_c, 4, 75, 114
1, 72751, Note_off_c, 4, 63, 114
1, 72768, Note_on_c, 0, 27, 109
1, 72768, Note_on_c, 2, 39, 108
1, 72768, Note_on_c, 5, 51, 127
1, 72768, Note_on_c, 9, 42, 73
1, 72768, Note_on_c, 9, 54, 52
1, 72777, Note_off_c, 9, 54, 52
1, 72777, Note_off_c, 9, 42, 73
1, 72777, Note_off_c, 1, 39, 98
1, 72807, Note_off_c, 2, 39, 108
1, 72819, Note_off_c, 0, 27, 109
1, 72821, Note_off_c, 5, 51, 127
1, 72892, Note_on_c, 9, 54, 65
1, 72896, Note_on_c, 1, 37, 77
1, 72901, Note_off_c, 9, 54, 65
1, 72933, Note_off_c, 1, 37, 77
1, 72960, Note_on_c, 1, 44, 105
1, 72960, Note_on_c, 2, 46, 117
1, 72960, Note_on_c, 2, 45, 120
1, 72960, Note_on_c, 4, 70, 114
1, 72960, Note_on_c, 4, 82, 114
1, 72960, Note_on_c, 5, 58, 123
1, 72960, Note_on_c, 9, 36, 127
1, 72960, Note_on_c, 9, 42, 107
1, 72960, Note_on_c, 9, 54, 112
1, 72969, Note_off_c, 9, 54, 112
1, 72969, Note_off_c, 9, 42, 107
1, 72969, Note_off_c, 9, 36, 127
1, 72972, Note_on_c, 3, 61, 127
1, 72981, Pitch_bend_c, 1, 8704
1, 72983, Pitch_bend_c, 1, 13184
1, 72995, Note_off_c, 2, 45, 120
1, 72999, Pitch_bend_c, 1, 16383
1, 73005, Note_off_c, 3, 61, 127
1, 73015, Note_off_c, 5, 58, 123
1, 73017, Note_off_c, 4, 82, 114
1, 73017, Note_off_c, 4, 70, 114
1, 73053, Note_off_c, 1, 44, 105
1, 73076, Note_on_c, 3, 58, 127
1, 73077, Pitch_bend_c, 1, 16288
1, 73081, Pitch_bend_c, 1, 13792
1, 73087, Control_c, 3, 1, 13
1, 73099, Pitch_bend_c, 1, 10112
1, 73103, Control_c, 3, 1, 26
1, 73115, Pitch_bend_c, 1, 8448
1, 73119, Note_off_c, 2, 46, 117
1, 73123, Control_c, 3, 1, 32
1, 73125, Pitch_bend_c, 1, 8192
1, 73137, Control_c, 3, 1, 35
1, 73152, Note_on_c, 1, 42, 107
1, 73152, Note_on_c, 2, 49, 87
1, 73152, Note_on_c, 4, 68, 114
1, 73152, Note_on_c, 4, 80, 114
1, 73152, Note_on_c, 5, 56, 127
1, 73152, Note_on_c, 9, 42, 78
1, 73152, Note_on_c, 9, 36, 127
1, 73152, Note_on_c, 9, 54, 54
1, 73153, Control_c, 3, 1, 38
1, 73161, Note_off_c, 9, 54, 54
1, 73161, Note_off_c, 9, 36, 127
1, 73161, Note_off_c, 9, 42, 78
1, 73175, Control_c, 3, 1, 42
1, 73191, Control_c, 3, 1, 43
1, 73203, Note_off_c, 4, 80, 114
1, 73203, Note_off_c, 4, 68, 114
1, 73211, Control_c, 3, 1, 44
1, 73213, Note_off_c, 5, 56, 127
1, 73233, Note_off_c, 2, 49, 87
1, 73243, Note_off_c, 1, 42, 107
1, 73280, Note_on_c, 2, 45, 109
1, 73280, Note_on_c, 2, 46, 92
1, 73281, Control_c, 3, 1, 48
1, 73297, Control_c, 3, 1, 55
1, 73317, Note_off_c, 3, 58, 127
1, 73327, Note_off_c, 2, 46, 92
1, 73327, Control_c, 3, 1, 52
1, 73341, Control_c, 3, 1, 46
1, 73344, Note_on_c, 1, 42, 100
1, 73344, Note_on_c, 2, 44, 85
1, 73344, Note_on_c, 4, 66, 114
1, 73344, Note_on_c, 4, 78, 114
1, 73344, Note_on_c, 5, 54, 127
1, 73344, Note_on_c, 9, 39, 127
1, 73344, Note_on_c, 9, 40, 127
1, 73344, Note_on_c, 9, 42, 127
1, 73344, Note_on_c, 9, 36, 127
1, 73344, Note_on_c, 9, 54, 114
1, 73349, Note_off_c, 2, 45, 109
1, 73351, Control_c, 3, 1, 28
1, 73353, Note_off_c, 9, 54, 114
1, 73353, Note_off_c, 9, 36, 127
1, 73353, Note_off_c, 9, 42, 127
1, 73353, Note_off_c, 9, 40, 127
1, 73353, Note_off_c, 9, 39, 127
1, 73356, Note_on_c, 3, 56, 127
1, 73389, Control_c, 3, 1, 23
1, 73399, Note_off_c, 5, 54, 127
1, 73407, Note_off_c, 4, 78, 114
1, 73407, Note_off_c, 4, 66, 114
1, 73407, Control_c, 3, 1, 23
1, 73425, Control_c, 3, 1, 22
1, 73449, Note_off_c, 2, 44, 85
1, 73461, Control_c, 3, 1, 19
1, 73472, Note_on_c, 2, 42, 95
1, 73481, Control_c, 3, 1, 18
1, 73503, Note_off_c, 3, 56, 127
1, 73511, Note_off_c, 1, 42, 100
1, 73517, Note_off_c, 2, 42, 95
1, 73536, Note_on_c, 0, 49, 127
1, 73536, Note_on_c, 1, 39, 93
1, 73536, Note_on_c, 2, 44, 95
1, 73536, Note_on_c, 5, 56, 126
1, 73536, Note_on_c, 9, 42, 71
1, 73536, Note_on_c, 9, 36, 127
1, 73536, Note_on_c, 9, 54, 63
1, 73544, Note_on_c, 3, 54, 102
1, 73545, Note_off_c, 9, 54, 63
1, 73545, Note_off_c, 9, 36, 127
1, 73545, Note_off_c, 9, 42, 71
1, 73569, Control_c, 3, 1, 21
1, 73577, Note_off_c, 3, 54, 102
1, 73599, Note_off_c, 5, 56, 126
1, 73613, Control_c, 3, 1, 20
1, 73623, Control_c, 3, 1, 23
1, 73633, Note_off_c, 2, 44, 95
1, 73643, Control_c, 3, 1, 24
1, 73645, Note_off_c, 1, 39, 93
1, 73656, Note_on_c, 3, 56, 127
1, 73664, Note_on_c, 1, 37, 89
1, 73664, Note_on_c, 2, 42, 88
1, 73664, Note_on_c, 5, 54, 127
1, 73667, Control_c, 3, 1, 28
1, 73675, Control_c, 3, 1, 33
1, 73697, Control_c, 3, 1, 35
1, 73705, Note_off_c, 2, 42, 88
1, 73709, Note_off_c, 5, 54, 127
1, 73713, Note_off_c, 1, 37, 89
1, 73715, Control_c, 3, 1, 37
1, 73717, Note_off_c, 0, 49, 127
1, 73728, Note_on_c, 0, 27, 119
1, 73728, Note_on_c, 1, 27, 88
1, 73728, Note_on_c, 1, 29, 97
1, 73728, Note_on_c, 2, 39, 127
1, 73728, Note_on_c, 9, 36, 127
1, 73728, Note_on_c, 9, 42, 115
1, 73728, Note_on_c, 9, 54, 110
1, 73737, Note_off_c, 9, 54, 110
1, 73737, Note_off_c, 9, 42, 115
1, 73737, Note_off_c, 9, 36, 127
1, 73741, Note_off_c, 1, 29, 97
1, 73741, Control_c, 3, 1, 39
1, 73751, Control_c, 3, 1, 41
1, 73771, Control_c, 3, 1, 42
1, 73821, Control_c, 3, 1, 44
1, 73867, Control_c, 3, 1, 43
1, 73871, Note_off_c, 0, 27, 119
1, 73881, Note_off_c, 2, 39, 127
1, 73887, Control_c, 3, 1, 44
1, 73891, Control_c, 3, 1, 46
1, 73899, Note_off_c, 3, 56, 127
1, 73909, Control_c, 3, 1, 47
1, 73916, Note_on_c, 3, 54, 119
1, 73920, Note_on_c, 0, 49, 125
1, 73920, Note_on_c, 0, 54, 123
1, 73920, Note_on_c, 1, 39, 107
1, 73920, Note_on_c, 2, 51, 117
1, 73920, Note_on_c, 4, 63, 114
1, 73920, Note_on_c, 4, 75, 114
1, 73920, Note_on_c, 5, 51, 127
1, 73920, Note_on_c, 9, 42, 57
1, 73920, Note_on_c, 9, 54, 54
1, 73927, Note_off_c, 1, 27, 88
1, 73929, Note_off_c, 9, 54, 54
1, 73929, Note_off_c, 9, 42, 57
1, 73935, Control_c, 3, 1, 53
1, 73939, Note_off_c, 0, 54, 123
1, 73947, Control_c, 3, 1, 55
1, 73955, Note_off_c, 0, 49, 125
1, 73969, Note_off_c, 5, 51, 127
1, 73971, Note_off_c, 2, 51, 117
1, 73971, Control_c, 3, 1, 51
1, 73973, Note_off_c, 3, 54, 119
1, 73985, Control_c, 3, 1, 38
1, 73993, Note_off_c, 1, 39, 107
1, 74005, Control_c, 3, 1, 30
1, 74013, Note_off_c, 4, 75, 114
1, 74013, Note_off_c, 4, 63, 114
1, 74019, Control_c, 3, 1, 10
1, 74041, Control_c, 3, 1, 0
1, 74048, Note_on_c, 1, 27, 69
1, 74048, Note_on_c, 2, 39, 75
1, 74059, Note_off_c, 2, 39, 75
1, 74067, Note_off_c, 1, 27, 69
1, 74112, Note_on_c, 0, 39, 96
1, 74112, Note_on_c, 1, 37, 101
1, 74112, Note_on_c, 2, 49, 112
1, 74112, Note_on_c, 9, 39, 124
1, 74112, Note_on_c, 9, 40, 127
1, 74112, Note_on_c, 9, 42, 126
1, 74112, Note_on_c, 9, 36, 127
1, 74112, Note_on_c, 9, 54, 112
1, 74121, Note_off_c, 9, 54, 112
1, 74121, Note_off_c, 9, 36, 127
1, 74121, Note_off_c, 9, 42, 126
1, 74121, Note_off_c, 9, 40, 127
1, 74121, Note_off_c, 9, 39, 124
1, 74183, Note_off_c, 0, 39, 96
1, 74191, Note_off_c, 2, 49, 112
1, 74215, Note_off_c, 1, 37, 101
1, 74240, Note_on_c, 0, 54, 111
1, 74240, Note_on_c, 1, 39, 90
1, 74240, Note_on_c, 2, 51, 92
1, 74240, Note_on_c, 4, 63, 114
1, 74240, Note_on_c, 4, 75, 114
1, 74240, Note_on_c, 5, 49, 108
1, 74257, Note_off_c, 5, 49, 108
1, 74263, Note_off_c, 0, 54, 111
1, 74271, Note_off_c, 2, 51, 92
1, 74283, Note_off_c, 1, 39, 90
1, 74304, Note_on_c, 0, 27, 88
1, 74304, Note_on_c, 1, 27, 98
1, 74304, Note_on_c, 2, 39, 127
1, 74304, Note_on_c, 5, 51, 127
1, 74304, Note_on_c, 9, 42, 66
1, 74304, Note_on_c, 9, 54, 46
1, 74313, Note_off_c, 9, 54, 46
1, 74313, Note_off_c, 9, 42, 66
1, 74333, Note_off_c, 4, 75, 114
1, 74333, Note_off_c, 4, 63, 114
1, 74339, Note_off_c, 2, 39, 127
1, 74351, Note_off_c, 5, 51, 127
1, 74351, Note_off_c, 0, 27, 88
1, 74437, Note_off_c, 1, 27, 98
1, 74496, Note_on_c, 0, 57, 127
1, 74496, Note_on_c, 0, 58, 127
1, 74496, Note_on_c, 0, 56, 118
1, 74496, Note_on_c, 0, 61, 125
1, 74496, Note_on_c, 1, 30, 118
1, 74496, Note_on_c, 2, 54, 108
1, 74496, Note_on_c, 2, 49, 108
1, 74496, Note_on_c, 4, 54, 114
1, 74496, Note_on_c, 4, 66, 114
1, 74496, Note_on_c, 5, 49, 124
1, 74496, Note_on_c, 9, 36, 127
1, 74496, Note_on_c, 9, 42, 110
1, 74496, Note_on_c, 9, 54, 117
1, 74505, Note_off_c, 9, 54, 117
1, 74505, Note_off_c, 9, 42, 110
1, 74505, Note_off_c, 9, 36, 127
1, 74523, Note_off_c, 5, 49, 124
1, 74525, Note_off_c, 2, 54, 108
1, 74525, Note_off_c, 0, 56, 118
1, 74539, Note_off_c, 0, 58, 127
1, 74543, Note_off_c, 2, 49, 108
1, 74553, Note_off_c, 0, 57, 127
1, 74583, Note_off_c, 1, 30, 118
1, 74589, Note_off_c, 4, 66, 114
1, 74589, Note_off_c, 4, 54, 114
1, 74620, Note_on_c, 9, 54, 70
1, 74624, Note_on_c, 1, 32, 79
1, 74624, Note_on_c, 4, 56, 114
1, 74624, Note_on_c, 4, 68, 114
1, 74629, Note_off_c, 9, 54, 70
1, 74637, Note_off_c, 0, 61, 125
1, 74683, Note_off_c, 1, 32, 79
1, 74688, Note_on_c, 0, 56, 118
1, 74688, Note_on_c, 0, 61, 100
1, 74688, Note_on_c, 1, 34, 93
1, 74688, Note_on_c, 4, 58, 114
1, 74688, Note_on_c, 4, 70, 114
1, 74688, Note_on_c, 9, 42, 76
1, 74688, Note_on_c, 9, 54, 62
1, 74697, Note_off_c, 9, 54, 62
1, 74697, Note_off_c, 9, 42, 76
1, 74707, Note_off_c, 0, 61, 100
1, 74717, Note_off_c, 4, 68, 114
1, 74717, Note_off_c, 4, 56, 114
1, 74731, Note_off_c, 0, 56, 118
1, 74761, Note_off_c, 1, 34, 93
1, 74781, Note_off_c, 4, 70, 114
1, 74781, Note_off_c, 4, 58, 114
1, 74816, Note_on_c, 1, 37, 102
1, 74816, Note_on_c, 2, 54, 108
1, 74816, Note_on_c, 2, 49, 110
1, 74816, Note_on_c, 4, 61, 114
1, 74816, Note_on_c, 4, 73, 114
1, 74816, Note_on_c, 5, 51, 124
1, 74816, Note_on_c, 9, 46, 91
1, 74825, Note_off_c, 9, 46, 91
1, 74855, Note_off_c, 5, 51, 124
1, 74859, Note_off_c, 2, 54, 108
1, 74863, Note_off_c, 2, 49, 110
1, 74880, Note_on_c, 0, 54, 127
1, 74880, Note_on_c, 9, 39, 127
1, 74880, Note_on_c, 9, 40, 127
1, 74880, Note_on_c, 9, 42, 105
1, 74880, Note_on_c, 9, 36, 127
1, 74880, Note_on_c, 9, 54, 114
1, 74889, Note_off_c, 9, 54, 114
1, 74889, Note_off_c, 9, 36, 127
1, 74889, Note_off_c, 9, 42, 105
1, 74889, Note_off_c, 9, 40, 127
1, 74889, Note_off_c, 9, 39, 127
1, 74937, Note_off_c, 0, 54, 127
1, 74981, Note_off_c, 1, 37, 102
1, 75005, Note_off_c, 4, 73, 114
1, 75005, Note_off_c, 4, 61, 114
1, 75008, Note_on_c, 1, 34, 87
1, 75008, Note_on_c, 4, 58, 113
1, 75008, Note_on_c, 4, 70, 113
1, 75049, Note_off_c, 4, 70, 113
1, 75049, Note_off_c, 4, 58, 113
1, 75059, Note_off_c, 1, 34, 87
1, 75072, Note_on_c, 0, 56, 127
1, 75072, Note_on_c, 1, 39, 101
1, 75072, Note_on_c, 2, 54, 112
1, 75072, Note_on_c, 2, 49, 112
1, 75072, Note_on_c, 4, 63, 113
1, 75072, Note_on_c, 4, 75, 113
1, 75072, Note_on_c, 9, 42, 87
1, 75072, Note_on_c, 9, 54, 70
1, 75081, Note_off_c, 9, 54, 70
1, 75081, Note_off_c, 9, 42, 87
1, 75157, Note_off_c, 1, 39, 101
1, 75165, Note_off_c, 4, 75, 113
1, 75165, Note_off_c, 4, 63, 113
1, 75167, Note_off_c, 0, 56, 127
1, 75196, Note_on_c, 9, 54, 71
1, 75200, Note_on_c, 0, 54, 127
1, 75200, Note_on_c, 1, 39, 87
1, 75200, Note_on_c, 4, 63, 113
1, 75200, Note_on_c, 4, 75, 113
1, 75205, Note_off_c, 9, 54, 71
1, 75241, Note_off_c, 0, 54, 127
1, 75251, Note_off_c, 4, 75, 113
1, 75251, Note_off_c, 4, 63, 113
1, 75251, Note_off_c, 2, 54, 112
1, 75264, Note_on_c, 0, 27, 110
1, 75264, Note_on_c, 1, 27, 107
1, 75264, Note_on_c, 2, 39, 111
1, 75264, Note_on_c, 9, 42, 84
1, 75264, Note_on_c, 9, 36, 127
1, 75264, Note_on_c, 9, 54, 114
1, 75273, Note_off_c, 9, 54, 114
1, 75273, Note_off_c, 9, 36, 127
1, 75273, Note_off_c, 9, 42, 84
1, 75273, Note_off_c, 2, 49, 112
1, 75285, Note_off_c, 1, 39, 87
1, 75381, Note_off_c, 2, 39, 111
1, 75417, Note_off_c, 0, 27, 110
1, 75439, Note_off_c, 1, 27, 107
1, 75456, Note_on_c, 0, 54, 112
1, 75456, Note_on_c, 0, 49, 118
1, 75456, Note_on_c, 1, 39, 107
1, 75456, Note_on_c, 2, 51, 114
1, 75456, Note_on_c, 4, 63, 113
1, 75456, Note_on_c, 4, 75, 113
1, 75456, Note_on_c, 5, 49, 114
1, 75456, Note_on_c, 9, 42, 78
1, 75456, Note_on_c, 9, 54, 56
1, 75465, Note_off_c, 9, 54, 56
1, 75465, Note_off_c, 9, 42, 78
1, 75475, Note_off_c, 5, 49, 114
1, 75475, Note_off_c, 0, 49, 118
1, 75487, Note_off_c, 0, 54, 112
1, 75505, Note_off_c, 4, 75, 113
1, 75505, Note_off_c, 4, 63, 113
1, 75509, Note_off_c, 2, 51, 114
1, 75525, Note_off_c, 1, 39, 107
1, 75584, Note_on_c, 1, 27, 72
1, 75584, Note_on_c, 5, 51, 127
1, 75621, Note_off_c, 1, 27, 72
1, 75625, Note_off_c, 5, 51, 127
1, 75648, Note_on_c, 0, 39, 110
1, 75648, Note_on_c, 1, 37, 102
1, 75648, Note_on_c, 2, 49, 121
1, 75648, Note_on_c, 4, 61, 113
1, 75648, Note_on_c, 4, 73, 113
1, 75648, Note_on_c, 9, 39, 127
1, 75648, Note_on_c, 9, 42, 120
1, 75648, Note_on_c, 9, 40, 126
1, 75648, Note_on_c, 9, 36, 127
1, 75648, Note_on_c, 9, 54, 112
1, 75657, Note_off_c, 9, 54, 112
1, 75657, Note_off_c, 9, 36, 127
1, 75657, Note_off_c, 9, 40, 126
1, 75657, Note_off_c, 9, 42, 120
1, 75657, Note_off_c, 9, 39, 127
1, 75731, Note_off_c, 0, 39, 110
1, 75741, Note_off_c, 4, 73, 113
1, 75741, Note_off_c, 4, 61, 113
1, 75757, Note_off_c, 1, 37, 102
1, 75776, Note_on_c, 0, 54, 111
1, 75776, Note_on_c, 0, 49, 115
1, 75776, Note_on_c, 1, 39, 101
1, 75776, Note_on_c, 4, 63, 113
1, 75776, Note_on_c, 4, 75, 113
1, 75776, Note_on_c, 5, 49, 105
1, 75785, Note_off_c, 2, 49, 121
1, 75791, Note_off_c, 5, 49, 105
1, 75795, Note_off_c, 0, 49, 115
1, 75807, Note_off_c, 0, 54, 111
1, 75823, Note_off_c, 4, 75, 113
1, 75823, Note_off_c, 4, 63, 113
1, 75833, Note_off_c, 1, 39, 101
1, 75840, Note_on_c, 0, 27, 118
1, 75840, Note_on_c, 2, 51, 110
1, 75840, Note_on_c, 5, 51, 127
1, 75840, Note_on_c, 9, 42, 70
1, 75840, Note_on_c, 9, 36, 127
1, 75840, Note_on_c, 9, 54, 57
1, 75849, Note_off_c, 9, 54, 57
1, 75849, Note_off_c, 9, 36, 127
1, 75849, Note_off_c, 9, 42, 70
1, 75887, Note_off_c, 5, 51, 127
1, 75897, Note_off_c, 2, 51, 110
1, 75993, Note_off_c, 0, 27, 118
1, 76032, Note_on_c, 0, 49, 109
1, 76032, Note_on_c, 0, 54, 98
1, 76032, Note_on_c, 1, 44, 102
1, 76032, Note_on_c, 2, 44, 110
1, 76032, Note_on_c, 4, 70, 113
1, 76032, Note_on_c, 4, 82, 113
1, 76032, Note_on_c, 5, 56, 122
1, 76032, Note_on_c, 9, 42, 113
1, 76032, Note_on_c, 9, 36, 127
1, 76032, Note_on_c, 9, 54, 117
1, 76041, Note_off_c, 9, 54, 117
1, 76041, Note_off_c, 9, 36, 127
1, 76041, Note_off_c, 9, 42, 113
1, 76041, Note_off_c, 0, 54, 98
1, 76065, Pitch_bend_c, 1, 9760
1, 76067, Note_off_c, 0, 49, 109
1, 76077, Pitch_bend_c, 1, 11456
1, 76081, Note_off_c, 5, 56, 122
1, 76089, Note_off_c, 4, 82, 113
1, 76089, Note_off_c, 4, 70, 113
1, 76091, Note_off_c, 2, 44, 110
1, 76095, Pitch_bend_c, 1, 13824
1, 76105, Pitch_bend_c, 1, 14432
1, 76125, Note_off_c, 1, 44, 102
1, 76125, Pitch_bend_c, 1, 14208
1, 76137, Pitch_bend_c, 1, 13888
1, 76149, Pitch_bend_c, 1, 12160
1, 76163, Pitch_bend_c, 1, 10176
1, 76175, Pitch_bend_c, 1, 8736
1, 76189, Pitch_bend_c, 1, 8320
1, 76191, Pitch_bend_c, 1, 8192
1, 76224, Note_on_c, 0, 27, 107
1, 76224, Note_on_c, 1, 42, 100
1, 76224, Note_on_c, 2, 45, 105
1, 76224, Note_on_c, 4, 68, 113
1, 76224, Note_on_c, 4, 80, 113
1, 76224, Note_on_c, 5, 54, 121
1, 76224, Note_on_c, 9, 42, 75
1, 76224, Note_on_c, 9, 54, 64
1, 76230, Note_on_c, 3, 58, 127
1, 76233, Note_off_c, 9, 54, 64
1, 76233, Note_off_c, 9, 42, 75
1, 76263, Note_off_c, 3, 58, 127
1, 76271, Pitch_bend_c, 1, 8448
1, 76275, Note_off_c, 4, 80, 113
1, 76275, Note_off_c, 4, 68, 113
1, 76275, Pitch_bend_c, 1, 10784
1, 76277, Note_off_c, 5, 54, 121
1, 76291, Pitch_bend_c, 1, 14240
1, 76305, Note_off_c, 0, 27, 107
1, 76305, Pitch_bend_c, 1, 16160
1, 76315, Pitch_bend_c, 1, 16383
1, 76319, Note_off_c, 2, 45, 105
1, 76333, Note_off_c, 1, 42, 100
1, 76338, Note_on_c, 3, 58, 127
1, 76347, Control_c, 3, 1, 7
1, 76352, Note_on_c, 2, 46, 98
1, 76357, Control_c, 3, 1, 25
1, 76359, Pitch_bend_c, 1, 14656
1, 76373, Pitch_bend_c, 1, 10944
1, 76375, Control_c, 3, 1, 33
1, 76387, Pitch_bend_c, 1, 8352
1, 76393, Control_c, 3, 1, 46
1, 76403, Pitch_bend_c, 1, 8192
1, 76413, Control_c, 3, 1, 57
1, 76416, Note_on_c, 1, 42, 109
1, 76416, Note_on_c, 4, 66, 113
1, 76416, Note_on_c, 4, 78, 113
1, 76416, Note_on_c, 5, 56, 125
1, 76416, Note_on_c, 9, 39, 124
1, 76416, Note_on_c, 9, 42, 127
1, 76416, Note_on_c, 9, 40, 127
1, 76416, Note_on_c, 9, 36, 127
1, 76416, Note_on_c, 9, 54, 110
1, 76423, Note_off_c, 2, 46, 98
1, 76425, Note_off_c, 9, 54, 110
1, 76425, Note_off_c, 9, 36, 127
1, 76425, Note_off_c, 9, 40, 127
1, 76425, Note_off_c, 9, 42, 127
1, 76425, Note_off_c, 9, 39, 124
1, 76429, Control_c, 3, 1, 61
1, 76447, Control_c, 3, 1, 68
1, 76467, Control_c, 3, 1, 77
1, 76479, Note_off_c, 4, 78, 113
1, 76479, Note_off_c, 4, 66, 113
1, 76481, Note_off_c, 5, 56, 125
1, 76489, Control_c, 3, 1, 83
1, 76501, Control_c, 3, 1, 91
1, 76521, Control_c, 3, 1, 96
1, 76537, Control_c, 3, 1, 100
1, 76544, Note_on_c, 2, 49, 110
1, 76544, Note_on_c, 5, 54, 125
1, 76559, Control_c, 3, 1, 102
1, 76567, Note_off_c, 3, 58, 127
1, 76577, Control_c, 3, 1, 98
1, 76581, Control_c, 1, 1, 10
1, 76587, Note_off_c, 1, 42, 109
1, 76591, Control_c, 3, 1, 58
1, 76597, Control_c, 1, 1, 24
1, 76599, Note_off_c, 5, 54, 125
1, 76608, Note_on_c, 1, 39, 97
1, 76608, Note_on_c, 5, 51, 124
1, 76608, Note_on_c, 9, 42, 82
1, 76608, Note_on_c, 9, 54, 57
1, 76609, Control_c, 3, 1, 41
1, 76610, Note_on_c, 3, 58, 119
1, 76615, Control_c, 1, 1, 10
1, 76617, Note_off_c, 9, 54, 57
1, 76617, Note_off_c, 9, 42, 82
1, 76617, Note_off_c, 2, 49, 110
1, 76627, Control_c, 1, 1, 5
1, 76633, Control_c, 3, 1, 0
1, 76647, Control_c, 1, 1, 0
1, 76649, Note_off_c, 3, 58, 119
1, 76669, Note_off_c, 5, 51, 124
1, 76689, Note_off_c, 1, 39, 97
1, 76736, Note_on_c, 1, 37, 90
1, 76736, Note_on_c, 2, 51, 117
1, 76775, Note_off_c, 2, 51, 117
1, 76775, Note_off_c, 1, 37, 90
1, 76800, Note_on_c, 0, 56, 127
1, 76800, Note_on_c, 0, 50, 127
1, 76800, Note_on_c, 0, 34, 127
1, 76800, Note_on_c, 1, 34, 107
1, 76800, Note_on_c, 2, 56, 90
1, 76800, Note_on_c, 2, 62, 97
1, 76800, Note_on_c, 2, 34, 100
1, 76800, Note_on_c, 4, 65, 125
1, 76800, Note_on_c, 9, 36, 127
1, 76800, Note_on_c, 9, 49, 84
1, 76801, Pitch_bend_c, 3, 8064
1, 76804, Note_on_c, 3, 65, 127
1, 76805, Pitch_bend_c, 3, 2112
1, 76809, Note_off_c, 9, 49, 84
1, 76809, Note_off_c, 9, 36, 127
1, 76823, Pitch_bend_c, 3, 2240
1, 76833, Pitch_bend_c, 3, 4224
1, 76847, Note_off_c, 1, 34, 107
1, 76847, Pitch_bend_c, 3, 7552
1, 76857, Note_off_c, 0, 34, 127
1, 76869, Pitch_bend_c, 3, 7936
1, 76871, Pitch_bend_c, 3, 8192
1, 76907, Note_off_c, 2, 34, 100
1, 76928, Note_on_c, 1, 34, 107
1, 76928, Note_on_c, 5, 58, 127
1, 76953, Note_off_c, 2, 56, 90
1, 76965, Note_off_c, 2, 62, 97
1, 76969, Note_off_c, 5, 58, 127
1, 76992, Note_on_c, 0, 34, 121
1, 76992, Note_on_c, 2, 34, 97
1, 76992, Note_on_c, 9, 42, 77
1, 77001, Note_off_c, 9, 42, 77
1, 77025, Control_c, 3, 1, 4
1, 77029, Note_off_c, 0, 34, 121
1, 77031, Note_off_c, 2, 34, 97
1, 77043, Control_c, 3, 1, 8
1, 77051, Note_off_c, 1, 34, 107
1, 77059, Control_c, 3, 1, 13
1, 77079, Control_c, 3, 1, 17
1, 77085, Note_off_c, 3, 65, 127
1, 77095, Control_c, 3, 1, 23
1, 77115, Control_c, 3, 1, 26
1, 77120, Note_on_c, 1, 38, 107
1, 77120, Note_on_c, 2, 56, 85
1, 77120, Note_on_c, 2, 62, 94
1, 77120, Note_on_c, 5, 58, 123
1, 77131, Control_c, 3, 1, 28
1, 77147, Note_off_c, 5, 58, 123
1, 77149, Note_off_c, 2, 56, 85
1, 77151, Control_c, 3, 1, 31
1, 77161, Note_off_c, 2, 62, 94
1, 77182, Note_on_c, 3, 65, 127
1, 77184, Note_on_c, 2, 34, 107
1, 77184, Note_on_c, 9, 39, 126
1, 77184, Note_on_c, 9, 40, 127
1, 77184, Note_on_c, 9, 42, 122
1, 77184, Note_on_c, 9, 36, 127
1, 77184, Note_on_c, 9, 54, 99
1, 77193, Note_off_c, 9, 54, 99
1, 77193, Note_off_c, 9, 36, 127
1, 77193, Note_off_c, 9, 42, 122
1, 77193, Note_off_c, 9, 40, 127
1, 77193, Note_off_c, 9, 39, 126
1, 77199, Control_c, 3, 1, 33
1, 77207, Control_c, 3, 1, 34
1, 77221, Control_c, 3, 1, 37
1, 77223, Note_off_c, 1, 38, 107
1, 77239, Note_off_c, 2, 34, 107
1, 77239, Control_c, 3, 1, 40
1, 77297, Control_c, 3, 1, 41
1, 77312, Note_on_c, 1, 41, 107
1, 77312, Note_on_c, 5, 46, 116
1, 77313, Control_c, 3, 1, 44
1, 77325, Note_off_c, 4, 65, 125
1, 77335, Control_c, 3, 1, 26
1, 77343, Note_off_c, 5, 46, 116
1, 77351, Control_c, 3, 1, 0
1, 77363, Note_off_c, 3, 65, 127
1, 77372, Note_on_c, 3, 63, 109
1, 77376, Note_on_c, 0, 34, 127
1, 77376, Note_on_c, 2, 34, 97
1, 77376, Note_on_c, 9, 42, 62
1, 77379, Note_off_c, 0, 50, 127
1, 77383, Note_off_c, 0, 56, 127
1, 77385, Note_off_c, 9, 42, 62
1, 77407, Note_off_c, 3, 63, 109
1, 77419, Note_off_c, 0, 34, 127
1, 77421, Note_off_c, 1, 41, 107
1, 77425, Note_off_c, 2, 34, 97
1, 77498, Note_on_c, 3, 65, 124
1, 77504, Note_on_c, 1, 46, 107
1, 77511, Control_c, 3, 1, 37
1, 77531, Control_c, 3, 1, 62
1, 77545, Control_c, 3, 1, 60
1, 77563, Control_c, 3, 1, 36
1, 77568, Note_on_c, 0, 51, 127
1, 77568, Note_on_c, 0, 57, 127
1, 77568, Note_on_c, 0, 35, 127
1, 77568, Note_on_c, 1, 35, 107
1, 77568, Note_on_c, 2, 57, 97
1, 77568, Note_on_c, 2, 35, 113
1, 77568, Note_on_c, 2, 63, 98
1, 77568, Note_on_c, 4, 66, 125
1, 77568, Note_on_c, 5, 47, 127
1, 77568, Note_on_c, 9, 42, 117
1, 77568, Note_on_c, 9, 36, 127
1, 77577, Note_off_c, 9, 36, 127
1, 77577, Note_off_c, 9, 42, 117
1, 77583, Control_c, 3, 1, 13
1, 77585, Note_off_c, 1, 46, 107
1, 77599, Control_c, 3, 1, 3
1, 77607, Note_off_c, 0, 35, 127
1, 77607, Note_off_c, 3, 65, 124
1, 77613, Note_off_c, 5, 47, 127
1, 77619, Control_c, 3, 1, 0
1, 77631, Note_off_c, 2, 35, 113
1, 77679, Note_off_c, 1, 35, 107
1, 77696, Note_on_c, 1, 39, 107
1, 77696, Note_on_c, 5, 59, 109
1, 77709, Note_off_c, 2, 57, 97
1, 77721, Note_off_c, 5, 59, 109
1, 77755, Note_off_c, 2, 63, 98
1, 77760, Note_on_c, 0, 35, 124
1, 77760, Note_on_c, 2, 35, 110
1, 77760, Note_on_c, 9, 42, 63
1, 77769, Note_off_c, 9, 42, 63
1, 77779, Note_off_c, 1, 39, 107
1, 77795, Note_off_c, 0, 35, 124
1, 77811, Note_off_c, 2, 35, 110
1, 77888, Note_on_c, 1, 42, 107
1, 77888, Note_on_c, 2, 57, 99
1, 77888, Note_on_c, 2, 63, 101
1, 77888, Note_on_c, 5, 59, 127
1, 77927, Note_off_c, 5, 59, 127
1, 77937, Note_off_c, 2, 57, 99
1, 77952, Note_on_c, 0, 35, 118
1, 77952, Note_on_c, 2, 35, 110
1, 77952, Note_on_c, 9, 39, 122
1, 77952, Note_on_c, 9, 40, 127
1, 77952, Note_on_c, 9, 42, 126
1, 77952, Note_on_c, 9, 36, 127
1, 77952, Note_on_c, 9, 54, 106
1, 77955, Note_off_c, 2, 63, 101
1, 77961, Note_off_c, 9, 54, 106
1, 77961, Note_off_c, 9, 36, 127
1, 77961, Note_off_c, 9, 42, 126
1, 77961, Note_off_c, 9, 40, 127
1, 77961, Note_off_c, 9, 39, 122
1, 77971, Note_off_c, 1, 42, 107
1, 77975, Note_off_c, 0, 35, 118
1, 77999, Note_off_c, 2, 35, 110
1, 78067, Note_off_c, 4, 66, 125
1, 78080, Note_on_c, 1, 47, 107
1, 78080, Note_on_c, 5, 47, 119
1, 78121, Note_off_c, 5, 47, 119
1, 78144, Note_on_c, 0, 35, 127
1, 78144, Note_on_c, 2, 35, 106
1, 78144, Note_on_c, 9, 42, 64
1, 78148, Note_on_c, 3, 58, 127
1, 78153, Note_off_c, 9, 42, 64
1, 78161, Note_off_c, 1, 47, 107
1, 78173, Note_off_c, 0, 57, 127
1, 78181, Note_off_c, 0, 51, 127
1, 78201, Note_off_c, 3, 58, 127
1, 78201, Note_off_c, 0, 35, 127
1, 78209, Note_off_c, 2, 35, 106
1, 78272, Note_on_c, 1, 46, 106
1, 78272, Note_on_c, 5, 58, 114
1, 78291, Note_off_c, 5, 58, 114
1, 78293, Control_c, 3, 1, 1
1, 78301, Control_c, 3, 1, 25
1, 78330, Note_on_c, 3, 65, 127
1, 78336, Note_on_c, 0, 56, 127
1, 78336, Note_on_c, 0, 50, 125
1, 78336, Note_on_c, 0, 34, 127
1, 78336, Note_on_c, 2, 34, 113
1, 78336, Note_on_c, 2, 56, 100
1, 78336, Note_on_c, 2, 62, 106
1, 78336, Note_on_c, 4, 65, 125
1, 78336, Note_on_c, 5, 46, 114
1, 78336, Note_on_c, 9, 36, 127
1, 78336, Note_on_c, 9, 42, 109
1, 78343, Control_c, 3, 1, 56
1, 78345, Note_off_c, 9, 42, 109
1, 78345, Note_off_c, 9, 36, 127
1, 78357, Control_c, 3, 1, 63
1, 78365, Note_off_c, 1, 46, 106
1, 78377, Note_off_c, 5, 46, 114
1, 78377, Control_c, 3, 1, 67
1, 78395, Note_off_c, 2, 34, 113
1, 78399, Control_c, 3, 1, 69
1, 78401, Note_off_c, 0, 34, 127
1, 78409, Control_c, 3, 1, 72
1, 78431, Control_c, 3, 1, 75
1, 78445, Control_c, 3, 1, 78
1, 78464, Note_on_c, 1, 41, 106
1, 78464, Note_on_c, 5, 58, 127
1, 78483, Control_c, 3, 1, 81
1, 78493, Note_off_c, 5, 58, 127
1, 78525, Note_off_c, 2, 56, 100
1, 78527, Control_c, 3, 1, 78
1, 78528, Note_on_c, 0, 34, 127
1, 78528, Note_on_c, 2, 34, 97
1, 78528, Note_on_c, 9, 42, 67
1, 78537, Note_off_c, 9, 42, 67
1, 78537, Control_c, 3, 1, 71
1, 78541, Note_off_c, 2, 62, 106
1, 78547, Note_off_c, 1, 41, 106
1, 78553, Control_c, 3, 1, 62
1, 78573, Control_c, 3, 1, 56
1, 78579, Note_off_c, 2, 34, 97
1, 78579, Note_off_c, 0, 34, 127
1, 78591, Control_c, 3, 1, 47
1, 78607, Control_c, 3, 1, 41
1, 78627, Control_c, 3, 1, 38
1, 78631, Note_off_c, 3, 65, 127
1, 78645, Control_c, 3, 1, 43
1, 78656, Note_on_c, 1, 38, 106
1, 78656, Note_on_c, 2, 56, 101
1, 78656, Note_on_c, 2, 62, 104
1, 78656, Note_on_c, 5, 58, 125
1, 78661, Control_c, 3, 1, 49
1, 78677, Note_off_c, 5, 58, 125
1, 78679, Control_c, 3, 1, 54
1, 78697, Note_off_c, 2, 56, 101
1, 78699, Control_c, 3, 1, 56
1, 78709, Note_off_c, 2, 62, 104
1, 78716, Note_on_c, 3, 65, 127
1, 78720, Note_on_c, 0, 34, 127
1, 78720, Note_on_c, 2, 34, 107
1, 78720, Note_on_c, 9, 39, 126
1, 78720, Note_on_c, 9, 40, 127
1, 78720, Note_on_c, 9, 42, 124
1, 78720, Note_on_c, 9, 36, 127
1, 78720, Note_on_c, 9, 54, 108
1, 78723, Note_off_c, 1, 38, 106
1, 78729, Note_off_c, 9, 54, 108
1, 78729, Note_off_c, 9, 36, 127
1, 78729, Note_off_c, 9, 42, 124
1, 78729, Note_off_c, 9, 40, 127
1, 78729, Note_off_c, 9, 39, 126
1, 78729, Control_c, 3, 1, 63
1, 78737, Control_c, 3, 1, 66
1, 78775, Note_off_c, 0, 34, 127
1, 78777, Control_c, 3, 1, 64
1, 78787, Note_off_c, 2, 34, 107
1, 78793, Control_c, 3, 1, 61
1, 78797, Note_off_c, 3, 65, 127
1, 78805, Control_c, 3, 1, 58
1, 78815, Note_off_c, 4, 65, 125
1, 78832, Note_on_c, 3, 63, 122
1, 78837, Control_c, 3, 1, 52
1, 78841, Control_c, 3, 1, 43
1, 78848, Note_on_c, 1, 34, 106
1, 78848, Note_on_c, 5, 46, 123
1, 78861, Control_c, 3, 1, 30
1, 78879, Control_c, 3, 1, 18
1, 78881, Note_off_c, 3, 63, 122
1, 78887, Note_off_c, 5, 46, 123
1, 78911, Control_c, 3, 1, 20
1, 78912, Note_on_c, 0, 34, 127
1, 78912, Note_on_c, 2, 34, 98
1, 78912, Note_on_c, 9, 42, 73
1, 78917, Control_c, 3, 1, 27
1, 78921, Note_off_c, 9, 42, 73
1, 78935, Control_c, 3, 1, 33
1, 78951, Control_c, 3, 1, 41
1, 78957, Note_off_c, 2, 34, 98
1, 78959, Note_off_c, 1, 34, 106
1, 78959, Note_off_c, 0, 56, 127
1, 78967, Note_off_c, 0, 34, 127
1, 78967, Control_c, 3, 1, 50
1, 78985, Note_off_c, 0, 50, 125
1, 78989, Control_c, 3, 1, 56
1, 78992, Note_on_c, 3, 63, 122
1, 79003, Control_c, 3, 1, 58
1, 79023, Control_c, 3, 1, 66
1, 79040, Note_on_c, 1, 33, 106
1, 79040, Note_on_c, 2, 61, 87
1, 79040, Note_on_c, 2, 55, 92
1, 79040, Note_on_c, 5, 57, 112
1, 79041, Control_c, 3, 1, 68
1, 79059, Note_off_c, 5, 57, 112
1, 79063, Control_c, 3, 1, 65
1, 79087, Control_c, 3, 1, 67
1, 79101, Control_c, 3, 1, 72
1, 79104, Note_on_c, 0, 55, 127
1, 79104, Note_on_c, 0, 49, 127
1, 79104, Note_on_c, 0, 33, 127
1, 79104, Note_on_c, 2, 33, 104
1, 79104, Note_on_c, 4, 64, 125
1, 79104, Note_on_c, 5, 45, 117
1, 79104, Note_on_c, 9, 36, 127
1, 79104, Note_on_c, 9, 42, 107
1, 79113, Note_off_c, 9, 42, 107
1, 79113, Note_off_c, 9, 36, 127
1, 79121, Control_c, 3, 1, 73
1, 79131, Note_off_c, 3, 63, 122
1, 79133, Control_c, 3, 1, 74
1, 79145, Note_off_c, 5, 45, 117
1, 79149, Note_off_c, 0, 33, 127
1, 79153, Control_c, 3, 1, 77
1, 79165, Control_c, 3, 1, 79
1, 79178, Note_on_c, 3, 61, 127
1, 79191, Note_off_c, 2, 33, 104
1, 79193, Note_off_c, 1, 33, 106
1, 79207, Control_c, 3, 1, 80
1, 79232, Note_on_c, 1, 37, 106
1, 79232, Note_on_c, 5, 57, 119
1, 79235, Control_c, 3, 1, 78
1, 79241, Note_off_c, 3, 61, 127
1, 79241, Control_c, 3, 1, 69
1, 79259, Control_c, 3, 1, 64
1, 79263, Note_off_c, 5, 57, 119
1, 79273, Control_c, 3, 1, 65
1, 79295, Control_c, 3, 1, 68
1, 79296, Note_on_c, 0, 33, 121
1, 79296, Note_on_c, 2, 33, 106
1, 79296, Note_on_c, 9, 42, 78
1, 79296, Note_on_c, 9, 36, 127
1, 79305, Note_off_c, 9, 36, 127
1, 79305, Note_off_c, 9, 42, 78
1, 79305, Note_off_c, 1, 37, 106
1, 79309, Control_c, 3, 1, 71
1, 79329, Control_c, 3, 1, 70
1, 79345, Note_off_c, 2, 61, 87
1, 79351, Control_c, 3, 1, 60
1, 79355, Note_off_c, 0, 33, 121
1, 79357, Note_off_c, 2, 55, 92
1, 79359, Note_off_c, 2, 33, 106
1, 79365, Control_c, 3, 1, 51
1, 79374, Note_on_c, 3, 63, 127
1, 79405, Control_c, 3, 1, 62
1, 79419, Control_c, 3, 1, 64
1, 79424, Note_on_c, 1, 40, 106
1, 79424, Note_on_c, 2, 55, 99
1, 79424, Note_on_c, 2, 61, 103
1, 79424, Note_on_c, 5, 57, 127
1, 79435, Note_off_c, 3, 63, 127
1, 79441, Control_c, 3, 1, 65
1, 79451, Note_off_c, 5, 57, 127
1, 79455, Control_c, 3, 1, 52
1, 79473, Control_c, 3, 1, 10
1, 79479, Note_off_c, 2, 55, 99
1, 79483, Note_off_c, 2, 61, 103
1, 79488, Note_on_c, 0, 33, 125
1, 79488, Note_on_c, 2, 33, 104
1, 79488, Note_on_c, 9, 39, 127
1, 79488, Note_on_c, 9, 40, 127
1, 79488, Note_on_c, 9, 42, 127
1, 79488, Note_on_c, 9, 36, 127
1, 79488, Note_on_c, 9, 54, 112
1, 79495, Control_c, 3, 1, 0
1, 79497, Note_off_c, 9, 54, 112
1, 79497, Note_off_c, 9, 36, 127
1, 79497, Note_off_c, 9, 42, 127
1, 79497, Note_off_c, 9, 40, 127
1, 79497, Note_off_c, 9, 39, 127
1, 79511, Note_off_c, 1, 40, 106
1, 79545, Note_off_c, 4, 64, 125
1, 79549, Note_off_c, 0, 33, 125
1, 79555, Note_off_c, 2, 33, 104
1, 79562, Note_on_c, 3, 66, 127
1, 79607, Control_c, 3, 1, 5
1, 79615, Control_c, 3, 1, 19
1, 79616, Note_on_c, 1, 45, 106
1, 79616, Note_on_c, 5, 45, 118
1, 79633, Control_c, 3, 1, 47
1, 79653, Note_off_c, 5, 45, 118
1, 79657, Control_c, 3, 1, 62
1, 79669, Control_c, 3, 1, 74
1, 79680, Note_on_c, 0, 33, 114
1, 79680, Note_on_c, 2, 33, 104
1, 79680, Note_on_c, 9, 42, 71
1, 79680, Note_on_c, 9, 36, 127
1, 79689, Note_off_c, 9, 36, 127
1, 79689, Note_off_c, 9, 42, 71
1, 79691, Control_c, 3, 1, 79
1, 79699, Note_off_c, 0, 49, 127
1, 79703, Note_off_c, 0, 55, 127
1, 79707, Control_c, 3, 1, 82
1, 79711, Note_off_c, 0, 33, 114
1, 79711, Note_off_c, 1, 45, 106
1, 79723, Control_c, 3, 1, 87
1, 79741, Control_c, 3, 1, 88
1, 79745, Note_off_c, 2, 33, 104
1, 79795, Control_c, 3, 1, 90
1, 79808, Note_on_c, 1, 44, 106
1, 79808, Note_on_c, 5, 56, 93
1, 79815, Control_c, 3, 1, 91
1, 79827, Note_off_c, 5, 56, 93
1, 79839, Control_c, 3, 1, 88
1, 79851, Control_c, 3, 1, 83
1, 79863, Note_off_c, 1, 44, 106
1, 79867, Control_c, 3, 1, 73
1, 79872, Note_on_c, 0, 32, 127
1, 79872, Note_on_c, 0, 54, 127
1, 79872, Note_on_c, 0, 48, 127
1, 79872, Note_on_c, 1, 32, 106
1, 79872, Note_on_c, 2, 32, 113
1, 79872, Note_on_c, 4, 63, 125
1, 79872, Note_on_c, 4, 75, 125
1, 79872, Note_on_c, 5, 44, 121
1, 79872, Note_on_c, 9, 36, 123
1, 79872, Note_on_c, 9, 49, 91
1, 79881, Note_off_c, 9, 49, 91
1, 79881, Note_off_c, 9, 36, 123
1, 79885, Control_c, 3, 1, 57
1, 79887, Note_off_c, 3, 66, 127
1, 79903, Control_c, 3, 1, 27
1, 79905, Note_off_c, 5, 44, 121
1, 79923, Control_c, 3, 1, 16
1, 79948, Note_on_c, 3, 63, 127
1, 79951, Control_c, 3, 1, 19
1, 79959, Note_off_c, 1, 32, 106
1, 79963, Note_off_c, 0, 32, 127
1, 79981, Control_c, 3, 1, 28
1, 79999, Control_c, 3, 1, 31
1, 80000, Note_on_c, 1, 44, 106
1, 80000, Note_on_c, 5, 56, 127
1, 80015, Control_c, 3, 1, 32
1, 80023, Note_off_c, 5, 56, 127
1, 80027, Note_off_c, 3, 63, 127
1, 80029, Control_c, 3, 1, 33
1, 80039, Note_off_c, 1, 44, 106
1, 80057, Note_off_c, 2, 32, 113
1, 80060, Note_on_c, 3, 61, 123
1, 80064, Note_on_c, 0, 32, 120
1, 80064, Note_on_c, 1, 32, 106
1, 80064, Note_on_c, 2, 60, 74
1, 80064, Note_on_c, 2, 54, 72
1, 80064, Note_on_c, 5, 48, 127
1, 80064, Note_on_c, 9, 46, 92
1, 80064, Note_on_c, 9, 40, 104
1, 80073, Note_off_c, 9, 40, 104
1, 80073, Note_off_c, 9, 46, 92
1, 80079, Control_c, 3, 1, 35
1, 80081, Note_off_c, 2, 60, 74
1, 80085, Control_c, 3, 1, 38
1, 80103, Control_c, 3, 1, 33
1, 80105, Note_off_c, 5, 48, 127
1, 80113, Note_off_c, 2, 54, 72
1, 80121, Control_c, 3, 1, 28
1, 80127, Note_off_c, 3, 61, 123
1, 80131, Note_off_c, 0, 32, 120
1, 80136, Note_on_c, 3, 58, 112
1, 80139, Control_c, 3, 1, 27
1, 80169, Control_c, 3, 1, 19
1, 80171, Note_off_c, 1, 32, 106
1, 80177, Control_c, 3, 1, 17
1, 80192, Note_on_c, 9, 36, 114
1, 80199, Control_c, 3, 1, 18
1, 80201, Note_off_c, 9, 36, 114
1, 80207, Note_off_c, 3, 58, 112
1, 80209, Control_c, 3, 1, 21
1, 80227, Control_c, 3, 1, 26
1, 80246, Note_on_c, 3, 56, 116
1, 80256, Note_on_c, 0, 32, 113
1, 80256, Note_on_c, 1, 36, 105
1, 80256, Note_on_c, 2, 32, 100
1, 80256, Note_on_c, 5, 49, 127
1, 80256, Note_on_c, 9, 46, 83
1, 80256, Note_on_c, 9, 54, 110
1, 80257, Control_c, 3, 1, 31
1, 80265, Note_off_c, 9, 54, 110
1, 80265, Note_off_c, 9, 46, 83
1, 80265, Control_c, 3, 1, 37
1, 80283, Control_c, 3, 1, 40
1, 80289, Note_off_c, 5, 49, 127
1, 80295, Note_off_c, 2, 32, 100
1, 80299, Control_c, 3, 1, 43
1, 80301, Note_off_c, 0, 32, 113
1, 80315, Note_off_c, 0, 48, 127
1, 80325, Control_c, 3, 1, 44
1, 80326, Note_on_c, 3, 54, 127
1, 80327, Note_off_c, 3, 56, 116
1, 80345, Note_off_c, 0, 54, 127
1, 80355, Note_off_c, 1, 36, 105
1, 80357, Control_c, 3, 1, 51
1, 80375, Control_c, 3, 1, 47
1, 80384, Note_on_c, 0, 54, 127
1, 80384, Note_on_c, 2, 54, 92
1, 80384, Note_on_c, 2, 60, 100
1, 80389, Control_c, 3, 1, 40
1, 80405, Note_off_c, 2, 54, 92
1, 80421, Note_off_c, 2, 60, 100
1, 80427, Control_c, 3, 1, 44
1, 80443, Control_c, 3, 1, 48
1, 80448, Note_on_c, 0, 48, 127
1, 80448, Note_on_c, 0, 32, 124
1, 80448, Note_on_c, 1, 36, 105
1, 80448, Note_on_c, 5, 50, 127
1, 80448, Note_on_c, 9, 46, 80
1, 80448, Note_on_c, 9, 36, 127
1, 80457, Note_off_c, 9, 36, 127
1, 80457, Note_off_c, 9, 46, 80
1, 80457, Note_off_c, 0, 54, 127
1, 80469, Control_c, 3, 1, 49
1, 80479, Control_c, 3, 1, 51
1, 80487, Note_off_c, 5, 50, 127
1, 80503, Note_off_c, 0, 48, 127
1, 80505, Note_off_c, 0, 32, 124
1, 80511, Control_c, 3, 1, 50
1, 80525, Control_c, 3, 1, 51
1, 80533, Control_c, 3, 1, 59
1, 80545, Note_off_c, 1, 36, 105
1, 80553, Control_c, 3, 1, 69
1, 80569, Control_c, 3, 1, 75
1, 80576, Note_on_c, 2, 32, 84
1, 80587, Control_c, 3, 1, 80
1, 80605, Note_off_c, 2, 32, 84
1, 80607, Control_c, 3, 1, 83
1, 80623, Control_c, 3, 1, 86
1, 80640, Note_on_c, 0, 54, 127
1, 80640, Note_on_c, 0, 48, 122
1, 80640, Note_on_c, 0, 32, 127
1, 80640, Note_on_c, 1, 37, 105
1, 80640, Note_on_c, 2, 54, 100
1, 80640, Note_on_c, 2, 60, 101
1, 80640, Note_on_c, 5, 51, 127
1, 80640, Note_on_c, 9, 46, 101
1, 80640, Note_on_c, 9, 40, 111
1, 80647, Control_c, 3, 1, 88
1, 80649, Note_off_c, 9, 40, 111
1, 80649, Note_off_c, 9, 46, 101
1, 80659, Control_c, 3, 1, 91
1, 80677, Note_off_c, 5, 51, 127
1, 80685, Note_off_c, 0, 32, 127
1, 80693, Control_c, 3, 1, 92
1, 80695, Control_c, 3, 1, 94
1, 80713, Control_c, 3, 1, 96
1, 80733, Note_off_c, 1, 37, 105
1, 80737, Control_c, 3, 1, 94
1, 80753, Control_c, 3, 1, 92
1, 80768, Note_on_c, 1, 32, 105
1, 80775, Control_c, 3, 1, 95
1, 80789, Control_c, 3, 1, 98
1, 80791, Note_off_c, 2, 54, 100
1, 80803, Control_c, 3, 1, 87
1, 80805, Note_off_c, 2, 60, 101
1, 80809, Note_off_c, 3, 54, 127
1, 80815, Note_off_c, 1, 32, 105
1, 80821, Control_c, 3, 1, 66
1, 80823, Note_off_c, 0, 48, 122
1, 80830, Note_on_c, 3, 56, 123
1, 80832, Note_on_c, 0, 32, 112
1, 80832, Note_on_c, 1, 37, 105
1, 80832, Note_on_c, 2, 32, 98
1, 80832, Note_on_c, 5, 54, 127
1, 80832, Note_on_c, 9, 46, 107
1, 80841, Note_off_c, 9, 46, 107
1, 80847, Note_off_c, 0, 54, 127
1, 80853, Control_c, 3, 1, 2
1, 80867, Note_off_c, 2, 32, 98
1, 80867, Control_c, 3, 1, 0
1, 80871, Note_off_c, 0, 32, 112
1, 80883, Note_off_c, 5, 54, 127
1, 80899, Note_off_c, 3, 56, 123
1, 80925, Note_off_c, 1, 37, 105
1, 80960, Note_on_c, 0, 54, 127
1, 80960, Note_on_c, 0, 48, 119
1, 80960, Note_on_c, 2, 54, 93
1, 80960, Note_on_c, 2, 60, 107
1, 80960, Note_on_c, 9, 36, 116
1, 80969, Note_off_c, 9, 36, 116
1, 80989, Note_off_c, 2, 54, 93
1, 80991, Note_off_c, 0, 48, 119
1, 81003, Note_off_c, 2, 60, 107
1, 81013, Note_off_c, 0, 54, 127
1, 81024, Note_on_c, 0, 32, 125
1, 81024, Note_on_c, 1, 38, 105
1, 81024, Note_on_c, 5, 56, 118
1, 81024, Note_on_c, 9, 40, 126
1, 81024, Note_on_c, 9, 54, 110
1, 81033, Note_off_c, 9, 54, 110
1, 81033, Note_off_c, 9, 40, 126
1, 81069, Note_off_c, 0, 32, 125
1, 81075, Note_off_c, 5, 56, 118
1, 81127, Note_off_c, 1, 38, 105
1, 81152, Note_on_c, 2, 54, 93
1, 81152, Note_on_c, 2, 60, 103
1, 81152, Note_on_c, 9, 45, 112
1, 81161, Note_off_c, 9, 45, 112
1, 81177, Note_off_c, 2, 54, 93
1, 81195, Note_off_c, 2, 60, 103
1, 81216, Note_on_c, 0, 32, 114
1, 81216, Note_on_c, 1, 39, 105
1, 81216, Note_on_c, 5, 57, 127
1, 81216, Note_on_c, 9, 41, 99
1, 81225, Note_off_c, 9, 41, 99
1, 81267, Note_off_c, 0, 32, 114
1, 81273, Note_off_c, 5, 57, 127
1, 81309, Note_off_c, 1, 39, 105
1, 81325, Note_off_c, 4, 75, 125
1, 81344, Note_on_c, 9, 36, 125
1, 81353, Note_off_c, 9, 36, 125
1, 81365, Note_off_c, 4, 63, 125
1, 81408, Note_on_c, 0, 34, 127
1, 81408, Note_on_c, 0, 70, 127
1, 81408, Note_on_c, 0, 58, 127
1, 81408, Note_on_c, 1, 34, 105
1, 81408, Note_on_c, 2, 62, 113
1, 81408, Note_on_c, 2, 66, 108
1, 81408, Note_on_c, 4, 78, 125
1, 81408, Note_on_c, 4, 82, 125
1, 81408, Note_on_c, 5, 58, 127
1, 81408, Note_on_c, 9, 49, 118
1, 81408, Note_on_c, 9, 40, 127
1, 81417, Note_off_c, 9, 40, 127
1, 81417, Note_off_c, 9, 49, 118
1, 81459, Note_off_c, 5, 58, 127
1, 81472, Note_on_c, 4, 66, 125
1, 81557, Note_off_c, 1, 34, 105
1, 81565, Note_off_c, 2, 62, 113
1, 81573, Note_off_c, 0, 58, 127
1, 81579, Note_off_c, 2, 66, 108
1, 81593, Note_off_c, 0, 70, 127
1, 81597, Note_off_c, 0, 34, 127
1, 81625, Note_off_c, 4, 82, 125
1, 81641, Note_off_c, 4, 78, 125
1, 81671, Control_c, 3, 1, 10
1, 81683, Note_off_c, 4, 66, 125
1, 81687, Control_c, 3, 1, 16
1, 81705, Control_c, 3, 1, 19
1, 81747, Control_c, 3, 1, 21
1, 81763, Control_c, 3, 1, 23
1, 81775, Control_c, 3, 1, 29
1, 81792, Note_on_c, 9, 54, 106
1, 81795, Control_c, 3, 1, 31
1, 81796, Note_on_c, 3, 66, 120
1, 81801, Note_off_c, 9, 54, 106
1, 81815, Control_c, 3, 1, 44
1, 81829, Control_c, 3, 1, 50
1, 81831, Note_off_c, 3, 66, 120
1, 81847, Control_c, 3, 1, 56
1, 81867, Control_c, 3, 1, 58
1, 81870, Note_on_c, 3, 66, 126
1, 81907, Control_c, 3, 1, 60
1, 81923, Control_c, 3, 1, 67
1, 81939, Control_c, 3, 1, 70
1, 81955, Control_c, 3, 1, 72
1, 81973, Control_c, 3, 1, 75
1, 81984, Note_on_c, 9, 40, 127
1, 81993, Note_off_c, 9, 40, 127
1, 81993, Control_c, 3, 1, 77
1, 82015, Control_c, 3, 1, 80
1, 82027, Control_c, 3, 1, 84
1, 82065, Control_c, 3, 1, 81
1, 82081, Control_c, 3, 1, 79
1, 82107, Control_c, 3, 1, 82
1, 82123, Control_c, 3, 1, 84
1, 82133, Note_off_c, 3, 66, 126
1, 82141, Control_c, 3, 1, 85
1, 82161, Control_c, 3, 1, 80
1, 82175, Control_c, 3, 1, 73
1, 82180, Note_on_c, 3, 63, 127
1, 82203, Control_c, 3, 1, 53
1, 82209, Control_c, 3, 1, 41
1, 82215, Note_off_c, 3, 63, 127
1, 82227, Control_c, 3, 1, 25
1, 82245, Control_c, 3, 1, 19
1, 82261, Control_c, 3, 1, 13
1, 82283, Control_c, 3, 1, 6
1, 82300, Note_on_c, 3, 57, 127
1, 82304, Note_on_c, 9, 40, 111
1, 82313, Note_off_c, 9, 40, 111
1, 82313, Control_c, 3, 1, 0
1, 82345, Control_c, 3, 1, 7
1, 82353, Control_c, 3, 1, 30
1, 82368, Note_on_c, 9, 45, 127
1, 82369, Control_c, 3, 1, 60
1, 82377, Note_off_c, 9, 45, 127
1, 82387, Control_c, 3, 1, 97
1, 82413, Control_c, 3, 1, 110
1, 82425, Control_c, 3, 1, 117
1, 82443, Control_c, 3, 1, 114
1, 82459, Control_c, 3, 1, 93
1, 82481, Control_c, 3, 1, 68
1, 82501, Control_c, 3, 1, 43
1, 82513, Control_c, 3, 1, 8
1, 82517, Note_off_c, 3, 57, 127
1, 82535, Control_c, 3, 1, 0
1, 82558, Note_on_c, 3, 56, 127
1, 82560, Note_on_c, 9, 45, 127
1, 82560, Note_on_c, 9, 54, 106
1, 82569, Note_off_c, 9, 54, 106
1, 82569, Note_off_c, 9, 45, 127
1, 82583, Control_c, 3, 1, 1
1, 82587, Control_c, 3, 1, 4
1, 82603, Control_c, 3, 1, 12
1, 82629, Control_c, 3, 1, 17
1, 82641, Control_c, 3, 1, 20
1, 82657, Control_c, 3, 1, 24
1, 82679, Control_c, 3, 1, 25
1, 82688, Note_on_c, 1, 34, 104
1, 82688, Note_on_c, 2, 37, 88
1, 82688, Note_on_c, 9, 41, 94
1, 82697, Note_off_c, 9, 41, 94
1, 82699, Control_c, 3, 1, 19
1, 82711, Note_off_c, 3, 56, 127
1, 82713, Note_off_c, 2, 37, 88
1, 82713, Control_c, 3, 1, 12
1, 82717, Note_off_c, 1, 34, 104
1, 82733, Control_c, 3, 1, 9
1, 82747, Control_c, 3, 1, 4
1, 82752, Note_on_c, 1, 37, 104
1, 82752, Note_on_c, 2, 49, 112
1, 82764, Note_on_c, 3, 54, 86
1, 82767, Control_c, 3, 1, 2
1, 82787, Note_off_c, 3, 54, 86
1, 82795, Control_c, 3, 1, 0
1, 82817, Note_off_c, 2, 49, 112
1, 82821, Note_off_c, 1, 37, 104
1, 82864, Note_on_c, 3, 56, 127
1, 82880, Note_on_c, 1, 39, 104
1, 82880, Note_on_c, 2, 51, 101
1, 82880, Note_on_c, 9, 36, 116
1, 82889, Note_off_c, 9, 36, 116
1, 82921, Note_off_c, 2, 51, 101
1, 82923, Note_off_c, 1, 39, 104
1, 82929, Note_off_c, 3, 56, 127
1, 82944, Note_on_c, 0, 27, 122
1, 82944, Note_on_c, 1, 27, 105
1, 82944, Note_on_c, 2, 39, 127
1, 82944, Note_on_c, 9, 36, 127
1, 82944, Note_on_c, 9, 49, 84
1, 82944, Note_on_c, 9, 54, 89
1, 82953, Note_off_c, 9, 54, 89
1, 82953, Note_off_c, 9, 49, 84
1, 82953, Note_off_c, 9, 36, 127
1, 82979, Control_c, 3, 1, 2
1, 82983, Control_c, 3, 1, 6
1, 82999, Control_c, 3, 1, 10
1, 83023, Control_c, 3, 1, 13
1, 83039, Control_c, 3, 1, 17
1, 83055, Control_c, 3, 1, 23
1, 83075, Control_c, 3, 1, 30
1, 83085, Note_off_c, 2, 39, 127
1, 83091, Control_c, 3, 1, 36
1, 83095, Note_off_c, 1, 27, 105
1, 83107, Control_c, 3, 1, 45
1, 83117, Note_off_c, 0, 27, 122
1, 83127, Control_c, 3, 1, 51
1, 83136, Note_on_c, 0, 39, 114
1, 83136, Note_on_c, 1, 39, 98
1, 83136, Note_on_c, 2, 51, 115
1, 83136, Note_on_c, 4, 63, 116
1, 83136, Note_on_c, 4, 75, 116
1, 83136, Note_on_c, 5, 51, 112
1, 83136, Note_on_c, 9, 42, 77
1, 83136, Note_on_c, 9, 54, 53
1, 83143, Control_c, 3, 1, 57
1, 83145, Note_off_c, 9, 54, 53
1, 83145, Note_off_c, 9, 42, 77
1, 83149, Note_off_c, 5, 51, 112
1, 83169, Control_c, 3, 1, 43
1, 83179, Note_off_c, 0, 39, 114
1, 83181, Control_c, 3, 1, 13
1, 83187, Note_off_c, 2, 51, 115
1, 83199, Control_c, 3, 1, 0
1, 83201, Note_off_c, 1, 39, 98
1, 83229, Note_off_c, 4, 75, 116
1, 83229, Note_off_c, 4, 63, 116
1, 83264, Note_on_c, 1, 27, 61
1, 83279, Pitch_bend_c, 3, 4544
1, 83297, Note_off_c, 1, 27, 61
1, 83301, Pitch_bend_c, 3, 0
1, 83328, Note_on_c, 0, 54, 114
1, 83328, Note_on_c, 0, 49, 100
1, 83328, Note_on_c, 1, 37, 92
1, 83328, Note_on_c, 2, 49, 106
1, 83328, Note_on_c, 3, 63, 127
1, 83328, Note_on_c, 9, 39, 126
1, 83328, Note_on_c, 9, 40, 127
1, 83328, Note_on_c, 9, 42, 122
1, 83328, Note_on_c, 9, 36, 127
1, 83328, Note_on_c, 9, 54, 112
1, 83337, Note_off_c, 9, 54, 112
1, 83337, Note_off_c, 9, 36, 127
1, 83337, Note_off_c, 9, 42, 122
1, 83337, Note_off_c, 9, 40, 127
1, 83337, Note_off_c, 9, 39, 126
1, 83343, Note_off_c, 0, 49, 100
1, 83347, Pitch_bend_c, 3, 4800
1, 83355, Note_off_c, 0, 54, 114
1, 83367, Pitch_bend_c, 3, 8000
1, 83381, Pitch_bend_c, 3, 8192
1, 83427, Note_off_c, 1, 37, 92
1, 83441, Note_off_c, 2, 49, 106
1, 83456, Note_on_c, 1, 39, 90
1, 83456, Note_on_c, 2, 51, 88
1, 83456, Note_on_c, 4, 63, 116
1, 83456, Note_on_c, 4, 75, 116
1, 83456, Note_on_c, 5, 49, 107
1, 83477, Note_off_c, 5, 49, 107
1, 83489, Control_c, 3, 1, 3
1, 83495, Note_off_c, 2, 51, 88
1, 83503, Control_c, 3, 1, 11
1, 83505, Note_off_c, 1, 39, 90
1, 83520, Note_on_c, 0, 39, 117
1, 83520, Note_on_c, 1, 27, 97
1, 83520, Note_on_c, 2, 39, 111
1, 83520, Note_on_c, 5, 51, 118
1, 83520, Note_on_c, 9, 42, 62
1, 83520, Note_on_c, 9, 54, 61
1, 83523, Control_c, 3, 1, 19
1, 83529, Note_off_c, 9, 54, 61
1, 83529, Note_off_c, 9, 42, 62
1, 83543, Control_c, 3, 1, 33
1, 83545, Note_off_c, 2, 39, 111
1, 83549, Note_off_c, 4, 75, 116
1, 83549, Note_off_c, 4, 63, 116
1, 83563, Control_c, 3, 1, 40
1, 83565, Note_off_c, 5, 51, 118
1, 83575, Control_c, 3, 1, 48
1, 83591, Note_off_c, 0, 39, 117
1, 83595, Control_c, 3, 1, 54
1, 83611, Control_c, 3, 1, 63
1, 83631, Control_c, 3, 1, 70
1, 83648, Note_on_c, 5, 54, 127
1, 83651, Control_c, 3, 1, 74
1, 83659, Note_off_c, 1, 27, 97
1, 83667, Control_c, 3, 1, 77
1, 83679, Note_off_c, 5, 54, 127
1, 83683, Control_c, 3, 1, 79
1, 83712, Note_on_c, 0, 54, 127
1, 83712, Note_on_c, 0, 49, 125
1, 83712, Note_on_c, 1, 30, 104
1, 83712, Note_on_c, 2, 54, 112
1, 83712, Note_on_c, 2, 49, 107
1, 83712, Note_on_c, 4, 54, 116
1, 83712, Note_on_c, 4, 66, 116
1, 83712, Note_on_c, 9, 42, 117
1, 83712, Note_on_c, 9, 36, 127
1, 83712, Note_on_c, 9, 54, 104
1, 83721, Note_off_c, 9, 54, 104
1, 83721, Note_off_c, 9, 36, 127
1, 83721, Note_off_c, 9, 42, 117
1, 83735, Note_off_c, 2, 54, 112
1, 83751, Note_off_c, 2, 49, 107
1, 83761, Control_c, 3, 1, 77
1, 83777, Control_c, 3, 1, 76
1, 83795, Note_off_c, 1, 30, 104
1, 83805, Note_off_c, 4, 66, 116
1, 83805, Note_off_c, 4, 54, 116
1, 83805, Control_c, 3, 1, 75
1, 83813, Control_c, 3, 1, 43
1, 83833, Control_c, 3, 1, 5
1, 83840, Note_on_c, 1, 32, 74
1, 83840, Note_on_c, 4, 56, 116
1, 83840, Note_on_c, 4, 68, 116
1, 83840, Note_on_c, 5, 49, 114
1, 83845, Control_c, 3, 1, 0
1, 83863, Note_off_c, 5, 49, 114
1, 83865, Note_off_c, 3, 63, 127
1, 83879, Note_off_c, 0, 49, 125
1, 83896, Note_on_c, 3, 61, 108
1, 83903, Note_off_c, 0, 54, 127
1, 83904, Note_on_c, 1, 34, 93
1, 83904, Note_on_c, 2, 39, 88
1, 83904, Note_on_c, 4, 58, 116
1, 83904, Note_on_c, 4, 70, 116
1, 83904, Note_on_c, 5, 51, 127
1, 83904, Note_on_c, 9, 42, 63
1, 83904, Note_on_c, 9, 54, 51
1, 83905, Note_off_c, 1, 32, 74
1, 83913, Note_off_c, 9, 54, 51
1, 83913, Note_off_c, 9, 42, 63
1, 83917, Note_off_c, 2, 39, 88
1, 83933, Note_off_c, 4, 68, 116
1, 83933, Note_off_c, 4, 56, 116
1, 83947, Note_off_c, 3, 61, 108
1, 83959, Note_off_c, 5, 51, 127
1, 83965, Note_off_c, 1, 34, 93
1, 83968, Note_on_c, 0, 39, 109
1, 83970, Note_on_c, 3, 58, 98
1, 83991, Note_off_c, 0, 39, 109
1, 83993, Note_off_c, 3, 58, 98
1, 83997, Note_off_c, 4, 70, 116
1, 83997, Note_off_c, 4, 58, 116
1, 84032, Note_on_c, 1, 37, 98
1, 84032, Note_on_c, 2, 51, 115
1, 84032, Note_on_c, 4, 61, 116
1, 84032, Note_on_c, 4, 73, 116
1, 84032, Note_on_c, 5, 54, 127
1, 84067, Note_off_c, 2, 51, 115
1, 84075, Note_off_c, 5, 54, 127
1, 84096, Note_on_c, 0, 56, 127
1, 84096, Note_on_c, 0, 51, 121
1, 84096, Note_on_c, 9, 39, 122
1, 84096, Note_on_c, 9, 40, 127
1, 84096, Note_on_c, 9, 42, 126
1, 84096, Note_on_c, 9, 36, 127
1, 84096, Note_on_c, 9, 54, 106
1, 84105, Note_off_c, 9, 54, 106
1, 84105, Note_off_c, 9, 36, 127
1, 84105, Note_off_c, 9, 42, 126
1, 84105, Note_off_c, 9, 40, 127
1, 84105, Note_off_c, 9, 39, 122
1, 84205, Note_off_c, 0, 51, 121
1, 84207, Note_off_c, 1, 37, 98
1, 84221, Note_off_c, 4, 73, 116
1, 84221, Note_off_c, 4, 61, 116
1, 84224, Note_on_c, 1, 34, 88
1, 84224, Note_on_c, 2, 39, 94
1, 84224, Note_on_c, 4, 58, 116
1, 84224, Note_on_c, 4, 70, 116
1, 84233, Note_off_c, 0, 56, 127
1, 84235, Note_off_c, 2, 39, 94
1, 84265, Note_off_c, 4, 70, 116
1, 84265, Note_off_c, 4, 58, 116
1, 84273, Note_off_c, 1, 34, 88
1, 84288, Note_on_c, 0, 54, 116
1, 84288, Note_on_c, 0, 49, 120
1, 84288, Note_on_c, 1, 39, 100
1, 84288, Note_on_c, 2, 49, 108
1, 84288, Note_on_c, 4, 63, 116
1, 84288, Note_on_c, 4, 75, 116
1, 84288, Note_on_c, 5, 56, 127
1, 84288, Note_on_c, 9, 42, 64
1, 84288, Note_on_c, 9, 54, 59
1, 84297, Note_off_c, 9, 54, 59
1, 84297, Note_off_c, 9, 42, 64
1, 84345, Note_off_c, 5, 56, 127
1, 84347, Note_off_c, 0, 49, 120
1, 84357, Note_off_c, 0, 54, 116
1, 84369, Note_off_c, 1, 39, 100
1, 84381, Note_off_c, 4, 75, 116
1, 84381, Note_off_c, 4, 63, 116
1, 84399, Note_off_c, 2, 49, 108
1, 84416, Note_on_c, 1, 39, 97
1, 84416, Note_on_c, 2, 51, 96
1, 84416, Note_on_c, 4, 63, 116
1, 84416, Note_on_c, 4, 75, 116
1, 84416, Note_on_c, 5, 54, 127
1, 84449, Note_off_c, 2, 51, 96
1, 84453, Note_off_c, 5, 54, 127
1, 84467, Note_off_c, 4, 75, 116
1, 84467, Note_off_c, 4, 63, 116
1, 84480, Note_on_c, 0, 27, 121
1, 84480, Note_on_c, 1, 27, 104
1, 84480, Note_on_c, 2, 39, 127
1, 84480, Note_on_c, 9, 36, 127
1, 84480, Note_on_c, 9, 42, 109
1, 84480, Note_on_c, 9, 54, 112
1, 84489, Note_off_c, 9, 54, 112
1, 84489, Note_off_c, 9, 42, 109
1, 84489, Note_off_c, 9, 36, 127
1, 84489, Note_off_c, 1, 39, 97
1, 84541, Note_off_c, 2, 39, 127
1, 84608, Note_on_c, 5, 49, 110
1, 84621, Note_off_c, 0, 27, 121
1, 84631, Note_off_c, 5, 49, 110
1, 84643, Note_off_c, 1, 27, 104
1, 84672, Note_on_c, 0, 54, 127
1, 84672, Note_on_c, 0, 49, 125
1, 84672, Note_on_c, 1, 39, 104
1, 84672, Note_on_c, 2, 51, 127
1, 84672, Note_on_c, 4, 63, 116
1, 84672, Note_on_c, 4, 75, 116
1, 84672, Note_on_c, 5, 51, 126
1, 84672, Note_on_c, 9, 42, 67
1, 84672, Note_on_c, 9, 54, 66
1, 84681, Note_off_c, 9, 54, 66
1, 84681, Note_off_c, 9, 42, 67
1, 84689, Note_off_c, 0, 49, 125
1, 84703, Note_off_c, 0, 54, 127
1, 84705, Note_off_c, 5, 51, 126
1, 84717, Note_off_c, 2, 51, 127
1, 84721, Note_off_c, 4, 75, 116
1, 84721, Note_off_c, 4, 63, 116
1, 84731, Note_off_c, 1, 39, 104
1, 84800, Note_on_c, 1, 27, 79
1, 84835, Note_off_c, 1, 27, 79
1, 84864, Note_on_c, 0, 39, 107
1, 84864, Note_on_c, 1, 37, 96
1, 84864, Note_on_c, 2, 49, 115
1, 84864, Note_on_c, 4, 61, 115
1, 84864, Note_on_c, 4, 73, 115
1, 84864, Note_on_c, 5, 51, 127
1, 84864, Note_on_c, 9, 39, 126
1, 84864, Note_on_c, 9, 40, 127
1, 84864, Note_on_c, 9, 42, 124
1, 84864, Note_on_c, 9, 36, 127
1, 84864, Note_on_c, 9, 54, 110
1, 84873, Note_off_c, 9, 54, 110
1, 84873, Note_off_c, 9, 36, 127
1, 84873, Note_off_c, 9, 42, 124
1, 84873, Note_off_c, 9, 40, 127
1, 84873, Note_off_c, 9, 39, 126
1, 84909, Note_off_c, 5, 51, 127
1, 84909, Note_off_c, 0, 39, 107
1, 84957, Note_off_c, 4, 73, 115
1, 84957, Note_off_c, 4, 61, 115
1, 84985, Note_off_c, 2, 49, 115
1, 84992, Note_on_c, 0, 54, 118
1, 84992, Note_on_c, 0, 49, 112
1, 84992, Note_on_c, 1, 39, 98
1, 84992, Note_on_c, 2, 51, 94
1, 84992, Note_on_c, 4, 63, 115
1, 84992, Note_on_c, 4, 75, 115
1, 84995, Note_off_c, 1, 37, 96
1, 85007, Note_off_c, 0, 49, 112
1, 85023, Note_off_c, 0, 54, 118
1, 85033, Note_off_c, 2, 51, 94
1, 85039, Note_off_c, 4, 75, 115
1, 85039, Note_off_c, 4, 63, 115
1, 85056, Note_on_c, 0, 27, 125
1, 85056, Note_on_c, 2, 39, 108
1, 85056, Note_on_c, 5, 49, 110
1, 85056, Note_on_c, 9, 42, 73
1, 85056, Note_on_c, 9, 54, 52
1, 85065, Note_off_c, 9, 54, 52
1, 85065, Note_off_c, 9, 42, 73
1, 85065, Note_off_c, 1, 39, 98
1, 85073, Note_off_c, 5, 49, 110
1, 85095, Note_off_c, 2, 39, 108
1, 85113, Note_off_c, 0, 27, 125
1, 85180, Note_on_c, 9, 54, 65
1, 85184, Note_on_c, 1, 37, 77
1, 85189, Note_off_c, 9, 54, 65
1, 85221, Note_off_c, 1, 37, 77
1, 85248, Note_on_c, 0, 58, 127
1, 85248, Note_on_c, 0, 57, 123
1, 85248, Note_on_c, 0, 56, 117
1, 85248, Note_on_c, 0, 61, 118
1, 85248, Note_on_c, 1, 44, 105
1, 85248, Note_on_c, 2, 46, 117
1, 85248, Note_on_c, 2, 45, 120
1, 85248, Note_on_c, 4, 70, 115
1, 85248, Note_on_c, 4, 82, 115
1, 85248, Note_on_c, 9, 36, 127
1, 85248, Note_on_c, 9, 42, 107
1, 85248, Note_on_c, 9, 54, 112
1, 85257, Note_off_c, 9, 54, 112
1, 85257, Note_off_c, 9, 42, 107
1, 85257, Note_off_c, 9, 36, 127
1, 85269, Pitch_bend_c, 1, 9728
1, 85277, Note_off_c, 0, 56, 117
1, 85279, Pitch_bend_c, 1, 14912
1, 85283, Note_off_c, 2, 45, 120
1, 85291, Note_off_c, 0, 57, 123
1, 85291, Pitch_bend_c, 1, 16383
1, 85305, Note_off_c, 4, 82, 115
1, 85305, Note_off_c, 4, 70, 115
1, 85307, Note_off_c, 0, 58, 127
1, 85341, Note_off_c, 1, 44, 105
1, 85365, Pitch_bend_c, 1, 15648
1, 85376, Note_on_c, 5, 49, 126
1, 85377, Pitch_bend_c, 1, 13792
1, 85387, Pitch_bend_c, 1, 10112
1, 85403, Note_off_c, 5, 49, 126
1, 85403, Pitch_bend_c, 1, 8448
1, 85407, Note_off_c, 2, 46, 117
1, 85413, Pitch_bend_c, 1, 8192
1, 85440, Note_on_c, 0, 57, 102
1, 85440, Note_on_c, 0, 56, 119
1, 85440, Note_on_c, 1, 42, 107
1, 85440, Note_on_c, 2, 49, 87
1, 85440, Note_on_c, 4, 68, 115
1, 85440, Note_on_c, 4, 80, 115
1, 85440, Note_on_c, 5, 51, 122
1, 85440, Note_on_c, 9, 42, 78
1, 85440, Note_on_c, 9, 36, 127
1, 85440, Note_on_c, 9, 54, 54
1, 85447, Note_off_c, 0, 61, 118
1, 85449, Note_off_c, 9, 54, 54
1, 85449, Note_off_c, 9, 36, 127
1, 85449, Note_off_c, 9, 42, 78
1, 85465, Note_off_c, 0, 57, 102
1, 85487, Note_off_c, 5, 51, 122
1, 85491, Note_off_c, 4, 80, 115
1, 85491, Note_off_c, 4, 68, 115
1, 85493, Note_off_c, 0, 56, 119
1, 85521, Note_off_c, 2, 49, 87
1, 85531, Note_off_c, 1, 42, 107
1, 85568, Note_on_c, 2, 45, 109
1, 85568, Note_on_c, 2, 46, 92
1, 85615, Note_off_c, 2, 46, 92
1, 85632, Note_on_c, 0, 54, 127
1, 85632, Note_on_c, 1, 42, 100
1, 85632, Note_on_c, 2, 44, 85
1, 85632, Note_on_c, 4, 66, 115
1, 85632, Note_on_c, 4, 78, 115
1, 85632, Note_on_c, 5, 54, 106
1, 85632, Note_on_c, 9, 39, 127
1, 85632, Note_on_c, 9, 40, 127
1, 85632, Note_on_c, 9, 42, 127
1, 85632, Note_on_c, 9, 36, 127
1, 85632, Note_on_c, 9, 54, 114
1, 85637, Note_off_c, 2, 45, 109
1, 85641, Note_off_c, 9, 54, 114
1, 85641, Note_off_c, 9, 36, 127
1, 85641, Note_off_c, 9, 42, 127
1, 85641, Note_off_c, 9, 40, 127
1, 85641, Note_off_c, 9, 39, 127
1, 85645, Note_off_c, 5, 54, 106
1, 85695, Note_off_c, 4, 78, 115
1, 85695, Note_off_c, 4, 66, 115
1, 85695, Note_off_c, 0, 54, 127
1, 85737, Note_off_c, 2, 44, 85
1, 85760, Note_on_c, 2, 42, 95
1, 85799, Note_off_c, 1, 42, 100
1, 85805, Note_off_c, 2, 42, 95
1, 85824, Note_on_c, 0, 56, 127
1, 85824, Note_on_c, 1, 39, 93
1, 85824, Note_on_c, 2, 44, 95
1, 85824, Note_on_c, 9, 42, 71
1, 85824, Note_on_c, 9, 36, 127
1, 85824, Note_on_c, 9, 54, 63
1, 85833, Note_off_c, 9, 54, 63
1, 85833, Note_off_c, 9, 36, 127
1, 85833, Note_off_c, 9, 42, 71
1, 85909, Note_off_c, 0, 56, 127
1, 85921, Note_off_c, 2, 44, 95
1, 85933, Note_off_c, 1, 39, 93
1, 85952, Note_on_c, 0, 54, 123
1, 85952, Note_on_c, 1, 37, 89
1, 85952, Note_on_c, 2, 42, 88
1, 85989, Note_off_c, 0, 54, 123
1, 85993, Note_off_c, 2, 42, 88
1, 86001, Note_off_c, 1, 37, 89
1, 86016, Note_on_c, 0, 27, 120
1, 86016, Note_on_c, 1, 27, 88
1, 86016, Note_on_c, 1, 29, 97
1, 86016, Note_on_c, 2, 39, 127
1, 86016, Note_on_c, 9, 36, 127
1, 86016, Note_on_c, 9, 42, 115
1, 86016, Note_on_c, 9, 54, 110
1, 86025, Note_off_c, 9, 54, 110
1, 86025, Note_off_c, 9, 42, 115
1, 86025, Note_off_c, 9, 36, 127
1, 86029, Note_off_c, 1, 29, 97
1, 86105, Note_off_c, 0, 27, 120
1, 86144, Note_on_c, 5, 49, 118
1, 86169, Note_off_c, 5, 49, 118
1, 86169, Note_off_c, 2, 39, 127
1, 86208, Note_on_c, 1, 39, 107
1, 86208, Note_on_c, 2, 51, 117
1, 86208, Note_on_c, 4, 63, 115
1, 86208, Note_on_c, 4, 75, 115
1, 86208, Note_on_c, 5, 51, 127
1, 86208, Note_on_c, 9, 42, 57
1, 86208, Note_on_c, 9, 54, 54
1, 86215, Note_off_c, 1, 27, 88
1, 86217, Note_off_c, 9, 54, 54
1, 86217, Note_off_c, 9, 42, 57
1, 86255, Note_off_c, 5, 51, 127
1, 86259, Note_off_c, 2, 51, 117
1, 86281, Note_off_c, 1, 39, 107
1, 86301, Note_off_c, 4, 75, 115
1, 86301, Note_off_c, 4, 63, 115
1, 86336, Note_on_c, 1, 27, 69
1, 86336, Note_on_c, 2, 39, 75
1, 86347, Note_off_c, 2, 39, 75
1, 86355, Note_off_c, 1, 27, 69
1, 86400, Note_on_c, 0, 54, 127
1, 86400, Note_on_c, 0, 49, 124
1, 86400, Note_on_c, 1, 37, 101
1, 86400, Note_on_c, 2, 49, 112
1, 86400, Note_on_c, 9, 39, 124
1, 86400, Note_on_c, 9, 40, 127
1, 86400, Note_on_c, 9, 42, 126
1, 86400, Note_on_c, 9, 36, 127
1, 86400, Note_on_c, 9, 54, 112
1, 86409, Note_off_c, 9, 54, 112
1, 86409, Note_off_c, 9, 36, 127
1, 86409, Note_off_c, 9, 42, 126
1, 86409, Note_off_c, 9, 40, 127
1, 86409, Note_off_c, 9, 39, 124
1, 86437, Note_off_c, 0, 49, 124
1, 86449, Note_off_c, 0, 54, 127
1, 86479, Note_off_c, 2, 49, 112
1, 86503, Note_off_c, 1, 37, 101
1, 86528, Note_on_c, 1, 39, 90
1, 86528, Note_on_c, 2, 51, 92
1, 86528, Note_on_c, 4, 63, 115
1, 86528, Note_on_c, 4, 75, 115
1, 86528, Note_on_c, 5, 49, 112
1, 86545, Note_off_c, 5, 49, 112
1, 86559, Note_off_c, 2, 51, 92
1, 86571, Note_off_c, 1, 39, 90
1, 86592, Note_on_c, 0, 39, 103
1, 86592, Note_on_c, 1, 27, 98
1, 86592, Note_on_c, 2, 39, 127
1, 86592, Note_on_c, 5, 51, 127
1, 86592, Note_on_c, 9, 42, 66
1, 86592, Note_on_c, 9, 54, 46
1, 86601, Note_off_c, 9, 54, 46
1, 86601, Note_off_c, 9, 42, 66
1, 86619, Note_off_c, 0, 39, 103
1, 86621, Note_off_c, 4, 75, 115
1, 86621, Note_off_c, 4, 63, 115
1, 86627, Note_off_c, 2, 39, 127
1, 86633, Note_off_c, 5, 51, 127
1, 86725, Note_off_c, 1, 27, 98
1, 86784, Note_on_c, 0, 56, 126
1, 86784, Note_on_c, 0, 51, 127
1, 86784, Note_on_c, 1, 30, 118
1, 86784, Note_on_c, 2, 54, 108
1, 86784, Note_on_c, 2, 49, 108
1, 86784, Note_on_c, 4, 54, 115
1, 86784, Note_on_c, 4, 66, 115
1, 86784, Note_on_c, 5, 54, 114
1, 86784, Note_on_c, 9, 36, 127
1, 86784, Note_on_c, 9, 42, 110
1, 86784, Note_on_c, 9, 54, 117
1, 86793, Note_off_c, 9, 54, 117
1, 86793, Note_off_c, 9, 42, 110
1, 86793, Note_off_c, 9, 36, 127
1, 86813, Note_off_c, 2, 54, 108
1, 86831, Note_off_c, 2, 49, 108
1, 86835, Note_off_c, 5, 54, 114
1, 86871, Note_off_c, 1, 30, 118
1, 86877, Note_off_c, 4, 66, 115
1, 86877, Note_off_c, 4, 54, 115
1, 86908, Note_on_c, 9, 54, 70
1, 86912, Note_on_c, 1, 32, 79
1, 86912, Note_on_c, 4, 56, 115
1, 86912, Note_on_c, 4, 68, 115
1, 86917, Note_off_c, 9, 54, 70
1, 86941, Note_off_c, 0, 51, 127
1, 86965, Note_off_c, 0, 56, 126
1, 86971, Note_off_c, 1, 32, 79
1, 86976, Note_on_c, 0, 39, 114
1, 86976, Note_on_c, 1, 34, 93
1, 86976, Note_on_c, 4, 58, 115
1, 86976, Note_on_c, 4, 70, 115
1, 86976, Note_on_c, 9, 42, 76
1, 86976, Note_on_c, 9, 54, 62
1, 86985, Note_off_c, 9, 54, 62
1, 86985, Note_off_c, 9, 42, 76
1, 87005, Note_off_c, 4, 68, 115
1, 87005, Note_off_c, 4, 56, 115
1, 87019, Note_off_c, 0, 39, 114
1, 87049, Note_off_c, 1, 34, 93
1, 87069, Note_off_c, 4, 70, 115
1, 87069, Note_off_c, 4, 58, 115
1, 87104, Note_on_c, 0, 54, 127
1, 87104, Note_on_c, 0, 49, 118
1, 87104, Note_on_c, 1, 37, 102
1, 87104, Note_on_c, 2, 54, 108
1, 87104, Note_on_c, 2, 49, 110
1, 87104, Note_on_c, 4, 61, 115
1, 87104, Note_on_c, 4, 73, 115
1, 87104, Note_on_c, 5, 56, 127
1, 87104, Note_on_c, 9, 46, 91
1, 87113, Note_off_c, 9, 46, 91
1, 87135, Note_off_c, 0, 49, 118
1, 87143, Note_off_c, 0, 54, 127
1, 87147, Note_off_c, 5, 56, 127
1, 87147, Note_off_c, 2, 54, 108
1, 87151, Note_off_c, 2, 49, 110
1, 87168, Note_on_c, 9, 39, 127
1, 87168, Note_on_c, 9, 40, 127
1, 87168, Note_on_c, 9, 42, 105
1, 87168, Note_on_c, 9, 36, 127
1, 87168, Note_on_c, 9, 54, 114
1, 87177, Note_off_c, 9, 54, 114
1, 87177, Note_off_c, 9, 36, 127
1, 87177, Note_off_c, 9, 42, 105
1, 87177, Note_off_c, 9, 40, 127
1, 87177, Note_off_c, 9, 39, 127
1, 87269, Note_off_c, 1, 37, 102
1, 87293, Note_off_c, 4, 73, 115
1, 87293, Note_off_c, 4, 61, 115
1, 87296, Note_on_c, 0, 39, 111
1, 87296, Note_on_c, 1, 34, 87
1, 87296, Note_on_c, 4, 58, 115
1, 87296, Note_on_c, 4, 70, 115
1, 87337, Note_off_c, 4, 70, 115
1, 87337, Note_off_c, 4, 58, 115
1, 87337, Note_off_c, 0, 39, 111
1, 87347, Note_off_c, 1, 34, 87
1, 87360, Note_on_c, 0, 49, 115
1, 87360, Note_on_c, 1, 39, 101
1, 87360, Note_on_c, 2, 54, 112
1, 87360, Note_on_c, 2, 49, 112
1, 87360, Note_on_c, 4, 63, 115
1, 87360, Note_on_c, 4, 75, 115
1, 87360, Note_on_c, 5, 54, 127
1, 87360, Note_on_c, 9, 42, 87
1, 87360, Note_on_c, 9, 54, 70
1, 87369, Note_off_c, 9, 54, 70
1, 87369, Note_off_c, 9, 42, 87
1, 87405, Note_off_c, 5, 54, 127
1, 87445, Note_off_c, 1, 39, 101
1, 87449, Note_off_c, 0, 49, 115
1, 87453, Note_off_c, 4, 75, 115
1, 87453, Note_off_c, 4, 63, 115
1, 87484, Note_on_c, 9, 54, 71
1, 87488, Note_on_c, 0, 51, 118
1, 87488, Note_on_c, 1, 39, 87
1, 87488, Note_on_c, 4, 63, 115
1, 87488, Note_on_c, 4, 75, 115
1, 87493, Note_off_c, 9, 54, 71
1, 87525, Note_off_c, 0, 51, 118
1, 87539, Note_off_c, 4, 75, 115
1, 87539, Note_off_c, 4, 63, 115
1, 87539, Note_off_c, 2, 54, 112
1, 87552, Note_on_c, 0, 27, 121
1, 87552, Note_on_c, 1, 27, 107
1, 87552, Note_on_c, 2, 39, 111
1, 87552, Note_on_c, 9, 42, 84
1, 87552, Note_on_c, 9, 36, 127
1, 87552, Note_on_c, 9, 54, 114
1, 87561, Note_off_c, 9, 54, 114
1, 87561, Note_off_c, 9, 36, 127
1, 87561, Note_off_c, 9, 42, 84
1, 87561, Note_off_c, 2, 49, 112
1, 87573, Note_off_c, 1, 39, 87
1, 87669, Note_off_c, 2, 39, 111
1, 87680, Note_on_c, 5, 49, 127
1, 87685, Note_off_c, 0, 27, 121
1, 87705, Note_off_c, 5, 49, 127
1, 87727, Note_off_c, 1, 27, 107
1, 87744, Note_on_c, 0, 51, 127
1, 87744, Note_on_c, 1, 39, 107
1, 87744, Note_on_c, 2, 51, 114
1, 87744, Note_on_c, 4, 63, 115
1, 87744, Note_on_c, 4, 75, 115
1, 87744, Note_on_c, 5, 51, 127
1, 87744, Note_on_c, 9, 42, 78
1, 87744, Note_on_c, 9, 54, 56
1, 87753, Note_off_c, 9, 54, 56
1, 87753, Note_off_c, 9, 42, 78
1, 87787, Note_off_c, 0, 51, 127
1, 87789, Note_off_c, 5, 51, 127
1, 87793, Note_off_c, 4, 75, 115
1, 87793, Note_off_c, 4, 63, 115
1, 87797, Note_off_c, 2, 51, 114
1, 87813, Note_off_c, 1, 39, 107
1, 87872, Note_on_c, 1, 27, 72
1, 87909, Note_off_c, 1, 27, 72
1, 87936, Note_on_c, 0, 49, 121
1, 87936, Note_on_c, 1, 37, 102
1, 87936, Note_on_c, 2, 49, 121
1, 87936, Note_on_c, 4, 61, 115
1, 87936, Note_on_c, 4, 73, 115
1, 87936, Note_on_c, 9, 39, 127
1, 87936, Note_on_c, 9, 42, 120
1, 87936, Note_on_c, 9, 40, 126
1, 87936, Note_on_c, 9, 36, 127
1, 87936, Note_on_c, 9, 54, 112
1, 87945, Note_off_c, 9, 54, 112
1, 87945, Note_off_c, 9, 36, 127
1, 87945, Note_off_c, 9, 40, 126
1, 87945, Note_off_c, 9, 42, 120
1, 87945, Note_off_c, 9, 39, 127
1, 87979, Note_off_c, 0, 49, 121
1, 88029, Note_off_c, 4, 73, 115
1, 88029, Note_off_c, 4, 61, 115
1, 88045, Note_off_c, 1, 37, 102
1, 88064, Note_on_c, 1, 39, 101
1, 88064, Note_on_c, 4, 63, 115
1, 88064, Note_on_c, 4, 75, 115
1, 88064, Note_on_c, 5, 49, 118
1, 88073, Note_off_c, 2, 49, 121
1, 88087, Note_off_c, 5, 49, 118
1, 88111, Note_off_c, 4, 75, 115
1, 88111, Note_off_c, 4, 63, 115
1, 88121, Note_off_c, 1, 39, 101
1, 88128, Note_on_c, 0, 51, 127
1, 88128, Note_on_c, 2, 51, 110
1, 88128, Note_on_c, 5, 51, 127
1, 88128, Note_on_c, 9, 42, 70
1, 88128, Note_on_c, 9, 36, 127
1, 88128, Note_on_c, 9, 54, 57
1, 88137, Note_off_c, 9, 54, 57
1, 88137, Note_off_c, 9, 36, 127
1, 88137, Note_off_c, 9, 42, 70
1, 88163, Note_off_c, 0, 51, 127
1, 88169, Note_off_c, 5, 51, 127
1, 88185, Note_off_c, 2, 51, 110
1, 88256, Note_on_c, 0, 39, 112
1, 88293, Note_off_c, 0, 39, 112
1, 88320, Note_on_c, 0, 54, 121
1, 88320, Note_on_c, 0, 49, 118
1, 88320, Note_on_c, 1, 44, 102
1, 88320, Note_on_c, 2, 44, 110
1, 88320, Note_on_c, 4, 70, 115
1, 88320, Note_on_c, 4, 82, 115
1, 88320, Note_on_c, 9, 42, 113
1, 88320, Note_on_c, 9, 36, 127
1, 88320, Note_on_c, 9, 54, 117
1, 88329, Note_off_c, 9, 54, 117
1, 88329, Note_off_c, 9, 36, 127
1, 88329, Note_off_c, 9, 42, 113
1, 88353, Pitch_bend_c, 1, 8512
1, 88357, Pitch_bend_c, 1, 10688
1, 88359, Note_off_c, 0, 49, 118
1, 88369, Note_off_c, 0, 54, 121
1, 88369, Pitch_bend_c, 1, 11456
1, 88377, Note_off_c, 4, 82, 115
1, 88377, Note_off_c, 4, 70, 115
1, 88379, Note_off_c, 2, 44, 110
1, 88383, Pitch_bend_c, 1, 14144
1, 88405, Pitch_bend_c, 1, 14432
1, 88413, Note_off_c, 1, 44, 102
1, 88413, Pitch_bend_c, 1, 14208
1, 88425, Pitch_bend_c, 1, 12640
1, 88445, Pitch_bend_c, 1, 11616
1, 88455, Pitch_bend_c, 1, 9344
1, 88471, Pitch_bend_c, 1, 8320
1, 88479, Pitch_bend_c, 1, 8192
1, 88512, Note_on_c, 0, 39, 110
1, 88512, Note_on_c, 1, 42, 100
1, 88512, Note_on_c, 2, 45, 105
1, 88512, Note_on_c, 4, 68, 115
1, 88512, Note_on_c, 4, 80, 115
1, 88512, Note_on_c, 5, 54, 127
1, 88512, Note_on_c, 9, 42, 75
1, 88512, Note_on_c, 9, 54, 64
1, 88521, Note_off_c, 9, 54, 64
1, 88521, Note_off_c, 9, 42, 75
1, 88543, Note_off_c, 0, 39, 110
1, 88555, Note_off_c, 5, 54, 127
1, 88559, Pitch_bend_c, 1, 8960
1, 88563, Note_off_c, 4, 80, 115
1, 88563, Note_off_c, 4, 68, 115
1, 88569, Pitch_bend_c, 1, 10784
1, 88579, Pitch_bend_c, 1, 14240
1, 88593, Pitch_bend_c, 1, 16383
1, 88607, Note_off_c, 2, 45, 105
1, 88621, Note_off_c, 1, 42, 100
1, 88640, Note_on_c, 0, 54, 121
1, 88640, Note_on_c, 0, 49, 110
1, 88640, Note_on_c, 2, 46, 98
1, 88647, Pitch_bend_c, 1, 15744
1, 88653, Pitch_bend_c, 1, 13504
1, 88665, Pitch_bend_c, 1, 9792
1, 88679, Pitch_bend_c, 1, 8352
1, 88683, Note_off_c, 0, 49, 110
1, 88687, Note_off_c, 0, 54, 121
1, 88691, Pitch_bend_c, 1, 8192
1, 88704, Note_on_c, 1, 42, 109
1, 88704, Note_on_c, 4, 66, 115
1, 88704, Note_on_c, 4, 78, 115
1, 88704, Note_on_c, 5, 56, 127
1, 88704, Note_on_c, 9, 39, 124
1, 88704, Note_on_c, 9, 42, 127
1, 88704, Note_on_c, 9, 40, 127
1, 88704, Note_on_c, 9, 36, 127
1, 88704, Note_on_c, 9, 54, 110
1, 88711, Note_off_c, 2, 46, 98
1, 88713, Note_off_c, 9, 54, 110
1, 88713, Note_off_c, 9, 36, 127
1, 88713, Note_off_c, 9, 40, 127
1, 88713, Note_off_c, 9, 42, 127
1, 88713, Note_off_c, 9, 39, 124
1, 88767, Note_off_c, 4, 78, 115
1, 88767, Note_off_c, 4, 66, 115
1, 88779, Note_off_c, 5, 56, 127
1, 88832, Note_on_c, 0, 39, 115
1, 88832, Note_on_c, 2, 49, 110
1, 88832, Note_on_c, 5, 54, 124
1, 88861, Note_off_c, 0, 39, 115
1, 88869, Control_c, 1, 1, 10
1, 88871, Note_off_c, 5, 54, 124
1, 88875, Note_off_c, 1, 42, 109
1, 88885, Control_c, 1, 1, 24
1, 88896, Note_on_c, 0, 56, 125
1, 88896, Note_on_c, 0, 51, 127
1, 88896, Note_on_c, 1, 39, 97
1, 88896, Note_on_c, 5, 51, 122
1, 88896, Note_on_c, 9, 42, 82
1, 88896, Note_on_c, 9, 54, 57
1, 88903, Control_c, 1, 1, 5
1, 88905, Note_off_c, 9, 54, 57
1, 88905, Note_off_c, 9, 42, 82
1, 88905, Note_off_c, 2, 49, 110
1, 88935, Control_c, 1, 1, 0
1, 88939, Note_off_c, 5, 51, 122
1, 88951, Note_off_c, 0, 51, 127
1, 88965, Note_off_c, 0, 56, 125
1, 88977, Note_off_c, 1, 39, 97
1, 89024, Note_on_c, 1, 37, 90
1, 89024, Note_on_c, 2, 51, 117
1, 89024, Note_on_c, 5, 54, 127
1, 89053, Note_off_c, 5, 54, 127
1, 89063, Note_off_c, 2, 51, 117
1, 89063, Note_off_c, 1, 37, 90
1, 89088, Note_on_c, 0, 56, 127
1, 89088, Note_on_c, 0, 50, 127
1, 89088, Note_on_c, 0, 34, 127
1, 89088, Note_on_c, 1, 34, 107
1, 89088, Note_on_c, 2, 56, 90
1, 89088, Note_on_c, 2, 62, 97
1, 89088, Note_on_c, 2, 34, 100
1, 89088, Note_on_c, 4, 65, 125
1, 89088, Note_on_c, 9, 36, 127
1, 89088, Note_on_c, 9, 49, 84
1, 89097, Note_off_c, 9, 49, 84
1, 89097, Note_off_c, 9, 36, 127
1, 89135, Note_off_c, 1, 34, 107
1, 89145, Note_off_c, 0, 34, 127
1, 89195, Note_off_c, 2, 34, 100
1, 89216, Note_on_c, 1, 34, 107
1, 89216, Note_on_c, 5, 58, 127
1, 89241, Note_off_c, 2, 56, 90
1, 89253, Note_off_c, 2, 62, 97
1, 89257, Note_off_c, 5, 58, 127
1, 89280, Note_on_c, 0, 34, 121
1, 89280, Note_on_c, 2, 34, 97
1, 89280, Note_on_c, 9, 42, 77
1, 89289, Note_off_c, 9, 42, 77
1, 89317, Note_off_c, 0, 34, 121
1, 89319, Note_off_c, 2, 34, 97
1, 89339, Note_off_c, 1, 34, 107
1, 89408, Note_on_c, 1, 38, 107
1, 89408, Note_on_c, 2, 56, 85
1, 89408, Note_on_c, 2, 62, 94
1, 89408, Note_on_c, 5, 58, 123
1, 89435, Note_off_c, 5, 58, 123
1, 89437, Note_off_c, 2, 56, 85
1, 89449, Note_off_c, 2, 62, 94
1, 89472, Note_on_c, 2, 34, 107
1, 89472, Note_on_c, 9, 39, 126
1, 89472, Note_on_c, 9, 40, 127
1, 89472, Note_on_c, 9, 42, 122
1, 89472, Note_on_c, 9, 36, 127
1, 89472, Note_on_c, 9, 54, 99
1, 89481, Note_off_c, 9, 54, 99
1, 89481, Note_off_c, 9, 36, 127
1, 89481, Note_off_c, 9, 42, 122
1, 89481, Note_off_c, 9, 40, 127
1, 89481, Note_off_c, 9, 39, 126
1, 89511, Note_off_c, 1, 38, 107
1, 89527, Note_off_c, 2, 34, 107
1, 89600, Note_on_c, 1, 41, 107
1, 89600, Note_on_c, 5, 46, 116
1, 89613, Note_off_c, 4, 65, 125
1, 89631, Note_off_c, 5, 46, 116
1, 89664, Note_on_c, 0, 34, 127
1, 89664, Note_on_c, 2, 34, 97
1, 89664, Note_on_c, 9, 42, 62
1, 89667, Note_off_c, 0, 50, 127
1, 89671, Note_off_c, 0, 56, 127
1, 89673, Note_off_c, 9, 42, 62
1, 89707, Note_off_c, 0, 34, 127
1, 89709, Note_off_c, 1, 41, 107
1, 89713, Note_off_c, 2, 34, 97
1, 89792, Note_on_c, 1, 46, 107
1, 89856, Note_on_c, 0, 51, 127
1, 89856, Note_on_c, 0, 57, 127
1, 89856, Note_on_c, 0, 35, 127
1, 89856, Note_on_c, 1, 35, 107
1, 89856, Note_on_c, 2, 57, 97
1, 89856, Note_on_c, 2, 35, 113
1, 89856, Note_on_c, 2, 63, 98
1, 89856, Note_on_c, 4, 66, 125
1, 89856, Note_on_c, 5, 47, 127
1, 89856, Note_on_c, 9, 42, 117
1, 89856, Note_on_c, 9, 36, 127
1, 89865, Note_off_c, 9, 36, 127
1, 89865, Note_off_c, 9, 42, 117
1, 89873, Note_off_c, 1, 46, 107
1, 89895, Note_off_c, 0, 35, 127
1, 89901, Note_off_c, 5, 47, 127
1, 89919, Note_off_c, 2, 35, 113
1, 89967, Note_off_c, 1, 35, 107
1, 89984, Note_on_c, 1, 39, 107
1, 89984, Note_on_c, 5, 59, 109
1, 89997, Note_off_c, 2, 57, 97
1, 90009, Note_off_c, 5, 59, 109
1, 90043, Note_off_c, 2, 63, 98
1, 90048, Note_on_c, 0, 35, 124
1, 90048, Note_on_c, 2, 35, 110
1, 90048, Note_on_c, 9, 42, 63
1, 90057, Note_off_c, 9, 42, 63
1, 90067, Note_off_c, 1, 39, 107
1, 90083, Note_off_c, 0, 35, 124
1, 90099, Note_off_c, 2, 35, 110
1, 90176, Note_on_c, 1, 42, 107
1, 90176, Note_on_c, 2, 57, 99
1, 90176, Note_on_c, 2, 63, 101
1, 90176, Note_on_c, 5, 59, 127
1, 90215, Note_off_c, 5, 59, 127
1, 90225, Note_off_c, 2, 57, 99
1, 90240, Note_on_c, 0, 35, 118
1, 90240, Note_on_c, 2, 35, 110
1, 90240, Note_on_c, 9, 39, 122
1, 90240, Note_on_c, 9, 40, 127
1, 90240, Note_on_c, 9, 42, 126
1, 90240, Note_on_c, 9, 36, 127
1, 90240, Note_on_c, 9, 54, 106
1, 90243, Note_off_c, 2, 63, 101
1, 90249, Note_off_c, 9, 54, 106
1, 90249, Note_off_c, 9, 36, 127
1, 90249, Note_off_c, 9, 42, 126
1, 90249, Note_off_c, 9, 40, 127
1, 90249, Note_off_c, 9, 39, 122
1, 90259, Note_off_c, 1, 42, 107
1, 90263, Note_off_c, 0, 35, 118
1, 90287, Note_off_c, 2, 35, 110
1, 90355, Note_off_c, 4, 66, 125
1, 90368, Note_on_c, 1, 47, 107
1, 90368, Note_on_c, 5, 47, 119
1, 90409, Note_off_c, 5, 47, 119
1, 90432, Note_on_c, 0, 35, 127
1, 90432, Note_on_c, 2, 35, 106
1, 90432, Note_on_c, 9, 42, 64
1, 90441, Note_off_c, 9, 42, 64
1, 90449, Note_off_c, 1, 47, 107
1, 90461, Note_off_c, 0, 57, 127
1, 90469, Note_off_c, 0, 51, 127
1, 90489, Note_off_c, 0, 35, 127
1, 90497, Note_off_c, 2, 35, 106
1, 90560, Note_on_c, 1, 46, 106
1, 90560, Note_on_c, 5, 58, 114
1, 90579, Note_off_c, 5, 58, 114
1, 90624, Note_on_c, 0, 56, 127
1, 90624, Note_on_c, 0, 50, 125
1, 90624, Note_on_c, 0, 34, 127
1, 90624, Note_on_c, 2, 34, 113
1, 90624, Note_on_c, 2, 56, 100
1, 90624, Note_on_c, 2, 62, 106
1, 90624, Note_on_c, 4, 65, 125
1, 90624, Note_on_c, 5, 46, 114
1, 90624, Note_on_c, 9, 36, 127
1, 90624, Note_on_c, 9, 42, 109
1, 90633, Note_off_c, 9, 42, 109
1, 90633, Note_off_c, 9, 36, 127
1, 90653, Note_off_c, 1, 46, 106
1, 90665, Note_off_c, 5, 46, 114
1, 90683, Note_off_c, 2, 34, 113
1, 90689, Note_off_c, 0, 34, 127
1, 90752, Note_on_c, 1, 41, 106
1, 90752, Note_on_c, 5, 58, 127
1, 90781, Note_off_c, 5, 58, 127
1, 90813, Note_off_c, 2, 56, 100
1, 90816, Note_on_c, 0, 34, 127
1, 90816, Note_on_c, 2, 34, 97
1, 90816, Note_on_c, 9, 42, 67
1, 90825, Note_off_c, 9, 42, 67
1, 90829, Note_off_c, 2, 62, 106
1, 90835, Note_off_c, 1, 41, 106
1, 90867, Note_off_c, 2, 34, 97
1, 90867, Note_off_c, 0, 34, 127
1, 90944, Note_on_c, 1, 38, 106
1, 90944, Note_on_c, 2, 56, 101
1, 90944, Note_on_c, 2, 62, 104
1, 90944, Note_on_c, 5, 58, 125
1, 90965, Note_off_c, 5, 58, 125
1, 90985, Note_off_c, 2, 56, 101
1, 90997, Note_off_c, 2, 62, 104
1, 91008, Note_on_c, 0, 34, 127
1, 91008, Note_on_c, 2, 34, 107
1, 91008, Note_on_c, 9, 39, 126
1, 91008, Note_on_c, 9, 40, 127
1, 91008, Note_on_c, 9, 42, 124
1, 91008, Note_on_c, 9, 36, 127
1, 91008, Note_on_c, 9, 54, 108
1, 91011, Note_off_c, 1, 38, 106
1, 91017, Note_off_c, 9, 54, 108
1, 91017, Note_off_c, 9, 36, 127
1, 91017, Note_off_c, 9, 42, 124
1, 91017, Note_off_c, 9, 40, 127
1, 91017, Note_off_c, 9, 39, 126
1, 91063, Note_off_c, 0, 34, 127
1, 91075, Note_off_c, 2, 34, 107
1, 91103, Note_off_c, 4, 65, 125
1, 91136, Note_on_c, 1, 34, 106
1, 91136, Note_on_c, 5, 46, 123
1, 91175, Note_off_c, 5, 46, 123
1, 91200, Note_on_c, 0, 34, 127
1, 91200, Note_on_c, 2, 34, 98
1, 91200, Note_on_c, 9, 42, 73
1, 91209, Note_off_c, 9, 42, 73
1, 91245, Note_off_c, 2, 34, 98
1, 91247, Note_off_c, 1, 34, 106
1, 91247, Note_off_c, 0, 56, 127
1, 91255, Note_off_c, 0, 34, 127
1, 91273, Note_off_c, 0, 50, 125
1, 91328, Note_on_c, 1, 33, 106
1, 91328, Note_on_c, 2, 61, 87
1, 91328, Note_on_c, 2, 55, 92
1, 91328, Note_on_c, 5, 57, 112
1, 91347, Note_off_c, 5, 57, 112
1, 91392, Note_on_c, 0, 55, 127
1, 91392, Note_on_c, 0, 49, 127
1, 91392, Note_on_c, 0, 33, 127
1, 91392, Note_on_c, 2, 33, 104
1, 91392, Note_on_c, 4, 64, 125
1, 91392, Note_on_c, 5, 45, 117
1, 91392, Note_on_c, 9, 36, 127
1, 91392, Note_on_c, 9, 42, 107
1, 91401, Note_off_c, 9, 42, 107
1, 91401, Note_off_c, 9, 36, 127
1, 91433, Note_off_c, 5, 45, 117
1, 91437, Note_off_c, 0, 33, 127
1, 91479, Note_off_c, 2, 33, 104
1, 91481, Note_off_c, 1, 33, 106
1, 91520, Note_on_c, 1, 37, 106
1, 91520, Note_on_c, 5, 57, 119
1, 91551, Note_off_c, 5, 57, 119
1, 91584, Note_on_c, 0, 33, 121
1, 91584, Note_on_c, 2, 33, 106
1, 91584, Note_on_c, 9, 42, 78
1, 91584, Note_on_c, 9, 36, 127
1, 91593, Note_off_c, 9, 36, 127
1, 91593, Note_off_c, 9, 42, 78
1, 91593, Note_off_c, 1, 37, 106
1, 91633, Note_off_c, 2, 61, 87
1, 91643, Note_off_c, 0, 33, 121
1, 91645, Note_off_c, 2, 55, 92
1, 91647, Note_off_c, 2, 33, 106
1, 91712, Note_on_c, 1, 40, 106
1, 91712, Note_on_c, 2, 55, 99
1, 91712, Note_on_c, 2, 61, 103
1, 91712, Note_on_c, 5, 57, 127
1, 91739, Note_off_c, 5, 57, 127
1, 91767, Note_off_c, 2, 55, 99
1, 91771, Note_off_c, 2, 61, 103
1, 91776, Note_on_c, 0, 33, 125
1, 91776, Note_on_c, 2, 33, 104
1, 91776, Note_on_c, 9, 39, 127
1, 91776, Note_on_c, 9, 40, 127
1, 91776, Note_on_c, 9, 42, 127
1, 91776, Note_on_c, 9, 36, 127
1, 91776, Note_on_c, 9, 54, 112
1, 91785, Note_off_c, 9, 54, 112
1, 91785, Note_off_c, 9, 36, 127
1, 91785, Note_off_c, 9, 42, 127
1, 91785, Note_off_c, 9, 40, 127
1, 91785, Note_off_c, 9, 39, 127
1, 91799, Note_off_c, 1, 40, 106
1, 91833, Note_off_c, 4, 64, 125
1, 91837, Note_off_c, 0, 33, 125
1, 91843, Note_off_c, 2, 33, 104
1, 91904, Note_on_c, 1, 45, 106
1, 91904, Note_on_c, 5, 45, 118
1, 91941, Note_off_c, 5, 45, 118
1, 91968, Note_on_c, 0, 33, 114
1, 91968, Note_on_c, 2, 33, 104
1, 91968, Note_on_c, 9, 42, 71
1, 91968, Note_on_c, 9, 36, 127
1, 91977, Note_off_c, 9, 36, 127
1, 91977, Note_off_c, 9, 42, 71
1, 91987, Note_off_c, 0, 49, 127
1, 91991, Note_off_c, 0, 55, 127
1, 91999, Note_off_c, 0, 33, 114
1, 91999, Note_off_c, 1, 45, 106
1, 92033, Note_off_c, 2, 33, 104
1, 92096, Note_on_c, 1, 44, 106
1, 92096, Note_on_c, 5, 56, 93
1, 92115, Note_off_c, 5, 56, 93
1, 92151, Note_off_c, 1, 44, 106
1, 92160, Note_on_c, 0, 32, 127
1, 92160, Note_on_c, 0, 54, 127
1, 92160, Note_on_c, 0, 48, 127
1, 92160, Note_on_c, 1, 32, 106
1, 92160, Note_on_c, 2, 32, 113
1, 92160, Note_on_c, 4, 63, 125
1, 92160, Note_on_c, 4, 75, 125
1, 92160, Note_on_c, 5, 44, 121
1, 92160, Note_on_c, 9, 36, 123
1, 92160, Note_on_c, 9, 49, 91
1, 92169, Note_off_c, 9, 49, 91
1, 92169, Note_off_c, 9, 36, 123
1, 92193, Note_off_c, 5, 44, 121
1, 92247, Note_off_c, 1, 32, 106
1, 92251, Note_off_c, 0, 32, 127
1, 92288, Note_on_c, 1, 44, 106
1, 92288, Note_on_c, 5, 56, 127
1, 92311, Note_off_c, 5, 56, 127
1, 92327, Note_off_c, 1, 44, 106
1, 92345, Note_off_c, 2, 32, 113
1, 92352, Note_on_c, 0, 32, 120
1, 92352, Note_on_c, 1, 32, 106
1, 92352, Note_on_c, 2, 60, 74
1, 92352, Note_on_c, 2, 54, 72
1, 92352, Note_on_c, 5, 48, 127
1, 92352, Note_on_c, 9, 46, 92
1, 92352, Note_on_c, 9, 40, 104
1, 92361, Note_off_c, 9, 40, 104
1, 92361, Note_off_c, 9, 46, 92
1, 92369, Note_off_c, 2, 60, 74
1, 92393, Note_off_c, 5, 48, 127
1, 92401, Note_off_c, 2, 54, 72
1, 92419, Note_off_c, 0, 32, 120
1, 92459, Note_off_c, 1, 32, 106
1, 92480, Note_on_c, 9, 36, 114
1, 92489, Note_off_c, 9, 36, 114
1, 92544, Note_on_c, 0, 32, 113
1, 92544, Note_on_c, 1, 36, 105
1, 92544, Note_on_c, 2, 32, 100
1, 92544, Note_on_c, 5, 49, 127
1, 92544, Note_on_c, 9, 46, 83
1, 92544, Note_on_c, 9, 54, 110
1, 92553, Note_off_c, 9, 54, 110
1, 92553, Note_off_c, 9, 46, 83
1, 92577, Note_off_c, 5, 49, 127
1, 92583, Note_off_c, 2, 32, 100
1, 92589, Note_off_c, 0, 32, 113
1, 92603, Note_off_c, 0, 48, 127
1, 92633, Note_off_c, 0, 54, 127
1, 92643, Note_off_c, 1, 36, 105
1, 92672, Note_on_c, 0, 54, 127
1, 92672, Note_on_c, 2, 54, 92
1, 92672, Note_on_c, 2, 60, 100
1, 92693, Note_off_c, 2, 54, 92
1, 92709, Note_off_c, 2, 60, 100
1, 92736, Note_on_c, 0, 48, 127
1, 92736, Note_on_c, 0, 32, 124
1, 92736, Note_on_c, 1, 36, 105
1, 92736, Note_on_c, 5, 50, 127
1, 92736, Note_on_c, 9, 46, 80
1, 92736, Note_on_c, 9, 36, 127
1, 92745, Note_off_c, 9, 36, 127
1, 92745, Note_off_c, 9, 46, 80
1, 92745, Note_off_c, 0, 54, 127
1, 92775, Note_off_c, 5, 50, 127
1, 92791, Note_off_c, 0, 48, 127
1, 92793, Note_off_c, 0, 32, 124
1, 92833, Note_off_c, 1, 36, 105
1, 92864, Note_on_c, 2, 32, 84
1, 92893, Note_off_c, 2, 32, 84
1, 92928, Note_on_c, 0, 54, 127
1, 92928, Note_on_c, 0, 48, 122
1, 92928, Note_on_c, 0, 32, 127
1, 92928, Note_on_c, 1, 37, 105
1, 92928, Note_on_c, 2, 54, 100
1, 92928, Note_on_c, 2, 60, 101
1, 92928, Note_on_c, 5, 51, 127
1, 92928, Note_on_c, 9, 46, 101
1, 92928, Note_on_c, 9, 40, 111
1, 92937, Note_off_c, 9, 40, 111
1, 92937, Note_off_c, 9, 46, 101
1, 92965, Note_off_c, 5, 51, 127
1, 92973, Note_off_c, 0, 32, 127
1, 93021, Note_off_c, 1, 37, 105
1, 93056, Note_on_c, 1, 32, 105
1, 93079, Note_off_c, 2, 54, 100
1, 93093, Note_off_c, 2, 60, 101
1, 93103, Note_off_c, 1, 32, 105
1, 93111, Note_off_c, 0, 48, 122
1, 93120, Note_on_c, 0, 32, 112
1, 93120, Note_on_c, 1, 37, 105
1, 93120, Note_on_c, 2, 32, 98
1, 93120, Note_on_c, 5, 54, 127
1, 93120, Note_on_c, 9, 46, 107
1, 93129, Note_off_c, 9, 46, 107
1, 93135, Note_off_c, 0, 54, 127
1, 93155, Note_off_c, 2, 32, 98
1, 93159, Note_off_c, 0, 32, 112
1, 93171, Note_off_c, 5, 54, 127
1, 93213, Note_off_c, 1, 37, 105
1, 93248, Note_on_c, 0, 54, 127
1, 93248, Note_on_c, 0, 48, 119
1, 93248, Note_on_c, 2, 54, 93
1, 93248, Note_on_c, 2, 60, 107
1, 93248, Note_on_c, 9, 36, 116
1, 93257, Note_off_c, 9, 36, 116
1, 93277, Note_off_c, 2, 54, 93
1, 93279, Note_off_c, 0, 48, 119
1, 93291, Note_off_c, 2, 60, 107
1, 93301, Note_off_c, 0, 54, 127
1, 93312, Note_on_c, 0, 32, 125
1, 93312, Note_on_c, 1, 38, 105
1, 93312, Note_on_c, 5, 56, 118
1, 93312, Note_on_c, 9, 40, 126
1, 93312, Note_on_c, 9, 54, 110
1, 93321, Note_off_c, 9, 54, 110
1, 93321, Note_off_c, 9, 40, 126
1, 93357, Note_off_c, 0, 32, 125
1, 93363, Note_off_c, 5, 56, 118
1, 93415, Note_off_c, 1, 38, 105
1, 93440, Note_on_c, 2, 54, 93
1, 93440, Note_on_c, 2, 60, 103
1, 93440, Note_on_c, 9, 45, 112
1, 93449, Note_off_c, 9, 45, 112
1, 93465, Note_off_c, 2, 54, 93
1, 93483, Note_off_c, 2, 60, 103
1, 93504, Note_on_c, 0, 32, 114
1, 93504, Note_on_c, 1, 39, 105
1, 93504, Note_on_c, 5, 57, 127
1, 93504, Note_on_c, 9, 41, 99
1, 93513, Note_off_c, 9, 41, 99
1, 93555, Note_off_c, 0, 32, 114
1, 93561, Note_off_c, 5, 57, 127
1, 93597, Note_off_c, 1, 39, 105
1, 93613, Note_off_c, 4, 75, 125
1, 93632, Note_on_c, 9, 36, 125
1, 93641, Note_off_c, 9, 36, 125
1, 93653, Note_off_c, 4, 63, 125
1, 93696, Note_on_c, 0, 34, 127
1, 93696, Note_on_c, 0, 70, 127
1, 93696, Note_on_c, 0, 58, 127
1, 93696, Note_on_c, 1, 34, 105
1, 93696, Note_on_c, 2, 62, 113
1, 93696, Note_on_c, 2, 66, 108
1, 93696, Note_on_c, 4, 78, 125
1, 93696, Note_on_c, 4, 82, 125
1, 93696, Note_on_c, 5, 58, 127
1, 93696, Note_on_c, 9, 49, 118
1, 93696, Note_on_c, 9, 40, 127
1, 93705, Note_off_c, 9, 40, 127
1, 93705, Note_off_c, 9, 49, 118
1, 93747, Note_off_c, 5, 58, 127
1, 93760, Note_on_c, 4, 66, 125
1, 93845, Note_off_c, 1, 34, 105
1, 93853, Note_off_c, 2, 62, 113
1, 93861, Note_off_c, 0, 58, 127
1, 93867, Note_off_c, 2, 66, 108
1, 93881, Note_off_c, 0, 70, 127
1, 93885, Note_off_c, 0, 34, 127
1, 93913, Note_off_c, 4, 82, 125
1, 93929, Note_off_c, 4, 78, 125
1, 93971, Note_off_c, 4, 66, 125
1, 94080, Note_on_c, 9, 54, 106
1, 94089, Note_off_c, 9, 54, 106
1, 94272, Note_on_c, 9, 40, 127
1, 94281, Note_off_c, 9, 40, 127
1, 94592, Note_on_c, 9, 40, 111
1, 94601, Note_off_c, 9, 40, 111
1, 94656, Note_on_c, 9, 45, 127
1, 94665, Note_off_c, 9, 45, 127
1, 94848, Note_on_c, 9, 45, 127
1, 94848, Note_on_c, 9, 54, 106
1, 94857, Note_off_c, 9, 54, 106
1, 94857, Note_off_c, 9, 45, 127
1, 94976, Note_on_c, 1, 34, 104
1, 94976, Note_on_c, 2, 37, 88
1, 94976, Note_on_c, 9, 41, 94
1, 94985, Note_off_c, 9, 41, 94
1, 95001, Note_off_c, 2, 37, 88
1, 95005, Note_off_c, 1, 34, 104
1, 95040, Note_on_c, 1, 37, 104
1, 95040, Note_on_c, 2, 49, 112
1, 95105, Note_off_c, 2, 49, 112
1, 95109, Note_off_c, 1, 37, 104
1, 95168, Note_on_c, 1, 39, 104
1, 95168, Note_on_c, 2, 51, 101
1, 95168, Note_on_c, 9, 36, 116
1, 95177, Note_off_c, 9, 36, 116
1, 95209, Note_off_c, 2, 51, 101
1, 95211, Note_off_c, 1, 39, 104
1, 95232, Note_on_c, 0, 27, 122
1, 95232, Note_on_c, 1, 27, 105
1, 95232, Note_on_c, 2, 39, 127
1, 95232, Note_on_c, 9, 36, 127
1, 95232, Note_on_c, 9, 49, 84
1, 95232, Note_on_c, 9, 54, 89
1, 95241, Note_off_c, 9, 54, 89
1, 95241, Note_off_c, 9, 49, 84
1, 95241, Note_off_c, 9, 36, 127
1, 95373, Note_off_c, 2, 39, 127
1, 95383, Note_off_c, 1, 27, 105
1, 95405, Note_off_c, 0, 27, 122
1, 95424, Note_on_c, 0, 39, 114
1, 95424, Note_on_c, 1, 39, 98
1, 95424, Note_on_c, 2, 51, 115
1, 95424, Note_on_c, 4, 63, 116
1, 95424, Note_on_c, 4, 75, 116
1, 95424, Note_on_c, 5, 51, 126
1, 95424, Note_on_c, 9, 42, 77
1, 95424, Note_on_c, 9, 54, 53
1, 95433, Note_off_c, 9, 54, 53
1, 95433, Note_off_c, 9, 42, 77
1, 95467, Note_off_c, 5, 51, 126
1, 95467, Note_off_c, 0, 39, 114
1, 95475, Note_off_c, 2, 51, 115
1, 95489, Note_off_c, 1, 39, 98
1, 95517, Note_off_c, 4, 75, 116
1, 95517, Note_off_c, 4, 63, 116
1, 95552, Note_on_c, 1, 27, 61
1, 95567, Pitch_bend_c, 3, 4544
1, 95585, Note_off_c, 1, 27, 61
1, 95589, Pitch_bend_c, 3, 448
1, 95601, Pitch_bend_c, 3, 0
1, 95616, Note_on_c, 0, 54, 114
1, 95616, Note_on_c, 0, 49, 100
1, 95616, Note_on_c, 1, 37, 92
1, 95616, Note_on_c, 2, 49, 106
1, 95616, Note_on_c, 3, 63, 127
1, 95616, Note_on_c, 9, 39, 126
1, 95616, Note_on_c, 9, 40, 127
1, 95616, Note_on_c, 9, 42, 122
1, 95616, Note_on_c, 9, 36, 127
1, 95616, Note_on_c, 9, 54, 112
1, 95625, Note_off_c, 9, 54, 112
1, 95625, Note_off_c, 9, 36, 127
1, 95625, Note_off_c, 9, 42, 122
1, 95625, Note_off_c, 9, 40, 127
1, 95625, Note_off_c, 9, 39, 126
1, 95631, Note_off_c, 0, 49, 100
1, 95635, Pitch_bend_c, 3, 4800
1, 95643, Note_off_c, 0, 54, 114
1, 95655, Pitch_bend_c, 3, 8000
1, 95669, Pitch_bend_c, 3, 8192
1, 95715, Note_off_c, 1, 37, 92
1, 95729, Note_off_c, 2, 49, 106
1, 95744, Note_on_c, 1, 39, 90
1, 95744, Note_on_c, 2, 51, 88
1, 95744, Note_on_c, 4, 63, 116
1, 95744, Note_on_c, 4, 75, 116
1, 95777, Control_c, 3, 1, 3
1, 95783, Note_off_c, 2, 51, 88
1, 95791, Control_c, 3, 1, 11
1, 95793, Note_off_c, 1, 39, 90
1, 95808, Note_on_c, 0, 39, 117
1, 95808, Note_on_c, 1, 27, 97
1, 95808, Note_on_c, 2, 39, 111
1, 95808, Note_on_c, 5, 51, 118
1, 95808, Note_on_c, 9, 42, 62
1, 95808, Note_on_c, 9, 54, 61
1, 95811, Control_c, 3, 1, 19
1, 95817, Note_off_c, 9, 54, 61
1, 95817, Note_off_c, 9, 42, 62
1, 95831, Control_c, 3, 1, 33
1, 95833, Note_off_c, 2, 39, 111
1, 95837, Note_off_c, 4, 75, 116
1, 95837, Note_off_c, 4, 63, 116
1, 95851, Note_off_c, 5, 51, 118
1, 95851, Control_c, 3, 1, 48
1, 95879, Note_off_c, 0, 39, 117
1, 95883, Control_c, 3, 1, 54
1, 95899, Control_c, 3, 1, 63
1, 95919, Control_c, 3, 1, 70
1, 95939, Control_c, 3, 1, 74
1, 95947, Note_off_c, 1, 27, 97
1, 95955, Control_c, 3, 1, 77
1, 95971, Control_c, 3, 1, 79
1, 96000, Note_on_c, 0, 54, 127
1, 96000, Note_on_c, 0, 49, 125
1, 96000, Note_on_c, 1, 30, 104
1, 96000, Note_on_c, 2, 54, 112
1, 96000, Note_on_c, 2, 49, 107
1, 96000, Note_on_c, 4, 54, 116
1, 96000, Note_on_c, 4, 66, 116
1, 96000, Note_on_c, 5, 51, 127
1, 96000, Note_on_c, 9, 42, 117
1, 96000, Note_on_c, 9, 36, 127
1, 96000, Note_on_c, 9, 54, 104
1, 96009, Note_off_c, 9, 54, 104
1, 96009, Note_off_c, 9, 36, 127
1, 96009, Note_off_c, 9, 42, 117
1, 96023, Note_off_c, 2, 54, 112
1, 96039, Note_off_c, 2, 49, 107
1, 96047, Note_off_c, 5, 51, 127
1, 96049, Control_c, 3, 1, 76
1, 96083, Note_off_c, 1, 30, 104
1, 96093, Note_off_c, 4, 66, 116
1, 96093, Note_off_c, 4, 54, 116
1, 96093, Control_c, 3, 1, 43
1, 96121, Control_c, 3, 1, 0
1, 96128, Note_on_c, 1, 32, 74
1, 96128, Note_on_c, 4, 56, 116
1, 96128, Note_on_c, 4, 68, 116
1, 96153, Note_off_c, 3, 63, 127
1, 96167, Note_off_c, 0, 49, 125
1, 96184, Note_on_c, 3, 61, 108
1, 96191, Note_off_c, 0, 54, 127
1, 96192, Note_on_c, 1, 34, 93
1, 96192, Note_on_c, 2, 39, 88
1, 96192, Note_on_c, 4, 58, 116
1, 96192, Note_on_c, 4, 70, 116
1, 96192, Note_on_c, 9, 42, 63
1, 96192, Note_on_c, 9, 54, 51
1, 96193, Note_off_c, 1, 32, 74
1, 96201, Note_off_c, 9, 54, 51
1, 96201, Note_off_c, 9, 42, 63
1, 96205, Note_off_c, 2, 39, 88
1, 96221, Note_off_c, 4, 68, 116
1, 96221, Note_off_c, 4, 56, 116
1, 96235, Note_off_c, 3, 61, 108
1, 96253, Note_off_c, 1, 34, 93
1, 96256, Note_on_c, 0, 39, 109
1, 96258, Note_on_c, 3, 58, 98
1, 96279, Note_off_c, 0, 39, 109
1, 96281, Note_off_c, 3, 58, 98
1, 96285, Note_off_c, 4, 70, 116
1, 96285, Note_off_c, 4, 58, 116
1, 96320, Note_on_c, 1, 37, 98
1, 96320, Note_on_c, 2, 51, 115
1, 96320, Note_on_c, 4, 61, 116
1, 96320, Note_on_c, 4, 73, 116
1, 96355, Note_off_c, 2, 51, 115
1, 96384, Note_on_c, 0, 56, 127
1, 96384, Note_on_c, 0, 51, 121
1, 96384, Note_on_c, 5, 51, 127
1, 96384, Note_on_c, 9, 39, 122
1, 96384, Note_on_c, 9, 40, 127
1, 96384, Note_on_c, 9, 42, 126
1, 96384, Note_on_c, 9, 36, 127
1, 96384, Note_on_c, 9, 54, 106
1, 96393, Note_off_c, 9, 54, 106
1, 96393, Note_off_c, 9, 36, 127
1, 96393, Note_off_c, 9, 42, 126
1, 96393, Note_off_c, 9, 40, 127
1, 96393, Note_off_c, 9, 39, 122
1, 96441, Note_off_c, 5, 51, 127
1, 96493, Note_off_c, 0, 51, 121
1, 96495, Note_off_c, 1, 37, 98
1, 96509, Note_off_c, 4, 73, 116
1, 96509, Note_off_c, 4, 61, 116
1, 96512, Note_on_c, 1, 34, 88
1, 96512, Note_on_c, 2, 39, 94
1, 96512, Note_on_c, 4, 58, 116
1, 96512, Note_on_c, 4, 70, 116
1, 96521, Note_off_c, 0, 56, 127
1, 96523, Note_off_c, 2, 39, 94
1, 96553, Note_off_c, 4, 70, 116
1, 96553, Note_off_c, 4, 58, 116
1, 96561, Note_off_c, 1, 34, 88
1, 96576, Note_on_c, 0, 54, 116
1, 96576, Note_on_c, 0, 49, 120
1, 96576, Note_on_c, 1, 39, 100
1, 96576, Note_on_c, 2, 49, 108
1, 96576, Note_on_c, 4, 63, 116
1, 96576, Note_on_c, 4, 75, 116
1, 96576, Note_on_c, 9, 42, 64
1, 96576, Note_on_c, 9, 54, 59
1, 96585, Note_off_c, 9, 54, 59
1, 96585, Note_off_c, 9, 42, 64
1, 96635, Note_off_c, 0, 49, 120
1, 96645, Note_off_c, 0, 54, 116
1, 96657, Note_off_c, 1, 39, 100
1, 96669, Note_off_c, 4, 75, 116
1, 96669, Note_off_c, 4, 63, 116
1, 96687, Note_off_c, 2, 49, 108
1, 96704, Note_on_c, 1, 39, 97
1, 96704, Note_on_c, 2, 51, 96
1, 96704, Note_on_c, 4, 63, 116
1, 96704, Note_on_c, 4, 75, 116
1, 96704, Note_on_c, 5, 54, 127
1, 96737, Note_off_c, 2, 51, 96
1, 96755, Note_off_c, 4, 75, 116
1, 96755, Note_off_c, 4, 63, 116
1, 96768, Note_on_c, 0, 27, 121
1, 96768, Note_on_c, 1, 27, 104
1, 96768, Note_on_c, 2, 39, 127
1, 96768, Note_on_c, 9, 36, 127
1, 96768, Note_on_c, 9, 42, 109
1, 96768, Note_on_c, 9, 54, 112
1, 96777, Note_off_c, 9, 54, 112
1, 96777, Note_off_c, 9, 42, 109
1, 96777, Note_off_c, 9, 36, 127
1, 96777, Note_off_c, 1, 39, 97
1, 96829, Note_off_c, 2, 39, 127
1, 96909, Note_off_c, 0, 27, 121
1, 96931, Note_off_c, 1, 27, 104
1, 96933, Note_off_c, 5, 54, 127
1, 96960, Note_on_c, 0, 54, 127
1, 96960, Note_on_c, 0, 49, 125
1, 96960, Note_on_c, 1, 39, 104
1, 96960, Note_on_c, 2, 51, 127
1, 96960, Note_on_c, 4, 63, 116
1, 96960, Note_on_c, 4, 75, 116
1, 96960, Note_on_c, 5, 51, 126
1, 96960, Note_on_c, 9, 42, 67
1, 96960, Note_on_c, 9, 54, 66
1, 96969, Note_off_c, 9, 54, 66
1, 96969, Note_off_c, 9, 42, 67
1, 96977, Note_off_c, 0, 49, 125
1, 96985, Note_off_c, 5, 51, 126
1, 96991, Note_off_c, 0, 54, 127
1, 97005, Note_off_c, 2, 51, 127
1, 97009, Note_off_c, 4, 75, 116
1, 97009, Note_off_c, 4, 63, 116
1, 97019, Note_off_c, 1, 39, 104
1, 97088, Note_on_c, 1, 27, 79
1, 97123, Note_off_c, 1, 27, 79
1, 97152, Note_on_c, 0, 39, 107
1, 97152, Note_on_c, 1, 37, 96
1, 97152, Note_on_c, 2, 49, 115
1, 97152, Note_on_c, 4, 61, 115
1, 97152, Note_on_c, 4, 73, 115
1, 97152, Note_on_c, 5, 51, 127
1, 97152, Note_on_c, 9, 39, 126
1, 97152, Note_on_c, 9, 40, 127
1, 97152, Note_on_c, 9, 42, 124
1, 97152, Note_on_c, 9, 36, 127
1, 97152, Note_on_c, 9, 54, 110
1, 97161, Note_off_c, 9, 54, 110
1, 97161, Note_off_c, 9, 36, 127
1, 97161, Note_off_c, 9, 42, 124
1, 97161, Note_off_c, 9, 40, 127
1, 97161, Note_off_c, 9, 39, 126
1, 97179, Note_off_c, 5, 51, 127
1, 97197, Note_off_c, 0, 39, 107
1, 97245, Note_off_c, 4, 73, 115
1, 97245, Note_off_c, 4, 61, 115
1, 97273, Note_off_c, 2, 49, 115
1, 97280, Note_on_c, 0, 54, 118
1, 97280, Note_on_c, 0, 49, 112
1, 97280, Note_on_c, 1, 39, 98
1, 97280, Note_on_c, 2, 51, 94
1, 97280, Note_on_c, 4, 63, 115
1, 97280, Note_on_c, 4, 75, 115
1, 97283, Note_off_c, 1, 37, 96
1, 97295, Note_off_c, 0, 49, 112
1, 97311, Note_off_c, 0, 54, 118
1, 97321, Note_off_c, 2, 51, 94
1, 97327, Note_off_c, 4, 75, 115
1, 97327, Note_off_c, 4, 63, 115
1, 97344, Note_on_c, 0, 27, 125
1, 97344, Note_on_c, 2, 39, 108
1, 97344, Note_on_c, 5, 49, 113
1, 97344, Note_on_c, 9, 42, 73
1, 97344, Note_on_c, 9, 54, 52
1, 97353, Note_off_c, 9, 54, 52
1, 97353, Note_off_c, 9, 42, 73
1, 97353, Note_off_c, 1, 39, 98
1, 97367, Note_off_c, 5, 49, 113
1, 97383, Note_off_c, 2, 39, 108
1, 97401, Note_off_c, 0, 27, 125
1, 97468, Note_on_c, 9, 54, 65
1, 97472, Note_on_c, 1, 37, 77
1, 97477, Note_off_c, 9, 54, 65
1, 97509, Note_off_c, 1, 37, 77
1, 97536, Note_on_c, 0, 58, 127
1, 97536, Note_on_c, 0, 57, 123
1, 97536, Note_on_c, 0, 56, 117
1, 97536, Note_on_c, 0, 61, 118
1, 97536, Note_on_c, 1, 44, 105
1, 97536, Note_on_c, 2, 46, 117
1, 97536, Note_on_c, 2, 45, 120
1, 97536, Note_on_c, 4, 70, 115
1, 97536, Note_on_c, 4, 82, 115
1, 97536, Note_on_c, 5, 51, 125
1, 97536, Note_on_c, 9, 36, 127
1, 97536, Note_on_c, 9, 42, 107
1, 97536, Note_on_c, 9, 54, 112
1, 97545, Note_off_c, 9, 54, 112
1, 97545, Note_off_c, 9, 42, 107
1, 97545, Note_off_c, 9, 36, 127
1, 97557, Pitch_bend_c, 1, 9728
1, 97561, Note_off_c, 5, 51, 125
1, 97565, Note_off_c, 0, 56, 117
1, 97567, Pitch_bend_c, 1, 16383
1, 97571, Note_off_c, 2, 45, 120
1, 97579, Note_off_c, 0, 57, 123
1, 97593, Note_off_c, 4, 82, 115
1, 97593, Note_off_c, 4, 70, 115
1, 97595, Note_off_c, 0, 58, 127
1, 97629, Note_off_c, 1, 44, 105
1, 97653, Pitch_bend_c, 1, 15648
1, 97665, Pitch_bend_c, 1, 11360
1, 97683, Pitch_bend_c, 1, 9088
1, 97695, Note_off_c, 2, 46, 117
1, 97695, Pitch_bend_c, 1, 8448
1, 97701, Pitch_bend_c, 1, 8192
1, 97728, Note_on_c, 0, 57, 102
1, 97728, Note_on_c, 0, 56, 119
1, 97728, Note_on_c, 1, 42, 107
1, 97728, Note_on_c, 2, 49, 87
1, 97728, Note_on_c, 4, 68, 115
1, 97728, Note_on_c, 4, 80, 115
1, 97728, Note_on_c, 5, 49, 112
1, 97728, Note_on_c, 9, 42, 78
1, 97728, Note_on_c, 9, 36, 127
1, 97728, Note_on_c, 9, 54, 54
1, 97735, Note_off_c, 0, 61, 118
1, 97737, Note_off_c, 9, 54, 54
1, 97737, Note_off_c, 9, 36, 127
1, 97737, Note_off_c, 9, 42, 78
1, 97745, Note_off_c, 5, 49, 112
1, 97753, Note_off_c, 0, 57, 102
1, 97779, Note_off_c, 4, 80, 115
1, 97779, Note_off_c, 4, 68, 115
1, 97781, Note_off_c, 0, 56, 119
1, 97809, Note_off_c, 2, 49, 87
1, 97819, Note_off_c, 1, 42, 107
1, 97856, Note_on_c, 2, 45, 109
1, 97856, Note_on_c, 2, 46, 92
1, 97903, Note_off_c, 2, 46, 92
1, 97920, Note_on_c, 0, 54, 127
1, 97920, Note_on_c, 1, 42, 100
1, 97920, Note_on_c, 2, 44, 85
1, 97920, Note_on_c, 4, 66, 115
1, 97920, Note_on_c, 4, 78, 115
1, 97920, Note_on_c, 5, 51, 112
1, 97920, Note_on_c, 9, 39, 127
1, 97920, Note_on_c, 9, 40, 127
1, 97920, Note_on_c, 9, 42, 127
1, 97920, Note_on_c, 9, 36, 127
1, 97920, Note_on_c, 9, 54, 114
1, 97925, Note_off_c, 2, 45, 109
1, 97929, Note_off_c, 9, 54, 114
1, 97929, Note_off_c, 9, 36, 127
1, 97929, Note_off_c, 9, 42, 127
1, 97929, Note_off_c, 9, 40, 127
1, 97929, Note_off_c, 9, 39, 127
1, 97947, Note_off_c, 5, 51, 112
1, 97983, Note_off_c, 4, 78, 115
1, 97983, Note_off_c, 4, 66, 115
1, 97983, Note_off_c, 0, 54, 127
1, 98025, Note_off_c, 2, 44, 85
1, 98048, Note_on_c, 2, 42, 95
1, 98048, Note_on_c, 5, 49, 108
1, 98061, Note_off_c, 5, 49, 108
1, 98087, Note_off_c, 1, 42, 100
1, 98093, Note_off_c, 2, 42, 95
1, 98112, Note_on_c, 0, 56, 127
1, 98112, Note_on_c, 1, 39, 93
1, 98112, Note_on_c, 2, 44, 95
1, 98112, Note_on_c, 5, 56, 127
1, 98112, Note_on_c, 9, 42, 71
1, 98112, Note_on_c, 9, 36, 127
1, 98112, Note_on_c, 9, 54, 63
1, 98121, Note_off_c, 9, 54, 63
1, 98121, Note_off_c, 9, 36, 127
1, 98121, Note_off_c, 9, 42, 71
1, 98169, Note_off_c, 5, 56, 127
1, 98197, Note_off_c, 0, 56, 127
1, 98209, Note_off_c, 2, 44, 95
1, 98221, Note_off_c, 1, 39, 93
1, 98240, Note_on_c, 0, 54, 123
1, 98240, Note_on_c, 1, 37, 89
1, 98240, Note_on_c, 2, 42, 88
1, 98240, Note_on_c, 5, 54, 127
1, 98277, Note_off_c, 0, 54, 123
1, 98279, Note_off_c, 5, 54, 127
1, 98281, Note_off_c, 2, 42, 88
1, 98289, Note_off_c, 1, 37, 89
1, 98304, Note_on_c, 0, 27, 120
1, 98304, Note_on_c, 1, 27, 88
1, 98304, Note_on_c, 1, 29, 97
1, 98304, Note_on_c, 2, 39, 127
1, 98304, Note_on_c, 9, 36, 127
1, 98304, Note_on_c, 9, 42, 115
1, 98304, Note_on_c, 9, 54, 110
1, 98313, Note_off_c, 9, 54, 110
1, 98313, Note_off_c, 9, 42, 115
1, 98313, Note_off_c, 9, 36, 127
1, 98317, Note_off_c, 1, 29, 97
1, 98393, Note_off_c, 0, 27, 120
1, 98457, Note_off_c, 2, 39, 127
1, 98496, Note_on_c, 1, 39, 107
1, 98496, Note_on_c, 2, 51, 117
1, 98496, Note_on_c, 4, 63, 115
1, 98496, Note_on_c, 4, 75, 115
1, 98496, Note_on_c, 5, 51, 126
1, 98496, Note_on_c, 9, 42, 57
1, 98496, Note_on_c, 9, 54, 54
1, 98503, Note_off_c, 1, 27, 88
1, 98505, Note_off_c, 9, 54, 54
1, 98505, Note_off_c, 9, 42, 57
1, 98539, Note_off_c, 5, 51, 126
1, 98547, Note_off_c, 2, 51, 117
1, 98569, Note_off_c, 1, 39, 107
1, 98589, Note_off_c, 4, 75, 115
1, 98589, Note_off_c, 4, 63, 115
1, 98624, Note_on_c, 1, 27, 69
1, 98624, Note_on_c, 2, 39, 75
1, 98635, Note_off_c, 2, 39, 75
1, 98643, Note_off_c, 1, 27, 69
1, 98688, Note_on_c, 0, 54, 127
1, 98688, Note_on_c, 0, 49, 124
1, 98688, Note_on_c, 1, 37, 101
1, 98688, Note_on_c, 2, 49, 112
1, 98688, Note_on_c, 9, 39, 124
1, 98688, Note_on_c, 9, 40, 127
1, 98688, Note_on_c, 9, 42, 126
1, 98688, Note_on_c, 9, 36, 127
1, 98688, Note_on_c, 9, 54, 112
1, 98697, Note_off_c, 9, 54, 112
1, 98697, Note_off_c, 9, 36, 127
1, 98697, Note_off_c, 9, 42, 126
1, 98697, Note_off_c, 9, 40, 127
1, 98697, Note_off_c, 9, 39, 124
1, 98725, Note_off_c, 0, 49, 124
1, 98737, Note_off_c, 0, 54, 127
1, 98767, Note_off_c, 2, 49, 112
1, 98791, Note_off_c, 1, 37, 101
1, 98816, Note_on_c, 1, 39, 90
1, 98816, Note_on_c, 2, 51, 92
1, 98816, Note_on_c, 4, 63, 115
1, 98816, Note_on_c, 4, 75, 115
1, 98847, Note_off_c, 2, 51, 92
1, 98859, Note_off_c, 1, 39, 90
1, 98880, Note_on_c, 0, 39, 103
1, 98880, Note_on_c, 1, 27, 98
1, 98880, Note_on_c, 2, 39, 127
1, 98880, Note_on_c, 5, 51, 118
1, 98880, Note_on_c, 9, 42, 66
1, 98880, Note_on_c, 9, 54, 46
1, 98889, Note_off_c, 9, 54, 46
1, 98889, Note_off_c, 9, 42, 66
1, 98907, Note_off_c, 0, 39, 103
1, 98909, Note_off_c, 4, 75, 115
1, 98909, Note_off_c, 4, 63, 115
1, 98915, Note_off_c, 2, 39, 127
1, 98923, Note_off_c, 5, 51, 118
1, 99013, Note_off_c, 1, 27, 98
1, 99072, Note_on_c, 0, 56, 126
1, 99072, Note_on_c, 0, 51, 127
1, 99072, Note_on_c, 1, 30, 118
1, 99072, Note_on_c, 2, 54, 108
1, 99072, Note_on_c, 2, 49, 108
1, 99072, Note_on_c, 4, 54, 115
1, 99072, Note_on_c, 4, 66, 115
1, 99072, Note_on_c, 5, 51, 127
1, 99072, Note_on_c, 9, 36, 127
1, 99072, Note_on_c, 9, 42, 110
1, 99072, Note_on_c, 9, 54, 117
1, 99081, Note_off_c, 9, 54, 117
1, 99081, Note_off_c, 9, 42, 110
1, 99081, Note_off_c, 9, 36, 127
1, 99101, Note_off_c, 2, 54, 108
1, 99119, Note_off_c, 5, 51, 127
1, 99119, Note_off_c, 2, 49, 108
1, 99159, Note_off_c, 1, 30, 118
1, 99165, Note_off_c, 4, 66, 115
1, 99165, Note_off_c, 4, 54, 115
1, 99196, Note_on_c, 9, 54, 70
1, 99200, Note_on_c, 1, 32, 79
1, 99200, Note_on_c, 4, 56, 115
1, 99200, Note_on_c, 4, 68, 115
1, 99205, Note_off_c, 9, 54, 70
1, 99229, Note_off_c, 0, 51, 127
1, 99253, Note_off_c, 0, 56, 126
1, 99259, Note_off_c, 1, 32, 79
1, 99264, Note_on_c, 0, 39, 114
1, 99264, Note_on_c, 1, 34, 93
1, 99264, Note_on_c, 4, 58, 115
1, 99264, Note_on_c, 4, 70, 115
1, 99264, Note_on_c, 9, 42, 76
1, 99264, Note_on_c, 9, 54, 62
1, 99273, Note_off_c, 9, 54, 62
1, 99273, Note_off_c, 9, 42, 76
1, 99293, Note_off_c, 4, 68, 115
1, 99293, Note_off_c, 4, 56, 115
1, 99307, Note_off_c, 0, 39, 114
1, 99337, Note_off_c, 1, 34, 93
1, 99357, Note_off_c, 4, 70, 115
1, 99357, Note_off_c, 4, 58, 115
1, 99392, Note_on_c, 0, 54, 127
1, 99392, Note_on_c, 0, 49, 118
1, 99392, Note_on_c, 1, 37, 102
1, 99392, Note_on_c, 2, 54, 108
1, 99392, Note_on_c, 2, 49, 110
1, 99392, Note_on_c, 4, 61, 115
1, 99392, Note_on_c, 4, 73, 115
1, 99392, Note_on_c, 9, 46, 91
1, 99401, Note_off_c, 9, 46, 91
1, 99423, Note_off_c, 0, 49, 118
1, 99431, Note_off_c, 0, 54, 127
1, 99435, Note_off_c, 2, 54, 108
1, 99439, Note_off_c, 2, 49, 110
1, 99456, Note_on_c, 5, 51, 127
1, 99456, Note_on_c, 9, 39, 127
1, 99456, Note_on_c, 9, 40, 127
1, 99456, Note_on_c, 9, 42, 105
1, 99456, Note_on_c, 9, 36, 127
1, 99456, Note_on_c, 9, 54, 114
1, 99465, Note_off_c, 9, 54, 114
1, 99465, Note_off_c, 9, 36, 127
1, 99465, Note_off_c, 9, 42, 105
1, 99465, Note_off_c, 9, 40, 127
1, 99465, Note_off_c, 9, 39, 127
1, 99513, Note_off_c, 5, 51, 127
1, 99557, Note_off_c, 1, 37, 102
1, 99581, Note_off_c, 4, 73, 115
1, 99581, Note_off_c, 4, 61, 115
1, 99584, Note_on_c, 0, 39, 111
1, 99584, Note_on_c, 1, 34, 87
1, 99584, Note_on_c, 4, 58, 115
1, 99584, Note_on_c, 4, 70, 115
1, 99625, Note_off_c, 4, 70, 115
1, 99625, Note_off_c, 4, 58, 115
1, 99625, Note_off_c, 0, 39, 111
1, 99635, Note_off_c, 1, 34, 87
1, 99648, Note_on_c, 0, 49, 115
1, 99648, Note_on_c, 1, 39, 101
1, 99648, Note_on_c, 2, 54, 112
1, 99648, Note_on_c, 2, 49, 112
1, 99648, Note_on_c, 4, 63, 115
1, 99648, Note_on_c, 4, 75, 115
1, 99648, Note_on_c, 9, 42, 87
1, 99648, Note_on_c, 9, 54, 70
1, 99657, Note_off_c, 9, 54, 70
1, 99657, Note_off_c, 9, 42, 87
1, 99733, Note_off_c, 1, 39, 101
1, 99737, Note_off_c, 0, 49, 115
1, 99741, Note_off_c, 4, 75, 115
1, 99741, Note_off_c, 4, 63, 115
1, 99772, Note_on_c, 9, 54, 71
1, 99776, Note_on_c, 0, 51, 118
1, 99776, Note_on_c, 1, 39, 87
1, 99776, Note_on_c, 4, 63, 115
1, 99776, Note_on_c, 4, 75, 115
1, 99776, Note_on_c, 5, 54, 127
1, 99781, Note_off_c, 9, 54, 71
1, 99813, Note_off_c, 0, 51, 118
1, 99827, Note_off_c, 4, 75, 115
1, 99827, Note_off_c, 4, 63, 115
1, 99827, Note_off_c, 2, 54, 112
1, 99840, Note_on_c, 0, 27, 121
1, 99840, Note_on_c, 1, 27, 107
1, 99840, Note_on_c, 2, 39, 111
1, 99840, Note_on_c, 9, 42, 84
1, 99840, Note_on_c, 9, 36, 127
1, 99840, Note_on_c, 9, 54, 114
1, 99849, Note_off_c, 9, 54, 114
1, 99849, Note_off_c, 9, 36, 127
1, 99849, Note_off_c, 9, 42, 84
1, 99849, Note_off_c, 2, 49, 112
1, 99861, Note_off_c, 1, 39, 87
1, 99957, Note_off_c, 2, 39, 111
1, 99973, Note_off_c, 0, 27, 121
1, 100005, Note_off_c, 5, 54, 127
1, 100015, Note_off_c, 1, 27, 107
1, 100032, Note_on_c, 0, 51, 127
1, 100032, Note_on_c, 1, 39, 107
1, 100032, Note_on_c, 2, 51, 114
1, 100032, Note_on_c, 4, 63, 115
1, 100032, Note_on_c, 4, 75, 115
1, 100032, Note_on_c, 5, 51, 126
1, 100032, Note_on_c, 9, 42, 78
1, 100032, Note_on_c, 9, 54, 56
1, 100041, Note_off_c, 9, 54, 56
1, 100041, Note_off_c, 9, 42, 78
1, 100057, Note_off_c, 5, 51, 126
1, 100075, Note_off_c, 0, 51, 127
1, 100081, Note_off_c, 4, 75, 115
1, 100081, Note_off_c, 4, 63, 115
1, 100085, Note_off_c, 2, 51, 114
1, 100101, Note_off_c, 1, 39, 107
1, 100160, Note_on_c, 1, 27, 72
1, 100197, Note_off_c, 1, 27, 72
1, 100224, Note_on_c, 0, 49, 121
1, 100224, Note_on_c, 1, 37, 102
1, 100224, Note_on_c, 2, 49, 121
1, 100224, Note_on_c, 4, 61, 115
1, 100224, Note_on_c, 4, 73, 115
1, 100224, Note_on_c, 5, 51, 127
1, 100224, Note_on_c, 9, 39, 127
1, 100224, Note_on_c, 9, 42, 120
1, 100224, Note_on_c, 9, 40, 126
1, 100224, Note_on_c, 9, 36, 127
1, 100224, Note_on_c, 9, 54, 112
1, 100233, Note_off_c, 9, 54, 112
1, 100233, Note_off_c, 9, 36, 127
1, 100233, Note_off_c, 9, 40, 126
1, 100233, Note_off_c, 9, 42, 120
1, 100233, Note_off_c, 9, 39, 127
1, 100251, Note_off_c, 5, 51, 127
1, 100267, Note_off_c, 0, 49, 121
1, 100317, Note_off_c, 4, 73, 115
1, 100317, Note_off_c, 4, 61, 115
1, 100333, Note_off_c, 1, 37, 102
1, 100352, Note_on_c, 1, 39, 101
1, 100352, Note_on_c, 4, 63, 115
1, 100352, Note_on_c, 4, 75, 115
1, 100361, Note_off_c, 2, 49, 121
1, 100399, Note_off_c, 4, 75, 115
1, 100399, Note_off_c, 4, 63, 115
1, 100409, Note_off_c, 1, 39, 101
1, 100416, Note_on_c, 0, 51, 127
1, 100416, Note_on_c, 2, 51, 110
1, 100416, Note_on_c, 5, 49, 113
1, 100416, Note_on_c, 9, 42, 70
1, 100416, Note_on_c, 9, 36, 127
1, 100416, Note_on_c, 9, 54, 57
1, 100425, Note_off_c, 9, 54, 57
1, 100425, Note_off_c, 9, 36, 127
1, 100425, Note_off_c, 9, 42, 70
1, 100439, Note_off_c, 5, 49, 113
1, 100451, Note_off_c, 0, 51, 127
1, 100473, Note_off_c, 2, 51, 110
1, 100544, Note_on_c, 0, 39, 112
1, 100571, Control_c, 3, 1, 9
1, 100581, Note_off_c, 0, 39, 112
1, 100601, Control_c, 3, 1, 15
1, 100608, Note_on_c, 0, 54, 121
1, 100608, Note_on_c, 0, 49, 118
1, 100608, Note_on_c, 1, 44, 102
1, 100608, Note_on_c, 2, 44, 110
1, 100608, Note_on_c, 4, 70, 115
1, 100608, Note_on_c, 4, 82, 115
1, 100608, Note_on_c, 5, 51, 125
1, 100608, Note_on_c, 9, 42, 113
1, 100608, Note_on_c, 9, 36, 127
1, 100608, Note_on_c, 9, 54, 117
1, 100610, Note_on_c, 3, 61, 126
1, 100617, Note_off_c, 9, 54, 117
1, 100617, Note_off_c, 9, 36, 127
1, 100617, Note_off_c, 9, 42, 113
1, 100629, Control_c, 3, 1, 30
1, 100633, Note_off_c, 5, 51, 125
1, 100641, Pitch_bend_c, 1, 9024
1, 100647, Note_off_c, 0, 49, 118
1, 100649, Pitch_bend_c, 1, 11456
1, 100655, Control_c, 3, 1, 35
1, 100657, Note_off_c, 0, 54, 121
1, 100659, Note_off_c, 3, 61, 126
1, 100665, Note_off_c, 4, 82, 115
1, 100665, Note_off_c, 4, 70, 115
1, 100667, Note_off_c, 2, 44, 110
1, 100671, Pitch_bend_c, 1, 12896
1, 100675, Pitch_bend_c, 1, 14144
1, 100685, Control_c, 3, 1, 36
1, 100693, Pitch_bend_c, 1, 14336
1, 100695, Control_c, 3, 1, 39
1, 100701, Note_off_c, 1, 44, 102
1, 100705, Pitch_bend_c, 1, 13888
1, 100724, Note_on_c, 3, 63, 126
1, 100725, Pitch_bend_c, 1, 12640
1, 100731, Control_c, 3, 1, 41
1, 100733, Pitch_bend_c, 1, 10912
1, 100747, Pitch_bend_c, 1, 9344
1, 100759, Pitch_bend_c, 1, 8320
1, 100763, Control_c, 3, 1, 42
1, 100767, Pitch_bend_c, 1, 8192
1, 100781, Note_off_c, 3, 63, 126
1, 100799, Control_c, 3, 1, 43
1, 100800, Note_on_c, 0, 39, 110
1, 100800, Note_on_c, 1, 42, 100
1, 100800, Note_on_c, 2, 45, 105
1, 100800, Note_on_c, 4, 68, 115
1, 100800, Note_on_c, 4, 80, 115
1, 100800, Note_on_c, 5, 49, 112
1, 100800, Note_on_c, 9, 42, 75
1, 100800, Note_on_c, 9, 54, 64
1, 100809, Note_off_c, 9, 54, 64
1, 100809, Note_off_c, 9, 42, 75
1, 100813, Control_c, 3, 1, 45
1, 100817, Note_off_c, 5, 49, 112
1, 100831, Note_off_c, 0, 39, 110
1, 100847, Pitch_bend_c, 1, 8960
1, 100851, Note_off_c, 4, 80, 115
1, 100851, Note_off_c, 4, 68, 115
1, 100857, Pitch_bend_c, 1, 11872
1, 100871, Control_c, 3, 1, 47
1, 100873, Pitch_bend_c, 1, 15264
1, 100885, Control_c, 3, 1, 49
1, 100887, Pitch_bend_c, 1, 16383
1, 100895, Note_off_c, 2, 45, 105
1, 100909, Note_off_c, 1, 42, 100
1, 100914, Note_on_c, 3, 63, 127
1, 100917, Control_c, 3, 1, 54
1, 100928, Note_on_c, 0, 54, 121
1, 100928, Note_on_c, 0, 49, 110
1, 100928, Note_on_c, 2, 46, 98
1, 100935, Pitch_bend_c, 1, 15744
1, 100941, Pitch_bend_c, 1, 12256
1, 100941, Control_c, 3, 1, 51
1, 100959, Pitch_bend_c, 1, 8864
1, 100959, Control_c, 3, 1, 50
1, 100971, Note_off_c, 0, 49, 110
1, 100971, Pitch_bend_c, 1, 8352
1, 100975, Note_off_c, 0, 54, 121
1, 100979, Pitch_bend_c, 1, 8192
1, 100979, Control_c, 3, 1, 49
1, 100992, Note_on_c, 1, 42, 109
1, 100992, Note_on_c, 4, 66, 115
1, 100992, Note_on_c, 4, 78, 115
1, 100992, Note_on_c, 5, 51, 112
1, 100992, Note_on_c, 9, 39, 124
1, 100992, Note_on_c, 9, 42, 127
1, 100992, Note_on_c, 9, 40, 127
1, 100992, Note_on_c, 9, 36, 127
1, 100992, Note_on_c, 9, 54, 110
1, 100993, Control_c, 3, 1, 54
1, 100999, Note_off_c, 2, 46, 98
1, 101001, Note_off_c, 9, 54, 110
1, 101001, Note_off_c, 9, 36, 127
1, 101001, Note_off_c, 9, 40, 127
1, 101001, Note_off_c, 9, 42, 127
1, 101001, Note_off_c, 9, 39, 124
1, 101011, Note_off_c, 3, 63, 127
1, 101015, Control_c, 3, 1, 56
1, 101019, Note_off_c, 5, 51, 112
1, 101039, Control_c, 3, 1, 57
1, 101055, Note_off_c, 4, 78, 115
1, 101055, Note_off_c, 4, 66, 115
1, 101106, Note_on_c, 3, 63, 126
1, 101107, Control_c, 3, 1, 61
1, 101120, Note_on_c, 0, 39, 115
1, 101120, Note_on_c, 2, 49, 110
1, 101120, Note_on_c, 5, 49, 108
1, 101125, Control_c, 3, 1, 73
1, 101133, Note_off_c, 5, 49, 108
1, 101149, Note_off_c, 0, 39, 115
1, 101157, Control_c, 1, 1, 1
1, 101157, Control_c, 3, 1, 75
1, 101161, Control_c, 1, 1, 20
1, 101163, Note_off_c, 1, 42, 109
1, 101179, Control_c, 3, 1, 44
1, 101181, Control_c, 1, 1, 21
1, 101184, Note_on_c, 0, 56, 125
1, 101184, Note_on_c, 0, 51, 127
1, 101184, Note_on_c, 1, 39, 97
1, 101184, Note_on_c, 5, 56, 127
1, 101184, Note_on_c, 9, 42, 82
1, 101184, Note_on_c, 9, 54, 57
1, 101193, Note_off_c, 9, 54, 57
1, 101193, Note_off_c, 9, 42, 82
1, 101193, Note_off_c, 2, 49, 110
1, 101197, Control_c, 1, 1, 5
1, 101211, Control_c, 3, 1, 19
1, 101223, Control_c, 1, 1, 0
1, 101229, Control_c, 3, 1, 0
1, 101239, Note_off_c, 0, 51, 127
1, 101241, Note_off_c, 5, 56, 127
1, 101253, Note_off_c, 0, 56, 125
1, 101265, Note_off_c, 1, 39, 97
1, 101279, Note_off_c, 3, 63, 126
1, 101293, Pitch_bend_c, 3, 7520
1, 101302, Note_on_c, 3, 66, 127
1, 101305, Pitch_bend_c, 3, 4896
1, 101312, Note_on_c, 1, 37, 90
1, 101312, Note_on_c, 2, 51, 117
1, 101312, Note_on_c, 5, 54, 127
1, 101321, Pitch_bend_c, 3, 2624
1, 101333, Pitch_bend_c, 3, 1664
1, 101335, Control_c, 3, 1, 17
1, 101351, Note_off_c, 5, 54, 127
1, 101351, Note_off_c, 2, 51, 117
1, 101351, Note_off_c, 1, 37, 90
1, 101355, Control_c, 3, 1, 29
1, 101361, Pitch_bend_c, 3, 2368
1, 101371, Control_c, 3, 1, 34
1, 101375, Pitch_bend_c, 3, 3616
1, 101376, Note_on_c, 0, 27, 103
1, 101376, Note_on_c, 1, 27, 105
1, 101376, Note_on_c, 9, 36, 127
1, 101376, Note_on_c, 9, 49, 84
1, 101381, Control_c, 3, 1, 38
1, 101385, Note_off_c, 9, 49, 84
1, 101385, Note_off_c, 9, 36, 127
1, 101391, Pitch_bend_c, 3, 5152
1, 101401, Control_c, 3, 1, 33
1, 101405, Pitch_bend_c, 3, 7040
1, 101431, Pitch_bend_c, 3, 7456
1, 101433, Control_c, 3, 1, 32
1, 101445, Pitch_bend_c, 3, 7744
1, 101451, Note_off_c, 0, 27, 103
1, 101451, Control_c, 3, 1, 30
1, 101461, Pitch_bend_c, 3, 7840
1, 101481, Control_c, 3, 1, 31
1, 101495, Pitch_bend_c, 3, 7776
1, 101497, Control_c, 3, 1, 35
1, 101515, Pitch_bend_c, 3, 7936
1, 101517, Control_c, 3, 1, 40
1, 101527, Note_off_c, 1, 27, 105
1, 101531, Pitch_bend_c, 3, 8064
1, 101537, Control_c, 3, 1, 42
1, 101547, Pitch_bend_c, 3, 8160
1, 101551, Control_c, 3, 1, 45
1, 101557, Pitch_bend_c, 3, 8192
1, 101568, Note_on_c, 0, 54, 106
1, 101568, Note_on_c, 1, 39, 98
1, 101568, Note_on_c, 2, 51, 115
1, 101568, Note_on_c, 4, 63, 116
1, 101568, Note_on_c, 4, 75, 116
1, 101568, Note_on_c, 5, 51, 126
1, 101568, Note_on_c, 9, 42, 77
1, 101573, Control_c, 3, 1, 47
1, 101577, Note_off_c, 9, 42, 77
1, 101589, Control_c, 3, 1, 50
1, 101595, Note_off_c, 0, 54, 106
1, 101605, Control_c, 3, 1, 55
1, 101611, Note_off_c, 5, 51, 126
1, 101619, Note_off_c, 2, 51, 115
1, 101625, Control_c, 3, 1, 59
1, 101633, Note_off_c, 1, 39, 98
1, 101641, Control_c, 3, 1, 0
1, 101647, Control_c, 3, 1, 4
1, 101661, Note_off_c, 4, 75, 116
1, 101661, Note_off_c, 4, 63, 116
1, 101669, Note_off_c, 3, 66, 127
1, 101677, Control_c, 3, 1, 0
1, 101696, Note_on_c, 1, 27, 61
1, 101703, Pitch_bend_c, 3, 7296
1, 101715, Pitch_bend_c, 3, 6336
1, 101729, Note_off_c, 1, 27, 61
1, 101729, Pitch_bend_c, 3, 2048
1, 101741, Pitch_bend_c, 3, 1792
1, 101752, Note_on_c, 3, 63, 127
1, 101760, Note_on_c, 1, 37, 92
1, 101760, Note_on_c, 2, 49, 106
1, 101760, Note_on_c, 9, 39, 126
1, 101760, Note_on_c, 9, 40, 127
1, 101760, Note_on_c, 9, 42, 122
1, 101760, Note_on_c, 9, 36, 127
1, 101760, Note_on_c, 9, 54, 99
1, 101761, Pitch_bend_c, 3, 3456
1, 101769, Note_off_c, 9, 54, 99
1, 101769, Note_off_c, 9, 36, 127
1, 101769, Note_off_c, 9, 42, 122
1, 101769, Note_off_c, 9, 40, 127
1, 101769, Note_off_c, 9, 39, 126
1, 101769, Pitch_bend_c, 3, 5440
1, 101781, Pitch_bend_c, 3, 7680
1, 101803, Pitch_bend_c, 3, 8192
1, 101859, Note_off_c, 1, 37, 92
1, 101873, Note_off_c, 2, 49, 106
1, 101883, Control_c, 3, 1, 9
1, 101888, Note_on_c, 1, 39, 90
1, 101888, Note_on_c, 2, 51, 88
1, 101888, Note_on_c, 4, 63, 116
1, 101888, Note_on_c, 4, 75, 116
1, 101899, Control_c, 3, 1, 17
1, 101927, Note_off_c, 2, 51, 88
1, 101937, Note_off_c, 1, 39, 90
1, 101947, Control_c, 3, 1, 20
1, 101952, Note_on_c, 0, 54, 121
1, 101952, Note_on_c, 0, 49, 118
1, 101952, Note_on_c, 1, 27, 97
1, 101952, Note_on_c, 2, 39, 111
1, 101952, Note_on_c, 5, 51, 118
1, 101952, Note_on_c, 9, 42, 62
1, 101961, Note_off_c, 9, 42, 62
1, 101977, Note_off_c, 2, 39, 111
1, 101977, Note_off_c, 0, 49, 118
1, 101979, Control_c, 3, 1, 25
1, 101981, Note_off_c, 4, 75, 116
1, 101981, Note_off_c, 4, 63, 116
1, 101989, Note_off_c, 0, 54, 121
1, 101995, Note_off_c, 5, 51, 118
1, 102007, Control_c, 3, 1, 34
1, 102037, Control_c, 3, 1, 42
1, 102057, Control_c, 3, 1, 46
1, 102081, Control_c, 3, 1, 51
1, 102091, Note_off_c, 1, 27, 97
1, 102111, Control_c, 3, 1, 53
1, 102137, Control_c, 3, 1, 54
1, 102144, Note_on_c, 1, 30, 104
1, 102144, Note_on_c, 2, 54, 112
1, 102144, Note_on_c, 2, 49, 107
1, 102144, Note_on_c, 4, 54, 116
1, 102144, Note_on_c, 4, 66, 116
1, 102144, Note_on_c, 5, 51, 127
1, 102144, Note_on_c, 9, 42, 117
1, 102144, Note_on_c, 9, 36, 127
1, 102153, Note_off_c, 9, 36, 127
1, 102153, Note_off_c, 9, 42, 117
1, 102153, Control_c, 3, 1, 52
1, 102167, Note_off_c, 2, 54, 112
1, 102169, Control_c, 3, 1, 39
1, 102183, Note_off_c, 2, 49, 107
1, 102191, Note_off_c, 5, 51, 127
1, 102205, Control_c, 3, 1, 21
1, 102227, Note_off_c, 1, 30, 104
1, 102237, Note_off_c, 4, 66, 116
1, 102237, Note_off_c, 4, 54, 116
1, 102237, Control_c, 3, 1, 14
1, 102253, Control_c, 3, 1, 6
1, 102272, Note_on_c, 1, 32, 74
1, 102272, Note_on_c, 4, 56, 116
1, 102272, Note_on_c, 4, 68, 116
1, 102273, Control_c, 3, 1, 0
1, 102325, Note_off_c, 3, 63, 127
1, 102336, Note_on_c, 1, 34, 93
1, 102336, Note_on_c, 2, 39, 88
1, 102336, Note_on_c, 4, 58, 116
1, 102336, Note_on_c, 4, 70, 116
1, 102336, Note_on_c, 9, 42, 63
1, 102337, Note_off_c, 1, 32, 74
1, 102338, Note_on_c, 3, 61, 94
1, 102345, Note_off_c, 9, 42, 63
1, 102349, Note_off_c, 2, 39, 88
1, 102365, Note_off_c, 4, 68, 116
1, 102365, Note_off_c, 4, 56, 116
1, 102391, Note_off_c, 3, 61, 94
1, 102397, Note_off_c, 1, 34, 93
1, 102412, Note_on_c, 3, 58, 89
1, 102429, Note_off_c, 4, 70, 116
1, 102429, Note_off_c, 4, 58, 116
1, 102447, Note_off_c, 3, 58, 89
1, 102464, Note_on_c, 0, 51, 127
1, 102464, Note_on_c, 1, 37, 98
1, 102464, Note_on_c, 2, 51, 115
1, 102464, Note_on_c, 4, 61, 116
1, 102464, Note_on_c, 4, 73, 116
1, 102499, Note_off_c, 2, 51, 115
1, 102501, Note_off_c, 0, 51, 127
1, 102528, Note_on_c, 5, 51, 127
1, 102528, Note_on_c, 9, 39, 122
1, 102528, Note_on_c, 9, 40, 127
1, 102528, Note_on_c, 9, 42, 126
1, 102528, Note_on_c, 9, 36, 127
1, 102528, Note_on_c, 9, 54, 106
1, 102537, Note_off_c, 9, 54, 106
1, 102537, Note_off_c, 9, 36, 127
1, 102537, Note_off_c, 9, 42, 126
1, 102537, Note_off_c, 9, 40, 127
1, 102537, Note_off_c, 9, 39, 122
1, 102585, Note_off_c, 5, 51, 127
1, 102639, Note_off_c, 1, 37, 98
1, 102653, Note_off_c, 4, 73, 116
1, 102653, Note_off_c, 4, 61, 116
1, 102656, Note_on_c, 0, 39, 108
1, 102656, Note_on_c, 1, 34, 88
1, 102656, Note_on_c, 2, 39, 94
1, 102656, Note_on_c, 4, 58, 116
1, 102656, Note_on_c, 4, 70, 116
1, 102667, Note_off_c, 2, 39, 94
1, 102697, Note_off_c, 4, 70, 116
1, 102697, Note_off_c, 4, 58, 116
1, 102705, Note_off_c, 1, 34, 88
1, 102720, Note_on_c, 0, 49, 120
1, 102720, Note_on_c, 1, 39, 100
1, 102720, Note_on_c, 2, 49, 108
1, 102720, Note_on_c, 4, 63, 116
1, 102720, Note_on_c, 4, 75, 116
1, 102720, Note_on_c, 9, 42, 64
1, 102723, Note_off_c, 0, 39, 108
1, 102729, Note_off_c, 9, 42, 64
1, 102797, Note_off_c, 0, 49, 120
1, 102801, Note_off_c, 1, 39, 100
1, 102813, Note_off_c, 4, 75, 116
1, 102813, Note_off_c, 4, 63, 116
1, 102831, Note_off_c, 2, 49, 108
1, 102848, Note_on_c, 0, 51, 118
1, 102848, Note_on_c, 1, 39, 97
1, 102848, Note_on_c, 2, 51, 96
1, 102848, Note_on_c, 4, 63, 116
1, 102848, Note_on_c, 4, 75, 116
1, 102848, Note_on_c, 5, 54, 127
1, 102881, Note_off_c, 2, 51, 96
1, 102895, Note_off_c, 0, 51, 118
1, 102899, Note_off_c, 4, 75, 116
1, 102899, Note_off_c, 4, 63, 116
1, 102912, Note_on_c, 0, 27, 118
1, 102912, Note_on_c, 1, 27, 104
1, 102912, Note_on_c, 2, 39, 127
1, 102912, Note_on_c, 9, 36, 127
1, 102912, Note_on_c, 9, 42, 109
1, 102921, Note_off_c, 9, 42, 109
1, 102921, Note_off_c, 9, 36, 127
1, 102921, Note_off_c, 1, 39, 97
1, 102973, Note_off_c, 2, 39, 127
1, 103075, Note_off_c, 1, 27, 104
1, 103077, Note_off_c, 5, 54, 127
1, 103104, Note_on_c, 0, 54, 123
1, 103104, Note_on_c, 0, 49, 114
1, 103104, Note_on_c, 1, 39, 104
1, 103104, Note_on_c, 2, 51, 127
1, 103104, Note_on_c, 4, 63, 116
1, 103104, Note_on_c, 4, 75, 116
1, 103104, Note_on_c, 5, 51, 126
1, 103104, Note_on_c, 9, 42, 67
1, 103113, Note_off_c, 9, 42, 67
1, 103127, Note_off_c, 0, 49, 114
1, 103129, Note_off_c, 5, 51, 126
1, 103139, Note_off_c, 0, 54, 123
1, 103139, Note_off_c, 0, 27, 118
1, 103149, Note_off_c, 2, 51, 127
1, 103153, Note_off_c, 4, 75, 116
1, 103153, Note_off_c, 4, 63, 116
1, 103163, Note_off_c, 1, 39, 104
1, 103232, Note_on_c, 1, 27, 79
1, 103267, Note_off_c, 1, 27, 79
1, 103296, Note_on_c, 0, 54, 127
1, 103296, Note_on_c, 0, 49, 120
1, 103296, Note_on_c, 1, 37, 96
1, 103296, Note_on_c, 2, 49, 115
1, 103296, Note_on_c, 4, 61, 115
1, 103296, Note_on_c, 4, 73, 115
1, 103296, Note_on_c, 5, 51, 127
1, 103296, Note_on_c, 9, 39, 126
1, 103296, Note_on_c, 9, 40, 127
1, 103296, Note_on_c, 9, 42, 124
1, 103296, Note_on_c, 9, 36, 127
1, 103296, Note_on_c, 9, 54, 108
1, 103305, Note_off_c, 9, 54, 108
1, 103305, Note_off_c, 9, 36, 127
1, 103305, Note_off_c, 9, 42, 124
1, 103305, Note_off_c, 9, 40, 127
1, 103305, Note_off_c, 9, 39, 126
1, 103323, Note_off_c, 5, 51, 127
1, 103389, Note_off_c, 4, 73, 115
1, 103389, Note_off_c, 4, 61, 115
1, 103417, Note_off_c, 2, 49, 115
1, 103419, Note_off_c, 0, 49, 120
1, 103424, Note_on_c, 1, 39, 98
1, 103424, Note_on_c, 2, 51, 94
1, 103424, Note_on_c, 4, 63, 115
1, 103424, Note_on_c, 4, 75, 115
1, 103427, Note_off_c, 1, 37, 96
1, 103429, Note_off_c, 0, 54, 127
1, 103465, Note_off_c, 2, 51, 94
1, 103471, Note_off_c, 4, 75, 115
1, 103471, Note_off_c, 4, 63, 115
1, 103488, Note_on_c, 0, 39, 104
1, 103488, Note_on_c, 2, 39, 108
1, 103488, Note_on_c, 5, 49, 113
1, 103488, Note_on_c, 9, 42, 73
1, 103497, Note_off_c, 9, 42, 73
1, 103497, Note_off_c, 1, 39, 98
1, 103511, Note_off_c, 5, 49, 113
1, 103527, Note_off_c, 2, 39, 108
1, 103529, Note_off_c, 0, 39, 104
1, 103616, Note_on_c, 1, 37, 77
1, 103653, Note_off_c, 1, 37, 77
1, 103678, Note_on_c, 3, 61, 122
1, 103680, Note_on_c, 1, 44, 105
1, 103680, Note_on_c, 2, 46, 117
1, 103680, Note_on_c, 2, 45, 120
1, 103680, Note_on_c, 4, 70, 115
1, 103680, Note_on_c, 4, 82, 115
1, 103680, Note_on_c, 5, 51, 125
1, 103680, Note_on_c, 9, 36, 127
1, 103680, Note_on_c, 9, 42, 107
1, 103689, Note_off_c, 9, 42, 107
1, 103689, Note_off_c, 9, 36, 127
1, 103693, Control_c, 3, 1, 11
1, 103701, Pitch_bend_c, 1, 11264
1, 103705, Note_off_c, 5, 51, 125
1, 103707, Note_off_c, 3, 61, 122
1, 103715, Note_off_c, 2, 45, 120
1, 103715, Pitch_bend_c, 1, 16383
1, 103715, Control_c, 3, 1, 18
1, 103729, Control_c, 3, 1, 18
1, 103737, Note_off_c, 4, 82, 115
1, 103737, Note_off_c, 4, 70, 115
1, 103749, Control_c, 3, 1, 17
1, 103758, Note_on_c, 3, 58, 127
1, 103767, Control_c, 3, 1, 19
1, 103773, Note_off_c, 1, 44, 105
1, 103791, Control_c, 3, 1, 29
1, 103797, Pitch_bend_c, 1, 14752
1, 103808, Note_on_c, 0, 39, 81
1, 103813, Pitch_bend_c, 1, 11360
1, 103819, Control_c, 3, 1, 39
1, 103827, Pitch_bend_c, 1, 9088
1, 103839, Note_off_c, 2, 46, 117
1, 103839, Pitch_bend_c, 1, 8448
1, 103841, Note_off_c, 0, 39, 81
1, 103841, Control_c, 3, 1, 47
1, 103845, Pitch_bend_c, 1, 8192
1, 103861, Control_c, 3, 1, 52
1, 103872, Note_on_c, 1, 42, 107
1, 103872, Note_on_c, 2, 49, 87
1, 103872, Note_on_c, 4, 68, 115
1, 103872, Note_on_c, 4, 80, 115
1, 103872, Note_on_c, 5, 49, 112
1, 103872, Note_on_c, 9, 42, 78
1, 103872, Note_on_c, 9, 36, 127
1, 103881, Note_off_c, 9, 36, 127
1, 103881, Note_off_c, 9, 42, 78
1, 103889, Note_off_c, 5, 49, 112
1, 103891, Control_c, 3, 1, 49
1, 103911, Control_c, 3, 1, 35
1, 103923, Note_off_c, 4, 80, 115
1, 103923, Note_off_c, 4, 68, 115
1, 103931, Control_c, 3, 1, 13
1, 103951, Control_c, 3, 1, 0
1, 103953, Note_off_c, 2, 49, 87
1, 103963, Note_off_c, 1, 42, 107
1, 103971, Note_off_c, 3, 58, 127
1, 104000, Note_on_c, 0, 39, 110
1, 104000, Note_on_c, 2, 45, 109
1, 104000, Note_on_c, 2, 46, 92
1, 104041, Note_off_c, 0, 39, 110
1, 104047, Note_off_c, 2, 46, 92
1, 104064, Note_on_c, 1, 42, 100
1, 104064, Note_on_c, 2, 44, 85
1, 104064, Note_on_c, 4, 66, 115
1, 104064, Note_on_c, 4, 78, 115
1, 104064, Note_on_c, 5, 51, 112
1, 104064, Note_on_c, 9, 39, 127
1, 104064, Note_on_c, 9, 40, 127
1, 104064, Note_on_c, 9, 42, 127
1, 104064, Note_on_c, 9, 36, 127
1, 104064, Note_on_c, 9, 54, 112
1, 104066, Note_on_c, 3, 56, 127
1, 104069, Note_off_c, 2, 45, 109
1, 104073, Note_off_c, 9, 54, 112
1, 104073, Note_off_c, 9, 36, 127
1, 104073, Note_off_c, 9, 42, 127
1, 104073, Note_off_c, 9, 40, 127
1, 104073, Note_off_c, 9, 39, 127
1, 104091, Note_off_c, 5, 51, 112
1, 104121, Control_c, 3, 1, 4
1, 104127, Note_off_c, 4, 78, 115
1, 104127, Note_off_c, 4, 66, 115
1, 104145, Control_c, 3, 1, 6
1, 104161, Control_c, 3, 1, 8
1, 104169, Note_off_c, 2, 44, 85
1, 104179, Control_c, 3, 1, 10
1, 104192, Note_on_c, 0, 39, 89
1, 104192, Note_on_c, 2, 42, 95
1, 104192, Note_on_c, 5, 49, 108
1, 104199, Control_c, 3, 1, 12
1, 104205, Note_off_c, 5, 49, 108
1, 104213, Note_off_c, 0, 39, 89
1, 104219, Control_c, 3, 1, 14
1, 104229, Note_off_c, 3, 56, 127
1, 104231, Note_off_c, 1, 42, 100
1, 104237, Note_off_c, 2, 42, 95
1, 104253, Control_c, 3, 1, 8
1, 104256, Note_on_c, 0, 56, 121
1, 104256, Note_on_c, 0, 51, 107
1, 104256, Note_on_c, 1, 39, 93
1, 104256, Note_on_c, 2, 44, 95
1, 104256, Note_on_c, 5, 56, 127
1, 104256, Note_on_c, 9, 42, 71
1, 104256, Note_on_c, 9, 36, 127
1, 104260, Note_on_c, 3, 54, 108
1, 104265, Note_off_c, 9, 36, 127
1, 104265, Note_off_c, 9, 42, 71
1, 104283, Control_c, 3, 1, 0
1, 104287, Note_off_c, 3, 54, 108
1, 104309, Note_off_c, 0, 51, 107
1, 104313, Note_off_c, 5, 56, 127
1, 104337, Control_c, 3, 1, 4
1, 104345, Note_off_c, 0, 56, 121
1, 104353, Note_off_c, 2, 44, 95
1, 104365, Note_off_c, 1, 39, 93
1, 104370, Note_on_c, 3, 56, 127
1, 104377, Control_c, 3, 1, 16
1, 104384, Note_on_c, 0, 54, 102
1, 104384, Note_on_c, 1, 37, 89
1, 104384, Note_on_c, 2, 42, 88
1, 104384, Note_on_c, 5, 54, 127
1, 104395, Control_c, 3, 1, 25
1, 104413, Note_off_c, 0, 54, 102
1, 104415, Control_c, 3, 1, 29
1, 104423, Note_off_c, 5, 54, 127
1, 104425, Note_off_c, 2, 42, 88
1, 104433, Note_off_c, 1, 37, 89
1, 104433, Control_c, 3, 1, 31
1, 104448, Note_on_c, 0, 27, 115
1, 104448, Note_on_c, 1, 27, 88
1, 104448, Note_on_c, 1, 29, 97
1, 104448, Note_on_c, 2, 39, 127
1, 104448, Note_on_c, 9, 36, 127
1, 104448, Note_on_c, 9, 42, 115
1, 104449, Control_c, 3, 1, 34
1, 104457, Note_off_c, 9, 42, 115
1, 104457, Note_off_c, 9, 36, 127
1, 104461, Note_off_c, 1, 29, 97
1, 104473, Control_c, 3, 1, 37
1, 104511, Control_c, 3, 1, 38
1, 104539, Control_c, 3, 1, 39
1, 104547, Note_off_c, 0, 27, 115
1, 104559, Control_c, 3, 1, 37
1, 104576, Note_on_c, 0, 39, 93
1, 104587, Control_c, 3, 1, 38
1, 104601, Note_off_c, 2, 39, 127
1, 104601, Control_c, 3, 1, 44
1, 104603, Note_off_c, 0, 39, 93
1, 104635, Control_c, 3, 1, 46
1, 104639, Note_off_c, 3, 56, 127
1, 104640, Note_on_c, 0, 54, 121
1, 104640, Note_on_c, 0, 49, 112
1, 104640, Note_on_c, 1, 39, 107
1, 104640, Note_on_c, 2, 51, 117
1, 104640, Note_on_c, 3, 54, 118
1, 104640, Note_on_c, 4, 63, 115
1, 104640, Note_on_c, 4, 75, 115
1, 104640, Note_on_c, 5, 49, 118
1, 104640, Note_on_c, 9, 42, 57
1, 104647, Note_off_c, 1, 27, 88
1, 104649, Note_off_c, 9, 42, 57
1, 104657, Note_off_c, 5, 49, 118
1, 104663, Control_c, 3, 1, 58
1, 104675, Note_off_c, 0, 49, 112
1, 104683, Note_off_c, 0, 54, 121
1, 104691, Note_off_c, 2, 51, 117
1, 104695, Control_c, 3, 1, 53
1, 104713, Note_off_c, 1, 39, 107
1, 104719, Control_c, 3, 1, 52
1, 104733, Note_off_c, 4, 75, 115
1, 104733, Note_off_c, 4, 63, 115
1, 104739, Control_c, 3, 1, 54
1, 104765, Note_off_c, 3, 54, 118
1, 104765, Control_c, 3, 1, 41
1, 104768, Note_on_c, 1, 27, 69
1, 104768, Note_on_c, 2, 39, 75
1, 104779, Note_off_c, 2, 39, 75
1, 104787, Note_off_c, 1, 27, 69
1, 104793, Control_c, 3, 1, 12
1, 104813, Control_c, 3, 1, 2
1, 104827, Control_c, 3, 1, 0
1, 104832, Note_on_c, 0, 49, 96
1, 104832, Note_on_c, 1, 37, 101
1, 104832, Note_on_c, 2, 49, 112
1, 104832, Note_on_c, 5, 51, 118
1, 104832, Note_on_c, 9, 39, 124
1, 104832, Note_on_c, 9, 40, 127
1, 104832, Note_on_c, 9, 42, 126
1, 104832, Note_on_c, 9, 36, 127
1, 104832, Note_on_c, 9, 54, 110
1, 104841, Note_off_c, 9, 54, 110
1, 104841, Note_off_c, 9, 36, 127
1, 104841, Note_off_c, 9, 42, 126
1, 104841, Note_off_c, 9, 40, 127
1, 104841, Note_off_c, 9, 39, 124
1, 104855, Note_off_c, 5, 51, 118
1, 104859, Note_off_c, 0, 49, 96
1, 104911, Note_off_c, 2, 49, 112
1, 104935, Note_off_c, 1, 37, 101
1, 104960, Note_on_c, 1, 39, 90
1, 104960, Note_on_c, 2, 51, 92
1, 104960, Note_on_c, 4, 63, 115
1, 104960, Note_on_c, 4, 75, 115
1, 104991, Note_off_c, 2, 51, 92
1, 105003, Note_off_c, 1, 39, 90
1, 105024, Note_on_c, 0, 54, 127
1, 105024, Note_on_c, 0, 49, 120
1, 105024, Note_on_c, 1, 27, 98
1, 105024, Note_on_c, 2, 39, 127
1, 105024, Note_on_c, 5, 49, 113
1, 105024, Note_on_c, 9, 42, 66
1, 105033, Note_off_c, 9, 42, 66
1, 105037, Note_off_c, 5, 49, 113
1, 105053, Note_off_c, 4, 75, 115
1, 105053, Note_off_c, 4, 63, 115
1, 105059, Note_off_c, 2, 39, 127
1, 105059, Note_off_c, 0, 49, 120
1, 105073, Note_off_c, 0, 54, 127
1, 105157, Note_off_c, 1, 27, 98
1, 105216, Note_on_c, 1, 30, 118
1, 105216, Note_on_c, 2, 54, 108
1, 105216, Note_on_c, 2, 49, 108
1, 105216, Note_on_c, 4, 54, 115
1, 105216, Note_on_c, 4, 66, 115
1, 105216, Note_on_c, 5, 51, 127
1, 105216, Note_on_c, 9, 36, 127
1, 105216, Note_on_c, 9, 42, 110
1, 105225, Note_off_c, 9, 42, 110
1, 105225, Note_off_c, 9, 36, 127
1, 105243, Note_off_c, 5, 51, 127
1, 105245, Note_off_c, 2, 54, 108
1, 105263, Note_off_c, 2, 49, 108
1, 105303, Note_off_c, 1, 30, 118
1, 105309, Note_off_c, 4, 66, 115
1, 105309, Note_off_c, 4, 54, 115
1, 105344, Note_on_c, 0, 39, 93
1, 105344, Note_on_c, 1, 32, 79
1, 105344, Note_on_c, 4, 56, 115
1, 105344, Note_on_c, 4, 68, 115
1, 105369, Note_off_c, 0, 39, 93
1, 105403, Note_off_c, 1, 32, 79
1, 105408, Note_on_c, 1, 34, 93
1, 105408, Note_on_c, 4, 58, 115
1, 105408, Note_on_c, 4, 70, 115
1, 105408, Note_on_c, 5, 49, 123
1, 105408, Note_on_c, 9, 42, 76
1, 105417, Note_off_c, 9, 42, 76
1, 105425, Note_off_c, 5, 49, 123
1, 105437, Note_off_c, 4, 68, 115
1, 105437, Note_off_c, 4, 56, 115
1, 105481, Note_off_c, 1, 34, 93
1, 105501, Note_off_c, 4, 70, 115
1, 105501, Note_off_c, 4, 58, 115
1, 105536, Note_on_c, 0, 51, 124
1, 105536, Note_on_c, 1, 37, 102
1, 105536, Note_on_c, 2, 54, 108
1, 105536, Note_on_c, 2, 49, 110
1, 105536, Note_on_c, 4, 61, 115
1, 105536, Note_on_c, 4, 73, 115
1, 105536, Note_on_c, 9, 46, 91
1, 105545, Note_off_c, 9, 46, 91
1, 105579, Note_off_c, 2, 54, 108
1, 105581, Note_off_c, 0, 51, 124
1, 105583, Note_off_c, 2, 49, 110
1, 105600, Note_on_c, 5, 54, 127
1, 105600, Note_on_c, 9, 39, 127
1, 105600, Note_on_c, 9, 40, 127
1, 105600, Note_on_c, 9, 42, 105
1, 105600, Note_on_c, 9, 36, 127
1, 105600, Note_on_c, 9, 54, 110
1, 105609, Note_off_c, 9, 54, 110
1, 105609, Note_off_c, 9, 36, 127
1, 105609, Note_off_c, 9, 42, 105
1, 105609, Note_off_c, 9, 40, 127
1, 105609, Note_off_c, 9, 39, 127
1, 105687, Note_off_c, 5, 54, 127
1, 105701, Note_off_c, 1, 37, 102
1, 105725, Note_off_c, 4, 73, 115
1, 105725, Note_off_c, 4, 61, 115
1, 105728, Note_on_c, 0, 39, 99
1, 105728, Note_on_c, 1, 34, 87
1, 105728, Note_on_c, 4, 58, 115
1, 105728, Note_on_c, 4, 70, 115
1, 105728, Note_on_c, 5, 51, 111
1, 105769, Note_off_c, 5, 51, 111
1, 105769, Note_off_c, 4, 70, 115
1, 105769, Note_off_c, 4, 58, 115
1, 105771, Note_off_c, 0, 39, 99
1, 105779, Note_off_c, 1, 34, 87
1, 105792, Note_on_c, 0, 49, 119
1, 105792, Note_on_c, 1, 39, 101
1, 105792, Note_on_c, 2, 54, 112
1, 105792, Note_on_c, 2, 49, 112
1, 105792, Note_on_c, 4, 63, 115
1, 105792, Note_on_c, 4, 75, 115
1, 105792, Note_on_c, 5, 56, 117
1, 105792, Note_on_c, 9, 42, 87
1, 105801, Note_off_c, 9, 42, 87
1, 105849, Note_off_c, 0, 49, 119
1, 105865, Note_off_c, 5, 56, 117
1, 105877, Note_off_c, 1, 39, 101
1, 105885, Note_off_c, 4, 75, 115
1, 105885, Note_off_c, 4, 63, 115
1, 105920, Note_on_c, 0, 51, 110
1, 105920, Note_on_c, 1, 39, 87
1, 105920, Note_on_c, 4, 63, 115
1, 105920, Note_on_c, 4, 75, 115
1, 105920, Note_on_c, 5, 54, 127
1, 105953, Note_off_c, 0, 51, 110
1, 105971, Note_off_c, 4, 75, 115
1, 105971, Note_off_c, 4, 63, 115
1, 105971, Note_off_c, 2, 54, 112
1, 105984, Note_on_c, 0, 27, 118
1, 105984, Note_on_c, 1, 27, 107
1, 105984, Note_on_c, 2, 39, 111
1, 105984, Note_on_c, 9, 42, 84
1, 105984, Note_on_c, 9, 36, 127
1, 105993, Note_off_c, 9, 36, 127
1, 105993, Note_off_c, 9, 42, 84
1, 105993, Note_off_c, 2, 49, 112
1, 106005, Note_off_c, 1, 39, 87
1, 106091, Note_off_c, 0, 27, 118
1, 106101, Note_off_c, 2, 39, 111
1, 106159, Note_off_c, 1, 27, 107
1, 106159, Note_off_c, 5, 54, 127
1, 106176, Note_on_c, 0, 49, 117
1, 106176, Note_on_c, 0, 54, 123
1, 106176, Note_on_c, 1, 39, 107
1, 106176, Note_on_c, 2, 51, 114
1, 106176, Note_on_c, 4, 63, 115
1, 106176, Note_on_c, 4, 75, 115
1, 106176, Note_on_c, 5, 51, 127
1, 106176, Note_on_c, 9, 42, 78
1, 106185, Note_off_c, 9, 42, 78
1, 106197, Note_off_c, 0, 54, 123
1, 106219, Note_off_c, 0, 49, 117
1, 106225, Note_off_c, 5, 51, 127
1, 106225, Note_off_c, 4, 75, 115
1, 106225, Note_off_c, 4, 63, 115
1, 106229, Note_off_c, 2, 51, 114
1, 106245, Note_off_c, 1, 39, 107
1, 106304, Note_on_c, 1, 27, 72
1, 106341, Note_off_c, 1, 27, 72
1, 106368, Note_on_c, 0, 54, 127
1, 106368, Note_on_c, 0, 49, 121
1, 106368, Note_on_c, 1, 37, 102
1, 106368, Note_on_c, 2, 49, 121
1, 106368, Note_on_c, 4, 61, 115
1, 106368, Note_on_c, 4, 73, 115
1, 106368, Note_on_c, 5, 49, 127
1, 106368, Note_on_c, 9, 39, 127
1, 106368, Note_on_c, 9, 42, 120
1, 106368, Note_on_c, 9, 40, 126
1, 106368, Note_on_c, 9, 36, 127
1, 106368, Note_on_c, 9, 54, 106
1, 106377, Note_off_c, 9, 54, 106
1, 106377, Note_off_c, 9, 36, 127
1, 106377, Note_off_c, 9, 40, 126
1, 106377, Note_off_c, 9, 42, 120
1, 106377, Note_off_c, 9, 39, 127
1, 106393, Note_off_c, 5, 49, 127
1, 106395, Note_off_c, 0, 49, 121
1, 106407, Note_off_c, 0, 54, 127
1, 106461, Note_off_c, 4, 73, 115
1, 106461, Note_off_c, 4, 61, 115
1, 106477, Note_off_c, 1, 37, 102
1, 106496, Note_on_c, 1, 39, 101
1, 106496, Note_on_c, 4, 63, 115
1, 106496, Note_on_c, 4, 75, 115
1, 106505, Note_off_c, 2, 49, 121
1, 106543, Note_off_c, 4, 75, 115
1, 106543, Note_off_c, 4, 63, 115
1, 106553, Note_off_c, 1, 39, 101
1, 106560, Note_on_c, 2, 51, 110
1, 106560, Note_on_c, 5, 51, 127
1, 106560, Note_on_c, 9, 42, 70
1, 106560, Note_on_c, 9, 36, 127
1, 106569, Note_off_c, 9, 36, 127
1, 106569, Note_off_c, 9, 42, 70
1, 106613, Note_off_c, 5, 51, 127
1, 106617, Note_off_c, 2, 51, 110
1, 106749, Control_c, 3, 1, 7
1, 106752, Note_on_c, 0, 54, 123
1, 106752, Note_on_c, 0, 49, 114
1, 106752, Note_on_c, 1, 44, 102
1, 106752, Note_on_c, 2, 44, 110
1, 106752, Note_on_c, 4, 70, 115
1, 106752, Note_on_c, 4, 82, 115
1, 106752, Note_on_c, 5, 56, 127
1, 106752, Note_on_c, 9, 42, 113
1, 106752, Note_on_c, 9, 36, 127
1, 106756, Note_on_c, 3, 61, 127
1, 106757, Pitch_bend_c, 5, 8672
1, 106761, Note_off_c, 9, 36, 127
1, 106761, Note_off_c, 9, 42, 113
1, 106765, Pitch_bend_c, 5, 9120
1, 106775, Note_off_c, 0, 49, 114
1, 106775, Control_c, 3, 1, 26
1, 106783, Pitch_bend_c, 5, 11744
1, 106785, Pitch_bend_c, 1, 9024
1, 106787, Note_off_c, 0, 54, 123
1, 106793, Pitch_bend_c, 1, 11456
1, 106793, Pitch_bend_c, 5, 13248
1, 106795, Control_c, 3, 1, 35
1, 106809, Note_off_c, 4, 82, 115
1, 106809, Note_off_c, 4, 70, 115
1, 106809, Pitch_bend_c, 5, 13792
1, 106811, Note_off_c, 2, 44, 110
1, 106815, Pitch_bend_c, 1, 13472
1, 106821, Pitch_bend_c, 1, 14144
1, 106821, Pitch_bend_c, 5, 13920
1, 106835, Pitch_bend_c, 5, 13408
1, 106837, Pitch_bend_c, 1, 14336
1, 106843, Note_off_c, 3, 61, 127
1, 106843, Control_c, 3, 1, 33
1, 106845, Note_off_c, 1, 44, 102
1, 106847, Note_off_c, 5, 56, 127
1, 106849, Pitch_bend_c, 1, 13888
1, 106851, Pitch_bend_c, 5, 12768
1, 106863, Control_c, 3, 1, 31
1, 106869, Pitch_bend_c, 1, 12640
1, 106869, Pitch_bend_c, 5, 11968
1, 106874, Note_on_c, 3, 63, 120
1, 106877, Pitch_bend_c, 1, 10912
1, 106877, Pitch_bend_c, 5, 11296
1, 106891, Pitch_bend_c, 1, 8736
1, 106891, Control_c, 3, 1, 21
1, 106893, Pitch_bend_c, 5, 10912
1, 106905, Pitch_bend_c, 5, 10464
1, 106909, Pitch_bend_c, 1, 8320
1, 106911, Pitch_bend_c, 1, 8192
1, 106917, Note_off_c, 3, 63, 120
1, 106919, Pitch_bend_c, 5, 9248
1, 106921, Control_c, 3, 1, 14
1, 106935, Pitch_bend_c, 5, 8384
1, 106944, Note_on_c, 1, 42, 100
1, 106944, Note_on_c, 2, 45, 105
1, 106944, Note_on_c, 4, 68, 115
1, 106944, Note_on_c, 4, 80, 115
1, 106944, Note_on_c, 5, 56, 127
1, 106944, Note_on_c, 9, 42, 75
1, 106947, Pitch_bend_c, 5, 8192
1, 106953, Note_off_c, 9, 42, 75
1, 106955, Control_c, 3, 1, 17
1, 106971, Control_c, 3, 1, 20
1, 106989, Control_c, 3, 1, 24
1, 106991, Pitch_bend_c, 1, 9696
1, 106995, Note_off_c, 4, 80, 115
1, 106995, Note_off_c, 4, 68, 115
1, 107005, Pitch_bend_c, 1, 11872
1, 107013, Control_c, 3, 1, 35
1, 107017, Pitch_bend_c, 1, 15264
1, 107029, Note_off_c, 5, 56, 127
1, 107031, Pitch_bend_c, 1, 16383
1, 107039, Note_off_c, 2, 45, 105
1, 107041, Control_c, 3, 1, 39
1, 107053, Note_off_c, 1, 42, 100
1, 107064, Note_on_c, 3, 63, 127
1, 107072, Note_on_c, 0, 49, 89
1, 107072, Note_on_c, 2, 46, 98
1, 107072, Note_on_c, 5, 54, 97
1, 107073, Control_c, 3, 1, 53
1, 107079, Pitch_bend_c, 1, 14656
1, 107083, Note_off_c, 0, 49, 89
1, 107093, Pitch_bend_c, 1, 12256
1, 107099, Note_off_c, 5, 54, 97
1, 107103, Pitch_bend_c, 1, 8864
1, 107115, Pitch_bend_c, 1, 8352
1, 107115, Control_c, 3, 1, 49
1, 107121, Note_off_c, 3, 63, 127
1, 107123, Pitch_bend_c, 1, 8192
1, 107133, Control_c, 3, 1, 47
1, 107136, Note_on_c, 1, 42, 109
1, 107136, Note_on_c, 4, 66, 115
1, 107136, Note_on_c, 4, 78, 115
1, 107136, Note_on_c, 5, 56, 124
1, 107136, Note_on_c, 9, 39, 124
1, 107136, Note_on_c, 9, 42, 127
1, 107136, Note_on_c, 9, 40, 127
1, 107136, Note_on_c, 9, 36, 127
1, 107136, Note_on_c, 9, 54, 106
1, 107143, Note_off_c, 2, 46, 98
1, 107145, Note_off_c, 9, 54, 106
1, 107145, Note_off_c, 9, 36, 127
1, 107145, Note_off_c, 9, 40, 127
1, 107145, Note_off_c, 9, 42, 127
1, 107145, Note_off_c, 9, 39, 124
1, 107149, Control_c, 3, 1, 44
1, 107175, Control_c, 3, 1, 53
1, 107199, Note_off_c, 4, 78, 115
1, 107199, Note_off_c, 4, 66, 115
1, 107217, Control_c, 3, 1, 54
1, 107219, Note_off_c, 5, 56, 124
1, 107229, Control_c, 3, 1, 55
1, 107252, Note_on_c, 3, 63, 126
1, 107259, Control_c, 3, 1, 16
1, 107264, Note_on_c, 2, 49, 110
1, 107264, Note_on_c, 5, 54, 122
1, 107277, Control_c, 3, 1, 1
1, 107297, Control_c, 3, 1, 0
1, 107301, Control_c, 1, 1, 10
1, 107307, Note_off_c, 1, 42, 109
1, 107313, Note_off_c, 3, 63, 126
1, 107317, Note_off_c, 5, 54, 122
1, 107317, Control_c, 1, 1, 24
1, 107328, Note_on_c, 0, 54, 121
1, 107328, Note_on_c, 0, 49, 93
1, 107328, Note_on_c, 1, 39, 97
1, 107328, Note_on_c, 5, 51, 116
1, 107328, Note_on_c, 9, 42, 82
1, 107335, Control_c, 1, 1, 5
1, 107337, Note_off_c, 9, 42, 82
1, 107337, Note_off_c, 2, 49, 110
1, 107343, Note_off_c, 0, 49, 93
1, 107359, Note_off_c, 5, 51, 116
1, 107363, Note_off_c, 0, 54, 121
1, 107367, Control_c, 1, 1, 0
1, 107385, Pitch_bend_c, 3, 7296
1, 107395, Pitch_bend_c, 3, 3392
1, 107409, Note_off_c, 1, 39, 97
1, 107411, Pitch_bend_c, 3, 960
1, 107440, Note_on_c, 3, 66, 127
1, 107441, Pitch_bend_c, 3, 3456
1, 107455, Pitch_bend_c, 3, 7808
1, 107456, Note_on_c, 0, 49, 107
1, 107456, Note_on_c, 1, 37, 90
1, 107456, Note_on_c, 2, 51, 117
1, 107456, Note_on_c, 5, 54, 127
1, 107471, Pitch_bend_c, 3, 8128
1, 107475, Pitch_bend_c, 3, 8192
1, 107483, Note_off_c, 0, 49, 107
1, 107495, Note_off_c, 2, 51, 117
1, 107495, Note_off_c, 1, 37, 90
1, 107507, Note_off_c, 5, 54, 127
1, 107520, Note_on_c, 0, 27, 117
1, 107520, Note_on_c, 1, 27, 105
1, 107520, Note_on_c, 2, 39, 127
1, 107520, Note_on_c, 9, 36, 127
1, 107520, Note_on_c, 9, 49, 84
1, 107520, Note_on_c, 9, 54, 89
1, 107529, Note_off_c, 9, 54, 89
1, 107529, Note_off_c, 9, 49, 84
1, 107529, Note_off_c, 9, 36, 127
1, 107611, Control_c, 3, 1, 7
1, 107635, Control_c, 3, 1, 14
1, 107655, Control_c, 3, 1, 24
1, 107661, Note_off_c, 2, 39, 127
1, 107671, Note_off_c, 1, 27, 105
1, 107671, Control_c, 3, 1, 32
1, 107689, Control_c, 3, 1, 42
1, 107709, Control_c, 3, 1, 49
1, 107712, Note_on_c, 0, 54, 118
1, 107712, Note_on_c, 0, 49, 113
1, 107712, Note_on_c, 1, 39, 98
1, 107712, Note_on_c, 2, 51, 115
1, 107712, Note_on_c, 4, 63, 116
1, 107712, Note_on_c, 4, 75, 116
1, 107712, Note_on_c, 5, 49, 127
1, 107712, Note_on_c, 9, 42, 77
1, 107712, Note_on_c, 9, 54, 53
1, 107721, Note_off_c, 9, 54, 53
1, 107721, Note_off_c, 9, 42, 77
1, 107725, Control_c, 3, 1, 54
1, 107731, Note_off_c, 0, 27, 117
1, 107739, Note_off_c, 0, 49, 113
1, 107745, Note_off_c, 5, 49, 127
1, 107745, Control_c, 3, 1, 19
1, 107751, Note_off_c, 0, 54, 118
1, 107763, Note_off_c, 2, 51, 115
1, 107765, Control_c, 3, 1, 0
1, 107777, Note_off_c, 1, 39, 98
1, 107797, Note_off_c, 3, 66, 127
1, 107805, Note_off_c, 4, 75, 116
1, 107805, Note_off_c, 4, 63, 116
1, 107840, Note_on_c, 1, 27, 61
1, 107855, Pitch_bend_c, 3, 5952
1, 107871, Pitch_bend_c, 3, 2688
1, 107873, Note_off_c, 1, 27, 61
1, 107889, Pitch_bend_c, 3, 448
1, 107900, Note_on_c, 3, 63, 127
1, 107904, Note_on_c, 0, 54, 127
1, 107904, Note_on_c, 0, 49, 124
1, 107904, Note_on_c, 1, 37, 92
1, 107904, Note_on_c, 2, 49, 106
1, 107904, Note_on_c, 5, 51, 127
1, 107904, Note_on_c, 9, 39, 126
1, 107904, Note_on_c, 9, 40, 127
1, 107904, Note_on_c, 9, 42, 122
1, 107904, Note_on_c, 9, 36, 127
1, 107904, Note_on_c, 9, 54, 112
1, 107911, Pitch_bend_c, 3, 2240
1, 107913, Note_off_c, 9, 54, 112
1, 107913, Note_off_c, 9, 36, 127
1, 107913, Note_off_c, 9, 42, 122
1, 107913, Note_off_c, 9, 40, 127
1, 107913, Note_off_c, 9, 39, 126
1, 107927, Pitch_bend_c, 3, 4032
1, 107941, Pitch_bend_c, 3, 5696
1, 107945, Note_off_c, 0, 49, 124
1, 107947, Note_off_c, 5, 51, 127
1, 107955, Note_off_c, 0, 54, 127
1, 107957, Pitch_bend_c, 3, 7424
1, 107973, Pitch_bend_c, 3, 8128
1, 107981, Pitch_bend_c, 3, 8192
1, 108003, Note_off_c, 1, 37, 92
1, 108017, Note_off_c, 2, 49, 106
1, 108032, Note_on_c, 1, 39, 90
1, 108032, Note_on_c, 2, 51, 88
1, 108032, Note_on_c, 4, 63, 116
1, 108032, Note_on_c, 4, 75, 116
1, 108071, Note_off_c, 2, 51, 88
1, 108081, Note_off_c, 1, 39, 90
1, 108096, Note_on_c, 0, 39, 107
1, 108096, Note_on_c, 1, 27, 97
1, 108096, Note_on_c, 2, 39, 111
1, 108096, Note_on_c, 5, 49, 113
1, 108096, Note_on_c, 9, 42, 62
1, 108096, Note_on_c, 9, 54, 61
1, 108105, Note_off_c, 9, 54, 61
1, 108105, Note_off_c, 9, 42, 62
1, 108113, Note_off_c, 5, 49, 113
1, 108121, Note_off_c, 2, 39, 111
1, 108125, Note_off_c, 4, 75, 116
1, 108125, Note_off_c, 4, 63, 116
1, 108135, Control_c, 3, 1, 7
1, 108147, Note_off_c, 0, 39, 107
1, 108159, Control_c, 3, 1, 14
1, 108175, Control_c, 3, 1, 27
1, 108195, Control_c, 3, 1, 34
1, 108211, Control_c, 3, 1, 40
1, 108231, Control_c, 3, 1, 50
1, 108235, Note_off_c, 1, 27, 97
1, 108251, Control_c, 3, 1, 56
1, 108267, Control_c, 3, 1, 60
1, 108283, Control_c, 3, 1, 63
1, 108288, Note_on_c, 1, 30, 104
1, 108288, Note_on_c, 2, 54, 112
1, 108288, Note_on_c, 2, 49, 107
1, 108288, Note_on_c, 4, 54, 116
1, 108288, Note_on_c, 4, 66, 116
1, 108288, Note_on_c, 5, 51, 127
1, 108288, Note_on_c, 9, 42, 117
1, 108288, Note_on_c, 9, 36, 127
1, 108288, Note_on_c, 9, 54, 104
1, 108297, Note_off_c, 9, 54, 104
1, 108297, Note_off_c, 9, 36, 127
1, 108297, Note_off_c, 9, 42, 117
1, 108303, Control_c, 3, 1, 65
1, 108311, Note_off_c, 2, 54, 112
1, 108319, Control_c, 3, 1, 67
1, 108327, Note_off_c, 2, 49, 107
1, 108335, Note_off_c, 5, 51, 127
1, 108355, Control_c, 3, 1, 69
1, 108371, Note_off_c, 1, 30, 104
1, 108379, Control_c, 3, 1, 71
1, 108381, Note_off_c, 4, 66, 116
1, 108381, Note_off_c, 4, 54, 116
1, 108403, Control_c, 3, 1, 75
1, 108416, Note_on_c, 1, 32, 74
1, 108416, Note_on_c, 4, 56, 116
1, 108416, Note_on_c, 4, 68, 116
1, 108431, Control_c, 3, 1, 63
1, 108447, Control_c, 3, 1, 27
1, 108463, Note_off_c, 3, 63, 127
1, 108467, Control_c, 3, 1, 1
1, 108480, Note_on_c, 1, 34, 93
1, 108480, Note_on_c, 2, 39, 88
1, 108480, Note_on_c, 4, 58, 116
1, 108480, Note_on_c, 4, 70, 116
1, 108480, Note_on_c, 5, 49, 118
1, 108480, Note_on_c, 9, 42, 63
1, 108480, Note_on_c, 9, 54, 51
1, 108481, Note_off_c, 1, 32, 74
1, 108483, Control_c, 3, 1, 0
1, 108484, Note_on_c, 3, 61, 102
1, 108489, Note_off_c, 9, 54, 51
1, 108489, Note_off_c, 9, 42, 63
1, 108493, Note_off_c, 2, 39, 88
1, 108497, Note_off_c, 5, 49, 118
1, 108509, Note_off_c, 4, 68, 116
1, 108509, Note_off_c, 4, 56, 116
1, 108523, Note_off_c, 3, 61, 102
1, 108541, Note_off_c, 1, 34, 93
1, 108552, Note_on_c, 3, 58, 100
1, 108573, Note_off_c, 4, 70, 116
1, 108573, Note_off_c, 4, 58, 116
1, 108593, Note_off_c, 3, 58, 100
1, 108608, Note_on_c, 0, 49, 115
1, 108608, Note_on_c, 1, 37, 98
1, 108608, Note_on_c, 2, 51, 115
1, 108608, Note_on_c, 4, 61, 116
1, 108608, Note_on_c, 4, 73, 116
1, 108635, Pitch_bend_c, 3, 8000
1, 108643, Note_off_c, 2, 51, 115
1, 108643, Pitch_bend_c, 3, 4800
1, 108645, Note_off_c, 0, 49, 115
1, 108657, Pitch_bend_c, 3, 2240
1, 108672, Note_on_c, 5, 54, 127
1, 108672, Note_on_c, 9, 39, 122
1, 108672, Note_on_c, 9, 40, 127
1, 108672, Note_on_c, 9, 42, 126
1, 108672, Note_on_c, 9, 36, 127
1, 108672, Note_on_c, 9, 54, 106
1, 108673, Pitch_bend_c, 3, 1408
1, 108674, Note_on_c, 3, 63, 127
1, 108681, Note_off_c, 9, 54, 106
1, 108681, Note_off_c, 9, 36, 127
1, 108681, Note_off_c, 9, 42, 126
1, 108681, Note_off_c, 9, 40, 127
1, 108681, Note_off_c, 9, 39, 122
1, 108695, Pitch_bend_c, 3, 2112
1, 108711, Pitch_bend_c, 3, 3776
1, 108725, Pitch_bend_c, 3, 6400
1, 108739, Pitch_bend_c, 3, 8064
1, 108753, Pitch_bend_c, 3, 8192
1, 108763, Note_off_c, 5, 54, 127
1, 108783, Note_off_c, 1, 37, 98
1, 108797, Note_off_c, 4, 73, 116
1, 108797, Note_off_c, 4, 61, 116
1, 108800, Note_on_c, 0, 39, 97
1, 108800, Note_on_c, 1, 34, 88
1, 108800, Note_on_c, 2, 39, 94
1, 108800, Note_on_c, 4, 58, 116
1, 108800, Note_on_c, 4, 70, 116
1, 108800, Note_on_c, 5, 51, 113
1, 108811, Note_off_c, 2, 39, 94
1, 108841, Note_off_c, 4, 70, 116
1, 108841, Note_off_c, 4, 58, 116
1, 108843, Note_off_c, 5, 51, 113
1, 108849, Note_off_c, 1, 34, 88
1, 108851, Note_off_c, 0, 39, 97
1, 108864, Note_on_c, 0, 51, 124
1, 108864, Note_on_c, 1, 39, 100
1, 108864, Note_on_c, 2, 49, 108
1, 108864, Note_on_c, 4, 63, 116
1, 108864, Note_on_c, 4, 75, 116
1, 108864, Note_on_c, 5, 56, 125
1, 108864, Note_on_c, 9, 42, 64
1, 108864, Note_on_c, 9, 54, 59
1, 108867, Control_c, 3, 1, 16
1, 108873, Note_off_c, 9, 54, 59
1, 108873, Note_off_c, 9, 42, 64
1, 108901, Control_c, 3, 1, 30
1, 108929, Note_off_c, 5, 56, 125
1, 108933, Control_c, 3, 1, 39
1, 108945, Note_off_c, 1, 39, 100
1, 108949, Control_c, 3, 1, 53
1, 108957, Note_off_c, 4, 75, 116
1, 108957, Note_off_c, 4, 63, 116
1, 108969, Control_c, 3, 1, 63
1, 108975, Note_off_c, 2, 49, 108
1, 108977, Note_off_c, 0, 51, 124
1, 108989, Control_c, 3, 1, 72
1, 108992, Note_on_c, 0, 49, 120
1, 108992, Note_on_c, 1, 39, 97
1, 108992, Note_on_c, 2, 51, 96
1, 108992, Note_on_c, 4, 63, 116
1, 108992, Note_on_c, 4, 75, 116
1, 108992, Note_on_c, 5, 54, 127
1, 109007, Control_c, 3, 1, 78
1, 109021, Control_c, 3, 1, 82
1, 109025, Note_off_c, 2, 51, 96
1, 109035, Note_off_c, 0, 49, 120
1, 109039, Control_c, 3, 1, 86
1, 109043, Note_off_c, 4, 75, 116
1, 109043, Note_off_c, 4, 63, 116
1, 109056, Note_on_c, 0, 27, 110
1, 109056, Note_on_c, 1, 27, 104
1, 109056, Note_on_c, 2, 39, 127
1, 109056, Note_on_c, 9, 36, 127
1, 109056, Note_on_c, 9, 42, 109
1, 109056, Note_on_c, 9, 54, 112
1, 109059, Control_c, 3, 1, 89
1, 109061, Note_off_c, 5, 54, 127
1, 109065, Note_off_c, 9, 54, 112
1, 109065, Note_off_c, 9, 42, 109
1, 109065, Note_off_c, 9, 36, 127
1, 109065, Note_off_c, 1, 39, 97
1, 109083, Control_c, 3, 1, 68
1, 109107, Note_off_c, 3, 63, 127
1, 109111, Control_c, 3, 1, 25
1, 109117, Note_off_c, 2, 39, 127
1, 109129, Control_c, 3, 1, 0
1, 109139, Note_off_c, 0, 27, 110
1, 109184, Note_on_c, 0, 39, 98
1, 109219, Note_off_c, 1, 27, 104
1, 109231, Note_off_c, 0, 39, 98
1, 109248, Note_on_c, 0, 54, 127
1, 109248, Note_on_c, 0, 49, 108
1, 109248, Note_on_c, 1, 39, 104
1, 109248, Note_on_c, 2, 51, 127
1, 109248, Note_on_c, 4, 63, 116
1, 109248, Note_on_c, 4, 75, 116
1, 109248, Note_on_c, 5, 49, 127
1, 109248, Note_on_c, 9, 42, 67
1, 109248, Note_on_c, 9, 54, 66
1, 109257, Note_off_c, 9, 54, 66
1, 109257, Note_off_c, 9, 42, 67
1, 109269, Note_off_c, 0, 49, 108
1, 109279, Note_off_c, 5, 49, 127
1, 109289, Note_off_c, 0, 54, 127
1, 109293, Note_off_c, 2, 51, 127
1, 109297, Note_off_c, 4, 75, 116
1, 109297, Note_off_c, 4, 63, 116
1, 109307, Note_off_c, 1, 39, 104
1, 109376, Note_on_c, 1, 27, 79
1, 109411, Note_off_c, 1, 27, 79
1, 109440, Note_on_c, 0, 54, 127
1, 109440, Note_on_c, 0, 49, 123
1, 109440, Note_on_c, 1, 37, 96
1, 109440, Note_on_c, 2, 49, 115
1, 109440, Note_on_c, 4, 61, 115
1, 109440, Note_on_c, 4, 73, 115
1, 109440, Note_on_c, 5, 51, 127
1, 109440, Note_on_c, 9, 39, 126
1, 109440, Note_on_c, 9, 40, 127
1, 109440, Note_on_c, 9, 42, 124
1, 109440, Note_on_c, 9, 36, 127
1, 109440, Note_on_c, 9, 54, 110
1, 109449, Note_off_c, 9, 54, 110
1, 109449, Note_off_c, 9, 36, 127
1, 109449, Note_off_c, 9, 42, 124
1, 109449, Note_off_c, 9, 40, 127
1, 109449, Note_off_c, 9, 39, 126
1, 109477, Note_off_c, 0, 49, 123
1, 109491, Note_off_c, 0, 54, 127
1, 109527, Note_off_c, 5, 51, 127
1, 109533, Note_off_c, 4, 73, 115
1, 109533, Note_off_c, 4, 61, 115
1, 109561, Note_off_c, 2, 49, 115
1, 109568, Note_on_c, 1, 39, 98
1, 109568, Note_on_c, 2, 51, 94
1, 109568, Note_on_c, 4, 63, 115
1, 109568, Note_on_c, 4, 75, 115
1, 109568, Note_on_c, 5, 49, 111
1, 109571, Note_off_c, 1, 37, 96
1, 109587, Note_off_c, 5, 49, 111
1, 109609, Note_off_c, 2, 51, 94
1, 109615, Note_off_c, 4, 75, 115
1, 109615, Note_off_c, 4, 63, 115
1, 109632, Note_on_c, 0, 39, 105
1, 109632, Note_on_c, 2, 39, 108
1, 109632, Note_on_c, 5, 51, 127
1, 109632, Note_on_c, 9, 42, 73
1, 109632, Note_on_c, 9, 54, 52
1, 109641, Note_off_c, 9, 54, 52
1, 109641, Note_off_c, 9, 42, 73
1, 109641, Note_off_c, 1, 39, 98
1, 109657, Control_c, 3, 1, 8
1, 109671, Note_off_c, 2, 39, 108
1, 109677, Note_off_c, 5, 51, 127
1, 109677, Note_off_c, 0, 39, 105
1, 109689, Control_c, 3, 1, 15
1, 109709, Control_c, 3, 1, 12
1, 109729, Control_c, 3, 1, 7
1, 109750, Note_on_c, 3, 58, 122
1, 109756, Note_on_c, 9, 54, 65
1, 109760, Note_on_c, 1, 37, 77
1, 109761, Control_c, 3, 1, 7
1, 109765, Note_off_c, 9, 54, 65
1, 109777, Control_c, 3, 1, 0
1, 109781, Note_off_c, 3, 58, 122
1, 109797, Note_off_c, 1, 37, 77
1, 109824, Note_on_c, 0, 54, 118
1, 109824, Note_on_c, 0, 49, 114
1, 109824, Note_on_c, 1, 44, 105
1, 109824, Note_on_c, 2, 46, 117
1, 109824, Note_on_c, 2, 45, 120
1, 109824, Note_on_c, 4, 70, 115
1, 109824, Note_on_c, 4, 82, 115
1, 109824, Note_on_c, 5, 54, 127
1, 109824, Note_on_c, 9, 36, 127
1, 109824, Note_on_c, 9, 42, 107
1, 109824, Note_on_c, 9, 54, 112
1, 109832, Note_on_c, 3, 61, 127
1, 109833, Note_off_c, 9, 54, 112
1, 109833, Note_off_c, 9, 42, 107
1, 109833, Note_off_c, 9, 36, 127
1, 109845, Pitch_bend_c, 1, 11264
1, 109847, Note_off_c, 0, 49, 114
1, 109853, Note_off_c, 0, 54, 118
1, 109859, Note_off_c, 2, 45, 120
1, 109859, Pitch_bend_c, 1, 16383
1, 109869, Note_off_c, 3, 61, 127
1, 109875, Note_off_c, 5, 54, 127
1, 109881, Note_off_c, 4, 82, 115
1, 109881, Note_off_c, 4, 70, 115
1, 109897, Pitch_bend_c, 3, 7808
1, 109903, Pitch_bend_c, 3, 4608
1, 109917, Note_off_c, 1, 44, 105
1, 109917, Pitch_bend_c, 3, 2496
1, 109931, Pitch_bend_c, 3, 2240
1, 109941, Pitch_bend_c, 1, 16288
1, 109945, Pitch_bend_c, 1, 14752
1, 109946, Note_on_c, 3, 56, 127
1, 109957, Pitch_bend_c, 1, 11360
1, 109963, Pitch_bend_c, 3, 7936
1, 109971, Pitch_bend_c, 1, 8448
1, 109973, Pitch_bend_c, 3, 8192
1, 109983, Note_off_c, 2, 46, 117
1, 109989, Pitch_bend_c, 1, 8192
1, 110016, Note_on_c, 1, 42, 107
1, 110016, Note_on_c, 2, 49, 87
1, 110016, Note_on_c, 4, 68, 115
1, 110016, Note_on_c, 4, 80, 115
1, 110016, Note_on_c, 5, 51, 108
1, 110016, Note_on_c, 9, 42, 78
1, 110016, Note_on_c, 9, 36, 127
1, 110016, Note_on_c, 9, 54, 54
1, 110025, Note_off_c, 9, 54, 54
1, 110025, Note_off_c, 9, 36, 127
1, 110025, Note_off_c, 9, 42, 78
1, 110061, Note_off_c, 5, 51, 108
1, 110067, Note_off_c, 4, 80, 115
1, 110067, Note_off_c, 4, 68, 115
1, 110075, Control_c, 3, 1, 12
1, 110097, Note_off_c, 2, 49, 87
1, 110105, Control_c, 3, 1, 22
1, 110107, Note_off_c, 1, 42, 107
1, 110125, Control_c, 3, 1, 36
1, 110144, Note_on_c, 0, 56, 123
1, 110144, Note_on_c, 0, 51, 118
1, 110144, Note_on_c, 2, 45, 109
1, 110144, Note_on_c, 2, 46, 92
1, 110155, Note_off_c, 3, 56, 127
1, 110157, Control_c, 3, 1, 42
1, 110177, Control_c, 3, 1, 44
1, 110191, Note_off_c, 2, 46, 92
1, 110206, Note_on_c, 3, 56, 127
1, 110208, Note_on_c, 1, 42, 100
1, 110208, Note_on_c, 2, 44, 85
1, 110208, Note_on_c, 4, 66, 115
1, 110208, Note_on_c, 4, 78, 115
1, 110208, Note_on_c, 5, 56, 127
1, 110208, Note_on_c, 9, 39, 127
1, 110208, Note_on_c, 9, 40, 127
1, 110208, Note_on_c, 9, 42, 127
1, 110208, Note_on_c, 9, 36, 127
1, 110208, Note_on_c, 9, 54, 114
1, 110213, Note_off_c, 2, 45, 109
1, 110217, Note_off_c, 9, 54, 114
1, 110217, Note_off_c, 9, 36, 127
1, 110217, Note_off_c, 9, 42, 127
1, 110217, Note_off_c, 9, 40, 127
1, 110217, Note_off_c, 9, 39, 127
1, 110229, Control_c, 3, 1, 55
1, 110247, Control_c, 3, 1, 63
1, 110265, Control_c, 3, 1, 67
1, 110271, Note_off_c, 4, 78, 115
1, 110271, Note_off_c, 4, 66, 115
1, 110289, Note_off_c, 5, 56, 127
1, 110289, Control_c, 3, 1, 69
1, 110313, Note_off_c, 2, 44, 85
1, 110313, Control_c, 3, 1, 72
1, 110317, Note_off_c, 0, 51, 118
1, 110336, Note_on_c, 0, 39, 102
1, 110336, Note_on_c, 2, 42, 95
1, 110336, Note_on_c, 5, 54, 114
1, 110351, Control_c, 3, 1, 67
1, 110359, Note_off_c, 0, 56, 123
1, 110371, Control_c, 3, 1, 51
1, 110375, Note_off_c, 1, 42, 100
1, 110379, Note_off_c, 5, 54, 114
1, 110379, Note_off_c, 3, 56, 127
1, 110381, Note_off_c, 2, 42, 95
1, 110391, Note_off_c, 0, 39, 102
1, 110393, Control_c, 3, 1, 36
1, 110400, Note_on_c, 0, 54, 123
1, 110400, Note_on_c, 0, 49, 112
1, 110400, Note_on_c, 1, 39, 93
1, 110400, Note_on_c, 2, 44, 95
1, 110400, Note_on_c, 5, 51, 112
1, 110400, Note_on_c, 9, 42, 71
1, 110400, Note_on_c, 9, 36, 127
1, 110400, Note_on_c, 9, 54, 63
1, 110407, Control_c, 3, 1, 29
1, 110409, Note_off_c, 9, 54, 63
1, 110409, Note_off_c, 9, 36, 127
1, 110409, Note_off_c, 9, 42, 71
1, 110414, Note_on_c, 3, 54, 90
1, 110433, Note_off_c, 3, 54, 90
1, 110437, Note_off_c, 0, 49, 112
1, 110439, Note_off_c, 5, 51, 112
1, 110445, Note_off_c, 0, 54, 123
1, 110449, Control_c, 3, 1, 21
1, 110493, Control_c, 3, 1, 28
1, 110497, Note_off_c, 2, 44, 95
1, 110509, Note_off_c, 1, 39, 93
1, 110518, Note_on_c, 3, 56, 127
1, 110525, Control_c, 3, 1, 40
1, 110528, Note_on_c, 1, 37, 89
1, 110528, Note_on_c, 2, 42, 88
1, 110528, Note_on_c, 5, 54, 127
1, 110553, Control_c, 3, 1, 44
1, 110559, Note_off_c, 5, 54, 127
1, 110569, Note_off_c, 2, 42, 88
1, 110569, Control_c, 3, 1, 47
1, 110577, Note_off_c, 1, 37, 89
1, 110592, Note_on_c, 0, 27, 117
1, 110592, Note_on_c, 1, 27, 88
1, 110592, Note_on_c, 1, 29, 97
1, 110592, Note_on_c, 2, 39, 127
1, 110592, Note_on_c, 9, 36, 127
1, 110592, Note_on_c, 9, 42, 115
1, 110592, Note_on_c, 9, 54, 110
1, 110593, Control_c, 3, 1, 54
1, 110601, Note_off_c, 9, 54, 110
1, 110601, Note_off_c, 9, 42, 115
1, 110601, Note_off_c, 9, 36, 127
1, 110605, Note_off_c, 1, 29, 97
1, 110625, Control_c, 3, 1, 55
1, 110641, Control_c, 3, 1, 57
1, 110701, Control_c, 3, 1, 58
1, 110719, Control_c, 3, 1, 62
1, 110720, Note_on_c, 5, 51, 127
1, 110745, Note_off_c, 2, 39, 127
1, 110751, Control_c, 3, 1, 56
1, 110759, Note_off_c, 5, 51, 127
1, 110771, Control_c, 3, 1, 29
1, 110779, Note_off_c, 0, 27, 117
1, 110783, Note_off_c, 3, 56, 127
1, 110784, Note_on_c, 0, 49, 117
1, 110784, Note_on_c, 0, 54, 111
1, 110784, Note_on_c, 1, 39, 107
1, 110784, Note_on_c, 2, 51, 117
1, 110784, Note_on_c, 4, 63, 115
1, 110784, Note_on_c, 4, 75, 115
1, 110784, Note_on_c, 9, 42, 57
1, 110784, Note_on_c, 9, 54, 54
1, 110789, Control_c, 3, 1, 4
1, 110791, Note_off_c, 1, 27, 88
1, 110793, Note_off_c, 9, 54, 54
1, 110793, Note_off_c, 9, 42, 57
1, 110794, Note_on_c, 3, 54, 113
1, 110803, Note_off_c, 0, 54, 111
1, 110823, Control_c, 3, 1, 0
1, 110831, Note_off_c, 0, 49, 117
1, 110833, Note_off_c, 3, 54, 113
1, 110835, Note_off_c, 2, 51, 117
1, 110857, Note_off_c, 1, 39, 107
1, 110877, Note_off_c, 4, 75, 115
1, 110877, Note_off_c, 4, 63, 115
1, 110912, Note_on_c, 1, 27, 69
1, 110912, Note_on_c, 2, 39, 75
1, 110912, Note_on_c, 5, 54, 127
1, 110923, Note_off_c, 2, 39, 75
1, 110931, Note_off_c, 1, 27, 69
1, 110957, Note_off_c, 5, 54, 127
1, 110976, Note_on_c, 1, 37, 101
1, 110976, Note_on_c, 2, 49, 112
1, 110976, Note_on_c, 9, 39, 124
1, 110976, Note_on_c, 9, 40, 127
1, 110976, Note_on_c, 9, 42, 126
1, 110976, Note_on_c, 9, 36, 127
1, 110976, Note_on_c, 9, 54, 112
1, 110985, Note_off_c, 9, 54, 112
1, 110985, Note_off_c, 9, 36, 127
1, 110985, Note_off_c, 9, 42, 126
1, 110985, Note_off_c, 9, 40, 127
1, 110985, Note_off_c, 9, 39, 124
1, 111055, Note_off_c, 2, 49, 112
1, 111079, Note_off_c, 1, 37, 101
1, 111104, Note_on_c, 0, 54, 116
1, 111104, Note_on_c, 0, 49, 107
1, 111104, Note_on_c, 1, 39, 90
1, 111104, Note_on_c, 2, 51, 92
1, 111104, Note_on_c, 4, 63, 115
1, 111104, Note_on_c, 4, 75, 115
1, 111104, Note_on_c, 5, 56, 127
1, 111123, Note_off_c, 0, 49, 107
1, 111135, Note_off_c, 2, 51, 92
1, 111135, Note_off_c, 0, 54, 116
1, 111147, Note_off_c, 1, 39, 90
1, 111153, Note_off_c, 5, 56, 127
1, 111168, Note_on_c, 0, 27, 112
1, 111168, Note_on_c, 1, 27, 98
1, 111168, Note_on_c, 2, 39, 127
1, 111168, Note_on_c, 9, 42, 66
1, 111168, Note_on_c, 9, 54, 46
1, 111177, Note_off_c, 9, 54, 46
1, 111177, Note_off_c, 9, 42, 66
1, 111197, Note_off_c, 4, 75, 115
1, 111197, Note_off_c, 4, 63, 115
1, 111203, Note_off_c, 2, 39, 127
1, 111237, Note_off_c, 0, 27, 112
1, 111296, Note_on_c, 5, 54, 127
1, 111301, Note_off_c, 1, 27, 98
1, 111341, Note_off_c, 5, 54, 127
1, 111360, Note_on_c, 1, 30, 118
1, 111360, Note_on_c, 2, 54, 108
1, 111360, Note_on_c, 2, 49, 108
1, 111360, Note_on_c, 4, 54, 115
1, 111360, Note_on_c, 4, 66, 115
1, 111360, Note_on_c, 9, 36, 127
1, 111360, Note_on_c, 9, 42, 110
1, 111360, Note_on_c, 9, 54, 117
1, 111369, Note_off_c, 9, 54, 117
1, 111369, Note_off_c, 9, 42, 110
1, 111369, Note_off_c, 9, 36, 127
1, 111389, Note_off_c, 2, 54, 108
1, 111407, Note_off_c, 2, 49, 108
1, 111447, Note_off_c, 1, 30, 118
1, 111453, Note_off_c, 4, 66, 115
1, 111453, Note_off_c, 4, 54, 115
1, 111484, Note_on_c, 9, 54, 70
1, 111488, Note_on_c, 0, 39, 93
1, 111488, Note_on_c, 1, 32, 79
1, 111488, Note_on_c, 4, 56, 115
1, 111488, Note_on_c, 4, 68, 115
1, 111488, Note_on_c, 5, 51, 124
1, 111493, Note_off_c, 9, 54, 70
1, 111519, Note_off_c, 0, 39, 93
1, 111527, Note_off_c, 5, 51, 124
1, 111547, Note_off_c, 1, 32, 79
1, 111552, Note_on_c, 0, 49, 96
1, 111552, Note_on_c, 1, 34, 93
1, 111552, Note_on_c, 4, 58, 115
1, 111552, Note_on_c, 4, 70, 115
1, 111552, Note_on_c, 9, 42, 76
1, 111552, Note_on_c, 9, 54, 62
1, 111561, Note_off_c, 9, 54, 62
1, 111561, Note_off_c, 9, 42, 76
1, 111577, Note_off_c, 0, 49, 96
1, 111581, Note_off_c, 4, 68, 115
1, 111581, Note_off_c, 4, 56, 115
1, 111625, Note_off_c, 1, 34, 93
1, 111645, Note_off_c, 4, 70, 115
1, 111645, Note_off_c, 4, 58, 115
1, 111680, Note_on_c, 1, 37, 102
1, 111680, Note_on_c, 2, 54, 108
1, 111680, Note_on_c, 2, 49, 110
1, 111680, Note_on_c, 4, 61, 115
1, 111680, Note_on_c, 4, 73, 115
1, 111680, Note_on_c, 5, 49, 123
1, 111680, Note_on_c, 9, 46, 91
1, 111689, Note_off_c, 9, 46, 91
1, 111707, Note_off_c, 5, 49, 123
1, 111723, Note_off_c, 2, 54, 108
1, 111727, Note_off_c, 2, 49, 110
1, 111744, Note_on_c, 0, 51, 127
1, 111744, Note_on_c, 9, 39, 127
1, 111744, Note_on_c, 9, 40, 127
1, 111744, Note_on_c, 9, 42, 105
1, 111744, Note_on_c, 9, 36, 127
1, 111744, Note_on_c, 9, 54, 114
1, 111753, Note_off_c, 9, 54, 114
1, 111753, Note_off_c, 9, 36, 127
1, 111753, Note_off_c, 9, 42, 105
1, 111753, Note_off_c, 9, 40, 127
1, 111753, Note_off_c, 9, 39, 127
1, 111813, Note_off_c, 0, 51, 127
1, 111845, Note_off_c, 1, 37, 102
1, 111869, Note_off_c, 4, 73, 115
1, 111869, Note_off_c, 4, 61, 115
1, 111872, Note_on_c, 0, 39, 103
1, 111872, Note_on_c, 1, 34, 87
1, 111872, Note_on_c, 4, 58, 115
1, 111872, Note_on_c, 4, 70, 115
1, 111872, Note_on_c, 5, 49, 110
1, 111891, Note_off_c, 5, 49, 110
1, 111913, Note_off_c, 4, 70, 115
1, 111913, Note_off_c, 4, 58, 115
1, 111923, Note_off_c, 1, 34, 87
1, 111931, Note_off_c, 0, 39, 103
1, 111936, Note_on_c, 0, 49, 127
1, 111936, Note_on_c, 1, 39, 101
1, 111936, Note_on_c, 2, 54, 112
1, 111936, Note_on_c, 2, 49, 112
1, 111936, Note_on_c, 4, 63, 115
1, 111936, Note_on_c, 4, 75, 115
1, 111936, Note_on_c, 5, 51, 127
1, 111936, Note_on_c, 9, 42, 87
1, 111936, Note_on_c, 9, 54, 70
1, 111945, Note_off_c, 9, 54, 70
1, 111945, Note_off_c, 9, 42, 87
1, 111985, Note_off_c, 5, 51, 127
1, 112021, Note_off_c, 1, 39, 101
1, 112029, Note_off_c, 4, 75, 115
1, 112029, Note_off_c, 4, 63, 115
1, 112045, Note_off_c, 0, 49, 127
1, 112060, Note_on_c, 9, 54, 71
1, 112064, Note_on_c, 0, 51, 125
1, 112064, Note_on_c, 1, 39, 87
1, 112064, Note_on_c, 4, 63, 115
1, 112064, Note_on_c, 4, 75, 115
1, 112064, Note_on_c, 5, 49, 98
1, 112069, Note_off_c, 9, 54, 71
1, 112077, Note_off_c, 5, 49, 98
1, 112109, Note_off_c, 0, 51, 125
1, 112115, Note_off_c, 4, 75, 115
1, 112115, Note_off_c, 4, 63, 115
1, 112115, Note_off_c, 2, 54, 112
1, 112128, Note_on_c, 0, 27, 118
1, 112128, Note_on_c, 1, 27, 107
1, 112128, Note_on_c, 2, 39, 111
1, 112128, Note_on_c, 9, 42, 84
1, 112128, Note_on_c, 9, 36, 127
1, 112128, Note_on_c, 9, 54, 114
1, 112137, Note_off_c, 9, 54, 114
1, 112137, Note_off_c, 9, 36, 127
1, 112137, Note_off_c, 9, 42, 84
1, 112137, Note_off_c, 2, 49, 112
1, 112149, Note_off_c, 1, 39, 87
1, 112245, Note_off_c, 2, 39, 111
1, 112256, Note_on_c, 5, 51, 118
1, 112289, Note_off_c, 5, 51, 118
1, 112295, Note_off_c, 0, 27, 118
1, 112303, Note_off_c, 1, 27, 107
1, 112320, Note_on_c, 0, 54, 122
1, 112320, Note_on_c, 0, 49, 88
1, 112320, Note_on_c, 1, 39, 107
1, 112320, Note_on_c, 2, 51, 114
1, 112320, Note_on_c, 4, 63, 115
1, 112320, Note_on_c, 4, 75, 115
1, 112320, Note_on_c, 9, 42, 78
1, 112320, Note_on_c, 9, 54, 56
1, 112329, Note_off_c, 9, 54, 56
1, 112329, Note_off_c, 9, 42, 78
1, 112339, Note_off_c, 0, 49, 88
1, 112361, Note_off_c, 0, 54, 122
1, 112369, Note_off_c, 4, 75, 115
1, 112369, Note_off_c, 4, 63, 115
1, 112373, Note_off_c, 2, 51, 114
1, 112389, Note_off_c, 1, 39, 107
1, 112448, Note_on_c, 1, 27, 72
1, 112448, Note_on_c, 5, 54, 121
1, 112477, Note_off_c, 5, 54, 121
1, 112485, Note_off_c, 1, 27, 72
1, 112512, Note_on_c, 0, 39, 95
1, 112512, Note_on_c, 1, 37, 102
1, 112512, Note_on_c, 2, 49, 121
1, 112512, Note_on_c, 4, 61, 115
1, 112512, Note_on_c, 4, 73, 115
1, 112512, Note_on_c, 9, 39, 127
1, 112512, Note_on_c, 9, 42, 120
1, 112512, Note_on_c, 9, 40, 126
1, 112512, Note_on_c, 9, 36, 127
1, 112512, Note_on_c, 9, 54, 112
1, 112521, Note_off_c, 9, 54, 112
1, 112521, Note_off_c, 9, 36, 127
1, 112521, Note_off_c, 9, 40, 126
1, 112521, Note_off_c, 9, 42, 120
1, 112521, Note_off_c, 9, 39, 127
1, 112573, Note_off_c, 0, 39, 95
1, 112605, Note_off_c, 4, 73, 115
1, 112605, Note_off_c, 4, 61, 115
1, 112621, Note_off_c, 1, 37, 102
1, 112640, Note_on_c, 0, 54, 121
1, 112640, Note_on_c, 0, 49, 110
1, 112640, Note_on_c, 1, 39, 101
1, 112640, Note_on_c, 4, 63, 115
1, 112640, Note_on_c, 4, 75, 115
1, 112640, Note_on_c, 5, 51, 110
1, 112649, Note_off_c, 2, 49, 121
1, 112663, Note_off_c, 5, 51, 110
1, 112665, Note_off_c, 0, 49, 110
1, 112683, Note_off_c, 0, 54, 121
1, 112687, Note_off_c, 4, 75, 115
1, 112687, Note_off_c, 4, 63, 115
1, 112697, Note_off_c, 1, 39, 101
1, 112704, Note_on_c, 0, 27, 105
1, 112704, Note_on_c, 2, 51, 110
1, 112704, Note_on_c, 5, 56, 123
1, 112704, Note_on_c, 9, 42, 70
1, 112704, Note_on_c, 9, 36, 127
1, 112704, Note_on_c, 9, 54, 57
1, 112713, Note_off_c, 9, 54, 57
1, 112713, Note_off_c, 9, 36, 127
1, 112713, Note_off_c, 9, 42, 70
1, 112747, Note_off_c, 5, 56, 123
1, 112759, Note_off_c, 0, 27, 105
1, 112761, Note_off_c, 2, 51, 110
1, 112896, Note_on_c, 0, 58, 127
1, 112896, Note_on_c, 0, 57, 127
1, 112896, Note_on_c, 0, 56, 125
1, 112896, Note_on_c, 0, 61, 118
1, 112896, Note_on_c, 1, 44, 102
1, 112896, Note_on_c, 2, 44, 110
1, 112896, Note_on_c, 4, 70, 115
1, 112896, Note_on_c, 4, 82, 115
1, 112896, Note_on_c, 5, 54, 127
1, 112896, Note_on_c, 9, 42, 113
1, 112896, Note_on_c, 9, 36, 127
1, 112896, Note_on_c, 9, 54, 117
1, 112905, Note_off_c, 9, 54, 117
1, 112905, Note_off_c, 9, 36, 127
1, 112905, Note_off_c, 9, 42, 113
1, 112906, Note_on_c, 3, 68, 127
1, 112927, Note_off_c, 0, 56, 125
1, 112929, Pitch_bend_c, 1, 9760
1, 112933, Pitch_bend_c, 3, 9376
1, 112935, Note_off_c, 0, 57, 127
1, 112939, Pitch_bend_c, 3, 10912
1, 112941, Pitch_bend_c, 1, 11456
1, 112949, Note_off_c, 5, 54, 127
1, 112953, Note_off_c, 4, 82, 115
1, 112953, Note_off_c, 4, 70, 115
1, 112953, Pitch_bend_c, 3, 12064
1, 112955, Note_off_c, 2, 44, 110
1, 112959, Pitch_bend_c, 1, 13824
1, 112967, Pitch_bend_c, 3, 11968
1, 112969, Pitch_bend_c, 1, 14144
1, 112981, Pitch_bend_c, 1, 14208
1, 112981, Pitch_bend_c, 3, 9152
1, 112989, Note_off_c, 1, 44, 102
1, 113001, Pitch_bend_c, 1, 13888
1, 113005, Note_off_c, 0, 58, 127
1, 113013, Pitch_bend_c, 1, 12160
1, 113013, Pitch_bend_c, 3, 8256
1, 113017, Pitch_bend_c, 3, 8192
1, 113027, Pitch_bend_c, 1, 10176
1, 113039, Pitch_bend_c, 1, 8736
1, 113043, Note_off_c, 3, 68, 127
1, 113053, Pitch_bend_c, 1, 8320
1, 113055, Pitch_bend_c, 1, 8192
1, 113080, Note_on_c, 3, 66, 127
1, 113088, Note_on_c, 0, 56, 111
1, 113088, Note_on_c, 1, 42, 100
1, 113088, Note_on_c, 2, 45, 105
1, 113088, Note_on_c, 4, 68, 115
1, 113088, Note_on_c, 4, 80, 115
1, 113088, Note_on_c, 5, 51, 114
1, 113088, Note_on_c, 9, 42, 75
1, 113088, Note_on_c, 9, 54, 64
1, 113095, Note_off_c, 0, 61, 118
1, 113097, Note_off_c, 9, 54, 64
1, 113097, Note_off_c, 9, 42, 75
1, 113119, Note_off_c, 5, 51, 114
1, 113135, Pitch_bend_c, 1, 9696
1, 113139, Note_off_c, 4, 80, 115
1, 113139, Note_off_c, 4, 68, 115
1, 113149, Note_off_c, 0, 56, 111
1, 113149, Pitch_bend_c, 1, 13088
1, 113159, Note_off_c, 3, 66, 127
1, 113163, Pitch_bend_c, 1, 16160
1, 113179, Pitch_bend_c, 1, 16383
1, 113183, Note_off_c, 2, 45, 105
1, 113197, Note_off_c, 1, 42, 100
1, 113216, Note_on_c, 2, 46, 98
1, 113223, Pitch_bend_c, 1, 14656
1, 113235, Control_c, 3, 1, 9
1, 113237, Pitch_bend_c, 1, 12256
1, 113247, Pitch_bend_c, 1, 8352
1, 113251, Control_c, 3, 1, 21
1, 113267, Pitch_bend_c, 1, 8192
1, 113269, Control_c, 3, 1, 30
1, 113280, Note_on_c, 0, 54, 127
1, 113280, Note_on_c, 1, 42, 109
1, 113280, Note_on_c, 4, 66, 115
1, 113280, Note_on_c, 4, 78, 115
1, 113280, Note_on_c, 5, 49, 112
1, 113280, Note_on_c, 9, 39, 124
1, 113280, Note_on_c, 9, 42, 127
1, 113280, Note_on_c, 9, 40, 127
1, 113280, Note_on_c, 9, 36, 127
1, 113280, Note_on_c, 9, 54, 110
1, 113287, Note_off_c, 2, 46, 98
1, 113289, Note_off_c, 9, 54, 110
1, 113289, Note_off_c, 9, 36, 127
1, 113289, Note_off_c, 9, 40, 127
1, 113289, Note_off_c, 9, 42, 127
1, 113289, Note_off_c, 9, 39, 124
1, 113289, Control_c, 3, 1, 34
1, 113292, Note_on_c, 3, 68, 127
1, 113305, Note_off_c, 5, 49, 112
1, 113321, Control_c, 3, 1, 42
1, 113341, Control_c, 3, 1, 50
1, 113343, Note_off_c, 4, 78, 115
1, 113343, Note_off_c, 4, 66, 115
1, 113355, Note_off_c, 0, 54, 127
1, 113361, Control_c, 3, 1, 54
1, 113379, Control_c, 3, 1, 55
1, 113399, Control_c, 3, 1, 56
1, 113408, Note_on_c, 2, 49, 110
1, 113413, Control_c, 3, 1, 57
1, 113431, Control_c, 3, 1, 60
1, 113445, Control_c, 1, 1, 10
1, 113451, Note_off_c, 1, 42, 109
1, 113453, Control_c, 3, 1, 58
1, 113461, Control_c, 1, 1, 24
1, 113472, Note_on_c, 0, 56, 125
1, 113472, Note_on_c, 1, 39, 97
1, 113472, Note_on_c, 5, 51, 127
1, 113472, Note_on_c, 9, 42, 82
1, 113472, Note_on_c, 9, 54, 57
1, 113473, Control_c, 3, 1, 38
1, 113479, Control_c, 1, 1, 10
1, 113481, Note_off_c, 9, 54, 57
1, 113481, Note_off_c, 9, 42, 82
1, 113481, Note_off_c, 2, 49, 110
1, 113485, Note_off_c, 3, 68, 127
1, 113491, Control_c, 1, 1, 5
1, 113503, Control_c, 3, 1, 26
1, 113511, Control_c, 1, 1, 0
1, 113533, Note_off_c, 5, 51, 127
1, 113539, Control_c, 3, 1, 26
1, 113545, Note_off_c, 0, 56, 125
1, 113553, Note_off_c, 1, 39, 97
1, 113571, Control_c, 3, 1, 31
1, 113599, Control_c, 3, 1, 29
1, 113600, Note_on_c, 0, 54, 115
1, 113600, Note_on_c, 1, 37, 90
1, 113600, Note_on_c, 2, 51, 117
1, 113604, Note_on_c, 3, 66, 127
1, 113623, Control_c, 3, 1, 34
1, 113629, Note_off_c, 0, 54, 115
1, 113639, Note_off_c, 2, 51, 117
1, 113639, Note_off_c, 1, 37, 90
1, 113651, Control_c, 3, 1, 36
1, 113664, Note_on_c, 0, 27, 114
1, 113664, Note_on_c, 1, 27, 105
1, 113664, Note_on_c, 2, 39, 127
1, 113664, Note_on_c, 9, 36, 127
1, 113664, Note_on_c, 9, 49, 84
1, 113665, Control_c, 3, 1, 39
1, 113673, Note_off_c, 9, 49, 84
1, 113673, Note_off_c, 9, 36, 127
1, 113687, Control_c, 3, 1, 45
1, 113707, Control_c, 3, 1, 61
1, 113737, Control_c, 3, 1, 75
1, 113753, Note_off_c, 0, 27, 114
1, 113757, Control_c, 3, 1, 84
1, 113773, Control_c, 3, 1, 90
1, 113795, Control_c, 3, 1, 94
1, 113805, Note_off_c, 2, 39, 127
1, 113815, Note_off_c, 1, 27, 105
1, 113815, Control_c, 3, 1, 100
1, 113847, Control_c, 3, 1, 103
1, 113856, Note_on_c, 1, 39, 98
1, 113856, Note_on_c, 2, 51, 115
1, 113856, Note_on_c, 4, 63, 116
1, 113856, Note_on_c, 4, 75, 116
1, 113856, Note_on_c, 5, 51, 127
1, 113856, Note_on_c, 9, 42, 77
1, 113865, Note_off_c, 9, 42, 77
1, 113865, Control_c, 3, 1, 106
1, 113897, Control_c, 3, 1, 105
1, 113899, Note_off_c, 5, 51, 127
1, 113905, Control_c, 3, 1, 99
1, 113907, Note_off_c, 2, 51, 115
1, 113907, Note_off_c, 3, 66, 127
1, 113921, Note_off_c, 1, 39, 98
1, 113923, Control_c, 3, 1, 61
1, 113949, Note_off_c, 4, 75, 116
1, 113949, Note_off_c, 4, 63, 116
1, 113957, Control_c, 3, 1, 54
1, 113971, Control_c, 3, 1, 52
1, 113984, Note_on_c, 1, 27, 61
1, 113988, Note_on_c, 3, 61, 127
1, 114009, Control_c, 3, 1, 67
1, 114017, Note_off_c, 1, 27, 61
1, 114033, Control_c, 3, 1, 56
1, 114048, Note_on_c, 1, 37, 92
1, 114048, Note_on_c, 2, 49, 106
1, 114048, Note_on_c, 5, 49, 108
1, 114048, Note_on_c, 9, 39, 126
1, 114048, Note_on_c, 9, 40, 127
1, 114048, Note_on_c, 9, 42, 122
1, 114048, Note_on_c, 9, 36, 127
1, 114048, Note_on_c, 9, 54, 99
1, 114049, Note_off_c, 3, 61, 127
1, 114057, Note_off_c, 9, 54, 99
1, 114057, Note_off_c, 9, 36, 127
1, 114057, Note_off_c, 9, 42, 122
1, 114057, Note_off_c, 9, 40, 127
1, 114057, Note_off_c, 9, 39, 126
1, 114065, Note_off_c, 5, 49, 108
1, 114067, Control_c, 3, 1, 52
1, 114096, Note_on_c, 3, 63, 121
1, 114103, Control_c, 3, 1, 56
1, 114133, Control_c, 3, 1, 63
1, 114147, Note_off_c, 1, 37, 92
1, 114155, Control_c, 3, 1, 69
1, 114161, Note_off_c, 2, 49, 106
1, 114171, Control_c, 3, 1, 72
1, 114176, Note_on_c, 1, 39, 90
1, 114176, Note_on_c, 2, 51, 88
1, 114176, Note_on_c, 4, 63, 116
1, 114176, Note_on_c, 4, 75, 116
1, 114176, Note_on_c, 5, 51, 127
1, 114187, Control_c, 3, 1, 78
1, 114205, Control_c, 3, 1, 85
1, 114213, Note_off_c, 5, 51, 127
1, 114215, Note_off_c, 2, 51, 88
1, 114225, Note_off_c, 1, 39, 90
1, 114225, Control_c, 3, 1, 91
1, 114240, Note_on_c, 0, 54, 124
1, 114240, Note_on_c, 0, 49, 107
1, 114240, Note_on_c, 1, 27, 97
1, 114240, Note_on_c, 2, 39, 111
1, 114240, Note_on_c, 9, 42, 62
1, 114243, Control_c, 3, 1, 94
1, 114249, Note_off_c, 9, 42, 62
1, 114251, Note_off_c, 0, 49, 107
1, 114259, Control_c, 3, 1, 97
1, 114265, Note_off_c, 2, 39, 111
1, 114269, Note_off_c, 4, 75, 116
1, 114269, Note_off_c, 4, 63, 116
1, 114271, Note_off_c, 0, 54, 124
1, 114279, Control_c, 3, 1, 100
1, 114297, Control_c, 3, 1, 102
1, 114325, Control_c, 3, 1, 104
1, 114337, Control_c, 3, 1, 107
1, 114357, Control_c, 3, 1, 108
1, 114375, Control_c, 3, 1, 102
1, 114379, Note_off_c, 1, 27, 97
1, 114409, Control_c, 3, 1, 83
1, 114432, Note_on_c, 0, 54, 127
1, 114432, Note_on_c, 0, 49, 122
1, 114432, Note_on_c, 1, 30, 104
1, 114432, Note_on_c, 2, 54, 112
1, 114432, Note_on_c, 2, 49, 107
1, 114432, Note_on_c, 4, 54, 116
1, 114432, Note_on_c, 4, 66, 116
1, 114432, Note_on_c, 5, 51, 127
1, 114432, Note_on_c, 9, 42, 117
1, 114432, Note_on_c, 9, 36, 127
1, 114441, Note_off_c, 9, 36, 127
1, 114441, Note_off_c, 9, 42, 117
1, 114441, Control_c, 3, 1, 69
1, 114455, Note_off_c, 2, 54, 112
1, 114459, Control_c, 3, 1, 56
1, 114471, Note_off_c, 2, 49, 107
1, 114475, Note_off_c, 5, 51, 127
1, 114475, Control_c, 3, 1, 48
1, 114497, Control_c, 3, 1, 38
1, 114499, Note_off_c, 0, 49, 122
1, 114511, Control_c, 3, 1, 28
1, 114515, Note_off_c, 1, 30, 104
1, 114525, Note_off_c, 4, 66, 116
1, 114525, Note_off_c, 4, 54, 116
1, 114527, Note_off_c, 0, 54, 127
1, 114529, Control_c, 3, 1, 25
1, 114549, Control_c, 3, 1, 18
1, 114560, Note_on_c, 1, 32, 74
1, 114560, Note_on_c, 4, 56, 116
1, 114560, Note_on_c, 4, 68, 116
1, 114565, Control_c, 3, 1, 11
1, 114583, Control_c, 3, 1, 0
1, 114599, Note_off_c, 3, 63, 121
1, 114624, Note_on_c, 0, 39, 104
1, 114624, Note_on_c, 1, 34, 93
1, 114624, Note_on_c, 2, 39, 88
1, 114624, Note_on_c, 4, 58, 116
1, 114624, Note_on_c, 4, 70, 116
1, 114624, Note_on_c, 9, 42, 63
1, 114625, Note_off_c, 1, 32, 74
1, 114633, Note_off_c, 9, 42, 63
1, 114637, Note_off_c, 2, 39, 88
1, 114638, Note_on_c, 3, 61, 116
1, 114653, Note_off_c, 4, 68, 116
1, 114653, Note_off_c, 4, 56, 116
1, 114667, Note_off_c, 0, 39, 104
1, 114685, Note_off_c, 1, 34, 93
1, 114695, Note_off_c, 3, 61, 116
1, 114717, Note_off_c, 4, 70, 116
1, 114717, Note_off_c, 4, 58, 116
1, 114752, Note_on_c, 0, 54, 118
1, 114752, Note_on_c, 0, 49, 109
1, 114752, Note_on_c, 1, 37, 98
1, 114752, Note_on_c, 2, 51, 115
1, 114752, Note_on_c, 4, 61, 116
1, 114752, Note_on_c, 4, 73, 116
1, 114752, Note_on_c, 5, 54, 127
1, 114756, Note_on_c, 3, 58, 95
1, 114773, Note_off_c, 3, 58, 95
1, 114781, Note_off_c, 0, 49, 109
1, 114787, Note_off_c, 2, 51, 115
1, 114789, Note_off_c, 0, 54, 118
1, 114795, Note_off_c, 5, 54, 127
1, 114816, Note_on_c, 9, 39, 122
1, 114816, Note_on_c, 9, 40, 127
1, 114816, Note_on_c, 9, 42, 126
1, 114816, Note_on_c, 9, 36, 127
1, 114816, Note_on_c, 9, 54, 106
1, 114825, Note_off_c, 9, 54, 106
1, 114825, Note_off_c, 9, 36, 127
1, 114825, Note_off_c, 9, 42, 126
1, 114825, Note_off_c, 9, 40, 127
1, 114825, Note_off_c, 9, 39, 122
1, 114832, Note_on_c, 3, 63, 121
1, 114907, Control_c, 3, 1, 8
1, 114925, Control_c, 3, 1, 20
1, 114927, Note_off_c, 1, 37, 98
1, 114941, Note_off_c, 4, 73, 116
1, 114941, Note_off_c, 4, 61, 116
1, 114943, Control_c, 3, 1, 35
1, 114944, Note_on_c, 0, 39, 108
1, 114944, Note_on_c, 1, 34, 88
1, 114944, Note_on_c, 2, 39, 94
1, 114944, Note_on_c, 4, 58, 116
1, 114944, Note_on_c, 4, 70, 116
1, 114944, Note_on_c, 5, 51, 105
1, 114955, Note_off_c, 2, 39, 94
1, 114967, Note_off_c, 5, 51, 105
1, 114967, Control_c, 3, 1, 46
1, 114985, Note_off_c, 4, 70, 116
1, 114985, Note_off_c, 4, 58, 116
1, 114993, Note_off_c, 1, 34, 88
1, 115005, Control_c, 3, 1, 41
1, 115008, Note_on_c, 0, 56, 120
1, 115008, Note_on_c, 0, 51, 112
1, 115008, Note_on_c, 1, 39, 100
1, 115008, Note_on_c, 2, 49, 108
1, 115008, Note_on_c, 4, 63, 116
1, 115008, Note_on_c, 4, 75, 116
1, 115008, Note_on_c, 5, 56, 127
1, 115008, Note_on_c, 9, 42, 64
1, 115017, Note_off_c, 9, 42, 64
1, 115017, Note_off_c, 0, 39, 108
1, 115043, Control_c, 3, 1, 32
1, 115057, Note_off_c, 0, 51, 112
1, 115069, Note_off_c, 5, 56, 127
1, 115069, Control_c, 3, 1, 26
1, 115083, Note_off_c, 3, 63, 121
1, 115089, Note_off_c, 1, 39, 100
1, 115089, Note_off_c, 0, 56, 120
1, 115093, Control_c, 3, 1, 19
1, 115101, Note_off_c, 4, 75, 116
1, 115101, Note_off_c, 4, 63, 116
1, 115111, Control_c, 3, 1, 0
1, 115119, Note_off_c, 2, 49, 108
1, 115136, Note_on_c, 0, 54, 113
1, 115136, Note_on_c, 0, 51, 99
1, 115136, Note_on_c, 1, 39, 97
1, 115136, Note_on_c, 2, 51, 96
1, 115136, Note_on_c, 4, 63, 116
1, 115136, Note_on_c, 4, 75, 116
1, 115136, Note_on_c, 5, 54, 109
1, 115151, Note_off_c, 0, 51, 99
1, 115169, Note_off_c, 5, 54, 109
1, 115169, Note_off_c, 2, 51, 96
1, 115175, Note_off_c, 0, 54, 113
1, 115187, Note_off_c, 4, 75, 116
1, 115187, Note_off_c, 4, 63, 116
1, 115200, Note_on_c, 0, 27, 112
1, 115200, Note_on_c, 1, 27, 104
1, 115200, Note_on_c, 2, 39, 127
1, 115200, Note_on_c, 9, 36, 127
1, 115200, Note_on_c, 9, 42, 109
1, 115209, Note_off_c, 9, 42, 109
1, 115209, Note_off_c, 9, 36, 127
1, 115209, Note_off_c, 1, 39, 97
1, 115261, Note_off_c, 2, 39, 127
1, 115283, Note_off_c, 0, 27, 112
1, 115363, Note_off_c, 1, 27, 104
1, 115392, Note_on_c, 0, 54, 102
1, 115392, Note_on_c, 0, 49, 104
1, 115392, Note_on_c, 1, 39, 104
1, 115392, Note_on_c, 2, 51, 127
1, 115392, Note_on_c, 4, 63, 116
1, 115392, Note_on_c, 4, 75, 116
1, 115392, Note_on_c, 5, 51, 127
1, 115392, Note_on_c, 9, 42, 67
1, 115401, Note_off_c, 9, 42, 67
1, 115417, Note_off_c, 0, 49, 104
1, 115421, Note_off_c, 0, 54, 102
1, 115437, Note_off_c, 2, 51, 127
1, 115441, Note_off_c, 4, 75, 116
1, 115441, Note_off_c, 4, 63, 116
1, 115443, Note_off_c, 5, 51, 127
1, 115451, Note_off_c, 1, 39, 104
1, 115520, Note_on_c, 1, 27, 79
1, 115555, Note_off_c, 1, 27, 79
1, 115584, Note_on_c, 0, 39, 101
1, 115584, Note_on_c, 1, 37, 96
1, 115584, Note_on_c, 2, 49, 115
1, 115584, Note_on_c, 4, 61, 115
1, 115584, Note_on_c, 4, 73, 115
1, 115584, Note_on_c, 5, 49, 108
1, 115584, Note_on_c, 9, 39, 126
1, 115584, Note_on_c, 9, 40, 127
1, 115584, Note_on_c, 9, 42, 124
1, 115584, Note_on_c, 9, 36, 127
1, 115584, Note_on_c, 9, 54, 108
1, 115593, Note_off_c, 9, 54, 108
1, 115593, Note_off_c, 9, 36, 127
1, 115593, Note_off_c, 9, 42, 124
1, 115593, Note_off_c, 9, 40, 127
1, 115593, Note_off_c, 9, 39, 126
1, 115601, Note_off_c, 5, 49, 108
1, 115643, Note_off_c, 0, 39, 101
1, 115677, Note_off_c, 4, 73, 115
1, 115677, Note_off_c, 4, 61, 115
1, 115705, Note_off_c, 2, 49, 115
1, 115712, Note_on_c, 0, 54, 109
1, 115712, Note_on_c, 0, 49, 90
1, 115712, Note_on_c, 1, 39, 98
1, 115712, Note_on_c, 2, 51, 94
1, 115712, Note_on_c, 4, 63, 115
1, 115712, Note_on_c, 4, 75, 115
1, 115715, Note_off_c, 1, 37, 96
1, 115725, Note_off_c, 0, 49, 90
1, 115749, Note_off_c, 0, 54, 109
1, 115753, Note_off_c, 2, 51, 94
1, 115759, Note_off_c, 4, 75, 115
1, 115759, Note_off_c, 4, 63, 115
1, 115776, Note_on_c, 0, 27, 108
1, 115776, Note_on_c, 2, 39, 108
1, 115776, Note_on_c, 5, 51, 124
1, 115776, Note_on_c, 9, 42, 73
1, 115785, Note_off_c, 9, 42, 73
1, 115785, Note_off_c, 1, 39, 98
1, 115811, Note_off_c, 5, 51, 124
1, 115815, Note_off_c, 2, 39, 108
1, 115843, Note_off_c, 0, 27, 108
1, 115904, Note_on_c, 0, 39, 93
1, 115904, Note_on_c, 1, 37, 77
1, 115933, Note_off_c, 0, 39, 93
1, 115941, Note_off_c, 1, 37, 77
1, 115968, Note_on_c, 0, 54, 127
1, 115968, Note_on_c, 0, 49, 115
1, 115968, Note_on_c, 1, 44, 105
1, 115968, Note_on_c, 2, 46, 117
1, 115968, Note_on_c, 2, 45, 120
1, 115968, Note_on_c, 3, 61, 127
1, 115968, Note_on_c, 4, 70, 115
1, 115968, Note_on_c, 4, 82, 115
1, 115968, Note_on_c, 5, 54, 127
1, 115968, Note_on_c, 9, 36, 127
1, 115968, Note_on_c, 9, 42, 107
1, 115977, Note_off_c, 9, 42, 107
1, 115977, Note_off_c, 9, 36, 127
1, 115989, Pitch_bend_c, 1, 8704
1, 115991, Note_off_c, 0, 49, 115
1, 115991, Pitch_bend_c, 1, 13184
1, 115997, Note_off_c, 3, 61, 127
1, 116003, Note_off_c, 2, 45, 120
1, 116007, Note_off_c, 5, 54, 127
1, 116007, Pitch_bend_c, 1, 16383
1, 116013, Note_off_c, 0, 54, 127
1, 116025, Note_off_c, 4, 82, 115
1, 116025, Note_off_c, 4, 70, 115
1, 116039, Pitch_bend_c, 3, 7360
1, 116049, Pitch_bend_c, 3, 4736
1, 116061, Note_off_c, 1, 44, 105
1, 116061, Pitch_bend_c, 3, 2368
1, 116084, Note_on_c, 3, 56, 127
1, 116085, Pitch_bend_c, 1, 16288
1, 116089, Pitch_bend_c, 1, 13792
1, 116089, Pitch_bend_c, 3, 7552
1, 116101, Pitch_bend_c, 3, 8192
1, 116107, Pitch_bend_c, 1, 10112
1, 116123, Pitch_bend_c, 1, 8448
1, 116127, Note_off_c, 2, 46, 117
1, 116133, Pitch_bend_c, 1, 8192
1, 116160, Note_on_c, 0, 39, 95
1, 116160, Note_on_c, 1, 42, 107
1, 116160, Note_on_c, 2, 49, 87
1, 116160, Note_on_c, 4, 68, 115
1, 116160, Note_on_c, 4, 80, 115
1, 116160, Note_on_c, 5, 56, 127
1, 116160, Note_on_c, 9, 42, 78
1, 116160, Note_on_c, 9, 36, 127
1, 116169, Note_off_c, 9, 36, 127
1, 116169, Note_off_c, 9, 42, 78
1, 116203, Control_c, 3, 1, 8
1, 116205, Note_off_c, 5, 56, 127
1, 116207, Note_off_c, 0, 39, 95
1, 116211, Note_off_c, 4, 80, 115
1, 116211, Note_off_c, 4, 68, 115
1, 116221, Control_c, 3, 1, 29
1, 116241, Note_off_c, 2, 49, 87
1, 116245, Control_c, 3, 1, 43
1, 116251, Note_off_c, 1, 42, 107
1, 116275, Control_c, 3, 1, 46
1, 116288, Note_on_c, 2, 45, 109
1, 116288, Note_on_c, 2, 46, 92
1, 116293, Control_c, 3, 1, 50
1, 116305, Note_off_c, 3, 56, 127
1, 116315, Control_c, 3, 1, 52
1, 116335, Note_off_c, 2, 46, 92
1, 116347, Control_c, 3, 1, 56
1, 116352, Note_on_c, 0, 51, 127
1, 116352, Note_on_c, 0, 56, 127
1, 116352, Note_on_c, 1, 42, 100
1, 116352, Note_on_c, 2, 44, 85
1, 116352, Note_on_c, 4, 66, 115
1, 116352, Note_on_c, 4, 78, 115
1, 116352, Note_on_c, 5, 54, 127
1, 116352, Note_on_c, 9, 39, 127
1, 116352, Note_on_c, 9, 40, 127
1, 116352, Note_on_c, 9, 42, 127
1, 116352, Note_on_c, 9, 36, 127
1, 116352, Note_on_c, 9, 54, 112
1, 116357, Note_off_c, 2, 45, 109
1, 116358, Note_on_c, 3, 56, 124
1, 116361, Note_off_c, 9, 54, 112
1, 116361, Note_off_c, 9, 36, 127
1, 116361, Note_off_c, 9, 42, 127
1, 116361, Note_off_c, 9, 40, 127
1, 116361, Note_off_c, 9, 39, 127
1, 116381, Control_c, 3, 1, 57
1, 116391, Control_c, 3, 1, 66
1, 116395, Note_off_c, 5, 54, 127
1, 116415, Note_off_c, 4, 78, 115
1, 116415, Note_off_c, 4, 66, 115
1, 116421, Control_c, 3, 1, 68
1, 116437, Control_c, 3, 1, 69
1, 116457, Note_off_c, 2, 44, 85
1, 116457, Control_c, 3, 1, 71
1, 116479, Note_off_c, 0, 51, 127
1, 116479, Control_c, 3, 1, 72
1, 116480, Note_on_c, 2, 42, 95
1, 116491, Note_off_c, 0, 56, 127
1, 116505, Note_off_c, 3, 56, 124
1, 116507, Control_c, 3, 1, 71
1, 116519, Note_off_c, 1, 42, 100
1, 116519, Control_c, 3, 1, 57
1, 116525, Note_off_c, 2, 42, 95
1, 116544, Note_on_c, 0, 49, 111
1, 116544, Note_on_c, 0, 54, 119
1, 116544, Note_on_c, 1, 39, 93
1, 116544, Note_on_c, 2, 44, 95
1, 116544, Note_on_c, 5, 49, 126
1, 116544, Note_on_c, 9, 42, 71
1, 116544, Note_on_c, 9, 36, 127
1, 116545, Control_c, 3, 1, 39
1, 116553, Note_off_c, 9, 36, 127
1, 116553, Note_off_c, 9, 42, 71
1, 116556, Note_on_c, 3, 54, 95
1, 116575, Note_off_c, 5, 49, 126
1, 116581, Note_off_c, 3, 54, 95
1, 116585, Control_c, 3, 1, 38
1, 116599, Note_off_c, 0, 54, 119
1, 116609, Control_c, 3, 1, 38
1, 116641, Note_off_c, 2, 44, 95
1, 116643, Control_c, 3, 1, 46
1, 116651, Note_off_c, 0, 49, 111
1, 116653, Note_off_c, 1, 39, 93
1, 116664, Note_on_c, 3, 56, 127
1, 116672, Note_on_c, 1, 37, 89
1, 116672, Note_on_c, 2, 42, 88
1, 116672, Note_on_c, 5, 51, 127
1, 116673, Control_c, 3, 1, 59
1, 116691, Control_c, 3, 1, 67
1, 116697, Note_off_c, 5, 51, 127
1, 116709, Control_c, 3, 1, 71
1, 116713, Note_off_c, 2, 42, 88
1, 116721, Note_off_c, 1, 37, 89
1, 116727, Control_c, 3, 1, 73
1, 116736, Note_on_c, 0, 27, 120
1, 116736, Note_on_c, 1, 27, 88
1, 116736, Note_on_c, 1, 29, 97
1, 116736, Note_on_c, 2, 39, 127
1, 116736, Note_on_c, 9, 36, 127
1, 116736, Note_on_c, 9, 42, 115
1, 116743, Control_c, 3, 1, 77
1, 116745, Note_off_c, 9, 42, 115
1, 116745, Note_off_c, 9, 36, 127
1, 116749, Note_off_c, 1, 29, 97
1, 116761, Control_c, 3, 1, 80
1, 116781, Control_c, 3, 1, 82
1, 116801, Control_c, 3, 1, 84
1, 116825, Control_c, 3, 1, 85
1, 116843, Control_c, 3, 1, 87
1, 116849, Note_off_c, 0, 27, 120
1, 116864, Note_on_c, 0, 39, 110
1, 116864, Note_on_c, 5, 49, 113
1, 116871, Control_c, 3, 1, 89
1, 116889, Note_off_c, 5, 49, 113
1, 116889, Note_off_c, 2, 39, 127
1, 116895, Note_off_c, 0, 39, 110
1, 116899, Control_c, 3, 1, 90
1, 116911, Control_c, 3, 1, 72
1, 116928, Note_on_c, 0, 54, 127
1, 116928, Note_on_c, 0, 49, 127
1, 116928, Note_on_c, 1, 39, 107
1, 116928, Note_on_c, 2, 51, 117
1, 116928, Note_on_c, 4, 63, 115
1, 116928, Note_on_c, 4, 75, 115
1, 116928, Note_on_c, 5, 51, 127
1, 116928, Note_on_c, 9, 42, 57
1, 116935, Note_off_c, 1, 27, 88
1, 116935, Note_off_c, 3, 56, 127
1, 116937, Note_off_c, 9, 42, 57
1, 116938, Note_on_c, 3, 54, 112
1, 116941, Control_c, 3, 1, 24
1, 116961, Note_off_c, 0, 49, 127
1, 116969, Note_off_c, 0, 54, 127
1, 116969, Control_c, 3, 1, 0
1, 116979, Note_off_c, 5, 51, 127
1, 116979, Note_off_c, 2, 51, 117
1, 117001, Note_off_c, 1, 39, 107
1, 117013, Note_off_c, 3, 54, 112
1, 117021, Note_off_c, 4, 75, 115
1, 117021, Note_off_c, 4, 63, 115
1, 117056, Note_on_c, 1, 27, 69
1, 117056, Note_on_c, 2, 39, 75
1, 117067, Note_off_c, 2, 39, 75
1, 117075, Note_off_c, 1, 27, 69
1, 117120, Note_on_c, 1, 37, 101
1, 117120, Note_on_c, 2, 49, 112
1, 117120, Note_on_c, 5, 49, 126
1, 117120, Note_on_c, 9, 39, 124
1, 117120, Note_on_c, 9, 40, 127
1, 117120, Note_on_c, 9, 42, 126
1, 117120, Note_on_c, 9, 36, 127
1, 117120, Note_on_c, 9, 54, 110
1, 117129, Note_off_c, 9, 54, 110
1, 117129, Note_off_c, 9, 36, 127
1, 117129, Note_off_c, 9, 42, 126
1, 117129, Note_off_c, 9, 40, 127
1, 117129, Note_off_c, 9, 39, 124
1, 117143, Note_off_c, 5, 49, 126
1, 117199, Note_off_c, 2, 49, 112
1, 117223, Note_off_c, 1, 37, 101
1, 117248, Note_on_c, 1, 39, 90
1, 117248, Note_on_c, 2, 51, 92
1, 117248, Note_on_c, 4, 63, 115
1, 117248, Note_on_c, 4, 75, 115
1, 117279, Note_off_c, 2, 51, 92
1, 117291, Note_off_c, 1, 39, 90
1, 117312, Note_on_c, 0, 49, 114
1, 117312, Note_on_c, 0, 54, 109
1, 117312, Note_on_c, 1, 27, 98
1, 117312, Note_on_c, 2, 39, 127
1, 117312, Note_on_c, 5, 51, 127
1, 117312, Note_on_c, 9, 42, 66
1, 117321, Note_off_c, 9, 42, 66
1, 117321, Note_off_c, 0, 54, 109
1, 117339, Note_off_c, 0, 49, 114
1, 117341, Note_off_c, 4, 75, 115
1, 117341, Note_off_c, 4, 63, 115
1, 117347, Note_off_c, 2, 39, 127
1, 117351, Note_off_c, 5, 51, 127
1, 117445, Note_off_c, 1, 27, 98
1, 117504, Note_on_c, 0, 54, 125
1, 117504, Note_on_c, 0, 49, 118
1, 117504, Note_on_c, 1, 30, 118
1, 117504, Note_on_c, 2, 54, 108
1, 117504, Note_on_c, 2, 49, 108
1, 117504, Note_on_c, 4, 54, 115
1, 117504, Note_on_c, 4, 66, 115
1, 117504, Note_on_c, 5, 54, 127
1, 117504, Note_on_c, 9, 36, 127
1, 117504, Note_on_c, 9, 42, 110
1, 117513, Note_off_c, 9, 42, 110
1, 117513, Note_off_c, 9, 36, 127
1, 117533, Note_off_c, 2, 54, 108
1, 117551, Note_off_c, 5, 54, 127
1, 117551, Note_off_c, 2, 49, 108
1, 117559, Note_off_c, 0, 49, 118
1, 117563, Note_off_c, 0, 54, 125
1, 117591, Note_off_c, 1, 30, 118
1, 117597, Note_off_c, 4, 66, 115
1, 117597, Note_off_c, 4, 54, 115
1, 117632, Note_on_c, 1, 32, 79
1, 117632, Note_on_c, 4, 56, 115
1, 117632, Note_on_c, 4, 68, 115
1, 117691, Note_off_c, 1, 32, 79
1, 117696, Note_on_c, 0, 39, 110
1, 117696, Note_on_c, 1, 34, 93
1, 117696, Note_on_c, 4, 58, 115
1, 117696, Note_on_c, 4, 70, 115
1, 117696, Note_on_c, 5, 56, 126
1, 117696, Note_on_c, 9, 42, 76
1, 117705, Note_off_c, 9, 42, 76
1, 117725, Note_off_c, 4, 68, 115
1, 117725, Note_off_c, 4, 56, 115
1, 117741, Note_off_c, 0, 39, 110
1, 117747, Note_off_c, 5, 56, 126
1, 117769, Note_off_c, 1, 34, 93
1, 117789, Note_off_c, 4, 70, 115
1, 117789, Note_off_c, 4, 58, 115
1, 117824, Note_on_c, 0, 51, 125
1, 117824, Note_on_c, 0, 56, 126
1, 117824, Note_on_c, 1, 37, 102
1, 117824, Note_on_c, 2, 54, 108
1, 117824, Note_on_c, 2, 49, 110
1, 117824, Note_on_c, 4, 61, 115
1, 117824, Note_on_c, 4, 73, 115
1, 117824, Note_on_c, 9, 46, 91
1, 117833, Note_off_c, 9, 46, 91
1, 117867, Note_off_c, 2, 54, 108
1, 117871, Note_off_c, 2, 49, 110
1, 117888, Note_on_c, 5, 54, 127
1, 117888, Note_on_c, 9, 39, 127
1, 117888, Note_on_c, 9, 40, 127
1, 117888, Note_on_c, 9, 42, 105
1, 117888, Note_on_c, 9, 36, 127
1, 117888, Note_on_c, 9, 54, 110
1, 117897, Note_off_c, 9, 54, 110
1, 117897, Note_off_c, 9, 36, 127
1, 117897, Note_off_c, 9, 42, 105
1, 117897, Note_off_c, 9, 40, 127
1, 117897, Note_off_c, 9, 39, 127
1, 117933, Note_off_c, 5, 54, 127
1, 117989, Note_off_c, 1, 37, 102
1, 118013, Note_off_c, 4, 73, 115
1, 118013, Note_off_c, 4, 61, 115
1, 118016, Note_on_c, 0, 39, 112
1, 118016, Note_on_c, 1, 34, 87
1, 118016, Note_on_c, 4, 58, 115
1, 118016, Note_on_c, 4, 70, 115
1, 118017, Note_off_c, 0, 51, 125
1, 118025, Note_off_c, 0, 56, 126
1, 118057, Note_off_c, 4, 70, 115
1, 118057, Note_off_c, 4, 58, 115
1, 118065, Note_off_c, 0, 39, 112
1, 118067, Note_off_c, 1, 34, 87
1, 118080, Note_on_c, 0, 54, 127
1, 118080, Note_on_c, 1, 39, 101
1, 118080, Note_on_c, 2, 54, 112
1, 118080, Note_on_c, 2, 49, 112
1, 118080, Note_on_c, 4, 63, 115
1, 118080, Note_on_c, 4, 75, 115
1, 118080, Note_on_c, 5, 49, 122
1, 118080, Note_on_c, 9, 42, 87
1, 118089, Note_off_c, 9, 42, 87
1, 118107, Note_off_c, 5, 49, 122
1, 118144, Note_on_c, 0, 49, 118
1, 118165, Note_off_c, 1, 39, 101
1, 118173, Note_off_c, 4, 75, 115
1, 118173, Note_off_c, 4, 63, 115
1, 118208, Note_on_c, 1, 39, 87
1, 118208, Note_on_c, 4, 63, 115
1, 118208, Note_on_c, 4, 75, 115
1, 118208, Note_on_c, 5, 51, 126
1, 118219, Note_off_c, 0, 54, 127
1, 118243, Note_off_c, 5, 51, 126
1, 118259, Note_off_c, 4, 75, 115
1, 118259, Note_off_c, 4, 63, 115
1, 118259, Note_off_c, 2, 54, 112
1, 118272, Note_on_c, 0, 27, 124
1, 118272, Note_on_c, 1, 27, 107
1, 118272, Note_on_c, 2, 39, 111
1, 118272, Note_on_c, 9, 42, 84
1, 118272, Note_on_c, 9, 36, 127
1, 118281, Note_off_c, 9, 36, 127
1, 118281, Note_off_c, 9, 42, 84
1, 118281, Note_off_c, 0, 49, 118
1, 118281, Note_off_c, 2, 49, 112
1, 118293, Note_off_c, 1, 39, 87
1, 118389, Note_off_c, 2, 39, 111
1, 118400, Note_on_c, 5, 49, 123
1, 118419, Note_off_c, 5, 49, 123
1, 118447, Note_off_c, 1, 27, 107
1, 118461, Note_off_c, 0, 27, 124
1, 118464, Note_on_c, 0, 54, 114
1, 118464, Note_on_c, 0, 49, 100
1, 118464, Note_on_c, 1, 39, 107
1, 118464, Note_on_c, 2, 51, 114
1, 118464, Note_on_c, 4, 63, 115
1, 118464, Note_on_c, 4, 75, 115
1, 118464, Note_on_c, 5, 51, 127
1, 118464, Note_on_c, 9, 42, 78
1, 118473, Note_off_c, 9, 42, 78
1, 118479, Note_off_c, 0, 49, 100
1, 118497, Note_off_c, 0, 54, 114
1, 118509, Note_off_c, 5, 51, 127
1, 118513, Note_off_c, 4, 75, 115
1, 118513, Note_off_c, 4, 63, 115
1, 118517, Note_off_c, 2, 51, 114
1, 118533, Note_off_c, 1, 39, 107
1, 118592, Note_on_c, 1, 27, 72
1, 118629, Note_off_c, 1, 27, 72
1, 118656, Note_on_c, 0, 54, 127
1, 118656, Note_on_c, 0, 49, 124
1, 118656, Note_on_c, 1, 37, 102
1, 118656, Note_on_c, 2, 49, 121
1, 118656, Note_on_c, 4, 61, 115
1, 118656, Note_on_c, 4, 73, 115
1, 118656, Note_on_c, 5, 49, 127
1, 118656, Note_on_c, 9, 39, 127
1, 118656, Note_on_c, 9, 42, 120
1, 118656, Note_on_c, 9, 40, 126
1, 118656, Note_on_c, 9, 36, 127
1, 118656, Note_on_c, 9, 54, 106
1, 118665, Note_off_c, 9, 54, 106
1, 118665, Note_off_c, 9, 36, 127
1, 118665, Note_off_c, 9, 40, 126
1, 118665, Note_off_c, 9, 42, 120
1, 118665, Note_off_c, 9, 39, 127
1, 118679, Note_off_c, 0, 49, 124
1, 118687, Note_off_c, 5, 49, 127
1, 118687, Note_off_c, 0, 54, 127
1, 118749, Note_off_c, 4, 73, 115
1, 118749, Note_off_c, 4, 61, 115
1, 118765, Note_off_c, 1, 37, 102
1, 118784, Note_on_c, 1, 39, 101
1, 118784, Note_on_c, 4, 63, 115
1, 118784, Note_on_c, 4, 75, 115
1, 118793, Note_off_c, 2, 49, 121
1, 118831, Note_off_c, 4, 75, 115
1, 118831, Note_off_c, 4, 63, 115
1, 118841, Note_off_c, 1, 39, 101
1, 118848, Note_on_c, 0, 39, 90
1, 118848, Note_on_c, 2, 51, 110
1, 118848, Note_on_c, 5, 51, 119
1, 118848, Note_on_c, 9, 42, 70
1, 118848, Note_on_c, 9, 36, 127
1, 118857, Note_off_c, 9, 36, 127
1, 118857, Note_off_c, 9, 42, 70
1, 118889, Note_off_c, 5, 51, 119
1, 118899, Note_off_c, 0, 39, 90
1, 118905, Note_off_c, 2, 51, 110
1, 119039, Pitch_bend_c, 3, 8320
1, 119040, Note_on_c, 0, 54, 115
1, 119040, Note_on_c, 0, 49, 110
1, 119040, Note_on_c, 1, 44, 102
1, 119040, Note_on_c, 2, 44, 110
1, 119040, Note_on_c, 4, 70, 115
1, 119040, Note_on_c, 4, 82, 115
1, 119040, Note_on_c, 5, 58, 125
1, 119040, Note_on_c, 9, 42, 113
1, 119040, Note_on_c, 9, 36, 127
1, 119043, Pitch_bend_c, 3, 9088
1, 119046, Note_on_c, 3, 68, 127
1, 119049, Note_off_c, 9, 36, 127
1, 119049, Note_off_c, 9, 42, 113
1, 119061, Note_off_c, 0, 49, 110
1, 119067, Pitch_bend_c, 3, 10912
1, 119071, Note_off_c, 0, 54, 115
1, 119073, Pitch_bend_c, 1, 9760
1, 119073, Pitch_bend_c, 3, 12640
1, 119085, Pitch_bend_c, 1, 11456
1, 119093, Pitch_bend_c, 3, 13216
1, 119097, Note_off_c, 4, 82, 115
1, 119097, Note_off_c, 4, 70, 115
1, 119099, Note_off_c, 2, 44, 110
1, 119101, Note_off_c, 5, 58, 125
1, 119101, Pitch_bend_c, 3, 13056
1, 119103, Pitch_bend_c, 1, 13824
1, 119113, Pitch_bend_c, 1, 14432
1, 119113, Pitch_bend_c, 3, 11872
1, 119133, Note_off_c, 1, 44, 102
1, 119133, Pitch_bend_c, 1, 14208
1, 119133, Pitch_bend_c, 3, 11232
1, 119141, Pitch_bend_c, 3, 10880
1, 119145, Pitch_bend_c, 1, 13888
1, 119157, Pitch_bend_c, 1, 12160
1, 119157, Pitch_bend_c, 3, 10528
1, 119169, Pitch_bend_c, 3, 10368
1, 119171, Pitch_bend_c, 1, 10176
1, 119173, Note_off_c, 3, 68, 127
1, 119183, Pitch_bend_c, 1, 8736
1, 119191, Pitch_bend_c, 3, 9376
1, 119197, Pitch_bend_c, 1, 8320
1, 119199, Pitch_bend_c, 1, 8192
1, 119215, Pitch_bend_c, 3, 8320
1, 119219, Pitch_bend_c, 3, 8192
1, 119232, Note_on_c, 1, 42, 100
1, 119232, Note_on_c, 2, 45, 105
1, 119232, Note_on_c, 3, 68, 117
1, 119232, Note_on_c, 4, 68, 115
1, 119232, Note_on_c, 4, 80, 115
1, 119232, Note_on_c, 5, 56, 127
1, 119232, Note_on_c, 9, 42, 75
1, 119241, Note_off_c, 9, 42, 75
1, 119279, Pitch_bend_c, 1, 8448
1, 119281, Note_off_c, 5, 56, 127
1, 119283, Note_off_c, 4, 80, 115
1, 119283, Note_off_c, 4, 68, 115
1, 119283, Pitch_bend_c, 1, 10784
1, 119299, Pitch_bend_c, 1, 14240
1, 119313, Pitch_bend_c, 1, 16160
1, 119323, Pitch_bend_c, 1, 16383
1, 119327, Note_off_c, 2, 45, 105
1, 119333, Note_off_c, 3, 68, 117
1, 119341, Note_off_c, 1, 42, 100
1, 119357, Control_c, 3, 1, 11
1, 119360, Note_on_c, 2, 46, 98
1, 119367, Pitch_bend_c, 1, 14656
1, 119371, Control_c, 3, 1, 25
1, 119381, Pitch_bend_c, 1, 10944
1, 119395, Pitch_bend_c, 1, 8352
1, 119395, Control_c, 3, 1, 35
1, 119411, Pitch_bend_c, 1, 8192
1, 119420, Note_on_c, 3, 68, 120
1, 119424, Note_on_c, 1, 42, 109
1, 119424, Note_on_c, 4, 66, 115
1, 119424, Note_on_c, 4, 78, 115
1, 119424, Note_on_c, 5, 54, 125
1, 119424, Note_on_c, 9, 39, 124
1, 119424, Note_on_c, 9, 42, 127
1, 119424, Note_on_c, 9, 40, 127
1, 119424, Note_on_c, 9, 36, 127
1, 119424, Note_on_c, 9, 54, 106
1, 119431, Note_off_c, 2, 46, 98
1, 119433, Note_off_c, 9, 54, 106
1, 119433, Note_off_c, 9, 36, 127
1, 119433, Note_off_c, 9, 40, 127
1, 119433, Note_off_c, 9, 42, 127
1, 119433, Note_off_c, 9, 39, 124
1, 119433, Control_c, 3, 1, 42
1, 119455, Note_off_c, 3, 68, 120
1, 119461, Control_c, 3, 1, 26
1, 119463, Note_off_c, 5, 54, 125
1, 119481, Control_c, 3, 1, 17
1, 119487, Note_off_c, 4, 78, 115
1, 119487, Note_off_c, 4, 66, 115
1, 119501, Control_c, 3, 1, 13
1, 119521, Control_c, 3, 1, 12
1, 119545, Control_c, 3, 1, 15
1, 119552, Note_on_c, 2, 49, 110
1, 119583, Control_c, 3, 1, 16
1, 119589, Control_c, 1, 1, 1
1, 119593, Control_c, 1, 1, 20
1, 119595, Note_off_c, 1, 42, 109
1, 119609, Control_c, 3, 1, 18
1, 119613, Control_c, 1, 1, 21
1, 119616, Note_on_c, 0, 37, 105
1, 119616, Note_on_c, 1, 39, 97
1, 119616, Note_on_c, 5, 49, 103
1, 119616, Note_on_c, 9, 42, 82
1, 119618, Note_on_c, 3, 68, 126
1, 119625, Note_off_c, 9, 42, 82
1, 119625, Note_off_c, 2, 49, 110
1, 119629, Control_c, 1, 1, 5
1, 119635, Note_off_c, 5, 49, 103
1, 119635, Control_c, 3, 1, 23
1, 119655, Control_c, 1, 1, 0
1, 119659, Control_c, 3, 1, 26
1, 119661, Note_off_c, 3, 68, 126
1, 119677, Control_c, 3, 1, 28
1, 119687, Note_off_c, 0, 37, 105
1, 119697, Note_off_c, 1, 39, 97
1, 119705, Control_c, 3, 1, 30
1, 119728, Note_on_c, 3, 66, 119
1, 119733, Control_c, 3, 1, 31
1, 119744, Note_on_c, 1, 37, 90
1, 119744, Note_on_c, 2, 51, 117
1, 119744, Note_on_c, 5, 51, 127
1, 119755, Control_c, 3, 1, 36
1, 119777, Note_off_c, 5, 51, 127
1, 119783, Note_off_c, 2, 51, 117
1, 119783, Note_off_c, 1, 37, 90
1, 119785, Control_c, 3, 1, 37
1, 119805, Control_c, 3, 1, 39
1, 119808, Note_on_c, 0, 27, 123
1, 119808, Note_on_c, 1, 27, 105
1, 119808, Note_on_c, 2, 39, 127
1, 119808, Note_on_c, 9, 36, 127
1, 119808, Note_on_c, 9, 49, 84
1, 119808, Note_on_c, 9, 54, 89
1, 119817, Note_off_c, 9, 54, 89
1, 119817, Note_off_c, 9, 49, 84
1, 119817, Note_off_c, 9, 36, 127
1, 119835, Control_c, 3, 1, 46
1, 119859, Control_c, 3, 1, 54
1, 119877, Control_c, 3, 1, 67
1, 119897, Control_c, 3, 1, 74
1, 119913, Control_c, 3, 1, 81
1, 119933, Control_c, 3, 1, 85
1, 119936, Note_on_c, 5, 49, 123
1, 119947, Control_c, 3, 1, 88
1, 119949, Note_off_c, 2, 39, 127
1, 119959, Note_off_c, 5, 49, 123
1, 119959, Note_off_c, 1, 27, 105
1, 119965, Control_c, 3, 1, 94
1, 119967, Note_off_c, 3, 66, 119
1, 120000, Note_on_c, 0, 49, 105
1, 120000, Note_on_c, 1, 39, 98
1, 120000, Note_on_c, 2, 51, 115
1, 120000, Note_on_c, 4, 63, 114
1, 120000, Note_on_c, 4, 75, 114
1, 120000, Note_on_c, 5, 51, 127
1, 120000, Note_on_c, 9, 42, 77
1, 120000, Note_on_c, 9, 54, 53
1, 120002, Note_on_c, 3, 63, 127
1, 120009, Note_off_c, 9, 54, 53
1, 120009, Note_off_c, 9, 42, 77
1, 120017, Note_off_c, 0, 27, 123
1, 120023, Note_off_c, 0, 49, 105
1, 120023, Control_c, 3, 1, 98
1, 120041, Control_c, 3, 1, 101
1, 120051, Note_off_c, 2, 51, 115
1, 120055, Note_off_c, 5, 51, 127
1, 120057, Control_c, 3, 1, 98
1, 120065, Note_off_c, 1, 39, 98
1, 120073, Control_c, 3, 1, 93
1, 120093, Note_off_c, 4, 75, 114
1, 120093, Note_off_c, 4, 63, 114
1, 120093, Control_c, 3, 1, 87
1, 120109, Control_c, 3, 1, 79
1, 120128, Note_on_c, 1, 27, 61
1, 120131, Control_c, 3, 1, 76
1, 120133, Note_off_c, 3, 63, 127
1, 120147, Control_c, 3, 1, 71
1, 120161, Note_off_c, 1, 27, 61
1, 120167, Control_c, 3, 1, 68
1, 120189, Control_c, 3, 1, 71
1, 120192, Note_on_c, 0, 54, 122
1, 120192, Note_on_c, 0, 49, 119
1, 120192, Note_on_c, 1, 37, 92
1, 120192, Note_on_c, 2, 49, 106
1, 120192, Note_on_c, 5, 49, 127
1, 120192, Note_on_c, 9, 39, 126
1, 120192, Note_on_c, 9, 40, 127
1, 120192, Note_on_c, 9, 42, 122
1, 120192, Note_on_c, 9, 36, 127
1, 120192, Note_on_c, 9, 54, 112
1, 120196, Note_on_c, 3, 63, 127
1, 120201, Note_off_c, 9, 54, 112
1, 120201, Note_off_c, 9, 36, 127
1, 120201, Note_off_c, 9, 42, 122
1, 120201, Note_off_c, 9, 40, 127
1, 120201, Note_off_c, 9, 39, 126
1, 120217, Control_c, 3, 1, 80
1, 120219, Note_off_c, 5, 49, 127
1, 120223, Note_off_c, 0, 49, 119
1, 120225, Note_off_c, 0, 54, 122
1, 120237, Control_c, 3, 1, 84
1, 120261, Control_c, 3, 1, 79
1, 120277, Control_c, 3, 1, 70
1, 120291, Note_off_c, 1, 37, 92
1, 120305, Note_off_c, 2, 49, 106
1, 120313, Control_c, 3, 1, 57
1, 120320, Note_on_c, 1, 39, 90
1, 120320, Note_on_c, 2, 51, 88
1, 120320, Note_on_c, 4, 63, 114
1, 120320, Note_on_c, 4, 75, 114
1, 120343, Control_c, 3, 1, 49
1, 120353, Note_off_c, 3, 63, 127
1, 120359, Note_off_c, 2, 51, 88
1, 120361, Control_c, 3, 1, 42
1, 120369, Note_off_c, 1, 39, 90
1, 120383, Control_c, 3, 1, 41
1, 120384, Note_on_c, 0, 39, 108
1, 120384, Note_on_c, 1, 27, 97
1, 120384, Note_on_c, 2, 39, 111
1, 120384, Note_on_c, 5, 51, 121
1, 120384, Note_on_c, 9, 42, 62
1, 120384, Note_on_c, 9, 54, 61
1, 120386, Note_on_c, 3, 61, 96
1, 120393, Note_off_c, 9, 54, 61
1, 120393, Note_off_c, 9, 42, 62
1, 120407, Control_c, 3, 1, 47
1, 120409, Note_off_c, 2, 39, 111
1, 120413, Note_off_c, 4, 75, 114
1, 120413, Note_off_c, 4, 63, 114
1, 120423, Note_off_c, 5, 51, 121
1, 120435, Note_off_c, 3, 61, 96
1, 120435, Control_c, 3, 1, 50
1, 120457, Note_off_c, 0, 39, 108
1, 120473, Control_c, 3, 1, 51
1, 120496, Note_on_c, 3, 58, 118
1, 120501, Control_c, 3, 1, 58
1, 120523, Note_off_c, 1, 27, 97
1, 120533, Note_off_c, 3, 58, 118
1, 120537, Control_c, 3, 1, 57
1, 120553, Control_c, 3, 1, 59
1, 120565, Control_c, 3, 1, 64
1, 120576, Note_on_c, 0, 54, 123
1, 120576, Note_on_c, 0, 49, 95
1, 120576, Note_on_c, 1, 30, 104
1, 120576, Note_on_c, 2, 54, 112
1, 120576, Note_on_c, 2, 49, 107
1, 120576, Note_on_c, 3, 61, 127
1, 120576, Note_on_c, 4, 54, 114
1, 120576, Note_on_c, 4, 66, 114
1, 120576, Note_on_c, 5, 54, 127
1, 120576, Note_on_c, 9, 42, 117
1, 120576, Note_on_c, 9, 36, 127
1, 120576, Note_on_c, 9, 54, 104
1, 120585, Note_off_c, 9, 54, 104
1, 120585, Note_off_c, 9, 36, 127
1, 120585, Note_off_c, 9, 42, 117
1, 120591, Note_off_c, 0, 49, 95
1, 120597, Control_c, 3, 1, 68
1, 120599, Note_off_c, 2, 54, 112
1, 120615, Note_off_c, 2, 49, 107
1, 120615, Control_c, 3, 1, 74
1, 120617, Note_off_c, 0, 54, 123
1, 120621, Note_off_c, 5, 54, 127
1, 120631, Control_c, 3, 1, 78
1, 120651, Note_off_c, 3, 61, 127
1, 120651, Control_c, 3, 1, 80
1, 120656, Note_on_c, 3, 63, 126
1, 120659, Note_off_c, 1, 30, 104
1, 120667, Control_c, 3, 1, 82
1, 120669, Note_off_c, 4, 66, 114
1, 120669, Note_off_c, 4, 54, 114
1, 120691, Control_c, 3, 1, 86
1, 120704, Note_on_c, 1, 32, 74
1, 120704, Note_on_c, 4, 56, 114
1, 120704, Note_on_c, 4, 68, 114
1, 120715, Control_c, 3, 1, 82
1, 120745, Control_c, 3, 1, 83
1, 120768, Note_on_c, 0, 39, 96
1, 120768, Note_on_c, 1, 34, 93
1, 120768, Note_on_c, 2, 39, 88
1, 120768, Note_on_c, 4, 58, 114
1, 120768, Note_on_c, 4, 70, 114
1, 120768, Note_on_c, 5, 56, 127
1, 120768, Note_on_c, 9, 42, 63
1, 120768, Note_on_c, 9, 54, 51
1, 120769, Note_off_c, 1, 32, 74
1, 120777, Note_off_c, 9, 54, 51
1, 120777, Note_off_c, 9, 42, 63
1, 120779, Control_c, 3, 1, 79
1, 120781, Note_off_c, 2, 39, 88
1, 120797, Note_off_c, 4, 68, 114
1, 120797, Note_off_c, 4, 56, 114
1, 120799, Control_c, 3, 1, 71
1, 120819, Note_off_c, 5, 56, 127
1, 120829, Note_off_c, 1, 34, 93
1, 120829, Note_off_c, 0, 39, 96
1, 120835, Control_c, 3, 1, 71
1, 120861, Note_off_c, 4, 70, 114
1, 120861, Note_off_c, 4, 58, 114
1, 120871, Control_c, 3, 1, 81
1, 120896, Note_on_c, 0, 54, 113
1, 120896, Note_on_c, 0, 49, 110
1, 120896, Note_on_c, 1, 37, 98
1, 120896, Note_on_c, 2, 51, 115
1, 120896, Note_on_c, 4, 61, 114
1, 120896, Note_on_c, 4, 73, 114
1, 120901, Control_c, 3, 1, 80
1, 120921, Control_c, 3, 1, 66
1, 120931, Note_off_c, 2, 51, 115
1, 120937, Control_c, 3, 1, 50
1, 120945, Note_off_c, 0, 49, 110
1, 120947, Note_off_c, 3, 63, 126
1, 120957, Note_off_c, 0, 54, 113
1, 120957, Control_c, 3, 1, 27
1, 120960, Note_on_c, 5, 54, 127
1, 120960, Note_on_c, 9, 39, 122
1, 120960, Note_on_c, 9, 40, 127
1, 120960, Note_on_c, 9, 42, 126
1, 120960, Note_on_c, 9, 36, 127
1, 120960, Note_on_c, 9, 54, 106
1, 120969, Note_off_c, 9, 54, 106
1, 120969, Note_off_c, 9, 36, 127
1, 120969, Note_off_c, 9, 42, 126
1, 120969, Note_off_c, 9, 40, 127
1, 120969, Note_off_c, 9, 39, 122
1, 120975, Control_c, 3, 1, 0
1, 121009, Note_off_c, 5, 54, 127
1, 121071, Note_off_c, 1, 37, 98
1, 121085, Note_off_c, 4, 73, 114
1, 121085, Note_off_c, 4, 61, 114
1, 121088, Note_on_c, 0, 39, 100
1, 121088, Note_on_c, 1, 34, 88
1, 121088, Note_on_c, 2, 39, 94
1, 121088, Note_on_c, 4, 58, 114
1, 121088, Note_on_c, 4, 70, 114
1, 121099, Note_off_c, 2, 39, 94
1, 121129, Note_off_c, 4, 70, 114
1, 121129, Note_off_c, 4, 58, 114
1, 121137, Note_off_c, 1, 34, 88
1, 121152, Note_on_c, 0, 56, 120
1, 121152, Note_on_c, 0, 51, 118
1, 121152, Note_on_c, 1, 39, 100
1, 121152, Note_on_c, 2, 49, 108
1, 121152, Note_on_c, 4, 63, 114
1, 121152, Note_on_c, 4, 75, 114
1, 121152, Note_on_c, 9, 42, 64
1, 121152, Note_on_c, 9, 54, 59
1, 121161, Note_off_c, 9, 54, 59
1, 121161, Note_off_c, 9, 42, 64
1, 121173, Note_off_c, 0, 39, 100
1, 121197, Note_off_c, 0, 51, 118
1, 121229, Note_off_c, 0, 56, 120
1, 121233, Note_off_c, 1, 39, 100
1, 121245, Note_off_c, 4, 75, 114
1, 121245, Note_off_c, 4, 63, 114
1, 121263, Note_off_c, 2, 49, 108
1, 121280, Note_on_c, 0, 54, 111
1, 121280, Note_on_c, 0, 49, 99
1, 121280, Note_on_c, 1, 39, 97
1, 121280, Note_on_c, 2, 51, 96
1, 121280, Note_on_c, 4, 63, 114
1, 121280, Note_on_c, 4, 75, 114
1, 121280, Note_on_c, 5, 51, 127
1, 121313, Note_off_c, 2, 51, 96
1, 121313, Note_off_c, 0, 49, 99
1, 121319, Note_off_c, 0, 54, 111
1, 121331, Note_off_c, 4, 75, 114
1, 121331, Note_off_c, 4, 63, 114
1, 121335, Note_off_c, 5, 51, 127
1, 121344, Note_on_c, 0, 27, 116
1, 121344, Note_on_c, 1, 27, 104
1, 121344, Note_on_c, 2, 39, 127
1, 121344, Note_on_c, 9, 36, 127
1, 121344, Note_on_c, 9, 42, 109
1, 121344, Note_on_c, 9, 54, 112
1, 121353, Note_off_c, 9, 54, 112
1, 121353, Note_off_c, 9, 42, 109
1, 121353, Note_off_c, 9, 36, 127
1, 121353, Note_off_c, 1, 39, 97
1, 121405, Note_off_c, 2, 39, 127
1, 121459, Note_off_c, 0, 27, 116
1, 121472, Note_on_c, 5, 49, 118
1, 121497, Note_off_c, 5, 49, 118
1, 121507, Note_off_c, 1, 27, 104
1, 121536, Note_on_c, 0, 54, 114
1, 121536, Note_on_c, 0, 49, 117
1, 121536, Note_on_c, 1, 39, 104
1, 121536, Note_on_c, 2, 51, 127
1, 121536, Note_on_c, 4, 63, 114
1, 121536, Note_on_c, 4, 75, 114
1, 121536, Note_on_c, 5, 51, 127
1, 121536, Note_on_c, 9, 42, 67
1, 121536, Note_on_c, 9, 54, 66
1, 121545, Note_off_c, 9, 54, 66
1, 121545, Note_off_c, 9, 42, 67
1, 121561, Note_off_c, 0, 49, 117
1, 121565, Note_off_c, 0, 54, 114
1, 121581, Note_off_c, 2, 51, 127
1, 121585, Note_off_c, 5, 51, 127
1, 121585, Note_off_c, 4, 75, 114
1, 121585, Note_off_c, 4, 63, 114
1, 121595, Note_off_c, 1, 39, 104
1, 121664, Note_on_c, 1, 27, 79
1, 121699, Note_off_c, 1, 27, 79
1, 121728, Note_on_c, 0, 39, 106
1, 121728, Note_on_c, 1, 37, 96
1, 121728, Note_on_c, 2, 49, 115
1, 121728, Note_on_c, 4, 61, 114
1, 121728, Note_on_c, 4, 73, 114
1, 121728, Note_on_c, 5, 49, 127
1, 121728, Note_on_c, 9, 39, 126
1, 121728, Note_on_c, 9, 40, 127
1, 121728, Note_on_c, 9, 42, 124
1, 121728, Note_on_c, 9, 36, 127
1, 121728, Note_on_c, 9, 54, 110
1, 121737, Note_off_c, 9, 54, 110
1, 121737, Note_off_c, 9, 36, 127
1, 121737, Note_off_c, 9, 42, 124
1, 121737, Note_off_c, 9, 40, 127
1, 121737, Note_off_c, 9, 39, 126
1, 121759, Note_off_c, 5, 49, 127
1, 121799, Note_off_c, 0, 39, 106
1, 121821, Note_off_c, 4, 73, 114
1, 121821, Note_off_c, 4, 61, 114
1, 121849, Note_off_c, 2, 49, 115
1, 121856, Note_on_c, 0, 54, 90
1, 121856, Note_on_c, 1, 39, 98
1, 121856, Note_on_c, 2, 51, 94
1, 121856, Note_on_c, 4, 63, 114
1, 121856, Note_on_c, 4, 75, 114
1, 121859, Note_off_c, 1, 37, 96
1, 121875, Note_off_c, 0, 54, 90
1, 121897, Note_off_c, 2, 51, 94
1, 121903, Note_off_c, 4, 75, 114
1, 121903, Note_off_c, 4, 63, 114
1, 121920, Note_on_c, 0, 27, 109
1, 121920, Note_on_c, 2, 39, 108
1, 121920, Note_on_c, 5, 51, 127
1, 121920, Note_on_c, 9, 42, 73
1, 121920, Note_on_c, 9, 54, 52
1, 121929, Note_off_c, 9, 54, 52
1, 121929, Note_off_c, 9, 42, 73
1, 121929, Note_off_c, 1, 39, 98
1, 121959, Note_off_c, 2, 39, 108
1, 121971, Note_off_c, 0, 27, 109
1, 121973, Note_off_c, 5, 51, 127
1, 122044, Note_on_c, 9, 54, 65
1, 122048, Note_on_c, 1, 37, 77
1, 122053, Note_off_c, 9, 54, 65
1, 122085, Note_off_c, 1, 37, 77
1, 122112, Note_on_c, 1, 44, 105
1, 122112, Note_on_c, 2, 46, 117
1, 122112, Note_on_c, 2, 45, 120
1, 122112, Note_on_c, 4, 70, 114
1, 122112, Note_on_c, 4, 82, 114
1, 122112, Note_on_c, 5, 58, 123
1, 122112, Note_on_c, 9, 36, 127
1, 122112, Note_on_c, 9, 42, 107
1, 122112, Note_on_c, 9, 54, 112
1, 122121, Note_off_c, 9, 54, 112
1, 122121, Note_off_c, 9, 42, 107
1, 122121, Note_off_c, 9, 36, 127
1, 122124, Note_on_c, 3, 61, 127
1, 122133, Pitch_bend_c, 1, 9728
1, 122143, Pitch_bend_c, 1, 13184
1, 122147, Note_off_c, 2, 45, 120
1, 122151, Pitch_bend_c, 1, 16383
1, 122157, Note_off_c, 3, 61, 127
1, 122167, Note_off_c, 5, 58, 123
1, 122169, Note_off_c, 4, 82, 114
1, 122169, Note_off_c, 4, 70, 114
1, 122205, Note_off_c, 1, 44, 105
1, 122228, Note_on_c, 3, 58, 127
1, 122229, Pitch_bend_c, 1, 15648
1, 122239, Control_c, 3, 1, 26
1, 122241, Pitch_bend_c, 1, 13792
1, 122251, Pitch_bend_c, 1, 10112
1, 122267, Pitch_bend_c, 1, 8448
1, 122271, Note_off_c, 2, 46, 117
1, 122275, Control_c, 3, 1, 35
1, 122277, Pitch_bend_c, 1, 8192
1, 122304, Note_on_c, 1, 42, 107
1, 122304, Note_on_c, 2, 49, 87
1, 122304, Note_on_c, 4, 68, 114
1, 122304, Note_on_c, 4, 80, 114
1, 122304, Note_on_c, 5, 56, 127
1, 122304, Note_on_c, 9, 42, 78
1, 122304, Note_on_c, 9, 36, 127
1, 122304, Note_on_c, 9, 54, 54
1, 122305, Control_c, 3, 1, 38
1, 122313, Note_off_c, 9, 54, 54
1, 122313, Note_off_c, 9, 36, 127
1, 122313, Note_off_c, 9, 42, 78
1, 122327, Control_c, 3, 1, 42
1, 122343, Control_c, 3, 1, 43
1, 122355, Note_off_c, 4, 80, 114
1, 122355, Note_off_c, 4, 68, 114
1, 122363, Control_c, 3, 1, 44
1, 122365, Note_off_c, 5, 56, 127
1, 122385, Note_off_c, 2, 49, 87
1, 122395, Note_off_c, 1, 42, 107
1, 122432, Note_on_c, 2, 45, 109
1, 122432, Note_on_c, 2, 46, 92
1, 122433, Control_c, 3, 1, 48
1, 122449, Control_c, 3, 1, 55
1, 122469, Note_off_c, 3, 58, 127
1, 122479, Note_off_c, 2, 46, 92
1, 122479, Control_c, 3, 1, 52
1, 122493, Control_c, 3, 1, 28
1, 122496, Note_on_c, 1, 42, 100
1, 122496, Note_on_c, 2, 44, 85
1, 122496, Note_on_c, 4, 66, 114
1, 122496, Note_on_c, 4, 78, 114
1, 122496, Note_on_c, 5, 54, 127
1, 122496, Note_on_c, 9, 39, 127
1, 122496, Note_on_c, 9, 40, 127
1, 122496, Note_on_c, 9, 42, 127
1, 122496, Note_on_c, 9, 36, 127
1, 122496, Note_on_c, 9, 54, 114
1, 122501, Note_off_c, 2, 45, 109
1, 122505, Note_off_c, 9, 54, 114
1, 122505, Note_off_c, 9, 36, 127
1, 122505, Note_off_c, 9, 42, 127
1, 122505, Note_off_c, 9, 40, 127
1, 122505, Note_off_c, 9, 39, 127
1, 122508, Note_on_c, 3, 56, 127
1, 122541, Control_c, 3, 1, 23
1, 122551, Note_off_c, 5, 54, 127
1, 122559, Note_off_c, 4, 78, 114
1, 122559, Note_off_c, 4, 66, 114
1, 122559, Control_c, 3, 1, 23
1, 122577, Control_c, 3, 1, 22
1, 122601, Note_off_c, 2, 44, 85
1, 122613, Control_c, 3, 1, 19
1, 122624, Note_on_c, 2, 42, 95
1, 122633, Control_c, 3, 1, 18
1, 122655, Note_off_c, 3, 56, 127
1, 122663, Note_off_c, 1, 42, 100
1, 122669, Note_off_c, 2, 42, 95
1, 122688, Note_on_c, 0, 49, 127
1, 122688, Note_on_c, 1, 39, 93
1, 122688, Note_on_c, 2, 44, 95
1, 122688, Note_on_c, 5, 56, 126
1, 122688, Note_on_c, 9, 42, 71
1, 122688, Note_on_c, 9, 36, 127
1, 122688, Note_on_c, 9, 54, 63
1, 122696, Note_on_c, 3, 54, 102
1, 122697, Note_off_c, 9, 54, 63
1, 122697, Note_off_c, 9, 36, 127
1, 122697, Note_off_c, 9, 42, 71
1, 122721, Control_c, 3, 1, 21
1, 122729, Note_off_c, 3, 54, 102
1, 122751, Note_off_c, 5, 56, 126
1, 122765, Control_c, 3, 1, 23
1, 122785, Note_off_c, 2, 44, 95
1, 122795, Control_c, 3, 1, 24
1, 122797, Note_off_c, 1, 39, 93
1, 122808, Note_on_c, 3, 56, 127
1, 122816, Note_on_c, 1, 37, 89
1, 122816, Note_on_c, 2, 42, 88
1, 122816, Note_on_c, 5, 54, 127
1, 122819, Control_c, 3, 1, 33
1, 122849, Control_c, 3, 1, 35
1, 122857, Note_off_c, 2, 42, 88
1, 122861, Note_off_c, 5, 54, 127
1, 122865, Note_off_c, 1, 37, 89
1, 122867, Control_c, 3, 1, 37
1, 122869, Note_off_c, 0, 49, 127
1, 122880, Note_on_c, 0, 27, 119
1, 122880, Note_on_c, 1, 27, 88
1, 122880, Note_on_c, 1, 29, 97
1, 122880, Note_on_c, 2, 39, 127
1, 122880, Note_on_c, 9, 36, 127
1, 122880, Note_on_c, 9, 42, 115
1, 122880, Note_on_c, 9, 54, 110
1, 122889, Note_off_c, 9, 54, 110
1, 122889, Note_off_c, 9, 42, 115
1, 122889, Note_off_c, 9, 36, 127
1, 122893, Note_off_c, 1, 29, 97
1, 122893, Control_c, 3, 1, 41
1, 122923, Control_c, 3, 1, 42
1, 122973, Control_c, 3, 1, 44
1, 123019, Control_c, 3, 1, 43
1, 123023, Note_off_c, 0, 27, 119
1, 123033, Note_off_c, 2, 39, 127
1, 123039, Control_c, 3, 1, 46
1, 123051, Note_off_c, 3, 56, 127
1, 123061, Control_c, 3, 1, 47
1, 123068, Note_on_c, 3, 54, 119
1, 123072, Note_on_c, 0, 49, 125
1, 123072, Note_on_c, 0, 54, 123
1, 123072, Note_on_c, 1, 39, 107
1, 123072, Note_on_c, 2, 51, 117
1, 123072, Note_on_c, 4, 63, 114
1, 123072, Note_on_c, 4, 75, 114
1, 123072, Note_on_c, 5, 51, 127
1, 123072, Note_on_c, 9, 42, 57
1, 123072, Note_on_c, 9, 54, 54
1, 123079, Note_off_c, 1, 27, 88
1, 123081, Note_off_c, 9, 54, 54
1, 123081, Note_off_c, 9, 42, 57
1, 123087, Control_c, 3, 1, 55
1, 123091, Note_off_c, 0, 54, 123
1, 123107, Note_off_c, 0, 49, 125
1, 123121, Note_off_c, 5, 51, 127
1, 123123, Note_off_c, 2, 51, 117
1, 123123, Control_c, 3, 1, 38
1, 123125, Note_off_c, 3, 54, 119
1, 123145, Note_off_c, 1, 39, 107
1, 123157, Control_c, 3, 1, 10
1, 123165, Note_off_c, 4, 75, 114
1, 123165, Note_off_c, 4, 63, 114
1, 123193, Control_c, 3, 1, 0
1, 123200, Note_on_c, 1, 27, 69
1, 123200, Note_on_c, 2, 39, 75
1, 123211, Note_off_c, 2, 39, 75
1, 123219, Note_off_c, 1, 27, 69
1, 123264, Note_on_c, 0, 39, 96
1, 123264, Note_on_c, 1, 37, 101
1, 123264, Note_on_c, 2, 49, 112
1, 123264, Note_on_c, 9, 39, 124
1, 123264, Note_on_c, 9, 40, 127
1, 123264, Note_on_c, 9, 42, 126
1, 123264, Note_on_c, 9, 36, 127
1, 123264, Note_on_c, 9, 54, 112
1, 123273, Note_off_c, 9, 54, 112
1, 123273, Note_off_c, 9, 36, 127
1, 123273, Note_off_c, 9, 42, 126
1, 123273, Note_off_c, 9, 40, 127
1, 123273, Note_off_c, 9, 39, 124
1, 123335, Note_off_c, 0, 39, 96
1, 123343, Note_off_c, 2, 49, 112
1, 123367, Note_off_c, 1, 37, 101
1, 123392, Note_on_c, 0, 54, 111
1, 123392, Note_on_c, 1, 39, 90
1, 123392, Note_on_c, 2, 51, 92
1, 123392, Note_on_c, 4, 63, 114
1, 123392, Note_on_c, 4, 75, 114
1, 123392, Note_on_c, 5, 49, 108
1, 123409, Note_off_c, 5, 49, 108
1, 123415, Note_off_c, 0, 54, 111
1, 123423, Note_off_c, 2, 51, 92
1, 123435, Note_off_c, 1, 39, 90
1, 123456, Note_on_c, 0, 27, 88
1, 123456, Note_on_c, 1, 27, 98
1, 123456, Note_on_c, 2, 39, 127
1, 123456, Note_on_c, 5, 51, 127
1, 123456, Note_on_c, 9, 42, 66
1, 123456, Note_on_c, 9, 54, 46
1, 123465, Note_off_c, 9, 54, 46
1, 123465, Note_off_c, 9, 42, 66
1, 123485, Note_off_c, 4, 75, 114
1, 123485, Note_off_c, 4, 63, 114
1, 123491, Note_off_c, 2, 39, 127
1, 123503, Note_off_c, 5, 51, 127
1, 123503, Note_off_c, 0, 27, 88
1, 123589, Note_off_c, 1, 27, 98
1, 123648, Note_on_c, 0, 57, 127
1, 123648, Note_on_c, 0, 58, 127
1, 123648, Note_on_c, 0, 56, 118
1, 123648, Note_on_c, 0, 61, 125
1, 123648, Note_on_c, 1, 30, 118
1, 123648, Note_on_c, 2, 54, 108
1, 123648, Note_on_c, 2, 49, 108
1, 123648, Note_on_c, 4, 54, 114
1, 123648, Note_on_c, 4, 66, 114
1, 123648, Note_on_c, 5, 49, 124
1, 123648, Note_on_c, 9, 36, 127
1, 123648, Note_on_c, 9, 42, 110
1, 123648, Note_on_c, 9, 54, 117
1, 123657, Note_off_c, 9, 54, 117
1, 123657, Note_off_c, 9, 42, 110
1, 123657, Note_off_c, 9, 36, 127
1, 123675, Note_off_c, 5, 49, 124
1, 123677, Note_off_c, 2, 54, 108
1, 123677, Note_off_c, 0, 56, 118
1, 123691, Note_off_c, 0, 58, 127
1, 123695, Note_off_c, 2, 49, 108
1, 123705, Note_off_c, 0, 57, 127
1, 123735, Note_off_c, 1, 30, 118
1, 123741, Note_off_c, 4, 66, 114
1, 123741, Note_off_c, 4, 54, 114
1, 123772, Note_on_c, 9, 54, 70
1, 123776, Note_on_c, 1, 32, 79
1, 123776, Note_on_c, 4, 56, 114
1, 123776, Note_on_c, 4, 68, 114
1, 123781, Note_off_c, 9, 54, 70
1, 123789, Note_off_c, 0, 61, 125
1, 123835, Note_off_c, 1, 32, 79
1, 123840, Note_on_c, 0, 56, 118
1, 123840, Note_on_c, 0, 61, 100
1, 123840, Note_on_c, 1, 34, 93
1, 123840, Note_on_c, 4, 58, 114
1, 123840, Note_on_c, 4, 70, 114
1, 123840, Note_on_c, 9, 42, 76
1, 123840, Note_on_c, 9, 54, 62
1, 123849, Note_off_c, 9, 54, 62
1, 123849, Note_off_c, 9, 42, 76
1, 123859, Note_off_c, 0, 61, 100
1, 123869, Note_off_c, 4, 68, 114
1, 123869, Note_off_c, 4, 56, 114
1, 123883, Note_off_c, 0, 56, 118
1, 123913, Note_off_c, 1, 34, 93
1, 123933, Note_off_c, 4, 70, 114
1, 123933, Note_off_c, 4, 58, 114
1, 123968, Note_on_c, 1, 37, 102
1, 123968, Note_on_c, 2, 54, 108
1, 123968, Note_on_c, 2, 49, 110
1, 123968, Note_on_c, 4, 61, 114
1, 123968, Note_on_c, 4, 73, 114
1, 123968, Note_on_c, 5, 51, 124
1, 123968, Note_on_c, 9, 46, 91
1, 123977, Note_off_c, 9, 46, 91
1, 124007, Note_off_c, 5, 51, 124
1, 124011, Note_off_c, 2, 54, 108
1, 124015, Note_off_c, 2, 49, 110
1, 124032, Note_on_c, 0, 54, 127
1, 124032, Note_on_c, 9, 39, 127
1, 124032, Note_on_c, 9, 40, 127
1, 124032, Note_on_c, 9, 42, 105
1, 124032, Note_on_c, 9, 36, 127
1, 124032, Note_on_c, 9, 54, 114
1, 124041, Note_off_c, 9, 54, 114
1, 124041, Note_off_c, 9, 36, 127
1, 124041, Note_off_c, 9, 42, 105
1, 124041, Note_off_c, 9, 40, 127
1, 124041, Note_off_c, 9, 39, 127
1, 124089, Note_off_c, 0, 54, 127
1, 124133, Note_off_c, 1, 37, 102
1, 124157, Note_off_c, 4, 73, 114
1, 124157, Note_off_c, 4, 61, 114
1, 124160, Note_on_c, 1, 34, 87
1, 124160, Note_on_c, 4, 58, 113
1, 124160, Note_on_c, 4, 70, 113
1, 124201, Note_off_c, 4, 70, 113
1, 124201, Note_off_c, 4, 58, 113
1, 124211, Note_off_c, 1, 34, 87
1, 124224, Note_on_c, 0, 56, 127
1, 124224, Note_on_c, 1, 39, 101
1, 124224, Note_on_c, 2, 54, 112
1, 124224, Note_on_c, 2, 49, 112
1, 124224, Note_on_c, 4, 63, 113
1, 124224, Note_on_c, 4, 75, 113
1, 124224, Note_on_c, 9, 42, 87
1, 124224, Note_on_c, 9, 54, 70
1, 124233, Note_off_c, 9, 54, 70
1, 124233, Note_off_c, 9, 42, 87
1, 124309, Note_off_c, 1, 39, 101
1, 124317, Note_off_c, 4, 75, 113
1, 124317, Note_off_c, 4, 63, 113
1, 124319, Note_off_c, 0, 56, 127
1, 124348, Note_on_c, 9, 54, 71
1, 124352, Note_on_c, 0, 54, 127
1, 124352, Note_on_c, 1, 39, 87
1, 124352, Note_on_c, 4, 63, 113
1, 124352, Note_on_c, 4, 75, 113
1, 124357, Note_off_c, 9, 54, 71
1, 124393, Note_off_c, 0, 54, 127
1, 124403, Note_off_c, 4, 75, 113
1, 124403, Note_off_c, 4, 63, 113
1, 124403, Note_off_c, 2, 54, 112
1, 124416, Note_on_c, 0, 27, 110
1, 124416, Note_on_c, 1, 27, 107
1, 124416, Note_on_c, 2, 39, 111
1, 124416, Note_on_c, 9, 42, 84
1, 124416, Note_on_c, 9, 36, 127
1, 124416, Note_on_c, 9, 54, 114
1, 124425, Note_off_c, 9, 54, 114
1, 124425, Note_off_c, 9, 36, 127
1, 124425, Note_off_c, 9, 42, 84
1, 124425, Note_off_c, 2, 49, 112
1, 124437, Note_off_c, 1, 39, 87
1, 124533, Note_off_c, 2, 39, 111
1, 124569, Note_off_c, 0, 27, 110
1, 124591, Note_off_c, 1, 27, 107
1, 124608, Note_on_c, 0, 54, 112
1, 124608, Note_on_c, 0, 49, 118
1, 124608, Note_on_c, 1, 39, 107
1, 124608, Note_on_c, 2, 51, 114
1, 124608, Note_on_c, 4, 63, 113
1, 124608, Note_on_c, 4, 75, 113
1, 124608, Note_on_c, 5, 49, 114
1, 124608, Note_on_c, 9, 42, 78
1, 124608, Note_on_c, 9, 54, 56
1, 124617, Note_off_c, 9, 54, 56
1, 124617, Note_off_c, 9, 42, 78
1, 124627, Note_off_c, 5, 49, 114
1, 124627, Note_off_c, 0, 49, 118
1, 124639, Note_off_c, 0, 54, 112
1, 124657, Note_off_c, 4, 75, 113
1, 124657, Note_off_c, 4, 63, 113
1, 124661, Note_off_c, 2, 51, 114
1, 124677, Note_off_c, 1, 39, 107
1, 124736, Note_on_c, 1, 27, 72
1, 124736, Note_on_c, 5, 51, 127
1, 124773, Note_off_c, 1, 27, 72
1, 124777, Note_off_c, 5, 51, 127
1, 124800, Note_on_c, 0, 39, 110
1, 124800, Note_on_c, 1, 37, 102
1, 124800, Note_on_c, 2, 49, 121
1, 124800, Note_on_c, 4, 61, 113
1, 124800, Note_on_c, 4, 73, 113
1, 124800, Note_on_c, 9, 39, 127
1, 124800, Note_on_c, 9, 42, 120
1, 124800, Note_on_c, 9, 40, 126
1, 124800, Note_on_c, 9, 36, 127
1, 124800, Note_on_c, 9, 54, 112
1, 124809, Note_off_c, 9, 54, 112
1, 124809, Note_off_c, 9, 36, 127
1, 124809, Note_off_c, 9, 40, 126
1, 124809, Note_off_c, 9, 42, 120
1, 124809, Note_off_c, 9, 39, 127
1, 124883, Note_off_c, 0, 39, 110
1, 124893, Note_off_c, 4, 73, 113
1, 124893, Note_off_c, 4, 61, 113
1, 124909, Note_off_c, 1, 37, 102
1, 124928, Note_on_c, 0, 54, 111
1, 124928, Note_on_c, 0, 49, 115
1, 124928, Note_on_c, 1, 39, 101
1, 124928, Note_on_c, 4, 63, 113
1, 124928, Note_on_c, 4, 75, 113
1, 124928, Note_on_c, 5, 49, 105
1, 124937, Note_off_c, 2, 49, 121
1, 124943, Note_off_c, 5, 49, 105
1, 124947, Note_off_c, 0, 49, 115
1, 124959, Note_off_c, 0, 54, 111
1, 124975, Note_off_c, 4, 75, 113
1, 124975, Note_off_c, 4, 63, 113
1, 124985, Note_off_c, 1, 39, 101
1, 124992, Note_on_c, 0, 27, 118
1, 124992, Note_on_c, 2, 51, 110
1, 124992, Note_on_c, 5, 51, 127
1, 124992, Note_on_c, 9, 42, 70
1, 124992, Note_on_c, 9, 36, 127
1, 124992, Note_on_c, 9, 54, 57
1, 125001, Note_off_c, 9, 54, 57
1, 125001, Note_off_c, 9, 36, 127
1, 125001, Note_off_c, 9, 42, 70
1, 125039, Note_off_c, 5, 51, 127
1, 125049, Note_off_c, 2, 51, 110
1, 125145, Note_off_c, 0, 27, 118
1, 125184, Note_on_c, 0, 49, 109
1, 125184, Note_on_c, 0, 54, 98
1, 125184, Note_on_c, 1, 44, 102
1, 125184, Note_on_c, 2, 44, 110
1, 125184, Note_on_c, 4, 70, 113
1, 125184, Note_on_c, 4, 82, 113
1, 125184, Note_on_c, 5, 56, 122
1, 125184, Note_on_c, 9, 42, 113
1, 125184, Note_on_c, 9, 36, 127
1, 125184, Note_on_c, 9, 54, 117
1, 125193, Note_off_c, 9, 54, 117
1, 125193, Note_off_c, 9, 36, 127
1, 125193, Note_off_c, 9, 42, 113
1, 125193, Note_off_c, 0, 54, 98
1, 125217, Pitch_bend_c, 1, 10688
1, 125219, Note_off_c, 0, 49, 109
1, 125233, Note_off_c, 5, 56, 122
1, 125233, Pitch_bend_c, 1, 11456
1, 125241, Note_off_c, 4, 82, 113
1, 125241, Note_off_c, 4, 70, 113
1, 125243, Note_off_c, 2, 44, 110
1, 125247, Pitch_bend_c, 1, 14144
1, 125269, Pitch_bend_c, 1, 14432
1, 125277, Note_off_c, 1, 44, 102
1, 125277, Pitch_bend_c, 1, 14208
1, 125289, Pitch_bend_c, 1, 13888
1, 125301, Pitch_bend_c, 1, 12160
1, 125315, Pitch_bend_c, 1, 9344
1, 125335, Pitch_bend_c, 1, 8320
1, 125343, Pitch_bend_c, 1, 8192
1, 125376, Note_on_c, 0, 27, 107
1, 125376, Note_on_c, 1, 42, 100
1, 125376, Note_on_c, 2, 45, 105
1, 125376, Note_on_c, 4, 68, 113
1, 125376, Note_on_c, 4, 80, 113
1, 125376, Note_on_c, 5, 54, 121
1, 125376, Note_on_c, 9, 42, 75
1, 125376, Note_on_c, 9, 54, 64
1, 125382, Note_on_c, 3, 58, 127
1, 125385, Note_off_c, 9, 54, 64
1, 125385, Note_off_c, 9, 42, 75
1, 125415, Note_off_c, 3, 58, 127
1, 125423, Pitch_bend_c, 1, 8448
1, 125427, Note_off_c, 4, 80, 113
1, 125427, Note_off_c, 4, 68, 113
1, 125427, Pitch_bend_c, 1, 10784
1, 125429, Note_off_c, 5, 54, 121
1, 125443, Pitch_bend_c, 1, 14240
1, 125457, Note_off_c, 0, 27, 107
1, 125457, Pitch_bend_c, 1, 16383
1, 125471, Note_off_c, 2, 45, 105
1, 125485, Note_off_c, 1, 42, 100
1, 125490, Note_on_c, 3, 58, 127
1, 125499, Control_c, 3, 1, 25
1, 125504, Note_on_c, 2, 46, 98
1, 125511, Pitch_bend_c, 1, 14656
1, 125525, Pitch_bend_c, 1, 10944
1, 125527, Control_c, 3, 1, 33
1, 125539, Pitch_bend_c, 1, 8352
1, 125545, Control_c, 3, 1, 46
1, 125555, Pitch_bend_c, 1, 8192
1, 125565, Control_c, 3, 1, 57
1, 125568, Note_on_c, 1, 42, 109
1, 125568, Note_on_c, 4, 66, 113
1, 125568, Note_on_c, 4, 78, 113
1, 125568, Note_on_c, 5, 56, 125
1, 125568, Note_on_c, 9, 39, 124
1, 125568, Note_on_c, 9, 42, 127
1, 125568, Note_on_c, 9, 40, 127
1, 125568, Note_on_c, 9, 36, 127
1, 125568, Note_on_c, 9, 54, 110
1, 125575, Note_off_c, 2, 46, 98
1, 125577, Note_off_c, 9, 54, 110
1, 125577, Note_off_c, 9, 36, 127
1, 125577, Note_off_c, 9, 40, 127
1, 125577, Note_off_c, 9, 42, 127
1, 125577, Note_off_c, 9, 39, 124
1, 125581, Control_c, 3, 1, 61
1, 125599, Control_c, 3, 1, 68
1, 125619, Control_c, 3, 1, 77
1, 125631, Note_off_c, 4, 78, 113
1, 125631, Note_off_c, 4, 66, 113
1, 125633, Note_off_c, 5, 56, 125
1, 125641, Control_c, 3, 1, 91
1, 125673, Control_c, 3, 1, 96
1, 125689, Control_c, 3, 1, 100
1, 125696, Note_on_c, 2, 49, 110
1, 125696, Note_on_c, 5, 54, 125
1, 125711, Control_c, 3, 1, 102
1, 125719, Note_off_c, 3, 58, 127
1, 125729, Control_c, 3, 1, 98
1, 125733, Control_c, 1, 1, 10
1, 125739, Note_off_c, 1, 42, 109
1, 125743, Control_c, 3, 1, 58
1, 125749, Control_c, 1, 1, 24
1, 125751, Note_off_c, 5, 54, 125
1, 125760, Note_on_c, 1, 39, 97
1, 125760, Note_on_c, 5, 51, 124
1, 125760, Note_on_c, 9, 42, 82
1, 125760, Note_on_c, 9, 54, 57
1, 125761, Control_c, 3, 1, 41
1, 125762, Note_on_c, 3, 58, 119
1, 125767, Control_c, 1, 1, 5
1, 125769, Note_off_c, 9, 54, 57
1, 125769, Note_off_c, 9, 42, 82
1, 125769, Note_off_c, 2, 49, 110
1, 125785, Control_c, 3, 1, 0
1, 125799, Control_c, 1, 1, 0
1, 125801, Note_off_c, 3, 58, 119
1, 125821, Note_off_c, 5, 51, 124
1, 125841, Note_off_c, 1, 39, 97
1, 125888, Note_on_c, 1, 37, 90
1, 125888, Note_on_c, 2, 51, 117
1, 125927, Note_off_c, 2, 51, 117
1, 125927, Note_off_c, 1, 37, 90
1, 125952, Note_on_c, 0, 56, 127
1, 125952, Note_on_c, 0, 50, 127
1, 125952, Note_on_c, 0, 34, 127
1, 125952, Note_on_c, 1, 34, 107
1, 125952, Note_on_c, 2, 56, 90
1, 125952, Note_on_c, 2, 62, 97
1, 125952, Note_on_c, 2, 34, 100
1, 125952, Note_on_c, 4, 65, 125
1, 125952, Note_on_c, 9, 36, 127
1, 125952, Note_on_c, 9, 49, 84
1, 125953, Pitch_bend_c, 3, 2112
1, 125956, Note_on_c, 3, 65, 127
1, 125961, Note_off_c, 9, 49, 84
1, 125961, Note_off_c, 9, 36, 127
1, 125975, Pitch_bend_c, 3, 4224
1, 125999, Note_off_c, 1, 34, 107
1, 125999, Pitch_bend_c, 3, 7552
1, 126009, Note_off_c, 0, 34, 127
1, 126021, Pitch_bend_c, 3, 7936
1, 126023, Pitch_bend_c, 3, 8192
1, 126059, Note_off_c, 2, 34, 100
1, 126080, Note_on_c, 1, 34, 107
1, 126080, Note_on_c, 5, 58, 127
1, 126105, Note_off_c, 2, 56, 90
1, 126117, Note_off_c, 2, 62, 97
1, 126121, Note_off_c, 5, 58, 127
1, 126144, Note_on_c, 0, 34, 121
1, 126144, Note_on_c, 2, 34, 97
1, 126144, Note_on_c, 9, 42, 77
1, 126153, Note_off_c, 9, 42, 77
1, 126177, Control_c, 3, 1, 4
1, 126181, Note_off_c, 0, 34, 121
1, 126183, Note_off_c, 2, 34, 97
1, 126195, Control_c, 3, 1, 8
1, 126203, Note_off_c, 1, 34, 107
1, 126211, Control_c, 3, 1, 13
1, 126231, Control_c, 3, 1, 17
1, 126237, Note_off_c, 3, 65, 127
1, 126247, Control_c, 3, 1, 23
1, 126267, Control_c, 3, 1, 26
1, 126272, Note_on_c, 1, 38, 107
1, 126272, Note_on_c, 2, 56, 85
1, 126272, Note_on_c, 2, 62, 94
1, 126272, Note_on_c, 5, 58, 123
1, 126283, Control_c, 3, 1, 28
1, 126299, Note_off_c, 5, 58, 123
1, 126301, Note_off_c, 2, 56, 85
1, 126303, Control_c, 3, 1, 31
1, 126313, Note_off_c, 2, 62, 94
1, 126334, Note_on_c, 3, 65, 127
1, 126336, Note_on_c, 2, 34, 107
1, 126336, Note_on_c, 9, 39, 126
1, 126336, Note_on_c, 9, 40, 127
1, 126336, Note_on_c, 9, 42, 122
1, 126336, Note_on_c, 9, 36, 127
1, 126336, Note_on_c, 9, 54, 99
1, 126345, Note_off_c, 9, 54, 99
1, 126345, Note_off_c, 9, 36, 127
1, 126345, Note_off_c, 9, 42, 122
1, 126345, Note_off_c, 9, 40, 127
1, 126345, Note_off_c, 9, 39, 126
1, 126351, Control_c, 3, 1, 34
1, 126373, Control_c, 3, 1, 37
1, 126375, Note_off_c, 1, 38, 107
1, 126391, Note_off_c, 2, 34, 107
1, 126391, Control_c, 3, 1, 40
1, 126449, Control_c, 3, 1, 41
1, 126464, Note_on_c, 1, 41, 107
1, 126464, Note_on_c, 5, 46, 116
1, 126465, Control_c, 3, 1, 44
1, 126477, Note_off_c, 4, 65, 125
1, 126487, Control_c, 3, 1, 0
1, 126495, Note_off_c, 5, 46, 116
1, 126515, Note_off_c, 3, 65, 127
1, 126524, Note_on_c, 3, 63, 109
1, 126528, Note_on_c, 0, 34, 127
1, 126528, Note_on_c, 2, 34, 97
1, 126528, Note_on_c, 9, 42, 62
1, 126531, Note_off_c, 0, 50, 127
1, 126535, Note_off_c, 0, 56, 127
1, 126537, Note_off_c, 9, 42, 62
1, 126559, Note_off_c, 3, 63, 109
1, 126571, Note_off_c, 0, 34, 127
1, 126573, Note_off_c, 1, 41, 107
1, 126577, Note_off_c, 2, 34, 97
1, 126650, Note_on_c, 3, 65, 124
1, 126656, Note_on_c, 1, 46, 107
1, 126663, Control_c, 3, 1, 37
1, 126683, Control_c, 3, 1, 62
1, 126697, Control_c, 3, 1, 60
1, 126715, Control_c, 3, 1, 36
1, 126720, Note_on_c, 0, 51, 127
1, 126720, Note_on_c, 0, 57, 127
1, 126720, Note_on_c, 0, 35, 127
1, 126720, Note_on_c, 1, 35, 107
1, 126720, Note_on_c, 2, 57, 97
1, 126720, Note_on_c, 2, 35, 113
1, 126720, Note_on_c, 2, 63, 98
1, 126720, Note_on_c, 4, 66, 125
1, 126720, Note_on_c, 5, 47, 127
1, 126720, Note_on_c, 9, 42, 117
1, 126720, Note_on_c, 9, 36, 127
1, 126729, Note_off_c, 9, 36, 127
1, 126729, Note_off_c, 9, 42, 117
1, 126735, Control_c, 3, 1, 13
1, 126737, Note_off_c, 1, 46, 107
1, 126751, Control_c, 3, 1, 3
1, 126759, Note_off_c, 0, 35, 127
1, 126759, Note_off_c, 3, 65, 124
1, 126765, Note_off_c, 5, 47, 127
1, 126771, Control_c, 3, 1, 0
1, 126783, Note_off_c, 2, 35, 113
1, 126831, Note_off_c, 1, 35, 107
1, 126848, Note_on_c, 1, 39, 107
1, 126848, Note_on_c, 5, 59, 109
1, 126861, Note_off_c, 2, 57, 97
1, 126873, Note_off_c, 5, 59, 109
1, 126907, Note_off_c, 2, 63, 98
1, 126912, Note_on_c, 0, 35, 124
1, 126912, Note_on_c, 2, 35, 110
1, 126912, Note_on_c, 9, 42, 63
1, 126921, Note_off_c, 9, 42, 63
1, 126931, Note_off_c, 1, 39, 107
1, 126947, Note_off_c, 0, 35, 124
1, 126963, Note_off_c, 2, 35, 110
1, 127040, Note_on_c, 1, 42, 107
1, 127040, Note_on_c, 2, 57, 99
1, 127040, Note_on_c, 2, 63, 101
1, 127040, Note_on_c, 5, 59, 127
1, 127079, Note_off_c, 5, 59, 127
1, 127089, Note_off_c, 2, 57, 99
1, 127104, Note_on_c, 0, 35, 118
1, 127104, Note_on_c, 2, 35, 110
1, 127104, Note_on_c, 9, 39, 122
1, 127104, Note_on_c, 9, 40, 127
1, 127104, Note_on_c, 9, 42, 126
1, 127104, Note_on_c, 9, 36, 127
1, 127104, Note_on_c, 9, 54, 106
1, 127107, Note_off_c, 2, 63, 101
1, 127113, Note_off_c, 9, 54, 106
1, 127113, Note_off_c, 9, 36, 127
1, 127113, Note_off_c, 9, 42, 126
1, 127113, Note_off_c, 9, 40, 127
1, 127113, Note_off_c, 9, 39, 122
1, 127123, Note_off_c, 1, 42, 107
1, 127127, Note_off_c, 0, 35, 118
1, 127151, Note_off_c, 2, 35, 110
1, 127219, Note_off_c, 4, 66, 125
1, 127232, Note_on_c, 1, 47, 107
1, 127232, Note_on_c, 5, 47, 119
1, 127273, Note_off_c, 5, 47, 119
1, 127296, Note_on_c, 0, 35, 127
1, 127296, Note_on_c, 2, 35, 106
1, 127296, Note_on_c, 9, 42, 64
1, 127300, Note_on_c, 3, 58, 127
1, 127305, Note_off_c, 9, 42, 64
1, 127313, Note_off_c, 1, 47, 107
1, 127325, Note_off_c, 0, 57, 127
1, 127333, Note_off_c, 0, 51, 127
1, 127353, Note_off_c, 3, 58, 127
1, 127353, Note_off_c, 0, 35, 127
1, 127361, Note_off_c, 2, 35, 106
1, 127424, Note_on_c, 1, 46, 106
1, 127424, Note_on_c, 5, 58, 114
1, 127443, Note_off_c, 5, 58, 114
1, 127445, Control_c, 3, 1, 25
1, 127482, Note_on_c, 3, 65, 127
1, 127488, Note_on_c, 0, 56, 127
1, 127488, Note_on_c, 0, 50, 125
1, 127488, Note_on_c, 0, 34, 127
1, 127488, Note_on_c, 2, 34, 113
1, 127488, Note_on_c, 2, 56, 100
1, 127488, Note_on_c, 2, 62, 106
1, 127488, Note_on_c, 4, 65, 125
1, 127488, Note_on_c, 5, 46, 114
1, 127488, Note_on_c, 9, 36, 127
1, 127488, Note_on_c, 9, 42, 109
1, 127495, Control_c, 3, 1, 63
1, 127497, Note_off_c, 9, 42, 109
1, 127497, Note_off_c, 9, 36, 127
1, 127517, Note_off_c, 1, 46, 106
1, 127529, Note_off_c, 5, 46, 114
1, 127529, Control_c, 3, 1, 67
1, 127547, Note_off_c, 2, 34, 113
1, 127551, Control_c, 3, 1, 72
1, 127553, Note_off_c, 0, 34, 127
1, 127583, Control_c, 3, 1, 75
1, 127597, Control_c, 3, 1, 78
1, 127616, Note_on_c, 1, 41, 106
1, 127616, Note_on_c, 5, 58, 127
1, 127635, Control_c, 3, 1, 81
1, 127645, Note_off_c, 5, 58, 127
1, 127677, Note_off_c, 2, 56, 100
1, 127679, Control_c, 3, 1, 71
1, 127680, Note_on_c, 0, 34, 127
1, 127680, Note_on_c, 2, 34, 97
1, 127680, Note_on_c, 9, 42, 67
1, 127689, Note_off_c, 9, 42, 67
1, 127693, Note_off_c, 2, 62, 106
1, 127699, Note_off_c, 1, 41, 106
1, 127705, Control_c, 3, 1, 62
1, 127725, Control_c, 3, 1, 56
1, 127731, Note_off_c, 2, 34, 97
1, 127731, Note_off_c, 0, 34, 127
1, 127743, Control_c, 3, 1, 47
1, 127759, Control_c, 3, 1, 41
1, 127779, Control_c, 3, 1, 38
1, 127783, Note_off_c, 3, 65, 127
1, 127797, Control_c, 3, 1, 43
1, 127808, Note_on_c, 1, 38, 106
1, 127808, Note_on_c, 2, 56, 101
1, 127808, Note_on_c, 2, 62, 104
1, 127808, Note_on_c, 5, 58, 125
1, 127813, Control_c, 3, 1, 49
1, 127829, Note_off_c, 5, 58, 125
1, 127831, Control_c, 3, 1, 54
1, 127849, Note_off_c, 2, 56, 101
1, 127851, Control_c, 3, 1, 56
1, 127861, Note_off_c, 2, 62, 104
1, 127868, Note_on_c, 3, 65, 127
1, 127872, Note_on_c, 0, 34, 127
1, 127872, Note_on_c, 2, 34, 107
1, 127872, Note_on_c, 9, 39, 126
1, 127872, Note_on_c, 9, 40, 127
1, 127872, Note_on_c, 9, 42, 124
1, 127872, Note_on_c, 9, 36, 127
1, 127872, Note_on_c, 9, 54, 108
1, 127875, Note_off_c, 1, 38, 106
1, 127881, Note_off_c, 9, 54, 108
1, 127881, Note_off_c, 9, 36, 127
1, 127881, Note_off_c, 9, 42, 124
1, 127881, Note_off_c, 9, 40, 127
1, 127881, Note_off_c, 9, 39, 126
1, 127881, Control_c, 3, 1, 66
1, 127927, Note_off_c, 0, 34, 127
1, 127929, Control_c, 3, 1, 64
1, 127939, Note_off_c, 2, 34, 107
1, 127945, Control_c, 3, 1, 58
1, 127949, Note_off_c, 3, 65, 127
1, 127967, Note_off_c, 4, 65, 125
1, 127984, Note_on_c, 3, 63, 122
1, 127989, Control_c, 3, 1, 43
1, 128000, Note_on_c, 1, 34, 106
1, 128000, Note_on_c, 5, 46, 123
1, 128013, Control_c, 3, 1, 30
1, 128031, Control_c, 3, 1, 18
1, 128033, Note_off_c, 3, 63, 122
1, 128039, Note_off_c, 5, 46, 123
1, 128063, Control_c, 3, 1, 27
1, 128064, Note_on_c, 0, 34, 127
1, 128064, Note_on_c, 2, 34, 98
1, 128064, Note_on_c, 9, 42, 73
1, 128073, Note_off_c, 9, 42, 73
1, 128087, Control_c, 3, 1, 33
1, 128103, Control_c, 3, 1, 41
1, 128109, Note_off_c, 2, 34, 98
1, 128111, Note_off_c, 1, 34, 106
1, 128111, Note_off_c, 0, 56, 127
1, 128119, Note_off_c, 0, 34, 127
1, 128119, Control_c, 3, 1, 50
1, 128137, Note_off_c, 0, 50, 125
1, 128141, Control_c, 3, 1, 56
1, 128144, Note_on_c, 3, 63, 122
1, 128155, Control_c, 3, 1, 58
1, 128175, Control_c, 3, 1, 66
1, 128192, Note_on_c, 1, 33, 106
1, 128192, Note_on_c, 2, 61, 87
1, 128192, Note_on_c, 2, 55, 92
1, 128192, Note_on_c, 5, 57, 112
1, 128193, Control_c, 3, 1, 68
1, 128211, Note_off_c, 5, 57, 112
1, 128215, Control_c, 3, 1, 65
1, 128239, Control_c, 3, 1, 67
1, 128253, Control_c, 3, 1, 72
1, 128256, Note_on_c, 0, 55, 127
1, 128256, Note_on_c, 0, 49, 127
1, 128256, Note_on_c, 0, 33, 127
1, 128256, Note_on_c, 2, 33, 104
1, 128256, Note_on_c, 4, 64, 125
1, 128256, Note_on_c, 5, 45, 117
1, 128256, Note_on_c, 9, 36, 127
1, 128256, Note_on_c, 9, 42, 107
1, 128265, Note_off_c, 9, 42, 107
1, 128265, Note_off_c, 9, 36, 127
1, 128273, Control_c, 3, 1, 74
1, 128283, Note_off_c, 3, 63, 122
1, 128297, Note_off_c, 5, 45, 117
1, 128301, Note_off_c, 0, 33, 127
1, 128305, Control_c, 3, 1, 79
1, 128330, Note_on_c, 3, 61, 127
1, 128343, Note_off_c, 2, 33, 104
1, 128345, Note_off_c, 1, 33, 106
1, 128359, Control_c, 3, 1, 80
1, 128384, Note_on_c, 1, 37, 106
1, 128384, Note_on_c, 5, 57, 119
1, 128387, Control_c, 3, 1, 69
1, 128393, Note_off_c, 3, 61, 127
1, 128411, Control_c, 3, 1, 64
1, 128415, Note_off_c, 5, 57, 119
1, 128425, Control_c, 3, 1, 65
1, 128447, Control_c, 3, 1, 68
1, 128448, Note_on_c, 0, 33, 121
1, 128448, Note_on_c, 2, 33, 106
1, 128448, Note_on_c, 9, 42, 78
1, 128448, Note_on_c, 9, 36, 127
1, 128457, Note_off_c, 9, 36, 127
1, 128457, Note_off_c, 9, 42, 78
1, 128457, Note_off_c, 1, 37, 106
1, 128461, Control_c, 3, 1, 71
1, 128481, Control_c, 3, 1, 70
1, 128497, Note_off_c, 2, 61, 87
1, 128503, Control_c, 3, 1, 51
1, 128507, Note_off_c, 0, 33, 121
1, 128509, Note_off_c, 2, 55, 92
1, 128511, Note_off_c, 2, 33, 106
1, 128526, Note_on_c, 3, 63, 127
1, 128557, Control_c, 3, 1, 64
1, 128576, Note_on_c, 1, 40, 106
1, 128576, Note_on_c, 2, 55, 99
1, 128576, Note_on_c, 2, 61, 103
1, 128576, Note_on_c, 5, 57, 127
1, 128587, Note_off_c, 3, 63, 127
1, 128593, Control_c, 3, 1, 52
1, 128603, Note_off_c, 5, 57, 127
1, 128625, Control_c, 3, 1, 10
1, 128631, Note_off_c, 2, 55, 99
1, 128635, Note_off_c, 2, 61, 103
1, 128640, Note_on_c, 0, 33, 125
1, 128640, Note_on_c, 2, 33, 104
1, 128640, Note_on_c, 9, 39, 127
1, 128640, Note_on_c, 9, 40, 127
1, 128640, Note_on_c, 9, 42, 127
1, 128640, Note_on_c, 9, 36, 127
1, 128640, Note_on_c, 9, 54, 112
1, 128647, Control_c, 3, 1, 0
1, 128649, Note_off_c, 9, 54, 112
1, 128649, Note_off_c, 9, 36, 127
1, 128649, Note_off_c, 9, 42, 127
1, 128649, Note_off_c, 9, 40, 127
1, 128649, Note_off_c, 9, 39, 127
1, 128663, Note_off_c, 1, 40, 106
1, 128697, Note_off_c, 4, 64, 125
1, 128701, Note_off_c, 0, 33, 125
1, 128707, Note_off_c, 2, 33, 104
1, 128714, Note_on_c, 3, 66, 127
1, 128759, Control_c, 3, 1, 19
1, 128768, Note_on_c, 1, 45, 106
1, 128768, Note_on_c, 5, 45, 118
1, 128785, Control_c, 3, 1, 47
1, 128805, Note_off_c, 5, 45, 118
1, 128809, Control_c, 3, 1, 74
1, 128832, Note_on_c, 0, 33, 114
1, 128832, Note_on_c, 2, 33, 104
1, 128832, Note_on_c, 9, 42, 71
1, 128832, Note_on_c, 9, 36, 127
1, 128841, Note_off_c, 9, 36, 127
1, 128841, Note_off_c, 9, 42, 71
1, 128843, Control_c, 3, 1, 79
1, 128851, Note_off_c, 0, 49, 127
1, 128855, Note_off_c, 0, 55, 127
1, 128859, Control_c, 3, 1, 82
1, 128863, Note_off_c, 0, 33, 114
1, 128863, Note_off_c, 1, 45, 106
1, 128875, Control_c, 3, 1, 87
1, 128893, Control_c, 3, 1, 88
1, 128897, Note_off_c, 2, 33, 104
1, 128947, Control_c, 3, 1, 90
1, 128960, Note_on_c, 1, 44, 106
1, 128960, Note_on_c, 5, 56, 93
1, 128967, Control_c, 3, 1, 91
1, 128979, Note_off_c, 5, 56, 93
1, 128991, Control_c, 3, 1, 83
1, 129015, Note_off_c, 1, 44, 106
1, 129019, Control_c, 3, 1, 73
1, 129024, Note_on_c, 0, 32, 127
1, 129024, Note_on_c, 0, 54, 127
1, 129024, Note_on_c, 0, 48, 127
1, 129024, Note_on_c, 1, 32, 106
1, 129024, Note_on_c, 2, 32, 113
1, 129024, Note_on_c, 4, 63, 125
1, 129024, Note_on_c, 4, 75, 125
1, 129024, Note_on_c, 5, 44, 121
1, 129024, Note_on_c, 9, 36, 123
1, 129024, Note_on_c, 9, 49, 91
1, 129033, Note_off_c, 9, 49, 91
1, 129033, Note_off_c, 9, 36, 123
1, 129037, Control_c, 3, 1, 57
1, 129039, Note_off_c, 3, 66, 127
1, 129055, Control_c, 3, 1, 27
1, 129057, Note_off_c, 5, 44, 121
1, 129075, Control_c, 3, 1, 16
1, 129100, Note_on_c, 3, 63, 127
1, 129103, Control_c, 3, 1, 19
1, 129111, Note_off_c, 1, 32, 106
1, 129115, Note_off_c, 0, 32, 127
1, 129133, Control_c, 3, 1, 28
1, 129151, Control_c, 3, 1, 32
1, 129152, Note_on_c, 1, 44, 106
1, 129152, Note_on_c, 5, 56, 127
1, 129175, Note_off_c, 5, 56, 127
1, 129179, Note_off_c, 3, 63, 127
1, 129181, Control_c, 3, 1, 33
1, 129191, Note_off_c, 1, 44, 106
1, 129209, Note_off_c, 2, 32, 113
1, 129212, Note_on_c, 3, 61, 123
1, 129216, Note_on_c, 0, 32, 120
1, 129216, Note_on_c, 1, 32, 106
1, 129216, Note_on_c, 2, 60, 74
1, 129216, Note_on_c, 2, 54, 72
1, 129216, Note_on_c, 5, 48, 127
1, 129216, Note_on_c, 9, 46, 92
1, 129216, Note_on_c, 9, 40, 104
1, 129225, Note_off_c, 9, 40, 104
1, 129225, Note_off_c, 9, 46, 92
1, 129231, Control_c, 3, 1, 38
1, 129233, Note_off_c, 2, 60, 74
1, 129255, Control_c, 3, 1, 33
1, 129257, Note_off_c, 5, 48, 127
1, 129265, Note_off_c, 2, 54, 72
1, 129273, Control_c, 3, 1, 28
1, 129279, Note_off_c, 3, 61, 123
1, 129283, Note_off_c, 0, 32, 120
1, 129288, Note_on_c, 3, 58, 112
1, 129291, Control_c, 3, 1, 27
1, 129321, Control_c, 3, 1, 17
1, 129323, Note_off_c, 1, 32, 106
1, 129344, Note_on_c, 9, 36, 114
1, 129351, Control_c, 3, 1, 21
1, 129353, Note_off_c, 9, 36, 114
1, 129359, Note_off_c, 3, 58, 112
1, 129379, Control_c, 3, 1, 26
1, 129398, Note_on_c, 3, 56, 116
1, 129408, Note_on_c, 0, 32, 113
1, 129408, Note_on_c, 1, 36, 105
1, 129408, Note_on_c, 2, 32, 100
1, 129408, Note_on_c, 5, 49, 127
1, 129408, Note_on_c, 9, 46, 83
1, 129408, Note_on_c, 9, 54, 110
1, 129409, Control_c, 3, 1, 37
1, 129417, Note_off_c, 9, 54, 110
1, 129417, Note_off_c, 9, 46, 83
1, 129435, Control_c, 3, 1, 40
1, 129441, Note_off_c, 5, 49, 127
1, 129447, Note_off_c, 2, 32, 100
1, 129451, Control_c, 3, 1, 43
1, 129453, Note_off_c, 0, 32, 113
1, 129467, Note_off_c, 0, 48, 127
1, 129477, Control_c, 3, 1, 44
1, 129478, Note_on_c, 3, 54, 127
1, 129479, Note_off_c, 3, 56, 116
1, 129497, Note_off_c, 0, 54, 127
1, 129507, Note_off_c, 1, 36, 105
1, 129509, Control_c, 3, 1, 51
1, 129527, Control_c, 3, 1, 47
1, 129536, Note_on_c, 0, 54, 127
1, 129536, Note_on_c, 2, 54, 92
1, 129536, Note_on_c, 2, 60, 100
1, 129541, Control_c, 3, 1, 40
1, 129557, Note_off_c, 2, 54, 92
1, 129573, Note_off_c, 2, 60, 100
1, 129579, Control_c, 3, 1, 44
1, 129595, Control_c, 3, 1, 48
1, 129600, Note_on_c, 0, 48, 127
1, 129600, Note_on_c, 0, 32, 124
1, 129600, Note_on_c, 1, 36, 105
1, 129600, Note_on_c, 5, 50, 127
1, 129600, Note_on_c, 9, 46, 80
1, 129600, Note_on_c, 9, 36, 127
1, 129609, Note_off_c, 9, 36, 127
1, 129609, Note_off_c, 9, 46, 80
1, 129609, Note_off_c, 0, 54, 127
1, 129621, Control_c, 3, 1, 51
1, 129639, Note_off_c, 5, 50, 127
1, 129655, Note_off_c, 0, 48, 127
1, 129657, Note_off_c, 0, 32, 124
1, 129663, Control_c, 3, 1, 50
1, 129677, Control_c, 3, 1, 59
1, 129697, Note_off_c, 1, 36, 105
1, 129705, Control_c, 3, 1, 69
1, 129721, Control_c, 3, 1, 75
1, 129728, Note_on_c, 2, 32, 84
1, 129739, Control_c, 3, 1, 80
1, 129757, Note_off_c, 2, 32, 84
1, 129759, Control_c, 3, 1, 83
1, 129775, Control_c, 3, 1, 86
1, 129792, Note_on_c, 0, 54, 127
1, 129792, Note_on_c, 0, 48, 122
1, 129792, Note_on_c, 0, 32, 127
1, 129792, Note_on_c, 1, 37, 105
1, 129792, Note_on_c, 2, 54, 100
1, 129792, Note_on_c, 2, 60, 101
1, 129792, Note_on_c, 5, 51, 127
1, 129792, Note_on_c, 9, 46, 101
1, 129792, Note_on_c, 9, 40, 111
1, 129799, Control_c, 3, 1, 91
1, 129801, Note_off_c, 9, 40, 111
1, 129801, Note_off_c, 9, 46, 101
1, 129829, Note_off_c, 5, 51, 127
1, 129837, Note_off_c, 0, 32, 127
1, 129845, Control_c, 3, 1, 94
1, 129865, Control_c, 3, 1, 96
1, 129885, Note_off_c, 1, 37, 105
1, 129889, Control_c, 3, 1, 92
1, 129920, Note_on_c, 1, 32, 105
1, 129927, Control_c, 3, 1, 98
1, 129943, Note_off_c, 2, 54, 100
1, 129955, Control_c, 3, 1, 87
1, 129957, Note_off_c, 2, 60, 101
1, 129961, Note_off_c, 3, 54, 127
1, 129967, Note_off_c, 1, 32, 105
1, 129973, Control_c, 3, 1, 66
1, 129975, Note_off_c, 0, 48, 122
1, 129982, Note_on_c, 3, 56, 123
1, 129984, Note_on_c, 0, 32, 112
1, 129984, Note_on_c, 1, 37, 105
1, 129984, Note_on_c, 2, 32, 98
1, 129984, Note_on_c, 5, 54, 127
1, 129984, Note_on_c, 9, 46, 107
1, 129993, Note_off_c, 9, 46, 107
1, 129999, Note_off_c, 0, 54, 127
1, 130005, Control_c, 3, 1, 2
1, 130019, Note_off_c, 2, 32, 98
1, 130019, Control_c, 3, 1, 0
1, 130023, Note_off_c, 0, 32, 112
1, 130035, Note_off_c, 5, 54, 127
1, 130051, Note_off_c, 3, 56, 123
1, 130077, Note_off_c, 1, 37, 105
1, 130112, Note_on_c, 0, 54, 127
1, 130112, Note_on_c, 0, 48, 119
1, 130112, Note_on_c, 2, 54, 93
1, 130112, Note_on_c, 2, 60, 107
1, 130112, Note_on_c, 9, 36, 116
1, 130121, Note_off_c, 9, 36, 116
1, 130141, Note_off_c, 2, 54, 93
1, 130143, Note_off_c, 0, 48, 119
1, 130155, Note_off_c, 2, 60, 107
1, 130165, Note_off_c, 0, 54, 127
1, 130176, Note_on_c, 0, 32, 125
1, 130176, Note_on_c, 1, 38, 105
1, 130176, Note_on_c, 5, 56, 118
1, 130176, Note_on_c, 9, 40, 126
1, 130176, Note_on_c, 9, 54, 110
1, 130185, Note_off_c, 9, 54, 110
1, 130185, Note_off_c, 9, 40, 126
1, 130221, Note_off_c, 0, 32, 125
1, 130227, Note_off_c, 5, 56, 118
1, 130279, Note_off_c, 1, 38, 105
1, 130304, Note_on_c, 2, 54, 93
1, 130304, Note_on_c, 2, 60, 103
1, 130304, Note_on_c, 9, 45, 112
1, 130313, Note_off_c, 9, 45, 112
1, 130329, Note_off_c, 2, 54, 93
1, 130347, Note_off_c, 2, 60, 103
1, 130368, Note_on_c, 0, 32, 114
1, 130368, Note_on_c, 1, 39, 105
1, 130368, Note_on_c, 5, 57, 127
1, 130368, Note_on_c, 9, 41, 99
1, 130377, Note_off_c, 9, 41, 99
1, 130419, Note_off_c, 0, 32, 114
1, 130425, Note_off_c, 5, 57, 127
1, 130461, Note_off_c, 1, 39, 105
1, 130477, Note_off_c, 4, 75, 125
1, 130496, Note_on_c, 9, 36, 125
1, 130505, Note_off_c, 9, 36, 125
1, 130517, Note_off_c, 4, 63, 125
1, 130560, Note_on_c, 0, 34, 127
1, 130560, Note_on_c, 0, 70, 127
1, 130560, Note_on_c, 0, 58, 127
1, 130560, Note_on_c, 1, 34, 105
1, 130560, Note_on_c, 2, 62, 113
1, 130560, Note_on_c, 2, 66, 108
1, 130560, Note_on_c, 4, 78, 125
1, 130560, Note_on_c, 4, 82, 125
1, 130560, Note_on_c, 5, 58, 127
1, 130560, Note_on_c, 9, 49, 118
1, 130560, Note_on_c, 9, 40, 127
1, 130569, Note_off_c, 9, 40, 127
1, 130569, Note_off_c, 9, 49, 118
1, 130611, Note_off_c, 5, 58, 127
1, 130624, Note_on_c, 4, 66, 125
1, 130709, Note_off_c, 1, 34, 105
1, 130717, Note_off_c, 2, 62, 113
1, 130725, Note_off_c, 0, 58, 127
1, 130731, Note_off_c, 2, 66, 108
1, 130745, Note_off_c, 0, 70, 127
1, 130749, Note_off_c, 0, 34, 127
1, 130777, Note_off_c, 4, 82, 125
1, 130793, Note_off_c, 4, 78, 125
1, 130823, Control_c, 3, 1, 10
1, 130835, Note_off_c, 4, 66, 125
1, 130839, Control_c, 3, 1, 16
1, 130857, Control_c, 3, 1, 19
1, 130899, Control_c, 3, 1, 21
1, 130915, Control_c, 3, 1, 29
1, 130944, Note_on_c, 9, 54, 106
1, 130947, Control_c, 3, 1, 31
1, 130948, Note_on_c, 3, 66, 120
1, 130953, Note_off_c, 9, 54, 106
1, 130967, Control_c, 3, 1, 44
1, 130981, Control_c, 3, 1, 50
1, 130983, Note_off_c, 3, 66, 120
1, 130999, Control_c, 3, 1, 56
1, 131019, Control_c, 3, 1, 58
1, 131022, Note_on_c, 3, 66, 126
1, 131059, Control_c, 3, 1, 67
1, 131091, Control_c, 3, 1, 70
1, 131107, Control_c, 3, 1, 72
1, 131125, Control_c, 3, 1, 75
1, 131136, Note_on_c, 9, 40, 127
1, 131145, Note_off_c, 9, 40, 127
1, 131145, Control_c, 3, 1, 77
1, 131167, Control_c, 3, 1, 84
1, 131217, Control_c, 3, 1, 81
1, 131233, Control_c, 3, 1, 79
1, 131259, Control_c, 3, 1, 82
1, 131275, Control_c, 3, 1, 84
1, 131285, Note_off_c, 3, 66, 126
1, 131293, Control_c, 3, 1, 85
1, 131313, Control_c, 3, 1, 73
1, 131332, Note_on_c, 3, 63, 127
1, 131355, Control_c, 3, 1, 41
1, 131367, Note_off_c, 3, 63, 127
1, 131379, Control_c, 3, 1, 25
1, 131397, Control_c, 3, 1, 19
1, 131413, Control_c, 3, 1, 13
1, 131435, Control_c, 3, 1, 6
1, 131452, Note_on_c, 3, 57, 127
1, 131456, Note_on_c, 9, 40, 111
1, 131465, Note_off_c, 9, 40, 111
1, 131465, Control_c, 3, 1, 0
1, 131497, Control_c, 3, 1, 30
1, 131520, Note_on_c, 9, 45, 127
1, 131521, Control_c, 3, 1, 60
1, 131529, Note_off_c, 9, 45, 127
1, 131539, Control_c, 3, 1, 97
1, 131565, Control_c, 3, 1, 117
1, 131595, Control_c, 3, 1, 114
1, 131611, Control_c, 3, 1, 93
1, 131633, Control_c, 3, 1, 68
1, 131653, Control_c, 3, 1, 8
1, 131669, Note_off_c, 3, 57, 127
1, 131687, Control_c, 3, 1, 0
1, 131710, Note_on_c, 3, 56, 127
1, 131712, Note_on_c, 9, 45, 127
1, 131712, Note_on_c, 9, 54, 106
1, 131721, Note_off_c, 9, 54, 106
1, 131721, Note_off_c, 9, 45, 127
1, 131735, Control_c, 3, 1, 4
1, 131755, Control_c, 3, 1, 12
1, 131781, Control_c, 3, 1, 20
1, 131809, Control_c, 3, 1, 24
1, 131831, Control_c, 3, 1, 25
1, 131840, Note_on_c, 1, 34, 104
1, 131840, Note_on_c, 2, 37, 88
1, 131840, Note_on_c, 9, 41, 94
1, 131849, Note_off_c, 9, 41, 94
1, 131851, Control_c, 3, 1, 12
1, 131863, Note_off_c, 3, 56, 127
1, 131865, Note_off_c, 2, 37, 88
1, 131869, Note_off_c, 1, 34, 104
1, 131885, Control_c, 3, 1, 9
1, 131899, Control_c, 3, 1, 4
1, 131904, Note_on_c, 1, 37, 104
1, 131904, Note_on_c, 2, 49, 112
1, 131916, Note_on_c, 3, 54, 86
1, 131919, Control_c, 3, 1, 2
1, 131939, Note_off_c, 3, 54, 86
1, 131947, Control_c, 3, 1, 0
1, 131969, Note_off_c, 2, 49, 112
1, 131973, Note_off_c, 1, 37, 104
1, 132016, Note_on_c, 3, 56, 127
1, 132032, Note_on_c, 1, 39, 104
1, 132032, Note_on_c, 2, 51, 101
1, 132032, Note_on_c, 9, 36, 116
1, 132041, Note_off_c, 9, 36, 116
1, 132073, Note_off_c, 2, 51, 101
1, 132075, Note_off_c, 1, 39, 104
1, 132081, Note_off_c, 3, 56, 127
1, 132096, Note_on_c, 0, 27, 122
1, 132096, Note_on_c, 1, 27, 105
1, 132096, Note_on_c, 2, 39, 127
1, 132096, Note_on_c, 4, 63, 124
1, 132096, Note_on_c, 4, 51, 127
1, 132096, Note_on_c, 9, 36, 127
1, 132096, Note_on_c, 9, 49, 84
1, 132096, Note_on_c, 9, 54, 89
1, 132105, Note_off_c, 9, 54, 89
1, 132105, Note_off_c, 9, 49, 84
1, 132105, Note_off_c, 9, 36, 127
1, 132131, Control_c, 3, 1, 6
1, 132151, Note_off_c, 4, 51, 127
1, 132151, Control_c, 3, 1, 10
1, 132175, Control_c, 3, 1, 17
1, 132183, Note_off_c, 4, 63, 124
1, 132207, Control_c, 3, 1, 23
1, 132227, Control_c, 3, 1, 30
1, 132237, Note_off_c, 2, 39, 127
1, 132243, Control_c, 3, 1, 36
1, 132247, Note_off_c, 1, 27, 105
1, 132259, Control_c, 3, 1, 45
1, 132269, Note_off_c, 0, 27, 122
1, 132279, Control_c, 3, 1, 51
1, 132288, Note_on_c, 0, 39, 114
1, 132288, Note_on_c, 1, 39, 98
1, 132288, Note_on_c, 2, 51, 115
1, 132288, Note_on_c, 5, 51, 112
1, 132288, Note_on_c, 9, 42, 77
1, 132288, Note_on_c, 9, 54, 53
1, 132295, Control_c, 3, 1, 57
1, 132297, Note_off_c, 9, 54, 53
1, 132297, Note_off_c, 9, 42, 77
1, 132301, Note_off_c, 5, 51, 112
1, 132321, Control_c, 3, 1, 13
1, 132331, Note_off_c, 0, 39, 114
1, 132339, Note_off_c, 2, 51, 115
1, 132351, Control_c, 3, 1, 0
1, 132353, Note_off_c, 1, 39, 98
1, 132416, Note_on_c, 1, 27, 61
1, 132431, Pitch_bend_c, 3, 4544
1, 132449, Note_off_c, 1, 27, 61
1, 132453, Pitch_bend_c, 3, 0
1, 132480, Note_on_c, 0, 54, 114
1, 132480, Note_on_c, 0, 49, 100
1, 132480, Note_on_c, 1, 37, 92
1, 132480, Note_on_c, 2, 49, 106
1, 132480, Note_on_c, 3, 63, 127
1, 132480, Note_on_c, 4, 63, 125
1, 132480, Note_on_c, 4, 75, 124
1, 132480, Note_on_c, 9, 39, 126
1, 132480, Note_on_c, 9, 40, 127
1, 132480, Note_on_c, 9, 42, 122
1, 132480, Note_on_c, 9, 36, 127
1, 132480, Note_on_c, 9, 54, 112
1, 132489, Note_off_c, 9, 54, 112
1, 132489, Note_off_c, 9, 36, 127
1, 132489, Note_off_c, 9, 42, 122
1, 132489, Note_off_c, 9, 40, 127
1, 132489, Note_off_c, 9, 39, 126
1, 132495, Note_off_c, 0, 49, 100
1, 132499, Pitch_bend_c, 3, 4800
1, 132507, Note_off_c, 0, 54, 114
1, 132519, Pitch_bend_c, 3, 8000
1, 132533, Pitch_bend_c, 3, 8192
1, 132579, Note_off_c, 1, 37, 92
1, 132593, Note_off_c, 2, 49, 106
1, 132608, Note_on_c, 1, 39, 90
1, 132608, Note_on_c, 2, 51, 88
1, 132608, Note_on_c, 5, 49, 107
1, 132629, Note_off_c, 5, 49, 107
1, 132641, Control_c, 3, 1, 3
1, 132647, Note_off_c, 2, 51, 88
1, 132655, Control_c, 3, 1, 11
1, 132657, Note_off_c, 1, 39, 90
1, 132672, Note_on_c, 0, 39, 117
1, 132672, Note_on_c, 1, 27, 97
1, 132672, Note_on_c, 2, 39, 111
1, 132672, Note_on_c, 5, 51, 118
1, 132672, Note_on_c, 9, 42, 62
1, 132672, Note_on_c, 9, 54, 61
1, 132675, Control_c, 3, 1, 19
1, 132681, Note_off_c, 9, 54, 61
1, 132681, Note_off_c, 9, 42, 62
1, 132695, Control_c, 3, 1, 33
1, 132697, Note_off_c, 2, 39, 111
1, 132715, Control_c, 3, 1, 48
1, 132717, Note_off_c, 5, 51, 118
1, 132743, Note_off_c, 0, 39, 117
1, 132747, Control_c, 3, 1, 54
1, 132763, Control_c, 3, 1, 63
1, 132783, Control_c, 3, 1, 70
1, 132800, Note_on_c, 5, 54, 127
1, 132803, Control_c, 3, 1, 74
1, 132811, Note_off_c, 1, 27, 97
1, 132819, Control_c, 3, 1, 77
1, 132831, Note_off_c, 5, 54, 127
1, 132835, Control_c, 3, 1, 79
1, 132864, Note_on_c, 0, 54, 127
1, 132864, Note_on_c, 0, 49, 125
1, 132864, Note_on_c, 1, 30, 104
1, 132864, Note_on_c, 2, 54, 112
1, 132864, Note_on_c, 2, 49, 107
1, 132864, Note_on_c, 9, 42, 117
1, 132864, Note_on_c, 9, 36, 127
1, 132864, Note_on_c, 9, 54, 104
1, 132873, Note_off_c, 9, 54, 104
1, 132873, Note_off_c, 9, 36, 127
1, 132873, Note_off_c, 9, 42, 117
1, 132887, Note_off_c, 2, 54, 112
1, 132903, Note_off_c, 2, 49, 107
1, 132913, Control_c, 3, 1, 76
1, 132947, Note_off_c, 1, 30, 104
1, 132957, Control_c, 3, 1, 43
1, 132985, Control_c, 3, 1, 0
1, 132992, Note_on_c, 1, 32, 74
1, 132992, Note_on_c, 5, 49, 114
1, 133015, Note_off_c, 5, 49, 114
1, 133017, Note_off_c, 3, 63, 127
1, 133031, Note_off_c, 0, 49, 125
1, 133048, Note_on_c, 3, 61, 108
1, 133055, Note_off_c, 0, 54, 127
1, 133056, Note_on_c, 1, 34, 93
1, 133056, Note_on_c, 2, 39, 88
1, 133056, Note_on_c, 5, 51, 127
1, 133056, Note_on_c, 9, 42, 63
1, 133056, Note_on_c, 9, 54, 51
1, 133057, Note_off_c, 1, 32, 74
1, 133065, Note_off_c, 9, 54, 51
1, 133065, Note_off_c, 9, 42, 63
1, 133069, Note_off_c, 2, 39, 88
1, 133099, Note_off_c, 3, 61, 108
1, 133111, Note_off_c, 5, 51, 127
1, 133117, Note_off_c, 1, 34, 93
1, 133120, Note_on_c, 0, 39, 109
1, 133122, Note_on_c, 3, 58, 98
1, 133143, Note_off_c, 0, 39, 109
1, 133145, Note_off_c, 3, 58, 98
1, 133184, Note_on_c, 1, 37, 98
1, 133184, Note_on_c, 2, 51, 115
1, 133184, Note_on_c, 5, 54, 127
1, 133219, Note_off_c, 2, 51, 115
1, 133227, Note_off_c, 5, 54, 127
1, 133248, Note_on_c, 0, 56, 127
1, 133248, Note_on_c, 0, 51, 121
1, 133248, Note_on_c, 9, 39, 122
1, 133248, Note_on_c, 9, 40, 127
1, 133248, Note_on_c, 9, 42, 126
1, 133248, Note_on_c, 9, 36, 127
1, 133248, Note_on_c, 9, 54, 106
1, 133257, Note_off_c, 9, 54, 106
1, 133257, Note_off_c, 9, 36, 127
1, 133257, Note_off_c, 9, 42, 126
1, 133257, Note_off_c, 9, 40, 127
1, 133257, Note_off_c, 9, 39, 122
1, 133357, Note_off_c, 0, 51, 121
1, 133359, Note_off_c, 1, 37, 98
1, 133376, Note_on_c, 1, 34, 88
1, 133376, Note_on_c, 2, 39, 94
1, 133385, Note_off_c, 0, 56, 127
1, 133387, Note_off_c, 2, 39, 94
1, 133425, Note_off_c, 1, 34, 88
1, 133440, Note_on_c, 0, 54, 116
1, 133440, Note_on_c, 0, 49, 120
1, 133440, Note_on_c, 1, 39, 100
1, 133440, Note_on_c, 2, 49, 108
1, 133440, Note_on_c, 5, 56, 127
1, 133440, Note_on_c, 9, 42, 64
1, 133440, Note_on_c, 9, 54, 59
1, 133449, Note_off_c, 9, 54, 59
1, 133449, Note_off_c, 9, 42, 64
1, 133497, Note_off_c, 5, 56, 127
1, 133499, Note_off_c, 0, 49, 120
1, 133509, Note_off_c, 0, 54, 116
1, 133521, Note_off_c, 1, 39, 100
1, 133525, Note_off_c, 4, 63, 125
1, 133527, Note_off_c, 4, 75, 124
1, 133551, Note_off_c, 2, 49, 108
1, 133568, Note_on_c, 1, 39, 97
1, 133568, Note_on_c, 2, 51, 96
1, 133568, Note_on_c, 5, 54, 127
1, 133601, Note_off_c, 2, 51, 96
1, 133605, Note_off_c, 5, 54, 127
1, 133632, Note_on_c, 0, 27, 121
1, 133632, Note_on_c, 1, 27, 104
1, 133632, Note_on_c, 2, 39, 127
1, 133632, Note_on_c, 4, 73, 127
1, 133632, Note_on_c, 4, 61, 127
1, 133632, Note_on_c, 9, 36, 127
1, 133632, Note_on_c, 9, 42, 109
1, 133632, Note_on_c, 9, 54, 112
1, 133641, Note_off_c, 9, 54, 112
1, 133641, Note_off_c, 9, 42, 109
1, 133641, Note_off_c, 9, 36, 127
1, 133641, Note_off_c, 1, 39, 97
1, 133693, Note_off_c, 2, 39, 127
1, 133760, Note_on_c, 5, 49, 110
1, 133773, Note_off_c, 0, 27, 121
1, 133781, Note_off_c, 4, 73, 127
1, 133783, Note_off_c, 5, 49, 110
1, 133783, Note_off_c, 4, 61, 127
1, 133795, Note_off_c, 1, 27, 104
1, 133824, Note_on_c, 0, 54, 127
1, 133824, Note_on_c, 0, 49, 125
1, 133824, Note_on_c, 1, 39, 104
1, 133824, Note_on_c, 2, 51, 127
1, 133824, Note_on_c, 5, 51, 126
1, 133824, Note_on_c, 9, 42, 67
1, 133824, Note_on_c, 9, 54, 66
1, 133833, Note_off_c, 9, 54, 66
1, 133833, Note_off_c, 9, 42, 67
1, 133841, Note_off_c, 0, 49, 125
1, 133855, Note_off_c, 0, 54, 127
1, 133857, Note_off_c, 5, 51, 126
1, 133869, Note_off_c, 2, 51, 127
1, 133883, Note_off_c, 1, 39, 104
1, 133952, Note_on_c, 1, 27, 79
1, 133987, Note_off_c, 1, 27, 79
1, 134016, Note_on_c, 0, 39, 107
1, 134016, Note_on_c, 1, 37, 96
1, 134016, Note_on_c, 2, 49, 115
1, 134016, Note_on_c, 4, 72, 127
1, 134016, Note_on_c, 4, 60, 127
1, 134016, Note_on_c, 5, 51, 127
1, 134016, Note_on_c, 9, 39, 126
1, 134016, Note_on_c, 9, 40, 127
1, 134016, Note_on_c, 9, 42, 124
1, 134016, Note_on_c, 9, 36, 127
1, 134016, Note_on_c, 9, 54, 110
1, 134025, Note_off_c, 9, 54, 110
1, 134025, Note_off_c, 9, 36, 127
1, 134025, Note_off_c, 9, 42, 124
1, 134025, Note_off_c, 9, 40, 127
1, 134025, Note_off_c, 9, 39, 126
1, 134061, Note_off_c, 5, 51, 127
1, 134061, Note_off_c, 0, 39, 107
1, 134131, Note_off_c, 4, 72, 127
1, 134137, Note_off_c, 2, 49, 115
1, 134139, Note_off_c, 4, 60, 127
1, 134144, Note_on_c, 0, 54, 118
1, 134144, Note_on_c, 0, 49, 112
1, 134144, Note_on_c, 1, 39, 98
1, 134144, Note_on_c, 2, 51, 94
1, 134147, Note_off_c, 1, 37, 96
1, 134159, Note_off_c, 0, 49, 112
1, 134175, Note_off_c, 0, 54, 118
1, 134185, Note_off_c, 2, 51, 94
1, 134208, Note_on_c, 0, 27, 125
1, 134208, Note_on_c, 2, 39, 108
1, 134208, Note_on_c, 5, 49, 110
1, 134208, Note_on_c, 9, 42, 73
1, 134208, Note_on_c, 9, 54, 52
1, 134217, Note_off_c, 9, 54, 52
1, 134217, Note_off_c, 9, 42, 73
1, 134217, Note_off_c, 1, 39, 98
1, 134225, Note_off_c, 5, 49, 110
1, 134247, Note_off_c, 2, 39, 108
1, 134265, Note_off_c, 0, 27, 125
1, 134332, Note_on_c, 9, 54, 65
1, 134336, Note_on_c, 1, 37, 77
1, 134341, Note_off_c, 9, 54, 65
1, 134373, Note_off_c, 1, 37, 77
1, 134400, Note_on_c, 0, 58, 127
1, 134400, Note_on_c, 0, 57, 123
1, 134400, Note_on_c, 0, 56, 117
1, 134400, Note_on_c, 0, 61, 118
1, 134400, Note_on_c, 1, 44, 105
1, 134400, Note_on_c, 2, 46, 117
1, 134400, Note_on_c, 2, 45, 120
1, 134400, Note_on_c, 4, 58, 127
1, 134400, Note_on_c, 4, 70, 127
1, 134400, Note_on_c, 9, 36, 127
1, 134400, Note_on_c, 9, 42, 107
1, 134400, Note_on_c, 9, 54, 112
1, 134409, Note_off_c, 9, 54, 112
1, 134409, Note_off_c, 9, 42, 107
1, 134409, Note_off_c, 9, 36, 127
1, 134421, Pitch_bend_c, 1, 9728
1, 134429, Note_off_c, 0, 56, 117
1, 134431, Pitch_bend_c, 1, 14912
1, 134435, Note_off_c, 2, 45, 120
1, 134443, Note_off_c, 0, 57, 123
1, 134443, Pitch_bend_c, 1, 16383
1, 134459, Note_off_c, 0, 58, 127
1, 134493, Note_off_c, 1, 44, 105
1, 134517, Pitch_bend_c, 1, 15648
1, 134528, Note_on_c, 5, 49, 126
1, 134529, Pitch_bend_c, 1, 12640
1, 134541, Pitch_bend_c, 1, 10112
1, 134555, Note_off_c, 5, 49, 126
1, 134555, Pitch_bend_c, 1, 8448
1, 134559, Note_off_c, 2, 46, 117
1, 134565, Pitch_bend_c, 1, 8192
1, 134592, Note_on_c, 0, 57, 102
1, 134592, Note_on_c, 0, 56, 119
1, 134592, Note_on_c, 1, 42, 107
1, 134592, Note_on_c, 2, 49, 87
1, 134592, Note_on_c, 5, 51, 122
1, 134592, Note_on_c, 9, 42, 78
1, 134592, Note_on_c, 9, 36, 127
1, 134592, Note_on_c, 9, 54, 54
1, 134599, Note_off_c, 0, 61, 118
1, 134601, Note_off_c, 9, 54, 54
1, 134601, Note_off_c, 9, 36, 127
1, 134601, Note_off_c, 9, 42, 78
1, 134617, Note_off_c, 0, 57, 102
1, 134639, Note_off_c, 5, 51, 122
1, 134645, Note_off_c, 0, 56, 119
1, 134673, Note_off_c, 2, 49, 87
1, 134683, Note_off_c, 1, 42, 107
1, 134720, Note_on_c, 2, 45, 109
1, 134720, Note_on_c, 2, 46, 92
1, 134765, Note_off_c, 4, 70, 127
1, 134767, Note_off_c, 2, 46, 92
1, 134777, Note_off_c, 4, 58, 127
1, 134784, Note_on_c, 0, 54, 127
1, 134784, Note_on_c, 1, 42, 100
1, 134784, Note_on_c, 2, 44, 85
1, 134784, Note_on_c, 4, 72, 118
1, 134784, Note_on_c, 4, 60, 127
1, 134784, Note_on_c, 5, 54, 106
1, 134784, Note_on_c, 9, 39, 127
1, 134784, Note_on_c, 9, 40, 127
1, 134784, Note_on_c, 9, 42, 127
1, 134784, Note_on_c, 9, 36, 127
1, 134784, Note_on_c, 9, 54, 114
1, 134789, Note_off_c, 2, 45, 109
1, 134793, Note_off_c, 9, 54, 114
1, 134793, Note_off_c, 9, 36, 127
1, 134793, Note_off_c, 9, 42, 127
1, 134793, Note_off_c, 9, 40, 127
1, 134793, Note_off_c, 9, 39, 127
1, 134797, Note_off_c, 5, 54, 106
1, 134821, Note_off_c, 4, 60, 127
1, 134847, Note_off_c, 0, 54, 127
1, 134861, Note_off_c, 4, 72, 118
1, 134889, Note_off_c, 2, 44, 85
1, 134912, Note_on_c, 2, 42, 95
1, 134951, Note_off_c, 1, 42, 100
1, 134957, Note_off_c, 2, 42, 95
1, 134976, Note_on_c, 0, 56, 127
1, 134976, Note_on_c, 1, 39, 93
1, 134976, Note_on_c, 2, 44, 95
1, 134976, Note_on_c, 4, 51, 127
1, 134976, Note_on_c, 4, 63, 127
1, 134976, Note_on_c, 9, 42, 71
1, 134976, Note_on_c, 9, 36, 127
1, 134976, Note_on_c, 9, 54, 63
1, 134985, Note_off_c, 9, 54, 63
1, 134985, Note_off_c, 9, 36, 127
1, 134985, Note_off_c, 9, 42, 71
1, 135061, Note_off_c, 0, 56, 127
1, 135073, Note_off_c, 2, 44, 95
1, 135085, Note_off_c, 1, 39, 93
1, 135104, Note_on_c, 0, 54, 123
1, 135104, Note_on_c, 1, 37, 89
1, 135104, Note_on_c, 2, 42, 88
1, 135141, Note_off_c, 0, 54, 123
1, 135145, Note_off_c, 2, 42, 88
1, 135153, Note_off_c, 1, 37, 89
1, 135168, Note_on_c, 0, 27, 120
1, 135168, Note_on_c, 1, 27, 88
1, 135168, Note_on_c, 1, 29, 97
1, 135168, Note_on_c, 2, 39, 127
1, 135168, Note_on_c, 9, 36, 127
1, 135168, Note_on_c, 9, 42, 115
1, 135168, Note_on_c, 9, 54, 110
1, 135177, Note_off_c, 9, 54, 110
1, 135177, Note_off_c, 9, 42, 115
1, 135177, Note_off_c, 9, 36, 127
1, 135181, Note_off_c, 1, 29, 97
1, 135257, Note_off_c, 0, 27, 120
1, 135296, Note_on_c, 5, 49, 118
1, 135321, Note_off_c, 5, 49, 118
1, 135321, Note_off_c, 2, 39, 127
1, 135360, Note_on_c, 1, 39, 107
1, 135360, Note_on_c, 2, 51, 117
1, 135360, Note_on_c, 5, 51, 127
1, 135360, Note_on_c, 9, 42, 57
1, 135360, Note_on_c, 9, 54, 54
1, 135367, Note_off_c, 1, 27, 88
1, 135369, Note_off_c, 9, 54, 54
1, 135369, Note_off_c, 9, 42, 57
1, 135407, Note_off_c, 5, 51, 127
1, 135411, Note_off_c, 2, 51, 117
1, 135433, Note_off_c, 1, 39, 107
1, 135488, Note_on_c, 1, 27, 69
1, 135488, Note_on_c, 2, 39, 75
1, 135499, Note_off_c, 2, 39, 75
1, 135507, Note_off_c, 1, 27, 69
1, 135552, Note_on_c, 0, 54, 127
1, 135552, Note_on_c, 0, 49, 124
1, 135552, Note_on_c, 1, 37, 101
1, 135552, Note_on_c, 2, 49, 112
1, 135552, Note_on_c, 9, 39, 124
1, 135552, Note_on_c, 9, 40, 127
1, 135552, Note_on_c, 9, 42, 126
1, 135552, Note_on_c, 9, 36, 127
1, 135552, Note_on_c, 9, 54, 112
1, 135561, Note_off_c, 9, 54, 112
1, 135561, Note_off_c, 9, 36, 127
1, 135561, Note_off_c, 9, 42, 126
1, 135561, Note_off_c, 9, 40, 127
1, 135561, Note_off_c, 9, 39, 124
1, 135589, Note_off_c, 0, 49, 124
1, 135601, Note_off_c, 0, 54, 127
1, 135631, Note_off_c, 2, 49, 112
1, 135655, Note_off_c, 1, 37, 101
1, 135680, Note_on_c, 1, 39, 90
1, 135680, Note_on_c, 2, 51, 92
1, 135680, Note_on_c, 5, 49, 112
1, 135697, Note_off_c, 5, 49, 112
1, 135711, Note_off_c, 2, 51, 92
1, 135723, Note_off_c, 1, 39, 90
1, 135744, Note_on_c, 0, 39, 103
1, 135744, Note_on_c, 1, 27, 98
1, 135744, Note_on_c, 2, 39, 127
1, 135744, Note_on_c, 5, 51, 127
1, 135744, Note_on_c, 9, 42, 66
1, 135744, Note_on_c, 9, 54, 46
1, 135753, Note_off_c, 9, 54, 46
1, 135753, Note_off_c, 9, 42, 66
1, 135771, Note_off_c, 0, 39, 103
1, 135779, Note_off_c, 2, 39, 127
1, 135785, Note_off_c, 5, 51, 127
1, 135877, Note_off_c, 1, 27, 98
1, 135936, Note_on_c, 0, 56, 126
1, 135936, Note_on_c, 0, 51, 127
1, 135936, Note_on_c, 1, 30, 118
1, 135936, Note_on_c, 2, 54, 108
1, 135936, Note_on_c, 2, 49, 108
1, 135936, Note_on_c, 5, 54, 114
1, 135936, Note_on_c, 9, 36, 127
1, 135936, Note_on_c, 9, 42, 110
1, 135936, Note_on_c, 9, 54, 117
1, 135945, Note_off_c, 9, 54, 117
1, 135945, Note_off_c, 9, 42, 110
1, 135945, Note_off_c, 9, 36, 127
1, 135965, Note_off_c, 2, 54, 108
1, 135983, Note_off_c, 2, 49, 108
1, 135987, Note_off_c, 5, 54, 114
1, 136023, Note_off_c, 1, 30, 118
1, 136060, Note_on_c, 9, 54, 70
1, 136064, Note_on_c, 1, 32, 79
1, 136069, Note_off_c, 9, 54, 70
1, 136093, Note_off_c, 0, 51, 127
1, 136117, Note_off_c, 0, 56, 126
1, 136123, Note_off_c, 1, 32, 79
1, 136128, Note_on_c, 0, 39, 114
1, 136128, Note_on_c, 1, 34, 93
1, 136128, Note_on_c, 9, 42, 76
1, 136128, Note_on_c, 9, 54, 62
1, 136137, Note_off_c, 9, 54, 62
1, 136137, Note_off_c, 9, 42, 76
1, 136171, Note_off_c, 0, 39, 114
1, 136201, Note_off_c, 1, 34, 93
1, 136256, Note_on_c, 0, 54, 127
1, 136256, Note_on_c, 0, 49, 118
1, 136256, Note_on_c, 1, 37, 102
1, 136256, Note_on_c, 2, 54, 108
1, 136256, Note_on_c, 2, 49, 110
1, 136256, Note_on_c, 5, 56, 127
1, 136256, Note_on_c, 9, 46, 91
1, 136265, Note_off_c, 9, 46, 91
1, 136287, Note_off_c, 0, 49, 118
1, 136295, Note_off_c, 0, 54, 127
1, 136299, Note_off_c, 5, 56, 127
1, 136299, Note_off_c, 2, 54, 108
1, 136303, Note_off_c, 2, 49, 110
1, 136320, Note_on_c, 9, 39, 127
1, 136320, Note_on_c, 9, 40, 127
1, 136320, Note_on_c, 9, 42, 105
1, 136320, Note_on_c, 9, 36, 127
1, 136320, Note_on_c, 9, 54, 114
1, 136329, Note_off_c, 9, 54, 114
1, 136329, Note_off_c, 9, 36, 127
1, 136329, Note_off_c, 9, 42, 105
1, 136329, Note_off_c, 9, 40, 127
1, 136329, Note_off_c, 9, 39, 127
1, 136421, Note_off_c, 1, 37, 102
1, 136448, Note_on_c, 0, 39, 111
1, 136448, Note_on_c, 1, 34, 87
1, 136489, Note_off_c, 0, 39, 111
1, 136499, Note_off_c, 1, 34, 87
1, 136512, Note_on_c, 0, 49, 115
1, 136512, Note_on_c, 1, 39, 101
1, 136512, Note_on_c, 2, 54, 112
1, 136512, Note_on_c, 2, 49, 112
1, 136512, Note_on_c, 5, 54, 127
1, 136512, Note_on_c, 9, 42, 87
1, 136512, Note_on_c, 9, 54, 70
1, 136521, Note_off_c, 9, 54, 70
1, 136521, Note_off_c, 9, 42, 87
1, 136557, Note_off_c, 5, 54, 127
1, 136597, Note_off_c, 1, 39, 101
1, 136601, Note_off_c, 0, 49, 115
1, 136629, Note_off_c, 4, 51, 127
1, 136636, Note_on_c, 9, 54, 71
1, 136640, Note_on_c, 0, 51, 118
1, 136640, Note_on_c, 1, 39, 87
1, 136645, Note_off_c, 9, 54, 71
1, 136677, Note_off_c, 0, 51, 118
1, 136691, Note_off_c, 2, 54, 112
1, 136704, Note_on_c, 0, 27, 121
1, 136704, Note_on_c, 1, 27, 107
1, 136704, Note_on_c, 2, 39, 111
1, 136704, Note_on_c, 4, 49, 127
1, 136704, Note_on_c, 9, 42, 84
1, 136704, Note_on_c, 9, 36, 127
1, 136704, Note_on_c, 9, 54, 114
1, 136713, Note_off_c, 9, 54, 114
1, 136713, Note_off_c, 9, 36, 127
1, 136713, Note_off_c, 9, 42, 84
1, 136713, Note_off_c, 2, 49, 112
1, 136725, Note_off_c, 1, 39, 87
1, 136821, Note_off_c, 2, 39, 111
1, 136832, Note_on_c, 5, 49, 127
1, 136837, Note_off_c, 0, 27, 121
1, 136839, Note_off_c, 4, 49, 127
1, 136857, Note_off_c, 5, 49, 127
1, 136879, Note_off_c, 1, 27, 107
1, 136896, Note_on_c, 0, 51, 127
1, 136896, Note_on_c, 1, 39, 107
1, 136896, Note_on_c, 2, 51, 114
1, 136896, Note_on_c, 5, 51, 127
1, 136896, Note_on_c, 9, 42, 78
1, 136896, Note_on_c, 9, 54, 56
1, 136905, Note_off_c, 9, 54, 56
1, 136905, Note_off_c, 9, 42, 78
1, 136939, Note_off_c, 0, 51, 127
1, 136941, Note_off_c, 5, 51, 127
1, 136949, Note_off_c, 2, 51, 114
1, 136965, Note_off_c, 1, 39, 107
1, 137024, Note_on_c, 1, 27, 72
1, 137061, Note_off_c, 1, 27, 72
1, 137088, Note_on_c, 0, 49, 121
1, 137088, Note_on_c, 1, 37, 102
1, 137088, Note_on_c, 2, 49, 121
1, 137088, Note_on_c, 4, 48, 116
1, 137088, Note_on_c, 9, 39, 127
1, 137088, Note_on_c, 9, 42, 120
1, 137088, Note_on_c, 9, 40, 126
1, 137088, Note_on_c, 9, 36, 127
1, 137088, Note_on_c, 9, 54, 112
1, 137097, Note_off_c, 9, 54, 112
1, 137097, Note_off_c, 9, 36, 127
1, 137097, Note_off_c, 9, 40, 126
1, 137097, Note_off_c, 9, 42, 120
1, 137097, Note_off_c, 9, 39, 127
1, 137131, Note_off_c, 0, 49, 121
1, 137197, Note_off_c, 1, 37, 102
1, 137216, Note_on_c, 1, 39, 101
1, 137216, Note_on_c, 5, 49, 118
1, 137225, Note_off_c, 2, 49, 121
1, 137239, Note_off_c, 5, 49, 118
1, 137261, Note_off_c, 4, 48, 116
1, 137273, Note_off_c, 1, 39, 101
1, 137280, Note_on_c, 0, 51, 127
1, 137280, Note_on_c, 2, 51, 110
1, 137280, Note_on_c, 5, 51, 127
1, 137280, Note_on_c, 9, 42, 70
1, 137280, Note_on_c, 9, 36, 127
1, 137280, Note_on_c, 9, 54, 57
1, 137289, Note_off_c, 9, 54, 57
1, 137289, Note_off_c, 9, 36, 127
1, 137289, Note_off_c, 9, 42, 70
1, 137315, Note_off_c, 0, 51, 127
1, 137321, Note_off_c, 5, 51, 127
1, 137337, Note_off_c, 2, 51, 110
1, 137408, Note_on_c, 0, 39, 112
1, 137435, Control_c, 3, 1, 9
1, 137445, Note_off_c, 0, 39, 112
1, 137465, Control_c, 3, 1, 15
1, 137472, Note_on_c, 0, 54, 121
1, 137472, Note_on_c, 0, 49, 118
1, 137472, Note_on_c, 1, 44, 102
1, 137472, Note_on_c, 2, 44, 110
1, 137472, Note_on_c, 4, 46, 127
1, 137472, Note_on_c, 9, 42, 113
1, 137472, Note_on_c, 9, 36, 127
1, 137472, Note_on_c, 9, 54, 117
1, 137474, Note_on_c, 3, 61, 126
1, 137481, Note_off_c, 9, 54, 117
1, 137481, Note_off_c, 9, 36, 127
1, 137481, Note_off_c, 9, 42, 113
1, 137493, Control_c, 3, 1, 30
1, 137505, Pitch_bend_c, 1, 8512
1, 137509, Pitch_bend_c, 1, 11456
1, 137511, Note_off_c, 0, 49, 118
1, 137519, Control_c, 3, 1, 35
1, 137521, Note_off_c, 0, 54, 121
1, 137523, Note_off_c, 3, 61, 126
1, 137531, Note_off_c, 2, 44, 110
1, 137535, Pitch_bend_c, 1, 12896
1, 137539, Pitch_bend_c, 1, 14144
1, 137549, Control_c, 3, 1, 36
1, 137557, Pitch_bend_c, 1, 14432
1, 137559, Control_c, 3, 1, 39
1, 137565, Note_off_c, 1, 44, 102
1, 137565, Pitch_bend_c, 1, 13888
1, 137588, Note_on_c, 3, 63, 126
1, 137589, Pitch_bend_c, 1, 12640
1, 137595, Control_c, 3, 1, 41
1, 137597, Pitch_bend_c, 1, 11616
1, 137607, Pitch_bend_c, 1, 9344
1, 137623, Pitch_bend_c, 1, 8320
1, 137627, Control_c, 3, 1, 42
1, 137631, Pitch_bend_c, 1, 8192
1, 137645, Note_off_c, 3, 63, 126
1, 137663, Control_c, 3, 1, 43
1, 137664, Note_on_c, 0, 39, 110
1, 137664, Note_on_c, 1, 42, 100
1, 137664, Note_on_c, 2, 45, 105
1, 137664, Note_on_c, 5, 54, 127
1, 137664, Note_on_c, 9, 42, 75
1, 137664, Note_on_c, 9, 54, 64
1, 137673, Note_off_c, 9, 54, 64
1, 137673, Note_off_c, 9, 42, 75
1, 137677, Control_c, 3, 1, 45
1, 137695, Note_off_c, 0, 39, 110
1, 137707, Note_off_c, 5, 54, 127
1, 137711, Pitch_bend_c, 1, 8960
1, 137721, Pitch_bend_c, 1, 11872
1, 137729, Note_off_c, 4, 46, 127
1, 137735, Control_c, 3, 1, 47
1, 137737, Pitch_bend_c, 1, 15264
1, 137749, Control_c, 3, 1, 49
1, 137751, Pitch_bend_c, 1, 16383
1, 137759, Note_off_c, 2, 45, 105
1, 137773, Note_off_c, 1, 42, 100
1, 137778, Note_on_c, 3, 63, 127
1, 137781, Control_c, 3, 1, 54
1, 137792, Note_on_c, 0, 54, 121
1, 137792, Note_on_c, 0, 49, 110
1, 137792, Note_on_c, 2, 46, 98
1, 137799, Pitch_bend_c, 1, 15744
1, 137805, Pitch_bend_c, 1, 13504
1, 137805, Control_c, 3, 1, 51
1, 137817, Pitch_bend_c, 1, 9792
1, 137823, Control_c, 3, 1, 50
1, 137831, Pitch_bend_c, 1, 8352
1, 137835, Note_off_c, 0, 49, 110
1, 137839, Note_off_c, 0, 54, 121
1, 137843, Pitch_bend_c, 1, 8192
1, 137843, Control_c, 3, 1, 49
1, 137856, Note_on_c, 1, 42, 109
1, 137856, Note_on_c, 4, 48, 118
1, 137856, Note_on_c, 5, 56, 127
1, 137856, Note_on_c, 9, 39, 124
1, 137856, Note_on_c, 9, 42, 127
1, 137856, Note_on_c, 9, 40, 127
1, 137856, Note_on_c, 9, 36, 127
1, 137856, Note_on_c, 9, 54, 110
1, 137857, Control_c, 3, 1, 54
1, 137863, Note_off_c, 2, 46, 98
1, 137865, Note_off_c, 9, 54, 110
1, 137865, Note_off_c, 9, 36, 127
1, 137865, Note_off_c, 9, 40, 127
1, 137865, Note_off_c, 9, 42, 127
1, 137865, Note_off_c, 9, 39, 124
1, 137875, Note_off_c, 3, 63, 127
1, 137879, Control_c, 3, 1, 56
1, 137897, Note_off_c, 4, 63, 127
1, 137903, Control_c, 3, 1, 57
1, 137911, Note_off_c, 4, 48, 118
1, 137931, Note_off_c, 5, 56, 127
1, 137970, Note_on_c, 3, 63, 126
1, 137971, Control_c, 3, 1, 61
1, 137984, Note_on_c, 0, 39, 115
1, 137984, Note_on_c, 2, 49, 110
1, 137984, Note_on_c, 5, 54, 124
1, 137989, Control_c, 3, 1, 73
1, 138013, Note_off_c, 0, 39, 115
1, 138021, Control_c, 1, 1, 1
1, 138021, Control_c, 3, 1, 75
1, 138023, Note_off_c, 5, 54, 124
1, 138025, Control_c, 1, 1, 20
1, 138027, Note_off_c, 1, 42, 109
1, 138043, Control_c, 3, 1, 44
1, 138045, Control_c, 1, 1, 21
1, 138048, Note_on_c, 0, 56, 125
1, 138048, Note_on_c, 0, 51, 127
1, 138048, Note_on_c, 1, 39, 97
1, 138048, Note_on_c, 4, 51, 127
1, 138048, Note_on_c, 5, 51, 122
1, 138048, Note_on_c, 9, 42, 82
1, 138048, Note_on_c, 9, 54, 57
1, 138057, Note_off_c, 9, 54, 57
1, 138057, Note_off_c, 9, 42, 82
1, 138057, Note_off_c, 2, 49, 110
1, 138061, Control_c, 1, 1, 5
1, 138075, Control_c, 3, 1, 19
1, 138087, Control_c, 1, 1, 0
1, 138091, Note_off_c, 5, 51, 122
1, 138093, Control_c, 3, 1, 0
1, 138103, Note_off_c, 0, 51, 127
1, 138117, Note_off_c, 0, 56, 125
1, 138129, Note_off_c, 1, 39, 97
1, 138143, Note_off_c, 3, 63, 126
1, 138176, Note_on_c, 1, 37, 90
1, 138176, Note_on_c, 2, 51, 117
1, 138176, Note_on_c, 5, 54, 127
1, 138205, Note_off_c, 5, 54, 127
1, 138215, Note_off_c, 2, 51, 117
1, 138215, Note_off_c, 1, 37, 90
1, 138240, Note_on_c, 0, 27, 122
1, 138240, Note_on_c, 1, 27, 105
1, 138240, Note_on_c, 2, 39, 127
1, 138240, Note_on_c, 4, 63, 127
1, 138240, Note_on_c, 4, 75, 125
1, 138240, Note_on_c, 9, 36, 127
1, 138240, Note_on_c, 9, 49, 84
1, 138240, Note_on_c, 9, 54, 89
1, 138249, Note_off_c, 9, 54, 89
1, 138249, Note_off_c, 9, 49, 84
1, 138249, Note_off_c, 9, 36, 127
1, 138275, Control_c, 3, 1, 2
1, 138279, Control_c, 3, 1, 6
1, 138295, Control_c, 3, 1, 10
1, 138319, Control_c, 3, 1, 13
1, 138335, Control_c, 3, 1, 17
1, 138351, Control_c, 3, 1, 23
1, 138371, Control_c, 3, 1, 30
1, 138381, Note_off_c, 2, 39, 127
1, 138387, Control_c, 3, 1, 36
1, 138391, Note_off_c, 1, 27, 105
1, 138403, Control_c, 3, 1, 45
1, 138413, Note_off_c, 0, 27, 122
1, 138423, Control_c, 3, 1, 51
1, 138432, Note_on_c, 0, 39, 114
1, 138432, Note_on_c, 1, 39, 98
1, 138432, Note_on_c, 2, 51, 115
1, 138432, Note_on_c, 5, 51, 126
1, 138432, Note_on_c, 9, 42, 77
1, 138432, Note_on_c, 9, 54, 53
1, 138439, Control_c, 3, 1, 57
1, 138441, Note_off_c, 9, 54, 53
1, 138441, Note_off_c, 9, 42, 77
1, 138465, Control_c, 3, 1, 43
1, 138475, Note_off_c, 5, 51, 126
1, 138475, Note_off_c, 0, 39, 114
1, 138477, Control_c, 3, 1, 13
1, 138483, Note_off_c, 2, 51, 115
1, 138495, Control_c, 3, 1, 0
1, 138497, Note_off_c, 1, 39, 98
1, 138560, Note_on_c, 1, 27, 61
1, 138575, Pitch_bend_c, 3, 4544
1, 138593, Note_off_c, 1, 27, 61
1, 138597, Pitch_bend_c, 3, 0
1, 138624, Note_on_c, 0, 54, 114
1, 138624, Note_on_c, 0, 49, 100
1, 138624, Note_on_c, 1, 37, 92
1, 138624, Note_on_c, 2, 49, 106
1, 138624, Note_on_c, 3, 63, 127
1, 138624, Note_on_c, 9, 39, 126
1, 138624, Note_on_c, 9, 40, 127
1, 138624, Note_on_c, 9, 42, 122
1, 138624, Note_on_c, 9, 36, 127
1, 138624, Note_on_c, 9, 54, 112
1, 138633, Note_off_c, 9, 54, 112
1, 138633, Note_off_c, 9, 36, 127
1, 138633, Note_off_c, 9, 42, 122
1, 138633, Note_off_c, 9, 40, 127
1, 138633, Note_off_c, 9, 39, 126
1, 138639, Note_off_c, 0, 49, 100
1, 138643, Pitch_bend_c, 3, 4800
1, 138651, Note_off_c, 0, 54, 114
1, 138663, Pitch_bend_c, 3, 8000
1, 138677, Pitch_bend_c, 3, 8192
1, 138723, Note_off_c, 1, 37, 92
1, 138737, Note_off_c, 2, 49, 106
1, 138752, Note_on_c, 1, 39, 90
1, 138752, Note_on_c, 2, 51, 88
1, 138785, Control_c, 3, 1, 3
1, 138791, Note_off_c, 2, 51, 88
1, 138799, Control_c, 3, 1, 11
1, 138801, Note_off_c, 1, 39, 90
1, 138816, Note_on_c, 0, 39, 117
1, 138816, Note_on_c, 1, 27, 97
1, 138816, Note_on_c, 2, 39, 111
1, 138816, Note_on_c, 5, 51, 118
1, 138816, Note_on_c, 9, 42, 62
1, 138816, Note_on_c, 9, 54, 61
1, 138819, Control_c, 3, 1, 19
1, 138825, Note_off_c, 9, 54, 61
1, 138825, Note_off_c, 9, 42, 62
1, 138839, Control_c, 3, 1, 33
1, 138841, Note_off_c, 2, 39, 111
1, 138859, Note_off_c, 5, 51, 118
1, 138859, Control_c, 3, 1, 40
1, 138871, Control_c, 3, 1, 48
1, 138887, Note_off_c, 0, 39, 117
1, 138891, Control_c, 3, 1, 54
1, 138907, Control_c, 3, 1, 63
1, 138927, Control_c, 3, 1, 70
1, 138947, Control_c, 3, 1, 74
1, 138955, Note_off_c, 1, 27, 97
1, 138955, Note_off_c, 4, 51, 127
1, 138963, Control_c, 3, 1, 77
1, 138979, Control_c, 3, 1, 79
1, 139008, Note_on_c, 0, 54, 127
1, 139008, Note_on_c, 0, 49, 125
1, 139008, Note_on_c, 1, 30, 104
1, 139008, Note_on_c, 2, 54, 112
1, 139008, Note_on_c, 2, 49, 107
1, 139008, Note_on_c, 5, 51, 127
1, 139008, Note_on_c, 9, 42, 117
1, 139008, Note_on_c, 9, 36, 127
1, 139008, Note_on_c, 9, 54, 104
1, 139017, Note_off_c, 9, 54, 104
1, 139017, Note_off_c, 9, 36, 127
1, 139017, Note_off_c, 9, 42, 117
1, 139031, Note_off_c, 2, 54, 112
1, 139047, Note_off_c, 2, 49, 107
1, 139055, Note_off_c, 5, 51, 127
1, 139057, Control_c, 3, 1, 77
1, 139073, Control_c, 3, 1, 76
1, 139091, Note_off_c, 1, 30, 104
1, 139101, Control_c, 3, 1, 75
1, 139109, Control_c, 3, 1, 43
1, 139129, Control_c, 3, 1, 5
1, 139136, Note_on_c, 1, 32, 74
1, 139141, Control_c, 3, 1, 0
1, 139161, Note_off_c, 3, 63, 127
1, 139175, Note_off_c, 0, 49, 125
1, 139192, Note_on_c, 3, 61, 108
1, 139199, Note_off_c, 0, 54, 127
1, 139200, Note_on_c, 1, 34, 93
1, 139200, Note_on_c, 2, 39, 88
1, 139200, Note_on_c, 9, 42, 63
1, 139200, Note_on_c, 9, 54, 51
1, 139201, Note_off_c, 1, 32, 74
1, 139209, Note_off_c, 9, 54, 51
1, 139209, Note_off_c, 9, 42, 63
1, 139213, Note_off_c, 2, 39, 88
1, 139243, Note_off_c, 3, 61, 108
1, 139261, Note_off_c, 1, 34, 93
1, 139264, Note_on_c, 0, 39, 109
1, 139266, Note_on_c, 3, 58, 98
1, 139287, Note_off_c, 0, 39, 109
1, 139289, Note_off_c, 3, 58, 98
1, 139328, Note_on_c, 1, 37, 98
1, 139328, Note_on_c, 2, 51, 115
1, 139363, Note_off_c, 2, 51, 115
1, 139392, Note_on_c, 0, 56, 127
1, 139392, Note_on_c, 0, 51, 121
1, 139392, Note_on_c, 5, 51, 127
1, 139392, Note_on_c, 9, 39, 122
1, 139392, Note_on_c, 9, 40, 127
1, 139392, Note_on_c, 9, 42, 126
1, 139392, Note_on_c, 9, 36, 127
1, 139392, Note_on_c, 9, 54, 106
1, 139401, Note_off_c, 9, 54, 106
1, 139401, Note_off_c, 9, 36, 127
1, 139401, Note_off_c, 9, 42, 126
1, 139401, Note_off_c, 9, 40, 127
1, 139401, Note_off_c, 9, 39, 122
1, 139401, Note_off_c, 4, 63, 127
1, 139407, Note_off_c, 4, 75, 125
1, 139449, Note_off_c, 5, 51, 127
1, 139501, Note_off_c, 0, 51, 121
1, 139503, Note_off_c, 1, 37, 98
1, 139520, Note_on_c, 1, 34, 88
1, 139520, Note_on_c, 2, 39, 94
1, 139529, Note_off_c, 0, 56, 127
1, 139531, Note_off_c, 2, 39, 94
1, 139569, Note_off_c, 1, 34, 88
1, 139584, Note_on_c, 0, 54, 116
1, 139584, Note_on_c, 0, 49, 120
1, 139584, Note_on_c, 1, 39, 100
1, 139584, Note_on_c, 2, 49, 108
1, 139584, Note_on_c, 9, 42, 64
1, 139584, Note_on_c, 9, 54, 59
1, 139593, Note_off_c, 9, 54, 59
1, 139593, Note_off_c, 9, 42, 64
1, 139643, Note_off_c, 0, 49, 120
1, 139653, Note_off_c, 0, 54, 116
1, 139665, Note_off_c, 1, 39, 100
1, 139695, Note_off_c, 2, 49, 108
1, 139712, Note_on_c, 1, 39, 97
1, 139712, Note_on_c, 2, 51, 96
1, 139712, Note_on_c, 5, 54, 127
1, 139745, Note_off_c, 2, 51, 96
1, 139776, Note_on_c, 0, 27, 121
1, 139776, Note_on_c, 1, 27, 104
1, 139776, Note_on_c, 2, 39, 127
1, 139776, Note_on_c, 4, 73, 127
1, 139776, Note_on_c, 4, 61, 127
1, 139776, Note_on_c, 9, 36, 127
1, 139776, Note_on_c, 9, 42, 109
1, 139776, Note_on_c, 9, 54, 112
1, 139785, Note_off_c, 9, 54, 112
1, 139785, Note_off_c, 9, 42, 109
1, 139785, Note_off_c, 9, 36, 127
1, 139785, Note_off_c, 1, 39, 97
1, 139837, Note_off_c, 2, 39, 127
1, 139917, Note_off_c, 0, 27, 121
1, 139939, Note_off_c, 1, 27, 104
1, 139941, Note_off_c, 5, 54, 127
1, 139961, Note_off_c, 4, 61, 127
1, 139965, Note_off_c, 4, 73, 127
1, 139968, Note_on_c, 0, 54, 127
1, 139968, Note_on_c, 0, 49, 125
1, 139968, Note_on_c, 1, 39, 104
1, 139968, Note_on_c, 2, 51, 127
1, 139968, Note_on_c, 5, 51, 126
1, 139968, Note_on_c, 9, 42, 67
1, 139968, Note_on_c, 9, 54, 66
1, 139977, Note_off_c, 9, 54, 66
1, 139977, Note_off_c, 9, 42, 67
1, 139985, Note_off_c, 0, 49, 125
1, 139993, Note_off_c, 5, 51, 126
1, 139999, Note_off_c, 0, 54, 127
1, 140013, Note_off_c, 2, 51, 127
1, 140027, Note_off_c, 1, 39, 104
1, 140096, Note_on_c, 1, 27, 79
1, 140131, Note_off_c, 1, 27, 79
1, 140160, Note_on_c, 0, 39, 107
1, 140160, Note_on_c, 1, 37, 96
1, 140160, Note_on_c, 2, 49, 115
1, 140160, Note_on_c, 4, 72, 127
1, 140160, Note_on_c, 4, 60, 127
1, 140160, Note_on_c, 5, 51, 127
1, 140160, Note_on_c, 9, 39, 126
1, 140160, Note_on_c, 9, 40, 127
1, 140160, Note_on_c, 9, 42, 124
1, 140160, Note_on_c, 9, 36, 127
1, 140160, Note_on_c, 9, 54, 110
1, 140169, Note_off_c, 9, 54, 110
1, 140169, Note_off_c, 9, 36, 127
1, 140169, Note_off_c, 9, 42, 124
1, 140169, Note_off_c, 9, 40, 127
1, 140169, Note_off_c, 9, 39, 126
1, 140187, Note_off_c, 5, 51, 127
1, 140205, Note_off_c, 0, 39, 107
1, 140281, Note_off_c, 2, 49, 115
1, 140288, Note_on_c, 0, 54, 118
1, 140288, Note_on_c, 0, 49, 112
1, 140288, Note_on_c, 1, 39, 98
1, 140288, Note_on_c, 2, 51, 94
1, 140291, Note_off_c, 1, 37, 96
1, 140303, Note_off_c, 0, 49, 112
1, 140317, Note_off_c, 4, 72, 127
1, 140319, Note_off_c, 0, 54, 118
1, 140319, Note_off_c, 4, 60, 127
1, 140329, Note_off_c, 2, 51, 94
1, 140352, Note_on_c, 0, 27, 125
1, 140352, Note_on_c, 2, 39, 108
1, 140352, Note_on_c, 5, 49, 113
1, 140352, Note_on_c, 9, 42, 73
1, 140352, Note_on_c, 9, 54, 52
1, 140361, Note_off_c, 9, 54, 52
1, 140361, Note_off_c, 9, 42, 73
1, 140361, Note_off_c, 1, 39, 98
1, 140375, Note_off_c, 5, 49, 113
1, 140391, Note_off_c, 2, 39, 108
1, 140409, Note_off_c, 0, 27, 125
1, 140476, Note_on_c, 9, 54, 65
1, 140480, Note_on_c, 1, 37, 77
1, 140485, Note_off_c, 9, 54, 65
1, 140517, Note_off_c, 1, 37, 77
1, 140544, Note_on_c, 0, 58, 127
1, 140544, Note_on_c, 0, 57, 123
1, 140544, Note_on_c, 0, 56, 117
1, 140544, Note_on_c, 0, 61, 118
1, 140544, Note_on_c, 1, 44, 105
1, 140544, Note_on_c, 2, 46, 117
1, 140544, Note_on_c, 2, 45, 120
1, 140544, Note_on_c, 4, 70, 127
1, 140544, Note_on_c, 4, 58, 127
1, 140544, Note_on_c, 5, 51, 125
1, 140544, Note_on_c, 9, 36, 127
1, 140544, Note_on_c, 9, 42, 107
1, 140544, Note_on_c, 9, 54, 112
1, 140553, Note_off_c, 9, 54, 112
1, 140553, Note_off_c, 9, 42, 107
1, 140553, Note_off_c, 9, 36, 127
1, 140565, Pitch_bend_c, 1, 9728
1, 140569, Note_off_c, 5, 51, 125
1, 140573, Note_off_c, 0, 56, 117
1, 140575, Pitch_bend_c, 1, 16383
1, 140579, Note_off_c, 2, 45, 120
1, 140587, Note_off_c, 0, 57, 123
1, 140603, Note_off_c, 0, 58, 127
1, 140637, Note_off_c, 1, 44, 105
1, 140661, Pitch_bend_c, 1, 15648
1, 140673, Pitch_bend_c, 1, 11360
1, 140691, Pitch_bend_c, 1, 9088
1, 140703, Note_off_c, 2, 46, 117
1, 140703, Pitch_bend_c, 1, 8448
1, 140709, Pitch_bend_c, 1, 8192
1, 140736, Note_on_c, 0, 57, 102
1, 140736, Note_on_c, 0, 56, 119
1, 140736, Note_on_c, 1, 42, 107
1, 140736, Note_on_c, 2, 49, 87
1, 140736, Note_on_c, 5, 49, 112
1, 140736, Note_on_c, 9, 42, 78
1, 140736, Note_on_c, 9, 36, 127
1, 140736, Note_on_c, 9, 54, 54
1, 140743, Note_off_c, 0, 61, 118
1, 140745, Note_off_c, 9, 54, 54
1, 140745, Note_off_c, 9, 36, 127
1, 140745, Note_off_c, 9, 42, 78
1, 140753, Note_off_c, 5, 49, 112
1, 140761, Note_off_c, 0, 57, 102
1, 140789, Note_off_c, 0, 56, 119
1, 140817, Note_off_c, 2, 49, 87
1, 140827, Note_off_c, 1, 42, 107
1, 140864, Note_on_c, 2, 45, 109
1, 140864, Note_on_c, 2, 46, 92
1, 140893, Note_off_c, 4, 70, 127
1, 140911, Note_off_c, 2, 46, 92
1, 140928, Note_on_c, 0, 54, 127
1, 140928, Note_on_c, 1, 42, 100
1, 140928, Note_on_c, 2, 44, 85
1, 140928, Note_on_c, 4, 60, 118
1, 140928, Note_on_c, 4, 72, 113
1, 140928, Note_on_c, 5, 51, 112
1, 140928, Note_on_c, 9, 39, 127
1, 140928, Note_on_c, 9, 40, 127
1, 140928, Note_on_c, 9, 42, 127
1, 140928, Note_on_c, 9, 36, 127
1, 140928, Note_on_c, 9, 54, 114
1, 140931, Note_off_c, 4, 58, 127
1, 140933, Note_off_c, 2, 45, 109
1, 140937, Note_off_c, 9, 54, 114
1, 140937, Note_off_c, 9, 36, 127
1, 140937, Note_off_c, 9, 42, 127
1, 140937, Note_off_c, 9, 40, 127
1, 140937, Note_off_c, 9, 39, 127
1, 140955, Note_off_c, 5, 51, 112
1, 140979, Note_off_c, 4, 60, 118
1, 140983, Note_off_c, 4, 72, 113
1, 140991, Note_off_c, 0, 54, 127
1, 141033, Note_off_c, 2, 44, 85
1, 141056, Note_on_c, 2, 42, 95
1, 141056, Note_on_c, 5, 49, 108
1, 141069, Note_off_c, 5, 49, 108
1, 141095, Note_off_c, 1, 42, 100
1, 141101, Note_off_c, 2, 42, 95
1, 141120, Note_on_c, 0, 56, 127
1, 141120, Note_on_c, 1, 39, 93
1, 141120, Note_on_c, 2, 44, 95
1, 141120, Note_on_c, 4, 63, 127
1, 141120, Note_on_c, 4, 51, 127
1, 141120, Note_on_c, 5, 56, 127
1, 141120, Note_on_c, 9, 42, 71
1, 141120, Note_on_c, 9, 36, 127
1, 141120, Note_on_c, 9, 54, 63
1, 141129, Note_off_c, 9, 54, 63
1, 141129, Note_off_c, 9, 36, 127
1, 141129, Note_off_c, 9, 42, 71
1, 141177, Note_off_c, 5, 56, 127
1, 141205, Note_off_c, 0, 56, 127
1, 141217, Note_off_c, 2, 44, 95
1, 141229, Note_off_c, 1, 39, 93
1, 141248, Note_on_c, 0, 54, 123
1, 141248, Note_on_c, 1, 37, 89
1, 141248, Note_on_c, 2, 42, 88
1, 141248, Note_on_c, 5, 54, 127
1, 141285, Note_off_c, 0, 54, 123
1, 141287, Note_off_c, 5, 54, 127
1, 141289, Note_off_c, 2, 42, 88
1, 141297, Note_off_c, 1, 37, 89
1, 141312, Note_on_c, 0, 27, 120
1, 141312, Note_on_c, 1, 27, 88
1, 141312, Note_on_c, 1, 29, 97
1, 141312, Note_on_c, 2, 39, 127
1, 141312, Note_on_c, 9, 36, 127
1, 141312, Note_on_c, 9, 42, 115
1, 141312, Note_on_c, 9, 54, 110
1, 141321, Note_off_c, 9, 54, 110
1, 141321, Note_off_c, 9, 42, 115
1, 141321, Note_off_c, 9, 36, 127
1, 141325, Note_off_c, 1, 29, 97
1, 141401, Note_off_c, 0, 27, 120
1, 141465, Note_off_c, 2, 39, 127
1, 141504, Note_on_c, 1, 39, 107
1, 141504, Note_on_c, 2, 51, 117
1, 141504, Note_on_c, 5, 51, 126
1, 141504, Note_on_c, 9, 42, 57
1, 141504, Note_on_c, 9, 54, 54
1, 141511, Note_off_c, 1, 27, 88
1, 141513, Note_off_c, 9, 54, 54
1, 141513, Note_off_c, 9, 42, 57
1, 141547, Note_off_c, 5, 51, 126
1, 141555, Note_off_c, 2, 51, 117
1, 141577, Note_off_c, 1, 39, 107
1, 141632, Note_on_c, 1, 27, 69
1, 141632, Note_on_c, 2, 39, 75
1, 141643, Note_off_c, 2, 39, 75
1, 141651, Note_off_c, 1, 27, 69
1, 141696, Note_on_c, 0, 54, 127
1, 141696, Note_on_c, 0, 49, 124
1, 141696, Note_on_c, 1, 37, 101
1, 141696, Note_on_c, 2, 49, 112
1, 141696, Note_on_c, 9, 39, 124
1, 141696, Note_on_c, 9, 40, 127
1, 141696, Note_on_c, 9, 42, 126
1, 141696, Note_on_c, 9, 36, 127
1, 141696, Note_on_c, 9, 54, 112
1, 141705, Note_off_c, 9, 54, 112
1, 141705, Note_off_c, 9, 36, 127
1, 141705, Note_off_c, 9, 42, 126
1, 141705, Note_off_c, 9, 40, 127
1, 141705, Note_off_c, 9, 39, 124
1, 141733, Note_off_c, 0, 49, 124
1, 141745, Note_off_c, 0, 54, 127
1, 141775, Note_off_c, 2, 49, 112
1, 141799, Note_off_c, 1, 37, 101
1, 141824, Note_on_c, 1, 39, 90
1, 141824, Note_on_c, 2, 51, 92
1, 141855, Note_off_c, 2, 51, 92
1, 141867, Note_off_c, 1, 39, 90
1, 141888, Note_on_c, 0, 39, 103
1, 141888, Note_on_c, 1, 27, 98
1, 141888, Note_on_c, 2, 39, 127
1, 141888, Note_on_c, 5, 51, 118
1, 141888, Note_on_c, 9, 42, 66
1, 141888, Note_on_c, 9, 54, 46
1, 141897, Note_off_c, 9, 54, 46
1, 141897, Note_off_c, 9, 42, 66
1, 141915, Note_off_c, 0, 39, 103
1, 141923, Note_off_c, 2, 39, 127
1, 141931, Note_off_c, 5, 51, 118
1, 142021, Note_off_c, 1, 27, 98
1, 142080, Note_on_c, 0, 56, 126
1, 142080, Note_on_c, 0, 51, 127
1, 142080, Note_on_c, 1, 30, 118
1, 142080, Note_on_c, 2, 54, 108
1, 142080, Note_on_c, 2, 49, 108
1, 142080, Note_on_c, 5, 51, 127
1, 142080, Note_on_c, 9, 36, 127
1, 142080, Note_on_c, 9, 42, 110
1, 142080, Note_on_c, 9, 54, 117
1, 142089, Note_off_c, 9, 54, 117
1, 142089, Note_off_c, 9, 42, 110
1, 142089, Note_off_c, 9, 36, 127
1, 142109, Note_off_c, 2, 54, 108
1, 142127, Note_off_c, 5, 51, 127
1, 142127, Note_off_c, 2, 49, 108
1, 142167, Note_off_c, 1, 30, 118
1, 142204, Note_on_c, 9, 54, 70
1, 142208, Note_on_c, 1, 32, 79
1, 142213, Note_off_c, 9, 54, 70
1, 142237, Note_off_c, 0, 51, 127
1, 142261, Note_off_c, 0, 56, 126
1, 142267, Note_off_c, 1, 32, 79
1, 142272, Note_on_c, 0, 39, 114
1, 142272, Note_on_c, 1, 34, 93
1, 142272, Note_on_c, 9, 42, 76
1, 142272, Note_on_c, 9, 54, 62
1, 142281, Note_off_c, 9, 54, 62
1, 142281, Note_off_c, 9, 42, 76
1, 142315, Note_off_c, 0, 39, 114
1, 142345, Note_off_c, 1, 34, 93
1, 142400, Note_on_c, 0, 54, 127
1, 142400, Note_on_c, 0, 49, 118
1, 142400, Note_on_c, 1, 37, 102
1, 142400, Note_on_c, 2, 54, 108
1, 142400, Note_on_c, 2, 49, 110
1, 142400, Note_on_c, 9, 46, 91
1, 142409, Note_off_c, 9, 46, 91
1, 142431, Note_off_c, 0, 49, 118
1, 142439, Note_off_c, 0, 54, 127
1, 142443, Note_off_c, 2, 54, 108
1, 142447, Note_off_c, 2, 49, 110
1, 142464, Note_on_c, 5, 51, 127
1, 142464, Note_on_c, 9, 39, 127
1, 142464, Note_on_c, 9, 40, 127
1, 142464, Note_on_c, 9, 42, 105
1, 142464, Note_on_c, 9, 36, 127
1, 142464, Note_on_c, 9, 54, 114
1, 142473, Note_off_c, 9, 54, 114
1, 142473, Note_off_c, 9, 36, 127
1, 142473, Note_off_c, 9, 42, 105
1, 142473, Note_off_c, 9, 40, 127
1, 142473, Note_off_c, 9, 39, 127
1, 142521, Note_off_c, 5, 51, 127
1, 142565, Note_off_c, 1, 37, 102
1, 142592, Note_on_c, 0, 39, 111
1, 142592, Note_on_c, 1, 34, 87
1, 142633, Note_off_c, 0, 39, 111
1, 142643, Note_off_c, 1, 34, 87
1, 142656, Note_on_c, 0, 49, 115
1, 142656, Note_on_c, 1, 39, 101
1, 142656, Note_on_c, 2, 54, 112
1, 142656, Note_on_c, 2, 49, 112
1, 142656, Note_on_c, 9, 42, 87
1, 142656, Note_on_c, 9, 54, 70
1, 142665, Note_off_c, 9, 54, 70
1, 142665, Note_off_c, 9, 42, 87
1, 142741, Note_off_c, 1, 39, 101
1, 142745, Note_off_c, 0, 49, 115
1, 142780, Note_on_c, 9, 54, 71
1, 142784, Note_on_c, 0, 51, 118
1, 142784, Note_on_c, 1, 39, 87
1, 142784, Note_on_c, 5, 54, 127
1, 142789, Note_off_c, 9, 54, 71
1, 142821, Note_off_c, 0, 51, 118
1, 142835, Note_off_c, 2, 54, 112
1, 142848, Note_on_c, 0, 27, 121
1, 142848, Note_on_c, 1, 27, 107
1, 142848, Note_on_c, 2, 39, 111
1, 142848, Note_on_c, 9, 42, 84
1, 142848, Note_on_c, 9, 36, 127
1, 142848, Note_on_c, 9, 54, 114
1, 142857, Note_off_c, 9, 54, 114
1, 142857, Note_off_c, 9, 36, 127
1, 142857, Note_off_c, 9, 42, 84
1, 142857, Note_off_c, 2, 49, 112
1, 142869, Note_off_c, 1, 39, 87
1, 142965, Note_off_c, 2, 39, 111
1, 142981, Note_off_c, 0, 27, 121
1, 143013, Note_off_c, 5, 54, 127
1, 143023, Note_off_c, 1, 27, 107
1, 143040, Note_on_c, 0, 51, 127
1, 143040, Note_on_c, 1, 39, 107
1, 143040, Note_on_c, 2, 51, 114
1, 143040, Note_on_c, 5, 51, 126
1, 143040, Note_on_c, 9, 42, 78
1, 143040, Note_on_c, 9, 54, 56
1, 143049, Note_off_c, 9, 54, 56
1, 143049, Note_off_c, 9, 42, 78
1, 143065, Note_off_c, 5, 51, 126
1, 143083, Note_off_c, 0, 51, 127
1, 143093, Note_off_c, 2, 51, 114
1, 143109, Note_off_c, 1, 39, 107
1, 143168, Note_on_c, 1, 27, 72
1, 143205, Note_off_c, 1, 27, 72
1, 143232, Note_on_c, 0, 49, 121
1, 143232, Note_on_c, 1, 37, 102
1, 143232, Note_on_c, 2, 49, 121
1, 143232, Note_on_c, 5, 51, 127
1, 143232, Note_on_c, 9, 39, 127
1, 143232, Note_on_c, 9, 42, 120
1, 143232, Note_on_c, 9, 40, 126
1, 143232, Note_on_c, 9, 36, 127
1, 143232, Note_on_c, 9, 54, 112
1, 143241, Note_off_c, 9, 54, 112
1, 143241, Note_off_c, 9, 36, 127
1, 143241, Note_off_c, 9, 40, 126
1, 143241, Note_off_c, 9, 42, 120
1, 143241, Note_off_c, 9, 39, 127
1, 143259, Note_off_c, 5, 51, 127
1, 143275, Note_off_c, 0, 49, 121
1, 143341, Note_off_c, 1, 37, 102
1, 143360, Note_on_c, 1, 39, 101
1, 143369, Note_off_c, 2, 49, 121
1, 143417, Note_off_c, 1, 39, 101
1, 143424, Note_on_c, 0, 51, 127
1, 143424, Note_on_c, 2, 51, 110
1, 143424, Note_on_c, 5, 49, 113
1, 143424, Note_on_c, 9, 42, 70
1, 143424, Note_on_c, 9, 36, 127
1, 143424, Note_on_c, 9, 54, 57
1, 143433, Note_off_c, 9, 54, 57
1, 143433, Note_off_c, 9, 36, 127
1, 143433, Note_off_c, 9, 42, 70
1, 143447, Note_off_c, 5, 49, 113
1, 143459, Note_off_c, 0, 51, 127
1, 143481, Note_off_c, 2, 51, 110
1, 143552, Note_on_c, 0, 39, 112
1, 143579, Control_c, 3, 1, 3
1, 143587, Control_c, 3, 1, 9
1, 143589, Note_off_c, 0, 39, 112
1, 143609, Control_c, 3, 1, 15
1, 143616, Note_on_c, 0, 54, 121
1, 143616, Note_on_c, 0, 49, 118
1, 143616, Note_on_c, 1, 44, 102
1, 143616, Note_on_c, 2, 44, 110
1, 143616, Note_on_c, 5, 51, 125
1, 143616, Note_on_c, 9, 42, 113
1, 143616, Note_on_c, 9, 36, 127
1, 143616, Note_on_c, 9, 54, 117
1, 143618, Note_on_c, 3, 61, 126
1, 143625, Note_off_c, 9, 54, 117
1, 143625, Note_off_c, 9, 36, 127
1, 143625, Note_off_c, 9, 42, 113
1, 143637, Control_c, 3, 1, 22
1, 143641, Note_off_c, 5, 51, 125
1, 143643, Control_c, 3, 1, 30
1, 143649, Pitch_bend_c, 1, 9024
1, 143655, Note_off_c, 0, 49, 118
1, 143657, Pitch_bend_c, 1, 11456
1, 143663, Control_c, 3, 1, 35
1, 143665, Note_off_c, 0, 54, 121
1, 143667, Note_off_c, 3, 61, 126
1, 143675, Note_off_c, 2, 44, 110
1, 143679, Pitch_bend_c, 1, 12896
1, 143683, Pitch_bend_c, 1, 14144
1, 143693, Control_c, 3, 1, 36
1, 143701, Pitch_bend_c, 1, 14336
1, 143703, Control_c, 3, 1, 38
1, 143709, Note_off_c, 1, 44, 102
1, 143713, Pitch_bend_c, 1, 13888
1, 143717, Control_c, 3, 1, 39
1, 143732, Note_on_c, 3, 63, 126
1, 143733, Pitch_bend_c, 1, 12640
1, 143739, Control_c, 3, 1, 41
1, 143741, Pitch_bend_c, 1, 10912
1, 143755, Pitch_bend_c, 1, 9344
1, 143767, Pitch_bend_c, 1, 8320
1, 143771, Control_c, 3, 1, 42
1, 143775, Pitch_bend_c, 1, 8192
1, 143789, Note_off_c, 3, 63, 126
1, 143807, Control_c, 3, 1, 43
1, 143808, Note_on_c, 0, 39, 110
1, 143808, Note_on_c, 1, 42, 100
1, 143808, Note_on_c, 2, 45, 105
1, 143808, Note_on_c, 5, 49, 112
1, 143808, Note_on_c, 9, 42, 75
1, 143808, Note_on_c, 9, 54, 64
1, 143817, Note_off_c, 9, 54, 64
1, 143817, Note_off_c, 9, 42, 75
1, 143821, Control_c, 3, 1, 45
1, 143825, Note_off_c, 5, 49, 112
1, 143839, Note_off_c, 0, 39, 110
1, 143855, Pitch_bend_c, 1, 8960
1, 143865, Pitch_bend_c, 1, 11872
1, 143879, Control_c, 3, 1, 47
1, 143881, Pitch_bend_c, 1, 15264
1, 143893, Control_c, 3, 1, 49
1, 143895, Pitch_bend_c, 1, 16383
1, 143903, Note_off_c, 2, 45, 105
1, 143917, Note_off_c, 1, 42, 100
1, 143922, Note_on_c, 3, 63, 127
1, 143925, Control_c, 3, 1, 54
1, 143936, Note_on_c, 0, 54, 121
1, 143936, Note_on_c, 0, 49, 110
1, 143936, Note_on_c, 2, 46, 98
1, 143943, Pitch_bend_c, 1, 15744
1, 143949, Pitch_bend_c, 1, 12256
1, 143949, Control_c, 3, 1, 51
1, 143967, Pitch_bend_c, 1, 8864
1, 143967, Control_c, 3, 1, 50
1, 143979, Note_off_c, 0, 49, 110
1, 143979, Pitch_bend_c, 1, 8352
1, 143983, Note_off_c, 0, 54, 121
1, 143987, Pitch_bend_c, 1, 8192
1, 143987, Control_c, 3, 1, 49
1, 144000, Note_on_c, 1, 42, 109
1, 144000, Note_on_c, 5, 51, 112
1, 144000, Note_on_c, 9, 39, 124
1, 144000, Note_on_c, 9, 42, 127
1, 144000, Note_on_c, 9, 40, 127
1, 144000, Note_on_c, 9, 36, 127
1, 144000, Note_on_c, 9, 54, 110
1, 144001, Control_c, 3, 1, 54
1, 144007, Note_off_c, 2, 46, 98
1, 144009, Note_off_c, 9, 54, 110
1, 144009, Note_off_c, 9, 36, 127
1, 144009, Note_off_c, 9, 40, 127
1, 144009, Note_off_c, 9, 42, 127
1, 144009, Note_off_c, 9, 39, 124
1, 144019, Note_off_c, 3, 63, 127
1, 144023, Control_c, 3, 1, 56
1, 144027, Note_off_c, 5, 51, 112
1, 144047, Control_c, 3, 1, 57
1, 144114, Note_on_c, 3, 63, 126
1, 144115, Control_c, 3, 1, 61
1, 144128, Note_on_c, 0, 39, 115
1, 144128, Note_on_c, 2, 49, 110
1, 144128, Note_on_c, 5, 49, 108
1, 144133, Control_c, 3, 1, 67
1, 144141, Note_off_c, 5, 49, 108
1, 144141, Note_off_c, 4, 51, 127
1, 144145, Control_c, 3, 1, 73
1, 144157, Note_off_c, 0, 39, 115
1, 144157, Note_off_c, 4, 63, 127
1, 144165, Control_c, 1, 1, 10
1, 144165, Control_c, 3, 1, 75
1, 144171, Note_off_c, 1, 42, 109
1, 144181, Control_c, 1, 1, 24
1, 144187, Control_c, 3, 1, 69
1, 144192, Note_on_c, 0, 56, 125
1, 144192, Note_on_c, 0, 51, 127
1, 144192, Note_on_c, 1, 39, 97
1, 144192, Note_on_c, 5, 56, 127
1, 144192, Note_on_c, 9, 42, 82
1, 144192, Note_on_c, 9, 54, 57
1, 144199, Control_c, 1, 1, 5
1, 144199, Control_c, 3, 1, 44
1, 144201, Note_off_c, 9, 54, 57
1, 144201, Note_off_c, 9, 42, 82
1, 144201, Note_off_c, 2, 49, 110
1, 144219, Control_c, 3, 1, 19
1, 144231, Control_c, 1, 1, 0
1, 144237, Control_c, 3, 1, 0
1, 144247, Note_off_c, 0, 51, 127
1, 144249, Note_off_c, 5, 56, 127
1, 144261, Note_off_c, 0, 56, 125
1, 144273, Note_off_c, 1, 39, 97
1, 144287, Note_off_c, 3, 63, 126
1, 144320, Note_on_c, 1, 37, 90
1, 144320, Note_on_c, 2, 51, 117
1, 144320, Note_on_c, 5, 54, 127
1, 144359, Note_off_c, 5, 54, 127
1, 144359, Note_off_c, 2, 51, 117
1, 144359, Note_off_c, 1, 37, 90
1, 144384, Note_on_c, 0, 27, 122
1, 144384, Note_on_c, 1, 27, 105
1, 144384, Note_on_c, 2, 39, 127
1, 144384, Note_on_c, 4, 65, 127
1, 144384, Note_on_c, 9, 36, 127
1, 144384, Note_on_c, 9, 49, 84
1, 144384, Note_on_c, 9, 54, 89
1, 144387, Pitch_bend_c, 4, 7744
1, 144393, Note_off_c, 9, 54, 89
1, 144393, Note_off_c, 9, 49, 84
1, 144393, Note_off_c, 9, 36, 127
1, 144397, Pitch_bend_c, 4, 6048
1, 144419, Control_c, 3, 1, 6
1, 144419, Pitch_bend_c, 4, 3168
1, 144425, Pitch_bend_c, 4, 1568
1, 144439, Control_c, 3, 1, 10
1, 144445, Pitch_bend_c, 4, 2112
1, 144455, Pitch_bend_c, 4, 3200
1, 144463, Control_c, 3, 1, 13
1, 144467, Pitch_bend_c, 4, 6432
1, 144479, Control_c, 3, 1, 17
1, 144485, Pitch_bend_c, 4, 7744
1, 144495, Control_c, 3, 1, 23
1, 144495, Pitch_bend_c, 4, 8096
1, 144499, Pitch_bend_c, 4, 8192
1, 144515, Control_c, 3, 1, 30
1, 144525, Note_off_c, 2, 39, 127
1, 144531, Control_c, 3, 1, 36
1, 144535, Note_off_c, 1, 27, 105
1, 144547, Control_c, 3, 1, 45
1, 144557, Note_off_c, 0, 27, 122
1, 144567, Control_c, 3, 1, 51
1, 144576, Note_on_c, 0, 39, 114
1, 144576, Note_on_c, 1, 39, 98
1, 144576, Note_on_c, 2, 51, 115
1, 144576, Note_on_c, 5, 51, 126
1, 144576, Note_on_c, 9, 42, 77
1, 144576, Note_on_c, 9, 54, 53
1, 144583, Control_c, 3, 1, 57
1, 144585, Note_off_c, 9, 54, 53
1, 144585, Note_off_c, 9, 42, 77
1, 144609, Control_c, 3, 1, 43
1, 144619, Note_off_c, 5, 51, 126
1, 144619, Note_off_c, 0, 39, 114
1, 144621, Control_c, 3, 1, 13
1, 144627, Note_off_c, 2, 51, 115
1, 144639, Control_c, 3, 1, 0
1, 144641, Note_off_c, 1, 39, 98
1, 144704, Note_on_c, 1, 27, 61
1, 144719, Pitch_bend_c, 3, 4544
1, 144737, Note_off_c, 1, 27, 61
1, 144741, Pitch_bend_c, 3, 0
1, 144768, Note_on_c, 0, 54, 114
1, 144768, Note_on_c, 0, 49, 100
1, 144768, Note_on_c, 1, 37, 92
1, 144768, Note_on_c, 2, 49, 106
1, 144768, Note_on_c, 3, 63, 127
1, 144768, Note_on_c, 9, 39, 126
1, 144768, Note_on_c, 9, 40, 127
1, 144768, Note_on_c, 9, 42, 122
1, 144768, Note_on_c, 9, 36, 127
1, 144768, Note_on_c, 9, 54, 112
1, 144777, Note_off_c, 9, 54, 112
1, 144777, Note_off_c, 9, 36, 127
1, 144777, Note_off_c, 9, 42, 122
1, 144777, Note_off_c, 9, 40, 127
1, 144777, Note_off_c, 9, 39, 126
1, 144783, Note_off_c, 0, 49, 100
1, 144787, Pitch_bend_c, 3, 4800
1, 144795, Note_off_c, 0, 54, 114
1, 144807, Pitch_bend_c, 3, 8000
1, 144821, Pitch_bend_c, 3, 8192
1, 144867, Note_off_c, 1, 37, 92
1, 144881, Note_off_c, 2, 49, 106
1, 144896, Note_on_c, 1, 39, 90
1, 144896, Note_on_c, 2, 51, 88
1, 144929, Control_c, 3, 1, 3
1, 144935, Note_off_c, 2, 51, 88
1, 144943, Control_c, 3, 1, 11
1, 144945, Note_off_c, 1, 39, 90
1, 144960, Note_on_c, 0, 39, 117
1, 144960, Note_on_c, 1, 27, 97
1, 144960, Note_on_c, 2, 39, 111
1, 144960, Note_on_c, 5, 51, 118
1, 144960, Note_on_c, 9, 42, 62
1, 144960, Note_on_c, 9, 54, 61
1, 144963, Control_c, 3, 1, 19
1, 144969, Note_off_c, 9, 54, 61
1, 144969, Note_off_c, 9, 42, 62
1, 144983, Control_c, 3, 1, 33
1, 144985, Note_off_c, 2, 39, 111
1, 145003, Note_off_c, 5, 51, 118
1, 145003, Control_c, 3, 1, 40
1, 145015, Control_c, 3, 1, 48
1, 145031, Note_off_c, 0, 39, 117
1, 145035, Control_c, 3, 1, 54
1, 145039, Note_off_c, 4, 65, 127
1, 145051, Control_c, 3, 1, 63
1, 145071, Control_c, 3, 1, 70
1, 145091, Control_c, 3, 1, 74
1, 145099, Note_off_c, 1, 27, 97
1, 145107, Control_c, 3, 1, 77
1, 145123, Control_c, 3, 1, 79
1, 145152, Note_on_c, 0, 54, 127
1, 145152, Note_on_c, 0, 49, 125
1, 145152, Note_on_c, 1, 30, 104
1, 145152, Note_on_c, 2, 54, 112
1, 145152, Note_on_c, 2, 49, 107
1, 145152, Note_on_c, 4, 66, 127
1, 145152, Note_on_c, 5, 51, 127
1, 145152, Note_on_c, 9, 42, 117
1, 145152, Note_on_c, 9, 36, 127
1, 145152, Note_on_c, 9, 54, 104
1, 145161, Note_off_c, 9, 54, 104
1, 145161, Note_off_c, 9, 36, 127
1, 145161, Note_off_c, 9, 42, 117
1, 145175, Note_off_c, 2, 54, 112
1, 145191, Note_off_c, 2, 49, 107
1, 145199, Note_off_c, 5, 51, 127
1, 145201, Control_c, 3, 1, 77
1, 145217, Control_c, 3, 1, 76
1, 145235, Note_off_c, 1, 30, 104
1, 145245, Control_c, 3, 1, 43
1, 145273, Control_c, 3, 1, 5
1, 145280, Note_on_c, 1, 32, 74
1, 145285, Control_c, 3, 1, 0
1, 145305, Note_off_c, 3, 63, 127
1, 145319, Note_off_c, 0, 49, 125
1, 145336, Note_on_c, 3, 61, 108
1, 145343, Note_off_c, 0, 54, 127
1, 145344, Note_on_c, 1, 34, 93
1, 145344, Note_on_c, 2, 39, 88
1, 145344, Note_on_c, 9, 42, 63
1, 145344, Note_on_c, 9, 54, 51
1, 145345, Note_off_c, 1, 32, 74
1, 145353, Note_off_c, 9, 54, 51
1, 145353, Note_off_c, 9, 42, 63
1, 145357, Note_off_c, 2, 39, 88
1, 145387, Note_off_c, 3, 61, 108
1, 145405, Note_off_c, 1, 34, 93
1, 145408, Note_on_c, 0, 39, 109
1, 145410, Note_on_c, 3, 58, 98
1, 145431, Note_off_c, 0, 39, 109
1, 145433, Note_off_c, 3, 58, 98
1, 145472, Note_on_c, 1, 37, 98
1, 145472, Note_on_c, 2, 51, 115
1, 145507, Note_off_c, 2, 51, 115
1, 145536, Note_on_c, 0, 56, 127
1, 145536, Note_on_c, 0, 51, 121
1, 145536, Note_on_c, 5, 51, 127
1, 145536, Note_on_c, 9, 39, 122
1, 145536, Note_on_c, 9, 40, 127
1, 145536, Note_on_c, 9, 42, 126
1, 145536, Note_on_c, 9, 36, 127
1, 145536, Note_on_c, 9, 54, 106
1, 145545, Note_off_c, 9, 54, 106
1, 145545, Note_off_c, 9, 36, 127
1, 145545, Note_off_c, 9, 42, 126
1, 145545, Note_off_c, 9, 40, 127
1, 145545, Note_off_c, 9, 39, 122
1, 145593, Note_off_c, 5, 51, 127
1, 145645, Note_off_c, 0, 51, 121
1, 145647, Note_off_c, 1, 37, 98
1, 145664, Note_on_c, 1, 34, 88
1, 145664, Note_on_c, 2, 39, 94
1, 145673, Note_off_c, 0, 56, 127
1, 145675, Note_off_c, 2, 39, 94
1, 145713, Note_off_c, 1, 34, 88
1, 145728, Note_on_c, 0, 54, 116
1, 145728, Note_on_c, 0, 49, 120
1, 145728, Note_on_c, 1, 39, 100
1, 145728, Note_on_c, 2, 49, 108
1, 145728, Note_on_c, 9, 42, 64
1, 145728, Note_on_c, 9, 54, 59
1, 145737, Note_off_c, 9, 54, 59
1, 145737, Note_off_c, 9, 42, 64
1, 145763, Note_off_c, 4, 66, 127
1, 145787, Note_off_c, 0, 49, 120
1, 145797, Note_off_c, 0, 54, 116
1, 145809, Note_off_c, 1, 39, 100
1, 145839, Note_off_c, 2, 49, 108
1, 145856, Note_on_c, 1, 39, 97
1, 145856, Note_on_c, 2, 51, 96
1, 145856, Note_on_c, 5, 54, 127
1, 145889, Note_off_c, 2, 51, 96
1, 145889, Pitch_bend_c, 4, 7904
1, 145899, Pitch_bend_c, 4, 7456
1, 145911, Pitch_bend_c, 4, 5248
1, 145920, Note_on_c, 0, 27, 121
1, 145920, Note_on_c, 1, 27, 104
1, 145920, Note_on_c, 2, 39, 127
1, 145920, Note_on_c, 4, 65, 127
1, 145920, Note_on_c, 9, 36, 127
1, 145920, Note_on_c, 9, 42, 109
1, 145920, Note_on_c, 9, 54, 112
1, 145925, Pitch_bend_c, 4, 4832
1, 145929, Note_off_c, 9, 54, 112
1, 145929, Note_off_c, 9, 42, 109
1, 145929, Note_off_c, 9, 36, 127
1, 145929, Note_off_c, 1, 39, 97
1, 145943, Pitch_bend_c, 4, 4256
1, 145955, Pitch_bend_c, 4, 5216
1, 145969, Pitch_bend_c, 4, 6304
1, 145979, Pitch_bend_c, 4, 7904
1, 145981, Note_off_c, 2, 39, 127
1, 146001, Pitch_bend_c, 4, 8192
1, 146061, Note_off_c, 0, 27, 121
1, 146083, Note_off_c, 1, 27, 104
1, 146085, Note_off_c, 5, 54, 127
1, 146112, Note_on_c, 0, 54, 127
1, 146112, Note_on_c, 0, 49, 125
1, 146112, Note_on_c, 1, 39, 104
1, 146112, Note_on_c, 2, 51, 127
1, 146112, Note_on_c, 5, 51, 126
1, 146112, Note_on_c, 9, 42, 67
1, 146112, Note_on_c, 9, 54, 66
1, 146121, Note_off_c, 9, 54, 66
1, 146121, Note_off_c, 9, 42, 67
1, 146129, Note_off_c, 0, 49, 125
1, 146137, Note_off_c, 5, 51, 126
1, 146143, Note_off_c, 0, 54, 127
1, 146157, Note_off_c, 2, 51, 127
1, 146171, Note_off_c, 1, 39, 104
1, 146240, Note_on_c, 1, 27, 79
1, 146275, Note_off_c, 1, 27, 79
1, 146304, Note_on_c, 0, 39, 107
1, 146304, Note_on_c, 1, 37, 96
1, 146304, Note_on_c, 2, 49, 115
1, 146304, Note_on_c, 5, 51, 127
1, 146304, Note_on_c, 9, 39, 126
1, 146304, Note_on_c, 9, 40, 127
1, 146304, Note_on_c, 9, 42, 124
1, 146304, Note_on_c, 9, 36, 127
1, 146304, Note_on_c, 9, 54, 110
1, 146307, Control_c, 4, 1, 4
1, 146313, Note_off_c, 9, 54, 110
1, 146313, Note_off_c, 9, 36, 127
1, 146313, Note_off_c, 9, 42, 124
1, 146313, Note_off_c, 9, 40, 127
1, 146313, Note_off_c, 9, 39, 126
1, 146323, Control_c, 4, 1, 9
1, 146331, Note_off_c, 5, 51, 127
1, 146343, Control_c, 4, 1, 12
1, 146349, Note_off_c, 0, 39, 107
1, 146361, Control_c, 4, 1, 15
1, 146383, Control_c, 4, 1, 16
1, 146405, Control_c, 4, 1, 18
1, 146425, Note_off_c, 2, 49, 115
1, 146429, Control_c, 4, 1, 17
1, 146432, Note_on_c, 0, 54, 118
1, 146432, Note_on_c, 0, 49, 112
1, 146432, Note_on_c, 1, 39, 98
1, 146432, Note_on_c, 2, 51, 94
1, 146433, Control_c, 4, 1, 11
1, 146435, Note_off_c, 1, 37, 96
1, 146447, Note_off_c, 0, 49, 112
1, 146449, Control_c, 4, 1, 4
1, 146463, Note_off_c, 0, 54, 118
1, 146471, Control_c, 4, 1, 0
1, 146473, Note_off_c, 2, 51, 94
1, 146496, Note_on_c, 0, 27, 125
1, 146496, Note_on_c, 2, 39, 108
1, 146496, Note_on_c, 5, 49, 113
1, 146496, Note_on_c, 9, 42, 73
1, 146496, Note_on_c, 9, 54, 52
1, 146505, Note_off_c, 9, 54, 52
1, 146505, Note_off_c, 9, 42, 73
1, 146505, Note_off_c, 1, 39, 98
1, 146519, Note_off_c, 5, 49, 113
1, 146535, Note_off_c, 2, 39, 108
1, 146553, Note_off_c, 0, 27, 125
1, 146553, Note_off_c, 4, 65, 127
1, 146620, Note_on_c, 9, 54, 65
1, 146624, Note_on_c, 1, 37, 77
1, 146629, Note_off_c, 9, 54, 65
1, 146661, Note_off_c, 1, 37, 77
1, 146688, Note_on_c, 0, 58, 127
1, 146688, Note_on_c, 0, 57, 123
1, 146688, Note_on_c, 0, 56, 117
1, 146688, Note_on_c, 0, 61, 118
1, 146688, Note_on_c, 1, 44, 105
1, 146688, Note_on_c, 2, 46, 117
1, 146688, Note_on_c, 2, 45, 120
1, 146688, Note_on_c, 4, 63, 127
1, 146688, Note_on_c, 5, 51, 125
1, 146688, Note_on_c, 9, 36, 127
1, 146688, Note_on_c, 9, 42, 107
1, 146688, Note_on_c, 9, 54, 112
1, 146697, Note_off_c, 9, 54, 112
1, 146697, Note_off_c, 9, 42, 107
1, 146697, Note_off_c, 9, 36, 127
1, 146709, Pitch_bend_c, 1, 11264
1, 146713, Note_off_c, 5, 51, 125
1, 146717, Note_off_c, 0, 56, 117
1, 146723, Note_off_c, 2, 45, 120
1, 146723, Pitch_bend_c, 1, 16383
1, 146731, Note_off_c, 0, 57, 123
1, 146747, Note_off_c, 0, 58, 127
1, 146781, Note_off_c, 1, 44, 105
1, 146805, Pitch_bend_c, 1, 14752
1, 146821, Pitch_bend_c, 1, 11360
1, 146835, Pitch_bend_c, 1, 9088
1, 146847, Note_off_c, 2, 46, 117
1, 146847, Pitch_bend_c, 1, 8448
1, 146853, Pitch_bend_c, 1, 8192
1, 146880, Note_on_c, 0, 57, 102
1, 146880, Note_on_c, 0, 56, 119
1, 146880, Note_on_c, 1, 42, 107
1, 146880, Note_on_c, 2, 49, 87
1, 146880, Note_on_c, 5, 49, 112
1, 146880, Note_on_c, 9, 42, 78
1, 146880, Note_on_c, 9, 36, 127
1, 146880, Note_on_c, 9, 54, 54
1, 146887, Note_off_c, 0, 61, 118
1, 146889, Note_off_c, 9, 54, 54
1, 146889, Note_off_c, 9, 36, 127
1, 146889, Note_off_c, 9, 42, 78
1, 146897, Note_off_c, 5, 49, 112
1, 146905, Note_off_c, 0, 57, 102
1, 146933, Note_off_c, 0, 56, 119
1, 146961, Note_off_c, 2, 49, 87
1, 146971, Note_off_c, 1, 42, 107
1, 147008, Note_on_c, 2, 45, 109
1, 147008, Note_on_c, 2, 46, 92
1, 147055, Note_off_c, 2, 46, 92
1, 147072, Note_on_c, 0, 54, 127
1, 147072, Note_on_c, 1, 42, 100
1, 147072, Note_on_c, 2, 44, 85
1, 147072, Note_on_c, 5, 51, 112
1, 147072, Note_on_c, 9, 39, 127
1, 147072, Note_on_c, 9, 40, 127
1, 147072, Note_on_c, 9, 42, 127
1, 147072, Note_on_c, 9, 36, 127
1, 147072, Note_on_c, 9, 54, 114
1, 147077, Note_off_c, 2, 45, 109
1, 147081, Note_off_c, 9, 54, 114
1, 147081, Note_off_c, 9, 36, 127
1, 147081, Note_off_c, 9, 42, 127
1, 147081, Note_off_c, 9, 40, 127
1, 147081, Note_off_c, 9, 39, 127
1, 147099, Note_off_c, 5, 51, 112
1, 147135, Note_off_c, 0, 54, 127
1, 147177, Note_off_c, 2, 44, 85
1, 147200, Note_on_c, 2, 42, 95
1, 147200, Note_on_c, 5, 49, 108
1, 147213, Note_off_c, 5, 49, 108
1, 147239, Note_off_c, 1, 42, 100
1, 147239, Note_off_c, 4, 63, 127
1, 147245, Note_off_c, 2, 42, 95
1, 147264, Note_on_c, 0, 56, 127
1, 147264, Note_on_c, 1, 39, 93
1, 147264, Note_on_c, 2, 44, 95
1, 147264, Note_on_c, 5, 56, 127
1, 147264, Note_on_c, 9, 42, 71
1, 147264, Note_on_c, 9, 36, 127
1, 147264, Note_on_c, 9, 54, 63
1, 147273, Note_off_c, 9, 54, 63
1, 147273, Note_off_c, 9, 36, 127
1, 147273, Note_off_c, 9, 42, 71
1, 147321, Note_off_c, 5, 56, 127
1, 147349, Note_off_c, 0, 56, 127
1, 147361, Note_off_c, 2, 44, 95
1, 147373, Note_off_c, 1, 39, 93
1, 147392, Note_on_c, 0, 54, 123
1, 147392, Note_on_c, 1, 37, 89
1, 147392, Note_on_c, 2, 42, 88
1, 147392, Note_on_c, 5, 54, 127
1, 147429, Note_off_c, 0, 54, 123
1, 147431, Note_off_c, 5, 54, 127
1, 147433, Note_off_c, 2, 42, 88
1, 147441, Note_off_c, 1, 37, 89
1, 147456, Note_on_c, 0, 27, 120
1, 147456, Note_on_c, 1, 27, 88
1, 147456, Note_on_c, 1, 29, 97
1, 147456, Note_on_c, 2, 39, 127
1, 147456, Note_on_c, 4, 65, 127
1, 147456, Note_on_c, 9, 36, 127
1, 147456, Note_on_c, 9, 42, 115
1, 147456, Note_on_c, 9, 54, 110
1, 147465, Note_off_c, 9, 54, 110
1, 147465, Note_off_c, 9, 42, 115
1, 147465, Note_off_c, 9, 36, 127
1, 147469, Note_off_c, 1, 29, 97
1, 147471, Pitch_bend_c, 4, 8160
1, 147485, Pitch_bend_c, 4, 7328
1, 147505, Pitch_bend_c, 4, 4416
1, 147523, Pitch_bend_c, 4, 4800
1, 147533, Pitch_bend_c, 4, 6112
1, 147545, Note_off_c, 0, 27, 120
1, 147547, Pitch_bend_c, 4, 7104
1, 147563, Pitch_bend_c, 4, 8096
1, 147571, Pitch_bend_c, 4, 8192
1, 147609, Note_off_c, 2, 39, 127
1, 147648, Note_on_c, 1, 39, 107
1, 147648, Note_on_c, 2, 51, 117
1, 147648, Note_on_c, 5, 51, 126
1, 147648, Note_on_c, 9, 42, 57
1, 147648, Note_on_c, 9, 54, 54
1, 147655, Note_off_c, 1, 27, 88
1, 147657, Note_off_c, 9, 54, 54
1, 147657, Note_off_c, 9, 42, 57
1, 147691, Note_off_c, 5, 51, 126
1, 147699, Note_off_c, 2, 51, 117
1, 147721, Note_off_c, 1, 39, 107
1, 147776, Note_on_c, 1, 27, 69
1, 147776, Note_on_c, 2, 39, 75
1, 147787, Note_off_c, 2, 39, 75
1, 147795, Note_off_c, 1, 27, 69
1, 147840, Note_on_c, 0, 54, 127
1, 147840, Note_on_c, 0, 49, 124
1, 147840, Note_on_c, 1, 37, 101
1, 147840, Note_on_c, 2, 49, 112
1, 147840, Note_on_c, 9, 39, 124
1, 147840, Note_on_c, 9, 40, 127
1, 147840, Note_on_c, 9, 42, 126
1, 147840, Note_on_c, 9, 36, 127
1, 147840, Note_on_c, 9, 54, 112
1, 147849, Note_off_c, 9, 54, 112
1, 147849, Note_off_c, 9, 36, 127
1, 147849, Note_off_c, 9, 42, 126
1, 147849, Note_off_c, 9, 40, 127
1, 147849, Note_off_c, 9, 39, 124
1, 147877, Note_off_c, 0, 49, 124
1, 147889, Note_off_c, 0, 54, 127
1, 147919, Note_off_c, 2, 49, 112
1, 147943, Note_off_c, 1, 37, 101
1, 147968, Note_on_c, 1, 39, 90
1, 147968, Note_on_c, 2, 51, 92
1, 147999, Note_off_c, 2, 51, 92
1, 148011, Note_off_c, 1, 39, 90
1, 148032, Note_on_c, 0, 39, 103
1, 148032, Note_on_c, 1, 27, 98
1, 148032, Note_on_c, 2, 39, 127
1, 148032, Note_on_c, 5, 51, 118
1, 148032, Note_on_c, 9, 42, 66
1, 148032, Note_on_c, 9, 54, 46
1, 148041, Note_off_c, 9, 54, 46
1, 148041, Note_off_c, 9, 42, 66
1, 148047, Note_off_c, 4, 65, 127
1, 148059, Note_off_c, 0, 39, 103
1, 148067, Note_off_c, 2, 39, 127
1, 148075, Note_off_c, 5, 51, 118
1, 148165, Note_off_c, 1, 27, 98
1, 148224, Note_on_c, 0, 56, 126
1, 148224, Note_on_c, 0, 51, 127
1, 148224, Note_on_c, 1, 30, 118
1, 148224, Note_on_c, 2, 54, 108
1, 148224, Note_on_c, 2, 49, 108
1, 148224, Note_on_c, 4, 66, 127
1, 148224, Note_on_c, 5, 51, 127
1, 148224, Note_on_c, 9, 36, 127
1, 148224, Note_on_c, 9, 42, 110
1, 148224, Note_on_c, 9, 54, 117
1, 148233, Note_off_c, 9, 54, 117
1, 148233, Note_off_c, 9, 42, 110
1, 148233, Note_off_c, 9, 36, 127
1, 148253, Note_off_c, 2, 54, 108
1, 148271, Note_off_c, 5, 51, 127
1, 148271, Note_off_c, 2, 49, 108
1, 148311, Note_off_c, 1, 30, 118
1, 148348, Note_on_c, 9, 54, 70
1, 148352, Note_on_c, 1, 32, 79
1, 148357, Note_off_c, 9, 54, 70
1, 148381, Note_off_c, 0, 51, 127
1, 148405, Note_off_c, 0, 56, 126
1, 148411, Note_off_c, 1, 32, 79
1, 148416, Note_on_c, 0, 39, 114
1, 148416, Note_on_c, 1, 34, 93
1, 148416, Note_on_c, 9, 42, 76
1, 148416, Note_on_c, 9, 54, 62
1, 148425, Note_off_c, 9, 54, 62
1, 148425, Note_off_c, 9, 42, 76
1, 148459, Note_off_c, 0, 39, 114
1, 148489, Note_off_c, 1, 34, 93
1, 148544, Note_on_c, 0, 54, 127
1, 148544, Note_on_c, 0, 49, 118
1, 148544, Note_on_c, 1, 37, 102
1, 148544, Note_on_c, 2, 54, 108
1, 148544, Note_on_c, 2, 49, 110
1, 148544, Note_on_c, 9, 46, 91
1, 148553, Note_off_c, 9, 46, 91
1, 148575, Note_off_c, 0, 49, 118
1, 148583, Note_off_c, 0, 54, 127
1, 148587, Note_off_c, 2, 54, 108
1, 148591, Note_off_c, 2, 49, 110
1, 148608, Note_on_c, 5, 51, 127
1, 148608, Note_on_c, 9, 39, 127
1, 148608, Note_on_c, 9, 40, 127
1, 148608, Note_on_c, 9, 42, 105
1, 148608, Note_on_c, 9, 36, 127
1, 148608, Note_on_c, 9, 54, 114
1, 148617, Note_off_c, 9, 54, 114
1, 148617, Note_off_c, 9, 36, 127
1, 148617, Note_off_c, 9, 42, 105
1, 148617, Note_off_c, 9, 40, 127
1, 148617, Note_off_c, 9, 39, 127
1, 148665, Note_off_c, 5, 51, 127
1, 148709, Note_off_c, 1, 37, 102
1, 148736, Note_on_c, 0, 39, 111
1, 148736, Note_on_c, 1, 34, 87
1, 148777, Note_off_c, 0, 39, 111
1, 148787, Note_off_c, 1, 34, 87
1, 148800, Note_on_c, 0, 49, 115
1, 148800, Note_on_c, 1, 39, 101
1, 148800, Note_on_c, 2, 54, 112
1, 148800, Note_on_c, 2, 49, 112
1, 148800, Note_on_c, 9, 42, 87
1, 148800, Note_on_c, 9, 54, 70
1, 148809, Note_off_c, 9, 54, 70
1, 148809, Note_off_c, 9, 42, 87
1, 148885, Note_off_c, 1, 39, 101
1, 148889, Note_off_c, 0, 49, 115
1, 148891, Note_off_c, 4, 66, 127
1, 148924, Note_on_c, 9, 54, 71
1, 148928, Note_on_c, 0, 51, 118
1, 148928, Note_on_c, 1, 39, 87
1, 148928, Note_on_c, 5, 54, 127
1, 148933, Note_off_c, 9, 54, 71
1, 148965, Note_off_c, 0, 51, 118
1, 148973, Pitch_bend_c, 4, 8160
1, 148977, Pitch_bend_c, 4, 7424
1, 148979, Note_off_c, 2, 54, 112
1, 148992, Note_on_c, 0, 27, 121
1, 148992, Note_on_c, 1, 27, 107
1, 148992, Note_on_c, 2, 39, 111
1, 148992, Note_on_c, 4, 65, 127
1, 148992, Note_on_c, 9, 42, 84
1, 148992, Note_on_c, 9, 36, 127
1, 148992, Note_on_c, 9, 54, 114
1, 148995, Pitch_bend_c, 4, 5728
1, 149001, Note_off_c, 9, 54, 114
1, 149001, Note_off_c, 9, 36, 127
1, 149001, Note_off_c, 9, 42, 84
1, 149001, Note_off_c, 2, 49, 112
1, 149003, Pitch_bend_c, 4, 5312
1, 149013, Note_off_c, 1, 39, 87
1, 149025, Pitch_bend_c, 4, 4896
1, 149035, Pitch_bend_c, 4, 5888
1, 149047, Pitch_bend_c, 4, 6720
1, 149065, Pitch_bend_c, 4, 7936
1, 149073, Pitch_bend_c, 4, 8160
1, 149085, Pitch_bend_c, 4, 8192
1, 149109, Note_off_c, 2, 39, 111
1, 149125, Note_off_c, 0, 27, 121
1, 149157, Note_off_c, 5, 54, 127
1, 149167, Note_off_c, 1, 27, 107
1, 149184, Note_on_c, 0, 51, 127
1, 149184, Note_on_c, 1, 39, 107
1, 149184, Note_on_c, 2, 51, 114
1, 149184, Note_on_c, 5, 51, 126
1, 149184, Note_on_c, 9, 42, 78
1, 149184, Note_on_c, 9, 54, 56
1, 149193, Note_off_c, 9, 54, 56
1, 149193, Note_off_c, 9, 42, 78
1, 149209, Note_off_c, 5, 51, 126
1, 149227, Note_off_c, 0, 51, 127
1, 149237, Note_off_c, 2, 51, 114
1, 149253, Note_off_c, 1, 39, 107
1, 149312, Note_on_c, 1, 27, 72
1, 149349, Note_off_c, 1, 27, 72
1, 149376, Note_on_c, 0, 49, 121
1, 149376, Note_on_c, 1, 37, 102
1, 149376, Note_on_c, 2, 49, 121
1, 149376, Note_on_c, 5, 51, 127
1, 149376, Note_on_c, 9, 39, 127
1, 149376, Note_on_c, 9, 42, 120
1, 149376, Note_on_c, 9, 40, 126
1, 149376, Note_on_c, 9, 36, 127
1, 149376, Note_on_c, 9, 54, 112
1, 149385, Note_off_c, 9, 54, 112
1, 149385, Note_off_c, 9, 36, 127
1, 149385, Note_off_c, 9, 40, 126
1, 149385, Note_off_c, 9, 42, 120
1, 149385, Note_off_c, 9, 39, 127
1, 149403, Note_off_c, 5, 51, 127
1, 149419, Note_off_c, 0, 49, 121
1, 149485, Note_off_c, 1, 37, 102
1, 149504, Note_on_c, 1, 39, 101
1, 149513, Note_off_c, 2, 49, 121
1, 149561, Note_off_c, 1, 39, 101
1, 149568, Note_on_c, 0, 51, 127
1, 149568, Note_on_c, 2, 51, 110
1, 149568, Note_on_c, 5, 49, 113
1, 149568, Note_on_c, 9, 42, 70
1, 149568, Note_on_c, 9, 36, 127
1, 149568, Note_on_c, 9, 54, 57
1, 149577, Note_off_c, 9, 54, 57
1, 149577, Note_off_c, 9, 36, 127
1, 149577, Note_off_c, 9, 42, 70
1, 149591, Note_off_c, 5, 49, 113
1, 149603, Note_off_c, 0, 51, 127
1, 149625, Note_off_c, 2, 51, 110
1, 149657, Note_off_c, 4, 65, 127
1, 149696, Note_on_c, 0, 39, 112
1, 149723, Control_c, 3, 1, 3
1, 149731, Control_c, 3, 1, 9
1, 149733, Note_off_c, 0, 39, 112
1, 149753, Control_c, 3, 1, 15
1, 149760, Note_on_c, 0, 54, 121
1, 149760, Note_on_c, 0, 49, 118
1, 149760, Note_on_c, 1, 44, 102
1, 149760, Note_on_c, 2, 44, 110
1, 149760, Note_on_c, 4, 63, 127
1, 149760, Note_on_c, 5, 51, 125
1, 149760, Note_on_c, 9, 42, 113
1, 149760, Note_on_c, 9, 36, 127
1, 149760, Note_on_c, 9, 54, 117
1, 149762, Note_on_c, 3, 61, 126
1, 149769, Note_off_c, 9, 54, 117
1, 149769, Note_off_c, 9, 36, 127
1, 149769, Note_off_c, 9, 42, 113
1, 149781, Control_c, 3, 1, 30
1, 149785, Note_off_c, 5, 51, 125
1, 149793, Pitch_bend_c, 1, 9024
1, 149799, Note_off_c, 0, 49, 118
1, 149801, Pitch_bend_c, 1, 11456
1, 149807, Control_c, 3, 1, 35
1, 149809, Note_off_c, 0, 54, 121
1, 149811, Note_off_c, 3, 61, 126
1, 149819, Note_off_c, 2, 44, 110
1, 149823, Pitch_bend_c, 1, 13472
1, 149829, Pitch_bend_c, 1, 14144
1, 149837, Control_c, 3, 1, 38
1, 149845, Pitch_bend_c, 1, 14336
1, 149853, Note_off_c, 1, 44, 102
1, 149857, Pitch_bend_c, 1, 13888
1, 149861, Control_c, 3, 1, 39
1, 149876, Note_on_c, 3, 63, 126
1, 149877, Pitch_bend_c, 1, 12640
1, 149883, Control_c, 3, 1, 41
1, 149885, Pitch_bend_c, 1, 10912
1, 149899, Pitch_bend_c, 1, 8736
1, 149915, Control_c, 3, 1, 42
1, 149917, Pitch_bend_c, 1, 8320
1, 149919, Pitch_bend_c, 1, 8192
1, 149933, Note_off_c, 3, 63, 126
1, 149951, Control_c, 3, 1, 43
1, 149952, Note_on_c, 0, 39, 110
1, 149952, Note_on_c, 1, 42, 100
1, 149952, Note_on_c, 2, 45, 105
1, 149952, Note_on_c, 5, 49, 112
1, 149952, Note_on_c, 9, 42, 75
1, 149952, Note_on_c, 9, 54, 64
1, 149961, Note_off_c, 9, 54, 64
1, 149961, Note_off_c, 9, 42, 75
1, 149965, Control_c, 3, 1, 45
1, 149969, Note_off_c, 5, 49, 112
1, 149983, Note_off_c, 0, 39, 110
1, 149999, Pitch_bend_c, 1, 9696
1, 150013, Pitch_bend_c, 1, 11872
1, 150023, Control_c, 3, 1, 47
1, 150025, Pitch_bend_c, 1, 15264
1, 150037, Control_c, 3, 1, 49
1, 150039, Pitch_bend_c, 1, 16383
1, 150047, Note_off_c, 2, 45, 105
1, 150061, Note_off_c, 1, 42, 100
1, 150066, Note_on_c, 3, 63, 127
1, 150069, Control_c, 3, 1, 54
1, 150080, Note_on_c, 0, 54, 121
1, 150080, Note_on_c, 0, 49, 110
1, 150080, Note_on_c, 2, 46, 98
1, 150087, Pitch_bend_c, 1, 14656
1, 150093, Control_c, 3, 1, 51
1, 150101, Pitch_bend_c, 1, 12256
1, 150111, Pitch_bend_c, 1, 8864
1, 150111, Control_c, 3, 1, 50
1, 150123, Note_off_c, 0, 49, 110
1, 150123, Pitch_bend_c, 1, 8352
1, 150127, Note_off_c, 0, 54, 121
1, 150131, Pitch_bend_c, 1, 8192
1, 150131, Control_c, 3, 1, 49
1, 150144, Note_on_c, 1, 42, 109
1, 150144, Note_on_c, 5, 51, 112
1, 150144, Note_on_c, 9, 39, 124
1, 150144, Note_on_c, 9, 42, 127
1, 150144, Note_on_c, 9, 40, 127
1, 150144, Note_on_c, 9, 36, 127
1, 150144, Note_on_c, 9, 54, 110
1, 150145, Control_c, 3, 1, 54
1, 150151, Note_off_c, 2, 46, 98
1, 150153, Note_off_c, 9, 54, 110
1, 150153, Note_off_c, 9, 36, 127
1, 150153, Note_off_c, 9, 40, 127
1, 150153, Note_off_c, 9, 42, 127
1, 150153, Note_off_c, 9, 39, 124
1, 150163, Note_off_c, 3, 63, 127
1, 150167, Control_c, 3, 1, 56
1, 150171, Note_off_c, 5, 51, 112
1, 150191, Control_c, 3, 1, 57
1, 150258, Note_on_c, 3, 63, 126
1, 150259, Control_c, 3, 1, 61
1, 150267, Note_off_c, 4, 63, 127
1, 150272, Note_on_c, 0, 39, 115
1, 150272, Note_on_c, 2, 49, 110
1, 150272, Note_on_c, 5, 49, 108
1, 150277, Control_c, 3, 1, 67
1, 150285, Note_off_c, 5, 49, 108
1, 150289, Control_c, 3, 1, 73
1, 150301, Note_off_c, 0, 39, 115
1, 150309, Control_c, 1, 1, 10
1, 150309, Control_c, 3, 1, 75
1, 150315, Note_off_c, 1, 42, 109
1, 150325, Control_c, 1, 1, 24
1, 150331, Control_c, 3, 1, 69
1, 150336, Note_on_c, 0, 56, 125
1, 150336, Note_on_c, 0, 51, 127
1, 150336, Note_on_c, 1, 39, 97
1, 150336, Note_on_c, 5, 56, 127
1, 150336, Note_on_c, 9, 42, 82
1, 150336, Note_on_c, 9, 54, 57
1, 150343, Control_c, 1, 1, 10
1, 150343, Control_c, 3, 1, 44
1, 150345, Note_off_c, 9, 54, 57
1, 150345, Note_off_c, 9, 42, 82
1, 150345, Note_off_c, 2, 49, 110
1, 150355, Control_c, 1, 1, 5
1, 150363, Control_c, 3, 1, 19
1, 150375, Control_c, 1, 1, 0
1, 150381, Control_c, 3, 1, 0
1, 150391, Note_off_c, 0, 51, 127
1, 150393, Note_off_c, 5, 56, 127
1, 150405, Note_off_c, 0, 56, 125
1, 150417, Note_off_c, 1, 39, 97
1, 150431, Note_off_c, 3, 63, 126
1, 150464, Note_on_c, 1, 37, 90
1, 150464, Note_on_c, 2, 51, 117
1, 150464, Note_on_c, 5, 54, 127
1, 150503, Note_off_c, 5, 54, 127
1, 150503, Note_off_c, 2, 51, 117
1, 150503, Note_off_c, 1, 37, 90
1, 150528, Note_on_c, 0, 27, 122
1, 150528, Note_on_c, 1, 27, 105
1, 150528, Note_on_c, 2, 39, 127
1, 150528, Note_on_c, 4, 63, 127
1, 150528, Note_on_c, 4, 75, 127
1, 150528, Note_on_c, 9, 36, 127
1, 150528, Note_on_c, 9, 49, 84
1, 150528, Note_on_c, 9, 54, 89
1, 150537, Note_off_c, 9, 54, 89
1, 150537, Note_off_c, 9, 49, 84
1, 150537, Note_off_c, 9, 36, 127
1, 150669, Note_off_c, 2, 39, 127
1, 150679, Note_off_c, 1, 27, 105
1, 150701, Note_off_c, 0, 27, 122
1, 150720, Note_on_c, 0, 39, 114
1, 150720, Note_on_c, 1, 39, 98
1, 150720, Note_on_c, 2, 51, 115
1, 150720, Note_on_c, 9, 42, 77
1, 150720, Note_on_c, 9, 54, 53
1, 150729, Note_off_c, 9, 54, 53
1, 150729, Note_off_c, 9, 42, 77
1, 150763, Note_off_c, 0, 39, 114
1, 150771, Note_off_c, 2, 51, 115
1, 150785, Note_off_c, 1, 39, 98
1, 150848, Note_on_c, 1, 27, 61
1, 150863, Pitch_bend_c, 3, 4544
1, 150881, Note_off_c, 1, 27, 61
1, 150885, Pitch_bend_c, 3, 0
1, 150912, Note_on_c, 0, 54, 114
1, 150912, Note_on_c, 0, 49, 100
1, 150912, Note_on_c, 1, 37, 92
1, 150912, Note_on_c, 2, 49, 106
1, 150912, Note_on_c, 9, 39, 126
1, 150912, Note_on_c, 9, 40, 127
1, 150912, Note_on_c, 9, 42, 122
1, 150912, Note_on_c, 9, 36, 127
1, 150912, Note_on_c, 9, 54, 112
1, 150921, Note_off_c, 9, 54, 112
1, 150921, Note_off_c, 9, 36, 127
1, 150921, Note_off_c, 9, 42, 122
1, 150921, Note_off_c, 9, 40, 127
1, 150921, Note_off_c, 9, 39, 126
1, 150927, Note_off_c, 0, 49, 100
1, 150931, Pitch_bend_c, 3, 4800
1, 150939, Note_off_c, 0, 54, 114
1, 150951, Pitch_bend_c, 3, 8000
1, 150965, Pitch_bend_c, 3, 8192
1, 151011, Note_off_c, 1, 37, 92
1, 151025, Note_off_c, 2, 49, 106
1, 151040, Note_on_c, 1, 39, 90
1, 151040, Note_on_c, 2, 51, 88
1, 151079, Note_off_c, 2, 51, 88
1, 151089, Note_off_c, 1, 39, 90
1, 151104, Note_on_c, 0, 39, 117
1, 151104, Note_on_c, 1, 27, 97
1, 151104, Note_on_c, 2, 39, 111
1, 151104, Note_on_c, 9, 42, 62
1, 151104, Note_on_c, 9, 54, 61
1, 151113, Note_off_c, 9, 54, 61
1, 151113, Note_off_c, 9, 42, 62
1, 151129, Note_off_c, 2, 39, 111
1, 151175, Note_off_c, 0, 39, 117
1, 151243, Note_off_c, 1, 27, 97
1, 151296, Note_on_c, 0, 54, 127
1, 151296, Note_on_c, 0, 49, 125
1, 151296, Note_on_c, 1, 30, 104
1, 151296, Note_on_c, 2, 54, 112
1, 151296, Note_on_c, 2, 49, 107
1, 151296, Note_on_c, 9, 42, 117
1, 151296, Note_on_c, 9, 36, 127
1, 151296, Note_on_c, 9, 54, 104
1, 151305, Note_off_c, 9, 54, 104
1, 151305, Note_off_c, 9, 36, 127
1, 151305, Note_off_c, 9, 42, 117
1, 151319, Note_off_c, 2, 54, 112
1, 151335, Note_off_c, 2, 49, 107
1, 151379, Note_off_c, 1, 30, 104
1, 151424, Note_on_c, 1, 32, 74
1, 151463, Note_off_c, 0, 49, 125
1, 151487, Note_off_c, 0, 54, 127
1, 151488, Note_on_c, 1, 34, 93
1, 151488, Note_on_c, 2, 39, 88
1, 151488, Note_on_c, 9, 42, 63
1, 151488, Note_on_c, 9, 54, 51
1, 151489, Note_off_c, 1, 32, 74
1, 151497, Note_off_c, 9, 54, 51
1, 151497, Note_off_c, 9, 42, 63
1, 151501, Note_off_c, 2, 39, 88
1, 151549, Note_off_c, 1, 34, 93
1, 151552, Note_on_c, 0, 39, 109
1, 151575, Note_off_c, 0, 39, 109
1, 151616, Note_on_c, 1, 37, 98
1, 151616, Note_on_c, 2, 51, 115
1, 151651, Note_off_c, 2, 51, 115
1, 151680, Note_on_c, 0, 56, 127
1, 151680, Note_on_c, 0, 51, 121
1, 151680, Note_on_c, 9, 39, 122
1, 151680, Note_on_c, 9, 40, 127
1, 151680, Note_on_c, 9, 42, 126
1, 151680, Note_on_c, 9, 36, 127
1, 151680, Note_on_c, 9, 54, 106
1, 151689, Note_off_c, 9, 54, 106
1, 151689, Note_off_c, 9, 36, 127
1, 151689, Note_off_c, 9, 42, 126
1, 151689, Note_off_c, 9, 40, 127
1, 151689, Note_off_c, 9, 39, 122
1, 151789, Note_off_c, 0, 51, 121
1, 151791, Note_off_c, 1, 37, 98
1, 151808, Note_on_c, 1, 34, 88
1, 151808, Note_on_c, 2, 39, 94
1, 151817, Note_off_c, 0, 56, 127
1, 151819, Note_off_c, 2, 39, 94
1, 151857, Note_off_c, 1, 34, 88
1, 151872, Note_on_c, 0, 54, 116
1, 151872, Note_on_c, 0, 49, 120
1, 151872, Note_on_c, 1, 39, 100
1, 151872, Note_on_c, 2, 49, 108
1, 151872, Note_on_c, 9, 42, 64
1, 151872, Note_on_c, 9, 54, 59
1, 151881, Note_off_c, 9, 54, 59
1, 151881, Note_off_c, 9, 42, 64
1, 151931, Note_off_c, 0, 49, 120
1, 151941, Note_off_c, 0, 54, 116
1, 151947, Note_off_c, 4, 75, 127
1, 151951, Note_off_c, 4, 63, 127
1, 151953, Note_off_c, 1, 39, 100
1, 151983, Note_off_c, 2, 49, 108
1, 152000, Note_on_c, 1, 39, 97
1, 152000, Note_on_c, 2, 51, 96
1, 152033, Note_off_c, 2, 51, 96
1, 152064, Note_on_c, 0, 27, 121
1, 152064, Note_on_c, 1, 27, 104
1, 152064, Note_on_c, 2, 39, 127
1, 152064, Note_on_c, 4, 61, 127
1, 152064, Note_on_c, 4, 73, 127
1, 152064, Note_on_c, 9, 36, 127
1, 152064, Note_on_c, 9, 42, 109
1, 152064, Note_on_c, 9, 54, 112
1, 152073, Note_off_c, 9, 54, 112
1, 152073, Note_off_c, 9, 42, 109
1, 152073, Note_off_c, 9, 36, 127
1, 152073, Note_off_c, 1, 39, 97
1, 152125, Note_off_c, 2, 39, 127
1, 152205, Note_off_c, 0, 27, 121
1, 152227, Note_off_c, 1, 27, 104
1, 152249, Note_off_c, 4, 73, 127
1, 152256, Note_on_c, 0, 54, 127
1, 152256, Note_on_c, 0, 49, 125
1, 152256, Note_on_c, 1, 39, 104
1, 152256, Note_on_c, 2, 51, 127
1, 152256, Note_on_c, 9, 42, 67
1, 152256, Note_on_c, 9, 54, 66
1, 152265, Note_off_c, 9, 54, 66
1, 152265, Note_off_c, 9, 42, 67
1, 152273, Note_off_c, 0, 49, 125
1, 152287, Note_off_c, 0, 54, 127
1, 152301, Note_off_c, 2, 51, 127
1, 152303, Note_off_c, 4, 61, 127
1, 152315, Note_off_c, 1, 39, 104
1, 152384, Note_on_c, 1, 27, 79
1, 152419, Note_off_c, 1, 27, 79
1, 152448, Note_on_c, 0, 39, 107
1, 152448, Note_on_c, 1, 37, 96
1, 152448, Note_on_c, 2, 49, 115
1, 152448, Note_on_c, 4, 72, 127
1, 152448, Note_on_c, 4, 60, 127
1, 152448, Note_on_c, 9, 39, 126
1, 152448, Note_on_c, 9, 40, 127
1, 152448, Note_on_c, 9, 42, 124
1, 152448, Note_on_c, 9, 36, 127
1, 152448, Note_on_c, 9, 54, 110
1, 152457, Note_off_c, 9, 54, 110
1, 152457, Note_off_c, 9, 36, 127
1, 152457, Note_off_c, 9, 42, 124
1, 152457, Note_off_c, 9, 40, 127
1, 152457, Note_off_c, 9, 39, 126
1, 152493, Note_off_c, 0, 39, 107
1, 152569, Note_off_c, 2, 49, 115
1, 152576, Note_on_c, 0, 54, 118
1, 152576, Note_on_c, 0, 49, 112
1, 152576, Note_on_c, 1, 39, 98
1, 152576, Note_on_c, 2, 51, 94
1, 152579, Note_off_c, 1, 37, 96
1, 152591, Note_off_c, 0, 49, 112
1, 152607, Note_off_c, 0, 54, 118
1, 152617, Note_off_c, 2, 51, 94
1, 152640, Note_on_c, 0, 27, 125
1, 152640, Note_on_c, 2, 39, 108
1, 152640, Note_on_c, 9, 42, 73
1, 152640, Note_on_c, 9, 54, 52
1, 152647, Note_off_c, 4, 72, 127
1, 152649, Note_off_c, 9, 54, 52
1, 152649, Note_off_c, 9, 42, 73
1, 152649, Note_off_c, 1, 39, 98
1, 152651, Note_off_c, 4, 60, 127
1, 152679, Note_off_c, 2, 39, 108
1, 152697, Note_off_c, 0, 27, 125
1, 152764, Note_on_c, 9, 54, 65
1, 152768, Note_on_c, 1, 37, 77
1, 152773, Note_off_c, 9, 54, 65
1, 152805, Note_off_c, 1, 37, 77
1, 152832, Note_on_c, 0, 58, 127
1, 152832, Note_on_c, 0, 57, 123
1, 152832, Note_on_c, 0, 56, 117
1, 152832, Note_on_c, 0, 61, 118
1, 152832, Note_on_c, 1, 44, 105
1, 152832, Note_on_c, 2, 46, 117
1, 152832, Note_on_c, 2, 45, 120
1, 152832, Note_on_c, 4, 58, 127
1, 152832, Note_on_c, 4, 70, 127
1, 152832, Note_on_c, 9, 36, 127
1, 152832, Note_on_c, 9, 42, 107
1, 152832, Note_on_c, 9, 54, 112
1, 152841, Note_off_c, 9, 54, 112
1, 152841, Note_off_c, 9, 42, 107
1, 152841, Note_off_c, 9, 36, 127
1, 152853, Pitch_bend_c, 1, 11264
1, 152861, Note_off_c, 0, 56, 117
1, 152867, Note_off_c, 2, 45, 120
1, 152867, Pitch_bend_c, 1, 16383
1, 152875, Note_off_c, 0, 57, 123
1, 152891, Note_off_c, 0, 58, 127
1, 152925, Note_off_c, 1, 44, 105
1, 152949, Pitch_bend_c, 1, 16288
1, 152953, Pitch_bend_c, 1, 14752
1, 152965, Pitch_bend_c, 1, 11360
1, 152979, Pitch_bend_c, 1, 8448
1, 152991, Note_off_c, 2, 46, 117
1, 152997, Pitch_bend_c, 1, 8192
1, 153024, Note_on_c, 0, 57, 102
1, 153024, Note_on_c, 0, 56, 119
1, 153024, Note_on_c, 1, 42, 107
1, 153024, Note_on_c, 2, 49, 87
1, 153024, Note_on_c, 9, 42, 78
1, 153024, Note_on_c, 9, 36, 127
1, 153024, Note_on_c, 9, 54, 54
1, 153031, Note_off_c, 0, 61, 118
1, 153033, Note_off_c, 9, 54, 54
1, 153033, Note_off_c, 9, 36, 127
1, 153033, Note_off_c, 9, 42, 78
1, 153049, Note_off_c, 0, 57, 102
1, 153077, Note_off_c, 0, 56, 119
1, 153105, Note_off_c, 2, 49, 87
1, 153115, Note_off_c, 1, 42, 107
1, 153145, Note_off_c, 4, 70, 127
1, 153152, Note_on_c, 2, 45, 109
1, 153152, Note_on_c, 2, 46, 92
1, 153161, Note_off_c, 4, 58, 127
1, 153199, Note_off_c, 2, 46, 92
1, 153216, Note_on_c, 0, 54, 127
1, 153216, Note_on_c, 1, 42, 100
1, 153216, Note_on_c, 2, 44, 85
1, 153216, Note_on_c, 4, 60, 127
1, 153216, Note_on_c, 4, 72, 121
1, 153216, Note_on_c, 9, 39, 127
1, 153216, Note_on_c, 9, 40, 127
1, 153216, Note_on_c, 9, 42, 127
1, 153216, Note_on_c, 9, 36, 127
1, 153216, Note_on_c, 9, 54, 114
1, 153221, Note_off_c, 2, 45, 109
1, 153225, Note_off_c, 9, 54, 114
1, 153225, Note_off_c, 9, 36, 127
1, 153225, Note_off_c, 9, 42, 127
1, 153225, Note_off_c, 9, 40, 127
1, 153225, Note_off_c, 9, 39, 127
1, 153279, Note_off_c, 4, 60, 127
1, 153279, Note_off_c, 0, 54, 127
1, 153283, Note_off_c, 4, 72, 121
1, 153321, Note_off_c, 2, 44, 85
1, 153344, Note_on_c, 2, 42, 95
1, 153383, Note_off_c, 1, 42, 100
1, 153389, Note_off_c, 2, 42, 95
1, 153408, Note_on_c, 0, 56, 127
1, 153408, Note_on_c, 1, 39, 93
1, 153408, Note_on_c, 2, 44, 95
1, 153408, Note_on_c, 4, 63, 127
1, 153408, Note_on_c, 4, 51, 127
1, 153408, Note_on_c, 9, 42, 71
1, 153408, Note_on_c, 9, 36, 127
1, 153408, Note_on_c, 9, 54, 63
1, 153417, Note_off_c, 9, 54, 63
1, 153417, Note_off_c, 9, 36, 127
1, 153417, Note_off_c, 9, 42, 71
1, 153493, Note_off_c, 0, 56, 127
1, 153505, Note_off_c, 2, 44, 95
1, 153517, Note_off_c, 1, 39, 93
1, 153536, Note_on_c, 0, 54, 123
1, 153536, Note_on_c, 1, 37, 89
1, 153536, Note_on_c, 2, 42, 88
1, 153573, Note_off_c, 0, 54, 123
1, 153577, Note_off_c, 2, 42, 88
1, 153585, Note_off_c, 1, 37, 89
1, 153600, Note_on_c, 0, 27, 120
1, 153600, Note_on_c, 1, 27, 88
1, 153600, Note_on_c, 1, 29, 97
1, 153600, Note_on_c, 2, 39, 127
1, 153600, Note_on_c, 9, 36, 127
1, 153600, Note_on_c, 9, 42, 115
1, 153600, Note_on_c, 9, 54, 110
1, 153609, Note_off_c, 9, 54, 110
1, 153609, Note_off_c, 9, 42, 115
1, 153609, Note_off_c, 9, 36, 127
1, 153613, Note_off_c, 1, 29, 97
1, 153689, Note_off_c, 0, 27, 120
1, 153753, Note_off_c, 2, 39, 127
1, 153792, Note_on_c, 1, 39, 107
1, 153792, Note_on_c, 2, 51, 117
1, 153792, Note_on_c, 9, 42, 57
1, 153792, Note_on_c, 9, 54, 54
1, 153799, Note_off_c, 1, 27, 88
1, 153801, Note_off_c, 9, 54, 54
1, 153801, Note_off_c, 9, 42, 57
1, 153843, Note_off_c, 2, 51, 117
1, 153865, Note_off_c, 1, 39, 107
1, 153920, Note_on_c, 1, 27, 69
1, 153920, Note_on_c, 2, 39, 75
1, 153931, Note_off_c, 2, 39, 75
1, 153939, Note_off_c, 1, 27, 69
1, 153984, Note_on_c, 0, 54, 127
1, 153984, Note_on_c, 0, 49, 124
1, 153984, Note_on_c, 1, 37, 101
1, 153984, Note_on_c, 2, 49, 112
1, 153984, Note_on_c, 9, 39, 124
1, 153984, Note_on_c, 9, 40, 127
1, 153984, Note_on_c, 9, 42, 126
1, 153984, Note_on_c, 9, 36, 127
1, 153984, Note_on_c, 9, 54, 112
1, 153993, Note_off_c, 9, 54, 112
1, 153993, Note_off_c, 9, 36, 127
1, 153993, Note_off_c, 9, 42, 126
1, 153993, Note_off_c, 9, 40, 127
1, 153993, Note_off_c, 9, 39, 124
1, 154021, Note_off_c, 0, 49, 124
1, 154033, Note_off_c, 0, 54, 127
1, 154063, Note_off_c, 2, 49, 112
1, 154087, Note_off_c, 1, 37, 101
1, 154112, Note_on_c, 1, 39, 90
1, 154112, Note_on_c, 2, 51, 92
1, 154143, Note_off_c, 2, 51, 92
1, 154155, Note_off_c, 1, 39, 90
1, 154176, Note_on_c, 0, 39, 103
1, 154176, Note_on_c, 1, 27, 98
1, 154176, Note_on_c, 2, 39, 127
1, 154176, Note_on_c, 9, 42, 66
1, 154176, Note_on_c, 9, 54, 46
1, 154185, Note_off_c, 9, 54, 46
1, 154185, Note_off_c, 9, 42, 66
1, 154203, Note_off_c, 0, 39, 103
1, 154211, Note_off_c, 2, 39, 127
1, 154309, Note_off_c, 1, 27, 98
1, 154368, Note_on_c, 0, 56, 126
1, 154368, Note_on_c, 0, 51, 127
1, 154368, Note_on_c, 1, 30, 118
1, 154368, Note_on_c, 2, 54, 108
1, 154368, Note_on_c, 2, 49, 108
1, 154368, Note_on_c, 9, 36, 127
1, 154368, Note_on_c, 9, 42, 110
1, 154368, Note_on_c, 9, 54, 117
1, 154377, Note_off_c, 9, 54, 117
1, 154377, Note_off_c, 9, 42, 110
1, 154377, Note_off_c, 9, 36, 127
1, 154397, Note_off_c, 2, 54, 108
1, 154415, Note_off_c, 2, 49, 108
1, 154455, Note_off_c, 1, 30, 118
1, 154492, Note_on_c, 9, 54, 70
1, 154496, Note_on_c, 1, 32, 79
1, 154501, Note_off_c, 9, 54, 70
1, 154525, Note_off_c, 0, 51, 127
1, 154549, Note_off_c, 0, 56, 126
1, 154555, Note_off_c, 1, 32, 79
1, 154560, Note_on_c, 0, 39, 114
1, 154560, Note_on_c, 1, 34, 93
1, 154560, Note_on_c, 9, 42, 76
1, 154560, Note_on_c, 9, 54, 62
1, 154569, Note_off_c, 9, 54, 62
1, 154569, Note_off_c, 9, 42, 76
1, 154603, Note_off_c, 0, 39, 114
1, 154633, Note_off_c, 1, 34, 93
1, 154688, Note_on_c, 0, 54, 127
1, 154688, Note_on_c, 0, 49, 118
1, 154688, Note_on_c, 1, 37, 102
1, 154688, Note_on_c, 2, 54, 108
1, 154688, Note_on_c, 2, 49, 110
1, 154688, Note_on_c, 9, 46, 91
1, 154697, Note_off_c, 9, 46, 91
1, 154719, Note_off_c, 0, 49, 118
1, 154727, Note_off_c, 0, 54, 127
1, 154731, Note_off_c, 2, 54, 108
1, 154735, Note_off_c, 2, 49, 110
1, 154752, Note_on_c, 9, 39, 127
1, 154752, Note_on_c, 9, 40, 127
1, 154752, Note_on_c, 9, 42, 105
1, 154752, Note_on_c, 9, 36, 127
1, 154752, Note_on_c, 9, 54, 114
1, 154761, Note_off_c, 9, 54, 114
1, 154761, Note_off_c, 9, 36, 127
1, 154761, Note_off_c, 9, 42, 105
1, 154761, Note_off_c, 9, 40, 127
1, 154761, Note_off_c, 9, 39, 127
1, 154853, Note_off_c, 1, 37, 102
1, 154880, Note_on_c, 0, 39, 111
1, 154880, Note_on_c, 1, 34, 87
1, 154921, Note_off_c, 0, 39, 111
1, 154931, Note_off_c, 1, 34, 87
1, 154944, Note_on_c, 0, 49, 115
1, 154944, Note_on_c, 1, 39, 101
1, 154944, Note_on_c, 2, 54, 112
1, 154944, Note_on_c, 2, 49, 112
1, 154944, Note_on_c, 9, 42, 87
1, 154944, Note_on_c, 9, 54, 70
1, 154953, Note_off_c, 9, 54, 70
1, 154953, Note_off_c, 9, 42, 87
1, 155029, Note_off_c, 1, 39, 101
1, 155033, Note_off_c, 0, 49, 115
1, 155068, Note_on_c, 9, 54, 71
1, 155072, Note_on_c, 0, 51, 118
1, 155072, Note_on_c, 1, 39, 87
1, 155077, Note_off_c, 9, 54, 71
1, 155109, Note_off_c, 0, 51, 118
1, 155123, Note_off_c, 2, 54, 112
1, 155136, Note_on_c, 0, 27, 121
1, 155136, Note_on_c, 1, 27, 107
1, 155136, Note_on_c, 2, 39, 111
1, 155136, Note_on_c, 9, 42, 84
1, 155136, Note_on_c, 9, 36, 127
1, 155136, Note_on_c, 9, 54, 114
1, 155145, Note_off_c, 9, 54, 114
1, 155145, Note_off_c, 9, 36, 127
1, 155145, Note_off_c, 9, 42, 84
1, 155145, Note_off_c, 2, 49, 112
1, 155157, Note_off_c, 1, 39, 87
1, 155253, Note_off_c, 2, 39, 111
1, 155269, Note_off_c, 0, 27, 121
1, 155311, Note_off_c, 1, 27, 107
1, 155328, Note_on_c, 0, 51, 127
1, 155328, Note_on_c, 1, 39, 107
1, 155328, Note_on_c, 2, 51, 114
1, 155328, Note_on_c, 9, 42, 78
1, 155328, Note_on_c, 9, 54, 56
1, 155337, Note_off_c, 9, 54, 56
1, 155337, Note_off_c, 9, 42, 78
1, 155371, Note_off_c, 0, 51, 127
1, 155381, Note_off_c, 2, 51, 114
1, 155397, Note_off_c, 1, 39, 107
1, 155456, Note_on_c, 1, 27, 72
1, 155493, Note_off_c, 1, 27, 72
1, 155501, Note_off_c, 4, 51, 127
1, 155520, Note_on_c, 0, 49, 121
1, 155520, Note_on_c, 1, 37, 102
1, 155520, Note_on_c, 2, 49, 121
1, 155520, Note_on_c, 9, 39, 127
1, 155520, Note_on_c, 9, 42, 120
1, 155520, Note_on_c, 9, 40, 126
1, 155520, Note_on_c, 9, 36, 127
1, 155520, Note_on_c, 9, 54, 112
1, 155525, Note_off_c, 4, 63, 127
1, 155529, Note_off_c, 9, 54, 112
1, 155529, Note_off_c, 9, 36, 127
1, 155529, Note_off_c, 9, 40, 126
1, 155529, Note_off_c, 9, 42, 120
1, 155529, Note_off_c, 9, 39, 127
1, 155563, Note_off_c, 0, 49, 121
1, 155629, Note_off_c, 1, 37, 102
1, 155648, Note_on_c, 1, 39, 101
1, 155657, Note_off_c, 2, 49, 121
1, 155705, Note_off_c, 1, 39, 101
1, 155712, Note_on_c, 0, 51, 127
1, 155712, Note_on_c, 2, 51, 110
1, 155712, Note_on_c, 9, 42, 70
1, 155712, Note_on_c, 9, 36, 127
1, 155712, Note_on_c, 9, 54, 57
1, 155721, Note_off_c, 9, 54, 57
1, 155721, Note_off_c, 9, 36, 127
1, 155721, Note_off_c, 9, 42, 70
1, 155747, Note_off_c, 0, 51, 127
1, 155769, Note_off_c, 2, 51, 110
1, 155840, Note_on_c, 0, 39, 112
1, 155877, Note_off_c, 0, 39, 112
1, 155904, Note_on_c, 0, 54, 121
1, 155904, Note_on_c, 0, 49, 118
1, 155904, Note_on_c, 1, 44, 102
1, 155904, Note_on_c, 2, 44, 110
1, 155904, Note_on_c, 9, 42, 113
1, 155904, Note_on_c, 9, 36, 127
1, 155904, Note_on_c, 9, 54, 117
1, 155913, Note_off_c, 9, 54, 117
1, 155913, Note_off_c, 9, 36, 127
1, 155913, Note_off_c, 9, 42, 113
1, 155937, Pitch_bend_c, 1, 9760
1, 155943, Note_off_c, 0, 49, 118
1, 155949, Pitch_bend_c, 1, 11456
1, 155953, Note_off_c, 0, 54, 121
1, 155963, Note_off_c, 2, 44, 110
1, 155967, Pitch_bend_c, 1, 13824
1, 155977, Pitch_bend_c, 1, 14144
1, 155989, Pitch_bend_c, 1, 14208
1, 155997, Note_off_c, 1, 44, 102
1, 156009, Pitch_bend_c, 1, 13888
1, 156021, Pitch_bend_c, 1, 12160
1, 156035, Pitch_bend_c, 1, 10176
1, 156047, Pitch_bend_c, 1, 8736
1, 156061, Pitch_bend_c, 1, 8320
1, 156063, Pitch_bend_c, 1, 8192
1, 156096, Note_on_c, 0, 39, 110
1, 156096, Note_on_c, 1, 42, 100
1, 156096, Note_on_c, 2, 45, 105
1, 156096, Note_on_c, 9, 42, 75
1, 156096, Note_on_c, 9, 54, 64
1, 156105, Note_off_c, 9, 54, 64
1, 156105, Note_off_c, 9, 42, 75
1, 156127, Note_off_c, 0, 39, 110
1, 156143, Pitch_bend_c, 1, 9696
1, 156157, Pitch_bend_c, 1, 13088
1, 156171, Pitch_bend_c, 1, 16160
1, 156187, Pitch_bend_c, 1, 16383
1, 156191, Note_off_c, 2, 45, 105
1, 156205, Note_off_c, 1, 42, 100
1, 156224, Note_on_c, 0, 54, 121
1, 156224, Note_on_c, 0, 49, 110
1, 156224, Note_on_c, 2, 46, 98
1, 156231, Pitch_bend_c, 1, 14656
1, 156245, Pitch_bend_c, 1, 12256
1, 156255, Pitch_bend_c, 1, 8352
1, 156267, Note_off_c, 0, 49, 110
1, 156271, Note_off_c, 0, 54, 121
1, 156275, Pitch_bend_c, 1, 8192
1, 156288, Note_on_c, 1, 42, 109
1, 156288, Note_on_c, 9, 39, 124
1, 156288, Note_on_c, 9, 42, 127
1, 156288, Note_on_c, 9, 40, 127
1, 156288, Note_on_c, 9, 36, 127
1, 156288, Note_on_c, 9, 54, 110
1, 156295, Note_off_c, 2, 46, 98
1, 156297, Note_off_c, 9, 54, 110
1, 156297, Note_off_c, 9, 36, 127
1, 156297, Note_off_c, 9, 40, 127
1, 156297, Note_off_c, 9, 42, 127
1, 156297, Note_off_c, 9, 39, 124
1, 156416, Note_on_c, 0, 39, 115
1, 156416, Note_on_c, 2, 49, 110
1, 156445, Note_off_c, 0, 39, 115
1, 156453, Control_c, 1, 1, 1
1, 156457, Control_c, 1, 1, 20
1, 156459, Note_off_c, 1, 42, 109
1, 156477, Control_c, 1, 1, 21
1, 156480, Note_on_c, 0, 56, 125
1, 156480, Note_on_c, 0, 51, 127
1, 156480, Note_on_c, 1, 39, 97
1, 156480, Note_on_c, 9, 42, 82
1, 156480, Note_on_c, 9, 54, 57
1, 156489, Note_off_c, 9, 54, 57
1, 156489, Note_off_c, 9, 42, 82
1, 156489, Note_off_c, 2, 49, 110
1, 156493, Control_c, 1, 1, 5
1, 156519, Control_c, 1, 1, 0
1, 156535, Note_off_c, 0, 51, 127
1, 156549, Note_off_c, 0, 56, 125
1, 156561, Note_off_c, 1, 39, 97
1, 156608, Note_on_c, 1, 37, 90
1, 156608, Note_on_c, 2, 51, 117
1, 156647, Note_off_c, 2, 51, 117
1, 156647, Note_off_c, 1, 37, 90
1, 156672, Note_on_c, 0, 27, 126
1, 156672, Note_on_c, 0, 39, 127
1, 156672, Note_on_c, 0, 51, 127
1, 156672, Note_on_c, 1, 27, 127
1, 156672, Note_on_c, 2, 58, 117
1, 156672, Note_on_c, 2, 56, 114
1, 156672, Note_on_c, 2, 61, 122
1, 156672, Note_on_c, 2, 63, 115
1, 156672, Note_on_c, 9, 36, 127
1, 156672, Note_on_c, 9, 49, 114
1, 156681, Note_off_c, 9, 49, 114
1, 156681, Note_off_c, 9, 36, 127
1, 157056, Note_on_c, 9, 51, 104
1, 157065, Note_off_c, 9, 51, 104
1, 157632, Note_on_c, 9, 51, 77
1, 157641, Note_off_c, 9, 51, 77
1, 158144, Note_on_c, 9, 51, 80
1, 158153, Note_off_c, 9, 51, 80
1, 159371, Note_off_c, 2, 63, 115
1, 159375, Note_off_c, 2, 61, 122
1, 159383, Note_off_c, 1, 27, 127
1, 159403, Note_off_c, 2, 58, 117
1, 159409, Note_off_c, 2, 56, 114
1, 159521, Note_off_c, 0, 51, 127
1, 159553, Note_off_c, 0, 39, 127
1, 159583, Note_off_c, 0, 27, 126
1, 161280, End_track
0, 0, End_of_file
